<svg xmlns="http://www.w3.org/2000/svg" xmlns:xlink="http://www.w3.org/1999/xlink" version="1.1" baseProfile="full" viewBox="0 0 200 200" width="200" height="200">
<g fill="black">
<path d="M 154.2 18.2 L 156.7 20.7 L 152.78677682876588 22.051840686798094 L 152.1 23.8 L 149.9 29.6 L 147.3 35.6 L 146.0 38.7 L 144.5 41.8 L 142.9 44.9 L 142.4333333015442 46.0 L 169.3 46.0 L 175.3 41.0 L 186.3 50.0 L 181.3 54.0 L 181.3 102.0 L 169.3 108.0 L 169.3 96.0 L 126.7 96.0 L 126.7 124.0 L 171.9 124.0 L 177.9 119.0 L 188.9 128.0 L 183.9 132.0 L 183.9 181.0 L 171.9 187.0 L 171.9 177.0 L 126.7 177.0 L 126.7 184.0 L 114.7 190.0 L 114.7 40.0 L 126.7 46.0 L 139.99428567886352 46.0 L 140.2 44.2 L 140.4 40.7 L 140.6 37.3 L 140.9 34.0 L 141.5 27.6 L 141.7 24.5 L 142.0 21.5 L 142.32991456985474 16.716239356994627 L 142.2 16.7 L 142.39322032928467 15.798305130004882 L 142.4 15.7 L 142.41366529464722 15.702895164489746 L 142.8 13.9 Z M 68.2 176.0 L 82.2 176.0 L 83.4 175.9 L 84.3 175.7 L 85.2 175.4 L 85.6 175.0 L 85.8 174.7 L 85.9 174.1 L 86.1 173.2 L 86.2 172.0 L 86.2 134.2625 L 85.5 138.2 L 81.8 140.9 L 77.3 140.1 L 74.6 136.4 L 73.3 129.7 L 71.8 123.6 L 70.2 117.9 L 68.5 112.6 L 66.7 107.8 L 64.7 103.4 L 62.7 99.5 L 60.5 95.8 L 59.98452825546265 95.02679243087769 L 59.2 98.8 L 56.5 108.2 L 53.2 116.8 L 49.2 124.5 L 44.5 131.3 L 39.1 137.2 L 33.1 142.0 L 29.2 144.18636360168458 L 29.2 183.0 L 17.2 189.0 L 17.2 59.0 L 29.2 65.0 L 51.4 65.0 L 51.4 36.0 L 11.6 36.0 L 11.6 32.0 L 82.9 32.0 L 92.9 22.0 L 104.9 32.0 L 104.9 36.0 L 63.4 36.0 L 63.4 65.0 L 86.2 65.0 L 92.2 60.0 L 103.2 69.0 L 98.2 73.0 L 98.2 172.0 L 98.0 174.5 L 97.6 177.0 L 96.8 179.4 L 95.6 181.7 L 93.9 183.7 L 91.9 185.3 L 89.6 186.6 L 87.2 187.4 L 84.7 187.8 L 82.2 188.0 L 82.2 182.0 L 68.2 179.0 Z M 126.7 128.0 L 126.7 173.0 L 171.9 173.0 L 171.9 128.0 Z M 29.2 69.0 L 29.2 140.6 L 30.7 139.1 L 35.1 133.6 L 39.1 127.6 L 42.5 120.9 L 45.3 113.6 L 47.6 105.6 L 49.4 96.8 L 50.6 87.3 L 51.3 77.0 L 51.37207202911377 69.0 Z M 63.19487180709839 69.0 L 62.6 77.7 L 61.3 88.7 L 61.071654319763184 89.79823417663575 L 64.5 92.3 L 68.0 95.6 L 71.2 99.5 L 74.2 103.9 L 77.0 108.9 L 79.6 114.4 L 82.1 120.3 L 84.3 126.8 L 86.2 133.3550000190735 L 86.2 69.0 Z M 126.7 50.0 L 126.7 92.0 L 169.3 92.0 L 169.3 50.0 Z " />
</g>
</svg>
