<svg xmlns="http://www.w3.org/2000/svg" xmlns:xlink="http://www.w3.org/1999/xlink" version="1.1" baseProfile="full" viewBox="0 0 200 200" width="200" height="200">
<g fill="black">
<path d="M 53.9 167.7 L 58.1 164.6 L 58.5 164.31162786483765 L 58.5 113.01282052993774 L 57.8 116.1 L 52.8 131.8 L 46.8 146.1 L 39.8 158.9 L 31.8 170.1 L 22.7 179.8 L 12.7 187.7 L 11.5 186.2 L 20.0 177.1 L 27.5 167.0 L 34.1 155.6 L 39.9 143.0 L 44.8 129.1 L 48.8 113.8 L 51.75060243606568 98.0 L 32.90901641845703 98.0 L 31.7 110.5 L 19.2 115.3 L 25.9 46.4 L 37.6 49.5 L 40.4 51.8 L 37.27284231185913 52.88247766494751 L 33.295901679992674 94.0 L 52.273333358764646 94.0 L 54.0 79.2 L 55.3 59.7 L 55.68088493347168 39.89398374557495 L 55.6 39.9 L 55.655882358551025 38.0 L 16.8 38.0 L 16.8 34.0 L 73.3 34.0 L 83.3 24.0 L 95.3 34.0 L 95.3 38.0 L 62.9 38.0 L 67.7 39.0 L 70.6 41.0 L 67.52019233703614 42.84788465499878 L 66.7 60.4 L 64.7 80.3 L 62.49032258987427 94.0 L 78.9 94.0 L 88.9 84.0 L 100.9 94.0 L 100.9 98.0 L 61.845161247253415 98.0 L 61.75759162902832 98.54293193817139 L 70.5 100.0 L 73.5 102.0 L 70.5 103.8 L 70.5 155.85111112594603 L 75.8 152.2 L 80.4 149.1 L 85.2 146.0 L 90.1 143.0 L 95.1 140.0 L 100.4 137.2 L 101.5 138.7 L 97.5 143.0 L 93.4 147.2 L 89.3 151.2 L 85.2 155.1 L 81.1 158.9 L 73.1 166.3 L 69.2 169.9 L 64.62240858078003 174.11620264053346 L 65.0 178.0 L 61.6 176.9 L 52.4 169.0 Z M 160.4 181.8 L 158.6 183.5 L 156.7 184.9 L 154.6 186.2 L 152.4 187.2 L 150.2 188.0 L 147.8 188.5 L 145.4 188.8 L 142.9 189.0 L 142.9 183.0 L 122.9 180.0 L 122.9 177.0 L 142.9 177.0 L 144.3 176.9 L 145.7 176.7 L 146.9 176.4 L 148.0 176.1 L 149.0 175.6 L 150.0 175.0 L 150.9 174.3 L 151.8 173.5 L 152.7 172.5 L 153.5 171.3 L 155.2 168.3 L 156.9 164.0 L 158.5 158.7 L 160.0 152.2 L 161.3 144.7 L 162.4 136.2 L 163.3 126.6 L 164.0 116.0 L 164.5 104.4 L 164.74761905670167 94.0 L 133.97802038192748 94.0 L 132.0 106.7 L 119.3 110.8 L 130.2895604133606 40.0 L 99.2 40.0 L 99.2 36.0 L 169.0 36.0 L 179.0 26.0 L 191.0 36.0 L 191.0 40.0 L 142.3885006904602 40.0 L 134.60101890563965 90.0 L 164.8 90.0 L 170.8 85.0 L 181.8 94.0 L 176.8 97.0 L 176.68402366638185 97.04832344055175 L 176.5 104.9 L 176.0 116.7 L 175.2 127.6 L 174.3 137.5 L 173.1 146.5 L 171.7 154.6 L 170.1 161.7 L 168.2 168.0 L 166.1 173.4 L 163.5 178.0 L 162.0 180.0 Z " />
</g>
</svg>
