<svg xmlns="http://www.w3.org/2000/svg" xmlns:xlink="http://www.w3.org/1999/xlink" version="1.1" baseProfile="full" viewBox="0 0 200 200" width="200" height="200">
<g fill="black">
<path d="M 68.2 176.0 L 82.2 176.0 L 83.4 175.9 L 84.3 175.7 L 85.2 175.4 L 85.6 175.0 L 85.8 174.7 L 85.9 174.1 L 86.1 173.2 L 86.2 172.0 L 86.2 134.2625 L 85.5 138.2 L 81.8 140.9 L 77.3 140.1 L 74.6 136.4 L 73.3 129.7 L 71.8 123.6 L 70.2 117.9 L 68.5 112.6 L 66.7 107.8 L 64.7 103.4 L 62.7 99.5 L 60.5 95.8 L 59.98452825546265 95.02679243087769 L 59.2 98.8 L 56.5 108.2 L 53.2 116.8 L 49.2 124.5 L 44.5 131.3 L 39.1 137.2 L 33.1 142.0 L 29.2 144.18636360168458 L 29.2 183.0 L 17.2 189.0 L 17.2 59.0 L 29.2 65.0 L 51.4 65.0 L 51.4 36.0 L 11.6 36.0 L 11.6 32.0 L 82.9 32.0 L 92.9 22.0 L 104.9 32.0 L 104.9 36.0 L 63.4 36.0 L 63.4 65.0 L 86.2 65.0 L 92.2 60.0 L 103.2 69.0 L 98.2 73.0 L 98.2 172.0 L 98.0 174.5 L 97.6 177.0 L 96.8 179.4 L 95.6 181.7 L 93.9 183.7 L 91.9 185.3 L 89.6 186.6 L 87.2 187.4 L 84.7 187.8 L 82.2 188.0 L 82.2 182.0 L 68.2 179.0 Z M 29.2 69.0 L 29.2 140.6 L 30.7 139.1 L 35.1 133.6 L 39.1 127.6 L 42.5 120.9 L 45.3 113.6 L 47.6 105.6 L 49.4 96.8 L 50.6 87.3 L 51.3 77.0 L 51.37207202911377 69.0 Z M 121.7 147.0 L 121.1 151.3 L 121.4 154.4 L 122.3 156.7 L 123.9 158.5 L 126.6 160.2 L 130.7 161.7 L 136.3 162.6 L 143.3 163.0 L 178.4 163.0 L 184.4 138.0 L 186.4 138.0 L 184.4 163.0 L 188.0 165.4 L 190.4 169.0 L 188.0 172.6 L 184.4 175.0 L 143.3 175.0 L 135.0 174.6 L 127.8 173.3 L 121.4 171.1 L 116.1 167.7 L 112.0 162.9 L 109.7 157.2 L 109.1 150.9 L 110.0 144.2 L 112.3 137.2 L 115.7 129.7 L 162.56655883789062 39.0 L 116.8 39.0 L 116.8 35.0 L 164.3 35.0 L 170.3 30.0 L 181.3 39.0 L 176.3 42.0 L 173.20656223297118 43.288932418823244 L 126.4 135.2 L 123.4 141.6 Z M 63.19487180709839 69.0 L 62.6 77.7 L 61.3 88.7 L 61.071654319763184 89.79823417663575 L 64.5 92.3 L 68.0 95.6 L 71.2 99.5 L 74.2 103.9 L 77.0 108.9 L 79.6 114.4 L 82.1 120.3 L 84.3 126.8 L 86.2 133.3550000190735 L 86.2 69.0 Z " />
</g>
</svg>
