<svg xmlns="http://www.w3.org/2000/svg" xmlns:xlink="http://www.w3.org/1999/xlink" version="1.1" baseProfile="full" viewBox="0 0 200 200" width="200" height="200">
<g fill="black">
<path d="M 186.3 175.0 L 186.3 179.0 L 13.7 179.0 L 13.7 175.0 L 164.3 175.0 L 174.3 165.0 Z M 101.6 162.4 L 99.7 163.7 L 97.6 164.8 L 95.5 165.8 L 93.3 166.6 L 91.0 167.2 L 88.7 167.6 L 86.3 167.9 L 84.0 168.0 L 84.0 162.0 L 64.0 159.0 L 64.0 156.0 L 84.0 156.0 L 85.5 155.9 L 87.0 155.7 L 88.4 155.5 L 91.0 154.7 L 92.3 154.1 L 93.5 153.4 L 94.7 152.6 L 95.8 151.7 L 97.0 150.7 L 99.9 147.2 L 102.6 142.4 L 105.0 136.2 L 107.0 128.7 L 108.6 119.9 L 109.6 109.7 L 110.2 98.3 L 110.3 85.6 L 109.9 71.6 L 109.55473518371582 65.76886034011841 L 109.0 66.0 L 109.0 58.0 L 75.7 58.0 L 74.1 66.0 L 61.1 69.5 L 68.4 33.0 L 18.0 33.0 L 18.0 29.0 L 160.0 29.0 L 170.0 19.0 L 182.0 29.0 L 182.0 33.0 L 80.7 33.0 L 76.5 54.0 L 109.0 54.0 L 115.0 49.0 L 126.0 58.0 L 121.24320983886719 60.85407409667969 L 121.9 71.1 L 122.3 85.4 L 122.2 98.6 L 121.6 110.7 L 120.4 121.5 L 118.7 131.3 L 116.4 139.9 L 113.5 147.5 L 109.8 154.0 L 105.3 159.3 L 103.5 160.9 Z " />
</g>
</svg>
