<svg xmlns="http://www.w3.org/2000/svg" xmlns:xlink="http://www.w3.org/1999/xlink" version="1.1" baseProfile="full" viewBox="0 0 200 200" width="200" height="200">
<g fill="black">
<path d="M 94.6 32.0 L 94.6 36.0 L 75.7 36.0 L 70.6 48.3 L 65.2 60.0 L 59.5 71.3 L 57.16840620040894 75.42806768417358 L 60.6 76.0 L 63.6 78.0 L 60.6 79.8 L 60.6 183.0 L 48.6 189.0 L 48.6 89.825 L 47.0 92.4 L 40.3 102.2 L 33.2 111.4 L 25.8 120.1 L 18.0 128.2 L 9.7 135.6 L 8.4 134.3 L 15.1 125.7 L 21.6 116.7 L 27.9 107.5 L 34.0 98.0 L 39.8 88.0 L 45.3 77.6 L 50.5 66.8 L 55.4 55.6 L 60.0 44.0 L 62.880000019073485 36.0 L 13.6 36.0 L 13.6 32.0 L 72.6 32.0 L 82.6 22.0 Z M 182.6 147.0 L 184.6 147.0 L 182.6 172.0 L 186.2 174.4 L 188.6 178.0 L 186.2 181.6 L 182.6 184.0 L 144.6 184.0 L 142.0 183.8 L 139.5 183.4 L 137.1 182.6 L 134.8 181.3 L 132.8 179.7 L 131.2 177.7 L 129.9 175.4 L 129.1 173.0 L 128.7 170.5 L 128.6 168.0 L 128.6 97.478125 L 91.1 104.9 L 90.4 101.0 L 128.6 93.43958330154419 L 128.6 41.725581359863284 L 124.2 42.8 L 115.0 44.7 L 105.4 46.4 L 95.2 47.8 L 94.7 46.1 L 104.4 42.7 L 113.6 39.5 L 122.3 36.5 L 130.6 33.5 L 138.2 30.5 L 145.4 27.6 L 152.0 24.7 L 158.1 21.8 L 163.7 19.0 L 167.8103099822998 16.61602020263672 L 167.8 16.6 L 167.81412267684937 16.613808822631835 L 168.7 16.1 L 170.20806589126587 18.95455331802368 L 176.8 25.4 L 177.0 28.7 L 173.24694919586182 27.161864376068117 L 168.6 29.2 L 162.4 31.7 L 155.7 34.1 L 148.6 36.4 L 140.9 38.6 L 140.6 38.6777777671814 L 140.6 91.06458330154419 L 164.7423999786377 86.28640003204346 L 172.6 74.5 L 186.4 82.0 L 187.1 85.9 L 140.6 95.103125 L 140.6 169.2 L 140.8 170.1 L 141.1 171.0 L 141.5 171.4 L 142.4 171.7 L 143.3 171.9 L 144.6 172.0 L 176.6 172.0 Z M 79.5 110.9 L 77.9 107.5 L 76.0 104.2 L 74.1 101.0 L 72.0 97.8 L 69.7 94.6 L 67.3 91.5 L 64.8 88.3 L 62.1 85.3 L 63.2 83.8 L 66.8 85.9 L 70.5 88.0 L 73.9 90.4 L 77.2 93.0 L 80.3 95.9 L 83.2 98.9 L 86.0 102.1 L 88.6 105.4 L 91.0 109.0 L 93.3 112.7 L 93.4 117.2 L 90.4 120.7 L 85.9 120.8 L 82.4 117.8 L 81.0 114.3 Z " />
</g>
</svg>
