<svg xmlns="http://www.w3.org/2000/svg" xmlns:xlink="http://www.w3.org/1999/xlink" version="1.1" baseProfile="full" viewBox="0 0 200 200" width="200" height="200">
<g fill="black">
<path d="M 129.0 173.5 L 150.2 173.5 L 151.1 173.3 L 151.7 173.1 L 152.0 172.9 L 152.2 172.8 L 152.4 172.6 L 152.7 171.7 L 152.9 170.8 L 153.0 169.5 L 153.0 96.6 L 105.65760869979859 96.6 L 105.1 102.3 L 103.1 111.0 L 103.06859378814697 111.08374996185303 L 104.3 111.5 L 110.8 114.1 L 116.7 116.9 L 122.1 120.0 L 127.1 123.1 L 131.5 126.5 L 135.4 130.0 L 138.9 133.7 L 141.9 137.5 L 144.3 141.6 L 144.3 146.2 L 141.1 149.5 L 136.6 149.5 L 133.3 146.4 L 132.0 143.3 L 130.3 140.0 L 128.0 136.7 L 125.1 133.2 L 121.7 129.7 L 117.7 126.1 L 113.2 122.5 L 108.1 118.7 L 102.5 114.8 L 101.84328355789185 114.35124378204345 L 100.1 119.0 L 95.9 126.4 L 90.7 133.1 L 84.5 139.0 L 77.4 144.2 L 69.3 148.6 L 60.2 152.3 L 50.2 155.1 L 49.7 153.4 L 58.7 148.8 L 66.6 143.9 L 73.5 138.8 L 79.4 133.4 L 84.2 127.7 L 88.0 121.6 L 90.8 115.1 L 92.8 108.3 L 93.8 101.0 L 93.91139240264893 96.6 L 46.0 96.6 L 46.0 179.5 L 34.0 185.5 L 34.0 86.6 L 46.0 92.6 L 94.0 92.6 L 94.0 71.3 L 20.0 71.3 L 20.0 67.3 L 158.0 67.3 L 168.0 57.3 L 180.0 67.3 L 180.0 71.3 L 106.0 71.3 L 106.0 92.6 L 153.0 92.6 L 159.0 87.6 L 170.0 96.6 L 165.0 100.6 L 165.0 169.5 L 164.8 172.1 L 164.4 174.6 L 163.6 177.0 L 162.3 179.3 L 160.7 181.3 L 158.7 182.9 L 156.4 184.2 L 154.0 185.0 L 151.5 185.4 L 149.0 185.5 L 149.0 179.5 L 129.0 176.5 Z M 186.0 34.2 L 186.0 38.2 L 14.0 38.2 L 14.0 34.2 L 164.0 34.2 L 174.0 24.2 Z " />
</g>
</svg>
