<svg xmlns="http://www.w3.org/2000/svg" xmlns:xlink="http://www.w3.org/1999/xlink" version="1.1" baseProfile="full" viewBox="0 0 200 200" width="200" height="200">
<g fill="black">
<path d="M 14.0 172.2 L 74.0 172.2 L 74.0 132.2 L 45.0 132.2 L 45.0 144.2 L 33.0 150.2 L 33.0 77.3 L 45.0 83.3 L 74.0 83.3 L 74.0 49.5 L 19.0 49.5 L 19.0 45.5 L 159.0 45.5 L 169.0 35.5 L 181.0 45.5 L 181.0 49.5 L 126.0 49.5 L 126.0 83.3 L 155.0 83.3 L 161.0 78.3 L 172.0 87.3 L 167.0 91.3 L 167.0 138.2 L 155.0 144.2 L 155.0 132.2 L 126.0 132.2 L 126.0 172.2 L 164.0 172.2 L 174.0 162.2 L 186.0 172.2 L 186.0 176.2 L 14.0 176.2 Z M 86.0 49.5 L 86.0 89.3 L 74.0 95.3 L 74.0 87.3 L 45.0 87.3 L 45.0 128.2 L 74.0 128.2 L 80.0 123.2 L 91.0 132.2 L 86.0 136.2 L 86.0 172.2 L 114.0 172.2 L 114.0 122.2 L 126.0 128.2 L 155.0 128.2 L 155.0 87.3 L 126.0 87.3 L 126.0 90.3 L 114.0 96.3 L 114.0 49.5 Z M 136.2 106.6 L 136.2 110.6 L 65.7 110.6 L 65.7 106.6 L 121.9777777671814 106.6 L 128.2 99.6 Z M 168.0 24.0 L 168.0 28.0 L 32.0 28.0 L 32.0 24.0 L 146.0 24.0 L 156.0 14.0 Z " />
</g>
</svg>
