<svg xmlns="http://www.w3.org/2000/svg" xmlns:xlink="http://www.w3.org/1999/xlink" version="1.1" baseProfile="full" viewBox="0 0 200 200" width="200" height="200">
<g fill="black">
<path d="M 186.0 163.1 L 186.0 167.1 L 14.0 167.1 L 14.0 163.1 L 164.0 163.1 L 174.0 153.1 Z M 98.6 98.1 L 96.7 96.2 L 94.5 94.2 L 92.0 92.1 L 89.1 89.9 L 85.9 87.7 L 82.4 85.4 L 78.6 83.0 L 76.96510066986085 82.10469799041748 L 75.9 83.0 L 68.6 88.6 L 60.8 93.8 L 58.14782609939575 95.38483562469483 L 61.9 96.3 L 65.7 97.6 L 69.3 99.0 L 72.7 100.5 L 76.0 102.1 L 79.1 103.9 L 82.0 105.8 L 84.7 107.8 L 87.3 109.9 L 88.8 114.2 L 86.9 118.4 L 82.6 119.9 L 78.4 118.0 L 76.9 115.8 L 75.1 113.6 L 73.1 111.4 L 70.9 109.2 L 68.5 107.0 L 65.8 104.8 L 63.0 102.6 L 59.9 100.3 L 56.7 97.9 L 55.30275382995605 97.08493976593017 L 52.6 98.7 L 43.9 103.1 L 34.8 107.1 L 33.9 105.6 L 42.0 99.9 L 49.7 94.2 L 57.0 88.5 L 63.9 82.7 L 70.3 76.7 L 76.3 70.6 L 81.8 64.3 L 87.0 57.8 L 91.6 51.2 L 95.3707145690918 45.23700952529907 L 95.3 45.2 L 96.4 43.6 L 106.0 50.8 L 107.5 54.1 L 103.6898157119751 53.97084121704101 L 100.9 57.8 L 95.3 64.6 L 94.26875 65.7 L 146.8 65.7 L 147.22931032180787 65.34224138259887 L 147.7 64.6 L 147.94385566711426 64.74678688049316 L 152.8 60.7 L 163.8 69.7 L 158.8 72.7 L 155.81374883651733 73.94427127838135 L 149.1 83.6 L 139.4 95.4 L 128.9 106.3 L 117.5 116.2 L 105.3 125.2 L 92.3 133.2 L 78.5 140.2 L 63.9 146.3 L 48.4 151.2 L 32.2 155.0 L 31.7 153.3 L 47.2 147.6 L 61.8 141.3 L 75.5 134.4 L 88.4 126.7 L 100.4 118.3 L 111.5 109.1 L 121.8 99.2 L 131.3 88.4 L 139.9 76.9 L 144.46585369110107 69.7 L 90.51875 69.7 L 89.3 71.0 L 82.8 77.2 L 79.26000003814697 80.175652217865 L 79.7 80.3 L 84.2 81.3 L 88.4 82.6 L 92.2 83.9 L 95.8 85.3 L 99.2 86.8 L 102.3 88.3 L 105.2 89.9 L 107.8 91.7 L 110.2 93.5 L 111.7 97.8 L 109.8 102.0 L 105.5 103.5 L 101.4 101.7 L 100.2 99.9 Z M 168.0 32.2 L 168.0 36.2 L 32.0 36.2 L 32.0 32.2 L 146.0 32.2 L 156.0 22.2 Z " />
</g>
</svg>
