<svg xmlns="http://www.w3.org/2000/svg" xmlns:xlink="http://www.w3.org/1999/xlink" version="1.1" baseProfile="full" viewBox="0 0 200 200" width="200" height="200">
<g fill="black">
<path d="M 163.4 170.5 L 156.5 162.1 L 150.93636360168458 153.29090909957887 L 147.5 158.0 L 138.5 167.8 L 128.6 176.0 L 117.7 182.7 L 106.0 187.8 L 105.3 186.1 L 115.7 179.5 L 125.2 171.9 L 133.8 163.2 L 141.5 153.5 L 146.78365650177003 144.9529086112976 L 145.3 141.9 L 141.0 130.2 L 137.6 117.3 L 134.9 103.3 L 133.2 88.2 L 132.6 72.0 L 125.0 72.0 L 125.0 97.0 L 124.9344262123108 97.09836063385009 L 125.0 97.1 L 124.1 109.7 L 122.8 121.7 L 121.1 132.8 L 118.9 143.3 L 116.3 153.0 L 113.2 162.0 L 109.6 170.2 L 105.5 177.5 L 100.8 184.0 L 95.7 189.5 L 94.3 188.4 L 97.6 182.0 L 100.7 175.1 L 103.5 167.6 L 106.0 159.6 L 108.1 150.9 L 109.8 141.5 L 111.2 131.4 L 112.2 120.6 L 112.8 109.0 L 113.0 96.8 L 113.0 17.0 L 125.0 23.0 L 166.9 23.0 L 176.9 13.0 L 188.9 23.0 L 188.9 27.0 L 125.0 27.0 L 125.0 68.0 L 169.6 68.0 L 175.6 63.0 L 186.6 72.0 L 181.6 75.0 L 180.67570848464965 75.38512144088745 L 178.3 88.6 L 174.0 105.2 L 168.8 120.4 L 162.7 134.3 L 157.28987655639648 143.90106410980223 L 159.3 147.3 L 165.2 155.4 L 171.7 162.2 L 178.7 167.7 L 186.2 172.2 L 191.1 174.8 L 179.9 183.7 L 171.2 177.8 Z M 104.3 24.0 L 104.3 28.0 L 64.4 28.0 L 64.4 57.0 L 85.9 57.0 L 91.9 52.0 L 102.9 61.0 L 97.9 65.0 L 97.9 168.0 L 85.9 174.0 L 85.9 168.0 L 31.5 168.0 L 31.5 180.0 L 19.5 186.0 L 19.5 51.0 L 31.5 57.0 L 52.4 57.0 L 52.4 28.0 L 14.1 28.0 L 14.1 24.0 L 82.3 24.0 L 92.3 14.0 Z M 66.2764705657959 94.434117603302 L 66.0 99.3 L 64.8 107.7 L 63.2 115.7 L 61.4240026473999 121.49129571914673 L 61.6 121.6 L 65.0 123.8 L 68.2 126.2 L 71.2 128.8 L 74.0 131.6 L 76.7 134.6 L 79.1 137.7 L 81.4 141.0 L 83.5 144.4 L 85.4 148.0 L 85.3 152.5 L 82.1 155.8 L 77.5 155.6 L 74.3 152.4 L 73.3 149.1 L 72.1 145.9 L 70.8 142.7 L 69.3 139.5 L 67.7 136.4 L 65.9 133.2 L 63.9 130.1 L 61.8 127.0 L 60.25232553482056 124.81918601989746 L 58.1 130.2 L 54.8 136.8 L 50.9 142.8 L 46.4 148.2 L 41.3 153.0 L 35.7 157.1 L 34.5 155.7 L 38.5 150.4 L 42.1 145.0 L 45.3 139.3 L 48.0 133.4 L 50.2 127.2 L 52.0 120.6 L 53.3 113.7 L 54.2 106.4 L 54.6 98.6 L 54.5123330116272 91.4989722251892 L 54.5 91.5 L 54.5 89.96666669845581 L 54.0 90.9 L 50.5 96.0 L 46.6 100.6 L 42.2 104.6 L 37.4 108.0 L 32.1 110.7 L 31.5 109.8 L 31.5 164.0 L 85.9 164.0 L 85.9 104.60652170181274 L 81.4 104.9 L 78.0 101.9 L 76.5 98.3 L 75.0 94.9 L 73.3 91.4 L 71.4 88.0 L 69.4 84.7 L 67.3 81.4 L 65.1 78.1 L 61.468575191497806 73.10679092407227 L 59.5 79.2 L 57.0 85.3 L 55.40322580337524 88.28064517974853 L 66.5 90.5 L 69.5 92.5 Z M 134.41898736953735 72.0 L 137.4 87.7 L 140.7 102.2 L 144.5 115.4 L 148.9 127.3 L 152.23068265914918 134.57312335968018 L 154.3 130.4 L 159.4 117.0 L 163.7 102.3 L 167.1 86.4 L 169.18092489242554 72.0 Z M 31.5 61.0 L 31.5 108.77948713302612 L 35.0 105.1 L 38.4 100.9 L 41.4 96.5 L 44.1 91.9 L 46.4 87.0 L 48.3 81.8 L 49.9 76.3 L 51.1 70.4 L 52.0 64.1 L 52.18507461547851 61.0 Z M 63.98904113769531 61.0 L 63.2 65.8 L 62.43029451370239 69.11935482025146 L 66.0 71.4 L 69.4 74.0 L 72.7 76.7 L 75.7 79.7 L 78.6 82.8 L 81.4 86.0 L 84.0 89.4 L 85.9 92.06000003814697 L 85.9 61.0 Z " />
</g>
</svg>
