<svg xmlns="http://www.w3.org/2000/svg" xmlns:xlink="http://www.w3.org/1999/xlink" version="1.1" baseProfile="full" viewBox="0 0 200 200" width="200" height="200">
<g fill="black">
<path d="M 158.5 185.9 L 150.1 183.2 L 142.2 180.2 L 134.8 177.2 L 127.8 173.9 L 121.3 170.4 L 115.4 166.7 L 110.0 162.8 L 106.04772729873658 159.1 L 106.0 159.1 L 106.0 187.8 L 94.0 193.8 L 94.0 165.11692304611205 L 92.8 165.8 L 85.9 169.2 L 78.5 172.5 L 70.7 175.5 L 62.4 178.3 L 53.7 180.9 L 44.5 183.2 L 34.9 185.3 L 24.7 187.0 L 14.1 188.3 L 13.8 186.6 L 23.9 183.3 L 33.5 180.1 L 42.7 176.9 L 51.3 173.7 L 59.5 170.3 L 67.1 166.9 L 74.3 163.4 L 80.9 159.7 L 81.8692307472229 159.1 L 15.0 159.1 L 15.0 155.1 L 94.0 155.1 L 94.0 142.1 L 30.0 142.1 L 30.0 138.1 L 94.0 138.1 L 94.0 126.1 L 106.0 128.1 L 109.0 130.1 L 106.0 131.9 L 106.0 138.1 L 151.8181818008423 138.1 L 160.0 129.1 L 170.0 138.1 L 170.0 142.1 L 106.0 142.1 L 106.0 155.1 L 163.0 155.1 L 173.0 145.1 L 185.0 155.1 L 185.0 159.1 L 111.84782609939575 159.1 L 112.1 159.2 L 118.1 161.5 L 124.4 163.9 L 131.0 166.2 L 138.0 168.4 L 145.5 170.5 L 153.3 172.6 L 161.5 174.5 L 170.2 176.3 L 179.3 178.0 L 188.4 179.9 L 176.6 190.9 L 167.3 188.5 Z M 35.7 90.4 L 94.5 90.4 L 94.5 76.2 L 106.5 78.2 L 109.5 80.2 L 106.5 82.0 L 106.5 90.4 L 147.01818180084229 90.4 L 155.2 81.4 L 165.2 90.4 L 165.2 90.86666669845582 L 165.7 89.8 L 166.6 86.6 L 167.5 83.6 L 168.3 81.0 L 169.0 78.5 L 169.5 76.3 L 169.9 74.4 L 33.046666622161865 74.4 L 33.1 76.8 L 32.8 81.1 L 32.0 85.1 L 30.9 88.9 L 29.2 92.4 L 27.1 95.6 L 24.5 98.5 L 21.5 100.9 L 16.9 101.3 L 13.3 98.5 L 12.9 94.0 L 15.7 90.4 L 17.7 89.5 L 19.6 88.4 L 21.4 86.8 L 23.1 84.8 L 24.7 82.4 L 26.2 79.4 L 27.5 75.9 L 28.6 71.9 L 29.6 67.5 L 30.1 62.6 L 31.9 62.5 L 32.5 67.6 L 32.797872352600095 70.4 L 94.0 70.4 L 94.0 60.6 L 52.6 60.6 L 40.6 66.6 L 40.6 33.3 L 52.6 39.3 L 94.0 39.3 L 94.0 30.0 L 18.0 30.0 L 18.0 26.0 L 94.0 26.0 L 94.0 13.0 L 106.0 15.0 L 109.0 17.0 L 106.0 18.8 L 106.0 26.0 L 163.8181818008423 26.0 L 172.0 17.0 L 182.0 26.0 L 182.0 30.0 L 106.0 30.0 L 106.0 39.3 L 147.3 39.3 L 153.3 34.3 L 164.3 43.3 L 159.3 47.3 L 159.3 60.6 L 147.3 66.6 L 147.3 60.6 L 106.0 60.6 L 106.0 70.4 L 170.0 70.4 L 176.0 65.4 L 187.0 74.4 L 182.0 77.4 L 177.69180326461793 79.19508199691772 L 176.9 80.1 L 175.4 81.9 L 173.8 83.9 L 172.0 86.1 L 169.9 88.4 L 167.7 90.9 L 165.7 93.9 L 165.2 93.6 L 165.2 94.4 L 131.32054796218873 94.4 L 140.0 101.0 L 141.4 104.3 L 136.93022842407225 104.14586992263794 L 136.5 104.6 L 134.5 106.5 L 132.3 108.5 L 129.9 110.5 L 127.3 112.7 L 124.6 115.0 L 121.6 117.3 L 118.3 119.6 L 118.18148145675659 119.7 L 156.61818180084228 119.7 L 164.8 110.7 L 174.8 119.7 L 174.8 123.7 L 26.1 123.7 L 26.1 119.7 L 114.82424240112304 119.7 L 116.4 117.7 L 118.5 114.4 L 120.5 111.2 L 122.4 108.3 L 124.1 105.6 L 125.6 103.0 L 127.0 100.6 L 128.1 98.4 L 129.1 96.3 L 129.4976490020752 95.40528964996338 L 129.3 95.3 L 129.91875 94.4 L 35.7 94.4 Z M 71.9 112.6 L 71.3 110.8 L 70.4 108.9 L 69.3 107.0 L 68.0 105.0 L 66.5 103.0 L 64.8 100.9 L 62.9 98.7 L 60.6 96.9 L 61.5 95.4 L 64.2 96.7 L 67.1 97.7 L 69.7 99.0 L 72.2 100.3 L 74.6 101.8 L 76.8 103.5 L 78.8 105.3 L 80.7 107.2 L 82.3 109.3 L 83.8 111.5 L 83.8 116.1 L 80.6 119.3 L 76.0 119.3 L 72.8 116.1 L 72.4 114.4 Z M 52.6 43.3 L 52.6 56.6 L 94.0 56.6 L 94.0 43.3 Z M 106.0 43.3 L 106.0 56.6 L 147.3 56.6 L 147.3 43.3 Z " />
</g>
</svg>
