<svg xmlns="http://www.w3.org/2000/svg" xmlns:xlink="http://www.w3.org/1999/xlink" version="1.1" baseProfile="full" viewBox="0 0 200 200" width="200" height="200">
<g fill="black">
<path d="M 181.0 175.0 L 181.0 179.0 L 20.0 179.0 L 20.0 175.0 L 159.0 175.0 L 169.0 165.0 Z M 72.0 145.1 L 92.0 145.1 L 93.2 145.0 L 94.1 144.9 L 94.7 144.7 L 95.0 144.5 L 95.2 144.4 L 95.4 144.2 L 95.5 143.8 L 95.7 143.2 L 95.9 142.3 L 96.0 141.1 L 96.0 79.7 L 12.0 79.7 L 12.0 75.7 L 117.31428575515747 75.7 L 123.4214285850525 58.6 L 57.56839828491211 58.6 L 55.9 63.3 L 42.6 64.9 L 61.6 11.2 L 72.3 17.1 L 74.4 20.0 L 70.99706010818481 20.77047691345215 L 67.40129871368408 30.9 L 133.0 30.9 L 139.0 25.9 L 150.0 34.9 L 145.0 37.9 L 142.58561916351317 38.90599203109741 L 129.98493146896362 75.7 L 166.0 75.7 L 176.0 65.7 L 188.0 75.7 L 188.0 79.7 L 111.69154930114746 79.7 L 114.6 85.6 L 118.7 92.3 L 123.4 98.6 L 129.0 104.6 L 131.15052471160888 106.54891300201416 L 132.7 105.8 L 138.6 103.1 L 144.3 100.6 L 149.9 98.2 L 155.3 95.8 L 160.6 93.6 L 165.6 91.3 L 170.5 89.1 L 175.2 86.9 L 178.82353134155272 85.24577913284301 L 178.8 85.2 L 178.8422902107239 85.23721532821655 L 179.8 84.8 L 180.60672273635865 86.78991594314576 L 188.8 94.0 L 189.0 97.2 L 185.07877550125122 95.57118368148804 L 184.3 95.9 L 179.4 97.5 L 174.3 99.1 L 169.1 100.7 L 163.7 102.3 L 158.1 103.9 L 152.3 105.4 L 146.4 106.8 L 140.2 108.2 L 134.21142854690552 109.32285718917846 L 135.4 110.4 L 142.7 115.9 L 151.0 121.1 L 160.1 126.1 L 170.3 130.8 L 181.4 135.2 L 188.0 137.8 L 176.5 147.4 L 165.0 142.1 L 154.5 136.4 L 145.0 130.4 L 136.5 124.0 L 129.1 117.3 L 122.8 110.2 L 117.5 102.8 L 113.5 95.1 L 110.7 87.1 L 109.43658533096314 79.7 L 108.0 79.7 L 108.0 141.1 L 107.8 143.7 L 107.4 146.2 L 106.6 148.6 L 105.3 150.8 L 103.7 152.8 L 101.7 154.5 L 99.4 155.7 L 97.0 156.5 L 94.5 157.0 L 92.0 157.1 L 92.0 151.1 L 72.0 148.1 Z M 20.9 133.7 L 28.4 131.5 L 35.7 129.3 L 42.9 127.3 L 50.0 125.4 L 56.9 123.5 L 63.7 121.8 L 70.3 120.3 L 76.9 118.9 L 83.3 117.7 L 89.7 116.8 L 90.2 118.5 L 84.4 121.3 L 78.5 124.0 L 72.3 126.5 L 66.0 129.1 L 59.5 131.6 L 52.9 134.2 L 46.1 136.8 L 32.1 142.2 L 28.660158824920654 143.51939115524291 L 27.7 147.2 L 24.8 145.0 L 19.1 134.3 Z M 56.8 108.0 L 54.4 105.9 L 51.8 103.7 L 48.9 101.4 L 45.7 99.0 L 42.3 96.6 L 38.6 94.1 L 34.7 91.4 L 30.5 88.8 L 31.2 87.1 L 36.0 88.6 L 40.6 89.9 L 45.0 91.3 L 49.0 92.9 L 52.9 94.5 L 56.5 96.1 L 59.8 97.8 L 63.0 99.5 L 65.9 101.2 L 68.7 103.0 L 70.6 107.2 L 69.2 111.5 L 65.1 113.5 L 60.7 112.1 L 58.9 110.1 Z M 65.98138532638549 34.9 L 58.98831167221069 54.6 L 124.85 54.6 L 131.88571424484252 34.9 Z " />
</g>
</svg>
