<svg xmlns="http://www.w3.org/2000/svg" xmlns:xlink="http://www.w3.org/1999/xlink" version="1.1" baseProfile="full" viewBox="0 0 200 200" width="200" height="200">
<g fill="black">
<path d="M 174.30734729766846 26.71732406616211 L 174.9 27.4 L 174.8 27.4 L 174.7360824584961 27.440206146240236 L 174.9 27.4 L 175.0 30.9 L 171.50167150497435 29.474755001068115 L 168.6 31.3 L 162.2 34.9 L 155.5 38.3 L 149.0 41.26323528289795 L 149.0 93.0 L 166.5 93.0 L 176.5 83.0 L 188.5 93.0 L 188.5 97.0 L 149.0 97.0 L 149.0 182.0 L 137.0 188.0 L 137.0 97.0 L 97.4 97.0 L 97.4 93.0 L 137.0 93.0 L 137.0 45.80273971557617 L 134.2 46.8 L 126.6 49.1 L 118.8 51.1 L 110.7 52.7 L 102.4 53.8 L 101.9 52.1 L 109.7 49.0 L 117.2 46.0 L 124.4 42.9 L 131.4 39.8 L 138.1 36.5 L 144.6 33.0 L 150.8 29.4 L 156.7 25.7 L 162.4 21.8 L 167.00384616851807 18.30448713302612 L 167.0 18.3 L 167.0038758277893 18.304464626312257 L 167.8 17.7 Z M 101.7 161.0 L 101.7 165.0 L 12.2 165.0 L 12.2 161.0 L 79.7 161.0 L 89.7 151.0 Z M 87.1 97.0 L 87.1 101.0 L 26.8 101.0 L 26.8 97.0 L 65.1 97.0 L 75.1 87.0 Z M 96.0 37.0 L 96.0 41.0 L 18.0 41.0 L 18.0 37.0 L 74.0 37.0 L 84.0 27.0 Z " />
</g>
</svg>
