<svg xmlns="http://www.w3.org/2000/svg" xmlns:xlink="http://www.w3.org/1999/xlink" version="1.1" baseProfile="full" viewBox="0 0 200 200" width="200" height="200">
<g fill="black">
<path d="M 133.8 38.0 L 136.8 40.0 L 133.8 41.8 L 133.8 79.0 L 138.11818180084228 79.0 L 146.3 70.0 L 156.3 79.0 L 156.3 83.0 L 133.8 83.0 L 133.8 126.0 L 137.1 126.0 L 147.1 116.0 L 159.1 126.0 L 159.1 130.0 L 133.8 130.0 L 133.8 183.0 L 121.8 189.0 L 121.8 130.0 L 97.4 130.0 L 97.4 126.0 L 121.8 126.0 L 121.8 83.0 L 100.2 83.0 L 100.2 79.0 L 121.8 79.0 L 121.8 36.0 Z M 172.2 176.9 L 168.4 168.0 L 165.5 156.6 L 163.4 142.4 L 161.8 125.3 L 160.9 105.2 L 160.5 82.0 L 160.8 55.9 L 161.62910957336425 29.0 L 97.4 29.0 L 97.4 25.0 L 161.7 25.0 L 167.7 20.0 L 178.7 29.0 L 173.7 32.0 L 173.46441078186035 32.09816217422485 L 172.8 56.1 L 172.5 82.0 L 172.9 104.8 L 173.8 124.5 L 175.3 141.0 L 177.3 154.3 L 179.8 164.3 L 181.34275493621826 167.88139533996582 L 185.7 149.0 L 187.7 149.0 L 185.7744680404663 174.0319149017334 L 189.9 175.8 L 191.7 180.0 L 189.9 184.2 L 185.7 186.0 L 177.7 183.3 Z M 25.0 149.0 L 25.0 40.0 L 35.51034479141235 45.255172443389895 L 41.2 43.1 L 47.6 40.7 L 53.8 38.1 L 59.7 35.4 L 65.3 32.6 L 70.8 29.6 L 76.0 26.4 L 81.0 23.1 L 85.7 19.6 L 90.23333330154419 26.2 L 92.9 29.2 L 93.1 32.7 L 89.55090913772582 31.21583471298218 L 87.0 32.7 L 81.3 35.8 L 75.3 38.5 L 69.2 41.0 L 62.8 43.3 L 56.3 45.3 L 49.5 47.0 L 42.6 48.3 L 37.0 49.088732433319095 L 37.0 92.0 L 71.0 92.0 L 81.0 82.0 L 93.0 92.0 L 93.0 96.0 L 37.0 96.0 L 37.0 149.1 L 39.6 149.1 L 46.9 148.8 L 54.1 148.3 L 61.2 147.5 L 68.3 146.6 L 75.4 145.4 L 82.4 144.1 L 96.6 141.1 L 97.3 142.8 L 90.7 146.2 L 84.0 149.2 L 77.0 151.8 L 69.9 154.0 L 62.7 155.9 L 55.4 157.5 L 47.9 158.8 L 40.4 159.8 L 32.7 160.5 L 29.18099546432495 160.72850675582885 L 27.0 164.0 L 25.0 161.0 L 23.0 149.0 Z " />
</g>
</svg>
