<svg xmlns="http://www.w3.org/2000/svg" xmlns:xlink="http://www.w3.org/1999/xlink" version="1.1" baseProfile="full" viewBox="0 0 200 200" width="200" height="200">
<g fill="black">
<path d="M 186.3 176.0 L 186.3 180.0 L 13.7 180.0 L 13.7 176.0 L 168.11818180084228 176.0 L 176.3 167.0 Z M 87.93397741317749 121.9259259223938 L 97.5 130.0 L 97.8 133.1 L 93.66199426651 131.18092489242554 L 91.0 132.0 L 87.6 132.6 L 83.9 133.2 L 80.0 133.7 L 75.8 134.2 L 71.3 134.6 L 66.6 134.9 L 61.5 135.2 L 56.1 135.4 L 50.5 135.4 L 50.4 135.39833335876466 L 50.4 145.6 L 74.61818180084228 145.6 L 82.8 136.6 L 92.8 145.6 L 92.8 149.6 L 50.4 149.6 L 50.4 160.9 L 147.6 160.9 L 147.6 149.6 L 105.2 149.6 L 105.2 145.6 L 147.6 145.6 L 147.6 134.3 L 103.4 134.3 L 103.4 130.3 L 147.6 130.3 L 153.6 125.3 L 164.6 134.3 L 159.6 138.3 L 159.6 164.9 L 147.6 170.9 L 147.6 164.9 L 50.4 164.9 L 38.4 170.9 L 38.4 126.4 L 49.615730381011964 132.00786514282225 L 50.0 131.9 L 55.4 130.4 L 60.5 129.0 L 65.3 127.7 L 69.8 126.4 L 74.0 125.2 L 77.9 124.0 L 81.4 122.8 L 84.6 121.6 L 86.61414794921875 120.836012840271 L 86.6 120.8 L 86.633824634552 120.82854928970337 L 87.5 120.5 Z M 47.4 124.1 L 47.4 81.33333330154419 L 45.2 82.8 L 40.4 85.6 L 35.2 88.4 L 29.7 91.0 L 23.8 93.3 L 22.9 91.8 L 27.7 87.7 L 32.3 83.9 L 36.6 80.2 L 40.7 76.7 L 44.4 73.2 L 47.9 69.8 L 51.1 66.4 L 53.9 63.2 L 56.5 59.9 L 58.121862697601316 57.614648056030276 L 58.1 57.6 L 58.3 57.36363639831543 L 58.7 56.8 L 58.74592084884644 56.83663902282715 L 59.2 56.3 L 68.1 64.3 L 69.2 67.7 L 65.33214282989502 67.15714282989502 L 65.0 67.5 L 61.6 70.7 L 59.428742504119874 72.51916170120239 L 59.55 72.6 L 98.6 72.6 L 99.8 70.8 L 101.0 69.2 L 102.2 67.5 L 103.5 65.9 L 104.7 64.2 L 107.3 61.0 L 109.25 58.45 L 109.1 58.3 L 110.0 57.5 L 117.6 66.8 L 118.0 70.4 L 113.68224296569824 68.90841121673584 L 111.8 69.8 L 109.8 70.7 L 107.9 71.6 L 105.9 72.4 L 105.3285714149475 72.6 L 150.3181818008423 72.6 L 158.5 63.6 L 168.5 72.6 L 168.5 76.6 L 109.9 76.6 L 109.9 86.2 L 143.6777777671814 86.2 L 149.9 79.2 L 157.9 86.2 L 157.9 90.2 L 109.9 90.2 L 109.9 100.5 L 143.6777777671814 100.5 L 149.9 93.5 L 157.9 100.5 L 157.9 104.5 L 109.9 104.5 L 109.9 114.1 L 163.0777777671814 114.1 L 169.3 107.1 L 177.3 114.1 L 177.3 118.1 L 59.4 118.1 Z M 59.4 104.5 L 59.4 114.1 L 97.9 114.1 L 97.9 104.5 Z M 59.4 90.2 L 59.4 100.5 L 97.9 100.5 L 97.9 90.2 Z M 59.4 76.6 L 59.4 86.2 L 97.9 86.2 L 97.9 76.6 Z M 130.2 37.4 L 133.2 39.4 L 130.2 41.2 L 130.2 47.8 L 158.21818180084227 47.8 L 166.4 38.8 L 176.4 47.8 L 176.4 51.8 L 130.2 51.8 L 130.2 59.6 L 118.2 65.6 L 118.2 51.8 L 80.7 51.8 L 80.7 59.6 L 68.7 65.6 L 68.7 51.8 L 22.5 51.8 L 22.5 47.8 L 68.7 47.8 L 68.7 35.4 L 80.7 37.4 L 83.7 39.4 L 80.7 41.2 L 80.7 47.8 L 118.2 47.8 L 118.2 35.4 Z M 176.2 27.3 L 176.2 31.3 L 23.5 31.3 L 23.5 27.3 L 154.2 27.3 L 164.2 17.3 Z " />
</g>
</svg>
