<svg xmlns="http://www.w3.org/2000/svg" xmlns:xlink="http://www.w3.org/1999/xlink" version="1.1" baseProfile="full" viewBox="0 0 200 200" width="200" height="200">
<g fill="black">
<path d="M 57.0 21.0 L 60.0 23.0 L 57.0 24.8 L 57.0 96.0 L 152.0 96.0 L 152.0 19.0 L 164.0 21.0 L 167.0 23.0 L 164.0 24.8 L 164.0 178.0 L 152.0 184.0 L 152.0 100.0 L 57.0 100.0 L 57.0 123.0 L 56.4 132.9 L 55.2 142.2 L 53.4 150.7 L 51.1 158.5 L 48.1 165.6 L 44.5 171.9 L 40.3 177.3 L 35.5 181.8 L 30.2 185.3 L 24.4 187.7 L 23.5 186.2 L 28.0 182.3 L 31.8 178.0 L 35.1 173.3 L 37.9 168.1 L 40.3 162.3 L 42.2 155.8 L 43.6 148.7 L 44.5 140.8 L 45.0 132.3 L 45.0 19.0 Z M 111.8 145.2 L 109.5 141.2 L 106.6 137.3 L 103.3 133.4 L 99.5 129.6 L 95.2 125.8 L 90.4 122.1 L 85.2 118.2 L 79.5 114.3 L 80.2 112.7 L 86.9 114.9 L 93.1 117.5 L 98.9 120.4 L 104.2 123.7 L 109.0 127.2 L 113.4 131.0 L 117.4 135.1 L 120.9 139.5 L 123.9 144.1 L 126.5 149.0 L 126.3 153.5 L 123.0 156.7 L 118.5 156.6 L 115.3 153.3 L 113.8 149.2 Z M 113.8 74.2 L 111.5 70.2 L 108.6 66.3 L 105.3 62.4 L 101.5 58.6 L 97.2 54.8 L 92.4 51.1 L 87.2 47.2 L 81.5 43.3 L 82.2 41.7 L 88.9 43.9 L 95.1 46.5 L 100.9 49.4 L 106.2 52.7 L 111.0 56.2 L 115.4 60.0 L 119.4 64.1 L 122.9 68.5 L 125.9 73.1 L 128.5 78.0 L 128.3 82.5 L 125.0 85.7 L 120.5 85.6 L 117.3 82.3 L 115.8 78.2 Z " />
</g>
</svg>
