<svg xmlns="http://www.w3.org/2000/svg" xmlns:xlink="http://www.w3.org/1999/xlink" version="1.1" baseProfile="full" viewBox="0 0 200 200" width="200" height="200">
<g fill="black">
<path d="M 139.8 38.0 L 142.8 40.0 L 139.8 41.8 L 139.8 79.0 L 141.71818180084227 79.0 L 149.9 70.0 L 159.9 79.0 L 159.9 83.0 L 139.8 83.0 L 139.8 126.0 L 144.3181818008423 126.0 L 152.5 117.0 L 162.5 126.0 L 162.5 130.0 L 139.8 130.0 L 139.8 183.0 L 127.8 189.0 L 127.8 130.0 L 106.0 130.0 L 106.0 126.0 L 127.8 126.0 L 127.8 83.0 L 108.6 83.0 L 108.6 79.0 L 127.8 79.0 L 127.8 36.0 Z M 56.0 178.7 L 50.9 184.0 L 45.3 188.6 L 44.0 187.3 L 48.0 181.5 L 51.7 175.6 L 55.1 169.4 L 58.3 163.0 L 61.1 156.2 L 63.7 149.1 L 65.9 141.6 L 67.8 133.8 L 69.4 125.6 L 70.13684206008911 120.0 L 62.92954549789429 120.0 L 60.1 128.3 L 56.7 136.6 L 53.0 144.5 L 48.9 151.9 L 44.4 158.7 L 39.5 165.1 L 34.2 170.9 L 28.6 176.2 L 22.5 180.8 L 16.0 184.7 L 15.0 183.2 L 20.0 177.9 L 24.8 172.4 L 29.2 166.6 L 33.4 160.6 L 37.2 154.2 L 40.7 147.4 L 43.9 140.3 L 46.8 132.7 L 49.3 124.7 L 50.492537307739255 120.0 L 41.14285717010498 120.0 L 38.0 125.5 L 34.3 131.4 L 30.3 136.8 L 26.0 141.8 L 21.5 146.4 L 16.7 150.3 L 11.7 153.6 L 10.5 152.3 L 14.1 147.6 L 17.5 142.8 L 20.8 137.8 L 24.0 132.6 L 27.0 127.0 L 29.8 121.1 L 32.5 114.9 L 35.0 108.3 L 37.3 101.4 L 38.30740737915039 98.0 L 11.7 98.0 L 11.7 94.0 L 88.11818180084228 94.0 L 96.3 85.0 L 106.3 94.0 L 106.3 98.0 L 50.82266664505005 98.0 L 48.0 105.3 L 44.9 112.4 L 43.152941131591795 116.0 L 87.6 116.0 L 93.6 111.0 L 104.6 120.0 L 99.6 123.0 L 99.46516857147216 123.05617980957031 L 99.4 125.5 L 99.2 132.5 L 98.9 139.0 L 98.5 145.2 L 98.1 150.9 L 97.5 156.1 L 96.9 160.9 L 96.2 165.4 L 95.3 169.4 L 94.4 173.0 L 93.6 175.4 L 92.5 177.7 L 91.2 179.8 L 89.6 181.7 L 87.7 183.3 L 85.6 184.7 L 83.3 185.7 L 80.9 186.4 L 78.4 186.8 L 75.9 187.0 L 75.9 181.0 L 56.49492702484131 178.08923902511597 Z M 174.0 176.7 L 170.5 167.9 L 167.9 156.5 L 165.9 142.3 L 164.5 125.2 L 163.7 105.1 L 163.4 82.0 L 163.6 55.9 L 164.33698625564574 29.0 L 106.0 29.0 L 106.0 25.0 L 164.4 25.0 L 170.4 20.0 L 181.4 29.0 L 176.4 32.0 L 176.2655776023865 32.05600929260254 L 175.6 56.1 L 175.4 82.0 L 175.7 104.8 L 176.5 124.5 L 177.9 141.1 L 179.7 154.4 L 182.0 164.5 L 182.83902435302736 166.59756097793579 L 186.9 149.0 L 188.9 149.0 L 186.97446804046632 174.0319149017334 L 191.1 175.8 L 192.9 180.0 L 191.1 184.2 L 186.9 186.0 L 179.1 183.1 Z M 37.3 22.6 L 80.6 22.6 L 86.6 17.6 L 97.6 26.6 L 92.6 30.6 L 92.6 78.3 L 80.6 84.3 L 80.6 76.3 L 37.3 76.3 L 37.3 79.3 L 25.3 85.3 L 25.3 16.6 Z M 37.3 50.7 L 37.3 72.3 L 80.6 72.3 L 80.6 50.7 Z M 37.3 26.6 L 37.3 46.7 L 80.6 46.7 L 80.6 26.6 Z M 84.4 163.2 L 85.0 159.2 L 85.6 154.7 L 86.1 149.7 L 86.6 144.3 L 86.9 138.4 L 87.2 132.0 L 87.5 125.2 L 87.57123289108276 120.0 L 82.2555555343628 120.0 L 80.5 127.9 L 78.2 136.5 L 75.5 144.7 L 72.4 152.4 L 68.9 159.7 L 65.0 166.5 L 60.7 172.9 L 58.99827585220337 175.0 L 75.9 175.0 L 77.2 174.9 L 78.3 174.7 L 79.2 174.5 L 79.9 174.1 L 80.5 173.8 L 81.0 173.3 L 81.5 172.7 L 82.0 171.9 L 82.5 170.9 L 82.9 169.7 L 83.6 166.7 Z " />
</g>
</svg>
