<svg xmlns="http://www.w3.org/2000/svg" xmlns:xlink="http://www.w3.org/1999/xlink" version="1.1" baseProfile="full" viewBox="0 0 200 200" width="200" height="200">
<g fill="black">
<path d="M 18.0 66.0 L 18.0 62.0 L 40.0 62.0 L 40.0 15.0 L 52.0 17.0 L 55.0 19.0 L 52.0 20.8 L 52.0 62.0 L 70.0 62.0 L 76.0 57.0 L 87.0 66.0 L 82.0 70.0 L 82.0 155.2 L 82.2 156.1 L 82.5 157.0 L 82.9 157.4 L 83.8 157.7 L 84.7 157.9 L 86.0 158.0 L 122.0 158.0 L 122.0 12.0 L 134.0 14.0 L 137.0 16.0 L 134.0 17.8 L 134.0 158.0 L 173.0 158.0 L 179.0 133.0 L 181.0 133.0 L 179.0 158.0 L 182.6 160.4 L 185.0 164.0 L 182.6 167.6 L 179.0 170.0 L 134.0 170.0 L 134.0 183.0 L 122.0 189.0 L 122.0 170.0 L 86.0 170.0 L 83.4 169.8 L 80.9 169.4 L 78.5 168.6 L 76.2 167.3 L 74.2 165.7 L 72.6 163.7 L 71.3 161.4 L 70.5 159.0 L 70.1 156.5 L 70.0 154.0 L 70.0 66.0 L 52.0 66.0 L 52.0 92.0 L 51.3 105.3 L 50.0 117.8 L 47.9 129.6 L 45.2 140.6 L 41.7 150.8 L 37.5 160.2 L 32.6 168.8 L 27.0 176.4 L 20.6 183.0 L 13.5 188.6 L 12.4 187.3 L 17.8 180.5 L 22.7 173.3 L 26.9 165.5 L 30.6 157.1 L 33.7 148.1 L 36.2 138.3 L 38.0 127.8 L 39.3 116.6 L 39.9 104.7 L 40.0 92.0 L 40.0 66.0 Z " />
</g>
</svg>
