<svg xmlns="http://www.w3.org/2000/svg" xmlns:xlink="http://www.w3.org/1999/xlink" version="1.1" baseProfile="full" viewBox="0 0 200 200" width="200" height="200">
<g fill="black">
<path d="M 61.0 16.0 L 64.0 18.0 L 61.0 19.8 L 61.0 49.0 L 71.4 49.0 L 81.4 39.0 L 93.4 49.0 L 93.4 53.0 L 61.0 53.0 L 61.0 93.0 L 69.4 93.0 L 79.4 83.0 L 91.4 93.0 L 91.4 97.0 L 61.0 97.0 L 61.0 139.0 L 76.6 139.0 L 86.6 129.0 L 98.6 139.0 L 98.6 143.0 L 61.0 143.0 L 61.0 183.0 L 49.0 189.0 L 49.0 143.0 L 12.3 143.0 L 12.3 139.0 L 49.0 139.0 L 49.0 97.0 L 19.1 97.0 L 19.1 93.0 L 49.0 93.0 L 49.0 53.0 L 17.0 53.0 L 17.0 49.0 L 49.0 49.0 L 49.0 14.0 Z M 128.5 15.9 L 131.1 18.4 L 127.67243280410767 19.73294277191162 L 126.6 24.7 L 124.3 33.4 L 121.8 42.1 L 120.22298851013184 47.0 L 167.7 47.0 L 177.7 37.0 L 189.7 47.0 L 189.7 51.0 L 142.7 51.0 L 142.7 90.0 L 165.9181818008423 90.0 L 174.1 81.0 L 184.1 90.0 L 184.1 94.0 L 142.7 94.0 L 142.7 133.0 L 167.8181818008423 133.0 L 176.0 124.0 L 186.0 133.0 L 186.0 137.0 L 142.7 137.0 L 142.7 183.0 L 130.7 189.0 L 130.7 51.0 L 118.9264368057251 51.0 L 115.8 59.5 L 112.4 68.2 L 108.6 76.8 L 104.4 85.4 L 99.8 93.9 L 94.7 102.3 L 93.1 101.6 L 96.3 92.4 L 99.5 83.3 L 102.4 74.4 L 105.2 65.6 L 107.8 56.9 L 110.1 48.2 L 112.1 39.5 L 113.9 31.0 L 115.4 22.4 L 116.54646663665771 14.903872203826904 L 116.5 14.9 L 117.0 12.0 Z " />
</g>
</svg>
