<svg xmlns="http://www.w3.org/2000/svg" xmlns:xlink="http://www.w3.org/1999/xlink" version="1.1" baseProfile="full" viewBox="0 0 200 200" width="200" height="200">
<g fill="black">
<path d="M 180.0 151.0 L 182.0 151.0 L 180.0 176.0 L 183.6 178.4 L 186.0 182.0 L 183.6 185.6 L 180.0 188.0 L 126.0 188.0 L 123.4 187.8 L 120.9 187.4 L 118.5 186.6 L 116.2 185.3 L 114.2 183.7 L 112.6 181.7 L 111.3 179.4 L 110.5 177.0 L 110.1 174.5 L 110.0 172.0 L 110.0 138.8 L 87.99677419662476 138.8 L 89.9 139.3 L 92.7 141.5 L 89.09511585235596 143.37176675796508 L 88.2 147.9 L 85.0 155.8 L 80.4 162.9 L 74.5 169.2 L 67.4 174.5 L 59.1 179.0 L 49.6 182.8 L 38.9 185.7 L 27.1 187.8 L 14.1 189.1 L 13.8 187.3 L 26.3 184.1 L 37.4 180.5 L 47.2 176.6 L 55.5 172.3 L 62.5 167.6 L 68.1 162.5 L 72.3 157.0 L 75.3 151.3 L 77.1 145.1 L 77.8522388458252 138.8 L 59.0 138.8 L 59.0 150.8 L 47.0 156.8 L 47.0 90.3 L 59.0 96.3 L 94.0 96.3 L 94.0 75.3 L 18.0 75.3 L 18.0 71.3 L 94.0 71.3 L 94.0 53.0 L 31.0 53.0 L 31.0 49.0 L 94.0 49.0 L 94.0 31.7 L 27.0 31.7 L 27.0 27.7 L 94.0 27.7 L 94.0 11.2 L 106.0 13.2 L 109.0 15.2 L 106.0 17.0 L 106.0 27.7 L 152.0 27.7 L 162.0 17.7 L 174.0 27.7 L 174.0 31.7 L 106.0 31.7 L 106.0 49.0 L 151.8181818008423 49.0 L 160.0 40.0 L 170.0 49.0 L 170.0 53.0 L 106.0 53.0 L 106.0 71.3 L 165.8181818008423 71.3 L 174.0 62.3 L 184.0 71.3 L 184.0 75.3 L 106.0 75.3 L 106.0 92.2 L 97.8 96.3 L 143.0 96.3 L 149.0 91.3 L 160.0 100.3 L 155.0 104.3 L 155.0 144.8 L 143.0 150.8 L 143.0 138.8 L 122.0 138.8 L 122.0 173.2 L 122.2 174.1 L 122.5 175.0 L 122.9 175.4 L 123.8 175.7 L 124.7 175.9 L 126.0 176.0 L 174.0 176.0 Z M 59.0 100.3 L 59.0 134.8 L 143.0 134.8 L 143.0 100.3 Z " />
</g>
</svg>
