<svg xmlns="http://www.w3.org/2000/svg" xmlns:xlink="http://www.w3.org/1999/xlink" version="1.1" baseProfile="full" viewBox="0 0 200 200" width="200" height="200">
<g fill="black">
<path d="M 98.0 25.0 L 98.0 29.0 L 35.0 29.0 L 35.0 79.0 L 56.0 79.0 L 56.0 36.0 L 68.0 38.0 L 71.0 40.0 L 68.0 41.8 L 68.0 79.0 L 71.0 79.0 L 81.0 69.0 L 93.0 79.0 L 93.0 83.0 L 68.0 83.0 L 68.0 126.0 L 74.0 126.0 L 84.0 116.0 L 96.0 126.0 L 96.0 130.0 L 68.0 130.0 L 68.0 183.0 L 56.0 189.0 L 56.0 130.0 L 31.00847454071045 130.0 L 29.5 138.9 L 27.1 149.8 L 24.2 159.9 L 20.9 169.2 L 17.0 177.6 L 12.6 185.0 L 7.7 191.4 L 6.2 190.5 L 9.3 183.3 L 12.1 175.5 L 14.6 167.1 L 16.9 158.0 L 18.8 148.1 L 20.4 137.4 L 21.6 126.0 L 22.4 113.7 L 22.9 100.7 L 23.0 86.9 L 23.0 18.0 L 35.0 24.0 L 35.0 25.0 L 76.0 25.0 L 86.0 15.0 Z M 135.0 38.0 L 138.0 40.0 L 135.0 41.8 L 135.0 79.0 L 137.8181818008423 79.0 L 146.0 70.0 L 156.0 79.0 L 156.0 83.0 L 135.0 83.0 L 135.0 126.0 L 139.0 126.0 L 149.0 116.0 L 161.0 126.0 L 161.0 130.0 L 135.0 130.0 L 135.0 183.0 L 123.0 189.0 L 123.0 130.0 L 101.0 130.0 L 101.0 126.0 L 123.0 126.0 L 123.0 83.0 L 103.0 83.0 L 103.0 79.0 L 123.0 79.0 L 123.0 36.0 Z M 172.0 176.7 L 168.4 167.9 L 165.8 156.6 L 163.7 142.4 L 162.3 125.2 L 161.4 105.2 L 161.0 82.0 L 161.2 55.9 L 161.93951892852783 29.0 L 106.0 29.0 L 106.0 25.0 L 162.0 25.0 L 168.0 20.0 L 179.0 29.0 L 174.0 32.0 L 173.77950649261476 32.09187231063843 L 173.2 56.1 L 173.0 82.0 L 173.4 104.8 L 174.3 124.5 L 175.7 141.0 L 177.6 154.4 L 179.9 164.4 L 180.875 166.875 L 185.0 149.0 L 187.0 149.0 L 185.07446804046631 174.0319149017334 L 189.2 175.8 L 191.0 180.0 L 189.2 184.2 L 185.0 186.0 L 177.1 183.1 Z M 34.2 101.2 L 33.1 114.6 L 31.64079999923706 126.0 L 56.0 126.0 L 56.0 83.0 L 35.0 83.0 L 35.0 87.0 L 34.89201517105103 87.16197719573975 Z " />
</g>
</svg>
