<svg xmlns="http://www.w3.org/2000/svg" xmlns:xlink="http://www.w3.org/1999/xlink" version="1.1" baseProfile="full" viewBox="0 0 200 200" width="200" height="200">
<g fill="black">
<path d="M 62.5 16.0 L 65.5 18.0 L 62.5 19.8 L 62.5 49.0 L 74.0 49.0 L 84.0 39.0 L 96.0 49.0 L 96.0 53.0 L 62.5 53.0 L 62.5 93.0 L 71.9 93.0 L 81.9 83.0 L 93.9 93.0 L 93.9 97.0 L 62.5 97.0 L 62.5 139.0 L 79.4 139.0 L 89.4 129.0 L 101.4 139.0 L 101.4 143.0 L 62.5 143.0 L 62.5 183.0 L 50.5 189.0 L 50.5 143.0 L 12.6 143.0 L 12.6 139.0 L 50.5 139.0 L 50.5 97.0 L 19.5 97.0 L 19.5 93.0 L 50.5 93.0 L 50.5 53.0 L 17.4 53.0 L 17.4 49.0 L 50.5 49.0 L 50.5 14.0 Z M 150.0 17.0 L 153.0 19.0 L 150.0 20.8 L 150.0 58.0 L 165.0 58.0 L 175.0 48.0 L 187.0 58.0 L 187.0 62.0 L 150.0 62.0 L 150.0 107.0 L 164.0 107.0 L 170.0 102.0 L 181.0 111.0 L 176.0 115.0 L 176.0 177.0 L 164.0 183.0 L 164.0 171.0 L 124.0 171.0 L 124.0 183.0 L 112.0 189.0 L 112.0 101.0 L 124.0 107.0 L 138.0 107.0 L 138.0 62.0 L 101.0 62.0 L 101.0 58.0 L 138.0 58.0 L 138.0 15.0 Z M 124.0 167.0 L 164.0 167.0 L 164.0 111.0 L 124.0 111.0 Z " />
</g>
</svg>
