<svg xmlns="http://www.w3.org/2000/svg" xmlns:xlink="http://www.w3.org/1999/xlink" version="1.1" baseProfile="full" viewBox="0 0 200 200" width="200" height="200">
<g fill="black">
<path d="M 128.3 121.1 L 127.4 131.9 L 125.7 142.0 L 123.1 151.2 L 119.6 159.6 L 115.2 167.1 L 110.0 173.8 L 104.0 179.4 L 97.2 184.0 L 89.7 187.4 L 81.5 189.8 L 80.9 188.1 L 88.0 184.1 L 94.2 179.5 L 99.6 174.5 L 104.1 168.9 L 108.0 162.8 L 111.1 155.9 L 113.4 148.3 L 115.1 139.9 L 116.1 130.8 L 116.3 120.8 L 116.3 80.0 L 128.3 82.0 L 131.3 84.0 L 128.3 85.8 L 128.3 121.0 L 128.23442621231078 121.09836063385009 Z M 60.0 16.0 L 63.0 18.0 L 60.0 19.8 L 60.0 49.0 L 69.7 49.0 L 79.7 39.0 L 91.7 49.0 L 91.7 53.0 L 60.0 53.0 L 60.0 93.0 L 67.7 93.0 L 77.7 83.0 L 89.7 93.0 L 89.7 97.0 L 60.0 97.0 L 60.0 139.0 L 74.8 139.0 L 84.8 129.0 L 96.8 139.0 L 96.8 143.0 L 60.0 143.0 L 60.0 183.0 L 48.0 189.0 L 48.0 143.0 L 12.1 143.0 L 12.1 139.0 L 48.0 139.0 L 48.0 97.0 L 18.8 97.0 L 18.8 93.0 L 48.0 93.0 L 48.0 53.0 L 16.7 53.0 L 16.7 49.0 L 48.0 49.0 L 48.0 14.0 Z M 164.8 82.0 L 167.8 84.0 L 164.8 85.8 L 164.8 183.0 L 152.8 189.0 L 152.8 80.0 Z M 169.3 78.1 L 164.3 72.6 L 159.7 66.7 L 155.4 60.5 L 151.4 53.9 L 147.8 47.0 L 144.6 39.8 L 141.8 32.2 L 141.71329135894774 31.869681453704835 L 138.6 38.4 L 134.1 46.5 L 129.2 54.2 L 123.8 61.4 L 118.1 68.1 L 112.0 74.4 L 105.5 80.1 L 98.5 85.2 L 91.1 89.7 L 90.0 88.2 L 96.1 82.3 L 101.8 76.2 L 107.2 69.9 L 112.2 63.3 L 116.9 56.5 L 121.3 49.3 L 125.3 41.7 L 128.9 33.8 L 132.1 25.6 L 135.0 16.9 L 135.06627902984619 16.923255825042723 L 135.6 15.5 L 146.4 20.9 L 148.6 23.7 L 144.9132858276367 24.47615032196045 L 143.71083068847656 27.368542289733888 L 145.6 30.4 L 149.8 37.1 L 154.0 43.4 L 158.4 49.3 L 162.9 54.9 L 167.6 60.2 L 172.4 65.1 L 177.4 69.6 L 182.6 73.8 L 188.0 77.7 L 191.0 79.9 L 180.1 88.2 L 174.5 83.4 Z " />
</g>
</svg>
