<svg xmlns="http://www.w3.org/2000/svg" xmlns:xlink="http://www.w3.org/1999/xlink" version="1.1" baseProfile="full" viewBox="0 0 200 200" width="200" height="200">
<g fill="black">
<path d="M 146.3 178.8 L 133.8 173.0 L 122.5 166.3 L 113.15312833786011 159.518936252594 L 109.6 162.0 L 96.7 169.2 L 82.8 175.5 L 67.7 181.0 L 51.5 185.4 L 34.1 188.8 L 33.8 187.1 L 50.4 181.7 L 65.9 175.9 L 80.1 169.5 L 93.1 162.5 L 104.8 154.9 L 106.40836238861084 153.65579509735107 L 103.2 150.8 L 95.3 141.9 L 88.6 132.4 L 83.3 122.1 L 79.77889909744263 112.0 L 77.26583852767945 112.0 L 75.8 116.0 L 68.7 130.7 L 60.3 143.8 L 50.6 155.5 L 39.7 165.6 L 27.6 174.0 L 14.4 180.8 L 13.5 179.1 L 25.5 170.9 L 36.2 161.6 L 45.7 151.2 L 54.0 139.6 L 61.2 126.7 L 67.2 112.6 L 72.1 97.1 L 75.51547622680664 82.0 L 16.0 82.0 L 16.0 78.0 L 76.23038673400879 78.0 L 78.5 62.2 L 79.82862215042114 43.59929037094116 L 79.8 43.6 L 80.0 40.4 L 91.9 43.3 L 94.8 45.5 L 91.49488439559937 47.216117763519286 L 89.8 63.6 L 87.1957447052002 78.0 L 164.0 78.0 L 174.0 68.0 L 186.0 78.0 L 186.0 82.0 L 86.4723403930664 82.0 L 86.4 82.4 L 81.7 99.9 L 78.73167705535889 108.0 L 145.0 108.0 L 145.4055866241455 107.66201114654541 L 145.6 107.3 L 145.75052757263182 107.37456035614014 L 151.0 103.0 L 162.0 112.0 L 157.0 115.0 L 154.15483875274657 116.18548383712769 L 149.3 124.3 L 141.2 135.0 L 131.8 144.9 L 121.4668378829956 153.67343950271606 L 127.8 157.6 L 138.7 163.0 L 150.6 167.9 L 163.5 172.0 L 177.5 175.5 L 186.1 177.6 L 174.4 188.4 L 159.8 184.0 Z M 82.10625 112.0 L 87.0 120.1 L 93.5 129.0 L 100.7 137.2 L 108.8 144.6 L 113.51222925186157 148.1603509902954 L 115.4 146.7 L 124.7 137.8 L 132.8 128.3 L 139.8 118.1 L 143.0759259223938 112.0 Z M 145.8 62.8 L 143.8 60.6 L 141.2 58.3 L 138.1 56.0 L 134.4 53.6 L 130.2 51.1 L 125.5 48.5 L 120.3 45.8 L 114.6 43.1 L 115.2 41.4 L 121.4 42.6 L 127.3 43.9 L 132.6 45.4 L 137.5 47.0 L 142.0 48.8 L 146.1 50.7 L 149.7 52.8 L 153.0 55.0 L 155.9 57.5 L 158.4 60.2 L 159.1 64.7 L 156.6 68.5 L 152.1 69.2 L 148.3 66.7 L 147.3 64.8 Z M 157.76035900115966 13.748440265655518 L 167.8 22.1 L 168.1 25.1 L 163.85473651885985 23.126849365234374 L 160.5 24.0 L 148.4 26.8 L 135.9 29.4 L 123.2 31.7 L 110.2 33.8 L 96.9 35.7 L 83.3 37.3 L 69.4 38.7 L 55.2 39.8 L 40.8 40.5 L 26.0 40.8 L 25.9 39.1 L 40.4 36.8 L 54.7 34.5 L 68.6 32.2 L 82.2 29.8 L 95.5 27.3 L 108.5 24.7 L 121.2 21.9 L 133.6 18.9 L 145.7 15.7 L 157.4 12.4 Z " />
</g>
</svg>
