<svg xmlns="http://www.w3.org/2000/svg" xmlns:xlink="http://www.w3.org/1999/xlink" version="1.1" baseProfile="full" viewBox="0 0 200 200" width="200" height="200">
<g fill="black">
<path d="M 54.6 92.2 L 57.1 94.8 L 53.407511711120605 96.07558689117431 L 52.6 98.7 L 50.2 105.1 L 49.28064517974853 107.0 L 76.0 107.0 L 82.0 102.0 L 93.0 111.0 L 88.0 114.0 L 86.13807830810546 114.77580070495605 L 83.3 122.0 L 78.2 132.4 L 72.4 142.2 L 65.8 151.2 L 63.4860200881958 153.86750469207763 L 64.0 154.3 L 74.3 160.1 L 87.4 164.9 L 103.7 168.6 L 123.8 171.1 L 148.1 172.3 L 176.9 172.4 L 188.6 172.2 L 177.0 185.5 L 147.6 184.8 L 122.6 182.8 L 101.7 179.4 L 84.3 174.7 L 70.1 168.5 L 58.9 160.9 L 58.04590358734131 160.02604093551636 L 50.7 167.0 L 42.1 173.8 L 32.9 179.7 L 22.9 184.7 L 12.3 188.8 L 11.6 187.1 L 21.1 181.4 L 29.9 175.2 L 38.1 168.6 L 45.5 161.5 L 52.184856224060056 154.02869005203246 L 50.3 152.1 L 44.1 142.1 L 39.9 131.1 L 38.63158369064331 125.24577083587647 L 35.7 129.2 L 31.0 134.9 L 25.7 140.4 L 19.9 145.6 L 13.6 150.6 L 12.3 149.3 L 17.1 143.0 L 21.6 136.9 L 25.8 130.9 L 29.5 124.9 L 32.8 119.0 L 35.6 113.1 L 38.1 107.2 L 40.1 101.4 L 41.7 95.5 L 42.9 89.6 L 42.91363639831543 89.60303030014038 L 43.04285717010498 89.0 L 14.0 89.0 L 14.0 85.0 L 51.0 85.0 L 51.0 65.0 L 22.0 65.0 L 22.0 61.0 L 51.0 61.0 L 51.0 41.0 L 18.0 41.0 L 18.0 37.0 L 51.0 37.0 L 51.0 12.0 L 63.0 14.0 L 66.0 16.0 L 63.0 17.8 L 63.0 37.0 L 74.0 37.0 L 84.0 27.0 L 96.0 37.0 L 96.0 41.0 L 63.0 41.0 L 63.0 61.0 L 75.81818180084228 61.0 L 84.0 52.0 L 94.0 61.0 L 94.0 65.0 L 63.0 65.0 L 63.0 85.0 L 81.81818180084228 85.0 L 90.0 76.0 L 100.0 85.0 L 100.0 89.0 L 46.38181819915771 89.0 Z M 187.0 25.6 L 187.0 29.6 L 151.1125 29.6 L 149.8 32.6 L 148.3 35.7 L 146.9 38.7 L 145.3 41.7 L 143.8 44.5 L 142.2 47.3 L 140.5 50.0 L 138.8 52.5 L 136.9 55.0 L 171.5 55.0 L 177.0 50.0 L 187.5 59.0 L 182.5 62.5 L 182.5 150.7 L 171.5 156.2 L 171.5 144.7 L 119.5 144.7 L 119.5 156.7 L 108.5 162.2 L 108.5 49.5 L 119.5 55.0 L 134.08571424484253 55.0 L 134.4 53.9 L 135.4 47.9 L 136.6 41.9 L 137.2 38.8 L 137.9 35.6 L 139.025 29.6 L 104.0 29.6 L 104.0 25.6 L 165.0 25.6 L 175.0 15.6 Z M 47.345161247253415 111.0 L 47.2 111.3 L 43.9 117.4 L 40.677301692962644 122.35799741744995 L 43.8 129.6 L 49.2 139.2 L 55.8 147.4 L 56.62127504348755 148.09107294082642 L 58.4 145.7 L 63.8 137.0 L 68.6 127.6 L 72.7 117.7 L 74.91226415634155 111.0 Z M 119.5 59.0 L 119.5 140.7 L 171.5 140.7 L 171.5 59.0 Z M 166.5 85.9 L 161.5 88.9 L 161.5 119.3 L 151.5 124.3 L 151.5 115.3 L 139.5 115.3 L 139.5 122.3 L 129.5 127.3 L 129.5 76.9 L 139.5 81.9 L 151.5 81.9 L 156.5 76.9 Z M 139.5 85.9 L 139.5 111.3 L 151.5 111.3 L 151.5 85.9 Z " />
</g>
</svg>
