<svg xmlns="http://www.w3.org/2000/svg" xmlns:xlink="http://www.w3.org/1999/xlink" version="1.1" baseProfile="full" viewBox="0 0 200 200" width="200" height="200">
<g fill="black">
<path d="M 187.2 27.0 L 187.2 31.0 L 143.27058820724488 31.0 L 142.2 33.8 L 140.9 37.1 L 139.5 40.5 L 138.1 43.8 L 134.9 50.4 L 133.2 53.7 L 131.4 56.9 L 129.4 60.1 L 128.89375 61.0 L 161.3 61.0 L 167.3 56.0 L 178.3 65.0 L 173.3 69.0 L 173.3 180.0 L 161.3 186.0 L 161.3 176.0 L 118.2 176.0 L 118.2 183.0 L 106.2 189.0 L 106.2 55.0 L 118.2 61.0 L 126.2555555343628 61.0 L 126.7 59.0 L 127.2 55.4 L 127.8 51.8 L 128.4 48.3 L 129.1 44.8 L 129.7 41.3 L 130.2 37.8 L 130.8 34.4 L 131.28571424484252 31.0 L 91.7 31.0 L 91.7 27.0 L 165.2 27.0 L 175.2 17.0 Z M 94.5 145.0 L 96.5 145.0 L 94.5 170.0 L 98.1 172.4 L 100.5 176.0 L 98.1 179.6 L 94.5 182.0 L 62.9 182.0 L 60.3 181.8 L 57.9 181.4 L 55.4 180.6 L 53.2 179.3 L 51.2 177.7 L 49.5 175.7 L 48.3 173.4 L 47.5 171.0 L 47.0 168.5 L 46.9 166.0 L 46.9 128.0 L 30.8 128.0 L 30.8 140.0 L 18.8 146.0 L 18.8 71.0 L 30.8 73.0 L 33.8 75.0 L 30.8 76.8 L 30.8 124.0 L 46.9 124.0 L 46.9 57.27142858505249 L 45.4 57.7 L 37.5 59.9 L 29.4 62.0 L 21.1 64.0 L 12.6 65.8 L 12.1 64.1 L 19.9 60.4 L 27.7 56.9 L 35.3 53.6 L 42.9 50.5 L 46.9 48.9 L 46.9 21.0 L 58.9 23.0 L 61.9 25.0 L 58.9 26.8 L 58.9 44.12328767776489 L 65.0 41.7 L 72.1 39.0 L 79.1 36.2 L 85.01637105941772 33.93785810470581 L 85.0 33.9 L 85.03555459976197 33.9305233001709 L 85.9 33.6 L 86.41954307556152 35.11866436004639 L 95.6 43.0 L 95.8 46.1 L 91.7682580947876 44.32129030227661 L 89.8 45.0 L 82.7 47.0 L 75.5 49.1 L 68.2 51.2 L 60.7 53.4 L 58.9 53.89736843109131 L 58.9 124.0 L 76.0 124.0 L 76.0 71.0 L 88.0 73.0 L 91.0 75.0 L 88.0 76.8 L 88.0 134.0 L 76.0 140.0 L 76.0 128.0 L 58.9 128.0 L 58.9 166.0 L 59.0 167.2 L 59.1 168.1 L 59.3 168.7 L 59.5 169.0 L 59.7 169.2 L 59.8 169.4 L 60.2 169.5 L 60.8 169.7 L 61.7 169.9 L 62.9 170.0 L 88.5 170.0 Z M 118.2 136.0 L 118.2 172.0 L 161.3 172.0 L 161.3 136.0 Z M 118.2 100.0 L 118.2 132.0 L 161.3 132.0 L 161.3 100.0 Z M 118.2 65.0 L 118.2 96.0 L 161.3 96.0 L 161.3 65.0 Z " />
</g>
</svg>
