<svg xmlns="http://www.w3.org/2000/svg" xmlns:xlink="http://www.w3.org/1999/xlink" version="1.1" baseProfile="full" viewBox="0 0 200 200" width="200" height="200">
<g fill="black">
<path d="M 97.4 182.8 L 94.9 182.4 L 92.5 181.6 L 90.2 180.3 L 88.2 178.7 L 86.6 176.7 L 85.3 174.4 L 84.5 172.0 L 84.1 169.5 L 84.0 167.0 L 84.0 111.1235294342041 L 19.2 117.9 L 18.7 114.0 L 84.0 107.17124185562133 L 84.0 60.577777767181395 L 77.5 61.3 L 64.9 62.6 L 52.5 63.6 L 40.2 64.4 L 28.1 64.8 L 27.8 63.1 L 39.8 60.6 L 51.8 58.3 L 64.0 56.1 L 84.0 52.390322589874266 L 84.0 18.0 L 96.0 20.0 L 99.0 22.0 L 96.0 23.8 L 96.0 50.18571424484253 L 101.4 49.2 L 114.1 46.8 L 126.9 44.4 L 152.9 39.2 L 153.1124593734741 40.39381914138794 L 164.1 49.4 L 164.4 52.4 L 159.97147779464723 50.1258939743042 L 155.0 51.0 L 141.8 53.1 L 128.7 55.0 L 115.7 56.7 L 102.8 58.4 L 96.0 59.20314960479736 L 96.0 105.91633987426758 L 149.82544870376586 100.28753480911254 L 158.8 89.3 L 171.7 98.0 L 172.2 101.9 L 96.0 109.86862745285035 L 96.0 168.2 L 96.2 169.1 L 96.5 170.0 L 96.9 170.4 L 97.8 170.7 L 98.7 170.9 L 100.0 171.0 L 173.0 171.0 L 179.0 146.0 L 181.0 146.0 L 179.0 171.0 L 182.6 173.4 L 185.0 177.0 L 182.6 180.6 L 179.0 183.0 L 100.0 183.0 Z " />
</g>
</svg>
