<svg xmlns="http://www.w3.org/2000/svg" xmlns:xlink="http://www.w3.org/1999/xlink" version="1.1" baseProfile="full" viewBox="0 0 200 200" width="200" height="200">
<g fill="black">
<path d="M 38.0 28.0 L 41.0 30.0 L 38.0 31.8 L 38.0 162.0 L 153.0 162.0 L 163.0 152.0 L 175.0 162.0 L 175.0 166.0 L 38.0 166.0 L 38.0 178.0 L 26.0 184.0 L 26.0 26.0 Z M 120.7 18.1 L 122.5 21.2 L 118.055140209198 21.659813117980956 L 117.8 22.0 L 116.3 23.9 L 114.7 25.9 L 113.0 28.0 L 111.2 30.0 L 109.4 32.1 L 105.5 36.0 L 153.5 36.0 L 159.5 31.0 L 170.5 40.0 L 165.5 44.0 L 165.5 75.6 L 153.5 81.6 L 153.5 73.6 L 76.1 73.6 L 76.1 92.9 L 157.8 92.9 L 163.8 87.9 L 174.8 96.9 L 169.8 100.9 L 169.8 138.7 L 157.8 144.7 L 157.8 132.7 L 76.1 132.7 L 76.1 144.7 L 64.1 150.7 L 64.1 30.0 L 76.1 36.0 L 102.75 36.0 L 103.3 34.9 L 104.1 32.1 L 104.9 29.4 L 107.3 21.9 L 108.0 19.6 L 108.6 17.3 L 109.3 15.1 L 109.57061557769775 13.963414669036865 L 109.4 13.9 L 109.77142858505249 13.119999980926513 L 109.8 13.0 L 109.82336549758911 13.010932445526123 L 110.4 11.8 Z M 76.1 96.9 L 76.1 128.7 L 157.8 128.7 L 157.8 96.9 Z M 76.1 40.0 L 76.1 69.6 L 153.5 69.6 L 153.5 40.0 Z " />
</g>
</svg>
