<svg xmlns="http://www.w3.org/2000/svg" xmlns:xlink="http://www.w3.org/1999/xlink" version="1.1" baseProfile="full" viewBox="0 0 200 200" width="200" height="200">
<g fill="black">
<path d="M 120.0 178.1 L 140.0 178.1 L 141.2 178.0 L 142.1 177.9 L 142.7 177.7 L 143.0 177.5 L 143.2 177.4 L 143.4 177.2 L 143.5 176.8 L 143.7 176.3 L 143.9 175.3 L 144.0 174.1 L 144.0 160.6 L 56.0 160.6 L 56.0 183.8 L 44.0 189.8 L 44.0 160.6 L 14.0 160.6 L 14.0 156.6 L 44.0 156.6 L 44.0 105.7 L 56.0 111.7 L 94.0 111.7 L 94.0 95.1 L 106.0 97.1 L 109.0 99.1 L 106.0 100.9 L 106.0 111.7 L 144.0 111.7 L 150.0 106.7 L 161.0 115.7 L 156.0 119.7 L 156.0 156.6 L 164.0 156.6 L 174.0 146.6 L 186.0 156.6 L 186.0 160.6 L 156.0 160.6 L 156.0 174.1 L 155.8 176.7 L 155.4 179.2 L 154.6 181.6 L 153.3 183.8 L 151.7 185.9 L 149.7 187.5 L 147.4 188.7 L 145.0 189.5 L 142.5 190.0 L 140.0 190.1 L 140.0 184.1 L 120.0 181.1 Z M 56.0 138.6 L 56.0 156.6 L 94.0 156.6 L 94.0 138.6 Z M 106.0 138.6 L 106.0 156.6 L 144.0 156.6 L 144.0 138.6 Z M 56.0 115.7 L 56.0 134.6 L 94.0 134.6 L 94.0 115.7 Z M 106.0 115.7 L 106.0 134.6 L 144.0 134.6 L 144.0 115.7 Z M 105.8 19.1 L 106.8 22.5 L 101.97452058792115 21.653424644470213 L 101.1 22.2 L 99.4 23.3 L 97.6 24.3 L 95.7 25.4 L 93.7 26.5 L 92.01999998092651 27.3 L 147.0 27.3 L 153.0 22.3 L 164.0 31.3 L 159.0 35.3 L 159.0 52.7 L 147.0 58.7 L 147.0 52.7 L 55.0 52.7 L 55.0 63.5 L 152.0 63.5 L 158.0 58.5 L 169.0 67.5 L 164.0 71.5 L 164.0 92.3 L 152.0 98.3 L 152.0 90.3 L 55.0 90.3 L 55.0 97.3 L 43.0 103.3 L 43.0 21.3 L 55.0 27.3 L 87.6235294342041 27.3 L 88.0 26.9 L 89.2 24.8 L 90.3 22.9 L 91.5 21.0 L 92.5 19.2 L 93.5 17.5 L 94.4 15.8 L 95.3 14.2 L 96.1 12.7 L 96.31658687591553 12.15853271484375 L 96.1 12.0 L 96.6384614944458 11.353846168518066 L 96.7 11.2 L 96.73868227005005 11.233581256866454 L 97.1 10.8 Z M 55.0 67.5 L 55.0 86.3 L 152.0 86.3 L 152.0 67.5 Z M 55.0 31.3 L 55.0 48.7 L 147.0 48.7 L 147.0 31.3 Z " />
</g>
</svg>
