<svg xmlns="http://www.w3.org/2000/svg" xmlns:xlink="http://www.w3.org/1999/xlink" version="1.1" baseProfile="full" viewBox="0 0 200 200" width="200" height="200">
<g fill="black">
<path d="M 182.4 182.6 L 177.0 176.0 L 172.0 168.8 L 167.5 161.1 L 163.3 152.7 L 159.7 143.8 L 156.4 134.3 L 153.5 124.1 L 151.2 113.4 L 149.58071699142457 103.23450107574463 L 144.1 117.7 L 137.2 132.5 L 129.7 146.1 L 121.5 158.3 L 112.5 169.2 L 102.9 178.7 L 92.5 186.7 L 91.4 185.2 L 100.2 176.0 L 108.4 165.8 L 116.0 154.6 L 123.1 142.3 L 129.6 128.9 L 135.4 114.3 L 140.7 98.5 L 145.3 81.5 L 149.3 63.3 L 152.15670099258423 47.0 L 127.73867921829223 47.0 L 127.0 49.7 L 123.8 59.8 L 120.3 69.6 L 116.4 78.9 L 112.2 87.8 L 107.7 96.2 L 102.7 104.1 L 97.3 111.4 L 95.7 110.5 L 99.4 102.2 L 102.9 93.8 L 106.2 85.1 L 109.3 76.1 L 112.2 66.8 L 114.9 57.2 L 117.3 47.2 L 119.4 36.8 L 121.3 26.1 L 122.75526332855225 16.004110527038574 L 122.7 16.0 L 123.2 13.0 L 134.8 16.9 L 137.4 19.3 L 134.0322373390198 20.672051429748535 L 132.5 28.2 L 129.9 39.1 L 128.83301887512206 43.0 L 152.6 43.0 L 158.6 38.0 L 169.6 47.0 L 164.6 50.0 L 163.57897176742554 50.42542848587036 L 160.4 65.7 L 155.7 84.3 L 151.91263990402223 96.21296901702881 L 153.4 101.2 L 156.9 111.9 L 160.5 122.0 L 164.2 131.4 L 168.2 140.1 L 172.5 148.1 L 177.0 155.4 L 181.7 162.1 L 186.6 168.1 L 193.1 174.6 Z M 32.0 176.0 L 20.0 182.0 L 20.0 98.0 L 32.0 104.0 L 47.0 104.0 L 47.0 60.0 L 13.0 60.0 L 13.0 56.0 L 47.0 56.0 L 47.0 15.0 L 59.0 17.0 L 62.0 19.0 L 59.0 20.8 L 59.0 56.0 L 77.0 56.0 L 87.0 46.0 L 99.0 56.0 L 99.0 60.0 L 59.0 60.0 L 59.0 104.0 L 73.0 104.0 L 79.0 99.0 L 90.0 108.0 L 85.0 112.0 L 85.0 156.0 L 91.0 160.0 L 91.0 164.0 L 32.0 164.0 Z M 32.0 160.0 L 73.0 160.0 L 73.0 108.0 L 32.0 108.0 Z " />
</g>
</svg>
