<svg xmlns="http://www.w3.org/2000/svg" xmlns:xlink="http://www.w3.org/1999/xlink" version="1.1" baseProfile="full" viewBox="0 0 200 200" width="200" height="200">
<g fill="black">
<path d="M 13.7 76.0 L 13.7 72.0 L 47.9 72.0 L 47.9 36.04399995803833 L 47.6 36.1 L 39.9 37.3 L 32.0 38.2 L 23.9 38.7 L 15.6 38.8 L 15.4 37.1 L 23.4 35.0 L 31.1 32.9 L 38.6 30.9 L 45.8 28.7 L 52.8 26.5 L 59.6 24.1 L 66.1 21.5 L 72.4 18.8 L 78.5 16.0 L 83.42948360443116 13.450267124176026 L 83.4 13.4 L 83.4450782775879 13.442200946807862 L 84.3 13.0 L 85.38923959732055 15.262266826629638 L 92.8 22.2 L 92.9 25.5 L 89.19642858505249 23.92142858505249 L 83.0 26.4 L 76.3 28.8 L 69.4 31.0 L 62.3 32.9 L 55.1 34.7 L 50.85471696853638 35.49245281219483 L 59.9 37.0 L 62.9 39.0 L 59.9 40.8 L 59.9 72.0 L 72.2 72.0 L 82.2 62.0 L 94.2 72.0 L 94.2 76.0 L 59.9 76.0 L 59.9 101.0 L 59.2 113.7 L 58.89333333969116 116.0 L 74.0 116.0 L 84.0 106.0 L 96.0 116.0 L 96.0 120.0 L 58.36000003814697 120.0 L 57.6 125.7 L 55.1 136.8 L 51.7 147.1 L 47.5 156.5 L 42.3 165.0 L 36.3 172.5 L 29.4 179.1 L 21.7 184.5 L 13.2 188.7 L 12.3 187.2 L 19.5 181.4 L 25.7 175.2 L 31.2 168.4 L 35.9 161.0 L 39.8 152.9 L 43.0 144.1 L 45.3 134.5 L 47.0 124.1 L 47.29285717010498 120.0 L 11.8 120.0 L 11.8 116.0 L 47.57857141494751 116.0 L 47.8 112.9 L 47.9 101.0 L 47.9 76.0 Z M 154.5 169.5 L 144.9 160.8 L 136.4 151.1 L 134.2137409210205 147.9683316230774 L 126.7 157.0 L 115.6 167.4 L 103.2 176.2 L 89.6 183.3 L 74.8 188.8 L 74.2 187.1 L 87.9 180.0 L 100.2 171.8 L 111.3 162.5 L 121.1 152.0 L 129.22282094955443 140.8191759109497 L 129.0 140.5 L 122.8 129.0 L 117.6 116.6 L 113.6 103.3 L 110.9 89.1 L 109.9852349281311 79.95234899520874 L 105.3 86.8 L 99.6 93.9 L 93.5 100.5 L 92.1 99.4 L 96.5 91.7 L 100.7 83.9 L 104.8 76.0 L 108.6 67.8 L 112.1 59.4 L 115.3 50.8 L 118.3 41.9 L 120.9 32.8 L 123.3 23.3 L 125.18102025985718 14.611477851867676 L 125.1 14.6 L 125.8 11.8 L 137.1 16.3 L 139.5 18.9 L 136.04482898712158 20.030783271789552 L 134.3 26.2 L 131.2 35.9 L 127.7 45.3 L 123.9 54.3 L 120.70581398010253 61.0 L 165.4 61.0 L 175.4 51.0 L 187.4 61.0 L 187.4 65.0 L 166.07539262771607 65.0 L 163.0 82.8 L 158.4 100.5 L 152.5 116.8 L 145.2 131.7 L 140.17128381729125 139.53544149398803 L 144.3 144.6 L 152.5 152.8 L 161.7 160.1 L 171.6 166.5 L 182.5 172.0 L 188.2 174.7 L 176.8 183.9 L 165.1 177.2 Z M 118.675 65.0 L 115.3 71.3 L 111.98154125213622 76.76163005828857 L 115.0 88.2 L 119.3 101.6 L 124.3 113.9 L 130.2 125.1 L 134.46421432495117 131.75475864410402 L 137.0 127.3 L 143.1 113.1 L 148.1 97.5 L 151.9 80.6 L 153.93863639831542 65.0 Z " />
</g>
</svg>
