<svg xmlns="http://www.w3.org/2000/svg" xmlns:xlink="http://www.w3.org/1999/xlink" version="1.1" baseProfile="full" viewBox="0 0 200 200" width="200" height="200">
<g fill="black">
<path d="M 151.6 175.6 L 149.7 177.1 L 147.7 178.4 L 145.6 179.5 L 143.4 180.4 L 141.1 181.1 L 138.8 181.6 L 136.4 181.9 L 134.0 182.0 L 134.0 176.0 L 114.0 173.0 L 114.0 170.0 L 134.0 170.0 L 135.4 169.9 L 136.8 169.7 L 138.1 169.5 L 139.4 169.1 L 140.5 168.6 L 141.7 168.0 L 142.7 167.3 L 143.8 166.5 L 144.8 165.5 L 145.8 164.4 L 149.3 159.7 L 152.5 154.2 L 155.4 147.9 L 158.0 140.7 L 160.2 132.6 L 162.1 123.7 L 163.6 114.0 L 164.8 103.4 L 165.6 92.1 L 165.93114757537842 82.0 L 135.58490562438965 82.0 L 134.0 94.6 L 121.2 98.9 L 130.61843252182007 32.0 L 90.74609050750732 32.0 L 88.7 54.6 L 85.4 77.0 L 81.0 97.5 L 75.5 116.2 L 68.9 132.9 L 61.1 147.6 L 52.3 160.4 L 42.4 171.0 L 31.4 179.5 L 19.4 185.8 L 18.5 184.1 L 29.1 176.5 L 38.6 167.3 L 47.0 156.4 L 54.5 143.9 L 61.0 129.5 L 66.6 113.3 L 71.2 95.3 L 74.8 75.3 L 77.4 53.4 L 78.77179489135742 32.0 L 34.0 32.0 L 34.0 28.0 L 131.0 28.0 L 137.0 23.0 L 148.0 32.0 L 143.0 35.0 L 141.4137167930603 35.66095132827759 L 136.08805027008057 78.0 L 166.0 78.0 L 172.0 73.0 L 183.0 82.0 L 178.0 85.0 L 177.73780164718627 85.1092493057251 L 177.5 92.6 L 176.7 104.5 L 175.5 115.6 L 173.9 125.9 L 171.9 135.5 L 169.4 144.3 L 166.5 152.4 L 163.2 159.7 L 159.3 166.3 L 155.0 172.2 L 153.3 174.0 Z M 113.51457071304321 154.327059841156 L 109.6 159.7 L 104.0 165.9 L 97.9 171.3 L 91.2 175.8 L 84.0 179.3 L 76.3 181.8 L 75.6 180.1 L 82.2 175.9 L 88.1 171.3 L 93.5 166.3 L 98.4 160.8 L 102.8 154.7 L 106.6 148.0 L 107.4358118057251 146.20546283721924 L 106.6 145.3 L 103.9 142.7 L 100.8 140.1 L 97.4 137.4 L 93.7 134.7 L 93.4524115562439 134.55262594223024 L 90.4 138.9 L 86.9 143.3 L 83.1 147.3 L 79.0 150.7 L 74.6 153.6 L 73.3 152.3 L 76.3 148.1 L 79.0 143.8 L 81.6 139.5 L 84.0 135.0 L 86.1 130.2 L 88.1 125.2 L 89.9 120.0 L 91.4 114.5 L 92.8 108.7 L 93.7162901878357 103.70205335617065 L 93.7 103.7 L 93.81538457870484 103.1615385055542 L 93.9 102.7 L 93.91366024017334 102.70291881561279 L 94.3 100.9 L 105.6 105.2 L 108.1 107.8 L 104.54117650985718 108.96470584869385 L 103.8 111.6 L 102.98709678649902 114.0 L 117.0 114.0 L 123.0 109.0 L 134.0 118.0 L 129.0 121.0 L 127.63850469589234 121.56728973388672 L 126.2 127.1 L 122.9 136.4 L 119.1533371925354 144.78069324493407 L 121.0 146.5 L 123.6 149.4 L 125.8 152.5 L 126.2 157.0 L 123.4 160.6 L 118.8 161.0 L 115.2 158.1 L 114.2 155.6 Z M 101.61724138259888 118.0 L 99.3 123.6 L 96.6 129.0 L 94.98511371612548 131.8956582069397 L 95.0 131.9 L 99.6 133.3 L 103.8 135.0 L 107.8 136.9 L 110.74498310089112 138.5714768409729 L 112.8 132.7 L 115.2 124.1 L 116.44623651504517 118.0 Z " />
</g>
</svg>
