<svg xmlns="http://www.w3.org/2000/svg" xmlns:xlink="http://www.w3.org/1999/xlink" version="1.1" baseProfile="full" viewBox="0 0 200 200" width="200" height="200">
<g fill="black">
<path d="M 69.6 176.0 L 83.6 176.0 L 84.8 175.9 L 85.7 175.7 L 86.3 175.5 L 86.7 175.4 L 86.9 175.2 L 87.0 175.0 L 87.2 174.7 L 87.4 174.1 L 87.5 173.2 L 87.6 172.0 L 87.6 133.03457946777343 L 80.7 138.0 L 75.5 130.2 L 71.0 121.6 L 67.1 112.4 L 63.9 102.6 L 61.3 92.1 L 60.14167423248291 85.33293905258179 L 58.3 93.1 L 55.5 102.3 L 52.4 110.9 L 48.7 118.9 L 44.6 126.3 L 40.1 133.1 L 35.0 139.2 L 30.3 143.64821424484253 L 30.3 182.0 L 18.3 188.0 L 18.3 55.0 L 30.3 61.0 L 57.64079999923706 61.0 L 57.4 56.7 L 57.6 43.7 L 58.59275360107422 30.0 L 34.2 30.0 L 34.2 26.0 L 55.78000001907348 26.0 L 59.5 22.9 L 70.5 31.9 L 65.5 34.9 L 61.08445234298706 37.10777387619019 L 61.7 43.5 L 63.3 56.3 L 64.05042018890381 61.0 L 87.6 61.0 L 93.6 56.0 L 104.6 65.0 L 99.6 69.0 L 99.6 172.0 L 99.5 174.5 L 99.0 177.0 L 98.2 179.4 L 97.0 181.7 L 95.3 183.7 L 93.3 185.3 L 91.1 186.6 L 88.7 187.4 L 86.2 187.8 L 83.6 188.0 L 83.6 182.0 L 69.6 179.0 Z M 30.3 65.0 L 30.3 139.62564105987548 L 31.9 137.0 L 35.5 130.3 L 38.8 123.3 L 41.8 115.9 L 44.4 108.0 L 46.6 99.7 L 48.5 90.9 L 50.0 81.6 L 51.1 71.8 L 51.62815532684326 65.0 Z M 118.1 146.2 L 117.4 150.7 L 117.6 154.0 L 118.5 156.4 L 120.2 158.3 L 123.0 160.1 L 127.3 161.6 L 133.2 162.6 L 140.5 163.0 L 177.6 163.0 L 183.6 138.0 L 185.6 138.0 L 183.6 163.0 L 187.2 165.4 L 189.6 169.0 L 187.2 172.6 L 183.6 175.0 L 140.5 175.0 L 132.0 174.5 L 124.4 173.3 L 117.9 171.0 L 112.4 167.4 L 108.2 162.6 L 105.9 156.6 L 105.4 150.1 L 106.5 143.2 L 109.0 136.0 L 112.7 128.2 L 161.01666669845582 39.0 L 112.8 39.0 L 112.8 35.0 L 162.9 35.0 L 168.9 30.0 L 179.9 39.0 L 174.9 42.0 L 171.76051664352417 43.30811805725098 L 123.3 133.9 L 120.1 140.6 Z M 64.68907566070557 65.0 L 65.2 68.2 L 67.6 79.4 L 70.3 89.8 L 73.6 99.4 L 77.3 108.2 L 81.5 116.2 L 86.0 123.4 L 87.6 125.43921566009521 L 87.6 65.0 Z " />
</g>
</svg>
