<svg xmlns="http://www.w3.org/2000/svg" xmlns:xlink="http://www.w3.org/1999/xlink" version="1.1" baseProfile="full" viewBox="0 0 200 200" width="200" height="200">
<g fill="black">
<path d="M 167.6 172.4 L 161.7 163.0 L 157.1 151.2 L 153.6 136.9 L 150.9 120.0 L 149.1 100.4 L 148.2 78.2 L 148.2 53.3 L 148.9333333015442 28.0 L 23.0 28.0 L 23.0 24.0 L 149.0 24.0 L 155.0 19.0 L 166.0 28.0 L 161.0 31.0 L 160.77451400756837 31.093952465057374 L 160.2 53.5 L 160.2 77.9 L 161.1 99.6 L 162.8 118.5 L 165.3 134.5 L 168.6 147.6 L 172.5 157.8 L 176.9 164.9 L 179.96302518844604 167.82689075469972 L 185.0 146.0 L 187.0 146.0 L 185.10031747817993 170.69587297439574 L 186.1 171.1 L 189.9 173.6 L 190.8 178.1 L 188.3 181.9 L 183.8 182.8 L 174.9 179.2 Z M 130.8 160.8 L 125.7 155.2 L 121.0 149.2 L 116.6 143.0 L 112.5 136.5 L 108.8 129.6 L 105.5 122.5 L 102.7 115.0 L 101.0 108.97272729873657 L 101.0 178.0 L 89.0 184.0 L 89.0 105.0 L 67.0 105.0 L 67.0 178.0 L 55.0 184.0 L 55.0 125.8 L 52.8 130.2 L 48.6 137.8 L 44.1 144.9 L 39.2 151.5 L 34.1 157.7 L 28.6 163.3 L 22.7 168.3 L 16.5 172.6 L 15.4 171.3 L 20.1 165.6 L 24.6 159.7 L 28.9 153.6 L 33.0 147.2 L 36.8 140.5 L 40.4 133.4 L 43.7 125.9 L 46.8 118.1 L 49.7 109.8 L 51.04117650985718 105.0 L 12.0 105.0 L 12.0 101.0 L 55.0 101.0 L 55.0 70.0 L 20.0 70.0 L 20.0 66.0 L 55.0 66.0 L 55.0 35.0 L 67.0 37.0 L 70.0 39.0 L 67.0 40.8 L 67.0 66.0 L 89.0 66.0 L 89.0 35.0 L 101.0 37.0 L 104.0 39.0 L 101.0 40.8 L 101.0 66.0 L 113.0 66.0 L 123.0 56.0 L 135.0 66.0 L 135.0 70.0 L 101.0 70.0 L 101.0 101.0 L 122.0 101.0 L 132.0 91.0 L 144.0 101.0 L 144.0 105.0 L 101.0 105.0 L 101.0 106.99411764144898 L 102.2 106.5 L 106.5 113.2 L 110.7 119.7 L 115.0 125.9 L 119.4 131.8 L 124.0 137.4 L 128.8 142.6 L 133.8 147.6 L 139.0 152.3 L 144.3 156.6 L 149.9 160.7 L 152.9 162.9 L 142.0 171.2 L 136.2 166.2 Z M 67.0 70.0 L 67.0 101.0 L 89.0 101.0 L 89.0 70.0 Z " />
</g>
</svg>
