<svg xmlns="http://www.w3.org/2000/svg" xmlns:xlink="http://www.w3.org/1999/xlink" version="1.1" baseProfile="full" viewBox="0 0 200 200" width="200" height="200">
<g fill="black">
<path d="M 151.3 145.9 L 148.3 142.9 L 145.0 139.9 L 141.5 136.9 L 137.7 134.0 L 133.6 131.1 L 129.3 128.3 L 124.8 125.3 L 120.0 122.3 L 120.7 120.6 L 126.3 121.9 L 131.6 123.5 L 136.7 125.4 L 141.5 127.6 L 146.1 129.9 L 150.5 132.4 L 154.6 135.1 L 158.5 138.0 L 162.2 141.1 L 165.6 144.4 L 167.0 148.7 L 165.0 152.8 L 164.2473684310913 153.03947372436522 L 175.0 162.0 L 175.0 166.0 L 38.0 166.0 L 38.0 178.0 L 26.0 184.0 L 26.0 26.0 L 38.0 28.0 L 41.0 30.0 L 38.0 31.8 L 38.0 162.0 L 153.0 162.0 L 160.89333333969117 154.10666666030883 L 160.6 154.2 L 156.5 152.2 L 154.0 149.0 Z M 96.0 127.7 L 96.6 131.3 L 92.8 130.21428575515748 L 91.8 131.0 L 87.5 134.2 L 83.0 137.3 L 78.2 140.2 L 73.3 143.0 L 68.2 145.7 L 62.9 148.2 L 57.4 150.6 L 51.6 152.7 L 45.6 154.5 L 44.8 152.8 L 49.9 149.3 L 54.9 145.9 L 59.7 142.5 L 64.3 139.2 L 68.7 135.9 L 72.9 132.6 L 77.0 129.2 L 80.8 125.8 L 84.4 122.4 L 87.11061506271362 119.60966091156006 L 87.1 119.6 L 88.0 118.7 Z M 42.9 110.5 L 73.6 110.5 L 73.6 46.3 L 46.7 46.3 L 46.7 42.3 L 73.6 42.3 L 73.6 18.5 L 85.6 20.5 L 88.6 22.5 L 85.6 24.3 L 85.6 42.3 L 133.3 42.3 L 133.3 18.5 L 145.3 20.5 L 148.3 22.5 L 145.3 24.3 L 145.3 42.3 L 150.2 42.3 L 160.2 32.3 L 172.2 42.3 L 172.2 46.3 L 145.3 46.3 L 145.3 110.5 L 154.0 110.5 L 164.0 100.5 L 176.0 110.5 L 176.0 114.5 L 42.9 114.5 Z M 85.6 91.4 L 85.6 110.5 L 133.3 110.5 L 133.3 91.4 Z M 85.6 68.9 L 85.6 87.4 L 133.3 87.4 L 133.3 68.9 Z M 85.6 46.3 L 85.6 64.9 L 133.3 64.9 L 133.3 46.3 Z " />
</g>
</svg>
