<svg xmlns="http://www.w3.org/2000/svg" xmlns:xlink="http://www.w3.org/1999/xlink" version="1.1" baseProfile="full" viewBox="0 0 200 200" width="200" height="200">
<g fill="black">
<path d="M 177.0 28.0 L 172.0 32.0 L 172.0 108.0 L 160.0 114.0 L 160.0 102.0 L 42.0 102.0 L 42.0 172.0 L 155.0 172.0 L 165.0 162.0 L 177.0 172.0 L 177.0 176.0 L 42.0 176.0 L 42.0 183.0 L 30.0 189.0 L 30.0 92.0 L 42.0 98.0 L 160.0 98.0 L 160.0 28.0 L 26.0 28.0 L 26.0 24.0 L 160.0 24.0 L 166.0 19.0 Z M 52.8 152.5 L 101.0 152.5 L 101.0 121.9 L 61.0 121.9 L 61.0 117.9 L 130.9 117.9 L 140.9 107.9 L 152.9 117.9 L 152.9 121.9 L 113.0 121.9 L 113.0 152.5 L 139.1 152.5 L 149.1 142.5 L 161.1 152.5 L 161.1 156.5 L 52.8 156.5 Z M 38.8 78.5 L 87.0 78.5 L 87.0 47.9 L 47.0 47.9 L 47.0 43.9 L 116.9 43.9 L 126.9 33.9 L 138.9 43.9 L 138.9 47.9 L 99.0 47.9 L 99.0 78.5 L 125.1 78.5 L 135.1 68.5 L 147.1 78.5 L 147.1 82.5 L 38.8 82.5 Z " />
</g>
</svg>
