<svg xmlns="http://www.w3.org/2000/svg" xmlns:xlink="http://www.w3.org/1999/xlink" version="1.1" baseProfile="full" viewBox="0 0 200 200" width="200" height="200">
<g fill="black">
<path d="M 114.9 176.0 L 130.9 176.0 L 132.2 175.9 L 133.1 175.7 L 134.0 175.4 L 134.4 175.0 L 134.7 174.1 L 134.9 173.2 L 134.9 155.5 L 104.1 155.5 L 104.1 151.5 L 134.9 151.5 L 134.9 131.2 L 98.0 131.2 L 98.0 127.2 L 134.9 127.2 L 134.9 109.2 L 104.6 109.2 L 104.6 105.2 L 134.9 105.2 L 134.9 85.1 L 121.7 85.1 L 121.7 92.1 L 109.7 98.1 L 109.7 50.4 L 121.7 56.4 L 134.9 56.4 L 134.9 40.1 L 100.0 40.1 L 100.0 36.1 L 134.9 36.1 L 134.9 13.0 L 146.9 15.0 L 149.9 17.0 L 146.9 18.8 L 146.9 36.1 L 160.9 36.1 L 170.9 26.1 L 182.9 36.1 L 182.9 40.1 L 146.9 40.1 L 146.9 56.4 L 161.2 56.4 L 167.2 51.4 L 178.2 60.4 L 173.2 64.4 L 173.2 89.1 L 161.2 95.1 L 161.2 85.1 L 146.9 85.1 L 146.9 105.2 L 163.2 105.2 L 169.2 100.2 L 180.2 109.2 L 175.2 113.2 L 175.2 126.13333330154418 L 178.9 121.2 L 184.9 127.2 L 184.9 131.2 L 175.2 131.2 L 175.2 161.5 L 163.2 167.5 L 163.2 155.5 L 146.9 155.5 L 146.9 172.0 L 146.8 174.5 L 146.4 177.0 L 145.6 179.4 L 144.3 181.7 L 142.7 183.7 L 140.7 185.3 L 138.4 186.6 L 136.0 187.4 L 133.5 187.8 L 130.9 188.0 L 130.9 182.0 L 114.9 179.0 Z M 31.2 176.5 L 45.2 176.5 L 46.2 176.4 L 46.9 176.3 L 47.5 176.0 L 47.7 175.8 L 47.8 175.6 L 48.0 175.1 L 48.3 174.4 L 48.4 173.3 L 48.5 172.0 L 48.5 155.5 L 20.0 155.5 L 20.0 151.5 L 48.5 151.5 L 48.5 131.2 L 14.5 131.2 L 14.5 127.2 L 48.5 127.2 L 48.5 109.2 L 20.5 109.2 L 20.5 105.2 L 48.5 105.2 L 48.5 85.1 L 36.2 85.1 L 36.2 92.1 L 25.2 97.6 L 25.2 50.9 L 36.2 56.4 L 48.5 56.4 L 48.5 40.1 L 16.3 40.1 L 16.3 36.1 L 48.5 36.1 L 48.5 13.0 L 59.5 15.0 L 62.2 17.0 L 59.5 18.723404216766358 L 59.5 36.1 L 70.6 36.1 L 80.6 26.1 L 92.6 36.1 L 92.6 40.1 L 59.5 40.1 L 59.5 56.4 L 72.2 56.4 L 78.2 51.4 L 89.2 60.4 L 84.2 64.4 L 84.2 89.1 L 72.2 95.1 L 72.2 85.1 L 59.5 85.1 L 59.5 105.2 L 74.0 105.2 L 80.0 100.2 L 91.0 109.2 L 86.0 113.2 L 86.0 124.4 L 88.4 121.2 L 94.4 127.2 L 94.4 131.2 L 86.0 131.2 L 86.0 161.5 L 74.0 167.5 L 74.0 155.5 L 59.5 155.5 L 59.5 172.0 L 59.4 174.4 L 59.0 176.7 L 58.3 179.0 L 57.3 181.1 L 55.9 183.1 L 54.2 184.7 L 52.1 186.0 L 49.9 186.8 L 47.6 187.3 L 45.2 187.5 L 45.2 182.0 L 31.2 179.2 Z M 146.9 131.2 L 146.9 151.5 L 163.2 151.5 L 163.2 131.2 Z M 59.5 131.2 L 59.5 151.5 L 74.0 151.5 L 74.0 131.2 Z M 146.9 109.2 L 146.9 127.2 L 163.2 127.2 L 163.2 109.2 Z M 59.5 109.2 L 59.5 127.2 L 74.0 127.2 L 74.0 109.2 Z M 121.7 60.4 L 121.7 81.1 L 134.9 81.1 L 134.9 60.4 Z M 146.9 60.4 L 146.9 81.1 L 161.2 81.1 L 161.2 60.4 Z M 36.2 60.4 L 36.2 81.1 L 48.5 81.1 L 48.5 60.4 Z M 59.5 60.4 L 59.5 81.1 L 72.2 81.1 L 72.2 60.4 Z " />
</g>
</svg>
