<svg xmlns="http://www.w3.org/2000/svg" xmlns:xlink="http://www.w3.org/1999/xlink" version="1.1" baseProfile="full" viewBox="0 0 200 200" width="200" height="200">
<g fill="black">
<path d="M 154.4 170.2 L 154.4 174.2 L 49.5 174.2 L 49.5 170.2 L 132.4 170.2 L 142.4 160.2 Z M 79.8 32.5 L 82.6 34.8 L 79.15680274963378 36.35918369293213 L 77.4 46.9 L 74.0 60.8 L 69.7 74.0 L 64.4 86.6 L 58.2 98.5 L 51.0 109.8 L 42.8 120.3 L 33.7 130.1 L 23.6 139.2 L 12.5 147.4 L 11.4 146.0 L 21.0 136.4 L 29.7 126.5 L 37.6 116.3 L 44.6 105.6 L 50.7 94.5 L 55.9 82.9 L 60.2 70.7 L 63.6 58.1 L 66.2 44.9 L 67.88534479141235 31.318103408813478 L 68.1 29.1 Z M 162.0 128.0 L 154.2 117.9 L 147.2 106.8 L 140.9 94.9 L 135.3 82.1 L 130.5 68.4 L 126.5 53.8 L 123.4 38.3 L 121.2 22.0 L 123.0 21.6 L 127.4 37.4 L 132.2 52.2 L 137.3 66.0 L 143.0 78.8 L 149.1 90.6 L 155.8 101.4 L 163.1 111.2 L 170.8 120.1 L 179.1 128.0 L 187.9 135.0 L 190.9 137.2 L 180.0 145.5 L 170.6 137.2 Z M 143.4 129.4 L 143.4 133.4 L 60.5 133.4 L 60.5 129.4 L 121.4 129.4 L 131.4 119.4 Z " />
</g>
</svg>
