<svg xmlns="http://www.w3.org/2000/svg" xmlns:xlink="http://www.w3.org/1999/xlink" version="1.1" baseProfile="full" viewBox="0 0 200 200" width="200" height="200">
<g fill="black">
<path d="M 183.0 151.2 L 185.0 151.2 L 183.0 176.2 L 186.6 178.6 L 189.0 182.2 L 186.6 185.8 L 183.0 188.2 L 155.0 188.2 L 152.4 188.1 L 149.9 187.6 L 147.5 186.8 L 145.2 185.6 L 143.2 183.9 L 141.6 181.9 L 140.3 179.7 L 139.5 177.3 L 139.1 174.8 L 139.0 172.2 L 139.0 132.2 L 151.0 134.2 L 154.0 136.2 L 151.0 138.0 L 151.0 173.4 L 151.2 174.3 L 151.4 174.9 L 151.5 175.3 L 151.7 175.5 L 151.9 175.6 L 152.2 175.8 L 152.8 176.0 L 153.7 176.1 L 155.0 176.2 L 177.0 176.2 Z M 61.0 134.2 L 64.0 136.2 L 61.0 138.0 L 61.0 155.6 L 60.1 161.3 L 58.2 166.6 L 55.3 171.3 L 51.5 175.3 L 46.9 178.7 L 41.6 181.4 L 35.6 183.6 L 28.8 185.3 L 21.3 186.3 L 13.1 186.7 L 12.8 184.9 L 20.5 182.6 L 27.3 180.1 L 33.2 177.5 L 38.1 174.7 L 42.0 171.8 L 44.9 168.8 L 47.0 165.7 L 48.3 162.5 L 48.9 159.2 L 49.0 155.6 L 49.0 132.2 Z M 106.0 134.8 L 109.0 136.8 L 106.0 138.6 L 106.0 180.4 L 94.0 186.4 L 94.0 132.8 Z M 177.5 120.6 L 175.3 123.9 L 172.0 126.1 L 42.0 126.1 L 39.4 126.0 L 37.0 125.6 L 34.6 124.9 L 32.4 123.7 L 30.4 122.1 L 28.7 120.2 L 27.5 118.0 L 26.6 115.6 L 26.1 113.1 L 26.0 110.6 L 26.0 84.0 L 38.0 90.0 L 94.0 90.0 L 94.0 73.6 L 106.0 75.6 L 109.0 77.6 L 106.0 79.4 L 106.0 90.0 L 160.0 90.0 L 170.0 80.0 L 182.0 90.0 L 182.0 94.0 L 38.0 94.0 L 38.0 111.8 L 38.1 112.7 L 38.2 113.4 L 38.5 114.0 L 38.7 114.2 L 39.1 114.5 L 39.7 114.7 L 40.7 115.0 L 42.0 115.1 L 172.0 115.1 L 175.3 117.3 Z M 175.5 63.8 L 173.3 67.1 L 170.0 69.3 L 53.0 69.3 L 50.4 69.2 L 48.0 68.8 L 45.6 68.1 L 43.4 66.9 L 41.4 65.4 L 39.7 63.4 L 38.5 61.2 L 37.6 58.8 L 37.1 56.3 L 37.0 53.8 L 37.0 32.5 L 14.0 32.5 L 14.0 28.5 L 94.0 28.5 L 94.0 12.5 L 106.0 14.5 L 109.0 16.5 L 106.0 18.3 L 106.0 28.5 L 164.0 28.5 L 174.0 18.5 L 186.0 28.5 L 186.0 32.5 L 49.0 32.5 L 49.0 55.0 L 49.1 56.0 L 49.2 56.6 L 49.5 57.2 L 49.7 57.4 L 50.1 57.7 L 50.7 58.0 L 51.7 58.2 L 53.0 58.3 L 170.0 58.3 L 173.3 60.5 Z " />
</g>
</svg>
