<svg xmlns="http://www.w3.org/2000/svg" xmlns:xlink="http://www.w3.org/1999/xlink" version="1.1" baseProfile="full" viewBox="0 0 200 200" width="200" height="200">
<g fill="black">
<path d="M 48.2 142.4 L 148.7 142.4 L 154.7 137.4 L 165.7 146.4 L 160.7 150.4 L 160.7 180.4 L 148.7 186.4 L 148.7 178.4 L 48.2 178.4 L 48.2 181.4 L 36.2 187.4 L 36.2 136.4 Z M 48.2 162.4 L 48.2 174.4 L 148.7 174.4 L 148.7 162.4 Z M 48.2 146.4 L 48.2 158.4 L 148.7 158.4 L 148.7 146.4 Z M 65.4 112.5 L 134.6 112.5 L 140.6 107.5 L 151.6 116.5 L 146.6 120.5 L 146.6 132.7 L 134.6 138.7 L 134.6 132.7 L 65.4 132.7 L 53.4 138.7 L 53.4 106.5 Z M 65.4 116.5 L 65.4 128.7 L 134.6 128.7 L 134.6 116.5 Z M 18.4 100.9 L 94.0 100.9 L 94.0 87.4 L 106.0 89.4 L 109.0 91.4 L 106.0 93.2 L 106.0 100.9 L 163.4181818008423 100.9 L 171.6 91.9 L 181.6 100.9 L 181.6 104.9 L 18.4 104.9 Z M 160.5 88.2 L 154.0 84.0 L 148.5 78.4 L 143.8 71.6 L 139.9 63.7 L 136.8 54.6 L 134.5 44.4 L 132.9 33.1 L 132.67805824279785 30.01747570037842 L 132.0 30.3 L 132.0 22.3 L 22.0 22.3 L 22.0 18.3 L 132.0 18.3 L 138.0 13.3 L 149.0 22.3 L 144.29092378616332 25.125445747375487 L 144.8 31.8 L 146.3 42.3 L 148.4 51.4 L 151.0 59.2 L 154.1 65.6 L 157.7 70.8 L 161.6 74.7 L 165.9 77.5 L 170.4667148590088 79.17756872177124 L 176.0 55.2 L 178.0 55.2 L 176.07969617843628 80.16395025253296 L 176.3 80.2 L 180.4 82.2 L 181.9 86.5 L 179.9 90.6 L 175.6 92.2 L 167.8 90.9 Z M 80.0 25.1 L 83.0 27.1 L 80.0 28.9 L 80.0 40.4 L 102.81818180084228 40.4 L 111.0 31.4 L 121.0 40.4 L 121.0 44.4 L 80.0 44.4 L 80.0 62.1 L 111.0 62.1 L 121.0 52.1 L 133.0 62.1 L 133.0 66.1 L 80.0 66.1 L 80.0 84.0 L 68.0 90.0 L 68.0 66.1 L 23.0 66.1 L 23.0 62.1 L 68.0 62.1 L 68.0 44.4 L 32.0 44.4 L 32.0 40.4 L 68.0 40.4 L 68.0 23.1 Z " />
</g>
</svg>
