<svg xmlns="http://www.w3.org/2000/svg" xmlns:xlink="http://www.w3.org/1999/xlink" version="1.1" baseProfile="full" viewBox="0 0 200 200" width="200" height="200">
<g fill="black">
<path d="M 144.0 176.0 L 158.0 176.0 L 159.2 175.9 L 160.1 175.7 L 161.0 175.4 L 161.4 175.0 L 161.7 174.1 L 161.9 173.2 L 162.0 172.0 L 162.0 112.0 L 38.0 112.0 L 38.0 182.0 L 26.0 188.0 L 26.0 102.0 L 38.0 108.0 L 162.0 108.0 L 168.0 103.0 L 179.0 112.0 L 174.0 116.0 L 174.0 172.0 L 173.8 174.5 L 173.4 177.0 L 172.6 179.4 L 171.3 181.7 L 169.7 183.7 L 167.7 185.3 L 165.4 186.6 L 163.0 187.4 L 160.5 187.8 L 158.0 188.0 L 158.0 182.0 L 144.0 179.0 Z M 106.1 123.6 L 109.1 125.6 L 106.1 127.4 L 106.1 152.6 L 133.5 152.6 L 133.5 128.6 L 145.5 130.6 L 148.5 132.6 L 145.5 134.4 L 145.5 160.6 L 133.5 166.6 L 133.5 156.6 L 106.1 156.6 L 106.1 179.9 L 94.1 185.9 L 94.1 156.6 L 67.5 156.6 L 67.5 163.6 L 55.5 169.6 L 55.5 128.6 L 67.5 130.6 L 70.5 132.6 L 67.5 134.4 L 67.5 152.6 L 94.1 152.6 L 94.1 121.6 Z M 71.2 55.2 L 128.8 55.2 L 134.8 50.2 L 145.8 59.2 L 140.8 63.2 L 140.8 94.7 L 128.8 100.7 L 128.8 92.7 L 71.2 92.7 L 71.2 95.7 L 59.2 101.7 L 59.2 49.2 Z M 71.2 59.2 L 71.2 88.7 L 128.8 88.7 L 128.8 59.2 Z M 30.0 38.0 L 94.0 38.0 L 94.0 12.0 L 106.0 14.0 L 109.0 16.0 L 106.0 17.8 L 106.0 38.0 L 148.0 38.0 L 158.0 28.0 L 170.0 38.0 L 170.0 42.0 L 30.0 42.0 Z " />
</g>
</svg>
