<svg xmlns="http://www.w3.org/2000/svg" xmlns:xlink="http://www.w3.org/1999/xlink" version="1.1" baseProfile="full" viewBox="0 0 200 200" width="200" height="200">
<g fill="black">
<path d="M 163.4 179.4 L 159.4 177.4 L 155.2 175.5 L 150.7 173.5 L 146.0 171.5 L 141.0 169.5 L 135.8 167.4 L 130.4 165.2 L 124.7 162.9 L 125.1 161.1 L 131.3 161.6 L 137.2 162.3 L 142.8 163.2 L 148.2 164.3 L 153.4 165.4 L 158.3 166.7 L 163.0 168.1 L 167.5 169.5 L 171.8 171.0 L 175.9 172.6 L 178.9 176.1 L 178.6 180.7 L 175.2 183.6 L 170.6 183.4 L 167.1 181.4 Z M 64.42256269454955 162.0203342437744 L 69.5 167.4 L 69.6 170.9 L 65.99230766296387 169.35384616851806 L 64.3 170.2 L 59.9 172.1 L 55.3 173.8 L 50.4 175.5 L 45.2 177.1 L 39.7 178.5 L 33.8 179.9 L 27.6 181.0 L 21.1 182.0 L 14.2 182.6 L 13.7 180.9 L 20.1 178.3 L 26.2 175.9 L 31.9 173.6 L 37.3 171.3 L 42.3 169.1 L 47.0 166.9 L 51.3 164.7 L 55.2 162.4 L 58.8 160.2 L 61.13293399810791 158.5443694114685 L 61.1 158.5 L 61.138289546966554 158.54056873321534 L 61.9 158.0 Z M 58.0 138.6 L 58.0 152.2 L 142.0 152.2 L 142.0 138.6 Z M 128.9 107.5 L 119.8 109.9 L 110.1 112.0 L 99.7 113.7 L 96.25494508743286 114.07582416534424 L 106.0 115.7 L 109.0 117.7 L 106.0 119.5 L 106.0 125.1 L 166.8181818008423 125.1 L 173.54289541244506 117.70281505584717 L 166.2 116.8 L 155.1 114.4 L 145.1 111.1 L 136.3 106.8 L 134.57054443359374 105.6320559501648 Z M 39.0 106.9 L 56.2 106.9 L 57.1 106.7 L 57.7 106.5 L 58.0 106.3 L 58.2 106.2 L 58.4 106.0 L 58.7 105.1 L 58.9 104.2 L 59.0 102.9 L 59.0 99.87241382598877 L 51.3 101.2 L 42.7 102.7 L 34.2 104.0 L 25.8 105.2 L 21.602610111236572 105.80685157775879 L 19.8 109.2 L 17.5 106.4 L 14.4 94.7 L 16.4 94.5 L 24.6 93.9 L 33.0 93.3 L 41.5 92.7 L 50.1 92.0 L 58.9 91.3 L 59.0 91.29101123809815 L 59.0 81.3 L 14.0 81.3 L 14.0 77.3 L 59.0 77.3 L 59.0 71.53783779144287 L 56.6 71.7 L 48.5 72.1 L 39.7 72.4 L 30.2 72.6 L 20.0 72.5 L 19.9 70.7 L 29.8 68.8 L 39.1 67.1 L 47.7 65.5 L 55.7 64.1 L 62.9 62.8 L 69.5 61.4 L 75.3 60.2 L 80.4 58.9 L 83.025 58.2 L 15.0 58.2 L 15.0 54.2 L 94.0 54.2 L 94.0 45.0 L 30.0 45.0 L 30.0 41.0 L 94.0 41.0 L 94.0 31.7 L 22.0 31.7 L 22.0 27.7 L 71.14545450210571 27.7 L 71.0 27.3 L 70.3 26.1 L 69.4 24.8 L 68.2 23.4 L 66.7 21.9 L 65.0 20.4 L 63.0 18.8 L 60.8 17.2 L 58.4 15.5 L 55.6 14.3 L 56.2 12.6 L 59.2 13.3 L 62.2 13.7 L 65.1 14.2 L 67.7 14.8 L 70.2 15.5 L 72.6 16.3 L 74.8 17.2 L 76.8 18.2 L 78.8 19.3 L 80.6 20.6 L 81.9 25.0 L 80.58292684555053 27.7 L 118.26842107772828 27.7 L 119.3 27.0 L 121.7 24.7 L 124.0 22.6 L 126.2 20.6 L 128.2 18.7 L 133.6 13.3 L 135.0 11.6 L 135.6989010810852 10.801255893707275 L 135.6 10.7 L 136.18695650100707 10.243478298187256 L 136.4 10.0 L 136.43886051177978 10.047552967071534 L 136.5 10.0 L 144.0 19.3 L 144.3 22.9 L 140.04193544387817 21.429032230377196 L 139.7 21.6 L 134.9 23.8 L 132.3 25.0 L 129.6 26.1 L 126.7 27.2 L 125.2 27.7 L 159.8181818008423 27.7 L 168.0 18.7 L 178.0 27.7 L 178.0 31.7 L 106.0 31.7 L 106.0 41.0 L 151.8181818008423 41.0 L 160.0 32.0 L 170.0 41.0 L 170.0 45.0 L 106.0 45.0 L 106.0 54.2 L 166.8181818008423 54.2 L 175.0 45.2 L 185.0 54.2 L 185.0 58.2 L 89.2625 58.2 L 99.0 66.4 L 99.3 69.4 L 95.00911445617676 67.34520969390869 L 91.4 68.2 L 87.2 68.9 L 82.4 69.5 L 76.9 70.1 L 71.0 70.58360652923584 L 71.0 77.3 L 113.08651685714722 77.3 L 111.6 71.0 L 111.06217613220215 62.39481868743896 L 111.0 62.4 L 111.0 59.0 L 123.0 61.4 L 126.0 63.4 L 123.2345679283142 65.05925922393799 L 123.5 69.2 L 125.1 76.2 L 125.59499998092652 77.3 L 164.0 77.3 L 174.0 67.3 L 186.0 77.3 L 186.0 81.3 L 157.98586959838866 81.3 L 165.1 89.8 L 165.6 93.4 L 161.85140924453736 92.1281566619873 L 159.1 94.1 L 152.5 98.0 L 149.06857147216797 99.6452054977417 L 149.6 99.9 L 158.2 102.8 L 168.2 104.9 L 173.39471597671508 105.589564037323 L 179.0 81.3 L 181.0 81.3 L 179.07358493804932 106.34339618682861 L 179.5 106.4 L 183.5 108.5 L 184.9 112.8 L 182.8 116.9 L 178.4 118.3 L 177.29324893951417 118.16392402648925 L 185.0 125.1 L 185.0 129.1 L 47.0 129.1 L 58.0 134.6 L 142.0 134.6 L 148.0 129.6 L 159.0 138.6 L 154.0 142.6 L 154.0 156.2 L 142.0 162.2 L 142.0 156.2 L 106.0 156.2 L 106.0 171.8 L 105.8 174.3 L 105.4 176.8 L 104.6 179.2 L 103.3 181.5 L 101.7 183.5 L 99.7 185.1 L 97.4 186.4 L 95.0 187.2 L 92.5 187.6 L 90.0 187.8 L 90.0 181.8 L 70.0 178.8 L 70.0 175.8 L 90.0 175.8 L 91.2 175.7 L 92.1 175.5 L 93.0 175.2 L 93.4 174.8 L 93.7 173.9 L 93.9 173.0 L 94.0 171.8 L 94.0 156.2 L 58.0 156.2 L 46.0 162.2 L 46.0 129.1 L 15.0 129.1 L 15.0 125.1 L 94.0 125.1 L 94.0 114.32181816101074 L 88.7 114.9 L 77.1 115.6 L 76.8 113.8 L 88.1 111.1 L 98.7 108.4 L 108.5 105.6 L 117.7 102.7 L 126.1 99.5 L 126.37747745513916 99.37747745513916 L 122.3 95.3 L 117.3 88.1 L 114.31463413238525 81.3 L 71.0 81.3 L 71.0 90.25111112594604 L 76.8 89.8 L 86.0 89.0 L 95.3 88.4 L 104.8 87.8 L 105.1 89.6 L 95.9 92.1 L 86.8 94.3 L 77.8 96.3 L 71.0 97.58444442749024 L 71.0 102.9 L 70.8 105.5 L 70.4 108.0 L 69.6 110.4 L 68.3 112.6 L 66.7 114.7 L 64.7 116.3 L 62.4 117.5 L 60.0 118.3 L 57.5 118.8 L 55.0 118.9 L 55.0 112.9 L 39.0 109.9 Z M 127.39499998092651 81.3 L 127.8 82.2 L 131.5 87.6 L 136.3 92.3 L 138.39940357208252 93.73459243774414 L 140.8 92.5 L 147.0 88.8 L 152.5 84.8 L 156.59756097793579 81.3 Z M 150.0 72.0 L 149.0 70.7 L 147.7 69.3 L 146.2 67.9 L 144.6 66.4 L 142.7 65.0 L 140.6 63.5 L 138.3 62.0 L 135.7 61.0 L 136.2 59.2 L 139.0 59.8 L 141.8 60.0 L 144.6 60.3 L 147.2 60.8 L 149.6 61.4 L 152.0 62.2 L 154.3 63.0 L 156.4 64.0 L 158.5 65.2 L 160.4 66.6 L 161.9 70.9 L 160.0 75.0 L 155.6 76.5 L 151.5 74.6 L 150.9 73.3 Z " />
</g>
</svg>
