<svg xmlns="http://www.w3.org/2000/svg" xmlns:xlink="http://www.w3.org/1999/xlink" version="1.1" baseProfile="full" viewBox="0 0 200 200" width="200" height="200">
<g fill="black">
<path d="M 161.0 107.0 L 161.0 111.0 L 79.84666662216186 111.0 L 80.6 111.3 L 83.0 113.9 L 79.26523294448853 115.12228736877441 L 78.4 117.6 L 75.5 123.7 L 72.0 129.7 L 70.51139240264892 131.75569620132447 L 73.0 133.0 L 148.0 133.0 L 154.0 128.0 L 165.0 137.0 L 160.0 141.0 L 160.0 176.0 L 148.0 182.0 L 148.0 170.0 L 73.0 170.0 L 73.0 182.0 L 61.0 188.0 L 61.0 143.1 L 57.4 146.7 L 51.2 152.0 L 44.3 157.1 L 36.7 162.1 L 28.5 166.7 L 27.4 165.2 L 34.5 159.0 L 40.9 153.0 L 46.7 147.1 L 51.9 141.4 L 56.4 135.7 L 60.2 130.1 L 61.0 128.68064517974852 L 61.0 127.0 L 61.73900709152222 127.36950359344482 L 63.3 124.6 L 65.8 119.2 L 67.7 113.8 L 68.34615383148193 111.0 L 38.0 111.0 L 38.0 107.0 L 69.2555555343628 107.0 L 69.3 106.8 L 69.80222225189209 107.0 L 139.0 107.0 L 149.0 97.0 Z M 73.0 137.0 L 73.0 166.0 L 148.0 166.0 L 148.0 137.0 Z M 17.3 108.8 L 16.9 104.3 L 19.7 100.7 L 21.7 99.8 L 23.6 98.7 L 25.4 97.1 L 27.1 95.1 L 28.7 92.6 L 30.2 89.7 L 31.5 86.2 L 32.6 82.2 L 33.6 77.8 L 34.1 72.8 L 35.9 72.8 L 36.5 77.8 L 36.80208330154419 80.7 L 174.0 80.7 L 174.6324324607849 80.17297296524048 L 175.0 79.3 L 175.37275743484497 79.55603542327881 L 180.0 75.7 L 191.0 84.7 L 186.0 87.7 L 181.17931032180786 89.70862064361572 L 179.3 91.4 L 177.2 93.3 L 174.8 95.3 L 172.3 97.4 L 169.6 99.6 L 166.8 101.8 L 163.6 104.0 L 160.6 106.5 L 159.3 105.3 L 161.7 102.2 L 163.7 98.9 L 165.6 95.9 L 167.4 93.0 L 169.1 90.4 L 170.6 87.8 L 171.9 85.5 L 172.31739130020142 84.7 L 37.046666622161865 84.7 L 37.1 87.1 L 36.8 91.4 L 36.0 95.4 L 34.9 99.2 L 33.2 102.7 L 31.1 105.9 L 28.5 108.8 L 25.5 111.2 L 20.9 111.6 Z M 62.0 46.0 L 146.0 46.0 L 152.0 41.0 L 163.0 50.0 L 158.0 54.0 L 158.0 69.8 L 146.0 75.8 L 146.0 69.8 L 62.0 69.8 L 50.0 75.8 L 50.0 40.0 Z M 62.0 50.0 L 62.0 65.8 L 146.0 65.8 L 146.0 50.0 Z M 20.0 31.6 L 98.0 31.6 L 98.0 12.8 L 110.0 14.8 L 113.0 16.8 L 110.0 18.6 L 110.0 31.6 L 169.8181818008423 31.6 L 178.0 22.6 L 188.0 31.6 L 188.0 35.6 L 20.0 35.6 Z " />
</g>
</svg>
