<svg xmlns="http://www.w3.org/2000/svg" xmlns:xlink="http://www.w3.org/1999/xlink" version="1.1" baseProfile="full" viewBox="0 0 200 200" width="200" height="200">
<g fill="black">
<path d="M 147.0 147.3 L 149.0 147.3 L 147.0 172.3 L 150.6 174.7 L 153.0 178.3 L 150.6 181.9 L 147.0 184.3 L 76.0 184.3 L 73.4 184.2 L 70.9 183.7 L 68.5 182.9 L 66.2 181.7 L 64.2 180.1 L 62.6 178.0 L 61.3 175.8 L 60.5 173.4 L 60.1 170.9 L 60.0 168.3 L 60.0 139.8 L 72.0 141.8 L 75.0 143.8 L 72.0 145.6 L 72.0 169.5 L 72.2 170.5 L 72.4 171.0 L 72.5 171.4 L 72.7 171.6 L 72.9 171.7 L 73.2 171.9 L 73.8 172.1 L 74.7 172.2 L 76.0 172.3 L 141.0 172.3 Z M 15.2 176.7 L 15.1 172.1 L 18.1 168.7 L 20.9 167.5 L 23.5 166.1 L 25.8 164.4 L 27.9 162.4 L 29.9 159.9 L 31.6 157.1 L 33.1 153.8 L 34.4 150.0 L 35.5 145.8 L 36.1 141.1 L 37.9 141.1 L 38.5 145.9 L 38.9 150.6 L 38.7 155.1 L 38.1 159.4 L 36.9 163.4 L 35.2 167.3 L 33.0 170.9 L 30.2 174.1 L 27.0 177.0 L 23.2 179.5 L 18.7 179.7 Z M 170.4 165.7 L 168.9 162.9 L 167.1 160.1 L 164.9 157.3 L 162.4 154.5 L 159.5 151.6 L 156.2 148.7 L 152.5 145.7 L 148.5 142.8 L 149.2 141.2 L 154.1 142.9 L 158.6 144.7 L 162.9 146.7 L 166.8 149.0 L 170.4 151.4 L 173.7 154.1 L 176.6 156.9 L 179.3 160.0 L 181.6 163.3 L 183.5 166.8 L 183.3 171.3 L 180.0 174.5 L 175.5 174.3 L 172.3 171.0 L 171.5 168.4 Z M 108.4 155.0 L 106.6 152.8 L 104.5 150.5 L 102.3 148.3 L 99.8 146.1 L 97.1 143.9 L 94.2 141.8 L 91.1 139.5 L 87.6 137.6 L 88.2 135.9 L 92.1 136.9 L 96.1 137.8 L 99.8 138.9 L 103.3 140.3 L 106.7 141.9 L 109.9 143.6 L 112.9 145.6 L 115.8 147.7 L 118.5 150.0 L 121.0 152.5 L 122.0 156.9 L 119.7 160.9 L 115.3 161.9 L 111.3 159.7 L 110.0 157.3 Z M 14.0 126.9 L 94.0 126.9 L 94.0 106.8 L 29.0 106.8 L 29.0 102.8 L 94.0 102.8 L 94.0 88.12142858505248 L 80.5 88.7 L 66.1 89.1 L 51.2 89.4 L 35.8 89.4 L 20.0 89.1 L 19.9 87.3 L 35.6 85.6 L 50.9 84.0 L 65.7 82.6 L 80.0 81.1 L 93.9 79.6 L 107.3 78.1 L 120.2 76.6 L 132.7 75.0 L 144.7 73.4 L 155.2098249435425 71.8463737487793 L 155.2 71.8 L 155.24907264709472 71.84057188034058 L 156.2 71.7 L 156.33041067123412 72.73459148406982 L 167.9 82.3 L 168.3 85.3 L 163.6767315864563 82.83825969696045 L 157.7 83.6 L 146.0 84.7 L 133.8 85.7 L 121.2 86.6 L 108.1 87.4 L 106.0 87.50808820724487 L 106.0 102.8 L 149.0 102.8 L 159.0 92.8 L 171.0 102.8 L 171.0 106.8 L 106.0 106.8 L 106.0 126.9 L 164.0 126.9 L 174.0 116.9 L 186.0 126.9 L 186.0 130.9 L 14.0 130.9 Z M 51.4 67.8 L 48.9 67.4 L 46.5 66.6 L 44.2 65.3 L 42.2 63.7 L 40.6 61.7 L 39.3 59.4 L 38.5 57.0 L 38.1 54.5 L 38.0 52.0 L 38.0 30.0 L 14.0 30.0 L 14.0 26.0 L 164.0 26.0 L 174.0 16.0 L 186.0 26.0 L 186.0 30.0 L 50.0 30.0 L 50.0 53.2 L 50.2 54.1 L 50.5 55.0 L 50.9 55.4 L 51.8 55.7 L 52.7 55.9 L 54.0 56.0 L 170.0 56.0 L 173.6 58.4 L 176.0 62.0 L 173.6 65.6 L 170.0 68.0 L 54.0 68.0 Z M 106.0 12.0 L 109.0 14.0 L 106.0 15.8 L 106.0 26.0 L 94.0 26.0 L 94.0 10.0 Z " />
</g>
</svg>
