<svg xmlns="http://www.w3.org/2000/svg" xmlns:xlink="http://www.w3.org/1999/xlink" version="1.1" baseProfile="full" viewBox="0 0 200 200" width="200" height="200">
<g fill="black">
<path d="M 79.3 173.6 L 77.5 169.4 L 75.7 165.3 L 73.8 161.4 L 71.8 157.6 L 69.8 153.9 L 67.7 150.3 L 65.6 146.8 L 65.17593669891357 146.1253539085388 L 64.8 146.7 L 57.4 156.3 L 49.6 164.9 L 41.4 172.4 L 32.8 178.7 L 23.9 183.9 L 14.7 187.8 L 13.9 186.1 L 21.9 180.6 L 29.6 174.4 L 36.9 167.5 L 44.0 159.7 L 50.7 151.1 L 57.0 141.5 L 63.1 131.0 L 68.8 119.6 L 74.3 107.1 L 79.04948863983154 94.71407861709595 L 79.0 94.7 L 79.9 92.4 L 90.6 98.0 L 92.7 100.9 L 89.0532410621643 101.59162673950195 L 84.7 111.7 L 78.4 124.3 L 71.8 136.0 L 66.86064519882203 143.55015668869018 L 68.1 144.4 L 71.5 147.1 L 74.7 150.1 L 77.8 153.4 L 80.7 157.0 L 83.5 160.7 L 86.2 164.7 L 88.8 168.9 L 91.3 173.3 L 93.6 177.9 L 93.6 182.4 L 90.4 185.7 L 85.8 185.7 L 82.6 182.5 L 81.0 178.0 Z M 173.3 172.0 L 171.2 168.2 L 169.0 164.6 L 166.7 161.1 L 164.3 157.8 L 161.7 154.5 L 159.0 151.4 L 156.3 148.2 L 155.24887638092042 147.1488763809204 L 153.1 149.5 L 144.2 158.0 L 135.0 165.7 L 125.3 172.6 L 115.3 178.6 L 104.9 183.7 L 94.1 187.8 L 93.3 186.1 L 103.1 180.3 L 112.5 174.0 L 121.5 167.2 L 130.1 159.9 L 138.4 151.9 L 146.3 143.2 L 153.8 133.9 L 161.0 123.9 L 167.8 113.2 L 173.7371479988098 102.71722316741943 L 173.7 102.7 L 174.8 100.9 L 184.7 107.8 L 186.3 111.0 L 182.6285129547119 111.06330146789551 L 177.4 119.3 L 169.7 130.2 L 161.6 140.2 L 157.20590476989747 145.00765714645385 L 158.3 145.5 L 162.2 147.6 L 165.9 150.0 L 169.5 152.7 L 172.9 155.7 L 176.1 159.0 L 179.3 162.5 L 182.2 166.3 L 185.1 170.3 L 187.7 174.5 L 188.1 179.1 L 185.2 182.6 L 180.6 182.9 L 177.1 180.0 L 175.2 175.9 Z M 78.4 69.9 L 80.6 72.7 L 77.00127515792846 73.45762624740601 L 73.8 81.6 L 68.8 92.7 L 63.5 103.1 L 57.9 112.8 L 51.9 121.8 L 45.7 130.0 L 39.1 137.4 L 32.2 144.1 L 24.9 149.8 L 17.3 154.7 L 16.2 153.2 L 22.4 147.0 L 28.4 140.3 L 34.1 133.2 L 39.6 125.4 L 44.8 117.1 L 49.8 108.2 L 54.5 98.6 L 59.0 88.4 L 63.2 77.5 L 67.1 65.9 L 67.1298152923584 65.91055412292481 L 67.6 64.5 Z M 174.8 71.5 L 176.6 74.7 L 172.89108915328978 74.95578699111938 L 169.0 82.0 L 162.7 92.0 L 156.1 101.4 L 149.0 110.3 L 141.6 118.7 L 133.9 126.5 L 125.7 133.8 L 117.2 140.5 L 108.2 146.4 L 98.8 151.7 L 97.8 150.2 L 105.9 143.4 L 113.7 136.3 L 121.2 129.0 L 128.4 121.3 L 135.2 113.1 L 141.7 104.6 L 147.8 95.7 L 153.6 86.3 L 159.0 76.4 L 164.1 66.2 L 164.14007492065429 66.2198501586914 L 164.7 65.1 Z M 33.8 102.8 L 32.7 99.3 L 31.4 96.0 L 30.0 92.8 L 28.5 89.6 L 26.8 86.4 L 25.0 83.3 L 23.1 80.2 L 20.8 77.3 L 22.0 75.9 L 28.4 80.3 L 31.3 82.8 L 34.1 85.6 L 35.767893409729005 87.46034259796143 L 37.0 83.5 L 39.8 74.9 L 41.2 70.8 L 42.5 66.7 L 44.9 58.7 L 46.0 54.8 L 46.74096384048462 51.910240936279294 L 46.7 51.9 L 46.888888931274415 51.33333330154419 L 47.0 50.9 L 47.02989416122436 50.91031742095947 L 47.5 49.5 L 58.3 54.8 L 60.5 57.7 L 56.68588409423828 58.502971744537355 L 56.6 58.7 L 54.8 62.5 L 52.9 66.4 L 50.9 70.2 L 48.7 74.1 L 46.4 78.0 L 44.0 81.9 L 41.4 85.7 L 38.6 89.5 L 38.027467823028566 90.26995706558228 L 39.1 91.7 L 41.4 95.1 L 43.4 98.6 L 45.3 102.4 L 47.0 106.3 L 46.6 110.8 L 43.1 113.8 L 38.6 113.3 L 35.6 109.9 L 34.8 106.3 Z M 122.9 95.9 L 121.4 92.7 L 119.8 89.7 L 118.0 86.7 L 116.0 83.9 L 113.9 81.1 L 111.6 78.4 L 109.2 75.7 L 106.4 73.2 L 107.3 71.7 L 110.8 73.2 L 114.4 74.8 L 117.7 76.8 L 120.9 79.0 L 123.9 81.6 L 124.06834230422973 81.75673246383667 L 124.2 81.5 L 126.0 77.5 L 127.7 73.6 L 130.9 66.2 L 132.4 62.6 L 133.7 59.1 L 134.9 55.6 L 136.0 52.1 L 136.7054244995117 49.70155658721924 L 136.7 49.7 L 136.7380952835083 49.59047622680664 L 137.0 48.7 L 137.04219179153444 48.71619863510132 L 137.5 47.4 L 148.2 53.0 L 150.3 56.0 L 146.29337825775147 56.690796852111816 L 144.5 59.9 L 142.5 63.4 L 140.3 66.8 L 137.9 70.1 L 135.4 73.5 L 132.7 76.8 L 129.9 80.1 L 126.290651512146 83.82577905654907 L 126.8 84.3 L 129.5 87.4 L 132.0 90.6 L 134.3 94.1 L 136.5 97.8 L 136.5 102.4 L 133.4 105.7 L 128.8 105.7 L 125.5 102.6 L 124.3 99.2 Z M 13.3 45.0 L 49.4 45.0 L 49.4 14.0 L 61.4 16.0 L 64.4 18.0 L 61.4 19.8 L 61.4 45.0 L 74.6 45.0 L 84.6 35.0 L 96.6 45.0 L 96.6 49.0 L 13.3 49.0 Z M 104.5 43.0 L 139.3 43.0 L 139.3 14.0 L 151.3 16.0 L 154.3 18.0 L 151.3 19.8 L 151.3 43.0 L 167.9 43.0 L 177.9 33.0 L 189.9 43.0 L 189.9 47.0 L 104.5 47.0 Z " />
</g>
</svg>
