<svg xmlns="http://www.w3.org/2000/svg" xmlns:xlink="http://www.w3.org/1999/xlink" version="1.1" baseProfile="full" viewBox="0 0 200 200" width="200" height="200">
<g fill="black">
<path d="M 149.0 97.1 L 152.0 99.1 L 149.0 100.9 L 149.0 112.4 L 165.0 112.4 L 175.0 102.4 L 187.0 112.4 L 187.0 116.4 L 149.0 116.4 L 149.0 176.6 L 137.0 182.6 L 137.0 170.6 L 63.0 170.6 L 63.0 182.6 L 51.0 188.6 L 51.0 116.4 L 13.0 116.4 L 13.0 112.4 L 51.0 112.4 L 51.0 95.1 L 63.0 97.1 L 66.0 99.1 L 63.0 100.9 L 63.0 112.4 L 137.0 112.4 L 137.0 95.1 Z M 63.0 142.3 L 63.0 166.6 L 137.0 166.6 L 137.0 142.3 Z M 63.0 116.4 L 63.0 138.3 L 137.0 138.3 L 137.0 116.4 Z M 176.0 82.2 L 173.6 85.8 L 170.0 88.2 L 54.0 88.2 L 51.4 88.1 L 48.9 87.6 L 46.5 86.8 L 44.2 85.6 L 42.2 83.9 L 40.6 81.9 L 39.3 79.7 L 38.5 77.2 L 38.1 74.8 L 38.0 72.2 L 38.0 34.0 L 14.0 34.0 L 14.0 30.0 L 94.0 30.0 L 94.0 14.8 L 106.0 16.8 L 109.0 18.8 L 106.0 20.6 L 106.0 30.0 L 164.0 30.0 L 174.0 20.0 L 186.0 30.0 L 186.0 34.0 L 50.0 34.0 L 50.0 73.4 L 50.2 74.3 L 50.4 74.9 L 50.5 75.3 L 50.7 75.4 L 50.9 75.6 L 51.2 75.8 L 51.8 76.0 L 52.7 76.1 L 54.0 76.2 L 170.0 76.2 L 173.6 78.6 Z " />
</g>
</svg>
