<svg xmlns="http://www.w3.org/2000/svg" xmlns:xlink="http://www.w3.org/1999/xlink" version="1.1" baseProfile="full" viewBox="0 0 200 200" width="200" height="200">
<g fill="black">
<path d="M 53.0 94.0 L 50.4 93.8 L 47.9 93.4 L 45.5 92.6 L 43.2 91.3 L 41.2 89.7 L 39.6 87.7 L 38.3 85.4 L 37.5 83.0 L 37.1 80.5 L 37.0 78.0 L 37.0 41.0 L 14.0 41.0 L 14.0 37.0 L 94.0 37.0 L 94.0 13.0 L 106.0 15.0 L 109.0 17.0 L 106.0 18.8 L 106.0 37.0 L 164.0 37.0 L 174.0 27.0 L 186.0 37.0 L 186.0 41.0 L 49.0 41.0 L 49.0 79.2 L 49.2 80.1 L 49.5 81.0 L 49.9 81.4 L 50.8 81.7 L 51.7 81.9 L 53.0 82.0 L 170.0 82.0 L 173.6 84.4 L 176.0 88.0 L 173.6 91.6 L 170.0 94.0 L 128.0 94.0 L 128.0 171.5 L 128.2 172.4 L 128.5 173.3 L 128.9 173.7 L 129.2 173.9 L 129.8 174.0 L 130.7 174.2 L 132.0 174.3 L 177.0 174.3 L 183.0 149.3 L 185.0 149.3 L 183.0 174.3 L 186.6 176.7 L 189.0 180.3 L 186.6 183.9 L 183.0 186.3 L 132.0 186.3 L 129.4 186.1 L 126.9 185.7 L 124.5 184.9 L 122.2 183.7 L 120.2 182.0 L 118.6 180.0 L 117.3 177.7 L 116.5 175.3 L 116.1 172.8 L 116.0 170.3 L 116.0 94.0 L 85.0 94.0 L 84.0 94.6 L 84.0 132.1 L 82.9 141.4 L 80.5 150.1 L 76.6 158.0 L 71.3 164.9 L 64.7 171.0 L 56.9 176.1 L 48.0 180.4 L 37.9 183.7 L 26.6 186.2 L 14.1 187.7 L 13.8 185.9 L 25.7 182.5 L 36.1 178.7 L 45.2 174.4 L 52.9 169.7 L 59.2 164.5 L 64.1 159.0 L 67.8 153.0 L 70.3 146.6 L 71.7 139.7 L 72.0 132.1 L 72.0 94.0 Z " />
</g>
</svg>
