<svg xmlns="http://www.w3.org/2000/svg" xmlns:xlink="http://www.w3.org/1999/xlink" version="1.1" baseProfile="full" viewBox="0 0 200 200" width="200" height="200">
<g fill="black">
<path d="M 20.0 176.0 L 92.0 176.0 L 92.0 150.0 L 40.0 150.0 L 40.0 146.0 L 92.0 146.0 L 92.0 126.09911508560181 L 82.1 126.8 L 70.5 127.4 L 58.4 127.8 L 45.9 128.0 L 33.0 127.8 L 32.9 126.1 L 45.6 124.2 L 57.9 122.5 L 69.8 120.8 L 81.4 119.2 L 92.5 117.5 L 103.2 115.8 L 113.4 114.0 L 123.3 112.2 L 132.8 110.3 L 140.83270273208618 108.5149549484253 L 140.8 108.4 L 140.91671085357666 108.49628648757934 L 141.8 108.3 L 142.01703643798828 109.40405511856079 L 152.8 118.3 L 153.2 121.3 L 148.68583145141602 119.1039179801941 L 144.1 120.0 L 134.8 121.5 L 125.0 122.8 L 114.9 124.0 L 104.4 125.0 L 104.0 125.03636360168457 L 104.0 146.0 L 133.0 146.0 L 143.0 136.0 L 155.0 146.0 L 155.0 150.0 L 104.0 150.0 L 104.0 176.0 L 157.0 176.0 L 167.0 166.0 L 179.0 176.0 L 179.0 180.0 L 20.0 180.0 Z M 22.6 123.6 L 19.7 120.1 L 19.9 115.6 L 21.4 113.4 L 24.0 108.4 L 25.2 105.6 L 26.2 102.6 L 27.2 99.5 L 28.1 96.1 L 28.9 92.6 L 29.7 88.9 L 30.1 85.0 L 31.9 84.9 L 32.5 88.9 L 33.3 92.7 L 33.43333330154419 94.0 L 167.0 94.0 L 167.46601943969728 93.61165046691895 L 167.5 93.5 L 167.5649582862854 93.52920141220093 L 173.0 89.0 L 184.0 98.0 L 179.0 101.0 L 175.82539682388307 102.32275133132934 L 175.5 102.8 L 173.8 105.1 L 172.1 107.5 L 170.3 110.0 L 168.4 112.5 L 166.4 115.1 L 164.2 117.8 L 161.9 120.4 L 159.7 123.4 L 158.2 122.5 L 159.6 119.2 L 160.6 115.7 L 161.6 112.5 L 162.6 109.4 L 163.6 106.4 L 164.5 103.6 L 165.3 100.9 L 166.1 98.3 L 166.1840000152588 98.0 L 33.77567567825317 98.0 L 33.9 100.3 L 33.9 103.9 L 33.6 107.5 L 33.2 111.0 L 32.6 114.4 L 31.7 117.7 L 30.7 121.0 L 27.2 123.9 Z M 65.0 51.0 L 133.0 51.0 L 139.0 46.0 L 150.0 55.0 L 145.0 59.0 L 145.0 80.0 L 133.0 86.0 L 133.0 80.0 L 65.0 80.0 L 53.0 86.0 L 53.0 45.0 Z M 65.0 55.0 L 65.0 76.0 L 133.0 76.0 L 133.0 55.0 Z M 105.0 17.0 L 108.0 19.0 L 105.0 20.8 L 105.0 35.0 L 161.0 35.0 L 171.0 25.0 L 183.0 35.0 L 183.0 39.0 L 17.0 39.0 L 17.0 35.0 L 93.0 35.0 L 93.0 15.0 Z " />
</g>
</svg>
