<svg xmlns="http://www.w3.org/2000/svg" xmlns:xlink="http://www.w3.org/1999/xlink" version="1.1" baseProfile="full" viewBox="0 0 200 200" width="200" height="200">
<g fill="black">
<path d="M 20.0 60.0 L 20.0 56.0 L 94.0 56.0 L 94.0 14.0 L 106.0 16.0 L 109.0 18.0 L 106.0 19.8 L 106.0 56.0 L 158.0 56.0 L 168.0 46.0 L 180.0 56.0 L 180.0 60.0 L 131.0 60.0 L 131.0 170.0 L 130.8 172.5 L 130.4 175.0 L 129.6 177.4 L 128.3 179.7 L 126.7 181.7 L 124.7 183.3 L 122.4 184.6 L 120.0 185.4 L 117.5 185.8 L 115.0 186.0 L 115.0 180.0 L 95.0 177.0 L 95.0 174.0 L 115.0 174.0 L 116.2 173.9 L 117.1 173.7 L 118.0 173.4 L 118.4 173.0 L 118.7 172.1 L 118.9 171.2 L 119.0 170.0 L 119.0 60.0 L 84.0 60.0 L 84.0 105.0 L 83.2 117.3 L 81.6 128.8 L 79.0 139.4 L 75.6 149.2 L 71.2 157.9 L 65.9 165.7 L 59.8 172.4 L 52.7 178.1 L 44.9 182.5 L 36.3 185.8 L 35.6 184.1 L 43.0 179.3 L 49.4 173.9 L 55.0 167.9 L 59.7 161.3 L 63.7 154.0 L 66.9 145.9 L 69.3 136.9 L 71.0 127.2 L 71.9 116.5 L 72.0 105.0 L 72.0 60.0 Z M 160.9 164.4 L 159.6 159.8 L 158.1 155.1 L 156.2 150.3 L 154.0 145.4 L 151.6 140.4 L 148.9 135.3 L 146.0 129.9 L 142.9 124.3 L 144.3 123.2 L 149.0 127.6 L 153.3 132.2 L 157.1 136.9 L 160.6 141.7 L 163.7 146.5 L 166.5 151.3 L 169.0 156.2 L 171.1 161.0 L 172.8 165.9 L 174.3 170.9 L 173.3 175.3 L 169.5 177.9 L 165.1 176.9 L 162.5 173.1 L 161.8 168.8 Z M 58.4 85.7 L 60.7 88.4 L 57.060541439056394 89.35775222778321 L 55.8 92.8 L 52.8 99.8 L 49.6 106.8 L 46.0 113.8 L 42.1 120.6 L 38.0 127.4 L 33.5 134.2 L 28.6 140.8 L 23.4 147.2 L 17.7 153.5 L 16.2 152.4 L 20.2 145.1 L 24.1 137.9 L 27.9 130.8 L 31.4 123.7 L 34.6 116.7 L 37.6 109.8 L 40.3 102.8 L 42.8 95.9 L 45.0 89.0 L 46.645714950561526 83.11007280349732 L 46.6 83.1 L 47.4 80.6 Z M 167.0 122.3 L 165.0 117.1 L 162.8 112.1 L 160.3 107.2 L 157.6 102.3 L 154.7 97.5 L 151.7 92.8 L 148.4 88.1 L 145.1 83.3 L 146.3 82.0 L 151.2 85.5 L 155.7 89.3 L 159.9 93.5 L 163.9 98.0 L 167.5 102.7 L 170.9 107.6 L 174.0 112.7 L 176.8 118.0 L 179.4 123.5 L 181.7 129.3 L 181.3 133.8 L 177.9 136.8 L 173.3 136.4 L 170.3 132.9 L 168.8 127.5 Z " />
</g>
</svg>
