<svg xmlns="http://www.w3.org/2000/svg" xmlns:xlink="http://www.w3.org/1999/xlink" version="1.1" baseProfile="full" viewBox="0 0 200 200" width="200" height="200">
<g fill="black">
<path d="M 25.0 190.0 L 25.0 110.0 L 37.0 112.0 L 40.0 114.0 L 37.0 115.8 L 37.0 173.0 L 157.0 173.0 L 157.0 110.0 L 169.0 112.0 L 172.0 114.0 L 169.0 115.8 L 169.0 181.0 L 157.0 187.0 L 157.0 177.0 L 37.0 177.0 L 37.0 184.0 Z M 120.0 152.0 L 111.7 147.2 L 103.3 142.6 L 103.15545587539673 142.52517709732055 L 100.9 143.8 L 91.1 148.7 L 80.8 153.3 L 69.9 157.6 L 58.3 161.4 L 46.2 164.8 L 45.7 163.1 L 57.0 157.9 L 67.7 152.6 L 78.0 147.4 L 87.6 142.0 L 94.24845609664916 137.93705463409424 L 86.2 134.1 L 77.5 130.2 L 68.6 126.4 L 59.7 122.7 L 50.7 119.1 L 51.2 117.3 L 60.8 119.1 L 70.4 121.3 L 79.8 124.0 L 89.1 127.1 L 98.3 130.5 L 102.81177387237548 132.33445749282836 L 105.1 130.8 L 112.9 125.0 L 120.2 119.0 L 126.9 112.8 L 132.9 106.5 L 132.95117645263673 106.54882354736328 L 133.3 106.2 L 141.6 114.8 L 142.3 118.4 L 138.61133136749268 117.49401121139526 L 134.5 121.2 L 127.0 127.3 L 118.8 133.1 L 112.9880051612854 136.77424955368042 L 116.3 138.3 L 125.2 142.6 L 134.0 147.3 L 142.6 152.3 L 145.2 156.1 L 144.5 160.6 L 140.7 163.1 L 136.2 162.4 L 128.2 157.1 Z M 162.0 79.0 L 157.0 82.0 L 150.85795917510987 84.55918369293212 L 149.1 85.9 L 142.6 90.1 L 135.5 93.9 L 127.8 97.3 L 119.5 100.4 L 110.6 103.1 L 101.2 105.5 L 91.1 107.4 L 80.4 108.9 L 69.1 109.8 L 68.8 108.1 L 79.7 105.1 L 89.9 102.2 L 99.4 99.1 L 108.2 95.9 L 116.4 92.5 L 123.9 88.9 L 130.7 85.1 L 136.8 81.1 L 139.5 79.0 L 38.0 79.0 L 38.0 75.0 L 144.2295454978943 75.0 L 146.9 72.5 L 147.37444086074828 73.02129926681519 L 151.0 70.0 Z M 158.9 61.9 L 149.2 58.0 L 139.9 53.6 L 131.0 48.8 L 122.4 43.5 L 114.3 37.7 L 106.7 31.5 L 99.6 24.7 L 97.21685676574707 21.986883068084715 L 94.9 24.2 L 87.6 30.3 L 79.8 36.3 L 71.4 42.0 L 62.6 47.4 L 53.2 52.7 L 43.3 57.7 L 32.9 62.4 L 21.9 66.8 L 10.3 70.8 L 9.6 69.1 L 20.3 63.3 L 30.5 57.6 L 40.2 51.9 L 49.4 46.2 L 58.0 40.3 L 66.1 34.4 L 73.6 28.3 L 80.6 22.2 L 87.0 15.9 L 92.2254373550415 10.320295715332032 L 92.2 10.3 L 93.2 9.2 L 101.6 17.8 L 102.5 21.3 L 101.6581618309021 21.122770881652833 L 102.2 21.5 L 110.2 26.8 L 118.4 31.7 L 126.7 36.3 L 135.3 40.5 L 144.1 44.3 L 153.3 47.7 L 162.7 50.7 L 172.4 53.3 L 182.4 55.5 L 191.2 57.5 L 179.5 68.4 L 169.0 65.4 Z M 138.0 56.0 L 138.0 60.0 L 55.0 60.0 L 55.0 56.0 L 116.0 56.0 L 126.0 46.0 Z " />
</g>
</svg>
