<svg xmlns="http://www.w3.org/2000/svg" xmlns:xlink="http://www.w3.org/1999/xlink" version="1.1" baseProfile="full" viewBox="0 0 200 200" width="200" height="200">
<g fill="black">
<path d="M 160.1 61.2 L 158.9 54.0 L 158.5 51.5 L 158.0 49.0 L 157.1 46.6 L 158.7 45.8 L 160.1 47.9 L 161.9 49.8 L 161.9589416503906 49.872810173034665 L 162.0 48.6 L 162.1 45.4 L 162.3 42.1 L 162.6 38.8 L 162.8 35.4 L 163.2 28.4 L 163.54548721313478 22.0084867477417 L 163.4 22.0 L 163.9 19.0 L 175.4 22.7 L 178.1 25.1 L 174.4579930305481 26.65122518539429 L 173.5 30.1 L 171.3 37.1 L 170.1 40.4 L 168.9 43.6 L 167.6 46.7 L 166.2 49.7 L 164.7 52.5 L 164.44528303146362 53.00943393707276 L 165.2 54.0 L 168.0 58.4 L 168.65413265228273 59.55731153488159 L 169.2 55.9 L 170.2 49.0 L 171.1 41.9 L 171.170374584198 41.911827659606935 L 171.5 40.0 L 183.0 43.9 L 185.6 46.4 L 182.1327615737915 47.748370456695554 L 181.4 51.0 L 179.7 58.0 L 178.0 64.7 L 176.1 71.2 L 174.2 77.5 L 172.1 83.6 L 169.9 89.4 L 167.6 95.1 L 166.4676344871521 97.40828351974487 L 167.3 97.1 L 169.9 96.3 L 172.6 95.5 L 175.2 94.9 L 176.65014839172363 94.57774477005005 L 176.5 91.8 L 176.3 88.2 L 176.0 84.5 L 175.9 80.9 L 175.8 77.4 L 175.4 73.9 L 177.2 73.4 L 178.7 76.6 L 180.3 79.9 L 181.7 83.3 L 183.0 86.8 L 184.2 90.3 L 185.4 94.0 L 186.4 97.7 L 187.4 101.5 L 188.4 105.4 L 189.2 109.4 L 187.9 113.8 L 184.0 116.1 L 179.6 114.8 L 177.3 110.8 L 177.2 106.9 L 177.0 103.1 L 176.9 99.3 L 176.86381912231445 98.61256284713745 L 175.1 100.2 L 173.0 102.0 L 170.9 103.7 L 168.7 105.5 L 166.5 107.2 L 164.3 109.0 L 163.2429292678833 109.82727270126342 L 163.0 114.2 L 159.7 112.6 L 155.19125471115112 107.15437259674073 L 145.9 111.8 L 146.2 112.0 L 143.2 113.8 L 143.2 129.7 L 160.9 129.7 L 170.9 119.7 L 182.9 129.7 L 182.9 133.7 L 143.2 133.7 L 143.2 134.37272729873658 L 145.6 137.1 L 149.7 141.9 L 153.9 146.5 L 158.1 150.9 L 162.3 155.0 L 166.7 158.8 L 171.2 162.3 L 175.8 165.6 L 180.5 168.7 L 185.3 171.5 L 189.4 174.0 L 178.3 182.7 L 173.3 178.9 L 168.5 174.9 L 163.9 170.7 L 159.6 166.1 L 155.5 161.3 L 151.7 156.2 L 148.1 150.9 L 144.9 145.3 L 143.2 141.78275861740113 L 143.2 185.0 L 131.2 191.0 L 131.2 148.37142858505248 L 127.6 153.6 L 123.1 159.3 L 118.2 164.6 L 113.0 169.5 L 107.5 173.9 L 101.7 177.9 L 95.6 181.3 L 89.1 184.1 L 88.2 182.6 L 93.5 178.1 L 98.5 173.6 L 103.2 169.0 L 107.6 164.1 L 111.8 159.0 L 115.7 153.7 L 119.3 148.0 L 122.6 142.1 L 125.6 135.9 L 126.4380952835083 133.7 L 91.4 133.7 L 91.4 129.7 L 131.2 129.7 L 131.2 108.0 L 143.2 110.0 L 144.3 110.73333330154419 L 144.3 107.1 L 132.5 107.1 L 122.97200002670289 111.86400003433228 L 122.4 113.8 L 118.5 116.1 L 114.1 114.8 L 111.8 110.8 L 111.7 106.9 L 111.6 103.1 L 111.36381912231445 98.61256284713745 L 109.6 100.2 L 107.5 102.0 L 105.4 103.7 L 103.2 105.5 L 101.0 107.2 L 97.74074077606201 109.86666669845582 L 97.5 114.2 L 94.3 112.6 L 86.5 103.3 L 88.2 102.3 L 91.0 101.1 L 93.7 100.1 L 95.89936304092407 99.2039631843567 L 95.9 99.2 L 98.1 87.6 L 99.3 81.6 L 100.5 75.4 L 100.63397197723388 74.63270616531372 L 98.2 74.2 L 95.5 70.5 L 95.3 68.2 L 95.2 65.9 L 94.9 63.6 L 94.3 58.8 L 93.9 56.4 L 93.4 54.0 L 93.0 51.5 L 92.5 49.0 L 91.92448978424072 47.46530609130859 L 90.7 48.2 L 90.05271453857422 48.46970224380493 L 87.9 64.0 L 84.8 82.6 L 81.1 99.7 L 76.9 115.1 L 74.25380382537841 123.0961145401001 L 74.7 124.5 L 79.2 135.6 L 83.8 145.0 L 88.5 152.5 L 93.4 158.2 L 98.1 162.2 L 101.1 164.4 L 90.2 172.7 L 84.1 166.6 L 78.7 159.0 L 73.9 149.9 L 69.6 139.4 L 68.87680101394653 137.09718217849732 L 67.1 141.3 L 61.4 152.0 L 55.2 160.9 L 48.4 168.1 L 41.1 173.4 L 40.1 172.0 L 45.6 165.5 L 50.8 157.9 L 55.6 148.8 L 60.1 138.3 L 64.2 126.3 L 64.9264705657959 123.7 L 62.5 113.7 L 59.5 98.5 L 57.0 81.8 L 55.1 63.4 L 53.9170000076294 45.2 L 45.9 45.2 L 45.9 41.2 L 78.7 41.2 L 84.7 36.2 L 95.7 45.2 L 93.62857141494752 46.44285717010498 L 94.6 47.9 L 96.4625 49.7625 L 96.5 48.6 L 96.7 45.4 L 97.1 38.8 L 97.3 35.4 L 97.7 28.4 L 98.04548721313476 22.0084867477417 L 97.9 22.0 L 98.4 19.0 L 109.9 22.7 L 112.6 25.1 L 108.9579930305481 26.65122518539429 L 108.0 30.1 L 105.8 37.1 L 104.7 40.4 L 103.4 43.6 L 102.1 46.7 L 100.7 49.7 L 99.2 52.5 L 98.94528303146362 53.00943393707276 L 99.7 54.0 L 102.5 58.4 L 103.15413265228271 59.55731153488159 L 103.7 55.9 L 104.7 49.0 L 105.6 41.9 L 105.670374584198 41.911827659606935 L 106.0 40.0 L 117.5 43.9 L 120.1 46.4 L 116.6327615737915 47.748370456695554 L 115.9 51.0 L 114.3 58.0 L 112.5 64.7 L 110.7 71.2 L 108.7 77.5 L 106.6 83.6 L 104.4 89.4 L 102.1 95.1 L 100.9676344871521 97.40828351974487 L 101.8 97.1 L 104.4 96.3 L 107.1 95.5 L 109.7 94.9 L 111.15014839172363 94.57774477005005 L 111.0 91.8 L 110.8 88.2 L 110.5 84.5 L 110.4 80.9 L 110.3 77.4 L 110.0 73.9 L 111.7 73.4 L 113.2 76.6 L 114.8 79.9 L 116.2 83.3 L 117.5 86.8 L 118.7 90.3 L 119.9 94.0 L 120.9 97.7 L 121.5 99.98000001907349 L 121.5 34.4 L 130.6840000152588 38.99200000762939 L 130.5 36.6 L 130.4 34.0 L 130.4 31.6 L 130.3 29.2 L 130.3 26.8 L 130.2 24.5 L 130.2 22.3 L 130.1 20.1 L 130.1 19.01666669845581 L 129.9 19.0 L 130.4 16.0 L 141.9 20.0 L 144.5 22.5 L 140.32981367111205 24.12173910140991 L 140.3 24.2 L 139.4 26.3 L 138.5 28.5 L 136.5 32.9 L 135.4 35.1 L 134.2 37.4 L 132.9 39.7 L 132.8333333015442 39.9 L 144.3 39.9 L 149.8 34.9 L 160.3 43.9 L 155.3 47.4 L 155.3 101.58888893127441 L 156.4 101.1 L 159.2 100.1 L 161.39928674697876 99.2039942741394 L 161.4 99.2 L 163.6 87.6 L 164.8 81.6 L 166.0 75.4 L 166.1339719772339 74.63270616531372 L 163.7 74.2 L 161.0 70.5 L 160.4 63.6 Z M 50.5 19.1 L 52.9 21.8 L 49.40404624938965 22.798843955993654 L 47.3 29.9 L 43.8 40.5 L 40.2 50.9 L 36.4 61.0 L 32.4 70.9 L 31.39309787750244 73.28218297958374 L 36.3 74.1 L 39.3 76.1 L 36.3 77.9 L 36.3 180.3 L 24.3 186.3 L 24.3 89.14545450210571 L 23.9 90.0 L 19.4 99.1 L 14.5 107.9 L 9.3 116.4 L 7.7 115.6 L 14.5 97.0 L 17.9 87.5 L 21.2 77.8 L 24.5 68.0 L 27.6 58.0 L 30.6 47.8 L 33.5 37.4 L 36.3 26.8 L 38.9 16.0 L 38.95541954040527 16.014810371398926 L 39.4 14.3 Z M 55.9673469543457 45.2 L 59.2 62.8 L 62.9 80.8 L 66.6 97.1 L 69.27869300842285 106.81026229858398 L 71.3 97.5 L 74.2 80.8 L 76.7 62.5 L 78.43869342803956 45.2 Z M 132.5 74.1 L 132.5 103.1 L 144.3 103.1 L 144.3 74.1 Z M 132.5 43.9 L 132.5 70.1 L 144.3 70.1 L 144.3 43.9 Z " />
</g>
</svg>
