<svg xmlns="http://www.w3.org/2000/svg" xmlns:xlink="http://www.w3.org/1999/xlink" version="1.1" baseProfile="full" viewBox="0 0 200 200" width="200" height="200">
<g fill="black">
<path d="M 76.2 18.2 L 78.2 21.2 L 74.52557363510132 21.706817436218262 L 70.9 29.3 L 65.4 40.2 L 59.7 50.8 L 53.7 61.2 L 47.4 71.3 L 46.31999998092651 72.91999998092652 L 52.8 74.0 L 55.8 76.0 L 52.8 77.8 L 52.8 183.0 L 40.8 189.0 L 40.8 81.2 L 34.0 90.8 L 26.9 100.1 L 19.3 109.0 L 11.5 117.5 L 10.0 116.4 L 16.3 106.7 L 22.5 97.0 L 28.5 87.1 L 34.4 77.2 L 40.1 67.0 L 45.5 56.7 L 50.8 46.2 L 55.8 35.5 L 60.6 24.6 L 64.73098449707031 14.410238361358642 L 64.7 14.4 L 64.93636360168458 13.903636360168457 L 65.1 13.5 L 65.1237771987915 13.51006784439087 L 65.7 12.3 Z M 175.5 183.5 L 172.6 181.6 L 169.3 179.7 L 165.4 177.8 L 161.1 175.9 L 156.4 174.0 L 151.2 172.0 L 145.6 169.9 L 139.5 167.8 L 139.9 166.1 L 146.3 166.5 L 152.4 167.0 L 158.1 167.9 L 163.3 168.8 L 168.2 170.0 L 172.7 171.2 L 176.9 172.6 L 180.7 174.2 L 184.2 175.9 L 187.3 177.8 L 189.4 181.9 L 188.1 186.3 L 184.1 188.4 L 179.7 187.1 L 177.8 185.3 Z M 117.31987581253051 166.94596271514894 L 121.7 171.7 L 121.9 175.2 L 118.15328187942505 173.66116933822633 L 117.3 174.1 L 113.5 175.8 L 109.4 177.5 L 104.9 179.1 L 100.0 180.7 L 94.8 182.2 L 89.2 183.7 L 83.2 185.1 L 76.9 186.3 L 70.1 187.4 L 69.6 185.6 L 75.7 182.7 L 81.6 180.0 L 87.0 177.5 L 92.1 175.1 L 96.9 172.8 L 101.2 170.6 L 105.1 168.4 L 108.6 166.3 L 111.7 164.2 L 113.54163856506348 162.8541872024536 L 113.5 162.8 L 113.54659090042114 162.85056819915772 L 114.3 162.3 Z M 101.2 109.8 L 161.7 109.8 L 167.7 104.8 L 178.7 113.8 L 173.7 117.8 L 173.7 160.3 L 161.7 166.3 L 161.7 160.3 L 101.2 160.3 L 89.2 166.3 L 89.2 103.8 Z M 101.2 144.8 L 101.2 156.3 L 161.7 156.3 L 161.7 144.8 Z M 101.2 129.3 L 101.2 140.8 L 161.7 140.8 L 161.7 129.3 Z M 101.2 113.8 L 101.2 125.3 L 161.7 125.3 L 161.7 113.8 Z M 109.3 95.3 L 125.3 95.3 L 126.5 95.2 L 127.4 95.1 L 128.0 94.9 L 128.4 94.7 L 128.5 94.5 L 128.7 94.4 L 128.9 94.0 L 129.1 93.4 L 129.2 92.5 L 129.3 91.3 L 129.3 76.8 L 80.2 76.8 L 80.2 72.8 L 129.3 72.8 L 129.3 62.0 L 135.24666662216185 62.99111108779907 L 136.2 62.5 L 139.4 60.6 L 142.4 58.7 L 145.3 56.9 L 148.0 55.2 L 150.1 53.8 L 95.0 53.8 L 95.0 49.8 L 155.775 49.8 L 157.7 48.4 L 159.7 46.7 L 160.01262140274048 47.20614891052246 L 162.9 44.8 L 173.9 53.8 L 168.9 56.8 L 156.9 61.8 L 156.9 60.46666669845581 L 154.4 61.3 L 151.2 62.2 L 147.9 63.1 L 144.4 63.9 L 141.9 64.4 L 144.3 66.0 L 141.3 67.8 L 141.3 72.8 L 165.2 72.8 L 175.2 62.8 L 187.2 72.8 L 187.2 76.8 L 141.3 76.8 L 141.3 91.3 L 141.2 93.8 L 140.7 96.3 L 139.9 98.7 L 138.7 101.0 L 137.0 103.0 L 135.0 104.7 L 132.8 105.9 L 130.3 106.7 L 127.9 107.1 L 125.3 107.3 L 125.3 101.3 L 109.3 98.3 Z M 164.29095935821533 14.085958194732665 L 175.3 23.2 L 175.7 26.2 L 171.11210556030272 23.87546682357788 L 166.0 24.7 L 161.0 25.2 L 155.7 25.7 L 149.9 26.1 L 143.8 26.5 L 137.4 26.9 L 130.5 27.2 L 123.3 27.4 L 115.7 27.5 L 108.48275861740112 27.5 L 110.0 29.5 L 105.91851854324341 30.35925922393799 L 104.3 33.0 L 102.1 36.0 L 99.6 39.0 L 96.9 41.8 L 94.0 44.5 L 90.8 47.0 L 87.3 49.5 L 83.5 51.7 L 79.7 54.1 L 78.6 52.6 L 81.6 49.4 L 84.3 46.1 L 86.7 42.9 L 88.9 39.8 L 90.8 36.8 L 92.4 33.9 L 93.8 31.0 L 94.9 28.2 L 95.8 25.5 L 96.19477949142455 23.723492336273193 L 96.1 23.7 L 96.9 21.3 L 103.49908046722412 24.508727169036867 L 107.4 23.7 L 115.2 22.2 L 122.7 20.9 L 129.7 19.6 L 136.4 18.4 L 142.7 17.3 L 148.6 16.2 L 154.2 15.1 L 159.3 14.0 L 163.1068965911865 13.127586174011231 L 163.1 13.1 L 163.12759284973146 13.122843265533447 L 164.1 12.9 Z M 132.2 43.8 L 131.5 42.4 L 130.5 40.8 L 129.2 39.1 L 127.7 37.4 L 125.9 35.5 L 123.8 33.5 L 121.5 31.4 L 118.8 29.6 L 119.6 28.0 L 122.7 29.3 L 125.7 30.2 L 128.6 31.2 L 131.2 32.2 L 133.6 33.3 L 135.9 34.5 L 138.0 35.7 L 139.9 37.0 L 141.6 38.5 L 143.2 40.1 L 143.8 44.6 L 141.0 48.3 L 136.5 48.8 L 132.8 46.1 L 132.7 45.1 Z M 171.0 42.2 L 169.5 40.4 L 167.7 38.6 L 165.6 36.8 L 163.2 35.0 L 160.5 33.2 L 157.6 31.4 L 154.4 29.5 L 150.9 28.0 L 151.3 26.2 L 155.2 26.9 L 159.0 27.4 L 162.6 28.1 L 166.0 29.0 L 169.2 30.1 L 172.3 31.3 L 175.1 32.7 L 177.8 34.3 L 180.3 36.1 L 182.6 38.0 L 183.8 42.4 L 181.7 46.5 L 177.3 47.7 L 173.3 45.6 L 172.3 43.9 Z " />
</g>
</svg>
