<svg xmlns="http://www.w3.org/2000/svg" xmlns:xlink="http://www.w3.org/1999/xlink" version="1.1" baseProfile="full" viewBox="0 0 200 200" width="200" height="200">
<g fill="black">
<path d="M 67.6 17.8 L 69.8 20.7 L 66.19524536132812 21.458895683288574 L 63.3 29.0 L 58.8 39.8 L 54.1 50.5 L 49.2 60.9 L 44.0 71.0 L 42.91051006317139 73.03508501052856 L 48.7 74.0 L 51.7 76.0 L 48.7 77.8 L 48.7 183.0 L 36.7 189.0 L 36.7 84.3285714149475 L 33.1 90.5 L 27.2 99.8 L 21.0 108.8 L 14.4 117.4 L 12.9 116.5 L 17.7 106.9 L 22.5 97.2 L 27.3 87.4 L 31.9 77.5 L 36.4 67.4 L 40.7 57.1 L 44.8 46.6 L 48.8 35.9 L 52.6 25.0 L 56.2 13.9 L 56.22992124557495 13.910236263275147 L 56.7 12.5 Z M 63.7 173.7 L 85.6 173.7 L 85.6 132.5 L 97.6 134.5 L 100.6 136.5 L 97.6 138.3 L 97.6 173.7 L 122.0 173.7 L 122.0 114.2 L 134.0 116.2 L 137.0 118.2 L 134.0 120.0 L 134.0 141.1 L 159.21818180084227 141.1 L 167.4 132.1 L 177.4 141.1 L 177.4 145.1 L 134.0 145.1 L 134.0 173.7 L 164.7 173.7 L 174.7 163.7 L 186.7 173.7 L 186.7 177.7 L 63.7 177.7 Z M 71.8 101.8 L 120.6 101.8 L 120.6 65.8 L 92.0 65.8 L 92.0 77.8 L 80.0 83.8 L 80.0 26.8 L 92.0 28.8 L 95.0 30.8 L 92.0 32.6 L 92.0 61.8 L 120.6 61.8 L 120.6 17.5 L 132.6 19.5 L 135.6 21.5 L 132.6 23.3 L 132.6 61.8 L 162.6 61.8 L 162.6 26.8 L 174.6 28.8 L 177.6 30.8 L 174.6 32.6 L 174.6 71.8 L 162.6 77.8 L 162.6 65.8 L 132.6 65.8 L 132.6 101.8 L 159.4 101.8 L 169.4 91.8 L 181.4 101.8 L 181.4 105.8 L 71.8 105.8 Z " />
</g>
</svg>
