<svg xmlns="http://www.w3.org/2000/svg" xmlns:xlink="http://www.w3.org/1999/xlink" version="1.1" baseProfile="full" viewBox="0 0 200 200" width="200" height="200">
<g fill="black">
<path d="M 71.9 18.1 L 73.9 21.1 L 70.32660551071167 21.664220142364503 L 67.0 29.2 L 61.8 40.1 L 56.4 50.7 L 50.7 61.1 L 49.00594062805176 64.0 L 49.9 64.0 L 49.9 183.0 L 37.9 189.0 L 37.9 82.13384618759156 L 32.1 90.7 L 25.4 100.0 L 18.3 108.9 L 10.8 117.5 L 9.4 116.4 L 15.2 106.7 L 20.9 97.0 L 26.6 87.2 L 32.0 77.2 L 37.3 67.1 L 37.9 65.88823528289795 L 37.9 64.0 L 38.83495149612427 64.0 L 42.4 56.8 L 47.3 46.3 L 52.0 35.6 L 56.5 24.7 L 60.41128244400024 14.603433799743652 L 60.4 14.6 L 61.3 12.3 Z M 178.8 173.8 L 177.2 175.7 L 175.4 177.3 L 173.4 178.8 L 171.3 179.9 L 169.0 180.8 L 166.6 181.5 L 164.2 181.8 L 161.6 182.0 L 161.6 176.0 L 141.6 173.0 L 141.6 170.0 L 161.6 170.0 L 163.0 169.9 L 164.2 169.7 L 165.3 169.4 L 166.2 169.1 L 167.8 168.1 L 168.5 167.4 L 169.2 166.6 L 169.9 165.6 L 170.5 164.3 L 170.7 163.5 L 171.3 160.0 L 171.8 154.7 L 172.4 147.6 L 173.0 138.9 L 173.5 128.4 L 174.0 116.3 L 174.5 102.4 L 174.9 87.0 L 175.248837184906 72.0 L 159.1274130821228 72.0 L 159.0 74.2 L 156.9 96.9 L 154.3 116.8 L 150.8 134.0 L 146.3 148.8 L 140.5 161.2 L 133.4 171.5 L 124.8 179.6 L 114.7 185.7 L 113.8 184.2 L 122.3 176.8 L 129.2 168.3 L 130.2330798149109 166.42167301177977 L 129.8 166.6 L 123.1 169.1 L 116.5 171.3 L 110.0 173.5 L 103.5 175.5 L 97.2 177.5 L 91.0 179.3 L 84.9 181.1 L 78.9 182.9 L 76.91660995483399 183.47148523330688 L 75.6 187.0 L 73.0 184.6 L 68.3 173.3 L 70.3 172.9 L 76.3 171.8 L 82.4 170.7 L 88.7 169.6 L 95.0 168.4 L 96.8 168.09538459777832 L 96.8 148.0 L 74.8 148.0 L 74.8 144.0 L 96.8 144.0 L 96.8 128.0 L 72.7 128.0 L 72.7 124.0 L 96.8 124.0 L 96.8 102.0 L 83.8 102.0 L 83.8 105.0 L 72.8 110.5 L 72.8 69.5 L 83.8 75.0 L 96.8 75.0 L 96.8 58.0 L 94.6 58.0 L 94.6 61.0 L 82.6 67.0 L 82.6 39.0 L 69.3 39.0 L 69.3 35.0 L 82.6 35.0 L 82.6 15.0 L 94.6 17.0 L 97.6 19.0 L 94.6 20.8 L 94.6 35.0 L 109.6 35.0 L 109.6 15.0 L 121.6 17.0 L 124.6 19.0 L 121.6 20.8 L 121.6 35.0 L 126.6 35.0 L 131.1 29.0 L 137.1 35.0 L 137.1 39.0 L 121.6 39.0 L 121.6 60.0 L 109.6 66.0 L 109.6 58.0 L 106.8 58.0 L 106.8 75.0 L 119.8 75.0 L 125.3 70.0 L 135.8 79.0 L 130.8 82.5 L 130.8 104.0 L 119.8 109.5 L 119.8 102.0 L 106.8 102.0 L 106.8 124.0 L 114.71818180084229 124.0 L 122.9 115.0 L 132.9 124.0 L 132.9 128.0 L 106.8 128.0 L 106.8 144.0 L 112.61818180084228 144.0 L 120.8 135.0 L 130.8 144.0 L 130.8 148.0 L 106.8 148.0 L 106.8 166.35074625015258 L 108.2 166.1 L 114.9 165.0 L 121.8 163.9 L 128.9 162.9 L 132.3797375679016 162.5186589241028 L 134.7 158.3 L 139.1 146.3 L 142.5 132.2 L 145.1 115.5 L 146.9 96.0 L 148.2 73.5 L 148.252734375 72.0 L 130.8 72.0 L 130.8 68.0 L 148.393359375 68.0 L 149.1 47.9 L 149.7 18.8 L 149.7302801132202 18.800757026672365 L 149.8 16.5 L 161.7 19.1 L 164.7 21.2 L 161.53985147476197 22.99694719314575 L 160.5 48.3 L 159.3590733528137 68.0 L 175.3 68.0 L 181.3 63.0 L 192.3 72.0 L 187.3 75.0 L 187.1849314689636 75.04794521331787 L 186.9 87.3 L 186.4 102.8 L 186.0 116.7 L 185.5 128.9 L 184.9 139.5 L 184.4 148.5 L 183.8 155.8 L 183.2 161.6 L 182.5 165.9 L 181.4 169.5 L 180.2 171.7 Z M 83.8 79.0 L 83.8 98.0 L 96.8 98.0 L 96.8 79.0 Z M 106.8 79.0 L 106.8 98.0 L 119.8 98.0 L 119.8 79.0 Z M 94.6 39.0 L 94.6 54.0 L 109.6 54.0 L 109.6 39.0 Z " />
</g>
</svg>
