<svg xmlns="http://www.w3.org/2000/svg" xmlns:xlink="http://www.w3.org/1999/xlink" version="1.1" baseProfile="full" viewBox="0 0 200 200" width="200" height="200">
<g fill="black">
<path d="M 65.7 17.9 L 67.8 20.8 L 64.2331109046936 21.550924015045165 L 61.2 29.1 L 56.5 39.9 L 51.5 50.6 L 46.3 61.0 L 40.9 71.1 L 39.81446151733398 73.01907691955566 L 45.7 74.0 L 48.7 76.0 L 45.7 77.8 L 45.7 183.0 L 33.7 189.0 L 33.7 83.60338983535766 L 29.4 90.6 L 23.3 99.9 L 16.7 108.9 L 9.9 117.5 L 8.4 116.4 L 13.6 106.8 L 18.7 97.1 L 23.7 87.3 L 28.6 77.4 L 33.4 67.3 L 37.9 57.0 L 42.3 46.5 L 46.6 35.8 L 50.6 24.9 L 54.4 13.8 L 54.42973680496216 13.810789489746094 L 54.9 12.4 Z M 83.37027025222778 141.0 L 109.5 141.0 L 109.5 116.0 L 84.0 116.0 L 84.0 132.0 L 83.5 139.8 Z M 142.96756753921508 138.0 L 169.0 138.0 L 169.0 116.0 L 143.5 116.0 L 143.5 130.0 L 143.0 137.7 Z M 143.5 92.0 L 143.5 112.0 L 169.0 112.0 L 169.0 92.0 Z M 84.0 92.0 L 84.0 112.0 L 109.5 112.0 L 109.5 92.0 Z M 61.0 64.0 L 118.0 64.0 L 118.0 38.0 L 80.0 38.0 L 80.0 34.0 L 118.0 34.0 L 118.0 12.0 L 130.0 14.0 L 133.0 16.0 L 130.0 17.8 L 130.0 34.0 L 150.0 34.0 L 160.0 24.0 L 172.0 34.0 L 172.0 38.0 L 130.0 38.0 L 130.0 64.0 L 170.8181818008423 64.0 L 179.0 55.0 L 189.0 64.0 L 189.0 68.0 L 61.0 68.0 Z M 120.0 176.7 L 119.3 179.0 L 118.3 181.1 L 116.9 183.1 L 115.1 184.7 L 113.1 186.0 L 110.9 186.8 L 108.6 187.3 L 106.2 187.5 L 106.2 182.0 L 90.8 179.2 L 90.8 176.5 L 106.2 176.5 L 107.2 176.4 L 107.8 176.3 L 108.2 176.1 L 108.5 176.0 L 108.6 175.8 L 108.8 175.6 L 109.0 175.1 L 109.2 174.4 L 109.4 173.3 L 109.5 172.0 L 109.5 145.0 L 82.93783779144287 145.0 L 82.7 147.2 L 81.5 154.1 L 79.9 160.6 L 78.0 166.6 L 75.7 172.2 L 73.1 177.2 L 70.0 181.6 L 66.5 185.5 L 62.6 188.6 L 61.3 187.3 L 63.5 183.2 L 65.4 178.9 L 67.1 174.4 L 68.6 169.5 L 69.9 164.3 L 70.8 158.7 L 71.5 152.6 L 72.0 146.2 L 72.1 139.3 L 72.0 132.0 L 72.0 82.0 L 84.0 88.0 L 109.5 88.0 L 115.0 83.0 L 125.5 92.0 L 120.5 95.5 L 120.5 172.0 L 120.3 174.4 Z M 180.4 175.0 L 179.6 177.4 L 178.3 179.7 L 176.7 181.7 L 174.7 183.3 L 172.4 184.6 L 170.0 185.4 L 167.5 185.8 L 165.0 186.0 L 165.0 180.0 L 151.0 177.0 L 151.0 174.0 L 165.0 174.0 L 166.2 173.9 L 167.1 173.7 L 168.0 173.4 L 168.4 173.0 L 168.7 172.1 L 168.9 171.2 L 169.0 170.0 L 169.0 142.0 L 142.5351351737976 142.0 L 142.2 145.1 L 141.1 152.0 L 139.6 158.4 L 137.7 164.3 L 135.4 169.7 L 132.8 174.6 L 129.8 178.9 L 126.4 182.6 L 122.5 185.5 L 121.4 184.4 L 123.6 180.4 L 125.6 176.3 L 127.4 172.0 L 128.9 167.2 L 130.2 162.1 L 131.2 156.6 L 132.0 150.6 L 132.4 144.2 L 132.6 137.3 L 132.5 130.0 L 132.5 82.5 L 143.5 88.0 L 169.0 88.0 L 175.0 83.0 L 186.0 92.0 L 181.0 96.0 L 181.0 170.0 L 180.8 172.5 Z " />
</g>
</svg>
