<svg xmlns="http://www.w3.org/2000/svg" xmlns:xlink="http://www.w3.org/1999/xlink" version="1.1" baseProfile="full" viewBox="0 0 200 200" width="200" height="200">
<g fill="black">
<path d="M 107.5 57.4 L 104.4 55.0 L 100.9 52.5 L 96.9 50.1 L 92.4 47.6 L 87.5 45.2 L 82.2 42.7 L 76.5 40.1 L 70.3 37.4 L 70.8 35.6 L 77.5 36.5 L 83.9 37.6 L 89.8 39.0 L 95.3 40.6 L 100.5 42.4 L 105.3 44.3 L 107.94640579223633 45.563057327270506 L 109.2 44.8 L 114.2 42.1 L 119.5 39.4 L 125.0 36.5 L 130.9 33.6 L 137.0 30.5 L 143.3 27.2 L 149.70588235855104 23.9 L 27.4 23.9 L 27.4 19.9 L 157.36842107772827 19.9 L 164.0 16.4 L 164.22757110595703 16.87702407836914 L 166.6 14.9 L 177.6 23.9 L 172.6 26.9 L 160.6 31.9 L 160.6 30.95833330154419 L 154.5 33.5 L 147.5 36.4 L 140.7 39.0 L 134.2 41.4 L 127.9 43.6 L 121.9 45.5 L 116.1 47.1 L 112.40796461105347 47.957079601287845 L 113.7 48.7 L 117.4 51.1 L 120.7 53.7 L 122.4 58.0 L 120.7 62.2 L 117.41176471710205 63.5 L 165.0 63.5 L 171.0 58.5 L 182.0 67.5 L 177.0 71.5 L 177.0 181.2 L 165.0 187.2 L 165.0 179.2 L 36.0 179.2 L 36.0 182.2 L 24.0 188.2 L 24.0 57.5 L 36.0 63.5 L 115.41176471710205 63.5 L 112.2 62.2 L 110.1 59.8 Z M 36.0 67.5 L 36.0 175.2 L 165.0 175.2 L 165.0 67.5 Z M 139.7 164.6 L 134.4 160.9 L 129.5 156.8 L 125.13647060394287 152.43647060394287 L 124.6 152.7 L 119.0 155.3 L 113.3 157.7 L 107.6 159.9 L 101.9 162.0 L 96.2 164.0 L 85.0 167.8 L 77.74204988479615 170.00330629348755 L 76.4 173.6 L 73.8 171.2 L 69.1 159.9 L 71.0 159.5 L 76.6 158.4 L 82.3 157.4 L 83.8 157.08421049118041 L 83.8 123.7 L 70.6 123.7 L 70.6 119.7 L 83.8 119.7 L 83.8 70.9 L 95.8 76.9 L 136.7777777671814 76.9 L 143.0 69.9 L 151.0 76.9 L 151.0 80.9 L 95.8 80.9 L 95.8 91.2 L 131.4777777671814 91.2 L 137.7 84.2 L 145.7 91.2 L 145.7 95.2 L 95.8 95.2 L 95.8 105.4 L 132.37777776718139 105.4 L 138.6 98.4 L 146.6 105.4 L 146.6 109.4 L 95.8 109.4 L 95.8 119.7 L 140.61818180084228 119.7 L 148.8 110.7 L 158.8 119.7 L 158.8 123.7 L 111.46666669845581 123.7 L 114.5 127.6 L 118.6 132.7 L 122.7 137.4 L 125.03622045516968 139.68188972473143 L 125.2 139.6 L 128.3 137.6 L 131.3 135.8 L 134.0 134.0 L 136.6 132.4 L 141.1 129.4 L 143.1 128.0 L 144.8 126.6 L 145.5759599685669 126.01803007125855 L 145.5 125.9 L 145.60194177627562 125.99854364395142 L 146.4 125.4 L 147.87917737960817 128.19987144470215 L 154.5 134.6 L 154.7 138.0 L 150.75423727035522 136.35593223571777 L 149.9 136.6 L 147.6 137.3 L 145.1 138.0 L 142.4 138.7 L 139.5 139.4 L 136.5 140.1 L 133.3 140.8 L 129.8 141.4 L 127.25387449264527 141.82435426712036 L 131.3 145.4 L 135.9 148.8 L 140.6 151.8 L 145.5 154.3 L 150.5 156.4 L 155.8 158.2 L 162.9 160.7 L 151.4 170.6 L 145.4 167.9 Z M 80.7 75.8 L 82.6 78.9 L 78.8674970626831 79.3504744529724 L 77.5 82.0 L 74.2 88.0 L 70.7 93.8 L 67.0 99.5 L 63.2 105.1 L 63.13406591415405 105.18901100158692 L 67.4 105.9 L 70.4 107.9 L 67.4 109.7 L 67.4 165.0 L 55.4 171.0 L 55.4 115.20476188659669 L 55.0 115.7 L 50.6 120.8 L 45.9 125.5 L 41.0 130.0 L 39.6 128.9 L 43.0 123.2 L 49.6 112.0 L 52.9 106.3 L 56.0 100.6 L 59.0 94.9 L 61.9 89.0 L 64.6 83.1 L 67.2 77.0 L 69.3272315979004 71.80955495834351 L 69.3 71.8 L 69.52352943420411 71.33058824539185 L 69.7 70.9 L 69.72357139587402 70.91049995422364 L 70.3 69.7 Z M 95.8 123.7 L 95.8 154.68620691299438 L 99.6 153.9 L 105.5 152.6 L 111.4 151.4 L 117.4 150.2 L 122.45438499450684 149.28855352401735 L 120.7 147.2 L 117.0 141.8 L 113.6 136.0 L 110.8 129.7 L 108.82985076904296 123.7 Z " />
</g>
</svg>
