<svg xmlns="http://www.w3.org/2000/svg" xmlns:xlink="http://www.w3.org/1999/xlink" version="1.1" baseProfile="full" viewBox="0 0 200 200" width="200" height="200">
<g fill="black">
<path d="M 165.9 181.7 L 164.1 183.3 L 162.2 184.7 L 160.1 185.9 L 157.9 186.9 L 155.7 187.7 L 153.3 188.2 L 150.9 188.5 L 148.4 188.6 L 148.4 182.6 L 128.4 179.6 L 128.4 176.6 L 148.4 176.6 L 149.9 176.5 L 151.2 176.4 L 152.4 176.1 L 153.6 175.7 L 154.6 175.2 L 155.7 174.6 L 156.6 173.9 L 157.6 173.1 L 158.5 172.1 L 159.4 171.0 L 160.7 168.8 L 162.0 166.0 L 163.2 162.5 L 164.2 158.5 L 165.1 153.8 L 165.7 148.5 L 166.2 142.6 L 166.4 136.2 L 166.46958084106444 131.32934131622315 L 166.3 131.4 L 166.3 123.4 L 104.70377359390258 123.4 L 100.9 128.2 L 96.4 133.2 L 91.81818180084228 137.68636360168458 L 99.1 138.9 L 102.1 140.9 L 99.1 142.7 L 99.1 167.3 L 132.9 167.3 L 142.1645161628723 158.03548383712769 L 142.1 158.0 L 141.0 156.0 L 139.8 154.0 L 138.4 152.1 L 136.8 150.2 L 135.1 148.2 L 133.3 146.3 L 131.3 144.5 L 129.2 142.6 L 127.90653467178345 141.4752474784851 L 127.2 142.8 L 124.5 147.0 L 121.4 150.9 L 118.1 154.5 L 114.5 157.8 L 110.6 160.7 L 106.4 163.2 L 101.9 165.3 L 100.9 163.8 L 104.2 160.4 L 107.2 156.9 L 110.0 153.4 L 112.4 149.8 L 114.7 146.1 L 116.6 142.3 L 118.3 138.4 L 119.7 134.3 L 120.9 130.0 L 121.59243574142457 126.61475868225098 L 121.5 126.6 L 122.2 123.9 L 133.4 128.5 L 135.8 131.2 L 132.0923607826233 132.34599752426146 L 131.7 133.5 L 129.6 138.3 L 129.41727447509766 138.6426103591919 L 131.0 139.0 L 134.0 139.9 L 136.8 140.9 L 139.5 142.2 L 142.2 143.6 L 144.7 145.1 L 147.1 146.8 L 149.4 148.7 L 151.6 150.7 L 152.7 155.1 L 150.5 159.1 L 146.31538457870482 160.14615383148194 L 154.9 167.3 L 154.9 171.3 L 99.1 171.3 L 99.1 183.3 L 87.1 189.3 L 87.1 141.95882349014283 L 86.5 142.5 L 81.1 146.8 L 75.4 150.7 L 69.3 154.3 L 68.2 152.8 L 73.0 147.8 L 77.5 142.8 L 81.9 137.8 L 86.0 132.8 L 89.9 127.7 L 93.5 122.5 L 96.9 117.3 L 99.9 111.9 L 102.8 106.4 L 103.96071424484253 103.8 L 97.7 103.8 L 97.7 106.8 L 85.7 112.8 L 85.7 51.4 L 97.7 57.4 L 152.4 57.4 L 158.4 52.4 L 169.4 61.4 L 164.4 65.4 L 164.4 105.8 L 152.4 111.8 L 152.4 103.8 L 112.434375 103.8 L 116.1 106.1 L 117.9 109.2 L 114.09023170471191 109.52842826843262 L 112.7 111.9 L 109.1 117.5 L 107.69259262084961 119.4 L 166.3 119.4 L 172.3 114.4 L 183.3 123.4 L 178.4296757698059 126.322194480896 L 178.5 129.1 L 178.4 136.4 L 178.2 143.3 L 177.7 149.7 L 176.9 155.6 L 176.0 161.0 L 174.7 165.9 L 173.2 170.4 L 171.4 174.4 L 169.1 178.0 L 167.6 179.9 Z M 68.8 18.0 L 70.9 21.0 L 67.26430969238281 21.626843166351318 L 64.1 29.1 L 59.1 40.0 L 53.9 50.7 L 48.5 61.0 L 42.9 71.2 L 41.7981481552124 72.99969139099122 L 47.8 74.0 L 50.8 76.0 L 47.8 77.8 L 47.8 183.0 L 35.8 189.0 L 35.8 82.73114757537842 L 30.8 90.6 L 24.3 99.9 L 17.5 108.9 L 10.3 117.5 L 8.9 116.4 L 14.4 106.8 L 19.8 97.1 L 25.1 87.3 L 30.3 77.3 L 35.4 67.2 L 40.2 56.9 L 44.8 46.4 L 49.3 35.7 L 53.5 24.8 L 57.22771806716919 14.707885265350342 L 57.2 14.7 L 58.1 12.4 Z M 97.7 82.6 L 97.7 99.8 L 105.85 99.8 L 105.9 99.7 L 106.059375 99.8 L 152.4 99.8 L 152.4 82.6 Z M 97.7 61.4 L 97.7 78.6 L 152.4 78.6 L 152.4 61.4 Z M 151.9 15.0 L 154.9 17.0 L 151.9 18.8 L 151.9 32.0 L 164.9 32.0 L 174.9 22.0 L 186.9 32.0 L 186.9 36.0 L 151.9 36.0 L 151.9 50.2 L 139.9 56.2 L 139.9 36.0 L 113.0 36.0 L 113.0 50.2 L 101.0 56.2 L 101.0 36.0 L 66.0 36.0 L 66.0 32.0 L 101.0 32.0 L 101.0 13.0 L 113.0 15.0 L 116.0 17.0 L 113.0 18.8 L 113.0 32.0 L 139.9 32.0 L 139.9 13.0 Z " />
</g>
</svg>
