<svg xmlns="http://www.w3.org/2000/svg" xmlns:xlink="http://www.w3.org/1999/xlink" version="1.1" baseProfile="full" viewBox="0 0 200 200" width="200" height="200">
<g fill="black">
<path d="M 76.8 18.2 L 78.9 21.2 L 75.22000665664673 21.707585334777832 L 71.8 29.3 L 66.4 40.2 L 60.9 50.8 L 55.0 61.2 L 48.9 71.3 L 47.8547945022583 72.94246578216553 L 54.2 74.0 L 57.2 76.0 L 54.2 77.8 L 54.2 183.0 L 42.2 189.0 L 42.2 81.77575759887695 L 36.0 90.7 L 29.1 100.0 L 21.8 109.0 L 14.1 117.5 L 12.7 116.4 L 18.7 106.7 L 24.6 97.0 L 30.5 87.2 L 36.1 77.2 L 41.6 67.1 L 46.8 56.8 L 51.9 46.3 L 56.7 35.6 L 61.4 24.7 L 65.43831396102905 14.512435245513917 L 65.4 14.5 L 66.3 12.3 Z M 118.23007516860962 96.0 L 122.2 108.0 L 126.9 120.1 L 132.0 131.0 L 137.5 140.7 L 141.64427642822267 146.57105827331543 L 146.0 140.2 L 151.8 129.6 L 156.7 118.1 L 160.7 105.9 L 162.95 96.0 Z M 118.89510488510132 92.0 L 163.6 92.0 L 169.6 87.0 L 180.6 96.0 L 175.6 99.0 L 174.2794297218323 99.55023765563965 L 171.6 109.1 L 166.7 122.2 L 160.7 134.2 L 153.8 145.3 L 147.35930910110474 153.53430099487304 L 150.0 156.5 L 157.0 162.7 L 164.4 167.7 L 172.4 171.7 L 180.8 174.7 L 188.4 177.1 L 176.8 187.2 L 167.0 183.1 L 158.0 177.7 L 149.9 171.1 L 142.5 163.4 L 140.55827569961548 160.80107679367066 L 136.9 164.5 L 127.0 172.5 L 116.2 179.4 L 104.4 185.2 L 91.7 189.8 L 91.1 188.1 L 102.7 181.8 L 113.3 174.9 L 123.0 167.3 L 131.6 159.0 L 135.70992708206177 154.19618911743163 L 130.3 144.8 L 125.4 134.0 L 121.3 122.1 L 118.2 109.1 L 117.01873760223388 101.58287572860718 L 116.8 102.7 L 113.1 116.3 L 108.5 129.1 L 103.0 141.2 L 96.6 152.6 L 89.4 163.2 L 81.2 172.9 L 72.1 181.7 L 62.1 189.6 L 60.9 188.3 L 69.4 179.1 L 77.1 169.5 L 84.0 159.4 L 90.0 148.8 L 95.3 137.7 L 99.8 125.9 L 103.4 113.5 L 106.3 100.5 L 108.3 86.8 L 109.6 72.5 L 110.59137935638428 60.0 L 81.1 60.0 L 81.1 56.0 L 110.90862064361572 56.0 L 114.2 14.5 L 126.1 17.4 L 128.9 19.7 L 125.82359676361084 20.76490879058838 L 122.9292857170105 56.0 L 164.9 56.0 L 174.9 46.0 L 186.9 56.0 L 186.9 60.0 L 122.60071430206298 60.0 L 121.5 73.4 L 119.6 88.4 Z M 158.5 37.6 L 157.0 35.8 L 155.3 33.8 L 153.3 31.9 L 151.0 30.0 L 148.4 28.0 L 145.6 26.0 L 142.6 23.9 L 139.2 22.1 L 139.8 20.4 L 143.6 21.4 L 147.3 22.2 L 150.9 23.1 L 154.2 24.2 L 157.3 25.5 L 160.3 26.8 L 163.0 28.4 L 165.6 30.1 L 168.0 31.9 L 170.2 33.9 L 171.4 38.3 L 169.1 42.3 L 164.7 43.5 L 160.7 41.2 L 159.7 39.4 Z " />
</g>
</svg>
