<svg xmlns="http://www.w3.org/2000/svg" xmlns:xlink="http://www.w3.org/1999/xlink" version="1.1" baseProfile="full" viewBox="0 0 200 200" width="200" height="200">
<g fill="black">
<path d="M 73.0 18.1 L 75.0 21.0 L 71.47880964279175 21.617752647399904 L 68.2 29.2 L 63.1 40.0 L 57.8 50.7 L 52.3 61.1 L 46.6 71.2 L 45.51743116378784 72.98623857498168 L 51.6 74.0 L 54.6 76.0 L 51.6 77.8 L 51.6 183.0 L 39.6 189.0 L 39.6 82.62380952835083 L 34.3 90.7 L 27.7 100.0 L 20.8 108.9 L 13.5 117.5 L 12.1 116.4 L 17.7 106.8 L 28.7 87.2 L 34.0 77.3 L 39.1 67.2 L 44.0 56.9 L 48.8 46.4 L 53.3 35.7 L 57.6 24.8 L 61.45336675643921 14.616102027893067 L 61.4 14.6 L 62.3 12.4 Z M 159.8 181.6 L 150.4 177.6 L 141.8 173.0 L 134.58313283920288 168.06695156097413 L 125.6 172.8 L 115.5 176.8 L 104.7 180.0 L 93.0 182.3 L 80.6 183.8 L 80.3 182.0 L 92.2 178.7 L 103.1 174.9 L 113.1 170.7 L 122.2 166.0 L 127.72426776885986 162.45355644226075 L 126.7 161.6 L 120.4 154.8 L 114.8 147.4 L 110.2 139.3 L 106.92528734207153 131.6 L 90.4 131.6 L 90.4 127.6 L 157.7 127.6 L 158.04623651504517 127.31146955490112 L 158.2 127.0 L 158.33990669250488 127.06674442291259 L 163.7 122.6 L 174.7 131.6 L 169.7 134.6 L 167.0444867134094 135.70646390914916 L 164.0 140.9 L 158.0 148.8 L 151.1 156.0 L 143.4761989593506 162.23765544891359 L 146.7 164.0 L 154.8 167.5 L 163.5 170.4 L 172.7 172.6 L 182.5 174.2 L 192.2 175.8 L 180.4 187.3 L 169.8 184.8 Z M 109.48082189559936 131.6 L 113.7 137.1 L 119.5 143.8 L 125.6 149.8 L 132.1 155.2 L 135.00722122192383 157.12449855804442 L 137.6 155.1 L 144.0 148.9 L 149.6 142.1 L 154.3 134.9 L 155.9291139602661 131.6 Z M 81.9 109.9 L 127.0 109.9 L 127.0 93.1 L 92.0 93.1 L 92.0 89.1 L 127.0 89.1 L 127.0 73.8 L 87.0 73.8 L 87.0 69.8 L 113.2290322303772 69.8 L 111.1 67.8 L 111.2 66.9 L 111.0 65.8 L 110.7 64.5 L 110.1 63.0 L 109.4 61.5 L 108.4 59.8 L 107.2 58.0 L 105.9 56.1 L 104.4 54.0 L 102.4 52.3 L 103.18571424484253 51.2 L 78.8 51.2 L 78.8 47.2 L 116.7 47.2 L 116.7 13.7 L 127.7 15.7 L 130.5 17.7 L 127.7 19.45 L 127.7 47.2 L 138.2 47.2 L 138.2 13.7 L 149.2 15.7 L 151.9 17.7 L 149.2 19.423404216766357 L 149.2 47.2 L 155.06363639831542 47.2 L 156.1 45.3 L 157.5 41.8 L 159.0 38.6 L 160.4 35.4 L 161.7 32.4 L 162.9 29.5 L 165.1 23.9 L 166.0 21.3 L 166.49949235916137 19.73908634185791 L 166.4 19.7 L 166.7111110687256 19.077777767181395 L 166.8 18.8 L 166.8401487350464 18.819702625274658 L 167.4 17.7 L 177.6 24.1 L 179.4 27.2 L 175.20368661880494 27.56175117492676 L 174.2 28.9 L 170.4 33.9 L 168.2 36.5 L 166.0 39.0 L 163.6 41.6 L 161.1 44.3 L 158.3 46.9 L 158.0214285850525 47.2 L 165.1 47.2 L 175.1 37.2 L 187.1 47.2 L 187.1 51.2 L 158.09493675231934 51.2 L 164.2 56.5 L 165.4 59.9 L 160.83565216064454 59.42782611846924 L 159.2 60.7 L 157.3 62.2 L 155.3 63.8 L 153.2 65.4 L 150.9 67.0 L 148.6 68.7 L 146.91764707565306 69.8 L 162.01818180084229 69.8 L 170.2 60.8 L 180.2 69.8 L 180.2 73.8 L 139.0 73.8 L 139.0 89.1 L 155.71818180084227 89.1 L 163.9 80.1 L 173.9 89.1 L 173.9 93.1 L 139.0 93.1 L 139.0 109.9 L 167.71818180084227 109.9 L 175.9 100.9 L 185.9 109.9 L 185.9 113.9 L 81.9 113.9 Z M 105.7 52.3 L 108.1 53.2 L 110.4 54.2 L 112.5 55.3 L 114.5 56.4 L 116.3 57.6 L 117.9 58.8 L 119.5 60.1 L 120.9 61.5 L 122.2 63.1 L 122.2 67.6 L 120.0666666984558 69.8 L 143.45 69.8 L 144.2 68.8 L 145.7 66.1 L 147.1 63.6 L 148.4 61.2 L 149.7 59.0 L 150.9 56.8 L 152.0 54.8 L 153.8 51.2 L 103.89285717010497 51.2 Z M 98.1 37.5 L 97.8 35.4 L 97.4 33.4 L 96.9 31.2 L 96.2 29.0 L 95.3 26.8 L 94.3 24.5 L 93.1 22.1 L 91.5 19.9 L 92.7 18.7 L 94.9 20.4 L 97.2 22.0 L 99.4 23.7 L 101.4 25.6 L 103.3 27.6 L 105.0 29.7 L 106.5 31.9 L 107.8 34.3 L 109.0 36.7 L 110.0 39.3 L 108.9 43.8 L 105.1 46.3 L 100.7 45.2 L 98.2 41.4 L 98.2 39.4 Z " />
</g>
</svg>
