<svg xmlns="http://www.w3.org/2000/svg" xmlns:xlink="http://www.w3.org/1999/xlink" version="1.1" baseProfile="full" viewBox="0 0 200 200" width="200" height="200">
<g fill="black">
<path d="M 50.9 17.2 L 53.4 19.9 L 49.91046953201294 21.021634769439697 L 48.0 28.4 L 44.9 39.2 L 41.7 49.9 L 38.3 60.3 L 34.8 70.5 L 33.77971477508545 73.22995243072509 L 38.4 74.0 L 41.4 76.0 L 38.4 77.8 L 38.4 183.0 L 26.4 189.0 L 26.4 92.16341466903687 L 23.2 99.5 L 18.8 108.5 L 14.2 117.3 L 12.5 116.6 L 15.3 107.1 L 18.2 97.6 L 21.1 87.9 L 23.9 78.0 L 26.7 67.9 L 29.4 57.7 L 32.0 47.2 L 34.5 36.6 L 36.9 25.7 L 38.99029808044433 15.612039756774902 L 38.9 15.6 L 39.6 12.8 Z M 71.3 176.5 L 83.3 176.5 L 84.3 176.4 L 84.9 176.3 L 85.3 176.1 L 85.6 176.0 L 85.7 175.8 L 85.9 175.6 L 86.1 175.1 L 86.3 174.4 L 86.5 173.3 L 86.6 172.0 L 86.6 108.0 L 62.763333320617676 108.0 L 62.4 118.9 L 61.6 130.0 L 60.5 140.2 L 59.1 149.7 L 57.3 158.3 L 55.0 166.0 L 52.4 172.9 L 49.4 178.8 L 45.9 183.7 L 41.9 187.5 L 40.5 186.4 L 42.6 181.7 L 44.5 176.5 L 46.2 170.7 L 47.7 164.1 L 48.9 156.6 L 49.9 148.4 L 50.5 139.3 L 50.9 129.4 L 51.0 118.6 L 50.81724138259888 108.0 L 39.6 108.0 L 39.6 104.0 L 50.8 104.0 L 50.8 41.0 L 62.8 47.0 L 63.58888893127441 47.0 L 63.9 44.9 L 64.0 41.9 L 64.3 38.9 L 64.5 35.8 L 64.7 32.6 L 65.0 29.3 L 65.2 25.9 L 65.4 22.4 L 65.6 18.8 L 65.74580154418945 16.102671718597414 L 65.7 16.1 L 65.77727270126343 15.520454502105713 L 65.8 15.1 L 65.83271026611328 15.104672908782959 L 66.1 13.1 L 77.7 16.8 L 80.4 19.2 L 76.64457406997681 20.79953327178955 L 75.7 24.2 L 74.6 27.7 L 73.5 31.1 L 72.3 34.3 L 71.0 37.4 L 69.6 40.3 L 68.2 43.1 L 66.6 45.7 L 65.9 47.0 L 86.6 47.0 L 92.1 42.0 L 102.6 51.0 L 97.6 54.5 L 97.6 104.0 L 100.5 104.0 L 100.81744184494019 103.57674417495727 L 100.6 103.3 L 103.53636360168457 99.9515151977539 L 105.0 98.0 L 105.13196725845337 98.13196725845337 L 106.3 96.8 L 111.5 89.9 L 114.1 85.89166669845581 L 114.1 83.3 L 115.36938772201538 83.9346939086914 L 116.3 82.5 L 120.6 74.6 L 123.67619047164916 67.8 L 101.6 67.8 L 101.6 63.8 L 125.29670333862305 63.8 L 127.8 57.1 L 130.7 47.5 L 130.97961168289186 46.3 L 117.3 46.3 L 117.3 42.625 L 116.6 43.3 L 113.7 45.8 L 110.5 48.2 L 107.5 50.5 L 106.2 49.2 L 108.3 46.1 L 110.2 42.9 L 113.8 36.5 L 115.4 33.2 L 117.0 30.0 L 118.5 26.7 L 119.9 23.3 L 121.1 19.9 L 121.98205127716065 17.327350425720216 L 121.9 17.3 L 122.8 15.1 L 133.3 21.1 L 135.25061731338502 24.123456764221192 L 136.4 14.6 L 136.6 12.6 L 148.3 16.1 L 151.0 18.5 L 147.6296290397644 19.96261386871338 L 146.2 28.2 L 143.5 39.6 L 142.7 42.3 L 149.4181818008423 42.3 L 157.6 33.3 L 167.6 42.3 L 167.6 46.3 L 152.209375 46.3 L 154.6 51.4 L 157.4 57.4 L 160.3 63.2 L 160.63333330154418 63.8 L 165.11818180084228 63.8 L 173.3 54.8 L 183.3 63.8 L 183.3 67.8 L 162.8555555343628 67.8 L 163.3 68.6 L 166.5 73.7 L 169.9 78.4 L 173.5 82.8 L 177.2 87.0 L 181.2 90.7 L 185.3 94.2 L 187.3 96.0 L 176.5 104.1 L 172.2 99.5 L 170.8 97.78500003814698 L 170.8 152.4 L 158.8 158.4 L 158.8 152.4 L 126.1 152.4 L 114.1 158.4 L 114.1 94.6880597114563 L 108.9 99.5 L 107.50645160675049 100.50645160675049 L 111.0 104.0 L 111.0 108.0 L 97.6 108.0 L 97.6 172.0 L 97.4 174.4 L 97.1 176.7 L 96.4 179.0 L 95.4 181.1 L 94.0 183.1 L 92.2 184.7 L 90.2 186.0 L 88.0 186.8 L 85.7 187.3 L 83.3 187.5 L 83.3 182.0 L 71.3 179.2 Z M 138.6 165.5 L 139.8 168.9 L 135.54080419540406 168.53282794952392 L 133.7 170.3 L 130.9 172.5 L 127.9 174.8 L 124.6 176.9 L 121.2 179.1 L 117.5 181.1 L 113.5 183.1 L 109.3 185.0 L 105.0 187.0 L 104.0 185.4 L 107.7 182.4 L 110.9 179.3 L 114.0 176.4 L 116.9 173.6 L 119.6 170.8 L 122.0 168.2 L 124.1 165.6 L 126.0 163.1 L 127.6 160.7 L 128.48215618133545 159.25074348449706 L 128.4 159.2 L 129.5 157.7 Z M 167.2 179.8 L 165.8 177.7 L 164.0 175.5 L 162.0 173.3 L 159.7 171.1 L 157.1 168.9 L 154.2 166.7 L 151.1 164.4 L 147.5 162.4 L 148.2 160.7 L 152.2 161.8 L 156.1 162.8 L 159.8 164.1 L 163.3 165.5 L 166.6 167.1 L 169.6 168.9 L 172.4 170.8 L 175.1 173.0 L 177.4 175.3 L 179.6 177.9 L 180.2 182.4 L 177.5 186.1 L 172.9 186.7 L 169.2 184.0 L 168.3 181.9 Z M 79.1 119.0 L 81.8 121.0 L 79.1 122.72340421676635 L 79.1 164.2 L 68.1 169.7 L 68.1 117.0 Z M 126.1 132.7 L 126.1 148.4 L 158.8 148.4 L 158.8 132.7 Z M 126.1 113.0 L 126.1 128.7 L 158.8 128.7 L 158.8 113.0 Z M 126.1 93.3 L 126.1 109.0 L 158.8 109.0 L 158.8 93.3 Z M 62.8 51.0 L 62.8 104.0 L 86.6 104.0 L 86.6 51.0 Z M 70.1 84.5 L 70.1 82.0 L 70.0 79.4 L 69.8 76.7 L 69.5 74.0 L 68.7 68.2 L 68.2 65.2 L 67.3 62.2 L 68.9 61.5 L 70.6 64.2 L 72.5 66.7 L 74.1 69.3 L 75.7 72.0 L 77.0 74.6 L 78.3 77.4 L 79.3 80.1 L 80.3 82.9 L 81.1 85.7 L 81.8 88.5 L 80.4 92.8 L 76.3 94.9 L 72.0 93.5 L 69.9 89.4 L 70.0 87.0 Z M 133.0361701965332 67.8 L 132.1 69.8 L 127.2 78.4 L 121.7 86.2 L 121.15911331176758 86.82955665588379 L 126.1 89.3 L 158.8 89.3 L 162.602453994751 86.13128833770752 L 161.3 84.0 L 158.4 78.2 L 155.8 72.2 L 154.26349210739136 67.8 Z M 141.5148148536682 46.3 L 140.3 50.4 L 136.5 60.4 L 134.90851068496704 63.8 L 153.0184615135193 63.8 L 151.8 59.4 L 150.6 52.6 L 149.9875 46.3 Z M 167.0 38.1 L 166.1 35.5 L 165.1 32.8 L 164.0 30.3 L 162.7 27.7 L 161.4 25.2 L 159.9 22.6 L 158.4 20.1 L 156.4 17.8 L 157.6 16.4 L 160.1 18.2 L 162.9 19.8 L 165.4 21.6 L 167.9 23.7 L 170.2 25.9 L 172.3 28.3 L 174.4 30.8 L 176.3 33.5 L 178.1 36.3 L 179.8 39.3 L 179.6 43.9 L 176.3 47.1 L 171.7 46.9 L 168.5 43.6 L 167.9 40.8 Z M 131.31026697158813 24.681519508361816 L 131.3 24.7 L 129.2 28.1 L 126.9 31.5 L 124.5 34.6 L 122.0 37.7 L 119.4 40.6 L 117.63703699111939 42.3 L 131.91165046691896 42.3 L 133.1 37.2 L 135.0 26.2 L 135.2405128479004 24.207179450988768 Z " />
</g>
</svg>
