<svg xmlns="http://www.w3.org/2000/svg" xmlns:xlink="http://www.w3.org/1999/xlink" version="1.1" baseProfile="full" viewBox="0 0 200 200" width="200" height="200">
<g fill="black">
<path d="M 121.6 172.0 L 141.6 172.0 L 142.8 171.9 L 143.7 171.7 L 144.6 171.4 L 145.0 171.0 L 145.3 170.1 L 145.5 169.2 L 145.6 168.0 L 145.6 100.0 L 15.1 100.0 L 15.1 96.0 L 163.2 96.0 L 173.2 86.0 L 185.2 96.0 L 185.2 100.0 L 157.6 100.0 L 157.6 168.0 L 157.4 170.5 L 157.0 173.0 L 156.2 175.4 L 154.9 177.7 L 153.3 179.7 L 151.3 181.4 L 149.0 182.6 L 146.6 183.4 L 144.1 183.8 L 141.6 184.0 L 141.6 178.0 L 121.6 175.0 Z M 50.6 119.5 L 109.3 119.5 L 115.3 114.5 L 126.3 123.5 L 121.3 127.5 L 121.3 161.4 L 109.3 167.4 L 109.3 155.4 L 50.6 155.4 L 50.6 167.4 L 38.6 173.4 L 38.6 113.5 Z M 50.6 123.5 L 50.6 151.4 L 109.3 151.4 L 109.3 123.5 Z M 141.9 69.2 L 132.1 65.7 L 123.6 61.7 L 116.3 57.2 L 110.5 52.2 L 106.0 46.6 L 106.0 87.5 L 94.0 93.5 L 94.0 51.24137935638428 L 91.2 53.8 L 84.1 58.3 L 75.7 62.1 L 66.1 65.2 L 55.2 67.7 L 43.0 69.6 L 29.4 70.7 L 29.2 68.9 L 42.3 65.8 L 53.9 62.5 L 64.0 59.0 L 72.7 55.1 L 79.7 51.0 L 85.3 46.6 L 89.3 42.1 L 91.8 37.6 L 93.2 32.9 L 93.5 27.9 L 93.5 25.5 L 94.0 25.6 L 94.0 9.9 L 106.0 11.9 L 109.0 13.9 L 106.0 15.7 L 106.0 28.23333330154419 L 108.5 29.9 L 106.0 31.4 L 106.0 33.2625 L 106.1 33.6 L 108.5 38.2 L 111.8 42.2 L 116.0 45.9 L 121.4 49.3 L 128.0 52.5 L 135.8 55.3 L 145.0 57.8 L 155.5 59.9 L 167.3 61.7 L 177.1 63.2 L 165.2 74.8 L 152.9 72.2 Z " />
</g>
</svg>
