<svg xmlns="http://www.w3.org/2000/svg" xmlns:xlink="http://www.w3.org/1999/xlink" version="1.1" baseProfile="full" viewBox="0 0 200 200" width="200" height="200">
<g fill="black">
<path d="M 66.9 18.0 L 69.0 20.9 L 65.4165542602539 21.579619026184083 L 62.3 29.1 L 57.5 40.0 L 52.4 50.6 L 47.2 61.0 L 41.7 71.1 L 40.57914113998413 73.01319017410279 L 46.5 74.0 L 49.5 76.0 L 46.5 77.8 L 46.5 183.0 L 34.5 189.0 L 34.5 83.23999996185303 L 29.9 90.6 L 23.7 99.9 L 17.0 108.9 L 10.0 117.5 L 8.6 116.4 L 13.9 106.8 L 19.1 97.1 L 24.2 87.3 L 29.3 77.4 L 34.1 67.2 L 38.8 56.9 L 43.3 46.5 L 47.6 35.8 L 51.7 24.9 L 55.27622947692871 14.721500587463378 L 55.2 14.7 L 56.1 12.4 Z M 165.5 169.1 L 159.7 164.6 L 154.2 159.8 L 149.0 154.8 L 144.1 149.5 L 139.4 143.9 L 135.1 138.1 L 131.2 132.0 L 130.5 130.62121210098266 L 130.5 181.3 L 118.5 187.3 L 118.5 138.2800000190735 L 116.5 141.0 L 111.1 147.4 L 105.3 153.4 L 99.1 159.0 L 92.6 164.1 L 85.7 168.9 L 78.4 173.2 L 70.7 176.9 L 62.6 180.1 L 61.8 178.4 L 68.8 173.6 L 75.5 168.6 L 81.8 163.6 L 87.7 158.3 L 93.3 152.8 L 98.5 147.0 L 103.3 141.0 L 107.8 134.7 L 111.9 128.1 L 112.9 126.1 L 65.8 126.1 L 65.8 122.1 L 118.5 122.1 L 118.5 108.1 L 130.5 110.1 L 133.5 112.1 L 130.5 113.9 L 130.5 122.1 L 161.1 122.1 L 171.1 112.1 L 183.1 122.1 L 183.1 126.1 L 131.06800003051757 126.1 L 134.5 129.4 L 139.6 134.3 L 144.7 139.0 L 149.9 143.5 L 155.2 147.8 L 160.7 151.9 L 166.3 155.7 L 172.1 159.4 L 178.0 162.8 L 184.1 166.0 L 188.9 168.6 L 177.7 177.5 L 171.5 173.4 Z M 142.5 63.0 L 167.2 63.0 L 173.2 58.0 L 184.2 67.0 L 179.2 71.0 L 179.2 100.9 L 167.2 106.9 L 167.2 96.9 L 142.5 96.9 L 142.5 103.9 L 130.5 109.9 L 130.5 57.0 Z M 81.7 63.0 L 106.4 63.0 L 112.4 58.0 L 123.4 67.0 L 118.4 71.0 L 118.4 100.9 L 106.4 106.9 L 106.4 96.9 L 81.7 96.9 L 81.7 103.9 L 69.7 109.9 L 69.7 57.0 Z M 142.5 81.5 L 142.5 92.9 L 167.2 92.9 L 167.2 81.5 Z M 81.7 81.5 L 81.7 92.9 L 106.4 92.9 L 106.4 81.5 Z M 142.5 67.0 L 142.5 77.5 L 167.2 77.5 L 167.2 67.0 Z M 81.7 67.0 L 81.7 77.5 L 106.4 77.5 L 106.4 67.0 Z M 98.0 19.0 L 150.9 19.0 L 156.9 14.0 L 167.9 23.0 L 162.9 27.0 L 162.9 52.9 L 150.9 58.9 L 150.9 52.9 L 98.0 52.9 L 86.0 58.9 L 86.0 13.0 Z M 98.0 37.5 L 98.0 48.9 L 150.9 48.9 L 150.9 37.5 Z M 98.0 23.0 L 98.0 33.5 L 150.9 33.5 L 150.9 23.0 Z " />
</g>
</svg>
