<svg xmlns="http://www.w3.org/2000/svg" xmlns:xlink="http://www.w3.org/1999/xlink" version="1.1" baseProfile="full" viewBox="0 0 200 200" width="200" height="200">
<g fill="black">
<path d="M 68.1 17.9 L 70.2 20.9 L 66.58101396560669 21.598400783538818 L 63.5 29.1 L 58.8 39.9 L 53.8 50.6 L 48.6 61.0 L 43.2 71.1 L 42.09677419662476 73.01612901687622 L 48.0 74.0 L 51.0 76.0 L 48.0 77.8 L 48.0 183.0 L 36.0 189.0 L 36.0 83.44067792892456 L 31.6 90.6 L 25.4 99.9 L 18.8 108.9 L 11.9 117.5 L 10.4 116.4 L 15.7 106.8 L 20.8 97.1 L 25.9 87.3 L 30.8 77.4 L 35.6 67.3 L 40.2 57.0 L 44.7 46.5 L 48.9 35.8 L 52.9 24.9 L 56.8 13.8 L 56.82973680496216 13.810789489746094 L 57.3 12.4 Z M 95.7 129.7 L 160.2 129.7 L 166.2 124.7 L 177.2 133.7 L 172.2 137.7 L 172.2 179.2 L 160.2 185.2 L 160.2 175.2 L 95.7 175.2 L 95.7 182.2 L 83.7 188.2 L 83.7 123.7 Z M 95.7 133.7 L 95.7 171.2 L 160.2 171.2 L 160.2 133.7 Z M 69.0 102.0 L 119.0 102.0 L 119.0 67.0 L 78.0 67.0 L 78.0 63.0 L 119.0 63.0 L 119.0 34.4807692527771 L 118.1 35.0 L 112.6 37.8 L 106.9 40.4 L 101.0 42.7 L 94.9 44.8 L 88.6 46.5 L 82.0 47.9 L 75.2 48.8 L 74.7 47.1 L 80.9 44.2 L 86.8 41.4 L 92.5 38.7 L 97.9 35.8 L 103.1 32.8 L 108.0 29.7 L 112.7 26.5 L 117.2 23.2 L 121.3 19.7 L 124.56394052505493 16.76245355606079 L 124.5 16.7 L 125.4 15.9 L 133.1 25.1 L 133.6 28.7 L 131.0 27.86428575515747 L 131.0 63.0 L 151.0 63.0 L 161.0 53.0 L 173.0 63.0 L 173.0 67.0 L 131.0 67.0 L 131.0 102.0 L 162.0 102.0 L 172.0 92.0 L 184.0 102.0 L 184.0 106.0 L 69.0 106.0 Z " />
</g>
</svg>
