<svg xmlns="http://www.w3.org/2000/svg" xmlns:xlink="http://www.w3.org/1999/xlink" version="1.1" baseProfile="full" viewBox="0 0 200 200" width="200" height="200">
<g fill="black">
<path d="M 135.0 15.0 L 138.0 17.0 L 135.0 18.8 L 135.0 27.0 L 156.3 27.0 L 162.3 22.0 L 173.3 31.0 L 168.3 35.0 L 168.3 46.0 L 170.4181818008423 46.0 L 178.6 37.0 L 188.6 46.0 L 188.6 50.0 L 168.3 50.0 L 168.3 68.0 L 156.3 74.0 L 156.3 68.0 L 135.0 68.0 L 135.0 82.0 L 159.01818180084229 82.0 L 167.2 73.0 L 177.2 82.0 L 177.2 86.0 L 135.0 86.0 L 135.0 100.0 L 166.6 100.0 L 176.6 90.0 L 188.6 100.0 L 188.6 104.0 L 135.0 104.0 L 135.0 185.0 L 123.0 191.0 L 123.0 162.57931032180787 L 120.43979711532593 162.35860319137572 L 119.5 163.4 L 115.4 167.2 L 110.9 170.5 L 106.1 173.5 L 101.0 176.1 L 95.6 178.3 L 89.9 180.1 L 83.9 181.5 L 77.5 182.5 L 70.9 182.8 L 70.6 181.1 L 76.6 178.8 L 82.3 176.4 L 87.6 174.0 L 92.5 171.4 L 96.9 168.7 L 101.0 165.8 L 104.7 162.6 L 108.0 159.3 L 111.0 155.9 L 113.02638578414917 153.01629714965821 L 113.0 153.0 L 113.3581395149231 152.54418601989747 L 113.6 152.2 L 113.61807060241699 152.21336469650268 L 114.1 151.6 L 123.0 159.1307692527771 L 123.0 104.0 L 70.0 104.0 L 70.0 100.0 L 123.0 100.0 L 123.0 86.0 L 79.3 86.0 L 79.3 82.0 L 123.0 82.0 L 123.0 68.0 L 86.4 68.0 L 86.4 64.0 L 123.0 64.0 L 123.0 50.0 L 71.4 50.0 L 71.4 46.0 L 123.0 46.0 L 123.0 31.0 L 87.8 31.0 L 87.8 27.0 L 123.0 27.0 L 123.0 13.0 Z M 64.4 17.8 L 66.6 20.7 L 63.01731061935425 21.454250431060792 L 60.2 28.9 L 55.8 39.8 L 51.2 50.4 L 46.4 60.8 L 41.3 71.0 L 40.22136220932007 73.05356035232543 L 45.9 74.0 L 48.9 76.0 L 45.9 77.8 L 45.9 183.0 L 33.9 189.0 L 33.9 84.73999996185303 L 30.6 90.5 L 24.8 99.8 L 18.7 108.8 L 12.2 117.4 L 10.7 116.5 L 15.4 106.9 L 20.1 97.2 L 24.7 87.4 L 29.3 77.5 L 33.6 67.4 L 37.9 57.1 L 41.9 46.6 L 45.8 35.9 L 49.5 25.1 L 52.71504068374634 14.903728008270264 L 52.7 14.9 L 53.5 12.5 Z M 118.9 137.4 L 120.0 140.9 L 116.02769107818604 140.35209531784056 L 115.3 141.1 L 111.5 144.5 L 107.3 147.4 L 103.0 150.1 L 98.3 152.3 L 93.4 154.3 L 88.3 155.8 L 83.0 156.9 L 77.4 157.6 L 71.6 157.8 L 71.3 156.1 L 76.6 154.0 L 81.5 151.9 L 86.1 149.7 L 90.4 147.4 L 94.3 144.9 L 97.9 142.3 L 101.2 139.5 L 104.2 136.5 L 107.0 133.4 L 108.8241530418396 130.81578321456908 L 108.8 130.8 L 109.22857141494751 130.24285717010497 L 109.4 130.0 L 109.40962028503418 130.007493686676 L 109.8 129.5 Z M 111.4 115.1 L 112.8 118.4 L 108.63600826263428 118.25884771347046 L 108.6 118.3 L 105.5 121.2 L 102.2 123.8 L 98.6 126.1 L 94.7 128.1 L 90.6 129.8 L 86.2 131.3 L 81.6 132.4 L 76.7 133.2 L 71.7 133.8 L 71.2 132.1 L 75.8 130.1 L 80.0 127.9 L 83.8 125.8 L 87.3 123.5 L 90.5 121.2 L 93.3 118.8 L 95.8 116.3 L 98.0 113.8 L 99.8 111.2 L 100.89509239196778 109.35203170776367 L 100.8 109.3 L 101.9 107.7 Z M 135.0 50.0 L 135.0 64.0 L 156.3 64.0 L 156.3 50.0 Z M 135.0 31.0 L 135.0 46.0 L 156.3 46.0 L 156.3 31.0 Z " />
</g>
</svg>
