<svg xmlns="http://www.w3.org/2000/svg" xmlns:xlink="http://www.w3.org/1999/xlink" version="1.1" baseProfile="full" viewBox="0 0 200 200" width="200" height="200">
<g fill="black">
<path d="M 148.0 175.0 L 164.0 175.0 L 165.3 174.9 L 166.2 174.7 L 167.1 174.4 L 167.3 174.2 L 167.4 174.0 L 167.6 173.7 L 167.8 173.1 L 168.0 172.2 L 168.0 38.0 L 111.8 38.0 L 111.8 34.091428565979 L 109.9 39.9 L 106.2 50.4 L 102.4 60.6 L 98.3 70.6 L 97.23999996185303 73.07333335876464 L 102.2 73.9 L 105.2 75.9 L 102.2 77.7 L 102.2 181.2 L 90.2 187.2 L 90.2 88.82045450210572 L 89.7 89.9 L 85.0 99.1 L 80.0 108.0 L 74.7 116.6 L 73.1 115.8 L 76.6 106.4 L 80.1 96.9 L 83.6 87.3 L 87.0 77.6 L 90.4 67.7 L 93.6 57.6 L 96.7 47.3 L 99.6 36.8 L 102.5 26.0 L 104.95010337829589 16.108841800689696 L 104.9 16.1 L 105.6 13.5 L 116.8 18.2 L 119.2 21.0 L 115.61823358535767 22.02336177825928 L 113.4 29.2 L 111.82990655899047 34.0 L 166.4 34.0 L 176.4 24.0 L 188.4 34.0 L 188.4 38.0 L 180.0 38.0 L 180.0 171.0 L 179.9 173.5 L 179.4 176.0 L 178.6 178.4 L 177.4 180.7 L 175.8 182.7 L 173.8 184.3 L 171.5 185.6 L 169.1 186.4 L 166.6 186.8 L 164.0 187.0 L 164.0 181.0 L 148.0 178.0 Z M 14.4 169.1 L 19.6 167.0 L 25.0 165.0 L 30.3 162.9 L 35.7 160.8 L 36.6 160.45636367797852 L 36.6 102.0 L 12.3 102.0 L 12.3 98.0 L 36.6 98.0 L 36.6 43.2981481552124 L 32.9 44.6 L 27.3 46.3 L 21.5 47.7 L 15.5 48.8 L 14.9 47.1 L 20.2 44.1 L 25.3 41.3 L 30.3 38.5 L 35.1 35.8 L 39.7 33.1 L 44.1 30.3 L 48.3 27.5 L 52.3 24.6 L 56.2 21.7 L 59.033581256866455 19.33868227005005 L 59.0 19.3 L 59.8 18.7 L 66.9 28.4 L 67.1 32.0 L 63.56473236083984 30.49423780441284 L 62.6 31.1 L 58.1 33.7 L 53.4 36.1 L 48.6 38.4 L 48.6 98.0 L 51.5 98.0 L 61.5 88.0 L 73.5 98.0 L 73.5 102.0 L 48.6 102.0 L 48.6 155.9745454788208 L 52.2 154.6 L 63.6 150.8 L 69.5 149.1 L 70.3 150.8 L 65.3 154.3 L 60.2 157.5 L 55.0 160.6 L 49.9 163.6 L 44.7 166.4 L 39.6 169.3 L 24.3 177.4 L 22.94113655090332 178.10660905838012 L 22.3 181.9 L 19.3 180.0 L 12.5 169.9 Z M 127.0 69.0 L 143.8 69.0 L 149.8 64.0 L 160.8 73.0 L 155.8 77.0 L 155.8 137.0 L 143.8 143.0 L 143.8 131.0 L 127.0 131.0 L 127.0 143.0 L 115.0 149.0 L 115.0 63.0 Z M 127.0 73.0 L 127.0 127.0 L 143.8 127.0 L 143.8 73.0 Z " />
</g>
</svg>
