<svg xmlns="http://www.w3.org/2000/svg" xmlns:xlink="http://www.w3.org/1999/xlink" version="1.1" baseProfile="full" viewBox="0 0 200 200" width="200" height="200">
<g fill="black">
<path d="M 153.2 179.0 L 171.2 179.0 L 172.5 178.9 L 173.4 178.7 L 174.3 178.4 L 174.7 178.0 L 175.0 177.1 L 175.2 176.2 L 175.2 135.0 L 95.7 135.0 L 95.7 185.0 L 83.7 191.0 L 83.7 125.0 L 95.7 131.0 L 175.2 131.0 L 181.2 126.0 L 192.2 135.0 L 187.2 139.0 L 187.2 175.0 L 187.1 177.5 L 186.7 180.0 L 185.9 182.4 L 184.6 184.7 L 183.0 186.7 L 181.0 188.3 L 178.7 189.6 L 176.3 190.4 L 173.8 190.8 L 171.2 191.0 L 171.2 185.0 L 153.2 182.0 Z M 80.4 18.3 L 82.4 21.4 L 78.65576829910279 21.851889991760252 L 74.9 29.5 L 69.1 40.3 L 63.0 50.9 L 56.6 61.3 L 50.0 71.4 L 48.959276008605954 72.89321269989014 L 55.6 74.0 L 58.6 76.0 L 55.6 77.8 L 55.6 183.0 L 43.6 189.0 L 43.6 80.58260869979858 L 43.1 81.3 L 35.9 90.9 L 28.3 100.1 L 20.4 109.0 L 12.1 117.5 L 10.7 116.4 L 17.4 106.7 L 24.0 96.9 L 30.5 87.0 L 36.8 77.1 L 42.8 66.9 L 48.6 56.6 L 54.2 46.1 L 59.6 35.4 L 64.7 24.5 L 69.10937566757202 14.303318786621094 L 69.1 14.3 L 69.21764707565308 14.052941131591798 L 69.5 13.4 L 69.52353363037109 13.410579299926757 L 70.1 12.2 Z M 120.8 145.0 L 150.1 145.0 L 156.1 140.0 L 167.1 149.0 L 162.1 153.0 L 162.1 172.0 L 150.1 178.0 L 150.1 170.0 L 120.8 170.0 L 120.8 173.0 L 108.8 179.0 L 108.8 139.0 Z M 120.8 149.0 L 120.8 166.0 L 150.1 166.0 L 150.1 149.0 Z M 113.7 99.0 L 157.2 99.0 L 163.2 94.0 L 174.2 103.0 L 169.2 107.0 L 169.2 121.0 L 157.2 127.0 L 157.2 121.0 L 113.7 121.0 L 101.7 127.0 L 101.7 93.0 Z M 113.7 103.0 L 113.7 117.0 L 157.2 117.0 L 157.2 103.0 Z M 81.3 85.0 L 130.0 85.0 L 130.0 61.0 L 141.0 63.0 L 143.7 65.0 L 141.0 66.72340421676635 L 141.0 85.0 L 171.4181818008423 85.0 L 179.6 76.0 L 189.6 85.0 L 189.6 89.0 L 81.3 89.0 Z M 187.1 44.7 L 189.1 44.7 L 187.1 61.7 L 190.1 63.7 L 192.1 66.7 L 190.1 69.7 L 187.1 71.7 L 166.1 71.7 L 163.6 71.6 L 161.3 71.3 L 159.0 70.6 L 156.8 69.5 L 154.9 67.9 L 153.3 66.1 L 152.1 63.9 L 151.3 61.6 L 150.8 59.2 L 150.6 56.7 L 150.6 30.0 L 128.13783779144288 30.0 L 127.7 33.6 L 125.9 40.4 L 123.1 46.7 L 119.3 52.4 L 114.6 57.4 L 109.1 61.7 L 102.7 65.3 L 95.6 68.3 L 87.6 70.5 L 78.9 72.0 L 78.5 70.2 L 86.4 66.9 L 93.4 63.4 L 99.4 59.6 L 104.5 55.7 L 108.6 51.4 L 111.7 47.0 L 114.1 42.3 L 115.7 37.3 L 116.5 32.0 L 116.53448276519775 30.0 L 87.1 30.0 L 87.1 26.0 L 116.6 26.0 L 116.6 8.8 L 128.6 10.8 L 131.6 12.8 L 128.6 14.6 L 128.6 26.0 L 150.6 26.0 L 156.1 21.0 L 166.6 30.0 L 161.6 33.5 L 161.6 58.0 L 161.7 59.0 L 161.9 59.7 L 162.1 60.2 L 162.3 60.5 L 162.6 60.8 L 163.0 61.1 L 163.7 61.4 L 164.7 61.6 L 166.1 61.7 L 182.1 61.7 Z " />
</g>
</svg>
