<svg xmlns="http://www.w3.org/2000/svg" xmlns:xlink="http://www.w3.org/1999/xlink" version="1.1" baseProfile="full" viewBox="0 0 200 200" width="200" height="200">
<g fill="black">
<path d="M 66.0 17.8 L 68.3 20.6 L 64.69467887878417 21.42226619720459 L 62.0 28.9 L 57.7 39.7 L 53.2 50.4 L 48.6 60.8 L 43.7 70.9 L 42.577209281921384 73.07953491210938 L 48.1 74.0 L 51.1 76.0 L 48.1 77.8 L 48.1 183.0 L 36.1 189.0 L 36.1 85.3283019065857 L 33.3 90.4 L 27.7 99.8 L 21.8 108.8 L 15.5 117.4 L 14.0 116.5 L 18.5 106.9 L 23.0 97.2 L 27.4 87.5 L 31.8 77.5 L 36.0 67.4 L 40.0 57.2 L 43.9 46.7 L 47.6 36.0 L 51.2 25.1 L 54.32031545639038 15.004861831665039 L 54.3 15.0 L 55.1 12.5 Z M 173.1 182.2 L 170.5 179.9 L 167.6 177.7 L 164.1 175.4 L 160.3 173.1 L 156.0 170.9 L 151.4 168.6 L 146.3 166.2 L 140.8 163.8 L 141.3 162.1 L 147.3 162.9 L 152.9 163.8 L 158.2 165.0 L 163.2 166.4 L 167.7 168.0 L 172.0 169.7 L 175.9 171.6 L 179.5 173.7 L 182.8 176.0 L 185.8 178.5 L 187.3 182.9 L 185.3 187.0 L 181.0 188.5 L 176.9 186.5 L 175.2 184.4 Z M 124.7 167.9 L 125.2 171.4 L 121.35167284011841 170.23175783157347 L 117.9 172.5 L 114.0 174.7 L 109.7 176.8 L 105.2 178.9 L 100.3 181.0 L 95.1 183.0 L 89.6 184.9 L 83.6 186.7 L 77.3 188.2 L 76.6 186.6 L 82.1 183.2 L 87.4 180.0 L 92.3 177.1 L 96.9 174.3 L 101.1 171.5 L 105.0 168.8 L 108.5 166.2 L 111.6 163.7 L 114.4 161.2 L 116.08663177490234 159.58364448547363 L 116.0 159.5 L 116.9 158.7 Z M 106.2 91.9 L 160.7 91.9 L 166.7 86.9 L 177.7 95.9 L 172.7 99.9 L 172.7 154.1 L 160.7 160.1 L 160.7 154.1 L 106.2 154.1 L 106.2 157.1 L 94.2 163.1 L 94.2 85.9 Z M 106.2 134.7 L 106.2 150.1 L 160.7 150.1 L 160.7 134.7 Z M 106.2 115.3 L 106.2 130.7 L 160.7 130.7 L 160.7 115.3 Z M 106.2 95.9 L 106.2 111.3 L 160.7 111.3 L 160.7 95.9 Z M 168.7 17.9 L 171.7 19.9 L 168.7 21.7 L 168.7 34.9 L 172.4181818008423 34.9 L 180.6 25.9 L 190.6 34.9 L 190.6 38.9 L 168.7 38.9 L 168.7 60.0 L 156.7 66.0 L 156.7 58.0 L 136.8 58.0 L 136.8 61.0 L 124.8 67.0 L 124.8 38.9 L 104.9 38.9 L 104.9 73.2 L 164.51818180084229 73.2 L 172.7 64.2 L 182.7 73.2 L 182.7 77.2 L 104.9 77.2 L 92.9 83.2 L 92.9 38.9 L 76.3 38.9 L 76.3 34.9 L 92.9 34.9 L 92.9 16.7 L 104.9 18.7 L 107.9 20.7 L 104.9 22.5 L 104.9 34.9 L 124.8 34.9 L 124.8 15.9 L 136.8 17.9 L 139.8 19.9 L 136.8 21.7 L 136.8 34.9 L 156.7 34.9 L 156.7 15.9 Z M 136.8 38.9 L 136.8 54.0 L 156.7 54.0 L 156.7 38.9 Z " />
</g>
</svg>
