<svg xmlns="http://www.w3.org/2000/svg" xmlns:xlink="http://www.w3.org/1999/xlink" version="1.1" baseProfile="full" viewBox="0 0 200 200" width="200" height="200">
<g fill="black">
<path d="M 67.2 18.0 L 69.4 20.9 L 65.70802431106567 21.60020227432251 L 62.6 29.1 L 57.8 40.0 L 52.7 50.6 L 47.4 61.0 L 41.9 71.1 L 40.788036823272705 72.99800615310669 L 46.8 74.0 L 49.8 76.0 L 46.8 77.8 L 46.8 183.0 L 34.8 189.0 L 34.8 83.08000001907348 L 30.1 90.6 L 23.8 99.9 L 17.1 108.9 L 10.1 117.5 L 8.6 116.4 L 14.0 106.8 L 19.2 97.1 L 24.4 87.3 L 29.5 77.4 L 34.4 67.2 L 39.1 56.9 L 43.6 46.4 L 47.9 35.8 L 52.1 24.9 L 55.676170349121094 14.721669101715088 L 55.6 14.7 L 56.5 12.4 Z M 64.8 172.6 L 119.5 172.6 L 119.5 142.6 L 74.0 142.6 L 74.0 138.6 L 119.5 138.6 L 119.5 114.8 L 131.5 116.8 L 134.5 118.8 L 131.5 120.6 L 131.5 138.6 L 154.9 138.6 L 164.9 128.6 L 176.9 138.6 L 176.9 142.6 L 131.5 142.6 L 131.5 172.6 L 164.1 172.6 L 174.1 162.6 L 186.1 172.6 L 186.1 176.6 L 64.8 176.6 Z M 148.1 87.0 L 161.3 87.0 L 162.2 86.8 L 162.8 86.6 L 163.1 86.4 L 163.3 86.3 L 163.5 86.1 L 163.8 85.2 L 164.0 84.3 L 164.1 83.0 L 164.1 31.3 L 128.0 31.3 L 128.0 103.8 L 116.0 109.8 L 116.0 21.3 L 128.0 27.3 L 164.1 27.3 L 170.1 22.3 L 181.1 31.3 L 176.1 35.3 L 176.1 83.0 L 175.9 85.6 L 175.5 88.1 L 174.7 90.5 L 173.4 92.8 L 171.8 94.8 L 169.8 96.4 L 167.5 97.7 L 165.1 98.5 L 162.6 98.9 L 160.1 99.0 L 160.1 93.0 L 148.1 90.0 Z " />
</g>
</svg>
