<svg xmlns="http://www.w3.org/2000/svg" xmlns:xlink="http://www.w3.org/1999/xlink" version="1.1" baseProfile="full" viewBox="0 0 200 200" width="200" height="200">
<g fill="black">
<path d="M 72.3 18.1 L 74.3 21.1 L 70.69203672409057 21.66967840194702 L 67.3 29.2 L 62.1 40.1 L 56.7 50.7 L 51.0 61.1 L 45.0 71.3 L 43.95076923370361 72.95846157073974 L 50.2 74.0 L 53.2 76.0 L 50.2 77.8 L 50.2 183.0 L 38.2 189.0 L 38.2 81.98615388870239 L 32.3 90.7 L 25.5 100.0 L 18.4 108.9 L 10.9 117.5 L 9.4 116.4 L 15.3 106.7 L 21.1 97.0 L 26.7 87.2 L 32.3 77.2 L 37.6 67.1 L 42.7 56.8 L 47.6 46.3 L 52.4 35.6 L 56.9 24.7 L 60.81128244400024 14.603433799743652 L 60.8 14.6 L 61.7 12.3 Z M 151.2 173.9 L 163.2 173.9 L 164.5 173.8 L 165.4 173.7 L 166.0 173.5 L 166.3 173.3 L 166.6 173.0 L 166.8 172.6 L 167.0 172.0 L 167.2 171.1 L 167.2 135.9 L 145.025 135.9 L 151.7 141.9 L 152.8 145.4 L 148.49808025360107 144.80663175582885 L 145.8 147.1 L 143.7 148.8 L 141.6 150.4 L 139.4 152.0 L 135.0 155.0 L 134.14285717010497 155.5 L 141.3 155.5 L 151.3 145.5 L 163.3 155.5 L 163.3 159.5 L 131.7 159.5 L 131.7 179.3 L 119.7 185.3 L 119.7 159.5 L 90.2 159.5 L 90.2 155.5 L 108.9 155.5 L 107.7 154.1 L 107.5 152.4 L 107.2 150.6 L 106.8 148.8 L 106.3 147.1 L 105.6 145.3 L 104.8 143.5 L 103.8 141.6 L 102.7 139.8 L 101.5 137.8 L 99.7 136.4 L 100.03333330154419 135.9 L 85.5 135.9 L 85.5 181.6 L 73.5 187.6 L 73.5 125.9 L 85.5 131.9 L 167.2 131.9 L 173.2 126.9 L 184.2 135.9 L 179.2 139.9 L 179.2 169.9 L 179.1 172.5 L 178.7 174.9 L 177.8 177.4 L 176.6 179.6 L 175.0 181.6 L 173.0 183.3 L 170.7 184.5 L 168.3 185.3 L 165.8 185.8 L 163.2 185.9 L 163.2 179.9 L 151.2 176.9 Z M 102.45 135.9 L 102.8 136.1 L 105.1 136.9 L 107.3 138.1 L 109.3 139.3 L 111.3 140.8 L 113.1 142.4 L 114.8 144.2 L 116.4 146.1 L 117.8 148.2 L 119.1 150.4 L 118.7 154.9 L 118.02258062362671 155.5 L 130.29047622680665 155.5 L 130.9 154.7 L 132.1 152.3 L 134.7 147.7 L 136.0 145.5 L 137.3 143.2 L 139.9 138.8 L 141.1 136.6 L 141.51363639831544 135.9 Z M 98.3 100.0 L 154.5 100.0 L 160.5 95.0 L 171.5 104.0 L 166.5 108.0 L 166.5 120.5 L 154.5 126.5 L 154.5 120.5 L 98.3 120.5 L 86.3 126.5 L 86.3 94.0 Z M 98.3 104.0 L 98.3 116.5 L 154.5 116.5 L 154.5 104.0 Z M 187.4 87.0 L 187.4 91.0 L 65.3 91.0 L 65.3 87.0 L 173.1777777671814 87.0 L 179.4 80.0 Z M 119.66610450744629 14.49553861618042 L 128.2 22.1 L 128.4 25.2 L 124.55393562316894 23.543233776092528 L 123.4 24.0 L 116.2 25.8 L 112.4 26.7 L 108.6 27.5 L 104.6 28.3 L 96.2 29.5 L 91.8 30.0 L 88.4 30.295652198791505 L 88.4 46.4 L 104.61818180084228 46.4 L 112.8 37.4 L 122.8 46.4 L 122.8 50.4 L 88.4 50.4 L 88.4 67.8 L 104.61818180084228 67.8 L 112.8 58.8 L 122.8 67.8 L 122.8 71.8 L 88.4 71.8 L 88.4 74.8 L 76.4 80.8 L 76.4 21.9 L 86.8632911682129 27.131645584106444 L 90.6 25.4 L 94.6 23.7 L 98.5 22.1 L 102.3 20.5 L 105.9 19.0 L 109.4 17.4 L 112.7 15.9 L 115.9 14.3 L 118.15333013534546 13.20967893600464 L 118.1 13.1 L 118.19853658676148 13.187804889678954 L 119.0 12.8 Z M 178.6 28.9 L 173.6 32.9 L 173.6 73.8 L 161.6 79.8 L 161.6 71.8 L 131.3 71.8 L 131.3 67.8 L 161.6 67.8 L 161.6 50.4 L 131.3 50.4 L 131.3 46.4 L 161.6 46.4 L 161.6 28.9 L 132.1 28.9 L 132.1 24.9 L 161.6 24.9 L 167.6 19.9 Z " />
</g>
</svg>
