<svg xmlns="http://www.w3.org/2000/svg" xmlns:xlink="http://www.w3.org/1999/xlink" version="1.1" baseProfile="full" viewBox="0 0 200 200" width="200" height="200">
<g fill="black">
<path d="M 163.5 136.5 L 162.1 132.7 L 160.4 128.8 L 158.4 125.1 L 156.0 121.3 L 153.3 117.6 L 150.3 113.9 L 147.73365383148194 111.0317307472229 L 147.5 112.2 L 145.8 118.2 L 143.8 123.8 L 141.4 128.9 L 138.6 133.5 L 135.4 137.6 L 131.9 141.2 L 128.0 144.1 L 123.8 146.3 L 122.60442342758179 146.70758295059204 L 119.6 148.9 L 115.1 148.0 L 112.4 144.3 L 111.6 139.9 L 110.5 135.6 L 109.0 131.3 L 107.3 127.1 L 105.2 123.0 L 102.8 118.9 L 100.1 114.8 L 98.79047622680665 113.01031742095947 L 98.3 114.4 L 96.1 119.3 L 93.5 124.1 L 90.6 128.6 L 87.3 132.9 L 83.7 137.0 L 79.7 140.9 L 75.3 144.4 L 72.62251148223876 146.222970867157 L 72.2 146.7 L 71.91249103546143 146.70638904571533 L 70.6 147.6 L 69.7543478012085 146.7543478012085 L 67.7 146.8 L 64.2 143.8 L 62.6 139.9 L 60.8 136.1 L 58.8 132.3 L 56.7 128.5 L 54.3 124.8 L 51.8 121.1 L 49.1 117.4 L 46.3 113.8 L 45.838562679290774 113.21551275253296 L 44.2 117.7 L 41.9 122.6 L 39.3 127.3 L 36.2 131.7 L 32.8 135.8 L 29.1 139.6 L 24.9 143.1 L 20.4 146.1 L 15.5 148.7 L 14.4 147.2 L 18.0 143.2 L 21.2 139.2 L 24.1 135.3 L 26.8 131.3 L 29.1 127.2 L 31.1 123.0 L 32.7 118.6 L 34.1 114.2 L 35.1 109.6 L 35.73278684616089 105.8032787322998 L 35.7 105.8 L 36.2 102.9 L 47.7 107.0 L 50.3 109.5 L 49.4007604598999 109.84334602355958 L 49.8 110.1 L 53.7 113.0 L 57.3 116.2 L 60.8 119.6 L 64.0 123.1 L 67.1 126.8 L 70.0 130.6 L 72.6 134.5 L 74.93106718063355 138.416192817688 L 75.7 137.3 L 78.5 133.0 L 81.0 128.7 L 83.2 124.3 L 85.2 119.9 L 86.8 115.5 L 88.1 111.0 L 89.1 106.4 L 89.72560453414917 102.8027738571167 L 89.7 102.8 L 90.2 99.9 L 101.7 104.1 L 104.2 106.6 L 101.58227844238282 107.55189876556396 L 105.0 110.4 L 108.8 114.2 L 112.3 118.3 L 115.4 122.5 L 118.1 127.0 L 120.5 131.7 L 122.5 136.6 L 123.91826086044311 140.85478258132935 L 124.6 140.1 L 127.1 136.8 L 129.3 133.2 L 131.3 129.4 L 132.9 125.2 L 134.3 120.5 L 135.5 115.5 L 136.3 110.1 L 136.8333333015442 104.8555555343628 L 137.1 102.1 L 148.8 105.7 L 151.5 108.0 L 150.81842212677003 108.30863904953003 L 153.7 110.0 L 157.8 113.2 L 161.6 116.5 L 165.1 120.2 L 168.2 124.0 L 171.0 128.1 L 173.4 132.4 L 175.4 136.9 L 177.1 141.6 L 176.3 146.1 L 172.7 148.9 L 168.1 148.1 L 165.4 144.4 L 164.6 140.4 Z M 165.5 80.5 L 164.1 76.7 L 162.4 72.8 L 160.4 69.1 L 158.0 65.3 L 155.3 61.6 L 152.3 57.9 L 149.73365383148194 55.0317307472229 L 149.5 56.2 L 147.8 62.2 L 145.8 67.8 L 143.4 72.9 L 140.6 77.5 L 137.4 81.6 L 133.9 85.2 L 130.0 88.1 L 125.8 90.3 L 124.60442342758179 90.70758295059204 L 121.6 92.9 L 117.1 92.0 L 114.4 88.3 L 113.6 83.9 L 112.5 79.5 L 111.1 75.3 L 109.4 71.1 L 107.4 66.9 L 105.1 62.8 L 102.5 58.7 L 100.51802139282226 55.79781703948974 L 99.7 58.3 L 97.6 63.2 L 95.2 68.0 L 92.4 72.5 L 89.2 76.9 L 85.6 81.0 L 81.7 84.9 L 77.3 88.4 L 74.62251148223876 90.22297086715699 L 74.2 90.7 L 73.91249103546143 90.70638904571533 L 72.6 91.6 L 71.7543478012085 90.7543478012085 L 69.7 90.8 L 66.2 87.8 L 64.6 83.9 L 62.8 80.1 L 60.8 76.3 L 58.7 72.5 L 56.3 68.8 L 53.8 65.1 L 51.1 61.4 L 48.3 57.8 L 47.838562679290774 57.21551275253296 L 46.2 61.7 L 43.9 66.6 L 41.3 71.3 L 38.2 75.7 L 34.8 79.8 L 31.1 83.6 L 26.9 87.1 L 22.4 90.1 L 17.5 92.7 L 16.4 91.2 L 20.0 87.2 L 23.2 83.2 L 26.1 79.3 L 28.8 75.3 L 31.1 71.2 L 33.1 67.0 L 34.7 62.6 L 36.1 58.2 L 37.1 53.6 L 37.73278684616089 49.8032787322998 L 37.7 49.8 L 38.2 46.9 L 49.7 51.0 L 52.3 53.5 L 51.4007604598999 53.84334602355957 L 51.8 54.1 L 55.7 57.0 L 59.3 60.2 L 62.8 63.6 L 66.0 67.1 L 69.1 70.8 L 72.0 74.6 L 74.6 78.5 L 76.89559745788574 82.35660381317139 L 77.6 81.3 L 80.4 77.0 L 82.8 72.7 L 85.0 68.4 L 86.8 64.0 L 88.3 59.6 L 89.4 55.1 L 90.3 50.6 L 90.76889123916627 47.00516681671142 L 90.7 47.0 L 91.2 44.0 L 94.20613040924073 45.01947031021118 L 94.3 44.9 L 94.91958456039428 45.26142435073852 L 102.7 47.9 L 105.4 50.3 L 103.55776176452636 51.05054149627686 L 107.5 54.5 L 111.2 58.3 L 114.5 62.3 L 117.5 66.6 L 120.2 71.1 L 122.5 75.8 L 124.5 80.7 L 125.91416711807251 84.85931501388549 L 126.6 84.1 L 129.1 80.8 L 131.3 77.2 L 133.3 73.4 L 134.9 69.2 L 136.3 64.5 L 137.5 59.5 L 138.3 54.1 L 138.8333333015442 48.85555553436279 L 139.1 46.1 L 150.8 49.7 L 153.5 52.0 L 152.81842212677003 52.30863904953003 L 155.7 54.0 L 159.8 57.2 L 163.6 60.5 L 167.1 64.2 L 170.2 68.0 L 173.0 72.1 L 175.4 76.4 L 177.4 80.9 L 179.1 85.6 L 178.3 90.1 L 174.7 92.9 L 170.1 92.1 L 167.4 88.4 L 166.6 84.4 Z " />
</g>
</svg>
