<svg xmlns="http://www.w3.org/2000/svg" xmlns:xlink="http://www.w3.org/1999/xlink" version="1.1" baseProfile="full" viewBox="0 0 200 200" width="200" height="200">
<g fill="black">
<path d="M 146.59236545562743 80.10750675201416 L 154.3 87.1 L 154.4 90.3 L 150.62734336853026 88.74303064346313 L 150.5 88.8 L 143.2 91.5 L 135.0 93.9 L 126.0 96.1 L 116.2 98.0 L 110.78943395614624 98.85962266921997 L 111.0 99.0 L 108.0 100.8 L 108.0 182.0 L 96.0 188.0 L 96.0 100.92844829559326 L 93.9 101.2 L 81.5 102.3 L 68.2 103.2 L 54.1 103.7 L 39.0 103.8 L 38.9 102.1 L 53.7 100.0 L 67.7 97.9 L 80.7 95.8 L 92.8 93.7 L 104.0 91.4 L 114.2 89.0 L 123.5 86.4 L 131.8 83.7 L 139.2 80.9 L 144.63057718276977 78.35441694259643 L 144.6 78.3 L 144.64996490478515 78.34532899856568 L 145.6 77.9 Z M 80.9 118.7 L 82.5 121.9 L 78.80046157836914 122.02757024765015 L 75.6 127.1 L 70.2 135.0 L 64.5 142.3 L 58.6 149.1 L 52.4 155.2 L 46.0 160.8 L 39.4 165.8 L 32.6 170.1 L 25.5 173.7 L 18.1 176.6 L 17.4 174.9 L 23.5 170.5 L 29.5 165.7 L 35.3 160.7 L 40.9 155.2 L 46.3 149.3 L 51.5 143.0 L 56.5 136.2 L 61.3 128.9 L 65.9 121.2 L 69.81855049133301 113.80818891525269 L 69.8 113.8 L 70.07142858505249 113.33116884231568 L 70.3 112.9 L 70.31598796844483 112.90874814987183 L 70.9 111.9 Z M 159.2 156.8 L 156.5 151.0 L 153.2 145.5 L 149.5 140.1 L 145.2 134.9 L 140.5 129.9 L 135.3 124.9 L 129.6 120.1 L 123.4 115.2 L 124.3 113.6 L 131.6 116.9 L 138.5 120.6 L 144.8 124.9 L 150.6 129.5 L 155.9 134.6 L 160.7 140.0 L 165.0 145.8 L 168.8 152.0 L 172.1 158.5 L 174.8 165.3 L 174.3 169.9 L 170.8 172.8 L 166.3 172.3 L 163.3 168.8 L 161.5 162.7 Z M 50.62162847518921 69.0 L 148.0 69.0 L 158.0 59.0 L 170.0 69.0 L 170.0 73.0 L 49.62417306900024 73.0 L 49.3 74.3 L 36.2 77.3 L 46.29881792068481 37.0 L 14.0 37.0 L 14.0 33.0 L 94.0 33.0 L 94.0 11.0 L 106.0 13.0 L 109.0 15.0 L 106.0 16.8 L 106.0 33.0 L 164.0 33.0 L 174.0 23.0 L 186.0 33.0 L 186.0 37.0 L 58.60127229690552 37.0 Z " />
</g>
</svg>
