<svg xmlns="http://www.w3.org/2000/svg" xmlns:xlink="http://www.w3.org/1999/xlink" version="1.1" baseProfile="full" viewBox="0 0 200 200" width="200" height="200">
<g fill="black">
<path d="M 78.8 154.6 L 75.8 149.3 L 72.7 144.4 L 69.4 139.7 L 65.9 135.2 L 62.2 131.0 L 58.4 127.0 L 54.5 123.1 L 53.60337076187134 122.26741571426392 L 50.3 131.8 L 46.0 141.2 L 41.0 150.1 L 35.3 158.3 L 28.8 165.8 L 21.5 172.6 L 13.5 178.6 L 12.4 177.3 L 18.9 170.0 L 24.7 162.4 L 29.9 154.5 L 34.4 146.3 L 38.3 137.7 L 41.6 128.6 L 44.1 119.1 L 46.0 109.1 L 47.3 98.6 L 47.9 87.6 L 47.93119316101074 87.6018196105957 L 48.0 85.4 L 59.9 88.3 L 62.8 90.4 L 59.470938205718994 92.12855129241943 L 58.6 99.9 L 56.6 111.1 L 54.490833568572995 119.08470134735107 L 56.6 120.0 L 61.8 122.8 L 66.6 126.1 L 71.3 129.9 L 75.8 134.1 L 80.1 138.7 L 84.1 143.7 L 88.0 149.0 L 91.6 154.6 L 93.0 157.07058820724487 L 93.0 71.0 L 13.0 71.0 L 13.0 67.0 L 93.0 67.0 L 93.0 14.0 L 105.0 16.0 L 108.0 18.0 L 105.0 19.8 L 105.0 67.0 L 167.0 67.0 L 177.0 57.0 L 189.0 67.0 L 189.0 71.0 L 105.0 71.0 L 105.0 169.0 L 93.0 175.0 L 93.0 167.80666666030885 L 92.3 168.6 L 87.7 168.9 L 84.2 165.9 L 81.6 160.1 Z M 163.0 159.6 L 157.7 153.7 L 153.2 147.1 L 149.6 139.8 L 146.9 132.0 L 145.17701864242554 124.29192543029785 L 144.9 125.4 L 141.8 134.2 L 137.9 142.1 L 133.1 149.0 L 127.5 155.1 L 121.2 160.1 L 114.1 164.0 L 106.4 166.7 L 105.7 165.1 L 112.2 160.7 L 117.9 155.9 L 122.7 150.6 L 126.9 144.7 L 130.3 138.1 L 133.1 130.9 L 135.2 122.9 L 136.7 114.2 L 137.4 104.7 L 137.5 94.3 L 137.5 91.9 L 149.5 94.3 L 152.5 96.3 L 149.2532467842102 98.24805192947387 L 148.8 105.5 L 148.53876399993896 107.29382019042968 L 149.8 113.6 L 152.0 121.8 L 154.7 129.2 L 158.0 135.7 L 161.8 141.5 L 166.0 146.5 L 170.8 150.7 L 176.1 154.4 L 182.0 157.4 L 187.4 160.1 L 176.1 169.2 L 169.2 164.8 Z " />
</g>
</svg>
