<svg xmlns="http://www.w3.org/2000/svg" xmlns:xlink="http://www.w3.org/1999/xlink" version="1.1" baseProfile="full" viewBox="0 0 200 200" width="200" height="200">
<g fill="black">
<path d="M 73.1 18.1 L 75.2 21.0 L 71.54135847091675 21.630800247192383 L 68.2 29.2 L 63.1 40.1 L 57.7 50.7 L 52.1 61.1 L 46.3 71.2 L 45.2103816986084 72.96839694976806 L 51.4 74.0 L 54.4 76.0 L 51.4 77.8 L 51.4 183.0 L 39.4 189.0 L 39.4 82.3 L 33.8 90.7 L 27.1 100.0 L 20.1 108.9 L 12.7 117.5 L 11.2 116.4 L 17.0 106.8 L 28.2 87.2 L 33.6 77.3 L 38.8 67.1 L 43.9 56.8 L 48.7 46.3 L 53.3 35.6 L 57.8 24.8 L 61.65331926345825 14.616227626800537 L 61.6 14.6 L 62.5 12.3 Z M 151.8 181.0 L 139.5 179.4 L 128.4 176.4 L 118.5 172.1 L 109.9 166.5 L 102.7 159.7 L 97.0 151.6 L 93.29589347839355 143.28834629058838 L 92.0 147.5 L 87.0 159.2 L 81.0 169.4 L 74.1 178.2 L 66.2 185.3 L 57.4 190.7 L 56.5 189.2 L 63.6 182.5 L 69.9 174.8 L 75.4 166.0 L 80.1 156.1 L 83.9 144.9 L 87.0 132.4 L 89.2 118.6 L 90.7 103.4 L 91.2 86.9 L 91.01122226715088 70.09878425598144 L 91.0 70.1 L 90.9 66.7 L 103.0 68.8 L 106.0 70.8 L 102.91408004760743 72.75231666564942 L 102.6 87.2 L 101.4 104.3 L 99.2 120.1 L 96.0 134.5 L 95.07223386764527 137.5152400970459 L 96.7 140.7 L 101.9 148.3 L 107.9 154.6 L 114.7 159.7 L 122.0 163.44358978271484 L 122.0 33.0 L 78.0 33.0 L 78.0 29.0 L 166.0 29.0 L 166.44460430145264 28.629496383666993 L 166.8 27.9 L 167.10397272109986 28.080022716522215 L 172.0 24.0 L 183.0 33.0 L 178.0 36.0 L 174.77915306091307 37.34201955795288 L 174.6 37.6 L 171.9 41.3 L 169.2 44.8 L 166.4 48.2 L 163.5 51.6 L 160.6 54.8 L 157.5 58.0 L 154.3 61.0 L 151.0 63.8 L 147.6 66.5 L 146.3 65.4 L 148.4 61.6 L 150.5 57.9 L 152.7 54.2 L 156.9 46.8 L 158.9 43.1 L 161.0 39.4 L 162.9 35.6 L 164.26842107772828 33.0 L 134.0 33.0 L 134.0 100.0 L 158.8181818008423 100.0 L 167.0 91.0 L 177.0 100.0 L 177.0 104.0 L 134.0 104.0 L 134.0 167.09898986816407 L 141.3 168.5 L 152.4 169.3 L 164.7 168.9 L 178.1 167.4 L 188.4 166.1 L 179.8 180.5 L 165.2 181.4 Z " />
</g>
</svg>
