<svg xmlns="http://www.w3.org/2000/svg" xmlns:xlink="http://www.w3.org/1999/xlink" version="1.1" baseProfile="full" viewBox="0 0 200 200" width="200" height="200">
<g fill="black">
<path d="M 159.1 182.8 L 149.9 178.7 L 141.4 174.0 L 135.19954710006715 169.73215579986572 L 126.8 174.2 L 116.5 178.6 L 105.3 182.4 L 93.2 185.5 L 80.2 187.9 L 79.7 186.2 L 92.1 181.8 L 103.5 177.3 L 113.9 172.5 L 123.3 167.5 L 128.34077672958375 164.2595006942749 L 126.7 162.9 L 120.6 156.5 L 115.3 149.6 L 110.9 142.2 L 107.88874998092652 134.9 L 94.0 134.9 L 94.0 130.9 L 158.0 130.9 L 158.43032789230347 130.54139347076415 L 158.5 130.4 L 158.56404228210448 130.42996473312377 L 164.0 125.9 L 175.0 134.9 L 170.0 137.9 L 167.30378684997558 139.0234221458435 L 164.7 143.4 L 159.0 150.8 L 152.3 157.5 L 144.7 163.7 L 144.36677742004395 163.91561460494995 L 146.4 165.0 L 154.4 168.6 L 163.1 171.7 L 172.4 174.3 L 182.4 176.5 L 191.3 178.5 L 179.5 189.4 L 169.0 186.4 Z M 81.0 125.7 L 84.0 127.7 L 81.0 129.5 L 81.0 150.7 L 80.61135091781617 153.06722621917726 L 89.8 152.1 L 99.8 151.2 L 100.1 153.0 L 90.5 155.8 L 81.3 158.4 L 79.2184576034546 158.91453857421874 L 77.2 163.4 L 73.2 168.8 L 67.9 173.3 L 61.6 177.2 L 54.2 180.4 L 45.6 183.2 L 35.9 185.3 L 25.1 186.9 L 13.1 187.9 L 12.8 186.2 L 24.4 183.2 L 34.6 180.1 L 43.5 176.9 L 51.1 173.5 L 57.3 169.9 L 62.1 166.1 L 65.47118644714355 162.3322033882141 L 64.0 162.7 L 55.9 164.6 L 48.3 166.4 L 41.1 168.1 L 34.3 169.6 L 27.9 171.0 L 25.9 171.4333333015442 L 24.3 174.9 L 21.9 172.3 L 18.0 160.7 L 20.0 160.4 L 26.0 159.7 L 30.0 159.2692307472229 L 30.0 129.2 L 42.0 131.2 L 45.0 133.2 L 42.0 135.0 L 42.0 157.8794520378113 L 46.7 157.3 L 54.4 156.3 L 62.6 155.3 L 68.80971326828003 154.50573434829712 L 69.0 150.7 L 69.0 123.7 Z M 110.4 134.9 L 114.4 139.9 L 119.9 145.9 L 125.7 151.4 L 132.1 156.4 L 135.79704170227052 158.90094003677368 L 139.0 156.4 L 145.3 150.3 L 150.7 144.0 L 155.1 137.3 L 156.28260869979857 134.9 Z M 119.7 124.0 L 113.4 124.9 L 111.3 125.1 L 109.2 125.2 L 107.0 125.4 L 102.8 125.4 L 102.8 119.4 L 82.8 116.4 L 82.8 113.4 L 106.5 113.4 L 108.4 113.3 L 110.2 113.1 L 112.1 112.9 L 113.9 112.7 L 115.8 112.4 L 119.4 111.8 L 121.2 111.4 L 124.5 110.5 L 127.4 109.5 L 129.9 108.2 L 132.0 106.8 L 133.8 105.3 L 135.2 103.6 L 136.4 101.8 L 137.3 99.7 L 138.1 97.3 L 75.82950000762939 97.3 L 72.0 101.0 L 59.3 96.6 L 73.33589744567871 83.0 L 17.8 83.0 L 17.8 79.0 L 158.1 79.0 L 167.8 69.3 L 163.6 67.6 L 162.2 65.8 L 160.6 64.0 L 158.7 62.2 L 156.5 60.3 L 154.1 58.5 L 151.4 56.8 L 148.5 55.0 L 145.3 53.2 L 142.0 51.3 L 140.86133069992064 50.850525283813475 L 137.6 54.2 L 133.5 57.6 L 128.9 60.7 L 123.9 63.5 L 118.5 65.9 L 112.6 67.8 L 106.3 69.3 L 105.6 67.6 L 111.1 64.3 L 116.0 61.1 L 120.5 57.9 L 124.4 54.6 L 127.9 51.2 L 130.9 47.8 L 133.4 44.3 L 135.4 40.7 L 137.0 37.1 L 137.83683109283447 34.2091290473938 L 137.8 34.2 L 138.6 31.8 L 149.5 37.1 L 151.7 40.0 L 147.793932056427 40.82233009338379 L 147.3 41.9 L 144.6 46.3 L 142.74432134628296 48.6055401802063 L 146.7 49.1 L 150.5 49.8 L 154.1 50.6 L 157.5 51.6 L 160.8 52.8 L 163.8 54.1 L 166.7 55.6 L 169.5 57.2 L 172.0 59.1 L 173.8 63.3 L 172.1 67.6 L 168.24763402938842 69.12302837371826 L 180.1 79.0 L 180.1 83.0 L 90.63000001907349 83.0 L 79.96949996948243 93.3 L 138.5 93.3 L 144.5 88.3 L 155.5 97.3 L 150.5 100.3 L 149.52443885803223 100.70648374557496 L 148.6 103.9 L 146.9 107.5 L 144.8 110.8 L 142.2 113.8 L 139.3 116.4 L 135.9 118.6 L 132.2 120.5 L 128.2 122.0 L 123.9 123.1 L 121.8 123.6 Z M 152.57531833648682 15.004244995117187 L 164.7 25.2 L 165.2 28.2 L 160.46027641296388 25.50015745162964 L 153.4 26.0 L 142.0 26.5 L 130.2 26.9 L 118.1 27.4 L 105.6 27.8 L 103.0 27.880620193481445 L 103.0 73.0 L 91.0 79.0 L 91.0 28.23863639831543 L 79.5 28.5 L 65.9 28.8 L 52.0 29.0 L 37.7 29.0 L 23.0 28.8 L 22.9 27.1 L 37.5 25.3 L 51.7 23.7 L 65.5 22.3 L 79.0 21.0 L 92.2 19.7 L 105.0 18.5 L 117.4 17.4 L 129.5 16.2 L 141.2 15.1 L 152.5 14.0 Z M 66.7 62.7 L 65.6 61.3 L 64.1 59.7 L 62.2 58.1 L 60.0 56.4 L 57.4 54.7 L 54.4 52.9 L 52.030432510375974 51.49306926727295 L 49.2 54.4 L 45.0 58.0 L 40.3 61.2 L 35.3 64.2 L 29.8 66.8 L 23.9 69.0 L 17.5 70.8 L 16.8 69.1 L 22.2 65.6 L 27.2 62.1 L 31.7 58.7 L 35.7 55.2 L 39.3 51.6 L 42.4 48.1 L 45.0 44.4 L 47.2 40.7 L 49.0 36.9 L 50.3 33.1 L 50.34554920196533 33.116929817199704 L 50.9 31.7 L 61.6 37.3 L 63.7 40.2 L 59.73517465591431 40.95194959640503 L 59.2 42.0 L 56.3 46.4 L 54.27655715942383 48.899547004699706 L 55.8 49.1 L 59.4 49.7 L 62.7 50.5 L 65.7 51.4 L 68.6 52.5 L 71.2 53.6 L 73.6 55.0 L 75.8 56.6 L 77.7 58.4 L 78.6 62.9 L 76.1 66.7 L 71.6 67.6 L 67.8 65.1 L 67.5 64.0 Z " />
</g>
</svg>
