<svg xmlns="http://www.w3.org/2000/svg" xmlns:xlink="http://www.w3.org/1999/xlink" version="1.1" baseProfile="full" viewBox="0 0 200 200" width="200" height="200">
<g fill="black">
<path d="M 59.8 17.6 L 62.1 20.4 L 58.572727298736574 21.281818199157716 L 56.1 28.7 L 52.2 39.6 L 48.0 50.3 L 43.8 60.7 L 39.3 70.8 L 38.20015602111816 73.11669263839721 L 43.5 74.0 L 46.5 76.0 L 43.5 77.8 L 43.5 183.0 L 31.5 189.0 L 31.5 86.77346935272217 L 29.7 90.3 L 24.5 99.7 L 19.0 108.7 L 13.2 117.4 L 11.7 116.5 L 15.7 107.0 L 23.7 87.6 L 27.6 77.7 L 31.4 67.6 L 35.1 57.3 L 38.6 46.8 L 42.0 36.2 L 45.2 25.3 L 48.01960697174072 15.203987884521485 L 48.0 15.2 L 48.22439022064209 14.470731735229492 L 48.3 14.2 L 48.30705089569092 14.202084636688232 L 48.8 12.6 Z M 164.0 171.9 L 157.8 167.6 L 151.9 163.1 L 146.3 158.3 L 141.0 153.2 L 136.0 147.8 L 131.4 142.1 L 127.2 136.1 L 126.0 133.9666666984558 L 126.0 181.6 L 114.0 187.6 L 114.0 140.5384614944458 L 110.7 144.6 L 105.2 150.6 L 99.2 156.2 L 92.9 161.4 L 86.1 166.1 L 79.0 170.4 L 71.4 174.3 L 63.4 177.5 L 55.0 180.2 L 54.4 178.6 L 61.8 174.1 L 68.8 169.6 L 75.4 164.9 L 81.6 160.0 L 87.4 154.9 L 92.8 149.5 L 97.8 143.9 L 102.3 138.0 L 106.5 131.8 L 107.28235292434692 130.4 L 58.5 130.4 L 58.5 126.4 L 114.0 126.4 L 114.0 108.9 L 126.0 110.9 L 129.0 112.9 L 126.0 114.7 L 126.0 126.4 L 159.5 126.4 L 169.5 116.4 L 181.5 126.4 L 181.5 130.4 L 127.025 130.4 L 130.4 133.4 L 135.7 138.1 L 141.0 142.6 L 146.5 146.9 L 152.1 151.0 L 157.8 154.8 L 163.8 158.3 L 169.9 161.6 L 176.2 164.7 L 182.7 167.5 L 188.6 170.2 L 177.2 179.5 L 170.4 175.8 Z M 171.8 97.5 L 171.61267604827881 96.0014084815979 L 169.8 97.1 L 166.4 98.9 L 162.9 100.6 L 159.5 102.3 L 156.0 103.9 L 152.5 105.4 L 146.0221088409424 107.99115648269654 L 144.7 111.9 L 142.0 109.5 L 138.6481481552124 102.1259259223938 L 128.5 107.2 L 128.5 101.2 L 111.4 101.2 L 111.4 108.2 L 99.4 114.2 L 99.4 104.56363639831542 L 99.0 106.2 L 95.2 108.6 L 90.7 107.6 L 88.2 103.7 L 88.1 100.6 L 87.8 97.5 L 87.61267604827881 96.0014084815979 L 85.8 97.1 L 82.4 98.9 L 78.9 100.6 L 75.5 102.3 L 72.0 103.9 L 68.5 105.4 L 62.02210884094238 107.99115648269654 L 60.7 111.9 L 58.0 109.5 L 53.0 98.5 L 54.9 98.0 L 58.5 97.4 L 62.1 96.7 L 63.361111068725585 96.48981485366821 L 63.8 95.1 L 65.8 89.3 L 67.9 83.3 L 70.1 77.0 L 72.4 70.6 L 73.17058820724488 68.35524291992188 L 69.6 68.2 L 66.4 65.0 L 65.8 62.5 L 64.4 57.7 L 62.6 52.9 L 61.6 50.6 L 60.5 48.2 L 58.1 43.4 L 56.4 41.3 L 57.7 40.0 L 59.8 41.7 L 62.3 43.2 L 64.5 44.9 L 64.90930233001708 45.25348834991455 L 65.3 43.3 L 66.2 39.9 L 67.1 36.4 L 67.9 33.0 L 68.8 29.5 L 69.7 26.1 L 70.5 22.6 L 71.4 19.1 L 71.98923044204712 16.522116947174073 L 71.9 16.5 L 72.7 14.1 L 83.6 19.4 L 85.8 22.3 L 81.84329900741577 23.13298969268799 L 80.4 26.2 L 78.7 29.5 L 77.0 32.7 L 75.2 35.9 L 73.3 39.1 L 71.4 42.1 L 69.4 45.1 L 67.51877975463867 47.57979030609131 L 68.8 48.8 L 70.7 50.9 L 72.6 53.1 L 74.3 55.5 L 76.0 58.0 L 76.40685682296753 58.705218410491945 L 77.0 56.9 L 79.3 49.7 L 81.7 42.2 L 83.81063833236695 35.428368759155276 L 83.7 35.4 L 84.6 33.0 L 95.4 38.4 L 97.6 41.2 L 93.9677321434021 42.02841196060181 L 92.4 46.0 L 89.4 53.4 L 86.4 60.5 L 83.3 67.3 L 80.2 73.8 L 77.1 80.1 L 73.9 86.0 L 70.6 91.6 L 67.93404512405395 95.67734279632569 L 69.4 95.4 L 73.0 94.7 L 76.7 94.1 L 80.5 93.4 L 87.15612907409668 92.34903221130371 L 87.0 91.1 L 86.5 87.8 L 85.3 81.2 L 83.9 74.2 L 82.9 70.8 L 84.6 70.0 L 86.5 73.1 L 88.6 76.1 L 90.5 79.2 L 92.3 82.3 L 93.9 85.5 L 95.4 88.7 L 96.7 91.9 L 97.9 95.1 L 99.1 98.4 L 99.4 99.38999996185302 L 99.4 28.4 L 111.4 34.4 L 114.07692308425904 34.4 L 114.4 33.7 L 115.1 31.0 L 115.8 28.4 L 116.5 25.9 L 117.7 21.3 L 118.2 19.1 L 118.6 17.0 L 119.0 15.1 L 119.09929513931274 14.156696033477782 L 118.9 14.1 L 119.19433965682984 13.253773593902588 L 119.2 13.2 L 119.21155023574829 13.204293060302735 L 119.7 11.8 L 130.5 17.4 L 132.6 20.3 L 127.93085107803344 21.20106382369995 L 126.7 23.0 L 125.2 24.9 L 123.7 26.9 L 122.1 28.9 L 118.5 32.9 L 116.925 34.4 L 128.5 34.4 L 134.5 29.4 L 145.5 38.4 L 142.59467458724976 40.724260330200195 L 143.8 41.7 L 146.3 43.2 L 148.5 44.9 L 148.90930233001708 45.25348834991455 L 149.3 43.3 L 150.2 39.9 L 151.1 36.4 L 151.9 33.0 L 152.8 29.5 L 153.7 26.1 L 154.5 22.6 L 155.4 19.1 L 155.98923044204713 16.522116947174073 L 155.9 16.5 L 156.7 14.1 L 167.6 19.4 L 169.8 22.3 L 165.84329900741577 23.13298969268799 L 164.4 26.2 L 162.7 29.5 L 161.0 32.7 L 159.2 35.9 L 157.3 39.1 L 155.4 42.1 L 153.4 45.1 L 151.51877975463867 47.57979030609131 L 152.8 48.8 L 154.7 50.9 L 156.6 53.1 L 158.3 55.5 L 160.0 58.0 L 160.40685682296754 58.705218410491945 L 161.0 56.9 L 163.3 49.7 L 165.7 42.2 L 167.81063833236695 35.428368759155276 L 167.7 35.4 L 168.6 33.0 L 179.4 38.4 L 181.6 41.2 L 177.9677321434021 42.02841196060181 L 176.4 46.0 L 173.4 53.4 L 170.4 60.5 L 167.3 67.3 L 164.2 73.8 L 161.1 80.1 L 157.9 86.0 L 154.6 91.6 L 151.93404512405397 95.67734279632569 L 153.4 95.4 L 157.0 94.7 L 160.7 94.1 L 164.5 93.4 L 171.15612907409667 92.34903221130371 L 171.0 91.1 L 170.5 87.8 L 169.3 81.2 L 167.9 74.2 L 166.9 70.8 L 168.6 70.0 L 170.5 73.1 L 172.6 76.1 L 174.5 79.2 L 176.3 82.3 L 177.9 85.5 L 179.4 88.7 L 180.7 91.9 L 181.9 95.1 L 183.1 98.4 L 184.1 101.7 L 183.0 106.2 L 179.2 108.6 L 174.7 107.6 L 172.2 103.7 L 172.1 100.6 Z M 148.4 57.7 L 146.6 52.9 L 145.6 50.6 L 144.5 48.2 L 142.1 43.4 L 140.97976875305176 42.0161849975586 L 140.5 42.4 L 140.5 97.73333330154419 L 142.5 97.4 L 146.1 96.7 L 147.3611110687256 96.48981485366821 L 147.8 95.1 L 149.8 89.3 L 151.9 83.3 L 154.1 77.0 L 156.4 70.6 L 157.17058820724486 68.35524291992188 L 153.6 68.2 L 150.4 65.0 L 149.8 62.5 Z M 111.4 68.9 L 111.4 97.2 L 128.5 97.2 L 128.5 68.9 Z M 111.4 38.4 L 111.4 64.9 L 128.5 64.9 L 128.5 38.4 Z " />
</g>
</svg>
