<svg xmlns="http://www.w3.org/2000/svg" xmlns:xlink="http://www.w3.org/1999/xlink" version="1.1" baseProfile="full" viewBox="0 0 200 200" width="200" height="200">
<g fill="black">
<path d="M 155.0 100.7 L 150.0 103.7 L 148.59630031585692 104.28487482070923 L 145.79496850967408 136.1 L 156.0 136.1 L 166.0 126.1 L 178.0 136.1 L 178.0 140.1 L 145.44276733398436 140.1 L 142.17610063552857 177.2 L 160.0 177.2 L 170.0 167.2 L 182.0 177.2 L 182.0 181.2 L 21.0 181.2 L 21.0 177.2 L 64.17267084121704 177.2 L 71.08571424484253 140.1 L 25.0 140.1 L 25.0 136.1 L 71.83105592727661 136.1 L 78.42732915878295 100.7 L 33.0 100.7 L 33.0 96.7 L 138.0 96.7 L 144.0 91.7 Z M 83.38571424484253 140.1 L 76.47267084121704 177.2 L 130.09875774383545 177.2 L 133.78571424484252 140.1 Z M 90.72732915878296 100.7 L 84.1310559272766 136.1 L 134.18322982788087 136.1 L 137.70124225616456 100.7 Z M 158.1 81.4 L 149.4 75.8 L 141.0 69.5 L 132.9 62.8 L 125.1 55.5 L 117.7 47.6 L 110.6 39.1 L 103.9 30.0 L 101.85390863418579 26.74637928009033 L 99.2 30.6 L 91.3 40.7 L 83.0 50.1 L 74.2 58.9 L 64.9 67.1 L 55.1 74.6 L 44.9 81.5 L 34.2 87.7 L 23.0 93.1 L 11.3 97.8 L 10.6 96.1 L 21.2 89.8 L 31.4 83.1 L 41.2 76.1 L 50.4 68.7 L 59.3 60.7 L 67.6 52.3 L 75.5 43.4 L 82.9 34.0 L 89.8 24.1 L 96.3 13.6 L 96.32148275375366 13.613479328155517 L 96.8 12.8 L 106.5 20.0 L 108.0 23.2 L 104.29622640609742 23.2 L 103.81994428634644 23.891587734222412 L 107.2 27.4 L 115.0 35.2 L 122.8 42.5 L 130.7 49.3 L 138.8 55.5 L 147.0 61.3 L 155.4 66.4 L 163.9 71.1 L 172.6 75.2 L 181.5 78.8 L 187.9 81.5 L 176.4 91.1 L 167.1 86.5 Z M 133.0 74.0 L 133.0 78.0 L 64.0 78.0 L 64.0 74.0 L 111.0 74.0 L 121.0 64.0 Z " />
</g>
</svg>
