<svg xmlns="http://www.w3.org/2000/svg" xmlns:xlink="http://www.w3.org/1999/xlink" version="1.1" baseProfile="full" viewBox="0 0 200 200" width="200" height="200">
<g fill="black">
<path d="M 64.3 19.6 L 66.5 22.4 L 62.98510637283325 23.2159574508667 L 60.3 30.6 L 56.1 41.4 L 51.8 51.9 L 47.2 62.2 L 42.4 72.2 L 41.33416929244995 74.28902816772461 L 46.8 75.2 L 49.8 77.2 L 46.8 79.0 L 46.8 183.1 L 34.8 189.1 L 34.8 86.75 L 32.2 91.5 L 26.7 100.8 L 20.9 109.7 L 14.8 118.2 L 13.2 117.3 L 22.0 98.3 L 26.3 88.6 L 30.6 78.8 L 34.7 68.8 L 38.6 58.6 L 42.4 48.2 L 46.1 37.7 L 49.5 26.9 L 52.9 15.9 L 52.91811828613281 15.905880451202393 L 53.4 14.4 Z M 96.8 135.1 L 156.1 135.1 L 162.1 130.1 L 173.1 139.1 L 168.1 143.1 L 168.1 178.8 L 156.1 184.8 L 156.1 174.8 L 96.8 174.8 L 96.8 181.8 L 84.8 187.8 L 84.8 129.1 Z M 96.8 139.1 L 96.8 170.8 L 156.1 170.8 L 156.1 139.1 Z M 180.5 95.8 L 182.5 95.8 L 180.5 112.8 L 183.5 114.8 L 185.5 117.8 L 183.5 120.8 L 180.5 122.8 L 145.3 122.8 L 142.8 122.7 L 140.4 122.4 L 138.1 121.7 L 135.9 120.7 L 133.9 119.2 L 132.3 117.3 L 131.0 115.1 L 130.1 112.8 L 129.5 110.3 L 129.3 107.8 L 129.3 68.22727270126343 L 124.1 79.1 L 117.3 89.6 L 109.2 99.0 L 99.7 107.3 L 89.0 114.5 L 77.1 120.5 L 63.9 125.2 L 63.2 123.5 L 75.3 117.1 L 86.1 110.0 L 95.5 102.3 L 103.6 93.9 L 110.4 84.7 L 115.9 74.8 L 119.23644857406616 66.3 L 89.93108110427856 66.3 L 87.2 79.2 L 74.3 82.6 L 85.2 30.4 L 96.6 34.8 L 99.1 37.4 L 95.84127473831177 38.38376607894897 L 90.77792797088622 62.3 L 120.58521738052369 62.3 L 123.2 52.6 L 125.0 40.2 L 125.6 26.9 L 125.6 26.7 L 71.7 26.7 L 71.7 22.7 L 154.8 22.7 L 164.8 12.7 L 176.8 22.7 L 176.8 26.7 L 135.29230766296388 26.7 L 137.6 27.2 L 140.5 29.2 L 137.2492305755615 31.085446262359618 L 136.3 41.6 L 133.6 55.0 L 131.2825396537781 62.3 L 162.9 62.3 L 172.9 52.3 L 184.9 62.3 L 184.9 66.3 L 135.3 66.3 L 141.3 67.3 L 144.3 69.3 L 141.3 71.1 L 141.3 110.0 L 141.4 110.6 L 141.6 111.1 L 141.7 111.4 L 141.9 111.7 L 142.3 112.0 L 143.0 112.3 L 144.0 112.6 L 145.3 112.8 L 175.5 112.8 Z " />
</g>
</svg>
