<svg xmlns="http://www.w3.org/2000/svg" xmlns:xlink="http://www.w3.org/1999/xlink" version="1.1" baseProfile="full" viewBox="0 0 200 200" width="200" height="200">
<g fill="black">
<path d="M 122.0 176.0 L 142.0 176.0 L 143.2 175.9 L 144.1 175.7 L 145.0 175.4 L 145.4 175.0 L 145.7 174.1 L 145.9 173.2 L 146.0 172.0 L 146.0 151.0 L 54.0 151.0 L 54.0 183.0 L 42.0 189.0 L 42.0 89.0 L 54.0 95.0 L 146.0 95.0 L 152.0 90.0 L 163.0 99.0 L 158.0 103.0 L 158.0 172.0 L 157.8 174.5 L 157.4 177.0 L 156.6 179.4 L 155.3 181.7 L 153.7 183.7 L 151.7 185.3 L 149.4 186.6 L 147.0 187.4 L 144.5 187.8 L 142.0 188.0 L 142.0 182.0 L 122.0 179.0 Z M 54.0 125.0 L 54.0 147.0 L 146.0 147.0 L 146.0 125.0 Z M 54.0 99.0 L 54.0 121.0 L 146.0 121.0 L 146.0 99.0 Z M 160.7 74.0 L 152.0 69.3 L 143.4 64.1 L 135.1 58.4 L 126.9 52.3 L 119.0 45.6 L 111.3 38.5 L 104.0 30.7 L 99.61920528411865 25.50562915802002 L 97.3 28.2 L 90.0 35.9 L 82.1 43.2 L 73.6 50.3 L 64.7 57.1 L 55.1 63.7 L 45.1 69.9 L 34.4 75.7 L 23.2 81.2 L 11.4 86.2 L 10.5 84.6 L 21.4 77.9 L 31.7 71.1 L 41.5 64.3 L 50.7 57.5 L 59.4 50.4 L 67.6 43.3 L 75.2 35.9 L 82.2 28.5 L 88.7 20.8 L 94.08695650100708 13.678260898590088 L 95.0 12.4 L 104.1 20.3 L 105.3 23.7 L 101.56176357269287 23.248833560943602 L 101.36373291015624 23.478898525238037 L 106.8 27.7 L 115.2 34.0 L 123.5 39.9 L 131.8 45.5 L 140.2 50.6 L 148.6 55.3 L 157.1 59.5 L 165.7 63.3 L 174.4 66.6 L 183.1 69.6 L 190.4 72.1 L 178.8 82.0 L 169.7 78.3 Z M 146.0 69.4 L 146.0 73.4 L 53.0 73.4 L 53.0 69.4 L 124.0 69.4 L 134.0 59.4 Z " />
</g>
</svg>
