<svg xmlns="http://www.w3.org/2000/svg" xmlns:xlink="http://www.w3.org/1999/xlink" version="1.1" baseProfile="full" viewBox="0 0 200 200" width="200" height="200">
<g fill="black">
<path d="M 71.1 18.1 L 73.2 21.0 L 69.54135847091675 21.630800247192383 L 66.2 29.2 L 61.1 40.1 L 55.7 50.7 L 50.1 61.1 L 44.3 71.2 L 43.2103816986084 72.96839694976806 L 49.4 74.0 L 52.4 76.0 L 49.4 77.8 L 49.4 183.0 L 37.4 189.0 L 37.4 82.3 L 31.8 90.7 L 25.1 100.0 L 18.1 108.9 L 10.7 117.5 L 9.2 116.4 L 15.0 106.8 L 26.2 87.2 L 31.6 77.3 L 36.8 67.1 L 41.9 56.8 L 46.7 46.3 L 51.3 35.6 L 55.8 24.8 L 59.65331926345825 14.616227626800537 L 59.6 14.6 L 60.5 12.3 Z M 100.4 182.0 L 88.4 188.0 L 88.4 130.3 L 87.8 131.0 L 83.3 135.8 L 78.6 140.3 L 73.5 144.6 L 68.1 148.6 L 66.8 147.3 L 70.8 142.0 L 74.6 136.8 L 78.3 131.6 L 81.8 126.4 L 85.0 121.2 L 88.1 116.0 L 90.9 110.7 L 93.5 105.4 L 95.9 100.0 L 97.6500491142273 95.4165379524231 L 97.6 95.4 L 97.95227270126342 94.625 L 98.0 94.5 L 98.00762367248535 94.50322799682617 L 98.6 93.2 L 109.1 99.2 L 111.0 102.3 L 107.22438306808472 102.76367225646973 L 106.1 104.9 L 103.0 110.4 L 100.1037036895752 115.0 L 128.0235294342041 115.0 L 128.2 114.7 L 128.7 112.6 L 129.4 110.5 L 130.1 108.5 L 131.5 104.3 L 133.1 100.1 L 133.9 97.9 L 134.44316902160645 96.57225351333618 L 134.3 96.5 L 135.3 94.8 L 145.0 101.9 L 146.5 105.2 L 142.0666666984558 105.2 L 141.8 105.5 L 138.5 108.8 L 136.8 110.4 L 135.2 111.9 L 133.5 113.4 L 131.8 114.7 L 131.38461542129517 115.0 L 163.51818180084229 115.0 L 171.7 106.0 L 181.7 115.0 L 181.7 119.0 L 138.8 119.0 L 138.8 135.0 L 155.8181818008423 135.0 L 164.0 126.0 L 174.0 135.0 L 174.0 139.0 L 138.8 139.0 L 138.8 155.0 L 155.8181818008423 155.0 L 164.0 146.0 L 174.0 155.0 L 174.0 159.0 L 138.8 159.0 L 138.8 175.0 L 166.4 175.0 L 176.4 165.0 L 188.4 175.0 L 188.4 179.0 L 100.4 179.0 Z M 100.4 159.0 L 100.4 175.0 L 126.8 175.0 L 126.8 159.0 Z M 100.4 139.0 L 100.4 155.0 L 126.8 155.0 L 126.8 139.0 Z M 100.4 119.0 L 100.4 135.0 L 126.8 135.0 L 126.8 119.0 Z M 90.8 59.6 L 113.8 59.6 L 119.3 54.6 L 129.8 63.6 L 124.8 67.1 L 124.8 91.8 L 113.8 97.3 L 113.8 87.8 L 90.8 87.8 L 90.8 94.8 L 78.8 100.8 L 78.8 53.6 Z M 146.0 59.6 L 168.9 59.6 L 174.9 54.6 L 185.9 63.6 L 180.9 67.6 L 180.9 91.8 L 168.9 97.8 L 168.9 87.8 L 146.0 87.8 L 135.0 93.3 L 135.0 54.1 Z M 146.0 63.6 L 146.0 83.8 L 168.9 83.8 L 168.9 63.6 Z M 90.8 63.6 L 90.8 83.8 L 113.8 83.8 L 113.8 63.6 Z M 154.7 15.1 L 157.7 17.1 L 154.7 18.9 L 154.7 32.4 L 166.3 32.4 L 176.3 22.4 L 188.3 32.4 L 188.3 36.4 L 154.7 36.4 L 154.7 50.9 L 142.7 56.9 L 142.7 36.4 L 117.1 36.4 L 117.1 50.9 L 105.1 56.9 L 105.1 36.4 L 71.4 36.4 L 71.4 32.4 L 105.1 32.4 L 105.1 13.1 L 117.1 15.1 L 120.1 17.1 L 117.1 18.9 L 117.1 32.4 L 142.7 32.4 L 142.7 13.1 Z " />
</g>
</svg>
