<svg xmlns="http://www.w3.org/2000/svg" xmlns:xlink="http://www.w3.org/1999/xlink" version="1.1" baseProfile="full" viewBox="0 0 200 200" width="200" height="200">
<g fill="black">
<path d="M 40.0 182.2 L 28.0 188.2 L 28.0 132.7 L 40.0 134.7 L 43.0 136.7 L 40.0 138.5 L 40.0 171.2 L 94.0 171.2 L 94.0 117.9 L 106.0 119.9 L 109.0 121.9 L 106.0 123.7 L 106.0 171.2 L 160.0 171.2 L 160.0 132.7 L 172.0 134.7 L 175.0 136.7 L 172.0 138.5 L 172.0 179.2 L 160.0 185.2 L 160.0 175.2 L 40.0 175.2 Z M 65.9 18.9 L 67.6 22.1 L 63.82289724349975 22.16401872634888 L 61.7 25.5 L 57.2 32.0 L 52.5 38.4 L 47.6 44.5 L 42.698540115356444 50.266423320770265 L 47.7 51.1 L 50.7 53.1 L 47.7 54.9 L 47.7 115.5 L 35.7 121.5 L 35.7 57.9 L 31.6 62.0 L 25.8 67.4 L 19.7 72.6 L 13.3 77.4 L 12.0 76.1 L 17.0 69.9 L 21.9 63.7 L 26.7 57.6 L 31.4 51.5 L 35.8 45.3 L 40.1 39.0 L 44.3 32.6 L 48.2 26.2 L 52.0 19.6 L 55.02398767471313 13.811223602294922 L 55.0 13.8 L 56.0 12.0 Z M 169.9 98.2 L 170.4 93.7 L 170.8 88.6 L 171.2 83.0 L 171.4 77.0 L 171.7 70.4 L 171.8 63.3 L 171.9 55.8 L 171.97530860900878 49.7 L 77.64242420196533 49.7 L 75.9 52.0 L 75.45494508743286 52.527472496032715 L 85.8 57.7 L 144.2 57.7 L 150.2 52.7 L 161.2 61.7 L 156.2 65.7 L 156.2 104.5 L 156.0 107.0 L 155.6 109.5 L 155.21599998474122 110.7 L 163.0 110.7 L 164.2 110.6 L 165.2 110.4 L 166.0 110.2 L 166.6 109.9 L 167.1 109.6 L 167.5 109.2 L 167.8 108.7 L 168.2 108.0 L 168.6 107.0 L 168.9 105.7 L 169.4 102.2 Z M 85.8 77.3 L 85.8 89.3 L 109.0 89.3 L 109.0 77.3 Z M 121.0 77.3 L 121.0 89.3 L 144.2 89.3 L 144.2 77.3 Z M 85.8 61.7 L 85.8 73.3 L 109.0 73.3 L 109.0 61.7 Z M 121.0 61.7 L 121.0 73.3 L 144.2 73.3 L 144.2 61.7 Z M 151.8 15.1 L 154.8 17.1 L 151.8 18.9 L 151.8 24.6 L 165.7 24.6 L 175.7 14.6 L 187.7 24.6 L 187.7 28.6 L 151.8 28.6 L 151.8 35.7 L 139.8 41.7 L 139.8 28.6 L 112.1 28.6 L 112.1 35.7 L 100.1 41.7 L 100.1 28.6 L 64.2 28.6 L 64.2 24.6 L 100.1 24.6 L 100.1 13.1 L 112.1 15.1 L 115.1 17.1 L 112.1 18.9 L 112.1 24.6 L 139.8 24.6 L 139.8 13.1 Z M 179.2 112.8 L 178.0 115.0 L 176.5 117.0 L 174.7 118.8 L 172.7 120.3 L 170.4 121.4 L 168.0 122.1 L 165.5 122.5 L 163.0 122.7 L 163.0 116.7 L 152.73214282989503 115.15982141494752 L 151.9 116.2 L 149.9 117.9 L 147.6 119.1 L 145.2 119.9 L 142.7 120.4 L 140.2 120.5 L 140.2 114.5 L 126.2 111.5 L 126.2 108.5 L 140.2 108.5 L 141.4 108.4 L 142.3 108.3 L 142.9 108.1 L 143.2 107.9 L 143.4 107.7 L 143.6 107.6 L 143.7 107.2 L 143.9 106.6 L 144.1 105.7 L 144.2 104.5 L 144.2 93.3 L 121.0 93.3 L 121.0 109.3 L 109.0 115.3 L 109.0 93.3 L 85.8 93.3 L 85.8 112.9 L 73.8 118.9 L 73.8 54.48888893127442 L 73.2 55.2 L 70.2 58.4 L 67.1 61.5 L 63.8 64.5 L 56.6 70.1 L 55.3 68.8 L 57.9 65.1 L 60.2 61.3 L 62.5 57.7 L 64.6 54.1 L 68.4 47.1 L 70.0 43.7 L 71.5 40.2 L 72.9 36.8 L 73.76461753845214 34.42230167388916 L 73.7 34.4 L 74.6 32.3 L 85.0 38.3 L 87.0 41.4 L 82.94371004104615 41.889552211761476 L 80.8 45.3 L 80.51764707565307 45.7 L 172.0 45.7 L 178.0 40.7 L 189.0 49.7 L 184.0 52.7 L 183.9379524230957 52.72585315704346 L 183.9 55.8 L 183.8 63.5 L 183.7 70.7 L 183.4 77.4 L 183.1 83.7 L 182.8 89.4 L 182.4 94.7 L 181.9 99.6 L 181.3 104.0 L 180.7 107.9 L 180.1 110.4 Z " />
</g>
</svg>
