<svg xmlns="http://www.w3.org/2000/svg" xmlns:xlink="http://www.w3.org/1999/xlink" version="1.1" baseProfile="full" viewBox="0 0 200 200" width="200" height="200">
<g fill="black">
<path d="M 72.6 18.0 L 74.7 20.9 L 71.11118364334106 21.592578601837157 L 68.0 29.1 L 63.1 40.0 L 58.0 50.6 L 52.7 61.0 L 47.1 71.1 L 45.98803682327271 72.99800615310669 L 52.0 74.0 L 55.0 76.0 L 52.0 77.8 L 52.0 183.0 L 40.0 189.0 L 40.0 83.08000001907348 L 35.3 90.6 L 28.9 99.9 L 22.2 108.9 L 15.2 117.5 L 13.7 116.4 L 19.1 106.8 L 24.4 97.1 L 29.6 87.3 L 34.7 77.3 L 39.6 67.2 L 44.4 56.9 L 48.9 46.4 L 53.3 35.8 L 57.4 24.9 L 61.068639087677 14.719526672363282 L 61.0 14.7 L 61.9 12.4 Z M 186.3 141.0 L 188.3 141.0 L 186.3 166.0 L 189.9 168.4 L 192.3 172.0 L 189.9 175.6 L 186.3 178.0 L 151.0 178.0 L 148.5 177.8 L 146.0 177.4 L 143.6 176.6 L 141.3 175.3 L 139.3 173.7 L 137.6 171.7 L 136.4 169.4 L 135.6 167.0 L 135.2 164.5 L 135.0 162.0 L 135.0 81.78000001907348 L 131.3 84.0 L 130.625 84.28125 L 128.9 96.5 L 125.8 112.1 L 121.9 126.3 L 117.2 139.2 L 111.8 150.6 L 105.5 160.6 L 98.5 169.1 L 90.6 176.0 L 82.1 181.3 L 72.9 184.8 L 72.2 183.1 L 80.1 178.0 L 87.2 171.9 L 93.5 164.8 L 99.2 156.4 L 104.2 146.8 L 108.6 135.8 L 109.6478515625 132.3166015625 L 109.1 132.8 L 104.5 132.4 L 101.5 128.9 L 100.9 125.9 L 100.1 122.9 L 99.2 120.0 L 98.2 117.1 L 97.0 114.2 L 95.7 111.4 L 94.3 108.6 L 92.7 105.8 L 91.97530603408813 104.48649215698242 L 89.0 111.0 L 84.9 118.3 L 80.3 124.8 L 75.3 130.5 L 73.9 129.4 L 77.1 122.8 L 80.1 115.8 L 83.0 108.4 L 85.6 100.3 L 88.0 91.7 L 90.1 82.5 L 92.0 72.7 L 93.6 62.2 L 94.9 51.1 L 95.82304439544677 40.300380897521975 L 95.8 40.3 L 95.92580642700196 39.0 L 73.9 39.0 L 73.9 35.0 L 167.0 35.0 L 177.0 25.0 L 189.0 35.0 L 189.0 39.0 L 141.0 39.0 L 147.0 40.0 L 150.0 42.0 L 147.0 43.8 L 147.0 99.46486482620239 L 148.0 98.6 L 151.7 95.5 L 155.3 92.4 L 158.9 89.4 L 162.4 86.5 L 165.8 83.5 L 172.4 77.7 L 174.85133018493653 75.55508604049683 L 174.8 75.5 L 175.7 74.8 L 183.0 84.3 L 183.3 87.9 L 179.6175965309143 86.49399137496948 L 179.3 86.7 L 175.5 89.2 L 167.7 94.0 L 163.6 96.3 L 159.4 98.6 L 155.1 100.8 L 150.7 102.9 L 147.0 104.54444446563721 L 147.0 162.0 L 147.1 163.2 L 147.3 164.1 L 147.6 165.0 L 148.0 165.4 L 148.9 165.7 L 149.8 165.9 L 151.0 166.0 L 180.3 166.0 Z M 100.11584157943726 81.0 L 99.1 84.8 L 96.1 94.2 L 93.37270431518554 101.17866830825805 L 96.0 102.9 L 98.6 105.1 L 101.1 107.5 L 103.5 110.1 L 105.7 112.8 L 107.7 115.7 L 109.6 118.7 L 111.4 121.9 L 112.23121328353882 123.72866926193237 L 112.3 123.5 L 115.3 109.9 L 117.6 94.8 L 119.03048782348633 81.0 Z M 102.53636360168457 39.0 L 107.9 40.5 L 110.7 42.8 L 107.35519371032714 44.377738857269286 L 106.2 52.6 L 104.2 63.9 L 101.8 74.7 L 101.18514852523803 77.0 L 119.3 77.0 L 125.3 72.0 L 135.0 79.93636360168458 L 135.0 39.0 Z " />
</g>
</svg>
