<svg xmlns="http://www.w3.org/2000/svg" xmlns:xlink="http://www.w3.org/1999/xlink" version="1.1" baseProfile="full" viewBox="0 0 200 200" width="200" height="200">
<g fill="black">
<path d="M 62.6 19.7 L 64.7 22.6 L 61.17638168334961 23.34181442260742 L 58.3 30.7 L 53.8 41.5 L 49.1 52.0 L 44.2 62.3 L 39.0 72.3 L 37.94992198944092 74.24165363311768 L 43.7 75.2 L 46.7 77.2 L 43.7 79.0 L 43.7 183.1 L 31.7 189.1 L 31.7 85.49285717010498 L 28.1 91.6 L 22.2 100.9 L 16.0 109.8 L 9.4 118.3 L 7.9 117.3 L 12.7 107.8 L 17.5 98.2 L 22.3 88.5 L 26.9 78.7 L 31.4 68.7 L 35.7 58.5 L 39.9 48.1 L 43.8 37.5 L 47.6 26.7 L 50.90253744125366 16.70065059661865 L 50.9 16.7 L 51.7 14.3 Z M 173.2 155.0 L 169.8 147.9 L 166.7 140.2 L 163.8 132.1 L 161.2 123.5 L 159.0 114.7956521987915 L 159.0 182.0 L 147.0 188.0 L 147.0 121.46571426391601 L 145.4 125.9 L 141.6 135.0 L 137.5 143.6 L 133.1 151.5 L 128.3 158.9 L 123.1 165.6 L 122.52105264663696 166.22105264663696 L 125.3 169.0 L 125.3 173.0 L 59.4 173.0 L 59.4 169.0 L 86.0 169.0 L 86.0 38.0 L 62.6 38.0 L 62.6 34.0 L 99.4 34.0 L 109.4 24.0 L 121.4 34.0 L 121.4 38.0 L 98.0 38.0 L 98.0 169.0 L 114.8 169.0 L 119.3 163.0 L 119.8944444656372 163.5944444656372 L 120.0 163.4 L 123.7 156.1 L 127.2 148.5 L 130.6 140.4 L 133.7 131.9 L 136.6 122.9 L 139.3 113.4 L 141.7 103.4 L 143.9 92.9 L 145.17676763534547 85.0 L 118.1 85.0 L 118.1 81.0 L 147.0 81.0 L 147.0 43.8 L 141.2 46.1 L 135.1 48.1 L 128.9 49.6 L 122.5 50.8 L 121.9 49.1 L 127.6 46.1 L 133.1 43.1 L 138.4 40.1 L 143.6 37.1 L 148.5 33.9 L 153.3 30.6 L 157.8 27.2 L 162.2 23.7 L 166.4 20.0 L 169.64278984069824 16.840358638763426 L 169.6 16.8 L 170.5 16.0 L 178.4 25.1 L 178.9 28.6 L 175.28365650177003 27.502181434631346 L 173.6 28.8 L 168.6 32.3 L 163.5 35.5 L 158.2 38.5 L 157.217857170105 39.0 L 159.0 39.0 L 159.0 81.0 L 165.8 81.0 L 175.8 71.0 L 187.8 81.0 L 187.8 85.0 L 159.0 85.0 L 159.0 92.58787879943847 L 159.4 93.8 L 162.6 103.4 L 165.8 112.4 L 169.1 120.8 L 172.5 128.8 L 176.0 136.1 L 179.7 142.9 L 183.5 149.2 L 187.4 154.8 L 191.4 160.0 L 191.6 160.2 L 180.9 167.9 L 176.9 161.7 Z " />
</g>
</svg>
