<svg xmlns="http://www.w3.org/2000/svg" xmlns:xlink="http://www.w3.org/1999/xlink" version="1.1" baseProfile="full" viewBox="0 0 200 200" width="200" height="200">
<g fill="black">
<path d="M 79.7 18.3 L 81.6 21.4 L 77.94541549682617 21.841070556640624 L 74.2 29.4 L 68.4 40.3 L 62.4 50.9 L 56.1 61.3 L 49.5 71.4 L 48.47280969619751 72.89546823501587 L 55.1 74.0 L 58.1 76.0 L 55.1 77.8 L 55.1 183.0 L 43.1 189.0 L 43.1 80.71764707565308 L 42.7 81.3 L 35.5 90.8 L 28.1 100.1 L 20.2 109.0 L 12.0 117.5 L 10.6 116.4 L 17.2 106.7 L 23.8 96.9 L 30.1 87.1 L 36.3 77.1 L 42.3 66.9 L 48.1 56.6 L 53.6 46.1 L 58.9 35.4 L 63.9 24.5 L 68.30938653945923 14.30329351425171 L 68.3 14.3 L 68.41764707565308 14.052941131591798 L 68.7 13.4 L 68.72357139587402 13.410499954223633 L 69.3 12.2 Z M 96.3 23.0 L 170.7 23.0 L 176.7 18.0 L 187.7 27.0 L 182.7 31.0 L 182.7 48.0 L 172.1472972869873 53.276351356506346 L 180.1 60.0 L 180.4 63.0 L 176.2 61.13999996185303 L 173.6 61.9 L 166.7 63.6 L 159.8 65.0 L 152.7 66.3 L 145.5 67.4 L 145.3 67.42432432174682 L 145.3 83.4 L 164.0 83.4 L 170.0 78.4 L 181.0 87.4 L 176.0 91.4 L 176.0 116.2 L 164.0 122.2 L 164.0 112.2 L 145.3 112.2 L 145.3 132.2 L 171.8 132.2 L 177.8 127.2 L 188.8 136.2 L 183.8 140.2 L 183.8 172.2 L 183.7 174.8 L 183.2 177.3 L 182.4 179.7 L 181.2 182.0 L 179.6 184.0 L 177.5 185.6 L 175.3 186.8 L 172.9 187.6 L 170.4 188.1 L 167.8 188.2 L 167.8 182.2 L 151.8 179.2 L 151.8 176.2 L 169.0 176.2 L 170.0 176.0 L 170.5 175.8 L 171.1 175.5 L 171.2 175.3 L 171.4 175.0 L 171.6 174.4 L 171.7 173.5 L 171.8 172.2 L 171.8 136.2 L 145.3 136.2 L 145.3 155.4063829421997 L 147.1 155.1 L 151.9 154.5 L 156.6 153.9 L 157.73962268829345 153.80503149032592 L 157.3 151.9 L 156.5 149.2 L 155.8 146.4 L 154.9 143.6 L 153.6 140.9 L 155.1 139.9 L 157.1 142.2 L 159.3 144.4 L 161.3 146.7 L 163.1 149.1 L 164.8 151.5 L 166.4 154.1 L 167.8 156.7 L 169.1 159.4 L 170.3 162.1 L 171.4 164.9 L 170.5 169.4 L 166.7 172.0 L 162.2 171.1 L 159.6 167.3 L 159.5 164.8 L 159.2 162.3 L 158.9 159.7 L 158.40289974212646 157.11507873535157 L 157.7 157.5 L 153.3 159.6 L 148.8 161.4 L 144.2 163.2 L 139.6 164.8 L 130.0 167.8 L 120.2 170.4 L 119.20184011459351 170.65443296432494 L 117.6 174.3 L 115.1 171.7 L 111.1 160.2 L 113.0 159.9 L 118.1 159.3 L 123.0 158.6 L 127.9 158.0 L 132.8 157.3 L 133.3 157.22708330154418 L 133.3 136.2 L 108.0 136.2 L 108.0 183.1 L 96.0 189.1 L 96.0 126.2 L 108.0 132.2 L 133.3 132.2 L 133.3 112.2 L 114.1 112.2 L 114.1 119.2 L 102.1 125.2 L 102.1 77.4 L 114.1 83.4 L 133.3 83.4 L 133.3 68.74799995422363 L 130.6 69.0 L 123.0 69.5 L 115.2 69.7 L 107.3 69.7 L 99.2 69.2 L 99.1 67.4 L 107.0 65.9 L 114.7 64.4 L 122.2 63.0 L 129.5 61.5 L 136.7 59.9 L 143.7 58.3 L 150.6 56.5 L 157.3 54.6 L 163.8 52.6 L 169.11733779907226 50.74315185546875 L 169.1 50.7 L 169.14118852615357 50.734823036193845 L 170.1 50.4 L 170.56939859390258 51.94230976104736 L 170.7 52.05272731781006 L 170.7 48.0 L 96.3 48.0 L 96.3 72.0 L 95.8 88.0 L 94.8 103.1 L 93.2 117.3 L 91.2 130.4 L 88.7 142.5 L 85.6 153.7 L 82.0 163.8 L 77.9 172.9 L 73.1 180.8 L 67.8 187.5 L 66.3 186.4 L 69.8 178.9 L 73.0 170.7 L 75.8 161.7 L 78.3 151.7 L 80.4 140.9 L 82.0 129.0 L 83.3 116.2 L 84.1 102.4 L 84.4 87.7 L 84.3 72.0 L 84.3 17.0 Z M 114.1 87.4 L 114.1 108.2 L 133.3 108.2 L 133.3 87.4 Z M 145.3 87.4 L 145.3 108.2 L 164.0 108.2 L 164.0 87.4 Z M 96.3 27.0 L 96.3 44.0 L 170.7 44.0 L 170.7 27.0 Z " />
</g>
</svg>
