<svg xmlns="http://www.w3.org/2000/svg" xmlns:xlink="http://www.w3.org/1999/xlink" version="1.1" baseProfile="full" viewBox="0 0 200 200" width="200" height="200">
<g fill="black">
<path d="M 17.0 177.6 L 94.0 177.6 L 94.0 155.6 L 37.0 155.6 L 37.0 151.6 L 144.8181818008423 151.6 L 153.0 142.6 L 163.0 151.6 L 163.0 155.6 L 106.0 155.6 L 106.0 177.6 L 161.0 177.6 L 171.0 167.6 L 183.0 177.6 L 183.0 181.6 L 17.0 181.6 Z M 85.8 115.8 L 88.5 118.2 L 84.47793102264404 119.91310348510743 L 84.0 121.4 L 80.8 126.3 L 76.6 130.7 L 71.4 134.5 L 65.2 137.9 L 58.1 140.9 L 49.9 143.7 L 40.7 146.1 L 30.5 148.1 L 19.1 149.7 L 18.8 148.0 L 29.5 144.4 L 39.2 141.0 L 47.7 137.5 L 55.0 134.0 L 61.1 130.5 L 66.0 126.9 L 69.7 123.4 L 72.1 120.1 L 73.4 117.1 L 73.72735233306885 115.2013563156128 L 73.7 115.2 L 74.1 112.2 Z M 125.6 141.0 L 123.3 140.8 L 121.0 140.2 L 118.9 139.3 L 116.9 137.9 L 115.2 136.2 L 113.9 134.1 L 112.9 131.9 L 112.3 129.5 L 112.0 126.9 L 112.0 112.5 L 124.0 114.5 L 127.0 116.5 L 124.0 118.3 L 124.0 126.9 L 123.8 128.2 L 123.8 129.9 L 124.0 130.9 L 124.2 131.3 L 124.7 131.8 L 125.4 132.2 L 126.5 132.6 L 128.0 132.9 L 169.0 132.9 L 173.0 123.9 L 175.0 123.9 L 173.0 132.9 L 175.4 134.5 L 177.0 136.9 L 175.4 139.3 L 173.0 140.9 L 128.0 140.9 Z M 17.6 125.7 L 17.9 121.2 L 21.2 118.1 L 23.1 117.7 L 24.8 117.3 L 26.4 116.6 L 27.9 115.7 L 29.3 114.6 L 30.6 113.1 L 31.8 111.3 L 32.9 109.0 L 33.8 106.4 L 34.0 103.4 L 35.8 103.3 L 36.1 106.5 L 36.21666669845581 107.2 L 95.5 107.2 L 95.5 92.0 L 107.5 94.0 L 110.5 96.0 L 107.5 97.8 L 107.5 107.2 L 168.8 107.2 L 169.7529411315918 106.40588235855103 L 169.9 106.2 L 170.7 104.9 L 171.07832622528076 105.30139484405518 L 174.8 102.2 L 185.8 111.2 L 180.8 114.2 L 168.8 119.2 L 168.8 118.72916669845581 L 166.9 119.6 L 164.4 120.8 L 161.7 121.9 L 158.8 123.0 L 156.0 124.6 L 155.0 123.1 L 157.4 121.1 L 159.5 118.7 L 161.4 116.6 L 163.2 114.6 L 164.9 112.7 L 166.0666666984558 111.2 L 36.65666666030884 111.2 L 36.7 112.5 L 36.4 115.4 L 35.6 118.2 L 34.4 120.9 L 32.7 123.4 L 30.6 125.7 L 28.1 127.7 L 25.2 129.4 L 20.7 129.1 Z M 70.3 19.7 L 71.4 23.1 L 67.64796457290649 22.517787647247314 L 65.5 24.8 L 60.5 29.9 L 55.2 34.8 L 49.7 39.5 L 45.48023948669434 42.846706581115725 L 50.0 43.6 L 53.0 45.6 L 50.0 47.4 L 50.0 93.3 L 38.0 99.3 L 38.0 48.525 L 37.9 48.6 L 31.7 52.9 L 25.2 57.0 L 18.4 60.8 L 11.4 64.3 L 10.4 62.8 L 16.3 57.6 L 22.1 52.6 L 27.7 47.7 L 33.1 42.7 L 38.4 37.7 L 43.4 32.7 L 48.1 27.6 L 52.7 22.5 L 57.0 17.3 L 60.452711772918704 12.83673849105835 L 60.4 12.8 L 61.5 11.5 Z M 68.2 87.2 L 116.9 87.2 L 116.9 57.0 L 61.8 57.0 L 61.8 53.0 L 116.9 53.0 L 116.9 31.563157939910887 L 109.9 32.3 L 100.0 33.1 L 89.7 33.7 L 79.2 34.0 L 68.3 34.0 L 68.2 32.2 L 78.8 30.2 L 89.2 28.4 L 99.2 26.6 L 108.8 24.8 L 118.1 22.9 L 127.1 21.1 L 135.7 19.1 L 144.0 17.1 L 152.0 15.0 L 159.6 12.8 L 159.954039478302 14.228366279602051 L 170.0 22.6 L 170.3 25.6 L 166.09899978637696 23.58825340270996 L 162.5 24.5 L 154.5 26.1 L 146.2 27.6 L 137.6 29.0 L 128.9 30.173033714294434 L 128.9 53.0 L 162.0 53.0 L 172.0 43.0 L 184.0 53.0 L 184.0 57.0 L 128.9 57.0 L 128.9 87.2 L 155.6 87.2 L 165.6 77.2 L 177.6 87.2 L 177.6 91.2 L 68.2 91.2 Z " />
</g>
</svg>
