<svg xmlns="http://www.w3.org/2000/svg" xmlns:xlink="http://www.w3.org/1999/xlink" version="1.1" baseProfile="full" viewBox="0 0 200 200" width="200" height="200">
<g fill="black">
<path d="M 15.0 177.7 L 48.0 177.7 L 48.0 136.5 L 60.0 138.5 L 63.0 140.5 L 60.0 142.3 L 60.0 177.7 L 99.0 177.7 L 99.0 118.2 L 111.0 120.2 L 114.0 122.2 L 111.0 124.0 L 111.0 145.1 L 152.0 145.1 L 162.0 135.1 L 174.0 145.1 L 174.0 149.1 L 111.0 149.1 L 111.0 177.7 L 165.0 177.7 L 175.0 167.7 L 187.0 177.7 L 187.0 181.7 L 15.0 181.7 Z M 70.6 20.8 L 72.1 24.1 L 68.35446901321411 23.973032855987547 L 66.0 27.3 L 61.1 33.5 L 55.9 39.6 L 50.6 45.6 L 45.52673263549805 50.85445547103882 L 50.6 51.7 L 53.6 53.7 L 50.6 55.5 L 50.6 113.8 L 38.6 119.8 L 38.6 57.45 L 33.1 62.4 L 26.7 67.6 L 20.1 72.5 L 13.1 77.1 L 12.0 75.7 L 17.6 69.6 L 23.1 63.6 L 28.5 57.7 L 33.7 51.7 L 38.7 45.7 L 43.5 39.6 L 48.1 33.4 L 52.4 27.1 L 56.6 20.8 L 60.080916023254396 15.143511486053466 L 60.0 15.1 L 61.1 13.5 Z M 167.8 107.7 L 161.7 104.2 L 155.8 100.6 L 150.3 96.7 L 145.0 92.5 L 140.1 88.1 L 135.5 83.5 L 131.3 78.5 L 130.0 76.58611106872559 L 130.0 113.3 L 118.0 119.3 L 118.0 82.5 L 114.5 86.0 L 109.1 90.7 L 103.2 95.1 L 96.9 99.1 L 90.3 102.8 L 83.3 106.2 L 75.9 109.1 L 68.1 111.5 L 59.9 113.5 L 59.3 111.8 L 66.7 108.0 L 73.6 104.2 L 80.2 100.3 L 86.4 96.3 L 92.2 92.1 L 97.5 87.8 L 102.4 83.2 L 106.9 78.4 L 110.6653060913086 73.9 L 63.3 73.9 L 63.3 69.9 L 118.0 69.9 L 118.0 53.0 L 130.0 55.0 L 133.0 57.0 L 130.0 58.8 L 130.0 69.9 L 162.6 69.9 L 172.6 59.9 L 184.6 69.9 L 184.6 73.9 L 131.82285718917848 73.9 L 134.2 75.5 L 139.3 79.0 L 144.5 82.5 L 149.8 85.7 L 155.3 88.8 L 161.0 91.7 L 166.8 94.4 L 172.8 97.0 L 179.0 99.3 L 185.4 101.5 L 192.4 104.1 L 180.9 113.9 L 174.2 110.9 Z M 92.2 22.1 L 155.7 22.1 L 161.7 17.1 L 172.7 26.1 L 167.7 30.1 L 167.7 53.7 L 155.7 59.7 L 155.7 51.7 L 92.2 51.7 L 92.2 54.7 L 80.2 60.7 L 80.2 16.1 Z M 92.2 26.1 L 92.2 47.7 L 155.7 47.7 L 155.7 26.1 Z " />
</g>
</svg>
