<svg xmlns="http://www.w3.org/2000/svg" xmlns:xlink="http://www.w3.org/1999/xlink" version="1.1" baseProfile="full" viewBox="0 0 200 200" width="200" height="200">
<g fill="black">
<path d="M 71.8 21.6 L 73.8 24.5 L 70.21708488464355 25.128581619262697 L 67.0 32.3 L 62.1 42.8 L 56.9 53.0 L 51.5 63.0 L 45.8 72.8 L 44.80572338104248 74.40095386505126 L 50.8 75.4 L 53.8 77.4 L 50.8 79.2 L 50.8 180.4 L 38.8 186.4 L 38.8 83.95 L 33.7 91.6 L 27.3 100.5 L 20.5 109.2 L 13.3 117.4 L 11.9 116.3 L 17.4 107.0 L 22.8 97.6 L 28.2 88.1 L 33.4 78.5 L 38.4 68.7 L 43.2 58.8 L 47.9 48.7 L 52.3 38.3 L 56.6 27.8 L 60.25420560836792 18.11635513305664 L 60.2 18.1 L 61.1 15.8 Z M 138.8 157.0 L 148.8 157.0 L 150.0 156.9 L 151.0 156.8 L 151.5 156.6 L 151.9 156.4 L 152.2 156.1 L 152.4 155.7 L 152.6 155.1 L 152.7 154.2 L 152.8 153.0 L 152.8 123.4 L 131.5 123.4 L 131.5 181.7 L 119.5 187.7 L 119.5 123.4 L 98.1 123.4 L 98.1 162.8 L 86.1 168.8 L 86.1 113.4 L 98.1 119.4 L 119.5 119.4 L 119.5 100.6 L 131.5 102.6 L 134.5 104.6 L 131.5 106.4 L 131.5 119.4 L 152.8 119.4 L 158.8 114.4 L 169.8 123.4 L 164.8 127.4 L 164.8 153.0 L 164.7 155.5 L 164.2 158.0 L 163.4 160.4 L 162.2 162.7 L 160.6 164.7 L 158.5 166.4 L 156.3 167.6 L 153.9 168.4 L 151.4 168.8 L 148.8 169.0 L 148.8 163.0 L 138.8 160.0 Z M 71.6 119.2 L 69.2 115.3 L 70.0 110.8 L 71.2 109.7 L 72.3 108.4 L 73.3 106.8 L 74.3 104.9 L 75.1 102.8 L 75.9 100.5 L 76.5 97.8 L 77.1 95.0 L 77.6 91.8 L 77.5 88.5 L 79.2 88.2 L 80.0 91.6 L 80.41935482025147 92.9 L 170.9 92.9 L 176.9 87.9 L 187.9 96.9 L 182.9 99.9 L 180.77619047164916 100.78492059707642 L 180.4 101.6 L 176.8 108.8 L 175.5 111.1 L 174.1 113.4 L 172.7 115.5 L 171.2 117.6 L 170.1 119.8 L 168.4 119.2 L 168.9 116.8 L 169.0 114.3 L 169.2 111.7 L 169.4 109.2 L 170.0 104.0 L 170.2 101.4 L 170.5 98.8 L 170.7111110687256 96.9 L 81.56774196624755 96.9 L 81.8 97.8 L 82.2 100.8 L 82.5 103.8 L 82.5 106.7 L 82.3 109.5 L 81.8 112.3 L 81.0 114.9 L 80.0 117.5 L 76.1 120.0 Z M 167.0 31.7 L 162.0 35.7 L 162.0 50.4 L 166.3181818008423 50.4 L 174.5 41.4 L 184.5 50.4 L 184.5 54.4 L 162.0 54.4 L 162.0 78.0 L 150.0 84.0 L 150.0 78.0 L 87.9 78.0 L 87.9 74.0 L 150.0 74.0 L 150.0 54.4 L 71.2 54.4 L 71.2 50.4 L 150.0 50.4 L 150.0 31.7 L 87.9 31.7 L 87.9 27.7 L 150.0 27.7 L 156.0 22.7 Z " />
</g>
</svg>
