<svg xmlns="http://www.w3.org/2000/svg" xmlns:xlink="http://www.w3.org/1999/xlink" version="1.1" baseProfile="full" viewBox="0 0 200 200" width="200" height="200">
<g fill="black">
<path d="M 64.5 17.7 L 66.7 20.5 L 63.17326736450195 21.381683158874512 L 60.5 28.8 L 56.4 39.7 L 52.1 50.3 L 47.6 60.7 L 42.9 70.9 L 41.7897515296936 73.09829196929931 L 47.2 74.0 L 50.2 76.0 L 47.2 77.8 L 47.2 183.0 L 35.2 189.0 L 35.2 85.88235292434692 L 32.8 90.4 L 27.3 99.8 L 21.6 108.8 L 15.5 117.4 L 14.0 116.5 L 22.6 97.3 L 26.9 87.5 L 31.0 77.6 L 35.1 67.5 L 39.0 57.2 L 42.7 46.7 L 46.3 36.1 L 49.7 25.2 L 52.70253658294678 15.100558853149414 L 52.7 15.1 L 52.7380952835083 14.98095235824585 L 53.0 14.1 L 53.018178939819336 14.10569076538086 L 53.5 12.6 Z M 62.7 152.1 L 66.5 150.6 L 70.5 149.1 L 74.5 147.4 L 78.7 145.6 L 83.0 143.7 L 87.5 141.7 L 92.0 139.6 L 96.7 137.5 L 101.2 135.47959184646606 L 101.2 76.0 L 64.2 76.0 L 64.2 72.0 L 101.2 72.0 L 101.2 15.0 L 113.2 17.0 L 116.2 19.0 L 113.2 20.8 L 113.2 181.0 L 101.2 187.0 L 101.2 140.44878044128419 L 99.5 141.9 L 95.3 145.1 L 91.2 148.2 L 87.1 151.0 L 83.1 153.7 L 79.1 156.2 L 75.2 158.6 L 71.4 160.9 L 71.3122010231018 160.94852046966554 L 70.7 164.9 L 67.6 163.0 L 60.8 152.9 Z M 181.3 139.0 L 183.3 139.0 L 181.3 164.0 L 184.9 166.4 L 187.3 170.0 L 184.9 173.6 L 181.3 176.0 L 148.3 176.0 L 145.7 175.8 L 143.2 175.4 L 140.8 174.6 L 138.5 173.3 L 136.5 171.7 L 134.9 169.7 L 133.6 167.4 L 132.8 165.0 L 132.4 162.5 L 132.3 160.0 L 132.3 15.0 L 144.3 17.0 L 147.3 19.0 L 144.3 20.8 L 144.3 82.53658533096313 L 146.1 81.0 L 150.2 77.7 L 154.1 74.4 L 158.0 71.2 L 161.7 68.0 L 168.7 61.6 L 174.35176467895508 55.94823532104492 L 174.3 55.9 L 175.3 55.0 L 183.1 64.1 L 183.7 67.6 L 180.04869060516359 66.49156675338745 L 179.4 67.0 L 175.5 69.8 L 167.3 75.4 L 162.9 78.1 L 158.4 80.7 L 153.8 83.2 L 149.0 85.6 L 144.3 87.66800003051758 L 144.3 161.2 L 144.5 162.1 L 144.8 163.0 L 145.2 163.4 L 146.1 163.7 L 147.0 163.9 L 148.3 164.0 L 175.3 164.0 Z " />
</g>
</svg>
