<svg xmlns="http://www.w3.org/2000/svg" xmlns:xlink="http://www.w3.org/1999/xlink" version="1.1" baseProfile="full" viewBox="0 0 200 200" width="200" height="200">
<g fill="black">
<path d="M 114.6 181.4 L 102.6 187.4 L 102.6 91.8975609779358 L 102.2 92.6 L 97.9 99.6 L 93.2 106.5 L 88.2 113.1 L 87.49295158386231 112.67577095031739 L 87.2 118.2 L 86.0 130.4 L 84.6 141.7 L 82.8 152.1 L 80.7 161.6 L 78.1 170.1 L 75.2 177.6 L 71.8 184.1 L 68.0 189.4 L 66.5 188.5 L 68.4 182.5 L 70.2 175.8 L 71.8 168.4 L 73.2 160.0 L 74.4 150.8 L 75.4 140.7 L 76.0 129.6 L 76.4 117.7 L 76.6 104.8 L 76.4 91.0 L 76.4 20.0 L 88.4 26.0 L 166.7 26.0 L 176.7 16.0 L 188.7 26.0 L 188.7 30.0 L 88.4 30.0 L 88.4 91.0 L 87.9 105.0 L 87.6360779762268 109.97681474685669 L 89.9 104.6 L 93.2 97.1 L 96.3 89.6 L 99.4 82.2 L 102.3 74.7 L 102.6 73.89642858505249 L 102.6 63.6 L 105.78651685714722 65.19325838088989 L 107.7 59.6 L 110.1 52.0 L 112.3 44.4 L 114.15156593322754 37.61092500686645 L 114.1 37.6 L 114.9 35.1 L 125.9 40.1 L 128.2 42.8 L 124.63482208251953 43.75495834350586 L 123.2 47.9 L 120.2 55.6 L 117.0 63.2 L 114.25901641845704 69.42950820922852 L 114.6 69.6 L 139.12142858505248 69.6 L 140.6 66.9 L 142.6 62.9 L 144.5 59.0 L 146.2 55.4 L 147.9 52.0 L 149.3 48.8 L 150.6 45.8 L 151.7 43.0 L 152.7 40.4 L 153.1774868965149 38.96753931045532 L 153.0 38.9 L 154.0 36.9 L 164.3 43.2 L 166.2 46.2 L 161.95156478881836 46.63949327468872 L 160.9 48.1 L 159.0 50.7 L 156.8 53.4 L 154.5 56.3 L 152.0 59.3 L 149.2 62.3 L 146.3 65.5 L 143.0 68.7 L 142.1264705657959 69.6 L 161.0 69.6 L 171.0 59.6 L 183.0 69.6 L 183.0 73.6 L 150.1 73.6 L 150.1 101.5 L 158.4 101.5 L 168.4 91.5 L 180.4 101.5 L 180.4 105.5 L 150.1 105.5 L 150.1 132.3 L 158.4 132.3 L 168.4 122.3 L 180.4 132.3 L 180.4 136.3 L 150.1 136.3 L 150.1 165.4 L 166.0 165.4 L 176.0 155.4 L 188.0 165.4 L 188.0 169.4 L 114.6 169.4 Z M 66.3 17.8 L 68.5 20.6 L 64.9682430267334 21.405488395690917 L 62.2 28.9 L 57.8 39.8 L 53.3 50.4 L 48.6 60.8 L 43.6 71.0 L 42.52253522872925 73.07042255401612 L 48.1 74.0 L 51.1 76.0 L 48.1 77.8 L 48.1 183.0 L 36.1 189.0 L 36.1 85.11111106872559 L 33.1 90.5 L 27.4 99.8 L 21.4 108.8 L 15.1 117.4 L 13.5 116.5 L 18.1 106.9 L 22.7 97.2 L 27.2 87.4 L 31.6 77.5 L 35.9 67.4 L 40.0 57.1 L 44.0 46.7 L 47.8 36.0 L 51.4 25.1 L 54.9 14.0 L 54.91807231903076 14.006024074554443 L 55.4 12.5 Z M 114.6 136.3 L 114.6 165.4 L 138.1 165.4 L 138.1 136.3 Z M 114.6 105.5 L 114.6 132.3 L 138.1 132.3 L 138.1 105.5 Z M 114.6 73.6 L 114.6 101.5 L 138.1 101.5 L 138.1 73.6 Z " />
</g>
</svg>
