<svg xmlns="http://www.w3.org/2000/svg" xmlns:xlink="http://www.w3.org/1999/xlink" version="1.1" baseProfile="full" viewBox="0 0 200 200" width="200" height="200">
<g fill="black">
<path d="M 149.8 185.4 L 142.0 183.0 L 134.8 180.4 L 128.1 177.5 L 122.1 174.2 L 116.7 170.7 L 111.9 166.9 L 108.0 162.6 L 105.45652170181275 158.7 L 103.78571424484252 158.7 L 101.5 163.2 L 96.6 168.6 L 90.4 173.1 L 82.8 176.9 L 73.9 180.1 L 63.5 182.7 L 51.8 184.7 L 38.7 186.2 L 24.0 187.0 L 23.9 185.2 L 38.1 182.4 L 50.8 179.5 L 61.9 176.3 L 71.3 172.9 L 79.1 169.3 L 85.2 165.4 L 89.6 161.4 L 91.5384614944458 158.7 L 23.0 158.7 L 23.0 154.7 L 93.35789470672607 154.7 L 93.7 153.7 L 94.0 149.8 L 94.0 141.0 L 52.0 141.0 L 52.0 137.4368420600891 L 44.0 140.3 L 34.0 143.2 L 23.4 145.7 L 12.2 147.7 L 11.7 146.0 L 22.3 142.1 L 32.3 138.1 L 41.7 134.1 L 50.4 130.0 L 51.168379402160646 129.59209489822388 L 50.0 129.3 L 48.5 127.8 L 46.8 126.3 L 44.9 124.7 L 42.9 123.2 L 40.6 121.7 L 38.2 120.1 L 35.6 118.6 L 32.8 117.0 L 29.9 115.4 L 26.7 114.2 L 27.1 112.4 L 30.6 112.9 L 34.0 113.1 L 37.3 113.5 L 40.5 114.1 L 43.6 114.7 L 46.5 115.5 L 49.3 116.4 L 52.0 117.3 L 54.6 118.5 L 57.1 119.7 L 59.4 123.6 L 59.0 125.4 L 66.0 121.2 L 72.9 116.5 L 79.1 111.7 L 83.58000001907348 107.7 L 33.0 107.7 L 33.0 103.7 L 87.52692308425904 103.7 L 89.6 101.5 L 90.08178911209106 101.96517572402954 L 94.0 98.7 L 105.0 107.7 L 100.0 110.7 L 94.96435041427613 112.7981873512268 L 92.2 115.2 L 85.6 120.2 L 78.4 124.9 L 70.7 129.3 L 62.4 133.3 L 53.5 136.9 L 53.22058820724487 137.0 L 126.0 137.0 L 133.8065040588379 129.1934959411621 L 133.1 128.8 L 126.0 123.9 L 119.7 118.8 L 114.4 113.3 L 110.0 107.4 L 106.8 101.2 L 108.3 100.2 L 113.2 104.7 L 118.4 109.0 L 124.2 113.1 L 130.6 116.9 L 131.60883083343506 117.43323917388916 L 131.8 117.3 L 134.7 114.9 L 137.5 112.6 L 140.2 110.4 L 142.6 108.4 L 144.8 106.6 L 146.9 104.8 L 148.7 103.2 L 150.4 101.7 L 151.131360912323 100.968639087677 L 151.0 100.8 L 151.1438596725464 100.95614032745361 L 151.8 100.3 L 154.98366298675538 105.1237317085266 L 159.2 109.7 L 159.4 113.2 L 155.34138612747194 111.53306932449341 L 154.2 112.0 L 151.8 112.9 L 149.2 114.0 L 146.4 115.0 L 143.4 116.1 L 140.2 117.3 L 136.8 118.5 L 134.7692379951477 119.10374002456665 L 137.6 120.6 L 145.3 124.0 L 148.74367818832397 125.2708812713623 L 155.3 120.9 L 158.7 118.8 L 161.8 116.7 L 164.7 114.9 L 167.2 113.1 L 169.5 111.5 L 171.5 110.1 L 172.40246114730834 109.35679664611817 L 172.3 109.2 L 172.4338896751404 109.33091440200806 L 173.2 108.7 L 174.76485414505004 111.61007957458496 L 181.3 118.0 L 181.5 121.3 L 177.64285717010497 119.75714282989502 L 176.7 120.1 L 174.2 120.9 L 168.5 122.8 L 165.2 123.8 L 161.6 125.0 L 157.7 126.1 L 154.0811101913452 127.2201325416565 L 162.9 130.0 L 172.8 132.7 L 183.5 135.1 L 192.2 137.1 L 180.4 147.9 L 169.4 144.7 L 159.2 141.2 L 149.7 137.4 L 146.8 136.0 L 148.0 137.0 L 148.0 141.0 L 106.0 141.0 L 106.0 149.8 L 105.10281686782837 154.7 L 155.0 154.7 L 165.0 144.7 L 177.0 154.7 L 177.0 158.7 L 109.3962963104248 158.7 L 110.7 159.5 L 115.4 162.1 L 120.3 164.5 L 125.7 166.7 L 131.6 168.8 L 138.0 170.7 L 144.9 172.4 L 152.4 173.8 L 160.3 175.1 L 168.9 176.1 L 178.9 177.5 L 167.0 189.2 L 158.1 187.4 Z M 72.7 19.8 L 73.7 23.3 L 70.00372619628907 22.716377830505373 L 67.8 25.1 L 62.6 30.2 L 57.2 35.2 L 51.6 40.1 L 47.25 43.625 L 51.9 44.4 L 54.9 46.4 L 51.9 48.2 L 51.9 95.2 L 39.9 101.2 L 39.9 49.24918031692505 L 39.7 49.4 L 33.3 53.7 L 26.7 57.9 L 19.8 61.8 L 12.6 65.5 L 11.6 63.9 L 17.7 58.7 L 23.6 53.6 L 29.3 48.5 L 34.9 43.5 L 40.2 38.4 L 45.3 33.3 L 50.2 28.1 L 54.8 22.9 L 59.3 17.5 L 62.83800144195557 12.926485919952393 L 62.8 12.9 L 63.174725246429446 12.491208744049072 L 63.4 12.2 L 63.42382173538208 12.219467258453369 L 63.9 11.7 Z M 160.4 95.1 L 153.8 92.0 L 147.7 88.7 L 142.2 85.2 L 137.2 81.3 L 133.0 77.2 L 129.4 72.8 L 126.6 68.2 L 126.03330698013306 66.73852844238282 L 125.3 68.6 L 121.3 74.5 L 116.0 79.6 L 109.6 84.2 L 102.0 88.2 L 93.3 91.7 L 83.5 94.6 L 72.4 97.0 L 60.1 98.8 L 59.8 97.1 L 71.4 93.3 L 81.8 89.5 L 90.8 85.6 L 98.5 81.5 L 104.8 77.2 L 109.7 72.8 L 113.3 68.4 L 115.6 64.0 L 115.62666664123535 63.9 L 61.8 63.9 L 61.8 59.9 L 116.69333333969116 59.9 L 116.8 59.5 L 117.0 55.0 L 117.0 45.4 L 74.5 45.4 L 74.5 41.4 L 117.0 41.4 L 117.0 14.0 L 129.0 16.0 L 132.0 18.0 L 129.0 19.8 L 129.0 41.4 L 148.4 41.4 L 158.4 31.4 L 170.4 41.4 L 170.4 45.4 L 129.0 45.4 L 129.0 55.0 L 128.2300000190735 59.9 L 161.1 59.9 L 171.1 49.9 L 183.1 59.9 L 183.1 63.9 L 127.88181819915772 63.9 L 129.9 65.7 L 133.7 68.8 L 137.7 71.8 L 142.1 74.6 L 147.0 77.2 L 152.3 79.6 L 158.1 81.9 L 164.4 84.0 L 171.2 85.9 L 178.6 87.6 L 187.0 89.7 L 175.3 100.3 L 167.6 97.8 Z M 158.5 22.1 L 159.3 25.6 L 155.13957843780517 24.651131916046143 L 153.8 25.6 L 151.3 27.4 L 146.1 30.8 L 143.4 32.4 L 140.6 34.0 L 137.6 35.6 L 134.6 37.0 L 131.7 38.7 L 130.6 37.3 L 132.9 34.9 L 135.0 32.3 L 137.1 29.8 L 141.1 25.0 L 144.9 20.4 L 146.6 18.1 L 149.39660968780518 14.480858039855956 L 149.3 14.4 L 150.3 13.4 Z M 95.0 32.8 L 93.9 31.2 L 92.6 29.5 L 91.0 27.8 L 89.0 26.0 L 86.8 24.2 L 84.2 22.3 L 81.4 20.4 L 78.1 18.8 L 78.7 17.1 L 82.3 18.0 L 85.8 18.6 L 89.1 19.4 L 92.1 20.4 L 95.0 21.5 L 97.7 22.7 L 100.1 24.1 L 102.4 25.7 L 104.5 27.4 L 106.4 29.4 L 107.0 34.0 L 104.4 37.7 L 99.8 38.3 L 96.1 35.6 L 95.7 34.3 Z " />
</g>
</svg>
