<svg xmlns="http://www.w3.org/2000/svg" xmlns:xlink="http://www.w3.org/1999/xlink" version="1.1" baseProfile="full" viewBox="0 0 200 200" width="200" height="200">
<g fill="black">
<path d="M 15.0 179.8 L 47.0 179.8 L 47.0 121.1 L 59.0 127.1 L 59.0 127.10200004577636 L 62.9 126.4 L 72.7 124.7 L 82.2 123.2 L 91.6 121.7 L 100.7 120.3 L 109.6 118.8 L 118.3 117.4 L 126.8 115.9 L 135.0 114.5 L 142.11952104568482 113.18157014846801 L 142.1 113.1 L 142.1838577270508 113.16965599060059 L 143.1 113.0 L 143.26256065368653 114.0656753540039 L 154.5 123.4 L 154.9 126.3 L 150.41081533432006 123.9963394165039 L 144.9 124.8 L 136.7 125.7 L 128.2 126.6 L 119.6 127.3 L 110.7 128.1 L 101.7 128.7 L 92.4 129.3 L 82.9 129.7 L 73.2 130.0 L 63.2 130.2 L 59.0 130.11764707565308 L 59.0 142.9 L 155.0 142.9 L 165.0 132.9 L 177.0 142.9 L 177.0 146.9 L 140.0 146.9 L 140.0 179.8 L 165.0 179.8 L 175.0 169.8 L 187.0 179.8 L 187.0 183.8 L 15.0 183.8 Z M 59.0 146.9 L 59.0 179.8 L 128.0 179.8 L 128.0 146.9 Z M 70.5 20.3 L 71.8 23.7 L 68.00027704238892 23.437950134277344 L 65.8 26.2 L 60.9 32.0 L 55.8 37.6 L 50.4 43.1 L 45.6684492111206 47.578074836730956 L 50.6 48.4 L 53.6 50.4 L 50.6 52.2 L 50.6 105.4 L 38.6 111.4 L 38.6 53.83333330154419 L 33.0 58.5 L 26.7 63.2 L 20.0 67.7 L 13.1 71.8 L 12.0 70.4 L 17.7 64.7 L 23.2 59.1 L 28.6 53.6 L 33.8 48.0 L 38.8 42.4 L 43.6 36.8 L 48.2 31.1 L 52.5 25.3 L 56.7 19.4 L 60.14792623519897 14.228110599517823 L 60.1 14.2 L 61.1 12.7 Z M 168.0 100.2 L 161.9 97.0 L 156.0 93.6 L 150.4 90.0 L 145.2 86.2 L 140.2 82.1 L 135.6 77.8 L 131.4 73.2 L 130.0 71.30810813903808 L 130.0 104.5 L 118.0 110.5 L 118.0 76.98235292434693 L 114.4 80.3 L 108.9 84.6 L 103.0 88.6 L 96.8 92.2 L 90.2 95.6 L 83.2 98.5 L 75.8 101.1 L 68.0 103.3 L 59.8 105.0 L 59.3 103.3 L 66.7 99.7 L 73.7 96.2 L 80.3 92.6 L 86.5 88.9 L 92.3 85.0 L 97.6 81.0 L 102.6 76.8 L 107.1 72.4 L 110.28888893127441 68.9 L 63.3 68.9 L 63.3 64.9 L 118.0 64.9 L 118.0 49.5 L 130.0 51.5 L 133.0 53.5 L 130.0 55.3 L 130.0 64.9 L 162.6 64.9 L 172.6 54.9 L 184.6 64.9 L 184.6 68.9 L 132.187096786499 68.9 L 134.2 70.1 L 144.4 76.3 L 149.7 79.2 L 155.2 81.9 L 160.8 84.6 L 166.6 87.0 L 172.6 89.3 L 178.8 91.4 L 185.3 93.4 L 192.6 95.9 L 181.0 105.9 L 174.4 103.1 Z M 92.2 20.8 L 155.7 20.8 L 161.7 15.8 L 172.7 24.8 L 167.7 28.8 L 167.7 50.5 L 155.7 56.5 L 155.7 48.5 L 92.2 48.5 L 92.2 51.5 L 80.2 57.5 L 80.2 14.8 Z M 92.2 24.8 L 92.2 44.5 L 155.7 44.5 L 155.7 24.8 Z " />
</g>
</svg>
