<svg xmlns="http://www.w3.org/2000/svg" xmlns:xlink="http://www.w3.org/1999/xlink" version="1.1" baseProfile="full" viewBox="0 0 200 200" width="200" height="200">
<g fill="black">
<path d="M 63.7 17.9 L 65.9 20.8 L 62.30804576873779 21.493184185028078 L 59.4 29.0 L 54.8 39.9 L 50.0 50.5 L 45.0 60.9 L 39.8 71.0 L 38.66440677642822 73.04406776428223 L 44.4 74.0 L 47.4 76.0 L 44.4 77.8 L 44.4 183.0 L 32.4 189.0 L 32.4 84.1 L 28.6 90.5 L 22.6 99.9 L 16.3 108.8 L 9.6 117.4 L 8.1 116.5 L 13.0 106.8 L 18.0 97.2 L 22.8 87.4 L 27.5 77.4 L 32.1 67.3 L 36.5 57.0 L 40.8 46.6 L 44.8 35.9 L 48.7 25.0 L 52.4 13.9 L 52.4298152923584 13.910554122924804 L 52.9 12.5 Z M 161.1 17.5 L 164.1 19.5 L 161.00966720581056 21.35419969558716 L 160.5 43.1 L 160.05484142303467 50.63589849472046 L 161.1 64.1 L 163.3 84.3 L 165.9 102.7 L 169.0 119.4 L 172.7 134.4 L 177.0 147.6 L 181.7 158.9 L 186.9 168.5 L 192.4 176.2 L 192.7 176.6 L 182.0 184.3 L 176.0 174.8 L 170.9 163.7 L 166.5 151.0 L 162.8 136.9 L 159.9 121.1 L 157.6 103.8 L 156.64838705062866 91.80967741012573 L 154.3 108.5 L 150.8 126.5 L 146.6 142.6 L 141.7 156.8 L 135.9 169.0 L 129.4 179.1 L 122.0 187.1 L 120.7 185.9 L 126.2 177.1 L 131.1 166.7 L 132.80909090042115 162.0 L 105.0 162.0 L 105.0 183.0 L 93.0 189.0 L 93.0 162.0 L 63.7 162.0 L 63.7 158.0 L 79.5 158.0 L 79.5 108.0 L 77.7 108.0 L 77.7 111.0 L 65.7 117.0 L 65.7 79.0 L 77.7 85.0 L 79.1 85.0 L 79.1 35.0 L 63.7 35.0 L 63.7 31.0 L 93.0 31.0 L 93.0 13.0 L 105.0 15.0 L 108.0 17.0 L 105.0 18.8 L 105.0 31.0 L 112.2 31.0 L 122.2 21.0 L 134.2 31.0 L 134.2 35.0 L 118.8 35.0 L 118.8 85.0 L 120.3 85.0 L 126.3 80.0 L 137.3 89.0 L 132.3 93.0 L 132.3 110.0 L 120.3 116.0 L 120.3 108.0 L 118.8 108.0 L 118.8 158.0 L 123.7 158.0 L 128.2 152.0 L 134.2 158.0 L 134.2 158.175 L 135.5 154.6 L 139.3 140.7 L 142.5 124.9 L 145.1 107.2 L 147.1 87.6 L 148.4 66.2 L 149.1 42.8 L 149.1 15.1 Z M 91.5 144.0 L 91.5 158.0 L 106.8 158.0 L 106.8 144.0 Z M 91.5 126.0 L 91.5 140.0 L 106.8 140.0 L 106.8 126.0 Z M 91.5 108.0 L 91.5 122.0 L 106.8 122.0 L 106.8 108.0 Z M 77.7 104.0 L 120.3 104.0 L 120.3 89.0 L 77.7 89.0 Z M 91.1 71.0 L 91.1 85.0 L 106.8 85.0 L 106.8 71.0 Z M 91.1 53.0 L 91.1 67.0 L 106.8 67.0 L 106.8 53.0 Z M 91.1 49.0 L 106.8 49.0 L 106.8 35.0 L 91.1 35.0 Z " />
</g>
</svg>
