<svg xmlns="http://www.w3.org/2000/svg" xmlns:xlink="http://www.w3.org/1999/xlink" version="1.1" baseProfile="full" viewBox="0 0 200 200" width="200" height="200">
<g fill="black">
<path d="M 160.8 171.0 L 154.5 163.3 L 149.0 155.2 L 144.4 146.7 L 140.6 137.9 L 137.8 128.9 L 135.8 119.5 L 135.4607843399048 115.88169937133789 L 134.7 120.7 L 130.7 134.6 L 125.1 147.0 L 117.9 158.0 L 109.2 167.4 L 99.0 175.2 L 87.4 181.4 L 74.4 185.8 L 60.1 188.6 L 59.8 186.8 L 73.2 182.2 L 85.0 176.5 L 95.2 169.8 L 103.9 162.0 L 111.0 153.0 L 116.8 142.8 L 121.1 131.4 L 124.1 118.7 L 125.7 104.5 L 125.98818893432617 89.61023626327514 L 125.92424240112305 87.5 L 103.7 87.5 L 103.7 83.5 L 164.2 83.5 L 174.2 73.5 L 186.2 83.5 L 186.2 87.5 L 130.3 87.5 L 138.0 88.9 L 141.0 90.9 L 137.7870485305786 92.82777090072632 L 137.30526313781738 101.71403512954711 L 139.0 109.3 L 141.6 118.2 L 144.6 126.6 L 148.3 134.6 L 152.6 142.2 L 157.5 149.5 L 163.1 156.3 L 169.3 162.9 L 176.3 169.1 L 184.0 174.9 L 186.9 177.2 L 175.9 185.4 L 168.0 178.4 Z M 82.6 155.9 L 80.4 152.9 L 77.9 149.9 L 75.1 146.9 L 72.1 143.8 L 68.8 140.7 L 65.2 137.5 L 61.4 134.3 L 61.13643407821655 134.08255815505981 L 58.5 142.2 L 53.5 152.8 L 47.4 162.3 L 40.2 170.6 L 32.0 177.7 L 22.6 183.5 L 12.3 188.0 L 11.6 186.3 L 20.6 180.3 L 28.5 173.6 L 35.3 166.2 L 41.1 158.0 L 45.9 149.0 L 49.7 139.0 L 52.5 128.2 L 54.3 116.4 L 55.2 103.5 L 55.0144700050354 90.69843244552612 L 55.0 90.7 L 54.927272701263426 88.3 L 14.7 88.3 L 14.7 84.3 L 75.2 84.3 L 85.2 74.3 L 97.2 84.3 L 97.2 88.3 L 60.34499998092652 88.3 L 67.0 89.4 L 70.0 91.3 L 66.86797676086425 93.28148412704468 L 66.5 104.1 L 65.0 117.8 L 62.3 130.5 L 62.1472508430481 130.9703064918518 L 63.2 131.4 L 67.9 133.4 L 72.3 135.6 L 76.5 138.0 L 80.4 140.6 L 84.1 143.3 L 87.5 146.1 L 90.7 149.0 L 93.6 152.0 L 96.3 155.2 L 97.1 159.7 L 94.6 163.5 L 90.1 164.4 L 86.3 161.9 L 84.6 158.9 Z M 88.6 30.5 L 88.6 34.5 L 23.3 34.5 L 23.3 30.5 L 66.6 30.5 L 76.6 20.5 Z M 177.6 30.2 L 177.6 34.2 L 112.3 34.2 L 112.3 30.2 L 155.6 30.2 L 165.6 20.2 Z " />
</g>
</svg>
