<svg xmlns="http://www.w3.org/2000/svg" xmlns:xlink="http://www.w3.org/1999/xlink" version="1.1" baseProfile="full" viewBox="0 0 200 200" width="200" height="200">
<g fill="black">
<path d="M 119.6 55.9 L 117.2 50.3 L 115.9 47.6 L 114.4 44.9 L 112.8 42.3 L 111.2 39.6 L 110.29273738861085 38.23910617828369 L 110.1 38.7 L 107.5 44.1 L 104.6 49.4 L 101.4 54.7 L 97.8 59.9 L 93.8 65.0 L 89.4 69.9 L 88.5 69.3 L 88.5 70.0 L 53.2 70.0 L 53.2 183.5 L 43.2 188.5 L 43.2 70.0 L 12.3 70.0 L 12.3 66.0 L 66.5 66.0 L 76.5 56.0 L 88.5 66.0 L 88.5 67.5666666984558 L 90.6 62.9 L 93.2 57.2 L 95.6 51.6 L 97.8 46.1 L 99.7 40.7 L 101.4 35.4 L 102.9 30.1 L 104.0 24.9 L 105.0 19.7 L 105.6 14.6 L 105.670374584198 14.611827659606934 L 106.0 12.7 L 117.5 16.6 L 120.1 19.1 L 116.52769231796265 20.489230728149415 L 116.1 22.2 L 114.4 27.7 L 112.4 33.2 L 111.61248741149902 35.08318223953247 L 114.2 36.6 L 116.9 38.5 L 119.5 40.7 L 122.0 43.0 L 124.4 45.5 L 126.6 48.1 L 128.7 50.9 L 130.6 53.8 L 132.5 56.9 L 132.5 61.4 L 129.3 64.7 L 124.8 64.8 L 121.4 61.6 L 120.6 58.7 Z M 159.0 181.5 L 149.3 177.8 L 140.6 173.2 L 134.87397260665892 169.05616436004638 L 131.0 172.1 L 122.2 177.8 L 112.8 182.4 L 103.0 186.0 L 92.6 188.5 L 81.9 189.8 L 81.6 188.0 L 91.7 184.8 L 101.1 181.0 L 109.9 176.5 L 118.1 171.4 L 125.8 165.4 L 128.26389360427856 163.1096199989319 L 126.5 161.4 L 121.1 154.3 L 117.0 146.5 L 114.2 137.9 L 112.8 128.8 L 113.7 128.6 L 99.5 128.6 L 99.5 124.6 L 155.8 124.6 L 156.2226086616516 124.24782609939575 L 156.4 123.9 L 156.549476146698 123.97543659210206 L 161.8 119.6 L 172.8 128.6 L 167.8 131.6 L 165.0882290840149 132.72990455627442 L 161.0 139.7 L 154.4 149.3 L 147.1 157.9 L 142.44333333969115 162.4961904525757 L 145.6 164.3 L 153.5 167.6 L 162.3 170.2 L 172.0 172.1 L 182.8 173.3 L 193.3 174.4 L 181.4 186.4 L 169.7 184.4 Z M 31.8 88.0 L 34.6 90.0 L 31.8 91.75 L 31.8 120.0 L 31.4 128.2 L 30.7 135.9 L 29.6 143.0 L 28.3 149.5 L 26.6 155.4 L 24.6 160.7 L 22.2 165.3 L 19.5 169.2 L 16.3 172.4 L 12.9 174.6 L 11.8 173.3 L 13.7 170.1 L 15.3 166.7 L 16.7 162.8 L 18.0 158.4 L 19.1 153.5 L 19.9 148.0 L 20.5 141.9 L 20.9 135.2 L 21.0 127.9 L 20.8 120.0 L 20.8 86.0 Z M 77.3 88.0 L 80.1 90.0 L 77.3 91.75 L 77.3 155.2 L 66.3 160.7 L 66.3 86.0 Z M 114.6864197731018 128.6 L 118.1 136.5 L 122.2 143.7 L 127.0 150.1 L 132.4 155.6 L 134.4025387763977 157.11805362701415 L 139.6 151.3 L 145.7 143.0 L 151.3 133.9 L 154.0029999732971 128.6 Z M 119.2 101.2 L 118.1 98.7 L 117.0 96.4 L 115.7 94.0 L 114.3 91.7 L 112.8 89.5 L 111.2 87.2 L 110.65800256729126 86.46670932769776 L 108.1 91.4 L 105.0 96.8 L 101.6 102.1 L 97.9 107.3 L 93.8 112.3 L 89.4 117.2 L 87.9 116.2 L 90.6 110.3 L 93.3 104.5 L 95.8 98.9 L 98.2 93.3 L 100.4 87.8 L 102.4 82.3 L 104.2 76.9 L 105.7 71.5 L 107.1 66.2 L 108.01276235580444 61.80214490890503 L 108.0 61.8 L 108.0576470375061 61.585882377624515 L 108.2 60.9 L 108.23966102600097 60.909830474853514 L 108.7 59.2 L 119.9 63.8 L 122.3 66.5 L 118.60316390991211 67.62225379943848 L 118.0 69.4 L 115.9 75.0 L 113.5 80.5 L 112.1354211807251 83.38660907745361 L 113.8 84.1 L 116.5 85.6 L 119.0 87.3 L 121.4 89.1 L 123.7 91.2 L 125.9 93.4 L 127.9 95.8 L 129.9 98.3 L 131.7 101.0 L 131.9 105.5 L 128.9 109.0 L 124.4 109.2 L 120.9 106.2 L 120.1 103.6 Z M 124.3 110.0 L 133.5 110.0 L 133.5 12.0 L 145.5 18.0 L 166.9 18.0 L 172.9 13.0 L 183.9 22.0 L 178.9 26.0 L 178.9 108.26666669845581 L 182.1 104.0 L 188.1 110.0 L 188.1 114.0 L 124.3 114.0 Z M 145.5 82.5 L 145.5 110.0 L 166.9 110.0 L 166.9 82.5 Z M 145.5 52.2 L 145.5 78.5 L 166.9 78.5 L 166.9 52.2 Z M 145.5 22.0 L 145.5 48.2 L 166.9 48.2 L 166.9 22.0 Z M 78.8 30.0 L 78.8 34.0 L 21.1 34.0 L 21.1 30.0 L 56.8 30.0 L 66.8 20.0 Z " />
</g>
</svg>
