<svg xmlns="http://www.w3.org/2000/svg" xmlns:xlink="http://www.w3.org/1999/xlink" version="1.1" baseProfile="full" viewBox="0 0 200 200" width="200" height="200">
<g fill="black">
<path d="M 165.1 180.8 L 159.5 177.4 L 154.2 173.7 L 149.1 169.8 L 144.3 165.7 L 139.9 161.4 L 135.7 156.8 L 132.0 151.9 L 131.5 151.0875 L 131.5 186.4 L 119.5 192.4 L 119.5 156.92127656936646 L 117.4 159.2 L 112.3 163.9 L 106.9 168.3 L 101.1 172.3 L 95.0 176.0 L 88.6 179.3 L 81.8 182.2 L 74.6 184.6 L 67.0 186.6 L 66.4 184.9 L 73.1 181.1 L 79.4 177.4 L 85.3 173.6 L 90.9 169.6 L 96.1 165.5 L 100.9 161.2 L 105.3 156.7 L 109.4 152.0 L 112.94897956848145 147.3 L 70.1 147.3 L 70.1 143.3 L 119.5 143.3 L 119.5 126.6 L 131.5 128.6 L 134.5 130.6 L 131.5 132.4 L 131.5 143.3 L 158.8 143.3 L 168.8 133.3 L 180.8 143.3 L 180.8 147.3 L 132.66857147216797 147.3 L 139.8 152.5 L 144.6 155.9 L 149.4 159.1 L 154.4 162.2 L 159.6 165.1 L 164.9 167.7 L 170.4 170.2 L 176.1 172.6 L 181.9 174.7 L 188.5 177.3 L 177.0 186.9 L 170.9 184.0 Z M 76.2 18.2 L 78.2 21.2 L 74.52557363510132 21.706817436218262 L 70.9 29.3 L 65.4 40.2 L 59.7 50.8 L 53.7 61.2 L 47.4 71.3 L 46.31999998092651 72.91999998092652 L 52.8 74.0 L 55.8 76.0 L 52.8 77.8 L 52.8 183.0 L 40.8 189.0 L 40.8 81.2 L 34.0 90.8 L 26.9 100.1 L 19.3 109.0 L 11.5 117.5 L 10.0 116.4 L 16.3 106.7 L 22.5 97.0 L 28.5 87.1 L 34.4 77.2 L 40.1 67.0 L 45.5 56.7 L 50.8 46.2 L 55.8 35.5 L 60.6 24.6 L 64.73098449707031 14.410238361358642 L 64.7 14.4 L 64.93636360168458 13.903636360168457 L 65.1 13.5 L 65.1237771987915 13.51006784439087 L 65.7 12.3 Z M 97.0 96.0 L 153.9 96.0 L 159.9 91.0 L 170.9 100.0 L 165.9 104.0 L 165.9 127.3 L 153.9 133.3 L 153.9 125.3 L 97.0 125.3 L 97.0 128.3 L 85.0 134.3 L 85.0 90.0 Z M 97.0 100.0 L 97.0 121.3 L 153.9 121.3 L 153.9 100.0 Z M 156.7 71.7 L 155.5 70.2 L 154.2 68.7 L 152.7 67.1 L 151.1 65.5 L 149.3 63.9 L 147.4 62.2 L 145.4 60.4 L 143.0 59.2 L 143.7 57.5 L 146.3 58.3 L 149.1 58.8 L 151.7 59.4 L 154.2 60.1 L 156.6 60.9 L 158.9 61.8 L 161.1 62.8 L 163.3 63.9 L 165.3 65.1 L 167.2 66.4 L 168.8 70.7 L 167.38918914794922 73.99189186096191 L 171.2 69.8 L 181.2 78.8 L 181.2 82.8 L 73.7 82.8 L 73.7 78.8 L 121.5 78.8 L 121.5 53.6 L 85.6 53.6 L 85.6 49.6 L 121.5 49.6 L 121.5 27.2 L 80.0 27.2 L 80.0 23.2 L 153.0 23.2 L 163.0 13.2 L 175.0 23.2 L 175.0 27.2 L 133.5 27.2 L 133.5 49.6 L 147.3 49.6 L 157.3 39.6 L 169.3 49.6 L 169.3 53.6 L 133.5 53.6 L 133.5 78.8 L 163.01818180084229 78.8 L 166.34057512283326 75.14536743164062 L 162.7 76.5 L 158.5 74.7 L 157.7 73.2 Z " />
</g>
</svg>
