<svg xmlns="http://www.w3.org/2000/svg" xmlns:xlink="http://www.w3.org/1999/xlink" version="1.1" baseProfile="full" viewBox="0 0 200 200" width="200" height="200">
<g fill="black">
<path d="M 98.4 112.8 L 155.5 112.8 L 161.5 107.8 L 172.5 116.8 L 167.5 120.8 L 167.5 182.1 L 155.5 188.1 L 155.5 180.1 L 98.4 180.1 L 98.4 183.1 L 86.4 189.1 L 86.4 106.8 Z M 70.0 19.7 L 72.1 22.6 L 68.46523990631104 23.2266827583313 L 65.3 30.5 L 60.4 41.1 L 55.3 51.5 L 49.9 61.6 L 44.4 71.5 L 43.40582675933838 73.11763782501221 L 49.3 74.1 L 52.3 76.1 L 49.3 77.9 L 49.3 180.3 L 37.3 186.3 L 37.3 82.92950820922852 L 32.4 90.4 L 26.0 99.5 L 19.3 108.2 L 12.2 116.6 L 10.8 115.5 L 16.2 106.1 L 21.5 96.6 L 26.8 87.0 L 31.9 77.3 L 36.9 67.5 L 41.6 57.4 L 46.2 47.2 L 50.6 36.8 L 54.8 26.2 L 58.42982006072998 16.30874032974243 L 58.4 16.3 L 59.3 14.0 Z M 98.4 147.5 L 98.4 176.1 L 155.5 176.1 L 155.5 147.5 Z M 98.4 116.8 L 98.4 143.5 L 155.5 143.5 L 155.5 116.8 Z M 76.6 106.2 L 76.6 17.2 L 88.6 23.2 L 159.8 23.2 L 169.8 13.2 L 181.8 23.2 L 181.8 27.2 L 133.8 27.2 L 133.8 45.8 L 160.3 45.8 L 166.3 40.8 L 177.3 49.8 L 172.3 53.8 L 172.3 79.5 L 160.3 85.5 L 160.3 75.5 L 133.8 75.5 L 133.8 96.2 L 167.01818180084229 96.2 L 175.2 87.2 L 185.2 96.2 L 185.2 100.2 L 88.6 100.2 Z M 88.6 75.5 L 88.6 96.2 L 121.8 96.2 L 121.8 75.5 Z M 88.6 71.5 L 160.3 71.5 L 160.3 49.8 L 88.6 49.8 Z M 88.6 27.2 L 88.6 45.8 L 121.8 45.8 L 121.8 27.2 Z " />
</g>
</svg>
