<svg xmlns="http://www.w3.org/2000/svg" xmlns:xlink="http://www.w3.org/1999/xlink" version="1.1" baseProfile="full" viewBox="0 0 200 200" width="200" height="200">
<g fill="black">
<path d="M 83.9 18.4 L 85.8 21.5 L 82.0790475845337 21.884926128387452 L 78.1 29.5 L 72.1 40.4 L 65.7 51.0 L 59.1 61.4 L 52.1 71.5 L 51.11621618270874 72.85270271301269 L 58.0 74.0 L 61.0 76.0 L 58.0 77.8 L 58.0 183.0 L 46.0 189.0 L 46.0 79.8875 L 44.9 81.4 L 37.4 90.9 L 29.5 100.2 L 21.3 109.1 L 12.6 117.5 L 11.3 116.4 L 18.4 106.6 L 25.3 96.8 L 32.1 87.0 L 38.7 77.0 L 45.0 66.8 L 51.2 56.5 L 57.0 46.0 L 62.6 35.3 L 68.0 24.4 L 72.8875 13.7625 L 73.6 12.1 Z M 156.1 183.4 L 147.0 180.5 L 138.6 177.2 L 130.8 173.4 L 130.4206524848938 173.1615530014038 L 121.5 177.3 L 110.8 181.1 L 99.4 184.2 L 87.1 186.6 L 74.0 188.1 L 60.0 188.8 L 59.9 187.1 L 73.4 184.4 L 86.0 181.3 L 97.6 177.9 L 108.3 174.0 L 117.9 169.6 L 121.78798484802246 167.4350993156433 L 117.5 164.1 L 112.0 158.7 L 107.4 152.8 L 105.77882299423217 149.87287492752074 L 102.5 152.1 L 96.9 155.5 L 91.0 158.6 L 84.8 161.4 L 78.2 163.8 L 71.3 165.8 L 70.6 164.1 L 76.6 160.3 L 82.3 156.6 L 87.6 152.9 L 92.7 149.1 L 97.4 145.3 L 101.8 141.3 L 105.9 137.3 L 109.6 133.1 L 112.05116281509399 130.0 L 102.0 130.0 L 90.0 136.0 L 90.0 74.5 L 83.0 78.0 L 83.0 52.63214282989502 L 77.6 56.2 L 71.5 59.7 L 70.4 58.2 L 75.2 53.3 L 79.7 48.5 L 83.0 44.893023300170896 L 83.0 41.0 L 85.41538457870483 42.207692337036136 L 88.0 39.3 L 91.7 34.8 L 95.1 30.4 L 98.1 26.0 L 100.8 21.6 L 103.1 17.3 L 104.78252792358398 13.934944248199463 L 104.7 13.9 L 105.7 12.0 L 115.8 18.6 L 117.5 21.8 L 113.65730333328247 21.99876012802124 L 112.9 23.2 L 110.13636360168456 27.0 L 139.0 27.0 L 139.53999996185303 26.55 L 139.8 25.9 L 140.10397272109986 26.080022716522215 L 145.0 22.0 L 156.0 31.0 L 151.0 34.0 L 146.54782609939576 35.85507249832153 L 144.8 37.7 L 142.9 39.5 L 140.8 41.3 L 138.7 43.0 L 136.5 44.7 L 134.2 46.3 L 133.08000001907348 47.0 L 168.0 47.0 L 174.0 42.0 L 185.0 51.0 L 180.0 55.0 L 180.0 75.0 L 172.20689659118653 78.89655170440673 L 176.0 82.0 L 171.0 86.0 L 171.0 130.0 L 159.0 136.0 L 159.0 130.0 L 127.12857141494752 130.0 L 125.8 131.5 L 121.7 136.1 L 117.4 140.5 L 115.68048782348633 142.0 L 164.8181818008423 142.0 L 173.0 133.0 L 183.0 142.0 L 183.0 146.0 L 163.09411764144897 146.0 L 161.9 147.4 L 155.5 154.9 L 148.3 161.6 L 140.71791543960572 167.1227529525757 L 142.3 167.7 L 150.2 170.0 L 158.8 171.9 L 167.9 173.3 L 177.7 174.4 L 188.1 175.6 L 176.2 187.5 L 165.8 185.7 Z M 110.94102563858033 146.0 L 108.35324401855469 148.05966291427612 L 110.5 150.0 L 116.0 154.3 L 121.8 158.3 L 128.1 161.8 L 129.77086353302002 162.58628873825074 L 134.4 159.4 L 141.2 153.5 L 147.1 147.2 L 147.9625 146.0 Z M 102.0 113.0 L 102.0 126.0 L 159.0 126.0 L 159.0 113.0 Z M 102.0 98.0 L 102.0 109.0 L 159.0 109.0 L 159.0 98.0 Z M 102.0 82.0 L 102.0 94.0 L 159.0 94.0 L 159.0 82.0 Z M 145.2 71.2 L 144.1 70.0 L 142.8 68.7 L 141.3 67.3 L 139.5 65.9 L 137.6 64.4 L 135.5 62.9 L 133.2 61.3 L 131.16690015792847 60.361646270751955 L 130.5 61.1 L 127.5 63.9 L 124.1 66.5 L 120.4 68.8 L 116.3 70.9 L 112.0 72.8 L 107.2 74.3 L 102.3 75.8 L 101.6 74.1 L 105.9 71.5 L 109.7 68.7 L 113.1 65.9 L 116.2 63.2 L 118.8 60.4 L 121.1 57.7 L 122.9 55.0 L 124.4 52.2 L 124.88888893127441 51.0 L 95.0 51.0 L 95.0 72.0 L 92.5 73.25 L 102.0 78.0 L 159.0 78.0 L 165.0 73.0 L 168.0 75.45454549789429 L 168.0 51.0 L 137.65238094329834 51.0 L 137.6 51.1 L 135.6 54.6 L 133.3 58.0 L 132.61842107772827 58.754605293273926 L 134.0 59.1 L 136.9 59.4 L 142.1 60.2 L 144.5 60.8 L 148.9 62.0 L 150.9 62.7 L 152.8 63.5 L 154.6 64.5 L 156.6 68.6 L 155.2 72.9 L 151.1 74.9 L 146.7 73.5 L 146.1 72.4 Z M 106.91818180084229 31.0 L 106.1 32.0 L 102.2 36.3 L 98.0 40.5 L 93.4 44.7 L 92.26046514511108 45.63023252487183 L 95.0 47.0 L 129.30454549789428 47.0 L 130.0 46.1 L 131.3 43.6 L 132.6 41.2 L 133.9 38.9 L 135.1 36.6 L 136.2 34.4 L 137.2 32.2 L 137.71428575515748 31.0 Z " />
</g>
</svg>
