<svg xmlns="http://www.w3.org/2000/svg" xmlns:xlink="http://www.w3.org/1999/xlink" version="1.1" baseProfile="full" viewBox="0 0 200 200" width="200" height="200">
<g fill="black">
<path d="M 158.4 173.8 L 149.7 168.8 L 141.3 163.3 L 133.2 157.3 L 125.3 150.8 L 117.9 143.8 L 110.7 136.3 L 104.1 128.2 L 101.96593837738037 125.20542964935302 L 98.9 129.1 L 91.1 137.9 L 82.7 146.2 L 73.9 153.9 L 64.7 161.0 L 54.9 167.6 L 44.7 173.6 L 34.1 179.0 L 22.9 183.6 L 11.3 187.6 L 10.6 185.9 L 21.3 180.2 L 31.5 174.2 L 41.3 168.0 L 50.6 161.4 L 59.4 154.3 L 67.8 146.9 L 75.7 139.1 L 83.1 130.8 L 90.0 122.0 L 96.5 112.8 L 96.9 112.2 L 106.3 119.7 L 107.6 123.1 L 104.40288152694703 122.8795090675354 L 107.1 125.3 L 114.9 132.0 L 122.6 138.4 L 130.5 144.3 L 138.6 149.7 L 146.8 154.7 L 155.1 159.2 L 163.6 163.3 L 172.3 166.8 L 181.2 170.0 L 188.2 172.5 L 176.7 182.4 L 167.4 178.4 Z M 82.4 91.9 L 80.8 90.3 L 78.8 88.6 L 76.5 86.8 L 73.8 84.9 L 70.7 83.0 L 67.4 81.1 L 65.0 79.67297296524048 L 65.0 113.5 L 53.0 119.5 L 53.0 85.31162786483765 L 52.1 86.4 L 47.5 91.2 L 42.7 95.6 L 37.5 99.7 L 32.1 103.3 L 26.5 106.5 L 20.5 109.1 L 14.3 111.2 L 13.6 109.6 L 18.7 105.8 L 23.6 102.0 L 28.2 98.0 L 32.6 93.9 L 36.7 89.5 L 40.6 84.9 L 44.3 80.1 L 47.6 75.0 L 50.8 69.7 L 50.90175437927246 69.5 L 35.0 69.5 L 35.0 72.5 L 23.0 78.5 L 23.0 37.7 L 35.0 43.7 L 53.0 43.7 L 53.0 32.6 L 16.0 32.6 L 16.0 28.6 L 53.0 28.6 L 53.0 12.0 L 65.0 14.0 L 68.0 16.0 L 65.0 17.8 L 65.0 28.6 L 76.0 28.6 L 86.0 18.6 L 98.0 28.6 L 98.0 32.6 L 65.0 32.6 L 65.0 43.7 L 81.0 43.7 L 87.0 38.7 L 98.0 47.7 L 93.0 51.7 L 93.0 69.5 L 81.0 75.5 L 81.0 69.5 L 65.0 69.5 L 65.0 76.36511631011963 L 68.9 77.0 L 72.8 77.9 L 76.5 78.9 L 79.9 79.9 L 83.0 81.0 L 85.9 82.2 L 88.6 83.5 L 91.1 85.0 L 93.3 86.6 L 94.8 90.9 L 93.0 95.1 L 88.7 96.6 L 84.5 94.8 L 83.7 93.4 Z M 170.5 103.5 L 165.8 99.8 L 161.5 96.0 L 157.5 92.0 L 153.8 87.9 L 150.5 83.6 L 147.7 79.0 L 146.0 75.52608699798584 L 146.0 113.5 L 134.0 119.5 L 134.0 84.2960000038147 L 130.6 87.9 L 125.3 92.7 L 119.6 97.1 L 113.5 101.1 L 107.0 104.7 L 100.2 107.8 L 92.9 110.4 L 85.3 112.5 L 84.6 110.8 L 91.4 107.0 L 97.7 103.1 L 103.7 99.1 L 109.2 94.9 L 114.3 90.5 L 119.0 85.9 L 123.3 81.0 L 127.1 76.0 L 130.6 70.7 L 130.932142829895 70.1 L 117.0 70.1 L 117.0 73.1 L 105.0 79.1 L 105.0 37.7 L 117.0 43.7 L 134.0 43.7 L 134.0 32.6 L 102.0 32.6 L 102.0 28.6 L 134.0 28.6 L 134.0 12.0 L 146.0 14.0 L 149.0 16.0 L 146.0 17.8 L 146.0 28.6 L 164.0 28.6 L 174.0 18.6 L 186.0 28.6 L 186.0 32.6 L 146.0 32.6 L 146.0 43.7 L 163.0 43.7 L 169.0 38.7 L 180.0 47.7 L 175.0 51.7 L 175.0 72.1 L 163.0 78.1 L 163.0 70.1 L 146.8457142829895 70.1 L 148.8 72.0 L 156.0 78.8 L 159.7 82.0 L 163.7 85.1 L 167.9 88.0 L 172.3 90.9 L 176.9 93.5 L 181.8 96.1 L 187.0 98.5 L 192.2 101.2 L 180.9 110.2 L 175.6 107.0 Z M 117.0 47.7 L 117.0 66.1 L 133.1464285850525 66.1 L 133.7 65.1 L 134.0 65.27142858505249 L 134.0 47.7 Z M 146.0 47.7 L 146.0 66.1 L 163.0 66.1 L 163.0 47.7 Z M 35.0 47.7 L 35.0 65.5 L 52.93684206008911 65.5 L 53.0 65.3758620262146 L 53.0 47.7 Z M 65.0 47.7 L 65.0 65.5 L 81.0 65.5 L 81.0 47.7 Z " />
</g>
</svg>
