<svg xmlns="http://www.w3.org/2000/svg" xmlns:xlink="http://www.w3.org/1999/xlink" version="1.1" baseProfile="full" viewBox="0 0 200 200" width="200" height="200">
<g fill="black">
<path d="M 148.875 23.875 L 148.2 44.8 L 148.10893659591676 46.114727878570555 L 149.9 65.1 L 152.4 84.6 L 155.6 102.5 L 159.6 118.6 L 164.2 133.0 L 169.5 145.6 L 175.4 156.5 L 182.0 165.7 L 189.1 173.2 L 190.7 174.7 L 180.0 182.7 L 172.1 173.4 L 165.2 162.5 L 159.4 150.1 L 154.5 136.2 L 150.5 120.8 L 147.4 103.9 L 145.3 85.5 L 145.002614402771 80.9248366355896 L 144.0 89.1 L 140.5 108.5 L 136.1 126.0 L 130.8 141.7 L 124.5 155.5 L 117.3 167.3 L 109.0 177.1 L 99.8 184.6 L 98.7 183.3 L 106.1 174.6 L 112.7 164.4 L 118.6 152.6 L 123.7 139.1 L 127.9 123.9 L 131.4 106.8 L 134.0 87.8 L 135.9 67.0 L 136.8 44.4 L 137.0 20.0 L 137.0 17.6 L 149.0 20.0 L 152.0 22.0 Z M 96.9 145.0 L 98.9 145.0 L 96.9 170.0 L 100.5 172.4 L 102.9 176.0 L 100.5 179.6 L 96.9 182.0 L 39.0 182.0 L 36.5 181.8 L 34.0 181.4 L 31.6 180.6 L 29.3 179.3 L 27.3 177.7 L 25.6 175.7 L 24.4 173.4 L 23.6 171.0 L 23.2 168.5 L 23.0 166.0 L 23.0 110.0 L 35.0 112.0 L 38.0 114.0 L 35.0 115.8 L 35.0 141.3773585319519 L 39.2 139.0 L 44.5 136.2 L 49.8 133.5 L 55.1 130.9 L 60.4 128.2 L 80.71728639602661 118.23302936553955 L 80.7 118.2 L 80.72967653274536 118.22695112228394 L 81.6 117.8 L 82.43750562667847 119.77793874740601 L 90.5 127.1 L 90.7 130.3 L 86.83648290634156 128.67007875442505 L 86.3 128.9 L 80.8 130.9 L 69.6 134.9 L 64.0 136.8 L 58.3 138.7 L 52.7 140.6 L 46.9 142.3 L 41.2 144.0 L 35.3 145.5 L 35.0 145.56499996185303 L 35.0 166.0 L 35.1 167.2 L 35.2 168.1 L 35.4 168.7 L 35.6 169.0 L 35.8 169.2 L 35.9 169.4 L 36.3 169.5 L 36.9 169.7 L 37.8 169.9 L 39.0 170.0 L 90.9 170.0 Z M 59.3 20.2 L 61.3 23.2 L 56.825050067901614 23.8172345161438 L 56.7 24.0 L 55.3 26.0 L 50.8 32.0 L 49.1 34.1 L 47.4 36.1 L 45.689999961853026 38.0 L 79.5 38.0 L 85.5 33.0 L 96.5 42.0 L 91.5 46.0 L 91.5 105.0 L 79.5 111.0 L 79.5 103.0 L 32.2 103.0 L 20.2 109.0 L 20.2 32.0 L 32.2 38.0 L 43.03999996185303 38.0 L 43.4 37.0 L 44.0 34.4 L 44.5 31.8 L 45.1 29.3 L 45.7 26.9 L 46.2 24.5 L 46.8 22.2 L 47.3 19.9 L 47.7 17.7 L 47.972500038146975 16.555500030517578 L 47.8 16.5 L 48.7 14.3 Z M 32.2 72.0 L 32.2 99.0 L 79.5 99.0 L 79.5 72.0 Z M 32.2 42.0 L 32.2 68.0 L 79.5 68.0 L 79.5 42.0 Z " />
</g>
</svg>
