<svg xmlns="http://www.w3.org/2000/svg" xmlns:xlink="http://www.w3.org/1999/xlink" version="1.1" baseProfile="full" viewBox="0 0 200 200" width="200" height="200">
<g fill="black">
<path d="M 73.3 18.1 L 75.2 20.72380952835083 L 75.2 18.0 L 87.2 24.0 L 111.6 24.0 L 117.1 19.0 L 127.6 28.0 L 122.6 31.5 L 122.6 73.0 L 111.6 78.5 L 111.6 71.0 L 87.2 71.0 L 87.2 183.0 L 75.2 189.0 L 75.2 21.035087680816652 L 71.77060031890869 21.63673677444458 L 68.5 29.2 L 63.5 40.1 L 58.1 50.7 L 52.6 61.1 L 46.8 71.2 L 45.72660551071167 72.97110090255737 L 51.9 74.0 L 54.9 76.0 L 51.9 77.8 L 51.9 183.0 L 39.9 189.0 L 39.9 82.4714285850525 L 34.5 90.7 L 27.9 100.0 L 20.9 108.9 L 13.6 117.5 L 12.1 116.4 L 17.8 106.8 L 23.4 97.0 L 28.9 87.2 L 34.2 77.3 L 39.3 67.2 L 44.3 56.9 L 49.1 46.4 L 53.7 35.7 L 58.0 24.8 L 61.85331926345825 14.616227626800537 L 61.8 14.6 L 62.7 12.3 Z M 147.7 176.0 L 165.7 176.0 L 166.9 175.9 L 167.8 175.7 L 168.7 175.4 L 169.1 175.0 L 169.3 174.7 L 169.4 174.1 L 169.6 173.2 L 169.7 172.0 L 169.7 71.0 L 145.3 71.0 L 145.3 74.0 L 134.3 79.5 L 134.3 79.13333330154418 L 133.5 79.66666669845581 L 133.5 90.7 L 144.9181818008423 90.7 L 153.1 81.7 L 163.1 90.7 L 163.1 94.7 L 133.5 94.7 L 133.5 104.3 L 146.0 104.3 L 151.5 99.3 L 162.0 108.3 L 157.0 111.8 L 157.0 139.2 L 146.0 144.7 L 146.0 137.2 L 133.5 137.2 L 133.5 138.44838705062867 L 134.9 140.3 L 138.1 143.9 L 141.1 147.3 L 144.2 150.4 L 147.2 153.2 L 150.3 155.6 L 153.3 157.7 L 156.4 159.5 L 159.5 161.0 L 162.6 162.2 L 168.3 164.9 L 156.9 174.2 L 153.2 171.8 L 149.8 169.1 L 146.5 166.1 L 143.4 162.8 L 140.6 159.2 L 138.0 155.3 L 135.6 151.2 L 133.5 146.8 L 133.5 171.6 L 123.5 176.6 L 123.5 150.653125 L 122.4 152.2 L 119.0 156.4 L 115.4 160.3 L 111.6 163.9 L 107.6 167.0 L 103.3 169.7 L 98.9 172.0 L 94.3 173.7 L 93.4 172.1 L 96.8 168.9 L 100.1 165.5 L 103.2 162.1 L 106.1 158.6 L 108.9 154.8 L 111.6 150.9 L 114.0 146.7 L 116.4 142.3 L 118.5 137.6 L 118.65 137.2 L 111.3 137.2 L 111.3 140.2 L 100.3 145.7 L 100.3 98.8 L 111.3 104.3 L 123.5 104.3 L 123.5 94.7 L 94.6 94.7 L 94.6 90.7 L 123.5 90.7 L 123.5 74.0 L 133.5 76.0 L 134.3 76.63999996185302 L 134.3 18.5 L 145.3 24.0 L 169.7 24.0 L 175.7 19.0 L 186.7 28.0 L 181.7 32.0 L 181.7 172.0 L 181.5 174.5 L 181.1 177.0 L 180.3 179.4 L 179.1 181.7 L 177.4 183.7 L 175.4 185.3 L 173.1 186.6 L 170.7 187.4 L 168.2 187.8 L 165.7 188.0 L 165.7 182.0 L 147.7 179.0 Z M 114.4 124.8 L 114.1 123.3 L 113.7 121.8 L 113.2 120.2 L 112.0 116.8 L 111.3 115.225 L 111.3 133.2 L 123.5 133.2 L 123.5 131.1 L 122.5 132.1 L 118.0 131.9 L 114.8 128.7 L 114.6 126.1 Z M 145.7 120.5 L 144.1 122.3 L 142.5 124.0 L 140.8 125.7 L 139.1 127.3 L 137.2 128.9 L 135.3 130.4 L 133.7 132.2 L 133.5 132.04285717010498 L 133.5 133.2 L 146.0 133.2 L 146.0 120.11428575515747 Z M 133.5 108.3 L 133.5 128.7714285850525 L 134.1 126.8 L 134.9 124.5 L 135.6 122.4 L 136.3 120.2 L 137.5 116.0 L 138.1 114.0 L 138.6 111.9 L 138.86012144088744 110.85951414108277 L 138.7 110.8 L 139.09375 109.925 L 139.1 109.9 L 139.10413036346435 109.90193252563476 L 139.6 108.8 L 146.0 112.61538457870483 L 146.0 108.3 Z M 111.3 108.3 L 111.3 112.28666667938232 L 112.7 113.5 L 114.6 114.5 L 116.3 115.5 L 117.9 116.5 L 119.5 117.7 L 122.3 120.1 L 123.5 121.39230766296387 L 123.5 108.3 Z M 145.3 49.0 L 145.3 67.0 L 169.7 67.0 L 169.7 49.0 Z M 87.2 49.0 L 87.2 67.0 L 111.6 67.0 L 111.6 49.0 Z M 145.3 28.0 L 145.3 45.0 L 169.7 45.0 L 169.7 28.0 Z M 87.2 28.0 L 87.2 45.0 L 111.6 45.0 L 111.6 28.0 Z " />
</g>
</svg>
