<svg xmlns="http://www.w3.org/2000/svg" xmlns:xlink="http://www.w3.org/1999/xlink" version="1.1" baseProfile="full" viewBox="0 0 200 200" width="200" height="200">
<g fill="black">
<path d="M 149.6 177.6 L 167.6 177.6 L 168.8 177.5 L 169.7 177.3 L 170.6 177.0 L 171.0 176.6 L 171.3 175.7 L 171.5 174.8 L 171.6 173.6 L 171.6 157.4528302192688 L 166.1 161.5 L 163.1 156.7 L 160.5 151.8 L 158.4 146.7 L 156.6 141.4 L 155.3100824356079 136.1411051750183 L 155.1 136.8 L 152.5 143.0 L 149.4 148.7 L 145.9 153.6 L 141.9 157.9 L 137.5 161.2 L 136.0 161.98125 L 136.0 180.0 L 124.0 186.0 L 124.0 157.4528302192688 L 118.5 161.5 L 115.5 156.7 L 112.9 151.8 L 110.8 146.7 L 109.0 141.4 L 107.71008243560792 136.1411051750183 L 107.5 136.8 L 104.9 143.0 L 101.8 148.7 L 98.3 153.6 L 94.3 157.9 L 89.9 161.2 L 88.4 161.98125 L 88.4 183.0 L 76.4 189.0 L 76.4 81.3 L 88.4 87.3 L 124.0 87.3 L 124.0 68.1 L 111.5 68.1 L 111.5 71.1 L 99.5 77.1 L 99.5 36.8 L 73.3 36.8 L 73.3 32.8 L 99.5 32.8 L 99.5 14.3 L 111.5 16.3 L 114.5 18.3 L 111.5 20.1 L 111.5 32.8 L 147.1 32.8 L 147.1 14.3 L 159.1 16.3 L 162.1 18.3 L 159.1 20.1 L 159.1 32.8 L 165.4 32.8 L 175.4 22.8 L 187.4 32.8 L 187.4 36.8 L 159.1 36.8 L 159.1 70.1 L 147.1 76.1 L 147.1 68.1 L 136.0 68.1 L 136.0 87.3 L 171.6 87.3 L 177.6 82.3 L 188.6 91.3 L 183.6 95.3 L 183.6 173.6 L 183.4 176.1 L 183.0 178.6 L 182.2 181.0 L 180.9 183.3 L 179.3 185.3 L 177.3 186.9 L 175.0 188.2 L 172.6 189.0 L 170.1 189.4 L 167.6 189.6 L 167.6 183.6 L 149.6 180.6 Z M 66.5 17.9 L 68.7 20.8 L 65.07299327850342 21.499948692321777 L 62.1 29.0 L 57.5 39.9 L 52.6 50.5 L 47.5 60.9 L 42.2 71.1 L 41.12223949432373 73.02037324905396 L 47.0 74.0 L 50.0 76.0 L 47.0 77.8 L 47.0 183.0 L 35.0 189.0 L 35.0 83.74310340881348 L 30.9 90.6 L 24.9 99.9 L 18.5 108.8 L 11.7 117.4 L 10.2 116.5 L 25.2 87.4 L 30.0 77.4 L 34.6 67.3 L 39.1 57.0 L 43.4 46.5 L 47.5 35.8 L 51.5 25.0 L 55.7 12.4 Z M 88.4 91.3 L 88.4 156.88275861740112 L 90.2 154.4 L 92.8 150.0 L 95.1 145.2 L 97.0 139.9 L 98.6 134.0 L 100.0 127.6 L 100.9 120.7 L 101.6 113.1 L 101.81481485366821 107.3 L 89.8 107.3 L 89.8 103.3 L 101.9 103.3 L 107.9 98.3 L 118.9 107.3 L 113.9 110.3 L 113.33259553909302 110.53641853332519 L 112.9 114.3 L 112.2390079498291 118.12431106567382 L 112.4 118.9 L 113.6 124.0 L 115.0 128.9 L 116.7 133.5 L 118.6 137.9 L 120.8 142.0 L 123.2 146.0 L 124.0 147.1259259223938 L 124.0 91.3 Z M 136.0 91.3 L 136.0 156.88275861740112 L 137.8 154.4 L 140.4 150.0 L 142.7 145.2 L 144.6 139.9 L 146.2 134.0 L 147.6 127.6 L 148.5 120.7 L 149.2 113.1 L 149.41481485366822 107.3 L 137.4 107.3 L 137.4 103.3 L 149.5 103.3 L 155.5 98.3 L 166.5 107.3 L 161.5 110.3 L 160.93259553909303 110.53641853332519 L 160.5 114.3 L 159.8390079498291 118.12431106567382 L 160.0 118.9 L 161.2 124.0 L 162.6 128.9 L 164.3 133.5 L 166.2 137.9 L 168.4 142.0 L 170.8 146.0 L 171.6 147.1259259223938 L 171.6 91.3 Z M 111.5 36.8 L 111.5 64.1 L 147.1 64.1 L 147.1 36.8 Z " />
</g>
</svg>
