<svg xmlns="http://www.w3.org/2000/svg" xmlns:xlink="http://www.w3.org/1999/xlink" version="1.1" baseProfile="full" viewBox="0 0 200 200" width="200" height="200">
<g fill="black">
<path d="M 153.6 171.4 L 144.1 164.3 L 135.3 157.0 L 127.2 149.4 L 119.8 141.5 L 113.2 133.3 L 107.4 124.9 L 102.5 116.2 L 101.9805380821228 115.01456117630005 L 100.2 117.6 L 92.3 127.7 L 84.0 137.1 L 75.2 145.9 L 65.9 154.1 L 56.1 161.6 L 45.9 168.5 L 35.2 174.7 L 24.0 180.1 L 12.3 184.8 L 11.6 183.1 L 22.2 176.8 L 32.4 170.1 L 42.2 163.1 L 51.4 155.7 L 60.3 147.7 L 68.6 139.3 L 76.5 130.4 L 83.9 121.0 L 90.8 111.1 L 97.3 100.6 L 97.32148275375366 100.61347932815552 L 97.8 99.8 L 107.5 107.0 L 109.0 110.2 L 105.29622640609742 110.2 L 104.25444593429566 111.71272230148315 L 106.0 114.0 L 112.1 121.4 L 118.7 128.7 L 125.8 135.7 L 133.5 142.5 L 141.7 149.1 L 150.6 155.4 L 160.1 161.5 L 170.3 167.4 L 181.1 173.1 L 186.1 175.8 L 174.8 184.8 L 163.9 178.2 Z M 150.0 18.9 L 153.0 20.9 L 150.0 22.7 L 150.0 42.7 L 166.0 42.7 L 176.0 32.7 L 188.0 42.7 L 188.0 46.7 L 150.0 46.7 L 150.0 77.5 L 138.0 83.5 L 138.0 73.5 L 101.0 73.5 L 101.0 80.5 L 89.0 86.5 L 89.0 46.7 L 54.0 46.7 L 54.0 94.2 L 161.0 94.2 L 171.0 84.2 L 183.0 94.2 L 183.0 98.2 L 54.0 98.2 L 54.0 110.2 L 42.0 116.2 L 42.0 46.7 L 17.0 46.7 L 17.0 42.7 L 42.0 42.7 L 42.0 16.9 L 54.0 18.9 L 57.0 20.9 L 54.0 22.7 L 54.0 42.7 L 89.0 42.7 L 89.0 16.9 L 101.0 18.9 L 104.0 20.9 L 101.0 22.7 L 101.0 42.7 L 138.0 42.7 L 138.0 16.9 Z M 101.0 46.7 L 101.0 69.5 L 138.0 69.5 L 138.0 46.7 Z " />
</g>
</svg>
