<svg xmlns="http://www.w3.org/2000/svg" xmlns:xlink="http://www.w3.org/1999/xlink" version="1.1" baseProfile="full" viewBox="0 0 200 200" width="200" height="200">
<g fill="black">
<path d="M 78.1 18.3 L 80.1 21.3 L 76.39170827865601 21.811488533020018 L 72.7 29.4 L 67.1 40.3 L 61.2 50.9 L 55.0 61.3 L 48.6 71.4 L 47.55304880142212 72.90884141921997 L 54.1 74.0 L 57.1 76.0 L 54.1 77.8 L 54.1 183.0 L 42.1 189.0 L 42.1 80.76764707565307 L 41.8 81.2 L 34.8 90.8 L 27.5 100.1 L 19.8 109.0 L 11.7 117.5 L 10.4 116.4 L 16.8 106.7 L 23.2 96.9 L 29.4 87.1 L 35.5 77.1 L 41.3 67.0 L 46.9 56.7 L 52.3 46.1 L 57.5 35.4 L 62.4 24.6 L 66.71652517318725 14.405653381347657 L 66.7 14.4 L 66.97631578445434 13.792105293273925 L 67.1 13.5 L 67.10758619308471 13.503310298919677 L 67.7 12.2 Z M 126.8 108.4 L 126.9 112.0 L 123.03043766021729 110.32075595855713 L 120.8 111.4 L 117.5 112.8 L 114.0 114.0 L 110.3 115.2 L 106.3 116.4 L 102.2 117.4 L 97.8 118.3 L 94.2 118.84782609939575 L 94.2 142.0 L 107.91818180084229 142.0 L 116.1 133.0 L 126.1 142.0 L 126.1 146.0 L 94.2 146.0 L 94.2 171.0 L 167.7 171.0 L 167.7 146.0 L 135.8 146.0 L 135.8 142.0 L 167.7 142.0 L 167.7 117.0 L 134.4 117.0 L 134.4 113.0 L 167.7 113.0 L 173.7 108.0 L 184.7 117.0 L 179.7 121.0 L 179.7 179.0 L 167.7 185.0 L 167.7 175.0 L 94.2 175.0 L 94.2 182.0 L 82.2 188.0 L 82.2 111.0 L 92.34761905670166 116.07380952835084 L 96.3 113.9 L 100.2 111.9 L 103.7 109.9 L 107.1 108.0 L 110.1 106.0 L 112.9 104.2 L 115.5 102.3 L 117.7 100.5 L 119.7 98.7 Z M 158.1 77.7 L 151.1 70.7 L 143.6 63.8 L 141.75564756393433 62.25535488128662 L 133.7 69.9 L 123.1 78.3 L 111.7 85.7 L 99.5 92.1 L 86.4 97.4 L 72.6 101.6 L 72.0 99.9 L 84.9 93.9 L 97.0 87.3 L 108.2 80.2 L 118.5 72.3 L 128.0 63.7 L 134.72323083877563 56.42952947616577 L 127.1 50.6 L 118.2 44.2 L 108.8 38.0 L 99.0 31.9 L 88.7 25.7 L 89.5 24.1 L 100.7 28.5 L 111.4 33.3 L 121.6 38.6 L 131.4 44.3 L 140.04557685852052 49.93841972351074 L 144.4 44.3 L 151.4 33.5 L 157.6 21.9 L 162.60707340240478 10.402275848388673 L 162.6 10.4 L 163.5 8.2 L 174.1 14.1 L 176.1 17.1 L 172.3697780609131 17.614513397216797 L 167.7 27.1 L 160.5 39.2 L 152.4 50.3 L 147.89024610519408 55.51915340423584 L 149.4 56.6 L 157.8 63.2 L 165.6 70.1 L 173.0 77.3 L 179.9 84.8 L 181.2 89.2 L 179.1 93.3 L 174.7 94.6 L 170.6 92.5 L 164.6 85.0 Z " />
</g>
</svg>
