<svg xmlns="http://www.w3.org/2000/svg" xmlns:xlink="http://www.w3.org/1999/xlink" version="1.1" baseProfile="full" viewBox="0 0 200 200" width="200" height="200">
<g fill="black">
<path d="M 136.7 178.1 L 150.7 178.1 L 151.9 178.0 L 152.8 177.9 L 153.4 177.7 L 154.0 177.4 L 154.3 176.8 L 154.5 176.3 L 154.6 175.3 L 154.7 174.1 L 154.7 160.6 L 96.2 160.6 L 96.2 183.8 L 84.2 189.8 L 84.2 160.6 L 64.8 160.6 L 64.8 156.6 L 84.2 156.6 L 84.2 105.7 L 96.2 111.7 L 119.5 111.7 L 119.5 95.1 L 131.5 97.1 L 134.5 99.1 L 131.5 100.9 L 131.5 111.7 L 154.7 111.7 L 160.7 106.7 L 171.7 115.7 L 166.7 119.7 L 166.7 156.6 L 171.87777776718139 156.6 L 178.1 149.6 L 186.1 156.6 L 186.1 160.6 L 166.7 160.6 L 166.7 174.1 L 166.6 176.7 L 166.1 179.2 L 165.3 181.6 L 164.1 183.8 L 162.4 185.9 L 160.4 187.5 L 158.2 188.7 L 155.8 189.5 L 153.3 190.0 L 150.7 190.1 L 150.7 184.1 L 136.7 181.1 Z M 107.2 68.3 L 106.3 67.1 L 105.1 65.8 L 103.8 64.5 L 102.3 63.2 L 100.6 61.9 L 98.8 60.5 L 98.3 60.125 L 98.3 97.1 L 86.3 103.1 L 86.3 67.04666662216187 L 83.7 70.6 L 80.5 74.6 L 77.0 78.3 L 73.2 81.7 L 69.1 84.8 L 64.7 87.5 L 63.5 86.2 L 66.5 82.1 L 69.3 78.1 L 72.0 74.2 L 74.4 70.2 L 76.6 66.1 L 78.6 62.0 L 80.4 57.7 L 82.0 53.4 L 83.3 49.0 L 83.4714285850525 48.2 L 64.1 48.2 L 64.1 44.2 L 86.3 44.2 L 86.3 30.705555534362794 L 84.2 30.9 L 78.4 31.4 L 72.3 31.7 L 65.7 31.9 L 65.63002481460572 31.48014888763428 L 61.8 40.0 L 56.6 50.6 L 51.2 61.0 L 45.6 71.2 L 44.52395668029785 72.98732614517212 L 50.6 74.0 L 53.6 76.0 L 50.6 77.8 L 50.6 183.0 L 38.6 189.0 L 38.6 82.73114757537842 L 33.6 90.6 L 27.2 99.9 L 20.4 108.9 L 13.3 117.5 L 11.8 116.4 L 17.3 106.8 L 22.7 97.1 L 28.0 87.3 L 33.1 77.3 L 38.1 67.2 L 42.9 56.9 L 47.5 46.4 L 51.9 35.7 L 56.2 24.8 L 59.86590909957886 14.71875 L 59.8 14.7 L 60.7 12.4 L 71.4 18.0 L 73.5 20.9 L 69.87593803405761 21.59938039779663 L 66.7 29.1 L 66.39470405578614 29.77912769317627 L 71.6 28.1 L 77.5 26.3 L 83.0 24.7 L 88.1 23.1 L 92.7 21.6 L 97.0 20.2 L 100.8 18.8 L 104.2 17.5 L 107.2 16.2 L 108.77096099853516 15.445938682556152 L 108.7 15.3 L 108.83296041488647 15.416178989410401 L 109.7 15.0 L 110.37815027236938 16.766344928741454 L 119.0 24.3 L 119.2 27.4 L 115.25094194412232 25.724642086029053 L 114.0 26.2 L 110.8 27.0 L 107.3 27.7 L 103.4 28.4 L 99.2 29.1 L 98.3 29.23695650100708 L 98.3 44.2 L 100.21818180084229 44.2 L 108.4 35.2 L 118.4 44.2 L 118.4 48.2 L 98.3 48.2 L 98.3 57.034615421295165 L 100.0 57.1 L 102.4 57.3 L 104.8 57.6 L 107.0 58.1 L 109.1 58.6 L 111.2 59.2 L 115.0 60.8 L 116.8 61.8 L 118.6 66.0 L 117.1 70.3 L 112.9 72.1 L 108.6 70.5 L 108.0 69.4 Z M 96.2 138.6 L 96.2 156.6 L 119.5 156.6 L 119.5 138.6 Z M 131.5 138.6 L 131.5 156.6 L 154.7 156.6 L 154.7 138.6 Z M 96.2 115.7 L 96.2 134.6 L 119.5 134.6 L 119.5 115.7 Z M 131.5 115.7 L 131.5 134.6 L 154.7 134.6 L 154.7 115.7 Z M 169.8 82.9 L 166.0 78.8 L 162.7 74.4 L 159.7 69.6 L 157.2 64.6 L 156.1 61.95 L 156.1 97.1 L 144.1 103.1 L 144.1 65.73999996185303 L 142.0 68.8 L 138.2 73.6 L 134.1 78.0 L 129.7 82.2 L 125.0 85.9 L 120.0 89.2 L 114.7 92.0 L 113.6 90.5 L 117.6 86.2 L 121.4 81.9 L 125.0 77.6 L 128.3 73.1 L 131.4 68.5 L 134.2 63.7 L 136.8 58.8 L 139.1 53.6 L 141.2 48.3 L 141.9125 46.2 L 123.3 46.2 L 123.3 42.2 L 144.1 42.2 L 144.1 29.566666698455812 L 143.8 29.6 L 138.2 30.1 L 132.5 30.5 L 126.6 30.6 L 120.6 30.4 L 120.4 28.6 L 126.1 26.8 L 131.6 25.2 L 137.1 23.7 L 142.3 22.2 L 147.4 20.7 L 152.4 19.2 L 157.2 17.6 L 161.8 16.1 L 166.3 14.5 L 169.71935138702392 13.148163414001464 L 169.7 13.1 L 169.74475135803223 13.138121509552002 L 170.6 12.8 L 171.05533599853516 14.254545497894288 L 180.5 22.3 L 180.8 25.4 L 176.6326732635498 23.52772274017334 L 174.2 24.3 L 169.5 25.4 L 164.6 26.4 L 159.6 27.4 L 158.95238094329835 27.501587295532225 L 159.1 27.6 L 156.1 29.4 L 156.1 42.2 L 164.1 42.2 L 174.1 32.2 L 186.1 42.2 L 186.1 46.2 L 156.1 46.2 L 156.1 46.5 L 158.8 51.5 L 161.5 56.2 L 164.4 60.5 L 167.4 64.4 L 170.6 67.9 L 174.0 71.1 L 177.6 74.0 L 181.3 76.5 L 185.3 78.8 L 189.6 81.4 L 178.4 90.1 L 173.9 86.7 Z " />
</g>
</svg>
