<svg xmlns="http://www.w3.org/2000/svg" xmlns:xlink="http://www.w3.org/1999/xlink" version="1.1" baseProfile="full" viewBox="0 0 200 200" width="200" height="200">
<g fill="black">
<path d="M 66.5 18.9 L 68.6 21.8 L 65.01118364334107 22.49257860183716 L 61.9 30.0 L 61.6777777671814 30.5 L 164.0 30.5 L 174.0 20.5 L 186.0 30.5 L 186.0 34.5 L 59.9 34.5 L 57.1 40.8 L 52.1 51.4 L 46.9 61.7 L 41.4 71.8 L 40.348372077941896 73.60806198120117 L 46.3 74.6 L 49.3 76.6 L 46.3 78.4 L 46.3 183.0 L 34.3 189.0 L 34.3 83.87796611785889 L 29.8 91.2 L 23.5 100.4 L 16.9 109.3 L 10.0 117.9 L 8.5 116.9 L 13.8 107.3 L 18.9 97.6 L 24.1 87.9 L 29.1 78.0 L 33.9 67.9 L 38.5 57.7 L 43.0 47.2 L 47.2 36.6 L 47.9972222328186 34.5 L 14.0 34.5 L 14.0 30.5 L 49.51574077606201 30.5 L 51.3 25.8 L 55.2 14.7 L 55.22965879440308 14.711023616790772 L 55.7 13.3 Z M 83.7 59.2 L 120.0 59.2 L 120.0 39.9 L 132.0 41.9 L 135.0 43.9 L 132.0 45.7 L 132.0 59.2 L 162.9 59.2 L 172.9 49.2 L 184.9 59.2 L 184.9 63.2 L 83.7 63.2 L 83.7 80.3 L 102.2 80.3 L 102.2 67.0 L 114.2 69.0 L 117.2 71.0 L 114.2 72.8 L 114.2 80.3 L 132.7 80.3 L 132.7 67.0 L 144.7 69.0 L 147.7 71.0 L 144.7 72.8 L 144.7 80.3 L 163.3 80.3 L 169.3 75.3 L 180.3 84.3 L 175.3 88.3 L 175.3 108.0 L 163.3 114.0 L 163.3 108.0 L 114.5707070350647 108.0 L 111.43686866760254 122.6 L 169.51818180084229 122.6 L 177.7 113.6 L 187.7 122.6 L 187.7 126.6 L 110.57828283309937 126.6 L 107.63762626647949 140.3 L 171.1 140.3 L 177.1 135.3 L 188.1 144.3 L 183.1 147.3 L 182.90474576950072 147.38135595321654 L 182.9 147.5 L 182.7 152.1 L 182.4 156.4 L 182.0 160.4 L 181.6 164.1 L 181.1 167.4 L 180.5 170.5 L 179.9 173.2 L 179.1 175.7 L 178.2 178.0 L 177.0 180.3 L 175.7 182.3 L 174.1 184.2 L 172.3 185.9 L 170.3 187.4 L 168.2 188.6 L 165.9 189.5 L 163.5 190.1 L 161.1 190.5 L 158.6 190.6 L 158.6 184.6 L 138.6 181.6 L 138.6 178.6 L 158.6 178.6 L 159.9 178.5 L 161.1 178.3 L 162.1 178.1 L 163.1 177.7 L 163.9 177.3 L 164.6 176.7 L 165.3 176.0 L 166.0 175.2 L 166.7 174.2 L 167.3 173.0 L 167.8 171.8 L 168.3 170.1 L 168.8 168.0 L 169.3 165.5 L 169.7 162.5 L 170.1 159.2 L 170.4 155.5 L 170.7 151.4 L 170.9 147.0 L 171.0125 144.3 L 106.77904043197631 144.3 L 106.5 145.6 L 93.6 148.9 L 102.3710955619812 108.0 L 83.7 108.0 L 83.7 127.1 L 83.2 136.1 L 82.5 144.5 L 81.4 152.3 L 80.0 159.5 L 78.3 166.1 L 76.2 172.1 L 73.8 177.3 L 70.9 181.9 L 67.7 185.7 L 64.1 188.6 L 62.8 187.4 L 64.6 183.5 L 66.2 179.4 L 67.7 174.9 L 68.9 169.8 L 70.0 164.2 L 70.8 158.0 L 71.4 151.2 L 71.7 143.8 L 71.8 135.8 L 71.7 127.1 L 71.7 53.2 Z M 81.2 185.8 L 79.6 181.5 L 81.4 177.3 L 82.6 176.6 L 83.9 175.5 L 85.2 174.0 L 86.4 172.0 L 87.7 169.6 L 88.8 166.8 L 89.9 163.6 L 90.9 160.1 L 91.9 156.1 L 92.4 151.8 L 94.2 151.8 L 94.5 156.2 L 95.1 160.4 L 95.3 164.3 L 95.3 168.1 L 95.0 171.5 L 94.6 174.8 L 93.8 177.9 L 92.8 180.8 L 91.4 183.6 L 89.6 186.1 L 85.3 187.6 Z M 128.6 168.7 L 128.3 166.8 L 128.0 164.8 L 127.5 162.8 L 126.9 160.9 L 126.1 158.9 L 125.2 156.8 L 124.1 154.7 L 122.6 153.0 L 123.7 151.6 L 125.7 153.1 L 127.9 154.3 L 130.0 155.7 L 131.9 157.3 L 133.7 159.1 L 135.4 161.1 L 136.9 163.2 L 138.3 165.4 L 139.5 167.8 L 140.5 170.3 L 139.5 174.8 L 135.8 177.4 L 131.3 176.4 L 128.7 172.7 L 128.7 170.7 Z M 112.3 181.7 L 108.2 179.7 L 106.6 175.4 L 107.1 173.5 L 107.4 171.6 L 107.6 169.6 L 107.6 167.5 L 107.5 165.3 L 107.3 163.0 L 106.9 160.6 L 106.3 158.1 L 105.7 155.4 L 104.5 153.0 L 106.0 152.0 L 107.7 154.2 L 109.8 156.3 L 111.5 158.4 L 113.1 160.7 L 114.5 163.1 L 115.8 165.5 L 116.8 168.0 L 117.6 170.6 L 118.2 173.3 L 118.6 176.0 L 116.6 180.1 Z M 149.2 164.4 L 148.7 162.6 L 148.2 160.9 L 147.6 159.2 L 146.9 157.6 L 146.1 155.9 L 144.1 152.5 L 142.6 151.2 L 143.6 149.7 L 145.4 150.7 L 147.5 151.4 L 149.4 152.3 L 151.3 153.4 L 153.2 154.7 L 154.9 156.2 L 156.6 157.8 L 158.1 159.6 L 159.6 161.5 L 161.0 163.5 L 160.8 168.1 L 157.6 171.3 L 153.0 171.2 L 149.8 167.9 L 149.5 166.1 Z M 83.7 84.3 L 83.7 104.0 L 102.2 104.0 L 102.2 84.3 Z M 114.2 84.3 L 114.2 104.0 L 132.7 104.0 L 132.7 84.3 Z M 144.7 84.3 L 144.7 104.0 L 163.3 104.0 L 163.3 84.3 Z " />
</g>
</svg>
