<svg xmlns="http://www.w3.org/2000/svg" xmlns:xlink="http://www.w3.org/1999/xlink" version="1.1" baseProfile="full" viewBox="0 0 200 200" width="200" height="200">
<g fill="black">
<path d="M 81.6 18.4 L 83.5 21.4 L 79.86516704559327 21.838686752319337 L 76.0 29.5 L 70.1 40.4 L 63.9 51.0 L 57.4 61.3 L 50.7 71.5 L 49.71063833236694 72.88510637283325 L 56.4 74.0 L 59.4 76.0 L 56.4 77.8 L 56.4 183.0 L 44.4 189.0 L 44.4 80.31999998092651 L 43.7 81.3 L 36.4 90.9 L 28.7 100.1 L 20.7 109.0 L 12.3 117.5 L 10.9 116.4 L 17.7 106.6 L 24.5 96.9 L 31.0 87.0 L 37.4 77.0 L 43.6 66.9 L 49.5 56.6 L 55.2 46.1 L 60.6 35.4 L 65.8 24.5 L 70.30232954025269 14.30084524154663 L 70.3 14.3 L 70.33703699111939 14.222222232818604 L 70.7 13.4 L 70.72344923019409 13.410756587982178 L 71.3 12.2 Z M 153.6 160.3 L 163.6 160.3 L 164.9 160.2 L 165.8 160.1 L 166.4 159.9 L 166.7 159.7 L 166.9 159.6 L 167.2 159.0 L 167.4 158.4 L 167.6 157.5 L 167.6 107.2 L 140.0 107.2 L 140.0 183.3 L 128.0 189.3 L 128.0 107.2 L 100.3 107.2 L 100.3 165.7 L 88.3 171.7 L 88.3 97.2 L 100.3 103.2 L 128.0 103.2 L 128.0 84.2 L 140.0 86.2 L 143.0 88.2 L 140.0 90.0 L 140.0 103.2 L 167.6 103.2 L 173.6 98.2 L 184.6 107.2 L 179.6 111.2 L 179.6 156.3 L 179.5 158.9 L 179.1 161.4 L 178.2 163.8 L 177.0 166.0 L 175.4 168.0 L 173.4 169.7 L 171.1 170.9 L 168.7 171.7 L 166.2 172.2 L 163.6 172.3 L 163.6 166.3 L 153.6 163.3 Z M 158.5 16.4 L 161.5 18.4 L 158.5 20.2 L 158.5 40.6 L 167.6 40.6 L 177.6 30.6 L 189.6 40.6 L 189.6 44.6 L 158.5 44.6 L 158.5 72.7 L 170.8181818008423 72.7 L 179.0 63.7 L 189.0 72.7 L 189.0 76.7 L 158.5 76.7 L 158.5 82.6 L 146.5 88.6 L 146.5 76.7 L 121.4 76.7 L 121.4 88.6 L 109.4 94.6 L 109.4 76.7 L 78.9 76.7 L 78.9 72.7 L 109.4 72.7 L 109.4 44.6 L 78.3 44.6 L 78.3 40.6 L 109.4 40.6 L 109.4 14.4 L 121.4 16.4 L 124.4 18.4 L 121.4 20.2 L 121.4 40.6 L 146.5 40.6 L 146.5 14.4 Z M 121.4 44.6 L 121.4 72.6 L 146.5 72.6 L 146.5 44.6 Z " />
</g>
</svg>
