<svg xmlns="http://www.w3.org/2000/svg" xmlns:xlink="http://www.w3.org/1999/xlink" version="1.1" baseProfile="full" viewBox="0 0 200 200" width="200" height="200">
<g fill="black">
<path d="M 69.2 18.0 L 71.3 21.0 L 67.64414892196655 21.630319118499756 L 64.4 29.2 L 59.5 40.0 L 54.2 50.7 L 48.8 61.0 L 43.1 71.2 L 42.01743116378784 72.98623857498168 L 48.1 74.0 L 51.1 76.0 L 48.1 77.8 L 48.1 183.0 L 36.1 189.0 L 36.1 82.64838705062866 L 30.9 90.7 L 24.5 100.0 L 17.6 108.9 L 10.4 117.5 L 8.9 116.4 L 14.5 106.8 L 19.9 97.1 L 25.3 87.3 L 30.5 77.3 L 35.6 67.2 L 40.5 56.9 L 45.2 46.4 L 49.6 35.7 L 53.9 24.8 L 57.62771806716919 14.707885265350342 L 57.6 14.7 L 58.5 12.4 Z M 69.0 176.0 L 89.0 176.0 L 89.0 126.0 L 101.0 128.0 L 104.0 130.0 L 101.0 131.8 L 101.0 176.0 L 123.0 176.0 L 123.0 98.0 L 135.0 100.0 L 138.0 102.0 L 135.0 103.8 L 135.0 133.0 L 158.8181818008423 133.0 L 167.0 124.0 L 177.0 133.0 L 177.0 137.0 L 135.0 137.0 L 135.0 176.0 L 159.0 176.0 L 169.0 166.0 L 181.0 176.0 L 181.0 180.0 L 69.0 180.0 Z M 69.0 88.0 L 89.0 88.0 L 89.0 39.0 L 101.0 41.0 L 104.0 43.0 L 101.0 44.8 L 101.0 88.0 L 123.0 88.0 L 123.0 11.0 L 135.0 13.0 L 138.0 15.0 L 135.0 16.8 L 135.0 45.0 L 158.8181818008423 45.0 L 167.0 36.0 L 177.0 45.0 L 177.0 49.0 L 135.0 49.0 L 135.0 88.0 L 159.0 88.0 L 169.0 78.0 L 181.0 88.0 L 181.0 92.0 L 69.0 92.0 Z " />
</g>
</svg>
