<svg xmlns="http://www.w3.org/2000/svg" xmlns:xlink="http://www.w3.org/1999/xlink" version="1.1" baseProfile="full" viewBox="0 0 200 200" width="200" height="200">
<g fill="black">
<path d="M 130.6 175.9 L 114.2 169.1 L 99.5 161.4 L 86.6 153.0 L 75.5 143.9 L 66.2 134.0 L 58.9 123.4 L 53.5 112.0 L 51.59949750900269 104.76582918167114 L 47.3 110.0 L 42.7 115.4 L 40.4 118.0 L 38.2 120.6 L 36.608485507965085 122.40853919982911 L 37.3 126.5 L 33.8 125.7 L 24.1 118.2 L 25.6 116.9 L 28.4 114.9 L 31.1 112.8 L 36.9 108.8 L 39.8 106.9 L 45.8 102.9 L 50.42574987411499 100.29801568984985 L 50.4 100.2 L 50.819178104400635 100.07671232223511 L 52.2 99.3 L 55.4 97.3 L 56.5 98.6 L 54.1 101.4 L 53.401336097717284 102.3527235031128 L 57.3 110.3 L 63.8 120.1 L 71.6 129.2 L 81.0 137.6 L 91.9 145.3 L 104.4 152.5 L 118.6 158.9 L 134.5 164.8 L 152.1 170.0 L 171.4 174.5 L 180.3 176.5 L 168.5 187.4 L 148.7 182.0 Z M 70.0 114.0 L 90.0 114.0 L 91.2 113.9 L 92.1 113.7 L 93.0 113.4 L 93.4 113.0 L 93.7 112.1 L 93.9 111.2 L 94.0 110.0 L 94.0 84.0 L 24.0 84.0 L 24.0 80.0 L 94.0 80.0 L 94.0 62.0 L 58.0 62.0 L 58.0 58.0 L 120.0 58.0 L 130.0 48.0 L 142.0 58.0 L 142.0 62.0 L 106.0 62.0 L 106.0 80.0 L 154.0 80.0 L 164.0 70.0 L 176.0 80.0 L 176.0 84.0 L 106.0 84.0 L 106.0 110.0 L 105.8 112.5 L 105.4 115.0 L 104.6 117.4 L 103.3 119.7 L 101.7 121.7 L 99.7 123.3 L 97.4 124.6 L 95.0 125.4 L 92.5 125.8 L 90.0 126.0 L 90.0 120.0 L 70.0 117.0 Z M 159.6 118.5 L 156.6 115.8 L 153.1 113.0 L 149.3 110.2 L 145.1 107.3 L 140.5 104.4 L 135.5 101.5 L 130.2 98.4 L 124.6 95.1 L 125.2 93.5 L 131.6 94.9 L 137.7 96.6 L 143.3 98.5 L 148.6 100.6 L 153.5 102.8 L 158.1 105.1 L 162.4 107.6 L 166.4 110.1 L 170.0 112.8 L 173.3 115.7 L 174.8 120.0 L 173.0 124.1 L 168.7 125.7 L 164.5 123.9 L 162.3 121.2 Z M 159.0 60.5 L 150.3 56.7 L 141.8 52.5 L 133.7 47.9 L 125.9 42.9 L 118.3 37.6 L 111.1 31.8 L 104.4 25.5 L 102.39179468154907 23.332413291931154 L 98.3 27.2 L 90.4 33.7 L 82.1 39.7 L 73.4 45.4 L 64.2 50.6 L 54.5 55.3 L 44.4 59.6 L 33.8 63.4 L 22.7 66.7 L 11.2 69.3 L 10.7 67.6 L 21.5 63.1 L 31.8 58.4 L 41.7 53.6 L 51.0 48.6 L 59.9 43.2 L 68.3 37.6 L 76.2 31.7 L 83.6 25.4 L 90.5 18.9 L 96.9 12.0 L 96.91460552215577 12.01393394470215 L 97.2 11.7 L 105.6 20.3 L 105.89665651321411 21.5978723526001 L 107.0 22.3 L 114.6 27.0 L 122.3 31.5 L 130.1 35.7 L 138.1 39.6 L 146.2 43.2 L 154.5 46.5 L 163.0 49.4 L 171.8 52.0 L 180.7 54.3 L 188.9 56.5 L 177.2 67.0 L 168.0 63.9 Z " />
</g>
</svg>
