<svg xmlns="http://www.w3.org/2000/svg" xmlns:xlink="http://www.w3.org/1999/xlink" version="1.1" baseProfile="full" viewBox="0 0 200 200" width="200" height="200">
<g fill="black">
<path d="M 68.8 18.0 L 70.9 21.0 L 67.26430969238281 21.626843166351318 L 64.1 29.1 L 59.1 40.0 L 53.9 50.7 L 48.5 61.0 L 42.9 71.2 L 41.7981481552124 72.99969139099122 L 47.8 74.0 L 50.8 76.0 L 47.8 77.8 L 47.8 183.0 L 35.8 189.0 L 35.8 82.73114757537842 L 30.8 90.6 L 24.3 99.9 L 17.5 108.9 L 10.3 117.5 L 8.9 116.4 L 14.4 106.8 L 19.8 97.1 L 25.1 87.3 L 30.3 77.3 L 35.4 67.2 L 40.2 56.9 L 44.8 46.4 L 49.3 35.7 L 53.5 24.8 L 57.22771806716919 14.707885265350342 L 57.2 14.7 L 58.1 12.4 Z M 171.1 184.1 L 168.2 182.3 L 164.7 180.6 L 160.8 178.8 L 156.4 177.0 L 151.5 175.2 L 146.2 173.4 L 140.4 171.4 L 134.2 169.4 L 134.5 167.6 L 141.1 167.9 L 147.2 168.3 L 153.0 169.0 L 158.3 169.9 L 163.3 170.9 L 167.9 172.0 L 172.0 173.2 L 175.9 174.5 L 179.4 176.0 L 182.6 177.7 L 184.9 181.7 L 183.9 186.1 L 179.9 188.5 L 175.5 187.4 L 173.6 185.8 Z M 110.8 167.13333330154418 L 116.6 173.0 L 116.8 176.4 L 112.93628320693969 174.82831859588623 L 111.2 175.6 L 107.4 177.1 L 103.2 178.6 L 98.6 180.0 L 93.7 181.4 L 88.4 182.8 L 82.7 184.1 L 76.6 185.3 L 70.2 186.3 L 63.3 187.1 L 62.8 185.4 L 69.2 182.7 L 75.1 180.1 L 80.8 177.8 L 86.0 175.6 L 90.8 173.4 L 95.3 171.4 L 99.3 169.3 L 102.9 167.4 L 106.0 165.5 L 107.93808326721191 164.25408935546875 L 107.9 164.2 L 107.94749383926391 164.24803972244263 L 108.8 163.7 Z M 95.0 148.6 L 95.0 158.7 L 157.0 158.7 L 157.0 148.6 Z M 95.0 134.5 L 95.0 144.6 L 157.0 144.6 L 157.0 134.5 Z M 95.0 120.4 L 95.0 130.5 L 157.0 130.5 L 157.0 120.4 Z M 83.15 110.475 L 95.0 116.4 L 157.0 116.4 L 163.0 111.4 L 164.2 112.38181819915772 L 164.2 107.9 L 88.3 107.9 Z M 97.8 85.2 L 93.0 86.0 L 88.3 86.63269233703613 L 88.3 103.9 L 100.8 103.9 L 100.8 84.46666669845581 Z M 112.8 90.1 L 112.8 103.9 L 138.5 103.9 L 138.5 90.1 Z M 159.7 71.4 L 161.7 71.4 L 159.7 76.4 L 161.8 77.8 L 163.2 79.9 L 161.8 82.0 L 159.7 83.4 L 147.31111106872558 83.4 L 155.5 90.1 L 150.5 94.1 L 150.5 103.9 L 164.2 103.9 L 164.2 65.3 L 141.9 65.3 L 141.9 69.9 L 141.7 71.2 L 141.6 72.2 L 141.6 73.5 L 141.7 74.1 L 142.0 74.6 L 142.4 75.1 L 143.2 75.6 L 144.4 76.1 L 145.9 76.4 L 156.2 76.4 Z M 88.3 65.3 L 88.3 84.65531911849976 L 92.1 83.2 L 96.3 81.0 L 99.9 78.9 L 103.0 76.7 L 105.6 74.4 L 107.7 72.2 L 109.2 70.0 L 110.3 67.8 L 111.0 65.6 L 111.04285717010498 65.3 Z M 147.5 56.4 L 145.3 56.2 L 143.1 55.7 L 140.9 54.9 L 139.0 53.6 L 137.3 51.9 L 135.9 49.9 L 134.9 47.7 L 134.2 45.3 L 133.8 42.7 L 133.8 39.9 L 119.79268293380737 39.9 L 118.3 43.3 L 115.5 46.6 L 112.1 49.4 L 108.0 51.8 L 103.3 53.8 L 97.9 55.6 L 91.8 57.2 L 85.0 58.5 L 83.22164945602417 58.7608247756958 L 88.3 61.3 L 164.2 61.3 L 170.2 56.3 L 181.2 65.3 L 176.2 69.3 L 176.2 107.9 L 165.35172414779663 113.3241379737854 L 174.0 120.4 L 169.0 124.4 L 169.0 162.7 L 157.0 168.7 L 157.0 162.7 L 95.0 162.7 L 83.0 168.7 L 83.0 110.55 L 76.3 113.9 L 76.3 59.7 L 69.1 60.3 L 68.8 58.5 L 76.3 56.0 L 76.3 55.3 L 77.12809915542603 55.714049625396726 L 83.7 53.4 L 89.9 50.9 L 95.2 48.5 L 99.7 46.2 L 103.2 43.8 L 105.8 41.6 L 107.17619047164916 39.9 L 69.0 39.9 L 69.0 35.9 L 120.0 35.9 L 120.0 26.6 L 78.5 26.6 L 78.5 22.6 L 120.0 22.6 L 120.0 13.1 L 132.0 15.1 L 135.0 17.1 L 132.0 18.9 L 132.0 22.6 L 158.11818180084228 22.6 L 166.3 13.6 L 176.3 22.6 L 176.3 26.6 L 132.0 26.6 L 132.0 35.9 L 172.37777776718139 35.9 L 178.6 28.9 L 186.6 35.9 L 186.6 39.9 L 145.8 39.9 L 145.8 42.7 L 145.6 44.0 L 145.6 46.4 L 145.7 46.9 L 145.9 47.4 L 146.4 47.9 L 147.2 48.4 L 148.3 48.9 L 149.8 49.2 L 180.7 49.2 L 182.8 50.6 L 184.2 52.7 L 182.8 54.8 L 180.7 56.2 L 149.8 56.2 Z M 120.46521739959717 65.3 L 122.9 66.3 L 125.4 69.0 L 121.10704221725464 70.30321931838989 L 119.2 73.3 L 116.6 76.2 L 113.6 78.7 L 110.2 80.9 L 106.4 82.6 L 106.05352115631104 82.72676057815552 L 112.8 86.1 L 138.5 86.1 L 141.71724138259887 83.41896553039551 L 141.3 83.4 L 139.1 82.9 L 137.0 82.1 L 135.0 80.8 L 133.3 79.1 L 131.9 77.1 L 130.9 74.8 L 130.2 72.4 L 129.9 69.9 L 129.9 65.3 Z " />
</g>
</svg>
