<svg xmlns="http://www.w3.org/2000/svg" xmlns:xlink="http://www.w3.org/1999/xlink" version="1.1" baseProfile="full" viewBox="0 0 200 200" width="200" height="200">
<g fill="black">
<path d="M 150.5 179.7 L 138.8 174.0 L 128.6 167.5 L 120.0 160.2 L 113.2 152.2 L 108.1 143.4 L 104.8 134.0 L 103.92872343063354 127.77659578323365 L 101.7 135.8 L 96.7 145.7 L 90.1 154.5 L 81.7 162.3 L 71.7 169.1 L 60.2 174.8 L 47.1 179.5 L 32.4 183.2 L 16.1 185.8 L 15.8 184.0 L 31.4 179.5 L 45.3 174.4 L 57.4 168.8 L 67.7 162.6 L 76.2 155.9 L 83.0 148.5 L 88.0 140.7 L 91.5 132.2 L 93.5 123.2 L 94.0 113.3 L 94.0 110.9 L 106.0 113.3 L 109.0 115.3 L 106.37105751037598 116.87736549377442 L 107.6 123.5 L 110.4 132.2 L 114.5 140.0 L 119.7 147.0 L 126.3 153.3 L 134.3 159.1 L 143.8 164.2 L 154.8 168.7 L 167.3 172.6 L 181.4 175.8 L 190.3 177.8 L 178.5 188.7 L 163.7 184.6 Z M 55.040540504455564 25.7 L 155.0 25.7 L 161.0 20.7 L 172.0 29.7 L 167.0 32.7 L 165.73191118240356 33.228370380401614 L 164.11737451553344 60.5 L 168.0 60.5 L 178.0 50.5 L 190.0 60.5 L 190.0 64.5 L 163.88056631088256 64.5 L 161.4 106.4 L 149.0 111.5 L 149.8096658706665 100.0 L 47.73248262405396 100.0 L 46.3 112.6 L 33.7 117.2 L 39.71059064865112 64.5 L 12.0 64.5 L 12.0 60.5 L 40.166802406311035 60.5 L 44.9 19.0 Z M 51.76844549179077 64.5 L 48.1872389793396 96.0 L 93.09914655685425 96.0 L 96.23570413589478 64.5 Z M 108.33570413589477 64.5 L 105.19914655685425 96.0 L 150.0912887573242 96.0 L 152.30906925201415 64.5 Z M 55.72482595443726 29.7 L 52.22320184707642 60.5 L 96.63399715423584 60.5 L 99.70085344314575 29.7 Z M 111.80085344314575 29.7 L 108.73399715423584 60.5 L 152.59069213867187 60.5 L 154.75918855667115 29.7 Z " />
</g>
</svg>
