<svg xmlns="http://www.w3.org/2000/svg" xmlns:xlink="http://www.w3.org/1999/xlink" version="1.1" baseProfile="full" viewBox="0 0 200 200" width="200" height="200">
<g fill="black">
<path d="M 51.6 104.6 L 54.3 106.6 L 51.6 108.32340421676636 L 51.6 139.4 L 50.9 147.1 L 49.5 154.3 L 47.3 160.9 L 44.3 166.8 L 40.6 172.1 L 36.1 176.6 L 30.9 180.3 L 25.1 183.3 L 18.7 185.4 L 11.7 186.7 L 11.3 185.1 L 17.5 182.2 L 22.8 179.0 L 27.4 175.5 L 31.2 171.6 L 34.3 167.4 L 36.8 162.8 L 38.6 157.8 L 39.9 152.2 L 40.5 146.1 L 40.6 139.4 L 40.6 102.6 Z M 102.8 149.3 L 104.8 149.3 L 102.8 174.3 L 106.4 176.7 L 108.8 180.3 L 106.4 183.9 L 102.8 186.3 L 79.8 186.3 L 77.3 186.1 L 74.8 185.7 L 72.4 184.8 L 70.2 183.6 L 68.3 181.9 L 66.7 179.9 L 65.5 177.7 L 64.8 175.3 L 64.4 172.8 L 64.3 170.3 L 64.3 102.1 L 75.3 104.1 L 78.1 106.1 L 75.3 107.85 L 75.3 170.3 L 75.4 171.6 L 75.7 172.6 L 75.9 173.2 L 76.2 173.6 L 76.4 173.8 L 77.0 174.1 L 77.7 174.2 L 78.6 174.3 L 96.8 174.3 Z M 164.5 180.7 L 162.8 182.4 L 160.8 183.9 L 158.8 185.1 L 156.6 186.2 L 154.3 187.0 L 152.0 187.5 L 149.5 187.8 L 147.1 188.0 L 147.1 182.0 L 127.1 179.0 L 127.1 176.0 L 147.1 176.0 L 148.5 175.9 L 149.8 175.7 L 151.0 175.4 L 152.1 175.1 L 153.1 174.6 L 154.0 174.0 L 154.9 173.3 L 155.8 172.5 L 156.7 171.5 L 157.5 170.3 L 158.2 169.0 L 159.1 166.7 L 160.1 163.5 L 161.1 159.5 L 162.1 154.7 L 163.2 149.1 L 164.2 142.8 L 165.2 135.7 L 166.3 127.9 L 166.98604650497435 122.0 L 130.96049146652223 122.0 L 128.4 134.9 L 115.5 138.4 L 126.1042552947998 85.0 L 102.5 85.0 L 102.5 81.0 L 153.02653064727784 81.0 L 153.7 77.7 L 154.5 73.0 L 155.4 68.5 L 156.2 64.3 L 157.0 60.2 L 157.7 56.5 L 158.3 52.9 L 158.8 49.5 L 159.2 46.4 L 159.46080045700074 44.50919666290283 L 159.4 44.5 L 159.56363639831542 43.76363639831543 L 159.6 43.5 L 159.62110004425048 43.50504961013794 L 160.0 41.8 L 171.3 46.3 L 173.7 48.9 L 169.82525186538697 50.16809940338135 L 169.0 52.3 L 167.6 55.6 L 166.2 59.0 L 164.6 62.6 L 162.9 66.4 L 161.0 70.4 L 159.0 74.5 L 156.7 78.8 L 155.5755555152893 81.0 L 166.4 81.0 L 176.4 71.0 L 188.4 81.0 L 188.4 85.0 L 138.304536819458 85.0 L 131.75444231033325 118.0 L 167.2 118.0 L 173.2 113.0 L 184.2 122.0 L 179.2 125.0 L 178.66881284713745 125.22132797241211 L 178.2 129.3 L 177.1 137.3 L 176.1 144.6 L 175.0 151.2 L 173.9 157.0 L 172.8 162.2 L 171.6 166.7 L 170.4 170.6 L 169.1 174.0 L 167.6 176.9 L 166.1 178.9 Z M 27.8 114.0 L 16.8 119.5 L 16.8 51.5 L 27.8 57.0 L 44.01428575515747 57.0 L 43.1 56.6 L 43.7 53.5 L 44.1 50.3 L 44.5 47.0 L 45.0 43.6 L 45.5 40.1 L 46.0 36.5 L 46.5 32.8 L 46.9 29.0 L 47.3 25.0 L 47.39756097793579 24.0 L 26.1 24.0 L 26.1 20.0 L 47.6 20.0 L 53.6 15.0 L 60.7 20.809090900421143 L 60.7 20.0 L 80.6 20.0 L 86.6 15.0 L 97.6 24.0 L 92.6 27.0 L 90.26779661178588 27.971751403808593 L 88.6 31.4 L 84.8 38.4 L 82.8 41.8 L 78.6 48.4 L 76.4 51.5 L 74.0 54.4 L 72.00666666030884 57.0 L 88.1 57.0 L 93.6 52.0 L 104.1 61.0 L 99.1 64.5 L 99.1 108.0 L 88.1 113.5 L 88.1 102.0 L 27.8 102.0 Z M 27.8 61.0 L 27.8 98.0 L 41.1 98.0 L 41.1 61.0 Z M 51.1 61.0 L 51.1 98.0 L 64.8 98.0 L 64.8 61.0 Z M 74.8 61.0 L 74.8 98.0 L 88.1 98.0 L 88.1 61.0 Z M 126.6 66.5 L 126.3 63.4 L 125.5 57.4 L 124.3 51.6 L 123.7 48.8 L 123.0 45.9 L 122.0 43.3 L 123.5 42.3 L 125.4 44.6 L 127.4 46.9 L 129.3 49.4 L 131.1 52.1 L 132.7 54.9 L 134.1 57.9 L 135.5 61.0 L 136.7 64.2 L 137.8 67.6 L 138.8 71.1 L 137.7 75.5 L 133.8 77.9 L 129.4 76.8 L 126.9 72.9 L 126.8 69.7 Z M 64.6 24.0 L 59.6 27.0 L 58.29714288711548 27.54285717010498 L 57.2 31.2 L 55.9 35.0 L 54.5 38.7 L 53.1 42.3 L 51.6 45.6 L 50.0 48.8 L 48.3 51.8 L 46.5 54.6 L 44.9 57.0 L 70.98888893127442 57.0 L 70.1 56.5 L 71.3 53.0 L 72.2 49.4 L 75.5 38.6 L 78.8 27.5 L 79.8131579399109 24.0 Z M 108.1 35.0 L 139.5 35.0 L 139.5 12.0 L 151.5 14.0 L 154.5 16.0 L 151.5 17.8 L 151.5 35.0 L 160.8 35.0 L 170.8 25.0 L 182.8 35.0 L 182.8 39.0 L 108.1 39.0 Z " />
</g>
</svg>
