<svg xmlns="http://www.w3.org/2000/svg" xmlns:xlink="http://www.w3.org/1999/xlink" version="1.1" baseProfile="full" viewBox="0 0 200 200" width="200" height="200">
<g fill="black">
<path d="M 180.0 149.1 L 182.0 149.1 L 180.0 174.1 L 183.6 176.5 L 186.0 180.1 L 183.6 183.7 L 180.0 186.1 L 126.0 186.1 L 123.4 185.9 L 120.9 185.5 L 118.5 184.7 L 116.2 183.5 L 114.2 181.8 L 112.6 179.8 L 111.3 177.5 L 110.5 175.1 L 110.1 172.6 L 110.0 170.1 L 110.0 126.9 L 87.02758617401123 126.9 L 89.9 127.6 L 92.8 129.8 L 89.22385969161988 131.65684213638306 L 88.2 137.8 L 85.2 147.2 L 80.7 155.7 L 74.8 163.3 L 67.7 169.9 L 59.3 175.6 L 49.8 180.3 L 39.1 184.0 L 27.2 186.8 L 14.1 188.6 L 13.8 186.8 L 26.2 183.1 L 37.3 179.0 L 47.0 174.3 L 55.3 169.2 L 62.2 163.5 L 67.7 157.3 L 72.0 150.6 L 75.1 143.3 L 77.1 135.5 L 77.80699291229249 127.89982662200927 L 77.8 127.9 L 77.8625 126.9 L 59.0 126.9 L 59.0 138.9 L 47.0 144.9 L 47.0 71.02134828567505 L 41.8 73.3 L 32.4 76.8 L 22.6 79.9 L 12.2 82.5 L 11.7 80.8 L 21.2 76.3 L 30.4 71.8 L 39.0 67.3 L 47.2 62.7 L 54.9 57.9 L 62.1 53.0 L 68.8 47.8 L 75.0 42.6 L 80.7 37.1 L 85.9 31.5 L 85.91460552215577 31.51393394470215 L 86.2 31.2 L 94.6 39.8 L 95.4 43.3 L 91.70870532989503 42.45812578201294 L 88.4 45.5 L 81.8 50.8 L 74.7 55.9 L 67.2 60.7 L 59.2 65.2 L 50.7 69.4 L 48.08862276077271 70.54431133270263 L 59.0 76.0 L 143.0 76.0 L 149.0 71.0 L 160.0 80.0 L 155.0 84.0 L 155.0 132.9 L 143.0 138.9 L 143.0 126.9 L 122.0 126.9 L 122.0 171.3 L 122.2 172.2 L 122.4 172.8 L 122.5 173.2 L 122.7 173.3 L 122.9 173.5 L 123.2 173.7 L 123.8 173.9 L 124.7 174.0 L 126.0 174.1 L 174.0 174.1 Z M 59.0 80.0 L 59.0 122.9 L 143.0 122.9 L 143.0 80.0 Z M 161.2 76.7 L 153.7 72.9 L 146.5 68.7 L 139.6 64.1 L 133.1 59.1 L 126.9 53.6 L 121.1 47.7 L 115.7 41.3 L 110.9 34.4 L 112.3 33.2 L 118.7 38.4 L 125.0 43.4 L 131.4 48.0 L 138.0 52.3 L 144.6 56.2 L 151.5 59.8 L 158.5 63.0 L 165.7 65.8 L 173.2 68.3 L 180.8 70.4 L 188.8 72.7 L 177.1 83.1 L 169.0 80.1 Z M 77.4 20.9 L 78.1 24.4 L 74.32159090042114 23.405681800842284 L 73.1 24.4 L 68.5 27.7 L 63.6 30.9 L 58.4 33.9 L 52.9 36.8 L 47.0 39.5 L 40.9 42.0 L 34.4 44.3 L 27.5 46.4 L 20.3 48.1 L 19.6 46.4 L 26.1 42.8 L 32.2 39.4 L 38.0 36.1 L 43.5 32.8 L 48.7 29.4 L 53.4 26.1 L 57.9 22.7 L 62.0 19.2 L 65.7 15.8 L 68.3650996208191 13.056515121459961 L 68.3 13.0 L 69.3 12.0 Z M 158.4 38.1 L 154.8 35.3 L 150.9 32.6 L 146.7 29.8 L 142.2 27.1 L 137.4 24.4 L 132.4 21.7 L 127.1 18.8 L 121.6 15.8 L 122.2 14.1 L 128.4 15.2 L 134.4 16.7 L 140.0 18.4 L 145.4 20.3 L 150.6 22.3 L 155.4 24.5 L 160.1 26.8 L 164.5 29.3 L 168.6 31.8 L 172.5 34.6 L 174.6 38.6 L 173.2 43.0 L 169.2 45.1 L 164.8 43.7 L 161.7 40.9 Z " />
</g>
</svg>
