<svg xmlns="http://www.w3.org/2000/svg" xmlns:xlink="http://www.w3.org/1999/xlink" version="1.1" baseProfile="full" viewBox="0 0 200 200" width="200" height="200">
<g fill="black">
<path d="M 43.5 84.1 L 156.2 84.1 L 166.2 74.1 L 178.2 84.1 L 178.2 88.1 L 43.5 88.1 L 43.5 126.2 L 42.9 134.9 L 41.8 143.0 L 40.1 150.7 L 37.9 157.7 L 35.2 164.2 L 31.8 170.2 L 28.0 175.4 L 23.6 180.0 L 18.6 183.8 L 13.1 186.8 L 12.1 185.3 L 16.1 181.0 L 19.6 176.4 L 22.6 171.7 L 25.2 166.5 L 27.3 161.0 L 29.0 155.0 L 30.3 148.6 L 31.1 141.6 L 31.5 134.2 L 31.5 78.1 Z M 75.9 117.2 L 152.0 117.2 L 158.0 112.2 L 169.0 121.2 L 164.0 125.2 L 164.0 174.7 L 152.0 180.7 L 152.0 168.7 L 75.9 168.7 L 75.9 180.7 L 63.9 186.7 L 63.9 111.2 Z M 75.9 121.2 L 75.9 164.7 L 152.0 164.7 L 152.0 121.2 Z M 157.1 54.6 L 157.1 58.6 L 48.8 58.6 L 48.8 54.6 L 135.1 54.6 L 145.1 44.6 Z M 83.2 22.1 L 83.6 25.7 L 80.01999998092651 24.528363609313963 L 77.7 26.3 L 72.0 30.3 L 65.9 34.3 L 59.5 38.1 L 52.7 41.8 L 45.5 45.3 L 38.1 48.8 L 30.2 52.0 L 22.0 55.0 L 13.3 57.8 L 12.6 56.1 L 20.4 51.6 L 27.9 47.2 L 35.0 42.9 L 41.9 38.7 L 48.3 34.5 L 54.5 30.2 L 60.2 26.0 L 65.6 21.7 L 70.6 17.4 L 75.2 13.1 L 75.4 12.9 Z M 166.4 45.6 L 161.7 41.6 L 156.7 37.7 L 151.3 33.9 L 145.5 30.2 L 139.3 26.7 L 132.8 23.2 L 125.9 19.7 L 118.6 16.1 L 119.2 14.4 L 127.2 16.1 L 134.8 18.2 L 142.1 20.7 L 149.0 23.5 L 155.5 26.6 L 161.8 29.9 L 167.6 33.4 L 173.2 37.3 L 178.4 41.3 L 183.2 45.6 L 184.8 49.9 L 183.0 54.1 L 178.7 55.7 L 174.5 53.9 L 170.7 49.7 Z " />
</g>
</svg>
