<svg xmlns="http://www.w3.org/2000/svg" xmlns:xlink="http://www.w3.org/1999/xlink" version="1.1" baseProfile="full" viewBox="0 0 200 200" width="200" height="200">
<g fill="black">
<path d="M 58.1 147.5 L 54.9 143.4 L 51.5 139.5 L 50.48195877075195 138.48195877075196 L 49.6 140.5 L 42.9 152.7 L 35.4 163.7 L 27.0 173.4 L 17.9 181.8 L 7.9 188.7 L 6.8 187.2 L 15.3 179.0 L 23.0 169.9 L 30.0 159.9 L 36.3 149.0 L 41.9 136.9 L 43.64397401809693 132.23753881454468 L 43.6 132.2 L 39.1 128.8 L 34.3 125.5 L 29.695509243011475 122.61090774536133 L 27.8 133.1 L 15.0 136.8 L 28.270789241790773 63.0 L 12.3 63.0 L 12.3 59.0 L 28.990073204040527 59.0 L 37.1 13.9 L 48.6 18.0 L 51.2 20.5 L 47.97212314605713 21.474453449249268 L 41.19079065322876 59.0 L 59.1 59.0 L 65.1 54.0 L 76.1 63.0 L 71.1 66.0 L 70.40014724731445 66.29160528182983 L 68.4 79.7 L 64.9 96.6 L 60.6 112.4 L 55.5 127.0 L 54.22454671859741 129.9184100151062 L 57.8 132.6 L 62.3 136.5 L 66.4 140.8 L 70.3 145.4 L 73.8 150.3 L 74.3 154.9 L 71.6 158.5 L 67.0 159.1 L 63.4 156.4 L 60.9 151.8 Z M 92.0 22.0 L 95.0 24.0 L 92.0 25.8 L 92.0 97.0 L 161.0 97.0 L 171.0 87.0 L 183.0 97.0 L 183.0 101.0 L 92.0 101.0 L 92.0 124.0 L 91.4 133.8 L 90.5 143.0 L 89.0 151.4 L 87.1 159.1 L 84.7 166.0 L 81.8 172.2 L 78.5 177.5 L 74.6 182.0 L 70.2 185.4 L 65.4 187.7 L 64.5 186.2 L 67.7 182.6 L 70.4 178.6 L 72.9 174.1 L 74.9 169.1 L 76.7 163.4 L 78.1 157.0 L 79.1 149.8 L 79.8 141.9 L 80.1 133.3 L 80.0 124.0 L 80.0 20.0 Z M 166.6 169.0 L 162.3 164.5 L 158.6 159.5 L 155.5 154.1 L 152.9 148.4 L 151.0 142.3 L 149.7 135.9 L 149.0 129.1 L 149.1718309402466 123.0 L 142.0 123.0 L 142.0 119.0 L 145.18000001907347 119.0 L 150.1 114.9 L 161.1 123.9 L 156.1 126.9 L 153.1 128.4 L 155.4 134.3 L 157.8 139.8 L 160.5 144.8 L 163.5 149.3 L 166.7 153.3 L 170.3 156.8 L 174.2 160.0 L 178.5 162.8 L 183.1 165.1 L 188.1 167.8 L 176.8 176.8 L 171.5 173.1 Z M 128.5 134.5 L 130.8 137.3 L 127.11768770217896 138.28633365631103 L 126.2 140.8 L 123.5 146.6 L 120.6 152.0 L 117.3 157.0 L 113.8 161.5 L 109.9 165.5 L 105.7 169.0 L 101.2 171.9 L 96.4 174.2 L 91.3 175.8 L 90.6 174.1 L 94.4 170.9 L 98.0 167.6 L 101.3 164.1 L 104.3 160.4 L 107.0 156.4 L 109.5 152.1 L 111.7 147.4 L 113.7 142.4 L 115.4 137.0 L 116.63513288497924 132.30649518966675 L 116.6 132.3 L 117.4 129.6 Z M 40.46794090270996 63.0 L 30.392519760131837 118.7538932800293 L 30.6 118.8 L 36.7 120.7 L 42.4 123.1 L 46.30454654693604 125.12457971572876 L 46.8 123.8 L 50.9 109.6 L 54.4 94.3 L 57.1 77.9 L 58.87784090042114 63.0 Z M 150.0 121.91111106872559 L 150.1 121.9 L 150.0 121.86666669845582 Z M 167.2 73.9 L 163.2 69.3 L 159.8 64.4 L 156.9 59.0 L 154.6 53.3 L 152.8 47.2 L 151.6 40.8 L 151.0 34.1 L 151.1718309402466 28.0 L 142.0 28.0 L 142.0 24.0 L 147.18000001907347 24.0 L 152.1 19.9 L 163.1 28.9 L 158.1 31.9 L 155.1 33.4 L 157.3 39.4 L 159.6 44.9 L 162.2 49.9 L 165.0 54.4 L 168.1 58.4 L 171.5 62.0 L 175.1 65.1 L 179.1 67.9 L 183.3 70.2 L 187.8 72.9 L 176.6 81.7 L 171.7 78.0 Z M 132.5 39.5 L 134.8 42.3 L 131.11768770217896 43.28633365631104 L 130.2 45.8 L 127.5 51.6 L 124.6 57.0 L 121.3 62.0 L 117.8 66.5 L 113.9 70.5 L 109.7 74.0 L 105.2 76.9 L 100.4 79.2 L 95.3 80.8 L 94.6 79.1 L 98.4 75.9 L 102.0 72.6 L 105.3 69.1 L 108.3 65.4 L 111.0 61.4 L 113.5 57.1 L 115.7 52.4 L 117.7 47.4 L 119.4 42.0 L 120.63513288497924 37.30649518966675 L 120.6 37.3 L 121.4 34.6 Z M 152.0 26.911111068725585 L 152.1 26.9 L 152.0 26.86666669845581 Z " />
</g>
</svg>
