<svg xmlns="http://www.w3.org/2000/svg" xmlns:xlink="http://www.w3.org/1999/xlink" version="1.1" baseProfile="full" viewBox="0 0 200 200" width="200" height="200">
<g fill="black">
<path d="M 135.2 176.2 L 155.2 176.2 L 156.5 176.1 L 157.4 175.9 L 158.3 175.6 L 158.5 175.4 L 158.6 175.2 L 158.8 174.9 L 159.0 174.3 L 159.2 173.4 L 159.2 109.7 L 40.7 109.7 L 40.7 181.1 L 28.7 187.1 L 28.7 99.7 L 40.7 105.7 L 159.2 105.7 L 165.2 100.7 L 176.2 109.7 L 171.2 113.7 L 171.2 172.2 L 171.1 174.7 L 170.7 177.2 L 169.8 179.6 L 168.6 181.9 L 167.0 183.9 L 165.0 185.5 L 162.7 186.8 L 160.3 187.6 L 157.8 188.0 L 155.2 188.2 L 155.2 182.2 L 135.2 179.2 Z M 163.2 81.7 L 155.2 75.4 L 148.0 68.5 L 141.5 61.1 L 135.8 53.1 L 130.9 44.6 L 126.8 35.5 L 123.6 26.0 L 121.4 15.9 L 123.1 15.4 L 127.4 24.5 L 132.1 33.0 L 137.1 40.9 L 142.6 48.2 L 148.5 55.0 L 155.1 61.1 L 162.1 66.8 L 169.7 71.9 L 177.9 76.4 L 186.7 80.5 L 192.6 83.2 L 181.2 92.5 L 171.8 87.4 Z M 79.7 22.8 L 82.3 25.3 L 78.62207050323487 26.637428855895998 L 77.2 31.7 L 73.7 40.3 L 69.3 48.4 L 63.9 56.0 L 57.6 63.1 L 50.3 69.8 L 42.2 75.9 L 33.2 81.6 L 23.2 86.7 L 12.3 91.2 L 11.6 89.5 L 21.4 83.4 L 30.2 77.1 L 38.2 70.7 L 45.2 64.2 L 51.3 57.5 L 56.4 50.5 L 60.6 43.4 L 63.9 36.0 L 66.3 28.4 L 67.72702703475952 21.44324321746826 L 68.2 18.7 Z " />
</g>
</svg>
