<svg xmlns="http://www.w3.org/2000/svg" xmlns:xlink="http://www.w3.org/1999/xlink" version="1.1" baseProfile="full" viewBox="0 0 200 200" width="200" height="200">
<g fill="black">
<path d="M 91.0 174.7 L 91.1 175.4 L 91.3 176.2 L 91.9 176.8 L 92.6 177.1 L 93.6 177.4 L 95.0 177.5 L 107.0 177.5 L 107.0 82.4 L 91.0 82.4 L 91.0 172.5 L 90.9 173.8 Z M 119.0 119.7 L 119.0 159.6 L 162.0 159.6 L 162.0 119.7 Z M 140.29693489074708 146.4555555343628 L 137.9 148.5 L 134.2 151.2 L 130.5 153.6 L 126.5 155.8 L 122.5 157.7 L 121.4 156.3 L 124.5 153.1 L 127.3 149.8 L 130.1 146.6 L 132.8 143.3 L 135.3 140.0 L 135.41395025253297 139.84502763748168 L 135.3 139.7 L 133.1 137.1 L 130.8 134.4 L 126.0 129.2 L 123.3 126.8 L 124.3 125.3 L 127.6 126.8 L 131.0 128.2 L 134.3 129.9 L 137.5 131.9 L 139.84477043151855 133.48839282989502 L 140.1 133.1 L 142.3 129.5 L 145.85340185165404 122.92620649337769 L 145.8 122.9 L 146.8 121.2 L 156.6 128.2 L 158.2 131.4 L 154.24210529327394 131.4 L 153.8 132.0 L 150.9 135.7 L 147.9 139.2 L 147.50290660858155 139.6095025062561 L 149.5 141.4 L 152.3 144.2 L 155.0 147.1 L 156.0 151.5 L 153.7 155.5 L 149.3 156.5 L 145.3 154.2 L 143.5 151.1 Z M 119.0 82.4 L 119.0 97.4 L 152.0 97.4 L 152.0 82.4 Z M 48.0 82.4 L 48.0 97.4 L 79.0 97.4 L 79.0 82.4 Z M 71.3 31.2 L 71.9 34.8 L 67.98965520858765 33.68275861740112 L 67.7 33.9 L 63.6 36.3 L 59.0 38.5 L 53.9 40.6 L 48.3 42.5 L 42.2 44.3 L 35.5 45.9 L 28.3 47.4 L 20.5 48.6 L 12.1 49.5 L 11.8 47.7 L 19.6 44.9 L 26.9 42.2 L 33.6 39.6 L 39.7 37.1 L 45.2 34.6 L 50.1 32.1 L 54.3 29.6 L 57.9 27.2 L 60.9 24.8 L 62.41636457443237 23.214709758758545 L 62.4 23.2 L 63.3 22.3 Z M 187.0 60.1 L 187.0 64.1 L 130.0 64.1 L 130.0 74.6 L 122.4 78.4 L 152.0 78.4 L 158.0 73.4 L 169.0 82.4 L 164.0 86.4 L 164.0 101.4 L 152.0 107.4 L 152.0 101.4 L 119.0 101.4 L 119.0 115.7 L 162.0 115.7 L 168.0 110.7 L 179.0 119.7 L 174.0 123.7 L 174.0 165.6 L 162.0 171.6 L 162.0 163.6 L 119.0 163.6 L 119.0 177.5 L 178.0 177.5 L 183.0 160.5 L 185.0 160.5 L 183.0 177.5 L 186.0 179.5 L 188.0 182.5 L 186.0 185.5 L 183.0 187.5 L 92.5 187.5 L 90.1 187.2 L 87.8 186.5 L 85.6 185.4 L 83.6 183.9 L 81.9 182.0 L 80.6 179.9 L 79.7 177.5 L 79.2 175.1 L 79.0 172.5 L 79.0 163.6 L 64.0 163.6 L 64.0 180.7 L 52.0 186.7 L 52.0 176.7 L 21.0 176.7 L 21.0 172.7 L 52.0 172.7 L 52.0 163.6 L 14.0 163.6 L 14.0 159.6 L 52.0 159.6 L 52.0 150.5 L 21.0 150.5 L 21.0 146.5 L 52.0 146.5 L 58.0 141.5 L 69.0 150.5 L 64.0 154.5 L 64.0 159.6 L 79.0 159.6 L 79.0 124.3 L 64.0 124.3 L 64.0 137.4 L 52.0 143.4 L 52.0 137.4 L 21.0 137.4 L 21.0 133.4 L 52.0 133.4 L 52.0 124.3 L 14.0 124.3 L 14.0 120.3 L 52.0 120.3 L 52.0 112.5 L 21.0 112.5 L 21.0 108.5 L 52.0 108.5 L 58.0 103.5 L 69.0 112.5 L 64.0 116.5 L 64.0 120.3 L 79.0 120.3 L 79.0 101.4 L 48.0 101.4 L 36.0 107.4 L 36.0 72.4 L 48.0 78.4 L 70.0 78.4 L 70.0 64.1 L 13.0 64.1 L 13.0 60.1 L 70.0 60.1 L 70.0 45.0 L 82.0 47.0 L 85.0 49.0 L 82.0 50.8 L 82.0 74.6 L 74.4 78.4 L 118.0 78.4 L 118.0 45.0 L 130.0 47.0 L 133.0 49.0 L 130.0 50.8 L 130.0 60.1 L 165.0 60.1 L 174.56020412445068 50.539795875549316 L 171.9 49.9 L 164.6 47.8 L 157.9 45.6 L 151.7 43.2 L 146.1 40.7 L 141.1 37.9 L 136.7 34.9 L 132.9 31.7 L 130.0 28.3 L 128.2868420600891 25.2 L 74.0 25.2 L 74.0 21.2 L 114.0 21.2 L 124.0 11.2 L 136.0 21.2 L 136.0 25.2 L 132.9055555343628 25.2 L 136.4 26.9 L 140.3 28.7 L 144.7 30.4 L 149.6 32.0 L 155.0 33.6 L 161.0 35.0 L 167.5 36.4 L 174.5 37.7 L 182.1 38.8 L 191.6 40.5 L 179.8 51.8 L 175.92028465270997 50.8669038772583 Z " />
</g>
</svg>
