<svg xmlns="http://www.w3.org/2000/svg" xmlns:xlink="http://www.w3.org/1999/xlink" version="1.1" baseProfile="full" viewBox="0 0 200 200" width="200" height="200">
<g fill="black">
<path d="M 15.0 178.4 L 47.0 178.4 L 47.0 117.1 L 59.0 123.1 L 59.0 123.10200004577636 L 62.9 122.4 L 72.7 120.6 L 82.2 119.1 L 91.6 117.6 L 100.7 116.1 L 109.6 114.6 L 118.3 113.1 L 126.8 111.6 L 135.0 110.0 L 142.0207248687744 108.68361406326294 L 142.0 108.6 L 142.08662672042846 108.67125749588013 L 143.0 108.5 L 143.17123050689696 109.56343154907226 L 154.4 118.8 L 154.8 121.8 L 150.23529415130616 119.45758514404297 L 144.9 120.3 L 136.7 121.3 L 128.3 122.2 L 119.6 123.0 L 110.8 123.8 L 101.7 124.5 L 92.4 125.1 L 82.9 125.6 L 73.2 126.0 L 63.2 126.1 L 59.0 126.05882349014283 L 59.0 139.7 L 155.0 139.7 L 165.0 129.7 L 177.0 139.7 L 177.0 143.7 L 140.0 143.7 L 140.0 178.4 L 165.0 178.4 L 175.0 168.4 L 187.0 178.4 L 187.0 182.4 L 15.0 182.4 Z M 59.0 143.7 L 59.0 178.4 L 128.0 178.4 L 128.0 143.7 Z M 121.0 96.0 L 142.2 96.0 L 143.1 95.8 L 143.7 95.6 L 144.0 95.4 L 144.2 95.3 L 144.4 95.1 L 144.7 94.2 L 144.9 93.3 L 145.0 92.0 L 145.0 77.3 L 55.0 77.3 L 55.0 100.1 L 43.0 106.1 L 43.0 77.3 L 14.0 77.3 L 14.0 73.3 L 43.0 73.3 L 43.0 22.1 L 55.0 28.1 L 94.0 28.1 L 94.0 11.8 L 106.0 13.8 L 109.0 15.8 L 106.0 17.6 L 106.0 28.1 L 145.0 28.1 L 151.0 23.1 L 162.0 32.1 L 157.0 36.1 L 157.0 73.3 L 164.0 73.3 L 174.0 63.3 L 186.0 73.3 L 186.0 77.3 L 157.0 77.3 L 157.0 92.0 L 156.8 94.6 L 156.4 97.1 L 155.6 99.5 L 154.3 101.8 L 152.7 103.8 L 150.7 105.4 L 148.4 106.6 L 146.0 107.4 L 143.5 107.9 L 141.0 108.0 L 141.0 102.0 L 121.0 99.0 Z M 55.0 54.7 L 55.0 73.3 L 94.0 73.3 L 94.0 54.7 Z M 106.0 54.7 L 106.0 73.3 L 145.0 73.3 L 145.0 54.7 Z M 55.0 32.1 L 55.0 50.7 L 94.0 50.7 L 94.0 32.1 Z M 106.0 32.1 L 106.0 50.7 L 145.0 50.7 L 145.0 32.1 Z " />
</g>
</svg>
