<svg xmlns="http://www.w3.org/2000/svg" xmlns:xlink="http://www.w3.org/1999/xlink" version="1.1" baseProfile="full" viewBox="0 0 200 200" width="200" height="200">
<g fill="black">
<path d="M 180.0 145.0 L 182.0 145.0 L 180.0 170.0 L 183.6 172.4 L 186.0 176.0 L 183.6 179.6 L 180.0 182.0 L 132.0 182.0 L 129.4 181.8 L 126.9 181.4 L 124.5 180.6 L 122.2 179.3 L 120.2 177.7 L 118.6 175.7 L 117.3 173.4 L 116.5 171.0 L 116.1 168.5 L 116.0 166.0 L 116.0 109.0 L 81.0 109.0 L 86.0 110.0 L 89.0 112.0 L 85.64695949554444 114.01182432174683 L 84.9 122.5 L 82.5 134.1 L 78.6 144.8 L 73.3 154.3 L 66.7 162.7 L 58.6 170.0 L 49.3 176.0 L 38.8 180.9 L 27.1 184.5 L 14.1 186.8 L 13.8 185.1 L 25.9 180.9 L 36.6 176.0 L 45.9 170.4 L 53.8 164.2 L 60.2 157.2 L 65.4 149.4 L 69.4 140.9 L 72.1 131.5 L 73.6 121.2 L 74.0 110.0 L 74.0 109.0 L 16.0 109.0 L 16.0 105.0 L 162.0 105.0 L 172.0 95.0 L 184.0 105.0 L 184.0 109.0 L 122.0 109.0 L 128.0 110.0 L 131.0 112.0 L 128.0 113.8 L 128.0 167.2 L 128.2 168.1 L 128.5 169.0 L 128.9 169.4 L 129.8 169.7 L 130.7 169.9 L 132.0 170.0 L 174.0 170.0 Z M 44.0 24.5 L 156.0 24.5 L 162.0 19.5 L 173.0 28.5 L 168.0 32.5 L 168.0 87.6 L 156.0 93.6 L 156.0 28.5 L 44.0 28.5 L 44.0 87.6 L 32.0 93.6 L 32.0 18.5 Z M 140.0 73.1 L 140.0 77.1 L 60.0 77.1 L 60.0 73.1 L 118.0 73.1 L 128.0 63.1 Z M 140.0 48.8 L 140.0 52.8 L 60.0 52.8 L 60.0 48.8 L 121.81818180084228 48.8 L 130.0 39.8 Z " />
</g>
</svg>
