<svg xmlns="http://www.w3.org/2000/svg" xmlns:xlink="http://www.w3.org/1999/xlink" version="1.1" baseProfile="full" viewBox="0 0 200 200" width="200" height="200">
<g fill="black">
<path d="M 79.9 176.0 L 93.9 176.0 L 95.1 175.9 L 96.0 175.7 L 96.9 175.4 L 97.3 175.0 L 97.6 174.1 L 97.8 173.2 L 97.9 172.0 L 97.9 104.0 L 85.4 104.0 L 85.4 171.0 L 73.4 177.0 L 73.4 104.0 L 59.6 104.0 L 59.6 171.0 L 47.6 177.0 L 47.6 104.0 L 35.0 104.0 L 35.0 182.0 L 23.0 188.0 L 23.0 104.0 L 11.6 104.0 L 11.6 100.0 L 23.0 100.0 L 23.0 20.0 L 35.0 26.0 L 97.9 26.0 L 103.9 21.0 L 114.9 30.0 L 109.9 34.0 L 109.9 100.0 L 111.4 100.0 L 115.9 94.0 L 121.9 100.0 L 121.9 104.0 L 109.9 104.0 L 109.9 172.0 L 109.7 174.5 L 109.3 177.0 L 108.5 179.4 L 107.3 181.7 L 105.6 183.7 L 103.6 185.3 L 101.3 186.6 L 98.9 187.4 L 96.4 187.8 L 93.9 188.0 L 93.9 182.0 L 79.9 179.0 Z M 139.2 28.0 L 159.1 28.0 L 165.1 23.0 L 176.1 32.0 L 171.1 36.0 L 171.1 163.2 L 171.3 164.1 L 171.5 164.7 L 171.7 165.0 L 171.8 165.2 L 172.0 165.4 L 172.9 165.7 L 173.8 165.9 L 175.1 166.0 L 178.0 166.0 L 184.0 141.0 L 186.0 141.0 L 184.0 166.0 L 187.6 168.4 L 190.0 172.0 L 187.6 175.6 L 184.0 178.0 L 175.1 178.0 L 172.5 177.8 L 170.0 177.4 L 167.6 176.6 L 165.3 175.3 L 163.3 173.7 L 161.7 171.7 L 160.5 169.4 L 159.6 167.0 L 159.2 164.5 L 159.1 162.0 L 159.1 120.53157892227173 L 155.5 122.9 L 151.1 121.9 L 148.5 118.1 L 148.0 113.5 L 147.3 109.1 L 146.5 104.8 L 145.7 100.8 L 144.7 96.9 L 143.7 93.1 L 142.6 89.5 L 141.4 86.0 L 140.3 82.6 L 139.2 80.00714282989502 L 139.2 100.0 L 138.7 113.0 L 137.7 125.1 L 136.4 136.3 L 134.7 146.4 L 132.6 155.6 L 130.0 163.8 L 126.9 171.0 L 123.4 177.1 L 119.4 182.0 L 114.9 185.6 L 113.6 184.3 L 116.3 179.7 L 118.7 174.5 L 120.8 168.5 L 122.7 161.6 L 124.3 153.8 L 125.5 145.0 L 126.5 135.2 L 127.0 124.4 L 127.3 112.7 L 127.2 100.0 L 127.2 22.0 Z M 139.2 32.0 L 139.2 79.06428575515747 L 140.3 78.2 L 143.0 80.8 L 145.6 83.7 L 148.0 86.8 L 150.2 90.3 L 152.3 94.0 L 154.2 97.9 L 155.9 102.1 L 157.5 106.5 L 159.0 111.1 L 159.1 111.4692307472229 L 159.1 32.0 Z M 35.0 30.0 L 35.0 100.0 L 47.6 100.0 L 47.6 30.0 Z M 59.6 30.0 L 59.6 100.0 L 73.4 100.0 L 73.4 30.0 Z M 85.4 30.0 L 85.4 100.0 L 97.9 100.0 L 97.9 30.0 Z " />
</g>
</svg>
