<svg xmlns="http://www.w3.org/2000/svg" xmlns:xlink="http://www.w3.org/1999/xlink" version="1.1" baseProfile="full" viewBox="0 0 200 200" width="200" height="200">
<g fill="black">
<path d="M 84.3 99.3 L 83.0 97.7 L 81.6 96.1 L 80.1 94.6 L 78.5 93.1 L 74.9 90.1 L 72.9 88.6 L 70.7 87.7 L 71.2 86.0 L 73.6 86.4 L 76.2 86.6 L 78.8 86.9 L 81.3 87.5 L 83.8 88.2 L 88.6 90.2 L 90.9 91.5 L 93.1 92.9 L 95.3 94.4 L 96.8 98.7 L 96.10526313781739 100.32105264663696 L 107.0 109.4 L 107.0 113.4 L 62.0 113.4 L 62.0 119.6 L 61.5023136138916 120.34652957916259 L 61.9 120.4 L 59.8 130.8 L 57.1 140.4 L 53.8 149.2 L 49.9 157.2 L 45.3 164.4 L 40.0 170.8 L 34.2 176.2 L 27.8 180.7 L 20.8 184.1 L 13.3 186.5 L 12.6 184.9 L 19.0 180.8 L 24.6 176.3 L 29.7 171.4 L 34.2 165.9 L 38.1 159.8 L 41.6 153.0 L 44.5 145.6 L 46.8 137.4 L 48.7 128.5 L 50.0 118.8 L 50.0 113.4 L 12.0 113.4 L 12.0 109.4 L 50.0 109.4 L 50.0 83.8 L 62.0 85.8 L 65.0 87.8 L 62.0 89.6 L 62.0 109.4 L 85.0 109.4 L 90.13999996185302 104.26000003814697 L 86.5 102.7 L 85.4 100.9 Z M 182.0 148.8 L 184.0 148.8 L 182.0 173.8 L 185.6 176.2 L 188.0 179.8 L 185.6 183.4 L 182.0 185.8 L 80.0 185.8 L 77.4 185.7 L 74.9 185.2 L 72.5 184.4 L 70.2 183.2 L 68.2 181.5 L 66.6 179.5 L 65.3 177.3 L 64.5 174.8 L 64.1 172.4 L 64.0 169.8 L 64.0 118.6 L 76.0 120.6 L 79.0 122.6 L 76.0 124.4 L 76.0 171.0 L 76.2 171.9 L 76.4 172.5 L 76.5 172.9 L 76.7 173.0 L 76.9 173.2 L 77.2 173.4 L 77.8 173.6 L 78.7 173.7 L 80.0 173.8 L 176.0 173.8 Z M 177.49611654281617 140.4145630836487 L 178.8 141.9 L 179.0 145.5 L 175.5195870399475 144.01760187149048 L 171.9 146.2 L 164.8 150.2 L 157.4 153.8 L 149.6 157.2 L 141.5 160.2 L 133.1 163.0 L 124.4 165.5 L 115.3 167.7 L 105.9 169.5 L 96.1 170.8 L 95.7 169.0 L 104.9 165.8 L 113.8 162.6 L 122.3 159.3 L 130.5 155.9 L 138.3 152.4 L 145.7 148.7 L 152.8 144.9 L 159.5 140.8 L 165.8 136.6 L 171.7 132.3 Z M 169.23333330154418 114.8 L 171.9 117.8 L 172.1 121.4 L 168.48341102600097 119.88760824203491 L 166.1 121.3 L 160.5 124.4 L 154.6 127.3 L 148.5 130.0 L 142.1 132.6 L 135.6 135.0 L 128.7 137.3 L 121.7 139.3 L 114.3 141.0 L 106.7 142.3 L 106.2 140.6 L 113.1 137.4 L 119.9 134.2 L 126.3 131.1 L 132.6 128.0 L 138.6 124.9 L 144.3 121.7 L 149.8 118.5 L 155.0 115.1 L 160.0 111.7 L 164.7 108.2 Z M 162.91633701324463 89.77626829147339 L 166.9 94.1 L 167.0 97.6 L 163.4715847015381 96.12448091506958 L 161.1 97.5 L 155.9 100.2 L 150.5 102.8 L 144.9 105.3 L 139.1 107.7 L 133.1 110.0 L 126.9 112.2 L 120.4 114.2 L 113.7 115.9 L 106.8 117.4 L 106.2 115.7 L 112.4 112.3 L 118.4 109.2 L 124.3 106.1 L 130.0 103.1 L 135.5 100.1 L 140.7 97.0 L 145.7 94.0 L 150.6 90.9 L 155.2 87.8 L 159.5 84.6 Z M 44.0 22.0 L 156.0 22.0 L 162.0 17.0 L 173.0 26.0 L 168.0 30.0 L 168.0 79.0 L 156.0 85.0 L 156.0 26.0 L 44.0 26.0 L 44.0 79.0 L 32.0 85.0 L 32.0 16.0 Z M 140.0 66.0 L 140.0 70.0 L 60.0 70.0 L 60.0 66.0 L 118.0 66.0 L 128.0 56.0 Z M 140.0 44.0 L 140.0 48.0 L 60.0 48.0 L 60.0 44.0 L 121.81818180084228 44.0 L 130.0 35.0 Z " />
</g>
</svg>
