<svg xmlns="http://www.w3.org/2000/svg" xmlns:xlink="http://www.w3.org/1999/xlink" version="1.1" baseProfile="full" viewBox="0 0 200 200" width="200" height="200">
<g fill="black">
<path d="M 41.6 181.4 L 29.6 187.4 L 29.6 118.8 L 41.6 124.8 L 94.0 124.8 L 94.0 105.3 L 106.0 107.3 L 109.0 109.3 L 106.0 111.1 L 106.0 124.8 L 158.3 124.8 L 164.3 119.8 L 175.3 128.8 L 170.3 132.8 L 170.3 180.4 L 158.3 186.4 L 158.3 178.4 L 41.6 178.4 Z M 41.6 152.9 L 41.6 174.4 L 94.0 174.4 L 94.0 152.9 Z M 106.0 152.9 L 106.0 174.4 L 158.3 174.4 L 158.3 152.9 Z M 41.6 128.8 L 41.6 148.9 L 94.0 148.9 L 94.0 128.8 Z M 106.0 128.8 L 106.0 148.9 L 158.3 148.9 L 158.3 128.8 Z M 79.4 46.4 L 75.3 42.3 L 70.8 38.1 L 69.63511447906494 37.101526737213135 L 68.9 38.0 L 64.8 42.2 L 60.5 46.3 L 55.9 50.2 L 51.0 54.1 L 46.0 57.9 L 40.7 61.7 L 35.3 65.4 L 34.62731332778931 65.83665618896484 L 35.4 71.4 L 35.86567163467407 76.6 L 170.3 76.6 L 170.84857139587402 76.14285717010497 L 170.9 76.0 L 170.9760563850403 76.03661975860595 L 176.3 71.6 L 187.3 80.6 L 182.3 83.6 L 179.3054054260254 84.84774770736695 L 178.3 86.3 L 176.3 89.0 L 174.1 91.9 L 171.8 94.9 L 169.3 98.0 L 166.6 101.3 L 163.7 104.6 L 160.6 108.1 L 157.4 111.7 L 155.9 110.7 L 158.0 106.4 L 159.9 102.1 L 161.7 98.1 L 163.4 94.4 L 165.0 90.8 L 166.5 87.4 L 167.8 84.3 L 169.0 81.3 L 169.25 80.6 L 36.0 80.6 L 36.0 84.3 L 35.7 90.1 L 35.0 95.5 L 33.8 100.5 L 32.3 105.0 L 30.3 109.2 L 27.8 112.9 L 24.8 116.1 L 20.3 117.3 L 16.3 115.1 L 15.2 110.7 L 17.4 106.7 L 19.4 105.2 L 21.4 103.2 L 23.3 100.6 L 25.2 97.3 L 26.8 93.4 L 28.3 88.8 L 29.6 83.6 L 30.7 77.8 L 31.7 71.3 L 32.19983596801758 67.41238718032837 L 29.6 69.1 L 27.22068452835083 70.55178575515747 L 26.9 74.4 L 23.7 72.7 L 16.2 63.2 L 17.9 62.2 L 23.9 59.2 L 29.8 56.2 L 35.4 53.2 L 40.9 50.1 L 46.3 47.1 L 51.5 44.0 L 56.6 41.0 L 61.5 38.0 L 66.5 35.1 L 66.98000001907349 34.82571430206299 L 65.9 33.9 L 60.7 29.7 L 55.1 25.5 L 49.2 21.2 L 43.0 16.8 L 36.4 12.2 L 37.3 10.6 L 44.8 13.5 L 51.9 16.6 L 58.6 19.9 L 65.0 23.4 L 70.9 27.1 L 76.5 30.8 L 81.8 34.6 L 86.7 38.6 L 91.3 42.6 L 95.5 46.7 L 96.9 51.1 L 94.9 55.2 L 90.6 56.6 L 86.5 54.6 L 83.1 50.5 Z M 142.8 95.5 L 142.8 99.5 L 55.1 99.5 L 55.1 95.5 L 124.61818180084228 95.5 L 132.8 86.5 Z M 166.4 61.6 L 163.0 58.6 L 159.4 55.5 L 155.7 52.3 L 151.8 49.1 L 147.8 45.9 L 143.7 42.5 L 139.6 39.0 L 138.19136075973512 37.75515604019165 L 136.4 39.0 L 130.0 43.0 L 123.2 46.9 L 116.1 50.5 L 108.4 53.8 L 100.3 56.8 L 99.6 55.1 L 106.7 50.4 L 113.4 45.8 L 119.8 41.3 L 125.7 36.8 L 131.2 32.3 L 136.4 27.7 L 141.1 23.1 L 145.3 18.5 L 149.2 13.8 L 152.01451778411865 9.909343147277832 L 152.0 9.9 L 153.0 8.5 L 162.1 16.4 L 163.3 19.8 L 159.5169900894165 19.343429851531983 L 157.8 21.3 L 153.0 26.0 L 147.9 30.5 L 142.3 34.9 L 141.3075753211975 35.58965101242065 L 141.6 35.7 L 146.6 38.0 L 151.4 40.4 L 156.1 42.8 L 160.5 45.4 L 164.8 47.9 L 169.0 50.5 L 173.0 53.1 L 176.8 55.8 L 180.5 58.4 L 182.6 62.5 L 181.2 66.9 L 177.2 68.9 L 172.8 67.6 L 169.7 64.6 Z " />
</g>
</svg>
