<svg xmlns="http://www.w3.org/2000/svg" xmlns:xlink="http://www.w3.org/1999/xlink" version="1.1" baseProfile="full" viewBox="0 0 200 200" width="200" height="200">
<g fill="black">
<path d="M 159.9 182.5 L 156.0 180.1 L 151.7 177.8 L 146.9 175.5 L 141.7 173.2 L 136.0 170.9 L 130.0 168.6 L 123.5 166.2 L 116.6 163.6 L 117.0 161.9 L 124.3 162.5 L 131.3 163.4 L 137.9 164.6 L 144.0 166.0 L 149.8 167.5 L 155.2 169.2 L 160.3 171.0 L 165.0 173.0 L 169.3 175.1 L 173.3 177.4 L 175.7 181.3 L 174.7 185.8 L 170.8 188.1 L 166.3 187.1 L 163.3 184.8 Z M 86.63555097579956 160.5929313659668 L 94.2 167.6 L 94.4 170.8 L 90.61165561676026 169.23655624389647 L 84.9 171.6 L 78.8 173.8 L 72.6 176.0 L 66.3 178.0 L 59.8 180.0 L 53.2 181.8 L 46.4 183.5 L 39.4 185.0 L 32.3 186.3 L 25.0 187.3 L 24.5 185.5 L 31.3 182.6 L 37.9 179.9 L 44.4 177.2 L 50.8 174.6 L 57.0 172.0 L 63.0 169.3 L 68.9 166.7 L 74.7 163.9 L 80.2 161.2 L 84.72960529327392 158.85131578445436 L 84.7 158.8 L 84.74614143371582 158.8427414894104 L 85.6 158.4 Z M 55.6 93.0 L 148.3 93.0 L 154.3 88.0 L 165.3 97.0 L 160.3 101.0 L 160.3 155.7 L 148.3 161.7 L 148.3 155.7 L 55.6 155.7 L 55.6 158.7 L 43.6 164.7 L 43.6 87.0 Z M 55.6 135.3 L 55.6 151.7 L 148.3 151.7 L 148.3 135.3 Z M 55.6 116.2 L 55.6 131.3 L 148.3 131.3 L 148.3 116.2 Z M 55.6 97.0 L 55.6 112.2 L 148.3 112.2 L 148.3 97.0 Z M 63.7 53.2 L 140.2 53.2 L 146.2 48.2 L 157.2 57.2 L 152.2 61.2 L 152.2 79.5 L 140.2 85.5 L 140.2 79.5 L 63.7 79.5 L 51.7 85.5 L 51.7 47.2 Z M 63.7 57.2 L 63.7 75.5 L 140.2 75.5 L 140.2 57.2 Z M 16.3 56.8 L 15.5 52.3 L 18.0 48.5 L 19.9 47.4 L 21.9 45.8 L 23.8 43.7 L 25.5 41.0 L 27.2 37.7 L 28.6 33.9 L 29.9 29.5 L 31.1 24.6 L 32.1 19.1 L 32.8 13.1 L 34.6 13.0 L 35.4 19.1 L 35.75344829559326 23.2 L 171.2 23.2 L 171.8551724433899 22.65402297973633 L 172.0 22.3 L 172.1665904045105 22.39450798034668 L 177.2 18.2 L 188.2 27.2 L 183.2 30.2 L 179.5310344696045 31.728735637664794 L 178.9 32.5 L 176.9 34.8 L 174.8 37.3 L 172.5 39.8 L 170.0 42.4 L 164.4 48.0 L 161.2 50.8 L 158.1 53.9 L 156.7 52.8 L 159.0 49.1 L 160.9 45.3 L 162.7 41.8 L 164.5 38.5 L 167.6 32.3 L 168.9 29.6 L 170.00769233703613 27.2 L 35.94259262084961 27.2 L 36.0 30.3 L 35.7 35.4 L 34.9 40.1 L 33.8 44.5 L 32.3 48.6 L 30.2 52.3 L 27.7 55.6 L 24.6 58.5 L 20.1 59.3 Z " />
</g>
</svg>
