<svg xmlns="http://www.w3.org/2000/svg" xmlns:xlink="http://www.w3.org/1999/xlink" version="1.1" baseProfile="full" viewBox="0 0 200 200" width="200" height="200">
<g fill="black">
<path d="M 157.1 182.0 L 155.3 183.6 L 153.3 185.0 L 151.2 186.2 L 149.1 187.2 L 146.8 187.9 L 144.4 188.5 L 142.0 188.8 L 139.6 188.9 L 139.6 182.9 L 119.6 179.9 L 119.6 176.9 L 139.6 176.9 L 141.0 176.8 L 143.6 176.4 L 144.7 176.0 L 145.8 175.5 L 146.8 174.9 L 147.8 174.2 L 148.7 173.4 L 149.6 172.4 L 150.5 171.3 L 150.4 171.3 L 150.9 169.1 L 151.5 165.5 L 151.9 160.5 L 152.3 154.3 L 152.6 146.9 L 152.8 138.4 L 152.9 128.6 L 152.9 117.7 L 152.88153743743896 115.46602611541748 L 152.8 115.5 L 152.8 107.5 L 136.2861788749695 107.5 L 135.7 117.8 L 134.2 129.2 L 131.8 139.8 L 131.5639344215393 140.52295083999633 L 132.6 141.3 L 135.9 144.1 L 139.1 147.0 L 141.9 150.1 L 144.5 153.3 L 145.2 157.8 L 142.6 161.6 L 138.1 162.3 L 134.4 159.7 L 132.8 156.8 L 130.9 153.8 L 128.8 150.8 L 128.31764707565307 150.22117643356324 L 124.6 158.4 L 119.8 166.4 L 114.1 173.4 L 107.7 179.4 L 100.4 184.2 L 92.5 187.9 L 91.6 186.3 L 98.2 181.1 L 104.0 175.4 L 109.1 169.2 L 113.4 162.4 L 117.0 154.8 L 119.8 146.6 L 120.90773735046386 142.01799535751343 L 120.6 141.7 L 117.4 138.7 L 113.8 135.5 L 110.1 132.3 L 106.0 129.0 L 106.8 127.5 L 111.8 129.4 L 116.5 131.4 L 120.9 133.6 L 122.46045579910279 134.49168901443483 L 123.5 127.7 L 124.3 117.0 L 124.38260869979858 107.5 L 104.1 107.5 L 104.1 103.5 L 152.8 103.5 L 158.8 98.5 L 161.31796875 100.56015625 L 161.6 100.1 L 163.4 97.3 L 165.0 94.6 L 166.6 92.0 L 167.9 89.6 L 168.39090909957886 88.7 L 33.0456521987915 88.7 L 33.1 91.2 L 32.8 95.5 L 32.0 99.6 L 30.9 103.4 L 29.3 106.9 L 27.2 110.2 L 24.6 113.1 L 21.5 115.5 L 16.9 116.0 L 13.3 113.2 L 12.9 108.6 L 15.7 105.0 L 17.7 104.2 L 19.5 103.0 L 21.4 101.4 L 23.1 99.4 L 24.7 96.8 L 26.2 93.8 L 27.4 90.3 L 28.6 86.2 L 29.6 81.7 L 30.1 76.7 L 31.9 76.7 L 32.5 81.8 L 32.80208330154419 84.7 L 170.0 84.7 L 170.63478260040284 84.17101449966431 L 171.0 83.4 L 171.30903005599976 83.60914154052735 L 176.0 79.7 L 187.0 88.7 L 182.0 91.7 L 177.36875 93.6296875 L 175.4 95.5 L 173.2 97.5 L 170.9 99.5 L 168.4 101.6 L 165.7 103.8 L 165.4809144973755 103.96620273590088 L 169.8 107.5 L 164.84159870147704 110.47504081726075 L 164.9 117.6 L 164.9 128.7 L 164.8 138.5 L 164.6 147.3 L 164.3 154.9 L 163.9 161.4 L 163.4 166.8 L 162.7 171.3 L 161.9 174.9 L 160.3 178.3 L 158.7 180.2 Z M 44.9 179.0 L 33.9 184.5 L 33.9 114.8 L 44.9 116.8 L 47.7 118.8 L 44.9 120.55 L 44.9 168.0 L 56.7 168.0 L 56.7 97.8 L 66.7 99.8 L 69.2 101.8 L 66.7 103.46666669845581 L 66.7 168.0 L 80.1 168.0 L 80.1 114.8 L 91.1 116.8 L 93.8 118.8 L 91.1 120.52340421676635 L 91.1 172.0 L 80.1 177.5 L 80.1 172.0 L 44.9 172.0 Z M 149.0 14.6 L 152.0 16.6 L 149.0 18.4 L 149.0 26.8 L 165.0 26.8 L 175.0 16.8 L 187.0 26.8 L 187.0 30.8 L 149.0 30.8 L 149.0 76.0 L 137.0 82.0 L 137.0 76.0 L 63.0 76.0 L 51.0 82.0 L 51.0 30.8 L 13.0 30.8 L 13.0 26.8 L 51.0 26.8 L 51.0 12.6 L 63.0 14.6 L 66.0 16.6 L 63.0 18.4 L 63.0 26.8 L 137.0 26.8 L 137.0 12.6 Z M 63.0 52.4 L 63.0 72.0 L 137.0 72.0 L 137.0 52.4 Z M 63.0 30.8 L 63.0 48.4 L 137.0 48.4 L 137.0 30.8 Z " />
</g>
</svg>
