<svg xmlns="http://www.w3.org/2000/svg" xmlns:xlink="http://www.w3.org/1999/xlink" version="1.1" baseProfile="full" viewBox="0 0 200 200" width="200" height="200">
<g fill="black">
<path d="M 52.0 87.6 L 148.0 87.6 L 154.0 82.6 L 165.0 91.6 L 160.0 95.6 L 160.0 181.1 L 148.0 187.1 L 148.0 177.1 L 52.0 177.1 L 52.0 184.1 L 40.0 190.1 L 40.0 81.6 Z M 52.0 147.4 L 52.0 173.1 L 148.0 173.1 L 148.0 147.4 Z M 52.0 119.5 L 52.0 143.4 L 148.0 143.4 L 148.0 119.5 Z M 52.0 91.6 L 52.0 115.5 L 148.0 115.5 L 148.0 91.6 Z M 85.4 36.6 L 87.8 39.3 L 83.89977064132691 40.32637615203858 L 82.3 44.3 L 78.2 51.5 L 73.1 57.9 L 67.2 63.6 L 60.3 68.6 L 52.7 72.9 L 44.3 76.5 L 35.0 79.4 L 25.0 81.5 L 14.1 82.8 L 13.8 81.1 L 24.0 77.8 L 33.3 74.3 L 41.7 70.5 L 49.0 66.3 L 55.4 61.7 L 60.9 56.8 L 65.4 51.5 L 69.0 45.8 L 71.9 39.8 L 73.9 33.2 L 73.90705089569092 33.202084636688234 L 74.4 31.6 Z M 127.5 72.9 L 125.1 72.6 L 122.8 71.9 L 120.6 70.8 L 118.6 69.3 L 116.9 67.5 L 115.6 65.3 L 114.7 63.0 L 114.2 60.5 L 114.0 58.0 L 114.0 32.0 L 126.0 34.0 L 129.0 36.0 L 126.0 37.8 L 126.0 58.0 L 125.9 59.2 L 126.0 60.1 L 126.1 60.8 L 126.3 61.6 L 126.5 61.9 L 126.9 62.2 L 127.6 62.5 L 128.6 62.8 L 130.0 63.0 L 173.0 63.0 L 178.0 46.0 L 180.0 46.0 L 178.0 63.0 L 181.0 65.0 L 183.0 68.0 L 181.0 71.0 L 178.0 73.0 L 130.0 73.0 Z M 13.4 55.5 L 12.7 51.0 L 15.3 47.2 L 17.3 46.2 L 19.3 44.7 L 21.1 42.8 L 22.9 40.4 L 24.5 37.4 L 26.0 33.8 L 27.3 29.7 L 28.4 25.1 L 29.5 19.9 L 30.1 14.3 L 31.9 14.2 L 32.6 20.0 L 32.94259262084961 23.7 L 170.0 23.7 L 170.5111110687256 23.2740740776062 L 170.8 22.6 L 171.1019165992737 22.781736183166505 L 176.0 18.7 L 187.0 27.7 L 182.0 30.7 L 177.9840000152588 32.37333335876465 L 177.6 32.8 L 175.5 35.0 L 173.4 37.3 L 171.0 39.6 L 168.5 42.1 L 165.8 44.6 L 162.9 47.2 L 159.7 49.9 L 156.6 52.8 L 155.3 51.7 L 157.6 48.1 L 159.6 44.5 L 161.4 41.1 L 163.2 38.0 L 164.9 35.0 L 166.4 32.2 L 167.7 29.5 L 168.56400003433228 27.7 L 33.1442307472229 27.7 L 33.2 30.6 L 32.9 35.4 L 32.2 39.9 L 31.0 44.0 L 29.4 47.9 L 27.3 51.5 L 24.8 54.7 L 21.7 57.4 L 17.2 58.1 Z " />
</g>
</svg>
