<svg xmlns="http://www.w3.org/2000/svg" xmlns:xlink="http://www.w3.org/1999/xlink" version="1.1" baseProfile="full" viewBox="0 0 200 200" width="200" height="200">
<g fill="black">
<path d="M 121.6 176.9 L 141.6 176.9 L 142.9 176.8 L 143.8 176.6 L 144.7 176.3 L 144.9 176.1 L 145.0 175.9 L 145.2 175.6 L 145.4 175.0 L 145.6 174.1 L 145.6 139.6 L 54.3 139.6 L 54.3 182.9 L 42.3 188.9 L 42.3 139.6 L 12.3 139.6 L 12.3 135.6 L 42.3 135.6 L 42.3 103.9 L 12.3 103.9 L 12.3 99.9 L 42.3 99.9 L 42.3 60.1 L 54.3 66.1 L 145.6 66.1 L 151.6 61.1 L 162.6 70.1 L 157.6 74.1 L 157.6 99.9 L 165.8 99.9 L 175.8 89.9 L 187.8 99.9 L 187.8 103.9 L 157.6 103.9 L 157.6 135.6 L 165.8 135.6 L 175.8 125.6 L 187.8 135.6 L 187.8 139.6 L 157.6 139.6 L 157.6 172.9 L 157.5 175.4 L 157.1 177.9 L 156.2 180.3 L 155.0 182.6 L 153.4 184.6 L 151.4 186.2 L 149.1 187.5 L 146.7 188.3 L 144.2 188.7 L 141.6 188.9 L 141.6 182.9 L 121.6 179.9 Z M 54.3 103.9 L 54.3 135.6 L 145.6 135.6 L 145.6 103.9 Z M 54.3 70.1 L 54.3 99.9 L 145.6 99.9 L 145.6 70.1 Z M 13.5 66.8 L 12.5 62.3 L 14.7 58.4 L 16.8 56.9 L 18.8 55.0 L 20.8 52.4 L 22.6 49.2 L 24.3 45.4 L 25.8 40.9 L 27.1 35.8 L 28.2 30.2 L 29.2 23.9 L 30.1 17.0 L 31.9 16.9 L 32.9 23.9 L 33.28636360168457 29.0 L 170.0 29.0 L 170.49714288711547 28.585714244842528 L 170.6 28.3 L 170.75052757263182 28.374560356140137 L 176.0 24.0 L 187.0 33.0 L 182.0 36.0 L 178.67428569793702 37.38571424484253 L 177.8 38.6 L 175.8 41.3 L 173.7 44.1 L 171.3 47.1 L 168.8 50.1 L 166.1 53.3 L 163.1 56.6 L 159.9 59.9 L 156.7 63.5 L 155.2 62.4 L 157.4 58.2 L 159.3 54.0 L 161.2 50.1 L 163.0 46.4 L 164.6 42.8 L 166.1 39.5 L 167.4 36.4 L 168.6 33.5 L 168.8037036895752 33.0 L 33.4 33.0 L 33.4 36.6 L 33.1 42.3 L 32.4 47.6 L 31.2 52.5 L 29.6 57.0 L 27.6 61.1 L 25.0 64.8 L 22.0 68.0 L 17.5 69.0 Z " />
</g>
</svg>
