<svg xmlns="http://www.w3.org/2000/svg" xmlns:xlink="http://www.w3.org/1999/xlink" version="1.1" baseProfile="full" viewBox="0 0 200 200" width="200" height="200">
<g fill="black">
<path d="M 12.6 132.8 L 11.4 128.4 L 13.5 124.3 L 15.6 122.7 L 17.6 120.5 L 19.6 117.6 L 21.5 114.0 L 23.2 109.7 L 24.7 104.8 L 26.0 99.2 L 27.1 92.9 L 28.1 86.0 L 29.1 78.5 L 30.9 78.4 L 31.9 86.1 L 32.38169012069702 91.8 L 125.030508518219 91.8 L 127.7 87.3 L 131.0 81.8 L 134.2 76.6 L 137.2 71.8 L 139.9 67.3 L 142.3 63.1 L 144.5 59.2 L 147.9 52.4 L 148.79294595718383 50.33935546875 L 148.7 50.3 L 149.7 48.4 L 159.8 55.0 L 161.5 58.1 L 157.53995609283447 58.373106479644775 L 155.5 61.3 L 152.9 64.7 L 150.0 68.4 L 146.8 72.2 L 143.3 76.3 L 139.5 80.6 L 135.3 85.1 L 130.7 89.7 L 128.4659574508667 91.8 L 171.0 91.8 L 171.4615385055542 91.41538457870483 L 171.5 91.3 L 171.56449699401855 91.32958583831787 L 177.0 86.8 L 188.0 95.8 L 183.0 98.8 L 180.03414630889893 100.0357723236084 L 178.9 101.8 L 176.9 104.7 L 174.8 107.8 L 172.4 111.1 L 169.9 114.4 L 167.2 117.9 L 164.2 121.6 L 161.0 125.3 L 157.7 129.2 L 156.2 128.2 L 158.3 123.6 L 160.2 119.1 L 162.1 114.8 L 163.8 110.9 L 165.5 107.1 L 167.0 103.5 L 168.3 100.1 L 169.5 97.0 L 169.93999996185303 95.8 L 32.5 95.8 L 32.5 99.9 L 32.1 106.1 L 31.4 111.8 L 30.3 117.1 L 28.7 121.9 L 26.7 126.3 L 24.2 130.2 L 21.1 133.6 L 16.7 134.9 Z M 56.8 76.3 L 55.8 73.5 L 54.5 70.7 L 52.9 67.9 L 51.1 65.1 L 49.0 62.3 L 46.7 59.4 L 44.2 56.4 L 41.3 53.7 L 42.3 52.2 L 46.0 54.1 L 49.6 56.0 L 52.9 58.1 L 56.1 60.4 L 58.9 63.0 L 61.6 65.7 L 64.0 68.5 L 66.2 71.6 L 68.1 74.8 L 69.7 78.2 L 69.3 82.8 L 65.9 85.8 L 61.3 85.3 L 58.3 81.9 L 57.7 79.1 Z M 96.2 72.9 L 95.3 69.7 L 94.1 66.6 L 92.7 63.6 L 91.1 60.5 L 89.2 57.4 L 87.2 54.4 L 84.9 51.2 L 82.2 48.3 L 83.3 46.8 L 86.8 49.0 L 90.3 51.1 L 93.5 53.6 L 96.5 56.3 L 99.2 59.1 L 101.7 62.2 L 103.9 65.5 L 105.9 69.0 L 107.6 72.6 L 109.1 76.4 L 108.3 80.9 L 104.7 83.6 L 100.1 82.9 L 97.4 79.2 L 96.9 76.0 Z " />
</g>
</svg>
