<svg xmlns="http://www.w3.org/2000/svg" xmlns:xlink="http://www.w3.org/1999/xlink" version="1.1" baseProfile="full" viewBox="0 0 200 200" width="200" height="200">
<g fill="black">
<path d="M 20.0 173.0 L 94.0 173.0 L 94.0 127.0 L 36.0 127.0 L 36.0 123.0 L 94.0 123.0 L 94.0 81.0 L 106.0 83.0 L 109.0 85.0 L 106.0 86.8 L 106.0 123.0 L 143.0 123.0 L 153.0 113.0 L 165.0 123.0 L 165.0 127.0 L 106.0 127.0 L 106.0 173.0 L 159.0 173.0 L 169.0 163.0 L 181.0 173.0 L 181.0 177.0 L 20.0 177.0 Z M 87.9 56.4 L 88.6 59.9 L 85.03538465499878 59.00884618759155 L 82.3 61.5 L 76.4 66.4 L 70.2 71.1 L 63.9 75.6 L 57.2 80.0 L 50.3 84.2 L 43.1 88.2 L 35.7 92.0 L 27.9 95.4 L 19.9 98.5 L 19.0 96.9 L 26.1 92.1 L 33.0 87.3 L 39.7 82.6 L 46.1 77.9 L 52.3 73.1 L 58.2 68.2 L 63.9 63.3 L 69.3 58.3 L 74.5 53.2 L 78.72257804870605 48.71889677047729 L 78.7 48.7 L 79.7 47.7 Z M 158.4 84.6 L 154.2 79.9 L 149.7 75.4 L 144.8 71.0 L 139.7 66.8 L 134.2 62.8 L 128.3 58.8 L 122.2 54.8 L 115.7 50.9 L 116.4 49.2 L 123.8 51.4 L 130.8 54.0 L 137.5 57.1 L 143.9 60.5 L 149.9 64.2 L 155.7 68.3 L 161.1 72.6 L 166.2 77.2 L 171.0 82.1 L 175.4 87.3 L 176.4 91.8 L 174.1 95.7 L 169.7 96.7 L 165.7 94.4 L 162.2 89.4 Z M 13.5 65.1 L 12.5 60.6 L 14.8 56.7 L 16.9 55.4 L 18.9 53.5 L 20.8 51.0 L 22.6 47.9 L 24.3 44.2 L 25.8 39.9 L 27.1 34.9 L 28.2 29.4 L 29.2 23.3 L 30.1 16.6 L 31.9 16.5 L 32.8 23.3 L 33.259375 28.2 L 170.0 28.2 L 170.4457142829895 27.82857141494751 L 170.6 27.4 L 170.8226589202881 27.51445083618164 L 176.0 23.2 L 187.0 32.2 L 182.0 35.2 L 178.67428569793702 36.58571424484253 L 177.8 37.8 L 175.8 40.4 L 173.6 43.1 L 171.3 46.0 L 168.8 48.9 L 166.0 52.0 L 163.1 55.2 L 159.9 58.4 L 156.7 61.9 L 155.2 60.9 L 157.4 56.7 L 159.4 52.6 L 161.2 48.8 L 163.0 45.1 L 164.6 41.7 L 166.1 38.5 L 167.5 35.4 L 168.7 32.6 L 168.8481481552124 32.2 L 33.4 32.2 L 33.4 35.7 L 33.1 41.3 L 32.3 46.5 L 31.2 51.2 L 29.6 55.7 L 27.6 59.7 L 25.0 63.3 L 21.9 66.4 L 17.5 67.4 Z " />
</g>
</svg>
