<svg xmlns="http://www.w3.org/2000/svg" xmlns:xlink="http://www.w3.org/1999/xlink" version="1.1" baseProfile="full" viewBox="0 0 200 200" width="200" height="200">
<g fill="black">
<path d="M 79.3 35.0 L 121.0 35.0 L 121.0 12.0 L 133.0 14.0 L 136.0 16.0 L 133.0 17.8 L 133.0 35.0 L 171.11818180084228 35.0 L 179.3 26.0 L 189.3 35.0 L 189.3 39.0 L 79.3 39.0 L 79.3 102.0 L 78.8 113.6 L 77.9 124.7 L 76.7 135.1 L 75.0 144.9 L 72.8 154.0 L 70.3 162.5 L 67.3 170.4 L 63.9 177.5 L 59.9 183.9 L 55.5 189.4 L 54.1 188.5 L 56.9 182.2 L 59.4 175.5 L 61.6 168.3 L 63.6 160.6 L 65.2 152.4 L 66.5 143.5 L 67.5 134.0 L 68.1 124.0 L 68.4 113.3 L 68.3 102.0 L 68.3 29.5 Z M 168.4 177.9 L 162.6 173.1 L 158.03341035842897 168.07675132751464 L 154.2 172.3 L 147.7 177.9 L 140.7 182.3 L 133.1 185.7 L 125.2 187.9 L 124.6 186.2 L 131.5 182.3 L 137.7 177.8 L 143.4 172.8 L 148.6 167.2 L 153.05010862350463 161.00854454040527 L 149.6 154.3 L 146.7 146.6 L 144.5 138.3 L 143.1 129.3 L 142.646875 120.6 L 136.7 120.6 L 136.7 116.6 L 169.1 116.6 L 175.1 111.6 L 186.1 120.6 L 181.1 123.6 L 179.81794872283936 124.13418807983399 L 178.0 130.8 L 174.4 140.8 L 170.2 150.1 L 165.4 158.4 L 164.35592041015624 159.85777158737181 L 165.2 160.8 L 169.8 164.8 L 174.8 168.1 L 180.1 170.6 L 185.9 172.5 L 193.5 175.0 L 181.8 185.1 L 174.8 181.9 Z M 117.7 164.4 L 116.5 159.7 L 116.45453996658325 159.55387849807738 L 113.8 162.7 L 111.0 165.8 L 104.9 171.9 L 101.6 174.9 L 98.2 177.9 L 94.6 181.0 L 94.24439363479614 181.29633865356445 L 94.3 185.3 L 91.0 184.0 L 82.5 175.3 L 84.1 174.1 L 87.0 172.4324999809265 L 87.0 47.6 L 98.0 53.1 L 117.8 53.1 L 123.3 48.1 L 133.8 57.1 L 128.8 60.6 L 128.8 120.1 L 117.8 125.6 L 117.8 118.1 L 98.0 118.1 L 98.0 165.6305555343628 L 102.9 162.5 L 106.4 160.2 L 109.9 158.0 L 113.2 155.9 L 114.98015565872193 154.83190660476686 L 113.7 150.9 L 112.3 146.8 L 110.8 142.8 L 109.3 138.9 L 107.9 135.1 L 106.4 131.5 L 107.9 130.4 L 110.8 133.2 L 113.7 136.3 L 116.4 139.8 L 118.9 143.5 L 121.3 147.5 L 123.6 151.7 L 125.8 156.2 L 127.8 160.9 L 129.8 165.8 L 131.7 171.0 L 131.1 175.5 L 127.5 178.4 L 123.0 177.8 L 120.1 174.3 L 119.0 169.2 Z M 31.1 179.9 L 27.1 177.7 L 25.8 173.3 L 26.5 167.9 L 26.7 162.6 L 26.4 157.4 L 25.7 152.2 L 24.6 147.1 L 22.9 142.0 L 20.8 136.9 L 18.2 131.8 L 15.2 126.6 L 11.7 121.3 L 13.0 120.0 L 18.1 124.2 L 22.6 128.7 L 23.869767475128175 130.29534883499144 L 27.0 125.6 L 30.7 119.5 L 34.7 112.6 L 38.9 104.9 L 43.3 96.4 L 48.0 87.3 L 52.9 77.4 L 58.2 66.9 L 63.9 55.6 L 65.6 56.3 L 61.7 68.3 L 57.9 79.5 L 54.0 89.9 L 50.2 99.6 L 46.5 108.5 L 43.0 116.7 L 39.6 124.2 L 36.3 130.9 L 33.2 136.9 L 30.890926361083984 140.92225732803345 L 32.5 144.2 L 34.7 149.9 L 36.4 155.8 L 37.4 161.9 L 37.9 168.2 L 37.7 174.6 L 35.5 178.6 Z M 144.77333335876466 120.6 L 147.2 128.4 L 150.2 136.6 L 153.4 143.9 L 157.0 150.4 L 158.16326408386232 152.07032794952391 L 161.1 145.8 L 164.3 137.2 L 167.0 127.7 L 168.57019233703613 120.6 Z M 150.9 53.1 L 164.0 53.1 L 169.5 48.1 L 180.0 57.1 L 175.0 60.6 L 175.0 91.7 L 175.1 92.7 L 175.3 93.4 L 175.5 93.9 L 175.7 94.2 L 176.0 94.5 L 176.4 94.8 L 177.1 95.1 L 178.2 95.3 L 179.5 95.4 L 180.9 95.4 L 185.9 78.4 L 187.9 78.4 L 185.9 95.4 L 188.9 97.4 L 190.9 100.4 L 188.9 103.4 L 185.9 105.4 L 179.5 105.4 L 177.0 105.3 L 174.7 105.0 L 172.4 104.3 L 170.2 103.2 L 168.3 101.6 L 166.7 99.8 L 165.5 97.6 L 164.7 95.3 L 164.2 92.9 L 164.0 90.4 L 164.0 57.1 L 150.9 57.1 L 150.9 74.9 L 150.4 79.7 L 149.6 84.5 L 148.5 89.0 L 146.9 93.4 L 145.1 97.6 L 142.9 101.5 L 140.3 105.3 L 137.4 108.8 L 134.1 112.0 L 130.5 115.0 L 129.5 113.9 L 132.0 110.2 L 134.1 106.4 L 135.9 102.6 L 137.5 98.9 L 138.8 95.0 L 139.8 91.2 L 140.5 87.2 L 140.9 83.2 L 141.0 79.1 L 140.9 74.9 L 140.9 48.1 Z M 98.0 85.9 L 98.0 114.1 L 117.8 114.1 L 117.8 85.9 Z M 98.0 57.1 L 98.0 81.9 L 117.8 81.9 L 117.8 57.1 Z M 36.2 52.7 L 34.9 50.1 L 33.4 47.6 L 31.6 45.2 L 29.6 42.7 L 27.4 40.3 L 25.0 37.9 L 22.4 35.4 L 19.3 33.2 L 20.1 31.6 L 23.7 33.0 L 27.3 34.2 L 30.7 35.8 L 33.9 37.6 L 36.9 39.6 L 39.8 41.8 L 42.4 44.2 L 44.8 46.8 L 47.1 49.7 L 49.1 52.7 L 49.3 57.2 L 46.2 60.7 L 41.7 60.8 L 38.2 57.8 L 37.3 55.2 Z " />
</g>
</svg>
