<svg xmlns="http://www.w3.org/2000/svg" xmlns:xlink="http://www.w3.org/1999/xlink" version="1.1" baseProfile="full" viewBox="0 0 200 200" width="200" height="200">
<g fill="black">
<path d="M 99.9 175.9 L 119.9 175.9 L 121.1 175.8 L 122.0 175.7 L 122.6 175.5 L 123.2 175.2 L 123.5 174.6 L 123.7 174.0 L 123.8 173.1 L 123.9 171.9 L 123.9 165.1 L 71.79230766296386 165.1 L 71.2 167.2 L 68.6 174.0 L 65.5 179.9 L 62.1 184.8 L 58.2 188.5 L 57.1 187.4 L 59.4 183.0 L 61.5 178.0 L 63.4 172.2 L 65.1 165.5 L 66.5 158.0 L 67.6 149.6 L 68.4 140.3 L 68.9 130.1 L 69.1 119.0 L 69.0 107.0 L 69.0 28.0 L 79.0 33.0 L 122.4 33.0 L 122.4 12.0 L 134.4 14.0 L 137.4 16.0 L 134.4 17.8 L 134.4 33.0 L 167.61818180084228 33.0 L 175.8 24.0 L 185.8 33.0 L 185.8 37.0 L 79.0 37.0 L 79.0 107.0 L 78.6 119.2 L 77.8 130.6 L 76.7 141.1 L 75.2 150.7 L 73.4 159.4 L 72.92051286697388 161.1 L 123.9 161.1 L 123.9 152.0 L 81.6 152.0 L 81.6 148.0 L 123.9 148.0 L 123.9 139.919780254364 L 115.4 140.2 L 105.6 140.3 L 95.0 140.3 L 83.7 140.0 L 83.6 138.2 L 94.8 136.5 L 105.2 135.0 L 114.9 133.6 L 123.8 132.4 L 131.9 131.1 L 139.2 130.0 L 141.5 129.5818181991577 L 141.5 79.4 L 153.5 81.4 L 156.5 83.4 L 153.5 85.2 L 153.5 89.6 L 165.61818180084228 89.6 L 173.8 80.6 L 183.8 89.6 L 183.8 93.6 L 153.5 93.6 L 153.5 102.8 L 163.6777777671814 102.8 L 169.9 95.8 L 177.9 102.8 L 177.9 106.8 L 153.5 106.8 L 153.5 116.5 L 165.61818180084228 116.5 L 173.8 107.5 L 183.8 116.5 L 183.8 120.5 L 153.5 120.5 L 153.5 127.26000003814697 L 156.5 126.6 L 159.61298751831055 125.7439284324646 L 159.6 125.7 L 159.6429666519165 125.73568420410156 L 160.5 125.5 L 160.7461254119873 126.65186681747437 L 171.4 135.5 L 171.8 138.5 L 167.32751054763793 136.3241943359375 L 163.0 137.2 L 158.4 137.8 L 153.1 138.3 L 147.1 138.8 L 140.3 139.2 L 135.9 139.43466663360596 L 135.9 148.0 L 160.01818180084229 148.0 L 168.2 139.0 L 178.2 148.0 L 178.2 152.0 L 177.2800000190735 152.0 L 188.2 161.1 L 188.2 165.1 L 135.9 165.1 L 135.9 171.9 L 135.8 174.5 L 135.3 177.0 L 134.5 179.4 L 133.3 181.6 L 131.6 183.6 L 129.6 185.3 L 127.4 186.5 L 125.0 187.3 L 122.5 187.8 L 119.9 187.9 L 119.9 181.9 L 99.9 178.9 Z M 31.1 179.9 L 27.1 177.7 L 25.8 173.3 L 26.5 167.9 L 26.7 162.6 L 26.4 157.4 L 25.7 152.2 L 24.6 147.1 L 22.9 142.0 L 20.8 136.9 L 18.2 131.8 L 15.2 126.6 L 11.7 121.3 L 13.0 120.0 L 18.1 124.2 L 22.6 128.7 L 23.869767475128175 130.29534883499144 L 27.0 125.6 L 30.7 119.5 L 34.7 112.6 L 38.9 104.9 L 43.3 96.4 L 48.0 87.3 L 52.9 77.4 L 58.2 66.9 L 63.9 55.6 L 65.6 56.3 L 61.7 68.3 L 57.9 79.5 L 54.0 89.9 L 50.2 99.6 L 46.5 108.5 L 43.0 116.7 L 39.6 124.2 L 36.3 130.9 L 33.2 136.9 L 30.890926361083984 140.92225732803345 L 32.5 144.2 L 34.7 149.9 L 36.4 155.8 L 37.4 161.9 L 37.9 168.2 L 37.7 174.6 L 35.5 178.6 Z M 135.9 152.0 L 135.9 161.1 L 166.2 161.1 L 175.3 152.0 Z M 81.1 113.4 L 86.7 113.1 L 92.2 112.8 L 102.8 112.2 L 108.0 112.0 L 110.52172212600708 111.85166339874267 L 110.5 111.2 L 110.5 106.8 L 83.1 106.8 L 83.1 102.8 L 110.5 102.8 L 110.5 93.6 L 83.1 93.6 L 83.1 89.6 L 110.5 89.6 L 110.5 79.4 L 122.5 81.4 L 125.5 83.4 L 122.5 85.2 L 122.5 111.2 L 122.45396337509155 111.5091028213501 L 122.9 111.5 L 127.7 111.6 L 132.4 111.9 L 132.7 113.6 L 128.3 115.3 L 123.7 116.8 L 121.28167934417725 117.45496187210082 L 120.3 120.4 L 118.1 124.3 L 115.2 127.7 L 111.7 130.5 L 107.7 132.6 L 103.3 134.2 L 98.5 135.3 L 93.1 135.8 L 87.4 136.0 L 87.2 134.3 L 92.5 132.8 L 97.1 130.9 L 101.0 128.8 L 104.2 126.6 L 106.7 124.3 L 108.5 122.0 L 109.21514616012573 120.3746678352356 L 109.1 120.4 L 104.0 121.4 L 98.8 122.5 L 93.4 123.4 L 88.0 124.4 L 86.4820200920105 124.64396104812622 L 84.7 128.1 L 82.4 125.3 L 79.1 113.6 Z M 142.8 57.0 L 144.8 59.0 L 142.8 60.5 L 142.8 63.0 L 142.4 65.6 L 141.7 68.2 L 140.7 70.5 L 139.5 72.6 L 138.1 74.5 L 136.4 76.2 L 134.5 77.5 L 132.4 78.7 L 130.1 79.5 L 127.9 80.5 L 127.4 79.4 L 129.4 78.2 L 131.0 76.7 L 132.3 75.1 L 133.3 73.5 L 134.0 71.9 L 134.6 70.2 L 134.9 68.5 L 135.1 66.8 L 135.0 64.9 L 134.8 63.0 L 134.8 55.0 Z M 94.9 65.5 L 94.3 68.1 L 93.3 70.5 L 92.1 72.7 L 90.5 74.6 L 88.7 76.2 L 86.7 77.6 L 84.4 78.7 L 82.0 79.5 L 79.5 80.5 L 79.0 79.4 L 81.3 78.2 L 83.1 76.6 L 84.6 75.0 L 85.7 73.4 L 86.6 71.8 L 87.2 70.2 L 87.5 68.6 L 87.6 66.9 L 87.5 65.1 L 87.2 63.2 L 87.32799997329712 63.192000007629396 L 87.2 63.0 L 87.2 55.0 L 95.2 57.0 L 97.2 59.0 L 95.2 60.5 L 95.2 63.0 L 95.1617021560669 63.057446765899655 Z M 109.3 75.0 L 101.3 79.0 L 101.3 53.0 L 80.7 53.0 L 80.7 49.0 L 101.3 49.0 L 101.3 38.0 L 109.3 40.0 L 111.3 42.0 L 109.3 43.5 L 109.3 49.0 L 115.6777777671814 49.0 L 121.9 42.0 L 129.9 49.0 L 148.3 49.0 L 148.3 38.0 L 156.3 40.0 L 158.3 42.0 L 156.3 43.5 L 156.3 49.0 L 163.11818180084228 49.0 L 171.3 40.0 L 181.3 49.0 L 181.3 53.0 L 156.3 53.0 L 156.3 74.0 L 148.3 78.0 L 148.3 53.0 L 109.3 53.0 Z M 181.3 66.5 L 183.3 66.5 L 181.3 71.5 L 183.4 72.9 L 184.8 75.0 L 183.4 77.1 L 181.3 78.5 L 173.4 78.5 L 171.1 78.2 L 169.0 77.7 L 167.0 76.8 L 165.2 75.5 L 163.6 73.8 L 162.4 71.8 L 161.5 69.7 L 160.9 67.4 L 160.7 65.0 L 160.7 55.0 L 170.7 57.0 L 173.2 59.0 L 170.7 60.66666669845581 L 170.7 65.0 L 170.6 66.3 L 170.6 67.4 L 170.7 68.3 L 170.9 68.9 L 171.5 69.9 L 172.1 70.4 L 173.0 70.9 L 174.2 71.2 L 175.7 71.5 L 177.8 71.5 Z M 125.7 57.0 L 127.7 59.0 L 125.7 60.5 L 125.7 74.0 L 117.7 78.0 L 117.7 55.0 Z M 36.2 52.7 L 34.9 50.1 L 33.4 47.6 L 31.6 45.2 L 29.6 42.7 L 27.4 40.3 L 25.0 37.9 L 22.4 35.4 L 19.3 33.2 L 20.1 31.6 L 23.7 33.0 L 27.3 34.2 L 30.7 35.8 L 33.9 37.6 L 36.9 39.6 L 39.8 41.8 L 42.4 44.2 L 44.8 46.8 L 47.1 49.7 L 49.1 52.7 L 49.3 57.2 L 46.2 60.7 L 41.7 60.8 L 38.2 57.8 L 37.3 55.2 Z " />
</g>
</svg>
