<svg xmlns="http://www.w3.org/2000/svg" xmlns:xlink="http://www.w3.org/1999/xlink" version="1.1" baseProfile="full" viewBox="0 0 200 200" width="200" height="200">
<g fill="black">
<path d="M 174.0 31.0 L 177.0 33.0 L 174.0 34.8 L 174.0 178.0 L 162.0 184.0 L 162.0 172.0 L 38.0 172.0 L 38.0 184.0 L 26.0 190.0 L 26.0 29.0 L 38.0 31.0 L 41.0 33.0 L 38.0 34.8 L 38.0 168.0 L 162.0 168.0 L 162.0 29.0 Z M 137.7 153.2 L 133.6 145.2 L 130.2 135.1 L 127.4 122.8 L 125.0 108.1 L 123.1 91.1 L 121.7 71.7 L 120.6 49.9 L 120.24195518493653 35.39918537139893 L 120.0 35.5 L 120.0 27.5 L 49.5 27.5 L 49.5 23.5 L 120.0 23.5 L 126.0 18.5 L 137.0 27.5 L 132.1251022338867 30.424938678741455 L 132.6 49.5 L 133.7 71.0 L 135.1 90.0 L 136.9 106.5 L 139.2 120.5 L 141.8 131.9 L 144.7 140.7 L 146.68941802978514 144.61252202987671 L 151.1 125.5 L 153.1 125.5 L 151.2074073791504 150.10370368957518 L 152.2 150.6 L 156.0 153.1 L 157.0 157.6 L 154.5 161.4 L 150.0 162.4 L 143.0 159.2 Z M 89.8 34.1 L 92.8 36.1 L 89.8 37.9 L 89.8 67.5 L 92.8 67.5 L 102.8 57.5 L 114.8 67.5 L 114.8 71.5 L 89.8 71.5 L 89.8 110.6 L 100.7 110.6 L 110.7 100.6 L 122.7 110.6 L 122.7 114.6 L 89.8 114.6 L 89.8 155.2 L 77.8 161.2 L 77.8 114.6 L 50.1 114.6 L 50.1 110.6 L 77.8 110.6 L 77.8 71.5 L 56.1 71.5 L 56.1 67.5 L 77.8 67.5 L 77.8 32.1 Z " />
</g>
</svg>
