<svg xmlns="http://www.w3.org/2000/svg" xmlns:xlink="http://www.w3.org/1999/xlink" version="1.1" baseProfile="full" viewBox="0 0 200 200" width="200" height="200">
<g fill="black">
<path d="M 151.0 116.4 L 152.8 119.5 L 149.12758264541625 119.88657026290893 L 148.1 121.8 L 145.0 127.3 L 141.7 133.0 L 138.2 138.7 L 134.5 144.5 L 130.7 150.4 L 126.6 156.4 L 122.3 162.4 L 117.7 168.4 L 114.7 172.0 L 166.0 172.0 L 176.0 162.0 L 188.0 172.0 L 188.0 176.0 L 12.0 176.0 L 12.0 172.0 L 111.89718313217163 172.0 L 114.5 166.4 L 117.7 159.6 L 121.0 153.0 L 124.1 146.6 L 127.1 140.4 L 130.0 134.3 L 132.8 128.3 L 135.4 122.5 L 137.8 116.9 L 139.72633666992186 112.20978889465331 L 139.7 112.2 L 140.04772729873656 111.42727270126343 L 140.1 111.3 L 140.10413036346435 111.30193252563477 L 140.6 110.2 Z M 63.8 151.2 L 62.1 147.1 L 60.2 142.8 L 58.0 138.4 L 55.6 133.9 L 53.0 129.3 L 50.1 124.5 L 47.1 119.5 L 43.9 114.3 L 45.3 113.1 L 50.0 117.1 L 54.3 121.2 L 58.3 125.4 L 61.9 129.7 L 65.2 133.9 L 68.2 138.2 L 71.0 142.4 L 73.5 146.7 L 75.7 150.9 L 77.6 155.1 L 77.3 159.7 L 73.9 162.8 L 69.4 162.5 L 66.3 159.1 L 65.2 155.2 Z M 174.0 21.0 L 177.0 23.0 L 174.0 24.8 L 174.0 97.6 L 162.0 103.6 L 162.0 91.6 L 39.0 91.6 L 39.0 103.6 L 27.0 109.6 L 27.0 19.0 L 39.0 21.0 L 42.0 23.0 L 39.0 24.8 L 39.0 87.6 L 162.0 87.6 L 162.0 19.0 Z M 124.2 64.7 L 115.6 59.4 L 107.0 54.4 L 106.69251251220703 54.23227949142456 L 104.8 55.4 L 94.9 60.8 L 84.3 65.8 L 73.2 70.3 L 61.5 74.4 L 49.2 77.8 L 48.7 76.1 L 60.2 70.8 L 71.1 65.4 L 81.4 59.9 L 91.2 54.2 L 98.18698501586914 49.59319667816162 L 89.4 45.0 L 80.6 40.7 L 71.6 36.6 L 62.7 32.5 L 53.6 28.5 L 54.2 26.8 L 63.9 28.9 L 73.5 31.5 L 83.1 34.6 L 92.5 38.1 L 101.9 41.9 L 106.30600452423096 43.88980846405029 L 108.8 42.1 L 116.7 35.6 L 124.0 28.9 L 130.6 22.0 L 136.10432634353637 15.503090190887452 L 136.1 15.5 L 137.1 14.3 L 145.9 22.5 L 146.9 26.0 L 143.1066517829895 25.411377048492433 L 138.8 29.9 L 131.2 36.9 L 123.0 43.4 L 115.9236273765564 48.38562612533569 L 120.5 50.6 L 129.6 55.5 L 138.7 60.6 L 147.8 66.1 L 150.3 69.9 L 149.4 74.4 L 145.6 76.9 L 141.1 76.1 L 132.7 70.3 Z " />
</g>
</svg>
