<svg xmlns="http://www.w3.org/2000/svg" xmlns:xlink="http://www.w3.org/1999/xlink" version="1.1" baseProfile="full" viewBox="0 0 200 200" width="200" height="200">
<g fill="black">
<path d="M 45.0 16.0 L 48.0 18.0 L 45.0 19.8 L 45.0 183.0 L 33.0 189.0 L 33.0 14.0 Z M 153.0 176.0 L 169.0 176.0 L 170.2 175.9 L 171.1 175.7 L 172.0 175.4 L 172.4 175.0 L 172.7 174.1 L 172.9 173.2 L 173.0 172.0 L 173.0 14.0 L 185.0 16.0 L 188.0 18.0 L 185.0 19.8 L 185.0 172.0 L 184.8 174.5 L 184.4 177.0 L 183.6 179.4 L 182.3 181.7 L 180.7 183.7 L 178.7 185.3 L 176.4 186.6 L 174.0 187.4 L 171.5 187.8 L 169.0 188.0 L 169.0 182.0 L 153.0 179.0 Z M 132.4 106.0 L 132.4 110.0 L 107.5 110.0 L 107.5 137.5 L 117.0 137.5 L 127.0 127.5 L 139.0 137.5 L 139.0 141.5 L 107.5 141.5 L 107.5 181.5 L 95.5 187.5 L 95.5 141.5 L 63.9 141.5 L 63.9 137.5 L 95.5 137.5 L 95.5 110.0 L 70.5 110.0 L 70.5 106.0 L 110.4 106.0 L 120.4 96.0 Z M 155.6 31.0 L 158.6 33.0 L 155.6 34.8 L 155.6 149.0 L 143.6 155.0 L 143.6 29.0 Z M 14.6 101.5 L 11.9 97.9 L 12.5 93.3 L 13.7 91.7 L 15.0 89.6 L 16.3 87.0 L 17.6 83.9 L 18.9 80.4 L 20.2 76.5 L 21.4 72.2 L 22.7 67.5 L 24.1 62.4 L 25.3 56.9 L 27.1 57.0 L 27.2 62.7 L 27.4 68.1 L 27.3 73.1 L 27.1 77.8 L 26.7 82.2 L 26.2 86.2 L 25.6 89.9 L 24.9 93.3 L 23.9 96.5 L 22.8 99.4 L 19.1 102.1 Z M 84.2 24.0 L 118.7 24.0 L 124.7 19.0 L 135.7 28.0 L 130.7 32.0 L 130.7 88.0 L 118.7 94.0 L 118.7 84.0 L 84.2 84.0 L 84.2 91.0 L 72.2 97.0 L 72.2 18.0 Z M 55.3 78.0 L 54.8 75.3 L 54.1 72.5 L 53.3 69.6 L 52.4 66.7 L 51.3 63.7 L 50.1 60.6 L 48.8 57.4 L 47.1 54.3 L 48.5 53.2 L 51.0 55.8 L 53.6 58.3 L 56.0 60.8 L 58.2 63.5 L 60.2 66.2 L 62.0 69.0 L 63.7 71.9 L 65.2 74.7 L 66.5 77.7 L 67.7 80.7 L 66.8 85.2 L 63.1 87.9 L 58.6 87.0 L 56.0 83.3 L 55.7 80.7 Z M 84.2 56.0 L 84.2 80.0 L 118.7 80.0 L 118.7 56.0 Z M 84.2 28.0 L 84.2 52.0 L 118.7 52.0 L 118.7 28.0 Z " />
</g>
</svg>
