<svg xmlns="http://www.w3.org/2000/svg" xmlns:xlink="http://www.w3.org/1999/xlink" version="1.1" baseProfile="full" viewBox="0 0 200 200" width="200" height="200">
<g fill="black">
<path d="M 31.4 184.0 L 19.4 190.0 L 19.4 23.0 L 31.4 29.0 L 95.0 29.0 L 105.0 19.0 L 117.0 29.0 L 117.0 33.0 L 81.4 33.0 L 81.4 72.0 L 98.8 72.0 L 104.8 67.0 L 115.8 76.0 L 110.8 80.0 L 110.8 131.0 L 98.8 137.0 L 98.8 125.0 L 81.4 125.0 L 81.4 168.0 L 100.7 168.0 L 110.7 158.0 L 122.7 168.0 L 122.7 172.0 L 31.4 172.0 Z M 146.2 176.0 L 166.2 176.0 L 167.5 175.9 L 168.4 175.7 L 169.3 175.4 L 169.5 175.2 L 169.6 175.0 L 169.8 174.7 L 170.0 174.1 L 170.2 173.2 L 170.2 14.0 L 182.2 16.0 L 185.2 18.0 L 182.2 19.8 L 182.2 172.0 L 182.1 174.5 L 181.7 177.0 L 180.8 179.4 L 179.6 181.7 L 178.0 183.7 L 176.0 185.3 L 173.7 186.6 L 171.3 187.4 L 168.8 187.8 L 166.2 188.0 L 166.2 182.0 L 146.2 179.0 Z M 31.4 33.0 L 31.4 168.0 L 69.4 168.0 L 69.4 125.0 L 55.8 125.0 L 55.8 137.0 L 43.8 143.0 L 43.8 66.0 L 55.8 72.0 L 69.4 72.0 L 69.4 33.0 Z M 142.8 31.0 L 145.8 33.0 L 142.8 34.8 L 142.8 149.0 L 130.8 155.0 L 130.8 29.0 Z M 55.8 121.0 L 98.8 121.0 L 98.8 76.0 L 55.8 76.0 Z " />
</g>
</svg>
