<svg xmlns="http://www.w3.org/2000/svg" xmlns:xlink="http://www.w3.org/1999/xlink" version="1.1" baseProfile="full" viewBox="0 0 200 200" width="200" height="200">
<g fill="black">
<path d="M 143.8 176.0 L 163.8 176.0 L 165.0 175.9 L 165.9 175.7 L 166.8 175.4 L 167.2 175.0 L 167.5 174.1 L 167.7 173.2 L 167.8 172.0 L 167.8 14.0 L 179.8 16.0 L 182.8 18.0 L 179.8 19.8 L 179.8 172.0 L 179.6 174.5 L 179.2 177.0 L 178.4 179.4 L 177.1 181.7 L 175.5 183.7 L 173.5 185.3 L 171.2 186.6 L 168.8 187.4 L 166.3 187.8 L 163.8 188.0 L 163.8 182.0 L 143.8 179.0 Z M 67.0 103.4 L 65.92829494476318 104.87096776962281 L 67.4 109.7 L 70.8 119.5 L 74.6 128.5 L 78.02374687194825 135.1086277961731 L 78.7 134.5 L 81.4 131.7 L 84.0 128.9 L 86.5 126.3 L 89.0 123.8 L 91.3 121.4 L 95.5 116.6 L 97.4 114.4 L 98.59014997482299 112.87925271987915 L 98.5 112.8 L 99.01470584869385 112.33676471710206 L 99.2 112.1 L 99.23616237640381 112.13745384216308 L 99.5 111.9 L 107.6 120.8 L 108.2 124.3 L 104.16942672729492 123.2203821182251 L 102.4 124.4 L 99.7 126.3 L 96.8 128.1 L 93.8 129.9 L 90.7 131.7 L 87.4 133.5 L 83.9 135.2 L 80.3 136.9 L 79.28172588348389 137.40913705825807 L 83.6 144.3 L 88.8 151.0 L 94.5 157.1 L 100.8 162.4 L 107.5 167.1 L 114.7 171.2 L 119.6 173.8 L 108.4 182.7 L 100.4 177.5 L 93.1 171.4 L 86.5 164.7 L 80.7 157.3 L 75.7 149.2 L 71.4 140.5 L 67.9 131.2 L 65.2 121.2 L 63.3 110.6 L 63.16085834503174 108.66941003799438 L 61.9 110.4 L 56.7 116.9 L 51.2 123.0 L 45.6 128.5 L 41.07768592834473 132.5462809562683 L 43.8 133.0 L 46.8 135.0 L 43.8 136.8 L 43.8 164.3548387527466 L 49.8 163.0 L 56.1 161.7 L 62.5 160.4 L 69.1 159.1 L 75.9 158.1 L 76.5 159.8 L 70.3 162.8 L 64.1 165.5 L 58.0 168.0 L 46.0 172.6 L 40.2 174.7 L 34.5 176.7 L 28.9 178.7 L 23.4 180.6 L 21.999385356903076 181.09280881881713 L 20.8 184.8 L 18.0 182.5 L 12.9 171.4 L 14.8 170.9 L 20.3 169.7 L 25.9 168.4 L 31.7 167.1 L 31.8 167.0779661178589 L 31.8 139.47704916000367 L 27.8 142.1 L 21.5 145.5 L 15.0 148.2 L 8.4 150.2 L 7.7 148.5 L 13.3 144.8 L 18.7 140.9 L 24.0 136.7 L 29.1 132.2 L 34.1 127.3 L 39.0 122.1 L 43.7 116.4 L 48.2 110.3 L 52.6 103.8 L 53.577777767181395 102.2 L 11.1 102.2 L 11.1 98.2 L 56.0 98.2 L 56.0 77.0 L 68.0 79.0 L 71.0 81.0 L 68.0 82.8 L 68.0 98.2 L 90.8 98.2 L 100.8 88.2 L 112.8 98.2 L 112.8 102.2 L 67.8625 102.2 Z M 136.8 31.0 L 139.8 33.0 L 136.8 34.8 L 136.8 149.0 L 124.8 155.0 L 124.8 29.0 Z M 8.6 67.6 L 56.0 67.6 L 56.0 39.5 L 16.7 39.5 L 16.7 35.5 L 56.0 35.5 L 56.0 13.2 L 68.0 15.2 L 71.0 17.2 L 68.0 19.0 L 68.0 35.5 L 85.2 35.5 L 95.2 25.5 L 107.2 35.5 L 107.2 39.5 L 68.0 39.5 L 68.0 67.6 L 93.3 67.6 L 103.3 57.6 L 115.3 67.6 L 115.3 71.6 L 8.6 71.6 Z " />
</g>
</svg>
