<svg xmlns="http://www.w3.org/2000/svg" xmlns:xlink="http://www.w3.org/1999/xlink" version="1.1" baseProfile="full" viewBox="0 0 200 200" width="200" height="200">
<g fill="black">
<path d="M 142.9 176.0 L 162.9 176.0 L 164.1 175.9 L 165.0 175.7 L 165.6 175.5 L 166.0 175.4 L 166.1 175.2 L 166.3 175.0 L 166.5 174.7 L 166.7 174.1 L 166.8 173.2 L 166.9 172.0 L 166.9 14.0 L 178.9 16.0 L 181.9 18.0 L 178.9 19.8 L 178.9 172.0 L 178.8 174.5 L 178.3 177.0 L 177.5 179.4 L 176.3 181.7 L 174.6 183.7 L 172.6 185.3 L 170.4 186.6 L 167.9 187.4 L 165.5 187.8 L 162.9 188.0 L 162.9 182.0 L 142.9 179.0 Z M 24.3 173.9 L 28.5 173.0 L 33.1 172.1 L 37.9 171.0 L 38.0 170.97884616851806 L 38.0 141.96551723480223 L 37.2 142.6 L 31.3 146.8 L 25.1 150.4 L 18.8 153.4 L 12.4 155.8 L 11.5 154.1 L 16.9 150.1 L 22.2 145.9 L 27.3 141.5 L 32.3 136.8 L 37.1 131.8 L 41.9 126.5 L 46.4 120.8 L 50.9 114.8 L 55.2 108.4 L 58.535294151306154 103.0 L 41.0 103.0 L 41.0 115.0 L 29.0 121.0 L 29.0 56.0 L 41.0 62.0 L 88.0 62.0 L 94.0 57.0 L 105.0 66.0 L 100.0 70.0 L 100.0 105.0 L 88.0 111.0 L 88.0 103.0 L 62.83333330154419 103.0 L 69.5 108.0 L 70.9 111.3 L 67.15547876358032 111.23543930053711 L 64.5 114.9 L 59.4 121.3 L 54.1 127.3 L 48.6 132.9 L 45.01104974746704 136.16850824356078 L 50.0 137.0 L 53.0 139.0 L 50.0 140.8 L 50.0 168.48965520858764 L 54.3 167.6 L 60.4 166.4 L 66.8 165.2 L 73.6 164.1 L 80.7 163.1 L 81.2 164.8 L 74.6 167.7 L 68.3 170.4 L 62.2 172.7 L 56.4 174.9 L 50.9 177.0 L 45.6 178.9 L 40.7 180.7 L 36.0 182.4 L 31.6 184.0 L 31.50048942565918 184.03482875823974 L 30.3 187.8 L 27.6 185.4 L 22.3 174.5 Z M 95.5 162.8 L 92.6 158.3 L 89.5 153.8 L 86.0 149.3 L 82.2 145.0 L 78.1 140.6 L 73.8 136.2 L 69.2 131.8 L 64.3 127.3 L 65.3 125.7 L 71.4 128.7 L 77.1 132.0 L 82.4 135.6 L 84.01691541671752 136.82885570526122 L 85.8 134.6 L 87.8 132.3 L 89.9 130.0 L 91.8 127.7 L 93.8 125.4 L 95.7 123.2 L 97.5 120.9 L 99.3 118.7 L 100.41226034164428 117.19517726898194 L 100.3 117.1 L 101.3 116.1 L 109.5 124.9 L 110.2 128.4 L 106.05341567993165 127.38154067993165 L 102.0 130.3 L 99.4 131.9 L 96.7 133.6 L 94.0 135.1 L 91.2 136.6 L 88.3 138.0 L 86.50344829559326 138.7186206817627 L 87.4 139.4 L 92.1 143.5 L 96.5 147.7 L 100.6 152.2 L 104.3 156.8 L 107.8 161.6 L 110.9 166.5 L 111.2 171.1 L 108.3 174.6 L 103.8 174.9 L 100.2 172.0 L 98.0 167.4 Z M 140.4 31.0 L 143.4 33.0 L 140.4 34.8 L 140.4 149.0 L 128.4 155.0 L 128.4 29.0 Z M 41.0 66.0 L 41.0 99.0 L 88.0 99.0 L 88.0 66.0 Z M 12.0 43.0 L 58.0 43.0 L 58.0 15.0 L 70.0 17.0 L 73.0 19.0 L 70.0 20.8 L 70.0 43.0 L 97.0 43.0 L 107.0 33.0 L 119.0 43.0 L 119.0 47.0 L 12.0 47.0 Z " />
</g>
</svg>
