<svg xmlns="http://www.w3.org/2000/svg" xmlns:xlink="http://www.w3.org/1999/xlink" version="1.1" baseProfile="full" viewBox="0 0 200 200" width="200" height="200">
<g fill="black">
<path d="M 73.9 126.1 L 77.9 134.6 L 82.1 142.3 L 86.5 149.2 L 91.2 155.1 L 96.1 160.2 L 101.2 164.5 L 106.5 168.0 L 112.1 170.7 L 117.9 172.7 L 125.4 175.1 L 113.8 185.2 L 106.7 182.0 L 100.1 177.9 L 94.1 173.0 L 88.6 167.2 L 83.7 160.8 L 79.4 153.5 L 75.6 145.5 L 72.4 136.8 L 69.9 127.4 L 69.24069766998291 123.62732553482056 L 69.2 123.9 L 66.0 136.3 L 61.7 147.5 L 56.2 157.6 L 49.5 166.5 L 41.7 174.1 L 32.8 180.4 L 22.9 185.3 L 12.0 188.8 L 11.4 187.1 L 21.2 181.9 L 29.8 176.0 L 37.2 169.3 L 43.6 161.7 L 48.9 153.3 L 53.1 143.9 L 56.4 133.5 L 58.6 122.1 L 59.02639999389648 118.0 L 10.4 118.0 L 10.4 114.0 L 25.4 114.0 L 25.4 47.0 L 37.4 53.0 L 60.1 53.0 L 60.1 16.0 L 72.1 18.0 L 75.1 20.0 L 72.1 21.8 L 72.1 53.0 L 94.8 53.0 L 100.8 48.0 L 111.8 57.0 L 106.8 61.0 L 106.8 114.0 L 108.8777777671814 114.0 L 115.1 107.0 L 123.1 114.0 L 123.1 118.0 L 70.45319147109986 118.0 Z M 143.2 176.0 L 163.2 176.0 L 164.4 175.9 L 165.4 175.7 L 165.9 175.5 L 166.3 175.4 L 166.5 175.2 L 166.6 175.0 L 166.8 174.7 L 167.0 174.1 L 167.1 173.2 L 167.2 172.0 L 167.2 14.0 L 179.2 16.0 L 182.2 18.0 L 179.2 19.8 L 179.2 172.0 L 179.1 174.5 L 178.6 177.0 L 177.8 179.4 L 176.6 181.7 L 175.0 183.7 L 172.9 185.3 L 170.7 186.6 L 168.3 187.4 L 165.8 187.8 L 163.2 188.0 L 163.2 182.0 L 143.2 179.0 Z M 142.6 31.0 L 145.6 33.0 L 142.6 34.8 L 142.6 149.0 L 130.6 155.0 L 130.6 29.0 Z M 70.67761192321777 114.0 L 94.8 114.0 L 94.8 57.0 L 72.1 57.0 L 72.1 96.0 L 71.2 110.5 Z M 37.4 57.0 L 37.4 114.0 L 59.442399978637695 114.0 L 59.9 109.6 L 60.1 96.0 L 60.1 57.0 Z " />
</g>
</svg>
