<svg xmlns="http://www.w3.org/2000/svg" xmlns:xlink="http://www.w3.org/1999/xlink" version="1.1" baseProfile="full" viewBox="0 0 200 200" width="200" height="200">
<g fill="black">
<path d="M 142.7 178.7 L 162.7 178.7 L 164.0 178.6 L 164.9 178.5 L 165.5 178.3 L 165.8 178.1 L 166.1 177.8 L 166.3 177.4 L 166.5 176.8 L 166.7 175.9 L 166.7 14.2 L 178.7 16.2 L 181.7 18.2 L 178.7 20.0 L 178.7 174.7 L 178.6 177.2 L 178.1 179.7 L 177.3 182.1 L 176.1 184.4 L 174.5 186.4 L 172.5 188.1 L 170.2 189.3 L 167.8 190.1 L 165.3 190.5 L 162.7 190.7 L 162.7 184.7 L 142.7 181.7 Z M 42.3 176.5 L 57.7 176.5 L 58.7 176.4 L 59.3 176.3 L 59.7 176.1 L 60.0 176.0 L 60.1 175.8 L 60.3 175.6 L 60.5 175.1 L 60.7 174.4 L 60.9 173.3 L 61.0 172.0 L 61.0 124.71999998092652 L 57.2 127.0 L 56.1166051864624 127.4514144897461 L 55.6 130.0 L 53.4 137.0 L 50.5 143.6 L 46.9 149.7 L 42.6 155.5 L 37.7 160.7 L 32.1 165.5 L 26.0 169.9 L 19.1 173.6 L 11.7 176.7 L 10.8 175.2 L 17.1 170.4 L 22.7 165.6 L 27.7 160.7 L 32.1 155.6 L 35.8 150.4 L 38.8 145.0 L 41.3 139.5 L 43.2 133.6 L 44.5 127.6 L 44.9 124.0 L 18.6 124.0 L 18.6 120.0 L 45.2 120.0 L 51.2 115.0 L 61.0 123.01818180084229 L 61.0 95.0 L 72.0 97.0 L 74.7 99.0 L 72.0 100.72340421676635 L 72.0 115.6 L 73.5 119.6 L 77.1 127.8 L 80.9 135.2 L 82.6879898071289 138.05226955413818 L 83.0 137.7 L 86.0 134.1 L 91.8 127.3 L 94.5 124.0 L 97.1 120.7 L 99.6 117.5 L 102.0 114.3 L 104.2 111.2 L 105.75225267410278 108.83466262817383 L 105.7 108.8 L 106.03417720794678 108.40506324768066 L 106.3 108.0 L 106.34611654281616 108.03640775680542 L 106.8 107.5 L 115.8 115.5 L 116.9 118.9 L 112.94545450210572 118.35454549789429 L 110.0 121.3 L 106.9 124.2 L 100.3 129.8 L 93.1 135.2 L 89.2 137.8 L 85.1 140.2 L 84.3290228843689 140.67010793685913 L 85.1 141.9 L 89.7 147.9 L 94.7 153.2 L 100.1 157.8 L 105.8 161.7 L 112.1 165.1 L 118.8 167.8 L 125.3 170.5 L 113.9 180.1 L 106.2 176.2 L 99.2 171.5 L 92.9 166.2 L 87.2 160.1 L 82.2 153.5 L 77.9 146.2 L 74.4 138.3 L 72.0 131.26551723480225 L 72.0 172.0 L 71.8 174.4 L 71.5 176.7 L 70.8 179.0 L 69.8 181.1 L 68.4 183.1 L 66.6 184.7 L 64.6 186.0 L 62.4 186.8 L 60.1 187.3 L 57.7 187.5 L 57.7 182.0 L 42.3 179.2 Z M 140.0 31.4 L 143.0 33.4 L 140.0 35.2 L 140.0 151.2 L 128.0 157.2 L 128.0 29.4 Z M 14.6 39.3 L 14.6 35.3 L 40.5 35.3 L 40.5 11.4 L 52.5 13.4 L 55.5 15.4 L 52.5 17.2 L 52.5 35.3 L 81.6 35.3 L 81.6 11.4 L 92.6 13.4 L 95.3 15.4 L 92.6 17.123404216766357 L 92.6 35.3 L 95.7 35.3 L 105.7 25.3 L 117.7 35.3 L 117.7 39.3 L 92.6 39.3 L 92.6 66.6 L 100.3 66.6 L 110.3 56.6 L 122.3 66.6 L 122.3 70.6 L 92.6 70.6 L 92.6 98.7 L 81.6 104.2 L 81.6 70.6 L 51.175 70.6 L 50.9 72.2 L 49.1 78.1 L 46.7 83.7 L 43.6 88.7 L 40.0 93.2 L 35.7 97.1 L 30.9 100.4 L 25.5 103.0 L 19.6 104.9 L 18.9 103.3 L 23.6 99.7 L 27.7 96.1 L 31.1 92.4 L 34.0 88.4 L 36.4 84.3 L 38.2 79.9 L 39.5 75.3 L 40.25200004577637 70.6 L 13.3 70.6 L 13.3 66.6 L 40.5740740776062 66.6 L 40.7 64.9 L 40.5 59.2 L 40.56557378768921 59.1983606338501 L 40.5 59.1 L 40.5 39.3 Z M 52.0 65.8 L 51.8625 66.6 L 81.6 66.6 L 81.6 39.3 L 52.5 39.3 L 52.5 59.1 L 52.48373985290527 59.12439022064209 Z " />
</g>
</svg>
