<svg xmlns="http://www.w3.org/2000/svg" xmlns:xlink="http://www.w3.org/1999/xlink" version="1.1" baseProfile="full" viewBox="0 0 200 200" width="200" height="200">
<g fill="black">
<path d="M 146.9 176.0 L 166.9 176.0 L 168.1 175.9 L 169.0 175.7 L 169.6 175.5 L 170.0 175.4 L 170.1 175.2 L 170.3 175.0 L 170.5 174.7 L 170.7 174.1 L 170.8 173.2 L 170.9 172.0 L 170.9 14.0 L 182.9 16.0 L 185.9 18.0 L 182.9 19.8 L 182.9 172.0 L 182.7 174.5 L 182.3 177.0 L 181.5 179.4 L 180.3 181.7 L 178.6 183.7 L 176.6 185.3 L 174.3 186.6 L 171.9 187.4 L 169.4 187.8 L 166.9 188.0 L 166.9 182.0 L 146.9 179.0 Z M 91.9 184.1 L 80.2 181.2 L 69.8 176.8 L 61.0 170.8 L 53.9 163.4 L 53.75322380065918 163.160809135437 L 49.8 168.3 L 44.4 173.8 L 38.5 178.3 L 32.2 181.6 L 25.6 183.6 L 24.9 182.0 L 30.3 178.3 L 35.2 174.0 L 39.7 169.2 L 43.8 163.7 L 47.5 157.4 L 48.69144449234009 154.91198358535766 L 48.5 154.6 L 44.9 144.6 L 43.08321895599365 133.89055404663085 L 41.3 138.2 L 38.6 143.5 L 35.5 148.3 L 32.1 152.6 L 28.2 156.3 L 26.916937351226807 155.29187936782836 L 26.7 156.3 L 24.6 163.5 L 22.1 170.1 L 19.3 176.0 L 16.0 181.1 L 12.3 185.4 L 10.8 184.5 L 12.7 179.4 L 14.4 173.9 L 15.9 168.0 L 17.2 161.6 L 18.4 154.6 L 19.2 147.1 L 19.9 138.9 L 20.2 130.2 L 20.3 120.9 L 20.2 111.0 L 20.2 41.0 L 32.2 47.0 L 58.9 47.0 L 58.9 12.0 L 70.9 14.0 L 73.9 16.0 L 70.9 17.8 L 70.9 27.0 L 90.51818180084229 27.0 L 98.7 18.0 L 108.7 27.0 L 108.7 31.0 L 70.9 31.0 L 70.9 47.0 L 109.7 47.0 L 110.17663555145263 46.6028037071228 L 110.2 46.5 L 110.26516590118408 46.52902841567993 L 115.7 42.0 L 126.7 51.0 L 121.7 54.0 L 118.35822782516479 55.39240503311157 L 117.1 57.1 L 114.1 61.1 L 112.5 63.1 L 109.1 67.1 L 107.2 69.1 L 105.7 71.4 L 104.1 70.5 L 105.1 68.0 L 105.7 65.3 L 107.5 57.8 L 108.1 55.5 L 108.7 53.1 L 109.17727270126343 51.0 L 32.2 51.0 L 32.2 111.0 L 31.7 121.2 L 30.9 130.9 L 29.9 140.0 L 28.4 148.4 L 27.05860891342163 154.63352336883545 L 28.9 150.6 L 30.8 145.8 L 32.6 140.8 L 34.2 135.5 L 35.6 129.9 L 36.8 124.0 L 37.8 117.7 L 38.6 111.1 L 39.2 104.1 L 39.54598741531372 97.6992335319519 L 39.5 97.7 L 39.7 94.5 L 51.5 97.5 L 54.4 99.7 L 50.991019535064694 101.4700475692749 L 50.5 105.3 L 49.23513517379761 112.5 L 60.5 112.5 L 66.5 107.5 L 77.5 116.5 L 72.5 119.5 L 71.35091514587403 119.97878532409668 L 69.8 126.6 L 66.8 136.7 L 63.2 146.0 L 59.2 154.3 L 58.38780698776245 155.68442001342774 L 60.2 158.0 L 66.7 163.4 L 71.36241130828857 165.97659578323365 L 71.0 165.2 L 73.0 163.5 L 74.4 161.5 L 75.6 159.3 L 76.6 157.0 L 77.3 154.4 L 77.9 151.6 L 78.2 148.5 L 78.4 145.2 L 78.3 141.5 L 78.1 137.5 L 78.1 106.5 L 89.1 112.0 L 96.8 112.0 L 102.3 107.0 L 112.8 116.0 L 107.8 119.5 L 107.8 151.6 L 108.0 152.9 L 108.2 153.8 L 108.4 154.4 L 108.7 154.8 L 108.77419357299804 154.87419357299805 L 114.6 130.6 L 116.6 130.6 L 114.6 155.6 L 118.2 158.0 L 120.6 161.6 L 118.2 165.2 L 114.6 167.6 L 112.3 167.6 L 109.8 167.4 L 107.3 166.9 L 104.9 166.0 L 102.7 164.8 L 100.8 163.1 L 99.2 161.1 L 98.0 158.9 L 97.3 156.5 L 96.9 154.1 L 96.8 151.6 L 96.8 116.0 L 89.1 116.0 L 89.1 137.5 L 88.6 142.1 L 87.8 146.4 L 86.8 150.3 L 85.4 153.9 L 83.7 157.2 L 81.8 160.0 L 79.6 162.4 L 77.1 164.3 L 74.4 165.6 L 72.25918779373168 166.4721827507019 L 74.3 167.6 L 83.2 170.6 L 93.6 172.4 L 105.3 172.9 L 118.6 172.1 L 129.5 171.3 L 119.6 185.3 L 105.1 185.4 Z M 143.2 31.0 L 146.2 33.0 L 143.2 34.8 L 143.2 149.0 L 131.2 155.0 L 131.2 29.0 Z M 48.37391300201416 116.5 L 47.7 119.6 L 45.872627639770506 125.94771451950074 L 47.2 132.7 L 50.5 142.7 L 52.35770616531372 146.32900733947753 L 53.8 142.4 L 56.5 133.6 L 58.7 123.9 L 60.03904762268066 116.5 Z M 111.9 83.0 L 113.9 83.0 L 111.9 92.0 L 114.3 93.6 L 115.9 96.0 L 114.3 98.4 L 111.9 100.0 L 68.7 100.0 L 66.4 99.8 L 64.2 99.3 L 62.0 98.3 L 60.1 97.0 L 58.4 95.2 L 57.0 93.2 L 56.1 90.9 L 55.4 88.5 L 55.1 86.0 L 55.1 76.97434406280517 L 32.8 79.9 L 32.3 76.0 L 55.1 73.00437955856323 L 55.1 53.0 L 67.1 55.0 L 70.1 57.0 L 67.1 58.8 L 67.1 71.42773723602295 L 79.00645389556885 69.86338558197022 L 87.6 58.6 L 100.8 67.0 L 101.4 70.9 L 67.1 75.4 L 67.1 86.0 L 67.0 87.2 L 66.9 88.2 L 67.0 88.9 L 67.0 89.5 L 67.1 89.9 L 67.4 90.4 L 67.8 90.8 L 68.6 91.3 L 69.7 91.7 L 71.1 92.0 L 107.9 92.0 Z " />
</g>
</svg>
