<svg xmlns="http://www.w3.org/2000/svg" xmlns:xlink="http://www.w3.org/1999/xlink" version="1.1" baseProfile="full" viewBox="0 0 200 200" width="200" height="200">
<g fill="black">
<path d="M 154.5 187.1 L 152.4 187.9 L 150.3 188.6 L 148.1 189.2 L 145.9 189.7 L 143.7 190.1 L 141.5 190.4 L 139.2 190.6 L 137.0 190.6 L 137.0 184.6 L 117.0 181.6 L 117.0 178.6 L 138.6 178.6 L 142.0 178.2 L 143.6 178.0 L 146.8 177.2 L 148.3 176.6 L 149.9 176.0 L 151.4 175.4 L 152.9 174.6 L 154.0 173.8 L 155.3 172.3 L 156.7 170.0 L 158.1 166.8 L 159.4 162.8 L 160.5 158.0 L 161.4 152.4 L 162.1 146.0 L 162.6 138.8 L 162.88860759735107 133.1 L 94.55656566619874 133.1 L 90.3 142.9 L 85.0 151.9 L 78.8 160.0 L 71.7 167.2 L 63.7 173.4 L 55.0 178.6 L 45.4 182.8 L 35.0 186.0 L 23.9 188.2 L 12.1 189.3 L 11.8 187.5 L 23.1 184.5 L 33.4 180.9 L 42.8 176.8 L 51.2 172.0 L 58.7 166.6 L 65.3 160.5 L 71.0 153.7 L 75.9 146.2 L 80.0 138.0 L 81.7753623008728 133.1 L 22.0 133.1 L 22.0 129.1 L 163.0 129.1 L 169.0 124.1 L 180.0 133.1 L 175.0 136.1 L 174.7186544418335 136.21722736358643 L 174.6 139.5 L 174.1 147.1 L 173.3 154.0 L 172.2 160.3 L 170.9 165.9 L 169.3 171.0 L 167.4 175.4 L 165.0 179.3 L 162.1 182.6 L 158.6 185.1 L 156.6 186.2 Z M 165.3 113.8 L 159.1 110.3 L 153.6 106.3 L 152.6091612815857 105.39004611968994 L 147.2 108.2 L 138.7 111.5 L 129.5 114.1 L 119.4 115.9 L 108.6 117.0 L 108.3 115.2 L 118.6 112.2 L 127.9 108.9 L 136.3 105.4 L 143.7 101.5 L 146.72664794921874 99.4977560043335 L 144.5 96.9 L 141.0 91.5 L 138.3 85.8 L 136.5 79.7 L 135.7125 74.1 L 129.6 74.1 L 129.6 70.1 L 169.2 70.1 L 175.18991594314576 65.10840339660645 L 173.6 65.7 L 169.4 63.8 L 166.8 60.9 L 164.0 57.9 L 161.0 55.0 L 158.3242603302002 52.79644966125488 L 157.6 53.4 L 151.8 57.4 L 145.7 60.9 L 139.2 63.9 L 132.4 66.2 L 125.3 68.0 L 124.7 66.3 L 130.9 62.7 L 136.8 59.1 L 142.2 55.3 L 147.4 51.2 L 151.43403387069702 47.50928812026977 L 150.2 46.6 L 146.0 43.8 L 141.7 41.0 L 137.1 38.2 L 132.2 35.2 L 132.8 33.6 L 138.5 34.8 L 143.8 36.3 L 148.9 38.0 L 153.8 40.0 L 157.09221439361573 41.57453737258911 L 160.5 37.4 L 164.2 32.2 L 167.5 26.7 L 168.05932207107543 25.6 L 129.4 25.6 L 124.4 28.6 L 121.85306119918823 29.661224460601808 L 120.2 32.6 L 116.4 38.6 L 112.44213838577271 43.782914066314696 L 113.5 44.4 L 116.8 46.6 L 119.8 49.1 L 122.6 51.8 L 123.8 56.2 L 121.6 60.2 L 117.2 61.4 L 113.1 59.2 L 111.6 56.8 L 109.7 54.5 L 107.4 52.1 L 106.06153173446656 50.86449089050293 L 103.1 53.7 L 98.1 57.7 L 92.9 61.2 L 87.5 64.1 L 81.8 66.4 L 75.8 67.9 L 75.2 66.3 L 80.1 63.0 L 84.7 59.6 L 89.1 55.9 L 93.2 52.0 L 97.1 47.7 L 99.06781606674194 45.24022989273071 L 98.6 44.9 L 95.0 42.5 L 91.0 40.1 L 86.8 37.6 L 82.1 35.2 L 82.7 33.5 L 87.9 34.6 L 92.9 35.7 L 97.5 37.0 L 101.9 38.6 L 103.38474826812744 39.2518406867981 L 104.1 38.2 L 107.3 32.9 L 110.2 27.2 L 110.9344262123108 25.6 L 78.1 25.6 L 78.1 21.6 L 112.4 21.6 L 118.4 16.6 L 129.0 25.272727298736573 L 129.0 21.6 L 169.8 21.6 L 170.30882349014283 21.175980377197266 L 170.5 20.8 L 170.6591223716736 20.88406467437744 L 175.8 16.6 L 186.8 25.6 L 181.8 28.6 L 179.0213903427124 29.757754039764404 L 177.2 32.7 L 172.8 38.5 L 168.1 43.9 L 165.67355518341066 46.27886753082275 L 167.0 47.1 L 170.9 49.7 L 174.6 52.6 L 178.1 55.6 L 179.7 59.9 L 177.9 64.1 L 175.20390768051146 65.10319719314575 L 186.2 74.1 L 181.2 77.1 L 178.96997165679932 78.0291784286499 L 177.4 81.4 L 173.1 88.2 L 167.9 94.2 L 162.1048632621765 99.33012104034424 L 164.6 100.7 L 170.1 103.1 L 176.2 105.1 L 182.8 106.8 L 191.1 109.0 L 179.4 119.5 L 172.0 116.9 Z M 34.1 19.9 L 57.1 19.9 L 63.1 14.9 L 74.1 23.9 L 69.1 27.9 L 69.1 102.9 L 68.9 105.5 L 68.5 108.0 L 67.7 110.4 L 66.4 112.7 L 64.8 114.7 L 62.8 116.3 L 60.5 117.5 L 58.1 118.4 L 55.6 118.8 L 53.1 118.9 L 53.1 112.9 L 37.1 109.9 L 37.1 106.9 L 54.3 106.9 L 55.2 106.7 L 55.8 106.5 L 56.1 106.3 L 56.3 106.2 L 56.5 106.0 L 56.8 105.1 L 57.0 104.2 L 57.1 102.9 L 57.1 74.9 L 34.1 74.9 L 34.1 76.4 L 33.6 82.8 L 32.8 88.8 L 31.6 94.3 L 30.2 99.3 L 28.4 103.8 L 26.3 107.8 L 23.8 111.3 L 21.0 114.2 L 17.8 116.3 L 14.5 117.8 L 13.6 116.2 L 15.6 113.8 L 17.2 111.0 L 18.6 108.1 L 19.7 104.8 L 20.7 101.2 L 21.4 97.1 L 21.9 92.6 L 22.2 87.7 L 22.3 82.3 L 22.1 76.4 L 22.1 13.9 Z M 109.2 103.8 L 107.53333330154419 102.26666669845581 L 106.1 103.7 L 100.9 107.8 L 95.2 111.2 L 89.1 113.7 L 82.6 115.5 L 75.7 116.4 L 75.3 114.6 L 81.4 111.9 L 86.9 108.9 L 91.8 105.6 L 96.2 101.9 L 100.0 97.8 L 100.93034830093384 96.56865673065185 L 98.0 94.3 L 94.6 91.9 L 91.1 89.4 L 87.3 86.7 L 83.3 84.2 L 84.0 82.5 L 88.7 83.9 L 93.2 85.2 L 97.4 86.6 L 101.5 88.2 L 105.3 89.9 L 105.35615510940552 89.92731876373291 L 106.3 88.3 L 108.9 82.9 L 110.9 76.9 L 111.71076927185058 73.8 L 78.1 73.8 L 78.1 69.8 L 112.4 69.8 L 118.4 64.8 L 129.4 73.8 L 124.4 76.8 L 122.79108781814575 77.47038011550903 L 121.7 80.7 L 118.6 87.4 L 114.9 93.5 L 114.09707012176514 94.57710103988647 L 115.7 95.5 L 118.8 97.6 L 121.7 99.7 L 123.5 103.9 L 121.9 108.2 L 117.7 110.0 L 113.4 108.4 L 111.4 106.1 Z M 138.00188674926758 74.1 L 140.4 78.2 L 143.5 83.0 L 147.0 87.4 L 150.7 91.3 L 153.9765124320984 94.03042707443237 L 155.8 92.5 L 160.4 87.5 L 164.3 82.1 L 167.2 76.4 L 168.05322580337526 74.1 Z M 34.1 48.8 L 34.1 70.9 L 57.1 70.9 L 57.1 48.8 Z M 34.1 23.9 L 34.1 44.8 L 57.1 44.8 L 57.1 23.9 Z " />
</g>
</svg>
