<svg xmlns="http://www.w3.org/2000/svg" xmlns:xlink="http://www.w3.org/1999/xlink" version="1.1" baseProfile="full" viewBox="0 0 200 200" width="200" height="200">
<g fill="black">
<path d="M 145.2 178.7 L 165.2 178.7 L 166.5 178.6 L 167.4 178.5 L 168.0 178.3 L 168.3 178.1 L 168.6 177.8 L 168.8 177.4 L 169.0 176.8 L 169.2 175.9 L 169.2 14.2 L 181.2 16.2 L 184.2 18.2 L 181.2 20.0 L 181.2 174.7 L 181.1 177.2 L 180.7 179.7 L 179.8 182.1 L 178.6 184.4 L 177.0 186.4 L 175.0 188.1 L 172.7 189.3 L 170.3 190.1 L 167.8 190.5 L 165.2 190.7 L 165.2 184.7 L 145.2 181.7 Z M 113.5 102.6 L 115.8 105.4 L 112.16134157180787 106.29370555877685 L 108.1 117.5 L 101.7 131.1 L 94.5 143.4 L 86.3 154.2 L 77.2 163.7 L 67.2 171.8 L 56.4 178.3 L 44.7 183.4 L 32.3 186.9 L 19.1 188.8 L 18.8 187.1 L 31.2 183.3 L 42.6 178.5 L 53.1 172.6 L 62.6 165.7 L 71.3 157.7 L 79.0 148.4 L 86.0 138.0 L 92.1 126.3 L 97.5 113.4 L 102.0 99.2 L 102.00705089569092 99.20208463668823 L 102.5 97.6 Z M 141.8 31.4 L 144.8 33.4 L 141.8 35.2 L 141.8 151.2 L 129.8 157.2 L 129.8 29.4 Z M 42.1 136.0 L 58.1 136.0 L 59.3 135.9 L 60.2 135.7 L 61.1 135.4 L 61.5 135.0 L 61.7 134.7 L 61.8 134.1 L 62.0 133.2 L 62.1 132.0 L 62.1 80.0 L 13.1 80.0 L 13.1 76.0 L 31.9 76.0 L 31.9 29.0 L 43.9 31.0 L 46.9 33.0 L 43.9 34.8 L 43.9 76.0 L 62.1 76.0 L 62.1 13.0 L 74.1 15.0 L 77.1 17.0 L 74.1 18.8 L 74.1 42.0 L 89.81818180084228 42.0 L 98.0 33.0 L 108.0 42.0 L 108.0 46.0 L 74.1 46.0 L 74.1 76.0 L 97.8 76.0 L 107.8 66.0 L 119.8 76.0 L 119.8 80.0 L 74.1 80.0 L 77.1 82.0 L 74.1 83.8 L 74.1 132.0 L 73.9 134.5 L 73.5 137.0 L 72.7 139.4 L 71.5 141.7 L 69.8 143.7 L 67.8 145.3 L 65.5 146.6 L 63.1 147.4 L 60.6 147.8 L 58.1 148.0 L 58.1 142.0 L 42.1 139.0 Z M 50.0 95.4 L 52.4 98.1 L 48.72847681045532 99.21456956863403 L 48.0 101.4 L 45.6 107.2 L 43.0 112.9 L 40.0 118.4 L 36.7 123.8 L 33.0 129.0 L 29.1 134.0 L 24.8 138.8 L 20.1 143.3 L 15.0 147.6 L 13.7 146.3 L 17.2 140.9 L 20.6 135.5 L 23.7 130.2 L 26.6 124.9 L 29.3 119.6 L 31.6 114.3 L 33.8 108.9 L 35.6 103.4 L 37.1 97.9 L 38.4 92.4 L 38.45553560256958 92.41436262130738 L 38.9 90.7 Z " />
</g>
</svg>
