<svg xmlns="http://www.w3.org/2000/svg" xmlns:xlink="http://www.w3.org/1999/xlink" version="1.1" baseProfile="full" viewBox="0 0 200 200" width="200" height="200">
<g fill="black">
<path d="M 146.2 176.0 L 166.2 176.0 L 167.5 175.9 L 168.4 175.7 L 169.3 175.4 L 169.5 175.2 L 169.6 175.0 L 169.8 174.7 L 170.0 174.1 L 170.2 173.2 L 170.2 14.0 L 182.2 16.0 L 185.2 18.0 L 182.2 19.8 L 182.2 172.0 L 182.1 174.5 L 181.7 177.0 L 180.8 179.4 L 179.6 181.7 L 178.0 183.7 L 176.0 185.3 L 173.7 186.6 L 171.3 187.4 L 168.8 187.8 L 166.2 188.0 L 166.2 182.0 L 146.2 179.0 Z M 74.0 70.0 L 77.0 72.0 L 74.0 73.8 L 74.0 98.0 L 96.0 98.0 L 106.0 88.0 L 118.0 98.0 L 118.0 102.0 L 74.0 102.0 L 74.0 131.0 L 100.0 131.0 L 106.0 126.0 L 117.0 135.0 L 112.0 139.0 L 112.0 179.0 L 100.0 185.0 L 100.0 175.0 L 35.0 175.0 L 35.0 182.0 L 23.0 188.0 L 23.0 125.0 L 35.0 131.0 L 62.0 131.0 L 62.0 102.0 L 17.0 102.0 L 17.0 98.0 L 62.0 98.0 L 62.0 68.0 Z M 35.0 171.0 L 100.0 171.0 L 100.0 135.0 L 35.0 135.0 Z M 142.8 31.0 L 145.8 33.0 L 142.8 34.8 L 142.8 149.0 L 130.8 155.0 L 130.8 29.0 Z M 32.7 78.3 L 20.7 84.3 L 20.7 16.9 L 32.7 22.9 L 104.2 22.9 L 110.2 17.9 L 121.2 26.9 L 116.2 30.9 L 116.2 72.3 L 104.2 78.3 L 104.2 66.3 L 32.7 66.3 Z M 32.7 26.9 L 32.7 62.3 L 48.5 62.3 L 48.5 26.9 Z M 60.5 26.9 L 60.5 62.3 L 76.4 62.3 L 76.4 26.9 Z M 88.4 26.9 L 88.4 62.3 L 104.2 62.3 L 104.2 26.9 Z " />
</g>
</svg>
