<svg xmlns="http://www.w3.org/2000/svg" xmlns:xlink="http://www.w3.org/1999/xlink" version="1.1" baseProfile="full" viewBox="0 0 200 200" width="200" height="200">
<g fill="black">
<path d="M 144.5 176.0 L 164.5 176.0 L 165.8 175.9 L 166.7 175.7 L 167.6 175.4 L 167.8 175.2 L 167.9 175.0 L 168.1 174.7 L 168.3 174.1 L 168.5 173.2 L 168.5 14.0 L 180.5 16.0 L 183.5 18.0 L 180.5 19.8 L 180.5 172.0 L 180.4 174.5 L 180.0 177.0 L 179.2 179.4 L 177.9 181.7 L 176.3 183.7 L 174.3 185.3 L 172.0 186.6 L 169.6 187.4 L 167.1 187.8 L 164.5 188.0 L 164.5 182.0 L 144.5 179.0 Z M 103.7 170.9 L 98.3 166.6 L 93.2 161.9 L 88.4 157.1 L 83.9 151.9 L 79.7 146.5 L 75.8 140.8 L 72.3 134.7 L 72.3 181.0 L 60.3 187.0 L 60.3 141.26666669845582 L 59.1 143.0 L 54.3 149.1 L 49.0 154.8 L 43.5 160.2 L 37.5 165.2 L 31.3 169.8 L 24.6 174.0 L 17.6 177.6 L 10.2 180.7 L 9.3 179.2 L 15.6 174.4 L 21.6 169.5 L 27.2 164.6 L 32.5 159.5 L 37.5 154.2 L 42.1 148.7 L 46.3 142.9 L 50.2 136.9 L 53.8 130.7 L 57.1 124.2 L 60.3 125.86037731170654 L 60.3 122.0 L 32.0 122.0 L 32.0 134.0 L 20.0 140.0 L 20.0 68.0 L 26.185185146331786 69.03086423873901 L 29.2 68.3 L 32.3 67.0 L 35.2 65.8 L 37.9 64.7 L 40.4 63.5 L 42.6 62.3 L 44.6 61.1 L 46.4 59.8 L 48.0 58.6 L 48.60416469573975 58.04230947494507 L 48.5 57.9 L 48.620277118682864 58.02743644714356 L 49.3 57.4 L 51.70851068496704 61.299493408203126 L 56.9 66.8 L 57.1 70.2 L 53.11741743087769 68.52312316894532 L 50.7 69.2 L 48.0 69.8 L 45.3 70.3 L 42.4 70.7 L 39.4 70.9 L 36.3 71.0 L 33.5 71.0 L 35.0 72.0 L 32.0 73.8 L 32.0 92.0 L 43.6777777671814 92.0 L 49.9 85.0 L 57.9 92.0 L 57.9 96.0 L 32.0 96.0 L 32.0 118.0 L 60.3 118.0 L 60.3 45.0 L 13.0 45.0 L 13.0 41.0 L 60.3 41.0 L 60.3 14.0 L 72.3 16.0 L 75.3 18.0 L 72.3 19.8 L 72.3 41.0 L 98.9 41.0 L 108.9 31.0 L 120.9 41.0 L 120.9 45.0 L 72.3 45.0 L 72.3 118.0 L 101.3 118.0 L 101.3 96.0 L 78.0 96.0 L 78.0 92.0 L 101.3 92.0 L 101.3 72.0 L 77.4 72.0 L 77.4 68.0 L 101.3 68.0 L 107.3 63.0 L 118.3 72.0 L 113.3 76.0 L 113.3 128.0 L 101.3 134.0 L 101.3 122.0 L 72.3 122.0 L 72.3 128.8306122779846 L 75.7 132.3 L 80.4 137.1 L 85.1 141.7 L 89.9 146.1 L 94.8 150.3 L 99.8 154.1 L 105.0 157.8 L 110.3 161.2 L 115.8 164.3 L 121.5 167.2 L 126.4 169.8 L 115.1 178.7 L 109.3 175.0 Z M 144.4 31.0 L 147.4 33.0 L 144.4 34.8 L 144.4 149.0 L 132.4 155.0 L 132.4 29.0 Z " />
</g>
</svg>
