<svg xmlns="http://www.w3.org/2000/svg" xmlns:xlink="http://www.w3.org/1999/xlink" version="1.1" baseProfile="full" viewBox="0 0 200 200" width="200" height="200">
<g fill="black">
<path d="M 145.4 176.0 L 165.4 176.0 L 166.6 175.9 L 167.5 175.7 L 168.4 175.4 L 168.8 175.0 L 169.0 174.7 L 169.1 174.1 L 169.3 173.2 L 169.4 172.0 L 169.4 14.0 L 181.4 16.0 L 184.4 18.0 L 181.4 19.8 L 181.4 172.0 L 181.2 174.5 L 180.8 177.0 L 180.0 179.4 L 178.8 181.7 L 177.1 183.7 L 175.1 185.3 L 172.8 186.6 L 170.4 187.4 L 167.9 187.8 L 165.4 188.0 L 165.4 182.0 L 145.4 179.0 Z M 84.5 182.4 L 82.7 183.9 L 80.7 185.3 L 78.6 186.4 L 76.4 187.3 L 74.1 188.0 L 71.8 188.6 L 69.4 188.9 L 67.0 189.0 L 67.0 183.0 L 49.0 180.0 L 49.0 177.0 L 67.0 177.0 L 68.4 176.9 L 69.8 176.7 L 71.1 176.4 L 72.3 176.1 L 73.4 175.6 L 74.5 175.0 L 75.5 174.3 L 76.6 173.5 L 77.5 172.5 L 78.5 171.4 L 80.6 168.3 L 82.7 164.1 L 84.6 158.9 L 86.3 152.6 L 87.9 145.4 L 89.2 137.2 L 90.2 128.0 L 91.1 117.9 L 91.6 106.9 L 91.93000001907349 97.0 L 56.00375938415527 97.0 L 53.5 111.8 L 40.7 115.7 L 54.560692977905276 34.0 L 13.0 34.0 L 13.0 30.0 L 100.0 30.0 L 110.0 20.0 L 122.0 30.0 L 122.0 34.0 L 66.66165409088134 34.0 L 56.68045110702515 93.0 L 92.0 93.0 L 98.0 88.0 L 109.0 97.0 L 104.0 100.0 L 103.77576999664306 100.09342918395996 L 103.6 107.3 L 103.0 118.7 L 102.2 129.2 L 101.1 138.8 L 99.7 147.6 L 98.0 155.5 L 96.0 162.5 L 93.7 168.8 L 91.0 174.2 L 87.9 178.9 L 86.3 180.7 Z M 146.4 31.0 L 149.4 33.0 L 146.4 34.8 L 146.4 149.0 L 134.4 155.0 L 134.4 29.0 Z M 16.5 81.6 L 13.7 77.9 L 14.2 73.4 L 16.0 71.1 L 17.9 68.8 L 19.9 66.4 L 22.1 63.9 L 24.5 61.3 L 27.0 58.6 L 29.6 55.9 L 32.5 53.1 L 35.6 50.3 L 38.6 47.2 L 40.0 48.3 L 37.9 52.0 L 36.0 55.7 L 34.2 59.2 L 32.5 62.6 L 30.9 65.7 L 29.4 68.7 L 28.0 71.6 L 26.7 74.3 L 25.6 76.9 L 24.6 79.3 L 21.0 82.1 Z M 96.3 69.7 L 95.0 67.4 L 93.4 65.1 L 91.6 62.8 L 89.5 60.5 L 87.1 58.2 L 84.5 55.8 L 81.7 53.3 L 78.5 51.2 L 79.2 49.6 L 83.0 50.9 L 86.7 52.1 L 90.2 53.6 L 93.5 55.2 L 96.6 57.0 L 99.4 58.9 L 102.1 61.0 L 104.6 63.3 L 106.8 65.8 L 108.8 68.5 L 109.2 73.0 L 106.4 76.6 L 101.8 77.0 L 98.2 74.1 L 97.4 71.9 Z " />
</g>
</svg>
