<svg xmlns="http://www.w3.org/2000/svg" xmlns:xlink="http://www.w3.org/1999/xlink" version="1.1" baseProfile="full" viewBox="0 0 200 200" width="200" height="200">
<g fill="black">
<path d="M 139.4 176.0 L 159.4 176.0 L 160.7 175.9 L 161.6 175.7 L 162.5 175.4 L 162.7 175.2 L 162.8 175.0 L 163.0 174.7 L 163.2 174.1 L 163.4 173.2 L 163.4 14.0 L 175.4 16.0 L 178.4 18.0 L 175.4 19.8 L 175.4 172.0 L 175.3 174.5 L 174.8 177.0 L 174.0 179.4 L 172.8 181.7 L 171.2 183.7 L 169.2 185.3 L 166.9 186.6 L 164.5 187.4 L 162.0 187.8 L 159.4 188.0 L 159.4 182.0 L 139.4 179.0 Z M 80.6 179.8 L 78.7 181.3 L 76.7 182.5 L 74.6 183.6 L 72.4 184.4 L 70.1 185.1 L 67.8 185.6 L 65.4 185.9 L 63.0 186.0 L 63.0 180.0 L 45.0 177.0 L 45.0 174.0 L 63.0 174.0 L 64.5 173.9 L 65.9 173.7 L 67.2 173.5 L 68.5 173.1 L 69.7 172.6 L 70.8 172.0 L 71.9 171.3 L 73.0 170.5 L 74.1 169.6 L 75.1 168.5 L 76.6 166.6 L 77.9 164.2 L 79.3 161.0 L 80.4 157.3 L 81.5 152.9 L 82.4 147.9 L 83.1 142.3 L 83.5 136.1 L 83.8 129.3 L 83.9452054977417 124.0 L 41.72173910140991 124.0 L 40.4 132.0 L 27.5 135.9 L 35.56332664489746 88.0 L 14.0 88.0 L 14.0 84.0 L 63.49245281219483 84.0 L 64.4 80.3 L 65.7 75.2 L 66.9 70.4 L 68.1 65.7 L 69.2 61.1 L 70.2 56.7 L 71.0 52.5 L 71.8 48.4 L 72.4 44.5 L 72.77715177536011 41.709076690673825 L 72.7 41.7 L 73.2 38.9 L 84.6 43.1 L 87.2 45.7 L 83.53701658248902 46.96539430618286 L 83.5 47.1 L 82.1 51.1 L 80.6 55.2 L 78.9 59.5 L 77.1 63.8 L 75.1 68.2 L 72.9 72.6 L 70.4 77.1 L 67.7 81.7 L 66.25 84.0 L 85.0 84.0 L 95.0 74.0 L 107.0 84.0 L 107.0 88.0 L 47.669565200805664 88.0 L 42.38260869979858 120.0 L 84.0 120.0 L 90.0 115.0 L 101.0 124.0 L 96.0 127.0 L 95.8669623374939 127.05543241500854 L 95.8 129.6 L 95.5 136.8 L 95.0 143.5 L 94.2 149.6 L 93.2 155.3 L 92.0 160.5 L 90.5 165.2 L 88.7 169.4 L 86.6 173.2 L 84.1 176.5 L 82.4 178.2 Z M 132.0 31.0 L 135.0 33.0 L 132.0 34.8 L 132.0 149.0 L 120.0 155.0 L 120.0 29.0 Z M 38.8 63.5 L 38.4 60.9 L 37.9 58.4 L 37.3 55.8 L 36.6 53.1 L 35.0 47.7 L 34.1 44.9 L 32.8 42.3 L 34.3 41.3 L 36.2 43.5 L 38.4 45.6 L 40.4 47.9 L 42.3 50.2 L 44.1 52.6 L 45.7 55.1 L 47.2 57.6 L 48.6 60.2 L 49.9 62.9 L 51.0 65.6 L 50.3 70.1 L 46.7 72.9 L 42.2 72.1 L 39.4 68.5 L 39.2 66.0 Z M 103.0 32.0 L 103.0 36.0 L 17.0 36.0 L 17.0 32.0 L 81.0 32.0 L 91.0 22.0 Z M 52.9 20.0 L 52.3 17.4 L 51.8 16.1 L 51.2 14.7 L 50.5 13.4 L 49.7 12.0 L 48.4 11.2 L 49.2 9.6 L 50.7 10.3 L 52.5 10.6 L 54.3 11.1 L 55.9 11.9 L 57.6 12.8 L 59.1 13.9 L 60.6 15.2 L 62.0 16.7 L 63.4 18.3 L 64.6 20.1 L 64.3 24.6 L 61.0 27.8 L 56.4 27.5 L 53.3 24.2 L 53.1 21.4 Z " />
</g>
</svg>
