<svg xmlns="http://www.w3.org/2000/svg" xmlns:xlink="http://www.w3.org/1999/xlink" version="1.1" baseProfile="full" viewBox="0 0 200 200" width="200" height="200">
<g fill="black">
<path d="M 142.7 178.7 L 162.7 178.7 L 164.0 178.6 L 164.9 178.5 L 165.5 178.3 L 165.8 178.1 L 166.1 177.8 L 166.3 177.4 L 166.5 176.8 L 166.7 175.9 L 166.7 14.2 L 178.7 16.2 L 181.7 18.2 L 178.7 20.0 L 178.7 174.7 L 178.6 177.2 L 178.1 179.7 L 177.3 182.1 L 176.1 184.4 L 174.5 186.4 L 172.5 188.1 L 170.2 189.3 L 167.8 190.1 L 165.3 190.5 L 162.7 190.7 L 162.7 184.7 L 142.7 181.7 Z M 97.6 131.5 L 95.0 128.7 L 92.1 126.0 L 89.0 123.4 L 85.6 120.9 L 81.9 118.4 L 77.9 115.9 L 73.6 113.5 L 72.0 112.64666662216186 L 72.0 183.0 L 60.0 189.0 L 60.0 108.88604650497436 L 59.8 109.3 L 55.3 117.9 L 50.5 126.1 L 45.5 133.9 L 40.1 141.3 L 34.6 148.4 L 28.7 155.0 L 22.5 161.0 L 15.9 166.6 L 14.6 165.3 L 19.7 158.5 L 24.5 151.6 L 29.3 144.5 L 33.9 137.1 L 38.2 129.5 L 42.4 121.6 L 46.3 113.4 L 50.1 104.8 L 53.6 96.0 L 55.38571424484253 91.0 L 15.3 91.0 L 15.3 87.0 L 60.0 87.0 L 60.0 37.41999998092651 L 56.1 38.2 L 46.7 39.6 L 37.0 40.8 L 26.9 41.5 L 16.6 41.8 L 16.4 40.1 L 26.4 37.8 L 36.1 35.5 L 45.4 33.2 L 54.4 30.8 L 63.0 28.2 L 71.2 25.5 L 79.0 22.6 L 86.5 19.6 L 93.6 16.4 L 99.42563591003417 13.443707180023193 L 99.4 13.4 L 99.43928728103637 13.436779594421386 L 100.3 13.0 L 101.38923959732055 15.262266826629638 L 108.8 22.2 L 109.0 25.5 L 105.21839323043824 23.91416492462158 L 98.1 26.8 L 90.3 29.6 L 82.2 32.1 L 73.8 34.4 L 72.0 34.813793087005614 L 72.0 87.0 L 94.8 87.0 L 104.8 77.0 L 116.8 87.0 L 116.8 91.0 L 72.0 91.0 L 72.0 109.81538457870484 L 74.8 110.3 L 79.8 111.3 L 84.5 112.8 L 89.1 114.5 L 93.4 116.5 L 97.4 118.7 L 101.3 121.1 L 104.9 123.8 L 108.2 126.7 L 111.4 129.9 L 112.6 134.3 L 110.4 138.3 L 106.0 139.5 L 101.9 137.3 L 99.9 134.4 Z M 140.0 31.4 L 143.0 33.4 L 140.0 35.2 L 140.0 151.2 L 128.0 157.2 L 128.0 29.4 Z M 110.0 43.4 L 111.8 46.5 L 107.97625484466553 46.89555988311768 L 107.8 47.2 L 105.5 51.0 L 103.0 54.8 L 100.5 58.7 L 97.8 62.5 L 95.0 66.4 L 92.1 70.2 L 89.0 74.0 L 85.6 77.7 L 82.1 81.5 L 80.6 80.4 L 82.7 75.8 L 84.7 71.3 L 86.7 66.9 L 88.7 62.6 L 90.6 58.3 L 92.5 54.2 L 94.3 50.1 L 96.0 46.1 L 97.6 42.2 L 98.74711141586303 39.21751041412354 L 98.7 39.2 L 98.98000001907349 38.61199998855591 L 99.1 38.3 L 99.1233654975891 38.31093244552612 L 99.7 37.1 Z M 34.8 71.1 L 34.0 68.3 L 32.9 65.5 L 31.6 62.6 L 30.0 59.7 L 28.2 56.6 L 26.2 53.5 L 24.0 50.3 L 21.4 47.3 L 22.5 45.9 L 26.0 48.2 L 29.4 50.5 L 32.5 52.9 L 35.3 55.5 L 38.0 58.2 L 40.4 61.0 L 42.5 63.9 L 44.4 67.0 L 46.1 70.2 L 47.5 73.5 L 46.8 78.0 L 43.2 80.9 L 38.7 80.2 L 35.9 76.6 L 35.4 73.9 Z " />
</g>
</svg>
