<svg xmlns="http://www.w3.org/2000/svg" xmlns:xlink="http://www.w3.org/1999/xlink" version="1.1" baseProfile="full" viewBox="0 0 200 200" width="200" height="200">
<g fill="black">
<path d="M 139.7 176.6 L 159.7 176.6 L 160.9 176.5 L 161.8 176.3 L 162.4 176.2 L 162.7 176.0 L 163.1 175.6 L 163.4 174.7 L 163.6 173.8 L 163.7 172.6 L 163.7 113.1 L 175.7 115.1 L 178.7 117.1 L 175.7 118.9 L 175.7 172.6 L 175.5 175.1 L 175.1 177.6 L 174.3 180.0 L 173.1 182.3 L 171.4 184.3 L 169.4 186.0 L 167.1 187.2 L 164.7 188.0 L 162.2 188.4 L 159.7 188.6 L 159.7 182.6 L 139.7 179.6 Z M 75.6 176.2 L 91.6 176.2 L 92.8 176.1 L 93.7 176.0 L 94.3 175.8 L 94.6 175.6 L 94.8 175.4 L 95.0 175.3 L 95.2 174.9 L 95.3 174.3 L 95.5 173.4 L 95.6 172.2 L 95.6 125.2 L 67.84545450210571 125.2 L 66.8 127.7 L 65.62307691574097 129.6615385055542 L 67.4 130.2 L 70.8 130.8 L 74.0 131.7 L 77.0 132.7 L 80.0 133.8 L 82.7 135.1 L 85.4 136.5 L 88.0 138.1 L 90.4 139.7 L 92.6 141.5 L 94.1 145.8 L 92.2 150.0 L 87.8 151.4 L 83.7 149.5 L 82.5 147.7 L 81.1 145.8 L 79.6 144.0 L 77.8 142.1 L 75.9 140.2 L 73.8 138.3 L 71.5 136.4 L 69.0 134.5 L 66.4 132.5 L 64.52121210098267 131.49797983169555 L 63.8 132.7 L 60.3 137.2 L 56.1 141.1 L 51.4 144.4 L 46.0 147.0 L 40.0 149.0 L 33.4 150.3 L 32.9 148.5 L 38.6 145.5 L 43.4 142.3 L 47.5 139.0 L 50.9 135.6 L 53.6 131.9 L 55.8 128.0 L 56.93333330154419 125.2 L 32.3 125.2 L 32.3 181.7 L 20.3 187.7 L 20.3 115.2 L 32.3 121.2 L 58.23478260040283 121.2 L 58.8 119.2 L 59.7 114.2 L 60.10907030105591 109.70022678375244 L 60.1 109.7 L 60.4 106.6 L 72.1 110.0 L 74.9 112.3 L 71.27229595184326 114.01118116378784 L 70.8 116.3 L 69.38813562393189 121.2 L 95.6 121.2 L 101.6 116.2 L 112.6 125.2 L 107.6 129.2 L 107.6 172.2 L 107.4 174.8 L 107.0 177.2 L 106.2 179.7 L 105.0 181.9 L 103.3 183.9 L 101.3 185.6 L 99.0 186.8 L 96.6 187.6 L 94.1 188.1 L 91.6 188.2 L 91.6 182.2 L 75.6 179.2 Z M 80.9 169.0 L 79.2 167.2 L 77.4 165.4 L 75.5 163.7 L 73.4 161.9 L 71.2 160.2 L 68.8 158.5 L 66.3 156.8 L 65.79993047714234 156.56782484054565 L 64.6 158.0 L 61.2 161.3 L 57.4 164.2 L 53.3 166.8 L 48.8 169.0 L 44.0 170.8 L 38.8 172.2 L 33.4 173.2 L 32.9 171.5 L 37.6 169.0 L 41.8 166.3 L 45.7 163.6 L 49.1 160.9 L 52.1 158.0 L 54.7 155.0 L 56.9 151.8 L 58.7 148.6 L 60.2 145.2 L 61.083303451538086 142.62369842529296 L 61.0 142.6 L 61.9 140.3 L 72.6 145.9 L 74.7 148.8 L 70.7236759185791 149.5673607826233 L 70.4 150.2 L 67.7 154.3 L 67.56727828979493 154.45840978622437 L 70.3 154.8 L 73.4 155.4 L 76.3 156.2 L 79.2 157.2 L 82.0 158.3 L 84.7 159.6 L 87.4 161.0 L 89.9 162.6 L 92.3 164.4 L 94.0 168.6 L 92.3 172.8 L 88.0 174.5 L 83.8 172.8 L 82.4 170.9 Z M 139.5 121.3 L 142.5 123.3 L 139.5 125.1 L 139.5 167.3 L 127.5 173.3 L 127.5 119.3 Z M 77.2 98.3 L 83.1 97.4 L 89.0 96.6 L 90.1 96.44827585220337 L 90.1 87.36999998092651 L 89.8 87.5 L 83.5 90.0 L 77.1 92.3 L 70.5 94.4 L 63.6 96.2 L 62.9 94.5 L 69.0 90.9 L 74.9 87.4 L 80.7 84.1 L 86.3 80.8 L 91.8 77.4 L 97.0 74.1 L 102.1 70.7 L 107.0 67.2 L 107.12857141494752 67.1 L 95.1 67.1 L 83.1 73.1 L 83.1 53.9 L 63.2 53.9 L 63.2 49.9 L 83.1 49.9 L 83.1 31.2 L 95.1 37.2 L 144.2 37.2 L 150.2 32.2 L 161.2 41.2 L 156.2 45.2 L 156.2 49.9 L 159.01818180084229 49.9 L 167.2 40.9 L 177.2 49.9 L 177.2 53.9 L 156.2 53.9 L 156.2 67.1 L 144.2 73.1 L 144.2 67.1 L 127.59795913696288 67.1 L 123.1 70.0 L 118.0 73.2 L 112.7 76.3 L 107.3 79.3 L 102.1 81.85438594818115 L 102.1 94.79310340881348 L 106.4 94.2 L 112.1 93.4 L 117.7 92.7 L 123.4 92.1 L 129.0 91.6 L 134.7 91.3 L 135.1 93.0 L 129.9 95.3 L 124.6 97.3 L 119.2 99.1 L 113.7 100.8 L 108.1 102.5 L 102.5 104.1 L 91.1 107.1 L 85.3 108.6 L 83.50316638946533 109.05682210922241 L 82.0 112.6 L 79.4 110.1 L 75.2 98.6 Z M 60.4 23.8 L 61.9 27.1 L 58.0787654876709 26.97046661376953 L 56.3 29.4 L 52.0 34.9 L 47.5 40.2 L 42.8 45.5 L 38.630085945129395 49.75501432418823 L 43.1 50.5 L 46.1 52.5 L 43.1 54.3 L 43.1 104.7 L 31.1 110.7 L 31.1 56.91111106872559 L 27.4 60.2 L 21.9 64.7 L 16.0 68.9 L 9.9 72.9 L 8.7 71.5 L 13.5 66.1 L 18.2 60.8 L 22.8 55.5 L 27.3 50.2 L 31.6 44.9 L 35.7 39.5 L 39.6 34.0 L 43.4 28.5 L 46.9 22.9 L 49.810769653320314 18.10579118728638 L 49.8 18.1 L 50.8 16.5 Z M 151.7 102.5 L 148.5 100.0 L 145.2 97.5 L 141.5 94.9 L 137.7 92.2 L 133.6 89.3 L 129.3 86.3 L 124.8 83.0 L 120.1 79.6 L 120.9 78.0 L 126.4 79.9 L 131.7 81.8 L 136.6 83.7 L 139.33367347717285 84.86326532363891 L 141.2 83.9 L 143.9 82.0 L 146.6 80.2 L 149.0 78.5 L 151.4 76.9 L 153.5 75.4 L 155.5 73.9 L 157.3 72.5 L 159.0 71.2 L 159.71979866027831 70.57617444992066 L 159.6 70.4 L 159.75 70.55 L 160.5 69.9 L 162.29565219879152 73.0956521987915 L 168.4 79.2 L 168.5 82.6 L 164.54367694854736 80.99064826965332 L 164.2 81.1 L 162.0 81.7 L 159.6 82.4 L 157.1 83.1 L 154.4 83.8 L 151.6 84.4 L 148.6 85.1 L 145.4 85.7 L 142.325 86.16590909957885 L 145.7 87.7 L 149.9 89.7 L 153.8 91.6 L 157.5 93.5 L 160.9 95.4 L 164.1 97.2 L 166.5 101.1 L 165.5 105.6 L 161.7 107.9 L 157.2 107.0 L 154.6 104.8 Z M 95.1 53.9 L 95.1 63.1 L 144.2 63.1 L 144.2 53.9 Z M 95.1 41.2 L 95.1 49.9 L 144.2 49.9 L 144.2 41.2 Z M 66.8 27.1 L 113.6 27.1 L 113.6 15.4 L 125.6 17.4 L 128.6 19.4 L 125.6 21.2 L 125.6 27.1 L 154.3181818008423 27.1 L 162.5 18.1 L 172.5 27.1 L 172.5 31.1 L 66.8 31.1 Z " />
</g>
</svg>
