<svg xmlns="http://www.w3.org/2000/svg" xmlns:xlink="http://www.w3.org/1999/xlink" version="1.1" baseProfile="full" viewBox="0 0 200 200" width="200" height="200">
<g fill="black">
<path d="M 43.3 177.0 L 59.3 177.0 L 60.6 176.9 L 61.5 176.7 L 62.4 176.4 L 62.6 176.2 L 62.7 176.0 L 62.9 175.7 L 63.1 175.1 L 63.3 174.2 L 63.3 54.0 L 15.4 54.0 L 15.4 50.0 L 63.3 50.0 L 63.3 13.0 L 75.3 15.0 L 78.3 17.0 L 75.3 18.8 L 75.3 50.0 L 105.2 50.0 L 115.2 40.0 L 127.2 50.0 L 127.2 54.0 L 75.3 54.0 L 75.3 173.0 L 75.2 175.5 L 74.8 178.0 L 74.0 180.4 L 72.7 182.7 L 71.1 184.7 L 69.1 186.3 L 66.8 187.6 L 64.4 188.4 L 61.9 188.8 L 59.3 189.0 L 59.3 183.0 L 43.3 180.0 Z M 146.4 173.9 L 166.4 173.9 L 167.6 173.8 L 168.5 173.6 L 169.4 173.3 L 169.8 172.9 L 170.0 172.6 L 170.2 172.0 L 170.3 171.1 L 170.4 169.9 L 170.4 20.2 L 182.4 22.2 L 185.4 24.2 L 182.4 26.0 L 182.4 169.9 L 182.2 172.4 L 181.8 174.9 L 181.0 177.3 L 179.8 179.6 L 178.1 181.6 L 176.1 183.2 L 173.8 184.5 L 171.4 185.3 L 168.9 185.7 L 166.4 185.9 L 166.4 179.9 L 146.4 176.9 Z M 104.4 152.0 L 101.8 148.6 L 98.9 145.1 L 95.8 141.6 L 92.5 138.1 L 89.0 134.5 L 85.3 130.9 L 81.4 127.1 L 77.4 123.3 L 78.4 121.7 L 83.6 124.1 L 88.4 126.6 L 93.1 129.4 L 97.4 132.3 L 101.5 135.4 L 105.4 138.5 L 109.1 141.7 L 112.5 145.1 L 115.8 148.5 L 118.8 152.0 L 119.7 156.5 L 117.3 160.4 L 112.9 161.4 L 109.0 159.0 L 106.8 155.5 Z M 20.2 150.6 L 23.5 148.4 L 27.0 146.0 L 30.5 143.5 L 34.1 140.9 L 37.8 138.2 L 45.6 132.4 L 49.7 129.4 L 54.0 126.4 L 58.4 123.3 L 59.7 124.6 L 56.5 129.0 L 53.3 133.2 L 50.0 137.1 L 46.7 140.8 L 43.4 144.4 L 40.2 147.8 L 33.8 154.2 L 30.661835765838624 157.1420289993286 L 31.0 161.2 L 27.6 160.1 L 18.6 151.8 Z M 146.0 36.5 L 149.0 38.5 L 146.0 40.3 L 146.0 148.4 L 134.0 154.4 L 134.0 34.5 Z M 117.9 76.9 L 118.6 80.4 L 115.01781768798828 79.5201657295227 L 113.5 80.9 L 109.1 84.7 L 104.9 88.3 L 100.8 91.7 L 96.8 95.0 L 92.9 98.0 L 89.0 100.8 L 85.2 103.4 L 81.4 105.7 L 77.6 107.6 L 76.5 106.3 L 79.0 102.8 L 81.7 99.4 L 84.6 96.0 L 87.7 92.4 L 91.0 88.8 L 94.4 85.0 L 97.9 81.1 L 101.6 77.0 L 105.4 72.8 L 108.69284524917603 69.17787017822266 L 108.6 69.1 L 109.6 68.1 Z M 43.0 96.3 L 41.3 93.5 L 39.3 90.7 L 37.1 87.8 L 34.7 84.8 L 32.2 81.8 L 29.4 78.7 L 26.6 75.4 L 23.4 72.3 L 24.4 70.8 L 28.4 73.0 L 32.3 75.1 L 36.0 77.4 L 39.5 79.7 L 42.7 82.1 L 45.8 84.6 L 48.6 87.2 L 51.3 89.8 L 53.8 92.5 L 56.1 95.2 L 56.8 99.7 L 54.3 103.5 L 49.8 104.2 L 46.0 101.7 L 44.6 99.0 Z M 95.5 32.9 L 94.5 30.6 L 91.9 26.0 L 90.4 23.7 L 88.7 21.5 L 86.9 19.3 L 85.0 17.1 L 82.6 15.2 L 83.5 13.7 L 86.3 14.9 L 89.3 16.0 L 92.1 17.4 L 94.8 19.0 L 97.3 20.8 L 99.8 22.8 L 102.1 25.0 L 104.2 27.4 L 106.3 29.9 L 108.1 32.6 L 108.3 37.2 L 105.3 40.7 L 100.8 40.9 L 97.3 37.9 L 96.5 35.4 Z " />
</g>
</svg>
