<svg xmlns="http://www.w3.org/2000/svg" xmlns:xlink="http://www.w3.org/1999/xlink" version="1.1" baseProfile="full" viewBox="0 0 200 200" width="200" height="200">
<g fill="black">
<path d="M 171.8 178.5 L 170.3 180.4 L 168.5 182.2 L 166.6 183.7 L 164.4 184.9 L 162.1 185.8 L 159.8 186.5 L 157.3 186.8 L 154.8 187.0 L 154.8 181.0 L 134.8 178.0 L 134.8 175.0 L 154.8 175.0 L 156.1 174.9 L 157.3 174.7 L 158.3 174.4 L 159.2 174.1 L 160.6 173.1 L 161.3 172.4 L 162.0 171.6 L 162.6 170.6 L 163.2 169.4 L 164.2 166.0 L 165.3 160.0 L 166.4 151.8 L 167.3 141.4 L 168.1 128.8 L 168.7 114.2 L 169.2 97.5 L 169.5 78.7 L 169.8 57.9 L 169.8 37.0 L 147.02920351028442 37.0 L 146.3 57.6 L 144.5 78.7 L 141.8 98.2 L 140.8114701271057 102.85649614334106 L 143.9 106.7 L 148.0 112.5 L 151.7 118.4 L 155.1 124.6 L 158.2 131.0 L 158.1 135.5 L 154.8 138.7 L 150.2 138.6 L 147.0 135.4 L 144.8 129.4 L 142.3 123.5 L 139.4 117.6 L 138.15307826995848 115.37892074584961 L 138.0 116.1 L 133.3 132.5 L 127.5 147.2 L 120.7 160.2 L 112.9 171.6 L 104.1 181.1 L 94.2 188.7 L 93.1 187.2 L 101.3 178.5 L 108.6 168.4 L 115.0 157.1 L 120.5 144.3 L 125.2 129.9 L 129.0 114.1 L 130.72712469100952 103.3671534538269 L 128.8 100.6 L 124.6 95.0 L 120.2 89.5 L 115.4 83.9 L 110.5 78.3 L 111.6 76.9 L 118.0 81.1 L 123.9 85.7 L 129.5 90.6 L 132.15694313049318 93.30904006958008 L 133.8 77.7 L 134.9 57.1 L 135.0819004058838 37.0 L 107.9 37.0 L 107.9 33.0 L 169.8 33.0 L 175.8 28.0 L 186.8 37.0 L 181.8 40.0 L 181.8 58.0 L 181.5 78.9 L 181.2 97.8 L 180.7 114.7 L 180.0 129.5 L 179.2 142.2 L 178.3 153.0 L 177.2 161.8 L 175.9 168.7 L 174.2 174.1 L 173.1 176.4 Z M 15.6 167.9 L 23.6 166.4 L 31.9 164.9 L 40.4 163.4 L 49.3 161.8 L 54.9 160.81538457870482 L 54.9 122.0 L 21.4 122.0 L 21.4 118.0 L 85.0 118.0 L 95.0 108.0 L 107.0 118.0 L 107.0 122.0 L 66.9 122.0 L 66.9 158.85789470672609 L 67.9 158.7 L 77.7 157.1 L 87.7 155.6 L 98.2 154.3 L 108.9 153.1 L 109.3 154.8 L 98.9 158.0 L 88.8 160.9 L 79.0 163.6 L 69.5 166.1 L 60.2 168.5 L 51.2 170.9 L 42.6 173.2 L 34.2 175.4 L 26.1 177.5 L 22.263934421539307 178.5327868461609 L 20.9 182.1 L 18.3 179.6 L 13.7 168.3 Z M 32.9 94.2 L 30.8 90.7 L 28.5 87.4 L 26.3 84.2 L 24.0 81.2 L 21.6 78.3 L 19.2 75.5 L 16.8 72.8 L 14.2 70.2 L 15.2 68.7 L 18.6 70.2 L 22.1 71.8 L 22.291836738586426 71.91284513473511 L 23.3 69.6 L 24.7 65.8 L 26.1 62.1 L 29.1 55.1 L 30.5 51.8 L 32.0 48.6 L 33.4 45.5 L 35.61549291610718 40.557746505737306 L 35.5 40.5 L 35.960204124450684 39.788775539398195 L 36.0 39.7 L 36.012700366973874 39.707644844055174 L 36.6 38.8 L 46.3 45.9 L 47.8 49.2 L 43.68461542129516 49.2 L 42.3 51.0 L 40.2 53.6 L 38.1 56.4 L 35.8 59.2 L 33.5 62.1 L 31.1 65.1 L 28.5 68.1 L 25.8 71.2 L 24.273631858825684 73.07860698699952 L 25.5 73.8 L 28.8 76.1 L 32.1 78.7 L 35.3 81.5 L 38.4 84.6 L 41.4 87.9 L 44.4 91.4 L 47.3 95.2 L 48.0 99.7 L 45.4 103.5 L 40.9 104.2 L 37.1 101.6 L 35.1 97.8 Z M 60.3 92.7 L 58.3 89.4 L 56.2 86.2 L 53.8 83.0 L 51.3 79.8 L 48.7 76.7 L 45.9 73.6 L 43.0 70.4 L 39.9 67.3 L 40.9 65.8 L 44.9 67.7 L 48.9 69.8 L 49.72843599319458 70.30142183303833 L 50.9 68.3 L 53.0 64.3 L 55.1 60.5 L 57.1 56.9 L 58.9 53.6 L 60.7 50.4 L 62.2 47.4 L 63.7 44.6 L 64.9 42.0 L 65.57081623077393 40.53640089035034 L 65.5 40.5 L 65.89622640609741 39.826415061950684 L 66.0 39.6 L 66.02148275375366 39.61347932815552 L 66.5 38.8 L 76.2 46.0 L 77.7 49.3 L 73.50635156631469 49.22769575119018 L 72.4 50.5 L 70.2 53.0 L 67.9 55.5 L 65.3 58.2 L 62.6 61.1 L 59.8 64.0 L 56.6 67.1 L 53.3 70.2 L 51.86385068893433 71.59390964508057 L 52.7 72.1 L 56.3 74.7 L 59.7 77.4 L 62.9 80.3 L 66.0 83.3 L 68.9 86.5 L 71.6 89.8 L 74.2 93.3 L 74.8 97.9 L 72.1 101.5 L 67.6 102.1 L 63.9 99.4 L 62.2 96.0 Z M 88.9 92.4 L 87.2 89.2 L 85.2 86.0 L 83.0 82.9 L 80.6 79.8 L 78.0 76.7 L 75.2 73.5 L 72.1 70.3 L 68.8 67.2 L 69.8 65.7 L 74.0 67.7 L 76.47553987503052 68.96795949935913 L 77.0 68.2 L 79.6 64.1 L 82.1 60.3 L 84.4 56.7 L 86.6 53.3 L 88.7 50.2 L 90.5 47.2 L 92.2 44.3 L 93.7 41.7 L 94.59909801483154 40.15868911743164 L 94.5 40.1 L 95.5 38.6 L 104.8 46.2 L 106.1 49.6 L 101.9616216659546 49.31459455490112 L 100.6 50.8 L 95.6 55.8 L 92.8 58.5 L 89.8 61.3 L 86.5 64.2 L 83.1 67.2 L 79.3 70.3 L 79.14642858505249 70.4333646774292 L 81.9 72.1 L 85.5 74.7 L 88.9 77.4 L 92.1 80.3 L 95.0 83.4 L 97.7 86.7 L 100.2 90.1 L 102.5 93.6 L 102.7 98.2 L 99.7 101.7 L 95.1 101.9 L 91.7 98.8 L 90.4 95.6 Z M 108.0 28.0 L 108.0 32.0 L 17.1 32.0 L 17.1 28.0 L 86.0 28.0 L 96.0 18.0 Z " />
</g>
</svg>
