<svg xmlns="http://www.w3.org/2000/svg" xmlns:xlink="http://www.w3.org/1999/xlink" version="1.1" baseProfile="full" viewBox="0 0 200 200" width="200" height="200">
<g fill="black">
<path d="M 72.1 15.0 L 75.1 17.0 L 72.1 18.8 L 72.1 36.0 L 90.5 36.0 L 100.5 26.0 L 112.5 36.0 L 112.5 40.0 L 72.1 40.0 L 72.1 63.0 L 91.4 63.0 L 97.4 58.0 L 108.4 67.0 L 103.4 71.0 L 103.4 123.0 L 91.4 129.0 L 91.4 117.0 L 72.1 117.0 L 72.1 146.0 L 94.0 146.0 L 104.0 136.0 L 116.0 146.0 L 116.0 150.0 L 72.1 150.0 L 72.1 183.0 L 60.1 189.0 L 60.1 150.0 L 17.4 150.0 L 17.4 146.0 L 60.1 146.0 L 60.1 117.0 L 41.9 117.0 L 41.9 129.0 L 29.9 135.0 L 29.9 57.0 L 41.9 63.0 L 60.1 63.0 L 60.1 40.0 L 20.8 40.0 L 20.8 36.0 L 60.1 36.0 L 60.1 13.0 Z M 143.1 176.0 L 163.1 176.0 L 164.3 175.9 L 165.2 175.7 L 166.1 175.4 L 166.5 175.0 L 166.7 174.7 L 166.9 174.1 L 167.0 173.2 L 167.1 172.0 L 167.1 14.0 L 179.1 16.0 L 182.1 18.0 L 179.1 19.8 L 179.1 172.0 L 178.9 174.5 L 178.5 177.0 L 177.7 179.4 L 176.5 181.7 L 174.8 183.7 L 172.8 185.3 L 170.5 186.6 L 168.1 187.4 L 165.6 187.8 L 163.1 188.0 L 163.1 182.0 L 143.1 179.0 Z M 138.0 31.0 L 141.0 33.0 L 138.0 34.8 L 138.0 149.0 L 126.0 155.0 L 126.0 29.0 Z M 41.9 92.0 L 41.9 113.0 L 91.4 113.0 L 91.4 92.0 Z M 41.9 88.0 L 91.4 88.0 L 91.4 67.0 L 41.9 67.0 Z " />
</g>
</svg>
