<svg xmlns="http://www.w3.org/2000/svg" xmlns:xlink="http://www.w3.org/1999/xlink" version="1.1" baseProfile="full" viewBox="0 0 200 200" width="200" height="200">
<g fill="black">
<path d="M 86.6 102.7 L 85.4 99.8 L 84.1 96.9 L 82.7 94.0 L 81.0 91.1 L 79.3 88.1 L 77.4 85.2 L 75.42435722351074 82.13775367736817 L 75.4 82.2 L 72.4 88.8 L 69.1 95.2 L 65.6 101.3 L 61.8 107.0 L 57.6 112.5 L 53.243478298187256 117.34057970046997 L 63.2 119.0 L 66.2 121.0 L 63.2 122.8 L 63.2 136.0 L 83.6 136.0 L 93.6 126.0 L 105.6 136.0 L 105.6 140.0 L 63.2 140.0 L 63.2 183.8 L 51.2 189.8 L 51.2 140.0 L 8.9 140.0 L 8.9 136.0 L 51.2 136.0 L 51.2 117.0 L 52.803846168518064 117.26730766296387 L 51.7 116.4 L 57.1 104.4 L 59.8 98.3 L 62.2 92.0 L 64.5 85.6 L 66.6 79.0 L 68.5 72.2 L 70.3 65.3 L 71.8 58.1 L 72.92383575439453 51.70278081893921 L 72.9 51.7 L 73.03500003814698 51.06999998092651 L 73.1 50.7 L 73.11368913650513 50.70278425216675 L 73.5 48.9 L 84.9 53.1 L 87.4 55.7 L 83.85711679458618 56.92390508651734 L 82.8 60.8 L 80.6 68.1 L 78.1 75.3 L 76.4778265953064 79.44555435180663 L 77.4 80.1 L 80.6 82.1 L 83.5 84.4 L 86.3 86.8 L 88.9 89.4 L 91.4 92.0 L 93.7 94.8 L 95.8 97.7 L 97.7 100.8 L 99.5 103.9 L 99.5 108.5 L 96.3 111.7 L 91.7 111.7 L 88.4 108.5 L 87.6 105.6 Z M 167.6 176.1 L 166.2 178.1 L 164.5 179.9 L 162.5 181.5 L 160.4 182.8 L 158.1 183.8 L 155.8 184.4 L 153.3 184.8 L 150.7 185.0 L 150.7 179.0 L 130.7 176.0 L 130.7 173.0 L 150.7 173.0 L 152.1 172.9 L 153.2 172.7 L 154.2 172.4 L 155.0 172.1 L 155.6 171.7 L 156.3 171.2 L 156.9 170.5 L 157.4 169.7 L 158.0 168.7 L 158.5 167.5 L 160.2 161.8 L 161.8 154.2 L 163.2 145.0 L 164.4 134.0 L 165.4 121.5 L 166.2 107.2 L 166.7 91.3 L 167.1 73.9 L 167.2 54.7 L 167.14821214675902 43.97991161346435 L 167.1 44.0 L 167.1 36.0 L 143.90476188659667 36.0 L 143.0 55.0 L 141.3 74.5 L 138.8 92.7 L 135.6 109.6 L 131.6 125.0 L 126.8 139.1 L 121.2 151.8 L 114.8 163.0 L 107.6 172.6 L 99.5 180.6 L 98.2 179.3 L 104.5 170.3 L 110.1 160.3 L 115.2 149.1 L 119.6 136.6 L 123.4 122.9 L 125.8384449005127 110.62649383544922 L 122.9 110.3 L 120.0 106.7 L 119.0 102.3 L 118.0 98.1 L 116.8 94.2 L 115.5 90.4 L 114.2 86.8 L 111.2 80.2 L 109.6 77.1 L 107.9 74.1 L 105.9 71.3 L 107.1 69.9 L 110.1 71.9 L 113.2 74.1 L 116.0 76.7 L 118.6 79.7 L 121.2 82.9 L 123.5 86.5 L 125.7 90.3 L 127.8 94.4 L 128.26658792495726 95.48051948547364 L 128.9 91.3 L 130.6 73.5 L 131.6 54.4 L 131.87058820724488 36.0 L 106.8 36.0 L 106.8 32.0 L 167.1 32.0 L 173.1 27.0 L 184.1 36.0 L 179.12433204650878 38.98540077209473 L 179.2 54.8 L 179.1 74.0 L 178.7 91.7 L 178.2 107.8 L 177.4 122.2 L 176.3 135.2 L 175.1 146.5 L 173.6 156.3 L 171.8 164.7 L 169.8 171.6 L 168.8 173.9 Z M 45.3 93.5 L 44.0 90.8 L 42.7 88.2 L 41.3 85.6 L 39.8 83.1 L 38.2 80.6 L 36.73285274505615 78.44243049621582 L 34.9 83.8 L 32.1 91.1 L 29.0 98.1 L 25.6 104.7 L 21.9 111.1 L 17.8 117.0 L 13.2 122.4 L 11.7 121.5 L 14.5 115.1 L 17.1 108.6 L 19.6 102.0 L 22.0 95.3 L 24.1 88.3 L 26.0 81.1 L 27.8 73.7 L 29.2 66.1 L 30.5 58.2 L 31.37600040435791 51.104396724700926 L 31.3 51.1 L 31.8 48.1 L 43.4 51.8 L 46.0 54.2 L 42.617187881469725 55.66801280975342 L 41.7 60.2 L 39.7 68.4 L 38.03726854324341 74.29513893127441 L 39.4 75.0 L 42.1 76.7 L 44.7 78.7 L 47.2 80.8 L 49.6 83.0 L 51.9 85.4 L 54.1 88.0 L 56.2 90.7 L 58.1 93.6 L 58.4 98.1 L 55.4 101.6 L 50.9 101.9 L 47.4 99.0 L 46.4 96.2 Z M 11.9 41.2 L 51.0 41.2 L 51.0 14.1 L 63.0 16.1 L 66.0 18.1 L 63.0 19.9 L 63.0 41.2 L 80.0 41.2 L 90.0 31.2 L 102.0 41.2 L 102.0 45.2 L 11.9 45.2 Z " />
</g>
</svg>
