<svg xmlns="http://www.w3.org/2000/svg" xmlns:xlink="http://www.w3.org/1999/xlink" version="1.1" baseProfile="full" viewBox="0 0 200 200" width="200" height="200">
<g fill="black">
<path d="M 42.4 176.5 L 52.4 176.5 L 53.4 176.4 L 54.1 176.3 L 54.7 176.0 L 54.8 175.8 L 55.0 175.6 L 55.2 175.1 L 55.5 174.4 L 55.6 173.3 L 55.7 172.0 L 55.7 149.0 L 30.9 149.0 L 30.9 183.0 L 18.9 189.0 L 18.9 92.0 L 30.9 98.0 L 55.7 98.0 L 61.2 93.0 L 71.7 102.0 L 66.7 105.5 L 66.7 172.0 L 66.6 174.4 L 66.2 176.7 L 65.5 179.0 L 64.5 181.1 L 63.1 183.1 L 61.4 184.7 L 59.3 186.0 L 57.1 186.8 L 54.8 187.3 L 52.4 187.5 L 52.4 182.0 L 42.4 179.2 Z M 179.9 173.8 L 178.8 176.1 L 177.4 178.2 L 175.6 180.0 L 173.5 181.5 L 171.3 182.6 L 168.9 183.4 L 166.4 183.8 L 163.8 184.0 L 163.8 178.0 L 143.8 175.0 L 143.8 172.0 L 163.8 172.0 L 165.1 171.9 L 166.1 171.7 L 166.8 171.5 L 167.3 171.2 L 168.1 170.6 L 168.4 170.1 L 168.8 169.4 L 169.1 168.4 L 169.3 167.2 L 170.1 161.0 L 170.8 153.2 L 171.4 143.8 L 171.9 132.9 L 172.4 120.3 L 172.7 106.2 L 173.0 90.4 L 173.2 73.2 L 173.4 54.3 L 173.4 36.0 L 160.1411765098572 36.0 L 159.5 57.8 L 158.3 79.6 L 157.00471925735474 94.83859739303588 L 159.6 99.4 L 162.7 105.6 L 165.5 112.2 L 168.1 119.2 L 170.5 126.6 L 169.8 131.1 L 166.1 133.9 L 161.6 133.1 L 158.8 129.5 L 157.2 122.4 L 155.4 115.7 L 154.85265684127808 113.9758689880371 L 154.4 117.7 L 151.7 133.9 L 148.5 148.2 L 144.7 160.6 L 140.3 171.0 L 135.3 179.4 L 133.23043479919434 181.6543478012085 L 131.6 184.1 L 130.01549291610718 185.15633802413942 L 129.7 185.5 L 129.60819673538208 185.4278688430786 L 128.3 186.3 L 93.1 186.3 L 90.6 186.2 L 88.2 185.8 L 85.8 185.0 L 83.6 183.8 L 81.7 182.2 L 80.1 180.3 L 78.9 178.1 L 78.2 175.8 L 77.7 173.3 L 77.6 170.8 L 77.6 79.9 L 88.6 85.4 L 114.1 85.4 L 114.1 64.2 L 89.1 64.2 L 77.1 70.2 L 77.1 16.0 L 89.1 18.0 L 92.1 20.0 L 89.1 21.8 L 89.1 37.1 L 111.51818180084229 37.1 L 119.7 28.1 L 129.7 37.1 L 129.7 41.1 L 89.1 41.1 L 89.1 60.2 L 114.1 60.2 L 120.1 55.2 L 131.1 64.2 L 126.1 68.2 L 126.1 91.4 L 114.1 97.4 L 114.1 89.4 L 88.6 89.4 L 88.6 108.5 L 104.61818180084228 108.5 L 112.8 99.5 L 122.8 108.5 L 122.8 112.5 L 88.6 112.5 L 88.6 129.6 L 104.61818180084228 129.6 L 112.8 120.6 L 122.8 129.6 L 122.8 133.6 L 88.6 133.6 L 88.6 150.7 L 104.61818180084228 150.7 L 112.8 141.7 L 122.8 150.7 L 122.8 154.7 L 88.6 154.7 L 88.6 170.8 L 88.7 172.1 L 88.8 173.1 L 89.1 173.8 L 89.3 174.2 L 89.5 174.4 L 89.7 174.7 L 90.2 174.9 L 90.8 175.1 L 91.8 175.3 L 122.8 175.3 L 128.3 154.3 L 130.3 154.3 L 128.3 175.3 L 131.6 177.5 L 131.7936255455017 177.79043827056884 L 132.0 177.4 L 135.4 168.9 L 138.4 158.6 L 141.1 146.5 L 143.4 132.5 L 145.2 116.6 L 146.6 98.8 L 146.86150035858154 93.64844303131103 L 146.2 92.3 L 143.5 87.2 L 140.6 82.4 L 137.6 77.8 L 134.4 73.3 L 135.6 72.0 L 140.3 75.2 L 144.7 79.0 L 147.4583888053894 81.8897406578064 L 147.6 79.1 L 148.1 57.4 L 148.1 36.0 L 133.2 36.0 L 133.2 32.0 L 173.4 32.0 L 179.4 27.0 L 190.4 36.0 L 185.4 39.0 L 185.4 54.4 L 185.2 73.3 L 185.0 90.6 L 184.7 106.4 L 184.4 120.7 L 183.9 133.4 L 183.4 144.5 L 182.7 154.2 L 182.0 162.3 L 181.2 168.9 L 180.7 171.4 Z M 30.9 126.0 L 30.9 145.0 L 55.7 145.0 L 55.7 126.0 Z M 30.9 102.0 L 30.9 122.0 L 55.7 122.0 L 55.7 102.0 Z M 65.4 47.4 L 67.8 50.1 L 63.81900987625122 51.30851488113403 L 62.9 53.5 L 61.5 56.6 L 58.5 63.0 L 56.8 66.2 L 55.0 69.4 L 53.1 72.7 L 51.0 75.9 L 50.3529411315918 77.0 L 59.977777767181394 77.0 L 66.2 70.0 L 74.2 77.0 L 74.2 81.0 L 12.5 81.0 L 12.5 77.0 L 47.72105264663696 77.0 L 48.3 74.8 L 49.7 67.4 L 51.1 60.4 L 52.3 53.8 L 52.9 50.6 L 53.56946144104004 45.41167421340943 L 53.5 45.4 L 53.64128437042236 44.85504589080811 L 53.7 44.4 L 53.75556545257568 44.41424751281738 L 54.2 42.7 Z M 26.9 64.5 L 26.3 59.1 L 25.8 56.5 L 25.4 54.0 L 24.8 51.5 L 24.3 49.0 L 23.7 46.5 L 22.6 44.3 L 24.1 43.3 L 25.8 45.2 L 27.8 47.1 L 29.6 49.2 L 31.2 51.4 L 32.8 53.8 L 34.3 56.4 L 35.6 59.1 L 36.9 61.9 L 38.0 64.8 L 39.1 67.9 L 38.1 72.3 L 34.3 74.9 L 29.9 73.9 L 27.3 70.1 L 27.2 67.3 Z M 13.9 36.0 L 37.4 36.0 L 37.4 13.0 L 49.4 15.0 L 52.4 17.0 L 49.4 18.8 L 49.4 36.0 L 54.61818180084229 36.0 L 62.8 27.0 L 72.8 36.0 L 72.8 40.0 L 13.9 40.0 Z " />
</g>
</svg>
