<svg xmlns="http://www.w3.org/2000/svg" xmlns:xlink="http://www.w3.org/1999/xlink" version="1.1" baseProfile="full" viewBox="0 0 200 200" width="200" height="200">
<g fill="black">
<path d="M 58.5 135.38333330154418 L 58.5 124.7 L 34.9 124.7 L 22.9 130.7 L 22.9 98.6 L 34.9 100.6 L 37.9 102.6 L 34.9 104.4 L 34.9 120.7 L 58.5 120.7 L 58.5 91.2 L 70.5 93.2 L 73.5 95.2 L 70.5 97.0 L 70.5 120.7 L 95.0 120.7 L 95.0 98.6 L 107.0 100.6 L 110.0 102.6 L 107.0 104.4 L 107.0 124.7 L 95.0 130.7 L 95.0 124.7 L 70.5 124.7 L 70.5 131.0 L 60.925 135.7875 L 70.0 137.3 L 73.0 139.3 L 70.0 141.1 L 70.0 157.9 L 69.98363637924194 158.0 L 95.0 158.0 L 95.0 139.6 L 107.0 141.6 L 110.0 143.6 L 107.0 145.4 L 107.0 164.0 L 95.0 170.0 L 95.0 162.0 L 69.32909088134765 162.0 L 69.1 163.4 L 67.3 168.5 L 64.4 173.0 L 60.6 176.9 L 56.1 180.1 L 50.9 182.7 L 45.0 184.7 L 38.4 186.2 L 31.1 187.1 L 23.1 187.4 L 22.8 185.6 L 30.4 183.3 L 37.0 181.0 L 42.7 178.5 L 47.5 175.9 L 51.3 173.1 L 54.1 170.3 L 56.1 167.3 L 57.4 164.4 L 57.775 162.0 L 33.0 162.0 L 33.0 165.0 L 21.0 171.0 L 21.0 139.6 L 33.0 141.6 L 36.0 143.6 L 33.0 145.4 L 33.0 158.0 L 57.99696969985962 158.0 L 58.0 157.9 L 58.0 135.3 Z M 173.3 182.6 L 171.4 184.1 L 169.3 185.3 L 167.2 186.3 L 165.0 187.2 L 162.7 187.9 L 160.4 188.3 L 158.0 188.6 L 155.6 188.7 L 155.6 182.7 L 135.6 179.7 L 135.6 176.7 L 155.6 176.7 L 157.1 176.6 L 158.5 176.5 L 159.9 176.2 L 161.2 175.8 L 162.4 175.4 L 163.5 174.8 L 164.7 174.1 L 165.8 173.3 L 166.9 172.3 L 167.9 171.3 L 167.9 171.2 L 168.5 169.0 L 169.3 165.3 L 170.0 160.2 L 170.6 153.8 L 171.0 146.1 L 171.4 137.2 L 171.7 127.1 L 171.9 115.8 L 171.9 105.3 L 148.38235292434692 105.3 L 147.8 115.2 L 146.2 126.5 L 143.7 137.0 L 140.4 146.7 L 136.1 155.7 L 131.0 163.8 L 125.0 171.1 L 118.2 177.5 L 110.6 182.9 L 102.2 187.2 L 101.2 185.7 L 108.3 179.8 L 114.5 173.6 L 120.0 166.9 L 124.6 159.7 L 128.5 151.9 L 131.6 143.5 L 134.0 134.5 L 135.6 124.8 L 136.4 114.4 L 136.48198194503783 105.3 L 117.1 105.3 L 117.1 101.3 L 171.9 101.3 L 177.9 96.3 L 188.9 105.3 L 183.9 108.3 L 183.9 115.9 L 183.7 127.4 L 183.4 137.7 L 183.0 146.8 L 182.5 154.7 L 181.9 161.5 L 181.1 167.2 L 180.2 171.9 L 179.0 175.8 L 176.8 179.3 L 175.1 181.1 Z M 31.9 89.8 L 31.9 45.8 L 43.9 51.8 L 156.1 51.8 L 162.1 46.8 L 173.1 55.8 L 168.1 59.8 L 168.1 85.8 L 156.1 91.8 L 156.1 83.8 L 43.9 83.8 Z M 43.9 55.8 L 43.9 79.8 L 73.3 79.8 L 73.3 55.8 Z M 85.3 55.8 L 85.3 79.8 L 114.7 79.8 L 114.7 55.8 Z M 126.7 55.8 L 126.7 79.8 L 156.1 79.8 L 156.1 55.8 Z M 132.8 14.5 L 135.8 16.5 L 132.8 18.3 L 132.8 28.7 L 161.5 28.7 L 171.5 18.7 L 183.5 28.7 L 183.5 32.7 L 132.8 32.7 L 132.8 44.2 L 120.8 50.2 L 120.8 32.7 L 79.1 32.7 L 79.1 44.2 L 67.1 50.2 L 67.1 32.7 L 16.4 32.7 L 16.4 28.7 L 67.1 28.7 L 67.1 12.5 L 79.1 14.5 L 82.1 16.5 L 79.1 18.3 L 79.1 28.7 L 120.8 28.7 L 120.8 12.5 Z " />
</g>
</svg>
