<svg xmlns="http://www.w3.org/2000/svg" xmlns:xlink="http://www.w3.org/1999/xlink" version="1.1" baseProfile="full" viewBox="0 0 200 200" width="200" height="200">
<g fill="black">
<path d="M 142.9 176.0 L 162.9 176.0 L 164.1 175.9 L 165.0 175.7 L 165.6 175.5 L 166.0 175.4 L 166.1 175.2 L 166.3 175.0 L 166.5 174.7 L 166.7 174.1 L 166.8 173.2 L 166.9 172.0 L 166.9 14.0 L 178.9 16.0 L 181.9 18.0 L 178.9 19.8 L 178.9 172.0 L 178.8 174.5 L 178.3 177.0 L 177.5 179.4 L 176.3 181.7 L 174.6 183.7 L 172.6 185.3 L 170.4 186.6 L 167.9 187.4 L 165.5 187.8 L 162.9 188.0 L 162.9 182.0 L 142.9 179.0 Z M 103.7 165.0 L 102.1 162.5 L 100.65886850357056 160.6265290260315 L 95.8 161.7 L 87.1 163.3 L 78.4 164.7 L 61.0 167.1 L 52.3 168.1 L 34.7 169.9 L 26.0 170.6 L 21.310231304168703 170.97304983139037 L 19.3 174.2 L 17.2 171.3 L 14.7 159.4 L 16.7 159.3 L 25.4 159.3 L 33.80756759643555 159.1089189529419 L 35.8 157.3 L 43.1 150.7 L 50.3 144.3 L 57.2 138.1 L 63.8 132.0 L 70.1 126.2 L 76.1 120.4 L 81.8 114.8 L 87.2 109.2 L 91.61447563171387 104.61240768432617 L 91.6 104.6 L 92.6 103.6 L 100.7 112.4 L 101.4 115.9 L 97.83538465499878 115.00884618759156 L 95.1 117.5 L 89.1 122.6 L 82.8 127.9 L 76.2 133.2 L 69.2 138.6 L 62.0 144.0 L 54.4 149.4 L 46.4 154.9 L 40.04775733947754 159.03278436660767 L 42.9 159.0 L 51.6 158.8 L 60.4 158.6 L 69.1 158.4 L 77.9 158.2 L 86.6 158.0 L 95.4 157.9 L 98.55675678253174 157.93587226867675 L 97.9 157.1 L 95.4 154.2 L 92.5 151.2 L 89.4 148.0 L 86.0 144.7 L 82.2 141.4 L 83.2 139.9 L 87.7 142.2 L 92.1 144.3 L 96.1 146.6 L 99.8 148.9 L 103.3 151.2 L 106.4 153.6 L 109.3 156.0 L 111.9 158.4 L 114.2 160.9 L 116.3 163.4 L 116.8 168.0 L 114.1 171.6 L 109.6 172.2 L 105.9 169.5 L 104.9 167.3 Z M 140.4 31.0 L 143.4 33.0 L 140.4 34.8 L 140.4 149.0 L 128.4 155.0 L 128.4 29.0 Z M 46.9 132.5 L 45.2 130.7 L 43.1 128.8 L 40.5 126.8 L 37.6 124.7 L 34.3 122.5 L 30.7 120.2 L 26.8 117.8 L 22.3 115.5 L 23.0 113.8 L 27.8 115.1 L 32.4 116.1 L 36.7 117.3 L 39.76713781356811 118.29681978225707 L 40.3 117.6 L 42.7 114.2 L 45.2 110.8 L 47.6 107.6 L 52.4 101.4 L 54.7 98.3 L 57.0 95.3 L 59.2 92.3 L 60.75934066772461 90.24450550079345 L 60.7 90.2 L 61.7 89.0 L 70.3 97.4 L 71.2 100.9 L 67.32873630523682 100.15291404724121 L 64.7 102.5 L 61.8 105.0 L 55.8 110.0 L 52.6 112.6 L 49.4 115.0 L 46.0 117.5 L 43.120924949645996 119.47422285079956 L 44.3 119.9 L 47.7 121.3 L 50.7 122.8 L 53.5 124.4 L 56.0 126.1 L 58.3 127.9 L 59.6 132.3 L 57.6 136.4 L 53.2 137.7 L 49.1 135.7 L 48.2 134.2 Z M 12.1 105.6 L 10.4 101.4 L 12.1 97.1 L 13.2 96.4 L 14.4 95.0 L 15.6 93.1 L 16.9 90.6 L 18.0 87.5 L 19.1 83.8 L 20.1 79.7 L 21.0 75.0 L 21.9 69.9 L 22.5 64.3 L 24.3 64.2 L 25.0 69.9 L 25.418867969512938 73.6 L 59.5 73.6 L 59.5 47.6 L 14.7 47.6 L 14.7 43.6 L 59.5 43.6 L 59.5 14.9 L 71.5 16.9 L 74.5 18.9 L 71.5 20.7 L 71.5 43.6 L 94.3 43.6 L 104.3 33.6 L 116.3 43.6 L 116.3 47.6 L 71.5 47.6 L 71.5 73.6 L 105.8 73.6 L 111.8 68.6 L 122.8 77.6 L 117.8 80.6 L 114.80618553161621 81.8474226951599 L 113.5 83.9 L 112.0 86.2 L 110.3 88.6 L 108.6 91.1 L 106.7 93.7 L 104.6 96.4 L 102.4 99.2 L 100.4 102.2 L 98.8 101.4 L 100.1 98.0 L 101.0 94.6 L 101.9 91.4 L 102.7 88.3 L 103.5 85.5 L 104.2 82.7 L 104.8 80.2 L 105.3 77.8 L 105.34347829818725 77.6 L 25.74399995803833 77.6 L 25.9 80.2 L 26.0 84.7 L 25.8 88.9 L 25.4 92.8 L 24.8 96.4 L 23.8 99.7 L 22.4 102.8 L 20.6 105.6 L 16.4 107.3 Z " />
</g>
</svg>
