<svg xmlns="http://www.w3.org/2000/svg" xmlns:xlink="http://www.w3.org/1999/xlink" version="1.1" baseProfile="full" viewBox="0 0 200 200" width="200" height="200">
<g fill="black">
<path d="M 65.7 178.0 L 79.7 178.0 L 80.9 177.9 L 81.8 177.7 L 82.4 177.5 L 82.8 177.4 L 83.0 177.2 L 83.1 177.0 L 83.3 176.7 L 83.5 176.1 L 83.6 175.2 L 83.7 174.0 L 83.7 155.0 L 33.2 155.0 L 33.2 184.0 L 21.2 190.0 L 21.2 93.0 L 33.2 99.0 L 83.7 99.0 L 89.7 94.0 L 100.7 103.0 L 95.7 107.0 L 95.7 174.0 L 95.6 176.5 L 95.1 179.0 L 94.3 181.4 L 93.1 183.7 L 91.4 185.7 L 89.4 187.3 L 87.2 188.6 L 84.8 189.4 L 82.3 189.8 L 79.7 190.0 L 79.7 184.0 L 65.7 181.0 Z M 172.5 178.2 L 171.0 180.2 L 169.3 182.0 L 167.3 183.5 L 165.2 184.8 L 162.9 185.8 L 160.6 186.4 L 158.1 186.8 L 155.6 187.0 L 155.6 181.0 L 139.6 178.0 L 139.6 175.0 L 155.6 175.0 L 156.9 174.9 L 158.0 174.7 L 159.0 174.4 L 159.8 174.1 L 160.5 173.7 L 161.2 173.2 L 161.8 172.5 L 162.4 171.7 L 163.5 169.5 L 164.4 166.0 L 165.4 160.0 L 166.3 151.8 L 167.1 141.4 L 167.8 128.8 L 168.3 114.2 L 168.8 97.5 L 169.1 78.7 L 169.3 57.9 L 169.39126634597778 37.0 L 150.52920351028442 37.0 L 149.8 57.6 L 148.2 78.6 L 145.7 98.1 L 144.800266456604 102.98037300109863 L 147.6 106.9 L 151.3 112.7 L 154.7 118.7 L 157.7 124.8 L 160.4 131.1 L 160.1 135.7 L 156.7 138.8 L 152.2 138.5 L 149.1 135.1 L 147.2 129.1 L 144.9 123.2 L 142.4 117.4 L 142.15971488952636 116.91084814071655 L 138.1 132.3 L 133.0 147.0 L 126.9 160.1 L 119.9 171.4 L 112.0 181.0 L 103.1 188.6 L 102.0 187.3 L 109.1 178.5 L 115.4 168.5 L 121.0 157.2 L 125.9 144.4 L 130.0 130.1 L 133.3 114.2 L 134.88419904708863 103.1739748954773 L 133.2 100.4 L 129.6 94.9 L 125.7 89.4 L 121.6 83.9 L 117.4 78.3 L 118.6 77.0 L 124.4 81.2 L 129.7 85.9 L 134.7 90.8 L 136.1872681617737 92.44892778396607 L 137.5 77.7 L 138.4 57.1 L 138.5819004058838 37.0 L 115.2 37.0 L 115.2 33.0 L 169.4 33.0 L 175.4 28.0 L 186.4 37.0 L 181.4 40.0 L 181.3782214164734 40.00907440185547 L 181.3 58.0 L 181.1 78.9 L 180.8 97.8 L 180.3 114.6 L 179.8 129.4 L 179.1 142.1 L 178.3 152.9 L 177.3 161.6 L 176.1 168.5 L 174.7 173.7 L 173.7 176.0 Z M 33.2 129.0 L 33.2 151.0 L 83.7 151.0 L 83.7 129.0 Z M 33.2 103.0 L 33.2 125.0 L 83.7 125.0 L 83.7 103.0 Z M 25.9 83.0 L 13.9 89.0 L 13.9 18.0 L 25.9 24.0 L 91.0 24.0 L 97.0 19.0 L 108.0 28.0 L 103.0 32.0 L 103.0 82.0 L 91.0 88.0 L 91.0 80.0 L 25.9 80.0 Z M 25.9 53.0 L 25.9 76.0 L 52.5 76.0 L 52.5 53.0 Z M 64.5 53.0 L 64.5 76.0 L 91.0 76.0 L 91.0 53.0 Z M 25.9 28.0 L 25.9 49.0 L 52.5 49.0 L 52.5 28.0 Z M 64.5 28.0 L 64.5 49.0 L 91.0 49.0 L 91.0 28.0 Z " />
</g>
</svg>
