<svg xmlns="http://www.w3.org/2000/svg" xmlns:xlink="http://www.w3.org/1999/xlink" version="1.1" baseProfile="full" viewBox="0 0 200 200" width="200" height="200">
<g fill="black">
<path d="M 77.3 176.0 L 93.3 176.0 L 94.5 175.9 L 95.4 175.7 L 96.3 175.4 L 96.7 175.0 L 96.9 174.7 L 97.0 174.1 L 97.2 173.2 L 97.3 172.0 L 97.3 46.0 L 68.98923072814941 46.0 L 66.7 58.4 L 65.39036235809326 63.38507242202759 L 68.4 65.0 L 72.4 67.2 L 76.1 69.7 L 79.7 72.4 L 83.0 75.2 L 86.1 78.2 L 89.0 81.4 L 91.8 84.6 L 94.3 88.0 L 96.6 91.6 L 96.9 96.1 L 93.9 99.6 L 89.3 99.9 L 85.9 97.0 L 84.5 93.7 L 82.9 90.4 L 81.1 87.1 L 79.1 83.9 L 77.0 80.6 L 74.6 77.4 L 72.0 74.1 L 69.3 70.9 L 66.4 67.5 L 64.74429531097412 65.84429531097412 L 63.6 70.2 L 59.7 80.7 L 54.9 90.1 L 49.4 98.1 L 43.0 104.9 L 35.9 110.1 L 29.9 112.94615383148194 L 29.9 160.0579999923706 L 32.8 157.1 L 37.5 151.7 L 41.8 146.0 L 45.8 140.0 L 49.5 133.5 L 52.8 126.7 L 55.8 119.3 L 58.4 111.6 L 60.6 103.3 L 62.5 94.6 L 62.54727268218994 94.61090908050537 L 63.0 92.8 L 74.2 97.3 L 76.7 99.9 L 73.12263612747192 101.07077360153198 L 71.6 106.4 L 68.5 115.1 L 65.06080884933472 123.05927085876465 L 67.9 124.4 L 71.4 126.2 L 74.9 128.3 L 78.1 130.7 L 81.2 133.3 L 84.2 136.1 L 87.0 139.2 L 89.7 142.4 L 92.3 145.9 L 94.7 149.6 L 95.0 154.1 L 92.0 157.6 L 87.5 157.9 L 84.0 155.0 L 82.5 151.5 L 80.9 148.1 L 79.1 144.8 L 77.3 141.6 L 75.3 138.6 L 73.2 135.6 L 70.9 132.7 L 66.1 126.9 L 64.09396419525146 124.96560831069947 L 61.1 130.8 L 56.8 137.9 L 52.0 144.3 L 46.9 150.2 L 41.3 155.4 L 35.3 159.9 L 29.9 163.0569231033325 L 29.9 182.0 L 17.9 188.0 L 17.9 36.0 L 29.9 42.0 L 58.545588207244876 42.0 L 59.3 30.6 L 59.5 15.9 L 59.5 13.5 L 71.5 16.0 L 74.4 18.0 L 71.29811067581177 19.861133575439453 L 70.7 31.3 L 69.48581562042236 42.0 L 97.3 42.0 L 103.3 37.0 L 114.3 46.0 L 109.3 50.0 L 109.3 172.0 L 109.1 174.5 L 108.7 177.0 L 107.9 179.4 L 106.7 181.7 L 105.0 183.7 L 103.0 185.3 L 100.7 186.6 L 98.3 187.4 L 95.8 187.8 L 93.3 188.0 L 93.3 182.0 L 77.3 179.0 Z M 148.2 173.6 L 162.2 173.6 L 163.5 173.5 L 164.4 173.4 L 165.0 173.2 L 165.3 173.0 L 165.6 172.7 L 165.8 172.3 L 166.0 171.7 L 166.2 170.8 L 166.2 17.4 L 178.2 19.4 L 181.2 21.4 L 178.2 23.2 L 178.2 169.6 L 178.1 172.1 L 177.6 174.6 L 176.8 177.0 L 175.6 179.3 L 174.0 181.3 L 171.9 183.0 L 169.7 184.2 L 167.3 185.0 L 164.8 185.4 L 162.2 185.6 L 162.2 179.6 L 148.2 176.6 Z M 140.2 33.9 L 143.2 35.9 L 140.2 37.7 L 140.2 147.6 L 128.2 153.6 L 128.2 31.9 Z M 29.9 46.0 L 29.9 109.99523811340332 L 33.6 107.0 L 39.1 101.1 L 44.0 94.3 L 48.2 86.5 L 51.7 77.7 L 54.6 67.7 L 56.9 56.5 L 58.18048782348633 46.0 Z " />
</g>
</svg>
