<svg xmlns="http://www.w3.org/2000/svg" xmlns:xlink="http://www.w3.org/1999/xlink" version="1.1" baseProfile="full" viewBox="0 0 200 200" width="200" height="200">
<g fill="black">
<path d="M 78.3 173.4 L 76.6 175.2 L 74.7 176.8 L 72.7 178.1 L 70.5 179.2 L 68.3 180.1 L 65.9 180.7 L 63.4 181.0 L 61.0 181.1 L 61.0 175.1 L 45.0 172.1 L 45.0 169.1 L 61.0 169.1 L 63.6 168.9 L 64.7 168.6 L 65.7 168.2 L 66.6 167.8 L 67.5 167.2 L 68.3 166.5 L 69.1 165.6 L 69.9 164.6 L 70.6 163.5 L 72.7 158.8 L 74.7 152.0 L 76.6 143.3 L 78.3 132.8 L 79.7 120.3 L 80.9 106.1 L 81.8 90.1 L 82.4 72.3 L 82.8 52.6 L 82.98130836486817 33.2 L 54.8364016532898 33.2 L 54.1 55.2 L 52.5 77.2 L 50.2 97.4 L 47.1 115.7 L 43.3 132.1 L 38.8 146.7 L 33.4 159.4 L 27.3 170.1 L 20.3 178.7 L 12.5 185.1 L 11.4 183.7 L 17.3 176.3 L 22.6 167.3 L 27.4 156.7 L 31.5 144.3 L 35.1 130.1 L 38.0 114.1 L 40.2 96.2 L 41.8 76.4 L 42.7 54.7 L 42.88297872543335 33.2 L 19.0 33.2 L 19.0 29.2 L 83.0 29.2 L 89.0 24.2 L 100.0 33.2 L 95.0 36.2 L 94.95352439880371 36.21936483383179 L 94.8 52.8 L 94.4 72.6 L 93.8 90.6 L 92.8 106.9 L 91.6 121.5 L 90.2 134.3 L 88.4 145.5 L 86.4 155.0 L 84.0 162.9 L 81.1 169.3 L 79.8 171.4 Z M 121.0 114.0 L 165.0 114.0 L 171.0 109.0 L 182.0 118.0 L 177.0 122.0 L 177.0 172.0 L 165.0 178.0 L 165.0 166.0 L 121.0 166.0 L 121.0 178.0 L 109.0 184.0 L 109.0 108.0 Z M 121.0 118.0 L 121.0 162.0 L 165.0 162.0 L 165.0 118.0 Z M 185.2 81.8 L 185.2 85.8 L 102.7 85.8 L 102.7 81.8 L 163.2 81.8 L 173.2 71.8 Z M 176.6 33.0 L 176.6 37.0 L 111.3 37.0 L 111.3 33.0 L 154.6 33.0 L 164.6 23.0 Z " />
</g>
</svg>
