<svg xmlns="http://www.w3.org/2000/svg" xmlns:xlink="http://www.w3.org/1999/xlink" version="1.1" baseProfile="full" viewBox="0 0 200 200" width="200" height="200">
<g fill="black">
<path d="M 162.5 182.9 L 158.1 180.6 L 153.2 178.4 L 147.6 176.2 L 141.4 174.1 L 134.7 171.9 L 127.3 169.7 L 119.3 167.4 L 110.8 165.0 L 111.1 163.2 L 120.0 163.7 L 128.3 164.5 L 136.1 165.5 L 143.3 166.7 L 150.0 168.1 L 156.2 169.6 L 161.8 171.3 L 167.0 173.1 L 171.6 175.1 L 175.8 177.3 L 178.3 181.1 L 177.4 185.6 L 173.6 188.1 L 169.1 187.2 L 166.1 185.1 Z M 79.65397882461548 161.8038903236389 L 86.4 168.4 L 86.5 171.7 L 82.81157894134522 170.1631579399109 L 79.2 171.7 L 74.1 173.7 L 68.5 175.6 L 62.4 177.5 L 55.8 179.3 L 48.7 181.1 L 41.1 182.8 L 33.0 184.5 L 24.4 186.0 L 15.2 187.2 L 14.7 185.5 L 23.4 182.3 L 31.6 179.3 L 39.3 176.5 L 46.5 173.8 L 53.1 171.2 L 59.3 168.7 L 64.8 166.2 L 69.9 163.8 L 74.3 161.4 L 78.2 159.1 Z M 56.0 99.6 L 144.0 99.6 L 150.0 94.6 L 161.0 103.6 L 156.0 107.6 L 156.0 156.4 L 144.0 162.4 L 144.0 156.4 L 56.0 156.4 L 56.0 159.4 L 44.0 165.4 L 44.0 93.6 Z M 56.0 138.8 L 56.0 152.4 L 144.0 152.4 L 144.0 138.8 Z M 56.0 121.2 L 56.0 134.8 L 144.0 134.8 L 144.0 121.2 Z M 56.0 103.6 L 56.0 117.2 L 144.0 117.2 L 144.0 103.6 Z M 108.3 21.2 L 108.3 25.2 L 60.6 25.2 L 57.9 31.2 L 54.8 36.9 L 51.2 42.3 L 47.18039216995239 47.3 L 86.9 47.3 L 92.9 42.3 L 103.9 51.3 L 98.9 55.3 L 98.9 82.7 L 86.9 88.7 L 86.9 80.7 L 45.0 80.7 L 45.0 87.7 L 33.0 93.7 L 33.0 60.06851854324341 L 32.3 60.6 L 26.5 64.3 L 20.3 67.5 L 13.5 70.2 L 12.7 68.6 L 18.3 64.3 L 23.4 59.9 L 28.2 55.5 L 32.5 51.0 L 33.0 50.41025638580322 L 33.0 49.0 L 34.19565219879151 49.0 L 36.4 46.4 L 39.8 41.7 L 42.8 36.8 L 45.3 31.8 L 47.5 26.6 L 47.91176471710205 25.2 L 13.7 25.2 L 13.7 21.2 L 86.3 21.2 L 96.3 11.2 Z M 140.9 79.4 L 160.9 79.4 L 162.1 79.3 L 163.1 79.2 L 163.6 79.0 L 164.0 78.8 L 164.3 78.5 L 164.5 78.1 L 164.7 77.5 L 164.8 76.6 L 164.9 75.4 L 164.9 14.3 L 176.9 16.3 L 179.9 18.3 L 176.9 20.1 L 176.9 75.4 L 176.8 78.0 L 176.3 80.4 L 175.5 82.9 L 174.3 85.1 L 172.7 87.1 L 170.6 88.8 L 168.4 90.0 L 166.0 90.8 L 163.5 91.3 L 160.9 91.4 L 160.9 85.4 L 140.9 82.4 Z M 45.0 51.3 L 45.0 76.7 L 86.9 76.7 L 86.9 51.3 Z M 135.6 22.6 L 138.6 24.6 L 135.6 26.4 L 135.6 69.8 L 123.6 75.8 L 123.6 20.6 Z " />
</g>
</svg>
