<svg xmlns="http://www.w3.org/2000/svg" xmlns:xlink="http://www.w3.org/1999/xlink" version="1.1" baseProfile="full" viewBox="0 0 200 200" width="200" height="200">
<g fill="black">
<path d="M 35.4625 29.93125 L 37.9 29.4 L 45.6 27.8 L 53.1 26.3 L 60.6 24.7 L 67.9 23.1 L 75.1 21.4 L 82.1 19.5 L 89.0 17.6 L 95.8 15.6 L 101.62732753753662 13.773524188995362 L 101.6 13.7 L 101.67130346298218 13.759740734100342 L 102.5 13.5 L 102.86042699813842 14.756033420562744 L 112.7 23.0 L 113.0 26.1 L 108.6965545654297 24.16041898727417 L 105.8 25.0 L 98.7 26.6 L 91.5 28.1 L 84.2 29.4 L 76.8 30.5 L 69.3 31.4 L 61.7 32.2 L 54.0 32.8 L 46.2 33.1 L 38.2 33.2 L 35.6 33.06999998092651 L 35.6 51.0 L 100.9 51.0 L 106.9 46.0 L 117.9 55.0 L 112.9 59.0 L 112.9 93.0 L 100.9 99.0 L 100.9 87.0 L 35.6 87.0 L 35.6 101.0 L 35.0 112.8 L 34.1 124.1 L 32.9 134.7 L 31.3 144.6 L 29.4 154.0 L 27.2 162.6 L 24.6 170.7 L 21.6 178.0 L 18.2 184.6 L 14.3 190.4 L 12.7 189.5 L 14.7 183.1 L 16.6 176.2 L 18.3 168.9 L 19.8 160.9 L 21.1 152.4 L 22.1 143.4 L 22.9 133.7 L 23.4 123.4 L 23.6 112.4 L 23.6 24.0 Z M 143.2 176.0 L 163.2 176.0 L 164.4 175.9 L 165.4 175.7 L 165.9 175.5 L 166.3 175.4 L 166.5 175.2 L 166.6 175.0 L 166.8 174.7 L 167.0 174.1 L 167.1 173.2 L 167.2 172.0 L 167.2 14.0 L 179.2 16.0 L 182.2 18.0 L 179.2 19.8 L 179.2 172.0 L 179.1 174.5 L 178.6 177.0 L 177.8 179.4 L 176.6 181.7 L 175.0 183.7 L 172.9 185.3 L 170.7 186.6 L 168.3 187.4 L 165.8 187.8 L 163.2 188.0 L 163.2 182.0 L 143.2 179.0 Z M 49.5 116.1 L 100.7 116.1 L 106.7 111.1 L 117.7 120.1 L 112.7 124.1 L 112.7 175.8 L 100.7 181.8 L 100.7 169.8 L 49.5 169.8 L 49.5 181.8 L 37.5 187.8 L 37.5 110.1 Z M 49.5 120.1 L 49.5 165.8 L 100.7 165.8 L 100.7 120.1 Z M 142.6 31.0 L 145.6 33.0 L 142.6 34.8 L 142.6 149.0 L 130.6 155.0 L 130.6 29.0 Z M 35.6 55.0 L 35.6 83.0 L 100.9 83.0 L 100.9 55.0 Z " />
</g>
</svg>
