<svg xmlns="http://www.w3.org/2000/svg" xmlns:xlink="http://www.w3.org/1999/xlink" version="1.1" baseProfile="full" viewBox="0 0 200 200" width="200" height="200">
<g fill="black">
<path d="M 149.0 176.0 L 169.0 176.0 L 170.3 175.9 L 171.2 175.7 L 172.1 175.4 L 172.3 175.2 L 172.4 175.0 L 172.6 174.7 L 172.8 174.1 L 173.0 173.2 L 173.0 14.0 L 185.0 16.0 L 188.0 18.0 L 185.0 19.8 L 185.0 172.0 L 184.9 174.5 L 184.5 177.0 L 183.6 179.4 L 182.4 181.7 L 180.8 183.7 L 178.8 185.3 L 176.5 186.6 L 174.1 187.4 L 171.6 187.8 L 169.0 188.0 L 169.0 182.0 L 149.0 179.0 Z M 84.9 177.5 L 78.7 180.6 L 78.7 142.0 L 65.2 142.0 L 65.2 174.6 L 53.2 180.6 L 53.2 142.0 L 39.0 142.0 L 39.0 179.9 L 27.0 185.9 L 27.0 95.5 L 39.0 101.5 L 104.9 101.5 L 110.9 96.5 L 121.9 105.5 L 116.9 109.5 L 116.9 171.3 L 116.7 173.9 L 116.3 176.4 L 115.5 178.8 L 114.3 181.1 L 112.6 183.1 L 110.6 184.7 L 108.3 186.0 L 105.9 186.8 L 103.4 187.2 L 100.9 187.3 L 100.9 181.3 L 84.9 178.3 Z M 149.6 31.0 L 152.6 33.0 L 149.6 34.8 L 149.6 149.0 L 137.6 155.0 L 137.6 29.0 Z M 39.0 105.5 L 39.0 138.0 L 53.2 138.0 L 53.2 105.5 Z M 65.2 105.5 L 65.2 138.0 L 78.7 138.0 L 78.7 105.5 Z M 90.7 105.5 L 90.7 138.0 L 104.9 138.0 L 104.9 105.5 Z M 108.5 80.0 L 102.7 74.4 L 97.3 68.2 L 92.1 61.5 L 87.1 54.3 L 82.4 46.6 L 77.9 38.4 L 73.9 29.5 L 73.71969947814941 29.029215335845947 L 73.5 29.5 L 68.2 39.5 L 62.6 48.9 L 56.6 57.7 L 50.3 65.8 L 43.7 73.4 L 36.7 80.3 L 29.4 86.6 L 21.8 92.0 L 13.7 96.7 L 12.7 95.2 L 19.4 89.1 L 25.8 82.6 L 32.0 75.8 L 37.9 68.5 L 43.6 60.7 L 48.9 52.5 L 53.9 43.8 L 58.7 34.5 L 63.2 24.7 L 67.3 14.4 L 67.3785641670227 14.432558155059814 L 67.9 13.1 L 78.4 19.0 L 80.4 22.0 L 76.72954549789429 22.579545497894287 L 75.67821779251099 24.83239040374756 L 77.5 27.5 L 83.0 35.3 L 88.4 42.6 L 93.8 49.4 L 99.3 55.6 L 104.8 61.3 L 110.4 66.4 L 116.0 71.0 L 121.8 75.0 L 127.6 78.5 L 131.7 81.1 L 120.6 89.7 L 114.4 85.1 Z M 101.7 78.1 L 101.7 82.1 L 42.3 82.1 L 42.3 78.1 L 79.7 78.1 L 89.7 68.1 Z M 103.0 175.1 L 103.9 174.8 L 104.3 174.4 L 104.6 173.5 L 104.8 172.6 L 104.9 171.3 L 104.9 142.0 L 90.7 142.0 L 90.7 174.6 L 89.3 175.3 L 102.1 175.3 Z " />
</g>
</svg>
