<svg xmlns="http://www.w3.org/2000/svg" xmlns:xlink="http://www.w3.org/1999/xlink" version="1.1" baseProfile="full" viewBox="0 0 200 200" width="200" height="200">
<g fill="black">
<path d="M 176.2 180.9 L 173.2 175.1 L 170.9 168.1 L 169.1 159.7 L 167.7 149.9 L 166.6 138.5 L 166.0 125.5 L 165.8442708969116 117.97309560775757 L 163.2 120.7 L 158.6 120.7 L 155.3 117.6 L 155.0 115.8 L 154.6 113.9 L 154.1 112.1 L 153.5 110.2 L 152.8 108.3 L 152.1 106.3 L 151.2 104.3 L 150.3 102.2 L 149.3 100.1 L 147.9 98.3 L 147.98275861740112 98.21034479141235 L 147.0 98.8 L 147.0 163.3 L 149.1 162.3 L 157.7 158.5 L 162.2 156.8 L 166.7 155.2 L 167.6 156.7 L 164.0 159.9 L 160.3 162.9 L 156.6 165.8 L 152.9 168.6 L 149.1 171.4 L 141.7 176.8 L 134.06392107009887 182.1658932685852 L 133.9 186.1 L 130.6 184.6 L 122.8 175.3 L 124.5 174.3 L 128.5 172.3 L 132.5 170.2 L 135.0 168.98048782348633 L 135.0 93.0 L 147.0 95.0 L 150.0 97.0 L 149.48863639831544 97.30681819915772 L 151.0 98.5 L 153.1 99.8 L 155.1 101.1 L 157.0 102.6 L 158.8 104.1 L 160.5 105.7 L 162.1 107.4 L 163.6 109.1 L 165.0 110.9 L 165.71809425354004 111.87455654144287 L 165.7 111.0 L 165.7 92.5 L 177.7 95.0 L 180.7 97.1 L 177.7 98.80588235855103 L 177.7 110.9 L 178.0 125.1 L 178.6 137.6 L 179.6 148.5 L 180.9 157.7 L 182.5 165.0 L 183.2970149040222 167.4796019554138 L 187.1 151.0 L 189.1 151.0 L 187.23232326507568 175.27979793548585 L 187.6 175.7 L 188.2 176.0 L 192.0 178.6 L 193.0 183.0 L 190.5 186.8 L 186.0 187.9 L 180.4 185.3 Z M 78.3 174.4 L 76.6 176.1 L 74.7 177.7 L 72.7 179.0 L 70.5 180.1 L 68.3 180.9 L 65.9 181.5 L 63.4 181.8 L 61.0 182.0 L 61.0 176.0 L 45.0 173.0 L 45.0 170.0 L 61.0 170.0 L 62.4 169.9 L 63.6 169.7 L 64.8 169.4 L 65.8 169.1 L 66.7 168.6 L 67.6 168.0 L 68.4 167.3 L 69.2 166.5 L 70.0 165.5 L 70.8 164.3 L 72.8 159.9 L 74.8 153.4 L 76.7 145.1 L 78.3 134.9 L 79.7 122.9 L 80.9 109.2 L 81.8 93.8 L 82.4 76.6 L 82.8 57.6 L 82.98058252334594 39.0 L 54.830735969543454 39.0 L 54.1 60.1 L 52.5 81.4 L 50.2 100.9 L 47.1 118.6 L 43.3 134.5 L 38.7 148.6 L 33.4 160.8 L 27.2 171.2 L 20.2 179.5 L 12.5 185.7 L 11.4 184.2 L 17.4 177.0 L 22.7 168.3 L 27.4 158.1 L 31.6 146.1 L 35.1 132.4 L 38.0 116.9 L 40.2 99.6 L 41.8 80.5 L 42.7 59.6 L 42.88230085372925 39.0 L 19.0 39.0 L 19.0 35.0 L 83.0 35.0 L 89.0 30.0 L 100.0 39.0 L 95.0 42.0 L 94.95172967910767 42.02011260986328 L 94.8 57.8 L 94.4 76.9 L 93.8 94.3 L 92.9 110.1 L 91.7 124.1 L 90.2 136.5 L 88.5 147.3 L 86.4 156.5 L 84.1 164.1 L 81.2 170.3 L 79.8 172.4 Z M 122.7 113.9 L 122.2 112.0 L 121.0 108.2 L 120.3 106.3 L 119.5 104.3 L 118.7 102.2 L 117.8 100.1 L 116.651162815094 98.50930233001709 L 114.5 99.8 L 114.5 164.22820510864258 L 116.4 163.4 L 120.3 161.8 L 124.3 160.2 L 132.5 157.2 L 133.4 158.7 L 130.0 161.5 L 126.7 164.4 L 119.9 169.6 L 116.5 172.1 L 109.7 176.9 L 106.4 179.2 L 103.23844156265258 181.33870134353637 L 102.9 185.4 L 99.7 183.7 L 92.2 174.2 L 93.9 173.2 L 97.6 171.6 L 101.2 170.0 L 103.43529415130615 169.0 L 102.5 169.0 L 102.5 94.0 L 114.5 96.0 L 117.10806455612183 97.73870964050293 L 117.8 97.1 L 119.5 98.6 L 121.5 99.8 L 123.5 101.2 L 125.3 102.6 L 128.7 105.8 L 130.2 107.4 L 131.7 109.2 L 134.5 112.8 L 134.5 117.4 L 131.3 120.7 L 126.7 120.7 L 123.4 117.6 L 123.1 115.7 Z M 122.2 140.2 L 120.1 133.0 L 119.4 130.8 L 117.0 124.2 L 115.9 122.3 L 117.2 121.1 L 118.9 122.6 L 120.9 124.0 L 122.9 125.6 L 124.7 127.4 L 126.5 129.3 L 128.2 131.4 L 129.9 133.6 L 131.5 135.9 L 133.1 138.4 L 134.6 141.0 L 134.5 145.5 L 131.2 148.7 L 126.6 148.6 L 123.4 145.3 L 122.8 142.7 Z M 153.6 140.2 L 151.5 133.0 L 150.7 130.8 L 150.0 128.6 L 148.4 124.2 L 147.2 122.3 L 148.6 121.1 L 150.3 122.6 L 152.3 124.0 L 154.2 125.6 L 156.1 127.4 L 157.9 129.3 L 159.6 131.4 L 161.3 133.6 L 162.9 135.9 L 164.4 138.4 L 166.0 141.0 L 165.8 145.5 L 162.6 148.7 L 158.0 148.6 L 154.8 145.3 L 154.2 142.7 Z M 142.1 24.3 L 142.4 27.9 L 138.59267015457152 26.419371700286867 L 135.5 28.2 L 132.1 30.0 L 128.7 31.7 L 125.2 33.3 L 121.7 34.7 L 118.1 35.9 L 114.5 37.0 L 112.8 37.40263156890869 L 112.8 58.0 L 123.27777776718139 58.0 L 129.5 51.0 L 137.5 58.0 L 137.5 62.0 L 112.8 62.0 L 112.8 83.0 L 169.2 83.0 L 169.2 62.0 L 147.8 62.0 L 147.8 58.0 L 169.2 58.0 L 169.2 39.0 L 145.5 39.0 L 145.5 35.0 L 169.2 35.0 L 175.2 30.0 L 186.2 39.0 L 181.2 43.0 L 181.2 87.0 L 169.2 93.0 L 169.2 87.0 L 112.8 87.0 L 100.8 93.0 L 100.8 30.0 L 110.10810813903808 34.65405406951904 L 112.5 32.9 L 115.5 30.8 L 118.4 28.6 L 121.2 26.4 L 124.1 24.2 L 126.8 22.0 L 129.5 19.6 L 132.2 17.3 L 134.08213872909545 15.4902512550354 L 134.0 15.4 L 134.8 14.8 Z " />
</g>
</svg>
