<svg xmlns="http://www.w3.org/2000/svg" xmlns:xlink="http://www.w3.org/1999/xlink" version="1.1" baseProfile="full" viewBox="0 0 200 200" width="200" height="200">
<g fill="black">
<path d="M 142.7 178.7 L 162.7 178.7 L 164.0 178.6 L 164.9 178.5 L 165.5 178.3 L 165.8 178.1 L 166.1 177.8 L 166.3 177.4 L 166.5 176.8 L 166.7 175.9 L 166.7 14.2 L 178.7 16.2 L 181.7 18.2 L 178.7 20.0 L 178.7 174.7 L 178.6 177.2 L 178.1 179.7 L 177.3 182.1 L 176.1 184.4 L 174.5 186.4 L 172.5 188.1 L 170.2 189.3 L 167.8 190.1 L 165.3 190.5 L 162.7 190.7 L 162.7 184.7 L 142.7 181.7 Z M 64.8 177.7 L 86.1 177.7 L 87.0 177.5 L 87.6 177.3 L 87.9 177.1 L 88.1 177.0 L 88.2 176.8 L 88.4 176.5 L 88.6 175.9 L 88.8 175.0 L 88.8 153.9 L 46.1 153.9 L 46.1 157.0 L 45.970270252227785 157.1945945739746 L 46.1 157.2 L 45.2 162.3 L 43.8 167.1 L 41.8 171.4 L 39.3 175.3 L 36.3 178.7 L 32.8 181.6 L 29.0 184.0 L 24.7 185.8 L 20.1 187.1 L 15.1 188.0 L 14.7 186.3 L 18.9 184.1 L 22.5 181.7 L 25.6 179.1 L 28.1 176.4 L 30.2 173.6 L 31.7 170.7 L 32.9 167.5 L 33.7 164.2 L 34.1 160.6 L 34.1 108.2 L 46.1 114.2 L 88.8 114.2 L 94.8 109.2 L 105.8 118.2 L 100.8 122.2 L 100.8 173.7 L 100.7 176.3 L 100.3 178.8 L 99.4 181.2 L 98.2 183.5 L 96.6 185.5 L 94.6 187.1 L 92.3 188.3 L 89.9 189.1 L 87.4 189.6 L 84.8 189.7 L 84.8 183.7 L 64.8 180.7 Z M 140.0 31.4 L 143.0 33.4 L 140.0 35.2 L 140.0 151.2 L 128.0 157.2 L 128.0 29.4 Z M 46.1 135.6 L 46.1 149.9 L 88.8 149.9 L 88.8 135.6 Z M 46.1 118.2 L 46.1 131.6 L 88.8 131.6 L 88.8 118.2 Z M 33.8 106.8 L 21.8 112.8 L 21.8 60.4 L 33.8 66.4 L 97.1 66.4 L 103.1 61.4 L 114.1 70.4 L 109.1 74.4 L 109.1 99.8 L 97.1 105.8 L 97.1 99.8 L 33.8 99.8 Z M 33.8 70.4 L 33.8 95.8 L 46.9 95.8 L 46.9 70.4 Z M 58.9 70.4 L 58.9 95.8 L 72.0 95.8 L 72.0 70.4 Z M 84.0 70.4 L 84.0 95.8 L 97.1 95.8 L 97.1 70.4 Z M 86.4 15.0 L 89.4 17.0 L 86.4 18.8 L 86.4 36.2 L 100.01818180084229 36.2 L 108.2 27.2 L 118.2 36.2 L 118.2 40.2 L 86.4 40.2 L 86.4 58.5 L 74.4 64.5 L 74.4 13.0 Z M 57.6 15.0 L 60.6 17.0 L 57.6 18.8 L 57.6 58.5 L 45.6 64.5 L 45.6 40.2 L 13.8 40.2 L 13.8 36.2 L 45.6 36.2 L 45.6 13.0 Z " />
</g>
</svg>
