<svg xmlns="http://www.w3.org/2000/svg" xmlns:xlink="http://www.w3.org/1999/xlink" version="1.1" baseProfile="full" viewBox="0 0 200 200" width="200" height="200">
<g fill="black">
<path d="M 78.73611106872559 90.45833330154419 L 78.2 98.5 L 77.58911066055298 102.23321237564087 L 77.6 102.3 L 79.6 110.7 L 82.2 118.2 L 83.4632158279419 120.88942728042602 L 83.7 120.7 L 86.4 118.1 L 89.1 115.6 L 91.8 113.2 L 96.8 108.4 L 101.4 103.8 L 103.6 101.5 L 105.01761484146118 100.0148796081543 L 104.9 99.9 L 105.8 99.1 L 113.5 108.3 L 114.0 111.9 L 110.11144180297852 110.62738094329833 L 105.0 113.8 L 98.8 117.2 L 95.6 118.8 L 88.8 121.8 L 85.2 123.1 L 84.6185585975647 123.3491891860962 L 85.3 124.8 L 89.0 130.6 L 93.3 135.7 L 98.2 140.1 L 103.7 143.8 L 109.9 146.9 L 116.9 149.4 L 124.2 151.9 L 112.6 161.8 L 104.5 158.2 L 97.3 153.7 L 90.9 148.4 L 85.5 142.4 L 81.1 135.6 L 77.7 128.3 L 75.3 120.3 L 74.5383165359497 115.98379392623902 L 73.5 119.6 L 69.7 128.8 L 64.8 136.9 L 59.0 143.9 L 52.1 149.8 L 44.4 154.4 L 35.8 157.9 L 29.3 159.3521276473999 L 29.3 172.4 L 111.5 172.4 L 121.5 162.4 L 133.5 172.4 L 133.5 176.4 L 29.3 176.4 L 29.3 183.4 L 17.3 189.4 L 17.3 18.5 L 29.3 24.5 L 104.9 24.5 L 114.9 14.5 L 126.9 24.5 L 126.9 28.5 L 29.3 28.5 L 29.3 156.7285714149475 L 34.4 154.3 L 41.7 149.8 L 48.0 144.7 L 53.3 138.8 L 57.7 132.3 L 61.2 124.9 L 63.9 116.7 L 65.8 107.6 L 66.8 97.5 L 67.0 86.5 L 67.0 84.1 L 79.0 86.5 L 82.0 88.5 Z M 147.5 177.0 L 167.5 177.0 L 168.7 176.9 L 169.7 176.7 L 170.2 176.5 L 170.6 176.4 L 170.8 176.2 L 170.9 176.0 L 171.1 175.7 L 171.3 175.1 L 171.4 174.2 L 171.5 173.0 L 171.5 15.0 L 183.5 17.0 L 186.5 19.0 L 183.5 20.8 L 183.5 173.0 L 183.4 175.5 L 182.9 178.0 L 182.1 180.4 L 180.9 182.7 L 179.3 184.7 L 177.2 186.3 L 175.0 187.6 L 172.6 188.4 L 170.1 188.8 L 167.5 189.0 L 167.5 183.0 L 147.5 180.0 Z M 149.7 32.0 L 152.7 34.0 L 149.7 35.8 L 149.7 150.0 L 137.7 156.0 L 137.7 30.0 Z M 31.8 129.6 L 31.5 125.1 L 34.4 121.6 L 36.3 120.9 L 38.0 120.1 L 39.6 119.0 L 41.1 117.6 L 42.5 115.9 L 43.9 113.7 L 45.1 111.2 L 46.1 108.2 L 47.1 104.8 L 47.4 101.1 L 49.2 101.0 L 49.6 104.9 L 50.2 108.6 L 50.3 112.1 L 50.1 115.6 L 49.4 118.9 L 48.4 122.0 L 46.9 125.0 L 45.0 127.7 L 42.6 130.1 L 39.8 132.3 L 35.3 132.6 Z M 101.0 90.2 L 97.8 87.6 L 94.4 85.0 L 90.8 82.5 L 86.9 80.1 L 82.9 77.7 L 78.7 75.2 L 74.3 72.8 L 71.04065418243408 70.9892523765564 L 67.9 75.6 L 62.2 81.7 L 55.5 86.9 L 48.0 91.2 L 39.6 94.6 L 30.3 97.0 L 29.8 95.3 L 38.1 91.1 L 45.3 86.6 L 51.5 81.7 L 56.7 76.4 L 61.0 70.7 L 64.3 64.4 L 66.8 57.7 L 68.5 50.4 L 69.2 42.4 L 69.2 34.8 L 69.1 31.4 L 81.2 33.5 L 84.2 35.4 L 80.95810222625732 37.450996494293214 L 80.6 43.3 L 79.0 52.5 L 76.3 61.0 L 72.6 68.7 L 72.44349145889282 68.92976789474487 L 75.5 69.4 L 80.6 70.5 L 85.4 71.9 L 90.1 73.4 L 94.6 75.2 L 99.0 77.1 L 103.2 79.2 L 107.2 81.5 L 111.0 83.9 L 114.7 86.4 L 116.7 90.5 L 115.4 94.9 L 111.3 96.9 L 106.9 95.6 L 104.1 92.8 Z M 36.7 69.7 L 35.0 65.4 L 36.7 61.2 L 38.5 59.9 L 40.1 58.7 L 41.4 57.4 L 42.6 56.1 L 43.7 54.6 L 44.6 53.1 L 45.3 51.4 L 45.9 49.6 L 46.3 47.5 L 46.0 45.4 L 47.7 44.8 L 48.5 47.0 L 49.6 49.2 L 50.3 51.6 L 50.7 54.1 L 50.6 56.7 L 50.2 59.3 L 49.5 61.9 L 48.4 64.5 L 47.0 67.1 L 45.2 69.7 L 41.0 71.4 Z M 113.0 46.1 L 114.3 49.4 L 109.91282052993775 49.09743585586548 L 108.7 50.2 L 106.3 52.2 L 103.8 54.1 L 101.1 56.0 L 98.3 57.8 L 95.3 59.5 L 92.2 61.1 L 88.8 62.6 L 85.6 64.3 L 84.5 62.8 L 87.3 60.4 L 91.9 55.2 L 94.0 52.7 L 95.9 50.3 L 97.7 48.0 L 99.4 45.7 L 100.8 43.4 L 102.1 41.2 L 102.76154661178589 39.937047481536865 L 102.7 39.9 L 103.0777777671814 39.33333330154419 L 103.2 39.1 L 103.22258062362671 39.11612901687622 L 103.7 38.4 Z " />
</g>
</svg>
