<svg xmlns="http://www.w3.org/2000/svg" xmlns:xlink="http://www.w3.org/1999/xlink" version="1.1" baseProfile="full" viewBox="0 0 200 200" width="200" height="200">
<g fill="black">
<path d="M 146.2 176.0 L 166.2 176.0 L 167.5 175.9 L 168.4 175.7 L 169.3 175.4 L 169.5 175.2 L 169.6 175.0 L 169.8 174.7 L 170.0 174.1 L 170.2 173.2 L 170.2 14.0 L 182.2 16.0 L 185.2 18.0 L 182.2 19.8 L 182.2 172.0 L 182.1 174.5 L 181.7 177.0 L 180.8 179.4 L 179.6 181.7 L 178.0 183.7 L 176.0 185.3 L 173.7 186.6 L 171.3 187.4 L 168.8 187.8 L 166.2 188.0 L 166.2 182.0 L 146.2 179.0 Z M 112.2 145.0 L 114.2 145.0 L 112.2 170.0 L 115.8 172.4 L 118.2 176.0 L 115.8 179.6 L 112.2 182.0 L 43.6 182.0 L 41.0 181.8 L 38.6 181.4 L 36.1 180.6 L 33.9 179.3 L 31.9 177.7 L 30.2 175.7 L 29.0 173.4 L 28.2 171.0 L 27.7 168.5 L 27.6 166.0 L 27.6 110.0 L 39.6 112.0 L 42.6 114.0 L 39.6 115.8 L 39.6 141.85245904922485 L 45.6 139.0 L 51.8 136.2 L 58.1 133.5 L 70.5 128.1 L 94.34668483734131 118.09977731704711 L 94.3 118.0 L 94.39290199279785 118.08039598464966 L 95.3 117.7 L 95.92442827224731 119.40575523376465 L 104.7 127.0 L 104.9 130.1 L 100.89192171096802 128.36516017913817 L 99.4 128.9 L 93.0 131.0 L 86.6 133.0 L 80.1 135.0 L 67.1 138.8 L 60.6 140.6 L 54.0 142.4 L 47.4 144.1 L 40.7 145.5 L 39.6 145.71029415130616 L 39.6 166.0 L 39.7 167.2 L 39.8 168.1 L 40.0 168.7 L 40.2 169.0 L 40.4 169.2 L 40.5 169.4 L 40.9 169.5 L 41.5 169.7 L 42.4 169.9 L 43.6 170.0 L 106.2 170.0 Z M 142.8 31.0 L 145.8 33.0 L 142.8 34.8 L 142.8 149.0 L 130.8 155.0 L 130.8 29.0 Z M 67.6 20.4 L 69.5 23.5 L 65.05029468536377 23.96031436920166 L 64.8 24.3 L 63.2 26.2 L 61.7 28.2 L 58.3 32.2 L 56.5 34.2 L 54.6 36.2 L 52.8 38.0 L 93.0 38.0 L 99.0 33.0 L 110.0 42.0 L 105.0 46.0 L 105.0 105.0 L 93.0 111.0 L 93.0 103.0 L 36.3 103.0 L 24.3 109.0 L 24.3 32.0 L 36.3 38.0 L 50.019999980926514 38.0 L 50.5 37.0 L 51.2 34.2 L 52.0 31.6 L 52.8 29.1 L 53.5 26.6 L 54.3 24.3 L 54.9 21.9 L 55.6 19.6 L 56.2 17.4 L 56.5290322303772 16.24838705062866 L 56.4 16.2 L 56.75714282989502 15.45 L 56.8 15.3 L 56.823326110839844 15.311015129089355 L 57.4 14.1 Z M 36.3 72.0 L 36.3 99.0 L 93.0 99.0 L 93.0 72.0 Z M 36.3 42.0 L 36.3 68.0 L 93.0 68.0 L 93.0 42.0 Z " />
</g>
</svg>
