<svg xmlns="http://www.w3.org/2000/svg" xmlns:xlink="http://www.w3.org/1999/xlink" version="1.1" baseProfile="full" viewBox="0 0 200 200" width="200" height="200">
<g fill="black">
<path d="M 167.8 178.2 L 166.2 180.0 L 164.3 181.6 L 162.3 182.9 L 160.1 184.0 L 157.9 184.9 L 155.5 185.5 L 153.1 185.8 L 150.6 186.0 L 150.6 180.0 L 130.6 177.0 L 130.6 174.0 L 150.6 174.0 L 151.9 173.9 L 153.2 173.7 L 154.3 173.4 L 155.3 173.1 L 156.2 172.6 L 157.0 172.0 L 157.8 171.3 L 158.6 170.5 L 159.4 169.5 L 160.1 168.3 L 161.6 164.8 L 163.1 159.7 L 164.5 152.9 L 165.8 144.7 L 166.9 134.9 L 167.7 123.8 L 168.4 111.2 L 168.9 97.2 L 169.2 81.8 L 169.2880952835083 67.0 L 145.7709677696228 67.0 L 145.1 82.6 L 143.3 99.9 L 140.6 115.9 L 136.9 130.6 L 132.3 143.9 L 126.6 155.9 L 119.9 166.4 L 112.3 175.5 L 103.6 182.9 L 94.0 188.7 L 93.1 187.2 L 97.16593408584595 183.5406593322754 L 94.1 183.2 L 86.9 178.8 L 83.2 176.7 L 79.4 174.6 L 75.6 172.7 L 67.8 168.9 L 63.8 167.1 L 59.7 165.2 L 58.96883563995361 164.88664379119874 L 54.2 170.8 L 48.1 175.9 L 40.9 180.0 L 32.7 183.1 L 23.6 185.1 L 13.5 186.0 L 13.2 184.2 L 22.7 181.4 L 30.9 178.1 L 37.8 174.3 L 43.4 170.0 L 47.9 165.2 L 51.2 159.9 L 53.5 154.0 L 54.9 147.4 L 55.2 140.1 L 54.6 132.0 L 54.60619192123413 131.99938077926635 L 54.4 129.8 L 66.6 130.8 L 69.7 132.5 L 66.6 134.8586956977844 L 66.6 140.4 L 65.4 149.3 L 64.07080106735229 153.78604650497437 L 64.8 153.4 L 68.2 151.4 L 71.5 149.5 L 81.4 144.1 L 87.8 140.7 L 90.9 139.0 L 93.14920234680176 137.694011592865 L 93.1 137.6 L 93.18233470916748 137.6747734069824 L 94.0 137.2 L 94.83750562667846 139.17793874740602 L 102.9 146.5 L 103.1 149.7 L 99.23648290634155 148.07007875442505 L 98.7 148.3 L 95.3 149.3 L 91.8 150.4 L 84.6 152.4 L 80.9 153.3 L 73.5 154.9 L 69.7 155.6 L 65.8 156.2 L 63.21825475692749 156.66339015960693 L 63.0 157.4 L 60.61951503753662 161.91039257049562 L 65.1 162.3 L 69.6 163.0 L 74.1 163.9 L 78.5 165.0 L 82.9 166.2 L 87.2 167.6 L 91.4 169.2 L 95.7 170.9 L 99.9 172.7 L 102.7 176.3 L 102.46738901138306 178.440020942688 L 108.2 171.9 L 114.4 162.8 L 119.8 152.5 L 124.3 141.0 L 128.0 128.2 L 130.8 114.1 L 132.7 98.7 L 133.7 82.0 L 133.86666669845582 67.0 L 107.4 67.0 L 107.4 63.0 L 133.9 63.0 L 133.9 18.0 L 145.9 20.0 L 148.9 22.0 L 145.9 23.8 L 145.9 63.0 L 169.3 63.0 L 175.3 58.0 L 186.3 67.0 L 181.3 70.0 L 181.27034111022948 70.01235790252686 L 181.2 81.9 L 180.9 97.5 L 180.4 111.7 L 179.7 124.6 L 178.8 136.1 L 177.7 146.2 L 176.3 155.0 L 174.8 162.5 L 172.9 168.8 L 170.6 174.1 L 169.3 176.2 Z M 22.3 163.9 L 21.6 159.4 L 24.1 155.6 L 25.5 155.2 L 26.8 154.6 L 28.0 153.9 L 29.1 153.0 L 30.2 151.9 L 31.2 150.6 L 32.1 148.9 L 32.8 147.0 L 33.4 144.8 L 33.3 142.4 L 35.1 142.1 L 35.6 144.6 L 36.4 147.0 L 36.9 149.5 L 37.1 151.9 L 36.9 154.4 L 36.4 156.9 L 35.5 159.3 L 34.2 161.6 L 32.6 163.7 L 30.6 165.7 L 26.1 166.5 Z M 91.0 131.1 L 87.5 128.9 L 84.0 126.9 L 80.2 124.9 L 76.3 123.0 L 72.2 121.1 L 68.0 119.2 L 63.6 117.3 L 60.418862915039064 116.05520725250244 L 59.0 118.2 L 53.7 123.8 L 47.3 128.6 L 40.0 132.4 L 31.7 135.4 L 22.5 137.5 L 12.4 138.7 L 12.0 136.9 L 21.5 133.8 L 29.8 130.4 L 37.0 126.6 L 42.9 122.4 L 47.8 117.8 L 51.5 112.8 L 54.2 107.5 L 56.0 101.6 L 56.9 95.2 L 56.8 88.2 L 56.86964416503906 88.19825887680054 L 56.8 85.9 L 68.8 87.9 L 71.9 89.8 L 68.51312780380249 92.01183490753174 L 68.2 96.5 L 66.3 104.5 L 63.3 111.7 L 61.8785439491272 113.84871263504029 L 64.4 114.0 L 69.3 114.4 L 74.0 115.2 L 78.6 116.1 L 83.1 117.2 L 87.5 118.5 L 91.8 120.0 L 95.9 121.7 L 99.9 123.5 L 103.8 125.4 L 106.3 129.2 L 105.6 133.7 L 101.8 136.3 L 97.3 135.5 L 94.2 133.3 Z M 23.5 116.1 L 22.6 111.7 L 25.0 107.8 L 26.5 107.3 L 27.7 106.7 L 28.8 106.0 L 29.8 105.1 L 30.7 104.1 L 31.5 102.8 L 32.2 101.1 L 32.6 99.2 L 32.9 96.9 L 32.4 94.6 L 34.1 94.0 L 35.0 96.4 L 36.2 98.7 L 37.0 101.0 L 37.5 103.4 L 37.6 105.9 L 37.3 108.4 L 36.6 110.9 L 35.4 113.3 L 33.8 115.5 L 31.9 117.6 L 27.4 118.6 Z M 102.4 101.6 L 102.6 105.2 L 98.35280895233154 103.46966295242309 L 97.8 103.7 L 95.3 104.8 L 92.6 105.8 L 89.7 106.8 L 86.6 107.8 L 83.3 108.8 L 79.8 109.8 L 76.1 110.6 L 72.4 111.8 L 71.6 110.2 L 75.0 108.2 L 78.1 106.0 L 81.0 103.9 L 83.6 102.0 L 86.1 100.1 L 88.4 98.3 L 90.4 96.6 L 92.3 95.0 L 93.9 93.4 L 94.51877727508545 92.73362445831299 L 94.4 92.6 L 95.2 92.0 Z M 65.5 15.0 L 67.7 17.0 L 65.5 18.57142858505249 L 65.5 34.9 L 87.9 34.9 L 87.9 17.0 L 99.9 19.0 L 102.9 21.0 L 99.9 22.8 L 99.9 38.9 L 87.9 44.9 L 87.9 38.9 L 65.5 38.9 L 65.5 51.0 L 93.5 51.0 L 99.0 46.0 L 109.5 55.0 L 104.5 58.5 L 104.5 84.0 L 93.5 89.5 L 93.5 84.0 L 28.5 84.0 L 17.5 89.5 L 17.5 45.5 L 28.5 51.0 L 56.5 51.0 L 56.5 38.9 L 36.0 38.9 L 24.0 44.9 L 24.0 17.0 L 36.0 19.0 L 39.0 21.0 L 36.0 22.8 L 36.0 34.9 L 56.5 34.9 L 56.5 13.0 Z M 47.6 65.7 L 45.8 68.1 L 43.6 70.1 L 41.1 71.7 L 38.2 73.1 L 35.0 74.2 L 31.4 75.1 L 28.5 75.60749998092652 L 28.5 80.0 L 56.5 80.0 L 56.5 55.0 L 49.5 55.0 L 49.5 60.0 L 48.8 63.0 Z M 83.9 65.4 L 84.0 66.3 L 84.2 66.9 L 84.8 67.9 L 85.4 68.4 L 86.3 68.9 L 87.5 69.2 L 89.0 69.5 L 93.5 69.5 L 93.5 55.0 L 84.0 55.0 L 84.0 63.0 L 83.9 64.3 Z M 84.4 76.2 L 82.3 75.7 L 80.3 74.8 L 78.4 73.5 L 76.9 71.8 L 75.7 69.8 L 74.8 67.7 L 74.2 65.4 L 74.0 63.0 L 74.0 55.0 L 65.5 55.0 L 65.5 80.0 L 93.5 80.0 L 93.5 76.5 L 86.6 76.5 Z M 28.5 55.0 L 28.5 73.22285718917847 L 30.4 72.3 L 33.4 70.6 L 35.9 68.9 L 37.8 67.2 L 39.2 65.5 L 40.1 64.0 L 40.5 62.5 L 40.6 61.2 L 40.5 60.0 L 40.5 55.0 Z " />
</g>
</svg>
