<svg xmlns="http://www.w3.org/2000/svg" xmlns:xlink="http://www.w3.org/1999/xlink" version="1.1" baseProfile="full" viewBox="0 0 200 200" width="200" height="200">
<g fill="black">
<path d="M 75.1 173.8 L 73.5 175.7 L 71.7 177.3 L 69.7 178.8 L 67.6 179.9 L 65.3 180.8 L 62.9 181.5 L 60.5 181.8 L 58.0 182.0 L 58.0 176.0 L 42.0 173.0 L 42.0 170.0 L 58.0 170.0 L 59.3 169.9 L 60.5 169.7 L 61.6 169.4 L 62.5 169.1 L 64.1 168.1 L 64.8 167.4 L 65.5 166.6 L 66.2 165.5 L 66.9 164.3 L 68.2 160.9 L 69.5 155.6 L 70.8 148.8 L 71.9 140.5 L 72.8 130.7 L 73.6 119.4 L 74.2 106.7 L 74.6 92.6 L 74.9 77.0 L 74.98823528289795 62.0 L 55.87165775299072 62.0 L 55.2 77.7 L 53.7 95.2 L 51.4 111.4 L 48.2 126.2 L 44.3 139.7 L 39.4 151.8 L 33.7 162.6 L 27.2 171.9 L 19.7 179.6 L 11.5 185.7 L 10.4 184.2 L 17.0 177.0 L 22.8 168.7 L 28.0 159.4 L 32.4 148.9 L 36.1 137.2 L 39.2 124.2 L 41.5 109.8 L 43.0 94.2 L 43.9 77.2 L 43.98351650238037 62.0 L 18.0 62.0 L 18.0 58.0 L 44.0 58.0 L 44.0 13.0 L 56.0 15.0 L 59.0 17.0 L 56.0 18.8 L 56.0 58.0 L 75.0 58.0 L 81.0 53.0 L 92.0 62.0 L 87.0 65.0 L 86.97068881988525 65.01221303939819 L 86.9 77.1 L 86.6 92.8 L 86.2 107.2 L 85.6 120.1 L 84.8 131.7 L 83.8 141.9 L 82.6 150.7 L 81.3 158.2 L 79.7 164.4 L 77.7 169.5 L 76.5 171.8 Z M 102.1 169.0 L 137.0 169.0 L 137.0 101.0 L 97.4 101.0 L 97.4 97.0 L 137.0 97.0 L 137.0 45.80273971557617 L 134.2 46.8 L 126.6 49.1 L 118.8 51.1 L 110.7 52.7 L 102.4 53.8 L 101.9 52.1 L 109.7 49.0 L 117.2 46.0 L 124.4 42.9 L 131.4 39.8 L 137.0 37.04179105758667 L 137.0 37.0 L 137.0848484992981 37.0 L 138.1 36.5 L 144.6 33.0 L 150.8 29.4 L 156.7 25.7 L 162.4 21.8 L 167.00384616851807 18.30448713302612 L 167.0 18.3 L 167.0038758277893 18.304464626312257 L 167.8 17.7 L 174.30734729766846 26.71732406616211 L 174.9 27.4 L 174.8 27.4 L 174.7360824584961 27.440206146240236 L 174.9 27.4 L 175.0 30.9 L 171.50167150497435 29.474755001068115 L 168.6 31.3 L 162.2 34.9 L 155.5 38.3 L 149.0 41.26323528289795 L 149.0 97.0 L 166.5 97.0 L 176.5 87.0 L 188.5 97.0 L 188.5 101.0 L 149.0 101.0 L 149.0 169.0 L 161.8 169.0 L 171.8 159.0 L 183.8 169.0 L 183.8 173.0 L 102.1 173.0 Z " />
</g>
</svg>
