<svg xmlns="http://www.w3.org/2000/svg" xmlns:xlink="http://www.w3.org/1999/xlink" version="1.1" baseProfile="full" viewBox="0 0 200 200" width="200" height="200">
<g fill="black">
<path d="M 15.4 174.9 L 24.3 173.0 L 33.2 171.2 L 42.2 169.4 L 51.2 167.5 L 60.2 165.8 L 64.975 164.8449999809265 L 64.4 164.5 L 66.1 159.5 L 67.8 154.6 L 69.4 150.1 L 70.9 145.7 L 72.4 141.7 L 73.8 137.8 L 75.1 134.1 L 76.2 130.7 L 77.2 127.5 L 77.79119749069214 125.5293417930603 L 77.7 125.5 L 77.99411764144898 124.85294113159179 L 78.1 124.5 L 78.1 120.0 L 37.6 120.0 L 25.6 126.0 L 25.6 79.0 L 37.6 85.0 L 78.1 85.0 L 84.1 80.0 L 95.1 89.0 L 90.1 93.0 L 90.1 120.0 L 80.96008968353271 124.56995515823364 L 89.2 129.2 L 91.2 132.2 L 87.23329181671143 132.74713220596314 L 85.9 135.1 L 84.0 138.3 L 81.9 141.7 L 79.7 145.2 L 77.4 148.9 L 74.8 152.8 L 72.1 156.9 L 69.1 161.0 L 66.5297872543335 164.5340425491333 L 69.2 164.0 L 78.3 162.3 L 87.4 160.7 L 96.6 159.3 L 105.9 158.1 L 106.3 159.8 L 97.5 163.0 L 88.7 165.9 L 79.9 168.7 L 71.0 171.4 L 53.4 176.6 L 27.0 184.1 L 22.11129274368286 185.43328380584717 L 20.8 189.0 L 18.2 186.5 L 13.4 175.4 Z M 167.2 178.2 L 165.6 180.0 L 163.7 181.6 L 161.7 182.9 L 159.5 184.0 L 157.3 184.9 L 154.9 185.5 L 152.4 185.8 L 150.0 186.0 L 150.0 180.0 L 130.0 177.0 L 130.0 174.0 L 150.0 174.0 L 151.3 173.9 L 152.6 173.7 L 153.7 173.4 L 154.7 173.1 L 155.6 172.6 L 156.5 172.0 L 157.3 171.3 L 158.1 170.5 L 158.8 169.5 L 159.6 168.3 L 161.1 164.8 L 162.6 159.6 L 164.1 152.9 L 165.3 144.7 L 166.4 134.9 L 167.3 123.8 L 168.0 111.2 L 168.5 97.2 L 168.8 81.8 L 168.97619047164918 67.0 L 144.8709677696228 67.0 L 144.2 82.6 L 142.4 99.9 L 139.7 115.9 L 135.9 130.6 L 131.2 144.0 L 125.4 155.9 L 118.6 166.4 L 110.9 175.5 L 102.1 182.9 L 92.4 188.7 L 91.5 187.2 L 99.7 180.0 L 106.9 171.9 L 113.2 162.8 L 118.6 152.5 L 123.2 140.9 L 126.9 128.2 L 129.8 114.1 L 131.7 98.7 L 132.8 82.0 L 132.9666666984558 67.0 L 106.0 67.0 L 106.0 63.0 L 133.0 63.0 L 133.0 18.0 L 145.0 20.0 L 148.0 22.0 L 145.0 23.8 L 145.0 63.0 L 169.0 63.0 L 175.0 58.0 L 186.0 67.0 L 181.0 70.0 L 180.9405351638794 70.02477703094482 L 180.8 81.9 L 180.5 97.5 L 180.0 111.7 L 179.3 124.6 L 178.4 136.1 L 177.2 146.2 L 175.9 155.0 L 174.3 162.6 L 172.4 168.9 L 170.1 174.1 L 168.7 176.3 Z M 37.8 152.0 L 37.2 149.0 L 36.3 146.0 L 35.3 143.0 L 34.1 140.1 L 32.7 137.1 L 31.2 134.1 L 29.5 131.1 L 27.5 128.3 L 28.7 127.0 L 34.5 131.4 L 37.2 133.8 L 39.7 136.4 L 42.0 139.2 L 44.1 142.2 L 46.0 145.4 L 47.7 148.7 L 49.2 152.2 L 50.5 155.8 L 49.6 160.3 L 45.8 162.9 L 41.3 162.0 L 38.7 158.2 L 38.4 155.1 Z M 37.6 89.0 L 37.6 116.0 L 78.1 116.0 L 78.1 89.0 Z M 19.0 65.0 L 50.8 65.0 L 50.8 41.0 L 13.7 41.0 L 13.7 37.0 L 50.8 37.0 L 50.8 13.0 L 62.8 15.0 L 65.8 17.0 L 62.8 18.8 L 62.8 37.0 L 81.0 37.0 L 91.0 27.0 L 103.0 37.0 L 103.0 41.0 L 62.8 41.0 L 62.8 65.0 L 80.61818180084228 65.0 L 88.8 56.0 L 98.8 65.0 L 98.8 69.0 L 19.0 69.0 Z " />
</g>
</svg>
