<svg xmlns="http://www.w3.org/2000/svg" xmlns:xlink="http://www.w3.org/1999/xlink" version="1.1" baseProfile="full" viewBox="0 0 200 200" width="200" height="200">
<g fill="black">
<path d="M 170.8 177.9 L 169.1 179.8 L 167.3 181.4 L 165.3 182.8 L 163.2 184.0 L 160.9 184.9 L 158.5 185.5 L 156.1 185.8 L 153.6 186.0 L 153.6 180.0 L 133.6 177.0 L 133.6 174.0 L 153.6 174.0 L 154.9 173.9 L 156.2 173.7 L 158.2 173.1 L 159.0 172.6 L 160.6 171.4 L 161.3 170.5 L 162.0 169.5 L 162.7 168.3 L 164.1 164.8 L 165.5 159.7 L 166.8 152.9 L 168.0 144.7 L 168.9 135.0 L 169.7 123.8 L 170.4 111.2 L 170.8 97.2 L 171.1 81.8 L 171.1880952835083 67.0 L 150.28709678649903 67.0 L 149.7 82.6 L 148.1 99.9 L 145.5 115.9 L 142.1 130.5 L 137.8 143.8 L 132.5 155.8 L 126.3 166.3 L 119.2 175.4 L 111.1 182.9 L 102.2 188.7 L 101.2 187.2 L 108.5 180.1 L 115.0 172.0 L 120.7 162.9 L 125.6 152.6 L 129.7 141.1 L 133.1 128.3 L 135.6 114.2 L 137.4 98.8 L 138.3 82.0 L 138.38333330154418 67.0 L 114.4 67.0 L 114.4 63.0 L 138.4 63.0 L 138.4 18.0 L 150.4 20.0 L 153.4 22.0 L 150.4 23.8 L 150.4 63.0 L 171.2 63.0 L 177.2 58.0 L 188.2 67.0 L 183.2 70.0 L 183.1703411102295 70.01235790252686 L 183.1 81.9 L 182.8 97.5 L 182.4 111.7 L 181.7 124.5 L 180.9 136.0 L 179.9 146.1 L 178.6 154.9 L 177.2 162.3 L 175.5 168.6 L 173.4 173.7 L 172.2 175.9 Z M 34.4 181.1 L 22.4 187.1 L 22.4 112.7 L 34.4 118.7 L 93.1 118.7 L 99.1 113.7 L 110.1 122.7 L 105.1 126.7 L 105.1 178.1 L 93.1 184.1 L 93.1 178.1 L 34.4 178.1 Z M 34.4 149.9 L 34.4 174.1 L 57.8 174.1 L 57.8 149.9 Z M 69.8 149.9 L 69.8 174.1 L 93.1 174.1 L 93.1 149.9 Z M 34.4 122.7 L 34.4 145.9 L 57.8 145.9 L 57.8 122.7 Z M 69.8 122.7 L 69.8 145.9 L 93.1 145.9 L 93.1 122.7 Z M 93.8 96.4 L 87.3 90.7 L 81.6 84.4 L 76.5 77.6 L 72.2 70.1 L 68.6 62.2 L 65.8 53.8 L 63.8 44.8 L 63.673840045928955 43.60148077011108 L 62.5 45.1 L 57.5 50.6 L 52.4 55.7 L 47.0 60.3 L 45.11889247894287 61.73648204803467 L 46.1 61.9 L 49.1 63.9 L 46.1 65.7 L 46.1 89.5 L 52.1 88.8 L 58.3 88.0 L 64.6 87.3 L 71.0 86.7 L 77.7 86.3 L 78.0 88.0 L 71.8 90.4 L 65.7 92.5 L 59.6 94.4 L 53.6 96.2 L 47.7 97.8 L 41.9 99.4 L 36.2 100.8 L 30.7 102.2 L 25.2 103.5 L 23.885261154174806 103.79216413497925 L 22.3 107.4 L 19.8 104.7 L 15.9 93.2 L 17.8 92.9 L 23.2 92.3 L 28.8 91.6 L 34.1 91.03214282989502 L 34.1 69.10666666030883 L 29.8 71.4 L 23.7 74.1 L 17.4 76.2 L 10.9 77.7 L 10.4 76.0 L 15.9 72.8 L 21.3 69.4 L 26.5 65.8 L 31.4 62.0 L 36.2 57.9 L 40.8 53.4 L 45.2 48.7 L 49.4 43.5 L 53.5 38.1 L 53.75 37.7 L 14.3 37.7 L 14.3 33.7 L 55.7 33.7 L 55.7 16.2 L 67.7 18.2 L 70.7 20.2 L 67.7 22.0 L 67.7 33.7 L 91.3 33.7 L 101.3 23.7 L 113.3 33.7 L 113.3 37.7 L 68.27058820724487 37.7 L 67.2 39.1 L 66.42867031097413 40.08467626571655 L 67.8 43.7 L 71.3 51.7 L 75.2 59.1 L 78.91824369430542 65.12001361846924 L 79.7 64.5 L 82.3 61.9 L 84.9 59.5 L 87.4 57.2 L 89.7 55.0 L 94.0 50.7 L 96.0 48.6 L 97.9 46.6 L 98.93965568542481 45.43803186416626 L 98.8 45.3 L 99.7 44.5 L 107.4 53.8 L 107.8 57.3 L 103.80154676437378 55.991415309906 L 99.8 58.3 L 97.0 59.8 L 94.1 61.3 L 91.1 62.7 L 87.9 64.2 L 84.6 65.5 L 81.1 66.8 L 80.36128807067871 67.14762916564942 L 84.1 72.0 L 89.2 77.6 L 94.7 82.5 L 100.7 86.9 L 107.2 90.7 L 114.3 94.0 L 120.0 96.7 L 108.6 106.0 L 100.9 101.5 Z " />
</g>
</svg>
