<svg xmlns="http://www.w3.org/2000/svg" xmlns:xlink="http://www.w3.org/1999/xlink" version="1.1" baseProfile="full" viewBox="0 0 200 200" width="200" height="200">
<g fill="black">
<path d="M 66.3 175.4 L 64.6 177.2 L 62.7 178.7 L 60.7 180.0 L 58.5 181.1 L 56.2 181.9 L 53.9 182.5 L 51.4 182.8 L 49.0 183.0 L 49.0 177.0 L 33.0 174.0 L 33.0 171.0 L 49.0 171.0 L 50.4 170.9 L 51.6 170.7 L 52.8 170.4 L 53.8 170.1 L 54.8 169.6 L 55.6 169.0 L 56.5 168.3 L 57.3 167.5 L 58.1 166.5 L 58.9 165.3 L 60.5 161.8 L 62.2 156.6 L 63.7 149.9 L 65.1 141.7 L 66.3 131.9 L 67.2 120.8 L 68.0 108.2 L 68.5 94.2 L 68.8 78.8 L 68.97619047164918 64.0 L 50.886486530303955 64.0 L 50.3 79.5 L 48.8 96.8 L 46.6 112.8 L 43.6 127.5 L 39.8 140.9 L 35.2 152.9 L 29.7 163.6 L 23.5 172.9 L 16.4 180.6 L 8.5 186.6 L 7.4 185.3 L 13.6 178.0 L 19.1 169.8 L 23.9 160.6 L 28.1 150.2 L 31.6 138.5 L 34.5 125.6 L 36.7 111.4 L 38.1 95.9 L 38.9 79.1 L 38.98342542648315 64.0 L 14.0 64.0 L 14.0 60.0 L 39.0 60.0 L 39.0 15.0 L 51.0 17.0 L 54.0 19.0 L 51.0 20.8 L 51.0 60.0 L 69.0 60.0 L 75.0 55.0 L 86.0 64.0 L 81.0 67.0 L 80.94053516387939 67.02477703094482 L 80.8 78.9 L 80.5 94.5 L 80.0 108.8 L 79.2 121.6 L 78.2 133.2 L 77.0 143.3 L 75.5 152.2 L 73.8 159.8 L 71.7 166.1 L 69.2 171.4 L 67.8 173.5 Z M 91.2 177.0 L 132.5 177.0 L 132.5 141.7 L 106.6 141.7 L 106.6 137.7 L 132.5 137.7 L 132.5 101.9 L 144.5 103.9 L 147.5 105.9 L 144.5 107.7 L 144.5 137.7 L 148.3 137.7 L 158.3 127.7 L 170.3 137.7 L 170.3 141.7 L 144.5 141.7 L 144.5 177.0 L 163.7 177.0 L 173.7 167.0 L 185.7 177.0 L 185.7 181.0 L 91.2 181.0 Z M 171.0 128.3 L 166.5 121.1 L 162.5 113.5 L 158.9 105.5 L 155.7 97.0 L 153.79090909957887 91.0 L 125.97014923095703 91.0 L 125.0 93.5 L 119.0 105.9 L 112.4 117.3 L 105.1 127.6 L 97.0 136.7 L 88.2 144.6 L 86.9 143.3 L 94.1 134.2 L 100.7 124.5 L 106.7 114.0 L 112.2 102.6 L 116.85901641845703 91.0 L 88.1 91.0 L 88.1 87.0 L 118.20757579803467 87.0 L 121.4 77.2 L 125.0 63.2 L 125.66133337020874 60.0 L 107.4 60.0 L 107.4 56.0 L 126.48800001144409 56.0 L 128.1 48.2 L 130.5 32.2 L 132.3768292427063 15.506097602844239 L 132.6 13.2 L 144.3 16.6 L 147.1 18.9 L 143.74830198287964 20.417750072479247 L 141.8 33.9 L 138.6 50.3 L 137.156493473053 56.0 L 147.5 56.0 L 157.5 46.0 L 169.5 56.0 L 169.5 60.0 L 149.96526317596437 60.0 L 152.9 68.2 L 156.2 77.2 L 159.7 85.8 L 160.2550000190735 87.0 L 166.8 87.0 L 176.8 77.0 L 188.8 87.0 L 188.8 91.0 L 162.1050000190735 91.0 L 163.4 93.8 L 167.3 101.4 L 171.4 108.6 L 175.8 115.2 L 180.5 121.4 L 185.4 127.1 L 190.6 132.4 L 191.8 133.6 L 181.1 141.5 L 175.8 135.1 Z M 136.14350652694702 60.0 L 134.7 65.7 L 130.2 80.1 L 127.52238807678222 87.0 L 152.60322580337524 87.0 L 150.6 78.9 L 148.8 69.2 L 147.79801979064942 60.0 Z M 126.2 23.0 L 128.3 25.9 L 124.52533330917359 26.628444480895997 L 123.8 28.2 L 121.3 33.2 L 118.7 38.1 L 115.9 42.8 L 112.9 47.3 L 109.8 51.6 L 106.5 55.8 L 103.0 59.7 L 99.3 63.3 L 95.3 66.5 L 93.9 65.4 L 96.3 60.9 L 101.1 52.1 L 103.4 47.6 L 105.6 43.1 L 107.7 38.4 L 109.7 33.7 L 111.5 28.9 L 113.3 23.9 L 114.9 18.8 L 114.92965879440308 18.81102361679077 L 115.4 17.4 Z M 169.8 48.6 L 168.4 44.6 L 166.9 40.8 L 165.3 37.0 L 163.6 33.3 L 161.7 29.8 L 159.8 26.2 L 157.7 22.7 L 155.5 19.3 L 156.8 18.0 L 160.2 20.5 L 163.5 23.1 L 166.6 26.1 L 169.6 29.4 L 172.3 32.8 L 174.9 36.5 L 177.3 40.4 L 179.6 44.5 L 181.7 48.8 L 183.6 53.2 L 183.2 57.8 L 179.7 60.8 L 175.2 60.4 L 172.2 57.0 L 171.1 52.7 Z " />
</g>
</svg>
