<svg xmlns="http://www.w3.org/2000/svg" xmlns:xlink="http://www.w3.org/1999/xlink" version="1.1" baseProfile="full" viewBox="0 0 200 200" width="200" height="200">
<g fill="black">
<path d="M 170.4 177.8 L 168.7 179.7 L 166.9 181.3 L 164.9 182.7 L 162.8 183.8 L 160.5 184.7 L 158.1 185.3 L 155.7 185.6 L 153.2 185.8 L 153.2 179.8 L 133.2 176.8 L 133.2 173.8 L 153.2 173.8 L 154.5 173.7 L 155.8 173.5 L 157.8 172.9 L 158.7 172.4 L 160.3 171.2 L 161.0 170.3 L 161.7 169.3 L 162.4 168.1 L 163.9 164.6 L 165.4 159.3 L 166.7 152.5 L 167.9 144.1 L 169.0 134.3 L 169.8 123.0 L 170.5 110.3 L 170.9 96.2 L 171.2 80.6 L 171.28823528289794 65.6 L 149.1723403930664 65.6 L 148.5 81.4 L 146.9 98.9 L 144.3 115.1 L 140.7 130.0 L 136.2 143.5 L 130.7 155.7 L 124.3 166.5 L 117.0 175.8 L 108.6 183.5 L 99.4 189.6 L 98.4 188.1 L 106.0 180.7 L 112.8 172.4 L 118.8 163.0 L 123.9 152.5 L 128.2 140.7 L 131.7 127.7 L 134.4 113.4 L 136.2 97.8 L 137.2 80.8 L 137.28351650238037 65.6 L 112.1 65.6 L 112.1 61.6 L 137.3 61.6 L 137.3 16.1 L 149.3 18.1 L 152.3 20.1 L 149.3 21.9 L 149.3 61.6 L 171.3 61.6 L 177.3 56.6 L 188.3 65.6 L 183.3 68.6 L 183.27068881988527 68.6122130393982 L 183.2 80.7 L 182.9 96.5 L 182.5 110.8 L 181.8 123.8 L 180.9 135.4 L 179.8 145.6 L 178.6 154.5 L 177.0 162.1 L 175.3 168.4 L 173.1 173.6 L 171.8 175.8 Z M 83.2 166.4 L 79.1 162.2 L 76.24054861068726 159.53551120758056 L 75.3 160.7 L 68.5 167.7 L 61.2 173.7 L 53.5 178.8 L 45.3 182.9 L 36.7 185.9 L 27.7 187.8 L 27.3 186.1 L 35.3 182.4 L 42.9 178.1 L 49.9 173.3 L 56.4 167.9 L 62.5 161.7 L 68.1 154.9 L 69.24406776428222 153.19511461257935 L 65.0 149.7 L 59.7 145.5 L 54.1 141.2 L 48.3 136.8 L 44.15550241470337 133.67464113235474 L 41.5 142.0 L 37.1 152.8 L 32.2 162.8 L 26.8 172.0 L 20.6 180.3 L 13.9 187.5 L 12.5 186.4 L 17.5 178.1 L 22.1 169.3 L 26.3 160.0 L 30.1 150.0 L 33.4 139.4 L 36.3 128.1 L 38.6 116.0 L 40.5 103.3 L 40.53333330154419 103.0 L 13.2 103.0 L 13.2 99.0 L 40.977777767181394 99.0 L 42.0 89.8 L 42.684057998657224 78.0 L 20.4 78.0 L 20.4 74.0 L 74.9 74.0 L 84.9 64.0 L 96.9 74.0 L 96.9 78.0 L 54.72465753555298 78.0 L 53.3 91.0 L 52.091366863250734 99.0 L 86.81818180084228 99.0 L 95.0 90.0 L 105.0 99.0 L 105.0 103.0 L 51.48705034255981 103.0 L 51.2 104.9 L 48.5 118.0 L 47.96774196624756 120.0 L 85.8 120.0 L 91.8 115.0 L 102.8 124.0 L 97.8 127.0 L 95.56939783096314 127.92941761016846 L 92.6 134.5 L 87.3 144.1 L 82.1784086227417 152.00701837539674 L 85.7 154.7 L 90.6 158.6 L 95.1 162.6 L 99.3 166.7 L 100.8 171.1 L 98.8 175.2 L 94.5 176.6 L 90.4 174.7 L 86.9 170.5 Z M 46.90322580337524 124.0 L 45.2 130.4 L 44.90150394439697 131.33582553863525 L 50.2 133.5 L 57.0 136.6 L 63.3 140.0 L 69.4 143.5 L 73.80799999237061 146.23599996566773 L 78.0 138.9 L 82.3 129.7 L 84.54545450210571 124.0 Z M 89.43883848190308 13.404718685150147 L 98.3 21.0 L 98.5 24.1 L 94.42813806533813 22.33755226135254 L 92.8 22.9 L 86.6 24.8 L 80.3 26.4 L 73.9 27.9 L 67.4 29.3 L 60.8 30.4 L 54.2 31.4 L 47.4 32.2 L 40.6 32.7 L 38.498520088195804 32.79006338119507 L 38.6 32.9 L 34.98992691040039 34.08147850036621 L 34.6 35.3 L 32.9 40.4 L 31.1 45.5 L 29.2 50.5 L 27.1 55.5 L 24.9 60.6 L 22.5 65.6 L 20.0 70.6 L 17.2 75.5 L 14.0 80.3 L 12.4 79.6 L 13.6 74.0 L 15.0 68.6 L 17.8 58.0 L 19.1 52.8 L 21.5 42.6 L 22.6 37.5 L 23.6 32.5 L 24.319469928741455 28.502945041656496 L 24.3 28.5 L 24.405263137817382 28.026315784454347 L 24.5 27.5 L 24.52110004425049 27.505049610137938 L 24.9 25.8 L 33.30047960281372 29.145323753356934 L 39.7 27.4 L 52.7 24.0 L 59.0 22.1 L 65.1 20.2 L 71.2 18.2 L 77.2 16.2 L 83.0 14.0 L 87.80531768798828 12.011592674255372 L 87.8 12.0 L 87.81085271835327 12.00930233001709 L 88.8 11.6 Z M 90.8 56.7 L 89.8 53.9 L 88.7 51.0 L 87.4 48.1 L 85.9 45.0 L 84.3 42.0 L 82.6 38.8 L 80.8 35.5 L 78.5 32.3 L 79.8 31.1 L 82.9 33.6 L 86.0 36.0 L 88.8 38.5 L 91.4 41.1 L 93.9 43.8 L 96.2 46.5 L 98.3 49.3 L 100.2 52.2 L 101.9 55.1 L 103.5 58.1 L 103.2 62.7 L 99.9 65.8 L 95.3 65.5 L 92.2 62.2 L 91.6 59.5 Z M 54.7 52.8 L 54.4 50.5 L 54.0 48.1 L 53.5 45.8 L 52.1 41.0 L 51.2 38.5 L 49.9 36.3 L 51.3 35.1 L 53.2 37.1 L 55.3 38.8 L 57.3 40.8 L 59.1 42.9 L 60.8 45.2 L 62.3 47.5 L 63.6 50.0 L 64.8 52.7 L 65.9 55.4 L 66.7 58.2 L 65.5 62.6 L 61.5 64.9 L 57.1 63.7 L 54.8 59.7 L 54.9 57.4 Z " />
</g>
</svg>
