<svg xmlns="http://www.w3.org/2000/svg" xmlns:xlink="http://www.w3.org/1999/xlink" version="1.1" baseProfile="full" viewBox="0 0 200 200" width="200" height="200">
<g fill="black">
<path d="M 40.0 182.0 L 28.0 188.0 L 28.0 121.0 L 40.0 123.0 L 43.0 125.0 L 40.0 126.8 L 40.0 166.0 L 94.0 166.0 L 94.0 110.0 L 106.0 112.0 L 109.0 114.0 L 106.0 115.8 L 106.0 166.0 L 160.0 166.0 L 160.0 121.0 L 172.0 123.0 L 175.0 125.0 L 172.0 126.8 L 172.0 176.0 L 160.0 182.0 L 160.0 170.0 L 40.0 170.0 Z M 29.8 102.6 L 43.8 102.6 L 45.1 102.5 L 46.0 102.4 L 46.6 102.2 L 46.9 102.0 L 47.1 101.9 L 47.4 101.3 L 47.6 100.7 L 47.8 99.8 L 47.8 69.35949363708497 L 47.6 69.4 L 39.8 71.0 L 24.4 74.0 L 20.867817878723145 74.61224489212036 L 19.2 78.0 L 16.9 75.3 L 13.3 63.7 L 15.3 63.4 L 22.9 62.7 L 30.5 61.9 L 46.1 60.3 L 47.8 60.10874996185303 L 47.8 39.2 L 54.85288457870483 40.3754807472229 L 56.7 38.8 L 59.8 35.8 L 62.8 33.0 L 65.7 30.4 L 68.5 27.8 L 71.1 25.3 L 73.6 22.9 L 73.8875 22.6 L 15.1 22.6 L 15.1 18.6 L 77.8 18.6 L 78.1 18.3 L 80.1 16.1 L 80.51976623535157 16.583528137207033 L 84.1 13.6 L 95.1 22.6 L 90.1 25.6 L 82.13636360168456 28.918181800842284 L 79.5 30.5 L 76.4 32.4 L 73.1 34.2 L 69.7 36.0 L 66.1 37.8 L 62.3 39.6 L 58.891549301147464 41.0485915184021 L 59.8 41.2 L 62.8 43.2 L 59.8 45.0 L 59.8 58.75874996185303 L 62.1 58.5 L 70.2 57.6 L 78.4 56.7 L 86.8 56.0 L 95.2 55.4 L 95.6 57.2 L 87.5 59.7 L 79.4 62.0 L 71.4 64.1 L 63.4 66.0 L 59.8 66.82025318145752 L 59.8 98.6 L 59.7 101.2 L 59.2 103.7 L 58.4 106.1 L 57.2 108.3 L 55.6 110.3 L 53.5 112.0 L 51.3 113.2 L 48.9 114.0 L 46.4 114.5 L 43.8 114.6 L 43.8 108.6 L 29.8 105.6 Z M 166.1 108.4 L 164.0 109.6 L 162.0 110.6 L 159.8 111.5 L 157.6 112.2 L 155.4 112.7 L 153.1 113.1 L 150.7 113.4 L 148.4 113.5 L 148.4 107.5 L 128.4 104.5 L 128.4 101.5 L 148.4 101.5 L 149.9 101.4 L 151.5 101.2 L 152.9 101.0 L 154.3 100.7 L 157.1 99.7 L 159.7 98.3 L 160.9 97.4 L 162.2 96.4 L 163.3 95.2 L 164.6 93.0 L 165.9 89.8 L 167.2 85.6 L 168.3 80.5 L 169.3 74.4 L 170.0 67.4 L 170.5 59.6 L 170.8 50.9 L 170.9583333015442 43.3 L 138.0972972869873 43.3 L 137.4 51.9 L 135.2 62.4 L 131.7 72.0 L 127.0 80.7 L 121.0 88.6 L 113.9 95.4 L 105.6 101.3 L 96.2 106.2 L 85.8 110.1 L 74.3 112.9 L 73.8 111.2 L 84.4 106.6 L 93.8 101.5 L 101.9 95.9 L 108.8 89.8 L 114.5 83.2 L 119.0 76.0 L 122.4 68.2 L 124.8 59.8 L 126.1 50.6 L 126.24897956848145 43.3 L 91.4 43.3 L 91.4 39.3 L 126.3 39.3 L 126.3 13.9 L 138.3 15.9 L 141.3 17.9 L 138.3 19.7 L 138.3 39.3 L 171.0 39.3 L 177.0 34.3 L 188.0 43.3 L 183.0 46.3 L 182.89813241958618 46.342444801330565 L 182.8 51.2 L 182.5 60.2 L 181.9 68.5 L 181.2 75.9 L 180.1 82.6 L 178.8 88.6 L 177.3 93.8 L 175.3 98.4 L 172.9 102.4 L 169.9 105.6 L 168.0 107.1 Z " />
</g>
</svg>
