<svg xmlns="http://www.w3.org/2000/svg" xmlns:xlink="http://www.w3.org/1999/xlink" version="1.1" baseProfile="full" viewBox="0 0 200 200" width="200" height="200">
<g fill="black">
<path d="M 64.1 112.7 L 63.31946907043457 119.0 L 82.1 119.0 L 92.1 109.0 L 104.1 119.0 L 104.1 123.0 L 62.8238938331604 123.0 L 62.7 124.0 L 60.6 134.6 L 57.6 144.6 L 53.8 153.9 L 49.1 162.4 L 43.6 170.3 L 37.3 177.3 L 30.1 183.4 L 22.2 188.7 L 21.1 187.2 L 27.6 180.6 L 33.3 173.7 L 38.2 166.5 L 42.5 158.8 L 46.0 150.5 L 48.7 141.8 L 50.8 132.5 L 52.04747476577759 123.0 L 14.1 123.0 L 14.1 119.0 L 52.30769233703613 119.0 L 52.7 112.2 L 52.5 101.1 L 52.56557378768921 101.09836063385009 L 52.5 101.0 L 52.5 84.0 L 21.7 84.0 L 21.7 80.0 L 52.5 80.0 L 52.5 15.0 L 64.5 17.0 L 67.5 19.0 L 64.5 20.8 L 64.5 80.0 L 74.5 80.0 L 84.5 70.0 L 96.5 80.0 L 96.5 84.0 L 64.5 84.0 L 64.5 101.0 L 64.49292039871216 101.01061944961548 Z M 167.2 178.2 L 165.6 180.0 L 163.7 181.6 L 161.7 182.9 L 159.5 184.0 L 157.3 184.9 L 154.9 185.5 L 152.4 185.8 L 150.0 186.0 L 150.0 180.0 L 130.0 177.0 L 130.0 174.0 L 150.0 174.0 L 151.3 173.9 L 152.6 173.7 L 153.7 173.4 L 154.7 173.1 L 155.6 172.6 L 156.5 172.0 L 157.3 171.3 L 158.1 170.5 L 158.8 169.5 L 159.6 168.3 L 161.1 164.8 L 162.6 159.6 L 164.1 152.9 L 165.3 144.7 L 166.4 134.9 L 167.3 123.8 L 168.0 111.2 L 168.5 97.2 L 168.8 81.8 L 168.97619047164918 67.0 L 144.8709677696228 67.0 L 144.2 82.6 L 142.4 99.9 L 139.7 115.9 L 135.9 130.6 L 131.2 144.0 L 125.4 155.9 L 118.6 166.4 L 110.9 175.5 L 102.1 182.9 L 92.4 188.7 L 91.5 187.2 L 99.7 180.0 L 106.9 171.9 L 113.2 162.8 L 118.6 152.5 L 123.2 140.9 L 126.9 128.2 L 129.8 114.1 L 131.7 98.7 L 132.8 82.0 L 132.9666666984558 67.0 L 106.0 67.0 L 106.0 63.0 L 133.0 63.0 L 133.0 18.0 L 145.0 20.0 L 148.0 22.0 L 145.0 23.8 L 145.0 63.0 L 169.0 63.0 L 175.0 58.0 L 186.0 67.0 L 181.0 70.0 L 180.9405351638794 70.02477703094482 L 180.8 81.9 L 180.5 97.5 L 180.0 111.7 L 179.3 124.6 L 178.4 136.1 L 177.2 146.2 L 175.9 155.0 L 174.3 162.6 L 172.4 168.9 L 170.1 174.1 L 168.7 176.3 Z M 32.0 60.9 L 30.7 56.9 L 27.7 49.1 L 24.5 41.5 L 22.8 37.8 L 21.2 34.0 L 19.4 30.3 L 20.8 29.2 L 23.9 32.1 L 26.9 35.1 L 29.7 38.3 L 32.4 41.7 L 34.9 45.3 L 37.3 49.0 L 39.6 52.8 L 41.8 56.8 L 43.8 60.9 L 45.8 65.1 L 45.5 69.7 L 42.2 72.8 L 37.6 72.5 L 34.5 69.2 L 33.3 65.0 Z M 101.4 31.6 L 103.1 34.7 L 99.34739999771118 34.95880002975464 L 99.2 35.2 L 96.8 38.9 L 94.3 42.7 L 91.7 46.7 L 89.0 50.8 L 86.0 54.9 L 83.0 59.2 L 79.7 63.6 L 76.2 68.0 L 72.3 72.4 L 70.8 71.5 L 72.9 66.0 L 75.1 60.9 L 77.3 55.9 L 79.5 51.2 L 81.6 46.6 L 83.6 42.2 L 85.5 37.9 L 87.4 33.8 L 89.1 29.9 L 90.31792488098145 27.00742835998535 L 90.3 27.0 L 90.4333333015442 26.73333330154419 L 90.7 26.1 L 90.73977699279786 26.120446109771727 L 91.3 25.0 Z " />
</g>
</svg>
