<svg xmlns="http://www.w3.org/2000/svg" xmlns:xlink="http://www.w3.org/1999/xlink" version="1.1" baseProfile="full" viewBox="0 0 200 200" width="200" height="200">
<g fill="black">
<path d="M 165.0 169.8 L 159.9 162.9 L 155.4 155.5 L 151.4 147.6 L 147.9 139.3 L 145.0 130.4 L 142.7 121.1 L 141.22199296951294 112.04720687866211 L 141.2 112.2 L 138.3 124.6 L 134.3 136.2 L 129.2 146.8 L 123.1 156.6 L 116.0 165.5 L 107.8 173.3 L 98.6 180.1 L 88.4 185.7 L 87.5 184.2 L 96.3 177.0 L 104.1 169.4 L 110.9 161.2 L 116.8 152.5 L 121.7 143.1 L 125.6 132.9 L 128.6 122.1 L 130.7 110.5 L 130.92177419662477 108.0 L 90.0 108.0 L 90.0 104.0 L 131.27661294937133 104.0 L 131.8 98.1 L 132.0 85.0 L 132.0 74.0 L 97.0 74.0 L 97.0 70.0 L 132.0 70.0 L 132.0 14.0 L 144.0 16.0 L 147.0 18.0 L 144.0 19.8 L 144.0 70.0 L 161.0 70.0 L 171.0 60.0 L 183.0 70.0 L 183.0 74.0 L 144.0 74.0 L 144.0 85.0 L 143.1 99.0 L 142.5816430091858 102.6012170791626 L 143.0333333015442 104.0 L 163.0 104.0 L 173.0 94.0 L 185.0 104.0 L 185.0 108.0 L 144.325 108.0 L 145.1 110.4 L 148.4 119.5 L 151.8 128.0 L 155.6 135.9 L 159.6 143.3 L 164.0 150.1 L 168.8 156.3 L 173.9 162.0 L 179.3 167.2 L 185.1 171.8 L 187.7 173.9 L 176.8 182.1 L 170.6 176.2 Z M 54.01682300567627 19.849906158447265 L 53.4 48.4 L 52.918279552459715 58.0 L 74.8 58.0 L 80.8 53.0 L 91.8 62.0 L 86.8 65.0 L 86.8 77.2 L 86.7 93.0 L 86.4 107.4 L 86.1 120.2 L 85.7 131.6 L 85.2 141.4 L 84.6 149.9 L 83.9 156.9 L 83.1 162.6 L 82.1 167.0 L 81.3 169.4 L 80.2 171.7 L 78.9 173.8 L 77.2 175.7 L 75.4 177.3 L 73.3 178.7 L 71.0 179.7 L 68.6 180.4 L 66.1 180.8 L 63.6 181.0 L 63.6 175.0 L 45.6 172.0 L 45.6 169.0 L 63.6 169.0 L 64.9 168.9 L 66.0 168.7 L 66.8 168.5 L 68.2 167.8 L 68.7 167.3 L 69.2 166.7 L 69.7 165.9 L 70.2 164.9 L 70.6 163.7 L 71.3 160.5 L 72.0 155.5 L 72.7 148.9 L 73.2 140.7 L 73.7 131.0 L 74.1 119.8 L 74.4 107.1 L 74.7 92.9 L 74.8 77.2 L 74.8 62.0 L 52.71756277084351 62.0 L 52.0 76.3 L 49.8 100.0 L 46.8 120.0 L 43.0 136.7 L 38.3 150.7 L 32.7 162.2 L 26.1 171.6 L 18.7 179.3 L 10.4 185.6 L 9.3 184.3 L 16.0 176.7 L 21.8 168.5 L 26.8 159.1 L 31.2 148.1 L 34.8 134.7 L 37.6 118.5 L 39.8 98.9 L 41.3 75.7 L 41.64746379852295 62.0 L 14.0 62.0 L 14.0 58.0 L 41.74891300201416 58.0 L 42.0 48.1 L 42.1 16.0 L 42.1 13.6 L 54.1 16.0 L 57.1 18.0 Z M 180.4 18.6 L 182.8 21.3 L 178.98941507339478 22.30278549194336 L 178.8 22.8 L 176.9 27.1 L 174.7 31.4 L 172.3 35.8 L 169.6 40.2 L 166.7 44.6 L 163.5 49.1 L 159.9 53.6 L 156.0 58.1 L 151.7 62.5 L 150.2 61.4 L 152.9 55.9 L 155.4 50.7 L 157.8 45.7 L 160.1 40.9 L 162.1 36.2 L 163.9 31.7 L 165.5 27.4 L 166.9 23.2 L 168.0 19.1 L 168.68285102844237 16.216851043701173 L 168.6 16.2 L 169.4 13.6 Z M 112.0 50.0 L 110.9 46.3 L 109.5 42.6 L 107.8 38.8 L 105.8 35.1 L 103.5 31.2 L 101.0 27.3 L 98.2 23.3 L 95.1 19.3 L 96.3 18.0 L 100.6 20.9 L 104.6 24.0 L 108.3 27.3 L 111.7 30.8 L 114.7 34.4 L 117.4 38.2 L 119.8 42.2 L 121.9 46.2 L 123.7 50.4 L 125.2 54.7 L 124.3 59.2 L 120.6 61.9 L 116.1 61.0 L 113.4 57.3 L 112.9 53.6 Z " />
</g>
</svg>
