<svg xmlns="http://www.w3.org/2000/svg" xmlns:xlink="http://www.w3.org/1999/xlink" version="1.1" baseProfile="full" viewBox="0 0 200 200" width="200" height="200">
<g fill="black">
<path d="M 84.8 149.8 L 82.6 146.7 L 80.1 143.4 L 77.3 140.0 L 74.2 136.4 L 70.8 132.6 L 67.2 128.7 L 65.0 126.38717947006225 L 65.0 184.0 L 53.0 190.0 L 53.0 127.0543478012085 L 48.9 135.7 L 43.9 144.5 L 38.5 152.6 L 32.6 159.8 L 26.3 166.1 L 19.6 171.4 L 12.5 175.7 L 11.4 174.2 L 17.1 168.5 L 22.4 162.4 L 27.5 155.7 L 32.2 148.4 L 36.5 140.4 L 40.5 131.7 L 44.2 122.3 L 47.5 112.1 L 48.93478260040283 106.88695650100708 L 47.9 107.8 L 43.3 107.4 L 40.3 104.0 L 40.2 102.4 L 40.0 100.7 L 39.6 99.1 L 39.1 97.3 L 38.5 95.5 L 37.8 93.7 L 36.9 91.8 L 36.2155216217041 90.49949111938477 L 34.6 96.5 L 32.2 103.7 L 29.5 110.3 L 26.4 116.4 L 22.9 121.8 L 19.0 126.6 L 14.6 130.5 L 13.3 129.4 L 15.8 124.4 L 18.2 119.2 L 20.4 113.6 L 22.4 107.6 L 24.1 101.2 L 25.6 94.3 L 26.8 86.9 L 27.8 79.0 L 28.5 70.5 L 28.8551176071167 62.598633480072024 L 28.8 62.6 L 29.0 59.3 L 40.9 62.3 L 43.7 64.5 L 40.440627098083496 66.225550365448 L 39.8 71.7 L 38.4 80.5 L 37.122651958465575 86.66132593154907 L 38.4 87.3 L 40.5 88.5 L 42.5 89.8 L 44.3 91.2 L 46.0 92.8 L 47.6 94.5 L 49.1 96.3 L 50.5 98.2 L 50.98953971862793 99.0158995628357 L 53.0 90.04615383148193 L 53.0 49.0 L 13.0 49.0 L 13.0 45.0 L 53.0 45.0 L 53.0 14.0 L 65.0 16.0 L 68.0 18.0 L 65.0 19.8 L 65.0 45.0 L 80.0 45.0 L 90.0 35.0 L 102.0 45.0 L 102.0 49.0 L 65.0 49.0 L 65.0 121.46037731170654 L 65.6 121.8 L 70.5 124.8 L 75.0 127.8 L 79.3 130.9 L 83.2 134.0 L 86.8 137.1 L 90.1 140.1 L 93.1 143.1 L 95.9 146.1 L 98.4 149.2 L 99.1 153.7 L 96.6 157.5 L 92.1 158.2 L 88.3 155.7 L 86.7 152.8 Z M 156.8 180.4 L 148.2 175.4 L 141.72708177566528 170.6083592414856 L 140.6 171.4 L 131.3 176.4 L 121.2 180.5 L 110.2 183.7 L 98.4 185.9 L 98.0 184.2 L 109.1 180.1 L 119.2 175.6 L 128.2 170.6 L 135.81935262680054 165.42636547088622 L 133.6 163.4 L 127.6 156.5 L 122.5 149.0 L 118.3 140.9 L 115.1 132.3 L 113.27391300201415 123.9 L 104.4 123.9 L 104.4 119.9 L 165.0 119.9 L 171.0 114.9 L 182.0 123.9 L 177.0 126.9 L 175.28235292434692 127.61568632125855 L 173.2 133.4 L 168.6 142.7 L 163.0 151.1 L 156.5 158.7 L 150.69167470932007 163.96621494293214 L 153.9 165.9 L 161.9 169.7 L 170.5 173.1 L 179.9 175.8 L 187.8 178.2 L 176.1 188.5 L 166.1 184.8 Z M 115.4740740776062 123.9 L 119.0 130.7 L 123.5 138.1 L 128.4 144.8 L 133.9 151.0 L 140.0 156.5 L 143.4133047103882 159.08583688735962 L 149.6 152.5 L 154.8 145.4 L 159.2 137.6 L 162.6 129.3 L 164.16000003814696 123.9 Z M 168.6 105.0 L 166.7 106.4 L 164.7 107.6 L 162.5 108.6 L 160.3 109.5 L 158.1 110.1 L 155.7 110.6 L 153.4 110.9 L 151.0 111.0 L 151.0 105.0 L 131.0 102.0 L 131.0 99.0 L 151.0 99.0 L 152.5 98.9 L 155.3 98.5 L 156.5 98.1 L 157.8 97.6 L 158.9 97.0 L 160.1 96.4 L 162.3 94.6 L 163.4 93.5 L 163.9 92.8 L 164.7 90.9 L 165.6 87.9 L 166.5 84.0 L 167.2 79.1 L 167.8 73.4 L 168.3 66.8 L 168.7 59.3 L 168.9 51.0 L 168.9777777671814 44.0 L 148.77570095062256 44.0 L 148.2 51.7 L 146.5 61.7 L 143.9 70.9 L 140.3 79.3 L 135.8 86.9 L 130.4 93.7 L 124.1 99.5 L 116.9 104.3 L 109.0 108.1 L 100.3 110.8 L 99.68974361419677 109.31794872283936 L 99.3 113.8 L 95.9 116.8 L 91.3 116.4 L 88.3 113.0 L 87.9 110.6 L 87.4 108.2 L 86.8 105.8 L 86.1 103.3 L 85.3 100.7 L 83.5 95.5 L 82.64857139587403 93.41012983322143 L 81.1 97.0 L 78.6 101.7 L 75.7 106.1 L 72.4 110.1 L 68.7 113.5 L 67.2 112.4 L 69.2 108.0 L 71.0 103.5 L 72.6 99.0 L 74.0 94.3 L 75.1 89.5 L 76.0 84.5 L 76.6 79.2 L 77.0 73.7 L 77.1 67.9 L 77.016925239563 62.998589515686035 L 77.0 63.0 L 77.0 59.6 L 89.0 62.0 L 92.0 64.0 L 88.69354839324951 65.98387098312378 L 88.5 68.5 L 87.7 74.8 L 86.6 80.8 L 85.1 86.5 L 84.22580642700196 89.1225806236267 L 85.8 90.5 L 88.0 92.6 L 90.0 94.9 L 91.9 97.1 L 93.7 99.4 L 95.4 101.8 L 96.9 104.2 L 98.4 106.7 L 99.63700437545776 109.07885465621948 L 107.3 104.7 L 113.9 99.9 L 119.7 94.6 L 124.6 88.8 L 128.6 82.5 L 131.8 75.5 L 134.3 67.9 L 136.0 59.7 L 136.8 50.7 L 136.93814430236816 44.0 L 110.0 44.0 L 110.0 40.0 L 137.0 40.0 L 137.0 15.0 L 149.0 17.0 L 152.0 19.0 L 149.0 20.8 L 149.0 40.0 L 169.0 40.0 L 175.0 35.0 L 186.0 44.0 L 181.0 47.0 L 180.94540491104127 47.02274799346924 L 180.9 51.2 L 180.7 59.8 L 180.3 67.5 L 179.8 74.4 L 179.1 80.6 L 178.3 86.1 L 177.2 90.9 L 176.0 95.0 L 174.4 98.6 L 172.2 101.7 L 170.4 103.4 Z " />
</g>
</svg>
