<svg xmlns="http://www.w3.org/2000/svg" xmlns:xlink="http://www.w3.org/1999/xlink" version="1.1" baseProfile="full" viewBox="0 0 200 200" width="200" height="200">
<g fill="black">
<path d="M 39.3 157.4 L 85.6 157.4 L 91.6 152.4 L 102.6 161.4 L 97.6 165.4 L 97.6 182.8 L 85.6 188.8 L 85.6 182.8 L 39.3 182.8 L 39.3 185.8 L 27.3 191.8 L 27.3 151.4 Z M 170.8 177.8 L 169.1 179.6 L 167.3 181.3 L 165.3 182.6 L 163.2 183.8 L 160.9 184.7 L 158.5 185.3 L 156.1 185.6 L 153.6 185.8 L 153.6 179.8 L 139.6 176.8 L 139.6 173.8 L 153.6 173.8 L 154.9 173.7 L 156.2 173.5 L 158.2 172.9 L 159.1 172.4 L 159.9 171.8 L 160.6 171.2 L 161.4 170.3 L 162.1 169.3 L 162.8 168.1 L 164.2 164.6 L 165.7 159.3 L 167.0 152.5 L 168.2 144.1 L 169.2 134.3 L 170.1 123.1 L 170.7 110.3 L 171.2 96.2 L 171.5 80.6 L 171.58823528289795 65.6 L 149.7882978439331 65.6 L 149.2 81.4 L 147.5 98.9 L 144.9 115.1 L 141.4 130.0 L 136.9 143.5 L 131.5 155.7 L 125.2 166.5 L 117.9 175.8 L 109.6 183.5 L 100.5 189.6 L 99.5 188.1 L 107.0 180.7 L 113.7 172.4 L 119.6 163.0 L 124.7 152.5 L 128.9 140.7 L 132.4 127.7 L 135.0 113.4 L 136.8 97.8 L 137.8 80.8 L 137.88351650238036 65.6 L 113.1 65.6 L 113.1 61.6 L 137.9 61.6 L 137.9 16.1 L 149.9 18.1 L 152.9 20.1 L 149.9 21.9 L 149.9 61.6 L 171.6 61.6 L 177.6 56.6 L 188.6 65.6 L 183.6 68.6 L 183.57068881988525 68.6122130393982 L 183.5 80.7 L 183.2 96.5 L 182.7 110.8 L 182.1 123.8 L 181.2 135.4 L 180.1 145.6 L 178.9 154.5 L 177.4 162.0 L 175.6 168.4 L 173.5 173.6 L 172.2 175.8 Z M 39.3 161.4 L 39.3 178.8 L 85.6 178.8 L 85.6 161.4 Z M 95.2 143.1 L 95.2 147.1 L 29.7 147.1 L 29.7 143.1 L 80.9777777671814 143.1 L 87.2 136.1 Z M 95.2 128.7 L 95.2 132.7 L 29.7 132.7 L 29.7 128.7 L 80.9777777671814 128.7 L 87.2 121.7 Z M 112.2 113.7 L 112.2 117.7 L 12.7 117.7 L 12.7 113.7 L 97.9777777671814 113.7 L 104.2 106.7 Z M 95.8 98.2 L 95.8 102.2 L 29.1 102.2 L 29.1 98.2 L 77.61818180084228 98.2 L 85.8 89.2 Z M 81.3 83.2 L 75.5 80.5 L 69.3 77.8 L 62.7 75.2 L 62.640625 75.17794647216797 L 59.1 77.1 L 51.5 80.5 L 43.3 83.5 L 34.5 86.1 L 25.2 88.2 L 15.2 89.8 L 14.7 88.1 L 24.1 84.6 L 32.8 81.0 L 40.9 77.4 L 48.3 73.7 L 52.2014461517334 71.37077836990356 L 48.3 70.0 L 40.5 67.5 L 32.3 64.8 L 23.8 62.0 L 24.1 60.3 L 33.1 61.1 L 41.8 62.2 L 50.0 63.7 L 57.9 65.3 L 60.50996599197388 65.93485660552979 L 61.0 65.6 L 66.4 61.3 L 71.1 56.8 L 75.1 52.1 L 77.92354936599732 48.113812637329104 L 77.9 48.1 L 79.0 46.6 L 88.3 54.2 L 89.6 57.6 L 85.63655004501342 57.32665863037109 L 83.7 59.6 L 78.4 64.6 L 72.63425464630127 69.07342309951783 L 79.1 71.1 L 85.5 73.4 L 91.5 75.7 L 97.1 78.2 L 100.0 81.8 L 99.6 86.4 L 96.0 89.2 L 91.5 88.8 L 86.6 86.0 Z M 84.9 45.8 L 78.9 43.2 L 72.4 40.7 L 65.48571424484253 38.329387760162355 L 65.0 38.6 L 57.7 42.2 L 50.0 45.3 L 41.9 48.1 L 33.4 50.5 L 24.5 52.4 L 15.2 53.8 L 14.7 52.1 L 23.4 48.8 L 31.7 45.4 L 39.5 42.0 L 46.9 38.4 L 53.8 34.6 L 53.82539548873901 34.58460884094238 L 50.1 33.5 L 41.7 31.1 L 33.0 28.6 L 23.8 26.0 L 24.1 24.2 L 33.7 24.9 L 42.8 25.8 L 51.5 27.0 L 59.8 28.5 L 62.59214582443237 29.065497875213623 L 66.4 26.4 L 72.0 21.9 L 77.2 17.3 L 81.30780420303344 13.106616592407226 L 81.3 13.1 L 82.3 12.1 L 90.5 20.9 L 91.2 24.4 L 87.49546699523925 23.49011468887329 L 84.7 25.9 L 78.6 30.5 L 76.12145919799805 32.07725324630737 L 82.1 33.7 L 88.8 35.7 L 95.0 37.9 L 100.9 40.2 L 103.9 43.7 L 103.7 48.3 L 100.2 51.3 L 95.6 51.0 L 90.5 48.4 Z " />
</g>
</svg>
