<svg xmlns="http://www.w3.org/2000/svg" xmlns:xlink="http://www.w3.org/1999/xlink" version="1.1" baseProfile="full" viewBox="0 0 200 200" width="200" height="200">
<g fill="black">
<path d="M 167.2 178.2 L 165.6 180.0 L 163.7 181.6 L 161.7 182.9 L 159.5 184.0 L 157.3 184.9 L 154.9 185.5 L 152.4 185.8 L 150.0 186.0 L 150.0 180.0 L 134.0 177.0 L 134.0 174.0 L 150.0 174.0 L 151.3 173.9 L 152.6 173.7 L 153.7 173.4 L 154.7 173.1 L 155.6 172.6 L 156.5 172.0 L 157.3 171.3 L 158.1 170.5 L 158.8 169.5 L 159.6 168.3 L 161.1 164.8 L 162.6 159.6 L 164.1 152.9 L 165.3 144.7 L 166.4 134.9 L 167.3 123.8 L 168.0 111.2 L 168.5 97.2 L 168.8 81.8 L 168.97619047164918 67.0 L 144.8709677696228 67.0 L 144.2 82.6 L 142.4 100.0 L 139.7 116.0 L 135.9 130.8 L 131.2 144.2 L 125.4 156.3 L 118.7 166.9 L 110.9 176.1 L 102.1 183.7 L 92.4 189.7 L 91.5 188.2 L 99.6 180.9 L 106.9 172.6 L 113.2 163.3 L 118.6 152.8 L 123.2 141.2 L 126.9 128.3 L 129.8 114.2 L 131.7 98.7 L 132.8 82.0 L 132.9666666984558 67.0 L 106.0 67.0 L 106.0 63.0 L 133.0 63.0 L 133.0 18.0 L 145.0 20.0 L 148.0 22.0 L 145.0 23.8 L 145.0 63.0 L 169.0 63.0 L 175.0 58.0 L 186.0 67.0 L 181.0 70.0 L 180.9405351638794 70.02477703094482 L 180.8 81.9 L 180.5 97.5 L 180.0 111.7 L 179.3 124.6 L 178.4 136.1 L 177.2 146.2 L 175.9 155.0 L 174.3 162.6 L 172.4 168.9 L 170.1 174.1 L 168.7 176.3 Z M 40.5 119.0 L 40.5 144.0 L 75.9 144.0 L 75.9 119.0 Z M 40.5 92.0 L 40.5 115.0 L 75.9 115.0 L 75.9 92.0 Z M 88.4316831588745 95.57465343475342 L 87.9 96.0 L 87.9 172.0 L 87.7 174.5 L 87.3 177.0 L 86.5 179.4 L 85.2 181.7 L 83.6 183.7 L 81.6 185.3 L 79.3 186.6 L 76.9 187.4 L 74.4 187.8 L 71.9 188.0 L 71.9 182.0 L 59.9 179.0 L 59.9 176.0 L 71.9 176.0 L 73.1 175.9 L 74.0 175.7 L 74.9 175.4 L 75.3 175.0 L 75.6 174.1 L 75.8 173.2 L 75.9 172.0 L 75.9 148.0 L 40.5 148.0 L 40.5 183.0 L 28.5 189.0 L 28.5 94.35076923370362 L 26.4 97.0 L 19.3 104.6 L 11.7 111.6 L 10.4 110.3 L 16.4 102.1 L 22.1 93.7 L 27.4 85.1 L 28.5 83.14200000762939 L 28.5 82.0 L 29.00087718963623 82.25043859481812 L 32.4 76.2 L 36.9 67.0 L 39.525 61.0 L 12.8 61.0 L 12.8 57.0 L 25.477777767181397 57.0 L 31.7 50.0 L 39.7 57.0 L 39.7 60.6 L 41.1 57.4 L 44.8 47.5 L 48.1 37.2 L 51.0 26.6 L 53.5 15.6 L 53.53145160675049 15.60725803375244 L 54.0 13.8 L 65.2 18.3 L 67.7 20.9 L 64.14344921112061 22.063962078094484 L 62.0 29.7 L 61.14056406021118 32.231851959228514 L 62.2 34.4 L 66.4 42.7 L 70.6 50.6 L 74.9 58.1 L 77.2 61.6777777671814 L 77.2 58.0 L 89.8777777671814 58.0 L 96.1 51.0 L 104.1 58.0 L 104.1 62.0 L 77.40714282989502 62.0 L 79.4 65.1 L 84.0 71.6 L 88.7 77.7 L 93.6 83.3 L 98.7 88.4 L 103.9 93.1 L 105.7 94.8 L 94.9 102.8 L 89.6 97.0 Z M 58.3 40.6 L 54.2 51.2 L 49.6 61.2 L 44.5 70.9 L 38.9 80.1 L 35.258974361419675 85.37948713302612 L 40.5 88.0 L 75.9 88.0 L 80.0037735939026 84.58018865585328 L 79.8 84.3 L 75.4 77.2 L 71.3 69.8 L 67.5 62.0 L 64.1 53.7 L 60.9 45.0 L 59.040237236022946 38.41930103302002 Z M 43.8 32.0 L 43.8 36.0 L 12.8 36.0 L 12.8 32.0 L 29.577777767181395 32.0 L 35.8 25.0 Z M 103.5 32.0 L 103.5 36.0 L 73.1 36.0 L 73.1 32.0 L 89.27777776718139 32.0 L 95.5 25.0 Z " />
</g>
</svg>
