<svg xmlns="http://www.w3.org/2000/svg" xmlns:xlink="http://www.w3.org/1999/xlink" version="1.1" baseProfile="full" viewBox="0 0 200 200" width="200" height="200">
<g fill="black">
<path d="M 69.2 175.2 L 67.6 177.0 L 65.7 178.6 L 63.7 179.9 L 61.5 181.0 L 59.3 181.9 L 56.9 182.5 L 54.4 182.8 L 52.0 183.0 L 52.0 177.0 L 36.0 174.0 L 36.0 171.0 L 52.0 171.0 L 53.3 170.9 L 54.6 170.7 L 55.7 170.4 L 56.7 170.1 L 57.6 169.6 L 58.5 169.0 L 59.3 168.3 L 60.1 167.5 L 60.8 166.5 L 61.6 165.3 L 63.1 161.8 L 64.6 156.6 L 66.1 149.9 L 67.3 141.7 L 68.4 131.9 L 69.3 120.8 L 70.0 108.2 L 70.5 94.2 L 70.8 78.8 L 70.97619047164918 64.0 L 53.886486530303955 64.0 L 53.3 79.5 L 51.8 96.8 L 49.6 112.8 L 46.6 127.5 L 42.8 140.9 L 38.2 152.9 L 32.7 163.6 L 26.5 172.9 L 19.4 180.6 L 11.5 186.6 L 10.4 185.3 L 16.6 178.0 L 22.1 169.8 L 26.9 160.6 L 31.1 150.2 L 34.6 138.5 L 37.5 125.6 L 39.7 111.4 L 41.1 95.9 L 41.9 79.1 L 41.98342542648315 64.0 L 17.0 64.0 L 17.0 60.0 L 42.0 60.0 L 42.0 15.0 L 54.0 17.0 L 57.0 19.0 L 54.0 20.8 L 54.0 60.0 L 71.0 60.0 L 77.0 55.0 L 88.0 64.0 L 83.0 67.0 L 82.94053516387939 67.02477703094482 L 82.8 78.9 L 82.5 94.5 L 82.0 108.7 L 81.3 121.6 L 80.4 133.1 L 79.2 143.2 L 77.9 152.0 L 76.3 159.6 L 74.4 165.9 L 72.1 171.1 L 70.7 173.3 Z M 164.7 169.7 L 160.6 164.0 L 156.8 157.7 L 153.3 150.9 L 150.2 143.6 L 147.5 135.7 L 145.1 127.3 L 143.2 118.3 L 142.19236707687378 110.9365288734436 L 141.6 111.5 L 138.4 114.5 L 134.9 117.3 L 132.31225261688232 119.0915174484253 L 135.3 121.9 L 139.5 126.8 L 143.1 132.1 L 145.9 137.6 L 148.1 143.3 L 149.6 149.2 L 150.4 155.3 L 150.4 161.5 L 149.8 167.8 L 148.5 174.1 L 147.6 176.5 L 146.5 178.8 L 145.1 180.9 L 143.5 182.7 L 141.6 184.4 L 139.5 185.7 L 137.2 186.7 L 134.8 187.4 L 132.4 187.8 L 129.8 187.9 L 129.8 181.9 L 109.8 178.9 L 109.8 175.9 L 131.1 175.9 L 132.2 175.7 L 133.1 175.4 L 133.9 175.1 L 134.5 174.7 L 135.6 173.6 L 136.1 172.8 L 136.6 171.8 L 138.7 165.5 L 139.8 160.5 L 140.3 155.4 L 140.3 153.04081630706787 L 138.0 155.2 L 132.9 159.6 L 127.6 163.6 L 122.1 167.4 L 116.4 170.7 L 110.5 173.8 L 104.4 176.5 L 98.1 178.7 L 91.5 180.4 L 90.9 178.7 L 96.5 175.2 L 101.9 171.7 L 107.1 168.1 L 112.2 164.4 L 117.1 160.5 L 121.7 156.4 L 125.24625291824341 153.01135835647582 L 123.8 153.2 L 120.2 150.5 L 119.8 149.1 L 119.3 147.7 L 119.04074077606201 147.1074073791504 L 116.4 148.6 L 111.5 151.1 L 106.2 153.4 L 100.7 155.5 L 94.8 157.4 L 94.1 155.7 L 98.9 152.1 L 103.6 148.7 L 108.1 145.4 L 112.3 142.2 L 115.0234637260437 140.03519554138182 L 114.6 139.4 L 113.3 137.6 L 111.8 135.7 L 109.9 134.2 L 110.9 132.7 L 113.1 133.9 L 117.7 135.5 L 119.36046514511108 136.2906976699829 L 119.8 135.9 L 123.2 132.8 L 126.3 129.7 L 129.1 126.6 L 131.6 123.6 L 132.24087886810304 124.18327178955079 L 132.2 124.1 L 130.18239307403564 120.50613765716552 L 126.8 122.6 L 122.2 125.2 L 117.3 127.6 L 112.0 130.0 L 106.3 132.3 L 100.2 134.3 L 93.7 136.1 L 93.0 134.5 L 98.6 130.9 L 103.9 127.5 L 108.9 124.2 L 113.5 121.1 L 117.7 118.0 L 121.5 115.0 L 124.9 112.1 L 127.48620691299439 109.6 L 104.7 109.6 L 104.7 105.6 L 145.9 105.6 L 155.9 95.6 L 166.08314609527588 104.08595504760743 L 166.6 102.6 L 167.3 100.4 L 168.7 96.4 L 169.3 94.6 L 169.6529411315918 93.4 L 99.75806455612182 93.4 L 99.9 94.5 L 100.1 97.3 L 100.1 100.0 L 99.8 102.6 L 99.3 105.1 L 98.5 107.4 L 97.2 109.7 L 95.5 111.7 L 91.0 112.6 L 87.1 110.2 L 86.2 105.8 L 88.6 101.9 L 89.2 101.9 L 90.0 101.6 L 91.0 100.9 L 92.0 99.8 L 93.0 98.2 L 94.0 96.3 L 94.9 93.9 L 95.8 91.2 L 96.6 88.2 L 96.8 84.8 L 98.6 84.8 L 98.9 88.2 L 99.125 89.4 L 170.0 89.4 L 170.64864864349366 88.85945949554443 L 170.7 88.5 L 170.9309633255005 88.62419729232788 L 176.0 84.4 L 187.0 93.4 L 182.0 96.4 L 176.63703699111937 98.63456792831421 L 174.6 100.4 L 173.0 101.8 L 171.3 103.2 L 169.5 104.7 L 167.9 105.9 L 167.9 109.6 L 144.12584266662597 109.6 L 147.2 117.2 L 150.7 125.4 L 154.2 133.0 L 156.21014261245728 136.9644479751587 L 157.1 135.6 L 158.7 133.3 L 161.9 128.9 L 163.6 126.7 L 165.2 124.6 L 166.8 122.4 L 168.4 120.3 L 169.4170238494873 118.90159215927125 L 169.3 118.8 L 169.8526315689087 118.3026315689087 L 170.0 118.1 L 170.03638610839843 118.1372525215149 L 170.3 117.9 L 178.4 126.7 L 179.1 130.3 L 174.91002388000487 129.1973747253418 L 173.9 129.9 L 167.0 134.4 L 159.8 138.6 L 157.57979154586792 139.6657000541687 L 157.8 140.1 L 161.5 146.5 L 165.4 152.2 L 169.4 157.4 L 173.6 161.9 L 177.8 165.7 L 182.2 169.0 L 185.0 171.2 L 174.1 179.5 L 169.2 174.9 Z M 133.5 137.7 L 129.6 140.6 L 127.74490356445312 141.79256200790405 L 129.0 142.9 L 130.5 144.4 L 130.86192274093628 147.1747407913208 L 134.5 142.9 L 138.182137966156 138.2737241744995 L 137.1 134.9 L 137.0383177757263 134.75140190124512 Z M 165.8 74.4 L 160.4 70.8 L 155.6 66.8 L 151.3 62.5 L 147.7 57.9 L 144.8 52.9 L 142.5 47.7 L 141.34604091644286 43.166589450836184 L 138.8 49.4 L 134.8 55.8 L 129.9 61.4 L 124.0 66.4 L 117.2 70.5 L 109.6 73.9 L 101.1 76.4 L 91.8 78.2 L 91.4 76.5 L 99.9 72.9 L 107.3 69.0 L 113.8 64.9 L 119.2 60.5 L 123.6 55.7 L 127.1 50.6 L 129.7 45.2 L 131.4 39.4 L 131.7 37.3 L 93.2 37.3 L 93.2 33.3 L 132.2714285850525 33.3 L 132.3 33.1 L 132.5 26.3 L 132.5 13.0 L 144.5 15.0 L 147.5 17.0 L 144.5 18.8 L 144.5 26.3 L 143.74096384048462 33.3 L 161.7 33.3 L 171.7 23.3 L 183.7 33.3 L 183.7 37.3 L 142.98936166763306 37.3 L 145.0 40.8 L 147.8 45.1 L 150.8 49.0 L 154.2 52.6 L 157.8 55.9 L 161.9 58.8 L 166.4 61.5 L 171.3 64.0 L 176.7 66.2 L 182.6 68.1 L 189.8 70.6 L 178.2 80.6 L 171.8 77.7 Z " />
</g>
</svg>
