<svg xmlns="http://www.w3.org/2000/svg" xmlns:xlink="http://www.w3.org/1999/xlink" version="1.1" baseProfile="full" viewBox="0 0 200 200" width="200" height="200">
<g fill="black">
<path d="M 165.0 175.9 L 157.9 170.2 L 151.7 163.6 L 151.53276557922362 163.36772994995118 L 145.7 169.6 L 137.8 176.3 L 129.2 181.8 L 120.0 186.0 L 110.2 188.8 L 109.6 187.1 L 118.4 182.5 L 126.3 177.2 L 133.6 171.2 L 140.2 164.4 L 146.2 156.6 L 146.41214761734008 156.25576057434083 L 146.3 156.1 L 141.7 147.8 L 138.0 138.6 L 135.1 128.6 L 133.2 117.7 L 132.27758617401122 107.0 L 124.6 107.0 L 124.6 103.0 L 166.6 103.0 L 172.6 98.0 L 183.6 107.0 L 178.6 110.0 L 177.28077201843263 110.54967832565308 L 174.8 119.4 L 170.4 131.6 L 165.3 142.7 L 159.5 152.8 L 157.8082191467285 155.14246578216552 L 159.3 156.8 L 165.1 161.8 L 171.3 165.9 L 178.1 169.2 L 185.5 171.7 L 193.2 174.1 L 181.5 184.2 L 172.9 180.6 Z M 87.6 174.1 L 99.6 174.1 L 100.8 174.0 L 101.7 173.8 L 102.3 173.7 L 102.7 173.5 L 102.9 173.3 L 103.0 173.1 L 103.2 172.8 L 103.4 172.2 L 103.5 171.3 L 103.6 170.1 L 103.6 148.3 L 82.3615385055542 148.3 L 82.2 150.4 L 81.5 155.2 L 80.5 159.9 L 79.3 164.3 L 77.8 168.4 L 76.1 172.2 L 74.1 175.7 L 71.8 178.9 L 69.1 181.7 L 66.4 184.2 L 65.2 183.2 L 66.8 180.1 L 68.0 176.8 L 69.1 173.4 L 70.0 169.9 L 70.8 166.3 L 71.3 162.5 L 71.7 158.5 L 71.9 154.3 L 71.8 149.9 L 71.6 145.2 L 71.6 93.5 L 82.6 99.0 L 103.6 99.0 L 109.6 94.0 L 115.8267352104187 99.09460153579712 L 118.6 94.6 L 121.3 90.0 L 123.6 85.5 L 125.6 80.9 L 127.3 76.3 L 128.5 71.7 L 129.5 66.9 L 130.0 62.0 L 130.3 57.1 L 130.2 52.0 L 130.2 20.0 L 142.2 26.0 L 159.6 26.0 L 165.6 21.0 L 176.6 30.0 L 171.6 34.0 L 171.6 75.1 L 171.7 75.8 L 171.8 76.2 L 172.0 76.6 L 172.2 76.9 L 172.6 77.2 L 173.3 77.5 L 174.3 77.8 L 175.6 78.0 L 181.1 78.0 L 186.1 61.0 L 188.1 61.0 L 186.1 78.0 L 189.1 80.0 L 191.1 83.0 L 189.1 86.0 L 186.1 88.0 L 175.6 88.0 L 173.1 87.9 L 170.7 87.6 L 168.4 86.9 L 166.2 85.8 L 164.2 84.3 L 162.5 82.5 L 161.3 80.3 L 160.4 78.0 L 159.8 75.5 L 159.6 73.0 L 159.6 30.0 L 142.2 30.0 L 142.2 52.0 L 141.6 57.9 L 140.7 63.6 L 139.3 69.2 L 137.4 74.5 L 135.1 79.6 L 132.4 84.4 L 129.2 89.0 L 125.6 93.2 L 121.5 97.1 L 117.29724655151367 100.29774723052978 L 120.6 103.0 L 115.6 107.0 L 115.6 170.1 L 115.5 172.6 L 115.0 175.1 L 114.2 177.5 L 113.0 179.8 L 111.3 181.8 L 109.3 183.5 L 107.1 184.7 L 104.7 185.5 L 102.2 185.9 L 99.6 186.1 L 99.6 180.1 L 87.6 177.1 Z M 32.1 174.6 L 46.1 174.6 L 47.1 174.5 L 47.8 174.4 L 48.4 174.1 L 48.5 173.9 L 48.7 173.7 L 48.9 173.2 L 49.1 172.5 L 49.3 171.4 L 49.4 170.1 L 49.4 148.3 L 28.5615385055542 148.3 L 28.4 150.4 L 27.6 155.3 L 26.6 159.9 L 25.4 164.3 L 23.9 168.4 L 22.1 172.3 L 20.1 175.8 L 17.7 179.0 L 15.1 181.8 L 12.4 184.3 L 11.0 183.1 L 12.5 180.0 L 13.6 176.7 L 14.6 173.3 L 15.5 169.8 L 16.2 166.2 L 16.7 162.4 L 17.0 158.4 L 17.1 154.2 L 17.1 149.8 L 16.8 145.2 L 16.8 93.0 L 28.8 99.0 L 49.4 99.0 L 54.9 94.0 L 65.4 103.0 L 60.4 106.5 L 60.4 170.1 L 60.3 172.5 L 59.9 174.8 L 59.2 177.1 L 58.2 179.2 L 56.8 181.2 L 55.1 182.8 L 53.0 184.1 L 50.8 185.0 L 48.5 185.4 L 46.1 185.6 L 46.1 180.1 L 32.1 177.3 Z M 134.34909086227418 107.0 L 137.2 116.8 L 140.8 126.8 L 144.7 135.8 L 149.1 143.8 L 151.70240964889527 147.59518070220946 L 156.3 138.4 L 160.4 127.8 L 163.9 116.2 L 166.0343999862671 107.0 Z M 82.6 125.9 L 82.6 144.3 L 103.6 144.3 L 103.6 125.9 Z M 28.8 125.9 L 28.8 144.3 L 49.4 144.3 L 49.4 125.9 Z M 82.6 103.0 L 82.6 121.9 L 103.6 121.9 L 103.6 103.0 Z M 28.8 103.0 L 28.8 121.9 L 49.4 121.9 L 49.4 103.0 Z M 94.92380218505859 19.00571870803833 L 94.5 28.4 L 94.28956518173217 30.6 L 104.7 30.6 L 110.7 25.6 L 121.7 34.6 L 116.7 37.6 L 116.62814369201661 37.62994012832642 L 116.6 39.6 L 116.6 56.4 L 116.5 60.6 L 116.4 64.1 L 116.4 66.9 L 116.3 69.1 L 116.2 70.7 L 115.5 73.2 L 114.4 75.4 L 113.0 77.5 L 111.4 79.4 L 109.6 81.1 L 107.6 82.5 L 105.5 83.7 L 103.2 84.6 L 100.8 85.2 L 98.4 85.6 L 95.9 85.7 L 95.9 79.7 L 78.20068340301513 77.04510250091553 L 74.9 79.7 L 69.8 82.5 L 64.3 84.6 L 63.4 83.0 L 67.8 79.4 L 71.4 75.7 L 74.5 71.7 L 77.0 67.3 L 79.0 62.1 L 80.7 55.8 L 81.9 48.1 L 82.8 38.9 L 82.91834859848022 34.6 L 66.7 34.6 L 61.7 37.6 L 61.6281436920166 37.62994012832642 L 61.6 39.6 L 61.6 56.4 L 61.5 60.6 L 61.4 64.1 L 61.4 66.9 L 61.3 69.1 L 61.2 70.7 L 60.5 73.2 L 59.4 75.4 L 58.0 77.5 L 56.4 79.4 L 54.6 81.1 L 52.6 82.5 L 50.5 83.7 L 48.2 84.6 L 45.8 85.2 L 43.4 85.6 L 40.9 85.7 L 40.9 79.7 L 26.9 76.7 L 26.9 73.7 L 40.9 73.7 L 42.2 73.6 L 43.4 73.5 L 44.5 73.2 L 45.4 72.8 L 46.2 72.4 L 46.9 71.8 L 47.7 71.1 L 48.4 70.3 L 49.0 69.3 L 49.25344829559326 68.86551723480224 L 49.3 68.4 L 49.4 66.5 L 49.5 63.8 L 49.5 60.4 L 49.6 56.3 L 49.6 39.6 L 49.67142858505249 34.6 L 38.90695648193359 34.6 L 38.4 39.9 L 36.8 49.8 L 34.7 58.2 L 31.9 65.3 L 28.5 71.2 L 24.5 76.0 L 19.9 79.7 L 14.8 82.5 L 9.3 84.6 L 8.4 83.0 L 12.8 79.4 L 16.4 75.7 L 19.5 71.7 L 22.0 67.3 L 24.0 62.1 L 25.7 55.8 L 26.9 48.1 L 27.8 38.9 L 27.918348598480225 34.6 L 11.6 34.6 L 11.6 30.6 L 28.028440380096434 30.6 L 28.1 28.0 L 28.1 12.7 L 40.1 15.1 L 43.1 17.1 L 39.92380218505859 19.00571870803833 L 39.5 28.4 L 39.28956518173218 30.6 L 49.7 30.6 L 55.7 25.6 L 66.6 34.518181800842285 L 66.6 30.6 L 83.02844038009644 30.6 L 83.1 28.0 L 83.1 12.7 L 95.1 15.1 L 98.1 17.1 Z M 93.90695648193359 34.6 L 93.4 39.9 L 91.8 49.8 L 89.7 58.2 L 86.9 65.3 L 83.5 71.2 L 81.41666669845581 73.7 L 95.9 73.7 L 97.2 73.6 L 98.4 73.5 L 99.5 73.2 L 100.4 72.8 L 101.2 72.4 L 101.9 71.8 L 102.7 71.1 L 103.4 70.3 L 104.0 69.3 L 104.25344829559326 68.86551723480224 L 104.3 68.4 L 104.4 66.5 L 104.5 63.8 L 104.5 60.4 L 104.6 56.3 L 104.6 39.6 L 104.6714285850525 34.6 Z " />
</g>
</svg>
