<svg xmlns="http://www.w3.org/2000/svg" xmlns:xlink="http://www.w3.org/1999/xlink" version="1.1" baseProfile="full" viewBox="0 0 200 200" width="200" height="200">
<g fill="black">
<path d="M 169.9 170.5 L 165.3 165.8 L 160.9 160.8 L 156.7 155.5 L 152.9 149.9 L 149.2 144.1 L 146.0 137.9 L 144.2 133.80344829559326 L 144.2 182.8 L 132.2 188.8 L 132.2 141.00952377319337 L 128.5 147.0 L 123.8 153.4 L 118.9 159.3 L 113.6 164.7 L 108.1 169.7 L 102.1 174.2 L 95.9 178.1 L 89.2 181.3 L 88.3 179.8 L 93.6 175.0 L 98.7 170.1 L 103.5 165.0 L 108.0 159.6 L 112.3 154.0 L 116.2 148.0 L 119.9 141.8 L 123.3 135.1 L 126.4 128.2 L 127.55490198135377 125.1 L 91.6 125.1 L 91.6 121.1 L 132.2 121.1 L 132.2 96.9 L 144.2 98.9 L 147.2 100.9 L 144.2 102.7 L 144.2 121.1 L 162.7 121.1 L 172.7 111.1 L 184.7 121.1 L 184.7 125.1 L 144.2 125.1 L 144.2 126.06136360168458 L 146.7 129.3 L 151.0 134.7 L 155.2 139.9 L 159.5 144.9 L 163.8 149.5 L 168.3 153.8 L 172.9 157.8 L 177.6 161.6 L 182.4 165.0 L 187.3 168.1 L 190.9 170.6 L 179.9 179.0 L 174.8 174.9 Z M 72.2 176.2 L 70.6 178.0 L 68.7 179.6 L 66.7 180.9 L 64.5 182.0 L 62.3 182.9 L 59.9 183.5 L 57.4 183.8 L 55.0 184.0 L 55.0 178.0 L 39.0 175.0 L 39.0 172.0 L 55.0 172.0 L 56.3 171.9 L 57.6 171.7 L 58.7 171.4 L 59.7 171.1 L 60.6 170.6 L 61.5 170.0 L 62.3 169.3 L 63.1 168.5 L 63.8 167.5 L 64.6 166.3 L 66.1 162.8 L 67.6 157.6 L 69.1 150.8 L 70.3 142.5 L 71.4 132.7 L 72.3 121.4 L 73.0 108.7 L 73.5 94.6 L 73.8 79.0 L 73.97647056579589 64.0 L 54.87165775299072 64.0 L 54.2 79.7 L 52.7 97.2 L 50.3 113.4 L 47.1 128.2 L 43.0 141.7 L 38.0 153.9 L 32.2 164.6 L 25.5 173.9 L 17.9 181.6 L 9.5 187.7 L 8.4 186.2 L 15.2 179.0 L 21.2 170.7 L 26.5 161.4 L 31.1 150.9 L 34.9 139.2 L 38.0 126.1 L 40.4 111.8 L 42.0 96.2 L 42.9 79.2 L 42.98351650238037 64.0 L 12.0 64.0 L 12.0 60.0 L 43.0 60.0 L 43.0 15.0 L 55.0 17.0 L 58.0 19.0 L 55.0 20.8 L 55.0 60.0 L 74.0 60.0 L 80.0 55.0 L 91.0 64.0 L 86.0 67.0 L 85.94123411178589 67.0244857788086 L 85.8 79.1 L 85.5 94.9 L 85.0 109.3 L 84.3 122.2 L 83.4 133.8 L 82.2 144.1 L 80.9 152.9 L 79.3 160.5 L 77.4 166.9 L 75.1 172.1 L 73.7 174.3 Z M 128.3 84.0 L 137.5 84.0 L 137.5 39.660000038146975 L 137.1 39.9 L 136.28831462860109 40.238202285766604 L 135.0 47.6 L 132.3 58.7 L 129.2 69.1 L 125.4 78.6 L 121.1 87.3 L 116.1 95.1 L 110.7 102.0 L 104.6 108.0 L 98.0 113.0 L 90.9 116.8 L 89.9 115.3 L 95.6 110.0 L 100.8 104.3 L 105.5 98.0 L 109.7 91.1 L 113.5 83.5 L 116.8 75.1 L 117.636101436615 72.41253108978272 L 113.7 72.5 L 110.3 69.5 L 110.0 68.0 L 109.6 66.4 L 109.1 64.8 L 108.5 63.2 L 107.7 61.5 L 106.8 59.7 L 105.7 58.0 L 104.6 56.1 L 104.02775602340698 55.263643455505374 L 102.3 58.6 L 99.1 64.0 L 95.6 69.0 L 91.8 73.8 L 90.2 72.9 L 92.3 67.2 L 94.3 61.6 L 96.3 55.9 L 98.2 50.2 L 100.0 44.4 L 101.6 38.4 L 103.0 32.4 L 104.3 26.2 L 105.4 19.9 L 106.24545450210572 14.404545497894286 L 106.2 14.4 L 106.7 11.5 L 118.2 15.6 L 120.8 18.1 L 117.21871995925903 19.4673978805542 L 116.5 22.3 L 114.7 28.8 L 113.39841270446777 32.9 L 125.1 32.9 L 131.1 27.9 L 137.5 33.13636360168457 L 137.5 32.5 L 148.5 38.0 L 158.9 38.0 L 158.9 11.0 L 169.9 13.0 L 172.7 15.0 L 169.9 16.75 L 169.9 38.0 L 172.7777777671814 38.0 L 179.0 31.0 L 187.0 38.0 L 187.0 42.0 L 169.9 42.0 L 169.9 84.0 L 173.9777777671814 84.0 L 180.2 77.0 L 188.2 84.0 L 188.2 88.0 L 169.9 88.0 L 169.9 111.2 L 158.9 116.7 L 158.9 88.0 L 128.3 88.0 Z M 148.5 42.0 L 148.5 84.0 L 158.9 84.0 L 158.9 42.0 Z M 112.03225803375244 36.9 L 110.4 41.3 L 107.9 47.3 L 105.34594593048095 52.69189186096192 L 106.9 53.3 L 109.0 54.3 L 111.1 55.4 L 113.0 56.6 L 114.9 58.0 L 116.6 59.4 L 119.8 62.6 L 120.27211112976075 63.206999969482425 L 121.9 56.2 L 123.8 45.6 L 124.79210529327392 36.9 Z " />
</g>
</svg>
