<svg xmlns="http://www.w3.org/2000/svg" xmlns:xlink="http://www.w3.org/1999/xlink" version="1.1" baseProfile="full" viewBox="0 0 200 200" width="200" height="200">
<g fill="black">
<path d="M 166.6 141.7 L 166.6 140.2 L 166.5 139.3 L 166.3 138.3 L 166.0 137.3 L 165.6 136.2 L 165.1 135.1 L 164.38333330154418 134.66999998092652 L 162.5 135.8 L 162.5 142.0 L 161.86176471710206 148.2 L 164.4181818008423 148.2 L 167.8370369911194 144.43925924301146 L 166.1 143.0 L 166.4 142.4 Z M 48.6 141.7 L 48.6 140.2 L 48.5 139.3 L 48.3 138.3 L 48.0 137.3 L 47.6 136.2 L 47.1 135.1 L 46.38333330154419 134.66999998092652 L 44.5 135.8 L 44.5 142.0 L 43.86176471710205 148.2 L 46.418181800842284 148.2 L 49.83703699111938 144.43925924301146 L 48.1 143.0 L 48.4 142.4 Z M 107.6 141.7 L 107.6 140.2 L 107.5 139.3 L 107.3 138.3 L 107.0 137.3 L 106.6 136.2 L 106.1 135.1 L 105.38333330154418 134.66999998092652 L 103.5 135.8 L 103.5 142.0 L 102.86176471710205 148.2 L 105.41818180084229 148.2 L 108.83703699111939 144.43925924301146 L 107.1 143.0 L 107.4 142.4 Z M 33.3 116.4 L 50.5 116.4 L 51.4 116.2 L 52.0 116.0 L 52.4 115.8 L 52.7 115.5 L 52.9 115.2 L 53.1 114.6 L 53.2 113.7 L 53.3 112.4 L 53.3 105.6 L 30.1125 105.6 L 30.0 106.2 L 29.1 109.3 L 28.0 112.1 L 26.5 114.8 L 24.8 117.1 L 22.8 119.3 L 20.6 121.1 L 18.1 122.6 L 15.5 123.8 L 13.0 125.2 L 12.0 123.7 L 14.1 121.9 L 15.5 119.8 L 16.7 117.7 L 17.7 115.6 L 18.3 113.5 L 18.8 111.5 L 19.0 109.4 L 19.0 107.4 L 18.9 105.2 L 18.6 103.0 L 18.6 70.4 L 30.6 76.4 L 53.3 76.4 L 59.3 71.4 L 70.3 80.4 L 65.3 84.4 L 65.3 112.4 L 65.1 115.0 L 64.7 117.5 L 63.9 119.9 L 62.7 122.2 L 61.0 124.2 L 59.0 125.8 L 56.7 127.1 L 54.3 127.9 L 51.8 128.3 L 49.3 128.4 L 49.3 122.4 L 33.3 119.4 Z M 96.3 116.4 L 109.5 116.4 L 110.4 116.2 L 111.0 116.0 L 111.4 115.8 L 111.7 115.5 L 111.9 115.2 L 112.1 114.6 L 112.2 113.7 L 112.3 112.4 L 112.3 105.6 L 89.1125 105.6 L 89.0 106.2 L 88.1 109.3 L 87.0 112.1 L 85.5 114.8 L 83.8 117.1 L 81.8 119.3 L 79.6 121.1 L 77.1 122.6 L 74.5 123.8 L 72.0 125.2 L 71.0 123.7 L 73.1 121.9 L 74.5 119.8 L 75.7 117.7 L 76.7 115.6 L 77.3 113.5 L 77.8 111.5 L 78.0 109.4 L 78.0 107.4 L 77.9 105.2 L 77.6 103.0 L 77.6 70.4 L 89.6 76.4 L 112.3 76.4 L 118.3 71.4 L 129.3 80.4 L 124.3 84.4 L 124.3 112.4 L 124.1 115.0 L 123.7 117.5 L 122.9 119.9 L 121.7 122.2 L 120.0 124.2 L 118.0 125.8 L 115.7 127.1 L 113.3 127.9 L 110.8 128.3 L 108.3 128.4 L 108.3 122.4 L 96.3 119.4 Z M 156.0 116.4 L 169.3 116.4 L 170.2 116.2 L 170.8 116.0 L 171.1 115.8 L 171.3 115.7 L 171.4 115.5 L 171.6 115.2 L 171.8 114.6 L 172.0 113.7 L 172.0 105.6 L 148.4125 105.6 L 148.3 106.2 L 147.4 109.3 L 146.2 112.2 L 144.7 114.8 L 143.0 117.2 L 141.0 119.3 L 138.8 121.1 L 136.3 122.6 L 131.1 125.2 L 130.1 123.7 L 132.2 121.9 L 133.7 119.8 L 135.0 117.6 L 135.9 115.6 L 136.6 113.5 L 137.1 111.5 L 137.3 109.4 L 137.3 107.3 L 137.2 105.2 L 136.9 103.0 L 136.9 70.4 L 148.9 76.4 L 172.0 76.4 L 178.0 71.4 L 189.0 80.4 L 184.0 84.4 L 184.0 112.4 L 183.9 115.0 L 183.4 117.5 L 182.6 119.9 L 181.4 122.2 L 179.8 124.2 L 177.7 125.8 L 175.5 127.1 L 173.1 127.9 L 170.6 128.3 L 168.0 128.4 L 168.0 122.4 L 156.0 119.4 Z M 148.9 93.1 L 148.9 101.6 L 172.0 101.6 L 172.0 93.1 Z M 89.6 93.1 L 89.6 101.6 L 112.3 101.6 L 112.3 93.1 Z M 30.6 93.1 L 30.6 101.6 L 53.3 101.6 L 53.3 93.1 Z M 148.9 80.4 L 148.9 89.1 L 172.0 89.1 L 172.0 80.4 Z M 89.6 80.4 L 89.6 89.1 L 112.3 89.1 L 112.3 80.4 Z M 30.6 80.4 L 30.6 89.1 L 53.3 89.1 L 53.3 80.4 Z M 102.27062377929687 17.637625789642335 L 101.9 24.0 L 101.78876399993896 24.9 L 113.9 24.9 L 119.9 19.9 L 130.9 28.9 L 125.9 31.9 L 125.9 44.9 L 126.0 47.9 L 126.0 52.3 L 126.1 53.5 L 126.1 53.8 L 125.95244264602661 53.7675103187561 L 125.2 58.0 L 123.7 60.0 L 122.1 61.9 L 120.4 63.6 L 118.5 65.0 L 116.4 66.3 L 114.2 67.3 L 111.9 68.1 L 109.6 68.6 L 107.2 69.0 L 104.7 69.1 L 104.7 63.1 L 86.39140167236329 60.35371026992798 L 85.5 61.1 L 80.6 63.8 L 75.3 65.8 L 69.5 67.1 L 68.9 65.4 L 73.7 62.3 L 77.9 59.2 L 81.3 56.1 L 84.0 52.6 L 86.2 48.7 L 87.9 44.0 L 89.3 38.4 L 90.1 31.5 L 90.2283950805664 28.9 L 72.1 28.9 L 72.1 24.9 L 90.4259259223938 24.9 L 90.5 23.4 L 90.5 11.3 L 102.5 13.7 L 105.5 15.7 Z M 43.270623779296876 17.637625789642335 L 42.9 24.0 L 42.788763999938965 24.9 L 54.9 24.9 L 60.9 19.9 L 71.9 28.9 L 66.9 31.9 L 66.9 44.9 L 67.0 47.9 L 67.0 52.3 L 67.1 53.5 L 67.1 53.8 L 66.95244264602661 53.7675103187561 L 66.2 58.0 L 64.7 60.0 L 63.1 61.9 L 61.4 63.6 L 59.5 65.0 L 57.4 66.3 L 55.2 67.3 L 52.9 68.1 L 50.6 68.6 L 48.2 69.0 L 45.7 69.1 L 45.7 63.1 L 31.7 60.1 L 31.7 57.1 L 45.7 57.1 L 47.1 57.0 L 48.4 56.8 L 49.6 56.6 L 50.7 56.2 L 51.7 55.7 L 52.7 55.1 L 53.6 54.4 L 54.5 53.6 L 55.02459020614624 52.94426231384277 L 55.0 52.6 L 55.0 48.1 L 54.9 45.0 L 54.9 28.9 L 42.29438199996948 28.9 L 41.8 32.9 L 40.0 40.7 L 37.6 47.3 L 34.6 52.9 L 30.8 57.5 L 26.5 61.1 L 21.6 63.8 L 16.3 65.8 L 10.5 67.1 L 9.9 65.4 L 14.7 62.3 L 18.9 59.2 L 22.3 56.1 L 25.0 52.6 L 27.2 48.7 L 28.9 44.0 L 30.3 38.4 L 31.1 31.5 L 31.228395080566408 28.9 L 13.1 28.9 L 13.1 24.9 L 31.425925922393798 24.9 L 31.5 23.4 L 31.5 11.3 L 43.5 13.7 L 46.5 15.7 Z M 161.27062377929687 17.637625789642335 L 160.9 24.0 L 160.78876399993896 24.9 L 172.9 24.9 L 178.9 19.9 L 189.9 28.9 L 184.9 31.9 L 184.9 44.9 L 185.0 47.9 L 185.0 52.3 L 185.1 53.5 L 185.1 53.8 L 184.9524426460266 53.7675103187561 L 184.2 58.0 L 182.7 60.0 L 181.1 61.9 L 179.4 63.6 L 177.5 65.0 L 175.4 66.3 L 173.2 67.3 L 170.9 68.1 L 168.6 68.6 L 166.2 69.0 L 163.7 69.1 L 163.7 63.1 L 145.3914016723633 60.35371026992798 L 144.5 61.1 L 139.6 63.8 L 134.3 65.8 L 128.5 67.1 L 127.9 65.4 L 132.7 62.3 L 136.9 59.2 L 140.3 56.1 L 143.0 52.6 L 145.2 48.7 L 146.9 44.0 L 148.3 38.4 L 149.1 31.5 L 149.2283950805664 28.9 L 131.1 28.9 L 131.1 24.9 L 149.4259259223938 24.9 L 149.5 23.4 L 149.5 11.3 L 161.5 13.7 L 164.5 15.7 Z M 160.2943819999695 28.9 L 159.8 32.9 L 158.0 40.7 L 155.6 47.3 L 152.6 52.9 L 149.13043479919435 57.1 L 163.7 57.1 L 165.1 57.0 L 166.4 56.8 L 167.6 56.6 L 168.7 56.2 L 169.7 55.7 L 170.7 55.1 L 171.6 54.4 L 172.5 53.6 L 173.02459020614623 52.94426231384277 L 173.0 52.6 L 173.0 48.1 L 172.9 45.0 L 172.9 28.9 Z M 101.29438199996949 28.9 L 100.8 32.9 L 99.0 40.7 L 96.6 47.3 L 93.6 52.9 L 90.13043479919433 57.1 L 104.7 57.1 L 106.1 57.0 L 107.4 56.8 L 108.6 56.6 L 109.7 56.2 L 110.7 55.7 L 111.7 55.1 L 112.6 54.4 L 113.5 53.6 L 114.02459020614624 52.94426231384277 L 114.0 52.6 L 114.0 48.1 L 113.9 45.0 L 113.9 28.9 Z M 59.7 187.6 L 55.9 185.0 L 52.4 182.1 L 49.3 178.9 L 46.6 175.5 L 44.3 171.9 L 42.4 168.1 L 41.0 164.2 L 40.44240503311157 161.858101272583 L 38.3 166.4 L 35.2 171.2 L 31.6 175.4 L 27.3 178.9 L 22.6 181.8 L 17.3 183.8 L 11.7 185.1 L 11.1 183.4 L 15.7 180.4 L 19.6 177.3 L 23.0 174.0 L 25.8 170.5 L 28.1 166.7 L 29.9 162.5 L 31.2 158.1 L 32.1 153.2 L 32.1740740776062 152.2 L 12.3 152.2 L 12.3 148.2 L 32.47037038803101 148.2 L 32.5 147.8 L 32.5 130.0 L 44.5 132.0 L 46.68636360168457 133.45757579803467 L 47.0 132.9 L 48.0 133.5 L 49.4 133.6 L 52.0 134.0 L 54.4 134.8 L 55.6 135.3 L 57.8 136.7 L 58.9 137.6 L 59.1 142.2 L 58.593344402313235 142.79400997161866 L 64.6 148.2 L 64.6 152.2 L 43.1625 152.2 L 42.682702732086184 154.75891895294188 L 42.7 154.8 L 44.7 158.3 L 46.8 161.4 L 49.0 164.2 L 51.3 166.8 L 53.8 169.0 L 56.5 171.0 L 59.3 172.8 L 62.4 174.4 L 65.7 175.8 L 71.0 178.5 Z M 170.4 182.1 L 167.3 178.9 L 164.6 175.5 L 162.3 171.9 L 160.4 168.1 L 159.0 164.2 L 158.44240503311158 161.858101272583 L 156.3 166.4 L 153.2 171.2 L 149.6 175.4 L 145.3 178.9 L 140.6 181.8 L 135.3 183.8 L 129.7 185.1 L 129.1 183.4 L 133.7 180.4 L 137.6 177.3 L 141.0 174.0 L 143.8 170.5 L 146.1 166.7 L 147.9 162.5 L 149.2 158.1 L 150.1 153.2 L 150.1740740776062 152.2 L 130.3 152.2 L 130.3 148.2 L 150.470370388031 148.2 L 150.5 147.8 L 150.5 130.0 L 162.5 132.0 L 164.68636360168458 133.45757579803467 L 165.0 132.9 L 166.0 133.5 L 167.4 133.6 L 170.0 134.0 L 172.4 134.8 L 173.6 135.3 L 175.8 136.7 L 176.9 137.6 L 177.1 142.2 L 176.59334440231322 142.79400997161866 L 182.6 148.2 L 182.6 152.2 L 161.1625 152.2 L 160.68270273208617 154.75891895294188 L 160.7 154.8 L 162.7 158.3 L 164.8 161.4 L 167.0 164.2 L 169.3 166.8 L 171.8 169.0 L 174.5 171.0 L 177.3 172.8 L 180.4 174.4 L 183.7 175.8 L 189.0 178.5 L 177.7 187.6 L 173.9 185.0 Z M 118.7 187.6 L 114.9 185.0 L 111.4 182.1 L 108.3 178.9 L 105.6 175.5 L 103.3 171.9 L 101.4 168.1 L 100.0 164.2 L 99.44240503311157 161.858101272583 L 97.3 166.4 L 94.2 171.2 L 90.6 175.4 L 86.3 178.9 L 81.6 181.8 L 76.3 183.8 L 70.7 185.1 L 70.1 183.4 L 74.7 180.4 L 78.6 177.3 L 82.0 174.0 L 84.8 170.5 L 87.1 166.7 L 88.9 162.5 L 90.2 158.1 L 91.1 153.2 L 91.1740740776062 152.2 L 71.3 152.2 L 71.3 148.2 L 91.470370388031 148.2 L 91.5 147.8 L 91.5 130.0 L 103.5 132.0 L 105.68636360168458 133.45757579803467 L 106.0 132.9 L 107.0 133.5 L 108.4 133.6 L 111.0 134.0 L 113.4 134.8 L 114.6 135.3 L 116.8 136.7 L 117.9 137.6 L 118.1 142.2 L 117.59334440231324 142.79400997161866 L 123.6 148.2 L 123.6 152.2 L 102.1625 152.2 L 101.68270273208618 154.75891895294188 L 101.7 154.8 L 103.7 158.3 L 105.8 161.4 L 108.0 164.2 L 110.3 166.8 L 112.8 169.0 L 115.5 171.0 L 118.3 172.8 L 121.4 174.4 L 124.7 175.8 L 130.0 178.5 Z " />
</g>
</svg>
