<svg xmlns="http://www.w3.org/2000/svg" xmlns:xlink="http://www.w3.org/1999/xlink" version="1.1" baseProfile="full" viewBox="0 0 200 200" width="200" height="200">
<g fill="black">
<path d="M 168.6 178.0 L 166.9 179.9 L 165.1 181.5 L 163.1 182.9 L 161.0 184.0 L 158.7 184.9 L 156.3 185.5 L 153.9 185.8 L 151.4 186.0 L 151.4 180.0 L 137.4 177.0 L 137.4 174.0 L 151.4 174.0 L 152.7 173.9 L 154.0 173.7 L 155.1 173.4 L 156.0 173.1 L 156.9 172.6 L 158.5 171.4 L 159.2 170.5 L 160.0 169.5 L 160.7 168.3 L 162.1 164.8 L 163.5 159.7 L 164.9 152.9 L 166.1 144.7 L 167.1 135.0 L 167.9 123.8 L 168.6 111.2 L 169.1 97.2 L 169.4 81.8 L 169.4880952835083 67.0 L 147.48709678649902 67.0 L 146.9 82.6 L 145.2 99.9 L 142.6 115.9 L 139.0 130.5 L 134.6 143.9 L 129.1 155.8 L 122.7 166.4 L 115.4 175.4 L 107.1 182.9 L 97.9 188.7 L 96.9 187.2 L 104.6 180.1 L 111.3 172.0 L 117.2 162.9 L 122.3 152.6 L 126.6 141.0 L 130.0 128.2 L 132.7 114.1 L 134.5 98.7 L 135.5 82.0 L 135.5833333015442 67.0 L 110.6 67.0 L 110.6 63.0 L 135.6 63.0 L 135.6 18.0 L 147.6 20.0 L 150.6 22.0 L 147.6 23.8 L 147.6 63.0 L 169.5 63.0 L 175.5 58.0 L 186.5 67.0 L 181.5 70.0 L 181.4703411102295 70.01235790252686 L 181.4 81.9 L 181.1 97.5 L 180.6 111.7 L 179.9 124.5 L 179.1 136.0 L 178.0 146.1 L 176.7 154.9 L 175.2 162.4 L 173.5 168.7 L 171.3 173.9 L 170.0 176.0 Z M 70.5 176.0 L 84.5 176.0 L 85.8 175.9 L 86.7 175.7 L 87.6 175.4 L 87.8 175.2 L 87.9 175.0 L 88.1 174.7 L 88.3 174.1 L 88.5 173.2 L 88.5 141.0 L 36.8 141.0 L 36.8 182.0 L 24.8 188.0 L 24.8 92.0 L 36.8 98.0 L 88.5 98.0 L 94.5 93.0 L 105.5 102.0 L 100.5 106.0 L 100.5 172.0 L 100.4 174.5 L 99.9 177.0 L 99.1 179.4 L 97.9 181.7 L 96.3 183.7 L 94.2 185.3 L 92.0 186.6 L 89.6 187.4 L 87.1 187.8 L 84.5 188.0 L 84.5 182.0 L 70.5 179.0 Z M 36.8 121.0 L 36.8 137.0 L 88.5 137.0 L 88.5 121.0 Z M 36.8 102.0 L 36.8 117.0 L 88.5 117.0 L 88.5 102.0 Z M 12.5 78.0 L 57.6 78.0 L 57.6 60.0 L 22.1 60.0 L 22.1 56.0 L 57.6 56.0 L 57.6 38.0 L 17.3 38.0 L 17.3 34.0 L 57.6 34.0 L 57.6 13.0 L 69.6 15.0 L 72.6 17.0 L 69.6 18.8 L 69.6 34.0 L 86.0 34.0 L 96.0 24.0 L 108.0 34.0 L 108.0 38.0 L 69.6 38.0 L 69.6 56.0 L 85.01818180084229 56.0 L 93.2 47.0 L 103.2 56.0 L 103.2 60.0 L 69.6 60.0 L 69.6 78.0 L 100.5777777671814 78.0 L 106.8 71.0 L 114.8 78.0 L 114.8 82.0 L 12.5 82.0 Z " />
</g>
</svg>
