<svg xmlns="http://www.w3.org/2000/svg" xmlns:xlink="http://www.w3.org/1999/xlink" version="1.1" baseProfile="full" viewBox="0 0 200 200" width="200" height="200">
<g fill="black">
<path d="M 170.8 177.9 L 169.1 179.8 L 167.3 181.4 L 165.3 182.8 L 163.2 184.0 L 160.9 184.9 L 158.5 185.5 L 156.1 185.8 L 153.6 186.0 L 153.6 180.0 L 133.6 177.0 L 133.6 174.0 L 153.6 174.0 L 154.9 173.9 L 156.2 173.7 L 158.2 173.1 L 159.0 172.6 L 160.6 171.4 L 161.3 170.5 L 162.0 169.5 L 162.7 168.3 L 164.1 164.8 L 165.5 159.7 L 166.8 152.9 L 168.0 144.7 L 168.9 135.0 L 169.7 123.8 L 170.4 111.2 L 170.8 97.2 L 171.1 81.8 L 171.1880952835083 67.0 L 150.28709678649903 67.0 L 149.7 82.6 L 148.1 99.9 L 145.5 115.9 L 142.1 130.5 L 137.8 143.8 L 132.5 155.8 L 126.3 166.3 L 119.2 175.4 L 111.1 182.9 L 102.2 188.7 L 101.2 187.2 L 108.5 180.1 L 115.0 172.0 L 120.7 162.9 L 125.6 152.6 L 129.7 141.1 L 133.1 128.3 L 135.6 114.2 L 137.4 98.8 L 138.3 82.0 L 138.38333330154418 67.0 L 114.4 67.0 L 114.4 63.0 L 138.4 63.0 L 138.4 18.0 L 150.4 20.0 L 153.4 22.0 L 150.4 23.8 L 150.4 63.0 L 171.2 63.0 L 177.2 58.0 L 188.2 67.0 L 183.2 70.0 L 183.1703411102295 70.01235790252686 L 183.1 81.9 L 182.8 97.5 L 182.4 111.7 L 181.7 124.5 L 180.9 136.0 L 179.9 146.1 L 178.6 154.9 L 177.2 162.3 L 175.5 168.6 L 173.4 173.7 L 172.2 175.9 Z M 94.0 118.0 L 94.0 101.0 L 46.0 101.0 L 46.0 114.0 L 45.670588207244876 118.0 Z M 52.1 144.8 L 52.1 171.1 L 95.8 171.1 L 95.8 144.8 Z M 46.0 80.0 L 46.0 97.0 L 94.0 97.0 L 94.0 80.0 Z M 100.7 51.3 L 97.8 48.3 L 94.3 45.2 L 90.4 42.0 L 86.1 38.8 L 81.3 35.6 L 76.1 32.3 L 70.5 28.8 L 69.11724805831909 27.970348834991455 L 64.9 34.7 L 59.7 41.8 L 54.2 48.6 L 48.3 55.0 L 41.9 61.0 L 35.2 66.7 L 28.0 71.8 L 20.5 76.5 L 12.4 80.7 L 11.5 79.2 L 18.3 73.5 L 24.7 67.6 L 30.8 61.7 L 36.6 55.6 L 41.9 49.3 L 46.9 42.8 L 51.5 36.1 L 55.8 29.1 L 59.6 21.8 L 62.925 14.675 L 63.6 13.1 L 73.9 19.4 L 75.8 22.5 L 71.97276134490967 22.895921230316162 L 70.8300682067871 24.96871347427368 L 72.1 25.3 L 78.4 27.4 L 84.4 29.8 L 89.9 32.3 L 95.0 34.9 L 99.8 37.6 L 104.1 40.5 L 108.1 43.5 L 111.6 46.6 L 114.8 49.9 L 116.0 54.3 L 113.8 58.3 L 109.4 59.5 L 105.4 57.3 L 103.3 54.3 Z M 98.0 58.0 L 98.0 62.0 L 46.0 62.0 L 46.0 58.0 L 76.0 58.0 L 86.0 48.0 Z M 46.0 76.0 L 94.0 76.0 L 100.0 71.0 L 111.0 80.0 L 106.0 84.0 L 106.0 124.0 L 94.0 130.0 L 94.0 122.0 L 45.34117650985718 122.0 L 45.3 122.5 L 44.1 130.7 L 42.837931060791014 136.1689655303955 L 52.1 140.8 L 95.8 140.8 L 101.8 135.8 L 112.8 144.8 L 107.8 148.8 L 107.8 175.1 L 95.8 181.1 L 95.8 175.1 L 52.1 175.1 L 52.1 182.1 L 40.1 188.1 L 40.1 145.1916666984558 L 39.9 145.8 L 36.8 152.7 L 33.2 159.0 L 28.9 164.8 L 24.1 170.1 L 18.6 174.7 L 12.5 178.7 L 11.4 177.2 L 16.0 172.0 L 20.0 166.6 L 23.5 161.1 L 26.6 155.3 L 29.1 149.2 L 31.1 142.9 L 32.5 136.2 L 33.5 129.2 L 34.0 121.8 L 34.0 70.0 Z " />
</g>
</svg>
