<svg xmlns="http://www.w3.org/2000/svg" xmlns:xlink="http://www.w3.org/1999/xlink" version="1.1" baseProfile="full" viewBox="0 0 200 200" width="200" height="200">
<g fill="black">
<path d="M 19.4 178.5 L 18.7 174.0 L 21.4 170.3 L 24.2 168.7 L 26.9 166.6 L 29.4 164.1 L 31.8 161.0 L 34.0 157.5 L 35.9 153.3 L 37.7 148.6 L 39.3 143.4 L 40.7 137.7 L 42.0 131.3 L 43.8 131.4 L 44.4 138.0 L 44.5 144.2 L 44.0 150.0 L 43.1 155.5 L 41.7 160.7 L 39.9 165.5 L 37.5 169.9 L 34.7 173.9 L 31.4 177.4 L 27.6 180.5 L 23.1 181.2 Z M 168.4 167.6 L 167.0 163.5 L 165.1 159.4 L 163.0 155.2 L 160.4 151.0 L 157.5 146.6 L 154.3 142.2 L 150.9 137.6 L 147.1 132.8 L 148.3 131.4 L 153.5 134.8 L 158.2 138.5 L 162.5 142.3 L 166.4 146.3 L 170.0 150.4 L 173.1 154.7 L 175.9 159.0 L 178.4 163.4 L 180.4 168.0 L 182.1 172.6 L 181.3 177.1 L 177.7 179.9 L 173.2 179.1 L 170.4 175.5 L 169.6 171.6 Z M 121.2 165.0 L 120.5 161.4 L 119.5 157.6 L 118.2 153.9 L 116.6 150.0 L 114.6 146.2 L 112.4 142.2 L 109.9 138.1 L 107.0 133.9 L 108.3 132.6 L 112.4 135.8 L 116.2 139.1 L 119.7 142.6 L 122.7 146.3 L 125.4 150.1 L 127.8 154.1 L 129.8 158.2 L 131.5 162.4 L 132.8 166.8 L 133.7 171.2 L 132.2 175.6 L 128.2 177.7 L 123.9 176.3 L 121.7 172.3 L 121.6 168.7 Z M 80.7 177.7 L 76.7 175.6 L 75.2 171.2 L 75.8 167.7 L 76.0 164.1 L 76.1 160.5 L 75.8 156.8 L 75.3 153.2 L 74.6 149.5 L 73.5 145.7 L 72.2 141.8 L 70.7 137.9 L 68.8 133.9 L 70.3 132.8 L 73.4 136.1 L 76.4 139.5 L 78.9 143.1 L 81.1 146.9 L 83.0 150.8 L 84.5 154.9 L 85.7 159.1 L 86.6 163.4 L 87.0 167.8 L 87.2 172.3 L 85.0 176.3 Z M 84.7 117.0 L 82.6 118.2 L 80.6 119.2 L 78.4 120.0 L 76.2 120.7 L 73.9 121.3 L 69.3 121.9 L 67.0 122.0 L 67.0 116.0 L 49.0 113.0 L 49.0 110.0 L 67.0 110.0 L 68.5 109.9 L 70.1 109.7 L 71.5 109.5 L 73.0 109.2 L 74.4 108.7 L 75.7 108.2 L 78.3 106.8 L 80.45526313781738 105.30789470672607 L 80.7 104.9 L 80.9 103.8 L 81.2 102.4 L 81.5 100.6 L 81.7 98.4 L 81.8 95.9 L 81.9 93.1 L 81.93548383712769 92.0 L 52.45 92.0 L 51.0 94.9 L 47.1 101.4 L 42.7 107.4 L 37.8 113.0 L 32.4 118.2 L 26.6 122.9 L 20.3 127.1 L 13.4 130.7 L 12.5 129.2 L 18.0 124.1 L 23.1 118.9 L 27.7 113.6 L 32.0 108.2 L 35.7 102.5 L 39.1 96.6 L 42.0 90.5 L 44.5 84.1 L 46.5 77.5 L 47.26363639831543 74.0 L 16.0 74.0 L 16.0 70.0 L 53.0 70.0 L 53.0 55.0 L 65.0 57.0 L 68.0 59.0 L 65.0 60.8 L 65.0 70.0 L 85.81818180084228 70.0 L 94.0 61.0 L 104.0 70.0 L 104.0 74.0 L 59.6 74.0 L 57.3 80.9 L 54.4402777671814 88.0 L 82.0 88.0 L 88.0 83.0 L 99.0 92.0 L 94.0 95.0 L 93.84485492706298 95.06464376449586 L 93.8 96.5 L 93.6 99.3 L 93.4 101.9 L 93.1 104.3 L 92.6 106.6 L 92.1 108.6 L 91.3 110.5 L 90.2 112.4 L 88.5 114.3 L 86.6 115.7 Z M 167.0 121.4 L 165.0 122.5 L 162.9 123.4 L 160.7 124.2 L 158.5 124.8 L 156.3 125.3 L 154.0 125.7 L 151.7 125.9 L 149.3 125.9 L 149.3 119.9 L 129.3 116.9 L 129.3 113.9 L 151.0 113.9 L 152.5 113.7 L 154.1 113.5 L 155.5 113.2 L 157.0 112.8 L 159.8 111.6 L 161.2 110.9 L 162.5 110.1 L 163.22121210098265 109.63636360168456 L 163.3 109.4 L 163.6 108.2 L 163.9 106.5 L 164.2 104.4 L 164.5 101.8 L 164.7 98.9 L 164.9 95.6 L 164.94054050445556 94.1 L 144.43384618759154 94.1 L 141.4 99.9 L 137.3 105.7 L 132.6 110.9 L 127.2 115.3 L 121.3 118.9 L 114.8 121.8 L 107.9 123.8 L 100.4 124.9 L 100.0 123.1 L 106.6 120.2 L 112.6 116.9 L 117.8 113.4 L 122.4 109.4 L 126.4 105.1 L 129.7 100.3 L 132.5 95.1 L 132.90350875854492 94.1 L 105.5 94.1 L 105.5 90.1 L 134.51754388809204 90.1 L 134.8 89.4 L 136.5 83.2 L 137.7 76.4 L 137.770374584198 76.41182765960693 L 138.1 74.5 L 149.6 78.4 L 152.2 80.9 L 148.55190954208373 82.29290723800659 L 147.5 86.2 L 146.0375 90.1 L 165.0 90.1 L 171.0 85.1 L 182.0 94.1 L 177.0 97.1 L 176.76867465972902 97.19638557434082 L 176.7 99.6 L 176.4 102.9 L 176.1 105.8 L 175.8 108.4 L 175.3 110.8 L 174.8 112.9 L 174.0 114.9 L 172.9 116.9 L 171.0 118.9 L 169.0 120.2 Z M 162.3 75.2 L 155.2 72.3 L 148.8 68.8 L 143.79136686325074 65.40431652069091 L 138.2 68.2 L 129.6 71.5 L 120.0 74.3 L 109.5 76.4 L 98.1 77.8 L 97.8 76.1 L 108.6 72.7 L 118.4 69.2 L 127.1 65.4 L 134.8 61.4 L 137.32122240066528 59.757385444641116 L 133.3 55.2 L 129.5 49.7 L 126.5 43.7 L 125.69613151550293 41.08742742538452 L 123.2 44.1 L 120.0 47.5 L 116.5 50.7 L 112.6 53.7 L 108.6 56.6 L 107.3 55.3 L 107.52307691574097 55.0 L 14.0 55.0 L 14.0 51.0 L 53.0 51.0 L 53.0 38.0 L 23.0 38.0 L 23.0 34.0 L 53.0 34.0 L 53.0 17.0 L 65.0 19.0 L 68.0 21.0 L 65.0 22.8 L 65.0 34.0 L 78.0 34.0 L 88.0 24.0 L 100.0 34.0 L 100.0 38.0 L 65.0 38.0 L 65.0 51.0 L 91.81818180084228 51.0 L 100.0 42.0 L 110.0 51.0 L 110.0 51.66896553039551 L 110.2 51.4 L 112.8 47.5 L 115.2 43.7 L 117.3 39.9 L 119.2 36.3 L 120.8 32.6 L 122.2 29.1 L 123.4 25.5 L 124.2 22.0 L 124.71609754562378 19.41951217651367 L 124.6 19.4 L 125.3 16.7 L 136.5 21.4 L 139.0 24.0 L 135.0785894393921 25.190428256988525 L 135.0 25.4 L 133.2 29.4 L 132.3384614944458 31.0 L 165.0 31.0 L 175.0 21.0 L 187.0 31.0 L 187.0 35.0 L 168.60909090042114 35.0 L 170.7 35.6 L 167.8 42.5 L 163.8 48.9 L 158.8 54.7 L 153.15652170181275 59.57826089859009 L 153.6 59.8 L 159.4 62.1 L 165.8 64.0 L 172.6 65.4 L 179.9 66.4 L 189.8 67.9 L 178.0 79.5 L 169.8 77.6 Z M 129.9972972869873 35.0 L 128.7 37.0 L 127.6714285850525 38.42417583465576 L 130.1 41.6 L 134.2 46.2 L 138.5 50.3 L 143.2 53.9 L 144.4147451400757 54.677436923980714 L 147.0 52.6 L 151.4 47.9 L 154.9 42.9 L 157.5 37.7 L 158.35 35.0 Z " />
</g>
</svg>
