<svg xmlns="http://www.w3.org/2000/svg" xmlns:xlink="http://www.w3.org/1999/xlink" version="1.1" baseProfile="full" viewBox="0 0 200 200" width="200" height="200">
<g fill="black">
<path d="M 72.4 175.6 L 70.6 177.3 L 68.7 178.8 L 66.7 180.1 L 64.5 181.1 L 62.2 181.9 L 59.9 182.5 L 57.4 182.8 L 55.0 183.0 L 55.0 177.0 L 39.0 174.0 L 39.0 171.0 L 55.0 171.0 L 56.4 170.9 L 57.7 170.7 L 59.9 170.1 L 60.9 169.6 L 61.8 169.0 L 62.7 168.3 L 63.6 167.5 L 64.4 166.5 L 65.2 165.3 L 66.9 161.8 L 68.7 156.6 L 70.4 149.9 L 71.8 141.6 L 73.1 131.9 L 74.1 120.8 L 74.9 108.2 L 75.5 94.2 L 75.8 78.8 L 75.97619047164918 64.0 L 55.8709677696228 64.0 L 55.2 79.6 L 53.7 96.9 L 51.4 112.9 L 48.2 127.6 L 44.3 141.0 L 39.4 153.0 L 33.7 163.7 L 27.2 172.9 L 19.7 180.6 L 11.5 186.7 L 10.4 185.2 L 17.0 178.0 L 22.8 169.8 L 28.0 160.5 L 32.4 150.1 L 36.1 138.4 L 39.2 125.5 L 41.5 111.3 L 43.0 95.8 L 43.9 79.0 L 43.98333330154419 64.0 L 17.0 64.0 L 17.0 60.0 L 44.0 60.0 L 44.0 15.0 L 56.0 17.0 L 59.0 19.0 L 56.0 20.8 L 56.0 60.0 L 76.0 60.0 L 82.0 55.0 L 93.0 64.0 L 88.0 67.0 L 87.94053516387939 67.02477703094482 L 87.8 78.9 L 87.5 94.6 L 86.9 108.8 L 86.1 121.7 L 85.0 133.2 L 83.7 143.4 L 82.1 152.3 L 80.2 160.0 L 78.0 166.4 L 75.4 171.7 L 73.9 173.7 Z M 184.6 145.0 L 186.6 145.0 L 184.6 170.0 L 188.2 172.4 L 190.6 176.0 L 188.2 179.6 L 184.6 182.0 L 168.1 182.0 L 165.5 181.8 L 163.0 181.4 L 160.6 180.6 L 158.3 179.3 L 156.3 177.7 L 154.7 175.7 L 153.4 173.4 L 152.6 171.0 L 152.2 168.5 L 152.1 166.0 L 152.1 86.0 L 124.7 86.0 L 124.7 113.0 L 123.8 123.6 L 122.0 133.6 L 119.4 142.9 L 115.9 151.6 L 111.5 159.5 L 106.3 166.8 L 100.2 173.3 L 93.4 179.0 L 85.7 183.8 L 77.3 187.7 L 76.4 186.2 L 83.6 180.7 L 89.9 174.9 L 95.4 168.8 L 100.2 162.3 L 104.1 155.4 L 107.3 147.9 L 109.8 140.0 L 111.5 131.5 L 112.5 122.5 L 112.7 112.9 L 112.7 76.0 L 124.7 82.0 L 152.1 82.0 L 158.1 77.0 L 169.1 86.0 L 164.1 90.0 L 164.1 167.2 L 164.3 168.1 L 164.6 169.0 L 165.0 169.4 L 165.9 169.7 L 166.8 169.9 L 168.1 170.0 L 178.6 170.0 Z M 99.1 49.0 L 132.4 49.0 L 132.4 14.0 L 144.4 16.0 L 147.4 18.0 L 144.4 19.8 L 144.4 49.0 L 166.0 49.0 L 176.0 39.0 L 188.0 49.0 L 188.0 53.0 L 99.1 53.0 Z " />
</g>
</svg>
