<svg xmlns="http://www.w3.org/2000/svg" xmlns:xlink="http://www.w3.org/1999/xlink" version="1.1" baseProfile="full" viewBox="0 0 200 200" width="200" height="200">
<g fill="black">
<path d="M 168.2 175.2 L 166.6 177.0 L 164.7 178.6 L 162.7 179.9 L 160.5 181.0 L 158.3 181.9 L 155.9 182.5 L 153.4 182.8 L 151.0 183.0 L 151.0 177.0 L 131.0 174.0 L 131.0 171.0 L 151.0 171.0 L 152.3 170.9 L 153.6 170.7 L 154.7 170.4 L 155.7 170.1 L 156.6 169.6 L 157.5 169.0 L 158.3 168.3 L 159.1 167.5 L 159.8 166.5 L 160.6 165.3 L 162.1 161.8 L 163.6 156.6 L 165.1 149.9 L 166.3 141.7 L 167.4 131.9 L 168.3 120.8 L 169.0 108.2 L 169.5 94.2 L 169.8 78.8 L 169.97619047164918 64.0 L 152.88648653030396 64.0 L 152.3 79.5 L 150.8 96.8 L 148.6 112.8 L 145.6 127.5 L 141.8 140.9 L 137.2 152.9 L 131.7 163.6 L 125.5 172.9 L 118.4 180.6 L 110.5 186.6 L 109.4 185.3 L 115.6 178.0 L 121.1 169.8 L 125.9 160.6 L 130.1 150.2 L 133.6 138.5 L 136.5 125.6 L 138.7 111.4 L 140.1 95.9 L 140.9 79.1 L 140.98342542648317 64.0 L 116.0 64.0 L 116.0 60.0 L 141.0 60.0 L 141.0 15.0 L 153.0 17.0 L 156.0 19.0 L 153.0 20.8 L 153.0 60.0 L 170.0 60.0 L 176.0 55.0 L 187.0 64.0 L 182.0 67.0 L 181.9405351638794 67.02477703094482 L 181.8 78.9 L 181.5 94.5 L 181.0 108.7 L 180.3 121.6 L 179.4 133.1 L 178.2 143.2 L 176.9 152.0 L 175.3 159.6 L 173.4 165.9 L 171.1 171.1 L 169.7 173.3 Z M 89.3 180.5 L 87.6 182.2 L 85.7 183.7 L 83.7 185.0 L 81.5 186.1 L 79.2 186.9 L 76.9 187.5 L 74.4 187.8 L 72.0 188.0 L 72.0 182.0 L 52.0 179.0 L 52.0 176.0 L 72.0 176.0 L 73.4 175.9 L 74.6 175.7 L 75.8 175.4 L 76.8 175.1 L 77.8 174.6 L 78.7 174.0 L 79.5 173.3 L 80.4 172.5 L 81.2 171.5 L 82.0 170.3 L 83.4 167.3 L 84.8 162.8 L 86.1 156.9 L 87.3 149.7 L 88.3 141.2 L 89.0 131.5 L 89.6 120.5 L 89.9 108.2 L 90.0 94.7 L 90.0 82.0 L 47.09827585220337 82.0 L 46.7 82.7 L 43.1 88.4 L 39.1 93.8 L 34.8 99.1 L 34.0646258354187 99.88231296539307 L 41.3 103.5 L 60.6 103.5 L 66.6 98.5 L 77.6 107.5 L 72.6 111.5 L 72.6 152.4 L 60.6 158.4 L 60.6 146.4 L 41.3 146.4 L 41.3 158.4 L 29.3 164.4 L 29.3 104.85294113159179 L 25.0 108.9 L 19.5 113.4 L 13.5 117.6 L 12.4 116.3 L 16.9 110.7 L 21.1 105.3 L 25.1 99.9 L 28.8 94.5 L 32.1 89.1 L 35.1 83.6 L 37.8 78.0 L 40.2 72.5 L 42.2 66.8 L 43.62956161499024 62.00676412582398 L 43.6 62.0 L 44.4 59.5 L 55.4 64.7 L 57.6 67.6 L 53.82259073257446 68.461514377594 L 52.8 70.9 L 50.0 76.9 L 49.3741379737854 78.0 L 90.0 78.0 L 96.0 73.0 L 107.0 82.0 L 102.0 85.0 L 101.93441162109374 85.02732849121094 L 102.0 94.8 L 101.9 108.4 L 101.6 120.9 L 101.0 132.2 L 100.2 142.4 L 99.2 151.3 L 97.9 159.2 L 96.4 165.9 L 94.5 171.7 L 92.2 176.5 L 90.9 178.5 Z M 41.3 107.5 L 41.3 142.4 L 60.6 142.4 L 60.6 107.5 Z M 86.0 17.0 L 89.0 19.0 L 86.0 20.8 L 86.0 38.0 L 99.81818180084228 38.0 L 108.0 29.0 L 118.0 38.0 L 118.0 42.0 L 86.0 42.0 L 86.0 61.0 L 74.0 67.0 L 74.0 15.0 Z M 54.0 16.0 L 57.0 18.0 L 54.0 19.8 L 54.0 53.0 L 42.0 59.0 L 42.0 42.0 L 14.0 42.0 L 14.0 38.0 L 42.0 38.0 L 42.0 14.0 Z " />
</g>
</svg>
