<svg xmlns="http://www.w3.org/2000/svg" xmlns:xlink="http://www.w3.org/1999/xlink" version="1.1" baseProfile="full" viewBox="0 0 200 200" width="200" height="200">
<g fill="black">
<path d="M 170.8 177.8 L 169.1 179.6 L 167.3 181.3 L 165.3 182.6 L 163.2 183.8 L 160.9 184.7 L 158.5 185.3 L 156.1 185.6 L 153.6 185.8 L 153.6 179.8 L 133.6 176.8 L 133.6 173.8 L 153.6 173.8 L 154.9 173.7 L 156.2 173.5 L 158.2 172.9 L 159.1 172.4 L 159.9 171.8 L 160.6 171.2 L 161.4 170.3 L 162.1 169.3 L 162.8 168.1 L 164.2 164.6 L 165.7 159.3 L 167.0 152.5 L 168.2 144.1 L 169.2 134.3 L 170.1 123.1 L 170.7 110.3 L 171.2 96.2 L 171.5 80.6 L 171.58823528289795 65.6 L 149.7882978439331 65.6 L 149.2 81.4 L 147.5 98.9 L 144.9 115.1 L 141.4 130.0 L 136.9 143.5 L 131.5 155.7 L 125.2 166.5 L 117.9 175.8 L 109.6 183.5 L 100.5 189.6 L 99.5 188.1 L 107.0 180.7 L 113.7 172.4 L 119.6 163.0 L 124.7 152.5 L 128.9 140.7 L 132.4 127.7 L 135.0 113.4 L 136.8 97.8 L 137.8 80.8 L 137.88351650238036 65.6 L 113.1 65.6 L 113.1 61.6 L 137.9 61.6 L 137.9 16.1 L 149.9 18.1 L 152.9 20.1 L 149.9 21.9 L 149.9 61.6 L 171.6 61.6 L 177.6 56.6 L 188.6 65.6 L 183.6 68.6 L 183.57068881988525 68.6122130393982 L 183.5 80.7 L 183.2 96.5 L 182.7 110.8 L 182.1 123.8 L 181.2 135.4 L 180.1 145.6 L 178.9 154.5 L 177.4 162.0 L 175.6 168.4 L 173.5 173.6 L 172.2 175.8 Z M 82.1 180.5 L 80.4 182.2 L 78.5 183.8 L 76.5 185.1 L 74.3 186.1 L 72.0 186.9 L 69.7 187.5 L 67.2 187.8 L 64.8 188.0 L 64.8 182.0 L 46.8 179.0 L 46.8 176.0 L 64.8 176.0 L 66.2 175.9 L 67.4 175.7 L 68.6 175.4 L 69.7 175.1 L 70.6 174.6 L 71.5 174.0 L 72.4 173.3 L 73.3 172.5 L 74.1 171.5 L 74.9 170.3 L 75.7 168.0 L 77.0 162.6 L 78.3 154.5 L 78.9226414680481 149.0 L 33.27894735336304 149.0 L 32.3 161.4 L 19.8 166.4 L 25.86349210739136 90.0 L 10.8 90.0 L 10.8 86.0 L 26.18095235824585 86.0 L 31.3 21.5 L 42.13333330154419 28.0 L 85.4 28.0 L 91.4 23.0 L 102.4 32.0 L 97.4 35.0 L 97.24172277450562 35.06594886779785 L 96.6 55.2 L 95.7 77.9 L 95.34088668823242 86.0 L 99.8777777671814 86.0 L 106.1 79.0 L 114.1 86.0 L 114.1 90.0 L 95.16354675292969 90.0 L 94.8 98.2 L 93.8 116.2 L 92.6 131.8 L 91.50827064514161 145.0 L 96.1777777671814 145.0 L 102.4 138.0 L 110.4 145.0 L 110.4 149.0 L 91.03909091949463 149.0 L 90.2 156.1 L 88.8 164.8 L 87.2 171.5 L 85.1 176.6 L 83.7 178.6 Z M 37.93684206008911 90.0 L 33.594736862182614 145.0 L 79.37547168731689 145.0 L 79.5 143.9 L 80.7 130.8 L 81.8 115.4 L 82.8 97.6 L 83.13861389160157 90.0 Z M 58.9 123.2 L 58.1 119.9 L 57.1 116.8 L 56.0 113.9 L 54.7 111.1 L 53.3 108.5 L 51.8 105.9 L 50.1 103.4 L 48.0 101.3 L 49.0 99.8 L 51.9 101.2 L 54.8 102.8 L 57.6 104.8 L 60.1 107.1 L 62.6 109.8 L 64.8 112.8 L 66.8 116.1 L 68.7 119.7 L 70.4 123.5 L 71.9 127.6 L 71.1 132.1 L 67.5 134.9 L 63.0 134.1 L 60.2 130.4 L 59.6 126.7 Z M 42.51578950881958 32.0 L 38.25263156890869 86.0 L 83.31683168411254 86.0 L 83.7 77.4 L 84.6 54.8 L 85.32959995269775 32.0 Z M 61.9 64.8 L 61.3 61.8 L 60.5 59.0 L 59.7 56.3 L 58.6 53.7 L 57.5 51.2 L 56.2 48.7 L 54.8 46.3 L 52.9 44.3 L 53.9 42.8 L 56.5 44.3 L 59.2 45.8 L 61.7 47.7 L 64.1 50.0 L 66.3 52.5 L 68.3 55.2 L 70.1 58.3 L 71.7 61.6 L 73.2 65.1 L 74.5 68.8 L 73.6 73.3 L 69.8 75.9 L 65.3 75.0 L 62.7 71.2 L 62.4 67.9 Z " />
</g>
</svg>
