<svg xmlns="http://www.w3.org/2000/svg" xmlns:xlink="http://www.w3.org/1999/xlink" version="1.1" baseProfile="full" viewBox="0 0 200 200" width="200" height="200">
<g fill="black">
<path d="M 146.5 184.0 L 144.4 184.8 L 140.0 186.0 L 137.8 186.4 L 135.5 186.7 L 133.3 186.9 L 131.0 187.0 L 131.0 181.0 L 111.0 178.0 L 111.0 175.0 L 131.0 175.0 L 132.6 174.9 L 134.3 174.8 L 135.9 174.6 L 137.4 174.3 L 139.0 173.9 L 140.5 173.4 L 143.5 172.2 L 144.9 171.5 L 146.4 170.6 L 148.3 169.2 L 150.2 167.3 L 151.9 165.0 L 153.5 162.1 L 154.9 158.6 L 156.2 154.6 L 157.2 150.0 L 158.1 144.8 L 158.6 139.1 L 158.86031742095946 135.0 L 104.78018016815186 135.0 L 99.1 144.7 L 91.3 154.6 L 82.2 163.3 L 72.0 170.9 L 60.5 177.3 L 47.9 182.4 L 34.1 186.3 L 19.1 188.8 L 18.8 187.1 L 33.0 182.6 L 45.9 177.4 L 57.4 171.5 L 67.6 164.7 L 76.6 157.0 L 84.2 148.6 L 90.6 139.2 L 92.78235292434692 135.0 L 30.0 135.0 L 30.0 131.0 L 94.86078433990478 131.0 L 95.9 129.0 L 100.0 117.8 L 102.9 105.7 L 102.91366024017334 105.70291881561279 L 103.3 103.9 L 114.6 108.2 L 117.1 110.7 L 113.52474765777588 111.93508720397949 L 110.8 121.4 L 106.70819673538207 131.0 L 159.0 131.0 L 165.0 126.0 L 176.0 135.0 L 171.0 138.0 L 170.67790260314942 138.13420724868774 L 170.6 139.9 L 170.0 146.3 L 169.0 152.2 L 167.8 157.7 L 166.2 162.7 L 164.3 167.3 L 162.0 171.4 L 159.3 175.1 L 156.2 178.3 L 152.6 180.9 L 148.6 183.1 Z M 80.9 101.3 L 78.9 102.5 L 76.8 103.6 L 74.7 104.5 L 72.5 105.3 L 67.9 106.3 L 65.5 106.5 L 63.2 106.6 L 63.2 100.6 L 45.2 97.6 L 45.2 94.6 L 63.2 94.6 L 66.2 94.4 L 67.7 94.1 L 69.1 93.8 L 71.7 92.8 L 73.0 92.1 L 75.4 90.5 L 76.6 89.5 L 77.3 88.6 L 78.3 86.8 L 79.4 83.8 L 80.4 80.0 L 81.2 75.1 L 81.9 69.5 L 82.5 62.9 L 82.8 55.5 L 83.0 47.3 L 83.0 40.2 L 56.2710280418396 40.2 L 55.0 48.7 L 52.5 58.5 L 49.2 67.7 L 44.9 76.0 L 39.8 83.6 L 33.8 90.2 L 26.9 96.0 L 19.3 100.8 L 10.9 104.5 L 10.1 102.9 L 17.2 97.6 L 23.5 91.9 L 28.9 85.8 L 33.5 79.2 L 37.4 72.1 L 40.5 64.3 L 42.8 55.9 L 44.4 46.9 L 45.02164945602417 40.2 L 15.4 40.2 L 15.4 36.2 L 45.30952377319336 36.2 L 45.4 26.7 L 45.4 14.3 L 57.4 16.3 L 60.4 18.3 L 57.4 20.1 L 57.4 26.7 L 56.727433586120604 36.2 L 83.0 36.2 L 89.0 31.2 L 100.0 40.2 L 95.0 43.2 L 95.0 47.4 L 94.8 55.9 L 94.4 63.7 L 93.9 70.7 L 93.1 76.9 L 92.1 82.5 L 90.8 87.3 L 89.3 91.6 L 87.3 95.3 L 84.6 98.4 L 82.8 99.9 Z M 168.6 101.4 L 166.6 102.6 L 164.5 103.6 L 162.3 104.5 L 160.1 105.3 L 157.9 105.9 L 155.6 106.3 L 153.2 106.5 L 150.9 106.6 L 150.9 100.6 L 130.9 97.6 L 130.9 94.6 L 150.9 94.6 L 153.9 94.4 L 155.4 94.1 L 156.8 93.8 L 159.4 92.8 L 160.7 92.1 L 161.9 91.3 L 163.2 90.5 L 164.4 89.5 L 165.1 88.6 L 166.1 86.7 L 167.2 83.8 L 168.2 80.0 L 169.0 75.1 L 169.7 69.4 L 170.3 62.9 L 170.6 55.5 L 170.8 47.3 L 170.8 40.2 L 143.7710280418396 40.2 L 142.5 48.7 L 140.0 58.6 L 136.6 67.7 L 132.3 76.1 L 127.1 83.6 L 121.1 90.3 L 114.2 96.0 L 106.5 100.8 L 98.0 104.5 L 97.2 102.9 L 104.4 97.6 L 110.7 91.9 L 116.2 85.8 L 120.9 79.2 L 124.8 72.1 L 127.9 64.3 L 130.3 55.9 L 131.9 46.9 L 132.52164945602416 40.2 L 102.6 40.2 L 102.6 36.2 L 132.80952377319335 36.2 L 132.9 26.7 L 132.9 14.3 L 144.9 16.3 L 147.9 18.3 L 144.9 20.1 L 144.9 26.7 L 144.2274335861206 36.2 L 170.8 36.2 L 176.8 31.2 L 187.8 40.2 L 182.8 43.2 L 182.8 47.4 L 182.6 55.9 L 182.3 63.7 L 181.7 70.7 L 180.9 76.9 L 179.9 82.5 L 178.6 87.4 L 177.0 91.6 L 175.0 95.3 L 172.3 98.5 L 170.5 100.0 Z " />
</g>
</svg>
