<svg xmlns="http://www.w3.org/2000/svg" xmlns:xlink="http://www.w3.org/1999/xlink" version="1.1" baseProfile="full" viewBox="0 0 200 200" width="200" height="200">
<g fill="black">
<path d="M 144.6 176.3 L 157.9 176.3 L 158.8 176.1 L 159.4 175.9 L 159.7 175.7 L 159.9 175.6 L 160.0 175.4 L 160.2 175.1 L 160.4 174.5 L 160.6 173.6 L 160.6 163.1 L 122.0 163.1 L 122.0 181.7 L 110.0 187.7 L 110.0 124.15 L 104.7 126.8 L 104.7 82.7 L 114.7 87.7 L 167.0 87.7 L 173.0 82.7 L 184.0 91.7 L 179.0 95.7 L 179.0 121.8 L 169.17931032180786 126.71034479141235 L 177.6 133.6 L 172.6 137.6 L 172.6 172.3 L 172.5 174.9 L 172.1 177.4 L 171.3 179.8 L 170.0 182.1 L 168.4 184.1 L 166.4 185.7 L 164.1 186.9 L 161.7 187.8 L 159.2 188.2 L 156.6 188.3 L 156.6 182.3 L 144.6 179.3 Z M 48.02883892059326 19.84269666671753 L 47.5 48.4 L 47.01654672622681 58.0 L 67.5 58.0 L 73.5 53.0 L 84.5 62.0 L 79.5 65.0 L 79.47085962295532 65.01214179992675 L 79.4 77.2 L 79.3 93.0 L 79.1 107.3 L 78.8 120.2 L 78.4 131.5 L 77.9 141.4 L 77.3 149.9 L 76.7 156.9 L 75.9 162.5 L 75.0 166.9 L 74.2 169.3 L 73.1 171.6 L 71.8 173.7 L 70.2 175.7 L 68.3 177.3 L 66.2 178.7 L 63.9 179.7 L 61.5 180.4 L 59.1 180.8 L 56.5 181.0 L 56.5 175.0 L 40.5 172.0 L 40.5 169.0 L 56.5 169.0 L 57.8 168.9 L 58.9 168.7 L 59.8 168.5 L 60.5 168.1 L 61.0 167.8 L 61.6 167.3 L 62.1 166.7 L 63.0 164.9 L 63.4 163.7 L 64.1 160.5 L 64.8 155.5 L 65.4 148.9 L 65.9 140.7 L 66.4 131.0 L 66.8 119.8 L 67.1 107.1 L 67.3 92.9 L 67.4 77.2 L 67.48837213516235 62.0 L 46.815107917785646 62.0 L 46.1 76.2 L 44.0 99.9 L 41.1 119.9 L 37.5 136.7 L 32.9 150.6 L 27.6 162.1 L 21.3 171.6 L 14.2 179.3 L 6.2 185.6 L 5.0 184.3 L 11.4 176.7 L 16.9 168.5 L 21.7 159.2 L 25.8 148.1 L 29.2 134.7 L 32.0 118.5 L 34.0 99.0 L 35.4 75.7 L 35.74746379852295 62.0 L 9.5 62.0 L 9.5 58.0 L 35.84891300201416 58.0 L 36.1 48.1 L 36.1 13.6 L 48.1 16.0 L 51.1 18.0 Z M 122.0 147.8 L 122.0 159.1 L 160.6 159.1 L 160.6 147.8 Z M 122.0 133.6 L 122.0 143.8 L 160.6 143.8 L 160.6 133.6 Z M 110.55 123.875 L 122.0 129.6 L 160.6 129.6 L 166.6 124.6 L 167.0 124.92727270126343 L 167.0 121.8 L 114.7 121.8 Z M 114.7 106.5 L 114.7 117.8 L 135.3 117.8 L 135.3 106.5 Z M 147.3 106.5 L 147.3 117.8 L 167.0 117.8 L 167.0 106.5 Z M 114.7 91.7 L 114.7 102.5 L 135.3 102.5 L 135.3 91.7 Z M 147.3 91.7 L 147.3 102.5 L 167.0 102.5 L 167.0 91.7 Z M 175.3 62.0 L 177.3 62.0 L 175.3 71.0 L 177.7 72.6 L 179.3 75.0 L 177.7 77.4 L 175.3 79.0 L 135.7 79.0 L 133.4 78.8 L 131.1 78.3 L 129.0 77.3 L 127.0 76.0 L 125.3 74.2 L 124.0 72.2 L 123.0 69.9 L 122.4 67.5 L 122.1 65.0 L 122.1 62.658241748809814 L 101.7 64.9 L 101.3 61.0 L 122.1 58.71428575515747 L 122.1 43.0 L 100.6 43.0 L 100.6 111.0 L 100.2 121.2 L 99.5 130.8 L 98.5 139.8 L 97.3 148.3 L 95.7 156.1 L 93.8 163.3 L 91.6 169.9 L 89.0 175.8 L 86.0 180.9 L 82.7 185.3 L 81.4 184.6 L 83.2 179.6 L 84.8 174.1 L 86.3 168.2 L 87.6 161.8 L 88.7 154.8 L 89.6 147.2 L 90.2 139.1 L 90.6 130.3 L 90.7 120.9 L 90.6 111.0 L 90.6 34.0 L 100.6 39.0 L 125.6 39.0 L 125.6 12.0 L 137.6 14.0 L 140.6 16.0 L 137.6 17.8 L 137.6 23.0 L 154.11818180084228 23.0 L 162.3 14.0 L 172.3 23.0 L 172.3 27.0 L 137.6 27.0 L 137.6 39.0 L 172.8 39.0 L 173.25600004196167 38.619999980926515 L 173.3 38.4 L 173.44089307785035 38.46592245101929 L 178.8 34.0 L 189.8 43.0 L 184.8 46.0 L 181.08358211517333 47.54850749969482 L 178.9 50.2 L 175.9 53.6 L 174.3 55.2 L 172.7 56.9 L 170.9 58.5 L 169.5 60.4 L 168.0 59.5 L 169.0 57.4 L 169.4 55.1 L 170.0 52.8 L 170.5 50.6 L 171.5 46.4 L 172.35 43.0 L 128.1 43.0 L 134.1 44.0 L 137.1 46.0 L 134.1 47.8 L 134.1 57.39560441970825 L 143.15274839401246 56.40079689025879 L 152.0 45.3 L 165.0 54.0 L 165.4 57.9 L 134.1 61.339560413360594 L 134.1 65.0 L 133.9 66.2 L 133.9 67.9 L 134.0 68.5 L 134.1 68.9 L 134.3 69.4 L 134.8 69.8 L 135.5 70.3 L 136.6 70.7 L 138.1 71.0 L 171.3 71.0 Z " />
</g>
</svg>
