<svg xmlns="http://www.w3.org/2000/svg" xmlns:xlink="http://www.w3.org/1999/xlink" version="1.1" baseProfile="full" viewBox="0 0 200 200" width="200" height="200">
<g fill="black">
<path d="M 160.5 178.9 L 152.8 174.1 L 145.6 168.4 L 139.0 162.0 L 134.23595581054687 156.45496492385865 L 133.9 157.1 L 127.6 165.6 L 120.0 172.9 L 111.2 178.8 L 101.2 183.5 L 90.1 186.8 L 77.9 188.8 L 77.6 187.1 L 89.0 183.2 L 99.0 178.6 L 107.6 173.3 L 114.9 167.2 L 121.0 160.3 L 125.8 152.5 L 127.88438243865967 147.65521907806396 L 127.5 147.1 L 122.6 138.6 L 118.3 129.3 L 114.9 119.2 L 116.6 118.5 L 122.1 127.4 L 127.6 135.5 L 130.68891296386718 139.5101676940918 L 132.1 134.3 L 133.5 123.6 L 133.7741379737854 113.0 L 111.0 113.0 L 111.0 125.0 L 99.0 131.0 L 99.0 48.0 L 111.0 54.0 L 133.8 54.0 L 133.8 32.0 L 91.9 32.0 L 91.9 28.0 L 165.7 28.0 L 175.7 18.0 L 187.7 28.0 L 187.7 32.0 L 145.8 32.0 L 145.8 54.0 L 167.6 54.0 L 173.6 49.0 L 184.6 58.0 L 179.6 62.0 L 179.6 119.0 L 167.6 125.0 L 167.6 113.0 L 145.721875 113.0 L 144.8 124.8 L 142.5 136.7 L 138.9 147.5 L 138.38344373703003 148.49178810119628 L 139.3 149.5 L 145.5 155.3 L 152.0 160.4 L 158.8 164.8 L 165.9 168.4 L 173.3 171.3 L 181.1 173.6 L 189.1 175.9 L 177.5 186.3 L 168.7 183.0 Z M 53.51682300567627 19.849906158447265 L 52.9 48.4 L 52.418279552459715 58.0 L 74.7 58.0 L 80.7 53.0 L 91.7 62.0 L 86.7 65.0 L 86.67085962295532 65.01214179992675 L 86.6 77.2 L 86.5 93.0 L 86.3 107.4 L 86.0 120.2 L 85.6 131.6 L 85.0 141.5 L 84.4 149.9 L 83.7 156.9 L 82.9 162.6 L 81.9 167.1 L 81.1 169.5 L 80.0 171.7 L 78.6 173.8 L 77.0 175.7 L 75.1 177.4 L 73.0 178.7 L 70.8 179.7 L 68.4 180.4 L 65.9 180.8 L 63.3 181.0 L 63.3 175.0 L 45.3 172.0 L 45.3 169.0 L 63.3 169.0 L 64.6 168.9 L 65.7 168.7 L 66.6 168.5 L 67.3 168.1 L 68.5 167.3 L 69.0 166.7 L 69.5 165.9 L 70.0 164.9 L 70.4 163.7 L 71.1 160.5 L 71.8 155.5 L 72.5 148.9 L 73.1 140.7 L 73.6 131.0 L 74.0 119.8 L 74.3 107.1 L 74.5 92.9 L 74.6 77.2 L 74.68837213516235 62.0 L 52.21756277084351 62.0 L 51.5 76.3 L 49.3 100.0 L 46.2 120.0 L 42.4 136.7 L 37.6 150.7 L 31.9 162.2 L 25.4 171.6 L 17.9 179.3 L 9.5 185.6 L 8.4 184.3 L 15.1 176.7 L 21.0 168.5 L 26.1 159.1 L 30.5 148.0 L 34.1 134.7 L 37.1 118.5 L 39.3 98.9 L 40.8 75.6 L 41.14618177413941 62.0 L 13.1 62.0 L 13.1 58.0 L 41.24799995422363 58.0 L 41.5 48.1 L 41.6 16.0 L 41.6 13.6 L 53.6 16.0 L 56.6 18.0 Z M 111.0 85.0 L 111.0 109.0 L 133.8 109.0 L 133.8 85.0 Z M 145.8 85.0 L 145.8 109.0 L 167.6 109.0 L 167.6 85.0 Z M 111.0 58.0 L 111.0 81.0 L 133.8 81.0 L 133.8 58.0 Z M 145.8 58.0 L 145.8 81.0 L 167.6 81.0 L 167.6 58.0 Z " />
</g>
</svg>
