<svg xmlns="http://www.w3.org/2000/svg" xmlns:xlink="http://www.w3.org/1999/xlink" version="1.1" baseProfile="full" viewBox="0 0 200 200" width="200" height="200">
<g fill="black">
<path d="M 168.0 178.1 L 166.4 179.9 L 164.5 181.5 L 162.5 182.9 L 160.4 184.0 L 158.1 184.9 L 155.7 185.5 L 153.3 185.8 L 150.8 186.0 L 150.8 180.0 L 130.8 177.0 L 130.8 174.0 L 150.8 174.0 L 152.1 173.9 L 153.4 173.7 L 154.5 173.4 L 155.4 173.1 L 156.3 172.6 L 157.2 172.0 L 158.7 170.5 L 159.4 169.5 L 160.1 168.3 L 161.6 164.8 L 163.1 159.7 L 164.4 152.9 L 165.7 144.7 L 166.7 134.9 L 167.5 123.8 L 168.2 111.2 L 168.7 97.2 L 169.0 81.8 L 169.0880952835083 67.0 L 146.5709677696228 67.0 L 145.9 82.6 L 144.2 99.9 L 141.6 115.9 L 138.0 130.6 L 133.5 143.9 L 127.9 155.8 L 121.5 166.4 L 114.0 175.4 L 105.6 182.9 L 96.3 188.7 L 95.3 187.2 L 103.1 180.1 L 109.9 172.0 L 115.9 162.8 L 121.1 152.5 L 125.5 141.0 L 129.0 128.2 L 131.7 114.1 L 133.6 98.7 L 134.6 82.0 L 134.6833333015442 67.0 L 109.2 67.0 L 109.2 63.0 L 134.7 63.0 L 134.7 18.0 L 146.7 20.0 L 149.7 22.0 L 146.7 23.8 L 146.7 63.0 L 169.1 63.0 L 175.1 58.0 L 186.1 67.0 L 181.1 70.0 L 181.0703411102295 70.01235790252686 L 181.0 81.9 L 180.7 97.5 L 180.2 111.7 L 179.5 124.6 L 178.6 136.0 L 177.6 146.2 L 176.3 155.0 L 174.7 162.5 L 172.9 168.7 L 170.7 173.9 L 169.5 176.1 Z M 36.05714282989502 83.0 L 92.11818180084228 83.0 L 100.3 74.0 L 110.3 83.0 L 110.3 87.0 L 61.7 87.0 L 61.7 158.89322032928467 L 66.6 156.9 L 72.4 154.5 L 78.2 152.2 L 84.0 150.1 L 89.8 148.2 L 90.7 149.7 L 85.8 153.4 L 80.6 157.0 L 75.4 160.3 L 70.0 163.6 L 64.5 166.9 L 53.3 173.3 L 41.7 179.7 L 39.43793277740478 180.92688388824462 L 38.9 184.8 L 35.8 182.9 L 28.8 173.0 L 30.6 172.1 L 42.8 166.9 L 48.8 164.3 L 49.7 163.925 L 49.7 87.0 L 35.97551021575928 87.0 L 35.8 95.6 L 35.2 109.4 L 34.1 122.3 L 32.7 134.4 L 30.9 145.6 L 28.7 155.8 L 26.1 165.2 L 23.0 173.6 L 19.4 181.0 L 15.2 187.4 L 13.7 186.5 L 15.9 179.6 L 17.9 171.9 L 19.7 163.6 L 21.2 154.4 L 22.5 144.3 L 23.5 133.4 L 24.1 121.6 L 24.4 109.0 L 24.4 95.5 L 24.1 81.0 L 24.1 23.0 L 36.1 29.0 L 89.5 29.0 L 99.5 19.0 L 111.5 29.0 L 111.5 33.0 L 36.1 33.0 L 36.1 81.0 L 36.097894763946535 81.00315790176391 Z M 98.8 151.6 L 96.7 148.0 L 94.0 144.1 L 90.8 140.1 L 87.1 136.0 L 82.8 131.6 L 78.1 127.1 L 72.9 122.3 L 67.2 117.3 L 68.2 115.7 L 75.0 119.2 L 80.6460207939148 122.42629756927491 L 81.3 121.3 L 82.9 118.1 L 84.4 114.9 L 86.0 111.9 L 87.5 108.9 L 89.1 106.0 L 90.5 103.1 L 92.0 100.2 L 93.4 97.4 L 94.3032467842102 95.45454549789429 L 94.2 95.4 L 95.2 93.8 L 104.8 101.0 L 106.3 104.3 L 102.15778226852417 104.22979288101196 L 96.2 111.0 L 93.8 113.4 L 91.4 115.9 L 88.9 118.3 L 86.3 120.7 L 83.5 123.0 L 82.73753662109375 123.73313779830933 L 87.0 126.5 L 92.2 130.3 L 96.8 134.1 L 101.0 138.0 L 104.7 141.9 L 107.9 145.9 L 110.5 149.9 L 112.7 154.0 L 112.5 158.6 L 109.2 161.8 L 104.6 161.5 L 101.4 158.2 L 100.4 155.0 Z M 102.5 56.0 L 102.5 60.0 L 44.6 60.0 L 44.6 56.0 L 80.5 56.0 L 90.5 46.0 Z " />
</g>
</svg>
