<svg xmlns="http://www.w3.org/2000/svg" xmlns:xlink="http://www.w3.org/1999/xlink" version="1.1" baseProfile="full" viewBox="0 0 200 200" width="200" height="200">
<g fill="black">
<path d="M 137.2 175.7 L 136.1052631378174 177.0 L 149.0 177.0 L 150.3 176.9 L 151.6 176.7 L 153.6 176.1 L 154.5 175.6 L 155.3 175.0 L 156.0 174.4 L 156.8 173.5 L 157.5 172.5 L 158.2 171.3 L 160.3 166.4 L 162.4 159.7 L 164.4 151.4 L 166.2 141.3 L 167.9 129.7 L 169.4 116.5 L 170.8 101.6 L 172.0 85.2 L 173.1 67.3 L 173.89438772201538 50.0 L 56.85670099258423 50.0 L 52.7 59.6 L 48.0 69.0 L 42.8 78.2 L 37.1 87.1 L 30.8 95.6 L 24.0 103.8 L 16.6 111.5 L 15.3 110.4 L 21.0 101.5 L 26.4 92.6 L 31.5 83.6 L 36.1 74.6 L 40.3 65.4 L 44.1 56.0 L 47.5 46.4 L 50.4 36.7 L 52.8 26.8 L 54.9 16.7 L 54.91368417739868 16.70280704498291 L 55.3 14.9 L 66.6 19.1 L 69.2 21.7 L 65.6190050125122 22.91498041152954 L 63.9 29.6 L 60.6 39.9 L 58.34300003051758 46.0 L 174.0 46.0 L 180.0 41.0 L 191.0 50.0 L 186.0 53.0 L 185.7 53.125 L 185.1 67.9 L 184.0 86.0 L 182.8 102.6 L 181.4 117.7 L 179.8 131.3 L 178.0 143.3 L 176.1 153.8 L 174.0 162.9 L 171.6 170.5 L 168.9 176.8 L 167.6 179.0 L 166.2 181.0 L 164.5 182.8 L 162.7 184.5 L 160.7 185.9 L 158.6 187.0 L 156.3 187.9 L 153.9 188.5 L 151.5 188.8 L 149.0 189.0 L 149.0 183.0 L 132.01176471710204 180.45176467895507 L 131.8 180.6 L 129.6 181.7 L 127.3 182.6 L 124.9 183.2 L 122.5 183.5 L 120.0 183.7 L 120.0 177.7 L 100.0 174.7 L 100.0 171.7 L 120.0 171.7 L 121.4 171.6 L 122.6 171.4 L 123.7 171.1 L 124.7 170.8 L 125.5 170.3 L 126.4 169.7 L 127.1 169.1 L 127.9 168.2 L 128.6 167.2 L 129.3 166.0 L 129.9 164.7 L 130.6 162.9 L 131.2 160.6 L 131.7 157.9 L 132.3 154.8 L 132.7 151.3 L 133.1 147.4 L 133.4 143.1 L 133.7 138.4 L 133.8119999885559 135.6 L 123.64615383148194 135.6 L 121.3 141.7 L 118.3 147.9 L 114.8 153.7 L 110.9 159.2 L 106.5 164.3 L 101.6 169.0 L 96.3 173.3 L 90.5 177.1 L 84.3 180.5 L 77.6 183.3 L 76.7 181.8 L 82.2 177.3 L 87.3 172.8 L 92.0 168.3 L 96.2 163.7 L 99.9 158.8 L 103.3 153.8 L 106.1 148.7 L 108.6 143.3 L 110.6 137.7 L 111.16341466903687 135.6 L 99.04615383148193 135.6 L 98.7 136.2 L 94.9 142.5 L 90.6 148.4 L 85.8 153.9 L 80.6 159.0 L 75.0 163.7 L 68.9 168.0 L 62.3 171.9 L 55.4 175.3 L 48.0 178.2 L 40.1 180.6 L 39.4 178.9 L 46.3 174.8 L 52.8 170.6 L 58.8 166.4 L 64.3 161.9 L 69.4 157.3 L 74.0 152.4 L 78.2 147.4 L 81.9 142.1 L 85.1 136.6 L 85.6 135.6 L 71.73617019653321 135.6 L 71.2 136.2 L 66.7 140.5 L 62.0 144.6 L 57.0 148.2 L 51.8 151.6 L 46.3 154.5 L 40.5 156.9 L 34.5 158.9 L 33.7 157.2 L 38.7 153.6 L 43.5 149.9 L 48.0 146.2 L 52.3 142.3 L 56.3 138.3 L 60.0 134.1 L 63.6 129.7 L 66.8 125.0 L 69.9 120.2 L 34.8 120.2 L 34.8 116.2 L 137.9181818008423 116.2 L 146.1 107.2 L 156.1 116.2 L 156.1 120.2 L 83.66666669845581 120.2 L 83.0 121.2 L 79.3 126.5 L 75.4 131.5 L 75.31063833236695 131.6 L 133.9 131.6 L 139.9 126.6 L 150.9 135.6 L 145.9 138.6 L 145.71214056015015 138.67827472686767 L 145.7 139.0 L 145.4 143.9 L 145.1 148.4 L 144.7 152.6 L 144.1 156.5 L 143.5 160.1 L 142.8 163.4 L 142.0 166.4 L 141.1 169.1 L 139.9 171.6 L 138.7 173.7 Z M 66.0 66.2 L 124.9 66.2 L 130.9 61.2 L 141.9 70.2 L 136.9 74.2 L 136.9 105.0 L 124.9 111.0 L 124.9 105.0 L 66.0 105.0 L 54.0 111.0 L 54.0 60.2 Z M 66.0 87.1 L 66.0 101.0 L 124.9 101.0 L 124.9 87.1 Z M 66.0 70.2 L 66.0 83.1 L 124.9 83.1 L 124.9 70.2 Z " />
</g>
</svg>
