<svg xmlns="http://www.w3.org/2000/svg" xmlns:xlink="http://www.w3.org/1999/xlink" version="1.1" baseProfile="full" viewBox="0 0 200 200" width="200" height="200">
<g fill="black">
<path d="M 149.6 185.4 L 147.6 186.5 L 143.2 188.1 L 141.0 188.6 L 138.7 189.0 L 136.3 189.2 L 134.0 189.3 L 134.0 183.3 L 114.0 180.3 L 114.0 177.3 L 135.5 177.3 L 137.1 177.1 L 138.5 176.9 L 141.3 176.1 L 142.6 175.5 L 144.0 174.9 L 145.2 174.1 L 146.5 173.3 L 147.7 172.3 L 149.1 170.8 L 150.7 168.2 L 152.3 164.5 L 153.7 159.8 L 155.0 154.0 L 156.0 147.3 L 156.9 139.5 L 157.5 130.8 L 157.8 121.2 L 157.96226415634155 112.6 L 57.83636360168457 112.6 L 57.2 113.6 L 53.3 118.8 L 48.9 123.8 L 44.1 128.7 L 38.9 133.3 L 33.3 137.7 L 27.1 141.8 L 20.5 145.5 L 19.4 144.1 L 24.8 138.8 L 29.7 133.7 L 34.3 128.6 L 38.5 123.5 L 42.3 118.5 L 45.7 113.4 L 48.6 108.3 L 51.1 103.2 L 53.3 98.0 L 54.697588729858396 93.72502279281616 L 54.6 93.7 L 55.5 91.3 L 66.3 96.7 L 68.5 99.6 L 64.63527050018311 100.41362724304199 L 63.7 102.5 L 60.7 108.1 L 60.38181819915771 108.6 L 158.0 108.6 L 164.0 103.6 L 175.0 112.6 L 170.0 115.6 L 169.9075500488281 115.63852081298828 L 169.8 121.5 L 169.4 131.5 L 168.8 140.6 L 167.9 148.8 L 166.8 156.2 L 165.3 162.8 L 163.5 168.6 L 161.4 173.6 L 158.8 177.9 L 155.5 181.5 L 151.7 184.3 Z M 37.0 94.6 L 25.0 100.6 L 25.0 51.3 L 37.0 57.3 L 70.2628571510315 57.3 L 69.0 53.9 L 67.2 50.3 L 65.1 46.5 L 62.4 42.6 L 59.3 38.6 L 55.7 34.4 L 51.7 30.2 L 47.3 25.7 L 42.5 21.1 L 37.3 16.3 L 38.3 14.8 L 44.7 18.1 L 50.6 21.5 L 56.0 25.2 L 60.9 28.9 L 65.4 32.7 L 69.5 36.6 L 73.1 40.5 L 76.3 44.6 L 79.1 48.7 L 81.4 52.9 L 81.3043478012085 57.3 L 121.56290321350097 57.3 L 125.7 51.6 L 130.0 45.9 L 134.0 40.4 L 137.5 35.3 L 140.6 30.5 L 143.4 26.0 L 145.7 21.7 L 147.6 17.8 L 148.71230773925782 15.20461540222168 L 148.7 15.2 L 149.6 13.1 L 159.9 19.4 L 161.8 22.5 L 157.82956686019898 22.910734462738038 L 157.6 23.3 L 154.8 27.4 L 151.7 31.6 L 148.1 36.0 L 144.2 40.5 L 139.8 45.3 L 135.0 50.2 L 129.7 55.2 L 127.35769233703613 57.3 L 163.0 57.3 L 169.0 52.3 L 180.0 61.3 L 175.0 65.3 L 175.0 91.6 L 163.0 97.6 L 163.0 87.6 L 37.0 87.6 Z M 37.0 61.3 L 37.0 83.6 L 71.0 83.6 L 71.0 61.3 Z M 83.0 61.3 L 83.0 83.6 L 117.0 83.6 L 117.0 65.0 L 116.3 64.3 L 117.0 63.37142858505249 L 117.0 61.3 Z M 129.0 61.3 L 129.0 83.6 L 163.0 83.6 L 163.0 61.3 Z " />
</g>
</svg>
