<svg xmlns="http://www.w3.org/2000/svg" xmlns:xlink="http://www.w3.org/1999/xlink" version="1.1" baseProfile="full" viewBox="0 0 200 200" width="200" height="200">
<g fill="black">
<path d="M 83.0 16.0 L 86.0 18.0 L 83.0 19.8 L 83.0 38.0 L 86.27777776718139 38.0 L 92.5 31.0 L 100.5 38.0 L 100.5 42.0 L 83.0 42.0 L 83.0 68.0 L 71.0 74.0 L 71.0 64.0 L 63.7 64.0 L 63.7 86.5 L 82.4 86.5 L 88.4 81.5 L 99.4 90.5 L 94.4 94.5 L 94.4 126.4 L 82.4 132.4 L 82.4 122.4 L 63.7 122.4 L 63.7 143.0 L 79.6 143.0 L 89.6 133.0 L 101.6 143.0 L 101.6 147.0 L 63.7 147.0 L 63.7 182.0 L 51.7 188.0 L 51.7 147.0 L 12.8 147.0 L 12.8 143.0 L 51.7 143.0 L 51.7 122.4 L 34.2 122.4 L 34.2 129.4 L 22.2 135.4 L 22.2 80.5 L 34.2 86.5 L 51.7 86.5 L 51.7 64.0 L 43.4 64.0 L 43.4 71.0 L 31.4 77.0 L 31.4 42.0 L 14.9 42.0 L 14.9 38.0 L 31.4 38.0 L 31.4 14.0 L 43.4 16.0 L 46.4 18.0 L 43.4 19.8 L 43.4 38.0 L 71.0 38.0 L 71.0 14.0 Z M 168.0 180.0 L 166.4 181.8 L 164.6 183.5 L 162.6 184.9 L 160.4 186.0 L 158.1 186.9 L 155.8 187.5 L 153.3 187.8 L 150.8 188.0 L 150.8 182.0 L 130.8 179.0 L 130.8 176.0 L 150.8 176.0 L 152.2 175.9 L 153.4 175.7 L 154.5 175.4 L 155.5 175.1 L 156.3 174.6 L 157.9 173.4 L 158.6 172.5 L 159.4 171.5 L 160.1 170.3 L 162.0 165.7 L 164.0 159.6 L 165.8 152.0 L 167.4 142.9 L 168.8 132.5 L 170.1 120.7 L 171.1 107.5 L 172.0 93.0 L 172.6 77.1 L 173.0364161491394 62.0 L 126.0555555343628 62.0 L 125.7 62.8 L 122.0 70.5 L 118.0 77.7 L 113.7 84.5 L 109.1 90.8 L 104.1 96.5 L 102.6 95.4 L 105.8 88.8 L 109.0 81.9 L 112.1 74.8 L 115.1 67.3 L 117.9 59.6 L 120.5 51.5 L 123.0 43.1 L 125.4 34.3 L 127.5 25.1 L 129.5 15.6 L 129.51363639831544 15.60303030014038 L 129.9 13.8 L 141.2 18.2 L 143.7 20.9 L 140.1409436225891 22.043982410430907 L 138.5 28.0 L 135.7 37.3 L 132.6 46.2 L 129.3 54.7 L 127.83333330154419 58.0 L 173.1 58.0 L 179.1 53.0 L 190.1 62.0 L 185.1 65.0 L 184.9574891090393 65.05937957763672 L 184.6 77.5 L 184.0 93.6 L 183.1 108.3 L 182.0 121.8 L 180.7 133.9 L 179.2 144.8 L 177.5 154.4 L 175.5 162.7 L 173.3 169.8 L 170.7 175.8 L 169.5 178.0 Z M 34.2 90.5 L 34.2 118.4 L 51.7 118.4 L 51.7 90.5 Z M 63.7 90.5 L 63.7 118.4 L 82.4 118.4 L 82.4 90.5 Z M 43.4 42.0 L 43.4 60.0 L 71.0 60.0 L 71.0 42.0 Z " />
</g>
</svg>
