<svg xmlns="http://www.w3.org/2000/svg" xmlns:xlink="http://www.w3.org/1999/xlink" version="1.1" baseProfile="full" viewBox="0 0 200 200" width="200" height="200">
<g fill="black">
<path d="M 27.0 139.0 L 94.0 139.0 L 94.0 122.5 L 106.0 124.5 L 109.0 126.5 L 106.0 128.3 L 106.0 139.0 L 151.0 139.0 L 161.0 129.0 L 173.0 139.0 L 173.0 143.0 L 135.14776115417482 143.0 L 144.7 149.4 L 146.4 152.6 L 142.50897178649902 152.7341733932495 L 142.4 152.9 L 139.9 156.4 L 137.2 159.8 L 134.4 163.3 L 131.4 166.7 L 128.2 170.0 L 124.9 173.4 L 121.4 176.7 L 117.6 179.8 L 116.85 180.4 L 161.0 180.4 L 171.0 170.4 L 183.0 180.4 L 183.0 184.4 L 17.0 184.4 L 17.0 180.4 L 113.15609760284424 180.4 L 115.0 177.6 L 117.5 173.4 L 120.1 169.4 L 122.5 165.6 L 124.8 161.8 L 126.9 158.0 L 129.0 154.3 L 130.9 150.7 L 132.6 147.2 L 133.78347387313843 144.5371838569641 L 133.7 144.5 L 134.5333333015442 143.0 L 27.0 143.0 Z M 70.8 169.3 L 69.7 166.7 L 68.4 164.0 L 66.7 161.2 L 64.8 158.4 L 62.6 155.6 L 60.2 152.7 L 57.5 149.7 L 54.3 146.9 L 55.3 145.4 L 59.1 147.4 L 62.9 149.2 L 66.4 151.3 L 69.6 153.6 L 72.6 156.1 L 75.3 158.7 L 77.8 161.4 L 80.0 164.4 L 82.0 167.5 L 83.7 170.7 L 83.3 175.3 L 79.9 178.3 L 75.4 178.0 L 72.3 174.6 L 71.7 172.0 Z M 153.9 127.6 L 151.8 128.7 L 149.7 129.7 L 147.5 130.5 L 145.2 131.1 L 142.9 131.5 L 140.6 131.8 L 138.2 131.9 L 138.2 125.9 L 126.2 122.9 L 126.2 119.9 L 138.2 119.9 L 139.7 119.8 L 141.1 119.7 L 142.5 119.4 L 143.9 119.0 L 145.1 118.6 L 146.4 118.0 L 147.6 117.3 L 148.8 116.5 L 149.9 115.6 L 151.0 114.6 L 152.9 112.3 L 154.8 108.7 L 156.6 103.8 L 158.3 97.7 L 159.8 90.3 L 161.0 81.8 L 161.9 72.1 L 162.6 61.2 L 163.0 49.2 L 163.16946563720703 38.1 L 87.0 38.1 L 95.1 46.2 L 93.9 46.7 L 92.8 47.2 L 91.6 47.7 L 90.3 48.2 L 89.1 48.8 L 88.775 48.9 L 92.1 48.9 L 90.2 48.5 L 95.1 46.2 L 95.71714286804199 48.9 L 123.8 48.9 L 129.8 43.9 L 140.8 52.9 L 135.8 56.9 L 135.8 73.5 L 126.27296133041382 78.26351928710938 L 127.4 79.0 L 126.4 79.8 L 125.5 80.5 L 123.5 81.9 L 122.4 82.6 L 121.4 83.2 L 121.21666669845581 83.3 L 136.8 83.3 L 142.8 78.3 L 153.8 87.3 L 148.8 91.3 L 148.8 111.3 L 136.8 117.3 L 136.8 111.3 L 105.6 111.3 L 94.6 116.8 L 94.6 77.8 L 105.6 83.3 L 116.5 83.3 L 116.5 80.3 L 116.6 79.1 L 116.6 78.0 L 116.7 76.8 L 116.7 74.56576576232911 L 116.3 74.4 L 116.7 73.6 L 116.7 73.5 L 116.73977699279786 73.52044610977173 L 116.75 73.5 L 57.5 73.5 L 56.18755369186401 74.15622320175171 L 63.6 79.0 L 61.6 80.6 L 60.5 81.4 L 59.5 82.1 L 58.4 82.8 L 57.4 83.3 L 72.8 83.3 L 78.3 78.3 L 88.8 87.3 L 83.8 90.8 L 83.8 115.3 L 72.8 120.8 L 72.8 111.3 L 42.3 111.3 L 42.3 118.3 L 30.3 124.3 L 30.3 77.3 L 42.3 83.3 L 52.2384614944458 83.3 L 52.3 82.5 L 52.5 81.3 L 52.6 80.1 L 52.7 79.0 L 52.8 77.8 L 52.9 76.7 L 52.9 75.8 L 45.5 79.5 L 45.5 54.980000019073486 L 43.4 57.5 L 37.9 63.4 L 32.0 68.9 L 25.5 74.1 L 18.5 79.0 L 17.4 77.6 L 22.9 71.4 L 28.2 65.2 L 33.0 59.0 L 37.4 52.9 L 41.4 46.7 L 45.0 40.4 L 48.1 34.1 L 50.8 27.7 L 53.1 21.2 L 54.71145076751709 15.602328968048095 L 54.7 15.6 L 55.4 13.0 L 66.5 18.0 L 68.8 20.8 L 65.08855276107788 21.711583518981932 L 63.8 25.1 L 60.6 32.0 L 59.471641826629636 34.1 L 163.2 34.1 L 169.2 29.1 L 180.2 38.1 L 175.2 41.1 L 175.12490615844726 41.131289100646974 L 175.0 49.5 L 174.6 61.8 L 173.9 73.0 L 172.9 83.2 L 171.6 92.3 L 170.0 100.4 L 168.1 107.5 L 165.7 113.6 L 162.9 118.8 L 159.5 123.1 L 157.7 124.8 Z M 105.6 98.4 L 105.6 107.3 L 136.8 107.3 L 136.8 98.4 Z M 42.3 98.4 L 42.3 107.3 L 72.8 107.3 L 72.8 98.4 Z M 105.6 87.3 L 105.6 94.4 L 136.8 94.4 L 136.8 87.3 Z M 42.3 87.3 L 42.3 94.4 L 72.8 94.4 L 72.8 87.3 Z M 129.1 82.2 L 123.3 82.5 L 127.4 79.0 Z M 65.3 82.2 L 59.5 82.5 L 63.6 79.0 Z M 118.98333330154419 73.5 L 123.8 76.64752473831177 L 123.8 73.5 Z M 57.5 62.8 L 57.5 69.5 L 123.8 69.5 L 123.8 62.8 Z M 57.5 52.9 L 57.5 58.8 L 123.8 58.8 L 123.8 52.9 Z M 57.322388076782225 38.1 L 57.0 38.7 L 52.9 45.2 L 52.16315793991089 46.23157892227173 L 57.5 48.9 L 82.40714282989502 48.9 L 83.3 46.4 L 83.7 45.1 L 84.2 43.9 L 84.7 42.6 L 85.1 41.5 L 85.5 40.3 L 85.94712896347046 39.070395183563235 L 85.6 38.8 L 86.23636360168457 38.1 Z " />
</g>
</svg>
