<svg xmlns="http://www.w3.org/2000/svg" xmlns:xlink="http://www.w3.org/1999/xlink" version="1.1" baseProfile="full" viewBox="0 0 200 200" width="200" height="200">
<g fill="black">
<path d="M 154.4 180.8 L 152.6 182.5 L 150.7 183.9 L 148.7 185.2 L 146.5 186.2 L 144.2 187.0 L 141.8 187.5 L 139.4 187.8 L 137.0 188.0 L 137.0 182.0 L 117.0 179.0 L 117.0 176.0 L 137.0 176.0 L 138.4 175.9 L 139.7 175.7 L 140.9 175.4 L 142.0 175.1 L 143.0 174.6 L 144.0 174.0 L 144.9 173.3 L 145.9 172.5 L 146.7 171.5 L 147.6 170.3 L 150.1 165.8 L 152.7 159.4 L 155.2 151.3 L 157.5 141.4 L 159.7 129.9 L 161.7 116.7 L 163.5 101.9 L 165.2 85.4 L 166.7 67.3 L 167.84162435531616 50.0 L 55.41752576828003 50.0 L 51.5 59.5 L 47.0 69.0 L 42.0 78.1 L 36.5 87.0 L 30.5 95.6 L 23.9 103.8 L 16.7 111.5 L 15.2 110.4 L 20.8 101.5 L 26.0 92.6 L 30.8 83.7 L 35.3 74.6 L 39.3 65.4 L 42.9 56.1 L 46.0 46.5 L 48.8 36.8 L 51.0 26.9 L 52.71166181564331 17.801166152954103 L 52.7 17.8 L 53.2 14.9 L 64.7 19.0 L 67.2 21.6 L 63.73875732421875 22.881941699981688 L 62.1 29.5 L 59.1 39.8 L 56.86800003051758 46.0 L 168.0 46.0 L 174.0 41.0 L 185.0 50.0 L 180.0 53.0 L 179.5815755844116 53.174343490600585 L 178.6 68.2 L 177.1 86.5 L 175.5 103.2 L 173.6 118.3 L 171.5 131.9 L 169.2 143.9 L 166.7 154.4 L 164.0 163.3 L 161.0 170.9 L 157.5 177.0 L 156.1 179.0 Z M 129.4 160.1 L 127.4 156.8 L 126.25826406478882 155.0602119445801 L 121.6 156.2 L 112.4 158.2 L 103.6 159.9 L 95.0 161.4 L 86.7 162.9 L 78.7 164.1 L 71.0 165.3 L 63.7 166.4 L 56.6 167.4 L 53.87762241363525 167.72027969360352 L 52.0 171.1 L 49.8 168.2 L 46.9 156.4 L 48.9 156.3 L 55.6 156.0 L 62.7 155.7 L 70.0 155.3 L 71.70586910247803 155.21138343811035 L 72.7 152.3 L 74.2 148.4 L 75.6 144.6 L 77.0 140.9 L 78.3 137.4 L 79.5 133.9 L 80.7 130.6 L 81.8 127.4 L 82.4262767791748 125.24282426834107 L 82.3 125.2 L 82.68392858505248 124.35535717010498 L 82.7 124.3 L 82.70759754180908 124.30328540802002 L 82.8 124.1 L 66.2 124.1 L 66.2 136.1 L 54.2 142.1 L 54.2 67.6 L 66.2 73.6 L 86.95652170181275 73.6 L 87.2 72.9 L 87.5 70.4 L 87.9 68.0 L 88.2 65.7 L 88.5 63.5 L 88.8 61.4 L 89.0 59.3 L 89.3 57.4 L 89.4 55.5 L 89.44148836135864 54.75320930480957 L 89.2 54.7 L 89.49830513000488 53.730508518219 L 89.5 53.7 L 89.50701646804809 53.702196502685545 L 90.0 52.1 L 101.0 57.3 L 103.3 60.1 L 98.64464941024781 61.16174659729004 L 97.7 62.5 L 96.5 64.4 L 95.2 66.2 L 93.9 68.1 L 92.5 70.0 L 90.9 71.9 L 89.37894735336303 73.6 L 123.7 73.6 L 129.7 68.6 L 140.7 77.6 L 135.7 81.6 L 135.7 124.1 L 123.7 130.1 L 123.7 124.1 L 85.19344263076782 124.1 L 93.8 129.1 L 95.7 132.1 L 91.65873203277587 132.587739276886 L 90.2 135.1 L 88.3 138.2 L 84.1 144.6 L 81.8 147.9 L 79.3 151.2 L 76.7 154.6 L 76.38760805130005 154.96817617416383 L 77.7 154.9 L 85.7 154.4 L 94.1 153.9 L 102.7 153.4 L 111.7 152.8 L 121.1 152.4 L 124.33467979431153 152.29891624450684 L 123.0 150.5 L 120.6 147.3 L 118.1 144.3 L 115.5 141.2 L 112.7 138.0 L 109.8 135.0 L 110.8 133.6 L 114.6 135.5 L 118.5 137.5 L 122.1 139.8 L 125.6 142.3 L 128.9 144.9 L 132.0 147.8 L 135.1 150.8 L 138.0 153.9 L 140.7 157.2 L 143.3 160.7 L 143.9 165.2 L 141.2 168.9 L 136.7 169.5 L 133.0 166.8 L 131.3 163.4 Z M 66.2 100.4 L 66.2 120.1 L 123.7 120.1 L 123.7 100.4 Z M 66.2 77.6 L 66.2 96.4 L 123.7 96.4 L 123.7 77.6 Z " />
</g>
</svg>
