<svg xmlns="http://www.w3.org/2000/svg" xmlns:xlink="http://www.w3.org/1999/xlink" version="1.1" baseProfile="full" viewBox="0 0 200 200" width="200" height="200">
<g fill="black">
<path d="M 165.3 180.4 L 163.6 182.1 L 161.7 183.7 L 159.7 185.0 L 157.5 186.1 L 155.3 186.9 L 152.9 187.5 L 150.4 187.8 L 148.0 188.0 L 148.0 182.0 L 141.0612244606018 180.95918369293213 L 141.0 181.0 L 111.0 181.0 L 108.4 180.8 L 105.9 180.4 L 103.5 179.6 L 101.2 178.3 L 99.2 176.7 L 97.6 174.7 L 96.3 172.4 L 95.5 170.0 L 95.1 167.5 L 95.0 165.0 L 95.0 117.0 L 80.86538457870483 117.0 L 85.9 118.1 L 88.9 120.1 L 85.53779230117797 122.01184358596802 L 84.9 128.9 L 82.8 138.9 L 79.5 148.1 L 75.2 156.5 L 69.8 164.0 L 63.4 170.6 L 56.0 176.2 L 47.6 180.8 L 38.4 184.3 L 28.2 186.8 L 27.7 185.1 L 36.9 180.8 L 45.1 176.1 L 52.1 170.9 L 58.1 165.2 L 63.1 158.9 L 67.1 152.0 L 70.2 144.5 L 72.3 136.4 L 73.6 127.5 L 73.9 117.8 L 73.93028011322022 117.80075702667236 L 73.95454549789429 117.0 L 67.0 117.0 L 67.0 129.0 L 55.0 135.0 L 55.0 68.0 L 67.0 74.0 L 115.0 74.0 L 121.0 69.0 L 132.0 78.0 L 127.0 82.0 L 127.0 123.0 L 115.0 129.0 L 115.0 117.0 L 107.0 117.0 L 107.0 166.2 L 107.2 167.1 L 107.5 168.0 L 107.9 168.4 L 108.8 168.7 L 109.7 168.9 L 111.0 169.0 L 135.0 169.0 L 141.0 144.0 L 143.0 144.0 L 141.0 169.0 L 144.6 171.4 L 147.0 175.0 L 146.3333333015442 176.0 L 148.0 176.0 L 149.4 175.9 L 150.6 175.7 L 151.8 175.4 L 152.8 175.1 L 153.7 174.6 L 154.6 174.0 L 155.4 173.3 L 156.2 172.5 L 157.0 171.5 L 157.8 170.3 L 159.8 165.9 L 161.9 159.6 L 163.7 151.5 L 165.3 141.7 L 166.7 130.2 L 167.9 117.0 L 168.8 102.2 L 169.4 85.7 L 169.8 67.7 L 169.97969541549682 50.0 L 55.41752576828003 50.0 L 51.5 59.5 L 47.0 69.0 L 42.0 78.1 L 36.5 87.0 L 30.5 95.6 L 23.9 103.8 L 16.7 111.5 L 15.2 110.4 L 20.8 101.5 L 26.0 92.6 L 30.8 83.7 L 35.3 74.6 L 39.3 65.4 L 42.9 56.1 L 46.0 46.5 L 48.8 36.8 L 51.0 26.9 L 52.71166181564331 17.801166152954103 L 52.7 17.8 L 53.2 14.9 L 64.7 19.0 L 67.2 21.6 L 63.73875732421875 22.881941699981688 L 62.1 29.5 L 59.1 39.8 L 56.86800003051758 46.0 L 170.0 46.0 L 176.0 41.0 L 187.0 50.0 L 182.0 53.0 L 181.94928150177003 53.02113275527954 L 181.8 67.8 L 181.4 86.1 L 180.8 102.8 L 179.9 117.9 L 178.7 131.4 L 177.2 143.4 L 175.5 153.8 L 173.4 162.7 L 171.0 170.2 L 168.2 176.3 L 166.8 178.4 Z M 67.0 78.0 L 67.0 113.0 L 115.0 113.0 L 115.0 78.0 Z " />
</g>
</svg>
