<svg xmlns="http://www.w3.org/2000/svg" xmlns:xlink="http://www.w3.org/1999/xlink" version="1.1" baseProfile="full" viewBox="0 0 200 200" width="200" height="200">
<g fill="black">
<path d="M 24.8 176.0 L 38.8 176.0 L 40.1 175.9 L 41.0 175.7 L 41.9 175.4 L 42.1 175.2 L 42.2 175.0 L 42.4 174.7 L 42.6 174.1 L 42.8 173.2 L 42.8 83.0 L 13.1 83.0 L 13.1 79.0 L 73.9 79.0 L 74.3043478012085 78.66304349899292 L 74.4 78.4 L 74.54089307785034 78.46592245101928 L 79.9 74.0 L 90.1 82.34545450210571 L 90.1 66.16086959838867 L 86.4 69.7 L 81.5 73.6 L 80.2 72.3 L 83.5 67.2 L 86.8 61.9 L 90.1 56.90285711288452 L 90.1 53.3 L 91.81111106872558 54.15555553436279 L 93.7 51.1 L 97.1 45.3 L 100.4 39.4 L 103.8 33.2 L 107.0 26.7 L 110.3 20.1 L 113.06987743377685 14.12745180130005 L 113.0 14.1 L 114.0 12.1 L 124.2 18.5 L 126.0 21.7 L 122.297038936615 21.955376625061035 L 120.4 25.4 L 117.61212120056152 30.0 L 147.4 30.0 L 153.4 25.0 L 164.4 34.0 L 159.4 37.0 L 156.25373134613037 38.31094532012939 L 156.0 38.7 L 154.3 41.0 L 152.4 43.5 L 150.4 46.1 L 148.2 48.9 L 145.8 51.8 L 143.1 54.9 L 140.2 58.0 L 139.12941179275512 59.3 L 163.8 59.3 L 169.8 54.3 L 180.8 63.3 L 175.8 67.3 L 175.8 95.6 L 163.8 101.6 L 163.8 93.6 L 117.01403512954712 93.6 L 126.4 98.6 L 128.5 101.6 L 124.71159734725953 102.1878556251526 L 123.2 105.4 L 119.7 111.9 L 118.80483875274658 113.4 L 172.2 113.4 L 178.2 108.4 L 189.2 117.4 L 184.2 120.4 L 184.2 123.8 L 184.0 131.6 L 183.8 138.9 L 183.4 145.6 L 183.0 151.8 L 182.4 157.4 L 181.7 162.6 L 180.9 167.2 L 180.0 171.4 L 179.0 175.1 L 178.1 177.4 L 176.9 179.7 L 175.5 181.7 L 173.9 183.6 L 171.9 185.2 L 169.8 186.5 L 167.6 187.5 L 165.2 188.2 L 162.7 188.6 L 160.2 188.7 L 160.2 182.7 L 140.2 179.7 L 140.2 176.7 L 160.2 176.7 L 161.5 176.6 L 162.6 176.5 L 163.5 176.2 L 164.3 175.9 L 164.9 175.5 L 165.5 175.0 L 166.0 174.4 L 166.6 173.6 L 167.1 172.6 L 167.6 171.3 L 168.4 168.5 L 169.2 165.0 L 169.9 160.8 L 170.5 156.1 L 171.0 150.7 L 171.4 144.8 L 171.8 138.3 L 172.0 131.3 L 172.2 123.6 L 172.2 117.4 L 116.41774196624756 117.4 L 116.0 118.1 L 112.0 124.1 L 107.6 129.7 L 103.26037731170655 134.7 L 104.7 134.7 L 105.5 140.7 L 106.1 146.3 L 106.3 151.6 L 106.2 156.6 L 105.8 161.2 L 105.1 165.5 L 104.2 169.5 L 102.9 173.2 L 101.2 176.6 L 99.0 179.6 L 94.8 181.4 L 90.5 179.7 L 88.8 175.5 L 90.5 171.2 L 92.0 169.9 L 93.6 168.1 L 95.1 165.8 L 96.6 162.9 L 97.9 159.4 L 99.1 155.5 L 100.2 151.0 L 101.2 146.1 L 102.2 140.6 L 102.84573001861573 135.15741834640502 L 98.1 140.0 L 92.9 144.7 L 87.3 148.9 L 81.4 152.6 L 80.3 151.2 L 84.8 146.1 L 89.1 140.9 L 93.2 135.6 L 97.1 130.3 L 100.7 124.7 L 104.1 119.0 L 107.3 113.1 L 110.2 107.0 L 112.8 100.7 L 115.2 94.2 L 115.24207649230956 94.21653003692627 L 115.45652170181275 93.6 L 102.1 93.6 L 102.1 105.6 L 90.1 111.6 L 90.1 83.48000001907349 L 85.9 86.0 L 83.11126756668091 87.16197185516357 L 81.4 89.9 L 79.3 93.2 L 77.0 96.5 L 74.7 99.9 L 72.2 103.3 L 69.6 106.8 L 66.9 110.3 L 63.9 113.8 L 60.9 117.4 L 59.3 116.5 L 61.1 112.2 L 62.7 107.9 L 64.4 103.8 L 66.0 99.8 L 67.6 96.0 L 69.1 92.3 L 70.6 88.7 L 71.9 85.1 L 72.7029411315918 83.0 L 54.8 83.0 L 54.8 172.0 L 54.7 174.5 L 54.3 177.0 L 53.4 179.4 L 52.2 181.7 L 50.6 183.7 L 48.6 185.3 L 46.3 186.6 L 43.9 187.4 L 41.4 187.8 L 38.8 188.0 L 38.8 182.0 L 24.8 179.0 Z M 119.5 173.1 L 115.6 170.7 L 114.4 166.3 L 115.1 164.0 L 115.6 161.4 L 116.0 158.7 L 116.3 155.8 L 116.4 152.6 L 116.4 149.3 L 116.3 145.9 L 116.1 142.2 L 115.8 138.3 L 115.1 134.3 L 116.8 133.8 L 118.5 137.5 L 120.3 141.1 L 121.8 144.7 L 123.1 148.2 L 124.1 151.6 L 125.0 155.0 L 125.6 158.4 L 126.1 161.6 L 126.3 164.9 L 126.3 168.1 L 123.9 172.0 Z M 134.2 152.2 L 133.8 149.3 L 133.3 146.5 L 132.7 143.7 L 132.0 140.9 L 130.4 135.3 L 129.1 132.7 L 130.5 131.7 L 132.6 133.9 L 134.8 136.0 L 136.9 138.4 L 138.7 141.0 L 140.4 143.7 L 142.0 146.6 L 143.4 149.7 L 144.6 152.9 L 145.7 156.2 L 146.6 159.6 L 145.3 164.0 L 141.4 166.3 L 137.0 165.0 L 134.7 161.1 L 134.5 155.1 Z M 153.0 147.4 L 152.4 145.0 L 151.7 142.6 L 150.9 140.3 L 149.9 137.9 L 148.8 135.6 L 146.2 130.8 L 144.3 128.7 L 145.5 127.4 L 147.9 129.0 L 150.4 130.5 L 152.8 132.2 L 155.1 134.1 L 157.2 136.2 L 159.1 138.5 L 160.9 141.0 L 162.5 143.6 L 164.0 146.3 L 165.3 149.2 L 164.6 153.7 L 161.0 156.5 L 156.5 155.9 L 153.7 152.3 L 153.4 149.8 Z M 102.1 63.3 L 102.1 89.6 L 127.0 89.6 L 127.0 63.3 Z M 139.0 63.3 L 139.0 89.6 L 163.8 89.6 L 163.8 63.3 Z M 47.1 68.4 L 45.5 65.6 L 43.7 62.9 L 41.8 60.2 L 39.6 57.6 L 37.2 55.0 L 34.6 52.3 L 31.8 49.6 L 28.6 47.2 L 29.5 45.6 L 37.1 48.6 L 40.6 50.4 L 44.0 52.4 L 47.2 54.6 L 50.2 57.0 L 50.83146848678589 57.58636360168457 L 51.5 56.5 L 53.8 52.7 L 56.1 49.1 L 58.3 45.6 L 60.5 42.2 L 62.6 38.8 L 64.7 35.6 L 66.7 32.4 L 66.93999996185303 32.0 L 17.8 32.0 L 17.8 28.0 L 69.2 28.0 L 69.48000001907349 27.76666669845581 L 70.3 26.4 L 70.73655319213867 26.719538974761964 L 75.2 23.0 L 86.2 32.0 L 81.2 35.0 L 76.98492460250854 36.75628137588501 L 75.0 38.9 L 72.4 41.6 L 69.6 44.4 L 66.7 47.2 L 63.8 50.1 L 60.7 52.9 L 57.4 55.8 L 53.9 58.6 L 52.8552845954895 59.465621376037596 L 53.0 59.6 L 55.6 62.4 L 58.1 65.4 L 60.3 68.5 L 60.6 73.1 L 57.7 76.6 L 53.2 77.0 L 49.6 74.1 L 48.5 71.2 Z M 112.4 38.3 L 108.3 44.3 L 104.1 50.0 L 99.9 55.4 L 98.2351351737976 57.36756753921509 L 102.1 59.3 L 136.5 59.3 L 137.9 56.5 L 139.5 52.6 L 141.0 48.9 L 142.4 45.5 L 143.7 42.3 L 144.9 39.3 L 145.9 36.5 L 146.7 34.0 L 115.13015871047973 34.0 Z " />
</g>
</svg>
