<svg xmlns="http://www.w3.org/2000/svg" xmlns:xlink="http://www.w3.org/1999/xlink" version="1.1" baseProfile="full" viewBox="0 0 200 200" width="200" height="200">
<g fill="black">
<path d="M 143.6 172.1 L 164.8 172.1 L 165.7 171.9 L 166.3 171.7 L 166.6 171.5 L 166.8 171.4 L 167.0 171.2 L 167.2 170.9 L 167.3 170.3 L 167.5 169.4 L 167.6 168.1 L 167.6 60.0 L 110.0 60.0 L 110.0 56.0 L 167.6 56.0 L 167.6 29.7 L 110.8 29.7 L 110.8 25.7 L 167.6 25.7 L 173.6 20.7 L 184.6 29.7 L 179.6 33.7 L 179.6 168.1 L 179.4 170.7 L 179.0 173.2 L 178.2 175.6 L 177.0 177.9 L 175.3 179.9 L 173.3 181.5 L 171.0 182.7 L 168.6 183.6 L 166.1 184.0 L 163.6 184.1 L 163.6 178.1 L 143.6 175.1 Z M 80.4 181.1 L 78.5 182.7 L 76.6 184.1 L 74.5 185.3 L 72.3 186.2 L 70.1 187.0 L 67.7 187.5 L 65.3 187.8 L 62.8 188.0 L 62.8 182.0 L 44.8 179.0 L 44.8 176.0 L 62.8 176.0 L 64.3 175.9 L 65.6 175.7 L 66.9 175.4 L 68.0 175.1 L 69.1 174.6 L 70.1 174.0 L 71.1 173.3 L 72.0 172.5 L 72.9 171.5 L 73.8 170.3 L 74.6 169.0 L 75.7 166.7 L 76.8 163.5 L 77.9 159.4 L 79.1 154.6 L 80.2 149.0 L 81.4 142.7 L 82.5 135.6 L 83.7 127.8 L 84.4418604850769 122.0 L 43.25311908721924 122.0 L 40.4 134.9 L 27.4 138.2 L 39.13807830810547 85.0 L 12.4 85.0 L 12.4 81.0 L 68.49183673858643 81.0 L 69.3 77.7 L 70.3 72.9 L 71.3 68.4 L 72.3 64.2 L 73.2 60.1 L 74.0 56.3 L 74.7 52.8 L 75.3 49.4 L 75.9 46.3 L 76.15839700698852 44.42662134170532 L 76.0 44.4 L 76.7 41.7 L 87.9 46.4 L 90.3 49.1 L 86.31900987625122 50.30851488113403 L 85.4 52.5 L 84.0 55.7 L 82.5 59.2 L 80.8 62.8 L 78.9 66.5 L 76.9 70.5 L 74.7 74.6 L 72.2 78.8 L 70.9777777671814 81.0 L 85.6 81.0 L 95.6 71.0 L 107.6 81.0 L 107.6 85.0 L 51.4364839553833 85.0 L 44.13780717849731 118.0 L 84.8 118.0 L 90.8 113.0 L 101.8 122.0 L 96.8 125.0 L 96.12052574157715 125.28311424255371 L 95.6 129.4 L 94.4 137.4 L 93.2 144.7 L 92.0 151.3 L 90.8 157.2 L 89.5 162.5 L 88.2 167.1 L 86.8 171.0 L 85.3 174.4 L 83.6 177.4 L 82.0 179.3 Z M 39.6 66.6 L 39.2 63.5 L 38.8 60.5 L 38.2 57.5 L 37.6 54.6 L 36.8 51.7 L 36.0 48.9 L 35.2 46.0 L 34.0 43.3 L 35.5 42.3 L 37.5 44.5 L 39.7 46.8 L 41.8 49.3 L 43.6 52.0 L 45.3 54.8 L 46.9 57.8 L 48.4 60.9 L 49.7 64.1 L 50.9 67.5 L 51.9 71.0 L 50.9 75.4 L 47.0 77.9 L 42.6 76.8 L 40.1 73.0 L 39.9 69.8 Z M 18.5 35.0 L 54.0 35.0 L 54.0 12.0 L 66.0 14.0 L 69.0 16.0 L 66.0 17.8 L 66.0 35.0 L 79.4 35.0 L 89.4 25.0 L 101.4 35.0 L 101.4 39.0 L 18.5 39.0 Z " />
</g>
</svg>
