<svg xmlns="http://www.w3.org/2000/svg" xmlns:xlink="http://www.w3.org/1999/xlink" version="1.1" baseProfile="full" viewBox="0 0 200 200" width="200" height="200">
<g fill="black">
<path d="M 153.5 181.3 L 151.7 182.8 L 149.7 184.2 L 147.6 185.3 L 145.4 186.3 L 143.2 187.0 L 140.8 187.5 L 138.4 187.9 L 136.0 188.0 L 136.0 182.0 L 116.0 179.0 L 116.0 176.0 L 136.0 176.0 L 137.4 175.9 L 138.8 175.7 L 141.2 175.1 L 142.3 174.6 L 143.4 174.0 L 144.4 173.3 L 145.4 172.5 L 146.3 171.5 L 147.3 170.4 L 150.0 166.1 L 152.6 160.0 L 155.2 152.3 L 157.5 142.9 L 159.6 132.0 L 161.4 119.4 L 162.9 105.3 L 164.2 89.7 L 165.2 72.5 L 165.90588235855103 56.0 L 120.86400003433228 56.0 L 121.8 56.2 L 117.9 71.0 L 113.1 85.0 L 107.5 98.4 L 102.06999998092651 109.26000003814697 L 104.1 111.0 L 109.2 116.1 L 113.7 121.5 L 117.5 127.2 L 120.7 133.3 L 120.7 137.9 L 117.5 141.1 L 112.9 141.1 L 109.6 137.9 L 107.5 132.6 L 104.8 127.5 L 101.4 122.4 L 97.5 117.4 L 97.42697591781616 117.32380094528199 L 94.1 122.9 L 86.2 134.1 L 77.5 144.5 L 68.0 154.1 L 57.6 162.8 L 46.5 170.7 L 45.4 169.2 L 55.1 160.0 L 64.1 150.4 L 72.4 140.3 L 80.0 129.7 L 86.8 118.5 L 90.83526039123535 110.69408645629883 L 87.7 107.8 L 81.9 103.1 L 75.5 98.5 L 68.4 93.9 L 60.8 89.3 L 61.5 87.6 L 70.1 90.5 L 78.1 93.9 L 85.5 97.6 L 92.3 101.7 L 94.41968975067138 103.23848447799682 L 98.3 94.4 L 103.0 81.5 L 106.9 67.9 L 109.58169012069702 56.0 L 61.83333330154419 56.0 L 60.0 59.3 L 54.0 68.9 L 47.5 78.2 L 40.6 87.1 L 33.1 95.7 L 25.1 103.9 L 16.6 111.6 L 15.3 110.3 L 22.3 101.4 L 29.0 92.3 L 35.3 83.2 L 41.2 73.9 L 46.7 64.5 L 51.8 54.8 L 56.5 45.0 L 60.7 34.9 L 64.6 24.6 L 67.9 14.0 L 67.91807231903076 14.006024074554443 L 68.4 12.5 L 79.3 17.8 L 81.6 20.6 L 77.91826429367066 21.439694118499755 L 75.2 28.6 L 70.6 39.1 L 65.5 49.4 L 64.0555555343628 52.0 L 166.0 52.0 L 172.0 47.0 L 183.0 56.0 L 178.0 59.0 L 177.7151001930237 59.11870822906494 L 177.2 73.1 L 176.2 90.5 L 174.9 106.5 L 173.3 121.0 L 171.4 133.9 L 169.2 145.5 L 166.7 155.6 L 163.9 164.3 L 160.6 171.6 L 156.8 177.7 L 155.2 179.6 Z " />
</g>
</svg>
