<svg xmlns="http://www.w3.org/2000/svg" xmlns:xlink="http://www.w3.org/1999/xlink" version="1.1" baseProfile="full" viewBox="0 0 200 200" width="200" height="200">
<g fill="black">
<path d="M 41.1 128.7 L 41.0 126.8 L 40.7 125.0 L 40.4 123.1 L 39.9 121.2 L 39.3 119.2 L 38.6 117.2 L 37.9 115.1 L 36.6 113.3 L 37.9 112.1 L 39.6 113.6 L 41.6 114.9 L 43.4 116.4 L 45.1 118.0 L 46.7 119.7 L 48.2 121.5 L 49.6 123.4 L 50.8 125.4 L 51.9 127.6 L 52.9 129.8 L 52.0 134.2 L 49.53333330154419 136.0 L 67.02727270126343 136.0 L 67.9 134.2 L 69.0 130.9 L 70.1 127.8 L 71.1 124.9 L 72.1 122.2 L 73.0 119.7 L 73.9 117.4 L 74.6 115.3 L 75.3 113.4 L 75.5707447052002 112.58776597976684 L 75.4 112.5 L 75.69411764144897 112.0 L 13.8 112.0 L 13.8 108.0 L 54.5 108.0 L 54.5 90.0 L 23.8 90.0 L 23.8 86.0 L 54.5 86.0 L 54.5 67.0 L 66.5 69.0 L 69.5 71.0 L 66.5 72.8 L 66.5 86.0 L 75.1 86.0 L 85.1 76.0 L 97.1 86.0 L 97.1 90.0 L 66.5 90.0 L 66.5 108.0 L 85.1 108.0 L 95.1 98.0 L 107.1 108.0 L 107.1 112.0 L 78.01666669845581 112.0 L 86.1 118.0 L 87.6 121.3 L 82.9132555961609 121.21919403076171 L 81.9 122.3 L 80.3 124.1 L 78.5 126.1 L 76.6 128.2 L 74.6 130.5 L 72.4 132.9 L 70.0 135.5 L 69.63793106079102 136.0 L 82.3 136.0 L 92.3 126.0 L 104.3 136.0 L 104.3 140.0 L 66.5 140.0 L 66.5 158.0 L 74.0 158.0 L 84.0 148.0 L 96.0 158.0 L 96.0 162.0 L 66.5 162.0 L 66.5 183.0 L 54.5 189.0 L 54.5 162.0 L 24.9 162.0 L 24.9 158.0 L 54.5 158.0 L 54.5 140.0 L 16.6 140.0 L 16.6 136.0 L 43.8 136.0 L 41.2 132.3 L 41.2 130.5 Z M 175.6 178.8 L 174.2 180.8 L 172.6 182.7 L 170.7 184.4 L 168.6 185.7 L 166.3 186.7 L 163.9 187.4 L 161.5 187.8 L 158.9 188.0 L 158.9 182.0 L 138.9 179.0 L 138.9 176.0 L 158.9 176.0 L 160.2 175.9 L 161.3 175.7 L 162.2 175.5 L 162.9 175.1 L 164.1 174.3 L 164.6 173.7 L 165.1 172.9 L 165.6 171.9 L 166.0 170.6 L 167.1 166.1 L 168.2 159.7 L 169.1 151.6 L 169.9 141.8 L 170.6 130.2 L 171.2 117.1 L 171.6 102.3 L 172.0 85.8 L 172.1 67.7 L 172.18984775543214 50.0 L 131.3731958389282 50.0 L 129.6 58.6 L 127.4 68.0 L 124.9 77.2 L 122.2 86.2 L 119.2 94.9 L 115.8 103.2 L 112.1 111.2 L 110.4 110.7 L 112.2 102.1 L 114.0 93.4 L 115.8 84.5 L 117.5 75.5 L 119.0 66.4 L 120.4 57.0 L 121.6 47.4 L 122.7 37.6 L 123.6 27.6 L 124.23135461807252 18.400261306762694 L 124.2 18.4 L 124.4 15.3 L 136.2 18.5 L 139.0 20.7 L 135.7199999809265 22.339999961853028 L 134.9 28.9 L 133.3 39.0 L 132.09797983169557 46.0 L 172.2 46.0 L 178.2 41.0 L 189.2 50.0 L 184.2 53.0 L 184.17469425201415 53.01054410934448 L 184.1 67.8 L 184.0 86.0 L 183.6 102.6 L 183.2 117.5 L 182.6 130.9 L 181.9 142.6 L 181.0 152.8 L 180.0 161.3 L 178.9 168.4 L 177.5 174.1 L 176.7 176.5 Z M 82.5 13.2 L 85.5 15.2 L 82.5 17.0 L 82.5 31.8 L 86.7 31.8 L 96.7 21.8 L 108.7 31.8 L 108.7 35.8 L 82.5 35.8 L 82.5 65.2 L 70.5 71.2 L 70.5 61.2 L 50.4 61.2 L 50.4 68.2 L 38.4 74.2 L 38.4 35.8 L 12.2 35.8 L 12.2 31.8 L 38.4 31.8 L 38.4 11.2 L 50.4 13.2 L 53.4 15.2 L 50.4 17.0 L 50.4 31.8 L 70.5 31.8 L 70.5 11.2 Z M 50.4 35.8 L 50.4 57.2 L 70.5 57.2 L 70.5 35.8 Z " />
</g>
</svg>
