<svg xmlns="http://www.w3.org/2000/svg" xmlns:xlink="http://www.w3.org/1999/xlink" version="1.1" baseProfile="full" viewBox="0 0 200 200" width="200" height="200">
<g fill="black">
<path d="M 145.8 176.0 L 165.8 176.0 L 167.0 175.9 L 167.9 175.7 L 168.8 175.4 L 169.2 175.0 L 169.4 174.7 L 169.5 174.1 L 169.7 173.2 L 169.8 172.0 L 169.8 32.0 L 106.1 32.0 L 106.1 28.0 L 169.8 28.0 L 175.8 23.0 L 186.8 32.0 L 181.8 36.0 L 181.8 172.0 L 181.6 174.5 L 181.2 177.0 L 180.4 179.4 L 179.2 181.7 L 177.5 183.7 L 175.5 185.3 L 173.2 186.6 L 170.8 187.4 L 168.3 187.8 L 165.8 188.0 L 165.8 182.0 L 145.8 179.0 Z M 77.9 181.0 L 76.1 182.6 L 74.1 184.0 L 72.1 185.2 L 69.9 186.2 L 67.6 187.0 L 65.3 187.5 L 62.8 187.8 L 60.4 188.0 L 60.4 182.0 L 44.4 179.0 L 44.4 176.0 L 60.4 176.0 L 61.8 175.9 L 63.1 175.7 L 64.4 175.4 L 65.5 175.1 L 66.5 174.6 L 67.5 174.0 L 68.5 173.3 L 69.4 172.5 L 70.3 171.5 L 71.2 170.3 L 71.9 169.0 L 72.9 166.7 L 74.0 163.5 L 75.1 159.5 L 76.2 154.6 L 77.3 149.1 L 78.4 142.7 L 79.5 135.6 L 80.6 127.8 L 81.34186048507691 122.0 L 42.05557651519776 122.0 L 39.3 134.9 L 26.3 138.3 L 37.660568428039554 85.0 L 12.1 85.0 L 12.1 81.0 L 66.09183673858642 81.0 L 66.9 77.7 L 67.8 72.9 L 68.8 68.4 L 69.7 64.2 L 70.6 60.2 L 71.3 56.4 L 72.0 52.8 L 72.6 49.5 L 73.1 46.3 L 73.36740913391114 44.42813596725464 L 73.2 44.4 L 73.9 41.7 L 85.1 46.4 L 87.5 49.1 L 83.60921840667724 50.23186368942261 L 82.7 52.4 L 81.3 55.7 L 79.8 59.1 L 78.2 62.7 L 76.4 66.5 L 74.4 70.5 L 72.3 74.6 L 69.9 78.8 L 68.6777777671814 81.0 L 81.9 81.0 L 91.9 71.0 L 103.9 81.0 L 103.9 85.0 L 49.9591682434082 85.0 L 42.91001892089844 118.0 L 81.7 118.0 L 87.7 113.0 L 98.7 122.0 L 93.7 125.0 L 93.02052574157715 125.28311424255371 L 92.5 129.4 L 91.4 137.4 L 90.3 144.7 L 89.1 151.3 L 87.9 157.2 L 86.7 162.4 L 85.5 166.9 L 84.1 170.9 L 82.7 174.3 L 81.0 177.2 L 79.5 179.2 Z M 122.5 91.7 L 143.6 91.7 L 149.6 86.7 L 160.6 95.7 L 155.6 99.7 L 155.6 150.3 L 143.6 156.3 L 143.6 144.3 L 122.5 144.3 L 122.5 156.3 L 110.5 162.3 L 110.5 85.7 Z M 122.5 95.7 L 122.5 140.3 L 143.6 140.3 L 143.6 95.7 Z M 37.8 63.5 L 37.4 60.5 L 36.8 57.5 L 35.6 51.7 L 34.8 48.8 L 34.1 46.0 L 32.9 43.3 L 34.4 42.3 L 36.4 44.6 L 38.5 46.9 L 40.5 49.3 L 42.3 52.0 L 44.0 54.8 L 45.5 57.8 L 47.0 60.9 L 49.4 67.5 L 50.4 71.0 L 49.3 75.5 L 45.5 77.9 L 41.0 76.8 L 38.6 72.9 L 38.4 69.7 Z M 163.8 60.0 L 163.8 64.0 L 102.9 64.0 L 102.9 60.0 L 141.8 60.0 L 151.8 50.0 Z M 18.0 35.0 L 52.0 35.0 L 52.0 12.0 L 64.0 14.0 L 67.0 16.0 L 64.0 17.8 L 64.0 35.0 L 75.9 35.0 L 85.9 25.0 L 97.9 35.0 L 97.9 39.0 L 18.0 39.0 Z " />
</g>
</svg>
