<svg xmlns="http://www.w3.org/2000/svg" xmlns:xlink="http://www.w3.org/1999/xlink" version="1.1" baseProfile="full" viewBox="0 0 200 200" width="200" height="200">
<g fill="black">
<path d="M 107.0 167.7 L 162.8181818008423 167.7 L 171.0 158.7 L 181.0 167.7 L 181.0 171.7 L 107.0 171.7 L 107.0 183.3 L 95.0 189.3 L 95.0 171.7 L 23.0 171.7 L 23.0 167.7 L 95.0 167.7 L 95.0 157.1 L 31.0 157.1 L 31.0 153.1 L 61.0 153.1 L 61.0 137.1 L 18.0 137.1 L 18.0 133.1 L 61.0 133.1 L 61.0 115.8 L 52.0 115.8 L 52.0 118.8 L 40.0 124.8 L 40.0 71.2 L 52.0 77.2 L 149.0 77.2 L 155.0 72.2 L 166.0 81.2 L 161.0 85.2 L 161.0 117.8 L 149.0 123.8 L 149.0 115.8 L 141.0 115.8 L 141.0 133.1 L 165.8181818008423 133.1 L 174.0 124.1 L 184.0 133.1 L 184.0 137.1 L 141.0 137.1 L 141.0 153.1 L 153.8181818008423 153.1 L 162.0 144.1 L 172.0 153.1 L 172.0 157.1 L 107.0 157.1 Z M 73.0 137.1 L 73.0 153.1 L 95.0 153.1 L 95.0 137.1 Z M 107.0 137.1 L 107.0 153.1 L 129.0 153.1 L 129.0 137.1 Z M 73.0 115.8 L 73.0 133.1 L 95.0 133.1 L 95.0 115.8 Z M 107.0 115.8 L 107.0 133.1 L 129.0 133.1 L 129.0 115.8 Z M 52.0 98.5 L 52.0 111.8 L 95.0 111.8 L 95.0 98.5 Z M 107.0 98.5 L 107.0 111.8 L 149.0 111.8 L 149.0 98.5 Z M 52.0 81.2 L 52.0 94.5 L 95.0 94.5 L 95.0 81.2 Z M 107.0 81.2 L 107.0 94.5 L 149.0 94.5 L 149.0 81.2 Z M 160.0 38.9 L 162.0 38.9 L 160.0 55.9 L 163.0 57.9 L 165.0 60.9 L 163.0 63.9 L 160.0 65.9 L 61.5 65.9 L 59.1 65.5 L 56.8 64.9 L 54.6 63.8 L 52.6 62.3 L 50.9 60.4 L 49.6 58.2 L 48.7 55.9 L 48.2 53.4 L 48.0 50.9 L 48.0 13.7 L 60.0 15.7 L 63.0 17.7 L 60.0 19.5 L 60.0 36.193203926086426 L 64.2 35.5 L 74.4 33.9 L 84.6 32.4 L 94.7 30.9 L 104.7 29.4 L 114.7 27.8 L 124.6 26.2 L 134.5 24.5 L 144.3 22.8 L 153.02027626037597 21.181804370880126 L 153.0 21.1 L 153.08431615829468 21.16992073059082 L 154.0 21.0 L 154.1726861000061 22.072471332550048 L 165.3 31.3 L 165.7 34.3 L 161.19154663085936 31.95560426712036 L 155.9 32.8 L 146.0 34.0 L 136.0 35.2 L 125.9 36.2 L 115.8 37.1 L 105.7 37.8 L 95.5 38.5 L 85.2 39.0 L 74.9 39.3 L 64.5 39.3 L 60.0 39.17142858505249 L 60.0 50.9 L 59.9 52.1 L 60.0 53.1 L 60.1 53.7 L 60.2 54.2 L 60.3 54.5 L 60.5 54.8 L 60.9 55.1 L 61.6 55.4 L 62.6 55.7 L 64.0 55.9 L 155.0 55.9 Z " />
</g>
</svg>
