<svg xmlns="http://www.w3.org/2000/svg" xmlns:xlink="http://www.w3.org/1999/xlink" version="1.1" baseProfile="full" viewBox="0 0 200 200" width="200" height="200">
<g fill="black">
<path d="M 133.4 177.5 L 130.9 177.1 L 128.5 176.3 L 126.3 175.1 L 124.3 173.4 L 122.6 171.4 L 121.4 169.1 L 120.6 166.7 L 120.1 164.2 L 120.0 161.7 L 120.0 24.2 L 132.0 26.2 L 135.0 28.2 L 132.0 30.0 L 132.0 95.0420000076294 L 140.7 89.3 L 145.6 85.8 L 150.5 82.0 L 155.4 78.0 L 160.2 73.8 L 165.0 69.3 L 169.7 64.5 L 173.7234848022461 60.21969699859619 L 173.7 60.2 L 174.7 59.2 L 183.0 68.0 L 183.7 71.5 L 180.02410154342653 70.59714775085449 L 177.5 72.8 L 172.0 77.4 L 166.5 81.6 L 160.9 85.5 L 155.3 89.0 L 149.6 92.2 L 143.9 95.0 L 138.1 97.4 L 132.2 99.3 L 132.0 99.3474575996399 L 132.0 161.7 L 132.1 162.9 L 132.2 163.8 L 132.4 164.4 L 132.6 164.7 L 132.7 164.9 L 132.9 165.1 L 133.3 165.3 L 133.9 165.4 L 134.8 165.6 L 136.0 165.7 L 175.4 165.7 L 181.4 140.7 L 183.4 140.7 L 181.4 165.7 L 185.0 168.1 L 187.4 171.7 L 185.0 175.3 L 181.4 177.7 L 136.0 177.7 Z M 29.5 41.8 L 29.5 169.0 L 90.5 169.0 L 100.5 159.0 L 112.5 169.0 L 112.5 173.0 L 29.5 173.0 L 29.5 180.0 L 17.5 186.0 L 17.5 31.8 L 29.5 37.8 L 85.7 37.8 L 95.7 27.8 L 107.7 37.8 L 107.7 41.8 L 80.8 41.8 L 80.8 117.0 L 80.9 118.2 L 81.2 119.2 L 81.4 119.8 L 81.7 120.2 L 81.9 120.4 L 82.5 120.7 L 83.2 120.8 L 84.1 120.9 L 85.3 121.0 L 98.0 121.0 L 104.0 96.0 L 106.0 96.0 L 104.0 121.0 L 107.6 123.4 L 110.0 127.0 L 107.6 130.6 L 104.0 133.0 L 85.3 133.0 L 82.8 132.8 L 80.3 132.3 L 77.9 131.4 L 75.7 130.2 L 73.8 128.5 L 72.2 126.5 L 71.0 124.3 L 70.3 121.9 L 69.9 119.5 L 69.8 117.0 L 69.8 41.8 L 60.1 41.8 L 60.1 79.0 L 59.6 89.9 L 58.6 100.1 L 57.1 109.4 L 55.1 117.8 L 52.6 125.4 L 49.6 132.1 L 46.1 137.8 L 42.0 142.6 L 37.4 146.2 L 32.4 148.7 L 31.6 147.2 L 35.2 143.6 L 38.2 139.5 L 40.9 134.7 L 43.3 129.2 L 45.2 123.0 L 46.8 115.9 L 48.0 108.0 L 48.8 99.2 L 49.1 89.5 L 49.1 41.8 Z " />
</g>
</svg>
