<svg xmlns="http://www.w3.org/2000/svg" xmlns:xlink="http://www.w3.org/1999/xlink" version="1.1" baseProfile="full" viewBox="0 0 200 200" width="200" height="200">
<g fill="black">
<path d="M 171.0 23.0 L 171.0 27.0 L 34.0 27.0 L 34.0 167.0 L 158.0 167.0 L 168.0 157.0 L 180.0 167.0 L 180.0 171.0 L 34.0 171.0 L 34.0 183.0 L 22.0 189.0 L 22.0 17.0 L 34.0 23.0 L 149.0 23.0 L 159.0 13.0 Z M 43.0 147.0 L 102.0 147.0 L 102.0 122.0 L 57.0 122.0 L 57.0 118.0 L 102.0 118.0 L 102.0 93.0 L 114.0 95.0 L 117.0 97.0 L 114.0 98.8 L 114.0 118.0 L 137.0 118.0 L 147.0 108.0 L 159.0 118.0 L 159.0 122.0 L 114.0 122.0 L 114.0 147.0 L 154.8181818008423 147.0 L 163.0 138.0 L 173.0 147.0 L 173.0 151.0 L 43.0 151.0 Z M 43.8 85.8 L 68.6 85.8 L 68.6 43.4 L 80.6 45.4 L 83.6 47.4 L 80.6 49.2 L 80.6 85.8 L 102.5 85.8 L 102.5 30.7 L 114.5 32.7 L 117.5 34.7 L 114.5 36.5 L 114.5 56.0 L 140.8 56.0 L 150.8 46.0 L 162.8 56.0 L 162.8 60.0 L 114.5 60.0 L 114.5 85.8 L 151.1 85.8 L 161.1 75.8 L 173.1 85.8 L 173.1 89.8 L 43.8 89.8 Z " />
</g>
</svg>
