<svg xmlns="http://www.w3.org/2000/svg" xmlns:xlink="http://www.w3.org/1999/xlink" version="1.1" baseProfile="full" viewBox="0 0 200 200" width="200" height="200">
<g fill="black">
<path d="M 176.0 26.0 L 176.0 30.0 L 36.0 30.0 L 36.0 170.0 L 164.0 170.0 L 174.0 160.0 L 186.0 170.0 L 186.0 174.0 L 36.0 174.0 L 36.0 181.0 L 24.0 187.0 L 24.0 20.0 L 36.0 26.0 L 154.0 26.0 L 164.0 16.0 Z M 153.3 143.5 L 148.0 134.2 L 143.5 124.2 L 139.8 113.6 L 137.0 102.4 L 135.0 90.5 L 134.101416015625 81.13975048065186 L 132.4 89.7 L 128.0 104.5 L 122.3 117.8 L 115.5 129.6 L 107.4 139.8 L 98.1 148.4 L 87.6 155.3 L 76.0 160.4 L 75.3 158.8 L 85.5 152.1 L 94.5 144.4 L 102.3 135.6 L 109.0 125.5 L 114.6 114.2 L 119.2 101.6 L 122.6 87.6 L 124.9 72.2 L 126.1 55.3 L 126.2920000076294 37.82799997329712 L 126.2 34.7 L 138.3 37.0 L 141.3 38.9 L 138.1374405860901 40.860786819458006 L 137.5 56.0 L 137.17694520950317 58.99250717163086 L 137.8 64.6 L 139.7 77.3 L 142.1 89.2 L 145.1 100.3 L 148.7 110.6 L 152.9 120.1 L 157.6 128.8 L 163.0 136.7 L 169.0 143.9 L 175.6 150.4 L 177.2 151.9 L 166.4 159.9 L 159.5 152.0 Z M 94.7 112.0 L 93.3 108.7 L 91.6 105.3 L 89.7 101.9 L 87.7 98.4 L 85.4 94.7 L 82.9 91.0 L 80.3 87.1 L 79.56360063552856 86.14268083572388 L 79.5 86.6 L 76.6 100.4 L 72.7 113.0 L 68.1 124.4 L 62.5 134.4 L 56.0 143.1 L 48.7 150.3 L 40.6 155.9 L 39.5 154.4 L 46.0 147.6 L 51.8 139.8 L 56.8 131.1 L 61.1 121.4 L 64.7 110.5 L 67.5 98.4 L 69.6 85.1 L 70.9 70.6 L 71.5 54.8 L 71.2 37.9 L 71.27053632736207 37.89823656082153 L 71.2 35.5 L 83.2 37.6 L 86.3 39.6 L 83.10958967208862 41.578054428100586 L 82.8 55.2 L 81.6 71.5 L 80.01134004592896 82.92322149276734 L 82.6 84.8 L 86.4 87.8 L 90.0 90.8 L 93.2 93.9 L 96.3 97.1 L 99.1 100.4 L 101.7 103.7 L 104.0 107.0 L 106.1 110.4 L 108.0 113.9 L 107.9 118.4 L 104.7 121.7 L 100.1 121.6 L 96.9 118.3 L 95.9 115.2 Z " />
</g>
</svg>
