<svg xmlns="http://www.w3.org/2000/svg" xmlns:xlink="http://www.w3.org/1999/xlink" version="1.1" baseProfile="full" viewBox="0 0 200 200" width="200" height="200">
<g fill="black">
<path d="M 168.0 31.0 L 168.0 35.0 L 36.0 35.0 L 36.0 167.0 L 157.8181818008423 167.0 L 166.0 158.0 L 176.0 167.0 L 176.0 171.0 L 36.0 171.0 L 36.0 183.0 L 24.0 189.0 L 24.0 25.0 L 36.0 31.0 L 146.0 31.0 L 156.0 21.0 Z M 67.4 107.2 L 145.5 107.2 L 151.0 102.2 L 161.5 111.2 L 156.5 114.7 L 156.5 156.6 L 145.5 162.1 L 145.5 156.6 L 67.4 156.6 L 56.4 162.1 L 56.4 101.7 Z M 67.4 111.2 L 67.4 152.6 L 145.5 152.6 L 145.5 111.2 Z M 89.0 120.2 L 123.9 120.2 L 129.4 115.2 L 139.9 124.2 L 134.9 127.7 L 134.9 142.2 L 123.9 147.7 L 123.9 142.2 L 89.0 142.2 L 78.0 147.7 L 78.0 114.7 Z M 89.0 124.2 L 89.0 138.2 L 123.9 138.2 L 123.9 124.2 Z M 42.1 95.1 L 100.5 95.1 L 100.5 58.5 L 53.8 58.5 L 53.8 54.5 L 100.5 54.5 L 100.5 40.3 L 112.5 42.3 L 115.5 44.3 L 112.5 46.1 L 112.5 54.5 L 136.4 54.5 L 146.4 44.5 L 158.4 54.5 L 158.4 58.5 L 112.5 58.5 L 112.5 95.1 L 154.11818180084228 95.1 L 162.3 86.1 L 172.3 95.1 L 172.3 99.1 L 42.1 99.1 Z M 82.0 86.0 L 81.3 84.7 L 80.4 83.4 L 79.3 82.0 L 78.0 80.6 L 76.5 79.1 L 74.8 77.6 L 73.74956521987914 76.7246376991272 L 71.3 79.9 L 68.4 83.2 L 65.3 86.1 L 61.9 88.6 L 58.2 90.9 L 54.3 92.7 L 50.3 94.3 L 49.4 92.7 L 52.6 90.0 L 55.4 87.1 L 57.9 84.2 L 60.2 81.2 L 62.2 78.2 L 63.9 75.0 L 65.4 71.7 L 66.7 68.3 L 67.8 64.7 L 68.6 60.9 L 68.66430549621582 60.91829376220703 L 69.1 59.3 L 80.2 64.2 L 82.5 66.9 L 78.63657627105712 67.93484563827515 L 78.4 68.5 L 76.3 72.6 L 75.33822135925293 74.18902549743652 L 76.3 74.3 L 78.7 74.7 L 81.0 75.3 L 83.2 76.0 L 85.4 76.8 L 87.4 77.8 L 89.3 79.0 L 91.1 80.3 L 92.8 81.9 L 93.6 86.4 L 91.0 90.2 L 86.6 91.0 L 82.7 88.5 L 82.4 87.3 Z M 147.6 86.2 L 146.8 84.8 L 145.9 83.4 L 143.5 80.6 L 142.0 79.1 L 140.4 77.6 L 139.4516529083252 76.76322317123413 L 136.9 80.1 L 134.1 83.2 L 131.0 85.9 L 127.6 88.3 L 124.0 90.4 L 120.1 92.1 L 116.2 93.6 L 115.3 91.9 L 118.5 89.5 L 121.3 86.7 L 123.8 83.9 L 126.0 81.1 L 127.9 78.2 L 129.6 75.2 L 131.0 72.0 L 132.1 68.8 L 133.0 65.3 L 133.51931257247924 62.7034369468689 L 133.5 62.7 L 133.5777777671814 62.41111106872559 L 133.7 61.8 L 133.73955364227294 61.81022939682007 L 134.2 60.1 L 145.3 64.8 L 147.7 67.5 L 143.8526717185974 68.59923667907715 L 143.7 69.0 L 141.7 73.0 L 140.97296133041382 74.22274675369263 L 141.9 74.3 L 144.3 74.7 L 146.5 75.3 L 148.7 76.0 L 150.8 76.9 L 152.8 77.8 L 154.8 79.0 L 156.6 80.3 L 158.3 81.7 L 159.4 86.1 L 157.1 90.1 L 152.6 91.1 L 148.7 88.8 L 148.2 87.5 Z " />
</g>
</svg>
