<svg xmlns="http://www.w3.org/2000/svg" xmlns:xlink="http://www.w3.org/1999/xlink" version="1.1" baseProfile="full" viewBox="0 0 200 200" width="200" height="200">
<g fill="black">
<path d="M 168.0 31.0 L 168.0 35.0 L 36.0 35.0 L 36.0 167.0 L 154.0 167.0 L 164.0 157.0 L 176.0 167.0 L 176.0 171.0 L 36.0 171.0 L 36.0 183.0 L 24.0 189.0 L 24.0 25.0 L 36.0 31.0 L 146.0 31.0 L 156.0 21.0 Z M 112.0 50.0 L 115.0 52.0 L 112.0 53.8 L 112.0 89.5 L 143.8 89.5 L 143.8 56.6 L 155.8 58.6 L 158.8 60.6 L 155.8 62.4 L 155.8 93.5 L 143.8 99.5 L 143.8 93.5 L 112.0 93.5 L 112.0 139.3 L 150.3 139.3 L 150.3 104.6 L 162.3 106.6 L 165.3 108.6 L 162.3 110.4 L 162.3 147.3 L 150.3 153.3 L 150.3 143.3 L 61.6 143.3 L 61.6 150.3 L 49.6 156.3 L 49.6 104.6 L 61.6 106.6 L 64.6 108.6 L 61.6 110.4 L 61.6 139.3 L 100.0 139.3 L 100.0 93.5 L 68.2 93.5 L 56.2 99.5 L 56.2 56.6 L 68.2 58.6 L 71.2 60.6 L 68.2 62.4 L 68.2 89.5 L 100.0 89.5 L 100.0 48.0 Z " />
</g>
</svg>
