<svg xmlns="http://www.w3.org/2000/svg" xmlns:xlink="http://www.w3.org/1999/xlink" version="1.1" baseProfile="full" viewBox="0 0 200 200" width="200" height="200">
<g fill="black">
<path d="M 171.0 23.0 L 171.0 27.0 L 34.0 27.0 L 34.0 167.0 L 158.0 167.0 L 168.0 157.0 L 180.0 167.0 L 180.0 171.0 L 34.0 171.0 L 34.0 183.0 L 22.0 189.0 L 22.0 17.0 L 34.0 23.0 L 149.0 23.0 L 159.0 13.0 Z M 78.8 54.3 L 78.4 52.4 L 77.9 50.3 L 77.1 48.2 L 76.1 46.0 L 75.0 43.7 L 73.6 41.4 L 72.1 38.9 L 70.1 36.8 L 71.3 35.4 L 73.8 37.1 L 76.4 38.6 L 78.8 40.3 L 81.1 42.1 L 83.2 44.0 L 85.1 46.0 L 86.8 48.2 L 88.3 50.5 L 89.7 52.9 L 90.8 55.5 L 90.0 59.9 L 86.5740740776062 62.4 L 115.88181819915772 62.4 L 115.5 62.1 L 117.5 59.0 L 119.1 55.8 L 120.7 52.7 L 122.3 49.7 L 123.8 46.8 L 126.6 41.2 L 127.9 38.5 L 129.1 35.8 L 129.79873189926147 34.148451805114746 L 129.7 34.1 L 130.12465753555298 33.37808218002319 L 130.2 33.2 L 130.22172079086303 33.213074684143066 L 130.7 32.4 L 140.5 39.4 L 142.1 42.6 L 137.9043478012085 42.6 L 136.6 44.1 L 134.5 46.5 L 132.3 48.9 L 130.0 51.3 L 127.6 53.7 L 125.1 56.1 L 122.4 58.5 L 119.6 60.7 L 117.76400003433227 62.4 L 142.1 62.4 L 152.1 52.4 L 164.1 62.4 L 164.1 66.4 L 110.5 66.4 L 110.5 91.1 L 136.6 91.1 L 146.6 81.1 L 158.6 91.1 L 158.6 95.1 L 110.5 95.1 L 110.5 119.2 L 148.4 119.2 L 158.4 109.2 L 170.4 119.2 L 170.4 123.2 L 110.5 123.2 L 110.5 157.6 L 98.5 163.6 L 98.5 123.2 L 38.5 123.2 L 38.5 119.2 L 98.5 119.2 L 98.5 95.1 L 50.3 95.1 L 50.3 91.1 L 98.5 91.1 L 98.5 66.4 L 44.8 66.4 L 44.8 62.4 L 85.175 62.4 L 81.8 61.8 L 79.1 58.1 L 79.0 56.2 Z " />
</g>
</svg>
