<svg xmlns="http://www.w3.org/2000/svg" xmlns:xlink="http://www.w3.org/1999/xlink" version="1.1" baseProfile="full" viewBox="0 0 200 200" width="200" height="200">
<g fill="black">
<path d="M 170.0 149.3 L 172.0 149.3 L 170.0 174.3 L 173.6 176.7 L 176.0 180.3 L 173.6 183.9 L 170.0 186.3 L 65.0 186.3 L 62.4 186.1 L 59.9 185.7 L 57.5 184.9 L 55.2 183.7 L 53.2 182.0 L 51.6 180.0 L 50.3 177.7 L 49.5 175.3 L 49.1 172.8 L 49.0 170.3 L 49.0 128.5 L 61.0 130.5 L 64.0 132.5 L 61.0 134.3 L 61.0 153.75 L 64.0 153.0 L 73.2 150.9 L 82.4 148.9 L 91.5 147.0 L 100.6 145.2 L 109.6 143.4 L 127.4 139.8 L 144.0011074066162 136.4043189048767 L 144.0 136.4 L 144.00440273284912 136.40364484786988 L 145.0 136.2 L 145.2006721496582 137.39399900436402 L 156.2 146.5 L 156.6 149.5 L 152.08977851867675 147.2148211479187 L 147.0 148.1 L 138.1 149.3 L 120.1 151.5 L 111.0 152.6 L 101.9 153.6 L 92.6 154.5 L 83.4 155.4 L 74.0 156.2 L 64.6 156.8 L 61.0 156.9136841773987 L 61.0 171.5 L 61.2 172.4 L 61.5 173.3 L 61.9 173.7 L 62.2 173.9 L 62.8 174.0 L 63.7 174.2 L 65.0 174.3 L 164.0 174.3 Z M 13.1 136.9 L 13.6 132.3 L 17.1 129.4 L 19.2 129.1 L 21.0 128.7 L 22.6 128.2 L 24.1 127.5 L 25.4 126.7 L 26.7 125.5 L 27.9 124.0 L 29.0 122.2 L 29.9 120.0 L 30.1 117.4 L 31.9 117.3 L 32.2 120.1 L 32.25555553436279 120.4 L 94.0 120.4 L 94.0 107.2 L 106.0 109.2 L 109.0 111.2 L 106.0 113.0 L 106.0 120.4 L 170.0 120.4 L 170.35172414779663 120.10689659118653 L 171.3 118.9 L 172.2 117.7 L 172.61533546447754 118.22055377960206 L 176.0 115.4 L 187.0 124.4 L 182.0 127.4 L 170.0 132.4 L 170.0 131.06086959838868 L 169.9 131.1 L 167.5 132.0 L 165.0 132.9 L 162.2 133.8 L 159.3 134.6 L 156.4 136.0 L 155.5 134.4 L 158.1 132.6 L 160.3 130.5 L 164.2 126.6 L 166.0 124.9 L 166.5 124.4 L 32.7 124.4 L 32.7 125.5 L 32.3 128.2 L 31.4 130.8 L 30.1 133.2 L 28.3 135.5 L 26.1 137.6 L 23.5 139.4 L 20.5 140.9 L 16.0 140.4 Z M 171.0 23.5 L 171.0 27.5 L 34.0 27.5 L 34.0 101.7 L 161.8181818008423 101.7 L 170.0 92.7 L 180.0 101.7 L 180.0 105.7 L 34.0 105.7 L 22.0 111.7 L 22.0 17.5 L 34.0 23.5 L 149.0 23.5 L 159.0 13.5 Z M 128.9 67.9 L 140.2 67.9 L 141.1 67.7 L 142.0 67.4 L 142.2 67.2 L 142.3 67.0 L 142.5 66.7 L 142.7 66.1 L 142.9 65.2 L 142.9 46.774650478363036 L 113.2 51.369431495666504 L 113.2 77.5 L 101.2 83.5 L 101.2 53.22590866088867 L 74.5 57.35657033920288 L 74.5 80.9 L 74.4 82.2 L 74.4 83.2 L 74.5 83.8 L 74.5 84.3 L 74.9 85.1 L 75.3 85.5 L 76.0 85.9 L 77.1 86.2 L 78.5 86.4 L 160.8 86.4 L 165.3 73.4 L 167.3 73.4 L 165.3 86.4 L 168.0 88.2 L 169.8 90.9 L 168.0 93.6 L 165.3 95.4 L 78.5 95.4 L 76.0 95.5 L 73.7 95.2 L 71.4 94.6 L 69.2 93.6 L 67.2 92.1 L 65.6 90.3 L 64.3 88.2 L 63.3 85.9 L 62.7 83.5 L 62.5 80.9 L 62.5 59.21304750442505 L 41.9 62.4 L 41.3 58.5 L 62.5 55.22022371292114 L 62.5 35.9 L 74.5 37.9 L 77.5 39.9 L 74.5 41.7 L 74.5 53.36374654769897 L 101.2 49.233084774017335 L 101.2 29.3 L 113.2 31.3 L 116.2 33.3 L 113.2 35.1 L 113.2 47.37660760879517 L 142.9 42.781826686859134 L 142.9 41.8 L 148.9 36.8 L 159.9 45.8 L 154.9 49.8 L 154.9 63.9 L 154.8 66.5 L 154.3 69.0 L 153.5 71.4 L 152.3 73.7 L 150.7 75.7 L 148.6 77.3 L 146.4 78.6 L 144.0 79.4 L 141.5 79.8 L 138.9 79.9 L 138.9 73.9 L 128.9 70.9 Z " />
</g>
</svg>
