<svg xmlns="http://www.w3.org/2000/svg" xmlns:xlink="http://www.w3.org/1999/xlink" version="1.1" baseProfile="full" viewBox="0 0 200 200" width="200" height="200">
<g fill="black">
<path d="M 171.0 23.0 L 171.0 27.0 L 34.0 27.0 L 34.0 168.0 L 158.0 168.0 L 168.0 158.0 L 180.0 168.0 L 180.0 172.0 L 34.0 172.0 L 34.0 184.0 L 22.0 190.0 L 22.0 17.0 L 34.0 23.0 L 149.0 23.0 L 159.0 13.0 Z M 42.3 150.1 L 101.5 150.1 L 101.5 136.2 L 58.6 136.2 L 58.6 132.2 L 101.5 132.2 L 101.5 118.3 L 50.4 118.3 L 50.4 114.3 L 101.5 114.3 L 101.5 102.6 L 68.6 102.6 L 56.6 108.6 L 56.6 72.6 L 68.6 78.6 L 101.5 78.6 L 101.5 66.1 L 89.0 66.1 L 77.0 72.1 L 77.0 50.4 L 42.3 50.4 L 42.3 46.4 L 77.0 46.4 L 77.0 31.7 L 89.0 33.7 L 92.0 35.7 L 89.0 37.5 L 89.0 46.4 L 125.9 46.4 L 125.9 31.7 L 137.9 33.7 L 140.9 35.7 L 137.9 37.5 L 137.9 46.4 L 154.51818180084229 46.4 L 162.7 37.4 L 172.7 46.4 L 172.7 50.4 L 137.9 50.4 L 137.9 66.1 L 125.9 72.1 L 125.9 66.1 L 113.5 66.1 L 113.5 78.6 L 146.3 78.6 L 152.3 73.6 L 163.3 82.6 L 158.3 86.6 L 158.3 102.6 L 146.3 108.6 L 146.3 102.6 L 113.5 102.6 L 113.5 114.3 L 146.3181818008423 114.3 L 154.5 105.3 L 164.5 114.3 L 164.5 118.3 L 113.5 118.3 L 113.5 132.2 L 138.21818180084227 132.2 L 146.4 123.2 L 156.4 132.2 L 156.4 136.2 L 113.5 136.2 L 113.5 150.1 L 154.51818180084229 150.1 L 162.7 141.1 L 172.7 150.1 L 172.7 154.1 L 42.3 154.1 Z M 68.6 82.6 L 68.6 98.6 L 101.5 98.6 L 101.5 82.6 Z M 113.5 82.6 L 113.5 98.6 L 146.3 98.6 L 146.3 82.6 Z M 89.0 50.4 L 89.0 62.1 L 125.9 62.1 L 125.9 50.4 Z " />
</g>
</svg>
