<svg xmlns="http://www.w3.org/2000/svg" xmlns:xlink="http://www.w3.org/1999/xlink" version="1.1" baseProfile="full" viewBox="0 0 200 200" width="200" height="200">
<g fill="black">
<path d="M 168.0 31.0 L 168.0 35.0 L 36.0 35.0 L 36.0 167.0 L 154.0 167.0 L 164.0 157.0 L 176.0 167.0 L 176.0 171.0 L 36.0 171.0 L 36.0 183.0 L 24.0 189.0 L 24.0 25.0 L 36.0 31.0 L 146.0 31.0 L 156.0 21.0 Z M 48.5 136.5 L 95.0 136.5 L 95.0 88.1 L 56.4 88.1 L 56.4 84.1 L 95.0 84.1 L 95.0 47.1 L 107.0 49.1 L 110.0 51.1 L 107.0 52.9 L 107.0 84.1 L 123.5 84.1 L 133.5 74.1 L 145.5 84.1 L 145.5 88.1 L 107.0 88.1 L 107.0 136.5 L 131.4 136.5 L 141.4 126.5 L 153.4 136.5 L 153.4 140.5 L 48.5 140.5 Z " />
</g>
</svg>
