<svg xmlns="http://www.w3.org/2000/svg" xmlns:xlink="http://www.w3.org/1999/xlink" version="1.1" baseProfile="full" viewBox="0 0 200 200" width="200" height="200">
<g fill="black">
<path d="M 168.0 31.0 L 168.0 35.0 L 36.0 35.0 L 36.0 167.0 L 154.0 167.0 L 164.0 157.0 L 176.0 167.0 L 176.0 171.0 L 36.0 171.0 L 36.0 183.0 L 24.0 189.0 L 24.0 25.0 L 36.0 31.0 L 149.8181818008423 31.0 L 158.0 22.0 Z M 58.9 162.6 L 54.9 160.5 L 53.4 156.1 L 54.0 151.5 L 54.2 147.2 L 54.0 143.4 L 53.5 139.9 L 52.7 136.8 L 51.62433156967163 134.20046787261964 L 50.5 133.9 L 50.9169095993042 132.95247812271117 L 49.9 131.3 L 47.9 128.8 L 45.3 126.5 L 42.1 124.5 L 42.6 122.8 L 46.6 123.8 L 50.5 125.1 L 53.78409090042114 127.03181819915771 L 55.0 124.6 L 57.4 120.1 L 60.2 114.7 L 63.4 108.6 L 67.2 101.6 L 71.5 93.9 L 76.3 85.4 L 81.8 76.1 L 83.5 76.9 L 79.8 87.0 L 76.3 96.1 L 73.2 104.4 L 70.3 111.7 L 67.9 118.2 L 65.9 123.8 L 64.3 128.5 L 63.1 132.3 L 62.4 135.2 L 62.1 137.0 L 61.74957399368286 136.90635166168212 L 61.8 137.0 L 63.5 141.4 L 64.6 146.2 L 65.2 151.4 L 65.4 157.1 L 63.3 161.1 Z M 132.6 141.5 L 141.9 141.5 L 142.8 141.3 L 143.4 141.1 L 143.7 140.9 L 143.9 140.8 L 144.0 140.6 L 144.2 140.3 L 144.4 139.7 L 144.6 138.8 L 144.6 116.9 L 128.7 116.9 L 128.7 158.7 L 116.7 164.7 L 116.7 116.9 L 101.6 116.9 L 101.6 145.9 L 89.6 151.9 L 89.6 111.74285717010498 L 88.6 113.6 L 84.5 115.6 L 80.1 114.3 L 78.1 110.2 L 79.4 105.9 L 80.8 104.7 L 82.1 103.5 L 83.3 102.2 L 84.3 100.7 L 85.2 99.1 L 86.0 97.4 L 86.6 95.4 L 87.1 93.2 L 87.4 90.8 L 87.1 88.4 L 88.8 87.9 L 89.6 90.4 L 90.8 92.8 L 90.86400003433228 93.0 L 153.4 93.0 L 154.08571424484253 92.42857141494751 L 154.2 92.0 L 154.43798627853394 92.13501148223877 L 159.4 88.0 L 170.4 97.0 L 165.4 100.0 L 160.27272729873658 102.13636360168456 L 160.2 102.2 L 158.6 103.5 L 156.8 104.9 L 154.9 106.3 L 152.9 107.6 L 151.4306122779846 108.57959184646606 L 161.6 116.9 L 156.6 120.9 L 156.6 137.5 L 156.5 140.1 L 156.1 142.6 L 155.2 145.0 L 154.0 147.2 L 152.4 149.3 L 150.4 150.9 L 148.1 152.1 L 145.7 152.9 L 143.2 153.4 L 140.6 153.5 L 140.6 147.5 L 132.6 144.5 Z M 91.93999996185303 97.0 L 92.1 97.8 L 92.4 100.4 L 92.2 103.1 L 91.8 105.8 L 91.27796611785888 107.73898305892945 L 101.6 112.9 L 116.7 112.9 L 116.7 98.2 L 128.7 100.2 L 131.7 102.2 L 128.7 104.0 L 128.7 112.9 L 144.6 112.9 L 146.12727270126342 111.62727270126342 L 145.2 110.7 L 146.9 108.7 L 148.1 106.4 L 149.3 104.3 L 150.3 102.2 L 151.2 100.3 L 152.1 98.5 L 152.6833333015442 97.0 Z M 54.1 88.8 L 53.4 87.4 L 52.4 86.0 L 51.2 84.5 L 49.7 83.0 L 47.9 81.4 L 45.9 79.8 L 43.6 78.1 L 40.9 77.0 L 41.5 75.3 L 44.4 76.0 L 47.3 76.4 L 50.1 76.9 L 52.7 77.6 L 55.1 78.4 L 57.4 79.4 L 59.6 80.5 L 61.6 81.8 L 63.5 83.4 L 65.2 85.1 L 65.7 89.7 L 63.0 93.3 L 58.4 93.9 L 54.8 91.1 L 54.6 90.0 Z M 157.6 49.4 L 152.6 53.4 L 152.6 61.7 L 157.7 61.7 L 162.2 55.7 L 168.2 61.7 L 168.2 65.7 L 152.6 65.7 L 152.6 82.1 L 140.6 88.1 L 140.6 82.1 L 94.0 82.1 L 94.0 78.1 L 140.6 78.1 L 140.6 65.7 L 83.6 65.7 L 83.6 61.7 L 140.6 61.7 L 140.6 49.4 L 94.0 49.4 L 94.0 45.4 L 140.6 45.4 L 146.6 40.4 Z M 64.2 56.2 L 63.5 54.8 L 62.5 53.3 L 61.3 51.8 L 59.9 50.3 L 58.2 48.7 L 56.3 47.1 L 54.3 45.5 L 51.8 44.3 L 52.4 42.6 L 55.1 43.4 L 57.9 43.7 L 60.5 44.3 L 63.0 45.0 L 65.3 45.8 L 67.6 46.8 L 69.7 47.9 L 71.7 49.2 L 73.5 50.7 L 75.2 52.3 L 76.0 56.8 L 73.4 60.6 L 68.9 61.3 L 65.1 58.7 L 64.8 57.5 Z " />
</g>
</svg>
