<svg xmlns="http://www.w3.org/2000/svg" xmlns:xlink="http://www.w3.org/1999/xlink" version="1.1" baseProfile="full" viewBox="0 0 200 200" width="200" height="200">
<g fill="black">
<path d="M 168.0 31.0 L 168.0 35.0 L 36.0 35.0 L 36.0 167.0 L 154.0 167.0 L 164.0 157.0 L 176.0 167.0 L 176.0 171.0 L 36.0 171.0 L 36.0 183.0 L 24.0 189.0 L 24.0 25.0 L 36.0 31.0 L 146.0 31.0 L 156.0 21.0 Z M 63.5 104.5 L 86.7 104.5 L 92.7 99.5 L 103.7 108.5 L 98.7 112.5 L 98.7 150.9 L 86.7 156.9 L 86.7 146.9 L 63.5 146.9 L 63.5 153.9 L 51.5 159.9 L 51.5 98.5 Z M 125.6 146.0 L 145.6 146.0 L 146.8 145.9 L 147.7 145.8 L 148.3 145.6 L 148.6 145.4 L 148.8 145.2 L 149.0 145.1 L 149.1 144.7 L 149.3 144.1 L 149.5 143.2 L 149.6 142.0 L 149.6 52.9 L 100.4 52.9 L 100.4 48.9 L 149.6 48.9 L 155.6 43.9 L 166.6 52.9 L 161.6 56.9 L 161.6 142.0 L 161.4 144.5 L 161.0 147.0 L 160.2 149.4 L 159.0 151.7 L 157.3 153.7 L 155.3 155.4 L 153.0 156.6 L 150.6 157.4 L 148.1 157.8 L 145.6 158.0 L 145.6 152.0 L 125.6 149.0 Z M 63.5 108.5 L 63.5 142.9 L 86.7 142.9 L 86.7 108.5 Z M 92.5 84.6 L 92.16287622451782 83.3264214515686 L 90.9 83.8 L 85.5 85.6 L 80.3 87.3 L 75.3 88.7 L 70.6 90.1 L 66.1 91.3 L 61.8 92.4 L 57.8 93.5 L 54.528982162475586 94.27471475601196 L 52.8 97.9 L 50.4 95.3 L 46.7 83.7 L 48.7 83.4 L 52.3 83.2 L 56.1 82.9 L 57.35597906112671 82.80809907913208 L 57.4 82.6 L 58.6 77.5 L 59.8 72.6 L 61.0 67.9 L 63.2 58.7 L 64.2 54.3 L 65.1 50.0 L 65.9 45.8 L 66.4412857055664 42.70693874359131 L 66.4 42.7 L 66.5307692527771 42.19560441970825 L 66.6 41.8 L 66.63132066726685 41.80776319503784 L 67.1 40.0 L 78.3 44.7 L 80.7 47.4 L 76.9938775062561 48.52507286071777 L 76.9 48.8 L 75.3 53.0 L 73.7 57.3 L 71.9 61.6 L 70.0 66.0 L 68.0 70.4 L 65.8 74.9 L 63.4 79.4 L 61.627853584289554 82.46717643737793 L 64.5 82.2 L 69.1 81.8 L 74.0 81.4 L 79.1 81.0 L 84.5 80.5 L 90.2 80.2 L 91.28958740234376 80.1445972442627 L 90.6 77.8 L 89.4 74.5 L 88.1 71.2 L 86.7 68.0 L 83.7 61.4 L 81.8 58.2 L 83.1 57.0 L 88.9 62.0 L 91.6 64.8 L 94.1 67.7 L 96.4 70.8 L 98.5 74.0 L 100.5 77.4 L 102.4 80.9 L 104.0 84.5 L 105.6 88.3 L 104.9 92.8 L 101.4 95.7 L 96.9 95.1 L 94.0 91.5 L 93.3 88.0 Z M 147.2 92.1 L 147.2 96.1 L 106.3 96.1 L 106.3 92.1 L 129.01818180084229 92.1 L 137.2 83.1 Z " />
</g>
</svg>
