<svg xmlns="http://www.w3.org/2000/svg" xmlns:xlink="http://www.w3.org/1999/xlink" version="1.1" baseProfile="full" viewBox="0 0 200 200" width="200" height="200">
<g fill="black">
<path d="M 168.0 31.0 L 168.0 35.0 L 36.0 35.0 L 36.0 167.0 L 154.0 167.0 L 164.0 157.0 L 176.0 167.0 L 176.0 171.0 L 36.0 171.0 L 36.0 183.0 L 24.0 189.0 L 24.0 25.0 L 36.0 31.0 L 146.0 31.0 L 156.0 21.0 Z M 127.3 143.1 L 117.4 137.0 L 108.4 130.2 L 104.05546417236329 126.02044649124146 L 97.0 131.9 L 86.9 138.4 L 75.9 144.1 L 63.9 148.7 L 51.0 152.4 L 50.4 150.7 L 62.5 145.2 L 73.4 139.3 L 83.4 132.9 L 92.2 125.9 L 98.36925792694092 120.0431095123291 L 93.5 114.2 L 87.7 105.2 L 82.9 95.5 L 79.3 85.1 L 77.16880731582641 75.0 L 52.6 75.0 L 52.6 71.0 L 98.5 71.0 L 98.5 48.0 L 110.5 50.0 L 113.5 52.0 L 110.5 53.8 L 110.5 71.0 L 134.3 71.0 L 144.3 61.0 L 156.3 71.0 L 156.3 75.0 L 135.69827585220338 75.0 L 132.0 86.0 L 127.1 96.9 L 121.1 106.9 L 114.1 116.1 L 111.079554271698 119.19502458572387 L 114.8 122.2 L 123.3 127.7 L 132.7 132.6 L 142.9 136.9 L 153.9 140.5 L 161.6 142.9 L 150.0 153.0 L 138.2 148.5 Z M 83.2 83.7 L 88.2 92.9 L 93.7 101.3 L 100.0 109.0 L 104.37280445098877 113.31033582687378 L 106.9 110.3 L 112.7 101.5 L 117.5 92.2 L 121.3 82.2 L 123.25652170181274 75.0 L 79.28500003814698 75.0 Z " />
</g>
</svg>
