<svg xmlns="http://www.w3.org/2000/svg" xmlns:xlink="http://www.w3.org/1999/xlink" version="1.1" baseProfile="full" viewBox="0 0 200 200" width="200" height="200">
<g fill="black">
<path d="M 168.0 31.0 L 168.0 35.0 L 36.0 35.0 L 36.0 167.0 L 154.0 167.0 L 164.0 157.0 L 176.0 167.0 L 176.0 171.0 L 36.0 171.0 L 36.0 183.0 L 24.0 189.0 L 24.0 25.0 L 36.0 31.0 L 146.0 31.0 L 156.0 21.0 Z M 65.9 149.8 L 53.9 155.8 L 53.9 73.3 L 65.9 75.3 L 68.9 77.3 L 65.9 79.1 L 65.9 133.8 L 102.5 133.8 L 102.5 50.3 L 114.5 52.3 L 117.5 54.3 L 114.5 56.1 L 114.5 133.8 L 151.0 133.8 L 151.0 73.3 L 163.0 75.3 L 166.0 77.3 L 163.0 79.1 L 163.0 143.8 L 151.0 149.8 L 151.0 137.8 L 65.9 137.8 Z " />
</g>
</svg>
