<svg xmlns="http://www.w3.org/2000/svg" xmlns:xlink="http://www.w3.org/1999/xlink" version="1.1" baseProfile="full" viewBox="0 0 200 200" width="200" height="200">
<g fill="black">
<path d="M 168.0 31.0 L 168.0 35.0 L 35.5 35.0 L 35.5 167.0 L 154.0 167.0 L 164.0 157.0 L 176.0 167.0 L 176.0 171.0 L 35.5 171.0 L 35.5 183.0 L 24.5 188.5 L 24.5 25.5 L 35.5 31.0 L 146.0 31.0 L 156.0 21.0 Z M 135.74285717010497 45.01428575515747 L 136.6 67.3 L 137.85527143478393 78.04512367248535 L 152.69106788635253 76.08355178833008 L 160.21847171783446 66.2175371170044 L 159.6 66.3 L 155.8 63.6 L 155.3 62.1 L 154.6 60.4 L 153.7 58.7 L 152.6 57.0 L 151.3 55.2 L 149.8 53.4 L 148.1 51.6 L 146.2 49.7 L 144.1 47.8 L 141.6 46.3 L 142.4 44.6 L 145.2 45.7 L 148.1 46.4 L 150.8 47.3 L 153.4 48.3 L 155.9 49.5 L 158.2 50.8 L 160.4 52.2 L 162.4 53.8 L 164.4 55.6 L 166.1 57.4 L 166.7 62.0 L 164.1 65.7 L 162.95433073043824 65.85275592803956 L 174.5 73.2 L 175.0 77.2 L 138.32305870056152 82.04938278198242 L 139.1 88.7 L 142.9 105.9 L 144.04931592941284 109.27299222946166 L 145.0 107.1 L 148.2 98.4 L 151.03695650100707 89.51086959838867 L 151.6 87.5 L 162.6 92.7 L 164.8 95.5 L 161.21446170806885 96.33235712051392 L 158.9 102.4 L 154.8 111.4 L 150.4 119.8 L 148.8930233001709 122.18604650497437 L 152.5 129.4 L 157.5 136.6 L 162.2 141.3 L 164.97483444213867 143.24238414764403 L 170.2 120.6 L 172.2 120.6 L 170.2744680404663 145.6319149017334 L 174.4 147.4 L 176.2 151.6 L 174.4 155.7 L 170.2 157.6 L 165.6 156.8 L 160.4 154.6 L 154.5 150.5 L 148.3 144.3 L 142.2 135.6 L 141.11724138259888 133.43448276519774 L 140.4 134.4 L 134.9 140.6 L 129.1 146.0 L 122.8 150.6 L 116.3 154.3 L 109.4 157.0 L 108.6 155.4 L 114.2 151.1 L 119.5 146.4 L 124.5 141.2 L 129.2 135.6 L 133.6 129.3 L 136.5793333053589 124.3586667060852 L 136.4 124.0 L 131.3 109.1 L 127.3 90.7 L 126.45030221939086 83.61918497085571 L 109.2 85.9 L 108.7 81.9 L 125.96998987197875 79.61658191680908 L 124.6 68.2 L 123.63705987930298 42.29691171646118 L 123.6 42.3 L 123.6 38.9 L 135.6 41.3 L 138.6 43.3 Z M 81.0 102.0 L 89.0 102.0 L 90.3 101.9 L 91.2 101.8 L 91.8 101.6 L 92.1 101.4 L 92.3 101.3 L 92.6 100.7 L 92.8 100.1 L 93.0 99.2 L 93.0 80.5 L 79.8 80.5 L 79.8 112.76666669845581 L 81.6 113.5 L 84.4 114.4 L 87.1 115.4 L 89.8 116.7 L 92.4 118.0 L 95.1 119.5 L 97.6 121.1 L 100.2 122.8 L 102.7 124.6 L 105.1 126.5 L 106.7 130.7 L 104.9 135.0 L 100.7 136.6 L 96.5 134.8 L 94.8 132.5 L 93.1 130.3 L 91.4 128.2 L 89.6 126.0 L 87.8 123.9 L 86.0 121.9 L 84.1 119.8 L 82.2 117.8 L 80.2 115.7 L 79.8 115.39090909957886 L 79.8 152.6 L 67.8 158.6 L 67.8 121.71025638580322 L 64.9 125.8 L 61.0 130.8 L 56.8 135.4 L 52.5 139.6 L 48.0 143.3 L 43.3 146.4 L 38.4 148.9 L 37.3 147.5 L 40.8 143.5 L 44.3 139.4 L 47.7 135.1 L 50.9 130.6 L 54.1 125.8 L 57.2 120.6 L 60.1 115.2 L 63.0 109.4 L 65.7 103.3 L 67.8 98.1307692527771 L 67.8 80.5 L 54.0 80.5 L 54.0 108.6 L 43.0 114.1 L 43.0 71.0 L 54.0 76.5 L 67.8 76.5 L 67.8 60.4 L 40.1 60.4 L 40.1 56.4 L 67.8 56.4 L 67.8 38.7 L 79.8 40.7 L 82.8 42.7 L 79.8 44.5 L 79.8 56.4 L 91.51818180084229 56.4 L 99.7 47.4 L 109.7 56.4 L 109.7 60.4 L 79.8 60.4 L 79.8 76.5 L 93.0 76.5 L 99.0 71.5 L 110.0 80.5 L 105.0 84.5 L 105.0 98.0 L 104.9 100.6 L 104.5 103.1 L 103.6 105.5 L 102.4 107.7 L 100.8 109.7 L 98.8 111.4 L 96.5 112.6 L 94.1 113.4 L 91.6 113.9 L 89.0 114.0 L 89.0 108.0 L 81.0 105.0 Z " />
</g>
</svg>
