<svg xmlns="http://www.w3.org/2000/svg" xmlns:xlink="http://www.w3.org/1999/xlink" version="1.1" baseProfile="full" viewBox="0 0 200 200" width="200" height="200">
<g fill="black">
<path d="M 52.7 170.9 L 52.7 127.8 L 64.7 133.8 L 138.2 133.8 L 142.71021671295165 130.0414860725403 L 140.7 129.2 L 140.1 128.0 L 139.2 126.7 L 138.2 125.3 L 136.9 123.9 L 135.4 122.4 L 133.8 120.9 L 132.0 119.4 L 130.0 117.8 L 127.8 116.1 L 125.3 114.9 L 125.50675678253174 114.31418914794922 L 125.0 114.5 L 124.3 112.9 L 126.9 111.2 L 129.3 109.2 L 131.5 107.3 L 133.5 105.5 L 135.4 103.8 L 137.2 102.1 L 138.8 100.5 L 140.01333332061768 99.2 L 108.2 99.2 L 113.2 105.4 L 113.6 109.0 L 109.09397592544556 107.44337348937988 L 107.0 108.3 L 104.7 109.3 L 102.2 110.2 L 99.7 111.0 L 96.9 111.9 L 94.1 112.7 L 91.0 113.4 L 90.3985185623169 113.62814817428588 L 91.7 114.0 L 94.5 114.3 L 97.1 114.8 L 99.7 115.4 L 102.1 116.1 L 106.5 117.7 L 108.6 118.7 L 110.5 119.7 L 112.4 120.9 L 114.0 125.1 L 112.2 129.4 L 108.0 131.0 L 103.8 129.2 L 103.1 128.0 L 102.2 126.7 L 101.2 125.3 L 99.9 123.9 L 98.5 122.4 L 96.8 120.9 L 95.0 119.4 L 93.0 117.8 L 90.8 116.1 L 88.3 114.9 L 88.49391098022461 114.35058546066284 L 88.1 114.5 L 87.3 112.9 L 90.0 111.2 L 92.3 109.2 L 94.5 107.3 L 96.5 105.5 L 98.5 103.8 L 101.8 100.5 L 103.01333332061768 99.2 L 71.2 99.2 L 76.2 105.4 L 76.6 109.0 L 72.09397592544556 107.44337348937988 L 70.0 108.3 L 67.7 109.3 L 65.3 110.2 L 62.7 111.0 L 60.0 111.9 L 57.1 112.7 L 54.1 113.4 L 53.44306573867798 113.64087591171264 L 54.7 114.0 L 57.5 114.3 L 60.2 114.8 L 62.7 115.4 L 65.1 116.1 L 67.4 116.9 L 69.5 117.7 L 71.6 118.7 L 73.5 119.7 L 75.4 120.9 L 77.0 125.1 L 75.3 129.4 L 71.0 131.0 L 66.8 129.2 L 66.1 128.0 L 65.3 126.7 L 64.2 125.3 L 62.9 123.9 L 61.5 122.4 L 59.8 120.9 L 58.0 119.4 L 56.0 117.8 L 53.9 116.1 L 51.3 114.9 L 51.491891860961914 114.35630626678467 L 51.1 114.5 L 50.3 112.9 L 53.0 111.2 L 55.3 109.2 L 57.5 107.3 L 59.6 105.5 L 61.5 103.8 L 66.1 99.2 L 36.4 99.2 L 36.4 172.1 L 161.21818180084227 172.1 L 169.4 163.1 L 179.4 172.1 L 179.4 176.1 L 36.4 176.1 L 36.4 183.1 L 24.4 189.1 L 24.4 89.2 L 36.4 95.2 L 160.0 95.2 L 160.0 21.0 L 135.23225803375243 21.0 L 141.2 28.4 L 141.5 32.0 L 136.99664430618287 30.44429531097412 L 135.0 31.3 L 132.7 32.3 L 130.2 33.2 L 127.6 34.0 L 124.9 34.9 L 122.1 35.7 L 119.0 36.4 L 118.36312847137451 36.63351955413818 L 119.6 37.0 L 122.5 37.3 L 125.1 37.8 L 127.6 38.4 L 130.0 39.1 L 132.3 39.9 L 134.5 40.7 L 138.5 42.7 L 140.3 43.9 L 142.0 48.1 L 140.2 52.4 L 137.28880863189698 53.50902528762818 L 146.2 60.8 L 141.2 64.8 L 141.2 87.9 L 129.2 93.9 L 129.2 87.9 L 55.7 87.9 L 43.7 93.9 L 43.7 50.8 L 55.7 56.8 L 129.2 56.8 L 133.71021671295165 53.04148607254028 L 131.7 52.2 L 131.1 51.0 L 130.2 49.7 L 129.2 48.3 L 127.9 46.9 L 126.4 45.4 L 124.8 43.9 L 123.0 42.4 L 121.0 40.8 L 118.8 39.1 L 116.3 37.9 L 116.50675678253174 37.31418914794922 L 116.0 37.5 L 115.3 35.9 L 117.9 34.2 L 120.3 32.2 L 122.5 30.3 L 124.5 28.5 L 126.4 26.8 L 128.2 25.1 L 129.8 23.5 L 131.2 22.0 L 132.0666666984558 21.0 L 98.23225803375244 21.0 L 104.2 28.4 L 104.6 32.0 L 100.09397592544556 30.443373489379884 L 98.0 31.3 L 95.7 32.3 L 93.2 33.2 L 90.7 34.0 L 87.9 34.9 L 85.1 35.7 L 82.0 36.4 L 81.3985185623169 36.62814817428589 L 82.7 37.0 L 85.5 37.3 L 88.1 37.8 L 90.7 38.4 L 93.1 39.1 L 97.5 40.7 L 99.6 41.7 L 101.5 42.7 L 103.4 43.9 L 105.0 48.1 L 103.2 52.4 L 99.0 54.0 L 94.8 52.2 L 94.1 51.0 L 93.2 49.7 L 92.2 48.3 L 90.9 46.9 L 89.5 45.4 L 87.8 43.9 L 86.0 42.4 L 84.0 40.8 L 81.8 39.1 L 79.3 37.9 L 79.49391098022461 37.35058546066284 L 79.1 37.5 L 78.3 35.9 L 81.0 34.2 L 83.3 32.2 L 85.5 30.3 L 87.5 28.5 L 89.5 26.8 L 92.8 23.5 L 94.2 22.0 L 95.0666666984558 21.0 L 61.232258033752444 21.0 L 67.2 28.4 L 67.6 32.0 L 63.093975925445555 30.443373489379884 L 61.0 31.3 L 58.7 32.3 L 56.3 33.2 L 53.7 34.0 L 51.0 34.9 L 48.1 35.7 L 45.1 36.4 L 44.44306573867798 36.64087591171265 L 45.7 37.0 L 48.5 37.3 L 51.2 37.8 L 53.7 38.4 L 56.1 39.1 L 58.4 39.9 L 60.5 40.7 L 62.6 41.7 L 64.5 42.7 L 66.4 43.9 L 68.0 48.1 L 66.3 52.4 L 62.0 54.0 L 57.8 52.2 L 57.1 51.0 L 56.3 49.7 L 55.2 48.3 L 53.9 46.9 L 52.5 45.4 L 50.8 43.9 L 49.0 42.4 L 47.0 40.8 L 44.9 39.1 L 42.3 37.9 L 42.491891860961914 37.35630626678467 L 42.1 37.5 L 41.3 35.9 L 44.0 34.2 L 46.3 32.2 L 48.5 30.3 L 50.6 28.5 L 52.5 26.8 L 57.3 22.0 L 58.1 21.0 L 25.0 21.0 L 25.0 17.0 L 160.0 17.0 L 160.0 11.3 L 172.0 13.3 L 175.0 15.3 L 172.0 17.1 L 172.0 101.5 L 160.0 107.5 L 160.0 99.2 L 145.2 99.2 L 150.2 105.4 L 150.5 109.0 L 145.99664430618287 107.44429531097413 L 144.0 108.3 L 141.7 109.3 L 139.2 110.2 L 136.6 111.0 L 133.9 111.9 L 131.1 112.7 L 128.0 113.4 L 127.36312847137451 113.63351955413819 L 128.6 114.0 L 131.5 114.3 L 134.1 114.8 L 136.6 115.4 L 139.0 116.1 L 141.3 116.9 L 143.5 117.7 L 147.5 119.7 L 149.3 120.9 L 151.0 125.1 L 149.2 129.4 L 146.28880863189698 130.50902528762816 L 155.2 137.8 L 150.2 141.8 L 150.2 164.9 L 138.2 170.9 L 138.2 164.9 L 64.7 164.9 Z M 64.7 151.1 L 64.7 160.9 L 95.5 160.9 L 95.5 151.1 Z M 107.5 151.1 L 107.5 160.9 L 138.2 160.9 L 138.2 151.1 Z M 64.7 137.8 L 64.7 147.1 L 95.5 147.1 L 95.5 137.8 Z M 107.5 137.8 L 107.5 147.1 L 138.2 147.1 L 138.2 137.8 Z M 55.7 74.1 L 55.7 83.9 L 86.5 83.9 L 86.5 74.1 Z M 98.5 74.1 L 98.5 83.9 L 129.2 83.9 L 129.2 74.1 Z M 55.7 60.8 L 55.7 70.1 L 86.5 70.1 L 86.5 60.8 Z M 98.5 60.8 L 98.5 70.1 L 129.2 70.1 L 129.2 60.8 Z " />
</g>
</svg>
