<svg xmlns="http://www.w3.org/2000/svg" xmlns:xlink="http://www.w3.org/1999/xlink" version="1.1" baseProfile="full" viewBox="0 0 200 200" width="200" height="200">
<g fill="black">
<path d="M 168.0 31.0 L 168.0 35.0 L 36.0 35.0 L 36.0 167.0 L 154.0 167.0 L 164.0 157.0 L 176.0 167.0 L 176.0 171.0 L 36.0 171.0 L 36.0 183.0 L 24.0 189.0 L 24.0 25.0 L 36.0 31.0 L 146.0 31.0 L 156.0 21.0 Z M 85.6 139.4 L 82.9 135.1 L 80.5 130.7 L 78.2 126.1 L 76.2 121.3 L 76.1 121.0222222328186 L 76.1 151.0 L 64.1 157.0 L 64.1 123.2 L 61.0 128.0 L 57.7 132.6 L 54.2 136.9 L 50.6 140.9 L 46.6 144.6 L 42.5 147.8 L 41.2 146.5 L 43.7 142.1 L 46.3 137.7 L 48.8 133.2 L 51.3 128.6 L 53.7 123.8 L 55.9 118.8 L 58.0 113.7 L 60.1 108.4 L 62.0 102.9 L 62.50540542602539 101.2 L 42.2 101.2 L 42.2 97.2 L 64.1 97.2 L 64.1 57.3625 L 60.7 58.0 L 55.9 58.6 L 50.9 58.9 L 45.8 59.0 L 45.5 57.2 L 50.2 55.5 L 54.7 53.7 L 59.0 51.9 L 63.2 50.1 L 64.1 49.67250003814697 L 64.1 49.2 L 65.09473686218261 49.2 L 67.2 48.2 L 71.1 46.2 L 74.8 44.1 L 78.3 41.9 L 81.7 39.6 L 84.9 37.2 L 88.50607957839966 42.58220834732056 L 92.3 46.7 L 92.4 50.2 L 88.80826749801636 48.69800281524658 L 87.5 49.4 L 83.4 51.3 L 79.1 53.1 L 76.1 54.12272729873657 L 76.1 97.2 L 79.51818180084229 97.2 L 87.7 88.2 L 97.7 97.2 L 97.7 101.2 L 76.1 101.2 L 76.1 105.46428575515748 L 78.3 109.0 L 80.9 113.3 L 83.6 117.5 L 86.3 121.4 L 89.1 125.2 L 92.0 128.8 L 94.9 132.3 L 98.0 135.5 L 101.2 138.5 L 102.2 139.6 L 91.5 147.5 L 88.4 143.5 Z M 98.2 153.4 L 96.5 149.1 L 98.3 144.9 L 99.1 144.5 L 100.1 143.7 L 101.1 142.4 L 102.2 140.6 L 103.2 138.3 L 104.1 135.6 L 105.0 132.5 L 105.8 129.0 L 106.6 125.0 L 106.9 120.8 L 108.7 120.7 L 109.2 125.0 L 109.9 129.1 L 110.4 132.8 L 110.6 136.4 L 110.6 139.7 L 110.4 142.8 L 110.0 145.7 L 109.3 148.4 L 108.2 151.0 L 106.7 153.4 L 102.4 155.1 Z M 117.8 138.4 L 118.0 136.3 L 118.2 134.1 L 118.2 127.3 L 118.0 125.0 L 117.9 122.6 L 117.1 120.3 L 118.8 119.6 L 120.0 121.7 L 121.6 123.6 L 123.0 125.7 L 124.3 127.9 L 125.4 130.2 L 126.4 132.6 L 127.3 135.0 L 128.0 137.6 L 128.6 140.1 L 129.1 142.8 L 127.3 147.0 L 123.1 148.8 L 118.9 147.0 L 117.1 142.8 L 117.5 140.6 Z M 171.1 150.3 L 169.6 152.2 L 167.8 153.9 L 165.8 155.4 L 163.7 156.6 L 161.4 157.5 L 159.0 158.1 L 156.5 158.5 L 154.0 158.6 L 154.0 152.6 L 136.0 149.6 L 136.0 146.6 L 155.4 146.6 L 156.6 146.4 L 157.6 146.1 L 158.5 145.7 L 159.3 145.3 L 160.0 144.8 L 160.7 144.1 L 161.4 143.3 L 162.1 142.3 L 162.7 141.0 L 163.0 140.0 L 163.5 138.4 L 163.9 136.1 L 164.3 133.3 L 164.7 129.9 L 164.9 126.1 L 165.2 121.8 L 165.3 117.0 L 165.4 111.8 L 165.46551723480223 108.0 L 118.4 108.0 L 106.4 114.0 L 106.4 40.5 L 118.4 46.5 L 151.9181818008423 46.5 L 160.1 37.5 L 170.1 46.5 L 170.1 50.5 L 144.5 50.5 L 144.5 65.7 L 148.21818180084227 65.7 L 156.4 56.7 L 166.4 65.7 L 166.4 69.7 L 144.5 69.7 L 144.5 84.9 L 148.21818180084227 84.9 L 156.4 75.9 L 166.4 84.9 L 166.4 88.9 L 144.5 88.9 L 144.5 104.0 L 165.5 104.0 L 171.5 99.0 L 182.5 108.0 L 177.5 111.0 L 177.4146514892578 111.03556184768676 L 177.4 111.9 L 177.3 117.3 L 177.2 122.3 L 176.9 126.9 L 176.6 131.0 L 176.2 134.7 L 175.8 138.0 L 175.2 141.0 L 174.5 143.6 L 173.6 146.0 L 172.5 148.2 Z M 133.0 133.9 L 133.0 131.7 L 132.8 129.6 L 132.6 127.6 L 132.3 125.5 L 131.5 121.5 L 131.0 119.4 L 130.0 117.7 L 131.4 116.5 L 132.9 118.1 L 134.7 119.5 L 136.3 121.1 L 137.9 122.9 L 139.3 124.8 L 140.6 126.9 L 141.8 129.1 L 143.0 131.4 L 144.0 133.9 L 144.9 136.4 L 143.7 140.8 L 139.8 143.3 L 135.4 142.1 L 133.0 138.2 L 133.1 136.0 Z M 149.0 129.4 L 148.8 127.8 L 148.6 126.1 L 148.2 124.5 L 147.8 122.8 L 146.6 119.4 L 145.9 117.6 L 144.7 116.3 L 145.8 114.9 L 147.4 116.1 L 149.2 117.0 L 151.0 118.1 L 152.7 119.3 L 154.3 120.7 L 155.8 122.3 L 157.1 123.9 L 158.4 125.7 L 159.6 127.7 L 160.7 129.7 L 160.0 134.2 L 156.4 137.0 L 151.9 136.4 L 149.1 132.8 L 149.1 131.1 Z M 118.4 88.9 L 118.4 104.0 L 132.5 104.0 L 132.5 88.9 Z M 52.1 83.2 L 52.1 81.0 L 52.0 78.7 L 51.9 76.5 L 51.3 72.1 L 50.9 69.9 L 50.5 67.6 L 49.6 65.6 L 51.1 64.6 L 52.5 66.4 L 54.3 68.1 L 56.0 70.0 L 57.5 72.0 L 58.8 74.2 L 60.1 76.5 L 61.2 78.9 L 62.2 81.4 L 63.0 84.0 L 63.7 86.8 L 62.3 91.1 L 58.3 93.3 L 54.0 91.8 L 51.8 87.8 L 52.0 85.5 Z M 93.7 63.7 L 96.3 66.2 L 92.23913040161133 67.67667980194092 L 91.7 69.0 L 90.5 71.7 L 89.3 74.5 L 86.5 80.1 L 84.9 83.0 L 83.2 85.9 L 81.2 88.9 L 79.6 92.0 L 77.9 91.3 L 78.8 87.9 L 79.2 84.5 L 79.7 81.2 L 80.7 75.0 L 81.0 72.1 L 81.4 69.2 L 81.8 63.8 L 81.91888113021851 62.31398601531983 L 81.8 62.3 L 82.3 59.5 Z M 118.4 69.7 L 118.4 84.9 L 132.5 84.9 L 132.5 69.7 Z M 118.4 50.5 L 118.4 65.7 L 132.5 65.7 L 132.5 50.5 Z " />
</g>
</svg>
