<svg xmlns="http://www.w3.org/2000/svg" xmlns:xlink="http://www.w3.org/1999/xlink" version="1.1" baseProfile="full" viewBox="0 0 200 200" width="200" height="200">
<g fill="black">
<path d="M 41.4 183.8 L 38.9 183.4 L 36.5 182.6 L 34.2 181.3 L 32.2 179.7 L 30.6 177.7 L 29.3 175.4 L 28.5 173.0 L 28.1 170.5 L 28.0 168.0 L 28.0 30.0 L 12.0 30.0 L 12.0 26.0 L 166.0 26.0 L 176.0 16.0 L 188.0 26.0 L 188.0 30.0 L 40.0 30.0 L 40.0 169.2 L 40.2 170.1 L 40.5 171.0 L 40.9 171.4 L 41.8 171.7 L 42.7 171.9 L 44.0 172.0 L 180.0 172.0 L 183.6 174.4 L 186.0 178.0 L 183.6 181.6 L 180.0 184.0 L 44.0 184.0 Z M 157.00704221725465 88.68169012069703 L 167.3 97.2 L 167.7 100.2 L 163.31361207962036 98.09693727493286 L 159.3 99.0 L 150.9 100.6 L 142.1 102.0 L 132.9 103.3 L 123.5 104.5 L 123.5 124.2 L 160.4 124.2 L 170.4 114.2 L 182.4 124.2 L 182.4 128.2 L 123.5 128.2 L 123.5 164.1 L 111.5 170.1 L 111.5 128.2 L 52.5 128.2 L 52.5 124.2 L 111.5 124.2 L 111.5 105.68712873458863 L 103.5 106.4 L 93.0 107.2 L 82.1 107.7 L 70.9 108.0 L 59.4 108.0 L 59.2 106.2 L 70.6 104.2 L 81.6 102.4 L 92.2 100.6 L 102.5 98.9 L 112.5 97.1 L 122.0 95.3 L 131.2 93.4 L 140.1 91.5 L 148.5 89.4 L 156.7 87.3 Z M 51.0 80.7 L 76.7 80.7 L 76.7 46.7 L 88.7 48.7 L 91.7 50.7 L 88.7 52.5 L 88.7 80.7 L 111.5 80.7 L 111.5 36.4 L 123.5 38.4 L 126.5 40.4 L 123.5 42.2 L 123.5 56.6 L 151.3 56.6 L 161.3 46.6 L 173.3 56.6 L 173.3 60.6 L 123.5 60.6 L 123.5 80.7 L 161.9 80.7 L 171.9 70.7 L 183.9 80.7 L 183.9 84.7 L 51.0 84.7 Z " />
</g>
</svg>
