<svg xmlns="http://www.w3.org/2000/svg" xmlns:xlink="http://www.w3.org/1999/xlink" version="1.1" baseProfile="full" viewBox="0 0 200 200" width="200" height="200">
<g fill="black">
<path d="M 47.8 178.1 L 45.3 177.7 L 42.9 176.9 L 40.7 175.7 L 38.6 174.0 L 37.0 172.0 L 35.8 169.7 L 35.0 167.3 L 34.5 164.8 L 34.4 162.3 L 34.4 33.3 L 20.7 33.3 L 20.7 29.3 L 156.2 29.3 L 166.2 19.3 L 178.2 29.3 L 178.2 33.3 L 46.4 33.3 L 46.4 163.5 L 46.6 164.4 L 46.8 165.0 L 47.0 165.3 L 47.1 165.5 L 47.3 165.7 L 47.6 165.9 L 48.2 166.0 L 49.1 166.2 L 50.4 166.3 L 171.1 166.3 L 174.7 168.7 L 177.1 172.3 L 174.7 175.9 L 171.1 178.3 L 50.4 178.3 Z M 117.96100625991821 53.64339618682861 L 117.4 62.9 L 115.4 75.4 L 112.4 87.3 L 109.64404125213623 94.76125411987304 L 112.8 96.2 L 119.2 99.7 L 125.2 103.6 L 130.8 107.8 L 136.1 112.2 L 141.0 116.8 L 145.6 121.7 L 149.8 126.8 L 153.7 132.1 L 157.3 137.6 L 157.7 142.2 L 154.8 145.7 L 150.3 146.1 L 146.7 143.3 L 144.0 138.0 L 141.0 132.9 L 137.7 127.9 L 134.1 123.0 L 130.0 118.1 L 125.7 113.4 L 121.0 108.7 L 116.0 104.1 L 110.7 99.4 L 108.58598794937134 97.62573986053467 L 108.3 98.4 L 103.1 108.9 L 96.9 118.5 L 89.5 127.4 L 81.2 135.5 L 71.8 142.7 L 61.3 148.9 L 60.3 147.4 L 69.4 139.7 L 77.5 131.6 L 84.5 123.2 L 90.6 114.3 L 95.6 104.9 L 99.7 95.0 L 102.7 84.6 L 104.9 73.6 L 106.0 62.0 L 106.2 49.7 L 106.2 47.3 L 118.2 49.7 L 121.2 51.7 Z " />
</g>
</svg>
