<svg xmlns="http://www.w3.org/2000/svg" xmlns:xlink="http://www.w3.org/1999/xlink" version="1.1" baseProfile="full" viewBox="0 0 200 200" width="200" height="200">
<g fill="black">
<path d="M 167.0 26.0 L 167.0 30.0 L 39.0 30.0 L 39.0 164.0 L 145.0 164.0 L 155.0 154.0 L 167.0 164.0 L 167.0 168.0 L 39.0 168.0 L 39.0 180.0 L 27.0 186.0 L 27.0 20.0 L 39.0 26.0 L 145.0 26.0 L 155.0 16.0 Z M 111.0 39.0 L 114.0 41.0 L 111.0 42.8 L 111.0 92.0 L 148.0 92.0 L 158.0 82.0 L 170.0 92.0 L 170.0 96.0 L 111.0 96.0 L 111.0 152.0 L 99.0 158.0 L 99.0 96.0 L 46.0 96.0 L 46.0 92.0 L 99.0 92.0 L 99.0 37.0 Z " />
</g>
</svg>
