<svg xmlns="http://www.w3.org/2000/svg" xmlns:xlink="http://www.w3.org/1999/xlink" version="1.1" baseProfile="full" viewBox="0 0 200 200" width="200" height="200">
<g fill="black">
<path d="M 59.5 112.7 L 58.76875 119.0 L 74.0 119.0 L 84.0 109.0 L 96.0 119.0 L 96.0 123.0 L 58.30446424484253 123.0 L 58.2 123.9 L 56.2 134.5 L 53.5 144.5 L 49.9 153.7 L 45.6 162.3 L 40.5 170.1 L 34.6 177.2 L 27.9 183.4 L 20.5 188.7 L 19.4 187.2 L 25.3 180.7 L 30.4 173.8 L 35.0 166.6 L 38.8 158.9 L 42.0 150.7 L 44.5 141.9 L 46.4 132.6 L 47.56363639831543 123.0 L 13.0 123.0 L 13.0 119.0 L 47.77619047164917 119.0 L 48.1 112.2 L 48.0 101.1 L 48.065564727783205 101.09834709167481 L 48.0 101.0 L 48.0 84.0 L 13.0 84.0 L 13.0 80.0 L 48.0 80.0 L 48.0 15.0 L 60.0 17.0 L 63.0 19.0 L 60.0 20.8 L 60.0 80.0 L 74.0 80.0 L 84.0 70.0 L 96.0 80.0 L 96.0 84.0 L 60.0 84.0 L 60.0 101.0 L 59.887610626220706 101.16858406066895 Z M 95.0 95.0 L 95.0 91.0 L 118.6 91.0 L 118.6 46.16111106872559 L 114.9 47.6 L 109.2 49.5 L 103.3 51.3 L 97.0 52.8 L 96.4 51.1 L 101.8 47.8 L 107.0 44.6 L 112.0 41.7 L 116.9 38.7 L 121.5 35.8 L 125.9 33.0 L 130.0 30.2 L 134.0 27.3 L 137.6 24.5 L 140.32049283981323 22.323605728149413 L 140.3 22.3 L 141.1 21.7 L 148.2 31.4 L 148.3 35.0 L 144.765154838562 33.49441776275635 L 144.1 33.9 L 139.7 36.4 L 135.2 38.8 L 130.4 41.1 L 125.5 43.3 L 122.36304349899292 44.62717390060425 L 130.6 46.0 L 133.6 48.0 L 130.6 49.8 L 130.6 91.0 L 153.4 91.0 L 153.4 18.0 L 165.4 20.0 L 168.4 22.0 L 165.4 23.8 L 165.4 91.0 L 168.1 91.0 L 178.1 81.0 L 190.1 91.0 L 190.1 95.0 L 165.4 95.0 L 165.4 179.0 L 153.4 185.0 L 153.4 95.0 L 130.6 95.0 L 130.6 101.0 L 129.9 111.8 L 128.7 122.2 L 126.9 132.1 L 124.4 141.5 L 121.3 150.3 L 117.6 158.6 L 113.2 166.4 L 108.2 173.5 L 102.5 179.9 L 96.2 185.6 L 94.9 184.3 L 99.6 177.5 L 103.8 170.5 L 107.5 163.2 L 110.6 155.6 L 113.3 147.6 L 115.4 139.1 L 117.0 130.3 L 118.1 121.0 L 118.6 111.2 L 118.6 95.0 Z M 29.1 60.8 L 27.9 56.8 L 26.6 52.9 L 25.2 49.0 L 22.4 41.4 L 20.9 37.7 L 19.4 33.9 L 17.8 30.3 L 19.3 29.2 L 22.1 32.2 L 25.0 35.2 L 27.6 38.4 L 30.1 41.8 L 32.5 45.4 L 34.7 49.1 L 36.9 52.9 L 38.9 56.9 L 40.9 61.0 L 42.7 65.2 L 42.3 69.8 L 38.9 72.8 L 34.3 72.4 L 31.3 69.0 L 30.2 64.8 Z M 93.9 31.4 L 95.8 34.5 L 91.95691061019897 34.89756097793579 L 91.9 35.0 L 89.7 38.7 L 87.4 42.6 L 84.9 46.6 L 82.3 50.6 L 79.6 54.8 L 76.7 59.1 L 73.6 63.5 L 70.3 67.9 L 66.7 72.4 L 65.2 71.5 L 67.1 66.1 L 69.0 61.0 L 71.0 56.0 L 73.0 51.3 L 74.9 46.7 L 76.7 42.3 L 78.4 38.1 L 80.1 34.0 L 81.6 30.1 L 82.7389684677124 27.214613151550292 L 82.7 27.2 L 83.6 25.1 Z " />
</g>
</svg>
