<svg xmlns="http://www.w3.org/2000/svg" xmlns:xlink="http://www.w3.org/1999/xlink" version="1.1" baseProfile="full" viewBox="0 0 200 200" width="200" height="200">
<g fill="black">
<path d="M 14.0 174.9 L 74.0 174.9 L 74.0 136.1 L 45.0 136.1 L 45.0 148.1 L 33.0 154.1 L 33.0 82.5 L 45.0 88.5 L 74.0 88.5 L 74.0 55.7 L 19.0 55.7 L 19.0 51.7 L 159.0 51.7 L 169.0 41.7 L 181.0 51.7 L 181.0 55.7 L 126.0 55.7 L 126.0 88.5 L 155.0 88.5 L 161.0 83.5 L 172.0 92.5 L 167.0 96.5 L 167.0 142.1 L 155.0 148.1 L 155.0 136.1 L 126.0 136.1 L 126.0 174.9 L 164.0 174.9 L 174.0 164.9 L 186.0 174.9 L 186.0 178.9 L 14.0 178.9 Z M 86.0 55.7 L 86.0 94.5 L 74.0 100.5 L 74.0 92.5 L 45.0 92.5 L 45.0 132.1 L 74.0 132.1 L 80.0 127.1 L 91.0 136.1 L 86.0 140.1 L 86.0 174.9 L 114.0 174.9 L 114.0 126.1 L 126.0 132.1 L 155.0 132.1 L 155.0 92.5 L 126.0 92.5 L 126.0 95.5 L 114.0 101.5 L 114.0 55.7 Z M 105.5 95.0 L 108.5 97.0 L 105.5 98.8 L 105.5 110.0 L 128.6777777671814 110.0 L 134.9 103.0 L 142.9 110.0 L 142.9 114.0 L 105.5 114.0 L 105.5 131.4 L 93.5 137.4 L 93.5 114.0 L 56.0 114.0 L 56.0 110.0 L 93.5 110.0 L 93.5 93.0 Z M 178.1 25.8 L 178.1 29.8 L 20.8 29.8 L 20.8 25.8 L 156.1 25.8 L 166.1 15.8 Z " />
</g>
</svg>
