<svg xmlns="http://www.w3.org/2000/svg" xmlns:xlink="http://www.w3.org/1999/xlink" version="1.1" baseProfile="full" viewBox="0 0 200 200" width="200" height="200">
<g fill="black">
<path d="M 65.0 135.7 L 68.0 137.7 L 65.0 139.5 L 65.0 154.8 L 68.11818180084228 154.8 L 76.3 145.8 L 86.3 154.8 L 86.3 158.8 L 65.0 158.8 L 65.0 182.5 L 53.0 188.5 L 53.0 158.8 L 31.6 158.8 L 31.6 154.8 L 53.0 154.8 L 53.0 133.7 Z M 170.4 174.1 L 165.9 167.7 L 162.0 160.7 L 158.6 153.3 L 155.8 145.4 L 153.5 137.0 L 151.8 128.1 L 151.31170959472655 123.51007022857667 L 149.7 131.3 L 146.3 142.2 L 142.1 152.2 L 137.0 161.2 L 131.1 169.4 L 124.2 176.5 L 116.6 182.6 L 108.1 187.5 L 107.1 186.0 L 114.2 179.6 L 120.4 172.8 L 125.8 165.4 L 130.5 157.4 L 134.4 148.7 L 137.5 139.3 L 139.9 129.1 L 141.5 118.2 L 142.14830513000487 109.7 L 109.0 109.7 L 109.0 105.7 L 142.4055555343628 105.7 L 142.5 93.8 L 142.5 64.0 L 116.2 64.0 L 116.2 60.0 L 156.4285714149475 60.0 L 155.7 59.7 L 156.5 55.0 L 157.4 50.3 L 158.5 45.7 L 159.5 41.2 L 160.6 36.6 L 161.6 32.1 L 162.7 27.6 L 163.7 23.1 L 164.7 18.7 L 165.47454872131348 15.214530658721923 L 165.4 15.2 L 166.1 12.6 L 177.2 17.5 L 179.5 20.3 L 175.8237410545349 21.28471221923828 L 175.6 21.9 L 173.9 26.3 L 172.2 30.6 L 170.4 35.0 L 168.5 39.3 L 164.5 47.9 L 162.3 52.1 L 159.9 56.3 L 157.64390239715576 60.0 L 158.8 60.0 L 168.8 50.0 L 180.8 60.0 L 180.8 64.0 L 154.5 64.0 L 154.5 93.8 L 153.78421049118043 105.7 L 165.9 105.7 L 175.9 95.7 L 187.9 105.7 L 187.9 109.7 L 153.36984128952025 109.7 L 153.13173799514772 111.57506294250489 L 154.9 117.9 L 157.6 126.7 L 160.4 134.9 L 163.6 142.4 L 167.1 149.3 L 170.9 155.7 L 175.0 161.4 L 179.4 166.5 L 184.1 171.0 L 189.1 175.0 L 191.8 177.2 L 180.9 185.4 L 175.4 180.0 Z M 91.7 156.2 L 87.6 151.6 L 83.7 146.8 L 80.0 141.8 L 76.5 136.6 L 73.2 131.1 L 70.3 125.3 L 67.6 119.3 L 65.73333330154419 113.7 L 55.85232553482056 113.7 L 54.9 115.8 L 50.5 124.0 L 45.4 131.9 L 39.7 139.4 L 33.3 146.6 L 26.4 153.3 L 18.8 159.6 L 10.5 165.4 L 9.4 164.0 L 16.2 156.8 L 22.5 149.6 L 28.3 142.3 L 33.6 134.9 L 38.2 127.3 L 42.3 119.6 L 44.88125 113.7 L 12.2 113.7 L 12.2 109.7 L 46.480246925354 109.7 L 48.7 103.5 L 51.1 95.2 L 52.709167098999025 87.60115547180176 L 52.7 87.6 L 53.3 84.8 L 64.6 89.1 L 67.1 91.7 L 63.51524314880371 92.93837060928345 L 62.0 98.3 L 58.8 107.2 L 57.666279029846194 109.7 L 83.7 109.7 L 93.7 99.7 L 105.7 109.7 L 105.7 113.7 L 68.38627452850342 113.7 L 71.2 117.2 L 75.2 122.2 L 79.2 127.0 L 83.2 131.5 L 87.2 135.9 L 91.3 140.0 L 95.5 143.9 L 99.8 147.6 L 104.1 151.0 L 108.6 154.2 L 111.4 156.4 L 100.5 164.6 L 96.0 160.5 Z M 90.1 53.2 L 93.1 55.2 L 90.1 57.0 L 90.1 70.2 L 93.3777777671814 70.2 L 99.6 63.2 L 107.6 70.2 L 107.6 74.2 L 90.1 74.2 L 90.1 94.0 L 78.1 100.0 L 78.1 74.2 L 60.5 74.2 L 60.5 70.2 L 78.1 70.2 L 78.1 51.2 Z M 40.1 53.2 L 43.1 55.2 L 40.1 57.0 L 40.1 70.2 L 42.6777777671814 70.2 L 48.9 63.2 L 56.9 70.2 L 56.9 74.2 L 40.1 74.2 L 40.1 94.0 L 28.1 100.0 L 28.1 74.2 L 11.3 74.2 L 11.3 70.2 L 28.1 70.2 L 28.1 51.2 Z M 65.0 14.4 L 68.0 16.4 L 65.0 18.2 L 65.0 31.4 L 71.5 31.4 L 81.5 21.4 L 93.5 31.4 L 93.5 35.4 L 65.0 35.4 L 65.0 55.2 L 53.0 61.2 L 53.0 35.4 L 24.4 35.4 L 24.4 31.4 L 53.0 31.4 L 53.0 12.4 Z M 131.1 44.0 L 130.4 40.3 L 129.6 36.7 L 128.7 33.3 L 127.7 29.9 L 125.3 23.5 L 124.0 20.3 L 122.3 17.3 L 123.7 16.1 L 126.3 18.5 L 129.1 20.9 L 131.6 23.7 L 133.8 26.8 L 136.0 30.1 L 137.9 33.6 L 139.6 37.3 L 141.2 41.3 L 142.6 45.4 L 143.9 49.8 L 142.8 54.2 L 139.0 56.7 L 134.5 55.7 L 132.0 51.8 L 131.6 47.9 Z " />
</g>
</svg>
