<svg xmlns="http://www.w3.org/2000/svg" xmlns:xlink="http://www.w3.org/1999/xlink" version="1.1" baseProfile="full" viewBox="0 0 200 200" width="200" height="200">
<g fill="black">
<path d="M 139.2 38.0 L 142.2 40.0 L 139.2 41.8 L 139.2 79.0 L 144.9777777671814 79.0 L 151.2 72.0 L 159.2 79.0 L 159.2 83.0 L 139.2 83.0 L 139.2 126.0 L 143.61818180084228 126.0 L 151.8 117.0 L 161.8 126.0 L 161.8 130.0 L 139.2 130.0 L 139.2 183.0 L 127.2 189.0 L 127.2 130.0 L 105.5 130.0 L 105.5 126.0 L 127.2 126.0 L 127.2 83.0 L 108.1 83.0 L 108.1 79.0 L 127.2 79.0 L 127.2 36.0 Z M 67.3 176.0 L 81.3 176.0 L 82.6 175.9 L 83.5 175.7 L 84.4 175.4 L 84.6 175.2 L 84.7 175.0 L 84.9 174.7 L 85.1 174.1 L 85.3 173.2 L 85.3 71.0 L 28.1 71.0 L 28.1 183.0 L 16.1 189.0 L 16.1 61.0 L 28.1 67.0 L 50.5 67.0 L 50.5 43.0 L 11.8 43.0 L 11.8 39.0 L 50.5 39.0 L 50.5 15.0 L 62.5 17.0 L 65.5 19.0 L 62.5 20.8 L 62.5 39.0 L 79.7 39.0 L 89.7 29.0 L 101.7 39.0 L 101.7 43.0 L 62.5 43.0 L 62.5 67.0 L 85.3 67.0 L 91.3 62.0 L 102.3 71.0 L 97.3 75.0 L 97.3 172.0 L 97.2 174.5 L 96.8 177.0 L 95.9 179.4 L 94.7 181.7 L 93.1 183.7 L 91.1 185.3 L 88.8 186.6 L 86.4 187.4 L 83.9 187.8 L 81.3 188.0 L 81.3 182.0 L 67.3 179.0 Z M 173.1 176.6 L 169.7 167.9 L 167.1 156.5 L 165.1 142.3 L 163.7 125.2 L 162.8 105.1 L 162.5 82.0 L 162.8 55.9 L 163.44486303329467 29.0 L 105.5 29.0 L 105.5 25.0 L 163.5 25.0 L 169.5 20.0 L 180.5 29.0 L 175.5 32.0 L 175.38255167007446 32.04893674850464 L 174.8 56.1 L 174.5 82.0 L 174.8 104.8 L 175.7 124.5 L 177.0 141.1 L 178.9 154.4 L 181.2 164.5 L 181.96442308425904 166.4875 L 186.0 149.0 L 188.0 149.0 L 186.07446804046631 174.0319149017334 L 190.2 175.8 L 192.0 180.0 L 190.2 184.2 L 186.0 186.0 L 178.1 183.1 Z M 76.7 77.5 L 79.1 80.2 L 75.16228351593017 81.30532388687134 L 74.2 83.6 L 72.8 86.7 L 71.3 89.9 L 69.8 93.2 L 66.4 99.8 L 64.5 103.3 L 62.5 106.7 L 61.81388893127441 108.0 L 69.9 108.0 L 74.4 102.0 L 80.4 108.0 L 80.4 112.0 L 62.5 112.0 L 62.5 136.0 L 65.01818180084229 136.0 L 73.2 127.0 L 83.2 136.0 L 83.2 140.0 L 62.5 140.0 L 62.5 178.0 L 50.5 184.0 L 50.5 140.0 L 30.8 140.0 L 30.8 136.0 L 50.5 136.0 L 50.5 112.0 L 33.6 112.0 L 33.6 108.0 L 59.22820510864258 108.0 L 59.7 105.7 L 60.3 101.8 L 61.0 98.0 L 61.7 94.3 L 62.3 90.7 L 63.0 87.2 L 63.6 83.9 L 64.1 80.6 L 64.6 77.4 L 64.93757963180542 75.30700635910034 L 64.9 75.3 L 64.99655170440674 74.94137935638427 L 65.1 74.3 L 65.16444444656372 74.31777782440186 L 65.6 72.7 Z M 42.8 93.9 L 42.5 91.4 L 42.1 88.8 L 40.9 83.2 L 40.2 80.3 L 39.4 77.2 L 38.2 74.3 L 39.7 73.4 L 41.7 76.0 L 43.8 78.5 L 45.7 81.0 L 47.5 83.5 L 49.1 86.1 L 50.5 88.7 L 51.8 91.3 L 53.0 93.9 L 54.0 96.5 L 54.9 99.1 L 53.7 103.5 L 49.8 105.9 L 45.4 104.7 L 43.0 100.8 L 43.0 96.3 Z " />
</g>
</svg>
