<svg xmlns="http://www.w3.org/2000/svg" xmlns:xlink="http://www.w3.org/1999/xlink" version="1.1" baseProfile="full" viewBox="0 0 200 200" width="200" height="200">
<g fill="black">
<path d="M 48.0 149.4 L 152.0 149.4 L 158.0 144.4 L 169.0 153.4 L 164.0 157.4 L 164.0 178.9 L 152.0 184.9 L 152.0 176.9 L 48.0 176.9 L 48.0 179.9 L 36.0 185.9 L 36.0 143.4 Z M 48.0 153.4 L 48.0 172.9 L 152.0 172.9 L 152.0 153.4 Z M 160.5 132.0 L 160.5 136.0 L 40.8 136.0 L 40.8 132.0 L 142.3181818008423 132.0 L 150.5 123.0 Z M 160.5 113.6 L 160.5 117.6 L 40.8 117.6 L 40.8 113.6 L 142.3181818008423 113.6 L 150.5 104.6 Z M 188.0 95.0 L 188.0 99.0 L 12.0 99.0 L 12.0 95.0 L 166.0 95.0 L 176.0 85.0 Z M 94.9 87.9 L 93.9 86.1 L 92.7 84.4 L 91.2 82.7 L 89.4 81.1 L 87.2 79.6 L 84.8 78.2 L 82.0 76.8 L 78.8 76.0 L 79.0 74.2 L 82.5 74.3 L 85.8 74.3 L 89.0 74.7 L 92.1 75.4 L 94.0 76.03333330154419 L 94.0 41.8 L 14.0 41.8 L 14.0 37.8 L 94.0 37.8 L 94.0 12.0 L 106.0 14.0 L 109.0 16.0 L 106.0 17.8 L 106.0 37.8 L 164.0 37.8 L 174.0 27.8 L 186.0 37.8 L 186.0 41.8 L 106.0 41.8 L 106.0 70.1 L 94.08000001907348 76.06000003814697 L 95.1 76.4 L 97.9 77.8 L 100.6 79.5 L 103.0 81.6 L 105.2 84.0 L 107.1 86.7 L 107.3 91.3 L 104.2 94.7 L 99.7 94.8 L 96.2 91.8 L 95.7 89.8 Z " />
</g>
</svg>
