<svg xmlns="http://www.w3.org/2000/svg" xmlns:xlink="http://www.w3.org/1999/xlink" version="1.1" baseProfile="full" viewBox="0 0 200 200" width="200" height="200">
<g fill="black">
<path d="M 60.7 119.0 L 63.7 121.0 L 60.7 122.8 L 60.7 136.0 L 76.4 136.0 L 86.4 126.0 L 98.4 136.0 L 98.4 140.0 L 60.7 140.0 L 60.7 183.8 L 48.7 189.8 L 48.7 140.0 L 11.0 140.0 L 11.0 136.0 L 48.7 136.0 L 48.7 117.0 Z M 156.4 110.0 L 159.4 112.0 L 156.4 113.8 L 156.4 142.0 L 167.5 142.0 L 177.5 132.0 L 189.5 142.0 L 189.5 146.0 L 156.4 146.0 L 156.4 182.0 L 144.4 188.0 L 144.4 146.0 L 98.2 146.0 L 98.2 142.0 L 112.8375 142.0 L 113.9 139.5 L 115.3 135.5 L 116.7 131.8 L 118.1 128.2 L 119.4 124.8 L 120.6 121.6 L 121.7 118.5 L 122.8 115.6 L 123.7 112.9 L 124.21044597625732 111.24105072021484 L 124.1 111.2 L 125.0 109.1 L 135.4 115.4 L 137.2 118.5 L 133.03071212768555 118.93130559921265 L 132.1 120.3 L 130.3 123.0 L 128.4 125.7 L 126.3 128.6 L 124.1 131.5 L 121.7 134.6 L 119.2 137.7 L 116.4 141.0 L 115.60588235855103 142.0 L 144.4 142.0 L 144.4 108.0 Z M 43.3 93.2 L 42.3 90.6 L 41.2 88.0 L 40.0 85.4 L 38.7 82.9 L 37.3 80.4 L 36.42322692871094 78.99716310501098 L 35.0 83.7 L 32.5 91.0 L 29.6 98.0 L 26.5 104.6 L 23.1 111.0 L 19.2 116.9 L 15.1 122.4 L 13.5 121.5 L 15.9 115.1 L 18.2 108.7 L 20.4 102.1 L 22.5 95.4 L 24.4 88.4 L 26.1 81.2 L 27.6 73.8 L 28.9 66.2 L 30.0 58.3 L 30.799452018737792 51.10493154525757 L 30.7 51.1 L 31.1 48.1 L 42.8 51.7 L 45.5 54.1 L 42.064107513427736 55.56343574523926 L 41.2 60.1 L 39.4 68.3 L 37.729368019104 74.50520448684692 L 38.8 75.1 L 41.3 76.9 L 43.7 78.8 L 46.0 80.9 L 48.3 83.2 L 50.4 85.6 L 52.4 88.2 L 54.3 90.9 L 56.1 93.7 L 56.2 98.3 L 53.1 101.7 L 48.5 101.8 L 45.2 98.7 L 44.3 95.9 Z M 79.7 99.6 L 78.6 96.7 L 77.3 93.8 L 75.9 90.9 L 74.4 88.0 L 72.8 85.1 L 71.3290322303772 82.64838705062866 L 68.8 88.7 L 65.8 95.0 L 62.6 101.1 L 59.1 106.9 L 55.3 112.4 L 51.1 117.4 L 49.6 116.5 L 52.0 110.5 L 54.3 104.5 L 56.6 98.4 L 58.8 92.1 L 60.9 85.7 L 62.7 79.1 L 64.4 72.4 L 65.9 65.4 L 67.3 58.2 L 68.33723402023315 51.803723430633546 L 68.3 51.8 L 68.8 48.9 L 80.3 53.0 L 82.8 55.5 L 79.3384614944458 56.846153831481935 L 78.4 60.6 L 76.3 68.0 L 74.1 75.1 L 72.43496665954589 79.69549198150635 L 73.1 80.2 L 76.0 82.3 L 78.7 84.5 L 81.3 87.0 L 83.7 89.5 L 86.0 92.2 L 88.1 95.0 L 90.1 97.9 L 91.9 100.9 L 93.5 104.0 L 93.3 108.6 L 90.0 111.8 L 85.4 111.5 L 82.3 108.2 L 80.7 102.4 Z M 119.8 107.0 L 107.8 113.0 L 107.8 33.0 L 119.8 39.0 L 125.51428575515747 39.0 L 126.8 36.6 L 129.2 30.8 L 131.4 25.4 L 132.4 22.8 L 133.4 20.3 L 134.3 17.8 L 135.1 15.4 L 135.56358699798585 14.0671875 L 135.4 14.0 L 136.4 12.1 L 146.6 18.6 L 148.3 21.7 L 143.99801321029662 21.996688747406004 L 143.3 22.9 L 141.5 25.1 L 139.7 27.2 L 137.8 29.4 L 133.6 33.8 L 131.3 36.0 L 128.9 38.1 L 128.075 39.0 L 168.7 39.0 L 174.7 34.0 L 185.7 43.0 L 180.7 47.0 L 180.7 110.0 L 168.7 116.0 L 168.7 104.0 L 119.8 104.0 Z M 119.8 75.0 L 119.8 100.0 L 138.3 100.0 L 138.3 75.0 Z M 150.3 75.0 L 150.3 100.0 L 168.7 100.0 L 168.7 75.0 Z M 119.8 43.0 L 119.8 71.0 L 138.3 71.0 L 138.3 43.0 Z M 150.3 43.0 L 150.3 71.0 L 168.7 71.0 L 168.7 43.0 Z M 13.7 41.2 L 48.5 41.2 L 48.5 14.1 L 60.5 16.1 L 63.5 18.1 L 60.5 19.9 L 60.5 41.2 L 73.2 41.2 L 83.2 31.2 L 95.2 41.2 L 95.2 45.2 L 13.7 45.2 Z " />
</g>
</svg>
