<svg xmlns="http://www.w3.org/2000/svg" xmlns:xlink="http://www.w3.org/1999/xlink" version="1.1" baseProfile="full" viewBox="0 0 200 200" width="200" height="200">
<g fill="black">
<path d="M 132.4 19.8 L 135.1 22.2 L 131.6864559173584 23.590703201293945 L 130.8 28.3 L 129.1 36.7 L 127.6222222328186 43.0 L 159.7 43.0 L 169.7 33.0 L 181.7 43.0 L 181.7 47.0 L 152.0 47.0 L 152.0 104.0 L 166.3 104.0 L 176.3 94.0 L 188.3 104.0 L 188.3 108.0 L 152.0 108.0 L 152.0 182.0 L 140.0 188.0 L 140.0 108.0 L 104.1 108.0 L 104.1 104.0 L 140.0 104.0 L 140.0 47.0 L 126.64303798675537 47.0 L 125.2 52.7 L 123.0 60.4 L 120.7 67.9 L 118.1 75.2 L 115.4 82.2 L 112.4 88.9 L 109.1 95.3 L 107.4 94.6 L 108.8 87.6 L 110.3 80.5 L 111.8 73.3 L 113.3 66.0 L 114.8 58.5 L 116.1 50.8 L 117.4 42.9 L 118.5 34.8 L 119.6 26.6 L 120.5 18.1 L 120.53271026611328 18.10467290878296 L 120.8 16.1 Z M 13.4 168.0 L 35.410144901275636 168.0 L 43.29057970046997 93.0 L 23.1 93.0 L 23.1 89.0 L 43.71086959838867 89.0 L 49.48985509872436 34.0 L 17.7 34.0 L 17.7 30.0 L 79.2 30.0 L 89.2 20.0 L 101.2 30.0 L 101.2 34.0 L 61.491304302215575 34.0 L 55.75217390060425 89.0 L 74.9 89.0 L 80.9 84.0 L 91.9 93.0 L 86.9 97.0 L 86.9 168.0 L 91.27777776718139 168.0 L 97.5 161.0 L 105.5 168.0 L 105.5 172.0 L 13.4 172.0 Z M 55.33478260040283 93.0 L 47.508695697784425 168.0 L 74.9 168.0 L 74.9 93.0 Z " />
</g>
</svg>
