<svg xmlns="http://www.w3.org/2000/svg" xmlns:xlink="http://www.w3.org/1999/xlink" version="1.1" baseProfile="full" viewBox="0 0 200 200" width="200" height="200">
<g fill="black">
<path d="M 63.0 15.0 L 66.0 17.0 L 63.0 18.8 L 63.0 36.0 L 75.0 36.0 L 85.0 26.0 L 97.0 36.0 L 97.0 40.0 L 63.0 40.0 L 63.0 63.0 L 78.0 63.0 L 84.0 58.0 L 95.0 67.0 L 90.0 71.0 L 90.0 123.0 L 78.0 129.0 L 78.0 117.0 L 63.0 117.0 L 63.0 146.0 L 78.0 146.0 L 88.0 136.0 L 100.0 146.0 L 100.0 150.0 L 63.0 150.0 L 63.0 183.0 L 51.0 189.0 L 51.0 150.0 L 15.0 150.0 L 15.0 146.0 L 51.0 146.0 L 51.0 117.0 L 37.0 117.0 L 37.0 129.0 L 25.0 135.0 L 25.0 57.0 L 37.0 63.0 L 51.0 63.0 L 51.0 40.0 L 18.0 40.0 L 18.0 36.0 L 51.0 36.0 L 51.0 13.0 Z M 131.7 150.6 L 131.0 157.3 L 129.7 163.4 L 127.9 168.9 L 125.4 173.9 L 122.4 178.3 L 118.8 182.0 L 114.8 184.9 L 110.3 187.0 L 105.3 188.3 L 100.2 188.9 L 99.8 187.1 L 104.2 185.0 L 107.9 182.6 L 111.0 179.9 L 113.5 176.9 L 115.6 173.6 L 117.2 169.9 L 118.5 165.8 L 119.3 161.2 L 119.7 156.1 L 119.7 127.3 L 131.7 129.3 L 134.7 131.3 L 131.7 133.1 L 131.7 150.5 L 131.63406591415406 150.59890108108522 Z M 162.0 185.5 L 159.5 185.0 L 157.1 184.2 L 154.8 183.0 L 152.8 181.3 L 151.2 179.3 L 150.0 177.1 L 149.2 174.6 L 148.7 172.2 L 148.6 169.6 L 148.6 126.6 L 160.6 128.6 L 163.6 130.6 L 160.6 132.4 L 160.6 170.8 L 160.8 171.7 L 161.0 172.3 L 161.2 172.7 L 161.5 173.0 L 161.8 173.2 L 162.4 173.4 L 163.3 173.5 L 164.6 173.6 L 177.5 173.6 L 183.5 148.6 L 185.5 148.6 L 183.5 173.6 L 187.1 176.0 L 189.5 179.6 L 187.1 183.2 L 183.5 185.6 L 164.6 185.6 Z M 171.9 121.5 L 168.2 118.7 L 164.6 115.6 L 161.0 112.1 L 157.5 108.3 L 154.1 104.1 L 150.7 99.5 L 148.0 95.196875 L 148.0 123.1 L 136.0 129.1 L 136.0 100.54615383148193 L 132.4 104.7 L 128.3 108.8 L 123.9 112.7 L 119.4 116.2 L 114.6 119.5 L 109.6 122.4 L 104.3 124.9 L 98.8 126.9 L 98.0 125.3 L 102.3 121.6 L 106.5 118.0 L 110.6 114.3 L 114.4 110.5 L 118.0 106.6 L 121.5 102.5 L 124.7 98.2 L 127.7 93.8 L 130.31739130020142 89.5 L 100.5 89.5 L 100.5 85.5 L 136.0 85.5 L 136.0 71.60819673538208 L 135.3 71.7 L 128.8 72.3 L 122.0 72.9 L 114.9 73.1 L 107.4 73.2 L 107.2 71.4 L 114.3 69.4 L 121.2 67.6 L 127.7 65.9 L 133.8 64.2 L 139.7 62.6 L 145.2 60.9 L 150.3 59.3 L 155.1 57.6 L 159.6 55.8 L 162.70573463439942 54.51225633621216 L 162.7 54.5 L 162.71151933670043 54.5098578453064 L 163.7 54.1 L 164.3608169555664 55.9212760925293 L 173.1 63.4 L 173.3 66.6 L 169.28963947296143 64.8378719329834 L 167.8 65.4 L 163.1 66.7 L 158.1 67.9 L 152.9 69.0 L 148.0 69.875 L 148.0 85.5 L 162.5 85.5 L 172.5 75.5 L 184.5 85.5 L 184.5 89.5 L 148.0 89.5 L 148.0 89.58723402023315 L 150.6 91.8 L 155.0 95.6 L 159.2 99.1 L 163.2 102.3 L 167.0 105.1 L 170.8 107.5 L 174.4 109.6 L 177.8 111.2 L 181.1 112.5 L 184.2 113.5 L 191.1 116.0 L 179.6 125.8 L 175.7 123.8 Z M 37.0 92.0 L 37.0 113.0 L 78.0 113.0 L 78.0 92.0 Z M 37.0 88.0 L 78.0 88.0 L 78.0 67.0 L 37.0 67.0 Z M 134.3 17.8 L 136.5 20.6 L 132.86920986175537 21.42807493209839 L 131.5 24.9 L 128.4 31.7 L 124.9 38.4 L 121.75 44.0 L 164.0 44.0 L 174.0 34.0 L 186.0 44.0 L 186.0 48.0 L 119.26825399398804 48.0 L 117.3 51.1 L 113.0 57.1 L 108.4 62.9 L 103.5 68.5 L 98.3 73.7 L 92.6 78.6 L 91.3 77.3 L 95.4 71.2 L 99.3 65.2 L 103.1 59.1 L 106.6 53.0 L 110.0 46.8 L 113.1 40.5 L 115.9 34.0 L 118.5 27.5 L 120.8 20.8 L 122.9 14.0 L 122.91807231903076 14.006024074554443 L 123.4 12.5 Z " />
</g>
</svg>
