<svg xmlns="http://www.w3.org/2000/svg" xmlns:xlink="http://www.w3.org/1999/xlink" version="1.1" baseProfile="full" viewBox="0 0 200 200" width="200" height="200">
<g fill="black">
<path d="M 153.7 175.1 L 149.08776893615723 171.14665908813475 L 141.5 172.3 L 129.0 174.0 L 116.5 175.5 L 104.0 176.9 L 79.0 179.5 L 66.6 180.7 L 54.1 181.9 L 33.36310682296753 183.73956308364868 L 31.5 187.0 L 29.3 184.1 L 26.6 172.3 L 28.6 172.1 L 53.4 171.1 L 65.9 170.7 L 90.9 169.7 L 94.0 169.60080003738403 L 94.0 152.9 L 54.0 152.9 L 54.0 159.9 L 42.0 165.9 L 42.0 108.1 L 54.0 114.1 L 94.0 114.1 L 94.0 102.5 L 18.0 102.5 L 18.0 98.5 L 94.0 98.5 L 94.0 82.1 L 106.0 84.1 L 109.0 86.1 L 106.0 87.9 L 106.0 98.5 L 163.8181818008423 98.5 L 172.0 89.5 L 182.0 98.5 L 182.0 102.5 L 106.0 102.5 L 106.0 114.1 L 147.0 114.1 L 153.0 109.1 L 164.0 118.1 L 159.0 122.1 L 159.0 152.9 L 147.0 158.9 L 147.0 152.9 L 106.0 152.9 L 106.0 169.2174603462219 L 116.0 168.9 L 128.6 168.6 L 141.2 168.5 L 145.7994119644165 168.53621587753295 L 145.1 168.0 L 142.1 165.8 L 139.1 163.7 L 135.9 161.5 L 132.6 159.6 L 133.2 157.9 L 137.0 158.6 L 140.9 159.4 L 144.8 160.5 L 148.5 161.9 L 152.2 163.5 L 155.9 165.3 L 159.5 167.3 L 163.0 169.6 L 166.5 172.0 L 169.9 174.7 L 171.7 178.9 L 170.1 183.2 L 165.9 185.0 L 161.6 183.4 L 159.1 180.5 Z M 54.0 135.5 L 54.0 148.9 L 94.0 148.9 L 94.0 135.5 Z M 106.0 135.5 L 106.0 148.9 L 147.0 148.9 L 147.0 135.5 Z M 54.0 118.1 L 54.0 131.5 L 94.0 131.5 L 94.0 118.1 Z M 106.0 118.1 L 106.0 131.5 L 147.0 131.5 L 147.0 118.1 Z M 140.0 45.3 L 143.0 47.3 L 140.0 49.1 L 140.0 63.2 L 164.0 63.2 L 174.0 53.2 L 186.0 63.2 L 186.0 67.2 L 140.0 67.2 L 140.0 83.1 L 128.0 89.1 L 128.0 67.2 L 72.0 67.2 L 72.0 83.1 L 60.0 89.1 L 60.0 67.2 L 14.0 67.2 L 14.0 63.2 L 60.0 63.2 L 60.0 43.3 L 72.0 45.3 L 75.0 47.3 L 72.0 49.1 L 72.0 63.2 L 128.0 63.2 L 128.0 43.3 Z M 106.0 15.0 L 109.0 17.0 L 106.0 18.8 L 106.0 31.4 L 151.0 31.4 L 161.0 21.4 L 173.0 31.4 L 173.0 35.4 L 106.0 35.4 L 106.0 49.8 L 94.0 55.8 L 94.0 35.4 L 27.0 35.4 L 27.0 31.4 L 94.0 31.4 L 94.0 13.0 Z " />
</g>
</svg>
