<svg xmlns="http://www.w3.org/2000/svg" xmlns:xlink="http://www.w3.org/1999/xlink" version="1.1" baseProfile="full" viewBox="0 0 200 200" width="200" height="200">
<g fill="black">
<path d="M 156.9 85.0 L 149.1 82.3 L 141.7 79.4 L 134.7 76.3 L 128.1 73.0 L 121.9 69.4 L 116.1 65.6 L 110.9 61.5 L 106.93111114501953 57.7 L 106.0 57.7 L 106.0 83.2 L 94.0 89.2 L 94.0 64.52542371749878 L 93.9 64.6 L 87.4 68.6 L 80.5 72.4 L 73.1 75.9 L 65.2 79.2 L 56.8 82.2 L 53.963346576690675 83.06055774688721 L 65.0 84.9 L 68.0 86.9 L 65.0 88.7 L 65.0 101.4 L 133.0 101.4 L 133.0 82.9 L 145.0 84.9 L 148.0 86.9 L 145.0 88.7 L 145.0 101.4 L 155.0 101.4 L 165.0 91.4 L 177.0 101.4 L 177.0 105.4 L 145.0 105.4 L 145.0 123.4 L 168.8181818008423 123.4 L 177.0 114.4 L 187.0 123.4 L 187.0 127.4 L 145.0 127.4 L 145.0 147.2 L 158.8181818008423 147.2 L 167.0 138.2 L 177.0 147.2 L 177.0 151.2 L 104.0 151.2 L 104.0 166.7 L 148.0 166.7 L 158.0 156.7 L 170.0 166.7 L 170.0 170.7 L 104.0 170.7 L 104.0 186.4 L 92.0 192.4 L 92.0 170.7 L 28.0 170.7 L 28.0 166.7 L 92.0 166.7 L 92.0 151.2 L 22.0 151.2 L 22.0 147.2 L 53.0 147.2 L 53.0 127.4 L 14.0 127.4 L 14.0 123.4 L 53.0 123.4 L 53.0 105.4 L 22.0 105.4 L 22.0 101.4 L 53.0 101.4 L 53.0 83.35280895233154 L 47.9 84.9 L 38.5 87.2 L 28.6 89.2 L 18.2 90.8 L 17.7 89.0 L 27.6 85.5 L 36.9 82.1 L 45.7 78.6 L 54.0 75.1 L 61.7 71.4 L 68.9 67.6 L 75.5 63.7 L 81.6 59.6 L 84.08461542129517 57.7 L 18.0 57.7 L 18.0 53.7 L 94.0 53.7 L 94.0 28.957692337036132 L 85.1 29.3 L 71.8 29.6 L 58.4 29.7 L 56.94774971008301 29.678485202789307 L 57.0 29.7 L 60.2 31.2 L 63.1 32.8 L 65.9 34.5 L 68.4 36.3 L 70.8 38.2 L 73.0 40.2 L 75.0 42.4 L 76.8 44.6 L 77.2 49.2 L 74.4 52.7 L 69.8 53.2 L 66.2 50.3 L 65.6 48.4 L 64.7 46.5 L 63.6 44.4 L 62.3 42.3 L 60.7 40.1 L 58.9 37.8 L 56.9 35.5 L 54.7 33.1 L 52.2 30.5 L 51.000961494445804 29.590384578704835 L 44.9 29.5 L 31.1 29.0 L 31.1 27.3 L 44.7 25.8 L 58.2 24.4 L 71.4 23.0 L 84.5 21.7 L 97.5 20.3 L 110.2 18.8 L 122.8 17.3 L 135.1 15.7 L 147.4 13.9 L 159.4 12.1 L 159.54426078796388 13.244469261169433 L 171.0 22.7 L 171.4 25.7 L 166.8331838607788 23.23632287979126 L 160.9 24.0 L 148.7 25.2 L 136.3 26.3 L 123.7 27.3 L 111.0 28.1 L 103.60701751708984 28.50116958618164 L 106.0 28.9 L 109.0 30.9 L 106.0 32.7 L 106.0 53.7 L 160.0 53.7 L 170.0 43.7 L 182.0 53.7 L 182.0 57.7 L 112.4039999961853 57.7 L 113.1 58.0 L 119.0 60.5 L 125.1 63.0 L 131.5 65.4 L 138.1 67.6 L 145.1 69.8 L 152.4 71.8 L 160.0 73.7 L 168.0 75.4 L 176.3 76.9 L 185.3 78.9 L 173.6 89.9 L 165.0 87.5 Z M 65.0 127.4 L 65.0 147.2 L 92.0 147.2 L 92.0 127.4 Z M 104.0 127.4 L 104.0 147.2 L 133.0 147.2 L 133.0 127.4 Z M 65.0 105.4 L 65.0 123.4 L 92.0 123.4 L 92.0 105.4 Z M 104.0 105.4 L 104.0 123.4 L 133.0 123.4 L 133.0 105.4 Z M 149.7 34.5 L 150.6 38.0 L 146.4508833885193 37.199293327331546 L 144.7 38.6 L 142.1 40.7 L 139.4 42.6 L 136.6 44.6 L 133.8 46.5 L 127.8 50.1 L 124.6 51.7 L 121.5 53.6 L 120.4 52.2 L 122.8 49.6 L 125.0 46.8 L 127.2 44.1 L 131.4 38.9 L 133.4 36.3 L 135.4 33.8 L 137.3 31.3 L 139.1 28.9 L 140.23678092956544 27.228263282775877 L 140.2 27.2 L 140.4222222328186 26.955555534362794 L 140.8 26.4 L 140.8696478843689 26.463387393951415 L 141.2 26.1 Z " />
</g>
</svg>
