<svg xmlns="http://www.w3.org/2000/svg" xmlns:xlink="http://www.w3.org/1999/xlink" version="1.1" baseProfile="full" viewBox="0 0 200 200" width="200" height="200">
<g fill="black">
<path d="M 74.4 176.0 L 90.4 176.0 L 91.6 175.9 L 92.5 175.7 L 93.4 175.4 L 93.8 175.0 L 94.1 174.1 L 94.3 173.2 L 94.4 172.0 L 94.4 71.0 L 30.2 71.0 L 30.2 183.0 L 18.2 189.0 L 18.2 61.0 L 30.2 67.0 L 56.0 67.0 L 56.0 43.0 L 12.8 43.0 L 12.8 39.0 L 56.0 39.0 L 56.0 15.0 L 68.0 17.0 L 71.0 19.0 L 68.0 20.8 L 68.0 39.0 L 89.8 39.0 L 99.8 29.0 L 111.8 39.0 L 111.8 43.0 L 68.0 43.0 L 68.0 67.0 L 94.4 67.0 L 100.4 62.0 L 111.4 71.0 L 106.4 75.0 L 106.4 172.0 L 106.2 174.5 L 105.8 177.0 L 105.0 179.4 L 103.7 181.7 L 102.1 183.7 L 100.1 185.3 L 97.8 186.6 L 95.4 187.4 L 92.9 187.8 L 90.4 188.0 L 90.4 182.0 L 74.4 179.0 Z M 83.6 77.6 L 85.9 80.4 L 81.94363632202149 81.38909091949463 L 80.9 83.7 L 79.4 86.8 L 77.9 90.0 L 74.5 96.6 L 72.6 99.9 L 70.6 103.3 L 68.4 106.7 L 67.6777777671814 108.0 L 74.1777777671814 108.0 L 80.4 101.0 L 88.4 108.0 L 88.4 112.0 L 68.0 112.0 L 68.0 136.0 L 73.21818180084229 136.0 L 81.4 127.0 L 91.4 136.0 L 91.4 140.0 L 68.0 140.0 L 68.0 178.0 L 56.0 184.0 L 56.0 140.0 L 33.8 140.0 L 33.8 136.0 L 56.0 136.0 L 56.0 112.0 L 36.8 112.0 L 36.8 108.0 L 65.1 108.0 L 65.7 105.6 L 66.4 101.7 L 67.2 97.9 L 68.0 94.2 L 68.8 90.6 L 69.6 87.1 L 70.3 83.7 L 70.9 80.5 L 71.6 77.3 L 71.94972248077393 75.13172082901 L 71.8 75.1 L 72.6 72.6 Z M 117.1 176.0 L 145.1 176.0 L 145.1 104.0 L 114.4 104.0 L 114.4 100.0 L 145.1 100.0 L 145.1 38.9 L 138.7 40.0 L 132.0 41.0 L 125.1 41.6 L 117.9 41.8 L 117.6 40.1 L 124.3 37.8 L 130.9 35.7 L 137.1 33.7 L 143.2 31.6 L 149.0 29.5 L 154.5 27.3 L 159.8 25.1 L 164.8 22.8 L 169.5 20.4 L 173.23124198913575 18.45326499938965 L 173.2 18.4 L 173.24738855361937 18.444840717315675 L 174.1 18.0 L 175.2069495201111 20.29904899597168 L 182.5 27.2 L 182.6 30.5 L 178.9414375305176 28.940612697601317 L 174.2 30.8 L 168.8 32.8 L 163.2 34.5 L 157.4 36.2 L 157.1 36.269999980926514 L 157.1 100.0 L 165.8 100.0 L 175.8 90.0 L 187.8 100.0 L 187.8 104.0 L 157.1 104.0 L 157.1 176.0 L 163.1 176.0 L 173.1 166.0 L 185.1 176.0 L 185.1 180.0 L 117.1 180.0 Z M 47.6 96.4 L 47.4 94.0 L 47.0 91.5 L 46.5 88.9 L 45.9 86.1 L 45.1 83.3 L 44.3 80.4 L 43.3 77.3 L 41.9 74.3 L 43.4 73.3 L 45.5 75.9 L 47.8 78.4 L 49.9 80.9 L 51.7 83.4 L 53.4 86.0 L 55.0 88.5 L 56.4 91.1 L 57.6 93.7 L 58.7 96.4 L 59.6 99.0 L 58.5 103.5 L 54.6 105.9 L 50.2 104.8 L 47.8 100.9 L 47.8 98.7 Z " />
</g>
</svg>
