<svg xmlns="http://www.w3.org/2000/svg" xmlns:xlink="http://www.w3.org/1999/xlink" version="1.1" baseProfile="full" viewBox="0 0 200 200" width="200" height="200">
<g fill="black">
<path d="M 176.1 173.8 L 176.1 177.8 L 18.8 177.8 L 18.8 173.8 L 154.1 173.8 L 164.1 163.8 Z M 14.0 151.5 L 74.0 151.5 L 74.0 119.5 L 45.0 119.5 L 45.0 131.5 L 33.0 137.5 L 33.0 72.8 L 45.0 78.8 L 74.0 78.8 L 74.0 51.8 L 19.0 51.8 L 19.0 47.8 L 162.8181818008423 47.8 L 171.0 38.8 L 181.0 47.8 L 181.0 51.8 L 126.0 51.8 L 126.0 78.8 L 155.0 78.8 L 161.0 73.8 L 172.0 82.8 L 167.0 86.8 L 167.0 125.5 L 155.0 131.5 L 155.0 119.5 L 126.0 119.5 L 126.0 151.5 L 164.0 151.5 L 174.0 141.5 L 186.0 151.5 L 186.0 155.5 L 14.0 155.5 Z M 86.0 51.8 L 86.0 82.8 L 74.0 88.8 L 74.0 82.8 L 45.0 82.8 L 45.0 115.5 L 74.0 115.5 L 80.0 110.5 L 91.0 119.5 L 86.0 123.5 L 86.0 151.5 L 114.0 151.5 L 114.0 109.5 L 126.0 115.5 L 155.0 115.5 L 155.0 82.8 L 126.0 82.8 L 114.0 88.8 L 114.0 51.8 Z M 105.5 83.4 L 108.5 85.4 L 105.5 87.2 L 105.5 95.8 L 128.6777777671814 95.8 L 134.9 88.8 L 142.9 95.8 L 142.9 99.8 L 105.5 99.8 L 105.5 113.9 L 93.5 119.9 L 93.5 99.8 L 56.0 99.8 L 56.0 95.8 L 93.5 95.8 L 93.5 81.4 Z M 178.1 25.8 L 178.1 29.8 L 20.8 29.8 L 20.8 25.8 L 156.1 25.8 L 166.1 15.8 Z " />
</g>
</svg>
