<svg xmlns="http://www.w3.org/2000/svg" xmlns:xlink="http://www.w3.org/1999/xlink" version="1.1" baseProfile="full" viewBox="0 0 200 200" width="200" height="200">
<g fill="black">
<path d="M 152.0 18.0 L 155.0 20.0 L 152.0 21.8 L 152.0 90.0 L 167.0 90.0 L 177.0 80.0 L 189.0 90.0 L 189.0 94.0 L 152.0 94.0 L 152.0 182.0 L 140.0 188.0 L 140.0 94.0 L 103.0 94.0 L 103.0 90.0 L 140.0 90.0 L 140.0 16.0 Z M 57.3 62.7 L 60.1 65.0 L 56.71958255767822 66.53075504302979 L 54.8 79.2 L 52.0 94.7 L 48.8 109.0 L 45.3 122.2 L 41.4 134.2 L 37.2 145.1 L 32.7 154.9 L 27.7 163.4 L 22.3 170.7 L 16.5 176.5 L 15.2 175.4 L 19.2 168.5 L 23.0 160.8 L 26.7 152.2 L 30.1 142.5 L 33.3 131.7 L 36.3 119.8 L 39.0 106.8 L 41.4 92.8 L 43.6 77.6 L 45.4 61.2 L 45.42856760025025 61.20360097885132 L 45.7 59.1 Z M 96.8 151.7 L 92.5 140.9 L 88.8 128.9 L 85.6 115.8 L 83.0 101.6 L 81.0 86.2 L 79.6 69.6 L 78.8 51.9 L 78.8 34.0 L 45.8 34.0 L 45.8 30.0 L 74.78000001907348 30.0 L 79.7 25.9 L 90.7 34.9 L 85.7 37.9 L 81.47481107711792 40.01259441375733 L 82.9 51.6 L 85.4 69.0 L 88.2 85.1 L 91.2 100.0 L 94.7 113.6 L 98.6 125.9 L 102.8 136.9 L 107.4 146.5 L 112.4 154.9 L 117.6 161.9 L 117.9 162.2 L 107.3 170.0 L 101.7 161.4 Z " />
</g>
</svg>
