<svg xmlns="http://www.w3.org/2000/svg" xmlns:xlink="http://www.w3.org/1999/xlink" version="1.1" baseProfile="full" viewBox="0 0 200 200" width="200" height="200">
<g fill="black">
<path d="M 103.7 106.3 L 103.2096570968628 109.16661996841431 L 103.4 109.9 L 107.7 121.8 L 112.7 132.3 L 118.6 141.7 L 125.5 149.9 L 133.3 156.9 L 142.0 162.9 L 151.7 167.8 L 162.5 171.6 L 174.3 174.5 L 183.3 176.4 L 171.6 187.4 L 158.5 183.5 L 146.7 178.5 L 136.0 172.2 L 126.6 164.7 L 118.5 156.0 L 111.7 146.3 L 106.2 135.5 L 102.1 123.7 L 101.34263877868652 120.08149633407592 L 101.1 121.5 L 96.7 135.3 L 90.5 147.8 L 82.4 158.7 L 72.7 168.1 L 61.2 175.9 L 48.1 182.1 L 33.4 186.7 L 17.1 189.8 L 16.8 188.1 L 32.4 183.4 L 46.1 177.6 L 58.0 170.8 L 68.1 162.8 L 76.5 153.7 L 83.1 143.5 L 88.1 132.1 L 91.5 119.4 L 93.3 105.4 L 93.5 90.1 L 93.56546545028687 90.09819822311401 L 93.5 90.0 L 93.5 16.0 L 104.5 18.0 L 107.2 20.0 L 104.5 21.723404216766358 L 104.5 90.0 L 104.38414239883423 90.17378644943237 Z M 157.0 16.4 L 160.0 18.4 L 157.0 20.2 L 157.0 29.9 L 167.9777777671814 29.9 L 174.2 22.9 L 182.2 29.9 L 182.2 33.9 L 157.0 33.9 L 157.0 48.3 L 170.4 48.3 L 175.9 43.3 L 186.4 52.3 L 181.4 55.8 L 181.4 122.4 L 170.4 127.9 L 170.4 116.4 L 132.4 116.4 L 132.4 128.4 L 120.4 134.4 L 120.4 42.3 L 132.4 48.3 L 145.0 48.3 L 145.0 14.4 Z M 55.5 16.3 L 58.5 18.3 L 55.5 20.1 L 55.5 29.7 L 67.6777777671814 29.7 L 73.9 22.7 L 81.9 29.7 L 81.9 33.7 L 55.5 33.7 L 55.5 47.9 L 70.4 47.9 L 75.4 42.9 L 85.4 51.9 L 80.4 54.9 L 80.4 121.6 L 70.4 126.6 L 70.4 115.6 L 29.9 115.6 L 29.9 127.6 L 17.9 133.6 L 17.9 41.9 L 29.9 47.9 L 43.5 47.9 L 43.5 14.3 Z M 132.4 68.0 L 147.8 68.0 L 153.3 63.0 L 163.8 72.0 L 158.8 75.5 L 158.8 96.9 L 147.8 102.4 L 147.8 94.9 L 132.4 94.9 L 132.4 112.4 L 170.4 112.4 L 170.4 52.3 L 132.4 52.3 Z M 29.9 67.5 L 46.4 67.5 L 51.9 62.5 L 62.4 71.5 L 57.4 75.0 L 57.4 96.2 L 46.4 101.7 L 46.4 94.2 L 29.9 94.2 L 29.9 111.6 L 70.4 111.6 L 70.4 51.9 L 29.9 51.9 Z M 132.4 72.0 L 132.4 90.9 L 147.8 90.9 L 147.8 72.0 Z M 29.9 71.5 L 29.9 90.2 L 46.4 90.2 L 46.4 71.5 Z " />
</g>
</svg>
