<svg xmlns="http://www.w3.org/2000/svg" xmlns:xlink="http://www.w3.org/1999/xlink" version="1.1" baseProfile="full" viewBox="0 0 200 200" width="200" height="200">
<g fill="black">
<path d="M 75.9 109.8 L 71.8 106.6 L 67.3 103.4 L 62.4 100.3 L 57.3 97.3 L 51.9 94.3 L 46.2 91.3 L 40.2 88.2 L 35.6 85.93650789260865 L 35.6 183.0 L 23.6 189.0 L 23.6 18.0 L 35.6 20.0 L 38.6 22.0 L 35.6 23.8 L 35.6 83.62285718917846 L 41.4 84.7 L 48.1 86.3 L 54.5 88.2 L 60.6 90.4 L 66.4 92.8 L 71.9 95.3 L 77.2 98.1 L 82.1 101.0 L 86.9 104.2 L 91.3 107.5 L 93.3 111.6 L 91.8 115.9 L 87.7 117.9 L 83.3 116.5 L 79.8 113.1 Z M 152.8 182.3 L 150.9 183.8 L 149.0 185.2 L 146.9 186.3 L 144.7 187.3 L 142.4 188.0 L 140.1 188.5 L 137.6 188.9 L 135.2 189.0 L 135.2 183.0 L 115.2 180.0 L 115.2 177.0 L 135.2 177.0 L 136.7 176.9 L 138.0 176.7 L 139.3 176.4 L 140.5 176.1 L 141.6 175.6 L 142.6 175.0 L 143.6 174.3 L 144.6 173.5 L 145.6 172.5 L 146.5 171.4 L 148.5 168.3 L 150.5 164.0 L 152.3 158.6 L 154.0 152.2 L 155.5 144.7 L 156.8 136.2 L 157.9 126.6 L 158.7 116.0 L 159.3 104.4 L 159.63015871047975 94.0 L 122.76976747512818 94.0 L 120.5 106.8 L 107.6 110.6 L 120.14462814331054 40.0 L 83.8 40.0 L 83.8 36.0 L 166.7 36.0 L 176.7 26.0 L 188.7 36.0 L 188.7 40.0 L 132.34534883499146 40.0 L 123.47906980514526 90.0 L 159.7 90.0 L 165.7 85.0 L 176.7 94.0 L 171.7 97.0 L 171.544854927063 97.06464376449586 L 171.3 104.9 L 170.7 116.8 L 169.8 127.7 L 168.7 137.7 L 167.3 146.7 L 165.7 154.9 L 163.8 162.1 L 161.6 168.5 L 159.1 174.0 L 156.0 178.7 L 154.5 180.6 Z " />
</g>
</svg>
