<svg xmlns="http://www.w3.org/2000/svg" xmlns:xlink="http://www.w3.org/1999/xlink" version="1.1" baseProfile="full" viewBox="0 0 200 200" width="200" height="200">
<g fill="black">
<path d="M 176.1 109.0 L 173.3 105.9 L 170.2 102.8 L 167.0 99.8 L 163.5 96.9 L 159.8 94.0 L 155.9 91.1 L 151.8 88.1 L 150.4 87.15581398010254 L 150.4 183.0 L 138.4 189.0 L 138.4 18.0 L 150.4 20.0 L 153.4 22.0 L 150.4 23.8 L 150.4 84.09230766296386 L 153.4 84.9 L 158.3 86.6 L 163.1 88.5 L 167.6 90.7 L 171.9 93.1 L 176.0 95.7 L 179.9 98.4 L 183.6 101.4 L 187.0 104.5 L 190.3 107.8 L 191.6 112.2 L 189.5 116.3 L 185.1 117.5 L 181.0 115.4 L 178.7 112.2 Z M 13.4 167.9 L 21.4 166.2 L 29.8 164.4 L 38.8 162.5 L 48.2 160.5 L 55.0 159.13999996185302 L 55.0 33.0 L 15.0 33.0 L 15.0 29.0 L 85.0 29.0 L 95.0 19.0 L 107.0 29.0 L 107.0 33.0 L 67.0 33.0 L 67.0 156.72307691574096 L 68.6 156.4 L 79.6 154.3 L 91.1 152.1 L 103.2 150.1 L 115.7 148.1 L 116.2 149.8 L 104.0 153.7 L 92.4 157.3 L 81.2 160.7 L 70.4 163.8 L 60.2 166.8 L 50.5 169.6 L 41.2 172.2 L 32.4 174.8 L 24.2 177.2 L 20.359090900421144 178.33257579803467 L 19.1 181.9 L 16.4 179.5 L 11.5 168.4 Z M 39.0 114.5 L 38.2 110.7 L 37.4 107.1 L 36.5 103.7 L 35.6 100.4 L 34.7 97.2 L 33.8 94.1 L 33.316338539123535 92.48779525756837 L 32.4 97.6 L 30.1 107.6 L 27.5 116.8 L 24.4 125.4 L 21.0 133.2 L 17.1 140.2 L 12.7 146.4 L 11.2 145.5 L 13.7 138.6 L 16.0 131.2 L 18.2 123.4 L 20.1 114.9 L 21.8 105.8 L 23.2 96.1 L 24.3 85.8 L 25.1 74.7 L 25.7 63.1 L 25.9 50.8 L 25.929390144348144 50.80073471069336 L 26.0 48.4 L 37.9 51.1 L 40.9 53.2 L 37.61896715164185 55.06568536758423 L 37.0 63.8 L 35.8 75.7 L 34.3 87.0 L 34.09663391113281 88.13456888198853 L 35.4 89.5 L 37.7 91.9 L 39.9 94.6 L 41.9 97.5 L 43.8 100.7 L 45.6 104.1 L 47.3 107.6 L 49.0 111.4 L 50.6 115.4 L 52.0 119.6 L 51.3 124.1 L 47.7 126.9 L 43.2 126.1 L 40.4 122.5 L 39.7 118.4 Z M 98.6 112.7 L 97.5 109.3 L 96.4 106.0 L 95.3 102.8 L 94.0 99.8 L 92.6 96.8 L 90.36837902069092 92.17735662460328 L 89.2 99.6 L 87.1 109.5 L 84.7 118.5 L 81.8 126.5 L 78.6 133.6 L 74.9 139.6 L 70.7 144.5 L 69.2 143.4 L 71.5 137.8 L 73.6 131.5 L 75.6 124.5 L 77.3 116.6 L 78.8 107.9 L 80.0 98.3 L 80.9 87.8 L 81.5 76.4 L 81.9 64.1 L 81.9 50.9 L 81.92940454483032 50.90024499893188 L 82.0 48.5 L 93.9 51.0 L 96.9 53.1 L 93.72481756210327 54.94160585403442 L 93.3 64.5 L 92.3 77.1 L 90.96237211227417 88.27874774932862 L 91.9 89.0 L 94.7 91.1 L 97.3 93.5 L 99.7 96.1 L 102.0 99.0 L 104.2 102.0 L 106.3 105.3 L 108.2 108.8 L 110.1 112.4 L 111.8 116.3 L 111.3 120.8 L 107.9 123.8 L 103.3 123.4 L 100.3 119.9 L 99.5 116.2 Z " />
</g>
</svg>
