<svg xmlns="http://www.w3.org/2000/svg" xmlns:xlink="http://www.w3.org/1999/xlink" version="1.1" baseProfile="full" viewBox="0 0 200 200" width="200" height="200">
<g fill="black">
<path d="M 46.0 180.8 L 34.0 186.8 L 34.0 109.2 L 46.0 115.2 L 154.0 115.2 L 160.0 110.2 L 171.0 119.2 L 166.0 123.2 L 166.0 177.8 L 154.0 183.8 L 154.0 173.8 L 46.0 173.8 Z M 46.0 146.5 L 46.0 169.8 L 94.0 169.8 L 94.0 146.5 Z M 106.0 146.5 L 106.0 169.8 L 154.0 169.8 L 154.0 146.5 Z M 46.0 119.2 L 46.0 142.5 L 94.0 142.5 L 94.0 119.2 Z M 106.0 119.2 L 106.0 142.5 L 154.0 142.5 L 154.0 119.2 Z M 146.0 94.0 L 160.0 94.0 L 161.2 93.9 L 162.1 93.7 L 163.0 93.4 L 163.4 93.0 L 163.7 92.1 L 163.9 91.2 L 164.0 90.0 L 164.0 44.0 L 113.5 44.0 L 113.5 99.2 L 102.5 104.7 L 102.5 34.5 L 113.5 40.0 L 134.0 40.0 L 134.0 12.0 L 146.0 14.0 L 149.0 16.0 L 146.0 17.8 L 146.0 24.0 L 164.8181818008423 24.0 L 173.0 15.0 L 183.0 24.0 L 183.0 28.0 L 146.0 28.0 L 146.0 40.0 L 164.0 40.0 L 170.0 35.0 L 181.0 44.0 L 176.0 48.0 L 176.0 90.0 L 175.8 92.5 L 175.4 95.0 L 174.6 97.4 L 173.3 99.7 L 171.7 101.7 L 169.7 103.3 L 167.4 104.6 L 165.0 105.4 L 162.5 105.8 L 160.0 106.0 L 160.0 100.0 L 146.0 97.0 Z M 65.2 94.5 L 79.2 94.5 L 80.2 94.4 L 80.8 94.3 L 81.2 94.1 L 81.5 94.0 L 81.6 93.8 L 81.8 93.6 L 82.0 93.1 L 82.2 92.4 L 82.4 91.3 L 82.5 90.0 L 82.5 44.0 L 33.0 44.0 L 33.0 99.0 L 21.0 105.0 L 21.0 34.0 L 33.0 40.0 L 50.0 40.0 L 50.0 12.0 L 62.0 14.0 L 65.0 16.0 L 62.0 17.8 L 62.0 24.0 L 80.81818180084228 24.0 L 89.0 15.0 L 99.0 24.0 L 99.0 28.0 L 62.0 28.0 L 62.0 40.0 L 82.5 40.0 L 88.0 35.0 L 98.5 44.0 L 93.5 47.5 L 93.5 90.0 L 93.3 92.4 L 93.0 94.7 L 92.3 97.0 L 91.3 99.1 L 89.9 101.1 L 88.1 102.7 L 86.1 104.0 L 83.9 104.8 L 81.6 105.3 L 79.2 105.5 L 79.2 100.0 L 65.2 97.2 Z M 76.0 64.0 L 76.0 68.0 L 39.0 68.0 L 39.0 64.0 L 57.81818180084228 64.0 L 66.0 55.0 Z M 160.0 64.0 L 160.0 68.0 L 121.0 68.0 L 121.0 64.0 L 141.8181818008423 64.0 L 150.0 55.0 Z " />
</g>
</svg>
