<svg xmlns="http://www.w3.org/2000/svg" xmlns:xlink="http://www.w3.org/1999/xlink" version="1.1" baseProfile="full" viewBox="0 0 200 200" width="200" height="200">
<g fill="black">
<path d="M 105.0 19.0 L 108.0 21.0 L 105.0 22.8 L 105.0 40.0 L 152.0 40.0 L 162.0 30.0 L 174.0 40.0 L 174.0 44.0 L 105.0 44.0 L 105.0 67.0 L 158.0 67.0 L 164.0 62.0 L 175.0 71.0 L 170.0 75.0 L 170.0 180.0 L 158.0 186.0 L 158.0 176.0 L 42.0 176.0 L 42.0 183.0 L 30.0 189.0 L 30.0 61.0 L 42.0 67.0 L 93.0 67.0 L 93.0 17.0 Z M 42.0 172.0 L 158.0 172.0 L 158.0 71.0 L 42.0 71.0 Z M 51.4 147.5 L 93.5 147.5 L 93.5 111.1 L 58.8 111.1 L 58.8 107.1 L 93.5 107.1 L 93.5 78.8 L 105.5 80.8 L 108.5 82.8 L 105.5 84.6 L 105.5 107.1 L 118.1 107.1 L 128.1 97.1 L 140.1 107.1 L 140.1 111.1 L 105.5 111.1 L 105.5 147.5 L 125.5 147.5 L 135.5 137.5 L 147.5 147.5 L 147.5 151.5 L 51.4 151.5 Z " />
</g>
</svg>
