<svg xmlns="http://www.w3.org/2000/svg" xmlns:xlink="http://www.w3.org/1999/xlink" version="1.1" baseProfile="full" viewBox="0 0 200 200" width="200" height="200">
<g fill="black">
<path d="M 166.4 109.6 L 162.7 106.4 L 158.7 103.2 L 154.4 100.2 L 149.9 97.2 L 145.0 94.2 L 139.9 91.3 L 134.5 88.2 L 131.0 86.2625 L 131.0 183.0 L 119.0 189.0 L 119.0 18.0 L 131.0 20.0 L 134.0 22.0 L 131.0 23.8 L 131.0 83.7046875 L 135.9 84.7 L 142.0 86.3 L 147.8 88.3 L 153.4 90.4 L 158.6 92.8 L 163.7 95.4 L 168.5 98.2 L 173.0 101.1 L 177.3 104.2 L 181.4 107.6 L 183.1 111.8 L 181.5 116.0 L 177.2 117.8 L 173.0 116.1 L 169.8 112.8 Z M 35.5 180.1 L 33.0 179.6 L 30.6 178.8 L 28.3 177.6 L 26.3 175.9 L 24.7 173.9 L 23.5 171.7 L 22.7 169.2 L 22.2 166.8 L 22.1 164.2 L 22.1 23.7 L 34.1 25.7 L 37.1 27.7 L 34.1 29.5 L 34.1 96.95 L 41.0 93.5 L 47.5 90.0 L 54.0 86.4 L 60.4 82.5 L 66.7 78.4 L 73.0 74.0 L 79.3 69.4 L 85.5 64.5 L 90.93761072158813 59.9394232749939 L 90.9 59.9 L 91.8 59.2 L 99.2 68.6 L 99.5 72.2 L 96.02335767745971 70.93576641082764 L 92.4 73.6 L 85.5 78.2 L 78.5 82.4 L 71.5 86.4 L 64.5 90.0 L 57.3 93.2 L 50.2 96.0 L 43.0 98.5 L 35.7 100.4 L 34.1 100.7027027130127 L 34.1 165.4 L 34.3 166.3 L 34.5 166.9 L 34.7 167.3 L 35.0 167.6 L 35.3 167.8 L 35.9 168.0 L 36.8 168.1 L 38.1 168.2 L 92.7 168.2 L 98.7 143.2 L 100.7 143.2 L 98.7 168.2 L 102.3 170.6 L 104.7 174.2 L 102.3 177.8 L 98.7 180.2 L 38.1 180.2 Z " />
</g>
</svg>
