<svg xmlns="http://www.w3.org/2000/svg" xmlns:xlink="http://www.w3.org/1999/xlink" version="1.1" baseProfile="full" viewBox="0 0 200 200" width="200" height="200">
<g fill="black">
<path d="M 60.0 109.2 L 56.9 106.0 L 53.7 102.9 L 50.3 99.9 L 46.7 97.0 L 42.9 94.0 L 38.9 91.1 L 35.0 88.34146337509155 L 35.0 183.0 L 23.0 189.0 L 23.0 18.0 L 35.0 20.0 L 38.0 22.0 L 35.0 23.8 L 35.0 84.52307691574097 L 36.4 84.9 L 41.4 86.5 L 46.1 88.5 L 50.7 90.7 L 55.1 93.1 L 59.3 95.6 L 63.3 98.4 L 67.2 101.3 L 70.9 104.4 L 74.4 107.7 L 75.9 112.0 L 74.0 116.2 L 69.6 117.6 L 65.5 115.7 L 62.8 112.4 Z M 167.3 157.4 L 163.0 151.9 L 158.9 146.3 L 155.1 140.4 L 151.4 134.4 L 148.42844667434693 128.98128509521484 L 149.4 137.8 L 149.6 149.8 L 148.8 162.0 L 146.9 174.4 L 146.2 176.9 L 145.3 179.2 L 144.1 181.4 L 142.6 183.4 L 140.7 185.2 L 138.7 186.6 L 136.4 187.7 L 134.0 188.4 L 131.5 188.8 L 129.0 189.0 L 129.0 183.0 L 109.0 180.0 L 109.0 177.0 L 129.0 177.0 L 130.2 176.9 L 131.3 176.7 L 132.1 176.5 L 132.7 176.2 L 133.2 175.8 L 134.1 174.9 L 134.5 174.1 L 134.8 173.2 L 135.2 171.9 L 137.5 160.5 L 138.9 149.2 L 139.3 138.1 L 138.9 127.2 L 138.33461542129515 122.79807691574096 L 135.2 127.5 L 129.5 134.9 L 126.63860530853272 138.23047580718995 L 128.5 142.4 L 130.8 148.3 L 130.3 152.8 L 126.8 155.8 L 122.3 155.3 L 119.3 151.9 L 118.1085241317749 147.45182361602784 L 116.8 148.8 L 109.8 155.3 L 102.4 161.5 L 94.6 167.4 L 86.3 172.8 L 77.4 177.7 L 76.5 176.2 L 84.0 169.7 L 91.2 163.2 L 98.1 156.6 L 104.5 149.9 L 110.6 143.1 L 114.89837131500244 137.72703580856324 L 114.1 135.5 L 112.0 130.3 L 109.7 125.3 L 107.3 120.4 L 106.08447408676147 118.19404563903808 L 104.2 120.0 L 99.2 124.4 L 94.0 128.7 L 88.6 132.6 L 87.3 131.3 L 91.3 126.0 L 95.4 120.7 L 99.4 115.6 L 102.33122529983521 111.69169960021972 L 99.0 106.1 L 96.0 101.3 L 97.3 100.1 L 101.8 103.6 L 105.72802772521973 107.16262979507447 L 107.2 105.2 L 111.0 100.0 L 118.2 89.4 L 124.95253810882568 78.67538070678711 L 122.7 73.9 L 118.28585634231567 65.96950464248657 L 116.5 68.1 L 110.4 74.9 L 103.7 81.9 L 96.6 88.8 L 88.9 95.7 L 80.6 102.6 L 79.3 101.3 L 86.2 93.1 L 92.7 85.2 L 98.8 77.5 L 104.6 70.1 L 109.9 62.8 L 114.7 55.8 L 119.1 48.9 L 123.1 42.2 L 126.6 35.6 L 127.3555555343628 34.0 L 86.0 34.0 L 86.0 30.0 L 162.0 30.0 L 172.0 20.0 L 184.0 30.0 L 184.0 34.0 L 140.62307691574097 34.0 L 140.3 34.6 L 136.5 41.2 L 132.2 47.8 L 127.4 54.5 L 122.2 61.3 L 119.81971578598022 64.1396372795105 L 125.9 71.9 L 132.5 82.0 L 133.85983610153198 84.5960506439209 L 134.9 85.3 L 134.50777463912965 85.83302421569825 L 138.0 92.5 L 139.54486989974976 96.32706413269042 L 141.0 94.4 L 144.7 89.8 L 148.3 85.3 L 152.0 81.0 L 159.0 72.8 L 162.4 68.9 L 165.7 65.0 L 168.8 61.2 L 171.2576283454895 58.34598007202148 L 171.2 58.3 L 172.2 57.2 L 180.6 65.8 L 181.4 69.3 L 177.71147327423097 68.52346801757812 L 177.1 69.1 L 173.4 72.5 L 169.5 75.9 L 165.6 79.4 L 161.5 82.9 L 157.3 86.4 L 152.9 90.0 L 148.4 93.6 L 143.6 97.2 L 140.694730758667 99.17558307647705 L 142.4 103.4 L 144.84931774139403 111.46834087371826 L 145.3 111.7 L 145.0456871032715 112.11520471572877 L 145.22489852905272 112.7055480003357 L 145.6 113.2 L 149.9 118.8 L 154.1 124.3 L 158.3 129.7 L 162.6 134.9 L 167.0 139.9 L 171.4 144.8 L 176.0 149.4 L 180.7 153.9 L 185.5 158.2 L 187.1 159.7 L 176.4 167.7 L 171.7 162.6 Z M 126.8 95.8 L 122.6 100.8 L 118.2 105.8 L 113.7 110.7 L 111.20361442565918 113.19638557434082 L 113.7 116.3 L 117.1 121.1 L 120.3 126.1 L 121.65053262710572 128.52164468765258 L 126.3 121.5 L 130.6 113.9 L 134.6 106.2 L 135.31727714538573 106.56869382858277 L 135.1 105.6 L 131.9 95.0 L 130.42484073638917 91.31210193634033 Z " />
</g>
</svg>
