<svg xmlns="http://www.w3.org/2000/svg" xmlns:xlink="http://www.w3.org/1999/xlink" version="1.1" baseProfile="full" viewBox="0 0 200 200" width="200" height="200">
<g fill="black">
<path d="M 63.6 109.3 L 60.3 106.2 L 56.8 103.1 L 53.0 100.1 L 49.0 97.1 L 44.7 94.2 L 40.2 91.2 L 35.4 88.2 L 32.9 86.65 L 32.9 183.0 L 20.9 189.0 L 20.9 18.0 L 32.9 20.0 L 35.9 22.0 L 32.9 23.8 L 32.9 83.90344829559326 L 36.9 84.8 L 42.5 86.4 L 47.7 88.3 L 52.8 90.5 L 57.6 92.9 L 62.2 95.5 L 66.5 98.3 L 70.6 101.2 L 74.5 104.4 L 78.2 107.7 L 79.7 112.0 L 77.9 116.2 L 73.6 117.7 L 69.4 115.8 L 66.6 112.5 Z M 182.0 146.0 L 184.0 146.0 L 182.0 171.0 L 185.6 173.4 L 188.0 177.0 L 185.6 180.6 L 182.0 183.0 L 148.0 183.0 L 145.4 182.8 L 142.9 182.4 L 140.5 181.6 L 138.2 180.3 L 136.2 178.7 L 134.6 176.7 L 133.3 174.4 L 132.5 172.0 L 132.1 169.5 L 132.0 167.0 L 132.0 108.0 L 123.67163124084473 108.0 L 121.6 120.7 L 118.4 133.6 L 114.3 145.3 L 109.5 155.7 L 103.7 164.8 L 97.1 172.6 L 89.7 178.9 L 81.5 183.8 L 72.6 187.1 L 63.1 188.8 L 62.8 187.1 L 71.3 183.6 L 78.9 179.1 L 85.6 173.8 L 91.5 167.5 L 96.7 160.1 L 101.2 151.6 L 104.9 141.8 L 108.0 130.9 L 110.4 118.7 L 111.66377954483032 108.0 L 102.0 108.0 L 102.0 120.0 L 90.0 126.0 L 90.0 35.0 L 102.0 41.0 L 117.85625 41.0 L 118.6 39.3 L 119.6 36.1 L 120.7 32.9 L 121.7 30.0 L 122.8 27.1 L 123.8 24.3 L 124.7 21.6 L 125.6 19.0 L 126.4 16.5 L 126.81262140274048 15.14424409866333 L 126.7 15.1 L 127.0222222328186 14.455555534362793 L 127.1 14.2 L 127.14014873504638 14.219702625274659 L 127.7 13.1 L 137.9 19.5 L 139.7 22.7 L 135.31140422821045 22.99753189086914 L 134.7 23.8 L 131.3 28.4 L 129.4 30.8 L 127.4 33.2 L 125.4 35.7 L 123.2 38.2 L 120.8 40.7 L 120.5666666984558 41.0 L 164.0 41.0 L 170.0 36.0 L 181.0 45.0 L 176.0 49.0 L 176.0 114.0 L 164.0 120.0 L 164.0 108.0 L 144.0 108.0 L 144.0 168.2 L 144.2 169.1 L 144.5 170.0 L 144.9 170.4 L 145.8 170.7 L 146.7 170.9 L 148.0 171.0 L 176.0 171.0 Z M 102.0 76.0 L 102.0 104.0 L 127.0 104.0 L 127.0 76.0 Z M 139.0 76.0 L 139.0 104.0 L 164.0 104.0 L 164.0 76.0 Z M 102.0 45.0 L 102.0 72.0 L 127.0 72.0 L 127.0 45.0 Z M 139.0 45.0 L 139.0 72.0 L 164.0 72.0 L 164.0 45.0 Z " />
</g>
</svg>
