<svg xmlns="http://www.w3.org/2000/svg" xmlns:xlink="http://www.w3.org/1999/xlink" version="1.1" baseProfile="full" viewBox="0 0 200 200" width="200" height="200">
<g fill="black">
<path d="M 102.3 179.5 L 100.8 181.5 L 99.0 183.2 L 97.1 184.7 L 94.9 185.9 L 92.6 186.8 L 90.3 187.5 L 87.8 187.8 L 85.3 188.0 L 85.3 182.0 L 65.3 179.0 L 65.3 176.0 L 85.3 176.0 L 86.6 175.9 L 87.8 175.7 L 88.8 175.4 L 89.7 175.1 L 90.5 174.6 L 91.2 174.1 L 91.9 173.4 L 92.5 172.6 L 93.2 171.6 L 93.8 170.4 L 95.4 165.7 L 97.0 159.1 L 98.4 150.7 L 99.6 140.6 L 100.7 128.7 L 101.6 115.1 L 102.3 99.8 L 102.8 82.9 L 103.1 64.3 L 103.19014778137208 46.0 L 40.269902896881106 46.0 L 40.2 46.3 L 37.5 56.3 L 34.5 66.1 L 31.2 75.6 L 27.6 84.8 L 23.6 93.7 L 19.2 102.2 L 14.3 110.3 L 12.7 109.6 L 15.7 100.7 L 18.6 91.7 L 21.4 82.6 L 24.0 73.3 L 26.3 63.8 L 28.5 54.1 L 30.4 44.2 L 32.1 34.1 L 33.5 23.8 L 34.58638830184937 14.203569793701172 L 34.5 14.2 L 34.9 11.1 L 46.6 14.7 L 49.3 17.1 L 45.91970872879028 18.56691884994507 L 44.7 25.5 L 42.6 36.0 L 41.20194177627563 42.0 L 103.2 42.0 L 109.2 37.0 L 120.2 46.0 L 115.2 49.0 L 115.17544002532959 49.010233306884764 L 115.1 64.4 L 114.8 83.2 L 114.3 100.3 L 113.6 115.8 L 112.7 129.6 L 111.6 141.8 L 110.3 152.5 L 108.7 161.5 L 106.9 169.0 L 104.8 175.2 L 103.6 177.4 Z M 158.5 148.9 L 169.8 148.9 L 170.7 148.7 L 171.3 148.5 L 171.6 148.3 L 171.8 148.2 L 171.9 148.0 L 172.1 147.7 L 172.3 147.1 L 172.5 146.2 L 172.5 28.8 L 144.8 28.8 L 144.8 179.6 L 132.8 185.6 L 132.8 18.8 L 144.8 24.8 L 172.5 24.8 L 178.5 19.8 L 189.5 28.8 L 184.5 32.8 L 184.5 144.9 L 184.4 147.5 L 184.0 150.0 L 183.1 152.4 L 181.9 154.7 L 180.3 156.7 L 178.3 158.3 L 176.0 159.5 L 173.6 160.3 L 171.1 160.8 L 168.5 160.9 L 168.5 154.9 L 158.5 151.9 Z M 49.4 77.7 L 68.7 77.7 L 74.7 72.7 L 85.7 81.7 L 80.7 85.7 L 80.7 141.2 L 68.7 147.2 L 68.7 135.2 L 49.4 135.2 L 49.4 147.2 L 37.4 153.2 L 37.4 71.7 Z M 49.4 81.7 L 49.4 131.2 L 68.7 131.2 L 68.7 81.7 Z " />
</g>
</svg>
