<svg xmlns="http://www.w3.org/2000/svg" xmlns:xlink="http://www.w3.org/1999/xlink" version="1.1" baseProfile="full" viewBox="0 0 200 200" width="200" height="200">
<g fill="black">
<path d="M 97.1 176.9 L 95.2 174.8 L 93.2 172.7 L 93.16428575515747 172.66428575515747 L 88.8 173.5 L 79.7 175.1 L 70.8 176.4 L 62.3 177.6 L 54.1 178.6 L 46.2 179.6 L 38.6 180.5 L 31.2 181.3 L 24.2 182.0 L 21.555355262756347 182.27630615234375 L 19.6 185.5 L 17.5 182.7 L 14.9 170.8 L 16.9 170.7 L 23.6 170.6 L 30.6 170.5 L 37.9 170.4 L 40.577272701263425 170.36477270126343 L 40.9 169.8 L 42.4 167.1 L 43.8 164.5 L 45.2 162.0 L 46.5 159.7 L 47.7 157.4 L 48.8 155.2 L 49.70476188659668 153.3 L 34.0 153.3 L 34.0 160.3 L 22.0 166.3 L 22.0 113.9 L 34.0 119.9 L 55.0 119.9 L 55.8 116.5 L 56.1 114.9 L 56.7 111.9 L 56.9 110.5 L 57.1 109.3 L 57.2 108.0 L 57.2 107.95714282989502 L 56.8 107.8 L 57.2 107.0 L 57.2 106.9 L 57.24014873504639 106.91970262527465 L 57.8 105.8 L 68.0 112.2 L 69.8 115.3 L 64.0 115.8 L 64.5 115.35 L 63.6 116.1 L 61.0 118.1 L 59.6 119.1 L 58.4 119.9 L 90.9 119.9 L 96.9 114.9 L 107.9 123.9 L 102.9 127.9 L 102.9 153.3 L 90.9 159.3 L 90.9 153.3 L 54.96000003814697 153.3 L 60.6 157.8 L 61.9 161.2 L 57.52533082962036 160.89829864501954 L 57.1 161.3 L 53.1 164.9 L 51.0 166.8 L 46.782565116882324 170.28396797180176 L 53.5 170.2 L 61.7 170.0 L 70.3 169.8 L 79.2 169.7 L 88.4 169.8 L 90.22168674468995 169.81897592544556 L 88.6 168.4 L 86.0 166.3 L 83.3 164.1 L 80.5 161.8 L 77.4 159.9 L 78.1 158.2 L 81.7 159.4 L 85.3 160.3 L 88.8 161.4 L 92.1 162.7 L 95.2 164.1 L 98.3 165.7 L 101.2 167.3 L 104.0 169.1 L 106.6 170.9 L 109.1 172.9 L 110.7 177.2 L 108.9 181.4 L 104.6 183.0 L 100.4 181.2 L 98.8 179.0 Z M 152.2 153.0 L 164.2 153.0 L 165.4 152.9 L 166.3 152.7 L 166.9 152.5 L 167.3 152.4 L 167.4 152.2 L 167.6 152.0 L 167.8 151.7 L 168.0 151.1 L 168.1 150.2 L 168.2 149.0 L 168.2 36.0 L 132.4 36.0 L 132.4 183.0 L 120.4 189.0 L 120.4 26.0 L 132.4 32.0 L 168.2 32.0 L 174.2 27.0 L 185.2 36.0 L 180.2 40.0 L 180.2 149.0 L 180.1 151.5 L 179.6 154.0 L 178.8 156.4 L 177.6 158.7 L 175.9 160.7 L 173.9 162.3 L 171.7 163.6 L 169.2 164.4 L 166.8 164.8 L 164.2 165.0 L 164.2 159.0 L 152.2 156.0 Z M 34.0 138.3 L 34.0 149.3 L 90.9 149.3 L 90.9 138.3 Z M 34.0 123.9 L 34.0 134.3 L 90.9 134.3 L 90.9 123.9 Z M 31.6 103.3 L 19.6 109.3 L 19.6 54.2 L 31.6 60.2 L 93.3 60.2 L 99.3 55.2 L 110.3 64.2 L 105.3 68.2 L 105.3 102.3 L 93.3 108.3 L 93.3 100.3 L 31.6 100.3 Z M 31.6 82.0 L 31.6 96.3 L 56.5 96.3 L 56.5 82.0 Z M 68.5 82.0 L 68.5 96.3 L 93.3 96.3 L 93.3 82.0 Z M 31.6 64.2 L 31.6 78.0 L 56.5 78.0 L 56.5 64.2 Z M 68.5 64.2 L 68.5 78.0 L 93.3 78.0 L 93.3 64.2 Z M 93.9 48.2 L 93.1 46.6 L 92.1 44.8 L 90.9 43.1 L 89.7 41.3 L 88.2 39.5 L 86.7 37.6 L 85.0 35.6 L 82.9 34.1 L 83.27720584869385 33.429411792755126 L 83.0 33.6 L 81.9 32.1 L 84.2 30.0 L 86.0 27.7 L 87.7 25.4 L 89.4 23.2 L 90.9 21.2 L 92.3 19.2 L 93.5 17.2 L 94.7 15.4 L 95.6 13.6 L 96.03026485443115 12.787277507781983 L 95.9 12.7 L 96.46603775024414 11.96415090560913 L 96.5 11.9 L 96.50953350067138 11.907606506347657 L 96.9 11.4 L 105.9 19.4 L 107.0 22.8 L 102.39799995422364 22.154105281829835 L 102.2 22.3 L 100.2 23.8 L 98.1 25.2 L 95.9 26.6 L 93.5 28.0 L 91.0 29.4 L 88.4 30.7 L 85.6 32.0 L 84.34482755661011 32.77241382598877 L 86.2 33.7 L 88.8 34.5 L 91.2 35.4 L 93.6 36.5 L 95.8 37.6 L 97.9 38.9 L 99.9 40.3 L 101.8 41.8 L 103.6 43.4 L 105.3 45.1 L 106.0 49.6 L 103.4 53.4 L 98.9 54.1 L 95.1 51.5 L 94.6 49.9 Z M 62.0 48.2 L 61.2 46.6 L 60.2 44.8 L 59.1 43.1 L 57.8 41.3 L 56.4 39.5 L 54.8 37.6 L 53.1 35.6 L 51.0 34.1 L 51.37720584869385 33.429411792755126 L 51.1 33.6 L 50.0 32.1 L 52.3 30.0 L 55.9 25.4 L 57.5 23.2 L 59.0 21.2 L 60.4 19.2 L 61.7 17.2 L 62.8 15.4 L 63.8 13.6 L 64.1699462890625 12.813864040374757 L 64.0 12.7 L 64.50361442565918 12.104819297790527 L 64.6 11.9 L 64.64592084884643 11.936639022827148 L 65.1 11.4 L 74.0 19.4 L 75.2 22.8 L 70.58526973724365 22.16348543167114 L 70.4 22.3 L 68.4 23.8 L 64.0 26.6 L 61.7 28.0 L 59.2 29.4 L 56.5 30.7 L 53.7 32.0 L 52.44482755661011 32.77241382598877 L 54.3 33.7 L 56.9 34.5 L 59.3 35.4 L 61.7 36.5 L 63.9 37.6 L 66.0 38.9 L 68.0 40.3 L 69.9 41.8 L 71.7 43.4 L 73.4 45.1 L 74.1 49.6 L 71.6 53.4 L 67.0 54.1 L 63.3 51.5 L 62.7 49.9 Z M 30.2 48.2 L 29.3 46.6 L 28.3 44.8 L 27.2 43.1 L 25.9 41.3 L 24.5 39.5 L 22.9 37.6 L 21.2 35.6 L 19.1 34.1 L 19.471875 33.43888893127441 L 19.2 33.6 L 18.2 32.1 L 20.4 30.0 L 24.0 25.4 L 25.6 23.2 L 27.1 21.2 L 28.5 19.2 L 29.8 17.2 L 30.9 15.4 L 31.9 13.6 L 32.27035064697266 12.813004875183106 L 32.1 12.7 L 32.60361442565918 12.104819297790527 L 32.7 11.9 L 32.74611654281616 11.93640775680542 L 33.2 11.4 L 42.2 19.4 L 43.3 22.8 L 38.68526973724365 22.16348543167114 L 38.5 22.3 L 36.5 23.8 L 34.4 25.2 L 29.8 28.0 L 27.3 29.4 L 24.7 30.7 L 21.9 32.0 L 20.572881317138673 32.78644065856933 L 22.4 33.7 L 25.0 34.5 L 27.5 35.4 L 29.8 36.5 L 32.0 37.6 L 34.1 38.9 L 36.2 40.3 L 38.1 41.8 L 39.9 43.4 L 41.5 45.1 L 42.3 49.6 L 39.7 53.4 L 35.2 54.1 L 31.4 51.5 L 30.8 49.9 Z " />
</g>
</svg>
