<svg xmlns="http://www.w3.org/2000/svg" xmlns:xlink="http://www.w3.org/1999/xlink" version="1.1" baseProfile="full" viewBox="0 0 200 200" width="200" height="200">
<g fill="black">
<path d="M 16.2 174.3 L 24.1 173.9 L 32.4 173.4 L 33.3 173.34886360168457 L 33.3 124.6 L 45.3 126.6 L 48.3 128.6 L 45.3 130.4 L 45.3 172.58804349899293 L 50.4 172.2 L 60.2 171.4 L 66.0 170.94059410095215 L 66.0 104.2 L 78.0 106.2 L 81.0 108.2 L 78.0 110.0 L 78.0 135.2 L 93.11818180084228 135.2 L 101.3 126.2 L 111.3 135.2 L 111.3 139.2 L 78.0 139.2 L 78.0 170.02429904937745 L 81.0 169.8 L 92.1 168.9 L 103.6 168.1 L 115.7 167.4 L 116.0 169.2 L 104.2 171.8 L 92.8 174.2 L 81.8 176.3 L 71.3 178.2 L 61.2 179.9 L 51.5 181.4 L 42.3 182.8 L 33.5 184.1 L 25.1 185.3 L 21.290554237365722 185.78220834732056 L 19.5 189.1 L 17.2 186.3 L 14.2 174.5 Z M 153.5 153.0 L 165.5 153.0 L 166.7 152.9 L 167.6 152.7 L 168.5 152.4 L 168.9 152.0 L 169.2 151.1 L 169.4 150.2 L 169.5 149.0 L 169.5 36.0 L 136.0 36.0 L 136.0 183.0 L 124.0 189.0 L 124.0 26.0 L 136.0 32.0 L 169.5 32.0 L 175.5 27.0 L 186.5 36.0 L 181.5 40.0 L 181.5 149.0 L 181.3 151.5 L 180.9 154.0 L 180.1 156.4 L 178.8 158.7 L 177.2 160.7 L 175.2 162.3 L 172.9 163.6 L 170.5 164.4 L 168.0 164.8 L 165.5 165.0 L 165.5 159.0 L 153.5 156.0 Z M 54.1 91.1 L 54.0 89.6 L 53.97288885116577 89.45540742874145 L 50.2 91.1 L 42.4 94.1 L 38.4 95.4 L 34.5 96.8 L 30.5 98.0 L 26.5 99.3 L 22.653096199035645 100.48366270065307 L 21.1 104.2 L 18.6 101.7 L 14.2 90.3 L 16.2 89.9 L 23.515263175964357 89.00789470672608 L 26.4 84.2 L 29.4 79.3 L 32.3 74.7 L 34.05387716293335 71.88126888275147 L 30.7 72.1 L 27.2 69.2 L 27.2 68.4 L 27.0 67.4 L 26.6 66.1 L 25.9 64.7 L 24.9 63.2 L 23.8 61.6 L 22.4 59.8 L 20.8 58.0 L 19.1 56.0 L 16.8 54.4 L 17.7 52.8 L 20.2 54.1 L 22.8 54.9 L 25.3 55.8 L 25.733576679229735 55.97737226486206 L 26.5 54.7 L 28.0 51.5 L 29.4 48.5 L 30.7 45.7 L 32.0 43.0 L 33.1 40.4 L 34.2 37.9 L 35.1 35.5 L 35.9 33.3 L 36.274803161621094 32.17559051513672 L 36.1 32.1 L 36.57142858505249 31.28571424484253 L 36.6 31.2 L 36.61605453491211 31.208633136749267 L 37.2 30.2 L 47.2 36.9 L 48.9 40.1 L 44.45183248519898 40.25078535079956 L 42.2 42.9 L 40.3 45.0 L 36.1 49.4 L 31.3 54.0 L 28.6 56.3 L 27.974193572998047 56.92580642700195 L 29.6 57.7 L 31.5 58.7 L 33.3 59.8 L 36.5 62.2 L 37.8 63.7 L 37.96011734008789 65.54134893417358 L 40.4 61.6 L 42.9 57.5 L 45.2 53.5 L 47.4 49.7 L 47.44405288696289 49.72951545715332 L 47.9 49.0 L 57.4 56.4 L 58.8 59.7 L 54.986740303039554 59.502762413024904 L 54.6 60.0 L 51.7 63.7 L 48.6 67.4 L 45.3 71.3 L 41.9 75.2 L 38.3 79.2 L 34.6 83.3 L 30.6 87.5 L 29.808856582641603 88.27230663299561 L 32.6 88.0 L 36.7 87.5 L 40.8 87.1 L 45.0 86.7 L 49.1 86.4 L 53.170370388031 86.20617284774781 L 52.6 84.4 L 51.7 82.5 L 49.6 78.3 L 47.8 76.5 L 49.0 75.2 L 51.1 76.7 L 53.3 77.9 L 55.4 79.3 L 57.4 80.7 L 59.2 82.2 L 60.8 83.8 L 62.3 85.6 L 63.6 87.4 L 64.8 89.4 L 65.7 91.5 L 64.7 95.9 L 60.9 98.5 L 56.5 97.5 L 53.9 93.7 L 54.1 92.5 Z M 106.6 93.1 L 106.1 90.6 L 105.83581266403198 89.69421491622924 L 105.0 90.0 L 100.8 91.5 L 96.8 92.9 L 88.8 95.3 L 81.0 97.3 L 77.2 98.3 L 74.0123077392578 99.0753846168518 L 72.2 102.7 L 69.8 100.0 L 66.3 88.4 L 68.3 88.1 L 72.0 88.0 L 75.67932958602906 87.80111732482911 L 77.6 84.6 L 80.4 80.0 L 83.3 75.3 L 86.2 70.5 L 86.23821592330933 70.43542823791503 L 82.5 71.1 L 78.7 68.5 L 78.2 67.0 L 77.5 65.3 L 76.6 63.7 L 75.6 62.0 L 74.3 60.2 L 72.9 58.4 L 71.3 56.5 L 69.6 54.6 L 67.7 52.5 L 65.4 50.9 L 66.3 49.3 L 68.9 50.5 L 71.7 51.3 L 74.3 52.3 L 76.15992412567138 53.15246524810791 L 78.4 48.5 L 79.6 45.8 L 80.8 43.2 L 81.9 40.6 L 83.0 38.1 L 84.0 35.5 L 85.49718570709229 31.341150760650635 L 85.4 31.3 L 85.75443038940429 30.62658224105835 L 85.8 30.5 L 85.81656990051269 30.508517265319824 L 86.4 29.4 L 96.5 36.0 L 98.2 39.1 L 93.92123613357543 39.39508714675903 L 92.9 40.7 L 89.1 45.3 L 87.0 47.5 L 84.9 49.6 L 82.6 51.7 L 80.3 53.7 L 79.10888290405273 54.6052490234375 L 81.3 55.9 L 83.4 57.2 L 85.3 58.7 L 87.2 60.3 L 88.9 62.0 L 89.3743938446045 65.11744527816772 L 92.0 60.5 L 94.9 55.2 L 97.9 49.8 L 100.32731113433837 45.11277856826782 L 100.3 45.1 L 101.3 43.3 L 111.2 50.2 L 112.8 53.5 L 109.03999996185303 53.5 L 107.6 55.7 L 104.0 60.9 L 100.4 65.9 L 96.8 70.8 L 93.1 75.4 L 89.4 79.8 L 85.6 84.0 L 82.12083044052125 87.57072668075561 L 83.5 87.5 L 87.5 87.3 L 91.6 87.1 L 95.7 87.0 L 100.0 86.8 L 104.4 86.8 L 104.96527776718139 86.7871527671814 L 104.6 85.6 L 103.7 83.1 L 102.6 80.5 L 101.4 77.8 L 100.2 75.0 L 98.4 72.4 L 99.8 71.2 L 102.1 73.4 L 104.6 75.3 L 106.9 77.4 L 109.1 79.6 L 111.1 81.9 L 113.0 84.3 L 114.7 86.7 L 117.7 91.9 L 118.9 94.7 L 118.3 99.2 L 114.7 102.0 L 110.2 101.4 L 107.3 97.9 L 107.1 95.5 Z M 118.0 23.0 L 118.0 27.0 L 15.0 27.0 L 15.0 23.0 L 96.0 23.0 L 106.0 13.0 Z " />
</g>
</svg>
