<svg xmlns="http://www.w3.org/2000/svg" xmlns:xlink="http://www.w3.org/1999/xlink" version="1.1" baseProfile="full" viewBox="0 0 200 200" width="200" height="200">
<g fill="black">
<path d="M 106.3 165.5 L 121.5 165.5 L 122.4 165.3 L 123.0 165.1 L 123.3 164.9 L 123.5 164.8 L 123.7 164.6 L 124.0 163.7 L 124.2 162.8 L 124.3 161.5 L 124.3 97.9 L 70.0 97.9 L 70.0 184.9 L 58.0 190.9 L 58.0 87.9 L 70.0 93.9 L 124.3 93.9 L 130.3 88.9 L 141.3 97.9 L 136.3 101.9 L 136.3 161.5 L 136.1 164.1 L 135.7 166.6 L 134.9 169.0 L 133.6 171.3 L 132.0 173.3 L 130.0 174.9 L 127.7 176.2 L 125.3 177.0 L 122.8 177.4 L 120.3 177.5 L 120.3 171.5 L 106.3 168.5 Z M 130.0 21.0 L 166.0 21.0 L 172.0 16.0 L 183.0 25.0 L 178.0 29.0 L 178.0 84.5 L 166.0 90.5 L 166.0 78.5 L 34.0 78.5 L 34.0 90.5 L 22.0 96.5 L 22.0 15.0 L 34.0 21.0 L 70.0 21.0 L 76.0 16.0 L 87.0 25.0 L 82.0 29.0 L 82.0 48.3 L 118.0 48.3 L 118.0 15.0 Z M 34.0 25.0 L 34.0 74.5 L 166.0 74.5 L 166.0 25.0 L 130.0 25.0 L 130.0 56.3 L 118.0 62.3 L 118.0 52.3 L 82.0 52.3 L 82.0 59.3 L 70.0 65.3 L 70.0 25.0 Z " />
</g>
</svg>
