<svg xmlns="http://www.w3.org/2000/svg" xmlns:xlink="http://www.w3.org/1999/xlink" version="1.1" baseProfile="full" viewBox="0 0 200 200" width="200" height="200">
<g fill="black">
<path d="M 136.0 164.0 L 152.0 164.0 L 153.2 163.9 L 154.1 163.7 L 155.0 163.4 L 155.4 163.0 L 155.7 162.1 L 155.9 161.2 L 156.0 160.0 L 156.0 120.0 L 82.0 120.0 L 88.0 121.0 L 91.0 123.0 L 88.0 124.8 L 88.0 183.0 L 76.0 189.0 L 76.0 120.0 L 22.0 120.0 L 22.0 116.0 L 156.0 116.0 L 162.0 111.0 L 173.0 120.0 L 168.0 124.0 L 168.0 160.0 L 167.8 162.5 L 167.4 165.0 L 166.6 167.4 L 165.3 169.7 L 163.7 171.7 L 161.7 173.3 L 159.4 174.6 L 157.0 175.4 L 154.5 175.8 L 152.0 176.0 L 152.0 170.0 L 136.0 167.0 Z M 70.0 94.1 L 91.2 94.1 L 92.1 93.9 L 92.7 93.7 L 93.0 93.5 L 93.2 93.4 L 93.4 93.2 L 93.7 92.3 L 93.9 91.4 L 94.0 90.1 L 94.0 62.9 L 14.0 62.9 L 14.0 58.9 L 94.0 58.9 L 94.0 45.2 L 104.59310340881348 46.96551723480225 L 107.8 45.0 L 113.6 41.6 L 119.1 38.4 L 124.1 35.4 L 128.8 32.6 L 133.0 30.0 L 136.00833330154418 28.1 L 40.0 28.1 L 40.0 24.1 L 141.78181819915773 24.1 L 143.1 23.1 L 145.6 21.2 L 145.91733045578002 21.66889123916626 L 149.0 19.1 L 160.0 28.1 L 155.0 31.1 L 143.0 36.1 L 143.0 35.76666669845581 L 141.7 36.4 L 137.3 38.3 L 132.6 40.2 L 127.4 42.3 L 121.9 44.3 L 115.8 46.5 L 109.3 48.5 L 108.35500001907349 48.769999980926514 L 109.0 49.2 L 106.0 51.0 L 106.0 58.9 L 164.0 58.9 L 174.0 48.9 L 186.0 58.9 L 186.0 62.9 L 106.0 62.9 L 106.0 90.1 L 105.8 92.7 L 105.4 95.2 L 104.6 97.6 L 103.3 99.9 L 101.7 101.9 L 99.7 103.5 L 97.4 104.7 L 95.0 105.6 L 92.5 106.0 L 90.0 106.1 L 90.0 100.1 L 70.0 97.1 Z " />
</g>
</svg>
