<svg xmlns="http://www.w3.org/2000/svg" xmlns:xlink="http://www.w3.org/1999/xlink" version="1.1" baseProfile="full" viewBox="0 0 200 200" width="200" height="200">
<g fill="black">
<path d="M 70.5 166.6 L 69.97452230453491 165.64458599090577 L 66.4 171.9 L 61.9 178.0 L 56.9 183.1 L 51.4 187.0 L 45.5 189.7 L 44.6 188.2 L 49.1 184.0 L 53.0 179.4 L 56.6 174.1 L 59.8 168.2 L 62.6 161.5 L 63.884848499298094 157.4848484992981 L 63.0 156.6 L 61.369336223602296 155.11757831573487 L 60.8 158.9 L 48.1 163.0 L 54.8289719581604 118.0 L 47.6 118.0 L 47.6 114.0 L 55.42710275650025 114.0 L 59.3 88.1 L 70.9 91.8 L 73.5 94.2 L 70.38548603057862 95.21820650100707 L 67.55842027664184 114.0 L 71.0 114.0 L 77.0 109.0 L 88.0 118.0 L 83.0 121.0 L 82.26774940490722 121.30510444641114 L 81.4 127.9 L 79.3 138.4 L 76.8 148.1 L 74.09627075195313 156.3976519584656 L 74.1 156.4 L 76.5 158.4 L 78.8 160.6 L 80.9 163.0 L 82.8 165.6 L 83.1 170.1 L 80.2 173.6 L 75.6 173.9 L 72.1 171.0 L 71.4 168.8 Z M 34.6 145.0 L 34.6 124.0 L 26.2 124.0 L 26.2 140.0 L 25.8875 145.0 Z M 113.3 187.0 L 111.0 186.1 L 108.9 184.8 L 107.1 183.1 L 105.7 181.1 L 104.7 178.9 L 104.1 176.6 L 103.8 174.3 L 103.8 135.6 L 99.5 135.6 L 99.5 141.1 L 99.30891723632813 141.38662424087525 L 99.5 141.4 L 98.6 148.0 L 97.5 154.2 L 95.9 160.0 L 94.0 165.4 L 91.8 170.3 L 89.2 174.8 L 86.3 178.9 L 83.0 182.4 L 79.3 185.4 L 75.3 187.6 L 74.4 186.5 L 77.1 183.1 L 79.5 179.5 L 81.7 175.8 L 83.6 171.8 L 85.3 167.5 L 86.7 162.9 L 87.8 157.9 L 88.7 152.6 L 89.2 146.9 L 89.5 140.7 L 89.5 135.6 L 84.5 135.6 L 84.5 131.6 L 89.5 131.6 L 89.5 100.5 L 84.0 100.5 L 84.0 96.5 L 103.8 96.5 L 108.3 91.5 L 117.8 100.5 L 112.8 103.0 L 112.8 171.9 L 113.1 173.3 L 113.4 174.3 L 113.8 175.0 L 114.5 175.7 L 114.9 175.8 L 115.4 175.9 L 116.1 175.9 L 117.1 176.0 L 118.3 175.9 L 122.5 177.7 L 124.3 181.9 L 122.5 186.1 L 118.3 187.9 L 115.8 187.6 Z M 153.5 153.0 L 165.5 153.0 L 166.7 152.9 L 167.6 152.7 L 168.5 152.4 L 168.9 152.0 L 169.2 151.1 L 169.4 150.2 L 169.5 149.0 L 169.5 36.0 L 135.5 36.0 L 135.5 183.2 L 124.5 188.7 L 124.5 26.5 L 135.5 32.0 L 169.5 32.0 L 175.5 27.0 L 186.5 36.0 L 181.5 40.0 L 181.5 149.0 L 181.3 151.5 L 180.9 154.0 L 180.1 156.4 L 178.8 158.7 L 177.2 160.7 L 175.2 162.3 L 172.9 163.6 L 170.5 164.4 L 168.0 164.8 L 165.5 165.0 L 165.5 159.0 L 153.5 156.0 Z M 66.95633382797241 118.0 L 62.01178140640259 150.84945220947264 L 62.7 151.0 L 65.52238807678222 151.9104477882385 L 67.1 145.6 L 68.8 136.4 L 70.1 126.4 L 70.7872727394104 118.0 Z M 99.5 100.5 L 99.5 125.7 L 103.8 130.0 L 103.8 100.5 Z M 26.2 101.0 L 26.2 120.0 L 34.6 120.0 L 34.6 101.0 Z M 34.8 64.8 L 96.6 64.8 L 102.6 59.8 L 113.6 68.8 L 108.6 72.8 L 108.6 85.8 L 96.6 91.8 L 96.6 85.8 L 34.8 85.8 L 22.8 91.8 L 22.8 58.8 Z M 34.8 68.8 L 34.8 81.8 L 96.6 81.8 L 96.6 68.8 Z M 29.0 53.5 L 26.8 53.3 L 24.6 52.8 L 22.4 52.0 L 20.5 50.7 L 18.8 49.0 L 17.4 47.0 L 16.4 44.8 L 15.7 42.4 L 15.3 39.8 L 15.3 23.8 L 27.3 29.8 L 58.5 29.8 L 58.5 12.8 L 70.5 14.8 L 73.5 16.8 L 70.5 18.6 L 70.5 29.8 L 95.0 29.8 L 105.0 19.8 L 117.0 29.8 L 117.0 33.8 L 27.3 33.8 L 27.3 39.8 L 27.1 41.1 L 27.1 43.5 L 27.2 44.0 L 27.4 44.5 L 27.9 45.0 L 28.7 45.5 L 29.8 46.0 L 31.3 46.3 L 109.5 46.3 L 111.6 47.7 L 113.0 49.8 L 111.6 51.9 L 109.5 53.3 L 31.3 53.3 Z M 45.1 177.7 L 44.4 180.0 L 43.4 182.1 L 42.0 184.1 L 40.3 185.7 L 38.2 187.0 L 36.0 187.8 L 33.7 188.3 L 31.3 188.5 L 31.3 183.0 L 19.3 180.2 L 19.3 177.5 L 31.3 177.5 L 32.3 177.4 L 33.0 177.3 L 33.6 177.0 L 33.7 176.8 L 33.9 176.6 L 34.1 176.1 L 34.4 175.4 L 34.5 174.3 L 34.6 173.0 L 34.6 149.0 L 25.544262313842772 149.0 L 25.2 152.5 L 24.3 158.3 L 23.2 163.8 L 21.8 169.0 L 20.2 173.9 L 18.3 178.4 L 16.2 182.5 L 13.6 186.2 L 10.8 189.4 L 9.4 188.5 L 10.5 184.6 L 11.6 180.6 L 12.6 176.4 L 13.5 172.0 L 14.2 167.4 L 14.8 162.5 L 15.2 157.3 L 15.4 151.8 L 15.4 146.0 L 15.2 140.0 L 15.2 91.5 L 26.2 97.0 L 34.6 97.0 L 40.1 92.0 L 50.6 101.0 L 45.6 104.5 L 45.6 173.0 L 45.5 175.4 Z " />
</g>
</svg>
