<svg xmlns="http://www.w3.org/2000/svg" xmlns:xlink="http://www.w3.org/1999/xlink" version="1.1" baseProfile="full" viewBox="0 0 200 200" width="200" height="200">
<g fill="black">
<path d="M 71.6 74.3 L 74.1 77.0 L 70.48292961120606 78.09803924560546 L 68.6 84.5 L 64.9 94.3 L 63.28125 98.0 L 87.7 98.0 L 97.7 88.0 L 109.7 98.0 L 109.7 102.0 L 61.53125 102.0 L 60.7 103.9 L 55.9 113.1 L 50.6 122.1 L 48.19913415908813 125.59956712722779 L 53.0 128.0 L 86.9 128.0 L 92.9 123.0 L 103.9 132.0 L 98.9 136.0 L 98.9 177.0 L 86.9 183.0 L 86.9 171.0 L 53.0 171.0 L 53.0 183.0 L 41.0 189.0 L 41.0 135.4246153831482 L 38.2 139.0 L 31.2 147.0 L 23.5 154.5 L 15.1 161.6 L 13.9 160.3 L 20.7 151.9 L 27.0 143.5 L 33.0 135.1 L 38.4 126.5 L 43.3 117.8 L 47.6 108.9 L 50.589999961853025 102.0 L 14.5 102.0 L 14.5 98.0 L 52.17419357299805 98.0 L 54.8 90.6 L 57.7 81.2 L 59.76070919036865 72.50918292999268 L 59.7 72.5 L 60.4 69.8 Z M 53.0 132.0 L 53.0 167.0 L 86.9 167.0 L 86.9 132.0 Z M 151.4 153.0 L 163.4 153.0 L 164.6 152.9 L 165.5 152.7 L 166.4 152.4 L 166.8 152.0 L 167.1 151.1 L 167.3 150.2 L 167.4 149.0 L 167.4 36.0 L 130.0 36.0 L 130.0 183.0 L 118.0 189.0 L 118.0 26.0 L 130.0 32.0 L 167.4 32.0 L 173.4 27.0 L 184.4 36.0 L 179.4 40.0 L 179.4 149.0 L 179.2 151.5 L 178.8 154.0 L 178.0 156.4 L 176.7 158.7 L 175.1 160.7 L 173.1 162.3 L 170.8 163.6 L 168.4 164.4 L 165.9 164.8 L 163.4 165.0 L 163.4 159.0 L 151.4 156.0 Z M 84.8 66.0 L 80.3 61.6 L 75.0 57.3 L 70.44174757003785 54.10922327041626 L 64.8 59.1 L 56.5 65.5 L 47.7 71.4 L 38.4 76.8 L 28.6 81.6 L 18.3 85.8 L 17.5 84.1 L 26.8 78.3 L 35.6 72.3 L 44.0 66.0 L 51.8 59.6 L 59.1 52.8 L 62.609122085571286 49.18916425704956 L 62.3 49.0 L 54.9 45.0 L 46.9 41.0 L 38.1 37.1 L 28.7 33.1 L 29.2 31.4 L 39.3 33.5 L 48.8 36.0 L 57.6 38.9 L 65.7 42.2 L 68.03624286651612 43.275901317596436 L 72.3 38.2 L 78.1 30.4 L 83.5 22.3 L 88.3 13.8 L 88.3369668006897 13.821327018737794 L 88.9 12.9 L 98.7 19.8 L 100.4 23.0 L 96.5853943824768 23.06465435028076 L 93.0 28.6 L 86.7 36.9 L 79.9 44.8 L 76.96733312606811 47.7728404045105 L 80.2 49.6 L 86.5 53.7 L 92.2 58.2 L 97.3 62.9 L 101.7 68.0 L 102.6 72.5 L 100.2 76.4 L 95.8 77.4 L 91.9 75.0 L 88.7 70.4 Z " />
</g>
</svg>
