<svg xmlns="http://www.w3.org/2000/svg" xmlns:xlink="http://www.w3.org/1999/xlink" version="1.1" baseProfile="full" viewBox="0 0 200 200" width="200" height="200">
<g fill="black">
<path d="M 136.0 164.0 L 152.0 164.0 L 153.2 163.9 L 154.1 163.7 L 155.0 163.4 L 155.4 163.0 L 155.7 162.1 L 155.9 161.2 L 156.0 160.0 L 156.0 120.0 L 88.0 120.0 L 88.0 183.0 L 76.0 189.0 L 76.0 120.0 L 22.0 120.0 L 22.0 116.0 L 156.0 116.0 L 162.0 111.0 L 173.0 120.0 L 168.0 124.0 L 168.0 160.0 L 167.8 162.5 L 167.4 165.0 L 166.6 167.4 L 165.3 169.7 L 163.7 171.7 L 161.7 173.3 L 159.4 174.6 L 157.0 175.4 L 154.5 175.8 L 152.0 176.0 L 152.0 170.0 L 136.0 167.0 Z M 119.5 102.2 L 107.5 108.2 L 107.5 16.2 L 119.5 22.2 L 162.8 22.2 L 172.8 12.2 L 184.8 22.2 L 184.8 26.2 L 152.0 26.2 L 152.0 44.8 L 167.6 44.8 L 173.6 39.8 L 184.6 48.8 L 179.6 52.8 L 179.6 78.5 L 167.6 84.5 L 167.6 74.5 L 152.0 74.5 L 152.0 95.2 L 169.01818180084229 95.2 L 177.2 86.2 L 187.2 95.2 L 187.2 99.2 L 119.5 99.2 Z M 12.7 95.2 L 47.9 95.2 L 47.9 74.5 L 32.3 74.5 L 32.3 81.5 L 20.3 87.5 L 20.3 38.8 L 32.3 44.8 L 47.9 44.8 L 47.9 26.2 L 15.1 26.2 L 15.1 22.2 L 80.4 22.2 L 86.4 17.2 L 97.4 26.2 L 92.4 30.2 L 92.4 101.2 L 80.4 107.2 L 80.4 99.2 L 12.7 99.2 Z M 119.5 74.5 L 119.5 95.2 L 140.0 95.2 L 140.0 74.5 Z M 59.9 74.5 L 59.9 95.2 L 80.4 95.2 L 80.4 74.5 Z M 119.5 70.5 L 167.6 70.5 L 167.6 48.8 L 119.5 48.8 Z M 32.3 70.5 L 80.4 70.5 L 80.4 48.8 L 32.3 48.8 Z M 119.5 26.2 L 119.5 44.8 L 140.0 44.8 L 140.0 26.2 Z M 59.9 26.2 L 59.9 44.8 L 80.4 44.8 L 80.4 26.2 Z " />
</g>
</svg>
