<svg xmlns="http://www.w3.org/2000/svg" xmlns:xlink="http://www.w3.org/1999/xlink" version="1.1" baseProfile="full" viewBox="0 0 200 200" width="200" height="200">
<g fill="black">
<path d="M 107.3 166.9 L 107.2 163.1 L 107.01523809432983 159.49714288711547 L 103.4 162.0 L 99.5 164.5 L 95.5 166.9 L 91.5 169.2 L 87.4 171.3 L 83.4 173.4 L 79.4 175.3 L 75.3 177.2 L 75.21922454833984 177.2363489151001 L 74.2 181.2 L 71.3 179.0 L 65.5 168.3 L 67.4 167.7 L 71.5 166.5 L 74.13562984466553 165.79287977218627 L 77.0 158.1 L 80.5 148.8 L 84.1 139.6 L 87.6 130.4 L 89.34070796966553 125.9238938331604 L 88.6 126.5 L 84.1 125.8 L 81.3 122.2 L 80.4 118.1 L 79.5 113.9 L 77.1 105.7 L 75.7 101.7 L 74.2 97.7 L 72.6 93.7 L 70.8 89.7 L 69.0 85.6 L 67.1 81.5 L 68.5 80.4 L 71.8 83.6 L 75.0 87.0 L 75.92386226654052 88.11500616073609 L 76.7 84.7 L 78.2 78.4 L 79.7 72.4 L 81.2 66.8 L 82.6 61.4 L 83.8 56.3 L 85.0 51.4 L 86.0 46.9 L 86.9 42.6 L 87.49674797058105 39.61626014709473 L 87.4 39.6 L 88.1 36.9 L 99.3 41.6 L 101.7 44.3 L 98.01891889572144 45.35173749923706 L 97.9 45.7 L 96.3 49.9 L 94.6 54.4 L 92.7 59.2 L 90.6 64.1 L 88.4 69.3 L 85.9 74.7 L 83.2 80.3 L 80.2 86.0 L 77.77048149108887 90.3436845779419 L 77.9 90.5 L 80.6 94.3 L 83.1 98.1 L 85.4 102.1 L 87.5 106.2 L 89.5 110.4 L 91.3 114.8 L 92.39821186065674 117.82008256912232 L 94.4 112.3 L 97.6 103.4 L 100.7 94.4 L 103.7 85.5 L 106.6 76.6 L 106.6298152923584 76.61055412292481 L 107.1 75.2 L 117.9 80.6 L 120.1 83.5 L 116.44014358520508 84.27049608230591 L 114.4 89.4 L 110.8 98.2 L 107.0 107.1 L 103.0 115.9 L 98.9 124.7 L 94.6 133.5 L 90.1 142.3 L 85.4 151.0 L 80.4 159.7 L 77.16229839324951 164.95362901687622 L 79.8 164.2 L 88.2 161.6 L 92.5 160.2 L 101.3 157.4 L 105.8 156.1 L 106.75345458984376 155.83054542541504 L 106.7 155.1 L 106.3 150.8 L 105.8 146.4 L 105.2 141.9 L 104.6 137.1 L 103.8 132.2 L 105.5 131.7 L 109.9 140.5 L 111.7 144.9 L 113.3 149.2 L 114.7 153.5 L 115.9 157.7 L 117.0 161.8 L 117.9 165.8 L 118.6 169.8 L 119.1 173.8 L 117.4 178.0 L 113.2 179.9 L 109.0 178.2 L 107.1 174.1 L 107.3 170.6 Z M 54.3 166.9 L 54.3 163.1 L 54.11548223495483 159.40964469909667 L 50.6 162.0 L 46.8 164.5 L 42.9 166.9 L 34.9 171.3 L 30.9 173.4 L 22.9 177.2 L 22.819224548339843 177.2363489151001 L 21.8 181.2 L 18.9 179.0 L 13.1 168.3 L 14.9 167.7 L 19.0 166.6 L 22.27190942764282 165.64236793518066 L 25.0 158.1 L 28.5 148.8 L 31.9 139.6 L 35.3 130.5 L 36.96683673858642 125.9035714149475 L 36.2 126.5 L 31.7 125.8 L 28.8 122.2 L 28.0 118.1 L 27.0 113.9 L 25.9 109.8 L 24.7 105.7 L 23.3 101.7 L 21.8 97.7 L 18.4 89.7 L 16.6 85.6 L 14.7 81.5 L 16.1 80.4 L 19.4 83.6 L 22.6 87.0 L 23.523862266540526 88.11500616073609 L 24.3 84.7 L 25.8 78.4 L 27.3 72.4 L 28.8 66.8 L 30.1 61.4 L 31.4 56.3 L 32.6 51.4 L 33.6 46.9 L 34.5 42.6 L 35.02428569793701 39.60408163070679 L 35.0 39.6 L 35.076923084259036 39.303296661376955 L 35.2 38.6 L 35.25556545257568 38.614247512817386 L 35.7 36.9 L 46.9 41.6 L 49.3 44.3 L 45.51673154830932 45.38093385696411 L 45.4 45.7 L 43.9 49.9 L 42.2 54.4 L 40.3 59.2 L 38.2 64.1 L 35.9 69.3 L 33.5 74.7 L 30.8 80.3 L 27.8 86.0 L 25.370481491088867 90.3436845779419 L 25.5 90.5 L 28.2 94.3 L 30.7 98.1 L 33.0 102.1 L 35.1 106.2 L 37.1 110.4 L 38.8 114.8 L 39.88539323806763 117.78483142852784 L 41.8 112.4 L 44.9 103.4 L 47.9 94.5 L 50.8 85.6 L 53.30813112258911 77.62772598266602 L 53.2 77.6 L 54.1 75.2 L 64.9 80.6 L 67.1 83.4 L 63.52760419845581 84.1520833015442 L 61.5 89.4 L 58.0 98.2 L 54.3 107.0 L 50.5 115.8 L 46.5 124.6 L 42.3 133.5 L 37.9 142.3 L 33.3 151.0 L 28.5 159.7 L 25.461445808410645 164.72530117034913 L 27.3 164.2 L 31.4 162.9 L 35.6 161.6 L 39.9 160.2 L 44.1 158.9 L 48.5 157.5 L 52.9 156.2 L 53.86581878662109 155.89952306747438 L 53.8 155.0 L 53.5 150.8 L 53.0 146.4 L 52.5 141.8 L 52.0 137.1 L 51.3 132.2 L 53.1 131.7 L 55.2 136.2 L 57.2 140.6 L 59.0 144.9 L 60.5 149.3 L 61.9 153.5 L 63.0 157.7 L 64.0 161.8 L 64.9 165.9 L 65.5 169.9 L 66.1 173.8 L 64.4 178.0 L 60.2 179.9 L 56.0 178.2 L 54.1 174.1 L 54.2 170.6 Z M 156.4 153.0 L 166.4 153.0 L 167.7 152.9 L 168.6 152.7 L 169.5 152.4 L 169.7 152.2 L 169.8 152.0 L 170.0 151.7 L 170.2 151.1 L 170.4 150.2 L 170.4 36.0 L 138.8 36.0 L 138.8 183.0 L 126.8 189.0 L 126.8 26.0 L 138.8 32.0 L 170.4 32.0 L 176.4 27.0 L 187.4 36.0 L 182.4 40.0 L 182.4 149.0 L 182.3 151.5 L 181.9 154.0 L 181.0 156.4 L 179.8 158.7 L 178.2 160.7 L 176.2 162.3 L 173.9 163.6 L 171.5 164.4 L 169.0 164.8 L 166.4 165.0 L 166.4 159.0 L 156.4 156.0 Z M 116.6 28.8 L 116.6 32.8 L 14.3 32.8 L 14.3 28.8 L 94.6 28.8 L 104.6 18.8 Z " />
</g>
</svg>
