<svg xmlns="http://www.w3.org/2000/svg" xmlns:xlink="http://www.w3.org/1999/xlink" version="1.1" baseProfile="full" viewBox="0 0 200 200" width="200" height="200">
<g fill="black">
<path d="M 54.1 146.9 L 53.38260869979858 151.4 L 79.8 151.4 L 79.8 127.6 L 91.8 129.6 L 94.8 131.6 L 91.8 133.4 L 91.8 151.4 L 100.1 151.4 L 110.1 141.4 L 122.1 151.4 L 122.1 155.4 L 91.8 155.4 L 91.8 183.4 L 79.8 189.4 L 79.8 155.4 L 52.6 155.4 L 51.4 160.2 L 49.2 166.0 L 46.6 171.3 L 43.4 176.1 L 39.7 180.2 L 35.6 183.6 L 31.0 186.3 L 26.0 188.1 L 20.7 189.2 L 20.1 187.5 L 24.4 184.7 L 28.1 181.8 L 31.3 178.6 L 34.0 175.2 L 36.3 171.4 L 38.3 167.2 L 39.8 162.6 L 41.0 157.6 L 41.31428575515747 155.4 L 10.5 155.4 L 10.5 151.4 L 41.83000001907349 151.4 L 42.1 146.0 L 42.1 127.6 L 54.1 129.6 L 57.1 131.6 L 54.1 133.4 L 54.1 146.4 L 53.78253965377807 146.87619047164918 Z M 156.9 153.0 L 166.9 153.0 L 168.1 152.9 L 169.0 152.7 L 169.9 152.4 L 170.3 152.0 L 170.6 151.1 L 170.8 150.2 L 170.9 149.0 L 170.9 36.0 L 140.0 36.0 L 140.0 183.0 L 128.0 189.0 L 128.0 26.0 L 140.0 32.0 L 170.9 32.0 L 176.9 27.0 L 187.9 36.0 L 182.9 40.0 L 182.9 149.0 L 182.7 151.5 L 182.3 154.0 L 181.5 156.4 L 180.2 158.7 L 178.6 160.7 L 176.6 162.3 L 174.3 163.6 L 171.9 164.4 L 169.4 164.8 L 166.9 165.0 L 166.9 159.0 L 156.9 156.0 Z M 106.4 23.7 L 101.4 26.7 L 97.73488368988038 28.22713174819946 L 96.7 29.4 L 95.1 31.2 L 93.4 32.9 L 91.6 34.6 L 89.6 36.3 L 87.6 37.9 L 85.4 39.5 L 84.9 40.0 L 102.51818180084229 40.0 L 110.7 31.0 L 120.7 40.0 L 120.7 44.0 L 78.1 44.0 L 78.1 58.9 L 98.9 58.9 L 104.9 53.9 L 115.9 62.9 L 110.9 66.9 L 110.9 127.2 L 98.9 133.2 L 98.9 121.2 L 32.4 121.2 L 32.4 133.2 L 20.4 139.2 L 20.4 52.9 L 32.4 58.9 L 47.3 58.9 L 47.3 44.0 L 11.2 44.0 L 11.2 40.0 L 82.30454549789428 40.0 L 83.6 38.1 L 84.6 35.6 L 85.6 33.3 L 86.5 31.0 L 87.3 28.9 L 88.0 26.8 L 88.6 24.8 L 88.9473684310913 23.7 L 28.7 23.7 L 28.7 19.7 L 89.4 19.7 L 95.4 14.7 Z M 32.4 107.3 L 32.4 117.2 L 98.9 117.2 L 98.9 107.3 Z M 32.4 62.9 L 32.4 96.46000003814697 L 34.8 95.2 L 38.1 92.7 L 40.8 90.1 L 43.0 87.1 L 44.7 83.9 L 46.1 80.2 L 47.0 76.2 L 47.5 71.7 L 47.6 66.7 L 47.39642858505249 62.9 Z M 80.2 95.5 L 77.9 95.2 L 75.7 94.6 L 73.6 93.7 L 71.7 92.3 L 70.1 90.6 L 68.8 88.5 L 67.9 86.3 L 67.3 83.9 L 67.1 81.4 L 67.1 62.9 L 58.13125 62.9 L 58.0 67.1 L 57.1 73.0 L 55.7 78.4 L 53.7 83.3 L 51.2 87.6 L 48.1 91.3 L 44.5 94.3 L 40.4 96.6 L 35.9 98.0 L 32.4 98.6702127456665 L 32.4 103.3 L 98.9 103.3 L 98.9 62.9 L 78.1 62.9 L 78.1 81.4 L 78.0 82.7 L 78.0 83.8 L 78.1 84.6 L 78.2 85.1 L 78.4 85.6 L 78.7 86.0 L 79.2 86.4 L 80.0 86.9 L 81.1 87.2 L 82.6 87.4 L 89.7 87.4 L 93.7 78.4 L 95.7 78.4 L 93.7 87.4 L 96.1 89.0 L 97.7 91.4 L 96.1 93.8 L 93.7 95.4 L 82.6 95.4 Z M 58.3 44.0 L 58.3 58.9 L 67.1 58.9 L 67.1 44.0 Z " />
</g>
</svg>
