<svg xmlns="http://www.w3.org/2000/svg" xmlns:xlink="http://www.w3.org/1999/xlink" version="1.1" baseProfile="full" viewBox="0 0 200 200" width="200" height="200">
<g fill="black">
<path d="M 165.7 179.0 L 159.5 173.5 L 154.0 167.0 L 151.87403316497802 163.81104974746705 L 151.6 164.2 L 145.0 171.7 L 138.0 177.9 L 130.6 182.8 L 122.9 186.1 L 115.1 187.8 L 114.6 186.1 L 121.4 182.6 L 127.7 178.3 L 133.6 173.0 L 139.3 166.7 L 144.7 159.2 L 146.9260220527649 155.44631576538086 L 144.6 150.9 L 140.6 141.3 L 137.2 130.7 L 134.4 118.9 L 132.5265625 108.0 L 121.2 108.0 L 121.2 104.0 L 144.4 104.0 L 144.4 72.0 L 130.3 72.0 L 130.3 84.0 L 119.3 89.5 L 119.3 24.0 L 130.3 26.0 L 133.0 28.0 L 130.3 29.723404216766358 L 130.3 68.0 L 144.4 68.0 L 144.4 13.0 L 156.4 15.0 L 159.4 17.0 L 156.4 18.8 L 156.4 68.0 L 170.1 68.0 L 170.1 24.0 L 182.1 26.0 L 185.1 28.0 L 182.1 29.8 L 182.1 78.0 L 170.1 84.0 L 170.1 72.0 L 156.4 72.0 L 156.4 104.0 L 167.4 104.0 L 173.4 99.0 L 184.4 108.0 L 179.4 111.0 L 177.6948718070984 111.71047010421753 L 174.3 121.4 L 169.2 134.0 L 163.7 145.3 L 157.8 155.4 L 157.72503023147584 155.50640869140625 L 161.9 160.5 L 167.1 165.5 L 172.3 169.2 L 177.7 171.9 L 183.2 173.6 L 191.4 175.8 L 179.7 186.3 L 172.4 183.3 Z M 54.3 157.1 L 53.2 152.2 L 53.178688526153564 152.12131147384645 L 52.6 152.7 L 48.7 156.5 L 44.7 160.0 L 40.8 163.3 L 37.0 166.3 L 33.3 169.2 L 29.7 171.9 L 26.2 174.4 L 23.052296829223632 176.52932863235475 L 22.6 180.6 L 19.4 178.8 L 12.1 169.1 L 13.9 168.2 L 17.3 166.7 L 20.4 165.3222222328186 L 20.4 26.0 L 32.4 32.0 L 53.9 32.0 L 58.9 27.0 L 68.9 36.0 L 63.9 39.0 L 63.9 109.0 L 53.9 114.0 L 53.9 107.0 L 32.4 107.0 L 32.4 159.35249996185303 L 32.5 159.3 L 36.7 157.1 L 41.1 154.8 L 45.7 152.3 L 50.5 149.8 L 52.3012921333313 148.8816942214966 L 51.9 147.4 L 50.5 142.8 L 49.0 138.3 L 47.5 134.0 L 45.8 129.7 L 44.2 125.5 L 42.5 121.3 L 44.0 120.2 L 47.3 123.5 L 50.4 127.1 L 53.2 131.0 L 55.9 135.1 L 58.3 139.5 L 60.6 144.2 L 62.7 149.0 L 64.6 154.0 L 66.4 159.3 L 68.0 164.7 L 67.2 169.2 L 63.5 171.9 L 59.0 171.0 L 56.3 167.3 L 55.4 162.1 Z M 88.1 153.5 L 96.1 153.5 L 97.0 153.4 L 97.7 153.3 L 98.3 153.0 L 98.7 152.6 L 98.9 152.1 L 99.1 151.4 L 99.3 150.3 L 99.3 36.0 L 81.7 36.0 L 81.7 183.5 L 71.7 188.5 L 71.7 27.0 L 81.7 32.0 L 99.3 32.0 L 104.8 27.0 L 115.3 36.0 L 110.3 39.5 L 110.3 149.0 L 110.2 151.4 L 109.8 153.7 L 109.2 156.0 L 108.2 158.1 L 106.8 160.1 L 105.0 161.7 L 103.0 163.0 L 100.7 163.8 L 98.4 164.3 L 96.1 164.5 L 96.1 159.0 L 88.1 156.2 Z M 138.4 117.8 L 142.8 128.7 L 147.3 138.5 L 151.78994417190552 146.6201117515564 L 154.7 140.8 L 159.3 129.9 L 163.6 117.7 L 166.4740740776062 108.0 L 134.83636360168458 108.0 Z M 32.4 71.0 L 32.4 103.0 L 53.9 103.0 L 53.9 71.0 Z M 32.4 36.0 L 32.4 67.0 L 53.9 67.0 L 53.9 36.0 Z " />
</g>
</svg>
