<svg xmlns="http://www.w3.org/2000/svg" xmlns:xlink="http://www.w3.org/1999/xlink" version="1.1" baseProfile="full" viewBox="0 0 200 200" width="200" height="200">
<g fill="black">
<path d="M 14.3 142.4 L 17.7 140.6 L 19.4 139.65 L 19.4 36.0 L 28.078873252868654 37.446478843688965 L 30.8 35.6 L 36.2 31.8 L 38.8 29.7 L 41.5 27.6 L 44.1 25.4 L 49.3 20.6 L 51.16238536834717 18.66311922073364 L 51.1 18.6 L 51.58813562393188 18.220339012145995 L 51.8 18.0 L 51.82838430404663 18.033478927612304 L 52.0 17.9 L 59.6 27.2 L 59.9 30.8 L 56.0759259223938 29.47895622253418 L 52.9 31.5 L 49.5 33.3 L 46.1 35.0 L 42.7 36.5 L 39.3 37.8 L 35.9 38.9 L 33.57173910140991 39.447826099395755 L 34.4 40.0 L 31.4 41.8 L 31.4 65.1 L 32.6 64.3 L 34.5 66.4 L 36.6 68.6 L 38.5 71.1 L 40.3 73.9 L 41.9 77.0 L 43.4 80.2 L 44.7 83.7 L 45.9 87.3 L 46.1 88.00909090042114 L 46.1 48.0 L 56.1 50.0 L 58.6 52.0 L 56.1 53.66666669845581 L 56.1 112.0 L 55.6 123.4 L 54.4 134.0 L 52.7 143.8 L 50.3 152.8 L 47.3 161.0 L 43.6 168.2 L 39.4 174.6 L 34.5 180.0 L 29.0 184.4 L 22.9 187.6 L 22.1 186.3 L 27.0 181.9 L 31.2 177.0 L 34.9 171.5 L 38.0 165.3 L 40.7 158.4 L 42.8 150.8 L 44.4 142.3 L 45.5 133.0 L 45.641176509857175 130.6235294342041 L 45.3 131.0 L 39.3 136.8 L 36.2 139.6 L 33.1 142.3 L 30.1 144.9 L 27.0 147.5 L 24.157045745849608 149.7927050590515 L 24.1 153.9 L 20.8 152.4 L 12.6 143.5 Z M 181.9 143.1 L 180.7 145.3 L 179.2 147.3 L 177.4 149.1 L 175.4 150.6 L 173.1 151.7 L 170.7 152.4 L 168.2 152.8 L 165.6 153.0 L 165.6 147.0 L 158.9085210800171 145.74534769058226 L 159.5 147.0 L 163.1 153.2 L 166.9 158.6 L 170.9 163.1 L 175.2 166.8 L 179.7 169.7 L 184.4 172.0 L 190.1 174.7 L 178.8 183.9 L 172.8 180.2 L 167.4 175.7 L 162.6 170.4 L 158.5 164.4 L 154.9 157.7 L 151.8 150.3 L 149.92847681045532 144.06158943176268 L 149.6 144.0 L 149.6 142.9666666984558 L 149.4 142.3 L 147.4 133.6 L 146.58377017974854 127.20619955062867 L 145.5 132.5 L 142.1 144.0 L 137.7 154.4 L 132.4 163.6 L 126.1 171.5 L 119.0 178.1 L 111.0 183.2 L 102.2 186.8 L 101.5 185.1 L 108.9 180.0 L 115.4 174.1 L 121.1 167.3 L 125.9 159.7 L 129.9 151.0 L 133.2 141.2 L 135.7 130.4 L 137.4 118.4 L 137.56363639831542 116.0 L 119.56270265579224 116.0 L 118.7 123.6 L 106.1 128.2 L 111.7 79.3 L 121.97945203781128 86.0 L 138.5 86.0 L 138.5 63.0 L 108.8 63.0 L 108.8 59.0 L 138.5 59.0 L 138.5 41.0 L 102.4 41.0 L 102.4 39.0 L 98.4 42.2 L 98.4 140.5 L 98.3 143.1 L 97.8 145.6 L 97.0 148.0 L 95.8 150.3 L 94.2 152.3 L 92.2 153.9 L 89.9 155.2 L 87.5 156.0 L 85.0 156.4 L 82.4 156.5 L 82.4 150.5 L 74.4 147.5 L 74.4 144.5 L 83.7 144.5 L 84.6 144.3 L 85.2 144.1 L 85.5 143.9 L 85.7 143.8 L 85.8 143.6 L 86.0 143.3 L 86.2 142.7 L 86.4 141.8 L 86.4 103.46499996185302 L 82.7 105.5 L 78.4 104.2 L 76.1 100.2 L 76.0 96.3 L 75.9 92.6 L 75.6 88.9 L 75.2 85.4 L 74.8 82.0 L 74.2 78.7 L 73.6 75.5 L 73.0 72.4 L 72.3 69.3 L 71.5 66.98000001907349 L 71.5 184.1 L 61.5 189.1 L 61.5 29.2 L 71.5 34.2 L 86.4 34.2 L 92.4 29.2 L 102.4 37.38181819915771 L 102.4 37.0 L 138.5 37.0 L 138.5 14.0 L 150.5 16.0 L 153.5 18.0 L 150.5 19.8 L 150.5 37.0 L 164.5 37.0 L 174.5 27.0 L 186.5 37.0 L 186.5 41.0 L 150.5 41.0 L 150.5 59.0 L 166.2 59.0 L 172.2 54.0 L 183.2 63.0 L 178.2 67.0 L 178.2 94.0 L 166.2 100.0 L 166.2 90.0 L 150.5 90.0 L 150.5 91.0 L 149.7 105.9 L 148.99784173965455 112.0 L 173.6 112.0 L 179.6 107.0 L 190.6 116.0 L 185.6 119.0 L 185.30165748596193 119.12430934906006 L 185.2 120.7 L 185.0 123.6 L 184.8 126.3 L 184.5 128.8 L 184.3 131.1 L 184.1 133.1 L 183.9 135.0 L 183.6 136.7 L 183.4 138.2 L 182.8 140.7 Z M 71.5 38.2 L 71.5 66.28000001907348 L 72.8 65.5 L 74.9 68.0 L 77.0 70.6 L 78.9 73.4 L 80.6 76.5 L 82.2 79.8 L 83.7 83.3 L 85.0 86.9 L 86.1 90.7 L 86.4 91.81818180084228 L 86.4 38.2 Z M 150.5 63.0 L 150.5 86.0 L 166.2 86.0 L 166.2 63.0 Z M 172.0 133.4 L 172.2 131.7 L 172.4 129.8 L 172.6 127.7 L 172.8 125.3 L 173.0 122.7 L 173.2 119.9 L 173.4 116.9 L 173.4545454978943 116.0 L 148.53741006851197 116.0 L 148.42542371749877 116.97288131713867 L 150.3 123.4 L 153.2 132.1 L 156.2 140.0 L 156.6714285850525 141.0 L 165.6 141.0 L 166.9 140.9 L 167.9 140.7 L 168.7 140.5 L 169.3 140.2 L 169.8 139.9 L 170.2 139.5 L 170.5 139.0 L 170.9 138.2 L 171.3 137.3 L 171.6 136.0 L 171.8 134.9 Z M 35.7 89.3 L 35.4 85.8 L 35.0 82.5 L 34.0 76.3 L 33.4 73.4 L 32.8 70.6 L 32.1 67.8 L 31.4 66.05 L 31.4 133.1111110687256 L 31.6 133.0 L 35.1 131.1 L 42.5 127.1 L 45.947506713867185 125.46697053909301 L 46.1 122.9 L 46.1 99.95384616851807 L 42.8 101.9 L 38.4 100.7 L 36.1 96.7 L 35.9 92.9 Z M 122.51405401229859 90.0 L 120.01675672531128 112.0 L 137.83636360168458 112.0 L 138.3 105.2 L 138.5 91.0 L 138.5 90.0 Z " />
</g>
</svg>
