<svg xmlns="http://www.w3.org/2000/svg" xmlns:xlink="http://www.w3.org/1999/xlink" version="1.1" baseProfile="full" viewBox="0 0 200 200" width="200" height="200">
<g fill="black">
<path d="M 141.0 164.0 L 155.0 164.0 L 156.2 163.9 L 157.1 163.7 L 158.0 163.4 L 158.4 163.0 L 158.7 162.1 L 158.9 161.2 L 159.0 160.0 L 159.0 120.0 L 100.0 120.0 L 100.0 183.0 L 88.0 189.0 L 88.0 120.0 L 22.0 120.0 L 22.0 116.0 L 159.0 116.0 L 165.0 111.0 L 176.0 120.0 L 171.0 124.0 L 171.0 160.0 L 170.8 162.5 L 170.4 165.0 L 169.6 167.4 L 168.3 169.7 L 166.7 171.7 L 164.7 173.3 L 162.4 174.6 L 160.0 175.4 L 157.5 175.8 L 155.0 176.0 L 155.0 170.0 L 141.0 167.0 Z M 38.0 19.6 L 77.9 19.6 L 83.9 14.6 L 94.9 23.6 L 89.9 27.6 L 89.9 99.3 L 77.9 105.3 L 77.9 95.3 L 38.0 95.3 L 38.0 102.3 L 26.0 108.3 L 26.0 13.6 Z M 122.0 19.6 L 161.9 19.6 L 167.9 14.6 L 178.9 23.6 L 173.9 27.6 L 173.9 99.3 L 161.9 105.3 L 161.9 95.3 L 122.0 95.3 L 122.0 102.3 L 110.0 108.3 L 110.0 13.6 Z M 122.0 70.4 L 122.0 91.3 L 161.9 91.3 L 161.9 70.4 Z M 38.0 70.4 L 38.0 91.3 L 77.9 91.3 L 77.9 70.4 Z M 122.0 47.0 L 122.0 66.4 L 161.9 66.4 L 161.9 47.0 Z M 38.0 47.0 L 38.0 66.4 L 77.9 66.4 L 77.9 47.0 Z M 122.0 23.6 L 122.0 43.0 L 161.9 43.0 L 161.9 23.6 Z M 38.0 23.6 L 38.0 43.0 L 77.9 43.0 L 77.9 23.6 Z " />
</g>
</svg>
