<svg xmlns="http://www.w3.org/2000/svg" xmlns:xlink="http://www.w3.org/1999/xlink" version="1.1" baseProfile="full" viewBox="0 0 200 200" width="200" height="200">
<g fill="black">
<path d="M 130.1 152.0 L 144.1 152.0 L 145.3 151.9 L 146.2 151.7 L 147.1 151.4 L 147.5 151.0 L 147.8 150.1 L 148.0 149.2 L 148.1 148.0 L 148.1 35.0 L 99.0 35.0 L 99.0 182.0 L 87.0 188.0 L 87.0 108.0 L 83.5 116.0 L 78.4 124.8 L 72.3 132.9 L 65.2 140.2 L 57.2 146.8 L 48.3 152.5 L 38.5 157.5 L 27.8 161.6 L 16.2 164.8 L 15.7 163.1 L 26.4 158.1 L 36.0 152.7 L 44.7 147.0 L 52.5 140.8 L 59.2 134.2 L 65.0 127.1 L 69.8 119.5 L 73.8 111.4 L 76.9 102.8 L 79.0202793121338 94.02975358963013 L 87.0 27.03950614929199 L 87.0 25.0 L 92.82553195953369 27.912765979766846 L 98.8 29.7 L 100.32608699798584 31.0 L 148.1 31.0 L 154.1 26.0 L 165.1 35.0 L 160.1 39.0 L 160.1 148.0 L 159.9 150.5 L 159.5 153.0 L 158.7 155.4 L 157.4 157.7 L 155.8 159.7 L 153.8 161.3 L 151.5 162.6 L 149.1 163.4 L 146.6 163.8 L 144.1 164.0 L 144.1 158.0 L 130.1 155.0 Z M 87.0 95.38803415298462 L 87.0 95.20840339660644 L 84.95 94.95 Z " />
</g>
</svg>
