<svg xmlns="http://www.w3.org/2000/svg" xmlns:xlink="http://www.w3.org/1999/xlink" version="1.1" baseProfile="full" viewBox="0 0 200 200" width="200" height="200">
<g fill="black">
<path d="M 18.6 170.9 L 27.0 169.2 L 35.6 167.6 L 44.1 165.9 L 52.6 164.3 L 56.0 163.7069766998291 L 56.0 102.0 L 20.0 102.0 L 20.0 98.0 L 56.0 98.0 L 56.0 42.66470584869385 L 55.0 42.9 L 46.2 44.7 L 37.2 46.4 L 27.8 47.8 L 18.1 48.8 L 17.8 47.1 L 27.0 44.1 L 35.9 41.2 L 44.6 38.4 L 52.9 35.6 L 61.0 32.7 L 68.7 29.9 L 76.2 27.0 L 83.3 24.0 L 90.1 21.0 L 95.71277980804443 18.323135757446288 L 95.7 18.3 L 95.72111835479737 18.319158935546874 L 96.6 17.9 L 97.52349462509156 19.9543044090271 L 105.4 27.1 L 105.6 30.3 L 101.76777210235596 28.683278846740723 L 101.5 28.8 L 94.4 31.5 L 87.1 34.0 L 79.5 36.4 L 71.6 38.7 L 68.0 39.6777777671814 L 68.0 98.0 L 83.0 98.0 L 93.0 88.0 L 105.0 98.0 L 105.0 102.0 L 68.0 102.0 L 68.0 161.53488368988036 L 69.8 161.2 L 78.5 159.7 L 87.2 158.3 L 95.9 157.1 L 104.7 156.1 L 105.2 157.8 L 96.8 160.8 L 88.4 163.6 L 71.6 168.6 L 54.8 173.4 L 29.6 180.3 L 25.19863615036011 181.51965503692628 L 23.9 185.0 L 21.3 182.6 L 16.6 171.3 Z M 155.9 153.0 L 165.9 153.0 L 167.1 152.9 L 168.0 152.7 L 168.9 152.4 L 169.3 152.0 L 169.5 151.7 L 169.6 151.1 L 169.8 150.2 L 169.9 149.0 L 169.9 36.0 L 137.2 36.0 L 137.2 183.0 L 125.2 189.0 L 125.2 26.0 L 137.2 32.0 L 169.9 32.0 L 175.9 27.0 L 186.9 36.0 L 181.9 40.0 L 181.9 149.0 L 181.7 151.5 L 181.3 154.0 L 180.5 156.4 L 179.3 158.7 L 177.6 160.7 L 175.6 162.3 L 173.3 163.6 L 170.9 164.4 L 168.4 164.8 L 165.9 165.0 L 165.9 159.0 L 155.9 156.0 Z " />
</g>
</svg>
