<svg xmlns="http://www.w3.org/2000/svg" xmlns:xlink="http://www.w3.org/1999/xlink" version="1.1" baseProfile="full" viewBox="0 0 200 200" width="200" height="200">
<g fill="black">
<path d="M 14.6 166.9 L 21.8 165.6 L 29.3 164.1 L 37.1 162.6 L 45.2 161.0 L 51.0 159.82619047164917 L 51.0 122.0 L 16.0 122.0 L 16.0 118.0 L 51.0 118.0 L 51.0 91.0 L 63.0 93.0 L 66.0 95.0 L 63.0 96.8 L 63.0 118.0 L 76.0 118.0 L 86.0 108.0 L 98.0 118.0 L 98.0 122.0 L 63.0 122.0 L 63.0 157.37472524642945 L 71.5 155.6 L 80.8 153.7 L 90.6 151.9 L 100.7 150.1 L 101.2 151.8 L 91.6 155.5 L 82.3 158.9 L 73.1 162.0 L 64.3 164.8 L 55.7 167.5 L 47.5 170.0 L 39.5 172.4 L 31.8 174.6 L 24.4 176.7 L 21.177459621429442 177.55039262771606 L 19.8 181.1 L 17.2 178.6 L 12.7 167.3 Z M 150.0 153.0 L 162.0 153.0 L 163.2 152.9 L 164.1 152.7 L 165.0 152.4 L 165.4 152.0 L 165.7 151.1 L 165.9 150.2 L 166.0 149.0 L 166.0 36.0 L 126.0 36.0 L 126.0 183.0 L 114.0 189.0 L 114.0 26.0 L 126.0 32.0 L 166.0 32.0 L 172.0 27.0 L 183.0 36.0 L 178.0 40.0 L 178.0 149.0 L 177.8 151.5 L 177.4 154.0 L 176.6 156.4 L 175.3 158.7 L 173.7 160.7 L 171.7 162.3 L 169.4 163.6 L 167.0 164.4 L 164.5 164.8 L 162.0 165.0 L 162.0 159.0 L 150.0 156.0 Z M 83.3 80.6 L 81.9 77.3 L 81.38314027786255 76.16936941146851 L 77.5 77.6 L 70.0 80.0 L 62.8 82.1 L 55.8 84.0 L 49.0 85.8 L 42.5 87.5 L 36.2 89.0 L 30.1 90.4 L 24.3 91.6 L 22.876530647277832 91.8846939086914 L 21.2 95.4 L 18.8 92.7 L 15.1 81.2 L 17.1 80.9 L 22.6 80.4 L 28.4 79.8 L 32.96819734573364 79.27578067779541 L 33.4 78.0 L 35.5 71.7 L 37.7 65.7 L 39.7 59.9 L 41.5 54.3 L 43.2 49.0 L 44.7 43.8 L 46.0 38.8 L 47.2 34.0 L 47.36666669845581 33.0 L 14.0 33.0 L 14.0 29.0 L 78.0 29.0 L 88.0 19.0 L 100.0 29.0 L 100.0 33.0 L 59.619148921966556 33.0 L 58.1 37.2 L 56.3 42.1 L 54.2 47.1 L 51.9 52.3 L 49.4 57.6 L 46.6 62.9 L 43.6 68.4 L 40.4 74.0 L 37.32209405899048 78.74163885116577 L 40.8 78.3 L 47.4 77.5 L 54.3 76.6 L 61.5 75.7 L 68.9 74.7 L 76.7 73.8 L 80.13058824539185 73.5035294532776 L 78.3 70.3 L 76.2 66.7 L 73.8 63.0 L 71.1 59.2 L 68.3 55.3 L 65.1 51.3 L 66.3 50.0 L 70.6 52.9 L 74.6 55.9 L 78.4 59.0 L 81.8 62.2 L 84.9 65.5 L 87.8 68.9 L 90.4 72.3 L 92.8 75.9 L 94.8 79.5 L 96.6 83.1 L 96.3 87.7 L 92.9 90.8 L 88.4 90.5 L 85.3 87.1 L 84.4 83.9 Z " />
</g>
</svg>
