<svg xmlns="http://www.w3.org/2000/svg" xmlns:xlink="http://www.w3.org/1999/xlink" version="1.1" baseProfile="full" viewBox="0 0 200 200" width="200" height="200">
<g fill="black">
<path d="M 11.0 114.2 L 12.0 113.78333330154419 L 12.0 46.0 L 24.0 48.0 L 27.0 50.0 L 24.0 51.8 L 24.0 108.82790699005128 L 26.6 107.8 L 31.1 106.0 L 35.8 104.2 L 40.67553577423096 102.44480714797973 L 41.0 99.3 L 41.0 15.0 L 53.0 17.0 L 56.0 19.0 L 53.0 20.8 L 53.0 98.42542371749877 L 57.6 97.1 L 58.3 98.8 L 53.3 102.2 L 52.59669179916382 102.65930337905884 L 51.0 113.5 L 48.7 125.6 L 45.9 136.8 L 42.8 147.1 L 39.2 156.4 L 35.2 164.9 L 30.7 172.4 L 25.8 179.0 L 20.4 184.4 L 14.5 188.6 L 13.4 187.3 L 17.6 181.8 L 21.4 175.8 L 25.0 169.1 L 28.3 161.7 L 31.2 153.5 L 33.9 144.4 L 36.2 134.4 L 38.1 123.6 L 39.7 111.9 L 39.83857870101929 110.5568528175354 L 39.1 111.0 L 34.8 113.6 L 30.7 116.1 L 26.8 118.4 L 23.2 120.7 L 20.18270320892334 122.56362447738647 L 19.8 126.5 L 16.6 124.8 L 9.3 115.1 Z M 104.1 128.2 L 100.43928575515747 120.61071424484253 L 98.2 126.7 L 91.8 141.2 L 84.7 154.6 L 77.0 167.1 L 68.4 178.4 L 59.2 188.5 L 57.8 187.4 L 65.4 176.2 L 72.4 164.3 L 78.9 151.6 L 84.9 138.1 L 90.2 123.7 L 94.60655736923218 109.74590167999267 L 91.1 103.8 L 86.2 96.5 L 81.1 89.5 L 75.8 82.9 L 70.4 76.5 L 64.7 70.3 L 65.8 68.9 L 72.9 73.7 L 79.7 79.1 L 86.1 85.2 L 92.2 91.8 L 97.59371976852417 98.4956521987915 L 99.2 92.3 L 102.8 75.2 L 105.7 57.2 L 107.74631576538086 41.0 L 61.9 41.0 L 61.9 37.0 L 108.1 37.0 L 114.1 32.0 L 125.1 41.0 L 120.1 44.0 L 119.27839336395263 44.342336082458495 L 117.0 59.0 L 113.3 77.4 L 108.9 94.8 L 104.72954006195069 108.47910842895507 L 108.8 114.7 L 113.7 123.3 L 118.4 132.4 L 122.8 141.9 L 122.7 146.5 L 119.5 149.7 L 114.9 149.6 L 111.7 146.4 L 108.0 137.1 Z M 158.3 148.9 L 169.5 148.9 L 170.4 148.7 L 171.0 148.5 L 171.3 148.3 L 171.5 148.2 L 171.7 148.0 L 172.0 147.1 L 172.2 146.2 L 172.3 144.9 L 172.3 28.8 L 144.0 28.8 L 144.0 179.6 L 132.0 185.6 L 132.0 18.8 L 144.0 24.8 L 172.3 24.8 L 178.3 19.8 L 189.3 28.8 L 184.3 32.8 L 184.3 144.9 L 184.1 147.5 L 183.7 150.0 L 182.9 152.4 L 181.6 154.7 L 180.0 156.7 L 178.0 158.3 L 175.7 159.5 L 173.3 160.3 L 170.8 160.8 L 168.3 160.9 L 168.3 154.9 L 158.3 151.9 Z " />
</g>
</svg>
