<svg xmlns="http://www.w3.org/2000/svg" xmlns:xlink="http://www.w3.org/1999/xlink" version="1.1" baseProfile="full" viewBox="0 0 200 200" width="200" height="200">
<g fill="black">
<path d="M 87.2 164.9 L 82.1 157.9 L 77.4 150.3 L 73.1 142.2 L 69.3 133.4 L 65.9 124.0 L 65.0 120.89655170440673 L 65.0 183.0 L 53.0 189.0 L 53.0 127.15111112594604 L 50.2 133.0 L 45.1 142.0 L 39.5 150.6 L 33.3 158.8 L 26.5 166.6 L 19.1 173.9 L 11.1 180.6 L 9.9 179.3 L 16.4 171.3 L 22.4 163.2 L 28.0 155.0 L 33.1 146.6 L 37.7 137.9 L 41.8 129.0 L 45.4 119.8 L 48.08770389556885 111.65018815994263 L 46.7 112.8 L 42.2 112.3 L 39.2 108.8 L 38.9 106.5 L 37.9 101.7 L 37.2 99.1 L 36.3 96.5 L 35.4 93.8 L 34.3 91.0 L 33.38823528289795 88.59625663757325 L 32.4 92.1 L 29.9 99.4 L 27.2 106.4 L 24.1 112.9 L 20.8 118.9 L 17.1 124.5 L 13.0 129.4 L 11.5 128.5 L 13.7 122.6 L 15.9 116.6 L 18.1 110.4 L 20.0 103.8 L 21.8 97.0 L 23.4 89.7 L 24.8 82.2 L 26.0 74.2 L 27.0 65.9 L 27.706960582733153 58.30017404556274 L 27.7 58.3 L 28.0 55.2 L 39.7 58.6 L 42.5 60.9 L 39.09217195510864 62.50746603012085 L 38.3 67.6 L 36.6 76.1 L 34.65220880508423 84.08594379425048 L 36.6 85.8 L 38.9 88.1 L 41.0 90.5 L 43.0 92.9 L 44.8 95.3 L 46.5 97.8 L 48.0 100.2 L 49.4 102.8 L 50.107900333404544 104.16134672164917 L 51.0 100.7 L 53.0 91.17619047164916 L 53.0 48.0 L 12.8 48.0 L 12.8 44.0 L 53.0 44.0 L 53.0 13.0 L 65.0 15.0 L 68.0 17.0 L 65.0 18.8 L 65.0 44.0 L 83.7 44.0 L 93.7 34.0 L 105.7 44.0 L 105.7 48.0 L 65.0 48.0 L 65.0 103.18999996185303 L 68.6 112.1 L 69.07677259445191 113.19657697677613 L 70.0 110.6 L 71.5 105.6 L 73.0 100.3 L 74.4 94.5 L 75.6 88.3 L 76.7 81.5 L 77.6 74.3 L 78.4 66.6 L 79.01562967300416 59.30039072036743 L 79.0 59.3 L 79.3 56.2 L 91.0 59.6 L 93.8 61.9 L 90.40620775222779 63.43681163787842 L 89.7 68.0 L 88.2 76.0 L 86.5 83.5 L 85.36535749435424 87.62054376602173 L 86.0 88.2 L 88.5 90.2 L 90.8 92.6 L 93.0 95.1 L 95.2 97.8 L 99.2 103.8 L 101.1 107.1 L 102.9 110.5 L 104.6 114.1 L 104.3 118.7 L 101.0 121.8 L 96.4 121.5 L 93.3 118.1 L 91.5 111.1 L 90.5 107.8 L 89.5 104.6 L 88.4 101.5 L 87.3 98.5 L 84.9 92.7 L 84.32762851715088 91.24305448532104 L 82.5 96.9 L 80.2 102.8 L 77.6 108.2 L 74.8 112.9 L 71.7 117.1 L 71.04890832901 117.7324891090393 L 72.6 121.3 L 76.9 129.9 L 81.4 137.7 L 86.0 144.9 L 91.0 151.4 L 96.1 157.2 L 101.4 162.3 L 107.0 166.8 L 109.6 168.9 L 98.7 177.1 L 92.7 171.3 Z M 150.0 153.0 L 162.0 153.0 L 163.2 152.9 L 164.1 152.7 L 165.0 152.4 L 165.4 152.0 L 165.7 151.1 L 165.9 150.2 L 166.0 149.0 L 166.0 36.0 L 126.0 36.0 L 126.0 183.0 L 114.0 189.0 L 114.0 26.0 L 126.0 32.0 L 166.0 32.0 L 172.0 27.0 L 183.0 36.0 L 178.0 40.0 L 178.0 149.0 L 177.8 151.5 L 177.4 154.0 L 176.6 156.4 L 175.3 158.7 L 173.7 160.7 L 171.7 162.3 L 169.4 163.6 L 167.0 164.4 L 164.5 164.8 L 162.0 165.0 L 162.0 159.0 L 150.0 156.0 Z " />
</g>
</svg>
