<svg xmlns="http://www.w3.org/2000/svg" xmlns:xlink="http://www.w3.org/1999/xlink" version="1.1" baseProfile="full" viewBox="0 0 200 200" width="200" height="200">
<g fill="black">
<path d="M 158.3 181.6 L 156.4 183.0 L 154.4 184.3 L 152.3 185.5 L 150.1 186.4 L 147.8 187.1 L 145.5 187.6 L 143.1 187.9 L 140.7 188.0 L 140.7 182.0 L 120.7 179.0 L 120.7 176.0 L 140.7 176.0 L 142.2 175.9 L 143.5 175.7 L 146.1 175.1 L 147.2 174.6 L 148.3 174.0 L 149.4 173.3 L 150.4 172.5 L 151.4 171.5 L 152.4 170.4 L 153.4 169.0 L 154.6 166.6 L 155.9 163.4 L 157.3 159.3 L 158.6 154.5 L 160.0 148.9 L 161.3 142.6 L 162.6 135.5 L 163.9 127.7 L 164.76162786483764 122.0 L 115.98679246902466 122.0 L 112.7 135.0 L 99.6 137.9 L 113.03792486190795 85.0 L 81.6 85.0 L 81.6 81.0 L 145.84799995422364 81.0 L 146.8 77.6 L 148.1 72.8 L 149.3 68.3 L 150.5 64.0 L 151.6 60.0 L 152.7 56.1 L 153.5 52.6 L 154.3 49.2 L 155.0 46.1 L 155.33972368240356 44.12960252761841 L 155.2 44.1 L 156.0 41.6 L 167.0 46.6 L 169.3 49.4 L 165.33018865585328 50.392452812194826 L 164.3 52.6 L 162.7 55.9 L 161.0 59.3 L 159.1 62.9 L 157.1 66.7 L 154.9 70.6 L 152.5 74.7 L 149.8 78.9 L 148.46363639831543 81.0 L 168.4 81.0 L 178.4 71.0 L 190.4 81.0 L 190.4 85.0 L 125.34150943756103 85.0 L 116.99811325073242 118.0 L 165.2 118.0 L 171.2 113.0 L 182.2 122.0 L 177.2 125.0 L 176.42410621643066 125.32328910827637 L 175.8 129.5 L 174.4 137.6 L 173.1 144.9 L 171.7 151.6 L 170.2 157.5 L 168.7 162.8 L 167.2 167.5 L 165.5 171.6 L 163.7 175.1 L 161.7 178.1 L 160.0 179.9 Z M 47.7 152.0 L 57.7 152.0 L 58.9 151.9 L 59.8 151.7 L 60.4 151.5 L 60.8 151.4 L 60.9 151.2 L 61.1 151.0 L 61.3 150.7 L 61.5 150.1 L 61.6 149.2 L 61.7 148.0 L 61.7 35.0 L 31.6 35.0 L 31.6 182.0 L 19.6 188.0 L 19.6 25.0 L 31.6 31.0 L 61.7 31.0 L 67.7 26.0 L 78.7 35.0 L 73.7 39.0 L 73.7 148.0 L 73.6 150.5 L 73.1 153.0 L 72.3 155.4 L 71.1 157.7 L 69.4 159.7 L 67.4 161.3 L 65.2 162.6 L 62.7 163.4 L 60.3 163.8 L 57.7 164.0 L 57.7 158.0 L 47.7 155.0 Z M 113.5 66.8 L 113.0 63.7 L 112.4 60.7 L 111.6 57.7 L 110.8 54.8 L 109.9 51.9 L 108.9 49.0 L 107.9 46.0 L 106.4 43.3 L 107.8 42.2 L 110.1 44.4 L 112.5 46.7 L 114.7 49.1 L 116.8 51.8 L 118.7 54.6 L 120.4 57.6 L 122.0 60.7 L 123.5 64.0 L 124.8 67.4 L 125.9 70.9 L 124.9 75.3 L 121.2 77.9 L 116.7 76.9 L 114.1 73.1 L 113.8 69.9 Z M 88.6 35.0 L 130.0 35.0 L 130.0 12.0 L 142.0 14.0 L 145.0 16.0 L 142.0 17.8 L 142.0 35.0 L 161.3 35.0 L 171.3 25.0 L 183.3 35.0 L 183.3 39.0 L 88.6 39.0 Z " />
</g>
</svg>
