<svg xmlns="http://www.w3.org/2000/svg" xmlns:xlink="http://www.w3.org/1999/xlink" version="1.1" baseProfile="full" viewBox="0 0 200 200" width="200" height="200">
<g fill="black">
<path d="M 36.0 26.0 L 164.0 26.0 L 170.0 21.0 L 181.0 30.0 L 176.0 34.0 L 176.0 178.0 L 164.0 184.0 L 164.0 174.0 L 36.0 174.0 L 36.0 181.0 L 24.0 187.0 L 24.0 20.0 Z M 36.0 30.0 L 36.0 170.0 L 164.0 170.0 L 164.0 30.0 Z M 109.0 137.6 L 123.0 137.6 L 124.3 137.5 L 125.2 137.4 L 125.8 137.2 L 126.1 137.0 L 126.3 136.9 L 126.6 136.3 L 126.8 135.8 L 127.0 134.8 L 127.0 49.4 L 75.4 49.4 L 75.4 161.4 L 63.4 167.4 L 63.4 39.4 L 75.4 45.4 L 127.0 45.4 L 133.0 40.4 L 144.0 49.4 L 139.0 53.4 L 139.0 133.6 L 138.9 136.2 L 138.5 138.7 L 137.7 141.1 L 136.4 143.3 L 134.8 145.4 L 132.8 147.0 L 130.5 148.2 L 128.1 149.0 L 125.6 149.5 L 123.0 149.6 L 123.0 143.6 L 109.0 140.6 Z " />
</g>
</svg>
