<svg xmlns="http://www.w3.org/2000/svg" xmlns:xlink="http://www.w3.org/1999/xlink" version="1.1" baseProfile="full" viewBox="0 0 200 200" width="200" height="200">
<g fill="black">
<path d="M 107.3 160.0 L 122.5 160.0 L 123.4 159.8 L 124.0 159.6 L 124.6 159.3 L 124.7 159.1 L 124.9 158.8 L 125.1 158.2 L 125.2 157.3 L 125.3 156.0 L 125.3 84.9 L 72.0 84.9 L 72.0 181.0 L 60.0 187.0 L 60.0 74.9 L 72.0 80.9 L 125.3 80.9 L 131.3 75.9 L 142.3 84.9 L 137.3 88.9 L 137.3 156.0 L 137.2 158.6 L 136.7 161.1 L 135.9 163.5 L 134.7 165.7 L 133.0 167.8 L 131.0 169.4 L 128.8 170.6 L 126.4 171.4 L 123.9 171.9 L 121.3 172.0 L 121.3 166.0 L 107.3 163.0 Z M 159.0 83.1 L 151.0 77.4 L 143.9 71.0 L 137.7 64.0 L 132.5 56.4 L 128.3 48.2 L 125.1 39.5 L 123.1 30.3 L 122.28350515365601 21.5 L 64.0 21.5 L 64.0 17.5 L 114.0 17.5 L 124.0 7.5 L 136.0 17.5 L 136.0 21.5 L 124.41797752380371 21.5 L 127.1 29.2 L 130.6 37.4 L 134.7 44.9 L 139.4 51.7 L 144.8 57.9 L 150.8 63.5 L 157.5 68.5 L 165.0 73.0 L 173.2 76.9 L 182.2 80.3 L 189.2 82.8 L 177.7 92.6 L 167.9 88.2 Z M 79.1 37.2 L 81.1 40.2 L 77.29567136764527 40.72473497390747 L 74.8 45.6 L 70.0 53.4 L 64.6 60.7 L 58.7 67.2 L 52.2 73.2 L 45.2 78.5 L 37.7 83.0 L 29.7 86.9 L 21.2 90.0 L 12.2 92.3 L 11.7 90.6 L 19.8 86.5 L 27.3 82.2 L 34.2 77.5 L 40.6 72.4 L 46.5 66.9 L 51.8 61.0 L 56.6 54.6 L 60.9 47.8 L 64.7 40.4 L 67.61692667007446 33.50544595718384 L 67.6 33.5 L 67.8777777671814 32.888888931274415 L 68.0 32.6 L 68.00764989852905 32.603170204162595 L 68.6 31.3 Z " />
</g>
</svg>
