<svg xmlns="http://www.w3.org/2000/svg" xmlns:xlink="http://www.w3.org/1999/xlink" version="1.1" baseProfile="full" viewBox="0 0 200 200" width="200" height="200">
<g fill="black">
<path d="M 12.4 164.7 L 22.4 163.2 L 32.3 161.6 L 42.3 160.0 L 52.4 158.5 L 57.0 157.81000003814697 L 57.0 111.4 L 23.1 111.4 L 23.1 107.4 L 57.0 107.4 L 57.0 59.6 L 15.7 59.6 L 15.7 55.6 L 88.2 55.6 L 98.2 45.6 L 110.2 55.6 L 110.2 59.6 L 69.0 59.6 L 69.0 107.4 L 81.9 107.4 L 91.9 97.4 L 103.9 107.4 L 103.9 111.4 L 69.0 111.4 L 69.0 156.08514852523803 L 72.5 155.6 L 82.6 154.1 L 92.7 152.8 L 102.9 151.7 L 113.2 150.7 L 113.5 152.5 L 103.6 155.4 L 93.7 158.1 L 83.8 160.6 L 64.0 165.4 L 54.1 167.6 L 44.2 169.9 L 34.3 172.1 L 24.5 174.4 L 18.663333320617674 175.650714302063 L 17.2 179.1 L 14.7 176.5 L 10.4 165.1 Z M 153.6 153.0 L 165.6 153.0 L 166.8 152.9 L 167.7 152.7 L 168.3 152.5 L 168.7 152.4 L 168.8 152.2 L 169.0 152.0 L 169.2 151.7 L 169.4 151.1 L 169.5 150.2 L 169.6 149.0 L 169.6 36.0 L 136.4 36.0 L 136.4 183.0 L 124.4 189.0 L 124.4 26.0 L 136.4 32.0 L 169.6 32.0 L 175.6 27.0 L 186.6 36.0 L 181.6 40.0 L 181.6 149.0 L 181.5 151.5 L 181.0 154.0 L 180.2 156.4 L 179.0 158.7 L 177.3 160.7 L 175.3 162.3 L 173.1 163.6 L 170.6 164.4 L 168.2 164.8 L 165.6 165.0 L 165.6 159.0 L 153.6 156.0 Z M 60.8 39.1 L 58.6 35.8 L 56.1 32.7 L 53.5 29.6 L 50.6 26.6 L 47.6 23.6 L 44.3 20.6 L 40.9 17.6 L 37.2 14.7 L 38.0 13.1 L 42.6 14.7 L 47.0 16.5 L 51.2 18.6 L 55.1 20.9 L 58.9 23.5 L 62.5 26.3 L 65.9 29.3 L 69.1 32.4 L 72.1 35.8 L 74.8 39.3 L 75.5 43.9 L 72.9 47.6 L 68.4 48.3 L 64.7 45.7 L 62.8 42.3 Z " />
</g>
</svg>
