<svg xmlns="http://www.w3.org/2000/svg" xmlns:xlink="http://www.w3.org/1999/xlink" version="1.1" baseProfile="full" viewBox="0 0 200 200" width="200" height="200">
<g fill="black">
<path d="M 126.8 186.1 L 105.8 184.4 L 87.7 181.9 L 72.3 178.3 L 59.2 173.8 L 51.95970964431763 170.08021774291993 L 48.2 172.9 L 41.0 177.0 L 32.9 180.5 L 24.0 183.4 L 14.2 185.7 L 13.7 183.9 L 22.6 179.9 L 30.6 175.7 L 37.6 171.3 L 43.7 166.7 L 44.85875930786133 165.6094030380249 L 39.4 161.5 L 32.3 153.7 L 26.8 144.8 L 28.3 143.8 L 35.3 150.8 L 43.1 156.8 L 49.78983364105225 160.721626663208 L 53.0 156.9 L 56.2 151.7 L 58.6 146.3 L 60.2 140.6 L 60.64745759963989 137.3 L 39.290797519683835 137.3 L 36.0 140.9 L 23.1 137.1 L 48.940939617156985 109.3 L 15.0 109.3 L 15.0 105.3 L 53.0 105.3 L 59.0 100.3 L 70.0 109.3 L 65.0 112.3 L 60.38629236221313 114.22237815856934 L 42.947239303588866 133.3 L 61.0 133.3 L 67.0 128.3 L 78.0 137.3 L 73.0 140.3 L 71.81325149536133 140.7944785118103 L 71.2 143.5 L 68.5 150.5 L 64.8 157.0 L 60.1 162.9 L 58.40399322509766 164.5034973144531 L 62.2 166.0 L 74.5 169.3 L 89.3 171.8 L 106.7 173.4 L 127.3 174.3 L 151.2 174.3 L 178.8 173.6 L 190.3 173.3 L 179.1 186.8 L 151.2 186.9 Z M 69.2 162.8 L 87.0 162.8 L 87.0 125.6 L 99.0 127.6 L 102.0 129.6 L 99.0 131.4 L 99.0 162.8 L 122.0 162.8 L 122.0 110.73229169845581 L 119.7 110.9 L 109.5 111.5 L 98.9 112.0 L 87.8 112.2 L 76.2 112.2 L 76.1 110.4 L 87.5 108.4 L 98.4 106.6 L 108.9 105.0 L 118.8 103.3 L 128.2 101.8 L 137.2 100.2 L 145.6 98.6 L 153.5 97.0 L 160.9 95.4 L 166.80857849121094 94.02989482879639 L 166.8 94.0 L 166.83021001815797 94.02487888336182 L 167.8 93.8 L 168.04007196426392 95.02123575210571 L 178.7 103.8 L 179.1 106.8 L 174.59949474334718 104.61056499481201 L 170.1 105.5 L 162.9 106.6 L 155.2 107.6 L 147.1 108.5 L 138.4 109.4 L 134.0 109.78681316375733 L 134.0 131.2 L 156.4 131.2 L 166.4 121.2 L 178.4 131.2 L 178.4 135.2 L 134.0 135.2 L 134.0 162.8 L 164.8 162.8 L 174.8 152.8 L 186.8 162.8 L 186.8 166.8 L 69.2 166.8 Z M 37.98888893127442 27.444444465637208 L 39.5 27.0 L 46.2 25.2 L 53.1 23.5 L 59.9 21.8 L 66.8 20.1 L 73.7 18.5 L 80.6 16.8 L 100.61655550003051 11.652885723114014 L 100.6 11.6 L 100.65295038223266 11.643527030944824 L 101.6 11.4 L 101.87788019180297 12.650460815429687 L 112.4 21.3 L 112.7 24.3 L 108.3137188911438 22.19698848724365 L 104.2 23.1 L 96.9 24.3 L 89.7 25.5 L 84.13081254959107 26.36283187866211 L 85.8 30.6 L 88.4 36.8 L 91.0 42.7 L 93.9 48.1 L 96.9 53.1 L 100.0 57.7 L 103.4 61.9 L 107.0 65.7 L 110.9 69.1 L 114.9 72.2 L 117.5 74.3 L 106.6 82.5 L 102.2 78.2 L 98.2 73.5 L 94.6 68.5 L 91.4 63.1 L 88.6 57.5 L 86.2 51.5 L 84.3 45.2 L 82.7 38.6 L 81.7 31.6 L 81.50079450607299 26.75266742706299 L 75.4 27.6 L 68.3 28.5 L 64.60084037780761 28.91680669784546 L 67.5 29.4 L 70.5 31.4 L 67.5 33.2 L 67.5 82.2 L 70.5 82.0 L 77.0 81.6 L 83.8 81.3 L 87.50165090560913 81.24929246902465 L 86.8 80.3 L 84.9 77.9 L 82.8 75.4 L 80.6 72.9 L 77.9 70.6 L 78.8 69.1 L 82.0 70.8 L 85.3 72.2 L 88.3 73.8 L 91.1 75.4 L 93.8 77.2 L 96.3 79.1 L 98.6 81.1 L 100.7 83.1 L 102.6 85.3 L 104.4 87.6 L 104.7 92.2 L 101.8 95.7 L 97.2 96.0 L 93.7 93.1 L 93.1 91.2 L 92.2 89.1 L 91.2 87.0 L 89.9 84.8 L 89.17862596511841 83.6664122581482 L 84.4 85.1 L 77.8 86.9 L 71.5 88.5 L 65.6 89.9 L 60.1 91.2 L 55.0 92.5 L 50.2 93.6 L 45.8 94.6 L 42.30300426483154 95.4742488861084 L 40.6 99.1 L 38.2 96.4 L 34.4 84.9 L 36.4 84.6 L 40.1 84.3 L 44.2 84.0 L 48.7 83.6 L 53.5 83.3 L 55.5 83.14905662536621 L 55.5 29.861971855163574 L 54.1 30.0 L 47.1 30.5 L 40.0 30.7 L 38.9 30.7 L 38.9 53.6 L 38.4 60.3 L 37.5 66.5 L 36.2 72.3 L 34.6 77.7 L 32.5 82.7 L 30.0 87.1 L 27.1 91.0 L 23.9 94.4 L 20.2 97.0 L 16.2 99.0 L 15.2 97.5 L 17.7 94.3 L 19.9 91.0 L 21.8 87.5 L 23.4 83.7 L 24.7 79.6 L 25.7 75.2 L 26.4 70.4 L 26.9 65.2 L 27.0 59.6 L 26.9 53.6 L 26.9 21.9 Z M 153.5 78.5 L 165.5 78.5 L 166.7 78.4 L 167.6 78.3 L 168.2 78.1 L 168.5 77.9 L 168.9 77.5 L 169.2 76.6 L 169.4 75.7 L 169.5 74.5 L 169.5 27.1 L 136.0 27.1 L 136.0 94.3 L 124.0 100.3 L 124.0 17.1 L 136.0 23.1 L 169.5 23.1 L 175.5 18.1 L 186.5 27.1 L 181.5 31.1 L 181.5 74.5 L 181.3 77.0 L 180.9 79.5 L 180.1 81.9 L 178.8 84.2 L 177.2 86.2 L 175.2 87.9 L 172.9 89.1 L 170.5 89.9 L 168.0 90.3 L 165.5 90.5 L 165.5 84.5 L 153.5 81.5 Z " />
</g>
</svg>
