<svg xmlns="http://www.w3.org/2000/svg" xmlns:xlink="http://www.w3.org/1999/xlink" version="1.1" baseProfile="full" viewBox="0 0 200 200" width="200" height="200">
<g fill="black">
<path d="M 115.2 178.0 L 136.4 178.0 L 137.3 177.8 L 137.9 177.6 L 138.3 177.4 L 138.6 177.1 L 138.8 176.8 L 139.0 176.2 L 139.1 175.3 L 139.2 174.0 L 139.2 144.4 L 48.9 144.4 L 48.9 140.4 L 139.2 140.4 L 139.2 123.2 L 151.2 125.2 L 154.2 127.2 L 151.2 129.0 L 151.2 140.4 L 162.8 140.4 L 172.8 130.4 L 184.8 140.4 L 184.8 144.4 L 151.2 144.4 L 151.2 174.0 L 151.1 176.6 L 150.6 179.1 L 149.8 181.5 L 148.6 183.7 L 146.9 185.8 L 144.9 187.4 L 142.7 188.6 L 140.2 189.4 L 137.8 189.9 L 135.2 190.0 L 135.2 184.0 L 115.2 181.0 Z M 40.0 26.0 L 166.0 26.0 L 176.0 16.0 L 188.0 26.0 L 188.0 30.0 L 40.0 30.0 L 40.0 91.0 L 39.4 105.1 L 38.4 118.3 L 37.0 130.6 L 35.0 141.9 L 32.6 152.4 L 29.7 161.9 L 26.2 170.4 L 22.3 177.9 L 17.7 184.3 L 12.6 189.5 L 11.3 188.4 L 14.5 182.3 L 17.5 175.5 L 20.1 168.0 L 22.4 159.7 L 24.3 150.5 L 25.8 140.4 L 27.0 129.4 L 27.7 117.5 L 28.0 104.7 L 28.0 20.0 Z M 94.8 164.0 L 93.8 162.7 L 92.4 161.2 L 90.6 159.7 L 88.5 158.1 L 85.9 156.4 L 83.1 154.6 L 79.9 152.7 L 76.2 151.2 L 76.7 149.5 L 80.7 150.4 L 84.4 150.9 L 87.9 151.5 L 91.1 152.2 L 94.0 153.0 L 96.7 153.9 L 99.2 155.0 L 101.5 156.1 L 103.5 157.5 L 105.4 159.2 L 106.3 163.6 L 103.9 167.5 L 99.4 168.4 L 95.5 166.0 L 95.4 165.1 Z M 70.8 126.3 L 58.8 132.3 L 58.8 41.1 L 70.8 47.1 L 151.71818180084227 47.1 L 159.9 38.1 L 169.9 47.1 L 169.9 51.1 L 118.7 51.1 L 118.7 68.2 L 147.5 68.2 L 153.5 63.2 L 164.5 72.2 L 159.5 76.2 L 159.5 98.2 L 147.5 104.2 L 147.5 96.2 L 118.7 96.2 L 118.7 115.3 L 155.3181818008423 115.3 L 163.5 106.3 L 173.5 115.3 L 173.5 119.3 L 70.8 119.3 Z M 70.8 96.2 L 70.8 115.3 L 106.7 115.3 L 106.7 96.2 Z M 70.8 92.2 L 147.5 92.2 L 147.5 72.2 L 70.8 72.2 Z M 70.8 51.1 L 70.8 68.2 L 106.7 68.2 L 106.7 51.1 Z " />
</g>
</svg>
