<svg xmlns="http://www.w3.org/2000/svg" xmlns:xlink="http://www.w3.org/1999/xlink" version="1.1" baseProfile="full" viewBox="0 0 200 200" width="200" height="200">
<g fill="black">
<path d="M 38.1 20.4 L 164.8834711074829 20.4 L 174.9 10.3 L 186.9 20.4 L 186.9 24.4 L 38.1 24.4 L 38.1 88.5 L 37.6 103.3 L 36.6 117.2 L 35.1 130.1 L 33.2 142.0 L 30.7 152.9 L 27.8 162.9 L 24.4 171.8 L 20.4 179.7 L 15.8 186.5 L 10.7 192.0 L 9.3 190.8 L 12.6 184.5 L 15.5 177.4 L 18.2 169.5 L 20.5 160.8 L 22.4 151.1 L 24.0 140.5 L 25.1 129.0 L 25.9 116.4 L 26.2 103.0 L 26.1 88.5 L 26.1 14.4 Z M 45.2 159.2 L 49.4 158.1 L 52.1 157.34651165008546 L 52.1 104.5 L 64.1 106.5 L 67.1 108.5 L 64.1 110.3 L 64.1 154.09767446517944 L 66.6 153.4 L 70.9 152.3 L 75.3 151.1 L 82.6 149.4777777671814 L 82.6 87.1 L 94.6 89.1 L 97.6 91.1 L 94.6 92.9 L 94.6 184.8 L 82.6 190.8 L 82.6 154.1 L 81.6 154.7 L 77.6 157.0 L 73.6 159.1 L 69.5 161.2 L 65.4 163.1 L 61.4 165.1 L 57.3 166.9 L 53.2 168.8 L 52.97776908874512 168.89756479263306 L 52.0 172.7 L 49.1 170.6 L 43.3 159.9 Z M 159.4 178.8 L 150.8 172.1 L 143.3232138633728 164.81741609573365 L 142.6 165.5 L 132.8 172.9 L 122.0 179.4 L 110.2 184.9 L 97.4 189.3 L 96.8 187.6 L 108.5 181.4 L 119.2 174.8 L 128.9 167.7 L 137.5 159.9 L 138.41162557601928 158.89241380691527 L 136.2 156.2 L 130.2 147.0 L 125.0 136.9 L 120.7 126.1 L 117.4 114.5 L 115.34079999923706 102.8 L 103.1 102.8 L 103.1 98.8 L 168.5 98.8 L 174.5 93.8 L 185.5 102.8 L 180.5 105.8 L 179.0839285850525 106.3900297164917 L 176.7 114.8 L 171.9 126.7 L 166.2 137.7 L 159.3 147.9 L 151.5 157.1 L 150.81750106811523 157.7441562652588 L 157.8 163.5 L 165.8 168.8 L 174.4 173.3 L 183.6 177.0 L 190.4 179.6 L 178.9 189.4 L 168.8 184.5 Z M 117.36551723480224 102.8 L 121.4 113.2 L 126.2 123.9 L 131.4 133.6 L 137.2 142.4 L 143.5 150.4 L 144.85318460464478 151.77279596328736 L 145.1 151.5 L 151.7 142.5 L 157.4 132.8 L 162.1 122.5 L 165.8 111.4 L 167.84067792892455 102.8 Z M 50.0 78.0 L 110.0 78.0 L 110.0 47.0 L 60.0 47.0 L 60.0 43.0 L 149.0 43.0 L 159.0 33.0 L 171.0 43.0 L 171.0 47.0 L 122.0 47.0 L 122.0 78.0 L 162.0 78.0 L 172.0 68.0 L 184.0 78.0 L 184.0 82.0 L 50.0 82.0 Z " />
</g>
</svg>
