<svg xmlns="http://www.w3.org/2000/svg" xmlns:xlink="http://www.w3.org/1999/xlink" version="1.1" baseProfile="full" viewBox="0 0 200 200" width="200" height="200">
<g fill="black">
<path d="M 77.3 159.7 L 145.6 159.7 L 151.6 154.7 L 162.6 163.7 L 157.6 167.7 L 157.6 183.8 L 145.6 189.8 L 145.6 183.8 L 77.3 183.8 L 65.3 189.8 L 65.3 153.7 Z M 39.3 85.3 L 154.8 85.3 L 164.74652404785155 75.35347595214844 L 158.4 74.8 L 142.4 72.9 L 127.6 70.7 L 113.9 68.0 L 101.4 65.0 L 99.95115060806275 64.56788702011109 L 92.8 66.4 L 79.6 69.1 L 65.1 71.2 L 49.3 72.9 L 32.3 74.0 L 14.0 74.4 L 13.9 72.7 L 31.9 70.2 L 48.6 67.6 L 64.0 64.8 L 78.0 61.6 L 85.01113805770873 59.723002433776855 L 79.9 57.8 L 70.9 53.5 L 63.3 48.7 L 57.2 43.3 L 57.85538921356201 42.46586828231811 L 51.3 42.9 L 35.2 43.5 L 18.0 43.4 L 17.9 41.6 L 34.9 39.7 L 50.8 37.6 L 65.6 35.4 L 79.3 32.9 L 91.9 30.1 L 98.39272594451904 28.40624542236328 L 90.5 26.9 L 76.4 24.3 L 61.2 21.6 L 44.8 18.8 L 45.0 17.0 L 61.6 17.8 L 77.1 19.0 L 91.5 20.4 L 104.8 21.9 L 115.08523826599121 23.248883724212646 L 123.0 20.1 L 131.1 16.3 L 137.1176160812378 12.724315071105957 L 137.1 12.7 L 137.12135095596312 12.722095775604249 L 138.0 12.2 L 140.28508977890016 15.996197605133057 L 145.7 21.6 L 145.8 25.0 L 142.1905366897583 23.48022594451904 L 136.0 26.5 L 135.5420316696167 26.681174278259277 L 138.3 27.2 L 147.3 29.1 L 155.3 31.2 L 162.4 33.4 L 165.6 36.6 L 165.7 41.2 L 162.5 44.4 L 157.9 44.6 L 151.8 42.0 L 144.5 39.5 L 135.9 36.9 L 126.3 34.4 L 118.8044641494751 32.66492223739624 L 116.8 33.3 L 105.7 36.1 L 93.6 38.4 L 80.5 40.4 L 66.4 41.9 L 59.33771200180054 42.36770114898682 L 65.4 45.1 L 73.4 48.1 L 82.3 51.0 L 92.3 53.6 L 99.9240083694458 55.179749488830566 L 102.0 54.5 L 111.9 50.4 L 120.4 46.1 L 127.5 41.5 L 132.8545454978943 37.0848484992981 L 133.4 36.6 L 141.2 45.7 L 141.7 49.3 L 137.9165343284607 48.08388605117798 L 133.9 51.0 L 125.4 55.6 L 118.79346208572387 58.39245414733887 L 129.1 59.7 L 143.7 61.2 L 159.4 62.3 L 176.3 63.1 L 187.5 63.7 L 175.6 76.3 L 164.87792205810547 75.36493511199951 L 176.8 85.3 L 176.8 89.3 L 39.3 89.3 L 39.3 127.7 L 38.7 136.4 L 37.6 144.6 L 35.9 152.3 L 33.7 159.4 L 30.9 166.0 L 27.5 172.0 L 23.6 177.3 L 19.1 181.9 L 14.0 185.7 L 8.5 188.7 L 7.5 187.2 L 11.6 182.9 L 15.1 178.3 L 18.2 173.5 L 20.9 168.3 L 23.1 162.7 L 24.8 156.7 L 26.1 150.2 L 27.0 143.2 L 27.4 135.7 L 27.3 127.7 L 27.3 79.3 Z M 77.3 163.7 L 77.3 179.8 L 145.6 179.8 L 145.6 163.7 Z M 156.5 146.3 L 156.5 150.3 L 66.4 150.3 L 66.4 146.3 L 142.2777777671814 146.3 L 148.5 139.3 Z M 156.5 132.8 L 156.5 136.8 L 66.4 136.8 L 66.4 132.8 L 142.2777777671814 132.8 L 148.5 125.8 Z M 179.9 118.7 L 179.9 122.7 L 43.0 122.7 L 43.0 118.7 L 165.6777777671814 118.7 L 171.9 111.7 Z M 157.3 104.2 L 157.3 108.2 L 65.6 108.2 L 65.6 104.2 L 139.11818180084228 104.2 L 147.3 95.2 Z " />
</g>
</svg>
