<svg xmlns="http://www.w3.org/2000/svg" xmlns:xlink="http://www.w3.org/1999/xlink" version="1.1" baseProfile="full" viewBox="0 0 200 200" width="200" height="200">
<g fill="black">
<path d="M 84.1 68.9 L 149.8 68.9 L 155.8 63.9 L 166.8 72.9 L 161.8 76.9 L 161.8 172.0 L 149.8 178.0 L 149.8 166.0 L 84.1 166.0 L 84.1 178.0 L 72.1 184.0 L 72.1 62.9 Z M 44.4 28.4 L 158.9 28.4 L 168.9 18.4 L 180.9 28.4 L 180.9 32.4 L 44.4 32.4 L 44.4 89.9 L 43.9 103.3 L 42.9 115.8 L 41.6 127.4 L 39.7 138.2 L 37.5 148.0 L 34.7 157.0 L 31.5 165.1 L 27.8 172.2 L 23.5 178.2 L 18.7 183.1 L 17.4 182.0 L 20.3 176.2 L 23.0 169.8 L 25.4 162.7 L 27.4 154.9 L 29.2 146.2 L 30.6 136.7 L 31.6 126.3 L 32.2 115.1 L 32.5 102.9 L 32.4 89.9 L 32.4 22.4 Z M 84.1 118.1 L 84.1 162.0 L 149.8 162.0 L 149.8 118.1 Z M 84.1 72.9 L 84.1 114.1 L 149.8 114.1 L 149.8 72.9 Z " />
</g>
</svg>
