<svg xmlns="http://www.w3.org/2000/svg" xmlns:xlink="http://www.w3.org/1999/xlink" version="1.1" baseProfile="full" viewBox="0 0 200 200" width="200" height="200">
<g fill="black">
<path d="M 40.0 26.0 L 166.0 26.0 L 176.0 16.0 L 188.0 26.0 L 188.0 30.0 L 40.0 30.0 L 40.0 91.0 L 39.4 105.1 L 38.4 118.3 L 37.0 130.6 L 35.0 141.9 L 32.6 152.4 L 29.7 161.9 L 26.2 170.4 L 22.3 177.9 L 17.7 184.3 L 12.6 189.5 L 11.3 188.4 L 14.5 182.3 L 17.5 175.5 L 20.1 168.0 L 22.4 159.7 L 24.3 150.5 L 25.8 140.4 L 27.0 129.4 L 27.7 117.5 L 28.0 104.7 L 28.0 20.0 Z M 167.6 168.1 L 163.4 160.6 L 161.30122804641724 155.76116466522217 L 160.5 157.5 L 155.1 166.5 L 149.1 174.2 L 142.5 180.5 L 135.2 185.3 L 134.2 183.8 L 134.55 183.425 L 128.2 186.6 L 128.2 154.5764705657959 L 127.6 155.0 L 124.3 157.1 L 120.9 159.1 L 117.7 161.0 L 114.5 162.7 L 108.3 165.9 L 106.47714281082153 166.7800000190735 L 105.3 170.9 L 102.5 168.6 L 97.0 157.7 L 98.9 157.1 L 101.8 156.6 L 104.6 156.05806455612182 L 104.6 78.1 L 99.2 78.1 L 99.2 74.1 L 116.4 74.1 L 116.4 49.6 L 102.2 49.6 L 102.2 45.6 L 126.91818180084229 45.6 L 135.1 36.6 L 145.1 45.6 L 145.1 49.6 L 128.4 49.6 L 128.4 74.1 L 130.3181818008423 74.1 L 138.5 65.1 L 148.5 74.1 L 148.5 78.1 L 140.2 78.1 L 140.2 177.25882349014282 L 144.9 170.9 L 149.5 163.2 L 153.6 154.3 L 157.13780317306518 144.57104139328004 L 156.7 143.3 L 154.2 133.6 L 152.2 123.1 L 150.8 111.9 L 150.0 99.9 L 150.0 97.80666666030884 L 147.1 103.8 L 143.8 109.6 L 142.2 108.9 L 143.6 102.5 L 145.0 95.9 L 146.5 89.2 L 148.0 82.3 L 149.3 75.1 L 150.6 67.8 L 151.7 60.2 L 152.7 52.3 L 153.6 44.3 L 154.30474309921266 36.90019760131836 L 154.3 36.9 L 154.6 33.8 L 166.3 37.4 L 169.0 39.7 L 165.66496601104737 41.210204124450684 L 164.9 45.8 L 163.3 54.1 L 161.6 62.0 L 159.6 69.7 L 158.0054054260254 75.6 L 171.5777777671814 75.6 L 177.8 68.6 L 185.8 75.6 L 185.8 79.6 L 179.3419753074646 79.6 L 177.9 94.2 L 175.6 109.2 L 172.8 123.1 L 169.3 135.8 L 166.7449595451355 142.96657686233522 L 169.1 148.2 L 173.1 155.3 L 177.3 161.4 L 181.9 166.7 L 186.7 171.1 L 188.6 172.8 L 177.9 180.9 L 172.4 174.9 Z M 86.3 96.3 L 85.1 93.6 L 83.8 90.7 L 82.3 87.7 L 80.7 84.7 L 78.9 81.6 L 77.0 78.3 L 76.10866146087646 76.78472442626953 L 74.8 80.1 L 71.6 87.4 L 68.2 94.4 L 64.6 101.1 L 60.8 107.6 L 58.281481456756595 111.44074077606201 L 66.4 115.5 L 84.4 115.5 L 89.9 110.5 L 100.4 119.5 L 95.4 123.0 L 95.4 170.3 L 84.4 175.8 L 84.4 164.3 L 66.4 164.3 L 66.4 176.3 L 54.4 182.3 L 54.4 116.95714282989502 L 52.6 119.4 L 48.1 124.8 L 43.2 129.7 L 41.8 128.6 L 45.0 122.6 L 48.1 116.5 L 51.1 110.4 L 54.1 104.0 L 57.0 97.4 L 59.7 90.6 L 62.2 83.6 L 64.7 76.4 L 67.0 68.9 L 68.8291088104248 62.1061671257019 L 68.8 62.1 L 69.04615383148193 61.3 L 69.1 61.1 L 69.1070336341858 61.102140712738034 L 69.6 59.5 L 80.6 64.6 L 82.9 67.4 L 79.29365119934081 68.28576984405518 L 77.8 72.5 L 77.5106598854065 73.23299493789673 L 80.4 75.4 L 83.3 78.0 L 86.1 80.6 L 88.6 83.2 L 91.0 85.8 L 93.3 88.5 L 95.3 91.1 L 97.2 93.8 L 99.0 96.5 L 99.1 101.0 L 96.1 104.5 L 91.5 104.6 L 88.1 101.6 L 87.3 99.0 Z M 66.4 119.5 L 66.4 160.3 L 84.4 160.3 L 84.4 119.5 Z M 115.6 129.8 L 115.6 153.49428567886352 L 118.3 152.8 L 122.0 151.8 L 125.8 150.9 L 128.2 150.3 L 128.2 129.8 Z M 156.79014081954955 79.6 L 155.3 84.2 L 152.8 91.1 L 152.64596576690673 91.47082319259644 L 154.2 99.5 L 156.6 111.0 L 159.3 121.6 L 161.32596893310546 128.44637775421143 L 162.9 121.0 L 165.0 107.6 L 166.5 93.0 L 167.4329113960266 79.6 Z M 115.6 103.9 L 115.6 125.8 L 128.2 125.8 L 128.2 103.9 Z M 115.6 78.1 L 115.6 99.9 L 128.2 99.9 L 128.2 78.1 Z M 70.3 42.7 L 72.7 45.4 L 68.9573426246643 46.53616380691528 L 68.9 46.7 L 67.3 50.7 L 65.6 54.8 L 63.7 59.0 L 61.6 63.3 L 59.3 67.6 L 56.8 72.1 L 54.0 76.5 L 51.0 81.0 L 47.6 85.6 L 46.0 84.7 L 47.7 79.4 L 49.3 74.3 L 50.9 69.4 L 52.4 64.7 L 53.8 60.2 L 55.1 55.8 L 56.2 51.6 L 57.1 47.5 L 58.0 43.6 L 58.45268983840943 40.808412647247316 L 58.4 40.8 L 59.0 38.1 Z M 89.3 59.8 L 88.5 57.4 L 87.5 55.0 L 86.4 52.7 L 85.1 50.3 L 83.7 47.9 L 82.2 45.5 L 80.5 43.0 L 78.5 40.8 L 79.6 39.4 L 82.2 41.0 L 85.0 42.5 L 87.6 44.2 L 90.0 46.1 L 92.4 48.1 L 94.5 50.2 L 96.6 52.5 L 98.5 55.0 L 100.2 57.5 L 101.8 60.2 L 101.6 64.8 L 98.4 68.0 L 93.8 67.9 L 90.6 64.6 L 90.0 62.2 Z " />
</g>
</svg>
