<svg xmlns="http://www.w3.org/2000/svg" xmlns:xlink="http://www.w3.org/1999/xlink" version="1.1" baseProfile="full" viewBox="0 0 200 200" width="200" height="200">
<g fill="black">
<path d="M 40.0 26.0 L 166.0 26.0 L 176.0 16.0 L 188.0 26.0 L 188.0 30.0 L 40.0 30.0 L 40.0 91.0 L 39.4 105.1 L 38.4 118.3 L 37.0 130.6 L 35.0 141.9 L 32.6 152.4 L 29.7 161.9 L 26.2 170.4 L 22.3 177.9 L 17.7 184.3 L 12.6 189.5 L 11.3 188.4 L 14.5 182.3 L 17.5 175.5 L 20.1 168.0 L 22.4 159.7 L 24.3 150.5 L 25.8 140.4 L 27.0 129.4 L 27.7 117.5 L 28.0 104.7 L 28.0 20.0 Z M 155.1 176.2 L 145.1 167.1 L 136.3 155.9 L 128.4 142.6 L 121.6 127.3 L 115.6 110.0 L 111.99179420471191 95.78808755874634 L 46.6 102.5 L 46.2 98.5 L 110.99188346862793 91.84966325759888 L 110.7 90.7 L 106.6 69.4 L 103.53632440567017 47.092611980438235 L 103.5 47.1 L 103.1 44.0 L 115.3 44.7 L 118.5 46.4 L 115.80947895050049 48.447135543823244 L 118.4 67.5 L 122.4 88.1 L 123.0384840965271 90.61318197250367 L 156.82793111801146 87.1449821472168 L 165.7 76.2 L 178.7 84.9 L 179.1 88.9 L 124.0390398979187 94.55154008865357 L 127.1 106.6 L 132.7 122.9 L 139.1 137.1 L 146.2 149.1 L 154.0 158.9 L 162.4 166.7 L 171.5 172.5 L 174.49614562988282 173.65003566741944 L 179.7 151.1 L 181.7 151.1 L 179.8085283279419 175.6891321182251 L 181.4 176.3 L 184.9 179.2 L 185.5 183.7 L 182.6 187.3 L 178.1 187.9 L 166.1 183.2 Z M 150.1 67.8 L 148.6 65.3 L 146.7 62.8 L 144.6 60.2 L 142.2 57.7 L 139.5 55.1 L 136.5 52.5 L 133.2 49.8 L 129.5 47.3 L 130.3 45.7 L 134.6 47.2 L 138.7 48.6 L 142.6 50.3 L 146.3 52.2 L 149.7 54.2 L 152.8 56.4 L 155.7 58.8 L 158.4 61.3 L 160.8 64.1 L 163.0 67.0 L 163.4 71.5 L 160.5 75.1 L 155.9 75.5 L 152.4 72.6 L 151.4 70.2 Z " />
</g>
</svg>
