<svg xmlns="http://www.w3.org/2000/svg" xmlns:xlink="http://www.w3.org/1999/xlink" version="1.1" baseProfile="full" viewBox="0 0 200 200" width="200" height="200">
<g fill="black">
<path d="M 40.0 26.0 L 166.0 26.0 L 176.0 16.0 L 188.0 26.0 L 188.0 30.0 L 40.0 30.0 L 40.0 91.0 L 39.4 105.1 L 38.4 118.3 L 37.0 130.6 L 35.0 141.9 L 32.6 152.4 L 29.7 161.9 L 26.2 170.4 L 22.3 177.9 L 17.7 184.3 L 12.6 189.5 L 11.3 188.4 L 14.5 182.3 L 17.5 175.5 L 20.1 168.0 L 22.4 159.7 L 24.3 150.5 L 25.8 140.4 L 27.0 129.4 L 27.7 117.5 L 28.0 104.7 L 28.0 20.0 Z M 159.9 153.0 L 153.2 146.3 L 146.8 138.9 L 140.9 130.9 L 135.4 122.3 L 130.4 113.1 L 125.8 103.3 L 121.8 92.8 L 121.0 90.08484849929809 L 121.0 182.1 L 109.0 188.1 L 109.0 101.53962268829346 L 107.3 105.1 L 101.5 115.4 L 95.2 125.1 L 88.3 134.0 L 81.0 142.3 L 73.2 149.8 L 64.8 156.5 L 56.0 162.3 L 46.6 167.3 L 45.7 165.8 L 53.8 159.3 L 61.4 152.4 L 68.6 145.1 L 75.3 137.2 L 81.6 128.9 L 87.4 120.0 L 92.7 110.5 L 97.6 100.4 L 102.1 89.7 L 104.61914892196656 82.3 L 49.4 82.3 L 49.4 78.3 L 109.0 78.3 L 109.0 39.6 L 121.0 41.6 L 124.0 43.6 L 121.0 45.4 L 121.0 78.3 L 158.6 78.3 L 168.6 68.3 L 180.6 78.3 L 180.6 82.3 L 121.0 82.3 L 121.0 82.41111106872559 L 125.6 91.1 L 131.1 100.6 L 136.7 109.5 L 142.4 117.7 L 148.4 125.3 L 154.5 132.2 L 161.0 138.4 L 167.6 144.0 L 174.5 149.0 L 181.6 153.3 L 185.9 155.9 L 174.7 164.6 L 167.1 159.1 Z " />
</g>
</svg>
