<svg xmlns="http://www.w3.org/2000/svg" xmlns:xlink="http://www.w3.org/1999/xlink" version="1.1" baseProfile="full" viewBox="0 0 200 200" width="200" height="200">
<g fill="black">
<path d="M 39.5 26.0 L 166.0 26.0 L 176.0 16.0 L 188.0 26.0 L 188.0 30.0 L 39.5 30.0 L 39.5 91.0 L 38.9 105.1 L 38.0 118.3 L 36.5 130.5 L 34.6 141.9 L 32.2 152.3 L 29.4 161.8 L 26.0 170.3 L 22.1 177.8 L 17.6 184.2 L 12.6 189.5 L 11.3 188.4 L 14.7 182.3 L 17.7 175.6 L 20.4 168.1 L 22.7 159.8 L 24.7 150.6 L 26.2 140.5 L 27.4 129.5 L 28.2 117.6 L 28.5 104.7 L 28.5 20.5 Z M 165.8 175.2 L 161.4 167.8 L 157.6 159.8 L 154.5 151.0 L 152.0 141.4 L 150.1 131.2 L 149.49948272705078 125.69525861740112 L 148.4 130.8 L 145.0 142.6 L 141.0 153.2 L 136.3 162.7 L 131.0 171.1 L 125.0 178.1 L 118.3 183.9 L 111.0 188.1 L 110.1 186.6 L 115.8 181.0 L 120.9 174.7 L 125.5 167.5 L 129.5 159.3 L 133.1 150.2 L 136.1 139.9 L 138.6 128.6 L 140.6 116.2 L 141.9 102.7 L 142.74458866119386 88.99889450073242 L 142.7 89.0 L 142.9 85.8 L 154.8 88.7 L 157.6 90.9 L 154.41389799118042 92.58675985336303 L 153.3 103.8 L 152.63106546401977 108.25956354141235 L 154.8 119.4 L 157.2 129.8 L 160.0 139.2 L 163.2 147.8 L 166.9 155.4 L 170.9 162.2 L 175.3 168.0 L 180.0 173.0 L 185.1 177.1 L 187.7 179.3 L 176.8 187.5 L 171.0 181.7 Z M 52.5 175.6 L 70.5 175.6 L 71.7 175.5 L 72.6 175.3 L 73.2 175.2 L 73.5 175.0 L 73.9 174.6 L 74.2 173.7 L 74.4 172.8 L 74.5 171.6 L 74.5 148.3 L 41.7 148.3 L 41.7 144.3 L 74.5 144.3 L 74.5 129.0 L 83.00188674926758 130.41698112487794 L 84.2 128.5 L 85.8 126.3 L 87.4 124.0 L 88.9 121.9 L 90.4 119.7 L 91.9 117.6 L 91.96666669845581 117.5 L 55.5 117.5 L 55.5 113.5 L 94.5 113.5 L 94.95 113.125 L 96.1 111.4 L 96.53433475494384 111.80472106933594 L 100.5 108.5 L 111.5 117.5 L 106.5 120.5 L 100.26000003814697 123.1 L 96.3 125.8 L 94.0 127.3 L 91.7 128.7 L 89.3 130.1 L 87.04456520080566 131.3630434989929 L 89.5 133.0 L 86.5 134.8 L 86.5 144.3 L 97.6 144.3 L 107.6 134.3 L 119.6 144.3 L 119.6 148.3 L 86.5 148.3 L 86.5 171.6 L 86.3 174.1 L 85.9 176.6 L 85.1 179.0 L 83.8 181.3 L 82.2 183.3 L 80.2 185.0 L 77.9 186.2 L 75.5 187.0 L 73.0 187.4 L 70.5 187.6 L 70.5 181.6 L 52.5 178.6 Z M 142.7 46.4 L 145.4 48.8 L 141.94229249954225 50.27272729873657 L 140.9 55.6 L 138.9 64.5 L 136.6 73.1 L 135.43928575515747 77.0 L 171.9 77.0 L 177.9 72.0 L 188.9 81.0 L 183.9 84.0 L 181.67632656097413 84.92653064727783 L 181.6 85.1 L 178.6 91.1 L 176.8 94.5 L 174.7 98.4 L 172.4 102.6 L 169.8 107.1 L 166.8 111.9 L 163.7 117.2 L 162.1 116.4 L 163.9 110.6 L 165.4 105.2 L 166.8 100.2 L 168.1 95.7 L 169.3 91.6 L 170.2 87.9 L 171.0 84.6 L 171.6 81.8 L 171.70434780120848 81.0 L 134.24880952835082 81.0 L 134.1 81.5 L 131.4 89.5 L 128.4 97.2 L 125.2 104.7 L 121.7 111.8 L 117.8 118.5 L 113.5 124.8 L 112.0 123.9 L 114.4 116.9 L 116.7 109.7 L 119.1 102.3 L 121.2 94.8 L 123.3 87.0 L 125.2 79.0 L 126.9 70.8 L 128.4 62.3 L 129.7 53.6 L 130.7779510498047 45.60519676208496 L 130.7 45.6 L 131.2 42.7 Z M 61.9 48.7 L 98.5 48.7 L 104.5 43.7 L 115.5 52.7 L 110.5 56.7 L 110.5 98.7 L 98.5 104.7 L 98.5 98.7 L 61.9 98.7 L 50.9 104.2 L 50.9 43.2 Z M 61.9 75.7 L 61.9 94.7 L 98.5 94.7 L 98.5 75.7 Z M 61.9 52.7 L 61.9 71.7 L 98.5 71.7 L 98.5 52.7 Z " />
</g>
</svg>
