<svg xmlns="http://www.w3.org/2000/svg" xmlns:xlink="http://www.w3.org/1999/xlink" version="1.1" baseProfile="full" viewBox="0 0 200 200" width="200" height="200">
<g fill="black">
<path d="M 40.0 26.0 L 166.0 26.0 L 176.0 16.0 L 188.0 26.0 L 188.0 30.0 L 40.0 30.0 L 40.0 91.0 L 39.4 105.1 L 38.4 118.3 L 37.0 130.6 L 35.0 141.9 L 32.6 152.4 L 29.7 161.9 L 26.2 170.4 L 22.3 177.9 L 17.7 184.3 L 12.6 189.5 L 11.3 188.4 L 14.5 182.3 L 17.5 175.5 L 20.1 168.0 L 22.4 159.7 L 24.3 150.5 L 25.8 140.4 L 27.0 129.4 L 27.7 117.5 L 28.0 104.7 L 28.0 20.0 Z M 176.0 144.4 L 178.0 144.4 L 176.0 169.4 L 179.6 171.8 L 182.0 175.4 L 179.6 179.0 L 176.0 181.4 L 134.8 181.4 L 132.2 181.3 L 129.7 180.9 L 127.3 180.0 L 125.0 178.8 L 123.0 177.2 L 121.4 175.2 L 120.1 172.9 L 119.3 170.5 L 118.9 168.0 L 118.8 165.4 L 118.8 113.0 L 101.275 113.0 L 105.1 113.9 L 108.0 116.0 L 104.65500822067261 117.83646612167358 L 103.8 125.4 L 101.3 136.1 L 97.7 145.8 L 93.0 154.6 L 87.3 162.4 L 80.4 169.2 L 72.6 174.9 L 63.8 179.5 L 54.0 182.9 L 43.4 185.2 L 42.9 183.4 L 52.7 179.3 L 61.3 174.7 L 68.8 169.5 L 75.2 163.6 L 80.6 157.2 L 85.0 150.0 L 88.4 142.0 L 90.9 133.3 L 92.5 123.8 L 93.1 113.4 L 93.13026485443115 113.40126104354859 L 93.14242420196533 113.0 L 80.4 113.0 L 80.4 125.0 L 68.4 131.0 L 68.4 48.3 L 80.4 54.3 L 145.2 54.3 L 151.2 49.3 L 162.2 58.3 L 157.2 62.3 L 157.2 119.0 L 145.2 125.0 L 145.2 113.0 L 130.8 113.0 L 130.8 166.7 L 131.0 167.6 L 131.3 168.5 L 131.5 168.7 L 131.7 168.8 L 132.0 169.0 L 132.6 169.2 L 133.5 169.4 L 170.0 169.4 Z M 80.4 58.3 L 80.4 109.0 L 145.2 109.0 L 145.2 58.3 Z " />
</g>
</svg>
