<svg xmlns="http://www.w3.org/2000/svg" xmlns:xlink="http://www.w3.org/1999/xlink" version="1.1" baseProfile="full" viewBox="0 0 200 200" width="200" height="200">
<g fill="black">
<path d="M 40.0 26.0 L 166.0 26.0 L 176.0 16.0 L 188.0 26.0 L 188.0 30.0 L 40.0 30.0 L 40.0 91.0 L 39.4 105.1 L 38.4 118.3 L 37.0 130.6 L 35.0 141.9 L 32.6 152.4 L 29.7 161.9 L 26.2 170.4 L 22.3 177.9 L 17.7 184.3 L 12.6 189.5 L 11.3 188.4 L 14.5 182.3 L 17.5 175.5 L 20.1 168.0 L 22.4 159.7 L 24.3 150.5 L 25.8 140.4 L 27.0 129.4 L 27.7 117.5 L 28.0 104.7 L 28.0 20.0 Z M 164.8 183.6 L 161.2 181.6 L 157.0 179.7 L 152.2 177.7 L 146.9 175.8 L 141.1 173.8 L 134.7 171.8 L 127.9 169.7 L 120.5 167.4 L 120.8 165.6 L 128.5 165.9 L 135.8 166.5 L 142.6 167.4 L 148.8 168.4 L 154.7 169.6 L 160.0 170.9 L 164.9 172.3 L 169.4 173.9 L 173.5 175.7 L 177.1 177.6 L 179.6 181.5 L 178.7 185.9 L 174.8 188.4 L 170.3 187.5 L 167.9 185.6 Z M 92.94965810775757 164.22438106536865 L 99.6 170.8 L 99.7 174.2 L 96.04465742111206 172.65112600326538 L 93.2 173.9 L 88.7 175.6 L 83.8 177.3 L 78.5 178.9 L 72.7 180.5 L 66.5 182.1 L 59.9 183.6 L 52.8 185.0 L 45.3 186.2 L 37.2 187.2 L 36.8 185.5 L 44.3 182.5 L 51.4 179.8 L 58.0 177.3 L 64.2 174.8 L 70.0 172.5 L 75.3 170.2 L 80.1 167.9 L 84.4 165.7 L 88.2 163.6 L 90.73971633911133 162.06077795028688 L 90.7 162.0 L 90.75320243835449 162.05260457992554 L 91.5 161.6 Z M 73.5 108.6 L 148.5 108.6 L 154.5 103.6 L 165.5 112.6 L 160.5 116.6 L 160.5 159.8 L 148.5 165.8 L 148.5 159.8 L 73.5 159.8 L 61.5 165.8 L 61.5 102.6 Z M 73.5 144.0 L 73.5 155.8 L 148.5 155.8 L 148.5 144.0 Z M 73.5 128.3 L 73.5 140.0 L 148.5 140.0 L 148.5 128.3 Z M 73.5 112.6 L 73.5 124.3 L 148.5 124.3 L 148.5 112.6 Z M 96.6 46.1 L 97.3 49.6 L 93.58665180206299 48.622803115844725 L 92.3 49.7 L 87.7 53.2 L 82.9 56.6 L 77.9 59.9 L 75.70491800308227 61.25081968307495 L 79.0 61.8 L 82.0 63.8 L 79.0 65.6 L 79.0 96.2 L 67.0 102.2 L 67.0 66.26071424484253 L 61.7 69.1 L 55.9 71.8 L 49.7 74.3 L 43.4 76.5 L 42.5 74.9 L 47.9 71.0 L 53.2 67.1 L 58.3 63.4 L 63.2 59.8 L 67.9 56.1 L 72.4 52.4 L 76.7 48.7 L 80.8 45.0 L 84.7 41.2 L 87.61999998092651 38.117777824401855 L 87.6 38.1 L 87.85 37.875 L 88.3 37.4 L 88.33593072891236 37.437662315368655 L 88.6 37.2 Z M 124.2 88.9 L 141.4 88.9 L 142.3 88.7 L 142.9 88.5 L 143.2 88.3 L 143.4 88.2 L 143.6 88.0 L 143.8 87.7 L 143.9 87.1 L 144.1 86.2 L 144.2 84.9 L 144.2 58.4 L 88.5 58.4 L 88.5 54.4 L 144.2 54.4 L 144.2 37.6 L 156.2 39.6 L 159.2 41.6 L 156.2 43.4 L 156.2 54.4 L 159.0 54.4 L 169.0 44.4 L 181.0 54.4 L 181.0 58.4 L 156.2 58.4 L 156.2 84.9 L 156.0 87.5 L 155.6 90.0 L 154.8 92.4 L 153.6 94.6 L 151.9 96.7 L 149.9 98.3 L 147.6 99.5 L 145.2 100.3 L 142.7 100.8 L 140.2 100.9 L 140.2 94.9 L 124.2 91.9 Z M 115.8 76.9 L 114.4 75.6 L 112.7 74.2 L 110.4 72.7 L 107.8 71.2 L 104.7 69.6 L 97.5 66.0 L 93.2 64.5 L 93.6 62.8 L 98.2 63.5 L 102.4 63.9 L 106.4 64.4 L 110.0 65.0 L 113.3 65.7 L 116.3 66.4 L 119.0 67.3 L 121.5 68.3 L 123.8 69.5 L 125.9 71.0 L 127.3 75.3 L 125.3 79.4 L 120.9 80.8 L 116.8 78.8 L 116.5 78.0 Z " />
</g>
</svg>
