<svg xmlns="http://www.w3.org/2000/svg" xmlns:xlink="http://www.w3.org/1999/xlink" version="1.1" baseProfile="full" viewBox="0 0 200 200" width="200" height="200">
<g fill="black">
<path d="M 40.0 26.0 L 166.0 26.0 L 176.0 16.0 L 188.0 26.0 L 188.0 30.0 L 40.0 30.0 L 40.0 91.0 L 39.4 105.1 L 38.4 118.3 L 37.0 130.6 L 35.0 141.9 L 32.6 152.4 L 29.7 161.9 L 26.2 170.4 L 22.3 177.9 L 17.7 184.3 L 12.6 189.5 L 11.3 188.4 L 14.5 182.3 L 17.5 175.5 L 20.1 168.0 L 22.4 159.7 L 24.3 150.5 L 25.8 140.4 L 27.0 129.4 L 27.7 117.5 L 28.0 104.7 L 28.0 20.0 Z M 160.6 183.6 L 152.3 180.5 L 144.6 176.9 L 137.7 172.8 L 131.4 168.4 L 125.9 163.5 L 121.2 158.3 L 117.4 152.5 L 115.00983610153199 147.1 L 113.36744184494019 147.1 L 110.4 152.9 L 104.2 161.3 L 96.2 169.0 L 86.2 176.0 L 73.8 181.9 L 58.8 186.4 L 41.1 189.3 L 40.9 187.6 L 57.8 182.7 L 71.6 177.0 L 82.6 170.4 L 91.2 163.4 L 97.6 156.0 L 102.2 148.4 L 102.74025974273681 147.1 L 58.0 147.1 L 58.0 143.1 L 104.40259742736816 143.1 L 105.4 140.7 L 107.4 133.2 L 108.5 125.9 L 108.81884059906005 121.5 L 44.4 121.5 L 44.4 117.5 L 167.3181818008423 117.5 L 175.5 108.5 L 185.5 117.5 L 185.5 121.5 L 120.66842107772827 121.5 L 119.8 127.5 L 117.9 135.8 L 115.23764705657959 143.1 L 149.9 143.1 L 159.9 133.1 L 171.9 143.1 L 171.9 147.1 L 117.8 147.1 L 120.7 150.0 L 125.5 154.2 L 130.6 158.0 L 136.1 161.5 L 142.2 164.7 L 148.9 167.6 L 156.1 170.1 L 164.0 172.3 L 172.5 174.2 L 181.6 175.8 L 191.0 177.5 L 179.2 188.8 L 169.6 186.4 Z M 76.0 44.5 L 153.9 44.5 L 159.9 39.5 L 170.9 48.5 L 165.9 52.5 L 165.9 101.3 L 153.9 107.3 L 153.9 99.3 L 76.0 99.3 L 76.0 102.3 L 64.0 108.3 L 64.0 38.5 Z M 76.0 73.2 L 76.0 95.3 L 153.9 95.3 L 153.9 73.2 Z M 76.0 48.5 L 76.0 69.2 L 153.9 69.2 L 153.9 48.5 Z " />
</g>
</svg>
