<svg xmlns="http://www.w3.org/2000/svg" xmlns:xlink="http://www.w3.org/1999/xlink" version="1.1" baseProfile="full" viewBox="0 0 200 200" width="200" height="200">
<g fill="black">
<path d="M 40.0 26.0 L 166.0 26.0 L 176.0 16.0 L 188.0 26.0 L 188.0 30.0 L 40.0 30.0 L 40.0 91.0 L 39.4 105.1 L 38.4 118.3 L 37.0 130.6 L 35.0 141.9 L 32.6 152.4 L 29.7 161.9 L 26.2 170.4 L 22.3 177.9 L 17.7 184.3 L 12.6 189.5 L 11.3 188.4 L 14.5 182.3 L 17.5 175.5 L 20.1 168.0 L 22.4 159.7 L 24.3 150.5 L 25.8 140.4 L 27.0 129.4 L 27.7 117.5 L 28.0 104.7 L 28.0 20.0 Z M 127.0 185.6 L 124.5 185.1 L 122.1 184.3 L 119.9 183.1 L 117.8 181.5 L 116.2 179.4 L 115.0 177.2 L 114.2 174.8 L 113.7 172.3 L 113.6 169.7 L 113.6 123.0 L 97.83333330154419 123.0 L 104.6 125.9 L 107.0 128.6 L 103.32226085662842 129.65078258514404 L 101.5 135.0 L 97.5 143.6 L 92.8 151.5 L 87.4 158.9 L 81.2 165.7 L 74.2 171.8 L 66.6 177.3 L 58.3 182.0 L 49.3 186.1 L 39.5 189.3 L 38.9 187.7 L 47.6 182.7 L 55.5 177.4 L 62.7 171.9 L 69.2 166.1 L 74.9 159.9 L 79.9 153.3 L 84.2 146.3 L 87.8 138.9 L 90.8 131.1 L 92.73337850570678 123.80589027404785 L 92.7 123.8 L 92.90740737915038 123.0 L 71.8 123.0 L 71.8 135.0 L 59.8 141.0 L 59.8 55.3 L 71.8 61.3 L 101.1807692527771 61.3 L 101.9 59.6 L 102.6 56.8 L 104.2 51.4 L 105.1 48.8 L 106.0 46.1 L 106.9 43.6 L 107.8 41.0 L 109.25167655944824 36.967565059661865 L 109.1 36.9 L 110.1 35.0 L 120.1 41.8 L 121.7 45.0 L 117.45025291442872 45.14654302597046 L 116.8 46.0 L 115.1 48.1 L 113.4 50.3 L 108.0 56.6 L 106.1 58.7 L 104.1 60.8 L 103.73043479919434 61.3 L 157.1 61.3 L 163.1 56.3 L 174.1 65.3 L 169.1 69.3 L 169.1 125.0 L 157.1 131.0 L 157.1 123.0 L 117.2 123.0 L 125.6 124.4 L 128.6 126.4 L 125.6 128.2 L 125.6 170.9 L 125.8 171.9 L 126.0 172.4 L 126.3 173.0 L 126.5 173.1 L 126.8 173.3 L 127.4 173.5 L 128.3 173.6 L 129.6 173.7 L 178.6 173.7 L 184.6 148.7 L 186.6 148.7 L 184.6 173.7 L 188.2 176.1 L 190.6 179.7 L 188.2 183.3 L 184.6 185.7 L 129.6 185.7 Z M 166.2 161.9 L 165.8 160.3 L 165.1 158.6 L 164.88106336593628 158.11347417831422 L 161.7 159.0 L 156.3 160.8 L 151.4 162.3 L 147.0 163.7 L 143.1 164.9 L 139.7 166.0 L 136.9 166.9 L 135.95440492630004 167.2289026260376 L 134.1 171.6 L 131.6 169.1 L 127.3 157.7 L 129.3 157.3 L 130.7 157.4 L 135.1 157.4 L 137.51095886230468 157.31963472366334 L 137.6 157.1 L 138.8 153.4 L 140.0 149.9 L 142.4 143.3 L 143.4 140.2 L 144.4 137.2 L 145.3 134.3 L 146.2 131.5 L 146.6295454978943 129.84318180084227 L 146.5 129.8 L 146.88426961898804 128.86067419052125 L 146.9 128.8 L 146.90771389007568 128.8033660888672 L 147.4 127.6 L 157.9 133.6 L 159.9 136.6 L 155.73913040161133 137.17391300201416 L 154.8 138.7 L 151.2 144.1 L 149.3 146.9 L 147.2 149.7 L 145.0 152.6 L 142.6 155.6 L 141.29170980453492 157.11761655807496 L 141.6 157.1 L 145.7 156.8 L 150.3 156.6 L 155.5 156.3 L 161.2 156.0 L 163.74008808135986 155.79515419006347 L 163.0 154.5 L 161.7 152.3 L 160.1 149.9 L 158.4 147.3 L 156.1 145.0 L 157.3 143.6 L 159.9 145.6 L 162.7 147.1 L 165.3 148.7 L 167.6 150.3 L 169.7 151.9 L 171.7 153.5 L 173.5 155.1 L 175.1 156.8 L 176.5 158.5 L 177.7 160.4 L 177.4 164.9 L 174.0 168.0 L 169.5 167.7 L 166.4 164.3 L 166.4 163.3 Z M 71.8 93.7 L 71.8 119.0 L 108.5 119.0 L 108.5 93.7 Z M 120.5 93.7 L 120.5 119.0 L 157.1 119.0 L 157.1 93.7 Z M 71.8 65.3 L 71.8 89.7 L 108.5 89.7 L 108.5 65.3 Z M 120.5 65.3 L 120.5 89.7 L 157.1 89.7 L 157.1 65.3 Z " />
</g>
</svg>
