<svg xmlns="http://www.w3.org/2000/svg" xmlns:xlink="http://www.w3.org/1999/xlink" version="1.1" baseProfile="full" viewBox="0 0 200 200" width="200" height="200">
<g fill="black">
<path d="M 40.0 26.0 L 166.0 26.0 L 176.0 16.0 L 188.0 26.0 L 188.0 30.0 L 40.0 30.0 L 40.0 91.0 L 39.4 105.1 L 38.4 118.3 L 37.0 130.6 L 35.0 141.9 L 32.6 152.4 L 29.7 161.9 L 26.2 170.4 L 22.3 177.9 L 17.7 184.3 L 12.6 189.5 L 11.3 188.4 L 14.5 182.3 L 17.5 175.5 L 20.1 168.0 L 22.4 159.7 L 24.3 150.5 L 25.8 140.4 L 27.0 129.4 L 27.7 117.5 L 28.0 104.7 L 28.0 20.0 Z M 80.4 124.9 L 148.5 124.9 L 154.5 119.9 L 165.5 128.9 L 160.5 132.9 L 160.5 180.9 L 148.5 186.9 L 148.5 178.9 L 80.4 178.9 L 80.4 181.9 L 68.4 187.9 L 68.4 118.9 Z M 80.4 153.2 L 80.4 174.9 L 148.5 174.9 L 148.5 153.2 Z M 80.4 128.9 L 80.4 149.2 L 148.5 149.2 L 148.5 128.9 Z M 98.7 111.0 L 97.2 108.8 L 95.5 106.6 L 93.6 104.4 L 91.5 102.1 L 89.3 99.7 L 86.9 97.2 L 84.87093019485474 95.17093019485473 L 83.4 99.2 L 80.3 104.9 L 76.4 110.0 L 71.8 114.4 L 66.5 118.3 L 60.6 121.5 L 54.0 123.9 L 46.8 125.6 L 46.2 123.9 L 52.5 120.4 L 57.9 116.8 L 62.6 113.0 L 66.5 109.0 L 69.7 104.8 L 72.2 100.3 L 74.0 95.5 L 75.2 90.4 L 75.8 84.9 L 75.80677967071533 84.5 L 44.8 84.5 L 44.8 80.5 L 75.87457628250122 80.5 L 75.9 79.0 L 75.9 58.6 L 65.0 58.6 L 64.7 59.2 L 62.6 62.9 L 60.2 66.2 L 57.7 69.3 L 54.9 72.1 L 51.9 74.5 L 48.9 76.7 L 47.6 75.4 L 49.6 72.4 L 52.8 66.0 L 54.1 62.8 L 55.4 59.4 L 56.5 55.8 L 57.4 52.1 L 58.2 48.3 L 58.9 44.3 L 59.28000001907348 41.10799999237061 L 59.2 41.1 L 59.39065418243408 40.178504657745364 L 59.4 40.1 L 59.406640434265135 40.101238059997556 L 59.8 38.2 L 71.2 42.3 L 73.8 44.8 L 70.09353122711181 46.21519718170166 L 69.9 46.9 L 68.4 51.2 L 66.94285717010499 54.6 L 91.8 54.6 L 101.8 44.6 L 113.8 54.6 L 113.8 58.6 L 87.9 58.6 L 87.9 79.0 L 87.7541666984558 80.5 L 94.3 80.5 L 104.3 70.5 L 116.3 80.5 L 116.3 84.5 L 87.3652777671814 84.5 L 87.2 86.2 L 85.83143091201782 92.31294212341308 L 89.2 93.7 L 92.5 95.2 L 95.6 96.8 L 98.5 98.5 L 101.2 100.2 L 103.8 102.0 L 106.3 103.9 L 108.5 105.8 L 110.7 107.8 L 111.8 112.2 L 109.5 116.2 L 105.1 117.3 L 101.1 115.1 L 100.0 113.1 Z M 133.5 53.0 L 167.7 53.0 L 173.7 48.0 L 184.7 57.0 L 179.7 61.0 L 179.7 112.5 L 167.7 118.5 L 167.7 106.5 L 133.5 106.5 L 133.5 109.5 L 121.5 115.5 L 121.5 47.0 Z M 133.5 57.0 L 133.5 102.5 L 167.7 102.5 L 167.7 57.0 Z " />
</g>
</svg>
