<svg xmlns="http://www.w3.org/2000/svg" xmlns:xlink="http://www.w3.org/1999/xlink" version="1.1" baseProfile="full" viewBox="0 0 200 200" width="200" height="200">
<g fill="black">
<path d="M 91.9 82.7 L 169.8181818008423 82.7 L 178.0 73.7 L 188.0 82.7 L 188.0 86.7 L 91.9 86.7 L 91.9 126.9 L 91.5 136.4 L 90.7 145.3 L 89.7 153.6 L 88.3 161.3 L 86.6 168.3 L 84.5 174.7 L 82.1 180.4 L 79.3 185.5 L 76.1 189.7 L 72.5 193.1 L 71.2 192.1 L 73.2 187.9 L 74.9 183.3 L 76.5 178.3 L 77.8 172.7 L 79.0 166.6 L 79.9 159.9 L 80.5 152.6 L 80.9 144.6 L 81.0 136.1 L 80.9 126.9 L 80.9 77.2 Z M 58.3 147.4 L 55.4 143.3 L 52.1 139.4 L 51.42185201644897 138.70301456451415 L 50.7 140.4 L 44.2 152.6 L 37.0 163.6 L 29.0 173.4 L 20.2 181.7 L 10.6 188.7 L 9.5 187.2 L 17.5 179.0 L 24.9 170.0 L 31.6 160.0 L 37.6 149.0 L 42.9 137.0 L 44.64358186721802 132.14022941589354 L 44.6 132.1 L 40.4 128.7 L 35.8 125.5 L 31.66510248184204 122.79965877532959 L 29.9 133.0 L 17.1 136.9 L 29.837235736846925 63.0 L 14.8 63.0 L 14.8 59.0 L 30.52666664123535 59.0 L 38.3 13.9 L 49.8 18.0 L 52.4 20.4 L 49.20749731063843 21.424010276794434 L 42.705217361450195 59.0 L 59.4 59.0 L 65.4 54.0 L 76.4 63.0 L 71.4 66.0 L 70.61733989715576 66.32610836029053 L 68.7 79.6 L 65.4 96.6 L 61.2 112.3 L 56.4 127.0 L 55.10542840957642 130.04337873458863 L 58.5 132.7 L 62.8 136.6 L 66.9 140.9 L 70.5 145.5 L 73.9 150.4 L 74.4 155.0 L 71.6 158.6 L 67.0 159.0 L 63.4 156.2 L 61.0 151.7 Z M 183.0 100.7 L 183.0 104.7 L 149.7 104.7 L 149.7 116.9 L 164.4 116.9 L 170.4 111.9 L 181.4 120.9 L 176.4 124.9 L 176.4 176.8 L 164.4 182.8 L 164.4 170.8 L 113.5 170.8 L 113.5 182.8 L 102.5 188.3 L 102.5 111.4 L 113.5 116.9 L 124.0 116.9 L 124.0 104.7 L 95.9 104.7 L 95.9 100.7 L 164.8181818008423 100.7 L 173.0 91.7 Z M 113.5 158.9 L 113.5 166.8 L 164.4 166.8 L 164.4 158.9 Z M 161.5 136.5 L 163.5 136.5 L 161.5 141.5 L 163.6 142.9 L 164.4 144.1 L 164.4 120.9 L 149.7 120.9 L 149.7 135.0 L 149.6 136.4 L 149.7 137.5 L 149.8 138.3 L 150.0 139.0 L 150.2 139.5 L 150.6 140.0 L 151.2 140.5 L 152.0 140.9 L 153.2 141.3 L 154.7 141.5 L 158.0 141.5 Z M 113.5 120.9 L 113.5 148.884375 L 114.6 148.3 L 117.2 146.2 L 119.3 143.9 L 121.0 141.4 L 122.3 138.6 L 123.3 135.5 L 123.9 132.0 L 124.3 128.1 L 124.3 123.8 L 124.11489362716675 120.9 Z M 42.01304349899292 63.0 L 32.35885162353516 118.79055614471436 L 32.4 118.8 L 38.3 120.7 L 43.8 123.1 L 47.22529525756836 124.94438972473145 L 47.6 123.9 L 51.6 109.7 L 54.9 94.4 L 57.5 77.9 L 59.108522701263425 63.0 Z M 134.0 104.7 L 134.0 116.9 L 139.7 116.9 L 139.7 104.7 Z M 89.0 66.0 L 130.0 66.0 L 130.0 50.0 L 95.0 50.0 L 95.0 46.0 L 130.0 46.0 L 130.0 30.0 L 93.0 30.0 L 93.0 26.0 L 130.0 26.0 L 130.0 12.0 L 142.0 14.0 L 145.0 16.0 L 142.0 17.8 L 142.0 26.0 L 156.0 26.0 L 166.0 16.0 L 178.0 26.0 L 178.0 30.0 L 142.0 30.0 L 142.0 46.0 L 157.8181818008423 46.0 L 166.0 37.0 L 176.0 46.0 L 176.0 50.0 L 142.0 50.0 L 142.0 66.0 L 165.8181818008423 66.0 L 174.0 57.0 L 184.0 66.0 L 184.0 70.0 L 89.0 70.0 Z M 150.2 148.3 L 148.0 147.7 L 146.0 146.8 L 144.2 145.5 L 142.6 143.8 L 141.4 141.9 L 140.5 139.7 L 140.0 137.4 L 139.7 135.0 L 139.7 120.9 L 133.81999998092653 120.9 L 133.7 124.2 L 132.9 129.2 L 131.7 133.8 L 130.1 138.0 L 128.0 141.7 L 125.5 144.8 L 122.5 147.4 L 119.2 149.3 L 115.6 150.6 L 113.5 151.04210529327392 L 113.5 154.9 L 164.4 154.9 L 164.4 145.9 L 163.6 147.1 L 161.5 148.5 L 152.4 148.5 Z " />
</g>
</svg>
