<svg xmlns="http://www.w3.org/2000/svg" xmlns:xlink="http://www.w3.org/1999/xlink" version="1.1" baseProfile="full" viewBox="0 0 200 200" width="200" height="200">
<g fill="black">
<path d="M 38.1 20.4 L 164.8834711074829 20.4 L 174.9 10.3 L 186.9 20.4 L 186.9 24.4 L 38.1 24.4 L 38.1 88.5 L 37.6 103.3 L 36.6 117.2 L 35.1 130.1 L 33.2 142.0 L 30.7 152.9 L 27.8 162.9 L 24.4 171.8 L 20.4 179.7 L 15.8 186.5 L 10.7 192.0 L 9.3 190.8 L 12.6 184.5 L 15.5 177.4 L 18.2 169.5 L 20.5 160.8 L 22.4 151.1 L 24.0 140.5 L 25.1 129.0 L 25.9 116.4 L 26.2 103.0 L 26.1 88.5 L 26.1 14.4 Z M 148.20614528656006 37.33631286621094 L 149.1 68.8 L 150.50729341506957 83.9674952507019 L 168.1348035812378 81.02118282318115 L 176.4 69.5 L 189.8 77.4 L 190.5 81.3 L 150.87344970703126 87.91384649276733 L 151.8 97.9 L 155.9 121.4 L 157.39135446548462 126.88818445205689 L 158.7 123.1 L 162.2 111.3 L 165.14608011245727 99.60774459838868 L 165.1 99.6 L 165.8 96.9 L 177.0 101.6 L 179.4 104.3 L 175.8890625 105.303125 L 173.1 114.6 L 168.8 126.7 L 164.1 137.9 L 161.92283000946045 142.3849702835083 L 166.4 153.7 L 171.9 163.7 L 177.1 170.2 L 180.2307578086853 172.96671619415284 L 185.3 151.0 L 187.3 151.0 L 185.3744680404663 176.0319149017334 L 189.5 177.8 L 191.3 182.0 L 189.5 186.2 L 185.3 188.0 L 180.2 186.9 L 174.5 183.9 L 168.4 178.5 L 161.9 170.3 L 155.5 158.9 L 154.41232585906982 156.12643089294434 L 153.6 157.5 L 147.8 165.9 L 141.6 173.3 L 135.0 179.7 L 128.95029582977295 184.21597633361816 L 127.8 186.9 L 123.6 188.7 L 121.75853242874146 188.36518774032592 L 120.6 189.0 L 119.95862064361572 188.037931060791 L 115.9 187.3 L 108.5 183.2 L 102.0 176.3 L 96.3 166.7 L 95.22136611938477 163.96027002334594 L 94.9 164.3 L 87.6 170.8 L 79.9 176.5 L 71.9 181.3 L 63.6 185.2 L 54.9 188.1 L 45.9 189.9 L 45.4 188.2 L 53.5 184.5 L 61.2 180.4 L 68.5 175.7 L 75.4 170.4 L 82.0 164.5 L 88.2 157.9 L 91.31705102920532 154.04330968856812 L 91.3 154.0 L 87.0 138.0 L 83.41809043884277 118.2 L 63.8 118.2 L 63.8 130.2 L 51.8 136.2 L 51.8 48.2 L 63.8 54.2 L 78.3 54.2 L 77.72671413421631 32.797328567504884 L 77.7 32.8 L 77.6 29.4 L 89.7 31.6 L 92.7 33.6 L 89.80136337280274 35.33918199539185 L 90.31265058517457 54.2 L 107.0 54.2 L 113.0 49.2 L 124.0 58.2 L 119.0 62.2 L 119.0 118.2 L 107.0 124.2 L 107.0 118.2 L 95.62210521697997 118.2 L 98.7 135.4 L 100.31022367477416 141.39808311462403 L 104.8 133.8 L 109.31743364334106 125.3072247505188 L 109.3 125.3 L 110.3 123.3 L 120.4 129.9 L 122.2 133.0 L 118.41336936950684 133.25672073364257 L 114.6 139.7 L 108.4 148.7 L 104.16855249404907 154.03813371658325 L 107.1 161.5 L 111.6 169.2 L 116.0 173.8 L 118.2120418548584 175.04781847000123 L 123.6 151.7 L 125.6 151.7 L 123.67446804046631 176.7319149017334 L 127.8 178.5 L 128.12243480682372 179.25234785079957 L 131.2 175.9 L 136.5 169.2 L 141.6 161.6 L 146.3 153.3 L 150.14838390350343 145.25337905883788 L 149.5 143.6 L 144.2 124.0 L 139.9 99.5 L 139.00353221893312 89.89498815536498 L 120.4 93.0 L 119.8 89.1 L 138.6354995727539 85.95178079605103 L 137.1 69.5 L 136.12779064178466 34.59768409729004 L 136.1 34.6 L 136.1 31.2 L 148.1 33.6 L 151.1 35.6 Z M 63.8 87.3 L 63.8 114.2 L 82.9468879699707 114.2 L 80.6 94.0 L 80.13146848678589 87.3 Z M 92.12135229110717 87.3 L 92.5 92.9 L 95.03787231445312 114.2 L 107.0 114.2 L 107.0 87.3 Z M 63.8 58.2 L 63.8 83.3 L 79.85174827575683 83.3 L 78.6 65.4 L 78.40714282989502 58.2 Z M 90.42108430862427 58.2 L 90.6 64.8 L 91.85088968276978 83.3 L 107.0 83.3 L 107.0 58.2 Z M 168.8 58.4 L 167.7 56.1 L 166.4 53.8 L 164.9 51.5 L 163.3 49.2 L 161.5 46.9 L 159.5 44.6 L 157.3 42.2 L 154.7 40.1 L 155.6 38.6 L 158.7 40.0 L 161.9 41.2 L 164.9 42.7 L 167.7 44.4 L 170.4 46.2 L 172.9 48.2 L 175.2 50.4 L 177.4 52.7 L 179.4 55.2 L 181.2 57.9 L 181.4 62.4 L 178.4 65.9 L 173.9 66.0 L 170.4 63.0 L 169.7 60.7 Z " />
</g>
</svg>
