<svg xmlns="http://www.w3.org/2000/svg" xmlns:xlink="http://www.w3.org/1999/xlink" version="1.1" baseProfile="full" viewBox="0 0 200 200" width="200" height="200">
<g fill="black">
<path d="M 39.5 26.0 L 166.0 26.0 L 176.0 16.0 L 188.0 26.0 L 188.0 30.0 L 39.5 30.0 L 39.5 91.0 L 38.9 105.1 L 38.0 118.3 L 36.5 130.5 L 34.6 141.9 L 32.2 152.3 L 29.4 161.8 L 26.0 170.3 L 22.1 177.8 L 17.6 184.2 L 12.6 189.5 L 11.3 188.4 L 14.7 182.3 L 17.7 175.6 L 20.4 168.1 L 22.7 159.8 L 24.7 150.6 L 26.2 140.5 L 27.4 129.5 L 28.2 117.6 L 28.5 104.7 L 28.5 20.5 Z M 139.0 72.5 L 141.5 74.5 L 139.0 76.16666669845581 L 139.0 122.5 L 138.4 132.7 L 137.2 142.1 L 135.4 150.8 L 132.9 158.8 L 129.8 166.0 L 126.0 172.4 L 121.6 178.0 L 116.6 182.7 L 111.0 186.5 L 104.8 189.2 L 104.1 187.8 L 109.1 183.9 L 113.5 179.5 L 117.4 174.6 L 120.6 169.1 L 123.3 163.1 L 125.5 156.4 L 127.2 149.0 L 128.3 140.9 L 128.76845426559447 134.02933750152587 L 128.7 134.1 L 125.5 137.1 L 122.2 140.1 L 119.0 142.9 L 115.7 145.7 L 112.4 148.4 L 105.91075735092163 153.51273670196534 L 105.8 157.5 L 102.5 156.1 L 94.4 147.0 L 96.1 145.9 L 99.7 144.1 L 103.0 142.26666669845582 L 103.0 55.2 L 111.56969699859619 59.484848499298096 L 113.5 58.0 L 116.1 55.9 L 118.8 53.8 L 121.4 51.6 L 126.8 47.0 L 132.2 42.0 L 134.14941177368163 40.05058822631836 L 134.1 40.0 L 135.0 39.2 L 142.5 48.6 L 142.9 52.2 L 139.08147134780884 50.811444187164305 L 135.7 52.9 L 132.3 54.9 L 128.9 56.6 L 125.6 58.2 L 122.2 59.7 L 118.8 60.9 L 115.4 61.9 L 114.0 62.239393901824954 L 114.0 136.41052627563477 L 114.4 136.2 L 118.1 134.2 L 122.0 132.1 L 125.9 130.1 L 128.93585453033447 128.65796909332275 L 129.0 122.5 L 129.0 70.5 Z M 62.0 177.7 L 78.4 177.7 L 79.0 177.5 L 79.4 177.4 L 79.7 177.3 L 79.8 177.1 L 80.0 176.9 L 80.2 176.4 L 80.4 175.7 L 80.6 174.6 L 80.6 128.0 L 59.82380952835083 128.0 L 59.6 132.7 L 59.0 140.7 L 58.1 148.3 L 57.0 155.5 L 55.6 162.3 L 54.0 168.7 L 52.1 174.7 L 49.8 180.2 L 47.2 185.3 L 44.3 189.7 L 42.8 189.0 L 44.0 184.0 L 45.2 178.7 L 46.2 173.1 L 47.2 167.3 L 48.0 161.0 L 48.6 154.4 L 49.0 147.5 L 49.2 140.1 L 49.2 132.4 L 49.0 124.3 L 49.0 42.0 L 60.0 47.5 L 80.6 47.5 L 86.1 42.5 L 96.6 51.5 L 91.6 55.0 L 91.6 173.2 L 91.5 175.7 L 91.2 178.0 L 90.5 180.3 L 89.5 182.4 L 88.1 184.4 L 86.3 186.0 L 84.3 187.3 L 82.0 188.1 L 79.7 188.6 L 77.4 188.7 L 77.4 183.2 L 62.0 180.5 Z M 157.4 150.0 L 165.4 150.0 L 166.6 149.9 L 167.6 149.8 L 168.1 149.6 L 168.7 149.3 L 169.0 148.7 L 169.2 148.1 L 169.3 147.2 L 169.4 146.0 L 169.4 58.4 L 154.5 58.4 L 154.5 184.9 L 144.5 189.9 L 144.5 49.4 L 154.5 54.4 L 169.4 54.4 L 175.4 49.4 L 186.4 58.4 L 181.4 62.4 L 181.4 146.0 L 181.3 148.6 L 180.8 151.1 L 180.0 153.5 L 178.8 155.7 L 177.2 157.7 L 175.1 159.4 L 172.9 160.6 L 170.5 161.4 L 168.0 161.9 L 165.4 162.0 L 165.4 156.0 L 157.4 153.0 Z M 60.0 90.2 L 60.0 124.0 L 80.6 124.0 L 80.6 90.2 Z M 60.0 51.5 L 60.0 86.2 L 80.6 86.2 L 80.6 51.5 Z " />
</g>
</svg>
