<svg xmlns="http://www.w3.org/2000/svg" xmlns:xlink="http://www.w3.org/1999/xlink" version="1.1" baseProfile="full" viewBox="0 0 200 200" width="200" height="200">
<g fill="black">
<path d="M 163.3 185.3 L 156.6 182.3 L 150.2 178.9 L 144.1 174.9 L 138.3 170.4 L 132.9 165.5 L 127.8 160.0 L 123.2 153.9 L 119.53484849929809 148.0 L 115.05922327041625 148.0 L 114.6 149.1 L 109.0 158.3 L 102.2 166.5 L 94.1 173.6 L 84.9 179.5 L 74.5 184.3 L 63.1 187.8 L 50.5 190.2 L 50.2 188.5 L 61.9 184.2 L 72.3 179.4 L 81.5 173.9 L 89.3 167.7 L 95.9 160.8 L 101.2 153.2 L 103.8619047164917 148.0 L 45.3 148.0 L 45.3 144.0 L 105.77252750396728 144.0 L 108.6 135.7 L 110.6 125.6 L 111.31009178161621 117.0 L 70.8 117.0 L 70.8 129.0 L 58.8 135.0 L 58.8 61.8 L 70.8 63.8 L 73.8 65.8 L 70.8 67.6 L 70.8 113.0 L 111.5 113.0 L 117.5 108.0 L 128.5 117.0 L 123.5 120.0 L 122.80471353530884 120.2897027015686 L 121.8 127.5 L 118.9 138.8 L 116.72912616729737 144.0 L 166.9 144.0 L 176.9 134.0 L 188.9 144.0 L 188.9 148.0 L 122.63061227798462 148.0 L 126.3 151.1 L 131.9 155.7 L 137.5 159.9 L 143.2 163.7 L 149.0 167.0 L 154.9 169.8 L 160.9 172.2 L 167.1 174.1 L 173.4 175.6 L 179.9 176.6 L 189.4 178.3 L 177.5 189.6 L 170.3 187.7 Z M 40.0 26.0 L 166.0 26.0 L 176.0 16.0 L 188.0 26.0 L 188.0 30.0 L 40.0 30.0 L 40.0 91.0 L 39.4 105.1 L 38.4 118.3 L 37.0 130.6 L 35.0 141.9 L 32.6 152.4 L 29.7 161.9 L 26.2 170.4 L 22.3 177.9 L 17.7 184.3 L 12.6 189.5 L 11.3 188.4 L 14.5 182.3 L 17.5 175.5 L 20.1 168.0 L 22.4 159.7 L 24.3 150.5 L 25.8 140.4 L 27.0 129.4 L 27.7 117.5 L 28.0 104.7 L 28.0 20.0 Z M 99.7 45.7 L 155.7 45.7 L 161.7 40.7 L 172.7 49.7 L 167.7 53.7 L 167.7 100.9 L 155.7 106.9 L 155.7 94.9 L 99.7 94.9 L 99.7 97.9 L 87.7 103.9 L 87.7 39.7 Z M 99.7 71.6 L 99.7 90.9 L 155.7 90.9 L 155.7 71.6 Z M 99.7 49.7 L 99.7 67.6 L 155.7 67.6 L 155.7 49.7 Z " />
</g>
</svg>
