<svg xmlns="http://www.w3.org/2000/svg" xmlns:xlink="http://www.w3.org/1999/xlink" version="1.1" baseProfile="full" viewBox="0 0 200 200" width="200" height="200">
<g fill="black">
<path d="M 40.0 26.0 L 166.0 26.0 L 176.0 16.0 L 188.0 26.0 L 188.0 30.0 L 40.0 30.0 L 40.0 91.0 L 39.4 105.1 L 38.4 118.3 L 37.0 130.6 L 35.0 141.9 L 32.6 152.4 L 29.7 161.9 L 26.2 170.4 L 22.3 177.9 L 17.7 184.3 L 12.6 189.5 L 11.3 188.4 L 14.5 182.3 L 17.5 175.5 L 20.1 168.0 L 22.4 159.7 L 24.3 150.5 L 25.8 140.4 L 27.0 129.4 L 27.7 117.5 L 28.0 104.7 L 28.0 20.0 Z M 140.0 171.0 L 160.0 171.0 L 161.2 170.9 L 162.1 170.7 L 163.0 170.4 L 163.4 170.0 L 163.7 169.1 L 163.9 168.2 L 164.0 167.0 L 164.0 66.0 L 71.0 66.0 L 71.0 177.0 L 59.0 183.0 L 59.0 56.0 L 71.0 62.0 L 164.0 62.0 L 170.0 57.0 L 181.0 66.0 L 176.0 70.0 L 176.0 167.0 L 175.8 169.5 L 175.4 172.0 L 174.6 174.4 L 173.3 176.7 L 171.7 178.7 L 169.7 180.3 L 167.4 181.6 L 165.0 182.4 L 162.5 182.8 L 160.0 183.0 L 160.0 177.0 L 140.0 174.0 Z M 102.0 92.0 L 133.0 92.0 L 139.0 87.0 L 150.0 96.0 L 145.0 100.0 L 145.0 144.0 L 133.0 150.0 L 133.0 138.0 L 102.0 138.0 L 102.0 150.0 L 90.0 156.0 L 90.0 86.0 Z M 102.0 96.0 L 102.0 134.0 L 133.0 134.0 L 133.0 96.0 Z " />
</g>
</svg>
