<svg xmlns="http://www.w3.org/2000/svg" xmlns:xlink="http://www.w3.org/1999/xlink" version="1.1" baseProfile="full" viewBox="0 0 200 200" width="200" height="200">
<g fill="black">
<path d="M 44.4 28.4 L 158.9 28.4 L 168.9 18.4 L 180.9 28.4 L 180.9 32.4 L 44.4 32.4 L 44.4 89.9 L 43.9 103.3 L 42.9 115.8 L 41.6 127.4 L 39.7 138.2 L 37.5 148.0 L 34.7 157.0 L 31.5 165.1 L 27.8 172.2 L 23.5 178.2 L 18.7 183.1 L 17.4 182.0 L 20.3 176.2 L 23.0 169.8 L 25.4 162.7 L 27.4 154.9 L 29.2 146.2 L 30.6 136.7 L 31.6 126.3 L 32.2 115.1 L 32.5 102.9 L 32.4 89.9 L 32.4 22.4 Z M 83.8 150.1 L 81.0 155.5 L 80.2 159.3 L 80.5 161.4 L 81.8 163.2 L 85.1 165.2 L 90.9 166.9 L 99.1 168.1 L 109.6 168.5 L 170.0 168.5 L 176.0 143.5 L 178.0 143.5 L 176.0 168.5 L 179.6 170.9 L 182.0 174.5 L 179.6 178.1 L 176.0 180.5 L 109.6 180.5 L 98.1 180.1 L 88.3 178.7 L 80.3 176.1 L 73.8 172.1 L 69.5 166.1 L 68.2 158.8 L 69.8 151.3 L 73.6 143.8 L 79.3 135.8 L 87.0 127.3 L 144.0655737876892 68.3 L 72.0 68.3 L 72.0 64.3 L 148.4 64.3 L 154.4 59.3 L 165.4 68.3 L 160.4 71.3 L 155.4805130958557 73.34978618621827 L 95.6 135.6 L 88.6 143.4 Z " />
</g>
</svg>
