<svg xmlns="http://www.w3.org/2000/svg" xmlns:xlink="http://www.w3.org/1999/xlink" version="1.1" baseProfile="full" viewBox="0 0 200 200" width="200" height="200">
<g fill="black">
<path d="M 39.5 26.0 L 166.0 26.0 L 176.0 16.0 L 188.0 26.0 L 188.0 30.0 L 39.5 30.0 L 39.5 91.0 L 38.9 105.1 L 38.0 118.3 L 36.5 130.5 L 34.6 141.9 L 32.2 152.3 L 29.4 161.8 L 26.0 170.3 L 22.1 177.8 L 17.6 184.2 L 12.6 189.5 L 11.3 188.4 L 14.7 182.3 L 17.7 175.6 L 20.4 168.1 L 22.7 159.8 L 24.7 150.6 L 26.2 140.5 L 27.4 129.5 L 28.2 117.6 L 28.5 104.7 L 28.5 20.5 Z M 184.7 144.4 L 186.7 144.4 L 184.7 169.4 L 188.3 171.8 L 190.7 175.4 L 188.3 179.0 L 184.7 181.4 L 168.1 181.4 L 165.5 181.3 L 163.0 180.9 L 160.6 180.0 L 158.3 178.8 L 156.3 177.2 L 154.7 175.2 L 153.5 172.9 L 152.6 170.5 L 152.2 168.0 L 152.1 165.4 L 152.1 137.1 L 149.4117733001709 138.29476747512817 L 148.5 142.8 L 146.1 150.5 L 143.0 157.6 L 139.1 164.1 L 134.5 169.8 L 129.3 174.8 L 123.4 179.0 L 116.9 182.4 L 109.8 184.9 L 102.2 186.6 L 101.7 184.8 L 108.3 181.4 L 114.3 177.7 L 119.5 173.7 L 124.1 169.3 L 127.9 164.4 L 131.2 159.2 L 133.8 153.4 L 135.9 147.2 L 137.4 140.4 L 138.3 133.0 L 138.31969108581544 133.00231657028198 L 138.6 130.9 L 150.2 134.4 L 152.1 135.96071424484253 L 152.1 129.9 L 136.6 129.9 L 136.6 141.9 L 125.6 147.4 L 125.6 40.7 L 136.6 46.2 L 168.2 46.2 L 174.2 41.2 L 185.2 50.2 L 180.2 54.2 L 180.2 135.9 L 168.2 141.9 L 168.2 129.9 L 164.1 129.9 L 164.1 166.7 L 164.3 167.6 L 164.5 168.2 L 164.7 168.5 L 164.8 168.7 L 165.0 168.8 L 165.3 169.0 L 165.9 169.2 L 166.8 169.4 L 178.7 169.4 Z M 122.1 66.1 L 122.1 70.1 L 92.8 70.1 L 92.8 87.6 L 105.4 87.6 L 110.4 82.6 L 120.4 91.6 L 115.4 94.6 L 115.4 164.3 L 105.4 169.3 L 105.4 162.3 L 59.0 162.3 L 59.0 174.3 L 49.0 179.3 L 49.0 82.6 L 59.0 87.6 L 69.1 87.6 L 69.1 70.1 L 42.7 70.1 L 42.7 66.1 L 100.1 66.1 L 110.1 56.1 Z M 59.0 143.2 L 59.0 158.3 L 105.4 158.3 L 105.4 143.2 Z M 105.4 91.6 L 92.8 91.6 L 92.8 109.8 L 92.9 111.2 L 93.2 112.2 L 93.5 113.0 L 93.8 113.6 L 94.6 114.2 L 95.1 114.4 L 95.9 114.6 L 96.9 114.7 L 98.0061728477478 114.77901229858398 L 103.0 97.8 L 105.0 97.8 L 103.0 114.8 L 105.4 116.4 Z M 59.0 91.6 L 59.0 139.2 L 105.4 139.2 L 105.4 123.2 L 103.0 124.8 L 98.3 124.8 L 95.9 124.6 L 93.5 124.1 L 91.3 123.3 L 89.2 122.2 L 87.4 120.6 L 86.0 118.8 L 84.9 116.7 L 84.2 114.5 L 83.9 112.2 L 83.8 109.8 L 83.8 91.6 L 78.1 91.6 L 78.1 91.9 L 77.7 97.3 L 77.0 102.4 L 76.1 107.4 L 74.8 112.1 L 73.2 116.5 L 71.4 120.7 L 69.2 124.6 L 66.7 128.2 L 63.9 131.5 L 60.9 134.5 L 59.9 133.6 L 61.8 130.1 L 63.5 126.3 L 65.0 122.6 L 66.3 118.7 L 67.4 114.7 L 68.2 110.5 L 68.8 106.1 L 69.1 101.6 L 69.2 96.9 L 69.1 91.9 L 69.1 91.6 Z M 136.6 102.2 L 136.6 125.9 L 168.2 125.9 L 168.2 102.2 Z M 136.6 76.2 L 136.6 98.2 L 168.2 98.2 L 168.2 76.2 Z M 78.1 70.1 L 78.1 87.6 L 83.8 87.6 L 83.8 70.1 Z M 136.6 50.2 L 136.6 72.2 L 168.2 72.2 L 168.2 50.2 Z M 106.4 40.0 L 108.6 42.8 L 104.39955787658691 43.75799560546875 L 103.6 45.3 L 102.1 47.9 L 100.5 50.6 L 98.8 53.2 L 95.2 58.4 L 93.2 61.0 L 91.0 63.5 L 89.1 66.1 L 87.5 65.3 L 88.7 62.2 L 89.4 59.1 L 90.3 56.0 L 91.1 53.0 L 91.9 50.1 L 93.3 44.3 L 93.9 41.5 L 94.5 38.8 L 94.8272891998291 37.032638263702395 L 94.7 37.0 L 95.5 34.6 Z M 65.8 55.3 L 65.5 53.2 L 65.1 51.1 L 64.6 49.0 L 63.4 44.8 L 62.6 42.6 L 61.7 40.3 L 60.4 38.4 L 61.7 37.2 L 63.5 38.9 L 65.6 40.3 L 67.5 41.9 L 69.4 43.7 L 71.1 45.5 L 72.6 47.5 L 74.1 49.6 L 76.7 54.2 L 77.8 56.6 L 77.0 61.1 L 73.3 63.8 L 68.8 63.1 L 66.1 59.4 L 66.0 57.3 Z " />
</g>
</svg>
