<svg xmlns="http://www.w3.org/2000/svg" xmlns:xlink="http://www.w3.org/1999/xlink" version="1.1" baseProfile="full" viewBox="0 0 200 200" width="200" height="200">
<g fill="black">
<path d="M 89.1 136.7 L 88.5 135.1 L 87.7 133.5 L 86.7 131.7 L 85.5 129.9 L 84.1 128.1 L 82.5 126.2 L 80.7 124.1 L 78.5 122.5 L 79.4 121.0 L 81.9 122.2 L 84.6 123.0 L 87.1 124.0 L 89.5 125.2 L 91.7 126.4 L 93.8 127.8 L 95.8 129.3 L 99.2 132.7 L 100.7 134.7 L 100.7 139.2 L 98.96764707565308 141.1 L 131.18461542129518 141.1 L 132.2 139.9 L 134.0 137.1 L 135.8 134.5 L 137.5 132.1 L 139.1 129.7 L 140.5 127.4 L 141.9 125.2 L 143.2 123.1 L 144.4 121.1 L 144.5052631378174 120.9 L 56.3 120.9 L 56.3 116.9 L 110.5 116.9 L 110.5 105.2 L 72.6 105.2 L 60.6 111.2 L 60.6 36.1 L 72.6 42.1 L 157.21818180084227 42.1 L 165.4 33.1 L 175.4 42.1 L 175.4 46.1 L 122.2 46.1 L 122.2 60.4 L 152.4 60.4 L 158.4 55.4 L 169.4 64.4 L 164.4 68.4 L 164.4 87.2 L 152.4 93.2 L 152.4 85.2 L 122.2 85.2 L 122.2 101.2 L 160.9181818008423 101.2 L 169.1 92.2 L 179.1 101.2 L 179.1 105.2 L 114.7 105.2 L 122.5 106.5 L 125.5 108.5 L 122.5 110.3 L 122.5 116.9 L 158.4181818008423 116.9 L 166.6 107.9 L 176.6 116.9 L 176.6 120.9 L 148.24750003814697 120.9 L 154.7 126.7 L 155.8 130.2 L 151.3694444656372 129.58888893127443 L 151.0 129.9 L 148.9 131.5 L 144.5 134.9 L 142.1 136.6 L 139.5 138.3 L 136.8 140.1 L 135.05 141.1 L 169.21818180084227 141.1 L 177.4 132.1 L 187.4 141.1 L 187.4 145.1 L 122.5 145.1 L 122.5 158.8 L 157.1 158.8 L 167.1 148.8 L 179.1 158.8 L 179.1 162.8 L 122.5 162.8 L 122.5 182.4 L 110.5 188.4 L 110.5 162.8 L 53.8 162.8 L 53.8 158.8 L 110.5 158.8 L 110.5 145.1 L 45.5 145.1 L 45.5 141.1 L 91.34516124725342 141.1 L 89.7 139.6 L 89.5 138.2 Z M 44.4 28.4 L 162.71818180084227 28.4 L 170.9 19.4 L 180.9 28.4 L 180.9 32.4 L 44.4 32.4 L 44.4 89.9 L 43.9 103.3 L 42.9 115.8 L 41.6 127.4 L 39.7 138.2 L 37.5 148.0 L 34.7 157.0 L 31.5 165.1 L 27.8 172.2 L 23.5 178.2 L 18.7 183.1 L 17.4 182.0 L 20.3 176.2 L 23.0 169.8 L 25.4 162.7 L 27.4 154.9 L 29.2 146.2 L 30.6 136.7 L 31.6 126.3 L 32.2 115.1 L 32.5 102.9 L 32.4 89.9 L 32.4 22.4 Z M 72.6 85.2 L 72.6 101.2 L 110.2 101.2 L 110.2 85.2 Z M 72.6 81.2 L 152.4 81.2 L 152.4 64.4 L 72.6 64.4 Z M 72.6 46.1 L 72.6 60.4 L 110.2 60.4 L 110.2 46.1 Z " />
</g>
</svg>
