<svg xmlns="http://www.w3.org/2000/svg" xmlns:xlink="http://www.w3.org/1999/xlink" version="1.1" baseProfile="full" viewBox="0 0 200 200" width="200" height="200">
<g fill="black">
<path d="M 140.7 40.0 L 143.7 42.0 L 140.7 43.8 L 140.7 58.8 L 157.7 58.8 L 167.7 48.8 L 179.7 58.8 L 179.7 62.8 L 140.7 62.8 L 140.7 80.5 L 158.7 80.5 L 164.7 75.5 L 175.7 84.5 L 170.7 88.5 L 170.7 137.0 L 158.7 143.0 L 158.7 135.0 L 140.7 135.0 L 140.7 154.5 L 161.5 154.5 L 171.5 144.5 L 183.5 154.5 L 183.5 158.5 L 140.7 158.5 L 140.7 183.9 L 128.7 189.9 L 128.7 158.5 L 85.9 158.5 L 85.9 154.5 L 128.7 154.5 L 128.7 135.0 L 110.7 135.0 L 110.7 138.0 L 98.7 144.0 L 98.7 74.5 L 110.7 80.5 L 128.7 80.5 L 128.7 62.8 L 89.7 62.8 L 89.7 58.8 L 128.7 58.8 L 128.7 38.0 Z M 40.0 26.0 L 166.0 26.0 L 176.0 16.0 L 188.0 26.0 L 188.0 30.0 L 40.0 30.0 L 40.0 91.0 L 39.4 105.1 L 38.4 118.3 L 37.0 130.6 L 35.0 141.9 L 32.6 152.4 L 29.7 161.9 L 26.2 170.4 L 22.3 177.9 L 17.7 184.3 L 12.6 189.5 L 11.3 188.4 L 14.5 182.3 L 17.5 175.5 L 20.1 168.0 L 22.4 159.7 L 24.3 150.5 L 25.8 140.4 L 27.0 129.4 L 27.7 117.5 L 28.0 104.7 L 28.0 20.0 Z M 65.4 189.0 L 61.3 186.9 L 59.8 182.6 L 60.4 176.6 L 60.5 171.1 L 60.2 166.1 L 59.6 161.7 L 58.6 157.7 L 57.57277698516846 155.3031463623047 L 56.7 155.1 L 57.065423774719235 154.13661012649536 L 55.3 150.9 L 53.1 148.0 L 50.3 145.3 L 46.9 142.8 L 47.5 141.2 L 52.0 142.2 L 56.2 144.1 L 60.0 146.7 L 60.095220947265624 146.8009919166565 L 61.4 143.8 L 64.0 138.2 L 67.0 131.6 L 70.5 124.0 L 74.6 115.4 L 79.2 105.9 L 84.4 95.3 L 90.4 83.9 L 92.0 84.6 L 87.9 96.8 L 84.1 107.9 L 80.6 117.9 L 77.5 126.9 L 72.6 141.6 L 70.8 147.3 L 69.5 152.0 L 68.7 155.5 L 68.3 157.8 L 67.63301162719726 157.64475269317626 L 68.3 159.1 L 70.0 164.4 L 71.1 170.2 L 71.7 176.6 L 71.8 183.4 L 69.7 187.5 Z M 110.7 109.7 L 110.7 131.0 L 158.7 131.0 L 158.7 109.7 Z M 110.7 105.7 L 158.7 105.7 L 158.7 84.5 L 110.7 84.5 Z M 60.4 98.5 L 59.5 96.9 L 58.3 95.2 L 56.9 93.4 L 55.2 91.6 L 53.3 89.8 L 51.0 87.9 L 48.6 86.0 L 45.7 84.6 L 46.3 82.9 L 49.5 83.8 L 52.7 84.4 L 55.8 85.2 L 58.6 86.2 L 61.3 87.4 L 63.8 88.8 L 66.2 90.3 L 68.3 92.1 L 70.3 94.1 L 72.1 96.2 L 72.4 100.8 L 69.5 104.3 L 64.9 104.6 L 61.4 101.7 L 61.0 100.2 Z M 71.4 58.6 L 70.4 56.9 L 69.3 55.1 L 67.9 53.3 L 66.3 51.5 L 64.5 49.7 L 62.4 47.9 L 60.2 46.0 L 57.5 44.6 L 58.1 42.9 L 61.1 43.8 L 64.2 44.4 L 67.1 45.3 L 69.8 46.3 L 72.4 47.5 L 74.9 48.8 L 77.2 50.4 L 79.3 52.1 L 81.3 54.0 L 83.1 56.1 L 83.6 60.6 L 80.8 64.2 L 76.3 64.7 L 72.6 62.0 L 72.1 60.3 Z " />
</g>
</svg>
