<svg xmlns="http://www.w3.org/2000/svg" xmlns:xlink="http://www.w3.org/1999/xlink" version="1.1" baseProfile="full" viewBox="0 0 200 200" width="200" height="200">
<g fill="black">
<path d="M 147.2 174.6 L 137.4 168.3 L 128.3 161.3 L 120.0 153.4 L 115.74534006118775 148.58551635742188 L 115.1 149.3 L 106.1 157.8 L 96.5 165.4 L 86.3 172.1 L 75.5 177.7 L 64.2 182.4 L 52.3 186.0 L 51.8 184.3 L 62.7 178.9 L 73.0 173.0 L 82.7 166.6 L 91.8 159.4 L 100.3 151.6 L 108.2 143.1 L 109.76148862838745 141.13758869171141 L 105.7 135.5 L 99.8 125.3 L 94.8 114.4 L 90.8 102.7 L 92.5 102.1 L 98.5 112.6 L 104.8 122.3 L 111.5 131.2 L 114.75503549575805 134.8619149208069 L 115.6 133.8 L 122.4 123.8 L 128.6 113.0 L 133.8453579902649 102.41726016998291 L 133.8 102.4 L 134.8 100.3 L 145.1 106.7 L 146.9 109.8 L 143.20395622253417 110.11862449645996 L 138.5 118.6 L 131.3 129.7 L 123.5 140.0 L 121.60800628662109 142.09470729827882 L 126.4 146.7 L 134.6 153.3 L 143.4 159.1 L 152.8 164.2 L 162.7 168.5 L 173.3 172.1 L 180.7 174.6 L 169.1 184.6 L 157.8 180.0 Z M 44.4 28.4 L 158.9 28.4 L 168.9 18.4 L 180.9 28.4 L 180.9 32.4 L 44.4 32.4 L 44.4 89.9 L 43.9 103.3 L 42.9 115.8 L 41.6 127.4 L 39.7 138.2 L 37.5 148.0 L 34.7 157.0 L 31.5 165.1 L 27.8 172.2 L 23.5 178.2 L 18.7 183.1 L 17.4 182.0 L 20.3 176.2 L 23.0 169.8 L 25.4 162.7 L 27.4 154.9 L 29.2 146.2 L 30.6 136.7 L 31.6 126.3 L 32.2 115.1 L 32.5 102.9 L 32.4 89.9 L 32.4 22.4 Z M 97.7 82.2 L 99.5 85.3 L 95.70060510635376 85.62753400802612 L 94.9 87.0 L 91.8 91.6 L 88.5 96.1 L 84.9 100.4 L 81.1 104.6 L 77.0 108.6 L 72.7 112.5 L 68.0 116.1 L 63.1 119.4 L 57.8 122.5 L 56.7 121.0 L 60.6 116.5 L 64.4 112.1 L 68.0 107.8 L 71.4 103.5 L 74.6 99.2 L 77.5 94.8 L 80.2 90.4 L 82.7 86.0 L 84.9 81.5 L 86.5074270248413 77.80291776657104 L 86.5 77.8 L 86.5666666984558 77.66666669845581 L 86.9 76.9 L 86.94014873504639 76.91970262527465 L 87.5 75.8 Z M 157.0 106.7 L 154.6 102.7 L 152.0 98.8 L 149.3 95.1 L 146.4 91.6 L 143.5 88.2 L 140.4 84.8 L 137.2 81.5 L 133.8 78.2 L 134.8 76.7 L 139.2 78.5 L 143.6 80.7 L 147.7 83.3 L 151.6 86.2 L 155.4 89.4 L 159.1 92.9 L 162.5 96.7 L 165.9 100.7 L 169.0 104.9 L 172.0 109.5 L 172.5 114.0 L 169.7 117.6 L 165.1 118.1 L 161.5 115.3 L 159.3 110.9 Z M 51.3 63.1 L 109.0 63.1 L 109.0 39.6 L 121.0 41.6 L 124.0 43.6 L 121.0 45.4 L 121.0 63.1 L 156.6 63.1 L 166.6 53.1 L 178.6 63.1 L 178.6 67.1 L 51.3 67.1 Z " />
</g>
</svg>
