<svg xmlns="http://www.w3.org/2000/svg" xmlns:xlink="http://www.w3.org/1999/xlink" version="1.1" baseProfile="full" viewBox="0 0 200 200" width="200" height="200">
<g fill="black">
<path d="M 51.4 112.2 L 50.5 122.2 L 48.9 131.8 L 46.7 140.9 L 43.9 149.4 L 40.5 157.5 L 36.5 164.9 L 32.0 171.8 L 26.8 178.1 L 20.9 183.7 L 14.5 188.6 L 13.4 187.3 L 18.4 181.3 L 22.9 175.1 L 26.9 168.5 L 30.4 161.7 L 33.4 154.4 L 35.8 146.8 L 37.8 138.7 L 39.2 130.2 L 40.1 121.2 L 40.5 111.7 L 40.5 65.21764707565308 L 38.7 66.7 L 31.4 71.9 L 23.6 76.6 L 15.4 80.7 L 14.5 79.2 L 21.5 73.4 L 28.1 67.6 L 34.4 61.7 L 40.2 55.6 L 45.7 49.3 L 50.8 42.8 L 55.5 36.0 L 59.7 29.0 L 63.6 21.8 L 66.925 14.675 L 67.6 13.1 L 77.9 19.4 L 79.8 22.5 L 75.99861240386963 22.893247032165526 L 73.6 27.3 L 69.25405406951904 34.0 L 123.0 34.0 L 123.42857141494751 33.64285717010498 L 123.8 32.9 L 124.10397272109985 33.080022716522215 L 129.0 29.0 L 140.0 38.0 L 135.0 41.0 L 131.57952756881713 42.42519683837891 L 129.0 45.6 L 126.2 48.8 L 123.3 51.9 L 120.2 54.9 L 117.0 57.7 L 113.7 60.4 L 110.1 63.0 L 108.44782609939575 64.0 L 156.0 64.0 L 166.0 54.0 L 178.0 64.0 L 178.0 68.0 L 51.5 68.0 L 51.5 112.0 L 51.367655754089355 112.19851627349854 Z M 74.0 179.7 L 63.0 185.2 L 63.0 102.6 L 74.0 104.6 L 76.7 106.6 L 74.0 108.32340421676636 L 74.0 163.7 L 112.0 163.7 L 112.0 79.4 L 124.0 81.4 L 127.0 83.4 L 124.0 85.2 L 124.0 163.7 L 161.5 163.7 L 161.5 102.6 L 173.5 104.6 L 176.5 106.6 L 173.5 108.4 L 173.5 173.7 L 161.5 179.7 L 161.5 167.7 L 74.0 167.7 Z M 66.41666669845581 38.0 L 63.6 41.9 L 58.0 48.6 L 52.0 55.0 L 45.56951875686646 61.03475933074951 L 51.5 64.0 L 103.29411764144898 64.0 L 104.2 62.9 L 109.4 56.1 L 114.2 49.5 L 118.4 42.9 L 120.3 39.6 L 121.17272729873658 38.0 Z " />
</g>
</svg>
