<svg xmlns="http://www.w3.org/2000/svg" xmlns:xlink="http://www.w3.org/1999/xlink" version="1.1" baseProfile="full" viewBox="0 0 200 200" width="200" height="200">
<g fill="black">
<path d="M 40.0 26.0 L 166.0 26.0 L 176.0 16.0 L 188.0 26.0 L 188.0 30.0 L 40.0 30.0 L 40.0 91.0 L 39.4 105.1 L 38.4 118.3 L 37.0 130.6 L 35.0 141.9 L 32.6 152.4 L 29.7 161.9 L 26.2 170.4 L 22.3 177.9 L 17.7 184.3 L 12.6 189.5 L 11.3 188.4 L 14.5 182.3 L 17.5 175.5 L 20.1 168.0 L 22.4 159.7 L 24.3 150.5 L 25.8 140.4 L 27.0 129.4 L 27.7 117.5 L 28.0 104.7 L 28.0 20.0 Z M 159.8 181.1 L 148.7 174.9 L 138.3 165.7 L 133.41119375228882 159.28672723770143 L 125.9 163.4 L 112.8 169.5 L 99.0 174.7 L 84.7 179.1 L 69.7 182.7 L 54.2 185.2 L 38.1 186.8 L 37.8 185.1 L 53.5 181.5 L 68.4 177.5 L 82.7 172.9 L 96.3 167.6 L 109.3 161.8 L 121.5 155.2 L 127.83391571044922 151.2686040878296 L 120.9 138.0 L 114.2697916984558 119.0 L 68.0 119.0 L 68.0 131.0 L 56.0 137.0 L 56.0 56.0 L 68.0 62.0 L 105.29096574783325 62.0 L 104.04957656860351 37.09462919235229 L 104.0 37.1 L 103.9 33.7 L 116.0 35.8 L 119.0 37.8 L 116.18130617141723 39.58325529098511 L 117.25559101104736 62.0 L 159.0 62.0 L 165.0 57.0 L 176.0 66.0 L 171.0 70.0 L 171.0 119.0 L 164.45758752822877 122.2712061882019 L 172.4 130.9 L 173.1 134.5 L 169.42319116592407 133.51514053344727 L 161.7 140.3 L 150.4 148.8 L 143.72746801376343 153.11752071380616 L 147.1 157.6 L 155.6 165.1 L 164.5 170.0 L 173.7 172.9 L 177.3850996017456 173.33123502731323 L 183.0 149.0 L 185.0 149.0 L 183.07712898254394 173.99732360839843 L 183.1 174.0 L 187.3 175.9 L 188.9 180.1 L 187.0 184.3 L 182.8 185.9 L 171.2 184.6 Z M 127.00621471405029 119.0 L 131.9 133.2 L 137.88917274475097 144.60404119491577 L 144.1 140.2 L 154.4 131.6 L 163.78181819915773 122.60909090042114 L 159.0 125.0 L 159.0 119.0 Z M 68.0 92.0 L 68.0 115.0 L 113.34827585220337 115.0 L 109.0 95.6 L 108.55328464508057 92.0 Z M 120.69471702575683 92.0 L 120.9 93.6 L 125.68812789916993 115.0 L 159.0 115.0 L 159.0 92.0 Z M 68.0 66.0 L 68.0 88.0 L 108.05693426132203 88.0 L 105.6 68.2 L 105.49034271240234 66.0 Z M 117.4472843170166 66.0 L 117.5 67.1 L 120.18150939941407 88.0 L 159.0 88.0 L 159.0 66.0 Z M 146.4 53.0 L 145.1 51.3 L 143.6 49.6 L 141.9 47.8 L 140.1 46.1 L 138.0 44.3 L 135.8 42.5 L 133.3 40.6 L 130.6 39.1 L 131.2 37.5 L 134.3 38.3 L 137.4 38.9 L 140.4 39.6 L 143.3 40.5 L 146.0 41.6 L 148.6 42.8 L 151.0 44.1 L 153.4 45.5 L 155.6 47.1 L 157.7 48.8 L 159.0 53.2 L 156.8 57.3 L 152.5 58.5 L 148.4 56.4 L 147.5 54.8 Z " />
</g>
</svg>
