<svg xmlns="http://www.w3.org/2000/svg" xmlns:xlink="http://www.w3.org/1999/xlink" version="1.1" baseProfile="full" viewBox="0 0 200 200" width="200" height="200">
<g fill="black">
<path d="M 40.0 26.0 L 166.0 26.0 L 176.0 16.0 L 188.0 26.0 L 188.0 30.0 L 40.0 30.0 L 40.0 91.0 L 39.4 105.1 L 38.4 118.3 L 37.0 130.6 L 35.0 141.9 L 32.6 152.4 L 29.7 161.9 L 26.2 170.4 L 22.3 177.9 L 17.7 184.3 L 12.6 189.5 L 11.3 188.4 L 14.5 182.3 L 17.5 175.5 L 20.1 168.0 L 22.4 159.7 L 24.3 150.5 L 25.8 140.4 L 27.0 129.4 L 27.7 117.5 L 28.0 104.7 L 28.0 20.0 Z M 137.5 166.5 L 147.5 166.5 L 148.7 166.4 L 149.6 166.3 L 150.2 166.1 L 150.6 165.9 L 150.7 165.7 L 150.9 165.5 L 151.1 165.2 L 151.3 164.6 L 151.4 163.7 L 151.5 162.5 L 151.5 134.2 L 123.5 134.2 L 123.5 181.9 L 111.5 187.9 L 111.5 134.2 L 84.7 134.2 L 84.7 174.3 L 72.7 180.3 L 72.7 124.2 L 84.7 130.2 L 111.5 130.2 L 111.5 113.9 L 123.5 115.9 L 126.5 117.9 L 123.5 119.7 L 123.5 130.2 L 151.5 130.2 L 157.5 125.2 L 168.5 134.2 L 163.5 138.2 L 163.5 162.5 L 163.3 165.0 L 162.9 167.5 L 162.1 169.9 L 160.9 172.2 L 159.2 174.2 L 157.2 175.9 L 154.9 177.1 L 152.5 177.9 L 150.0 178.3 L 147.5 178.5 L 147.5 172.5 L 137.5 169.5 Z M 48.9 128.0 L 48.4 123.4 L 51.3 119.9 L 52.6 119.5 L 53.9 118.9 L 55.3 117.9 L 56.6 116.5 L 57.9 114.8 L 59.1 112.6 L 60.2 109.9 L 61.2 106.9 L 62.1 103.5 L 62.4 99.6 L 64.2 99.6 L 64.6 103.5 L 64.87567567825317 105.2 L 171.1 105.2 L 171.91000003814696 104.525 L 172.2 103.8 L 172.51794023513793 104.01838312149047 L 177.1 100.2 L 188.1 109.2 L 183.1 112.2 L 177.4545454978943 114.55227270126343 L 177.4 114.6 L 175.5 116.0 L 173.6 117.5 L 171.5 119.1 L 169.3 120.7 L 167.0 122.3 L 164.4 124.0 L 162.1 126.0 L 160.8 124.8 L 162.7 122.4 L 164.1 119.7 L 165.5 117.3 L 166.8 114.9 L 168.0 112.8 L 169.1 110.7 L 169.88947372436525 109.2 L 65.31111106872558 109.2 L 65.4 110.8 L 65.3 114.1 L 64.9 117.3 L 64.2 120.3 L 63.0 123.2 L 61.5 125.9 L 59.4 128.3 L 57.0 130.4 L 52.5 130.8 Z M 165.1 50.7 L 160.1 54.7 L 160.1 66.7 L 168.11818180084228 66.7 L 176.3 57.7 L 186.3 66.7 L 186.3 70.7 L 160.1 70.7 L 160.1 90.7 L 148.1 96.7 L 148.1 90.7 L 68.8 90.7 L 68.8 86.7 L 148.1 86.7 L 148.1 70.7 L 47.9 70.7 L 47.9 66.7 L 148.1 66.7 L 148.1 50.7 L 70.4 50.7 L 70.4 46.7 L 148.1 46.7 L 154.1 41.7 Z " />
</g>
</svg>
