<svg xmlns="http://www.w3.org/2000/svg" xmlns:xlink="http://www.w3.org/1999/xlink" version="1.1" baseProfile="full" viewBox="0 0 200 200" width="200" height="200">
<g fill="black">
<path d="M 112.1 77.2 L 114.9 79.2 L 112.1 80.95 L 112.1 122.6 L 111.4 132.0 L 109.7 140.8 L 107.1 149.0 L 103.5 156.4 L 98.9 163.0 L 93.5 168.8 L 87.2 173.8 L 80.1 177.9 L 72.2 181.1 L 63.5 183.3 L 63.0 181.8 L 70.8 177.9 L 77.6 173.7 L 83.5 169.1 L 88.5 164.0 L 92.6 158.5 L 95.9 152.5 L 98.4 145.9 L 100.1 138.8 L 100.89586772918702 131.90247936248778 L 97.9 133.7 L 92.9 136.6 L 87.8 139.3 L 82.8 142.0 L 77.7 144.5 L 72.7 147.0 L 67.6 149.5 L 62.6 151.8 L 61.37086009979248 152.38998718261718 L 60.5 156.2 L 57.6 154.2 L 51.3 143.7 L 53.2 143.0 L 58.4 141.3 L 63.1 139.67307691574098 L 63.1 64.8 L 71.2 66.15 L 73.1 65.2 L 77.2 63.2 L 85.6 59.2 L 89.8 57.1 L 94.1 55.0 L 98.3 52.8 L 102.6 50.5 L 106.8 48.1 L 110.24755153656005 46.1757851600647 L 110.2 46.1 L 110.2675567626953 46.16461944580078 L 111.1 45.7 L 112.39885997772217 48.203257369995114 L 119.4 54.9 L 119.5 58.2 L 115.79024391174316 56.65426826477051 L 111.8 58.4 L 107.0 60.2 L 102.3 62.0 L 97.6 63.6 L 92.8 65.0 L 88.1 66.2 L 83.4 67.3 L 78.8 68.2 L 77.42018346786499 68.34678897857665 L 78.1 68.8 L 75.1 70.6 L 75.1 135.69433965682984 L 79.5 134.2 L 84.8 132.3 L 90.3 130.6 L 95.7 128.8 L 101.04436855316162 127.2730375289917 L 101.1 122.6 L 101.1 75.2 Z M 44.4 28.4 L 158.9 28.4 L 168.9 18.4 L 180.9 28.4 L 180.9 32.4 L 44.4 32.4 L 44.4 89.9 L 43.9 103.3 L 42.9 115.8 L 41.6 127.4 L 39.7 138.2 L 37.5 148.0 L 34.7 157.0 L 31.5 165.1 L 27.8 172.2 L 23.5 178.2 L 18.7 183.1 L 17.4 182.0 L 20.3 176.2 L 23.0 169.8 L 25.4 162.7 L 27.4 154.9 L 29.2 146.2 L 30.6 136.7 L 31.6 126.3 L 32.2 115.1 L 32.5 102.9 L 32.4 89.9 L 32.4 22.4 Z M 147.6 147.0 L 157.6 147.0 L 158.8 146.9 L 159.7 146.8 L 160.3 146.6 L 160.6 146.4 L 160.8 146.3 L 161.0 146.1 L 161.2 145.7 L 161.4 145.1 L 161.5 144.2 L 161.6 143.0 L 161.6 64.4 L 134.9 64.4 L 134.9 178.8 L 123.9 184.3 L 123.9 54.9 L 134.9 60.4 L 161.6 60.4 L 167.6 55.4 L 178.6 64.4 L 173.6 68.4 L 173.6 143.0 L 173.4 145.6 L 173.0 148.1 L 172.2 150.5 L 171.0 152.7 L 169.3 154.7 L 167.3 156.4 L 165.0 157.6 L 162.6 158.4 L 160.1 158.9 L 157.6 159.0 L 157.6 153.0 L 147.6 150.0 Z " />
</g>
</svg>
