<svg xmlns="http://www.w3.org/2000/svg" xmlns:xlink="http://www.w3.org/1999/xlink" version="1.1" baseProfile="full" viewBox="0 0 200 200" width="200" height="200">
<g fill="black">
<path d="M 159.0 169.2 L 151.1 160.5 L 144.0 150.8 L 142.9873734474182 149.0110263824463 L 137.6 156.8 L 128.2 167.2 L 117.7 176.1 L 106.2 183.3 L 93.7 188.8 L 92.9 187.1 L 104.2 180.0 L 114.3 171.9 L 123.4 162.7 L 131.5 152.3 L 138.35941829681397 140.83497228622437 L 138.0 140.2 L 132.8 128.7 L 128.7 116.4 L 125.4 103.2 L 123.3 89.0 L 122.76413040161133 80.96195650100708 L 119.5 86.6 L 114.6 93.8 L 109.4 100.4 L 107.8 99.5 L 111.3 91.8 L 114.7 84.1 L 118.0 76.2 L 121.0 68.1 L 123.9 59.7 L 126.5 51.1 L 128.9 42.2 L 131.1 33.0 L 133.0 23.6 L 134.52607822418213 14.802607822418214 L 134.5 14.8 L 134.6642105102539 14.006315803527832 L 134.7 13.8 L 134.70664043426513 13.801238059997559 L 135.1 11.9 L 146.5 16.0 L 149.1 18.6 L 145.56772909164428 19.88446216583252 L 144.1 26.0 L 141.5 35.7 L 138.6 45.0 L 135.3 54.0 L 132.4839080810547 61.0 L 165.5 61.0 L 175.5 51.0 L 187.5 61.0 L 187.5 65.0 L 170.68010473251343 65.0 L 168.1 82.6 L 164.2 100.3 L 159.2 116.5 L 153.1 131.4 L 148.72771806716918 139.53730249404907 L 152.4 144.9 L 159.4 153.2 L 167.0 160.5 L 175.3 166.8 L 184.3 172.2 L 189.0 174.9 L 177.8 183.7 L 167.9 176.9 Z M 28.3 29.6 L 85.3 29.6 L 95.3 19.6 L 107.3 29.6 L 107.3 33.6 L 28.3 33.6 L 28.3 90.0 L 27.9 103.0 L 27.2 115.2 L 26.2 126.5 L 25.0 137.0 L 23.4 146.6 L 21.6 155.4 L 19.5 163.3 L 17.1 170.2 L 14.2 176.2 L 10.9 181.2 L 9.3 180.4 L 10.7 174.9 L 11.9 168.7 L 13.1 161.8 L 14.2 154.0 L 15.0 145.5 L 15.7 136.1 L 16.2 125.9 L 16.4 114.8 L 16.5 102.8 L 16.3 90.0 L 16.3 23.6 Z M 71.7 176.9 L 69.2 176.4 L 66.8 175.6 L 64.5 174.4 L 62.5 172.7 L 60.9 170.7 L 59.6 168.5 L 58.8 166.1 L 58.4 163.6 L 58.2 161.0 L 58.2 109.1613941192627 L 30.6 114.6 L 29.8 110.7 L 58.2 105.06568365097046 L 58.2 66.19701490402221 L 56.4 66.6 L 49.2 68.0 L 41.7 69.1 L 33.7 70.0 L 33.3 68.3 L 40.7 65.4 L 47.8 62.8 L 54.5 60.3 L 60.9 57.9 L 66.8 55.5 L 72.2 53.2 L 77.3 50.9 L 82.0 48.6 L 86.2 46.3 L 89.0163537979126 44.62541122436524 L 89.0 44.6 L 89.02265853881836 44.6216625213623 L 89.9 44.1 L 91.35219945907593 46.84880599975586 L 98.1 53.3 L 98.2 56.7 L 94.46875 55.1453125 L 91.1 56.6 L 86.2 58.4 L 81.0 60.2 L 75.4 61.9 L 70.2 63.37333335876465 L 70.2 102.68498659133911 L 82.92657051086425 100.16014413833618 L 90.7 88.5 L 104.4 95.9 L 105.2 99.9 L 70.2 106.79678287506104 L 70.2 161.0 L 70.3 162.2 L 70.5 163.1 L 70.7 163.7 L 70.8 164.1 L 71.0 164.3 L 71.2 164.4 L 71.5 164.6 L 72.1 164.8 L 73.0 164.9 L 74.2 165.0 L 95.5 165.0 L 101.5 140.0 L 103.5 140.0 L 101.5 165.0 L 105.1 167.4 L 107.5 171.0 L 105.1 174.6 L 101.5 177.0 L 74.2 177.0 Z M 130.74698791503906 65.0 L 128.0 71.0 L 124.85801982879639 77.13069305419921 L 127.4 88.3 L 131.2 101.7 L 135.5 114.1 L 140.5 125.4 L 143.2547887802124 130.4668436050415 L 144.6 127.6 L 149.7 113.4 L 153.8 97.7 L 156.9 80.7 L 158.7016393661499 65.0 Z " />
</g>
</svg>
