<svg xmlns="http://www.w3.org/2000/svg" xmlns:xlink="http://www.w3.org/1999/xlink" version="1.1" baseProfile="full" viewBox="0 0 200 200" width="200" height="200">
<g fill="black">
<path d="M 157.9 179.4 L 154.5 176.7 L 150.9 174.0 L 150.42855615615844 173.6650267601013 L 142.2 174.8 L 128.2 176.5 L 114.6 178.0 L 101.5 179.4 L 88.8 180.6 L 76.5 181.7 L 64.8 182.7 L 53.4 183.6 L 42.6 184.5 L 36.253126525878905 184.92719345092775 L 34.3 188.2 L 32.2 185.2 L 29.7 173.3 L 31.7 173.3 L 42.1 173.1 L 52.9 172.9 L 64.2 172.7 L 68.02289419174194 172.60280780792237 L 69.6 170.5 L 72.2 167.2 L 74.7 164.0 L 77.1 160.9 L 79.4 157.9 L 81.5 155.1 L 83.5 152.3 L 85.4 149.6 L 85.67200002670288 149.2 L 55.1 149.2 L 55.1 161.2 L 43.1 167.2 L 43.1 102.2 L 55.1 108.2 L 90.45 108.2 L 90.9 107.6 L 91.8 105.4 L 92.7 103.3 L 93.6 101.4 L 94.4 99.4 L 95.1 97.6 L 95.8 95.9 L 96.3 94.2 L 96.5666666984558 93.4 L 35.7442307472229 93.4 L 35.8 96.3 L 35.5 101.2 L 34.8 105.8 L 33.6 110.0 L 32.1 113.9 L 30.1 117.5 L 27.5 120.8 L 24.5 123.5 L 20.0 124.3 L 16.2 121.7 L 15.4 117.2 L 18.0 113.5 L 19.9 112.4 L 21.9 110.9 L 23.7 108.9 L 25.5 106.4 L 27.1 103.3 L 28.5 99.7 L 29.8 95.5 L 31.0 90.8 L 32.0 85.5 L 32.6 79.7 L 34.4 79.7 L 35.2 85.6 L 35.54545450210571 89.4 L 170.3 89.4 L 170.91395349502562 88.88837213516236 L 171.1 88.4 L 171.33636360168458 88.53636360168457 L 176.3 84.4 L 187.3 93.4 L 182.3 96.4 L 178.50689659118652 97.98045978546142 L 178.0 98.6 L 176.0 100.8 L 173.9 103.1 L 171.6 105.5 L 169.1 108.0 L 166.4 110.6 L 165.2046594619751 111.71290321350098 L 165.8 112.2 L 160.8 116.2 L 160.8 149.2 L 148.8 155.2 L 148.8 149.2 L 90.3246913909912 149.2 L 96.3 154.7 L 97.4 158.2 L 93.28903141021729 157.5620910644531 L 91.4 159.3 L 85.8 164.1 L 82.8 166.5 L 79.6 169.0 L 76.2 171.4 L 74.75571174621582 172.43163442611694 L 76.0 172.4 L 88.3 172.1 L 101.0 171.8 L 114.2 171.5 L 127.8 171.2 L 142.0 171.0 L 146.62692308425903 171.0 L 143.0 168.7 L 138.8 166.0 L 134.3 163.3 L 129.6 160.6 L 124.7 157.7 L 125.3 156.0 L 130.9 157.1 L 136.3 158.5 L 141.5 160.1 L 146.4 161.9 L 151.2 163.9 L 155.7 166.1 L 160.0 168.3 L 164.2 170.7 L 168.1 173.3 L 171.8 176.0 L 173.8 180.1 L 172.4 184.4 L 168.3 186.4 L 163.9 185.0 L 161.0 182.2 Z M 55.1 130.4 L 55.1 145.2 L 148.8 145.2 L 148.8 130.4 Z M 55.1 112.2 L 55.1 126.4 L 148.8 126.4 L 148.8 112.2 Z M 102.03999996185303 93.4 L 107.5 97.3 L 109.1 100.5 L 104.00811166763306 100.58630323410034 L 101.8 102.5 L 100.1 103.8 L 98.4 105.2 L 94.6 107.8 L 93.95384616851807 108.2 L 148.8 108.2 L 154.8 103.2 L 161.27486238479614 108.4976146697998 L 162.0 107.2 L 163.7 104.0 L 165.3 100.9 L 166.8 98.1 L 168.1 95.4 L 169.06000003814697 93.4 Z M 41.9 86.8 L 41.9 43.3 L 53.9 49.3 L 151.0 49.3 L 155.39731540679932 45.635570430755614 L 154.6 45.4 L 153.5 44.0 L 152.1 42.6 L 150.5 41.1 L 148.7 39.6 L 146.6 38.1 L 144.3 36.5 L 141.7 34.9 L 139.0 33.2 L 136.0 31.5 L 132.8 30.1 L 132.93039722442626 29.65664939880371 L 132.4 29.8 L 131.7 28.1 L 135.2 26.3 L 138.3 24.2 L 141.2 22.3 L 144.0 20.4 L 146.6 18.7 L 149.0 17.0 L 151.2 15.3 L 153.2 13.8 L 155.0 12.2 L 155.89264478683472 11.418935871124267 L 155.8 11.3 L 155.9013910293579 11.411282825469971 L 156.6 10.8 L 159.9 15.8 L 164.0 20.3 L 164.2 23.8 L 160.1448275566101 22.062068939208984 L 158.3 22.8 L 155.7 23.7 L 152.9 24.7 L 149.9 25.6 L 146.7 26.5 L 143.4 27.3 L 139.9 28.1 L 136.1 28.8 L 135.75977010726928 28.891954040527345 L 136.8 29.1 L 140.3 29.4 L 143.6 29.9 L 146.7 30.5 L 149.7 31.2 L 152.5 32.0 L 155.1 32.9 L 157.6 33.9 L 160.0 34.9 L 162.2 36.1 L 164.3 40.1 L 163.0 44.5 L 159.55813951492308 46.393023300170896 L 168.0 53.3 L 163.0 57.3 L 163.0 80.8 L 151.0 86.8 L 151.0 80.8 L 53.9 80.8 Z M 53.9 66.8 L 53.9 76.8 L 96.5 76.8 L 96.5 66.8 Z M 108.5 66.8 L 108.5 76.8 L 151.0 76.8 L 151.0 66.8 Z M 53.9 53.3 L 53.9 62.8 L 96.5 62.8 L 96.5 53.3 Z M 108.5 53.3 L 108.5 62.8 L 151.0 62.8 L 151.0 53.3 Z M 57.8 42.6 L 56.2 41.1 L 54.3 39.6 L 52.2 38.1 L 49.9 36.5 L 47.4 34.9 L 44.6 33.2 L 41.7 31.5 L 38.4 30.1 L 38.52919464111328 29.660738277435303 L 38.0 29.8 L 37.4 28.1 L 40.8 26.3 L 43.9 24.2 L 46.9 22.3 L 49.7 20.4 L 52.3 18.7 L 54.7 17.0 L 56.9 15.3 L 58.9 13.8 L 60.7 12.2 L 61.533176803588866 11.470970249176025 L 61.4 11.3 L 61.54673328399658 11.459108352661133 L 62.3 10.8 L 65.55 15.8 L 69.7 20.3 L 69.8 23.8 L 65.79310340881348 22.082758617401122 L 64.0 22.8 L 61.3 23.7 L 58.5 24.7 L 55.5 25.6 L 52.4 26.5 L 49.1 27.3 L 45.5 28.1 L 41.8 28.8 L 41.441853046417236 28.89424924850464 L 42.5 29.1 L 45.9 29.4 L 49.2 29.9 L 52.4 30.5 L 55.3 31.2 L 58.1 32.0 L 60.8 32.9 L 63.3 33.9 L 65.6 34.9 L 67.8 36.1 L 70.0 40.1 L 68.7 44.5 L 64.7 46.7 L 60.3 45.4 L 59.1 44.0 Z M 105.0 42.6 L 103.3 41.1 L 101.5 39.6 L 99.4 38.1 L 97.1 36.5 L 94.6 34.9 L 91.8 33.2 L 88.9 31.5 L 85.6 30.1 L 85.72919464111328 29.660738277435303 L 85.2 29.8 L 84.6 28.1 L 88.0 26.3 L 91.1 24.2 L 94.1 22.3 L 96.9 20.4 L 99.5 18.7 L 101.9 17.0 L 104.1 15.3 L 106.1 13.8 L 107.9 12.2 L 108.71125555038452 11.44282808303833 L 108.6 11.3 L 108.72145719528199 11.43330659866333 L 109.4 10.8 L 112.7 15.8 L 116.8 20.3 L 117.0 23.8 L 112.9577465057373 22.067605590820314 L 111.2 22.8 L 108.5 23.7 L 105.7 24.7 L 102.7 25.6 L 99.6 26.5 L 96.2 27.3 L 92.7 28.1 L 89.0 28.8 L 88.61136360168457 28.902272701263428 L 89.6 29.1 L 93.1 29.4 L 96.4 29.9 L 99.5 30.5 L 102.5 31.2 L 105.3 32.0 L 107.9 32.9 L 110.4 33.9 L 112.8 34.9 L 115.0 36.1 L 117.1 40.1 L 115.9 44.5 L 111.8 46.7 L 107.4 45.4 L 106.3 44.0 Z " />
</g>
</svg>
