<svg xmlns="http://www.w3.org/2000/svg" xmlns:xlink="http://www.w3.org/1999/xlink" version="1.1" baseProfile="full" viewBox="0 0 200 200" width="200" height="200">
<g fill="black">
<path d="M 70.0 180.2 L 91.2 180.2 L 92.1 180.0 L 92.7 179.8 L 93.0 179.6 L 93.2 179.5 L 93.4 179.3 L 93.7 178.4 L 93.9 177.5 L 94.0 176.2 L 94.0 148.2 L 15.0 148.2 L 15.0 144.2 L 94.0 144.2 L 94.0 130.0 L 103.52627983093262 131.58771333694457 L 104.2 131.0 L 108.8 127.1 L 113.2 123.6 L 117.3 120.3 L 121.2 117.3 L 124.8 114.5 L 127.67692308425903 112.3 L 45.0 112.3 L 45.0 108.3 L 132.88181819915772 108.3 L 134.2 107.3 L 136.7 105.3 L 137.014178276062 105.78818473815917 L 140.0 103.3 L 151.0 112.3 L 146.0 115.3 L 134.0 120.3 L 134.0 120.09428567886353 L 133.6 120.3 L 129.8 122.3 L 125.7 124.4 L 121.3 126.6 L 116.6 129.0 L 111.6 131.5 L 107.85245904922485 133.23497266769408 L 109.0 134.0 L 106.0 135.8 L 106.0 144.2 L 163.0 144.2 L 173.0 134.2 L 185.0 144.2 L 185.0 148.2 L 106.0 148.2 L 106.0 176.2 L 105.8 178.8 L 105.4 181.3 L 104.6 183.7 L 103.3 185.9 L 101.7 188.0 L 99.7 189.6 L 97.4 190.8 L 95.0 191.6 L 92.5 192.1 L 90.0 192.2 L 90.0 186.2 L 70.0 183.2 Z M 13.2 114.0 L 13.1 109.4 L 16.1 106.0 L 18.1 105.4 L 20.0 104.5 L 21.7 103.3 L 23.3 101.8 L 24.9 99.8 L 26.3 97.4 L 27.6 94.6 L 28.7 91.3 L 29.7 87.5 L 30.1 83.3 L 31.9 83.3 L 32.4 87.6 L 32.64390239715576 89.6 L 94.0 89.6 L 94.0 68.6 L 106.0 70.6 L 109.0 72.6 L 106.0 74.4 L 106.0 89.6 L 170.0 89.6 L 170.6470588684082 89.06078433990479 L 171.3 87.9 L 171.67606554031372 88.20327873229981 L 176.0 84.6 L 187.0 93.6 L 182.0 96.6 L 176.075 99.06875 L 175.1 99.8 L 172.9 101.3 L 170.6 103.0 L 168.1 104.7 L 165.5 106.4 L 162.6 108.2 L 159.5 110.0 L 156.5 112.2 L 155.4 110.8 L 157.8 108.1 L 159.9 105.2 L 161.8 102.5 L 163.6 100.0 L 165.3 97.6 L 166.8 95.4 L 168.0 93.6 L 32.948717975616454 93.6 L 33.0 95.6 L 32.6 99.3 L 31.9 102.9 L 30.7 106.2 L 29.0 109.4 L 26.9 112.2 L 24.3 114.8 L 21.2 116.9 L 16.6 117.0 Z M 155.8 60.0 L 152.2 55.7 L 149.6935444831848 52.92970714569092 L 141.7 54.6 L 128.5 57.0 L 115.4 59.1 L 102.5 61.0 L 89.9 62.7 L 77.4 64.2 L 65.0 65.6 L 52.9 66.8 L 41.0 67.9 L 33.33653402328491 68.5549970626831 L 31.4 71.8 L 29.3 68.9 L 26.6 57.0 L 28.6 56.9 L 40.3 56.6 L 52.2 56.1 L 62.72442369461059 55.66510648727417 L 63.8 53.6 L 66.3 48.9 L 68.9 44.4 L 71.4 39.9 L 73.8 35.4 L 76.1 30.9 L 80.3 22.1 L 82.3 17.7 L 83.72758617401124 14.210344791412354 L 83.7 14.2 L 83.92580642700196 13.725806427001952 L 84.1 13.3 L 84.12332611083984 13.311015129089355 L 84.7 12.1 L 94.9 18.4 L 96.8 21.5 L 92.909991645813 21.90241460800171 L 92.4 22.8 L 89.8 27.2 L 87.0 31.5 L 84.0 35.8 L 80.9 40.0 L 77.7 44.1 L 74.3 48.1 L 70.6 52.1 L 67.27043476104737 55.429565238952634 L 76.5 54.9 L 89.0 54.2 L 101.8 53.4 L 114.7 52.5 L 127.8 51.6 L 141.2 50.8 L 147.35763921737671 50.48306264877319 L 144.3 47.5 L 140.0 43.5 L 135.4 39.7 L 130.6 35.9 L 125.6 32.1 L 120.4 28.2 L 121.2 26.6 L 127.5 28.7 L 133.4 31.3 L 139.1 34.2 L 144.5 37.4 L 149.7 40.9 L 154.6 44.7 L 159.3 48.7 L 163.8 52.9 L 168.0 57.3 L 172.0 62.0 L 173.0 66.4 L 170.7 70.4 L 166.3 71.4 L 162.3 69.1 L 159.2 64.5 Z " />
</g>
</svg>
