<svg xmlns="http://www.w3.org/2000/svg" xmlns:xlink="http://www.w3.org/1999/xlink" version="1.1" baseProfile="full" viewBox="0 0 200 200" width="200" height="200">
<g fill="black">
<path d="M 112.0 176.0 L 128.0 176.0 L 129.3 175.9 L 130.2 175.7 L 131.1 175.4 L 131.3 175.2 L 131.4 175.0 L 131.6 174.7 L 131.8 174.1 L 132.0 173.2 L 132.0 143.40882349014282 L 130.1 145.7 L 126.7 149.5 L 123.2 153.2 L 119.6 156.6 L 116.0 159.9 L 112.5 163.1 L 108.9 166.1 L 105.3 169.0 L 101.8 171.8 L 101.60992908477783 171.94255323410033 L 101.5 175.9 L 98.2 174.5 L 95.5768973350525 171.5530574798584 L 88.9 177.0 L 83.0 173.2 L 77.6 168.4 L 72.8 162.8 L 68.6 156.3 L 64.8 149.0 L 61.6 140.8 L 60.0 135.657142829895 L 60.0 172.8 L 59.8 175.3 L 59.4 177.8 L 58.6 180.2 L 57.3 182.5 L 55.7 184.5 L 53.7 186.1 L 51.4 187.4 L 49.0 188.2 L 46.5 188.6 L 44.0 188.8 L 44.0 182.8 L 30.0 179.8 L 30.0 176.8 L 44.0 176.8 L 45.2 176.7 L 46.1 176.5 L 47.0 176.2 L 47.4 175.8 L 47.7 174.9 L 47.9 174.0 L 48.0 172.8 L 48.0 137.47619047164918 L 46.0 140.0 L 42.0 144.8 L 38.2 149.3 L 34.6 153.5 L 31.2 157.3 L 28.2 160.9 L 25.4 164.2 L 23.303750038146973 166.61875 L 24.1 170.6 L 20.6 170.0 L 10.6 163.0 L 12.0 161.6 L 14.7 159.2 L 17.8 156.6 L 21.1 153.8 L 24.7 150.7 L 28.6 147.4 L 32.8 143.9 L 37.4 140.1 L 42.3 136.1 L 47.6 132.0 L 48.0 131.70526313781738 L 48.0 89.4 L 60.0 91.4 L 63.0 93.4 L 60.0 95.2 L 60.0 113.76666669845581 L 62.2 120.5 L 65.7 129.5 L 65.78786125183106 129.69768781661986 L 66.5 128.5 L 68.6 124.9 L 70.7 121.5 L 72.7 118.2 L 74.7 115.1 L 76.5 112.1 L 78.3 109.2 L 80.0 106.5 L 81.00097198486328 104.76498193740845 L 80.9 104.7 L 81.42105264663697 104.03684206008911 L 81.5 103.9 L 81.5178153038025 103.91368961334229 L 82.0 103.3 L 91.0 111.2 L 92.2 114.6 L 88.09538459777832 114.10461540222168 L 86.5 115.7 L 84.1 118.2 L 81.6 120.7 L 78.9 123.2 L 76.1 125.9 L 73.1 128.6 L 70.0 131.4 L 67.47033491134644 133.48325357437133 L 69.3 137.6 L 73.1 144.7 L 77.1 150.7 L 81.3 155.7 L 85.6 159.7 L 90.0 162.8 L 92.42733564376832 163.96089963912965 L 95.5 162.3 L 99.3 160.2 L 103.1 158.0 L 107.0 155.6 L 111.0 153.2 L 115.0 150.7 L 123.4 145.5 L 127.8 142.9 L 132.0 140.47333335876465 L 132.0 100.0 L 103.6 100.0 L 103.6 96.0 L 132.0 96.0 L 132.0 71.0 L 98.5 71.0 L 98.5 67.0 L 132.0 67.0 L 132.0 42.0 L 103.6 42.0 L 103.6 38.0 L 132.0 38.0 L 132.0 14.0 L 144.0 16.0 L 147.0 18.0 L 144.0 19.8 L 144.0 38.0 L 162.1 38.0 L 168.1 33.0 L 179.1 42.0 L 174.1 46.0 L 174.1 67.0 L 179.1 67.0 L 183.6 61.0 L 189.6 67.0 L 189.6 71.0 L 174.1 71.0 L 174.1 100.0 L 162.1 106.0 L 162.1 100.0 L 144.0 100.0 L 144.0 120.98378381729125 L 147.4 127.6 L 151.2 134.2 L 155.3 140.3 L 155.342857170105 140.3545454978943 L 156.8 138.5 L 158.7 135.5 L 160.7 132.5 L 162.6 129.5 L 164.6 126.6 L 168.4 120.6 L 170.2 117.5 L 172.0 114.5 L 173.27094593048096 112.24054050445557 L 173.2 112.2 L 173.715625 111.45 L 173.8 111.3 L 173.8126760482788 111.30883483886718 L 174.3 110.6 L 183.7 118.2 L 185.0 121.6 L 180.90568447113037 121.31763343811035 L 178.6 123.9 L 173.3 129.2 L 170.5 131.7 L 167.7 134.1 L 164.9 136.4 L 161.9 138.6 L 158.8 140.6 L 156.6578125 142.028125 L 159.7 145.9 L 164.3 151.0 L 169.3 155.5 L 174.5 159.5 L 180.0 163.1 L 185.9 166.1 L 190.9 168.8 L 179.6 177.8 L 173.2 173.5 L 167.2 168.8 L 161.7 163.5 L 156.7 157.7 L 152.2 151.5 L 148.2 144.7 L 144.8 137.5 L 144.0 135.3285714149475 L 144.0 172.0 L 143.9 174.5 L 143.5 177.0 L 142.6 179.4 L 141.4 181.7 L 139.8 183.7 L 137.8 185.3 L 135.5 186.6 L 133.1 187.4 L 130.6 187.8 L 128.0 188.0 L 128.0 182.0 L 112.0 179.0 Z M 112.9 128.7 L 111.9 126.4 L 110.7 124.1 L 109.3 121.8 L 107.6 119.5 L 105.6 117.1 L 103.4 114.7 L 101.0 112.3 L 98.1 110.2 L 98.9 108.6 L 102.3 110.0 L 105.7 111.3 L 108.9 112.8 L 111.9 114.5 L 114.7 116.5 L 117.3 118.6 L 119.6 120.9 L 121.8 123.4 L 123.7 126.1 L 125.4 129.0 L 125.2 133.6 L 121.9 136.8 L 117.3 136.6 L 114.2 133.3 L 113.6 131.0 Z M 30.1 121.8 L 29.0 119.4 L 27.8 117.2 L 26.5 115.1 L 25.1 113.1 L 23.6 111.2 L 22.1 109.4 L 20.4 107.5 L 18.3 106.2 L 19.0 104.5 L 21.5 105.3 L 24.2 106.0 L 26.8 107.0 L 29.3 108.3 L 31.8 109.9 L 34.1 111.7 L 36.4 113.7 L 38.6 116.0 L 40.7 118.5 L 42.7 121.2 L 43.1 125.7 L 40.2 129.3 L 35.7 129.7 L 32.1 126.8 L 31.1 124.2 Z M 144.0 71.0 L 144.0 96.0 L 162.1 96.0 L 162.1 71.0 Z M 82.4 74.2 L 81.09580488204956 70.90115365982055 L 77.1 72.0 L 69.4 73.9 L 61.8 75.5 L 54.4 77.0 L 47.2 78.4 L 40.3 79.6 L 33.5 80.8 L 27.0 81.9 L 20.6 82.9 L 18.64082555770874 83.18905849456787 L 16.8 86.6 L 14.5 83.8 L 11.4 72.1 L 13.4 71.9 L 19.5 71.6 L 25.8 71.2 L 30.477819156646728 70.91649580001831 L 30.7 70.0 L 32.4 63.6 L 34.2 57.2 L 37.6 44.6 L 39.2 38.3 L 40.8 32.1 L 43.6 19.7 L 44.70750198364258 14.41806755065918 L 44.6 14.4 L 45.3 11.7 L 56.5 16.4 L 59.0 19.0 L 55.36506824493408 20.103461456298827 L 54.6 22.6 L 52.6 28.8 L 50.4 35.0 L 48.1 41.1 L 45.7 47.3 L 43.1 53.4 L 40.4 59.5 L 37.4 65.5 L 34.73255815505981 70.66279067993165 L 39.2 70.4 L 46.2 70.0 L 53.4 69.5 L 60.9 69.0 L 68.6 68.6 L 76.6 68.2 L 79.90893058776855 68.1596471786499 L 78.7 65.5 L 76.6 61.2 L 74.2 56.9 L 71.6 52.6 L 68.9 48.3 L 66.0 43.8 L 63.0 39.3 L 64.3 38.0 L 68.8 41.3 L 73.0 44.8 L 76.8 48.6 L 80.4 52.5 L 83.7 56.6 L 86.8 60.9 L 89.6 65.3 L 92.2 69.8 L 94.5 74.4 L 96.6 79.2 L 96.3 83.7 L 92.9 86.8 L 88.4 86.5 L 85.3 83.1 L 84.0 78.6 Z M 144.0 42.0 L 144.0 67.0 L 162.1 67.0 L 162.1 42.0 Z " />
</g>
</svg>
