<svg xmlns="http://www.w3.org/2000/svg" xmlns:xlink="http://www.w3.org/1999/xlink" version="1.1" baseProfile="full" viewBox="0 0 200 200" width="200" height="200">
<g fill="black">
<path d="M 153.3 171.3 L 149.9 167.5 L 148.00322580337524 165.4978494644165 L 139.4 167.0 L 127.0 169.0 L 114.7 170.7 L 102.5 172.4 L 90.6 173.9 L 78.8 175.4 L 67.2 176.8 L 55.8 178.2 L 44.5 179.5 L 37.51945943832398 180.32497301101685 L 35.7 183.6 L 33.5 180.8 L 30.4 169.1 L 32.4 168.9 L 43.5 168.2 L 54.8 167.5 L 64.6638593673706 166.89959115982055 L 65.7 165.0 L 68.1 160.7 L 70.5 156.5 L 75.1 148.1 L 77.3 143.9 L 79.4 139.8 L 81.4 135.6 L 83.3 131.4 L 84.71222705841065 128.10480346679688 L 84.7 128.1 L 84.8 127.9 L 85.1 127.2 L 85.14014873504638 127.21970262527466 L 85.7 126.1 L 95.9 132.5 L 97.7 135.7 L 93.83944492340088 135.96173257827758 L 93.4 136.7 L 88.0 144.9 L 85.1 148.8 L 82.1 152.7 L 78.9 156.6 L 75.7 160.3 L 72.2 163.9 L 69.23522453308105 166.62438831329345 L 78.0 166.1 L 89.8 165.5 L 101.8 164.8 L 114.1 164.2 L 126.5 163.6 L 139.1 163.2 L 145.70245323181152 163.14841833114625 L 142.4 160.1 L 138.2 156.5 L 133.9 152.9 L 129.3 149.4 L 124.5 145.8 L 119.5 142.2 L 120.2 140.6 L 126.2 142.5 L 132.0 144.8 L 137.4 147.4 L 142.6 150.3 L 147.6 153.4 L 152.3 156.7 L 156.8 160.2 L 161.0 163.9 L 165.0 167.8 L 168.8 171.9 L 170.0 176.3 L 167.8 180.3 L 163.4 181.5 L 159.4 179.3 L 156.5 175.3 Z M 70.5 137.0 L 59.5 142.5 L 59.5 101.0 L 48.5 101.0 L 48.5 132.0 L 37.5 137.5 L 37.5 126.0 L 15.0 126.0 L 15.0 122.0 L 37.5 122.0 L 37.5 101.0 L 13.0 101.0 L 13.0 97.0 L 37.5 97.0 L 37.5 78.0 L 15.0 78.0 L 15.0 74.0 L 37.5 74.0 L 43.0 69.0 L 53.5 78.0 L 48.5 81.5 L 48.5 97.0 L 59.5 97.0 L 59.5 67.5 L 70.5 73.0 L 89.0 73.0 L 89.0 54.0 L 69.0 54.0 L 61.0 58.0 L 61.0 18.0 L 73.0 20.0 L 76.0 22.0 L 73.0 23.8 L 73.0 50.0 L 89.0 50.0 L 89.0 12.0 L 101.0 14.0 L 104.0 16.0 L 101.0 17.8 L 101.0 50.0 L 120.0 50.0 L 120.0 18.0 L 132.0 20.0 L 135.0 22.0 L 132.0 23.8 L 132.0 53.0 L 120.0 59.0 L 120.0 54.0 L 101.0 54.0 L 101.0 73.0 L 120.5 73.0 L 126.0 68.0 L 136.5 77.0 L 131.5 80.5 L 131.5 97.0 L 141.5 97.0 L 141.5 68.5 L 152.5 74.0 L 164.8181818008423 74.0 L 173.0 65.0 L 183.0 74.0 L 183.0 78.0 L 152.5 78.0 L 152.5 97.0 L 175.5 97.0 L 180.0 91.0 L 186.0 97.0 L 186.0 101.0 L 152.5 101.0 L 152.5 122.0 L 167.7777777671814 122.0 L 174.0 115.0 L 182.0 122.0 L 182.0 126.0 L 152.5 126.0 L 152.5 133.0 L 141.5 138.5 L 141.5 101.0 L 131.5 101.0 L 131.5 125.0 L 120.5 130.5 L 120.5 125.0 L 70.5 125.0 Z M 70.5 101.0 L 70.5 121.0 L 89.0 121.0 L 89.0 101.0 Z M 101.0 101.0 L 101.0 121.0 L 120.5 121.0 L 120.5 101.0 Z M 70.5 77.0 L 70.5 97.0 L 89.0 97.0 L 89.0 77.0 Z M 101.0 77.0 L 101.0 97.0 L 120.5 97.0 L 120.5 77.0 Z " />
</g>
</svg>
