<svg xmlns="http://www.w3.org/2000/svg" xmlns:xlink="http://www.w3.org/1999/xlink" version="1.1" baseProfile="full" viewBox="0 0 200 200" width="200" height="200">
<g fill="black">
<path d="M 74.4 183.8 L 71.9 183.4 L 69.5 182.6 L 67.2 181.3 L 65.2 179.7 L 63.6 177.7 L 62.3 175.4 L 61.69770994186401 173.5931297302246 L 50.3 177.2 L 33.6 181.5 L 16.1 184.8 L 15.8 183.1 L 32.6 177.8 L 48.6 172.2 L 61.0 167.19072847366334 L 61.0 117.0 L 73.0 119.0 L 76.0 121.0 L 73.0 122.8 L 73.0 161.77746477127076 L 77.9 159.5 L 91.3 152.4 L 103.7 144.8 L 115.3 136.6 L 126.0 127.8 L 135.8 118.6 L 144.8 108.7 L 144.81836738586426 108.71632652282715 L 145.2 108.3 L 153.8 116.7 L 154.7 120.2 L 151.01176471710204 119.48823528289795 L 143.8 126.7 L 132.9 136.1 L 121.2 144.7 L 108.6 152.6 L 95.3 159.9 L 81.1 166.4 L 73.06793994903565 169.50572986602782 L 73.2 170.1 L 73.5 171.0 L 73.9 171.4 L 74.8 171.7 L 75.7 171.9 L 77.0 172.0 L 140.0 172.0 L 146.0 147.0 L 148.0 147.0 L 146.0 172.0 L 149.6 174.4 L 152.0 178.0 L 149.6 181.6 L 146.0 184.0 L 77.0 184.0 Z M 169.7 156.7 L 168.5 153.6 L 167.1 150.5 L 165.3 147.4 L 163.3 144.2 L 161.0 141.0 L 158.4 137.8 L 155.5 134.5 L 152.3 131.3 L 153.3 129.8 L 157.4 132.0 L 161.4 134.3 L 165.1 136.8 L 168.5 139.5 L 171.6 142.4 L 174.4 145.4 L 176.9 148.7 L 179.2 152.1 L 181.2 155.6 L 182.8 159.4 L 182.3 163.9 L 178.8 166.8 L 174.3 166.3 L 171.3 162.8 L 170.7 159.7 Z M 19.6 163.8 L 18.4 159.4 L 20.6 155.4 L 23.6 153.4 L 26.4 151.2 L 29.0 148.7 L 31.6 146.1 L 34.0 143.1 L 36.4 140.0 L 38.6 136.5 L 40.8 132.9 L 42.9 128.9 L 44.8 124.7 L 46.6 125.1 L 46.0 129.9 L 45.3 134.5 L 44.1 139.0 L 42.7 143.2 L 40.9 147.3 L 38.9 151.2 L 36.6 154.9 L 34.0 158.5 L 31.1 161.8 L 28.0 164.8 L 23.6 166.0 Z M 98.0 123.9 L 96.1 121.4 L 94.0 118.9 L 91.8 116.5 L 89.5 114.2 L 87.0 111.9 L 84.3 109.6 L 81.6 107.2 L 78.5 105.2 L 79.2 103.5 L 82.9 104.7 L 86.5 105.7 L 90.0 107.1 L 93.4 108.6 L 96.6 110.4 L 99.7 112.3 L 102.7 114.5 L 105.6 116.8 L 108.3 119.3 L 111.0 121.9 L 112.0 126.4 L 109.8 130.4 L 105.3 131.4 L 101.4 129.2 L 99.7 126.5 Z M 173.5 95.4 L 171.71475410461426 92.82131147384644 L 165.4 94.4 L 152.6 97.0 L 146.2 98.2 L 139.7 99.4 L 120.2 102.7 L 117.69090909957886 103.11818180084228 L 116.0 106.5 L 113.6 103.8 L 110.3 92.1 L 112.3 91.8 L 128.57159337997436 90.81384286880493 L 128.8 90.2 L 130.5 85.9 L 132.2 81.7 L 134.0 77.5 L 135.7 73.4 L 137.4 69.2 L 139.2 65.1 L 140.8 60.9 L 142.5 56.8 L 143.75005540847778 53.51860466003418 L 143.7 53.5 L 144.07241382598878 52.67241382598877 L 144.1 52.6 L 144.10413036346435 52.601932525634766 L 144.6 51.5 L 155.0 57.7 L 156.8 60.8 L 152.9909257888794 61.19404220581055 L 150.4 65.7 L 148.0 69.6 L 145.5 73.5 L 143.0 77.3 L 140.4 81.1 L 137.7 84.8 L 134.8 88.5 L 133.05011596679688 90.54153127670288 L 138.6 90.2 L 145.2 89.8 L 151.7 89.5 L 158.3 89.2 L 164.8 89.0 L 168.9646273612976 89.06407117843628 L 167.5 87.2 L 165.1 84.3 L 162.5 81.4 L 159.6 78.4 L 156.6 75.2 L 153.3 72.1 L 154.3 70.6 L 158.4 72.7 L 162.4 74.7 L 166.2 76.9 L 169.7 79.1 L 173.0 81.5 L 176.1 83.8 L 178.9 86.3 L 181.6 88.8 L 184.1 91.4 L 186.4 94.1 L 187.1 98.6 L 184.6 102.4 L 180.1 103.1 L 176.3 100.6 L 175.0 98.1 Z M 158.9 48.4 L 155.6 45.4 L 152.7362461090088 43.0930871963501 L 142.3 44.3 L 128.0 45.8 L 114.1 47.1 L 100.6 48.2 L 87.6 49.3 L 75.1 50.2 L 62.9 51.1 L 51.41142854690552 51.983736228942874 L 61.0 57.7 L 62.8 60.8 L 58.990925788879395 61.19404220581055 L 56.4 65.7 L 54.0 69.6 L 51.5 73.5 L 49.0 77.3 L 46.4 81.1 L 43.7 84.8 L 40.8 88.5 L 39.523076915740965 89.98974361419678 L 40.6 89.9 L 46.8 89.3 L 53.1 88.8 L 59.6 88.3 L 66.2 87.8 L 72.9 87.5 L 73.13229875564575 87.49326667785644 L 71.8 85.6 L 69.7 83.0 L 67.4 80.3 L 64.9 77.6 L 62.3 74.7 L 59.3 72.1 L 60.3 70.5 L 63.9 72.4 L 67.6 74.1 L 71.0 75.9 L 74.2 77.9 L 77.2 80.1 L 80.1 82.3 L 82.8 84.6 L 85.2 87.1 L 87.5 89.7 L 89.6 92.3 L 90.2 96.9 L 87.5 100.5 L 82.9 101.1 L 79.3 98.3 L 78.2 95.9 L 76.9 93.4 L 75.4 90.8 L 75.2856502532959 90.63183860778808 L 73.5 91.2 L 67.0 93.1 L 60.6 94.8 L 54.3 96.3 L 48.1 97.7 L 42.0 99.1 L 36.0 100.3 L 30.1 101.5 L 24.4 102.7 L 22.810576915740967 102.97884616851806 L 21.1 106.4 L 18.7 103.7 L 15.2 92.1 L 17.1 91.8 L 22.8 91.4 L 28.6 90.9 L 34.729599952697754 90.38920001983642 L 34.8 90.2 L 36.5 85.9 L 38.2 81.7 L 40.0 77.5 L 41.7 73.4 L 43.4 69.2 L 45.2 65.1 L 46.8 60.9 L 48.5 56.8 L 49.750055408477785 53.51860466003418 L 49.7 53.5 L 50.07241382598877 52.67241382598877 L 50.1 52.6 L 50.10413036346436 52.601932525634766 L 50.351125431060794 52.053054618835446 L 40.0 52.7 L 33.30164852142334 53.13415241241455 L 31.3 56.4 L 29.2 53.4 L 26.7 41.5 L 28.7 41.4 L 39.6 41.4 L 50.8 41.2 L 62.096551704406735 41.10344829559326 L 66.2 37.0 L 69.9 33.4 L 73.5 29.9 L 76.8 26.5 L 80.0 23.2 L 83.1 20.1 L 85.9 17.0 L 88.5 14.0 L 90.27230768203735 11.858461570739745 L 90.2 11.8 L 91.2 10.7 L 99.6 19.4 L 100.4 22.9 L 96.58141088485718 22.029093742370605 L 96.5 22.1 L 93.2 24.7 L 89.7 27.5 L 86.1 30.2 L 82.2 32.9 L 78.1 35.7 L 73.8 38.4 L 69.39418287277222 41.04349031448364 L 74.7 41.0 L 87.3 40.8 L 100.3 40.7 L 113.8 40.5 L 142.1 40.5 L 149.534259223938 40.65069446563721 L 148.0 39.5 L 143.7 36.6 L 139.1 33.7 L 134.2 30.7 L 129.0 27.6 L 123.6 24.4 L 124.2 22.7 L 130.5 24.1 L 136.4 25.8 L 142.0 27.8 L 147.3 29.9 L 152.3 32.2 L 157.0 34.7 L 161.5 37.3 L 165.7 40.0 L 169.6 42.9 L 173.2 46.0 L 174.8 50.3 L 173.0 54.5 L 168.8 56.1 L 164.6 54.4 L 161.9 51.4 Z " />
</g>
</svg>
