<svg xmlns="http://www.w3.org/2000/svg" xmlns:xlink="http://www.w3.org/1999/xlink" version="1.1" baseProfile="full" viewBox="0 0 200 200" width="200" height="200">
<g fill="black">
<path d="M 50.0 126.8 L 79.0 126.8 L 85.0 121.8 L 96.0 130.8 L 91.0 134.8 L 91.0 171.7 L 79.0 177.7 L 79.0 165.7 L 50.0 165.7 L 50.0 177.7 L 38.0 183.7 L 38.0 120.8 Z M 138.0 163.9 L 148.0 163.9 L 149.2 163.8 L 150.1 163.6 L 150.7 163.5 L 151.0 163.3 L 151.4 162.9 L 151.7 162.0 L 151.9 161.1 L 152.0 159.9 L 152.0 130.8 L 120.0 130.8 L 120.0 185.4 L 108.0 191.4 L 108.0 120.8 L 120.0 126.8 L 152.0 126.8 L 158.0 121.8 L 169.0 130.8 L 164.0 134.8 L 164.0 159.9 L 163.8 162.4 L 163.4 164.9 L 162.6 167.3 L 161.3 169.6 L 159.7 171.6 L 157.7 173.3 L 155.4 174.5 L 153.0 175.3 L 150.5 175.7 L 148.0 175.9 L 148.0 169.9 L 138.0 166.9 Z M 50.0 130.8 L 50.0 161.7 L 79.0 161.7 L 79.0 130.8 Z M 161.8 116.4 L 152.9 112.7 L 144.5 108.7 L 136.3 104.3 L 135.72844829559327 103.95560340881347 L 142.0 109.6 L 142.0 113.6 L 62.0 113.6 L 62.0 109.6 L 123.81818180084228 109.6 L 131.3486445426941 101.3164909362793 L 128.5 99.6 L 121.0 94.5 L 113.9 89.0 L 107.2 83.1 L 103.69562950134278 79.42328338623047 L 99.7 82.9 L 91.6 89.3 L 83.1 95.4 L 74.1 101.2 L 64.7 106.7 L 54.9 111.9 L 44.7 116.7 L 34.0 121.3 L 22.9 125.3 L 11.3 128.9 L 10.6 127.2 L 21.4 121.8 L 31.8 116.4 L 41.7 110.9 L 51.2 105.3 L 60.3 99.5 L 69.0 93.5 L 77.1 87.3 L 84.9 80.9 L 92.2 74.4 L 98.34769306182861 68.34140386581421 L 98.3 68.3 L 99.3 67.4 L 107.4 76.2 L 107.87547168731689 78.64528303146362 L 109.8 79.8 L 117.2 84.2 L 124.8 88.4 L 132.6 92.3 L 140.5 96.0 L 148.6 99.4 L 157.0 102.5 L 165.7 105.3 L 174.5 107.8 L 183.6 110.1 L 192.0 112.2 L 180.3 122.8 L 170.9 119.8 Z M 83.9 55.8 L 82.4 51.9 L 81.09996976852418 48.91757774353027 L 77.6 50.1 L 70.5 52.4 L 63.6 54.5 L 56.9 56.4 L 50.4 58.3 L 44.1 60.1 L 38.1 61.8 L 32.4 63.4 L 26.8 65.0 L 25.57094259262085 65.37103624343872 L 24.2 69.1 L 21.5 66.6 L 16.8 55.4 L 18.8 54.9 L 24.2 54.0 L 30.0 53.0 L 32.45833330154419 52.58333330154419 L 33.3 50.9 L 35.4 46.6 L 39.6 38.4 L 41.6 34.4 L 43.5 30.5 L 45.3 26.6 L 47.0 22.8 L 48.6 19.0 L 49.73873071670532 16.115215587615968 L 49.7 16.1 L 50.06428575515747 15.290476226806641 L 50.1 15.2 L 50.10409555435181 15.202009868621825 L 50.6 14.1 L 60.9 20.5 L 62.7 23.6 L 58.8599214553833 23.93104124069214 L 58.7 24.2 L 56.3 27.8 L 53.9 31.5 L 51.3 35.2 L 45.7 42.4 L 42.7 46.0 L 39.5 49.5 L 37.2115385055542 51.7884614944458 L 42.1 51.0 L 48.6 50.0 L 55.3 49.0 L 62.2 48.1 L 69.4 47.2 L 76.9 46.4 L 79.85132627487182 46.20835542678833 L 78.9 44.2 L 77.0 40.5 L 72.8 33.3 L 70.5 29.6 L 68.1 26.1 L 69.3 24.8 L 73.0 27.3 L 76.5 30.0 L 79.8 33.1 L 82.9 36.3 L 85.8 39.8 L 88.6 43.5 L 91.1 47.3 L 93.5 51.4 L 95.8 55.6 L 97.8 60.0 L 97.6 64.6 L 94.2 67.7 L 89.7 67.4 L 86.5 64.1 L 85.3 59.9 Z M 169.5 54.0 L 168.0 50.1 L 166.65038166046142 47.08320608139038 L 163.0 48.3 L 155.7 50.6 L 148.7 52.6 L 141.8 54.5 L 135.2 56.4 L 128.8 58.1 L 122.7 59.8 L 116.8 61.5 L 111.2 63.1 L 109.77842779159546 63.49488115310669 L 108.4 67.1 L 105.8 64.6 L 101.2 53.3 L 103.1 52.9 L 108.7 52.0 L 114.5 51.0 L 117.05419979095458 50.58127870559692 L 117.9 49.0 L 120.0 44.8 L 122.2 40.7 L 126.4 32.7 L 128.3 28.9 L 130.2 25.0 L 131.9 21.2 L 133.6 17.5 L 134.73017568588256 14.712233352661134 L 134.7 14.7 L 134.88571424484252 14.32857141494751 L 135.1 13.8 L 135.1399253845215 13.820149230957032 L 135.7 12.7 L 145.8 19.2 L 147.6 22.4 L 143.67919998168946 22.670400047302245 L 143.6 22.8 L 141.2 26.4 L 138.7 30.0 L 136.1 33.6 L 133.3 37.2 L 130.4 40.8 L 127.3 44.3 L 124.1 47.7 L 121.953515625 49.78515625 L 126.9 49.0 L 133.5 48.1 L 140.3 47.1 L 147.4 46.2 L 154.7 45.3 L 162.3 44.6 L 165.35337419509887 44.40674848556519 L 164.4 42.5 L 162.5 38.9 L 160.4 35.3 L 158.1 31.7 L 155.9 28.1 L 153.3 24.6 L 154.6 23.3 L 158.2 25.8 L 161.8 28.4 L 165.2 31.4 L 168.3 34.6 L 171.3 38.0 L 174.0 41.6 L 176.7 45.4 L 179.1 49.4 L 181.4 53.6 L 183.5 57.9 L 183.3 62.4 L 180.0 65.6 L 175.4 65.4 L 172.2 62.1 L 171.0 58.0 Z " />
</g>
</svg>
