<svg xmlns="http://www.w3.org/2000/svg" xmlns:xlink="http://www.w3.org/1999/xlink" version="1.1" baseProfile="full" viewBox="0 0 200 200" width="200" height="200">
<g fill="black">
<path d="M 104.4 135.3 L 107.2 137.3 L 104.4 139.05 L 104.4 165.7 L 93.4 171.2 L 93.4 165.7 L 66.5 165.7 L 66.5 183.0 L 54.5 189.0 L 54.5 165.7 L 27.5 165.7 L 27.5 172.7 L 16.5 178.2 L 16.5 133.3 L 27.5 135.3 L 30.2 137.3 L 27.5 139.02340421676635 L 27.5 161.7 L 93.4 161.7 L 93.4 133.3 Z M 165.5 172.3 L 159.5 164.7 L 154.2 156.5 L 153.58339414596557 155.3070017814636 L 150.3 159.4 L 142.1 167.8 L 133.0 175.3 L 123.1 182.0 L 112.3 187.7 L 111.4 186.2 L 120.9 178.9 L 129.6 171.2 L 137.4 163.2 L 144.4 154.6 L 149.4612244606018 147.25306119918824 L 145.8 138.1 L 142.7 128.0 L 140.3 117.3 L 138.9 106.0 L 138.35 95.0 L 136.9956521987915 95.0 L 134.7 107.8 L 130.5 124.8 L 125.5 140.3 L 119.5 154.4 L 112.7 167.1 L 104.8 178.2 L 96.1 187.6 L 94.8 186.3 L 101.7 176.0 L 108.0 164.5 L 113.5 151.8 L 118.3 137.9 L 122.3 122.6 L 125.6 106.0 L 128.1 88.1 L 129.8 68.8 L 130.1375 61.0 L 109.5 61.0 L 109.5 57.0 L 130.31057691574097 57.0 L 130.7 48.0 L 130.8 26.0 L 130.8 15.0 L 142.8 17.0 L 145.8 19.0 L 142.8 20.8 L 142.8 26.0 L 142.0 48.5 L 141.39573459625245 57.0 L 167.0 57.0 L 177.0 47.0 L 189.0 57.0 L 189.0 61.0 L 141.11137437820435 61.0 L 140.5 69.6 L 138.0 89.4 L 137.71304349899293 91.0 L 169.0 91.0 L 175.0 86.0 L 186.0 95.0 L 181.0 98.0 L 179.8945086479187 98.46062135696411 L 178.1 106.6 L 174.3 118.6 L 169.7 129.9 L 164.1 140.5 L 160.02648105621338 146.64161310195922 L 162.8 151.0 L 168.2 157.9 L 174.1 164.1 L 180.5 169.7 L 187.3 174.5 L 190.8 176.9 L 179.8 185.4 L 172.3 179.2 Z M 46.0 127.8 L 74.9 127.8 L 80.4 122.8 L 90.9 131.8 L 85.9 135.3 L 85.9 150.1 L 74.9 155.6 L 74.9 150.1 L 46.0 150.1 L 35.0 155.6 L 35.0 122.3 Z M 46.0 131.8 L 46.0 146.1 L 74.9 146.1 L 74.9 131.8 Z M 140.40526313781737 95.0 L 143.0 105.2 L 146.1 115.9 L 149.6 125.8 L 153.5 134.9 L 154.9641309738159 137.69515905380248 L 155.9 136.0 L 160.4 125.9 L 164.1 115.2 L 167.0 103.9 L 168.57058820724487 95.0 Z M 106.1 75.3 L 101.1 78.3 L 101.1 118.9 L 91.1 123.9 L 91.1 116.9 L 29.8 116.9 L 29.8 119.9 L 19.8 124.9 L 19.8 66.3 L 29.8 71.3 L 91.1 71.3 L 96.1 66.3 Z M 29.8 75.3 L 29.8 112.9 L 91.1 112.9 L 91.1 75.3 Z M 88.8 87.2 L 83.8 90.2 L 83.8 103.7 L 73.8 108.7 L 73.8 103.7 L 47.1 103.7 L 37.1 108.7 L 37.1 78.2 L 47.1 83.2 L 73.8 83.2 L 78.8 78.2 Z M 47.1 87.2 L 47.1 99.7 L 73.8 99.7 L 73.8 87.2 Z M 43.9 41.4 L 77.0 41.4 L 83.0 36.4 L 94.0 45.4 L 89.0 49.4 L 89.0 61.2 L 77.0 67.2 L 77.0 61.2 L 43.9 61.2 L 31.9 67.2 L 31.9 35.4 Z M 43.9 45.4 L 43.9 57.2 L 77.0 57.2 L 77.0 45.4 Z M 13.3 28.6 L 54.5 28.6 L 54.5 13.0 L 66.5 15.0 L 69.5 17.0 L 66.5 18.8 L 66.5 28.6 L 89.41818180084229 28.6 L 97.6 19.6 L 107.6 28.6 L 107.6 32.6 L 13.3 32.6 Z " />
</g>
</svg>
