<svg xmlns="http://www.w3.org/2000/svg" xmlns:xlink="http://www.w3.org/1999/xlink" version="1.1" baseProfile="full" viewBox="0 0 200 200" width="200" height="200">
<g fill="black">
<path d="M 22.1 149.9 L 26.0 149.58032789230347 L 26.0 123.0 L 38.0 125.0 L 41.0 127.0 L 38.0 128.8 L 38.0 148.6 L 41.4 148.3 L 48.6 147.8 L 56.2 147.2 L 64.1 146.6 L 72.4 146.1 L 72.92148151397706 146.070370388031 L 73.0 145.825 L 73.0 111.0 L 85.0 113.0 L 88.0 115.0 L 85.0 116.8 L 85.0 145.43296699523927 L 90.3 145.2 L 99.8 145.1 L 100.1 146.8 L 90.8 149.0 L 83.92125339508057 150.45217981338502 L 81.9 155.0 L 78.4 160.7 L 74.0 166.0 L 69.0 170.7 L 63.2 174.9 L 56.7 178.5 L 49.6 181.7 L 41.8 184.3 L 33.3 186.4 L 24.2 187.8 L 23.7 186.1 L 32.2 182.8 L 39.9 179.3 L 46.8 175.8 L 52.9 172.0 L 58.2 168.0 L 62.7 163.8 L 66.4 159.5 L 69.4 154.9 L 70.19280414581299 153.20628213882446 L 65.1 154.2 L 57.2 155.6 L 49.8 157.0 L 42.7 158.3 L 36.0 159.5 L 29.7 160.7 L 27.799210834503175 161.04847803115845 L 26.1 164.5 L 23.7 161.8 L 20.2 150.1 Z M 154.7 178.4 L 145.8 173.3 L 137.9 167.5 L 135.3446922302246 165.09282598495483 L 129.0 169.1 L 118.3 174.2 L 106.6 178.4 L 93.9 181.6 L 80.1 183.8 L 79.8 182.1 L 92.9 178.0 L 104.8 173.3 L 115.5 168.2 L 125.0 162.6 L 129.51540126800538 159.21344900131226 L 125.1 153.9 L 120.4 146.0 L 116.8 137.6 L 114.4 128.6 L 113.31368417739868 120.0 L 97.0 120.0 L 97.0 116.0 L 158.0 116.0 L 164.0 111.0 L 175.0 120.0 L 170.0 123.0 L 168.10704221725464 123.7887324333191 L 165.8 130.0 L 160.8 139.6 L 154.5 148.3 L 147.1 156.1 L 143.55916051864625 158.98207864761352 L 144.1 159.4 L 151.4 163.8 L 159.6 167.7 L 168.7 170.9 L 178.6 173.6 L 187.0 175.7 L 175.3 186.3 L 164.5 182.7 Z M 115.46046514511109 120.0 L 118.3 127.4 L 122.2 135.2 L 126.6 142.3 L 131.7 148.7 L 136.49818181991577 153.33272724151612 L 140.5 149.5 L 146.5 142.2 L 151.5 134.2 L 155.3 125.6 L 157.06521739959717 120.0 Z M 106.0 14.0 L 109.0 16.0 L 106.0 17.8 L 106.0 34.0 L 164.0 34.0 L 174.0 24.0 L 186.0 34.0 L 186.0 38.0 L 106.0 38.0 L 106.0 54.0 L 151.0 54.0 L 157.0 49.0 L 168.0 58.0 L 163.0 62.0 L 163.0 91.0 L 151.0 97.0 L 151.0 87.0 L 106.0 87.0 L 106.0 108.0 L 94.0 114.0 L 94.0 87.0 L 47.0 87.0 L 47.0 94.0 L 35.0 100.0 L 35.0 48.0 L 47.0 54.0 L 94.0 54.0 L 94.0 38.0 L 14.0 38.0 L 14.0 34.0 L 94.0 34.0 L 94.0 12.0 Z M 47.0 58.0 L 47.0 83.0 L 94.0 83.0 L 94.0 58.0 Z M 106.0 58.0 L 106.0 83.0 L 151.0 83.0 L 151.0 58.0 Z " />
</g>
</svg>
