<svg xmlns="http://www.w3.org/2000/svg" xmlns:xlink="http://www.w3.org/1999/xlink" version="1.1" baseProfile="full" viewBox="0 0 200 200" width="200" height="200">
<g fill="black">
<path d="M 159.4 181.9 L 150.2 178.4 L 141.8 174.4 L 135.15718898773193 170.56760902404784 L 126.6 174.3 L 116.4 177.9 L 105.2 181.0 L 93.1 183.5 L 80.1 185.4 L 79.8 183.6 L 92.2 179.8 L 103.7 175.9 L 114.1 171.7 L 123.5 167.4 L 127.38740453720092 165.27118320465087 L 127.0 165.0 L 120.8 159.5 L 115.5 153.6 L 111.1 147.2 L 108.05 141.1 L 94.0 141.1 L 94.0 137.1 L 158.0 137.1 L 158.22247190475463 136.91460676193236 L 158.7 136.1 L 158.99863481521606 136.26780433654784 L 164.0 132.1 L 175.0 141.1 L 170.0 144.1 L 166.71489362716676 145.4687943458557 L 164.4 148.7 L 158.7 154.9 L 152.0 160.5 L 145.59906368255616 164.8795880317688 L 146.1 165.1 L 154.1 168.1 L 162.8 170.6 L 172.1 172.8 L 182.1 174.5 L 191.6 176.3 L 179.8 187.5 L 169.2 184.9 Z M 81.0 133.2 L 84.0 135.2 L 81.0 137.0 L 81.0 154.0 L 80.68479661941528 155.57601709365844 L 89.9 154.8 L 99.8 154.3 L 100.1 156.0 L 90.5 158.6 L 81.2 160.9 L 79.08714084625244 161.37479982376098 L 77.0 165.4 L 72.9 170.0 L 67.6 173.8 L 61.3 176.9 L 53.9 179.6 L 45.5 181.8 L 35.8 183.5 L 25.0 184.7 L 13.1 185.4 L 12.8 183.6 L 24.4 181.0 L 34.7 178.2 L 43.7 175.4 L 51.3 172.4 L 57.6 169.3 L 62.4 166.1 L 63.82653942108154 164.71541767120362 L 55.8 166.4 L 48.2 167.9 L 41.0 169.4 L 34.1 170.7 L 27.7 171.9 L 25.828440380096435 172.24311923980713 L 24.1 175.7 L 21.7 173.0 L 18.2 161.4 L 20.1 161.1 L 26.2 160.6 L 30.0 160.303125 L 30.0 135.8 L 42.0 137.8 L 45.0 139.8 L 42.0 141.6 L 42.0 159.16027393341065 L 46.8 158.7 L 54.6 158.0 L 62.7 157.2 L 68.9095736503601 156.62236528396608 L 69.0 154.0 L 69.0 131.2 Z M 110.86792449951172 141.1 L 114.4 144.7 L 119.7 149.5 L 125.5 154.0 L 131.8 158.1 L 135.75116968154907 160.24990119934083 L 139.3 157.9 L 145.7 152.8 L 151.0 147.4 L 155.3 141.9 L 155.76896553039552 141.1 Z M 33.7 133.4 L 33.7 89.9 L 45.7 95.9 L 154.3 95.9 L 160.3 90.9 L 171.3 99.9 L 166.3 103.9 L 166.3 127.4 L 154.3 133.4 L 154.3 127.4 L 45.7 127.4 Z M 45.7 113.4 L 45.7 123.4 L 94.0 123.4 L 94.0 113.4 Z M 106.0 113.4 L 106.0 123.4 L 154.3 123.4 L 154.3 113.4 Z M 45.7 99.9 L 45.7 109.4 L 94.0 109.4 L 94.0 99.9 Z M 106.0 99.9 L 106.0 109.4 L 154.3 109.4 L 154.3 99.9 Z M 65.4 72.0 L 134.6 72.0 L 140.6 67.0 L 151.6 76.0 L 146.6 80.0 L 146.6 89.6 L 134.6 95.6 L 134.6 89.6 L 65.4 89.6 L 53.4 95.6 L 53.4 66.0 Z M 65.4 76.0 L 65.4 85.6 L 134.6 85.6 L 134.6 76.0 Z M 157.3 57.4 L 149.5 55.3 L 147.44444446563722 54.68888893127441 L 155.0 61.3 L 155.0 65.3 L 45.0 65.3 L 45.0 61.3 L 140.7777777671814 61.3 L 146.81947746276856 54.50308790206909 L 142.1 53.1 L 135.1 50.7 L 128.5 48.1 L 122.3 45.3 L 116.5 42.3 L 111.2 39.0 L 107.33333330154419 36.1 L 106.0 36.1 L 106.0 53.7 L 94.0 59.7 L 94.0 41.88666667938232 L 93.2 42.3 L 86.8 45.2 L 80.0 47.9 L 72.6 50.4 L 64.8 52.7 L 56.4 54.8 L 47.6 56.6 L 38.3 58.2 L 28.5 59.4 L 18.1 60.3 L 17.8 58.5 L 27.7 55.7 L 37.1 53.0 L 46.0 50.2 L 54.3 47.5 L 62.1 44.6 L 69.4 41.7 L 76.1 38.6 L 81.01935482025146 36.1 L 18.0 36.1 L 18.0 32.1 L 68.03913040161133 32.1 L 66.3 31.1 L 65.8 29.8 L 65.1 28.4 L 64.0 26.8 L 62.7 25.2 L 61.2 23.5 L 59.3 21.7 L 57.3 19.8 L 55.0 17.9 L 52.5 15.8 L 49.5 14.1 L 50.2 12.4 L 53.5 13.6 L 56.8 14.4 L 59.8 15.3 L 62.6 16.3 L 65.3 17.3 L 67.8 18.5 L 70.1 19.7 L 72.2 21.0 L 74.2 22.4 L 76.0 24.0 L 77.0 28.5 L 74.87692308425903 32.1 L 94.0 32.1 L 94.0 12.5 L 106.0 14.5 L 109.0 16.5 L 106.0 18.3 L 106.0 32.1 L 120.98000001907349 32.1 L 120.5 31.3 L 123.0 29.3 L 125.3 27.0 L 127.6 24.8 L 129.7 22.7 L 131.9 20.7 L 135.9 16.7 L 137.8 14.7 L 140.71619472503662 11.621794509887696 L 140.6 11.5 L 141.5 10.8 L 148.9 20.2 L 149.3 23.8 L 145.22047243118286 22.316535472869873 L 144.0 23.0 L 141.5 24.3 L 136.1 26.9 L 133.3 28.2 L 130.5 29.4 L 127.5 30.5 L 124.4 31.5 L 123.01538457870484 32.1 L 160.0 32.1 L 170.0 22.1 L 182.0 32.1 L 182.0 36.1 L 115.97058820724487 36.1 L 118.7 36.9 L 124.8 38.5 L 131.1 40.2 L 137.7 41.7 L 144.7 43.2 L 152.0 44.6 L 159.7 45.9 L 167.6 47.0 L 176.0 48.1 L 185.8 49.7 L 173.9 61.2 L 165.4 59.4 Z " />
</g>
</svg>
