<svg xmlns="http://www.w3.org/2000/svg" xmlns:xlink="http://www.w3.org/1999/xlink" version="1.1" baseProfile="full" viewBox="0 0 200 200" width="200" height="200">
<g fill="black">
<path d="M 183.0 96.2 L 183.0 100.2 L 116.0 100.2 L 116.0 115.4 L 154.0 115.4 L 160.0 110.4 L 171.0 119.4 L 166.0 123.4 L 166.0 181.0 L 154.0 187.0 L 154.0 177.0 L 46.0 177.0 L 46.0 184.0 L 34.0 190.0 L 34.0 109.4 L 46.0 115.4 L 74.09333333969116 115.4 L 74.0 114.0 L 74.25386667251587 113.98079996109009 L 74.0 113.6 L 74.0 100.2 L 17.0 100.2 L 17.0 96.2 L 161.0 96.2 L 170.86137933731078 86.33862066268921 L 168.5 85.5 L 158.6 81.1 L 149.5 76.1 L 141.0 70.4 L 135.29062099456786 65.65454206466674 L 127.1 71.0 L 116.8 76.5 L 105.5 81.4 L 93.3 85.5 L 80.2 88.8 L 79.7 87.1 L 92.0 81.9 L 103.3 76.5 L 113.7 70.7 L 123.0 64.6 L 129.11283779144287 59.812837791442874 L 126.4 57.1 L 120.3 49.5 L 115.1 41.3 L 110.8 32.6 L 107.78085107803345 24.0 L 94.0 24.0 L 94.0 20.0 L 158.0 20.0 L 164.0 15.0 L 175.0 24.0 L 170.0 27.0 L 167.5893095970154 28.004454326629638 L 164.9 33.5 L 159.3 42.3 L 152.7 50.5 L 145.1 57.9 L 143.19353313446044 59.44760255813598 L 146.8 61.9 L 154.9 66.4 L 163.5 70.4 L 172.8 73.8 L 182.7 76.6 L 190.8 78.9 L 179.2 89.3 L 171.39283390045165 86.52736158370972 Z M 46.0 159.7 L 46.0 173.0 L 154.0 173.0 L 154.0 159.7 Z M 117.6 144.1 L 115.4 143.9 L 113.2 143.4 L 111.1 142.6 L 109.1 141.3 L 107.4 139.6 L 106.0 137.6 L 105.0 135.4 L 104.3 133.0 L 104.0 130.4 L 104.0 119.4 L 85.5807017326355 119.4 L 84.5 125.0 L 82.4 130.3 L 79.5 135.0 L 75.7 139.0 L 71.3 142.3 L 66.2 145.0 L 60.4 147.0 L 54.1 148.3 L 47.1 149.0 L 46.8 147.2 L 53.1 144.8 L 58.5 142.2 L 63.1 139.4 L 66.8 136.4 L 69.7 133.2 L 71.8 129.9 L 73.2 126.4 L 74.1 122.6 L 74.25609760284424 119.4 L 46.0 119.4 L 46.0 155.7 L 154.0 155.7 L 154.0 119.4 L 116.0 119.4 L 116.0 130.4 L 115.8 131.7 L 115.7 132.7 L 115.7 134.1 L 115.8 134.6 L 116.0 135.1 L 116.5 135.6 L 117.3 136.1 L 118.5 136.6 L 120.0 136.9 L 140.5 136.9 L 144.0 131.9 L 146.0 131.9 L 144.0 136.9 L 146.1 138.3 L 147.5 140.4 L 146.1 142.5 L 144.0 143.9 L 120.0 143.9 Z M 85.78870964050293 115.4 L 104.0 115.4 L 104.0 100.2 L 86.0 100.2 L 86.0 113.6 L 85.86608695983887 113.8008695602417 Z M 81.0 13.0 L 84.0 15.0 L 81.0 16.8 L 81.0 44.0 L 80.44802751541138 47.76344861984253 L 89.7 46.4 L 99.7 45.1 L 100.2 46.8 L 90.6 50.1 L 81.4 53.1 L 79.07097015380859 53.788122463226316 L 77.4 58.4 L 73.5 64.7 L 68.3 70.2 L 61.9 74.9 L 54.4 79.0 L 45.8 82.4 L 36.1 85.2 L 25.2 87.4 L 13.1 88.8 L 12.8 87.1 L 24.3 83.7 L 34.5 80.1 L 43.3 76.3 L 50.8 72.3 L 57.0 68.0 L 61.8 63.5 L 65.3 58.9 L 65.89954957962036 57.591891860961915 L 64.1 58.1 L 56.1 60.3 L 48.4 62.3 L 41.2 64.2 L 34.4 65.8 L 27.9 67.4 L 25.951660537719725 67.82214021682739 L 24.4 71.3 L 21.9 68.7 L 18.0 57.2 L 20.0 56.9 L 25.9 56.1 L 30.0 55.59538459777832 L 30.0 18.0 L 42.0 20.0 L 45.0 22.0 L 42.0 23.8 L 42.0 53.89315071105957 L 46.6 53.2 L 54.3 52.0 L 62.5 50.7 L 68.57483930587769 49.71107263565064 L 68.7 49.2 L 69.0 44.0 L 69.0 11.0 Z M 110.16296300888061 24.0 L 114.4 30.6 L 120.0 38.0 L 125.9 44.9 L 132.3 51.2 L 135.7446177482605 53.9556941986084 L 138.7 51.2 L 145.0 44.0 L 150.4 36.3 L 154.8 28.2 L 156.6 24.0 Z " />
</g>
</svg>
