<svg xmlns="http://www.w3.org/2000/svg" xmlns:xlink="http://www.w3.org/1999/xlink" version="1.1" baseProfile="full" viewBox="0 0 200 200" width="200" height="200">
<g fill="black">
<path d="M 140.2 181.8 L 125.2 178.2 L 111.9 173.7 L 100.47958660125732 168.6135973930359 L 92.3 172.8 L 78.8 178.2 L 64.5 182.7 L 49.5 186.2 L 33.6 188.6 L 17.0 189.8 L 16.9 188.1 L 33.0 184.8 L 48.3 181.0 L 62.6 176.5 L 76.0 171.2 L 88.6 165.1 L 91.63958101272583 163.31817665100098 L 89.8 162.2 L 81.2 155.1 L 74.3 147.2 L 69.4 138.5 L 66.4 129.2 L 66.96666669845581 129.0 L 45.0 129.0 L 45.0 125.0 L 136.72399997711182 125.0 L 138.2 123.2 L 138.692972946167 123.58918914794921 L 143.0 120.0 L 154.0 129.0 L 149.0 132.0 L 144.9879895210266 133.67167100906372 L 138.3 141.0 L 128.0 150.4 L 116.9 158.8 L 110.97851581573487 162.53202781677246 L 115.3 164.1 L 128.0 167.5 L 142.2 170.2 L 158.0 172.1 L 175.4 173.4 L 186.4 174.1 L 174.5 186.5 L 156.6 184.6 Z M 68.34810123443603 129.0 L 73.0 136.5 L 78.9 143.5 L 85.9 149.7 L 94.3 155.2 L 100.3505256652832 158.19407453536988 L 111.0 150.7 L 120.9 142.4 L 130.0 133.2 L 133.44399995803832 129.0 Z M 153.9 119.1 L 145.3 116.5 L 137.3 113.5 L 130.0 110.2 L 123.4 106.5 L 117.5 102.5 L 112.4 98.0 L 108.1 93.1 L 105.2692307472229 88.5 L 101.78000001907348 88.5 L 101.5 89.2 L 96.5 96.3 L 89.9 102.3 L 81.8 107.4 L 72.2 111.6 L 61.2 115.0 L 48.7 117.5 L 34.6 119.2 L 19.0 120.0 L 18.9 118.2 L 34.1 115.4 L 47.6 112.3 L 59.3 108.7 L 69.3 104.6 L 77.6 100.1 L 84.0 95.1 L 88.8 89.9 L 89.6037036895752 88.5 L 16.0 88.5 L 16.0 84.5 L 91.9 84.5 L 93.6 78.7 L 94.0 72.4 L 94.0 66.4 L 58.65161294937134 66.4 L 57.2 67.9 L 54.0 70.8 L 50.5 73.6 L 46.7 76.2 L 42.6 78.6 L 38.1 80.8 L 33.4 83.0 L 32.5 81.4 L 36.3 78.1 L 39.7 74.8 L 42.8 71.5 L 45.7 68.3 L 48.2 65.2 L 50.4 62.1 L 52.3 59.0 L 53.8 56.0 L 55.1 53.1 L 55.61276416778564 51.39078617095947 L 52.8 51.6 L 40.9 52.4 L 33.178822135925294 52.923469638824464 L 31.2 56.1 L 29.1 53.2 L 26.8 41.3 L 28.7 41.2 L 40.4 41.1 L 52.3 40.9 L 64.20935201644897 40.7031512260437 L 64.3 40.6 L 66.9 37.3 L 69.5 34.1 L 72.1 31.0 L 74.4 27.9 L 76.7 24.9 L 78.9 21.9 L 80.9 18.9 L 82.8 16.0 L 83.9671091079712 13.940395736694336 L 83.9 13.9 L 84.2960000038147 13.360000038146973 L 84.5 13.0 L 84.53904294967651 13.02857780456543 L 85.0 12.4 L 94.2 20.1 L 95.4 23.5 L 91.44126987457275 23.158730125427248 L 89.0 25.6 L 86.2 28.3 L 80.2 33.5 L 73.6 38.5 L 70.38500547409058 40.55402421951294 L 76.7 40.4 L 89.2 40.0 L 101.9 39.6 L 114.8 39.3 L 127.9 38.9 L 141.3 38.6 L 144.85737352371217 38.57384281158447 L 140.5 35.9 L 135.9 33.2 L 131.0 30.5 L 125.9 27.7 L 120.6 24.8 L 121.2 23.1 L 127.2 24.1 L 133.0 25.5 L 138.5 27.1 L 143.8 29.0 L 148.9 31.1 L 153.7 33.3 L 158.3 35.8 L 162.7 38.3 L 166.8 41.1 L 170.7 44.0 L 172.6 48.2 L 171.2 52.5 L 167.0 54.4 L 162.7 53.0 L 159.7 50.0 L 156.4 47.0 L 152.8 44.2 L 149.0 41.3 L 148.92676935195922 41.2517749786377 L 141.6 42.4 L 128.4 44.2 L 115.3 45.8 L 102.4 47.2 L 89.7 48.5 L 77.2 49.6 L 64.9 50.7 L 60.562092304229736 51.02265424728394 L 67.1 54.6 L 69.2 57.6 L 65.07263460159302 58.240453243255615 L 62.8 61.6 L 62.15 62.4 L 141.0 62.4 L 151.0 52.4 L 163.0 62.4 L 163.0 66.4 L 106.0 66.4 L 106.0 72.4 L 104.7 81.2 L 103.38000001907349 84.5 L 162.0 84.5 L 172.0 74.5 L 184.0 84.5 L 184.0 88.5 L 108.71714286804199 88.5 L 111.0 90.2 L 116.0 93.4 L 121.4 96.4 L 127.3 99.1 L 133.7 101.6 L 140.7 103.9 L 148.3 105.9 L 156.5 107.6 L 165.4 109.0 L 174.8 110.1 L 184.9 111.5 L 173.1 123.2 L 163.2 121.3 Z " />
</g>
</svg>
