<svg xmlns="http://www.w3.org/2000/svg" xmlns:xlink="http://www.w3.org/1999/xlink" version="1.1" baseProfile="full" viewBox="0 0 200 200" width="200" height="200">
<g fill="black">
<path d="M 159.0 184.2 L 149.8 180.0 L 141.4 175.1 L 135.2721670150757 170.85765409469604 L 126.9 175.4 L 116.6 180.0 L 105.4 183.9 L 93.2 187.1 L 80.2 189.7 L 79.7 187.9 L 92.1 183.5 L 103.5 178.9 L 113.9 174.0 L 123.3 168.8 L 128.4689076423645 165.3125442504883 L 126.7 163.8 L 120.5 157.3 L 115.2 150.2 L 110.9 142.6 L 107.88170728683471 135.1 L 94.0 135.1 L 94.0 131.1 L 158.0 131.1 L 158.43190660476685 130.74007778167726 L 158.5 130.6 L 158.56449699401855 130.62958583831787 L 164.0 126.1 L 175.0 135.1 L 170.0 138.1 L 167.29552240371703 139.2268656730652 L 164.7 143.7 L 159.0 151.3 L 152.4 158.2 L 144.8 164.6 L 144.1604263305664 165.0288906097412 L 146.4 166.3 L 154.5 170.0 L 163.2 173.2 L 172.5 175.9 L 182.4 178.1 L 191.3 180.1 L 179.5 191.0 L 168.9 187.9 Z M 81.0 125.6 L 84.0 127.6 L 81.0 129.4 L 81.0 151.4 L 80.60070867538452 153.86834650039674 L 89.8 152.9 L 99.8 151.9 L 100.1 153.7 L 90.5 156.6 L 81.3 159.2 L 79.25669002532959 159.73404693603516 L 77.3 164.4 L 73.2 169.8 L 68.0 174.5 L 61.6 178.5 L 54.2 181.9 L 45.6 184.7 L 35.9 187.0 L 25.1 188.6 L 13.1 189.7 L 12.8 187.9 L 24.4 184.9 L 34.6 181.8 L 43.5 178.5 L 51.1 174.9 L 57.3 171.2 L 62.1 167.4 L 65.5 163.4 L 65.61181211471558 163.20178756713867 L 64.0 163.6 L 56.0 165.6 L 48.3 167.4 L 41.1 169.1 L 34.3 170.6 L 27.9 172.1 L 25.951660537719725 172.52214021682738 L 24.4 176.0 L 21.9 173.4 L 18.0 161.9 L 20.0 161.6 L 26.0 160.9 L 30.0 160.40769233703614 L 30.0 129.3 L 42.0 131.3 L 45.0 133.3 L 42.0 135.1 L 42.0 158.8794520378113 L 46.7 158.3 L 54.4 157.3 L 62.6 156.2 L 68.80924787521363 155.40579385757445 L 69.0 151.4 L 69.0 123.6 Z M 110.3641791343689 135.1 L 114.4 140.3 L 119.9 146.5 L 125.7 152.2 L 132.1 157.4 L 135.72291393280028 159.86778192520143 L 138.9 157.3 L 145.3 151.1 L 150.6 144.6 L 155.0 137.8 L 156.3125 135.1 Z M 16.0 114.0 L 76.0 114.0 L 76.0 97.7 L 52.0 97.7 L 52.0 100.7 L 40.0 106.7 L 40.0 67.4 L 52.0 73.4 L 76.0 73.4 L 76.0 57.1 L 37.00909090042114 57.1 L 37.1 59.1 L 36.8 61.2 L 36.0 63.4 L 34.8 65.5 L 33.3 67.5 L 31.4 69.3 L 29.2 71.0 L 24.6 71.1 L 21.2 68.1 L 21.1 63.5 L 24.1 60.1 L 25.8 59.8 L 27.2 59.4 L 28.5 59.0 L 29.6 58.5 L 30.6 57.9 L 31.5 57.2 L 32.3 56.2 L 33.1 54.9 L 33.6 53.3 L 33.4 51.6 L 35.1 51.1 L 35.6 53.0 L 35.64736843109131 53.1 L 163.0 53.1 L 163.98823528289796 52.2764705657959 L 164.2 51.5 L 164.57458925247192 51.78784227371216 L 169.0 48.1 L 180.0 57.1 L 175.0 60.1 L 163.0 65.1 L 163.0 64.85 L 162.5 65.1 L 160.5 65.9 L 158.4 66.7 L 156.5 67.9 L 155.4 66.5 L 157.0 65.0 L 158.2 63.2 L 159.3 61.4 L 160.4 59.7 L 161.3 58.2 L 161.85 57.1 L 124.0 57.1 L 124.0 73.4 L 148.0 73.4 L 154.0 68.4 L 165.0 77.4 L 160.0 81.4 L 160.0 99.7 L 148.0 105.7 L 148.0 97.7 L 124.0 97.7 L 124.0 114.0 L 169.7777777671814 114.0 L 176.0 107.0 L 184.0 114.0 L 184.0 118.0 L 16.0 118.0 Z M 88.0 57.1 L 88.0 79.4 L 76.0 85.4 L 76.0 77.4 L 52.0 77.4 L 52.0 93.7 L 76.0 93.7 L 82.0 88.7 L 93.0 97.7 L 88.0 101.7 L 88.0 114.0 L 112.0 114.0 L 112.0 87.7 L 124.0 93.7 L 148.0 93.7 L 148.0 77.4 L 124.0 77.4 L 124.0 80.4 L 112.0 86.4 L 112.0 57.1 Z M 39.0 40.0 L 94.0 40.0 L 94.0 29.4 L 23.0 29.4 L 23.0 25.4 L 94.0 25.4 L 94.0 11.7 L 106.0 13.7 L 109.0 15.7 L 106.0 17.5 L 106.0 25.4 L 158.8181818008423 25.4 L 167.0 16.4 L 177.0 25.4 L 177.0 29.4 L 106.0 29.4 L 106.0 40.0 L 146.7777777671814 40.0 L 153.0 33.0 L 161.0 40.0 L 161.0 44.0 L 39.0 44.0 Z " />
</g>
</svg>
