<svg xmlns="http://www.w3.org/2000/svg" xmlns:xlink="http://www.w3.org/1999/xlink" version="1.1" baseProfile="full" viewBox="0 0 200 200" width="200" height="200">
<g fill="black">
<path d="M 140.5 183.4 L 126.6 179.1 L 113.7 174.1 L 101.8 168.2 L 101.27325325012207 167.88105239868165 L 99.8 168.6 L 86.0 173.9 L 71.1 178.3 L 55.0 181.9 L 37.6 184.5 L 19.1 186.2 L 18.8 184.5 L 37.0 180.8 L 53.8 176.7 L 69.3 172.0 L 83.4 166.8 L 92.50339565277099 162.57086343765258 L 90.9 161.6 L 81.1 154.2 L 72.4 145.9 L 64.9 136.9 L 59.484693908691405 128.2 L 34.0 128.2 L 34.0 124.2 L 138.9885057449341 124.2 L 139.9 122.9 L 140.27240219116212 123.13966484069825 L 145.0 119.2 L 156.0 128.2 L 151.0 131.2 L 147.38134717941284 132.707772064209 L 142.4 139.0 L 133.6 147.7 L 123.6 155.5 L 112.30673065185547 162.49583053588867 L 117.5 164.6 L 129.9 168.6 L 143.2 171.9 L 157.5 174.5 L 172.7 176.4 L 183.0 177.6 L 171.2 189.5 L 155.3 186.8 Z M 62.3222222328186 128.2 L 68.1 134.2 L 76.4 141.6 L 85.5 148.4 L 95.3 154.5 L 101.72167158126831 157.77141761779785 L 107.6 154.5 L 117.6 147.4 L 126.4 139.8 L 133.8 131.6 L 136.18390808105468 128.2 Z M 46.4 111.5 L 34.4 117.5 L 34.4 63.3 L 46.4 69.3 L 155.6 69.3 L 161.6 64.3 L 172.6 73.3 L 167.6 77.3 L 167.6 114.5 L 155.6 120.5 L 155.6 108.5 L 46.4 108.5 Z M 46.4 90.9 L 46.4 104.5 L 95.0 104.5 L 95.0 90.9 Z M 107.0 90.9 L 107.0 104.5 L 155.6 104.5 L 155.6 90.9 Z M 46.4 73.3 L 46.4 86.9 L 95.0 86.9 L 95.0 73.3 Z M 107.0 73.3 L 107.0 86.9 L 155.6 86.9 L 155.6 73.3 Z M 63.0 35.5 L 138.9 35.5 L 144.9 30.5 L 155.9 39.5 L 150.9 43.5 L 150.9 57.6 L 138.9 63.6 L 138.9 57.6 L 63.0 57.6 L 51.0 63.6 L 51.0 29.5 Z M 63.0 39.5 L 63.0 53.6 L 138.9 53.6 L 138.9 39.5 Z M 181.8 23.2 L 181.8 27.2 L 25.0 27.2 L 25.0 23.2 L 163.61818180084228 23.2 L 171.8 14.2 Z " />
</g>
</svg>
