<svg xmlns="http://www.w3.org/2000/svg" xmlns:xlink="http://www.w3.org/1999/xlink" version="1.1" baseProfile="full" viewBox="0 0 200 200" width="200" height="200">
<g fill="black">
<path d="M 18.3 163.5 L 23.8 163.1 L 29.8 162.7 L 36.2 162.2 L 37.0 162.12835817337037 L 37.0 111.6 L 15.0 111.6 L 15.0 107.6 L 170.7777777671814 107.6 L 177.0 100.6 L 185.0 107.6 L 185.0 111.6 L 98.0 111.6 L 98.0 181.8 L 86.0 187.8 L 86.0 161.00227270126342 L 83.3 161.8 L 74.7 164.0 L 66.6 166.0 L 58.8 167.7 L 51.3 169.3 L 44.3 170.8 L 37.6 172.1 L 31.2 173.3 L 25.2 174.4 L 23.74265060424805 174.6602409362793 L 22.0 178.2 L 19.6 175.4 L 16.3 163.7 Z M 156.5 176.5 L 149.1 172.1 L 142.2 167.2 L 139.53973751068116 164.95540351867675 L 134.7 168.5 L 127.2 173.0 L 119.1 176.9 L 110.4 180.0 L 101.2 182.4 L 100.7 180.7 L 108.9 176.5 L 116.6 172.1 L 123.7 167.4 L 130.2 162.4 L 133.47967681884765 159.39826192855836 L 130.1 155.9 L 124.9 149.5 L 120.4 142.7 L 116.6 135.4 L 113.90769233703614 128.4 L 104.0 128.4 L 104.0 124.4 L 157.0 124.4 L 157.3549295425415 124.10422534942627 L 157.4 124.0 L 157.4530466079712 124.02246112823487 L 163.0 119.4 L 174.0 128.4 L 169.0 131.4 L 166.57637796401977 132.4098424911499 L 164.3 136.8 L 159.5 144.3 L 154.2 151.2 L 148.3 157.6 L 147.3972222328186 158.39166669845582 L 148.0 158.8 L 154.7 162.5 L 161.7 165.9 L 169.1 168.8 L 177.0 171.3 L 184.5 173.7 L 172.9 183.8 L 164.5 180.4 Z M 49.0 145.2 L 49.0 161.00694446563722 L 50.1 160.9 L 57.6 160.2 L 65.5 159.5 L 73.9 158.7 L 82.6 158.0 L 86.0 157.81521739959717 L 86.0 145.2 Z M 116.40615386962891 128.4 L 120.1 133.3 L 125.1 139.3 L 130.4 144.8 L 135.9 149.9 L 139.8102349281311 153.0149329185486 L 141.5 151.2 L 146.3 145.0 L 150.5 138.4 L 154.2 131.4 L 155.4972972869873 128.4 Z M 49.0 128.4 L 49.0 141.2 L 86.0 141.2 L 86.0 128.4 Z M 49.0 111.6 L 49.0 124.4 L 86.0 124.4 L 86.0 111.6 Z M 20.0 88.0 L 94.0 88.0 L 94.0 64.1 L 34.0 64.1 L 34.0 60.1 L 94.0 60.1 L 94.0 39.6 L 28.0 39.6 L 28.0 35.6 L 70.28636360168457 35.6 L 69.4 35.1 L 68.9 33.9 L 68.1 32.5 L 67.1 31.0 L 65.8 29.4 L 62.4 26.0 L 60.3 24.2 L 58.0 22.3 L 55.5 20.3 L 52.5 18.7 L 53.2 17.0 L 56.5 18.1 L 59.7 18.8 L 62.7 19.7 L 65.6 20.6 L 68.2 21.5 L 70.7 22.6 L 73.0 23.7 L 75.1 24.9 L 77.1 26.3 L 78.9 27.8 L 80.0 32.2 L 78.13000001907349 35.6 L 111.175 35.6 L 110.5 34.4 L 114.6 31.7 L 118.3 29.0 L 121.8 26.4 L 125.2 24.1 L 128.4 21.9 L 131.4 19.8 L 134.1 17.9 L 136.7 16.0 L 139.0 14.3 L 140.3485813140869 13.272509479522705 L 140.3 13.2 L 140.36216220855712 13.262162208557129 L 141.1 12.7 L 142.7673913002014 15.667391300201416 L 149.1 22.0 L 149.2 25.4 L 145.38235292434692 23.847058868408205 L 144.5 24.2 L 141.7 25.3 L 138.7 26.4 L 135.5 27.6 L 132.1 28.9 L 128.4 30.2 L 124.5 31.6 L 120.3 33.0 L 115.9 34.4 L 112.525 35.6 L 149.0 35.6 L 159.0 25.6 L 171.0 35.6 L 171.0 39.6 L 106.0 39.6 L 106.0 60.1 L 142.0 60.1 L 152.0 50.1 L 164.0 60.1 L 164.0 64.1 L 106.0 64.1 L 106.0 88.0 L 161.8181818008423 88.0 L 170.0 79.0 L 180.0 88.0 L 180.0 92.0 L 20.0 92.0 Z " />
</g>
</svg>
