<svg xmlns="http://www.w3.org/2000/svg" xmlns:xlink="http://www.w3.org/1999/xlink" version="1.1" baseProfile="full" viewBox="0 0 200 200" width="200" height="200">
<g fill="black">
<path d="M 16.7 173.9 L 25.2 172.4 L 33.7 171.0 L 42.2 169.5 L 50.8 168.1 L 59.3 166.7 L 63.805915451049806 166.01887321472168 L 65.0 163.1 L 66.5 158.8 L 68.0 154.8 L 69.5 151.1 L 70.9 147.5 L 72.2 144.2 L 73.3 141.1 L 74.4 138.3 L 75.78842105865479 134.13473682403566 L 75.7 134.1 L 76.0 133.5 L 76.0 130.0 L 38.0 130.0 L 26.0 136.0 L 26.0 95.0 L 38.0 101.0 L 50.0 101.0 L 50.0 78.0 L 15.0 78.0 L 15.0 74.0 L 50.0 74.0 L 50.0 53.0 L 62.0 55.0 L 65.0 57.0 L 62.0 58.8 L 62.0 74.0 L 78.0 74.0 L 88.0 64.0 L 100.0 74.0 L 100.0 78.0 L 62.0 78.0 L 62.0 101.0 L 76.0 101.0 L 82.0 96.0 L 93.0 105.0 L 88.0 109.0 L 88.0 130.0 L 79.84869565963746 134.07565221786498 L 86.9 138.5 L 88.7 141.7 L 84.44082841873168 141.9887574195862 L 83.7 143.1 L 81.9 145.7 L 79.9 148.4 L 77.8 151.3 L 75.5 154.4 L 73.1 157.6 L 70.5 161.1 L 67.6 164.6 L 66.87073678970337 165.5555863380432 L 67.9 165.4 L 76.6 164.1 L 85.2 162.9 L 94.0 161.9 L 102.8 161.1 L 103.1 162.8 L 94.7 165.6 L 86.3 168.2 L 61.1 175.1 L 52.7 177.2 L 44.3 179.4 L 27.5 183.6 L 23.107958698272704 184.65832319259644 L 21.7 188.1 L 19.2 185.6 L 14.7 174.3 Z M 159.1 176.9 L 150.0 171.5 L 141.7 165.5 L 139.87035160064698 163.84111881256104 L 139.8 163.9 L 129.6 170.5 L 118.6 176.2 L 106.8 180.8 L 94.2 184.3 L 80.7 186.7 L 80.4 184.9 L 93.1 180.7 L 104.8 175.8 L 115.7 170.3 L 125.5 164.1 L 133.5333782196045 157.94107675552368 L 127.7 151.3 L 122.0 143.1 L 117.2 134.3 L 113.5 124.9 L 111.08199996948242 115.6 L 101.4 115.6 L 101.4 111.6 L 133.8 111.6 L 133.8 84.5 L 99.8 84.5 L 99.8 80.5 L 133.8 80.5 L 133.8 53.4 L 145.8 55.4 L 148.8 57.4 L 145.8 59.2 L 145.8 80.5 L 167.1 80.5 L 177.1 70.5 L 189.1 80.5 L 189.1 84.5 L 145.8 84.5 L 145.8 111.6 L 165.6 111.6 L 171.6 106.6 L 182.6 115.6 L 177.6 118.6 L 175.32327270507812 119.54863634109498 L 171.5 127.4 L 164.9 137.9 L 157.4 147.6 L 149.0 156.2 L 147.73972606658936 157.2547945022583 L 147.8 157.3 L 155.7 162.1 L 164.2 166.2 L 173.5 169.7 L 183.4 172.6 L 191.5 174.9 L 179.8 185.3 L 169.1 181.5 Z M 37.8 156.8 L 37.2 154.5 L 36.5 152.1 L 35.6 149.7 L 34.5 147.3 L 33.2 144.8 L 31.8 142.2 L 30.2 139.6 L 28.1 137.3 L 29.3 135.9 L 31.9 137.8 L 34.7 139.4 L 37.3 141.3 L 39.6 143.4 L 41.8 145.6 L 43.9 147.9 L 45.7 150.4 L 47.3 153.0 L 48.8 155.7 L 50.0 158.6 L 49.3 163.1 L 45.7 165.9 L 41.2 165.1 L 38.4 161.5 L 38.2 159.2 Z M 117.3 123.2 L 122.4 131.5 L 127.9 139.0 L 133.9 145.8 L 140.3339349746704 151.65776176452636 L 142.5 149.6 L 149.7 141.2 L 156.0 132.1 L 161.4 122.1 L 164.19439249038697 115.6 L 113.28651685714722 115.6 Z M 38.0 105.0 L 38.0 126.0 L 76.0 126.0 L 76.0 105.0 Z M 83.3 49.3 L 80.7 47.3 L 77.8 45.3 L 74.6 43.3 L 71.3 41.2 L 67.8 39.1 L 64.1 36.9 L 60.2 34.5 L 59.0896879196167 33.90422277450561 L 58.4 35.2 L 54.1 40.9 L 48.9 46.1 L 42.9 50.9 L 36.1 55.2 L 28.4 59.1 L 19.9 62.5 L 10.5 65.3 L 9.9 63.6 L 18.3 59.0 L 25.9 54.4 L 32.5 49.7 L 38.2 45.0 L 42.9 40.1 L 46.7 35.2 L 49.7 30.2 L 51.7 25.1 L 53.0 19.9 L 53.40740737915039 15.5 L 53.4 15.5 L 53.7 12.3 L 65.5 15.5 L 68.3 17.7 L 64.68709678649903 19.50645160675049 L 64.1 22.4 L 61.7 29.0 L 60.41816463470459 31.40829668045044 L 61.3 31.6 L 65.8 32.6 L 70.1 33.6 L 74.2 34.8 L 78.1 36.1 L 81.8 37.4 L 85.3 38.8 L 88.7 40.3 L 91.9 41.8 L 94.9 43.3 L 97.3 47.2 L 96.4 51.7 L 92.5 54.1 L 88.0 53.2 L 85.8 51.3 Z M 158.4 54.2 L 152.7 50.7 L 147.9 46.7 L 143.8 42.2 L 140.6 37.3 L 138.4 32.1 L 138.31583967208863 31.707251930236815 L 137.5 33.6 L 134.0 38.8 L 129.7 43.3 L 124.7 47.2 L 118.9 50.4 L 112.5 52.9 L 105.4 54.7 L 97.6 55.8 L 97.2 54.1 L 104.2 51.1 L 110.4 48.0 L 115.7 44.7 L 120.1 41.2 L 123.6 37.4 L 126.4 33.5 L 128.4 29.3 L 129.7 24.8 L 130.4 20.0 L 130.5 14.7 L 130.5 12.3 L 142.5 14.7 L 145.5 16.7 L 142.01898736953734 18.788607597351074 L 141.7 21.5 L 141.6419554710388 21.71510601043701 L 142.9 25.0 L 145.0 29.1 L 147.6 32.7 L 150.7 35.9 L 154.4 38.8 L 158.6 41.3 L 163.5 43.5 L 169.1 45.5 L 175.4 47.1 L 183.6 49.3 L 171.9 59.8 L 164.8 57.2 Z " />
</g>
</svg>
