<svg xmlns="http://www.w3.org/2000/svg" xmlns:xlink="http://www.w3.org/1999/xlink" version="1.1" baseProfile="full" viewBox="0 0 200 200" width="200" height="200">
<g fill="black">
<path d="M 167.5 173.4 L 162.2 163.8 L 159.5309889793396 157.53362636566163 L 158.9 158.7 L 151.5 169.4 L 143.3 178.5 L 134.2 186.0 L 124.4 191.7 L 123.4 190.2 L 131.8 183.0 L 134.4279128074646 180.1646203994751 L 131.2 177.0 L 126.4 171.7 L 121.9 166.2 L 117.7 160.4 L 113.8 154.4 L 110.3 148.1 L 107.0 141.5 L 104.1 134.7 L 103.5 132.925 L 103.5 182.0 L 91.5 188.0 L 91.5 139.51162786483764 L 88.1 145.6 L 83.5 152.8 L 78.6 159.4 L 73.4 165.5 L 68.0 171.0 L 62.2 176.0 L 56.1 180.2 L 49.7 183.7 L 48.6 182.2 L 53.7 177.2 L 58.5 172.0 L 63.2 166.5 L 67.5 160.7 L 71.7 154.5 L 75.6 147.9 L 79.3 140.8 L 82.8 133.3 L 86.0 125.3 L 87.4333333015442 121.0 L 73.6 121.0 L 73.6 133.0 L 62.6 138.5 L 62.6 55.5 L 73.6 61.0 L 91.5 61.0 L 91.5 44.0 L 51.5 44.0 L 51.5 40.0 L 91.5 40.0 L 91.5 13.0 L 103.5 15.0 L 106.5 17.0 L 103.5 18.8 L 103.5 40.0 L 125.31818180084228 40.0 L 133.5 31.0 L 143.5 40.0 L 143.5 44.0 L 103.5 44.0 L 103.5 61.0 L 120.8 61.0 L 126.8 56.0 L 135.8 63.36363639831543 L 135.8 61.8 L 174.0 61.8 L 180.0 56.8 L 191.0 65.8 L 186.0 68.8 L 185.3942174911499 69.05240936279297 L 183.5 83.6 L 180.3 101.4 L 176.2 117.9 L 171.3 132.9 L 165.761337184906 145.88720932006837 L 167.1 149.1 L 172.0 158.6 L 177.3 166.9 L 183.0 173.8 L 189.0 179.4 L 191.1 181.3 L 180.3 189.3 L 173.5 182.0 Z M 40.1 139.7 L 36.8 142.4 L 26.9 150.2 L 20.4572096824646 155.08090171813964 L 20.4 159.2 L 17.1 157.7 L 9.0 148.7 L 10.6 147.6 L 14.3 145.7 L 17.1 144.2222222328186 L 17.1 71.0 L 29.1 73.0 L 32.1 75.0 L 29.1 76.8 L 29.1 138.2 L 33.0 136.3 L 36.9 134.5 L 40.8 132.8 L 43.4 131.72195119857787 L 43.4 46.4 L 54.4 48.4 L 57.1 50.4 L 54.4 52.12340421676636 L 54.4 140.9 L 53.7 148.1 L 52.1 154.9 L 49.6 161.2 L 46.3 167.1 L 42.1 172.4 L 37.2 177.3 L 31.5 181.5 L 25.1 185.3 L 17.9 188.4 L 10.0 190.9 L 9.4 189.3 L 16.3 185.3 L 22.5 181.1 L 27.8 176.7 L 32.3 172.3 L 36.0 167.6 L 38.9 162.7 L 41.1 157.7 L 42.5 152.4 L 43.3 146.8 L 43.4 140.9 L 43.4 136.9 Z M 136.8 65.8 L 132.8 69.0 L 132.8 127.0 L 120.8 133.0 L 120.8 121.0 L 103.5 121.0 L 103.5 122.7 L 105.5 125.9 L 109.4 132.1 L 113.3 138.0 L 117.3 143.6 L 121.5 149.0 L 125.8 154.1 L 130.3 159.0 L 135.0 163.6 L 139.8 167.9 L 142.75216398239135 170.21542272567748 L 146.2 165.5 L 152.3 155.0 L 155.77560863494872 147.480046749115 L 153.7 141.2 L 150.5 128.2 L 147.9 114.1 L 146.0 98.8 L 144.9 82.4 L 144.71028575897216 65.8 Z M 146.65116281509398 65.8 L 149.1 82.0 L 151.9 98.0 L 155.0 112.7 L 158.6 126.1 L 161.11824951171874 133.7806610107422 L 162.5 129.9 L 166.5 115.3 L 169.7 99.4 L 172.3 82.0 L 173.85935831069946 65.8 Z M 73.6 93.0 L 73.6 117.0 L 91.5 117.0 L 91.5 93.0 Z M 103.5 93.0 L 103.5 117.0 L 120.8 117.0 L 120.8 93.0 Z M 73.6 65.0 L 73.6 89.0 L 91.5 89.0 L 91.5 65.0 Z M 103.5 65.0 L 103.5 89.0 L 120.8 89.0 L 120.8 65.0 Z " />
</g>
</svg>
