<svg xmlns="http://www.w3.org/2000/svg" xmlns:xlink="http://www.w3.org/1999/xlink" version="1.1" baseProfile="full" viewBox="0 0 200 200" width="200" height="200">
<g fill="black">
<path d="M 140.2 183.4 L 125.3 180.0 L 112.0 175.8 L 100.39992589950562 170.92601928710937 L 92.2 174.8 L 78.7 179.9 L 64.5 184.1 L 49.4 187.3 L 33.6 189.4 L 17.0 190.6 L 16.9 188.8 L 33.0 185.7 L 48.3 182.0 L 62.7 177.8 L 76.1 172.8 L 88.7 167.1 L 91.19396123886108 165.73578186035155 L 89.9 165.0 L 81.3 158.3 L 74.4 150.9 L 69.4 142.7 L 66.5 133.9 L 67.03333330154419 133.7 L 45.0 133.7 L 45.0 129.7 L 136.70430107116698 129.7 L 138.4 127.8 L 138.83380279541015 128.1718309402466 L 143.0 124.7 L 154.0 133.7 L 149.0 136.7 L 144.69625358581544 138.4932276725769 L 138.1 145.3 L 127.9 154.0 L 116.8 161.9 L 111.6281029701233 164.89883108139037 L 115.2 166.1 L 127.9 169.2 L 142.2 171.7 L 158.0 173.5 L 175.4 174.7 L 186.4 175.3 L 174.5 187.8 L 156.6 186.0 Z M 68.3722222328186 133.7 L 73.0 140.5 L 78.8 147.0 L 85.8 152.7 L 94.2 157.8 L 100.42103061676025 160.6860450744629 L 111.1 153.6 L 121.1 145.7 L 130.1 137.1 L 133.13440856933593 133.7 Z M 135.0 115.3 L 156.2 115.3 L 157.1 115.1 L 157.7 114.9 L 158.0 114.7 L 158.2 114.6 L 158.4 114.4 L 158.7 113.5 L 158.9 112.6 L 159.0 111.3 L 159.0 12.6 L 171.0 14.6 L 174.0 16.6 L 171.0 18.4 L 171.0 111.3 L 170.8 113.9 L 170.4 116.4 L 169.6 118.8 L 168.3 121.1 L 166.7 123.1 L 164.7 124.7 L 162.4 126.0 L 160.0 126.8 L 157.5 127.2 L 155.0 127.3 L 155.0 121.3 L 135.0 118.3 Z M 97.8 26.5 L 97.8 30.5 L 65.49090909957886 30.5 L 65.4 30.7 L 62.1 37.3 L 58.5 43.8 L 54.4 50.1 L 49.9 56.2 L 48.34833335876465 58.1 L 74.4 58.1 L 80.4 53.1 L 91.4 62.1 L 86.4 66.1 L 86.4 109.9 L 74.4 115.9 L 74.4 105.9 L 48.4 105.9 L 48.4 112.9 L 36.4 118.9 L 36.4 71.2 L 33.9 73.7 L 27.6 79.1 L 20.9 84.3 L 13.7 89.1 L 12.6 87.8 L 18.4 81.4 L 23.9 75.2 L 29.1 69.1 L 33.9 63.1 L 38.3 57.0 L 42.3 50.9 L 45.9 44.8 L 49.1 38.6 L 51.8 32.4 L 52.5307692527771 30.5 L 18.6 30.5 L 18.6 26.5 L 75.8 26.5 L 85.8 16.5 Z M 124.0 24.3 L 127.0 26.3 L 124.0 28.1 L 124.0 99.0 L 112.0 105.0 L 112.0 22.3 Z M 48.4 62.1 L 48.4 101.9 L 74.4 101.9 L 74.4 62.1 Z " />
</g>
</svg>
