<svg xmlns="http://www.w3.org/2000/svg" xmlns:xlink="http://www.w3.org/1999/xlink" version="1.1" baseProfile="full" viewBox="0 0 200 200" width="200" height="200">
<g fill="black">
<path d="M 163.4 167.3 L 155.4 155.7 L 149.45961074829103 144.42186965942383 L 146.2 149.5 L 135.4 162.5 L 123.5 173.6 L 110.5 182.7 L 108.01999998092651 183.93999996185303 L 107.1 185.5 L 102.7 186.6 L 96.3 189.8 L 95.5 188.1 L 99.98767127990723 185.10821914672852 L 98.7 184.4 L 97.3 182.2 L 95.6 179.9 L 93.5 177.6 L 90.9 175.3 L 88.0 173.0 L 84.8 170.7 L 81.1 168.4 L 77.1 166.0 L 72.8 163.6 L 68.0 161.3 L 68.5 159.6 L 73.8 160.6 L 78.8 161.6 L 83.5 162.9 L 88.0 164.4 L 92.1 166.0 L 95.9 167.9 L 99.4 169.9 L 102.7 172.1 L 105.6 174.5 L 108.3 177.1 L 108.80196199417114 179.15348100662231 L 120.0 169.5 L 130.5 158.1 L 139.9 145.2 L 145.50406742095947 135.40976181030274 L 142.5 128.2 L 137.4 112.3 L 133.3 95.1 L 130.2 76.5 L 128.1 56.5 L 127.2418604850769 36.0 L 113.5 36.0 L 113.5 32.0 L 173.3 32.0 L 179.3 27.0 L 190.3 36.0 L 185.3 39.0 L 184.5767123222351 39.30136985778809 L 181.7 58.0 L 177.0 79.8 L 171.1 99.8 L 164.0 118.1 L 155.84524717330933 134.40950574874878 L 157.6 138.0 L 164.7 149.7 L 172.5 159.9 L 181.0 168.5 L 190.1 175.6 L 193.3 177.9 L 182.3 186.3 L 172.3 177.5 Z M 54.6 165.0 L 55.4 168.5 L 51.384778785705564 167.65469026565552 L 48.4 169.8 L 44.9 172.2 L 41.1 174.5 L 37.1 176.7 L 32.7 178.9 L 28.1 181.0 L 23.1 183.0 L 17.7 184.9 L 12.1 186.7 L 11.3 185.1 L 16.2 181.8 L 20.7 178.5 L 24.9 175.5 L 28.9 172.6 L 32.5 169.7 L 35.9 167.0 L 38.9 164.3 L 41.6 161.7 L 43.9 159.2 L 45.23662338256836 157.52922077178954 L 45.2 157.5 L 45.7 156.95 L 45.9 156.7 L 45.91460552215576 156.71393394470215 L 46.2 156.4 Z M 38.2 86.4 L 84.7 86.4 L 90.7 81.4 L 101.7 90.4 L 96.7 94.4 L 96.7 151.1 L 84.7 157.1 L 84.7 151.1 L 38.2 151.1 L 38.2 154.1 L 26.2 160.1 L 26.2 80.4 Z M 38.2 130.9 L 38.2 147.1 L 84.7 147.1 L 84.7 130.9 Z M 38.2 110.6 L 38.2 126.9 L 84.7 126.9 L 84.7 110.6 Z M 129.17203788757325 36.0 L 132.3 56.0 L 136.0 75.5 L 140.4 93.5 L 145.4 109.9 L 150.99969749450685 124.43956537246704 L 155.4 114.6 L 161.5 96.8 L 166.6 77.3 L 170.5 56.2 L 172.96986904144288 36.0 Z M 38.2 90.4 L 38.2 106.6 L 84.7 106.6 L 84.7 90.4 Z M 20.1 78.7 L 20.1 37.1 L 31.1 42.6 L 44.5 42.6 L 44.5 26.9 L 11.9 26.9 L 11.9 22.9 L 89.0 22.9 L 99.0 12.9 L 111.0 22.9 L 111.0 26.9 L 78.4 26.9 L 78.4 42.6 L 91.8 42.6 L 97.3 37.6 L 107.8 46.6 L 102.8 50.1 L 102.8 73.2 L 91.8 78.7 L 91.8 73.2 L 31.1 73.2 Z M 31.1 46.6 L 31.1 69.2 L 44.5 69.2 L 44.5 46.6 Z M 54.5 46.6 L 54.5 69.2 L 68.4 69.2 L 68.4 46.6 Z M 78.4 46.6 L 78.4 69.2 L 91.8 69.2 L 91.8 46.6 Z M 54.5 26.9 L 54.5 42.6 L 68.4 42.6 L 68.4 26.9 Z " />
</g>
</svg>
