<svg xmlns="http://www.w3.org/2000/svg" xmlns:xlink="http://www.w3.org/1999/xlink" version="1.1" baseProfile="full" viewBox="0 0 200 200" width="200" height="200">
<g fill="black">
<path d="M 14.0 177.4 L 94.0 177.4 L 94.0 124.7 L 30.0 124.7 L 30.0 120.7 L 148.0 120.7 L 158.0 110.7 L 170.0 120.7 L 170.0 124.7 L 106.0 124.7 L 106.0 177.4 L 164.0 177.4 L 174.0 167.4 L 186.0 177.4 L 186.0 181.4 L 14.0 181.4 Z M 137.9 102.5 L 123.4 98.0 L 110.0 92.3 L 98.84681015014648 85.84774141311645 L 85.6 92.9 L 70.5 99.3 L 54.3 104.6 L 36.8 108.8 L 18.1 111.8 L 17.8 110.1 L 35.9 105.1 L 52.6 99.5 L 68.0 93.2 L 82.1 86.1 L 91.4704483985901 80.46308965682984 L 87.0 77.1 L 77.5 67.6 L 69.3 56.9 L 62.6 45.0 L 57.81145038604736 32.7 L 37.0 32.7 L 37.0 28.7 L 139.0 28.7 L 139.2984292984009 28.451308917999267 L 139.6 27.9 L 139.8226589202881 28.01445083618164 L 145.0 23.7 L 156.0 32.7 L 151.0 35.7 L 148.16678695678712 36.88050537109375 L 142.7 45.8 L 133.8 57.3 L 123.6 67.7 L 112.1 77.1 L 107.89099998474121 79.90600004196168 L 114.3 83.0 L 126.9 87.5 L 140.5 90.9 L 155.3 93.2 L 171.3 94.3 L 182.5 94.9 L 170.6 107.5 L 153.7 105.6 Z M 60.110256385803225 32.7 L 66.3 42.9 L 74.1 53.3 L 82.7 62.6 L 92.2 70.6 L 99.23655786514283 75.157008934021 L 106.4 69.8 L 116.6 60.5 L 125.5 50.4 L 133.2 39.6 L 136.97435894012452 32.7 Z " />
</g>
</svg>
