<svg xmlns="http://www.w3.org/2000/svg" xmlns:xlink="http://www.w3.org/1999/xlink" version="1.1" baseProfile="full" viewBox="0 0 200 200" width="200" height="200">
<g fill="black">
<path d="M 87.7 87.3 L 90.7 89.3 L 87.7 91.1 L 87.7 145.78499488830568 L 93.27083768844605 145.1780999183655 L 102.1 134.1 L 115.1 142.8 L 115.5 146.8 L 87.7 149.8285714149475 L 87.7 185.7 L 75.7 191.7 L 75.7 151.1358684539795 L 18.2 157.4 L 17.8 153.4 L 75.7 147.09229192733764 L 75.7 85.3 Z M 163.7 169.8 L 157.4 158.9 L 151.8 146.2 L 149.70677223205567 140.04591026306153 L 146.0 148.6 L 138.8 161.5 L 130.9 172.5 L 122.3 181.2 L 113.1 187.8 L 112.1 186.3 L 119.6 178.6 L 126.6 169.2 L 133.1 158.2 L 139.1 145.4 L 144.6 130.7 L 145.61970014572142 127.26631574630737 L 142.2 115.0 L 138.3 96.6 L 134.8 76.2 L 132.0 53.8 L 130.15637855529786 31.4 L 119.4 31.4 L 119.4 27.4 L 163.9 27.4 L 169.9 22.4 L 180.9 31.4 L 175.9 34.4 L 175.24683542251586 34.67215185165405 L 172.4 54.6 L 168.4 77.3 L 163.7 98.0 L 158.4 116.8 L 154.95846862792968 126.59961471557617 L 155.6 128.5 L 161.2 142.2 L 167.2 153.7 L 173.3 163.0 L 179.7 170.2 L 186.0 175.2 L 189.4 177.6 L 178.4 186.1 L 170.6 178.9 Z M 36.9 132.1 L 36.3 130.4 L 35.6 128.8 L 34.8 127.1 L 33.9 125.5 L 32.8 123.9 L 31.6 122.3 L 30.3 120.6 L 28.5 119.4 L 29.3 117.8 L 31.3 118.7 L 33.6 119.2 L 35.8 120.0 L 37.9 120.9 L 39.9 122.0 L 41.8 123.3 L 43.6 124.8 L 45.4 126.4 L 47.0 128.2 L 48.6 130.1 L 48.8 134.7 L 45.9 138.2 L 41.3 138.4 L 37.8 135.4 L 37.4 133.7 Z M 56.3 118.9 L 54.9 115.9 L 54.0 114.3 L 53.0 112.7 L 51.9 111.1 L 49.5 107.5 L 47.8 106.2 L 48.8 104.7 L 50.7 105.8 L 52.9 106.5 L 55.0 107.2 L 56.9 108.1 L 60.7 110.1 L 62.4 111.2 L 64.1 112.4 L 65.7 113.6 L 67.2 114.9 L 68.1 119.4 L 65.7 123.3 L 61.2 124.2 L 57.4 121.8 L 56.9 120.4 Z M 132.20333337783813 31.4 L 136.2 53.2 L 140.6 75.1 L 145.3 95.0 L 150.05376596450805 111.92340669631957 L 154.0 95.7 L 157.8 75.3 L 161.2 53.0 L 163.6991735458374 31.4 Z M 15.4 108.4 L 13.5 104.2 L 15.0 99.9 L 16.0 99.1 L 17.3 97.6 L 18.5 95.5 L 19.7 92.7 L 20.9 89.4 L 21.9 85.5 L 22.9 81.1 L 23.8 76.2 L 24.7 70.7 L 25.4 64.8 L 27.2 64.8 L 27.9 70.8 L 28.32857141494751 74.8 L 105.8 74.8 L 111.8 69.8 L 122.8 78.8 L 117.8 81.8 L 115.02613067626953 82.95577888488769 L 115.0 83.0 L 112.2 87.8 L 110.6 90.4 L 108.8 93.0 L 107.0 95.8 L 105.0 98.7 L 102.8 101.6 L 100.8 104.8 L 99.2 104.1 L 100.4 100.5 L 101.2 96.9 L 102.0 93.6 L 102.8 90.4 L 103.6 87.4 L 104.2 84.5 L 104.8 81.9 L 105.3 79.3 L 105.40869569778442 78.8 L 28.684615421295167 78.8 L 28.9 81.6 L 28.9 86.4 L 28.8 90.8 L 28.4 94.8 L 27.8 98.6 L 26.8 102.0 L 25.6 105.1 L 23.8 108.0 L 19.7 109.9 Z M 116.8 20.6 L 111.8 24.6 L 111.8 56.0 L 99.8 62.0 L 99.8 52.0 L 82.0 52.0 L 82.0 59.0 L 72.0 64.0 L 72.0 11.6 L 82.0 16.6 L 99.8 16.6 L 105.8 11.6 Z M 36.4 16.6 L 54.3 16.6 L 59.3 11.6 L 69.3 20.6 L 64.3 23.6 L 64.3 56.0 L 54.3 61.0 L 54.3 52.0 L 36.4 52.0 L 24.4 58.0 L 24.4 10.6 Z M 82.0 20.6 L 82.0 48.0 L 99.8 48.0 L 99.8 20.6 Z M 36.4 20.6 L 36.4 48.0 L 54.3 48.0 L 54.3 20.6 Z " />
</g>
</svg>
