<svg xmlns="http://www.w3.org/2000/svg" xmlns:xlink="http://www.w3.org/1999/xlink" version="1.1" baseProfile="full" viewBox="0 0 200 200" width="200" height="200">
<g fill="black">
<path d="M 140.5 181.6 L 126.6 177.5 L 113.7 172.6 L 101.8 166.8 L 100.86348447799682 166.24152746200562 L 99.7 166.8 L 86.0 172.0 L 71.1 176.3 L 55.0 179.7 L 37.6 182.3 L 19.1 183.8 L 18.8 182.1 L 37.0 178.5 L 53.8 174.5 L 69.3 170.0 L 83.4 164.8 L 92.0137755393982 160.96417808532715 L 90.9 160.3 L 81.1 153.0 L 72.4 144.9 L 64.9 136.0 L 59.24020614624023 127.0 L 34.0 127.0 L 34.0 123.0 L 138.91839084625244 123.0 L 139.9 121.6 L 140.33428888320924 121.88809261322021 L 145.0 118.0 L 156.0 127.0 L 151.0 130.0 L 147.41925134658814 131.4919786453247 L 142.4 137.7 L 133.6 146.3 L 123.5 154.0 L 112.2 160.8 L 112.01037921905518 160.89101800918579 L 117.4 163.0 L 129.9 166.9 L 143.2 170.1 L 157.5 172.6 L 172.7 174.4 L 183.1 175.6 L 171.2 187.5 L 155.4 185.0 Z M 61.957499980926514 127.0 L 68.1 133.3 L 76.4 140.6 L 85.4 147.2 L 95.2 153.2 L 101.35733394622802 156.24989442825319 L 107.6 152.8 L 117.7 145.8 L 126.4 138.3 L 133.8 130.3 L 136.1137930870056 127.0 Z M 45.0 21.0 L 159.0 21.0 L 165.0 16.0 L 176.0 25.0 L 171.0 29.0 L 171.0 114.0 L 159.0 120.0 L 159.0 108.0 L 45.0 108.0 L 33.0 114.0 L 33.0 15.0 Z M 45.0 25.0 L 45.0 104.0 L 159.0 104.0 L 159.0 25.0 Z M 81.0 44.0 L 122.0 44.0 L 128.0 39.0 L 139.0 48.0 L 134.0 52.0 L 134.0 86.0 L 122.0 92.0 L 122.0 82.0 L 81.0 82.0 L 81.0 89.0 L 69.0 95.0 L 69.0 38.0 Z M 81.0 48.0 L 81.0 78.0 L 122.0 78.0 L 122.0 48.0 Z " />
</g>
</svg>
