<svg xmlns="http://www.w3.org/2000/svg" xmlns:xlink="http://www.w3.org/1999/xlink" version="1.1" baseProfile="full" viewBox="0 0 200 200" width="200" height="200">
<g fill="black">
<path d="M 156.8 183.2 L 152.7 180.6 L 148.1 178.1 L 143.3 175.6 L 138.0 173.2 L 132.4 170.8 L 126.5 168.3 L 120.3 165.8 L 113.7 163.1 L 114.1 161.4 L 121.2 162.1 L 128.0 163.2 L 134.5 164.5 L 140.6 166.1 L 146.4 167.8 L 151.9 169.6 L 157.1 171.6 L 162.0 173.8 L 166.6 176.1 L 170.9 178.6 L 173.3 182.4 L 172.4 186.9 L 168.5 189.3 L 164.1 188.4 L 160.6 185.8 Z M 75.76739130020141 161.46739130020143 L 82.1 167.8 L 82.2 171.1 L 78.61216220855712 169.64054050445557 L 74.8 171.4 L 69.2 173.8 L 63.5 176.1 L 57.5 178.3 L 51.3 180.4 L 44.8 182.4 L 38.1 184.2 L 31.1 185.9 L 23.8 187.3 L 16.2 188.5 L 15.7 186.8 L 22.7 183.7 L 29.4 180.8 L 35.9 178.0 L 42.2 175.3 L 48.2 172.5 L 53.9 169.8 L 59.4 167.0 L 64.6 164.2 L 69.5 161.3 L 74.1 158.5 Z M 13.0 153.2 L 55.0 153.2 L 55.0 103.6 L 18.0 103.6 L 18.0 99.6 L 55.0 99.6 L 55.0 81.1 L 67.0 83.1 L 70.0 85.1 L 67.0 86.9 L 67.0 99.6 L 133.0 99.6 L 133.0 81.1 L 145.0 83.1 L 148.0 85.1 L 145.0 86.9 L 145.0 99.6 L 160.0 99.6 L 170.0 89.6 L 182.0 99.6 L 182.0 103.6 L 145.0 103.6 L 145.0 153.2 L 165.0 153.2 L 175.0 143.2 L 187.0 153.2 L 187.0 157.2 L 13.0 157.2 Z M 67.0 139.0 L 67.0 153.2 L 133.0 153.2 L 133.0 139.0 Z M 67.0 121.3 L 67.0 135.0 L 133.0 135.0 L 133.0 121.3 Z M 67.0 103.6 L 67.0 117.3 L 133.0 117.3 L 133.0 103.6 Z M 85.0 14.8 L 88.0 16.8 L 85.0 18.6 L 85.0 34.9 L 83.9 42.9 L 81.3 50.3 L 77.2 57.1 L 71.7 63.2 L 65.0 68.7 L 57.1 73.4 L 48.0 77.6 L 37.6 81.2 L 26.0 84.2 L 13.2 86.5 L 12.7 84.7 L 25.0 80.5 L 35.8 76.2 L 45.2 71.7 L 53.3 66.9 L 59.9 61.9 L 65.0 56.8 L 68.8 51.5 L 69.40138635635375 50.27409706115723 L 64.4 52.1 L 58.3 54.0 L 52.5 55.8 L 46.8 57.5 L 41.4 59.0 L 36.2 60.3 L 31.2 61.6 L 26.4 62.8 L 25.934831428527833 62.90337076187134 L 24.3 66.5 L 21.9 63.8 L 18.0 52.3 L 20.0 52.0 L 24.5 51.5 L 29.3 51.0 L 30.0 50.93000001907349 L 30.0 18.6 L 42.0 20.6 L 45.0 22.6 L 42.0 24.4 L 42.0 49.494545459747314 L 45.1 49.1 L 50.9 48.4 L 56.9 47.6 L 63.2 46.8 L 69.8 46.2 L 71.43357543945312 46.05794992446899 L 72.7 40.7 L 73.0 34.9 L 73.0 12.8 Z M 159.0 74.9 L 149.8 70.6 L 141.3 65.6 L 133.6 60.1 L 132.98964576721193 59.55940055847168 L 127.8 62.3 L 118.0 66.3 L 107.5 69.6 L 96.2 72.2 L 84.1 74.2 L 83.8 72.4 L 95.2 68.6 L 105.8 64.5 L 115.5 60.2 L 124.3 55.5 L 126.69502258300781 53.98416290283203 L 126.6 53.9 L 120.5 47.3 L 115.2 40.0 L 110.9 32.2 L 107.875 24.5 L 94.0 24.5 L 94.0 20.5 L 158.0 20.5 L 158.41538457870485 20.153846168518065 L 158.6 19.8 L 158.749476146698 19.87543659210205 L 164.0 15.5 L 175.0 24.5 L 170.0 27.5 L 167.11754388809203 28.701023387908936 L 164.5 32.9 L 158.8 40.1 L 152.2 46.5 L 144.9 52.4 L 142.0157554626465 54.22903308868408 L 146.5 56.8 L 154.5 60.6 L 163.2 63.9 L 172.5 66.7 L 182.4 69.0 L 191.2 71.1 L 179.5 81.9 L 168.9 78.7 Z M 110.31428575515747 24.5 L 114.4 30.0 L 119.9 36.4 L 125.8 42.3 L 132.1 47.7 L 134.0611346244812 49.064267539978026 L 139.2 45.1 L 145.3 39.3 L 150.6 33.2 L 155.0 26.7 L 156.14782609939576 24.5 Z " />
</g>
</svg>
