<svg xmlns="http://www.w3.org/2000/svg" xmlns:xlink="http://www.w3.org/1999/xlink" version="1.1" baseProfile="full" viewBox="0 0 200 200" width="200" height="200">
<g fill="black">
<path d="M 140.0 176.1 L 125.0 172.0 L 111.6 166.9 L 100.89917421340942 161.3682171821594 L 92.6 166.4 L 79.0 172.9 L 64.7 178.4 L 49.6 182.8 L 33.7 185.9 L 17.1 187.8 L 16.8 186.1 L 32.9 182.2 L 48.1 177.6 L 62.4 172.3 L 75.8 166.1 L 88.3 159.0 L 92.79031257629394 155.96807956695557 L 89.5 153.7 L 81.0 145.6 L 74.2 136.6 L 69.3 126.8 L 66.4 116.2 L 66.96666669845581 116.0 L 45.0 116.0 L 45.0 112.0 L 136.91739130020142 112.0 L 138.0 110.5 L 138.4356435775757 110.80363035202026 L 143.0 107.0 L 154.0 116.0 L 149.0 119.0 L 145.4764091491699 120.46816282272339 L 138.5 129.3 L 128.3 140.2 L 117.2 150.0 L 110.19057970046997 155.12453413009644 L 115.5 157.4 L 128.2 161.4 L 142.4 164.6 L 158.2 166.9 L 175.5 168.4 L 186.3 169.2 L 174.4 181.5 L 156.5 179.3 Z M 68.31075267791748 116.0 L 73.0 124.9 L 79.0 133.2 L 86.1 140.5 L 94.5 147.0 L 100.68668584823608 150.535249042511 L 110.7 142.3 L 120.6 132.6 L 129.7 122.0 L 134.03043479919432 116.0 Z M 18.0 91.0 L 95.0 91.0 L 95.0 59.1 L 45.4 59.1 L 45.4 71.1 L 33.4 77.1 L 33.4 23.8 L 45.4 25.8 L 48.4 27.8 L 45.4 29.6 L 45.4 55.1 L 95.0 55.1 L 95.0 15.5 L 107.0 17.5 L 110.0 19.5 L 107.0 21.3 L 107.0 55.1 L 158.5 55.1 L 158.5 23.8 L 170.5 25.8 L 173.5 27.8 L 170.5 29.6 L 170.5 65.1 L 158.5 71.1 L 158.5 59.1 L 107.0 59.1 L 107.0 91.0 L 162.0 91.0 L 172.0 81.0 L 184.0 91.0 L 184.0 95.0 L 18.0 95.0 Z " />
</g>
</svg>
