<svg xmlns="http://www.w3.org/2000/svg" xmlns:xlink="http://www.w3.org/1999/xlink" version="1.1" baseProfile="full" viewBox="0 0 200 200" width="200" height="200">
<g fill="black">
<path d="M 139.3 181.5 L 124.2 176.7 L 110.5 171.0 L 100.35631189346313 165.46707916259766 L 93.8 169.3 L 80.0 175.7 L 65.4 181.1 L 50.0 185.3 L 33.9 188.3 L 17.1 190.0 L 16.8 188.2 L 33.2 184.5 L 48.6 180.1 L 63.2 174.9 L 76.8 168.8 L 89.6 161.9 L 92.39965543746948 160.05689344406127 L 87.9 156.8 L 79.1 148.4 L 72.0 139.0 L 66.7 128.8 L 63.642201805114745 118.7 L 42.0 118.7 L 42.0 114.7 L 139.975 114.7 L 141.1 113.2 L 141.47513809204102 113.4707181930542 L 146.0 109.7 L 157.0 118.7 L 152.0 121.7 L 148.36230363845826 123.21570682525635 L 141.1 132.2 L 130.5 143.1 L 119.1 152.9 L 109.914053440094 159.47205934524536 L 114.7 161.7 L 127.7 166.3 L 142.2 170.1 L 158.2 173.1 L 175.7 175.3 L 186.1 176.5 L 174.2 188.4 L 156.0 185.4 Z M 65.82526311874389 118.7 L 70.4 126.9 L 76.7 135.5 L 84.2 143.3 L 93.0 150.2 L 100.49561405181885 154.72705402374268 L 101.6 154.0 L 112.7 145.2 L 122.9 135.5 L 132.4 124.8 L 136.975 118.7 Z M 97.0 28.0 L 97.0 24.0 L 155.0 24.0 L 161.0 19.0 L 172.0 28.0 L 167.0 32.0 L 167.0 89.2 L 167.2 90.1 L 167.5 91.0 L 167.9 91.4 L 168.8 91.7 L 169.7 91.9 L 171.0 92.0 L 176.0 92.0 L 182.0 67.0 L 184.0 67.0 L 182.0 92.0 L 185.6 94.4 L 188.0 98.0 L 185.6 101.6 L 182.0 104.0 L 171.0 104.0 L 168.4 103.8 L 165.9 103.4 L 163.5 102.6 L 161.2 101.3 L 159.2 99.7 L 157.6 97.7 L 156.3 95.4 L 155.5 93.0 L 155.1 90.5 L 155.0 88.0 L 155.0 28.0 L 128.0 28.0 L 128.0 46.0 L 127.2 55.3 L 126.64137935638428 58.0 L 133.8181818008423 58.0 L 142.0 49.0 L 152.0 58.0 L 152.0 62.0 L 125.81379308700562 62.0 L 125.4 64.0 L 122.7 72.1 L 119.0 79.6 L 114.4 86.4 L 108.9 92.5 L 102.5 97.8 L 95.2 102.3 L 87.2 106.0 L 78.3 108.8 L 77.6 107.1 L 85.5 102.6 L 92.3 97.8 L 98.3 92.7 L 103.3 87.3 L 107.5 81.5 L 110.8 75.3 L 113.3 68.7 L 114.92714281082154 62.0 L 89.0 62.0 L 89.0 58.0 L 115.38947372436523 58.0 L 115.8 54.1 L 116.0 46.0 L 116.0 28.0 Z M 19.2 87.9 L 26.6 86.1 L 34.1 84.3 L 41.8 82.5 L 49.5 80.9 L 51.0 80.5962025642395 L 51.0 34.0 L 20.0 34.0 L 20.0 30.0 L 72.0 30.0 L 82.0 20.0 L 94.0 30.0 L 94.0 34.0 L 63.0 34.0 L 63.0 78.18000001907349 L 65.4 77.7 L 73.5 76.3 L 81.8 75.0 L 90.2 73.9 L 98.8 73.1 L 99.1 74.8 L 91.0 77.6 L 83.0 80.2 L 75.0 82.7 L 67.2 85.1 L 59.5 87.5 L 51.9 89.9 L 44.4 92.2 L 37.0 94.6 L 26.495161247253417 98.10161294937134 L 25.4 101.7 L 22.6 99.4 L 17.3 88.5 Z " />
</g>
</svg>
