<svg xmlns="http://www.w3.org/2000/svg" xmlns:xlink="http://www.w3.org/1999/xlink" version="1.1" baseProfile="full" viewBox="0 0 200 200" width="200" height="200">
<g fill="black">
<path d="M 27.7 22.0 L 43.8 22.0 L 49.8 17.0 L 60.8 26.0 L 55.8 30.0 L 55.8 171.0 L 55.71169118881225 173.2077205657959 L 58.7 169.8 L 64.2 163.4 L 69.4 156.9 L 74.3 150.3 L 79.0 143.5 L 83.3 136.5 L 87.3 129.3 L 91.0 122.0 L 94.4 114.4 L 97.4 106.7 L 98.50514631271362 107.14803228378295 L 98.2 104.3 L 96.4 93.1 L 96.09192705154419 91.77291669845582 L 94.7 94.0 L 91.0 99.5 L 87.2 104.9 L 83.1 110.1 L 78.9 115.2 L 74.5 120.1 L 69.9 124.9 L 64.9 129.4 L 59.7 133.6 L 58.4 132.3 L 62.1 126.8 L 65.7 121.4 L 69.3 116.1 L 72.8 110.7 L 76.2 105.3 L 79.4 99.8 L 82.5 94.3 L 85.4 88.7 L 90.8 77.3 L 92.77427606582641 78.27791242599487 L 90.6 70.6 L 88.1966851234436 63.39005527496338 L 87.2 64.8 L 82.8 70.4 L 78.2 75.8 L 73.3 81.0 L 68.1 85.9 L 62.5 90.6 L 61.2 89.3 L 65.2 83.4 L 69.2 77.6 L 73.0 71.8 L 76.6 66.0 L 80.0 60.1 L 83.3 54.2 L 86.3 48.2 L 89.1 42.1 L 91.6 35.9 L 92.3307692527771 34.0 L 61.1 34.0 L 61.1 30.0 L 113.9 30.0 L 123.9 20.0 L 135.9 30.0 L 135.9 32.0 L 170.9 32.0 L 176.9 27.0 L 187.9 36.0 L 182.9 39.0 L 182.3221559524536 39.240768337249754 L 180.5 57.7 L 177.4 79.3 L 173.6 99.3 L 168.9 117.5 L 163.562362575531 133.90829277038574 L 165.1 138.7 L 169.8 150.6 L 174.9 160.9 L 180.4 169.5 L 186.2 176.6 L 186.9 177.5 L 176.3 185.3 L 170.0 176.5 L 164.4 166.3 L 159.6 154.8 L 157.48562870025634 148.45688619613648 L 157.3 148.9 L 150.4 161.9 L 142.6 173.1 L 133.9 182.4 L 124.5 189.7 L 123.4 188.2 L 131.2 179.8 L 138.2 170.0 L 144.6 158.7 L 150.4 145.8 L 153.82812271118163 136.05337648391725 L 151.7 127.6 L 148.7 111.9 L 146.4 94.8 L 144.6 76.3 L 143.6 56.4 L 143.50467290878296 36.0 L 135.1 36.0 L 135.1 34.0 L 105.49075145721436 34.0 L 108.3 50.2 L 111.2 66.6 L 114.2 81.9 L 115.30600004196167 86.87700004577637 L 115.6 86.1 L 117.0 82.5 L 118.4 79.0 L 119.7 75.5 L 122.1 68.9 L 123.2 65.7 L 124.3 62.6 L 124.9264705657959 60.442156887054445 L 124.8 60.4 L 125.18392858505248 59.55535717010498 L 125.2 59.5 L 125.20761241912842 59.50325260162354 L 125.8 58.2 L 136.2 64.2 L 138.2 67.3 L 134.14646844863893 67.78921928405762 L 132.7 70.2 L 130.8 73.2 L 128.7 76.3 L 126.6 79.3 L 124.3 82.3 L 122.0 85.4 L 119.4 88.4 L 116.38811883926391 91.74653463363647 L 117.4 96.3 L 120.8 109.6 L 124.4 121.9 L 128.2 133.2 L 132.3 143.5 L 136.5 152.6 L 141.0 160.8 L 131.5 170.8 L 129.5 167.1 L 125.2 157.9 L 121.3 147.7 L 117.7 136.7 L 114.5 124.7 L 111.7 111.8 L 109.2 97.9 L 107.1 83.1 L 105.4 67.4 L 104.2 50.7 L 103.73612670898437 37.01573839187622 L 102.0 40.6 L 98.7 46.9 L 95.1 53.0 L 91.3 59.0 L 89.7981411933899 61.124580764770506 L 94.1 69.2 L 98.9 80.2 L 99.34874467849731 81.53442497253418 L 101.5 82.6 L 100.3731164932251 84.58058319091796 L 102.7 91.5 L 105.7 102.9 L 107.09982395172119 110.63236103057861 L 108.5 111.2 L 107.56061105728149 113.17766094207764 L 107.8 114.5 L 109.2 126.3 L 109.6 138.1 L 109.3 150.1 L 108.2 162.2 L 106.2 174.5 L 105.5 176.9 L 104.6 179.3 L 103.3 181.5 L 101.8 183.4 L 100.0 185.2 L 97.9 186.6 L 95.6 187.7 L 93.2 188.4 L 90.7 188.8 L 88.2 189.0 L 88.2 183.0 L 68.2 180.0 L 68.2 177.0 L 88.2 177.0 L 89.5 176.9 L 90.5 176.7 L 91.3 176.5 L 92.0 176.2 L 92.5 175.8 L 92.9 175.4 L 93.3 174.9 L 93.7 174.1 L 94.1 173.1 L 94.5 171.9 L 96.9 160.5 L 98.6 149.2 L 99.6 137.9 L 99.8639476776123 128.0459527015686 L 96.0 134.4 L 91.1 141.6 L 85.8 148.4 L 80.3 155.0 L 74.3 161.2 L 68.0 167.1 L 61.3 172.6 L 54.80981597900391 177.17055215835572 L 54.4 178.4 L 53.2 180.7 L 51.5 182.7 L 49.5 184.3 L 47.3 185.6 L 44.8 186.4 L 42.4 186.8 L 39.8 187.0 L 39.8 181.0 L 25.8 178.0 L 25.8 175.0 L 39.8 175.0 L 41.0 174.9 L 41.9 174.7 L 42.5 174.5 L 42.9 174.4 L 43.1 174.2 L 43.2 174.0 L 43.4 173.7 L 43.6 173.1 L 43.7 172.2 L 43.8 171.0 L 43.8 114.0 L 27.7 114.0 L 27.7 118.0 L 27.3 128.7 L 26.6 138.6 L 25.7 147.7 L 24.5 156.1 L 23.1 163.6 L 21.4 170.4 L 19.3 176.3 L 17.0 181.3 L 14.3 185.4 L 11.2 188.5 L 9.7 187.4 L 10.9 183.7 L 12.0 179.4 L 13.0 174.4 L 13.9 168.7 L 14.7 162.3 L 15.3 155.0 L 15.7 147.0 L 15.9 138.1 L 15.9 128.4 L 15.7 118.0 L 15.7 16.0 Z M 145.43033170700073 36.0 L 147.8 56.0 L 150.5 75.7 L 153.5 93.8 L 156.9 110.3 L 159.01549034118653 118.43650131225586 L 159.9 115.2 L 163.7 97.3 L 166.8 77.8 L 169.2 56.5 L 170.71521739959718 36.0 Z M 27.7 69.0 L 27.7 110.0 L 43.8 110.0 L 43.8 69.0 Z M 27.7 26.0 L 27.7 65.0 L 43.8 65.0 L 43.8 26.0 Z " />
</g>
</svg>
