<svg xmlns="http://www.w3.org/2000/svg" xmlns:xlink="http://www.w3.org/1999/xlink" version="1.1" baseProfile="full" viewBox="0 0 200 200" width="200" height="200">
<g fill="black">
<path d="M 23.8 176.0 L 37.8 176.0 L 39.1 175.9 L 40.0 175.7 L 40.9 175.4 L 41.1 175.2 L 41.2 175.0 L 41.4 174.7 L 41.6 174.1 L 41.8 173.2 L 41.8 110.7710144996643 L 36.2 112.8 L 22.6 117.4 L 19.828210163116456 118.26876993179322 L 18.6 121.9 L 15.9 119.5 L 10.9 108.4 L 12.8 107.9 L 19.6 106.4 L 26.4 104.8 L 33.3 103.2 L 40.3 101.4 L 41.8 101.01971826553344 L 41.8 62.0 L 48.881168842315674 63.180194759368895 L 49.7 61.7 L 52.2 57.2 L 54.8 52.8 L 57.2 48.6 L 59.6 44.5 L 61.8 40.6 L 63.9 36.8 L 65.9 33.0 L 66.95555553436279 31.0 L 13.4 31.0 L 13.4 27.0 L 68.7 27.0 L 69.146399974823 26.62799997329712 L 69.5 25.9 L 69.80519189834595 26.07900676727295 L 74.7 22.0 L 85.7 31.0 L 80.7 34.0 L 77.5666666984558 35.305555534362796 L 77.5 35.4 L 74.9 38.8 L 72.2 42.3 L 69.3 45.8 L 66.3 49.4 L 63.2 53.0 L 59.9 56.6 L 56.3 60.3 L 52.604724407196045 63.80078744888306 L 53.8 64.0 L 56.8 66.0 L 53.8 67.8 L 53.8 97.91111106872559 L 54.6 97.7 L 61.9 95.8 L 69.2 93.8 L 76.8 91.9 L 84.5 90.1 L 85.1 91.8 L 78.1 95.5 L 71.0 98.9 L 64.0 102.0 L 57.0 104.9 L 53.8 106.18000001907349 L 53.8 172.0 L 53.7 174.5 L 53.3 177.0 L 52.4 179.4 L 51.2 181.7 L 49.6 183.7 L 47.6 185.3 L 45.3 186.6 L 42.9 187.4 L 40.4 187.8 L 37.8 188.0 L 37.8 182.0 L 23.8 179.0 Z M 155.0 179.8 L 146.1 175.5 L 138.1 170.5 L 135.80848989486694 168.6340560913086 L 132.8 170.6 L 121.8 176.1 L 110.0 180.7 L 97.3 184.2 L 83.9 186.6 L 69.7 187.8 L 69.5 186.1 L 83.2 182.8 L 95.9 179.0 L 107.6 174.5 L 118.4 169.3 L 128.3 163.3 L 129.09784317016602 162.69937648773194 L 125.0 158.4 L 119.9 151.5 L 115.9 143.9 L 113.0 135.8 L 111.4 127.2 L 112.08000001907348 127.0 L 95.0 127.0 L 95.0 123.0 L 163.2 123.0 L 163.6792452812195 122.60062894821166 L 163.9 122.2 L 164.06023254394532 122.28313951492309 L 169.2 118.0 L 180.2 127.0 L 175.2 130.0 L 172.33796787261963 131.19251337051392 L 168.0 138.2 L 160.5 147.8 L 152.2 156.4 L 144.7922794342041 162.45362110137938 L 151.0 165.6 L 159.2 168.8 L 168.2 171.4 L 178.0 173.5 L 187.1 175.4 L 175.3 186.4 L 164.7 183.5 Z M 113.25200004577637 127.0 L 116.9 134.2 L 121.0 141.1 L 125.7 147.2 L 131.0 152.7 L 136.458775806427 157.1580002784729 L 137.2 156.6 L 145.2 149.2 L 152.3 141.0 L 158.5 132.0 L 161.25510206222535 127.0 Z M 138.3 36.7 L 140.0 33.5 L 141.6 30.5 L 143.2 27.6 L 144.6 24.9 L 145.9 22.4 L 147.0 20.0 L 148.0 17.7 L 148.8 15.6 L 149.14426231384277 14.665573787689208 L 149.0 14.6 L 150.0 12.7 L 160.0 19.6 L 161.6 22.8 L 157.14470691680907 22.876815414428712 L 156.7 23.4 L 154.8 25.4 L 152.8 27.4 L 150.6 29.5 L 148.3 31.7 L 145.8 33.9 L 143.1 36.1 L 140.2 38.4 L 159.3 38.4 L 169.3 28.4 L 181.3 38.4 L 181.3 42.4 L 146.6 42.4 L 146.6 60.6 L 158.61818180084228 60.6 L 166.8 51.6 L 176.8 60.6 L 176.8 64.6 L 146.6 64.6 L 146.6 82.2 L 158.61818180084228 82.2 L 166.8 73.2 L 176.8 82.2 L 176.8 86.2 L 146.6 86.2 L 146.6 105.6 L 167.51818180084229 105.6 L 175.7 96.6 L 185.7 105.6 L 185.7 109.6 L 109.7 109.6 L 97.7 115.6 L 97.7 52.730434799194335 L 95.1 55.5 L 90.3 60.2 L 85.1 64.5 L 79.5 68.6 L 78.3 67.3 L 82.4 61.9 L 86.3 56.6 L 90.1 51.3 L 93.6 46.0 L 96.9 40.7 L 97.7 39.306451606750485 L 97.7 38.4 L 98.220370388031 38.4 L 100.0 35.3 L 102.8 29.9 L 105.4 24.4 L 107.8 18.9 L 109.8 13.2 L 109.87889966964721 13.231700801849366 L 110.4 11.9 L 121.0 17.7 L 123.0 20.7 L 119.23307542800903 21.294777584075927 L 118.1 23.6 L 115.0 29.3 L 111.6 34.9 L 109.2018518447876 38.4 L 137.0935483932495 38.4 Z M 109.7 86.2 L 109.7 105.6 L 134.6 105.6 L 134.6 86.2 Z M 109.7 64.6 L 109.7 82.2 L 134.6 82.2 L 134.6 64.6 Z M 109.7 42.4 L 109.7 60.6 L 134.6 60.6 L 134.6 42.4 Z " />
</g>
</svg>
