<svg xmlns="http://www.w3.org/2000/svg" xmlns:xlink="http://www.w3.org/1999/xlink" version="1.1" baseProfile="full" viewBox="0 0 200 200" width="200" height="200">
<g fill="black">
<path d="M 12.8 112.0 L 12.8 108.0 L 42.4 108.0 L 42.4 74.0 L 28.9 74.0 L 28.9 86.0 L 16.9 92.0 L 16.9 23.0 L 28.9 25.0 L 31.9 27.0 L 28.9 28.8 L 28.9 70.0 L 42.4 70.0 L 42.4 12.0 L 53.4 14.0 L 56.1 16.0 L 53.4 17.723404216766358 L 53.4 98.57058820724487 L 54.9 97.6 L 60.1 95.4 L 62.30775861740112 94.5508620262146 L 63.2 88.9 L 64.3 83.1 L 65.4 77.1 L 66.4 71.0 L 66.53999319076539 70.19822101593017 L 64.3 69.8 L 61.6 66.0 L 61.5 63.8 L 61.4 61.4 L 61.2 59.1 L 60.9 56.8 L 60.6 54.4 L 60.3 52.1 L 59.9 49.7 L 59.5 47.2 L 59.2 44.7 L 58.3 42.4 L 59.9 41.6 L 61.3 43.7 L 62.8 45.3764705657959 L 62.8 44.4 L 62.9 41.2 L 63.1 38.0 L 63.2 34.7 L 63.4 31.3 L 63.8 24.3 L 63.9 20.7 L 64.04555253982544 18.00727758407593 L 63.9 18.0 L 64.3 15.0 L 75.9 18.6 L 78.6 21.0 L 74.91969957351685 22.59711151123047 L 74.0 26.0 L 73.0 29.5 L 72.0 32.9 L 70.8 36.2 L 69.7 39.4 L 68.4 42.5 L 67.0 45.4 L 65.5 48.2 L 65.31428575515747 48.6 L 66.1 49.7 L 67.5 51.9 L 68.8 54.1 L 69.01345081329346 54.47764377593994 L 69.4 51.6 L 70.3 44.8 L 71.07074642181396 38.80530595779419 L 71.0 38.8 L 71.5 35.8 L 83.0 39.7 L 85.7 42.1 L 82.17826089859008 43.534782600402835 L 81.5 46.7 L 80.0 53.6 L 78.3 60.3 L 76.5 66.7 L 75.74406776428222 69.34576272964478 L 77.3 69.0 L 78.7 72.2 L 80.3 75.4 L 81.6 78.8 L 82.9 82.3 L 84.1 85.8 L 85.2 89.4 L 86.0 92.36000003814698 L 86.0 29.1 L 97.0 34.6 L 98.66363639831543 34.6 L 98.7 34.2 L 98.3 31.8 L 98.0 29.5 L 97.7 27.3 L 97.5 25.1 L 97.2 22.9 L 97.0 20.7 L 96.6 16.5 L 96.44343194961547 15.40402364730835 L 96.2 15.4 L 96.5 12.3 L 108.3 15.6 L 111.1 17.9 L 106.82835817337036 19.914925384521485 L 105.5 23.9 L 104.7 26.0 L 103.8 28.1 L 102.9 30.3 L 102.0 32.4 L 100.9 34.5 L 100.87272729873658 34.6 L 107.4 34.6 L 112.9 29.6 L 123.4 38.6 L 118.4 42.1 L 118.4 96.75384616851807 L 121.6 95.4 L 123.80868310928345 94.55050649642945 L 124.8 88.9 L 125.8 83.1 L 126.9 77.1 L 128.0 71.0 L 128.1248713493347 70.21331043243408 L 125.8 69.8 L 123.2 66.0 L 123.1 63.8 L 122.9 61.4 L 122.7 59.1 L 122.4 56.8 L 122.2 54.4 L 121.8 52.1 L 121.4 49.7 L 121.1 47.2 L 120.7 44.7 L 119.8 42.4 L 121.4 41.6 L 122.8 43.7 L 124.4 45.388888931274415 L 124.4 44.4 L 124.6 38.0 L 124.8 34.7 L 125.0 31.3 L 125.1 27.8 L 125.3 24.3 L 125.5 20.7 L 125.5728744506836 18.003643703460693 L 125.5 18.0 L 125.59152545928956 17.313559341430665 L 125.6 17.0 L 125.63274631500244 17.004402828216552 L 125.9 15.0 L 137.5 18.6 L 140.2 21.0 L 136.52873306274415 22.563687801361084 L 135.6 26.0 L 134.6 29.5 L 133.5 32.9 L 132.4 36.2 L 131.2 39.4 L 129.9 42.5 L 128.6 45.4 L 127.1 48.2 L 126.91428575515747 48.6 L 127.7 49.7 L 129.1 51.9 L 130.4 54.1 L 130.57640228271484 54.438104438781735 L 131.0 51.6 L 131.9 44.8 L 132.7 37.8 L 132.73263854980468 37.80521116256714 L 133.0 35.8 L 144.6 39.7 L 147.2 42.1 L 143.78782606124878 43.490144920349124 L 143.1 46.7 L 141.5 53.6 L 139.8 60.3 L 138.1 66.7 L 137.29989948272706 69.35296478271485 L 138.8 69.0 L 140.2 72.2 L 141.8 75.4 L 143.2 78.8 L 145.6 85.8 L 146.7 89.4 L 147.7 93.1 L 148.7 96.9 L 149.6 100.8 L 150.4 104.7 L 149.1 109.1 L 145.2 111.3 L 140.8 110.0 L 138.5 106.0 L 138.2 94.6 L 138.1831428527832 94.28814287185669 L 136.9 95.5 L 135.0 97.3 L 131.0 100.7 L 129.0 102.5 L 126.9 104.3 L 126.12138023376465 104.93031120300293 L 126.0 109.3 L 122.7 107.8 L 118.0893129348755 102.55534353256226 L 108.0285714149475 107.58571424484253 L 110.9 109.5 L 107.9 111.3 L 107.9 124.0 L 122.7 124.0 L 132.7 114.0 L 144.7 124.0 L 144.7 128.0 L 107.9 128.0 L 107.9 136.85744676589965 L 109.5 137.3 L 114.1 138.7 L 118.3 140.4 L 122.4 142.4 L 126.2 144.6 L 129.8 147.1 L 133.1 149.8 L 136.2 152.8 L 139.1 155.9 L 141.6 159.4 L 142.2 163.9 L 139.4 167.5 L 134.9 168.1 L 131.2 165.3 L 129.8 162.3 L 128.0 159.4 L 126.0 156.5 L 123.7 153.7 L 121.2 150.9 L 118.4 148.2 L 115.2 145.5 L 111.8 142.9 L 108.1 140.2 L 107.9 140.075 L 107.9 183.5 L 95.9 189.5 L 95.9 145.72432432174682 L 94.9 147.4 L 90.8 153.3 L 86.3 158.8 L 81.4 164.0 L 76.2 168.8 L 70.6 173.2 L 64.5 177.2 L 58.1 180.7 L 57.1 179.2 L 62.2 174.2 L 67.0 169.2 L 71.5 164.2 L 75.7 159.0 L 79.6 153.6 L 83.1 148.1 L 86.2 142.3 L 89.0 136.4 L 91.5 130.3 L 92.24883718490601 128.0 L 61.3 128.0 L 61.3 124.0 L 95.9 124.0 L 95.9 105.5 L 107.4 107.41666669845581 L 107.4 102.4 L 97.0 102.4 L 88.29333333969116 106.75333337783813 L 87.6 109.1 L 83.6 111.3 L 79.2 110.0 L 77.0 106.0 L 76.8 98.4 L 76.6 94.6 L 76.59305553436279 94.34305553436279 L 75.3 95.5 L 73.4 97.3 L 71.5 99.0 L 69.5 100.7 L 67.5 102.5 L 65.4 104.3 L 64.62138023376465 104.93031120300293 L 64.5 109.3 L 61.2 107.8 L 53.4 98.92749996185303 L 53.4 182.2 L 42.4 187.7 L 42.4 112.0 L 31.8 112.0 L 31.8 126.0 L 31.3 133.6 L 30.6 141.0 L 29.6 148.1 L 28.2 154.8 L 26.5 161.3 L 24.5 167.5 L 22.2 173.3 L 19.5 178.7 L 16.3 183.8 L 12.8 188.4 L 11.4 187.5 L 13.2 182.2 L 14.9 176.8 L 16.5 171.3 L 17.8 165.5 L 18.9 159.6 L 19.8 153.4 L 20.4 146.9 L 20.8 140.2 L 20.9 133.2 L 20.8 126.0 L 20.8 112.0 Z M 171.0 168.8 L 167.3 158.1 L 164.19575204849244 146.59602241516114 L 163.8 148.0 L 159.1 161.0 L 153.9 172.0 L 148.2 180.9 L 142.0 187.6 L 140.7 186.4 L 145.0 178.9 L 149.0 169.7 L 152.9 158.8 L 156.5 146.0 L 159.7 131.3 L 160.4041043281555 127.38048572540283 L 158.3 114.6 L 156.1 96.3 L 154.2 76.0 L 152.8 53.7 L 151.9740740776062 31.4 L 145.6 31.4 L 145.6 27.4 L 171.3 27.4 L 177.3 22.4 L 188.3 31.4 L 183.3 34.4 L 182.85058403015137 34.587256622314456 L 181.0 54.3 L 178.3 76.9 L 175.3 97.6 L 171.9 116.3 L 169.52984848022462 126.50988330841065 L 170.1 129.1 L 173.8 142.9 L 177.7 154.5 L 181.8 164.0 L 185.9 171.3 L 189.9 176.3 L 190.7 177.2 L 180.0 185.0 L 175.2 177.8 Z M 153.9800000190735 31.4 L 156.9 53.3 L 160.0 75.3 L 163.2 95.3 L 164.51011419296265 102.19736585617065 L 165.4 96.1 L 167.7 75.7 L 169.7 53.3 L 171.1419753074646 31.4 Z M 97.0 69.7 L 97.0 98.4 L 107.4 98.4 L 107.4 69.7 Z M 136.2 73.0 L 134.2 79.0 L 132.2 84.8 L 129.9 90.4 L 128.77272729873658 92.78981819152833 L 131.8 91.7 L 136.8 90.3 L 137.97766284942628 90.07352638244629 L 137.9 87.2 L 137.5 80.0 L 137.4 76.4 L 137.3 72.9 L 137.12958278656006 69.91769914627075 Z M 74.7 73.0 L 72.7 79.0 L 70.6 84.8 L 68.4 90.4 L 67.27684297561646 92.78109283447266 L 67.8 92.6 L 70.3 91.7 L 75.3 90.3 L 76.4550802230835 90.06898393630982 L 76.3 87.2 L 76.1 83.6 L 76.0 80.0 L 75.8 76.4 L 75.8 72.9 L 75.55274724960327 70.01538457870484 Z M 97.0 38.6 L 97.0 65.7 L 107.4 65.7 L 107.4 38.6 Z " />
</g>
</svg>
