<svg xmlns="http://www.w3.org/2000/svg" xmlns:xlink="http://www.w3.org/1999/xlink" version="1.1" baseProfile="full" viewBox="0 0 200 200" width="200" height="200">
<g fill="black">
<path d="M 158.1 180.6 L 148.9 175.7 L 140.8 170.1 L 138.1041925430298 167.7786102294922 L 131.4 171.6 L 120.3 176.5 L 108.0 180.5 L 94.6 183.6 L 80.1 185.8 L 79.8 184.1 L 93.7 180.0 L 106.3 175.4 L 117.6 170.5 L 127.7 165.0 L 131.9898163795471 162.07512521743774 L 127.6 157.1 L 122.7 149.6 L 118.9 141.6 L 116.4 133.1 L 115.41000003814698 125.0 L 97.0 125.0 L 97.0 121.0 L 162.0 121.0 L 168.0 116.0 L 179.0 125.0 L 174.0 128.0 L 171.9874493598938 128.83856277465821 L 169.7 134.5 L 164.5 143.7 L 158.0 151.9 L 150.3 159.4 L 146.83690948486327 161.92922334671022 L 154.3 166.0 L 162.8 169.7 L 172.2 172.9 L 182.6 175.5 L 191.1 177.7 L 179.3 188.4 L 168.3 184.8 Z M 20.2 152.9 L 24.0 152.5935483932495 L 24.0 128.0 L 36.0 130.0 L 39.0 132.0 L 36.0 133.8 L 36.0 151.69577465057372 L 40.2 151.4 L 47.6 150.9 L 55.5 150.5 L 63.7 150.0 L 72.4 149.6 L 73.0 149.57362632751466 L 73.0 116.0 L 85.0 118.0 L 88.0 120.0 L 85.0 121.8 L 85.0 149.1631579399109 L 91.0 149.1 L 100.9 149.1 L 101.0 150.8 L 91.3 152.8 L 83.93475179672241 154.2255319595337 L 81.8 158.8 L 78.1 164.2 L 73.7 169.0 L 68.4 173.3 L 62.5 177.0 L 55.8 180.3 L 48.5 183.0 L 40.4 185.2 L 31.6 186.8 L 22.1 187.8 L 21.8 186.1 L 30.7 183.1 L 38.8 180.1 L 46.0 176.9 L 52.4 173.5 L 57.9 169.9 L 62.6 166.0 L 66.4 162.1 L 69.4 157.9 L 70.09834985733032 156.59438943862915 L 64.6 157.5 L 56.4 158.9 L 48.7 160.2 L 41.3 161.4 L 34.4 162.6 L 27.8 163.7 L 25.792554664611817 164.06199836730957 L 24.1 167.5 L 21.7 164.8 L 18.2 153.1 Z M 117.51000003814697 125.0 L 120.4 131.8 L 124.2 139.1 L 128.7 145.7 L 133.9 151.6 L 139.36415090560914 156.51773586273194 L 144.0 152.5 L 150.3 145.4 L 155.4 137.9 L 159.4 129.9 L 160.99534883499146 125.0 Z M 121.0 105.6 L 141.0 105.6 L 142.2 105.5 L 143.1 105.3 L 144.0 105.0 L 144.4 104.6 L 144.7 103.7 L 144.9 102.8 L 145.0 101.6 L 145.0 84.2 L 56.0 84.2 L 56.0 111.0 L 44.0 117.0 L 44.0 84.2 L 16.0 84.2 L 16.0 80.2 L 44.0 80.2 L 44.0 24.4 L 56.0 30.4 L 94.0 30.4 L 94.0 11.6 L 106.0 13.6 L 109.0 15.6 L 106.0 17.4 L 106.0 30.4 L 145.0 30.4 L 151.0 25.4 L 162.0 34.4 L 157.0 38.4 L 157.0 80.2 L 165.0 80.2 L 175.0 70.2 L 187.0 80.2 L 187.0 84.2 L 157.0 84.2 L 157.0 101.6 L 156.8 104.1 L 156.4 106.6 L 155.6 109.0 L 154.3 111.3 L 152.7 113.3 L 150.7 114.9 L 148.4 116.2 L 146.0 117.0 L 143.5 117.4 L 141.0 117.6 L 141.0 111.6 L 121.0 108.6 Z M 56.0 59.6 L 56.0 80.2 L 94.0 80.2 L 94.0 59.6 Z M 106.0 59.6 L 106.0 80.2 L 145.0 80.2 L 145.0 59.6 Z M 56.0 34.4 L 56.0 55.6 L 94.0 55.6 L 94.0 34.4 Z M 106.0 34.4 L 106.0 55.6 L 145.0 55.6 L 145.0 34.4 Z " />
</g>
</svg>
