<svg xmlns="http://www.w3.org/2000/svg" xmlns:xlink="http://www.w3.org/1999/xlink" version="1.1" baseProfile="full" viewBox="0 0 200 200" width="200" height="200">
<g fill="black">
<path d="M 159.0 182.7 L 149.8 178.3 L 141.3 173.3 L 135.26052322387696 168.98608798980712 L 126.9 173.7 L 116.6 178.3 L 105.4 182.4 L 93.2 185.8 L 80.2 188.4 L 79.7 186.7 L 92.1 182.1 L 103.5 177.4 L 113.9 172.4 L 123.2 167.0 L 128.57213621139528 163.41857585906982 L 126.6 161.7 L 120.5 155.0 L 115.2 147.7 L 110.9 139.9 L 107.91428575515747 132.3 L 94.0 132.3 L 94.0 128.3 L 158.0 128.3 L 158.43494424819946 127.93754644393921 L 158.5 127.8 L 158.5649582862854 127.82920141220093 L 164.0 123.3 L 175.0 132.3 L 170.0 135.3 L 167.34621410369874 136.40574417114257 L 164.8 141.0 L 159.1 148.8 L 152.4 156.0 L 144.8 162.5 L 143.99102725982667 163.06152229309083 L 146.5 164.5 L 154.5 168.3 L 163.2 171.6 L 172.5 174.4 L 182.4 176.7 L 191.2 178.8 L 179.5 189.6 L 168.9 186.4 Z M 81.0 122.6 L 84.0 124.6 L 81.0 126.4 L 81.0 149.1 L 80.57463474273682 151.7682002067566 L 89.8 150.7 L 99.8 149.7 L 100.1 151.4 L 90.5 154.4 L 81.3 157.0 L 79.25739841461181 157.55707321166992 L 77.3 162.3 L 73.3 167.9 L 68.0 172.7 L 61.7 176.8 L 54.2 180.3 L 45.7 183.2 L 36.0 185.6 L 25.1 187.3 L 13.1 188.4 L 12.8 186.6 L 24.4 183.6 L 34.6 180.4 L 43.5 177.0 L 51.0 173.4 L 57.2 169.6 L 62.0 165.6 L 65.5 161.6 L 65.74191932678222 161.1491502761841 L 64.0 161.6 L 56.0 163.6 L 48.4 165.4 L 41.1 167.1 L 34.3 168.7 L 27.9 170.2 L 26.011111068725587 170.60925922393798 L 24.4 174.1 L 21.9 171.5 L 18.0 160.0 L 19.9 159.7 L 26.0 159.0 L 30.0 158.5 L 30.0 126.4 L 42.0 128.4 L 45.0 130.4 L 42.0 132.2 L 42.0 156.93013696670533 L 46.6 156.3 L 54.4 155.2 L 62.6 154.1 L 68.80773000717163 153.23380508422852 L 69.0 149.1 L 69.0 120.6 Z M 110.38857145309449 132.3 L 114.4 137.7 L 119.9 144.1 L 125.8 150.0 L 132.1 155.4 L 135.74546871185302 157.93597822189332 L 138.9 155.3 L 145.2 149.0 L 150.6 142.3 L 155.0 135.2 L 156.37162160873413 132.3 Z M 169.4 118.0 L 167.7 116.1 L 165.9 114.2 L 164.0 112.4 L 161.9 110.6 L 159.6 108.8 L 157.2 106.9 L 154.7 105.1 L 151.9 103.6 L 152.5 101.9 L 155.6 102.7 L 158.9 103.2 L 162.0 104.0 L 165.0 104.9 L 167.9 106.0 L 170.7 107.2 L 173.5 108.6 L 176.1 110.1 L 178.6 111.8 L 181.0 113.6 L 182.6 117.9 L 180.8 122.1 L 176.5 123.7 L 172.3 121.9 L 170.9 119.9 Z M 139.0 107.6 L 139.5 111.2 L 135.50620155334474 109.9162790298462 L 133.2 111.3 L 130.1 113.0 L 126.8 114.7 L 123.3 116.3 L 119.6 117.9 L 115.8 119.4 L 111.7 120.7 L 107.4 121.9 L 103.0 123.3 L 102.2 121.6 L 106.1 119.2 L 109.6 116.6 L 113.0 114.2 L 116.2 111.8 L 119.2 109.5 L 122.0 107.3 L 124.6 105.0 L 127.0 102.9 L 129.1 100.7 L 130.33578147888184 99.3341362953186 L 130.3 99.3 L 130.64054050445557 98.9972972869873 L 131.0 98.6 L 131.0386206626892 98.6434482574463 L 131.2 98.5 Z M 70.2 106.6 L 78.2 106.6 L 79.4 106.5 L 80.3 106.4 L 80.9 106.2 L 81.3 106.0 L 81.6 105.7 L 81.8 105.3 L 82.0 104.7 L 82.1 103.8 L 82.2 102.6 L 82.2 84.8 L 68.5 84.8 L 68.5 118.8 L 56.5 124.8 L 56.5 84.8 L 43.6 84.8 L 43.6 113.1 L 31.6 119.1 L 31.6 74.8 L 43.6 80.8 L 56.5 80.8 L 56.5 69.0 L 68.5 71.0 L 71.5 73.0 L 68.5 74.8 L 68.5 80.8 L 82.2 80.8 L 88.2 75.8 L 99.2 84.8 L 94.2 88.8 L 94.2 102.6 L 94.1 105.2 L 93.6 107.6 L 92.8 110.1 L 91.6 112.3 L 89.9 114.3 L 87.9 116.0 L 85.7 117.2 L 83.3 118.0 L 80.8 118.5 L 78.2 118.6 L 78.2 112.6 L 70.2 109.6 Z M 106.1 93.0 L 122.7 93.0 L 122.7 35.7 L 110.4 35.7 L 110.4 31.7 L 122.7 31.7 L 122.7 15.2 L 134.7 17.2 L 137.7 19.2 L 134.7 21.0 L 134.7 31.7 L 156.5 31.7 L 156.5 15.2 L 168.5 17.2 L 171.5 19.2 L 168.5 21.0 L 168.5 31.7 L 172.5 31.7 L 177.0 25.7 L 183.0 31.7 L 183.0 35.7 L 168.5 35.7 L 168.5 93.0 L 172.2777777671814 93.0 L 178.5 86.0 L 186.5 93.0 L 186.5 97.0 L 106.1 97.0 Z M 134.7 75.7 L 134.7 93.0 L 156.5 93.0 L 156.5 75.7 Z M 17.5 80.2 L 16.8 75.7 L 19.4 71.9 L 19.8 72.2 L 20.5 72.1 L 21.3 71.7 L 22.2 71.0 L 23.2 69.8 L 24.1 68.3 L 25.0 66.4 L 25.8 64.2 L 26.6 61.7 L 26.7 59.0 L 28.5 58.9 L 28.7 61.8 L 28.829629611968993 62.3 L 94.8 62.3 L 95.63225803375244 61.60645160675049 L 95.7 61.2 L 95.94385566711426 61.34678688049316 L 100.8 57.3 L 111.8 66.3 L 106.8 69.3 L 99.6 72.3 L 98.1 73.4 L 96.5 74.5 L 94.8 75.6 L 92.9 76.8 L 91.4 78.4 L 90.0 77.2 L 91.3 75.5 L 92.0 73.4 L 92.7 71.5 L 93.4 69.8 L 94.0 68.1 L 94.5 66.5 L 94.55333337783813 66.3 L 29.688000011444093 66.3 L 29.8 67.0 L 30.0 69.4 L 30.0 71.7 L 29.8 74.0 L 29.4 76.2 L 28.6 78.3 L 27.4 80.3 L 25.8 82.1 L 21.2 82.8 Z M 134.7 55.7 L 134.7 71.7 L 156.5 71.7 L 156.5 55.7 Z M 97.0 23.0 L 92.0 27.0 L 92.0 33.8 L 96.2 33.8 L 100.7 27.8 L 106.7 33.8 L 106.7 37.8 L 92.0 37.8 L 92.0 52.7 L 80.0 58.7 L 80.0 52.7 L 31.1 52.7 L 31.1 48.7 L 80.0 48.7 L 80.0 37.8 L 17.7 37.8 L 17.7 33.8 L 80.0 33.8 L 80.0 23.0 L 32.2 23.0 L 32.2 19.0 L 80.0 19.0 L 86.0 14.0 Z M 134.7 35.7 L 134.7 51.7 L 156.5 51.7 L 156.5 35.7 Z " />
</g>
</svg>
