<svg xmlns="http://www.w3.org/2000/svg" xmlns:xlink="http://www.w3.org/1999/xlink" version="1.1" baseProfile="full" viewBox="0 0 200 200" width="200" height="200">
<g fill="black">
<path d="M 159.6 167.4 L 151.4 155.7 L 145.12558135986328 144.21162786483765 L 141.6 149.5 L 130.7 162.5 L 118.5 173.6 L 105.1 182.7 L 90.6 189.8 L 89.8 188.1 L 103.0 179.5 L 109.6 174.0 L 12.0 174.0 L 12.0 170.0 L 59.0 170.0 L 59.0 133.0 L 20.0 133.0 L 20.0 129.0 L 59.0 129.0 L 59.0 91.0 L 71.0 93.0 L 74.0 95.0 L 71.0 96.8 L 71.0 129.0 L 87.0 129.0 L 97.0 119.0 L 109.0 129.0 L 109.0 133.0 L 71.0 133.0 L 71.0 170.0 L 95.0 170.0 L 105.0 160.0 L 115.61764707565308 168.84803924560546 L 125.8 158.1 L 135.4 145.2 L 141.1760895729065 135.39408044815065 L 138.1 128.2 L 132.9 112.4 L 128.7 95.1 L 125.5 76.5 L 123.3 56.5 L 122.34651165008545 36.0 L 108.2 36.0 L 108.2 32.0 L 169.8 32.0 L 175.8 27.0 L 186.8 36.0 L 181.8 39.0 L 180.97318181991577 39.34450759887695 L 178.1 58.1 L 173.3 79.8 L 167.2 99.9 L 159.9 118.2 L 151.55846099853517 134.49053497314452 L 153.3 138.0 L 160.6 149.7 L 168.6 159.8 L 177.3 168.4 L 186.6 175.6 L 190.0 177.9 L 179.0 186.3 L 168.8 177.6 Z M 124.27285718917847 36.0 L 127.4 55.9 L 131.3 75.5 L 135.7 93.4 L 140.9 109.8 L 146.7 124.7 L 146.70612659454346 124.71234607696533 L 151.4 114.5 L 157.7 96.7 L 162.8 77.3 L 166.9 56.1 L 169.45657892227172 36.0 Z M 42.0 26.0 L 85.0 26.0 L 91.0 21.0 L 102.0 30.0 L 97.0 34.0 L 97.0 90.0 L 85.0 96.0 L 85.0 84.0 L 42.0 84.0 L 42.0 96.0 L 30.0 102.0 L 30.0 20.0 Z M 42.0 30.0 L 42.0 80.0 L 85.0 80.0 L 85.0 30.0 Z " />
</g>
</svg>
