<svg xmlns="http://www.w3.org/2000/svg" xmlns:xlink="http://www.w3.org/1999/xlink" version="1.1" baseProfile="full" viewBox="0 0 200 200" width="200" height="200">
<g fill="black">
<path d="M 159.6 167.4 L 151.4 155.7 L 145.12558135986328 144.21162786483765 L 141.6 149.5 L 130.7 162.5 L 118.5 173.6 L 105.1 182.7 L 90.6 189.8 L 89.8 188.1 L 103.0 179.5 L 115.0 169.5 L 125.8 158.1 L 135.4 145.2 L 141.1760895729065 135.39408044815065 L 138.1 128.2 L 132.9 112.4 L 128.7 95.1 L 125.5 76.5 L 123.3 56.5 L 122.34651165008545 36.0 L 108.2 36.0 L 108.2 32.0 L 169.8 32.0 L 175.8 27.0 L 186.8 36.0 L 181.8 39.0 L 180.97318181991577 39.34450759887695 L 178.1 58.1 L 173.3 79.8 L 167.2 99.9 L 159.9 118.2 L 151.55846099853517 134.49053497314452 L 153.3 138.0 L 160.6 149.7 L 168.6 159.8 L 177.3 168.4 L 186.6 175.6 L 190.0 177.9 L 179.0 186.3 L 168.8 177.6 Z M 13.7 160.9 L 21.0 159.5 L 27.0 158.2692307472229 L 27.0 69.0 L 39.0 71.0 L 42.0 73.0 L 39.0 74.8 L 39.0 155.6402298927307 L 45.7 154.1 L 54.7 151.8 L 56.0 151.4715789794922 L 56.0 38.0 L 14.0 38.0 L 14.0 34.0 L 82.0 34.0 L 92.0 24.0 L 104.0 34.0 L 104.0 38.0 L 68.0 38.0 L 68.0 88.0 L 80.77777776718139 88.0 L 87.0 81.0 L 95.0 88.0 L 95.0 92.0 L 68.0 92.0 L 68.0 148.36363639831544 L 74.1 146.7 L 84.5 143.9 L 95.3 141.0 L 106.6 138.1 L 107.3 139.8 L 96.6 144.6 L 86.2 149.0 L 76.2 153.0 L 66.5 156.6 L 57.2 160.0 L 48.2 163.0 L 39.7 165.8 L 31.5 168.3 L 23.6 170.6 L 20.188463306427003 171.52203693389893 L 18.8 175.1 L 16.2 172.6 L 11.7 161.3 Z M 124.27285718917847 36.0 L 127.4 55.9 L 131.3 75.5 L 135.7 93.4 L 140.9 109.8 L 146.7 124.7 L 146.70612659454346 124.71234607696533 L 151.4 114.5 L 157.7 96.7 L 162.8 77.3 L 166.9 56.1 L 169.45657892227172 36.0 Z " />
</g>
</svg>
