<svg xmlns="http://www.w3.org/2000/svg" xmlns:xlink="http://www.w3.org/1999/xlink" version="1.1" baseProfile="full" viewBox="0 0 200 200" width="200" height="200">
<g fill="black">
<path d="M 140.3 184.0 L 125.4 180.7 L 112.0 176.6 L 100.4826509475708 171.8173720359802 L 92.2 175.6 L 78.7 180.6 L 64.5 184.6 L 49.4 187.7 L 33.6 189.8 L 17.0 190.8 L 16.9 189.0 L 33.0 186.0 L 48.3 182.4 L 62.7 178.3 L 76.1 173.4 L 88.7 167.9 L 91.04835844039917 166.63549928665162 L 89.9 166.0 L 81.3 159.6 L 74.4 152.3 L 69.4 144.3 L 66.5 135.7 L 66.95714282989502 135.5 L 45.0 135.5 L 45.0 131.5 L 136.6879120826721 131.5 L 138.4 129.6 L 138.83100109100343 129.97416572570802 L 143.0 126.5 L 154.0 135.5 L 149.0 138.5 L 144.71428575515748 140.28571424484252 L 138.1 146.9 L 127.8 155.4 L 116.7 163.0 L 111.92563848495483 165.75132703781128 L 115.1 166.8 L 127.9 169.9 L 142.2 172.3 L 158.0 174.1 L 175.3 175.2 L 186.5 175.8 L 174.6 188.3 L 156.6 186.5 Z M 68.4450704574585 135.5 L 73.0 142.1 L 78.8 148.3 L 85.8 153.9 L 94.1 158.8 L 100.43314046859741 161.57882690429688 L 111.2 154.7 L 121.1 147.0 L 130.2 138.7 L 133.08351650238038 135.5 Z M 106.25897436141967 83.0 L 140.0 83.0 L 140.0 67.9 L 108.0 67.9 L 108.0 72.7 L 106.9 81.0 Z M 42.0 27.2 L 96.0 27.2 L 96.0 12.6 L 108.0 14.6 L 111.0 16.6 L 108.0 18.4 L 108.0 27.2 L 156.0 27.2 L 166.0 17.2 L 178.0 27.2 L 178.0 31.2 L 42.0 31.2 L 42.0 68.0 L 41.4 75.6 L 40.4 82.9 L 39.0 89.9 L 37.1 96.6 L 34.7 102.9 L 31.9 108.8 L 28.5 114.2 L 24.7 119.3 L 20.4 123.8 L 15.6 127.7 L 14.3 126.5 L 17.5 121.4 L 20.3 116.3 L 22.8 111.1 L 24.9 105.6 L 26.7 100.0 L 28.1 94.2 L 29.1 88.0 L 29.8 81.6 L 30.1 74.9 L 30.0 68.0 L 30.0 21.2 Z M 108.0 50.2 L 108.0 63.9 L 140.0 63.9 L 140.0 50.2 Z M 147.7 123.2 L 139.7 119.6 L 132.4 115.5 L 125.8 111.0 L 119.8 106.2 L 114.5 100.9 L 110.0 95.3 L 106.3 89.3 L 105.365625 87.0 L 104.97692308425903 87.0 L 104.4 88.8 L 100.4 96.0 L 95.0 102.5 L 88.4 108.4 L 80.6 113.7 L 71.6 118.3 L 61.4 122.4 L 49.9 125.9 L 37.2 128.7 L 36.7 126.9 L 48.7 122.3 L 59.3 117.5 L 68.6 112.5 L 76.5 107.3 L 83.0 101.9 L 88.1 96.4 L 91.8 90.7 L 93.39482755661011 87.0 L 53.0 87.0 L 53.0 83.0 L 94.75084743499755 83.0 L 95.7 79.0 L 96.0 72.7 L 96.0 67.9 L 48.0 67.9 L 48.0 63.9 L 96.0 63.9 L 96.0 50.2 L 54.0 50.2 L 54.0 46.2 L 96.0 46.2 L 96.0 34.3 L 108.0 36.3 L 111.0 38.3 L 108.0 40.1 L 108.0 46.2 L 140.0 46.2 L 146.0 41.2 L 157.0 50.2 L 152.0 54.2 L 152.0 63.9 L 160.8181818008423 63.9 L 169.0 54.9 L 179.0 63.9 L 179.0 67.9 L 152.0 67.9 L 152.0 93.0 L 140.0 99.0 L 140.0 87.0 L 109.9043478012085 87.0 L 114.4 91.4 L 119.5 95.6 L 124.9 99.6 L 130.9 103.2 L 137.3 106.5 L 144.3 109.5 L 151.8 112.2 L 159.9 114.6 L 168.6 116.6 L 177.1 118.8 L 165.3 129.4 L 156.2 126.5 Z " />
</g>
</svg>
