<svg xmlns="http://www.w3.org/2000/svg" xmlns:xlink="http://www.w3.org/1999/xlink" version="1.1" baseProfile="full" viewBox="0 0 200 200" width="200" height="200">
<g fill="black">
<path d="M 22.3 151.9 L 26.0 151.71499996185304 L 26.0 129.0 L 38.0 131.0 L 41.0 133.0 L 38.0 134.8 L 38.0 151.00588235855102 L 41.5 150.8 L 48.7 150.4 L 56.2 150.0 L 64.1 149.5 L 72.5 149.0 L 72.94378318786622 148.9795961380005 L 73.0 148.825 L 73.0 120.0 L 85.0 122.0 L 88.0 124.0 L 85.0 125.8 L 85.0 148.43296699523927 L 90.3 148.2 L 99.8 148.1 L 100.1 149.8 L 90.8 152.0 L 83.82783823013305 153.47190084457398 L 81.8 157.6 L 78.2 162.9 L 73.9 167.6 L 68.8 171.9 L 63.1 175.7 L 56.6 179.1 L 49.6 182.0 L 41.8 184.5 L 33.3 186.4 L 24.2 187.8 L 23.7 186.1 L 32.2 182.8 L 40.0 179.4 L 46.9 176.0 L 53.0 172.4 L 58.3 168.7 L 62.8 164.8 L 66.6 160.8 L 69.5 156.6 L 69.7391001701355 156.14353609085083 L 65.0 157.0 L 57.2 158.4 L 49.7 159.7 L 42.6 160.8 L 35.9 161.9 L 29.5 162.9 L 27.615449905395508 163.18268251419067 L 25.8 166.6 L 23.5 163.8 L 20.4 152.1 Z M 155.0 178.5 L 146.1 174.1 L 138.2 169.0 L 135.08227500915527 166.46128101348876 L 128.8 169.9 L 118.2 174.4 L 106.5 178.1 L 93.9 180.9 L 80.1 182.8 L 79.8 181.1 L 92.9 177.2 L 104.9 173.0 L 115.6 168.3 L 125.2 163.2 L 128.88407373428345 160.78780879974366 L 125.3 156.9 L 120.5 150.0 L 116.9 142.5 L 114.4 134.5 L 113.41785717010498 127.0 L 97.0 127.0 L 97.0 123.0 L 158.0 123.0 L 164.0 118.0 L 175.0 127.0 L 170.0 130.0 L 167.91076231002808 130.87051572799683 L 165.7 135.9 L 160.6 144.3 L 154.3 151.9 L 146.8 158.7 L 144.1405387878418 160.57726678848266 L 151.1 164.2 L 159.3 167.5 L 168.4 170.3 L 178.4 172.5 L 187.3 174.5 L 175.5 185.4 L 164.8 182.3 Z M 115.57200002670288 127.0 L 118.3 133.2 L 122.1 139.8 L 126.5 145.9 L 131.5 151.3 L 136.3872241973877 155.34459934234619 L 140.7 151.7 L 146.8 145.2 L 151.6 138.3 L 155.5 131.0 L 156.8670886039734 127.0 Z M 18.3 107.3 L 42.7 107.3 L 42.7 72.2 L 54.7 78.2 L 90.0 78.2 L 90.0 72.3 L 70.0 69.3 L 70.0 66.3 L 91.2 66.3 L 92.1 66.1 L 92.7 65.9 L 93.0 65.7 L 93.2 65.6 L 93.4 65.4 L 93.7 64.5 L 93.9 63.6 L 94.0 62.3 L 94.0 46.5 L 22.3 46.5 L 22.3 42.5 L 94.0 42.5 L 94.0 33.1 L 103.47217388153076 34.67869567871094 L 107.1 32.8 L 112.4 30.1 L 117.4 27.7 L 126.2 23.3 L 128.86000003814698 21.9 L 45.8 21.9 L 45.8 17.9 L 136.1470588684082 17.9 L 136.5 17.7 L 139.1 16.1 L 141.3 14.6 L 141.56786880493163 15.093442630767822 L 144.2 12.9 L 155.2 21.9 L 150.2 24.9 L 138.2 29.9 L 138.2 28.248571395874023 L 137.4 28.5 L 133.5 29.7 L 129.2 31.0 L 124.6 32.3 L 119.5 33.6 L 114.1 34.9 L 108.3 36.1 L 107.68909091949463 36.22606058120728 L 109.0 37.1 L 106.0 38.9 L 106.0 42.5 L 155.6 42.5 L 165.6 32.5 L 177.6 42.5 L 177.6 46.5 L 106.0 46.5 L 106.0 62.3 L 105.8 64.9 L 105.4 67.4 L 104.6 69.8 L 103.3 72.0 L 101.7 74.1 L 99.7 75.7 L 97.4 76.9 L 95.0 77.7 L 92.5 78.2 L 145.3 78.2 L 151.3 73.2 L 162.3 82.2 L 157.3 86.2 L 157.3 107.3 L 163.51818180084229 107.3 L 171.7 98.3 L 181.7 107.3 L 181.7 111.3 L 18.3 111.3 Z M 54.7 82.2 L 54.7 107.3 L 76.9 107.3 L 76.9 82.2 Z M 88.9 82.2 L 88.9 107.3 L 111.1 107.3 L 111.1 82.2 Z M 123.1 82.2 L 123.1 107.3 L 145.3 107.3 L 145.3 82.2 Z " />
</g>
</svg>
