<svg xmlns="http://www.w3.org/2000/svg" xmlns:xlink="http://www.w3.org/1999/xlink" version="1.1" baseProfile="full" viewBox="0 0 200 200" width="200" height="200">
<g fill="black">
<path d="M 158.5 180.5 L 149.3 175.2 L 140.9 169.1 L 135.26720247268676 164.12558135986328 L 127.2 169.9 L 116.9 175.9 L 105.6 181.1 L 93.4 185.5 L 80.2 189.0 L 79.7 187.3 L 92.0 182.0 L 103.3 176.2 L 113.6 170.2 L 122.9 163.6 L 129.44237060546874 158.16116180419922 L 126.3 154.7 L 120.2 146.5 L 115.0 137.7 L 110.7 128.2 L 107.71960783004761 118.7 L 94.0 118.7 L 94.0 114.7 L 158.0 114.7 L 164.0 109.7 L 175.0 118.7 L 170.0 121.7 L 167.86242542266845 122.59065608978271 L 165.0 129.0 L 159.4 138.6 L 152.8 147.5 L 145.2 155.7 L 142.7975549697876 157.79154033660888 L 146.9 160.8 L 155.0 165.7 L 163.6 169.9 L 172.9 173.5 L 182.8 176.4 L 190.8 178.7 L 179.1 189.1 L 168.5 185.2 Z M 81.0 106.8 L 84.0 108.8 L 81.0 110.6 L 81.0 140.2 L 80.45768461227416 144.14411182403563 L 89.7 142.7 L 99.7 141.2 L 100.2 142.9 L 90.6 146.3 L 81.4 149.4 L 79.30242910385132 150.06740894317628 L 77.5 155.7 L 73.6 162.5 L 68.4 168.5 L 62.0 173.7 L 54.5 178.1 L 45.9 181.9 L 36.1 185.0 L 25.2 187.4 L 13.1 189.1 L 12.8 187.3 L 24.3 183.7 L 34.4 180.0 L 43.2 175.9 L 50.7 171.6 L 56.9 167.0 L 61.6 162.1 L 65.2 157.0 L 66.45801763534546 154.10108976364137 L 64.2 154.8 L 56.2 157.2 L 48.6 159.4 L 41.4 161.5 L 34.5 163.4 L 28.2 165.1 L 26.129765892028807 165.65206241607666 L 24.7 169.2 L 22.2 166.7 L 17.7 155.4 L 19.7 155.0 L 25.7 154.0 L 30.0 153.27230768203736 L 30.0 112.1 L 42.0 114.1 L 45.0 116.1 L 42.0 117.9 L 42.0 151.18356161117555 L 46.4 150.4 L 54.2 148.9 L 62.4 147.4 L 68.67420196533203 146.31824102401734 L 68.7 146.2 L 69.0 140.2 L 69.0 104.8 Z M 110.00888891220093 118.7 L 114.4 126.3 L 120.0 134.6 L 126.0 142.2 L 132.4 149.1 L 135.72815055847167 152.04779052734375 L 138.5 149.2 L 144.9 141.3 L 150.3 132.9 L 154.7 124.1 L 156.7680850982666 118.7 Z M 164.6 105.6 L 156.6 102.3 L 149.3 98.7 L 142.8 94.7 L 136.9 90.5 L 131.8 85.9 L 127.4 81.0 L 124.0 75.8 L 121.99272727966309 71.0 L 71.6127272605896 71.0 L 79.2 74.9 L 81.4 77.8 L 77.19616727828979 78.68501739501953 L 76.5 80.0 L 72.7 84.5 L 68.1 88.6 L 62.7 92.3 L 56.4 95.6 L 49.3 98.7 L 41.4 101.5 L 32.5 104.0 L 22.8 106.1 L 12.2 107.8 L 11.7 106.1 L 21.8 102.4 L 30.9 98.9 L 39.0 95.4 L 46.2 91.8 L 52.3 88.2 L 57.5 84.6 L 61.6 81.0 L 64.6 77.5 L 66.7 74.1 L 67.60548334121704 71.8014654159546 L 67.6 71.8 L 67.9 71.0 L 18.0 71.0 L 18.0 67.0 L 94.0 67.0 L 94.0 51.0 L 31.0 51.0 L 31.0 47.0 L 94.0 47.0 L 94.0 32.0 L 27.0 32.0 L 27.0 28.0 L 94.0 28.0 L 94.0 13.0 L 106.0 15.0 L 109.0 17.0 L 106.0 18.8 L 106.0 28.0 L 152.0 28.0 L 162.0 18.0 L 174.0 28.0 L 174.0 32.0 L 106.0 32.0 L 106.0 47.0 L 151.8181818008423 47.0 L 160.0 38.0 L 170.0 47.0 L 170.0 51.0 L 106.0 51.0 L 106.0 67.0 L 162.0 67.0 L 172.0 57.0 L 184.0 67.0 L 184.0 71.0 L 124.98717947006226 71.0 L 127.3 73.2 L 131.7 76.9 L 136.4 80.3 L 141.6 83.6 L 147.4 86.6 L 153.8 89.4 L 160.7 92.0 L 168.3 94.4 L 176.6 96.6 L 185.5 98.5 L 194.2 100.6 L 182.4 111.4 L 173.2 108.6 Z " />
</g>
</svg>
