<svg xmlns="http://www.w3.org/2000/svg" xmlns:xlink="http://www.w3.org/1999/xlink" version="1.1" baseProfile="full" viewBox="0 0 200 200" width="200" height="200">
<g fill="black">
<path d="M 160.1 168.3 L 151.2 158.3 L 143.1 146.7 L 138.1709319114685 137.7743902206421 L 130.9 148.6 L 121.0 160.2 L 110.3 169.9 L 98.7 177.7 L 86.4 183.3 L 85.6 181.7 L 96.6 174.5 L 106.8 165.9 L 116.1 155.8 L 124.7 144.2 L 132.5 131.0 L 133.64614810943604 128.56034183502197 L 129.2 118.3 L 123.3 101.5 L 118.3 82.9 L 114.0 62.7 L 110.9687783241272 42.4 L 95.5 42.4 L 95.5 38.4 L 160.0 38.4 L 166.0 33.4 L 177.0 42.4 L 172.0 45.4 L 170.96616144180297 45.830766105651854 L 167.2 63.7 L 161.7 84.1 L 155.3 102.9 L 148.0 119.9 L 143.59995946884155 128.2111876487732 L 144.0 129.0 L 151.6 141.1 L 159.6 151.3 L 168.0 159.6 L 176.8 166.0 L 185.9 170.7 L 191.8 173.4 L 180.4 182.8 L 169.8 176.4 Z M 15.4 152.7 L 21.5 151.0 L 27.9 149.2 L 34.7 147.3 L 41.7 145.3 L 41.8 145.27162160873414 L 41.8 50.4 L 17.4 50.4 L 17.4 46.4 L 62.7 46.4 L 72.7 36.4 L 84.7 46.4 L 84.7 50.4 L 53.8 50.4 L 53.8 141.9181818008423 L 56.8 141.1 L 64.8 138.8 L 73.1 136.6 L 81.8 134.4 L 90.9 132.2 L 91.5 133.9 L 83.1 137.9 L 74.9 141.6 L 66.9 145.0 L 59.2 148.2 L 51.8 151.2 L 44.7 154.1 L 37.9 156.8 L 31.3 159.4 L 25.1 161.8 L 23.019524669647218 162.5975154876709 L 22.0 166.3 L 19.1 164.1 L 13.5 153.4 Z M 113.04953269958496 42.4 L 118.1 61.7 L 123.9 81.3 L 130.2 99.1 L 136.9 115.0 L 138.517959690094 118.19034299850463 L 139.5 116.1 L 145.8 99.5 L 151.4 81.2 L 156.1 61.2 L 159.54954128265382 42.4 Z " />
</g>
</svg>
