<svg xmlns="http://www.w3.org/2000/svg" xmlns:xlink="http://www.w3.org/1999/xlink" version="1.1" baseProfile="full" viewBox="0 0 200 200" width="200" height="200">
<g fill="black">
<path d="M 140.2 181.8 L 125.2 178.2 L 111.9 173.7 L 100.47958660125732 168.6135973930359 L 92.3 172.8 L 78.8 178.2 L 64.5 182.7 L 49.5 186.2 L 33.6 188.6 L 17.0 189.8 L 16.9 188.1 L 33.0 184.8 L 48.3 181.0 L 62.6 176.5 L 76.0 171.2 L 88.6 165.1 L 91.63958101272583 163.31817665100098 L 89.8 162.2 L 81.2 155.1 L 74.3 147.2 L 69.4 138.5 L 66.4 129.2 L 66.96666669845581 129.0 L 45.0 129.0 L 45.0 125.0 L 136.72399997711182 125.0 L 138.2 123.2 L 138.692972946167 123.58918914794921 L 143.0 120.0 L 154.0 129.0 L 149.0 132.0 L 144.9879895210266 133.67167100906372 L 138.3 141.0 L 128.0 150.4 L 116.9 158.8 L 110.97851581573487 162.53202781677246 L 115.3 164.1 L 128.0 167.5 L 142.2 170.2 L 158.0 172.1 L 175.4 173.4 L 186.4 174.1 L 174.5 186.5 L 156.6 184.6 Z M 68.34810123443603 129.0 L 73.0 136.5 L 78.9 143.5 L 85.9 149.7 L 94.3 155.2 L 100.3505256652832 158.19407453536988 L 111.0 150.7 L 120.9 142.4 L 130.0 133.2 L 133.44399995803832 129.0 Z M 115.0 92.4 L 113.4 90.5 L 111.5 88.7 L 109.3 86.8 L 106.9 85.0 L 104.3 83.1 L 101.3 81.2 L 98.2 79.3 L 97.96885499954223 79.19433374404908 L 93.9 81.1 L 85.4 84.6 L 76.4 87.7 L 66.9 90.4 L 56.8 92.8 L 46.2 94.7 L 45.7 92.9 L 55.7 89.2 L 65.2 85.4 L 74.1 81.5 L 82.4 77.6 L 90.1 73.5 L 97.3 69.3 L 103.9 64.9 L 109.8 60.4 L 115.2 55.8 L 120.3 50.7 L 128.4 59.5 L 129.1 63.1 L 125.37989101409912 62.103542232513426 L 123.2960000038147 63.9 L 166.59090909957885 63.9 L 168.5 61.9 L 168.9357997894287 62.28683347702027 L 173.0 58.9 L 184.0 67.9 L 179.0 70.9 L 174.20186624526977 72.8992223739624 L 167.7 79.2 L 156.7 87.6 L 144.5 95.0 L 131.0 101.4 L 116.4 106.9 L 100.5 111.4 L 83.5 115.0 L 65.2 117.6 L 45.7 119.2 L 25.0 119.7 L 24.9 117.9 L 45.3 115.4 L 64.4 112.3 L 82.1 108.6 L 98.5 104.1 L 113.5 98.9 L 118.68755769729614 96.62807693481446 L 117.4 96.0 L 116.3 94.2 Z M 117.86956520080567 67.9 L 116.2 69.1 L 109.3 73.4 L 102.1482850074768 77.21424798965454 L 102.8 77.3 L 106.4 78.1 L 109.8 79.0 L 113.1 80.2 L 116.1 81.4 L 119.0 82.9 L 121.7 84.5 L 124.3 86.3 L 126.6 88.3 L 127.8803318977356 92.53494386672973 L 139.5 86.3 L 150.5 78.8 L 160.1 70.7 L 162.77272729873658 67.9 Z M 81.4 52.7 L 80.0 51.0 L 78.4 49.4 L 76.4 47.7 L 74.2 46.0 L 71.8 44.3 L 69.0 42.6 L 66.19490909576416 40.95563640594482 L 64.6 41.8 L 57.4 45.1 L 49.7 48.2 L 41.7 51.0 L 33.2 53.4 L 24.2 55.4 L 23.7 53.7 L 31.9 49.8 L 39.7 46.0 L 47.0 42.2 L 54.0 38.3 L 60.4 34.4 L 66.5 30.3 L 72.0 26.2 L 77.1 21.9 L 81.8 17.5 L 85.23563013076782 13.72918643951416 L 85.2 13.7 L 86.2 12.7 L 94.6 21.4 L 95.3 24.9 L 91.55907382965088 24.031570720672608 L 90.20888891220093 25.2 L 133.24810123443604 25.2 L 135.8 22.8 L 136.2783350944519 23.30138740539551 L 140.0 20.2 L 151.0 29.2 L 146.0 32.2 L 140.59381446838378 34.45257730484009 L 134.6 39.5 L 124.4 46.9 L 113.4 53.6 L 101.8 59.8 L 89.4 65.3 L 76.4 70.1 L 62.6 74.4 L 48.2 77.9 L 33.0 80.8 L 17.1 82.8 L 16.8 81.0 L 32.2 77.1 L 46.8 72.8 L 60.6 68.1 L 73.7 63.0 L 86.0 57.5 L 86.15862064361572 57.417241382598874 L 83.4 55.9 L 82.5 54.3 Z M 85.2 29.2 L 83.8 30.3 L 77.8 34.3 L 71.4 38.2 L 70.28979587554932 38.78775510787964 L 70.4 38.8 L 73.7 39.4 L 77.0 40.1 L 80.0 41.0 L 82.9 42.1 L 85.6 43.4 L 88.2 44.9 L 90.6 46.6 L 92.8 48.5 L 94.0 52.9 L 93.67134141921997 53.49756097793579 L 97.5 51.5 L 108.2 45.1 L 118.2 38.1 L 127.4 30.7 L 128.99493675231935 29.2 Z " />
</g>
</svg>
