<svg xmlns="http://www.w3.org/2000/svg" xmlns:xlink="http://www.w3.org/1999/xlink" version="1.1" baseProfile="full" viewBox="0 0 200 200" width="200" height="200">
<g fill="black">
<path d="M 159.6 184.3 L 150.5 181.3 L 142.0 177.8 L 135.11623697280885 174.31341876983643 L 126.4 177.5 L 116.2 180.5 L 105.1 183.0 L 93.1 185.0 L 80.1 186.5 L 79.8 184.7 L 92.3 181.3 L 103.8 177.8 L 114.2 174.2 L 123.7 170.4 L 126.50137195587158 169.08170728683473 L 121.1 164.9 L 115.7 159.8 L 111.2 154.2 L 108.19666662216187 148.9 L 94.0 148.9 L 94.0 144.9 L 158.0 144.9 L 158.01463413238525 144.88780488967896 L 158.9 143.6 L 159.26992235183715 143.8417314529419 L 162.77721519470214 140.91898736953735 L 158.6 139.4 L 153.6 137.8 L 147.9 136.2 L 141.7 134.6 L 134.9 132.9 L 127.4 131.2 L 119.4 129.4 L 110.8 127.5 L 111.0 125.7 L 119.9 125.7 L 128.2 125.9 L 135.9 126.4 L 143.0 127.1 L 144.0 127.20606060028076 L 144.0 121.9 L 79.29026546478272 121.9 L 79.66926317214966 122.94455471038819 L 88.4 130.5 L 88.6 133.6 L 84.62486562728881 131.85335006713868 L 83.1 132.4 L 78.5 133.7 L 73.4 134.9 L 61.9 137.2 L 55.4 138.3 L 48.4 139.4 L 40.8 140.4 L 32.8 141.3 L 24.2 142.0 L 15.1 142.6 L 14.8 140.8 L 23.6 138.3 L 31.8 136.0 L 39.6 133.9 L 46.8 131.9 L 53.5 130.0 L 59.7 128.1 L 65.4 126.3 L 70.5 124.6 L 75.0 122.8 L 77.11764707565308 121.9 L 56.0 121.9 L 44.0 127.9 L 44.0 78.66111106872559 L 40.2 79.4 L 33.2 80.6 L 26.3 81.7 L 23.68998727798462 82.12850952148438 L 21.9 85.6 L 19.6 82.8 L 16.3 71.1 L 18.3 70.9 L 25.0 70.4 L 31.9 69.9 L 38.9 69.4 L 46.2 68.8 L 52.0 68.32972974777222 L 52.0 58.7 L 26.0 58.7 L 26.0 54.7 L 52.0 54.7 L 52.0 44.5 L 26.3 44.5 L 23.7 46.5 L 20.8 48.2 L 16.2 47.9 L 13.1 44.5 L 13.4 39.9 L 16.8 36.9 L 18.8 36.5 L 20.7 36.0 L 22.3 35.3 L 23.8 34.4 L 25.3 33.2 L 26.6 31.7 L 27.8 29.8 L 28.9 27.6 L 29.9 24.9 L 30.1 21.9 L 31.9 21.8 L 32.2 25.0 L 32.329032230377194 25.8 L 94.0 25.8 L 94.0 10.4 L 106.0 12.4 L 109.0 14.4 L 106.0 16.2 L 106.0 25.8 L 170.0 25.8 L 170.6 25.3 L 171.0 24.7 L 171.9 23.4 L 172.32540197372435 23.86216506958008 L 176.0 20.8 L 187.0 29.8 L 182.0 32.8 L 171.02580642700195 37.37258062362671 L 175.4 41.2 L 175.4 45.2 L 144.5 45.2 L 144.5 53.6 L 173.4 53.6 L 177.9 47.6 L 183.9 53.6 L 183.9 57.6 L 144.5 57.6 L 144.5 71.4 L 163.5 71.4 L 163.5 58.7 L 175.5 60.7 L 178.5 62.7 L 175.5 64.5 L 175.5 75.4 L 163.5 81.4 L 163.5 75.4 L 113.4 75.4 L 101.4 81.4 L 101.4 58.7 L 113.4 60.7 L 116.4 62.7 L 113.4 64.5 L 113.4 71.4 L 132.5 71.4 L 132.5 57.6 L 93.0 57.6 L 93.0 53.6 L 95.83529415130616 53.6 L 95.3 52.3 L 98.2 50.5 L 100.7 48.3 L 103.1 46.2 L 107.2 42.1 L 108.9 40.1 L 110.4 38.2 L 111.8 36.3 L 112.9 34.4 L 113.35280895233154 33.494381999969484 L 113.2 33.4 L 114.2 32.0 L 123.4 39.7 L 123.9735294342041 41.2 L 156.25 41.2 L 158.0 39.8 L 160.1 37.4 L 162.1 35.2 L 164.0 33.2 L 165.8 31.3 L 167.05 29.8 L 32.75666666030884 29.8 L 32.8 31.1 L 32.4 34.1 L 31.6 36.9 L 30.3 39.7 L 29.723999977111816 40.5 L 80.77777776718139 40.5 L 87.0 33.5 L 95.0 40.5 L 95.0 44.5 L 64.0 44.5 L 64.0 54.7 L 72.81818180084228 54.7 L 81.0 45.7 L 91.0 54.7 L 91.0 58.7 L 64.0 58.7 L 64.0 67.39230766296387 L 69.1 67.0 L 77.1 66.4 L 85.3 65.9 L 93.8 65.6 L 94.1 67.3 L 85.9 69.6 L 77.9 71.7 L 70.0 73.5 L 62.3 75.1 L 54.8 76.6 L 47.83529415130615 77.91764707565308 L 56.0 82.0 L 144.0 82.0 L 150.0 77.0 L 161.0 86.0 L 156.0 90.0 L 156.0 121.9 L 145.1449999809265 127.32749996185302 L 149.6 127.8 L 155.6 128.7 L 161.2 129.7 L 166.2 130.8 L 170.7 132.0 L 174.7 133.3 L 177.8 136.7 L 177.7 141.3 L 174.3 144.4 L 169.7 144.3 L 168.7744680404663 143.80638294219972 L 175.0 148.9 L 170.0 151.9 L 166.24035472869872 153.46651887893677 L 164.1 156.0 L 158.4 161.2 L 151.7 166.0 L 147.04497442245483 168.66888132095337 L 153.9 170.7 L 162.6 172.9 L 171.9 174.7 L 182.0 176.1 L 191.8 177.7 L 179.9 189.2 L 169.4 186.9 Z M 81.0 142.0 L 84.0 144.0 L 81.0 145.8 L 81.0 159.6 L 80.79590864181519 160.47916269302368 L 89.9 160.0 L 99.8 159.7 L 100.1 161.5 L 90.4 163.8 L 81.1 165.9 L 79.05150566101074 166.29573183059694 L 76.8 170.1 L 72.6 174.0 L 67.4 177.2 L 61.1 179.8 L 53.8 182.0 L 45.3 183.8 L 35.7 185.1 L 25.0 186.1 L 13.0 186.5 L 12.9 184.7 L 24.5 182.3 L 34.8 179.9 L 43.8 177.4 L 51.5 174.7 L 57.8 172.0 L 61.707249069213866 169.6875464439392 L 55.7 170.8 L 48.1 172.2 L 40.9 173.4 L 34.0 174.6 L 27.6 175.7 L 25.745454502105712 176.00909090042114 L 24.0 179.5 L 21.6 176.7 L 18.3 165.0 L 20.3 164.8 L 26.3 164.4 L 30.0 164.16875 L 30.0 143.9 L 42.0 145.9 L 45.0 147.9 L 42.0 149.7 L 42.0 163.30273971557617 L 46.9 162.9 L 54.7 162.4 L 62.8 161.7 L 68.91633605957031 161.27327890396117 L 69.0 159.6 L 69.0 140.0 Z M 111.3930233001709 148.9 L 114.3 151.4 L 119.6 155.4 L 125.3 159.1 L 131.6 162.5 L 135.80378246307373 164.35460996627808 L 139.6 162.2 L 146.0 157.8 L 151.3 153.2 L 155.1520833015442 148.9 Z M 56.0 110.0 L 56.0 117.9 L 144.0 117.9 L 144.0 110.0 Z M 56.0 98.0 L 56.0 106.0 L 144.0 106.0 L 144.0 98.0 Z M 56.0 86.0 L 56.0 94.0 L 144.0 94.0 L 144.0 86.0 Z M 116.64375 45.2 L 114.3 46.7 L 111.7 48.2 L 108.8 49.5 L 105.8 50.7 L 102.7 51.8 L 99.4 52.8 L 97.13333330154418 53.6 L 132.5 53.6 L 132.5 45.2 Z M 160.8 41.2 L 161.1777777671814 41.2 L 161.3862069129944 40.96551723480225 Z " />
</g>
</svg>
