<svg xmlns="http://www.w3.org/2000/svg" xmlns:xlink="http://www.w3.org/1999/xlink" version="1.1" baseProfile="full" viewBox="0 0 200 200" width="200" height="200">
<g fill="black">
<path d="M 76.0 156.1 L 72.94087591171265 148.83458032608033 L 71.7 151.2 L 64.5 161.9 L 56.7 171.0 L 48.2 178.4 L 39.0 184.0 L 29.3 187.8 L 28.6 186.1 L 37.0 180.8 L 44.7 174.3 L 51.8 166.6 L 58.3 157.6 L 64.2 147.2 L 68.22480430603028 138.33052377700807 L 67.8 137.4 L 63.4 128.5 L 58.8 120.0 L 54.1 111.7 L 49.1 103.7 L 44.1 95.9 L 43.45678682327271 94.95991916656494 L 40.8 112.0 L 37.4 129.1 L 33.3 144.5 L 28.6 158.3 L 23.3 170.5 L 17.3 180.9 L 10.7 189.5 L 9.2 188.4 L 14.0 179.0 L 18.4 168.3 L 22.4 156.2 L 26.0 142.5 L 29.0 127.3 L 31.6 110.6 L 33.7 92.3 L 35.3 72.4 L 36.4 50.9 L 36.85633192062378 30.0 L 19.0 30.0 L 19.0 26.0 L 67.0 26.0 L 73.0 21.0 L 84.0 30.0 L 79.0 33.0 L 77.56734695434571 33.59693880081177 L 73.9529411315918 72.0 L 85.0 72.0 L 91.0 67.0 L 102.0 76.0 L 97.0 79.0 L 95.98557929992675 79.42267532348633 L 93.2 93.2 L 88.8 110.0 L 83.8 125.2 L 78.57781620025635 137.84318180084227 L 81.0 142.3 L 85.8 151.8 L 90.3 161.8 L 94.6 172.1 L 94.3 176.6 L 91.0 179.8 L 86.4 179.5 L 83.3 176.2 L 79.7 166.0 Z M 178.7 121.0 L 173.7 124.0 L 171.60351457595826 124.87353563308716 L 156.3 182.4 L 143.2 185.0 L 160.94545450210572 121.0 L 108.7 121.0 L 108.7 117.0 L 161.7 117.0 L 167.7 112.0 Z M 48.81030044555664 30.0 L 47.8 51.4 L 46.0 73.2 L 44.013441276550296 90.64716777801513 L 47.0 93.5 L 53.4 100.5 L 59.5 108.0 L 65.3 116.0 L 70.8 124.3 L 72.4815779685974 127.14574737548828 L 74.3 122.0 L 78.5 107.1 L 82.1 90.8 L 84.51123600006103 76.0 L 73.5764705657959 76.0 L 72.4 88.5 L 59.8 93.2 L 66.68220863342285 30.0 Z M 168.3 88.2 L 163.4 82.2 L 158.7 75.7 L 154.3 68.5 L 150.1 60.7 L 146.2 52.3 L 142.7 43.2 L 139.63584909439086 34.00754718780517 L 137.7 39.6 L 133.7 49.6 L 129.4 59.3 L 124.7 68.5 L 119.7 77.4 L 114.4 85.9 L 108.7 93.9 L 102.5 101.5 L 95.9 108.5 L 94.5 107.4 L 99.4 99.3 L 104.2 91.0 L 108.7 82.5 L 113.0 73.8 L 117.1 64.9 L 120.8 55.6 L 124.3 46.0 L 127.5 36.1 L 130.4 25.9 L 133.0 15.4 L 133.0555356025696 15.414362621307372 L 133.5 13.7 L 144.6 18.4 L 147.0 21.1 L 143.4452706336975 22.179114246368407 L 141.53666906356813 28.425446701049804 L 143.4 32.0 L 148.0 40.8 L 152.7 49.0 L 157.4 56.5 L 162.1 63.4 L 166.9 69.6 L 171.8 75.1 L 176.7 79.9 L 181.7 84.1 L 186.8 87.6 L 190.1 89.9 L 179.1 98.3 L 173.6 93.6 Z M 160.6 87.0 L 160.6 91.0 L 118.5 91.0 L 118.5 87.0 L 142.4181818008423 87.0 L 150.6 78.0 Z " />
</g>
</svg>
