<svg xmlns="http://www.w3.org/2000/svg" xmlns:xlink="http://www.w3.org/1999/xlink" version="1.1" baseProfile="full" viewBox="0 0 200 200" width="200" height="200">
<g fill="black">
<path d="M 159.1 176.2 L 151.1 170.1 L 143.8 163.1 L 143.0265000343323 162.18369998931885 L 134.7 169.4 L 124.9 176.1 L 114.3 181.6 L 103.1 185.8 L 91.1 188.8 L 90.6 187.1 L 101.7 182.3 L 111.9 176.8 L 121.2 170.6 L 129.8 163.6 L 137.6 155.8 L 137.61837940216066 155.7771571159363 L 137.3 155.4 L 131.6 147.0 L 126.7 137.8 L 122.7 128.0 L 119.5 117.4 L 117.56725664138794 107.0 L 109.2 107.0 L 109.2 103.0 L 137.0 103.0 L 137.0 72.0 L 117.4 72.0 L 109.4 80.0 L 99.4 70.0 L 105.4 64.0 L 105.4 26.0 L 117.4 28.0 L 120.4 30.0 L 117.4 31.8 L 117.4 68.0 L 137.0 68.0 L 137.0 13.0 L 149.0 15.0 L 152.0 17.0 L 149.0 18.8 L 149.0 68.0 L 167.9 68.0 L 167.9 26.0 L 179.9 28.0 L 182.9 30.0 L 179.9 31.8 L 179.9 78.0 L 167.9 84.0 L 167.9 72.0 L 149.0 72.0 L 149.0 103.0 L 165.0 103.0 L 171.0 98.0 L 182.0 107.0 L 177.0 110.0 L 175.1455370903015 110.77269287109375 L 171.7 119.8 L 166.0 131.8 L 159.4 142.8 L 151.9 152.8 L 149.963530254364 154.8781626701355 L 150.9 155.8 L 157.9 161.4 L 165.4 166.2 L 173.5 170.4 L 182.1 173.8 L 188.9 176.4 L 177.4 186.1 L 167.9 181.6 Z M 74.9 179.2 L 67.9 173.8 L 61.5 167.3 L 58.20906324386597 163.04447832107545 L 57.1 164.4 L 49.6 171.9 L 41.6 178.1 L 33.2 182.8 L 24.5 186.1 L 15.6 187.8 L 15.2 186.1 L 23.1 182.6 L 30.6 178.2 L 37.6 172.8 L 44.3 166.5 L 50.6 159.0 L 53.06246671676636 155.47046432495117 L 50.4 151.1 L 45.8 141.5 L 41.7 130.8 L 38.3 119.0 L 35.9796875 108.0 L 22.7 108.0 L 22.7 104.0 L 50.5 104.0 L 50.5 72.0 L 32.8 72.0 L 32.8 84.0 L 20.8 90.0 L 20.8 24.0 L 32.8 26.0 L 35.8 28.0 L 32.8 29.8 L 32.8 68.0 L 50.5 68.0 L 50.5 13.0 L 62.5 15.0 L 65.5 17.0 L 62.5 18.8 L 62.5 68.0 L 80.1 68.0 L 80.1 24.0 L 92.1 26.0 L 95.1 28.0 L 92.1 29.8 L 92.1 78.0 L 80.1 84.0 L 80.1 72.0 L 62.5 72.0 L 62.5 104.0 L 77.0 104.0 L 83.0 99.0 L 94.0 108.0 L 89.0 111.0 L 87.15872554779052 111.76719770431518 L 83.2 121.7 L 77.3 134.2 L 71.0 145.5 L 64.38431882858276 155.47289257049562 L 68.9 160.3 L 74.8 165.2 L 81.0 169.0 L 87.3 171.8 L 93.9 173.5 L 102.6 175.6 L 90.8 186.4 L 82.6 183.4 Z M 123.5 116.1 L 128.1 125.6 L 133.1 134.4 L 138.5 142.3 L 143.56842107772826 148.38210525512696 L 144.6 147.1 L 150.9 137.5 L 156.4 127.0 L 161.2 115.5 L 163.9642276763916 107.0 L 119.7375 107.0 Z M 42.2 117.7 L 47.2 128.6 L 52.3 138.3 L 57.6 146.8 L 58.21731758117676 147.61934871673583 L 62.3 140.6 L 67.6 129.6 L 72.6 117.4 L 75.89701490402221 108.0 L 38.23916664123535 108.0 Z " />
</g>
</svg>
