<svg xmlns="http://www.w3.org/2000/svg" xmlns:xlink="http://www.w3.org/1999/xlink" version="1.1" baseProfile="full" viewBox="0 0 200 200" width="200" height="200">
<g fill="black">
<path d="M 158.5 180.3 L 149.3 174.8 L 140.8 168.7 L 135.3037926673889 163.71002235412598 L 127.3 169.5 L 116.9 175.5 L 105.6 180.8 L 93.4 185.3 L 80.2 188.9 L 79.7 187.2 L 92.0 181.8 L 103.3 176.0 L 113.6 169.9 L 122.9 163.3 L 129.46401357650757 157.6850004196167 L 126.3 154.2 L 120.2 145.9 L 115.0 137.0 L 110.7 127.3 L 107.74854364395142 117.8 L 94.0 117.8 L 94.0 113.8 L 158.0 113.8 L 164.0 108.8 L 175.0 117.8 L 170.0 120.8 L 167.86242542266845 121.69065608978272 L 165.0 128.1 L 159.4 137.9 L 152.8 146.9 L 145.2 155.1 L 142.6825047492981 157.35093688964844 L 146.9 160.5 L 155.0 165.4 L 163.7 169.6 L 172.9 173.3 L 182.8 176.2 L 190.8 178.6 L 179.1 188.9 L 168.4 185.0 Z M 81.0 105.8 L 84.0 107.8 L 81.0 109.6 L 81.0 139.6 L 80.4650526046753 143.53915786743164 L 89.7 142.0 L 99.7 140.5 L 100.2 142.3 L 90.6 145.7 L 81.4 148.9 L 79.30242910385132 149.56740894317628 L 77.5 155.2 L 73.6 162.0 L 68.4 168.0 L 62.1 173.3 L 54.5 177.9 L 45.9 181.7 L 36.1 184.8 L 25.2 187.3 L 13.1 188.9 L 12.8 187.2 L 24.3 183.6 L 34.4 179.8 L 43.2 175.7 L 50.7 171.3 L 56.8 166.6 L 61.6 161.7 L 65.1 156.6 L 66.45799369812012 153.60109720230102 L 64.2 154.3 L 56.2 156.7 L 48.6 158.9 L 41.4 161.0 L 34.6 162.9 L 28.2 164.6 L 26.21117944717407 165.1634991645813 L 24.8 168.8 L 22.2 166.3 L 17.7 154.9 L 19.7 154.5 L 25.7 153.5 L 30.0 152.77230768203736 L 30.0 111.1 L 42.0 113.1 L 45.0 115.1 L 42.0 116.9 L 42.0 150.68356161117555 L 46.4 149.9 L 54.2 148.4 L 62.4 146.9 L 68.67197456359864 145.73312101364135 L 68.7 145.6 L 69.0 139.6 L 69.0 103.8 Z M 110.0 117.8 L 114.4 125.5 L 120.0 133.9 L 126.0 141.6 L 132.5 148.6 L 135.72833023071288 151.5476058959961 L 138.5 148.7 L 144.8 140.7 L 150.2 132.3 L 154.7 123.3 L 156.78421049118043 117.8 Z M 96.0 65.8 L 96.0 46.9 L 48.0 46.9 L 48.0 60.0 L 47.41999998092651 65.8 Z M 108.0 46.9 L 108.0 65.8 L 158.0 65.8 L 158.0 46.9 Z M 48.0 24.5 L 48.0 42.9 L 96.0 42.9 L 96.0 24.5 Z M 108.0 24.5 L 108.0 42.9 L 158.0 42.9 L 158.0 24.5 Z M 169.4 96.1 L 168.6 98.5 L 167.3 100.8 L 165.7 102.8 L 163.7 104.4 L 161.4 105.6 L 159.0 106.5 L 156.5 106.9 L 154.0 107.0 L 154.0 101.0 L 134.0 98.0 L 134.0 95.0 L 155.2 95.0 L 156.1 94.8 L 156.7 94.6 L 157.0 94.4 L 157.2 94.3 L 157.4 94.1 L 157.7 93.2 L 157.9 92.3 L 158.0 91.0 L 158.0 69.8 L 108.0 69.8 L 108.0 94.9 L 96.0 100.9 L 96.0 69.8 L 46.696923065185544 69.8 L 45.9 73.5 L 43.8 79.6 L 41.0 85.2 L 37.4 90.2 L 33.2 94.6 L 28.3 98.4 L 22.9 101.5 L 16.8 103.9 L 10.3 105.5 L 9.6 103.8 L 15.2 100.4 L 20.1 96.9 L 24.2 93.3 L 27.7 89.4 L 30.5 85.3 L 32.7 80.9 L 34.3 76.3 L 35.4 71.2 L 36.0 65.8 L 36.0 14.5 L 48.0 20.5 L 158.0 20.5 L 164.0 15.5 L 175.0 24.5 L 170.0 28.5 L 170.0 91.0 L 169.8 93.6 Z " />
</g>
</svg>
