<svg xmlns="http://www.w3.org/2000/svg" xmlns:xlink="http://www.w3.org/1999/xlink" version="1.1" baseProfile="full" viewBox="0 0 200 200" width="200" height="200">
<g fill="black">
<path d="M 41.0 110.0 L 76.0 110.0 L 82.0 105.0 L 93.0 114.0 L 88.0 118.0 L 88.0 179.0 L 76.0 185.0 L 76.0 175.0 L 41.0 175.0 L 41.0 182.0 L 29.0 188.0 L 29.0 104.0 Z M 160.4 167.2 L 152.7 155.6 L 147.08297681808472 144.70129823684692 L 144.1 149.5 L 133.7 162.4 L 122.1 173.5 L 109.5 182.7 L 95.7 189.8 L 94.9 188.1 L 107.3 179.5 L 118.5 169.6 L 128.7 158.2 L 137.7 145.2 L 143.14273386001588 135.4568345069885 L 140.2 128.1 L 135.3 112.3 L 131.4 95.1 L 128.4 76.5 L 126.4 56.5 L 125.63720932006837 36.0 L 112.3 36.0 L 112.3 32.0 L 170.0 32.0 L 176.0 27.0 L 187.0 36.0 L 182.0 39.0 L 181.21304016113282 39.32789993286133 L 178.5 58.0 L 173.9 79.8 L 168.2 99.8 L 161.3 118.1 L 153.40930633544923 134.47318935394287 L 155.1 138.1 L 162.1 149.8 L 169.6 159.9 L 177.8 168.5 L 186.6 175.7 L 189.6 177.9 L 178.7 186.2 L 169.0 177.5 Z M 41.0 155.0 L 41.0 171.0 L 76.0 171.0 L 76.0 155.0 Z M 41.0 134.0 L 41.0 151.0 L 76.0 151.0 L 76.0 134.0 Z M 41.0 114.0 L 41.0 130.0 L 76.0 130.0 L 76.0 114.0 Z M 127.56161136627198 36.0 L 130.5 56.0 L 134.2 75.5 L 138.4 93.5 L 143.3 109.9 L 148.63301553726197 124.08963050842286 L 152.7 114.6 L 158.6 96.8 L 163.5 77.3 L 167.3 56.2 L 169.68165941238402 36.0 Z M 45.6 82.8 L 47.2 86.1 L 43.30833330154419 86.1 L 43.1 86.4 L 40.4 90.0 L 37.5 93.5 L 34.5 97.0 L 31.3 100.5 L 28.0 103.9 L 24.5 107.2 L 20.7 110.5 L 16.7 113.6 L 12.6 116.6 L 11.3 115.3 L 14.2 111.1 L 17.0 107.0 L 19.7 103.1 L 22.3 99.2 L 24.8 95.3 L 27.2 91.6 L 29.4 87.8 L 31.5 84.1 L 33.5 80.4 L 34.84044942855835 77.7191011428833 L 34.8 77.7 L 35.8 75.9 Z M 90.1 95.8 L 88.2 93.8 L 86.2 91.9 L 84.0 90.0 L 81.8 88.3 L 79.5 86.6 L 77.1 84.9 L 74.5 83.3 L 71.7 82.1 L 72.1 80.3 L 75.3 80.8 L 78.5 81.0 L 81.6 81.6 L 84.7 82.4 L 87.8 83.4 L 90.8 84.7 L 93.7 86.1 L 96.6 87.7 L 99.4 89.6 L 102.1 91.6 L 103.8 95.8 L 102.1 100.1 L 97.8 101.8 L 93.6 100.1 L 91.9 97.9 Z M 24.1 53.4 L 24.5 57.2 L 24.6 61.0 L 24.4 64.7 L 23.9 68.3 L 22.9 71.8 L 21.7 75.3 L 18.0 78.1 L 13.5 77.6 L 10.7 73.9 L 11.2 69.4 L 12.6 67.3 L 13.9 65.1 L 15.1 62.6 L 16.0 59.8 L 16.7 56.8 L 17.3 53.6 L 17.6 50.1 L 17.8 46.4 L 17.8 42.3 L 17.3 38.2 L 19.1 37.7 L 22.1 45.7 L 22.807692337036134 48.0 L 51.0 48.0 L 51.0 13.0 L 63.0 15.0 L 66.0 17.0 L 63.0 18.8 L 63.0 31.0 L 87.0 31.0 L 97.0 21.0 L 109.0 31.0 L 109.0 35.0 L 63.0 35.0 L 63.0 48.0 L 96.0 48.0 L 102.0 43.0 L 113.0 52.0 L 108.0 55.0 L 105.89565219879151 55.87681159973145 L 105.5 56.8 L 104.1 59.5 L 102.6 62.2 L 100.9 64.9 L 99.2 67.7 L 97.2 70.3 L 95.2 73.0 L 92.8 75.6 L 90.7 78.4 L 89.2 77.5 L 90.5 74.3 L 91.5 71.0 L 92.4 67.9 L 93.2 64.9 L 94.0 62.0 L 94.6 59.1 L 95.1 56.3 L 95.6 53.7 L 95.79615383148193 52.0 L 23.805263137817384 52.0 Z M 84.0 67.0 L 84.0 71.0 L 35.0 71.0 L 35.0 67.0 L 65.81818180084228 67.0 L 74.0 58.0 Z " />
</g>
</svg>
