<svg xmlns="http://www.w3.org/2000/svg" xmlns:xlink="http://www.w3.org/1999/xlink" version="1.1" baseProfile="full" viewBox="0 0 200 200" width="200" height="200">
<g fill="black">
<path d="M 154.6 178.9 L 144.5 172.9 L 135.5 166.2 L 134.33324251174926 165.0781177520752 L 128.2 168.8 L 115.1 174.9 L 100.7 180.0 L 85.0 184.0 L 67.9 186.9 L 67.6 185.1 L 84.0 180.3 L 99.0 174.9 L 112.4 168.9 L 124.4 162.3 L 128.44827585220338 159.41949605941772 L 127.7 158.7 L 121.0 150.5 L 115.5 141.5 L 111.3 131.9 L 108.4 121.7 L 107.11559629440308 111.7 L 89.6 111.7 L 89.6 107.7 L 165.3 107.7 L 171.3 102.7 L 182.3 111.7 L 177.3 114.7 L 175.5518518447876 115.4283950805664 L 172.6 123.3 L 166.6 134.4 L 159.1 144.5 L 150.2 153.6 L 143.28120031356812 159.0409977912903 L 150.3 163.5 L 159.8 168.2 L 170.2 172.3 L 181.7 175.7 L 189.7 178.1 L 178.0 188.4 L 165.8 184.0 Z M 20.0 146.9 L 23.0 146.5666666984558 L 23.0 115.5 L 35.0 117.5 L 38.0 119.5 L 35.0 121.3 L 35.0 145.25245904922485 L 37.2 145.0 L 43.6 144.4 L 50.3 143.7 L 57.3 143.1 L 64.7 142.4 L 64.88995294570923 142.38519849777222 L 65.0 141.9214285850525 L 65.0 100.0 L 77.0 102.0 L 80.0 104.0 L 77.0 105.8 L 77.0 141.56999998092653 L 80.4 141.4 L 88.8 141.1 L 89.1 142.8 L 81.0 145.1 L 76.12141981124878 146.35091800689696 L 74.4 151.3 L 71.2 157.7 L 67.3 163.6 L 62.8 168.9 L 57.5 173.6 L 51.7 177.7 L 45.2 181.2 L 38.1 184.1 L 30.4 186.3 L 22.2 187.8 L 21.7 186.1 L 29.2 182.7 L 35.9 179.2 L 42.0 175.5 L 47.3 171.5 L 51.9 167.3 L 55.8 162.8 L 59.0 158.0 L 61.7 152.8 L 62.89954900741577 149.56121759414674 L 58.5 150.6 L 51.6 152.1 L 45.0 153.6 L 38.8 154.9 L 32.8 156.3 L 27.2 157.5 L 25.971262550354005 157.77820472717286 L 24.4 161.3 L 21.9 158.7 L 18.0 147.2 Z M 109.14848480224609 111.7 L 112.4 120.4 L 116.7 129.5 L 121.7 137.8 L 127.6 145.3 L 134.3 152.1 L 136.22105264663696 153.63684206008912 L 143.8 146.9 L 151.3 138.2 L 157.4 128.9 L 162.1 118.9 L 164.36666669845582 111.7 Z M 153.5 92.3 L 150.3 88.9 L 148.79472942352294 87.52375259399415 L 144.3 88.1 L 132.4 89.5 L 120.3 90.6 L 108.0 91.8 L 95.4 92.9 L 82.6 94.0 L 69.6 95.1 L 56.4 96.1 L 43.0 97.2 L 33.330811214447024 98.04693622589112 L 31.5 101.2 L 29.3 98.4 L 27.95 92.45 L 27.6 91.6 L 27.74154415130615 91.53125 L 26.6 86.5 L 28.6 86.4 L 39.09442901611328 86.01699161529541 L 41.6 84.8 L 55.0 78.3 L 68.1 71.8 L 80.6 65.5 L 92.6 59.1 L 103.66734638214112 53.03701896667481 L 96.6 54.2 L 80.6 56.6 L 72.5 57.7 L 56.1 59.9 L 43.5249641418457 61.41506452560425 L 41.7 64.7 L 39.5 61.9 L 37.95 56.0 L 37.5 55.2 L 37.700833034515384 55.05155820846558 L 36.4 50.1 L 38.4 50.0 L 44.97315292358398 49.686992740631105 L 51.2 45.2 L 57.7 40.4 L 63.9 35.8 L 69.8 31.1 L 75.5 26.6 L 80.8 22.0 L 85.9 17.5 L 90.7 13.1 L 94.40823097229004 9.307491111755372 L 94.4 9.3 L 94.529629611969 9.18333330154419 L 95.1 8.6 L 95.13547592163086 8.638071727752685 L 95.4 8.4 L 103.3 17.4 L 103.9 21.0 L 100.20909090042115 19.94545450210571 L 98.2 21.6 L 92.7 25.8 L 87.0 30.0 L 81.0 34.1 L 74.7 38.1 L 68.1 42.1 L 61.2 46.0 L 55.13057851791382 49.20330581665039 L 55.2 49.2 L 63.4 48.8 L 71.7 48.5 L 79.8 48.1 L 96.0 47.7 L 104.0 47.5 L 111.9 47.6 L 113.10074491500855 47.64502792358398 L 115.1 46.5 L 125.5 40.2 L 135.4 33.9 L 144.8 27.6 L 147.9829414367676 32.470864868164064 L 152.3 37.1 L 152.4 40.6 L 148.91249103546141 39.16763029098511 L 141.4 43.6 L 130.9 49.5 L 119.9 55.3 L 108.4 61.1 L 96.4 66.7 L 83.8 72.3 L 70.8 77.8 L 57.2 83.2 L 50.53117408752441 85.59514169692993 L 55.8 85.4 L 69.1 85.0 L 82.1 84.7 L 95.0 84.4 L 107.6 84.2 L 120.0 84.1 L 132.2 84.1 L 144.2 84.3 L 145.32518339157104 84.34808473587036 L 143.2 82.4 L 139.4 79.2 L 131.2 72.8 L 126.9 69.5 L 122.4 66.1 L 123.2 64.5 L 128.7 66.2 L 133.9 68.2 L 138.8 70.5 L 143.6 72.9 L 148.1 75.6 L 152.5 78.3 L 156.7 81.3 L 160.8 84.3 L 164.6 87.5 L 168.3 90.8 L 169.8 95.1 L 168.0 99.3 L 163.7 100.9 L 159.5 99.0 L 156.6 95.6 Z " />
</g>
</svg>
