<svg xmlns="http://www.w3.org/2000/svg" xmlns:xlink="http://www.w3.org/1999/xlink" version="1.1" baseProfile="full" viewBox="0 0 200 200" width="200" height="200">
<g fill="black">
<path d="M 139.2 179.0 L 124.0 173.7 L 110.3 167.4 L 100.40393161773682 161.37989168167115 L 93.9 165.6 L 80.1 172.8 L 65.5 178.8 L 50.1 183.5 L 33.9 186.8 L 17.1 188.8 L 16.8 187.1 L 33.1 183.1 L 48.5 178.3 L 63.0 172.7 L 76.7 166.0 L 89.5 158.3 L 92.90755271911621 155.83739881515504 L 87.8 151.8 L 78.9 142.5 L 71.9 132.3 L 66.6 121.1 L 63.615126037597655 110.0 L 42.0 110.0 L 42.0 106.0 L 140.0 106.0 L 140.03783779144288 105.9684684753418 L 140.9 104.7 L 141.27240219116212 104.93966484069824 L 146.0 101.0 L 157.0 110.0 L 152.0 113.0 L 148.64303798675536 114.39873418807983 L 141.2 124.5 L 130.7 136.5 L 119.2 147.4 L 109.21824226379394 155.33631563186646 L 114.8 158.2 L 127.8 163.3 L 142.3 167.6 L 158.3 170.9 L 175.8 173.4 L 186.0 174.7 L 174.1 186.5 L 155.9 183.2 Z M 65.78703699111938 110.0 L 70.4 119.4 L 76.8 129.0 L 84.3 137.7 L 93.1 145.4 L 100.46036033630371 150.37906732559205 L 101.4 149.7 L 112.5 140.0 L 122.8 129.3 L 132.2 117.5 L 137.29765625 110.0 Z M 174.8 86.4 L 174.47207202911378 85.27567567825318 L 171.0 86.8 L 162.4 90.0 L 153.2 92.8 L 148.4 94.2 L 143.5 95.6 L 137.33990669250488 97.17021989822388 L 135.8 100.8 L 133.3 98.2 L 129.1 86.8 L 131.1 86.4 L 136.3 85.8 L 141.03745031356812 85.14976167678833 L 145.1 79.7 L 149.1 74.2 L 152.9 68.8 L 156.4 63.4 L 157.57446804046631 61.38138294219971 L 153.5 62.4 L 149.5 60.1 L 148.3 57.9 L 147.0 55.8 L 145.6 53.7 L 144.0 51.6 L 142.3 49.5 L 140.5 47.4 L 138.5 45.3 L 134.2 41.0 L 131.7 39.2 L 132.5 37.6 L 135.5 38.8 L 138.5 39.7 L 141.5 40.9 L 143.21039562225343 41.69411220550537 L 144.6 39.5 L 149.2 30.3 L 151.8 24.7 L 153.0 22.0 L 154.1 19.4 L 155.1 16.9 L 155.66586828231812 15.328143692016601 L 155.6 15.3 L 155.84050636291505 14.843037986755371 L 156.0 14.4 L 156.05765342712402 14.430458450317383 L 156.6 13.4 L 166.6 20.0 L 168.3 23.2 L 164.05787000656127 23.419420528411866 L 163.0 24.7 L 161.1 27.1 L 159.0 29.5 L 156.8 31.8 L 154.5 34.2 L 152.1 36.6 L 149.5 38.9 L 146.7 41.2 L 145.19473686218262 42.64736843109131 L 147.1 43.6 L 149.7 45.2 L 152.2 46.9 L 154.6 48.8 L 156.9 50.8 L 159.1 52.9 L 160.12247190475463 56.98988761901855 L 162.7 52.5 L 165.4 47.0 L 167.9 41.5 L 169.82653341293334 36.80930995941162 L 169.8 36.8 L 170.7 34.7 L 181.2 40.8 L 183.1 43.8 L 179.32033023834228 44.256167030334474 L 178.1 46.5 L 174.8 52.1 L 171.3 57.7 L 167.4 63.1 L 163.3 68.3 L 158.8 73.5 L 154.1 78.5 L 149.1 83.3 L 147.92068967819213 84.28275861740113 L 151.3 83.8 L 156.0 83.2 L 160.7 82.7 L 165.3 82.2 L 169.8 81.7 L 173.24552526474 81.54338521957398 L 172.5 79.4 L 170.5 74.8 L 169.4 72.5 L 168.2 70.2 L 166.6 68.1 L 167.9 66.8 L 170.0 68.5 L 172.4 69.9 L 174.6 71.6 L 176.7 73.4 L 178.7 75.3 L 180.6 77.4 L 182.3 79.6 L 184.0 81.9 L 185.6 84.3 L 187.1 86.8 L 186.9 91.3 L 183.7 94.5 L 179.1 94.4 L 175.9 91.1 L 175.4 88.7 Z M 58.6 86.3 L 58.28814535140991 85.27533464431762 L 54.9 86.8 L 50.7 88.4 L 46.4 89.9 L 41.9 91.4 L 37.3 92.8 L 32.6 94.2 L 27.7 95.6 L 21.749727535247803 97.14707088470459 L 20.2 100.8 L 17.7 98.2 L 13.4 86.8 L 15.4 86.4 L 20.6 85.8 L 25.236622047424316 85.15087289810181 L 29.3 79.7 L 33.2 74.2 L 36.9 68.8 L 40.4 63.4 L 41.584215545654295 61.40163621902466 L 37.5 62.4 L 33.6 60.1 L 32.4 57.9 L 31.1 55.8 L 29.7 53.7 L 28.2 51.6 L 26.5 49.5 L 24.7 47.4 L 20.7 43.2 L 18.5 41.0 L 16.0 39.2 L 16.8 37.6 L 19.8 38.8 L 22.8 39.7 L 25.8 40.9 L 27.433118629455567 41.658233642578125 L 28.8 39.5 L 30.3 36.3 L 31.8 33.3 L 33.3 30.4 L 34.6 27.5 L 35.9 24.7 L 37.1 22.0 L 38.1 19.4 L 39.1 16.9 L 39.65272045135498 15.364665412902832 L 39.5 15.3 L 40.5 13.4 L 50.6 20.0 L 52.4 23.1 L 48.07636365890503 23.39818181991577 L 47.1 24.7 L 45.1 27.1 L 43.1 29.4 L 38.7 34.2 L 36.2 36.6 L 33.7 38.9 L 30.9 41.2 L 29.41857557296753 42.62444658279419 L 31.3 43.6 L 33.9 45.2 L 36.4 47.0 L 38.7 48.8 L 41.0 50.8 L 43.2 52.9 L 44.2 56.9 L 46.6 52.5 L 49.3 47.0 L 51.8 41.5 L 53.606315803527835 36.902105236053465 L 53.6 36.9 L 53.78000001907348 36.46000003814697 L 54.0 35.9 L 54.007713890075685 35.90336608886719 L 54.5 34.7 L 65.0 40.7 L 67.0 43.8 L 63.156626510620114 44.26385545730591 L 62.0 46.5 L 58.7 52.1 L 55.2 57.6 L 51.4 63.0 L 47.3 68.3 L 42.9 73.5 L 38.3 78.4 L 33.3 83.3 L 32.14137935638428 84.26551723480225 L 35.4 83.8 L 40.1 83.3 L 44.7 82.7 L 49.2 82.2 L 53.7 81.8 L 57.05521240234375 81.57123556137086 L 56.3 79.4 L 55.4 77.1 L 54.4 74.8 L 52.2 70.2 L 50.6 68.1 L 51.8 66.8 L 53.9 68.5 L 56.2 70.0 L 58.4 71.6 L 60.5 73.4 L 62.5 75.4 L 64.4 77.4 L 66.2 79.6 L 67.8 81.9 L 69.4 84.3 L 70.9 86.8 L 70.7 91.4 L 67.4 94.5 L 62.8 94.3 L 59.7 91.1 L 59.2 88.7 Z M 117.6 88.5 L 116.9 85.4 L 116.52905406951905 84.1222972869873 L 115.1 84.7 L 110.5 86.4 L 105.9 87.9 L 101.3 89.2 L 96.8 90.5 L 92.4 91.7 L 88.0 92.8 L 79.47267608642578 94.78309860229493 L 77.7 98.5 L 75.3 95.8 L 71.6 84.1 L 73.6 83.9 L 77.8 83.6 L 81.74504261016845 83.32476444244385 L 84.4 78.7 L 87.7 73.2 L 91.0 67.6 L 94.3 61.8 L 96.4290322303772 57.99354839324951 L 94.6 60.5 L 90.0 61.1 L 86.4 58.4 L 85.6 56.5 L 84.7 54.5 L 83.5 52.4 L 82.2 50.3 L 80.7 48.2 L 79.0 46.0 L 77.2 43.8 L 75.1 41.6 L 73.0 39.2 L 70.4 37.2 L 71.3 35.7 L 74.3 37.1 L 77.4 38.3 L 80.4 39.6 L 82.46892948150635 40.708355045318605 L 83.7 38.0 L 85.2 34.8 L 86.7 31.7 L 88.1 28.6 L 90.7 22.4 L 92.0 19.4 L 93.83974647521973 14.215259838104249 L 93.8 14.2 L 93.97721519470215 13.827848148345947 L 94.2 13.2 L 94.26175842285156 13.230307388305665 L 94.8 12.1 L 105.0 18.5 L 106.9 21.6 L 102.71314792633056 21.960935497283934 L 99.1 27.2 L 94.7 32.8 L 92.3 35.5 L 89.8 38.1 L 87.2 40.6 L 85.23125 42.35 L 85.8 42.7 L 88.3 44.4 L 90.6 46.2 L 92.8 48.1 L 94.8 50.1 L 96.7 52.3 L 97.26084833145141 56.50636215209961 L 97.6 55.9 L 101.0 49.7 L 104.3 43.3 L 107.7 36.8 L 110.64111108779908 30.917777824401856 L 110.6 30.9 L 111.6 29.0 L 121.7 35.7 L 123.3 38.9 L 119.68505868911743 39.024653148651126 L 117.7 42.3 L 113.6 48.7 L 109.6 54.9 L 105.5 60.8 L 101.4 66.5 L 97.2 71.9 L 93.0 77.1 L 88.7 81.9 L 87.70982570648194 82.91267824172974 L 90.9 82.7 L 95.4 82.3 L 100.0 82.0 L 104.7 81.7 L 109.5 81.4 L 114.4 81.2 L 115.63733501434326 81.17573852539063 L 115.0 79.2 L 113.8 76.1 L 112.5 73.0 L 111.1 69.8 L 109.6 66.5 L 107.7 63.3 L 109.1 62.1 L 111.8 64.7 L 114.7 67.2 L 117.2 69.9 L 119.6 72.7 L 121.8 75.6 L 123.9 78.6 L 125.7 81.7 L 127.4 84.9 L 129.0 88.2 L 130.3 91.5 L 129.6 96.1 L 126.0 98.9 L 121.5 98.2 L 118.7 94.5 L 118.2 91.5 Z " />
</g>
</svg>
