<svg xmlns="http://www.w3.org/2000/svg" xmlns:xlink="http://www.w3.org/1999/xlink" version="1.1" baseProfile="full" viewBox="0 0 200 200" width="200" height="200">
<g fill="black">
<path d="M 36.22127656936645 42.510638332366945 L 36.9 42.3 L 42.8 40.6 L 48.7 38.7 L 54.7 36.7 L 60.9 34.5 L 67.1 32.1 L 73.5 29.4 L 80.0 26.5 L 86.5 23.3 L 92.31969709396363 20.433582019805907 L 92.3 20.4 L 92.33050603866577 20.428258228302003 L 93.2 20.0 L 94.27220268249512 22.226882457733154 L 101.8 29.2 L 102.0 32.4 L 98.26124601364135 30.857022190093993 L 91.1 33.8 L 84.0 36.4 L 77.0 38.8 L 70.1 40.9 L 63.3 42.6 L 56.7 44.0 L 50.1 45.1 L 43.7 45.8 L 37.4 46.1 L 37.2 46.09016389846802 L 37.2 65.0 L 88.9 65.0 L 94.9 60.0 L 105.9 69.0 L 100.9 73.0 L 100.9 118.0 L 88.9 124.0 L 88.9 112.0 L 37.13114757537842 112.0 L 36.8 122.1 L 35.9 133.4 L 34.5 143.8 L 32.6 153.4 L 30.2 162.1 L 27.2 169.8 L 23.7 176.7 L 19.7 182.5 L 15.1 187.2 L 10.0 190.7 L 8.8 189.2 L 12.2 184.6 L 15.2 179.5 L 17.8 173.7 L 20.1 167.2 L 22.0 159.8 L 23.4 151.6 L 24.5 142.5 L 25.2 132.6 L 25.4 121.7 L 25.2 110.0 L 25.2 37.0 Z M 157.6 164.0 L 150.0 152.6 L 144.36278438568115 141.83039407730104 L 141.4 146.5 L 131.1 159.2 L 119.6 170.1 L 107.0 179.0 L 93.4 186.0 L 92.6 184.4 L 104.9 175.9 L 116.0 166.1 L 126.1 154.9 L 135.1 142.3 L 140.44558076858522 132.81159420013427 L 137.5 125.6 L 132.7 110.1 L 128.8 93.2 L 125.8 75.0 L 123.9 55.3 L 123.04285717010498 35.3 L 109.9 35.3 L 109.9 31.3 L 167.1 31.3 L 173.1 26.3 L 184.1 35.3 L 179.1 38.3 L 178.40687255859376 38.588803100585935 L 175.7 56.9 L 171.1 78.2 L 165.4 97.8 L 158.6 115.8 L 150.73930740356445 131.71790256500245 L 152.4 135.2 L 159.3 146.7 L 166.8 156.6 L 174.9 165.1 L 183.6 172.0 L 186.7 174.3 L 175.8 182.6 L 166.2 174.0 Z M 124.97004833221436 35.3 L 128.0 54.9 L 131.6 74.0 L 135.8 91.6 L 140.7 107.7 L 145.9566996574402 121.55857181549072 L 150.0 112.3 L 155.9 94.8 L 160.7 75.8 L 164.4 55.0 L 166.7745535850525 35.3 Z M 37.2 69.0 L 37.2 108.0 L 88.9 108.0 L 88.9 69.0 Z " />
</g>
</svg>
