<svg xmlns="http://www.w3.org/2000/svg" xmlns:xlink="http://www.w3.org/1999/xlink" version="1.1" baseProfile="full" viewBox="0 0 200 200" width="200" height="200">
<g fill="black">
<path d="M 140.2 181.8 L 125.2 178.2 L 111.9 173.7 L 100.47958660125732 168.6135973930359 L 92.3 172.8 L 78.8 178.2 L 64.5 182.7 L 49.5 186.2 L 33.6 188.6 L 17.0 189.8 L 16.9 188.1 L 33.0 184.8 L 48.3 181.0 L 62.6 176.5 L 76.0 171.2 L 88.6 165.1 L 91.63958101272583 163.31817665100098 L 89.8 162.2 L 81.2 155.1 L 74.3 147.2 L 69.4 138.5 L 66.4 129.2 L 66.96666669845581 129.0 L 45.0 129.0 L 45.0 125.0 L 136.72399997711182 125.0 L 138.2 123.2 L 138.692972946167 123.58918914794921 L 143.0 120.0 L 154.0 129.0 L 149.0 132.0 L 144.9879895210266 133.67167100906372 L 138.3 141.0 L 128.0 150.4 L 116.9 158.8 L 110.97851581573487 162.53202781677246 L 115.3 164.1 L 128.0 167.5 L 142.2 170.2 L 158.0 172.1 L 175.4 173.4 L 186.4 174.1 L 174.5 186.5 L 156.6 184.6 Z M 68.34810123443603 129.0 L 73.0 136.5 L 78.9 143.5 L 85.9 149.7 L 94.3 155.2 L 100.3505256652832 158.19407453536988 L 111.0 150.7 L 120.9 142.4 L 130.0 133.2 L 133.44399995803832 129.0 Z M 161.5 13.7 L 164.5 15.7 L 161.5 17.5 L 161.5 112.6 L 149.5 118.6 L 149.5 89.0 L 120.0 89.0 L 120.0 108.0 L 108.0 114.0 L 108.0 106.0 L 62.0 106.0 L 62.0 102.0 L 108.0 102.0 L 108.0 89.0 L 50.0 89.0 L 50.0 85.0 L 108.0 85.0 L 108.0 73.0 L 62.0 73.0 L 62.0 69.0 L 108.0 69.0 L 114.0 64.0 L 125.0 73.0 L 120.0 77.0 L 120.0 85.0 L 149.5 85.0 L 149.5 40.0 L 122.0 40.0 L 122.0 57.0 L 110.0 63.0 L 110.0 57.0 L 62.0 57.0 L 62.0 53.0 L 110.0 53.0 L 110.0 40.0 L 50.0 40.0 L 50.0 36.0 L 110.0 36.0 L 110.0 25.0 L 62.0 25.0 L 62.0 21.0 L 110.0 21.0 L 116.0 16.0 L 127.0 25.0 L 122.0 29.0 L 122.0 36.0 L 149.5 36.0 L 149.5 11.7 Z M 42.0 13.6 L 45.0 15.6 L 42.0 17.4 L 42.0 110.8 L 30.0 116.8 L 30.0 11.6 Z " />
</g>
</svg>
