<svg xmlns="http://www.w3.org/2000/svg" xmlns:xlink="http://www.w3.org/1999/xlink" version="1.1" baseProfile="full" viewBox="0 0 200 200" width="200" height="200">
<g fill="black">
<path d="M 140.2 182.6 L 126.3 177.6 L 113.3 171.6 L 101.4 164.6 L 101.23030300140381 164.47744112014772 L 100.0 165.2 L 86.3 171.6 L 71.3 177.1 L 55.1 181.5 L 37.7 184.9 L 19.1 187.1 L 18.8 185.3 L 36.9 181.2 L 53.7 176.3 L 69.1 170.9 L 83.2 164.7 L 93.66553754806519 159.01399927139283 L 90.6 156.8 L 80.8 148.0 L 72.1 138.2 L 64.7 127.6 L 59.32068967819214 117.2 L 34.0 117.2 L 34.0 113.2 L 139.0 113.2 L 139.33865032196044 112.91779136657715 L 139.7 112.3 L 139.9285223007202 112.42623138427734 L 145.0 108.2 L 156.0 117.2 L 151.0 120.2 L 148.03486976623535 121.43547096252442 L 142.8 129.5 L 134.0 139.9 L 123.9 149.3 L 112.6 157.8 L 110.7605839729309 158.88029193878174 L 117.8 162.4 L 130.2 167.2 L 143.5 171.3 L 157.7 174.5 L 172.9 176.8 L 182.9 178.3 L 171.0 189.9 L 155.1 186.7 Z M 61.842574214935304 117.2 L 68.1 125.2 L 76.6 134.3 L 85.7 142.6 L 95.5 150.1 L 101.72559280395508 153.881902217865 L 107.2 150.2 L 117.3 141.8 L 126.0 132.7 L 133.5 122.9 L 136.83396224975587 117.2 Z M 146.0 82.8 L 141.4 81.0 L 136.3 79.2 L 130.8 77.4 L 124.8 75.6 L 118.5 73.8 L 111.6 71.9 L 104.4 69.9 L 102.0 69.20526313781738 L 102.0 105.0 L 90.0 111.0 L 90.0 53.3 L 16.0 53.3 L 16.0 49.3 L 162.0 49.3 L 172.0 39.3 L 184.0 49.3 L 184.0 53.3 L 102.0 53.3 L 102.0 66.12405061721802 L 105.0 66.2 L 112.6 66.6 L 119.7 67.3 L 126.4 68.2 L 132.7 69.2 L 138.7 70.2 L 144.2 71.4 L 149.3 72.6 L 154.1 74.0 L 158.5 75.4 L 161.7 78.7 L 161.7 83.3 L 158.4 86.4 L 153.8 86.4 L 150.1 84.6 Z M 158.1 24.3 L 158.1 28.3 L 36.8 28.3 L 36.8 24.3 L 136.1 24.3 L 146.1 14.3 Z " />
</g>
</svg>
