<svg xmlns="http://www.w3.org/2000/svg" xmlns:xlink="http://www.w3.org/1999/xlink" version="1.1" baseProfile="full" viewBox="0 0 200 200" width="200" height="200">
<g fill="black">
<path d="M 140.2 181.8 L 125.2 178.2 L 111.9 173.7 L 100.47958660125732 168.6135973930359 L 92.3 172.8 L 78.8 178.2 L 64.5 182.7 L 49.5 186.2 L 33.6 188.6 L 17.0 189.8 L 16.9 188.1 L 33.0 184.8 L 48.3 181.0 L 62.6 176.5 L 76.0 171.2 L 88.6 165.1 L 91.63958101272583 163.31817665100098 L 89.8 162.2 L 81.2 155.1 L 74.3 147.2 L 69.4 138.5 L 66.4 129.2 L 66.96666669845581 129.0 L 45.0 129.0 L 45.0 125.0 L 136.72399997711182 125.0 L 138.2 123.2 L 138.692972946167 123.58918914794921 L 143.0 120.0 L 154.0 129.0 L 149.0 132.0 L 144.9879895210266 133.67167100906372 L 138.3 141.0 L 128.0 150.4 L 116.9 158.8 L 110.97851581573487 162.53202781677246 L 115.3 164.1 L 128.0 167.5 L 142.2 170.2 L 158.0 172.1 L 175.4 173.4 L 186.4 174.1 L 174.5 186.5 L 156.6 184.6 Z M 68.34810123443603 129.0 L 73.0 136.5 L 78.9 143.5 L 85.9 149.7 L 94.3 155.2 L 100.3505256652832 158.19407453536988 L 111.0 150.7 L 120.9 142.4 L 130.0 133.2 L 133.44399995803832 129.0 Z M 68.2 64.0 L 67.4 62.3 L 66.4 60.6 L 65.2 58.9 L 63.8 57.1 L 62.2 55.3 L 58.4 51.5 L 56.0 50.1 L 56.8 48.4 L 59.5 49.5 L 62.3 50.2 L 65.0 51.1 L 67.5 52.1 L 69.9 53.3 L 72.1 54.6 L 74.2 56.0 L 76.2 57.6 L 78.0 59.3 L 79.7 61.2 L 80.2 65.8 L 77.4 69.4 L 76.48000001907349 69.5 L 114.67857141494751 69.5 L 114.6 69.4 L 117.3 66.8 L 119.6 64.0 L 121.9 61.4 L 124.1 58.9 L 126.3 56.5 L 128.3 54.2 L 130.3 52.0 L 132.1 49.8 L 133.9 47.7 L 133.9800000190735 47.6 L 16.5 47.6 L 16.5 43.6 L 77.0 43.6 L 77.0 15.4 L 89.0 17.4 L 92.0 19.4 L 89.0 21.2 L 89.0 43.6 L 109.9 43.6 L 109.9 15.4 L 121.9 17.4 L 124.9 19.4 L 121.9 21.2 L 121.9 43.6 L 133.95806455612183 43.6 L 135.7 41.8 L 138.4 38.7 L 141.1 35.7 L 143.6 32.9 L 145.9 30.2 L 148.1 27.6 L 150.1 25.1 L 151.9 22.7 L 153.6 20.4 L 154.54788427352906 19.00976972579956 L 154.4 18.9 L 155.4 17.7 L 164.1 26.1 L 165.0 29.6 L 160.84273500442504 28.79772081375122 L 159.4 30.0 L 156.8 32.0 L 154.0 34.0 L 151.1 36.0 L 148.0 38.1 L 144.7 40.1 L 141.2 42.2 L 138.47368421554566 43.6 L 160.4 43.6 L 170.4 33.6 L 182.4 43.6 L 182.4 47.6 L 137.52307691574097 47.6 L 143.6 54.6 L 144.1 58.2 L 139.95384616851806 56.941346168518066 L 138.9 57.6 L 136.4 59.2 L 133.8 60.8 L 131.1 62.4 L 128.3 64.1 L 125.3 65.7 L 122.2 67.4 L 118.9 68.9 L 117.88947372436523 69.5 L 150.4181818008423 69.5 L 158.6 60.5 L 168.6 69.5 L 168.6 73.5 L 106.0 73.5 L 106.0 89.3 L 161.3 89.3 L 171.3 79.3 L 183.3 89.3 L 183.3 93.3 L 106.0 93.3 L 106.0 116.6 L 94.0 122.6 L 94.0 93.3 L 16.7 93.3 L 16.7 89.3 L 94.0 89.3 L 94.0 73.5 L 31.4 73.5 L 31.4 69.5 L 72.28571424484252 69.5 L 69.2 67.1 L 68.8 65.5 Z M 49.0 36.8 L 48.5 35.1 L 47.6 33.3 L 46.5 31.4 L 45.0 29.5 L 43.3 27.4 L 41.3 25.2 L 39.0 22.9 L 36.2 21.0 L 37.1 19.4 L 40.2 20.8 L 43.4 21.9 L 46.4 23.2 L 49.1 24.6 L 51.6 26.1 L 53.9 27.7 L 56.0 29.5 L 57.8 31.5 L 59.5 33.6 L 60.8 36.0 L 60.4 40.5 L 56.9 43.5 L 52.4 43.1 L 49.4 39.6 L 49.3 38.3 Z " />
</g>
</svg>
