<svg xmlns="http://www.w3.org/2000/svg" xmlns:xlink="http://www.w3.org/1999/xlink" version="1.1" baseProfile="full" viewBox="0 0 200 200" width="200" height="200">
<g fill="black">
<path d="M 69.7 167.2 L 65.2 162.2 L 60.2 157.3 L 58.82003030776978 156.0222502708435 L 54.4 161.2 L 46.9 168.6 L 38.9 175.1 L 30.4 180.7 L 21.4 185.2 L 11.9 188.8 L 11.2 187.1 L 19.6 181.9 L 27.4 176.2 L 34.7 170.0 L 41.6 163.2 L 48.0 155.7 L 52.09227151870728 150.01243629455567 L 49.0 147.4 L 42.8 142.4 L 36.2 137.5 L 29.2 132.4 L 21.9 127.2 L 22.7 125.6 L 31.1 129.1 L 39.0 132.9 L 46.5 137.0 L 53.5 141.2 L 56.56176471710205 143.24117650985718 L 59.4 138.7 L 64.4 129.1 L 69.0 118.9 L 71.57181816101074 112.0 L 17.9 112.0 L 17.9 108.0 L 72.7 108.0 L 78.7 103.0 L 89.7 112.0 L 84.7 115.0 L 82.65947132110595 115.85022029876708 L 79.4 123.5 L 73.9 134.1 L 67.9 144.0 L 64.42625436782836 148.80980167388915 L 66.3 150.2 L 72.1 154.9 L 77.4 159.8 L 82.4 164.8 L 87.0 169.9 L 88.1 174.3 L 85.9 178.3 L 81.5 179.5 L 77.5 177.2 L 73.8 172.2 Z M 88.0 176.0 L 132.0 176.0 L 132.0 116.0 L 100.0 116.0 L 100.0 112.0 L 132.0 112.0 L 132.0 62.0 L 93.0 62.0 L 93.0 58.0 L 161.0 58.0 L 171.0 48.0 L 183.0 58.0 L 183.0 62.0 L 144.0 62.0 L 144.0 112.0 L 155.0 112.0 L 165.0 102.0 L 177.0 112.0 L 177.0 116.0 L 144.0 116.0 L 144.0 176.0 L 166.0 176.0 L 176.0 166.0 L 188.0 176.0 L 188.0 180.0 L 88.0 180.0 Z M 71.5 83.2 L 66.9 78.2 L 62.0 73.3 L 60.05268545150757 71.49693098068238 L 55.5 76.7 L 48.1 83.9 L 40.3 90.1 L 32.2 95.4 L 23.6 99.6 L 14.6 102.8 L 13.9 101.1 L 21.8 96.3 L 29.2 90.9 L 36.2 85.0 L 42.8 78.4 L 49.1 71.2 L 53.296826457977296 65.50938787460328 L 50.8 63.4 L 44.6 58.4 L 38.0 53.5 L 31.0 48.4 L 23.7 43.2 L 24.5 41.6 L 32.9 45.1 L 40.8 48.9 L 48.2 53.0 L 55.3 57.2 L 57.75741243362427 58.83827495574951 L 60.5 54.5 L 65.7 45.0 L 70.5 34.7 L 73.18000001907349 28.0 L 19.6 28.0 L 19.6 24.0 L 74.5 24.0 L 80.5 19.0 L 91.5 28.0 L 86.5 31.0 L 84.38939256668091 31.879419803619385 L 80.8 39.6 L 75.1 50.1 L 69.0 59.8 L 65.63071622848511 64.41332702636718 L 68.0 66.2 L 73.8 70.9 L 79.2 75.8 L 84.2 80.8 L 88.8 85.9 L 89.9 90.3 L 87.7 94.3 L 83.3 95.5 L 79.3 93.2 L 75.6 88.2 Z M 133.1 42.7 L 132.0 39.9 L 130.6 37.0 L 128.8 33.9 L 126.7 30.6 L 124.3 27.3 L 121.6 23.7 L 118.6 20.0 L 115.2 16.3 L 116.3 14.9 L 120.6 17.7 L 124.8 20.3 L 128.5 23.1 L 131.9 26.0 L 135.1 28.9 L 137.8 31.9 L 140.3 34.9 L 142.5 38.0 L 144.3 41.1 L 145.9 44.4 L 145.3 48.9 L 141.8 51.8 L 137.3 51.3 L 134.3 47.8 L 133.9 45.3 Z " />
</g>
</svg>
