<svg xmlns="http://www.w3.org/2000/svg" xmlns:xlink="http://www.w3.org/1999/xlink" version="1.1" baseProfile="full" viewBox="0 0 200 200" width="200" height="200">
<g fill="black">
<path d="M 158.6 167.5 L 149.9 155.9 L 142.90576372146606 143.84414539337158 L 138.9 149.6 L 127.2 162.6 L 114.3 173.6 L 100.1 182.7 L 84.8 189.8 L 84.0 188.1 L 98.1 179.5 L 110.9 169.5 L 122.5 158.0 L 132.8 145.1 L 138.91316938400269 135.35923566818238 L 135.7 128.3 L 130.1 112.4 L 125.6 95.2 L 122.1 76.5 L 119.7 56.5 L 118.651162815094 36.0 L 103.6 36.0 L 103.6 32.0 L 169.4 32.0 L 175.4 27.0 L 186.4 36.0 L 181.4 39.0 L 180.62985076904297 39.320895481109616 L 177.5 58.1 L 172.4 79.9 L 166.0 100.0 L 158.3 118.3 L 149.40855617523192 134.4218487739563 L 151.2 137.8 L 158.9 149.5 L 167.4 159.7 L 176.6 168.3 L 186.6 175.4 L 190.3 177.9 L 179.3 186.5 L 168.4 177.7 Z M 91.9 85.5 L 88.0 79.8 L 86.5 77.06470584869385 L 86.5 78.0 L 58.43868608474732 78.0 L 51.93503646850586 114.0 L 80.0 114.0 L 86.0 109.0 L 97.0 118.0 L 92.0 121.0 L 91.83978204727173 121.06675748825073 L 91.7 125.4 L 91.2 134.1 L 90.5 142.0 L 89.7 149.2 L 88.7 155.6 L 87.5 161.5 L 86.1 166.6 L 84.4 171.2 L 82.4 175.1 L 79.9 178.5 L 78.2 180.2 L 76.4 181.8 L 74.5 183.3 L 72.5 184.5 L 70.4 185.6 L 68.2 186.4 L 65.9 187.1 L 63.6 187.6 L 61.2 187.9 L 58.8 188.0 L 58.8 182.0 L 42.8 179.0 L 42.8 176.0 L 58.8 176.0 L 60.3 175.9 L 61.7 175.7 L 63.0 175.5 L 64.3 175.1 L 65.5 174.6 L 66.6 174.0 L 67.8 173.3 L 68.9 172.5 L 69.9 171.6 L 71.0 170.5 L 72.1 168.9 L 73.4 166.4 L 74.6 163.0 L 75.8 158.7 L 76.9 153.5 L 77.8 147.6 L 78.6 140.8 L 79.2 133.2 L 79.7 124.9 L 79.92747249603272 118.0 L 51.21240873336792 118.0 L 48.9 130.8 L 36.0 134.6 L 46.238225269317624 78.0 L 35.5 78.0 L 35.5 74.0 L 64.5 74.0 L 74.5 64.0 L 83.73414630889893 71.69512195587158 L 81.6 67.0 L 79.2 60.0 L 77.3 52.5 L 76.0 44.7 L 75.2 36.4 L 75.2 28.6 L 46.0 28.6 L 46.0 24.6 L 71.18000001907349 24.6 L 76.1 20.5 L 87.1 29.5 L 82.1 32.5 L 78.8619047164917 34.11904764175415 L 79.3 35.7 L 81.7 43.4 L 84.3 50.5 L 87.0 57.1 L 90.1 63.1 L 93.4 68.5 L 97.0 73.4 L 100.9 77.8 L 105.0 81.6 L 109.5 85.0 L 112.3 87.2 L 101.4 95.4 L 96.4 90.7 Z M 120.58333330154419 36.0 L 123.9 55.9 L 127.9 75.4 L 132.6 93.4 L 138.0 109.8 L 144.2 124.6 L 144.52607498168945 125.21488428115845 L 149.8 114.4 L 156.5 96.6 L 162.0 77.2 L 166.3 56.1 L 169.02096071243287 36.0 Z M 48.4 37.3 L 50.9 39.8 L 47.33724699020386 41.09554653167724 L 46.3 44.8 L 44.0 52.0 L 41.3 59.1 L 38.2 65.8 L 34.8 72.3 L 31.1 78.6 L 27.0 84.5 L 22.5 90.2 L 17.6 95.4 L 12.3 100.3 L 10.9 99.1 L 14.6 93.1 L 18.1 87.1 L 21.4 81.1 L 24.4 74.9 L 27.2 68.6 L 29.6 62.2 L 31.8 55.6 L 33.7 48.9 L 35.3 42.0 L 36.41654796600342 35.90193061828613 L 36.4 35.9 L 36.546938800811766 35.189795875549315 L 36.6 34.9 L 36.6066180229187 34.90134601593017 L 37.0 33.0 Z M 76.0 27.511111068725587 L 76.1 27.5 L 76.0 27.46666669845581 Z " />
</g>
</svg>
