<svg xmlns="http://www.w3.org/2000/svg" xmlns:xlink="http://www.w3.org/1999/xlink" version="1.1" baseProfile="full" viewBox="0 0 200 200" width="200" height="200">
<g fill="black">
<path d="M 64.0 19.0 L 67.0 21.0 L 64.0 22.8 L 64.0 42.0 L 81.91818180084229 42.0 L 90.1 33.0 L 100.1 42.0 L 100.1 46.0 L 64.0 46.0 L 64.0 70.6 L 86.5 70.6 L 92.5 65.6 L 103.5 74.6 L 98.5 78.6 L 98.5 176.0 L 86.5 182.0 L 86.5 176.0 L 29.9 176.0 L 29.9 183.0 L 17.9 189.0 L 17.9 64.6 L 29.9 70.6 L 52.0 70.6 L 52.0 17.0 Z M 163.9 170.5 L 156.3 160.2 L 149.4 148.1 L 145.91190404891967 140.33617343902588 L 140.4 150.3 L 131.9 162.4 L 122.6 172.6 L 112.5 180.7 L 101.7 186.7 L 100.9 185.2 L 110.1 177.8 L 118.7 168.9 L 126.6 158.5 L 133.9 146.4 L 140.5 132.7 L 141.61438131332397 129.8026086807251 L 137.7 118.7 L 132.8 101.3 L 128.5 82.0 L 125.0 61.0 L 122.6157205581665 40.0 L 109.5 40.0 L 109.5 36.0 L 164.0 36.0 L 170.0 31.0 L 181.0 40.0 L 176.0 43.0 L 175.08702764511108 43.3804051399231 L 171.8 61.9 L 167.0 83.2 L 161.5 102.7 L 155.2 120.4 L 151.25426664352418 129.30608386993407 L 151.8 130.6 L 158.4 143.3 L 165.4 154.0 L 172.7 162.6 L 180.2 169.4 L 187.9 174.2 L 192.7 176.8 L 181.5 185.7 L 172.3 179.1 Z M 73.8 152.7 L 72.3 150.0 L 70.6 147.3 L 68.7 144.6 L 66.5 141.8 L 64.1 139.0 L 61.5 136.1 L 59.51877546310425 133.89863948822023 L 59.3 134.4 L 56.5 139.6 L 53.3 144.7 L 49.8 149.5 L 45.9 154.1 L 41.5 158.5 L 36.8 162.5 L 31.6 166.2 L 30.3 164.8 L 34.1 159.9 L 37.5 155.0 L 40.7 150.1 L 43.5 145.3 L 46.0 140.5 L 48.2 135.5 L 50.0 130.6 L 51.5 125.5 L 52.7 120.4 L 53.34545450210571 116.20454549789429 L 53.3 116.2 L 53.8 113.3 L 65.3 117.4 L 67.9 120.0 L 64.23333330154419 121.33333330154419 L 63.7 123.3 L 61.7 128.9 L 60.82640762329102 130.9019825935364 L 64.2 132.5 L 67.8 134.6 L 71.1 136.7 L 74.2 139.0 L 77.2 141.5 L 79.9 144.0 L 82.4 146.7 L 84.7 149.5 L 86.5 152.2 L 86.5 120.6 L 84.1 123.4 L 79.6 123.6 L 76.1 120.6 L 75.0 117.9 L 73.7 115.1 L 72.3 112.3 L 70.6 109.5 L 68.6 106.7 L 66.5 103.9 L 64.1 101.0 L 61.5 98.1 L 59.61827955245972 96.08387098312377 L 59.3 96.8 L 56.5 101.9 L 53.3 106.9 L 49.8 111.7 L 45.9 116.2 L 41.5 120.5 L 36.8 124.5 L 31.6 128.2 L 30.3 126.8 L 34.1 121.9 L 37.5 117.0 L 40.7 112.2 L 43.5 107.4 L 46.0 102.6 L 48.2 97.8 L 50.0 92.9 L 51.5 88.0 L 52.7 83.0 L 53.35504589080811 78.9059633255005 L 53.3 78.9 L 53.9 76.1 L 65.3 80.2 L 67.8 82.8 L 64.19543151855468 84.1350254058838 L 63.7 85.9 L 61.7 91.4 L 60.993676853179934 92.98922719955445 L 64.3 94.6 L 67.8 96.6 L 71.2 98.9 L 74.3 101.3 L 77.2 103.8 L 80.0 106.5 L 82.5 109.3 L 84.8 112.2 L 86.5 114.83500003814697 L 86.5 74.6 L 29.9 74.6 L 29.9 172.0 L 86.5 172.0 L 86.5 157.74482755661012 L 84.2 160.6 L 79.6 160.9 L 76.1 158.0 L 75.0 155.4 Z M 124.5910714149475 40.0 L 129.1 60.2 L 134.3 80.7 L 139.8 99.3 L 145.6 115.9 L 146.31213493347167 117.58844909667968 L 146.5 117.1 L 151.9 99.8 L 156.6 80.7 L 160.7 59.8 L 163.5784140586853 40.0 Z " />
</g>
</svg>
