<svg xmlns="http://www.w3.org/2000/svg" xmlns:xlink="http://www.w3.org/1999/xlink" version="1.1" baseProfile="full" viewBox="0 0 200 200" width="200" height="200">
<g fill="black">
<path d="M 22.3 151.9 L 26.0 151.71499996185304 L 26.0 129.0 L 38.0 131.0 L 41.0 133.0 L 38.0 134.8 L 38.0 151.00588235855102 L 41.5 150.8 L 48.7 150.4 L 56.2 150.0 L 64.1 149.5 L 72.5 149.0 L 72.94378318786622 148.9795961380005 L 73.0 148.825 L 73.0 120.0 L 85.0 122.0 L 88.0 124.0 L 85.0 125.8 L 85.0 148.43296699523927 L 90.3 148.2 L 99.8 148.1 L 100.1 149.8 L 90.8 152.0 L 83.82783823013305 153.47190084457398 L 81.8 157.6 L 78.2 162.9 L 73.9 167.6 L 68.8 171.9 L 63.1 175.7 L 56.6 179.1 L 49.6 182.0 L 41.8 184.5 L 33.3 186.4 L 24.2 187.8 L 23.7 186.1 L 32.2 182.8 L 40.0 179.4 L 46.9 176.0 L 53.0 172.4 L 58.3 168.7 L 62.8 164.8 L 66.6 160.8 L 69.5 156.6 L 69.7391001701355 156.14353609085083 L 65.0 157.0 L 57.2 158.4 L 49.7 159.7 L 42.6 160.8 L 35.9 161.9 L 29.5 162.9 L 27.615449905395508 163.18268251419067 L 25.8 166.6 L 23.5 163.8 L 20.4 152.1 Z M 155.0 178.5 L 146.1 174.1 L 138.2 169.0 L 135.08227500915527 166.46128101348876 L 128.8 169.9 L 118.2 174.4 L 106.5 178.1 L 93.9 180.9 L 80.1 182.8 L 79.8 181.1 L 92.9 177.2 L 104.9 173.0 L 115.6 168.3 L 125.2 163.2 L 128.88407373428345 160.78780879974366 L 125.3 156.9 L 120.5 150.0 L 116.9 142.5 L 114.4 134.5 L 113.41785717010498 127.0 L 97.0 127.0 L 97.0 123.0 L 158.0 123.0 L 164.0 118.0 L 175.0 127.0 L 170.0 130.0 L 167.91076231002808 130.87051572799683 L 165.7 135.9 L 160.6 144.3 L 154.3 151.9 L 146.8 158.7 L 144.1405387878418 160.57726678848266 L 151.1 164.2 L 159.3 167.5 L 168.4 170.3 L 178.4 172.5 L 187.3 174.5 L 175.5 185.4 L 164.8 182.3 Z M 115.57200002670288 127.0 L 118.3 133.2 L 122.1 139.8 L 126.5 145.9 L 131.5 151.3 L 136.3872241973877 155.34459934234619 L 140.7 151.7 L 146.8 145.2 L 151.6 138.3 L 155.5 131.0 L 156.8670886039734 127.0 Z M 144.2 85.6 L 145.4 89.0 L 141.321875 88.578125 L 139.3 90.6 L 136.6 93.1 L 133.8 95.7 L 130.7 98.3 L 127.5 101.0 L 124.1 103.7 L 120.4 106.4 L 116.5 109.0 L 116.36071424484253 109.1 L 163.0 109.1 L 173.0 99.1 L 185.0 109.1 L 185.0 113.1 L 15.0 113.1 L 15.0 109.1 L 112.38918914794922 109.1 L 114.4 106.7 L 117.2 103.0 L 119.9 99.4 L 122.5 96.1 L 124.9 92.8 L 127.2 89.7 L 129.3 86.7 L 131.2 83.8 L 133.0 81.1 L 134.01563749313354 79.27185249328613 L 133.9 79.2 L 134.4310344696045 78.5241379737854 L 134.5 78.4 L 134.51804647445678 78.41339530944825 L 135.0 77.8 Z M 69.3 100.8 L 68.0 98.6 L 66.4 96.3 L 64.5 93.9 L 62.4 91.6 L 60.1 89.2 L 57.5 86.7 L 54.7 84.1 L 51.4 81.8 L 52.3 80.2 L 56.0 81.7 L 59.8 83.1 L 63.2 84.6 L 66.5 86.3 L 69.6 88.1 L 72.4 90.1 L 75.1 92.2 L 77.5 94.5 L 79.8 96.9 L 81.8 99.5 L 82.2 104.0 L 79.4 107.6 L 74.8 108.1 L 71.2 105.2 L 70.4 103.1 Z M 58.4 39.6 L 141.5 39.6 L 147.5 34.6 L 158.5 43.6 L 153.5 47.6 L 153.5 74.0 L 141.5 80.0 L 141.5 74.0 L 58.4 74.0 L 46.4 80.0 L 46.4 33.6 Z M 58.4 43.6 L 58.4 70.0 L 141.5 70.0 L 141.5 43.6 Z M 178.0 22.5 L 178.0 26.5 L 22.0 26.5 L 22.0 22.5 L 156.0 22.5 L 166.0 12.5 Z " />
</g>
</svg>
