<svg xmlns="http://www.w3.org/2000/svg" xmlns:xlink="http://www.w3.org/1999/xlink" version="1.1" baseProfile="full" viewBox="0 0 200 200" width="200" height="200">
<g fill="black">
<path d="M 158.4 180.0 L 149.8 174.6 L 143.42799530029296 169.616765499115 L 142.4 170.4 L 133.0 175.9 L 122.8 180.5 L 111.7 184.0 L 99.8 186.5 L 99.4 184.7 L 110.5 180.4 L 120.6 175.6 L 129.7 170.2 L 137.80649938583375 164.36727476119995 L 135.1 161.7 L 129.1 154.2 L 124.0 146.1 L 119.8 137.4 L 116.6 128.2 L 114.76161613464356 119.1 L 105.8 119.1 L 105.8 115.1 L 166.9 115.1 L 172.9 110.1 L 183.9 119.1 L 178.9 122.1 L 177.27419357299806 122.77741937637329 L 175.1 129.3 L 170.5 139.3 L 164.9 148.4 L 158.4 156.7 L 152.02842817306518 162.8200623512268 L 155.8 165.3 L 163.8 169.6 L 172.5 173.2 L 181.9 176.2 L 189.5 178.6 L 177.9 188.8 L 167.8 184.8 Z M 80.9 146.0 L 78.4 143.1 L 75.9 140.3 L 73.3 137.6 L 70.6 135.1 L 67.8 132.7 L 64.9 130.4 L 61.8 128.1 L 61.0 127.6 L 61.0 182.0 L 49.0 188.0 L 49.0 136.7307692527771 L 45.4 143.1 L 41.0 149.7 L 36.4 155.9 L 31.3 161.8 L 25.8 167.2 L 19.9 172.2 L 13.5 176.6 L 12.4 175.3 L 17.2 169.4 L 21.8 163.6 L 26.2 157.6 L 30.2 151.5 L 33.9 145.2 L 37.2 138.7 L 40.2 132.0 L 42.9 125.0 L 45.2 117.8 L 46.18275861740112 114.0 L 14.0 114.0 L 14.0 110.0 L 49.0 110.0 L 49.0 83.0 L 61.0 85.0 L 64.0 87.0 L 61.0 88.8 L 61.0 110.0 L 78.0 110.0 L 88.0 100.0 L 100.0 110.0 L 100.0 114.0 L 61.0 114.0 L 61.0 124.8692307472229 L 63.1 125.3 L 67.0 126.3 L 70.8 127.6 L 74.5 129.3 L 78.1 131.3 L 81.6 133.5 L 85.1 136.0 L 88.4 138.7 L 91.7 141.7 L 94.8 144.9 L 96.0 149.3 L 93.8 153.3 L 89.4 154.5 L 85.4 152.3 L 83.2 149.1 Z M 116.91348314285278 119.1 L 120.5 126.7 L 125.1 134.8 L 130.1 142.2 L 135.6 149.0 L 141.7 155.1 L 145.04094915390016 157.75310668945312 L 151.2 150.7 L 156.5 142.9 L 160.9 134.5 L 164.4 125.4 L 166.13571424484252 119.1 Z M 130.43529415130615 28.967647075653076 L 131.0 28.8 L 137.1 27.1 L 142.8 25.6 L 148.2 24.2 L 153.2 22.8 L 157.8 21.6 L 162.0 20.3 L 165.9 19.1 L 169.3 17.9 L 171.41800756454467 17.148448944091797 L 171.4 17.1 L 171.44626970291137 17.138420391082764 L 172.4 16.8 L 172.80447282791138 18.266214084625243 L 182.6 26.4 L 182.9 29.4 L 178.70983610153198 27.511475372314454 L 175.6 28.4 L 172.1 29.0 L 168.3 29.6 L 164.1 30.1 L 159.6 30.7 L 154.7 31.2 L 149.5 31.7 L 143.9 32.1 L 137.9 32.4 L 131.6 32.5 L 130.7 32.5 L 130.7 51.2 L 165.5 51.2 L 175.5 41.2 L 187.5 51.2 L 187.5 55.2 L 165.3 55.2 L 165.3 102.2 L 153.3 108.2 L 153.3 55.2 L 130.7 55.2 L 130.7 65.1 L 130.1 71.5 L 129.0 77.5 L 127.2 83.1 L 124.8 88.2 L 121.8 92.9 L 118.3 97.0 L 114.3 100.6 L 109.7 103.6 L 104.7 105.9 L 99.2 107.6 L 98.5 105.9 L 102.8 102.7 L 106.6 99.3 L 109.8 95.9 L 112.5 92.3 L 114.7 88.4 L 116.4 84.4 L 117.6 80.1 L 118.4 75.4 L 118.8 70.4 L 118.7 65.1 L 118.7 23.1 Z M 87.0 50.4 L 88.8 53.5 L 84.72742347717285 53.92130098342896 L 83.3 56.1 L 81.2 59.0 L 79.0 61.9 L 76.7 64.8 L 74.2 67.7 L 71.6 70.6 L 68.7 73.6 L 65.7 76.5 L 64.2 78.0 L 80.0 78.0 L 90.0 68.0 L 102.0 78.0 L 102.0 82.0 L 12.0 82.0 L 12.0 78.0 L 61.42702703475952 78.0 L 63.3 74.7 L 65.1 71.0 L 66.8 67.4 L 68.4 63.9 L 70.0 60.6 L 71.5 57.3 L 72.8 54.2 L 74.0 51.1 L 75.1 48.2 L 75.779469871521 46.22953748703003 L 75.7 46.2 L 76.08360652923584 45.34754095077515 L 76.1 45.3 L 76.10413036346435 45.30193252563477 L 76.6 44.2 Z M 37.4 66.8 L 36.7 64.1 L 35.8 61.5 L 34.8 59.0 L 33.7 56.5 L 32.4 54.1 L 30.9 51.7 L 29.3 49.3 L 27.3 47.3 L 28.3 45.8 L 30.9 47.3 L 33.7 48.7 L 36.4 50.4 L 38.8 52.5 L 41.1 54.8 L 43.2 57.3 L 45.2 60.0 L 47.0 63.0 L 48.6 66.2 L 50.0 69.5 L 49.3 74.0 L 45.7 76.9 L 41.2 76.2 L 38.4 72.6 L 37.9 69.6 Z M 15.0 40.0 L 49.0 40.0 L 49.0 12.0 L 61.0 14.0 L 64.0 16.0 L 61.0 17.8 L 61.0 40.0 L 77.0 40.0 L 87.0 30.0 L 99.0 40.0 L 99.0 44.0 L 15.0 44.0 Z " />
</g>
</svg>
