<svg xmlns="http://www.w3.org/2000/svg" xmlns:xlink="http://www.w3.org/1999/xlink" version="1.1" baseProfile="full" viewBox="0 0 200 200" width="200" height="200">
<g fill="black">
<path d="M 161.6 167.5 L 153.0 155.9 L 148.24385251998902 147.91211128234863 L 147.6 149.0 L 138.0 161.9 L 127.3 172.8 L 115.6 181.8 L 103.0 188.7 L 102.1 187.2 L 113.3 178.8 L 123.5 169.0 L 132.8 157.8 L 141.2 145.0 L 143.82589988708497 139.89014081954957 L 138.4 128.4 L 132.4 112.5 L 127.3 95.3 L 123.2 76.6 L 120.0 56.6 L 117.98790693283081 36.0 L 109.0 36.0 L 109.0 32.0 L 172.2 32.0 L 178.2 27.0 L 189.2 36.0 L 184.2 39.0 L 183.4767123222351 39.30136985778809 L 180.6 58.0 L 176.0 79.7 L 170.5 99.6 L 163.9 117.9 L 156.3 134.3 L 154.16851596832277 137.90147304534912 L 162.0 149.5 L 170.5 159.7 L 179.5 168.3 L 189.2 175.5 L 192.7 177.9 L 181.7 186.4 L 171.2 177.7 Z M 83.0 171.1 L 76.6 161.1 L 73.62601480484008 154.21577491760254 L 70.4 159.7 L 63.9 168.5 L 56.8 175.8 L 49.1 181.6 L 41.0 185.7 L 40.1 184.2 L 46.8 178.6 L 52.9 172.1 L 58.6 164.5 L 63.9 155.8 L 68.7 145.9 L 69.62596569061279 143.54299631118775 L 66.5 133.5 L 62.5 115.7 L 59.1 95.2 L 56.3 71.9 L 54.69459457397461 53.0 L 30.3 53.0 L 30.3 155.55510206222533 L 30.5 155.4 L 35.6 151.4 L 40.9 147.3 L 46.5 143.0 L 52.3 138.7 L 58.5 134.3 L 59.7 135.6 L 54.9 141.4 L 50.1 146.9 L 45.4 152.1 L 40.7 157.0 L 36.2 161.7 L 31.8 166.2 L 27.5 170.4 L 23.4 174.4 L 19.4 178.3 L 18.619389820098878 179.0395254135132 L 19.0 182.9 L 15.6 181.9 L 6.4 174.0 L 7.9 172.7 L 12.0 169.6 L 16.4 166.3 L 19.357142829895018 164.0 L 18.3 164.0 L 18.3 43.0 L 30.3 49.0 L 54.354826259613034 49.0 L 54.1 46.0 L 52.65174646377564 18.193531703948974 L 52.6 18.2 L 52.5 14.9 L 64.6 16.7 L 67.6 18.6 L 64.79897956848144 20.467346954345704 L 66.1 45.1 L 66.43515625 49.0 L 81.2 49.0 L 91.2 39.0 L 103.2 49.0 L 103.2 53.0 L 66.77890625 53.0 L 68.3 70.7 L 71.0 93.5 L 74.3 113.4 L 76.60961036682129 123.73246755599976 L 77.1 122.2 L 80.5 108.4 L 83.5 93.4 L 85.94102973937989 78.00273532867432 L 85.9 78.0 L 86.4 75.0 L 97.9 78.8 L 100.6 81.3 L 97.15659656524659 82.70286808013915 L 94.7 95.6 L 90.9 111.0 L 86.6 125.2 L 81.8 138.0 L 81.00197257995606 139.6995029449463 L 82.5 144.5 L 87.3 155.6 L 92.4 163.6 L 96.00625 167.20625 L 100.9 146.0 L 102.9 146.0 L 101.0185185432434 170.45925922393798 L 102.5 171.2 L 106.0 174.0 L 106.7 178.6 L 103.8 182.1 L 99.3 182.7 L 90.4 178.4 Z M 119.95142860412598 36.0 L 124.1 55.8 L 128.9 75.3 L 134.3 93.3 L 140.3 109.7 L 146.9 124.5 L 149.29045658111573 128.91570444107055 L 155.2 114.5 L 160.8 96.8 L 165.6 77.3 L 169.4 56.2 L 171.95807857513427 36.0 Z M 83.5 30.9 L 83.1 29.4 L 82.7 27.8 L 81.3 24.6 L 80.4 22.9 L 79.3 21.2 L 78.1 19.5 L 76.3 18.2 L 77.2 16.7 L 79.2 17.7 L 81.5 18.4 L 83.6 19.2 L 85.6 20.3 L 87.5 21.5 L 89.3 22.9 L 90.9 24.5 L 92.5 26.2 L 93.9 28.1 L 95.2 30.2 L 94.8 34.7 L 91.4 37.8 L 86.8 37.4 L 83.8 34.0 L 83.7 32.5 Z " />
</g>
</svg>
