<svg xmlns="http://www.w3.org/2000/svg" xmlns:xlink="http://www.w3.org/1999/xlink" version="1.1" baseProfile="full" viewBox="0 0 200 200" width="200" height="200">
<g fill="black">
<path d="M 157.6 167.7 L 148.1 156.0 L 140.0309917449951 143.4161894798279 L 135.2 149.8 L 122.6 162.7 L 108.5 173.7 L 93.2 182.8 L 76.5 189.8 L 75.8 188.1 L 91.3 179.4 L 105.3 169.4 L 118.0 157.9 L 129.3 144.9 L 135.92389736175537 135.29534883499144 L 132.5 128.4 L 126.4 112.6 L 121.4 95.3 L 117.5 76.6 L 114.9 56.5 L 113.66046514511109 36.0 L 97.1 36.0 L 97.1 32.0 L 169.4 32.0 L 175.4 27.0 L 186.4 36.0 L 181.4 39.0 L 180.48313579559326 39.382026767730714 L 177.2 58.2 L 171.6 80.0 L 164.6 100.1 L 156.2 118.4 L 146.67614278793334 134.5322479248047 L 148.5 137.7 L 156.9 149.3 L 166.1 159.5 L 176.1 168.1 L 187.0 175.3 L 191.3 177.9 L 180.1 186.6 L 168.3 177.9 Z M 27.7 173.5 L 15.7 179.5 L 15.7 110.5 L 27.7 112.5 L 30.7 114.5 L 27.7 116.3 L 27.7 157.5 L 43.5 157.5 L 43.5 95.5 L 55.5 97.5 L 58.5 99.5 L 55.5 101.3 L 55.5 157.5 L 73.2 157.5 L 73.2 110.5 L 85.2 112.5 L 88.2 114.5 L 85.2 116.3 L 85.2 165.5 L 73.2 171.5 L 73.2 161.5 L 27.7 161.5 Z M 115.58857145309449 36.0 L 119.0 55.9 L 123.3 75.4 L 128.4 93.3 L 134.2 109.7 L 140.9 124.5 L 141.70484991073607 125.89789724349976 L 147.9 114.3 L 155.3 96.5 L 161.3 77.1 L 166.0 56.0 L 168.98245611190796 36.0 Z M 57.0 18.1 L 60.0 20.1 L 57.0 21.9 L 57.0 57.0 L 74.7 57.0 L 74.7 24.8 L 86.7 26.8 L 89.7 28.8 L 86.7 30.6 L 86.7 67.0 L 74.7 73.0 L 74.7 61.0 L 57.0 61.0 L 57.0 87.4 L 45.0 93.4 L 45.0 61.0 L 27.2 61.0 L 27.2 73.0 L 15.2 79.0 L 15.2 24.8 L 27.2 26.8 L 30.2 28.8 L 27.2 30.6 L 27.2 57.0 L 45.0 57.0 L 45.0 16.1 Z " />
</g>
</svg>
