<svg xmlns="http://www.w3.org/2000/svg" xmlns:xlink="http://www.w3.org/1999/xlink" version="1.1" baseProfile="full" viewBox="0 0 200 200" width="200" height="200">
<g fill="black">
<path d="M 163.1 167.1 L 155.9 155.5 L 151.00009231567384 145.1469693183899 L 148.5 149.4 L 138.7 162.4 L 127.8 173.5 L 115.8 182.6 L 102.9 189.7 L 102.0 188.2 L 113.6 179.6 L 124.1 169.6 L 133.5 158.2 L 142.0 145.3 L 147.09420289993287 135.4512077331543 L 144.3 128.0 L 139.7 112.2 L 136.1 95.0 L 133.3 76.5 L 131.5 56.4 L 130.83271026611328 36.0 L 118.4 36.0 L 118.4 32.0 L 172.2 32.0 L 178.2 27.0 L 189.2 36.0 L 184.2 39.0 L 183.52881355285643 39.279660987854 L 180.9 58.0 L 176.6 79.7 L 171.2 99.7 L 164.7 118.0 L 157.30243310928344 134.3732813835144 L 159.0 138.2 L 165.5 149.9 L 172.6 160.1 L 180.3 168.7 L 188.6 175.8 L 191.2 177.9 L 180.3 186.1 L 171.3 177.3 Z M 29.5 180.1 L 17.5 186.1 L 17.5 108.2 L 29.5 114.2 L 57.0 114.2 L 57.0 87.9 L 24.2 87.9 L 24.2 83.9 L 57.0 83.9 L 57.0 68.6 L 18.9 68.6 L 18.9 64.6 L 69.2692307472229 64.6 L 70.1 63.4 L 72.8 58.0 L 75.4 53.0 L 76.5 50.6 L 77.6 48.3 L 78.6 46.1 L 79.5 43.9 L 79.72857141494751 43.3 L 14.5 43.3 L 14.5 39.3 L 37.119999980926515 39.3 L 33.6 38.5 L 31.0 34.7 L 31.2 33.3 L 31.2 31.8 L 31.1 30.3 L 30.8 28.7 L 30.4 27.0 L 29.9 25.2 L 29.2 23.3 L 28.4 21.4 L 27.4 19.3 L 25.9 17.6 L 27.1 16.3 L 28.9 17.8 L 31.0 18.9 L 33.0 20.2 L 34.8 21.6 L 36.5 23.1 L 38.1 24.8 L 39.5 26.5 L 40.7 28.4 L 41.9 30.4 L 42.8 32.5 L 41.8 36.9 L 38.292307662963864 39.3 L 47.6 39.3 L 47.6 12.1 L 58.6 14.1 L 61.4 16.1 L 58.6 17.85 L 58.6 39.3 L 66.7 39.3 L 66.7 12.1 L 77.7 14.1 L 80.4 16.1 L 77.7 17.823404216766356 L 77.7 39.3 L 82.41071424484252 39.3 L 83.2 38.0 L 84.5 35.1 L 86.9 29.7 L 88.0 27.2 L 89.0 24.8 L 89.9 22.4 L 90.8 20.2 L 91.5 18.0 L 91.81534776687622 16.94884090423584 L 91.7 16.9 L 92.00232553482056 16.325581359863282 L 92.1 16.0 L 92.1577709197998 16.030235290527344 L 92.7 15.0 L 102.8 21.6 L 104.5 24.7 L 99.94526109695434 25.01411991119385 L 99.6 25.4 L 97.9 27.4 L 96.1 29.4 L 94.2 31.4 L 92.1 33.4 L 90.0 35.5 L 87.7 37.5 L 85.55714282989501 39.3 L 92.61818180084228 39.3 L 100.8 30.3 L 110.8 39.3 L 110.8 43.3 L 84.17887325286866 43.3 L 90.6 48.0 L 92.1 51.3 L 87.64736843109131 51.3 L 87.2 51.8 L 83.4 55.6 L 81.3 57.5 L 79.2 59.5 L 76.9 61.4 L 74.5 63.2 L 72.5555555343628 64.6 L 88.81818180084228 64.6 L 97.0 55.6 L 107.0 64.6 L 107.0 68.6 L 69.0 68.6 L 69.0 83.9 L 83.51818180084229 83.9 L 91.7 74.9 L 101.7 83.9 L 101.7 87.9 L 69.0 87.9 L 69.0 109.9 L 60.4 114.2 L 90.61818180084228 114.2 L 98.8 105.2 L 108.8 114.2 L 108.8 118.2 L 68.4 118.2 L 68.4 131.2 L 89.4 131.2 L 95.4 126.2 L 106.4 135.2 L 101.4 139.2 L 101.4 154.5 L 89.4 160.5 L 89.4 154.5 L 68.4 154.5 L 68.4 169.1 L 89.7 169.1 L 99.7 159.1 L 111.7 169.1 L 111.7 173.1 L 29.5 173.1 Z M 29.5 154.5 L 29.5 169.1 L 56.4 169.1 L 56.4 154.5 Z M 29.5 150.5 L 89.4 150.5 L 89.4 135.2 L 29.5 135.2 Z M 29.5 118.2 L 29.5 131.2 L 56.4 131.2 L 56.4 118.2 Z M 132.76161136627198 36.0 L 135.7 56.0 L 139.1 75.5 L 143.2 93.5 L 147.8 110.0 L 152.52950382232666 123.29615211486816 L 156.0 114.7 L 161.6 96.9 L 166.1 77.4 L 169.7 56.2 L 171.91491231918334 36.0 Z M 42.6 59.0 L 42.2 57.6 L 41.7 56.2 L 41.0 54.6 L 40.2 52.9 L 39.2 51.1 L 38.1 49.2 L 36.9 47.1 L 35.1 45.4 L 36.3 44.0 L 38.3 45.5 L 40.5 46.5 L 42.6 47.6 L 44.5 48.7 L 46.3 49.8 L 48.0 51.0 L 49.5 52.1 L 51.0 53.3 L 52.3 54.5 L 53.5 55.9 L 53.7 60.4 L 50.7 63.9 L 46.2 64.1 L 42.7 61.1 L 42.7 60.1 Z " />
</g>
</svg>
