<svg xmlns="http://www.w3.org/2000/svg" xmlns:xlink="http://www.w3.org/1999/xlink" version="1.1" baseProfile="full" viewBox="0 0 200 200" width="200" height="200">
<g fill="black">
<path d="M 40.5 133.8 L 40.5 148.1 L 54.5 148.1 L 54.5 148.0 L 66.5 148.0 L 66.5 148.1 L 80.4 148.1 L 80.4 133.8 Z M 136.29154930114746 96.0 L 135.9464277267456 98.22760305404663 L 138.7 108.2 L 142.5 120.3 L 146.5 131.3 L 150.9 141.1 L 153.02827157974244 144.9131531715393 L 155.2 140.7 L 159.6 130.0 L 163.2 118.6 L 166.2 106.2 L 167.97727270126342 96.0 Z M 105.5 74.9 L 100.5 77.9 L 100.5 116.7 L 90.5 121.7 L 90.5 116.7 L 30.4 116.7 L 20.4 121.7 L 20.4 65.9 L 30.4 70.9 L 90.5 70.9 L 95.5 65.9 Z M 30.4 74.9 L 30.4 112.7 L 90.5 112.7 L 90.5 74.9 Z M 88.5 86.8 L 83.5 89.8 L 83.5 103.4 L 73.5 108.4 L 73.5 103.4 L 47.4 103.4 L 37.4 108.4 L 37.4 77.8 L 47.4 82.8 L 73.5 82.8 L 78.5 77.8 Z M 47.4 86.8 L 47.4 99.4 L 73.5 99.4 L 73.5 86.8 Z M 136.91126756668092 92.0 L 168.4 92.0 L 174.4 87.0 L 185.4 96.0 L 180.4 99.0 L 179.39193658828736 99.42002639770507 L 177.3 108.8 L 173.5 121.7 L 168.9 133.8 L 163.5 144.8 L 158.2619815826416 153.41738510131836 L 160.8 157.1 L 166.2 163.2 L 171.8 168.2 L 177.8 172.1 L 184.0 174.9 L 190.4 177.5 L 178.9 187.0 L 171.2 182.7 L 164.2 177.2 L 158.0 170.6 L 152.4 162.9 L 151.93538522720337 162.0750717163086 L 150.4 164.1 L 142.7 172.2 L 134.2 179.2 L 124.9 185.1 L 115.0 189.7 L 114.2 188.2 L 122.9 181.9 L 130.8 175.1 L 137.9 167.6 L 144.4 159.4 L 147.61711082458496 154.40793151855468 L 147.5 154.2 L 143.3 144.5 L 139.7 133.7 L 136.8 121.9 L 134.6 109.0 L 134.37307500839233 106.74695873260498 L 132.4 116.0 L 128.8 128.8 L 124.5 140.9 L 119.5 152.2 L 113.9 162.8 L 107.5 172.6 L 100.3 181.6 L 92.4 189.6 L 91.0 188.3 L 97.3 179.3 L 102.9 169.7 L 103.26400003433227 169.0 L 66.5 169.0 L 66.5 183.0 L 54.5 189.0 L 54.5 169.0 L 13.6 169.0 L 13.6 165.0 L 54.5 165.0 L 54.5 152.1 L 40.5 152.1 L 28.5 158.1 L 28.5 123.8 L 40.5 129.8 L 80.4 129.8 L 86.4 124.8 L 97.4 133.8 L 92.4 137.8 L 92.4 152.1 L 80.4 158.1 L 80.4 152.1 L 66.5 152.1 L 66.5 165.0 L 85.3 165.0 L 95.3 155.0 L 105.93534879684448 163.86279067993163 L 108.1 159.7 L 112.6 149.2 L 116.5 138.0 L 119.9 126.2 L 122.6 113.8 L 124.7 100.7 L 126.2 87.0 L 127.1 72.6 L 127.8820689201355 60.0 L 106.7 60.0 L 106.7 56.0 L 128.1303448677063 56.0 L 130.7 14.6 L 142.5 17.3 L 145.4 19.5 L 142.29622411727905 20.65630865097046 L 140.1503571510315 56.0 L 165.6 56.0 L 175.6 46.0 L 187.6 56.0 L 187.6 60.0 L 139.9074999809265 60.0 L 139.1 73.3 L 137.5 88.2 Z M 44.3 40.7 L 76.6 40.7 L 82.6 35.7 L 93.6 44.7 L 88.6 48.7 L 88.6 60.6 L 76.6 66.6 L 76.6 60.6 L 44.3 60.6 L 32.3 66.6 L 32.3 34.7 Z M 44.3 44.7 L 44.3 56.6 L 76.6 56.6 L 76.6 44.7 Z M 14.1 27.8 L 54.5 27.8 L 54.5 12.1 L 66.5 14.1 L 69.5 16.1 L 66.5 17.9 L 66.5 27.8 L 88.61818180084228 27.8 L 96.8 18.8 L 106.8 27.8 L 106.8 31.8 L 14.1 31.8 Z " />
</g>
</svg>
