<svg xmlns="http://www.w3.org/2000/svg" xmlns:xlink="http://www.w3.org/1999/xlink" version="1.1" baseProfile="full" viewBox="0 0 200 200" width="200" height="200">
<g fill="black">
<path d="M 145.1 179.7 L 137.3 175.3 L 129.0 171.1 L 120.2 167.3 L 113.07900438308715 164.57281017303467 L 104.9 170.0 L 92.3 176.0 L 77.7 181.0 L 61.1 184.8 L 42.6 187.6 L 22.0 189.2 L 21.9 187.4 L 42.0 183.8 L 60.0 179.6 L 75.7 174.7 L 89.2 169.1 L 100.5 162.8 L 102.75586757659912 161.04543628692628 L 100.8 160.4 L 90.4 157.4 L 79.4 154.5 L 69.4678153038025 152.1025760650635 L 63.7 162.6 L 50.2 162.1 L 71.14003238677978 124.1 L 14.0 124.1 L 14.0 120.1 L 73.34424638748169 120.1 L 84.2 100.4 L 93.7 108.0 L 95.4 111.2 L 91.67655563354492 111.68266868591309 L 87.05164833068848 120.1 L 164.0 120.1 L 174.0 110.1 L 186.0 120.1 L 186.0 124.1 L 136.610169506073 124.1 L 135.0 134.1 L 130.8 144.9 L 124.2 154.5 L 120.13603820800782 158.46945104598998 L 123.0 159.3 L 132.6 162.6 L 141.7 166.3 L 150.3 170.4 L 158.5 174.9 L 166.1 179.9 L 168.4 183.9 L 167.4 188.3 L 163.4 190.6 L 159.0 189.5 L 152.3 184.5 Z M 84.85384616851806 124.1 L 70.53319978713989 150.16357641220094 L 80.0 150.8 L 91.5 152.1 L 102.5 154.0 L 109.65037355422973 155.6343710899353 L 116.4 148.2 L 121.1 140.1 L 124.0 131.4 L 124.70645160675049 124.1 Z M 152.6 92.9 L 142.5 86.9 L 133.5 80.2 L 132.33324251174926 79.0781177520752 L 126.2 82.8 L 113.1 88.9 L 98.7 94.0 L 83.0 98.0 L 65.9 100.9 L 65.6 99.1 L 82.0 94.3 L 97.0 88.9 L 110.4 82.9 L 122.4 76.3 L 126.44827585220337 73.41949605941772 L 125.7 72.7 L 119.0 64.5 L 113.5 55.5 L 109.3 45.9 L 106.4 35.7 L 105.11559629440308 25.7 L 87.6 25.7 L 87.6 21.7 L 163.3 21.7 L 169.3 16.7 L 180.3 25.7 L 175.3 28.7 L 173.5518518447876 29.428395080566407 L 170.6 37.3 L 164.6 48.4 L 157.1 58.5 L 148.2 67.6 L 141.28120031356812 73.04099779129028 L 148.3 77.5 L 157.8 82.2 L 168.2 86.3 L 179.7 89.7 L 187.7 92.1 L 176.0 102.4 L 163.8 98.0 Z M 18.0 60.9 L 21.0 60.56666669845581 L 21.0 29.5 L 33.0 31.5 L 36.0 33.5 L 33.0 35.3 L 33.0 59.25245904922485 L 35.2 59.0 L 41.6 58.4 L 48.3 57.7 L 55.3 57.1 L 62.7 56.4 L 62.889952945709226 56.385198497772215 L 63.0 55.92142858505249 L 63.0 14.0 L 75.0 16.0 L 78.0 18.0 L 75.0 19.8 L 75.0 55.56999998092651 L 78.4 55.4 L 86.8 55.1 L 87.1 56.8 L 79.0 59.1 L 74.12141981124878 60.350918006896975 L 72.4 65.3 L 69.2 71.7 L 65.3 77.6 L 60.8 82.9 L 55.5 87.6 L 49.7 91.7 L 43.2 95.2 L 36.1 98.1 L 28.4 100.3 L 20.2 101.8 L 19.7 100.1 L 27.2 96.7 L 33.9 93.2 L 40.0 89.5 L 45.3 85.5 L 49.9 81.3 L 53.8 76.8 L 57.0 72.0 L 59.7 66.8 L 60.89954900741577 63.561217594146726 L 56.5 64.6 L 49.6 66.1 L 43.0 67.6 L 36.8 68.9 L 30.8 70.3 L 25.2 71.5 L 23.971262550354005 71.77820472717285 L 22.4 75.3 L 19.9 72.7 L 16.0 61.2 Z M 107.14848480224609 25.7 L 110.4 34.4 L 114.7 43.5 L 119.7 51.8 L 125.6 59.3 L 132.3 66.1 L 134.22105264663696 67.63684206008911 L 141.8 60.9 L 149.3 52.2 L 155.4 42.9 L 160.1 32.9 L 162.36666669845582 25.7 Z " />
</g>
</svg>
