<svg xmlns="http://www.w3.org/2000/svg" xmlns:xlink="http://www.w3.org/1999/xlink" version="1.1" baseProfile="full" viewBox="0 0 200 200" width="200" height="200">
<g fill="black">
<path d="M 141.0 184.0 L 127.2 181.3 L 114.4 178.2 L 102.6 174.7 L 100.98770837783813 174.09354162216187 L 99.1 174.6 L 85.5 177.5 L 70.8 179.9 L 54.7 181.7 L 37.5 183.0 L 19.0 183.6 L 18.9 181.8 L 37.1 179.2 L 54.0 176.4 L 69.6 173.4 L 83.9 170.1 L 88.12365245819092 168.92130632400512 L 81.9 166.0 L 73.1 160.9 L 65.5 155.3 L 60.01428575515747 149.9 L 34.0 149.9 L 34.0 145.9 L 138.01538457870484 145.9 L 140.9 143.4 L 141.37444086074828 143.9212992668152 L 145.0 140.9 L 156.0 149.9 L 151.0 152.9 L 144.38536586761475 155.65609760284423 L 141.3 157.9 L 132.5 162.9 L 122.6 167.4 L 118.93584957122803 168.67590951919556 L 129.3 170.5 L 142.7 172.3 L 157.1 173.7 L 172.4 174.7 L 183.4 175.4 L 171.5 187.8 L 155.8 186.1 Z M 64.40714282989502 149.9 L 67.8 151.8 L 75.9 155.8 L 84.8 159.4 L 94.6 162.8 L 101.80978431701661 164.77248811721802 L 108.4 162.5 L 118.6 158.1 L 127.4 153.5 L 132.91020412445067 149.9 Z M 151.6 87.5 L 143.07496423721312 85.11587982177734 L 151.0 91.6 L 146.0 95.6 L 146.0 134.3 L 164.4777777671814 134.3 L 170.7 127.3 L 178.7 134.3 L 178.7 138.3 L 16.2 138.3 L 16.2 134.3 L 48.9 134.3 L 48.9 87.0285714149475 L 47.6 87.2 L 29.4 89.4 L 24.388186359405516 89.89567384719848 L 22.5 93.2 L 20.3 90.3 L 17.6 78.5 L 19.5 78.3 L 28.6 78.0 L 37.0 77.62666664123535 L 37.0 11.7 L 49.0 17.7 L 149.0 17.7 L 155.0 12.7 L 166.0 21.7 L 161.0 25.7 L 161.0 40.2 L 149.0 46.2 L 149.0 40.2 L 111.18461542129516 40.2 L 111.6 44.7 L 113.4 50.5 L 115.33018865585328 53.8 L 161.8181818008423 53.8 L 170.0 44.8 L 180.0 53.8 L 180.0 55.2 L 182.0 55.2 L 180.0823657989502 80.12924423217774 L 180.6 80.2 L 184.6 82.4 L 185.9 86.8 L 183.7 90.8 L 179.3 92.1 L 164.7 90.2 Z M 60.9 122.3 L 60.9 134.3 L 134.0 134.3 L 134.0 122.3 Z M 60.9 107.0 L 60.9 118.3 L 134.0 118.3 L 134.0 107.0 Z M 60.9 91.6 L 60.9 103.0 L 134.0 103.0 L 134.0 91.6 Z M 49.0 57.8 L 49.0 77.0989010810852 L 55.8 76.8 L 65.0 76.3 L 92.9 74.8 L 102.3 74.5 L 111.8 74.3 L 112.1 76.0 L 102.8 78.2 L 93.5 80.2 L 84.3 81.8 L 75.1 83.3 L 65.9 84.7 L 57.479660987854004 85.88983049392701 L 60.9 87.6 L 134.0 87.6 L 138.6323760032654 83.73968667984009 L 129.4 80.1 L 120.5 75.3 L 112.9 69.5 L 106.9 62.9 L 103.9079999923706 57.8 Z M 118.375 57.8 L 121.0 60.6 L 126.9 65.1 L 134.5 69.2 L 143.6 72.8 L 154.3 75.9 L 166.7 78.3 L 174.425536441803 79.35600862503051 L 179.4 57.8 Z M 49.0 40.2 L 49.0 53.8 L 101.97951803207397 53.8 L 99.8 47.1 L 99.17977523803711 40.2 Z M 49.0 21.7 L 49.0 36.2 L 149.0 36.2 L 149.0 21.7 Z " />
</g>
</svg>
