<svg xmlns="http://www.w3.org/2000/svg" xmlns:xlink="http://www.w3.org/1999/xlink" version="1.1" baseProfile="full" viewBox="0 0 200 200" width="200" height="200">
<g fill="black">
<path d="M 158.0 164.1 L 149.9 152.7 L 143.77570190429688 141.50128355026246 L 140.4 146.6 L 129.5 159.3 L 117.5 170.2 L 104.4087781906128 179.0266571044922 L 103.9 179.8 L 101.68181819915772 180.3545454978943 L 89.9 186.0 L 89.2 184.4 L 96.23665266036987 179.7991117477417 L 91.2 178.1 L 84.0 172.9 L 78.0 165.7 L 72.9 156.6 L 68.8 145.8 L 65.5 133.0 L 62.9 118.4 L 62.36666669845581 114.0 L 38.0 114.0 L 38.0 166.30588235855103 L 38.7 166.1 L 43.7 164.7 L 48.7 163.2 L 53.5 161.8 L 58.4 160.4 L 63.2 159.2 L 68.1 158.1 L 68.8 159.8 L 64.8 162.7 L 60.5 165.4 L 56.0 167.9 L 51.4 170.3 L 46.7 172.6 L 41.9 174.8 L 37.0 177.0 L 31.9 179.2 L 26.8 181.3 L 25.426456451416016 181.81831827163697 L 24.4 185.6 L 21.5 183.3 L 15.9 172.6 L 17.8 171.9 L 23.2 170.5 L 26.0 169.69230766296386 L 26.0 19.0 L 38.0 25.0 L 87.9 25.0 L 93.9 20.0 L 104.9 29.0 L 99.9 33.0 L 99.9 73.0 L 87.9 79.0 L 87.9 67.0 L 71.22299995422364 67.0 L 71.7 82.9 L 72.9 100.8 L 73.94150943756104 110.0 L 88.5 110.0 L 98.5 100.0 L 110.5 110.0 L 110.5 114.0 L 74.39433965682983 114.0 L 74.7 116.7 L 77.2 130.5 L 80.3 142.1 L 83.9 151.7 L 87.9 159.0 L 92.2 164.2 L 95.32555065155029 166.4226138114929 L 100.5 144.0 L 102.5 144.0 L 100.6 168.7 L 101.5 169.0 L 105.4 171.5 L 105.72686805725098 172.97090616226197 L 114.0 166.1 L 124.7 154.9 L 134.2 142.2 L 139.81237497329712 132.7124137878418 L 136.8 125.7 L 131.7 110.2 L 127.5 93.3 L 124.3 75.0 L 122.2 55.4 L 121.34265403747558 35.3 L 107.4 35.3 L 107.4 31.3 L 168.0 31.3 L 174.0 26.3 L 185.0 35.3 L 180.0 38.3 L 179.26325578689574 38.606976699829104 L 176.4 56.9 L 171.6 78.3 L 165.7 97.9 L 158.5 115.9 L 150.20481929779052 131.70963859558105 L 151.9 135.1 L 159.2 146.6 L 167.0 156.5 L 175.6 164.9 L 184.8 171.9 L 188.2 174.3 L 177.2 182.7 L 167.1 174.2 Z M 123.27621355056763 35.3 L 126.4 54.8 L 130.1 74.0 L 134.5 91.6 L 139.6 107.6 L 145.36563873291016 122.01409692764283 L 149.9 112.2 L 156.1 94.8 L 161.2 75.7 L 165.2 55.0 L 167.7504464149475 35.3 Z M 38.0 67.0 L 38.0 110.0 L 61.88181819915771 110.0 L 60.9 101.9 L 59.7 83.4 L 59.217647075653076 67.0 Z M 38.0 29.0 L 38.0 63.0 L 59.1 63.0 L 71.1 62.9 L 71.10299997329712 63.0 L 87.9 63.0 L 87.9 29.0 Z " />
</g>
</svg>
