<svg xmlns="http://www.w3.org/2000/svg" xmlns:xlink="http://www.w3.org/1999/xlink" version="1.1" baseProfile="full" viewBox="0 0 200 200" width="200" height="200">
<g fill="black">
<path d="M 159.0 182.9 L 149.8 178.6 L 141.3 173.7 L 135.18918504714966 169.41449337005616 L 126.9 174.0 L 116.6 178.7 L 105.4 182.6 L 93.2 185.9 L 80.2 188.5 L 79.7 186.8 L 92.1 182.3 L 103.5 177.6 L 113.9 172.7 L 123.2 167.4 L 128.5485980987549 163.83426790237428 L 126.7 162.2 L 120.5 155.6 L 115.2 148.5 L 110.9 140.7 L 107.88170728683471 133.2 L 94.0 133.2 L 94.0 129.2 L 158.0 129.2 L 158.43346004486085 128.83878326416016 L 158.5 128.7 L 158.5649582862854 128.72920141220092 L 164.0 124.2 L 175.0 133.2 L 170.0 136.2 L 167.28777923583985 137.3300919532776 L 164.7 141.9 L 159.1 149.5 L 152.4 156.6 L 144.8 163.0 L 144.0369318008423 163.52068185806274 L 146.5 164.9 L 154.5 168.6 L 163.2 171.9 L 172.5 174.7 L 182.4 176.9 L 191.2 179.0 L 179.5 189.8 L 168.9 186.7 Z M 81.0 123.6 L 84.0 125.6 L 81.0 127.4 L 81.0 149.8 L 80.58474521636963 152.36702947616578 L 89.8 151.3 L 99.8 150.3 L 100.1 152.1 L 90.5 155.0 L 81.3 157.6 L 79.24569540023803 158.16026487350464 L 77.3 162.8 L 73.3 168.4 L 68.0 173.1 L 61.7 177.2 L 54.2 180.6 L 45.6 183.4 L 36.0 185.8 L 25.1 187.5 L 13.1 188.5 L 12.8 186.8 L 24.4 183.7 L 34.6 180.6 L 43.5 177.2 L 51.1 173.7 L 57.2 169.9 L 62.0 166.0 L 65.5 162.0 L 65.67222604751586 161.68686180114747 L 64.0 162.1 L 56.0 164.1 L 48.3 165.9 L 41.1 167.6 L 34.3 169.2 L 27.9 170.6 L 25.958525562286376 171.05301065444945 L 24.4 174.6 L 21.9 172.0 L 18.0 160.5 L 19.9 160.1 L 26.0 159.4 L 30.0 158.9 L 30.0 127.3 L 42.0 129.3 L 45.0 131.3 L 42.0 133.1 L 42.0 157.37162160873413 L 46.7 156.8 L 54.4 155.7 L 62.6 154.6 L 68.80924787521363 153.80579385757446 L 69.0 149.8 L 69.0 121.6 Z M 110.3470588684082 133.2 L 114.4 138.5 L 119.9 144.8 L 125.8 150.6 L 132.1 155.9 L 135.7169937133789 158.41616954803467 L 138.9 155.8 L 145.2 149.6 L 150.6 142.9 L 155.0 136.0 L 156.34246578216553 133.2 Z M 161.4164529800415 79.60683765411378 L 156.8 83.3 L 156.8 111.8 L 164.9 111.8 L 174.9 101.8 L 186.9 111.8 L 186.9 115.8 L 13.0 115.8 L 13.0 111.8 L 43.1 111.8 L 43.1 76.2 L 35.1 79.4 L 26.0 82.4 L 16.3 85.1 L 15.6 83.4 L 24.5 78.9 L 32.9 74.5 L 40.7 70.1 L 47.9 65.7 L 54.6 61.3 L 60.6 56.9 L 66.0 52.4 L 70.8 47.8 L 75.0 43.2 L 75.23478260040284 42.9 L 20.0 42.9 L 20.0 38.9 L 78.36521739959717 38.9 L 78.6 38.6 L 78.64592084884643 38.63663902282715 L 79.1 38.1 L 79.98999996185303 38.9 L 112.01428575515747 38.9 L 114.7 36.5 L 119.1 32.5 L 123.2 28.9 L 127.0 25.6 L 130.5 22.5 L 133.6 19.7 L 136.3 17.2 L 140.7 12.8 L 141.64350519180297 11.738556671142579 L 141.5 11.6 L 142.5 10.8 L 150.2 20.0 L 150.6 23.6 L 146.66022806167604 22.3106201171875 L 145.3 23.2 L 142.3 25.0 L 139.0 27.0 L 135.3 29.2 L 131.2 31.5 L 126.8 34.0 L 122.0 36.6 L 117.48518514633179 38.9 L 158.0 38.9 L 168.0 28.9 L 180.0 38.9 L 180.0 42.9 L 117.84634141921997 42.9 L 126.9 49.3 L 132.8 53.1 L 138.9 56.8 L 145.2 60.1 L 151.8 63.2 L 158.6 66.1 L 165.7 68.7 L 173.1 71.0 L 180.8 73.0 L 188.8 75.3 L 177.1 85.7 L 169.1 82.8 Z M 55.1 79.3 L 55.1 111.8 L 77.0 111.8 L 77.0 79.3 Z M 89.0 79.3 L 89.0 111.8 L 110.9 111.8 L 110.9 79.3 Z M 122.9 79.3 L 122.9 111.8 L 144.8 111.8 L 144.8 79.3 Z M 84.43999996185303 42.9 L 88.0 46.1 L 89.1 49.5 L 85.24835300445557 48.96873836517334 L 83.3 51.0 L 78.0 55.7 L 72.3 60.2 L 65.9 64.5 L 59.0 68.5 L 51.6 72.4 L 50.38947372436523 72.94473686218262 L 55.1 75.3 L 144.8 75.3 L 147.88719720840453 72.72733564376831 L 147.1 72.3 L 140.5 68.2 L 134.3 63.7 L 128.5 58.9 L 123.1 53.8 L 118.2 48.3 L 114.41999998092652 42.9 Z M 71.2 31.9 L 69.6 30.1 L 67.6 28.3 L 65.3 26.3 L 62.5 24.4 L 59.4 22.4 L 55.9 20.4 L 52.1 18.3 L 47.9 16.5 L 48.4 14.8 L 53.0 15.6 L 57.4 16.3 L 61.5 17.2 L 65.4 18.3 L 68.9 19.5 L 72.2 20.9 L 75.3 22.4 L 78.1 24.1 L 80.6 26.0 L 82.9 28.2 L 83.9 32.7 L 81.5 36.6 L 77.1 37.6 L 73.2 35.2 L 72.4 33.6 Z " />
</g>
</svg>
