<svg xmlns="http://www.w3.org/2000/svg" xmlns:xlink="http://www.w3.org/1999/xlink" version="1.1" baseProfile="full" viewBox="0 0 200 200" width="200" height="200">
<g fill="black">
<path d="M 15.0 106.7 L 15.0 38.0 L 27.0 40.0 L 30.0 42.0 L 27.0 43.8 L 27.0 101.3615385055542 L 30.0 99.9 L 34.3 97.9 L 38.9 95.8 L 42.52745037078857 94.06184673309326 L 43.0 89.3 L 43.0 17.0 L 55.0 19.0 L 58.0 21.0 L 55.0 22.8 L 55.0 88.49166669845582 L 60.5 86.2 L 61.4 87.7 L 56.4 91.8 L 54.510309314727785 93.32783508300781 L 53.0 103.9 L 50.8 116.5 L 48.1 128.4 L 45.1 139.4 L 41.7 149.7 L 38.0 159.2 L 33.8 167.9 L 29.2 175.7 L 24.2 182.6 L 18.7 188.5 L 17.2 187.4 L 21.0 180.5 L 24.5 173.1 L 27.8 165.2 L 30.9 156.5 L 33.7 147.2 L 36.1 137.1 L 38.3 126.3 L 40.2 114.7 L 41.62136964797973 103.04476852416992 L 38.5 105.2 L 34.7 107.9 L 31.0 110.5 L 27.6 112.8 L 25.195827293395997 114.42863311767579 L 24.8 118.5 L 21.7 116.8 L 14.2 107.1 Z M 185.0 148.4 L 187.0 148.4 L 185.0 173.4 L 188.6 175.8 L 191.0 179.4 L 188.6 183.0 L 185.0 185.4 L 163.0 185.4 L 160.4 185.2 L 157.9 184.8 L 155.5 184.0 L 153.2 182.8 L 151.2 181.1 L 149.6 179.1 L 148.3 176.8 L 147.5 174.4 L 147.1 171.9 L 147.0 169.4 L 147.0 134.2 L 141.2 134.2 L 142.9 134.6 L 145.8 136.7 L 142.4796875 138.52291669845582 L 142.0 143.0 L 140.3 150.9 L 137.9 158.1 L 134.8 164.6 L 131.0 170.4 L 126.4 175.4 L 121.2 179.6 L 115.5 182.9 L 109.1 185.3 L 102.2 186.7 L 101.7 185.0 L 107.6 181.8 L 112.7 178.3 L 117.1 174.5 L 120.8 170.3 L 123.9 165.6 L 126.5 160.5 L 128.4 154.8 L 129.8 148.5 L 130.7 141.7 L 130.8973684310913 134.2 L 127.5 134.2 L 127.5 146.2 L 115.5 152.2 L 115.5 84.1 L 127.5 90.1 L 163.5 90.1 L 169.5 85.1 L 180.5 94.1 L 175.5 98.1 L 175.5 140.2 L 163.5 146.2 L 163.5 134.2 L 159.0 134.2 L 159.0 170.6 L 159.2 171.5 L 159.4 172.1 L 159.5 172.5 L 159.7 172.6 L 159.9 172.8 L 160.2 173.0 L 160.8 173.2 L 161.7 173.3 L 163.0 173.4 L 179.0 173.4 Z M 88.7 153.1 L 83.6 142.3 L 79.74335126876831 131.84419679641724 L 78.7 134.5 L 72.5 146.9 L 65.6 157.7 L 57.9 166.6 L 49.5 173.6 L 48.4 172.3 L 55.0 164.1 L 61.1 154.7 L 66.6 143.9 L 71.7 131.7 L 75.8815336227417 118.87663011550903 L 75.2 116.5 L 72.0 101.4 L 69.4 85.0 L 67.5 67.1 L 66.4 47.8 L 66.11442308425903 28.0 L 59.0 28.0 L 59.0 24.0 L 90.0 24.0 L 96.0 19.0 L 107.0 28.0 L 102.0 31.0 L 101.41565217971802 31.243478298187256 L 99.7 48.4 L 96.8 68.8 L 93.3 87.6 L 89.1 104.8 L 85.29519863128662 116.99089403152466 L 88.7 126.6 L 93.6 137.7 L 98.9 147.2 L 104.6 155.0 L 110.5 161.2 L 112.1 162.7 L 101.4 170.7 L 94.7 162.6 Z M 127.5 94.1 L 127.5 130.2 L 163.5 130.2 L 163.5 94.1 Z M 68.03951215744019 28.0 L 70.5 47.4 L 73.4 66.4 L 76.6 83.8 L 80.2 99.7 L 80.47538003921508 100.67759914398194 L 83.4 85.7 L 86.2 67.2 L 88.4 47.2 L 89.81566820144653 28.0 Z M 170.5 42.3 L 172.8 45.0 L 168.66854772567748 46.10663900375366 L 168.1 47.2 L 166.8 49.9 L 165.3 52.7 L 163.8 55.7 L 162.1 58.8 L 160.2 62.0 L 158.2 65.4 L 155.9 68.9 L 155.10540542602538 70.3 L 165.5 70.3 L 175.5 60.3 L 187.5 70.3 L 187.5 74.3 L 102.5 74.3 L 102.5 70.3 L 152.56829271316528 70.3 L 153.3 67.8 L 154.1 63.8 L 155.0 60.0 L 155.8 56.4 L 156.5 53.0 L 157.2 49.8 L 157.7 46.8 L 158.2 44.0 L 158.6 41.4 L 158.77087182998656 40.033025646209715 L 158.6 40.0 L 158.8947368621826 39.04210529327393 L 158.9 39.0 L 158.9070732116699 39.002012157440184 L 159.4 37.4 Z M 126.3 58.6 L 125.7 53.6 L 125.3 51.2 L 124.8 48.8 L 123.6 44.0 L 123.0 41.5 L 121.8 39.4 L 123.3 38.3 L 125.0 40.2 L 127.0 42.0 L 128.8 44.0 L 130.6 46.1 L 132.1 48.4 L 133.6 50.8 L 135.0 53.3 L 136.2 56.0 L 137.3 58.7 L 138.3 61.6 L 137.3 66.0 L 133.5 68.5 L 129.0 67.5 L 126.5 63.7 L 126.4 61.1 Z M 108.0 31.8 L 139.0 31.8 L 139.0 12.8 L 151.0 14.8 L 154.0 16.8 L 151.0 18.6 L 151.0 31.8 L 160.0 31.8 L 170.0 21.8 L 182.0 31.8 L 182.0 35.8 L 108.0 35.8 Z " />
</g>
</svg>
