<svg xmlns="http://www.w3.org/2000/svg" xmlns:xlink="http://www.w3.org/1999/xlink" version="1.1" baseProfile="full" viewBox="0 0 200 200" width="200" height="200">
<g fill="black">
<path d="M 149.0 106.0 L 152.0 108.0 L 149.0 109.8 L 149.0 128.0 L 165.0 128.0 L 175.0 118.0 L 187.0 128.0 L 187.0 132.0 L 149.0 132.0 L 149.0 181.0 L 137.0 187.0 L 137.0 179.0 L 63.0 179.0 L 63.0 182.0 L 51.0 188.0 L 51.0 132.0 L 13.0 132.0 L 13.0 128.0 L 51.0 128.0 L 51.0 104.0 L 63.0 106.0 L 66.0 108.0 L 63.0 109.8 L 63.0 128.0 L 137.0 128.0 L 137.0 104.0 Z M 63.0 155.0 L 63.0 175.0 L 137.0 175.0 L 137.0 155.0 Z M 63.0 132.0 L 63.0 151.0 L 137.0 151.0 L 137.0 132.0 Z M 146.8 98.1 L 134.3 94.4 L 122.9 90.2 L 113.0166184425354 85.69010744094848 L 108.9 87.5 L 96.2 91.9 L 82.3 95.7 L 67.4 99.0 L 51.3 101.5 L 34.1 103.3 L 33.8 101.5 L 50.6 97.7 L 66.2 93.7 L 80.5 89.4 L 93.7 84.7 L 103.8453351020813 80.40112924575806 L 103.5 80.2 L 95.5 74.4 L 88.8 68.0 L 83.5 61.1 L 80.05945949554443 54.4 L 78.6612244606018 54.4 L 74.4 61.6 L 67.5 70.6 L 59.3 78.7 L 50.0 86.0 L 39.6 92.4 L 28.0 97.8 L 15.3 102.2 L 14.6 100.5 L 26.3 94.4 L 36.8 87.8 L 46.0 80.8 L 54.1 73.3 L 60.9 65.2 L 66.5 56.7 L 71.0 47.6 L 74.4 37.8 L 74.98058252334594 35.2 L 16.0 35.2 L 16.0 31.2 L 75.87378644943237 31.2 L 76.7 27.5 L 77.87142858505248 16.7619047164917 L 78.1 14.4 L 89.8 17.5 L 92.7 19.8 L 89.18347520828247 21.458738136291505 L 87.9 29.7 L 87.47894735336304 31.2 L 162.0 31.2 L 172.0 21.2 L 184.0 31.2 L 184.0 35.2 L 86.35614032745362 35.2 L 84.7 41.1 L 80.78878507614135 50.4 L 144.79565219879152 50.4 L 146.2 48.7 L 146.6341675758362 49.038193702697754 L 151.0 45.4 L 162.0 54.4 L 157.0 57.4 L 152.8209174156189 59.14128437042236 L 148.6 63.6 L 140.3 70.5 L 130.9 76.8 L 124.87364339828491 80.04496126174926 L 126.4 80.6 L 137.4 83.8 L 149.5 86.6 L 162.6 88.9 L 176.8 90.8 L 186.9 92.2 L 175.1 103.9 L 160.4 101.2 Z M 82.74385967254639 54.4 L 86.7 58.5 L 92.9 63.7 L 99.8 68.6 L 107.7 73.0 L 113.4499122619629 75.613596534729 L 116.2 74.2 L 125.5 68.4 L 133.7 62.1 L 140.5 55.6 L 141.49130430221558 54.4 Z " />
</g>
</svg>
