<svg xmlns="http://www.w3.org/2000/svg" xmlns:xlink="http://www.w3.org/1999/xlink" version="1.1" baseProfile="full" viewBox="0 0 200 200" width="200" height="200">
<g fill="black">
<path d="M 158.8 181.2 L 149.6 176.4 L 141.1 170.9 L 135.27257099151612 166.28346529006959 L 127.1 171.5 L 116.7 176.8 L 105.5 181.4 L 93.3 185.2 L 80.2 188.3 L 79.7 186.6 L 92.0 181.6 L 103.4 176.4 L 113.7 170.9 L 123.1 165.0 L 129.03319988250732 160.4964868545532 L 126.5 158.0 L 120.4 150.6 L 115.1 142.6 L 110.8 133.9 L 107.75108699798584 125.4 L 94.0 125.4 L 94.0 121.4 L 158.0 121.4 L 164.0 116.4 L 175.0 125.4 L 170.0 128.4 L 167.62573366165162 129.38927764892577 L 164.9 134.9 L 159.2 143.6 L 152.6 151.5 L 145.0 158.8 L 143.27317733764647 160.16114253997802 L 146.7 162.4 L 154.8 166.7 L 163.4 170.4 L 172.7 173.6 L 182.6 176.2 L 191.0 178.4 L 179.3 188.9 L 168.7 185.4 Z M 81.0 114.7 L 84.0 116.7 L 81.0 118.5 L 81.0 144.5 L 80.51588497161865 147.75677366256713 L 89.7 146.5 L 99.8 145.2 L 100.1 147.0 L 90.6 150.2 L 81.4 153.0 L 79.26643838882447 153.6232876777649 L 77.4 158.7 L 73.4 164.9 L 68.2 170.3 L 61.9 174.9 L 54.4 178.9 L 45.8 182.2 L 36.0 184.9 L 25.2 186.9 L 13.1 188.3 L 12.8 186.5 L 24.3 183.2 L 34.5 179.8 L 43.4 176.1 L 50.9 172.1 L 57.0 167.9 L 61.8 163.5 L 65.3 159.0 L 66.08333330154419 157.4333333015442 L 64.1 158.0 L 56.1 160.1 L 48.5 162.2 L 41.2 164.0 L 34.4 165.8 L 28.0 167.4 L 26.10986547470093 167.84103136062623 L 24.6 171.4 L 22.0 168.8 L 17.9 157.4 L 19.8 157.0 L 25.9 156.2 L 30.0 155.559375 L 30.0 119.2 L 42.0 121.2 L 45.0 123.2 L 42.0 125.0 L 42.0 153.78378381729127 L 46.6 153.1 L 54.3 151.8 L 62.5 150.5 L 68.80206422805786 149.5473624229431 L 69.0 144.5 L 69.0 112.7 Z M 110.12151899337769 125.4 L 114.4 131.9 L 120.0 139.2 L 125.9 145.9 L 132.3 152.0 L 135.72523736953735 154.7302616119385 L 138.7 152.0 L 145.0 145.0 L 150.4 137.5 L 154.8 129.6 L 156.6 125.4 Z M 37.0 67.9 L 36.7 66.2 L 36.3 64.6 L 35.8 62.9 L 35.2 61.2 L 34.5 59.6 L 33.6 57.9 L 32.7 56.1 L 31.3 54.8 L 32.23333330154419 53.4 L 12.0 53.4 L 12.0 49.4 L 52.0 49.4 L 52.0 34.5 L 20.0 34.5 L 20.0 30.5 L 52.0 30.5 L 52.0 13.7 L 64.0 15.7 L 67.0 17.7 L 64.0 19.5 L 64.0 30.5 L 76.0 30.5 L 86.0 20.5 L 98.0 30.5 L 98.0 34.5 L 64.0 34.5 L 64.0 49.4 L 86.81818180084228 49.4 L 95.0 40.4 L 105.0 49.4 L 105.0 53.4 L 79.5666666984558 53.4 L 86.5 58.6 L 87.9 61.9 L 83.279660987854 61.82033901214599 L 83.2 61.9 L 81.5 63.5 L 79.6 65.2 L 77.7 66.8 L 75.6 68.4 L 73.5 70.1 L 71.2 71.7 L 69.91999998092652 72.5 L 85.81818180084228 72.5 L 94.0 63.5 L 104.0 72.5 L 104.0 76.5 L 64.0 76.5 L 64.0 91.4 L 77.81818180084228 91.4 L 86.0 82.4 L 96.0 91.4 L 96.0 95.4 L 64.0 95.4 L 64.0 110.4 L 52.0 116.4 L 52.0 95.4 L 19.0 95.4 L 19.0 91.4 L 52.0 91.4 L 52.0 76.5 L 13.0 76.5 L 13.0 72.5 L 38.27058820724487 72.5 L 37.3 71.4 L 37.2 69.6 Z M 138.1 82.7 L 135.5 79.5 L 134.45353536605836 78.38377103805541 L 132.7 82.3 L 129.1 88.3 L 124.6 93.7 L 119.5 98.4 L 113.8 102.3 L 107.3 105.5 L 100.3 107.9 L 99.6 106.2 L 105.5 102.2 L 110.6 98.0 L 115.0 93.6 L 118.8 88.8 L 121.8 83.8 L 124.3 78.4 L 126.1 72.6 L 126.40655612945557 71.01612663269043 L 125.4 70.2 L 121.3 67.3 L 116.7 64.5 L 111.9 61.7 L 106.6 58.9 L 107.2 57.1 L 113.2 58.2 L 118.9 59.6 L 124.2 61.5 L 127.60718507766724 62.96976613998413 L 127.9 59.7 L 128.0 52.5 L 128.0 41.9 L 105.0 41.9 L 105.0 37.9 L 128.0 37.9 L 128.0 13.7 L 140.0 15.7 L 143.0 17.7 L 140.0 19.5 L 140.0 37.9 L 156.0 37.9 L 162.0 32.9 L 173.0 41.9 L 168.0 44.9 L 167.7755888938904 44.99350461959839 L 167.6 51.9 L 167.8 62.5 L 168.5 71.9 L 169.8 80.0 L 171.4 86.9 L 173.5 92.6 L 175.9 96.9 L 178.10135135650634 99.42747745513915 L 183.0 78.2 L 185.0 78.2 L 183.11060237884521 102.76216869354248 L 184.5 103.3 L 188.1 106.2 L 188.8 110.7 L 185.9 114.3 L 181.4 115.0 L 175.5 112.6 L 170.3 108.7 L 166.0 103.6 L 162.6 97.5 L 160.0 90.4 L 158.0 82.3 L 156.6 73.2 L 155.8 63.1 L 155.6 51.9 L 155.92520322799683 41.9 L 140.0 41.9 L 140.0 52.5 L 139.3 60.7 L 137.9 68.4 L 137.80232553482057 68.71966171264648 L 138.4 69.1 L 142.5 72.3 L 146.2 75.7 L 149.6 79.5 L 152.6 83.6 L 153.2 88.1 L 150.5 91.8 L 145.9 92.4 L 142.3 89.7 L 140.3 86.1 Z M 34.0 54.4 L 36.1 55.2 L 38.0 56.2 L 39.8 57.4 L 41.6 58.7 L 43.2 60.2 L 44.8 61.9 L 46.2 63.7 L 47.5 65.6 L 48.8 67.7 L 48.3 72.3 L 48.07333335876465 72.5 L 66.33478260040283 72.5 L 67.0 71.6 L 68.3 69.1 L 69.6 66.7 L 70.8 64.4 L 72.0 62.2 L 73.0 60.0 L 74.0 57.9 L 74.9 55.9 L 75.7 54.0 L 75.9 53.4 L 32.45454549789429 53.4 Z " />
</g>
</svg>
