<svg xmlns="http://www.w3.org/2000/svg" xmlns:xlink="http://www.w3.org/1999/xlink" version="1.1" baseProfile="full" viewBox="0 0 200 200" width="200" height="200">
<g fill="black">
<path d="M 157.8 182.5 L 149.0 178.2 L 140.9 173.2 L 134.527276802063 168.20516290664673 L 126.4 173.1 L 116.9 177.5 L 106.6 181.1 L 95.6 183.7 L 83.9 185.4 L 83.6 183.6 L 94.6 180.0 L 104.8 176.0 L 114.1 171.6 L 122.6 166.6 L 128.32623100280762 162.3806718826294 L 126.8 160.9 L 120.9 153.7 L 115.7 145.7 L 111.4 137.0 L 108.49032258987427 128.8 L 93.0 128.8 L 93.0 124.8 L 155.9 124.8 L 161.9 119.8 L 172.9 128.8 L 167.9 131.8 L 165.48767127990723 132.80513696670533 L 162.6 138.4 L 157.0 147.0 L 150.5 154.7 L 143.3 161.7 L 142.62567701339722 162.20782346725463 L 146.4 164.6 L 153.9 168.3 L 162.0 171.4 L 170.6 173.9 L 179.8 175.7 L 189.2 177.4 L 177.4 188.6 L 167.3 185.9 Z M 17.0 156.9 L 22.9 156.2 L 27.0 155.72166662216188 L 27.0 123.0 L 39.0 125.0 L 42.0 127.0 L 39.0 128.8 L 39.0 154.3734375 L 41.5 154.1 L 48.0 153.5 L 54.6 152.8 L 61.4 152.2 L 68.4 151.7 L 70.4031491279602 151.58714656829835 L 73.0 113.5 L 84.9 116.4 L 87.7 118.6 L 84.66637935638428 119.67068967819213 L 82.4206862449646 151.11039218902587 L 82.8 151.1 L 83.1 152.8 L 82.28162841796875 153.05720252990722 L 81.9 158.4 L 75.95 157.95 L 81.5 160.3 L 78.8 164.9 L 75.5 169.0 L 71.8 172.6 L 67.5 175.7 L 62.8 178.4 L 57.7 180.5 L 52.2 182.1 L 46.2 183.3 L 39.8 183.8 L 33.1 183.8 L 32.8 182.1 L 39.2 180.1 L 44.9 178.1 L 50.0 175.9 L 54.6 173.6 L 58.6 171.0 L 62.0 168.3 L 64.8 165.4 L 67.2 162.3 L 69.0 159.1 L 69.9119999885559 156.81999998092653 L 69.3 157.0 L 62.5 158.7 L 55.9 160.3 L 49.4 161.8 L 43.0 163.3 L 36.8 164.7 L 30.7 166.1 L 24.7 167.4 L 22.96666669845581 167.78850574493407 L 21.4 171.3 L 18.9 168.7 L 15.0 157.2 Z M 111.04320983886718 128.8 L 115.1 135.0 L 120.6 142.4 L 126.4 149.0 L 132.6 154.9 L 134.95901880264282 156.73088026046753 L 137.0 154.9 L 143.0 148.2 L 148.2 140.9 L 152.6 133.0 L 154.42823534011842 128.8 Z M 41.7 46.8 L 33.4 50.5 L 24.6 54.0 L 15.3 57.2 L 14.6 55.5 L 22.9 50.5 L 30.9 45.7 L 38.6 41.0 L 45.0 36.9671233177185 L 45.0 35.2 L 46.54285717010498 35.97142858505249 L 52.8 31.8 L 59.3 27.1 L 65.4 22.5 L 71.1 18.0 L 76.3 13.4 L 80.48024644851685 9.475687026977539 L 80.4 9.4 L 81.4 8.6 L 89.2 17.7 L 89.64285717010497 20.8 L 122.8285714149475 20.8 L 123.1 20.5 L 124.8 18.4 L 125.2783350944519 18.901387405395507 L 129.0 15.8 L 140.0 24.8 L 135.0 27.8 L 127.55593223571778 30.90169486999512 L 125.0 32.4 L 121.9 34.2 L 118.7 35.9 L 115.2 37.6 L 111.6 39.2 L 107.7 40.8 L 106.60666666030883 41.2 L 165.8181818008423 41.2 L 174.0 32.2 L 184.0 41.2 L 184.0 45.2 L 57.0 45.2 L 57.0 67.2 L 56.3 73.9 L 55.0 80.4 L 53.0 86.5 L 50.4 92.2 L 47.1 97.4 L 43.1 102.3 L 38.6 106.6 L 33.5 110.5 L 27.7 113.8 L 21.4 116.5 L 20.5 115.0 L 25.6 110.7 L 30.0 106.4 L 33.9 102.0 L 37.2 97.6 L 39.8 93.0 L 41.9 88.2 L 43.5 83.3 L 44.5 78.2 L 45.0 72.8 L 45.0 45.191250038146975 Z M 117.0 80.4 L 137.0 80.4 L 138.2 80.3 L 139.1 80.1 L 140.0 79.8 L 140.4 79.4 L 140.7 78.5 L 140.9 77.6 L 141.0 76.4 L 141.0 61.4 L 93.0 61.4 L 93.0 99.2 L 92.9 100.4 L 92.9 101.4 L 93.0 102.1 L 93.0 102.6 L 93.2 102.9 L 93.4 103.3 L 93.8 103.7 L 94.5 104.1 L 95.6 104.4 L 97.0 104.7 L 170.5 104.7 L 175.0 91.7 L 177.0 91.7 L 175.0 104.7 L 177.7 106.5 L 179.5 109.2 L 177.7 111.9 L 175.0 113.7 L 94.5 113.7 L 92.2 113.4 L 89.9 112.8 L 87.7 111.8 L 85.7 110.4 L 84.1 108.5 L 82.7 106.4 L 81.8 104.1 L 81.2 101.7 L 81.0 99.2 L 81.0 51.4 L 93.0 57.4 L 141.0 57.4 L 147.0 52.4 L 158.0 61.4 L 153.0 65.4 L 153.0 76.4 L 152.8 78.9 L 152.4 81.4 L 151.6 83.8 L 150.3 86.1 L 148.7 88.1 L 146.7 89.7 L 144.4 91.0 L 142.0 91.8 L 139.5 92.2 L 137.0 92.4 L 137.0 86.4 L 117.0 83.4 Z M 77.6 26.5 L 71.2 30.7 L 64.4 34.9 L 57.2 39.0 L 54.94509801864624 40.17254905700683 L 57.0 41.2 L 100.1 41.2 L 102.1 39.7 L 105.4 36.9 L 108.5 34.3 L 111.5 31.8 L 114.2 29.4 L 116.8 27.1 L 119.1 24.8 L 79.91818180084229 24.8 Z M 85.25454549789428 20.8 L 88.40588235855103 20.8 L 86.14424676895142 20.100949001312255 Z " />
</g>
</svg>
