<svg xmlns="http://www.w3.org/2000/svg" xmlns:xlink="http://www.w3.org/1999/xlink" version="1.1" baseProfile="full" viewBox="0 0 200 200" width="200" height="200">
<g fill="black">
<path d="M 160.0 150.0 L 162.0 150.0 L 160.0 175.0 L 163.6 177.4 L 166.0 181.0 L 163.6 184.6 L 160.0 187.0 L 67.0 187.0 L 64.4 186.8 L 61.9 186.4 L 59.5 185.6 L 57.2 184.3 L 55.2 182.7 L 53.6 180.7 L 52.3 178.4 L 51.5 176.0 L 51.1 173.5 L 51.0 171.0 L 51.0 136.0 L 63.0 138.0 L 66.0 140.0 L 63.0 141.8 L 63.0 158.9028037071228 L 67.6 158.0 L 77.9 156.1 L 87.8 154.2 L 97.3 152.3 L 106.5 150.3 L 115.2 148.3 L 123.6 146.2 L 131.6 144.1 L 139.1 141.8 L 145.306787109375 139.81727628707887 L 145.3 139.8 L 145.31682329177858 139.8140703201294 L 146.3 139.5 L 146.7463348388672 141.00966186523436 L 156.3 149.0 L 156.6 152.1 L 152.40239181518555 150.18109340667723 L 149.7 151.0 L 142.1 152.8 L 134.1 154.5 L 125.7 156.1 L 117.0 157.5 L 107.9 158.7 L 98.5 159.8 L 88.7 160.7 L 78.5 161.4 L 68.0 161.8 L 63.0 161.8 L 63.0 172.2 L 63.2 173.1 L 63.5 174.0 L 63.9 174.4 L 64.8 174.7 L 65.7 174.9 L 67.0 175.0 L 154.0 175.0 Z M 134.0 139.0 L 134.0 133.0 L 50.0 133.0 L 50.0 145.0 L 38.0 151.0 L 38.0 87.0 L 50.0 93.0 L 61.14210529327393 93.0 L 62.1 92.3 L 64.5 90.1 L 69.3 86.3 L 71.6 84.6 L 74.0 83.0 L 76.3 81.5 L 78.6 80.1 L 80.9 78.8 L 82.26566867828369 78.0550898551941 L 82.2 77.9 L 82.33598041534424 78.01673793792725 L 83.1 77.6 L 83.60088109970093 79.10264320373535 L 92.8 87.0 L 93.1 90.1 L 88.99610223770142 88.28945684432983 L 86.9 89.0 L 84.7 89.3 L 82.3 89.7 L 79.9 90.2 L 77.4 90.8 L 74.8 91.4 L 72.1 92.1 L 69.3 92.9 L 68.9375 93.0 L 134.0 93.0 L 140.0 88.0 L 151.0 97.0 L 146.0 101.0 L 146.0 133.0 Z M 50.0 113.0 L 50.0 129.0 L 134.0 129.0 L 134.0 113.0 Z M 50.0 97.0 L 50.0 109.0 L 134.0 109.0 L 134.0 97.0 Z M 20.3 45.9 L 24.0 45.714999961853025 L 24.0 20.0 L 36.0 22.0 L 39.0 24.0 L 36.0 25.8 L 36.0 45.00588235855103 L 39.5 44.8 L 46.7 44.4 L 54.2 44.0 L 62.1 43.5 L 70.5 43.0 L 70.94378318786622 42.97959613800049 L 71.0 42.825 L 71.0 14.0 L 83.0 16.0 L 86.0 18.0 L 83.0 19.8 L 83.0 42.432966995239255 L 88.3 42.2 L 97.8 42.1 L 98.1 43.8 L 88.8 46.0 L 81.82783823013305 47.47190084457397 L 79.8 51.6 L 76.2 56.9 L 71.9 61.6 L 66.8 65.9 L 61.1 69.7 L 54.6 73.1 L 47.6 76.0 L 39.8 78.5 L 31.3 80.4 L 22.2 81.8 L 21.7 80.1 L 30.2 76.8 L 38.0 73.4 L 44.9 70.0 L 51.0 66.4 L 56.3 62.7 L 60.8 58.8 L 64.6 54.8 L 67.5 50.6 L 67.7391001701355 50.14353609085083 L 63.0 51.0 L 55.2 52.4 L 47.7 53.7 L 40.6 54.8 L 33.9 55.9 L 27.5 56.9 L 25.615449905395508 57.182682514190674 L 23.8 60.6 L 21.5 57.8 L 18.4 46.1 Z M 153.0 72.6 L 144.2 68.4 L 136.3 63.5 L 133.17717266082764 61.09096174240112 L 126.7 64.5 L 116.1 68.7 L 104.5 72.2 L 91.8 74.9 L 78.1 76.8 L 77.8 75.1 L 90.9 71.2 L 102.9 67.1 L 113.7 62.6 L 123.3 57.7 L 126.75997304916382 55.51692171096802 L 123.4 52.1 L 118.6 45.5 L 114.9 38.5 L 112.4 31.0 L 111.42531642913818 24.0 L 95.0 24.0 L 95.0 20.0 L 156.0 20.0 L 162.0 15.0 L 173.0 24.0 L 168.0 27.0 L 165.7734766960144 27.927718067169188 L 163.7 32.5 L 158.5 40.3 L 152.2 47.5 L 144.7 53.9 L 142.63445720672607 55.26082820892334 L 149.0 58.4 L 157.3 61.6 L 166.4 64.3 L 176.4 66.5 L 185.3 68.5 L 173.5 79.4 L 162.8 76.3 Z M 113.71176471710206 24.0 L 116.3 29.5 L 120.1 35.7 L 124.4 41.2 L 129.4 46.3 L 134.43362560272217 50.205399131774904 L 138.8 46.7 L 144.9 40.6 L 149.7 34.1 L 153.5 27.3 L 154.7657534599304 24.0 Z " />
</g>
</svg>
