<svg xmlns="http://www.w3.org/2000/svg" xmlns:xlink="http://www.w3.org/1999/xlink" version="1.1" baseProfile="full" viewBox="0 0 200 200" width="200" height="200">
<g fill="black">
<path d="M 154.6 178.9 L 144.5 172.9 L 135.5 166.2 L 134.33324251174926 165.0781177520752 L 128.2 168.8 L 115.1 174.9 L 100.7 180.0 L 85.0 184.0 L 67.9 186.9 L 67.6 185.1 L 84.0 180.3 L 99.0 174.9 L 112.4 168.9 L 124.4 162.3 L 128.44827585220338 159.41949605941772 L 127.7 158.7 L 121.0 150.5 L 115.5 141.5 L 111.3 131.9 L 108.4 121.7 L 107.11559629440308 111.7 L 89.6 111.7 L 89.6 107.7 L 165.3 107.7 L 171.3 102.7 L 182.3 111.7 L 177.3 114.7 L 175.5518518447876 115.4283950805664 L 172.6 123.3 L 166.6 134.4 L 159.1 144.5 L 150.2 153.6 L 143.28120031356812 159.0409977912903 L 150.3 163.5 L 159.8 168.2 L 170.2 172.3 L 181.7 175.7 L 189.7 178.1 L 178.0 188.4 L 165.8 184.0 Z M 20.0 146.9 L 23.0 146.5666666984558 L 23.0 115.5 L 35.0 117.5 L 38.0 119.5 L 35.0 121.3 L 35.0 145.25245904922485 L 37.2 145.0 L 43.6 144.4 L 50.3 143.7 L 57.3 143.1 L 64.7 142.4 L 64.88995294570923 142.38519849777222 L 65.0 141.9214285850525 L 65.0 100.0 L 77.0 102.0 L 80.0 104.0 L 77.0 105.8 L 77.0 141.56999998092653 L 80.4 141.4 L 88.8 141.1 L 89.1 142.8 L 81.0 145.1 L 76.12141981124878 146.35091800689696 L 74.4 151.3 L 71.2 157.7 L 67.3 163.6 L 62.8 168.9 L 57.5 173.6 L 51.7 177.7 L 45.2 181.2 L 38.1 184.1 L 30.4 186.3 L 22.2 187.8 L 21.7 186.1 L 29.2 182.7 L 35.9 179.2 L 42.0 175.5 L 47.3 171.5 L 51.9 167.3 L 55.8 162.8 L 59.0 158.0 L 61.7 152.8 L 62.89954900741577 149.56121759414674 L 58.5 150.6 L 51.6 152.1 L 45.0 153.6 L 38.8 154.9 L 32.8 156.3 L 27.2 157.5 L 25.971262550354005 157.77820472717286 L 24.4 161.3 L 21.9 158.7 L 18.0 147.2 Z M 109.14848480224609 111.7 L 112.4 120.4 L 116.7 129.5 L 121.7 137.8 L 127.6 145.3 L 134.3 152.1 L 136.22105264663696 153.63684206008912 L 143.8 146.9 L 151.3 138.2 L 157.4 128.9 L 162.1 118.9 L 164.36666669845582 111.7 Z M 141.3 89.0 L 131.9 85.6 L 122.1 82.4 L 116.57438850402832 80.8831654548645 L 109.8 84.5 L 96.2 89.6 L 80.7 93.7 L 63.4 96.7 L 44.1 98.5 L 23.0 99.1 L 22.9 97.3 L 43.8 94.7 L 62.5 91.4 L 79.2 87.3 L 93.7 82.5 L 104.2418836593628 77.7391492843628 L 101.2 77.0 L 90.0 74.7 L 78.4 72.7 L 66.4 70.7 L 53.9 68.9 L 53.977777767181394 67.5 L 52.9 67.5 L 68.88479423522949 41.6 L 19.0 41.6 L 19.0 37.6 L 71.35348834991456 37.6 L 87.4 11.6 L 96.5 19.6 L 98.0 22.9 L 94.15487518310547 23.407846641540527 L 85.41440496444702 37.6 L 160.0 37.6 L 170.0 27.6 L 182.0 37.6 L 182.0 41.6 L 148.51071424484252 41.6 L 145.2 51.9 L 139.4 61.9 L 131.4 70.7 L 127.04210729599 74.03512191772461 L 134.8 75.9 L 144.9 78.8 L 154.5 82.1 L 163.7 85.7 L 166.8 89.1 L 166.7 93.7 L 163.3 96.7 L 158.7 96.6 L 150.2 92.7 Z M 82.95093946456909 41.6 L 67.3563738822937 66.92134552001953 L 79.0 67.3 L 90.9 68.2 L 102.5 69.6 L 113.7 71.3 L 114.70929918289184 71.49808673858642 L 116.3 70.5 L 124.5 63.5 L 130.5 55.8 L 134.7 47.5 L 136.19367084503173 41.6 Z " />
</g>
</svg>
