<svg xmlns="http://www.w3.org/2000/svg" xmlns:xlink="http://www.w3.org/1999/xlink" version="1.1" baseProfile="full" viewBox="0 0 200 200" width="200" height="200">
<g fill="black">
<path d="M 139.6 177.7 L 125.6 170.7 L 112.6 162.3 L 101.29926385879517 153.10618076324462 L 100.6 153.7 L 86.7 163.1 L 71.7 171.0 L 55.4 177.6 L 37.8 182.7 L 19.1 186.3 L 18.8 184.5 L 36.8 179.1 L 53.4 172.6 L 68.7 165.2 L 82.7 156.7 L 95.3 147.1 L 95.3009422302246 147.099107837677 L 90.0 141.7 L 80.3 129.5 L 71.8 116.1 L 64.5 101.3 L 59.028301906585696 86.8 L 34.0 86.8 L 34.0 82.8 L 139.0 82.8 L 145.0 77.8 L 156.0 86.8 L 151.0 89.8 L 148.84309673309326 90.6987096786499 L 143.2 102.9 L 134.5 117.6 L 124.5 131.0 L 113.2 143.0 L 108.6117709159851 146.89635334014892 L 118.4 153.9 L 130.8 161.0 L 144.1 166.8 L 158.2 171.5 L 173.3 174.9 L 182.4 176.8 L 170.6 187.8 L 154.6 183.4 Z M 61.33513517379761 86.8 L 68.2 99.5 L 76.8 112.9 L 86.0 125.1 L 96.0 136.0 L 101.68537759780884 141.05366897583008 L 106.6 136.4 L 116.7 124.7 L 125.5 111.8 L 133.0 97.8 L 137.5592104911804 86.8 Z M 78.7 19.7 L 80.3 22.9 L 76.59863862991332 22.963816547393797 L 74.0 27.0 L 68.9 34.1 L 63.4 41.0 L 57.5 47.8 L 51.2 54.3 L 44.5 60.6 L 37.4 66.8 L 29.9 72.6 L 21.9 78.2 L 13.5 83.4 L 12.4 81.9 L 19.6 75.2 L 26.4 68.5 L 33.0 61.9 L 39.1 55.3 L 45.0 48.6 L 50.4 41.8 L 55.4 34.9 L 60.1 28.0 L 64.3 20.9 L 67.70450820922852 14.702049160003662 L 67.7 14.7 L 67.81000003814697 14.510000038146973 L 68.2 13.8 L 68.21588506698609 13.808925914764405 L 68.8 12.8 Z M 161.8 62.9 L 157.7 56.8 L 153.1 50.7 L 147.9 44.8 L 142.1 38.9 L 135.7 33.1 L 128.8 27.3 L 121.4 21.4 L 113.4 15.5 L 114.3 14.0 L 123.4 18.2 L 131.9 22.8 L 139.7 27.8 L 147.1 33.1 L 153.8 38.7 L 160.0 44.5 L 165.6 50.5 L 170.7 56.8 L 175.2 63.4 L 179.1 70.2 L 179.3 74.8 L 176.2 78.2 L 171.7 78.4 L 168.2 75.3 L 165.3 69.1 Z " />
</g>
</svg>
