<svg xmlns="http://www.w3.org/2000/svg" xmlns:xlink="http://www.w3.org/1999/xlink" version="1.1" baseProfile="full" viewBox="0 0 200 200" width="200" height="200">
<g fill="black">
<path d="M 38.84190473556519 35.92095241546631 L 38.9 35.9 L 44.9 33.8 L 50.8 31.9 L 56.5 30.0 L 62.2 28.2 L 67.6 26.3 L 72.9 24.4 L 78.1 22.5 L 83.2 20.6 L 87.12817888259887 18.963258743286133 L 87.1 18.9 L 87.1584415435791 18.950649356842042 L 88.0 18.6 L 88.55148935317993 20.157957458496092 L 97.6 28.0 L 97.9 31.1 L 93.79757738113403 29.290107631683348 L 92.0 29.9 L 86.7 31.4 L 81.3 32.8 L 75.7 34.1 L 70.1 35.3 L 64.3 36.4 L 58.3 37.4 L 52.3 38.3 L 46.0 39.1 L 39.7 39.6 L 39.0 39.62121210098267 L 39.0 76.0 L 81.0 76.0 L 91.0 66.0 L 103.0 76.0 L 103.0 80.0 L 75.0 80.0 L 75.0 183.0 L 63.0 189.0 L 63.0 80.0 L 39.0 80.0 L 39.0 98.0 L 38.4 109.8 L 37.5 121.0 L 36.2 131.6 L 34.5 141.6 L 32.3 150.8 L 29.8 159.5 L 26.7 167.4 L 23.2 174.6 L 19.2 180.9 L 14.7 186.5 L 13.2 185.4 L 15.9 179.1 L 18.3 172.4 L 20.5 165.2 L 22.5 157.4 L 24.1 149.1 L 25.3 140.1 L 26.3 130.5 L 26.8 120.3 L 27.1 109.4 L 27.0 98.0 L 27.0 30.0 Z M 163.3 166.4 L 155.6 156.0 L 148.6 143.9 L 144.9672875404358 135.88496780395508 L 139.3 146.0 L 130.6 158.2 L 121.1 168.5 L 110.8 176.6 L 99.9 182.7 L 99.1 181.1 L 108.5 173.6 L 117.2 164.7 L 125.3 154.3 L 132.7 142.2 L 139.5 128.3 L 140.63188047409056 125.40535488128663 L 136.6 114.3 L 131.6 96.8 L 127.3 77.5 L 123.7 56.3 L 121.21130437850952 35.1 L 107.8 35.1 L 107.8 31.1 L 163.4 31.1 L 169.4 26.1 L 180.4 35.1 L 175.4 38.1 L 174.59720277786255 38.43449878692627 L 171.2 57.2 L 166.3 78.6 L 160.7 98.2 L 154.3 116.0 L 150.28347024917602 124.99476385116577 L 150.8 126.2 L 157.6 139.0 L 164.7 149.7 L 172.1 158.4 L 179.7 165.2 L 187.6 170.1 L 192.5 172.7 L 181.3 181.6 L 171.9 175.0 Z M 123.17600002288819 35.1 L 127.8 55.5 L 133.0 76.1 L 138.6 94.8 L 144.5 111.5 L 145.32055864334106 113.41463689804077 L 145.6 112.7 L 151.1 95.3 L 155.9 76.1 L 160.0 55.1 L 163.07017545700074 35.1 Z " />
</g>
</svg>
