<svg xmlns="http://www.w3.org/2000/svg" xmlns:xlink="http://www.w3.org/1999/xlink" version="1.1" baseProfile="full" viewBox="0 0 200 200" width="200" height="200">
<g fill="black">
<path d="M 91.2 111.2 L 93.2 114.2 L 88.96227350234986 114.78451404571533 L 88.3 115.8 L 86.8 118.2 L 82.0 125.4 L 80.2 127.8 L 78.4 130.3 L 76.4 132.7 L 76.21538457870483 133.0 L 88.2 133.0 L 98.2 123.0 L 110.2 133.0 L 110.2 137.0 L 69.1 137.0 L 69.1 157.0 L 82.8 157.0 L 92.8 147.0 L 104.8 157.0 L 104.8 161.0 L 69.1 161.0 L 69.1 185.0 L 57.1 191.0 L 57.1 161.0 L 22.5 161.0 L 22.5 157.0 L 57.1 157.0 L 57.1 137.0 L 17.1 137.0 L 17.1 133.0 L 73.63333330154418 133.0 L 74.1 131.6 L 74.7 128.6 L 75.4 125.6 L 76.1 122.7 L 77.5 117.1 L 78.2 114.4 L 78.8 111.7 L 79.5 109.1 L 79.87081050872803 107.55495643615723 L 79.7 107.5 L 80.089830493927 106.6423728942871 L 80.1 106.6 L 80.10764989852905 106.6031702041626 L 80.7 105.3 Z M 164.0 170.2 L 157.5 159.9 L 151.6 147.9 L 149.23180122375487 141.61516466140748 L 145.2 150.1 L 137.7 162.2 L 129.6 172.5 L 120.8 180.7 L 111.4 186.7 L 110.4 185.2 L 118.2 177.8 L 125.5 169.0 L 132.2 158.7 L 138.4 146.6 L 144.1 132.9 L 145.10879125595093 129.81428575515747 L 141.7 118.5 L 137.5 101.1 L 134.0 82.0 L 131.0 60.9 L 129.075 40.0 L 117.9 40.0 L 117.9 36.0 L 164.1 36.0 L 170.1 31.0 L 181.1 40.0 L 176.1 43.0 L 175.3800000190735 43.3 L 172.5 61.7 L 168.3 83.0 L 163.5 102.5 L 158.1 120.2 L 154.53937435150146 129.27385244369506 L 155.1 130.8 L 160.9 143.5 L 167.0 154.3 L 173.3 163.0 L 179.8 169.7 L 186.3 174.4 L 190.3 176.9 L 179.2 185.5 L 171.2 178.8 Z M 42.5 124.1 L 41.9 119.9 L 41.6 117.7 L 41.1 115.5 L 39.9 110.9 L 39.3 108.5 L 38.1 106.3 L 39.6 105.2 L 41.2 107.2 L 43.2 108.9 L 45.0 110.7 L 46.7 112.6 L 48.2 114.7 L 49.7 116.7 L 51.0 118.9 L 52.2 121.1 L 53.4 123.4 L 54.4 125.8 L 53.5 130.2 L 49.8 132.9 L 45.3 132.0 L 42.6 128.3 L 42.6 126.2 Z M 131.13999996185302 40.0 L 135.2 60.3 L 139.7 80.8 L 144.5 99.4 L 149.60241031646729 115.78658714294434 L 153.8 100.0 L 157.8 80.9 L 161.3 60.0 L 163.7561403274536 40.0 Z M 13.4 101.0 L 57.1 101.0 L 57.1 84.0 L 24.9 84.0 L 24.9 80.0 L 57.1 80.0 L 57.1 61.0 L 69.1 63.0 L 72.1 65.0 L 69.1 66.8 L 69.1 80.0 L 83.01818180084229 80.0 L 91.2 71.0 L 101.2 80.0 L 101.2 84.0 L 69.1 84.0 L 69.1 101.0 L 91.3 101.0 L 101.3 91.0 L 113.3 101.0 L 113.3 105.0 L 13.4 105.0 Z M 26.7 66.4 L 14.7 72.4 L 14.7 16.0 L 26.7 22.0 L 98.2 22.0 L 104.2 17.0 L 115.2 26.0 L 110.2 30.0 L 110.2 63.4 L 98.2 69.4 L 98.2 59.4 L 26.7 59.4 Z M 26.7 26.0 L 26.7 55.4 L 42.5 55.4 L 42.5 26.0 Z M 54.5 26.0 L 54.5 55.4 L 70.4 55.4 L 70.4 26.0 Z M 82.4 26.0 L 82.4 55.4 L 98.2 55.4 L 98.2 26.0 Z " />
</g>
</svg>
