<svg xmlns="http://www.w3.org/2000/svg" xmlns:xlink="http://www.w3.org/1999/xlink" version="1.1" baseProfile="full" viewBox="0 0 200 200" width="200" height="200">
<g fill="black">
<path d="M 37.2 74.3 L 88.8 74.3 L 94.8 69.3 L 105.8 78.3 L 100.8 82.3 L 100.8 130.7 L 88.8 136.7 L 88.8 128.7 L 69.0 128.7 L 69.0 148.5 L 92.6 148.5 L 102.6 138.5 L 114.6 148.5 L 114.6 152.5 L 69.0 152.5 L 69.0 183.2 L 57.0 189.2 L 57.0 152.5 L 11.4 152.5 L 11.4 148.5 L 57.0 148.5 L 57.0 128.7 L 37.2 128.7 L 37.2 131.7 L 25.2 137.7 L 25.2 68.3 Z M 165.0 170.5 L 157.7 160.1 L 151.1 148.1 L 147.8984064102173 140.68297472000123 L 142.8 150.2 L 134.5 162.4 L 125.5 172.6 L 115.8 180.7 L 105.4 186.7 L 104.5 185.2 L 113.4 177.8 L 121.6 168.9 L 129.1 158.5 L 136.1 146.5 L 142.5 132.7 L 143.59562644958496 129.7720326423645 L 139.8 118.6 L 135.1 101.2 L 131.1 82.0 L 127.7 61.0 L 125.40742359161376 40.0 L 112.8 40.0 L 112.8 36.0 L 165.1 36.0 L 171.1 31.0 L 182.1 40.0 L 177.1 43.0 L 176.2296856880188 43.362630939483644 L 173.1 61.9 L 168.5 83.1 L 163.1 102.6 L 157.1 120.3 L 153.2347550392151 129.3378522872925 L 153.8 130.7 L 160.2 143.3 L 166.9 154.0 L 173.9 162.7 L 181.1 169.4 L 188.5 174.2 L 193.2 176.9 L 182.0 185.7 L 173.1 179.0 Z M 37.2 103.5 L 37.2 124.7 L 57.0 124.7 L 57.0 103.5 Z M 69.0 103.5 L 69.0 124.7 L 88.8 124.7 L 88.8 103.5 Z M 127.4714285850525 40.0 L 131.8 60.2 L 136.8 80.7 L 142.1 99.3 L 147.7 116.0 L 148.25161561965942 117.3293031692505 L 148.3 117.2 L 153.5 99.9 L 158.0 80.8 L 161.9 59.8 L 164.69118938446044 40.0 Z M 37.2 78.3 L 37.2 99.5 L 57.0 99.5 L 57.0 78.3 Z M 69.0 78.3 L 69.0 99.5 L 88.8 99.5 L 88.8 78.3 Z M 30.6 22.3 L 47.2 22.3 L 52.7 17.3 L 63.2 26.3 L 58.2 29.8 L 58.2 59.6 L 47.2 65.1 L 47.2 57.6 L 30.6 57.6 L 30.6 60.6 L 18.6 66.6 L 18.6 16.3 Z M 78.5 22.3 L 94.9 22.3 L 100.9 17.3 L 111.9 26.3 L 106.9 30.3 L 106.9 59.6 L 94.9 65.6 L 94.9 57.6 L 78.5 57.6 L 78.5 60.6 L 67.5 66.1 L 67.5 16.8 Z M 78.5 26.3 L 78.5 53.6 L 94.9 53.6 L 94.9 26.3 Z M 30.6 26.3 L 30.6 53.6 L 47.2 53.6 L 47.2 26.3 Z " />
</g>
</svg>
