<svg xmlns="http://www.w3.org/2000/svg" xmlns:xlink="http://www.w3.org/1999/xlink" version="1.1" baseProfile="full" viewBox="0 0 200 200" width="200" height="200">
<g fill="black">
<path d="M 138.8 184.1 L 123.2 180.6 L 109.0 176.5 L 100.8984395980835 173.52520828247071 L 95.4 175.5 L 80.4 179.8 L 64.9 183.3 L 48.6 186.0 L 31.6 187.9 L 14.0 188.8 L 13.9 187.1 L 31.1 184.1 L 47.6 180.7 L 63.4 176.9 L 78.3 172.5 L 89.28258714675903 168.55554971694946 L 84.9 166.5 L 75.1 160.6 L 66.9 154.1 L 60.4 147.0 L 56.21818180084229 140.0 L 37.0 140.0 L 37.0 136.0 L 148.60493831634523 136.0 L 152.2 133.2 L 152.66031742095947 133.7830687522888 L 156.0 131.0 L 167.0 140.0 L 162.0 143.0 L 155.18961038589478 145.83766231536865 L 148.2 150.7 L 136.0 158.0 L 123.1 164.6 L 116.01053409576416 167.64584465026854 L 125.6 169.8 L 140.8 172.5 L 157.5 174.7 L 175.6 176.4 L 186.2 177.4 L 174.3 189.5 L 155.8 187.1 Z M 59.087931060791014 140.0 L 63.4 144.1 L 70.6 149.5 L 78.9 154.4 L 88.5 159.0 L 99.5 163.0 L 101.59088611602783 163.62896575927735 L 106.0 161.8 L 118.7 155.6 L 130.6 148.8 L 141.8 141.3 L 143.469135761261 140.0 Z M 145.8 47.6 L 144.6 45.7 L 143.1 43.7 L 141.3 41.6 L 139.2 39.5 L 136.7 37.3 L 134.0 35.1 L 131.0 32.8 L 128.9 31.6 L 123.61999998092651 31.6 L 121.3 34.5 L 117.3 38.8 L 112.9 42.8 L 108.2 46.5 L 103.0 49.9 L 100.77851238250733 51.12975206375122 L 106.0 52.0 L 109.0 54.0 L 106.0 55.8 L 106.0 65.0 L 162.8181818008423 65.0 L 171.0 56.0 L 181.0 65.0 L 181.0 69.0 L 106.0 69.0 L 106.0 80.0 L 146.0 80.0 L 152.0 75.0 L 163.0 84.0 L 158.0 88.0 L 158.0 118.62325582504272 L 161.5 119.6 L 165.7 120.6 L 169.5 121.9 L 173.2 123.5 L 176.5 125.3 L 179.6 127.3 L 182.5 129.6 L 185.0 132.1 L 187.3 134.8 L 189.2 137.8 L 189.3 142.4 L 186.2 145.7 L 181.6 145.7 L 178.3 142.6 L 177.6 140.4 L 176.6 138.2 L 175.3 136.0 L 173.7 133.7 L 171.7 131.4 L 169.4 129.1 L 166.8 126.8 L 163.7 124.5 L 160.4 122.2 L 158.0 120.87368421554565 L 158.0 121.0 L 146.0 127.0 L 146.0 121.0 L 54.0 121.0 L 53.03999996185303 121.48000001907349 L 54.3 124.0 L 50.05461254119873 124.07195568084717 L 47.8 126.5 L 44.8 129.1 L 41.6 131.5 L 38.0 133.9 L 34.2 136.1 L 30.0 138.2 L 25.4 140.2 L 20.5 142.0 L 15.3 143.8 L 14.6 142.1 L 19.0 139.1 L 23.1 136.0 L 26.8 133.1 L 30.1 130.2 L 33.1 127.5 L 35.7 124.8 L 37.9 122.1 L 39.7 119.6 L 41.2 117.2 L 41.80476188659668 115.74857139587402 L 41.7 115.7 L 42.0 115.20909090042115 L 42.0 74.0 L 54.0 80.0 L 94.0 80.0 L 94.0 54.53000001907348 L 91.4 55.7 L 90.5 54.1 L 94.0 51.0375 L 94.0 50.0 L 94.9960000038147 50.16599998474121 L 95.3 49.9 L 99.7 45.7 L 103.9 41.5 L 107.6 37.4 L 110.9 33.2 L 113.9 28.9 L 116.5 24.5 L 118.6 20.1 L 120.5 15.6 L 121.6983024597168 11.92520580291748 L 121.6 11.9 L 122.5 9.5 L 133.3 14.9 L 135.5 17.8 L 131.61657514572144 18.61756315231323 L 130.9 20.2 L 128.1 25.2 L 126.5 27.6 L 164.0 27.6 L 174.0 17.6 L 186.0 27.6 L 186.0 31.6 L 136.5 31.6 L 139.5 32.6 L 142.8 34.0 L 145.9 35.5 L 148.7 37.2 L 151.3 39.0 L 153.7 41.0 L 155.9 43.1 L 157.8 45.5 L 158.2 50.1 L 155.4 53.6 L 150.8 54.0 L 147.2 51.2 L 146.7 49.5 Z M 54.0 102.0 L 54.0 117.0 L 146.0 117.0 L 146.0 102.0 Z M 54.0 98.0 L 146.0 98.0 L 146.0 84.0 L 54.0 84.0 Z M 66.8 47.6 L 65.6 45.7 L 64.1 43.7 L 62.3 41.6 L 60.2 39.5 L 57.7 37.3 L 55.0 35.1 L 52.0 32.8 L 49.9 31.6 L 45.1 31.6 L 42.4 35.2 L 38.4 39.8 L 34.0 44.1 L 29.3 48.3 L 24.1 52.1 L 18.5 55.7 L 12.5 58.9 L 11.4 57.4 L 16.2 52.7 L 20.6 48.1 L 24.7 43.5 L 28.5 39.0 L 31.8 34.4 L 34.8 29.8 L 37.4 25.2 L 39.6 20.5 L 41.5 15.8 L 42.607771492004396 12.001926231384278 L 42.6 12.0 L 42.694117641448976 11.705882358551026 L 42.9 11.0 L 42.918026542663576 11.006167030334472 L 43.4 9.5 L 54.3 14.9 L 56.5 17.7 L 52.63266887664795 18.582022857666015 L 51.9 20.2 L 49.2 25.4 L 47.7920000076294 27.6 L 84.0 27.6 L 94.0 17.6 L 106.0 27.6 L 106.0 31.6 L 57.5 31.6 L 60.5 32.6 L 63.8 34.0 L 66.9 35.5 L 69.7 37.2 L 72.3 39.0 L 74.7 41.0 L 76.9 43.1 L 78.8 45.5 L 79.2 50.1 L 76.4 53.6 L 71.8 54.0 L 68.2 51.2 L 67.7 49.5 Z " />
</g>
</svg>
