<svg xmlns="http://www.w3.org/2000/svg" xmlns:xlink="http://www.w3.org/1999/xlink" version="1.1" baseProfile="full" viewBox="0 0 200 200" width="200" height="200">
<g fill="black">
<path d="M 93.6 18.0 L 96.6 20.0 L 93.6 21.8 L 93.6 53.0 L 99.0777777671814 53.0 L 105.3 46.0 L 113.3 53.0 L 113.3 57.0 L 93.6 57.0 L 93.6 176.0 L 81.6 182.0 L 81.6 170.0 L 43.3 170.0 L 43.3 182.0 L 31.3 188.0 L 31.3 57.0 L 11.6 57.0 L 11.6 53.0 L 31.3 53.0 L 31.3 16.0 L 43.3 18.0 L 46.3 20.0 L 43.3 21.8 L 43.3 53.0 L 81.6 53.0 L 81.6 16.0 Z M 163.9 170.5 L 156.3 160.2 L 149.4 148.1 L 145.91190404891967 140.33617343902588 L 140.4 150.3 L 131.9 162.4 L 122.6 172.6 L 112.5 180.7 L 101.7 186.7 L 100.9 185.2 L 110.1 177.8 L 118.7 168.9 L 126.6 158.5 L 133.9 146.4 L 140.5 132.7 L 141.61438131332397 129.8026086807251 L 137.7 118.7 L 132.8 101.3 L 128.5 82.0 L 125.0 61.0 L 122.6157205581665 40.0 L 109.5 40.0 L 109.5 36.0 L 164.0 36.0 L 170.0 31.0 L 181.0 40.0 L 176.0 43.0 L 175.08702764511108 43.3804051399231 L 171.8 61.9 L 167.0 83.2 L 161.5 102.7 L 155.2 120.4 L 151.25426664352418 129.30608386993407 L 151.8 130.6 L 158.4 143.3 L 165.4 154.0 L 172.7 162.6 L 180.2 169.4 L 187.9 174.2 L 192.7 176.8 L 181.5 185.7 L 172.3 179.1 Z M 43.3 111.0 L 43.3 166.0 L 81.6 166.0 L 81.6 111.0 Z M 124.5910714149475 40.0 L 129.1 60.2 L 134.3 80.7 L 139.8 99.3 L 145.6 115.9 L 146.31213493347167 117.58844909667968 L 146.5 117.1 L 151.9 99.8 L 156.6 80.7 L 160.7 59.8 L 163.5784140586853 40.0 Z M 43.3 57.0 L 43.3 107.0 L 81.6 107.0 L 81.6 57.0 Z " />
</g>
</svg>
