<svg xmlns="http://www.w3.org/2000/svg" xmlns:xlink="http://www.w3.org/1999/xlink" version="1.1" baseProfile="full" viewBox="0 0 200 200" width="200" height="200">
<g fill="black">
<path d="M 140.1 180.5 L 125.2 176.7 L 111.8 172.0 L 100.48075504302979 166.67329654693603 L 92.4 171.0 L 78.9 176.8 L 64.6 181.6 L 49.5 185.3 L 33.7 187.9 L 17.1 189.2 L 16.8 187.5 L 33.0 184.1 L 48.2 180.1 L 62.5 175.3 L 76.0 169.8 L 88.5 163.5 L 91.96971244812012 161.34638538360596 L 89.7 159.9 L 81.1 152.4 L 74.3 144.1 L 69.3 135.0 L 66.4 125.2 L 67.41999998092652 124.9 L 45.0 124.9 L 45.0 120.9 L 136.93523807525634 120.9 L 138.2 119.3 L 138.57706727981568 119.58577728271484 L 143.0 115.9 L 154.0 124.9 L 149.0 127.9 L 145.16561403274537 129.4976608276367 L 138.4 137.5 L 128.1 147.4 L 117.0 156.3 L 110.59542741775513 160.55177507400512 L 115.3 162.4 L 128.1 166.0 L 142.3 168.9 L 158.1 171.0 L 175.4 172.3 L 186.4 173.0 L 174.5 185.4 L 156.5 183.4 Z M 68.21666669845581 124.9 L 73.0 133.1 L 78.9 140.5 L 86.0 147.1 L 94.4 152.9 L 100.4182695388794 156.0642448425293 L 110.9 148.3 L 120.8 139.5 L 129.9 129.8 L 133.77333335876466 124.9 Z M 66.9 21.6 L 68.8 24.7 L 64.90205659866334 25.096401023864747 L 64.1 26.5 L 61.0 31.2 L 60.85217390060425 31.4 L 148.0 31.4 L 158.0 21.4 L 170.0 31.4 L 170.0 35.4 L 106.0 35.4 L 106.0 65.8 L 161.0 65.8 L 171.0 55.8 L 183.0 65.8 L 183.0 69.8 L 106.0 69.8 L 106.0 109.5 L 94.0 115.5 L 94.0 69.8 L 18.0 69.8 L 18.0 65.8 L 94.0 65.8 L 94.0 35.4 L 57.8956521987915 35.4 L 57.6 35.8 L 54.0 40.1 L 50.1 44.4 L 46.0 48.4 L 41.6 52.3 L 36.9 55.9 L 31.8 59.3 L 26.5 62.3 L 25.4 60.9 L 29.4 56.4 L 33.2 52.0 L 36.9 47.6 L 40.4 43.3 L 43.6 38.9 L 46.6 34.5 L 49.3 30.1 L 51.8 25.6 L 54.1 21.0 L 55.7074517250061 17.302860927581786 L 55.7 17.3 L 55.76666669845581 17.16666669845581 L 56.1 16.4 L 56.140298461914064 16.419402980804442 L 56.7 15.3 Z " />
</g>
</svg>
