<svg xmlns="http://www.w3.org/2000/svg" xmlns:xlink="http://www.w3.org/1999/xlink" version="1.1" baseProfile="full" viewBox="0 0 200 200" width="200" height="200">
<g fill="black">
<path d="M 158.0 167.5 L 149.4 155.8 L 142.54924459457396 143.92535724639893 L 138.6 149.6 L 127.1 162.6 L 114.3 173.6 L 100.3 182.7 L 85.1 189.8 L 84.4 188.1 L 98.3 179.5 L 110.9 169.5 L 122.3 158.0 L 132.5 145.1 L 138.52705574035645 135.3897436141968 L 135.3 128.3 L 129.9 112.4 L 125.4 95.2 L 122.0 76.5 L 119.7 56.5 L 118.651162815094 36.0 L 103.7 36.0 L 103.7 32.0 L 168.7 32.0 L 174.7 27.0 L 185.7 36.0 L 180.7 39.0 L 179.85157499313354 39.35351047515869 L 176.9 58.1 L 171.8 79.9 L 165.4 99.9 L 157.8 118.3 L 149.04870386123656 134.5243131637573 L 150.8 137.9 L 158.5 149.5 L 166.9 159.7 L 176.0 168.3 L 185.8 175.5 L 189.5 177.9 L 178.4 186.4 L 167.7 177.7 Z M 77.0 163.6 L 88.3 163.6 L 89.2 163.4 L 89.8 163.2 L 90.1 163.0 L 90.3 162.9 L 90.4 162.7 L 90.6 162.4 L 90.8 161.8 L 91.0 160.9 L 91.0 129.7 L 73.0 129.7 L 73.0 180.3 L 61.0 186.3 L 61.0 129.7 L 42.9 129.7 L 42.9 168.3 L 30.9 174.3 L 30.9 121.32399997711181 L 22.5 122.5 L 22.2 120.7 L 31.5 117.4 L 40.2 114.0 L 48.1 110.4 L 55.4 106.5 L 61.9 102.4 L 67.8 98.0 L 72.9 93.3 L 77.3 88.4 L 81.1 83.2 L 81.38703699111939 82.7 L 57.535294151306154 82.7 L 56.9 83.5 L 53.8 86.7 L 50.5 89.7 L 46.9 92.5 L 43.0 95.1 L 38.8 97.4 L 34.4 99.5 L 29.6 101.3 L 24.6 103.0 L 23.8 101.4 L 28.0 98.4 L 31.8 95.3 L 35.4 92.3 L 38.6 89.3 L 41.5 86.3 L 44.1 83.3 L 46.4 80.3 L 48.3 77.2 L 50.0 74.2 L 50.929421710968015 71.91219272613526 L 50.9 71.9 L 51.05068492889404 71.6136986732483 L 51.3 71.0 L 51.357994556427 71.02981033325196 L 51.9 70.0 L 62.0 76.5 L 63.27741937637329 78.7 L 83.5 78.7 L 83.85147924423218 78.40710058212281 L 84.2 77.8 L 84.4269624710083 77.9275312423706 L 89.5 73.7 L 100.5 82.7 L 95.5 85.7 L 92.3488549232483 87.0129771232605 L 90.3 89.9 L 85.3 95.6 L 79.6 100.8 L 73.3 105.5 L 66.3 109.6 L 58.8 113.3 L 50.7 116.5 L 41.9 119.1 L 33.34179105758667 120.92089548110962 L 42.9 125.7 L 61.0 125.7 L 61.0 113.0 L 73.0 115.0 L 76.0 117.0 L 73.0 118.8 L 73.0 125.7 L 91.0 125.7 L 97.0 120.7 L 108.0 129.7 L 103.0 133.7 L 103.0 159.6 L 102.9 162.2 L 102.5 164.7 L 101.6 167.1 L 100.4 169.3 L 98.8 171.4 L 96.8 173.0 L 94.5 174.2 L 92.1 175.0 L 89.6 175.5 L 87.0 175.6 L 87.0 169.6 L 77.0 166.6 Z M 120.57809524536133 36.0 L 123.8 55.9 L 127.8 75.4 L 132.4 93.4 L 137.8 109.8 L 143.9 124.6 L 144.15356349945068 125.08875274658203 L 149.3 114.4 L 155.9 96.7 L 161.4 77.2 L 165.7 56.1 L 168.34473686218263 36.0 Z M 55.3 17.9 L 57.4 20.8 L 53.60461168289184 21.5990291595459 L 53.1 22.7 L 51.087234020233154 27.0 L 79.0 27.0 L 85.0 22.0 L 96.0 31.0 L 91.0 34.0 L 88.9503649711609 34.85401458740235 L 81.57368421554565 66.0 L 94.81818180084228 66.0 L 103.0 57.0 L 113.0 66.0 L 113.0 70.0 L 13.0 70.0 L 13.0 66.0 L 69.31282052993774 66.0 L 73.15897436141968 51.0 L 37.0 51.0 L 37.0 50.21999998092652 L 35.2 52.5 L 32.0 56.1 L 28.7 59.5 L 27.2 58.4 L 29.0 54.1 L 30.7 49.8 L 32.6 45.5 L 34.4 41.2 L 37.8 32.4 L 39.5 27.9 L 41.0 23.3 L 43.703973865509035 14.827548599243164 L 43.6 14.8 L 44.5 12.4 Z M 49.060000038146974 31.0 L 48.6 31.9 L 46.2 36.3 L 43.6 40.6 L 41.0 44.7 L 39.38999996185303 47.0 L 74.0 47.0 L 74.0 47.71999998092652 L 78.28717947006226 31.0 Z " />
</g>
</svg>
