<svg xmlns="http://www.w3.org/2000/svg" xmlns:xlink="http://www.w3.org/1999/xlink" version="1.1" baseProfile="full" viewBox="0 0 200 200" width="200" height="200">
<g fill="black">
<path d="M 159.8 182.7 L 157.9 184.2 L 155.9 185.5 L 153.8 186.6 L 151.6 187.5 L 149.3 188.2 L 147.0 188.7 L 144.6 189.0 L 142.2 189.1 L 142.2 183.1 L 122.2 180.1 L 122.2 177.1 L 142.2 177.1 L 145.0 176.9 L 146.3 176.6 L 147.5 176.2 L 148.7 175.7 L 149.8 175.1 L 150.8 174.5 L 151.9 173.6 L 152.9 172.7 L 153.9 171.6 L 154.3 170.6 L 155.3 166.9 L 156.5 161.0 L 156.9037974357605 158.1 L 109.04320755004883 158.1 L 107.7 170.7 L 95.2 175.4 L 101.84758272171021 112.7 L 86.1 112.7 L 86.1 108.7 L 102.27167091369628 108.7 L 107.7 57.5 L 118.0583333015442 64.1 L 163.3 64.1 L 169.3 59.1 L 180.3 68.1 L 175.3 71.1 L 175.09753952026367 71.18435850143433 L 174.5 85.6 L 173.6 103.0 L 173.27115383148194 108.7 L 178.5777777671814 108.7 L 184.8 101.7 L 192.8 108.7 L 192.8 112.7 L 173.04038457870485 112.7 L 172.7 118.6 L 171.7 132.4 L 170.7 144.4 L 169.55882349014283 154.1 L 174.7777777671814 154.1 L 181.0 147.1 L 189.0 154.1 L 189.0 158.1 L 169.0 158.1 L 168.3 163.0 L 167.0 169.7 L 165.5 174.9 L 163.1 179.2 L 161.5 181.0 Z M 62.9 156.7 L 56.1 145.5 L 51.97628870010376 137.2525773048401 L 47.3 146.8 L 39.4 159.9 L 30.8 171.3 L 21.5 180.9 L 11.6 188.7 L 10.5 187.2 L 18.8 178.3 L 26.5 168.0 L 33.8 156.4 L 40.5 143.4 L 46.7 128.8 L 47.33608989715576 126.98260040283203 L 44.2 119.5 L 39.1 104.8 L 34.6 88.9 L 30.6 71.8 L 27.3 53.6 L 25.13384618759155 36.0 L 14.5 36.0 L 14.5 32.0 L 69.2 32.0 L 75.2 27.0 L 86.2 36.0 L 81.2 39.0 L 80.28949041366577 39.379378986358645 L 77.1 57.4 L 72.4 78.4 L 67.1 97.9 L 61.1 115.8 L 57.331028079986574 125.10821847915649 L 59.0 128.5 L 65.6 139.9 L 72.6 149.9 L 79.8 158.7 L 87.4 166.2 L 89.1 167.8 L 78.4 175.7 L 70.3 166.8 Z M 113.88301887512208 112.7 L 109.46962261199951 154.1 L 157.46075944900514 154.1 L 157.6 153.1 L 158.7 143.2 L 159.8 131.5 L 160.7 117.9 L 161.03548383712769 112.7 Z M 136.1 138.4 L 135.3 136.0 L 134.3 133.6 L 133.2 131.4 L 132.0 129.2 L 130.5 127.1 L 128.8 125.0 L 127.0 122.9 L 124.7 121.2 L 125.5 119.6 L 128.3 120.7 L 131.2 121.7 L 133.9 123.0 L 136.5 124.6 L 139.0 126.6 L 141.3 128.7 L 143.4 131.2 L 145.4 133.9 L 147.1 136.8 L 148.7 139.9 L 148.3 144.4 L 144.8 147.4 L 140.3 147.0 L 137.3 143.6 L 136.7 140.9 Z M 27.24708995819092 36.0 L 31.4 52.7 L 36.3 70.4 L 41.5 86.8 L 47.0 102.0 L 51.93802156448364 113.83422412872315 L 52.3 112.8 L 57.4 95.2 L 61.9 76.0 L 65.9 55.3 L 68.85585584640503 36.0 Z M 118.63754720687866 68.1 L 114.30943393707275 108.7 L 161.29354839324952 108.7 L 161.7 102.4 L 162.5 85.0 L 163.20416669845582 68.1 Z M 139.2 93.3 L 138.6 91.1 L 137.9 89.0 L 137.0 87.0 L 136.0 84.9 L 134.8 82.9 L 133.4 80.9 L 131.8 78.9 L 129.7 77.3 L 130.6 75.7 L 133.1 76.9 L 135.8 77.8 L 138.3 79.1 L 140.6 80.6 L 142.9 82.4 L 144.9 84.4 L 146.8 86.7 L 148.5 89.1 L 150.1 91.8 L 151.4 94.7 L 150.8 99.2 L 147.2 102.1 L 142.7 101.4 L 139.9 97.9 L 139.6 95.5 Z M 120.3 16.2 L 122.8 18.8 L 119.23277311325073 20.032314777374268 L 118.1 24.1 L 115.6 31.6 L 112.9 38.9 L 112.85714282989503 39.0 L 166.3 39.0 L 176.3 29.0 L 188.3 39.0 L 188.3 43.0 L 111.14285717010497 43.0 L 109.9 45.9 L 106.6 52.7 L 103.0 59.1 L 99.2 65.3 L 95.0 71.1 L 90.5 76.5 L 85.6 81.5 L 84.1 80.4 L 87.4 74.3 L 90.5 68.2 L 93.4 62.1 L 96.3 55.7 L 98.9 49.2 L 101.2 42.5 L 103.4 35.6 L 105.4 28.5 L 107.1 21.2 L 108.40256357192993 14.60034465789795 L 108.4 14.6 L 108.4333333015442 14.444444465637208 L 108.6 13.6 L 108.61363639831544 13.60303030014038 L 109.0 11.8 Z " />
</g>
</svg>
