<svg xmlns="http://www.w3.org/2000/svg" xmlns:xlink="http://www.w3.org/1999/xlink" version="1.1" baseProfile="full" viewBox="0 0 200 200" width="200" height="200">
<g fill="black">
<path d="M 139.2 179.0 L 124.0 173.7 L 110.3 167.4 L 100.40393161773682 161.37989168167115 L 93.9 165.6 L 80.1 172.8 L 65.5 178.8 L 50.1 183.5 L 33.9 186.8 L 17.1 188.8 L 16.8 187.1 L 33.1 183.1 L 48.5 178.3 L 63.0 172.7 L 76.7 166.0 L 89.5 158.3 L 92.90755271911621 155.83739881515504 L 87.8 151.8 L 78.9 142.5 L 71.9 132.3 L 66.6 121.1 L 63.615126037597655 110.0 L 42.0 110.0 L 42.0 106.0 L 140.0 106.0 L 140.03783779144288 105.9684684753418 L 140.9 104.7 L 141.27240219116212 104.93966484069824 L 146.0 101.0 L 157.0 110.0 L 152.0 113.0 L 148.64303798675536 114.39873418807983 L 141.2 124.5 L 130.7 136.5 L 119.2 147.4 L 109.21824226379394 155.33631563186646 L 114.8 158.2 L 127.8 163.3 L 142.3 167.6 L 158.3 170.9 L 175.8 173.4 L 186.0 174.7 L 174.1 186.5 L 155.9 183.2 Z M 65.78703699111938 110.0 L 70.4 119.4 L 76.8 129.0 L 84.3 137.7 L 93.1 145.4 L 100.46036033630371 150.37906732559205 L 101.4 149.7 L 112.5 140.0 L 122.8 129.3 L 132.2 117.5 L 137.29765625 110.0 Z M 106.0 17.3 L 109.0 19.3 L 106.0 21.1 L 106.0 95.0 L 94.0 101.0 L 94.0 15.3 Z M 76.7 38.1 L 78.3 41.3 L 74.5356261253357 41.42980604171753 L 72.8 44.1 L 68.5 49.8 L 63.9 55.5 L 59.0 60.9 L 53.7 66.2 L 48.0 71.3 L 42.0 76.1 L 35.5 80.8 L 28.7 85.2 L 21.5 89.2 L 20.4 87.7 L 26.4 82.1 L 32.2 76.6 L 37.6 71.2 L 42.7 65.8 L 47.5 60.3 L 51.9 54.8 L 56.0 49.3 L 59.8 43.7 L 63.2 38.0 L 65.7279188156128 33.11269035339355 L 65.7 33.1 L 65.92448978424072 32.732653045654295 L 66.2 32.2 L 66.23721933364868 32.22091379165649 L 66.8 31.3 Z M 162.2 74.1 L 157.8 68.9 L 153.1 63.8 L 148.2 58.9 L 143.1 54.1 L 137.7 49.4 L 132.1 44.8 L 126.3 40.2 L 120.4 35.6 L 121.3 34.0 L 128.3 37.0 L 135.1 40.3 L 141.6 44.1 L 147.8 48.1 L 153.7 52.5 L 159.4 57.0 L 164.9 61.8 L 170.2 66.9 L 175.2 72.2 L 179.9 77.7 L 181.0 82.1 L 178.8 86.1 L 174.3 87.2 L 170.4 84.9 L 166.4 79.4 Z " />
</g>
</svg>
