<svg xmlns="http://www.w3.org/2000/svg" xmlns:xlink="http://www.w3.org/1999/xlink" version="1.1" baseProfile="full" viewBox="0 0 200 200" width="200" height="200">
<g fill="black">
<path d="M 156.1 181.4 L 146.9 176.1 L 138.7 170.1 L 136.62078046798706 168.21746339797974 L 126.7 173.7 L 114.2 179.1 L 100.4 183.4 L 85.3 186.7 L 69.1 188.9 L 68.8 187.2 L 84.5 183.0 L 98.7 178.3 L 111.6 173.0 L 123.2 167.0 L 130.37384796142578 162.31213893890381 L 125.0 156.0 L 119.6 148.0 L 115.4 139.3 L 112.2 130.1 L 110.47272729873657 121.1 L 101.0 121.1 L 101.0 117.1 L 164.0 117.1 L 170.0 112.1 L 181.0 121.1 L 176.0 124.1 L 173.92101907730103 124.96624202728272 L 170.8 132.1 L 164.6 142.4 L 157.1 151.8 L 148.2 160.1 L 145.29604444503784 162.198898601532 L 152.6 166.6 L 161.1 170.7 L 170.5 174.2 L 180.7 177.1 L 188.9 179.3 L 177.2 189.8 L 166.2 186.0 Z M 72.3 167.2 L 68.1 163.5 L 67.43031129837036 162.9493670463562 L 63.8 166.9 L 56.2 173.4 L 48.0 178.7 L 39.0 183.0 L 29.4 186.1 L 19.2 188.0 L 18.7 186.3 L 28.2 182.5 L 36.7 178.1 L 44.5 173.2 L 51.4 167.5 L 57.6 161.1 L 60.47331609725952 157.33856801986695 L 58.9 156.1 L 53.8 152.5 L 48.4 148.8 L 42.7 145.1 L 36.7 141.3 L 30.5 137.3 L 31.2 135.7 L 38.3 137.8 L 45.1 140.3 L 51.5 143.0 L 57.6 145.9 L 63.4 149.0 L 65.39425678253174 150.12403564453126 L 67.9 146.0 L 72.0 137.2 L 75.4 127.6 L 77.2 120.6 L 23.0 120.6 L 23.0 116.6 L 78.0 116.6 L 84.0 111.6 L 95.0 120.6 L 90.0 123.6 L 88.44693880081176 124.24710884094239 L 86.2 131.3 L 81.8 141.6 L 76.6 151.0 L 73.68156251907348 155.13445310592653 L 74.1 155.4 L 79.1 158.8 L 83.7 162.4 L 88.0 166.0 L 89.8 170.3 L 88.1 174.5 L 83.9 176.2 L 79.6 174.6 L 76.1 170.9 Z M 112.69090909957886 121.1 L 116.1 128.6 L 120.6 136.7 L 125.7 144.0 L 131.3 150.6 L 137.7 156.6 L 137.79517621994017 156.6710470199585 L 142.1 153.1 L 149.5 145.1 L 155.7 136.5 L 160.6 127.2 L 162.7960000038147 121.1 Z M 44.384848499298094 68.0 L 82.0 68.0 L 82.0 49.0 L 45.0 49.0 L 45.0 61.0 L 44.4 67.9 Z M 125.23333330154419 68.0 L 164.0 68.0 L 164.0 48.0 L 126.0 48.0 L 126.0 60.0 L 125.4 67.0 Z M 45.0 26.0 L 45.0 45.0 L 82.0 45.0 L 82.0 26.0 Z M 126.0 26.0 L 126.0 44.0 L 164.0 44.0 L 164.0 26.0 Z M 93.4 99.0 L 92.6 101.4 L 91.3 103.7 L 89.7 105.7 L 87.7 107.3 L 85.4 108.6 L 83.0 109.4 L 80.5 109.8 L 78.0 110.0 L 78.0 104.0 L 58.0 101.0 L 58.0 98.0 L 78.0 98.0 L 79.2 97.9 L 80.1 97.7 L 81.0 97.4 L 81.4 97.0 L 81.7 96.1 L 81.9 95.2 L 82.0 94.0 L 82.0 72.0 L 43.77878789901733 72.0 L 43.4 74.5 L 41.9 80.7 L 39.8 86.4 L 37.3 91.7 L 34.3 96.5 L 30.8 100.8 L 26.8 104.4 L 22.3 107.4 L 17.4 109.7 L 16.5 108.2 L 19.9 104.5 L 23.0 100.7 L 25.6 96.7 L 27.8 92.6 L 29.6 88.2 L 31.0 83.5 L 32.1 78.4 L 32.8 73.0 L 33.1 67.2 L 33.0 61.0 L 33.0 16.0 L 45.0 22.0 L 82.0 22.0 L 88.0 17.0 L 99.0 26.0 L 94.0 30.0 L 94.0 94.0 L 93.8 96.5 Z M 175.4 98.0 L 174.6 100.4 L 173.3 102.7 L 171.7 104.7 L 169.7 106.3 L 167.4 107.6 L 165.0 108.4 L 162.5 108.8 L 160.0 109.0 L 160.0 103.0 L 144.0 100.0 L 144.0 97.0 L 160.0 97.0 L 161.2 96.9 L 162.1 96.7 L 163.0 96.4 L 163.4 96.0 L 163.7 95.1 L 163.9 94.2 L 164.0 93.0 L 164.0 72.0 L 124.5666666984558 72.0 L 124.3 73.6 L 122.8 79.8 L 120.7 85.5 L 118.0 90.8 L 114.9 95.6 L 111.2 99.8 L 107.1 103.5 L 102.5 106.5 L 97.4 108.7 L 96.5 107.2 L 100.2 103.4 L 103.4 99.6 L 106.1 95.7 L 108.5 91.5 L 110.4 87.1 L 111.9 82.4 L 113.0 77.3 L 113.7 71.9 L 114.0 66.1 L 114.0 16.0 L 126.0 22.0 L 164.0 22.0 L 170.0 17.0 L 181.0 26.0 L 176.0 30.0 L 176.0 93.0 L 175.8 95.5 Z " />
</g>
</svg>
