<svg xmlns="http://www.w3.org/2000/svg" xmlns:xlink="http://www.w3.org/1999/xlink" version="1.1" baseProfile="full" viewBox="0 0 200 200" width="200" height="200">
<g fill="black">
<path d="M 162.3 177.5 L 155.1 171.5 L 148.6 164.8 L 145.66487531661988 161.00458011627197 L 140.9 165.9 L 132.8 172.7 L 124.0 178.6 L 114.5 183.7 L 104.3 187.8 L 103.6 186.1 L 112.7 180.4 L 121.0 174.2 L 128.6 167.7 L 135.5 160.6 L 140.8066740989685 154.09504461288452 L 137.7 149.1 L 133.2 140.2 L 129.4 130.6 L 126.4 120.2 L 124.47027025222778 110.0 L 114.0 110.0 L 114.0 106.0 L 162.0 106.0 L 168.0 101.0 L 179.0 110.0 L 174.0 113.0 L 172.43298969268798 113.65292100906372 L 170.2 120.6 L 165.8 131.1 L 160.7 141.0 L 154.9 150.0 L 152.0764126777649 153.54001989364625 L 156.1 157.7 L 162.3 163.1 L 168.9 167.8 L 176.0 171.7 L 183.5 174.9 L 189.9 177.5 L 178.4 187.0 L 170.0 182.7 Z M 71.0 97.0 L 74.0 99.0 L 71.0 100.8 L 71.0 134.0 L 70.53855419158936 138.35809907913207 L 77.1 136.9 L 85.7 135.1 L 86.2 136.8 L 78.3 140.5 L 70.7 143.8 L 69.64022235870361 144.22963953018188 L 68.0 150.4 L 64.8 157.7 L 60.4 164.3 L 55.0 170.2 L 48.5 175.2 L 41.1 179.6 L 32.8 183.1 L 23.4 185.9 L 13.2 187.8 L 12.7 186.1 L 22.2 182.3 L 30.6 178.2 L 37.8 173.9 L 43.9 169.2 L 48.9 164.2 L 52.8 158.9 L 55.8 153.3 L 57.081786441802976 149.25225324630736 L 56.2 149.6 L 49.4 152.2 L 43.0 154.6 L 36.9 156.8 L 31.1 158.9 L 25.6 160.8 L 24.4375 161.1875 L 23.2 164.9 L 20.5 162.5 L 15.4 151.4 L 17.4 150.9 L 22.6 149.8 L 26.0 148.99636363983154 L 26.0 103.0 L 38.0 105.0 L 41.0 107.0 L 38.0 108.8 L 38.0 146.24761905670167 L 40.3 145.7 L 46.9 144.1 L 53.9 142.4 L 58.74473333358765 141.22155132293702 L 58.8 140.9 L 59.0 134.0 L 59.0 95.0 Z M 170.0 30.0 L 170.0 34.0 L 106.0 34.0 L 106.0 71.0 L 164.0 71.0 L 174.0 61.0 L 186.0 71.0 L 186.0 75.0 L 106.0 75.0 L 106.0 170.0 L 94.0 176.0 L 94.0 75.0 L 16.0 75.0 L 16.0 71.0 L 94.0 71.0 L 94.0 34.0 L 30.0 34.0 L 30.0 30.0 L 148.0 30.0 L 158.0 20.0 Z M 126.64803924560547 110.0 L 130.4 118.9 L 134.9 128.3 L 139.6 136.8 L 144.7 144.6 L 146.10655736923218 146.39016389846802 L 147.1 144.9 L 151.9 136.2 L 156.0 126.9 L 159.4 117.0 L 161.2 110.0 Z " />
</g>
</svg>
