<svg xmlns="http://www.w3.org/2000/svg" xmlns:xlink="http://www.w3.org/1999/xlink" version="1.1" baseProfile="full" viewBox="0 0 200 200" width="200" height="200">
<g fill="black">
<path d="M 75.4 124.5 L 147.5 124.5 L 153.5 119.5 L 164.5 128.5 L 159.5 132.5 L 159.5 173.4 L 147.5 179.4 L 147.5 167.4 L 75.4 167.4 L 75.4 179.4 L 63.4 185.4 L 63.4 118.5 Z M 75.4 128.5 L 75.4 163.4 L 147.5 163.4 L 147.5 128.5 Z M 147.7 18.7 L 148.6 22.2 L 144.4826280593872 21.405419445037843 L 143.1 22.5 L 140.6 24.5 L 138.0 26.6 L 135.3 28.6 L 132.4 30.8 L 129.4 32.9 L 126.2 35.1 L 123.21428575515748 37.0 L 154.0 37.0 L 164.0 27.0 L 176.0 37.0 L 176.0 41.0 L 108.64499998092651 41.0 L 107.1 51.3 L 105.3801724433899 57.0 L 146.8181818008423 57.0 L 155.0 48.0 L 165.0 57.0 L 165.0 61.0 L 104.17327585220337 61.0 L 103.6 62.9 L 98.4 74.0 L 96.4754716873169 77.0 L 145.8181818008423 77.0 L 154.0 68.0 L 164.0 77.0 L 164.0 81.0 L 93.90943393707275 81.0 L 91.6 84.6 L 83.1 94.7 L 81.75979385375976 96.0 L 169.8181818008423 96.0 L 178.0 87.0 L 188.0 96.0 L 188.0 100.0 L 77.63608245849609 100.0 L 73.1 104.4 L 61.6 113.5 L 48.4 122.1 L 33.7 130.2 L 17.3 137.8 L 16.6 136.1 L 31.8 126.9 L 45.5 117.7 L 57.5 108.3 L 66.67368421554565 100.0 L 16.0 100.0 L 16.0 96.0 L 70.5666666984558 96.0 L 76.8 89.2 L 82.68080806732178 81.0 L 46.0 81.0 L 46.0 77.0 L 85.20101013183594 77.0 L 89.5 69.4 L 92.82673263549805 61.0 L 48.0 61.0 L 48.0 57.0 L 94.06372547149658 57.0 L 96.0 49.1 L 96.72178220748901 41.0 L 28.0 41.0 L 28.0 37.0 L 119.39032258987427 37.0 L 120.9 35.2 L 123.2 31.9 L 125.5 28.9 L 127.7 25.9 L 129.8 23.1 L 131.8 20.4 L 133.7 17.8 L 135.5 15.3 L 137.2 13.0 L 138.2736653327942 11.456606006622314 L 138.2 11.4 L 138.6814814567566 10.870370388031006 L 138.8 10.7 L 138.82001123428344 10.717987632751464 L 139.2 10.3 Z M 75.0 28.4 L 74.5 27.0 L 73.6 25.4 L 72.4 23.7 L 70.9 22.0 L 69.1 20.2 L 67.0 18.4 L 64.5 16.5 L 61.6 15.1 L 62.2 13.4 L 65.4 14.4 L 68.6 14.9 L 71.6 15.8 L 74.4 16.7 L 77.0 17.9 L 79.3 19.3 L 81.5 20.9 L 83.5 22.7 L 85.3 24.8 L 86.7 27.2 L 86.3 31.8 L 82.9 34.8 L 78.3 34.4 L 75.3 31.0 L 75.3 29.8 Z " />
</g>
</svg>
