<svg xmlns="http://www.w3.org/2000/svg" xmlns:xlink="http://www.w3.org/1999/xlink" version="1.1" baseProfile="full" viewBox="0 0 200 200" width="200" height="200">
<g fill="black">
<path d="M 161.5 66.0 L 161.5 70.0 L 147.3 70.0 L 147.3 97.0 L 160.5 97.0 L 170.5 87.0 L 182.5 97.0 L 182.5 101.0 L 147.3 101.0 L 147.3 129.7 L 161.5 129.7 L 167.5 124.7 L 178.5 133.7 L 173.5 137.7 L 173.5 179.2 L 161.5 185.2 L 161.5 175.2 L 120.2 175.2 L 120.2 182.2 L 108.2 188.2 L 108.2 123.7 L 120.2 129.7 L 135.3 129.7 L 135.3 101.0 L 99.3 101.0 L 99.3 97.0 L 135.3 97.0 L 135.3 70.0 L 120.3 70.0 L 120.3 66.0 L 143.3181818008423 66.0 L 151.5 57.0 Z M 31.3 125.4 L 75.6 125.4 L 81.6 120.4 L 92.6 129.4 L 87.6 133.4 L 87.6 179.2 L 75.6 185.2 L 75.6 175.2 L 31.3 175.2 L 31.3 182.2 L 19.3 188.2 L 19.3 119.4 Z M 120.2 133.7 L 120.2 171.2 L 161.5 171.2 L 161.5 133.7 Z M 31.3 129.4 L 31.3 171.2 L 75.6 171.2 L 75.6 129.4 Z M 78.8 79.4 L 78.3 76.7 L 77.7 74.0 L 77.0 71.2 L 76.2 68.4 L 75.3 65.5 L 75.01578950881958 64.67578945159912 L 73.4 69.2 L 71.2 74.8 L 68.8 80.3 L 66.2 85.7 L 63.3 90.9 L 60.1 96.1 L 59.5 95.85294113159179 L 59.5 104.4 L 73.2 104.4 L 83.2 94.4 L 95.2 104.4 L 95.2 108.4 L 11.7 108.4 L 11.7 104.4 L 47.5 104.4 L 47.5 89.5555555343628 L 45.0 91.5 L 40.5 90.8 L 37.7 87.2 L 36.7 81.0 L 36.1 77.9 L 35.3 74.9 L 34.5 71.8 L 33.6 68.8 L 32.742160892486574 66.14069862365723 L 31.2 70.4 L 28.9 76.2 L 26.4 81.9 L 23.7 87.6 L 20.7 93.1 L 17.4 98.5 L 15.8 97.7 L 17.2 91.7 L 20.2 79.7 L 21.6 73.8 L 23.0 68.0 L 24.3 62.1 L 25.5 56.2 L 26.6 50.3 L 27.6 44.4 L 28.346738719940184 39.50471315383911 L 28.3 39.5 L 28.8 36.6 L 40.2 40.7 L 42.8 43.2 L 39.245918369293214 44.51632652282715 L 38.7 46.7 L 37.1 52.7 L 35.2 58.7 L 34.765943908691405 60.047858238220215 L 35.2 60.5 L 37.5 63.0 L 39.6 65.8 L 41.5 68.6 L 43.3 71.5 L 45.0 74.6 L 46.6 77.7 L 47.5 79.75714282989502 L 47.5 28.7 L 15.6 28.7 L 15.6 24.7 L 69.3 24.7 L 79.3 14.7 L 91.3 24.7 L 91.3 28.7 L 59.5 28.7 L 59.5 90.76428575515747 L 59.8 89.5 L 62.6 78.1 L 63.9 72.4 L 65.2 66.8 L 66.4 61.1 L 67.5 55.5 L 68.5 49.8 L 69.4 44.2 L 70.05889148712158 39.50539836883545 L 70.0 39.5 L 70.5 36.6 L 82.0 40.6 L 84.6 43.1 L 81.08864793777465 44.440698051452635 L 80.6 46.5 L 79.0 52.2 L 77.3 57.9 L 76.8 59.4 L 77.8 60.4 L 80.0 62.8 L 82.0 65.4 L 83.9 68.0 L 85.6 70.7 L 87.2 73.4 L 88.7 76.2 L 90.0 79.0 L 91.1 81.9 L 90.3 86.4 L 86.6 89.1 L 82.1 88.3 L 79.4 84.6 L 79.2 82.0 Z M 169.4 70.3 L 164.9 65.3 L 160.6 59.9 L 156.5 54.0 L 152.6 47.7 L 148.9 40.9 L 145.5 33.7 L 143.00917434692383 27.223853206634523 L 139.4 34.7 L 134.8 42.9 L 130.0 50.6 L 124.9 57.7 L 119.5 64.3 L 113.9 70.4 L 108.0 75.8 L 101.7 80.5 L 95.1 84.6 L 94.1 83.1 L 99.2 77.7 L 104.2 72.0 L 109.0 66.0 L 113.6 59.7 L 117.9 52.9 L 122.1 45.8 L 126.0 38.2 L 129.7 30.1 L 133.2 21.6 L 136.4 12.6 L 136.429629611969 12.611111068725586 L 136.9 11.2 L 147.6 16.8 L 149.7 19.8 L 146.01453342437745 20.446573066711426 L 145.13525819778442 22.468906116485595 L 146.2 24.1 L 150.7 30.8 L 155.1 37.2 L 159.5 43.0 L 163.9 48.4 L 168.4 53.3 L 172.9 57.7 L 177.4 61.6 L 181.9 65.1 L 186.5 68.0 L 190.1 70.5 L 179.1 78.9 L 174.1 74.9 Z " />
</g>
</svg>
