<svg xmlns="http://www.w3.org/2000/svg" xmlns:xlink="http://www.w3.org/1999/xlink" version="1.1" baseProfile="full" viewBox="0 0 200 200" width="200" height="200">
<g fill="black">
<path d="M 68.0 72.0 L 67.1 70.0 L 66.1 67.9 L 64.9 65.9 L 63.5 63.8 L 61.9 61.7 L 60.2 59.5 L 58.3 57.3 L 55.9 55.5 L 56.8 53.9 L 59.6 55.2 L 62.5 56.3 L 65.2 57.6 L 67.8 59.1 L 70.2 60.7 L 72.5 62.5 L 74.7 64.4 L 76.7 66.5 L 78.5 68.7 L 80.1 71.1 L 80.2 75.7 L 77.19117650985717 79.0 L 115.15 79.0 L 117.1 76.6 L 119.4 73.4 L 121.6 70.3 L 126.0 64.5 L 128.0 61.8 L 131.8 56.6 L 133.5 54.1 L 134.574285697937 52.55571432113648 L 134.5 52.5 L 134.9814814567566 51.97037038803101 L 135.1 51.8 L 135.1202247619629 51.817752838134766 L 135.40909090042115 51.5 L 16.5 51.5 L 16.5 47.5 L 77.0 47.5 L 77.0 12.2 L 89.0 14.2 L 92.0 16.2 L 89.0 18.0 L 89.0 47.5 L 109.9 47.5 L 109.9 12.2 L 121.9 14.2 L 124.9 16.2 L 121.9 18.0 L 121.9 47.5 L 133.6972972869873 47.5 L 135.5 45.2 L 138.2 41.4 L 140.8 37.9 L 143.2 34.5 L 145.5 31.3 L 147.7 28.2 L 149.7 25.1 L 151.6 22.2 L 153.3 19.4 L 154.30345401763915 17.660679721832274 L 154.2 17.6 L 155.2 16.1 L 164.6 23.7 L 165.9 27.0 L 161.8024875640869 26.7174129486084 L 159.8 28.8 L 157.2 31.4 L 154.4 34.0 L 151.5 36.7 L 148.4 39.3 L 145.0 42.1 L 141.5 44.8 L 137.7 47.4 L 137.56071424484253 47.5 L 160.4 47.5 L 170.4 37.5 L 182.4 47.5 L 182.4 51.5 L 135.60361442565917 51.5 L 144.1 59.7 L 145.0 63.2 L 140.86956520080565 62.4753623008728 L 139.4 63.7 L 136.9 65.8 L 131.5 70.0 L 128.6 72.2 L 125.6 74.4 L 122.4 76.6 L 119.1 78.7 L 118.6875 79.0 L 140.0 79.0 L 150.0 69.0 L 162.0 79.0 L 162.0 83.0 L 105.0 83.0 L 105.0 103.0 L 157.0 103.0 L 167.0 93.0 L 179.0 103.0 L 179.0 107.0 L 105.0 107.0 L 105.0 129.5 L 148.5 129.5 L 154.5 124.5 L 165.5 133.5 L 160.5 137.5 L 160.5 176.4 L 148.5 182.4 L 148.5 172.4 L 51.4 172.4 L 51.4 179.4 L 39.4 185.4 L 39.4 123.5 L 51.4 129.5 L 93.0 129.5 L 93.0 107.0 L 21.0 107.0 L 21.0 103.0 L 93.0 103.0 L 93.0 83.0 L 34.0 83.0 L 34.0 79.0 L 72.48666667938232 79.0 L 69.2 76.1 L 68.7 74.0 Z M 51.4 133.5 L 51.4 168.4 L 148.5 168.4 L 148.5 133.5 Z M 48.9 37.9 L 48.2 35.7 L 47.3 33.5 L 46.1 31.1 L 44.7 28.7 L 43.0 26.3 L 41.0 23.7 L 38.8 21.0 L 36.1 18.6 L 37.1 17.1 L 40.4 18.9 L 43.6 20.5 L 46.6 22.3 L 49.4 24.2 L 52.0 26.3 L 54.3 28.5 L 56.4 30.9 L 58.2 33.4 L 59.8 36.1 L 61.1 39.0 L 60.4 43.5 L 56.8 46.3 L 52.3 45.6 L 49.5 41.9 L 49.3 40.0 Z " />
</g>
</svg>
