<svg xmlns="http://www.w3.org/2000/svg" xmlns:xlink="http://www.w3.org/1999/xlink" version="1.1" baseProfile="full" viewBox="0 0 200 200" width="200" height="200">
<g fill="black">
<path d="M 88.7 94.8 L 108.3 94.8 L 114.3 89.8 L 124.8 98.39090909957886 L 124.8 97.1 L 166.6 97.1 L 172.6 92.1 L 183.6 101.1 L 178.6 104.1 L 178.41010103225707 104.17912454605103 L 178.0 114.5 L 177.8 128.0 L 178.1 139.9 L 178.7 150.0 L 179.6 158.5 L 181.0 165.1 L 181.03982305526733 165.2274335861206 L 184.9 148.5 L 186.9 148.5 L 184.97446804046632 173.5319149017334 L 189.1 175.3 L 190.9 179.5 L 189.1 183.7 L 184.9 185.5 L 178.9 183.9 L 174.4 179.9 L 171.4 174.5 L 169.3 168.1 L 167.8 160.3 L 166.8 151.84545450210572 L 166.8 154.2 L 148.35641021728514 154.2 L 147.7 157.4 L 145.4 164.2 L 142.3 170.2 L 138.4 175.2 L 133.6 179.4 L 127.9 182.8 L 126.8 181.3 L 131.0 176.6 L 134.1 172.0 L 136.5 167.1 L 138.2 161.8 L 139.4 155.7 L 139.54583330154418 154.2 L 124.8 154.2 L 124.8 150.2 L 139.93472223281861 150.2 L 140.1 148.5 L 140.5 140.0 L 140.5 130.1 L 140.4947826385498 129.5 L 126.7 129.5 L 126.7 125.5 L 140.46000003814697 125.5 L 140.4 118.6 L 140.1226842880249 106.39810962677002 L 140.1 106.4 L 140.1 103.0 L 152.1 105.4 L 155.1 107.4 L 152.0131097793579 109.25213413238525 L 151.8 118.7 L 151.50940170288087 125.5 L 154.3 125.5 L 158.8 119.5 L 164.8 125.5 L 164.8 129.5 L 151.3384614944458 129.5 L 151.3 130.4 L 150.5 140.6 L 149.3 149.6 L 149.17692308425904 150.2 L 156.3 150.2 L 160.8 144.2 L 166.64653463363646 150.04653463363647 L 166.1 140.3 L 165.8 128.1 L 166.0 114.2 L 166.51038961410524 101.1 L 124.8 101.1 L 124.8 99.2 L 120.3 102.8 L 120.3 170.8 L 120.1 173.3 L 119.7 175.8 L 118.9 178.2 L 117.7 180.5 L 116.0 182.5 L 114.0 184.2 L 111.7 185.4 L 109.3 186.2 L 106.8 186.6 L 104.3 186.8 L 104.3 180.8 L 84.3 177.8 L 84.3 174.8 L 104.3 174.8 L 105.5 174.7 L 106.4 174.6 L 107.0 174.4 L 107.3 174.2 L 107.5 174.0 L 107.7 173.9 L 107.9 173.5 L 108.1 172.9 L 108.2 172.0 L 108.3 170.8 L 108.3 145.9 L 88.7 145.9 L 88.7 147.1 L 88.2 153.0 L 87.5 158.5 L 86.5 163.5 L 85.1 168.1 L 83.5 172.3 L 81.6 176.0 L 79.4 179.2 L 76.9 181.8 L 74.0 183.8 L 71.2 185.2 L 70.3 183.8 L 72.1 181.7 L 73.5 179.1 L 74.7 176.4 L 75.7 173.4 L 76.6 170.0 L 77.2 166.2 L 77.6 162.1 L 77.9 157.5 L 77.9 152.5 L 77.7 147.1 L 77.7 89.3 Z M 30.0 42.0 L 57.0 42.0 L 62.0 37.0 L 72.0 46.0 L 67.0 49.0 L 67.0 140.0 L 57.0 145.0 L 57.0 134.0 L 30.0 134.0 L 30.0 146.0 L 18.0 152.0 L 18.0 36.0 Z M 88.7 121.8 L 88.7 141.9 L 108.3 141.9 L 108.3 121.8 Z M 30.0 46.0 L 30.0 130.0 L 57.0 130.0 L 57.0 46.0 Z M 88.7 98.8 L 88.7 117.8 L 108.3 117.8 L 108.3 98.8 Z M 97.2 62.0 L 165.4 62.0 L 171.4 57.0 L 182.4 66.0 L 177.4 70.0 L 177.4 82.0 L 165.4 88.0 L 165.4 82.0 L 97.2 82.0 L 85.2 88.0 L 85.2 56.0 Z M 97.2 66.0 L 97.2 78.0 L 165.4 78.0 L 165.4 66.0 Z M 182.4 48.0 L 181.0 50.1 L 178.9 51.5 L 90.7 51.5 L 88.5 51.3 L 86.3 50.8 L 84.2 49.9 L 82.3 48.6 L 80.7 47.0 L 79.4 45.0 L 78.5 42.8 L 77.9 40.4 L 77.5 38.0 L 77.5 23.5 L 88.5 29.0 L 124.0 29.0 L 124.0 13.0 L 136.0 15.0 L 139.0 17.0 L 136.0 18.8 L 136.0 29.0 L 165.1 29.0 L 175.1 19.0 L 187.1 29.0 L 187.1 33.0 L 88.5 33.0 L 88.5 38.0 L 88.4 39.3 L 88.4 41.1 L 88.5 41.7 L 88.7 42.3 L 89.0 42.8 L 89.5 43.3 L 90.4 43.8 L 91.5 44.2 L 93.0 44.5 L 178.9 44.5 L 181.0 45.9 Z " />
</g>
</svg>
