<svg xmlns="http://www.w3.org/2000/svg" xmlns:xlink="http://www.w3.org/1999/xlink" version="1.1" baseProfile="full" viewBox="0 0 200 200" width="200" height="200">
<g fill="black">
<path d="M 159.6 169.3 L 151.3 160.5 L 143.9 150.9 L 142.62012882232665 148.74656591415405 L 136.8 156.8 L 127.0 167.3 L 116.1 176.1 L 104.1 183.3 L 91.1 188.8 L 90.4 187.1 L 102.2 180.0 L 112.8 171.9 L 122.3 162.6 L 130.8 152.2 L 137.90480508804322 140.812846660614 L 137.6 140.3 L 132.2 128.8 L 127.8 116.4 L 124.4 103.2 L 122.1 89.0 L 121.53577623367309 80.59306545257569 L 117.9 86.6 L 113.47236204147339 92.97579860687256 L 113.9 93.5 L 117.0 97.0 L 117.4 97.5 L 106.7 105.3 L 103.7 100.8 L 100.9 96.0 L 98.3 90.9 L 95.9 85.5 L 93.7 79.9 L 91.8 73.9 L 91.8 110.2 L 79.8 116.2 L 79.8 77.2 L 76.7 83.7 L 73.3 89.7 L 69.7 95.3 L 65.7 100.4 L 61.5 105.0 L 56.9 109.0 L 55.5 107.7 L 58.5 102.7 L 61.3 97.4 L 64.0 92.0 L 66.6 86.3 L 69.0 80.2 L 71.2 73.8 L 73.2 67.1 L 75.0 60.0 L 76.7 52.6 L 77.46666669845581 48.0 L 64.1 48.0 L 64.1 44.0 L 79.8 44.0 L 79.8 13.8 L 91.8 15.8 L 94.8 17.8 L 91.8 19.6 L 91.8 44.0 L 94.91818180084229 44.0 L 103.1 35.0 L 113.1 44.0 L 113.1 48.0 L 91.8 48.0 L 91.8 53.65925922393799 L 94.3 59.4 L 96.9 65.3 L 99.6 70.9 L 102.3 76.1 L 105.0 81.0 L 107.9 85.5 L 110.71228733062745 89.57296791076661 L 113.2 84.1 L 116.6 76.1 L 119.9 68.0 L 122.9 59.6 L 125.6 51.0 L 128.2 42.1 L 130.4 32.9 L 132.5 23.5 L 134.04142112731932 14.704832458496094 L 134.0 14.7 L 134.6 11.9 L 146.0 16.1 L 148.6 18.6 L 145.05249996185302 19.88999996185303 L 143.5 26.1 L 140.8 35.7 L 137.8 45.1 L 134.4 54.1 L 131.51162786483764 61.0 L 167.0 61.0 L 177.0 51.0 L 189.0 61.0 L 189.0 65.0 L 171.28631582260132 65.0 L 168.6 82.6 L 164.5 100.3 L 159.3 116.6 L 152.9 131.5 L 148.39829320907592 139.5430495262146 L 152.2 144.9 L 159.4 153.1 L 167.4 160.4 L 176.1 166.7 L 185.5 172.2 L 190.4 174.8 L 179.1 183.7 L 168.9 177.0 Z M 38.6 122.7 L 88.3 122.7 L 94.3 117.7 L 105.3 126.7 L 100.3 130.7 L 100.3 175.3 L 88.3 181.3 L 88.3 175.3 L 38.6 175.3 L 38.6 182.3 L 26.6 188.3 L 26.6 116.7 Z M 38.6 126.7 L 38.6 171.3 L 88.3 171.3 L 88.3 126.7 Z M 129.70476188659669 65.0 L 126.8 71.1 L 123.561865234375 77.04913129806519 L 126.2 88.3 L 130.1 101.7 L 134.6 114.0 L 139.8 125.3 L 142.90522947311402 130.81445932388306 L 144.5 127.6 L 149.8 113.3 L 154.1 97.7 L 157.3 80.7 L 159.16271190643312 65.0 Z M 51.9 79.7 L 50.1 74.1 L 47.9 68.9 L 47.1 67.3615385055542 L 47.1 110.2 L 35.1 116.2 L 35.1 77.2 L 31.9 83.7 L 28.5 89.7 L 24.9 95.3 L 21.0 100.4 L 16.7 105.0 L 12.1 109.0 L 10.7 107.7 L 13.7 102.7 L 16.5 97.4 L 19.2 92.0 L 21.8 86.3 L 24.2 80.2 L 26.4 73.8 L 28.4 67.1 L 30.3 60.0 L 31.9 52.6 L 32.73636360168457 48.0 L 13.8 48.0 L 13.8 44.0 L 35.1 44.0 L 35.1 13.8 L 47.1 15.8 L 50.1 17.8 L 47.1 19.6 L 47.1 44.0 L 52.3 44.0 L 56.8 38.0 L 62.8 44.0 L 62.8 48.0 L 47.1 48.0 L 47.1 60.388888931274415 L 48.2 61.0 L 50.8 62.9 L 53.2 65.0 L 55.4 67.3 L 57.5 69.9 L 59.5 72.6 L 61.4 75.6 L 63.1 78.8 L 64.6 82.1 L 64.2 86.6 L 60.7 89.6 L 56.2 89.2 L 53.2 85.7 L 52.6 82.6 Z " />
</g>
</svg>
