<svg xmlns="http://www.w3.org/2000/svg" xmlns:xlink="http://www.w3.org/1999/xlink" version="1.1" baseProfile="full" viewBox="0 0 200 200" width="200" height="200">
<g fill="black">
<path d="M 67.2 16.0 L 69.3 18.9 L 65.59317693710327 19.61535177230835 L 64.4 22.3 L 61.3 28.3 L 60.32033901214599 30.0 L 148.0 30.0 L 158.0 20.0 L 170.0 30.0 L 170.0 34.0 L 106.0 34.0 L 106.0 75.0 L 161.0 75.0 L 171.0 65.0 L 183.0 75.0 L 183.0 79.0 L 106.0 79.0 L 106.0 119.0 L 145.7 119.0 L 151.7 114.0 L 162.7 123.0 L 157.7 127.0 L 157.7 175.9 L 145.7 181.9 L 145.7 169.9 L 52.2 169.9 L 52.2 181.9 L 40.2 187.9 L 40.2 113.0 L 52.2 119.0 L 94.0 119.0 L 94.0 79.0 L 18.0 79.0 L 18.0 75.0 L 94.0 75.0 L 94.0 34.0 L 58.015254211425784 34.0 L 57.9 34.2 L 54.3 40.0 L 50.4 45.5 L 46.3 50.8 L 41.8 55.9 L 37.1 60.8 L 32.0 65.4 L 26.6 69.6 L 25.3 68.3 L 29.2 62.8 L 33.0 57.3 L 36.6 51.9 L 40.1 46.4 L 43.3 40.9 L 46.3 35.3 L 49.1 29.5 L 51.6 23.7 L 53.9 17.8 L 55.67730302810669 12.721991348266602 L 55.6 12.7 L 56.5 10.4 Z M 52.2 123.0 L 52.2 165.9 L 145.7 165.9 L 145.7 123.0 Z " />
</g>
</svg>
