<svg xmlns="http://www.w3.org/2000/svg" xmlns:xlink="http://www.w3.org/1999/xlink" version="1.1" baseProfile="full" viewBox="0 0 200 200" width="200" height="200">
<g fill="black">
<path d="M 71.0 155.2 L 71.0 174.9 L 137.8 174.9 L 137.8 155.2 Z M 154.18529415130615 154.6970588684082 L 154.8 155.2 L 149.8 159.2 L 149.8 180.9 L 137.8 186.9 L 137.8 178.9 L 71.0 178.9 L 71.0 181.9 L 59.0 187.9 L 59.0 151.94868421554565 L 46.0 154.6 L 29.9 157.2 L 12.9 159.2 L 12.7 157.4 L 29.2 153.5 L 44.8 149.4 L 59.0 145.37027025222778 L 59.0 145.2 L 59.21724138259888 145.3086206436157 L 59.6 145.2 L 73.5 140.6 L 86.5 135.9 L 95.77977256774902 131.98869094848632 L 89.1 127.0 L 82.3 120.6 L 79.01852197647095 116.4235733985901 L 75.2 118.7 L 69.7 121.6 L 63.9 124.3 L 57.7 127.0 L 51.3 129.4 L 44.5 131.7 L 37.4 133.7 L 29.8 135.5 L 29.2 133.8 L 36.0 130.2 L 42.4 126.8 L 48.6 123.4 L 54.4 120.2 L 59.9 116.9 L 65.0 113.5 L 69.8 110.2 L 74.2 106.8 L 78.3 103.4 L 82.0 100.0 L 82.03783779144287 100.04414415359497 L 82.2 99.9 L 89.8 109.1 L 89.9333333015442 110.3 L 134.41612901687623 110.3 L 138.3 107.5 L 138.62792692184448 107.94339418411255 L 141.8 105.3 L 152.8 114.3 L 147.8 117.3 L 140.16363639831542 120.48181819915771 L 135.8 123.3 L 125.4 129.1 L 116.59066829681396 133.26870164871215 L 119.1 134.2 L 129.5 137.3 L 140.8 140.1 L 153.0 142.4 L 166.1 144.3 L 180.0 145.7 L 190.4 146.9 L 178.6 158.8 L 164.2 156.7 Z M 102.2 139.4 L 89.3 143.8 L 75.7 147.9 L 68.14930877685546 149.77465438842773 L 71.0 151.2 L 137.8 151.2 L 138.26119947433472 150.81566705703736 L 138.2 150.8 L 126.5 147.1 L 115.7 142.9 L 105.9 138.1 L 105.6585594177246 137.95893354415892 Z M 82.35 114.3 L 81.5195876121521 114.85360822677612 L 85.1 117.5 L 92.5 122.2 L 100.6 126.6 L 104.07937879562378 128.18153581619262 L 109.9 125.4 L 120.2 119.7 L 128.75 114.3 Z M 70.7 68.2 L 70.7 87.9 L 137.1 87.9 L 137.1 68.2 Z M 153.49372940063478 67.70396041870117 L 154.1 68.2 L 149.1 72.2 L 149.1 93.9 L 137.1 99.9 L 137.1 91.9 L 70.7 91.9 L 70.7 94.9 L 58.7 100.9 L 58.7 64.96907892227173 L 45.8 67.6 L 29.7 70.2 L 12.9 72.2 L 12.6 70.4 L 29.0 66.5 L 44.6 62.4 L 58.7 58.37142858505249 L 58.7 58.2 L 58.918181800842284 58.30909090042114 L 59.3 58.2 L 73.1 53.6 L 86.0 48.9 L 95.28969144821167 44.984510231018064 L 88.7 40.0 L 81.9 33.6 L 78.65939025878906 29.399209594726564 L 74.8 31.7 L 69.3 34.6 L 63.6 37.3 L 57.5 40.0 L 51.0 42.4 L 44.3 44.7 L 37.2 46.7 L 29.7 48.5 L 29.1 46.8 L 35.8 43.2 L 42.2 39.8 L 48.3 36.5 L 54.1 33.2 L 59.6 29.9 L 64.7 26.5 L 69.4 23.2 L 73.8 19.8 L 77.9 16.4 L 80.81853446960449 13.718103408813477 L 80.8 13.7 L 81.7 12.9 L 89.4 22.1 L 89.53333330154419 23.3 L 133.66129035949706 23.3 L 137.5 20.5 L 137.8692307472229 20.992307662963867 L 141.1 18.3 L 152.1 27.3 L 147.1 30.3 L 139.61449813842773 33.41895914077759 L 135.2 36.3 L 124.8 42.1 L 116.00210523605347 46.26328945159912 L 118.5 47.2 L 128.9 50.3 L 140.1 53.1 L 152.3 55.4 L 165.2 57.3 L 179.1 58.7 L 189.5 59.9 L 177.7 71.8 L 163.4 69.7 Z M 101.7 52.4 L 88.9 56.8 L 75.3 60.9 L 67.85069770812989 62.775348854064944 L 70.7 64.2 L 137.1 64.2 L 137.56119947433473 63.81566705703735 L 137.5 63.8 L 125.8 60.1 L 115.1 55.9 L 105.3 51.1 L 105.08972425460816 50.975746154785156 Z M 81.95 27.3 L 81.1195876121521 27.853608226776124 L 84.7 30.5 L 92.1 35.2 L 100.1 39.6 L 103.55441942214966 41.17019062042236 L 109.3 38.4 L 119.6 32.7 L 128.06000003814697 27.3 Z " />
</g>
</svg>
