<svg xmlns="http://www.w3.org/2000/svg" xmlns:xlink="http://www.w3.org/1999/xlink" version="1.1" baseProfile="full" viewBox="0 0 200 200" width="200" height="200">
<g fill="black">
<path d="M 134.0 155.5 L 134.0 170.15744676589966 L 142.4 169.8 L 151.7 169.6 L 160.8 169.4 L 164.1173913002014 169.4 L 163.9 169.2 L 161.2 166.8 L 158.1 164.5 L 154.7 162.0 L 150.9 159.8 L 151.6 158.2 L 155.9 159.4 L 160.0 160.5 L 160.5 160.67948713302613 L 160.5 155.5 Z M 29.8 41.7 L 51.4 41.7 L 57.4 36.7 L 68.4 45.7 L 63.4 49.7 L 63.4 140.2 L 51.4 146.2 L 51.4 134.2 L 29.8 134.2 L 29.8 146.2 L 17.8 152.2 L 17.8 35.7 Z M 95.5 138.0 L 95.5 151.5 L 122.0 151.5 L 122.0 138.0 Z M 134.0 138.0 L 134.0 151.5 L 160.5 151.5 L 160.5 138.0 Z M 29.8 45.7 L 29.8 130.2 L 51.4 130.2 L 51.4 45.7 Z M 166.3 114.7 L 160.4 109.2 L 155.1 103.2 L 150.2 96.8 L 145.9 89.8 L 142.1 82.5 L 138.9 74.6 L 136.2 66.3 L 134.56363639831542 58.3 L 131.9666666984558 58.3 L 129.4 60.5 L 125.5 63.8 L 123.9384614944458 64.91538457870483 L 127.4 69.3 L 131.3 75.0 L 134.5 80.6 L 137.2 86.1 L 139.4 91.5 L 141.1 96.8 L 142.2 101.9 L 142.8 107.0 L 142.9 112.0 L 142.4 116.9 L 141.7 119.4 L 140.7 121.7 L 139.4 123.9 L 137.9 125.9 L 136.1067416191101 127.50449438095093 L 137.0 128.1 L 134.0 129.9 L 134.0 134.0 L 160.5 134.0 L 166.5 129.0 L 177.5 138.0 L 172.5 142.0 L 172.5 155.5 L 161.45522384643556 161.02238807678222 L 163.9 161.9 L 167.6 163.4 L 171.0 165.2 L 174.2 167.0 L 177.2 169.1 L 179.9 171.3 L 182.4 173.7 L 184.7 176.3 L 185.3 180.8 L 182.7 184.5 L 178.2 185.2 L 174.5 182.6 L 173.4 180.5 L 172.1 178.3 L 170.5 176.0 L 168.6 173.8 L 166.8184157371521 171.93743467330933 L 161.2 173.2 L 152.2 174.9 L 143.0 176.4 L 133.6 177.7 L 124.0 178.9 L 114.2 180.0 L 104.2 181.0 L 94.0 182.0 L 83.7 182.8 L 77.26735420227051 183.29010639190673 L 75.3 186.5 L 73.2 183.6 L 70.7 171.7 L 72.7 171.6 L 83.2 171.4 L 93.5 171.2 L 103.6 171.0 L 113.5 170.7 L 122.0 170.52653064727784 L 122.0 155.5 L 95.5 155.5 L 83.5 161.5 L 83.5 128.0 L 95.5 134.0 L 122.0 134.0 L 122.0 124.15 L 118.3 122.3 L 118.3 119.3 L 124.3 119.3 L 125.5 119.2 L 126.6 119.1 L 127.4 118.8 L 128.1 118.5 L 128.6 118.2 L 129.1 117.7 L 129.5 117.2 L 129.9 116.4 L 130.3 115.4 L 130.7 114.2 L 131.6 110.8 L 132.1 107.1 L 132.2 103.0 L 131.91578950881959 98.73684206008912 L 126.8 103.0 L 121.1 107.2 L 115.1 111.1 L 108.9 114.8 L 102.3 118.2 L 95.4 121.3 L 88.3 124.1 L 80.8 126.5 L 73.0 128.4 L 72.3 126.8 L 79.3 123.0 L 86.0 119.2 L 92.5 115.5 L 98.6 111.6 L 104.3 107.6 L 109.8 103.5 L 114.9 99.2 L 119.8 94.8 L 124.3 90.3 L 128.5 85.6 L 129.49742050170897 86.52863283157349 L 128.5 83.1 L 127.86806087493896 81.35464420318604 L 127.2 81.9 L 122.1 85.7 L 116.8 89.3 L 111.2 92.7 L 105.5 95.9 L 99.5 98.8 L 93.2 101.5 L 86.7 104.0 L 80.0 106.0 L 73.0 107.7 L 72.3 106.1 L 78.5 102.5 L 84.5 99.1 L 90.3 95.6 L 95.8 92.2 L 101.1 88.6 L 106.1 84.9 L 110.9 81.2 L 115.5 77.3 L 119.8 73.3 L 123.46373100280762 69.54467573165894 L 122.10552759170533 66.22462310791016 L 121.3 66.8 L 116.8 69.8 L 112.0 72.5 L 106.8 75.2 L 101.3 77.7 L 95.5 80.1 L 89.3 82.3 L 82.7 84.2 L 75.8 85.9 L 75.1 84.2 L 81.3 80.7 L 87.1 77.4 L 92.6 74.2 L 97.8 71.0 L 102.6 67.9 L 107.0 64.7 L 111.0 61.5 L 114.7 58.4 L 114.8 58.3 L 69.9 58.3 L 69.9 54.3 L 142.5043478012085 54.3 L 143.9956521987915 44.5 L 105.0039999961853 44.5 L 104.8 45.6 L 91.9 49.3 L 98.4 14.0 L 109.9 18.1 L 112.5 20.6 L 109.25466966629028 21.57972240447998 L 108.30509090423584 26.7 L 146.5 26.7 L 152.5 21.7 L 163.5 30.7 L 158.5 33.7 L 156.94063320159913 34.34973611831665 L 154.54060153961183 54.3 L 168.61818180084228 54.3 L 176.8 45.3 L 186.8 54.3 L 186.8 58.3 L 136.76666669845582 58.3 L 140.1 64.8 L 144.2 72.1 L 148.4 79.0 L 150.32372884750367 81.69322032928467 L 152.4 79.7 L 154.8 77.4 L 157.1 75.2 L 161.3 71.2 L 163.2 69.2 L 165.0 67.3 L 166.7 65.5 L 167.54138307571412 64.54643249511719 L 167.4 64.4 L 168.3 63.7 L 175.8 73.1 L 176.1 76.7 L 171.98375635147096 75.17546529769898 L 168.8 76.9 L 166.2 78.2 L 163.5 79.4 L 160.7 80.7 L 157.7 82.0 L 154.5 83.2 L 151.99615383148193 84.03461542129517 L 152.9 85.3 L 157.6 91.1 L 162.6 96.3 L 167.9 101.1 L 173.6 105.4 L 179.5 109.2 L 185.7 112.6 L 190.6 115.3 L 179.4 124.2 L 172.6 119.7 Z M 107.56327276229858 30.7 L 105.74581813812256 40.5 L 144.6043478012085 40.5 L 146.0956521987915 30.7 Z " />
</g>
</svg>
