<svg xmlns="http://www.w3.org/2000/svg" xmlns:xlink="http://www.w3.org/1999/xlink" version="1.1" baseProfile="full" viewBox="0 0 200 200" width="200" height="200">
<g fill="black">
<path d="M 33.7 108.7 L 63.2 108.7 L 69.2 103.7 L 80.2 112.7 L 75.2 116.7 L 75.2 175.2 L 63.2 181.2 L 63.2 169.2 L 33.7 169.2 L 33.7 181.2 L 21.7 187.2 L 21.7 102.7 Z M 171.5 175.3 L 169.6 172.5 L 169.33568649291993 172.16360101699829 L 165.8 173.0 L 156.6 174.8 L 147.7 176.4 L 139.1 177.7 L 130.7 178.9 L 122.5 180.0 L 114.7 180.9 L 107.0 181.7 L 99.7 182.4 L 96.7047176361084 182.6080057144165 L 94.6 185.9 L 92.5 182.9 L 90.2 171.0 L 92.2 170.9 L 99.2 171.0 L 106.5 171.0 L 112.47602739334107 170.92031965255737 L 113.2 169.3 L 115.2 164.8 L 117.1 160.5 L 119.0 156.4 L 120.8 152.5 L 122.4 148.8 L 124.0 145.2 L 125.4 141.8 L 126.05454549789428 140.0 L 90.5 140.0 L 90.5 136.0 L 163.7 136.0 L 173.7 126.0 L 185.7 136.0 L 185.7 140.0 L 138.8800000190735 140.0 L 138.6 140.5 L 136.8 143.5 L 134.8 146.7 L 132.6 149.9 L 130.3 153.2 L 127.8 156.6 L 125.2 160.1 L 122.3 163.7 L 119.3 167.4 L 116.22870140075683 170.84357719421388 L 121.9 170.7 L 130.0 170.5 L 138.4 170.2 L 147.1 169.8 L 156.1 169.5 L 165.3 169.2 L 166.94036693572997 169.1829128265381 L 165.0 167.0 L 162.3 164.3 L 159.4 161.7 L 156.2 159.1 L 152.7 156.5 L 148.9 154.2 L 149.6 152.5 L 154.1 153.7 L 158.4 155.0 L 162.5 156.7 L 166.4 158.6 L 170.1 160.8 L 173.5 163.2 L 176.8 165.9 L 179.8 168.8 L 182.5 172.0 L 185.0 175.4 L 185.5 179.9 L 182.7 183.6 L 178.2 184.1 L 174.6 181.3 L 173.1 178.3 Z M 33.7 140.1 L 33.7 165.2 L 63.2 165.2 L 63.2 140.1 Z M 33.7 112.7 L 33.7 136.1 L 63.2 136.1 L 63.2 112.7 Z M 175.9 110.0 L 175.9 114.0 L 100.3 114.0 L 100.3 110.0 L 157.71818180084227 110.0 L 165.9 101.0 Z M 150.0 55.8 L 145.0 58.8 L 136.68888893127442 62.26296300888062 L 133.8 63.9 L 130.7 65.5 L 127.5 67.0 L 124.4 68.4 L 121.2 69.6 L 120.3 69.9 L 141.0 69.9 L 147.0 64.9 L 158.0 73.9 L 153.0 77.9 L 153.0 96.5 L 141.0 102.5 L 141.0 94.5 L 59.0 94.5 L 47.0 100.5 L 47.0 63.9 L 59.0 69.9 L 112.30526313781738 69.9 L 113.3 69.2 L 115.8 66.9 L 118.4 64.8 L 120.9 62.7 L 123.4 60.5 L 128.2 56.1 L 128.51363639831544 55.8 L 50.0 55.8 L 50.0 51.8 L 132.6 51.8 L 132.8 51.6 L 135.1 49.2 L 135.51643686294557 49.702969264984134 L 139.0 46.8 Z M 59.0 73.9 L 59.0 90.5 L 141.0 90.5 L 141.0 73.9 Z M 157.1 45.6 L 148.1 43.1 L 139.5 40.4 L 132.6666666984558 37.9 L 135.0 40.0 L 135.0 44.0 L 64.0 44.0 L 64.0 40.0 L 116.81818180084228 40.0 L 122.44047622680664 33.81547622680664 L 115.7 30.8 L 108.5 27.1 L 101.7 23.0 L 100.16515913009644 21.903685092926025 L 97.6 23.6 L 90.9 27.5 L 83.7 31.2 L 76.0 34.8 L 67.7 38.1 L 58.9 41.2 L 49.5 44.1 L 39.7 46.8 L 29.2 49.1 L 18.2 51.1 L 17.7 49.4 L 28.1 45.5 L 38.0 41.7 L 47.4 37.9 L 56.1 34.1 L 64.3 30.3 L 71.9 26.4 L 79.0 22.4 L 85.4 18.3 L 91.2 14.2 L 95.71014404296875 10.71102066040039 L 95.7 10.7 L 96.5 10.0 L 103.69488439559936 19.36320571899414 L 110.9 21.7 L 118.4 24.1 L 126.1 26.4 L 134.1 28.5 L 142.3 30.5 L 150.8 32.4 L 159.6 34.1 L 168.7 35.7 L 178.1 37.0 L 187.7 38.7 L 175.8 50.0 L 166.3 47.9 Z " />
</g>
</svg>
