<svg xmlns="http://www.w3.org/2000/svg" xmlns:xlink="http://www.w3.org/1999/xlink" version="1.1" baseProfile="full" viewBox="0 0 200 200" width="200" height="200">
<g fill="black">
<path d="M 152.0 123.3 L 153.9 126.4 L 150.13492765426636 126.78949022293091 L 148.9 129.1 L 145.6 134.9 L 142.2 140.6 L 138.7 146.2 L 135.0 151.8 L 131.2 157.4 L 127.1 162.8 L 122.9 168.2 L 118.4 173.4 L 116.05 175.9 L 165.0 175.9 L 175.0 165.9 L 187.0 175.9 L 187.0 179.9 L 13.0 179.9 L 13.0 175.9 L 112.91147537231446 175.9 L 115.3 171.2 L 118.5 165.2 L 124.7 153.4 L 127.7 147.5 L 130.6 141.7 L 133.4 135.8 L 136.1 130.0 L 138.6 124.1 L 140.71043672561646 119.20378675460816 L 140.7 119.2 L 141.6 117.1 Z M 65.1 156.9 L 63.5 151.8 L 61.6 147.0 L 59.4 142.2 L 56.9 137.6 L 54.1 133.2 L 51.0 128.8 L 47.7 124.4 L 44.2 120.0 L 45.3 118.6 L 50.3 121.6 L 54.9 125.1 L 59.2 129.0 L 63.1 133.3 L 66.6 137.8 L 69.8 142.7 L 72.7 147.9 L 75.2 153.3 L 77.4 159.0 L 79.2 165.0 L 78.3 169.4 L 74.6 172.1 L 70.1 171.2 L 67.4 167.5 L 66.4 162.1 Z M 24.0 108.0 L 94.0 108.0 L 94.0 86.4 L 106.0 88.4 L 109.0 90.4 L 106.0 92.2 L 106.0 108.0 L 154.0 108.0 L 164.0 98.0 L 176.0 108.0 L 176.0 112.0 L 24.0 112.0 Z M 56.0 24.0 L 145.0 24.0 L 151.0 19.0 L 162.0 28.0 L 157.0 32.0 L 157.0 83.0 L 145.0 89.0 L 145.0 77.0 L 56.0 77.0 L 56.0 89.0 L 44.0 95.0 L 44.0 18.0 Z M 56.0 28.0 L 56.0 73.0 L 145.0 73.0 L 145.0 28.0 Z " />
</g>
</svg>
