<svg xmlns="http://www.w3.org/2000/svg" xmlns:xlink="http://www.w3.org/1999/xlink" version="1.1" baseProfile="full" viewBox="0 0 200 200" width="200" height="200">
<g fill="black">
<path d="M 48.0 132.0 L 152.0 132.0 L 158.0 127.0 L 169.0 136.0 L 164.0 140.0 L 164.0 179.0 L 152.0 185.0 L 152.0 175.0 L 48.0 175.0 L 48.0 182.0 L 36.0 188.0 L 36.0 126.0 Z M 48.0 136.0 L 48.0 171.0 L 152.0 171.0 L 152.0 136.0 Z M 157.5 110.6 L 149.1 106.1 L 141.2 101.2 L 133.8 96.1 L 126.9 90.7 L 120.5 85.0 L 114.6 79.1 L 109.4 72.7 L 106.0 67.63777780532837 L 106.0 120.9 L 94.0 126.9 L 94.0 75.3 L 87.0 81.6 L 79.6 87.6 L 71.6 93.2 L 63.3 98.5 L 54.4 103.4 L 45.1 107.9 L 35.3 112.1 L 25.0 115.7 L 14.3 118.8 L 13.6 117.2 L 23.6 112.2 L 33.1 107.2 L 42.1 102.1 L 50.6 96.8 L 58.6 91.4 L 66.2 85.7 L 73.2 79.8 L 79.8 73.7 L 85.8 67.4 L 86.370370388031 66.7 L 15.0 66.7 L 15.0 62.7 L 94.0 62.7 L 94.0 36.8 L 30.0 36.8 L 30.0 32.8 L 94.0 32.8 L 94.0 11.1 L 106.0 13.1 L 109.0 15.1 L 106.0 16.9 L 106.0 32.8 L 148.0 32.8 L 158.0 22.8 L 170.0 32.8 L 170.0 36.8 L 106.0 36.8 L 106.0 62.7 L 163.0 62.7 L 173.0 52.7 L 185.0 62.7 L 185.0 66.7 L 108.54081630706787 66.7 L 112.4 69.8 L 118.6 74.7 L 125.0 79.4 L 131.8 84.0 L 138.9 88.3 L 146.4 92.4 L 154.3 96.3 L 162.5 99.9 L 171.2 103.4 L 180.3 106.6 L 187.2 109.2 L 175.6 119.0 L 166.3 114.9 Z " />
</g>
</svg>
