<svg xmlns="http://www.w3.org/2000/svg" xmlns:xlink="http://www.w3.org/1999/xlink" version="1.1" baseProfile="full" viewBox="0 0 200 200" width="200" height="200">
<g fill="black">
<path d="M 155.9 78.2 L 155.55562143325807 82.4120150566101 L 157.4 94.2 L 159.9 108.0 L 162.8 120.9 L 166.0 132.8 L 169.6 143.8 L 173.5 153.8 L 177.8 162.9 L 182.4 171.0 L 187.4 178.2 L 176.9 186.2 L 176.5 185.7 L 171.5 177.2 L 167.1 167.9 L 163.2 157.8 L 159.8 146.8 L 156.9 135.1 L 154.6 122.5 L 152.8 109.1 L 152.7528802871704 108.58530740737915 L 152.7 109.0 L 150.3 122.8 L 147.4 135.6 L 144.0 147.4 L 140.1 158.1 L 135.6 167.7 L 130.5 176.3 L 124.8 183.6 L 118.6 189.6 L 117.3 188.3 L 121.8 181.3 L 125.9 173.6 L 129.6 165.0 L 132.9 155.5 L 135.9 145.0 L 138.4 133.6 L 140.4 121.1 L 142.1 107.6 L 143.2 93.2 L 144.0 77.7 L 144.0 72.0 L 124.0 72.0 L 124.0 71.88999996185302 L 121.7 73.5 L 121.7 108.0 L 110.7 113.5 L 110.7 106.0 L 100.9 106.0 L 100.9 121.01764707565307 L 101.3 121.3 L 104.7 123.5 L 107.8 125.9 L 110.6 128.5 L 113.1 131.2 L 115.4 134.1 L 117.5 137.1 L 119.3 140.2 L 120.9 143.4 L 122.1 146.7 L 121.3 151.2 L 117.5 153.9 L 113.1 153.0 L 110.4 149.3 L 110.1 146.7 L 109.6 144.0 L 108.9 141.2 L 107.9 138.4 L 106.7 135.5 L 105.2 132.6 L 103.5 129.6 L 101.5 126.5 L 100.9 125.58571424484253 L 100.9 183.5 L 90.9 188.5 L 90.9 137.24137935638427 L 89.5 141.2 L 86.3 149.0 L 82.9 156.1 L 79.3 162.7 L 75.3 168.7 L 71.1 174.0 L 66.5 178.5 L 65.1 177.4 L 67.9 171.8 L 70.7 166.0 L 73.4 159.7 L 76.0 153.1 L 78.4 145.9 L 80.7 138.3 L 82.8 130.2 L 84.7 121.6 L 86.5 112.5 L 87.57058820724487 106.0 L 80.6 106.0 L 80.6 118.0 L 70.6 123.0 L 70.6 61.0 L 80.6 66.0 L 90.9 66.0 L 90.9 44.0 L 66.5 44.0 L 66.5 40.0 L 90.9 40.0 L 90.9 12.0 L 100.9 14.0 L 103.4 16.0 L 100.9 17.66666669845581 L 100.9 40.0 L 107.21818180084229 40.0 L 115.4 31.0 L 125.4 40.0 L 125.4 44.0 L 100.9 44.0 L 100.9 66.0 L 110.7 66.0 L 116.2 61.0 L 124.36666669845582 68.0 L 144.0 68.0 L 144.0 13.0 L 156.0 15.0 L 159.0 17.0 L 156.0 18.8 L 156.0 68.0 L 161.0 68.0 L 171.0 58.0 L 183.0 68.0 L 183.0 72.0 L 156.0 72.0 L 156.0 78.0 L 155.86757497787477 78.19863758087158 Z M 29.6 42.0 L 49.3 42.0 L 54.8 37.0 L 65.3 46.0 L 60.3 49.5 L 60.3 140.0 L 49.3 145.5 L 49.3 134.0 L 29.6 134.0 L 29.6 146.0 L 17.6 152.0 L 17.6 36.0 Z M 29.6 46.0 L 29.6 130.0 L 49.3 130.0 L 49.3 46.0 Z M 80.6 70.0 L 80.6 102.0 L 90.9 102.0 L 90.9 70.0 Z M 100.9 70.0 L 100.9 102.0 L 110.7 102.0 L 110.7 70.0 Z " />
</g>
</svg>
