<svg xmlns="http://www.w3.org/2000/svg" xmlns:xlink="http://www.w3.org/1999/xlink" version="1.1" baseProfile="full" viewBox="0 0 200 200" width="200" height="200">
<g fill="black">
<path d="M 167.3 160.4 L 163.0 153.3 L 159.0 145.6 L 155.3 137.2 L 151.9 128.1 L 148.8 118.4 L 146.0 108.0 L 143.7 96.9 L 142.0842942237854 86.30815105438232 L 141.6 87.0 L 137.6 92.7 L 133.1 98.1 L 128.2 103.1 L 126.96295690536499 104.19959383010864 L 131.9 110.2 L 137.4 118.1 L 142.0 125.9 L 145.6 133.4 L 148.4 140.8 L 150.2 148.1 L 151.1 155.2 L 151.1 162.1 L 150.1 168.8 L 148.1 175.3 L 146.9 177.6 L 145.5 179.7 L 144.0 181.6 L 142.2 183.3 L 140.2 184.7 L 138.1 185.9 L 135.8 186.8 L 133.4 187.5 L 131.0 187.8 L 128.5 188.0 L 128.5 182.0 L 108.5 179.0 L 108.5 176.0 L 128.5 176.0 L 129.8 175.9 L 131.0 175.7 L 132.0 175.4 L 132.9 175.1 L 134.5 174.1 L 135.2 173.4 L 135.9 172.6 L 136.5 171.6 L 137.1 170.4 L 139.1 165.8 L 140.5 160.8 L 141.1 155.3 L 141.01604747772217 150.34680271148682 L 140.8 150.5 L 135.1 154.2 L 128.9 157.7 L 122.5 161.0 L 115.8 164.2 L 108.8 167.2 L 101.4 170.0 L 93.7 172.6 L 85.6 174.9 L 77.2 176.8 L 76.7 175.1 L 91.7 167.6 L 98.8 164.0 L 105.5 160.4 L 111.9 156.7 L 118.0 152.9 L 123.7 149.1 L 129.1 145.3 L 134.1 141.3 L 138.8 137.3 L 138.8020341873169 137.30252237319945 L 138.5 136.0 L 136.0 128.6 L 135.31788454055786 126.96705694198609 L 133.9 128.2 L 128.9 131.8 L 123.7 135.3 L 118.2 138.6 L 112.4 141.6 L 106.3 144.4 L 100.0 147.0 L 93.4 149.3 L 86.5 151.2 L 79.3 152.8 L 78.7 151.1 L 85.1 147.7 L 91.3 144.4 L 97.2 141.1 L 102.8 137.7 L 108.1 134.3 L 113.1 130.8 L 117.9 127.1 L 122.3 123.4 L 126.4 119.6 L 130.2 115.7 L 130.48385772705078 115.99069766998291 L 128.7 112.2 L 125.22050628662109 105.74843883514404 L 122.8 107.9 L 117.0 112.3 L 110.8 116.3 L 104.1 120.1 L 97.0 123.4 L 89.4 126.3 L 81.4 128.8 L 80.7 127.1 L 87.8 122.9 L 94.5 118.7 L 100.7 114.5 L 106.4 110.1 L 111.7 105.6 L 116.5 101.0 L 120.9 96.2 L 124.8 91.3 L 128.2 86.2 L 128.30909090042115 86.0 L 107.6 86.0 L 107.6 93.0 L 95.6 99.0 L 95.6 58.88431367874146 L 91.6 62.1 L 86.2 65.7 L 80.5 68.7 L 79.5 67.2 L 83.8 62.7 L 88.0 58.1 L 92.0 53.4 L 95.6 48.75789470672608 L 95.6 48.0 L 96.00869569778442 48.2043478012085 L 99.4 43.4 L 102.7 38.0 L 105.9 32.3 L 108.8 26.4 L 111.6 20.1 L 113.74791669845581 14.515416622161865 L 113.7 14.5 L 114.6 12.3 L 125.2 18.2 L 127.2 21.1 L 123.48793535232544 21.676010036468504 L 121.9 24.9 L 119.0753846168518 30.0 L 146.8 30.0 L 147.34666662216188 29.544444465637206 L 147.8 28.6 L 148.17694015502929 28.852549934387206 L 152.8 25.0 L 163.8 34.0 L 158.8 37.0 L 154.6037735939026 38.74842767715454 L 151.5 42.0 L 149.3 44.1 L 147.1 46.3 L 144.8 48.4 L 142.4 50.5 L 140.0 52.5 L 137.94736843109132 54.0 L 167.3 54.0 L 173.3 49.0 L 184.3 58.0 L 179.3 62.0 L 179.3 86.0 L 167.3 92.0 L 167.3 86.0 L 144.1684684753418 86.0 L 147.7 95.8 L 151.7 106.3 L 155.6 116.0 L 157.85157232284547 121.06603775024413 L 159.0 119.5 L 163.6 113.9 L 165.9 111.2 L 172.5 103.4 L 174.6 100.9 L 175.98305082321167 99.17118644714355 L 175.9 99.1 L 176.9 98.1 L 185.0 106.9 L 185.6 110.5 L 181.6891803741455 109.45245904922486 L 176.9 113.0 L 171.1 117.0 L 165.1 121.0 L 161.9 122.9 L 159.2975609779358 124.31951217651367 L 159.6 125.0 L 163.8 133.2 L 168.0 140.7 L 172.4 147.5 L 176.9 153.5 L 181.4 158.7 L 186.1 163.2 L 187.6 164.7 L 176.9 172.7 L 171.9 166.9 Z M 27.5 42.3 L 58.4 42.3 L 64.4 37.3 L 75.4 46.3 L 70.4 50.3 L 70.4 158.6 L 58.4 164.6 L 58.4 152.6 L 27.5 152.6 L 27.5 164.6 L 15.5 170.6 L 15.5 36.3 Z M 27.5 46.3 L 27.5 148.6 L 58.4 148.6 L 58.4 46.3 Z M 107.6 58.0 L 107.6 82.0 L 131.4 82.0 L 131.4 58.0 Z M 143.4 58.0 L 143.4 82.0 L 167.3 82.0 L 167.3 58.0 Z M 116.65333337783814 34.0 L 114.5 37.4 L 110.4 43.2 L 106.1 48.5 L 103.0652777671814 51.732638931274415 L 107.6 54.0 L 134.5814814567566 54.0 L 135.4 52.7 L 136.8 49.8 L 138.2 47.0 L 139.6 44.3 L 141.1 41.6 L 142.5 39.0 L 143.9 36.3 L 145.05 34.0 Z " />
</g>
</svg>
