<svg xmlns="http://www.w3.org/2000/svg" xmlns:xlink="http://www.w3.org/1999/xlink" version="1.1" baseProfile="full" viewBox="0 0 200 200" width="200" height="200">
<g fill="black">
<path d="M 127.9 177.0 L 149.1 177.0 L 150.0 176.8 L 150.6 176.6 L 150.9 176.4 L 151.1 176.3 L 151.3 176.1 L 151.5 175.8 L 151.7 175.2 L 151.8 174.3 L 151.9 173.0 L 151.9 150.8 L 93.4 150.8 L 93.4 146.8 L 151.9 146.8 L 151.9 134.9 L 163.9 136.9 L 166.9 138.9 L 163.9 140.7 L 163.9 146.8 L 166.7 146.8 L 176.7 136.8 L 188.7 146.8 L 188.7 150.8 L 163.9 150.8 L 163.9 173.0 L 163.7 175.6 L 163.3 178.1 L 162.5 180.5 L 161.3 182.8 L 159.6 184.8 L 157.6 186.4 L 155.3 187.6 L 152.9 188.5 L 150.4 188.9 L 147.9 189.0 L 147.9 183.0 L 127.9 180.0 Z M 90.4 63.2 L 90.4 67.2 L 58.5 67.2 L 58.5 88.2 L 74.8 88.2 L 80.8 83.2 L 91.8 92.2 L 86.8 96.2 L 86.8 176.2 L 74.8 182.2 L 74.8 172.2 L 30.1 172.2 L 30.1 179.2 L 18.1 185.2 L 18.1 82.2 L 30.1 88.2 L 46.5 88.2 L 46.5 67.2 L 14.5 67.2 L 14.5 63.2 L 68.4 63.2 L 78.4 53.2 Z M 120.1 170.4 L 119.2 168.7 L 118.0 166.9 L 116.6 165.1 L 115.0 163.2 L 113.1 161.2 L 111.0 159.2 L 108.8 157.1 L 106.0 155.4 L 106.8 153.8 L 109.9 155.0 L 113.0 155.8 L 115.9 156.8 L 118.7 158.0 L 121.2 159.3 L 123.6 160.6 L 125.9 162.2 L 128.0 163.8 L 129.9 165.6 L 131.7 167.6 L 132.2 172.1 L 129.4 175.8 L 124.9 176.3 L 121.3 173.5 L 120.8 172.0 Z M 63.4 133.4 L 62.3 129.2 L 61.0 125.3 L 59.7 121.7 L 58.2 118.4 L 56.7 115.4 L 55.260180950164795 112.88031673431396 L 54.8 114.9 L 52.6 122.1 L 49.7 128.6 L 46.3 134.6 L 42.3 139.8 L 37.8 144.2 L 32.8 147.7 L 30.1 149.0254545211792 L 30.1 168.2 L 74.8 168.2 L 74.8 145.5351351737976 L 72.6 147.2 L 68.1 146.4 L 65.4 142.8 L 64.4 137.9 Z M 30.1 92.2 L 30.1 145.09268293380737 L 30.4 144.8 L 33.9 140.5 L 37.0 135.9 L 39.7 130.8 L 41.9 125.3 L 43.7 119.3 L 45.0 112.7 L 46.0 105.6 L 46.4 97.8 L 46.46746988296509 92.2 Z M 146.1 57.1 L 149.1 59.1 L 146.1 60.9 L 146.1 73.9 L 169.61818180084228 73.9 L 177.8 64.9 L 187.8 73.9 L 187.8 77.9 L 146.1 77.9 L 146.1 88.3 L 166.8 88.3 L 172.8 83.3 L 183.8 92.3 L 178.8 96.3 L 178.8 132.2 L 166.8 138.2 L 166.8 123.5 L 146.1 123.5 L 146.1 132.9 L 134.1 138.9 L 134.1 123.5 L 113.4 123.5 L 113.4 136.0 L 101.4 142.0 L 101.4 82.3 L 113.4 88.3 L 134.1 88.3 L 134.1 77.9 L 93.4 77.9 L 93.4 73.9 L 134.1 73.9 L 134.1 55.1 Z M 58.226666641235354 92.2 L 57.8 98.6 L 56.6 107.0 L 56.35917778015137 108.05694198608398 L 58.5 109.3 L 61.4 111.7 L 64.1 114.5 L 66.7 117.8 L 69.1 121.5 L 71.3 125.5 L 73.4 130.0 L 74.8 133.5368420600891 L 74.8 92.2 Z M 113.4 107.5 L 113.4 119.5 L 134.1 119.5 L 134.1 107.5 Z M 146.1 107.5 L 146.1 119.5 L 166.8 119.5 L 166.8 107.5 Z M 113.4 92.3 L 113.4 103.5 L 134.1 103.5 L 134.1 92.3 Z M 146.1 92.3 L 146.1 103.5 L 166.8 103.5 L 166.8 92.3 Z M 160.8 66.2 L 160.2 65.1 L 159.4 63.9 L 158.4 62.7 L 157.3 61.4 L 156.0 60.1 L 154.5 58.8 L 153.0 57.4 L 151.1 56.5 L 151.6 54.8 L 153.7 55.4 L 155.9 55.5 L 158.0 55.8 L 160.0 56.1 L 162.0 56.6 L 163.9 57.1 L 165.7 57.8 L 167.5 58.6 L 169.1 59.5 L 170.7 60.6 L 172.1 64.9 L 170.1 69.0 L 165.8 70.4 L 161.7 68.4 L 161.3 67.4 Z M 170.0 21.6 L 170.0 25.6 L 106.0 25.6 L 106.0 38.6 L 164.8181818008423 38.6 L 173.0 29.6 L 183.0 38.6 L 183.0 42.6 L 106.0 42.6 L 106.0 59.8 L 94.0 65.8 L 94.0 42.6 L 18.0 42.6 L 18.0 38.6 L 94.0 38.6 L 94.0 25.6 L 59.16999998092651 25.6 L 56.2 27.4 L 52.6 29.4 L 48.8 31.2 L 44.8 32.9 L 40.5 34.5 L 36.0 35.9 L 31.2 37.2 L 26.3 38.4 L 25.6 36.7 L 30.0 34.2 L 34.1 31.6 L 37.9 29.1 L 41.4 26.7 L 44.7 24.2 L 47.7 21.9 L 50.5 19.5 L 52.9 17.1 L 55.1 14.8 L 56.37229318618775 13.259855651855469 L 56.3 13.2 L 57.3 12.2 L 65.6 20.9 L 65.73999996185303 21.6 L 148.0 21.6 L 158.0 11.6 Z " />
</g>
</svg>
