<svg xmlns="http://www.w3.org/2000/svg" xmlns:xlink="http://www.w3.org/1999/xlink" version="1.1" baseProfile="full" viewBox="0 0 200 200" width="200" height="200">
<g fill="black">
<path d="M 134.8 87.6 L 123.7 87.6 L 123.7 173.1 L 123.9 174.1 L 124.1 174.8 L 124.3 175.2 L 124.6 175.4 L 124.8 175.6 L 125.2 175.9 L 125.9 176.1 L 126.9 176.3 L 134.8 176.3 Z M 145.8 142.6 L 145.8 155.5 L 169.0 155.5 L 169.0 142.6 Z M 89.0 142.6 L 89.0 155.5 L 112.7 155.5 L 112.7 142.6 Z M 30.0 42.0 L 56.5 42.0 L 62.0 37.0 L 72.5 46.0 L 67.5 49.5 L 67.5 140.0 L 56.5 145.5 L 56.5 134.0 L 30.0 134.0 L 30.0 146.0 L 18.0 152.0 L 18.0 36.0 Z M 145.8 126.3 L 145.8 138.6 L 169.0 138.6 L 169.0 126.3 Z M 89.0 126.3 L 89.0 138.6 L 112.7 138.6 L 112.7 126.3 Z M 30.0 46.0 L 30.0 130.0 L 56.5 130.0 L 56.5 46.0 Z M 145.8 87.6 L 145.8 104.2 L 164.1 104.2 L 164.1 87.6 Z M 94.4 87.6 L 94.4 104.2 L 112.7 104.2 L 112.7 87.6 Z M 150.9 73.9 L 148.7 73.7 L 146.5 73.3 L 144.4 72.4 L 142.4 71.1 L 140.7 69.4 L 139.3 67.4 L 138.3 65.2 L 137.6 62.8 L 137.3 60.3 L 137.3 48.8 L 119.22881355285645 48.8 L 123.9 51.4 L 126.0 54.3 L 121.88990116119385 54.9377739906311 L 121.4 55.8 L 118.4 59.8 L 114.7 63.5 L 110.6 66.8 L 106.0 69.7 L 100.9 72.3 L 95.3 74.5 L 89.2 76.3 L 82.7375 77.76875 L 94.4 83.6 L 164.1 83.6 L 170.1 78.6 L 181.1 87.6 L 176.1 91.6 L 176.1 108.2 L 164.1 114.2 L 164.1 108.2 L 145.8 108.2 L 145.8 122.3 L 169.0 122.3 L 175.0 117.3 L 186.0 126.3 L 181.0 130.3 L 181.0 163.5 L 169.0 169.5 L 169.0 159.5 L 145.8 159.5 L 145.8 176.3 L 177.8 176.3 L 183.3 155.3 L 185.3 155.3 L 183.3 176.3 L 186.6 178.5 L 188.8 181.8 L 186.6 185.1 L 183.3 187.3 L 128.2 187.3 L 125.7 187.2 L 123.2 186.8 L 120.9 186.0 L 118.7 184.8 L 116.8 183.2 L 115.2 181.3 L 114.0 179.1 L 113.2 176.8 L 112.8 174.3 L 112.7 171.8 L 112.7 159.5 L 89.0 159.5 L 89.0 171.5 L 78.0 177.0 L 78.0 116.8 L 89.0 122.3 L 112.7 122.3 L 112.7 108.2 L 94.4 108.2 L 82.4 114.2 L 82.4 77.82571430206299 L 75.6 78.7 L 75.1 77.0 L 81.5 74.1 L 87.3 71.3 L 92.6 68.5 L 97.2 65.6 L 101.2 62.7 L 104.7 59.6 L 107.5 56.5 L 109.8 53.3 L 111.6 50.1 L 112.0875 48.8 L 74.0 48.8 L 74.0 44.8 L 124.0 44.8 L 124.0 29.5 L 83.1 29.5 L 83.1 25.5 L 124.0 25.5 L 124.0 11.3 L 136.0 13.3 L 139.0 15.3 L 136.0 17.1 L 136.0 25.5 L 154.9 25.5 L 164.9 15.5 L 176.9 25.5 L 176.9 29.5 L 136.0 29.5 L 136.0 44.8 L 167.8181818008423 44.8 L 176.0 35.8 L 186.0 44.8 L 186.0 48.8 L 149.3 48.8 L 149.3 60.3 L 149.1 61.5 L 149.0 62.5 L 149.0 63.9 L 149.1 64.4 L 149.3 64.9 L 149.8 65.5 L 150.6 66.0 L 151.8 66.4 L 153.3 66.8 L 179.0 66.8 L 182.5 61.8 L 184.5 61.8 L 182.5 66.8 L 184.6 68.2 L 186.0 70.3 L 184.6 72.4 L 182.5 73.8 L 153.3 73.8 Z " />
</g>
</svg>
