<svg xmlns="http://www.w3.org/2000/svg" xmlns:xlink="http://www.w3.org/1999/xlink" version="1.1" baseProfile="full" viewBox="0 0 200 200" width="200" height="200">
<g fill="black">
<path d="M 48.0 183.3 L 36.0 189.3 L 36.0 140.7 L 48.0 146.7 L 152.0 146.7 L 158.0 141.7 L 169.0 150.7 L 164.0 154.7 L 164.0 168.3 L 170.0 172.3 L 170.0 176.3 L 48.0 176.3 Z M 48.0 150.7 L 48.0 172.3 L 152.0 172.3 L 152.0 150.7 Z M 185.0 51.0 L 180.0 54.0 L 175.54285717010498 55.85714282989502 L 175.1 56.3 L 173.5 57.7 L 171.60065145492553 59.26416940689087 L 178.0 64.5 L 173.0 68.5 L 173.0 106.0 L 161.0 112.0 L 161.0 100.0 L 41.0 100.0 L 41.0 132.3 L 162.7777777671814 132.3 L 169.0 125.3 L 177.0 132.3 L 177.0 136.3 L 41.0 136.3 L 29.0 142.3 L 29.0 90.0 L 41.0 96.0 L 161.0 96.0 L 161.0 64.5 L 26.0 64.5 L 26.0 60.5 L 161.0 60.5 L 165.11000003814698 57.075 L 165.3 56.6 L 166.1 54.8 L 167.3 51.2 L 167.3588234901428 51.0 L 18.0 51.0 L 18.0 47.0 L 168.0 47.0 L 168.5368420600891 46.552631568908694 L 168.6 46.3 L 168.75052757263182 46.37456035614014 L 174.0 42.0 Z M 151.0 106.6 L 151.0 110.6 L 70.7 110.6 L 70.7 121.9 L 141.7777777671814 121.9 L 148.0 114.9 L 156.0 121.9 L 156.0 125.9 L 70.7 125.9 L 58.7 131.9 L 58.7 100.6 L 70.7 106.6 L 140.5 106.6 L 145.0 100.6 Z M 146.9 73.8 L 141.9 77.8 L 141.9 89.1 L 129.9 95.1 L 129.9 89.1 L 43.2 89.1 L 43.2 85.1 L 129.9 85.1 L 129.9 73.8 L 43.2 73.8 L 43.2 69.8 L 129.9 69.8 L 135.9 64.8 Z M 32.3 35.1 L 94.0 35.1 L 94.0 24.5 L 21.0 24.5 L 21.0 20.5 L 94.0 20.5 L 94.0 9.1 L 106.0 11.1 L 109.0 13.1 L 106.0 14.9 L 106.0 20.5 L 160.71818180084227 20.5 L 168.9 11.5 L 178.9 20.5 L 178.9 24.5 L 106.0 24.5 L 106.0 35.1 L 153.37777776718139 35.1 L 159.6 28.1 L 167.6 35.1 L 167.6 39.1 L 32.3 39.1 Z " />
</g>
</svg>
