<svg xmlns="http://www.w3.org/2000/svg" xmlns:xlink="http://www.w3.org/1999/xlink" version="1.1" baseProfile="full" viewBox="0 0 200 200" width="200" height="200">
<g fill="black">
<path d="M 35.5 129.7 L 77.4 129.7 L 83.4 124.7 L 94.4 133.7 L 89.4 137.7 L 89.4 176.7 L 77.4 182.7 L 77.4 170.7 L 35.5 170.7 L 35.5 182.7 L 23.5 188.7 L 23.5 123.7 Z M 122.0 130.0 L 163.0 130.0 L 169.0 125.0 L 180.0 134.0 L 175.0 138.0 L 175.0 175.0 L 163.0 181.0 L 163.0 169.0 L 122.0 169.0 L 122.0 181.0 L 110.0 187.0 L 110.0 124.0 Z M 35.5 133.7 L 35.5 166.7 L 77.4 166.7 L 77.4 133.7 Z M 122.0 134.0 L 122.0 165.0 L 163.0 165.0 L 163.0 134.0 Z M 113.5 112.7 L 133.5 112.7 L 134.7 112.6 L 135.6 112.5 L 136.2 112.3 L 136.5 112.1 L 136.7 112.0 L 136.9 111.8 L 137.0 111.4 L 137.2 110.8 L 137.4 109.9 L 137.5 108.7 L 137.5 80.7 L 104.3 80.7 L 104.3 76.7 L 137.5 76.7 L 137.5 60.1 L 121.8 60.1 L 121.8 56.1 L 146.9181818008423 56.1 L 155.1 47.1 L 165.1 56.1 L 165.1 60.1 L 149.5 60.1 L 149.5 76.7 L 160.6 76.7 L 170.6 66.7 L 182.6 76.7 L 182.6 80.7 L 149.5 80.7 L 149.5 108.7 L 149.3 111.3 L 148.9 113.8 L 148.1 116.2 L 146.8 118.4 L 145.2 120.4 L 143.2 122.1 L 140.9 123.3 L 138.5 124.1 L 136.0 124.6 L 133.5 124.7 L 133.5 118.7 L 113.5 115.7 Z M 129.9 92.2 L 131.8 95.3 L 127.65043630599976 95.65165796279908 L 125.7 98.4 L 123.3 101.4 L 120.7 104.3 L 118.0 107.2 L 115.0 109.9 L 111.9 112.6 L 108.6 115.2 L 104.9 117.6 L 101.3 120.0 L 100.1 118.6 L 102.9 115.3 L 105.3 111.9 L 107.6 108.6 L 109.8 105.4 L 111.8 102.2 L 113.6 99.1 L 115.2 96.0 L 116.7 93.0 L 118.0 90.0 L 118.74918460845947 87.95676937103272 L 118.6 87.9 L 119.6 85.9 Z M 171.4 109.8 L 170.2 107.3 L 168.8 104.7 L 167.2 102.2 L 165.4 99.6 L 163.4 97.1 L 161.2 94.5 L 158.9 91.8 L 156.2 89.4 L 157.1 87.9 L 163.9 91.1 L 167.0 92.9 L 170.0 94.8 L 172.8 96.9 L 175.4 99.2 L 177.9 101.6 L 180.2 104.1 L 182.2 106.8 L 184.1 109.7 L 184.3 114.2 L 181.3 117.7 L 176.7 117.8 L 173.3 114.8 L 172.4 112.3 Z M 84.0 82.1 L 83.0 77.5 L 82.4 75.3 L 81.7 73.2 L 80.9 71.0 L 80.20063095092773 69.36813879013062 L 79.6 72.5 L 77.9 79.3 L 75.9 85.4 L 73.6 90.9 L 71.0 95.7 L 68.1 99.7 L 64.7 102.8 L 63.5 101.85714282989503 L 63.5 111.2 L 78.9 111.2 L 88.9 101.2 L 100.9 111.2 L 100.9 115.2 L 14.0 115.2 L 14.0 111.2 L 51.5 111.2 L 51.5 88.1 L 51.2 89.6 L 47.5 92.3 L 43.0 91.4 L 40.3 87.7 L 40.2 85.2 L 40.0 82.7 L 39.7 80.3 L 38.5 73.4 L 37.9 71.2 L 37.754347801208496 70.55913047790527 L 37.6 71.3 L 35.7 78.2 L 33.5 84.6 L 31.0 90.5 L 28.2 95.8 L 25.0 100.6 L 21.3 104.8 L 19.8 103.8 L 21.6 98.8 L 23.3 93.7 L 24.8 88.2 L 26.2 82.4 L 27.4 76.2 L 28.4 69.6 L 29.2 62.6 L 29.8 55.2 L 30.1 47.4 L 30.2 39.1 L 30.23026485443115 39.10126104354858 L 30.3 36.8 L 42.2 39.6 L 45.1 41.7 L 41.88541765213013 43.46486873626709 L 41.5 48.2 L 40.4 56.3 L 39.1 64.1 L 38.81092281341553 65.48757066726685 L 40.6 66.9 L 42.4 68.7 L 44.1 70.6 L 45.7 72.7 L 47.1 74.9 L 48.5 77.3 L 49.8 79.8 L 51.0 82.4 L 51.5 83.62727270126342 L 51.5 28.1 L 20.6 28.1 L 20.6 24.1 L 72.3 24.1 L 82.3 14.1 L 94.3 24.1 L 94.3 28.1 L 63.5 28.1 L 63.5 101.16666669845581 L 64.8 97.7 L 66.2 93.4 L 67.5 88.6 L 68.6 83.3 L 69.6 77.5 L 70.4 71.0 L 71.0 64.0 L 71.4 56.3 L 71.6 48.1 L 71.6 39.2 L 71.63028011322021 39.20075702667236 L 71.7 36.9 L 83.6 39.5 L 86.6 41.5 L 83.34613838195801 43.350235080718996 L 83.0 48.6 L 82.1 57.2 L 81.00482721328736 65.16489305496216 L 83.0 66.4 L 85.0 68.0 L 86.9 69.7 L 88.8 71.7 L 90.5 73.7 L 92.1 76.0 L 93.5 78.3 L 94.9 80.8 L 96.2 83.4 L 95.7 88.0 L 92.1 90.9 L 87.6 90.3 L 84.7 86.8 L 84.4 84.4 Z M 171.6 57.5 L 167.1 53.8 L 162.8 49.8 L 158.7 45.4 L 154.9 40.6 L 151.2 35.6 L 147.8 30.2 L 145.29514560699462 25.357281589508055 L 141.2 31.5 L 136.7 37.3 L 132.0 42.8 L 127.0 47.9 L 121.7 52.6 L 116.2 56.8 L 110.5 60.6 L 104.4 63.8 L 98.1 66.4 L 97.2 64.8 L 102.3 60.6 L 107.3 56.2 L 112.0 51.8 L 116.5 47.1 L 120.8 42.1 L 124.8 36.9 L 128.6 31.4 L 132.2 25.6 L 135.6 19.5 L 138.25343265533448 14.021945571899414 L 138.2 14.0 L 139.2 12.0 L 149.4 18.6 L 151.1 21.7 L 148.1119433403015 21.906072902679444 L 148.2 22.0 L 152.6 26.7 L 156.8 31.0 L 161.0 35.0 L 165.3 38.7 L 169.5 42.1 L 173.9 45.1 L 178.2 47.8 L 182.6 50.1 L 187.1 52.2 L 192.5 54.9 L 181.2 64.0 L 176.3 60.9 Z " />
</g>
</svg>
