<svg xmlns="http://www.w3.org/2000/svg" xmlns:xlink="http://www.w3.org/1999/xlink" version="1.1" baseProfile="full" viewBox="0 0 200 200" width="200" height="200">
<g fill="black">
<path d="M 54.9 145.4 L 145.0 145.4 L 151.0 140.4 L 162.0 149.4 L 157.0 153.4 L 157.0 180.5 L 145.0 186.5 L 145.0 178.5 L 54.9 178.5 L 54.9 181.5 L 42.9 187.5 L 42.9 139.4 Z M 54.9 149.4 L 54.9 174.5 L 145.0 174.5 L 145.0 149.4 Z M 126.6 127.2 L 138.6 127.2 L 139.8 127.1 L 140.7 126.9 L 141.3 126.7 L 141.7 126.6 L 141.8 126.4 L 142.0 126.2 L 142.2 125.9 L 142.4 125.3 L 142.5 124.4 L 142.6 123.2 L 142.6 104.0 L 106.0 104.0 L 106.0 139.3 L 94.0 145.3 L 94.0 104.0 L 58.1 104.0 L 58.1 131.5 L 46.1 137.5 L 46.1 94.0 L 58.1 100.0 L 94.0 100.0 L 94.0 86.2 L 34.348837184906 86.2 L 34.4 88.4 L 34.1 92.5 L 33.4 96.3 L 32.3 99.9 L 30.7 103.2 L 28.6 106.3 L 26.1 109.1 L 23.1 111.4 L 18.5 111.8 L 15.0 108.9 L 14.6 104.3 L 17.5 100.8 L 19.4 100.0 L 21.2 99.0 L 23.0 97.6 L 24.6 95.8 L 26.2 93.5 L 27.6 90.7 L 28.9 87.5 L 30.0 83.8 L 31.0 79.6 L 31.5 74.9 L 33.3 74.9 L 33.8 79.6 L 34.08888893127441 82.2 L 114.1 82.2 L 112.9 81.0 L 115.0 78.3 L 116.7 75.4 L 118.4 72.7 L 120.0 70.0 L 121.6 67.5 L 123.1 65.0 L 124.6 62.7 L 125.9 60.4 L 127.2 58.2 L 127.88571424484253 57.0 L 53.0 57.0 L 53.0 55.0 L 32.16951217651367 55.0 L 32.7 62.5 L 21.2 69.4 L 17.4 16.4 L 29.25016164779663 21.273856830596923 L 33.2 19.9 L 37.8 18.4 L 42.1 17.1 L 46.4 15.7 L 50.5 14.4 L 54.5 13.2 L 58.3 11.9 L 61.9 10.7 L 64.51918048858643 9.754184818267822 L 64.5 9.7 L 64.55122604370118 9.742612838745117 L 65.5 9.4 L 65.87295875549316 10.84210729598999 L 75.8 19.1 L 76.1 22.1 L 71.85473651885987 20.126849365234374 L 68.5 21.0 L 64.7 21.6 L 60.7 22.2 L 56.6 22.8 L 52.4 23.3 L 48.0 23.8 L 43.5 24.2 L 38.9 24.5 L 34.1 24.8 L 30.03341464996338 24.8 L 30.754878044128418 35.0 L 45.7777777671814 35.0 L 52.0 28.0 L 60.0 35.0 L 60.0 39.0 L 31.037804889678956 39.0 L 31.886585330963136 51.0 L 41.7777777671814 51.0 L 48.0 44.0 L 56.0 51.0 L 56.0 53.0 L 94.0 53.0 L 94.0 39.0 L 106.0 41.0 L 109.0 43.0 L 106.0 44.8 L 106.0 53.0 L 137.5 53.0 L 142.0 47.0 L 148.0 53.0 L 148.0 57.0 L 130.4666666984558 57.0 L 137.8 63.6 L 138.9 67.0 L 134.5120418548584 66.39476442337036 L 133.8 67.0 L 131.7 68.8 L 129.5 70.7 L 127.2 72.5 L 124.8 74.4 L 122.3 76.3 L 119.7 78.2 L 116.8 80.1 L 114.31818180084228 82.2 L 168.4 82.2 L 169.1714285850525 81.55714282989501 L 169.6 80.7 L 169.92154693603516 80.9320442199707 L 174.4 77.2 L 185.4 86.2 L 180.4 89.2 L 175.3 91.325 L 173.8 92.6 L 171.7 94.4 L 169.4 96.3 L 167.0 98.2 L 164.3 100.2 L 161.5 102.3 L 159.2759518623352 103.73486976623535 L 159.6 104.0 L 154.6 108.0 L 154.6 123.2 L 154.5 125.7 L 154.0 128.2 L 153.2 130.6 L 152.0 132.9 L 150.3 134.9 L 148.3 136.5 L 146.1 137.8 L 143.6 138.6 L 141.2 139.0 L 138.6 139.2 L 138.6 133.2 L 126.6 130.2 Z M 103.0 86.2 L 106.0 86.7 L 109.0 88.7 L 106.0 90.5 L 106.0 100.0 L 142.6 100.0 L 148.6 95.0 L 156.9896484375 101.8642578125 L 158.5 99.4 L 160.4 96.5 L 162.1 93.8 L 163.8 91.3 L 165.2 88.8 L 166.6 86.6 L 166.80952377319335 86.2 Z M 74.7 74.1 L 73.5 70.5 L 71.7 66.9 L 69.3 63.1 L 67.9 61.1 L 66.0 59.6 L 67.0 58.1 L 69.2 59.3 L 71.6 60.2 L 73.9 61.3 L 76.0 62.5 L 78.1 63.9 L 80.0 65.5 L 81.8 67.1 L 83.5 69.0 L 85.1 70.9 L 86.5 73.0 L 86.4 77.6 L 83.2 80.8 L 78.6 80.7 L 75.4 77.5 L 75.1 75.8 Z M 187.0 24.0 L 182.0 27.0 L 180.68559322357177 27.547669506073 L 178.2 63.5 L 165.7 68.4 L 166.912931060791 55.0 L 153.0 55.0 L 153.0 51.0 L 167.275 51.0 L 168.3612069129944 39.0 L 140.0 39.0 L 140.0 35.0 L 168.72327585220336 35.0 L 169.7189655303955 24.0 L 140.0 24.0 L 140.0 20.0 L 170.0 20.0 L 176.0 15.0 Z " />
</g>
</svg>
