<svg xmlns="http://www.w3.org/2000/svg" xmlns:xlink="http://www.w3.org/1999/xlink" version="1.1" baseProfile="full" viewBox="0 0 200 200" width="200" height="200">
<g fill="black">
<path d="M 135.0 174.8 L 147.0 174.8 L 148.2 174.7 L 149.1 174.6 L 149.7 174.4 L 150.0 174.2 L 150.2 174.0 L 150.4 173.9 L 150.5 173.5 L 150.7 172.9 L 150.9 172.0 L 151.0 170.8 L 151.0 149.8 L 106.0 149.8 L 106.0 188.8 L 94.0 194.8 L 94.0 149.8 L 49.0 149.8 L 49.0 179.6 L 37.0 185.6 L 37.0 139.8 L 49.0 145.8 L 94.0 145.8 L 94.0 134.0 L 14.0 134.0 L 14.0 130.0 L 94.0 130.0 L 94.0 115.1 L 106.0 117.1 L 109.0 119.1 L 106.0 120.9 L 106.0 130.0 L 167.8181818008423 130.0 L 176.0 121.0 L 186.0 130.0 L 186.0 134.0 L 106.0 134.0 L 106.0 145.8 L 151.0 145.8 L 157.0 140.8 L 168.0 149.8 L 163.0 153.8 L 163.0 170.8 L 162.8 173.4 L 162.4 175.8 L 161.6 178.3 L 160.3 180.5 L 158.7 182.5 L 156.7 184.2 L 154.4 185.4 L 152.0 186.2 L 149.5 186.7 L 147.0 186.8 L 147.0 180.8 L 135.0 177.8 Z M 97.5 19.3 L 100.5 21.3 L 97.5 23.1 L 97.5 107.1 L 85.5 113.1 L 85.5 107.1 L 10.9 107.1 L 10.9 103.1 L 85.5 103.1 L 85.5 17.3 Z M 160.6 106.2 L 152.9 102.1 L 145.9 97.5 L 144.38663969039916 96.27489881515503 L 136.1 100.9 L 126.9 105.0 L 116.9 108.2 L 106.3 110.6 L 95.0 112.1 L 94.7 110.3 L 105.3 106.9 L 115.2 103.2 L 124.2 99.0 L 132.4 94.3 L 137.76404914855956 90.53066816329957 L 134.1 86.8 L 129.3 80.6 L 125.3 74.0 L 122.3 66.9 L 120.48421049118042 60.0 L 112.4 60.0 L 112.4 56.0 L 136.5 56.0 L 136.5 13.4 L 148.5 15.4 L 151.5 17.4 L 148.5 19.2 L 148.5 33.1 L 167.71818180084227 33.1 L 175.9 24.1 L 185.9 33.1 L 185.9 37.1 L 148.5 37.1 L 148.5 56.0 L 165.2 56.0 L 165.63462896347045 55.63780918121338 L 165.7 55.5 L 165.76449699401854 55.52958583831787 L 171.2 51.0 L 182.2 60.0 L 177.2 63.0 L 174.6 64.08333330154419 L 171.8 69.1 L 166.1 77.0 L 159.7 84.1 L 153.26818389892577 89.89769334793091 L 158.0 92.3 L 165.2 95.3 L 172.9 97.8 L 181.2 99.8 L 189.7 101.9 L 177.9 112.6 L 168.9 109.7 Z M 35.4 32.5 L 60.5 32.5 L 66.5 27.5 L 77.5 36.5 L 72.5 40.5 L 72.5 81.4 L 60.5 87.4 L 60.5 75.4 L 35.4 75.4 L 35.4 87.4 L 23.4 93.4 L 23.4 26.5 Z M 126.0 65.0 L 130.3 70.8 L 134.9 76.1 L 140.0 80.9 L 144.9657775878906 84.78233518600464 L 146.5 83.5 L 152.4 77.3 L 157.5 70.6 L 162.0 63.3 L 163.56538457870482 60.0 L 122.796875 60.0 Z M 35.4 36.5 L 35.4 71.4 L 60.5 71.4 L 60.5 36.5 Z " />
</g>
</svg>
