<svg xmlns="http://www.w3.org/2000/svg" xmlns:xlink="http://www.w3.org/1999/xlink" version="1.1" baseProfile="full" viewBox="0 0 200 200" width="200" height="200">
<g fill="black">
<path d="M 76.0 108.3 L 77.9 111.4 L 72.62942781448365 111.94523162841797 L 72.3 112.3 L 70.8 113.7 L 69.1 115.3 L 67.3 116.9 L 65.3 118.7 L 63.2 120.6 L 60.926315784454346 122.4 L 149.0 122.4 L 155.0 117.4 L 166.0 126.4 L 161.0 130.4 L 161.0 177.9 L 149.0 183.9 L 149.0 173.9 L 51.0 173.9 L 51.0 180.9 L 39.0 186.9 L 39.0 116.4 L 51.0 122.4 L 58.13333330154419 122.4 L 59.0 121.1 L 60.1 118.3 L 61.2 115.8 L 62.2 113.4 L 63.1 111.2 L 63.8 109.2 L 64.4 107.4 L 64.8 105.8 L 65.0 104.4 L 65.00802183151245 104.31176013946533 L 64.7 104.2 L 65.6 102.1 Z M 51.0 149.0 L 51.0 169.9 L 149.0 169.9 L 149.0 149.0 Z M 51.0 126.4 L 51.0 145.0 L 149.0 145.0 L 149.0 126.4 Z M 58.63883848190308 14.404718685150147 L 67.5 22.0 L 67.7 25.1 L 63.628138065338135 23.33755226135254 L 62.0 23.9 L 59.1 24.5 L 56.1 25.1 L 52.9 25.6 L 49.6 26.1 L 46.2 26.5 L 42.7 26.9 L 39.0 27.2 L 35.1 27.5 L 32.98613605499268 27.5 L 34.75121955871582 55.0 L 46.81818180084228 55.0 L 55.0 46.0 L 65.0 55.0 L 65.0 59.0 L 35.00795888900757 59.0 L 36.805134773254395 87.0 L 48.81818180084228 87.0 L 57.0 78.0 L 67.0 87.0 L 67.0 91.0 L 37.06187419891357 91.0 L 37.8 102.5 L 26.3 109.3 L 20.4 19.4 L 31.899585056304932 24.222406673431397 L 34.2 23.2 L 37.7 21.7 L 41.0 20.4 L 44.2 19.0 L 47.3 17.7 L 50.2 16.4 L 52.9 15.1 L 55.5 13.9 L 57.044444465637206 13.09688892364502 L 57.0 13.0 L 57.08713693618775 13.074688816070557 L 58.0 12.6 Z M 101.0 16.3 L 102.9 19.4 L 98.30327568054199 19.95477705001831 L 97.7 20.7 L 95.7 22.7 L 93.6 24.6 L 91.3 26.5 L 88.9 28.2 L 86.3 29.9 L 83.5 31.5 L 81.76610174179078 32.28305082321167 L 83.4 33.1 L 118.5 33.1 L 124.5 28.1 L 135.5 37.1 L 130.5 41.1 L 130.5 102.8 L 118.5 108.8 L 118.5 98.8 L 83.4 98.8 L 71.4 104.8 L 71.4 27.1 L 78.98333330154419 30.89166669845581 L 80.9 28.4 L 82.7 26.0 L 84.4 23.6 L 85.8 21.4 L 87.1 19.2 L 88.1 17.1 L 89.0 15.1 L 89.6 13.2 L 89.83657121658325 12.348343753814698 L 89.7 12.3 L 90.6 10.2 Z M 184.0 30.0 L 179.0 33.0 L 177.76197605133058 33.515843296051024 L 174.4 97.3 L 162.0 102.5 L 162.75637588500976 91.0 L 133.0 91.0 L 133.0 87.0 L 163.01946306228638 87.0 L 164.86107378005983 59.0 L 135.0 59.0 L 135.0 55.0 L 165.12416105270387 55.0 L 166.76845636367798 30.0 L 137.0 30.0 L 137.0 26.0 L 167.0 26.0 L 173.0 21.0 Z M 110.4 84.7 L 109.7 83.2 L 108.8 81.6 L 107.7 79.9 L 106.5 78.1 L 105.1 76.3 L 103.5 74.5 L 102.98313255310059 73.92570285797119 L 100.9 77.1 L 98.5 80.1 L 95.9 82.9 L 93.0 85.5 L 89.9 88.0 L 86.5 90.2 L 83.4 92.14857139587403 L 83.4 94.8 L 118.5 94.8 L 118.5 89.83333330154419 L 115.0 90.3 L 111.3 87.6 L 110.9 86.2 Z M 95.9 60.0 L 93.0 62.6 L 89.9 65.0 L 86.5 67.2 L 83.4 69.14857139587403 L 83.4 89.2692307472229 L 84.5 88.0 L 86.7 84.9 L 88.7 81.8 L 90.5 78.8 L 92.0 75.8 L 93.3 72.8 L 94.3 69.9 L 95.1 66.9 L 95.6 64.0 L 95.86100826263427 62.1076901435852 L 95.8 62.1 L 95.97419357299805 61.28709678649902 L 96.0 61.1 L 96.01366024017334 61.102918815612796 L 96.35500001907349 59.51000003814697 Z M 110.4 61.9 L 109.7 60.3 L 108.8 58.7 L 107.7 57.0 L 106.5 55.2 L 105.0 53.4 L 103.5 51.5 L 103.0884614944458 51.04273500442505 L 103.0 51.2 L 100.9 54.3 L 98.5 57.2 L 96.51083602905274 59.34217653274536 L 107.7 63.6 L 110.2 66.1 L 106.28045978546143 67.45402297973632 L 104.8 70.6 L 104.57365264892579 71.0149700164795 L 105.5 71.3 L 108.0 72.3 L 110.3 73.3 L 112.5 74.4 L 114.6 75.6 L 116.5 76.9 L 118.4 78.3 L 118.5 78.39411764144897 L 118.5 67.3 L 114.9 67.7 L 111.3 64.9 L 110.9 63.4 Z M 83.4 37.1 L 83.4 66.2692307472229 L 84.5 65.0 L 86.8 61.9 L 88.7 58.8 L 90.5 55.8 L 92.0 52.9 L 93.3 49.9 L 94.3 47.1 L 95.1 44.2 L 95.6 41.3 L 95.85606594085694 39.50753831863403 L 95.8 39.5 L 95.9714285850525 38.7 L 96.0 38.5 L 96.01363639831543 38.50303030014038 L 96.31428575515747 37.1 Z M 97.42727270126343 37.1 L 107.7 41.1 L 110.2 43.7 L 106.20884952545165 45.00619468688965 L 104.8 48.0 L 104.72575454711914 48.131991958618165 L 105.5 48.4 L 108.0 49.3 L 110.4 50.4 L 112.6 51.6 L 114.7 52.8 L 116.6 54.2 L 118.5 55.7 L 118.5 37.1 Z " />
</g>
</svg>
