<svg xmlns="http://www.w3.org/2000/svg" xmlns:xlink="http://www.w3.org/1999/xlink" version="1.1" baseProfile="full" viewBox="0 0 200 200" width="200" height="200">
<g fill="black">
<path d="M 189.5 97.6 L 189.5 101.6 L 151.0 101.6 L 151.0 114.9 L 171.5 114.9 L 177.5 109.9 L 188.5 118.9 L 183.5 122.9 L 183.5 179.1 L 171.5 185.1 L 171.5 175.1 L 119.0 175.1 L 119.0 182.1 L 107.0 188.1 L 107.0 108.9 L 119.0 114.9 L 139.0 114.9 L 139.0 101.6 L 102.0 101.6 L 102.0 97.6 L 171.3181818008423 97.6 L 179.5 88.6 Z M 93.5 143.1 L 92.4 145.3 L 90.9 147.3 L 89.1 149.1 L 87.0 150.6 L 84.7 151.7 L 82.3 152.4 L 79.8 152.8 L 77.3 153.0 L 77.3 147.0 L 70.2053747177124 145.93580617904664 L 70.7 147.0 L 74.3 153.2 L 78.2 158.5 L 82.3 163.0 L 86.7 166.7 L 91.3 169.7 L 96.1 172.0 L 101.9 174.6 L 90.6 183.9 L 84.5 180.2 L 79.0 175.7 L 74.1 170.4 L 69.9 164.4 L 66.2 157.7 L 63.1 150.3 L 61.24480943679809 144.59172143936158 L 57.3 144.0 L 57.3 141.0 L 60.21609191894531 141.0 L 58.6 133.6 L 57.6222222328186 126.52991456985474 L 56.4 132.5 L 52.9 144.1 L 48.5 154.5 L 43.0 163.6 L 36.7 171.5 L 29.4 178.1 L 21.3 183.2 L 12.4 186.8 L 11.7 185.1 L 19.3 180.0 L 25.9 174.1 L 31.7 167.3 L 36.6 159.6 L 40.7 150.9 L 44.1 141.2 L 46.6 130.3 L 48.4 118.4 L 48.56363639831543 116.0 L 29.985636901855468 116.0 L 29.1 123.6 L 16.4 128.2 L 22.1 79.3 L 32.33108110427857 86.0 L 49.5 86.0 L 49.5 63.0 L 19.1 63.0 L 19.1 59.0 L 49.5 59.0 L 49.5 41.0 L 12.5 41.0 L 12.5 37.0 L 49.5 37.0 L 49.5 14.0 L 61.5 16.0 L 64.5 18.0 L 61.5 19.8 L 61.5 37.0 L 76.4 37.0 L 86.4 27.0 L 98.4 37.0 L 98.4 41.0 L 61.5 41.0 L 61.5 59.0 L 77.7 59.0 L 83.7 54.0 L 94.7 63.0 L 89.7 67.0 L 89.7 94.0 L 77.7 100.0 L 77.7 90.0 L 61.5 90.0 L 61.5 91.0 L 60.7 105.9 L 59.95395679473877 112.0 L 85.3 112.0 L 91.3 107.0 L 102.3 116.0 L 97.3 119.0 L 97.00777206420898 119.12176170349122 L 96.9 120.9 L 96.6 124.1 L 96.3 127.1 L 96.0 129.9 L 95.8 132.3 L 95.5 134.4 L 95.3 136.1 L 95.1 137.4 L 95.0 138.2 L 94.4 140.7 Z M 152.50862064361573 138.0948275566101 L 152.4 139.0 L 151.2 143.7 L 149.4 148.2 L 148.58109798431397 149.59895763397216 L 150.8 150.1 L 153.7 151.0 L 156.4 152.0 L 159.0 153.1 L 161.5 154.3 L 163.8 155.6 L 166.0 157.1 L 168.0 158.6 L 169.9 160.3 L 170.9 164.8 L 168.6 168.7 L 164.1 169.7 L 160.2 167.4 L 159.5 165.9 L 158.7 164.3 L 157.6 162.6 L 156.3 160.9 L 154.8 159.1 L 153.0 157.3 L 151.1 155.5 L 149.0 153.6 L 147.17034435272217 152.00899505615234 L 147.0 152.3 L 144.1 156.1 L 140.7 159.4 L 136.9 162.4 L 132.6 164.9 L 127.8 167.0 L 122.7 168.9 L 121.9 167.3 L 126.2 164.2 L 129.8 161.0 L 132.9 157.8 L 135.5 154.5 L 137.5 151.3 L 139.1 148.0 L 140.2 144.7 L 140.9 141.2 L 141.1 137.7 L 141.02696628570556 134.99775276184081 L 141.0 135.0 L 141.0 134.2774193763733 L 139.8 135.4 L 136.4 138.0 L 132.6 140.1 L 128.5 141.9 L 124.0 143.3 L 119.3 144.5 L 119.0 143.81428575515747 L 119.0 171.1 L 171.5 171.1 L 171.5 142.04090909957887 L 168.1 143.2 L 164.0 141.3 L 162.8 139.5 L 161.5 137.7 L 160.0 135.8 L 158.3 134.0 L 156.5 132.1 L 154.4 130.1 L 152.2 128.2 L 149.9 126.2 L 148.1801160812378 124.75529756546021 L 147.8 125.6 L 145.6 129.2 L 143.265625 132.053125 L 153.0 134.0 L 156.0 136.0 Z M 119.0 118.9 L 119.0 142.66585369110106 L 122.7 140.5 L 126.2 137.9 L 129.3 135.3 L 131.9 132.6 L 134.1 129.9 L 135.8 127.2 L 137.1 124.4 L 138.1 121.5 L 138.637931060791 118.9 Z M 150.41627902984618 118.9 L 149.6 121.6 L 149.40786514282226 122.02696628570557 L 151.7 122.6 L 154.8 123.5 L 157.8 124.6 L 160.6 125.8 L 163.3 127.1 L 165.9 128.5 L 168.4 130.0 L 170.7 131.6 L 171.5 132.1818181991577 L 171.5 118.9 Z M 121.0 54.0 L 171.0 54.0 L 177.0 49.0 L 188.0 58.0 L 183.0 62.0 L 183.0 82.4 L 171.0 88.4 L 171.0 80.4 L 121.0 80.4 L 121.0 83.4 L 109.0 89.4 L 109.0 48.0 Z M 61.5 63.0 L 61.5 86.0 L 77.7 86.0 L 77.7 63.0 Z M 121.0 58.0 L 121.0 76.4 L 171.0 76.4 L 171.0 58.0 Z M 126.5 19.6 L 165.5 19.6 L 171.5 14.6 L 182.5 23.6 L 177.5 27.6 L 177.5 43.2 L 165.5 49.2 L 165.5 43.2 L 126.5 43.2 L 114.5 49.2 L 114.5 13.6 Z M 126.5 23.6 L 126.5 39.2 L 165.5 39.2 L 165.5 23.6 Z M 83.4 134.5 L 83.6 132.9 L 83.8 130.9 L 84.1 128.6 L 84.4 125.9 L 84.7 123.1 L 85.1 116.9 L 85.13103446960449 116.0 L 59.46474819183349 116.0 L 59.380889129638675 116.68567123413087 L 61.4 123.3 L 64.3 132.1 L 67.4 139.9 L 67.9112675666809 141.0 L 77.3 141.0 L 78.5 140.9 L 79.6 140.7 L 80.3 140.5 L 80.9 140.2 L 81.4 139.9 L 81.8 139.5 L 82.1 139.0 L 82.5 138.2 L 82.9 137.3 L 83.2 136.0 L 83.2 135.6 Z M 33.01544713973999 90.0 L 30.451761531829835 112.0 L 48.83636360168457 112.0 L 49.3 105.2 L 49.5 91.0 L 49.5 90.0 Z " />
</g>
</svg>
