<svg xmlns="http://www.w3.org/2000/svg" xmlns:xlink="http://www.w3.org/1999/xlink" version="1.1" baseProfile="full" viewBox="0 0 200 200" width="200" height="200">
<g fill="black">
<path d="M 183.0 145.0 L 185.0 145.0 L 183.0 170.0 L 186.6 172.4 L 189.0 176.0 L 186.6 179.6 L 183.0 182.0 L 149.0 182.0 L 146.4 181.8 L 143.9 181.4 L 141.5 180.6 L 139.2 179.3 L 137.2 177.7 L 135.6 175.7 L 134.3 173.4 L 133.5 171.0 L 133.1 168.5 L 133.0 166.0 L 133.0 106.54590167999268 L 128.4 121.1 L 120.7 138.1 L 111.5 152.7 L 100.8 164.9 L 88.6 174.5 L 75.0 181.5 L 60.2 185.8 L 59.7 184.1 L 73.4 178.1 L 85.5 170.2 L 96.1 160.3 L 105.3 148.4 L 113.2 134.3 L 119.7 118.0 L 124.8 99.4 L 125.78181819915771 94.0 L 98.72229299545288 94.0 L 96.7 106.7 L 83.9 110.8 L 95.2 40.0 L 106.7 43.9 L 109.4 46.3 L 106.15193767547608 47.341831302642824 L 99.35923566818238 90.0 L 126.50909090042114 90.0 L 128.6 78.5 L 131.0 55.3 L 131.8288537979126 32.0 L 87.0 32.0 L 87.0 28.0 L 161.0 28.0 L 171.0 18.0 L 183.0 28.0 L 183.0 32.0 L 143.78396949768066 32.0 L 142.3 56.3 L 139.2 80.2 L 137.0675926208496 90.0 L 166.0 90.0 L 176.0 80.0 L 188.0 90.0 L 188.0 94.0 L 136.1972222328186 94.0 L 134.5 101.8 L 134.3648892402649 102.22748155593872 L 145.0 104.0 L 148.0 106.0 L 145.0 107.8 L 145.0 167.2 L 145.2 168.1 L 145.5 169.0 L 145.9 169.4 L 146.8 169.7 L 147.7 169.9 L 149.0 170.0 L 177.0 170.0 Z M 30.0 42.0 L 56.0 42.0 L 62.0 37.0 L 73.0 46.0 L 68.0 50.0 L 68.0 140.0 L 56.0 146.0 L 56.0 134.0 L 30.0 134.0 L 30.0 146.0 L 18.0 152.0 L 18.0 36.0 Z M 30.0 46.0 L 30.0 130.0 L 56.0 130.0 L 56.0 46.0 Z " />
</g>
</svg>
