<svg xmlns="http://www.w3.org/2000/svg" xmlns:xlink="http://www.w3.org/1999/xlink" version="1.1" baseProfile="full" viewBox="0 0 200 200" width="200" height="200">
<g fill="black">
<path d="M 147.0 174.0 L 159.0 174.0 L 160.2 173.9 L 161.1 173.7 L 162.0 173.4 L 162.4 173.0 L 162.7 172.1 L 162.9 171.2 L 163.0 170.0 L 163.0 154.0 L 120.0 154.0 L 120.0 182.0 L 108.0 188.0 L 108.0 98.0 L 120.0 104.0 L 163.0 104.0 L 169.0 99.0 L 180.0 108.0 L 175.0 112.0 L 175.0 170.0 L 174.8 172.5 L 174.4 175.0 L 173.6 177.4 L 172.3 179.7 L 170.7 181.7 L 168.7 183.3 L 166.4 184.6 L 164.0 185.4 L 161.5 185.8 L 159.0 186.0 L 159.0 180.0 L 147.0 177.0 Z M 62.0 174.0 L 74.0 174.0 L 75.2 173.9 L 76.1 173.7 L 77.0 173.4 L 77.4 173.0 L 77.7 172.1 L 77.9 171.2 L 78.0 170.0 L 78.0 154.0 L 35.0 154.0 L 35.0 182.0 L 23.0 188.0 L 23.0 98.0 L 35.0 104.0 L 78.0 104.0 L 84.0 99.0 L 95.0 108.0 L 90.0 112.0 L 90.0 170.0 L 89.8 172.5 L 89.4 175.0 L 88.6 177.4 L 87.3 179.7 L 85.7 181.7 L 83.7 183.3 L 81.4 184.6 L 79.0 185.4 L 76.5 185.8 L 74.0 186.0 L 74.0 180.0 L 62.0 177.0 Z M 120.0 131.0 L 120.0 150.0 L 163.0 150.0 L 163.0 131.0 Z M 35.0 131.0 L 35.0 150.0 L 78.0 150.0 L 78.0 131.0 Z M 120.0 108.0 L 120.0 127.0 L 163.0 127.0 L 163.0 108.0 Z M 35.0 108.0 L 35.0 127.0 L 78.0 127.0 L 78.0 108.0 Z M 120.0 91.0 L 108.0 97.0 L 108.0 61.9 L 107.0 62.9 L 102.4 66.5 L 97.5 69.6 L 96.4 68.3 L 103.0 59.3 L 106.1 54.6 L 108.0 51.49666662216187 L 108.0 49.0 L 109.16541357040406 49.58270673751831 L 112.0 44.5 L 114.7 39.0 L 117.3 33.2 L 119.7 27.1 L 121.9 20.7 L 123.60139303207397 15.000333404541015 L 123.6 15.0 L 123.6222222328186 14.930555534362792 L 123.9 14.0 L 123.91807231903076 14.006024074554443 L 124.4 12.5 L 135.3 17.8 L 137.5 20.6 L 133.84671812057496 21.433204650878906 L 132.5 24.8 L 130.1 30.0 L 151.0 30.0 L 151.51683168411256 29.569306945800783 L 151.8 28.9 L 152.10397272109986 29.080022716522215 L 157.0 25.0 L 168.0 34.0 L 163.0 37.0 L 159.22580642700194 38.572580623626706 L 158.5 39.5 L 156.6 41.7 L 154.7 44.0 L 152.6 46.2 L 150.6 48.5 L 146.2 52.9 L 143.90909090042115 55.0 L 168.0 55.0 L 174.0 50.0 L 185.0 59.0 L 180.0 63.0 L 180.0 90.0 L 168.0 96.0 L 168.0 88.0 L 120.0 88.0 Z M 35.0 91.0 L 23.0 97.0 L 23.0 61.725581359863284 L 21.9 62.8 L 17.4 66.5 L 12.5 69.6 L 11.4 68.3 L 14.7 63.8 L 17.9 59.3 L 21.0 54.6 L 23.0 51.33333330154419 L 23.0 49.0 L 24.08244276046753 49.54122133255005 L 26.7 44.5 L 29.3 39.1 L 31.7 33.3 L 34.0 27.2 L 36.0 20.9 L 37.642142868041994 15.109285736083985 L 37.6 15.1 L 38.4 12.6 L 49.4 17.7 L 51.7 20.4 L 48.0174427986145 21.36909399032593 L 46.8 24.6 L 44.46268653869629 30.0 L 65.0 30.0 L 65.5127272605896 29.572727298736574 L 65.6 29.3 L 65.75052757263184 29.374560356140137 L 71.0 25.0 L 82.0 34.0 L 77.0 37.0 L 73.6364532470703 38.4014778137207 L 73.0 39.3 L 69.4 43.9 L 67.4 46.1 L 65.4 48.4 L 63.3 50.7 L 61.1 52.9 L 58.90454549789429 55.0 L 82.0 55.0 L 88.0 50.0 L 99.0 59.0 L 94.0 63.0 L 94.0 90.0 L 82.0 96.0 L 82.0 88.0 L 35.0 88.0 Z M 120.0 59.0 L 120.0 84.0 L 138.0 84.0 L 138.0 59.0 Z M 150.0 59.0 L 150.0 84.0 L 168.0 84.0 L 168.0 59.0 Z M 35.0 59.0 L 35.0 84.0 L 53.0 84.0 L 53.0 59.0 Z M 65.0 59.0 L 65.0 84.0 L 82.0 84.0 L 82.0 59.0 Z M 128.12857141494752 34.0 L 126.3 37.6 L 122.9 43.4 L 119.2 48.9 L 116.10571432113647 53.052857112884524 L 120.0 55.0 L 140.95 55.0 L 141.7 53.6 L 142.8 50.6 L 143.9 47.7 L 145.1 44.9 L 146.3 42.2 L 147.4 39.4 L 148.5 36.7 L 149.64230766296387 34.0 Z M 42.59354839324951 34.0 L 40.9 37.5 L 37.6 43.4 L 34.0 48.9 L 30.960000038146973 52.980000019073486 L 35.0 55.0 L 55.9 55.0 L 56.6 53.6 L 58.8 47.8 L 59.9 45.0 L 61.0 42.3 L 63.0 36.9 L 63.9 34.3 L 64.0079999923706 34.0 Z " />
</g>
</svg>
