<svg xmlns="http://www.w3.org/2000/svg" xmlns:xlink="http://www.w3.org/1999/xlink" version="1.1" baseProfile="full" viewBox="0 0 200 200" width="200" height="200">
<g fill="black">
<path d="M 48.0 132.0 L 152.0 132.0 L 158.0 127.0 L 169.0 136.0 L 164.0 140.0 L 164.0 179.0 L 152.0 185.0 L 152.0 175.0 L 48.0 175.0 L 48.0 182.0 L 36.0 188.0 L 36.0 126.0 Z M 48.0 136.0 L 48.0 171.0 L 152.0 171.0 L 152.0 136.0 Z M 132.7 115.2 L 148.7 115.2 L 149.9 115.1 L 150.8 114.9 L 151.4 114.8 L 151.7 114.6 L 152.1 114.2 L 152.3 113.9 L 152.4 113.3 L 152.6 112.4 L 152.7 111.2 L 152.7 102.7 L 75.2 102.7 L 75.2 120.6 L 63.2 126.6 L 63.2 60.5 L 75.2 66.5 L 152.7 66.5 L 158.7 61.5 L 169.7 70.5 L 164.7 74.5 L 164.7 111.2 L 164.5 113.7 L 164.1 116.2 L 163.3 118.6 L 162.1 120.9 L 160.4 122.9 L 158.4 124.6 L 156.1 125.8 L 153.7 126.6 L 151.2 127.0 L 148.7 127.2 L 148.7 121.2 L 132.7 118.2 Z M 46.4 61.8 L 45.7 70.4 L 44.4 78.6 L 42.6 86.3 L 40.3 93.5 L 37.4 100.3 L 34.0 106.5 L 30.1 112.2 L 25.6 117.3 L 20.6 121.8 L 15.1 125.5 L 13.9 124.1 L 17.9 119.1 L 21.4 114.0 L 24.6 108.6 L 27.3 103.0 L 29.5 97.1 L 31.4 90.8 L 32.8 84.1 L 33.8 77.0 L 34.3 69.4 L 34.4 61.5 L 34.4 16.7 L 46.4 22.7 L 46.4 23.24881887435913 L 54.1 22.4 L 66.7 21.2 L 79.1 20.0 L 91.3 18.9 L 103.3 17.8 L 115.2 16.7 L 126.8 15.6 L 138.3 14.4 L 149.7 13.2 L 159.8029595375061 12.016770553588866 L 159.8 12.0 L 159.81791286468507 12.01501922607422 L 160.8 11.9 L 160.89318799972534 12.916596031188964 L 172.8 22.9 L 173.3 25.9 L 168.56321563720704 23.288695812225342 L 161.9 23.9 L 150.6 24.5 L 139.2 25.1 L 127.5 25.6 L 115.7 26.0 L 103.8 26.3 L 91.7 26.5 L 79.3 26.6 L 66.9 26.5 L 54.2 26.2 L 46.4 25.834375 L 46.4 33.3 L 159.2 33.3 L 165.2 28.3 L 176.2 37.3 L 171.2 41.3 L 171.2 54.9 L 159.2 60.9 L 159.2 54.9 L 46.4 54.9 L 46.4 61.6 L 46.268852424621585 61.79672126770019 Z M 75.2 86.6 L 75.2 98.7 L 152.7 98.7 L 152.7 86.6 Z M 75.2 70.5 L 75.2 82.6 L 152.7 82.6 L 152.7 70.5 Z M 46.4 37.3 L 46.4 50.9 L 159.2 50.9 L 159.2 37.3 Z " />
</g>
</svg>
