<svg xmlns="http://www.w3.org/2000/svg" xmlns:xlink="http://www.w3.org/1999/xlink" version="1.1" baseProfile="full" viewBox="0 0 200 200" width="200" height="200">
<g fill="black">
<path d="M 48.0 132.0 L 152.0 132.0 L 158.0 127.0 L 169.0 136.0 L 164.0 140.0 L 164.0 179.0 L 152.0 185.0 L 152.0 175.0 L 48.0 175.0 L 48.0 182.0 L 36.0 188.0 L 36.0 126.0 Z M 48.0 136.0 L 48.0 171.0 L 152.0 171.0 L 152.0 136.0 Z M 175.0 93.8 L 177.0 93.8 L 175.0 110.8 L 178.0 112.8 L 180.0 115.8 L 178.0 118.8 L 175.0 120.8 L 59.5 120.8 L 57.1 120.4 L 54.8 119.8 L 52.6 118.7 L 50.6 117.2 L 48.9 115.3 L 47.6 113.1 L 46.7 110.8 L 46.2 108.3 L 46.0 105.8 L 46.0 70.6 L 58.0 72.6 L 61.0 74.6 L 58.0 76.4 L 58.0 95.85242719650269 L 61.1 95.1 L 71.3 92.7 L 81.6 90.6 L 91.8 88.4 L 102.0 86.4 L 112.3 84.3 L 122.5 82.3 L 132.6 80.2 L 142.8 78.2 L 152.9 76.1 L 153.0953133583069 77.20677585601807 L 164.2 86.4 L 164.5 89.3 L 160.11935482025146 87.10967741012573 L 155.0 88.0 L 124.1 92.2 L 113.7 93.5 L 103.4 94.7 L 93.0 95.9 L 82.6 97.0 L 72.1 98.0 L 61.6 98.8 L 58.0 99.00571432113648 L 58.0 105.8 L 57.9 107.0 L 58.0 108.0 L 58.1 108.6 L 58.2 109.1 L 58.3 109.4 L 58.5 109.7 L 58.9 110.0 L 59.6 110.3 L 60.6 110.6 L 62.0 110.8 L 170.0 110.8 Z M 120.1 54.2 L 113.5 50.0 L 106.5 45.8 L 103.417351436615 44.133703517913816 L 94.4 48.5 L 92.44465560913086 49.375831317901614 L 93.7 49.6 L 98.9 50.8 L 101.3 51.6 L 103.6 52.5 L 105.7 53.4 L 107.8 54.4 L 109.8 55.6 L 111.7 59.8 L 110.2 64.1 L 106.23333330154419 65.8 L 159.0 65.8 L 159.0 15.6 L 171.0 17.6 L 174.0 19.6 L 171.0 21.4 L 171.0 69.8 L 159.0 75.8 L 159.0 69.8 L 41.0 69.8 L 41.0 81.8 L 29.0 87.8 L 29.0 15.6 L 41.0 17.6 L 44.0 19.6 L 41.0 21.4 L 41.0 65.8 L 105.71333332061768 65.8 L 101.7 64.4 L 100.8 63.1 L 99.7 61.7 L 98.5 60.3 L 97.0 58.8 L 95.4 57.3 L 93.6 55.8 L 91.6 54.3 L 89.5 52.7 L 87.81075925827027 51.451430797576904 L 84.8 52.8 L 75.0 56.6 L 64.9 60.1 L 54.7 63.0 L 44.2 65.4 L 43.7 63.7 L 53.4 59.4 L 63.0 55.1 L 72.4 50.6 L 81.6 45.9 L 90.6 41.0 L 93.73135280609131 39.149655151367185 L 91.2 37.9 L 82.9 34.1 L 74.3 30.4 L 65.2 26.6 L 55.7 22.8 L 56.2 21.1 L 66.3 23.0 L 76.0 25.3 L 85.2 28.0 L 94.1 30.9 L 102.27093019485474 33.97611494064331 L 107.9 30.4 L 116.3 24.7 L 124.5 18.7 L 131.71580104827882 13.01755666732788 L 131.7 13.0 L 131.94827585220338 12.834482765197754 L 132.5 12.4 L 132.53364057540892 12.444239616394043 L 132.6 12.4 L 139.8 22.0 L 140.0 25.6 L 136.59278230667115 24.211874294281007 L 131.1 28.0 L 122.2 33.6 L 113.38580484390259 38.7905816078186 L 118.4 41.2 L 125.7 45.1 L 132.6 49.2 L 139.2 53.5 L 141.4 57.5 L 140.3 61.9 L 136.4 64.2 L 131.9 63.1 L 126.2 58.6 Z M 143.2 45.9 L 142.2 44.5 L 141.0 43.0 L 139.4 41.5 L 137.6 39.9 L 135.5 38.3 L 133.2 36.7 L 130.6 35.0 L 127.6 33.7 L 128.2 32.0 L 131.4 32.7 L 134.6 33.1 L 137.6 33.6 L 140.4 34.3 L 143.1 35.1 L 145.6 36.0 L 147.9 37.1 L 150.1 38.3 L 152.1 39.7 L 154.0 41.4 L 155.1 45.8 L 152.7 49.7 L 148.3 50.8 L 144.3 48.4 L 143.9 47.2 Z M 60.9 44.8 L 59.8 43.3 L 58.4 41.8 L 56.9 40.2 L 55.1 38.7 L 53.1 37.1 L 50.8 35.4 L 48.4 33.7 L 45.6 32.5 L 46.2 30.8 L 49.2 31.5 L 52.3 31.8 L 55.2 32.4 L 57.9 33.1 L 60.5 33.9 L 63.0 34.8 L 65.4 35.8 L 67.6 37.0 L 69.7 38.4 L 71.6 39.9 L 72.9 44.3 L 70.9 48.3 L 66.5 49.6 L 62.4 47.6 L 61.8 46.2 Z M 94.4 27.3 L 93.0 25.8 L 91.5 24.3 L 89.9 22.8 L 88.1 21.3 L 86.2 19.7 L 84.2 18.1 L 82.0 16.4 L 79.6 15.2 L 80.2 13.5 L 82.9 14.3 L 85.6 14.6 L 88.3 15.1 L 90.9 15.7 L 93.3 16.3 L 95.7 17.1 L 98.0 17.9 L 100.3 18.8 L 102.4 19.9 L 104.5 20.9 L 106.6 25.0 L 105.3 29.4 L 101.2 31.5 L 96.8 30.2 L 95.7 28.7 Z " />
</g>
</svg>
