<svg xmlns="http://www.w3.org/2000/svg" xmlns:xlink="http://www.w3.org/1999/xlink" version="1.1" baseProfile="full" viewBox="0 0 200 200" width="200" height="200">
<g fill="black">
<path d="M 46.0 131.0 L 150.0 131.0 L 156.0 126.0 L 167.0 135.0 L 162.0 139.0 L 162.0 175.0 L 150.0 181.0 L 150.0 169.0 L 46.0 169.0 L 46.0 181.0 L 34.0 187.0 L 34.0 125.0 Z M 46.0 135.0 L 46.0 165.0 L 150.0 165.0 L 150.0 135.0 Z M 19.0 111.9 L 93.5 111.9 L 93.5 86.5 L 31.2 86.5 L 31.2 82.5 L 149.51818180084229 82.5 L 157.7 73.5 L 167.7 82.5 L 167.7 86.5 L 105.5 86.5 L 105.5 111.9 L 161.71818180084227 111.9 L 169.9 102.9 L 179.9 111.9 L 179.9 115.9 L 19.0 115.9 Z M 45.3 22.9 L 79.3 22.9 L 85.3 17.9 L 96.3 26.9 L 91.3 30.9 L 91.3 64.9 L 79.3 70.9 L 79.3 62.9 L 45.3 62.9 L 45.3 65.9 L 33.3 71.9 L 33.3 16.9 Z M 119.6 22.9 L 153.6 22.9 L 159.6 17.9 L 170.6 26.9 L 165.6 30.9 L 165.6 64.9 L 153.6 70.9 L 153.6 62.9 L 119.6 62.9 L 119.6 65.9 L 107.6 71.9 L 107.6 16.9 Z M 119.6 26.9 L 119.6 58.9 L 153.6 58.9 L 153.6 26.9 Z M 45.3 26.9 L 45.3 58.9 L 79.3 58.9 L 79.3 26.9 Z " />
</g>
</svg>
