<svg xmlns="http://www.w3.org/2000/svg" xmlns:xlink="http://www.w3.org/1999/xlink" version="1.1" baseProfile="full" viewBox="0 0 200 200" width="200" height="200">
<g fill="black">
<path d="M 158.4 165.6 L 149.9 160.7 L 141.9 155.4 L 134.3 149.7 L 127.3 143.5 L 120.7 136.9 L 114.7 129.8 L 109.4 122.3 L 105.50626926422119 115.52829437255859 L 105.9 182.9 L 94.0 189.0 L 93.57199144363403 125.96600999832154 L 88.4 132.0 L 81.2 139.2 L 73.4 145.8 L 65.0 151.9 L 56.0 157.4 L 46.4 162.5 L 36.3 166.9 L 25.6 170.7 L 14.2 173.8 L 13.7 172.1 L 24.1 167.2 L 34.0 162.0 L 43.3 156.7 L 51.9 151.0 L 59.9 145.0 L 67.3 138.7 L 74.1 132.0 L 80.3 124.9 L 85.9 117.5 L 87.45555553436279 115.0 L 18.0 115.0 L 18.0 111.0 L 93.470370388031 111.0 L 93.24358024597169 77.6 L 60.0 77.6 L 60.0 89.6 L 48.0 95.6 L 48.0 20.4 L 60.0 26.4 L 140.0 26.4 L 146.0 21.4 L 157.0 30.4 L 152.0 34.4 L 152.0 83.6 L 140.0 89.6 L 140.0 77.6 L 105.28461036682128 77.6 L 105.47980518341065 111.0 L 160.0 111.0 L 170.0 101.0 L 182.0 111.0 L 182.0 115.0 L 108.0446153640747 115.0 L 112.6 119.7 L 119.1 125.8 L 125.7 131.6 L 132.6 137.1 L 139.9 142.1 L 147.4 146.8 L 155.3 151.1 L 163.6 155.0 L 172.2 158.6 L 181.2 161.7 L 188.3 164.3 L 176.7 174.2 L 167.3 170.1 Z M 60.0 30.4 L 60.0 73.6 L 93.21641979217529 73.6 L 92.92308645248413 30.4 Z M 107.25 30.4 L 108.0 30.9 L 105.01865768432617 32.09253692626953 L 105.26123380661011 73.6 L 140.0 73.6 L 140.0 30.4 Z " />
</g>
</svg>
