<svg xmlns="http://www.w3.org/2000/svg" xmlns:xlink="http://www.w3.org/1999/xlink" version="1.1" baseProfile="full" viewBox="0 0 200 200" width="200" height="200">
<g fill="black">
<path d="M 48.0 132.0 L 152.0 132.0 L 158.0 127.0 L 169.0 136.0 L 164.0 140.0 L 164.0 179.0 L 152.0 185.0 L 152.0 175.0 L 48.0 175.0 L 48.0 182.0 L 36.0 188.0 L 36.0 126.0 Z M 48.0 136.0 L 48.0 171.0 L 152.0 171.0 L 152.0 136.0 Z M 165.8 124.2 L 159.2 120.9 L 153.1 117.1 L 147.6 112.9 L 143.27272729873658 108.82727270126342 L 140.0 112.9 L 134.7 117.8 L 128.6 121.8 L 121.7 125.1 L 114.1 127.4 L 105.8 128.9 L 105.4 127.2 L 112.8 123.8 L 119.4 120.2 L 125.0 116.3 L 129.6 112.1 L 133.5 107.5 L 136.5 102.5 L 136.9949999809265 101.28500003814698 L 134.2 97.2 L 131.1 91.1 L 128.8 84.4 L 130.4 83.6 L 134.7 88.9 L 139.0 93.7 L 139.46243352890014 94.15192365646362 L 140.2 91.3 L 141.0 84.9 L 141.0628571510315 80.5 L 126.3 80.5 L 115.3 86.0 L 115.3 33.4 L 126.3 38.9 L 141.1 38.9 L 141.1 25.8 L 113.9 25.8 L 113.9 24.1 L 110.8 31.2 L 107.5 38.2 L 104.0 45.0 L 100.4 51.6 L 99.92439947128295 52.413527202606204 L 103.7 53.1 L 106.5 55.1 L 103.7 56.85 L 103.7 124.0 L 92.7 129.5 L 92.7 64.14499998092651 L 92.6 64.3 L 88.4 70.4 L 83.9 76.2 L 79.2 81.7 L 77.7 80.7 L 80.7 74.1 L 83.8 67.6 L 86.8 61.1 L 89.8 54.5 L 95.6 41.1 L 98.2 34.2 L 100.8 27.2 L 103.3 20.0 L 105.31151685714721 13.703077793121338 L 105.3 13.7 L 106.1 11.3 L 116.9 16.8 L 119.1 19.7 L 115.4160532951355 20.410937118530274 L 114.8452054977417 21.8 L 161.8 21.8 L 171.8 11.8 L 183.8 21.8 L 183.8 25.8 L 153.1 25.8 L 153.1 38.9 L 167.4 38.9 L 173.4 33.9 L 184.4 42.9 L 179.4 46.9 L 179.4 86.5 L 167.4 92.5 L 167.4 80.5 L 152.87804880142212 80.5 L 152.4 86.1 L 150.7 93.8 L 148.0 100.9 L 147.6550422668457 101.53077974319459 L 148.1 101.9 L 153.1 105.4 L 158.4 108.4 L 164.0 111.0 L 170.0 113.2 L 176.4 114.9 L 183.1 116.3 L 192.1 118.2 L 180.3 129.2 L 172.8 126.9 Z M 67.4 14.9 L 70.4 16.9 L 67.4 18.7 L 67.4 28.4 L 69.0 28.4 L 73.5 22.4 L 79.5 28.4 L 79.5 32.4 L 67.4 32.4 L 67.4 46.9 L 55.4 52.9 L 55.4 46.9 L 51.5 46.9 L 51.5 60.4 L 64.6 60.4 L 70.1 55.4 L 80.6 64.4 L 75.6 67.9 L 75.6 85.4 L 64.6 90.9 L 64.6 85.4 L 51.5 85.4 L 51.5 97.7 L 62.11818180084229 97.7 L 70.3 88.7 L 80.3 97.7 L 80.3 101.7 L 51.5 101.7 L 51.5 123.6 L 41.5 128.6 L 41.5 101.7 L 11.9 101.7 L 11.9 97.7 L 41.5 97.7 L 41.5 85.4 L 29.2 85.4 L 18.2 90.9 L 18.2 54.9 L 29.2 60.4 L 41.5 60.4 L 41.5 46.9 L 36.8 46.9 L 24.8 52.9 L 24.8 32.4 L 13.5 32.4 L 13.5 28.4 L 24.8 28.4 L 24.8 12.9 L 36.8 14.9 L 39.8 16.9 L 36.8 18.7 L 36.8 28.4 L 55.4 28.4 L 55.4 12.9 Z M 29.2 64.4 L 29.2 81.4 L 41.5 81.4 L 41.5 64.4 Z M 51.5 64.4 L 51.5 81.4 L 64.6 81.4 L 64.6 64.4 Z M 126.3 61.4 L 126.3 76.5 L 141.1 76.5 L 141.1 61.4 Z M 153.1 61.4 L 153.1 76.5 L 167.4 76.5 L 167.4 61.4 Z M 126.3 42.9 L 126.3 57.4 L 141.1 57.4 L 141.1 42.9 Z M 153.1 42.9 L 153.1 57.4 L 167.4 57.4 L 167.4 42.9 Z M 36.8 32.4 L 36.8 42.9 L 55.4 42.9 L 55.4 32.4 Z " />
</g>
</svg>
