<svg xmlns="http://www.w3.org/2000/svg" xmlns:xlink="http://www.w3.org/1999/xlink" version="1.1" baseProfile="full" viewBox="0 0 200 200" width="200" height="200">
<g fill="black">
<path d="M 182.0 153.0 L 184.0 153.0 L 182.0 178.0 L 185.6 180.4 L 188.0 184.0 L 185.6 187.6 L 182.0 190.0 L 116.0 190.0 L 113.4 189.8 L 110.9 189.4 L 108.5 188.6 L 106.2 187.3 L 104.2 185.7 L 102.6 183.7 L 101.3 181.4 L 100.5 179.0 L 100.1 176.5 L 100.0 174.0 L 100.0 151.2 L 83.12727270126342 151.2 L 86.8 153.6 L 88.6 156.8 L 84.48664579391479 157.00915365219117 L 83.0 159.2 L 78.3 164.4 L 72.8 169.1 L 66.5 173.3 L 59.4 177.1 L 51.5 180.5 L 42.9 183.6 L 33.5 186.1 L 23.2 188.2 L 12.1 189.8 L 11.8 188.1 L 22.2 184.6 L 31.9 181.0 L 40.6 177.4 L 48.4 173.6 L 55.3 169.7 L 61.3 165.6 L 66.3 161.4 L 70.5 157.0 L 73.7 152.6 L 74.4777777671814 151.2 L 49.0 151.2 L 49.0 163.2 L 37.0 169.2 L 37.0 106.8 L 49.0 112.8 L 150.9 112.8 L 156.9 107.8 L 167.9 116.8 L 162.9 120.8 L 162.9 157.2 L 150.9 163.2 L 150.9 151.2 L 112.3 151.2 L 115.0 153.0 L 112.0 154.8 L 112.0 175.2 L 112.2 176.1 L 112.5 177.0 L 112.9 177.4 L 113.8 177.7 L 114.7 177.9 L 116.0 178.0 L 176.0 178.0 Z M 49.0 133.7 L 49.0 147.2 L 76.6 147.2 L 76.7 147.0 L 77.00606060028076 147.2 L 94.0 147.2 L 94.0 133.7 Z M 106.0 133.7 L 106.0 147.2 L 150.9 147.2 L 150.9 133.7 Z M 49.0 116.8 L 49.0 129.7 L 94.0 129.7 L 94.0 116.8 Z M 106.0 116.8 L 106.0 129.7 L 150.9 129.7 L 150.9 116.8 Z M 78.3 18.2 L 79.48787879943848 21.0 L 115.72857141494751 21.0 L 117.7 18.7 L 118.18181819915772 19.181818199157714 L 122.0 16.0 L 133.0 25.0 L 128.0 28.0 L 122.36521739959717 30.347826099395753 L 120.3 32.0 L 117.81999998092651 34.0 L 145.0 34.0 L 151.0 29.0 L 162.0 38.0 L 157.0 42.0 L 157.0 55.0 L 145.0 61.0 L 145.0 55.0 L 123.79137935638428 55.0 L 133.2 60.1 L 135.2 63.0 L 131.37477512359618 63.67109203338623 L 131.20666666030883 64.0 L 152.0 64.0 L 152.4827067375183 63.597744369506835 L 152.6 63.3 L 152.75052757263182 63.37456035614014 L 158.0 59.0 L 169.0 68.0 L 164.0 71.0 L 161.04615383148194 72.2307692527771 L 159.4 74.7 L 157.5 77.7 L 156.63333330154418 79.0 L 168.0 79.0 L 174.0 74.0 L 185.0 83.0 L 180.0 87.0 L 180.0 99.0 L 168.0 105.0 L 168.0 99.0 L 123.0 99.0 L 111.0 105.0 L 111.0 87.12631578445435 L 108.7 88.7 L 104.6 90.8 L 100.4 92.7 L 99.5 91.2 L 102.7 88.1 L 105.6 84.8 L 108.3 81.6 L 110.8 78.3 L 111.0 78.00833330154418 L 111.0 73.0 L 113.52307691574097 74.2615385055542 L 115.3 71.3 L 117.3 67.6 L 119.0 63.8 L 120.6 59.8 L 121.6840259552002 56.625352668762204 L 121.6 56.6 L 122.22608699798585 55.0 L 61.0 55.0 L 49.610256385803225 60.69487180709839 L 51.2 63.0 L 47.374775123596194 63.67109203338623 L 47.20666666030884 64.0 L 66.0 64.0 L 66.67397260665894 63.43835620880127 L 67.0 62.6 L 67.37525081634521 62.853957653045654 L 72.0 59.0 L 83.0 68.0 L 78.0 71.0 L 73.55744676589966 72.85106382369995 L 73.1 73.4 L 71.5 75.5 L 69.6 78.0 L 68.88571424484253 79.0 L 84.0 79.0 L 90.0 74.0 L 101.0 83.0 L 96.0 87.0 L 96.0 99.0 L 84.0 105.0 L 84.0 99.0 L 39.0 99.0 L 27.0 105.0 L 27.0 87.12631578445435 L 24.7 88.7 L 20.6 90.8 L 16.4 92.7 L 15.5 91.2 L 18.7 88.1 L 21.6 84.8 L 24.3 81.6 L 26.8 78.3 L 27.0 78.00833330154418 L 27.0 73.0 L 29.523076915740965 74.2615385055542 L 31.3 71.3 L 33.3 67.6 L 35.0 63.8 L 36.6 59.8 L 37.6840259552002 56.625352668762204 L 37.6 56.6 L 38.5 54.3 L 49.0 59.99158878326416 L 49.0 41.85 L 46.2 43.3 L 40.3 45.8 L 34.0 48.0 L 27.3 49.8 L 26.6 48.1 L 32.4 44.5 L 37.8 41.0 L 42.9 37.6 L 47.7 34.1 L 49.0 33.01162786483765 L 49.0 28.0 L 52.71304349899292 29.856521701812746 L 56.1 26.8 L 59.7 23.1 L 63.0 19.3 L 65.9 15.4 L 68.4 11.4 L 68.42286376953125 11.415704345703125 L 68.9 10.7 Z M 123.0 83.0 L 123.0 95.0 L 141.90882349014282 95.0 L 142.2 94.1 L 144.2 87.1 L 145.3 83.6 L 145.49411764144898 83.0 Z M 153.9666666984558 83.0 L 153.5 83.7 L 151.4 86.7 L 149.3 89.6 L 145.20344829559326 95.0 L 168.0 95.0 L 168.0 83.0 Z M 39.0 83.0 L 39.0 95.0 L 57.07142858505249 95.0 L 56.1 94.6 L 57.8 89.9 L 59.1 85.5 L 59.89268293380737 83.0 Z M 66.03870964050293 83.0 L 65.4 83.9 L 63.0 87.4 L 60.3 91.1 L 57.97857141494751 95.0 L 84.0 95.0 L 84.0 83.0 Z M 128.87619047164918 68.0 L 128.4 68.8 L 125.7 72.8 L 122.7 76.5 L 121.22549018859863 78.11274509429931 L 123.0 79.0 L 146.8235294342041 79.0 L 148.8 73.4 L 150.1 70.0 L 150.80588235855103 68.0 Z M 44.87619047164917 68.0 L 44.4 68.8 L 41.7 72.8 L 38.7 76.5 L 37.225490188598634 78.11274509429931 L 39.0 79.0 L 61.2 79.0 L 61.6 77.8 L 62.8 74.4 L 63.8 71.4 L 64.7 68.8 L 65.0 68.0 Z M 61.0 38.0 L 61.0 51.0 L 91.99230766296387 51.0 L 91.4 50.3 L 97.0 43.3 L 99.8 39.9 L 101.403125 38.0 Z M 112.54799995422363 38.0 L 110.7 39.4 L 107.3 41.9 L 103.8 44.4 L 100.2 46.8 L 96.4 49.2 L 93.475 51.0 L 145.0 51.0 L 145.0 38.0 Z M 72.3625 25.0 L 70.9 26.5 L 66.6 30.4 L 62.0 34.0 L 104.778125 34.0 L 105.2 33.5 L 107.8 30.4 L 110.4 27.4 L 112.4 25.0 Z " />
</g>
</svg>
