<svg xmlns="http://www.w3.org/2000/svg" xmlns:xlink="http://www.w3.org/1999/xlink" version="1.1" baseProfile="full" viewBox="0 0 200 200" width="200" height="200">
<g fill="black">
<path d="M 181.0 146.0 L 183.0 146.0 L 181.0 171.0 L 184.6 173.4 L 187.0 177.0 L 184.6 180.6 L 181.0 183.0 L 128.0 183.0 L 125.4 182.8 L 122.9 182.4 L 120.5 181.6 L 118.2 180.3 L 116.2 178.7 L 114.6 176.7 L 113.3 174.4 L 112.5 172.0 L 112.1 169.5 L 112.0 167.0 L 112.0 115.0 L 73.76666669845581 115.0 L 73.1 116.0 L 68.9 122.1 L 64.2 127.8 L 61.241509437561035 131.0 L 88.0 131.0 L 88.35234899520874 130.70637588500978 L 88.5 130.4 L 88.64089307785034 130.46592245101928 L 94.0 126.0 L 105.0 135.0 L 100.0 138.0 L 97.36000003814698 139.1 L 94.3 144.5 L 88.3 152.8 L 81.6 160.2 L 74.1 166.9 L 65.9 172.7 L 56.9 177.7 L 47.2 181.8 L 36.9 185.1 L 25.8 187.4 L 14.1 188.8 L 13.8 187.1 L 24.9 183.8 L 35.2 180.0 L 44.6 175.8 L 53.2 171.0 L 61.0 165.7 L 68.0 159.8 L 74.3 153.4 L 79.7 146.3 L 84.5 138.7 L 86.28313255310059 135.0 L 57.28823528289795 135.0 L 53.9 138.2 L 48.2 142.9 L 47.63409090042114 143.31499996185303 L 50.1 144.4 L 52.5 145.6 L 54.7 146.9 L 56.7 148.2 L 58.6 149.5 L 60.4 150.9 L 62.1 152.4 L 63.6 154.0 L 65.0 155.6 L 65.2 160.1 L 62.3 163.6 L 57.7 163.9 L 54.2 161.0 L 54.0 159.6 L 53.6 158.2 L 53.1 156.6 L 52.3 154.9 L 51.4 153.2 L 50.4 151.3 L 49.1 149.3 L 47.7 147.3 L 46.2 145.1 L 45.751020431518555 144.69591836929322 L 42.2 147.3 L 35.8 151.3 L 29.0 154.9 L 21.9 158.1 L 14.3 160.8 L 13.6 159.1 L 20.1 154.7 L 26.2 150.3 L 32.1 145.9 L 37.6 141.3 L 42.7 136.5 L 47.4 131.6 L 51.8 126.4 L 55.8 121.1 L 59.5 115.6 L 59.846153831481935 115.0 L 38.0 115.0 L 38.0 111.0 L 137.8181818008423 111.0 L 146.0 102.0 L 156.0 111.0 L 156.0 115.0 L 124.0 115.0 L 124.0 144.43802814483644 L 124.8 144.1 L 131.4 141.5 L 137.6 139.0 L 143.2 136.7 L 148.4 134.6 L 153.0 132.5 L 157.1 130.5 L 160.7 128.6 L 163.7 126.9 L 165.26372795104982 125.79235935211182 L 165.2 125.7 L 165.27995595932006 125.7808645248413 L 166.1 125.2 L 168.00923080444335 128.54115381240845 L 174.0 134.6 L 174.1 137.9 L 170.43759212493896 136.38452091217042 L 168.7 137.1 L 165.0 138.5 L 160.8 139.8 L 156.2 141.2 L 151.1 142.6 L 145.5 144.0 L 139.5 145.3 L 132.9 146.6 L 125.8 147.8 L 124.0 148.0368420600891 L 124.0 168.2 L 124.2 169.1 L 124.5 170.0 L 124.9 170.4 L 125.8 170.7 L 126.7 170.9 L 128.0 171.0 L 175.0 171.0 Z M 122.0 62.8 L 162.0 62.8 L 168.0 57.8 L 179.0 66.8 L 174.0 70.8 L 174.0 95.7 L 162.0 101.7 L 162.0 91.7 L 122.0 91.7 L 122.0 94.7 L 110.0 100.7 L 110.0 56.8 Z M 38.0 62.8 L 78.0 62.8 L 84.0 57.8 L 95.0 66.8 L 90.0 70.8 L 90.0 93.7 L 78.0 99.7 L 78.0 91.7 L 38.0 91.7 L 38.0 94.7 L 26.0 100.7 L 26.0 56.8 Z M 122.0 66.8 L 122.0 87.7 L 162.0 87.7 L 162.0 66.8 Z M 38.0 66.8 L 38.0 87.7 L 78.0 87.7 L 78.0 66.8 Z M 180.0 33.3 L 182.0 33.3 L 180.0 46.3 L 182.7 48.1 L 184.5 50.8 L 182.7 53.5 L 180.0 55.3 L 139.5 55.3 L 137.2 55.1 L 134.9 54.4 L 132.7 53.4 L 130.7 52.0 L 129.1 50.2 L 127.7 48.1 L 126.8 45.8 L 126.2 43.3 L 126.0 40.8 L 126.0 27.6 L 85.31803274154663 27.6 L 84.7 30.5 L 81.6 35.8 L 77.1 40.1 L 71.4 43.7 L 64.6 46.7 L 56.6 49.2 L 47.4 51.2 L 36.9 52.8 L 25.1 54.0 L 12.0 54.5 L 11.9 52.8 L 24.6 50.2 L 35.9 47.6 L 45.9 44.8 L 54.3 41.9 L 61.3 38.9 L 66.7 35.7 L 70.6 32.5 L 72.9 29.6 L 73.64074077606202 27.6 L 25.0 27.6 L 25.0 23.6 L 74.0 23.6 L 74.0 12.8 L 86.0 14.8 L 89.0 16.8 L 86.0 18.6 L 86.0 23.6 L 126.0 23.6 L 132.0 18.6 L 143.0 27.6 L 138.0 31.6 L 138.0 40.8 L 137.9 42.1 L 137.9 43.0 L 138.0 43.7 L 138.0 44.2 L 138.4 45.0 L 138.8 45.4 L 139.5 45.7 L 140.6 46.1 L 142.0 46.3 L 175.5 46.3 Z " />
</g>
</svg>
