<svg xmlns="http://www.w3.org/2000/svg" xmlns:xlink="http://www.w3.org/1999/xlink" version="1.1" baseProfile="full" viewBox="0 0 200 200" width="200" height="200">
<g fill="black">
<path d="M 127.0 91.5 L 164.9 91.5 L 170.9 86.5 L 181.9 95.5 L 176.9 99.5 L 176.9 178.3 L 164.9 184.3 L 164.9 174.3 L 127.0 174.3 L 127.0 181.3 L 115.0 187.3 L 115.0 85.5 Z M 18.0 100.9 L 18.0 96.9 L 47.0 96.9 L 47.0 71.5 L 59.0 73.5 L 62.0 75.5 L 59.0 77.3 L 59.0 96.9 L 85.0 96.9 L 91.0 91.9 L 102.0 100.9 L 97.02444791793823 103.88533124923705 L 97.2 111.2 L 97.3 122.6 L 97.1 133.0 L 96.6 142.3 L 95.9 150.6 L 95.0 157.8 L 93.7 164.1 L 92.1 169.5 L 90.1 174.0 L 87.3 177.9 L 85.5 179.5 L 83.6 181.0 L 81.7 182.4 L 79.6 183.5 L 77.5 184.5 L 75.3 185.3 L 73.0 186.0 L 70.7 186.4 L 68.4 186.7 L 66.0 186.8 L 66.0 180.8 L 48.0 177.8 L 48.0 174.8 L 66.0 174.8 L 67.5 174.7 L 70.3 174.3 L 71.6 173.9 L 72.9 173.4 L 74.1 172.9 L 75.3 172.2 L 76.5 171.4 L 77.6 170.5 L 78.7 169.4 L 79.6 168.1 L 80.9 165.4 L 82.1 161.3 L 83.1 155.9 L 84.0 149.3 L 84.6 141.5 L 85.1 132.6 L 85.3 122.6 L 85.2 111.4 L 85.15827722549439 108.83405113220215 L 85.0 108.9 L 85.0 100.9 L 59.0 100.9 L 59.0 104.2 L 58.2 116.3 L 56.7 127.7 L 54.2 138.3 L 50.9 148.0 L 46.8 156.9 L 41.7 164.9 L 35.9 171.9 L 29.2 178.0 L 21.6 183.0 L 13.4 186.8 L 12.5 185.2 L 19.5 179.9 L 25.5 174.0 L 30.8 167.7 L 35.4 160.7 L 39.1 153.1 L 42.2 144.9 L 44.5 135.9 L 46.0 126.1 L 46.9 115.5 L 47.0 104.2 L 47.0 100.9 Z M 127.0 95.5 L 127.0 170.3 L 164.9 170.3 L 164.9 95.5 Z M 158.9093632698059 14.681647968292236 L 169.1 23.1 L 169.5 26.2 L 165.1353433609009 24.07829189300537 L 161.4 25.0 L 150.5 27.2 L 139.5 29.3 L 128.3 31.2 L 116.9 32.9 L 105.4 34.4 L 93.7 35.8 L 81.8 37.0 L 69.7 37.9 L 59.34150943756104 38.49433965682984 L 56.00735425949097 39.37174892425537 L 55.0 42.1 L 52.3 48.3 L 49.3 54.3 L 46.0 60.1 L 42.5 65.6 L 38.8 70.8 L 34.7 75.8 L 30.3 80.4 L 25.6 84.7 L 20.6 88.6 L 19.3 87.3 L 22.8 82.2 L 26.2 77.1 L 29.4 71.9 L 32.4 66.7 L 35.2 61.3 L 37.8 55.8 L 40.2 50.1 L 42.3 44.3 L 44.2 38.3 L 45.646438407897946 33.10983867645264 L 45.6 33.1 L 46.4 30.6 L 56.06801853179932 34.994553852081296 L 57.1 34.8 L 69.1 32.6 L 80.9 30.5 L 92.6 28.3 L 104.0 26.1 L 115.3 23.7 L 126.4 21.3 L 137.3 18.8 L 148.0 16.1 L 157.61681156158448 13.65043478012085 L 157.6 13.6 L 157.65062618255615 13.641821670532227 L 158.6 13.4 Z M 163.0 70.3 L 160.9 66.5 L 158.6 62.6 L 155.9 58.7 L 152.9 54.6 L 149.6 50.5 L 146.0 46.3 L 142.2 41.9 L 138.2 37.3 L 139.3 35.9 L 144.7 39.0 L 149.6 42.3 L 154.2 45.9 L 158.4 49.5 L 162.3 53.2 L 165.9 56.9 L 169.2 60.8 L 172.2 64.7 L 174.8 68.7 L 177.2 72.7 L 177.3 77.3 L 174.2 80.7 L 169.6 80.8 L 166.2 77.7 L 164.8 74.0 Z M 99.2 68.3 L 98.3 65.2 L 97.2 62.1 L 95.9 59.0 L 94.4 55.9 L 92.6 52.8 L 90.7 49.6 L 88.6 46.4 L 86.1 43.3 L 87.3 41.9 L 90.7 44.3 L 94.0 46.6 L 97.1 49.1 L 99.9 51.9 L 102.5 54.8 L 104.9 57.8 L 107.0 61.1 L 108.9 64.4 L 110.6 67.9 L 112.0 71.6 L 111.3 76.1 L 107.7 78.9 L 103.2 78.1 L 100.4 74.5 L 99.9 71.4 Z " />
</g>
</svg>
