<svg xmlns="http://www.w3.org/2000/svg" xmlns:xlink="http://www.w3.org/1999/xlink" version="1.1" baseProfile="full" viewBox="0 0 200 200" width="200" height="200">
<g fill="black">
<path d="M 71.0 176.5 L 85.0 176.5 L 86.0 176.4 L 86.7 176.3 L 87.3 176.0 L 87.5 175.8 L 87.6 175.6 L 87.9 175.1 L 88.1 174.4 L 88.2 173.3 L 88.3 172.0 L 88.3 121.0 L 27.9 121.0 L 27.9 183.2 L 16.9 188.7 L 16.9 111.5 L 27.9 117.0 L 88.3 117.0 L 93.8 112.0 L 104.3 121.0 L 99.3 124.5 L 99.3 172.0 L 99.2 174.4 L 98.8 176.7 L 98.2 179.0 L 97.1 181.1 L 95.7 183.1 L 94.0 184.7 L 91.9 186.0 L 89.7 186.8 L 87.4 187.3 L 85.0 187.5 L 85.0 182.0 L 71.0 179.2 Z M 183.1 145.0 L 185.1 145.0 L 183.1 170.0 L 186.7 172.4 L 189.1 176.0 L 186.7 179.6 L 183.1 182.0 L 162.6 182.0 L 160.0 181.8 L 157.5 181.4 L 155.1 180.6 L 152.8 179.3 L 150.8 177.7 L 149.2 175.7 L 147.9 173.4 L 147.1 171.0 L 146.7 168.5 L 146.6 166.0 L 146.6 121.01296300888062 L 141.3 137.6 L 134.8 152.2 L 127.1 164.4 L 118.4 174.2 L 108.6 181.4 L 98.0 185.8 L 97.3 184.1 L 106.5 178.2 L 114.6 170.5 L 121.7 160.8 L 127.9 148.9 L 133.3 134.8 L 137.7 118.4 L 141.2 99.8 L 141.89047622680664 94.0 L 126.3910969734192 94.0 L 125.0 106.5 L 112.4 111.2 L 120.3 40.3 L 132.0 43.6 L 134.8 45.9 L 131.62159757614137 47.00021619796753 L 126.83624801635742 90.0 L 142.36666669845582 90.0 L 143.7 78.8 L 145.3 55.5 L 145.76078433990477 32.0 L 116.4 32.0 L 116.4 28.0 L 161.1 28.0 L 171.1 18.0 L 183.1 28.0 L 183.1 32.0 L 157.80038318634033 32.0 L 156.6 56.1 L 154.4 79.9 L 152.84976739883422 90.0 L 164.6 90.0 L 174.6 80.0 L 186.6 90.0 L 186.6 94.0 L 152.23581399917603 94.0 L 151.1 101.4 L 150.80349416732787 102.70058240890503 L 158.6 104.0 L 161.6 106.0 L 158.6 107.8 L 158.6 167.2 L 158.8 168.1 L 159.1 169.0 L 159.5 169.4 L 160.4 169.7 L 161.3 169.9 L 162.6 170.0 L 177.1 170.0 Z M 48.2 134.0 L 68.0 134.0 L 73.5 129.0 L 84.0 138.0 L 79.0 141.5 L 79.0 167.9 L 68.0 173.4 L 68.0 163.9 L 48.2 163.9 L 48.2 170.9 L 37.2 176.4 L 37.2 128.5 Z M 48.2 138.0 L 48.2 159.9 L 68.0 159.9 L 68.0 138.0 Z M 88.6 75.9 L 86.4 73.2 L 83.9 70.4 L 81.2 67.7 L 78.1 64.9 L 74.9 62.1 L 71.4 59.2 L 67.7 56.2 L 64.76666669845581 54.0 L 53.492405033111574 54.0 L 53.2 54.7 L 49.5 62.1 L 45.4 69.1 L 43.137288093566895 72.41864404678344 L 46.3 74.0 L 69.8 74.0 L 75.8 69.0 L 86.8 78.0 L 81.8 82.0 L 81.8 103.9 L 69.8 109.9 L 69.8 103.9 L 46.3 103.9 L 34.3 109.9 L 34.3 83.86981134414673 L 30.8 87.7 L 25.2 92.9 L 19.2 97.6 L 12.7 101.7 L 11.6 100.2 L 16.7 94.8 L 21.4 89.2 L 25.9 83.4 L 30.0 77.4 L 33.8 71.1 L 34.3 70.1714285850525 L 34.3 68.0 L 35.22121210098267 68.46060609817505 L 37.3 64.6 L 40.4 57.7 L 41.911267566680905 54.0 L 13.2 54.0 L 13.2 50.0 L 43.5 50.0 L 45.8 43.1 L 47.664572143554686 36.404490852355956 L 40.6 37.3 L 33.4 37.9 L 26.0 38.1 L 18.4 37.8 L 18.2 36.1 L 25.5 34.3 L 32.6 32.6 L 39.4 30.9 L 46.1 29.0 L 52.4 27.0 L 58.6 24.8 L 64.5 22.4 L 70.2 19.8 L 75.7 17.0 L 80.00091075897217 14.601415157318115 L 80.0 14.6 L 80.00126123428345 14.601219654083252 L 80.9 14.1 L 82.38011865615844 16.901653289794922 L 89.1 23.4 L 89.3 26.7 L 85.50857963562012 25.14613914489746 L 80.5 27.4 L 74.3 29.7 L 67.9 31.8 L 61.4 33.6 L 54.6 35.2 L 52.68958597183227 35.53224592208862 L 59.5 38.6 L 61.8 41.3 L 58.15499753952027 42.27633991241455 L 56.5 46.8 L 55.16329116821289 50.0 L 81.0 50.0 L 91.0 40.0 L 103.0 50.0 L 103.0 54.0 L 71.1529411315918 54.0 L 73.8 55.0 L 78.2 57.0 L 82.2 59.1 L 86.1 61.3 L 89.7 63.6 L 93.0 66.0 L 96.2 68.5 L 99.1 71.2 L 101.8 73.9 L 103.0 78.4 L 100.7 82.3 L 96.3 83.5 L 92.3 81.2 L 90.6 78.6 Z M 46.3 78.0 L 46.3 99.9 L 69.8 99.9 L 69.8 78.0 Z " />
</g>
</svg>
