<svg xmlns="http://www.w3.org/2000/svg" xmlns:xlink="http://www.w3.org/1999/xlink" version="1.1" baseProfile="full" viewBox="0 0 200 200" width="200" height="200">
<g fill="black">
<path d="M 48.0 132.0 L 152.0 132.0 L 158.0 127.0 L 169.0 136.0 L 164.0 140.0 L 164.0 179.0 L 152.0 185.0 L 152.0 175.0 L 48.0 175.0 L 48.0 182.0 L 36.0 188.0 L 36.0 126.0 Z M 48.0 136.0 L 48.0 171.0 L 152.0 171.0 L 152.0 136.0 Z M 52.0 49.1 L 148.0 49.1 L 154.0 44.1 L 165.0 53.1 L 160.0 57.1 L 160.0 114.7 L 148.0 120.7 L 148.0 112.7 L 52.0 112.7 L 52.0 115.7 L 40.0 121.7 L 40.0 43.1 Z M 52.0 92.0 L 52.0 108.7 L 148.0 108.7 L 148.0 92.0 Z M 52.0 72.6 L 52.0 88.0 L 148.0 88.0 L 148.0 72.6 Z M 52.0 53.1 L 52.0 68.6 L 148.0 68.6 L 148.0 53.1 Z M 130.0 15.8 L 133.0 17.8 L 130.0 19.6 L 130.0 28.4 L 165.0 28.4 L 175.0 18.4 L 187.0 28.4 L 187.0 32.4 L 130.0 32.4 L 130.0 42.4 L 118.0 48.4 L 118.0 13.8 Z M 82.0 15.8 L 85.0 17.8 L 82.0 19.6 L 82.0 42.4 L 70.0 48.4 L 70.0 32.4 L 13.0 32.4 L 13.0 28.4 L 70.0 28.4 L 70.0 13.8 Z " />
</g>
</svg>
