<svg xmlns="http://www.w3.org/2000/svg" xmlns:xlink="http://www.w3.org/1999/xlink" version="1.1" baseProfile="full" viewBox="0 0 200 200" width="200" height="200">
<g fill="black">
<path d="M 101.0 176.0 L 121.0 176.0 L 122.2 175.9 L 123.1 175.7 L 123.7 175.6 L 124.0 175.4 L 124.4 175.0 L 124.7 174.1 L 124.9 173.2 L 125.0 172.0 L 125.0 155.1 L 73.5 155.1 L 73.5 151.1 L 125.0 151.1 L 125.0 135.1 L 83.4 135.1 L 83.4 131.1 L 125.0 131.1 L 125.0 115.75393257141113 L 116.9 116.3 L 107.2 116.9 L 96.7 117.2 L 85.5 117.4 L 85.3 115.6 L 96.3 113.5 L 106.6 111.6 L 116.0 109.8 L 124.8 108.2 L 132.7 106.5 L 139.9 105.0 L 146.2 103.4 L 151.8 101.9 L 156.6 100.3 L 159.5216763496399 99.25119314193725 L 159.5 99.2 L 159.54908123016358 99.24135541915894 L 160.5 98.9 L 161.01043043136596 100.47267751693725 L 170.3 108.3 L 170.5 111.4 L 166.46099662780762 109.5586895942688 L 164.2 110.3 L 159.5 111.3 L 154.2 112.3 L 148.2 113.2 L 141.5 114.1 L 137.0 114.58000001907348 L 137.0 131.1 L 156.5 131.1 L 166.5 121.1 L 178.5 131.1 L 178.5 135.1 L 137.0 135.1 L 137.0 151.1 L 166.4 151.1 L 176.4 141.1 L 188.4 151.1 L 188.4 155.1 L 137.0 155.1 L 137.0 172.0 L 136.8 174.5 L 136.4 177.0 L 135.6 179.4 L 134.3 181.7 L 132.7 183.7 L 130.7 185.4 L 128.4 186.6 L 126.0 187.4 L 123.5 187.8 L 121.0 188.0 L 121.0 182.0 L 101.0 179.0 Z M 30.0 42.0 L 56.0 42.0 L 62.0 37.0 L 73.0 46.0 L 68.0 50.0 L 68.0 140.0 L 56.0 146.0 L 56.0 134.0 L 30.0 134.0 L 30.0 146.0 L 18.0 152.0 L 18.0 36.0 Z M 30.0 46.0 L 30.0 130.0 L 56.0 130.0 L 56.0 46.0 Z M 118.0 87.9 L 115.9 85.3 L 113.5 82.8 L 113.47283868789673 82.77686262130737 L 108.3 88.2 L 101.2 93.8 L 93.3 98.5 L 84.6 102.3 L 75.1 105.1 L 74.6 103.4 L 83.0 98.9 L 90.5 94.0 L 97.1 88.7 L 102.9 82.9 L 106.91618461608887 77.65437116622925 L 104.7 76.2 L 101.3 74.2 L 98.20482292175294 72.52693128585815 L 96.6 79.5 L 83.5 82.6 L 93.66964025497437 38.7 L 76.2 38.7 L 76.2 34.7 L 94.59625902175904 34.7 L 99.6 13.1 L 110.8 17.8 L 113.3 20.4 L 109.98574466705323 21.337996768951417 L 106.91053485870361 34.7 L 120.3 34.7 L 126.3 29.7 L 137.3 38.7 L 132.3 41.7 L 131.51066207885742 42.02889080047608 L 130.6 47.6 L 127.9 57.2 L 124.4 66.2 L 119.9 74.3 L 118.85297498703002 75.7348120689392 L 122.3 78.0 L 125.6 80.6 L 128.7 83.5 L 131.6 86.8 L 132.5 91.2 L 130.0 95.1 L 125.5 96.0 L 121.7 93.5 L 120.0 90.6 Z M 150.2 30.8 L 171.8 30.8 L 177.8 25.8 L 188.8 34.8 L 183.8 38.8 L 183.8 88.1 L 171.8 94.1 L 171.8 82.1 L 150.2 82.1 L 150.2 89.1 L 138.2 95.1 L 138.2 24.8 Z M 150.2 34.8 L 150.2 78.1 L 171.8 78.1 L 171.8 34.8 Z M 105.98995141983032 38.7 L 98.95314283370972 69.27542858123779 L 102.8 69.8 L 107.1 70.7 L 110.5656951904297 71.91299333572388 L 111.9 69.7 L 115.1 62.3 L 117.6 54.2 L 119.4 45.5 L 120.12340421676636 38.7 Z " />
</g>
</svg>
