<svg xmlns="http://www.w3.org/2000/svg" xmlns:xlink="http://www.w3.org/1999/xlink" version="1.1" baseProfile="full" viewBox="0 0 200 200" width="200" height="200">
<g fill="black">
<path d="M 48.0 139.5 L 152.0 139.5 L 158.0 134.5 L 169.0 143.5 L 164.0 147.5 L 164.0 180.1 L 152.0 186.1 L 152.0 178.1 L 48.0 178.1 L 48.0 181.1 L 36.0 187.1 L 36.0 133.5 Z M 48.0 143.5 L 48.0 174.1 L 152.0 174.1 L 152.0 143.5 Z M 118.8 122.9 L 138.0 122.9 L 138.9 122.7 L 139.5 122.5 L 139.8 122.3 L 140.0 122.2 L 140.2 122.0 L 140.5 121.1 L 140.7 120.2 L 140.8 118.9 L 140.8 110.4 L 59.2 110.4 L 59.2 128.4 L 47.2 134.4 L 47.2 68.0 L 59.2 74.0 L 140.8 74.0 L 146.8 69.0 L 157.8 78.0 L 152.8 82.0 L 152.8 118.9 L 152.6 121.5 L 152.2 124.0 L 151.4 126.4 L 150.1 128.7 L 148.5 130.7 L 146.5 132.3 L 144.2 133.6 L 141.8 134.4 L 139.3 134.8 L 136.8 134.9 L 136.8 128.9 L 118.8 125.9 Z M 59.2 94.2 L 59.2 106.4 L 140.8 106.4 L 140.8 94.2 Z M 59.2 78.0 L 59.2 90.2 L 140.8 90.2 L 140.8 78.0 Z M 14.0 59.9 L 94.0 59.9 L 94.0 47.2 L 37.0 47.2 L 37.0 43.2 L 94.0 43.2 L 94.0 30.6 L 30.0 30.6 L 30.0 26.6 L 94.0 26.6 L 94.0 11.7 L 106.0 13.7 L 109.0 15.7 L 106.0 17.5 L 106.0 26.6 L 151.8181818008423 26.6 L 160.0 17.6 L 170.0 26.6 L 170.0 30.6 L 106.0 30.6 L 106.0 43.2 L 144.8181818008423 43.2 L 153.0 34.2 L 163.0 43.2 L 163.0 47.2 L 106.0 47.2 L 106.0 59.9 L 171.7777777671814 59.9 L 178.0 52.9 L 186.0 59.9 L 186.0 63.9 L 14.0 63.9 Z " />
</g>
</svg>
