<svg xmlns="http://www.w3.org/2000/svg" xmlns:xlink="http://www.w3.org/1999/xlink" version="1.1" baseProfile="full" viewBox="0 0 200 200" width="200" height="200">
<g fill="black">
<path d="M 149.5 142.3 L 148.79891300201416 142.04456520080566 L 154.0 146.3 L 149.0 150.3 L 149.0 184.2 L 137.0 190.2 L 137.0 182.2 L 69.0 182.2 L 69.0 185.2 L 57.0 191.2 L 57.0 140.71730766296386 L 43.9 145.0 L 27.4 149.3 L 10.2 152.9 L 9.7 151.1 L 26.4 145.7 L 42.2 139.9 L 57.1 133.8 L 71.1 127.2 L 84.2 120.2 L 96.4 112.8 L 96.48419075012207 112.74091873168945 L 94.8 111.3 L 86.9 102.8 L 80.2 93.5 L 76.51971035003662 86.80856418609619 L 74.1 89.0 L 68.4 93.6 L 62.4 98.1 L 56.1 102.3 L 49.5 106.4 L 42.5 110.2 L 35.1 113.7 L 27.4 116.8 L 26.5 115.3 L 33.2 110.4 L 39.7 105.6 L 45.8 100.9 L 51.6 96.2 L 57.2 91.4 L 62.3 86.6 L 67.1 81.7 L 71.6 76.8 L 75.8 71.7 L 79.00263738632202 67.4017234802246 L 79.0 67.4 L 79.125 67.2375 L 79.6 66.6 L 79.60962028503418 66.60749368667602 L 80.0 66.1 L 89.1 74.0 L 90.2 77.4 L 86.43736925125123 76.945889377594 L 84.4 79.2 L 83.4 80.2 L 134.6290322303772 80.2 L 136.5 78.2 L 136.93297300338745 78.58918914794921 L 141.0 75.2 L 152.0 84.2 L 147.0 87.2 L 142.43927488327026 89.10030212402344 L 135.6 95.8 L 125.0 104.7 L 113.6 113.0 L 111.85432434082031 114.09282131195069 L 118.4 117.9 L 129.0 122.9 L 140.5 127.3 L 152.8 131.0 L 166.0 134.0 L 180.0 136.3 L 189.7 137.9 L 177.9 149.4 L 163.2 146.2 Z M 69.0 146.3 L 69.0 178.2 L 137.0 178.2 L 137.0 146.3 Z M 101.3 120.7 L 88.2 127.7 L 74.3 134.1 L 62.134848499298094 138.86742420196532 L 69.0 142.3 L 137.0 142.3 L 140.80258903503417 139.1311758041382 L 136.6 137.6 L 124.7 132.2 L 113.7 125.9 L 103.90201120376587 119.07109870910645 Z M 79.4 84.2 L 78.38743085861206 85.11704378128051 L 83.5 91.0 L 91.2 98.7 L 99.5 105.8 L 102.93372669219971 108.21492862701416 L 107.8 104.8 L 118.2 96.4 L 127.8 87.5 L 130.88709678649903 84.2 Z M 41.2 20.4 L 79.7 20.4 L 85.7 15.4 L 96.7 24.4 L 91.7 28.4 L 91.7 58.5 L 79.7 64.5 L 79.7 58.5 L 41.2 58.5 L 41.2 70.5 L 29.2 76.5 L 29.2 14.4 Z M 122.2 20.4 L 160.7 20.4 L 166.7 15.4 L 177.7 24.4 L 172.7 28.4 L 172.7 64.5 L 160.7 70.5 L 160.7 58.5 L 122.2 58.5 L 122.2 65.5 L 110.2 71.5 L 110.2 14.4 Z M 122.2 24.4 L 122.2 54.5 L 160.7 54.5 L 160.7 24.4 Z M 41.2 24.4 L 41.2 54.5 L 79.7 54.5 L 79.7 24.4 Z " />
</g>
</svg>
