<svg xmlns="http://www.w3.org/2000/svg" xmlns:xlink="http://www.w3.org/1999/xlink" version="1.1" baseProfile="full" viewBox="0 0 200 200" width="200" height="200">
<g fill="black">
<path d="M 167.2 136.6 L 164.7 134.4 L 161.8 132.2 L 160.09668674468995 131.06445779800416 L 152.1 132.1 L 138.1 133.6 L 124.1 134.9 L 110.1 136.0 L 96.1 137.0 L 82.0 137.9 L 67.9 138.7 L 53.8 139.4 L 42.3307692527771 139.96538457870483 L 49.8 143.7 L 154.2 143.7 L 160.2 138.7 L 171.2 147.7 L 166.2 151.7 L 166.2 182.2 L 154.2 188.2 L 154.2 180.2 L 49.8 180.2 L 49.8 183.2 L 37.8 189.2 L 37.8 140.17659578323364 L 29.49551420211792 140.52997808456422 L 27.5 143.6 L 25.5 140.7 L 23.2 128.7 L 53.5 128.7 L 67.6 128.6 L 68.18000001907349 128.6 L 69.3 128.0 L 77.4 123.7 L 85.4 119.7 L 93.1 115.9 L 100.5 112.2 L 107.7 108.7 L 114.5 105.2 L 121.1 101.9 L 127.4 98.7 L 132.52867650985718 96.0501838684082 L 132.5 96.0 L 132.54534883499144 96.04156980514526 L 133.4 95.6 L 134.40361442565919 97.74497995376586 L 142.1 104.8 L 142.2 108.1 L 138.44184617996217 106.52399997711181 L 132.2 109.1 L 125.5 111.7 L 118.6 114.4 L 111.4 117.2 L 103.9 120.0 L 96.1 122.9 L 88.0 125.8 L 79.79310340881348 128.6 L 81.7 128.6 L 95.7 128.5 L 109.8 128.4 L 123.8 128.3 L 137.9 128.2 L 151.9 128.3 L 155.93294115066527 128.38642015457154 L 155.0 127.8 L 151.1 125.6 L 146.9 123.4 L 142.4 121.0 L 137.6 118.8 L 138.1 117.1 L 143.4 117.9 L 148.5 118.8 L 153.3 120.0 L 157.9 121.3 L 162.1 122.7 L 166.1 124.3 L 169.9 126.1 L 173.4 128.0 L 176.6 130.0 L 179.6 132.2 L 181.4 136.4 L 179.8 140.7 L 175.6 142.5 L 171.3 140.9 L 169.4 138.7 Z M 49.8 163.9 L 49.8 176.2 L 96.0 176.2 L 96.0 163.9 Z M 108.0 163.9 L 108.0 176.2 L 154.2 176.2 L 154.2 163.9 Z M 49.8 147.7 L 49.8 159.9 L 96.0 159.9 L 96.0 147.7 Z M 108.0 147.7 L 108.0 159.9 L 154.2 159.9 L 154.2 147.7 Z M 100.1 96.1 L 100.2 99.5 L 96.47083330154419 97.95689659118652 L 95.4 98.4 L 92.4 99.6 L 89.3 100.8 L 86.1 102.0 L 82.7 103.3 L 75.5 105.7 L 71.6 106.9 L 71.12359552383423 107.03101119995117 L 73.2 108.0 L 76.0 109.5 L 78.5 111.2 L 80.4 115.3 L 79.0 119.7 L 74.8 121.6 L 70.5 120.1 L 69.0 118.4 L 67.2 116.6 L 65.2 114.8 L 62.8 112.9 L 60.1 110.9 L 57.1 108.9 L 53.9 106.9 L 50.4 104.8 L 46.6 102.5 L 42.5 100.5 L 43.0 98.8 L 47.6 99.8 L 52.0 100.6 L 56.1 101.6 L 60.0 102.7 L 63.6 103.9 L 66.63783779144288 105.06152620315552 L 69.7 102.9 L 72.9 100.6 L 76.1 98.4 L 79.1 96.3 L 82.0 94.3 L 84.8 92.3 L 86.85263156890869 90.8 L 21.1 90.8 L 21.1 86.8 L 96.0 86.8 L 96.0 72.3 L 108.0 74.3 L 111.0 76.3 L 108.0 78.1 L 108.0 86.8 L 160.8 86.8 L 170.8 76.8 L 182.8 86.8 L 182.8 90.8 L 94.86022729873658 90.8 Z M 47.1 24.2 L 76.8 24.2 L 82.8 19.2 L 93.8 28.2 L 88.8 32.2 L 88.8 65.7 L 76.8 71.7 L 76.8 61.7 L 47.1 61.7 L 47.1 68.7 L 35.1 74.7 L 35.1 18.2 Z M 123.1 24.2 L 152.8 24.2 L 158.8 19.2 L 169.8 28.2 L 164.8 32.2 L 164.8 65.7 L 152.8 71.7 L 152.8 61.7 L 123.1 61.7 L 123.1 68.7 L 111.1 74.7 L 111.1 18.2 Z M 123.1 28.2 L 123.1 57.7 L 152.8 57.7 L 152.8 28.2 Z M 47.1 28.2 L 47.1 57.7 L 76.8 57.7 L 76.8 28.2 Z " />
</g>
</svg>
