<svg xmlns="http://www.w3.org/2000/svg" xmlns:xlink="http://www.w3.org/1999/xlink" version="1.1" baseProfile="full" viewBox="0 0 200 200" width="200" height="200">
<g fill="black">
<path d="M 48.0 138.7 L 152.0 138.7 L 158.0 133.7 L 169.0 142.7 L 164.0 146.7 L 164.0 181.9 L 152.0 187.9 L 152.0 177.9 L 48.0 177.9 L 48.0 184.9 L 36.0 190.9 L 36.0 132.7 Z M 48.0 142.7 L 48.0 173.9 L 152.0 173.9 L 152.0 142.7 Z M 76.1 120.6 L 75.6 119.2 L 74.9 117.7 L 73.8 116.1 L 72.5 114.4 L 71.0 112.7 L 69.1 110.8 L 67.0 108.9 L 64.5 107.4 L 65.15882349014282 105.8 L 58.4 105.8 L 46.4 111.8 L 46.4 77.5 L 58.4 83.5 L 141.5 83.5 L 147.5 78.5 L 158.5 87.5 L 153.5 91.5 L 153.5 105.8 L 141.5 111.8 L 141.5 105.8 L 127.0555555343628 105.8 L 133.9 112.1 L 135.0 115.5 L 130.59685859680175 114.89267015457153 L 130.0 115.4 L 127.9 117.0 L 125.7 118.6 L 123.4 120.2 L 121.0 121.9 L 118.5 123.5 L 115.9 125.0 L 114.59333333969116 125.7 L 165.8181818008423 125.7 L 174.0 116.7 L 184.0 125.7 L 184.0 129.7 L 16.0 129.7 L 16.0 125.7 L 79.11212120056152 125.7 L 76.3 122.8 L 76.3 121.8 Z M 65.46363639831543 105.8 L 68.1 106.8 L 71.0 107.6 L 73.7 108.4 L 76.2 109.4 L 78.5 110.5 L 80.6 111.8 L 82.6 113.2 L 84.4 114.8 L 86.1 116.5 L 87.5 118.5 L 87.3 123.1 L 84.61875 125.7 L 110.58695650100708 125.7 L 111.5 124.7 L 113.2 122.1 L 114.9 119.6 L 116.6 117.2 L 118.1 115.0 L 119.6 112.7 L 121.0 110.6 L 123.6 106.4 L 123.9473684310913 105.8 Z M 58.4 87.5 L 58.4 101.8 L 141.5 101.8 L 141.5 87.5 Z M 182.0 71.5 L 182.0 75.5 L 18.0 75.5 L 18.0 71.5 L 167.7777777671814 71.5 L 174.0 64.5 Z M 36.2 70.2 L 36.2 20.8 L 48.2 26.8 L 74.6 26.8 L 74.6 13.0 L 86.6 15.0 L 89.6 17.0 L 86.6 18.8 L 86.6 26.8 L 113.1 26.8 L 113.1 13.0 L 125.1 15.0 L 128.1 17.0 L 125.1 18.8 L 125.1 26.8 L 151.6 26.8 L 157.6 21.8 L 168.6 30.8 L 163.6 34.8 L 163.6 64.2 L 151.6 70.2 L 151.6 64.2 L 48.2 64.2 Z M 48.2 46.4 L 48.2 60.2 L 74.6 60.2 L 74.6 46.4 Z M 86.6 46.4 L 86.6 60.2 L 113.1 60.2 L 113.1 46.4 Z M 125.1 46.4 L 125.1 60.2 L 151.6 60.2 L 151.6 46.4 Z M 48.2 30.8 L 48.2 42.4 L 74.6 42.4 L 74.6 30.8 Z M 86.6 30.8 L 86.6 42.4 L 113.1 42.4 L 113.1 30.8 Z M 125.1 30.8 L 125.1 42.4 L 151.6 42.4 L 151.6 30.8 Z " />
</g>
</svg>
