<svg xmlns="http://www.w3.org/2000/svg" xmlns:xlink="http://www.w3.org/1999/xlink" version="1.1" baseProfile="full" viewBox="0 0 200 200" width="200" height="200">
<g fill="black">
<path d="M 70.0 177.3 L 91.2 177.3 L 92.1 177.1 L 92.7 176.9 L 93.0 176.7 L 93.2 176.6 L 93.4 176.4 L 93.7 175.5 L 93.9 174.6 L 94.0 173.3 L 94.0 143.498837184906 L 87.3 144.2 L 69.8 146.0 L 51.9 147.6 L 33.8 149.3 L 19.404568481445313 150.55177669525148 L 17.6 153.8 L 15.4 150.9 L 12.5 139.1 L 14.5 138.9 L 33.0 137.9 L 51.2 136.9 L 69.0 135.9 L 86.6 134.9 L 94.0 134.47225437164306 L 94.0 117.4 L 105.0473846435547 119.24123077392578 L 107.6 117.4 L 113.4 113.4 L 118.8 109.7 L 123.9 106.3 L 128.5 103.0 L 132.7 99.9 L 136.5 97.1 L 137.6 96.2 L 40.0 96.2 L 40.0 92.2 L 142.35200004577638 92.2 L 142.7 91.9 L 145.2 89.6 L 145.56977491378785 90.05852088928222 L 149.0 87.2 L 160.0 96.2 L 155.0 99.2 L 147.28571424484252 102.41428575515747 L 146.0 103.2 L 142.0 105.4 L 137.7 107.8 L 132.9 110.3 L 127.7 112.8 L 122.1 115.4 L 116.0 118.1 L 109.4 120.8 L 108.56513757705689 121.1100917816162 L 109.0 121.4 L 106.0 123.2 L 106.0 133.78816566467285 L 120.8 133.0 L 137.5 132.0 L 153.9 131.2 L 170.0 130.5 L 185.9 129.9 L 186.0 131.7 L 170.4 134.2 L 154.4 136.5 L 138.1 138.6 L 121.5 140.5 L 106.0 142.2323529243469 L 106.0 173.3 L 105.8 175.9 L 105.4 178.4 L 104.6 180.8 L 103.3 183.1 L 101.7 185.1 L 99.7 186.7 L 97.4 187.9 L 95.0 188.8 L 92.5 189.2 L 90.0 189.3 L 90.0 183.3 L 70.0 180.3 Z M 49.5 27.1 L 149.4 27.1 L 155.4 22.1 L 166.4 31.1 L 161.4 35.1 L 161.4 75.8 L 149.4 81.8 L 149.4 73.8 L 49.5 73.8 L 49.5 76.8 L 37.5 82.8 L 37.5 21.1 Z M 49.5 31.1 L 49.5 69.8 L 149.4 69.8 L 149.4 31.1 Z " />
</g>
</svg>
