<svg xmlns="http://www.w3.org/2000/svg" xmlns:xlink="http://www.w3.org/1999/xlink" version="1.1" baseProfile="full" viewBox="0 0 200 200" width="200" height="200">
<g fill="black">
<path d="M 48.0 132.0 L 152.0 132.0 L 158.0 127.0 L 169.0 136.0 L 164.0 140.0 L 164.0 179.0 L 152.0 185.0 L 152.0 175.0 L 48.0 175.0 L 48.0 182.0 L 36.0 188.0 L 36.0 126.0 Z M 48.0 136.0 L 48.0 171.0 L 152.0 171.0 L 152.0 136.0 Z M 123.5 122.3 L 121.4 123.1 L 119.3 123.8 L 117.1 124.4 L 114.9 124.9 L 112.7 125.3 L 110.5 125.6 L 108.2 125.8 L 106.0 125.8 L 106.0 119.8 L 86.0 116.8 L 86.0 113.8 L 107.6 113.8 L 109.3 113.7 L 111.0 113.4 L 112.6 113.2 L 114.2 112.8 L 115.7 112.4 L 117.3 111.8 L 118.8 111.2 L 120.3 110.5 L 121.9 109.8 L 125.1 107.6 L 128.1 104.9 L 130.9 101.7 L 133.4 97.8 L 135.6 93.2 L 137.6 87.9 L 139.2 82.0 L 140.5 75.3 L 141.4 68.0 L 141.82962961196898 62.2 L 77.60869569778443 62.2 L 72.0 75.4 L 58.6 76.3 L 79.55339803695679 26.8 L 20.0 26.8 L 20.0 22.8 L 162.0 22.8 L 172.0 12.8 L 184.0 22.8 L 184.0 26.8 L 92.65019760131835 26.8 L 79.30830039978028 58.2 L 142.0 58.2 L 148.0 53.2 L 159.0 62.2 L 154.0 65.2 L 153.55928144454955 65.38363275527954 L 153.3 69.1 L 152.3 77.2 L 150.9 84.6 L 149.0 91.5 L 146.7 97.9 L 143.9 103.6 L 140.6 108.8 L 136.8 113.3 L 132.4 117.2 L 127.6 120.3 L 125.6 121.3 Z " />
</g>
</svg>
