<svg xmlns="http://www.w3.org/2000/svg" xmlns:xlink="http://www.w3.org/1999/xlink" version="1.1" baseProfile="full" viewBox="0 0 200 200" width="200" height="200">
<g fill="black">
<path d="M 48.0 132.0 L 152.0 132.0 L 158.0 127.0 L 169.0 136.0 L 164.0 140.0 L 164.0 179.0 L 152.0 185.0 L 152.0 175.0 L 48.0 175.0 L 48.0 182.0 L 36.0 188.0 L 36.0 126.0 Z M 48.0 136.0 L 48.0 171.0 L 152.0 171.0 L 152.0 136.0 Z M 80.0 112.1 L 100.0 112.1 L 101.2 112.0 L 102.1 111.9 L 102.7 111.7 L 103.0 111.5 L 103.4 111.1 L 103.7 110.2 L 103.9 109.3 L 104.0 108.1 L 104.0 69.1 L 99.0 75.6 L 92.5 82.8 L 85.4 89.4 L 77.8 95.3 L 69.8 100.6 L 61.2 105.2 L 52.2 109.1 L 42.6 112.3 L 32.6 114.8 L 22.1 116.4 L 21.8 114.6 L 31.6 111.1 L 40.8 107.3 L 49.5 103.1 L 57.6 98.5 L 65.1 93.5 L 72.1 88.0 L 78.6 82.0 L 84.6 75.6 L 90.0 68.7 L 91.3619047164917 66.5 L 30.0 66.5 L 30.0 62.5 L 105.1222222328186 62.5 L 103.7 60.1 L 101.7 57.3 L 99.5 54.7 L 97.0 52.1 L 94.1 49.5 L 90.9 47.1 L 87.3 44.6 L 83.4 42.3 L 79.2 39.9 L 74.7 37.6 L 75.2 35.9 L 80.3 36.8 L 85.2 37.8 L 89.9 39.1 L 94.3 40.8 L 98.5 42.7 L 102.4 44.9 L 106.0 47.3 L 109.4 50.0 L 110.10998668670655 50.66418113708496 L 111.0 49.7 L 114.4 45.9 L 117.8 42.3 L 121.1 38.9 L 124.3 35.6 L 127.3 32.4 L 130.1 29.3 L 132.24137935638427 27.0 L 40.0 27.0 L 40.0 23.0 L 135.81071424484253 23.0 L 137.7 20.7 L 138.17874603271486 21.184378337860107 L 142.0 18.0 L 153.0 27.0 L 148.0 30.0 L 142.37714281082154 32.34285717010498 L 140.0 34.2 L 136.7 36.7 L 133.3 39.2 L 129.6 41.8 L 125.8 44.5 L 121.8 47.1 L 117.6 49.8 L 113.2 52.4 L 112.42425079345703 52.82913789749146 L 112.5 52.9 L 115.3 56.1 L 116.1 60.6 L 114.88205127716064 62.5 L 158.0 62.5 L 158.40884952545167 62.15929203033447 L 158.8 61.4 L 159.1019165992737 61.581736183166505 L 164.0 57.5 L 175.0 66.5 L 170.0 69.5 L 166.5467625617981 70.93884887695313 L 166.5 71.0 L 163.8 74.4 L 160.8 77.7 L 157.5 81.0 L 154.0 84.3 L 150.3 87.5 L 146.3 90.7 L 142.0 93.8 L 137.4 96.8 L 132.5 99.6 L 131.4 98.3 L 135.1 94.0 L 138.5 89.9 L 141.9 86.0 L 145.0 82.3 L 147.9 78.6 L 150.6 75.0 L 153.0 71.5 L 155.2 68.0 L 156.06363639831542 66.5 L 116.0 66.5 L 116.0 108.1 L 115.8 110.6 L 115.4 113.1 L 114.6 115.5 L 113.3 117.8 L 111.7 119.8 L 109.7 121.5 L 107.4 122.7 L 105.0 123.5 L 102.5 123.9 L 100.0 124.1 L 100.0 118.1 L 80.0 115.1 Z " />
</g>
</svg>
