<svg xmlns="http://www.w3.org/2000/svg" xmlns:xlink="http://www.w3.org/1999/xlink" version="1.1" baseProfile="full" viewBox="0 0 200 200" width="200" height="200">
<g fill="black">
<path d="M 87.3 108.4 L 107.7 108.4 L 113.2 103.4 L 123.7 112.4 L 118.7 115.9 L 118.7 171.6 L 107.7 177.1 L 107.7 165.6 L 87.3 165.6 L 87.3 177.6 L 75.3 183.6 L 75.3 102.4 Z M 72.4382978439331 34.019148921966554 L 73.3 33.7 L 78.4 31.7 L 83.3 29.8 L 88.0 28.0 L 92.5 26.2 L 96.7 24.4 L 100.8 22.6 L 104.5 20.8 L 108.1 19.0 L 110.50787401199341 17.613648319244383 L 110.5 17.6 L 110.51202554702759 17.611258029937744 L 111.4 17.1 L 112.51778392791748 19.4889892578125 L 119.9 26.4 L 120.1 29.6 L 116.38395328521729 28.041657829284667 L 112.6 29.4 L 108.5 30.7 L 104.2 32.0 L 99.7 33.2 L 95.0 34.2 L 90.1 35.2 L 84.9 36.0 L 79.6 36.7 L 74.1 37.2 L 73.6 37.2258620262146 L 73.6 70.3 L 99.7 70.3 L 109.7 60.3 L 121.7 70.3 L 121.7 74.3 L 73.6 74.3 L 73.6 98.4 L 73.2 109.4 L 72.4 119.9 L 71.3 129.8 L 69.8 139.1 L 68.0 147.8 L 65.8 155.9 L 63.3 163.4 L 60.3 170.3 L 56.9 176.4 L 53.1 181.8 L 51.6 181.0 L 53.8 174.9 L 55.7 168.5 L 57.5 161.7 L 59.1 154.3 L 60.3 146.4 L 61.4 137.9 L 62.1 128.9 L 62.6 119.3 L 62.7 109.1 L 62.6 98.4 L 62.6 29.1 Z M 87.3 112.4 L 87.3 161.6 L 107.7 161.6 L 107.7 112.4 Z M 26.8 39.6 L 41.9 39.6 L 47.4 34.6 L 57.9 43.6 L 52.9 47.1 L 52.9 135.0 L 41.9 140.5 L 41.9 129.0 L 26.8 129.0 L 26.8 141.0 L 14.8 147.0 L 14.8 33.6 Z M 143.07480916976928 88.0 L 145.8 99.9 L 149.0 112.0 L 152.4 123.1 L 156.2 133.2 L 159.30426054000856 140.08994407653807 L 160.4 136.7 L 163.3 125.5 L 166.0 113.2 L 168.3 99.8 L 169.90544214248658 88.0 Z M 26.8 43.6 L 26.8 125.0 L 41.9 125.0 L 41.9 43.6 Z M 153.2 60.0 L 163.2 60.0 L 164.4 59.9 L 165.3 59.7 L 165.9 59.5 L 166.3 59.4 L 166.5 59.2 L 166.6 59.0 L 166.8 58.7 L 167.0 58.1 L 167.1 57.2 L 167.2 56.0 L 167.2 23.0 L 137.0 23.0 L 137.0 84.0 L 170.2 84.0 L 176.2 79.0 L 187.2 88.0 L 182.2 91.0 L 181.3827027320862 91.34054050445556 L 179.5 101.8 L 176.4 115.5 L 173.0 128.1 L 169.2 139.6 L 165.0 149.8 L 164.6965651512146 150.39367685317993 L 164.7 150.4 L 169.4 157.4 L 174.5 163.4 L 179.8 168.5 L 185.5 172.5 L 188.9 174.9 L 177.9 183.4 L 171.4 177.7 L 165.5 171.1 L 160.3 163.6 L 158.93352060317994 161.1343957901001 L 155.5 166.6 L 150.0 173.1 L 144.2 178.2 L 138.0 181.7 L 137.0 180.2 L 141.6 175.4 L 145.9 169.7 L 149.9 163.1 L 153.7 155.4 L 154.676261138916 152.94540061950684 L 151.7 146.1 L 148.3 136.0 L 145.5 125.1 L 143.2 113.3 L 141.7 100.6 L 141.04666662216187 88.0 L 137.0 88.0 L 137.0 184.2 L 126.0 189.7 L 126.0 13.5 L 137.0 19.0 L 167.2 19.0 L 173.2 14.0 L 184.2 23.0 L 179.2 27.0 L 179.2 56.0 L 179.1 58.5 L 178.6 61.0 L 177.8 63.4 L 176.6 65.7 L 174.9 67.7 L 172.9 69.3 L 170.7 70.6 L 168.3 71.4 L 165.8 71.8 L 163.2 72.0 L 163.2 66.0 L 153.2 63.0 Z " />
</g>
</svg>
