<svg xmlns="http://www.w3.org/2000/svg" xmlns:xlink="http://www.w3.org/1999/xlink" version="1.1" baseProfile="full" viewBox="0 0 200 200" width="200" height="200">
<g fill="black">
<path d="M 99.0380711555481 117.72140874862671 L 109.8 126.6 L 109.98999996185303 128.5 L 158.0 128.5 L 164.0 123.5 L 175.0 132.5 L 170.0 136.5 L 170.0 180.4 L 158.0 186.4 L 158.0 176.4 L 42.0 176.4 L 42.0 183.4 L 30.0 189.4 L 30.0 123.6 L 41.4865385055542 129.3432692527771 L 42.9 129.0 L 49.7 127.4 L 56.4 126.0 L 63.0 124.6 L 69.4 123.3 L 75.6 122.0 L 81.6 120.6 L 87.5 119.3 L 93.2 117.9 L 97.81327972412109 116.74668006896972 L 97.8 116.7 L 97.84651165008545 116.73837213516235 L 98.8 116.5 Z M 101.1 128.3 L 95.3 129.1 L 89.4 129.9 L 83.2 130.5 L 77.0 131.2 L 70.6 131.7 L 64.0 132.2 L 57.2 132.5 L 50.3 132.7 L 43.3 132.7 L 42.0 132.66438360214232 L 42.0 149.8 L 71.0 149.8 L 81.0 139.8 L 93.0 149.8 L 93.0 153.8 L 42.0 153.8 L 42.0 172.4 L 158.0 172.4 L 158.0 153.8 L 107.0 153.8 L 107.0 149.8 L 158.0 149.8 L 158.0 132.5 L 102.0 132.5 L 102.0 128.5 L 107.92972974777221 128.5 L 105.74455156326295 127.39244394302368 Z M 162.5 55.4 L 160.4 53.8 L 158.2 52.3 L 155.9 50.7 L 153.3 49.1 L 150.7 47.6 L 144.9 44.2 L 143.4735228538513 43.62049360275269 L 143.3 43.8 L 140.1 46.6 L 136.6 49.0 L 132.8 51.1 L 128.8 52.9 L 124.5 54.4 L 122.62065486907959 54.81763219833374 L 126.8 56.6 L 134.0 59.4 L 141.7 62.0 L 150.0 64.4 L 158.8 66.5 L 168.2 68.4 L 178.2 70.1 L 187.6 71.9 L 175.7 83.1 L 165.5 80.6 L 155.8 77.9 L 146.7 74.9 L 138.2 71.6 L 130.3 68.0 L 123.0 64.1 L 116.4 59.9 L 110.5 55.4 L 106.0 51.159615421295165 L 106.0 79.3 L 95.6 84.5 L 146.6 84.5 L 152.6 79.5 L 163.6 88.5 L 158.6 92.5 L 158.6 115.5 L 146.6 121.5 L 146.6 115.5 L 55.3 115.5 L 43.3 121.5 L 43.3 78.5 L 55.3 84.5 L 94.0 84.5 L 94.0 56.45254240036011 L 93.5 56.8 L 86.8 60.6 L 79.3 64.2 L 70.8 67.6 L 61.5 70.7 L 51.3 73.7 L 40.2 76.3 L 28.1 78.7 L 15.1 80.7 L 14.8 79.0 L 27.2 75.0 L 38.7 71.2 L 49.3 67.4 L 58.9 63.6 L 67.6 59.7 L 75.2 55.8 L 81.8 51.9 L 87.4 48.0 L 92.0 44.0 L 94.0 41.82857141494751 L 94.0 27.6 L 51.34761905670166 27.6 L 60.9 33.5 L 62.7 36.7 L 58.62344408035278 37.05142726898193 L 58.4 37.4 L 56.20564451217651 40.12402744293213 L 58.2 40.3 L 61.5 40.7 L 64.5 41.2 L 67.2 41.7 L 69.8 42.3 L 72.1 42.8 L 74.3 43.4 L 76.3 44.1 L 78.2 44.9 L 80.4 48.9 L 79.3 53.3 L 75.4 55.6 L 70.9 54.5 L 70.3 53.5 L 69.3 52.4 L 68.0 51.2 L 66.4 49.9 L 64.4 48.6 L 62.2 47.1 L 59.8 45.6 L 57.0 44.0 L 54.12765960693359 42.37234039306641 L 52.2 44.3 L 48.4 47.4 L 44.3 50.2 L 39.9 52.7 L 35.1 55.0 L 29.9 57.0 L 24.2 58.7 L 18.3 60.0 L 17.6 58.3 L 22.9 55.4 L 27.6 52.4 L 32.0 49.4 L 35.9 46.5 L 39.3 43.5 L 42.3 40.5 L 44.9 37.5 L 47.1 34.5 L 48.8 31.4 L 49.71944923400879 29.20746717453003 L 49.7 29.2 L 49.839999961853025 28.919999980926512 L 50.1 28.3 L 50.140298461914064 28.319402980804444 L 50.5 27.6 L 19.0 27.6 L 19.0 23.6 L 94.0 23.6 L 94.0 11.6 L 106.0 13.6 L 109.0 15.6 L 106.0 17.4 L 106.0 23.6 L 160.0 23.6 L 170.0 13.6 L 182.0 23.6 L 182.0 27.6 L 106.0 27.6 L 106.0 46.04642858505249 L 107.9 47.2 L 113.8 50.5 L 118.24843053817749 52.7959641456604 L 118.8 52.5 L 122.6 50.1 L 125.9 47.7 L 129.0 45.3 L 131.6 42.7 L 133.9 40.1 L 135.9 37.4 L 137.6 34.7 L 139.0 31.8 L 139.75168142318725 29.818294334411622 L 139.7 29.8 L 140.6 27.7 L 151.0 33.8 L 152.9 36.9 L 148.80341262817382 37.39441576004028 L 148.8 37.4 L 146.2 40.8 L 145.36360511779785 41.66523609161377 L 145.6 41.7 L 149.1 42.0 L 155.7 43.0 L 158.8 43.7 L 161.8 44.5 L 164.7 45.3 L 167.5 46.3 L 170.1 47.3 L 172.7 48.5 L 175.3 52.3 L 174.5 56.8 L 170.7 59.3 L 166.2 58.5 L 164.4 57.0 Z M 55.3 88.5 L 55.3 111.5 L 146.6 111.5 L 146.6 88.5 Z " />
</g>
</svg>
