<svg xmlns="http://www.w3.org/2000/svg" xmlns:xlink="http://www.w3.org/1999/xlink" version="1.1" baseProfile="full" viewBox="0 0 200 200" width="200" height="200">
<g fill="black">
<path d="M 54.9 149.8 L 145.0 149.8 L 151.0 144.8 L 162.0 153.8 L 157.0 157.8 L 157.0 180.5 L 145.0 186.5 L 145.0 178.5 L 54.9 178.5 L 54.9 181.5 L 42.9 187.5 L 42.9 143.8 Z M 54.9 153.8 L 54.9 174.5 L 145.0 174.5 L 145.0 153.8 Z M 16.0 134.4 L 94.0 134.4 L 94.0 114.7 L 57.79411764144898 114.7 L 57.7 114.8 L 54.1 118.1 L 50.3 121.3 L 46.1 124.4 L 41.6 127.5 L 36.7 130.3 L 31.5 133.0 L 30.4 131.6 L 34.5 127.4 L 38.3 123.5 L 41.8 119.6 L 45.1 115.9 L 48.1 112.3 L 50.7 108.8 L 53.0 105.3 L 55.1 102.0 L 56.8 98.7 L 57.72964391708374 96.4116457939148 L 57.7 96.4 L 57.88333330154419 96.03333330154419 L 58.1 95.5 L 58.14014873504639 95.51970262527466 L 58.7 94.4 L 68.9 100.8 L 70.6 104.0 L 66.6475121498108 104.27258539199829 L 66.5 104.5 L 63.9 108.0 L 61.51764707565307 110.7 L 94.0 110.7 L 94.0 94.6 L 106.0 96.6 L 109.0 98.6 L 106.0 100.4 L 106.0 110.7 L 139.0 110.7 L 149.0 100.7 L 161.0 110.7 L 161.0 114.7 L 106.0 114.7 L 106.0 134.4 L 165.8181818008423 134.4 L 174.0 125.4 L 184.0 134.4 L 184.0 138.4 L 16.0 138.4 Z M 94.0 33.9 L 97.0 35.9 L 94.0 37.7 L 94.0 60.7 L 92.9 67.3 L 90.4 73.4 L 86.5 78.8 L 81.5 83.4 L 75.4 87.3 L 68.3 90.5 L 60.1 93.2 L 50.9 95.3 L 40.5 96.7 L 29.1 97.6 L 28.8 95.8 L 39.8 93.0 L 49.5 90.1 L 58.0 86.9 L 65.1 83.6 L 71.0 80.0 L 75.5 76.3 L 78.7 72.5 L 80.8 68.7 L 81.32749004364014 66.64278888702393 L 75.1 68.6 L 68.1 70.6 L 61.0 72.4 L 54.0 74.2 L 46.9 75.9 L 39.9 77.6 L 25.9 80.8 L 22.974561405181884 81.43596487045288 L 21.4 84.9 L 19.0 82.3 L 14.9 70.8 L 16.9 70.5 L 24.0 69.5 L 31.0 68.6 L 31.0 20.1 L 42.1290322303772 25.664516162872314 L 42.7 25.5 L 48.6 23.9 L 54.6 22.5 L 60.5 21.1 L 66.5 19.6 L 72.5 18.2 L 78.5 16.7 L 84.5 15.1 L 95.71802129745484 12.157568168640136 L 95.7 12.1 L 95.75708045959473 12.14732313156128 L 96.7 11.9 L 96.98032598495483 13.161466789245605 L 107.4 21.8 L 107.7 24.8 L 103.32950105667115 22.704555320739747 L 99.3 23.6 L 93.0 24.7 L 80.4 26.5 L 74.1 27.3 L 67.9 28.0 L 61.7 28.6 L 55.5 29.0 L 49.4 29.2 L 43.2 29.2 L 43.0 29.193442630767823 L 43.0 67.0875 L 45.3 66.8 L 52.4 65.9 L 66.8 64.1 L 74.1 63.3 L 81.4 62.7 L 81.90410051345825 62.66593914031982 L 82.0 60.7 L 82.0 31.9 Z M 148.9 73.0 L 160.9 73.0 L 162.1 72.9 L 163.0 72.8 L 163.6 72.6 L 163.9 72.4 L 164.1 72.2 L 164.3 72.1 L 164.5 71.7 L 164.6 71.1 L 164.8 70.2 L 164.9 69.0 L 164.9 26.6 L 125.0 26.6 L 125.0 93.1 L 113.0 99.1 L 113.0 16.6 L 125.0 22.6 L 164.9 22.6 L 170.9 17.6 L 181.9 26.6 L 176.9 30.6 L 176.9 69.0 L 176.7 71.5 L 176.3 74.0 L 175.5 76.4 L 174.3 78.7 L 172.6 80.7 L 170.6 82.4 L 168.3 83.6 L 165.9 84.4 L 163.4 84.8 L 160.9 85.0 L 160.9 79.0 L 148.9 76.0 Z " />
</g>
</svg>
