<svg xmlns="http://www.w3.org/2000/svg" xmlns:xlink="http://www.w3.org/1999/xlink" version="1.1" baseProfile="full" viewBox="0 0 200 200" width="200" height="200">
<g fill="black">
<path d="M 127.5 185.3 L 125.4 186.1 L 123.2 186.8 L 121.1 187.3 L 118.9 187.8 L 116.7 188.2 L 114.5 188.4 L 112.2 188.6 L 110.0 188.7 L 110.0 182.7 L 90.0 179.7 L 90.0 176.7 L 110.0 176.7 L 111.7 176.6 L 113.3 176.5 L 115.0 176.3 L 116.6 176.0 L 118.3 175.7 L 119.9 175.2 L 121.4 174.7 L 123.0 174.2 L 124.5 173.5 L 126.1 172.7 L 126.8 172.1 L 128.3 170.1 L 129.9527777671814 166.6 L 48.63715419769287 166.6 L 45.4 179.6 L 32.3 182.6 L 43.84703197479248 136.2 L 16.0 136.2 L 16.0 132.2 L 44.842465782165526 132.2 L 54.1 95.0 L 62.541379356384276 102.2 L 141.0 102.2 L 147.0 97.2 L 158.0 106.2 L 153.0 109.2 L 152.4736000061035 109.41933336257935 L 151.7 117.8 L 150.3 129.6 L 149.90754718780516 132.2 L 162.0 132.2 L 172.0 122.2 L 184.0 132.2 L 184.0 136.2 L 149.30377359390258 136.2 L 148.7 140.2 L 147.1 149.6 L 145.2 157.9 L 143.9597222328186 162.6 L 156.0 162.6 L 166.0 152.6 L 178.0 162.6 L 178.0 166.6 L 142.75 166.6 L 141.1 171.1 L 138.6 176.2 L 135.6 180.3 L 131.6 183.4 L 129.5 184.4 Z M 56.20711460113525 136.2 L 49.633201599121094 162.6 L 131.4039999961853 162.6 L 131.8 161.5 L 133.6 155.1 L 135.3 147.3 L 136.9 138.3 L 137.20582523345948 136.2 Z M 98.3 154.8 L 96.8 153.1 L 95.0 151.4 L 92.8 149.7 L 90.3 148.0 L 87.4 146.3 L 84.2 144.6 L 80.7 142.8 L 76.7 141.4 L 77.1 139.7 L 81.3 140.2 L 85.4 140.5 L 89.2 141.1 L 92.8 141.9 L 96.2 142.8 L 99.4 144.0 L 102.3 145.3 L 105.1 146.9 L 107.6 148.8 L 109.9 150.8 L 111.0 155.3 L 108.8 159.2 L 104.3 160.4 L 100.4 158.1 L 99.5 156.5 Z M 63.67747039794922 106.2 L 57.20316209793091 132.2 L 137.78834953308106 132.2 L 138.4 128.0 L 139.7 116.5 L 140.74609375 106.2 Z M 103.1 124.5 L 102.0 123.0 L 100.6 121.5 L 98.8 119.9 L 96.7 118.3 L 94.2 116.6 L 91.4 115.0 L 88.3 113.3 L 84.7 112.0 L 85.1 110.3 L 88.9 110.9 L 92.6 111.2 L 96.0 111.7 L 99.3 112.4 L 102.3 113.2 L 105.1 114.3 L 107.7 115.5 L 110.1 117.0 L 112.4 118.7 L 114.4 120.6 L 115.1 125.1 L 112.6 128.9 L 108.1 129.7 L 104.3 127.2 L 103.9 125.9 Z M 65.8 73.0 L 67.5 76.2 L 63.61837148666382 76.40077390670777 L 62.4 78.3 L 58.7 83.4 L 56.95 85.4 L 158.8181818008423 85.4 L 167.0 76.4 L 177.0 85.4 L 177.0 89.4 L 53.32553195953369 89.4 L 49.9 92.9 L 45.0 97.3 L 39.7 101.4 L 34.0 105.3 L 27.9 108.9 L 21.3 112.1 L 14.4 115.0 L 13.5 113.4 L 19.4 108.9 L 24.9 104.4 L 30.0 100.0 L 34.8 95.6 L 39.2 91.1 L 43.1 86.5 L 46.7 81.9 L 49.9 77.1 L 52.7 72.3 L 54.733565139770505 68.31421232223511 L 54.7 68.3 L 55.7 66.4 Z M 47.1 24.2 L 76.8 24.2 L 82.8 19.2 L 93.8 28.2 L 88.8 32.2 L 88.8 65.7 L 76.8 71.7 L 76.8 61.7 L 47.1 61.7 L 47.1 68.7 L 35.1 74.7 L 35.1 18.2 Z M 123.1 24.2 L 152.8 24.2 L 158.8 19.2 L 169.8 28.2 L 164.8 32.2 L 164.8 65.7 L 152.8 71.7 L 152.8 61.7 L 123.1 61.7 L 123.1 68.7 L 111.1 74.7 L 111.1 18.2 Z M 123.1 28.2 L 123.1 57.7 L 152.8 57.7 L 152.8 28.2 Z M 47.1 28.2 L 47.1 57.7 L 76.8 57.7 L 76.8 28.2 Z " />
</g>
</svg>
