<svg xmlns="http://www.w3.org/2000/svg" xmlns:xlink="http://www.w3.org/1999/xlink" version="1.1" baseProfile="full" viewBox="0 0 200 200" width="200" height="200">
<g fill="black">
<path d="M 72.1 105.2 L 70.4 102.8 L 68.6 100.5 L 66.5 98.2 L 64.3 96.0 L 61.8 93.7 L 59.2 91.5 L 56.8 89.5285714149475 L 56.8 183.0 L 44.8 189.0 L 44.8 92.71999998092652 L 42.0 100.0 L 38.2 108.8 L 34.0 117.4 L 29.4 125.7 L 24.5 133.6 L 19.1 141.2 L 13.2 148.5 L 11.7 147.4 L 15.8 139.2 L 19.8 131.0 L 23.6 122.7 L 27.1 114.2 L 30.3 105.6 L 33.3 96.8 L 35.9 87.8 L 38.3 78.7 L 40.3 69.3 L 41.438554191589354 63.0 L 12.4 63.0 L 12.4 59.0 L 44.8 59.0 L 44.8 14.0 L 56.8 16.0 L 59.8 18.0 L 56.8 19.8 L 56.8 59.0 L 64.4 59.0 L 74.4 49.0 L 86.4 59.0 L 86.4 63.0 L 56.8 63.0 L 56.8 86.40810813903809 L 57.7 86.7 L 61.3 87.7 L 64.8 89.0 L 68.1 90.5 L 71.2 92.1 L 74.2 94.0 L 77.1 96.0 L 79.8 98.2 L 82.3 100.5 L 84.7 103.0 L 85.7 107.5 L 83.3 111.4 L 78.8 112.3 L 74.9 110.0 L 73.6 107.6 Z M 145.0 176.1 L 159.0 176.1 L 160.2 176.0 L 161.1 175.8 L 161.7 175.7 L 162.1 175.5 L 162.2 175.3 L 162.4 175.1 L 162.6 174.8 L 162.8 174.2 L 162.9 173.3 L 163.0 172.1 L 163.0 157.5 L 107.9 157.5 L 107.9 180.7 L 95.9 186.7 L 95.9 111.0 L 107.9 117.0 L 163.0 117.0 L 169.0 112.0 L 180.0 121.0 L 175.0 125.0 L 175.0 172.1 L 174.9 174.6 L 174.4 177.1 L 173.6 179.5 L 172.4 181.8 L 170.7 183.8 L 168.7 185.5 L 166.5 186.7 L 164.0 187.5 L 161.6 187.9 L 159.0 188.1 L 159.0 182.1 L 145.0 179.1 Z M 107.9 139.2 L 107.9 153.5 L 163.0 153.5 L 163.0 139.2 Z M 107.9 121.0 L 107.9 135.2 L 163.0 135.2 L 163.0 121.0 Z M 182.9 98.2 L 182.9 102.2 L 86.2 102.2 L 86.2 98.2 L 164.71818180084227 98.2 L 172.9 89.2 Z M 172.9 69.9 L 172.9 73.9 L 93.8 73.9 L 93.8 69.9 L 150.9 69.9 L 160.9 59.9 Z M 108.3 20.5 L 159.0 20.5 L 165.0 15.5 L 176.0 24.5 L 171.0 28.5 L 171.0 53.2 L 159.0 59.2 L 159.0 49.2 L 108.3 49.2 L 108.3 56.2 L 96.3 62.2 L 96.3 14.5 Z M 108.3 24.5 L 108.3 45.2 L 159.0 45.2 L 159.0 24.5 Z " />
</g>
</svg>
