<svg xmlns="http://www.w3.org/2000/svg" xmlns:xlink="http://www.w3.org/1999/xlink" version="1.1" baseProfile="full" viewBox="0 0 200 200" width="200" height="200">
<g fill="black">
<path d="M 63.9 17.5 L 65.7 20.6 L 61.63543310165405 20.950393676757812 L 60.1 23.1 L 58.0 26.0 L 55.7 28.9 L 53.3 31.8 L 50.8 34.8 L 48.1 37.7 L 45.2 40.6 L 42.1 43.5 L 41.58333330154419 44.0 L 70.5 44.0 L 76.5 39.0 L 87.5 48.0 L 82.5 52.0 L 82.5 92.0 L 70.5 98.0 L 70.5 86.0 L 31.8 86.0 L 31.8 113.0 L 73.6 113.0 L 79.6 108.0 L 90.6 117.0 L 85.6 121.0 L 85.6 166.0 L 73.6 172.0 L 73.6 160.0 L 31.8 160.0 L 31.8 172.0 L 19.8 178.0 L 19.8 38.0 L 31.8 44.0 L 38.332432460784915 44.0 L 39.7 41.7 L 41.5 37.9 L 43.4 34.3 L 45.1 30.9 L 46.7 27.5 L 48.3 24.3 L 49.7 21.1 L 52.1 15.1 L 52.778958797454834 13.131019496917725 L 52.7 13.1 L 52.98888893127442 12.522222232818603 L 53.1 12.2 L 53.14014873504639 12.219702625274659 L 53.7 11.1 Z M 116.9 45.6 L 166.6 45.6 L 172.6 40.6 L 183.6 49.6 L 178.6 53.6 L 178.6 153.3 L 166.6 159.3 L 166.6 147.3 L 116.9 147.3 L 116.9 159.3 L 104.9 165.3 L 104.9 39.6 Z M 31.8 117.0 L 31.8 156.0 L 73.6 156.0 L 73.6 117.0 Z M 116.9 49.6 L 116.9 143.3 L 166.6 143.3 L 166.6 49.6 Z M 31.8 48.0 L 31.8 82.0 L 70.5 82.0 L 70.5 48.0 Z " />
</g>
</svg>
