<svg xmlns="http://www.w3.org/2000/svg" xmlns:xlink="http://www.w3.org/1999/xlink" version="1.1" baseProfile="full" viewBox="0 0 200 200" width="200" height="200">
<g fill="black">
<path d="M 89.3 175.0 L 120.6 175.0 L 120.6 130.0 L 104.8 130.0 L 104.8 142.0 L 92.8 148.0 L 92.8 79.0 L 104.8 85.0 L 120.6 85.0 L 120.6 58.0 L 107.3 58.0 L 107.3 70.0 L 96.3 75.5 L 96.3 13.5 L 107.3 19.0 L 120.6 19.0 L 125.6 14.0 L 135.6 23.0 L 130.6 26.0 L 130.6 95.0 L 120.6 100.0 L 120.6 89.0 L 104.8 89.0 L 104.8 126.0 L 120.6 126.0 L 126.1 121.0 L 136.6 130.0 L 131.6 133.5 L 131.6 175.0 L 143.9 175.0 L 143.9 120.5 L 154.9 126.0 L 170.1 126.0 L 170.1 87.0 L 154.9 87.0 L 154.9 93.0 L 143.9 98.5 L 143.9 12.5 L 154.9 18.0 L 168.3 18.0 L 174.3 13.0 L 185.3 22.0 L 180.3 26.0 L 180.3 62.0 L 168.3 68.0 L 168.3 58.0 L 154.9 58.0 L 154.9 83.0 L 170.1 83.0 L 176.1 78.0 L 187.1 87.0 L 182.1 91.0 L 182.1 136.0 L 170.1 142.0 L 170.1 130.0 L 154.9 130.0 L 154.9 175.0 L 164.8 175.0 L 174.8 165.0 L 186.8 175.0 L 186.8 179.0 L 89.3 179.0 Z M 12.5 158.0 L 19.6 155.5 L 26.8 153.0 L 34.1 150.5 L 41.5 148.0 L 49.0 145.4 L 53.33333330154419 143.9555555343628 L 52.4 143.8 L 53.6 133.8 L 54.8 124.4 L 56.0 115.5 L 57.2 107.2 L 58.3 99.4 L 59.3 92.1 L 60.1 85.3 L 60.9 79.1 L 61.5 73.3 L 61.822973823547365 69.10134010314941 L 61.8 69.1 L 61.854545497894286 68.69090909957886 L 61.9 68.1 L 61.93271026611328 68.10467290878296 L 62.2 66.1 L 73.8 69.8 L 76.5 72.2 L 72.99175930023193 73.69425067901611 L 72.7 75.1 L 71.5 80.8 L 70.0 87.1 L 68.4 93.8 L 66.6 101.0 L 64.7 108.7 L 62.5 116.9 L 60.1 125.5 L 57.3 134.6 L 54.35866146087646 143.61377954483032 L 56.5 142.9 L 64.2 140.3 L 71.9 137.8 L 79.9 135.4 L 87.9 133.1 L 88.6 134.8 L 81.3 138.9 L 74.0 142.7 L 66.7 146.4 L 59.4 149.9 L 52.1 153.3 L 45.0 156.6 L 37.8 159.9 L 23.8 166.1 L 20.64134750366211 167.51910476684571 L 19.8 171.2 L 16.9 169.2 L 10.6 158.7 Z M 30.3 120.3 L 29.5 107.5 L 28.9 101.1 L 28.2 94.8 L 27.5 88.4 L 25.1 69.2 L 26.9 68.7 L 29.5 74.7 L 31.9 80.8 L 33.9 87.0 L 35.7 93.4 L 37.3 99.7 L 38.7 106.2 L 39.9 112.7 L 41.0 119.3 L 41.9 126.0 L 42.6 132.6 L 41.0 136.9 L 36.9 138.9 L 32.6 137.4 L 30.6 133.3 L 30.5 126.8 Z M 12.8 56.0 L 41.8 56.0 L 41.8 17.0 L 53.8 19.0 L 56.8 21.0 L 53.8 22.8 L 53.8 56.0 L 64.4 56.0 L 74.4 46.0 L 86.4 56.0 L 86.4 60.0 L 12.8 60.0 Z M 154.9 22.0 L 154.9 54.0 L 168.3 54.0 L 168.3 22.0 Z M 107.3 23.0 L 107.3 54.0 L 120.6 54.0 L 120.6 23.0 Z " />
</g>
</svg>
