<svg xmlns="http://www.w3.org/2000/svg" xmlns:xlink="http://www.w3.org/1999/xlink" version="1.1" baseProfile="full" viewBox="0 0 200 200" width="200" height="200">
<g fill="black">
<path d="M 166.3 173.8 L 160.0 167.4 L 154.4 160.7 L 149.4 153.7 L 145.1 146.4 L 141.5 138.7 L 138.6 130.8 L 136.5 122.6 L 135.7752941131592 117.0 L 119.0 117.0 L 119.0 165.13773584365845 L 120.9 164.6 L 126.3 163.2 L 131.7 161.7 L 137.1 160.4 L 142.5 159.2 L 148.1 158.1 L 148.7 159.8 L 143.9 162.7 L 138.9 165.4 L 133.9 167.9 L 128.9 170.3 L 118.7 174.9 L 113.6 177.0 L 108.4 179.2 L 103.3 181.3 L 102.02107229232789 181.79189529418946 L 101.0 185.5 L 98.1 183.3 L 92.85183248519897 173.27225131988524 L 91.3 175.6 L 87.7 178.0 L 67.0 178.0 L 64.4 177.8 L 61.9 177.4 L 59.5 176.6 L 57.2 175.3 L 55.2 173.7 L 53.6 171.7 L 52.3 169.4 L 51.5 167.0 L 51.1 164.5 L 51.0 162.0 L 51.0 92.2235294342041 L 50.6 96.2 L 48.4 111.8 L 45.6 125.9 L 42.4 138.7 L 38.5 150.1 L 34.2 160.1 L 29.2 168.6 L 23.7 175.7 L 17.5 181.1 L 10.9 184.7 L 10.0 183.2 L 15.0 178.2 L 19.5 172.3 L 23.5 165.3 L 27.2 157.0 L 30.5 147.3 L 33.4 136.3 L 34.10985918045044 132.66197185516359 L 30.8 132.0 L 28.1 128.3 L 27.8 125.2 L 27.4 122.3 L 27.0 119.3 L 25.8 113.7 L 25.1 110.9 L 24.4 108.2 L 23.95 106.85 L 22.7 110.6 L 19.7 118.0 L 16.4 124.6 L 12.7 130.4 L 11.0 129.5 L 12.9 123.1 L 14.7 116.2 L 16.4 108.7 L 18.1 100.7 L 19.5 92.1 L 20.9 82.8 L 22.0 73.0 L 23.0 62.5 L 23.8 51.3 L 24.349173164367677 40.49959363937378 L 24.3 40.5 L 24.440625 39.0 L 11.4 39.0 L 11.4 35.0 L 67.5 35.0 L 77.5 25.0 L 89.5 35.0 L 89.5 39.0 L 57.0 39.0 L 63.0 40.0 L 66.0 42.0 L 63.0 43.8 L 63.0 96.42272729873658 L 63.3 96.0 L 65.6 93.1 L 67.8 90.1 L 72.2 84.3 L 74.2 81.5 L 76.3 78.6 L 77.73179636001586 76.59548511505128 L 77.6 76.5 L 78.7 75.3 L 87.4 83.6 L 88.3 87.1 L 84.35384616851806 86.40769233703614 L 82.0 88.5 L 76.4 93.3 L 73.4 95.7 L 70.4 98.0 L 67.4 100.2 L 64.2 102.4 L 63.0 103.10588235855103 L 63.0 163.2 L 63.2 164.1 L 63.4 164.7 L 63.6 165.0 L 63.7 165.2 L 63.9 165.4 L 64.8 165.7 L 65.7 165.9 L 67.0 166.0 L 81.7 166.0 L 87.7 141.0 L 89.7 141.0 L 87.7 166.0 L 91.3 168.4 L 93.7 172.0 L 93.56046514511108 172.2093023300171 L 94.4 171.9 L 99.7 170.5 L 105.0 169.0 L 107.0 168.47169809341432 L 107.0 117.0 L 91.8 117.0 L 91.8 113.0 L 135.0 113.0 L 135.0 41.0 L 94.1 41.0 L 94.1 37.0 L 135.0 37.0 L 135.0 15.0 L 143.0 17.0 L 145.0 19.0 L 143.0 20.5 L 143.0 37.0 L 166.21818180084227 37.0 L 174.4 28.0 L 184.4 37.0 L 184.4 41.0 L 143.0 41.0 L 143.0 113.0 L 164.7 113.0 L 174.7 103.0 L 186.7 113.0 L 186.7 117.0 L 138.57631578445435 117.0 L 140.5 121.3 L 144.0 128.6 L 147.9 135.5 L 152.2 142.0 L 156.76895914077758 148.0271375656128 L 156.9 147.8 L 158.1 145.0 L 160.5 139.6 L 161.7 137.0 L 165.0 129.5 L 166.0 127.1 L 166.5568388938904 125.67696723937988 L 166.4 125.6 L 167.4 123.9 L 177.2 130.9 L 178.8 134.1 L 174.49350004196168 134.17425003051758 L 173.7 135.1 L 171.8 137.1 L 169.9 139.2 L 167.9 141.3 L 165.8 143.4 L 163.6 145.4 L 161.3 147.4 L 158.9 149.3 L 158.364204788208 149.86130924224852 L 162.1 154.1 L 167.8 159.6 L 174.0 164.8 L 180.8 169.8 L 188.0 174.4 L 191.8 176.9 L 180.8 185.5 L 173.2 179.8 Z M 30.680000019073486 81.0 L 30.0 84.4 L 27.9 93.8 L 25.56297664642334 101.93284130096436 L 27.1 103.4 L 29.1 105.6 L 31.0 108.1 L 32.8 110.7 L 34.4 113.4 L 35.9 116.3 L 36.65284090042114 117.80568180084228 L 37.7 110.2 L 39.2 95.1 L 40.13999996185303 81.0 Z M 108.3 54.8 L 119.2 54.8 L 123.7 49.8 L 133.2 58.8 L 128.2 61.3 L 128.2 93.1 L 119.2 97.6 L 119.2 89.1 L 108.3 89.1 L 108.3 96.1 L 97.3 101.6 L 97.3 49.3 Z M 185.0 58.8 L 180.0 62.3 L 180.0 93.1 L 169.0 98.6 L 169.0 89.1 L 158.1 89.1 L 158.1 96.1 L 149.1 100.6 L 149.1 50.3 L 158.1 54.8 L 169.0 54.8 L 174.5 49.8 Z M 158.1 58.8 L 158.1 85.1 L 169.0 85.1 L 169.0 58.8 Z M 108.3 58.8 L 108.3 85.1 L 119.2 85.1 L 119.2 58.8 Z M 31.070967769622804 39.0 L 36.4 40.4 L 39.2 42.5 L 35.988418674468996 44.167551803588864 L 35.1 52.3 L 33.7 63.7 L 32.0 74.4 L 31.480000019073486 77.0 L 40.3 77.0 L 46.3 72.0 L 51.0 75.84545450210571 L 51.0 39.0 Z " />
</g>
</svg>
