<svg xmlns="http://www.w3.org/2000/svg" xmlns:xlink="http://www.w3.org/1999/xlink" version="1.1" baseProfile="full" viewBox="0 0 200 200" width="200" height="200">
<g fill="black">
<path d="M 187.7 177.0 L 187.7 181.0 L 78.2 181.0 L 78.2 177.0 L 165.7 177.0 L 175.7 167.0 Z M 106.5 123.0 L 161.4 123.0 L 167.4 118.0 L 178.4 127.0 L 173.4 131.0 L 173.4 164.3 L 161.4 170.3 L 161.4 164.3 L 106.5 164.3 L 94.5 170.3 L 94.5 117.0 Z M 106.5 145.1 L 106.5 160.3 L 161.4 160.3 L 161.4 145.1 Z M 30.0 41.7 L 56.9 41.7 L 62.9 36.7 L 73.9 45.7 L 68.9 49.7 L 68.9 140.2 L 56.9 146.2 L 56.9 134.2 L 30.0 134.2 L 30.0 146.2 L 18.0 152.2 L 18.0 35.7 Z M 106.5 127.0 L 106.5 141.1 L 161.4 141.1 L 161.4 127.0 Z M 30.0 45.7 L 30.0 130.2 L 56.9 130.2 L 56.9 45.7 Z M 78.8 105.3 L 127.6 105.3 L 127.6 90.8 L 88.1 90.8 L 88.1 86.8 L 127.6 86.8 L 127.6 70.4 L 94.0 70.4 L 94.0 66.4 L 127.6 66.4 L 127.6 51.0 L 76.9 51.0 L 76.9 47.0 L 127.6 47.0 L 127.6 31.6 L 94.0 31.6 L 94.0 27.6 L 127.6 27.6 L 127.6 11.0 L 139.6 13.0 L 142.6 15.0 L 139.6 16.8 L 139.6 27.6 L 161.9 27.6 L 167.9 22.6 L 178.9 31.6 L 173.9 35.6 L 173.9 47.0 L 176.1777777671814 47.0 L 182.4 40.0 L 190.4 47.0 L 190.4 51.0 L 173.9 51.0 L 173.9 72.4 L 161.9 78.4 L 161.9 70.4 L 139.6 70.4 L 139.6 86.8 L 161.01818180084229 86.8 L 169.2 77.8 L 179.2 86.8 L 179.2 90.8 L 139.6 90.8 L 139.6 105.3 L 170.21818180084227 105.3 L 178.4 96.3 L 188.4 105.3 L 188.4 109.3 L 78.8 109.3 Z M 139.6 51.0 L 139.6 66.4 L 161.9 66.4 L 161.9 51.0 Z M 139.6 31.6 L 139.6 47.0 L 161.9 47.0 L 161.9 31.6 Z " />
</g>
</svg>
