<svg xmlns="http://www.w3.org/2000/svg" xmlns:xlink="http://www.w3.org/1999/xlink" version="1.1" baseProfile="full" viewBox="0 0 200 200" width="200" height="200">
<g fill="black">
<path d="M 150.7 181.6 L 148.7 182.9 L 144.5 184.9 L 142.3 185.6 L 140.0 186.2 L 137.7 186.6 L 135.3 186.9 L 133.0 187.0 L 133.0 181.0 L 113.0 178.0 L 113.0 175.0 L 133.0 175.0 L 134.5 174.9 L 136.0 174.7 L 137.4 174.5 L 138.8 174.1 L 140.1 173.7 L 142.7 172.5 L 143.9 171.7 L 145.1 170.8 L 146.3 169.8 L 148.2 167.6 L 150.2 164.2 L 152.1 159.5 L 153.9 153.7 L 155.4 146.7 L 156.7 138.5 L 157.7 129.3 L 158.4 118.9 L 158.8 107.5 L 158.96800003051757 97.0 L 51.511885261535646 97.0 L 47.7 104.1 L 34.2 103.8 L 49.976898765563966 74.3 L 14.8 74.3 L 14.8 70.3 L 114.95909090042115 70.3 L 116.8 67.3 L 119.3 63.1 L 121.6 59.2 L 123.8 55.4 L 125.8 51.9 L 127.6 48.7 L 129.2 45.6 L 130.6 42.7 L 131.8 40.1 L 132.4401273727417 38.56369428634643 L 132.3 38.5 L 133.4 36.7 L 143.3 43.5 L 145.0 46.7 L 140.7445993423462 46.84425086975098 L 139.5 48.4 L 137.3 51.0 L 134.9 53.8 L 132.2 56.7 L 129.4 59.7 L 126.3 62.8 L 122.9 66.0 L 119.3 69.3 L 118.21428575515748 70.3 L 161.1 70.3 L 171.1 60.3 L 183.1 70.3 L 183.1 74.3 L 53.81599998474121 74.3 L 60.8 79.7 L 62.5 82.8 L 58.80502624511719 83.41582899093628 L 53.65942621231079 93.0 L 159.0 93.0 L 165.0 88.0 L 176.0 97.0 L 171.0 100.0 L 170.92136306762694 100.03276538848877 L 170.8 107.8 L 170.4 119.6 L 169.6 130.3 L 168.6 140.1 L 167.2 148.9 L 165.5 156.7 L 163.5 163.5 L 161.0 169.4 L 158.0 174.5 L 154.4 178.7 L 152.6 180.2 Z M 71.1 115.8 L 122.9 115.8 L 128.9 110.8 L 139.9 119.8 L 134.9 123.8 L 134.9 153.4 L 122.9 159.4 L 122.9 149.4 L 71.1 149.4 L 71.1 156.4 L 59.1 162.4 L 59.1 109.8 Z M 71.1 119.8 L 71.1 145.4 L 122.9 145.4 L 122.9 119.8 Z M 67.2 59.8 L 66.3 57.3 L 65.1 54.7 L 63.8 52.2 L 62.2 49.7 L 60.4 47.1 L 58.5 44.5 L 56.3 41.8 L 53.7 39.3 L 54.7 37.8 L 58.0 39.6 L 61.2 41.2 L 64.2 43.1 L 67.0 45.1 L 69.7 47.3 L 72.1 49.7 L 74.4 52.2 L 76.4 54.9 L 78.2 57.8 L 79.8 60.7 L 79.5 65.3 L 76.2 68.4 L 71.6 68.1 L 68.5 64.8 L 68.0 62.3 Z M 25.7 31.8 L 93.0 31.8 L 93.0 12.8 L 105.0 14.8 L 108.0 16.8 L 105.0 18.6 L 105.0 31.8 L 150.2 31.8 L 160.2 21.8 L 172.2 31.8 L 172.2 35.8 L 25.7 35.8 Z " />
</g>
</svg>
