<svg xmlns="http://www.w3.org/2000/svg" xmlns:xlink="http://www.w3.org/1999/xlink" version="1.1" baseProfile="full" viewBox="0 0 200 200" width="200" height="200">
<g fill="black">
<path d="M 48.0 139.9 L 152.0 139.9 L 158.0 134.9 L 169.0 143.9 L 164.0 147.9 L 164.0 180.2 L 152.0 186.2 L 152.0 178.2 L 48.0 178.2 L 48.0 181.2 L 36.0 187.2 L 36.0 133.9 Z M 48.0 143.9 L 48.0 174.2 L 152.0 174.2 L 152.0 143.9 Z M 38.8 24.0 L 162.1 24.0 L 168.1 19.0 L 179.1 28.0 L 174.1 32.0 L 174.1 127.5 L 162.1 133.5 L 162.1 121.5 L 38.8 121.5 L 38.8 124.5 L 26.8 130.5 L 26.8 18.0 Z M 38.8 28.0 L 38.8 117.5 L 162.1 117.5 L 162.1 28.0 Z M 135.3 78.6 L 131.8 76.8 L 128.0 75.1 L 123.9 73.4 L 119.5 71.6 L 114.8 69.9 L 109.9 68.1 L 104.7 66.2 L 101.3 65.0254545211792 L 101.3 110.9 L 89.3 116.9 L 89.3 29.9 L 101.3 31.9 L 104.3 33.9 L 101.3 35.7 L 101.3 62.558620643615725 L 105.4 62.7 L 111.0 63.1 L 116.3 63.7 L 121.4 64.5 L 126.3 65.4 L 130.8 66.4 L 135.2 67.5 L 139.3 68.7 L 143.2 70.0 L 146.9 71.4 L 149.8 74.9 L 149.5 79.5 L 146.0 82.4 L 141.4 82.1 L 138.5 80.3 Z " />
</g>
</svg>
