<svg xmlns="http://www.w3.org/2000/svg" xmlns:xlink="http://www.w3.org/1999/xlink" version="1.1" baseProfile="full" viewBox="0 0 200 200" width="200" height="200">
<g fill="black">
<path d="M 73.4 186.7 L 70.9 186.2 L 68.5 185.4 L 66.2 184.2 L 64.2 182.5 L 62.6 180.5 L 61.3 178.3 L 60.5 175.9 L 60.1 173.4 L 60.0 170.8 L 60.0 139.1 L 72.0 141.1 L 75.0 143.1 L 72.0 144.9 L 72.0 172.0 L 72.2 172.9 L 72.4 173.5 L 72.5 173.9 L 72.7 174.1 L 72.9 174.2 L 73.2 174.4 L 73.8 174.6 L 74.7 174.7 L 76.0 174.8 L 141.0 174.8 L 147.0 149.8 L 149.0 149.8 L 147.0 174.8 L 150.6 177.2 L 153.0 180.8 L 150.6 184.4 L 147.0 186.8 L 76.0 186.8 Z M 15.3 179.0 L 15.0 174.4 L 17.9 170.9 L 20.7 169.6 L 23.3 168.0 L 25.6 166.1 L 27.8 163.8 L 29.7 161.1 L 31.5 157.9 L 33.0 154.2 L 34.3 150.1 L 35.4 145.5 L 36.1 140.3 L 37.9 140.3 L 38.6 145.6 L 39.0 150.6 L 38.8 155.5 L 38.2 160.1 L 37.0 164.4 L 35.3 168.5 L 33.1 172.3 L 30.4 175.8 L 27.1 178.9 L 23.4 181.6 L 18.8 181.9 Z M 170.3 166.8 L 168.8 163.8 L 167.0 160.8 L 164.8 157.7 L 162.2 154.7 L 159.3 151.6 L 156.1 148.5 L 152.5 145.3 L 148.4 142.2 L 149.3 140.6 L 154.1 142.5 L 158.7 144.5 L 163.0 146.8 L 166.9 149.3 L 170.5 152.0 L 173.8 155.0 L 176.8 158.1 L 179.4 161.5 L 181.7 165.0 L 183.6 168.8 L 183.3 173.4 L 179.9 176.4 L 175.4 176.1 L 172.3 172.8 L 171.5 169.8 Z M 108.3 155.1 L 106.5 152.7 L 104.4 150.3 L 102.2 147.9 L 99.7 145.6 L 97.0 143.2 L 94.1 140.9 L 91.0 138.6 L 87.5 136.5 L 88.2 134.8 L 92.2 135.9 L 96.1 137.0 L 99.9 138.3 L 103.4 139.9 L 106.8 141.6 L 110.1 143.6 L 113.1 145.7 L 116.0 148.1 L 118.7 150.6 L 121.2 153.4 L 122.1 157.9 L 119.7 161.7 L 115.2 162.6 L 111.3 160.2 L 109.9 157.6 Z M 143.1 130.4 L 128.6 126.9 L 115.3 122.7 L 103.1 117.9 L 99.84196090698242 116.30059900283814 L 89.3 120.7 L 75.7 125.2 L 61.2 129.0 L 45.7 132.0 L 29.3 134.1 L 12.0 135.3 L 11.9 133.5 L 28.8 130.3 L 44.7 126.7 L 59.5 122.6 L 73.3 118.0 L 86.1 112.8 L 89.72991189956664 111.00055646896362 L 82.3 106.3 L 73.7 99.5 L 66.5 92.0 L 62.541615676879886 86.20379438400269 L 60.8 89.3 L 58.9 92.3 L 57.0 95.1 L 55.1 97.7 L 53.1 100.2 L 51.2 102.5 L 49.2 104.8 L 48.473954105377196 105.56234817504883 L 48.6 110.1 L 45.3 108.8 L 36.6 100.2 L 38.3 99.1 L 40.4 98.0 L 42.6 96.8 L 44.9 95.4 L 47.3 93.9 L 49.8 92.2 L 52.3 90.4 L 54.9 88.5 L 57.7 86.5 L 60.4619047164917 84.5 L 19.0 84.5 L 19.0 80.5 L 94.0 80.5 L 94.0 59.5 L 106.0 61.5 L 109.0 63.5 L 106.0 65.3 L 106.0 80.5 L 159.0 80.5 L 169.0 70.5 L 181.0 80.5 L 181.0 84.5 L 145.6024390220642 84.5 L 143.4 86.6 L 134.4 94.9 L 124.6 102.5 L 113.7 109.3 L 111.10759191513061 110.65159740447999 L 118.4 113.0 L 131.3 116.1 L 145.3 118.8 L 160.4 120.8 L 176.6 122.3 L 187.2 123.3 L 175.3 135.5 L 158.7 133.2 Z M 69.5 89.1 L 77.4 94.9 L 86.1 100.2 L 95.8 105.0 L 99.05013275146484 106.26394052505493 L 108.5 100.7 L 118.2 93.9 L 126.9 86.4 L 128.65384616851807 84.5 L 64.325 84.5 Z M 40.3 20.4 L 70.6 20.4 L 76.6 15.4 L 87.6 24.4 L 82.6 28.4 L 82.6 62.5 L 70.6 68.5 L 70.6 58.5 L 40.3 58.5 L 40.3 65.5 L 28.3 71.5 L 28.3 14.4 Z M 127.3 19.4 L 157.6 19.4 L 163.6 14.4 L 174.6 23.4 L 169.6 27.4 L 169.6 61.5 L 157.6 67.5 L 157.6 57.5 L 127.3 57.5 L 127.3 64.5 L 115.3 70.5 L 115.3 13.4 Z M 40.3 24.4 L 40.3 54.5 L 70.6 54.5 L 70.6 24.4 Z M 127.3 23.4 L 127.3 53.5 L 157.6 53.5 L 157.6 23.4 Z " />
</g>
</svg>
