<svg xmlns="http://www.w3.org/2000/svg" xmlns:xlink="http://www.w3.org/1999/xlink" version="1.1" baseProfile="full" viewBox="0 0 200 200" width="200" height="200">
<g fill="black">
<path d="M 81.8 74.3 L 119.1 74.3 L 125.1 69.3 L 136.1 78.3 L 131.1 82.3 L 131.1 130.7 L 119.1 136.7 L 119.1 128.7 L 106.5 128.7 L 106.5 148.5 L 118.4 148.5 L 128.4 138.5 L 140.4 148.5 L 140.4 152.5 L 106.5 152.5 L 106.5 183.2 L 94.5 189.2 L 94.5 152.5 L 60.5 152.5 L 60.5 148.5 L 94.5 148.5 L 94.5 128.7 L 81.8 128.7 L 81.8 131.7 L 69.8 137.7 L 69.8 68.3 Z M 12.7 146.3 L 15.6 144.9 L 18.6 143.3 L 21.8 141.5 L 25.1 139.4 L 28.6 137.2 L 32.2 134.7 L 35.9 132.1 L 39.9 129.3 L 43.5 126.75365858078003 L 43.5 72.0 L 15.0 72.0 L 15.0 68.0 L 43.5 68.0 L 43.5 13.0 L 54.5 15.0 L 57.2 17.0 L 54.5 18.723404216766358 L 54.5 181.2 L 43.5 186.7 L 43.5 132.515625 L 43.2 132.9 L 40.0 136.7 L 36.9 140.2 L 33.8 143.5 L 30.7 146.5 L 27.7 149.3 L 24.7 152.0 L 22.37395830154419 153.925 L 22.2 158.1 L 18.9 156.6 L 11.0 147.3 Z M 157.6 174.2 L 155.1 173.7 L 152.7 172.8 L 150.5 171.6 L 148.6 169.9 L 147.0 167.9 L 145.8 165.7 L 145.1 163.3 L 144.7 160.9 L 144.6 158.4 L 144.6 12.6 L 155.6 14.6 L 158.4 16.6 L 155.6 18.35 L 155.6 85.06551723480224 L 158.3 81.9 L 161.3 78.3 L 164.2 74.5 L 167.2 70.4 L 170.1 66.1 L 173.0 61.5 L 175.9 56.5 L 178.8 51.3 L 179.3 50.4 L 189.1 57.5 L 190.6 60.8 L 186.81538457870482 60.8 L 185.5 62.7 L 181.8 67.6 L 178.1 72.1 L 174.4 76.3 L 170.6 80.2 L 166.7 83.6 L 162.8 86.7 L 158.8 89.4 L 155.6 91.16000003814698 L 155.6 158.4 L 155.7 159.6 L 156.0 160.6 L 156.2 161.2 L 156.5 161.6 L 156.7 161.8 L 157.3 162.1 L 158.0 162.2 L 158.9 162.3 L 160.1 162.4 L 179.7 162.4 L 185.7 137.4 L 187.7 137.4 L 185.7 162.4 L 189.3 164.8 L 191.7 168.4 L 189.3 172.0 L 185.7 174.4 L 160.1 174.4 Z M 81.8 103.5 L 81.8 124.7 L 94.5 124.7 L 94.5 103.5 Z M 106.5 103.5 L 106.5 124.7 L 119.1 124.7 L 119.1 103.5 Z M 81.8 78.3 L 81.8 99.5 L 94.5 99.5 L 94.5 78.3 Z M 106.5 78.3 L 106.5 99.5 L 119.1 99.5 L 119.1 78.3 Z M 102.0 26.3 L 97.0 28.8 L 97.0 59.6 L 88.0 64.1 L 88.0 57.6 L 75.7 57.6 L 75.7 60.6 L 65.7 65.6 L 65.7 17.3 L 75.7 22.3 L 88.0 22.3 L 92.5 17.3 Z M 139.8 26.3 L 134.8 29.3 L 134.8 59.6 L 124.8 64.6 L 124.8 57.6 L 112.8 57.6 L 112.8 60.6 L 103.8 65.1 L 103.8 17.8 L 112.8 22.3 L 124.8 22.3 L 129.8 17.3 Z M 112.8 26.3 L 112.8 53.6 L 124.8 53.6 L 124.8 26.3 Z M 75.7 26.3 L 75.7 53.6 L 88.0 53.6 L 88.0 26.3 Z " />
</g>
</svg>
