<svg xmlns="http://www.w3.org/2000/svg" xmlns:xlink="http://www.w3.org/1999/xlink" version="1.1" baseProfile="full" viewBox="0 0 200 200" width="200" height="200">
<g fill="black">
<path d="M 44.0 150.0 L 156.0 150.0 L 162.0 145.0 L 173.0 154.0 L 168.0 158.0 L 168.0 181.0 L 156.0 187.0 L 156.0 179.0 L 44.0 179.0 L 44.0 182.0 L 32.0 188.0 L 32.0 144.0 Z M 44.0 154.0 L 44.0 175.0 L 156.0 175.0 L 156.0 154.0 Z M 55.0 112.0 L 145.0 112.0 L 151.0 107.0 L 162.0 116.0 L 157.0 120.0 L 157.0 138.0 L 145.0 144.0 L 145.0 138.0 L 55.0 138.0 L 43.0 144.0 L 43.0 106.0 Z M 55.0 116.0 L 55.0 134.0 L 145.0 134.0 L 145.0 116.0 Z M 71.6 19.1 L 72.8 22.5 L 69.01184434890747 22.173434829711915 L 66.8 24.8 L 61.8 30.4 L 56.6 35.7 L 51.2 41.0 L 46.5991735458374 45.11652889251709 L 51.3 45.9 L 54.3 47.9 L 51.3 49.7 L 51.3 100.7 L 39.3 106.7 L 39.3 51.232258033752444 L 33.4 55.8 L 27.0 60.3 L 20.3 64.6 L 13.3 68.5 L 12.2 67.1 L 18.0 61.5 L 23.6 56.1 L 29.1 50.8 L 34.5 45.4 L 39.6 40.0 L 44.5 34.5 L 49.2 29.0 L 53.6 23.4 L 57.9 17.7 L 61.32700510025025 12.816517734527588 L 61.3 12.8 L 61.661194038391116 12.340298461914063 L 61.9 12.0 L 61.918139362335204 12.01327724456787 L 62.4 11.4 Z M 152.4 98.3 L 141.9 93.6 L 132.6 88.4 L 128.37134809494017 85.44503841400146 L 119.0 90.7 L 107.1 95.8 L 93.9 100.0 L 79.4 103.3 L 63.6 105.6 L 63.3 103.8 L 78.5 99.6 L 92.2 94.9 L 104.5 89.7 L 115.4 84.0 L 121.36915826797485 79.99939393997192 L 117.2 76.3 L 111.3 69.5 L 106.7 62.1 L 103.5 54.3 L 102.40209426879883 49.298429298400876 L 101.6 49.9 L 96.1 53.5 L 90.2 56.8 L 83.9 59.7 L 82.9 58.2 L 88.0 53.7 L 92.8 49.2 L 97.4 44.8 L 101.6 40.4 L 105.4 36.0 L 108.9 31.4 L 112.1 26.8 L 114.9 22.2 L 117.4 17.4 L 119.1747636795044 13.527788257598877 L 119.1 13.5 L 120.1 11.4 L 130.4 17.7 L 132.2 20.8 L 128.35408582687378 21.19785318374634 L 127.3 23.0 L 123.9 28.0 L 120.2 32.8 L 116.0 37.4 L 115.7 37.7 L 164.3 37.7 L 174.3 27.7 L 186.3 37.7 L 186.3 41.7 L 162.52211542129515 41.7 L 159.0 51.6 L 153.7 61.2 L 147.1 70.0 L 139.0 77.8 L 137.09858894348145 79.21072435379028 L 137.6 79.5 L 146.5 83.5 L 156.4 87.2 L 167.4 90.3 L 179.4 93.1 L 188.2 95.1 L 176.4 105.9 L 163.9 102.4 Z M 79.0 38.1 L 82.0 40.1 L 79.0 41.9 L 79.0 86.1 L 67.0 92.1 L 67.0 36.1 Z M 111.7 41.7 L 111.6 41.8 L 106.8 46.0 L 104.55919399261475 47.68060455322266 L 107.3 52.6 L 111.7 58.9 L 116.8 64.8 L 122.8 70.1 L 128.8 74.3 L 132.8 70.9 L 139.3 63.5 L 144.5 55.7 L 148.4 47.3 L 150.08000001907348 41.7 Z " />
</g>
</svg>
