<svg xmlns="http://www.w3.org/2000/svg" xmlns:xlink="http://www.w3.org/1999/xlink" version="1.1" baseProfile="full" viewBox="0 0 200 200" width="200" height="200">
<g fill="black">
<path d="M 128.4 177.0 L 140.4 177.0 L 141.6 176.9 L 142.5 176.7 L 143.1 176.5 L 143.5 176.4 L 143.7 176.2 L 143.8 176.0 L 144.0 175.7 L 144.2 175.1 L 144.3 174.2 L 144.4 173.0 L 144.4 67.0 L 156.4 69.0 L 159.4 71.0 L 156.4 72.8 L 156.4 173.0 L 156.3 175.5 L 155.8 178.0 L 155.0 180.4 L 153.8 182.7 L 152.1 184.7 L 150.1 186.3 L 147.9 187.6 L 145.5 188.4 L 143.0 188.8 L 140.4 189.0 L 140.4 183.0 L 128.4 180.0 Z M 107.3 124.3 L 106.4 121.5 L 105.3 118.6 L 104.0 115.8 L 102.7 112.9 L 100.9 109.6375 L 100.9 183.0 L 88.9 189.0 L 88.9 113.3615385055542 L 88.6 113.8 L 83.1 121.1 L 77.1 128.0 L 70.7 134.5 L 69.3 133.4 L 74.1 125.7 L 78.7 118.0 L 83.1 110.3 L 87.3 102.5 L 88.9 99.13157892227173 L 88.9 97.0 L 89.9125 97.0 L 91.1 94.5 L 94.7 86.4 L 98.1 78.1 L 101.1 69.6 L 103.8 61.0 L 105.23678159713745 56.0 L 72.8 56.0 L 72.8 52.0 L 88.9 52.0 L 88.9 12.0 L 100.9 14.0 L 103.9 16.0 L 100.9 17.8 L 100.9 52.0 L 106.0 52.0 L 112.0 47.0 L 123.0 56.0 L 118.0 59.0 L 116.36480684280396 59.6813304901123 L 114.6 64.7 L 111.1 73.5 L 107.3 82.0 L 103.1 90.3 L 99.3777777671814 97.0 L 100.9 97.0 L 100.9 103.0 L 102.7 104.2 L 105.5 106.5 L 108.1 109.0 L 110.5 111.5 L 112.7 114.2 L 114.8 117.0 L 116.7 120.0 L 118.5 123.0 L 120.1 126.2 L 119.7 130.7 L 116.3 133.8 L 111.7 133.4 L 108.7 130.0 L 108.1 127.2 Z M 139.3 103.9 L 141.9 106.4 L 138.40513277053833 107.75911502838134 L 137.7 110.8 L 135.9 117.6 L 133.9 124.2 L 131.7 130.7 L 129.2 137.1 L 126.5 143.3 L 123.6 149.4 L 120.3 155.3 L 116.8 160.9 L 112.8 166.4 L 111.3 165.5 L 113.4 159.3 L 115.5 153.0 L 117.5 146.8 L 119.4 140.6 L 121.2 134.3 L 122.8 128.0 L 124.2 121.6 L 125.4 115.1 L 126.5 108.6 L 127.4 101.9 L 127.43707160949707 101.90623054504394 L 127.7 100.0 Z M 173.8 145.4 L 172.6 139.4 L 171.3 133.5 L 169.8 127.8 L 168.2 122.3 L 166.5 116.9 L 164.8 111.6 L 163.0 106.4 L 161.2 101.3 L 162.7 100.3 L 166.3 104.6 L 169.6 109.3 L 172.5 114.3 L 175.3 119.5 L 177.8 125.0 L 180.1 130.8 L 182.3 136.7 L 184.2 142.9 L 186.0 149.3 L 187.6 155.9 L 186.6 160.4 L 182.8 162.9 L 178.3 161.9 L 175.8 158.1 L 174.9 151.7 Z M 29.8 41.7 L 51.4 41.7 L 57.4 36.7 L 68.4 45.7 L 63.4 49.7 L 63.4 140.2 L 51.4 146.2 L 51.4 134.2 L 29.8 134.2 L 29.8 146.2 L 17.8 152.2 L 17.8 35.7 Z M 29.8 45.7 L 29.8 130.2 L 51.4 130.2 L 51.4 45.7 Z M 145.7 19.0 L 148.3 21.5 L 144.82663316726683 22.850753784179688 L 143.5 28.7 L 141.2 38.0 L 138.6 46.8 L 135.9 55.3 L 135.6375 56.0 L 173.7 56.0 L 174.13304347991942 55.639130401611325 L 174.2 55.4 L 174.34089307785035 55.46592245101929 L 179.7 51.0 L 190.7 60.0 L 185.7 63.0 L 182.49183673858641 64.33673467636109 L 182.1 64.9 L 180.5 67.4 L 178.8 70.0 L 177.0 72.8 L 175.1 75.8 L 173.0 78.9 L 170.8 82.2 L 168.4 85.6 L 166.2 89.3 L 164.5 88.6 L 165.8 84.5 L 166.8 80.4 L 167.9 76.6 L 168.9 73.0 L 169.9 69.6 L 170.9 66.4 L 171.8 63.3 L 172.7 60.5 L 172.85384616851806 60.0 L 134.1375 60.0 L 132.9 63.3 L 129.8 70.9 L 126.5 78.0 L 122.9 84.7 L 119.0 90.8 L 114.8 96.4 L 113.2 95.5 L 115.6 89.1 L 118.0 82.4 L 120.4 75.5 L 122.7 68.2 L 124.9 60.6 L 127.0 52.6 L 128.9 44.3 L 130.7 35.5 L 132.4 26.4 L 133.7569948196411 17.80569944381714 L 133.7 17.8 L 134.3 14.9 Z " />
</g>
</svg>
