<svg xmlns="http://www.w3.org/2000/svg" xmlns:xlink="http://www.w3.org/1999/xlink" version="1.1" baseProfile="full" viewBox="0 0 200 200" width="200" height="200">
<g fill="black">
<path d="M 15.0 137.8 L 15.0 133.8 L 40.0 133.8 L 40.0 94.7 L 52.0 100.7 L 79.0 100.7 L 85.0 95.7 L 96.0 104.7 L 91.0 108.7 L 91.0 133.8 L 113.0 133.8 L 113.0 94.7 L 125.0 100.7 L 153.0 100.7 L 159.0 95.7 L 170.0 104.7 L 165.0 108.7 L 165.0 133.8 L 169.8181818008423 133.8 L 178.0 124.8 L 188.0 133.8 L 188.0 137.8 L 165.0 137.8 L 165.0 172.5 L 164.8 175.1 L 164.4 177.6 L 163.6 180.0 L 162.3 182.2 L 160.7 184.2 L 158.7 185.9 L 156.4 187.1 L 154.0 187.9 L 151.5 188.4 L 149.0 188.5 L 149.0 182.5 L 129.0 179.5 L 129.0 176.5 L 149.0 176.5 L 150.2 176.4 L 151.1 176.3 L 151.7 176.1 L 152.0 175.9 L 152.2 175.8 L 152.4 175.6 L 152.5 175.2 L 152.7 174.6 L 152.9 173.7 L 153.0 172.5 L 153.0 137.8 L 125.0 137.8 L 125.0 142.6 L 124.4 148.9 L 123.3 154.8 L 121.7 160.4 L 119.6 165.6 L 116.9 170.3 L 113.8 174.6 L 110.1 178.4 L 106.0 181.7 L 101.4 184.4 L 96.4 186.4 L 95.5 184.9 L 99.2 181.3 L 102.5 177.8 L 105.2 174.1 L 107.6 170.3 L 109.5 166.3 L 111.0 162.1 L 112.1 157.7 L 112.8 153.0 L 113.1 148.0 L 113.0 142.6 L 113.0 137.8 L 91.0 137.8 L 91.0 172.0 L 90.8 174.5 L 90.4 177.0 L 89.6 179.4 L 88.3 181.7 L 86.7 183.7 L 84.7 185.4 L 82.4 186.6 L 80.0 187.4 L 77.5 187.8 L 75.0 188.0 L 75.0 182.0 L 55.0 179.0 L 55.0 176.0 L 75.0 176.0 L 76.2 175.9 L 77.1 175.8 L 77.7 175.6 L 78.0 175.4 L 78.4 175.0 L 78.7 174.1 L 78.9 173.2 L 79.0 172.0 L 79.0 137.8 L 52.0 137.8 L 52.0 141.6 L 51.4 148.0 L 50.2 154.1 L 48.4 159.8 L 46.1 165.2 L 43.1 170.1 L 39.6 174.5 L 35.6 178.5 L 31.0 181.9 L 26.0 184.7 L 20.4 187.0 L 19.5 185.4 L 23.8 181.6 L 27.6 177.8 L 30.8 173.9 L 33.6 169.9 L 35.8 165.8 L 37.5 161.5 L 38.8 156.9 L 39.6 152.1 L 40.0 147.0 L 40.0 137.8 Z M 52.0 104.7 L 52.0 133.8 L 79.0 133.8 L 79.0 104.7 Z M 125.0 104.7 L 125.0 133.8 L 153.0 133.8 L 153.0 104.7 Z M 134.0 82.9 L 155.2 82.9 L 156.1 82.7 L 156.7 82.5 L 157.0 82.3 L 157.2 82.2 L 157.4 82.0 L 157.7 81.1 L 157.9 80.2 L 158.0 78.9 L 158.0 23.3 L 26.0 23.3 L 26.0 19.3 L 158.0 19.3 L 164.0 14.3 L 175.0 23.3 L 170.0 27.3 L 170.0 78.9 L 169.8 81.5 L 169.4 84.0 L 168.6 86.4 L 167.3 88.7 L 165.7 90.7 L 163.7 92.3 L 161.4 93.6 L 159.0 94.4 L 156.5 94.8 L 154.0 94.9 L 154.0 88.9 L 134.0 85.9 Z M 52.7 47.6 L 106.2 47.6 L 112.2 42.6 L 123.2 51.6 L 118.2 55.6 L 118.2 75.3 L 106.2 81.3 L 106.2 73.3 L 52.7 73.3 L 52.7 76.3 L 40.7 82.3 L 40.7 41.6 Z M 52.7 51.6 L 52.7 69.3 L 106.2 69.3 L 106.2 51.6 Z M 140.2 33.5 L 140.2 37.5 L 19.8 37.5 L 19.8 33.5 L 122.01818180084229 33.5 L 130.2 24.5 Z " />
</g>
</svg>
