<svg xmlns="http://www.w3.org/2000/svg" xmlns:xlink="http://www.w3.org/1999/xlink" version="1.1" baseProfile="full" viewBox="0 0 200 200" width="200" height="200">
<g fill="black">
<path d="M 107.0 140.0 L 159.0 140.0 L 165.0 135.0 L 176.0 144.0 L 171.0 148.0 L 171.0 179.0 L 159.0 185.0 L 159.0 175.0 L 107.0 175.0 L 107.0 182.0 L 95.0 188.0 L 95.0 134.0 Z M 107.0 144.0 L 107.0 171.0 L 159.0 171.0 L 159.0 144.0 Z M 30.0 41.7 L 56.9 41.7 L 62.9 36.7 L 73.9 45.7 L 68.9 49.7 L 68.9 140.2 L 56.9 146.2 L 56.9 134.2 L 30.0 134.2 L 30.0 146.2 L 18.0 152.2 L 18.0 35.7 Z M 30.0 45.7 L 30.0 130.2 L 56.9 130.2 L 56.9 45.7 Z M 83.0 91.0 L 127.0 91.0 L 127.0 75.0 L 139.0 77.0 L 142.0 79.0 L 139.0 80.8 L 139.0 91.0 L 159.0 91.0 L 169.0 81.0 L 181.0 91.0 L 181.0 95.0 L 157.4014705657959 95.0 L 165.7 100.7 L 167.4 103.9 L 162.80809564590453 104.05565776824952 L 162.5 104.4 L 160.7 106.4 L 158.5 108.6 L 156.2 111.0 L 153.6 113.6 L 150.7 116.3 L 147.6 119.2 L 144.1 122.2 L 143.25151519775392 123.0 L 167.8181818008423 123.0 L 176.0 114.0 L 186.0 123.0 L 186.0 127.0 L 79.0 127.0 L 79.0 123.0 L 140.21000003814697 123.0 L 141.9 120.4 L 144.2 116.4 L 146.3 112.8 L 148.2 109.4 L 150.0 106.3 L 151.5 103.5 L 152.8 100.9 L 153.8 98.6 L 154.7 96.6 L 154.90803785324096 95.89267139434814 L 154.7 95.8 L 155.1631579399109 95.0 L 83.0 95.0 Z M 109.9 113.4 L 109.4 111.4 L 108.8 109.3 L 108.0 107.3 L 107.1 105.3 L 104.7 101.1 L 103.2 99.0 L 101.3 97.3 L 102.3 95.8 L 104.7 97.1 L 107.2 98.2 L 109.6 99.6 L 111.8 101.2 L 113.9 102.9 L 115.9 104.9 L 117.7 107.0 L 119.3 109.4 L 120.7 111.9 L 122.0 114.5 L 121.3 119.0 L 117.7 121.8 L 113.2 121.2 L 110.4 117.6 L 110.2 115.5 Z M 119.7 52.6 L 118.6 51.2 L 117.3 49.7 L 115.6 48.2 L 113.7 46.6 L 111.6 44.9 L 109.2 43.1 L 106.6 41.3 L 106.35037593841552 41.17518796920776 L 105.2 42.1 L 99.8 46.0 L 94.1 49.6 L 93.388782787323 49.991169452667236 L 94.6 50.2 L 97.4 50.9 L 100.0 51.7 L 102.5 52.6 L 104.9 53.5 L 107.2 54.6 L 109.4 55.7 L 113.4 58.3 L 114.9 62.7 L 113.0 66.8 L 108.7 68.3 L 104.5 66.5 L 103.7 65.0 L 102.7 63.5 L 101.5 62.0 L 100.2 60.4 L 96.9 57.1 L 95.0 55.4 L 93.0 53.7 L 90.8 51.9 L 90.35441694259643 51.660070705413816 L 88.1 52.9 L 81.7 55.8 L 74.9 58.4 L 74.1 56.8 L 79.8 52.6 L 85.2 48.4 L 90.3 44.2 L 95.1 40.0 L 99.6 35.7 L 103.8 31.3 L 107.7 26.9 L 111.2 22.3 L 114.5 17.7 L 116.88805818557739 13.747352027893067 L 116.8 13.7 L 117.9 12.1 L 127.4 19.4 L 128.9 22.7 L 124.99266357421875 22.56754789352417 L 123.6 24.4 L 120.35416669845581 28.2 L 154.0 28.2 L 154.2987854003906 27.951012134552002 L 154.9 27.0 L 155.2080536842346 27.193288612365723 L 160.0 23.2 L 171.0 32.2 L 166.0 35.2 L 162.88813562393187 36.496610164642334 L 158.6 42.5 L 151.4 50.9 L 143.7 58.6 L 135.3 65.7 L 126.4 72.0 L 116.8 77.7 L 106.7 82.6 L 96.1 86.7 L 84.8 90.0 L 73.0 92.5 L 72.6 90.7 L 83.6 86.4 L 94.0 81.7 L 103.8 76.7 L 113.0 71.1 L 121.5 65.1 L 129.4 58.5 L 136.7 51.5 L 143.3 43.9 L 149.4 35.7 L 151.61264371871948 32.2 L 116.5 32.2 L 115.0 33.7 L 110.3 38.0 L 108.69872369766236 39.28730058670044 L 110.7 39.6 L 113.7 40.2 L 116.5 41.0 L 119.2 41.7 L 121.6 42.6 L 123.9 43.5 L 126.0 44.4 L 128.0 45.5 L 129.8 46.7 L 131.4 51.0 L 129.6 55.2 L 125.3 56.7 L 121.1 54.9 L 120.6 53.8 Z " />
</g>
</svg>
