<svg xmlns="http://www.w3.org/2000/svg" xmlns:xlink="http://www.w3.org/1999/xlink" version="1.1" baseProfile="full" viewBox="0 0 200 200" width="200" height="200">
<g fill="black">
<path d="M 146.7 178.2 L 161.9 178.2 L 162.8 178.0 L 163.4 177.8 L 163.7 177.6 L 163.9 177.5 L 164.1 177.3 L 164.3 177.0 L 164.4 176.4 L 164.6 175.5 L 164.7 174.2 L 164.7 110.2 L 129.97209300994874 110.2 L 137.2 117.6 L 138.0 121.1 L 133.7873737335205 120.21313133239747 L 128.2 124.1 L 125.8 125.7 L 120.6 128.7 L 117.9 130.2 L 115.1 131.5 L 112.5 133.1 L 111.4 131.7 L 113.5 129.5 L 115.4 127.1 L 117.2 124.7 L 119.0 122.4 L 120.7 120.1 L 122.4 117.9 L 124.0 115.7 L 125.6 113.6 L 127.0 111.5 L 127.9273959159851 110.20164566040039 L 127.92533330917358 110.2 L 35.2 110.2 L 35.2 184.8 L 23.2 190.8 L 23.2 100.2 L 35.2 106.2 L 164.7 106.2 L 170.7 101.2 L 181.7 110.2 L 176.7 114.2 L 176.7 174.2 L 176.5 176.8 L 176.1 179.3 L 175.3 181.7 L 174.1 183.9 L 172.4 186.0 L 170.4 187.6 L 168.1 188.8 L 165.7 189.6 L 163.2 190.1 L 160.7 190.2 L 160.7 184.2 L 146.7 181.2 Z M 145.3 133.8 L 145.3 137.8 L 106.5 137.8 L 106.5 154.5 L 133.0 154.5 L 143.0 144.5 L 155.0 154.5 L 155.0 158.5 L 106.5 158.5 L 106.5 183.2 L 94.5 189.2 L 94.5 158.5 L 45.9 158.5 L 45.9 154.5 L 94.5 154.5 L 94.5 137.8 L 55.6 137.8 L 55.6 133.8 L 127.11818180084228 133.8 L 135.3 124.8 Z M 78.7 127.5 L 77.9 126.0 L 76.7 124.4 L 75.3 122.8 L 73.6 121.1 L 71.6 119.4 L 69.4 117.7 L 66.9 115.8 L 64.0 114.4 L 64.6 112.7 L 67.8 113.6 L 71.0 114.1 L 74.0 114.8 L 76.8 115.7 L 79.4 116.7 L 81.8 117.8 L 84.1 119.1 L 86.3 120.6 L 88.2 122.2 L 90.0 124.1 L 90.5 128.6 L 87.8 132.3 L 83.2 132.8 L 79.6 130.1 L 79.3 128.9 Z M 186.0 24.0 L 186.0 28.0 L 145.0 28.0 L 145.0 89.23062496185302 L 159.93024787902831 89.13731098175049 L 169.9 79.0 L 181.9 89.0 L 182.0 92.9 L 22.0 93.9 L 21.9 90.0 L 55.0 89.79312496185302 L 55.0 28.0 L 14.0 28.0 L 14.0 24.0 L 164.0 24.0 L 174.0 14.0 Z M 67.0 71.0 L 67.0 89.71812496185302 L 133.0 89.30562496185303 L 133.0 71.0 Z M 67.0 49.0 L 67.0 67.0 L 133.0 67.0 L 133.0 49.0 Z M 67.0 28.0 L 67.0 45.0 L 133.0 45.0 L 133.0 28.0 Z " />
</g>
</svg>
