<svg xmlns="http://www.w3.org/2000/svg" xmlns:xlink="http://www.w3.org/1999/xlink" version="1.1" baseProfile="full" viewBox="0 0 200 200" width="200" height="200">
<g fill="black">
<path d="M 147.0 127.1 L 169.0 127.1 L 175.0 122.1 L 186.0 131.1 L 181.0 135.1 L 181.0 176.8 L 169.0 182.8 L 169.0 172.8 L 147.0 172.8 L 147.0 179.8 L 135.0 185.8 L 135.0 121.1 Z M 89.0 127.1 L 111.0 127.1 L 117.0 122.1 L 128.0 131.1 L 123.0 135.1 L 123.0 176.8 L 111.0 182.8 L 111.0 172.8 L 89.0 172.8 L 89.0 179.8 L 77.0 185.8 L 77.0 121.1 Z M 31.0 127.1 L 53.0 127.1 L 59.0 122.1 L 70.0 131.1 L 65.0 135.1 L 65.0 176.8 L 53.0 182.8 L 53.0 172.8 L 31.0 172.8 L 31.0 179.8 L 19.0 185.8 L 19.0 121.1 Z M 147.0 131.1 L 147.0 168.8 L 169.0 168.8 L 169.0 131.1 Z M 89.0 131.1 L 89.0 168.8 L 111.0 168.8 L 111.0 131.1 Z M 31.0 131.1 L 31.0 168.8 L 53.0 168.8 L 53.0 131.1 Z M 162.2 112.0 L 159.4 109.3 L 156.2 106.5 L 152.4 103.8 L 152.09202127456666 103.59468088150024 L 140.2 105.1 L 124.9 106.8 L 110.2 108.3 L 96.1 109.6 L 82.7 110.7 L 69.8 111.7 L 57.4 112.6 L 45.7 113.3 L 34.6 114.0 L 28.100243091583252 114.37141466140747 L 26.1 117.5 L 24.1 114.6 L 21.8 102.6 L 45.4 102.6 L 57.1 102.5 L 69.3 102.4 L 82.2 102.2 L 94.0 102.0264705657959 L 94.0 85.0 L 51.0 85.0 L 51.0 92.0 L 39.0 98.0 L 39.0 35.6 L 51.0 41.6 L 94.0 41.6 L 94.0 30.7 L 16.0 30.7 L 16.0 26.7 L 94.0 26.7 L 94.0 12.8 L 106.0 14.8 L 109.0 16.8 L 106.0 18.6 L 106.0 26.7 L 165.8181818008423 26.7 L 174.0 17.7 L 184.0 26.7 L 184.0 30.7 L 106.0 30.7 L 106.0 41.6 L 149.0 41.6 L 155.0 36.6 L 166.0 45.6 L 161.0 49.6 L 161.0 85.0 L 149.0 91.0 L 149.0 85.0 L 106.0 85.0 L 106.0 101.78297872543335 L 109.9 101.7 L 124.6 101.5 L 139.9 101.3 L 148.65 101.3 L 148.2 101.0 L 143.4 98.3 L 138.3 95.5 L 132.7 92.5 L 126.6 89.5 L 127.2 87.8 L 133.9 89.0 L 140.2 90.5 L 146.1 92.2 L 151.5 94.2 L 156.6 96.4 L 161.2 98.7 L 165.5 101.2 L 169.3 103.9 L 172.8 106.9 L 175.9 110.0 L 177.0 114.4 L 174.8 118.4 L 170.3 119.5 L 166.4 117.3 L 164.5 114.7 Z M 51.0 65.9 L 51.0 81.0 L 94.0 81.0 L 94.0 65.9 Z M 106.0 65.9 L 106.0 81.0 L 149.0 81.0 L 149.0 65.9 Z M 51.0 45.6 L 51.0 61.9 L 94.0 61.9 L 94.0 45.6 Z M 106.0 45.6 L 106.0 61.9 L 149.0 61.9 L 149.0 45.6 Z " />
</g>
</svg>
