<svg xmlns="http://www.w3.org/2000/svg" xmlns:xlink="http://www.w3.org/1999/xlink" version="1.1" baseProfile="full" viewBox="0 0 200 200" width="200" height="200">
<g fill="black">
<path d="M 153.1 180.8 L 149.1 178.1 L 144.8 175.4 L 140.2 172.9 L 135.2 170.3 L 129.8 167.8 L 124.1 165.4 L 118.1 162.8 L 111.7 160.1 L 112.1 158.4 L 119.1 159.1 L 125.7 160.2 L 131.9 161.6 L 137.9 163.3 L 143.5 165.1 L 148.9 167.1 L 153.9 169.3 L 158.7 171.6 L 163.2 174.1 L 167.3 176.8 L 169.5 180.9 L 168.3 185.3 L 164.3 187.4 L 159.9 186.2 L 156.7 183.5 Z M 79.00389394760131 158.46835126876832 L 84.9 164.5 L 85.1 167.9 L 81.33274974822999 166.36755924224855 L 77.6 168.2 L 72.0 170.8 L 66.1 173.3 L 60.0 175.7 L 53.6 178.0 L 47.0 180.2 L 40.2 182.3 L 33.2 184.2 L 25.8 185.9 L 18.2 187.3 L 17.7 185.6 L 24.6 182.3 L 31.4 179.1 L 37.9 176.1 L 44.3 173.2 L 50.3 170.2 L 56.2 167.2 L 61.8 164.2 L 67.1 161.2 L 72.2 158.2 L 76.27377548217774 155.70585174560546 L 76.2 155.6 L 76.29235401153565 155.69447708129883 L 77.1 155.2 Z M 185.0 150.1 L 185.0 154.1 L 15.0 154.1 L 15.0 150.1 L 163.0 150.1 L 173.0 140.1 Z M 60.1 75.6 L 139.9 75.6 L 145.9 70.6 L 156.9 79.6 L 151.9 83.6 L 151.9 137.3 L 139.9 143.3 L 139.9 137.3 L 60.1 137.3 L 48.1 143.3 L 48.1 69.6 Z M 60.1 117.3 L 60.1 133.3 L 139.9 133.3 L 139.9 117.3 Z M 60.1 98.4 L 60.1 113.3 L 139.9 113.3 L 139.9 98.4 Z M 60.1 79.6 L 60.1 94.4 L 139.9 94.4 L 139.9 79.6 Z M 60.0 22.8 L 140.0 22.8 L 146.0 17.8 L 157.0 26.8 L 152.0 30.8 L 152.0 60.0 L 140.0 66.0 L 140.0 58.0 L 60.0 58.0 L 60.0 61.0 L 48.0 67.0 L 48.0 16.8 Z M 60.0 26.8 L 60.0 54.0 L 140.0 54.0 L 140.0 26.8 Z " />
</g>
</svg>
