<svg xmlns="http://www.w3.org/2000/svg" xmlns:xlink="http://www.w3.org/1999/xlink" version="1.1" baseProfile="full" viewBox="0 0 200 200" width="200" height="200">
<g fill="black">
<path d="M 48.0 132.0 L 152.0 132.0 L 158.0 127.0 L 169.0 136.0 L 164.0 140.0 L 164.0 179.0 L 152.0 185.0 L 152.0 175.0 L 48.0 175.0 L 48.0 182.0 L 36.0 188.0 L 36.0 126.0 Z M 48.0 136.0 L 48.0 171.0 L 152.0 171.0 L 152.0 136.0 Z M 170.5 110.1 L 168.7 111.6 L 166.7 113.0 L 164.6 114.1 L 162.4 115.1 L 160.2 115.8 L 157.8 116.3 L 155.4 116.6 L 153.0 116.7 L 153.0 110.7 L 141.0 107.7 L 141.0 104.7 L 154.4 104.7 L 155.8 104.5 L 157.0 104.2 L 158.2 103.8 L 159.3 103.4 L 160.4 102.8 L 161.4 102.1 L 163.4 100.3 L 164.3 99.2 L 164.6 98.7 L 165.1 97.8 L 165.6 96.5 L 166.1 94.9 L 166.6 92.8 L 167.2 90.5 L 167.7 87.8 L 168.1 84.8 L 168.6 81.5 L 168.7111110687256 80.5 L 124.0 80.5 L 124.0 121.3 L 112.0 127.3 L 112.0 80.5 L 83.0555555343628 80.5 L 83.0 81.0 L 80.8 89.4 L 77.3 97.0 L 72.5 103.8 L 66.6 109.8 L 59.6 114.9 L 51.5 119.1 L 42.4 122.4 L 32.3 124.9 L 21.1 126.4 L 20.8 124.7 L 31.3 121.2 L 40.5 117.4 L 48.5 113.2 L 55.3 108.6 L 60.8 103.6 L 65.1 98.2 L 68.4 92.4 L 70.6 86.2 L 71.52205886840821 80.5 L 37.61684589385986 80.5 L 36.1 85.1 L 22.8 87.1 L 35.7 47.7 L 43.27894735336304 55.2 L 72.0 55.2 L 72.0 37.3 L 21.0 37.3 L 21.0 33.3 L 72.0 33.3 L 72.0 13.6 L 84.0 15.6 L 87.0 17.6 L 84.0 19.4 L 84.0 33.3 L 112.0 33.3 L 112.0 13.6 L 124.0 15.6 L 127.0 17.6 L 124.0 19.4 L 124.0 33.3 L 156.0 33.3 L 162.0 28.3 L 173.0 37.3 L 168.0 41.3 L 168.0 61.2 L 156.0 67.2 L 156.0 59.2 L 124.0 59.2 L 124.0 76.5 L 169.0 76.5 L 175.0 71.5 L 186.0 80.5 L 181.0 83.5 L 180.38083534240724 83.7579852104187 L 180.0 86.5 L 179.5 89.8 L 178.9 92.9 L 178.3 95.6 L 177.6 98.2 L 176.9 100.5 L 176.0 102.7 L 175.0 104.7 L 173.8 106.5 L 172.2 108.4 Z M 112.0 76.5 L 112.0 59.2 L 84.0 59.2 L 84.0 72.0 L 83.5 76.5 Z M 84.0 37.3 L 84.0 55.2 L 112.0 55.2 L 112.0 37.3 Z M 124.0 37.3 L 124.0 55.2 L 156.0 55.2 L 156.0 37.3 Z M 44.64050178527832 59.2 L 38.93584232330322 76.5 L 71.81756753921509 76.5 L 72.0 72.0 L 72.0 59.2 Z " />
</g>
</svg>
