<svg xmlns="http://www.w3.org/2000/svg" xmlns:xlink="http://www.w3.org/1999/xlink" version="1.1" baseProfile="full" viewBox="0 0 200 200" width="200" height="200">
<g fill="black">
<path d="M 48.0 133.5 L 152.0 133.5 L 158.0 128.5 L 169.0 137.5 L 164.0 141.5 L 164.0 180.4 L 152.0 186.4 L 152.0 176.4 L 48.0 176.4 L 48.0 183.4 L 36.0 189.4 L 36.0 127.5 Z M 48.0 137.5 L 48.0 172.4 L 152.0 172.4 L 152.0 137.5 Z M 158.6 118.5 L 150.6 115.2 L 142.8 111.7 L 135.5 107.9 L 128.4 103.9 L 121.8 99.7 L 115.6 95.2 L 109.8 90.3 L 105.5 85.91730766296386 L 105.5 123.3 L 93.5 129.3 L 93.5 91.65500001907348 L 91.8 93.1 L 85.2 97.9 L 78.2 102.4 L 70.6 106.5 L 62.6 110.3 L 54.0 113.8 L 45.0 116.9 L 35.5 119.6 L 25.4 121.9 L 14.8 123.7 L 14.4 121.9 L 24.4 118.2 L 33.8 114.5 L 42.7 110.7 L 51.0 106.8 L 58.8 102.7 L 66.0 98.4 L 72.7 94.0 L 78.8 89.3 L 83.0 85.7 L 19.5 85.7 L 19.5 81.7 L 93.5 81.7 L 93.5 65.9 L 56.6 65.9 L 56.6 68.9 L 44.6 74.9 L 44.6 32.7 L 21.7 32.7 L 21.7 28.7 L 44.6 28.7 L 44.6 12.4 L 56.6 14.4 L 59.6 16.4 L 56.6 18.2 L 56.6 28.7 L 88.3 28.7 L 88.3 12.4 L 100.3 14.4 L 103.3 16.4 L 100.3 18.2 L 100.3 28.7 L 133.9 28.7 L 133.9 12.4 L 145.9 14.4 L 148.9 16.4 L 145.9 18.2 L 145.9 28.7 L 158.8 28.7 L 168.8 18.7 L 180.8 28.7 L 180.8 32.7 L 145.9 32.7 L 145.9 50.0 L 133.9 56.0 L 133.9 50.0 L 100.3 50.0 L 88.3 56.0 L 88.3 32.7 L 56.6 32.7 L 56.6 61.9 L 158.01818180084229 61.9 L 166.2 52.9 L 176.2 61.9 L 176.2 65.9 L 95.3 65.9 L 105.5 67.6 L 108.5 69.6 L 105.5 71.4 L 105.5 81.7 L 157.4 81.7 L 167.4 71.7 L 179.4 81.7 L 179.4 85.7 L 109.83636360168457 85.7 L 118.7 90.2 L 125.4 93.4 L 132.3 96.5 L 139.4 99.5 L 146.8 102.3 L 154.5 104.9 L 162.4 107.3 L 170.7 109.6 L 179.2 111.7 L 187.4 113.9 L 175.7 124.4 L 167.0 121.6 Z M 100.3 32.7 L 100.3 46.0 L 133.9 46.0 L 133.9 32.7 Z " />
</g>
</svg>
