<svg xmlns="http://www.w3.org/2000/svg" xmlns:xlink="http://www.w3.org/1999/xlink" version="1.1" baseProfile="full" viewBox="0 0 200 200" width="200" height="200">
<g fill="black">
<path d="M 52.0 139.1 L 144.9 139.1 L 150.9 134.1 L 161.9 143.1 L 156.9 147.1 L 156.9 182.9 L 144.9 188.9 L 144.9 180.9 L 52.0 180.9 L 52.0 183.9 L 40.0 189.9 L 40.0 133.1 Z M 52.0 143.1 L 52.0 176.9 L 144.9 176.9 L 144.9 143.1 Z M 94.1 121.4 L 94.7 121.2 L 95.0 121.0 L 95.2 120.9 L 95.4 120.7 L 95.7 119.8 L 95.9 118.9 L 96.0 117.6 L 96.0 73.9 L 108.0 75.9 L 111.0 77.9 L 108.0 79.7 L 108.0 117.6 L 107.8 120.2 L 107.4 122.7 L 106.6 125.1 L 105.3 127.3 L 103.7 129.4 L 101.7 131.0 L 99.4 132.2 L 97.0 133.0 L 94.5 133.5 L 91.9 133.6 L 91.95006246566773 127.59250936508178 L 72.0 124.6 L 72.0 121.6 L 93.2 121.6 Z M 25.6 118.8 L 31.5 117.8 L 37.5 116.6 L 43.6 115.4 L 49.9 114.2 L 56.3 112.9 L 62.9 111.5 L 69.6 110.1 L 76.4 108.7 L 83.5 107.4 L 90.7 106.2 L 91.2 107.9 L 84.6 111.0 L 78.0 113.9 L 71.4 116.4 L 64.9 118.8 L 52.3 123.2 L 46.1 125.2 L 34.1 128.8 L 32.244131851196286 129.3439613342285 L 30.9 133.0 L 28.3 130.5 L 23.6 119.3 Z M 157.8 91.0 L 150.90141010284424 88.80499410629272 L 152.72843599319458 91.46492891311645 L 156.0 95.1 L 156.1 98.7 L 152.20015897750855 97.06915740966797 L 150.4 97.9 L 147.7 99.1 L 145.0 100.2 L 142.2 101.4 L 139.4 102.5 L 133.4 104.5 L 132.19677419662474 104.81050987243653 L 136.7 105.9 L 142.8 107.6 L 148.7 109.5 L 154.5 111.6 L 160.2 113.8 L 165.8 116.3 L 171.3 118.9 L 174.1 122.5 L 173.6 127.0 L 169.9 129.8 L 165.4 129.3 L 160.6 126.4 L 155.6 123.5 L 150.5 120.7 L 145.2 118.1 L 139.8 115.5 L 134.2 113.1 L 128.6 110.6 L 122.7 108.3 L 116.8 105.9 L 110.7 103.4 L 111.1 101.6 L 117.7 102.2 L 124.2 103.1 L 127.9748641014099 103.87894020080566 L 129.1 103.1 L 131.4 100.9 L 133.8 98.8 L 136.0 96.8 L 138.3 94.9 L 140.5 93.0 L 144.7 89.2 L 146.8 87.4 L 146.80904331207276 87.39143266677857 L 140.6 85.1 L 132.7 81.8 L 125.3 78.2 L 118.4 74.3 L 112.0 70.1 L 106.75298013687134 65.865562915802 L 105.87269887924194 65.48829956054688 L 99.4 69.3 L 90.2 74.3 L 80.9 78.8 L 71.4 83.0 L 61.9 86.8 L 60.97809915542602 87.12314052581787 L 63.6 87.9 L 66.2 88.7 L 68.8 89.7 L 71.2 90.7 L 75.8 93.1 L 77.9 94.5 L 79.7 98.7 L 78.1 103.0 L 73.9 104.8 L 69.6 103.2 L 68.5 101.6 L 67.3 100.0 L 65.8 98.4 L 64.3 96.7 L 60.7 93.5 L 56.5 90.1 L 55.258109188079835 89.12808542251587 L 52.2 90.2 L 42.4 93.1 L 32.4 95.7 L 22.4 97.6 L 12.1 99.0 L 11.8 97.3 L 21.4 94.0 L 30.9 90.5 L 40.3 86.9 L 49.5 83.1 L 58.6 79.0 L 67.5 74.6 L 76.3 69.9 L 85.0 64.9 L 93.5 59.6 L 96.0 57.91325302124024 L 96.0 47.67101449966431 L 94.7 48.5 L 87.5 52.7 L 79.8 56.6 L 71.8 60.2 L 63.3 63.5 L 54.5 66.6 L 45.3 69.3 L 35.7 71.6 L 25.6 73.6 L 15.1 75.1 L 14.8 73.3 L 24.7 69.9 L 34.2 66.5 L 43.2 63.0 L 51.9 59.5 L 60.1 55.7 L 67.8 51.8 L 75.1 47.7 L 82.0 43.5 L 85.19523811340332 41.3 L 19.0 41.3 L 19.0 37.3 L 96.0 37.3 L 96.0 27.78782606124878 L 87.2 28.4 L 75.3 29.2 L 63.2 29.8 L 50.8 30.3 L 38.0 30.6 L 37.9 28.8 L 50.4 26.5 L 62.7 24.5 L 74.7 22.6 L 86.3 20.9 L 97.7 19.1 L 108.8 17.5 L 119.6 15.8 L 130.1 14.1 L 140.3 12.5 L 150.1 10.8 L 150.25382623672485 11.87678337097168 L 161.7 21.4 L 162.1 24.3 L 157.6103476524353 21.93702507019043 L 151.8 22.7 L 141.8 23.8 L 131.4 24.8 L 120.8 25.7 L 109.9 26.7 L 108.0 26.85267858505249 L 108.0 37.3 L 162.0 37.3 L 172.0 27.3 L 184.0 37.3 L 184.0 41.3 L 114.01428575515747 41.3 L 115.3 41.9 L 121.4 44.6 L 127.7 47.3 L 134.2 49.9 L 140.9 52.4 L 148.0 54.7 L 155.4 56.8 L 163.1 58.8 L 171.1 60.6 L 179.4 62.3 L 188.3 64.3 L 176.5 75.2 L 168.0 72.8 L 159.8 70.2 L 151.9 67.3 L 144.5 64.3 L 137.4 61.0 L 130.6 57.5 L 124.3 53.7 L 118.4 49.7 L 113.0 45.3 L 108.91489362716675 41.3 L 108.0 41.3 L 108.0 60.2 L 106.75877866744995 60.82061071395874 L 107.24579439163207 61.355140209198 L 108.6 62.0 L 115.0 65.0 L 121.7 67.8 L 128.7 70.5 L 136.1 73.1 L 143.9 75.4 L 152.1 77.6 L 160.7 79.5 L 169.7 81.2 L 179.1 82.8 L 188.6 84.5 L 176.8 95.8 L 167.1 93.5 Z " />
</g>
</svg>
