<svg xmlns="http://www.w3.org/2000/svg" xmlns:xlink="http://www.w3.org/1999/xlink" version="1.1" baseProfile="full" viewBox="0 0 200 200" width="200" height="200">
<g fill="black">
<path d="M 168.2 27.0 L 163.2 31.0 L 163.2 107.0 L 151.2 113.0 L 151.2 101.0 L 48.4 101.0 L 48.4 172.8 L 143.9 172.8 L 153.9 162.8 L 165.9 172.8 L 165.9 176.8 L 48.4 176.8 L 36.4 182.8 L 36.4 91.0 L 48.4 97.0 L 151.2 97.0 L 151.2 27.0 L 34.6 27.0 L 34.6 23.0 L 151.2 23.0 L 157.2 18.0 Z M 86.0 118.0 L 122.0 118.0 L 128.0 113.0 L 139.0 122.0 L 134.0 126.0 L 134.0 155.0 L 122.0 161.0 L 122.0 153.0 L 86.0 153.0 L 86.0 156.0 L 74.0 162.0 L 74.0 112.0 Z M 86.0 122.0 L 86.0 149.0 L 122.0 149.0 L 122.0 122.0 Z M 76.0 42.0 L 115.0 42.0 L 121.0 37.0 L 132.0 46.0 L 127.0 50.0 L 127.0 80.0 L 115.0 86.0 L 115.0 78.0 L 76.0 78.0 L 76.0 81.0 L 64.0 87.0 L 64.0 36.0 Z M 76.0 46.0 L 76.0 74.0 L 115.0 74.0 L 115.0 46.0 Z " />
</g>
</svg>
