<svg xmlns="http://www.w3.org/2000/svg" xmlns:xlink="http://www.w3.org/1999/xlink" version="1.1" baseProfile="full" viewBox="0 0 200 200" width="200" height="200">
<g fill="black">
<path d="M 48.0 133.3 L 152.0 133.3 L 158.0 128.3 L 169.0 137.3 L 164.0 141.3 L 164.0 179.5 L 152.0 185.5 L 152.0 175.5 L 48.0 175.5 L 48.0 182.5 L 36.0 188.5 L 36.0 127.3 Z M 48.0 137.3 L 48.0 171.5 L 152.0 171.5 L 152.0 137.3 Z M 105.0 15.4 L 108.0 17.4 L 105.0 19.2 L 105.0 28.2 L 155.0 28.2 L 165.0 18.2 L 177.0 28.2 L 177.0 32.2 L 105.0 32.2 L 105.0 47.1 L 158.0 47.1 L 164.0 42.1 L 175.0 51.1 L 170.0 55.1 L 170.0 119.2 L 158.0 125.2 L 158.0 117.2 L 45.0 117.2 L 45.0 120.2 L 33.0 126.2 L 33.0 41.1 L 45.0 47.1 L 93.0 47.1 L 93.0 13.4 Z M 45.0 113.2 L 158.0 113.2 L 158.0 51.1 L 45.0 51.1 Z M 121.7 96.4 L 115.8 92.2 L 109.4 87.9 L 107.07710371017455 86.53944644927978 L 100.8 90.5 L 91.9 95.3 L 82.5 99.8 L 72.6 103.8 L 62.2 107.4 L 51.2 110.4 L 50.7 108.7 L 60.8 103.8 L 70.4 98.9 L 79.6 93.9 L 88.2 88.7 L 96.3 83.3 L 98.53163261413575 81.63371429443359 L 94.9 79.6 L 86.9 75.5 L 78.3 71.4 L 69.2 67.1 L 59.6 62.8 L 60.2 61.1 L 70.5 63.6 L 80.2 66.3 L 89.4 69.4 L 98.1 72.7 L 105.82181673049926 75.99589738845825 L 110.8 71.8 L 117.3 65.8 L 123.3 59.4 L 128.7 52.9 L 128.70935907363892 52.90783319473267 L 129.1 52.4 L 137.9 60.6 L 138.9 64.1 L 135.1801076889038 63.447387313842775 L 131.5 67.3 L 124.6 73.6 L 117.2 79.6 L 115.63291997909546 80.6969560623169 L 121.1 83.7 L 127.8 87.6 L 134.0 91.8 L 139.7 96.1 L 141.6 100.3 L 140.2 104.6 L 136.1 106.5 L 131.7 105.1 L 127.0 100.8 Z " />
</g>
</svg>
