<svg xmlns="http://www.w3.org/2000/svg" xmlns:xlink="http://www.w3.org/1999/xlink" version="1.1" baseProfile="full" viewBox="0 0 200 200" width="200" height="200">
<g fill="black">
<path d="M 180.0 149.8 L 182.0 149.8 L 180.0 174.8 L 183.6 177.2 L 186.0 180.8 L 183.6 184.4 L 180.0 186.8 L 124.0 186.8 L 121.4 186.6 L 118.9 186.2 L 116.5 185.4 L 114.2 184.2 L 112.2 182.5 L 110.6 180.5 L 109.3 178.2 L 108.5 175.8 L 108.1 173.3 L 108.0 170.8 L 108.0 124.0 L 58.598113250732425 124.0 L 62.3 125.8 L 64.5 128.6 L 60.66702823638916 129.4741865158081 L 59.9 131.2 L 56.9 136.4 L 55.525531959533694 138.3 L 85.0 138.3 L 91.0 133.3 L 102.0 142.3 L 97.0 145.3 L 94.85846157073975 146.19230766296386 L 93.1 150.1 L 88.4 157.4 L 82.6 163.8 L 75.7 169.5 L 67.9 174.3 L 59.0 178.4 L 49.2 181.7 L 38.5 184.3 L 26.8 186.0 L 14.1 186.9 L 13.8 185.1 L 26.1 182.3 L 37.2 179.1 L 47.1 175.5 L 55.9 171.5 L 63.5 167.0 L 64.73997573852539 166.06524906158447 L 64.0 166.4 L 59.7 164.9 L 58.9 163.7 L 57.7 162.3 L 56.3 160.9 L 54.6 159.5 L 52.6 158.0 L 50.3 156.4 L 47.8 154.8 L 45.1 153.2 L 42.477545738220215 151.76187992095947 L 40.6 153.2 L 35.4 156.4 L 29.8 159.2 L 23.8 161.6 L 17.3 163.3 L 16.6 161.7 L 22.1 158.1 L 27.1 154.6 L 31.7 151.0 L 35.8 147.3 L 39.4 143.5 L 42.6 139.5 L 45.3 135.4 L 47.6 131.1 L 49.5 126.6 L 50.29130430221558 124.0 L 16.0 124.0 L 16.0 120.0 L 162.0 120.0 L 171.2207547187805 110.77924528121949 L 162.9 108.6 L 151.2 105.0 L 140.6 101.2 L 130.8 97.3 L 122.1 93.1 L 114.4 88.6 L 107.7 83.9 L 102.2 79.0 L 97.8 73.8 L 95.78181819915771 70.1 L 62.0 70.1 L 62.0 95.41573038101197 L 62.2 95.4 L 71.2 94.7 L 80.1 94.1 L 89.1 93.5 L 98.0 93.0 L 106.9 92.6 L 115.8 92.5 L 116.1 94.3 L 107.4 96.4 L 98.6 98.3 L 89.9 100.0 L 81.1 101.6 L 72.2 103.2 L 63.3 104.6 L 54.4 106.1 L 45.5 107.5 L 36.6 108.8 L 31.614156246185303 109.57557573318482 L 29.9 112.9 L 27.6 110.2 L 24.3 98.4 L 26.3 98.2 L 50.0 96.35666666030883 L 50.0 70.1 L 20.0 70.1 L 20.0 66.1 L 94.0 66.1 L 94.0 26.4 L 24.0 26.4 L 24.0 22.4 L 94.0 22.4 L 94.0 10.2 L 106.0 12.2 L 109.0 14.2 L 106.0 16.0 L 106.0 22.4 L 162.7777777671814 22.4 L 169.0 15.4 L 177.0 22.4 L 177.0 26.4 L 106.0 26.4 L 106.0 66.1 L 166.7777777671814 66.1 L 173.0 59.1 L 181.0 66.1 L 181.0 70.1 L 99.82702703475952 70.1 L 100.8 70.9 L 105.9 74.4 L 111.8 77.9 L 118.5 81.3 L 126.1 84.6 L 131.10103950500488 86.48274431228637 L 131.6 86.2 L 134.3 84.1 L 137.0 82.2 L 139.6 80.4 L 142.1 78.6 L 144.5 76.8 L 146.8 75.2 L 149.0 73.5 L 151.1 71.9 L 152.29844360351564 70.94124517440795 L 152.2 70.8 L 152.3222222328186 70.9222222328186 L 153.1 70.3 L 155.00909090042114 73.60909090042114 L 161.0 79.6 L 161.1 83.0 L 157.2217462539673 81.42240524291992 L 156.5 81.7 L 153.9 82.6 L 151.2 83.6 L 145.4 85.4 L 142.4 86.3 L 139.3 87.1 L 136.0 87.9 L 135.34421367645263 88.03501482009888 L 144.1 90.8 L 154.5 93.7 L 166.0 96.4 L 178.4 99.0 L 187.3 101.0 L 175.5 111.9 L 173.7208333015442 111.43402776718139 L 184.0 120.0 L 184.0 124.0 L 120.15 124.0 L 123.0 125.9 L 120.0 127.7 L 120.0 149.00338983535767 L 125.6 147.2 L 131.4 145.4 L 142.6 142.2 L 148.0 140.7 L 153.4 139.1 L 158.6 137.6 L 163.6 136.2 L 167.6293417930603 134.99119749069214 L 167.6 134.9 L 167.68868503570556 134.97339448928832 L 168.6 134.7 L 168.89311475753783 135.9701639175415 L 179.2 144.5 L 179.6 147.5 L 175.2160569190979 145.45816354751588 L 171.3 146.4 L 166.2 147.3 L 160.9 148.1 L 155.5 148.9 L 150.0 149.7 L 144.3 150.5 L 138.5 151.2 L 132.6 151.9 L 126.6 152.4 L 120.4 152.8 L 120.0 152.8063491821289 L 120.0 172.0 L 120.2 172.9 L 120.5 173.8 L 120.9 174.2 L 121.2 174.4 L 121.8 174.5 L 122.7 174.7 L 124.0 174.8 L 174.0 174.8 Z M 52.486666679382324 142.3 L 49.7 145.6 L 45.587206268310545 149.33890342712402 L 46.3 149.4 L 49.6 149.9 L 52.7 150.5 L 55.7 151.1 L 58.4 151.9 L 61.0 152.8 L 63.4 153.7 L 65.7 154.8 L 67.8 156.1 L 69.7 160.2 L 68.69368934631348 163.08475732803345 L 70.0 162.1 L 75.4 156.8 L 79.7 151.1 L 82.9 145.1 L 83.87575759887696 142.3 Z M 130.8 32.7 L 154.1 32.7 L 160.1 27.7 L 171.1 36.7 L 166.1 40.7 L 166.1 54.0 L 154.1 60.0 L 154.1 54.0 L 130.8 54.0 L 118.8 60.0 L 118.8 26.7 Z M 44.8 32.7 L 68.1 32.7 L 74.1 27.7 L 85.1 36.7 L 80.1 40.7 L 80.1 54.0 L 68.1 60.0 L 68.1 54.0 L 44.8 54.0 L 32.8 60.0 L 32.8 26.7 Z M 130.8 36.7 L 130.8 50.0 L 154.1 50.0 L 154.1 36.7 Z M 44.8 36.7 L 44.8 50.0 L 68.1 50.0 L 68.1 36.7 Z " />
</g>
</svg>
