<svg xmlns="http://www.w3.org/2000/svg" xmlns:xlink="http://www.w3.org/1999/xlink" version="1.1" baseProfile="full" viewBox="0 0 200 200" width="200" height="200">
<g fill="black">
<path d="M 155.7 174.5 L 146.6 170.1 L 138.3 165.4 L 130.7 160.4 L 124.1 155.0 L 118.2 149.2 L 113.3 143.0 L 109.4 136.5 L 107.26055345535278 131.22779235839843 L 101.8 133.6 L 97.1 135.6 L 91.6 137.5 L 89.15469903945923 138.20992612838745 L 91.6 139.3 L 92.15111846923828 139.5793339729309 L 93.7 138.9 L 94.44720411300659 140.74310340881348 L 98.9 143.0 L 105.1 146.9 L 110.2 150.8 L 114.2 154.8 L 117.3 159.1 L 119.1 163.8 L 119.4 169.0 L 118.0 174.0 L 115.1 178.6 L 113.4 180.3 L 111.6 181.8 L 109.7 183.2 L 107.7 184.5 L 105.6 185.5 L 103.4 186.3 L 101.1 187.0 L 98.8 187.5 L 96.4 187.7 L 94.0 187.8 L 94.0 181.8 L 74.0 178.8 L 74.0 175.8 L 95.5 175.8 L 96.9 175.6 L 99.5 175.0 L 100.7 174.5 L 101.9 173.9 L 103.1 173.2 L 104.2 172.4 L 105.3 171.5 L 106.3 170.4 L 108.0 168.7 L 108.9 167.1 L 109.3 165.3 L 108.9 162.9 L 108.30951690673828 161.55032444000244 L 104.1 163.2 L 96.2 166.0 L 87.9 168.5 L 79.1 170.9 L 69.8 173.0 L 60.0 175.0 L 49.8 176.7 L 39.0 178.1 L 27.8 179.2 L 16.1 179.9 L 15.8 178.1 L 27.2 175.4 L 38.1 172.8 L 48.4 170.2 L 58.3 167.6 L 67.6 164.8 L 76.4 162.0 L 84.7 159.0 L 92.5 155.9 L 99.7 152.7 L 101.16547183990478 151.97820043563843 L 101.0 151.8 L 97.74042549133301 148.86638298034669 L 98.2 150.0 L 91.9 152.1 L 85.1 154.1 L 78.0 156.0 L 70.4 157.7 L 62.5 159.3 L 54.0 160.8 L 45.2 162.1 L 35.9 163.3 L 26.2 164.2 L 16.1 164.7 L 15.8 162.9 L 25.6 160.4 L 35.0 158.0 L 43.9 155.7 L 52.4 153.4 L 60.4 151.1 L 68.0 148.7 L 75.1 146.3 L 81.8 143.9 L 88.0 141.4 L 88.23207311630249 141.2982135772705 L 85.39158535003662 139.3021951675415 L 78.5 141.1 L 70.8 142.7 L 62.2 144.4 L 52.9 145.9 L 42.8 147.3 L 31.9 148.6 L 20.1 149.6 L 19.8 147.8 L 31.2 144.8 L 41.8 142.1 L 51.6 139.5 L 60.5 137.0 L 68.6 134.5 L 75.9 132.1 L 80.35217390060424 130.5 L 51.9 130.5 L 39.9 136.5 L 39.9 117.11449279785157 L 35.5 118.9 L 28.2 121.5 L 20.5 123.9 L 12.3 126.0 L 11.6 124.3 L 19.0 120.4 L 26.1 116.6 L 32.7 112.9 L 38.9 109.3 L 39.9 108.67931032180786 L 39.9 105.8 L 42.4692307472229 107.08461542129517 L 44.7 105.7 L 50.1 102.1 L 55.0 98.5 L 59.5 94.9 L 63.5 91.3 L 67.1 87.7 L 67.13547592163086 87.73807172775268 L 67.4 87.5 L 75.21222219467163 96.4 L 114.425 96.4 L 116.0 95.0 L 117.5 93.5 L 117.86237945556641 94.01468381881713 L 121.0 91.4 L 132.0 100.4 L 127.0 103.4 L 115.0 108.4 L 115.0 107.325 L 114.3 107.6 L 111.3 108.7 L 108.1 109.8 L 104.7 110.9 L 101.75454549789428 111.8 L 147.0 111.8 L 153.0 106.8 L 164.0 115.8 L 159.0 119.8 L 159.0 130.5 L 147.0 136.5 L 147.0 130.5 L 109.6754716873169 130.5 L 112.8 134.1 L 117.8 139.2 L 123.2 143.9 L 129.2 148.4 L 130.99401054382324 149.5246036529541 L 132.3 148.9 L 136.7 146.6 L 141.0 144.4 L 152.4 138.7 L 155.8 136.9 L 158.9 135.1 L 161.8 133.5 L 163.65732488632202 132.39936304092407 L 163.6 132.3 L 163.68721647262572 132.38164949417114 L 164.5 131.9 L 165.55169486999512 134.12711868286132 L 173.0 141.1 L 173.2 144.3 L 169.48163805007934 142.74068689346313 L 166.4 143.8 L 163.0 144.9 L 159.5 145.9 L 155.7 147.0 L 151.7 148.1 L 147.4 149.1 L 143.0 150.2 L 138.3 151.1 L 134.59323558807372 151.78083429336547 L 135.9 152.6 L 143.2 156.5 L 151.3 160.1 L 160.0 163.5 L 169.5 166.5 L 179.7 169.3 L 187.9 171.6 L 176.2 182.0 L 165.5 178.4 Z M 51.9 115.8 L 51.9 126.5 L 92.0 126.5 L 92.0 126.3 L 93.5 126.3 L 93.5 115.8 Z M 105.5 115.8 L 105.5 126.3 L 108.0 126.3 L 108.0 126.5 L 147.0 126.5 L 147.0 115.8 Z M 70.36764707565308 100.4 L 65.9 103.5 L 60.6 106.8 L 54.9 110.0 L 51.6268292427063 111.66341466903687 L 51.9 111.8 L 93.9333333015442 111.8 L 96.1 110.5 L 99.2 108.1 L 102.2 106.0 L 105.0 103.9 L 107.6 102.0 L 109.62105264663697 100.4 Z M 143.6 86.5 L 128.3 83.7 L 114.2 80.5 L 101.1 77.1 L 100.48136339187622 76.91594285964966 L 99.0 77.3 L 85.2 80.3 L 71.1 82.8 L 56.7 84.9 L 42.1 86.4 L 27.2 87.3 L 12.0 87.6 L 11.9 85.8 L 26.8 83.5 L 41.4 81.1 L 55.7 78.4 L 69.6 75.4 L 83.3 72.0 L 84.21719236373902 71.74484119415283 L 78.1 69.5 L 68.3 65.3 L 59.7 60.7 L 52.4 55.6 L 53.3 54.0 L 61.5 56.9 L 70.5 59.8 L 80.4 62.7 L 91.3 65.4 L 99.89228916168213 67.2616626739502 L 109.6 64.2 L 122.3 59.7 L 134.6 54.9 L 145.71654567718505 50.0307692527771 L 145.7 50.0 L 145.72865047454835 50.02546710968018 L 146.7 49.6 L 147.58794784545898 51.678175926208496 L 155.6 58.8 L 155.7 62.0 L 151.8868766784668 60.39133853912354 L 151.4 60.6 L 138.7 65.5 L 125.7 69.9 L 121.01233739852906 71.28499116897584 L 130.3 72.8 L 145.4 74.9 L 161.5 76.8 L 178.7 78.5 L 189.1 79.7 L 177.2 91.6 L 159.9 89.2 Z M 47.1 20.1 L 76.8 20.1 L 82.8 15.1 L 93.8 24.1 L 88.8 28.1 L 88.8 46.7 L 76.8 52.7 L 76.8 44.7 L 47.1 44.7 L 47.1 47.7 L 35.1 53.7 L 35.1 14.1 Z M 123.1 20.1 L 152.8 20.1 L 158.8 15.1 L 169.8 24.1 L 164.8 28.1 L 164.8 44.7 L 152.8 50.7 L 152.8 44.7 L 123.1 44.7 L 123.1 47.7 L 111.1 53.7 L 111.1 14.1 Z M 123.1 24.1 L 123.1 40.7 L 152.8 40.7 L 152.8 24.1 Z M 47.1 24.1 L 47.1 40.7 L 76.8 40.7 L 76.8 24.1 Z " />
</g>
</svg>
