<svg xmlns="http://www.w3.org/2000/svg" xmlns:xlink="http://www.w3.org/1999/xlink" version="1.1" baseProfile="full" viewBox="0 0 200 200" width="200" height="200">
<g fill="black">
<path d="M 82.7 176.1 L 102.7 176.1 L 103.9 176.0 L 104.8 175.9 L 105.4 175.7 L 105.7 175.5 L 105.9 175.4 L 106.1 175.2 L 106.2 174.8 L 106.4 174.2 L 106.6 173.3 L 106.7 172.1 L 106.7 160.56000003814697 L 104.9 161.0 L 100.4 162.0 L 95.68645668029785 163.07125988006592 L 93.9 166.7 L 91.6 164.0 L 87.9 152.4 L 89.9 152.1 L 94.3 151.8 L 98.8 151.5 L 103.3 151.1 L 106.7 150.88297872543336 L 106.7 139.3 L 112.90689659118652 140.33448276519775 L 114.2 139.3 L 115.9 137.2 L 117.5 135.3 L 119.1 133.5 L 120.5 131.7 L 121.6529411315918 130.3 L 89.7 130.3 L 89.7 126.3 L 124.5 126.3 L 125.18571424484253 125.72857141494751 L 125.5 125.3 L 126.5 123.8 L 126.92553195953369 124.27872343063355 L 127.5 123.8 L 127.5 120.5 L 107.5 117.5 L 107.5 114.5 L 128.8 114.5 L 129.7 114.3 L 130.3 114.1 L 130.6 113.9 L 130.8 113.8 L 130.9 113.6 L 131.1 113.3 L 131.3 112.7 L 131.5 111.8 L 131.5 94.7 L 91.7 94.7 L 91.7 90.7 L 131.5 90.7 L 131.5 81.3 L 139.8181818008423 82.68636360168458 L 141.4 81.5 L 144.3 78.9 L 147.0 76.5 L 149.5 74.2 L 151.8 72.1 L 153.9 70.2 L 154.08947372436523 70.0 L 105.6 70.0 L 105.6 66.0 L 157.6 66.0 L 158.18064517974852 65.51612901687622 L 158.6 65.0 L 159.6 63.5 L 160.03130989074708 63.97390842437744 L 163.6 61.0 L 174.6 70.0 L 169.6 73.0 L 157.6 78.0 L 157.6 77.75714282989502 L 156.0 78.5 L 153.1 79.8 L 149.9 81.1 L 146.5 82.5 L 143.7495574951172 83.46637172698975 L 146.5 85.3 L 143.5 87.1 L 143.5 90.7 L 161.4 90.7 L 171.4 80.7 L 183.4 90.7 L 183.4 94.7 L 143.5 94.7 L 143.5 110.5 L 143.4 113.1 L 143.0 115.6 L 142.1 118.0 L 140.9 120.3 L 139.3 122.3 L 137.3 123.9 L 135.15771427154542 125.11085710525512 L 140.1 129.15454549789428 L 140.1 126.5 L 172.3 126.5 L 173.28823528289794 125.6764705657959 L 173.5 124.9 L 173.87894735336303 125.18421049118042 L 178.3 121.5 L 189.3 130.5 L 184.3 133.5 L 175.2454545021057 137.27272729873658 L 174.7 137.6 L 172.5 138.8 L 170.1 140.1 L 167.6 141.4 L 166.41132078170776 141.95188674926757 L 166.7 142.0 L 169.7 144.0 L 166.7 145.8 L 166.7 153.2 L 169.01818180084229 153.2 L 177.2 144.2 L 187.2 153.2 L 187.2 157.2 L 166.7 157.2 L 166.7 172.2 L 166.5 174.7 L 166.1 177.2 L 165.3 179.6 L 164.1 181.9 L 162.4 183.9 L 160.4 185.6 L 158.1 186.8 L 155.7 187.6 L 153.2 188.0 L 150.7 188.2 L 150.7 182.2 L 130.7 179.2 L 130.7 176.2 L 150.7 176.2 L 151.9 176.1 L 152.8 176.0 L 153.4 175.8 L 153.7 175.6 L 153.9 175.4 L 154.1 175.3 L 154.3 174.9 L 154.4 174.3 L 154.6 173.4 L 154.7 172.2 L 154.7 157.2 L 136.1 157.2 L 136.1 153.2 L 154.7 153.2 L 154.7 140.0 L 162.89060401916504 141.36510066986085 L 163.4 140.9 L 165.2 138.5 L 166.9 136.2 L 168.4 134.1 L 169.7 132.2 L 170.8333333015442 130.5 L 141.1666666984558 130.5 L 136.5 133.3 L 124.5 138.3 L 124.5 137.6818181991577 L 122.7 138.5 L 120.4 139.4 L 118.0 140.3 L 116.18493146896363 140.88082189559935 L 118.7 141.3 L 121.7 143.3 L 118.7 145.1 L 118.7 149.99166669845582 L 122.2 149.7 L 127.0 149.4 L 132.0 149.3 L 137.1 149.2 L 137.4 151.0 L 132.7 152.8 L 128.0 154.5 L 123.3 156.0 L 118.7 157.3702127456665 L 118.7 172.1 L 118.5 174.7 L 118.1 177.2 L 117.3 179.6 L 116.0 181.8 L 114.4 183.8 L 112.4 185.5 L 110.1 186.7 L 107.7 187.5 L 105.2 188.0 L 102.7 188.1 L 102.7 182.1 L 82.7 179.1 Z M 87.9 23.0 L 169.9 23.0 L 175.9 18.0 L 186.9 27.0 L 181.9 31.0 L 181.9 55.0 L 169.9 61.0 L 169.9 51.0 L 87.9 51.0 L 87.9 79.0 L 87.5 92.6 L 86.6 105.6 L 85.4 117.9 L 83.7 129.6 L 81.7 140.6 L 79.2 151.0 L 76.4 160.7 L 73.1 169.7 L 69.2 177.9 L 64.9 185.3 L 63.4 184.6 L 66.0 176.6 L 68.4 168.1 L 70.6 159.1 L 72.5 149.5 L 74.0 139.3 L 75.3 128.5 L 76.2 117.0 L 76.8 105.0 L 77.0 92.3 L 76.9 79.0 L 76.9 17.5 Z M 28.0 55.9 L 55.4 55.9 L 60.9 50.9 L 71.4 59.9 L 66.4 63.4 L 66.4 126.6 L 55.4 132.1 L 55.4 120.6 L 28.0 120.6 L 28.0 132.6 L 16.0 138.6 L 16.0 49.9 Z M 28.0 59.9 L 28.0 116.6 L 55.4 116.6 L 55.4 59.9 Z M 87.9 27.0 L 87.9 47.0 L 169.9 47.0 L 169.9 27.0 Z " />
</g>
</svg>
