<svg xmlns="http://www.w3.org/2000/svg" xmlns:xlink="http://www.w3.org/1999/xlink" version="1.1" baseProfile="full" viewBox="0 0 200 200" width="200" height="200">
<g fill="black">
<path d="M 168.0 182.9 L 166.2 184.5 L 164.2 186.0 L 162.2 187.2 L 160.0 188.2 L 157.7 189.0 L 155.4 189.6 L 152.9 189.9 L 150.5 190.0 L 150.5 184.0 L 130.5 181.0 L 130.5 178.0 L 150.5 178.0 L 151.9 177.9 L 153.2 177.7 L 154.4 177.5 L 155.5 177.1 L 156.6 176.6 L 157.6 176.0 L 158.5 175.3 L 159.4 174.5 L 160.3 173.5 L 161.2 172.3 L 162.2 170.4 L 163.4 166.9 L 164.5 162.1 L 165.6 156.0 L 166.5 148.7 L 167.2 140.2 L 167.8 130.6 L 168.2 119.8 L 168.5 107.9 L 168.58461542129515 96.9 L 100.95692310333251 96.9 L 98.2 103.3 L 95.0 109.5 L 91.5 115.6 L 87.6 121.4 L 83.4 127.1 L 78.8 132.4 L 73.8 137.3 L 72.3 136.2 L 75.7 130.1 L 79.0 124.1 L 82.0 118.1 L 84.8 112.1 L 87.3 106.0 L 89.6 99.8 L 91.6 93.5 L 93.3 87.1 L 94.7 80.6 L 95.73312664031982 75.00389728546142 L 95.7 75.0 L 96.2 72.2 L 107.6 76.4 L 110.2 79.0 L 106.61277084350586 80.23922462463379 L 105.8 83.4 L 103.6 90.2 L 102.53636360168457 92.9 L 168.6 92.9 L 174.6 87.9 L 185.6 96.9 L 180.6 99.9 L 180.56200122833252 99.91583280563354 L 180.5 108.1 L 180.2 120.2 L 179.8 131.2 L 179.2 141.1 L 178.4 150.0 L 177.5 157.7 L 176.3 164.4 L 174.9 170.2 L 173.2 175.0 L 171.1 179.1 L 169.6 181.1 Z M 128.3 143.6 L 126.4 140.6 L 124.2 137.6 L 121.6 134.6 L 118.8 131.5 L 115.7 128.4 L 112.2 125.3 L 108.6 122.0 L 104.5 118.8 L 105.4 117.2 L 110.3 119.1 L 115.0 121.2 L 119.3 123.5 L 123.4 125.9 L 127.1 128.6 L 130.6 131.3 L 133.8 134.3 L 136.8 137.3 L 139.4 140.6 L 141.8 143.9 L 142.2 148.5 L 139.3 152.1 L 134.8 152.4 L 131.2 149.6 L 129.9 146.6 Z M 30.0 41.7 L 56.9 41.7 L 62.9 36.7 L 73.9 45.7 L 68.9 49.7 L 68.9 140.2 L 56.9 146.2 L 56.9 134.2 L 30.0 134.2 L 30.0 146.2 L 18.0 152.2 L 18.0 35.7 Z M 30.0 45.7 L 30.0 130.2 L 56.9 130.2 L 56.9 45.7 Z M 175.7 41.0 L 177.9 43.8 L 173.9478705406189 44.70136289596557 L 172.2 48.1 L 170.3 51.4 L 168.2 54.6 L 166.1 57.6 L 163.8 60.5 L 161.4 63.2 L 158.8 65.7 L 156.0 68.0 L 153.4 70.2 L 152.0 69.0 L 153.8 66.1 L 155.2 63.0 L 156.7 60.0 L 159.3 53.8 L 160.5 50.6 L 161.6 47.3 L 162.6 44.0 L 163.5 40.6 L 164.08337287902833 38.120665073394775 L 164.0 38.1 L 164.8 35.7 Z M 93.3 59.3 L 92.8 57.2 L 92.1 55.0 L 91.2 52.8 L 90.1 50.6 L 88.9 48.3 L 87.5 45.9 L 85.9 43.5 L 83.8 41.3 L 85.0 39.9 L 87.5 41.6 L 90.2 43.1 L 92.7 44.7 L 95.0 46.5 L 97.2 48.5 L 99.2 50.5 L 101.0 52.7 L 102.7 55.0 L 104.2 57.5 L 105.5 60.0 L 104.9 64.6 L 101.4 67.5 L 96.8 66.9 L 93.9 63.4 L 93.7 61.4 Z M 125.9 54.0 L 125.1 50.2 L 124.6 48.3 L 124.0 46.4 L 123.3 44.5 L 121.7 40.5 L 120.4 38.8 L 121.6 37.5 L 123.3 39.0 L 125.3 40.1 L 127.2 41.4 L 129.0 42.9 L 130.7 44.5 L 132.3 46.2 L 133.8 48.1 L 135.2 50.0 L 136.6 52.1 L 137.8 54.2 L 137.3 58.8 L 133.9 61.8 L 129.3 61.3 L 126.3 57.9 L 126.1 56.0 Z M 175.16394481658935 15.92439022064209 L 184.7 23.9 L 185.0 27.0 L 180.82614946365356 25.091954040527344 L 178.2 25.9 L 168.4 28.3 L 158.5 30.5 L 148.5 32.3 L 138.3 33.8 L 128.0 35.0 L 117.6 35.9 L 107.0 36.3 L 96.3 36.5 L 85.4 36.1 L 74.5 35.3 L 74.5 33.5 L 85.3 32.3 L 96.0 31.1 L 106.5 29.8 L 116.8 28.3 L 126.9 26.6 L 136.8 24.7 L 146.5 22.5 L 156.1 20.0 L 165.5 17.3 L 173.70542678833007 14.71350679397583 L 173.7 14.7 L 173.713214302063 14.7110520362854 L 174.7 14.4 Z " />
</g>
</svg>
