<svg xmlns="http://www.w3.org/2000/svg" xmlns:xlink="http://www.w3.org/1999/xlink" version="1.1" baseProfile="full" viewBox="0 0 200 200" width="200" height="200">
<g fill="black">
<path d="M 133.7 125.1 L 132.12660551071167 130.0 L 161.0 130.0 L 161.0 97.0 L 137.0 97.0 L 137.0 101.0 L 136.0 113.4 Z M 30.0 41.7 L 56.9 41.7 L 62.9 36.7 L 73.9 45.7 L 68.9 49.7 L 68.9 140.2 L 56.9 146.2 L 56.9 134.2 L 30.0 134.2 L 30.0 146.2 L 18.0 152.2 L 18.0 35.7 Z M 30.0 45.7 L 30.0 130.2 L 56.9 130.2 L 56.9 45.7 Z M 125.0 26.0 L 162.0 26.0 L 168.0 21.0 L 179.0 30.0 L 174.0 34.0 L 174.0 74.0 L 162.0 80.0 L 162.0 70.0 L 125.0 70.0 L 125.0 77.0 L 113.0 83.0 L 113.0 20.0 Z M 125.0 30.0 L 125.0 66.0 L 162.0 66.0 L 162.0 30.0 Z M 141.4 137.9 L 145.6 143.1 L 149.8 148.1 L 154.1 152.9 L 158.5 157.3 L 163.1 161.4 L 167.9 165.3 L 172.9 168.9 L 178.0 172.3 L 183.4 175.3 L 187.7 177.9 L 176.5 186.6 L 170.9 182.6 L 165.6 178.2 L 160.6 173.6 L 156.0 168.7 L 151.6 163.6 L 147.6 158.1 L 143.9 152.3 L 140.6 146.3 L 137.8 140.0 L 135.8588234901428 134.0 L 130.84220180511474 134.0 L 130.2 136.0 L 125.3 146.1 L 119.2 155.4 L 111.8 163.8 L 103.2 171.2 L 93.4 177.7 L 82.4 183.3 L 70.3 187.8 L 69.6 186.1 L 80.7 179.9 L 90.4 173.3 L 98.9 166.2 L 106.2 158.6 L 112.2 150.5 L 117.1 141.8 L 120.15217390060425 134.0 L 81.0 134.0 L 81.0 130.0 L 121.38282823562622 130.0 L 123.3 122.7 L 124.7 112.2 L 125.0 101.0 L 125.0 97.0 L 99.0 97.0 L 99.0 109.0 L 87.0 115.0 L 87.0 29.0 L 99.0 31.0 L 102.0 33.0 L 99.0 34.8 L 99.0 93.0 L 161.0 93.0 L 167.0 88.0 L 178.0 97.0 L 173.0 101.0 L 173.0 130.0 L 176.5 130.0 L 181.0 124.0 L 187.0 130.0 L 187.0 134.0 L 138.42181816101075 134.0 Z " />
</g>
</svg>
