<svg xmlns="http://www.w3.org/2000/svg" xmlns:xlink="http://www.w3.org/1999/xlink" version="1.1" baseProfile="full" viewBox="0 0 200 200" width="200" height="200">
<g fill="black">
<path d="M 183.3 134.6 L 186.1 136.6 L 183.3 138.35 L 183.3 168.7 L 172.3 174.2 L 172.3 164.7 L 141.5 164.7 L 141.5 182.4 L 129.5 188.4 L 129.5 164.7 L 98.6 164.7 L 98.6 171.7 L 87.6 177.2 L 87.6 132.6 L 98.6 134.6 L 101.4 136.6 L 98.6 138.35 L 98.6 160.7 L 172.3 160.7 L 172.3 132.6 Z M 14.1 163.0 L 21.0 161.4 L 27.9 159.9 L 43.8 156.49285717010497 L 43.8 110.3 L 22.0 110.3 L 22.0 106.3 L 43.8 106.3 L 43.8 59.0 L 16.9 59.0 L 16.9 55.0 L 60.6 55.0 L 70.6 45.0 L 82.6 55.0 L 82.6 59.0 L 55.8 59.0 L 55.8 106.3 L 60.018181800842285 106.3 L 68.2 97.3 L 78.2 106.3 L 78.2 110.3 L 55.8 110.3 L 55.8 153.9214285850525 L 55.9 153.9 L 63.0 152.6 L 70.1 151.2 L 77.3 150.1 L 84.6 149.2 L 85.0 150.9 L 78.3 153.8 L 71.5 156.4 L 64.7 158.9 L 57.9 161.3 L 51.1 163.6 L 44.3 165.8 L 37.5 168.1 L 30.7 170.3 L 24.0 172.4 L 21.235164833068847 173.29450550079346 L 20.0 177.0 L 17.2 174.6 L 12.2 163.5 Z M 119.2 127.2 L 151.7 127.2 L 157.2 122.2 L 167.7 131.2 L 162.7 134.7 L 162.7 149.6 L 151.7 155.1 L 151.7 149.6 L 119.2 149.6 L 108.2 155.1 L 108.2 121.7 Z M 119.2 131.2 L 119.2 145.6 L 151.7 145.6 L 151.7 131.2 Z M 101.6 70.4 L 169.3 70.4 L 174.8 65.4 L 185.3 74.4 L 180.3 77.9 L 180.3 118.5 L 169.3 124.0 L 169.3 116.5 L 101.6 116.5 L 101.6 119.5 L 90.6 125.0 L 90.6 64.9 Z M 101.6 74.4 L 101.6 112.5 L 169.3 112.5 L 169.3 74.4 Z M 120.6 82.2 L 150.3 82.2 L 155.8 77.2 L 166.3 86.2 L 161.3 89.7 L 161.3 103.4 L 150.3 108.9 L 150.3 103.4 L 120.6 103.4 L 109.6 108.9 L 109.6 76.7 Z M 120.6 86.2 L 120.6 99.4 L 150.3 99.4 L 150.3 86.2 Z M 116.9 41.1 L 154.0 41.1 L 160.0 36.1 L 171.0 45.1 L 166.0 49.1 L 166.0 60.8 L 154.0 66.8 L 154.0 60.8 L 116.9 60.8 L 104.9 66.8 L 104.9 35.1 Z M 116.9 45.1 L 116.9 56.8 L 154.0 56.8 L 154.0 45.1 Z M 46.5 37.8 L 45.1 34.7 L 43.6 31.6 L 42.0 28.7 L 40.2 25.8 L 38.3 22.9 L 36.3 20.1 L 34.2 17.2 L 31.8 14.6 L 32.8 13.1 L 36.1 14.9 L 39.3 16.8 L 42.4 18.9 L 45.4 21.3 L 48.2 23.8 L 50.8 26.6 L 53.3 29.5 L 55.6 32.7 L 57.8 36.0 L 59.9 39.4 L 59.9 44.0 L 56.8 47.3 L 52.2 47.4 L 48.9 44.3 L 47.8 41.0 Z M 84.0 28.4 L 129.5 28.4 L 129.5 12.9 L 141.5 14.9 L 144.5 16.9 L 141.5 18.7 L 141.5 28.4 L 168.71818180084227 28.4 L 176.9 19.4 L 186.9 28.4 L 186.9 32.4 L 84.0 32.4 Z " />
</g>
</svg>
