<svg xmlns="http://www.w3.org/2000/svg" xmlns:xlink="http://www.w3.org/1999/xlink" version="1.1" baseProfile="full" viewBox="0 0 200 200" width="200" height="200">
<g fill="black">
<path d="M 53.0 111.6 L 147.0 111.6 L 153.0 106.6 L 164.0 115.6 L 159.0 119.6 L 159.0 150.4 L 147.0 156.4 L 147.0 150.4 L 106.0 150.4 L 106.0 162.8 L 164.0 162.8 L 174.0 152.8 L 186.0 162.8 L 186.0 166.8 L 106.0 166.8 L 106.0 186.4 L 94.0 192.4 L 94.0 166.8 L 14.0 166.8 L 14.0 162.8 L 94.0 162.8 L 94.0 150.4 L 53.0 150.4 L 41.0 156.4 L 41.0 105.6 Z M 53.0 133.0 L 53.0 146.4 L 94.0 146.4 L 94.0 133.0 Z M 106.0 133.0 L 106.0 146.4 L 147.0 146.4 L 147.0 133.0 Z M 53.0 115.6 L 53.0 129.0 L 94.0 129.0 L 94.0 115.6 Z M 106.0 115.6 L 106.0 129.0 L 147.0 129.0 L 147.0 115.6 Z M 42.0 75.7 L 76.9 75.7 L 82.9 70.7 L 93.9 79.7 L 88.9 83.7 L 88.9 101.4 L 76.9 107.4 L 76.9 101.4 L 42.0 101.4 L 42.0 104.4 L 30.0 110.4 L 30.0 69.7 Z M 122.8 75.7 L 157.2 75.7 L 163.2 70.7 L 174.2 79.7 L 169.2 83.7 L 169.2 103.4 L 157.2 109.4 L 157.2 101.4 L 122.8 101.4 L 110.8 107.4 L 110.8 69.7 Z M 122.8 79.7 L 122.8 97.4 L 157.2 97.4 L 157.2 79.7 Z M 42.0 79.7 L 42.0 97.4 L 76.9 97.4 L 76.9 79.7 Z M 180.0 45.5 L 182.0 45.5 L 180.0 58.5 L 182.7 60.3 L 184.5 63.0 L 182.7 65.7 L 180.0 67.5 L 139.5 67.5 L 137.2 67.2 L 134.9 66.6 L 132.7 65.6 L 130.7 64.2 L 129.1 62.4 L 127.7 60.3 L 126.8 58.0 L 126.2 55.5 L 126.0 53.0 L 126.0 31.1 L 85.39154930114746 31.1 L 84.8 34.6 L 82.0 41.1 L 77.6 46.8 L 72.0 51.7 L 65.1 55.9 L 57.0 59.4 L 47.7 62.4 L 37.1 64.8 L 25.2 66.6 L 12.1 67.7 L 11.8 65.9 L 24.5 62.8 L 35.8 59.6 L 45.6 56.1 L 54.0 52.4 L 60.8 48.5 L 66.2 44.4 L 70.0 40.2 L 72.5 36.1 L 73.7 31.9 L 73.75454549789428 31.1 L 25.0 31.1 L 25.0 27.1 L 74.0 27.1 L 74.0 12.1 L 86.0 14.1 L 89.0 16.1 L 86.0 17.9 L 86.0 27.1 L 126.0 27.1 L 132.0 22.1 L 143.0 31.1 L 138.0 35.1 L 138.0 53.0 L 137.9 54.2 L 137.9 55.2 L 138.0 55.9 L 138.0 56.4 L 138.2 56.8 L 138.4 57.1 L 138.8 57.5 L 139.5 57.9 L 140.6 58.3 L 142.0 58.5 L 175.5 58.5 Z " />
</g>
</svg>
