<svg xmlns="http://www.w3.org/2000/svg" xmlns:xlink="http://www.w3.org/1999/xlink" version="1.1" baseProfile="full" viewBox="0 0 200 200" width="200" height="200">
<g fill="black">
<path d="M 129.7 172.3 L 112.3 162.3 L 96.7 150.9 L 83.0 138.3 L 80.07791795730591 134.83312301635743 L 77.9 138.1 L 67.5 150.7 L 56.0 161.9 L 43.2 171.7 L 29.3 180.0 L 14.3 186.8 L 13.6 185.1 L 27.4 176.7 L 40.0 167.4 L 51.5 157.0 L 61.8 145.7 L 71.0 133.3 L 74.20023488998413 127.8596007347107 L 71.2 124.3 L 61.4 109.0 L 53.5 92.6 L 47.8 74.9 L 44.46755323410034 57.0 L 17.0 57.0 L 17.0 53.0 L 70.0 53.0 L 70.0 14.0 L 82.0 16.0 L 85.0 18.0 L 82.0 19.8 L 82.0 53.0 L 121.0 53.0 L 121.0 13.0 L 133.0 15.0 L 136.0 17.0 L 133.0 18.8 L 133.0 53.0 L 154.0 53.0 L 154.0 13.0 L 166.0 15.0 L 169.0 17.0 L 166.0 18.8 L 166.0 53.0 L 168.7777777671814 53.0 L 175.0 46.0 L 183.0 53.0 L 183.0 57.0 L 166.0 57.0 L 166.0 104.0 L 154.0 110.0 L 154.0 98.0 L 133.0 98.0 L 133.0 110.0 L 121.0 116.0 L 121.0 57.0 L 111.66719579696655 57.0 L 107.5 74.9 L 101.9 92.6 L 95.1 109.1 L 87.1 124.3 L 85.24105958938598 127.08841056823731 L 89.5 131.6 L 103.0 142.9 L 118.1 152.9 L 134.9 161.7 L 153.5 169.3 L 173.8 175.6 L 181.8 177.9 L 170.1 188.3 L 149.0 181.0 Z M 51.8 73.7 L 58.9 90.2 L 67.6 105.3 L 77.7 119.1 L 78.71836605072022 120.17877759933472 L 79.0 119.7 L 85.9 105.0 L 91.8 89.2 L 96.5 72.1 L 99.32573099136353 57.0 L 46.388826847076416 57.0 Z M 133.0 57.0 L 133.0 94.0 L 154.0 94.0 L 154.0 57.0 Z " />
</g>
</svg>
