<svg xmlns="http://www.w3.org/2000/svg" xmlns:xlink="http://www.w3.org/1999/xlink" version="1.1" baseProfile="full" viewBox="0 0 200 200" width="200" height="200">
<g fill="black">
<path d="M 48.0 132.0 L 152.0 132.0 L 158.0 127.0 L 169.0 136.0 L 164.0 140.0 L 164.0 179.0 L 152.0 185.0 L 152.0 175.0 L 48.0 175.0 L 48.0 182.0 L 36.0 188.0 L 36.0 126.0 Z M 48.0 136.0 L 48.0 171.0 L 152.0 171.0 L 152.0 136.0 Z M 141.9 112.9 L 126.9 109.1 L 113.1 104.5 L 100.5 99.3 L 99.86613845825195 98.96638870239258 L 93.7 102.1 L 80.2 107.5 L 65.5 112.0 L 49.6 115.6 L 32.4 118.3 L 14.1 120.0 L 13.8 118.3 L 31.8 114.6 L 48.4 110.4 L 63.6 105.7 L 77.5 100.4 L 90.0 94.5 L 90.6532196044922 94.11748399734498 L 89.1 93.3 L 79.0 86.6 L 70.1 79.3 L 62.7 71.1 L 56.8 62.3 L 58.3 61.2 L 65.7 68.3 L 73.9 74.7 L 83.0 80.6 L 93.0 85.9 L 99.74771575927734 88.79187812805176 L 101.1 88.0 L 110.9 80.9 L 119.3 73.2 L 126.5 64.9 L 132.3 56.0 L 132.32162952423096 56.01322975158691 L 132.8 55.2 L 142.6 62.3 L 144.1 65.5 L 140.1917526245117 65.5 L 135.3 72.0 L 126.8 80.9 L 117.0 88.8 L 110.64394159317017 92.86558694839478 L 116.4 94.8 L 129.7 98.4 L 144.2 101.3 L 159.8 103.7 L 176.6 105.4 L 187.2 106.5 L 175.3 118.6 L 158.0 116.1 Z M 143.7 51.7 L 135.3 47.3 L 125.7 42.9 L 118.4325499534607 39.97943592071533 L 117.9 40.3 L 106.6 45.8 L 94.3 50.6 L 81.0 54.6 L 66.8 57.9 L 51.5 60.4 L 35.3 62.0 L 18.0 62.8 L 17.9 61.0 L 34.8 58.2 L 50.6 55.1 L 65.3 51.5 L 78.8 47.3 L 91.3 42.6 L 102.6 37.4 L 106.04680852890014 35.44005002975464 L 103.1 34.4 L 90.2 30.2 L 76.1 26.0 L 61.0 21.7 L 44.8 17.3 L 45.1 15.5 L 61.8 18.0 L 77.4 20.8 L 91.9 23.8 L 105.3 27.1 L 115.24525775909424 29.907129192352294 L 121.9 25.3 L 129.9 18.5 L 136.1224129676819 11.916867446899413 L 136.1 11.9 L 137.2 10.8 L 145.8 19.2 L 146.7 22.7 L 142.85217952728271 21.970240974426268 L 137.5 27.0 L 128.25678644180297 34.05664691925049 L 129.0 34.3 L 139.3 38.1 L 148.6 42.1 L 156.8 46.3 L 164.1 50.8 L 166.4 54.7 L 165.4 59.2 L 161.4 61.5 L 157.0 60.5 L 150.9 56.1 Z " />
</g>
</svg>
