<svg xmlns="http://www.w3.org/2000/svg" xmlns:xlink="http://www.w3.org/1999/xlink" version="1.1" baseProfile="full" viewBox="0 0 200 200" width="200" height="200">
<g fill="black">
<path d="M 24.1 42.3 L 53.8 42.3 L 59.8 37.3 L 70.8 46.3 L 65.8 50.3 L 65.8 152.6 L 53.8 158.6 L 53.8 152.6 L 24.1 152.6 L 24.1 164.6 L 12.1 170.6 L 12.1 36.3 Z M 119.3 72.0 L 114.3 75.0 L 113.61645565032958 75.28481016159057 L 112.4 83.8 L 109.9 96.4 L 106.8 108.2 L 103.1 119.3 L 98.8 129.6 L 93.8 139.1 L 88.2 147.9 L 82.0 155.7 L 75.1 162.7 L 67.5 168.6 L 66.3 167.3 L 72.3 160.1 L 77.7 152.5 L 82.7 144.4 L 87.1 135.6 L 91.0 126.3 L 94.3 116.3 L 97.1 105.6 L 99.4 94.3 L 101.2 82.2 L 102.0765625 72.0 L 70.4 72.0 L 70.4 68.0 L 102.3 68.0 L 108.3 63.0 Z M 161.0 150.7 L 153.5 139.8 L 147.0 127.6 L 141.6 114.1 L 137.1 99.3 L 133.6 83.2 L 133.0 78.85 L 133.0 172.0 L 132.8 174.5 L 132.4 177.0 L 131.6 179.4 L 130.3 181.7 L 128.7 183.7 L 126.7 185.3 L 124.4 186.6 L 122.0 187.4 L 119.5 187.8 L 117.0 188.0 L 117.0 182.0 L 97.0 179.0 L 97.0 176.0 L 117.0 176.0 L 118.2 175.9 L 119.1 175.7 L 120.0 175.4 L 120.4 175.0 L 120.7 174.1 L 120.9 173.2 L 121.0 172.0 L 121.0 14.0 L 133.0 16.0 L 136.0 18.0 L 133.0 19.8 L 133.0 39.846153831481935 L 133.9 46.7 L 137.0 64.9 L 140.7 81.7 L 143.568661403656 91.67511806488037 L 144.0 91.1 L 147.7 86.1 L 151.4 81.4 L 154.9 76.9 L 158.1 72.6 L 161.2 68.4 L 164.0 64.4 L 166.6 60.6 L 169.0 56.9 L 170.61485710144044 54.208571434020996 L 170.6 54.2 L 170.8 53.9 L 171.1 53.4 L 171.12286376953125 53.415704345703126 L 171.6 52.7 L 181.0 60.2 L 182.3 63.5 L 178.44649801254272 63.30068092346191 L 178.2 63.6 L 175.1 67.2 L 171.8 70.8 L 168.3 74.4 L 164.5 78.2 L 160.5 82.0 L 156.2 85.9 L 151.6 89.8 L 146.7 93.7 L 144.59618320465088 95.24809160232545 L 145.1 97.0 L 150.3 110.8 L 156.2 123.1 L 162.8 133.9 L 170.0 143.2 L 178.0 151.0 L 186.6 157.5 L 190.1 159.9 L 179.1 168.4 L 169.5 160.3 Z M 24.1 46.3 L 24.1 148.6 L 53.8 148.6 L 53.8 46.3 Z " />
</g>
</svg>
