<svg xmlns="http://www.w3.org/2000/svg" xmlns:xlink="http://www.w3.org/1999/xlink" version="1.1" baseProfile="full" viewBox="0 0 200 200" width="200" height="200">
<g fill="black">
<path d="M 48.0 127.4 L 152.0 127.4 L 158.0 122.4 L 169.0 131.4 L 164.0 135.4 L 164.0 176.5 L 152.0 182.5 L 152.0 172.5 L 48.0 172.5 L 48.0 179.5 L 36.0 185.5 L 36.0 121.4 Z M 48.0 131.4 L 48.0 168.5 L 152.0 168.5 L 152.0 131.4 Z M 125.0 111.5 L 105.2 110.1 L 89.0 107.8 L 76.1 104.7 L 65.9 100.8 L 58.1 95.9 L 52.6 90.2 L 49.2 83.8 L 48.02673263549805 79.3676568031311 L 47.3 80.7 L 44.8 85.0 L 42.2 89.0 L 39.4 92.8 L 36.5 96.4 L 33.6 99.8 L 30.6 103.0 L 27.5 106.1 L 24.44252214431763 108.86159296035767 L 24.5 113.0 L 21.1 111.6 L 12.8 102.8 L 14.4 101.7 L 17.6 99.8 L 20.9 97.8 L 24.2 95.6 L 27.4 93.1 L 30.8 90.6 L 34.1 87.8 L 37.5 84.9 L 41.0 81.8 L 44.6 78.6 L 48.2 75.2 L 49.7 76.3 L 49.40369358062744 76.84322843551635 L 52.8 81.8 L 57.0 86.2 L 62.2 90.0 L 64.88785762786866 91.19033689498902 L 73.2 87.4 L 85.1 81.8 L 96.4 76.1 L 107.1 70.3 L 117.1 64.4 L 126.5 58.3 L 135.3 52.0 L 143.4 45.5 L 150.9 38.9 L 151.40746269226074 38.4 L 23.0 38.4 L 23.0 34.4 L 94.0 34.4 L 94.0 10.6 L 106.0 12.6 L 109.0 14.6 L 106.0 16.4 L 106.0 34.4 L 155.46716413497924 34.4 L 157.7 32.2 L 158.12727270126342 32.62727270126343 L 162.0 29.4 L 173.0 38.4 L 168.0 41.4 L 163.0140845298767 43.47746477127075 L 158.4 47.5 L 150.0 54.0 L 141.0 60.2 L 131.5 66.1 L 121.3 71.7 L 110.5 77.1 L 99.1 82.1 L 87.2 86.7 L 74.5 91.0 L 68.3960783958435 92.7439775466919 L 69.2 93.1 L 78.4 95.7 L 90.6 97.7 L 106.1 99.1 L 125.3 99.7 L 148.7 99.7 L 176.8 98.8 L 188.3 98.5 L 177.1 112.0 L 148.8 112.2 Z " />
</g>
</svg>
