<svg xmlns="http://www.w3.org/2000/svg" xmlns:xlink="http://www.w3.org/1999/xlink" version="1.1" baseProfile="full" viewBox="0 0 200 200" width="200" height="200">
<g fill="black">
<path d="M 53.0 135.0 L 145.9 135.0 L 151.9 130.0 L 162.9 139.0 L 157.9 143.0 L 157.9 181.1 L 145.9 187.1 L 145.9 179.1 L 53.0 179.1 L 53.0 182.1 L 41.0 188.1 L 41.0 129.0 Z M 53.0 139.0 L 53.0 175.1 L 145.9 175.1 L 145.9 139.0 Z M 14.0 113.1 L 74.5 113.1 L 74.5 85.8 L 45.0 85.8 L 45.0 97.8 L 33.0 103.8 L 33.0 44.0 L 45.0 50.0 L 74.0 50.0 L 74.0 27.1 L 19.0 27.1 L 19.0 23.1 L 159.0 23.1 L 169.0 13.1 L 181.0 23.1 L 181.0 27.1 L 126.0 27.1 L 126.0 50.0 L 155.0 50.0 L 161.0 45.0 L 172.0 54.0 L 167.0 58.0 L 167.0 91.8 L 155.0 97.8 L 155.0 85.8 L 125.5 85.8 L 125.5 113.1 L 167.8181818008423 113.1 L 176.0 104.1 L 186.0 113.1 L 186.0 117.1 L 14.0 117.1 Z M 86.0 27.1 L 86.0 54.0 L 74.0 60.0 L 74.0 54.0 L 45.0 54.0 L 45.0 81.8 L 74.5 81.8 L 80.0 76.8 L 90.5 85.8 L 85.5 89.3 L 85.5 113.1 L 114.5 113.1 L 114.5 76.3 L 125.5 81.8 L 155.0 81.8 L 155.0 54.0 L 126.0 54.0 L 114.0 60.0 L 114.0 27.1 Z M 106.0 55.4 L 108.5 57.4 L 106.0 59.06666669845581 L 106.0 67.4 L 112.5777777671814 67.4 L 118.8 60.4 L 126.8 67.4 L 126.8 71.4 L 106.0 71.4 L 106.0 85.5 L 96.0 90.5 L 96.0 71.4 L 75.2 71.4 L 75.2 67.4 L 96.0 67.4 L 96.0 53.4 Z " />
</g>
</svg>
