<svg xmlns="http://www.w3.org/2000/svg" xmlns:xlink="http://www.w3.org/1999/xlink" version="1.1" baseProfile="full" viewBox="0 0 200 200" width="200" height="200">
<g fill="black">
<path d="M 117.4 134.9 L 115.9 143.5 L 113.5 151.5 L 110.2 158.8 L 106.0 165.5 L 100.9 171.5 L 94.9 176.8 L 88.2 181.3 L 80.6 185.0 L 72.3 187.8 L 71.6 186.1 L 78.8 181.6 L 85.2 176.9 L 90.6 171.9 L 95.2 166.5 L 98.9 160.9 L 101.8 154.8 L 104.0 148.4 L 105.4 141.5 L 106.1 134.0 L 106.0 126.1 L 106.0655647277832 126.09834709167481 L 106.0 126.0 L 106.0 118.0 L 80.0 118.0 L 80.0 114.0 L 162.0 114.0 L 172.0 104.0 L 184.0 114.0 L 184.0 118.0 L 156.0 118.0 L 156.0 181.0 L 144.0 187.0 L 144.0 118.0 L 118.0 118.0 L 118.0 126.0 L 117.87904195785522 126.18143711090087 Z M 30.0 42.0 L 56.0 42.0 L 62.0 37.0 L 73.0 46.0 L 68.0 50.0 L 68.0 140.0 L 56.0 146.0 L 56.0 134.0 L 30.0 134.0 L 30.0 146.0 L 18.0 152.0 L 18.0 36.0 Z M 30.0 46.0 L 30.0 130.0 L 56.0 130.0 L 56.0 46.0 Z M 100.6 97.6 L 88.6 103.6 L 88.6 19.6 L 100.6 25.6 L 159.4 25.6 L 165.4 20.6 L 176.4 29.6 L 171.4 33.6 L 171.4 94.6 L 159.4 100.6 L 159.4 90.6 L 100.6 90.6 Z M 100.6 60.1 L 100.6 86.6 L 124.0 86.6 L 124.0 60.1 Z M 136.0 60.1 L 136.0 86.6 L 159.4 86.6 L 159.4 60.1 Z M 100.6 29.6 L 100.6 56.1 L 124.0 56.1 L 124.0 29.6 Z M 136.0 29.6 L 136.0 56.1 L 159.4 56.1 L 159.4 29.6 Z " />
</g>
</svg>
