<svg xmlns="http://www.w3.org/2000/svg" xmlns:xlink="http://www.w3.org/1999/xlink" version="1.1" baseProfile="full" viewBox="0 0 200 200" width="200" height="200">
<g fill="black">
<path d="M 57.0 125.0 L 142.0 125.0 L 148.0 120.0 L 159.0 129.0 L 154.0 133.0 L 154.0 175.0 L 142.0 181.0 L 142.0 169.0 L 57.0 169.0 L 57.0 181.0 L 45.0 187.0 L 45.0 119.0 Z M 57.0 129.0 L 57.0 165.0 L 142.0 165.0 L 142.0 129.0 Z M 75.6 101.5 L 73.3 98.3 L 71.18800001144409 95.57200002670288 L 67.6 97.6 L 62.7 100.0 L 57.6 102.3 L 52.2 104.6 L 46.7 106.8 L 40.9 109.0 L 34.9 111.2 L 28.8 113.4 L 26.25595121383667 114.27451677322388 L 25.1 117.9 L 22.4 115.6 L 17.1 104.6 L 19.1 104.0 L 23.4 102.9921875 L 23.4 16.8 L 35.4 22.8 L 74.7 22.8 L 80.7 17.8 L 91.7 26.8 L 86.7 30.8 L 86.7 70.6 L 74.7 76.6 L 74.7 68.6 L 35.4 68.6 L 35.4 100.05573768615723 L 37.9 99.4 L 43.8 98.0 L 49.6 96.5 L 55.1 95.1 L 60.5 93.8 L 65.7 92.5 L 68.21337013244629 92.00718231201172 L 65.5 89.1 L 62.7 86.2 L 59.7 83.3 L 56.6 80.3 L 53.2 77.5 L 54.1 75.9 L 58.3 77.5 L 62.4 79.3 L 66.3 81.3 L 70.1 83.6 L 73.7 86.1 L 77.2 88.8 L 80.5 91.7 L 83.7 94.7 L 86.8 98.0 L 89.7 101.4 L 90.6 105.9 L 88.1 109.7 L 83.7 110.6 L 79.8 108.2 L 77.8 104.8 Z M 180.0 83.8 L 182.0 83.8 L 180.0 100.8 L 183.0 102.8 L 185.0 105.8 L 183.0 108.8 L 180.0 110.8 L 153.3 110.8 L 150.9 110.5 L 148.6 109.8 L 146.4 108.7 L 144.4 107.2 L 142.7 105.3 L 141.5 103.2 L 140.6 100.8 L 140.0 98.4 L 139.8 95.8 L 139.8 69.34418601989746 L 138.4 72.6 L 133.2 81.7 L 126.9 89.8 L 119.5 97.0 L 111.3 103.2 L 102.0 108.3 L 91.8 112.4 L 91.1 110.7 L 100.1 105.1 L 108.1 98.9 L 115.0 92.3 L 120.9 85.1 L 125.9 77.2 L 130.0 68.7 L 132.38461542129517 61.7 L 112.85880680084229 61.7 L 111.4 69.6 L 98.5 73.3 L 106.5 30.2 L 117.9 34.4 L 120.5 36.9 L 117.25760107040405 37.87883739471435 L 113.59744319915771 57.7 L 133.51800003051758 57.7 L 135.3 49.6 L 136.6 39.0 L 137.0 27.5 L 97.6 27.5 L 97.6 23.5 L 155.2 23.5 L 165.2 13.5 L 177.2 23.5 L 177.2 27.5 L 148.07692308425902 27.5 L 149.0 27.7 L 151.9 29.8 L 148.64630165100098 31.687145042419434 L 147.9 40.1 L 145.8 51.8 L 144.1064814567566 57.7 L 161.3 57.7 L 171.3 47.7 L 183.3 57.7 L 183.3 61.7 L 147.6 61.7 L 151.8 62.4 L 154.8 64.4 L 151.8 66.2 L 151.8 98.0 L 151.9 98.7 L 152.0 99.1 L 152.2 99.5 L 152.8 100.1 L 153.5 100.4 L 154.5 100.7 L 155.8 100.8 L 175.0 100.8 Z M 35.4 46.5 L 35.4 64.6 L 74.7 64.6 L 74.7 46.5 Z M 35.4 26.8 L 35.4 42.5 L 74.7 42.5 L 74.7 26.8 Z " />
</g>
</svg>
