<svg xmlns="http://www.w3.org/2000/svg" xmlns:xlink="http://www.w3.org/1999/xlink" version="1.1" baseProfile="full" viewBox="0 0 200 200" width="200" height="200">
<g fill="black">
<path d="M 160.2 155.4 L 154.7 151.9 L 149.7 148.1 L 148.0542350769043 146.5639527320862 L 144.9 148.4 L 137.6 151.8 L 135.74129858016968 152.4672261238098 L 144.7 160.2 L 155.7 167.4 L 168.1 173.6 L 182.1 178.7 L 189.4 181.2 L 177.8 191.2 L 162.9 185.0 L 149.6 177.5 L 137.8 168.9 L 127.8 159.1 L 125.23511447906495 155.74122133255005 L 121.4 156.7 L 112.4 158.2 L 111.9 156.4 L 120.2 153.1 L 122.43292036056519 152.07168140411378 L 119.4 148.1 L 112.7 136.2 L 107.9 123.2 L 104.7 109.2 L 103.89995431900024 100.03024530410767 L 101.8 111.3 L 97.1 126.0 L 90.6 139.5 L 82.3 151.6 L 72.4 162.2 L 60.7 171.4 L 47.5 179.1 L 32.6 185.3 L 16.2 189.9 L 15.7 188.2 L 31.2 181.8 L 44.9 174.4 L 56.8 166.1 L 67.1 156.8 L 72.45448064804077 150.31162929534912 L 66.3 152.3 L 60.0 154.1 L 53.9 155.7 L 48.1 157.2 L 42.6 158.6 L 37.2 159.8 L 32.2 161.0 L 27.4 162.1 L 26.861044788360594 162.21716413497924 L 25.2 165.7 L 22.8 163.1 L 19.1 151.5 L 21.1 151.2 L 25.7 150.8 L 30.5 150.4 L 35.6 149.9 L 41.0 149.4 L 43.0 149.18947372436523 L 43.0 127.5 L 21.0 127.5 L 21.0 123.5 L 43.0 123.5 L 43.0 105.5 L 55.0 107.5 L 58.0 109.5 L 55.0 111.3 L 55.0 123.5 L 60.418181800842284 123.5 L 68.6 114.5 L 78.6 123.5 L 78.6 127.5 L 55.0 127.5 L 55.0 147.96774196624756 L 58.8 147.6 L 65.3 147.0 L 72.1 146.5 L 75.69049425125122 146.34828901290894 L 82.4 135.1 L 87.7 122.6 L 91.4 108.9 L 92.62147655487061 99.8 L 13.0 99.8 L 13.0 95.8 L 93.15838928222657 95.8 L 93.4 94.0 L 94.0 77.9 L 94.0 77.6 L 15.0 77.6 L 15.0 73.6 L 172.7777777671814 73.6 L 179.0 66.6 L 187.0 73.6 L 187.0 77.6 L 104.5 77.6 L 106.0 77.9 L 109.0 79.9 L 106.15384616851807 81.60769233703613 L 107.6 93.9 L 107.99078016281128 95.8 L 166.8181818008423 95.8 L 175.0 86.8 L 185.0 95.8 L 185.0 99.8 L 108.81347513198853 99.8 L 110.5 108.0 L 114.7 120.8 L 119.29638557434082 130.49419498443604 L 120.5 129.4 L 123.3 126.2 L 125.9 123.2 L 128.3 120.2 L 130.3 117.3 L 132.1 114.4 L 133.5 111.6 L 134.7 108.8 L 135.6 106.1 L 136.05393676757814 104.41394920349121 L 136.0 104.4 L 136.8 102.0 L 147.6 107.4 L 149.8 110.3 L 145.5969696998596 111.1848484992981 L 144.7125 112.6 L 164.0 112.6 L 170.0 107.6 L 181.0 116.6 L 176.0 119.6 L 173.5547540664673 120.61885242462158 L 172.1 123.4 L 167.9 129.5 L 163.1 135.1 L 157.6 140.1 L 156.95930490493774 140.56984300613402 L 160.4 142.4 L 165.4 144.8 L 170.9 146.8 L 176.9 148.6 L 184.5 151.0 L 172.9 161.1 L 166.3 158.4 Z M 133.2 125.0 L 129.8 127.5 L 126.2 129.7 L 120.41904077529907 132.73500356674194 L 127.0 142.8 L 131.37610301971435 147.7097741127014 L 134.8 145.9 L 141.0 141.9 L 142.52665195465087 140.73419303894042 L 141.4 139.4 L 138.2 134.5 L 135.7 129.4 L 134.11253519058226 124.26408452987671 Z M 141.83000001907348 116.6 L 141.6 116.9 L 139.1 119.7 L 137.2868420600891 121.51315793991088 L 137.8 122.3 L 140.8 126.5 L 144.1 130.3 L 147.6 133.8 L 149.26187181472778 135.16358709335327 L 151.4 133.2 L 155.6 128.4 L 159.1 123.4 L 162.1 118.0 L 162.66491231918334 116.6 Z M 123.1 24.2 L 152.8 24.2 L 158.8 19.2 L 169.8 28.2 L 164.8 32.2 L 164.8 61.7 L 152.8 67.7 L 152.8 61.7 L 123.1 61.7 L 111.1 67.7 L 111.1 18.2 Z M 47.1 24.2 L 76.8 24.2 L 82.8 19.2 L 93.8 28.2 L 88.8 32.2 L 88.8 61.7 L 76.8 67.7 L 76.8 61.7 L 47.1 61.7 L 35.1 67.7 L 35.1 18.2 Z M 123.1 28.2 L 123.1 57.7 L 152.8 57.7 L 152.8 28.2 Z M 47.1 28.2 L 47.1 57.7 L 76.8 57.7 L 76.8 28.2 Z " />
</g>
</svg>
