<svg xmlns="http://www.w3.org/2000/svg" xmlns:xlink="http://www.w3.org/1999/xlink" version="1.1" baseProfile="full" viewBox="0 0 200 200" width="200" height="200">
<g fill="black">
<path d="M 40.3 80.2 L 94.2 80.2 L 94.2 58.7 L 106.2 60.7 L 109.2 62.7 L 106.2 64.5 L 106.2 80.2 L 155.6 80.2 L 165.6 70.2 L 177.6 80.2 L 177.6 84.2 L 40.3 84.2 L 40.3 128.0 L 39.8 136.6 L 38.7 144.9 L 37.0 152.7 L 34.8 160.0 L 32.1 166.8 L 28.8 173.1 L 24.9 178.9 L 20.6 184.1 L 15.6 188.6 L 10.1 192.4 L 8.9 191.0 L 12.9 186.0 L 16.3 180.8 L 19.4 175.4 L 22.0 169.7 L 24.2 163.7 L 25.9 157.4 L 27.2 150.6 L 28.0 143.5 L 28.4 135.9 L 28.3 128.0 L 28.3 74.2 Z M 113.5 116.2 L 116.5 118.2 L 113.5 120.0 L 113.5 142.3 L 144.1 142.3 L 154.1 132.3 L 166.1 142.3 L 166.1 146.3 L 113.5 146.3 L 113.5 176.2 L 159.0 176.2 L 169.0 166.2 L 181.0 176.2 L 181.0 180.2 L 34.8 180.2 L 34.8 176.2 L 101.5 176.2 L 101.5 146.3 L 50.6 146.3 L 50.6 142.3 L 101.5 142.3 L 101.5 115.0 L 43.6 115.0 L 43.6 111.0 L 101.5 111.0 L 101.5 93.0 L 113.5 95.0 L 116.5 97.0 L 113.5 98.8 L 113.5 111.0 L 150.2 111.0 L 160.2 101.0 L 172.2 111.0 L 172.2 115.0 L 106.3 115.0 Z M 47.1 21.1 L 76.8 21.1 L 82.8 16.1 L 93.8 25.1 L 88.8 29.1 L 88.8 58.5 L 76.8 64.5 L 76.8 54.5 L 47.1 54.5 L 47.1 61.5 L 35.1 67.5 L 35.1 15.1 Z M 123.1 21.1 L 152.8 21.1 L 158.8 16.1 L 169.8 25.1 L 164.8 29.1 L 164.8 58.5 L 152.8 64.5 L 152.8 54.5 L 123.1 54.5 L 123.1 61.5 L 111.1 67.5 L 111.1 15.1 Z M 123.1 25.1 L 123.1 50.5 L 152.8 50.5 L 152.8 25.1 Z M 47.1 25.1 L 47.1 50.5 L 76.8 50.5 L 76.8 25.1 Z " />
</g>
</svg>
