<svg xmlns="http://www.w3.org/2000/svg" xmlns:xlink="http://www.w3.org/1999/xlink" version="1.1" baseProfile="full" viewBox="0 0 200 200" width="200" height="200">
<g fill="black">
<path d="M 102.0 152.0 L 162.0 152.0 L 168.0 147.0 L 179.0 156.0 L 174.0 160.0 L 174.0 180.0 L 162.0 186.0 L 162.0 178.0 L 102.0 178.0 L 102.0 181.0 L 90.0 187.0 L 90.0 146.0 Z M 102.0 156.0 L 102.0 174.0 L 162.0 174.0 L 162.0 156.0 Z M 30.0 41.7 L 57.4 41.7 L 62.9 36.7 L 73.4 45.7 L 68.4 49.2 L 68.4 140.2 L 57.4 145.7 L 57.4 134.2 L 30.0 134.2 L 30.0 146.2 L 18.0 152.2 L 18.0 35.7 Z M 135.4 14.8 L 138.4 16.8 L 135.4 18.6 L 135.4 28.2 L 138.2 28.2 L 148.2 18.2 L 159.45135488510132 27.576129055023195 L 161.2 26.1 L 168.3 19.3 L 168.6 19.0 L 176.7 27.9 L 177.3 31.4 L 173.68979187011718 30.43297996520996 L 168.5 34.8 L 159.9 41.2 L 151.79152545928955 46.4 L 176.7777777671814 46.4 L 183.0 39.4 L 191.0 46.4 L 191.0 50.4 L 144.66037731170655 50.4 L 141.0 52.4 L 130.9 57.1 L 120.2 61.3 L 118.1 62.0 L 167.5 62.0 L 173.0 57.0 L 183.5 66.0 L 178.5 69.5 L 178.5 105.0 L 167.5 110.5 L 167.5 101.0 L 157.0 101.0 L 162.7 106.7 L 162.7 110.7 L 110.9 110.7 L 110.9 122.4 L 151.7777777671814 122.4 L 158.0 115.4 L 166.0 122.4 L 166.0 126.4 L 110.9 126.4 L 99.9 131.9 L 99.9 101.2 L 110.9 106.7 L 152.2 106.7 L 156.475 101.0 L 91.0 101.0 L 91.0 133.0 L 164.7777777671814 133.0 L 171.0 126.0 L 179.0 133.0 L 179.0 137.0 L 91.0 137.0 L 81.0 142.0 L 81.0 92.0 L 91.0 97.0 L 167.5 97.0 L 167.5 66.0 L 105.2 66.0 L 97.4 68.0 L 85.3 70.4 L 72.7 72.0 L 72.4 70.2 L 84.4 66.7 L 96.0 62.8 L 106.9 58.8 L 117.4 54.3 L 125.3625 50.4 L 76.7 50.4 L 76.7 46.4 L 123.4 46.4 L 123.4 32.2 L 89.7 32.2 L 89.7 28.2 L 123.4 28.2 L 123.4 12.8 Z M 30.0 45.7 L 30.0 130.2 L 57.4 130.2 L 57.4 45.7 Z M 162.8 75.6 L 157.8 79.1 L 157.8 91.0 L 146.8 96.5 L 146.8 91.0 L 91.3 91.0 L 91.3 87.0 L 146.8 87.0 L 146.8 75.6 L 91.7 75.6 L 91.7 71.6 L 146.8 71.6 L 152.3 66.6 Z M 135.4 32.2 L 135.4 44.91505374908447 L 136.5 44.3 L 145.3 38.6 L 153.5 32.6 L 153.97384614944457 32.2 Z " />
</g>
</svg>
