<svg xmlns="http://www.w3.org/2000/svg" xmlns:xlink="http://www.w3.org/1999/xlink" version="1.1" baseProfile="full" viewBox="0 0 200 200" width="200" height="200">
<g fill="black">
<path d="M 48.0 132.0 L 152.0 132.0 L 158.0 127.0 L 169.0 136.0 L 164.0 140.0 L 164.0 179.0 L 152.0 185.0 L 152.0 175.0 L 48.0 175.0 L 48.0 182.0 L 36.0 188.0 L 36.0 126.0 Z M 48.0 136.0 L 48.0 171.0 L 152.0 171.0 L 152.0 136.0 Z M 156.6 113.9 L 147.3 109.8 L 138.7 105.3 L 130.7 100.4 L 123.3 95.0 L 116.6 89.3 L 110.7 83.2 L 106.5 77.8692307472229 L 106.5 119.7 L 94.5 125.7 L 94.5 84.2797101020813 L 87.7 89.7 L 80.0 95.0 L 71.4 100.0 L 61.9 104.6 L 51.4 109.0 L 40.0 113.1 L 27.7 116.8 L 14.4 120.1 L 13.9 118.4 L 26.5 113.2 L 38.1 108.1 L 48.7 103.0 L 58.4 97.9 L 67.1 92.6 L 74.8 87.3 L 81.4 81.9 L 87.1 76.5 L 91.7 71.0 L 94.5 66.83783779144287 L 94.5 44.4 L 18.2 44.4 L 18.2 40.4 L 94.5 40.4 L 94.5 28.118803405761717 L 89.8 28.4 L 78.1 28.8 L 66.2 29.2 L 54.1 29.3 L 41.9 29.1 L 29.5 28.6 L 29.5 26.8 L 41.7 25.3 L 53.8 23.9 L 65.7 22.6 L 77.5 21.3 L 89.1 19.9 L 100.6 18.4 L 111.8 16.9 L 123.0 15.3 L 133.9 13.6 L 143.71469383239747 11.96421766281128 L 143.7 11.9 L 143.76675567626953 11.955540752410888 L 144.7 11.8 L 144.85110244750976 12.85771722793579 L 156.2 22.3 L 156.6 25.2 L 152.09226360321045 22.886819458007814 L 146.4 23.7 L 135.4 24.9 L 124.2 26.0 L 112.9 26.9 L 109.4271523475647 27.143708610534667 L 106.5 28.9 L 106.5 40.4 L 161.7 40.4 L 171.7 30.4 L 183.7 40.4 L 183.7 44.4 L 106.5 44.4 L 106.5 71.82372884750366 L 108.7 73.8 L 114.8 78.9 L 118.50338983535767 81.67754240036011 L 119.3 81.1 L 123.0 78.0 L 126.3 74.9 L 129.3 71.6 L 132.0 68.2 L 134.4 64.7 L 136.5 60.9 L 138.3 57.0 L 139.9 52.8 L 140.8512035369873 49.312253856658934 L 140.8 49.3 L 141.6 46.9 L 152.5 52.1 L 154.8 54.9 L 150.95576248168945 55.77675590515137 L 150.4 57.1 L 147.8 61.8 L 145.53529415130615 65.35882349014283 L 146.9 65.7 L 150.6 66.5 L 154.1 67.4 L 157.4 68.5 L 160.7 69.8 L 163.8 71.1 L 166.9 72.6 L 169.8 74.2 L 175.4 77.8 L 177.2 82.0 L 175.7 86.3 L 171.6 88.2 L 167.3 86.7 L 165.5 84.6 L 163.5 82.5 L 161.4 80.5 L 159.2 78.4 L 156.8 76.4 L 154.3 74.4 L 151.6 72.4 L 148.8 70.4 L 145.9 68.3 L 144.12068967819215 67.2991379737854 L 141.8 70.2 L 138.2 73.8 L 134.4 77.0 L 130.2 79.9 L 125.8 82.3 L 121.60155572891236 83.9618842124939 L 128.1 88.2 L 135.5 92.3 L 143.3 96.2 L 151.8 99.7 L 160.7 102.9 L 170.2 105.7 L 180.3 108.3 L 188.7 110.4 L 176.9 121.0 L 166.5 117.7 Z M 68.9 78.4 L 67.6 76.8 L 66.0 75.2 L 64.0 73.4 L 61.8 71.6 L 59.3 69.7 L 56.6 67.7 L 53.7 65.5 L 53.4754716873169 65.38113203048707 L 52.5 66.8 L 48.7 71.2 L 44.6 75.4 L 40.0 79.2 L 35.0 82.7 L 29.7 85.8 L 23.9 88.5 L 17.6 90.8 L 16.8 89.2 L 21.9 85.3 L 26.7 81.4 L 31.0 77.5 L 34.9 73.6 L 38.4 69.5 L 41.5 65.4 L 44.2 61.2 L 46.4 56.8 L 48.3 52.3 L 49.50601453781128 48.60155544281006 L 49.5 48.6 L 50.3 46.2 L 61.1 51.6 L 63.3 54.5 L 59.45096778869629 55.31032257080078 L 58.7 57.0 L 55.8 62.0 L 54.938554191589354 63.253012084960936 L 58.3 64.0 L 61.7 64.9 L 64.9 65.9 L 67.8 66.9 L 70.5 68.0 L 73.0 69.1 L 75.3 70.2 L 77.4 71.5 L 79.4 72.8 L 81.0 77.1 L 79.2 81.3 L 74.9 82.8 L 70.7 81.0 L 70.0 79.8 Z " />
</g>
</svg>
