<svg xmlns="http://www.w3.org/2000/svg" xmlns:xlink="http://www.w3.org/1999/xlink" version="1.1" baseProfile="full" viewBox="0 0 200 200" width="200" height="200">
<g fill="black">
<path d="M 175.3 178.1 L 173.8 180.1 L 172.2 181.9 L 170.2 183.5 L 168.1 184.8 L 165.8 185.8 L 163.4 186.4 L 161.0 186.8 L 158.4 187.0 L 158.4 181.0 L 144.4 178.0 L 144.4 175.0 L 158.4 175.0 L 159.8 174.9 L 160.9 174.7 L 161.8 174.4 L 162.6 174.1 L 163.3 173.7 L 163.9 173.2 L 164.5 172.6 L 165.1 171.8 L 165.6 170.8 L 166.1 169.5 L 167.0 166.0 L 167.9 160.0 L 168.8 151.8 L 169.5 141.4 L 170.2 128.8 L 170.7 114.2 L 171.1 97.5 L 171.4 78.7 L 171.6 57.9 L 171.6 37.0 L 154.73805313110353 37.0 L 154.1 57.6 L 152.6 78.6 L 150.2 98.1 L 149.33804168701172 103.07711410522461 L 152.0 107.0 L 155.5 112.8 L 158.6 118.8 L 161.5 124.9 L 164.0 131.2 L 163.6 135.8 L 160.2 138.8 L 155.7 138.4 L 152.6 135.0 L 150.8 129.0 L 148.8 123.1 L 146.67357063293457 117.73769979476928 L 143.1 132.3 L 138.2 146.9 L 132.5 160.0 L 125.9 171.4 L 118.4 180.9 L 110.1 188.6 L 108.9 187.3 L 115.5 178.6 L 121.3 168.6 L 126.5 157.3 L 131.1 144.5 L 134.9 130.1 L 137.9 114.3 L 139.4387797355652 103.07973108291625 L 137.9 100.3 L 134.6 94.8 L 131.0 89.4 L 127.2 83.9 L 123.3 78.3 L 124.6 77.0 L 130.0 81.3 L 135.1 85.9 L 139.8 90.9 L 140.7081953048706 91.95268087387085 L 141.9 77.8 L 142.7 57.2 L 142.79099102020263 37.0 L 121.3 37.0 L 121.3 33.0 L 171.6 33.0 L 177.6 28.0 L 188.6 37.0 L 183.6 40.0 L 183.6 57.9 L 183.4 78.9 L 183.1 97.8 L 182.7 114.6 L 182.1 129.3 L 181.5 142.1 L 180.7 152.8 L 179.8 161.5 L 178.8 168.3 L 177.4 173.5 L 176.5 175.9 Z M 109.9 74.3 L 112.7 76.3 L 109.9 78.05 L 109.9 131.9 L 98.9 137.4 L 98.9 131.9 L 80.9 131.9 L 80.9 143.5 L 101.11818180084228 143.5 L 109.3 134.5 L 119.3 143.5 L 119.3 147.5 L 107.9 147.5 L 107.9 181.3 L 95.9 187.3 L 95.9 147.5 L 80.9 147.5 L 80.9 183.0 L 69.9 188.5 L 69.9 122.4 L 80.9 127.9 L 98.9 127.9 L 98.9 72.3 Z M 33.7 159.9 L 33.0 163.8 L 31.9 167.5 L 30.4 170.9 L 28.6 174.1 L 26.4 177.0 L 23.9 179.6 L 21.2 181.9 L 18.1 184.0 L 14.8 185.6 L 11.4 187.3 L 10.5 185.7 L 13.2 183.4 L 15.4 180.7 L 17.2 178.1 L 18.7 175.5 L 19.9 172.9 L 20.8 170.3 L 21.4 167.7 L 21.8 165.0 L 21.8 162.3 L 21.707547187805176 159.71132078170777 L 21.7 159.7 L 21.7 147.5 L 10.3 147.5 L 10.3 143.5 L 48.0 143.5 L 48.0 131.9 L 29.3 131.9 L 18.3 137.4 L 18.3 72.3 L 29.3 74.3 L 32.1 76.3 L 29.3 78.05 L 29.3 127.9 L 48.0 127.9 L 53.5 122.9 L 64.0 131.9 L 59.0 135.4 L 59.0 183.0 L 48.0 188.5 L 48.0 147.5 L 33.7 147.5 L 33.7 159.7 L 33.56956520080566 159.8956521987915 Z M 48.8 64.0 L 78.9 64.0 L 84.4 59.0 L 94.9 68.0 L 89.9 71.5 L 89.9 116.9 L 78.9 122.4 L 78.9 116.9 L 48.8 116.9 L 37.8 122.4 L 37.8 58.5 Z M 48.8 99.9 L 48.8 112.9 L 78.9 112.9 L 78.9 99.9 Z M 48.8 83.9 L 48.8 95.9 L 78.9 95.9 L 78.9 83.9 Z M 48.8 68.0 L 48.8 79.9 L 78.9 79.9 L 78.9 68.0 Z M 40.8 21.6 L 88.1 21.6 L 94.1 16.6 L 105.1 25.6 L 100.1 29.6 L 100.1 51.0 L 88.1 57.0 L 88.1 49.0 L 40.8 49.0 L 40.8 52.0 L 28.8 58.0 L 28.8 15.6 Z M 40.8 25.6 L 40.8 45.0 L 88.1 45.0 L 88.1 25.6 Z " />
</g>
</svg>
