<svg xmlns="http://www.w3.org/2000/svg" xmlns:xlink="http://www.w3.org/1999/xlink" version="1.1" baseProfile="full" viewBox="0 0 200 200" width="200" height="200">
<g fill="black">
<path d="M 76.3 166.2 L 72.7 162.0 L 70.62468614578248 159.87280330657958 L 70.1 160.6 L 63.9 167.5 L 57.2 173.6 L 50.1 178.7 L 42.5 182.8 L 34.6 185.9 L 26.3 187.8 L 25.8 186.1 L 33.1 182.4 L 39.9 178.2 L 46.2 173.4 L 52.1 168.0 L 57.6 161.9 L 62.6 155.0 L 63.765850925445555 153.11479425430298 L 60.0 149.6 L 55.2 145.4 L 50.2 141.2 L 44.9 136.8 L 41.58963680267334 133.9800609588623 L 39.2 141.9 L 35.2 152.7 L 30.7 162.7 L 25.6 171.9 L 20.0 180.2 L 13.8 187.5 L 12.3 186.4 L 16.8 178.2 L 20.9 169.4 L 24.7 160.1 L 28.1 150.1 L 31.1 139.5 L 33.6 128.2 L 35.8 116.1 L 37.5 103.3 L 37.528888893127444 103.0 L 13.0 103.0 L 13.0 99.0 L 37.91407403945923 99.0 L 38.8 89.8 L 39.39855070114136 78.0 L 19.6 78.0 L 19.6 74.0 L 67.3 74.0 L 77.3 64.0 L 89.3 74.0 L 89.3 78.0 L 51.42534246444702 78.0 L 50.1 90.9 L 48.93453235626221 99.0 L 78.51818180084229 99.0 L 86.7 90.0 L 96.7 99.0 L 96.7 103.0 L 48.35899276733399 103.0 L 48.1 104.8 L 45.6 117.9 L 45.10887098312378 120.0 L 78.7 120.0 L 84.7 115.0 L 95.7 124.0 L 90.7 127.0 L 88.68698568344116 127.83875598907471 L 86.0 134.4 L 81.1 144.0 L 76.19687042236328 152.04853353500366 L 79.6 154.8 L 84.0 158.7 L 88.2 162.7 L 92.1 166.8 L 93.3 171.2 L 91.2 175.3 L 86.8 176.5 L 82.7 174.4 L 79.7 170.3 Z M 155.8 174.5 L 147.6 166.9 L 141.35733461380005 159.5301866531372 L 135.8 165.8 L 127.4 173.2 L 118.3 179.3 L 108.6 183.8 L 98.4 186.9 L 97.8 185.2 L 106.9 180.4 L 115.3 174.8 L 123.1 168.2 L 130.3 160.6 L 136.4346287727356 152.48341426849365 L 134.1 149.0 L 128.8 139.0 L 124.3 128.1 L 120.9 116.5 L 118.5 104.2 L 117.2 91.1 L 119.0 90.9 L 122.6 103.3 L 126.5 114.8 L 131.0 125.4 L 136.2 135.1 L 141.85412158966065 143.82917013168336 L 142.8 142.3 L 148.2 131.4 L 153.0 119.4 L 157.2 106.2 L 160.66446952819825 92.81029348373413 L 160.6 92.8 L 161.3 90.1 L 172.5 94.7 L 174.9 97.4 L 171.38153619766234 98.48752517700196 L 168.1 109.6 L 163.0 123.3 L 157.2 135.8 L 150.8 147.0 L 147.75894737243652 151.22368421554566 L 148.3 151.9 L 155.4 159.0 L 163.1 165.3 L 171.5 170.8 L 180.6 175.5 L 186.0 178.2 L 174.7 187.4 L 164.8 181.4 Z M 44.17338705062866 124.0 L 42.7 130.3 L 42.32420711517334 131.5454849243164 L 47.0 133.6 L 53.2 136.7 L 59.1 140.1 L 64.6 143.6 L 68.0534218788147 145.94572057724 L 71.6 139.1 L 75.5 129.9 L 77.58585863113403 124.0 Z M 157.6 22.5 L 171.2 22.5 L 177.2 17.5 L 188.2 26.5 L 183.2 30.5 L 183.2 78.4 L 171.2 84.4 L 171.2 72.4 L 157.6 72.4 L 157.6 84.4 L 146.6 89.9 L 146.6 17.0 Z M 114.7 22.5 L 128.3 22.5 L 133.8 17.5 L 144.3 26.5 L 139.3 30.0 L 139.3 78.4 L 128.3 83.9 L 128.3 72.4 L 114.7 72.4 L 114.7 75.4 L 102.7 81.4 L 102.7 16.5 Z M 82.2168740272522 13.524770164489746 L 90.7 21.0 L 90.9 24.2 L 86.93295850753785 22.491120624542237 L 85.9 22.9 L 80.2 24.7 L 74.4 26.4 L 68.6 27.9 L 62.6 29.2 L 56.6 30.4 L 50.5 31.4 L 44.3 32.2 L 38.1 32.7 L 36.95543413162231 32.75365152359009 L 37.0 32.8 L 33.42632846832275 34.034541034698485 L 33.1 35.2 L 31.5 40.3 L 29.8 45.3 L 28.0 50.4 L 26.1 55.4 L 24.1 60.5 L 21.9 65.5 L 19.5 70.5 L 16.8 75.4 L 13.9 80.3 L 12.2 79.6 L 13.3 74.1 L 14.4 68.7 L 16.8 58.1 L 18.0 53.0 L 19.1 47.8 L 20.1 42.7 L 21.1 37.7 L 22.0 32.6 L 22.651921463012695 28.606980991363525 L 22.6 28.6 L 23.2 25.8 L 31.569833087921143 29.0590500831604 L 37.1 27.4 L 48.9 24.0 L 54.6 22.2 L 60.2 20.3 L 65.7 18.3 L 71.0 16.2 L 76.3 14.0 L 81.5 11.7 Z M 157.6 26.5 L 157.6 68.4 L 171.2 68.4 L 171.2 26.5 Z M 114.7 26.5 L 114.7 68.4 L 128.3 68.4 L 128.3 26.5 Z M 83.3 56.5 L 82.4 53.7 L 81.5 50.8 L 80.3 47.9 L 79.1 44.9 L 77.7 41.9 L 76.1 38.7 L 74.5 35.4 L 72.5 32.3 L 73.9 31.1 L 76.7 33.7 L 79.6 36.1 L 82.2 38.6 L 84.7 41.3 L 87.0 43.9 L 89.1 46.7 L 91.0 49.5 L 92.8 52.4 L 94.5 55.3 L 95.9 58.2 L 95.5 62.8 L 92.1 65.8 L 87.5 65.4 L 84.5 62.0 L 84.0 59.3 Z M 50.5 55.0 L 50.4 52.7 L 50.2 50.3 L 49.9 48.0 L 49.5 45.7 L 48.3 40.9 L 47.6 38.5 L 46.4 36.3 L 47.8 35.2 L 49.6 37.1 L 51.6 38.9 L 53.5 40.9 L 55.2 43.0 L 56.8 45.3 L 58.2 47.7 L 59.4 50.2 L 60.6 52.8 L 61.5 55.5 L 62.4 58.3 L 61.1 62.7 L 57.1 64.9 L 52.7 63.6 L 50.4 59.7 L 50.5 57.3 Z " />
</g>
</svg>
