<svg xmlns="http://www.w3.org/2000/svg" xmlns:xlink="http://www.w3.org/1999/xlink" version="1.1" baseProfile="full" viewBox="0 0 200 200" width="200" height="200">
<g fill="black">
<path d="M 144.3 179.55 L 137.6 182.9 L 137.6 148.4 L 121.4 148.4 L 121.4 176.9 L 109.4 182.9 L 109.4 148.4 L 94.6 148.4 L 94.6 182.0 L 82.6 188.0 L 82.6 148.4 L 69.5 148.4 L 69.5 144.4 L 82.6 144.4 L 82.6 104.0 L 94.6 110.0 L 164.3 110.0 L 170.3 105.0 L 181.3 114.0 L 176.3 118.0 L 176.3 144.4 L 179.6 144.4 L 184.1 138.4 L 190.1 144.4 L 190.1 148.4 L 176.3 148.4 L 176.3 173.6 L 176.2 176.1 L 175.8 178.6 L 175.0 181.0 L 173.7 183.3 L 172.1 185.3 L 170.1 187.0 L 167.8 188.2 L 165.4 189.0 L 162.9 189.4 L 160.3 189.6 L 160.3 183.6 L 144.3 180.6 Z M 30.0 41.7 L 56.9 41.7 L 62.9 36.7 L 73.9 45.7 L 68.9 49.7 L 68.9 134.2 L 56.9 140.2 L 56.9 134.2 L 30.0 134.2 L 30.0 146.2 L 18.0 152.2 L 18.0 35.7 Z M 94.6 114.0 L 94.6 144.4 L 109.4 144.4 L 109.4 114.0 Z M 121.4 114.0 L 121.4 144.4 L 137.6 144.4 L 137.6 114.0 Z M 149.6 114.0 L 149.6 144.4 L 164.3 144.4 L 164.3 114.0 Z M 30.0 45.7 L 30.0 130.2 L 56.9 130.2 L 56.9 45.7 Z M 82.0 89.3 L 92.0 89.3 L 93.2 89.2 L 94.1 89.1 L 94.7 88.9 L 95.3 88.6 L 95.6 88.0 L 95.8 87.5 L 95.9 86.5 L 96.0 85.3 L 96.0 67.1226414680481 L 92.3 68.1 L 87.0 69.4 L 80.74105958938598 70.84437084197998 L 79.1 74.4 L 76.6 71.8 L 72.8 60.3 L 74.7 59.9 L 79.9 59.4 L 85.1 58.8 L 90.4 58.2 L 95.8 57.6 L 96.0 57.5745454788208 L 96.0 37.2 L 102.5555555343628 38.29259262084961 L 103.8 37.1 L 105.7 34.6 L 107.6 32.2 L 109.5 29.9 L 111.2 27.7 L 112.9 25.6 L 114.11428575515747 23.9 L 75.4 23.9 L 75.4 19.9 L 116.8 19.9 L 117.25306119918824 19.522449016571045 L 118.5 17.7 L 118.93556032180786 18.120366382598878 L 122.8 14.9 L 133.8 23.9 L 128.8 26.9 L 121.68571424484253 29.86428575515747 L 120.9 30.4 L 118.6 31.9 L 116.2 33.3 L 113.7 34.8 L 111.0 36.3 L 108.3 37.7 L 105.85263156890869 38.842105293273924 L 108.0 39.2 L 111.0 41.2 L 108.0 43.0 L 108.0 56.07142858505249 L 118.0 55.0 L 123.8 54.5 L 129.7 54.1 L 130.2 55.9 L 124.7 58.2 L 119.2 60.2 L 113.7 62.0 L 108.3 63.7 L 108.0 63.78333330154419 L 108.0 85.3 L 107.9 87.9 L 107.4 90.4 L 106.6 92.8 L 105.4 95.0 L 103.7 97.1 L 101.7 98.7 L 99.5 99.9 L 97.1 100.7 L 94.6 101.2 L 92.0 101.3 L 92.0 95.3 L 82.0 92.3 Z M 170.0 90.5 L 166.4 86.0 L 163.2 81.0 L 160.5 75.7 L 158.2 70.1 L 156.5 64.1 L 155.48172883987428 59.165301132202146 L 155.4 59.5 L 152.7 67.4 L 149.2 74.6 L 145.0 81.0 L 140.1 86.6 L 134.6 91.3 L 128.4 94.9 L 121.6 97.6 L 120.8 95.9 L 126.3 91.7 L 131.1 87.2 L 135.2 82.3 L 138.7 76.8 L 141.6 70.9 L 143.9 64.3 L 145.7 57.1 L 146.9 49.3 L 147.15 45.0 L 122.3 45.0 L 122.3 41.0 L 147.38255815505983 41.0 L 147.4 40.7 L 147.5 31.5 L 147.5 14.6 L 159.5 16.6 L 162.5 18.6 L 159.5 20.4 L 159.5 31.5 L 158.83500003814697 41.0 L 162.6 41.0 L 172.6 31.0 L 184.6 41.0 L 184.6 45.0 L 158.3159574508667 45.0 L 157.87475862503052 48.190206909179686 L 158.6 50.3 L 160.9 56.2 L 163.3 61.7 L 165.9 66.7 L 168.6 71.2 L 171.6 75.3 L 174.9 78.9 L 178.3 82.1 L 182.0 85.0 L 185.9 87.4 L 189.8 89.9 L 178.7 98.4 L 174.1 94.7 Z M 149.6 148.4 L 149.6 176.9 L 148.2 177.6 L 160.3 177.6 L 161.6 177.5 L 162.5 177.4 L 163.1 177.2 L 163.4 177.0 L 163.7 176.7 L 163.9 176.3 L 164.1 175.7 L 164.3 174.8 L 164.3 148.4 Z " />
</g>
</svg>
