<svg xmlns="http://www.w3.org/2000/svg" xmlns:xlink="http://www.w3.org/1999/xlink" version="1.1" baseProfile="full" viewBox="0 0 200 200" width="200" height="200">
<g fill="black">
<path d="M 139.9 109.4 L 139.8 110.7 L 139.8 111.6 L 139.9 112.3 L 140.0 112.8 L 140.1 113.2 L 140.3 113.6 L 140.8 114.0 L 141.5 114.4 L 142.5 114.7 L 143.9 114.9 L 145.9115385055542 114.9 L 143.7 112.6 L 139.9 102.52558135986328 Z M 97.7 132.0 L 162.2 132.0 L 168.2 127.0 L 179.2 136.0 L 174.2 140.0 L 174.2 179.0 L 162.2 185.0 L 162.2 175.0 L 97.7 175.0 L 97.7 182.0 L 85.7 188.0 L 85.7 126.0 Z M 97.7 136.0 L 97.7 171.0 L 162.2 171.0 L 162.2 136.0 Z M 98.4 53.9 L 98.4 72.4 L 124.0 72.4 L 124.0 53.9 Z M 136.0 53.9 L 136.0 72.4 L 161.5 72.4 L 161.5 53.9 Z M 98.4 32.1 L 98.4 49.9 L 124.0 49.9 L 124.0 32.1 Z M 136.0 32.1 L 136.0 49.9 L 161.5 49.9 L 161.5 32.1 Z M 123.6 78.7 L 126.0 81.4 L 122.2744966506958 82.46442956924439 L 121.1 85.8 L 117.9 92.4 L 114.2 98.6 L 109.8 104.2 L 104.9 109.4 L 99.5 114.1 L 93.5 118.2 L 86.9 121.8 L 79.8 124.7 L 75.8045467376709 125.90915031433106 L 75.9 130.3 L 72.9 133.7 L 68.3 133.8 L 64.9 130.8 L 63.9 127.9 L 62.7 125.0 L 61.2 122.2 L 59.5 119.3 L 57.6 116.3 L 55.4 113.4 L 53.1 110.4 L 50.5 107.4 L 49.5 106.25714282989502 L 49.5 183.0 L 37.5 189.0 L 37.5 109.96086959838867 L 33.6 114.2 L 26.2 121.4 L 18.3 128.2 L 9.9 134.6 L 8.7 133.3 L 15.7 125.5 L 22.3 117.7 L 28.6 109.9 L 34.6 102.0 L 37.5 97.78181819915771 L 37.5 97.0 L 38.0375 97.0 L 40.1 94.0 L 45.2 85.8 L 49.9 77.5 L 54.2 69.1 L 58.0 60.5 L 59.78977270126343 56.0 L 13.1 56.0 L 13.1 52.0 L 37.5 52.0 L 37.5 12.0 L 49.5 14.0 L 52.5 16.0 L 49.5 17.8 L 49.5 52.0 L 61.1 52.0 L 67.1 47.0 L 78.1 56.0 L 73.1 59.0 L 70.85724134445191 59.93448276519776 L 68.4 65.2 L 63.7 74.0 L 58.5 82.6 L 53.0 90.9 L 48.348750019073485 97.0 L 49.5 97.0 L 49.5 101.8 L 53.4 103.8 L 56.9 106.1 L 60.3 108.5 L 63.4 111.0 L 66.3 113.7 L 69.0 116.5 L 71.5 119.4 L 73.8 122.5 L 74.43736267089844 123.51978025436401 L 78.1 121.3 L 84.2 117.2 L 89.6 112.9 L 94.5 108.4 L 98.7 103.6 L 102.5 98.6 L 105.6 93.3 L 108.3 87.7 L 110.4 81.9 L 111.81935482025146 76.4 L 98.4 76.4 L 98.4 88.4 L 86.4 94.4 L 86.4 22.1 L 98.4 28.1 L 119.73999996185303 28.1 L 120.1 27.2 L 120.5 25.0 L 121.0 22.9 L 121.5 20.7 L 122.1 18.7 L 122.6 16.6 L 123.2 14.6 L 123.7 12.6 L 124.3 10.6 L 124.58917789459228 9.684270095825195 L 124.4 9.6 L 125.4 7.7 L 135.4 14.5 L 137.0 17.8 L 132.33831777572632 17.880373859405516 L 129.8 20.6 L 128.4 22.2 L 125.3 25.3 L 122.31333332061767 28.1 L 161.5 28.1 L 167.5 23.1 L 178.5 32.1 L 173.5 36.1 L 173.5 76.4 L 161.5 82.4 L 161.5 76.4 L 135.1 76.4 L 139.9 77.2 L 142.9 79.2 L 139.9 81.0 L 139.9 101.1 L 141.4 100.8 L 142.5 101.0 L 143.9 101.2 L 145.8 101.3 L 147.8931034088135 101.3 L 148.5 99.1 L 150.1 93.7 L 150.8 91.2 L 152.2 86.4 L 152.7 84.2 L 153.2 82.1 L 153.4615385055542 81.05384616851806 L 153.3 81.0 L 154.2 78.8 L 164.7 84.8 L 166.6 87.8 L 162.12687950134278 88.42780637741089 L 162.0 88.6 L 160.6 90.6 L 157.4 94.6 L 155.7 96.7 L 153.9 98.9 L 151.9 101.1 L 151.70909090042113 101.3 L 154.0 101.3 L 157.6 101.2 L 161.6 101.2 L 166.0 101.1 L 167.31457290649413 100.9904522895813 L 167.1 100.5 L 166.2 98.7 L 165.1 96.8 L 163.9 94.8 L 162.1 93.1 L 163.3 91.7 L 165.3 93.2 L 169.5 95.3 L 171.4 96.4 L 173.1 97.4 L 174.7 98.5 L 176.2 99.6 L 177.5 100.8 L 178.7 102.0 L 179.8 103.5 L 179.5 108.0 L 176.2 111.1 L 171.6 110.8 L 168.5 107.5 L 168.8 106.9 L 168.8 106.0 L 168.7 104.9 L 168.3 103.6 L 168.17549667358398 103.22649002075195 L 166.5 103.7 L 162.3 105.2 L 158.5 106.5 L 155.2 107.7 L 152.2 108.8 L 149.7 109.7 L 148.25073652267457 110.29288053512573 L 146.32537317276 114.9 L 179.6 114.9 L 184.1 101.9 L 186.1 101.9 L 184.1 114.9 L 186.8 116.7 L 188.6 119.4 L 186.8 122.1 L 184.1 123.9 L 141.5 123.9 L 139.1 123.7 L 136.9 123.1 L 134.7 122.1 L 132.7 120.6 L 131.0 118.8 L 129.7 116.7 L 128.8 114.4 L 128.2 112.0 L 127.9 109.4 L 127.9 76.4 L 118.1680850982666 76.4 Z " />
</g>
</svg>
