<svg xmlns="http://www.w3.org/2000/svg" xmlns:xlink="http://www.w3.org/1999/xlink" version="1.1" baseProfile="full" viewBox="0 0 200 200" width="200" height="200">
<g fill="black">
<path d="M 82.0 25.0 L 157.0 25.0 L 163.0 20.0 L 174.0 29.0 L 169.0 33.0 L 169.0 113.0 L 157.0 119.0 L 157.0 107.0 L 129.1 107.0 L 129.1 168.2 L 117.1 174.2 L 117.1 162.2 L 43.8 162.2 L 43.8 174.2 L 31.8 180.2 L 31.8 77.7 L 43.8 83.7 L 70.0 83.7 L 70.0 19.0 Z M 43.8 87.7 L 43.8 158.2 L 117.1 158.2 L 117.1 107.0 L 82.0 107.0 L 82.0 119.0 L 70.0 125.0 L 70.0 87.7 Z M 82.0 87.7 L 82.0 103.0 L 117.1 103.0 L 117.1 87.7 Z M 82.0 29.0 L 82.0 83.7 L 117.1 83.7 L 123.1 78.7 L 134.1 87.7 L 129.1 91.7 L 129.1 103.0 L 157.0 103.0 L 157.0 29.0 Z " />
</g>
</svg>
