<svg xmlns="http://www.w3.org/2000/svg" xmlns:xlink="http://www.w3.org/1999/xlink" version="1.1" baseProfile="full" viewBox="0 0 200 200" width="200" height="200">
<g fill="black">
<path d="M 48.0 122.1 L 152.0 122.1 L 158.0 117.1 L 169.0 126.1 L 164.0 130.1 L 164.0 176.9 L 152.0 182.9 L 152.0 170.9 L 48.0 170.9 L 48.0 182.9 L 36.0 188.9 L 36.0 116.1 Z M 48.0 126.1 L 48.0 166.9 L 152.0 166.9 L 152.0 126.1 Z M 102.733021068573 23.060187339782715 L 101.8 36.9 L 101.16774196624756 40.4 L 163.0 40.4 L 169.0 35.4 L 180.0 44.4 L 175.0 47.4 L 174.94657163619996 47.422261810302736 L 174.9 51.8 L 174.6 60.4 L 174.2 68.2 L 173.6 75.2 L 172.8 81.5 L 171.8 87.0 L 170.6 91.8 L 169.1 95.9 L 167.2 99.5 L 164.5 102.6 L 162.6 104.1 L 160.7 105.4 L 158.6 106.6 L 156.6 107.6 L 154.4 108.5 L 152.2 109.2 L 150.0 109.7 L 147.7 110.1 L 145.3 110.4 L 143.0 110.5 L 143.0 104.5 L 123.0 101.5 L 123.0 98.5 L 143.0 98.5 L 144.5 98.4 L 146.1 98.2 L 147.5 98.0 L 150.3 97.2 L 151.6 96.7 L 154.2 95.3 L 155.5 94.4 L 156.7 93.4 L 157.2 92.8 L 158.1 91.1 L 159.1 88.3 L 160.1 84.5 L 160.9 79.7 L 161.6 74.0 L 162.2 67.4 L 162.6 59.9 L 162.9 51.5 L 162.97802200317383 44.4 L 100.44516124725342 44.4 L 99.0 52.4 L 94.4 65.8 L 87.9 77.0 L 79.7 86.3 L 69.7 93.8 L 58.1 99.7 L 44.8 104.4 L 29.9 107.9 L 13.1 110.7 L 12.8 109.0 L 28.9 104.3 L 43.1 99.3 L 55.3 93.8 L 65.5 87.5 L 73.7 80.3 L 80.2 71.9 L 85.1 61.9 L 88.6 50.0 L 89.34929580688477 44.4 L 22.0 44.4 L 22.0 40.4 L 89.88450708389283 40.4 L 90.5 35.8 L 91.0 19.1 L 91.0 16.7 L 103.0 19.1 L 106.0 21.1 Z " />
</g>
</svg>
