<svg xmlns="http://www.w3.org/2000/svg" xmlns:xlink="http://www.w3.org/1999/xlink" version="1.1" baseProfile="full" viewBox="0 0 200 200" width="200" height="200">
<g fill="black">
<path d="M 20.0 177.0 L 94.0 177.0 L 94.0 111.0 L 35.0 111.0 L 35.0 107.0 L 143.0 107.0 L 153.0 97.0 L 165.0 107.0 L 165.0 111.0 L 106.0 111.0 L 106.0 177.0 L 160.0 177.0 L 170.0 167.0 L 182.0 177.0 L 182.0 181.0 L 20.0 181.0 Z M 56.8 26.9 L 141.1 26.9 L 147.1 21.9 L 158.1 30.9 L 153.1 34.9 L 153.1 86.0 L 141.1 92.0 L 141.1 80.0 L 56.8 80.0 L 56.8 92.0 L 44.8 98.0 L 44.8 20.9 Z M 56.8 30.9 L 56.8 76.0 L 141.1 76.0 L 141.1 30.9 Z " />
</g>
</svg>
