<svg xmlns="http://www.w3.org/2000/svg" xmlns:xlink="http://www.w3.org/1999/xlink" version="1.1" baseProfile="full" viewBox="0 0 200 200" width="200" height="200">
<g fill="black">
<path d="M 171.5 154.1 L 170.4 151.8 L 169.31480588912964 149.79656476974486 L 161.7 151.1 L 151.1 152.7 L 140.9 154.0 L 137.5 154.45567007064818 L 137.5 183.3 L 125.5 189.3 L 125.5 155.9063829421997 L 121.8 156.3 L 112.9 157.3 L 104.5 158.2 L 96.5 159.0 L 88.9 159.7 L 85.89693775177003 159.95377988815306 L 83.9 163.3 L 81.8 160.3 L 79.2 148.4 L 81.2 148.4 L 88.3 148.3 L 95.9 148.3 L 103.9 148.2 L 112.4 148.0 L 121.3 147.9 L 125.42506008148193 147.81128902435302 L 126.4 146.6 L 129.4 142.7 L 132.5 139.0 L 135.4 135.4 L 138.2 131.9 L 140.9 128.6 L 143.4 125.4 L 145.8 122.2 L 148.0 119.2 L 149.4795454978943 117.15681819915771 L 149.4 117.1 L 150.5 115.8 L 159.2 124.1 L 160.2 127.5 L 156.30183334350585 126.88450002670288 L 153.6 129.4 L 150.6 132.1 L 147.4 134.9 L 144.0 137.7 L 140.5 140.6 L 136.8 143.4 L 132.8 146.3 L 130.754620552063 147.69684448242188 L 140.4 147.5 L 150.7 147.3 L 161.5 147.3 L 167.82278337478638 147.3564534187317 L 167.6 147.0 L 165.9 144.5 L 164.0 142.0 L 161.9 139.4 L 159.6 136.8 L 156.9 134.4 L 157.9 132.9 L 161.2 134.6 L 164.5 136.1 L 167.6 137.9 L 170.4 139.7 L 173.2 141.7 L 175.7 143.9 L 178.0 146.1 L 180.2 148.5 L 182.2 151.0 L 184.0 153.7 L 184.1 158.3 L 181.1 161.7 L 176.5 161.8 L 173.1 158.8 L 172.4 156.5 Z M 115.1 166.3 L 116.4 169.6 L 112.26769437789918 169.3150134086609 L 110.2 171.3 L 107.4 173.7 L 104.4 176.1 L 101.3 178.3 L 98.0 180.4 L 94.5 182.4 L 90.8 184.3 L 86.9 186.0 L 82.9 187.8 L 82.0 186.3 L 85.3 183.5 L 88.2 180.6 L 91.1 177.8 L 93.7 175.0 L 96.1 172.3 L 98.4 169.7 L 100.4 167.0 L 102.3 164.4 L 103.9 161.9 L 104.8116647720337 160.20690822601318 L 104.8 160.2 L 104.88000001907349 160.08000001907348 L 105.3 159.3 L 105.36774196624756 159.34838705062867 L 105.8 158.7 Z M 165.0 179.7 L 163.5 177.2 L 161.9 174.8 L 160.1 172.3 L 158.0 169.7 L 155.8 167.2 L 153.4 164.6 L 150.9 161.9 L 148.0 159.5 L 148.9 157.9 L 152.4 159.6 L 156.0 161.1 L 159.3 162.8 L 162.4 164.7 L 165.4 166.6 L 168.2 168.8 L 170.8 171.0 L 173.3 173.3 L 175.5 175.8 L 177.6 178.4 L 178.2 182.9 L 175.6 186.6 L 171.0 187.2 L 167.3 184.5 L 166.3 182.1 Z M 30.0 42.0 L 57.0 42.0 L 62.0 37.0 L 72.0 46.0 L 67.0 49.0 L 67.0 140.0 L 57.0 145.0 L 57.0 134.0 L 30.0 134.0 L 30.0 146.0 L 18.0 152.0 L 18.0 36.0 Z M 30.0 46.0 L 30.0 130.0 L 57.0 130.0 L 57.0 46.0 Z M 168.3 107.8 L 162.6 104.4 L 157.6 100.4 L 157.33126878738403 100.11905374526978 L 153.2 103.2 L 146.9 106.8 L 140.1 109.7 L 132.8 111.8 L 131.3315698623657 112.03185739517212 L 134.4 114.6 L 135.7 118.0 L 131.28324127197266 117.61924495697022 L 130.6 118.2 L 128.7 120.0 L 124.5 123.6 L 122.3 125.3 L 120.0 127.0 L 117.6 128.7 L 115.65 129.9 L 117.4 131.3 L 119.7 133.4 L 121.8 135.8 L 123.7 138.3 L 124.1 142.8 L 121.3 146.4 L 116.7 146.8 L 113.1 143.9 L 112.3 141.8 L 111.4 139.6 L 110.2 137.5 L 108.8 135.3 L 107.2 133.1 L 105.4 130.9 L 103.3 128.7 L 101.1 126.5 L 98.7 124.2 L 95.8 122.2 L 96.6 120.6 L 99.9 121.9 L 103.3 123.0 L 106.4 124.3 L 109.4 125.8 L 112.2 127.4 L 113.39380168914795 128.24008264541627 L 114.6 126.0 L 116.1 123.5 L 117.4 121.1 L 118.8 118.7 L 120.1 116.4 L 121.3 114.1 L 123.7 109.7 L 124.27024793624878 108.50247936248779 L 124.1 108.4 L 125.2 106.9 L 128.41025638580322 109.58684501647949 L 131.6 108.2 L 137.9 104.9 L 143.5 101.2 L 148.7 97.1 L 151.88429775238038 93.98646440505982 L 149.5 90.7 L 146.6 85.2 L 144.3 79.2 L 142.9 72.8 L 142.45882349014283 66.8 L 136.5 66.8 L 136.5 62.8 L 168.3 62.8 L 174.3 57.8 L 185.3 66.8 L 180.3 69.8 L 178.43129768371583 70.5786259651184 L 177.0 74.3 L 173.3 81.4 L 169.1 87.9 L 165.03762588500976 92.9131425857544 L 168.4 94.9 L 173.2 97.0 L 178.5 98.7 L 184.3 100.0 L 193.1 102.0 L 181.3 112.8 L 174.6 110.6 Z M 90.0 106.9 L 80.0 111.9 L 80.0 79.2 L 90.0 81.2 L 92.5 83.2 L 90.0 84.86666669845582 L 90.0 99.9 L 99.7 99.9 L 99.7 77.1 L 74.0 77.1 L 74.0 73.1 L 99.7 73.1 L 99.7 64.5 L 90.7 64.5 L 80.7 69.5 L 80.7 28.2 L 90.7 33.2 L 99.7 33.2 L 99.7 25.8 L 76.0 25.8 L 76.0 21.8 L 99.7 21.8 L 99.7 11.9 L 107.7 13.9 L 109.7 15.9 L 107.7 17.4 L 107.7 21.8 L 113.31818180084228 21.8 L 121.5 12.8 L 131.5 21.8 L 131.5 25.8 L 107.7 25.8 L 107.7 33.2 L 116.3 33.2 L 121.8 28.2 L 132.3 37.2 L 127.3 40.7 L 127.3 64.5 L 125.0785714149475 65.61071424484253 L 133.4 73.1 L 133.4 77.1 L 107.7 77.1 L 107.7 99.9 L 116.9 99.9 L 116.9 79.2 L 127.9 81.2 L 130.7 83.2 L 127.9 84.95 L 127.9 103.9 L 116.9 109.4 L 116.9 103.9 L 90.0 103.9 Z M 144.66000003814696 66.8 L 146.9 71.6 L 149.7 76.9 L 152.8 81.6 L 156.2 85.7 L 157.61530055999756 87.07704916000367 L 160.8 82.3 L 163.8 76.4 L 166.4 70.0 L 167.37391300201415 66.8 Z M 107.7 64.5 L 107.7 73.1 L 115.21818180084229 73.1 L 119.48333330154419 68.40833330154419 L 116.3 70.0 L 116.3 64.5 Z M 151.1 18.9 L 163.2 18.9 L 168.7 13.9 L 179.2 22.9 L 174.2 26.4 L 174.2 43.6 L 174.3 44.6 L 174.4 45.3 L 174.6 45.8 L 175.0 46.6 L 175.5 46.9 L 176.3 47.3 L 177.3 47.6 L 178.7 47.8 L 180.3 47.8 L 184.8 34.8 L 186.8 34.8 L 184.8 47.8 L 187.5 49.6 L 189.3 52.3 L 187.5 55.0 L 184.8 56.8 L 178.7 56.8 L 176.3 56.7 L 174.0 56.4 L 171.7 55.8 L 169.6 54.7 L 167.7 53.3 L 166.1 51.5 L 164.8 49.4 L 164.0 47.1 L 163.5 44.8 L 163.2 42.3 L 163.2 22.9 L 151.1 22.9 L 151.1 34.6 L 150.5 38.3 L 149.6 41.8 L 148.3 45.1 L 146.7 48.2 L 144.7 51.1 L 142.4 53.9 L 139.8 56.3 L 137.0 58.6 L 133.7 60.6 L 130.5 62.6 L 129.5 61.3 L 132.1 58.7 L 134.2 55.8 L 136.0 53.1 L 137.5 50.3 L 138.6 47.7 L 139.5 45.0 L 140.0 42.4 L 140.3 39.8 L 140.3 37.2 L 140.1 34.6 L 140.1 13.4 Z M 90.7 50.3 L 90.7 60.5 L 99.7 60.5 L 99.7 50.3 Z M 107.7 50.3 L 107.7 60.5 L 116.3 60.5 L 116.3 50.3 Z M 90.7 37.2 L 90.7 46.3 L 99.7 46.3 L 99.7 37.2 Z M 107.7 37.2 L 107.7 46.3 L 116.3 46.3 L 116.3 37.2 Z " />
</g>
</svg>
