<svg xmlns="http://www.w3.org/2000/svg" xmlns:xlink="http://www.w3.org/1999/xlink" version="1.1" baseProfile="full" viewBox="0 0 200 200" width="200" height="200">
<g fill="black">
<path d="M 48.0 134.6 L 152.0 134.6 L 158.0 129.6 L 169.0 138.6 L 164.0 142.6 L 164.0 180.0 L 152.0 186.0 L 152.0 176.0 L 48.0 176.0 L 48.0 183.0 L 36.0 189.0 L 36.0 128.6 Z M 48.0 138.6 L 48.0 172.0 L 152.0 172.0 L 152.0 138.6 Z M 114.9 95.1 L 113.3 93.2 L 111.4 91.2 L 109.3 89.3 L 106.9 87.4 L 104.2 85.4 L 101.3 83.5 L 98.1 81.5 L 97.79302749633788 81.35089912414551 L 94.0 83.2 L 85.5 86.9 L 76.5 90.2 L 66.9 93.2 L 56.8 95.7 L 46.2 97.8 L 45.7 96.1 L 55.7 92.1 L 65.1 88.1 L 74.0 84.1 L 82.3 80.0 L 90.1 75.7 L 97.2 71.3 L 103.8 66.7 L 109.7 61.9 L 115.1 57.0 L 119.22338304519653 52.61890544891357 L 119.2 52.6 L 120.2 51.6 L 128.6 60.2 L 129.4 63.7 L 125.65467262268066 62.84580249786377 L 122.9226414680481 65.3 L 166.6935483932495 65.3 L 168.3 63.5 L 168.73139162063597 63.85717363357544 L 173.0 60.3 L 184.0 69.3 L 179.0 72.3 L 174.76389684677125 74.0650429725647 L 167.8 81.1 L 156.8 90.0 L 144.6 97.8 L 131.1 104.7 L 116.5 110.5 L 100.6 115.3 L 83.5 119.2 L 65.2 122.0 L 45.7 123.7 L 25.0 124.3 L 24.9 122.5 L 45.3 119.9 L 64.4 116.7 L 82.1 112.8 L 98.4 108.1 L 113.4 102.6 L 119.24242858886718 99.91333570480347 L 117.4 98.9 L 116.3 97.0 Z M 117.73673467636108 69.3 L 116.3 70.4 L 109.4 75.0 L 102.0 79.3 L 101.80019588470459 79.39740447998047 L 102.9 79.6 L 106.5 80.4 L 109.9 81.5 L 113.2 82.7 L 116.3 84.1 L 119.2 85.7 L 121.9 87.4 L 124.4 89.4 L 126.8 91.5 L 127.97183904647827 95.79674329757691 L 139.4 89.2 L 150.4 81.4 L 160.0 72.8 L 163.12365589141845 69.3 Z M 81.3 53.1 L 79.9 51.4 L 78.3 49.6 L 76.4 47.9 L 74.2 46.1 L 71.7 44.4 L 69.0 42.6 L 66.0 40.8 L 65.97221698760987 40.78905515670776 L 64.7 41.5 L 57.5 45.1 L 49.8 48.4 L 41.7 51.4 L 33.2 54.0 L 24.2 56.2 L 23.7 54.5 L 31.9 50.5 L 39.6 46.5 L 47.0 42.5 L 53.9 38.4 L 60.4 34.3 L 66.4 30.0 L 71.9 25.6 L 77.0 21.1 L 81.7 16.5 L 85.8 11.7 L 85.8379126548767 11.734504795074463 L 86.2 11.3 L 94.7 19.8 L 95.6 23.3 L 91.77007427215577 22.560891532897948 L 89.81836738586426 24.4 L 133.44698791503907 24.4 L 135.7 22.2 L 136.13003225326537 22.624973106384278 L 140.0 19.4 L 151.0 28.4 L 146.0 31.4 L 140.95779819488524 33.50091743469238 L 134.7 39.1 L 124.5 46.9 L 113.5 54.1 L 101.9 60.6 L 89.5 66.4 L 76.4 71.6 L 62.7 76.1 L 48.2 80.0 L 33.0 83.0 L 17.1 85.2 L 16.8 83.4 L 32.2 79.3 L 46.7 74.8 L 60.6 69.9 L 73.6 64.6 L 85.9 58.8 L 86.60473537445068 58.40779943466187 L 83.4 56.6 L 82.5 54.9 Z M 84.9956521987915 28.4 L 83.9 29.3 L 77.9 33.6 L 71.5 37.7 L 69.67560977935791 38.719512176513675 L 70.4 38.8 L 73.8 39.4 L 77.0 40.3 L 80.1 41.3 L 83.0 42.5 L 85.8 43.9 L 88.3 45.5 L 90.7 47.3 L 92.9 49.3 L 94.0 53.8 L 93.59532012939454 54.51738710403443 L 97.4 52.4 L 108.1 45.6 L 118.1 38.3 L 127.2 30.5 L 129.35060243606569 28.4 Z " />
</g>
</svg>
