<svg xmlns="http://www.w3.org/2000/svg" xmlns:xlink="http://www.w3.org/1999/xlink" version="1.1" baseProfile="full" viewBox="0 0 200 200" width="200" height="200">
<g fill="black">
<path d="M 108.0 184.0 L 96.0 190.0 L 96.0 109.63255815505981 L 94.0 111.4 L 89.5 114.8 L 84.6 117.9 L 79.5 120.7 L 78.4 119.2 L 82.2 115.0 L 85.9 110.8 L 89.4 106.7 L 92.7 102.5 L 95.8 98.2 L 96.0 97.90344829559326 L 96.0 94.0 L 97.96869564056396 94.98434782028198 L 98.7 93.9 L 101.4 89.4 L 103.8 84.8 L 106.1 80.2 L 108.1 75.3 L 108.12379913330078 75.31113538742065 L 108.6 74.2 L 119.0 80.4 L 120.9 83.4 L 116.98602151870728 83.87237672805786 L 116.1 85.4 L 113.1 90.3 L 109.7 95.0 L 106.3707317352295 99.18536586761475 L 108.0 100.0 L 130.99333333969116 100.0 L 131.9 98.4 L 133.2 95.3 L 134.5 92.4 L 135.9 89.6 L 137.3 86.9 L 138.6 84.3 L 139.9 81.8 L 141.2 79.4 L 143.1198402404785 75.88029298782348 L 143.0 75.8 L 143.46046514511107 75.25581398010254 L 143.6 75.0 L 143.64592084884643 75.03663902282715 L 144.1 74.5 L 153.0 82.5 L 154.1 85.9 L 149.9065486907959 85.3215929031372 L 149.4 85.8 L 145.4 89.4 L 143.3 91.4 L 138.9 95.6 L 136.5 97.7 L 134.0 100.0 L 151.0 100.0 L 161.0 90.0 L 173.0 100.0 L 173.0 104.0 L 140.0 104.0 L 140.0 123.0 L 151.8181818008423 123.0 L 160.0 114.0 L 170.0 123.0 L 170.0 127.0 L 140.0 127.0 L 140.0 146.0 L 148.0 146.0 L 158.0 136.0 L 170.0 146.0 L 170.0 150.0 L 140.0 150.0 L 140.0 173.0 L 156.0 173.0 L 166.0 163.0 L 178.0 173.0 L 178.0 177.0 L 108.0 177.0 Z M 36.0 134.0 L 72.0 134.0 L 78.0 129.0 L 89.0 138.0 L 84.0 142.0 L 84.0 177.0 L 72.0 183.0 L 72.0 173.0 L 36.0 173.0 L 36.0 180.0 L 24.0 186.0 L 24.0 128.0 Z M 108.0 150.0 L 108.0 173.0 L 128.0 173.0 L 128.0 150.0 Z M 36.0 138.0 L 36.0 169.0 L 72.0 169.0 L 72.0 138.0 Z M 108.0 127.0 L 108.0 146.0 L 128.0 146.0 L 128.0 127.0 Z M 37.0 81.0 L 69.0 81.0 L 75.0 76.0 L 86.0 85.0 L 81.0 89.0 L 81.0 115.0 L 69.0 121.0 L 69.0 115.0 L 37.0 115.0 L 37.0 118.0 L 25.0 124.0 L 25.0 75.0 Z M 108.0 104.0 L 108.0 123.0 L 128.0 123.0 L 128.0 104.0 Z M 37.0 85.0 L 37.0 111.0 L 69.0 111.0 L 69.0 85.0 Z M 22.7 58.1 L 28.2 57.3 L 33.8 56.5 L 39.6 55.6 L 45.5 54.6 L 51.5 53.6 L 57.6 52.7 L 63.9 51.7 L 70.3 50.7 L 76.9 49.9 L 81.0 49.4779411315918 L 81.0 22.7 L 25.0 22.7 L 25.0 18.7 L 81.0 18.7 L 87.0 13.7 L 98.0 22.7 L 93.0 26.7 L 93.0 63.1 L 81.0 69.1 L 81.0 52.22063493728638 L 77.9 53.5 L 71.6 55.9 L 65.5 58.1 L 59.4 60.0 L 53.4 61.9 L 47.5 63.7 L 41.8 65.4 L 36.1 66.9 L 30.6 68.5 L 29.14381914138794 68.87066421508788 L 27.7 72.4 L 25.1 69.9 L 20.8 58.5 Z M 101.9 57.2 L 107.4 56.6 L 118.6 55.2 L 124.4 54.4 L 130.3 53.6 L 142.5 52.0 L 148.8 51.3 L 155.2 50.6 L 160.0 50.2307692527771 L 160.0 22.7 L 106.0 22.7 L 106.0 18.7 L 160.0 18.7 L 166.0 13.7 L 177.0 22.7 L 172.0 26.7 L 172.0 65.9 L 160.0 71.9 L 160.0 52.751612949371335 L 156.0 54.3 L 149.9 56.5 L 143.9 58.5 L 137.9 60.3 L 132.0 61.9 L 126.3 63.5 L 120.5 65.0 L 114.9 66.4 L 109.4 67.8 L 108.01430797576904 68.10233278274536 L 106.4 71.6 L 103.9 69.0 L 100.0 57.5 Z M 51.0 42.0 L 50.0 40.4 L 48.7 38.7 L 47.1 37.0 L 45.2 35.3 L 43.0 33.6 L 40.5 31.8 L 37.8 29.9 L 34.6 28.5 L 35.2 26.8 L 38.6 27.6 L 42.0 28.1 L 45.2 28.8 L 48.2 29.7 L 51.0 30.7 L 53.7 31.9 L 56.2 33.3 L 58.5 34.9 L 60.6 36.7 L 62.5 38.7 L 63.2 43.2 L 60.5 46.9 L 56.0 47.6 L 52.3 45.0 L 51.8 43.5 Z M 131.9 40.8 L 130.7 39.4 L 129.3 37.9 L 127.6 36.3 L 125.6 34.6 L 123.5 32.9 L 121.1 31.1 L 118.5 29.1 L 115.6 27.6 L 116.2 25.9 L 119.5 26.9 L 122.7 27.5 L 125.7 28.2 L 128.6 29.0 L 131.3 29.8 L 133.8 30.7 L 136.1 31.7 L 138.3 32.8 L 140.4 34.0 L 142.3 35.2 L 143.8 39.5 L 142.0 43.7 L 137.7 45.3 L 133.5 43.5 L 132.9 42.2 Z " />
</g>
</svg>
