<svg xmlns="http://www.w3.org/2000/svg" xmlns:xlink="http://www.w3.org/1999/xlink" version="1.1" baseProfile="full" viewBox="0 0 200 200" width="200" height="200">
<g fill="black">
<path d="M 72.1 177.0 L 98.5 177.0 L 108.5 167.0 L 120.5 177.0 L 120.5 181.0 L 12.4 181.0 L 12.4 177.0 L 60.1 177.0 L 60.1 146.0 L 19.6 146.0 L 19.6 142.0 L 33.3 142.0 L 33.3 105.0 L 12.4 105.0 L 12.4 101.0 L 33.3 101.0 L 33.3 67.0 L 20.3 67.0 L 20.3 63.0 L 60.1 63.0 L 60.1 38.946666622161864 L 56.7 39.4 L 49.0 40.2 L 41.1 40.7 L 33.1 41.0 L 24.9 40.8 L 24.8 39.1 L 32.7 37.2 L 40.4 35.4 L 48.0 33.7 L 55.4 31.9 L 62.6 30.1 L 69.6 28.2 L 76.5 26.2 L 83.2 24.1 L 89.7 21.9 L 95.11047811508179 19.924746131896974 L 95.1 19.9 L 95.12350502014161 19.919990253448486 L 96.0 19.6 L 96.4956521987915 21.08695650100708 L 105.8 29.0 L 106.0 32.1 L 101.98757762908936 30.270807456970214 L 99.8 31.0 L 93.0 32.8 L 86.0 34.4 L 78.9 35.9 L 72.1 37.2222222328186 L 72.1 63.0 L 91.9 63.0 L 101.9 53.0 L 113.9 63.0 L 113.9 67.0 L 98.3 67.0 L 98.3 101.0 L 102.31818180084228 101.0 L 110.5 92.0 L 120.5 101.0 L 120.5 105.0 L 98.3 105.0 L 98.3 142.0 L 100.3777777671814 142.0 L 106.6 135.0 L 114.6 142.0 L 114.6 146.0 L 72.1 146.0 Z M 138.5 45.6 L 171.3 45.6 L 177.3 40.6 L 188.3 49.6 L 183.3 53.6 L 183.3 153.3 L 171.3 159.3 L 171.3 147.3 L 138.5 147.3 L 138.5 159.3 L 126.5 165.3 L 126.5 39.6 Z M 138.5 49.6 L 138.5 143.3 L 171.3 143.3 L 171.3 49.6 Z M 45.3 105.0 L 45.3 142.0 L 60.1 142.0 L 60.1 105.0 Z M 72.1 105.0 L 72.1 142.0 L 86.3 142.0 L 86.3 105.0 Z M 45.3 67.0 L 45.3 101.0 L 60.1 101.0 L 60.1 67.0 Z M 72.1 67.0 L 72.1 101.0 L 86.3 101.0 L 86.3 67.0 Z " />
</g>
</svg>
