<svg xmlns="http://www.w3.org/2000/svg" xmlns:xlink="http://www.w3.org/1999/xlink" version="1.1" baseProfile="full" viewBox="0 0 200 200" width="200" height="200">
<g fill="black">
<path d="M 144.7 182.7 L 129.9 179.8 L 117.0 174.9 L 106.1 168.1 L 97.1 159.4 L 94.72687196731567 155.90622816085815 L 93.7 158.1 L 88.5 166.7 L 82.7 174.4 L 76.2 181.0 L 69.1 186.6 L 67.9 185.3 L 73.4 178.5 L 78.4 171.2 L 82.9 163.4 L 86.8 154.9 L 89.42953529357911 147.78478679656982 L 84.2 136.5 L 79.9 122.3 L 76.7 106.1 L 78.4 105.7 L 83.8 121.0 L 89.6 134.1 L 92.2323390007019 138.51422996520995 L 93.0 135.8 L 95.2 125.2 L 96.9 113.8 L 98.0 101.6 L 98.41085271835327 91.0 L 87.02443675994873 91.0 L 86.5 92.7 L 73.2 94.7 L 92.1542010307312 36.0 L 69.2 36.0 L 69.2 32.0 L 93.1 32.0 L 99.1 27.0 L 110.1 36.0 L 105.1 39.0 L 102.76602582931518 39.972489261627196 L 88.25840559005738 87.0 L 98.5 87.0 L 104.5 82.0 L 115.5 91.0 L 110.5 94.0 L 110.05692310333252 94.18461542129516 L 109.3 102.7 L 107.5 115.4 L 105.0 127.3 L 101.9 138.4 L 98.41925649642944 147.83464679718017 L 103.3 153.8 L 111.6 160.5 L 121.2 165.6 L 132.6 169.0 L 146.0 171.0 L 161.8 171.4 L 180.2 170.4 L 191.1 169.6 L 181.2 183.5 L 161.8 184.0 Z M 28.6 41.7 L 53.1 41.7 L 59.1 36.7 L 70.1 45.7 L 65.1 49.7 L 65.1 140.2 L 53.1 146.2 L 53.1 134.2 L 28.6 134.2 L 28.6 146.2 L 16.6 152.2 L 16.6 35.7 Z M 107.9 142.6 L 120.1 142.6 L 120.1 61.4 L 131.1 63.4 L 133.8 65.4 L 131.1 67.12340421676636 L 131.1 142.6 L 143.4 142.6 L 143.4 16.4 L 154.4 18.4 L 157.1 20.4 L 154.4 22.123404216766357 L 154.4 73.1 L 167.6777777671814 73.1 L 173.9 66.1 L 181.9 73.1 L 181.9 77.1 L 154.4 77.1 L 154.4 142.6 L 163.2 142.6 L 173.2 132.6 L 185.2 142.6 L 185.2 146.6 L 107.9 146.6 Z M 28.6 45.7 L 28.6 130.2 L 53.1 130.2 L 53.1 45.7 Z " />
</g>
</svg>
