<svg xmlns="http://www.w3.org/2000/svg" xmlns:xlink="http://www.w3.org/1999/xlink" version="1.1" baseProfile="full" viewBox="0 0 200 200" width="200" height="200">
<g fill="black">
<path d="M 48.0 132.0 L 152.0 132.0 L 158.0 127.0 L 169.0 136.0 L 164.0 140.0 L 164.0 179.0 L 152.0 185.0 L 152.0 175.0 L 48.0 175.0 L 48.0 182.0 L 36.0 188.0 L 36.0 126.0 Z M 48.0 136.0 L 48.0 171.0 L 152.0 171.0 L 152.0 136.0 Z M 153.8 118.3 L 141.9 111.4 L 131.4 102.6 L 129.5736707687378 100.51560249328614 L 121.5 105.3 L 109.7 111.0 L 96.9 116.2 L 83.1 120.6 L 68.2 124.4 L 67.7 122.6 L 81.8 117.1 L 94.8 111.2 L 106.8 105.2 L 117.6 98.7 L 124.09322957992553 94.26075115203858 L 122.2 92.1 L 114.3 79.7 L 107.8 65.6 L 102.6 49.9 L 100.19314289093018 39.1 L 47.0 39.1 L 47.0 101.61860466003418 L 58.0 99.7 L 66.7 98.1 L 75.5 96.5 L 84.5 94.9 L 93.5 93.4 L 102.7 92.1 L 103.2 93.8 L 94.5 97.1 L 85.8 100.1 L 77.1 102.9 L 68.5 105.5 L 59.9 107.9 L 51.4 110.3 L 34.6 114.7 L 26.3 116.8 L 22.124261093139648 117.81847286224365 L 20.7 121.3 L 18.1 118.8 L 13.8 107.4 L 15.7 107.0 L 24.0 105.6 L 32.4 104.2 L 35.0 103.73571424484253 L 35.0 29.1 L 47.0 35.1 L 99.30171432495118 35.1 L 98.7 32.4 L 96.23523149490356 14.293431377410888 L 96.2 14.3 L 96.11115875244141 13.381974220275879 L 96.1 13.3 L 96.1031946182251 13.299677848815918 L 95.9 11.2 L 108.0 12.1 L 111.2 13.8 L 108.5088026046753 15.804083156585694 L 110.5 30.3 L 111.58292684555053 35.1 L 161.0 35.1 L 171.0 25.1 L 183.0 35.1 L 183.0 39.1 L 112.48536586761475 39.1 L 114.2 46.7 L 119.0 61.3 L 124.9 74.0 L 131.8 84.9 L 133.54891023635864 86.91124677658081 L 136.1 84.8 L 143.7 77.4 L 150.2 69.5 L 155.7 61.4 L 160.1 52.9 L 160.7 51.7 L 170.9 58.1 L 172.7 61.3 L 168.83481254577637 61.56656465530396 L 165.3 67.5 L 158.6 76.3 L 150.8 84.4 L 142.1 92.0 L 139.54078149795532 93.80189876556396 L 139.8 94.1 L 148.8 101.6 L 158.9 107.4 L 170.2 111.7 L 176.52937059402467 113.00606060028076 L 182.0 89.3 L 184.0 89.3 L 182.08822116851806 114.153125 L 182.8 114.3 L 186.7 116.7 L 187.9 121.1 L 185.5 125.0 L 181.1 126.2 L 166.9 123.2 Z M 142.7 28.2 L 141.5 26.5 L 140.0 24.7 L 138.3 22.9 L 136.3 21.2 L 134.0 19.4 L 131.5 17.5 L 128.8 15.6 L 125.6 14.2 L 126.2 12.5 L 129.6 13.3 L 133.1 13.8 L 136.3 14.6 L 139.4 15.5 L 142.3 16.6 L 145.0 17.9 L 147.6 19.3 L 150.0 20.9 L 152.2 22.7 L 154.2 24.7 L 155.1 29.2 L 152.6 33.0 L 148.2 33.9 L 144.3 31.5 L 143.6 29.8 Z " />
</g>
</svg>
