<svg xmlns="http://www.w3.org/2000/svg" xmlns:xlink="http://www.w3.org/1999/xlink" version="1.1" baseProfile="full" viewBox="0 0 200 200" width="200" height="200">
<g fill="black">
<path d="M 146.8 185.0 L 132.9 183.2 L 119.8 180.9 L 107.5 178.2 L 95.9 175.0 L 89.68325681686402 172.85028505325317 L 88.3 173.7 L 79.8 177.2 L 69.7 180.2 L 58.0 182.5 L 44.7 184.3 L 29.7 185.4 L 13.0 185.8 L 12.9 184.0 L 29.3 181.6 L 43.9 179.0 L 56.6 176.1 L 67.6 172.9 L 76.6 169.4 L 78.43660478591919 168.43068084716796 L 75.3 167.1 L 66.3 162.4 L 58.4 157.0 L 59.3 155.4 L 68.1 158.6 L 77.5 161.6 L 85.91752691268921 163.9807147026062 L 88.9 161.7 L 92.1 157.9 L 93.5666666984558 154.6 L 48.0 154.6 L 36.0 160.6 L 36.0 125.7 L 48.0 131.7 L 94.0 131.7 L 94.0 118.9 L 106.0 120.9 L 109.0 122.9 L 106.0 124.7 L 106.0 131.7 L 152.0 131.7 L 158.0 126.7 L 169.0 135.7 L 164.0 139.7 L 164.0 154.6 L 152.0 160.6 L 152.0 154.6 L 105.1875 154.6 L 104.5 157.9 L 100.8 164.2 L 97.95536518096924 166.88947296142578 L 98.0 166.9 L 109.4 169.0 L 121.4 170.8 L 134.2 172.2 L 147.8 173.2 L 162.1 173.9 L 177.1 174.1 L 188.7 174.4 L 176.8 187.3 L 161.4 186.4 Z M 48.0 135.7 L 48.0 150.6 L 94.0 150.6 L 94.0 135.7 Z M 106.0 135.7 L 106.0 150.6 L 152.0 150.6 L 152.0 135.7 Z M 15.6 111.2 L 29.0 111.2 L 32.0 111.15945949554444 L 32.0 88.6 L 44.0 90.6 L 47.0 92.6 L 44.0 94.4 L 44.0 98.4 L 75.0 98.4 L 85.0 88.4 L 97.0 98.4 L 97.0 102.4 L 44.0 102.4 L 44.0 111.0037974357605 L 44.3 111.0 L 52.7 110.9 L 61.6 110.8 L 70.9 110.7 L 80.7 110.7 L 91.1 110.9 L 101.9 111.2 L 102.0 112.9 L 91.3 114.6 L 81.1 116.1 L 71.3 117.3 L 62.0 118.4 L 53.2 119.4 L 44.9 120.3 L 37.0 121.1 L 29.6 121.9 L 22.7 122.6 L 20.357661533355714 122.81959419250488 L 18.4 126.1 L 16.3 123.2 L 13.6 111.3 Z M 178.84103775024414 102.54811325073243 L 176.7 102.8 L 171.5 103.1 L 166.2 103.5 L 160.6 103.7 L 154.9 104.0 L 148.9 104.2 L 142.7 104.4 L 136.4 104.6 L 129.8 104.6 L 123.0 104.5 L 122.0 104.44285717010499 L 122.0 106.7 L 121.9 108.0 L 121.9 108.9 L 122.0 109.6 L 122.0 110.1 L 122.4 110.9 L 122.8 111.3 L 123.5 111.7 L 124.6 112.0 L 126.0 112.2 L 175.5 112.2 Z M 181.0 56.8 L 183.0 56.8 L 181.0 77.8 L 184.3 80.0 L 186.5 83.3 L 184.3 86.6 L 181.0 88.8 L 124.0 88.8 L 121.4 88.7 L 119.0 88.3 L 116.6 87.6 L 114.4 86.4 L 112.4 84.9 L 110.7 82.9 L 109.5 80.7 L 108.6 78.3 L 108.1 75.8 L 108.0 73.3 L 108.0 58.4 L 104.34328355789185 58.4 L 99.7 63.5 L 92.0 69.4 L 82.9 74.5 L 72.3 78.7 L 60.3 82.3 L 46.7 85.1 L 31.7 87.1 L 15.1 88.4 L 14.8 86.6 L 31.0 83.4 L 45.6 79.9 L 58.4 76.0 L 69.6 71.7 L 79.0 66.9 L 86.7 61.8 L 90.41481485366822 58.4 L 58.0 58.4 L 46.0 64.4 L 46.0 41.17435894012451 L 42.0 42.2 L 33.6 44.0 L 24.4 45.5 L 14.4 46.8 L 14.1 45.0 L 23.5 41.8 L 32.1 38.8 L 40.1 35.9 L 46.0 33.523611068725586 L 46.0 31.6 L 48.08688526153564 32.64344263076782 L 53.7 30.1 L 59.3 27.2 L 64.1 24.4 L 67.1 22.3 L 32.6 22.3 L 32.6 18.3 L 138.5 18.3 L 144.5 13.3 L 155.5 22.3 L 150.5 25.3 L 149.4471697807312 25.738679218292237 L 148.7 27.7 L 147.6 29.8 L 146.3 31.7 L 144.7 33.4 L 142.9 34.9 L 140.9 36.2 L 138.8 37.2 L 137.8222222328186 37.6 L 153.0 37.6 L 159.0 32.6 L 170.0 41.6 L 165.0 45.6 L 165.0 58.4 L 153.0 64.4 L 153.0 58.4 L 120.0 58.4 L 120.0 74.5 L 120.1 75.5 L 120.2 76.1 L 120.5 76.7 L 120.7 76.9 L 121.1 77.2 L 121.7 77.5 L 122.7 77.7 L 124.0 77.8 L 152.95714282989502 77.8 L 151.7 77.4 L 150.9 76.2 L 149.8 74.9 L 148.3 73.6 L 146.5 72.1 L 144.4 70.7 L 142.1 69.2 L 139.4 67.6 L 136.5 66.0 L 133.3 64.3 L 129.7 63.0 L 130.1 61.2 L 133.9 61.9 L 137.6 62.1 L 141.1 62.6 L 144.3 63.1 L 147.3 63.7 L 150.2 64.5 L 152.8 65.3 L 155.2 66.2 L 157.5 67.2 L 159.7 68.4 L 161.6 72.5 L 160.2 76.9 L 158.25789470672606 77.8 L 175.5 77.8 Z M 58.0 41.6 L 58.0 54.4 L 94.1087718963623 54.4 L 96.9 50.7 L 99.7 44.9 L 100.32264146804809 41.6 Z M 112.55465116500855 41.6 L 110.2 49.1 L 107.1714285850525 54.4 L 153.0 54.4 L 153.0 41.6 Z M 95.2 29.4 L 117.0 29.4 L 120.6 29.2 L 122.4 29.0 L 124.2 28.7 L 125.9 28.4 L 127.7 28.1 L 129.4 27.6 L 131.2 27.2 L 132.9 26.6 L 134.1 26.2 L 135.0 25.8 L 135.8 25.2 L 136.4 24.7 L 137.4 23.5 L 137.8 22.8 L 137.9666666984558 22.3 L 84.90975608825684 22.3 L 82.4 24.4 L 78.5 27.6 L 74.1 30.5 L 69.0 33.2 L 63.2 35.7 L 57.96363639831543 37.581818199157716 L 58.0 37.6 L 115.2 37.6 L 115.2 35.4 L 95.2 32.4 Z M 184.5 116.7 L 182.7 119.4 L 180.0 121.2 L 126.0 121.2 L 123.5 121.3 L 121.2 121.0 L 118.9 120.4 L 116.7 119.4 L 114.7 117.9 L 113.1 116.1 L 111.7 114.0 L 110.8 111.7 L 110.2 109.3 L 110.0 106.7 L 110.0 88.6 L 122.0 90.6 L 125.0 92.6 L 122.0 94.4 L 122.0 100.86470584869384 L 122.7 100.7 L 129.3 99.3 L 135.7 98.0 L 142.0 96.9 L 148.0 95.8 L 153.8 94.8 L 159.5 93.8 L 164.9 92.8 L 170.2 91.8 L 174.21632652282716 91.07706127166747 L 174.2 91.0 L 174.27884521484376 91.06580781936646 L 175.2 90.9 L 175.33166456222534 91.94453897476197 L 186.9 101.6 L 187.3 104.5 L 182.76686248779296 102.08625144958496 L 181.53364057540892 102.23133640289306 L 180.0 112.2 L 182.7 114.0 Z " />
</g>
</svg>
