<svg xmlns="http://www.w3.org/2000/svg" xmlns:xlink="http://www.w3.org/1999/xlink" version="1.1" baseProfile="full" viewBox="0 0 200 200" width="200" height="200">
<g fill="black">
<path d="M 48.0 125.9 L 152.0 125.9 L 158.0 120.9 L 169.0 129.9 L 164.0 133.9 L 164.0 173.2 L 152.0 179.2 L 152.0 167.2 L 48.0 167.2 L 48.0 179.2 L 36.0 185.2 L 36.0 119.9 Z M 48.0 129.9 L 48.0 163.2 L 152.0 163.2 L 152.0 129.9 Z M 156.0 106.1 L 146.9 101.0 L 138.7 95.2 L 135.7639600753784 92.59478149414062 L 128.4 97.9 L 117.9 103.7 L 106.3 108.5 L 93.6 112.2 L 79.9 114.9 L 79.4 113.2 L 92.5 108.6 L 104.3 103.5 L 114.8 97.9 L 124.1 91.7 L 129.81029958724974 86.8462453842163 L 125.5 81.9 L 120.5 74.4 L 116.6 66.5 L 114.0 58.0 L 113.25995092391967 52.93351039886475 L 108.4 57.0 L 103.1 60.8 L 97.5 64.2 L 96.4 62.7 L 98.7625 60.0 L 64.0 60.0 L 64.0 65.13777780532837 L 68.4 66.8 L 72.6 68.6 L 76.5 70.4 L 80.2 72.3 L 83.7 74.3 L 86.9 76.3 L 90.0 78.4 L 92.8 80.5 L 95.4 82.6 L 96.9 87.0 L 95.0 91.1 L 90.7 92.6 L 86.5 90.7 L 84.9 88.5 L 82.9 86.2 L 80.8 83.8 L 78.3 81.4 L 75.6 78.9 L 72.7 76.3 L 69.5 73.6 L 66.0 70.8 L 64.0 69.18888893127442 L 64.0 109.4 L 52.0 115.4 L 52.0 75.79473686218262 L 50.0 78.9 L 45.7 84.5 L 41.2 89.6 L 36.3 94.4 L 31.1 98.8 L 25.6 102.8 L 19.7 106.2 L 13.4 109.1 L 12.5 107.6 L 17.5 103.1 L 22.2 98.6 L 26.7 94.0 L 30.8 89.2 L 34.7 84.2 L 38.2 79.0 L 41.5 73.6 L 44.4 67.9 L 47.0 62.0 L 47.75 60.0 L 14.0 60.0 L 14.0 56.0 L 52.0 56.0 L 52.0 35.4 L 20.0 35.4 L 20.0 31.4 L 52.0 31.4 L 52.0 14.1 L 64.0 16.1 L 67.0 18.1 L 64.0 19.9 L 64.0 31.4 L 72.0 31.4 L 82.0 21.4 L 94.0 31.4 L 94.0 35.4 L 64.0 35.4 L 64.0 56.0 L 79.0 56.0 L 89.0 46.0 L 101.0 56.0 L 101.0 57.431707286834715 L 104.7 53.1 L 108.5 48.4 L 112.0 43.6 L 115.3 38.7 L 118.3 33.8 L 121.0 28.7 L 123.4 23.5 L 125.5 18.2 L 127.04388828277588 13.81210708618164 L 127.0 13.8 L 127.9 11.4 L 138.6 17.0 L 140.7 20.0 L 136.89249010086058 20.667984199523925 L 135.9 22.8 L 133.0 28.4 L 129.6 33.7 L 126.0 38.9 L 124.96530609130859 40.2 L 164.1 40.2 L 174.1 30.2 L 186.1 40.2 L 186.1 44.2 L 166.2473684310913 44.2 L 163.3 54.7 L 158.8 65.2 L 153.0 74.8 L 146.0 83.5 L 143.3807159423828 85.92993822097779 L 144.7 86.9 L 152.4 91.4 L 161.0 95.4 L 170.4 98.9 L 180.7 102.0 L 188.7 104.3 L 177.0 114.6 L 166.0 110.7 Z M 121.74255323410034 44.2 L 117.9 48.5 L 115.3795129776001 50.91090068817139 L 117.9 56.6 L 121.9 63.8 L 126.5 70.4 L 131.8 76.5 L 136.19137868881225 80.38745002746582 L 138.9 77.4 L 144.6 69.3 L 149.1 60.6 L 152.5 51.2 L 154.07843141555787 44.2 Z " />
</g>
</svg>
