<svg xmlns="http://www.w3.org/2000/svg" xmlns:xlink="http://www.w3.org/1999/xlink" version="1.1" baseProfile="full" viewBox="0 0 200 200" width="200" height="200">
<g fill="black">
<path d="M 48.0 132.6 L 152.0 132.6 L 158.0 127.6 L 169.0 136.6 L 164.0 140.6 L 164.0 179.2 L 152.0 185.2 L 152.0 175.2 L 48.0 175.2 L 48.0 182.2 L 36.0 188.2 L 36.0 126.6 Z M 48.0 136.6 L 48.0 171.2 L 152.0 171.2 L 152.0 136.6 Z M 151.5 124.2 L 140.4 119.9 L 130.6 114.6 L 122.1 108.4 L 115.0 101.2 L 109.2 93.1 L 105.0 84.1 L 103.26295566558838 77.85950736999511 L 101.4 83.9 L 96.3 93.5 L 89.3 102.0 L 80.5 109.2 L 70.1 115.3 L 58.0 120.2 L 44.3 124.0 L 29.0 126.6 L 12.1 128.1 L 11.8 126.3 L 28.3 122.9 L 42.9 118.8 L 55.6 114.0 L 66.5 108.6 L 75.4 102.4 L 82.5 95.6 L 87.8 88.2 L 91.4 80.1 L 93.5 71.3 L 94.0 61.6 L 94.0 30.1 L 15.0 30.1 L 15.0 26.1 L 94.0 26.1 L 94.0 11.7 L 106.0 13.7 L 109.0 15.7 L 106.0 17.5 L 106.0 26.1 L 170.7777777671814 26.1 L 177.0 19.1 L 185.0 26.1 L 185.0 30.1 L 106.0 30.1 L 106.0 61.6 L 105.08180923461914 69.79308710098266 L 106.3 73.3 L 110.3 81.7 L 115.2 89.0 L 120.0 94.28813562393188 L 120.0 48.3 L 132.0 54.3 L 134.6 54.3 L 134.8 54.1 L 135.8 52.1 L 137.8 48.5 L 138.7 46.9 L 139.5 45.2 L 139.55 45.1 L 113.0 45.1 L 113.0 41.1 L 167.7777777671814 41.1 L 174.0 34.1 L 182.0 41.1 L 182.0 45.1 L 154.08205127716064 45.1 L 151.5 47.0 L 150.1 48.0 L 148.6 49.0 L 147.0 49.9 L 145.4 50.9 L 143.7 51.9 L 142.0 52.8 L 140.2 53.8 L 139.1444444656372 54.3 L 161.0 54.3 L 167.0 49.3 L 178.0 58.3 L 173.0 62.3 L 173.0 97.2 L 161.0 103.2 L 161.0 91.2 L 132.0 91.2 L 132.0 98.2 L 127.32696628570557 100.53651685714722 L 127.9 101.0 L 135.7 105.8 L 144.7 109.7 L 154.8 112.8 L 166.1 115.1 L 178.7 116.7 L 189.1 117.8 L 177.2 129.8 L 163.8 127.5 Z M 88.0 41.1 L 88.0 45.1 L 60.082051277160645 45.1 L 57.5 47.0 L 56.1 48.0 L 54.6 49.0 L 53.0 49.9 L 51.4 50.9 L 49.7 51.9 L 48.0 52.8 L 46.2 53.8 L 45.14444446563721 54.3 L 67.0 54.3 L 73.0 49.3 L 84.0 58.3 L 79.0 62.3 L 79.0 95.2 L 67.0 101.2 L 67.0 91.2 L 38.0 91.2 L 38.0 103.2 L 26.0 109.2 L 26.0 48.3 L 38.0 54.3 L 40.6 54.3 L 40.8 54.1 L 41.8 52.1 L 43.8 48.5 L 44.7 46.9 L 45.5 45.2 L 45.55 45.1 L 20.0 45.1 L 20.0 41.1 L 73.77777776718139 41.1 L 80.0 34.1 Z M 132.0 72.9 L 132.0 87.2 L 161.0 87.2 L 161.0 72.9 Z M 38.0 72.9 L 38.0 87.2 L 67.0 87.2 L 67.0 72.9 Z M 132.0 58.3 L 132.0 68.9 L 161.0 68.9 L 161.0 58.3 Z M 38.0 58.3 L 38.0 68.9 L 67.0 68.9 L 67.0 58.3 Z " />
</g>
</svg>
