<svg xmlns="http://www.w3.org/2000/svg" xmlns:xlink="http://www.w3.org/1999/xlink" version="1.1" baseProfile="full" viewBox="0 0 200 200" width="200" height="200">
<g fill="black">
<path d="M 48.0 135.5 L 152.0 135.5 L 158.0 130.5 L 169.0 139.5 L 164.0 143.5 L 164.0 180.6 L 152.0 186.6 L 152.0 176.6 L 48.0 176.6 L 48.0 183.6 L 36.0 189.6 L 36.0 129.5 Z M 48.0 139.5 L 48.0 172.6 L 152.0 172.6 L 152.0 139.5 Z M 18.0 113.7 L 48.0 113.7 L 48.0 89.8 L 60.0 95.8 L 114.0 95.8 L 114.0 81.6 L 61.9 81.6 L 49.9 87.6 L 49.9 51.4 L 61.9 57.4 L 138.0 57.4 L 144.0 52.4 L 155.0 61.4 L 150.0 65.4 L 150.0 81.6 L 138.0 87.6 L 138.0 81.6 L 122.4 81.6 L 126.0 82.2 L 129.0 84.2 L 126.0 86.0 L 126.0 95.8 L 147.8181818008423 95.8 L 156.0 86.8 L 166.0 95.8 L 166.0 99.8 L 126.0 99.8 L 126.0 113.7 L 165.8181818008423 113.7 L 174.0 104.7 L 184.0 113.7 L 184.0 117.7 L 126.0 117.7 L 126.0 129.3 L 114.0 135.3 L 114.0 117.7 L 18.0 117.7 Z M 60.0 99.8 L 60.0 113.7 L 114.0 113.7 L 114.0 99.8 Z M 61.9 61.4 L 61.9 77.6 L 138.0 77.6 L 138.0 61.4 Z M 22.0 46.1 L 74.08107347488404 46.1 L 79.74293785095215 30.8 L 40.0 30.8 L 40.0 26.8 L 81.2231637954712 26.8 L 86.7 12.0 L 97.2 18.0 L 99.3 20.9 L 95.83387279510498 21.68478355407715 L 93.93741493225097 26.8 L 136.0 26.8 L 142.0 21.8 L 153.0 30.8 L 148.0 34.8 L 148.0 46.1 L 163.8181818008423 46.1 L 172.0 37.1 L 182.0 46.1 L 182.0 50.1 L 22.0 50.1 Z M 92.45442180633545 30.8 L 86.78197278976441 46.1 L 136.0 46.1 L 136.0 30.8 Z " />
</g>
</svg>
