<svg xmlns="http://www.w3.org/2000/svg" xmlns:xlink="http://www.w3.org/1999/xlink" version="1.1" baseProfile="full" viewBox="0 0 200 200" width="200" height="200">
<g fill="black">
<path d="M 89.66042699813843 94.75603342056274 L 99.5 103.0 L 99.8 106.1 L 95.53364744186402 104.14966735839843 L 92.6 105.0 L 87.0 106.2 L 81.2 107.4 L 69.2 109.4 L 63.0 110.2 L 56.7 110.9 L 50.2 111.5 L 43.7 111.9 L 36.9 112.0 L 36.0 111.9735294342041 L 36.0 135.0 L 71.0 135.0 L 81.0 125.0 L 93.0 135.0 L 93.0 139.0 L 36.0 139.0 L 36.0 165.5 L 72.0 165.5 L 82.0 155.5 L 94.0 165.5 L 94.0 169.5 L 36.0 169.5 L 36.0 181.5 L 24.0 187.5 L 24.0 102.0 L 36.0 108.0 L 36.0 108.3151515007019 L 36.4 108.2 L 42.9 106.5 L 49.2 105.0 L 55.4 103.4 L 61.4 101.9 L 67.3 100.3 L 73.0 98.6 L 78.6 97.0 L 84.1 95.2 L 88.43122911453247 93.78402128219605 L 88.4 93.7 L 88.48090133666992 93.76778221130371 L 89.3 93.5 Z M 149.8 163.5 L 163.8 163.5 L 165.0 163.4 L 165.9 163.2 L 166.8 162.9 L 167.2 162.5 L 167.4 162.2 L 167.5 161.6 L 167.7 160.7 L 167.8 159.5 L 167.8 109.0 L 118.2 109.0 L 118.2 180.0 L 106.2 186.0 L 106.2 99.0 L 118.2 105.0 L 167.8 105.0 L 173.8 100.0 L 184.8 109.0 L 179.8 113.0 L 179.8 159.5 L 179.6 162.0 L 179.2 164.5 L 178.4 166.9 L 177.2 169.2 L 175.5 171.2 L 173.5 172.8 L 171.2 174.1 L 168.8 174.9 L 166.3 175.3 L 163.8 175.5 L 163.8 169.5 L 149.8 166.5 Z M 119.2 21.6 L 168.7 21.6 L 174.7 16.6 L 185.7 25.6 L 180.7 29.6 L 180.7 81.3 L 168.7 87.3 L 168.7 75.3 L 119.2 75.3 L 119.2 87.3 L 107.2 93.3 L 107.2 15.6 Z M 38.4 26.0 L 74.7 26.0 L 80.7 21.0 L 91.7 30.0 L 86.7 34.0 L 86.7 68.1 L 74.7 74.1 L 74.7 62.1 L 38.4 62.1 L 38.4 74.1 L 26.4 80.1 L 26.4 20.0 Z M 119.2 49.7 L 119.2 71.3 L 168.7 71.3 L 168.7 49.7 Z M 38.4 30.0 L 38.4 58.1 L 74.7 58.1 L 74.7 30.0 Z M 119.2 25.6 L 119.2 45.7 L 168.7 45.7 L 168.7 25.6 Z " />
</g>
</svg>
