<svg xmlns="http://www.w3.org/2000/svg" xmlns:xlink="http://www.w3.org/1999/xlink" version="1.1" baseProfile="full" viewBox="0 0 200 200" width="200" height="200">
<g fill="black">
<path d="M 123.0 177.0 L 143.0 177.0 L 144.2 176.9 L 145.1 176.7 L 146.0 176.4 L 146.4 176.0 L 146.7 175.1 L 146.9 174.2 L 147.0 173.0 L 147.0 70.0 L 77.0 70.0 L 77.0 66.0 L 147.0 66.0 L 147.0 38.0 L 77.0 38.0 L 77.0 34.0 L 165.0 34.0 L 175.0 24.0 L 187.0 34.0 L 187.0 38.0 L 159.0 38.0 L 159.0 66.0 L 165.0 66.0 L 175.0 56.0 L 187.0 66.0 L 187.0 70.0 L 159.0 70.0 L 159.0 173.0 L 158.8 175.5 L 158.4 178.0 L 157.6 180.4 L 156.3 182.7 L 154.7 184.7 L 152.7 186.3 L 150.4 187.6 L 148.0 188.4 L 145.5 188.8 L 143.0 189.0 L 143.0 183.0 L 123.0 180.0 Z M 74.3 18.9 L 76.3 21.9 L 72.68111295700074 22.461551475524903 L 69.3 29.9 L 64.1 40.6 L 58.6 51.0 L 52.9 61.3 L 47.0 71.2 L 45.95076923370361 72.85846157073975 L 52.2 73.9 L 55.2 75.9 L 52.2 77.7 L 52.2 181.2 L 40.2 187.2 L 40.2 81.86769227981567 L 34.3 90.4 L 27.5 99.5 L 20.4 108.3 L 12.9 116.7 L 11.4 115.6 L 17.3 106.1 L 23.1 96.5 L 28.8 86.8 L 34.3 77.0 L 39.6 67.1 L 44.7 56.9 L 49.7 46.6 L 54.4 36.0 L 58.9 25.3 L 62.84001274108887 15.312525749206543 L 62.8 15.3 L 63.7 13.1 Z M 91.0 92.0 L 116.0 92.0 L 122.0 87.0 L 133.0 96.0 L 128.0 100.0 L 128.0 139.0 L 116.0 145.0 L 116.0 133.0 L 91.0 133.0 L 91.0 145.0 L 79.0 151.0 L 79.0 86.0 Z M 91.0 96.0 L 91.0 129.0 L 116.0 129.0 L 116.0 96.0 Z " />
</g>
</svg>
