<svg xmlns="http://www.w3.org/2000/svg" xmlns:xlink="http://www.w3.org/1999/xlink" version="1.1" baseProfile="full" viewBox="0 0 200 200" width="200" height="200">
<g fill="black">
<path d="M 168.4 179.6 L 166.9 181.5 L 165.1 183.2 L 163.1 184.7 L 161.0 185.9 L 158.7 186.8 L 156.3 187.5 L 153.9 187.8 L 151.4 188.0 L 151.4 182.0 L 131.4 179.0 L 131.4 176.0 L 151.4 176.0 L 152.7 175.9 L 153.9 175.7 L 154.9 175.4 L 155.8 175.1 L 157.4 174.1 L 158.0 173.4 L 158.7 172.6 L 159.4 171.6 L 160.0 170.4 L 161.7 165.7 L 163.3 159.1 L 164.8 150.7 L 166.1 140.6 L 167.2 128.7 L 168.1 115.1 L 168.8 99.8 L 169.3 82.9 L 169.6 64.3 L 169.78029556274413 46.0 L 104.29708738327027 46.0 L 104.2 46.4 L 101.4 56.4 L 98.3 66.1 L 94.9 75.6 L 91.2 84.8 L 87.1 93.7 L 82.5 102.2 L 77.6 110.4 L 75.9 109.5 L 79.1 100.6 L 82.1 91.7 L 85.0 82.5 L 87.7 73.2 L 90.2 63.8 L 92.4 54.1 L 94.4 44.2 L 96.2 34.1 L 97.6 23.7 L 98.77580270767211 14.203132343292236 L 98.7 14.2 L 99.1 11.1 L 110.8 14.7 L 113.5 17.1 L 110.12487487792968 18.537553310394287 L 108.9 25.5 L 106.7 36.1 L 105.26796112060546 42.0 L 169.8 42.0 L 175.8 37.0 L 186.8 46.0 L 181.8 49.0 L 181.75077934265136 49.02050857543945 L 181.6 64.4 L 181.3 83.2 L 180.8 100.3 L 180.1 115.8 L 179.2 129.6 L 178.0 141.9 L 176.6 152.5 L 175.0 161.6 L 173.2 169.1 L 170.9 175.3 L 169.8 177.5 Z M 161.8 155.4 L 159.4 159.0 L 155.8 161.4 L 113.9 161.4 L 111.4 161.3 L 108.9 160.8 L 106.5 160.0 L 104.2 158.8 L 102.2 157.1 L 100.5 155.1 L 99.3 152.9 L 98.5 150.5 L 98.1 148.0 L 97.9 145.4 L 97.9 67.8 L 109.9 73.8 L 122.5 73.8 L 122.5 49.1 L 134.5 51.1 L 137.5 53.1 L 134.5 54.9 L 134.5 73.8 L 140.3181818008423 73.8 L 148.5 64.8 L 158.5 73.8 L 158.5 77.8 L 109.9 77.8 L 109.9 145.4 L 110.0 146.6 L 110.2 147.5 L 110.4 148.1 L 110.5 148.5 L 110.7 148.7 L 110.9 148.8 L 111.2 149.0 L 111.8 149.2 L 112.7 149.3 L 113.9 149.4 L 155.8 149.4 L 159.4 151.8 Z M 30.0 41.7 L 56.9 41.7 L 62.9 36.7 L 73.9 45.7 L 68.9 49.7 L 68.9 140.2 L 56.9 146.2 L 56.9 134.2 L 30.0 134.2 L 30.0 146.2 L 18.0 152.2 L 18.0 35.7 Z M 30.0 45.7 L 30.0 130.2 L 56.9 130.2 L 56.9 45.7 Z " />
</g>
</svg>
