<svg xmlns="http://www.w3.org/2000/svg" xmlns:xlink="http://www.w3.org/1999/xlink" version="1.1" baseProfile="full" viewBox="0 0 200 200" width="200" height="200">
<g fill="black">
<path d="M 113.6 118.6 L 164.3 118.6 L 170.3 113.6 L 181.3 122.6 L 176.3 126.6 L 176.3 181.2 L 164.3 187.2 L 164.3 177.2 L 113.6 177.2 L 113.6 184.2 L 101.6 190.2 L 101.6 112.6 Z M 79.8 137.3 L 79.1 133.8 L 78.93159112930297 132.98201379776 L 75.6 134.0 L 68.7 136.0 L 62.1 137.7 L 61.5 137.840625 L 61.5 182.6 L 49.5 188.6 L 49.5 140.52068967819213 L 43.8 141.7 L 38.3 142.9 L 33.1 143.8 L 28.1 144.7 L 27.596615886688234 144.78568239212035 L 25.7 148.3 L 23.4 145.5 L 20.3 133.7 L 22.3 133.6 L 26.9 133.4 L 31.8 133.2 L 37.0 132.9 L 42.5 132.5 L 48.4 132.1 L 50.390426826477054 131.9715853691101 L 51.2 129.4 L 52.9 124.2 L 54.6 119.2 L 58.0 109.6 L 59.6 105.1 L 61.1 100.6 L 62.6 96.3 L 63.9 92.1 L 65.2 88.0 L 65.24207649230956 88.01653003692627 L 65.7 86.7 L 76.4 92.4 L 78.5 95.3 L 74.66505794525146 95.96119689941406 L 74.5 96.3 L 72.5 100.4 L 68.1 108.8 L 65.7 113.1 L 63.2 117.5 L 60.5 122.0 L 57.6 126.6 L 54.5 131.1 L 54.04382352828979 131.7358823776245 L 54.6 131.7 L 61.0 131.2 L 67.9 130.7 L 75.0 130.3 L 78.33993215560913 130.16640272140503 L 77.5 126.9 L 76.6 123.6 L 75.5 120.2 L 74.4 116.9 L 73.3 113.5 L 71.9 110.3 L 73.3 109.3 L 75.8 111.9 L 78.3 114.7 L 80.6 117.6 L 82.8 120.7 L 84.8 123.9 L 86.6 127.3 L 88.3 130.8 L 89.9 134.4 L 91.3 138.1 L 92.6 142.0 L 91.7 146.5 L 88.0 149.1 L 83.5 148.3 L 80.8 144.5 L 80.4 140.9 Z M 47.3 153.4 L 49.5 156.2 L 45.655064296722415 157.0769151687622 L 45.6 157.2 L 43.8 160.9 L 41.8 164.5 L 39.7 168.1 L 37.5 171.6 L 35.1 174.9 L 32.5 178.2 L 29.8 181.3 L 26.8 184.3 L 23.9 187.3 L 22.4 186.2 L 24.3 182.5 L 25.9 178.8 L 27.4 175.1 L 30.4 167.9 L 31.7 164.2 L 32.9 160.6 L 34.0 157.0 L 35.0 153.3 L 35.59499101638794 150.62254028320314 L 35.5 150.6 L 36.3 148.2 Z M 75.5 173.7 L 74.6 170.2 L 73.6 166.7 L 72.6 163.3 L 70.2 156.5 L 67.6 149.7 L 66.0 146.4 L 67.4 145.4 L 72.7 150.7 L 75.2 153.6 L 77.5 156.6 L 79.7 159.8 L 81.7 163.2 L 83.6 166.7 L 85.4 170.3 L 87.0 174.0 L 88.5 177.9 L 87.9 182.4 L 84.3 185.2 L 79.8 184.6 L 76.9 181.0 L 76.2 177.3 Z M 113.6 122.6 L 113.6 173.2 L 164.3 173.2 L 164.3 122.6 Z M 40.2 116.2 L 39.5 113.0 L 38.7 109.9 L 37.8 106.9 L 36.8 103.9 L 35.7 101.1 L 34.5 98.2 L 33.3 95.4 L 31.7 92.8 L 33.0 91.6 L 35.4 93.6 L 38.0 95.7 L 40.3 98.1 L 42.6 100.6 L 43.136231899261475 101.35072460174561 L 44.0 96.6 L 44.7 93.4 L 46.8 84.1 L 48.0 78.1 L 48.40824222564697 76.1268292427063 L 48.3 76.1 L 49.1 73.7 L 60.0 79.0 L 62.2 81.8 L 58.136633682250974 82.72673263549805 L 57.2 84.6 L 55.7 87.4 L 54.2 90.3 L 52.6 93.1 L 49.2 98.7 L 47.3 101.5 L 45.3 104.3 L 45.25090913772583 104.37636365890503 L 46.6 106.4 L 48.4 109.5 L 50.0 112.8 L 51.5 116.3 L 52.9 120.0 L 52.2 124.5 L 48.5 127.2 L 44.0 126.5 L 41.3 122.8 L 40.8 119.4 Z M 132.4 28.2 L 135.4 30.2 L 132.4 32.0 L 132.4 50.5 L 135.71818180084227 50.5 L 143.9 41.5 L 153.9 50.5 L 153.9 54.5 L 132.4 54.5 L 132.4 77.6 L 134.6 77.6 L 144.6 67.6 L 156.6 77.6 L 156.6 81.6 L 132.4 81.6 L 132.4 109.9 L 120.4 115.9 L 120.4 81.6 L 97.1 81.6 L 97.1 77.6 L 120.4 77.6 L 120.4 54.5 L 99.9 54.5 L 99.9 50.5 L 120.4 50.5 L 120.4 26.2 Z M 169.9 110.1 L 165.8 104.4 L 162.8 97.2 L 160.6 88.6 L 159.0 78.4 L 158.1 66.6 L 157.8 53.2 L 158.0 38.0 L 158.77218933105468 23.5 L 97.1 23.5 L 97.1 19.5 L 158.8 19.5 L 164.8 14.5 L 175.8 23.5 L 170.8 26.5 L 170.56885242462158 26.596311473846434 L 170.0 38.4 L 169.8 53.1 L 170.1 66.0 L 170.9 77.1 L 172.3 86.3 L 174.2 93.5 L 176.3 98.7 L 177.24202127456664 99.984574508667 L 182.2 78.5 L 184.2 78.5 L 182.2744680404663 103.5319149017334 L 186.4 105.3 L 188.2 109.5 L 186.4 113.7 L 182.2 115.5 L 175.5 114.1 Z M 16.7 94.9 L 14.6 90.9 L 15.7 86.5 L 16.5 86.1 L 17.4 85.0 L 18.4 83.3 L 19.4 81.0 L 20.3 78.3 L 21.2 75.0 L 22.1 71.3 L 22.9 67.2 L 23.8 62.6 L 24.2 57.6 L 26.0 57.6 L 26.5 62.6 L 26.946808528900146 65.6 L 49.5 65.6 L 49.5 42.8 L 20.8 42.8 L 20.8 38.8 L 49.5 38.8 L 49.5 13.2 L 61.5 15.2 L 64.5 17.2 L 61.5 19.0 L 61.5 38.8 L 68.1 38.8 L 78.1 28.8 L 90.1 38.8 L 90.1 42.8 L 61.5 42.8 L 61.5 65.6 L 82.8 65.6 L 88.8 60.6 L 99.8 69.6 L 94.8 72.6 L 92.07398843765259 73.73583812713623 L 91.4 74.9 L 90.1 77.0 L 88.8 79.2 L 87.4 81.4 L 85.9 83.8 L 84.3 86.2 L 82.4 88.7 L 81.0 91.4 L 79.3 90.8 L 80.2 87.8 L 80.6 84.7 L 81.1 81.9 L 81.5 79.2 L 81.9 76.6 L 82.2 74.2 L 82.5 71.9 L 82.8 69.7 L 82.8 69.6 L 27.46136360168457 69.6 L 27.7 71.7 L 27.9 75.7 L 28.0 79.4 L 27.9 82.7 L 27.6 85.8 L 27.1 88.7 L 26.4 91.4 L 25.2 93.9 L 21.2 96.1 Z " />
</g>
</svg>
