<svg xmlns="http://www.w3.org/2000/svg" xmlns:xlink="http://www.w3.org/1999/xlink" version="1.1" baseProfile="full" viewBox="0 0 200 200" width="200" height="200">
<g fill="black">
<path d="M 96.0 147.6 L 96.0 129.2 L 48.0 129.2 L 48.0 142.0 L 47.431884098052976 147.6 Z M 108.0 129.2 L 108.0 147.6 L 158.0 147.6 L 158.0 129.2 Z M 48.0 107.2 L 48.0 125.2 L 96.0 125.2 L 96.0 107.2 Z M 108.0 107.2 L 108.0 125.2 L 158.0 125.2 L 158.0 107.2 Z M 44.0 57.9 L 156.0 57.9 L 162.0 52.9 L 173.0 61.9 L 168.0 65.9 L 168.0 89.6 L 156.0 95.6 L 156.0 87.6 L 44.0 87.6 L 44.0 90.6 L 32.0 96.6 L 32.0 51.9 Z M 44.0 61.9 L 44.0 83.6 L 156.0 83.6 L 156.0 61.9 Z M 55.0 18.3 L 145.0 18.3 L 151.0 13.3 L 162.0 22.3 L 157.0 26.3 L 157.0 44.8 L 145.0 50.8 L 145.0 44.8 L 55.0 44.8 L 43.0 50.8 L 43.0 12.3 Z M 55.0 22.3 L 55.0 40.8 L 145.0 40.8 L 145.0 22.3 Z M 169.4 177.3 L 168.6 179.7 L 167.3 182.0 L 165.7 184.0 L 163.7 185.6 L 161.4 186.9 L 159.0 187.7 L 156.5 188.1 L 154.0 188.2 L 154.0 182.2 L 134.0 179.2 L 134.0 176.2 L 155.2 176.2 L 156.1 176.0 L 156.7 175.8 L 157.0 175.6 L 157.2 175.5 L 157.4 175.3 L 157.7 174.4 L 157.9 173.5 L 158.0 172.2 L 158.0 151.6 L 108.0 151.6 L 108.0 176.2 L 96.0 182.2 L 96.0 151.6 L 46.709375 151.6 L 45.9 155.3 L 43.8 161.3 L 40.9 166.8 L 37.4 171.7 L 33.2 176.0 L 28.3 179.7 L 22.9 182.8 L 16.8 185.1 L 10.2 186.7 L 9.7 185.0 L 15.2 181.6 L 20.1 178.2 L 24.2 174.6 L 27.7 170.8 L 30.5 166.7 L 32.7 162.5 L 34.4 157.9 L 35.4 153.0 L 36.0 147.7 L 36.0 97.2 L 48.0 103.2 L 158.0 103.2 L 164.0 98.2 L 175.0 107.2 L 170.0 111.2 L 170.0 172.2 L 169.8 174.8 Z " />
</g>
</svg>
