<svg xmlns="http://www.w3.org/2000/svg" xmlns:xlink="http://www.w3.org/1999/xlink" version="1.1" baseProfile="full" viewBox="0 0 200 200" width="200" height="200">
<g fill="black">
<path d="M 104.3 169.7 L 93.3 175.2 L 93.3 165.7 L 66.0 165.7 L 66.0 183.0 L 54.0 189.0 L 54.0 165.7 L 26.6 165.7 L 26.6 172.7 L 15.6 178.2 L 15.6 133.3 L 26.6 135.3 L 29.4 137.3 L 26.6 139.05 L 26.6 161.7 L 93.3 161.7 L 93.3 133.3 L 104.3 135.3 L 107.0 137.3 L 104.3 139.02340421676635 L 104.3 155.9875 L 108.0 154.6 L 112.1 153.1 L 116.2 151.4 L 120.5 149.7 L 124.9 147.9 L 129.3 146.0 L 133.9 144.0 L 138.6 142.1 L 143.5 140.1 L 148.6 138.2 L 149.5 139.7 L 145.4 143.3 L 141.2 146.6 L 137.1 149.7 L 132.9 152.6 L 128.8 155.3 L 124.7 157.9 L 120.7 160.4 L 116.7 162.7 L 112.7 164.9 L 112.58224077224732 164.96340885162354 L 111.9 169.0 L 108.8 167.0 L 104.3 160.11363639831544 Z M 157.85607481002808 18.766355133056642 L 158.36575679779054 53.0 L 165.8 53.0 L 175.8 43.0 L 187.8 53.0 L 187.8 57.0 L 158.49728918075562 57.0 L 160.3 88.5 L 163.2 115.0 L 164.07145156860352 120.15401334762574 L 165.4 116.2 L 169.1 102.5 L 172.2 87.7 L 172.21368417739868 87.7028070449829 L 172.6 85.9 L 183.9 90.1 L 186.5 92.7 L 182.94962949752806 93.9264916419983 L 180.1 105.4 L 175.6 119.5 L 170.5 132.5 L 167.4540612220764 138.69690990447998 L 170.6 151.2 L 174.6 162.1 L 178.3 169.0 L 178.36626510620118 169.07951803207396 L 183.0 149.0 L 185.0 149.0 L 183.07446804046631 174.0319149017334 L 187.2 175.8 L 189.0 180.0 L 187.2 184.2 L 183.0 186.0 L 178.0 184.8 L 173.1 181.4 L 168.3 175.6 L 163.6 166.9 L 159.1 154.7 L 158.92574253082276 154.01541728973388 L 158.4 154.9 L 151.4 164.3 L 143.8 172.5 L 135.6 179.3 L 126.8 184.8 L 117.5 188.8 L 116.7 187.1 L 124.7 181.6 L 132.2 175.2 L 139.0 168.0 L 145.4 159.7 L 151.1 150.5 L 155.72219171524048 141.4300389289856 L 154.9 138.2 L 151.3 116.7 L 148.4 89.4 L 148.07028570175171 83.86079998016358 L 144.3 86.5 L 144.3 124.0 L 133.3 129.5 L 133.3 124.0 L 121.4 124.0 L 121.4 136.0 L 111.4 141.0 L 111.4 74.0 L 121.4 79.0 L 133.3 79.0 L 138.8 74.0 L 147.95017919540405 81.84301071166992 L 146.47142858505248 57.0 L 107.6 57.0 L 107.6 53.0 L 146.3588234901428 53.0 L 145.8146879196167 15.998776054382324 L 145.8 16.0 L 145.8 12.6 L 157.8 15.0 L 160.8 17.0 Z M 45.3 127.8 L 74.6 127.8 L 80.1 122.8 L 90.6 131.8 L 85.6 135.3 L 85.6 150.1 L 74.6 155.6 L 74.6 150.1 L 45.3 150.1 L 34.3 155.6 L 34.3 122.3 Z M 45.3 131.8 L 45.3 146.1 L 74.6 146.1 L 74.6 131.8 Z M 105.5 75.3 L 100.5 77.8 L 100.5 118.9 L 91.5 123.4 L 91.5 116.9 L 28.9 116.9 L 28.9 119.9 L 18.9 124.9 L 18.9 66.3 L 28.9 71.3 L 91.5 71.3 L 96.0 66.3 Z M 121.4 83.0 L 121.4 120.0 L 133.3 120.0 L 133.3 83.0 Z M 28.9 75.3 L 28.9 112.9 L 91.5 112.9 L 91.5 75.3 Z M 88.5 87.2 L 83.5 90.2 L 83.5 103.7 L 73.5 108.7 L 73.5 103.7 L 46.4 103.7 L 36.4 108.7 L 36.4 78.2 L 46.4 83.2 L 73.5 83.2 L 78.5 78.2 Z M 46.4 87.2 L 46.4 99.7 L 73.5 99.7 L 73.5 87.2 Z M 43.2 41.4 L 76.7 41.4 L 82.7 36.4 L 93.7 45.4 L 88.7 49.4 L 88.7 61.2 L 76.7 67.2 L 76.7 61.2 L 43.2 61.2 L 31.2 67.2 L 31.2 35.4 Z M 43.2 45.4 L 43.2 57.2 L 76.7 57.2 L 76.7 45.4 Z M 169.1 32.8 L 168.4 30.6 L 167.6 28.5 L 166.7 26.3 L 165.8 24.2 L 164.7 22.2 L 163.6 20.1 L 162.4 18.0 L 160.8 16.3 L 161.9 14.9 L 164.0 16.2 L 166.3 17.3 L 168.5 18.7 L 170.6 20.3 L 172.6 22.0 L 174.6 23.9 L 176.4 25.9 L 178.1 28.1 L 179.8 30.4 L 181.3 32.9 L 181.3 37.5 L 178.0 40.7 L 173.5 40.6 L 170.2 37.4 L 169.7 35.1 Z M 12.4 28.6 L 54.0 28.6 L 54.0 13.0 L 66.0 15.0 L 69.0 17.0 L 66.0 18.8 L 66.0 28.6 L 89.41818180084229 28.6 L 97.6 19.6 L 107.6 28.6 L 107.6 32.6 L 12.4 32.6 Z " />
</g>
</svg>
