<svg xmlns="http://www.w3.org/2000/svg" xmlns:xlink="http://www.w3.org/1999/xlink" version="1.1" baseProfile="full" viewBox="0 0 200 200" width="200" height="200">
<g fill="black">
<path d="M 131.8 25.3 L 166.1 25.3 L 171.6 20.3 L 182.1 29.3 L 177.1 32.8 L 177.1 113.6 L 166.1 119.1 L 166.1 107.6 L 156.6 107.6 L 156.6 168.4 L 145.6 173.9 L 145.6 162.4 L 110.6 162.4 L 110.6 174.4 L 100.6 179.4 L 100.6 79.1 L 110.6 84.1 L 120.8 84.1 L 120.8 19.8 Z M 66.6 156.5 L 76.6 156.5 L 77.6 156.4 L 78.3 156.3 L 78.9 156.0 L 79.1 155.8 L 79.2 155.6 L 79.5 155.1 L 79.7 154.4 L 79.8 153.3 L 79.9 152.0 L 79.9 83.0 L 61.1 83.0 L 61.1 183.0 L 49.1 189.0 L 49.1 83.0 L 31.8 83.0 L 31.8 165.0 L 19.8 171.0 L 19.8 73.0 L 31.8 79.0 L 49.1 79.0 L 49.1 51.0 L 12.4 51.0 L 12.4 47.0 L 49.1 47.0 L 49.1 14.0 L 61.1 16.0 L 64.1 18.0 L 61.1 19.8 L 61.1 47.0 L 77.6 47.0 L 87.6 37.0 L 99.6 47.0 L 99.6 51.0 L 61.1 51.0 L 61.1 79.0 L 79.9 79.0 L 85.4 74.0 L 95.9 83.0 L 90.9 86.5 L 90.9 152.0 L 90.8 154.4 L 90.4 156.7 L 89.8 159.0 L 88.7 161.1 L 87.3 163.1 L 85.6 164.7 L 83.5 166.0 L 81.3 166.8 L 79.0 167.3 L 76.6 167.5 L 76.6 162.0 L 66.6 159.2 Z M 110.6 88.1 L 110.6 158.4 L 145.6 158.4 L 145.6 107.6 L 131.8 107.6 L 131.8 119.6 L 120.8 125.1 L 120.8 88.1 Z M 131.8 88.1 L 131.8 103.6 L 145.6 103.6 L 145.6 88.1 Z M 131.8 29.3 L 131.8 84.1 L 145.6 84.1 L 151.1 79.1 L 161.6 88.1 L 156.6 91.6 L 156.6 103.6 L 166.1 103.6 L 166.1 29.3 Z " />
</g>
</svg>
