<svg xmlns="http://www.w3.org/2000/svg" xmlns:xlink="http://www.w3.org/1999/xlink" version="1.1" baseProfile="full" viewBox="0 0 200 200" width="200" height="200">
<g fill="black">
<path d="M 28.4 109.4 L 52.8 109.4 L 58.8 104.4 L 69.8 113.4 L 64.8 117.4 L 64.8 179.5 L 52.8 185.5 L 52.8 175.5 L 28.4 175.5 L 28.4 182.5 L 16.4 188.5 L 16.4 103.4 Z M 146.4 109.4 L 170.8 109.4 L 176.8 104.4 L 187.8 113.4 L 182.8 117.4 L 182.8 179.5 L 170.8 185.5 L 170.8 175.5 L 146.4 175.5 L 146.4 182.5 L 134.4 188.5 L 134.4 103.4 Z M 117.5 171.4 L 116.8 167.5 L 116.17566499710082 164.45636672973632 L 115.7 164.7 L 111.4 166.7 L 102.4 170.3 L 93.2 173.9 L 83.6 177.5 L 78.7 179.3 L 77.57820510864258 179.72628202438355 L 76.5 183.5 L 73.7 181.2 L 68.2 170.3 L 70.2 169.7 L 75.4 168.4 L 80.5 167.2 L 83.69843120574951 166.51014232635498 L 83.8 166.3 L 86.6 160.3 L 89.5 154.1 L 92.3 147.9 L 94.95742197036743 141.6009256362915 L 90.4 141.7 L 87.1 138.6 L 86.4 136.2 L 84.6 131.2 L 83.5 128.7 L 82.2 126.2 L 80.9 123.5 L 79.4 120.9 L 77.8 118.2 L 76.2 115.3 L 74.1 112.7 L 75.4 111.4 L 78.0 113.5 L 80.9 115.3 L 83.5 117.3 L 84.14985446929931 117.84587774276733 L 84.2 117.7 L 86.9 107.5 L 87.9 104.0 L 88.7 100.5 L 89.6 96.9 L 90.4 93.2 L 91.2 89.4 L 91.71197605133057 86.62070140838622 L 91.6 86.6 L 92.4 83.9 L 103.5 88.8 L 105.8 91.5 L 102.04938268661499 92.5716049194336 L 102.0 92.7 L 100.4 96.4 L 98.7 100.1 L 97.0 103.6 L 95.2 107.0 L 93.3 110.2 L 91.3 113.3 L 89.1 116.3 L 86.8 119.1 L 86.32493076324462 119.71080331802368 L 88.3 121.6 L 90.5 123.9 L 92.6 126.2 L 94.5 128.7 L 96.3 131.1 L 98.0 133.7 L 98.00468368530274 133.915447807312 L 100.1 128.3 L 102.4 121.4 L 104.6 114.3 L 106.49226760864258 108.02111206054687 L 106.4 108.0 L 107.2 105.5 L 118.2 110.7 L 120.4 113.5 L 116.80601501464844 114.33431797027588 L 115.4 118.0 L 112.5 125.2 L 109.4 132.1 L 106.1 138.8 L 102.6 145.2 L 99.0 151.4 L 95.2 157.4 L 91.2 163.0 L 89.39658737182617 165.26475076675416 L 90.6 165.0 L 95.5 164.0 L 100.4 163.1 L 105.2 162.2 L 109.9 161.5 L 114.7 161.1 L 115.3973524093628 161.05548810958862 L 114.2 156.0 L 112.2 148.4 L 111.3 144.5 L 110.2 140.8 L 111.8 139.9 L 114.1 143.1 L 116.5 146.4 L 118.7 149.8 L 120.8 153.4 L 122.7 157.0 L 124.5 160.8 L 127.7 168.6 L 129.1 172.6 L 130.5 176.7 L 129.7 181.2 L 126.0 183.9 L 121.5 183.1 L 118.8 179.4 L 118.2 175.4 Z M 146.4 113.4 L 146.4 171.5 L 170.8 171.5 L 170.8 113.4 Z M 28.4 113.4 L 28.4 171.5 L 52.8 171.5 L 52.8 113.4 Z M 28.4 24.2 L 52.8 24.2 L 58.8 19.2 L 69.8 28.2 L 64.8 32.2 L 64.8 91.7 L 52.8 97.7 L 52.8 89.7 L 28.4 89.7 L 28.4 92.7 L 16.4 98.7 L 16.4 18.2 Z M 146.4 24.2 L 170.8 24.2 L 176.8 19.2 L 187.8 28.2 L 182.8 32.2 L 182.8 91.7 L 170.8 97.7 L 170.8 89.7 L 146.4 89.7 L 146.4 92.7 L 134.4 98.7 L 134.4 18.2 Z M 119.8 76.2 L 119.0 71.1 L 118.2 65.5 L 117.5 59.5 L 116.9 53.0 L 116.5 46.0 L 116.2 38.5 L 116.1 30.5 L 116.22215566635131 27.038922119140626 L 114.7 27.8 L 110.5 29.8 L 106.2 31.5 L 101.8 33.1 L 101.3875 33.23125 L 106.0 34.0 L 109.0 36.0 L 106.0 37.8 L 106.0 74.0 L 94.0 80.0 L 94.0 35.40666666030884 L 92.9 35.7 L 88.3 36.7 L 87.48965520858765 36.80344829559326 L 86.60980396270752 37.260294151306155 L 86.3 39.7 L 85.4 45.9 L 84.2 52.2 L 82.9 58.3 L 81.4 64.5 L 79.7 70.6 L 77.9 76.6 L 75.8 82.6 L 73.3 88.5 L 70.6 94.2 L 68.9 93.7 L 69.7 87.4 L 70.6 81.2 L 71.5 75.1 L 73.1 62.9 L 73.7 56.8 L 74.3 50.8 L 74.7 44.7 L 75.0 38.6 L 75.16723146438599 33.49943971633911 L 75.1 33.5 L 75.3 30.3 L 84.899893283844 32.82200584411621 L 86.7 31.9 L 90.7 29.8 L 94.6 27.7 L 98.4 25.6 L 102.2 23.3 L 105.8 21.0 L 109.4 18.6 L 112.9 16.1 L 115.50582981109619 14.107306671142577 L 115.5 14.1 L 115.50627174377442 14.106968593597411 L 116.3 13.5 L 120.2034782409668 19.32608699798584 L 123.6 23.1 L 123.8 26.6 L 120.07439079284669 25.069839096069337 L 119.14016733169555 25.571129703521727 L 120.3 30.1 L 122.0 37.8 L 123.6 45.0 L 125.2 51.7 L 126.7 57.9 L 128.2 63.6 L 129.7 68.7 L 131.2 73.3 L 132.7 77.3 L 134.2 80.7 L 125.0 94.1 L 121.8 85.2 L 120.8 80.9 Z M 146.4 28.2 L 146.4 85.7 L 170.8 85.7 L 170.8 28.2 Z M 28.4 28.2 L 28.4 85.7 L 52.8 85.7 L 52.8 28.2 Z " />
</g>
</svg>
