<svg xmlns="http://www.w3.org/2000/svg" xmlns:xlink="http://www.w3.org/1999/xlink" version="1.1" baseProfile="full" viewBox="0 0 200 200" width="200" height="200">
<g fill="black">
<path d="M 20.7 186.0 L 19.2 181.7 L 21.1 177.5 L 22.9 176.1 L 24.7 174.5 L 26.4 172.5 L 28.0 170.1 L 29.5 167.5 L 30.9 164.5 L 32.2 161.1 L 33.3 157.4 L 34.4 153.3 L 35.1 149.0 L 36.9 149.0 L 37.3 153.5 L 37.7 157.9 L 37.8 162.1 L 37.5 166.1 L 37.0 169.9 L 36.1 173.6 L 34.9 177.1 L 33.3 180.4 L 31.5 183.5 L 29.2 186.3 L 24.9 187.9 Z M 66.5 171.5 L 66.5 169.1 L 66.4 166.7 L 66.1 164.2 L 65.6 161.6 L 65.0 158.8 L 64.2 156.0 L 63.3 153.1 L 61.8 150.3 L 63.3 149.2 L 65.4 151.7 L 67.7 154.0 L 69.7 156.5 L 71.5 159.0 L 73.1 161.6 L 74.5 164.3 L 75.7 167.1 L 76.7 170.0 L 77.4 172.9 L 78.0 176.0 L 76.2 180.2 L 72.0 182.0 L 67.8 180.2 L 66.0 176.0 L 66.3 173.8 Z M 97.4 169.0 L 96.8 166.8 L 96.0 164.6 L 95.1 162.3 L 94.0 160.0 L 92.8 157.6 L 91.5 155.1 L 90.0 152.6 L 88.1 150.3 L 89.3 149.0 L 91.7 150.8 L 94.3 152.4 L 96.8 154.2 L 101.2 158.0 L 105.0 162.2 L 106.7 164.4 L 108.2 166.7 L 109.6 169.1 L 109.3 173.7 L 106.0 176.8 L 101.4 176.5 L 98.3 173.1 L 97.9 171.1 Z M 169.8 179.1 L 168.4 181.1 L 166.7 183.0 L 164.7 184.5 L 162.6 185.8 L 160.3 186.8 L 158.0 187.4 L 155.5 187.8 L 153.0 188.0 L 153.0 182.0 L 133.0 179.0 L 133.0 176.0 L 153.0 176.0 L 154.3 175.9 L 155.4 175.7 L 156.4 175.4 L 157.2 175.1 L 157.9 174.7 L 158.5 174.2 L 159.1 173.5 L 159.7 172.7 L 160.2 171.7 L 160.7 170.5 L 161.5 168.2 L 162.2 165.8 L 162.7 163.4 L 163.2 160.8 L 163.6 158.1 L 163.9 155.4 L 164.06745557785035 152.97189350128173 L 164.0 153.0 L 164.0 145.0 L 57.0 145.0 L 57.0 157.0 L 45.0 163.0 L 45.0 76.0 L 57.0 82.0 L 57.0 86.0 L 92.9777777671814 86.0 L 93.7 84.7 L 94.8 81.9 L 95.8 79.2 L 96.8 76.6 L 97.7 74.2 L 98.6 71.9 L 99.4 69.7 L 100.1 67.6 L 100.7 65.7 L 100.92247190475464 64.89910116195679 L 100.7 64.8 L 101.18058252334595 63.9699028968811 L 101.2 63.9 L 101.21595134735108 63.908811283111575 L 101.8 62.9 L 111.7 69.7 L 113.4 72.9 L 108.75169925689697 73.05756950378418 L 105.7 76.3 L 102.1 80.1 L 100.1 82.0 L 98.0 84.0 L 95.80952377319336 86.0 L 142.0 86.0 L 148.0 81.0 L 159.0 90.0 L 154.0 94.0 L 154.0 128.0 L 142.0 134.0 L 142.0 128.0 L 57.0 128.0 L 57.0 141.0 L 164.0 141.0 L 170.0 136.0 L 181.0 145.0 L 176.1 147.93999996185303 L 176.1 149.6 L 176.0 153.0 L 175.8 156.3 L 175.5 159.6 L 175.1 162.7 L 174.5 165.8 L 173.8 168.8 L 173.0 171.8 L 172.0 174.6 L 171.0 176.9 Z M 129.2 164.1 L 128.5 162.4 L 127.7 160.6 L 126.6 158.8 L 125.4 157.0 L 124.0 155.2 L 122.4 153.4 L 120.7 151.6 L 118.5 150.2 L 119.2 148.6 L 121.7 149.5 L 124.4 150.2 L 126.9 151.1 L 129.3 152.2 L 131.6 153.5 L 133.8 154.9 L 135.8 156.6 L 137.8 158.5 L 139.5 160.5 L 141.1 162.7 L 141.3 167.3 L 138.2 170.7 L 133.6 170.8 L 130.2 167.7 L 129.8 165.9 Z M 57.0 109.0 L 57.0 124.0 L 142.0 124.0 L 142.0 109.0 Z M 57.0 90.0 L 57.0 105.0 L 142.0 105.0 L 142.0 90.0 Z M 41.2 20.4 L 79.7 20.4 L 85.7 15.4 L 96.7 24.4 L 91.7 28.4 L 91.7 62.5 L 79.7 68.5 L 79.7 58.5 L 41.2 58.5 L 41.2 70.5 L 29.2 76.5 L 29.2 14.4 Z M 122.2 20.4 L 160.7 20.4 L 166.7 15.4 L 177.7 24.4 L 172.7 28.4 L 172.7 64.5 L 160.7 70.5 L 160.7 58.5 L 122.2 58.5 L 110.2 64.5 L 110.2 14.4 Z M 122.2 24.4 L 122.2 54.5 L 160.7 54.5 L 160.7 24.4 Z M 41.2 24.4 L 41.2 54.5 L 79.7 54.5 L 79.7 24.4 Z " />
</g>
</svg>
