<svg xmlns="http://www.w3.org/2000/svg" xmlns:xlink="http://www.w3.org/1999/xlink" version="1.1" baseProfile="full" viewBox="0 0 200 200" width="200" height="200">
<g fill="black">
<path d="M 162.0 118.0 L 90.0 118.0 L 90.0 131.0 L 162.0 131.0 Z M 128.1242938041687 142.82542371749878 L 127.8 146.3 L 126.9541353225708 150.52932329177855 L 127.9 153.2 L 129.8 157.5 L 130.47118644714357 158.62881355285646 L 135.3 153.8 L 137.0 152.2 L 138.6 150.6 L 140.1 149.0 L 141.5 147.5 L 142.9 145.9 L 143.49903039932252 145.20881109237672 L 143.4 145.1 L 144.2 144.4 L 151.5 154.0 L 151.7 157.6 L 147.45868263244628 155.87205591201783 L 147.4 155.9 L 145.3 156.7 L 143.1 157.6 L 138.5 159.2 L 136.1 159.9 L 133.6 160.6 L 131.84402980804444 160.93768653869628 L 132.0 161.2 L 134.6 164.4 L 137.6 167.1 L 140.9 169.5 L 144.6 171.4 L 148.9 173.1 L 153.6 174.4 L 161.5 176.8 L 149.8 187.1 L 144.0 184.6 L 138.8 181.7 L 134.3 178.2 L 130.4 174.2 L 127.2 169.8 L 124.8 165.0 L 123.55768594741821 160.96247930526732 L 121.3 165.4 L 117.7 170.5 L 113.3 174.8 L 108.3 178.3 L 102.7 181.0 L 96.6 182.8 L 89.9 183.8 L 89.5 182.0 L 95.3 179.3 L 100.3 176.2 L 104.5 173.0 L 108.0 169.4 L 110.9 165.4 L 113.1 161.1 L 114.8 156.3 L 115.9 151.1 L 116.5 145.2 L 116.5 136.4 L 128.5 138.8 L 131.5 140.8 Z M 92.8 165.2 L 92.7 160.6 L 95.8 157.3 L 96.8 157.3 L 97.7 157.2 L 98.6 157.0 L 99.6 156.6 L 100.6 155.9 L 101.6 154.8 L 102.5 153.5 L 103.4 151.9 L 104.2 150.0 L 104.3 147.8 L 106.1 147.7 L 106.3 150.0 L 106.9 152.2 L 107.2 154.4 L 107.2 156.6 L 107.0 158.8 L 106.4 160.9 L 105.5 163.0 L 104.2 165.0 L 102.6 166.7 L 100.7 168.3 L 96.1 168.3 Z M 29.2 41.7 L 49.8 41.7 L 55.8 36.7 L 66.8 45.7 L 61.8 49.7 L 61.8 140.2 L 49.8 146.2 L 49.8 134.2 L 29.2 134.2 L 29.2 146.2 L 17.2 152.2 L 17.2 35.7 Z M 29.2 45.7 L 29.2 130.2 L 49.8 130.2 L 49.8 45.7 Z M 111.0 62.0 L 110.90668745040894 62.03888025283813 L 110.9 62.4 L 110.9 67.3 L 110.8 71.8 L 110.7 75.9 L 110.6 79.5 L 110.4 82.7 L 110.2 85.5 L 110.0 87.9 L 109.7 90.0 L 109.3 91.8 L 108.5 94.3 L 107.5 96.6 L 106.2 98.7 L 104.6 100.6 L 102.7 102.3 L 100.7 103.7 L 98.4 104.7 L 96.0 105.4 L 93.5 105.8 L 91.0 106.0 L 91.0 100.0 L 79.0 97.0 L 79.0 94.0 L 91.0 94.0 L 92.3 93.9 L 93.3 93.7 L 94.2 93.5 L 94.9 93.1 L 95.4 92.8 L 95.9 92.3 L 96.4 91.7 L 96.9 91.0 L 97.3 90.0 L 97.7 88.7 L 97.9 88.0 L 98.1 86.6 L 98.3 84.6 L 98.4 82.0 L 98.6 79.0 L 98.7 75.5 L 98.8 71.6 L 98.9 67.2 L 98.9 62.3 L 98.96226415634155 59.0 L 91.63448276519776 59.0 L 90.8 63.4 L 89.4 69.0 L 87.6 74.4 L 85.5 79.5 L 83.1 84.4 L 80.3 89.1 L 77.2 93.5 L 73.7 97.6 L 69.9 101.3 L 65.6 104.6 L 64.3 103.3 L 66.9 98.8 L 69.4 94.4 L 71.6 90.0 L 73.6 85.5 L 75.3 81.0 L 76.8 76.3 L 78.0 71.5 L 78.9 66.6 L 79.6 61.5 L 79.76666669845581 59.0 L 71.0 59.0 L 71.0 55.0 L 99.0 55.0 L 105.0 50.0 L 113.17826089859008 56.69130430221558 L 113.1 56.3 L 112.6 54.3 L 111.4 50.3 L 110.7 48.3 L 109.9 46.2 L 109.2 44.1 L 107.9 42.3 L 109.3 41.1 L 110.9 42.7 L 112.9 43.9 L 116.5 46.9 L 118.2 48.5 L 119.8 50.3 L 121.3 52.1 L 122.8 54.0 L 124.2 56.0 L 125.5 58.0 L 125.3 62.6 L 124.19473686218262 63.67177038192749 L 127.59634141921997 64.29024391174316 L 127.7 64.0 L 128.8 61.2 L 131.8 53.1 L 132.7 50.4 L 133.5 47.8 L 134.3 45.1 L 134.74480962753296 43.447850131988524 L 134.6 43.4 L 134.98679246902466 42.54905662536621 L 135.0 42.5 L 135.00762367248535 42.50322799682617 L 135.6 41.2 L 146.1 47.2 L 148.0 50.3 L 143.81010723114014 50.81454820632935 L 141.1 54.8 L 139.3 57.2 L 137.4 59.6 L 135.4 61.9 L 133.3 64.1 L 132.01702127456664 65.38297872543335 L 134.2 67.0 L 131.5 68.72340421676635 L 131.5 102.2 L 120.5 107.7 L 120.5 65.73333330154419 L 117.5 65.6 L 114.3 62.3 L 113.89285717010497 60.26428575515747 Z M 171.5 97.3 L 169.5 93.3 L 167.8 89.0 L 167.00909090042114 86.5745454788208 L 165.3 87.6 L 162.4 89.7 L 159.5 91.6 L 156.6 93.4 L 153.6 95.2 L 150.7 96.9 L 147.8 98.5 L 144.8 100.1 L 142.90955629348755 101.14300336837769 L 141.9 105.3 L 139.0 103.2 L 132.9 92.7 L 134.8 92.0 L 137.9 91.2 L 143.5 89.8 L 143.5 52.5 L 152.53999996185303 57.019999980926514 L 154.1 56.0 L 156.8 54.4 L 159.3 52.8 L 164.3 49.8 L 166.7 48.3 L 169.0 46.8 L 171.3 45.4 L 172.68785047531128 44.45373830795288 L 172.6 44.3 L 172.73364925384521 44.42251186370849 L 173.5 43.9 L 174.50361442565918 46.04497995376587 L 182.2 53.1 L 182.3 56.4 L 178.53238735198974 54.820033359527585 L 175.9 55.6 L 167.5 57.7 L 164.6251009941101 58.29480667114258 L 166.3 62.3 L 168.4 67.5 L 170.5 72.4 L 172.6 76.9 L 174.7 80.9 L 176.9 84.6 L 179.1 87.9 L 181.3 90.9 L 183.5 93.4 L 185.8 95.5 L 186.8 96.6 L 176.1 104.4 L 173.7 101.0 Z M 161.6 58.9 L 158.6 59.4 L 155.5 59.9 L 154.5 59.99375 L 154.5 87.07878789901733 L 157.3 86.4 L 160.7 85.7 L 164.2 85.1 L 166.32450408935546 84.47514581680298 L 166.3 84.4 L 164.9 79.6 L 163.8 74.4 L 163.0 69.0 L 162.5 63.2 L 162.35407161712646 58.74918565750122 Z M 67.3 36.0 L 120.0 36.0 L 120.0 11.8 L 132.0 13.8 L 135.0 15.8 L 132.0 17.6 L 132.0 36.0 L 162.6 36.0 L 172.6 26.0 L 184.6 36.0 L 184.6 40.0 L 67.3 40.0 Z M 90.0 109.0 L 93.0 111.0 L 90.0 112.8 L 90.0 114.0 L 162.0 114.0 L 162.0 107.0 L 174.0 109.0 L 177.0 111.0 L 174.0 112.8 L 174.0 182.0 L 162.0 188.0 L 162.0 135.0 L 89.7 135.0 L 89.4 139.0 L 88.2 146.5 L 86.4 153.7 L 84.0 160.3 L 81.0 166.5 L 77.5 172.2 L 73.3 177.3 L 68.6 181.8 L 63.3 185.6 L 57.4 188.7 L 56.5 187.2 L 60.9 182.7 L 64.7 178.0 L 68.1 173.2 L 71.0 168.2 L 73.4 162.9 L 75.2 157.2 L 76.6 151.3 L 77.6 144.9 L 78.0 138.1 L 78.0 107.0 Z " />
</g>
</svg>
