<svg xmlns="http://www.w3.org/2000/svg" xmlns:xlink="http://www.w3.org/1999/xlink" version="1.1" baseProfile="full" viewBox="0 0 200 200" width="200" height="200">
<g fill="black">
<path d="M 34.0 23.0 L 34.0 167.0 L 161.8181818008423 167.0 L 170.0 158.0 L 180.0 167.0 L 180.0 171.0 L 34.0 171.0 L 34.0 183.0 L 22.0 189.0 L 22.0 17.0 Z M 62.6 95.2 L 91.7 95.2 L 97.2 90.2 L 107.7 99.2 L 102.7 102.7 L 102.7 149.3 L 91.7 154.8 L 91.7 147.3 L 62.6 147.3 L 62.6 150.3 L 50.6 156.3 L 50.6 89.2 Z M 123.2 95.2 L 152.3 95.2 L 158.3 90.2 L 169.3 99.2 L 164.3 103.2 L 164.3 149.3 L 152.3 155.3 L 152.3 147.3 L 123.2 147.3 L 123.2 150.3 L 112.2 155.8 L 112.2 89.7 Z M 123.2 99.2 L 123.2 143.3 L 152.3 143.3 L 152.3 99.2 Z M 62.6 99.2 L 62.6 143.3 L 91.7 143.3 L 91.7 99.2 Z M 81.8 32.6 L 132.4 32.6 L 138.4 27.6 L 149.4 36.6 L 144.4 40.6 L 144.4 81.5 L 132.4 87.5 L 132.4 79.5 L 81.8 79.5 L 81.8 82.5 L 69.8 88.5 L 69.8 26.6 Z M 81.8 36.6 L 81.8 75.5 L 132.4 75.5 L 132.4 36.6 Z " />
</g>
</svg>
