<svg xmlns="http://www.w3.org/2000/svg" xmlns:xlink="http://www.w3.org/1999/xlink" version="1.1" baseProfile="full" viewBox="0 0 200 200" width="200" height="200">
<g fill="black">
<path d="M 48.0 132.0 L 152.0 132.0 L 158.0 127.0 L 169.0 136.0 L 164.0 140.0 L 164.0 179.0 L 152.0 185.0 L 152.0 175.0 L 48.0 175.0 L 48.0 182.0 L 36.0 188.0 L 36.0 126.0 Z M 48.0 136.0 L 48.0 171.0 L 152.0 171.0 L 152.0 136.0 Z M 92.1 117.0 L 92.7 116.8 L 93.0 116.6 L 93.2 116.5 L 93.4 116.3 L 93.7 115.4 L 93.9 114.5 L 94.0 113.2 L 94.0 47.8 L 34.0 47.8 L 34.0 43.8 L 94.0 43.8 L 100.0 38.8 L 111.0 47.8 L 106.47853307723999 51.41717348098755 L 110.7 58.3 L 115.8 65.4 L 120.82237110137939 71.22953786849976 L 124.6 68.9 L 130.4 65.4 L 136.0 62.2 L 141.3 59.1 L 146.4 56.2 L 151.1 53.5 L 155.6 50.8 L 159.7 48.3 L 163.6 45.8 L 166.3119619369507 44.01785364151001 L 166.3 44.0 L 166.31551723480226 44.015517234802246 L 167.1 43.5 L 168.7673913002014 46.46739130020141 L 175.1 52.8 L 175.2 56.2 L 171.5199423789978 54.70302734375 L 169.0 55.9 L 164.7 57.8 L 160.1 59.8 L 155.3 61.8 L 150.1 63.9 L 144.6 66.0 L 138.8 68.1 L 132.7 70.3 L 126.2 72.3 L 122.80606718063355 73.28374862670898 L 127.7 78.1 L 134.8 83.8 L 142.6 89.1 L 151.2 94.0 L 160.6 98.5 L 170.9 102.6 L 182.0 106.3 L 189.5 108.7 L 177.9 118.8 L 166.3 114.2 L 155.5 109.2 L 145.7 103.6 L 136.8 97.5 L 128.8 91.0 L 121.8 84.0 L 115.8 76.5 L 110.8 68.6 L 107.0 60.2 L 106.0 56.68000001907349 L 106.0 113.2 L 105.8 115.8 L 105.4 118.3 L 104.6 120.7 L 103.3 123.0 L 101.7 125.0 L 99.7 126.6 L 97.4 127.9 L 95.0 128.7 L 92.5 129.1 L 89.9 129.2 L 89.95006246566773 123.19250936508179 L 70.0 120.2 L 70.0 117.2 L 91.2 117.2 Z M 82.0 68.5 L 77.0 71.5 L 75.00585651397705 72.3308931350708 L 73.8 75.2 L 70.1 81.8 L 65.5 87.9 L 60.3 93.6 L 54.3 98.9 L 47.5 103.7 L 40.1 108.1 L 31.9 112.1 L 22.9 115.5 L 13.3 118.4 L 12.6 116.7 L 21.4 112.0 L 29.4 107.3 L 36.6 102.5 L 43.0 97.6 L 48.6 92.5 L 53.5 87.3 L 57.5 81.9 L 60.8 76.3 L 63.4 70.7 L 64.07118644714356 68.5 L 16.0 68.5 L 16.0 64.5 L 65.0 64.5 L 71.0 59.5 Z M 108.1 33.9 L 104.4 31.8 L 100.3 29.7 L 95.7 27.6 L 90.8 25.6 L 85.4 23.6 L 79.6 21.6 L 73.4 19.4 L 66.8 17.2 L 67.1 15.4 L 74.1 15.7 L 80.8 16.3 L 87.0 17.2 L 92.9 18.3 L 98.4 19.6 L 103.6 21.0 L 108.4 22.6 L 112.9 24.4 L 117.1 26.3 L 120.9 28.4 L 123.3 32.3 L 122.4 36.8 L 118.5 39.2 L 114.1 38.2 L 111.3 36.1 Z " />
</g>
</svg>
