<svg xmlns="http://www.w3.org/2000/svg" xmlns:xlink="http://www.w3.org/1999/xlink" version="1.1" baseProfile="full" viewBox="0 0 200 200" width="200" height="200">
<g fill="black">
<path d="M 51.4 124.9 L 148.5 124.9 L 154.5 119.9 L 165.5 128.9 L 160.5 132.9 L 160.5 177.0 L 148.5 183.0 L 148.5 171.0 L 51.4 171.0 L 51.4 183.0 L 39.4 189.0 L 39.4 118.9 Z M 51.4 128.9 L 51.4 167.0 L 148.5 167.0 L 148.5 128.9 Z M 153.2 66.8 L 154.5 70.2 L 150.55282135009764 69.85972595214844 L 145.5 75.7 L 136.2 83.6 L 125.6 90.8 L 113.5 97.1 L 100.1 102.7 L 85.3 107.5 L 69.1 111.5 L 51.5 114.7 L 32.5 117.0 L 12.0 118.5 L 11.9 116.7 L 31.9 113.3 L 50.5 109.4 L 67.5 105.1 L 83.0 100.2 L 97.0 94.8 L 109.4 88.8 L 120.2 82.3 L 129.5 75.3 L 137.2 67.8 L 143.3061538696289 60.04615383148193 L 144.0 59.1 Z M 60.9 40.5 L 62.8 43.6 L 58.8865834236145 44.00483617782593 L 58.2 45.2 L 55.1 49.9 L 51.6 54.6 L 47.7 59.4 L 43.4 64.1 L 38.7 68.9 L 33.6 73.6 L 28.1 78.3 L 22.0 83.0 L 15.5 87.5 L 14.4 86.2 L 19.5 80.2 L 24.3 74.5 L 28.8 69.1 L 33.0 63.8 L 36.8 58.7 L 40.3 53.7 L 43.3 48.9 L 46.0 44.2 L 48.2 39.7 L 49.70199499130249 36.30074815750122 L 49.7 36.3 L 50.6 34.2 Z M 70.0 73.5 L 90.0 73.5 L 91.2 73.4 L 92.1 73.2 L 93.0 72.9 L 93.4 72.5 L 93.7 71.6 L 93.9 70.7 L 94.0 69.5 L 94.0 13.8 L 106.0 15.8 L 109.0 17.8 L 106.0 19.6 L 106.0 69.5 L 105.8 72.0 L 105.4 74.5 L 104.6 76.9 L 103.3 79.2 L 101.7 81.2 L 99.7 82.8 L 97.4 84.1 L 95.0 84.9 L 92.5 85.3 L 90.0 85.5 L 90.0 79.5 L 70.0 76.5 Z M 167.9 64.0 L 165.2 60.2 L 162.0 56.5 L 158.5 52.7 L 154.6 48.9 L 150.3 45.1 L 145.7 41.2 L 140.7 37.2 L 135.4 33.0 L 136.3 31.4 L 142.6 33.9 L 148.6 36.7 L 154.1 39.7 L 159.3 42.9 L 164.1 46.3 L 168.5 49.8 L 172.6 53.5 L 176.3 57.3 L 179.6 61.2 L 182.6 65.4 L 183.2 69.9 L 180.5 73.6 L 175.9 74.1 L 172.3 71.4 L 170.3 67.7 Z " />
</g>
</svg>
