<svg xmlns="http://www.w3.org/2000/svg" xmlns:xlink="http://www.w3.org/1999/xlink" version="1.1" baseProfile="full" viewBox="0 0 200 200" width="200" height="200">
<g fill="black">
<path d="M 20.5 172.5 L 26.6 172.1 L 33.2 171.6 L 36.1 171.39577465057374 L 36.1 118.2 L 44.0 119.51666669845581 L 44.0 91.190625 L 39.4 95.0 L 32.5 99.9 L 25.2 104.3 L 17.4 108.3 L 16.5 106.7 L 23.1 101.2 L 29.2 95.7 L 35.1 90.1 L 40.5 84.3 L 44.0 80.15714282989502 L 44.0 77.2 L 45.72857141494751 78.06428575515747 L 50.0 72.4 L 54.1 66.2 L 57.9 59.8 L 61.2 53.2 L 63.71410093307495 47.30486669540405 L 63.7 47.3 L 64.6 45.1 L 75.0 51.2 L 77.0 54.2 L 73.18814430236816 54.72577323913574 L 71.3 58.4 L 71.17826089859008 58.6 L 119.0 58.6 L 119.57073173522949 58.12439022064209 L 119.9 57.4 L 120.20674915313721 57.594375705718996 L 125.0 53.6 L 136.0 62.6 L 131.0 65.6 L 126.8072289466858 67.34698791503907 L 125.8 68.4 L 123.4 70.6 L 120.8 72.9 L 117.9 75.1 L 114.9 77.3 L 111.6 79.5 L 108.1 81.6 L 105.20476188659669 83.2 L 153.0 83.2 L 159.0 78.2 L 170.0 87.2 L 165.0 91.2 L 165.0 116.3 L 153.0 122.3 L 153.0 114.3 L 56.0 114.3 L 45.175 119.7125 L 48.1 120.2 L 51.1 122.2 L 48.1 124.0 L 48.1 140.3 L 76.1 140.3 L 86.1 130.3 L 98.1 140.3 L 98.1 144.3 L 48.1 144.3 L 48.1 170.47341775894165 L 55.7 169.8 L 64.2 169.1 L 73.1 168.4 L 82.5 167.6 L 92.4 167.0 L 102.7 166.5 L 103.0 168.3 L 92.9 170.8 L 83.2 172.9 L 74.0 174.9 L 65.2 176.6 L 56.9 178.2 L 49.0 179.7 L 41.5 181.0 L 34.5 182.3 L 28.0 183.4 L 25.98942365646362 183.72960271835328 L 24.2 187.2 L 21.9 184.4 L 18.5 172.7 Z M 177.0 146.4 L 179.0 146.4 L 177.0 171.4 L 180.6 173.8 L 183.0 177.4 L 180.6 181.0 L 177.0 183.4 L 126.2 183.4 L 123.6 183.3 L 121.1 182.8 L 118.7 182.0 L 116.4 180.8 L 114.4 179.2 L 112.8 177.1 L 111.5 174.9 L 110.7 172.5 L 110.3 170.0 L 110.2 167.4 L 110.2 118.2 L 122.2 120.2 L 125.2 122.2 L 122.2 124.0 L 122.2 145.2380952835083 L 122.3 145.2 L 128.5 143.1 L 134.5 141.1 L 140.4 139.3 L 146.0 137.5 L 151.5 135.7 L 156.8 134.0 L 161.9 132.4 L 166.8 130.7 L 170.60210599899293 129.40566606521605 L 170.6 129.4 L 170.6054172515869 129.40453882217406 L 171.5 129.1 L 171.89369840621947 130.48390941619874 L 181.7 138.7 L 182.0 141.7 L 177.8675166130066 139.81086473464967 L 174.8 140.7 L 169.8 141.7 L 164.6 142.7 L 159.3 143.8 L 153.7 144.8 L 148.0 145.7 L 142.1 146.7 L 136.0 147.6 L 129.6 148.3 L 123.1 149.0 L 122.2 149.0529411315918 L 122.2 168.6 L 122.4 169.6 L 122.6 170.1 L 122.7 170.5 L 122.9 170.7 L 123.1 170.8 L 123.4 171.0 L 124.0 171.2 L 124.9 171.3 L 126.2 171.4 L 171.0 171.4 Z M 56.0 87.2 L 56.0 110.3 L 153.0 110.3 L 153.0 87.2 Z M 68.74347829818726 62.6 L 67.1 65.3 L 62.4 71.9 L 57.3 78.2 L 53.707514476776126 82.05375719070435 L 56.0 83.2 L 100.7 83.2 L 102.5 81.4 L 105.3 78.2 L 107.9 75.2 L 110.3 72.3 L 112.5 69.5 L 114.4 66.9 L 116.1 64.3 L 117.1625 62.6 Z M 164.5 51.3 L 156.5 47.8 L 149.2 43.9 L 142.6 39.7 L 136.8 35.2 L 131.7 30.4 L 127.4 25.2 L 124.0 19.6 L 121.7 13.8 L 123.2 12.9 L 127.4 17.2 L 131.7 21.2 L 136.5 25.0 L 141.7 28.5 L 147.5 31.8 L 153.9 34.8 L 160.8 37.6 L 168.4 40.1 L 176.7 42.4 L 185.5 44.5 L 194.1 46.6 L 182.4 57.3 L 173.1 54.4 Z M 79.3 18.6 L 81.5 21.4 L 77.39685392379761 22.335805225372315 L 76.6 23.9 L 72.9 28.7 L 68.3 33.1 L 62.8 37.0 L 56.5 40.6 L 49.4 43.9 L 41.4 46.9 L 32.6 49.6 L 22.8 51.9 L 12.2 53.8 L 11.7 52.1 L 21.7 48.3 L 30.8 44.6 L 38.9 40.9 L 46.1 37.1 L 52.2 33.3 L 57.3 29.5 L 61.4 25.7 L 64.5 21.9 L 66.7 18.2 L 67.9 14.7 L 67.95342082977295 14.718275547027588 L 68.5 13.2 Z " />
</g>
</svg>
