<svg xmlns="http://www.w3.org/2000/svg" xmlns:xlink="http://www.w3.org/1999/xlink" version="1.1" baseProfile="full" viewBox="0 0 200 200" width="200" height="200">
<g fill="black">
<path d="M 155.4 178.8 L 147.4 174.6 L 139.8 170.3 L 132.7 165.7 L 126.1 160.9 L 119.9 155.9 L 114.3 150.7 L 109.3 145.1 L 106.0 140.57209300994873 L 106.0 183.0 L 94.0 189.0 L 94.0 147.2140625 L 93.1 148.1 L 86.4 154.0 L 79.1 159.5 L 71.5 164.6 L 63.4 169.2 L 54.8 173.4 L 45.8 177.2 L 36.4 180.5 L 26.5 183.2 L 16.2 185.4 L 15.7 183.7 L 25.3 179.6 L 34.5 175.5 L 43.1 171.2 L 51.3 166.7 L 59.0 161.9 L 66.3 156.9 L 73.0 151.5 L 79.3 145.9 L 85.1 140.0 L 85.26363639831543 139.8 L 55.0 139.8 L 55.0 151.8 L 43.0 157.8 L 43.0 88.9 L 55.0 94.9 L 94.0 94.9 L 94.0 83.6 L 20.0 83.6 L 20.0 79.6 L 94.0 79.6 L 94.0 60.2 L 106.0 62.2 L 109.0 64.2 L 106.0 66.0 L 106.0 79.6 L 165.7777777671814 79.6 L 172.0 72.6 L 180.0 79.6 L 180.0 83.6 L 106.0 83.6 L 106.0 94.9 L 145.0 94.9 L 151.0 89.9 L 162.0 98.9 L 157.0 102.9 L 157.0 145.8 L 145.0 151.8 L 145.0 139.8 L 108.98780488967896 139.8 L 112.1 142.0 L 118.1 146.1 L 124.2 150.1 L 130.7 154.0 L 137.5 157.7 L 144.7 161.3 L 152.2 164.7 L 160.2 168.0 L 168.5 171.0 L 177.2 173.9 L 184.3 176.5 L 172.7 186.4 L 163.9 182.7 Z M 55.0 119.4 L 55.0 135.8 L 94.0 135.8 L 94.0 119.4 Z M 106.0 119.4 L 106.0 135.8 L 145.0 135.8 L 145.0 119.4 Z M 55.0 98.9 L 55.0 115.4 L 94.0 115.4 L 94.0 98.9 Z M 106.0 98.9 L 106.0 115.4 L 145.0 115.4 L 145.0 98.9 Z M 47.1 24.2 L 76.8 24.2 L 82.8 19.2 L 93.8 28.2 L 88.8 32.2 L 88.8 63.7 L 76.8 69.7 L 76.8 61.7 L 47.1 61.7 L 47.1 64.7 L 35.1 70.7 L 35.1 18.2 Z M 123.1 24.2 L 152.8 24.2 L 158.8 19.2 L 169.8 28.2 L 164.8 32.2 L 164.8 63.7 L 152.8 69.7 L 152.8 61.7 L 123.1 61.7 L 123.1 64.7 L 111.1 70.7 L 111.1 18.2 Z M 123.1 28.2 L 123.1 57.7 L 152.8 57.7 L 152.8 28.2 Z M 47.1 28.2 L 47.1 57.7 L 76.8 57.7 L 76.8 28.2 Z " />
</g>
</svg>
