<svg xmlns="http://www.w3.org/2000/svg" xmlns:xlink="http://www.w3.org/1999/xlink" version="1.1" baseProfile="full" viewBox="0 0 200 200" width="200" height="200">
<g fill="black">
<path d="M 173.6 174.3 L 176.0 177.9 L 173.6 181.5 L 170.0 183.9 L 54.0 183.9 L 51.4 183.8 L 48.9 183.4 L 46.5 182.6 L 44.2 181.3 L 42.2 179.7 L 40.6 177.7 L 39.3 175.4 L 38.5 173.0 L 38.1 170.5 L 38.0 167.9 L 38.0 140.6 L 14.0 140.6 L 14.0 136.6 L 94.0 136.6 L 94.0 124.9 L 106.0 126.9 L 109.0 128.9 L 106.0 130.7 L 106.0 136.6 L 167.8181818008423 136.6 L 176.0 127.6 L 186.0 136.6 L 186.0 140.6 L 50.0 140.6 L 50.0 169.2 L 50.2 170.1 L 50.5 171.0 L 50.9 171.4 L 51.8 171.7 L 52.7 171.9 L 170.0 171.9 Z M 180.0 69.7 L 182.0 69.7 L 180.0 78.7 L 182.4 80.3 L 184.0 82.7 L 182.4 85.1 L 180.0 86.7 L 168.4888889312744 86.7 L 179.0 95.3 L 174.0 99.3 L 174.0 120.2 L 162.0 126.2 L 162.0 118.2 L 122.0 118.2 L 122.0 121.2 L 110.0 127.2 L 110.0 85.3 L 122.0 91.3 L 162.0 91.3 L 167.5199999809265 86.7 L 139.6 86.7 L 137.3 86.5 L 135.0 86.0 L 132.9 85.0 L 130.9 83.7 L 129.2 81.9 L 127.9 79.9 L 126.9 77.6 L 126.3 75.2 L 126.0 72.7 L 126.0 60.8 L 85.26440677642822 60.8 L 84.6 63.6 L 81.5 68.7 L 77.0 72.8 L 71.3 76.2 L 64.5 79.0 L 56.6 81.3 L 47.4 83.2 L 36.9 84.7 L 26.55362319946289 85.57681159973144 L 38.0 91.3 L 78.0 91.3 L 84.0 86.3 L 95.0 95.3 L 90.0 99.3 L 90.0 120.2 L 78.0 126.2 L 78.0 118.2 L 38.0 118.2 L 38.0 121.2 L 26.0 127.2 L 26.0 85.62372884750366 L 25.1 85.7 L 12.0 86.2 L 11.9 84.5 L 24.6 82.0 L 36.0 79.4 L 45.9 76.8 L 54.4 74.1 L 61.4 71.1 L 66.8 68.1 L 70.7 65.1 L 72.9 62.3 L 73.5 60.8 L 25.0 60.8 L 25.0 56.8 L 74.0 56.8 L 74.0 46.6 L 78.0 47.26666669845581 L 78.0 42.8 L 38.0 42.8 L 26.0 48.8 L 26.0 12.5 L 38.0 18.5 L 78.0 18.5 L 84.0 13.5 L 95.0 22.5 L 90.0 26.5 L 90.0 42.8 L 80.3 47.65 L 86.0 48.6 L 89.0 50.6 L 86.0 52.4 L 86.0 56.8 L 126.0 56.8 L 132.0 51.8 L 143.0 60.8 L 138.0 64.8 L 138.0 72.7 L 137.8 73.9 L 137.8 75.6 L 137.9 76.2 L 138.0 76.6 L 138.2 77.1 L 138.7 77.5 L 139.4 78.0 L 140.5 78.4 L 142.0 78.7 L 176.0 78.7 Z M 122.0 95.3 L 122.0 114.2 L 162.0 114.2 L 162.0 95.3 Z M 38.0 95.3 L 38.0 114.2 L 78.0 114.2 L 78.0 95.3 Z M 122.0 18.5 L 162.0 18.5 L 168.0 13.5 L 179.0 22.5 L 174.0 26.5 L 174.0 44.8 L 162.0 50.8 L 162.0 42.8 L 122.0 42.8 L 110.0 48.8 L 110.0 12.5 Z M 122.0 22.5 L 122.0 38.8 L 162.0 38.8 L 162.0 22.5 Z M 38.0 22.5 L 38.0 38.8 L 78.0 38.8 L 78.0 22.5 Z " />
</g>
</svg>
