<svg xmlns="http://www.w3.org/2000/svg" xmlns:xlink="http://www.w3.org/1999/xlink" version="1.1" baseProfile="full" viewBox="0 0 200 200" width="200" height="200">
<g fill="black">
<path d="M 91.7 89.0 L 92.6 92.5 L 89.16204729080201 91.83653545379639 L 88.3 92.8 L 85.5 95.6 L 166.8181818008423 95.6 L 175.0 86.6 L 185.0 95.6 L 185.0 99.6 L 141.7714285850525 99.6 L 141.2 100.4 L 135.9 107.6 L 129.0 113.8 L 124.20761632919312 116.82376585006713 L 127.7 117.3 L 138.3 119.0 L 148.7 120.8 L 158.8 122.7 L 168.5 124.8 L 172.1 127.5 L 172.9 132.1 L 170.1 135.7 L 165.6 136.4 L 156.2 133.8 L 146.4 131.2 L 136.4 128.8 L 126.0 126.4 L 115.3 124.1 L 111.33074026107788 123.31329984664917 L 110.7 123.6 L 99.5 127.3 L 86.8 130.3 L 72.6 132.6 L 56.9 134.2 L 39.7 135.0 L 37.6 135.0 L 48.0 140.2 L 152.0 140.2 L 158.0 135.2 L 169.0 144.2 L 164.0 148.2 L 164.0 170.3 L 170.0 174.3 L 170.0 178.3 L 48.0 178.3 L 48.0 181.3 L 36.0 187.3 L 36.0 135.0 L 21.0 135.0 L 20.9 133.2 L 39.4 131.2 L 56.3 128.9 L 71.5 126.2 L 85.0 123.0 L 94.56865711212158 120.02487134933472 L 92.9 119.7 L 81.2 117.5 L 69.2 115.3 L 63.48365383148193 114.18461542129516 L 60.3 116.5 L 55.8 119.6 L 51.1 122.6 L 44.8 112.4 L 49.2 109.6 L 53.4 106.7 L 57.6 103.7 L 61.6 100.7 L 62.940625 99.6 L 15.0 99.6 L 15.0 95.6 L 67.76774196624756 95.6 L 69.2 94.4 L 72.8 91.1 L 76.3 87.8 L 79.6 84.4 L 81.2 82.7 L 53.7 82.7 L 41.7 88.7 L 41.7 58.3 L 53.7 64.3 L 94.0 64.3 L 94.0 53.8 L 58.5 53.8 L 46.5 59.8 L 46.5 39.4 L 18.3 39.4 L 18.3 35.4 L 46.5 35.4 L 46.5 15.0 L 58.5 21.0 L 94.0 21.0 L 94.0 11.7 L 106.0 13.7 L 109.0 15.7 L 106.0 17.5 L 106.0 21.0 L 141.5 21.0 L 147.5 16.0 L 158.5 25.0 L 153.5 29.0 L 153.5 35.4 L 167.4777777671814 35.4 L 173.7 28.4 L 181.7 35.4 L 181.7 39.4 L 153.5 39.4 L 153.5 53.8 L 141.5 59.8 L 141.5 53.8 L 106.0 53.8 L 106.0 64.3 L 146.2 64.3 L 152.2 59.3 L 163.2 68.3 L 158.2 72.3 L 158.2 82.7 L 146.2 88.7 L 146.2 82.7 L 85.325 82.7 Z M 48.0 144.2 L 48.0 174.3 L 152.0 174.3 L 152.0 144.2 Z M 81.317142868042 99.6 L 81.0 99.9 L 77.1 103.4 L 73.1 106.8 L 69.0 110.1 L 67.19567413330078 111.44275417327881 L 69.6 111.5 L 81.8 112.2 L 93.8 113.2 L 105.4 114.4 L 107.82877311706542 114.70090990066528 L 115.5 110.5 L 122.2 105.5 L 127.2 100.2 L 127.5692307472229 99.6 Z M 53.7 68.3 L 53.7 78.7 L 94.0 78.7 L 94.0 68.3 Z M 106.0 68.3 L 106.0 78.7 L 146.2 78.7 L 146.2 68.3 Z M 58.5 39.4 L 58.5 49.8 L 94.0 49.8 L 94.0 39.4 Z M 106.0 39.4 L 106.0 49.8 L 141.5 49.8 L 141.5 39.4 Z M 58.5 25.0 L 58.5 35.4 L 94.0 35.4 L 94.0 25.0 Z M 106.0 25.0 L 106.0 35.4 L 141.5 35.4 L 141.5 25.0 Z " />
</g>
</svg>
