<svg xmlns="http://www.w3.org/2000/svg" xmlns:xlink="http://www.w3.org/1999/xlink" version="1.1" baseProfile="full" viewBox="0 0 200 200" width="200" height="200">
<g fill="black">
<path d="M 48.0 132.5 L 152.0 132.5 L 158.0 127.5 L 169.0 136.5 L 164.0 140.5 L 164.0 179.4 L 152.0 185.4 L 152.0 175.4 L 48.0 175.4 L 48.0 182.4 L 36.0 188.4 L 36.0 126.5 Z M 48.0 136.5 L 48.0 171.4 L 152.0 171.4 L 152.0 136.5 Z M 159.0 96.2 L 150.7 90.7 L 142.8 84.8 L 135.4 78.7 L 128.6 72.3 L 122.2 65.6 L 116.4 58.6 L 111.2 51.3 L 107.2 44.3 L 106.0 44.3 L 106.0 94.0 L 124.0 94.0 L 134.0 84.0 L 146.0 94.0 L 146.0 98.0 L 106.0 98.0 L 106.0 121.8 L 94.0 127.8 L 94.0 98.0 L 54.0 98.0 L 54.0 94.0 L 94.0 94.0 L 94.0 51.094915294647215 L 92.1 53.8 L 85.6 61.7 L 78.6 69.1 L 71.0 76.1 L 62.9 82.7 L 54.3 88.8 L 45.1 94.4 L 35.4 99.5 L 25.1 104.0 L 14.3 107.9 L 13.6 106.3 L 23.4 100.6 L 32.8 94.8 L 41.6 88.9 L 49.8 82.6 L 57.5 76.1 L 64.7 69.3 L 71.3 62.3 L 77.3 54.8 L 82.9 47.1 L 84.65 44.3 L 18.0 44.3 L 18.0 40.3 L 94.0 40.3 L 94.0 11.8 L 106.0 13.8 L 109.0 15.8 L 106.0 17.6 L 106.0 40.3 L 160.0 40.3 L 170.0 30.3 L 182.0 40.3 L 182.0 44.3 L 110.1 44.3 L 114.5 48.7 L 120.7 54.6 L 127.3 60.4 L 134.1 66.0 L 141.2 71.4 L 148.8 76.5 L 156.7 81.4 L 165.0 86.0 L 173.7 90.4 L 182.8 94.6 L 188.5 97.3 L 177.1 106.5 L 167.9 101.5 Z " />
</g>
</svg>
