<svg xmlns="http://www.w3.org/2000/svg" xmlns:xlink="http://www.w3.org/1999/xlink" version="1.1" baseProfile="full" viewBox="0 0 200 200" width="200" height="200">
<g fill="black">
<path d="M 48.0 133.9 L 152.0 133.9 L 158.0 128.9 L 169.0 137.9 L 164.0 141.9 L 164.0 179.8 L 152.0 185.8 L 152.0 175.8 L 48.0 175.8 L 48.0 182.8 L 36.0 188.8 L 36.0 127.9 Z M 48.0 137.9 L 48.0 171.8 L 152.0 171.8 L 152.0 137.9 Z M 17.5 118.9 L 24.7 117.4 L 32.1 115.9 L 39.0 114.64545450210571 L 39.0 70.0 L 51.0 72.0 L 54.0 74.0 L 51.0 75.8 L 51.0 89.0 L 73.0 89.0 L 83.0 79.0 L 95.0 89.0 L 95.0 93.0 L 51.0 93.0 L 51.0 112.370370388031 L 55.7 111.5 L 64.1 110.1 L 72.6 108.6 L 81.4 107.3 L 90.5 106.1 L 99.8 105.1 L 100.1 106.8 L 91.3 109.8 L 82.6 112.5 L 74.1 115.0 L 65.8 117.5 L 57.6 119.8 L 49.8 122.0 L 42.1 124.2 L 34.6 126.4 L 27.4 128.5 L 24.33215961456299 129.37652578353882 L 23.0 133.0 L 20.4 130.5 L 15.5 119.4 Z M 124.5 121.9 L 122.1 121.6 L 119.8 120.9 L 117.6 119.8 L 115.6 118.3 L 113.9 116.5 L 112.6 114.3 L 111.7 112.0 L 111.2 109.5 L 111.0 107.0 L 111.0 70.0 L 123.0 72.0 L 126.0 74.0 L 123.0 75.8 L 123.0 93.0425926208496 L 127.9 91.5 L 132.9 89.9 L 137.7 88.4 L 142.1 87.0 L 146.2 85.6 L 149.9 84.3 L 153.3 83.0 L 156.4 81.8 L 158.2356360435486 80.98416175842286 L 158.2 80.9 L 158.27674980163573 80.96588897705078 L 159.1 80.6 L 159.60088109970093 82.10264320373535 L 168.8 90.0 L 169.1 93.1 L 164.99610223770142 91.28945684432983 L 162.9 92.0 L 159.7 92.6 L 156.2 93.3 L 152.4 93.9 L 148.3 94.5 L 143.8 95.1 L 139.1 95.6 L 134.1 96.1 L 128.8 96.4 L 123.1 96.7 L 123.0 96.70166664123535 L 123.0 107.0 L 122.9 108.2 L 123.0 109.1 L 123.1 109.8 L 123.3 110.6 L 123.5 110.9 L 123.9 111.2 L 124.6 111.5 L 125.6 111.8 L 127.0 112.0 L 170.0 112.0 L 175.0 95.0 L 177.0 95.0 L 175.0 112.0 L 178.0 114.0 L 180.0 117.0 L 178.0 120.0 L 175.0 122.0 L 127.0 122.0 Z M 36.0 70.0 L 24.0 76.0 L 24.0 37.0 L 36.0 39.0 L 68.0 39.0 L 68.0 27.0 L 22.0 27.0 L 22.0 23.0 L 60.0 23.0 L 70.0 13.0 L 82.0 23.0 L 82.0 27.0 L 80.0 27.0 L 80.0 39.0 L 117.0 39.0 L 117.0 27.0 L 89.0 27.0 L 89.0 23.0 L 112.81818180084228 23.0 L 121.0 14.0 L 131.0 23.0 L 131.0 27.0 L 129.0 27.0 L 129.0 39.0 L 154.0 39.0 L 160.0 34.0 L 171.0 43.0 L 166.0 47.0 L 166.0 68.0 L 154.0 74.0 L 154.0 66.0 L 36.0 66.0 Z M 36.0 43.0 L 36.0 62.0 L 68.0 62.0 L 68.0 43.0 Z M 80.0 43.0 L 80.0 62.0 L 117.0 62.0 L 117.0 43.0 Z M 129.0 43.0 L 129.0 62.0 L 154.0 62.0 L 154.0 43.0 Z " />
</g>
</svg>
