<svg xmlns="http://www.w3.org/2000/svg" xmlns:xlink="http://www.w3.org/1999/xlink" version="1.1" baseProfile="full" viewBox="0 0 200 200" width="200" height="200">
<g fill="black">
<path d="M 150.9 184.9 L 148.8 185.9 L 146.6 186.8 L 144.4 187.5 L 142.2 188.1 L 139.9 188.5 L 137.5 188.7 L 135.2 188.8 L 135.2 182.8 L 115.2 179.8 L 115.2 176.8 L 136.7 176.8 L 139.7 176.4 L 142.5 175.6 L 145.1 174.4 L 146.4 173.6 L 147.6 172.7 L 148.8 171.7 L 151.0 169.4 L 153.2 165.5 L 155.4 160.1 L 157.3 153.2 L 159.0 144.9 L 160.5 135.2 L 161.6 124.1 L 162.4 111.7 L 162.9 97.9 L 162.98675498962402 84.8 L 57.05342464447021 84.8 L 56.7 85.4 L 52.0 92.5 L 46.8 99.4 L 41.2 106.1 L 35.1 112.7 L 28.6 119.0 L 21.5 125.1 L 14.0 130.9 L 12.8 129.6 L 18.9 122.4 L 24.7 115.4 L 30.2 108.4 L 35.2 101.4 L 39.9 94.4 L 44.2 87.4 L 48.0 80.4 L 51.4 73.3 L 54.5 66.2 L 56.76801300048828 59.919348526000974 L 56.7 59.9 L 57.24782609939575 58.5 L 12.0 58.5 L 12.0 54.5 L 114.71063833236694 54.5 L 117.4 46.6 L 119.0 42.1 L 120.7 37.7 L 122.4 33.4 L 124.0 29.2 L 125.6 25.1 L 127.1 21.0 L 128.6 17.0 L 129.74739360809326 14.01677646636963 L 129.7 14.0 L 130.6 11.8 L 141.0 18.0 L 142.9 21.0 L 139.03236618041993 21.466783428192137 L 138.9 21.7 L 136.8 25.5 L 132.2 33.3 L 129.8 37.2 L 127.3 41.1 L 124.6 45.1 L 121.9 49.0 L 118.9 53.0 L 117.6692307472229 54.5 L 166.0 54.5 L 176.0 44.5 L 188.0 54.5 L 188.0 58.5 L 59.31964282989502 58.5 L 68.3 63.2 L 70.4 66.2 L 66.67020645141602 66.84306783676148 L 64.9 70.8 L 61.0 78.1 L 59.409589004516604 80.8 L 163.0 80.8 L 169.0 75.8 L 180.0 84.8 L 175.0 87.8 L 174.96744441986084 87.8135648727417 L 174.9 98.2 L 174.4 112.3 L 173.5 125.1 L 172.4 136.7 L 170.9 147.0 L 169.0 156.1 L 166.7 164.0 L 164.0 170.7 L 160.7 176.4 L 156.7 180.9 L 152.9 183.7 Z M 67.9 106.3 L 113.5 106.3 L 119.5 101.3 L 130.5 110.3 L 125.5 114.3 L 125.5 157.3 L 113.5 163.3 L 113.5 151.3 L 67.9 151.3 L 67.9 163.3 L 55.9 169.3 L 55.9 100.3 Z M 67.9 110.3 L 67.9 147.3 L 113.5 147.3 L 113.5 110.3 Z M 67.4 40.0 L 66.3 36.8 L 64.9 33.6 L 63.4 30.4 L 61.7 27.2 L 59.8 24.0 L 57.7 20.7 L 55.6 17.3 L 53.1 14.1 L 54.3 12.8 L 61.1 17.6 L 64.2 20.2 L 67.2 23.0 L 69.9 25.9 L 72.4 29.0 L 74.8 32.2 L 76.9 35.5 L 78.9 39.0 L 80.6 42.5 L 80.3 47.1 L 76.9 50.2 L 72.4 49.9 L 69.3 46.5 L 68.5 43.3 Z " />
</g>
</svg>
