<svg xmlns="http://www.w3.org/2000/svg" xmlns:xlink="http://www.w3.org/1999/xlink" version="1.1" baseProfile="full" viewBox="0 0 200 200" width="200" height="200">
<g fill="black">
<path d="M 36.0 26.0 L 165.0 26.0 L 171.0 21.0 L 182.0 30.0 L 177.0 34.0 L 177.0 179.0 L 165.0 185.0 L 165.0 175.0 L 36.0 175.0 L 36.0 182.0 L 24.0 188.0 L 24.0 20.0 Z M 36.0 30.0 L 36.0 171.0 L 165.0 171.0 L 165.0 30.0 Z M 54.1 111.2 L 57.9 107.6 L 61.9 104.3 L 66.0 101.2 L 70.3 98.3 L 74.8 95.7 L 79.4 93.4 L 84.2 91.3 L 89.2 89.5 L 94.3 88.1 L 98.0 87.40188674926758 L 98.0 40.0 L 110.0 42.0 L 113.0 44.0 L 110.0 45.8 L 110.0 153.0 L 98.0 159.0 L 98.0 90.23111114501953 L 95.8 91.6 L 91.4 94.3 L 87.3 97.1 L 83.3 99.9 L 79.4 102.8 L 75.8 105.8 L 72.4 109.0 L 69.1 112.2 L 66.0 115.7 L 65.74924812316894 116.0026315689087 L 66.7 119.7 L 63.1 119.2 L 52.8 112.7 Z " />
</g>
</svg>
