<svg xmlns="http://www.w3.org/2000/svg" xmlns:xlink="http://www.w3.org/1999/xlink" version="1.1" baseProfile="full" viewBox="0 0 200 200" width="200" height="200">
<g fill="black">
<path d="M 36.0 26.0 L 165.5 26.0 L 171.0 21.0 L 181.5 30.0 L 176.5 33.5 L 176.5 179.0 L 165.5 184.5 L 165.5 175.0 L 36.0 175.0 L 36.0 182.0 L 24.0 188.0 L 24.0 20.0 Z M 36.0 30.0 L 36.0 171.0 L 165.5 171.0 L 165.5 30.0 Z M 137.5 41.7 L 140.5 43.7 L 137.5 45.5 L 137.5 71.1 L 140.3181818008423 71.1 L 148.5 62.1 L 158.5 71.1 L 158.5 75.1 L 137.5 75.1 L 137.5 107.1 L 142.3 107.1 L 147.8 102.1 L 158.3 111.1 L 153.3 114.6 L 153.3 157.2 L 142.3 162.7 L 142.3 155.2 L 121.1 155.2 L 121.1 158.2 L 109.1 164.2 L 109.1 101.1 L 121.1 107.1 L 125.5 107.1 L 125.5 75.1 L 104.4 75.1 L 104.4 71.1 L 125.5 71.1 L 125.5 39.7 Z M 78.7 40.0 L 81.7 42.0 L 78.7 43.8 L 78.7 61.57619047164917 L 79.1 61.3 L 83.1 58.2 L 86.8 55.1 L 89.61771373748779 52.517095756530765 L 89.6 52.5 L 90.5 51.6 L 98.2 60.8 L 98.7 64.4 L 95.01012659072876 63.19240503311157 L 93.8 64.1 L 89.2 67.1 L 84.4 69.8 L 79.4 72.3 L 78.7 72.60961542129516 L 78.7 89.0666666984558 L 79.4 88.6 L 83.3 85.7 L 87.0 82.7 L 89.62743711471558 80.2271180152893 L 89.6 80.2 L 90.5 79.4 L 98.2 88.7 L 98.6 92.3 L 94.90303030014039 91.02286500930786 L 93.8 91.8 L 89.3 94.6 L 84.6 97.2 L 79.6 99.6 L 78.7 99.9634614944458 L 78.7 118.425 L 82.2 116.3 L 87.8 112.7 L 93.2 108.9 L 98.4 104.9 L 105.5 114.6 L 105.6 118.2 L 102.1083646774292 116.71282196044922 L 99.4 118.4 L 93.3 121.9 L 87.0 125.1 L 80.6 128.0 L 78.7 128.76000003814698 L 78.7 156.9 L 66.7 162.9 L 66.7 133.02686567306517 L 60.8 134.7 L 54.0 136.2 L 47.0 137.3 L 39.9 137.9 L 39.6 136.1 L 46.1 133.6 L 52.5 131.1 L 58.7 128.5 L 64.8 125.8 L 66.7 124.83389825820923 L 66.7 104.28571424484252 L 63.5 105.2 L 57.7 106.5 L 51.8 107.4 L 45.6 108.0 L 45.1 106.2 L 50.8 103.8 L 56.1 101.4 L 61.3 99.0 L 66.2 96.6 L 66.7 96.31739130020142 L 66.7 77.24285717010498 L 63.1 78.4 L 57.2 79.8 L 51.2 80.9 L 44.9 81.6 L 44.4 79.8 L 50.1 77.2 L 55.5 74.7 L 60.7 72.2 L 65.7 69.6 L 66.7 69.04680852890014 L 66.7 38.0 Z M 121.1 151.2 L 142.3 151.2 L 142.3 111.1 L 121.1 111.1 Z " />
</g>
</svg>
