<svg xmlns="http://www.w3.org/2000/svg" xmlns:xlink="http://www.w3.org/1999/xlink" version="1.1" baseProfile="full" viewBox="0 0 200 200" width="200" height="200">
<g fill="black">
<path d="M 37.0 26.8 L 166.0 26.8 L 172.0 21.8 L 183.0 30.8 L 178.0 34.8 L 178.0 179.1 L 166.0 185.1 L 166.0 175.1 L 37.0 175.1 L 37.0 182.1 L 25.0 188.1 L 25.0 20.8 Z M 37.0 30.8 L 37.0 171.1 L 166.0 171.1 L 166.0 30.8 Z M 61.6 48.6 L 95.5 48.6 L 95.5 31.0 L 107.5 33.0 L 110.5 35.0 L 107.5 36.8 L 107.5 48.6 L 139.3181818008423 48.6 L 147.5 39.6 L 157.5 48.6 L 157.5 52.6 L 61.6 52.6 L 61.6 68.0 L 78.6 68.0 L 78.6 55.8 L 90.6 57.8 L 93.6 59.8 L 90.6 61.6 L 90.6 68.0 L 107.6 68.0 L 107.6 55.8 L 119.6 57.8 L 122.6 59.8 L 119.6 61.6 L 119.6 68.0 L 136.6 68.0 L 142.6 63.0 L 153.6 72.0 L 148.6 76.0 L 148.6 93.7 L 136.6 99.7 L 136.6 93.7 L 90.95191259384156 93.7 L 88.01693992614746 106.8 L 142.01818180084229 106.8 L 150.2 97.8 L 160.2 106.8 L 160.2 110.8 L 87.12076501846313 110.8 L 84.38743171691894 123.0 L 144.1 123.0 L 150.1 118.0 L 161.1 127.0 L 156.1 130.0 L 155.88623485565185 130.0890687942505 L 155.7 134.0 L 155.4 137.9 L 155.1 141.5 L 154.7 144.8 L 154.3 147.8 L 153.8 150.6 L 153.2 153.0 L 152.5 155.3 L 151.7 157.3 L 150.5 159.6 L 149.1 161.6 L 147.5 163.5 L 145.7 165.2 L 143.7 166.6 L 141.6 167.8 L 139.3 168.7 L 136.9 169.3 L 134.5 169.7 L 132.0 169.8 L 132.0 163.8 L 112.0 160.8 L 112.0 157.8 L 132.0 157.8 L 133.3 157.7 L 134.5 157.5 L 135.6 157.3 L 136.5 156.9 L 138.1 155.9 L 138.8 155.2 L 139.5 154.4 L 140.2 153.4 L 140.9 152.2 L 141.2 151.3 L 141.6 149.9 L 142.0 148.1 L 142.4 145.9 L 142.8 143.3 L 143.2 140.3 L 143.4 137.0 L 143.7 133.3 L 143.9 129.3 L 144.0045454978943 127.0 L 83.49125680923461 127.0 L 83.2 128.3 L 70.2 131.5 L 78.65276384353638 93.7 L 61.6 93.7 L 61.6 111.1 L 61.1 119.4 L 60.4 127.1 L 59.3 134.3 L 58.0 140.9 L 56.3 146.9 L 54.3 152.4 L 52.0 157.3 L 49.3 161.5 L 46.2 164.9 L 42.7 167.5 L 41.4 166.2 L 43.1 162.7 L 44.6 158.9 L 45.9 154.7 L 47.1 150.1 L 48.1 145.0 L 48.8 139.3 L 49.4 133.1 L 49.7 126.3 L 49.7 119.0 L 49.6 111.1 L 49.6 42.6 Z M 58.7 165.0 L 57.2 160.7 L 59.2 156.5 L 60.2 156.0 L 61.4 155.1 L 62.6 153.8 L 63.8 152.1 L 65.0 150.0 L 66.1 147.5 L 67.1 144.6 L 68.1 141.3 L 69.1 137.7 L 69.5 133.8 L 71.3 133.8 L 71.6 137.8 L 72.1 141.7 L 72.4 145.3 L 72.4 148.7 L 72.2 151.9 L 71.8 154.9 L 71.1 157.8 L 70.2 160.5 L 68.9 163.1 L 67.2 165.4 L 62.9 166.9 Z M 103.7 149.3 L 103.5 147.5 L 103.2 145.8 L 102.8 144.0 L 102.3 142.2 L 101.6 140.3 L 100.7 138.4 L 99.8 136.4 L 98.3 134.9 L 99.4 133.5 L 101.3 134.8 L 103.4 135.9 L 105.4 137.2 L 107.2 138.6 L 108.9 140.2 L 110.5 141.9 L 112.0 143.8 L 113.3 145.9 L 114.5 148.0 L 115.5 150.3 L 114.6 154.8 L 110.8 157.4 L 106.4 156.5 L 103.7 152.7 L 103.8 151.0 Z M 88.5 161.3 L 84.4 159.3 L 82.8 155.0 L 83.2 153.5 L 83.6 151.8 L 83.8 150.0 L 83.9 148.1 L 83.8 146.2 L 83.6 144.1 L 83.3 141.9 L 82.8 139.6 L 82.2 137.1 L 81.0 134.9 L 82.5 133.9 L 84.2 135.9 L 86.1 137.8 L 87.8 139.7 L 89.4 141.7 L 90.7 143.9 L 91.9 146.1 L 92.9 148.4 L 93.7 150.7 L 94.4 153.2 L 94.8 155.7 L 92.8 159.8 Z M 123.3 145.3 L 122.9 143.8 L 122.5 142.2 L 121.9 140.7 L 121.3 139.1 L 120.6 137.6 L 118.8 134.4 L 117.4 133.3 L 118.3 131.8 L 120.0 132.7 L 121.9 133.3 L 123.8 134.0 L 125.6 135.0 L 127.4 136.1 L 129.1 137.4 L 130.7 138.9 L 132.2 140.4 L 133.6 142.2 L 134.9 144.0 L 134.8 148.6 L 131.6 151.8 L 127.0 151.7 L 123.8 148.5 L 123.6 146.9 Z M 61.6 72.0 L 61.6 89.7 L 78.6 89.7 L 78.6 72.0 Z M 90.6 72.0 L 90.6 89.7 L 107.6 89.7 L 107.6 72.0 Z M 119.6 72.0 L 119.6 89.7 L 136.6 89.7 L 136.6 72.0 Z " />
</g>
</svg>
