<svg xmlns="http://www.w3.org/2000/svg" xmlns:xlink="http://www.w3.org/1999/xlink" version="1.1" baseProfile="full" viewBox="0 0 200 200" width="200" height="200">
<g fill="black">
<path d="M 36.0 26.0 L 165.0 26.0 L 171.0 21.0 L 182.0 30.0 L 177.0 34.0 L 177.0 179.0 L 165.0 185.0 L 165.0 175.0 L 36.0 175.0 L 36.0 182.0 L 24.0 188.0 L 24.0 20.0 Z M 36.0 30.0 L 36.0 171.0 L 165.0 171.0 L 165.0 30.0 Z M 77.4 123.3 L 121.9 123.3 L 127.9 118.3 L 138.9 127.3 L 133.9 131.3 L 133.9 158.2 L 121.9 164.2 L 121.9 158.2 L 77.4 158.2 L 65.4 164.2 L 65.4 117.3 Z M 77.4 127.3 L 77.4 154.2 L 121.9 154.2 L 121.9 127.3 Z M 138.6 107.3 L 132.9 103.1 L 127.4 98.5 L 122.1 93.5 L 116.9 88.1 L 111.9 82.3 L 107.1 76.1 L 102.6 69.4 L 101.04288520812989 66.62757606506348 L 100.8 67.0 L 95.9 73.7 L 90.6 80.2 L 85.0 86.4 L 79.0 92.3 L 72.6 98.0 L 65.9 103.4 L 58.8 108.6 L 51.2 113.3 L 43.2 117.6 L 42.3 116.2 L 49.0 110.2 L 55.4 104.4 L 61.6 98.5 L 67.4 92.5 L 72.9 86.4 L 78.0 80.3 L 82.7 73.9 L 87.1 67.5 L 91.2 60.9 L 93.90597019195556 56.0 L 46.0 56.0 L 46.0 52.0 L 136.0 52.0 L 146.0 42.0 L 158.0 52.0 L 158.0 56.0 L 99.41739130020142 56.0 L 105.3 60.1 L 106.9 63.3 L 103.1282208442688 63.43006134033203 L 102.85131101608276 63.85465641021729 L 105.9 66.8 L 111.6 72.2 L 117.1 77.3 L 122.7 82.1 L 128.2 86.5 L 133.7 90.5 L 139.3 94.1 L 144.8 97.3 L 150.4 100.1 L 156.0 102.5 L 161.8 105.2 L 150.5 114.5 L 144.5 111.1 Z M 130.5 102.6 L 130.5 106.6 L 70.1 106.6 L 70.1 102.6 L 108.5 102.6 L 118.5 92.6 Z " />
</g>
</svg>
