<svg xmlns="http://www.w3.org/2000/svg" xmlns:xlink="http://www.w3.org/1999/xlink" version="1.1" baseProfile="full" viewBox="0 0 200 200" width="200" height="200">
<g fill="black">
<path d="M 189.9 26.1 L 184.9 30.1 L 184.9 180.9 L 172.9 186.9 L 172.9 176.9 L 88.0 176.9 L 88.0 183.9 L 78.0 188.9 L 78.0 17.1 L 88.0 22.1 L 172.9 22.1 L 178.9 17.1 Z M 69.6 172.4 L 69.6 176.4 L 16.3 176.4 L 16.3 172.4 L 47.6 172.4 L 57.6 162.4 Z M 88.0 26.1 L 88.0 172.9 L 172.9 172.9 L 172.9 26.1 Z M 114.8 78.0 L 144.3 78.0 L 150.3 73.0 L 161.3 82.0 L 156.3 86.0 L 156.3 108.0 L 144.3 114.0 L 144.3 113.68000001907349 L 144.1 113.8 L 144.1 122.0 L 146.2777777671814 122.0 L 152.5 115.0 L 160.5 122.0 L 160.5 126.0 L 144.1 126.0 L 144.1 143.0 L 148.0 143.0 L 158.0 133.0 L 170.0 143.0 L 170.0 147.0 L 144.1 147.0 L 144.1 166.0 L 132.1 172.0 L 132.1 147.0 L 113.91733331680298 147.0 L 113.8 147.8 L 101.1 152.0 L 104.4 129.1 L 116.0 132.8 L 118.7 135.2 L 115.4973337173462 136.22727031707763 L 114.5039999961853 143.0 L 132.1 143.0 L 132.1 126.0 L 94.6 126.0 L 94.6 122.0 L 132.1 122.0 L 132.1 108.0 L 144.1 110.0 L 144.3 110.13333330154418 L 144.3 106.0 L 114.8 106.0 L 114.8 109.0 L 102.8 115.0 L 102.8 72.0 Z M 64.0 141.1 L 64.0 145.1 L 21.9 145.1 L 21.9 141.1 L 45.81818180084228 141.1 L 54.0 132.1 Z M 53.0 17.1 L 54.8 20.2 L 50.38217124938965 20.58084726333618 L 49.8 21.3 L 48.1 23.3 L 46.2 25.4 L 44.2 27.6 L 42.1 29.7 L 39.9 31.8 L 37.5 33.9 L 35.25 35.7 L 56.4 35.7 L 61.9 30.7 L 72.4 39.7 L 67.4 43.2 L 67.4 70.4 L 56.4 75.9 L 56.4 68.4 L 28.2 68.4 L 28.2 87.8 L 58.8 87.8 L 64.3 82.8 L 74.8 91.8 L 69.8 95.3 L 69.8 126.2 L 58.8 131.7 L 58.8 124.2 L 28.2 124.2 L 28.2 127.2 L 16.2 133.2 L 16.2 29.7 L 28.2 35.7 L 32.1 35.7 L 33.0 34.3 L 34.3 31.4 L 35.6 28.6 L 36.9 25.9 L 38.0 23.3 L 39.1 20.8 L 40.0 18.4 L 40.9 16.1 L 41.7 13.9 L 42.039159297943115 12.656415939331055 L 41.9 12.6 L 42.23999996185303 11.919999980926514 L 42.3 11.7 L 42.339925384521486 11.72014923095703 L 42.9 10.6 Z M 28.2 91.8 L 28.2 120.2 L 58.8 120.2 L 58.8 91.8 Z M 114.8 82.0 L 114.8 102.0 L 144.3 102.0 L 144.3 82.0 Z M 89.8 66.0 L 111.84509801864624 66.0 L 114.1735294342041 47.0 L 98.6 47.0 L 98.6 43.0 L 114.66372547149658 43.0 L 116.6 27.2 L 128.3 30.7 L 131.0 33.0 L 127.88330459594727 34.07885608673096 L 126.78310995101928 43.0 L 142.3 43.0 L 148.3 38.0 L 159.3 47.0 L 154.3 51.0 L 154.3 66.0 L 159.5 66.0 L 164.0 60.0 L 170.0 66.0 L 170.0 70.0 L 89.8 70.0 Z M 126.28981237411499 47.0 L 123.94664878845215 66.0 L 142.3 66.0 L 142.3 47.0 Z M 28.2 39.7 L 28.2 64.4 L 56.4 64.4 L 56.4 39.7 Z " />
</g>
</svg>
