<svg xmlns="http://www.w3.org/2000/svg" xmlns:xlink="http://www.w3.org/1999/xlink" version="1.1" baseProfile="full" viewBox="0 0 200 200" width="200" height="200">
<g fill="black">
<path d="M 36.0 26.0 L 164.0 26.0 L 170.0 21.0 L 181.0 30.0 L 176.0 34.0 L 176.0 178.0 L 164.0 184.0 L 164.0 174.0 L 36.0 174.0 L 36.0 181.0 L 24.0 187.0 L 24.0 20.0 Z M 36.0 30.0 L 36.0 170.0 L 164.0 170.0 L 164.0 30.0 Z M 128.2 158.1 L 126.2 159.3 L 124.1 160.4 L 122.0 161.3 L 119.8 162.0 L 117.5 162.6 L 115.2 163.0 L 112.9 163.3 L 110.5 163.4 L 110.5 157.4 L 92.5 154.4 L 92.5 151.4 L 110.5 151.4 L 112.1 151.3 L 113.6 151.2 L 115.0 150.9 L 116.4 150.5 L 117.7 150.1 L 120.3 148.9 L 121.5 148.1 L 122.7 147.2 L 123.9 146.2 L 125.2 144.8 L 126.6 142.8 L 128.0 140.2 L 129.3 137.0 L 130.6 133.1 L 131.7 128.6 L 132.8 123.5 L 133.7 117.8 L 134.5 111.6 L 134.87941179275512 107.3 L 64.53333330154419 107.3 L 62.4 120.1 L 49.6 124.0 L 59.3 65.4 L 68.82025318145752 72.3 L 130.7 72.3 L 130.7 46.1 L 55.1 46.1 L 55.1 42.1 L 130.7 42.1 L 136.7 37.1 L 147.7 46.1 L 142.7 50.1 L 142.7 82.3 L 130.7 88.3 L 130.7 76.3 L 69.7 76.3 L 65.2 103.3 L 135.1 103.3 L 141.1 98.3 L 152.1 107.3 L 147.1 110.3 L 146.63733167648314 110.49277849197388 L 146.4 112.9 L 145.6 119.5 L 144.6 125.6 L 143.4 131.3 L 142.1 136.4 L 140.6 141.1 L 138.8 145.3 L 136.9 149.0 L 134.6 152.3 L 131.9 155.1 L 130.1 156.7 Z " />
</g>
</svg>
