<svg xmlns="http://www.w3.org/2000/svg" xmlns:xlink="http://www.w3.org/1999/xlink" version="1.1" baseProfile="full" viewBox="0 0 200 200" width="200" height="200">
<g fill="black">
<path d="M 36.0 26.0 L 164.0 26.0 L 170.0 21.0 L 181.0 30.0 L 176.0 34.0 L 176.0 178.0 L 164.0 184.0 L 164.0 174.0 L 36.0 174.0 L 36.0 181.0 L 24.0 187.0 L 24.0 20.0 Z M 36.0 30.0 L 36.0 170.0 L 164.0 170.0 L 164.0 30.0 Z M 119.9 157.1 L 108.4 155.6 L 98.2 153.3 L 92.64458599090577 151.17770700454713 L 92.0 151.5 L 92.0 150.9314606666565 L 89.3 149.9 L 81.7 145.5 L 75.7 140.2 L 71.3 133.9 L 69.79253730773925 129.84144659042357 L 69.2 131.3 L 66.3 137.3 L 62.9 143.0 L 59.1 148.2 L 55.0 153.1 L 50.3 157.4 L 45.2 161.1 L 44.0 159.8 L 47.5 154.8 L 50.7 149.8 L 53.6 144.6 L 56.3 139.3 L 58.6 133.8 L 60.6 128.0 L 62.2 122.0 L 63.5 115.7 L 64.5 109.1 L 65.2 102.3 L 65.22859811782837 102.30336446762085 L 65.5 100.2 L 77.1 103.7 L 79.9 106.0 L 76.41903047561645 107.57628812789918 L 75.8 111.1 L 74.0 118.1 L 72.08053255081177 124.03289937973022 L 72.7 125.4 L 76.3 130.7 L 80.7 135.0 L 86.2 138.5 L 92.0 140.96060609817505 L 92.0 84.9 L 71.7 84.9 L 71.7 87.9 L 59.7 93.9 L 59.7 40.4 L 71.7 46.4 L 124.2 46.4 L 130.2 41.4 L 141.2 50.4 L 136.2 54.4 L 136.2 90.9 L 124.2 96.9 L 124.2 84.9 L 104.0 84.9 L 104.0 112.0 L 123.21818180084229 112.0 L 131.4 103.0 L 141.4 112.0 L 141.4 116.0 L 104.0 116.0 L 104.0 143.80217390060426 L 109.9 144.7 L 120.5 145.3 L 132.5 145.1 L 145.8 144.0 L 156.7 143.2 L 146.8 157.2 L 132.7 157.6 Z M 71.7 50.4 L 71.7 80.9 L 124.2 80.9 L 124.2 50.4 Z " />
</g>
</svg>
