<svg xmlns="http://www.w3.org/2000/svg" xmlns:xlink="http://www.w3.org/1999/xlink" version="1.1" baseProfile="full" viewBox="0 0 200 200" width="200" height="200">
<g fill="black">
<path d="M 36.0 26.0 L 164.0 26.0 L 170.0 21.0 L 181.0 30.0 L 176.0 34.0 L 176.0 178.0 L 164.0 184.0 L 164.0 174.0 L 36.0 174.0 L 36.0 181.0 L 24.0 187.0 L 24.0 20.0 Z M 36.0 30.0 L 36.0 170.0 L 164.0 170.0 L 164.0 30.0 Z M 106.5 44.2 L 109.5 46.2 L 106.5 48.0 L 106.5 70.8 L 138.3 70.8 L 144.3 65.8 L 155.3 74.8 L 150.3 78.8 L 150.3 125.3 L 138.3 131.3 L 138.3 119.3 L 106.5 119.3 L 106.5 158.7 L 94.5 164.7 L 94.5 119.3 L 62.6 119.3 L 62.6 131.3 L 50.6 137.3 L 50.6 64.8 L 62.6 70.8 L 94.5 70.8 L 94.5 42.2 Z M 62.6 74.8 L 62.6 115.3 L 94.5 115.3 L 94.5 74.8 Z M 106.5 74.8 L 106.5 115.3 L 138.3 115.3 L 138.3 74.8 Z " />
</g>
</svg>
