<svg xmlns="http://www.w3.org/2000/svg" xmlns:xlink="http://www.w3.org/1999/xlink" version="1.1" baseProfile="full" viewBox="0 0 200 200" width="200" height="200">
<g fill="black">
<path d="M 36.0 26.0 L 165.0 26.0 L 171.0 21.0 L 182.0 30.0 L 177.0 34.0 L 177.0 179.0 L 165.0 185.0 L 165.0 175.0 L 36.0 175.0 L 36.0 182.0 L 24.0 188.0 L 24.0 20.0 Z M 36.0 30.0 L 36.0 171.0 L 165.0 171.0 L 165.0 30.0 Z M 104.4 65.3 L 106.4 61.6 L 108.3 58.2 L 110.1 54.9 L 111.8 51.8 L 113.3 48.9 L 114.6 46.1 L 115.8 43.5 L 116.8 41.0 L 117.2629566192627 39.668999671936035 L 117.1 39.6 L 117.5683168411255 38.791089153289796 L 117.6 38.7 L 117.61612167358399 38.70851707458496 L 118.2 37.7 L 128.2 44.3 L 129.9 47.5 L 125.62250003814697 47.721249961853026 L 124.7 48.9 L 122.6 51.3 L 120.4 53.8 L 118.1 56.3 L 115.5 59.0 L 112.8 61.6 L 109.9 64.4 L 106.7 67.1 L 106.27333335876465 67.5 L 130.5 67.5 L 140.5 57.5 L 152.5 67.5 L 152.5 71.5 L 113.1 71.5 L 113.1 93.6 L 125.5 93.6 L 135.5 83.6 L 147.5 93.6 L 147.5 97.6 L 113.1 97.6 L 113.1 119.0 L 125.5 119.0 L 135.5 109.0 L 147.5 119.0 L 147.5 123.0 L 113.1 123.0 L 113.1 146.5 L 135.5 146.5 L 145.5 136.5 L 157.5 146.5 L 157.5 150.5 L 71.9 150.5 L 71.9 157.5 L 59.9 163.5 L 59.9 82.4920000076294 L 56.1 86.9 L 50.7 92.5 L 45.0 97.7 L 38.8 102.6 L 37.5 101.3 L 42.2 95.1 L 46.6 89.0 L 50.9 82.8 L 54.9 76.7 L 58.7 70.4 L 59.9 68.23999996185303 L 59.9 67.5 L 60.31111106872559 67.5 L 62.2 64.1 L 65.4 57.7 L 68.3 51.3 L 71.0 44.7 L 73.037926197052 39.01078939437866 L 73.0 39.0 L 73.9 36.6 L 84.6 42.3 L 86.7 45.2 L 82.97405347824096 45.91904230117798 L 81.5 49.2 L 78.0 56.0 L 74.2 62.5 L 71.075 67.5 L 103.03243246078492 67.5 Z M 71.9 123.0 L 71.9 146.5 L 101.1 146.5 L 101.1 123.0 Z M 71.9 97.6 L 71.9 119.0 L 101.1 119.0 L 101.1 97.6 Z M 71.9 71.5 L 71.9 93.6 L 101.1 93.6 L 101.1 71.5 Z " />
</g>
</svg>
