<svg xmlns="http://www.w3.org/2000/svg" xmlns:xlink="http://www.w3.org/1999/xlink" version="1.1" baseProfile="full" viewBox="0 0 200 200" width="200" height="200">
<g fill="black">
<path d="M 48.0 126.7 L 152.0 126.7 L 158.0 121.7 L 169.0 130.7 L 164.0 134.7 L 164.0 176.8 L 152.0 182.8 L 152.0 172.8 L 48.0 172.8 L 48.0 179.8 L 36.0 185.8 L 36.0 120.7 Z M 48.0 130.7 L 48.0 168.8 L 152.0 168.8 L 152.0 130.7 Z M 16.7 106.4 L 35.91970262527466 106.4 L 42.66542749404907 64.2 L 25.3 64.2 L 25.3 60.2 L 43.304832744598386 60.2 L 48.18029737472534 29.7 L 20.5 29.7 L 20.5 25.7 L 73.4 25.7 L 83.4 15.7 L 95.4 25.7 L 95.4 29.7 L 60.3778190612793 29.7 L 55.4645601272583 60.2 L 71.2 60.2 L 77.2 55.2 L 88.2 64.2 L 83.2 68.2 L 83.2 106.4 L 84.9777777671814 106.4 L 91.2 99.4 L 99.2 106.4 L 99.2 110.4 L 16.7 110.4 Z M 103.7 106.4 L 122.91970262527465 106.4 L 129.66542749404908 64.2 L 112.3 64.2 L 112.3 60.2 L 130.3048327445984 60.2 L 135.18029737472534 29.7 L 107.5 29.7 L 107.5 25.7 L 160.4 25.7 L 170.4 15.7 L 182.4 25.7 L 182.4 29.7 L 147.3778190612793 29.7 L 142.4645601272583 60.2 L 158.2 60.2 L 164.2 55.2 L 175.2 64.2 L 170.2 68.2 L 170.2 106.4 L 171.9777777671814 106.4 L 178.2 99.4 L 186.2 106.4 L 186.2 110.4 L 103.7 110.4 Z M 141.82019824981688 64.2 L 135.0221809387207 106.4 L 158.2 106.4 L 158.2 64.2 Z M 54.8201982498169 64.2 L 48.0221809387207 106.4 L 71.2 106.4 L 71.2 64.2 Z " />
</g>
</svg>
