<svg xmlns="http://www.w3.org/2000/svg" xmlns:xlink="http://www.w3.org/1999/xlink" version="1.1" baseProfile="full" viewBox="0 0 200 200" width="200" height="200">
<g fill="black">
<path d="M 36.0 26.0 L 165.0 26.0 L 171.0 21.0 L 182.0 30.0 L 177.0 34.0 L 177.0 179.0 L 165.0 185.0 L 165.0 175.0 L 36.0 175.0 L 36.0 182.0 L 24.0 188.0 L 24.0 20.0 Z M 36.0 30.0 L 36.0 171.0 L 165.0 171.0 L 165.0 30.0 Z M 153.5 139.1 L 155.5 139.1 L 153.5 152.1 L 156.2 153.9 L 158.0 156.6 L 156.2 159.3 L 153.5 161.1 L 119.6 161.1 L 117.3 160.8 L 115.0 160.2 L 112.8 159.2 L 110.8 157.8 L 109.2 156.0 L 107.9 153.9 L 106.9 151.6 L 106.3 149.1 L 106.1 146.6 L 106.1 107.2 L 90.18157892227173 107.2 L 92.3 107.9 L 95.0 110.3 L 91.40448875427246 111.76483793258667 L 90.4 116.1 L 87.8 123.8 L 84.5 131.0 L 80.5 137.7 L 75.9 143.9 L 70.7 149.5 L 64.8 154.5 L 58.3 158.9 L 51.2 162.7 L 43.5 165.7 L 42.7 164.1 L 49.2 159.4 L 55.1 154.6 L 60.4 149.6 L 65.1 144.4 L 69.1 138.8 L 72.5 133.0 L 75.4 126.8 L 77.6 120.3 L 79.3 113.4 L 80.23424654006958 107.2 L 45.1 107.2 L 45.1 103.2 L 93.0 103.2 L 93.0 84.6 L 61.7 84.6 L 61.7 80.6 L 93.0 80.6 L 93.0 62.7 L 49.3 62.7 L 49.3 58.7 L 79.89729728698731 58.7 L 78.0 56.0 L 78.0 54.4 L 77.9 52.8 L 77.6 51.0 L 77.2 49.2 L 76.5 47.3 L 75.7 45.4 L 74.7 43.3 L 73.5 41.2 L 72.1 39.0 L 70.2 37.1 L 71.3 35.7 L 73.6 37.2 L 76.1 38.5 L 78.4 39.9 L 80.5 41.4 L 82.5 43.1 L 84.3 44.9 L 85.9 46.8 L 87.4 48.9 L 88.6 51.1 L 89.7 53.5 L 88.8 58.0 L 87.80384616851806 58.7 L 108.15 58.7 L 109.1 57.3 L 110.6 54.4 L 112.0 51.6 L 113.5 48.9 L 114.8 46.3 L 116.1 43.9 L 117.3 41.5 L 118.4 39.2 L 119.4 37.0 L 119.90898141860961 35.81237678527832 L 119.7 35.7 L 120.8 34.1 L 130.3 41.4 L 131.8 44.7 L 127.35081968307495 44.549180316925046 L 122.9 49.0 L 120.8 50.9 L 118.5 52.9 L 116.2 55.0 L 113.7 57.0 L 111.48999996185303 58.7 L 124.6 58.7 L 134.6 48.7 L 146.6 58.7 L 146.6 62.7 L 105.0 62.7 L 105.0 80.6 L 120.81818180084228 80.6 L 129.0 71.6 L 139.0 80.6 L 139.0 84.6 L 105.0 84.6 L 105.0 103.2 L 132.8 103.2 L 142.8 93.2 L 154.8 103.2 L 154.8 107.2 L 118.1 107.2 L 118.1 146.6 L 118.0 147.8 L 118.0 148.8 L 118.1 149.5 L 118.2 150.0 L 118.3 150.4 L 118.5 150.7 L 118.9 151.1 L 119.6 151.5 L 120.7 151.9 L 122.1 152.1 L 149.0 152.1 Z " />
</g>
</svg>
