<svg xmlns="http://www.w3.org/2000/svg" xmlns:xlink="http://www.w3.org/1999/xlink" version="1.1" baseProfile="full" viewBox="0 0 200 200" width="200" height="200">
<g fill="black">
<path d="M 36.0 26.0 L 164.0 26.0 L 170.0 21.0 L 181.0 30.0 L 176.0 34.0 L 176.0 178.0 L 164.0 184.0 L 164.0 174.0 L 36.0 174.0 L 36.0 181.0 L 24.0 187.0 L 24.0 20.0 Z M 36.0 30.0 L 36.0 170.0 L 164.0 170.0 L 164.0 30.0 Z M 80.9 92.0 L 77.0 97.3 L 74.52716131210327 100.23290166854858 L 75.3 100.6 L 79.2 102.3 L 82.8 104.1 L 86.2 106.1 L 89.3 108.1 L 92.3 110.2 L 95.0 112.4 L 97.4 114.7 L 99.7 117.1 L 101.7 119.6 L 102.3 124.1 L 99.5 127.8 L 95.0 128.3 L 91.3 125.6 L 90.4 123.4 L 89.2 121.2 L 87.8 118.8 L 86.1 116.4 L 84.1 113.9 L 81.9 111.3 L 79.4 108.6 L 76.7 105.9 L 73.7 103.0 L 72.81123208999634 102.26807355880737 L 72.7 102.4 L 68.0 107.3 L 62.9 112.0 L 57.4 116.4 L 51.5 120.6 L 45.1 124.4 L 44.0 123.0 L 49.1 117.7 L 53.8 112.5 L 58.2 107.4 L 62.3 102.3 L 66.0 97.1 L 69.3 91.9 L 72.3 86.7 L 74.9 81.5 L 77.2 76.2 L 79.0 70.8 L 79.04554920196533 70.8169298171997 L 79.6 69.4 L 90.3 75.0 L 92.4 77.9 L 88.54042692184449 78.64482984542846 L 87.5 80.8 L 85.21578950881958 85.0 L 97.5 85.0 L 97.5 35.7 L 109.5 37.7 L 112.5 39.7 L 109.5 41.5 L 109.5 58.7 L 134.3 58.7 L 144.3 48.7 L 156.3 58.7 L 156.3 62.7 L 109.5 62.7 L 109.5 85.0 L 131.8 85.0 L 137.8 80.0 L 148.8 89.0 L 143.8 92.0 L 141.82711868286134 92.82203388214111 L 138.8 100.1 L 132.8 110.6 L 125.6 120.3 L 117.2 129.2 L 107.5 137.3 L 96.8 144.6 L 84.8 151.0 L 71.7 156.6 L 57.5 161.3 L 42.1 165.1 L 41.6 163.3 L 56.2 157.7 L 69.6 151.7 L 81.7 145.2 L 92.6 138.2 L 102.2 130.7 L 110.6 122.7 L 117.7 114.1 L 123.6 105.0 L 128.4 95.3 L 130.6235294342041 89.0 L 82.80909090042114 89.0 Z " />
</g>
</svg>
