<svg xmlns="http://www.w3.org/2000/svg" xmlns:xlink="http://www.w3.org/1999/xlink" version="1.1" baseProfile="full" viewBox="0 0 200 200" width="200" height="200">
<g fill="black">
<path d="M 36.0 26.0 L 164.5 26.0 L 170.0 21.0 L 180.5 30.0 L 175.5 33.5 L 175.5 178.0 L 164.5 183.5 L 164.5 174.0 L 36.0 174.0 L 36.0 181.0 L 24.0 187.0 L 24.0 20.0 Z M 129.5 154.5 L 141.8 154.5 L 142.2 154.4 L 142.6 154.2 L 142.7 154.0 L 142.9 153.7 L 143.4 152.2 L 143.5 151.0 L 143.6 149.5 L 143.6 104.9 L 118.44222221374511 104.9 L 118.1 112.6 L 117.3 121.0 L 116.2 128.8 L 114.7 135.9 L 112.8 142.4 L 110.5 148.2 L 107.8 153.4 L 104.7 157.8 L 101.1 161.3 L 97.1 163.9 L 96.0 162.6 L 98.2 158.9 L 100.2 154.9 L 101.9 150.5 L 103.4 145.6 L 104.6 140.2 L 105.6 134.1 L 106.2 127.5 L 106.6 120.2 L 106.7 112.3 L 106.52790699005126 104.9 L 94.8 104.9 L 94.8 101.92881355285644 L 94.53194332122803 101.92427024841308 L 93.7 102.8 L 91.7 104.7 L 89.5 106.6 L 87.2 108.5 L 84.8 110.3 L 82.3 112.0 L 79.6 113.7 L 76.7 115.2 L 76.505140209198 115.32990655899047 L 77.12465753555298 117.51643838882447 L 77.7 117.9 L 80.2 119.3 L 82.7 120.8 L 87.3 124.2 L 89.4 126.1 L 91.5 128.1 L 93.5 130.2 L 95.4 132.4 L 97.2 134.6 L 97.6 139.2 L 94.8 142.8 L 90.3 143.3 L 86.7 140.5 L 84.9 135.9 L 83.9 133.6 L 80.3 126.7 L 78.9 124.5 L 78.76108951568604 124.26186771392823 L 79.1 125.8 L 79.9 131.9 L 80.2 138.0 L 79.9 144.1 L 79.2 150.2 L 78.6 152.7 L 77.7 155.0 L 76.5 157.2 L 74.9 159.3 L 73.1 161.0 L 71.0 162.4 L 68.8 163.5 L 66.4 164.2 L 63.9 164.7 L 61.3 164.8 L 61.3 158.8 L 51.3 155.8 L 51.3 152.8 L 61.3 152.8 L 62.6 152.7 L 63.6 152.6 L 64.4 152.3 L 65.1 152.0 L 65.5 151.7 L 66.0 151.3 L 66.4 150.7 L 66.8 150.0 L 67.2 149.0 L 67.5 147.8 L 68.7 142.6 L 69.4 137.4 L 69.67305822372437 133.85024271011352 L 68.9 134.8 L 65.2 138.8 L 61.3 142.7 L 57.2 146.3 L 52.8 149.7 L 48.2 152.8 L 43.4 155.6 L 38.2 158.1 L 37.2 156.6 L 41.1 152.6 L 44.8 148.7 L 48.4 144.8 L 51.9 140.9 L 55.1 136.9 L 58.1 132.9 L 60.9 128.7 L 63.5 124.5 L 65.9 120.1 L 68.2 115.7 L 68.71128034591675 115.97755212783814 L 68.7 115.9 L 68.27622013092041 113.70404987335205 L 68.0 114.0 L 65.0 116.9 L 62.0 119.6 L 58.9 122.1 L 55.7 124.5 L 52.4 126.7 L 49.0 128.6 L 45.4 130.3 L 41.9 132.0 L 40.9 130.5 L 43.6 127.8 L 48.6 122.2 L 51.0 119.4 L 53.3 116.5 L 55.6 113.5 L 57.7 110.5 L 59.8 107.4 L 61.9 104.2 L 63.8 101.0 L 65.28079290390015 102.04259910583497 L 64.2 98.5 L 63.301823711395265 95.84824142456054 L 61.9 97.2 L 58.9 99.7 L 55.7 102.2 L 52.3 104.4 L 48.7 106.5 L 44.8 108.4 L 40.8 110.4 L 39.9 108.9 L 43.1 106.0 L 45.9 102.9 L 48.6 100.0 L 51.0 97.1 L 53.3 94.2 L 55.3 91.3 L 57.1 88.5 L 58.7 85.6 L 59.07142858505249 84.8 L 39.8 84.8 L 39.8 80.8 L 71.83999996185302 80.8 L 73.32799997329712 68.4 L 57.13323259353638 68.4 L 57.0 69.3 L 44.3 73.5 L 50.3 32.5 L 61.9 36.2 L 64.6 38.7 L 61.38628797531128 39.670177173614505 L 60.4788519859314 45.8 L 75.8 45.8 L 81.8 40.8 L 92.8 49.8 L 87.8 52.8 L 86.4714285850525 53.35357141494751 L 83.88823528289795 80.8 L 86.0 80.8 L 90.5 74.8 L 96.5 80.8 L 96.5 84.8 L 72.44285717010499 84.8 L 71.9 85.6 L 69.7 88.7 L 67.3 91.6 L 65.3861538887024 93.73467454910278 L 67.6 96.8 L 71.0 102.4 L 73.8 108.1 L 75.57436866760254 112.57449493408203 L 76.8 110.7 L 78.6 108.2 L 80.2 105.8 L 81.7 103.4 L 83.0 101.1 L 84.3 98.9 L 85.4 96.7 L 86.4 94.5 L 86.8497667312622 93.37558317184448 L 86.7 93.3 L 87.7 91.6 L 97.4 98.7 L 98.46666669845581 100.9 L 106.5 100.9 L 106.5 52.5 L 118.5 58.5 L 119.62857141494752 58.5 L 120.0 57.2 L 120.2 54.9 L 120.5 52.6 L 120.9 47.8 L 121.2 45.4 L 121.4 42.9 L 121.6 40.3 L 121.7 37.6 L 121.82483797073364 35.914686870574954 L 121.7 35.9 L 122.2 33.1 L 133.6 37.3 L 136.2 39.8 L 132.09545450210572 41.29256200790405 L 130.4 45.3 L 128.0 50.1 L 126.7 52.3 L 125.3 54.4 L 123.8 56.4 L 122.2 58.2 L 122.01052627563476 58.5 L 143.6 58.5 L 148.6 53.5 L 158.6 62.5 L 153.6 65.5 L 153.6 100.9 L 157.4 100.9 L 161.9 94.9 L 164.5 97.5 L 164.5 30.0 L 36.0 30.0 L 36.0 170.0 L 164.5 170.0 L 164.5 104.9 L 153.6 104.9 L 153.6 149.5 L 153.5 151.9 L 153.2 154.1 L 152.7 156.2 L 151.9 158.2 L 150.7 160.0 L 149.2 161.7 L 147.4 163.0 L 145.4 163.9 L 143.2 164.4 L 141.1 164.5 L 141.1 159.5 L 129.5 157.0 Z M 135.2 112.9 L 137.9 114.9 L 135.2 116.62340421676636 L 135.2 145.6 L 124.2 151.1 L 124.2 110.9 Z M 118.5 62.5 L 118.5 100.9 L 143.6 100.9 L 143.6 62.5 Z M 126.3 87.0 L 126.4 85.3 L 126.3 83.5 L 126.2 81.6 L 125.9 79.5 L 125.5 77.4 L 125.1 75.2 L 124.5 72.9 L 123.4 70.7 L 124.9 69.7 L 126.4 71.7 L 128.3 73.4 L 131.5 77.0 L 134.1 80.8 L 135.3 82.7 L 136.3 84.7 L 137.9 88.9 L 136.5 93.2 L 132.6 95.5 L 128.2 94.1 L 126.0 90.2 L 126.2 88.6 Z M 59.88670692443848 49.8 L 57.7253776550293 64.4 L 73.80799999237061 64.4 L 75.56000003814697 49.8 Z " />
</g>
</svg>
