<svg xmlns="http://www.w3.org/2000/svg" xmlns:xlink="http://www.w3.org/1999/xlink" version="1.1" baseProfile="full" viewBox="0 0 200 200" width="200" height="200">
<g fill="black">
<path d="M 36.0 26.0 L 164.0 26.0 L 170.0 21.0 L 181.0 30.0 L 176.0 34.0 L 176.0 178.0 L 164.0 184.0 L 164.0 174.0 L 36.0 174.0 L 36.0 181.0 L 24.0 187.0 L 24.0 20.0 Z M 36.0 30.0 L 36.0 170.0 L 164.0 170.0 L 164.0 30.0 Z M 47.8 60.6 L 47.8 56.6 L 136.2 56.6 L 146.2 46.6 L 158.2 56.6 L 158.2 60.6 L 132.4 60.6 L 132.4 156.3 L 120.4 162.3 L 120.4 60.6 L 86.2 60.6 L 86.2 96.5 L 85.5 105.2 L 84.0 113.4 L 81.7 121.0 L 78.6 128.0 L 74.6 134.5 L 69.9 140.2 L 64.5 145.3 L 58.4 149.7 L 51.5 153.2 L 44.0 156.0 L 43.2 154.3 L 49.6 149.9 L 55.2 145.3 L 60.0 140.5 L 64.1 135.4 L 67.4 130.0 L 70.1 124.1 L 72.1 117.9 L 73.5 111.3 L 74.1 104.1 L 74.2 96.5 L 74.2 60.6 Z " />
</g>
</svg>
