<svg xmlns="http://www.w3.org/2000/svg" xmlns:xlink="http://www.w3.org/1999/xlink" version="1.1" baseProfile="full" viewBox="0 0 200 200" width="200" height="200">
<g fill="black">
<path d="M 36.0 26.0 L 164.0 26.0 L 170.0 21.0 L 181.0 30.0 L 176.0 34.0 L 176.0 178.0 L 164.0 184.0 L 164.0 174.0 L 36.0 174.0 L 36.0 181.0 L 24.0 187.0 L 24.0 20.0 Z M 36.0 30.0 L 36.0 170.0 L 164.0 170.0 L 164.0 30.0 Z M 140.9 116.0 L 135.8 113.1 L 131.0 110.0 L 126.3 106.7 L 121.9 103.2 L 117.8 99.6 L 113.9 95.8 L 110.4 91.7 L 107.72272729873657 87.9 L 94.73018865585327 87.9 L 92.3 90.7 L 86.9 95.7 L 80.8 100.4 L 74.0 104.8 L 73.50931901931763 105.07849464416503 L 74.9 105.6 L 77.4 106.1 L 79.7 106.8 L 81.9 107.5 L 84.0 108.4 L 86.0 109.5 L 87.8 110.7 L 89.6 112.0 L 91.1 113.6 L 92.6 115.3 L 92.7 119.9 L 90.96764707565308 121.8 L 107.46000003814697 121.8 L 108.5 120.5 L 109.7 118.2 L 110.9 116.0 L 112.0 113.9 L 113.2 111.8 L 114.3 109.8 L 115.3 107.8 L 116.4 105.8 L 117.3 103.8 L 117.77040576934814 102.80692119598389 L 117.6 102.7 L 118.15662651062011 101.99156627655029 L 118.2 101.9 L 118.21797752380371 101.91348314285278 L 118.7 101.3 L 127.8 109.1 L 129.0 112.5 L 124.49877300262452 112.03435583114624 L 122.5 113.7 L 120.6 115.2 L 118.7 116.6 L 116.7 118.1 L 114.6 119.5 L 112.4 120.9 L 110.675 121.8 L 122.8 121.8 L 132.8 111.8 L 144.8 121.8 L 144.8 125.8 L 105.0 125.8 L 105.0 139.1 L 136.51818180084229 139.1 L 144.7 130.1 L 154.7 139.1 L 154.7 143.1 L 105.0 143.1 L 105.0 162.7 L 93.0 168.7 L 93.0 143.1 L 43.2 143.1 L 43.2 139.1 L 93.0 139.1 L 93.0 125.8 L 53.1 125.8 L 53.1 121.8 L 83.34516124725342 121.8 L 81.7 120.3 L 81.6 119.3 L 81.4 118.1 L 81.0 116.8 L 80.3 115.4 L 79.5 114.0 L 78.4 112.5 L 77.1 110.9 L 75.6 109.3 L 73.9 107.6 L 71.8 106.4 L 71.98879671096802 105.94149379730224 L 66.6 109.0 L 58.4 112.8 L 49.6 116.3 L 40.0 119.5 L 39.3 117.8 L 48.0 112.9 L 56.0 108.1 L 63.2 103.3 L 69.7 98.6 L 75.5 93.7 L 80.5 88.9 L 81.35714282989503 87.9 L 42.4 87.9 L 42.4 83.9 L 84.77142858505249 83.9 L 88.2 79.1 L 91.0 74.2 L 92.62886276245118 70.20928630828857 L 92.6 70.2 L 92.91999998092652 69.4960000038147 L 93.0 69.3 L 93.00764989852905 69.3031702041626 L 93.14545450210571 69.0 L 69.1 69.0 L 57.1 75.0 L 57.1 36.3 L 69.1 42.3 L 128.8 42.3 L 134.8 37.3 L 145.8 46.3 L 140.8 50.3 L 140.8 69.0 L 128.8 75.0 L 128.8 69.0 L 95.37966098785401 69.0 L 104.1 73.9 L 106.1 76.9 L 102.13317070007324 77.52634143829346 L 100.9 79.8 L 97.9714285850525 83.9 L 133.5 83.9 L 143.5 73.9 L 155.5 83.9 L 155.5 87.9 L 111.8884614944458 87.9 L 122.1 93.8 L 126.6 96.3 L 131.3 98.8 L 136.0 101.1 L 141.0 103.3 L 146.0 105.4 L 151.2 107.4 L 156.6 109.2 L 163.2 111.8 L 151.7 121.5 L 146.2 118.8 Z M 69.1 46.3 L 69.1 65.0 L 128.8 65.0 L 128.8 46.3 Z " />
</g>
</svg>
