<svg xmlns="http://www.w3.org/2000/svg" xmlns:xlink="http://www.w3.org/1999/xlink" version="1.1" baseProfile="full" viewBox="0 0 200 200" width="200" height="200">
<g fill="black">
<path d="M 36.0 26.0 L 164.0 26.0 L 170.0 21.0 L 181.0 30.0 L 176.0 34.0 L 176.0 178.0 L 164.0 184.0 L 164.0 174.0 L 36.0 174.0 L 36.0 181.0 L 24.0 187.0 L 24.0 20.0 Z M 36.0 30.0 L 36.0 170.0 L 164.0 170.0 L 164.0 30.0 Z M 137.4 143.4 L 131.8 138.5 L 126.5 133.2 L 121.6 127.6 L 117.1 121.8 L 113.0 115.8 L 109.3 109.4 L 106.5 103.5375 L 106.5 156.0 L 94.5 162.0 L 94.5 110.37346935272217 L 93.7 111.5 L 88.5 118.2 L 83.0 124.4 L 77.2 130.3 L 71.0 135.8 L 64.5 140.9 L 57.7 145.6 L 50.4 149.8 L 42.9 153.4 L 41.9 151.8 L 48.3 146.6 L 54.5 141.3 L 60.3 135.9 L 65.8 130.3 L 71.1 124.5 L 76.0 118.4 L 80.5 112.1 L 84.8 105.5 L 88.8 98.7 L 89.92325582504273 96.4 L 43.1 96.4 L 43.1 92.4 L 94.5 92.4 L 94.5 63.7 L 53.2 63.7 L 53.2 59.7 L 94.5 59.7 L 94.5 35.9 L 106.5 37.9 L 109.5 39.9 L 106.5 41.7 L 106.5 59.7 L 125.7 59.7 L 135.7 49.7 L 147.7 59.7 L 147.7 63.7 L 106.5 63.7 L 106.5 92.4 L 135.8 92.4 L 145.8 82.4 L 157.8 92.4 L 157.8 96.4 L 106.5 96.4 L 106.5 96.67333335876465 L 109.6 100.6 L 114.2 106.1 L 118.7 111.4 L 123.5 116.4 L 128.4 121.2 L 133.6 125.8 L 139.0 130.0 L 144.6 134.0 L 150.4 137.8 L 156.5 141.3 L 160.8 143.9 L 149.7 152.6 L 143.4 148.2 Z " />
</g>
</svg>
