<svg xmlns="http://www.w3.org/2000/svg" xmlns:xlink="http://www.w3.org/1999/xlink" version="1.1" baseProfile="full" viewBox="0 0 200 200" width="200" height="200">
<g fill="black">
<path d="M 36.0 26.0 L 165.0 26.0 L 171.0 21.0 L 182.0 30.0 L 177.0 34.0 L 177.0 179.0 L 165.0 185.0 L 165.0 175.0 L 36.0 175.0 L 36.0 182.0 L 24.0 188.0 L 24.0 20.0 Z M 36.0 30.0 L 36.0 171.0 L 165.0 171.0 L 165.0 30.0 Z M 45.1 151.7 L 49.3 151.4 L 53.8 151.0 L 54.2 150.95918369293213 L 54.2 101.9 L 59.7 102.8166666984558 L 59.7 79.98297872543336 L 59.3 80.4 L 54.4 85.0 L 49.0 89.1 L 43.3 92.8 L 42.2 91.4 L 46.5 86.3 L 50.5 81.3 L 54.4 76.1 L 57.9 70.9 L 59.7 67.95454549789429 L 59.7 63.5 L 61.74964542388916 64.52482271194458 L 64.3 60.0 L 67.0 54.3 L 69.5 48.4 L 71.7 42.3 L 73.32254047393799 37.005394268035886 L 73.3 37.0 L 74.1 34.5 L 85.0 39.8 L 87.2 42.6 L 83.51029024124145 43.441512775421145 L 82.3 46.4 L 82.159375 46.7 L 111.8 46.7 L 117.8 41.7 L 128.8 50.7 L 123.8 53.7 L 120.38682632446289 55.12215566635132 L 120.0 55.6 L 118.2 57.7 L 116.2 59.8 L 114.0 61.9 L 111.8 63.9 L 109.3 66.0 L 106.7 68.0 L 104.41052627563477 69.5 L 135.5 69.5 L 141.5 64.5 L 152.5 73.5 L 147.5 77.5 L 147.5 100.5 L 135.5 106.5 L 135.5 98.5 L 71.7 98.5 L 62.225 103.2375 L 66.2 103.9 L 69.2 105.9 L 66.2 107.7 L 66.2 122.3 L 81.01818180084229 122.3 L 89.2 113.3 L 99.2 122.3 L 99.2 126.3 L 66.2 126.3 L 66.2 149.74909086227416 L 69.4 149.4 L 75.3 148.8 L 81.5 148.1 L 88.1 147.5 L 95.0 147.0 L 102.3 146.6 L 102.6 148.3 L 95.7 150.7 L 89.1 152.8 L 82.7 154.6 L 76.7 156.2 L 70.9 157.8 L 65.5 159.1 L 60.4 160.4 L 55.6 161.6 L 51.1 162.6 L 51.006280994415285 162.62231407165527 L 49.3 166.2 L 46.9 163.6 L 43.1 152.0 Z M 119.3 161.3 L 116.9 161.0 L 114.7 160.4 L 112.5 159.4 L 110.5 157.9 L 108.8 156.1 L 107.5 154.0 L 106.6 151.7 L 106.0 149.3 L 105.7 146.7 L 105.7 101.9 L 117.7 103.9 L 120.7 105.9 L 117.7 107.7 L 117.7 126.25 L 120.0 125.1 L 124.1 123.3 L 128.0 121.5 L 131.9 119.8 L 135.6 118.2 L 139.1 116.5 L 142.5 115.0 L 145.8 113.4 L 148.05168914794922 112.31047296524048 L 148.0 112.2 L 148.09979238510132 112.28719720840454 L 148.9 111.9 L 149.50595664978027 113.51588449478149 L 158.3 121.2 L 158.5 124.3 L 154.48154983520507 122.59520292282104 L 153.1 123.1 L 149.6 124.0 L 146.0 124.9 L 142.3 125.8 L 138.4 126.7 L 134.3 127.5 L 130.1 128.3 L 125.8 129.1 L 121.3 129.7 L 117.7 130.16956520080566 L 117.7 146.7 L 117.6 148.0 L 117.6 148.9 L 117.7 149.6 L 117.8 150.1 L 117.9 150.5 L 118.1 150.9 L 118.6 151.3 L 119.3 151.7 L 120.3 152.0 L 121.7 152.2 L 149.5 152.2 L 154.0 139.2 L 156.0 139.2 L 154.0 152.2 L 156.7 154.0 L 158.5 156.7 L 156.7 159.4 L 154.0 161.2 L 121.7 161.2 Z M 71.7 73.5 L 71.7 94.5 L 135.5 94.5 L 135.5 73.5 Z M 80.284375 50.7 L 79.3 52.8 L 75.9 58.9 L 72.3 64.7 L 69.61578950881957 68.45789470672608 L 71.7 69.5 L 100.94074077606201 69.5 L 102.0 68.2 L 103.6 65.2 L 105.2 62.5 L 106.7 59.8 L 108.1 57.3 L 110.3 52.5 L 110.95454549789429 50.7 Z " />
</g>
</svg>
