<svg xmlns="http://www.w3.org/2000/svg" xmlns:xlink="http://www.w3.org/1999/xlink" version="1.1" baseProfile="full" viewBox="0 0 200 200" width="200" height="200">
<g fill="black">
<path d="M 169.0 178.1 L 167.4 179.9 L 165.5 181.5 L 163.5 182.9 L 161.4 184.0 L 159.1 184.9 L 156.7 185.5 L 154.3 185.8 L 151.8 186.0 L 151.8 180.0 L 131.8 177.0 L 131.8 174.0 L 151.8 174.0 L 153.1 173.9 L 154.4 173.7 L 155.5 173.4 L 156.4 173.1 L 157.3 172.6 L 158.2 172.0 L 159.7 170.5 L 160.4 169.5 L 161.1 168.3 L 162.6 164.8 L 164.1 159.7 L 165.4 152.9 L 166.7 144.7 L 167.7 134.9 L 168.5 123.8 L 169.2 111.2 L 169.7 97.2 L 170.0 81.8 L 170.0880952835083 67.0 L 147.5709677696228 67.0 L 146.9 82.6 L 145.2 99.9 L 142.6 115.9 L 139.0 130.6 L 134.5 143.9 L 128.9 155.8 L 122.5 166.4 L 115.0 175.4 L 106.6 182.9 L 97.3 188.7 L 96.3 187.2 L 104.1 180.1 L 110.9 172.0 L 116.9 162.8 L 122.1 152.5 L 126.5 141.0 L 130.0 128.2 L 132.7 114.1 L 134.6 98.7 L 135.6 82.0 L 135.6833333015442 67.0 L 110.2 67.0 L 110.2 63.0 L 135.7 63.0 L 135.7 18.0 L 147.7 20.0 L 150.7 22.0 L 147.7 23.8 L 147.7 63.0 L 170.1 63.0 L 176.1 58.0 L 187.1 67.0 L 182.1 70.0 L 182.0703411102295 70.01235790252686 L 182.0 81.9 L 181.7 97.5 L 181.2 111.7 L 180.5 124.6 L 179.6 136.0 L 178.6 146.2 L 177.3 155.0 L 175.7 162.5 L 173.9 168.7 L 171.7 173.9 L 170.5 176.1 Z M 111.5 24.0 L 111.5 28.0 L 66.8 28.0 L 66.8 57.0 L 91.9 57.0 L 97.9 52.0 L 108.9 61.0 L 103.9 65.0 L 103.9 168.0 L 91.9 174.0 L 91.9 168.0 L 30.3 168.0 L 30.3 180.0 L 18.3 186.0 L 18.3 51.0 L 30.3 57.0 L 54.8 57.0 L 54.8 28.0 L 11.8 28.0 L 11.8 24.0 L 89.5 24.0 L 99.5 14.0 Z M 79.7 95.1 L 77.8 91.6 L 75.7 88.2 L 73.4 84.9 L 71.0 81.5 L 65.8 74.9 L 63.7748218536377 72.51318292617798 L 63.7 72.8 L 61.5 79.4 L 58.7 85.4 L 57.13301887512207 88.10660381317139 L 69.1 90.5 L 72.1 92.5 L 68.833021068573 94.46018733978272 L 68.5 99.4 L 67.3 107.8 L 65.5 115.8 L 63.74117107391358 121.29634037017823 L 64.1 121.5 L 67.9 123.7 L 71.3 126.1 L 74.6 128.7 L 77.7 131.5 L 80.5 134.4 L 83.2 137.5 L 85.7 140.8 L 88.0 144.2 L 90.0 147.8 L 90.1 152.4 L 87.0 155.7 L 82.4 155.8 L 79.1 152.6 L 77.9 149.3 L 76.6 146.1 L 75.1 142.9 L 73.4 139.7 L 71.5 136.5 L 69.4 133.4 L 67.2 130.3 L 64.8 127.1 L 62.61501054763794 124.4107822418213 L 60.0 130.4 L 56.3 136.9 L 52.1 142.9 L 47.2 148.3 L 41.6 153.1 L 35.5 157.1 L 34.4 155.7 L 39.0 150.3 L 43.1 144.8 L 46.6 139.2 L 49.7 133.3 L 52.2 127.0 L 54.2 120.5 L 55.7 113.6 L 56.7 106.3 L 57.2 98.6 L 57.1123330116272 91.4989722251892 L 57.1 91.5 L 57.1 88.16363639831543 L 55.4 91.1 L 51.6 96.2 L 47.3 100.7 L 42.6 104.7 L 37.3 108.1 L 31.6 110.7 L 30.7 109.2 L 35.0 105.0 L 38.9 100.8 L 42.4 96.4 L 45.4 91.7 L 48.0 86.8 L 50.2 81.7 L 52.0 76.1 L 53.3 70.3 L 54.3 64.0 L 54.52727270126343 61.0 L 30.3 61.0 L 30.3 164.0 L 91.9 164.0 L 91.9 103.8285714149475 L 91.3 104.6 L 86.8 105.0 L 83.2 102.2 L 81.5 98.6 Z M 66.36081085205078 61.0 L 65.5 65.9 L 64.73003797531128 68.85152091979981 L 65.0 69.0 L 69.0 71.3 L 72.7 73.8 L 76.2 76.6 L 79.5 79.5 L 82.7 82.6 L 85.7 85.8 L 88.5 89.2 L 91.2 92.8 L 91.9 93.83599996566772 L 91.9 61.0 Z " />
</g>
</svg>
