<svg xmlns="http://www.w3.org/2000/svg" xmlns:xlink="http://www.w3.org/1999/xlink" version="1.1" baseProfile="full" viewBox="0 0 200 200" width="200" height="200">
<g fill="black">
<path d="M 106.0 15.0 L 109.0 17.0 L 106.0 18.8 L 106.0 32.0 L 165.8181818008423 32.0 L 174.0 23.0 L 184.0 32.0 L 184.0 36.0 L 106.0 36.0 L 106.0 47.2 L 154.3 47.2 L 160.3 42.2 L 171.3 51.2 L 166.3 55.2 L 166.3 70.7 L 154.3 76.7 L 154.3 70.7 L 106.0 70.7 L 106.0 85.6 L 162.6 85.6 L 168.1 80.6 L 178.6 89.6 L 173.6 93.1 L 173.6 176.8 L 162.6 182.3 L 162.6 170.8 L 38.8 170.8 L 38.8 182.8 L 26.8 188.8 L 26.8 79.6 L 38.8 85.6 L 94.0 85.6 L 94.0 70.7 L 45.6 70.7 L 33.6 76.7 L 33.6 41.2 L 45.6 47.2 L 94.0 47.2 L 94.0 36.0 L 16.0 36.0 L 16.0 32.0 L 94.0 32.0 L 94.0 13.0 Z M 130.8 155.5 L 138.8 155.5 L 139.7 155.4 L 140.4 155.3 L 141.2 154.9 L 141.4 154.6 L 141.6 154.1 L 141.8 153.4 L 142.0 152.3 L 142.0 149.0 L 125.1 149.0 L 125.1 158.8 L 113.1 164.8 L 113.1 149.0 L 97.4 149.0 L 97.4 158.8 L 85.4 164.8 L 85.4 133.5666666984558 L 84.1 134.3 L 80.1 136.5 L 75.9 138.4 L 71.5 140.1 L 67.0 141.7 L 66.2 140.1 L 69.8 137.2 L 73.3 134.2 L 76.7 131.3 L 83.1 125.5 L 85.4 123.27666664123535 L 85.4 122.9 L 85.78965520858765 122.9 L 89.1 119.7 L 91.8 116.7 L 72.3 116.7 L 72.3 112.7 L 95.4 112.7 L 95.4 104.8 L 82.2 104.8 L 82.2 100.8 L 95.4 100.8 L 95.4 91.5 L 107.4 93.5 L 110.4 95.5 L 107.4 97.3 L 107.4 100.8 L 126.6 100.8 L 126.6 91.5 L 138.6 93.5 L 141.6 95.5 L 138.6 97.3 L 138.6 100.8 L 142.5777777671814 100.8 L 148.8 93.8 L 156.8 100.8 L 156.8 104.8 L 138.6 104.8 L 138.6 112.7 L 152.6 112.7 L 157.1 106.7 L 162.6 112.2 L 162.6 89.6 L 69.92054796218872 89.6 L 78.6 96.2 L 80.1 99.5 L 76.22521009445191 99.36638650894164 L 75.3 100.6 L 71.8 105.0 L 68.2 109.2 L 64.4 113.3 L 61.42857141494751 116.27142858505249 L 65.2 116.9 L 68.2 118.9 L 65.2 120.7 L 65.2 159.2 L 53.2 165.2 L 53.2 123.70681819915771 L 51.9 124.8 L 47.4 128.3 L 42.6 131.6 L 38.8 133.8800000190735 L 38.8 166.8 L 162.6 166.8 L 162.6 116.7 L 108.15609760284424 116.7 L 105.8 118.8 L 102.5 121.7 L 100.9444444656372 122.9 L 142.0 122.9 L 147.5 117.9 L 158.0 126.9 L 153.0 130.4 L 153.0 151.0 L 152.9 153.4 L 152.5 155.8 L 151.9 158.0 L 150.9 160.2 L 149.5 162.1 L 147.7 163.8 L 145.7 165.0 L 143.4 165.9 L 141.1 166.3 L 138.8 166.5 L 138.8 161.0 L 130.8 158.2 Z M 97.4 138.0 L 97.4 145.0 L 113.1 145.0 L 113.1 138.0 Z M 125.1 138.0 L 125.1 145.0 L 142.0 145.0 L 142.0 138.0 Z M 97.4 126.9 L 97.4 134.0 L 113.1 134.0 L 113.1 126.9 Z M 125.1 126.9 L 125.1 134.0 L 142.0 134.0 L 142.0 126.9 Z M 38.8 89.6 L 38.8 130.34594593048095 L 40.1 128.8 L 43.7 124.4 L 47.3 120.1 L 50.7 115.9 L 54.1 111.6 L 60.3 103.0 L 63.2 98.6 L 65.9 94.2 L 68.5 89.7 L 68.52133502960206 89.71373043060302 L 68.58823528289795 89.6 Z M 107.4 104.8 L 107.4 112.7 L 126.6 112.7 L 126.6 104.8 Z M 45.6 51.2 L 45.6 66.7 L 94.0 66.7 L 94.0 51.2 Z M 106.0 51.2 L 106.0 66.7 L 154.3 66.7 L 154.3 51.2 Z " />
</g>
</svg>
