<svg xmlns="http://www.w3.org/2000/svg" xmlns:xlink="http://www.w3.org/1999/xlink" version="1.1" baseProfile="full" viewBox="0 0 200 200" width="200" height="200">
<g fill="black">
<path d="M 36.0 26.0 L 165.0 26.0 L 171.0 21.0 L 182.0 30.0 L 177.0 34.0 L 177.0 179.0 L 165.0 185.0 L 165.0 175.0 L 36.0 175.0 L 36.0 182.0 L 24.0 188.0 L 24.0 20.0 Z M 36.0 30.0 L 36.0 171.0 L 165.0 171.0 L 165.0 30.0 Z M 134.7 151.1 L 127.9 145.7 L 122.0 139.7 L 117.0 133.1 L 113.1 126.0 L 110.1 118.4 L 108.2 110.4 L 107.95661134719849 107.84441900253296 L 103.1 116.6 L 95.3 128.0 L 86.6 137.8 L 77.2 146.0 L 67.1 152.6 L 56.3 157.5 L 44.9 160.6 L 44.4 158.9 L 54.8 154.0 L 64.3 148.0 L 73.0 140.9 L 81.1 132.6 L 88.4 123.0 L 95.1 112.0 L 101.0 99.6 L 106.4 85.8 L 111.0 70.7 L 114.10598802566528 57.4 L 87.55352115631104 57.4 L 85.5 62.8 L 82.5 69.6 L 79.1 75.9 L 75.4 81.9 L 71.3 87.5 L 66.9 92.7 L 62.0 97.3 L 56.8 101.4 L 55.5 100.1 L 59.2 94.8 L 62.6 89.4 L 65.8 83.9 L 68.8 78.1 L 71.5 72.2 L 73.9 65.9 L 76.1 59.4 L 77.9 52.6 L 79.5 45.5 L 80.63897409439087 39.104222202301024 L 80.6 39.1 L 81.2 36.3 L 92.6 40.4 L 95.1 43.0 L 91.60104932785035 44.29590768814087 L 90.6 48.2 L 88.93599996566772 53.4 L 114.8 53.4 L 120.8 48.4 L 131.8 57.4 L 126.8 60.4 L 125.42564668655396 60.972647190093994 L 121.9 73.8 L 116.4 89.6 L 111.41259317398071 101.0227705001831 L 111.5 101.4 L 113.9 108.9 L 116.8 115.8 L 120.4 122.0 L 124.6 127.6 L 129.4 132.6 L 134.9 137.1 L 141.1 141.2 L 148.1 144.8 L 155.9 147.9 L 162.5 150.5 L 151.0 160.2 L 142.4 155.9 Z " />
</g>
</svg>
