<svg xmlns="http://www.w3.org/2000/svg" xmlns:xlink="http://www.w3.org/1999/xlink" version="1.1" baseProfile="full" viewBox="0 0 200 200" width="200" height="200">
<g fill="black">
<path d="M 35.5 26.0 L 164.0 26.0 L 170.0 21.0 L 181.0 30.0 L 176.0 34.0 L 176.0 178.0 L 164.0 184.0 L 164.0 174.0 L 35.5 174.0 L 35.5 181.0 L 24.5 186.5 L 24.5 20.5 Z M 35.5 30.0 L 35.5 170.0 L 164.0 170.0 L 164.0 30.0 Z M 59.2 66.4 L 95.0 66.4 L 95.0 52.2 L 105.0 54.2 L 107.5 56.2 L 105.0 57.86666669845581 L 105.0 66.4 L 138.21818180084227 66.4 L 146.4 57.4 L 156.4 66.4 L 156.4 70.4 L 59.2 70.4 L 59.2 82.2 L 77.0 82.2 L 77.0 72.5 L 89.0 74.5 L 92.0 76.5 L 89.0 78.3 L 89.0 82.2 L 106.2 82.2 L 106.2 72.5 L 118.2 74.5 L 121.2 76.5 L 118.2 78.3 L 118.2 82.2 L 135.4 82.2 L 141.4 77.2 L 152.4 86.2 L 147.4 90.2 L 147.4 104.0 L 135.4 110.0 L 135.4 104.0 L 89.34805192947388 104.0 L 86.61590909957886 113.9 L 144.87777776718139 113.9 L 151.1 106.9 L 159.1 113.9 L 159.1 117.9 L 85.51201295852661 117.9 L 82.94545450210572 127.2 L 142.9 127.2 L 148.9 122.2 L 159.9 131.2 L 154.9 134.2 L 154.66774196624755 134.29677419662477 L 154.6 136.6 L 154.3 139.8 L 154.1 142.7 L 153.7 145.3 L 153.4 147.7 L 153.0 149.8 L 152.5 151.8 L 151.9 153.6 L 151.0 155.4 L 149.6 157.5 L 148.1 159.4 L 146.4 161.1 L 144.5 162.7 L 142.5 164.0 L 140.3 165.1 L 138.0 165.9 L 135.7 166.5 L 133.2 166.8 L 130.8 166.9 L 130.8 160.9 L 110.8 157.9 L 110.8 155.25135135650635 L 109.5 156.2 L 105.0 155.5 L 102.2 151.9 L 102.4 150.7 L 102.4 149.4 L 102.3 148.1 L 102.0 146.7 L 101.6 145.2 L 101.0 143.7 L 100.3 142.2 L 99.5 140.5 L 98.4 138.8 L 96.9 137.5 L 97.9 136.0 L 99.7 137.1 L 101.7 137.8 L 103.7 138.7 L 105.5 139.7 L 107.2 140.9 L 108.8 142.2 L 110.3 143.7 L 111.6 145.3 L 112.8 147.0 L 113.9 148.9 L 113.2 153.5 L 111.2814814567566 154.9 L 132.2 154.9 L 133.4 154.7 L 134.6 154.4 L 135.6 154.0 L 136.5 153.6 L 137.4 153.0 L 138.3 152.3 L 139.1 151.4 L 139.9 150.4 L 140.7 149.3 L 140.7 149.1 L 141.0 148.4 L 141.3 147.2 L 141.6 145.7 L 141.9 143.7 L 142.1 141.4 L 142.4 138.8 L 142.6 135.9 L 142.8 132.6 L 142.83888893127443 131.2 L 81.8415584564209 131.2 L 81.4 132.8 L 68.2 135.4 L 76.8491018295288 104.0 L 59.2 104.0 L 59.2 117.8 L 58.8 124.7 L 58.0 131.1 L 57.0 137.0 L 55.7 142.5 L 54.0 147.4 L 52.0 151.9 L 49.7 155.9 L 47.0 159.3 L 43.9 162.1 L 40.6 164.1 L 39.6 162.8 L 41.5 159.8 L 43.0 156.6 L 44.4 153.2 L 45.6 149.4 L 46.6 145.3 L 47.4 140.7 L 48.0 135.6 L 48.3 130.2 L 48.4 124.2 L 48.2 117.8 L 48.2 60.9 Z M 56.7 162.1 L 55.7 157.6 L 58.0 153.7 L 59.0 153.4 L 60.0 152.9 L 61.2 152.0 L 62.3 150.9 L 63.4 149.3 L 64.5 147.4 L 65.5 145.2 L 66.5 142.6 L 67.4 139.8 L 67.8 136.6 L 69.6 136.6 L 69.8 139.9 L 70.3 143.0 L 70.5 146.0 L 70.6 148.8 L 70.4 151.6 L 69.9 154.2 L 69.2 156.7 L 68.2 159.1 L 66.8 161.3 L 65.1 163.4 L 60.7 164.4 Z M 86.8 159.5 L 82.8 157.4 L 81.2 153.1 L 81.7 152.1 L 82.1 151.0 L 82.3 149.8 L 82.5 148.4 L 82.4 146.9 L 82.3 145.2 L 81.9 143.4 L 81.4 141.4 L 80.8 139.4 L 79.5 137.6 L 80.9 136.4 L 82.5 138.1 L 84.3 139.4 L 86.1 140.9 L 87.6 142.4 L 89.0 144.1 L 90.2 145.8 L 91.3 147.7 L 92.1 149.6 L 92.8 151.7 L 93.2 153.9 L 91.1 158.0 Z M 122.1 146.5 L 121.8 145.2 L 121.4 143.9 L 120.9 142.6 L 120.2 141.3 L 119.4 139.9 L 118.5 138.5 L 117.5 137.1 L 116.1 136.2 L 116.9 134.6 L 118.5 135.3 L 120.4 135.7 L 122.2 136.1 L 124.0 136.8 L 125.7 137.5 L 127.4 138.5 L 128.9 139.5 L 130.5 140.7 L 131.9 142.1 L 133.2 143.5 L 133.5 148.1 L 130.5 151.6 L 126.0 151.8 L 122.5 148.9 L 122.4 147.7 Z M 59.2 86.2 L 59.2 100.0 L 77.0 100.0 L 77.0 86.2 Z M 89.0 86.2 L 89.0 100.0 L 106.2 100.0 L 106.2 86.2 Z M 118.2 86.2 L 118.2 100.0 L 135.4 100.0 L 135.4 86.2 Z M 124.5 35.3 L 127.2 37.3 L 124.5 39.02340421676636 L 124.5 45.4 L 140.9181818008423 45.4 L 149.1 36.4 L 159.1 45.4 L 159.1 49.4 L 124.5 49.4 L 124.5 57.4 L 113.5 62.9 L 113.5 49.4 L 86.4 49.4 L 86.4 57.4 L 75.4 62.9 L 75.4 49.4 L 40.8 49.4 L 40.8 45.4 L 75.4 45.4 L 75.4 33.3 L 86.4 35.3 L 89.2 37.3 L 86.4 39.05 L 86.4 45.4 L 113.5 45.4 L 113.5 33.3 Z " />
</g>
</svg>
