<svg xmlns="http://www.w3.org/2000/svg" xmlns:xlink="http://www.w3.org/1999/xlink" version="1.1" baseProfile="full" viewBox="0 0 200 200" width="200" height="200">
<g fill="black">
<path d="M 36.0 26.0 L 165.0 26.0 L 171.0 21.0 L 182.0 30.0 L 177.0 34.0 L 177.0 179.0 L 165.0 185.0 L 165.0 175.0 L 36.0 175.0 L 36.0 182.0 L 24.0 188.0 L 24.0 20.0 Z M 36.0 30.0 L 36.0 171.0 L 165.0 171.0 L 165.0 30.0 Z M 148.2 130.9 L 150.2 130.9 L 148.2 147.9 L 151.2 149.9 L 153.2 152.9 L 151.2 155.9 L 148.2 157.9 L 106.6 157.9 L 104.2 157.8 L 101.8 157.5 L 99.5 156.9 L 97.2 155.8 L 95.3 154.3 L 93.6 152.4 L 92.3 150.2 L 91.4 147.9 L 90.9 145.4 L 90.6 142.9 L 90.6 98.36046514511108 L 49.8 103.5 L 49.3 99.5 L 90.6 94.29748058319092 L 90.6 60.62282609939575 L 85.1 61.4 L 75.4 62.5 L 65.1 63.4 L 54.2 64.0 L 53.9 62.3 L 64.5 59.6 L 74.5 57.2 L 83.9 54.9 L 92.8 52.7 L 101.2 50.5 L 109.0 48.4 L 116.2 46.3 L 122.8 44.1 L 128.9 42.1 L 133.51632194519044 40.337404346466066 L 133.5 40.3 L 133.5351818084717 40.330203247070315 L 134.4 40.0 L 134.92607660293578 41.5242733001709 L 144.1 49.4 L 144.3 52.5 L 140.18232192993165 50.683377265930176 L 138.3 51.3 L 132.2 52.9 L 125.7 54.5 L 118.6 56.0 L 111.0 57.4 L 102.9 58.8 L 102.6 58.845348834991455 L 102.6 92.78585271835327 L 130.66238384246827 89.25086250305176 L 139.4 78.1 L 152.5 86.5 L 153.0 90.5 L 102.6 96.848837184906 L 102.6 144.1 L 102.7 145.1 L 102.8 145.7 L 102.9 146.2 L 103.0 146.5 L 103.2 146.8 L 103.6 147.1 L 104.3 147.4 L 105.3 147.7 L 106.6 147.9 L 143.2 147.9 Z " />
</g>
</svg>
