<svg xmlns="http://www.w3.org/2000/svg" xmlns:xlink="http://www.w3.org/1999/xlink" version="1.1" baseProfile="full" viewBox="0 0 200 200" width="200" height="200">
<g fill="black">
<path d="M 189.6 123.2 L 190.9 126.5 L 187.19796533584594 126.30851545333863 L 182.8 132.0 L 175.7 140.4 L 168.3 148.2 L 160.5 155.6 L 152.3 162.4 L 143.8 168.7 L 135.0 174.4 L 125.8 179.5 L 116.3 184.0 L 106.4 187.8 L 105.6 186.1 L 114.5 180.6 L 123.1 174.9 L 131.3 168.9 L 139.2 162.6 L 146.8 155.9 L 154.0 148.8 L 160.9 141.4 L 167.5 133.5 L 173.7 125.1 L 179.6 116.4 L 179.62293577194214 116.41559629440307 L 180.1 115.7 Z M 19.1 172.8 L 26.4 172.2 L 34.1 171.5 L 42.3 170.8 L 50.8 169.9 L 57.0 169.27303371429443 L 57.0 138.3 L 18.9 138.3 L 18.9 134.3 L 57.0 134.3 L 57.0 109.8 L 69.0 111.8 L 72.0 113.8 L 69.0 115.6 L 69.0 134.3 L 87.6 134.3 L 97.6 124.3 L 109.6 134.3 L 109.6 138.3 L 69.0 138.3 L 69.0 168.10957450866698 L 69.1 168.1 L 78.8 167.0 L 89.0 166.0 L 99.6 165.1 L 110.7 164.3 L 111.0 166.0 L 100.2 168.8 L 89.9 171.3 L 79.9 173.5 L 70.2 175.6 L 61.0 177.4 L 52.1 179.1 L 43.7 180.7 L 35.6 182.2 L 27.9 183.5 L 24.660404682159424 184.03253622055053 L 22.9 187.5 L 20.6 184.7 L 17.1 173.0 Z M 182.5 74.2 L 183.8 77.6 L 180.04196300506592 77.34082508087158 L 177.1 81.1 L 171.4 87.8 L 165.5 94.1 L 159.3 100.2 L 152.9 106.0 L 146.3 111.5 L 139.4 116.6 L 132.2 121.4 L 124.7 125.8 L 116.9 129.7 L 116.0 128.2 L 122.5 122.7 L 129.0 117.1 L 135.2 111.5 L 141.3 105.7 L 147.1 99.8 L 152.7 93.7 L 158.0 87.4 L 163.1 80.9 L 168.0 74.2 L 172.13935079574586 68.12308073043823 L 172.1 68.1 L 173.2 66.6 Z M 97.5 90.9 L 92.4 87.5 L 87.6 83.9 L 83.0 80.1 L 78.6 76.1 L 74.5 71.8 L 70.7 67.3 L 69.0 64.96857147216797 L 69.0 98.0 L 57.0 104.0 L 57.0 69.98636360168457 L 56.8 70.2 L 52.0 74.7 L 47.0 78.9 L 41.6 82.8 L 36.0 86.4 L 30.0 89.6 L 23.8 92.4 L 17.2 94.8 L 10.4 96.8 L 9.7 95.1 L 15.6 91.4 L 21.3 87.7 L 26.6 84.0 L 31.7 80.1 L 36.4 76.1 L 40.8 71.9 L 45.0 67.6 L 48.8 63.1 L 52.15106382369995 58.6 L 30.4 58.6 L 30.4 65.6 L 18.4 71.6 L 18.4 25.8 L 30.4 27.8 L 33.4 29.8 L 30.4 31.6 L 30.4 54.6 L 54.781632614135745 54.6 L 55.5 53.5 L 57.0 54.54545450210571 L 57.0 13.0 L 69.0 15.0 L 72.0 17.0 L 69.0 18.8 L 69.0 54.6 L 95.5 54.6 L 95.5 25.8 L 107.5 27.8 L 110.5 29.8 L 107.5 31.6 L 107.5 62.6 L 95.5 68.6 L 95.5 58.6 L 69.0 58.6 L 69.0 58.70638294219971 L 70.2 59.6 L 74.8 63.1 L 79.3 66.4 L 83.9 69.6 L 88.6 72.6 L 93.3 75.5 L 98.2 78.1 L 103.2 80.6 L 108.3 82.8 L 113.5 84.9 L 119.6 87.6 L 108.2 97.0 L 102.7 94.1 Z M 177.2 26.3 L 178.5 29.7 L 174.6828405380249 29.37093448638916 L 172.2 32.4 L 166.9 38.4 L 161.5 44.2 L 155.8 49.8 L 149.9 55.2 L 143.8 60.4 L 137.5 65.4 L 130.9 70.1 L 124.1 74.6 L 117.0 78.7 L 115.9 77.2 L 121.8 71.6 L 133.2 60.4 L 138.7 54.8 L 144.0 49.1 L 149.1 43.4 L 154.0 37.5 L 158.7 31.5 L 163.2 25.4 L 167.0224274635315 20.013852214813234 L 167.0 20.0 L 168.0 18.6 Z " />
</g>
</svg>
