<svg xmlns="http://www.w3.org/2000/svg" xmlns:xlink="http://www.w3.org/1999/xlink" version="1.1" baseProfile="full" viewBox="0 0 200 200" width="200" height="200">
<g fill="black">
<path d="M 147.4129909515381 112.14631652832031 L 148.5 115.7 L 151.3 123.7 L 154.4 131.3 L 157.9 138.5 L 161.9 145.3 L 166.3 151.6 L 171.2 157.6 L 176.6 163.2 L 182.4 168.4 L 188.7 173.3 L 191.6 175.5 L 180.6 183.7 L 174.0 177.7 L 168.0 171.3 L 162.6 164.5 L 157.8 157.3 L 153.7 149.8 L 150.3 142.0 L 147.6 133.8 L 145.6 125.3 L 145.48021717071532 124.42159223556519 L 144.7 128.5 L 141.7 139.2 L 137.9 149.1 L 133.1 158.1 L 127.5 166.3 L 121.1 173.5 L 113.8 179.8 L 105.7 184.9 L 96.8 189.0 L 96.0 187.5 L 103.6 181.8 L 110.3 175.7 L 116.2 169.1 L 121.3 161.9 L 125.7 154.0 L 129.3 145.5 L 132.1 136.3 L 134.2 126.4 L 135.6 115.6 L 135.975652217865 108.4 L 102.9 108.4 L 102.9 104.4 L 136.18434782028197 104.4 L 136.2 104.1 L 136.2 57.7 L 113.7 57.7 L 113.7 53.7 L 136.2 53.7 L 136.2 16.6 L 148.2 18.6 L 151.2 20.6 L 148.2 22.4 L 148.2 53.7 L 163.6 53.7 L 169.6 48.7 L 180.6 57.7 L 175.6 61.7 L 175.6 104.4 L 179.6 104.4 L 184.1 98.4 L 190.1 104.4 L 190.1 108.4 L 147.8089430809021 108.4 Z M 14.0 133.7 L 13.3 129.1 L 15.9 125.4 L 16.9 125.2 L 18.1 124.7 L 19.3 123.8 L 20.5 122.7 L 21.7 121.1 L 22.9 119.2 L 24.0 116.9 L 25.1 114.3 L 26.2 111.4 L 26.6 108.1 L 28.4 108.1 L 28.5 111.6 L 28.9 114.8 L 29.0 117.9 L 28.9 120.9 L 28.6 123.7 L 28.0 126.4 L 27.0 129.0 L 25.8 131.4 L 24.2 133.6 L 22.2 135.6 L 17.7 136.3 Z M 91.1 127.1 L 90.7 125.1 L 90.1 123.1 L 89.3 121.0 L 88.3 118.7 L 87.2 116.4 L 85.8 113.9 L 84.3 111.4 L 82.3 109.0 L 83.5 107.7 L 86.0 109.6 L 88.7 111.3 L 91.1 113.0 L 93.4 114.9 L 95.4 116.8 L 97.3 118.8 L 99.0 120.9 L 100.5 123.1 L 101.9 125.4 L 103.0 127.8 L 102.2 132.3 L 98.6 135.0 L 94.1 134.2 L 91.3 130.6 L 91.3 128.9 Z M 66.3 125.4 L 66.3 123.7 L 66.1 122.0 L 65.8 120.1 L 65.3 118.2 L 64.6 116.1 L 63.8 113.9 L 62.8 111.6 L 61.2 109.6 L 62.5 108.4 L 64.4 110.1 L 66.6 111.6 L 68.7 113.2 L 70.5 114.9 L 72.2 116.7 L 73.7 118.6 L 75.0 120.7 L 76.2 122.8 L 77.1 125.0 L 77.9 127.4 L 76.4 131.7 L 72.4 133.9 L 68.1 132.4 L 65.9 128.4 L 66.2 126.9 Z M 64.0 133.2 L 67.0 135.2 L 64.0 137.0 L 64.0 148.7 L 73.8 148.7 L 83.8 138.7 L 95.8 148.7 L 95.8 152.7 L 64.0 152.7 L 64.0 169.2674157142639 L 65.0 169.2 L 74.1 168.6 L 83.4 168.0 L 92.9 167.6 L 102.6 167.2 L 102.9 169.0 L 93.4 171.3 L 84.1 173.3 L 74.9 175.1 L 65.9 176.8 L 57.1 178.3 L 48.4 179.7 L 40.0 181.0 L 31.7 182.2 L 23.7 183.4 L 19.839636898040773 183.88865356445314 L 18.0 187.2 L 15.8 184.4 L 12.7 172.7 L 14.6 172.5 L 22.5 172.0 L 30.6 171.5 L 38.9 171.0 L 47.4 170.4 L 52.0 170.0827586174011 L 52.0 152.7 L 18.0 152.7 L 18.0 148.7 L 52.0 148.7 L 52.0 131.6380952835083 L 51.6 132.4 L 47.2 133.9 L 43.2 131.7 L 41.7 127.4 L 42.3 126.0 L 42.7 124.5 L 43.0 122.9 L 43.2 121.3 L 43.2 119.5 L 43.1 117.7 L 42.9 115.8 L 42.6 113.7 L 42.1 111.6 L 41.0 109.6 L 42.5 108.6 L 44.0 110.4 L 45.7 111.9 L 47.4 113.6 L 48.8 115.4 L 50.1 117.4 L 51.2 119.4 L 52.1 121.5 L 52.8 123.7 L 53.4 126.0 L 53.7 128.4 L 52.211494255065915 131.235249042511 Z M 163.6 57.7 L 148.2 57.7 L 148.2 104.4 L 163.6 104.4 Z M 12.3 98.0 L 51.5 98.0 L 51.5 83.9 L 19.7 83.9 L 19.7 79.9 L 51.5 79.9 L 51.5 64.3 L 34.1 64.3 L 34.1 67.3 L 22.1 73.3 L 22.1 12.3 L 34.1 18.3 L 80.9 18.3 L 86.9 13.3 L 97.9 22.3 L 92.9 26.3 L 92.9 66.3 L 80.9 72.3 L 80.9 64.3 L 63.5 64.3 L 63.5 79.9 L 77.11818180084228 79.9 L 85.3 70.9 L 95.3 79.9 L 95.3 83.9 L 63.5 83.9 L 63.5 98.0 L 80.6 98.0 L 90.6 88.0 L 102.6 98.0 L 102.6 102.0 L 12.3 102.0 Z M 40.2 46.7 L 40.0 44.6 L 39.7 42.5 L 39.3 40.4 L 38.1 36.2 L 37.5 34.2 L 36.7 32.1 L 35.4 30.3 L 36.7 29.0 L 38.5 30.6 L 40.5 31.9 L 42.4 33.4 L 44.1 35.2 L 45.8 37.1 L 47.3 39.1 L 48.7 41.3 L 50.0 43.7 L 51.2 46.1 L 51.5 46.880000019073485 L 51.5 22.3 L 34.1 22.3 L 34.1 60.3 L 51.5 60.3 L 51.5 52.2 L 51.3 53.2 L 47.6 55.8 L 43.1 54.9 L 40.5 51.2 L 40.4 48.9 Z M 63.5 22.3 L 63.5 60.3 L 80.9 60.3 L 80.9 36.859649085998534 L 79.28345031738282 37.17161483764649 L 77.9 39.3 L 76.4 41.5 L 74.8 43.8 L 73.1 46.2 L 71.2 48.7 L 69.2 51.3 L 67.0 54.0 L 65.1 56.9 L 63.5 56.1 L 64.8 52.8 L 65.6 49.5 L 66.5 46.4 L 67.3 43.4 L 68.0 40.6 L 68.7 38.0 L 69.2 35.6 L 69.7 33.3 L 70.1 31.2 L 70.2472186088562 30.26761531829834 L 70.0 30.2 L 70.9 27.9 L 80.9 32.99259262084961 L 80.9 22.3 Z " />
</g>
</svg>
