<svg xmlns="http://www.w3.org/2000/svg" xmlns:xlink="http://www.w3.org/1999/xlink" version="1.1" baseProfile="full" viewBox="0 0 200 200" width="200" height="200">
<g fill="black">
<path d="M 14.0 172.3 L 94.0 172.3 L 94.0 143.3 L 27.0 143.3 L 27.0 139.3 L 94.0 139.3 L 94.0 116.3 L 106.0 118.3 L 109.0 120.3 L 106.0 122.1 L 106.0 139.3 L 151.0 139.3 L 161.0 129.3 L 173.0 139.3 L 173.0 143.3 L 106.0 143.3 L 106.0 172.3 L 164.0 172.3 L 174.0 162.3 L 186.0 172.3 L 186.0 176.3 L 14.0 176.3 Z M 146.7 107.4 L 164.0 107.4 L 164.9 107.2 L 165.5 107.0 L 165.8 106.8 L 166.0 106.7 L 166.1 106.5 L 166.3 106.2 L 166.5 105.6 L 166.7 104.7 L 166.7 14.7 L 178.7 16.7 L 181.7 18.7 L 178.7 20.5 L 178.7 103.4 L 178.6 106.0 L 178.1 108.5 L 177.3 110.9 L 176.1 113.1 L 174.5 115.2 L 172.5 116.8 L 170.2 118.0 L 167.8 118.8 L 165.3 119.3 L 162.7 119.4 L 162.7 113.4 L 146.7 110.4 Z M 14.3 45.8 L 14.3 41.8 L 39.5 41.8 L 39.5 15.3 L 51.5 17.3 L 54.5 19.3 L 51.5 21.1 L 51.5 41.8 L 79.1 41.8 L 79.1 15.3 L 91.1 17.3 L 94.1 19.3 L 91.1 21.1 L 91.1 41.8 L 96.81818180084228 41.8 L 105.0 32.8 L 115.0 41.8 L 115.0 45.8 L 91.1 45.8 L 91.1 76.3 L 97.6 76.3 L 107.6 66.3 L 119.6 76.3 L 119.6 80.3 L 91.1 80.3 L 91.1 111.6 L 79.1 117.6 L 79.1 80.3 L 50.17101449966431 80.3 L 49.9 82.0 L 48.2 88.5 L 45.8 94.6 L 42.9 100.1 L 39.3 105.0 L 35.1 109.4 L 30.3 113.1 L 25.0 116.1 L 19.2 118.3 L 18.4 116.7 L 22.9 112.9 L 26.9 109.0 L 30.2 104.9 L 33.1 100.6 L 35.4 96.1 L 37.2 91.2 L 38.5 86.0 L 39.3 80.4 L 39.30491800308228 80.3 L 13.0 80.3 L 13.0 76.3 L 39.5016393661499 76.3 L 39.6 74.3 L 39.5 67.9 L 39.56592798233032 67.89889192581177 L 39.5 67.8 L 39.5 45.8 Z M 140.0 25.5 L 143.0 27.5 L 140.0 29.3 L 140.0 92.9 L 128.0 98.9 L 128.0 23.5 Z M 51.0 75.1 L 50.80869569778442 76.3 L 79.1 76.3 L 79.1 45.8 L 51.5 45.8 L 51.5 67.8 L 51.385294151306155 67.9720588684082 Z " />
</g>
</svg>
