<svg xmlns="http://www.w3.org/2000/svg" xmlns:xlink="http://www.w3.org/1999/xlink" version="1.1" baseProfile="full" viewBox="0 0 200 200" width="200" height="200">
<g fill="black">
<path d="M 156.9 178.1 L 148.1 172.3 L 140.568994140625 165.91294441223144 L 134.1 170.7 L 123.0 176.9 L 110.8 181.8 L 97.5 185.5 L 83.1 187.8 L 82.8 186.1 L 96.4 181.8 L 108.8 176.8 L 119.9 171.1 L 129.7 164.5 L 134.99574251174926 159.94319829940795 L 133.3 158.1 L 127.3 149.8 L 122.2 140.7 L 118.1 130.9 L 115.1 120.4 L 113.44336280822753 110.0 L 101.0 110.0 L 101.0 106.0 L 164.0 106.0 L 170.0 101.0 L 181.0 110.0 L 176.0 113.0 L 174.50744524002076 113.62189779281616 L 172.0 122.2 L 166.8 134.2 L 160.5 145.1 L 152.9 154.8 L 148.544988155365 159.00654554367065 L 154.4 163.2 L 162.5 167.8 L 171.3 171.6 L 180.9 174.6 L 188.6 177.0 L 177.0 187.3 L 166.5 183.1 Z M 28.7 28.0 L 31.7 30.0 L 28.7 31.8 L 28.7 162.0 L 80.1 162.0 L 90.1 152.0 L 102.1 162.0 L 102.1 166.0 L 28.7 166.0 L 28.7 178.0 L 16.7 184.0 L 16.7 26.0 Z M 115.5125 110.0 L 119.1 119.1 L 123.6 128.6 L 128.5 137.2 L 134.1 144.9 L 140.2 151.8 L 141.79569425582886 153.23143167495726 L 145.8 148.8 L 152.0 139.7 L 157.1 129.6 L 161.2 118.6 L 163.29579830169678 110.0 Z M 33.1 135.5 L 59.0 135.5 L 59.0 69.9 L 37.9 69.9 L 37.9 65.9 L 59.0 65.9 L 59.0 16.4 L 71.0 18.4 L 74.0 20.4 L 71.0 22.2 L 71.0 65.9 L 73.81818180084228 65.9 L 82.0 56.9 L 92.0 65.9 L 92.0 69.9 L 71.0 69.9 L 71.0 135.5 L 74.8 135.5 L 84.8 125.5 L 96.8 135.5 L 96.8 139.5 L 33.1 139.5 Z M 164.7 84.1 L 158.9 79.3 L 152.5 74.6 L 150.1041986465454 73.0375207901001 L 144.5 78.3 L 135.6 85.0 L 125.8 90.6 L 115.3 95.2 L 104.1 98.7 L 92.1 101.0 L 91.7 99.3 L 102.9 95.1 L 113.2 90.3 L 122.6 84.9 L 131.1 78.8 L 138.8 72.0 L 142.36041593551636 68.12998266220093 L 138.2 65.6 L 130.3 61.2 L 122.0 56.8 L 113.2 52.4 L 103.9 48.0 L 104.5 46.3 L 114.5 48.9 L 124.1 51.9 L 133.1 55.2 L 141.7 58.8 L 147.77344932556153 61.72425336837769 L 151.9 56.2 L 157.2 47.1 L 161.8 37.2 L 164.21495323181153 30.4 L 101.4 30.4 L 101.4 26.4 L 165.3 26.4 L 171.3 21.4 L 182.3 30.4 L 177.3 33.4 L 175.37052631378174 34.203947353363034 L 172.2 41.8 L 166.6 52.4 L 160.0 62.0 L 156.38868713378906 66.25442333221436 L 157.4 66.8 L 164.6 71.1 L 171.4 75.7 L 177.7 80.5 L 183.5 85.5 L 185.2 89.8 L 183.5 94.0 L 179.3 95.7 L 175.0 94.0 L 170.1 89.0 Z " />
</g>
</svg>
