<svg xmlns="http://www.w3.org/2000/svg" xmlns:xlink="http://www.w3.org/1999/xlink" version="1.1" baseProfile="full" viewBox="0 0 200 200" width="200" height="200">
<g fill="black">
<path d="M 158.2 182.8 L 156.2 183.8 L 154.1 184.6 L 151.9 185.3 L 149.7 185.9 L 147.5 186.4 L 145.2 186.7 L 142.9 186.9 L 140.6 186.9 L 140.6 180.9 L 120.6 177.9 L 120.6 174.9 L 142.2 174.9 L 143.9 174.8 L 145.4 174.5 L 147.0 174.2 L 148.5 173.8 L 150.0 173.3 L 151.4 172.8 L 152.9 172.1 L 155.7 170.5 L 157.1 169.3 L 158.5 167.4 L 160.1 164.6 L 161.5 160.9 L 162.7 156.4 L 163.8 151.0 L 164.7 144.8 L 165.3 137.7 L 165.7 129.9 L 165.7767441749573 123.3 L 59.23333330154419 123.3 L 58.0 124.8 L 53.8 129.0 L 49.3 133.1 L 44.3 136.9 L 38.8 140.6 L 32.9 144.1 L 26.5 147.3 L 19.6 150.1 L 18.7 148.6 L 24.5 144.0 L 29.9 139.6 L 34.9 135.4 L 39.4 131.1 L 43.4 126.9 L 47.0 122.7 L 50.1 118.5 L 52.8 114.3 L 55.0 110.1 L 56.32342176437378 106.9082181930542 L 56.3 106.9 L 56.50754718780517 106.46415090560913 L 56.7 106.0 L 56.723571395874025 106.01049995422363 L 57.3 104.8 L 67.7 110.9 L 69.6 113.9 L 65.67357034683228 114.37387943267822 L 64.9 115.7 L 62.3956521987915 119.3 L 165.8 119.3 L 171.8 114.3 L 182.8 123.3 L 177.8 126.3 L 177.74418601989746 126.32325582504272 L 177.7 130.3 L 177.3 138.5 L 176.6 146.1 L 175.7 153.0 L 174.4 159.2 L 172.9 164.7 L 171.0 169.6 L 168.6 173.9 L 165.7 177.6 L 162.2 180.5 L 160.3 181.7 Z M 46.1 163.5 L 90.5 163.5 L 90.5 145.1 L 53.7 145.1 L 53.7 141.1 L 90.5 141.1 L 90.5 125.8 L 102.5 127.8 L 105.5 129.8 L 102.5 131.6 L 102.5 141.1 L 121.01818180084229 141.1 L 129.2 132.1 L 139.2 141.1 L 139.2 145.1 L 102.5 145.1 L 102.5 163.5 L 124.8 163.5 L 134.8 153.5 L 146.8 163.5 L 146.8 167.5 L 46.1 167.5 Z M 48.5 105.4 L 48.5 45.53384618759155 L 45.3 47.7 L 38.3 51.9 L 31.0 55.9 L 23.1 59.6 L 14.8 62.9 L 13.9 61.3 L 21.2 56.2 L 28.2 51.3 L 34.7 46.4 L 40.9 41.5 L 46.6 36.7 L 48.5 34.943396186828615 L 48.5 29.5 L 52.289189147949216 31.394594573974608 L 56.7 26.8 L 61.1 21.8 L 65.1 16.8 L 68.6 11.8 L 68.62240180969238 11.816397190093994 L 69.1 11.1 L 78.3 18.9 L 79.6 22.2 L 75.78590850830078 21.87119903564453 L 73.9 24.1 L 69.0 29.1 L 63.7 34.0 L 61.91875 35.5 L 109.20333337783813 35.5 L 111.3 33.8 L 114.6 30.7 L 117.7 27.8 L 120.7 25.1 L 123.3 22.6 L 125.8 20.2 L 128.0 17.9 L 129.9 15.8 L 131.6 13.8 L 132.39285717010497 12.78061227798462 L 132.3 12.7 L 133.3 11.7 L 141.4 20.6 L 142.1 24.1 L 137.96278524398804 22.991817474365234 L 136.7 23.8 L 134.0 25.5 L 131.1 27.2 L 128.0 29.0 L 124.6 30.8 L 121.0 32.6 L 117.1 34.4 L 114.53333330154419 35.5 L 158.2 35.5 L 168.2 25.5 L 180.2 35.5 L 180.2 39.5 L 120.3 39.5 L 120.3 55.3 L 154.8181818008423 55.3 L 163.0 46.3 L 173.0 55.3 L 173.0 59.3 L 120.3 59.3 L 120.3 74.6 L 154.8181818008423 74.6 L 163.0 65.6 L 173.0 74.6 L 173.0 78.6 L 120.3 78.6 L 120.3 95.4 L 169.21818180084227 95.4 L 177.4 86.4 L 187.4 95.4 L 187.4 99.4 L 60.5 99.4 Z M 60.5 78.6 L 60.5 95.4 L 108.3 95.4 L 108.3 78.6 Z M 60.5 59.3 L 60.5 74.6 L 108.3 74.6 L 108.3 59.3 Z M 60.5 39.5 L 60.5 55.3 L 108.3 55.3 L 108.3 39.5 Z " />
</g>
</svg>
