<svg xmlns="http://www.w3.org/2000/svg" xmlns:xlink="http://www.w3.org/1999/xlink" version="1.1" baseProfile="full" viewBox="0 0 200 200" width="200" height="200">
<g fill="black">
<path d="M 56.6 96.9 L 149.3 96.9 L 155.3 91.9 L 166.3 100.9 L 161.3 104.9 L 161.3 180.9 L 149.3 186.9 L 149.3 178.9 L 56.6 178.9 L 56.6 181.9 L 44.6 187.9 L 44.6 90.9 Z M 56.6 151.8 L 56.6 174.9 L 149.3 174.9 L 149.3 151.8 Z M 56.6 126.3 L 56.6 147.8 L 149.3 147.8 L 149.3 126.3 Z M 56.6 100.9 L 56.6 122.3 L 149.3 122.3 L 149.3 100.9 Z M 24.0 73.0 L 97.0 73.0 L 97.0 43.0 L 41.0 43.0 L 41.0 39.0 L 97.0 39.0 L 97.0 12.0 L 109.0 14.0 L 112.0 16.0 L 109.0 17.8 L 109.0 39.0 L 141.0 39.0 L 151.0 29.0 L 163.0 39.0 L 163.0 43.0 L 109.0 43.0 L 109.0 73.0 L 160.0 73.0 L 170.0 63.0 L 182.0 73.0 L 182.0 77.0 L 24.0 77.0 Z " />
</g>
</svg>
