<svg xmlns="http://www.w3.org/2000/svg" xmlns:xlink="http://www.w3.org/1999/xlink" version="1.1" baseProfile="full" viewBox="0 0 200 200" width="200" height="200">
<g fill="black">
<path d="M 78.3 175.0 L 127.5 175.0 L 127.5 135.0 L 86.9 135.0 L 86.9 131.0 L 158.0 131.0 L 168.0 121.0 L 180.0 131.0 L 180.0 135.0 L 139.5 135.0 L 139.5 175.0 L 166.6 175.0 L 176.6 165.0 L 188.6 175.0 L 188.6 179.0 L 78.3 179.0 Z M 12.2 155.2 L 17.5 153.4 L 23.1 151.5 L 29.0 149.4 L 35.2 147.2 L 39.2 145.78461542129517 L 39.2 76.8 L 13.5 76.8 L 13.5 72.8 L 39.2 72.8 L 39.2 22.9 L 51.2 24.9 L 54.2 26.9 L 51.2 28.7 L 51.2 72.8 L 56.7 72.8 L 66.7 62.8 L 78.7 72.8 L 78.7 76.8 L 51.2 76.8 L 51.2 141.58450708389282 L 55.7 140.0 L 63.2 137.4 L 71.0 134.8 L 79.2 132.2 L 80.0 133.9 L 72.5 138.3 L 65.3 142.3 L 58.3 146.0 L 51.6 149.5 L 45.1 152.7 L 38.8 155.8 L 32.9 158.7 L 27.2 161.4 L 21.8 164.0 L 20.401869201660155 164.6579439163208 L 19.6 168.4 L 16.7 166.4 L 10.4 155.9 Z M 165.1 105.3 L 163.7 101.9 L 162.2 98.4 L 160.5 94.9 L 158.6 91.5 L 154.4 84.5 L 152.1 80.8 L 149.92886600494384 77.87731962203979 L 149.3 77.5 L 151.0 73.4 L 152.5 69.3 L 154.0 65.4 L 155.6 61.6 L 157.1 57.9 L 160.1 50.9 L 161.5 47.5 L 162.9 44.2 L 163.88921756744384 41.93893127441406 L 163.8 41.9 L 164.8 40.0 L 174.8 46.7 L 176.5 49.9 L 172.50823526382447 50.03764705657959 L 170.8 52.6 L 168.6 55.6 L 166.4 58.7 L 164.1 61.9 L 161.7 65.1 L 156.5 71.7 L 153.6 75.0 L 152.03934421539307 76.89508199691772 L 154.4 78.6 L 157.9 81.3 L 161.2 84.2 L 164.3 87.2 L 167.1 90.4 L 169.8 93.7 L 172.3 97.1 L 174.6 100.6 L 176.7 104.3 L 178.6 108.0 L 178.4 112.6 L 175.1 115.8 L 170.5 115.6 L 167.3 112.3 L 166.3 108.8 Z M 133.2 105.3 L 131.8 101.9 L 130.3 98.4 L 128.5 94.9 L 126.7 91.5 L 124.6 88.0 L 122.4 84.5 L 120.2 80.8 L 118.02886600494385 77.87731962203979 L 117.4 77.5 L 119.0 73.4 L 120.5 69.3 L 122.1 65.4 L 123.7 61.6 L 125.2 57.9 L 128.2 50.9 L 129.6 47.5 L 131.0 44.2 L 131.98921756744386 41.93893127441406 L 131.9 41.9 L 132.9 40.0 L 142.9 46.7 L 144.6 49.9 L 140.59328622817992 50.038162517547605 L 136.7 55.6 L 134.5 58.7 L 129.7 65.1 L 127.2 68.4 L 124.6 71.7 L 121.7 75.0 L 120.11530714035034 76.92426986694336 L 122.5 78.6 L 126.0 81.3 L 129.3 84.2 L 132.3 87.2 L 135.2 90.4 L 137.9 93.7 L 140.3 97.1 L 142.6 100.6 L 144.7 104.3 L 146.6 108.0 L 146.4 112.6 L 143.2 115.8 L 138.6 115.6 L 135.4 112.3 L 134.4 108.8 Z M 101.3 105.3 L 99.9 101.9 L 98.3 98.4 L 96.6 94.9 L 94.7 91.5 L 92.7 88.0 L 90.5 84.5 L 88.2 80.8 L 86.1 77.86000003814698 L 85.5 77.5 L 87.1 73.4 L 88.6 69.3 L 90.2 65.4 L 91.7 61.6 L 93.3 57.9 L 96.3 50.9 L 97.7 47.5 L 99.1 44.2 L 100.02919883728028 41.91274127960205 L 100.0 41.9 L 100.15068492889404 41.613698673248294 L 100.4 41.0 L 100.45743036270142 41.030882358551025 L 101.0 40.0 L 111.0 46.7 L 112.7 49.9 L 108.69328622817993 50.038162517547605 L 104.8 55.6 L 102.5 58.7 L 100.2 61.9 L 97.8 65.1 L 95.3 68.4 L 92.6 71.7 L 89.8 75.0 L 88.20204916000367 76.94036884307862 L 90.5 78.6 L 94.1 81.3 L 97.3 84.2 L 100.4 87.2 L 103.3 90.4 L 105.9 93.7 L 108.4 97.1 L 110.7 100.6 L 112.8 104.3 L 114.7 108.0 L 114.5 112.6 L 111.2 115.8 L 106.7 115.6 L 103.5 112.3 L 102.5 108.8 Z M 185.3 26.0 L 185.3 30.0 L 81.6 30.0 L 81.6 26.0 L 163.3 26.0 L 173.3 16.0 Z " />
</g>
</svg>
