<svg xmlns="http://www.w3.org/2000/svg" xmlns:xlink="http://www.w3.org/1999/xlink" version="1.1" baseProfile="full" viewBox="0 0 200 200" width="200" height="200">
<g fill="black">
<path d="M 103.9 182.3 L 91.9 188.3 L 91.9 125.4 L 89.3 128.6 L 85.2 133.2 L 80.8 137.7 L 75.9 142.0 L 74.6 140.8 L 77.8 135.3 L 80.9 130.0 L 84.0 124.8 L 86.8 119.7 L 89.5 114.6 L 91.9 109.8 L 91.9 108.3 L 92.55867509841919 108.40977916717529 L 94.3 104.7 L 96.4 99.8 L 98.2 94.9 L 99.57360887527466 91.02157497406006 L 99.5 91.0 L 100.4 88.7 L 111.1 94.4 L 113.1 97.4 L 109.38121480941773 98.05241842269898 L 108.7 99.5 L 106.0 104.4 L 103.2 109.3 L 102.69446153640747 110.09907693862915 L 103.9 110.3 L 106.45 112.0 L 131.18947372436523 112.0 L 131.4 111.6 L 132.0 109.5 L 132.6 107.3 L 133.3 105.2 L 134.1 103.1 L 134.8 100.9 L 137.2 94.3 L 137.72439022064208 92.9598916053772 L 137.6 92.9 L 138.6 91.1 L 148.4 98.1 L 150.0 101.3 L 145.57665367126464 101.37626457214355 L 145.2 101.8 L 143.5 103.6 L 141.9 105.3 L 140.2 107.0 L 138.5 108.6 L 135.1 111.6 L 134.54615383148194 112.0 L 166.11818180084228 112.0 L 174.3 103.0 L 184.3 112.0 L 184.3 116.0 L 141.8 116.0 L 141.8 132.8 L 158.11818180084228 132.8 L 166.3 123.8 L 176.3 132.8 L 176.3 136.8 L 141.8 136.8 L 141.8 154.5 L 158.11818180084228 154.5 L 166.3 145.5 L 176.3 154.5 L 176.3 158.5 L 141.8 158.5 L 141.8 175.3 L 169.0 175.3 L 179.0 165.3 L 191.0 175.3 L 191.0 179.3 L 103.9 179.3 Z M 103.9 158.5 L 103.9 175.3 L 129.8 175.3 L 129.8 158.5 Z M 12.4 151.0 L 17.5 149.4 L 23.0 147.7 L 28.7 145.8 L 34.8 143.7 L 38.7 142.359375 L 38.7 72.0 L 13.4 72.0 L 13.4 68.0 L 38.7 68.0 L 38.7 17.0 L 50.7 19.0 L 53.7 21.0 L 50.7 22.8 L 50.7 68.0 L 55.8 68.0 L 65.8 58.0 L 77.8 68.0 L 77.8 72.0 L 50.7 72.0 L 50.7 137.99714288711547 L 55.0 136.4 L 62.4 133.7 L 70.2 130.9 L 78.3 128.1 L 79.1 129.8 L 71.8 134.4 L 64.7 138.6 L 57.7 142.4 L 51.0 146.0 L 44.6 149.3 L 38.4 152.3 L 32.5 155.1 L 26.8 157.7 L 21.4 160.1 L 20.19810962677002 160.6184624671936 L 19.2 164.5 L 16.3 162.3 L 10.5 151.6 Z M 103.9 136.8 L 103.9 154.5 L 129.8 154.5 L 129.8 136.8 Z M 103.9 116.0 L 103.9 132.8 L 129.8 132.8 L 129.8 116.0 Z M 95.3 19.2 L 116.9 19.2 L 122.4 14.2 L 132.9 23.2 L 127.9 26.7 L 127.9 89.9 L 116.9 95.4 L 116.9 83.9 L 95.3 83.9 L 95.3 90.9 L 83.3 96.9 L 83.3 13.2 Z M 149.1 19.2 L 169.9 19.2 L 175.9 14.2 L 186.9 23.2 L 181.9 27.2 L 181.9 89.9 L 169.9 95.9 L 169.9 83.9 L 149.1 83.9 L 138.1 89.4 L 138.1 13.7 Z M 149.1 62.8 L 149.1 79.9 L 169.9 79.9 L 169.9 62.8 Z M 95.3 62.8 L 95.3 79.9 L 116.9 79.9 L 116.9 62.8 Z M 149.1 43.0 L 149.1 58.8 L 169.9 58.8 L 169.9 43.0 Z M 95.3 43.0 L 95.3 58.8 L 116.9 58.8 L 116.9 43.0 Z M 149.1 23.2 L 149.1 39.0 L 169.9 39.0 L 169.9 23.2 Z M 95.3 23.2 L 95.3 39.0 L 116.9 39.0 L 116.9 23.2 Z " />
</g>
</svg>
