<svg xmlns="http://www.w3.org/2000/svg" xmlns:xlink="http://www.w3.org/1999/xlink" version="1.1" baseProfile="full" viewBox="0 0 200 200" width="200" height="200">
<g fill="black">
<path d="M 69.7 129.0 L 68.7 131.4 L 67.4 133.5 L 65.9 135.5 L 64.0 137.2 L 62.0 138.6 L 59.7 139.7 L 57.3 140.4 L 54.8 140.8 L 52.3 141.0 L 52.3 135.0 L 42.3 132.0 L 42.3 129.0 L 52.3 129.0 L 53.5 128.9 L 54.6 128.7 L 55.4 128.5 L 56.1 128.2 L 56.6 127.8 L 57.0 127.4 L 57.31343278884888 127.0238805770874 L 58.1 123.7 L 59.2 119.5 L 59.7 115.2 L 59.7 110.9 L 59.2 106.5 L 58.2 101.9 L 56.5 97.2 L 54.2 92.3 L 51.4 87.2 L 47.9 81.9 L 44.0 76.3 L 44.13211011886597 76.15688076019288 L 43.1 75.4 L 45.9 69.6 L 48.5 64.0 L 51.1 58.6 L 53.5 53.4 L 55.7 48.5 L 57.7 43.6 L 59.5 39.0 L 61.1 34.5 L 62.5 30.2 L 62.55714282989502 30.0 L 31.5 30.0 L 31.5 183.0 L 19.5 189.0 L 19.5 20.0 L 31.5 26.0 L 63.4 26.0 L 69.4 21.0 L 80.4 30.0 L 75.4 33.0 L 73.3534441947937 33.85273160934448 L 73.2 34.2 L 71.0 38.7 L 68.7 43.2 L 66.0 47.8 L 63.2 52.4 L 60.1 57.2 L 56.7 62.0 L 53.1 66.8 L 49.0 71.6 L 45.6569091796875 75.32298755645752 L 51.0 79.1 L 56.0 83.6 L 60.3 88.3 L 63.9 93.3 L 66.8 98.4 L 69.1 103.8 L 70.7 109.3 L 71.5 115.0 L 71.6 120.8 L 70.9 126.7 L 70.25049858093261 127.11257638931275 Z M 76.1 176.3 L 126.0 176.3 L 126.0 147.3 L 84.5 147.3 L 84.5 143.3 L 126.0 143.3 L 126.0 120.3 L 138.0 122.3 L 141.0 124.3 L 138.0 126.1 L 138.0 143.3 L 157.4 143.3 L 167.4 133.3 L 179.4 143.3 L 179.4 147.3 L 138.0 147.3 L 138.0 176.3 L 165.9 176.3 L 175.9 166.3 L 187.9 176.3 L 187.9 180.3 L 76.1 180.3 Z M 186.6 110.1 L 186.6 114.1 L 79.3 114.1 L 79.3 110.1 L 168.4181818008423 110.1 L 176.6 101.1 Z M 110.0 42.1 L 155.9 42.1 L 161.9 37.1 L 172.9 46.1 L 167.9 50.1 L 167.9 97.6 L 155.9 103.6 L 155.9 97.6 L 110.0 97.6 L 98.0 103.6 L 98.0 36.1 Z M 110.0 71.1 L 110.0 93.6 L 155.9 93.6 L 155.9 71.1 Z M 110.0 46.1 L 110.0 67.1 L 155.9 67.1 L 155.9 46.1 Z M 183.3 28.8 L 183.3 32.8 L 83.2 32.8 L 83.2 28.8 L 161.3 28.8 L 171.3 18.8 Z " />
</g>
</svg>
