<svg xmlns="http://www.w3.org/2000/svg" xmlns:xlink="http://www.w3.org/1999/xlink" version="1.1" baseProfile="full" viewBox="0 0 200 200" width="200" height="200">
<g fill="black">
<path d="M 14.0 174.7 L 94.0 174.7 L 94.0 146.2 L 27.0 146.2 L 27.0 142.2 L 94.0 142.2 L 94.0 119.6 L 106.0 121.6 L 109.0 123.6 L 106.0 125.4 L 106.0 142.2 L 151.0 142.2 L 161.0 132.2 L 173.0 142.2 L 173.0 146.2 L 106.0 146.2 L 106.0 174.7 L 164.0 174.7 L 174.0 164.7 L 186.0 174.7 L 186.0 178.7 L 14.0 178.7 Z M 70.0 81.9 L 73.0 83.9 L 70.0 85.7 L 70.0 98.2 L 131.0 98.2 L 131.0 80.5 L 143.0 82.5 L 146.0 84.5 L 143.0 86.3 L 143.0 98.2 L 160.0 98.2 L 170.0 88.2 L 182.0 98.2 L 182.0 102.2 L 143.0 102.2 L 143.0 128.9 L 131.0 134.9 L 131.0 102.2 L 69.6016393661499 102.2 L 69.1 105.6 L 67.3 111.3 L 64.5 116.5 L 60.7 121.0 L 56.1 124.8 L 50.8 128.1 L 44.7 130.7 L 37.9 132.7 L 30.4 134.1 L 22.1 134.9 L 21.8 133.1 L 29.5 130.4 L 36.2 127.6 L 42.0 124.7 L 46.9 121.6 L 50.8 118.3 L 53.7 114.9 L 55.9 111.3 L 57.2 107.6 L 57.9 103.7 L 57.93571424484253 102.2 L 19.0 102.2 L 19.0 98.2 L 58.0 98.2 L 58.0 79.9 Z M 105.0 52.2 L 108.0 54.2 L 105.0 56.0 L 105.0 69.9 L 124.0 69.9 L 134.0 59.9 L 146.0 69.9 L 146.0 73.9 L 105.0 73.9 L 105.0 88.2 L 93.0 94.2 L 93.0 73.9 L 55.0 73.9 L 55.0 69.9 L 93.0 69.9 L 93.0 50.2 Z M 162.0 72.0 L 155.2 68.8 L 148.6 65.2 L 142.3 61.5 L 136.2 57.5 L 130.3 53.2 L 124.8 48.6 L 119.6 43.7 L 115.43396224975587 39.1 L 90.1722222328186 39.1 L 88.0 41.4 L 80.3 48.2 L 71.7 54.4 L 62.3 60.3 L 52.0 65.6 L 40.9 70.5 L 28.9 74.8 L 16.0 78.5 L 15.4 76.8 L 27.5 71.3 L 38.6 65.6 L 48.9 59.8 L 58.3 53.8 L 66.7 47.6 L 74.2 41.1 L 76.17014923095704 39.1 L 21.6 39.1 L 21.6 35.1 L 80.11044778823853 35.1 L 80.8 34.4 L 86.5 27.5 L 91.2 20.3 L 95.1 13.0 L 95.11663427352906 13.008394908905029 L 95.7 11.9 L 105.8 18.4 L 107.6 21.5 L 103.72129831314086 21.76749668121338 L 100.8 26.5 L 94.8 34.2 L 93.95 35.1 L 156.4 35.1 L 166.4 25.1 L 178.4 35.1 L 178.4 39.1 L 119.76764707565307 39.1 L 128.2 43.8 L 134.2 47.1 L 140.4 50.3 L 146.7 53.3 L 153.1 56.0 L 159.7 58.7 L 166.4 61.1 L 173.3 63.3 L 180.3 65.3 L 188.0 67.7 L 176.4 77.9 L 169.1 75.1 Z " />
</g>
</svg>
