<svg xmlns="http://www.w3.org/2000/svg" xmlns:xlink="http://www.w3.org/1999/xlink" version="1.1" baseProfile="full" viewBox="0 0 200 200" width="200" height="200">
<g fill="black">
<path d="M 89.1 139.9 L 97.4 137.7 L 107.0 135.0397590637207 L 107.0 42.0 L 119.0 44.0 L 122.0 46.0 L 119.0 47.8 L 119.0 131.65421686172485 L 122.3 130.7 L 130.6 128.4 L 138.9 126.0 L 147.3 123.6 L 155.7 121.3 L 164.1 119.1 L 166.0 118.6529411315918 L 166.0 12.0 L 178.0 14.0 L 181.0 16.0 L 178.0 17.8 L 178.0 182.0 L 166.0 188.0 L 166.0 122.4037974357605 L 165.4 122.7 L 157.4 126.4 L 141.4 133.2 L 133.3 136.4 L 117.1 142.6 L 109.0 145.6 L 100.8 148.5 L 96.55108051300049 150.02121810913087 L 95.5 153.7 L 92.7 151.4 L 87.2 140.5 Z M 13.2 155.2 L 18.8 153.4 L 24.7 151.5 L 31.0 149.4 L 37.5 147.2 L 42.0 145.7 L 42.0 76.8 L 14.4 76.8 L 14.4 72.8 L 42.0 72.8 L 42.0 22.9 L 54.0 24.9 L 57.0 26.9 L 54.0 28.7 L 54.0 72.8 L 61.5 72.8 L 71.5 62.8 L 83.5 72.8 L 83.5 76.8 L 54.0 76.8 L 54.0 141.70266666412354 L 59.2 139.9 L 67.1 137.4 L 75.4 134.8 L 84.1 132.2 L 84.8 133.9 L 76.9 138.3 L 69.2 142.3 L 61.7 146.0 L 54.5 149.5 L 47.6 152.8 L 41.0 155.9 L 34.6 158.8 L 28.6 161.5 L 22.8 164.0 L 21.222597885131837 164.7010676383972 L 20.3 168.5 L 17.4 166.4 L 11.3 155.9 Z " />
</g>
</svg>
