<svg xmlns="http://www.w3.org/2000/svg" xmlns:xlink="http://www.w3.org/1999/xlink" version="1.1" baseProfile="full" viewBox="0 0 200 200" width="200" height="200">
<g fill="black">
<path d="M 75.3 184.3 L 73.6 180.1 L 75.2 175.8 L 77.3 174.0 L 79.2 171.9 L 81.1 169.5 L 82.8 166.8 L 84.4 163.8 L 85.9 160.4 L 87.3 156.7 L 88.6 152.6 L 89.8 148.2 L 90.7 143.5 L 92.5 143.5 L 92.9 148.5 L 93.2 153.2 L 93.1 157.7 L 92.7 162.1 L 92.0 166.3 L 91.0 170.2 L 89.7 174.0 L 88.0 177.6 L 86.1 181.0 L 83.8 184.2 L 79.6 185.9 Z M 172.7 171.7 L 172.0 168.6 L 171.1 165.5 L 170.1 162.3 L 169.0 159.1 L 167.7 155.9 L 166.4 152.6 L 165.0 149.1 L 163.2 145.8 L 164.6 144.7 L 167.3 147.5 L 170.1 150.1 L 172.6 152.9 L 174.9 155.8 L 177.1 158.8 L 179.0 161.8 L 180.9 165.0 L 182.5 168.2 L 184.0 171.4 L 185.4 174.7 L 184.7 179.2 L 181.1 182.1 L 176.6 181.4 L 173.8 177.8 L 173.3 174.7 Z M 141.3 167.2 L 141.1 163.9 L 140.9 160.8 L 140.1 154.6 L 139.6 151.6 L 139.0 148.7 L 138.4 145.7 L 137.5 142.8 L 139.0 142.0 L 140.9 144.4 L 142.9 146.9 L 144.7 149.6 L 146.4 152.5 L 147.9 155.5 L 149.2 158.7 L 150.5 162.0 L 151.6 165.4 L 152.5 168.9 L 153.4 172.6 L 152.0 176.9 L 148.0 179.2 L 143.6 177.8 L 141.4 173.8 L 141.4 170.4 Z M 116.0 182.1 L 112.1 179.7 L 111.0 175.2 L 111.7 172.6 L 112.3 169.9 L 112.8 167.1 L 113.2 164.1 L 113.4 161.0 L 113.4 154.5 L 113.2 151.0 L 113.0 147.4 L 112.4 143.8 L 114.1 143.2 L 115.7 146.6 L 117.4 150.0 L 118.8 153.3 L 120.0 156.7 L 121.0 160.1 L 121.8 163.5 L 122.4 167.0 L 122.7 170.4 L 122.9 173.7 L 122.9 177.1 L 120.4 181.0 Z M 13.2 155.2 L 18.8 153.4 L 24.7 151.5 L 31.0 149.4 L 37.5 147.2 L 42.0 145.7 L 42.0 76.8 L 14.4 76.8 L 14.4 72.8 L 42.0 72.8 L 42.0 22.9 L 54.0 24.9 L 57.0 26.9 L 54.0 28.7 L 54.0 72.8 L 61.5 72.8 L 71.5 62.8 L 83.5 72.8 L 83.5 76.8 L 54.0 76.8 L 54.0 141.70266666412354 L 59.2 139.9 L 67.1 137.4 L 75.4 134.8 L 84.1 132.2 L 84.8 133.9 L 76.9 138.3 L 69.2 142.3 L 61.7 146.0 L 54.5 149.5 L 47.6 152.8 L 41.0 155.9 L 34.6 158.8 L 28.6 161.5 L 22.8 164.0 L 21.222597885131837 164.7010676383972 L 20.3 168.5 L 17.4 166.4 L 11.3 155.9 Z M 75.3 124.7 L 124.7 124.7 L 124.7 89.1 L 90.9 89.1 L 90.9 85.1 L 124.7 85.1 L 124.7 52.5 L 81.0 52.5 L 81.0 48.5 L 111.53999996185303 48.5 L 111.1 48.4 L 108.6 44.5 L 108.5 42.1 L 108.3 39.6 L 107.9 37.0 L 107.3 34.5 L 106.6 31.9 L 105.7 29.2 L 104.6 26.5 L 103.4 23.7 L 102.0 20.8 L 100.2 18.1 L 101.5 16.9 L 104.0 19.1 L 106.6 21.2 L 109.1 23.4 L 111.3 25.8 L 113.3 28.3 L 115.1 31.0 L 116.7 33.7 L 118.2 36.5 L 119.4 39.5 L 120.5 42.5 L 119.4 47.0 L 116.9625 48.5 L 139.1 48.5 L 140.2 46.3 L 141.7 42.6 L 143.2 39.0 L 144.8 35.5 L 146.3 32.0 L 149.3 25.4 L 150.7 22.1 L 152.0 18.9 L 152.90376386642455 16.74487085342407 L 152.8 16.7 L 153.8 14.8 L 163.9 21.5 L 165.6 24.7 L 161.53300971984862 24.906796073913576 L 159.8 27.3 L 157.6 30.2 L 155.4 33.2 L 153.1 36.1 L 150.7 39.1 L 148.1 42.1 L 145.5 45.0 L 142.7 47.9 L 142.15806455612181 48.5 L 156.9 48.5 L 166.9 38.5 L 178.9 48.5 L 178.9 52.5 L 136.7 52.5 L 136.7 85.1 L 149.8 85.1 L 159.8 75.1 L 171.8 85.1 L 171.8 89.1 L 136.7 89.1 L 136.7 124.7 L 166.2 124.7 L 176.2 114.7 L 188.2 124.7 L 188.2 128.7 L 75.3 128.7 Z " />
</g>
</svg>
