<svg xmlns="http://www.w3.org/2000/svg" xmlns:xlink="http://www.w3.org/1999/xlink" version="1.1" baseProfile="full" viewBox="0 0 200 200" width="200" height="200">
<g fill="black">
<path d="M 149.7 176.0 L 165.7 176.0 L 166.9 175.9 L 167.8 175.7 L 168.7 175.4 L 169.1 175.0 L 169.4 174.1 L 169.6 173.2 L 169.7 172.0 L 169.7 126.73333330154419 L 167.7 129.4 L 163.1 129.9 L 159.5 127.1 L 158.4 124.4 L 157.2 121.8 L 155.8 119.2 L 155.32754716873168 118.35633420944214 L 153.3 119.0 L 147.1 120.8 L 140.9 122.4 L 134.8 123.8 L 128.7 125.0 L 122.8 126.1 L 117.0 127.1 L 111.2 128.0 L 104.17185926437378 129.00402011871338 L 102.2 132.4 L 100.0 129.6 L 97.2 117.7 L 99.2 117.6 L 104.7 117.5 L 115.58365383148194 117.11129808425903 L 116.2 114.8 L 118.0 109.0 L 118.8 106.1 L 120.4 100.5 L 121.1 97.8 L 121.8 95.0 L 122.0222222328186 94.0 L 94.6 94.0 L 94.6 182.0 L 82.6 188.0 L 82.6 84.0 L 94.6 90.0 L 135.97142858505248 90.0 L 132.5 87.3 L 131.8 85.6 L 130.9 83.7 L 129.6 81.8 L 128.0 79.8 L 126.1 77.8 L 123.8 75.7 L 121.2 73.6 L 118.3 71.4 L 115.1 69.1 L 111.5 67.1 L 112.1 65.5 L 116.2 66.6 L 120.1 67.6 L 123.8 68.7 L 127.3 70.0 L 130.4 71.5 L 133.4 73.1 L 136.2 74.9 L 136.6187455177307 75.2182466506958 L 137.7 74.4 L 141.2 71.7 L 144.5 69.1 L 147.8 66.6 L 150.9 64.3 L 153.9 62.0 L 155.17272729873656 61.0 L 92.0 61.0 L 92.0 57.0 L 160.43999996185303 57.0 L 162.0 55.8 L 164.4 53.9 L 164.71465797424315 54.40445165634155 L 167.6 52.0 L 178.6 61.0 L 173.6 64.0 L 161.6 69.0 L 161.6 68.24411764144898 L 158.3 69.7 L 154.8 71.1 L 151.2 72.7 L 147.4 74.2 L 143.4 75.7 L 139.2 77.1 L 139.05423727035523 77.15423727035522 L 140.9 79.0 L 142.9 81.4 L 143.4 85.9 L 140.7 89.6 L 137.0199999809265 90.0 L 169.7 90.0 L 175.7 85.0 L 186.7 94.0 L 181.7 98.0 L 181.7 172.0 L 181.5 174.5 L 181.1 177.0 L 180.3 179.4 L 179.0 181.7 L 177.4 183.7 L 175.4 185.3 L 173.1 186.6 L 170.7 187.4 L 168.2 187.8 L 165.7 188.0 L 165.7 182.0 L 149.7 179.0 Z M 150.6 169.0 L 146.3 166.5 L 141.6 164.1 L 140.02603702545167 163.35931158065796 L 135.7 165.9 L 128.8 169.0 L 121.4 171.6 L 113.4 173.5 L 104.9 174.8 L 95.8 175.5 L 95.5 173.7 L 104.1 171.1 L 111.9 168.4 L 119.1 165.4 L 125.6 162.1 L 130.54295530319214 159.11718215942383 L 125.0 156.9 L 118.7 154.5 L 112.1 152.0 L 105.1 149.3 L 105.5 147.5 L 113.0 148.3 L 120.2 149.3 L 126.9 150.6 L 133.3 152.1 L 137.9357011795044 153.39191675186157 L 141.0 150.6 L 144.8 146.1 L 148.1 141.4 L 148.2529411315918 141.1 L 102.8 141.1 L 102.8 137.1 L 150.0 137.1 L 150.50795450210572 136.6767045021057 L 150.7 136.3 L 150.86080923080445 136.38265895843506 L 156.0 132.1 L 167.0 141.1 L 162.0 144.1 L 159.12685718536378 145.29714288711548 L 157.5 147.8 L 152.9 153.1 L 148.96130113601686 156.88424005508423 L 150.4 157.4 L 155.4 159.4 L 160.1 161.6 L 164.5 163.8 L 167.0 167.6 L 166.2 172.1 L 162.4 174.7 L 157.9 173.9 L 154.5 171.4 Z M 11.9 151.0 L 16.9 149.5 L 22.2 147.7 L 27.9 145.8 L 33.8 143.8 L 37.5 142.42741937637328 L 37.5 72.0 L 13.0 72.0 L 13.0 68.0 L 37.5 68.0 L 37.5 17.0 L 49.5 19.0 L 52.5 21.0 L 49.5 22.8 L 49.5 68.0 L 53.6 68.0 L 63.6 58.0 L 75.6 68.0 L 75.6 72.0 L 49.5 72.0 L 49.5 137.8911765098572 L 53.4 136.4 L 60.6 133.7 L 68.2 130.9 L 76.1 128.1 L 76.9 129.8 L 69.8 134.4 L 62.9 138.6 L 56.2 142.4 L 49.7 146.0 L 43.4 149.2 L 37.4 152.3 L 31.7 155.1 L 26.2 157.7 L 20.9 160.1 L 19.77593936920166 160.60468025207518 L 18.8 164.4 L 16.0 162.3 L 10.0 151.6 Z M 128.9309090614319 94.0 L 133.6 96.4 L 135.8 99.3 L 131.62814598083497 100.09121370315552 L 130.7 101.7 L 129.1 104.3 L 125.7 109.5 L 123.8 112.0 L 121.9 114.4 L 119.8 116.8 L 119.63412036895753 116.97341966629028 L 121.8 116.9 L 127.7 116.6 L 133.8 116.2 L 139.9 115.9 L 146.2 115.5 L 152.7 115.3 L 153.49627847671508 115.28793516159058 L 152.8 114.2 L 151.1 111.8 L 149.3 109.3 L 147.4 106.9 L 145.4 104.4 L 143.1 102.3 L 144.0 100.8 L 147.0 102.3 L 150.0 103.6 L 152.9 105.2 L 155.7 107.0 L 158.4 109.0 L 161.0 111.2 L 163.4 113.5 L 165.7 115.9 L 167.9 118.5 L 169.7 120.9 L 169.7 94.0 Z M 132.4 45.5 L 132.0 43.7 L 131.4 41.8 L 130.6 39.8 L 129.7 37.6 L 128.5 35.4 L 127.2 33.0 L 125.8 30.5 L 125.1011435508728 29.731257915496826 L 121.5 30.0 L 114.7 30.2 L 107.8 30.2 L 106.47103109359742 30.12405891418457 L 105.4 32.4 L 103.6 35.8 L 101.5 39.3 L 99.2 42.8 L 96.6 46.3 L 93.8 49.9 L 90.7 53.6 L 87.4 57.2 L 83.7 60.8 L 79.8 64.5 L 78.4 63.4 L 81.1 58.8 L 83.4 54.3 L 85.7 50.1 L 87.8 46.0 L 89.6 42.1 L 91.3 38.4 L 92.7 34.8 L 93.9 31.4 L 94.9 28.2 L 95.7 25.1 L 97.6 19.5 L 105.0168776512146 26.995780563354494 L 107.4 26.4 L 114.0 24.9 L 120.6 23.5 L 127.1 22.0 L 133.5 20.6 L 139.9 19.1 L 152.3 15.9 L 158.4 14.2 L 163.52171840667725 12.663484477996827 L 163.5 12.6 L 163.56176471710205 12.651470565795899 L 164.4 12.4 L 164.71318683624267 13.610988998413086 L 174.9 22.1 L 175.2 25.1 L 170.91660566329955 23.109126567840576 L 167.4 24.0 L 154.6 26.4 L 148.1 27.3 L 141.5 28.2 L 134.9 28.9 L 128.49462537765504 29.473615646362305 L 130.0 30.4 L 132.4 32.0 L 134.6 33.7 L 136.6 35.5 L 138.4 37.3 L 140.1 39.2 L 141.7 41.2 L 143.0 43.3 L 144.2 45.4 L 143.6 50.0 L 140.0 52.8 L 135.5 52.2 L 132.6 48.7 L 132.6 47.2 Z M 171.6 49.2 L 170.9 47.3 L 169.9 45.4 L 168.7 43.2 L 167.2 41.0 L 165.4 38.7 L 163.4 36.2 L 161.1 33.6 L 158.4 31.3 L 159.4 29.8 L 162.6 31.6 L 165.8 33.1 L 168.8 34.7 L 171.5 36.3 L 174.1 38.0 L 176.4 39.8 L 178.5 41.7 L 180.4 43.7 L 182.0 45.7 L 183.5 48.0 L 183.4 52.5 L 180.1 55.7 L 175.6 55.6 L 172.3 52.4 L 172.1 50.9 Z " />
</g>
</svg>
