<svg xmlns="http://www.w3.org/2000/svg" xmlns:xlink="http://www.w3.org/1999/xlink" version="1.1" baseProfile="full" viewBox="0 0 200 200" width="200" height="200">
<g fill="black">
<path d="M 14.0 172.3 L 94.0 172.3 L 94.0 143.3 L 27.0 143.3 L 27.0 139.3 L 94.0 139.3 L 94.0 116.3 L 106.0 118.3 L 109.0 120.3 L 106.0 122.1 L 106.0 139.3 L 151.0 139.3 L 161.0 129.3 L 173.0 139.3 L 173.0 143.3 L 106.0 143.3 L 106.0 172.3 L 164.0 172.3 L 174.0 162.3 L 186.0 172.3 L 186.0 176.3 L 14.0 176.3 Z M 142.0 110.6 L 133.2 106.2 L 124.0 101.9 L 114.4 97.9 L 112.06318521499634 97.0208023071289 L 108.8 99.1 L 95.7 105.2 L 80.5 110.3 L 63.4 114.4 L 44.2 117.5 L 23.1 119.4 L 22.8 117.7 L 43.6 113.7 L 62.1 109.2 L 78.5 104.1 L 92.6 98.3 L 101.8834454536438 93.27146701812744 L 93.8 90.5 L 82.9 87.2 L 71.6 83.8 L 63.51861381530762 81.6084376335144 L 54.2 95.7 L 40.9 94.1 L 67.79913682937622 53.4 L 14.0 53.4 L 14.0 49.4 L 70.442786693573 49.4 L 94.5 13.0 L 103.4 21.3 L 104.8 24.6 L 100.9278618812561 25.03835525512695 L 84.81774196624755 49.4 L 164.0 49.4 L 174.0 39.4 L 186.0 49.4 L 186.0 53.4 L 143.56379308700562 53.4 L 141.3 63.5 L 136.4 74.1 L 129.3 83.6 L 120.93636360168458 91.14545450210571 L 127.4 93.3 L 137.3 97.0 L 146.8 101.0 L 155.8 105.4 L 164.5 110.1 L 167.2 113.8 L 166.5 118.3 L 162.8 121.0 L 158.3 120.3 L 150.4 115.3 Z M 82.17258062362671 53.4 L 65.02851676940918 79.32516984939575 L 72.3 80.1 L 84.1 81.9 L 95.6 84.2 L 106.6 86.9 L 109.945223903656 87.84676151275634 L 114.2 84.7 L 121.7 77.0 L 127.1 68.9 L 130.5 60.2 L 131.5818181991577 53.4 Z " />
</g>
</svg>
