<svg xmlns="http://www.w3.org/2000/svg" xmlns:xlink="http://www.w3.org/1999/xlink" version="1.1" baseProfile="full" viewBox="0 0 200 200" width="200" height="200">
<g fill="black">
<path d="M 14.0 184.0 L 95.0 184.0 L 95.0 160.0 L 40.0 160.0 L 40.0 156.0 L 95.0 156.0 L 95.0 132.0 L 107.0 134.0 L 110.0 136.0 L 107.0 137.8 L 107.0 156.0 L 145.0 156.0 L 155.0 146.0 L 167.0 156.0 L 167.0 160.0 L 107.0 160.0 L 107.0 184.0 L 166.0 184.0 L 176.0 174.0 L 188.0 184.0 L 188.0 188.0 L 14.0 188.0 Z M 148.0 39.7 L 148.0 43.7 L 120.0 43.7 L 120.0 58.7 L 151.0 58.7 L 157.0 53.7 L 168.0 62.7 L 163.0 66.7 L 163.0 117.5 L 151.0 123.5 L 151.0 113.5 L 83.47619047164918 113.5 L 88.8 118.7 L 89.7 122.1 L 85.84864864349365 121.42432432174682 L 83.6 123.5 L 78.0 128.0 L 71.8 132.1 L 65.1 135.7 L 57.8 139.0 L 50.1 141.8 L 41.9 144.3 L 33.2 146.3 L 23.9 147.8 L 14.1 148.8 L 13.8 147.1 L 23.1 144.1 L 31.7 141.2 L 39.8 138.1 L 47.3 134.8 L 54.2 131.3 L 60.5 127.6 L 66.2 123.7 L 71.3 119.6 L 75.8 115.3 L 77.36521739959717 113.5 L 54.0 113.5 L 54.0 120.5 L 42.0 126.5 L 42.0 52.7 L 54.0 58.7 L 81.0 58.7 L 81.0 43.7 L 58.0 43.7 L 58.0 39.7 L 129.8181818008423 39.7 L 138.0 30.7 Z M 157.1 141.9 L 150.4 140.0 L 144.1 137.8 L 138.2 135.2 L 132.6 132.2 L 127.4 128.9 L 122.7 125.1 L 118.6 121.0 L 115.1 116.3 L 116.3 115.0 L 121.2 117.7 L 126.1 120.3 L 131.1 122.6 L 136.2 124.7 L 141.6 126.5 L 147.2 128.1 L 153.1 129.3 L 159.3 130.3 L 165.7 131.0 L 172.5 131.4 L 183.3 132.3 L 171.4 144.5 L 164.1 143.4 Z M 54.0 98.3 L 54.0 109.5 L 151.0 109.5 L 151.0 98.3 Z M 121.6 84.0 L 119.4 83.9 L 117.2 83.4 L 115.1 82.6 L 113.1 81.3 L 111.4 79.6 L 110.0 77.6 L 109.0 75.4 L 108.3 73.0 L 108.0 70.4 L 108.0 62.7 L 92.49090909957886 62.7 L 92.3 63.9 L 90.9 68.2 L 88.9 72.2 L 86.4 75.9 L 83.3 79.2 L 79.7 82.3 L 75.6 85.1 L 71.0 87.7 L 65.9 89.9 L 60.3 92.0 L 59.6 90.4 L 64.3 87.1 L 68.3 83.7 L 71.8 80.4 L 74.8 77.1 L 77.1 74.0 L 78.9 70.9 L 80.1 67.9 L 80.8 65.1 L 81.05714282989501 62.7 L 54.0 62.7 L 54.0 94.3 L 151.0 94.3 L 151.0 62.7 L 120.0 62.7 L 120.0 70.4 L 119.8 71.7 L 119.7 72.7 L 119.7 74.0 L 119.8 74.6 L 120.0 75.1 L 120.5 75.6 L 121.3 76.1 L 122.5 76.6 L 124.0 76.9 L 136.5 76.9 L 140.0 71.9 L 142.0 71.9 L 140.0 76.9 L 142.1 78.3 L 143.5 80.4 L 142.1 82.5 L 140.0 83.9 L 124.0 83.9 Z M 71.3 21.8 L 72.6 25.2 L 68.7018042564392 24.931158924102782 L 67.4 26.5 L 63.1 31.1 L 58.5 35.4 L 53.5 39.6 L 48.2 43.6 L 42.6 47.4 L 36.6 51.0 L 30.3 54.4 L 23.5 57.5 L 16.4 60.3 L 15.5 58.7 L 21.6 54.2 L 27.4 49.9 L 32.9 45.6 L 38.1 41.3 L 42.9 37.0 L 47.3 32.7 L 51.4 28.3 L 55.1 23.9 L 58.5 19.4 L 60.94792623519898 15.728110599517823 L 60.9 15.7 L 62.0 14.2 Z M 93.0 43.7 L 93.0 58.7 L 108.0 58.7 L 108.0 43.7 Z M 167.6 50.4 L 162.1 47.5 L 157.0 44.3 L 152.2 40.6 L 147.7 36.7 L 143.6 32.3 L 139.8 27.6 L 136.5 22.5 L 135.07636365890502 19.6 L 81.0 19.6 L 81.0 15.6 L 127.5 15.6 L 132.0 9.6 L 138.0 15.6 L 138.0 18.354545497894286 L 139.7 19.9 L 144.1 23.6 L 148.5 27.0 L 152.9 30.2 L 157.5 33.0 L 162.2 35.5 L 167.1 37.6 L 172.1 39.5 L 177.3 41.0 L 182.6 42.3 L 191.0 44.5 L 179.3 55.1 L 173.3 52.9 Z " />
</g>
</svg>
