<svg xmlns="http://www.w3.org/2000/svg" xmlns:xlink="http://www.w3.org/1999/xlink" version="1.1" baseProfile="full" viewBox="0 0 200 200" width="200" height="200">
<g fill="black">
<path d="M 71.6 153.6 L 70.1 150.2 L 68.2 146.7 L 66.0 143.0 L 63.4 139.1 L 60.5 135.2 L 57.3 131.1 L 53.9 126.8 L 53.28029441833496 126.06613817214966 L 52.3 130.6 L 49.1 141.0 L 45.0 150.6 L 40.1 159.5 L 34.4 167.4 L 27.8 174.5 L 20.4 180.6 L 12.2 185.7 L 11.2 184.2 L 17.9 177.8 L 23.8 170.9 L 29.0 163.6 L 33.5 155.7 L 37.2 147.3 L 40.2 138.2 L 42.5 128.4 L 44.0 118.0 L 44.8 106.8 L 44.9 95.0 L 44.9 17.0 L 56.9 19.0 L 59.9 21.0 L 56.9 22.8 L 56.9 74.41999998092652 L 57.5 73.7 L 60.9 69.8 L 64.1 66.1 L 67.3 62.6 L 70.2 59.2 L 73.0 56.1 L 75.6 53.0 L 78.0 50.2 L 79.57740783691406 48.264090347290036 L 79.5 48.2 L 80.5 47.2 L 88.8 55.9 L 89.5 59.4 L 85.7 58.45 L 83.0 60.7 L 79.9 63.2 L 76.5 65.9 L 72.9 68.7 L 69.1 71.5 L 65.1 74.5 L 60.9 77.5 L 56.9 80.10869569778443 L 56.9 95.0 L 56.2 107.6 L 54.7 119.5 L 54.02079772949219 122.64131050109863 L 56.3 124.1 L 60.9 127.4 L 65.1 130.8 L 69.0 134.3 L 72.5 137.8 L 75.7 141.4 L 78.5 145.0 L 81.0 148.7 L 83.2 152.4 L 85.0 156.2 L 84.7 160.7 L 81.3 163.8 L 76.7 163.4 L 73.7 160.1 L 72.8 156.9 Z M 83.5 174.0 L 130.0 174.0 L 130.0 138.4 L 91.4 138.4 L 91.4 134.4 L 130.0 134.4 L 130.0 106.6 L 142.0 108.6 L 145.0 110.6 L 142.0 112.4 L 142.0 134.4 L 158.5 134.4 L 168.5 124.4 L 180.5 134.4 L 180.5 138.4 L 142.0 138.4 L 142.0 174.0 L 166.4 174.0 L 176.4 164.0 L 188.4 174.0 L 188.4 178.0 L 83.5 178.0 Z M 15.8 108.4 L 13.5 104.5 L 14.5 100.0 L 16.6 97.3 L 18.5 94.1 L 20.1 90.6 L 21.5 86.7 L 22.7 82.3 L 23.6 77.5 L 24.2 72.3 L 24.5 66.7 L 24.7 60.6 L 24.7 54.1 L 26.5 53.8 L 28.4 60.1 L 29.9 66.3 L 30.7 72.2 L 31.1 77.9 L 31.1 83.4 L 30.6 88.6 L 29.7 93.6 L 28.4 98.3 L 26.5 102.8 L 24.2 107.0 L 20.3 109.4 Z M 84.1 97.5 L 130.0 97.5 L 130.0 69.1 L 105.4 69.1 L 105.4 81.1 L 93.4 87.1 L 93.4 25.6 L 105.4 27.6 L 108.4 29.6 L 105.4 31.4 L 105.4 65.1 L 130.0 65.1 L 130.0 13.7 L 142.0 15.7 L 145.0 17.7 L 142.0 19.5 L 142.0 65.1 L 166.6 65.1 L 166.6 25.6 L 178.6 27.6 L 181.6 29.6 L 178.6 31.4 L 178.6 75.1 L 166.6 81.1 L 166.6 69.1 L 142.0 69.1 L 142.0 97.5 L 165.8 97.5 L 175.8 87.5 L 187.8 97.5 L 187.8 101.5 L 84.1 101.5 Z " />
</g>
</svg>
