<svg xmlns="http://www.w3.org/2000/svg" xmlns:xlink="http://www.w3.org/1999/xlink" version="1.1" baseProfile="full" viewBox="0 0 200 200" width="200" height="200">
<g fill="black">
<path d="M 135.3 155.7 L 137.0 159.0 L 133.05542860031127 159.0668571472168 L 132.7 159.6 L 129.8 163.3 L 126.7 167.0 L 123.4 170.5 L 119.9 173.9 L 116.2 177.1 L 112.3 180.2 L 108.2 183.2 L 103.7 185.9 L 99.1 188.4 L 98.0 186.9 L 101.5 183.1 L 104.7 179.3 L 107.9 175.6 L 110.9 171.9 L 113.7 168.3 L 116.3 164.6 L 118.8 160.9 L 121.0 157.3 L 123.0 153.5 L 124.43062410354614 150.7140477180481 L 124.4 150.7 L 125.4 148.9 Z M 167.9 177.9 L 165.9 174.5 L 163.7 171.1 L 161.5 167.9 L 159.1 164.7 L 156.5 161.6 L 153.8 158.5 L 151.0 155.4 L 148.0 152.5 L 149.0 151.0 L 152.9 152.8 L 156.8 154.8 L 160.5 157.1 L 164.0 159.6 L 167.4 162.4 L 170.6 165.4 L 173.7 168.6 L 176.6 171.9 L 179.4 175.5 L 182.0 179.3 L 182.4 183.8 L 179.6 187.4 L 175.1 187.9 L 171.5 185.1 L 169.7 181.4 Z M 96.5 23.0 L 171.5 23.0 L 177.5 18.0 L 188.5 27.0 L 183.5 31.0 L 183.5 60.0 L 171.5 66.0 L 171.5 56.0 L 96.5 56.0 L 96.5 87.0 L 96.0 99.6 L 95.1 111.7 L 93.9 123.1 L 92.4 134.0 L 90.4 144.2 L 88.1 153.8 L 85.3 162.7 L 82.1 171.0 L 78.5 178.6 L 74.3 185.4 L 72.7 184.5 L 74.9 177.1 L 77.0 169.3 L 79.0 161.0 L 80.6 152.1 L 82.0 142.7 L 83.1 132.7 L 83.9 122.2 L 84.4 111.0 L 84.6 99.3 L 84.5 87.0 L 84.5 17.0 Z M 12.0 151.0 L 17.0 149.5 L 22.4 147.7 L 28.0 145.8 L 34.0 143.8 L 37.7 142.4492063522339 L 37.7 72.0 L 13.1 72.0 L 13.1 68.0 L 37.7 68.0 L 37.7 17.0 L 49.7 19.0 L 52.7 21.0 L 49.7 22.8 L 49.7 68.0 L 54.1 68.0 L 64.1 58.0 L 76.1 68.0 L 76.1 72.0 L 49.7 72.0 L 49.7 137.9072463989258 L 53.7 136.4 L 61.0 133.7 L 68.6 130.9 L 76.6 128.1 L 77.3 129.8 L 70.2 134.4 L 63.3 138.6 L 56.5 142.4 L 50.0 146.0 L 43.7 149.3 L 37.6 152.3 L 31.8 155.1 L 26.3 157.7 L 21.0 160.1 L 19.87886600494385 160.59329900741577 L 18.9 164.4 L 16.0 162.3 L 10.1 151.6 Z M 97.0 141.3 L 120.0 141.3 L 120.0 101.0 L 100.1 101.0 L 100.1 97.0 L 120.0 97.0 L 120.0 64.4 L 132.0 66.4 L 135.0 68.4 L 132.0 70.2 L 132.0 97.0 L 151.0 97.0 L 151.0 64.4 L 163.0 66.4 L 166.0 68.4 L 163.0 70.2 L 163.0 97.0 L 168.5777777671814 97.0 L 174.8 90.0 L 182.8 97.0 L 182.8 101.0 L 163.0 101.0 L 163.0 141.3 L 167.71818180084227 141.3 L 175.9 132.3 L 185.9 141.3 L 185.9 145.3 L 97.0 145.3 Z M 132.0 101.0 L 132.0 141.3 L 151.0 141.3 L 151.0 101.0 Z M 96.5 27.0 L 96.5 52.0 L 171.5 52.0 L 171.5 27.0 Z " />
</g>
</svg>
