<svg xmlns="http://www.w3.org/2000/svg" xmlns:xlink="http://www.w3.org/1999/xlink" version="1.1" baseProfile="full" viewBox="0 0 200 200" width="200" height="200">
<g fill="black">
<path d="M 109.6 108.5 L 167.3 108.5 L 173.3 103.5 L 184.3 112.5 L 179.3 116.5 L 179.3 181.4 L 167.3 187.4 L 167.3 179.4 L 109.6 179.4 L 109.6 182.4 L 97.6 188.4 L 97.6 102.5 Z M 109.6 156.2 L 109.6 175.4 L 167.3 175.4 L 167.3 156.2 Z M 13.2 155.2 L 18.8 153.4 L 24.7 151.5 L 31.0 149.4 L 37.5 147.2 L 42.0 145.7 L 42.0 76.8 L 14.4 76.8 L 14.4 72.8 L 42.0 72.8 L 42.0 22.9 L 54.0 24.9 L 57.0 26.9 L 54.0 28.7 L 54.0 72.8 L 61.5 72.8 L 71.5 62.8 L 83.5 72.8 L 83.5 76.8 L 54.0 76.8 L 54.0 141.70266666412354 L 59.2 139.9 L 67.1 137.4 L 75.4 134.8 L 84.1 132.2 L 84.8 133.9 L 76.9 138.3 L 69.2 142.3 L 61.7 146.0 L 54.5 149.5 L 47.6 152.8 L 41.0 155.9 L 34.6 158.8 L 28.6 161.5 L 22.8 164.0 L 21.222597885131837 164.7010676383972 L 20.3 168.5 L 17.4 166.4 L 11.3 155.9 Z M 109.6 134.3 L 109.6 152.2 L 167.3 152.2 L 167.3 134.3 Z M 109.6 112.5 L 109.6 130.3 L 167.3 130.3 L 167.3 112.5 Z M 142.1 18.7 L 143.7 22.0 L 138.44428148269654 22.090615844726564 L 136.8 23.5 L 135.4 24.8 L 133.9 26.0 L 132.3 27.2 L 130.6 28.5 L 130.3 28.7 L 167.6 28.7 L 173.6 23.7 L 184.6 32.7 L 179.6 36.7 L 179.6 55.5 L 167.6 61.5 L 167.6 55.5 L 105.7 55.5 L 105.7 67.3 L 171.1 67.3 L 177.1 62.3 L 188.1 71.3 L 183.1 75.3 L 183.1 95.6 L 171.1 101.6 L 171.1 95.6 L 105.7 95.6 L 93.7 101.6 L 93.7 22.7 L 105.7 28.7 L 126.91666669845581 28.7 L 127.1 28.4 L 128.3 24.4 L 129.5 20.8 L 130.0 19.0 L 131.0 15.8 L 131.3 14.2 L 131.43942193984986 13.712023162841797 L 131.2 13.6 L 132.2 11.8 Z M 105.7 71.3 L 105.7 91.6 L 171.1 91.6 L 171.1 71.3 Z M 105.7 32.7 L 105.7 51.5 L 167.6 51.5 L 167.6 32.7 Z " />
</g>
</svg>
