<svg xmlns="http://www.w3.org/2000/svg" xmlns:xlink="http://www.w3.org/1999/xlink" version="1.1" baseProfile="full" viewBox="0 0 200 200" width="200" height="200">
<g fill="black">
<path d="M 14.0 170.9 L 94.0 170.9 L 94.0 140.1 L 27.0 140.1 L 27.0 136.1 L 94.0 136.1 L 94.0 111.8 L 106.0 113.8 L 109.0 115.8 L 106.0 117.6 L 106.0 136.1 L 151.0 136.1 L 161.0 126.1 L 173.0 136.1 L 173.0 140.1 L 106.0 140.1 L 106.0 170.9 L 164.0 170.9 L 174.0 160.9 L 186.0 170.9 L 186.0 174.9 L 14.0 174.9 Z M 141.6 106.8 L 127.6 101.7 L 114.8 95.7 L 103.3 88.9 L 102.93299589157104 88.622074508667 L 96.8 92.4 L 83.1 99.0 L 68.3 104.7 L 52.3 109.4 L 35.2 112.9 L 16.9 115.3 L 16.6 113.5 L 34.4 109.2 L 50.8 104.2 L 66.0 98.6 L 79.9 92.2 L 92.5 85.0 L 95.45578699111938 82.9597222328186 L 93.0 81.1 L 84.0 72.4 L 76.5 62.9 L 70.4 52.5 L 65.9 41.3 L 67.5 40.5 L 73.9 50.3 L 81.1 59.2 L 89.1 67.3 L 98.2 74.5 L 103.13547096252441 77.65870141983032 L 103.8 77.2 L 113.9 68.5 L 122.7 59.1 L 130.3 48.9 L 136.5758620262146 38.3758620262146 L 137.3 37.0 L 147.3 43.7 L 149.0 46.9 L 145.0818600654602 47.09922742843628 L 139.6 55.5 L 130.7 66.2 L 120.6 75.9 L 111.80344257354736 82.75041646957398 L 119.3 86.6 L 131.6 91.4 L 144.9 95.5 L 159.4 98.7 L 175.1 101.2 L 185.1 102.6 L 173.2 114.2 L 156.8 111.0 Z M 83.8 23.5 L 84.6 27.0 L 80.88260869979858 26.152173900604247 L 79.4 27.5 L 74.6 31.3 L 69.6 35.0 L 64.2 38.5 L 58.5 41.9 L 52.5 45.1 L 46.2 48.2 L 39.5 51.1 L 32.5 53.7 L 25.1 56.1 L 24.3 54.4 L 30.8 50.3 L 37.1 46.3 L 43.0 42.5 L 48.6 38.6 L 53.9 34.8 L 58.8 30.9 L 63.4 27.0 L 67.7 23.1 L 71.6 19.2 L 74.45124607086181 15.94143304824829 L 74.4 15.9 L 75.4 14.9 Z M 163.4 43.9 L 158.6 40.5 L 153.6 37.2 L 148.3 34.1 L 142.7 31.1 L 136.8 28.2 L 130.6 25.4 L 124.2 22.6 L 117.5 19.8 L 118.0 18.0 L 125.3 18.9 L 132.3 20.3 L 139.1 22.0 L 145.6 24.1 L 151.9 26.4 L 158.0 29.0 L 163.8 31.9 L 169.3 35.0 L 174.6 38.4 L 179.7 42.0 L 181.8 46.1 L 180.4 50.5 L 176.4 52.5 L 172.0 51.2 L 167.8 47.5 Z " />
</g>
</svg>
