<svg xmlns="http://www.w3.org/2000/svg" xmlns:xlink="http://www.w3.org/1999/xlink" version="1.1" baseProfile="full" viewBox="0 0 200 200" width="200" height="200">
<g fill="black">
<path d="M 14.0 177.4 L 94.0 177.4 L 94.0 149.7 L 27.0 149.7 L 27.0 145.7 L 94.0 145.7 L 94.0 123.6 L 106.0 125.6 L 109.0 127.6 L 106.0 129.4 L 106.0 145.7 L 151.0 145.7 L 161.0 135.7 L 173.0 145.7 L 173.0 149.7 L 106.0 149.7 L 106.0 177.4 L 164.0 177.4 L 174.0 167.4 L 186.0 177.4 L 186.0 181.4 L 14.0 181.4 Z M 70.1 89.7 L 68.7 91.8 L 67.0 93.6 L 65.1 95.2 L 63.0 96.5 L 60.7 97.5 L 58.3 98.2 L 55.9 98.6 L 53.3 98.8 L 53.3 92.8 L 43.3 89.8 L 43.3 86.8 L 53.3 86.8 L 54.6 86.7 L 55.8 86.5 L 56.7 86.2 L 57.4 85.9 L 58.1 85.5 L 58.7 85.0 L 59.2 84.4 L 59.8 83.6 L 60.3 82.6 L 60.7 81.4 L 61.5 79.7 L 61.9 77.9 L 62.0 75.7 L 61.5 73.3 L 60.5 70.5 L 58.9 67.5 L 56.6 64.2 L 53.8 60.7 L 50.3 57.0 L 46.1 53.3 L 46.21999998092652 53.119999980926515 L 45.1 52.0 L 48.0 47.9 L 50.6 43.9 L 53.0 40.1 L 55.3 36.4 L 57.4 32.9 L 59.3 29.5 L 61.0 26.3 L 62.5 23.2 L 62.980000019073486 22.0 L 34.2 22.0 L 34.2 124.4 L 22.2 130.4 L 22.2 12.0 L 34.2 18.0 L 64.2 18.0 L 64.60677967071533 17.661016941070557 L 64.7 17.4 L 64.83990669250488 17.466744422912598 L 70.2 13.0 L 81.2 22.0 L 76.2 25.0 L 73.2336000442505 26.235999965667723 L 71.5 28.6 L 69.2 31.6 L 66.6 34.6 L 63.9 37.7 L 60.9 40.8 L 57.6 43.9 L 54.2 47.0 L 50.4 50.1 L 47.79117650985718 52.18705883026123 L 52.1 54.6 L 56.7 57.3 L 60.7 60.1 L 64.2 63.1 L 67.1 66.3 L 69.5 69.6 L 71.3 73.2 L 72.4 77.0 L 72.7 81.0 L 72.1 85.1 L 71.2 87.5 Z M 103.3 61.3 L 158.1 61.3 L 164.1 56.3 L 175.1 65.3 L 170.1 69.3 L 170.1 94.5 L 158.1 100.5 L 158.1 94.5 L 136.7 94.5 L 136.7 104.7 L 169.8181818008423 104.7 L 178.0 95.7 L 188.0 104.7 L 188.0 108.7 L 136.7 108.7 L 136.7 123.8 L 124.7 129.8 L 124.7 108.7 L 74.7 108.7 L 74.7 104.7 L 124.7 104.7 L 124.7 94.5 L 103.3 94.5 L 91.3 100.5 L 91.3 55.3 Z M 103.3 79.9 L 103.3 90.5 L 158.1 90.5 L 158.1 79.9 Z M 103.3 65.3 L 103.3 75.9 L 158.1 75.9 L 158.1 65.3 Z M 108.2 41.6 L 107.9 40.2 L 107.4 38.7 L 106.8 37.1 L 106.0 35.5 L 105.0 33.8 L 103.9 32.0 L 102.6 30.2 L 100.8 28.8 L 101.7375 27.3 L 82.7 27.3 L 82.7 23.3 L 125.2 23.3 L 125.2 9.7 L 137.2 11.7 L 140.2 13.7 L 137.2 15.5 L 137.2 23.3 L 157.7 23.3 L 167.7 13.3 L 179.7 23.3 L 179.7 27.3 L 154.10845069885255 27.3 L 161.7 32.8 L 163.2 36.0 L 158.5 36.0 L 157.2 37.3 L 155.4 38.9 L 153.5 40.6 L 151.5 42.4 L 149.3 44.3 L 147.0 46.2 L 144.67368421554565 47.9 L 168.11818180084228 47.9 L 176.3 38.9 L 186.3 47.9 L 186.3 51.9 L 75.1 51.9 L 75.1 47.9 L 114.6 47.9 L 111.6 47.7 L 108.4 44.4 L 108.4 43.0 Z M 103.8 28.4 L 106.1 29.2 L 108.2 30.1 L 110.2 31.1 L 112.1 32.3 L 113.9 33.7 L 115.6 35.1 L 117.1 36.7 L 118.5 38.4 L 119.7 40.3 L 119.5 44.9 L 116.20967741012574 47.9 L 141.68518514633178 47.9 L 142.6 46.6 L 143.9 43.7 L 145.3 41.1 L 146.5 38.5 L 147.6 36.2 L 148.6 34.0 L 149.5 31.9 L 150.2 30.0 L 150.9 28.2 L 151.07670478820802 27.634544563293456 L 150.8 27.5 L 150.9222222328186 27.3 L 101.96666669845581 27.3 Z " />
</g>
</svg>
