<svg xmlns="http://www.w3.org/2000/svg" xmlns:xlink="http://www.w3.org/1999/xlink" version="1.1" baseProfile="full" viewBox="0 0 200 200" width="200" height="200">
<g fill="black">
<path d="M 14.0 172.3 L 94.0 172.3 L 94.0 143.3 L 27.0 143.3 L 27.0 139.3 L 94.0 139.3 L 94.0 116.3 L 99.27848100662231 117.17974681854248 L 100.9 114.4 L 102.8 110.9 L 104.4 107.6 L 105.8 104.4 L 106.9 101.3 L 107.8 98.3 L 108.4 95.4 L 108.8 92.6 L 108.86282720565796 90.90366487503051 L 108.8 90.9 L 108.88717947006225 90.24615383148193 L 108.9 89.9 L 108.93271026611328 89.90467290878296 L 109.2 87.9 L 120.8 91.6 L 123.4 94.1 L 119.50191297531128 95.71807384490967 L 118.4 98.6 L 116.7 101.9 L 114.8 105.1 L 112.6 108.3 L 110.1 111.4 L 107.4 114.3 L 104.4 117.2 L 103.5326530456543 117.8887755393982 L 106.0 118.3 L 109.0 120.3 L 106.0 122.1 L 106.0 139.3 L 151.0 139.3 L 161.0 129.3 L 173.0 139.3 L 173.0 143.3 L 106.0 143.3 L 106.0 172.3 L 164.0 172.3 L 174.0 162.3 L 186.0 172.3 L 186.0 176.3 L 14.0 176.3 Z M 172.7 80.5 L 171.9 78.5 L 170.8 76.4 L 169.42433376312255 74.2382387161255 L 165.1 75.4 L 158.4 77.0 L 147.3 79.09130430221558 L 147.3 123.4 L 135.3 129.4 L 135.3 81.05633802413941 L 130.5 81.8 L 123.4 82.7 L 116.2 83.7 L 105.71482257843017 84.84906053543091 L 103.8 88.2 L 101.6 85.3 L 98.8 73.5 L 100.8 73.3 L 108.1 73.2 L 115.4 73.0 L 120.71734199523925 72.77844409942627 L 122.3 71.4 L 128.3 66.4 L 134.1 61.6 L 139.7 57.1 L 145.0 52.8 L 150.0 48.6 L 154.7 44.7 L 159.2 40.9 L 163.3 37.3 L 167.1 33.8 L 167.1414330482483 33.85124607086182 L 167.2 33.8 L 174.7 43.2 L 175.0 46.8 L 171.36086959838866 45.47667980194092 L 170.3 46.2 L 165.7 49.4 L 160.7 52.7 L 155.5 56.1 L 149.9 59.6 L 144.1 63.3 L 137.9 67.0 L 131.4 70.8 L 128.19007034301757 72.5425332069397 L 136.8 72.3 L 143.9 72.0 L 150.8 71.8 L 157.8 71.6 L 164.7 71.6 L 167.51806926727295 71.6816831588745 L 165.7 69.5 L 163.3 67.1 L 160.6 64.6 L 157.4 62.3 L 158.2 60.7 L 161.9 62.3 L 165.5 63.6 L 168.9 65.2 L 172.0 66.9 L 174.8 68.8 L 177.4 70.8 L 179.7 73.1 L 181.7 75.5 L 183.5 78.1 L 184.9 81.0 L 184.3 85.5 L 180.7 88.4 L 176.2 87.8 L 173.3 84.2 L 173.1 82.4 Z M 85.6 76.9 L 84.8 74.8 L 83.6 72.6 L 82.7331395149231 71.17587213516235 L 80.3 72.0 L 73.9 73.8 L 67.3 75.4 L 62.3 76.53636360168457 L 62.3 123.4 L 50.3 129.4 L 50.3 78.90735292434692 L 47.2 79.5 L 33.4 81.9 L 26.3 83.0 L 23.266690826416017 83.42722663879394 L 21.5 86.8 L 19.2 84.0 L 16.0 72.3 L 18.0 72.1 L 25.1 71.7 L 32.2 71.2 L 39.1 70.8 L 39.6390625 70.7609375 L 40.9 69.5 L 46.3 64.3 L 51.6 59.3 L 56.7 54.4 L 61.7 49.8 L 66.4 45.2 L 71.0 40.8 L 75.4 36.4 L 79.5 32.2 L 82.76269960403442 28.855732917785645 L 82.7 28.8 L 83.7 27.9 L 91.7 36.8 L 92.3 40.4 L 88.66629209518433 39.3617977142334 L 87.2 40.6 L 82.5 44.4 L 77.6 48.3 L 72.5 52.3 L 67.1 56.3 L 61.5 60.3 L 55.7 64.4 L 49.6 68.5 L 46.863558292388916 70.23742332458497 L 52.9 69.8 L 59.7 69.3 L 66.4 68.9 L 73.0 68.5 L 79.6 68.2 L 80.63622150421142 68.184299659729 L 80.5 68.0 L 78.4 65.6 L 76.1 63.0 L 73.5 60.4 L 70.3 58.1 L 71.2 56.5 L 74.9 58.2 L 78.4 59.6 L 81.8 61.3 L 84.8 63.0 L 87.6 65.0 L 90.2 67.1 L 92.5 69.3 L 94.6 71.7 L 96.4 74.3 L 97.9 77.1 L 97.5 81.7 L 94.1 84.7 L 89.6 84.3 L 86.5 80.9 L 86.2 79.0 Z M 37.379720306396486 93.13216781616211 L 36.7 95.7 L 35.5 99.0 L 34.1 102.3 L 32.3 105.6 L 30.3 108.8 L 27.9 112.0 L 25.3 115.1 L 22.3 118.2 L 19.3 121.5 L 17.8 120.4 L 20.0 116.6 L 21.6 112.8 L 23.0 109.2 L 24.2 105.8 L 25.1 102.5 L 25.8 99.5 L 26.3 96.6 L 26.4 93.9 L 26.4 91.3 L 26.22371129989624 89.88969068527221 L 26.1 89.9 L 26.1 86.5 L 38.1 88.9 L 41.1 90.9 Z M 170.5 108.5 L 169.9 106.4 L 169.1 104.2 L 168.0 101.9 L 166.6 99.6 L 165.0 97.2 L 163.0 94.7 L 160.8 92.1 L 158.1 89.8 L 159.0 88.3 L 162.3 90.0 L 165.5 91.5 L 168.5 93.2 L 171.3 95.1 L 173.8 97.2 L 176.1 99.4 L 178.2 101.8 L 179.9 104.3 L 181.5 107.1 L 182.7 110.0 L 181.8 114.5 L 178.1 117.1 L 173.6 116.3 L 170.9 112.5 L 170.8 110.6 Z M 82.7 103.2 L 82.6 101.5 L 82.1 99.7 L 81.3 97.7 L 80.1 95.7 L 78.5 93.5 L 76.6 91.2 L 74.3 88.8 L 71.3 86.8 L 72.2 85.2 L 75.5 86.7 L 78.9 87.9 L 81.9 89.4 L 84.6 91.1 L 87.1 93.0 L 89.2 95.2 L 91.1 97.6 L 92.6 100.3 L 93.7 103.2 L 94.3 106.3 L 92.5 110.5 L 88.3 112.3 L 84.1 110.5 L 82.3 106.3 L 82.6 104.8 Z M 121.7 55.9 L 119.7 54.0 L 117.4 52.1 L 115.0 50.2 L 112.3 48.3 L 109.3 46.4 L 106.2 44.5 L 102.9 42.5 L 99.3 40.9 L 99.8 39.1 L 103.8 39.9 L 107.7 40.4 L 111.5 41.2 L 115.1 42.2 L 117.30732984542847 42.91413612365723 L 119.7 41.0 L 122.9 38.0 L 125.9 35.2 L 128.8 32.6 L 131.4 30.1 L 133.9 27.8 L 136.1 25.5 L 136.76666669845582 24.8 L 58.1375 24.8 L 61.4 27.7 L 62.5 31.2 L 58.00073528289795 30.579411792755128 L 57.6 30.9 L 55.4 32.5 L 53.1 34.1 L 50.5 35.9 L 47.8 37.6 L 44.8 39.4 L 41.6 41.3 L 38.1 43.1 L 37.425096893310545 43.524224853515626 L 38.9 44.0 L 41.8 45.1 L 44.5 46.3 L 47.1 47.6 L 49.5 49.1 L 51.3 53.3 L 49.8 57.6 L 45.7 59.5 L 41.4 58.0 L 40.2 56.4 L 38.7 54.8 L 36.9 53.2 L 34.9 51.6 L 32.6 49.9 L 30.1 48.2 L 27.3 46.5 L 24.2 44.8 L 21.0 42.9 L 17.3 41.5 L 17.8 39.7 L 21.7 40.4 L 25.6 40.8 L 29.2 41.4 L 32.6 42.1 L 34.70731706619263 42.692682933807376 L 36.4 41.0 L 38.9 38.1 L 41.3 35.3 L 43.4 32.7 L 45.4 30.2 L 47.2 27.9 L 48.7 25.8 L 49.35 24.8 L 18.0 24.8 L 18.0 20.8 L 51.61428575515747 20.8 L 52.4 19.7 L 53.6375 20.8 L 140.37368421554567 20.8 L 140.7857536315918 20.278045463562012 L 140.7 20.2 L 141.6 19.3 L 142.9333333015442 20.8 L 165.0 20.8 L 175.0 10.8 L 187.0 20.8 L 187.0 24.8 L 146.4888889312744 24.8 L 149.6 28.3 L 150.1 31.9 L 146.01339893341066 30.659424686431883 L 144.7 31.5 L 142.0 33.1 L 139.1 34.8 L 136.0 36.5 L 132.7 38.2 L 129.1 40.0 L 125.3 41.7 L 121.2 43.4 L 120.10712490081787 43.933109760284424 L 121.8 44.6 L 124.9 46.0 L 127.9 47.5 L 130.7 49.2 L 133.3 51.0 L 135.2 55.2 L 133.6 59.5 L 129.4 61.3 L 125.1 59.7 L 123.5 57.8 Z " />
</g>
</svg>
