<svg xmlns="http://www.w3.org/2000/svg" xmlns:xlink="http://www.w3.org/1999/xlink" version="1.1" baseProfile="full" viewBox="0 0 200 200" width="200" height="200">
<g fill="black">
<path d="M 98.2 182.0 L 86.2 188.0 L 86.2 126.0 L 98.2 132.0 L 158.7 132.0 L 164.7 127.0 L 175.7 136.0 L 170.7 140.0 L 170.7 167.0 L 176.7 171.0 L 176.7 175.0 L 98.2 175.0 Z M 98.2 136.0 L 98.2 171.0 L 158.7 171.0 L 158.7 136.0 Z M 13.2 151.0 L 18.0 149.5 L 23.1 147.8 L 28.4 145.9 L 34.1 143.8 L 37.5 142.47457628250123 L 37.5 72.0 L 14.4 72.0 L 14.4 68.0 L 37.5 68.0 L 37.5 17.0 L 49.5 19.0 L 52.5 21.0 L 49.5 22.8 L 49.5 68.0 L 52.2 68.0 L 62.2 58.0 L 74.2 68.0 L 74.2 72.0 L 49.5 72.0 L 49.5 137.81999998092653 L 52.8 136.5 L 59.7 133.7 L 67.0 131.0 L 74.6 128.2 L 75.4 129.7 L 68.7 134.3 L 62.1 138.5 L 55.7 142.4 L 49.5 145.9 L 43.6 149.2 L 37.9 152.3 L 32.4 155.1 L 27.2 157.7 L 22.2 160.1 L 21.26666669845581 160.50833330154418 L 20.4 164.3 L 17.4 162.2 L 11.4 151.7 Z M 163.6 115.6 L 156.6 110.9 L 150.3 106.1 L 144.8 100.9 L 140.1 95.4 L 136.3 89.7 L 133.4 83.8 L 131.89213762283325 78.87960691452027 L 129.4 86.0 L 125.5 93.4 L 120.5 100.1 L 114.4 106.1 L 107.3 111.3 L 99.3 115.9 L 90.3 119.7 L 80.4 122.8 L 69.5 125.1 L 69.0 123.4 L 79.1 119.2 L 88.1 114.8 L 96.1 110.2 L 102.9 105.2 L 108.6 99.9 L 113.2 94.3 L 116.8 88.4 L 119.4 82.1 L 121.1 75.5 L 121.47183094024658 72.2 L 77.5 72.2 L 77.5 68.2 L 121.9 68.2 L 121.9 38.7 L 91.3 38.7 L 91.3 34.7 L 121.9 34.7 L 121.9 10.6 L 133.9 12.6 L 136.9 14.6 L 133.9 16.4 L 133.9 34.7 L 157.1 34.7 L 163.1 29.7 L 174.1 38.7 L 169.1 42.7 L 169.1 68.2 L 171.11818180084228 68.2 L 179.3 59.2 L 189.3 68.2 L 189.3 72.2 L 133.34651165008546 72.2 L 133.28854351043702 72.49325046539306 L 135.3 76.1 L 138.6 81.0 L 142.2 85.5 L 146.3 89.9 L 151.1 94.0 L 156.5 97.9 L 162.5 101.7 L 169.3 105.2 L 176.7 108.5 L 184.8 111.7 L 191.4 114.3 L 179.9 123.9 L 171.4 119.9 Z M 133.9 38.7 L 133.9 68.2 L 157.1 68.2 L 157.1 38.7 Z " />
</g>
</svg>
