<svg xmlns="http://www.w3.org/2000/svg" xmlns:xlink="http://www.w3.org/1999/xlink" version="1.1" baseProfile="full" viewBox="0 0 200 200" width="200" height="200">
<g fill="black">
<path d="M 158.2 180.5 L 148.9 174.6 L 140.3 167.5 L 134.1798098564148 161.0618779182434 L 125.8 168.0 L 115.7 174.6 L 104.8 180.0 L 93.1 184.1 L 80.6 187.0 L 80.2 185.2 L 91.8 180.6 L 102.4 175.2 L 112.2 169.1 L 121.1 162.1 L 128.8582417488098 154.53571424484252 L 125.6 150.3 L 119.4 140.2 L 114.0 129.1 L 109.5 117.0 L 106.34732828140258 105.2 L 90.2 105.2 L 90.2 101.2 L 156.9 101.2 L 162.9 96.2 L 173.9 105.2 L 168.9 108.2 L 167.22323837280274 108.89865064620972 L 163.7 118.2 L 157.9 130.3 L 151.2 141.4 L 143.6 151.4 L 140.79873180389404 154.3330924987793 L 147.0 159.8 L 155.1 165.4 L 163.6 170.0 L 172.7 173.7 L 182.2 176.4 L 190.7 178.5 L 179.0 189.1 L 168.2 185.4 Z M 12.2 149.0 L 17.4 147.3 L 22.9 145.5 L 28.7 143.5 L 34.9 141.4 L 38.7 140.09375 L 38.7 74.0 L 13.4 74.0 L 13.4 70.0 L 38.7 70.0 L 38.7 22.0 L 50.7 24.0 L 53.7 26.0 L 50.7 27.8 L 50.7 70.0 L 55.8 70.0 L 65.8 60.0 L 77.8 70.0 L 77.8 74.0 L 50.7 74.0 L 50.7 135.98732395172118 L 55.1 134.5 L 62.5 132.0 L 70.2 129.5 L 78.4 127.1 L 79.1 128.8 L 71.7 133.0 L 64.6 136.9 L 57.7 140.5 L 51.0 143.9 L 44.5 147.0 L 38.4 150.0 L 32.5 152.8 L 26.9 155.4 L 21.5 157.9 L 20.263356399536132 158.46885604858397 L 19.4 162.3 L 16.5 160.2 L 10.3 149.7 Z M 108.67213115692138 105.2 L 113.4 115.5 L 119.3 126.5 L 125.6 136.4 L 132.3 145.3 L 134.5251844406128 147.74456882476807 L 136.3 145.6 L 142.7 136.0 L 148.3 125.4 L 153.2 114.0 L 156.0159999847412 105.2 Z M 77.1 80.0 L 127.5 80.0 L 127.5 44.4 L 85.6 44.4 L 85.6 40.4 L 127.5 40.4 L 127.5 12.6 L 139.5 14.6 L 142.5 16.6 L 139.5 18.4 L 139.5 40.4 L 159.3 40.4 L 169.3 30.4 L 181.3 40.4 L 181.3 44.4 L 139.5 44.4 L 139.5 80.0 L 167.8 80.0 L 177.8 70.0 L 189.8 80.0 L 189.8 84.0 L 77.1 84.0 Z " />
</g>
</svg>
