<svg xmlns="http://www.w3.org/2000/svg" xmlns:xlink="http://www.w3.org/1999/xlink" version="1.1" baseProfile="full" viewBox="0 0 200 200" width="200" height="200">
<g fill="black">
<path d="M 176.3 164.6 L 174.9 159.2 L 173.2 154.1 L 171.3 149.1 L 169.0 144.3 L 166.4 139.7 L 163.5 135.2 L 160.4 130.7 L 158.97426376342773 128.8549295425415 L 158.9 129.1 L 151.6 145.2 L 143.3 158.2 L 134.4 168.5 L 125.3 176.5 L 116.1 182.8 L 107.3 187.7 L 106.3 186.2 L 113.9 179.7 L 121.8 172.5 L 129.6 164.1 L 137.1 153.9 L 144.0 141.4 L 150.1 126.0 L 155.1 107.1 L 158.6 84.2 L 160.3 56.7 L 159.9 24.2 L 159.9705018043518 24.197062397003172 L 159.9 21.8 L 171.9 23.7 L 175.0 25.6 L 171.87640781402587 27.639896965026857 L 171.7 57.1 L 169.2 85.5 L 164.9 109.3 L 159.85537099838257 125.9472755432129 L 163.1 128.0 L 167.6 131.7 L 171.7 135.8 L 175.4 140.3 L 178.7 145.1 L 181.7 150.3 L 184.4 155.8 L 186.6 161.6 L 188.5 167.7 L 190.1 174.0 L 189.0 178.5 L 185.1 180.9 L 180.7 179.8 L 178.3 176.0 L 177.4 170.2 Z M 71.9 165.3 L 77.6 162.0 L 83.4 158.4 L 84.8 157.44210529327393 L 84.8 29.0 L 96.8 31.0 L 99.8 33.0 L 96.8 34.8 L 96.8 148.6859648704529 L 100.5 145.7 L 106.2 140.8 L 112.0 135.6 L 117.8 130.1 L 123.7 124.4 L 129.7 118.4 L 131.2 119.5 L 126.6 126.8 L 121.8 133.7 L 116.8 140.1 L 111.6 146.2 L 106.3 151.9 L 100.8 157.3 L 95.3 162.4 L 89.7 167.1 L 83.9 171.5 L 81.5645447731018 173.15092525482177 L 81.4 177.1 L 78.1 175.6 L 70.2 166.3 Z M 11.8 151.0 L 16.8 149.5 L 22.1 147.7 L 27.7 145.8 L 33.6 143.8 L 37.2 142.46451616287231 L 37.2 72.0 L 12.9 72.0 L 12.9 68.0 L 37.2 68.0 L 37.2 17.0 L 49.2 19.0 L 52.2 21.0 L 49.2 22.8 L 49.2 68.0 L 53.2 68.0 L 63.2 58.0 L 75.2 68.0 L 75.2 72.0 L 49.2 72.0 L 49.2 137.8911765098572 L 53.1 136.4 L 60.2 133.7 L 67.8 130.9 L 75.7 128.1 L 76.5 129.8 L 69.4 134.4 L 62.6 138.6 L 55.9 142.4 L 49.4 145.9 L 43.2 149.2 L 37.2 152.3 L 31.5 155.1 L 26.1 157.7 L 20.9 160.1 L 19.717978286743165 160.62008953094482 L 18.8 164.4 L 15.9 162.3 L 10.0 151.6 Z M 127.2 71.8 L 126.0 66.7 L 124.7 62.1 L 123.2 57.8 L 121.4 53.8 L 119.5 50.1 L 117.5 46.6 L 115.2 43.4 L 112.7 40.3 L 113.7 38.8 L 117.6 40.6 L 121.3 43.1 L 124.7 46.2 L 127.8 49.8 L 130.6 54.0 L 133.2 58.5 L 135.5 63.5 L 137.5 69.0 L 139.3 74.8 L 140.8 81.0 L 139.7 85.5 L 135.8 87.9 L 131.4 86.8 L 128.9 83.0 L 128.1 77.2 Z " />
</g>
</svg>
