<svg xmlns="http://www.w3.org/2000/svg" xmlns:xlink="http://www.w3.org/1999/xlink" version="1.1" baseProfile="full" viewBox="0 0 200 200" width="200" height="200">
<g fill="black">
<path d="M 168.8 159.6 L 163.6 153.2 L 158.7 146.5 L 154.0 139.4 L 149.5 131.8 L 145.3 123.8 L 141.4 115.4 L 139.0 109.36571426391602 L 139.0 183.4 L 129.0 188.4 L 129.0 117.82173910140992 L 128.1 119.7 L 123.2 128.7 L 118.0 137.3 L 112.4 145.3 L 106.4 152.8 L 100.2 159.7 L 93.5 166.1 L 86.5 171.7 L 79.1 176.7 L 78.0 175.2 L 83.9 168.9 L 89.7 162.3 L 95.2 155.4 L 100.4 148.2 L 105.4 140.6 L 110.0 132.5 L 114.4 124.0 L 118.4 115.1 L 122.2 105.7 L 124.52142858505249 99.2 L 99.1 99.2 L 99.1 111.2 L 88.1 116.7 L 88.1 36.7 L 99.1 38.7 L 101.8 40.7 L 99.1 42.42340421676636 L 99.1 95.2 L 129.0 95.2 L 129.0 11.0 L 139.0 13.0 L 141.5 15.0 L 139.0 16.66666669845581 L 139.0 95.2 L 168.8 95.2 L 168.8 36.7 L 179.8 38.7 L 182.6 40.7 L 179.8 42.45 L 179.8 105.2 L 168.8 110.7 L 168.8 99.2 L 139.0 99.2 L 139.0 100.56862745285034 L 141.6 104.8 L 146.6 112.7 L 151.6 120.2 L 156.6 127.3 L 161.6 134.0 L 166.8 140.3 L 172.0 146.1 L 177.4 151.4 L 182.8 156.4 L 188.4 160.9 L 190.7 162.9 L 179.8 171.0 L 174.2 165.5 Z M 12.8 151.0 L 17.7 149.5 L 22.9 147.8 L 28.5 145.9 L 34.4 143.8 L 38.0 142.44262294769288 L 38.0 72.0 L 13.9 72.0 L 13.9 68.0 L 38.0 68.0 L 38.0 17.0 L 50.0 19.0 L 53.0 21.0 L 50.0 22.8 L 50.0 68.0 L 53.8 68.0 L 63.8 58.0 L 75.8 68.0 L 75.8 72.0 L 50.0 72.0 L 50.0 137.8529411315918 L 53.8 136.4 L 60.9 133.7 L 68.4 130.9 L 76.2 128.1 L 77.0 129.8 L 70.0 134.3 L 63.2 138.6 L 56.6 142.4 L 50.2 145.9 L 44.0 149.2 L 38.1 152.3 L 32.4 155.1 L 26.9 157.7 L 21.8 160.1 L 20.67886600494385 160.59329900741577 L 19.7 164.4 L 16.8 162.3 L 10.9 151.6 Z M 119.0 16.0 L 121.5 18.0 L 119.0 19.66666669845581 L 119.0 74.5 L 109.0 79.5 L 109.0 14.0 Z M 160.0 15.0 L 162.5 17.0 L 160.0 18.66666669845581 L 160.0 73.5 L 150.0 78.5 L 150.0 13.0 Z " />
</g>
</svg>
