<svg xmlns="http://www.w3.org/2000/svg" xmlns:xlink="http://www.w3.org/1999/xlink" version="1.1" baseProfile="full" viewBox="0 0 200 200" width="200" height="200">
<g fill="black">
<path d="M 14.0 176.0 L 93.0 176.0 L 93.0 152.0 L 26.0 152.0 L 26.0 148.0 L 93.0 148.0 L 93.0 119.0 L 105.0 121.0 L 108.0 123.0 L 105.0 124.8 L 105.0 148.0 L 149.0 148.0 L 159.0 138.0 L 171.0 148.0 L 171.0 152.0 L 105.0 152.0 L 105.0 176.0 L 162.0 176.0 L 172.0 166.0 L 184.0 176.0 L 184.0 180.0 L 14.0 180.0 Z M 156.0 129.4 L 148.2 126.1 L 141.0 122.5 L 134.2 118.8 L 128.1 114.8 L 122.5 110.6 L 117.5 106.1 L 113.3 101.4 L 111.1 98.0 L 71.74390239715576 98.0 L 79.9 105.6 L 80.8 109.1 L 76.94234294891358 108.42321805953979 L 75.5 109.8 L 70.8 113.6 L 65.5 117.2 L 59.7 120.5 L 53.5 123.6 L 46.9 126.5 L 39.7 129.0 L 32.0 131.3 L 23.9 133.3 L 15.2 134.8 L 14.7 133.1 L 22.7 129.7 L 30.2 126.3 L 37.2 123.0 L 43.6 119.6 L 49.5 116.1 L 54.9 112.6 L 59.7 109.0 L 63.9 105.3 L 67.6 101.6 L 70.53684206008911 98.0 L 49.6 98.0 L 49.6 105.0 L 37.6 111.0 L 37.6 45.9 L 49.6 51.9 L 91.0 51.9 L 91.0 12.0 L 103.0 14.0 L 106.0 16.0 L 103.0 17.8 L 103.0 31.0 L 146.0 31.0 L 156.0 21.0 L 168.0 31.0 L 168.0 35.0 L 103.0 35.0 L 103.0 51.9 L 147.3 51.9 L 153.3 46.9 L 164.3 55.9 L 159.3 59.9 L 159.3 102.0 L 147.3 108.0 L 147.3 98.0 L 115.740625 98.0 L 116.2 98.3 L 121.2 101.5 L 126.6 104.6 L 132.3 107.6 L 138.5 110.5 L 145.2 113.2 L 152.3 115.8 L 159.9 118.2 L 168.0 120.5 L 176.7 122.6 L 185.0 124.8 L 173.2 135.3 L 164.4 132.4 Z M 49.6 76.3 L 49.6 94.0 L 147.3 94.0 L 147.3 76.3 Z M 49.6 55.9 L 49.6 72.3 L 147.3 72.3 L 147.3 55.9 Z " />
</g>
</svg>
