<svg xmlns="http://www.w3.org/2000/svg" xmlns:xlink="http://www.w3.org/1999/xlink" version="1.1" baseProfile="full" viewBox="0 0 200 200" width="200" height="200">
<g fill="black">
<path d="M 157.0 173.4 L 146.7 162.4 L 140.3471875190735 152.46916666030884 L 132.1 159.8 L 121.9 167.7 L 111.5 174.6 L 100.7 180.5 L 89.6 185.2 L 78.3 188.8 L 77.6 187.1 L 88.0 181.8 L 98.1 175.8 L 107.8 169.1 L 117.3 161.7 L 126.5 153.5 L 135.4 144.4 L 135.8084259033203 143.92983531951904 L 130.8 132.8 L 126.70587911605836 119.58389034271241 L 122.2 123.6 L 112.5 131.1 L 102.4 137.9 L 91.8 144.0 L 80.8 149.3 L 69.3 153.8 L 68.6 152.1 L 79.0 146.0 L 89.1 139.4 L 98.7 132.5 L 107.8 125.1 L 116.5 117.3 L 124.0719521522522 109.45102529525757 L 120.8 93.7 L 117.8 70.5 L 117.58700399398803 67.09206438064575 L 80.2 70.9 L 79.7 67.0 L 117.34163312911987 63.166129970550536 L 116.2 44.9 L 115.91070566177368 17.899197101593018 L 115.9 17.9 L 115.90785341262817 17.632984256744386 L 115.9 16.9 L 115.92940454483032 16.900244998931885 L 116.0 14.5 L 127.9 17.0 L 130.9 19.1 L 127.9416275024414 20.815856075286867 L 128.2 44.5 L 129.32102851867677 61.94600639343262 L 165.86383514404298 58.22405385971069 L 174.8 47.2 L 187.7 56.0 L 188.2 59.9 L 129.57325258255005 65.87124280929565 L 129.8 69.4 L 132.6 91.7 L 133.9203914642334 98.0765245437622 L 139.9 90.4 L 146.8 80.3 L 152.80722017288207 70.50361013412476 L 152.8 70.5 L 153.8 68.8 L 163.6 75.9 L 165.1 79.2 L 161.35963306427 79.2 L 156.2 86.8 L 148.4 96.9 L 140.1 106.5 L 136.43995685577391 110.24418201446534 L 136.7 111.5 L 142.1 128.6 L 144.47410507202147 133.896080493927 L 152.4 123.8 L 160.5 112.1 L 168.3 99.6 L 168.32148275375366 99.61347932815552 L 168.8 98.8 L 178.5 106.0 L 180.0 109.2 L 176.3158730506897 109.2 L 169.9 118.6 L 160.9 130.3 L 151.6 141.1 L 149.02115259170532 143.75943632125853 L 156.2 155.0 L 165.0 164.5 L 174.8 171.5 L 178.86476249694823 173.25269575119017 L 184.0 151.0 L 186.0 151.0 L 184.1141393661499 175.51618852615357 L 185.7 176.2 L 189.2 179.2 L 189.7 183.7 L 186.7 187.2 L 182.2 187.7 L 168.9 181.9 Z M 12.4 151.0 L 17.5 149.4 L 23.0 147.7 L 28.7 145.8 L 34.8 143.7 L 38.7 142.359375 L 38.7 72.0 L 13.4 72.0 L 13.4 68.0 L 38.7 68.0 L 38.7 17.0 L 50.7 19.0 L 53.7 21.0 L 50.7 22.8 L 50.7 68.0 L 55.8 68.0 L 65.8 58.0 L 77.8 68.0 L 77.8 72.0 L 50.7 72.0 L 50.7 137.99714288711547 L 55.0 136.4 L 62.4 133.7 L 70.2 130.9 L 78.3 128.1 L 79.1 129.8 L 71.8 134.4 L 64.7 138.6 L 57.7 142.4 L 51.0 146.0 L 44.6 149.3 L 38.4 152.3 L 32.5 155.1 L 26.8 157.7 L 21.4 160.1 L 20.19810962677002 160.6184624671936 L 19.2 164.5 L 16.3 162.3 L 10.5 151.6 Z " />
</g>
</svg>
