<svg xmlns="http://www.w3.org/2000/svg" xmlns:xlink="http://www.w3.org/1999/xlink" version="1.1" baseProfile="full" viewBox="0 0 200 200" width="200" height="200">
<g fill="black">
<path d="M 157.3 74.0 L 157.3 78.0 L 135.0 78.0 L 135.0 99.0 L 158.4 99.0 L 168.4 89.0 L 180.4 99.0 L 180.4 103.0 L 135.0 103.0 L 135.0 127.0 L 155.3 127.0 L 161.3 122.0 L 172.3 131.0 L 167.3 135.0 L 167.3 178.0 L 155.3 184.0 L 155.3 172.0 L 102.6 172.0 L 102.6 184.0 L 90.6 190.0 L 90.6 121.0 L 102.6 127.0 L 123.0 127.0 L 123.0 103.0 L 79.5 103.0 L 79.5 99.0 L 123.0 99.0 L 123.0 78.0 L 99.9 78.0 L 99.9 74.0 L 135.3 74.0 L 145.3 64.0 Z M 102.6 168.0 L 155.3 168.0 L 155.3 131.0 L 102.6 131.0 Z M 14.9 149.0 L 20.0 147.3 L 25.5 145.5 L 31.2 143.5 L 37.2 141.4 L 41.0 140.09375 L 41.0 74.0 L 16.2 74.0 L 16.2 70.0 L 41.0 70.0 L 41.0 22.0 L 53.0 24.0 L 56.0 26.0 L 53.0 27.8 L 53.0 70.0 L 57.5 70.0 L 67.5 60.0 L 79.5 70.0 L 79.5 74.0 L 53.0 74.0 L 53.0 135.92608699798583 L 57.1 134.5 L 64.4 132.0 L 72.0 129.5 L 80.0 127.1 L 80.8 128.8 L 73.5 133.0 L 66.5 136.9 L 59.7 140.5 L 53.2 143.9 L 46.8 147.0 L 40.8 150.0 L 35.0 152.8 L 29.5 155.4 L 24.2 157.9 L 23.060614013671874 158.43481388092042 L 22.2 162.2 L 19.3 160.2 L 13.0 149.7 Z M 165.6 70.3 L 159.7 65.9 L 154.2 61.2 L 149.0 56.1 L 144.2 50.7 L 139.8 44.9 L 135.7 38.7 L 132.2 32.2 L 131.77899007797242 31.198286724090575 L 128.1 37.1 L 122.9 44.5 L 117.3 51.5 L 111.3 58.2 L 104.8 64.5 L 97.9 70.5 L 90.6 76.1 L 82.9 81.1 L 74.7 85.7 L 73.7 84.2 L 80.6 78.1 L 87.2 71.9 L 93.5 65.7 L 99.4 59.2 L 104.9 52.6 L 109.9 45.8 L 114.6 38.8 L 119.0 31.5 L 122.9 24.0 L 126.4 16.3 L 126.40413036346436 16.301932525634765 L 126.9 15.2 L 137.3 21.4 L 139.1 24.5 L 135.38354663848878 24.884460735321046 L 133.81373805999755 27.738658142089843 L 135.7 29.9 L 140.5 35.2 L 145.3 40.2 L 150.2 44.9 L 155.3 49.2 L 160.6 53.2 L 166.1 56.9 L 171.8 60.3 L 177.7 63.3 L 183.9 66.0 L 189.7 68.7 L 178.3 77.9 L 171.8 74.3 Z " />
</g>
</svg>
