<svg xmlns="http://www.w3.org/2000/svg" xmlns:xlink="http://www.w3.org/1999/xlink" version="1.1" baseProfile="full" viewBox="0 0 200 200" width="200" height="200">
<g fill="black">
<path d="M 137.0 131.6 L 134.4 126.4 L 132.7930721282959 123.473095703125 L 131.0 130.5 L 126.3 143.7 L 120.7 155.6 L 114.0 166.1 L 106.4 175.2 L 97.7 182.7 L 88.2 188.7 L 87.2 187.2 L 95.3 179.9 L 102.3 171.7 L 108.5 162.5 L 113.9 152.2 L 118.4 140.7 L 122.0 128.0 L 124.8 114.2 L 125.08121385574341 111.9502890586853 L 124.6 111.3 L 120.5 106.3 L 116.1 101.4 L 111.3 96.4 L 106.1 91.3 L 107.2 89.8 L 113.6 93.4 L 119.6 97.4 L 125.1 101.6 L 126.24581499099732 102.63348016738891 L 126.7 99.0 L 127.7 82.6 L 127.9 65.0 L 127.9 63.0 L 103.1 63.0 L 103.1 59.0 L 127.9 59.0 L 127.9 15.0 L 139.9 17.0 L 142.9 19.0 L 139.9 20.8 L 139.9 59.0 L 157.8 59.0 L 163.8 54.0 L 174.8 63.0 L 169.8 67.0 L 169.8 170.2 L 170.0 171.1 L 170.3 172.0 L 170.7 172.4 L 171.6 172.7 L 172.5 172.9 L 173.8 173.0 L 179.5 173.0 L 185.5 148.0 L 187.5 148.0 L 185.5 173.0 L 189.1 175.4 L 191.5 179.0 L 189.1 182.6 L 185.5 185.0 L 173.8 185.0 L 171.2 184.8 L 168.7 184.4 L 166.3 183.6 L 164.0 182.3 L 162.0 180.7 L 160.4 178.7 L 159.1 176.4 L 158.3 174.0 L 157.9 171.5 L 157.8 169.0 L 157.8 63.0 L 139.9 63.0 L 139.9 65.0 L 139.1 83.2 L 137.4 100.2 L 135.44594793319703 111.63482322692872 L 139.2 116.0 L 143.0 121.2 L 146.5 126.7 L 149.5 132.3 L 152.1 138.1 L 151.8 142.7 L 148.5 145.8 L 143.9 145.5 L 140.8 142.1 L 139.1 136.8 Z M 13.4 166.9 L 21.4 165.6 L 29.6 164.2 L 38.0 162.7 L 46.7 161.1 L 52.2 160.12222223281861 L 52.2 124.0 L 19.1 124.0 L 19.1 120.0 L 52.2 120.0 L 52.2 91.0 L 64.2 93.0 L 67.2 95.0 L 64.2 96.8 L 64.2 120.0 L 77.1 120.0 L 87.1 110.0 L 99.1 120.0 L 99.1 124.0 L 64.2 124.0 L 64.2 157.9293478012085 L 64.9 157.8 L 74.3 156.1 L 84.1 154.3 L 94.1 152.7 L 104.4 151.1 L 104.8 152.8 L 95.0 156.3 L 85.3 159.5 L 75.9 162.5 L 66.6 165.2 L 57.6 167.8 L 48.8 170.2 L 40.2 172.5 L 31.8 174.7 L 23.7 176.7 L 19.787334632873534 177.6410207748413 L 18.3 181.2 L 15.8 178.6 L 11.4 167.3 Z M 12.7 82.0 L 52.2 82.0 L 52.2 48.0 L 19.1 48.0 L 19.1 44.0 L 52.2 44.0 L 52.2 13.0 L 64.2 15.0 L 67.2 17.0 L 64.2 18.8 L 64.2 44.0 L 77.1 44.0 L 87.1 34.0 L 99.1 44.0 L 99.1 48.0 L 64.2 48.0 L 64.2 82.0 L 81.7 82.0 L 91.7 72.0 L 103.7 82.0 L 103.7 86.0 L 12.7 86.0 Z " />
</g>
</svg>
