<svg xmlns="http://www.w3.org/2000/svg" xmlns:xlink="http://www.w3.org/1999/xlink" version="1.1" baseProfile="full" viewBox="0 0 200 200" width="200" height="200">
<g fill="black">
<path d="M 79.9 184.0 L 78.8 179.6 L 81.1 175.6 L 82.7 174.7 L 84.3 173.4 L 85.9 171.7 L 87.5 169.5 L 89.0 166.8 L 90.4 163.6 L 91.7 160.0 L 93.0 155.9 L 94.2 151.4 L 94.9 146.4 L 96.7 146.5 L 97.1 151.6 L 97.4 156.4 L 97.4 161.0 L 97.1 165.2 L 96.5 169.2 L 95.6 173.0 L 94.3 176.4 L 92.7 179.7 L 90.7 182.6 L 88.3 185.2 L 83.9 186.3 Z M 175.0 174.5 L 174.3 171.4 L 173.3 168.2 L 172.1 165.0 L 170.7 161.7 L 169.1 158.3 L 167.3 154.8 L 165.4 151.2 L 163.0 147.7 L 164.3 146.4 L 167.6 149.3 L 170.9 152.0 L 173.9 155.0 L 176.6 158.0 L 179.0 161.1 L 181.2 164.3 L 183.2 167.7 L 184.9 171.0 L 186.4 174.5 L 187.6 178.1 L 186.7 182.5 L 182.9 185.1 L 178.4 184.2 L 175.9 180.4 L 175.5 177.5 Z M 144.6 172.4 L 144.3 169.6 L 143.9 166.8 L 143.3 163.9 L 142.4 161.0 L 141.4 157.9 L 140.2 154.8 L 138.9 151.6 L 137.1 148.5 L 138.5 147.4 L 141.1 150.0 L 143.8 152.5 L 146.2 155.2 L 148.4 158.0 L 150.3 160.9 L 152.0 163.9 L 153.5 167.0 L 154.7 170.3 L 155.7 173.6 L 156.5 177.0 L 155.0 181.4 L 150.9 183.4 L 146.6 181.9 L 144.5 177.9 L 144.6 175.2 Z M 120.2 183.4 L 116.1 181.4 L 114.6 177.0 L 115.1 174.4 L 115.5 171.6 L 115.7 168.9 L 115.7 166.2 L 115.6 163.3 L 115.3 160.5 L 114.9 157.6 L 114.3 154.6 L 113.6 151.5 L 112.4 148.5 L 113.9 147.6 L 115.9 150.3 L 118.1 152.8 L 119.9 155.6 L 121.6 158.5 L 123.0 161.5 L 124.1 164.6 L 125.1 167.8 L 125.8 171.1 L 126.3 174.4 L 126.6 177.9 L 124.5 181.9 Z M 12.2 151.0 L 17.0 149.5 L 22.1 147.8 L 27.4 145.9 L 33.1 143.8 L 36.5 142.47457628250123 L 36.5 72.0 L 13.4 72.0 L 13.4 68.0 L 36.5 68.0 L 36.5 17.0 L 48.5 19.0 L 51.5 21.0 L 48.5 22.8 L 48.5 68.0 L 51.2 68.0 L 61.2 58.0 L 73.2 68.0 L 73.2 72.0 L 48.5 72.0 L 48.5 137.81999998092653 L 51.8 136.5 L 58.7 133.7 L 66.0 131.0 L 73.6 128.2 L 74.4 129.7 L 67.7 134.3 L 61.1 138.5 L 54.7 142.4 L 48.5 145.9 L 42.6 149.2 L 36.9 152.3 L 31.4 155.1 L 26.2 157.7 L 21.2 160.1 L 20.26666669845581 160.50833330154418 L 19.4 164.3 L 16.4 162.2 L 10.4 151.7 Z M 95.7 142.6 L 95.7 63.42173910140991 L 93.2 66.9 L 88.2 73.0 L 82.9 78.9 L 77.2 84.4 L 75.8 83.2 L 79.9 76.6 L 83.9 69.9 L 87.7 63.3 L 91.3 56.6 L 94.6 49.8 L 95.7 47.4625 L 95.7 40.4 L 98.33195266723632 41.715976333618165 L 100.7 36.0 L 103.3 28.9 L 105.7 21.7 L 107.9 14.4 L 107.91816444396973 14.40573616027832 L 108.4 12.9 L 119.3 18.0 L 121.6 20.9 L 117.92258062362671 21.73870964050293 L 116.5 25.6 L 113.3 33.0 L 109.8 40.1 L 106.72711868286133 45.91355934143066 L 107.7 46.4 L 135.25 46.4 L 136.5 43.9 L 138.2 40.0 L 139.9 36.3 L 141.4 32.8 L 142.9 29.5 L 144.2 26.3 L 145.4 23.3 L 146.4 20.5 L 147.3 17.8 L 147.73476037979125 16.2472843170166 L 147.6 16.2 L 147.95922327041626 15.44563102722168 L 148.0 15.3 L 148.02357139587403 15.310499954223634 L 148.6 14.1 L 159.0 20.2 L 160.9 23.2 L 156.71010723114014 23.714548206329347 L 155.7 25.2 L 153.8 27.9 L 151.8 30.6 L 149.6 33.5 L 147.2 36.4 L 144.7 39.4 L 141.9 42.5 L 138.9 45.6 L 138.1969696998596 46.4 L 158.4 46.4 L 168.4 36.4 L 180.4 46.4 L 180.4 50.4 L 145.1 50.4 L 145.1 74.9 L 153.9 74.9 L 163.9 64.9 L 175.9 74.9 L 175.9 78.9 L 145.1 78.9 L 145.1 102.6 L 153.9 102.6 L 163.9 92.6 L 175.9 102.6 L 175.9 106.6 L 145.1 106.6 L 145.1 132.6 L 162.9 132.6 L 172.9 122.6 L 184.9 132.6 L 184.9 136.6 L 107.7 136.6 Z M 107.7 106.6 L 107.7 132.6 L 133.1 132.6 L 133.1 106.6 Z M 107.7 78.9 L 107.7 102.6 L 133.1 102.6 L 133.1 78.9 Z M 107.7 50.4 L 107.7 74.9 L 133.1 74.9 L 133.1 50.4 Z " />
</g>
</svg>
