<svg xmlns="http://www.w3.org/2000/svg" xmlns:xlink="http://www.w3.org/1999/xlink" version="1.1" baseProfile="full" viewBox="0 0 200 200" width="200" height="200">
<g fill="black">
<path d="M 149.4 18.0 L 152.4 20.0 L 149.4 21.8 L 149.4 57.0 L 172.51818180084229 57.0 L 180.7 48.0 L 190.7 57.0 L 190.7 61.0 L 149.4 61.0 L 149.4 105.0 L 169.9 105.0 L 175.9 100.0 L 186.9 109.0 L 181.9 113.0 L 181.9 176.0 L 169.9 182.0 L 169.9 170.0 L 122.3 170.0 L 122.3 182.0 L 110.3 188.0 L 110.3 99.0 L 122.3 105.0 L 137.4 105.0 L 137.4 16.0 Z M 14.6 172.5 L 22.5 172.0 L 30.6 171.5 L 38.9 171.0 L 47.4 170.4 L 52.0 170.0827586174011 L 52.0 152.7 L 18.0 152.7 L 18.0 148.7 L 52.0 148.7 L 52.0 131.2 L 64.0 133.2 L 67.0 135.2 L 64.0 137.0 L 64.0 148.7 L 73.8 148.7 L 83.8 138.7 L 95.8 148.7 L 95.8 152.7 L 64.0 152.7 L 64.0 169.2674157142639 L 65.0 169.2 L 74.1 168.6 L 83.4 168.0 L 92.9 167.6 L 102.6 167.2 L 102.9 169.0 L 93.4 171.3 L 84.1 173.3 L 74.9 175.1 L 65.9 176.8 L 57.1 178.3 L 48.4 179.7 L 40.0 181.0 L 31.7 182.2 L 23.7 183.4 L 19.839636898040773 183.88865356445314 L 18.0 187.2 L 15.8 184.4 L 12.7 172.7 Z M 122.3 166.0 L 169.9 166.0 L 169.9 109.0 L 122.3 109.0 Z M 13.1 133.6 L 12.4 129.1 L 15.0 125.4 L 16.1 125.1 L 17.2 124.6 L 18.4 123.8 L 19.7 122.6 L 20.9 121.1 L 22.1 119.2 L 23.2 116.9 L 24.3 114.3 L 25.4 111.4 L 25.8 108.1 L 27.6 108.1 L 27.7 111.6 L 28.1 114.8 L 28.2 117.9 L 28.1 120.9 L 27.8 123.7 L 27.1 126.4 L 26.2 129.0 L 24.9 131.4 L 23.3 133.6 L 21.3 135.6 L 16.8 136.3 Z M 91.0 127.1 L 90.6 125.2 L 90.0 123.1 L 89.2 121.0 L 88.2 118.7 L 87.0 116.4 L 85.6 113.9 L 84.1 111.4 L 82.0 109.0 L 83.2 107.7 L 85.7 109.6 L 88.4 111.2 L 90.9 113.0 L 93.2 114.8 L 95.2 116.8 L 97.1 118.8 L 98.9 120.9 L 100.4 123.1 L 101.7 125.4 L 102.9 127.7 L 102.1 132.2 L 98.5 135.0 L 94.0 134.2 L 91.2 130.6 L 91.2 128.9 Z M 65.9 125.4 L 65.9 123.8 L 65.7 122.0 L 65.4 120.1 L 64.9 118.2 L 64.2 116.1 L 63.3 113.9 L 62.3 111.6 L 60.7 109.6 L 62.0 108.4 L 64.0 110.1 L 66.2 111.6 L 68.2 113.2 L 70.1 114.9 L 71.8 116.7 L 73.3 118.6 L 74.6 120.7 L 75.8 122.8 L 76.8 125.0 L 77.5 127.4 L 76.1 131.7 L 72.0 133.9 L 67.7 132.4 L 65.6 128.4 L 65.8 127.0 Z M 46.6 133.9 L 42.6 131.7 L 41.2 127.4 L 41.7 126.0 L 42.1 124.5 L 42.4 122.9 L 42.6 121.3 L 42.6 119.5 L 42.5 117.7 L 42.3 115.8 L 42.0 113.7 L 41.5 111.6 L 40.4 109.6 L 41.8 108.6 L 43.3 110.4 L 45.1 111.9 L 46.7 113.6 L 48.2 115.4 L 50.6 119.4 L 51.5 121.5 L 52.2 123.7 L 52.8 126.0 L 53.1 128.4 L 51.0 132.4 Z M 11.4 98.0 L 51.0 98.0 L 51.0 83.9 L 18.8 83.9 L 18.8 79.9 L 51.0 79.9 L 51.0 64.3 L 33.3 64.3 L 33.3 67.3 L 21.3 73.3 L 21.3 12.3 L 33.3 18.3 L 80.6 18.3 L 86.6 13.3 L 97.6 22.3 L 92.6 26.3 L 92.6 66.3 L 80.6 72.3 L 80.6 64.3 L 63.0 64.3 L 63.0 79.9 L 76.91818180084229 79.9 L 85.1 70.9 L 95.1 79.9 L 95.1 83.9 L 63.0 83.9 L 63.0 98.0 L 80.5 98.0 L 90.5 88.0 L 102.5 98.0 L 102.5 102.0 L 11.4 102.0 Z M 33.3 43.3 L 33.3 60.3 L 51.0 60.3 L 51.0 43.3 Z M 63.0 43.3 L 63.0 60.3 L 80.6 60.3 L 80.6 43.3 Z M 33.3 22.3 L 33.3 39.3 L 51.0 39.3 L 51.0 22.3 Z M 63.0 22.3 L 63.0 39.3 L 80.6 39.3 L 80.6 22.3 Z " />
</g>
</svg>
