<svg xmlns="http://www.w3.org/2000/svg" xmlns:xlink="http://www.w3.org/1999/xlink" version="1.1" baseProfile="full" viewBox="0 0 200 200" width="200" height="200">
<g fill="black">
<path d="M 169.2 178.2 L 167.6 180.0 L 165.7 181.6 L 163.7 182.9 L 161.5 184.0 L 159.3 184.9 L 156.9 185.5 L 154.4 185.8 L 152.0 186.0 L 152.0 180.0 L 132.0 177.0 L 132.0 174.0 L 152.0 174.0 L 153.3 173.9 L 154.6 173.7 L 155.7 173.4 L 156.7 173.1 L 157.6 172.6 L 158.5 172.0 L 159.3 171.3 L 160.1 170.5 L 160.8 169.5 L 161.6 168.3 L 163.1 164.8 L 164.6 159.6 L 166.1 152.9 L 167.3 144.7 L 168.4 134.9 L 169.3 123.8 L 170.0 111.2 L 170.5 97.2 L 170.8 81.8 L 170.97619047164918 67.0 L 146.8709677696228 67.0 L 146.2 82.6 L 144.4 99.9 L 141.7 115.9 L 137.9 130.6 L 133.2 144.0 L 127.4 155.9 L 120.6 166.4 L 112.9 175.5 L 104.1 182.9 L 94.4 188.7 L 93.5 187.2 L 101.7 180.0 L 108.9 171.9 L 115.2 162.8 L 120.6 152.5 L 125.2 140.9 L 128.9 128.2 L 131.8 114.1 L 133.7 98.7 L 134.8 82.0 L 134.9666666984558 67.0 L 108.0 67.0 L 108.0 63.0 L 135.0 63.0 L 135.0 18.0 L 147.0 20.0 L 150.0 22.0 L 147.0 23.8 L 147.0 63.0 L 171.0 63.0 L 177.0 58.0 L 188.0 67.0 L 183.0 70.0 L 182.9405351638794 70.02477703094482 L 182.8 81.9 L 182.5 97.5 L 182.0 111.7 L 181.3 124.6 L 180.4 136.1 L 179.2 146.2 L 177.9 155.0 L 176.3 162.6 L 174.4 168.9 L 172.1 174.1 L 170.7 176.3 Z M 18.0 171.9 L 26.7 170.8 L 35.6 169.7 L 44.7 168.5 L 54.0 167.4 L 57.0 167.02105264663697 L 57.0 137.0 L 20.0 137.0 L 20.0 133.0 L 57.0 133.0 L 57.0 107.0 L 35.0 107.0 L 35.0 114.0 L 23.0 120.0 L 23.0 69.0 L 35.0 75.0 L 92.0 75.0 L 98.0 70.0 L 109.0 79.0 L 104.0 83.0 L 104.0 111.0 L 92.0 117.0 L 92.0 107.0 L 69.0 107.0 L 69.0 133.0 L 86.0 133.0 L 96.0 123.0 L 108.0 133.0 L 108.0 137.0 L 69.0 137.0 L 69.0 165.57628870010376 L 73.2 165.1 L 83.0 163.9 L 93.1 162.8 L 103.3 161.9 L 113.8 161.1 L 114.1 162.8 L 104.0 165.6 L 94.0 168.1 L 84.1 170.4 L 74.4 172.5 L 64.9 174.6 L 55.5 176.6 L 46.4 178.4 L 37.4 180.3 L 28.5 182.0 L 23.885365867614745 182.91219511032105 L 22.3 186.4 L 19.9 183.7 L 16.0 172.2 Z M 35.0 79.0 L 35.0 103.0 L 57.0 103.0 L 57.0 79.0 Z M 69.0 79.0 L 69.0 103.0 L 92.0 103.0 L 92.0 79.0 Z M 90.0 17.0 L 93.0 19.0 L 90.0 20.8 L 90.0 35.0 L 96.81818180084228 35.0 L 105.0 26.0 L 115.0 35.0 L 115.0 39.0 L 90.0 39.0 L 90.0 60.0 L 78.0 66.0 L 78.0 58.0 L 50.0 58.0 L 50.0 61.0 L 38.0 67.0 L 38.0 39.0 L 16.0 39.0 L 16.0 35.0 L 38.0 35.0 L 38.0 15.0 L 50.0 17.0 L 53.0 19.0 L 50.0 20.8 L 50.0 35.0 L 78.0 35.0 L 78.0 15.0 Z M 50.0 39.0 L 50.0 54.0 L 78.0 54.0 L 78.0 39.0 Z " />
</g>
</svg>
