<svg xmlns="http://www.w3.org/2000/svg" xmlns:xlink="http://www.w3.org/1999/xlink" version="1.1" baseProfile="full" viewBox="0 0 200 200" width="200" height="200">
<g fill="black">
<path d="M 35.3 72.9 L 36.95 74.0 L 95.0 74.0 L 95.0 56.0 L 36.0 56.0 L 36.0 52.0 L 95.0 52.0 L 95.0 35.0 L 30.0 35.0 L 30.0 31.0 L 95.0 31.0 L 95.0 11.0 L 107.0 13.0 L 110.0 15.0 L 107.0 16.8 L 107.0 31.0 L 150.0 31.0 L 160.0 21.0 L 172.0 31.0 L 172.0 35.0 L 107.0 35.0 L 107.0 52.0 L 145.8181818008423 52.0 L 154.0 43.0 L 164.0 52.0 L 164.0 56.0 L 107.0 56.0 L 107.0 74.0 L 157.8181818008423 74.0 L 166.0 65.0 L 176.0 74.0 L 176.0 78.0 L 35.3 78.0 L 35.3 115.3 L 34.8 126.2 L 34.0 136.4 L 32.8 145.9 L 31.2 154.7 L 29.3 162.9 L 26.9 170.3 L 24.2 177.0 L 21.0 182.9 L 17.4 188.0 L 13.3 192.1 L 11.9 191.0 L 14.1 186.0 L 16.2 180.6 L 18.0 174.7 L 19.6 168.2 L 21.0 161.1 L 22.0 153.3 L 22.8 144.8 L 23.3 135.6 L 23.4 125.8 L 23.3 115.3 L 23.3 70.9 Z M 179.0 91.5 L 179.0 95.5 L 141.3 95.5 L 141.3 112.1 L 159.0 112.1 L 165.0 107.1 L 176.0 116.1 L 171.0 120.1 L 171.0 181.6 L 159.0 187.6 L 159.0 179.6 L 101.4 179.6 L 101.4 182.6 L 89.4 188.6 L 89.4 106.1 L 101.4 112.1 L 113.8 112.1 L 113.8 95.5 L 82.0 95.5 L 82.0 91.5 L 160.8181818008423 91.5 L 169.0 82.5 Z M 60.3 190.3 L 56.3 188.1 L 54.9 183.7 L 55.5 180.0 L 55.7 176.7 L 55.5 173.6 L 55.0 170.9 L 54.1 168.3 L 52.8 165.9 L 51.88391170501709 164.72944269180297 L 51.8 164.7 L 51.82568807601929 164.6550458908081 L 51.0 163.6 L 48.6 161.3 L 45.7 159.2 L 42.0 157.5 L 42.5 155.8 L 46.7 156.6 L 50.7 157.5 L 54.4 159.1 L 54.95771541595459 159.45490980148315 L 56.7 156.8 L 59.2 152.9 L 62.2 148.4 L 65.7 143.2 L 69.8 137.4 L 74.4 130.9 L 79.6 123.7 L 85.4 116.0 L 87.0 117.0 L 82.8 125.7 L 79.0 133.6 L 75.4 140.7 L 72.3 147.0 L 69.6 152.6 L 67.3 157.4 L 65.6 161.5 L 64.2 164.8 L 63.4 167.2 L 63.28421049118042 168.06842107772826 L 64.8 171.1 L 66.0 175.3 L 66.7 179.9 L 66.9 184.9 L 64.7 188.9 Z M 101.4 164.5 L 101.4 175.6 L 159.0 175.6 L 159.0 164.5 Z M 155.0 129.8 L 157.0 129.8 L 155.0 142.8 L 157.7 144.6 L 159.0 146.55 L 159.0 116.1 L 141.3 116.1 L 141.3 137.3 L 141.4 138.7 L 141.5 139.8 L 141.7 140.5 L 141.9 141.1 L 142.2 141.5 L 142.5 141.8 L 143.1 142.2 L 143.9 142.5 L 144.9 142.7 L 146.3 142.8 L 150.5 142.8 Z M 101.4 116.1 L 101.4 152.54117650985717 L 102.7 151.7 L 105.6 149.2 L 107.9 146.4 L 109.9 143.2 L 111.5 139.7 L 112.7 135.6 L 113.5 131.1 L 114.0 126.0 L 114.1 120.4 L 113.89193544387817 116.1 Z M 55.8 127.8 L 55.0 126.5 L 53.9 125.3 L 52.4 123.9 L 50.6 122.5 L 48.6 121.1 L 46.3 119.6 L 43.7 118.0 L 40.8 117.0 L 41.2 115.3 L 44.4 115.8 L 47.5 116.0 L 50.4 116.3 L 53.1 116.8 L 55.6 117.4 L 58.0 118.1 L 60.3 118.9 L 62.4 119.9 L 64.3 121.1 L 66.2 122.6 L 67.2 127.1 L 64.9 131.0 L 60.4 132.0 L 56.5 129.7 L 56.3 128.8 Z M 123.8 95.5 L 123.8 112.1 L 131.3 112.1 L 131.3 95.5 Z M 66.8 100.0 L 65.9 98.7 L 64.8 97.4 L 63.4 96.1 L 61.7 94.7 L 59.8 93.2 L 55.3 90.2 L 52.6 89.2 L 53.1 87.4 L 56.0 88.0 L 58.9 88.2 L 61.7 88.6 L 64.3 89.0 L 66.7 89.6 L 69.1 90.3 L 71.3 91.1 L 73.3 92.1 L 75.3 93.3 L 77.1 94.6 L 78.4 99.0 L 76.2 103.1 L 71.8 104.3 L 67.8 102.2 L 67.4 101.2 Z M 141.6 151.4 L 139.4 150.7 L 137.3 149.7 L 135.5 148.2 L 133.9 146.4 L 132.8 144.4 L 132.0 142.1 L 131.5 139.8 L 131.3 137.3 L 131.3 116.1 L 123.7029411315918 116.1 L 123.5 120.7 L 122.8 127.0 L 121.6 132.8 L 119.9 138.0 L 117.7 142.6 L 114.9 146.6 L 111.7 149.9 L 108.1 152.5 L 104.0 154.3 L 101.4 154.90465116500854 L 101.4 160.5 L 159.0 160.5 L 159.0 148.05 L 157.7 150.0 L 155.0 151.8 L 143.9 151.8 Z " />
</g>
</svg>
