<svg xmlns="http://www.w3.org/2000/svg" xmlns:xlink="http://www.w3.org/1999/xlink" version="1.1" baseProfile="full" viewBox="0 0 200 200" width="200" height="200">
<g fill="black">
<path d="M 186.1 179.1 L 186.1 183.1 L 63.7 183.1 L 63.7 179.1 L 164.1 179.1 L 174.1 169.1 Z M 15.1 165.4 L 20.2 164.6 L 25.6 163.8 L 31.3 162.9 L 37.4 161.8 L 40.5 161.25873012542723 L 40.5 123.9 L 15.3 123.9 L 15.3 119.9 L 40.5 119.9 L 40.5 91.2 L 52.5 93.2 L 55.5 95.2 L 52.5 97.0 L 52.5 119.9 L 57.4 119.9 L 67.4 109.9 L 79.4 119.9 L 79.4 123.9 L 52.5 123.9 L 52.5 159.1173913002014 L 57.2 158.3 L 64.5 157.0 L 72.1 155.8 L 80.0 154.6 L 80.5 156.3 L 73.1 159.4 L 65.9 162.2 L 58.9 164.6 L 52.2 166.9 L 45.7 169.0 L 39.5 170.9 L 33.6 172.6 L 27.9 174.3 L 22.6 175.8 L 21.514182758331298 176.07677698135376 L 20.0 179.7 L 17.5 177.1 L 13.1 165.8 Z M 100.1 96.8 L 154.2 96.8 L 160.2 91.8 L 171.2 100.8 L 166.2 104.8 L 166.2 164.8 L 154.2 170.8 L 154.2 162.8 L 100.1 162.8 L 100.1 165.8 L 88.1 171.8 L 88.1 90.8 Z M 100.1 130.9 L 100.1 158.8 L 154.2 158.8 L 154.2 130.9 Z M 100.1 100.8 L 100.1 126.9 L 154.2 126.9 L 154.2 100.8 Z M 76.0 77.2 L 96.0 77.2 L 97.2 77.1 L 98.1 76.9 L 99.0 76.6 L 99.4 76.2 L 99.7 75.3 L 99.9 74.4 L 100.0 73.2 L 100.0 34.8 L 60.03170728683472 34.8 L 57.9 36.7 L 52.8 40.6 L 47.3 44.4 L 41.3 48.2 L 34.9 51.8 L 27.9 55.2 L 20.4 58.3 L 19.5 56.8 L 25.9 51.9 L 32.0 47.3 L 37.6 42.8 L 42.7 38.4 L 47.3 34.1 L 51.5 29.9 L 55.2 25.7 L 58.4 21.6 L 61.1 17.6 L 63.3 13.7 L 63.8 12.8 L 73.6 19.9 L 75.1 23.2 L 71.125 23.2 L 70.3 24.3 L 66.6 28.5 L 64.3 30.8 L 163.78421049118043 30.8 L 164.5 30.0 L 166.0 28.3 L 166.4251883506775 28.77900972366333 L 170.0 25.8 L 181.0 34.8 L 176.0 37.8 L 164.925714302063 42.41428575515747 L 163.6 43.1 L 160.6 44.6 L 157.3 46.1 L 153.9 47.5 L 150.2 49.0 L 146.3 50.3 L 142.4 51.9 L 141.5 50.4 L 145.0 47.9 L 148.1 45.2 L 151.0 42.7 L 153.8 40.4 L 156.3 38.1 L 158.7 36.0 L 159.9 34.8 L 112.0 34.8 L 112.0 73.2 L 111.8 75.7 L 111.4 78.2 L 110.6 80.6 L 109.3 82.9 L 107.7 84.9 L 105.7 86.5 L 103.4 87.8 L 101.0 88.6 L 98.5 89.0 L 96.0 89.2 L 96.0 83.2 L 76.0 80.2 Z M 76.5 56.9 L 77.2 60.4 L 73.45208330154419 59.46302080154419 L 72.1 60.6 L 67.4 64.2 L 62.1 67.7 L 56.5 71.1 L 50.4 74.4 L 43.9 77.6 L 37.0 80.7 L 29.6 83.6 L 21.7 86.3 L 13.3 88.8 L 12.6 87.1 L 20.2 82.8 L 27.3 78.7 L 34.0 74.8 L 40.3 70.9 L 46.1 67.1 L 51.4 63.3 L 56.3 59.5 L 60.7 55.8 L 64.6 52.1 L 68.0 48.4 L 68.01428575515747 48.41428575515747 L 68.3 48.1 Z M 166.7 77.9 L 163.0 75.2 L 158.9 72.6 L 154.4 70.0 L 149.5 67.4 L 144.1 64.9 L 138.4 62.4 L 132.2 59.8 L 125.7 57.1 L 126.1 55.3 L 133.2 56.1 L 140.0 57.3 L 146.3 58.7 L 152.2 60.4 L 157.9 62.2 L 163.1 64.3 L 168.0 66.5 L 172.6 68.9 L 176.8 71.5 L 180.7 74.3 L 182.6 78.4 L 181.2 82.7 L 177.1 84.7 L 172.7 83.2 L 169.9 80.5 Z " />
</g>
</svg>
