<svg xmlns="http://www.w3.org/2000/svg" xmlns:xlink="http://www.w3.org/1999/xlink" version="1.1" baseProfile="full" viewBox="0 0 200 200" width="200" height="200">
<g fill="black">
<path d="M 155.7 108.5 L 147.4 101.5 L 140.0458462715149 93.54956350326538 L 136.0 97.1 L 125.0 104.5 L 112.9 110.7 L 99.7 115.7 L 96.0564383506775 116.64273977279663 L 106.0 118.3 L 109.0 120.3 L 106.0 122.1 L 106.0 139.3 L 151.0 139.3 L 161.0 129.3 L 173.0 139.3 L 173.0 143.3 L 106.0 143.3 L 106.0 172.3 L 164.0 172.3 L 174.0 162.3 L 186.0 172.3 L 186.0 176.3 L 14.0 176.3 L 14.0 172.3 L 94.0 172.3 L 94.0 143.3 L 27.0 143.3 L 27.0 139.3 L 94.0 139.3 L 94.0 117.1748251914978 L 85.4 119.4 L 84.9 117.6 L 98.4 112.2 L 110.5 105.9 L 121.4 99.0 L 131.1 91.3 L 135.30548362731935 87.04504003524781 L 133.6 84.7 L 128.2 75.1 L 123.9 64.7 L 120.6 53.6 L 118.4 41.6 L 117.47086610794068 29.8 L 103.2 29.8 L 103.2 25.8 L 164.8 25.8 L 170.8 20.8 L 181.8 29.8 L 176.8 32.8 L 175.4815999984741 33.3493332862854 L 173.0 43.0 L 168.0 56.0 L 161.8 67.9 L 154.4 78.8 L 147.49851036071777 86.58423833847046 L 147.6 86.7 L 154.7 93.2 L 162.5 98.9 L 171.0 103.7 L 180.3 107.7 L 186.8 110.4 L 175.3 119.9 L 165.1 114.7 Z M 67.0 20.9 L 68.0 24.4 L 63.495912837982175 23.545776557922363 L 63.0 23.9 L 60.8 25.3 L 58.5 26.8 L 56.0 28.3 L 53.4 29.7 L 50.6 31.2 L 47.7 32.6 L 46.98461542129517 32.9 L 76.1 32.9 L 82.1 27.9 L 93.1 36.9 L 88.1 40.9 L 88.1 59.1 L 76.1 65.1 L 76.1 59.1 L 33.7 59.1 L 33.7 73.2 L 79.4 73.2 L 85.4 68.2 L 96.4 77.2 L 91.4 81.2 L 91.4 102.4 L 79.4 108.4 L 79.4 102.4 L 33.7 102.4 L 33.7 114.4 L 21.7 120.4 L 21.7 26.9 L 33.7 32.9 L 41.918181800842284 32.9 L 43.1 31.9 L 45.3 29.3 L 47.4 27.0 L 49.4 24.7 L 51.2 22.5 L 52.9 20.4 L 54.4 18.4 L 55.8 16.5 L 57.0 14.7 L 57.544761943817136 13.808571434020996 L 57.4 13.7 L 58.4 12.5 Z M 33.7 77.2 L 33.7 98.4 L 79.4 98.4 L 79.4 77.2 Z M 119.5 29.8 L 122.5 40.8 L 126.2 51.8 L 130.6 61.9 L 135.6 71.1 L 141.2 79.4 L 141.71053323745727 79.98232698440552 L 146.9 73.3 L 153.1 63.0 L 158.1 51.9 L 162.0 39.8 L 164.21374044418334 29.8 Z M 33.7 36.9 L 33.7 55.1 L 76.1 55.1 L 76.1 36.9 Z " />
</g>
</svg>
