<svg xmlns="http://www.w3.org/2000/svg" xmlns:xlink="http://www.w3.org/1999/xlink" version="1.1" baseProfile="full" viewBox="0 0 200 200" width="200" height="200">
<g fill="black">
<path d="M 14.0 179.7 L 94.0 179.7 L 94.0 161.4 L 27.0 161.4 L 27.0 157.4 L 94.0 157.4 L 94.0 142.2 L 106.0 144.2 L 109.0 146.2 L 106.0 148.0 L 106.0 157.4 L 151.0 157.4 L 161.0 147.4 L 173.0 157.4 L 173.0 161.4 L 106.0 161.4 L 106.0 179.7 L 164.0 179.7 L 174.0 169.7 L 186.0 179.7 L 186.0 183.7 L 14.0 183.7 Z M 146.7 134.5 L 164.0 134.5 L 164.9 134.3 L 165.5 134.1 L 165.8 133.9 L 166.0 133.8 L 166.1 133.6 L 166.3 133.3 L 166.5 132.7 L 166.7 131.8 L 166.7 73.6 L 178.7 75.6 L 181.7 77.6 L 178.7 79.4 L 178.7 130.5 L 178.6 133.1 L 178.1 135.6 L 177.3 138.0 L 176.1 140.3 L 174.5 142.3 L 172.5 143.9 L 170.2 145.2 L 167.8 146.0 L 165.3 146.4 L 162.7 146.5 L 162.7 140.5 L 146.7 137.5 Z M 14.3 95.6 L 14.3 91.6 L 39.5 91.6 L 39.5 74.0 L 51.5 76.0 L 54.5 78.0 L 51.5 79.8 L 51.5 91.6 L 79.1 91.6 L 79.1 74.0 L 91.1 76.0 L 94.1 78.0 L 91.1 79.8 L 91.1 91.6 L 96.81818180084228 91.6 L 105.0 82.6 L 115.0 91.6 L 115.0 95.6 L 91.1 95.6 L 91.1 114.8 L 97.6 114.8 L 107.6 104.8 L 119.6 114.8 L 119.6 118.8 L 91.1 118.8 L 91.1 138.3 L 79.1 144.3 L 79.1 118.8 L 50.05882349014282 118.8 L 49.8 120.0 L 47.9 124.7 L 45.4 128.9 L 42.3 132.7 L 38.6 136.0 L 34.5 138.8 L 29.8 141.1 L 24.7 142.8 L 19.1 144.2 L 18.5 142.5 L 23.3 139.7 L 27.4 136.8 L 30.9 133.8 L 33.7 130.8 L 35.9 127.6 L 37.6 124.4 L 38.7 121.1 L 39.160000038146975 118.8 L 13.0 118.8 L 13.0 114.8 L 39.62702703475952 114.8 L 39.7 113.9 L 39.5 109.9 L 39.63112945556641 109.89669418334961 L 39.5 109.7 L 39.5 95.6 Z M 140.0 81.5 L 143.0 83.5 L 140.0 85.3 L 140.0 125.7 L 128.0 131.7 L 128.0 79.5 Z M 50.909433937072755 114.8 L 79.1 114.8 L 79.1 95.6 L 51.5 95.6 L 51.5 109.7 L 51.372527503967284 109.89120874404907 Z M 37.0 72.5 L 25.0 78.5 L 25.0 15.2 L 37.0 21.2 L 163.0 21.2 L 169.0 16.2 L 180.0 25.2 L 175.0 29.2 L 175.0 60.5 L 163.0 66.5 L 163.0 60.5 L 37.0 60.5 Z M 37.0 25.2 L 37.0 56.5 L 71.0 56.5 L 71.0 25.2 Z M 83.0 25.2 L 83.0 56.5 L 117.0 56.5 L 117.0 25.2 Z M 129.0 25.2 L 129.0 56.5 L 163.0 56.5 L 163.0 25.2 Z " />
</g>
</svg>
