<svg xmlns="http://www.w3.org/2000/svg" xmlns:xlink="http://www.w3.org/1999/xlink" version="1.1" baseProfile="full" viewBox="0 0 200 200" width="200" height="200">
<g fill="black">
<path d="M 14.0 172.3 L 94.0 172.3 L 94.0 143.3 L 27.0 143.3 L 27.0 139.3 L 94.0 139.3 L 94.0 116.3 L 106.0 118.3 L 109.0 120.3 L 106.0 122.1 L 106.0 139.3 L 151.0 139.3 L 161.0 129.3 L 173.0 139.3 L 173.0 143.3 L 106.0 143.3 L 106.0 172.3 L 164.0 172.3 L 174.0 162.3 L 186.0 172.3 L 186.0 176.3 L 14.0 176.3 Z M 98.8 102.7 L 93.2 98.5 L 88.0 93.9 L 83.3 89.0 L 79.0 83.7 L 75.3 78.1 L 73.0 73.98787879943848 L 73.0 110.0 L 61.0 116.0 L 61.0 79.0 L 57.0 83.5 L 51.7 88.7 L 45.8 93.6 L 39.3 98.2 L 32.3 102.4 L 24.6 106.3 L 16.4 109.7 L 15.5 108.2 L 22.7 103.0 L 29.3 98.0 L 35.4 92.9 L 40.8 87.8 L 45.7 82.7 L 50.0 77.5 L 53.7 72.2 L 56.8 66.8 L 59.3 61.4 L 61.0 56.725 L 61.0 14.0 L 73.0 16.0 L 76.0 18.0 L 73.0 19.8 L 73.0 63.7615385055542 L 73.1 63.9 L 77.0 69.1 L 81.1 73.8 L 85.3 78.3 L 89.8 82.4 L 94.6 86.1 L 99.6 89.5 L 105.0 92.6 L 110.6 95.4 L 116.6 97.9 L 122.7 100.6 L 111.3 110.0 L 104.8 106.5 Z M 166.3 69.5 L 164.2 67.6 L 161.8 65.7 L 159.1 63.8 L 156.3 61.9 L 153.3 60.0 L 150.0 58.0 L 146.6 56.0 L 146.0 55.70810813903809 L 146.0 109.8 L 134.0 115.8 L 134.0 14.1 L 146.0 16.1 L 149.0 18.1 L 146.0 19.9 L 146.0 53.00731706619263 L 147.5 53.3 L 151.6 53.9 L 155.4 54.7 L 159.1 55.7 L 162.6 56.8 L 166.0 58.0 L 169.2 59.4 L 172.2 60.8 L 175.1 62.4 L 177.8 64.1 L 179.8 68.2 L 178.5 72.6 L 174.4 74.6 L 170.0 73.2 L 168.3 71.4 Z M 44.9 55.6 L 44.5 54.0 L 43.9 52.3 L 43.2 50.4 L 42.3 48.3 L 41.3 46.2 L 40.1 43.9 L 40.06322793960571 43.83211317062378 L 38.1 48.1 L 35.5 52.8 L 32.5 57.4 L 29.3 61.6 L 25.8 65.6 L 21.9 69.3 L 17.6 72.6 L 16.3 71.3 L 19.0 66.8 L 21.5 62.4 L 23.8 58.0 L 25.9 53.6 L 27.9 49.1 L 29.5 44.5 L 31.0 39.7 L 32.2 34.9 L 33.1 30.0 L 33.74252576828003 25.903898239135742 L 33.7 25.9 L 34.2 23.0 L 45.7 27.0 L 48.3 29.5 L 44.65786619186402 30.890632915496827 L 44.2 32.6 L 42.5 37.9 L 41.45201539993286 40.49500961303711 L 42.9 41.4 L 45.1 42.9 L 47.1 44.5 L 49.0 46.0 L 50.7 47.5 L 52.4 49.1 L 55.2 52.3 L 56.4 53.9 L 56.3 58.5 L 53.1 61.7 L 48.5 61.6 L 45.3 58.4 L 45.2 57.1 Z M 101.4 60.8 L 100.4 58.5 L 98.2 54.1 L 97.0 51.9 L 95.7 49.7 L 94.3 47.5 L 93.23985509872436 45.75833330154419 L 92.7 47.0 L 90.4 51.2 L 87.9 55.1 L 85.1 58.6 L 82.2 61.7 L 78.9 64.4 L 75.6 66.6 L 74.3 65.3 L 76.4 62.1 L 78.2 58.7 L 79.9 55.2 L 81.5 51.5 L 82.9 47.7 L 84.2 43.6 L 85.4 39.3 L 86.4 34.8 L 87.2 30.0 L 87.76196546554566 25.905680179595947 L 87.7 25.9 L 88.2 23.0 L 99.7 27.0 L 102.3 29.5 L 98.61468925476075 30.907118606567384 L 98.2 32.4 L 96.6 37.6 L 94.7 42.4 L 94.31890239715577 43.27652435302734 L 94.5 43.4 L 97.0 44.6 L 99.4 46.0 L 101.7 47.6 L 103.9 49.3 L 106.0 51.1 L 108.0 53.0 L 110.0 55.0 L 111.9 57.2 L 113.7 59.4 L 114.2 63.9 L 111.4 67.6 L 106.9 68.1 L 103.3 65.3 L 102.4 63.0 Z " />
</g>
</svg>
