<svg xmlns="http://www.w3.org/2000/svg" xmlns:xlink="http://www.w3.org/1999/xlink" version="1.1" baseProfile="full" viewBox="0 0 200 200" width="200" height="200">
<g fill="black">
<path d="M 14.0 178.0 L 95.0 178.0 L 95.0 152.0 L 27.0 152.0 L 27.0 148.0 L 95.0 148.0 L 95.0 123.0 L 107.0 125.0 L 110.0 127.0 L 107.0 128.8 L 107.0 148.0 L 153.0 148.0 L 163.0 138.0 L 175.0 148.0 L 175.0 152.0 L 107.0 152.0 L 107.0 178.0 L 166.0 178.0 L 176.0 168.0 L 188.0 178.0 L 188.0 182.0 L 14.0 182.0 Z M 154.3 125.8 L 152.4 127.1 L 150.3 128.2 L 148.2 129.1 L 146.0 129.9 L 143.7 130.5 L 141.4 130.9 L 139.0 131.2 L 136.6 131.3 L 136.6 125.3 L 124.6 122.3 L 124.6 119.3 L 136.6 119.3 L 138.2 119.2 L 139.7 119.0 L 141.1 118.8 L 143.7 118.0 L 145.0 117.4 L 146.2 116.7 L 148.6 115.1 L 149.8 114.0 L 151.8 111.7 L 153.8 108.0 L 155.8 103.1 L 157.6 97.0 L 159.1 89.7 L 160.4 81.1 L 161.4 71.4 L 162.1 60.6 L 162.6 48.6 L 162.68461542129518 37.6 L 56.61791048049927 37.6 L 55.9 38.9 L 51.8 45.4 L 47.2 51.7 L 42.2 57.7 L 36.8 63.6 L 30.9 69.1 L 24.4 74.3 L 17.5 79.1 L 16.3 77.8 L 21.8 71.5 L 27.0 65.4 L 31.8 59.2 L 36.2 53.1 L 40.3 46.9 L 43.9 40.6 L 47.0 34.2 L 49.8 27.8 L 52.2 21.2 L 53.83846893310547 15.508476257324219 L 53.8 15.5 L 54.6 13.0 L 65.6 18.1 L 67.9 20.9 L 64.15323276519776 21.820258617401123 L 62.8 25.3 L 59.6 32.2 L 58.826865673065186 33.6 L 162.7 33.6 L 168.7 28.6 L 179.7 37.6 L 174.7 40.6 L 174.66228790283202 40.61571340560913 L 174.6 48.9 L 174.1 61.2 L 173.4 72.5 L 172.3 82.6 L 170.9 91.8 L 169.2 99.9 L 167.1 107.0 L 164.7 113.2 L 161.7 118.4 L 158.0 122.8 L 156.2 124.3 Z M 68.6 53.0 L 120.7 53.0 L 126.7 48.0 L 137.7 57.0 L 132.7 61.0 L 132.7 109.9 L 120.7 115.9 L 120.7 103.9 L 68.6 103.9 L 68.6 115.9 L 56.6 121.9 L 56.6 47.0 Z M 68.6 79.8 L 68.6 99.9 L 120.7 99.9 L 120.7 79.8 Z M 68.6 57.0 L 68.6 75.8 L 120.7 75.8 L 120.7 57.0 Z " />
</g>
</svg>
