<svg xmlns="http://www.w3.org/2000/svg" xmlns:xlink="http://www.w3.org/1999/xlink" version="1.1" baseProfile="full" viewBox="0 0 200 200" width="200" height="200">
<g fill="black">
<path d="M 184.0 149.0 L 186.0 149.0 L 184.0 174.0 L 187.6 176.4 L 190.0 180.0 L 187.6 183.6 L 184.0 186.0 L 162.5 186.0 L 159.9 185.8 L 157.4 185.4 L 155.0 184.6 L 152.7 183.3 L 150.7 181.7 L 149.1 179.7 L 147.9 177.4 L 147.0 175.0 L 146.6 172.5 L 146.5 170.0 L 146.5 114.0 L 146.0333333015442 114.0 L 143.7 124.4 L 139.0 138.5 L 133.2 151.1 L 126.3 162.1 L 118.3 171.4 L 109.2 179.1 L 99.1 184.9 L 88.0 188.8 L 87.4 187.1 L 97.2 181.5 L 105.9 174.8 L 113.5 167.0 L 120.0 157.8 L 125.6 147.3 L 130.3 135.4 L 133.9 122.0 L 135.34966440200805 114.0 L 118.6 114.0 L 118.6 126.0 L 106.6 132.0 L 106.6 83.1 L 105.0 85.7 L 99.9 93.2 L 94.3 100.4 L 92.8 99.5 L 96.6 91.3 L 104.0 74.9 L 106.6 68.80857143402099 L 106.6 67.0 L 107.37195119857788 67.0 L 107.5 66.7 L 110.7 58.3 L 113.8 49.7 L 116.7 41.1 L 119.4 32.3 L 121.8 23.4 L 123.77654104232788 15.314150428771972 L 123.7 15.3 L 124.4 12.7 L 135.6 17.5 L 138.0 20.2 L 134.4271330833435 21.220819091796876 L 132.7 26.7 L 131.21888885498046 31.0 L 153.9 31.0 L 159.9 26.0 L 170.9 35.0 L 165.9 38.0 L 163.82853021621705 38.86311235427856 L 162.3 42.1 L 158.3 49.3 L 156.1 52.8 L 153.7 56.2 L 151.1 59.7 L 148.4 63.0 L 145.4 66.2 L 144.67272729873656 67.0 L 170.5 67.0 L 176.5 62.0 L 187.5 71.0 L 182.5 75.0 L 182.5 116.0 L 170.5 122.0 L 170.5 114.0 L 152.5 114.0 L 158.5 115.0 L 161.5 117.0 L 158.5 118.8 L 158.5 171.2 L 158.7 172.1 L 158.9 172.7 L 159.1 173.0 L 159.2 173.2 L 159.4 173.4 L 160.3 173.7 L 161.2 173.9 L 162.5 174.0 L 178.0 174.0 Z M 15.6 172.3 L 50.5 172.3 L 50.5 143.3 L 21.8 143.3 L 21.8 139.3 L 50.5 139.3 L 50.5 116.3 L 62.5 118.3 L 65.5 120.3 L 62.5 122.1 L 62.5 139.3 L 69.1 139.3 L 79.1 129.3 L 91.1 139.3 L 91.1 143.3 L 62.5 143.3 L 62.5 172.3 L 75.3 172.3 L 85.3 162.3 L 97.3 172.3 L 97.3 176.3 L 15.6 176.3 Z M 167.7 146.0 L 167.1 143.4 L 166.3 140.8 L 165.4 138.3 L 164.4 135.7 L 163.2 133.2 L 161.9 130.6 L 160.1 128.3 L 161.3 126.9 L 163.7 128.8 L 166.3 130.5 L 168.7 132.6 L 170.9 134.8 L 172.9 137.2 L 174.8 139.8 L 176.5 142.6 L 178.0 145.5 L 179.3 148.6 L 180.4 151.9 L 179.5 156.3 L 175.7 158.9 L 171.2 157.9 L 168.7 154.1 L 168.5 151.4 Z M 79.9 58.7 L 77.8 56.7 L 75.4 54.5 L 72.7 52.2 L 69.8 49.9 L 66.6 47.5 L 63.1 44.9 L 59.4 42.1 L 59.00463695526123 41.84301404953003 L 58.8 42.1 L 54.3 47.4 L 49.4 52.4 L 44.3 57.2 L 39.0 61.8 L 34.10985918045044 65.5549295425415 L 41.6 69.3 L 75.9 69.3 L 81.9 64.3 L 92.9 73.3 L 87.9 77.3 L 87.9 110.7 L 75.9 116.7 L 75.9 104.7 L 41.6 104.7 L 41.6 116.7 L 29.6 122.7 L 29.6 68.67627115249634 L 27.5 70.1 L 21.3 73.9 L 14.8 77.2 L 8.0 80.2 L 7.1 78.7 L 12.8 74.0 L 18.2 69.5 L 23.5 64.9 L 28.5 60.2 L 33.3 55.5 L 37.8 50.6 L 42.0 45.7 L 46.0 40.5 L 49.7 35.3 L 52.61221723556518 30.806864929199218 L 52.6 30.8 L 52.891176509857175 30.3764705657959 L 53.2 29.9 L 53.21273584365845 29.90874786376953 L 53.7 29.2 L 63.1 36.7 L 64.5 40.0 L 61.87872648239136 39.86671485900879 L 65.2 40.9 L 69.3 42.4 L 73.2 43.9 L 76.9 45.5 L 80.3 47.1 L 83.4 48.8 L 86.4 50.4 L 89.1 52.2 L 91.6 53.9 L 93.4 58.1 L 91.8 62.4 L 87.6 64.2 L 83.3 62.6 L 81.8 60.7 Z M 118.6 71.0 L 118.6 110.0 L 136.0744966506958 110.0 L 136.6 107.1 L 138.3 90.7 L 139.0 72.8 L 139.0 71.0 Z M 141.30769233703614 71.0 L 151.0 73.1 L 153.9 75.2 L 150.70519819259644 77.01665201187134 L 149.6 91.7 L 147.2 108.8 L 146.9307692527771 110.0 L 170.5 110.0 L 170.5 71.0 Z M 41.6 73.3 L 41.6 100.7 L 75.9 100.7 L 75.9 73.3 Z M 142.8 64.5 L 144.4 60.5 L 146.0 56.6 L 147.5 52.9 L 148.9 49.1 L 150.2 45.4 L 151.4 41.8 L 153.2888889312744 35.0 L 129.84111108779908 35.0 L 129.6 35.7 L 126.1 44.5 L 122.5 53.2 L 118.5 61.6 L 115.76746988296509 67.0 L 141.58205127716064 67.0 Z M 47.1 21.2 L 48.7 24.4 L 44.469455051422116 24.54588088989258 L 42.7 26.7 L 40.2 29.5 L 37.4 32.3 L 34.3 35.1 L 31.0 37.9 L 27.4 40.8 L 23.5 43.7 L 19.3 46.5 L 14.9 49.4 L 13.7 48.0 L 17.2 44.1 L 20.3 40.2 L 23.2 36.5 L 25.9 33.0 L 28.3 29.7 L 30.5 26.5 L 32.4 23.5 L 34.1 20.6 L 35.5 17.9 L 36.22333335876465 16.25606060028076 L 36.1 16.2 L 37.1 14.4 Z M 84.6 33.1 L 83.0 31.3 L 81.1 29.5 L 79.0 27.6 L 76.6 25.7 L 73.9 23.8 L 70.9 21.8 L 67.8 19.7 L 64.2 18.0 L 64.8 16.3 L 68.7 17.2 L 72.5 17.9 L 76.2 18.8 L 79.6 19.8 L 82.8 21.0 L 85.8 22.2 L 88.6 23.6 L 91.3 25.1 L 93.7 26.8 L 96.0 28.6 L 97.4 32.9 L 95.4 37.0 L 91.1 38.5 L 87.0 36.5 L 85.9 34.8 Z " />
</g>
</svg>
