<svg xmlns="http://www.w3.org/2000/svg" xmlns:xlink="http://www.w3.org/1999/xlink" version="1.1" baseProfile="full" viewBox="0 0 200 200" width="200" height="200">
<g fill="black">
<path d="M 14.0 177.1 L 94.0 177.1 L 94.0 154.2 L 27.0 154.2 L 27.0 150.2 L 94.0 150.2 L 94.0 131.6 L 106.0 133.6 L 109.0 135.6 L 106.0 137.4 L 106.0 150.2 L 151.0 150.2 L 161.0 140.2 L 173.0 150.2 L 173.0 154.2 L 106.0 154.2 L 106.0 177.1 L 164.0 177.1 L 174.0 167.1 L 186.0 177.1 L 186.0 181.1 L 14.0 181.1 Z M 123.2 129.1 L 121.0 129.6 L 118.9 130.1 L 116.7 130.4 L 114.4 130.7 L 110.0 130.9 L 109.94993743896484 124.89249057769776 L 90.0 121.9 L 90.0 118.9 L 109.9 118.9 L 111.7 118.8 L 113.4 118.7 L 115.1 118.5 L 116.7 118.3 L 118.4 117.9 L 120.0 117.5 L 123.2 116.5 L 124.8 115.8 L 126.3 115.1 L 127.0 114.5 L 128.4 112.7 L 129.84242420196534 109.9 L 48.634301567077635 109.9 L 45.2 122.9 L 32.0 125.7 L 43.77473182678223 81.2 L 16.0 81.2 L 16.0 77.2 L 44.83313465118408 77.2 L 54.2 41.8 L 62.46363639831543 49.0 L 141.0 49.0 L 147.0 44.0 L 158.0 53.0 L 153.0 56.0 L 152.44830513000488 56.22987289428711 L 151.7 63.9 L 150.3 75.0 L 149.94799995422363 77.2 L 162.0 77.2 L 172.0 67.2 L 184.0 77.2 L 184.0 81.2 L 149.3079999923706 81.2 L 148.7 85.0 L 147.1 93.9 L 145.3 101.7 L 144.06470584869385 105.9 L 156.0 105.9 L 166.0 95.9 L 178.0 105.9 L 178.0 109.9 L 142.75964908599855 109.9 L 141.1 114.2 L 138.6 119.0 L 135.6 122.9 L 131.6 125.9 L 127.4 127.7 Z M 56.2161826133728 81.2 L 49.69100971221924 105.9 L 131.440425491333 105.9 L 131.9 104.7 L 133.6 98.7 L 135.3 91.5 L 136.9 83.0 L 137.17835054397582 81.2 Z M 98.4 98.9 L 96.9 97.3 L 95.1 95.7 L 92.9 94.0 L 90.3 92.4 L 87.4 90.7 L 84.2 89.1 L 80.7 87.4 L 76.8 86.1 L 77.1 84.3 L 81.3 84.8 L 85.3 85.1 L 89.2 85.5 L 92.7 86.2 L 96.1 87.1 L 99.2 88.1 L 102.2 89.4 L 104.9 90.8 L 107.4 92.5 L 109.7 94.5 L 111.0 98.9 L 108.8 102.9 L 104.4 104.1 L 100.4 102.0 L 99.6 100.5 Z M 63.66597509384155 53.0 L 57.27289075851441 77.2 L 137.7969072341919 77.2 L 138.4 73.3 L 139.7 62.5 L 140.7291666984558 53.0 Z M 103.2 70.4 L 102.1 69.0 L 100.7 67.5 L 98.9 66.0 L 96.7 64.4 L 94.2 62.9 L 91.4 61.3 L 88.3 59.6 L 84.7 58.4 L 85.1 56.7 L 88.9 57.2 L 92.6 57.4 L 96.0 57.9 L 99.2 58.5 L 102.2 59.2 L 104.9 60.2 L 107.5 61.3 L 110.0 62.6 L 112.2 64.2 L 114.2 66.0 L 115.1 70.5 L 112.6 74.4 L 108.2 75.3 L 104.3 72.8 L 103.9 71.7 Z M 134.0 13.7 L 137.0 15.7 L 134.0 17.5 L 134.0 26.1 L 165.0 26.1 L 175.0 16.1 L 187.0 26.1 L 187.0 30.1 L 134.0 30.1 L 134.0 39.9 L 122.0 45.9 L 122.0 30.1 L 78.0 30.1 L 78.0 39.9 L 66.0 45.9 L 66.0 30.1 L 13.0 30.1 L 13.0 26.1 L 66.0 26.1 L 66.0 11.7 L 78.0 13.7 L 81.0 15.7 L 78.0 17.5 L 78.0 26.1 L 122.0 26.1 L 122.0 11.7 Z " />
</g>
</svg>
