<svg xmlns="http://www.w3.org/2000/svg" xmlns:xlink="http://www.w3.org/1999/xlink" version="1.1" baseProfile="full" viewBox="0 0 200 200" width="200" height="200">
<g fill="black">
<path d="M 12.0 134.4 L 16.1 132.0 L 20.3 129.3 L 24.8 126.4 L 29.5 123.3 L 34.3 120.0 L 39.4 116.5 L 44.7 112.9 L 50.2 109.1 L 56.0 105.2 L 56.7 104.75967741012573 L 56.7 16.0 L 68.7 18.0 L 71.7 20.0 L 68.7 21.8 L 68.7 183.0 L 56.7 189.0 L 56.7 109.97346935272216 L 53.6 113.2 L 48.9 117.9 L 44.2 122.4 L 39.6 126.6 L 35.2 130.6 L 30.9 134.4 L 26.7 137.9 L 22.7 141.2 L 22.089996528625488 141.68487453460693 L 22.2 145.7 L 18.8 144.3 L 10.3 135.6 Z M 101.2 104.4 L 166.7 104.4 L 172.2 99.4 L 182.7 108.4 L 177.7 111.9 L 177.7 178.9 L 166.7 184.4 L 166.7 174.9 L 101.2 174.9 L 101.2 181.9 L 90.2 187.4 L 90.2 98.9 Z M 101.2 108.4 L 101.2 170.9 L 166.7 170.9 L 166.7 108.4 Z M 123.6 125.2 L 144.3 125.2 L 149.8 120.2 L 160.3 129.2 L 155.3 132.7 L 155.3 154.0 L 144.3 159.5 L 144.3 152.0 L 123.6 152.0 L 123.6 155.0 L 112.6 160.5 L 112.6 119.7 Z M 123.6 129.2 L 123.6 148.0 L 144.3 148.0 L 144.3 129.2 Z M 75.3 84.7 L 127.0 84.7 L 127.0 64.2 L 90.7 64.2 L 90.7 60.2 L 127.0 60.2 L 127.0 39.7 L 86.1 39.7 L 86.1 35.7 L 127.0 35.7 L 127.0 13.2 L 139.0 15.2 L 142.0 17.2 L 139.0 19.0 L 139.0 35.7 L 157.9 35.7 L 167.9 25.7 L 179.9 35.7 L 179.9 39.7 L 139.0 39.7 L 139.0 60.2 L 157.01818180084229 60.2 L 165.2 51.2 L 175.2 60.2 L 175.2 64.2 L 139.0 64.2 L 139.0 84.7 L 172.4181818008423 84.7 L 180.6 75.7 L 190.6 84.7 L 190.6 88.7 L 75.3 88.7 Z M 35.5 73.4 L 33.8 69.6 L 31.9 65.8 L 29.8 62.1 L 27.5 58.5 L 25.0 54.9 L 22.4 51.4 L 19.6 47.8 L 16.5 44.3 L 17.6 42.8 L 21.8 45.2 L 25.8 47.8 L 29.6 50.7 L 33.1 53.8 L 36.4 57.2 L 39.5 60.7 L 42.3 64.5 L 44.9 68.5 L 47.3 72.7 L 49.5 77.0 L 49.3 81.6 L 46.1 84.7 L 41.5 84.6 L 38.3 81.3 L 37.0 77.3 Z " />
</g>
</svg>
