<svg xmlns="http://www.w3.org/2000/svg" xmlns:xlink="http://www.w3.org/1999/xlink" version="1.1" baseProfile="full" viewBox="0 0 200 200" width="200" height="200">
<g fill="black">
<path d="M 14.0 174.0 L 94.0 174.0 L 94.0 147.1 L 27.0 147.1 L 27.0 143.1 L 94.0 143.1 L 94.0 121.7 L 106.0 123.7 L 109.0 125.7 L 106.0 127.5 L 106.0 143.1 L 151.0 143.1 L 161.0 133.1 L 173.0 143.1 L 173.0 147.1 L 106.0 147.1 L 106.0 174.0 L 164.0 174.0 L 174.0 164.0 L 186.0 174.0 L 186.0 178.0 L 14.0 178.0 Z M 174.46260166168213 88.95582656860351 L 111.7 93.13999996185302 L 111.7 104.8 L 111.8 106.0 L 111.9 106.9 L 112.1 107.5 L 112.3 107.8 L 112.4 108.0 L 112.6 108.2 L 113.0 108.4 L 113.6 108.6 L 114.5 108.7 L 115.7 108.8 L 169.7 108.8 Z M 45.0 18.5 L 161.0 18.5 L 167.0 13.5 L 178.0 22.5 L 173.0 26.5 L 173.0 40.4 L 161.0 46.4 L 161.0 40.4 L 150.41538457870485 40.4 L 150.59051094055175 41.15888080596924 L 161.0 49.7 L 161.3 52.7 L 156.93279762268065 50.66596059799194 L 153.0 51.6 L 144.4 53.1 L 135.6 54.6 L 126.5 56.0 L 117.0 57.3 L 111.7 57.901030921936034 L 111.7 70.71013097763061 L 146.42735767364502 68.19277667999268 L 155.7 57.5 L 168.4 66.6 L 168.7 70.6 L 111.7 74.73187770843506 L 111.7 89.11999998092651 L 157.57079648971558 86.06194686889648 L 166.9 75.4 L 179.5 84.6 L 179.8 88.6 L 177.30268096923828 88.76648797988892 L 175.7 108.8 L 179.3 111.2 L 181.7 114.8 L 179.3 118.4 L 175.7 120.8 L 115.7 120.8 L 113.1 120.6 L 110.6 120.2 L 108.2 119.4 L 106.0 118.2 L 104.0 116.5 L 102.3 114.5 L 101.1 112.2 L 100.3 109.8 L 99.8 107.3 L 99.7 104.8 L 99.7 93.93999996185303 L 47.8 97.4 L 47.5 93.4 L 99.7 89.91999998092652 L 99.7 75.60174674987793 L 54.2 78.9 L 53.9 74.9 L 99.7 71.58000001907348 L 99.7 59.160000038146975 L 97.3 59.4 L 86.9 60.3 L 76.3 61.0 L 65.4 61.5 L 54.1 61.6 L 53.9 59.8 L 65.0 57.7 L 75.7 55.7 L 86.1 53.8 L 96.2 51.9 L 106.0 50.0 L 115.5 48.1 L 124.7 46.1 L 133.5 44.1 L 142.1 42.0 L 148.34761905670166 40.4 L 45.0 40.4 L 45.0 58.9 L 44.4 67.0 L 43.3 74.8 L 41.6 82.1 L 39.4 89.0 L 36.6 95.5 L 33.3 101.6 L 29.4 107.1 L 25.0 112.2 L 20.1 116.6 L 14.5 120.3 L 13.4 119.0 L 17.3 113.9 L 20.9 108.8 L 24.0 103.5 L 26.6 98.0 L 28.8 92.3 L 30.5 86.3 L 31.8 79.9 L 32.6 73.3 L 33.0 66.3 L 33.0 12.5 Z M 45.0 22.5 L 45.0 36.4 L 161.0 36.4 L 161.0 22.5 Z " />
</g>
</svg>
