<svg xmlns="http://www.w3.org/2000/svg" xmlns:xlink="http://www.w3.org/1999/xlink" version="1.1" baseProfile="full" viewBox="0 0 200 200" width="200" height="200">
<g fill="black">
<path d="M 20.0 177.0 L 93.0 177.0 L 93.0 154.0 L 31.0 154.0 L 31.0 150.0 L 93.0 150.0 L 93.0 128.0 L 105.0 130.0 L 108.0 132.0 L 105.0 133.8 L 105.0 150.0 L 144.0 150.0 L 154.0 140.0 L 166.0 150.0 L 166.0 154.0 L 105.0 154.0 L 105.0 177.0 L 158.0 177.0 L 168.0 167.0 L 180.0 177.0 L 180.0 181.0 L 20.0 181.0 Z M 67.3 115.8 L 65.9 117.8 L 64.1 119.6 L 62.2 121.1 L 60.1 122.4 L 57.8 123.3 L 55.4 124.0 L 52.9 124.4 L 50.4 124.5 L 50.4 118.5 L 40.4 115.5 L 40.4 112.5 L 50.4 112.5 L 51.7 112.4 L 52.9 112.3 L 53.9 112.0 L 54.7 111.7 L 56.1 110.7 L 56.7 110.1 L 57.3 109.3 L 57.9 108.2 L 58.4 107.0 L 59.2 105.0 L 59.9 101.9 L 60.3 98.1 L 60.2 93.7 L 59.5 88.9 L 58.1 84.1 L 55.8 79.2 L 52.6 74.3 L 48.2 69.5 L 42.7 64.3 L 42.74307689666748 64.19538459777831 L 41.4 63.3 L 43.3 58.2 L 45.3 53.3 L 47.2 48.5 L 49.0 44.0 L 50.7 39.5 L 52.3 35.2 L 53.8 31.0 L 55.2 27.0 L 56.339999961853025 23.2 L 33.9 23.2 L 33.9 138.3 L 21.9 144.3 L 21.9 13.2 L 33.9 19.2 L 57.1 19.2 L 63.1 14.2 L 74.1 23.2 L 69.1 26.2 L 67.01428575515747 27.06904764175415 L 67.0 27.1 L 65.0 31.1 L 62.9 35.1 L 60.7 39.1 L 58.2 43.2 L 55.6 47.4 L 52.8 51.6 L 49.8 55.8 L 46.5 60.0 L 44.12381725311279 62.83821830749512 L 51.3 65.2 L 57.5 69.6 L 62.4 74.8 L 66.0 80.5 L 68.5 86.4 L 70.1 92.2 L 70.9 97.8 L 71.0 102.9 L 70.5 107.4 L 69.6 111.3 L 68.6 113.7 Z M 145.2 119.9 L 161.2 119.9 L 162.4 119.8 L 163.3 119.7 L 163.9 119.5 L 164.2 119.3 L 164.4 119.1 L 164.6 119.0 L 164.8 118.6 L 164.9 118.0 L 165.1 117.1 L 165.2 115.9 L 165.2 85.7 L 88.7 85.7 L 88.7 125.6 L 76.7 131.6 L 76.7 75.7 L 88.7 81.7 L 165.2 81.7 L 171.2 76.7 L 182.2 85.7 L 177.2 89.7 L 177.2 115.9 L 177.0 118.5 L 176.6 120.9 L 175.8 123.4 L 174.6 125.6 L 172.9 127.6 L 170.9 129.3 L 168.6 130.5 L 166.2 131.3 L 163.7 131.8 L 161.2 131.9 L 161.2 125.9 L 145.2 122.9 Z M 113.4 93.1 L 140.5 93.1 L 146.5 88.1 L 157.5 97.1 L 152.5 101.1 L 152.5 114.5 L 140.5 120.5 L 140.5 114.5 L 113.4 114.5 L 101.4 120.5 L 101.4 87.1 Z M 113.4 97.1 L 113.4 110.5 L 140.5 110.5 L 140.5 97.1 Z M 167.8 68.7 L 163.4 65.9 L 159.2 62.8 L 156.24038457870483 60.30769233703613 L 155.5 60.9 L 155.5 74.3 L 143.5 80.3 L 143.5 74.3 L 110.4 74.3 L 98.4 80.3 L 98.4 59.889830493927 L 97.5 60.5 L 91.1 64.1 L 84.3 67.3 L 77.0 70.1 L 69.2 72.5 L 68.5 70.8 L 75.4 66.7 L 81.7 62.6 L 87.7 58.5 L 93.1 54.3 L 98.1 50.0 L 98.4 49.7 L 98.4 46.9 L 100.26666669845581 47.83333330154419 L 102.6 45.5 L 106.6 40.9 L 106.675 40.8 L 70.2 40.8 L 70.2 36.8 L 109.675 36.8 L 110.2 36.1 L 113.3 31.2 L 114.07192392349243 29.68584156036377 L 113.9 29.7 L 105.1 30.1 L 96.2 30.3 L 86.9 30.2 L 77.5 29.6 L 77.4 27.8 L 86.7 26.4 L 95.7 25.0 L 104.5 23.6 L 113.0 22.1 L 121.2 20.6 L 129.1 18.9 L 136.7 17.2 L 144.1 15.3 L 151.2 13.3 L 157.1259864807129 11.469915962219238 L 157.1 11.4 L 157.16744241714477 11.457113361358642 L 158.0 11.2 L 158.36473140716552 12.47103385925293 L 168.2 20.8 L 168.5 23.8 L 164.29169025421143 21.876201248168947 L 161.3 22.7 L 154.0 24.4 L 146.4 25.8 L 138.6 27.0 L 130.6 28.1 L 122.4 29.0 L 122.32955436706543 29.005801391601562 L 126.5 31.8 L 128.2 35.0 L 124.29832820892334 35.13226003646851 L 123.19642858505249 36.8 L 165.51818180084229 36.8 L 173.7 27.8 L 183.7 36.8 L 183.7 40.8 L 144.85172414779663 40.8 L 146.3 42.0 L 149.9 44.8 L 153.4 47.4 L 157.1 49.9 L 160.9 52.2 L 164.8 54.4 L 168.8 56.4 L 173.1 58.2 L 177.5 59.9 L 182.1 61.4 L 188.9 64.0 L 177.4 73.8 L 172.5 71.3 Z M 110.4 56.9 L 110.4 70.3 L 143.5 70.3 L 143.5 56.9 Z M 120.10566034317017 40.8 L 118.6 42.7 L 114.0 47.6 L 109.0 52.2 L 110.4 52.9 L 143.5 52.9 L 146.8324538230896 50.12295513153076 L 145.7 48.6 L 143.3 44.5 L 141.61818180084228 40.8 Z " />
</g>
</svg>
