<svg xmlns="http://www.w3.org/2000/svg" xmlns:xlink="http://www.w3.org/1999/xlink" version="1.1" baseProfile="full" viewBox="0 0 200 200" width="200" height="200">
<g fill="black">
<path d="M 40.9 170.5 L 51.1 170.1 L 61.7 169.7 L 72.4 169.3 L 83.5 168.8 L 91.0 168.46814155578613 L 91.0 153.4 L 45.2 153.4 L 45.2 149.4 L 91.0 149.4 L 91.0 133.6 L 103.0 135.6 L 106.0 137.6 L 103.0 139.4 L 103.0 149.4 L 124.0 149.4 L 134.0 139.4 L 146.0 149.4 L 146.0 153.4 L 103.0 153.4 L 103.0 167.94347829818724 L 106.3 167.8 L 118.1 167.2 L 130.1 166.8 L 142.4 166.4 L 155.0 166.2 L 155.1 168.0 L 142.7 170.2 L 130.6 172.1 L 118.6 173.8 L 106.9 175.3 L 95.4 176.7 L 84.2 178.0 L 73.2 179.3 L 62.4 180.4 L 51.9 181.5 L 45.683700466156004 182.10352420806885 L 43.8 185.4 L 41.6 182.5 L 38.9 170.7 Z M 64.7 122.7 L 66.3 126.0 L 62.271707916259764 126.06827611923218 L 61.6 127.0 L 60.10731706619263 128.7 L 172.0 128.7 L 178.0 123.7 L 189.0 132.7 L 184.0 135.7 L 183.87206821441652 135.75330486297608 L 183.8 138.6 L 183.3 146.0 L 182.5 152.8 L 181.4 159.0 L 179.9 164.6 L 178.0 169.7 L 175.7 174.2 L 172.9 178.1 L 169.5 181.4 L 165.6 183.9 L 163.5 184.9 L 161.5 185.8 L 159.4 186.6 L 157.2 187.2 L 155.1 187.8 L 152.9 188.3 L 148.5 188.9 L 146.2 189.1 L 144.0 189.1 L 144.0 183.1 L 124.0 180.1 L 124.0 177.1 L 145.7 177.1 L 147.4 177.0 L 149.0 176.8 L 150.7 176.5 L 153.9 175.7 L 155.5 175.2 L 157.1 174.6 L 158.6 174.0 L 160.2 173.2 L 162.0 172.1 L 163.7 170.3 L 165.4 168.0 L 167.0 164.9 L 168.5 161.0 L 169.7 156.4 L 170.7 151.0 L 171.4 144.9 L 171.8 138.2 L 171.94666662216187 132.7 L 56.31578950881958 132.7 L 54.0 134.9 L 49.6 138.6 L 44.7 142.1 L 39.3 145.5 L 33.6 148.6 L 27.3 151.6 L 20.6 154.2 L 13.3 156.6 L 12.6 154.9 L 18.9 150.8 L 24.7 146.9 L 30.1 143.0 L 35.0 139.2 L 39.5 135.4 L 43.4 131.6 L 46.9 127.9 L 49.8 124.1 L 52.3 120.4 L 53.0528302192688 118.97358493804931 L 42.0 124.5 L 42.0 83.39399995803834 L 38.1 85.5 L 32.7 88.1 L 27.0 90.6 L 20.9 93.0 L 14.3 95.1 L 13.6 93.5 L 19.1 89.6 L 24.4 85.9 L 29.4 82.4 L 34.1 79.0 L 38.4 75.7 L 42.4 72.4 L 46.1 69.2 L 49.4 66.1 L 52.3 63.0 L 54.2422155380249 60.83368263244629 L 54.2 60.8 L 55.2 59.7 L 63.6 68.3 L 64.4 71.9 L 60.45080833435058 70.99930715560913 L 60.1 71.3 L 56.3 74.3 L 54.78275861740112 75.4 L 99.2 75.4 L 100.6 73.7 L 102.1 72.1 L 103.5 70.5 L 105.0 68.9 L 106.6 67.3 L 111.1 62.5 L 112.03588237762452 61.56411762237549 L 111.9 61.4 L 112.04035091400146 61.55964908599854 L 112.7 60.9 L 117.68603458404542 67.98161430358887 L 119.9 70.5 L 120.0 74.1 L 115.77027864456177 72.2984519958496 L 113.2 73.4 L 109.0 75.0 L 107.74285717010498 75.4 L 167.5 75.4 L 172.0 69.4 L 178.0 75.4 L 178.0 79.4 L 111.0 79.4 L 111.0 88.3 L 151.7777777671814 88.3 L 158.0 81.3 L 166.0 88.3 L 166.0 92.3 L 111.0 92.3 L 111.0 101.7 L 151.7777777671814 101.7 L 158.0 94.7 L 166.0 101.7 L 166.0 105.7 L 111.0 105.7 L 111.0 114.5 L 173.7777777671814 114.5 L 180.0 107.5 L 188.0 114.5 L 188.0 118.5 L 58.67391300201416 118.5 Z M 54.0 105.7 L 54.0 114.5 L 99.0 114.5 L 99.0 105.7 Z M 54.0 92.3 L 54.0 101.7 L 99.0 101.7 L 99.0 92.3 Z M 54.0 79.4 L 54.0 88.3 L 99.0 88.3 L 99.0 79.4 Z M 13.2 50.8 L 13.2 46.3 L 16.4 43.0 L 18.2 42.5 L 19.9 41.9 L 21.5 41.1 L 23.0 40.1 L 24.4 38.8 L 25.7 37.2 L 26.9 35.2 L 27.9 32.8 L 28.9 30.1 L 29.1 27.0 L 30.9 26.9 L 31.2 30.1 L 31.35 30.9 L 94.0 30.9 L 94.0 22.7 L 34.0 22.7 L 34.0 18.7 L 155.7777777671814 18.7 L 162.0 11.7 L 170.0 18.7 L 170.0 22.7 L 106.0 22.7 L 106.0 30.9 L 173.0 30.9 L 173.6960000038147 30.319999980926514 L 174.4 29.0 L 174.83380279541015 29.371830940246582 L 179.0 25.9 L 190.0 34.9 L 185.0 37.9 L 176.2800000190735 41.53333330154419 L 174.9 42.3 L 173.1 43.2 L 171.2 44.2 L 169.2 45.0 L 167.2 45.7 L 165.5 46.9 L 164.4 45.5 L 165.8 44.1 L 166.9 42.2 L 167.9 40.5 L 169.0 38.8 L 170.0 37.1 L 170.9 35.4 L 171.2125 34.9 L 151.3333333015442 34.9 L 161.0 43.6 L 161.0 47.6 L 116.0 47.6 L 116.0 43.6 L 142.8181818008423 43.6 L 150.72727270126342 34.9 L 106.0 34.9 L 106.0 60.0 L 94.0 66.0 L 94.0 34.9 L 74.33333330154419 34.9 L 84.0 43.6 L 84.0 47.6 L 37.0 47.6 L 37.0 43.6 L 65.81818180084228 43.6 L 73.72727270126343 34.9 L 31.853333377838133 34.9 L 31.9 36.3 L 31.6 39.3 L 30.9 42.2 L 29.8 45.0 L 28.2 47.6 L 26.2 50.0 L 23.8 52.2 L 21.1 54.0 L 16.5 54.0 Z M 84.0 55.2 L 84.0 59.2 L 32.0 59.2 L 32.0 55.2 L 69.77777776718139 55.2 L 76.0 48.2 Z M 168.0 55.2 L 168.0 59.2 L 116.0 59.2 L 116.0 55.2 L 153.7777777671814 55.2 L 160.0 48.2 Z " />
</g>
</svg>
