<svg xmlns="http://www.w3.org/2000/svg" xmlns:xlink="http://www.w3.org/1999/xlink" version="1.1" baseProfile="full" viewBox="0 0 200 200" width="200" height="200">
<g fill="black">
<path d="M 15.2 172.9 L 32.0 170.7 L 40.7 169.5 L 49.5 168.4 L 52.2 168.03595504760742 L 52.2 148.0 L 21.0 148.0 L 21.0 144.0 L 52.2 144.0 L 52.2 128.0 L 18.1 128.0 L 18.1 124.0 L 52.2 124.0 L 52.2 102.0 L 31.7 102.0 L 31.7 105.0 L 19.7 111.0 L 19.7 69.0 L 31.7 75.0 L 52.2 75.0 L 52.2 58.0 L 46.1 58.0 L 46.1 61.0 L 34.1 67.0 L 34.1 39.0 L 13.3 39.0 L 13.3 35.0 L 34.1 35.0 L 34.1 15.0 L 46.1 17.0 L 49.1 19.0 L 46.1 20.8 L 46.1 35.0 L 71.3 35.0 L 71.3 15.0 L 83.3 17.0 L 86.3 19.0 L 83.3 20.8 L 83.3 35.0 L 88.71818180084229 35.0 L 96.9 26.0 L 106.9 35.0 L 106.9 39.0 L 83.3 39.0 L 83.3 60.0 L 71.3 66.0 L 71.3 58.0 L 64.2 58.0 L 64.2 75.0 L 84.7 75.0 L 90.7 70.0 L 101.7 79.0 L 96.7 83.0 L 96.7 104.0 L 84.7 110.0 L 84.7 102.0 L 64.2 102.0 L 64.2 124.0 L 83.01818180084229 124.0 L 91.2 115.0 L 101.2 124.0 L 101.2 128.0 L 64.2 128.0 L 64.2 144.0 L 76.3 144.0 L 86.3 134.0 L 98.3 144.0 L 98.3 148.0 L 64.2 148.0 L 64.2 166.50652170181274 L 67.6 166.1 L 76.8 164.9 L 86.3 163.8 L 95.9 162.9 L 105.8 162.1 L 106.1 163.8 L 96.6 166.6 L 87.3 169.1 L 78.0 171.4 L 68.9 173.5 L 59.9 175.6 L 51.1 177.5 L 42.4 179.4 L 33.8 181.3 L 25.4 183.0 L 21.233036994934082 183.8638825416565 L 19.7 187.3 L 17.2 184.7 L 13.3 173.2 Z M 169.9 172.9 L 164.5 165.2 L 159.6 156.9 L 155.2 148.1 L 151.3 138.8 L 147.8 128.9 L 144.9 118.5 L 142.6 107.6 L 141.21739130020143 97.0 L 125.7 97.0 L 125.7 165.7611110687256 L 128.8 164.9 L 134.2 163.3 L 139.7 161.7 L 145.4 160.1 L 151.1 158.6 L 157.0 157.1 L 157.7 158.8 L 152.6 162.1 L 147.4 165.1 L 142.2 167.8 L 136.9 170.4 L 131.7 172.9 L 126.5 175.2 L 121.4 177.4 L 116.3 179.5 L 111.2 181.5 L 110.04759616851807 181.92932691574097 L 108.9 185.7 L 106.1 183.4 L 100.7 172.5 L 102.6 171.9 L 107.7 170.7 L 113.7 169.08461542129515 L 113.7 19.0 L 125.7 25.0 L 165.6 25.0 L 171.6 20.0 L 182.6 29.0 L 177.6 33.0 L 177.6 97.0 L 165.6 103.0 L 165.6 97.0 L 143.2694444656372 97.0 L 146.7 106.5 L 150.6 116.7 L 154.6 126.3 L 158.4156806945801 134.3750452041626 L 160.7 131.3 L 165.9 124.7 L 168.4 121.5 L 170.8 118.4 L 173.2 115.4 L 175.5 112.4 L 177.8 109.5 L 179.31329288482667 107.41021451950073 L 179.3 107.4 L 179.4016948699951 107.28813562393188 L 179.9 106.6 L 179.9696478843689 106.66338739395141 L 180.3 106.3 L 188.8 114.7 L 189.7 118.2 L 185.72445964813232 117.44601821899414 L 183.2 119.7 L 177.2 124.7 L 174.0 127.2 L 170.8 129.8 L 167.4 132.3 L 163.9 134.7 L 160.2 137.1 L 159.93062467575072 137.28201036453248 L 163.5 143.8 L 168.4 151.6 L 173.6 158.9 L 179.0 165.5 L 184.8 171.6 L 190.9 177.1 L 192.8 178.8 L 182.0 186.8 L 175.7 180.2 Z M 31.7 79.0 L 31.7 98.0 L 52.2 98.0 L 52.2 79.0 Z M 64.2 79.0 L 64.2 98.0 L 84.7 98.0 L 84.7 79.0 Z M 125.7 63.0 L 125.7 93.0 L 165.6 93.0 L 165.6 63.0 Z M 125.7 29.0 L 125.7 59.0 L 165.6 59.0 L 165.6 29.0 Z M 46.1 39.0 L 46.1 54.0 L 71.3 54.0 L 71.3 39.0 Z " />
</g>
</svg>
