<svg xmlns="http://www.w3.org/2000/svg" xmlns:xlink="http://www.w3.org/1999/xlink" version="1.1" baseProfile="full" viewBox="0 0 200 200" width="200" height="200">
<g fill="black">
<path d="M 14.0 176.6 L 94.0 176.6 L 94.0 153.0 L 27.0 153.0 L 27.0 149.0 L 94.0 149.0 L 94.0 130.0 L 106.0 132.0 L 109.0 134.0 L 106.0 135.8 L 106.0 149.0 L 151.0 149.0 L 161.0 139.0 L 173.0 149.0 L 173.0 153.0 L 106.0 153.0 L 106.0 176.6 L 164.0 176.6 L 174.0 166.6 L 186.0 176.6 L 186.0 180.6 L 14.0 180.6 Z M 155.2 123.9 L 147.8 121.0 L 140.9 117.6 L 135.83308868408204 114.51235084533691 L 128.6 117.9 L 120.1 121.0 L 110.9 123.6 L 101.1 125.7 L 90.6 127.1 L 90.2 125.3 L 100.1 122.0 L 109.3 118.5 L 117.7 114.9 L 125.3 111.0 L 128.44208822250366 109.15963401794434 L 123.2 104.5 L 118.4 99.1 L 114.3 93.3 L 111.271875 87.6 L 110.76626510620117 87.6 L 108.0 93.2 L 103.2 100.8 L 97.6 107.7 L 91.3 113.8 L 84.3 119.1 L 76.6 123.5 L 68.3 127.0 L 67.5 125.4 L 74.6 120.3 L 81.0 114.9 L 86.7 109.1 L 91.7 102.9 L 96.0 96.2 L 99.7 89.0 L 102.7 81.2 L 104.9554217338562 73.4 L 80.08461542129517 73.4 L 80.2 73.6 L 80.0 78.2 L 76.6 81.3 L 72.1 81.1 L 68.9 77.7 L 68.5 75.6 L 68.0 73.4 L 67.73892211914062 72.6167664527893 L 66.8 73.0 L 61.8 74.7 L 56.7 76.2 L 55.0 76.625 L 55.0 121.9 L 43.0 127.9 L 43.0 79.48490562438965 L 41.0 79.9 L 35.6 81.0 L 30.2 82.0 L 24.7 82.9 L 23.335765743255614 83.09843406677246 L 21.5 86.5 L 19.2 83.7 L 16.1 71.9 L 18.1 71.8 L 23.6 71.6 L 32.422045421600345 71.10988636016846 L 33.1 70.2 L 36.9 65.2 L 48.3 50.8 L 52.0 46.1 L 55.7 41.3 L 59.2 36.6 L 62.8 31.9 L 65.62260522842408 27.915145492553712 L 65.6 27.9 L 66.02105264663696 27.35263156890869 L 66.2 27.1 L 66.20953350067138 27.107606506347658 L 66.6 26.6 L 75.6 34.6 L 76.7 38.1 L 72.94880542755126 37.58259382247925 L 71.6 39.1 L 59.0 52.3 L 54.6 56.5 L 50.1 60.8 L 40.7 69.0 L 38.35772867202759 70.78012619018554 L 39.8 70.7 L 45.1 70.4 L 50.4 70.0 L 55.6 69.7 L 60.9 69.4 L 66.1 69.2 L 66.4 69.2 L 65.4 67.1 L 64.2 64.9 L 62.8 62.8 L 61.3 60.6 L 59.7 58.4 L 57.6 56.6 L 58.5 55.0 L 61.1 56.4 L 63.8 57.6 L 66.4 59.0 L 68.8 60.6 L 71.1 62.3 L 73.2 64.2 L 75.2 66.3 L 77.0 68.6 L 77.5666666984558 69.4 L 105.81590909957886 69.4 L 106.9 64.1 L 107.67272729873658 57.3 L 85.7 57.3 L 85.7 53.3 L 144.4 53.3 L 146.6 50.7 L 148.4 47.9 L 150.1 45.1 L 151.7 42.5 L 153.1 39.9 L 154.4 37.4 L 155.5 35.0 L 156.4 32.6 L 157.2 30.2 L 157.60239219665527 28.93533887863159 L 157.5 28.9 L 158.4 26.7 L 168.8 32.8 L 170.8 35.8 L 166.36634616851808 36.4115385055542 L 165.4 37.7 L 163.5 40.1 L 161.4 42.4 L 159.1 44.6 L 156.7 46.7 L 154.1 48.8 L 151.4 50.8 L 148.4 52.6 L 147.38500003814698 53.3 L 158.71818180084227 53.3 L 166.9 44.3 L 176.9 53.3 L 176.9 57.3 L 119.64174757003784 57.3 L 118.0 66.2 L 117.14226808547974 69.4 L 163.4181818008423 69.4 L 171.6 60.4 L 181.6 69.4 L 181.6 73.4 L 116.07010307312012 73.4 L 115.4 75.9 L 112.57666664123535 83.6 L 154.9 83.6 L 155.36415090560914 83.21320753097534 L 155.8 82.5 L 156.04385566711426 82.64678688049317 L 160.9 78.6 L 171.9 87.6 L 166.9 90.6 L 163.64422311782837 91.95657367706299 L 161.5 94.8 L 156.3 100.4 L 150.3 105.5 L 145.9423261642456 108.53716659545898 L 151.8 110.7 L 158.6 112.6 L 165.7 114.1 L 173.3 115.2 L 183.0 116.7 L 171.2 128.2 L 162.9 126.3 Z M 38.5 88.7 L 41.1 91.2 L 37.31218338012695 92.7431845664978 L 36.1 96.1 L 34.5 99.6 L 32.8 103.1 L 30.7 106.4 L 28.5 109.7 L 25.9 112.8 L 23.2 115.9 L 20.1 118.7 L 17.0 121.6 L 15.6 120.5 L 17.7 116.9 L 19.5 113.3 L 21.0 109.7 L 22.4 106.3 L 23.6 103.0 L 24.6 99.7 L 25.4 96.4 L 26.0 93.2 L 26.4 90.1 L 26.541332626342772 87.909344291687 L 26.4 87.9 L 26.9 85.0 Z M 67.5 102.9 L 66.9 100.6 L 66.1 98.3 L 65.2 96.0 L 64.2 93.8 L 63.0 91.5 L 61.6 89.2 L 60.1 86.9 L 58.2 85.0 L 59.2 83.5 L 61.7 85.0 L 64.3 86.4 L 66.8 87.9 L 69.1 89.7 L 71.3 91.7 L 73.3 93.9 L 75.2 96.2 L 76.9 98.7 L 78.5 101.4 L 79.8 104.2 L 79.3 108.8 L 75.8 111.7 L 71.2 111.1 L 68.3 107.6 L 68.0 105.2 Z M 114.24468088150024 87.6 L 117.5 90.6 L 122.6 95.0 L 127.9 98.9 L 133.4 102.5 L 136.27193336486818 104.0349988937378 L 138.4 102.5 L 143.8 97.9 L 148.5 93.0 L 152.5 87.9 L 152.6833333015442 87.6 Z M 31.4 50.5 L 30.5 48.7 L 29.3 46.8 L 27.8 44.9 L 26.1 42.9 L 24.2 40.9 L 22.0 38.9 L 19.7 36.9 L 16.9 35.2 L 17.6 33.5 L 20.8 34.6 L 24.0 35.4 L 27.0 36.5 L 29.8 37.7 L 31.353424644470216 38.505479431152345 L 31.9 37.7 L 33.6 34.7 L 35.2 31.9 L 36.9 29.0 L 38.6 26.3 L 40.2 23.5 L 41.8 20.8 L 43.3 18.0 L 45.81732473373413 13.468815517425536 L 45.7 13.4 L 46.8 11.9 L 56.1 19.5 L 57.4 22.9 L 53.21805925369263 22.61159029006958 L 51.6 24.3 L 47.0 28.9 L 42.0 33.3 L 39.4 35.5 L 36.7 37.6 L 33.9 39.5 L 33.5957447052002 39.75744676589966 L 35.0 40.6 L 37.4 42.3 L 39.6 44.2 L 41.6 46.3 L 43.4 48.5 L 43.8 53.1 L 40.9 56.6 L 36.3 57.0 L 32.8 54.1 L 32.2 52.3 Z M 94.9 46.8 L 94.5 45.4 L 94.0 43.9 L 93.4 42.3 L 92.5 40.6 L 91.4 38.8 L 90.2 36.9 L 88.9 34.9 L 87.0 33.3 L 88.0 31.9 L 90.2 33.2 L 92.5 34.1 L 94.7 35.1 L 96.8 36.2 L 98.7 37.5 L 100.5 38.8 L 102.2 40.2 L 103.7 41.8 L 105.1 43.4 L 106.3 45.2 L 106.1 49.8 L 102.7 52.9 L 98.2 52.7 L 95.0 49.3 L 95.0 48.1 Z M 124.0 44.5 L 123.8 43.0 L 123.4 41.5 L 122.9 40.0 L 121.5 36.8 L 120.6 35.1 L 119.5 33.4 L 118.0 32.1 L 119.0 30.6 L 120.8 31.7 L 122.9 32.4 L 124.8 33.3 L 126.7 34.3 L 128.4 35.5 L 130.1 36.8 L 131.6 38.3 L 133.0 39.8 L 134.4 41.6 L 135.6 43.4 L 135.2 47.9 L 131.8 51.0 L 127.3 50.7 L 124.2 47.3 L 124.2 45.9 Z M 165.42631578445435 13.605263137817383 L 175.5 22.0 L 175.8 25.0 L 171.51660566329957 23.009126567840575 L 168.0 23.9 L 160.6 25.3 L 152.8 26.6 L 144.6 27.8 L 135.9 28.7 L 126.9 29.5 L 117.4 30.2 L 107.6 30.6 L 97.3 30.9 L 86.6 30.8 L 75.4 30.4 L 75.3 28.6 L 86.3 27.0 L 96.9 25.5 L 107.0 24.1 L 116.6 22.6 L 125.9 21.1 L 134.6 19.5 L 142.9 17.9 L 150.8 16.1 L 158.1 14.2 L 164.12235984802246 12.565359497070313 L 164.1 12.5 L 164.16465520858765 12.553879356384277 L 165.1 12.3 Z " />
</g>
</svg>
