<svg xmlns="http://www.w3.org/2000/svg" xmlns:xlink="http://www.w3.org/1999/xlink" version="1.1" baseProfile="full" viewBox="0 0 200 200" width="200" height="200">
<g fill="black">
<path d="M 106.7 132.4 L 166.5 132.4 L 172.5 127.4 L 183.5 136.4 L 178.5 140.4 L 178.5 181.7 L 166.5 187.7 L 166.5 179.7 L 106.7 179.7 L 106.7 182.7 L 94.7 188.7 L 94.7 126.4 Z M 106.7 157.4 L 106.7 175.7 L 166.5 175.7 L 166.5 157.4 Z M 12.3 155.2 L 17.6 153.4 L 23.3 151.5 L 29.2 149.4 L 35.4 147.2 L 39.5 145.77121210098267 L 39.5 76.8 L 13.6 76.8 L 13.6 72.8 L 39.5 72.8 L 39.5 22.9 L 51.5 24.9 L 54.5 26.9 L 51.5 28.7 L 51.5 72.8 L 57.1 72.8 L 67.1 62.8 L 79.1 72.8 L 79.1 76.8 L 51.5 76.8 L 51.5 141.5625 L 56.0 140.0 L 63.5 137.4 L 71.4 134.8 L 79.7 132.2 L 80.4 133.9 L 72.9 138.3 L 65.7 142.3 L 58.6 146.0 L 51.8 149.5 L 45.3 152.7 L 39.0 155.8 L 33.0 158.7 L 27.3 161.4 L 21.9 164.0 L 20.504878044128418 164.64390239715576 L 19.7 168.4 L 16.7 166.4 L 10.5 155.9 Z M 106.7 136.4 L 106.7 153.4 L 166.5 153.4 L 166.5 136.4 Z M 116.9 91.0 L 156.3 91.0 L 162.3 86.0 L 173.3 95.0 L 168.3 99.0 L 168.3 118.7 L 156.3 124.7 L 156.3 116.7 L 116.9 116.7 L 116.9 119.7 L 104.9 125.7 L 104.9 85.0 Z M 116.9 95.0 L 116.9 112.7 L 156.3 112.7 L 156.3 95.0 Z M 84.9 75.5 L 130.6 75.5 L 130.6 56.9 L 142.6 58.9 L 145.6 60.9 L 142.6 62.7 L 142.6 75.5 L 166.3 75.5 L 176.3 65.5 L 188.3 75.5 L 188.3 79.5 L 84.9 79.5 Z M 112.7 50.9 L 112.1 49.0 L 111.4 47.0 L 110.5 44.9 L 109.4 42.9 L 108.1 40.7 L 106.7 38.6 L 105.1 36.3 L 103.77368421554566 35.1 L 102.39200000762939 35.1 L 101.0 38.0 L 98.3 42.9 L 95.3 47.6 L 92.0 52.1 L 88.5 56.3 L 84.6 60.2 L 80.3 63.8 L 79.0 62.6 L 81.6 57.9 L 84.1 53.2 L 86.5 48.6 L 88.7 43.9 L 90.7 39.2 L 92.4 34.4 L 94.0 29.5 L 95.3 24.6 L 96.4 19.5 L 97.05769233703613 15.3072114944458 L 97.0 15.3 L 97.6 12.5 L 109.0 16.8 L 111.5 19.3 L 107.89094266891479 20.612384510040282 L 107.4 22.3 L 105.5 27.7 L 104.1528302192688 31.1 L 121.61818180084228 31.1 L 129.8 22.1 L 139.8 31.1 L 139.8 35.1 L 108.075 35.1 L 109.2 35.6 L 111.7 37.0 L 114.0 38.6 L 116.2 40.3 L 118.3 42.2 L 120.1 44.2 L 121.8 46.3 L 123.4 48.6 L 124.7 51.0 L 124.3 55.5 L 120.9 58.5 L 116.3 58.1 L 113.3 54.7 L 113.1 52.8 Z M 163.2 50.9 L 162.7 49.0 L 162.0 47.0 L 161.1 44.9 L 160.0 42.9 L 158.7 40.7 L 157.2 38.6 L 155.6 36.3 L 154.27368421554564 35.1 L 151.41891889572145 35.1 L 150.3 36.9 L 147.8 40.4 L 145.0 43.7 L 142.0 46.8 L 138.7 49.6 L 135.3 52.2 L 134.0 51.0 L 136.3 47.5 L 138.3 43.9 L 140.1 40.3 L 141.7 36.8 L 143.2 33.2 L 144.5 29.5 L 145.6 25.8 L 146.5 22.1 L 147.2 18.3 L 147.6453332901001 15.405333328247071 L 147.6 15.4 L 147.7800000190735 14.530000019073487 L 147.8 14.4 L 147.80661573410035 14.401357078552246 L 148.2 12.5 L 159.5 16.8 L 162.1 19.3 L 158.32969121932985 20.671021366119383 L 158.2 21.1 L 156.6 25.3 L 154.7 29.4 L 153.76052627563476 31.1 L 172.8181818008423 31.1 L 181.0 22.1 L 191.0 31.1 L 191.0 35.1 L 158.675 35.1 L 159.8 35.6 L 162.3 37.0 L 164.6 38.6 L 166.8 40.3 L 168.8 42.2 L 170.7 44.2 L 172.4 46.3 L 173.9 48.6 L 175.3 51.0 L 174.9 55.5 L 171.4 58.5 L 166.9 58.1 L 163.9 54.7 L 163.6 52.8 Z " />
</g>
</svg>
