<svg xmlns="http://www.w3.org/2000/svg" xmlns:xlink="http://www.w3.org/1999/xlink" version="1.1" baseProfile="full" viewBox="0 0 200 200" width="200" height="200">
<g fill="black">
<path d="M 181.0 146.0 L 183.0 146.0 L 181.0 171.0 L 184.6 173.4 L 187.0 177.0 L 184.6 180.6 L 181.0 183.0 L 128.0 183.0 L 125.4 182.8 L 122.9 182.4 L 120.5 181.6 L 118.2 180.3 L 116.2 178.7 L 114.6 176.7 L 113.3 174.4 L 112.5 172.0 L 112.1 169.5 L 112.0 167.0 L 112.0 115.0 L 73.76666669845581 115.0 L 73.1 116.0 L 68.9 122.1 L 64.2 127.8 L 61.241509437561035 131.0 L 88.0 131.0 L 88.35234899520874 130.70637588500978 L 88.5 130.4 L 88.64089307785034 130.46592245101928 L 94.0 126.0 L 105.0 135.0 L 100.0 138.0 L 97.36000003814698 139.1 L 94.3 144.5 L 88.3 152.8 L 81.6 160.2 L 74.1 166.9 L 65.9 172.7 L 56.9 177.7 L 47.2 181.8 L 36.9 185.1 L 25.8 187.4 L 14.1 188.8 L 13.8 187.1 L 24.9 183.8 L 35.2 180.0 L 44.6 175.8 L 53.2 171.0 L 61.0 165.7 L 68.0 159.8 L 74.3 153.4 L 79.7 146.3 L 84.5 138.7 L 86.28313255310059 135.0 L 57.28823528289795 135.0 L 53.9 138.2 L 48.2 142.9 L 47.63409090042114 143.31499996185303 L 50.1 144.4 L 52.5 145.6 L 54.7 146.9 L 56.7 148.2 L 58.6 149.5 L 60.4 150.9 L 62.1 152.4 L 63.6 154.0 L 65.0 155.6 L 65.2 160.1 L 62.3 163.6 L 57.7 163.9 L 54.2 161.0 L 54.0 159.6 L 53.6 158.2 L 53.1 156.6 L 52.3 154.9 L 51.4 153.2 L 50.4 151.3 L 49.1 149.3 L 47.7 147.3 L 46.2 145.1 L 45.751020431518555 144.69591836929322 L 42.2 147.3 L 35.8 151.3 L 29.0 154.9 L 21.9 158.1 L 14.3 160.8 L 13.6 159.1 L 20.1 154.7 L 26.2 150.3 L 32.1 145.9 L 37.6 141.3 L 42.7 136.5 L 47.4 131.6 L 51.8 126.4 L 55.8 121.1 L 59.5 115.6 L 59.846153831481935 115.0 L 20.0 115.0 L 20.0 111.0 L 163.8181818008423 111.0 L 172.0 102.0 L 182.0 111.0 L 182.0 115.0 L 124.0 115.0 L 124.0 144.43802814483644 L 124.8 144.1 L 131.4 141.5 L 137.6 139.0 L 143.2 136.7 L 148.4 134.6 L 153.0 132.5 L 157.1 130.5 L 160.7 128.6 L 163.7 126.9 L 165.26372795104982 125.79235935211182 L 165.2 125.7 L 165.27995595932006 125.7808645248413 L 166.1 125.2 L 168.00923080444335 128.54115381240845 L 174.0 134.6 L 174.1 137.9 L 170.43759212493896 136.38452091217042 L 168.7 137.1 L 165.0 138.5 L 160.8 139.8 L 156.2 141.2 L 151.1 142.6 L 145.5 144.0 L 139.5 145.3 L 132.9 146.6 L 125.8 147.8 L 124.0 148.0368420600891 L 124.0 168.2 L 124.2 169.1 L 124.5 170.0 L 124.9 170.4 L 125.8 170.7 L 126.7 170.9 L 128.0 171.0 L 175.0 171.0 Z M 20.0 91.0 L 94.0 91.0 L 94.0 35.0 L 24.0 35.0 L 24.0 31.0 L 94.0 31.0 L 94.0 15.0 L 106.0 17.0 L 109.0 19.0 L 106.0 20.8 L 106.0 31.0 L 158.8181818008423 31.0 L 167.0 22.0 L 177.0 31.0 L 177.0 35.0 L 106.0 35.0 L 106.0 91.0 L 162.8181818008423 91.0 L 171.0 82.0 L 181.0 91.0 L 181.0 95.0 L 20.0 95.0 Z M 130.8 45.1 L 154.1 45.1 L 160.1 40.1 L 171.1 49.1 L 166.1 53.1 L 166.1 74.8 L 154.1 80.8 L 154.1 72.8 L 130.8 72.8 L 130.8 75.8 L 118.8 81.8 L 118.8 39.1 Z M 44.8 45.1 L 68.1 45.1 L 74.1 40.1 L 85.1 49.1 L 80.1 53.1 L 80.1 74.8 L 68.1 80.8 L 68.1 72.8 L 44.8 72.8 L 44.8 75.8 L 32.8 81.8 L 32.8 39.1 Z M 130.8 49.1 L 130.8 68.8 L 154.1 68.8 L 154.1 49.1 Z M 44.8 49.1 L 44.8 68.8 L 68.1 68.8 L 68.1 49.1 Z " />
</g>
</svg>
