<svg xmlns="http://www.w3.org/2000/svg" xmlns:xlink="http://www.w3.org/1999/xlink" version="1.1" baseProfile="full" viewBox="0 0 200 200" width="200" height="200">
<g fill="black">
<path d="M 97.5 102.0 L 159.4 102.0 L 165.4 97.0 L 176.4 106.0 L 171.4 110.0 L 171.4 179.0 L 159.4 185.0 L 159.4 175.0 L 97.5 175.0 L 97.5 182.0 L 85.5 188.0 L 85.5 96.0 Z M 97.5 151.0 L 97.5 171.0 L 159.4 171.0 L 159.4 151.0 Z M 12.6 151.0 L 17.2 149.5 L 22.0 147.8 L 27.2 145.9 L 32.6 143.8 L 35.7 142.54912281036377 L 35.7 72.0 L 13.9 72.0 L 13.9 68.0 L 35.7 68.0 L 35.7 17.0 L 47.7 19.0 L 50.7 21.0 L 47.7 22.8 L 47.7 68.0 L 52.918181800842284 68.0 L 61.1 59.0 L 71.1 68.0 L 71.1 72.0 L 47.7 72.0 L 47.7 137.69682540893555 L 50.6 136.5 L 57.2 133.8 L 64.1 131.0 L 71.5 128.2 L 72.3 129.7 L 65.9 134.3 L 59.7 138.5 L 53.6 142.3 L 47.7 145.9 L 42.0 149.2 L 36.5 152.2 L 31.3 155.0 L 26.3 157.6 L 21.5 160.0 L 20.779485321044923 160.35225162506103 L 19.9 164.2 L 17.0 162.2 L 10.8 151.7 Z M 97.5 128.5 L 97.5 147.0 L 159.4 147.0 L 159.4 128.5 Z M 97.5 106.0 L 97.5 124.5 L 159.4 124.5 L 159.4 106.0 Z M 165.7 92.0 L 163.6 93.1 L 161.4 94.0 L 159.2 94.7 L 157.0 95.2 L 154.7 95.6 L 152.3 95.9 L 150.0 95.9 L 150.0 89.9 L 130.0 86.9 L 130.0 83.9 L 151.5 83.9 L 153.1 83.7 L 154.5 83.5 L 157.3 82.7 L 159.9 81.5 L 162.5 79.9 L 163.7 78.9 L 164.3 78.3 L 165.2 76.6 L 166.3 74.0 L 167.3 70.6 L 168.3 66.2 L 169.2 61.1 L 170.0 55.1 L 170.7 48.4 L 171.3 40.9 L 171.65975608825684 35.0 L 158.1024390220642 35.0 L 155.6 42.6 L 152.2 50.4 L 148.2 57.6 L 143.5 64.4 L 138.2 70.7 L 132.2 76.4 L 125.6 81.6 L 118.4 86.2 L 110.6 90.1 L 102.1 93.4 L 101.3 91.8 L 108.7 86.8 L 115.4 81.7 L 121.5 76.5 L 126.9 71.0 L 131.7 65.2 L 135.9 59.1 L 139.5 52.7 L 142.4 46.0 L 144.8 39.0 L 145.73333330154418 35.0 L 132.18000001907347 35.0 L 131.9 35.5 L 128.5 41.3 L 124.8 46.9 L 120.5 52.3 L 115.8 57.3 L 110.7 62.1 L 105.1 66.5 L 99.1 70.7 L 92.6 74.5 L 85.6 77.9 L 78.2 80.9 L 77.3 79.4 L 83.7 74.7 L 89.6 70.0 L 95.1 65.4 L 100.2 60.7 L 104.8 56.0 L 108.9 51.1 L 112.6 46.1 L 115.8 41.0 L 118.6 35.8 L 118.94285717010499 35.0 L 104.06744184494019 35.0 L 101.8 37.5 L 97.5 41.7 L 93.0 45.6 L 88.1 49.4 L 82.9 52.9 L 77.4 56.2 L 71.4 59.1 L 70.4 57.6 L 75.1 53.1 L 79.6 48.7 L 83.8 44.4 L 87.7 40.2 L 91.3 35.9 L 94.7 31.5 L 97.7 27.2 L 100.3 22.8 L 102.7 18.3 L 104.8 13.8 L 104.83992538452148 13.820149230957032 L 105.4 12.7 L 115.5 19.2 L 117.3 22.4 L 113.4043478012085 22.66866569519043 L 112.6 24.0 L 109.3 28.7 L 107.46000003814697 31.0 L 171.8 31.0 L 177.8 26.0 L 188.8 35.0 L 183.8 38.0 L 183.51312313079833 38.11953201293945 L 183.3 41.7 L 182.7 49.5 L 181.9 56.5 L 181.1 62.9 L 180.1 68.6 L 178.9 73.6 L 177.6 78.0 L 176.0 81.9 L 174.0 85.2 L 171.5 88.1 L 167.7 90.9 Z " />
</g>
</svg>
