<svg xmlns="http://www.w3.org/2000/svg" xmlns:xlink="http://www.w3.org/1999/xlink" version="1.1" baseProfile="full" viewBox="0 0 200 200" width="200" height="200">
<g fill="black">
<path d="M 164.3 168.6 L 158.5 159.8 L 153.7700228691101 151.0677345275879 L 151.0 156.3 L 143.8 166.8 L 135.8 175.8 L 127.0 183.1 L 117.4 188.7 L 116.5 187.2 L 124.6 180.2 L 131.9 172.2 L 138.5 163.0 L 144.3 152.7 L 149.5 141.0 L 149.51471424102783 140.95686044692994 L 149.0 139.7 L 145.3 128.4 L 142.3 116.1 L 140.1 103.0 L 138.8 88.9 L 138.6100089073181 83.23826627731323 L 137.2 86.3 L 133.4 93.6 L 129.2 100.3 L 127.5 99.6 L 129.9 92.0 L 132.2 84.4 L 134.5 76.5 L 136.6 68.4 L 138.6 60.1 L 140.5 51.4 L 142.2 42.5 L 143.7 33.3 L 145.1 23.9 L 146.17700548171996 15.104454898834229 L 146.1 15.1 L 146.6 12.1 L 158.2 15.8 L 160.8 18.2 L 157.4613306045532 19.648856544494627 L 156.3 25.7 L 154.3 35.4 L 152.0 44.7 L 149.5 53.7 L 147.2081395149231 61.0 L 169.01818180084229 61.0 L 177.2 52.0 L 187.2 61.0 L 187.2 65.0 L 176.12315788269044 65.0 L 174.2 82.4 L 171.2 99.9 L 167.4 116.1 L 162.8 131.0 L 159.30766429901124 139.50859966278077 L 162.4 145.5 L 167.7 153.8 L 173.5 161.1 L 179.7 167.4 L 186.4 172.7 L 189.3 174.9 L 178.3 183.2 L 171.0 176.3 Z M 93.4 172.8 L 90.9 172.4 L 88.5 171.6 L 86.2 170.3 L 84.2 168.7 L 82.6 166.7 L 81.3 164.4 L 80.5 162.0 L 80.1 159.5 L 80.0 157.0 L 80.0 57.0 L 92.0 59.0 L 95.0 61.0 L 92.0 62.8 L 92.0 105.35600004196166 L 95.3 101.0 L 97.9 97.8 L 100.5 94.5 L 105.7 88.1 L 108.3 84.8 L 110.27962884902954 82.36353368759156 L 110.2 82.3 L 111.2 81.2 L 119.6 89.8 L 120.5 93.3 L 116.62759141921997 92.48475608825683 L 116.5 92.6 L 113.3 95.4 L 106.9 100.8 L 103.6 103.5 L 100.3 106.1 L 97.0 108.6 L 93.6 111.0 L 92.0 112.05142860412597 L 92.0 158.2 L 92.2 159.1 L 92.5 160.0 L 92.9 160.4 L 93.8 160.7 L 94.7 160.9 L 96.0 161.0 L 119.0 161.0 L 125.0 136.0 L 127.0 136.0 L 125.0 161.0 L 128.6 163.4 L 131.0 167.0 L 128.6 170.6 L 125.0 173.0 L 96.0 173.0 Z M 12.4 154.1 L 16.4 152.6 L 20.6 150.9 L 25.1 149.1 L 29.8 147.2 L 32.0 146.25714282989503 L 32.0 83.0 L 14.0 83.0 L 14.0 79.0 L 32.0 79.0 L 32.0 19.0 L 44.0 21.0 L 47.0 23.0 L 44.0 24.8 L 44.0 79.0 L 49.7777777671814 79.0 L 56.0 72.0 L 64.0 79.0 L 64.0 83.0 L 44.0 83.0 L 44.0 141.11090908050537 L 45.4 140.5 L 51.1 138.1 L 57.1 135.6 L 63.5 133.2 L 64.4 134.7 L 59.0 138.9 L 53.7 142.8 L 48.5 146.3 L 43.5 149.6 L 38.6 152.6 L 34.0 155.5 L 29.5 158.1 L 25.3 160.6 L 21.2 162.9 L 21.063647174835204 162.97342071533203 L 20.4 166.9 L 17.3 165.0 L 10.6 154.9 Z M 145.86785717010497 65.0 L 143.9 70.7 L 140.92046508789062 78.148837184906 L 142.9 88.4 L 145.9 101.9 L 149.4 114.3 L 153.2 125.8 L 154.00318145751953 127.69842891693115 L 157.6 113.7 L 160.6 98.0 L 162.9 81.0 L 164.1972972869873 65.0 Z M 63.6 75.2 L 60.9 71.5 L 61.5 67.0 L 62.3 66.1 L 63.3 64.6 L 64.2 62.4 L 65.2 59.6 L 66.1 56.2 L 66.9 52.3 L 67.7 47.9 L 68.5 43.0 L 69.4 37.6 L 70.0 31.7 L 71.8 31.7 L 72.5 37.6 L 73.00909090042114 41.6 L 91.5 41.6 L 91.5 12.3 L 103.5 14.3 L 106.5 16.3 L 103.5 18.1 L 103.5 41.6 L 120.7 41.6 L 126.7 36.6 L 137.7 45.6 L 132.7 48.6 L 130.56063346862794 49.49140272140503 L 129.6 51.5 L 128.5 54.0 L 127.3 56.5 L 125.9 59.2 L 124.5 62.0 L 123.0 64.9 L 121.3 67.9 L 119.9 71.2 L 118.2 70.6 L 118.8 67.2 L 119.1 63.8 L 119.4 60.5 L 119.7 57.4 L 120.0 54.5 L 120.3 51.7 L 120.5 49.1 L 120.7 46.7 L 120.7 45.6 L 73.3960783958435 45.6 L 73.6 48.2 L 73.9 52.8 L 74.0 57.1 L 73.9 60.9 L 73.7 64.4 L 73.3 67.5 L 72.7 70.4 L 71.8 73.1 L 68.1 75.8 Z " />
</g>
</svg>
