<svg xmlns="http://www.w3.org/2000/svg" xmlns:xlink="http://www.w3.org/1999/xlink" version="1.1" baseProfile="full" viewBox="0 0 200 200" width="200" height="200">
<g fill="black">
<path d="M 14.0 184.0 L 95.0 184.0 L 95.0 160.0 L 40.0 160.0 L 40.0 156.0 L 95.0 156.0 L 95.0 132.0 L 107.0 134.0 L 110.0 136.0 L 107.0 137.8 L 107.0 156.0 L 145.0 156.0 L 155.0 146.0 L 167.0 156.0 L 167.0 160.0 L 107.0 160.0 L 107.0 184.0 L 166.0 184.0 L 176.0 174.0 L 188.0 184.0 L 188.0 188.0 L 14.0 188.0 Z M 17.9 92.7 L 17.9 88.7 L 160.0 88.7 L 170.0 78.7 L 182.0 88.7 L 182.0 92.7 L 128.4 92.7 L 128.4 122.1 L 128.5 123.3 L 128.6 124.2 L 128.7 124.8 L 128.9 125.2 L 129.0 125.5 L 129.2 125.7 L 129.6 126.0 L 130.2 126.2 L 131.2 126.4 L 132.4 126.6 L 172.3 126.6 L 177.8 105.6 L 179.8 105.6 L 177.8 126.6 L 181.1 128.7 L 183.3 132.1 L 181.1 135.4 L 177.8 137.6 L 132.4 137.6 L 129.9 137.5 L 127.5 137.1 L 125.1 136.3 L 122.9 135.2 L 120.9 133.6 L 119.2 131.7 L 118.0 129.5 L 117.1 127.1 L 116.6 124.6 L 116.4 122.1 L 116.4 92.7 L 76.35 92.7 L 79.2 94.6 L 76.2 96.4 L 76.2 110.5 L 75.1 115.5 L 72.6 119.9 L 69.0 123.5 L 64.5 126.5 L 59.2 129.0 L 53.1 131.1 L 46.0 132.8 L 38.0 134.3 L 29.1 135.3 L 19.1 135.9 L 18.9 134.2 L 28.4 131.6 L 36.8 129.1 L 44.2 126.5 L 50.4 124.0 L 55.6 121.3 L 59.5 118.7 L 62.2 116.2 L 63.7 113.9 L 64.3 112.1 L 64.2 110.5 L 64.2 92.7 Z M 15.0 67.0 L 54.0 67.0 L 54.0 20.0 L 64.91999998092652 21.819999980926514 L 68.6 20.9 L 77.1 18.8 L 85.4 16.9 L 93.4 15.1 L 101.2 13.3 L 108.8 11.5 L 116.1 9.8 L 123.2 8.0 L 130.0 6.2 L 136.6 4.3 L 136.93649396896362 5.706063938140869 L 147.2 14.2 L 147.5 17.2 L 143.21862888336182 15.11877794265747 L 139.4 16.0 L 132.5 17.3 L 125.4 18.5 L 118.1 19.6 L 110.5 20.7 L 102.7 21.7 L 94.7 22.6 L 86.4 23.4 L 77.9 24.1 L 69.1 24.6 L 67.95769233703614 24.625384616851807 L 66.0 25.8 L 66.0 35.0 L 155.0 35.0 L 165.0 25.0 L 177.0 35.0 L 177.0 39.0 L 134.0 39.0 L 134.0 67.0 L 160.0 67.0 L 170.0 57.0 L 182.0 67.0 L 182.0 71.0 L 15.0 71.0 Z M 66.0 39.0 L 66.0 67.0 L 122.0 67.0 L 122.0 39.0 Z " />
</g>
</svg>
