<svg xmlns="http://www.w3.org/2000/svg" xmlns:xlink="http://www.w3.org/1999/xlink" version="1.1" baseProfile="full" viewBox="0 0 200 200" width="200" height="200">
<g fill="black">
<path d="M 13.0 183.0 L 94.0 183.0 L 94.0 154.0 L 26.0 154.0 L 26.0 150.0 L 94.0 150.0 L 94.0 115.0 L 106.0 117.0 L 109.0 119.0 L 106.0 120.8 L 106.0 150.0 L 152.0 150.0 L 162.0 140.0 L 174.0 150.0 L 174.0 154.0 L 106.0 154.0 L 106.0 183.0 L 165.0 183.0 L 175.0 173.0 L 187.0 183.0 L 187.0 187.0 L 13.0 187.0 Z M 128.0 118.0 L 140.0 118.0 L 141.2 117.9 L 142.1 117.7 L 143.0 117.4 L 143.4 117.0 L 143.7 116.1 L 143.9 115.2 L 144.0 114.0 L 144.0 53.0 L 69.0 53.0 L 69.0 49.0 L 144.0 49.0 L 144.0 18.0 L 156.0 20.0 L 159.0 22.0 L 156.0 23.8 L 156.0 49.0 L 164.0 49.0 L 174.0 39.0 L 186.0 49.0 L 186.0 53.0 L 156.0 53.0 L 156.0 114.0 L 155.8 116.5 L 155.4 119.0 L 154.6 121.4 L 153.3 123.7 L 151.7 125.7 L 149.7 127.3 L 147.4 128.6 L 145.0 129.4 L 142.5 129.8 L 140.0 130.0 L 140.0 124.0 L 128.0 121.0 Z M 65.8 19.7 L 67.4 22.9 L 63.76790609359741 23.025244617462157 L 61.4 26.9 L 56.8 33.9 L 51.9 40.7 L 46.8 47.5 L 41.5 54.0 L 41.43636360168457 54.072727298736574 L 47.0 55.0 L 50.0 57.0 L 47.0 58.8 L 47.0 124.0 L 35.0 130.0 L 35.0 61.33050851821899 L 30.0 66.5 L 23.9 72.5 L 17.4 78.2 L 10.6 83.6 L 9.3 82.3 L 14.7 75.6 L 19.9 68.9 L 25.0 62.2 L 30.0 55.6 L 34.7 48.8 L 39.2 42.0 L 43.6 35.2 L 47.7 28.2 L 51.5 21.1 L 54.72528734207153 14.910935115814208 L 54.7 14.9 L 55.7 13.0 Z M 109.2 87.9 L 107.6 85.7 L 105.5 83.3 L 103.1 80.9 L 100.2 78.4 L 96.9 75.9 L 93.2 73.4 L 89.1 70.7 L 84.6 68.1 L 85.2 66.5 L 90.3 67.9 L 95.2 69.2 L 99.6 70.7 L 103.8 72.5 L 107.6 74.4 L 111.1 76.4 L 114.3 78.6 L 117.1 81.0 L 119.7 83.6 L 121.8 86.5 L 122.2 91.0 L 119.4 94.6 L 114.8 95.0 L 111.2 92.1 L 110.4 90.1 Z " />
</g>
</svg>
