<svg xmlns="http://www.w3.org/2000/svg" xmlns:xlink="http://www.w3.org/1999/xlink" version="1.1" baseProfile="full" viewBox="0 0 200 200" width="200" height="200">
<g fill="black">
<path d="M 107.9 131.1 L 110.9 133.1 L 107.84719476699829 134.3211220741272 L 107.55737705230713 152.0 L 147.0 152.0 L 157.0 142.0 L 169.0 152.0 L 169.0 156.0 L 107.49180326461791 156.0 L 107.03278684616089 184.0 L 166.0 184.0 L 176.0 174.0 L 188.0 184.0 L 188.0 188.0 L 14.0 188.0 L 14.0 184.0 L 94.9384614944458 184.0 L 95.47692308425903 156.0 L 30.0 156.0 L 30.0 152.0 L 95.55384616851806 152.0 L 96.0 128.8 Z M 157.5 114.0 L 149.4 110.4 L 141.7 106.5 L 134.4 102.3 L 127.7 97.9 L 121.3 93.2 L 115.5 88.1 L 110.3 82.8 L 107.0 78.54666662216187 L 107.0 120.6 L 95.0 126.6 L 95.0 86.27538461685181 L 89.4 91.1 L 82.3 96.3 L 74.5 101.1 L 66.2 105.4 L 57.4 109.4 L 47.9 113.0 L 37.8 116.1 L 27.1 118.6 L 15.7 120.7 L 15.3 118.9 L 26.0 115.0 L 36.0 111.0 L 45.4 106.9 L 54.2 102.5 L 62.2 98.0 L 69.6 93.2 L 76.3 88.2 L 82.4 83.0 L 87.70181818008423 77.6 L 26.1 77.6 L 26.1 73.6 L 95.0 73.6 L 95.0 59.3 L 107.0 61.3 L 110.0 63.3 L 107.0 65.1 L 107.0 73.6 L 157.7 73.6 L 167.7 63.6 L 179.7 73.6 L 179.7 77.6 L 110.02307691574097 77.6 L 119.1 83.5 L 125.4 87.2 L 132.0 90.7 L 138.9 94.1 L 146.1 97.2 L 153.6 100.2 L 161.6 102.9 L 169.9 105.4 L 178.6 107.7 L 186.7 110.0 L 175.0 120.4 L 166.0 117.3 Z M 165.5 37.3 L 166.5 40.8 L 162.6110764503479 40.18595943450928 L 159.7 43.0 L 156.6 46.0 L 153.3 49.0 L 149.9 52.0 L 146.2 55.1 L 142.4 58.1 L 138.3 61.2 L 133.9 64.3 L 129.4 67.3 L 128.2 66.0 L 131.5 61.7 L 134.8 57.6 L 137.9 53.6 L 141.0 49.9 L 143.9 46.2 L 146.7 42.7 L 149.3 39.3 L 151.7 36.0 L 154.0 32.8 L 155.53975267410277 30.527031803131102 L 155.5 30.5 L 155.79117650985717 30.155882358551025 L 156.1 29.7 L 156.14567537307738 29.73692903518677 L 156.6 29.2 Z M 55.5 53.3 L 55.0 51.3 L 54.3 49.3 L 53.4 47.3 L 52.3 45.2 L 51.0 43.0 L 49.5 40.8 L 47.8 38.5 L 45.6 36.6 L 46.6 35.1 L 49.2 36.6 L 52.0 37.8 L 54.6 39.3 L 57.0 40.9 L 59.2 42.7 L 61.3 44.6 L 63.1 46.7 L 64.8 48.9 L 66.3 51.3 L 67.5 53.9 L 66.9 58.4 L 63.3 61.2 L 58.8 60.6 L 56.0 57.0 L 55.8 55.2 Z M 94.5 48.8 L 93.9 46.8 L 93.1 44.8 L 92.1 42.7 L 91.0 40.7 L 89.6 38.7 L 88.0 36.6 L 86.3 34.5 L 84.1 32.7 L 85.0 31.2 L 87.6 32.4 L 90.4 33.5 L 93.0 34.7 L 95.4 36.2 L 97.7 37.9 L 99.9 39.8 L 101.9 41.9 L 103.7 44.1 L 105.3 46.6 L 106.7 49.2 L 106.3 53.7 L 102.8 56.7 L 98.3 56.3 L 95.3 52.9 L 95.0 50.8 Z M 160.75483484268187 13.351583862304688 L 172.1 22.7 L 172.5 25.7 L 167.92245225906373 23.290764331817627 L 162.2 24.1 L 151.1 25.3 L 139.5 26.4 L 127.4 27.5 L 114.8 28.5 L 101.6 29.5 L 87.9 30.4 L 73.7 31.1 L 59.0 31.8 L 43.8 32.2 L 28.1 32.4 L 27.9 30.6 L 43.5 28.4 L 58.6 26.4 L 73.2 24.6 L 87.2 22.8 L 100.8 21.0 L 113.8 19.3 L 126.3 17.5 L 138.2 15.8 L 149.7 14.0 L 160.6 12.2 Z " />
</g>
</svg>
