<svg xmlns="http://www.w3.org/2000/svg" xmlns:xlink="http://www.w3.org/1999/xlink" version="1.1" baseProfile="full" viewBox="0 0 200 200" width="200" height="200">
<g fill="black">
<path d="M 73.4 183.4 L 70.9 182.9 L 68.5 182.1 L 66.2 180.9 L 64.2 179.3 L 62.6 177.2 L 61.3 175.0 L 60.5 172.6 L 60.1 170.1 L 60.0 167.5 L 60.0 128.8 L 72.0 130.8 L 75.0 132.8 L 72.0 134.6 L 72.0 168.7 L 72.2 169.7 L 72.4 170.2 L 72.5 170.6 L 72.7 170.8 L 72.9 170.9 L 73.2 171.1 L 73.8 171.3 L 74.7 171.4 L 76.0 171.5 L 141.0 171.5 L 147.0 146.5 L 149.0 146.5 L 147.0 171.5 L 150.6 173.9 L 153.0 177.5 L 150.6 181.1 L 147.0 183.5 L 76.0 183.5 Z M 15.4 175.3 L 14.7 170.8 L 17.4 167.1 L 20.2 165.5 L 22.9 163.5 L 25.3 161.1 L 27.5 158.2 L 29.5 154.8 L 31.3 150.9 L 32.8 146.5 L 34.1 141.5 L 35.2 136.0 L 36.1 129.9 L 37.9 129.9 L 38.7 136.1 L 39.1 142.0 L 39.0 147.6 L 38.3 152.9 L 37.2 157.8 L 35.5 162.5 L 33.4 166.8 L 30.7 170.7 L 27.4 174.3 L 23.6 177.3 L 19.1 178.0 Z M 170.2 160.6 L 168.6 157.0 L 166.7 153.4 L 164.5 149.9 L 162.0 146.4 L 159.1 142.8 L 155.8 139.3 L 152.3 135.7 L 148.3 132.1 L 149.3 130.5 L 154.3 132.8 L 159.0 135.3 L 163.3 138.2 L 167.2 141.2 L 170.9 144.6 L 174.2 148.1 L 177.1 151.9 L 179.7 155.9 L 182.0 160.1 L 183.8 164.5 L 183.3 169.0 L 179.8 172.0 L 175.3 171.4 L 172.3 167.9 L 171.4 164.3 Z M 108.1 146.7 L 106.2 143.9 L 104.2 141.1 L 101.9 138.3 L 99.5 135.7 L 96.8 133.1 L 93.9 130.5 L 90.9 127.8 L 87.5 125.5 L 88.2 123.8 L 92.3 125.2 L 96.3 126.5 L 100.1 128.2 L 103.7 130.2 L 107.2 132.4 L 110.4 134.8 L 113.5 137.4 L 116.4 140.3 L 119.1 143.4 L 121.6 146.6 L 122.2 151.2 L 119.5 154.9 L 114.9 155.4 L 111.3 152.7 L 109.8 149.7 Z M 126.20773763656616 19.67535743713379 L 127.3 39.0 L 128.2473684310913 44.0 L 164.0 44.0 L 174.0 34.0 L 186.0 44.0 L 186.0 48.0 L 129.0052631378174 48.0 L 130.9 58.0 L 136.4 73.5 L 143.0 85.7 L 143.10070447921754 85.8279218673706 L 145.3 83.8 L 152.1 76.1 L 158.1 67.9 L 163.2 58.9 L 163.23738136291504 58.92064876556397 L 163.8 58.0 L 173.7 64.7 L 175.4 67.9 L 171.51201763153077 68.03406839370727 L 167.4 74.3 L 160.2 83.1 L 152.2 91.1 L 149.16014680862426 93.52505140304565 L 150.4 95.1 L 158.1 102.0 L 165.7 106.9 L 172.5 109.9 L 176.45893535614013 111.01128005981445 L 182.0 87.0 L 184.0 87.0 L 182.07446804046631 112.0319149017334 L 186.2 113.8 L 188.0 118.0 L 186.2 122.2 L 182.0 124.0 L 175.9 123.3 L 168.5 121.2 L 160.0 117.5 L 150.9 111.6 L 141.7 103.3 L 139.57819328308105 100.61725587844849 L 133.6 104.5 L 123.1 110.0 L 111.8 114.5 L 99.7 118.3 L 86.8 121.0 L 73.1 122.8 L 72.8 121.1 L 85.9 117.3 L 98.0 113.1 L 109.3 108.5 L 119.6 103.2 L 129.1 97.3 L 134.02291193008423 93.59333686828613 L 133.0 92.3 L 125.4 78.3 L 119.4 61.1 L 116.86859903335571 48.0 L 14.0 48.0 L 14.0 44.0 L 116.0956521987915 44.0 L 115.4 40.4 L 114.05710401535035 16.995241355895995 L 114.0 17.0 L 114.0 13.6 L 126.0 16.0 L 129.0 18.0 Z M 20.5 104.1 L 28.4 103.4 L 36.5 102.8 L 44.8 102.0 L 53.3 101.2 L 58.0 100.76781606674194 L 58.0 78.1 L 24.0 78.1 L 24.0 74.1 L 58.0 74.1 L 58.0 52.3 L 70.0 54.3 L 73.0 56.3 L 70.0 58.1 L 70.0 74.1 L 79.8 74.1 L 89.8 64.1 L 101.8 74.1 L 101.8 78.1 L 70.0 78.1 L 70.0 99.6808988571167 L 70.9 99.6 L 80.0 98.7 L 89.3 97.8 L 98.8 97.1 L 108.6 96.5 L 108.9 98.2 L 99.5 100.8 L 90.1 103.1 L 81.0 105.2 L 72.0 107.1 L 63.2 108.8 L 54.6 110.4 L 46.1 112.0 L 37.9 113.4 L 29.8 114.7 L 25.934514808654786 115.33609247207642 L 24.2 118.7 L 21.9 116.0 L 18.5 104.3 Z M 155.4 33.2 L 154.1 31.5 L 152.6 29.8 L 150.8 28.2 L 148.9 26.5 L 146.7 24.8 L 144.3 23.1 L 141.6 21.4 L 138.7 20.1 L 139.2 18.4 L 142.4 19.0 L 145.7 19.4 L 148.8 20.0 L 151.8 20.8 L 154.6 21.7 L 157.3 22.8 L 159.8 24.0 L 162.3 25.5 L 164.6 27.1 L 166.7 28.8 L 168.0 33.2 L 165.8 37.3 L 161.5 38.5 L 157.4 36.4 L 156.5 34.8 Z " />
</g>
</svg>
