<svg xmlns="http://www.w3.org/2000/svg" xmlns:xlink="http://www.w3.org/1999/xlink" version="1.1" baseProfile="full" viewBox="0 0 200 200" width="200" height="200">
<g fill="black">
<path d="M 174.0 66.0 L 177.0 68.0 L 174.0 69.8 L 174.0 179.0 L 162.0 185.0 L 162.0 64.0 Z M 33.2 28.0 L 36.2 30.0 L 33.2 31.8 L 33.2 162.0 L 126.7 162.0 L 136.7 152.0 L 148.7 162.0 L 148.7 166.0 L 33.2 166.0 L 33.2 178.0 L 21.2 184.0 L 21.2 26.0 Z M 40.8 135.7 L 71.0 135.7 L 71.0 68.0 L 46.3 68.0 L 46.3 64.0 L 71.0 64.0 L 71.0 12.8 L 83.0 14.8 L 86.0 16.8 L 83.0 18.6 L 83.0 64.0 L 85.6 64.0 L 95.6 54.0 L 107.6 64.0 L 107.6 68.0 L 83.0 68.0 L 83.0 135.7 L 91.1 135.7 L 101.1 125.7 L 113.1 135.7 L 113.1 139.7 L 40.8 139.7 Z M 159.5 134.7 L 159.5 138.7 L 117.4 138.7 L 117.4 134.7 L 141.3181818008423 134.7 L 149.5 125.7 Z M 155.1 108.7 L 155.1 112.7 L 121.8 112.7 L 121.8 108.7 L 140.87777776718139 108.7 L 147.1 101.7 Z M 185.4 16.6 L 187.7 19.4 L 184.0465295791626 20.313367652893067 L 181.5 27.3 L 177.0 37.8 L 171.8 47.9 L 165.9 57.6 L 159.4 67.1 L 152.2 76.2 L 144.3 84.9 L 135.8 93.3 L 126.5 101.2 L 116.5 108.6 L 115.4 107.3 L 123.9 98.4 L 131.9 89.6 L 139.4 80.6 L 146.2 71.5 L 152.4 62.3 L 157.9 52.9 L 162.9 43.3 L 167.2 33.4 L 170.9 23.4 L 173.60555028915405 14.20112886428833 L 173.6 14.2 L 173.73333330154418 13.766666698455811 L 173.9 13.2 L 173.90705089569093 13.202084636688232 L 174.4 11.6 Z " />
</g>
</svg>
