<svg xmlns="http://www.w3.org/2000/svg" xmlns:xlink="http://www.w3.org/1999/xlink" version="1.1" baseProfile="full" viewBox="0 0 200 200" width="200" height="200">
<g fill="black">
<path d="M 141.4 178.4 L 162.6 178.4 L 163.6 178.2 L 164.1 178.0 L 164.5 177.9 L 164.7 177.7 L 164.8 177.5 L 165.0 177.2 L 165.2 176.6 L 165.3 175.7 L 165.4 174.4 L 165.4 160.8 L 112.01818180084229 160.8 L 111.8 162.4 L 110.6 166.5 L 108.8 170.4 L 106.6 174.0 L 103.9 177.2 L 100.7 180.0 L 97.2 182.5 L 93.2 184.6 L 88.8 186.4 L 84.1 188.0 L 83.4 186.4 L 87.4 183.8 L 90.7 180.9 L 93.5 178.0 L 95.8 175.2 L 97.6 172.4 L 99.0 169.5 L 99.9 166.7 L 100.4 163.9 L 100.6 161.0 L 100.4 158.0 L 100.4 116.4 L 112.4 122.4 L 165.4 122.4 L 171.4 117.4 L 182.4 126.4 L 177.4 130.4 L 177.4 174.4 L 177.3 177.0 L 176.8 179.5 L 176.0 181.9 L 174.8 184.2 L 173.1 186.2 L 171.1 187.8 L 168.9 189.1 L 166.5 189.9 L 164.0 190.3 L 161.4 190.4 L 161.4 184.4 L 141.4 181.4 Z M 14.1 150.9 L 19.9 149.4 L 26.0 147.7 L 32.5 145.8 L 39.3 143.7 L 44.0 142.17746477127076 L 44.0 72.0 L 15.0 72.0 L 15.0 68.0 L 44.0 68.0 L 44.0 17.0 L 56.0 19.0 L 59.0 21.0 L 56.0 22.8 L 56.0 68.0 L 65.0 68.0 L 75.0 58.0 L 87.0 68.0 L 87.0 72.0 L 56.0 72.0 L 56.0 138.3088607788086 L 61.8 136.4 L 70.0 133.7 L 78.6 130.9 L 87.6 128.1 L 88.3 129.8 L 80.0 134.4 L 72.0 138.6 L 64.2 142.5 L 56.7 146.0 L 49.5 149.3 L 42.5 152.4 L 35.9 155.2 L 29.5 157.8 L 23.4 160.2 L 21.585633850097658 160.90028171539308 L 20.5 164.7 L 17.7 162.4 L 12.2 151.5 Z M 112.4 143.8 L 112.4 156.8 L 165.4 156.8 L 165.4 143.8 Z M 112.4 126.4 L 112.4 139.8 L 165.4 139.8 L 165.4 126.4 Z M 151.2 70.8 L 162.5 70.8 L 163.4 70.6 L 164.0 70.4 L 164.3 70.2 L 164.5 70.1 L 164.6 69.9 L 164.8 69.6 L 165.0 69.0 L 165.2 68.1 L 165.2 47.0 L 143.1 47.0 L 143.1 72.61666669845582 L 145.0 74.2 L 149.5 78.1 L 154.0 81.7 L 158.5 85.1 L 163.0 88.2 L 167.5 91.0 L 172.1 93.5 L 176.8 95.8 L 181.6 97.7 L 186.4 99.4 L 193.1 102.0 L 181.6 111.7 L 176.4 109.1 L 171.3 106.2 L 166.4 102.9 L 161.7 99.4 L 157.2 95.5 L 153.0 91.4 L 148.9 86.9 L 145.2 82.1 L 143.1 78.88823528289795 L 143.1 112.6 L 131.1 118.6 L 131.1 85.07399997711181 L 127.4 88.7 L 122.1 93.3 L 116.6 97.5 L 110.9 101.3 L 105.1 104.7 L 99.0 107.7 L 92.7 110.1 L 86.2 112.0 L 85.5 110.4 L 91.0 106.7 L 96.4 103.0 L 101.5 99.2 L 106.5 95.1 L 111.2 90.9 L 115.8 86.4 L 120.2 81.6 L 124.4 76.6 L 128.4 71.4 L 131.1 67.42105264663697 L 131.1 47.0 L 108.9 47.0 L 108.9 78.2 L 96.9 84.2 L 96.9 37.0 L 108.9 43.0 L 131.1 43.0 L 131.1 31.3 L 86.5 31.3 L 86.5 27.3 L 131.1 27.3 L 131.1 9.6 L 143.1 11.6 L 146.1 13.6 L 143.1 15.4 L 143.1 27.3 L 165.7 27.3 L 175.7 17.3 L 187.7 27.3 L 187.7 31.3 L 143.1 31.3 L 143.1 43.0 L 165.2 43.0 L 171.2 38.0 L 182.2 47.0 L 177.2 51.0 L 177.2 66.8 L 177.1 69.4 L 176.6 71.9 L 175.8 74.3 L 174.6 76.6 L 173.0 78.6 L 171.0 80.2 L 168.7 81.4 L 166.3 82.2 L 163.8 82.7 L 161.2 82.8 L 161.2 76.8 L 151.2 73.8 Z " />
</g>
</svg>
