<svg xmlns="http://www.w3.org/2000/svg" xmlns:xlink="http://www.w3.org/1999/xlink" version="1.1" baseProfile="full" viewBox="0 0 200 200" width="200" height="200">
<g fill="black">
<path d="M 13.0 172.3 L 15.6 171.2 L 18.3 170.2 L 21.2 169.2 L 23.2 168.55483875274658 L 23.2 88.0 L 35.2 90.0 L 38.2 92.0 L 35.2 93.8 L 35.2 124.0 L 35.6 124.0 L 40.1 118.0 L 46.1 124.0 L 46.1 128.0 L 35.2 128.0 L 35.2 165.3526315689087 L 38.3 164.7 L 42.3 164.0 L 46.4 163.1 L 47.0 164.8 L 43.3 166.7 L 39.9 168.8 L 36.6 170.7 L 35.2 171.55806455612182 L 35.2 173.0 L 32.85555553436279 173.0 L 30.6 174.4 L 27.9 176.1 L 25.4 177.8 L 23.1 179.4 L 22.681896591186522 179.73448276519775 L 22.5 184.1 L 19.2 182.6 L 11.3 173.3 Z M 97.7 182.8 L 95.2 182.4 L 92.8 181.6 L 90.5 180.3 L 88.5 178.7 L 86.9 176.7 L 85.6 174.4 L 84.8 172.0 L 84.5944206237793 170.71512870788575 L 81.7 173.7 L 77.2 173.7 L 73.9 170.5 L 73.5 168.5 L 73.0 166.5 L 72.4 164.5 L 70.8 160.3 L 69.9 158.2 L 68.9 155.9 L 68.38684206008911 154.95921049118041 L 67.8 157.6 L 65.8 164.2 L 63.4 170.2 L 60.6 175.6 L 57.4 180.3 L 53.8 184.3 L 49.8 187.4 L 45.4 189.7 L 44.4 188.2 L 47.2 184.7 L 49.6 180.9 L 51.8 176.8 L 53.8 172.2 L 55.4 167.2 L 56.8 161.6 L 57.9 155.5 L 58.7 148.8 L 59.2 141.6 L 59.37468357086182 137.0 L 45.5 137.0 L 45.5 133.0 L 59.5 133.0 L 59.5 108.0 L 58.9268292427063 108.0 L 58.8 108.4 L 57.3 112.3 L 55.7 115.8 L 54.0 119.2 L 52.2 122.2 L 50.1 124.9 L 48.1 127.4 L 46.5 126.5 L 47.3 123.6 L 48.5 117.2 L 49.1 113.7 L 49.6 110.1 L 50.1 106.4 L 50.6 102.4 L 50.9 98.2 L 51.3 93.8 L 51.45641956329346 90.20235080718994 L 51.4 90.2 L 51.485245895385745 89.53934421539307 L 51.5 89.2 L 51.52856760025024 89.20360097885131 L 51.8 87.1 L 63.4 90.7 L 66.2 93.0 L 62.567101860046385 94.61462144851684 L 62.4 95.4 L 61.3 100.0 L 60.18372097015381 104.0 L 66.9777777671814 104.0 L 73.2 97.0 L 81.2 104.0 L 81.2 108.0 L 71.5 108.0 L 71.5 133.0 L 73.7 133.0 L 78.2 127.0 L 84.2 133.0 L 84.2 137.0 L 71.13333330154418 137.0 L 70.6 142.6 L 69.40428133010865 150.3721712112427 L 70.6 151.1 L 72.8 152.7 L 74.9 154.3 L 76.8 156.1 L 78.6 157.9 L 80.4 159.8 L 82.0 161.7 L 84.3 164.91999998092652 L 84.3 87.0 L 96.3 89.0 L 99.3 91.0 L 96.3 92.8 L 96.3 125.62380952835083 L 97.9 124.1 L 99.8 122.2 L 101.7 120.4 L 106.8 115.3 L 107.61343278884888 114.43233833312988 L 107.5 114.3 L 107.61418790817261 114.43153285980225 L 108.3 113.7 L 114.80734729766846 122.7173240661621 L 115.4 123.4 L 115.3 123.4 L 115.18947372436523 123.45263156890869 L 115.4 123.4 L 115.5 127.0 L 111.39710426330566 125.2194980621338 L 111.0 125.4 L 106.4 127.4 L 103.9 128.5 L 101.3 129.5 L 98.6 130.5 L 96.3 131.3214285850525 L 96.3 168.2 L 96.5 169.1 L 96.8 170.0 L 97.2 170.4 L 98.1 170.7 L 99.0 170.9 L 100.3 171.0 L 109.7 171.0 L 115.7 146.0 L 117.7 146.0 L 115.7 171.0 L 119.3 173.4 L 121.7 177.0 L 119.3 180.6 L 115.7 183.0 L 100.3 183.0 Z M 121.5 167.6 L 149.5 167.6 L 149.5 85.3 L 126.6 85.3 L 126.6 81.3 L 149.5 81.3 L 149.5 19.6 L 161.5 21.6 L 164.5 23.6 L 161.5 25.4 L 161.5 81.3 L 166.11818180084228 81.3 L 174.3 72.3 L 184.3 81.3 L 184.3 85.3 L 161.5 85.3 L 161.5 167.6 L 167.4 167.6 L 177.4 157.6 L 189.4 167.6 L 189.4 171.6 L 121.5 171.6 Z M 58.5 21.0 L 61.0 23.5 L 57.86048669815064 24.46600408554077 L 56.101366710662845 34.0 L 83.0 34.0 L 89.0 29.0 L 100.0 38.0 L 95.0 41.0 L 93.37732791900635 41.676113319396975 L 87.60909090042114 79.0 L 95.5 79.0 L 105.5 69.0 L 117.5 79.0 L 117.5 83.0 L 14.6 83.0 L 14.6 79.0 L 75.45111112594604 79.0 L 79.31333332061767 57.0 L 51.857631015777585 57.0 L 50.4 64.9 L 37.5 68.6 L 47.0 16.9 Z M 55.36332578659058 38.0 L 52.59567193984985 53.0 L 80.01555557250977 53.0 L 82.64888887405395 38.0 Z " />
</g>
</svg>
