<svg xmlns="http://www.w3.org/2000/svg" xmlns:xlink="http://www.w3.org/1999/xlink" version="1.1" baseProfile="full" viewBox="0 0 200 200" width="200" height="200">
<g fill="black">
<path d="M 14.0 173.0 L 94.0 173.0 L 94.0 144.8 L 27.0 144.8 L 27.0 140.8 L 94.0 140.8 L 94.0 118.4 L 106.0 120.4 L 109.0 122.4 L 106.0 124.2 L 106.0 140.8 L 151.0 140.8 L 161.0 130.8 L 173.0 140.8 L 173.0 144.8 L 106.0 144.8 L 106.0 173.0 L 164.0 173.0 L 174.0 163.0 L 186.0 173.0 L 186.0 177.0 L 14.0 177.0 Z M 159.8 22.5 L 160.1 26.1 L 156.32611465454102 24.590445899963377 L 153.7 26.2 L 146.9 30.0 L 143.2 31.9 L 139.4 33.8 L 135.5 35.8 L 131.3 37.7 L 129.1 38.6 L 158.0 38.6 L 168.0 28.6 L 180.0 38.6 L 180.0 42.6 L 141.0 42.6 L 141.0 74.8 L 165.0 74.8 L 175.0 64.8 L 187.0 74.8 L 187.0 78.8 L 141.0 78.8 L 141.0 121.4 L 129.0 127.4 L 129.0 78.8 L 96.0 78.8 L 96.0 74.8 L 129.0 74.8 L 129.0 42.6 L 103.0 42.6 L 103.0 38.6 L 122.93225803375245 38.6 L 125.2 36.7 L 128.8 33.6 L 132.2 30.7 L 135.6 27.9 L 138.8 25.2 L 141.8 22.6 L 144.7 20.1 L 147.5 17.6 L 150.1 15.3 L 151.78102025985717 13.689022254943847 L 151.7 13.6 L 152.6 12.9 Z M 15.0 79.0 L 24.3 77.8 L 33.6 76.5 L 42.8 75.2 L 51.9 73.8 L 59.95796222686768 72.53245534896851 L 60.0 69.8 L 60.0 42.6 L 20.0 42.6 L 20.0 38.6 L 40.15882349014282 38.6 L 43.2 36.4 L 47.6 33.2 L 51.9 30.1 L 55.9 27.3 L 59.6 24.5 L 63.1 21.9 L 66.4 19.3 L 69.4 16.9 L 72.1 14.6 L 73.78102025985717 12.989022254943848 L 73.7 12.9 L 74.27142858505249 12.51904764175415 L 74.5 12.3 L 74.53387470245362 12.344083499908447 L 74.6 12.3 L 81.8 21.8 L 82.1 25.4 L 78.29325151443481 23.946514225006105 L 75.4 25.7 L 71.8 27.6 L 68.0 29.6 L 63.9 31.6 L 59.5 33.6 L 54.9 35.6 L 50.0 37.6 L 47.26315793991089 38.6 L 75.0 38.6 L 85.0 28.6 L 97.0 38.6 L 97.0 42.6 L 72.0 42.6 L 72.0 69.8 L 71.91251459121705 70.66391811370849 L 78.6 69.6 L 87.3 68.2 L 96.0 66.9 L 104.7 65.8 L 105.2 67.5 L 97.0 70.6 L 88.6 73.4 L 80.0 76.0 L 71.3 78.5 L 70.98845777511596 78.58142576217651 L 69.4 85.2 L 66.6 92.3 L 62.9 98.8 L 58.3 104.8 L 52.8 110.3 L 46.4 115.2 L 39.2 119.6 L 31.2 123.4 L 22.3 126.5 L 21.6 124.9 L 29.4 120.0 L 36.3 115.1 L 42.4 110.1 L 47.4 104.9 L 51.6 99.6 L 54.9 94.1 L 57.4 88.4 L 59.0 82.5 L 59.12569551467895 81.63409776687622 L 53.6 83.0 L 44.6 85.1 L 35.5 87.1 L 26.2 89.0 L 20.877170372009278 90.03022508621216 L 19.3 93.5 L 16.9 90.8 L 13.0 79.3 Z " />
</g>
</svg>
