<svg xmlns="http://www.w3.org/2000/svg" xmlns:xlink="http://www.w3.org/1999/xlink" version="1.1" baseProfile="full" viewBox="0 0 200 200" width="200" height="200">
<g fill="black">
<path d="M 14.0 169.9 L 94.0 169.9 L 94.0 137.8 L 27.0 137.8 L 27.0 133.8 L 94.0 133.8 L 94.0 108.5 L 106.0 110.5 L 109.0 112.5 L 106.0 114.3 L 106.0 133.8 L 151.0 133.8 L 161.0 123.8 L 173.0 133.8 L 173.0 137.8 L 106.0 137.8 L 106.0 169.9 L 164.0 169.9 L 174.0 159.9 L 186.0 169.9 L 186.0 173.9 L 14.0 173.9 Z M 116.3 84.5 L 130.3 84.5 L 131.5 84.4 L 132.4 84.3 L 133.0 84.1 L 133.3 83.9 L 133.5 83.7 L 133.7 83.6 L 133.8 83.2 L 134.0 82.6 L 134.2 81.7 L 134.3 80.5 L 134.3 25.6 L 80.0 25.6 L 80.0 101.9 L 68.0 107.9 L 68.0 15.6 L 80.0 21.6 L 134.3 21.6 L 140.3 16.6 L 151.3 25.6 L 146.3 29.6 L 146.3 80.5 L 146.1 83.0 L 145.7 85.5 L 144.9 87.9 L 143.6 90.2 L 142.0 92.2 L 140.0 93.9 L 137.7 95.1 L 135.3 95.9 L 132.8 96.3 L 130.3 96.5 L 130.3 90.5 L 116.3 87.5 Z " />
</g>
</svg>
