<svg xmlns="http://www.w3.org/2000/svg" xmlns:xlink="http://www.w3.org/1999/xlink" version="1.1" baseProfile="full" viewBox="0 0 200 200" width="200" height="200">
<g fill="black">
<path d="M 14.0 173.0 L 94.0 173.0 L 94.0 142.4 L 27.0 142.4 L 27.0 138.4 L 94.0 138.4 L 94.0 114.2 L 106.0 116.2 L 109.0 118.2 L 106.0 120.0 L 106.0 138.4 L 151.0 138.4 L 161.0 128.4 L 173.0 138.4 L 173.0 142.4 L 106.0 142.4 L 106.0 173.0 L 164.0 173.0 L 174.0 163.0 L 186.0 173.0 L 186.0 177.0 L 14.0 177.0 Z M 33.3 119.9 L 21.3 125.9 L 21.3 18.6 L 33.3 24.6 L 75.9 24.6 L 85.9 14.6 L 97.9 24.6 L 97.9 28.6 L 65.5 28.6 L 65.5 49.1 L 80.8 49.1 L 86.8 44.1 L 97.8 53.1 L 92.8 57.1 L 92.8 85.1 L 80.8 91.1 L 80.8 81.1 L 65.5 81.1 L 65.5 103.9 L 78.3 103.9 L 88.3 93.9 L 100.3 103.9 L 100.3 107.9 L 33.3 107.9 Z M 168.5 109.7 L 166.5 110.9 L 164.4 111.9 L 162.2 112.8 L 160.0 113.6 L 157.8 114.1 L 155.5 114.5 L 153.1 114.8 L 150.8 114.9 L 150.8 108.9 L 130.8 105.9 L 130.8 102.9 L 150.8 102.9 L 153.8 102.7 L 155.3 102.4 L 156.7 102.1 L 159.3 101.1 L 160.6 100.4 L 161.9 99.6 L 163.1 98.8 L 164.3 97.8 L 164.6 97.4 L 165.2 96.5 L 165.9 94.9 L 166.7 92.8 L 167.5 90.2 L 168.2 87.1 L 168.8 83.4 L 169.4 79.3 L 170.0 74.8 L 170.25490198135375 72.2 L 119.48227424621582 72.2 L 118.8 76.2 L 105.9 80.1 L 113.1 38.4 L 122.5329113960266 45.3 L 167.1 45.3 L 167.1 26.9 L 110.9 26.9 L 110.9 22.9 L 167.1 22.9 L 173.1 17.9 L 184.1 26.9 L 179.1 30.9 L 179.1 51.3 L 167.1 57.3 L 167.1 49.3 L 123.38829431533813 49.3 L 120.16454849243163 68.2 L 170.4 68.2 L 176.4 63.2 L 187.4 72.2 L 182.4 75.2 L 181.95810146331786 75.38412437438964 L 181.9 76.0 L 181.3 80.9 L 180.7 85.4 L 179.9 89.5 L 179.1 93.2 L 178.1 96.5 L 177.0 99.5 L 175.8 102.2 L 174.2 104.6 L 172.2 106.8 L 170.4 108.3 Z M 33.3 81.1 L 33.3 103.9 L 53.5 103.9 L 53.5 81.1 Z M 33.3 77.1 L 80.8 77.1 L 80.8 53.1 L 33.3 53.1 Z M 33.3 28.6 L 33.3 49.1 L 53.5 49.1 L 53.5 28.6 Z " />
</g>
</svg>
