<svg xmlns="http://www.w3.org/2000/svg" xmlns:xlink="http://www.w3.org/1999/xlink" version="1.1" baseProfile="full" viewBox="0 0 200 200" width="200" height="200">
<g fill="black">
<path d="M 171.1 179.9 L 169.5 181.8 L 167.7 183.4 L 165.7 184.8 L 163.6 186.0 L 161.3 186.9 L 158.9 187.5 L 156.5 187.8 L 154.0 188.0 L 154.0 182.0 L 134.0 179.0 L 134.0 176.0 L 154.0 176.0 L 155.3 175.9 L 156.5 175.7 L 157.6 175.4 L 158.6 175.1 L 160.2 174.1 L 161.0 173.4 L 161.7 172.5 L 162.4 171.5 L 163.1 170.3 L 164.9 165.7 L 166.6 159.0 L 168.2 150.3 L 169.5 139.7 L 170.6 127.3 L 171.4 113.1 L 171.9 97.0 L 172.2 79.1 L 172.2 59.5 L 172.09216442108155 47.96159811019898 L 172.0 48.0 L 172.0 40.0 L 49.48985509872436 40.0 L 46.766480445861816 44.58324022293091 L 57.2 49.8 L 132.7 49.8 L 138.7 44.8 L 149.7 53.8 L 144.7 57.8 L 144.7 81.9 L 138.3214285850525 85.08928575515748 L 147.0 92.9 L 147.0 96.9 L 101.0 96.9 L 101.0 107.6 L 140.21818180084227 107.6 L 148.4 98.6 L 158.4 107.6 L 158.4 111.6 L 31.5 111.6 L 31.5 107.6 L 89.0 107.6 L 89.0 96.9 L 42.9 96.9 L 42.9 92.9 L 89.0 92.9 L 89.0 81.9 L 57.2 81.9 L 45.2 87.9 L 45.2 46.96000003814697 L 41.9 51.8 L 37.1 58.0 L 31.8 63.8 L 26.2 69.2 L 20.1 74.2 L 13.5 78.6 L 12.4 77.3 L 17.5 71.4 L 22.3 65.5 L 26.8 59.6 L 31.0 53.4 L 34.8 47.1 L 38.3 40.6 L 41.5 33.8 L 44.3 26.9 L 46.8 19.6 L 48.6420654296875 13.108912181854247 L 48.6 13.1 L 49.4 10.6 L 60.4 15.6 L 62.7 18.4 L 59.035888481140134 19.31602783203125 L 57.5 23.5 L 54.2 31.1 L 51.68194446563721 36.0 L 172.0 36.0 L 178.0 31.0 L 189.0 40.0 L 184.0 43.0 L 183.97238206863403 43.011507511138916 L 184.2 59.4 L 184.2 79.2 L 183.9 97.3 L 183.4 113.6 L 182.6 128.1 L 181.4 141.0 L 180.1 152.1 L 178.4 161.5 L 176.3 169.3 L 173.8 175.7 L 172.6 177.9 Z M 31.3 166.1 L 89.0 166.1 L 89.0 149.8 L 40.9 149.8 L 40.9 145.8 L 89.0 145.8 L 89.0 131.9 L 101.0 133.9 L 104.0 135.9 L 101.0 137.7 L 101.0 145.8 L 127.0 145.8 L 137.0 135.8 L 149.0 145.8 L 149.0 149.8 L 101.0 149.8 L 101.0 166.1 L 136.6 166.1 L 146.6 156.1 L 158.6 166.1 L 158.6 170.1 L 31.3 170.1 Z M 33.2 134.9 L 33.6 130.4 L 37.1 127.4 L 39.0 127.1 L 40.8 126.7 L 42.4 126.2 L 44.0 125.5 L 45.4 124.7 L 46.8 123.6 L 48.1 122.2 L 49.3 120.5 L 50.5 118.5 L 51.0 116.2 L 52.8 116.3 L 52.7 118.9 L 52.9 121.5 L 52.7 124.1 L 52.1 126.6 L 51.2 129.1 L 49.8 131.4 L 48.0 133.6 L 45.9 135.5 L 43.5 137.3 L 40.8 138.8 L 36.2 138.4 Z M 146.0 131.7 L 145.3 130.3 L 144.2 128.7 L 142.9 126.9 L 139.1 123.1 L 136.7 121.0 L 134.1 118.8 L 130.9 116.9 L 131.7 115.3 L 135.2 116.6 L 138.6 117.6 L 141.7 118.6 L 144.6 119.8 L 147.3 121.0 L 149.7 122.2 L 151.9 123.6 L 153.9 125.1 L 155.7 126.8 L 157.3 128.8 L 157.4 133.3 L 154.3 136.7 L 149.8 136.9 L 146.4 133.8 L 146.3 132.9 Z M 110.2 130.0 L 110.1 128.9 L 109.7 127.6 L 109.0 126.2 L 108.0 124.6 L 106.6 122.8 L 105.0 121.0 L 103.1 119.0 L 100.7 117.4 L 101.5 115.8 L 104.2 117.1 L 107.0 117.9 L 109.5 118.8 L 111.8 119.8 L 113.9 120.9 L 115.9 122.2 L 117.6 123.6 L 119.2 125.2 L 120.5 127.0 L 121.5 129.2 L 120.4 133.6 L 116.6 136.1 L 112.1 135.0 L 109.7 131.1 L 110.0 130.7 Z M 80.1 136.1 L 76.3 133.6 L 75.2 129.2 L 75.7 128.9 L 76.1 128.4 L 76.4 127.7 L 76.6 126.7 L 76.5 125.5 L 76.1 124.1 L 75.5 122.5 L 74.7 120.8 L 73.6 118.9 L 71.8 117.4 L 72.9 116.0 L 74.8 117.3 L 77.0 118.2 L 79.0 119.2 L 80.7 120.4 L 82.4 121.7 L 83.8 123.1 L 85.1 124.8 L 86.0 126.7 L 86.7 128.8 L 87.0 131.1 L 84.6 135.0 Z M 101.0 81.9 L 101.0 92.9 L 128.8181818008423 92.9 L 133.9166666984558 87.29166669845581 L 132.7 87.9 L 132.7 81.9 Z M 57.2 53.8 L 57.2 77.9 L 89.0 77.9 L 89.0 53.8 Z M 101.0 53.8 L 101.0 77.9 L 132.7 77.9 L 132.7 53.8 Z M 127.8 60.9 L 129.6 64.0 L 124.24615383148193 64.4615385055542 L 123.0 65.5 L 121.1 66.8 L 119.1 68.2 L 116.8 69.5 L 114.4 70.9 L 111.7 72.2 L 108.8 73.4 L 106.0 75.1 L 105.0 73.6 L 107.4 71.5 L 109.4 69.1 L 111.1 66.9 L 112.7 64.8 L 114.0 62.9 L 115.1 61.1 L 116.0 59.4 L 116.6 57.9 L 117.0 56.6 L 117.00344552993775 56.56209869384766 L 116.6 56.4 L 117.6 54.4 Z M 72.4 69.3 L 72.1 68.1 L 71.5 66.8 L 70.7 65.4 L 69.7 63.9 L 68.4 62.4 L 66.9 60.7 L 65.2 59.0 L 63.0 57.8 L 63.8 56.1 L 66.2 57.1 L 68.7 57.6 L 71.0 58.3 L 73.2 59.0 L 75.3 59.9 L 77.2 60.9 L 79.0 62.0 L 80.6 63.3 L 82.2 64.8 L 83.5 66.5 L 83.4 71.1 L 80.2 74.3 L 75.7 74.3 L 72.4 71.1 L 72.5 70.3 Z " />
</g>
</svg>
