<svg xmlns="http://www.w3.org/2000/svg" xmlns:xlink="http://www.w3.org/1999/xlink" version="1.1" baseProfile="full" viewBox="0 0 200 200" width="200" height="200">
<g fill="black">
<path d="M 14.0 173.5 L 94.0 173.5 L 94.0 144.6 L 27.0 144.6 L 27.0 140.6 L 94.0 140.6 L 94.0 117.7 L 106.0 119.7 L 109.0 121.7 L 106.0 123.5 L 106.0 140.6 L 151.0 140.6 L 161.0 130.6 L 173.0 140.6 L 173.0 144.6 L 106.0 144.6 L 106.0 173.5 L 164.0 173.5 L 174.0 163.5 L 186.0 173.5 L 186.0 177.5 L 14.0 177.5 Z M 143.0 113.1 L 157.0 113.1 L 158.2 113.0 L 159.1 112.8 L 160.0 112.5 L 160.4 112.1 L 160.7 111.2 L 160.9 110.3 L 161.0 109.1 L 161.0 82.9 L 39.0 82.9 L 39.0 118.5 L 27.0 124.5 L 27.0 72.9 L 39.0 78.9 L 161.0 78.9 L 167.0 73.9 L 178.0 82.9 L 173.0 86.9 L 173.0 109.1 L 172.8 111.6 L 172.4 114.1 L 171.6 116.5 L 170.3 118.8 L 168.7 120.8 L 166.7 122.5 L 164.4 123.7 L 162.0 124.5 L 159.5 124.9 L 157.0 125.1 L 157.0 119.1 L 143.0 116.1 Z M 76.4 89.3 L 123.5 89.3 L 129.5 84.3 L 140.5 93.3 L 135.5 97.3 L 135.5 108.9 L 123.5 114.9 L 123.5 108.9 L 76.4 108.9 L 64.4 114.9 L 64.4 83.3 Z M 76.4 93.3 L 76.4 104.9 L 123.5 104.9 L 123.5 93.3 Z M 164.1 68.4 L 157.5 65.8 L 151.2 63.1 L 145.3 60.1 L 142.95065965652466 58.79947233200073 L 140.2 61.0 L 140.2 72.6 L 128.2 78.6 L 128.2 72.6 L 71.7 72.6 L 59.7 78.6 L 59.7 58.24883718490601 L 53.5 60.7 L 44.2 63.8 L 34.2 66.6 L 23.5 69.0 L 12.2 70.9 L 11.7 69.2 L 22.5 65.3 L 32.5 61.5 L 41.9 57.7 L 50.5 53.7 L 58.4 49.6 L 59.7 48.84166669845581 L 59.7 47.0 L 61.4 47.85 L 65.6 45.4 L 70.06511631011963 42.4 L 14.0 42.4 L 14.0 38.4 L 75.49772729873658 38.4 L 77.7 36.7 L 82.27698030471802 32.40324296951294 L 79.8 32.5 L 66.6 32.9 L 53.1 33.0 L 39.2 32.8 L 25.0 32.2 L 24.9 30.4 L 39.1 29.0 L 52.9 27.6 L 66.2 26.3 L 79.2 25.0 L 91.8 23.5 L 104.1 22.0 L 115.9 20.3 L 127.3 18.6 L 138.3 16.7 L 149.0 14.7 L 149.20265026092528 15.895636749267577 L 160.2 25.0 L 160.6 27.9 L 156.17238693237306 25.656676006317138 L 151.0 26.5 L 140.0 28.0 L 128.7 29.2 L 117.0 30.3 L 105.0 31.2 L 92.6 32.0 L 92.1751275062561 32.01659660339355 L 95.7 35.5 L 96.4457142829895 38.4 L 167.8181818008423 38.4 L 176.0 29.4 L 186.0 38.4 L 186.0 42.4 L 127.56086959838868 42.4 L 133.1 45.0 L 138.2 47.3 L 143.5 49.5 L 149.0 51.6 L 154.9 53.5 L 161.1 55.4 L 167.5 57.0 L 174.3 58.6 L 181.4 60.0 L 190.2 62.0 L 178.5 72.9 L 171.1 70.7 Z M 71.7 57.0 L 71.7 68.6 L 128.2 68.6 L 128.2 57.0 Z M 87.8340425491333 42.4 L 84.2 45.2 L 77.5 49.5 L 71.34935064315796 52.82467536926269 L 71.7 53.0 L 128.2 53.0 L 130.8900221824646 50.75831489562988 L 129.9 50.0 L 125.7 46.0 L 122.68604650497437 42.4 Z M 92.56800003051758 38.4 L 93.49090909957886 38.4 L 92.72717771530151 38.25261325836182 Z " />
</g>
</svg>
