<svg xmlns="http://www.w3.org/2000/svg" xmlns:xlink="http://www.w3.org/1999/xlink" version="1.1" baseProfile="full" viewBox="0 0 200 200" width="200" height="200">
<g fill="black">
<path d="M 14.0 177.2 L 94.0 177.2 L 94.0 154.5 L 27.0 154.5 L 27.0 150.5 L 94.0 150.5 L 94.0 132.0 L 106.0 134.0 L 109.0 136.0 L 106.0 137.8 L 106.0 150.5 L 151.0 150.5 L 161.0 140.5 L 173.0 150.5 L 173.0 154.5 L 106.0 154.5 L 106.0 177.2 L 164.0 177.2 L 174.0 167.2 L 186.0 177.2 L 186.0 181.2 L 14.0 181.2 Z M 134.0 123.2 L 155.2 123.2 L 156.1 123.0 L 156.7 122.8 L 157.0 122.6 L 157.2 122.5 L 157.4 122.3 L 157.7 121.4 L 157.9 120.5 L 158.0 119.2 L 158.0 104.7 L 106.0 104.7 L 106.0 123.7 L 94.0 129.7 L 94.0 104.7 L 42.0 104.7 L 42.0 127.9 L 30.0 133.9 L 30.0 58.6 L 42.0 64.6 L 158.0 64.6 L 164.0 59.6 L 175.0 68.6 L 170.0 72.6 L 170.0 119.2 L 169.8 121.8 L 169.4 124.3 L 168.6 126.7 L 167.3 129.0 L 165.7 131.0 L 163.7 132.6 L 161.4 133.8 L 159.0 134.7 L 156.5 135.1 L 154.0 135.2 L 154.0 129.2 L 134.0 126.2 Z M 42.0 86.4 L 42.0 100.7 L 94.0 100.7 L 94.0 86.4 Z M 106.0 86.4 L 106.0 100.7 L 158.0 100.7 L 158.0 86.4 Z M 42.0 68.6 L 42.0 82.4 L 94.0 82.4 L 94.0 68.6 Z M 106.0 68.6 L 106.0 82.4 L 158.0 82.4 L 158.0 68.6 Z M 12.0 45.8 L 48.0 45.8 L 48.0 18.7 L 60.0 20.7 L 63.0 22.7 L 60.0 24.5 L 60.0 45.8 L 94.0 45.8 L 94.0 10.6 L 106.0 12.6 L 109.0 14.6 L 106.0 16.4 L 106.0 26.5 L 152.0 26.5 L 162.0 16.5 L 174.0 26.5 L 174.0 30.5 L 106.0 30.5 L 106.0 45.8 L 169.8181818008423 45.8 L 178.0 36.8 L 188.0 45.8 L 188.0 49.8 L 12.0 49.8 Z " />
</g>
</svg>
