<svg xmlns="http://www.w3.org/2000/svg" xmlns:xlink="http://www.w3.org/1999/xlink" version="1.1" baseProfile="full" viewBox="0 0 200 200" width="200" height="200">
<g fill="black">
<path d="M 16.6 173.2 L 24.7 172.4 L 32.9 171.7 L 41.4 170.8 L 50.0 169.9 L 55.0 169.3382022857666 L 55.0 143.3 L 20.3 143.3 L 20.3 139.3 L 55.0 139.3 L 55.0 115.1 L 67.0 117.1 L 70.0 119.1 L 67.0 120.9 L 67.0 139.3 L 77.5 139.3 L 87.5 129.3 L 99.5 139.3 L 99.5 143.3 L 67.0 143.3 L 67.0 168.0098900794983 L 68.0 167.9 L 77.2 166.9 L 86.7 165.9 L 96.5 164.9 L 106.4 164.2 L 106.8 165.9 L 97.1 168.7 L 87.7 171.2 L 78.3 173.4 L 69.2 175.4 L 60.2 177.3 L 51.4 179.1 L 42.8 180.7 L 34.4 182.3 L 26.2 183.7 L 22.204729747772216 184.39054050445557 L 20.5 187.8 L 18.1 185.1 L 14.7 173.4 Z M 184.0 145.0 L 186.0 145.0 L 184.0 170.0 L 187.6 172.4 L 190.0 176.0 L 187.6 179.6 L 184.0 182.0 L 154.0 182.0 L 151.4 181.8 L 148.9 181.4 L 146.5 180.6 L 144.2 179.3 L 142.2 177.7 L 140.6 175.7 L 139.3 173.4 L 138.5 171.0 L 138.1 168.5 L 138.0 166.0 L 138.0 128.0 L 123.0 128.0 L 123.0 140.0 L 111.0 146.0 L 111.0 71.0 L 123.0 73.0 L 126.0 75.0 L 123.0 76.8 L 123.0 124.0 L 138.0 124.0 L 138.0 57.34799995422363 L 136.8 57.7 L 129.2 59.9 L 121.4 62.0 L 113.4 64.0 L 105.3 65.8 L 104.6 64.1 L 112.2 60.4 L 119.6 56.9 L 127.0 53.7 L 134.3 50.5 L 138.0 48.93661975860596 L 138.0 21.0 L 150.0 23.0 L 153.0 25.0 L 150.0 26.8 L 150.0 43.991304302215575 L 155.4 41.8 L 162.2 39.0 L 168.9 36.3 L 175.5 33.6 L 176.09528131484984 35.28166971206665 L 185.1 43.0 L 185.3 46.1 L 181.19720401763917 44.32416296005249 L 179.5 44.9 L 172.7 47.0 L 165.8 49.1 L 158.8 51.2 L 151.6 53.4 L 150.0 53.860273933410646 L 150.0 124.0 L 166.0 124.0 L 166.0 71.0 L 178.0 73.0 L 181.0 75.0 L 178.0 76.8 L 178.0 134.0 L 166.0 140.0 L 166.0 128.0 L 150.0 128.0 L 150.0 167.2 L 150.2 168.1 L 150.5 169.0 L 150.9 169.4 L 151.8 169.7 L 152.7 169.9 L 154.0 170.0 L 178.0 170.0 Z M 88.7 87.9 L 84.3 83.4 L 80.1 78.6 L 76.3 73.3 L 72.8 67.7 L 69.6 61.7 L 66.8 55.4 L 66.5 54.55 L 66.5 103.5 L 54.5 109.5 L 54.5 60.98999996185303 L 53.1 63.3 L 48.8 69.4 L 44.1 75.1 L 39.1 80.3 L 33.8 85.0 L 28.1 89.1 L 22.1 92.6 L 15.8 95.5 L 14.8 93.9 L 19.9 89.5 L 24.7 84.9 L 29.3 80.2 L 33.5 75.2 L 37.4 69.9 L 41.1 64.2 L 44.4 58.2 L 47.5 51.9 L 50.2 45.2 L 51.23333330154419 42.1 L 17.4 42.1 L 17.4 38.1 L 54.5 38.1 L 54.5 14.0 L 66.5 16.0 L 69.5 18.0 L 66.5 19.8 L 66.5 38.1 L 81.5 38.1 L 91.5 28.1 L 103.5 38.1 L 103.5 42.1 L 66.5 42.1 L 66.5 44.19743585586548 L 68.2 46.9 L 72.0 52.6 L 75.8 58.0 L 79.7 63.0 L 83.6 67.6 L 87.7 71.7 L 91.9 75.4 L 96.2 78.7 L 100.7 81.6 L 105.3 84.2 L 109.8 86.8 L 98.6 95.6 L 93.5 91.9 Z " />
</g>
</svg>
