<svg xmlns="http://www.w3.org/2000/svg" xmlns:xlink="http://www.w3.org/1999/xlink" version="1.1" baseProfile="full" viewBox="0 0 200 200" width="200" height="200">
<g fill="black">
<path d="M 14.0 175.0 L 94.0 175.0 L 94.0 144.0 L 43.0 144.0 L 43.0 140.0 L 94.0 140.0 L 94.0 116.0 L 106.0 118.0 L 109.0 120.0 L 106.0 121.8 L 106.0 140.0 L 138.0 140.0 L 148.0 130.0 L 160.0 140.0 L 160.0 144.0 L 106.0 144.0 L 106.0 175.0 L 164.0 175.0 L 174.0 165.0 L 186.0 175.0 L 186.0 179.0 L 14.0 179.0 Z M 168.5 140.2 L 163.5 137.6 L 158.5 134.6 L 153.3 131.1 L 148.0 127.3 L 142.6 123.0 L 137.1 118.3 L 131.6 113.1 L 126.85172414779663 108.0 L 87.64328355789185 108.0 L 83.9 111.3 L 75.6 117.7 L 66.8 123.9 L 57.3 129.7 L 47.3 135.3 L 36.6 140.5 L 25.3 145.4 L 13.3 149.8 L 12.6 148.1 L 23.6 141.9 L 34.1 135.8 L 43.9 129.6 L 53.2 123.3 L 61.8 116.9 L 69.8 110.4 L 72.49090909957886 108.0 L 17.0 108.0 L 17.0 104.0 L 76.97575759887695 104.0 L 77.2 103.8 L 84.0 97.0 L 90.1 90.1 L 95.6 83.0 L 95.60962028503418 83.00749368667603 L 96.0 82.5 L 105.1 90.4 L 106.2 93.9 L 102.44476232528686 93.38203620910645 L 98.6 97.7 L 92.11739130020142 104.0 L 163.0 104.0 L 173.0 94.0 L 185.0 104.0 L 185.0 108.0 L 131.01538457870484 108.0 L 134.2 109.8 L 140.6 113.6 L 146.7 117.1 L 152.5 120.3 L 158.0 123.1 L 163.3 125.5 L 168.3 127.6 L 173.0 129.3 L 177.5 130.6 L 181.7 131.6 L 189.9 133.8 L 178.2 144.3 L 173.4 142.5 Z M 64.4 66.5 L 63.2 64.4 L 61.8 62.2 L 60.2 60.0 L 58.4 57.7 L 56.4 55.4 L 55.0 53.8 L 55.0 95.0 L 43.0 101.0 L 43.0 58.70322580337525 L 42.9 58.9 L 39.5 64.8 L 35.8 70.4 L 31.9 75.7 L 27.8 80.7 L 23.4 85.4 L 18.6 89.7 L 13.6 93.6 L 12.3 92.3 L 15.8 87.2 L 19.2 82.0 L 22.5 76.8 L 25.6 71.5 L 28.6 66.0 L 31.3 60.4 L 33.8 54.6 L 36.2 48.6 L 38.3 42.4 L 39.00909090042114 40.0 L 15.0 40.0 L 15.0 36.0 L 43.0 36.0 L 43.0 15.0 L 55.0 17.0 L 58.0 19.0 L 55.0 20.8 L 55.0 36.0 L 58.0 36.0 L 68.0 26.0 L 80.0 36.0 L 80.0 40.0 L 55.0 40.0 L 55.0 48.909375 L 56.7 49.6 L 59.8 51.1 L 62.6 52.7 L 65.3 54.4 L 67.9 56.2 L 70.3 58.1 L 72.5 60.0 L 74.6 62.1 L 76.5 64.3 L 77.2 68.8 L 74.5 72.5 L 70.0 73.2 L 66.3 70.5 L 65.4 68.5 Z M 109.3 78.4 L 107.0 76.2 L 104.5406084060669 74.02438430786133 L 102.1 75.4 L 96.2 78.5 L 90.1 81.6 L 83.6 84.5 L 76.6 87.2 L 69.3 89.8 L 68.6 88.1 L 74.9 83.9 L 81.0 79.8 L 86.8 75.9 L 92.3 72.1 L 97.24706726074218 68.48483543395996 L 94.2 66.4 L 90.0 63.8 L 85.5 61.0 L 80.6 58.2 L 81.2 56.5 L 86.7 57.9 L 92.0 59.4 L 96.8 61.0 L 101.3 62.7 L 103.49767446517944 63.641860485076904 L 106.8 61.0 L 110.9 57.4 L 114.7 53.8 L 117.4107325553894 51.00954008102417 L 117.4 51.0 L 117.70344829559326 50.69655170440674 L 113.7 49.3 L 111.2 46.7 L 108.6 44.1 L 105.8 41.6 L 104.30656938552856 40.39562044143677 L 102.5 41.6 L 97.2 44.8 L 91.7 47.8 L 85.9 50.7 L 79.8 53.4 L 73.4 55.7 L 72.5 54.2 L 77.9 50.1 L 83.1 46.1 L 88.1 42.3 L 92.9 38.5 L 97.11818904876709 35.01540908813477 L 95.8 34.1 L 92.1 31.7 L 88.1 29.2 L 84.0 26.6 L 79.6 24.1 L 80.2 22.4 L 85.2 23.5 L 90.1 24.7 L 94.7 26.1 L 99.2 27.7 L 103.4 29.5 L 103.40701751708984 29.503252029418945 L 106.0 27.1 L 109.9 23.3 L 113.5 19.4 L 116.20151224136353 16.301206588745117 L 116.2 16.3 L 116.2625 16.23125 L 116.9 15.5 L 116.91460552215577 15.51393394470215 L 117.2 15.2 L 125.6 23.8 L 126.4 27.3 L 122.67076749801636 26.51489839553833 L 121.5 27.6 L 117.1 31.2 L 112.90025749206544 34.41682405471802 L 115.0 35.7 L 118.5 38.0 L 121.9 40.5 L 123.7 44.7 L 122.1 49.0 L 118.66955156326294 50.506050491333006 L 126.4 59.0 L 127.0 62.5 L 123.22868757247925 61.507549381256105 L 122.1 62.4 L 117.6 65.7 L 113.33536348342895 68.57210216522216 L 116.1 70.3 L 119.0 72.5 L 121.6 74.8 L 122.9 79.2 L 120.9 83.2 L 116.5 84.6 L 112.4 82.5 L 111.1 80.5 Z M 172.7 74.8 L 169.4 70.9 L 166.5 66.9 L 163.8 62.6 L 161.4 58.3 L 160.0 55.08000001907349 L 160.0 95.0 L 148.0 101.0 L 148.0 59.21999998092652 L 145.8 63.4 L 142.4 68.8 L 138.6 74.0 L 134.4 78.9 L 129.9 83.5 L 124.9 87.8 L 119.6 91.6 L 118.3 90.3 L 122.2 85.1 L 125.8 80.0 L 129.2 74.9 L 132.3 69.8 L 135.0 64.6 L 137.5 59.2 L 139.6 53.8 L 141.4 48.2 L 142.9 42.5 L 143.4 40.0 L 127.0 40.0 L 127.0 36.0 L 148.0 36.0 L 148.0 15.0 L 160.0 17.0 L 163.0 19.0 L 160.0 20.8 L 160.0 36.0 L 165.0 36.0 L 175.0 26.0 L 187.0 36.0 L 187.0 40.0 L 160.0 40.0 L 160.0 42.73928575515747 L 162.7 46.5 L 165.5 50.3 L 168.3 53.8 L 171.3 57.2 L 174.3 60.5 L 177.5 63.5 L 180.9 66.4 L 184.4 69.2 L 188.0 71.8 L 190.8 73.9 L 179.9 82.1 L 176.1 78.6 Z " />
</g>
</svg>
