<svg xmlns="http://www.w3.org/2000/svg" xmlns:xlink="http://www.w3.org/1999/xlink" version="1.1" baseProfile="full" viewBox="0 0 200 200" width="200" height="200">
<g fill="black">
<path d="M 13.0 174.7 L 50.0 174.7 L 50.0 138.4 L 19.5 138.4 L 19.5 134.4 L 50.0 134.4 L 50.0 106.1 L 62.0 108.1 L 65.0 110.1 L 62.0 111.9 L 62.0 134.4 L 70.5 134.4 L 80.5 124.4 L 92.5 134.4 L 92.5 138.4 L 62.0 138.4 L 62.0 174.7 L 77.0 174.7 L 87.0 164.7 L 99.0 174.7 L 99.0 178.7 L 13.0 178.7 Z M 122.81803274154663 130.0 L 122.13952474594116 131.29340591430665 L 122.8 133.1 L 126.7 141.4 L 131.2 148.6 L 136.3 154.9 L 139.3092113494873 157.6497965812683 L 144.5 151.9 L 150.1 144.0 L 154.8 135.3 L 156.91999998092652 130.0 Z M 183.0 96.5 L 185.0 96.5 L 183.0 109.5 L 185.7 111.3 L 187.5 114.0 L 185.7 116.7 L 183.0 118.5 L 157.4 118.5 L 155.0 118.2 L 152.8 117.6 L 150.6 116.6 L 148.6 115.2 L 146.9 113.3 L 145.6 111.2 L 144.7 108.9 L 144.1 106.5 L 143.8 104.0 L 143.8 85.5 L 127.12131147384643 85.5 L 133.6 89.3 L 135.6 92.4 L 131.54920635223388 92.88888893127441 L 131.2 93.5 L 128.4 97.6 L 125.3 101.5 L 122.565669631958 104.55601634979249 L 131.5 108.5 L 133.8 111.3 L 130.23030977249147 112.25616703033447 L 129.1 115.6 L 126.4 122.3 L 124.7234375 126.0 L 158.3 126.0 L 164.3 121.0 L 175.3 130.0 L 170.3 133.0 L 168.05631265640258 133.93486976623535 L 164.9 140.5 L 159.0 150.0 L 152.1 158.5 L 146.84739027023315 163.48665475845337 L 148.6 164.7 L 155.9 168.3 L 164.0 171.1 L 173.0 173.2 L 182.8 174.4 L 193.3 175.5 L 181.4 187.5 L 170.4 185.4 L 160.3 182.4 L 151.2 178.3 L 143.0 173.2 L 138.9758957862854 169.79934854507445 L 135.4 172.4 L 125.8 177.9 L 115.2 182.2 L 103.8 185.6 L 91.6 187.8 L 78.5 188.8 L 78.3 187.1 L 90.8 184.0 L 102.3 180.4 L 112.7 176.1 L 122.2 171.2 L 130.6 165.5 L 132.8068736076355 163.59135255813598 L 129.9 160.2 L 125.0 152.4 L 121.3 143.7 L 119.36465425491333 136.42309999465942 L 116.9 140.7 L 113.3 146.2 L 109.4 151.4 L 105.3 156.2 L 100.8 160.6 L 96.1 164.6 L 94.7 163.3 L 97.9 158.2 L 101.0 153.0 L 104.0 147.8 L 106.8 142.3 L 109.4 136.7 L 111.9 130.9 L 114.2 124.8 L 116.3 118.5 L 118.2 112.0 L 119.35131721496582 107.71454162597657 L 118.1 108.9 L 114.0 112.3 L 109.6 115.5 L 104.9 118.5 L 99.7 121.3 L 94.2 123.7 L 93.2 122.2 L 97.6 118.1 L 101.6 114.3 L 105.4 110.5 L 108.9 106.7 L 112.0 103.0 L 114.8 99.3 L 117.2 95.6 L 119.4 91.9 L 121.2 88.1 L 122.25405406951904 85.5 L 112.6 85.5 L 112.6 92.5 L 101.6 98.0 L 101.6 19.5 L 112.6 21.5 L 115.3 23.5 L 112.6 25.223404216766358 L 112.6 40.25 L 112.9 39.9 L 114.5 41.1 L 116.5 41.9 L 118.4 42.8 L 120.2 43.8 L 123.6 46.0 L 125.2 47.2 L 126.7 48.5 L 128.2 49.9 L 129.6 51.3 L 130.2 55.8 L 127.5 59.5 L 123.0 60.1 L 119.3 57.4 L 118.9 55.9 L 118.4 54.4 L 117.9 52.8 L 117.2 51.2 L 116.6 49.6 L 115.0 46.2 L 114.1 44.5 L 113.1 42.7 L 112.6 42.2 L 112.6 78.55384616851806 L 117.1 74.4 L 122.0 69.5 L 126.6 64.5 L 131.0 59.2 L 135.1 53.6 L 137.0233033180237 50.61381845474243 L 134.3 48.1 L 130.4 44.7 L 122.2 38.3 L 118.0 35.2 L 118.8 33.5 L 124.0 34.9 L 129.1 36.8 L 134.0 39.2 L 138.9 42.0 L 141.24485778808594 43.59649887084961 L 142.5 41.4 L 145.8 34.9 L 145.86940059661865 34.74037857055664 L 143.5 37.6 L 139.0 37.9 L 135.4 35.0 L 135.2 33.6 L 134.9 32.3 L 134.5 30.8 L 133.9 29.4 L 133.3 27.9 L 132.5 26.3 L 131.7 24.8 L 130.7 23.2 L 129.6 21.5 L 128.1 20.2 L 129.0 18.7 L 130.8 19.7 L 132.8 20.3 L 134.8 21.1 L 136.6 22.0 L 138.4 23.0 L 140.1 24.1 L 141.8 25.3 L 143.3 26.6 L 144.8 28.0 L 146.1 29.6 L 146.36647396087648 33.5971097946167 L 148.8 28.0 L 151.16038455963135 21.618219470977785 L 151.1 21.6 L 152.0 19.3 L 162.7 25.1 L 164.7 28.0 L 161.02054376602172 28.645518589019776 L 159.1 32.7 L 156.276957988739 37.97463111877441 L 157.0 38.3 L 159.0 39.3 L 160.9 40.5 L 162.7 41.9 L 164.4 43.4 L 166.1 45.0 L 167.6 46.7 L 168.7 48.09333333969116 L 168.7 19.5 L 180.7 21.5 L 183.7 23.5 L 180.7 25.3 L 180.7 91.5 L 168.7 97.5 L 168.7 85.5 L 155.8 85.5 L 155.8 104.0 L 155.7 105.2 L 155.7 106.2 L 155.8 106.9 L 155.9 107.4 L 156.0 107.7 L 156.2 108.1 L 156.6 108.5 L 157.4 108.9 L 158.4 109.2 L 159.8 109.5 L 178.5 109.5 Z M 29.1 110.9 L 18.1 116.4 L 18.1 49.9 L 29.1 55.4 L 40.2 55.4 L 40.2 30.4 L 14.3 30.4 L 14.3 26.4 L 75.6 26.4 L 85.6 16.4 L 97.6 26.4 L 97.6 30.4 L 71.7 30.4 L 71.7 55.4 L 83.3 55.4 L 88.3 50.4 L 98.3 59.4 L 93.3 62.4 L 93.3 100.9 L 83.3 105.9 L 83.3 98.9 L 29.1 98.9 Z M 29.1 59.4 L 29.1 94.9 L 40.2 94.9 L 40.2 59.4 Z M 50.2 59.4 L 50.2 94.9 L 61.7 94.9 L 61.7 59.4 Z M 71.7 59.4 L 71.7 94.9 L 83.3 94.9 L 83.3 59.4 Z M 141.7 76.3 L 141.3 74.8 L 140.7 73.4 L 140.1 71.9 L 139.3 70.3 L 138.5 68.8 L 137.5 67.2 L 136.4 65.5 L 135.82150173187256 64.99863481521606 L 131.2 69.2 L 125.4 73.6 L 119.3 77.5 L 112.9 80.7 L 112.6 80.25 L 112.6 81.5 L 145.30344829559326 81.5 L 142.2 79.0 L 142.0 77.6 Z M 149.1 63.9 L 145.6 59.6 L 143.25931100845338 57.00626354217529 L 141.8 58.8 L 137.31943321228027 63.54412956237793 L 137.6 63.7 L 139.6 64.3 L 141.6 65.1 L 143.4 66.0 L 145.2 67.0 L 146.9 68.1 L 148.6 69.3 L 150.1 70.6 L 151.6 72.0 L 152.9 73.6 L 153.2 78.1 L 150.38285713195802 81.5 L 168.7 81.5 L 168.7 53.99333333969116 L 166.4 56.6 L 161.9 56.9 L 158.4 53.9 L 158.0 52.2 L 157.5 50.4 L 156.9 48.7 L 155.5 45.3 L 154.7 43.6 L 153.89366512298585 42.076923084259036 L 151.1 46.6 L 149.07326736450196 49.43742570877075 L 152.7 52.5 L 157.1 56.7 L 161.4 61.2 L 165.5 65.9 L 166.6 70.4 L 164.4 74.3 L 159.9 75.4 L 156.0 73.2 L 152.6 68.4 Z M 50.2 30.4 L 50.2 55.4 L 61.7 55.4 L 61.7 30.4 Z " />
</g>
</svg>
