<svg xmlns="http://www.w3.org/2000/svg" xmlns:xlink="http://www.w3.org/1999/xlink" version="1.1" baseProfile="full" viewBox="0 0 200 200" width="200" height="200">
<g fill="black">
<path d="M 14.0 176.0 L 96.0 176.0 L 96.0 141.0 L 30.0 141.0 L 30.0 137.0 L 96.0 137.0 L 96.0 116.0 L 108.0 118.0 L 111.0 120.0 L 108.0 121.8 L 108.0 137.0 L 147.0 137.0 L 157.0 127.0 L 169.0 137.0 L 169.0 141.0 L 108.0 141.0 L 108.0 176.0 L 166.0 176.0 L 176.0 166.0 L 188.0 176.0 L 188.0 180.0 L 14.0 180.0 Z M 98.2 103.8 L 118.2 103.8 L 119.5 103.7 L 120.4 103.6 L 121.0 103.4 L 121.3 103.2 L 121.6 102.9 L 121.8 102.5 L 122.0 101.9 L 122.2 101.0 L 122.2 60.9 L 72.2 60.9 L 72.2 56.9 L 122.2 56.9 L 122.2 27.0 L 81.4 27.0 L 81.4 23.0 L 152.4 23.0 L 162.4 13.0 L 174.4 23.0 L 174.4 27.0 L 134.2 27.0 L 134.2 56.9 L 164.5 56.9 L 174.5 46.9 L 186.5 56.9 L 186.5 60.9 L 134.2 60.9 L 134.2 99.8 L 134.1 102.3 L 133.7 104.8 L 132.9 107.2 L 131.6 109.5 L 130.0 111.5 L 128.0 113.2 L 125.7 114.4 L 123.3 115.2 L 120.8 115.6 L 118.2 115.8 L 118.2 109.8 L 98.2 106.8 Z M 40.1 113.9 L 36.2 111.5 L 35.0 107.1 L 35.6 104.0 L 35.7 101.2 L 35.4 98.7 L 34.6 96.3 L 33.3 93.9 L 31.2 91.5 L 28.5 89.2 L 24.9 87.0 L 20.6 84.8 L 15.5 83.2 L 15.8 81.4 L 21.3 82.0 L 26.4 82.8 L 31.1 84.1 L 33.8814977645874 85.32114534378051 L 34.6 84.5 L 37.2 81.6 L 40.5 78.0 L 44.3 73.9 L 48.9 69.1 L 54.1 63.7 L 60.0 57.8 L 66.6 51.3 L 74.1 44.2 L 75.4 45.4 L 69.5 53.7 L 64.0 61.3 L 59.1 68.0 L 54.7 74.0 L 50.9 79.3 L 47.7 83.8 L 45.2 87.7 L 43.3 90.8 L 42.54698791503906 92.24327306747436 L 44.4 95.1 L 46.0 99.3 L 46.8 103.9 L 46.9 108.8 L 44.5 112.7 Z M 36.0 56.2 L 34.5 55.0 L 32.7 53.7 L 30.4 52.3 L 27.8 50.9 L 24.8 49.5 L 21.5 48.0 L 17.9 46.5 L 13.8 45.3 L 14.1 43.5 L 18.4 43.9 L 22.4 44.0 L 26.2 44.3 L 29.7 44.6 L 32.9 45.1 L 35.9 45.7 L 38.7 46.5 L 41.2 47.3 L 43.6 48.4 L 45.8 49.7 L 47.6 53.9 L 46.0 58.2 L 41.8 60.0 L 37.6 58.4 L 37.0 57.4 Z M 50.7 30.3 L 49.2 29.0 L 47.4 27.7 L 45.2 26.3 L 42.7 24.9 L 39.9 23.5 L 36.8 22.0 L 33.4 20.5 L 29.6 19.3 L 30.0 17.6 L 33.9 18.0 L 37.7 18.1 L 41.3 18.3 L 44.6 18.7 L 47.7 19.2 L 50.7 19.8 L 53.4 20.5 L 55.9 21.4 L 58.3 22.4 L 60.5 23.6 L 62.5 27.7 L 61.2 32.1 L 57.1 34.1 L 52.7 32.7 L 51.9 31.6 Z " />
</g>
</svg>
