<svg xmlns="http://www.w3.org/2000/svg" xmlns:xlink="http://www.w3.org/1999/xlink" version="1.1" baseProfile="full" viewBox="0 0 200 200" width="200" height="200">
<g fill="black">
<path d="M 169.7 111.4 L 168.5 108.1 L 165.9 101.7 L 164.6 98.7 L 163.2 95.7 L 161.7 92.8 L 160.55286340713502 90.42378854751587 L 160.5 90.6 L 158.2 97.0 L 155.6 102.9 L 152.8 108.3 L 149.7 113.1 L 146.2 117.2 L 145.46438941955566 117.85608510971069 L 147.1 121.2 L 151.8 129.7 L 156.8 137.5 L 162.0 144.7 L 167.5 151.1 L 173.3 156.9 L 179.3 162.1 L 185.6 166.6 L 188.9 168.9 L 177.9 177.3 L 171.2 171.6 L 164.9 165.2 L 159.0 158.2 L 153.7 150.6 L 148.8 142.4 L 144.4 133.5 L 140.5 124.1 L 138.1 117.04117650985718 L 138.1 183.0 L 126.1 189.0 L 126.1 124.72156858444214 L 121.5 133.2 L 115.9 142.2 L 109.6 150.8 L 102.6 159.0 L 95.0 166.7 L 86.8 174.0 L 77.9 180.6 L 76.7 179.3 L 84.2 171.2 L 91.1 163.1 L 97.5 154.8 L 103.4 146.4 L 108.7 137.7 L 113.3 128.8 L 117.4 119.6 L 120.97230768203735 110.27230768203735 L 118.2 112.8 L 113.7 112.5 L 110.6 109.1 L 110.2 106.8 L 109.6 104.4 L 108.9 101.9 L 108.0 99.3 L 107.0 96.7 L 105.9 94.0 L 104.6 91.1 L 103.2 88.2 L 102.884375 87.56875 L 101.4 92.2 L 98.7 99.6 L 95.6 106.5 L 92.2 113.0 L 88.5 119.1 L 84.4 124.6 L 79.9 129.5 L 78.5 128.4 L 81.2 122.6 L 83.8 116.5 L 86.3 110.2 L 88.6 103.7 L 90.6 96.8 L 92.5 89.6 L 94.1 82.0 L 95.5 74.1 L 96.7 65.8 L 97.6 57.2 L 97.62856760025025 57.20360097885132 L 97.9 55.1 L 109.5 58.7 L 112.3 61.1 L 108.8089937210083 62.58691005706787 L 107.9 67.7 L 106.1 76.2 L 104.08020753860474 83.72831726074219 L 106.5 85.7 L 109.0 88.0 L 111.3 90.3 L 113.5 92.7 L 115.5 95.1 L 117.3 97.6 L 119.0 100.0 L 120.6 102.6 L 122.0 105.2 L 121.79062156677246 107.55550708770753 L 123.9 100.5 L 126.1 91.425 L 126.1 48.0 L 79.9 48.0 L 79.9 44.0 L 126.1 44.0 L 126.1 13.0 L 138.1 15.0 L 141.1 17.0 L 138.1 18.8 L 138.1 44.0 L 163.0 44.0 L 173.0 34.0 L 185.0 44.0 L 185.0 48.0 L 138.1 48.0 L 138.1 101.95581398010253 L 138.2 102.2 L 142.6 112.0 L 143.54290208816528 113.92771081924438 L 145.0 110.4 L 146.8 105.5 L 148.5 100.2 L 150.1 94.4 L 151.6 88.1 L 152.8 81.4 L 154.0 74.2 L 154.9 66.5 L 155.60360288619995 59.20012006759644 L 155.6 59.2 L 155.9 56.2 L 167.6 59.6 L 170.4 62.0 L 166.95232725143433 63.53229904174805 L 166.2 68.1 L 164.5 76.1 L 162.6 83.6 L 161.50874996185303 87.2375 L 162.5 88.0 L 165.2 90.1 L 167.7 92.4 L 170.2 94.9 L 172.6 97.6 L 177.0 103.6 L 179.1 106.9 L 181.1 110.3 L 183.0 113.9 L 182.9 118.5 L 179.6 121.7 L 175.1 121.6 L 171.9 118.4 L 170.8 114.8 Z M 12.2 155.2 L 17.5 153.4 L 23.1 151.5 L 29.0 149.4 L 35.2 147.2 L 39.2 145.78461542129517 L 39.2 76.8 L 13.5 76.8 L 13.5 72.8 L 39.2 72.8 L 39.2 22.9 L 51.2 24.9 L 54.2 26.9 L 51.2 28.7 L 51.2 72.8 L 56.7 72.8 L 66.7 62.8 L 78.7 72.8 L 78.7 76.8 L 51.2 76.8 L 51.2 141.58450708389282 L 55.7 140.0 L 63.2 137.4 L 71.0 134.8 L 79.2 132.2 L 80.0 133.9 L 72.5 138.3 L 65.3 142.3 L 58.3 146.0 L 51.6 149.5 L 45.1 152.7 L 38.8 155.8 L 32.9 158.7 L 27.2 161.4 L 21.8 164.0 L 20.401869201660155 164.6579439163208 L 19.6 168.4 L 16.7 166.4 L 10.4 155.9 Z " />
</g>
</svg>
