<svg xmlns="http://www.w3.org/2000/svg" xmlns:xlink="http://www.w3.org/1999/xlink" version="1.1" baseProfile="full" viewBox="0 0 200 200" width="200" height="200">
<g fill="black">
<path d="M 35.0 24.0 L 77.0 24.0 L 83.0 19.0 L 94.0 28.0 L 89.0 32.0 L 89.0 77.0 L 77.0 83.0 L 77.0 71.0 L 35.0 71.0 L 35.0 183.0 L 23.0 189.0 L 23.0 18.0 Z M 141.0 176.0 L 161.0 176.0 L 162.2 175.9 L 163.1 175.7 L 164.0 175.4 L 164.4 175.0 L 164.7 174.1 L 164.9 173.2 L 165.0 172.0 L 165.0 71.0 L 123.0 71.0 L 123.0 83.0 L 111.0 89.0 L 111.0 18.0 L 123.0 24.0 L 165.0 24.0 L 171.0 19.0 L 182.0 28.0 L 177.0 32.0 L 177.0 172.0 L 176.8 174.5 L 176.4 177.0 L 175.6 179.4 L 174.3 181.7 L 172.7 183.7 L 170.7 185.3 L 168.4 186.6 L 166.0 187.4 L 163.5 187.8 L 161.0 188.0 L 161.0 182.0 L 141.0 179.0 Z M 44.7 162.2 L 49.3 161.8 L 54.0 161.4 L 58.9 160.9 L 64.6 160.34117650985718 L 64.6 143.9 L 46.8 143.9 L 46.8 139.9 L 64.6 139.9 L 64.6 123.3 L 76.6 125.3 L 79.6 127.3 L 76.6 129.1 L 76.6 139.9 L 78.9777777671814 139.9 L 85.2 132.9 L 93.2 139.9 L 93.2 143.9 L 76.6 143.9 L 76.6 159.06000003814697 L 79.9 158.7 L 85.5 158.2 L 91.2 157.8 L 97.2 157.5 L 97.5 159.3 L 92.0 161.5 L 86.6 163.5 L 81.2 165.2 L 75.9 166.7 L 70.7 168.2 L 65.6 169.5 L 60.7 170.8 L 55.8 172.0 L 51.1 173.1 L 50.55408344268799 173.21615247726442 L 48.9 176.8 L 46.4 174.1 L 42.7 162.5 Z M 93.9 166.2 L 117.5 166.2 L 117.5 144.0 L 98.4 144.0 L 98.4 140.0 L 117.5 140.0 L 117.5 122.0 L 129.5 124.0 L 132.5 126.0 L 129.5 127.8 L 129.5 140.0 L 134.2777777671814 140.0 L 140.5 133.0 L 148.5 140.0 L 148.5 144.0 L 129.5 144.0 L 129.5 166.2 L 134.8181818008423 166.2 L 143.0 157.2 L 153.0 166.2 L 153.0 170.2 L 93.9 170.2 Z M 46.3 117.7 L 92.5 117.7 L 92.5 102.6 L 54.2 102.6 L 54.2 98.6 L 92.5 98.6 L 92.5 85.7 L 104.5 87.7 L 107.5 89.7 L 104.5 91.5 L 104.5 98.6 L 124.51818180084229 98.6 L 132.7 89.6 L 142.7 98.6 L 142.7 102.6 L 104.5 102.6 L 104.5 117.7 L 132.4181818008423 117.7 L 140.6 108.7 L 150.6 117.7 L 150.6 121.7 L 46.3 121.7 Z M 123.0 49.0 L 123.0 67.0 L 165.0 67.0 L 165.0 49.0 Z M 35.0 49.0 L 35.0 67.0 L 77.0 67.0 L 77.0 49.0 Z M 123.0 28.0 L 123.0 45.0 L 165.0 45.0 L 165.0 28.0 Z M 35.0 28.0 L 35.0 45.0 L 77.0 45.0 L 77.0 28.0 Z " />
</g>
</svg>
