<svg xmlns="http://www.w3.org/2000/svg" xmlns:xlink="http://www.w3.org/1999/xlink" version="1.1" baseProfile="full" viewBox="0 0 200 200" width="200" height="200">
<g fill="black">
<path d="M 113.7 149.9 L 119.1 148.9 L 125.0 147.9 L 125.3 147.83999996185304 L 125.3 37.0 L 113.6 37.0 L 113.6 33.0 L 168.4 33.0 L 178.4 23.0 L 190.4 33.0 L 190.4 37.0 L 176.7 37.0 L 176.7 137.78181819915773 L 182.1 136.8 L 192.5 135.1 L 193.0 136.8 L 183.0 140.5 L 176.7 142.7117021560669 L 176.7 183.0 L 164.7 189.0 L 164.7 146.76666669845582 L 164.6 146.8 L 156.1 149.5 L 148.2 152.0 L 140.8 154.3 L 133.9 156.4 L 127.5 158.3 L 121.7 160.0 L 120.31019659042359 160.41179361343384 L 118.9 164.1 L 116.3 161.6 L 111.7 150.3 Z M 100.6 145.3 L 102.6 145.3 L 100.6 170.3 L 104.2 172.7 L 106.6 176.3 L 104.2 179.9 L 100.6 182.3 L 45.0 182.3 L 42.4 182.2 L 39.9 181.7 L 37.5 180.9 L 35.3 179.7 L 33.3 178.0 L 31.6 176.0 L 30.4 173.8 L 29.6 171.4 L 29.1 168.9 L 29.0 166.3 L 29.0 98.6 L 41.0 104.6 L 86.0 104.6 L 92.0 99.6 L 103.0 108.6 L 98.0 112.6 L 98.0 142.4 L 86.0 148.4 L 86.0 138.4 L 41.0 138.4 L 41.0 166.3 L 41.1 167.5 L 41.2 168.4 L 41.4 169.0 L 41.7 169.6 L 42.3 169.9 L 42.9 170.1 L 43.8 170.2 L 45.0 170.3 L 94.6 170.3 Z M 137.3 110.0 L 137.3 145.52285718917847 L 138.5 145.3 L 146.1 143.8 L 154.3 142.2 L 162.9 140.4 L 164.7 140.05161294937133 L 164.7 110.0 Z M 41.0 108.6 L 41.0 134.4 L 86.0 134.4 L 86.0 108.6 Z M 97.0 95.7 L 94.6 91.7 L 92.0 87.8 L 89.2 84.1 L 86.2 80.4 L 83.0 76.8 L 79.6 73.3 L 76.1 69.8 L 72.8277777671814 66.7 L 50.70389614105225 66.7 L 56.2 71.3 L 57.4 74.7 L 53.615272235870364 74.37373037338257 L 52.5 75.7 L 48.6 79.9 L 44.6 84.1 L 40.4 88.2 L 36.1 92.1 L 31.6 96.0 L 26.9 99.7 L 22.0 103.2 L 16.9 106.6 L 11.5 109.7 L 10.4 108.2 L 14.5 103.7 L 18.5 99.2 L 22.4 94.8 L 26.3 90.5 L 30.0 86.2 L 33.6 81.8 L 37.1 77.5 L 40.4 73.1 L 43.5 68.6 L 44.79545450210571 66.7 L 8.7 66.7 L 8.7 62.7 L 56.5 62.7 L 56.5 37.7 L 16.8 37.7 L 16.8 33.7 L 56.5 33.7 L 56.5 13.6 L 68.5 15.6 L 71.5 17.6 L 68.5 19.4 L 68.5 33.7 L 86.1 33.7 L 96.1 23.7 L 108.1 33.7 L 108.1 37.7 L 68.5 37.7 L 68.5 62.7 L 94.2 62.7 L 104.2 52.7 L 116.2 62.7 L 116.2 66.7 L 78.2 66.7 L 82.9 69.1 L 87.3 71.9 L 91.4 74.9 L 95.4 78.3 L 99.1 81.9 L 102.7 85.7 L 106.0 89.7 L 109.0 94.0 L 111.9 98.5 L 112.2 103.1 L 109.3 106.6 L 104.8 107.0 L 101.2 104.1 L 99.2 99.8 Z M 137.3 74.0 L 137.3 106.0 L 164.7 106.0 L 164.7 74.0 Z M 137.3 37.0 L 137.3 70.0 L 164.7 70.0 L 164.7 37.0 Z " />
</g>
</svg>
