<svg xmlns="http://www.w3.org/2000/svg" xmlns:xlink="http://www.w3.org/1999/xlink" version="1.1" baseProfile="full" viewBox="0 0 200 200" width="200" height="200">
<g fill="black">
<path d="M 107.0 123.0 L 110.0 125.0 L 107.0 126.8 L 107.0 148.0 L 149.0 148.0 L 159.0 138.0 L 171.0 148.0 L 171.0 152.0 L 107.0 152.0 L 107.0 180.0 L 162.0 180.0 L 172.0 170.0 L 184.0 180.0 L 184.0 184.0 L 19.0 184.0 L 19.0 180.0 L 95.0 180.0 L 95.0 152.0 L 31.0 152.0 L 31.0 148.0 L 95.0 148.0 L 95.0 121.0 Z M 78.9 105.7 L 100.1 105.7 L 101.0 105.5 L 101.6 105.3 L 102.0 105.1 L 102.3 104.8 L 102.5 104.5 L 102.7 103.9 L 102.8 103.0 L 102.9 101.7 L 102.9 68.11142854690551 L 97.1 73.0 L 89.6 78.6 L 81.7 83.9 L 73.3 88.9 L 64.5 93.7 L 55.1 98.1 L 45.3 102.2 L 35.0 105.8 L 24.1 109.0 L 23.5 107.4 L 33.5 102.3 L 43.1 97.3 L 52.2 92.2 L 60.8 87.1 L 68.9 81.7 L 76.4 76.3 L 83.5 70.6 L 90.1 64.9 L 96.2 58.9 L 25.6 58.9 L 25.6 54.9 L 108.2 54.9 L 105.5 52.4 L 102.6 50.0 L 99.3 47.6 L 95.6 45.3 L 91.6 42.9 L 87.3 40.6 L 82.7 38.2 L 77.8 35.9 L 72.6 33.4 L 67.1 30.9 L 67.5 29.1 L 73.7 29.8 L 79.5 30.8 L 85.0 32.1 L 90.2 33.6 L 95.1 35.2 L 99.8 37.0 L 104.2 38.9 L 107.70790195465088 40.69673023223877 L 109.4 39.6 L 114.6 36.4 L 119.5 33.4 L 124.1 30.6 L 128.4 27.9 L 132.4 25.3 L 135.95200004577637 22.9 L 41.9 22.9 L 41.9 18.9 L 141.5217391014099 18.9 L 142.6 18.1 L 145.3 15.9 L 145.6640256881714 16.429978561401366 L 148.7 13.9 L 159.7 22.9 L 154.7 25.9 L 142.7 30.9 L 142.7 30.739999961853027 L 141.1 31.5 L 136.9 33.5 L 132.3 35.4 L 127.5 37.4 L 122.3 39.3 L 116.8 41.3 L 111.62864999771118 42.87770004272461 L 112.2 43.2 L 115.8 45.6 L 117.9 49.7 L 116.6 54.1 L 115.07619047164917 54.9 L 162.9840000152588 54.9 L 163.2 54.7 L 165.7 52.2 L 166.12132196426393 52.715565013885495 L 169.5 49.9 L 180.5 58.9 L 175.5 61.9 L 167.67073173522948 65.16219511032105 L 166.8 65.7 L 163.3 67.9 L 159.5 70.0 L 155.5 72.1 L 151.3 74.3 L 146.8 76.4 L 142.1 78.5 L 137.1 80.5 L 131.9 82.4 L 131.1 80.9 L 135.4 77.4 L 139.6 74.1 L 143.6 71.0 L 147.4 68.1 L 151.0 65.2 L 154.4 62.4 L 157.5 59.8 L 158.5384614944458 58.9 L 114.9 58.9 L 114.9 101.7 L 114.7 104.3 L 114.3 106.8 L 113.5 109.2 L 112.3 111.5 L 110.6 113.5 L 108.6 115.1 L 106.3 116.4 L 103.9 117.2 L 101.4 117.6 L 98.9 117.7 L 98.9 111.7 L 78.9 108.7 Z " />
</g>
</svg>
