<svg xmlns="http://www.w3.org/2000/svg" xmlns:xlink="http://www.w3.org/1999/xlink" version="1.1" baseProfile="full" viewBox="0 0 200 200" width="200" height="200">
<g fill="black">
<path d="M 14.0 178.6 L 94.0 178.6 L 94.0 158.9 L 27.0 158.9 L 27.0 154.9 L 94.0 154.9 L 94.0 138.7 L 106.0 140.7 L 109.0 142.7 L 106.0 144.5 L 106.0 154.9 L 151.0 154.9 L 161.0 144.9 L 173.0 154.9 L 173.0 158.9 L 106.0 158.9 L 106.0 178.6 L 164.0 178.6 L 174.0 168.6 L 186.0 178.6 L 186.0 182.6 L 14.0 182.6 Z M 116.3 121.2 L 131.5 121.2 L 132.4 121.0 L 133.3 120.7 L 133.7 120.3 L 134.0 119.4 L 134.2 118.5 L 134.3 117.2 L 134.3 85.4 L 80.0 85.4 L 80.0 133.7 L 68.0 139.7 L 68.0 75.4 L 80.0 81.4 L 134.3 81.4 L 140.3 76.4 L 151.3 85.4 L 146.3 89.4 L 146.3 117.2 L 146.1 119.8 L 145.7 122.3 L 144.9 124.7 L 143.6 127.0 L 142.0 129.0 L 140.0 130.6 L 137.7 131.9 L 135.3 132.7 L 132.8 133.1 L 130.3 133.2 L 130.3 127.2 L 116.3 124.2 Z M 44.0 23.5 L 156.0 23.5 L 162.0 18.5 L 173.0 27.5 L 168.0 31.5 L 168.0 72.1 L 156.0 78.1 L 156.0 27.5 L 44.0 27.5 L 44.0 72.1 L 32.0 78.1 L 32.0 17.5 Z M 140.0 61.1 L 140.0 65.1 L 60.0 65.1 L 60.0 61.1 L 121.81818180084228 61.1 L 130.0 52.1 Z M 140.0 42.3 L 140.0 46.3 L 60.0 46.3 L 60.0 42.3 L 121.81818180084228 42.3 L 130.0 33.3 Z " />
</g>
</svg>
