<svg xmlns="http://www.w3.org/2000/svg" xmlns:xlink="http://www.w3.org/1999/xlink" version="1.1" baseProfile="full" viewBox="0 0 200 200" width="200" height="200">
<g fill="black">
<path d="M 14.0 173.4 L 94.0 173.4 L 94.0 143.3 L 27.0 143.3 L 27.0 139.3 L 94.0 139.3 L 94.0 115.4 L 106.0 117.4 L 109.0 119.4 L 106.0 121.2 L 106.0 139.3 L 151.0 139.3 L 161.0 129.3 L 173.0 139.3 L 173.0 143.3 L 106.0 143.3 L 106.0 173.4 L 164.0 173.4 L 174.0 163.4 L 186.0 173.4 L 186.0 177.4 L 14.0 177.4 Z M 58.35202159881592 22.881850814819337 L 62.1 27.0 L 62.3 30.6 L 58.35138120651245 28.90773477554321 L 55.6 30.1 L 52.3 31.4 L 48.8 32.6 L 45.1 33.8 L 41.0 34.9 L 36.7 36.0 L 32.2 37.0 L 29.951620960235594 37.3670823097229 L 31.082191753387452 58.0 L 45.7777777671814 58.0 L 52.0 51.0 L 60.0 58.0 L 60.0 62.0 L 31.301369857788085 62.0 L 32.56164379119873 85.0 L 45.7777777671814 85.0 L 52.0 78.0 L 60.0 85.0 L 60.0 89.0 L 32.78082189559937 89.0 L 33.8 107.6 L 22.1 114.3 L 17.5 29.3 L 28.17220048904419 33.89859046936035 L 30.6 32.6 L 34.7 30.4 L 38.4 28.4 L 41.9 26.4 L 45.1 24.5 L 48.0 22.7 L 50.6 20.9 L 52.9 19.2 L 54.05348224639893 18.167936897277833 L 54.0 18.1 L 54.05808343887329 18.16382007598877 L 54.8 17.5 Z M 187.0 35.0 L 182.0 38.0 L 180.8247633934021 38.48968191146851 L 178.1 108.3 L 165.8 113.6 L 167.05136480331421 89.0 L 140.0 89.0 L 140.0 85.0 L 167.2548387527466 85.0 L 168.42481393814086 62.0 L 140.0 62.0 L 140.0 58.0 L 168.62828788757324 58.0 L 169.79826307296753 35.0 L 140.0 35.0 L 140.0 31.0 L 170.0 31.0 L 176.0 26.0 Z M 109.9 103.0 L 121.5 103.0 L 122.1 102.9 L 122.6 102.8 L 122.8 102.7 L 122.9 102.6 L 123.1 102.5 L 123.3 102.1 L 123.5 101.5 L 123.7 100.6 L 123.9 99.4 L 124.0 98.0 L 124.0 25.0 L 78.5 25.0 L 78.5 105.2 L 67.5 110.7 L 67.5 15.5 L 78.5 21.0 L 124.0 21.0 L 129.0 16.0 L 139.0 25.0 L 134.0 28.0 L 134.0 98.0 L 133.9 100.3 L 133.6 102.5 L 133.0 104.6 L 132.2 106.6 L 131.1 108.5 L 129.6 110.1 L 127.8 111.4 L 125.7 112.3 L 123.6 112.8 L 121.5 113.0 L 121.5 108.0 L 109.9 105.5 Z M 121.5 60.0 L 116.5 62.5 L 116.5 89.0 L 107.5 93.5 L 107.5 85.0 L 96.0 85.0 L 96.0 92.0 L 86.0 97.0 L 86.0 51.0 L 96.0 56.0 L 107.5 56.0 L 112.0 51.0 Z M 96.0 60.0 L 96.0 81.0 L 107.5 81.0 L 107.5 60.0 Z M 122.0 38.0 L 122.0 42.0 L 81.0 42.0 L 81.0 38.0 L 103.81818180084228 38.0 L 112.0 29.0 Z " />
</g>
</svg>
