<svg xmlns="http://www.w3.org/2000/svg" xmlns:xlink="http://www.w3.org/1999/xlink" version="1.1" baseProfile="full" viewBox="0 0 200 200" width="200" height="200">
<g fill="black">
<path d="M 14.0 178.9 L 94.0 178.9 L 94.0 153.2 L 27.0 153.2 L 27.0 149.2 L 94.0 149.2 L 94.0 128.6 L 106.0 130.6 L 109.0 132.6 L 106.0 134.4 L 106.0 149.2 L 151.0 149.2 L 161.0 139.2 L 173.0 149.2 L 173.0 153.2 L 106.0 153.2 L 106.0 178.9 L 164.0 178.9 L 174.0 168.9 L 186.0 178.9 L 186.0 182.9 L 14.0 182.9 Z M 129.6 125.1 L 141.6 125.1 L 142.9 125.0 L 143.8 124.9 L 144.4 124.7 L 144.7 124.5 L 145.0 124.2 L 145.2 123.8 L 145.4 123.2 L 145.6 122.3 L 145.6 107.0 L 54.3 107.0 L 54.3 129.8 L 42.3 135.8 L 42.3 107.0 L 12.3 107.0 L 12.3 103.0 L 42.3 103.0 L 42.3 86.5 L 12.3 86.5 L 12.3 82.5 L 42.3 82.5 L 42.3 57.1 L 54.3 63.1 L 145.6 63.1 L 151.6 58.1 L 162.6 67.1 L 157.6 71.1 L 157.6 82.5 L 169.61818180084228 82.5 L 177.8 73.5 L 187.8 82.5 L 187.8 86.5 L 157.6 86.5 L 157.6 103.0 L 165.8 103.0 L 175.8 93.0 L 187.8 103.0 L 187.8 107.0 L 157.6 107.0 L 157.6 121.1 L 157.5 123.7 L 157.1 126.1 L 156.2 128.6 L 155.0 130.8 L 153.4 132.8 L 151.4 134.5 L 149.1 135.7 L 146.7 136.5 L 144.2 137.0 L 141.6 137.1 L 141.6 131.1 L 129.6 128.1 Z M 54.3 86.5 L 54.3 103.0 L 145.6 103.0 L 145.6 86.5 Z M 54.3 67.1 L 54.3 82.5 L 145.6 82.5 L 145.6 67.1 Z M 60.0 21.0 L 140.0 21.0 L 146.0 16.0 L 157.0 25.0 L 152.0 29.0 L 152.0 52.1 L 140.0 58.1 L 140.0 52.1 L 60.0 52.1 L 48.0 58.1 L 48.0 15.0 Z M 60.0 25.0 L 60.0 48.1 L 140.0 48.1 L 140.0 25.0 Z " />
</g>
</svg>
