<svg xmlns="http://www.w3.org/2000/svg" xmlns:xlink="http://www.w3.org/1999/xlink" version="1.1" baseProfile="full" viewBox="0 0 200 200" width="200" height="200">
<g fill="black">
<path d="M 16.0 177.0 L 92.0 177.0 L 92.0 150.0 L 42.0 150.0 L 42.0 146.0 L 92.0 146.0 L 92.0 125.0 L 104.0 127.0 L 107.0 129.0 L 104.0 130.8 L 104.0 146.0 L 130.0 146.0 L 140.0 136.0 L 152.0 146.0 L 152.0 150.0 L 104.0 150.0 L 104.0 177.0 L 159.0 177.0 L 169.0 167.0 L 181.0 177.0 L 181.0 181.0 L 16.0 181.0 Z M 71.2 86.1 L 69.7 88.2 L 68.0 90.0 L 66.1 91.5 L 64.0 92.8 L 61.7 93.8 L 59.3 94.5 L 56.9 94.9 L 54.3 95.0 L 54.3 89.0 L 44.3 86.0 L 44.3 83.0 L 54.3 83.0 L 55.7 82.9 L 56.8 82.8 L 57.7 82.5 L 58.5 82.2 L 59.2 81.7 L 59.8 81.2 L 60.4 80.6 L 61.0 79.8 L 61.5 78.8 L 62.0 77.6 L 62.7 76.3 L 63.1 74.9 L 63.2 73.2 L 62.7 71.1 L 61.7 68.6 L 60.1 65.8 L 57.8 62.7 L 54.9 59.4 L 51.4 55.9 L 47.1 52.5 L 47.21999998092652 52.31999998092651 L 46.1 51.2 L 49.1 47.4 L 51.7 43.6 L 54.1 40.0 L 56.4 36.6 L 58.5 33.3 L 60.4 30.1 L 62.1 27.1 L 63.6 24.2 L 63.85714282989502 23.6 L 35.2 23.6 L 35.2 118.1 L 23.2 124.1 L 23.2 13.6 L 35.2 19.6 L 65.2 19.6 L 65.63018865585327 19.241509437561035 L 65.8 18.8 L 66.02265892028808 18.91445083618164 L 71.2 14.6 L 82.2 23.6 L 77.2 26.6 L 73.91858406066895 27.96725664138794 L 72.4 29.9 L 70.1 32.7 L 67.5 35.5 L 64.7 38.3 L 61.8 41.1 L 58.5 43.9 L 55.1 46.8 L 51.3 49.6 L 48.86870632171631 51.407884979248045 L 53.0 53.6 L 57.6 56.0 L 61.6 58.5 L 65.1 61.2 L 68.0 64.0 L 70.5 67.0 L 72.3 70.3 L 73.5 73.9 L 73.8 77.7 L 73.3 81.6 L 72.4 83.9 Z M 176.5 83.8 L 178.5 83.8 L 176.5 108.8 L 180.1 111.2 L 182.5 114.8 L 180.1 118.4 L 176.5 120.8 L 113.3 120.8 L 110.8 120.7 L 108.3 120.3 L 105.9 119.4 L 103.6 118.2 L 101.6 116.6 L 99.9 114.6 L 98.7 112.3 L 97.9 109.9 L 97.5 107.4 L 97.3 104.8 L 97.3 43.9 L 109.3 45.9 L 112.3 47.9 L 109.3 49.7 L 109.3 75.93384618759156 L 109.6 75.8 L 116.0 73.2 L 122.3 70.8 L 128.5 68.4 L 134.5 66.1 L 140.5 63.9 L 146.3 61.7 L 151.9 59.5 L 157.5 57.4 L 161.93290491104125 55.676092529296874 L 161.9 55.6 L 161.97172183990477 55.66099710464478 L 162.9 55.3 L 163.43521738052368 56.905652141571046 L 172.6 64.7 L 172.8 67.8 L 168.73955268859862 66.00862617492676 L 166.7 66.7 L 161.0 68.2 L 155.2 69.7 L 149.3 71.3 L 143.2 72.8 L 137.0 74.2 L 130.6 75.7 L 124.1 77.1 L 117.4 78.4 L 110.6 79.5 L 109.3 79.66714286804199 L 109.3 104.8 L 109.4 106.1 L 109.5 107.0 L 109.7 107.6 L 109.9 107.9 L 110.1 108.1 L 110.3 108.2 L 110.6 108.4 L 111.2 108.6 L 112.1 108.8 L 170.5 108.8 Z M 74.4 52.4 L 73.6 47.9 L 76.2 44.1 L 77.0 44.1 L 77.9 43.7 L 79.0 42.9 L 80.1 41.7 L 81.1 40.1 L 82.2 38.1 L 83.1 35.7 L 84.0 32.9 L 84.9 29.8 L 85.1 26.3 L 86.9 26.2 L 87.2 29.8 L 87.47575759887695 31.1 L 121.7 31.1 L 121.7 13.6 L 133.7 15.6 L 136.7 17.6 L 133.7 19.4 L 133.7 31.1 L 167.6 31.1 L 168.40625 30.428125 L 168.5 30.1 L 168.67657146453857 30.202857112884523 L 173.6 26.1 L 184.6 35.1 L 179.6 38.1 L 174.2473684310913 40.33026313781738 L 173.3 41.1 L 171.7 42.5 L 170.0 43.9 L 168.2 45.4 L 166.2 46.9 L 164.1 48.4 L 162.3 50.3 L 160.9 49.2 L 162.3 47.0 L 163.3 44.6 L 164.2 42.4 L 165.1 40.3 L 165.9 38.3 L 166.6 36.4 L 167.0333333015442 35.1 L 88.0875 35.1 L 88.2 36.3 L 88.3 39.3 L 88.2 42.1 L 87.8 44.8 L 87.1 47.4 L 86.1 49.9 L 84.6 52.2 L 82.7 54.2 L 78.2 55.0 Z " />
</g>
</svg>
