<svg xmlns="http://www.w3.org/2000/svg" xmlns:xlink="http://www.w3.org/1999/xlink" version="1.1" baseProfile="full" viewBox="0 0 200 200" width="200" height="200">
<g fill="black">
<path d="M 76.1 77.7 L 77.5 81.0 L 73.85201139450074 80.93710365295411 L 71.1 84.9 L 65.8 91.9 L 60.4 98.7 L 54.7 105.3 L 54.4 105.625 L 54.4 181.9 L 42.4 187.9 L 42.4 118.19230766296387 L 36.0 124.1 L 29.3 130.0 L 22.2 135.5 L 14.8 140.7 L 13.6 139.3 L 19.7 132.7 L 25.6 126.1 L 31.3 119.5 L 36.9 112.9 L 42.3 106.2 L 42.4 106.07115383148194 L 42.4 104.9 L 43.30895519256592 104.9 L 47.5 99.5 L 52.4 92.6 L 57.1 85.6 L 61.6 78.6 L 65.39371852874756 72.24772701263427 L 65.3 72.2 L 66.4 70.5 Z M 66.1 175.7 L 119.9 175.7 L 119.9 120.6 L 74.4 120.6 L 74.4 116.6 L 119.9 116.6 L 119.9 74.0 L 131.9 76.0 L 134.9 78.0 L 131.9 79.8 L 131.9 116.6 L 159.5 116.6 L 169.5 106.6 L 181.5 116.6 L 181.5 120.6 L 131.9 120.6 L 131.9 175.7 L 163.6 175.7 L 173.6 165.7 L 185.6 175.7 L 185.6 179.7 L 66.1 179.7 Z M 158.6 66.4 L 149.9 61.8 L 141.5 56.8 L 133.3 51.2 L 125.5 45.3 L 118.0 38.9 L 110.9 32.0 L 104.2 24.5 L 102.10175151824951 21.792582702636718 L 98.7 25.7 L 90.9 33.7 L 82.5 41.2 L 73.8 48.2 L 64.5 54.6 L 54.8 60.5 L 44.6 65.9 L 34.0 70.7 L 22.9 74.9 L 11.3 78.4 L 10.6 76.7 L 21.4 71.4 L 31.6 65.9 L 41.4 60.2 L 50.8 54.1 L 59.6 47.7 L 67.9 40.9 L 75.8 33.7 L 83.2 26.2 L 90.1 18.2 L 96.275 10.314999961853028 L 97.0 9.3 L 106.1 17.2 L 107.2 20.6 L 105.74714756011963 20.424655723571778 L 107.1 21.5 L 114.8 27.6 L 122.5 33.2 L 130.4 38.5 L 138.4 43.4 L 146.6 47.9 L 154.9 52.0 L 163.4 55.6 L 172.1 58.9 L 181.0 61.7 L 188.5 64.1 L 176.9 74.2 L 167.6 70.5 Z M 133.0 58.8 L 133.0 62.8 L 64.0 62.8 L 64.0 58.8 L 111.0 58.8 L 121.0 48.8 Z " />
</g>
</svg>
