<svg xmlns="http://www.w3.org/2000/svg" xmlns:xlink="http://www.w3.org/1999/xlink" version="1.1" baseProfile="full" viewBox="0 0 200 200" width="200" height="200">
<g fill="black">
<path d="M 14.0 179.5 L 94.0 179.5 L 94.0 131.1 L 27.0 131.1 L 27.0 127.1 L 94.0 127.1 L 94.0 90.1 L 106.0 92.1 L 109.0 94.1 L 106.0 95.9 L 106.0 127.1 L 151.0 127.1 L 161.0 117.1 L 173.0 127.1 L 173.0 131.1 L 106.0 131.1 L 106.0 179.5 L 164.0 179.5 L 174.0 169.5 L 186.0 179.5 L 186.0 183.5 L 14.0 183.5 Z M 44.0 98.3 L 32.0 104.3 L 32.0 33.6 L 44.0 35.6 L 47.0 37.6 L 44.0 39.4 L 44.0 82.3 L 94.0 82.3 L 94.0 15.7 L 106.0 17.7 L 109.0 19.7 L 106.0 21.5 L 106.0 82.3 L 155.0 82.3 L 155.0 33.6 L 167.0 35.6 L 170.0 37.6 L 167.0 39.4 L 167.0 92.3 L 155.0 98.3 L 155.0 86.3 L 44.0 86.3 Z " />
</g>
</svg>
