<svg xmlns="http://www.w3.org/2000/svg" xmlns:xlink="http://www.w3.org/1999/xlink" version="1.1" baseProfile="full" viewBox="0 0 200 200" width="200" height="200">
<g fill="black">
<path d="M 100.9 182.1 L 88.9 188.1 L 88.9 102.26578950881958 L 86.6 106.2 L 82.4 112.7 L 77.9 119.0 L 73.0 125.1 L 71.5 124.1 L 74.6 117.0 L 77.7 110.1 L 80.7 103.2 L 83.6 96.4 L 86.3 89.6 L 88.8 82.9 L 88.9 82.60869569778443 L 88.9 79.6 L 89.78152866363526 80.04076433181763 L 91.1 76.2 L 93.2 69.6 L 95.1 63.0 L 96.5439980506897 57.308948802947995 L 96.5 57.3 L 96.76382980346679 56.442553234100345 L 96.8 56.3 L 96.80705089569092 56.302084636688235 L 97.3 54.7 L 104.8 58.109090900421144 L 104.8 36.7 L 71.6 36.7 L 71.6 32.7 L 104.8 32.7 L 104.8 11.9 L 116.8 13.9 L 119.8 15.9 L 116.8 17.7 L 116.8 32.7 L 142.1 32.7 L 142.1 11.9 L 154.1 13.9 L 157.1 15.9 L 154.1 17.7 L 154.1 32.7 L 165.3 32.7 L 175.3 22.7 L 187.3 32.7 L 187.3 36.7 L 154.1 36.7 L 154.1 52.7 L 142.1 58.7 L 142.1 36.7 L 116.8 36.7 L 116.8 52.7 L 105.41904764175415 58.39047622680664 L 108.3 59.7 L 110.7 62.4 L 106.98239374160767 63.37831745147705 L 105.9 66.4 L 103.3 73.2 L 100.4 79.9 L 98.32699384689332 84.31349697113038 L 100.9 85.6 L 127.87600002288818 85.6 L 128.2 84.7 L 128.7 82.0 L 129.3 79.3 L 130.0 76.6 L 130.8 73.8 L 131.5 71.0 L 132.3 68.2 L 133.2 65.3 L 134.0 62.4 L 134.61789979934693 60.3403341293335 L 134.5 60.3 L 135.4 58.2 L 145.9 64.2 L 147.8 67.2 L 143.66434783935546 67.77043476104737 L 142.6 69.5 L 140.9 72.1 L 139.3 74.6 L 137.6 77.1 L 135.9 79.4 L 134.1 81.7 L 132.3 83.9 L 130.7699999809265 85.6 L 159.3 85.6 L 169.3 75.6 L 181.3 85.6 L 181.3 89.6 L 138.8 89.6 L 138.8 113.7 L 151.3 113.7 L 161.3 103.7 L 173.3 113.7 L 173.3 117.7 L 138.8 117.7 L 138.8 143.0 L 151.3 143.0 L 161.3 133.0 L 173.3 143.0 L 173.3 147.0 L 138.8 147.0 L 138.8 171.1 L 166.0 171.1 L 176.0 161.1 L 188.0 171.1 L 188.0 175.1 L 100.9 175.1 Z M 100.9 147.0 L 100.9 171.1 L 126.8 171.1 L 126.8 147.0 Z M 12.8 150.9 L 18.1 149.4 L 23.7 147.7 L 29.6 145.8 L 40.0 142.3333333015442 L 40.0 72.0 L 13.8 72.0 L 13.8 68.0 L 40.0 68.0 L 40.0 17.0 L 52.0 19.0 L 55.0 21.0 L 52.0 22.8 L 52.0 68.0 L 58.0 68.0 L 68.0 58.0 L 80.0 68.0 L 80.0 72.0 L 52.0 72.0 L 52.0 138.06111106872558 L 56.6 136.4 L 64.2 133.7 L 72.2 130.9 L 80.5 128.1 L 81.3 129.8 L 73.8 134.4 L 66.4 138.6 L 59.3 142.4 L 52.4 146.0 L 45.8 149.3 L 39.4 152.3 L 33.3 155.2 L 27.5 157.8 L 21.9 160.2 L 20.474382400512695 160.76486730575562 L 19.5 164.5 L 16.6 162.3 L 10.9 151.6 Z M 100.9 117.7 L 100.9 143.0 L 126.8 143.0 L 126.8 117.7 Z M 100.9 89.6 L 100.9 113.7 L 126.8 113.7 L 126.8 89.6 Z " />
</g>
</svg>
