<svg xmlns="http://www.w3.org/2000/svg" xmlns:xlink="http://www.w3.org/1999/xlink" version="1.1" baseProfile="full" viewBox="0 0 200 200" width="200" height="200">
<g fill="black">
<path d="M 18.0 179.0 L 94.0 179.0 L 94.0 152.0 L 33.0 152.0 L 33.0 148.0 L 94.0 148.0 L 94.0 125.0 L 106.0 127.0 L 109.0 129.0 L 106.0 130.8 L 106.0 148.0 L 145.0 148.0 L 155.0 138.0 L 167.0 148.0 L 167.0 152.0 L 106.0 152.0 L 106.0 179.0 L 160.0 179.0 L 170.0 169.0 L 182.0 179.0 L 182.0 183.0 L 18.0 183.0 Z M 139.5 126.3 L 124.8 122.4 L 111.4 118.0 L 102.70627717971801 114.34717531204224 L 101.7 114.8 L 88.5 119.7 L 74.1 123.9 L 58.6 127.6 L 41.9 130.6 L 24.1 132.8 L 23.8 131.1 L 41.2 126.9 L 57.3 122.4 L 72.2 117.6 L 85.8 112.5 L 92.82574920654297 109.44039955139161 L 89.0 107.4 L 79.9 101.2 L 72.4 94.5 L 66.6 87.1 L 63.05 80.0 L 50.0 80.0 L 50.0 76.0 L 139.77123289108278 76.0 L 141.3 74.2 L 141.73704919815063 74.55245904922485 L 146.0 71.0 L 157.0 80.0 L 152.0 83.0 L 147.70657444000244 84.78892736434936 L 143.2 89.6 L 134.5 96.8 L 124.7 103.4 L 115.37894735336303 108.48421049118042 L 127.6 111.8 L 141.9 114.8 L 157.7 117.3 L 174.8 119.4 L 185.0 120.7 L 173.1 132.5 L 155.6 129.7 Z M 65.69508199691772 80.0 L 69.9 84.5 L 76.4 90.1 L 84.1 95.3 L 93.0 100.0 L 103.2 104.4 L 103.27630233764648 104.42587642669677 L 109.4 101.2 L 119.2 95.0 L 127.8 88.4 L 135.1 81.5 L 136.37397260665892 80.0 Z M 162.4 79.6 L 158.3 75.3 L 153.9 71.0 L 149.1 66.6 L 144.0 62.2 L 138.5 57.8 L 132.7 53.3 L 126.7 48.6 L 120.4 43.7 L 121.3 42.2 L 128.7 45.3 L 135.6 48.7 L 142.2 52.3 L 148.4 56.1 L 154.3 59.9 L 159.8 63.8 L 165.0 67.8 L 169.9 71.9 L 174.4 76.0 L 178.6 80.3 L 179.9 84.6 L 177.9 88.7 L 173.5 90.1 L 169.4 88.1 L 166.1 83.8 Z M 78.3 47.7 L 79.6 51.1 L 75.71276597976684 50.8319149017334 L 74.5 52.3 L 70.2 56.8 L 65.4 61.2 L 60.2 65.5 L 54.5 69.8 L 48.3 74.0 L 41.6 78.2 L 34.4 82.2 L 26.7 86.1 L 18.4 89.7 L 17.5 88.2 L 31.5 77.7 L 37.9 72.8 L 43.8 68.0 L 49.1 63.2 L 54.0 58.6 L 58.4 54.0 L 62.3 49.5 L 65.6 45.1 L 67.98823528289795 41.55882349014282 L 68.9 40.1 Z M 15.0 28.6 L 94.0 28.6 L 94.0 7.2 L 106.0 9.2 L 109.0 11.2 L 106.0 13.0 L 106.0 28.6 L 163.0 28.6 L 173.0 18.6 L 185.0 28.6 L 185.0 32.6 L 15.0 32.6 Z " />
</g>
</svg>
