<svg xmlns="http://www.w3.org/2000/svg" xmlns:xlink="http://www.w3.org/1999/xlink" version="1.1" baseProfile="full" viewBox="0 0 200 200" width="200" height="200">
<g fill="black">
<path d="M 61.5 176.5 L 73.5 176.5 L 74.7 176.4 L 75.6 176.2 L 76.5 175.9 L 76.9 175.5 L 77.1 175.2 L 77.2 174.6 L 77.4 173.7 L 77.5 172.5 L 77.5 143.0 L 33.4 143.0 L 33.4 181.6 L 21.4 187.6 L 21.4 94.7 L 33.4 100.7 L 77.5 100.7 L 83.5 95.7 L 94.5 104.7 L 89.5 108.7 L 89.5 172.5 L 89.3 175.0 L 88.9 177.5 L 88.1 179.9 L 86.9 182.2 L 85.2 184.2 L 83.2 185.8 L 80.9 187.1 L 78.5 187.9 L 76.0 188.3 L 73.5 188.5 L 73.5 182.5 L 61.5 179.5 Z M 172.6 176.8 L 168.9 168.0 L 166.1 156.6 L 164.0 142.4 L 162.5 125.3 L 161.6 105.2 L 161.3 82.0 L 161.5 55.9 L 162.23698625564575 29.0 L 99.5 29.0 L 99.5 25.0 L 162.3 25.0 L 168.3 20.0 L 179.3 29.0 L 174.3 32.0 L 174.16557760238646 32.05600929260254 L 173.5 56.1 L 173.3 82.0 L 173.6 104.8 L 174.5 124.5 L 175.9 141.0 L 177.9 154.3 L 180.4 164.4 L 181.71538457870483 167.5666666984558 L 186.0 149.0 L 188.0 149.0 L 186.07446804046631 174.0319149017334 L 190.2 175.8 L 192.0 180.0 L 190.2 184.2 L 186.0 186.0 L 178.0 183.2 Z M 136.13982582092285 41.836104488372804 L 135.8 63.5 L 135.454017829895 79.0 L 139.01818180084229 79.0 L 147.2 70.0 L 157.2 79.0 L 157.2 83.0 L 135.364732170105 83.0 L 135.3 85.9 L 134.3 105.3 L 132.8 122.2 L 132.25714282989503 126.0 L 141.8181818008423 126.0 L 150.0 117.0 L 160.0 126.0 L 160.0 130.0 L 131.68571424484253 130.0 L 130.7 136.9 L 127.6 149.6 L 123.6 160.6 L 118.4 170.1 L 111.8 178.4 L 103.9 185.6 L 102.6 184.3 L 108.8 176.0 L 113.7 167.5 L 117.5 158.2 L 120.3 147.7 L 122.3 135.5 L 122.80709218978882 130.0 L 99.5 130.0 L 99.5 126.0 L 123.17588653564454 126.0 L 123.6 121.4 L 124.3 104.9 L 124.5 85.7 L 124.5 83.0 L 102.3 83.0 L 102.3 79.0 L 124.5 79.0 L 124.5 63.5 L 124.21175317764282 38.99902057647705 L 124.2 39.0 L 124.2 35.6 L 136.2 38.0 L 139.2 40.0 Z M 33.4 104.7 L 33.4 139.0 L 77.5 139.0 L 77.5 104.7 Z M 11.2 80.7 L 49.5 80.7 L 49.5 44.2 L 17.9 44.2 L 17.9 40.2 L 49.5 40.2 L 49.5 11.8 L 61.5 13.8 L 64.5 15.8 L 61.5 17.6 L 61.5 40.2 L 71.0 40.2 L 81.0 30.2 L 93.0 40.2 L 93.0 44.2 L 61.5 44.2 L 61.5 80.7 L 77.7 80.7 L 87.7 70.7 L 99.7 80.7 L 99.7 84.7 L 11.2 84.7 Z " />
</g>
</svg>
