<svg xmlns="http://www.w3.org/2000/svg" xmlns:xlink="http://www.w3.org/1999/xlink" version="1.1" baseProfile="full" viewBox="0 0 200 200" width="200" height="200">
<g fill="black">
<path d="M 149.7 181.0 L 138.5 177.3 L 127.7 173.0 L 117.3 168.1 L 107.3 162.7 L 105.40465602874755 161.49566688537598 L 100.4 164.3 L 88.2 170.1 L 75.5 175.2 L 62.2 179.6 L 48.5 183.2 L 34.2 186.0 L 19.3 187.9 L 19.0 186.1 L 33.3 182.3 L 47.0 178.1 L 60.1 173.4 L 72.6 168.2 L 84.6 162.5 L 95.9 156.2 L 96.56994352340698 155.76798038482667 L 88.6 149.9 L 80.0 142.6 L 74.47504568099976 137.0059838294983 L 70.4 140.1 L 64.8 144.0 L 58.8 147.7 L 52.6 151.2 L 46.0 154.3 L 39.1 157.2 L 31.8 159.6 L 31.0 158.0 L 37.3 153.8 L 43.4 149.7 L 49.1 145.6 L 54.6 141.4 L 59.7 137.2 L 64.5 132.9 L 69.0 128.6 L 73.2 124.1 L 77.1 119.5 L 80.00283889770508 115.60190210342407 L 80.0 115.6 L 80.13333330154418 115.42666664123536 L 80.6 114.8 L 80.60953350067139 114.80760650634765 L 81.0 114.3 L 90.0 122.3 L 91.1 125.7 L 87.30336351394654 125.24178524017334 L 85.6 127.1 L 84.96000003814697 127.7 L 132.8930233001709 127.7 L 135.3 125.4 L 135.72802543640137 125.8433120727539 L 139.5 122.7 L 150.5 131.7 L 145.5 134.7 L 140.65488719940186 136.7187970161438 L 133.7 142.7 L 123.1 150.6 L 113.99879732131959 156.50348281860352 L 121.2 159.6 L 131.4 163.5 L 142.0 166.8 L 152.8 169.6 L 163.9 171.9 L 175.3 173.7 L 185.1 175.2 L 173.2 186.7 L 161.3 184.2 Z M 80.68636360168458 131.7 L 76.55431032180786 135.33620691299438 L 82.5 139.3 L 91.9 145.1 L 101.4 150.4 L 103.36816329956055 151.38408164978028 L 106.6 149.3 L 116.8 141.9 L 126.3 134.0 L 128.7069766998291 131.7 Z M 170.0 85.0 L 172.0 85.0 L 170.0 102.0 L 173.0 104.0 L 175.0 107.0 L 173.0 110.0 L 170.0 112.0 L 58.5 112.0 L 56.1 111.7 L 53.8 111.0 L 51.6 109.9 L 49.6 108.4 L 47.9 106.5 L 46.6 104.4 L 45.7 102.0 L 45.2 99.6 L 45.0 97.0 L 45.0 69.0 L 40.0 71.5 L 40.0 20.2 L 52.0 26.2 L 77.0 26.2 L 77.5 25.8 L 79.2 23.8 L 82.4 20.2 L 83.9 18.5 L 85.4 16.9 L 86.8 15.3 L 88.1 13.7 L 89.3 12.2 L 89.76207990646363 11.569890975952148 L 89.6 11.4 L 90.26724138259888 10.881034469604492 L 90.4 10.7 L 90.43829317092896 10.747994136810302 L 90.5 10.7 L 97.9 20.1 L 98.2 23.7 L 93.7865385055542 22.065384578704833 L 92.2 22.7 L 90.2 23.6 L 88.1 24.5 L 85.9 25.3 L 83.6 26.2 L 144.0 26.2 L 150.0 21.2 L 161.0 30.2 L 156.0 34.2 L 156.0 65.5 L 145.38688526153564 70.80655736923218 L 146.1173536300659 70.67584199905396 L 146.1 70.6 L 146.1780924797058 70.66497297286988 L 147.1 70.5 L 147.25110244750977 71.5577172279358 L 158.6 81.0 L 159.0 83.9 L 154.49226360321046 81.58681945800781 L 148.8 82.4 L 139.1 83.4 L 129.5 84.5 L 119.8 85.5 L 110.0 86.4 L 100.3 87.3 L 90.5 88.2 L 80.7 89.0 L 70.9 89.7 L 61.0 90.2 L 57.0 90.32121210098266 L 57.0 97.0 L 56.9 98.3 L 57.0 99.2 L 57.1 99.9 L 57.2 100.3 L 57.3 100.6 L 57.5 100.9 L 57.9 101.3 L 58.6 101.6 L 59.6 101.9 L 61.0 102.0 L 165.0 102.0 Z M 52.0 65.5 L 46.05 68.475 L 57.0 70.3 L 60.0 72.3 L 57.0 74.1 L 57.0 87.29381446838379 L 60.5 86.5 L 70.2 84.4 L 79.8 82.5 L 89.5 80.7 L 99.1 78.9 L 108.8 77.2 L 128.0 73.8 L 137.6 72.2 L 144.0 71.05473680496216 L 144.0 65.5 Z M 52.0 47.6 L 52.0 61.5 L 144.0 61.5 L 144.0 47.6 Z M 52.0 30.2 L 52.0 43.6 L 144.0 43.6 L 144.0 30.2 Z " />
</g>
</svg>
