<svg xmlns="http://www.w3.org/2000/svg" xmlns:xlink="http://www.w3.org/1999/xlink" version="1.1" baseProfile="full" viewBox="0 0 200 200" width="200" height="200">
<g fill="black">
<path d="M 167.0 178.0 L 160.4 170.0 L 154.8 159.0 L 153.81822395324707 156.01198587417602 L 146.9 164.8 L 138.8 173.4 L 129.9 181.0 L 120.2 187.7 L 119.1 186.2 L 127.4 178.2 L 134.9 169.7 L 141.8 160.8 L 148.0 151.3 L 150.66312971115113 146.4095253944397 L 150.2 145.0 L 146.4 127.4 L 143.5 105.9 L 141.5 80.3 L 140.61683168411255 58.0 L 119.0 58.0 L 119.0 104.0 L 126.3777777671814 104.0 L 132.6 97.0 L 140.6 104.0 L 140.6 108.0 L 118.8899082183838 108.0 L 118.4 116.9 L 117.3 127.4 L 115.6 137.3 L 113.4 146.6 L 110.6 155.4 L 107.2 163.5 L 103.67038326263427 170.2062717437744 L 106.9 171.2 L 97.54255323410034 179.3577741622925 L 93.5 184.1 L 87.7 189.5 L 86.5 188.4 L 90.8 182.0 L 91.90226593017579 180.03379592895507 L 88.2 178.5 L 81.4 175.0 L 74.9 170.8 L 68.7 166.0 L 62.8 160.6 L 57.99124517440796 155.4477626800537 L 57.3 156.2 L 50.0 162.9 L 42.5 168.7 L 34.6 173.8 L 26.4 178.0 L 18.0 181.2 L 9.2 183.5 L 8.6 181.8 L 16.4 177.7 L 23.9 173.2 L 31.0 168.3 L 37.8 162.8 L 44.3 156.6 L 50.4 149.9 L 51.90745906829834 148.00928859710694 L 51.9 148.0 L 47.0 140.8 L 42.6 133.0 L 40.63457841873169 128.82347917556763 L 40.3 129.3 L 36.9 133.8 L 33.3 138.1 L 29.5 142.1 L 25.4 145.8 L 21.1 149.2 L 16.5 152.2 L 15.3 150.8 L 18.4 146.5 L 21.4 142.1 L 24.4 137.8 L 27.2 133.5 L 29.9 129.0 L 32.5 124.4 L 34.8 119.7 L 37.0 114.9 L 39.1 109.9 L 40.65794773101807 105.71814022064208 L 40.6 105.7 L 41.5 103.5 L 52.1 109.3 L 54.1 112.3 L 50.26884489059448 112.89448957443237 L 49.4 114.6 L 47.862745094299314 117.4 L 71.4 117.4 L 71.79745225906372 117.06878976821899 L 72.1 116.5 L 72.33096332550049 116.62419729232788 L 77.4 112.4 L 88.4 121.4 L 83.4 124.4 L 80.64154024124146 125.5493582725525 L 76.8 131.8 L 70.7 140.7 L 64.1 148.8 L 63.71122283935547 149.22308101654053 L 69.0 153.6 L 74.8 157.9 L 80.8 161.5 L 86.8 164.5 L 92.9 166.9 L 97.84477024078369 168.41533279418945 L 97.9 168.3 L 100.8 160.9 L 103.2 153.0 L 105.1 144.6 L 106.6 135.8 L 107.5 126.4 L 108.0 116.4 L 108.0 48.5 L 119.0 54.0 L 140.45841579437257 54.0 L 140.3 50.0 L 140.00854148864747 15.89935941696167 L 140.0 15.9 L 140.0 12.5 L 152.0 15.0 L 155.0 17.0 L 152.03259000778198 18.780445957183836 L 152.3 49.8 L 152.45503358840944 54.0 L 164.3 54.0 L 174.3 44.0 L 186.3 54.0 L 186.3 58.0 L 152.60268459320068 58.0 L 153.4 79.6 L 155.5 104.7 L 158.3 125.4 L 158.9865385055542 128.6365385055542 L 162.5 119.1 L 166.0 107.1 L 168.8 94.4 L 170.9 81.0 L 170.93267431259156 81.00494232177735 L 171.2 79.0 L 182.8 82.8 L 185.5 85.3 L 181.98555326461792 86.73181161880493 L 179.9 96.8 L 176.3 110.0 L 172.0 122.5 L 166.8 134.2 L 162.1587240219116 143.0024200439453 L 165.9 154.5 L 170.4 163.5 L 175.1 169.0 L 178.62901782989502 171.27425594329833 L 184.0 148.0 L 186.0 148.0 L 184.08086814880372 172.94871377944946 L 184.3 173.0 L 188.4 174.9 L 190.0 179.2 L 188.0 183.3 L 183.7 184.9 L 175.0 183.0 Z M 45.55918369293213 121.4 L 43.6 124.6 L 42.40087394714355 126.30784616470336 L 46.0 130.7 L 51.8 137.3 L 56.41843967437744 142.33080043792725 L 61.9 134.5 L 67.1 125.9 L 69.4936170578003 121.4 Z M 66.0 16.5 L 69.0 18.5 L 66.0 20.3 L 66.0 62.3 L 87.3 62.3 L 87.3 24.6 L 98.3 26.6 L 101.1 28.6 L 98.3 30.35 L 98.3 72.3 L 87.3 77.8 L 87.3 66.3 L 66.0 66.3 L 66.0 97.8 L 54.0 103.8 L 54.0 66.3 L 33.1 66.3 L 33.1 78.3 L 21.1 84.3 L 21.1 24.6 L 33.1 26.6 L 36.1 28.6 L 33.1 30.4 L 33.1 62.3 L 54.0 62.3 L 54.0 14.5 Z M 170.2 35.6 L 169.8 33.6 L 169.1 31.5 L 168.2 29.3 L 167.1 27.0 L 165.8 24.7 L 164.2 22.2 L 162.5 19.6 L 160.2 17.3 L 161.3 15.9 L 164.1 17.7 L 167.0 19.3 L 169.6 21.1 L 172.0 22.9 L 174.3 24.9 L 176.3 27.0 L 178.1 29.3 L 179.7 31.6 L 181.1 34.1 L 182.2 36.7 L 181.4 41.2 L 177.7 43.9 L 173.2 43.0 L 170.5 39.3 L 170.5 37.5 Z " />
</g>
</svg>
