<svg xmlns="http://www.w3.org/2000/svg" xmlns:xlink="http://www.w3.org/1999/xlink" version="1.1" baseProfile="full" viewBox="0 0 200 200" width="200" height="200">
<g fill="black">
<path d="M 137.0 177.8 L 157.0 177.8 L 158.2 177.7 L 159.1 177.5 L 160.0 177.2 L 160.4 176.8 L 160.7 175.9 L 160.9 175.0 L 161.0 173.8 L 161.0 126.4 L 95.13999996185302 126.4 L 92.2 130.6 L 88.6 135.4 L 84.9 140.2 L 81.1 144.7 L 77.2 149.2 L 75.14545450210571 151.2545454978943 L 80.3 151.0 L 88.5 150.6 L 96.8 150.2 L 105.2 150.0 L 113.8 149.8 L 122.4 149.8 L 129.21294755935668 149.95661945343016 L 127.6 147.3 L 125.7 144.4 L 123.6 141.5 L 121.3 138.4 L 118.9 135.1 L 116.1 132.0 L 117.3 130.6 L 120.8 133.0 L 124.3 135.1 L 127.6 137.4 L 130.6 139.8 L 133.5 142.2 L 136.1 144.7 L 138.6 147.2 L 140.9 149.7 L 143.0 152.3 L 144.9 154.9 L 145.2 159.5 L 142.3 163.0 L 137.8 163.4 L 134.2 160.5 L 133.3 158.0 L 132.2 155.5 L 131.31690635681153 153.79689083099365 L 131.3 153.8 L 122.7 155.2 L 114.2 156.4 L 105.9 157.6 L 97.6 158.7 L 89.4 159.8 L 81.3 161.0 L 73.3 162.1 L 65.4 163.2 L 61.63684206008911 163.77894735336304 L 59.9 167.2 L 57.6 164.4 L 54.3 152.7 L 56.3 152.5 L 64.2 151.9 L 69.70049753189087 151.5562189102173 L 70.0 151.0 L 72.9 146.0 L 75.8 140.9 L 78.7 135.9 L 81.5 130.8 L 83.95384616851807 126.4 L 38.0 126.4 L 38.0 183.5 L 26.0 189.5 L 26.0 116.4 L 38.0 122.4 L 86.12307691574097 122.4 L 87.2 120.4 L 89.9 115.2 L 92.6 109.8 L 94.7551781654358 105.32386083602906 L 94.7 105.3 L 95.7 103.4 L 105.8 110.1 L 107.5 113.3 L 103.72793207168579 113.42786674499511 L 102.5 115.4 L 99.2 120.6 L 97.93999996185303 122.4 L 161.0 122.4 L 167.0 117.4 L 178.0 126.4 L 173.0 130.4 L 173.0 173.8 L 172.8 176.3 L 172.4 178.8 L 171.6 181.2 L 170.3 183.5 L 168.7 185.5 L 166.7 187.1 L 164.4 188.4 L 162.0 189.2 L 159.5 189.6 L 157.0 189.8 L 157.0 183.8 L 137.0 180.8 Z M 151.74381380081178 72.25402946472168 L 154.0 74.1 L 149.0 78.1 L 149.0 104.4 L 137.0 110.4 L 137.0 102.4 L 69.0 102.4 L 69.0 105.4 L 57.0 111.4 L 57.0 69.975 L 43.7 73.3 L 27.3 76.5 L 10.1 79.1 L 9.8 77.3 L 26.5 72.8 L 42.3 68.1 L 57.3 63.1 L 71.4 57.9 L 84.6 52.2 L 95.26291751861572 47.04334316253662 L 95.2 47.0 L 87.2 40.2 L 80.4 32.7 L 76.87732305526734 27.512057495117187 L 73.6 29.8 L 68.0 33.4 L 62.0 36.7 L 55.8 40.0 L 49.2 43.0 L 42.3 45.9 L 35.0 48.5 L 27.3 50.7 L 26.6 49.1 L 33.4 45.0 L 39.9 41.1 L 46.1 37.2 L 52.0 33.4 L 57.5 29.6 L 62.7 25.7 L 67.6 21.8 L 72.1 17.8 L 76.2 13.8 L 79.31949739456176 10.51631851196289 L 79.3 10.5 L 80.3 9.5 L 88.5 18.2 L 89.1027777671814 21.3 L 133.94324321746825 21.3 L 137.0 18.7 L 137.47013816833496 19.24155149459839 L 141.0 16.3 L 152.0 25.3 L 147.0 28.3 L 140.95609760284424 30.818292713165285 L 135.1 35.3 L 124.5 42.2 L 113.68872299194337 48.36432456970215 L 118.0 50.3 L 128.7 54.2 L 140.1 57.5 L 152.5 60.3 L 165.7 62.7 L 179.8 64.4 L 190.0 65.7 L 178.1 77.5 L 163.5 75.0 Z M 69.0 74.1 L 69.0 98.4 L 137.0 98.4 L 137.0 74.1 Z M 100.9 54.6 L 87.8 60.1 L 74.0 65.0 L 64.49191493988037 67.84595746994019 L 69.0 70.1 L 137.0 70.1 L 138.78190259933473 68.61508121490479 L 137.0 68.1 L 125.1 63.8 L 114.2 58.8 L 104.2 53.2 L 104.03291902542114 53.08489980697632 Z M 79.90512819290161 25.3 L 79.07404375076294 25.961475372314453 L 83.4 29.8 L 91.0 35.7 L 99.2 41.0 L 102.77429933547974 42.94600744247437 L 108.2 39.9 L 118.7 33.2 L 128.3 26.1 L 129.24054050445557 25.3 Z M 84.85749998092652 21.3 L 87.33333330154419 21.3 L 85.45018672943115 20.795585727691652 Z " />
</g>
</svg>
