<svg xmlns="http://www.w3.org/2000/svg" xmlns:xlink="http://www.w3.org/1999/xlink" version="1.1" baseProfile="full" viewBox="0 0 200 200" width="200" height="200">
<g fill="black">
<path d="M 105.1 166.7 L 106.1 159.2 L 106.9 151.3 L 107.6 143.0 L 108.0 134.2 L 108.2 124.9 L 108.3 115.2 L 108.1 105.0 L 108.1 48.0 L 120.1 54.0 L 142.98360652923583 54.0 L 142.6 43.6 L 142.40748643875122 17.8994384765625 L 142.4 17.9 L 142.4 14.5 L 154.4 17.0 L 157.4 19.0 L 154.4285014152527 20.747940349578858 L 154.6 43.3 L 155.0012499809265 54.0 L 164.6 54.0 L 171.88999996185302 46.71000003814697 L 168.2 46.3 L 165.3 42.8 L 165.0 40.5 L 164.6 38.3 L 164.2 36.0 L 163.6 33.8 L 162.9 31.5 L 162.2 29.3 L 161.3 27.0 L 160.3 24.7 L 159.3 22.3 L 157.7 20.3 L 159.0 19.0 L 161.0 20.8 L 163.3 22.3 L 165.4 24.0 L 167.4 25.8 L 169.3 27.8 L 171.0 29.9 L 172.7 32.1 L 174.2 34.4 L 175.5 36.8 L 176.8 39.4 L 176.3 43.9 L 175.3745762825012 44.64548025131226 L 186.6 54.0 L 186.6 58.0 L 155.1512499809265 58.0 L 155.5 67.3 L 157.2 89.1 L 159.7 108.5 L 161.31340560913085 117.12163629531861 L 163.5 109.0 L 166.6 95.0 L 169.2 79.9 L 169.27027559280396 79.91240158081055 L 169.6 78.0 L 181.1 82.0 L 183.7 84.5 L 180.25789070129395 85.8142599105835 L 177.7 97.4 L 173.9 111.8 L 169.6 125.1 L 165.56167669296264 135.44820356369019 L 166.9 140.4 L 171.5 152.9 L 176.7 162.9 L 180.83425922393798 168.484876537323 L 185.1 150.0 L 187.1 150.0 L 185.31676502227782 173.18205432891847 L 188.5 176.0 L 191.0 179.9 L 190.1 184.4 L 186.2 186.8 L 181.7 185.9 L 173.5 178.7 L 166.5 169.2 L 160.5 157.7 L 158.03893518447876 151.0889042854309 L 153.8 158.6 L 147.6 167.5 L 140.8 175.2 L 133.6 181.6 L 125.9 186.7 L 124.8 185.2 L 131.0 178.8 L 136.8 171.7 L 142.2 163.7 L 147.2 154.8 L 151.9 144.9 L 154.10789470672609 139.16998748779298 L 151.2 128.3 L 147.9 110.4 L 145.3 90.3 L 143.5 68.0 L 143.1311475753784 58.0 L 120.1 58.0 L 120.1 105.0 L 119.90769233703614 110.0 L 133.1777777671814 110.0 L 139.4 103.0 L 147.4 110.0 L 147.4 114.0 L 119.75384616851807 114.0 L 119.7 115.4 L 119.0 125.5 L 118.0 135.0 L 116.8 144.0 L 115.3 152.6 L 113.6 160.6 L 111.5 168.1 L 110.15308084487916 172.02851428985596 L 114.2 172.5 L 107.23258819580079 179.52645769119263 L 106.4 181.5 L 103.2 187.3 L 101.5 186.6 L 101.97203187942505 184.31246109008788 L 93.6 182.6 L 85.5 180.1 L 78.0 176.7 L 71.1 172.5 L 65.0 167.6 L 62.482949924469 165.037185382843 L 57.1 169.2 L 49.2 174.2 L 40.7 178.3 L 31.8 181.6 L 22.5 184.0 L 12.7 185.4 L 12.3 183.6 L 21.4 180.3 L 29.9 176.6 L 37.8 172.4 L 45.1 167.7 L 52.0 162.5 L 56.63091526031494 158.09316129684447 L 54.8 155.6 L 50.8 148.6 L 47.7 141.0 L 46.812765979766844 137.45106382369994 L 45.1 139.8 L 41.3 144.4 L 37.2 148.6 L 32.9 152.6 L 28.3 156.1 L 23.4 159.3 L 18.2 162.0 L 17.1 160.5 L 21.0 156.3 L 24.7 152.2 L 28.2 148.0 L 31.5 143.6 L 34.6 139.2 L 37.4 134.6 L 40.0 129.8 L 42.4 124.8 L 44.5 119.7 L 46.4 114.3 L 46.479138660430905 114.33109016418457 L 47.0 113.0 L 57.6 118.7 L 59.7 121.7 L 55.865810298919676 122.36106719970704 L 54.9 124.4 L 53.06666669845581 127.7 L 77.8 127.7 L 78.22145328521728 127.3487889289856 L 78.4 127.0 L 78.549476146698 127.07543659210205 L 83.8 122.7 L 94.8 131.7 L 89.8 134.7 L 87.04732255935669 135.84694890975953 L 83.8 141.3 L 77.9 149.4 L 71.5 156.8 L 69.16401138305665 159.03442392349243 L 70.8 160.3 L 76.5 163.8 L 82.6 166.7 L 89.2 168.8 L 96.3 170.4 L 103.9 171.3 L 104.36856441497802 171.35459003448486 Z M 50.6942307472229 131.7 L 48.83447370529175 134.63052635192872 L 51.5 139.2 L 55.9 145.6 L 60.5 151.3 L 61.795961952209474 152.57004270553588 L 64.0 150.1 L 69.3 143.1 L 74.1 135.4 L 75.99404764175415 131.7 Z M 108.3 28.0 L 108.3 32.0 L 67.07272729873657 32.0 L 66.5 33.4 L 65.5 35.6 L 64.4 37.8 L 62.2 42.0 L 59.6 46.2 L 58.2 48.2 L 56.76000003814697 50.0 L 82.3 50.0 L 88.3 45.0 L 99.3 54.0 L 94.3 58.0 L 94.3 113.0 L 82.3 119.0 L 82.3 111.0 L 39.0 111.0 L 39.0 123.0 L 27.0 129.0 L 27.0 44.0 L 39.0 50.0 L 54.28695650100708 50.0 L 54.5 49.3 L 54.6 46.9 L 54.8 44.5 L 55.2 39.9 L 55.3 37.6 L 55.5 35.3 L 55.6 33.1 L 55.6 32.0 L 13.6 32.0 L 13.6 28.0 L 86.3 28.0 L 96.3 18.0 Z M 39.0 91.0 L 39.0 107.0 L 82.3 107.0 L 82.3 91.0 Z M 39.0 73.0 L 39.0 87.0 L 82.3 87.0 L 82.3 73.0 Z M 39.0 54.0 L 39.0 69.0 L 82.3 69.0 L 82.3 54.0 Z " />
</g>
</svg>
