<svg xmlns="http://www.w3.org/2000/svg" xmlns:xlink="http://www.w3.org/1999/xlink" version="1.1" baseProfile="full" viewBox="0 0 200 200" width="200" height="200">
<g fill="black">
<path d="M 177.2 171.9 L 177.2 175.9 L 20.7 175.9 L 20.7 171.9 L 155.2 171.9 L 165.2 161.9 Z M 160.8 132.7 L 160.8 136.7 L 37.1 136.7 L 37.1 132.7 L 138.8 132.7 L 148.8 122.7 Z M 144.3 107.0 L 126.1 100.6 L 108.5 93.4 L 98.14164991378784 88.43534698486329 L 90.0 93.8 L 76.1 101.2 L 61.4 107.5 L 45.8 112.8 L 29.4 116.9 L 12.1 119.8 L 11.8 118.1 L 28.4 113.2 L 44.1 107.7 L 58.8 101.5 L 72.6 94.5 L 85.4 86.6 L 89.09290380477906 83.92264471054077 L 75.4 76.4 L 59.9 66.7 L 51.89873876571655 61.02342958450318 L 43.5 65.7 L 34.0 70.4 L 23.6 74.8 L 12.3 78.8 L 11.6 77.1 L 21.9 71.4 L 31.4 65.7 L 40.1 60.1 L 45.350786972045896 56.37792320251465 L 45.1 56.2 L 31.2 44.7 L 18.1 32.3 L 19.3 30.9 L 33.7 41.4 L 48.5 51.4 L 50.396980953216556 52.54817266464234 L 55.0 48.8 L 61.1 43.2 L 66.4 37.5 L 70.8 31.7 L 74.3 26.0 L 76.98800001144409 20.52799997329712 L 77.6 19.1 L 88.0 25.4 L 89.8 28.5 L 85.87513933181762 28.906020069122313 L 84.0 32.0 L 81.01587305068969 36.0 L 135.0 36.0 L 135.01929264068605 35.98392286300659 L 135.9 34.7 L 136.27240219116212 34.93966484069824 L 141.0 31.0 L 152.0 40.0 L 147.0 43.0 L 143.60038385391235 44.416506671905516 L 136.6 53.8 L 126.3 65.3 L 115.1 75.9 L 107.42403659820556 81.81426687240601 L 112.4 83.9 L 129.8 90.2 L 147.7 95.7 L 166.2 100.5 L 185.3 104.5 L 194.4 106.4 L 182.6 117.4 L 163.1 112.6 Z M 77.71333332061768 40.0 L 73.7 44.3 L 67.4 50.0 L 60.2 55.5 L 57.86361265182495 57.067449760437015 L 63.7 60.6 L 79.4 69.1 L 95.7 76.9 L 97.62268571853637 77.70591611862183 L 108.3 68.4 L 118.4 58.0 L 127.6 46.8 L 132.26446285247803 40.0 Z " />
</g>
</svg>
