<svg xmlns="http://www.w3.org/2000/svg" xmlns:xlink="http://www.w3.org/1999/xlink" version="1.1" baseProfile="full" viewBox="0 0 200 200" width="200" height="200">
<g fill="black">
<path d="M 94.4 96.8 L 97.4 98.8 L 94.4 100.6 L 94.4 136.8 L 93.5 144.9 L 91.2 152.5 L 87.7 159.5 L 82.9 165.6 L 77.1 171.0 L 70.1 175.6 L 62.1 179.4 L 53.1 182.5 L 43.1 184.9 L 32.0 186.4 L 31.7 184.6 L 42.1 181.2 L 51.3 177.5 L 59.3 173.5 L 66.0 169.2 L 71.5 164.6 L 75.8 159.7 L 79.0 154.5 L 81.1 149.0 L 81.29071493148804 148.06231842041015 L 81.2 148.1 L 74.7 150.5 L 68.2 152.7 L 61.6 154.8 L 55.1 156.8 L 48.6 158.7 L 42.0 160.5 L 29.0 164.1 L 26.532469177246092 164.74535417556763 L 25.1 168.3 L 22.5 165.8 L 18.1 154.5 L 20.0 154.1 L 31.6 152.1666666984558 L 31.6 87.0 L 39.98148145675659 88.39691362380981 L 43.5 87.4 L 49.5 85.8 L 61.3 82.8 L 67.3 81.3 L 73.1 79.7 L 79.0 78.1 L 84.8 76.4 L 90.6 74.6 L 96.4 72.7 L 96.77884616851807 74.07331733703613 L 106.7 82.4 L 107.0 85.4 L 102.7942307472229 83.44520587921143 L 99.6 84.3 L 93.5 85.6 L 87.3 86.8 L 81.2 87.9 L 75.0 88.8 L 68.8 89.6 L 62.6 90.3 L 56.4 90.8 L 50.2 91.1 L 46.43333330154419 91.1 L 43.6 92.8 L 43.6 150.0761194229126 L 66.6 146.3 L 73.4 145.3 L 80.3 144.4 L 82.07162628173828 144.2228373527527 L 82.3 143.1 L 82.4 136.8 L 82.4 94.8 Z M 148.2 155.8 L 161.4 155.8 L 162.3 155.6 L 162.9 155.4 L 163.2 155.2 L 163.4 155.1 L 163.6 154.9 L 163.9 154.0 L 164.1 153.1 L 164.2 151.8 L 164.2 89.5 L 124.9 89.5 L 124.9 182.3 L 112.9 188.3 L 112.9 79.5 L 124.9 85.5 L 164.2 85.5 L 170.2 80.5 L 181.2 89.5 L 176.2 93.5 L 176.2 151.8 L 176.0 154.4 L 175.6 156.9 L 174.8 159.3 L 173.5 161.6 L 171.9 163.6 L 169.9 165.2 L 167.6 166.4 L 165.2 167.3 L 162.7 167.7 L 160.2 167.8 L 160.2 161.8 L 148.2 158.8 Z M 142.8 125.4 L 142.0 123.3 L 141.0 121.1 L 139.7 118.9 L 138.2 116.7 L 136.4 114.4 L 134.4 112.0 L 132.1 109.6 L 129.3 107.6 L 130.2 106.0 L 133.4 107.5 L 136.7 108.7 L 139.7 110.2 L 142.6 111.9 L 145.2 113.7 L 147.7 115.8 L 149.9 118.0 L 151.9 120.5 L 153.6 123.1 L 155.1 125.9 L 154.7 130.5 L 151.3 133.5 L 146.8 133.1 L 143.7 129.7 L 143.4 127.6 Z M 63.4 123.5 L 62.5 121.4 L 61.4 119.3 L 60.1 117.2 L 58.5 115.1 L 56.7 113.0 L 54.7 110.8 L 52.4 108.6 L 49.6 106.8 L 50.4 105.2 L 53.6 106.4 L 56.8 107.4 L 59.8 108.7 L 62.7 110.2 L 65.3 111.9 L 67.8 113.7 L 70.1 115.8 L 72.2 118.1 L 74.1 120.6 L 75.7 123.3 L 75.5 127.9 L 72.2 131.1 L 67.7 130.9 L 64.5 127.7 L 64.0 125.6 Z M 97.6 50.5 L 94.9 48.8 L 91.7 47.0 L 88.0 45.2 L 83.8 43.3 L 79.2 41.3 L 74.1 39.3 L 68.5 37.1 L 65.7307692527771 36.0384614944458 L 58.9 38.9 L 50.8 41.9 L 42.2 44.6 L 32.9 47.1 L 23.0 49.2 L 22.5 47.5 L 31.7 43.5 L 40.3 39.6 L 48.3 35.8 L 55.7 32.0 L 62.4 28.2 L 68.5 24.4 L 73.9 20.6 L 78.6 16.7 L 82.6 12.9 L 86.0 9.0 L 86.06964788436889 9.063387393951416 L 86.4 8.7 L 94.9 17.1 L 95.8 20.6 L 91.94672899246216 19.856386280059816 L 90.93571424484253 20.8 L 150.63999996185302 20.8 L 151.8 19.3 L 152.17692308425904 19.5692307472229 L 156.7 15.8 L 167.7 24.8 L 162.7 27.8 L 158.8742946624756 29.394043922424316 L 154.2 34.7 L 145.3 42.4 L 134.9 49.2 L 123.2 55.3 L 110.1 60.7 L 95.5 65.4 L 79.5 69.4 L 62.1 72.7 L 43.2 75.3 L 22.9 77.0 L 22.6 75.2 L 42.6 71.5 L 61.0 67.5 L 77.9 63.1 L 93.2 58.2 L 103.63994331359864 54.08498582839966 L 101.3 53.5 L 99.7 52.1 Z M 85.73333330154419 24.8 L 85.2 25.2 L 79.5 28.9 L 73.2 32.4 L 70.32021398544312 33.81902494430542 L 75.3 34.4 L 80.9 35.3 L 86.0 36.3 L 90.7 37.4 L 95.0 38.5 L 99.0 39.7 L 102.5 41.0 L 105.7 42.4 L 108.5 44.0 L 110.8 48.0 L 109.96418600082397 51.343255805969235 L 119.1 47.0 L 129.6 40.7 L 138.6 34.0 L 146.0 26.8 L 147.54666662216187 24.8 Z " />
</g>
</svg>
