<svg xmlns="http://www.w3.org/2000/svg" xmlns:xlink="http://www.w3.org/1999/xlink" version="1.1" baseProfile="full" viewBox="0 0 200 200" width="200" height="200">
<g fill="black">
<path d="M 74.0 176.9 L 94.0 176.9 L 95.2 176.8 L 96.1 176.7 L 96.7 176.5 L 97.0 176.3 L 97.2 176.2 L 97.4 176.0 L 97.5 175.6 L 97.7 175.0 L 97.9 174.1 L 98.0 172.9 L 98.0 148.32727270126344 L 94.4 150.0 L 85.1 154.2 L 76.1 158.1 L 67.6 161.6 L 59.6 164.9 L 52.1 167.9 L 45.0 170.8 L 38.4 173.4 L 32.4 175.7 L 30.618920516967773 176.3997097969055 L 29.6 180.1 L 26.8 177.9 L 21.1 167.1 L 23.0 166.5 L 28.8 164.9 L 35.0 163.2 L 41.8 161.3 L 49.0 159.2 L 56.8 156.9 L 65.1 154.4 L 73.9 151.9 L 83.2 149.2 L 93.2 146.4 L 98.0 145.15384616851807 L 98.0 117.3 L 18.0 117.3 L 18.0 113.3 L 141.0 113.3 L 141.0 99.1 L 47.0 99.1 L 47.0 95.1 L 141.0 95.1 L 141.0 81.6 L 40.0 81.6 L 40.0 77.6 L 141.0 77.6 L 147.0 72.6 L 158.0 81.6 L 153.0 85.6 L 153.0 113.3 L 164.0 113.3 L 174.0 103.3 L 186.0 113.3 L 186.0 117.3 L 110.0 117.3 L 110.0 128.125 L 111.8 130.6 L 117.6 137.5 L 123.8 143.8 L 127.23466768264771 146.7142635345459 L 127.9 146.3 L 133.2 143.3 L 138.3 140.5 L 143.2 137.8 L 148.0 135.3 L 152.6 132.7 L 157.1 130.3 L 161.4 127.9 L 165.5 125.6 L 168.54839248657225 123.8803939819336 L 168.5 123.8 L 168.57130336761475 123.86746988296508 L 169.4 123.4 L 170.56686210632324 125.75574045181274 L 177.8 132.6 L 177.9 135.9 L 174.18384475708007 134.31606502532958 L 170.4 135.9 L 165.9 137.7 L 161.3 139.4 L 156.5 141.2 L 151.4 143.0 L 146.2 144.8 L 140.8 146.6 L 135.2 148.3 L 130.54901456832886 149.502841091156 L 137.5 154.3 L 145.1 158.5 L 153.2 162.2 L 161.9 165.2 L 171.2 167.5 L 181.1 169.2 L 190.7 170.9 L 178.8 182.3 L 168.1 179.7 L 158.1 176.3 L 148.7 172.3 L 140.1 167.5 L 132.1 161.9 L 124.9 155.7 L 118.5 148.7 L 112.9 141.1 L 110.0 135.97872343063355 L 110.0 172.9 L 109.8 175.5 L 109.4 178.0 L 108.6 180.4 L 107.3 182.6 L 105.7 184.6 L 103.7 186.3 L 101.4 187.5 L 99.0 188.3 L 96.5 188.8 L 94.0 188.9 L 94.0 182.9 L 74.0 179.9 Z M 62.0 142.1 L 59.1 140.1 L 55.9 138.2 L 52.5 136.4 L 48.7 134.7 L 44.7 133.0 L 40.3 131.3 L 35.7 129.6 L 30.8 128.0 L 31.1 126.3 L 36.3 126.3 L 41.4 126.5 L 46.2 127.1 L 50.8 127.8 L 55.2 128.8 L 59.4 129.9 L 63.4 131.3 L 67.2 132.9 L 70.8 134.7 L 74.2 136.7 L 76.5 140.7 L 75.3 145.1 L 71.3 147.3 L 66.9 146.2 L 64.6 144.1 Z M 97.6 50.5 L 94.9 48.8 L 91.7 47.0 L 88.0 45.2 L 83.8 43.3 L 79.2 41.3 L 74.1 39.3 L 68.5 37.1 L 65.7307692527771 36.0384614944458 L 58.9 38.9 L 50.8 41.9 L 42.2 44.6 L 32.9 47.1 L 23.0 49.2 L 22.5 47.5 L 31.7 43.5 L 40.3 39.6 L 48.3 35.8 L 55.7 32.0 L 62.4 28.2 L 68.5 24.4 L 73.9 20.6 L 78.6 16.7 L 82.6 12.9 L 86.0 9.0 L 86.06964788436889 9.063387393951416 L 86.4 8.7 L 94.9 17.1 L 95.8 20.6 L 91.94672899246216 19.856386280059816 L 90.93571424484253 20.8 L 150.63999996185302 20.8 L 151.8 19.3 L 152.17692308425904 19.5692307472229 L 156.7 15.8 L 167.7 24.8 L 162.7 27.8 L 158.8742946624756 29.394043922424316 L 154.2 34.7 L 145.3 42.4 L 134.9 49.2 L 123.2 55.3 L 110.1 60.7 L 95.5 65.4 L 79.5 69.4 L 62.1 72.7 L 43.2 75.3 L 22.9 77.0 L 22.6 75.2 L 42.6 71.5 L 61.0 67.5 L 77.9 63.1 L 93.2 58.2 L 103.63994331359864 54.08498582839966 L 101.3 53.5 L 99.7 52.1 Z M 85.73333330154419 24.8 L 85.2 25.2 L 79.5 28.9 L 73.2 32.4 L 70.32021398544312 33.81902494430542 L 75.3 34.4 L 80.9 35.3 L 86.0 36.3 L 90.7 37.4 L 95.0 38.5 L 99.0 39.7 L 102.5 41.0 L 105.7 42.4 L 108.5 44.0 L 110.8 48.0 L 109.96418600082397 51.343255805969235 L 119.1 47.0 L 129.6 40.7 L 138.6 34.0 L 146.0 26.8 L 147.54666662216187 24.8 Z " />
</g>
</svg>
