<svg xmlns="http://www.w3.org/2000/svg" xmlns:xlink="http://www.w3.org/1999/xlink" version="1.1" baseProfile="full" viewBox="0 0 200 200" width="200" height="200">
<g fill="black">
<path d="M 14.0 176.0 L 40.0 176.0 L 40.0 125.0 L 52.0 131.0 L 148.0 131.0 L 154.0 126.0 L 165.0 135.0 L 160.0 139.0 L 160.0 176.0 L 164.0 176.0 L 174.0 166.0 L 186.0 176.0 L 186.0 180.0 L 14.0 180.0 Z M 52.0 135.0 L 52.0 176.0 L 76.0 176.0 L 76.0 135.0 Z M 88.0 135.0 L 88.0 176.0 L 112.0 176.0 L 112.0 135.0 Z M 124.0 135.0 L 124.0 176.0 L 148.0 176.0 L 148.0 135.0 Z M 151.6 121.5 L 149.7 122.8 L 147.6 123.9 L 145.5 124.9 L 143.3 125.7 L 141.0 126.4 L 138.7 126.8 L 136.4 127.1 L 134.0 127.2 L 134.0 121.2 L 114.0 118.2 L 114.0 115.2 L 134.0 115.2 L 135.5 115.1 L 138.3 114.7 L 139.7 114.3 L 140.9 113.8 L 142.2 113.3 L 143.4 112.6 L 144.5 111.8 L 145.7 110.9 L 146.8 109.8 L 149.4 107.0 L 151.7 103.7 L 153.9 99.9 L 155.9 95.6 L 157.6 90.8 L 159.1 85.6 L 160.4 79.8 L 161.4 73.6 L 162.1 66.9 L 162.44027776718139 62.0 L 137.10681819915771 62.0 L 134.3 75.0 L 121.2 78.1 L 132.03014554977418 32.0 L 68.8136986732483 32.0 L 67.3 45.0 L 65.0 58.5 L 62.1 70.9 L 58.5 82.2 L 54.4 92.5 L 49.5 101.6 L 44.1 109.5 L 37.9 116.2 L 31.2 121.6 L 23.8 125.5 L 22.9 124.0 L 28.8 118.7 L 34.0 112.6 L 38.7 105.8 L 42.9 98.0 L 46.5 89.2 L 49.7 79.4 L 52.3 68.6 L 54.4 56.6 L 56.0 43.6 L 56.76764707565307 32.0 L 29.6 32.0 L 29.6 28.0 L 132.7 28.0 L 138.7 23.0 L 149.7 32.0 L 144.7 35.0 L 142.76201877593994 35.80749216079712 L 137.97045450210572 58.0 L 162.6 58.0 L 168.6 53.0 L 179.6 62.0 L 174.6 65.0 L 174.27964401245117 65.13348169326783 L 174.1 67.9 L 173.3 75.2 L 172.2 82.1 L 170.8 88.5 L 169.0 94.5 L 167.0 100.2 L 164.6 105.4 L 161.8 110.1 L 158.7 114.5 L 155.3 118.3 L 153.5 120.0 Z M 81.8 93.8 L 81.6 91.8 L 81.2 89.7 L 80.7 87.5 L 80.1 85.2 L 79.3 82.8 L 78.4 80.3 L 77.8392469406128 78.92360610961914 L 75.2 82.8 L 71.7 87.0 L 68.1 90.9 L 64.3 94.4 L 60.2 97.3 L 58.9 96.1 L 61.4 91.9 L 63.9 87.6 L 66.3 83.3 L 68.7 78.7 L 71.1 74.0 L 73.3 69.0 L 75.4 63.7 L 77.5 58.2 L 79.4 52.5 L 80.98218002319337 47.42036943435669 L 80.9 47.4 L 81.8 45.0 L 92.6 50.3 L 94.8 53.2 L 91.1180890083313 53.975139141082764 L 90.1 56.5 L 87.4 62.4 L 86.83999996185302 63.5 L 105.0 63.5 L 111.0 58.5 L 122.0 67.5 L 117.0 70.5 L 115.57538146972657 71.09359102249145 L 114.0 76.2 L 110.4 84.8 L 106.0 92.7 L 100.9 99.7 L 95.0 105.8 L 88.5 111.1 L 81.3 115.5 L 73.6 118.9 L 65.2 121.3 L 56.2 122.7 L 55.8 120.9 L 64.0 117.7 L 71.3 114.0 L 77.9 109.8 L 83.8 105.2 L 87.03030300140381 101.90757579803467 L 84.2 101.2 L 81.7 97.4 L 81.8 95.6 Z M 84.80363636016845 67.5 L 84.6 67.9 L 81.6 73.2 L 79.48634004592896 76.43654174804688 L 81.5 78.1 L 83.6 80.0 L 85.5 82.1 L 87.3 84.1 L 88.9 86.3 L 90.3 88.5 L 91.6 90.7 L 92.7 93.0 L 93.23876399993897 94.43670415878296 L 93.5 94.1 L 97.3 87.6 L 100.5 80.5 L 103.2 72.7 L 104.40930233001708 67.5 Z " />
</g>
</svg>
