<svg xmlns="http://www.w3.org/2000/svg" xmlns:xlink="http://www.w3.org/1999/xlink" version="1.1" baseProfile="full" viewBox="0 0 200 200" width="200" height="200">
<g fill="black">
<path d="M 78.9 122.4 L 77.68301887512207 131.0 L 124.0 131.0 L 124.0 93.0 L 136.0 95.0 L 139.0 97.0 L 136.0 98.8 L 136.0 131.0 L 163.0 131.0 L 173.0 121.0 L 185.0 131.0 L 185.0 135.0 L 136.0 135.0 L 136.0 182.0 L 124.0 188.0 L 124.0 135.0 L 76.95102043151856 135.0 L 75.2 142.8 L 72.2 151.8 L 68.5 159.9 L 64.0 167.2 L 58.8 173.6 L 52.9 179.0 L 46.3 183.4 L 39.0 186.7 L 31.2 188.8 L 30.7 187.1 L 37.4 183.2 L 43.3 178.9 L 48.5 174.1 L 53.0 168.7 L 56.9 162.7 L 60.1 156.0 L 62.7 148.5 L 64.8 140.3 L 65.6244444847107 135.0 L 16.0 135.0 L 16.0 131.0 L 66.22448978424072 131.0 L 67.0 121.5 L 67.0 93.0 L 79.0 95.0 L 82.0 97.0 L 79.0 98.8 L 79.0 122.0 L 78.74133329391479 122.38800001144409 Z M 81.0 62.0 L 80.1 59.8 L 79.0 57.5 L 77.6 55.2 L 76.0 52.9 L 74.2 50.5 L 72.2 48.0 L 70.0 45.5 L 67.3 43.2 L 67.7 42.6 L 63.5 45.6 L 57.4 49.4 L 50.9 53.1 L 43.9 56.6 L 36.4 59.7 L 35.5 58.2 L 41.9 53.3 L 48.0 48.6 L 53.6 44.1 L 58.8 39.6 L 63.6 35.2 L 67.8 30.8 L 71.7 26.5 L 75.0 22.2 L 77.9 17.9 L 79.83333330154419 14.516666698455811 L 79.8 14.5 L 80.8 12.8 L 90.6 19.9 L 92.1 23.2 L 88.08913040161133 23.2 L 87.1 24.5 L 83.3 29.0 L 79.0 33.3 L 77.10232553482055 35.0 L 139.59512195587158 35.0 L 141.4 33.0 L 141.88977394104003 33.42518835067749 L 146.0 30.0 L 157.0 39.0 L 152.0 42.0 L 147.4827118873596 43.88220338821411 L 141.9 49.4 L 132.1 57.4 L 121.2 64.9 L 109.2 71.7 L 96.0 78.0 L 81.7 83.8 L 66.3 89.0 L 49.7 93.6 L 32.0 97.6 L 13.1 100.8 L 12.8 99.1 L 31.1 93.9 L 48.2 88.5 L 64.2 82.8 L 78.9 76.8 L 92.4 70.4 L 104.6 63.6 L 115.7 56.5 L 125.5 49.0 L 134.0 41.2 L 135.98536586761475 39.0 L 72.41499996185303 39.0 L 69.1 41.6 L 68.68823528289795 41.89411764144897 L 71.5 43.3 L 74.7 44.7 L 77.7 46.4 L 80.5 48.1 L 83.2 50.1 L 85.6 52.1 L 87.9 54.4 L 89.9 56.7 L 91.8 59.3 L 93.4 61.9 L 93.3 66.5 L 90.1 69.7 L 85.5 69.6 L 82.3 66.4 L 81.7 64.2 Z " />
</g>
</svg>
