<svg xmlns="http://www.w3.org/2000/svg" xmlns:xlink="http://www.w3.org/1999/xlink" version="1.1" baseProfile="full" viewBox="0 0 200 200" width="200" height="200">
<g fill="black">
<path d="M 102.8 156.9 L 99.9 154.9 L 96.5 152.9 L 92.6 150.9 L 88.2 148.8 L 83.3 146.6 L 77.9 144.3 L 72.0 141.8 L 68.58024864196777 140.4429557800293 L 62.1 143.6 L 53.6 147.1 L 44.5 150.4 L 34.7 153.3 L 24.2 156.0 L 23.7 154.3 L 33.4 149.8 L 42.4 145.4 L 50.8 141.1 L 58.6 136.8 L 65.7 132.5 L 72.1 128.1 L 77.8 123.7 L 82.8 119.2 L 87.1 114.8 L 90.03886013031006 111.12642488479614 L 90.0 111.1 L 91.1 109.8 L 100.0 117.9 L 101.0 121.4 L 97.15577278137206 120.80348196029664 L 95.2 122.8 L 94.37826089859009 123.5 L 159.0 123.5 L 159.11037731170654 123.40801887512207 L 159.9 122.3 L 160.20469274520875 122.49608936309815 L 165.0 118.5 L 176.0 127.5 L 171.0 130.5 L 167.44031009674072 131.98320417404176 L 162.2 138.5 L 152.9 147.3 L 142.1 155.3 L 129.7 162.5 L 115.9 168.8 L 100.6 174.3 L 83.7 179.1 L 65.4 183.0 L 45.5 186.0 L 24.1 188.2 L 23.8 186.4 L 44.8 182.3 L 64.2 177.7 L 82.0 172.7 L 98.1 167.1 L 110.99236173629761 161.6386523246765 L 106.8 160.4 L 105.1 158.7 Z M 89.66046514511109 127.5 L 83.8 131.7 L 77.1 135.9 L 72.72754821777343 138.26841135025023 L 73.0 138.3 L 79.3 139.3 L 85.2 140.4 L 90.6 141.7 L 95.6 143.1 L 100.2 144.5 L 104.4 146.0 L 108.1 147.6 L 111.5 149.3 L 114.5 151.2 L 116.6 155.3 L 115.32357006072998 159.52203760147094 L 125.3 154.3 L 136.4 147.0 L 145.9 139.3 L 153.7 131.0 L 156.19425287246705 127.5 Z M 155.3 106.1 L 146.4 102.2 L 138.0 97.8 L 130.2 92.9 L 122.8 87.4 L 116.1 81.5 L 109.9 75.0 L 104.5 67.9 L 100.23289470672607 61.0 L 79.0 61.0 L 79.0 94.02432432174683 L 81.4 93.7 L 89.1 92.8 L 97.1 91.7 L 105.4 90.8 L 113.9 89.8 L 122.8 89.1 L 123.1 90.8 L 114.7 93.6 L 106.4 96.0 L 98.3 98.2 L 90.5 100.2 L 83.0 102.1 L 75.6 103.8 L 68.6 105.5 L 61.8 107.0 L 55.2 108.4 L 52.90270700454712 108.87404460906983 L 51.3 112.4 L 48.9 109.7 L 45.0 98.2 L 47.0 97.9 L 53.4 97.2 L 60.0 96.4 L 66.9 95.6 L 67.0 95.58732395172119 L 67.0 61.0 L 43.9268816947937 61.0 L 43.4 65.9 L 41.8 74.7 L 39.8 83.0 L 37.3 90.9 L 34.2 98.4 L 30.6 105.3 L 26.5 111.7 L 21.9 117.4 L 16.6 122.5 L 15.3 121.4 L 18.8 115.2 L 21.9 108.9 L 24.7 102.4 L 27.1 95.6 L 29.1 88.5 L 30.7 80.9 L 31.9 73.0 L 32.7 64.7 L 33.0 56.1 L 33.0 17.0 L 45.0 23.0 L 152.0 23.0 L 162.0 13.0 L 174.0 23.0 L 174.0 27.0 L 45.0 27.0 L 45.0 47.0 L 44.4 56.6 L 44.35698928833008 57.0 L 160.0 57.0 L 170.0 47.0 L 182.0 57.0 L 182.0 61.0 L 103.18999996185303 61.0 L 107.6 65.2 L 114.1 70.8 L 120.8 75.9 L 127.7 80.7 L 129.39718103408813 81.67646036148071 L 131.7 79.9 L 135.1 77.5 L 138.4 75.1 L 141.6 72.8 L 144.7 70.6 L 147.7 68.5 L 150.6 66.4 L 153.4 64.3 L 155.18946571350097 62.923487949371335 L 155.1 62.8 L 155.20659399032593 62.9103123664856 L 156.0 62.3 L 158.28508977890016 66.09619760513306 L 163.7 71.7 L 163.9 75.1 L 160.12403602600097 73.53753213882446 L 159.1 74.0 L 155.8 75.5 L 152.5 76.9 L 149.0 78.4 L 145.4 79.8 L 141.7 81.3 L 137.8 82.7 L 133.8 84.1 L 133.67272729873656 84.13636360168456 L 135.0 84.9 L 142.7 88.7 L 150.8 92.1 L 159.2 95.0 L 168.1 97.5 L 177.4 99.5 L 186.3 101.5 L 174.5 112.4 L 164.6 109.5 Z M 163.0 40.0 L 163.0 44.0 L 57.0 44.0 L 57.0 40.0 L 144.8181818008423 40.0 L 153.0 31.0 Z " />
</g>
</svg>
