<svg xmlns="http://www.w3.org/2000/svg" xmlns:xlink="http://www.w3.org/1999/xlink" version="1.1" baseProfile="full" viewBox="0 0 200 200" width="200" height="200">
<g fill="black">
<path d="M 140.0 177.9 L 125.1 173.1 L 111.3 167.4 L 100.29316930770874 161.5883934020996 L 97.8 163.1 L 84.0 169.9 L 68.9 175.6 L 52.5 180.4 L 34.9 184.2 L 16.1 186.8 L 15.8 185.1 L 34.1 180.5 L 51.0 175.3 L 66.5 169.5 L 80.7 163.0 L 92.42487134933472 156.45588579177857 L 87.5 153.1 L 77.4 144.6 L 68.7 135.1 L 61.4 124.6 L 55.959292030334474 114.0 L 33.0 114.0 L 33.0 110.0 L 137.0 110.0 L 137.34054050445556 109.71621618270873 L 137.7 109.1 L 137.9301037788391 109.22491350173951 L 143.0 105.0 L 154.0 114.0 L 149.0 117.0 L 145.99882583618165 118.25048923492432 L 140.8 126.4 L 132.0 137.0 L 121.9 146.7 L 110.5 155.4 L 110.10741882324218 155.63802165985106 L 115.4 158.0 L 128.6 162.7 L 142.8 166.4 L 158.2 169.3 L 174.7 171.4 L 185.1 172.6 L 173.2 184.5 L 156.0 181.7 Z M 58.44081630706787 114.0 L 64.8 122.2 L 73.1 131.1 L 82.2 139.1 L 92.3 146.3 L 100.51742687225342 151.00634450912474 L 105.0 147.9 L 115.1 139.2 L 123.9 129.9 L 131.4 119.9 L 134.8416666984558 114.0 Z M 95.0 66.0 L 92.4 63.9 L 89.3 61.6 L 85.7 59.3 L 81.7 56.9 L 77.2 54.5 L 72.3 52.0 L 66.9 49.3 L 63.52837371826172 47.672318363189696 L 58.1 50.9 L 50.2 55.1 L 41.6 59.0 L 32.4 62.6 L 22.6 65.8 L 21.9 64.2 L 30.8 59.2 L 39.2 54.3 L 46.9 49.4 L 54.1 44.5 L 60.6 39.6 L 66.5 34.6 L 71.7 29.5 L 76.3 24.4 L 80.3 19.3 L 83.15665416717529 14.93099946975708 L 83.1 14.9 L 84.2 13.3 L 93.7 20.7 L 95.1 24.0 L 91.20990247726441 23.79878807067871 L 89.2 26.3 L 86.9777777671814 28.7 L 147.4 28.7 L 147.85804414749146 28.31829652786255 L 148.1 27.9 L 148.2602325439453 27.983139514923096 L 153.4 23.7 L 164.4 32.7 L 159.4 35.7 L 156.49410591125488 36.9107892036438 L 151.6 44.7 L 142.9 54.9 L 132.8 64.3 L 121.2 72.6 L 108.2 80.1 L 93.9 86.6 L 78.1 92.2 L 61.0 96.9 L 42.4 100.6 L 22.4 103.3 L 22.1 101.5 L 41.6 96.9 L 59.5 91.8 L 76.0 86.0 L 90.8 79.7 L 104.2 72.7 L 116.0 65.0 L 126.2 56.7 L 135.0 47.7 L 142.2 38.1 L 145.3235294342041 32.7 L 83.10384616851806 32.7 L 78.5 36.9 L 72.3 41.8 L 66.69307775497437 45.67537269592285 L 68.0 45.9 L 74.0 47.2 L 79.5 48.6 L 84.7 50.2 L 89.4 51.8 L 93.7 53.6 L 97.6 55.4 L 101.2 57.4 L 104.4 59.5 L 107.3 61.7 L 108.9 66.0 L 107.1 70.2 L 102.8 71.8 L 98.6 70.0 L 97.1 68.1 Z " />
</g>
</svg>
