<svg xmlns="http://www.w3.org/2000/svg" xmlns:xlink="http://www.w3.org/1999/xlink" version="1.1" baseProfile="full" viewBox="0 0 200 200" width="200" height="200">
<g fill="black">
<path d="M 155.4 179.0 L 147.0 173.9 L 139.3 167.7 L 132.4 160.7 L 132.05432338714598 160.24665365219116 L 128.0 163.9 L 118.0 171.1 L 107.3 177.2 L 95.7 182.2 L 83.3 186.1 L 70.2 188.8 L 69.7 187.1 L 82.1 182.5 L 93.6 177.3 L 104.1 171.4 L 113.7 164.8 L 122.4 157.5 L 126.64289140701294 153.14969367980956 L 126.3 152.7 L 121.0 143.9 L 116.5 134.2 L 112.9 123.6 L 110.57543859481811 113.0 L 98.0 113.0 L 98.0 109.0 L 153.0 109.0 L 159.0 104.0 L 170.0 113.0 L 165.0 116.0 L 162.84163818359374 116.89931735992431 L 159.0 125.2 L 152.6 136.3 L 145.3 146.5 L 138.802498626709 153.7898796081543 L 139.2 154.2 L 145.8 159.8 L 153.0 164.6 L 160.6 168.4 L 168.7 171.4 L 177.4 173.5 L 186.2 175.5 L 174.5 186.4 L 164.6 183.2 Z M 76.1 140.1 L 73.6 132.2 L 70.8 124.5 L 67.9 117.0 L 64.6 109.8 L 61.2 102.7 L 57.6 95.8 L 53.80685777664185 89.01227178573609 L 51.9 101.9 L 48.1 120.1 L 43.4 136.9 L 37.7 152.1 L 31.0 165.9 L 23.3 178.1 L 14.7 188.5 L 13.2 187.4 L 20.1 176.0 L 26.2 163.5 L 31.5 149.8 L 36.1 134.7 L 39.8 118.3 L 42.7 100.5 L 44.8 81.3 L 45.33913040161133 72.0 L 14.0 72.0 L 14.0 68.0 L 45.57101449966431 68.0 L 46.0 60.6 L 46.4 38.6 L 46.01698999404907 16.098159408569337 L 46.0 16.1 L 45.9 12.8 L 58.0 14.8 L 61.0 16.7 L 57.96752815246582 18.6803897857666 L 57.8 38.7 L 56.8 61.2 L 56.15545024871826 68.0 L 75.0 68.0 L 85.0 58.0 L 97.0 68.0 L 97.0 72.0 L 55.7763032913208 72.0 L 54.8 82.3 L 54.490666675567624 84.39066667556763 L 56.9 86.8 L 62.0 92.8 L 66.8 99.3 L 71.3 106.2 L 75.5 113.3 L 79.4 120.8 L 82.9 128.5 L 86.2 136.6 L 89.3 144.9 L 92.0 153.5 L 91.3 158.1 L 87.7 160.9 L 83.2 160.2 L 80.4 156.6 L 78.4 148.2 Z M 112.6875 113.0 L 116.8 122.1 L 121.8 131.6 L 127.2 140.1 L 132.28354663848876 146.87806215286255 L 137.3 140.5 L 143.4 130.8 L 148.8 120.2 L 151.64210529327391 113.0 Z M 84.8 110.1 L 83.1 105.8 L 84.8 101.6 L 86.3 100.5 L 87.8 98.9 L 89.3 96.9 L 90.8 94.5 L 92.2 91.6 L 93.5 88.3 L 94.8 84.6 L 96.0 80.4 L 97.2 75.9 L 98.0 70.9 L 99.8 71.0 L 100.1 76.1 L 100.4 80.9 L 100.42391300201416 82.0 L 147.52857141494752 82.0 L 148.6 78.0 L 150.2 72.6 L 151.9 67.4 L 155.5 57.4 L 157.3 52.6 L 159.0 47.9 L 160.7 43.3 L 162.4 38.8 L 163.74598369598388 35.31627740859985 L 163.7 35.3 L 164.6 33.2 L 175.0 39.3 L 176.9 42.4 L 173.1383873939514 42.85398769378662 L 172.8 43.5 L 170.5 47.7 L 168.1 52.0 L 165.7 56.5 L 163.2 60.9 L 160.6 65.5 L 157.9 70.2 L 155.1 74.9 L 152.0 79.6 L 150.3659574508667 82.0 L 172.0 82.0 L 172.62222223281861 81.4814814567566 L 173.0 80.6 L 173.37525081634521 80.85395765304565 L 178.0 77.0 L 189.0 86.0 L 184.0 89.0 L 179.2 91.0 L 176.3 93.9 L 174.5 95.6 L 170.7 99.0 L 168.6 100.8 L 166.5 102.5 L 164.7 104.5 L 163.2 103.4 L 164.6 101.1 L 165.5 98.5 L 166.5 96.0 L 167.5 93.7 L 168.4 91.3 L 169.4 89.1 L 170.6681818008423 86.0 L 100.46428575515748 86.0 L 100.2 89.7 L 99.8 93.7 L 99.0 97.5 L 98.1 101.0 L 96.8 104.3 L 95.2 107.3 L 93.3 110.1 L 89.1 111.8 Z M 106.9 65.3 L 106.7 62.8 L 106.2 60.2 L 105.5 57.7 L 104.6 55.0 L 103.4 52.4 L 102.0 49.7 L 100.3 46.8 L 98.1 44.3 L 99.3 42.9 L 102.1 45.0 L 105.1 46.9 L 107.7 49.1 L 110.1 51.5 L 112.2 54.1 L 114.1 56.9 L 115.7 59.8 L 117.0 62.9 L 118.0 66.2 L 118.8 69.6 L 117.2 73.9 L 113.1 75.9 L 108.8 74.4 L 106.8 70.3 L 107.0 67.8 Z M 132.5 59.3 L 132.1 56.9 L 131.5 54.4 L 130.7 51.8 L 129.7 49.0 L 128.4 46.2 L 126.9 43.3 L 125.2 40.2 L 123.0 37.3 L 124.3 36.0 L 127.2 38.4 L 130.1 40.6 L 132.8 43.0 L 135.2 45.5 L 137.3 48.0 L 139.3 50.7 L 141.0 53.4 L 142.4 56.3 L 143.6 59.2 L 144.5 62.2 L 143.3 66.6 L 139.3 68.9 L 134.9 67.7 L 132.6 63.7 L 132.7 61.5 Z M 167.9093632698059 14.681647968292236 L 178.1 23.1 L 178.4 26.2 L 173.98534870147705 24.11530351638794 L 170.4 25.0 L 163.0 26.5 L 155.4 27.8 L 147.7 29.1 L 139.8 30.3 L 131.7 31.4 L 123.5 32.4 L 115.2 33.3 L 106.6 34.1 L 97.9 34.6 L 89.1 34.8 L 88.8 33.1 L 97.4 30.8 L 105.8 28.8 L 114.1 26.9 L 122.2 25.0 L 130.2 23.1 L 138.0 21.2 L 145.6 19.3 L 153.1 17.3 L 160.4 15.4 L 166.62372884750366 13.671186447143555 L 166.6 13.6 L 166.6704595565796 13.658205699920654 L 167.6 13.4 Z " />
</g>
</svg>
