<svg xmlns="http://www.w3.org/2000/svg" xmlns:xlink="http://www.w3.org/1999/xlink" version="1.1" baseProfile="full" viewBox="0 0 200 200" width="200" height="200">
<g fill="black">
<path d="M 162.6 182.4 L 158.1 180.1 L 154.0 177.4 L 150.3 174.2 L 147.1 170.7 L 144.4 166.8 L 142.2 162.6 L 140.5 158.1 L 139.60656337738038 154.2825888633728 L 137.1 159.7 L 133.3 165.7 L 128.8 170.8 L 123.7 175.2 L 118.0 178.7 L 111.7 181.2 L 104.9 182.8 L 97.7 183.5 L 97.4 181.7 L 103.9 179.2 L 109.5 176.3 L 114.5 173.1 L 118.8 169.4 L 122.5 165.2 L 125.5 160.5 L 128.0 155.3 L 128.62068967819215 153.5 L 97.5 153.5 L 97.5 149.5 L 130.0 149.5 L 131.5 143.1 L 132.28537883758545 136.9042336463928 L 132.2 136.9 L 132.442857170105 135.0785714149475 L 131.0 135.8 L 131.0 115.2 L 98.7 115.2 L 98.7 111.2 L 131.0 111.2 L 131.0 101.1 L 93.6 101.1 L 93.6 97.1 L 119.4235294342041 97.1 L 118.1 95.6 L 118.2 94.7 L 118.2 92.5 L 118.0 91.3 L 117.2 88.7 L 116.6 87.2 L 115.9 85.7 L 115.1 84.1 L 113.8 83.0 L 114.58571424484253 81.9 L 100.2 81.9 L 100.2 77.9 L 131.0 77.9 L 131.0 68.1 L 143.0 70.1 L 146.0 72.1 L 143.0 73.9 L 143.0 77.9 L 159.6818181991577 77.9 L 160.2 77.0 L 162.1 73.9 L 163.9 71.0 L 165.5 68.3 L 167.0 65.7 L 168.3 63.3 L 168.82173910140992 62.3 L 35.6456521987915 62.3 L 35.7 64.8 L 35.4 69.1 L 34.6 73.2 L 33.5 77.1 L 33.41111106872559 77.3 L 68.21818180084229 77.3 L 76.4 68.3 L 86.4 77.3 L 86.4 81.3 L 59.8 81.3 L 59.8 96.8 L 62.5 96.8 L 72.5 86.8 L 84.5 96.8 L 84.5 100.8 L 59.8 100.8 L 59.8 116.14516124725341 L 64.4 115.7 L 70.8 115.1 L 77.4 114.7 L 84.2 114.4 L 91.1 114.3 L 91.4 116.1 L 84.8 118.1 L 78.3 120.0 L 71.9 121.6 L 65.7 123.1 L 59.6 124.6 L 48.0 127.4 L 42.5 128.8 L 37.1 130.1 L 35.93050851821899 130.39237289428712 L 35.082499980926514 132.39125003814698 L 39.5 134.6 L 75.9 134.6 L 81.9 129.6 L 92.9 138.6 L 87.9 142.6 L 87.9 178.7 L 75.9 184.7 L 75.9 174.7 L 39.5 174.7 L 39.5 181.7 L 27.5 187.7 L 27.5 128.6 L 31.61803274154663 130.65901641845704 L 27.6 120.1 L 29.6 119.7 L 35.0 118.9 L 40.5 118.2 L 46.3 117.6 L 47.8 117.42203388214111 L 47.8 100.8 L 31.0 100.8 L 31.0 96.8 L 47.8 96.8 L 47.8 81.3 L 31.525 81.3 L 29.9 83.9 L 27.3 86.9 L 24.3 89.4 L 19.7 89.9 L 16.1 87.1 L 15.6 82.6 L 18.4 78.9 L 20.3 78.1 L 22.2 76.9 L 23.9 75.2 L 25.7 73.2 L 27.2 70.6 L 28.7 67.5 L 30.0 63.9 L 31.1 59.8 L 32.1 55.2 L 32.6 50.2 L 34.4 50.1 L 35.0 55.3 L 35.367346954345706 58.3 L 170.3 58.3 L 170.9972972869873 57.71891889572144 L 171.3 57.0 L 171.6125 57.20625 L 176.3 53.3 L 187.3 62.3 L 182.3 65.3 L 177.842857170105 67.15714282989502 L 177.8 67.2 L 175.8 69.1 L 173.7 71.1 L 171.4 73.2 L 170.0956521987915 74.2956521987915 L 173.7 77.9 L 173.7 81.9 L 160.56956520080567 81.9 L 160.3 82.1 L 158.5525773048401 83.61443300247193 L 162.4 86.5 L 163.9 89.7 L 158.8 89.7 L 158.3 90.1 L 155.3 92.7 L 153.6 94.0 L 150.0 96.6 L 149.28571424484252 97.1 L 162.11818180084228 97.1 L 170.3 88.1 L 180.3 97.1 L 180.3 101.1 L 143.0 101.1 L 143.0 111.2 L 157.01818180084229 111.2 L 165.2 102.2 L 175.2 111.2 L 175.2 115.2 L 143.0 115.2 L 143.0 129.8 L 133.9619047164917 134.31904764175414 L 144.3 137.5 L 147.0 139.8 L 143.47173795700073 141.3977035522461 L 142.6 145.5 L 141.31999998092653 149.5 L 156.9 149.5 L 166.9 139.5 L 178.9 149.5 L 178.9 153.5 L 141.66842107772828 153.5 L 143.8 156.5 L 146.7 159.7 L 149.6 162.6 L 152.6 165.1 L 155.8 167.2 L 159.2 168.9 L 162.7 170.3 L 166.5 171.4 L 170.5 172.2 L 174.8 172.7 L 184.6 174.3 L 172.7 185.7 L 167.5 184.3 Z M 39.5 156.3 L 39.5 170.7 L 51.7 170.7 L 51.7 156.3 Z M 63.7 156.3 L 63.7 170.7 L 75.9 170.7 L 75.9 156.3 Z M 39.5 138.6 L 39.5 152.3 L 51.7 152.3 L 51.7 138.6 Z M 63.7 138.6 L 63.7 152.3 L 75.9 152.3 L 75.9 138.6 Z M 116.3 82.6 L 118.1 83.2 L 119.9 83.9 L 121.5 84.7 L 123.0 85.6 L 124.5 86.6 L 125.9 87.7 L 127.1 88.9 L 128.3 90.3 L 129.4 91.7 L 129.1 96.3 L 128.19333333969115 97.1 L 145.93157892227174 97.1 L 146.3 96.6 L 147.1 94.4 L 148.0 92.3 L 148.7 90.3 L 149.5 88.4 L 150.2 86.6 L 150.8 84.8 L 151.70625 81.9 L 115.25 81.9 Z M 156.26666669845582 81.9 L 156.8 82.3 L 157.1 81.9 Z M 40.3 53.9 L 40.3 21.3 L 52.3 23.3 L 55.3 25.3 L 52.3 27.1 L 52.3 43.9 L 98.0 43.9 L 98.0 12.8 L 110.0 14.8 L 113.0 16.8 L 110.0 18.6 L 110.0 43.9 L 154.7 43.9 L 154.7 21.3 L 166.7 23.3 L 169.7 25.3 L 166.7 27.1 L 166.7 47.9 L 154.7 53.9 L 154.7 47.9 L 52.3 47.9 Z " />
</g>
</svg>
