<svg xmlns="http://www.w3.org/2000/svg" xmlns:xlink="http://www.w3.org/1999/xlink" version="1.1" baseProfile="full" viewBox="0 0 200 200" width="200" height="200">
<g fill="black">
<path d="M 66.3 139.9 L 64.1 132.0 L 61.7 124.3 L 59.2 116.8 L 56.4 109.6 L 53.4 102.6 L 50.3 95.7 L 47.72450714111328 90.30756177902222 L 46.2 101.8 L 42.8 120.0 L 38.6 136.7 L 33.5 152.0 L 27.6 165.8 L 20.8 178.0 L 13.0 188.5 L 11.5 187.4 L 17.4 176.1 L 22.7 163.6 L 27.3 149.9 L 31.3 134.8 L 34.5 118.4 L 37.0 100.6 L 38.8 81.3 L 39.296601963043216 72.0 L 12.3 72.0 L 12.3 68.0 L 39.51019420623779 68.0 L 39.9 60.7 L 40.2 38.6 L 39.7 15.1 L 39.77053632736206 15.098236560821533 L 39.7 12.7 L 51.7 14.8 L 54.8 16.8 L 51.68354730606079 18.732200717926027 L 51.6 38.7 L 50.6 61.2 L 50.017142868041994 68.0 L 63.3 68.0 L 73.3 58.0 L 85.3 68.0 L 85.3 72.0 L 49.67428569793701 72.0 L 48.8 82.2 L 48.455468845367434 84.79723453521729 L 50.3 86.9 L 55.0 93.0 L 59.3 99.5 L 63.2 106.3 L 67.0 113.5 L 70.4 121.0 L 73.6 128.7 L 76.6 136.8 L 79.2 145.1 L 81.7 153.7 L 80.9 158.2 L 77.2 160.9 L 72.7 160.1 L 70.0 156.4 L 68.2 148.0 Z M 169.2 180.3 L 167.5 182.1 L 165.7 183.6 L 163.6 185.0 L 161.5 186.1 L 159.2 186.9 L 156.8 187.5 L 154.4 187.8 L 151.9 188.0 L 151.9 182.0 L 131.9 179.0 L 131.9 176.0 L 151.9 176.0 L 153.3 175.9 L 154.6 175.7 L 155.7 175.4 L 156.7 175.1 L 157.6 174.6 L 158.5 174.0 L 159.3 173.3 L 160.1 172.5 L 160.9 171.5 L 161.6 170.3 L 163.3 166.5 L 165.0 160.8 L 166.5 153.2 L 167.9 143.8 L 169.1 132.7 L 170.1 119.9 L 170.8 105.5 L 171.4 89.3 L 171.7 71.5 L 171.78974361419677 54.0 L 111.08656721115112 54.0 L 107.3 59.9 L 102.6 66.5 L 97.7 72.8 L 92.3 78.8 L 86.5 84.5 L 85.1 83.4 L 89.3 76.5 L 93.3 69.7 L 97.1 62.9 L 100.7 56.1 L 104.1 49.2 L 107.2 42.2 L 110.0 35.1 L 112.6 27.9 L 114.9 20.6 L 116.62818059921264 14.205731678009034 L 116.6 14.2 L 116.84444446563721 13.405555534362794 L 116.9 13.2 L 116.90705089569092 13.202084636688232 L 117.4 11.6 L 128.4 16.6 L 130.7 19.4 L 127.10284700393677 20.299288272857666 L 125.7 24.3 L 122.6 31.8 L 119.2 39.1 L 115.6 46.2 L 113.42857141494751 50.0 L 171.8 50.0 L 177.8 45.0 L 188.8 54.0 L 183.8 57.0 L 183.7744354248047 57.01065187454223 L 183.7 71.6 L 183.4 89.6 L 182.8 106.0 L 182.1 120.7 L 181.1 133.8 L 179.8 145.3 L 178.4 155.3 L 176.6 163.7 L 174.6 170.6 L 172.1 176.2 L 170.7 178.3 Z M 112.1 82.0 L 137.3 82.0 L 143.3 77.0 L 154.3 86.0 L 149.3 90.0 L 149.3 142.0 L 137.3 148.0 L 137.3 136.0 L 112.1 136.0 L 112.1 148.0 L 100.1 154.0 L 100.1 76.0 Z M 112.1 86.0 L 112.1 132.0 L 137.3 132.0 L 137.3 86.0 Z " />
</g>
</svg>
