<svg xmlns="http://www.w3.org/2000/svg" xmlns:xlink="http://www.w3.org/1999/xlink" version="1.1" baseProfile="full" viewBox="0 0 200 200" width="200" height="200">
<g fill="black">
<path d="M 153.7 184.0 L 144.0 180.8 L 135.3 177.2 L 127.5 173.3 L 120.7 169.0 L 114.9 164.4 L 110.2 159.4 L 106.7 154.1 L 104.85789470672607 149.1 L 103.75 149.1 L 101.2 154.8 L 95.9 161.5 L 89.0 167.3 L 80.5 172.2 L 70.4 176.5 L 58.8 180.1 L 45.5 183.0 L 30.6 185.2 L 14.1 186.7 L 13.8 184.9 L 30.0 181.4 L 44.3 177.8 L 56.8 173.8 L 67.6 169.5 L 76.4 164.8 L 83.4 159.9 L 88.5 154.8 L 91.8 149.6 L 91.97307691574096 149.1 L 17.0 149.1 L 17.0 145.1 L 93.35769233703613 145.1 L 93.6 144.4 L 94.0 138.9 L 94.0 126.5 L 106.0 128.5 L 109.0 130.5 L 106.0 132.3 L 106.0 138.9 L 104.95421686172486 145.1 L 161.0 145.1 L 171.0 135.1 L 183.0 145.1 L 183.0 149.1 L 107.6625 149.1 L 110.1 151.6 L 114.4 155.2 L 119.3 158.7 L 125.0 161.9 L 131.6 164.9 L 139.1 167.7 L 147.4 170.3 L 156.7 172.6 L 166.9 174.7 L 178.1 176.5 L 187.6 178.2 L 175.8 189.5 L 164.3 186.9 Z M 173.0 21.0 L 168.0 25.0 L 168.0 78.0 L 156.0 84.0 L 156.0 72.0 L 41.69216299057007 72.0 L 33.39749212265015 121.0 L 157.8181818008423 121.0 L 166.0 112.0 L 176.0 121.0 L 176.0 125.0 L 32.72037620544434 125.0 L 31.4 132.8 L 18.5 136.7 L 31.4 61.1 L 40.83291139602661 68.0 L 156.0 68.0 L 156.0 21.0 L 26.0 21.0 L 26.0 17.0 L 156.0 17.0 L 162.0 12.0 Z M 151.0 85.0 L 151.0 89.0 L 71.0 89.0 L 71.0 104.0 L 138.8181818008423 104.0 L 147.0 95.0 L 157.0 104.0 L 157.0 108.0 L 71.0 108.0 L 59.0 114.0 L 59.0 79.0 L 71.0 85.0 L 132.8181818008423 85.0 L 141.0 76.0 Z M 135.0 36.0 L 130.0 40.0 L 130.0 55.0 L 118.0 61.0 L 118.0 55.0 L 47.0 55.0 L 47.0 51.0 L 118.0 51.0 L 118.0 36.0 L 47.0 36.0 L 47.0 32.0 L 118.0 32.0 L 124.0 27.0 Z " />
</g>
</svg>
