<svg xmlns="http://www.w3.org/2000/svg" xmlns:xlink="http://www.w3.org/1999/xlink" version="1.1" baseProfile="full" viewBox="0 0 200 200" width="200" height="200">
<g fill="black">
<path d="M 153.2 182.1 L 143.5 177.7 L 134.7 172.9 L 126.9 167.7 L 120.1 161.9 L 114.4 155.8 L 109.8 149.2 L 106.5 142.2 L 104.69178085327148 135.6 L 103.78571424484252 135.6 L 101.5 142.6 L 96.4 151.5 L 89.5 159.5 L 81.0 166.5 L 70.8 172.5 L 59.1 177.7 L 45.7 181.9 L 30.7 185.3 L 14.1 187.7 L 13.8 185.9 L 29.8 181.6 L 44.1 176.8 L 56.5 171.6 L 67.1 165.9 L 75.9 159.7 L 82.8 153.0 L 88.0 146.0 L 91.5 138.6 L 92.25949363708496 135.6 L 17.0 135.6 L 17.0 131.6 L 93.27215185165406 131.6 L 93.5 130.7 L 94.0 122.2 L 94.0 105.6 L 106.0 107.6 L 109.0 109.6 L 106.0 111.4 L 106.0 122.2 L 104.8471697807312 131.6 L 161.0 131.6 L 171.0 121.6 L 183.0 131.6 L 183.0 135.6 L 106.98135595321655 135.6 L 110.1 140.2 L 114.6 145.7 L 119.7 150.8 L 125.5 155.5 L 132.2 159.9 L 139.6 164.0 L 148.0 167.6 L 157.2 171.0 L 167.4 174.0 L 178.5 176.6 L 187.1 178.7 L 175.4 189.4 L 163.8 186.0 Z M 170.45279998779296 95.36400003433228 L 166.0 97.3 L 161.3 99.1 L 156.6 100.8 L 147.2 103.8 L 142.4 105.3 L 137.7 106.6 L 132.9 107.9 L 132.25533218383788 108.07831239700317 L 130.7 111.8 L 128.2 109.2 L 125.12177124023438 101.03911437988282 L 113.4 106.9 L 113.4 100.9 L 86.5 100.9 L 86.5 112.9 L 74.5 118.9 L 74.5 30.3 L 86.5 36.3 L 92.47692308425903 36.3 L 93.0 35.5 L 94.2 32.8 L 95.4 30.2 L 97.6 25.4 L 98.5 23.2 L 99.3 21.0 L 100.7 17.0 L 100.92419214248658 16.192908477783202 L 100.7 16.1 L 101.7 14.1 L 111.8 20.7 L 113.6 23.8 L 108.96707315444947 24.119512176513673 L 108.9 24.2 L 105.5 27.8 L 103.6 29.7 L 101.6 31.5 L 99.5 33.4 L 97.3 35.2 L 95.85263156890869 36.3 L 113.4 36.3 L 119.4 31.3 L 130.4 40.3 L 128.69591836929322 41.66326532363892 L 131.3 43.1 L 134.3 44.5 L 137.1 46.0 L 138.98837213516236 47.2589147567749 L 139.9 44.6 L 141.3 41.3 L 142.6 37.9 L 144.0 34.5 L 145.3 31.1 L 146.7 27.8 L 147.9 24.4 L 149.2 21.0 L 150.08109445571898 18.430141258239747 L 150.0 18.4 L 150.29090909957887 17.818181800842286 L 150.4 17.5 L 150.4405204772949 17.51895914077759 L 151.0 16.4 L 161.3 22.6 L 163.2 25.7 L 159.1640552520752 26.117511558532716 L 157.3 29.1 L 153.1 35.3 L 150.9 38.4 L 148.6 41.3 L 146.2 44.2 L 143.8 47.0 L 141.6604651451111 49.139534854888915 L 142.3 49.6 L 144.8 51.6 L 147.1 53.8 L 149.3 56.0 L 151.3 58.4 L 153.2 60.9 L 153.51073598861694 63.75877141952515 L 156.5 57.5 L 159.7 50.5 L 163.0 43.2 L 165.8846224784851 36.731452560424806 L 165.8 36.7 L 166.8 34.6 L 177.1 40.9 L 179.0 44.0 L 175.2624445915222 44.386643695831296 L 173.2 48.3 L 169.3 55.4 L 165.4 62.2 L 161.4 68.7 L 157.4 75.0 L 153.4 80.9 L 149.3 86.6 L 145.2 91.9 L 142.29629449844361 95.2088737487793 L 145.1 94.8 L 154.9 93.4 L 164.7 92.2 L 169.55534591674805 91.71446542739868 L 169.5 91.5 L 168.7 88.3 L 167.8 85.1 L 166.7 81.8 L 165.6 78.4 L 164.4 74.9 L 162.9 71.5 L 164.4 70.5 L 166.8 73.5 L 169.4 76.3 L 171.7 79.2 L 173.8 82.1 L 175.8 85.2 L 177.6 88.2 L 179.3 91.3 L 180.8 94.5 L 182.2 97.6 L 183.4 100.8 L 182.6 105.3 L 178.9 108.0 L 174.4 107.3 L 171.7 103.6 L 170.9 97.6 Z M 58.45279998779297 95.36400003433228 L 54.0 97.3 L 49.3 99.1 L 44.6 100.8 L 35.2 103.8 L 30.4 105.3 L 25.7 106.6 L 20.9 107.9 L 20.25533218383789 108.07831239700317 L 18.7 111.8 L 16.2 109.2 L 11.9 97.8 L 13.9 97.4 L 18.7 96.8 L 23.5 96.1 L 25.206666660308837 95.88666667938233 L 28.7 88.9 L 31.8 83.1 L 34.9 77.0 L 38.1 70.7 L 38.88714189529419 69.10111808776855 L 34.3 69.5 L 30.7 66.7 L 29.8 64.3 L 27.6 59.5 L 26.2 57.2 L 24.8 54.8 L 23.2 52.4 L 21.5 50.1 L 19.7 47.7 L 17.7 45.2 L 15.4 43.0 L 16.4 41.5 L 19.3 43.1 L 22.3 44.5 L 25.1 46.0 L 26.988372135162354 47.2589147567749 L 27.9 44.6 L 29.3 41.3 L 30.6 37.9 L 32.0 34.5 L 33.3 31.1 L 34.7 27.8 L 35.9 24.4 L 37.2 21.0 L 38.081094455719 18.430141258239747 L 38.0 18.4 L 38.290909099578855 17.818181800842286 L 38.4 17.5 L 38.440520477294925 17.51895914077759 L 39.0 16.4 L 49.3 22.6 L 51.2 25.7 L 47.164055252075194 26.117511558532716 L 45.3 29.1 L 41.1 35.3 L 38.9 38.4 L 36.6 41.3 L 34.2 44.2 L 31.8 47.0 L 29.660465145111083 49.139534854888915 L 30.3 49.6 L 32.8 51.6 L 35.1 53.8 L 37.3 56.0 L 39.3 58.4 L 41.2 60.9 L 41.51073598861694 63.75877141952515 L 44.5 57.5 L 47.7 50.5 L 51.0 43.2 L 53.884622478485106 36.731452560424806 L 53.8 36.7 L 54.8 34.6 L 65.1 40.9 L 67.0 44.0 L 63.26244459152222 44.386643695831296 L 61.2 48.3 L 57.3 55.4 L 53.4 62.2 L 49.4 68.7 L 45.4 75.0 L 41.4 80.9 L 37.3 86.6 L 33.2 91.9 L 30.296294498443604 95.2088737487793 L 33.1 94.8 L 42.9 93.4 L 52.7 92.2 L 57.555345916748045 91.71446542739868 L 57.5 91.5 L 56.7 88.3 L 55.8 85.1 L 54.7 81.8 L 53.6 78.4 L 52.4 74.9 L 50.9 71.5 L 52.4 70.5 L 54.8 73.5 L 57.4 76.3 L 59.7 79.2 L 61.8 82.1 L 63.8 85.2 L 65.6 88.2 L 67.3 91.3 L 68.8 94.5 L 70.2 97.6 L 71.4 100.8 L 70.6 105.3 L 66.9 108.0 L 62.4 107.3 L 59.7 103.6 L 58.9 97.6 Z M 139.6 59.5 L 138.2 57.2 L 136.8 54.8 L 135.2 52.4 L 133.5 50.1 L 131.7 47.7 L 129.7 45.2 L 127.4 43.0 L 127.8285714149475 42.35714282989502 L 125.4 44.3 L 125.4 97.5 L 125.9 97.4 L 130.7 96.8 L 135.5 96.1 L 137.20666666030883 95.88666667938233 L 140.7 88.9 L 143.8 83.1 L 146.9 77.0 L 150.1 70.7 L 150.88714189529418 69.10111808776855 L 146.3 69.5 L 142.7 66.7 L 141.8 64.3 Z M 86.5 69.7 L 86.5 96.9 L 113.4 96.9 L 113.4 69.7 Z M 86.5 40.3 L 86.5 65.7 L 113.4 65.7 L 113.4 40.3 Z " />
</g>
</svg>
