<svg xmlns="http://www.w3.org/2000/svg" xmlns:xlink="http://www.w3.org/1999/xlink" version="1.1" baseProfile="full" viewBox="0 0 200 200" width="200" height="200">
<g fill="black">
<path d="M 65.0 181.5 L 78.2 181.5 L 79.1 181.3 L 79.7 181.1 L 80.0 180.9 L 80.2 180.8 L 80.4 180.6 L 80.7 179.7 L 80.9 178.8 L 81.0 177.5 L 81.0 161.9 L 38.0 161.9 L 38.0 187.3 L 26.0 193.3 L 26.0 114.7 L 38.0 120.7 L 81.0 120.7 L 87.0 115.7 L 98.0 124.7 L 93.0 128.7 L 93.0 177.5 L 92.8 180.1 L 92.4 182.6 L 91.6 185.0 L 90.3 187.3 L 88.7 189.3 L 86.7 190.9 L 84.4 192.1 L 82.0 193.0 L 79.5 193.4 L 77.0 193.5 L 77.0 187.5 L 65.0 184.5 Z M 126.4 187.9 L 123.9 187.4 L 121.5 186.6 L 119.2 185.4 L 117.2 183.8 L 115.6 181.7 L 114.3 179.5 L 113.5 177.1 L 113.1 174.6 L 113.0 172.0 L 113.0 131.3 L 125.0 133.3 L 128.0 135.3 L 125.0 137.1 L 125.0 155.25517244338988 L 130.4 153.3 L 135.9 151.2 L 141.2 149.1 L 146.4 147.0 L 151.4 144.9 L 156.2 142.7 L 160.7 140.4 L 165.1 138.1 L 168.40659790039064 136.210515499115 L 168.4 136.2 L 168.40934963226317 136.2089430809021 L 169.3 135.7 L 170.67609910964967 138.37713832855223 L 177.6 145.0 L 177.8 148.3 L 174.0628849029541 146.7071312904358 L 170.0 148.4 L 165.0 150.3 L 159.8 152.0 L 154.5 153.6 L 149.1 155.1 L 143.4 156.4 L 137.6 157.5 L 131.6 158.5 L 125.5 159.1 L 125.0 159.1234375 L 125.0 173.2 L 125.2 174.2 L 125.4 174.7 L 125.5 175.1 L 125.7 175.3 L 125.9 175.4 L 126.2 175.6 L 126.8 175.8 L 127.7 175.9 L 129.0 176.0 L 174.0 176.0 L 180.0 151.0 L 182.0 151.0 L 180.0 176.0 L 183.6 178.4 L 186.0 182.0 L 183.6 185.6 L 180.0 188.0 L 129.0 188.0 Z M 38.0 142.6 L 38.0 157.9 L 81.0 157.9 L 81.0 142.6 Z M 38.0 124.7 L 38.0 138.6 L 81.0 138.6 L 81.0 124.7 Z M 126.4 127.8 L 123.9 127.4 L 121.5 126.6 L 119.2 125.4 L 117.2 123.7 L 115.6 121.7 L 114.3 119.4 L 113.5 117.0 L 113.1 114.5 L 113.0 112.0 L 113.0 71.3 L 125.0 73.3 L 128.0 75.3 L 125.0 77.1 L 125.0 96.44561405181885 L 130.3 94.4 L 135.9 92.3 L 141.2 90.2 L 146.4 88.0 L 151.4 85.9 L 156.2 83.7 L 160.8 81.5 L 165.2 79.3 L 168.63588514328003 77.46220092773437 L 168.6 77.4 L 168.655331325531 77.45179948806762 L 169.5 77.0 L 170.55169486999512 79.22711868286133 L 178.0 86.2 L 178.1 89.5 L 174.31800003051757 87.91400003433228 L 169.9 89.7 L 164.9 91.4 L 159.8 93.1 L 154.5 94.7 L 149.1 96.1 L 143.4 97.4 L 137.6 98.6 L 131.7 99.6 L 125.5 100.3 L 125.0 100.3390625 L 125.0 113.2 L 125.2 114.1 L 125.4 114.7 L 125.5 115.1 L 125.7 115.2 L 125.9 115.4 L 126.2 115.6 L 126.8 115.8 L 127.7 115.9 L 129.0 116.0 L 173.0 116.0 L 179.0 91.0 L 181.0 91.0 L 179.0 116.0 L 182.6 118.4 L 185.0 122.0 L 182.6 125.6 L 179.0 128.0 L 129.0 128.0 Z M 88.9 104.9 L 87.4 102.4 L 86.87786817550659 101.64580955505372 L 82.1 102.9 L 74.2 104.6 L 66.4 106.2 L 58.8 107.5 L 51.4 108.8 L 44.1 109.9 L 36.9 110.9 L 29.9 111.8 L 23.0 112.7 L 20.434700107574464 112.96801643371582 L 18.5 116.3 L 16.3 113.4 L 13.6 101.6 L 15.6 101.4 L 22.2 101.3 L 29.0 101.1 L 35.125 100.925 L 35.9 98.6 L 37.2 95.1 L 38.6 91.7 L 39.9 88.2 L 41.2 84.8 L 42.5 81.5 L 44.9 74.7 L 45.76425018310547 72.32331199645996 L 45.7 72.3 L 46.6 70.2 L 57.0 76.4 L 58.9 79.5 L 54.89737787246704 79.91406440734863 L 53.1 82.7 L 51.1 85.9 L 49.0 89.0 L 44.6 95.0 L 42.2 98.0 L 39.93571424484253 100.73601188659669 L 43.2 100.6 L 50.5 100.3 L 58.0 100.0 L 65.7 99.6 L 73.5 99.3 L 81.6 99.1 L 85.029368019104 99.0581784248352 L 83.6 97.2 L 81.4 94.6 L 79.0 92.0 L 76.4 89.3 L 73.6 86.5 L 70.4 83.9 L 71.3 82.4 L 75.1 84.1 L 78.9 85.7 L 82.5 87.5 L 85.8 89.4 L 89.0 91.5 L 91.9 93.7 L 94.6 96.1 L 97.2 98.6 L 99.5 101.2 L 101.7 104.0 L 102.2 108.5 L 99.4 112.2 L 94.9 112.7 L 91.3 109.9 L 90.2 107.4 Z M 153.7 66.0 L 144.0 62.8 L 135.3 59.2 L 127.5 55.3 L 120.7 51.0 L 114.9 46.4 L 110.2 41.4 L 106.7 36.1 L 104.85789470672607 31.1 L 103.75 31.1 L 101.2 36.8 L 95.9 43.5 L 89.0 49.3 L 80.5 54.2 L 70.4 58.5 L 58.8 62.1 L 45.5 65.0 L 30.6 67.2 L 14.1 68.7 L 13.8 66.9 L 30.0 63.4 L 44.3 59.8 L 56.8 55.8 L 67.6 51.5 L 76.4 46.8 L 83.4 41.9 L 88.5 36.8 L 91.8 31.6 L 91.97307691574096 31.1 L 17.0 31.1 L 17.0 27.1 L 93.35769233703613 27.1 L 93.6 26.4 L 94.0 20.9 L 94.0 8.5 L 106.0 10.5 L 109.0 12.5 L 106.0 14.3 L 106.0 20.9 L 104.95421686172486 27.1 L 161.0 27.1 L 171.0 17.1 L 183.0 27.1 L 183.0 31.1 L 107.6625 31.1 L 110.1 33.6 L 114.4 37.2 L 119.3 40.7 L 125.0 43.9 L 131.6 46.9 L 139.1 49.7 L 147.4 52.3 L 156.7 54.6 L 166.9 56.7 L 178.1 58.5 L 187.6 60.2 L 175.8 71.5 L 164.3 68.9 Z " />
</g>
</svg>
