<svg xmlns="http://www.w3.org/2000/svg" xmlns:xlink="http://www.w3.org/1999/xlink" version="1.1" baseProfile="full" viewBox="0 0 200 200" width="200" height="200">
<g fill="black">
<path d="M 138.0 176.6 L 158.0 176.6 L 159.2 176.5 L 160.1 176.3 L 161.0 176.0 L 161.4 175.6 L 161.7 174.7 L 161.9 173.8 L 162.0 172.6 L 162.0 97.9 L 38.0 97.9 L 38.0 181.8 L 26.0 187.8 L 26.0 87.9 L 38.0 93.9 L 162.0 93.9 L 168.0 88.9 L 179.0 97.9 L 174.0 101.9 L 174.0 172.6 L 173.8 175.1 L 173.4 177.6 L 172.6 180.0 L 171.3 182.3 L 169.7 184.3 L 167.7 185.9 L 165.4 187.2 L 163.0 188.0 L 160.5 188.4 L 158.0 188.6 L 158.0 182.6 L 138.0 179.6 Z M 163.0 82.1 L 156.1 78.2 L 149.4 74.1 L 142.9 69.7 L 136.7 65.0 L 130.7 60.0 L 125.1 54.6 L 119.8 48.9 L 115.55081968307495 43.5 L 89.66551723480225 43.5 L 88.0 45.6 L 80.1 53.7 L 71.4 61.3 L 61.7 68.4 L 51.2 74.9 L 39.8 80.9 L 27.5 86.2 L 14.3 90.9 L 13.6 89.2 L 25.9 82.8 L 37.3 76.2 L 47.7 69.4 L 57.2 62.3 L 65.8 54.9 L 73.5 47.2 L 76.59875001907349 43.5 L 20.0 43.5 L 20.0 39.5 L 79.94875001907349 39.5 L 80.2 39.2 L 86.1 30.9 L 91.0 22.2 L 95.0 13.3 L 95.00762367248535 13.303227996826172 L 95.6 12.0 L 106.1 18.0 L 108.0 21.1 L 104.2309356689453 21.554887104034425 L 101.0 27.7 L 94.9 36.9 L 92.83793106079102 39.5 L 158.0 39.5 L 168.0 29.5 L 180.0 39.5 L 180.0 43.5 L 119.23023252487182 43.5 L 122.6 45.8 L 128.8 50.1 L 135.1 54.2 L 141.4 58.1 L 147.9 61.8 L 154.4 65.2 L 161.2 68.4 L 168.0 71.4 L 175.1 74.1 L 182.3 76.6 L 189.2 79.2 L 177.6 89.0 L 170.2 85.7 Z " />
</g>
</svg>
