<svg xmlns="http://www.w3.org/2000/svg" xmlns:xlink="http://www.w3.org/1999/xlink" version="1.1" baseProfile="full" viewBox="0 0 200 200" width="200" height="200">
<g fill="black">
<path d="M 117.8 41.0 L 139.9 41.0 L 139.9 12.0 L 151.9 14.0 L 154.9 16.0 L 151.9 17.8 L 151.9 41.0 L 164.0 41.0 L 174.0 31.0 L 186.0 41.0 L 186.0 45.0 L 117.8 45.0 L 117.8 100.0 L 143.4 100.0 L 143.4 77.0 L 124.1 77.0 L 124.1 73.0 L 143.4 73.0 L 143.4 52.0 L 154.4 54.0 L 157.1 56.0 L 154.4 57.723404216766355 L 154.4 73.0 L 165.2 73.0 L 170.7 68.0 L 181.2 77.0 L 176.2 80.5 L 176.2 99.0666666984558 L 180.0 94.0 L 186.0 100.0 L 186.0 104.0 L 176.2 104.0 L 176.2 136.0 L 165.2 141.5 L 165.2 130.0 L 152.6192307472229 130.0 L 152.1 133.6 L 152.0592656135559 133.7717926979065 L 152.4 134.7 L 155.4 142.0 L 158.4 148.5 L 161.6 154.4 L 165.0 159.5 L 168.6 163.9 L 172.4 167.6 L 176.3 170.7 L 180.4 173.1 L 184.7 174.9 L 190.8 177.6 L 179.4 187.0 L 173.9 183.8 L 169.0 179.9 L 164.5 175.3 L 160.5 170.2 L 157.1 164.4 L 154.2 158.1 L 151.7 151.2 L 149.7 143.8 L 149.67704429626465 143.65696821212768 L 146.7 152.3 L 142.9 160.4 L 138.2 167.7 L 132.8 174.2 L 126.6 179.7 L 119.7 184.2 L 112.1 187.7 L 111.4 186.2 L 117.7 181.3 L 123.3 176.0 L 128.2 170.3 L 132.4 163.9 L 135.9 157.0 L 138.7 149.4 L 140.9 141.1 L 142.4 132.1 L 142.57319583892823 130.0 L 123.2 130.0 L 123.2 126.0 L 142.9030927658081 126.0 L 143.2 122.4 L 143.4 111.9 L 143.4 104.0 L 117.8 104.0 L 117.3 115.2 L 116.6 125.9 L 115.6 135.9 L 114.3 145.4 L 112.7 154.3 L 110.9 162.6 L 108.7 170.3 L 106.1 177.4 L 103.1 183.7 L 99.7 189.3 L 98.1 188.6 L 99.6 182.4 L 100.81358184814454 176.67882823944092 L 93.9 181.8 L 87.5 174.6 L 81.7 166.6 L 76.6 157.8 L 72.1 148.2 L 68.2 137.9 L 64.9 126.7 L 62.2 114.7 L 60.2 102.0 L 59.27074155807495 92.27852697372437 L 57.2 105.7 L 53.5 121.8 L 48.7 136.3 L 43.0 149.4 L 36.3 161.0 L 28.5 171.0 L 19.8 179.2 L 10.1 185.7 L 9.1 184.2 L 17.2 176.4 L 24.4 167.6 L 30.7 157.6 L 36.1 146.2 L 40.7 133.6 L 44.4 119.5 L 47.3 104.0 L 49.2 87.1 L 49.92732238769531 75.0 L 11.2 75.0 L 11.2 71.0 L 50.167759609222415 71.0 L 50.3 68.8 L 50.5 49.0 L 50.5 15.0 L 62.5 17.0 L 65.5 19.0 L 62.5 20.8 L 62.5 49.0 L 61.7 69.3 L 61.5380952835083 71.0 L 79.7 71.0 L 89.7 61.0 L 101.7 71.0 L 101.7 75.0 L 61.15714282989502 75.0 L 60.92101612091064 77.47933025360108 L 63.0 87.8 L 66.0 100.9 L 69.2 113.0 L 72.9 124.2 L 76.9 134.5 L 81.3 143.9 L 86.2 152.3 L 91.4 159.8 L 97.0 166.4 L 101.87164850234986 171.10650787353515 L 102.3 168.8 L 103.4 161.2 L 104.4 153.1 L 105.1 144.4 L 105.6 135.1 L 105.9 125.3 L 106.0 114.9 L 105.8 104.0 L 105.8 35.0 Z M 154.4 104.0 L 154.4 112.0 L 153.6 123.2 L 153.19615383148192 126.0 L 165.2 126.0 L 165.2 104.0 Z M 154.4 77.0 L 154.4 100.0 L 165.2 100.0 L 165.2 77.0 Z " />
</g>
</svg>
