<svg xmlns="http://www.w3.org/2000/svg" xmlns:xlink="http://www.w3.org/1999/xlink" version="1.1" baseProfile="full" viewBox="0 0 200 200" width="200" height="200">
<g fill="black">
<path d="M 70.0 180.1 L 90.0 180.1 L 91.2 180.0 L 92.1 179.9 L 92.7 179.7 L 93.0 179.5 L 93.2 179.3 L 93.4 179.2 L 93.5 178.8 L 93.7 178.2 L 93.9 177.3 L 94.0 176.1 L 94.0 142.26666669845582 L 91.4 144.0 L 82.6 149.5 L 74.0 154.6 L 65.6 159.4 L 57.5 163.9 L 49.7 168.1 L 42.1 171.9 L 34.8 175.5 L 27.8 178.8 L 24.87028036117554 180.09252338409425 L 24.0 183.9 L 21.0 181.8 L 14.9 171.4 L 16.7 170.6 L 23.5 168.3 L 30.6 165.6 L 38.0 162.8 L 45.8 159.6 L 53.8 156.3 L 62.3 152.6 L 71.0 148.8 L 80.1 144.8 L 89.6 140.6 L 94.0 138.73333330154418 L 94.0 101.9 L 16.0 101.9 L 16.0 97.9 L 94.0 97.9 L 94.0 63.9 L 106.0 65.9 L 109.0 67.9 L 106.0 69.7 L 106.0 97.9 L 162.0 97.9 L 172.0 87.9 L 184.0 97.9 L 184.0 101.9 L 106.0 101.9 L 106.0 109.42941179275513 L 106.1 109.4 L 110.7 117.7 L 115.7 125.5 L 121.3 132.9 L 125.20977668762207 137.18213634490968 L 127.6 135.2 L 131.6 131.9 L 135.5 128.7 L 139.4 125.7 L 143.2 122.7 L 146.9 119.7 L 150.5 116.8 L 153.9 113.9 L 157.3 111.1 L 159.76234369277955 108.86850109100342 L 159.7 108.8 L 160.22173910140992 108.45217390060425 L 160.5 108.2 L 160.5338747024536 108.24408349990844 L 160.6 108.2 L 167.8 117.7 L 168.1 121.3 L 164.50404272079467 119.92699813842773 L 164.1 120.2 L 160.2 122.6 L 156.2 125.0 L 152.0 127.4 L 147.8 129.7 L 143.4 132.0 L 138.9 134.2 L 134.3 136.3 L 129.4 138.3 L 127.01452875137329 139.15876960754395 L 127.6 139.8 L 134.5 146.2 L 142.1 152.2 L 150.5 157.8 L 159.7 162.9 L 169.6 167.6 L 180.4 171.9 L 187.0 174.5 L 175.5 184.2 L 164.3 179.0 L 153.9 173.2 L 144.4 167.0 L 135.8 160.3 L 128.1 153.0 L 121.3 145.3 L 115.5 137.1 L 110.6 128.5 L 106.9 119.4 L 106.0 115.98000001907349 L 106.0 176.1 L 105.8 178.6 L 105.4 181.1 L 104.6 183.5 L 103.3 185.8 L 101.7 187.8 L 99.7 189.5 L 97.4 190.7 L 95.0 191.5 L 92.5 191.9 L 90.0 192.1 L 90.0 186.1 L 70.0 183.1 Z M 54.8 133.4 L 52.6 130.6 L 50.3 127.8 L 47.7 125.0 L 44.9 122.2 L 41.8 119.4 L 38.6 116.5 L 35.2 113.6 L 31.4 110.7 L 32.3 109.1 L 41.1 112.5 L 45.2 114.4 L 49.1 116.5 L 52.8 118.8 L 56.2 121.2 L 59.5 123.7 L 62.6 126.3 L 65.4 129.1 L 68.1 132.0 L 69.1 136.4 L 66.7 140.3 L 62.2 141.3 L 58.3 138.9 L 56.7 136.2 Z M 140.7 87.7 L 138.5 85.2 L 136.2 82.8 L 133.7 80.4 L 131.0 78.1 L 128.2 75.8 L 125.2 73.5 L 122.0 71.1 L 118.5 69.0 L 119.2 67.4 L 123.2 68.4 L 127.2 69.5 L 131.0 70.7 L 134.7 72.3 L 138.2 74.0 L 141.5 75.8 L 144.8 77.9 L 147.9 80.1 L 150.8 82.5 L 153.6 85.0 L 154.9 89.4 L 152.9 93.5 L 148.5 94.8 L 144.4 92.8 L 142.6 90.2 Z M 153.6 68.3 L 143.9 64.8 L 135.2 61.1 L 127.4 57.0 L 120.6 52.5 L 114.8 47.6 L 110.1 42.4 L 106.7 36.8 L 104.84915256500244 31.6 L 103.73374996185302 31.6 L 101.3 37.5 L 96.0 44.5 L 89.1 50.6 L 80.6 55.9 L 70.5 60.4 L 58.8 64.2 L 45.6 67.4 L 30.6 69.7 L 14.1 71.4 L 13.8 69.6 L 29.9 66.0 L 44.3 62.1 L 56.8 58.0 L 67.5 53.4 L 76.3 48.6 L 83.3 43.4 L 88.4 38.0 L 91.8 32.5 L 92.08421049118041 31.6 L 17.0 31.6 L 17.0 27.6 L 93.34736843109131 27.6 L 93.6 26.8 L 94.0 20.8 L 94.0 7.8 L 106.0 9.8 L 109.0 11.8 L 106.0 13.6 L 106.0 20.8 L 104.90574712753296 27.6 L 161.0 27.6 L 171.0 17.6 L 183.0 27.6 L 183.0 31.6 L 107.56046514511108 31.6 L 110.1 34.4 L 114.4 38.3 L 119.4 42.0 L 125.1 45.4 L 131.7 48.7 L 139.2 51.7 L 147.5 54.4 L 156.8 56.9 L 167.0 59.1 L 178.2 61.1 L 187.6 62.8 L 175.7 74.0 L 164.2 71.3 Z " />
</g>
</svg>
