<svg xmlns="http://www.w3.org/2000/svg" xmlns:xlink="http://www.w3.org/1999/xlink" version="1.1" baseProfile="full" viewBox="0 0 200 200" width="200" height="200">
<g fill="black">
<path d="M 163.4 177.1 L 157.0 172.4 L 151.4 167.1 L 146.6 161.5 L 142.8 155.4 L 139.9 148.9 L 137.9 142.1 L 136.9 135.1 L 136.9586338043213 132.9598671913147 L 135.6 137.8 L 131.0 148.1 L 124.9 157.3 L 117.5 165.3 L 108.7 172.0 L 98.8 177.5 L 87.6 181.6 L 75.2 184.5 L 74.7 182.7 L 86.2 178.1 L 96.3 172.7 L 104.9 166.7 L 112.1 159.9 L 118.0 152.3 L 122.7 143.9 L 126.1 134.7 L 127.39411764144897 128.7 L 106.0 128.7 L 106.0 124.7 L 128.25686273574829 124.7 L 128.3 124.5 L 129.2 113.3 L 129.0163577079773 102.09781894683837 L 129.0 102.1 L 128.9 98.8 L 141.0 100.5 L 144.1 102.4 L 140.88052186965942 104.50251626968384 L 140.6 113.9 L 139.04479999542235 124.7 L 164.0 124.7 L 174.0 114.7 L 186.0 124.7 L 186.0 128.7 L 139.21818180084227 128.7 L 141.0 134.3 L 143.5 140.3 L 146.4 145.8 L 149.8 150.9 L 153.8 155.5 L 158.4 159.7 L 163.6 163.5 L 169.5 167.0 L 176.1 170.2 L 183.4 173.0 L 190.0 175.6 L 178.5 185.3 L 170.6 181.5 Z M 85.6 161.1 L 83.3 158.7 L 80.7 156.3 L 77.8 153.8 L 74.6 151.4 L 71.2 148.9 L 67.6 146.4 L 63.7 143.7 L 61.970493412017824 142.67053174972534 L 60.4 147.0 L 55.4 156.1 L 49.2 164.1 L 41.8 170.9 L 33.3 176.6 L 23.8 180.9 L 13.2 183.9 L 12.7 182.2 L 22.2 177.5 L 30.4 172.1 L 37.5 166.0 L 43.3 159.3 L 48.1 151.8 L 51.8 143.5 L 54.4 134.3 L 55.28712873458862 128.7 L 14.0 128.7 L 14.0 124.7 L 55.92079210281372 124.7 L 56.0 124.2 L 56.5 113.2 L 56.0 101.2 L 56.04356842041015 101.19709539413452 L 55.9 98.9 L 68.0 100.4 L 71.1 102.2 L 67.96983213424683 104.35199041366577 L 67.9 113.5 L 66.6966941833496 124.7 L 80.0 124.7 L 90.0 114.7 L 102.0 124.7 L 102.0 128.7 L 65.90803575515747 128.7 L 64.1 136.8 L 62.85932674407959 140.22023429870606 L 65.0 140.8 L 69.6 142.1 L 74.0 143.6 L 78.2 145.2 L 82.1 147.0 L 85.8 148.9 L 89.2 150.9 L 92.5 153.1 L 95.5 155.3 L 98.4 157.7 L 99.9 162.0 L 98.0 166.2 L 93.7 167.7 L 89.5 165.8 L 87.7 163.5 Z M 101.6 94.7 L 100.8 92.4 L 99.7 89.9 L 98.3 87.3 L 96.5 84.6 L 94.4 81.8 L 92.1 78.9 L 89.4 75.8 L 86.2 72.9 L 87.3 71.4 L 91.1 73.6 L 94.8 75.6 L 98.2 77.7 L 101.3 80.0 L 104.2 82.3 L 106.7 84.8 L 109.0 87.3 L 111.0 90.0 L 112.6 92.8 L 114.0 95.8 L 113.3 100.3 L 109.7 103.1 L 105.2 102.4 L 102.4 98.8 L 102.1 96.8 Z M 155.7 94.3 L 147.7 89.5 L 140.3 84.2 L 133.5 78.5 L 127.5 72.3 L 122.3 65.7 L 117.8 58.6 L 114.2 51.1 L 112.08101263046265 44.9 L 97.07692308425904 44.9 L 92.0 54.8 L 84.8 65.3 L 76.5 74.7 L 67.1 82.9 L 56.6 89.9 L 45.2 95.6 L 32.6 100.0 L 19.2 103.0 L 18.7 101.3 L 31.4 96.4 L 42.8 90.7 L 53.1 84.3 L 62.3 77.1 L 70.3 68.9 L 77.3 59.9 L 83.2 49.9 L 85.44770641326905 44.9 L 20.0 44.9 L 20.0 40.9 L 87.24587154388428 40.9 L 88.1 39.0 L 92.0 27.0 L 94.78163261413575 14.626530647277832 L 95.2 12.2 L 106.6 16.4 L 109.2 19.0 L 105.57453184127807 20.25243444442749 L 102.9 30.3 L 98.8421875 40.9 L 161.0 40.9 L 171.0 30.9 L 183.0 40.9 L 183.0 44.9 L 114.87272729873658 44.9 L 117.8 49.1 L 122.6 55.3 L 127.8 61.1 L 133.5 66.4 L 139.6 71.3 L 146.2 75.9 L 153.3 80.0 L 161.0 83.8 L 169.3 87.2 L 178.1 90.2 L 185.4 92.7 L 173.8 102.6 L 164.4 98.7 Z " />
</g>
</svg>
