<svg xmlns="http://www.w3.org/2000/svg" xmlns:xlink="http://www.w3.org/1999/xlink" version="1.1" baseProfile="full" viewBox="0 0 200 200" width="200" height="200">
<g fill="black">
<path d="M 166.3 182.3 L 161.4 178.2 L 157.0 173.8 L 153.2 169.0 L 149.9 163.8 L 147.3 158.3 L 145.4 152.5 L 144.62992067337035 148.94578771591188 L 142.8 154.3 L 139.2 161.4 L 134.6 167.9 L 129.2 173.5 L 122.9 178.3 L 115.8 182.2 L 107.9 185.3 L 99.2 187.4 L 98.7 185.7 L 106.4 181.8 L 113.1 177.6 L 118.9 173.0 L 123.8 168.1 L 127.8 162.8 L 131.0 157.0 L 133.4 150.8 L 135.0 144.0 L 135.36986303329468 141.0 L 100.5 141.0 L 100.5 137.0 L 135.86301374435425 137.0 L 135.9 136.7 L 136.0 128.8 L 136.0 113.8 L 148.0 115.8 L 151.0 117.8 L 148.0 119.6 L 148.0 128.8 L 147.27912092208862 137.0 L 161.5 137.0 L 171.5 127.0 L 183.5 137.0 L 183.5 141.0 L 146.58000001907348 141.0 L 146.42756757736205 141.76216220855713 L 148.1 145.3 L 150.8 150.3 L 153.7 155.0 L 156.9 159.2 L 160.3 163.0 L 164.1 166.5 L 168.3 169.6 L 172.8 172.4 L 177.7 174.9 L 183.1 177.1 L 189.3 179.8 L 177.8 189.2 L 171.8 186.0 Z M 36.2 121.8 L 36.2 119.8 L 36.0 118.6 L 35.6 117.3 L 35.1 115.9 L 34.4 114.4 L 33.6 112.8 L 32.3 111.7 L 33.4 110.2 L 34.8 111.3 L 36.6 111.9 L 38.3 112.6 L 39.9 113.4 L 41.4 114.2 L 42.8 115.2 L 44.1 116.3 L 45.3 117.5 L 46.4 118.9 L 47.3 120.3 L 46.6 124.9 L 45.7777777671814 125.5 L 61.6470588684082 125.5 L 62.8 124.1 L 63.7 122.0 L 64.5 120.0 L 65.4 118.1 L 66.2 116.3 L 67.6 112.7 L 68.8 109.5 L 68.99889221191407 108.86354484558106 L 68.7 108.7 L 69.8 107.1 L 79.3 114.5 L 80.7 117.8 L 75.71487607955933 117.62809915542603 L 75.0 118.2 L 73.4 119.5 L 71.8 120.7 L 70.1 122.0 L 68.3 123.2 L 66.4 124.4 L 64.4 125.5 L 75.01818180084229 125.5 L 83.2 116.5 L 93.2 125.5 L 93.2 129.5 L 60.5 129.5 L 60.5 142.5 L 71.41818180084229 142.5 L 79.6 133.5 L 89.6 142.5 L 89.6 146.5 L 60.5 146.5 L 60.5 159.1 L 75.3 159.1 L 85.3 149.1 L 97.3 159.1 L 97.3 163.1 L 60.5 163.1 L 60.5 181.4 L 48.5 187.4 L 48.5 163.1 L 11.6 163.1 L 11.6 159.1 L 48.5 159.1 L 48.5 146.5 L 19.3 146.5 L 19.3 142.5 L 48.5 142.5 L 48.5 129.5 L 15.7 129.5 L 15.7 125.5 L 37.37837839126587 125.5 L 35.7 123.2 L 36.0 122.6 Z M 185.3 24.3 L 185.3 28.3 L 153.1 28.3 L 153.1 42.3 L 167.0 42.3 L 173.0 37.3 L 184.0 46.3 L 179.0 50.3 L 179.0 108.0 L 167.0 114.0 L 167.0 102.0 L 118.4 102.0 L 118.4 114.0 L 106.4 120.0 L 106.4 36.3 L 118.4 42.3 L 127.8 42.3 L 127.8 28.3 L 100.6 28.3 L 100.6 24.3 L 163.3 24.3 L 173.3 14.3 Z M 32.1 68.9 L 77.9 68.9 L 83.9 63.9 L 94.9 72.9 L 89.9 76.9 L 89.9 105.5 L 77.9 111.5 L 77.9 105.5 L 32.1 105.5 L 20.1 111.5 L 20.1 62.9 Z M 32.1 88.7 L 32.1 101.5 L 77.9 101.5 L 77.9 88.7 Z M 118.4 88.7 L 118.4 98.0 L 167.0 98.0 L 167.0 88.7 Z M 164.4 65.0 L 166.4 65.0 L 164.4 70.0 L 166.5 71.4 L 167.0 72.15 L 167.0 46.3 L 153.1 46.3 L 153.1 63.5 L 153.0 64.9 L 153.0 66.0 L 153.1 66.8 L 153.3 67.4 L 153.6 68.0 L 153.9 68.5 L 154.5 69.0 L 155.4 69.4 L 156.6 69.8 L 158.1 70.0 L 160.9 70.0 Z M 32.1 72.9 L 32.1 84.7 L 77.9 84.7 L 77.9 72.9 Z M 118.4 46.3 L 118.4 77.48000001907349 L 118.7 77.3 L 121.1 75.0 L 123.1 72.5 L 124.8 69.7 L 126.0 66.6 L 127.0 63.1 L 127.7 59.2 L 128.0 54.8 L 128.1 49.9 L 127.9 46.3 Z M 40.3 37.8 L 69.7 37.8 L 75.7 32.8 L 86.7 41.8 L 81.7 45.8 L 81.7 58.1 L 69.7 64.1 L 69.7 58.1 L 40.3 58.1 L 28.3 64.1 L 28.3 31.8 Z M 40.3 41.8 L 40.3 54.1 L 69.7 54.1 L 69.7 41.8 Z M 137.8 28.3 L 137.8 42.3 L 143.1 42.3 L 143.1 28.3 Z M 13.4 26.1 L 49.0 26.1 L 49.0 12.4 L 61.0 14.4 L 64.0 16.4 L 61.0 18.2 L 61.0 26.1 L 78.41818180084229 26.1 L 86.6 17.1 L 96.6 26.1 L 96.6 30.1 L 13.4 30.1 Z M 153.5 76.8 L 151.4 76.2 L 149.4 75.3 L 147.5 74.0 L 146.0 72.3 L 144.8 70.4 L 143.9 68.2 L 143.3 65.9 L 143.1 63.5 L 143.1 46.3 L 137.6300000190735 46.3 L 137.5 50.2 L 136.8 55.7 L 135.6 60.8 L 134.1 65.4 L 132.1 69.5 L 129.6 73.0 L 126.7 75.9 L 123.5 78.1 L 119.9 79.6 L 118.4 80.00540542602539 L 118.4 84.7 L 167.0 84.7 L 167.0 74.85 L 166.5 75.6 L 164.4 77.0 L 155.7 77.0 Z " />
</g>
</svg>
