<svg xmlns="http://www.w3.org/2000/svg" xmlns:xlink="http://www.w3.org/1999/xlink" version="1.1" baseProfile="full" viewBox="0 0 200 200" width="200" height="200">
<g fill="black">
<path d="M 106.0 23.0 L 106.0 27.0 L 34.0 27.0 L 34.0 98.0 L 86.0 98.0 L 96.0 88.0 L 108.0 98.0 L 108.0 102.0 L 34.0 102.0 L 22.0 108.0 L 22.0 17.0 L 34.0 23.0 L 84.0 23.0 L 94.0 13.0 Z M 178.0 114.3 L 178.0 118.3 L 144.87894735336303 118.3 L 152.2 122.2 L 154.2 125.2 L 150.43511295318604 125.86050653457642 L 149.5 127.8 L 146.6 133.2 L 143.4 138.5 L 142.46480808258056 139.88942794799806 L 143.4 140.3 L 147.5 141.8 L 151.2 143.4 L 154.7 145.2 L 158.0 147.1 L 161.0 149.0 L 163.7 151.0 L 166.2 153.1 L 168.5 155.3 L 170.5 157.6 L 171.2 162.1 L 168.5 165.9 L 164.0 166.5 L 160.3 163.8 L 159.4 161.9 L 158.3 159.9 L 156.9 157.7 L 155.1 155.5 L 153.1 153.1 L 148.1 148.1 L 145.2 145.5 L 142.0 142.7 L 141.03982744216918 142.0065420150757 L 139.9 143.7 L 136.1 148.8 L 132.1 153.7 L 127.7 158.4 L 123.0 163.0 L 118.0 167.4 L 112.6 171.5 L 111.3 170.2 L 115.2 164.8 L 119.0 159.5 L 122.6 154.3 L 126.0 149.1 L 129.1 144.0 L 132.0 138.8 L 134.6 133.6 L 137.0 128.4 L 139.1 123.1 L 140.6642707824707 118.81883792877197 L 140.6 118.8 L 140.79565219879152 118.3 L 106.0 118.3 L 106.0 177.3 L 164.0 177.3 L 174.0 167.3 L 186.0 177.3 L 186.0 181.3 L 14.0 181.3 L 14.0 177.3 L 94.0 177.3 L 94.0 118.3 L 58.85862064361572 118.3 L 66.1 122.3 L 68.1 125.3 L 64.3342342376709 125.89459457397462 L 63.3 128.0 L 60.1 133.6 L 56.7 139.1 L 55.87032260894775 140.34451608657838 L 59.6 141.8 L 63.5 143.6 L 67.1 145.5 L 70.5 147.5 L 73.7 149.7 L 76.7 151.9 L 79.4 154.3 L 82.0 156.7 L 84.3 159.3 L 85.1 163.8 L 82.6 167.7 L 78.1 168.5 L 74.3 166.0 L 73.0 163.6 L 71.5 161.2 L 69.8 158.7 L 67.8 156.2 L 65.5 153.6 L 63.0 151.0 L 60.2 148.4 L 57.2 145.6 L 54.14736843109131 142.92894735336304 L 53.1 144.5 L 49.1 149.7 L 44.8 154.8 L 40.3 159.8 L 35.4 164.5 L 30.2 169.1 L 24.6 173.3 L 23.3 172.0 L 27.4 166.5 L 31.4 161.0 L 35.2 155.6 L 38.8 150.2 L 42.1 144.9 L 45.2 139.5 L 48.0 134.1 L 50.6 128.7 L 53.0 123.2 L 54.63264722824097 118.71022005081177 L 54.6 118.7 L 54.78181819915771 118.3 L 22.0 118.3 L 22.0 114.3 L 156.0 114.3 L 165.69708738327026 104.60291261672974 L 162.5 104.1 L 154.2 102.0 L 146.6 99.4 L 139.6 96.2 L 137.71047620773317 95.04190473556518 L 137.2 95.4 L 129.9 99.6 L 122.2 103.3 L 114.0 106.4 L 105.3 108.9 L 96.2 110.8 L 95.7 109.1 L 104.1 105.4 L 111.9 101.5 L 119.2 97.4 L 126.0 93.1 L 130.25623559951782 89.94214782714843 L 127.9 88.1 L 123.2 83.1 L 119.3 77.6 L 116.4 71.7 L 114.73384618759155 66.0 L 108.0 66.0 L 108.0 62.0 L 155.0 62.0 L 155.16684494018554 61.860962581634524 L 155.8 60.8 L 156.1690929412842 61.025755882263184 L 161.0 57.0 L 172.0 66.0 L 167.0 69.0 L 163.72608699798585 70.36413040161133 L 161.3 73.7 L 156.0 79.9 L 150.2 85.5 L 147.17945203781127 87.99315071105957 L 150.2 89.0 L 157.0 90.6 L 164.5 91.7 L 172.5 92.4 L 183.2 93.3 L 171.4 105.5 L 166.518559551239 104.73213300704955 Z M 117.31764707565307 66.0 L 120.0 69.6 L 124.0 74.1 L 128.3 78.0 L 133.0 81.5 L 137.50912532806396 84.0147045135498 L 138.0 83.6 L 143.2 78.4 L 147.9 72.8 L 152.1 67.0 L 152.69677419662474 66.0 Z M 95.1 38.1 L 97.2 41.1 L 92.42564630508423 41.840847969055176 L 92.3 42.0 L 90.7 43.9 L 88.9 45.7 L 87.0 47.4 L 85.0 49.1 L 82.8 50.7 L 80.4 52.3 L 77.9 53.8 L 75.6 55.6 L 74.3 54.3 L 76.3 52.1 L 77.7 49.6 L 79.0 47.3 L 80.2 45.1 L 81.2 42.9 L 82.1 40.9 L 82.8 38.9 L 83.8 35.3 L 83.87696332931519 34.68429317474365 L 83.6 34.6 L 84.5 32.3 Z M 178.0 33.5 L 180.0 33.5 L 178.0 46.5 L 180.7 48.3 L 182.5 51.0 L 180.7 53.7 L 178.0 55.5 L 160.5 55.5 L 158.2 55.2 L 155.9 54.6 L 153.7 53.6 L 151.7 52.2 L 150.1 50.3 L 148.7 48.2 L 147.8 45.9 L 147.2 43.5 L 147.0 41.0 L 147.0 25.0 L 124.54137935638428 25.0 L 124.3 27.0 L 123.3 32.4 L 121.9 37.6 L 120.1 42.5 L 118.0 47.0 L 115.6 51.2 L 112.9 55.0 L 109.8 58.3 L 106.3 61.2 L 102.5 63.6 L 101.99230766296387 63.0 L 67.06849317550659 63.0 L 66.43649635314941 64.77445259094239 L 69.6 66.5 L 72.9 68.0 L 76.0 69.6 L 78.8 71.3 L 81.3 73.0 L 83.7 74.8 L 85.8 76.7 L 87.7 78.7 L 89.3 80.9 L 90.7 83.2 L 90.3 87.8 L 86.9 90.8 L 82.3 90.4 L 79.3 87.0 L 79.2 85.6 L 78.8 84.1 L 78.2 82.3 L 77.2 80.3 L 76.0 78.2 L 74.5 76.0 L 72.6 73.7 L 70.5 71.2 L 68.2 68.6 L 65.72439022064209 66.55121955871581 L 62.7 72.6 L 58.7 78.4 L 54.1 83.4 L 48.7 87.5 L 42.8 90.7 L 36.3 92.8 L 35.6 91.1 L 40.9 87.4 L 45.4 83.3 L 49.3 78.9 L 52.5 74.1 L 55.2 68.8 L 57.264406776428224 63.0 L 38.0 63.0 L 38.0 59.0 L 58.2 59.0 L 58.8 56.4 L 59.8 49.3 L 60.2 41.5 L 60.023748302459715 34.09742727279663 L 60.0 34.1 L 59.9 30.7 L 72.0 32.8 L 75.0 34.8 L 71.78305311203003 36.83521127700806 L 71.5 42.1 L 70.4 50.8 L 68.6 58.7 L 68.49315071105957 59.0 L 81.0 59.0 L 91.0 49.0 L 103.0 59.0 L 103.0 59.86521739959717 L 103.7 58.8 L 105.8 55.2 L 107.6 51.6 L 109.1 47.8 L 110.4 43.9 L 111.4 39.7 L 112.2 35.4 L 112.7 30.7 L 113.0 25.9 L 113.0 20.7 L 113.3 14.7 L 124.63999996185302 21.0 L 147.0 21.0 L 153.0 16.0 L 164.0 25.0 L 159.0 29.0 L 159.0 41.0 L 158.9 42.2 L 158.9 43.2 L 159.0 43.9 L 159.0 44.4 L 159.2 44.7 L 159.4 45.1 L 159.8 45.5 L 160.5 45.9 L 161.6 46.2 L 163.0 46.5 L 173.5 46.5 Z M 45.4 46.3 L 45.2 45.0 L 44.8 43.6 L 44.2 42.1 L 43.3 40.5 L 42.2 38.9 L 40.9 37.2 L 39.4 35.5 L 37.4 34.2 L 38.2 32.6 L 40.5 33.6 L 42.9 34.2 L 45.2 35.0 L 47.3 36.0 L 49.3 37.1 L 51.1 38.4 L 52.9 39.9 L 54.4 41.6 L 55.8 43.4 L 56.9 45.5 L 56.3 50.0 L 52.7 52.8 L 48.2 52.2 L 45.4 48.6 L 45.5 47.5 Z " />
</g>
</svg>
