<svg xmlns="http://www.w3.org/2000/svg" xmlns:xlink="http://www.w3.org/1999/xlink" version="1.1" baseProfile="full" viewBox="0 0 200 200" width="200" height="200">
<g fill="black">
<path d="M 89.4 143.0 L 88.3 145.3 L 86.8 147.3 L 85.0 149.1 L 82.9 150.6 L 80.6 151.7 L 78.2 152.4 L 75.7 152.8 L 73.2 153.0 L 73.2 147.0 L 67.25287008285522 146.10793046951295 L 67.7 147.1 L 71.1 153.3 L 74.9 158.6 L 78.8 163.1 L 82.9 166.8 L 87.3 169.8 L 91.8 172.0 L 97.4 174.7 L 86.1 183.9 L 80.3 180.2 L 75.0 175.6 L 70.4 170.3 L 66.4 164.3 L 62.9 157.6 L 60.0 150.3 L 58.34136123657227 144.77120418548583 L 53.2 144.0 L 53.2 141.0 L 57.33103446960449 141.0 L 55.8 133.6 L 55.04605054855347 127.69406299591064 L 54.1 132.5 L 50.8 144.0 L 46.5 154.4 L 41.4 163.6 L 35.3 171.5 L 28.3 178.0 L 20.6 183.2 L 12.0 186.8 L 11.3 185.1 L 18.5 180.0 L 24.7 174.1 L 30.2 167.4 L 34.8 159.7 L 38.7 151.0 L 41.9 141.3 L 44.3 130.4 L 46.0 118.4 L 46.16363639831543 116.0 L 29.042162132263183 116.0 L 28.2 123.6 L 15.6 128.2 L 21.0 79.3 L 31.371232891082762 86.0 L 47.0 86.0 L 47.0 63.0 L 18.4 63.0 L 18.4 59.0 L 47.0 59.0 L 47.0 41.0 L 12.2 41.0 L 12.2 37.0 L 47.0 37.0 L 47.0 14.0 L 59.0 16.0 L 62.0 18.0 L 59.0 19.8 L 59.0 37.0 L 71.8 37.0 L 81.8 27.0 L 93.8 37.0 L 93.8 41.0 L 59.0 41.0 L 59.0 59.0 L 73.8 59.0 L 79.8 54.0 L 90.8 63.0 L 85.8 67.0 L 85.8 94.0 L 73.8 100.0 L 73.8 90.0 L 59.0 90.0 L 59.0 91.0 L 58.2 105.9 L 57.49784173965454 112.0 L 81.0 112.0 L 87.0 107.0 L 98.0 116.0 L 93.0 119.0 L 92.70165748596192 119.12430934906006 L 92.6 120.7 L 92.4 123.6 L 92.2 126.3 L 92.0 128.8 L 91.8 131.0 L 91.6 133.1 L 91.3 135.0 L 91.1 136.7 L 90.9 138.2 L 90.3 140.7 Z M 188.8 98.3 L 188.8 102.3 L 148.5 102.3 L 148.5 113.9 L 170.8 113.9 L 176.8 108.9 L 187.8 117.9 L 182.8 121.9 L 182.8 173.9 L 170.8 179.9 L 170.8 167.9 L 114.1 167.9 L 114.1 179.9 L 102.1 185.9 L 102.1 107.9 L 114.1 113.9 L 136.5 113.9 L 136.5 102.3 L 96.7 102.3 L 96.7 98.3 L 170.61818180084228 98.3 L 178.8 89.3 Z M 157.2 144.1 L 155.9 141.6 L 154.4 139.2 L 152.7 136.9 L 150.9 134.8 L 148.9 132.7 L 146.7 130.6 L 145.29631729125975 129.4770538330078 L 144.0 132.6 L 141.2 137.3 L 137.6 141.5 L 133.5 145.2 L 128.9 148.3 L 123.6 150.8 L 117.9 152.6 L 114.1 153.3354838371277 L 114.1 163.9 L 170.8 163.9 L 170.8 117.9 L 148.13166666030884 117.9 L 147.7 121.6 L 146.42658605575562 126.43897285461426 L 148.6 126.9 L 151.8 128.0 L 154.9 129.5 L 157.9 131.3 L 160.7 133.3 L 163.3 135.7 L 165.8 138.3 L 168.0 141.2 L 170.1 144.4 L 170.3 148.9 L 167.3 152.4 L 162.8 152.5 L 159.3 149.5 L 158.3 146.7 Z M 114.1 117.9 L 114.1 150.4888889312744 L 116.5 149.2 L 121.1 146.1 L 125.1 142.9 L 128.5 139.6 L 131.2 136.2 L 133.3 132.5 L 134.8 128.6 L 135.9 124.5 L 136.4 120.1 L 136.44583330154418 117.9 Z M 114.7 57.0 L 169.5 57.0 L 175.5 52.0 L 186.5 61.0 L 181.5 65.0 L 181.5 83.4 L 169.5 89.4 L 169.5 83.4 L 114.7 83.4 L 102.7 89.4 L 102.7 51.0 Z M 59.0 63.0 L 59.0 86.0 L 73.8 86.0 L 73.8 63.0 Z M 114.7 61.0 L 114.7 79.4 L 169.5 79.4 L 169.5 61.0 Z M 120.6 22.6 L 163.6 22.6 L 169.6 17.6 L 180.6 26.6 L 175.6 30.6 L 175.6 46.2 L 163.6 52.2 L 163.6 46.2 L 120.6 46.2 L 108.6 52.2 L 108.6 16.6 Z M 120.6 26.6 L 120.6 42.2 L 163.6 42.2 L 163.6 26.6 Z M 79.4 133.4 L 79.7 131.8 L 79.9 129.9 L 80.1 127.7 L 80.3 125.3 L 80.5 122.7 L 80.7 119.9 L 80.8 116.9 L 80.85454549789429 116.0 L 57.03741006851196 116.0 L 56.897126007080075 117.21871776580811 L 58.7 123.4 L 61.5 132.1 L 64.5 140.0 L 64.95070419311523 141.0 L 73.2 141.0 L 74.5 140.9 L 75.5 140.7 L 76.3 140.5 L 77.3 139.9 L 77.7 139.5 L 78.0 139.0 L 78.4 138.3 L 78.8 137.3 L 79.1 136.0 L 79.2 134.9 Z M 31.923243236541747 90.0 L 29.485405445098877 112.0 L 46.43636360168457 112.0 L 46.9 105.2 L 47.0 91.0 L 47.0 90.0 Z " />
</g>
</svg>
