<svg xmlns="http://www.w3.org/2000/svg" xmlns:xlink="http://www.w3.org/1999/xlink" version="1.1" baseProfile="full" viewBox="0 0 200 200" width="200" height="200">
<g fill="black">
<path d="M 140.9 176.0 L 160.9 176.0 L 162.1 175.9 L 163.0 175.7 L 163.9 175.4 L 164.3 175.0 L 164.5 174.7 L 164.6 174.1 L 164.8 173.2 L 164.9 172.0 L 164.9 69.0 L 136.2 69.0 L 136.2 65.0 L 164.9 65.0 L 164.9 13.0 L 176.9 15.0 L 179.9 17.0 L 176.9 18.8 L 176.9 65.0 L 177.7 65.0 L 182.2 59.0 L 188.2 65.0 L 188.2 69.0 L 176.9 69.0 L 176.9 172.0 L 176.7 174.5 L 176.3 177.0 L 175.5 179.4 L 174.3 181.7 L 172.6 183.7 L 170.6 185.3 L 168.3 186.6 L 165.9 187.4 L 163.4 187.8 L 160.9 188.0 L 160.9 182.0 L 140.9 179.0 Z M 67.1 166.1 L 63.1 157.4 L 59.5 147.9 L 56.5 137.6 L 53.9 126.5 L 51.9 114.6 L 50.4 101.9 L 50.261450099945066 99.80635766983032 L 49.5 105.6 L 46.5 121.5 L 42.6 136.1 L 37.9 149.2 L 32.4 160.7 L 26.0 170.7 L 18.7 179.1 L 10.7 185.6 L 9.5 184.3 L 15.9 176.6 L 21.5 167.8 L 26.5 157.8 L 30.8 146.5 L 34.4 133.8 L 37.3 119.7 L 39.6 104.2 L 41.1 87.2 L 41.63043479919433 75.0 L 11.4 75.0 L 11.4 71.0 L 41.80434780120849 71.0 L 41.9 68.8 L 42.0 49.0 L 42.0 15.0 L 54.0 17.0 L 57.0 19.0 L 54.0 20.8 L 54.0 49.0 L 53.3 69.3 L 53.16436166763306 71.0 L 62.5 71.0 L 72.5 61.0 L 84.5 71.0 L 84.5 75.0 L 52.8452127456665 75.0 L 52.366911792755126 80.99470586776734 L 53.6 87.9 L 56.2 101.0 L 59.0 113.2 L 62.0 124.5 L 65.4 134.8 L 69.1 144.3 L 73.1 152.8 L 77.4 160.3 L 82.0 166.9 L 86.8 172.6 L 87.5 173.4 L 76.8 181.3 L 71.7 174.1 Z M 89.3 167.0 L 93.6 165.7 L 98.1 164.3 L 102.7 162.9 L 107.5 161.3 L 108.8 160.87551021575928 L 108.8 124.0 L 93.4 124.0 L 93.4 120.0 L 108.8 120.0 L 108.8 91.0 L 120.8 93.0 L 123.8 95.0 L 120.8 96.8 L 120.8 120.0 L 123.0777777671814 120.0 L 129.3 113.0 L 137.3 120.0 L 137.3 124.0 L 120.8 124.0 L 120.8 156.94150943756102 L 122.8 156.3 L 128.3 154.5 L 134.0 152.8 L 139.9 151.1 L 140.6 152.8 L 135.5 156.2 L 130.5 159.4 L 125.5 162.3 L 120.8 164.83800001144408 L 120.8 165.0 L 120.5 165.0 L 115.7 167.5 L 111.0 169.9 L 106.5 172.2 L 102.0 174.3 L 97.6 176.3 L 97.2581582069397 176.45464267730713 L 96.3 180.4 L 93.4 178.2 L 87.4 167.7 Z M 148.4 119.1 L 147.7 115.3 L 146.8 111.5 L 145.8 107.8 L 144.6 104.1 L 141.8 96.7 L 140.2 93.0 L 138.3 89.3 L 139.7 88.2 L 142.8 91.1 L 145.8 94.1 L 148.5 97.4 L 150.9 100.9 L 153.2 104.5 L 155.2 108.4 L 157.0 112.3 L 158.6 116.4 L 160.0 120.7 L 161.2 125.0 L 160.1 129.5 L 156.2 131.9 L 151.8 130.8 L 149.3 127.0 L 149.0 123.0 Z M 89.9 82.0 L 108.8 82.0 L 108.8 48.0 L 93.4 48.0 L 93.4 44.0 L 108.8 44.0 L 108.8 13.0 L 120.8 15.0 L 123.8 17.0 L 120.8 18.8 L 120.8 44.0 L 123.0777777671814 44.0 L 129.3 37.0 L 137.3 44.0 L 137.3 48.0 L 120.8 48.0 L 120.8 82.0 L 125.5777777671814 82.0 L 131.8 75.0 L 139.8 82.0 L 139.8 86.0 L 89.9 86.0 Z " />
</g>
</svg>
