<svg xmlns="http://www.w3.org/2000/svg" xmlns:xlink="http://www.w3.org/1999/xlink" version="1.1" baseProfile="full" viewBox="0 0 200 200" width="200" height="200">
<g fill="black">
<path d="M 46.2 158.5 L 53.9 157.2 L 61.5 155.9 L 61.8 155.84545450210572 L 61.8 98.7 L 73.8 100.7 L 76.8 102.7 L 73.8 104.5 L 73.8 153.72337665557862 L 84.6 151.9 L 92.3 150.5 L 100.0 149.3 L 107.8 148.0 L 116.7 146.85897436141968 L 116.7 79.8 L 128.7 81.8 L 131.7 83.8 L 128.7 85.6 L 128.7 186.1 L 116.7 192.1 L 116.7 150.52432432174683 L 116.5 150.6 L 109.0 153.3 L 101.5 155.7 L 86.5 160.1 L 78.9 162.3 L 71.4 164.3 L 56.2 168.3 L 52.651130294799806 169.19904699325562 L 51.2 172.8 L 48.7 170.2 L 44.2 158.9 Z M 153.1 88.5 L 143.4 84.0 L 134.6 79.1 L 126.9 73.7 L 120.1 67.8 L 114.4 61.4 L 109.8 54.7 L 106.4 47.5 L 104.58666667938232 40.7 L 103.78118810653686 40.7 L 101.5 47.9 L 96.4 57.1 L 89.6 65.3 L 81.0 72.5 L 70.9 78.7 L 59.1 84.0 L 45.8 88.5 L 30.7 92.0 L 14.1 94.5 L 13.8 92.7 L 29.8 88.3 L 44.1 83.4 L 56.5 78.0 L 67.1 72.1 L 75.9 65.7 L 82.8 58.9 L 88.0 51.7 L 91.5 44.0 L 92.30487804412842 40.7 L 17.0 40.7 L 17.0 36.7 L 93.28048782348633 36.7 L 93.5 35.8 L 94.0 27.0 L 94.0 9.8 L 106.0 11.8 L 109.0 13.8 L 106.0 15.6 L 106.0 27.0 L 104.8324073791504 36.7 L 161.0 36.7 L 171.0 26.7 L 183.0 36.7 L 183.0 40.7 L 106.93870964050294 40.7 L 110.1 45.6 L 114.6 51.3 L 119.7 56.6 L 125.6 61.5 L 132.2 66.0 L 139.7 70.2 L 148.0 74.0 L 157.3 77.5 L 167.5 80.6 L 178.5 83.3 L 187.1 85.4 L 175.4 96.1 L 163.8 92.5 Z " />
</g>
</svg>
