<svg xmlns="http://www.w3.org/2000/svg" xmlns:xlink="http://www.w3.org/1999/xlink" version="1.1" baseProfile="full" viewBox="0 0 200 200" width="200" height="200">
<g fill="black">
<path d="M 176.76774196624757 102.70645160675049 L 186.0 110.4 L 186.0 114.4 L 93.03043479919434 114.4 L 88.3 120.8 L 80.6 129.4 L 72.48943090438843 136.9447154045105 L 76.0 138.7 L 149.0 138.7 L 155.0 133.7 L 166.0 142.7 L 161.0 146.7 L 161.0 181.8 L 149.0 187.8 L 149.0 179.8 L 76.0 179.8 L 76.0 182.8 L 64.0 188.8 L 64.0 143.63157892227173 L 62.5 144.8 L 52.3 151.5 L 41.1 157.6 L 29.1 162.9 L 16.3 167.5 L 15.6 165.8 L 27.5 159.5 L 38.5 152.9 L 48.6 146.0 L 57.9 138.8 L 64.0 133.14096384048463 L 64.0 132.7 L 64.3088607788086 132.85443038940429 L 66.2 131.1 L 73.7 123.1 L 80.3 114.7 L 80.49550561904907 114.4 L 14.0 114.4 L 14.0 110.4 L 83.10224723815918 110.4 L 86.1 105.8 L 90.9 96.6 L 94.6173550605774 87.80528192520141 L 94.6 87.8 L 95.5 85.5 L 106.1 91.3 L 108.2 94.3 L 104.37212467193604 94.89398069381714 L 101.1 101.7 L 95.82727270126342 110.4 L 164.0 110.4 L 172.44020614624023 101.95979385375976 L 169.0 100.7 L 162.1 97.7 L 155.4 94.3 L 149.0 90.5 L 142.9 86.3 L 137.0 81.8 L 131.4 76.8 L 126.2 71.5 L 121.3 65.6 L 117.38888893127441 60.0 L 87.5406976699829 60.0 L 80.1 68.1 L 71.3 76.1 L 61.4 83.6 L 50.6 90.4 L 38.8 96.6 L 26.0 102.0 L 12.3 106.8 L 11.6 105.1 L 24.5 98.6 L 36.3 91.8 L 47.1 84.8 L 56.9 77.5 L 65.6 69.8 L 73.4 61.7 L 74.75595235824585 60.0 L 26.0 60.0 L 26.0 56.0 L 77.94642858505249 56.0 L 80.1 53.3 L 85.8 44.5 L 90.5 35.4 L 92.61621618270874 30.0 L 20.0 30.0 L 20.0 26.0 L 158.0 26.0 L 168.0 16.0 L 180.0 26.0 L 180.0 30.0 L 105.6 30.0 L 100.8 40.4 L 94.9 50.2 L 90.59677419662475 56.0 L 152.0 56.0 L 162.0 46.0 L 174.0 56.0 L 174.0 60.0 L 120.77826089859009 60.0 L 124.3 62.7 L 130.1 67.1 L 136.0 71.2 L 141.9 75.0 L 147.9 78.4 L 154.0 81.6 L 160.2 84.3 L 166.6 86.8 L 173.1 88.9 L 179.8 90.6 L 187.8 92.9 Z M 76.0 142.7 L 76.0 175.8 L 149.0 175.8 L 149.0 142.7 Z " />
</g>
</svg>
