<svg xmlns="http://www.w3.org/2000/svg" xmlns:xlink="http://www.w3.org/1999/xlink" version="1.1" baseProfile="full" viewBox="0 0 200 200" width="200" height="200">
<g fill="black">
<path d="M 171.0 23.0 L 171.0 27.0 L 34.0 27.0 L 34.0 167.0 L 158.0 167.0 L 168.0 157.0 L 180.0 167.0 L 180.0 171.0 L 34.0 171.0 L 34.0 183.0 L 22.0 189.0 L 22.0 17.0 L 34.0 23.0 L 149.0 23.0 L 159.0 13.0 Z M 83.0 122.7 L 81.4 117.3 L 79.6 112.0 L 77.7 106.9 L 75.6 101.9 L 73.4 96.9 L 69.89120874404907 89.88241758346558 L 68.9 96.1 L 66.1 109.0 L 62.6 120.8 L 58.4 131.6 L 53.5 141.3 L 47.9 149.8 L 41.5 157.1 L 40.1 155.9 L 44.7 147.8 L 48.7 138.9 L 52.3 129.3 L 55.3 118.7 L 57.8 107.2 L 59.8 94.7 L 61.1 81.3 L 61.43103446960449 75.3 L 40.8 75.3 L 40.8 71.3 L 61.65172414779663 71.3 L 61.9 66.8 L 62.1 51.4 L 61.6 35.0 L 61.67053632736206 34.99823656082153 L 61.6 32.6 L 73.6 34.7 L 76.7 36.6 L 73.55368423461914 38.590526294708255 L 73.4 51.5 L 72.6 67.4 L 72.20738258361817 71.3 L 77.3 71.3 L 87.3 61.3 L 99.3 71.3 L 99.3 75.3 L 71.80469799041748 75.3 L 71.1 82.3 L 70.79645986557007 84.20402421951295 L 71.7 85.0 L 75.5 89.1 L 79.0 93.5 L 82.3 98.2 L 85.3 103.2 L 88.1 108.3 L 90.7 113.7 L 93.2 119.2 L 95.3 125.0 L 97.3 130.9 L 96.7 135.4 L 93.0 138.2 L 88.5 137.6 L 85.7 134.0 L 84.4 128.3 Z M 171.0 126.0 L 173.0 126.0 L 171.0 143.0 L 174.0 145.0 L 176.0 148.0 L 174.0 151.0 L 171.0 153.0 L 151.2 153.0 L 148.8 152.7 L 146.4 152.0 L 144.2 150.9 L 142.2 149.4 L 140.6 147.5 L 139.3 145.4 L 138.4 143.0 L 137.9 140.6 L 137.6 138.0 L 137.6 92.2 L 127.60967741012573 92.2 L 133.7 93.8 L 136.6 96.0 L 133.1563829421997 97.72180852890014 L 132.3 103.9 L 130.2 113.3 L 127.3 121.9 L 123.7 129.8 L 119.3 136.8 L 114.2 143.0 L 108.4 148.3 L 101.9 152.6 L 94.8 155.8 L 87.1 158.0 L 86.4 156.3 L 93.0 152.4 L 98.9 148.1 L 104.0 143.4 L 108.4 138.1 L 112.1 132.2 L 115.3 125.8 L 117.8 118.6 L 119.7 110.8 L 121.0 102.2 L 121.7 92.9 L 121.76220836639405 92.90466566085816 L 121.80625 92.2 L 119.4 92.2 L 119.4 104.2 L 107.4 110.2 L 107.4 38.5 L 119.4 44.5 L 155.6 44.5 L 161.6 39.5 L 172.6 48.5 L 167.6 52.5 L 167.6 98.2 L 155.6 104.2 L 155.6 92.2 L 149.6 92.2 L 149.6 139.3 L 149.7 140.2 L 149.8 140.9 L 149.9 141.3 L 150.0 141.6 L 150.2 141.9 L 150.6 142.3 L 151.3 142.6 L 152.3 142.9 L 153.6 143.0 L 166.0 143.0 Z M 119.4 48.5 L 119.4 88.2 L 155.6 88.2 L 155.6 48.5 Z " />
</g>
</svg>
