<svg xmlns="http://www.w3.org/2000/svg" xmlns:xlink="http://www.w3.org/1999/xlink" version="1.1" baseProfile="full" viewBox="0 0 200 200" width="200" height="200">
<g fill="black">
<path d="M 95.2 143.1 L 94.0 145.3 L 92.5 147.4 L 90.7 149.1 L 88.6 150.6 L 86.3 151.7 L 83.9 152.4 L 81.5 152.8 L 78.9 153.0 L 78.9 147.0 L 71.35827007293702 145.86874055862427 L 71.9 147.0 L 75.6 153.1 L 79.6 158.5 L 83.7 163.0 L 88.2 166.7 L 92.9 169.7 L 97.8 171.9 L 103.8 174.6 L 92.4 184.0 L 86.2 180.3 L 80.6 175.8 L 75.6 170.5 L 71.3 164.5 L 67.5 157.8 L 64.3 150.4 L 62.41491565704346 144.5272373199463 L 58.9 144.0 L 58.9 141.0 L 61.40114946365357 141.0 L 59.7 133.6 L 58.636570358276366 126.45982942581176 L 57.4 132.5 L 53.8 144.1 L 49.2 154.5 L 43.7 163.7 L 37.2 171.6 L 29.9 178.1 L 21.6 183.2 L 12.5 186.8 L 11.8 185.1 L 19.6 180.0 L 26.4 174.0 L 32.3 167.3 L 37.3 159.6 L 41.5 150.9 L 45.0 141.2 L 47.6 130.3 L 49.4 118.3 L 49.55801525115967 116.0 L 30.30623302459717 116.0 L 29.4 123.6 L 16.8 128.1 L 22.6 79.3 L 32.740540504455566 86.0 L 50.5 86.0 L 50.5 63.0 L 19.4 63.0 L 19.4 59.0 L 50.5 59.0 L 50.5 41.0 L 12.7 41.0 L 12.7 37.0 L 50.5 37.0 L 50.5 14.0 L 62.5 16.0 L 65.5 18.0 L 62.5 19.8 L 62.5 37.0 L 78.2 37.0 L 88.2 27.0 L 100.2 37.0 L 100.2 41.0 L 62.5 41.0 L 62.5 59.0 L 79.3 59.0 L 85.3 54.0 L 96.3 63.0 L 91.3 67.0 L 91.3 94.0 L 79.3 100.0 L 79.3 90.0 L 62.5 90.0 L 62.5 91.0 L 61.7 105.9 L 60.95395679473877 112.0 L 87.0 112.0 L 93.0 107.0 L 104.0 116.0 L 99.0 119.0 L 98.70165748596192 119.12430934906006 L 98.6 120.7 L 98.4 123.6 L 98.1 126.3 L 97.9 128.8 L 97.7 131.1 L 97.4 133.2 L 97.2 135.1 L 97.0 136.7 L 96.7 138.3 L 96.1 140.8 Z M 177.6 180.6 L 176.0 182.5 L 174.3 184.2 L 172.3 185.7 L 170.2 186.9 L 167.9 187.8 L 165.5 188.5 L 163.0 188.8 L 160.5 189.0 L 160.5 183.0 L 140.5 180.0 L 140.5 177.0 L 160.5 177.0 L 161.9 176.9 L 163.1 176.7 L 164.1 176.4 L 165.0 176.1 L 165.8 175.6 L 166.5 175.1 L 167.2 174.4 L 167.8 173.6 L 168.5 172.6 L 169.1 171.4 L 170.4 168.0 L 171.6 163.9 L 172.6 159.0 L 173.5 153.4 L 174.3 147.1 L 174.9 140.0 L 175.3 132.3 L 175.5 123.9 L 175.5 114.95833330154419 L 175.4 115.0 L 175.4 107.0 L 129.21343278884888 107.0 L 126.8 111.9 L 123.1 118.4 L 119.3 124.6 L 118.42238807678223 125.85373134613037 L 125.3 127.0 L 128.3 129.0 L 125.3 130.8 L 125.3 159.11363639831544 L 127.4 155.2 L 129.5 151.1 L 131.5 146.8 L 133.3 142.4 L 135.0 137.8 L 136.4 132.9 L 137.7 127.8 L 138.8 122.5 L 139.7 116.9 L 140.36382980346679 112.0042552947998 L 140.3 112.0 L 140.8 109.0 L 152.3 112.8 L 155.0 115.3 L 151.42036199569702 116.75837106704712 L 150.9 119.1 L 149.3 125.1 L 148.38429565429686 127.66397228240967 L 149.7 128.2 L 152.2 129.6 L 154.6 131.2 L 156.9 133.0 L 159.1 135.0 L 161.3 137.2 L 163.3 139.5 L 165.2 142.0 L 167.0 144.7 L 167.2 149.2 L 164.2 152.7 L 159.6 152.8 L 156.2 149.8 L 155.4 147.3 L 154.5 144.8 L 153.5 142.4 L 152.4 140.1 L 151.2 137.8 L 149.9 135.6 L 147.10344829559327 131.20541868209838 L 145.2 136.1 L 142.8 141.1 L 140.1 145.8 L 137.1 150.2 L 133.9 154.1 L 130.4 157.6 L 126.5 160.6 L 125.3 159.4 L 125.3 164.0 L 149.61818180084228 164.0 L 157.8 155.0 L 167.8 164.0 L 167.8 168.0 L 125.3 168.0 L 125.3 180.0 L 113.3 186.0 L 113.3 132.9318181991577 L 110.7 136.3 L 106.0 141.6 L 100.9 146.5 L 99.5 145.4 L 106.3 133.2 L 109.5 127.1 L 112.6 120.9 L 115.6 114.5 L 118.3 108.0 L 120.9 101.3 L 123.3 94.4 L 125.4 87.4 L 126.9 82.0 L 124.2 82.0 L 112.2 88.0 L 112.2 18.0 L 124.2 24.0 L 164.5 24.0 L 170.5 19.0 L 181.5 28.0 L 176.5 32.0 L 176.5 86.0 L 164.5 92.0 L 164.5 82.0 L 135.3800000190735 82.0 L 138.9 83.6 L 141.2 86.4 L 137.54498138427735 87.31375465393066 L 136.2 91.0 L 133.3 98.2 L 131.10571432113647 103.0 L 175.4 103.0 L 181.4 98.0 L 192.4 107.0 L 187.45168981552123 109.96898612976074 L 187.5 114.8 L 187.5 124.1 L 187.3 132.8 L 186.8 140.8 L 186.2 148.3 L 185.4 155.0 L 184.4 161.2 L 183.2 166.8 L 181.8 171.8 L 180.1 176.2 L 178.9 178.5 Z M 62.5 63.0 L 62.5 86.0 L 79.3 86.0 L 79.3 63.0 Z M 124.2 55.0 L 124.2 78.0 L 164.5 78.0 L 164.5 55.0 Z M 124.2 28.0 L 124.2 51.0 L 164.5 51.0 L 164.5 28.0 Z M 85.3 133.4 L 85.5 131.7 L 85.8 129.8 L 86.0 127.7 L 86.2 125.3 L 86.4 122.7 L 86.6 119.9 L 86.8 116.8 L 86.85 116.0 L 60.46474819183349 116.0 L 60.380889129638675 116.68567123413087 L 62.4 123.3 L 65.4 132.0 L 68.5 139.9 L 69.02676057815552 141.0 L 78.9 141.0 L 80.2 140.9 L 81.2 140.7 L 82.0 140.5 L 82.6 140.2 L 83.0 139.9 L 83.5 139.5 L 83.8 138.9 L 84.2 138.2 L 84.6 137.2 L 84.9 136.0 L 85.1 134.8 Z M 33.40650405883789 90.0 L 30.783197784423827 112.0 L 49.83282442092896 112.0 L 50.3 105.2 L 50.5 91.0 L 50.5 90.0 Z " />
</g>
</svg>
