<svg xmlns="http://www.w3.org/2000/svg" xmlns:xlink="http://www.w3.org/1999/xlink" version="1.1" baseProfile="full" viewBox="0 0 200 200" width="200" height="200">
<g fill="black">
<path d="M 129.0 177.6 L 149.0 177.6 L 150.2 177.5 L 151.1 177.4 L 151.7 177.2 L 152.0 177.0 L 152.2 176.8 L 152.4 176.7 L 152.5 176.3 L 152.7 175.7 L 152.9 174.8 L 153.0 173.6 L 153.0 144.0 L 126.0 144.0 L 126.0 177.0 L 114.0 183.0 L 114.0 144.0 L 86.0 144.0 L 86.0 177.0 L 74.0 183.0 L 74.0 144.0 L 48.0 144.0 L 48.0 181.6 L 36.0 187.6 L 36.0 144.0 L 18.0 144.0 L 18.0 140.0 L 36.0 140.0 L 36.0 94.5 L 48.0 100.5 L 153.0 100.5 L 159.0 95.5 L 170.0 104.5 L 165.0 108.5 L 165.0 140.0 L 168.8181818008423 140.0 L 177.0 131.0 L 187.0 140.0 L 187.0 144.0 L 165.0 144.0 L 165.0 173.6 L 164.8 176.2 L 164.4 178.6 L 163.6 181.1 L 162.3 183.3 L 160.7 185.3 L 158.7 187.0 L 156.4 188.2 L 154.0 189.0 L 151.5 189.5 L 149.0 189.6 L 149.0 183.6 L 129.0 180.6 Z M 48.0 104.5 L 48.0 140.0 L 74.0 140.0 L 74.0 104.5 Z M 86.0 104.5 L 86.0 140.0 L 114.0 140.0 L 114.0 104.5 Z M 126.0 104.5 L 126.0 140.0 L 153.0 140.0 L 153.0 104.5 Z M 170.7 83.3 L 167.4 79.0 L 164.6 74.3 L 162.2 69.2 L 160.3 63.9 L 158.8 58.2 L 158.24408597946166 55.16774196624756 L 156.2 61.3 L 153.1 68.2 L 149.3 74.2 L 144.9 79.5 L 139.8 84.0 L 134.2 87.4 L 128.0 89.9 L 127.2 88.3 L 132.0 84.3 L 136.2 80.0 L 139.8 75.3 L 142.9 70.2 L 145.4 64.6 L 147.4 58.4 L 149.0 51.6 L 150.0 44.1 L 150.240740776062 40.2 L 128.6 40.2 L 128.6 36.2 L 150.4876543045044 36.2 L 150.5 36.0 L 150.5 11.2 L 162.5 13.2 L 165.5 15.2 L 162.5 17.0 L 162.5 27.2 L 161.84375 36.2 L 166.11818180084228 36.2 L 174.3 27.2 L 184.3 36.2 L 184.3 40.2 L 161.33636360168458 40.2 L 160.84152927398682 43.82878561019898 L 161.3 45.1 L 163.4 50.7 L 165.6 55.9 L 168.0 60.6 L 170.5 64.9 L 173.2 68.8 L 176.1 72.2 L 179.2 75.2 L 182.5 77.8 L 186.0 80.1 L 189.5 82.5 L 178.5 90.9 L 174.4 87.3 Z M 22.8 77.8 L 38.1 77.8 L 39.0 77.6 L 39.6 77.4 L 39.9 77.2 L 40.1 77.1 L 40.2 76.9 L 40.4 76.6 L 40.6 76.0 L 40.8 75.1 L 40.8 49.1 L 14.5 49.1 L 14.5 45.1 L 40.8 45.1 L 40.8 26.6 L 21.4 26.6 L 21.4 22.6 L 49.5 22.6 L 59.5 12.6 L 71.5 22.6 L 71.5 26.6 L 52.8 26.6 L 52.8 45.1 L 57.2 45.1 L 67.2 35.1 L 79.2 45.1 L 79.2 49.1 L 52.8 49.1 L 52.8 73.8 L 52.7 76.4 L 52.3 78.9 L 51.4 81.3 L 50.2 83.6 L 48.6 85.6 L 46.6 87.2 L 44.3 88.5 L 41.9 89.3 L 39.4 89.7 L 36.8 89.8 L 36.8 83.8 L 22.8 80.8 Z M 94.7 28.4 L 112.2 28.4 L 118.2 23.4 L 129.2 32.4 L 124.2 36.4 L 124.2 75.6 L 112.2 81.6 L 112.2 75.6 L 94.7 75.6 L 94.7 82.6 L 82.7 88.6 L 82.7 22.4 Z M 94.7 32.4 L 94.7 71.6 L 112.2 71.6 L 112.2 32.4 Z " />
</g>
</svg>
