<svg xmlns="http://www.w3.org/2000/svg" xmlns:xlink="http://www.w3.org/1999/xlink" version="1.1" baseProfile="full" viewBox="0 0 200 200" width="200" height="200">
<g fill="black">
<path d="M 76.1 140.1 L 73.6 132.2 L 70.8 124.5 L 67.9 117.0 L 64.6 109.8 L 61.2 102.7 L 57.6 95.8 L 53.80685777664185 89.01227178573609 L 51.9 101.9 L 48.1 120.1 L 43.4 136.9 L 37.7 152.1 L 31.0 165.9 L 23.3 178.1 L 14.7 188.5 L 13.2 187.4 L 20.1 176.0 L 26.2 163.5 L 31.5 149.8 L 36.1 134.7 L 39.8 118.3 L 42.7 100.5 L 44.8 81.3 L 45.33913040161133 72.0 L 14.0 72.0 L 14.0 68.0 L 45.57101449966431 68.0 L 46.0 60.6 L 46.4 38.6 L 46.01698999404907 16.098159408569337 L 46.0 16.1 L 45.9 12.8 L 58.0 14.8 L 61.0 16.7 L 57.96752815246582 18.6803897857666 L 57.8 38.7 L 56.8 61.2 L 56.15545024871826 68.0 L 75.0 68.0 L 85.0 58.0 L 97.0 68.0 L 97.0 72.0 L 55.7763032913208 72.0 L 54.8 82.3 L 54.490666675567624 84.39066667556763 L 56.9 86.8 L 62.0 92.8 L 66.8 99.3 L 71.3 106.2 L 75.5 113.3 L 79.4 120.8 L 82.9 128.5 L 86.2 136.6 L 89.3 144.9 L 92.0 153.5 L 91.3 158.1 L 87.7 160.9 L 83.2 160.2 L 80.4 156.6 L 78.4 148.2 Z M 160.8 167.5 L 156.5 160.5 L 152.1 153.9 L 149.25899677276612 150.07082176208496 L 142.6 160.2 L 134.3 169.3 L 124.9 176.9 L 114.5 182.7 L 103.1 186.8 L 102.5 185.1 L 112.7 179.4 L 121.7 172.6 L 129.6 164.8 L 136.4 155.7 L 142.2 145.5 L 143.3597701072693 142.6972222328186 L 142.7 141.9 L 137.7 136.6 L 132.6 131.5 L 127.3 126.8 L 125.89653301239014 125.62619123458862 L 125.8 126.1 L 112.8 129.6 L 123.77212543487549 76.0 L 98.2 76.0 L 98.2 72.0 L 124.59094076156616 72.0 L 136.3 14.8 L 147.6 19.1 L 150.2 21.7 L 146.8787724494934 22.63997001647949 L 136.8222430229187 72.0 L 164.7 72.0 L 174.7 62.0 L 186.7 72.0 L 186.7 76.0 L 167.85139665603637 76.0 L 166.6 92.0 L 164.1 108.5 L 160.5 123.6 L 155.6 137.2 L 153.44087781906128 141.6646255493164 L 153.9 142.1 L 159.4 148.2 L 164.8 154.7 L 169.9 161.9 L 174.8 169.5 L 179.4 177.6 L 179.7 182.1 L 176.8 185.6 L 172.2 185.9 L 168.7 183.0 L 164.8 175.0 Z M 136.00728969573976 76.0 L 126.55641994476318 122.38729677200317 L 129.4 123.6 L 135.9 127.3 L 142.1 131.6 L 146.45128202438354 135.22606840133668 L 147.0 133.9 L 150.8 120.9 L 153.5 106.6 L 155.3 90.9 L 155.82899408340455 76.0 Z " />
</g>
</svg>
