<svg xmlns="http://www.w3.org/2000/svg" xmlns:xlink="http://www.w3.org/1999/xlink" version="1.1" baseProfile="full" viewBox="0 0 200 200" width="200" height="200">
<g fill="black">
<path d="M 65.9 139.9 L 63.7 131.9 L 61.4 124.3 L 58.8 116.8 L 56.1 109.6 L 53.1 102.6 L 50.0 95.7 L 47.50277013778687 90.4714249610901 L 46.0 101.8 L 42.6 120.0 L 38.4 136.7 L 33.4 152.0 L 27.5 165.8 L 20.7 178.0 L 12.9 188.5 L 11.5 187.4 L 17.3 176.1 L 22.5 163.6 L 27.1 149.9 L 31.1 134.8 L 34.3 118.4 L 36.8 100.6 L 38.6 81.3 L 39.05145635604858 72.0 L 12.2 72.0 L 12.2 68.0 L 39.24563102722168 68.0 L 39.6 60.7 L 39.9 38.6 L 39.51698999404907 16.098159408569337 L 39.5 16.1 L 39.4 12.7 L 51.5 14.8 L 54.5 16.8 L 51.467207527160646 18.718705463409425 L 51.3 38.7 L 50.3 61.2 L 49.74952383041382 68.0 L 62.8 68.0 L 72.8 58.0 L 84.8 68.0 L 84.8 72.0 L 49.425714302062985 72.0 L 48.6 82.2 L 48.24233293533325 84.8962594985962 L 50.0 86.9 L 54.7 93.0 L 58.9 99.5 L 62.9 106.4 L 66.6 113.5 L 70.1 121.0 L 73.2 128.7 L 76.2 136.8 L 78.8 145.1 L 81.3 153.7 L 80.4 158.2 L 76.7 160.9 L 72.2 160.1 L 69.6 156.4 L 67.8 148.0 Z M 132.5 174.0 L 152.5 174.0 L 153.7 173.9 L 154.6 173.7 L 155.2 173.5 L 155.6 173.4 L 155.7 173.2 L 155.9 173.0 L 156.1 172.7 L 156.3 172.1 L 156.4 171.2 L 156.5 170.0 L 156.5 104.0 L 115.1 104.0 L 115.09649124145508 104.00526313781738 L 114.7 115.9 L 113.8 127.2 L 112.3 137.7 L 110.4 147.4 L 107.8 156.3 L 104.8 164.4 L 101.2 171.7 L 97.0 178.0 L 92.2 183.4 L 86.9 187.6 L 85.7 186.3 L 89.3 181.0 L 92.4 175.2 L 95.3 168.8 L 97.7 161.8 L 99.7 154.1 L 101.2 145.6 L 102.4 136.4 L 103.1 126.4 L 103.3 115.6 L 103.1 104.0 L 82.5 104.0 L 82.5 100.0 L 103.1 100.0 L 103.1 18.0 L 115.1 24.0 L 156.5 24.0 L 162.5 19.0 L 173.5 28.0 L 168.5 32.0 L 168.5 100.0 L 172.21818180084227 100.0 L 180.4 91.0 L 190.4 100.0 L 190.4 104.0 L 168.5 104.0 L 168.5 170.0 L 168.3 172.5 L 167.9 175.0 L 167.1 177.4 L 165.9 179.7 L 164.2 181.7 L 162.2 183.3 L 159.9 184.6 L 157.5 185.4 L 155.0 185.8 L 152.5 186.0 L 152.5 180.0 L 132.5 177.0 Z M 115.1 28.0 L 115.1 100.0 L 156.5 100.0 L 156.5 28.0 Z M 132.4 73.7 L 132.1 71.1 L 131.7 68.4 L 131.1 65.7 L 130.4 62.9 L 129.6 60.0 L 128.6 57.1 L 127.6 54.1 L 126.1 51.3 L 127.6 50.2 L 129.8 52.7 L 132.2 55.0 L 134.3 57.5 L 136.3 60.0 L 138.1 62.7 L 139.7 65.4 L 141.1 68.2 L 142.4 71.1 L 143.5 74.1 L 144.5 77.1 L 143.3 81.5 L 139.4 83.9 L 135.0 82.8 L 132.6 78.9 L 132.6 76.3 Z " />
</g>
</svg>
