<svg xmlns="http://www.w3.org/2000/svg" xmlns:xlink="http://www.w3.org/1999/xlink" version="1.1" baseProfile="full" viewBox="0 0 200 200" width="200" height="200">
<g fill="black">
<path d="M 147.9 177.5 L 163.3 177.5 L 164.2 177.4 L 164.9 177.3 L 165.5 177.0 L 165.9 176.6 L 166.1 176.1 L 166.3 175.4 L 166.4 174.3 L 166.5 173.0 L 166.5 97.0 L 135.4 97.0 L 135.4 178.5 L 125.4 183.5 L 125.4 97.0 L 94.2 97.0 L 94.2 184.2 L 83.2 189.7 L 83.2 93.93636360168458 L 81.8 94.7 L 77.3 96.8 L 72.5 98.7 L 71.6 97.2 L 75.3 93.8 L 78.9 90.4 L 82.4 87.1 L 85.8 83.8 L 89.1 80.5 L 92.3 77.1 L 95.3 73.6 L 98.2 70.1 L 101.0 66.6 L 103.07767343521118 63.752817916870114 L 103.0 63.7 L 104.1 62.4 L 113.0 70.5 L 114.0 74.0 L 110.25318069458008 73.4083969116211 L 109.6 74.1 L 106.0 77.5 L 102.3 80.7 L 98.5 83.9 L 94.6 86.8 L 90.5 89.6 L 89.12577323913574 90.46288661956787 L 94.2 93.0 L 125.4 93.0 L 125.4 62.0 L 75.6 62.0 L 75.6 58.0 L 113.0 58.0 L 113.0 13.0 L 124.0 15.0 L 126.7 17.0 L 124.0 18.723404216766358 L 124.0 58.0 L 136.8 58.0 L 136.8 13.0 L 147.8 15.0 L 150.5 17.0 L 147.8 18.723404216766358 L 147.8 58.0 L 155.21956520080568 58.0 L 156.5 54.9 L 158.3 50.4 L 160.1 46.1 L 161.8 42.0 L 163.6 38.0 L 165.2 34.0 L 166.8 30.2 L 168.2 26.5 L 169.6 22.9 L 170.56612482070923 20.224577331542967 L 170.5 20.2 L 170.8796875 19.35625 L 170.9 19.3 L 170.90413036346436 19.301932525634765 L 171.4 18.2 L 181.8 24.4 L 183.7 27.5 L 179.7317442893982 27.910509204864503 L 177.7 31.2 L 175.5 34.7 L 173.2 38.3 L 170.7 41.9 L 168.1 45.6 L 165.4 49.3 L 162.5 53.0 L 159.4 56.7 L 158.24054050445557 58.0 L 165.5 58.0 L 175.5 48.0 L 187.5 58.0 L 187.5 62.0 L 135.4 62.0 L 135.4 93.0 L 166.5 93.0 L 172.0 88.0 L 182.5 97.0 L 177.5 100.5 L 177.5 173.0 L 177.4 175.4 L 177.0 177.7 L 176.4 180.0 L 175.4 182.1 L 174.0 184.1 L 172.2 185.7 L 170.1 187.0 L 167.9 187.8 L 165.6 188.3 L 163.3 188.5 L 163.3 183.0 L 147.9 180.2 Z M 56.9 150.8 L 53.8 146.4 L 50.6 142.1 L 50.507042217254636 141.99413146972657 L 45.0 153.1 L 38.2 163.8 L 30.5 173.0 L 22.1 180.7 L 12.9 186.7 L 11.9 185.2 L 19.5 177.9 L 26.4 169.6 L 32.7 160.2 L 38.3 149.6 L 43.2 137.9 L 44.11668682098389 135.04081020355224 L 43.2 134.1 L 39.1 130.2 L 34.8 126.5 L 30.2 122.9 L 28.729374122619628 121.76639261245728 L 28.0 124.9 L 25.3 136.4 L 13.6 133.5 L 16.4 122.1 L 19.0 110.7 L 24.0 87.5 L 26.3 75.8 L 28.5 64.0 L 28.838983058929443 62.0 L 12.4 62.0 L 12.4 58.0 L 29.51694917678833 58.0 L 30.5 52.2 L 32.5 40.2 L 34.4 28.2 L 36.1 16.1 L 36.13271026611328 16.10467290878296 L 36.4 14.1 L 48.0 17.8 L 50.7 20.2 L 47.45058135986328 21.523837184906007 L 46.2 30.0 L 44.4 42.1 L 42.4 54.2 L 41.73500003814697 58.0 L 57.4 58.0 L 63.4 53.0 L 74.4 62.0 L 69.4 65.0 L 68.86108789443969 65.22454671859741 L 67.3 79.2 L 64.4 96.6 L 60.7 112.8 L 56.3 127.6 L 54.16939611434937 132.98680992126464 L 57.3 135.7 L 61.6 140.0 L 65.5 144.5 L 69.2 149.3 L 72.7 154.4 L 73.1 158.9 L 70.4 162.6 L 65.8 163.1 L 62.2 160.3 L 59.7 155.5 Z M 116.3 111.0 L 118.8 113.0 L 116.3 114.66666669845581 L 116.3 129.0 L 115.9 134.2 L 115.3 139.3 L 114.4 144.0 L 113.3 148.6 L 111.9 152.8 L 110.3 156.8 L 108.4 160.5 L 106.2 163.8 L 103.8 166.8 L 101.2 169.4 L 100.0 168.5 L 101.5 165.3 L 102.7 161.9 L 103.8 158.5 L 104.7 154.9 L 105.4 151.1 L 105.9 147.1 L 106.3 142.9 L 106.5 138.5 L 106.5 133.8 L 106.3 129.0 L 106.3 109.0 Z M 155.6 111.0 L 158.1 113.0 L 155.6 114.66666669845581 L 155.6 161.5 L 145.6 166.5 L 145.6 109.0 Z M 41.035000038146975 62.0 L 40.3 66.2 L 38.0 78.1 L 35.7 89.9 L 33.3 101.6 L 30.7 113.3 L 29.443242168426515 118.69940414428712 L 32.1 119.6 L 37.7 122.0 L 43.0 124.9 L 46.60509071350098 127.27935991287231 L 47.4 124.8 L 51.0 110.4 L 53.8 94.8 L 56.0 77.8 L 57.20874319076538 62.0 Z M 172.1 85.5 L 169.7 83.2 L 167.0 80.9 L 164.1 78.7 L 161.0 76.6 L 157.7 74.4 L 154.2 72.3 L 150.5 70.1 L 146.5 68.1 L 147.1 66.4 L 155.9 68.0 L 160.1 69.0 L 164.1 70.3 L 168.0 71.8 L 171.7 73.4 L 175.2 75.2 L 178.6 77.1 L 181.8 79.3 L 184.8 81.6 L 186.5 85.8 L 184.9 90.1 L 180.6 91.8 L 176.4 90.1 L 174.4 87.8 Z M 91.1 44.7 L 90.6 41.9 L 89.8 39.1 L 88.9 36.2 L 87.8 33.3 L 86.6 30.4 L 85.1 27.4 L 83.6 24.2 L 81.6 21.3 L 82.9 20.1 L 85.7 22.5 L 88.5 24.8 L 91.1 27.2 L 93.5 29.8 L 95.7 32.6 L 97.7 35.4 L 99.4 38.4 L 101.0 41.4 L 102.4 44.6 L 103.5 47.8 L 102.6 52.3 L 98.8 54.9 L 94.3 53.9 L 91.8 50.2 L 91.5 47.4 Z " />
</g>
</svg>
