<svg xmlns="http://www.w3.org/2000/svg" xmlns:xlink="http://www.w3.org/1999/xlink" version="1.1" baseProfile="full" viewBox="0 0 200 200" width="200" height="200">
<g fill="black">
<path d="M 14.0 176.5 L 40.0 176.5 L 40.0 127.6 L 52.0 133.6 L 148.0 133.6 L 154.0 128.6 L 165.0 137.6 L 160.0 141.6 L 160.0 176.5 L 164.0 176.5 L 174.0 166.5 L 186.0 176.5 L 186.0 180.5 L 14.0 180.5 Z M 52.0 137.6 L 52.0 176.5 L 76.0 176.5 L 76.0 137.6 Z M 88.0 137.6 L 88.0 176.5 L 112.0 176.5 L 112.0 137.6 Z M 124.0 137.6 L 124.0 176.5 L 148.0 176.5 L 148.0 137.6 Z M 143.6 112.7 L 155.6 112.7 L 156.9 112.6 L 157.8 112.5 L 158.4 112.3 L 158.7 112.1 L 158.9 112.0 L 159.2 111.4 L 159.4 110.8 L 159.6 109.9 L 159.6 94.5 L 114.2 94.5 L 114.2 118.2 L 102.2 124.2 L 102.2 61.8 L 100.8 62.9 L 93.4 68.1 L 85.5 72.8 L 77.0 77.0 L 76.1 75.4 L 83.3 69.6 L 90.2 63.8 L 96.6 57.9 L 102.2 52.20508470535278 L 102.2 47.0 L 105.4189944267273 48.60949716567993 L 108.0 45.7 L 112.9 39.4 L 114.5615385055542 37.0 L 79.5 37.0 L 79.5 33.0 L 117.3307692527771 33.0 L 117.4 32.9 L 121.4 26.2 L 125.0 19.3 L 127.70612001419067 13.102112197875977 L 127.7 13.1 L 128.6 11.0 L 139.0 17.0 L 141.0 20.1 L 137.1721403121948 20.561983108520508 L 135.1 24.6 L 130.6 31.8 L 129.73043479919434 33.0 L 166.4 33.0 L 176.4 23.0 L 188.4 33.0 L 188.4 37.0 L 126.83188409805298 37.0 L 125.6 38.7 L 120.1 45.3 L 114.2 51.5 L 113.14505491256713 52.472527503967285 L 114.2 53.0 L 159.6 53.0 L 165.6 48.0 L 176.6 57.0 L 171.6 61.0 L 171.6 108.7 L 171.5 111.3 L 171.1 113.8 L 170.2 116.2 L 169.0 118.4 L 167.4 120.4 L 165.4 122.1 L 163.1 123.3 L 160.7 124.1 L 158.2 124.6 L 155.6 124.7 L 155.6 118.7 L 143.6 115.7 Z M 66.3 99.1 L 63.0 96.5 L 59.3 93.9 L 56.78378381729126 92.46216220855713 L 55.4 94.3 L 48.2 101.9 L 40.2 108.6 L 31.3 114.5 L 21.7 119.4 L 11.3 123.3 L 10.6 121.6 L 19.9 116.0 L 28.3 110.0 L 35.9 103.6 L 42.7 96.6 L 48.7 89.1 L 49.14338073730469 88.40082273483276 L 45.6 86.7 L 40.3 84.5 L 34.6 82.2 L 34.47101192474365 82.14925060272216 L 32.6 88.2 L 19.3 90.4 L 33.31867008209228 45.1 L 16.2 45.1 L 16.2 41.1 L 34.55652170181274 41.1 L 43.5 12.2 L 54.4 17.7 L 56.7 20.5 L 53.27956066131592 21.323439121246338 L 47.16425533294678 41.1 L 66.9 41.1 L 72.9 36.1 L 83.9 45.1 L 78.9 48.1 L 77.64634141921997 48.62235774993896 L 75.8 55.7 L 72.0 66.5 L 67.3 76.6 L 62.19561405181885 85.13824558258057 L 63.6 85.7 L 68.2 87.9 L 72.6 90.4 L 76.6 93.1 L 80.3 96.1 L 82.0 100.3 L 80.3 104.6 L 76.0 106.3 L 71.8 104.6 L 69.3 101.8 Z M 114.2 75.7 L 114.2 90.5 L 159.6 90.5 L 159.6 75.7 Z M 45.927375888824464 45.1 L 35.59567584991455 78.51214933395386 L 41.8 79.3 L 47.7 80.5 L 53.21660461425781 81.97766199111939 L 53.9 80.9 L 58.3 72.2 L 62.0 62.8 L 64.8 52.7 L 66.36261682510376 45.1 Z M 114.2 57.0 L 114.2 71.7 L 159.6 71.7 L 159.6 57.0 Z " />
</g>
</svg>
