<svg xmlns="http://www.w3.org/2000/svg" xmlns:xlink="http://www.w3.org/1999/xlink" version="1.1" baseProfile="full" viewBox="0 0 200 200" width="200" height="200">
<g fill="black">
<path d="M 105.5 136.6 L 161.4 136.6 L 167.4 131.6 L 178.4 140.6 L 173.4 144.6 L 173.4 183.0 L 161.4 189.0 L 161.4 181.0 L 105.5 181.0 L 105.5 184.0 L 93.5 190.0 L 93.5 130.6 Z M 63.0 151.2 L 59.5 146.7 L 55.6 142.4 L 54.59105262756348 141.39105262756348 L 47.8 153.3 L 40.0 164.0 L 31.3 173.2 L 21.7 180.8 L 11.3 186.7 L 10.4 185.2 L 19.3 177.8 L 27.5 169.4 L 34.8 160.0 L 41.3 149.4 L 47.0 137.7 L 47.957542991638185 135.1400382041931 L 46.9 134.2 L 42.1 130.4 L 37.0 126.6 L 31.6 122.9 L 28.9479829788208 121.17851524353027 L 27.9 125.1 L 24.7 136.6 L 13.2 133.3 L 16.4 121.9 L 19.4 110.5 L 22.3 99.0 L 25.1 87.3 L 27.8 75.7 L 30.3 63.9 L 30.683193302154542 62.0 L 10.8 62.0 L 10.8 58.0 L 31.489915943145753 58.0 L 32.7 52.0 L 35.0 40.1 L 37.1 28.1 L 39.1 16.0 L 39.13263854980469 16.00521116256714 L 39.4 14.0 L 51.0 17.9 L 53.6 20.3 L 50.35964736938477 21.620143604278564 L 46.8 42.3 L 44.5 54.3 L 43.72916669845581 58.0 L 63.6 58.0 L 69.6 53.0 L 80.6 62.0 L 75.6 65.0 L 74.9932583808899 65.25280895233155 L 73.2 79.3 L 69.9 96.8 L 65.8 112.9 L 60.7 127.8 L 58.420670413970946 132.89050283432007 L 61.9 135.5 L 66.7 139.7 L 71.2 144.3 L 75.5 149.1 L 79.4 154.2 L 80.1 158.7 L 77.6 162.5 L 73.1 163.2 L 69.3 160.7 L 66.3 155.8 Z M 105.5 140.6 L 105.5 177.0 L 161.4 177.0 L 161.4 140.6 Z M 156.5 127.6 L 154.4 128.8 L 152.4 129.8 L 150.2 130.7 L 148.0 131.4 L 145.8 132.0 L 143.5 132.4 L 141.1 132.6 L 138.8 132.7 L 138.8 126.7 L 118.8 123.7 L 118.8 120.7 L 138.8 120.7 L 140.3 120.6 L 141.9 120.5 L 144.7 119.9 L 147.5 118.9 L 150.1 117.5 L 151.3 116.6 L 152.0418478012085 116.08641300201415 L 152.7 114.3 L 153.5 110.7 L 153.51800003051758 110.6 L 107.19578056335449 110.6 L 106.0 118.4 L 93.2 122.6 L 99.67990369796753 80.2 L 84.8 80.2 L 84.8 76.2 L 100.29121541976929 76.2 L 105.9 39.5 L 115.48974361419678 46.3 L 159.4 46.3 L 165.4 41.3 L 176.4 50.3 L 171.4 53.3 L 171.04230003356935 53.44904165267944 L 170.6 61.6 L 169.8 73.3 L 169.57692308425902 76.2 L 173.87777776718139 76.2 L 180.1 69.2 L 188.1 76.2 L 188.1 80.2 L 169.2692307472229 80.2 L 169.0 83.7 L 168.1 92.9 L 167.2 100.8 L 166.43235292434693 106.6 L 170.1777777671814 106.6 L 176.4 99.6 L 184.4 106.6 L 184.4 110.6 L 165.7545454978943 110.6 L 165.3 113.1 L 164.2 117.6 L 162.9 121.3 L 160.3 124.9 L 158.4 126.3 Z M 42.89583330154419 62.0 L 42.0 66.3 L 39.5 78.2 L 36.8 90.1 L 34.0 101.8 L 31.0 113.5 L 29.681488609313966 118.43378438949586 L 33.2 119.5 L 39.6 121.9 L 45.6 124.8 L 50.74482564926147 127.68832321166992 L 51.9 124.6 L 56.1 110.3 L 59.4 94.7 L 61.9 77.7 L 63.44426231384277 62.0 Z M 111.85625877380372 80.2 L 107.80900144577026 106.6 L 154.2380000114441 106.6 L 154.4 105.7 L 155.3 99.3 L 156.2 91.6 L 157.0 82.7 L 157.19417476654053 80.2 Z M 133.3 97.7 L 132.7 96.2 L 131.9 94.7 L 130.9 93.1 L 129.6 91.5 L 128.2 89.9 L 126.5 88.3 L 124.6 86.7 L 122.3 85.6 L 122.9 83.9 L 125.5 84.6 L 128.1 85.0 L 130.7 85.6 L 133.1 86.4 L 135.4 87.4 L 137.6 88.7 L 139.7 90.1 L 141.6 91.7 L 143.3 93.6 L 144.9 95.7 L 145.1 100.2 L 142.0 103.6 L 137.5 103.8 L 134.0 100.7 L 133.8 99.2 Z M 116.44008436203003 50.3 L 112.46947956085205 76.2 L 157.50485439300536 76.2 L 157.8 72.4 L 158.6 60.8 L 159.25625 50.3 Z M 136.3 67.5 L 135.9 66.1 L 135.3 64.8 L 134.6 63.3 L 133.6 61.9 L 132.4 60.4 L 129.3 57.3 L 127.2 56.2 L 127.9 54.6 L 130.2 55.3 L 132.6 55.7 L 134.9 56.2 L 137.1 57.0 L 139.2 57.9 L 141.2 59.0 L 143.0 60.3 L 144.7 61.8 L 146.3 63.6 L 147.7 65.5 L 147.6 70.1 L 144.3 73.3 L 139.8 73.2 L 136.5 69.9 L 136.5 68.7 Z M 117.9 17.1 L 120.1 19.9 L 116.35392084121705 20.75436897277832 L 115.7 22.3 L 113.3 27.3 L 111.70204086303711 30.2 L 161.8 30.2 L 171.8 20.2 L 183.8 30.2 L 183.8 34.2 L 109.2956521987915 34.2 L 107.6 36.8 L 104.4 41.3 L 100.9 45.5 L 97.2 49.4 L 93.2 53.1 L 88.8 56.5 L 84.2 59.5 L 83.0 58.1 L 86.2 53.8 L 89.2 49.5 L 92.1 45.3 L 94.8 41.0 L 97.3 36.6 L 99.6 32.2 L 101.6 27.6 L 103.5 23.0 L 105.1 18.2 L 106.1528533935547 14.312541484832764 L 106.1 14.3 L 106.9 11.8 Z " />
</g>
</svg>
