<svg xmlns="http://www.w3.org/2000/svg" xmlns:xlink="http://www.w3.org/1999/xlink" version="1.1" baseProfile="full" viewBox="0 0 200 200" width="200" height="200">
<g fill="black">
<path d="M 146.5 178.9 L 136.3 175.4 L 125.9 171.9 L 115.1 168.7 L 111.29980659484863 167.60444869995118 L 100.0 173.5 L 87.0 178.3 L 72.6 182.2 L 56.6 184.9 L 39.2 186.5 L 20.2 187.0 L 20.1 185.2 L 38.8 182.8 L 55.7 179.6 L 71.0 175.8 L 84.5 171.2 L 96.3 165.8 L 99.05166072845459 164.15439901351928 L 92.6 162.4 L 80.8 159.4 L 68.7 156.4 L 61.868936920166014 154.7338870048523 L 60.8 155.9 L 56.3 160.6 L 51.6 165.1 L 43.3 156.4 L 47.8 152.1 L 52.1 147.6 L 56.3 143.1 L 60.4 138.4 L 64.3 133.6 L 65.25510206222535 132.4 L 14.1 132.4 L 14.1 128.4 L 68.41176471710205 128.4 L 75.4 118.5 L 78.9 113.2 L 81.70144519805908 108.70070924758912 L 81.7 108.7 L 82.7 107.0 L 92.5 114.0 L 94.0 117.3 L 90.47368421554566 117.3 L 89.0 119.7 L 85.4 125.2 L 83.1481481552124 128.4 L 163.8 128.4 L 173.8 118.4 L 185.8 128.4 L 185.8 132.4 L 142.0 132.4 L 136.8 142.8 L 130.0 152.2 L 121.5 160.4 L 120.44048519134522 161.15225553512573 L 128.4 163.0 L 139.2 165.8 L 149.8 168.7 L 160.1 171.9 L 170.0 175.2 L 173.3 178.4 L 173.4 183.0 L 170.3 186.2 L 165.7 186.4 L 156.2 182.6 Z M 80.2754716873169 132.4 L 77.7 135.9 L 73.7 141.1 L 69.5 146.1 L 65.2 151.1 L 64.14713335037231 152.24858179092408 L 69.4 152.7 L 81.8 154.2 L 93.9 156.0 L 105.7 158.1 L 107.92641506195068 158.5452830314636 L 114.9 152.9 L 121.7 145.4 L 126.9 137.2 L 128.9470588684082 132.4 Z M 62.50361442565918 19.044979953765868 L 70.2 26.1 L 70.3 29.4 L 66.53137254714966 27.81960783004761 L 63.8 28.6 L 61.1 29.3 L 58.2 30.1 L 55.3 30.7 L 52.3 31.4 L 49.2 31.9 L 46.1 32.5 L 42.9 32.9 L 42.0 32.97941179275513 L 42.0 62.0 L 53.7777777671814 62.0 L 60.0 55.0 L 68.0 62.0 L 68.0 66.0 L 42.0 66.0 L 42.0 94.0 L 53.7777777671814 94.0 L 60.0 87.0 L 68.0 94.0 L 68.0 98.0 L 42.0 98.0 L 42.0 110.0 L 30.0 116.0 L 30.0 25.0 L 39.91935482025146 29.95967741012573 L 44.3 27.3 L 47.0 25.8 L 52.2 22.8 L 57.0 19.8 L 59.3 18.4 L 60.68785047531128 17.453738307952882 L 60.6 17.3 L 60.733649253845215 17.422511863708497 L 61.5 16.9 Z M 86.6 26.1 L 111.3 26.1 L 117.3 21.1 L 128.3 30.1 L 123.3 34.1 L 123.3 104.8 L 111.3 110.8 L 111.3 98.8 L 86.6 98.8 L 74.6 104.8 L 74.6 20.1 Z M 173.0 35.0 L 168.0 39.0 L 168.0 104.0 L 156.0 110.0 L 156.0 98.0 L 129.0 98.0 L 129.0 94.0 L 156.0 94.0 L 156.0 66.0 L 129.0 66.0 L 129.0 62.0 L 156.0 62.0 L 156.0 35.0 L 129.0 35.0 L 129.0 31.0 L 156.0 31.0 L 162.0 26.0 Z M 86.6 63.4 L 86.6 94.8 L 111.3 94.8 L 111.3 63.4 Z M 86.6 30.1 L 86.6 59.4 L 111.3 59.4 L 111.3 30.1 Z " />
</g>
</svg>
