<svg xmlns="http://www.w3.org/2000/svg" xmlns:xlink="http://www.w3.org/1999/xlink" version="1.1" baseProfile="full" viewBox="0 0 200 200" width="200" height="200">
<g fill="black">
<path d="M 148.0 130.8 L 151.0 132.8 L 148.0 134.6 L 148.0 151.7 L 163.0 151.7 L 173.0 141.7 L 185.0 151.7 L 185.0 155.7 L 148.0 155.7 L 148.0 181.5 L 136.0 187.5 L 136.0 155.7 L 102.0 155.7 L 102.0 151.7 L 136.0 151.7 L 136.0 128.8 Z M 67.0 111.4 L 63.8 109.2 L 60.2 107.1 L 57.51686143875122 105.7257095336914 L 56.1 107.3 L 49.0 113.5 L 41.1 119.0 L 32.5 123.7 L 23.2 127.6 L 13.0 130.6 L 12.4 128.9 L 21.6 124.1 L 29.9 119.1 L 37.4 113.6 L 44.0 107.8 L 49.38210496902466 101.95392045974731 L 46.8 100.9 L 41.6 98.9 L 36.0 96.9 L 35.877167320251466 96.85700855255126 L 34.1 101.7 L 20.8 103.2 L 34.274461555480954 66.4 L 17.9 66.4 L 17.9 62.4 L 35.739076900482175 62.4 L 44.6 38.2 L 55.2 44.2 L 57.3 47.1 L 53.84911069869995 47.88133344650269 L 48.52139129638672 62.4 L 67.3 62.4 L 73.3 57.4 L 84.3 66.4 L 79.3 69.4 L 77.77379779815674 70.03591756820678 L 76.2 75.3 L 72.5 84.3 L 67.8 92.7 L 63.66096906661987 98.52530279159546 L 63.9 98.6 L 68.4 100.3 L 72.6 102.2 L 76.5 104.4 L 80.1 106.8 L 82.1 110.9 L 80.8 115.2 L 76.7 117.3 L 72.3 115.9 L 69.9 113.7 Z M 181.46736841201783 111.08822965621948 L 178.9 113.5 L 174.3 113.2 L 171.2 109.9 L 171.6 109.5 L 171.9 109.0 L 172.1 108.4 L 172.1 107.6 L 172.0702127456665 107.3319149017334 L 169.4 108.4 L 166.4 109.4 L 163.6 110.4 L 160.9 111.3 L 158.3 112.2 L 155.8 113.0 L 153.45325441360472 113.78224849700928 L 151.6 118.0 L 149.1 115.4 L 145.1 103.9 L 147.0 103.6 L 149.4 103.6 L 151.8 103.7 L 153.5666666984558 103.7 L 154.1 102.5 L 154.8 100.9 L 155.6 99.3 L 156.8 96.3 L 157.3 94.8 L 157.8 93.4 L 157.89974937438964 93.07581453323364 L 157.6 92.9 L 158.7 91.4 L 168.0 99.0 L 168.975 101.55 L 169.7 100.1 L 170.9 100.7 L 172.4 100.8 L 173.9 101.0 L 175.3 101.3 L 176.6 101.7 L 177.9 102.2 L 179.2 102.9 L 180.4 103.7 L 181.5 104.7 L 182.5 105.9 L 182.3886178970337 107.57073173522949 L 185.0 97.6 L 187.0 97.6 L 185.0 118.6 L 188.3 120.8 L 190.5 124.1 L 188.3 127.4 L 185.0 129.6 L 148.8 129.6 L 146.3 129.5 L 143.8 129.1 L 141.4 128.4 L 139.2 127.2 L 137.2 125.7 L 135.5 123.7 L 134.3 121.5 L 133.5 119.1 L 133.0 116.7 L 132.8 114.1 L 132.8 89.5 L 115.67826089859008 89.5 L 124.2 93.0 L 126.7 95.7 L 122.77492923736573 96.89153928756714 L 121.6 100.1 L 118.1 106.4 L 113.7 112.1 L 108.4 117.0 L 102.2 121.2 L 95.4 124.6 L 87.8 127.3 L 79.5 129.2 L 70.4 130.3 L 61.26115703582764 130.67685947418212 L 62.0 130.8 L 65.0 132.8 L 62.0 134.6 L 62.0 151.7 L 74.0 151.7 L 84.0 141.7 L 96.0 151.7 L 96.0 155.7 L 61.856862735748294 155.7 L 60.8 160.6 L 59.2 165.5 L 56.9 169.9 L 54.1 173.9 L 50.8 177.5 L 46.9 180.7 L 42.7 183.3 L 37.9 185.5 L 32.8 187.1 L 27.2 188.4 L 26.7 186.7 L 31.4 184.0 L 35.6 181.1 L 39.1 178.2 L 42.2 175.2 L 44.6 172.1 L 46.6 168.9 L 48.1 165.5 L 49.1 162.0 L 49.8 158.4 L 49.938461494445804 155.7 L 15.0 155.7 L 15.0 151.7 L 50.0 151.7 L 50.0 128.8 L 60.68679246902466 130.58113203048705 L 60.5 128.9 L 69.8 126.6 L 78.1 124.0 L 85.6 121.1 L 92.0 117.8 L 97.6 114.1 L 102.2 110.1 L 105.9 105.7 L 108.9 100.9 L 111.1 95.8 L 112.33089122772216 91.20467262268066 L 112.3 91.2 L 112.725 89.5 L 100.9 89.5 L 100.9 101.5 L 88.9 107.5 L 88.9 47.1 L 100.9 53.1 L 119.4 53.1 L 119.8 52.7 L 121.1 50.7 L 122.3 48.8 L 123.5 47.0 L 124.7 45.3 L 125.7 43.6 L 126.7 42.0 L 126.88181819915772 41.65909090042114 L 122.0 44.1 L 122.0 28.6 L 78.0 28.6 L 78.0 38.1 L 66.0 44.1 L 66.0 28.6 L 13.0 28.6 L 13.0 24.6 L 66.0 24.6 L 66.0 10.5 L 78.0 12.5 L 81.0 14.5 L 78.0 16.3 L 78.0 24.6 L 122.0 24.6 L 122.0 10.5 L 134.0 12.5 L 137.0 14.5 L 134.0 16.3 L 134.0 24.6 L 165.0 24.6 L 175.0 14.6 L 187.0 24.6 L 187.0 28.6 L 134.0 28.6 L 134.0 38.1 L 131.28604650497437 39.4569766998291 L 137.7 46.1 L 138.5 49.6 L 133.44826631546022 48.44785022735596 L 133.0 48.7 L 131.3 49.7 L 129.4 50.6 L 127.5 51.6 L 125.5 52.5 L 124.23999996185303 53.1 L 167.1 53.1 L 173.1 48.1 L 184.1 57.1 L 179.1 61.1 L 179.1 89.5 L 167.1 95.5 L 167.1 89.5 L 144.2 89.5 L 144.8 89.6 L 147.8 91.6 L 144.8 93.4 L 144.8 115.3 L 144.9 116.3 L 145.1 116.9 L 145.2 117.3 L 145.3 117.5 L 145.5 117.8 L 146.5 118.3 L 147.5 118.5 L 148.8 118.6 L 179.5 118.6 Z M 169.3 102.4 L 163.9078125 102.028125 L 163.8 102.1 L 162.4 103.0 L 160.89934644699096 103.93790845870971 L 162.7 104.0 L 165.7 104.2 L 168.8 104.4 L 171.2619047164917 104.62380952835083 L 170.7 103.5 L 170.0 102.3 L 169.06722974777222 101.79121618270874 Z M 47.053565216064456 66.4 L 37.20104560852051 93.2492832183838 L 42.8 93.8 L 48.6 94.6 L 54.0 95.7 L 54.1777777671814 95.74880170822144 L 54.9 94.8 L 59.1 87.6 L 62.6 80.0 L 65.4 71.8 L 66.64137935638428 66.4 Z M 100.9 73.1 L 100.9 85.5 L 128.0 85.5 L 128.0 73.1 Z M 140.0 73.1 L 140.0 85.5 L 167.1 85.5 L 167.1 73.1 Z M 100.9 57.1 L 100.9 69.1 L 128.0 69.1 L 128.0 57.1 Z M 140.0 57.1 L 140.0 69.1 L 167.1 69.1 L 167.1 57.1 Z " />
</g>
</svg>
