<svg xmlns="http://www.w3.org/2000/svg" xmlns:xlink="http://www.w3.org/1999/xlink" version="1.1" baseProfile="full" viewBox="0 0 200 200" width="200" height="200">
<g fill="black">
<path d="M 30.3 22.0 L 47.3 22.0 L 53.3 17.0 L 64.3 26.0 L 59.3 30.0 L 59.3 171.0 L 59.1 173.5 L 58.7 176.0 L 57.9 178.4 L 56.7 180.7 L 55.0 182.7 L 53.0 184.3 L 50.7 185.6 L 48.3 186.4 L 45.8 186.8 L 43.3 187.0 L 43.3 181.0 L 29.3 178.0 L 29.3 175.0 L 43.3 175.0 L 44.5 174.9 L 45.4 174.7 L 46.3 174.4 L 46.7 174.0 L 46.9 173.7 L 47.0 173.1 L 47.2 172.2 L 47.3 171.0 L 47.3 114.0 L 30.3 114.0 L 30.3 118.0 L 29.8 128.7 L 29.2 138.6 L 28.2 147.8 L 27.0 156.1 L 25.6 163.6 L 23.8 170.4 L 21.7 176.3 L 19.3 181.4 L 16.5 185.5 L 13.4 188.5 L 12.0 187.4 L 13.2 183.6 L 14.4 179.3 L 15.4 174.4 L 16.4 168.7 L 17.2 162.3 L 17.8 155.0 L 18.2 146.9 L 18.4 138.1 L 18.5 128.4 L 18.3 118.0 L 18.3 16.0 Z M 118.3 170.7 L 114.4 164.2 L 110.2 157.8 L 105.5 151.7 L 104.11173810958863 150.08961629867554 L 103.3 151.7 L 96.1 162.5 L 87.7 171.5 L 78.4 178.8 L 68.1 184.3 L 57.0 187.8 L 56.4 186.1 L 66.4 180.9 L 75.2 174.5 L 83.1 166.9 L 89.9 158.0 L 95.9 147.7 L 97.84941463470459 143.09938144683838 L 95.2 140.3 L 89.4 134.8 L 83.4 129.5 L 82.45534248352051 128.71770553588868 L 80.8 138.0 L 68.0 141.9 L 79.68695316314697 76.0 L 65.6 76.0 L 65.6 72.0 L 80.39632816314698 72.0 L 90.7 13.9 L 102.2 18.0 L 104.8 20.5 L 101.58085947036743 21.471815967559813 L 92.56999998092651 72.0 L 116.4 72.0 L 126.4 62.0 L 138.3 71.91666669845581 L 138.3 38.0 L 150.3 44.0 L 172.6 44.0 L 178.6 39.0 L 189.6 48.0 L 184.6 52.0 L 184.6 162.0 L 172.6 168.0 L 172.6 156.0 L 150.3 156.0 L 150.3 168.0 L 138.3 174.0 L 138.3 76.0 L 123.61720428466796 76.0 L 121.8 92.9 L 118.7 109.9 L 114.7 125.4 L 109.5 139.4 L 107.93914489746093 142.49653520584107 L 111.8 146.1 L 117.4 152.0 L 122.7 158.4 L 127.5 165.1 L 131.9 172.3 L 136.0 179.7 L 136.1 184.3 L 133.0 187.7 L 128.5 187.8 L 125.1 184.7 L 121.9 177.6 Z M 150.3 48.0 L 150.3 152.0 L 172.6 152.0 L 172.6 48.0 Z M 91.85666666030883 76.0 L 83.0900752067566 125.15845670700074 L 85.5 126.3 L 92.7 130.6 L 99.5 135.3 L 100.72559299468995 136.3116005897522 L 100.9 135.9 L 105.0 122.6 L 108.2 107.8 L 110.5 91.5 L 111.5628571510315 76.0 Z M 30.3 69.0 L 30.3 110.0 L 47.3 110.0 L 47.3 69.0 Z M 30.3 26.0 L 30.3 65.0 L 47.3 65.0 L 47.3 26.0 Z " />
</g>
</svg>
