<svg xmlns="http://www.w3.org/2000/svg" xmlns:xlink="http://www.w3.org/1999/xlink" version="1.1" baseProfile="full" viewBox="0 0 200 200" width="200" height="200">
<g fill="black">
<path d="M 167.1 177.5 L 161.1 171.2 L 155.4 164.3 L 150.2 156.9 L 145.5 149.0 L 141.2 140.6 L 137.4 131.7 L 134.2 122.2 L 131.8079999923706 113.0 L 123.2 113.0 L 123.2 166.7 L 128.0 165.2 L 132.8 163.8 L 137.7 162.4 L 142.7 161.2 L 147.8 160.1 L 148.5 161.8 L 144.1 164.7 L 139.7 167.4 L 135.3 169.9 L 130.8 172.2 L 126.4 174.5 L 121.9 176.8 L 117.5 178.9 L 113.1 181.1 L 108.7 183.1 L 108.19039382934571 183.34887742996216 L 107.3 187.3 L 104.4 185.2 L 98.1 174.7 L 100.0 174.0 L 104.6 172.5 L 109.2 171.1 L 111.2 170.44782609939574 L 111.2 113.0 L 97.6 113.0 L 97.6 109.0 L 168.51818180084229 109.0 L 176.7 100.0 L 186.7 109.0 L 186.7 113.0 L 134.03111114501954 113.0 L 138.0 120.6 L 142.7 129.2 L 147.5 137.2 L 152.5 144.6 L 153.9887435913086 146.5100860595703 L 154.2 146.1 L 157.0 139.3 L 158.3 136.0 L 159.7 132.7 L 160.9 129.5 L 162.2 126.2 L 164.4 119.8 L 165.11559629440308 117.43853206634522 L 165.0 117.4 L 165.9 115.3 L 176.4 121.2 L 178.4 124.2 L 174.38298902511596 124.75407047271729 L 172.7 127.5 L 170.7 130.6 L 168.7 133.6 L 166.5 136.6 L 164.2 139.5 L 161.8 142.4 L 159.3 145.1 L 156.6 147.8 L 155.7124726295471 148.72166299819946 L 157.8 151.4 L 163.2 157.7 L 169.0 163.5 L 175.0 168.6 L 181.2 173.3 L 187.7 177.4 L 191.7 179.9 L 180.6 188.5 L 173.7 183.3 Z M 77.2 176.2 L 73.6 172.5 L 69.8 169.1 L 65.7 165.8 L 64.2480375289917 164.81002559661866 L 61.4 168.1 L 54.6 173.6 L 46.7 178.2 L 37.8 181.7 L 28.1 184.1 L 17.3 185.5 L 17.0 183.7 L 27.0 180.5 L 35.9 176.7 L 43.5 172.4 L 49.9 167.6 L 55.3 162.2 L 56.815886878967284 160.07053985595704 L 56.7 160.0 L 51.7 157.4 L 46.5 154.8 L 43.792345905303954 153.59122581481932 L 41.6 160.5 L 28.4 162.6 L 39.37297296524048 127.8 L 13.1 127.8 L 13.1 123.8 L 40.634234237670896 123.8 L 45.9 107.1 L 56.8 112.6 L 59.0 115.5 L 55.621665954589844 116.31330261230468 L 53.245929050445554 123.8 L 82.61818180084228 123.8 L 90.8 114.8 L 100.8 123.8 L 100.8 127.8 L 78.59306926727295 127.8 L 77.7 136.0 L 75.4 145.4 L 71.9 153.9 L 69.23879613876343 158.14660196304322 L 70.2 158.6 L 75.3 161.5 L 80.1 164.8 L 84.7 168.5 L 89.0 172.6 L 93.0 177.0 L 94.2 181.4 L 91.9 185.4 L 87.5 186.5 L 83.5 184.3 L 80.5 180.1 Z M 51.976617908477785 127.8 L 44.63900690078735 150.92312965393066 L 47.5 151.2 L 53.5 152.3 L 59.3 154.0 L 60.43684206008911 154.42631578445435 L 62.8 149.7 L 65.0 142.4 L 66.4 134.5 L 66.63103446960449 127.8 Z M 23.3 102.0 L 51.0 102.0 L 51.0 81.0 L 13.1 81.0 L 13.1 77.0 L 51.0 77.0 L 51.0 56.0 L 23.3 56.0 L 23.3 52.0 L 51.0 52.0 L 51.0 35.0 L 15.1 35.0 L 15.1 31.0 L 51.0 31.0 L 51.0 12.0 L 63.0 14.0 L 66.0 16.0 L 63.0 17.8 L 63.0 31.0 L 76.8 31.0 L 86.8 21.0 L 98.8 31.0 L 98.8 35.0 L 63.0 35.0 L 63.0 52.0 L 75.9 52.0 L 81.9 47.0 L 92.9 56.0 L 87.9 60.0 L 87.9 77.0 L 90.3 77.0 L 94.8 71.0 L 100.8 77.0 L 100.8 81.0 L 87.9 81.0 L 87.9 108.0 L 75.9 114.0 L 75.9 106.0 L 23.3 106.0 Z M 63.0 81.0 L 63.0 102.0 L 75.9 102.0 L 75.9 81.0 Z M 119.7 93.8 L 107.7 99.8 L 107.7 17.1 L 119.7 23.1 L 166.7 23.1 L 172.7 18.1 L 183.7 27.1 L 178.7 31.1 L 178.7 92.8 L 166.7 98.8 L 166.7 90.8 L 119.7 90.8 Z M 119.7 58.4 L 119.7 86.8 L 137.2 86.8 L 137.2 58.4 Z M 149.2 58.4 L 149.2 86.8 L 166.7 86.8 L 166.7 58.4 Z M 63.0 56.0 L 63.0 77.0 L 75.9 77.0 L 75.9 56.0 Z M 119.7 27.1 L 119.7 54.4 L 137.2 54.4 L 137.2 27.1 Z M 149.2 27.1 L 149.2 54.4 L 166.7 54.4 L 166.7 27.1 Z " />
</g>
</svg>
