<svg xmlns="http://www.w3.org/2000/svg" xmlns:xlink="http://www.w3.org/1999/xlink" version="1.1" baseProfile="full" viewBox="0 0 200 200" width="200" height="200">
<g fill="black">
<path d="M 122.3 149.8 L 121.6125 153.8 L 146.5 153.8 L 146.5 131.9 L 158.5 133.9 L 161.5 135.9 L 158.5 137.7 L 158.5 153.8 L 165.4 153.8 L 175.4 143.8 L 187.4 153.8 L 187.4 157.8 L 158.5 157.8 L 158.5 183.2 L 146.5 189.2 L 146.5 157.8 L 120.76610174179078 157.8 L 119.6 162.1 L 117.5 167.6 L 114.9 172.5 L 111.8 176.8 L 108.2 180.6 L 104.2 183.7 L 99.8 186.1 L 95.0 187.8 L 89.9 188.8 L 89.4 187.1 L 93.5 184.5 L 97.1 181.8 L 100.1 178.8 L 102.7 175.6 L 104.9 172.1 L 106.7 168.3 L 108.2 164.1 L 109.3 159.4 L 109.52399997711181 157.8 L 80.1 157.8 L 80.1 153.8 L 110.03214282989502 153.8 L 110.3 148.8 L 110.3 131.9 L 122.3 133.9 L 125.3 135.9 L 122.3 137.7 L 122.3 149.3 L 121.98421049118042 149.77368421554564 Z M 59.9 147.5 L 56.8 143.3 L 53.5 139.4 L 52.615625 138.515625 L 51.8 140.4 L 45.2 152.7 L 37.8 163.7 L 29.6 173.4 L 20.6 181.8 L 10.8 188.7 L 9.7 187.2 L 18.0 179.0 L 25.5 169.9 L 32.4 160.0 L 38.5 149.0 L 44.0 137.0 L 45.77219324111938 132.16338920593262 L 45.7 132.1 L 41.4 128.8 L 36.7 125.5 L 32.22816905975342 122.69414529800414 L 30.4 133.0 L 17.6 136.9 L 30.637642288208006 63.0 L 15.1 63.0 L 15.1 59.0 L 31.343333339691164 59.0 L 39.3 13.9 L 50.8 18.0 L 53.4 20.5 L 50.18431510925293 21.47077283859253 L 43.52695655822754 59.0 L 60.9 59.0 L 66.9 54.0 L 77.9 63.0 L 72.9 66.0 L 72.20014724731445 66.29160528182983 L 70.2 79.7 L 66.8 96.6 L 62.6 112.4 L 57.6 127.0 L 56.303218078613284 129.99601345062257 L 59.8 132.6 L 64.2 136.5 L 68.3 140.8 L 72.1 145.4 L 75.5 150.4 L 76.0 154.9 L 73.3 158.6 L 68.7 159.1 L 65.1 156.3 L 62.7 151.8 Z M 172.9 104.8 L 171.8 102.7 L 170.73143739700316 100.74096851348877 L 163.3 101.9 L 152.8 103.5 L 142.8 104.8 L 139.5 105.17422676086426 L 139.5 130.6 L 127.5 136.6 L 127.5 106.51538457870484 L 124.0 106.9 L 115.2 107.8 L 108.56765184402465 108.51917028427124 L 117.3 116.1 L 118.4 119.5 L 114.22288074493409 118.99586496353149 L 112.4 120.6 L 109.6 122.7 L 106.7 124.8 L 103.7 126.7 L 100.4 128.6 L 97.0 130.4 L 93.4 132.0 L 89.5 133.5 L 85.6 135.1 L 84.8 133.5 L 88.0 131.0 L 91.0 128.3 L 93.8 125.7 L 96.4 123.1 L 98.8 120.6 L 101.0 118.2 L 103.0 115.8 L 104.8 113.4 L 106.4 111.1 L 107.28122482299804 109.65227346420288 L 107.2 109.6 L 107.92201490402222 108.58917913436889 L 106.9 108.7 L 99.0 109.4 L 91.5 110.1 L 88.62691736221313 110.34626426696778 L 86.6 113.6 L 84.5 110.7 L 82.0 98.8 L 84.0 98.7 L 98.5 98.7 L 106.3 98.6 L 114.7 98.6 L 123.4 98.4 L 127.84948663711548 98.35215606689454 L 128.5 97.6 L 131.6 94.0 L 134.6 90.6 L 137.5 87.3 L 140.2 84.1 L 142.8 81.0 L 145.3 78.1 L 147.7 75.2 L 151.29686813354493 70.57545518875122 L 151.2 70.5 L 152.2 69.4 L 160.7 77.9 L 161.5 81.4 L 157.59570407867432 80.64653940200806 L 155.2 82.7 L 152.2 85.1 L 149.0 87.5 L 145.7 90.0 L 142.2 92.6 L 138.6 95.1 L 134.7 97.6 L 133.56680793762206 98.2909707069397 L 142.3 98.2 L 152.4 98.1 L 163.0 98.2 L 169.10753135681153 98.31104602813721 L 169.1 98.3 L 167.4 96.1 L 165.6 93.8 L 163.5 91.4 L 161.3 88.9 L 158.6 86.8 L 159.5 85.3 L 162.7 86.8 L 165.9 88.1 L 168.9 89.6 L 171.7 91.2 L 174.4 92.9 L 176.9 94.8 L 179.2 96.8 L 181.3 98.9 L 183.3 101.1 L 185.1 103.5 L 185.4 108.0 L 182.4 111.6 L 177.9 111.8 L 174.4 108.9 L 173.7 106.9 Z M 166.5 128.0 L 165.1 125.7 L 163.5 123.5 L 161.7 121.2 L 159.7 118.9 L 157.5 116.6 L 155.2 114.2 L 152.7 111.7 L 149.8 109.5 L 150.6 107.9 L 154.1 109.4 L 157.5 110.7 L 160.7 112.1 L 163.8 113.7 L 166.7 115.4 L 169.5 117.3 L 172.0 119.2 L 174.4 121.3 L 176.7 123.5 L 178.8 125.8 L 179.5 130.3 L 177.0 134.1 L 172.5 134.8 L 168.7 132.3 L 167.7 130.2 Z M 42.817391300201415 63.0 L 32.925929164886476 118.76069364547729 L 33.1 118.8 L 39.1 120.7 L 44.7 123.1 L 48.38064441680908 125.04449138641357 L 48.8 123.9 L 52.9 109.7 L 56.3 94.4 L 59.0 77.9 L 60.69318180084228 63.0 Z M 113.7 91.7 L 112.6 89.8 L 111.2 87.8 L 109.7 85.8 L 107.9 83.8 L 105.9 81.7 L 103.7 79.7 L 101.2 77.5 L 98.4 75.7 L 99.2 74.1 L 102.4 75.3 L 105.7 76.2 L 108.7 77.3 L 111.6 78.5 L 114.4 80.0 L 115.87551488876343 80.90800914764404 L 117.0 78.9 L 118.4 76.6 L 119.7 74.4 L 121.1 72.2 L 122.3 70.1 L 123.6 68.0 L 124.7 65.9 L 125.25 64.9 L 78.8 64.9 L 78.8 60.9 L 127.5 60.9 L 127.5 48.0 L 93.4 48.0 L 93.4 44.0 L 127.5 44.0 L 127.5 31.0 L 89.0 31.0 L 89.0 27.0 L 127.5 27.0 L 127.5 11.8 L 139.5 13.8 L 142.5 15.8 L 139.5 17.6 L 139.5 27.0 L 155.9 27.0 L 165.9 17.0 L 177.9 27.0 L 177.9 31.0 L 139.5 31.0 L 139.5 44.0 L 155.3181818008423 44.0 L 163.5 35.0 L 173.5 44.0 L 173.5 48.0 L 139.5 48.0 L 139.5 60.9 L 166.1 60.9 L 176.1 50.9 L 188.1 60.9 L 188.1 64.9 L 131.2375 64.9 L 136.3 69.4 L 137.4 72.8 L 132.90650329589843 72.25768146514892 L 132.5 72.6 L 130.6 74.1 L 128.6 75.7 L 126.5 77.2 L 122.1 80.2 L 119.7 81.7 L 118.27095928192139 82.5002628326416 L 119.4 83.3 L 121.7 85.2 L 123.8 87.3 L 125.7 89.5 L 126.3 94.0 L 123.5 97.7 L 119.0 98.3 L 115.3 95.6 L 114.6 93.7 Z " />
</g>
</svg>
