<svg xmlns="http://www.w3.org/2000/svg" xmlns:xlink="http://www.w3.org/1999/xlink" version="1.1" baseProfile="full" viewBox="0 0 200 200" width="200" height="200">
<g fill="black">
<path d="M 71.7 148.0 L 67.8 143.8 L 63.4 139.8 L 60.777695941925046 137.67983922958373 L 59.2 140.7 L 51.1 153.0 L 42.1 163.9 L 32.2 173.6 L 21.2 181.9 L 9.4 188.7 L 8.5 187.2 L 18.9 178.9 L 28.5 169.7 L 37.1 159.7 L 44.9 148.7 L 51.7 136.7 L 53.66235609054566 132.41552257537842 L 53.5 132.3 L 47.9 128.9 L 41.9 125.6 L 35.5 122.3 L 34.954739284515384 122.0434066772461 L 32.5 133.3 L 19.4 136.6 L 35.509357166290286 63.0 L 15.0 63.0 L 15.0 59.0 L 36.38486576080322 59.0 L 46.3 13.7 L 57.6 18.2 L 60.1 20.8 L 56.8312747001648 21.725110912322997 L 48.70269327163696 59.0 L 73.0 59.0 L 79.0 54.0 L 90.0 63.0 L 85.0 66.0 L 84.0762845993042 66.38488140106202 L 81.7 79.9 L 77.5 96.8 L 72.4 112.7 L 66.2 127.3 L 64.89137620925904 129.80507974624635 L 69.0 132.4 L 74.4 136.2 L 79.4 140.5 L 83.9 145.1 L 88.1 150.0 L 89.1 154.5 L 86.7 158.4 L 82.2 159.3 L 78.3 156.9 L 75.2 152.4 Z M 175.5 108.6 L 175.5 112.6 L 142.9 112.6 L 142.9 139.0 L 163.6 139.0 L 173.6 129.0 L 185.6 139.0 L 185.6 143.0 L 142.9 143.0 L 142.9 182.6 L 130.9 188.6 L 130.9 143.0 L 89.9 143.0 L 89.9 139.0 L 130.9 139.0 L 130.9 112.6 L 97.6 112.6 L 97.6 108.6 L 153.5 108.6 L 163.5 98.6 Z M 47.83040838241577 63.0 L 35.720851039886476 118.53028087615967 L 36.7 118.7 L 43.9 120.6 L 50.8 122.9 L 56.81526231765747 125.53167724609375 L 57.7 123.6 L 62.9 109.4 L 67.1 94.1 L 70.5 77.7 L 72.6 63.0 Z M 121.2 96.3 L 120.8 93.9 L 120.2 91.5 L 119.5 89.2 L 118.7 86.9 L 117.7 84.6 L 116.6 82.3 L 115.4 79.9 L 113.7 77.9 L 114.9 76.5 L 117.1 78.2 L 119.6 79.6 L 121.8 81.4 L 123.9 83.3 L 125.9 85.4 L 127.7 87.7 L 129.4 90.2 L 130.9 92.8 L 132.3 95.6 L 133.5 98.5 L 132.7 103.0 L 129.0 105.8 L 124.5 105.0 L 121.8 101.3 L 121.6 98.8 Z M 171.7 91.4 L 167.4 86.4 L 164.05154695510865 82.15318155288696 L 162.02531642913817 82.50253162384033 L 160.8 84.8 L 159.2 87.7 L 157.4 90.6 L 155.7 93.5 L 153.8 96.4 L 151.9 99.2 L 149.8 102.0 L 147.6 104.8 L 145.6 107.6 L 144.0 106.8 L 145.1 103.5 L 145.9 100.1 L 146.8 96.8 L 149.5 87.2 L 150.3 84.0 L 151.2 80.9 L 152.0 77.7 L 152.53222799301147 75.63761653900147 L 152.4 75.6 L 153.3 73.2 L 160.3777091026306 76.97036838531494 L 159.5 75.7 L 155.8 69.9 L 152.4 63.9 L 149.3 57.6 L 146.5 51.1 L 144.4628571510315 44.9 L 133.9936170578003 44.9 L 133.1 47.0 L 128.5 56.1 L 123.2 64.8 L 117.3 73.1 L 110.7 81.0 L 103.4 88.5 L 95.5 95.6 L 86.9 102.0 L 85.7 100.7 L 92.9 92.8 L 99.5 84.9 L 105.5 76.9 L 111.0 68.8 L 115.9 60.4 L 120.2 51.9 L 123.14318180084229 44.9 L 88.7 44.9 L 88.7 40.9 L 124.65777778625488 40.9 L 127.0 34.1 L 129.5 24.8 L 131.21766500473024 16.302078247070312 L 131.2 16.3 L 131.7 13.5 L 143.1 17.7 L 145.7 20.3 L 142.11157875061036 21.539636421203614 L 140.5 27.8 L 137.1 37.6 L 135.69574470520018 40.9 L 164.2 40.9 L 174.2 30.9 L 186.2 40.9 L 186.2 44.9 L 147.0137930870056 44.9 L 150.2 49.1 L 154.4 54.6 L 158.5 60.0 L 162.6 65.1 L 166.8 70.0 L 171.1 74.6 L 175.5 78.9 L 180.0 83.0 L 184.6 86.8 L 189.2 90.4 L 191.7 92.4 L 180.9 100.6 L 176.2 96.1 Z " />
</g>
</svg>
