<svg xmlns="http://www.w3.org/2000/svg" xmlns:xlink="http://www.w3.org/1999/xlink" version="1.1" baseProfile="full" viewBox="0 0 200 200" width="200" height="200">
<g fill="black">
<path d="M 125.0 111.8 L 159.9 111.8 L 165.9 106.8 L 176.9 115.8 L 171.9 119.8 L 171.9 178.1 L 159.9 184.1 L 159.9 174.1 L 125.0 174.1 L 125.0 181.1 L 113.0 187.1 L 113.0 105.8 Z M 80.1 171.9 L 75.7 167.9 L 71.1 164.2 L 66.9692307472229 161.10192308425903 L 66.6 161.5 L 59.1 167.5 L 50.5 172.4 L 40.9 176.3 L 30.2 179.2 L 18.5 181.0 L 18.2 179.2 L 29.2 175.5 L 38.8 171.4 L 47.3 166.7 L 54.5 161.4 L 59.80382013320923 156.35702352523805 L 55.9 154.0 L 50.3 150.9 L 44.5 147.9 L 42.35553236007691 146.82776613235472 L 41.6 148.8 L 28.3 150.2 L 40.06578168869019 119.4 L 13.5 119.4 L 13.5 115.4 L 41.59380531311035 115.4 L 54.2 82.4 L 64.7 88.5 L 66.7 91.5 L 63.27872734069824 92.2100754737854 L 54.39502487182617 115.4 L 84.4 115.4 L 94.4 105.4 L 106.4 115.4 L 106.4 119.4 L 86.25714282989502 119.4 L 85.0 128.2 L 82.2 137.9 L 78.2 146.7 L 73.0 154.6 L 72.9711085319519 154.63114862442018 L 76.3 156.5 L 81.8 159.9 L 87.0 163.7 L 92.0 167.8 L 96.8 172.1 L 98.4 176.4 L 96.6 180.6 L 92.3 182.2 L 88.1 180.4 L 84.2 176.0 Z M 125.0 115.8 L 125.0 170.1 L 159.9 170.1 L 159.9 115.8 Z M 52.86268653869629 119.4 L 43.48067436218262 143.89070720672606 L 45.8 144.3 L 52.3 145.9 L 58.6 148.0 L 64.5513355255127 150.43907194137574 L 65.5 149.2 L 69.3 142.2 L 72.0 134.5 L 73.8 126.2 L 74.26363639831543 119.4 Z M 38.4 26.3 L 81.6 26.3 L 87.6 21.3 L 98.6 30.3 L 93.6 34.3 L 93.6 83.3 L 81.6 89.3 L 81.6 77.3 L 38.4 77.3 L 38.4 89.3 L 26.4 95.3 L 26.4 20.3 Z M 169.4 91.4 L 167.0 91.0 L 164.6 90.2 L 162.4 89.1 L 160.4 87.5 L 158.7 85.6 L 157.5 83.4 L 156.6 81.0 L 156.1 78.5 L 156.0 76.0 L 156.0 45.0 L 138.33913040161133 45.0 L 136.6 53.0 L 133.3 63.6 L 129.4 73.3 L 124.6 82.2 L 119.2 90.1 L 113.0 97.1 L 106.1 103.0 L 98.5 107.7 L 97.4 106.2 L 103.5 100.1 L 109.0 93.5 L 113.8 86.4 L 118.0 78.6 L 121.5 70.1 L 124.5 60.8 L 126.8 50.7 L 127.6972222328186 45.0 L 104.0 45.0 L 104.0 41.0 L 128.3268518447876 41.0 L 128.5 39.9 L 129.5 28.2 L 129.9 15.8 L 129.92939014434813 15.800734710693359 L 130.0 13.4 L 141.9 16.1 L 144.9 18.2 L 141.59629163742065 20.078579235076905 L 140.9 29.2 L 139.1731707572937 41.0 L 156.0 41.0 L 162.0 36.0 L 173.0 45.0 L 168.0 49.0 L 168.0 77.2 L 168.1 78.1 L 168.2 78.7 L 168.4 79.1 L 168.5 79.4 L 168.7 79.6 L 169.1 79.9 L 169.7 80.1 L 170.7 80.3 L 172.0 80.5 L 178.5 80.5 L 184.0 59.5 L 186.0 59.5 L 184.0 80.5 L 187.3 82.7 L 189.5 86.0 L 187.3 89.3 L 184.0 91.5 L 172.0 91.5 Z M 38.4 30.3 L 38.4 73.3 L 81.6 73.3 L 81.6 30.3 Z " />
</g>
</svg>
