<svg xmlns="http://www.w3.org/2000/svg" xmlns:xlink="http://www.w3.org/1999/xlink" version="1.1" baseProfile="full" viewBox="0 0 200 200" width="200" height="200">
<g fill="black">
<path d="M 60.9 176.0 L 80.9 176.0 L 82.1 175.9 L 83.0 175.7 L 83.9 175.4 L 84.3 175.0 L 84.5 174.7 L 84.6 174.1 L 84.8 173.2 L 84.9 172.0 L 84.9 32.0 L 17.7 32.0 L 17.7 28.0 L 84.9 28.0 L 90.9 23.0 L 101.9 32.0 L 96.9 36.0 L 96.9 172.0 L 96.7 174.5 L 96.3 177.0 L 95.5 179.4 L 94.3 181.7 L 92.6 183.7 L 90.6 185.3 L 88.3 186.6 L 85.9 187.4 L 83.4 187.8 L 80.9 188.0 L 80.9 182.0 L 60.9 179.0 Z M 163.3 167.5 L 159.2 160.5 L 154.8 153.9 L 152.09459314346313 150.17255048751832 L 145.6 160.1 L 137.5 169.3 L 128.3 176.9 L 118.1 182.7 L 106.9 186.8 L 106.2 185.1 L 116.2 179.4 L 125.0 172.6 L 132.7 164.8 L 139.4 155.8 L 145.1 145.5 L 146.23908042907715 142.68865251541138 L 145.6 141.9 L 140.8 136.5 L 135.7 131.5 L 130.5 126.8 L 129.27299032211303 125.73504819869996 L 129.2 126.1 L 116.3 129.6 L 127.03867597579956 76.0 L 102.0 76.0 L 102.0 72.0 L 127.84006967544556 72.0 L 139.3 14.8 L 150.6 19.1 L 153.2 21.7 L 149.89280004501342 22.635999965667725 L 140.0199999809265 72.0 L 166.9 72.0 L 176.9 62.0 L 188.9 72.0 L 188.9 76.0 L 170.46201114654542 76.0 L 169.3 92.0 L 166.8 108.5 L 163.2 123.5 L 158.5 137.2 L 156.34339637756347 141.65941762924194 L 156.8 142.1 L 162.2 148.2 L 167.4 154.8 L 172.5 161.9 L 177.3 169.5 L 181.8 177.6 L 182.1 182.2 L 179.1 185.6 L 174.5 185.9 L 171.1 182.9 L 167.3 175.0 Z M 34.7 91.7 L 57.5 91.7 L 63.5 86.7 L 74.5 95.7 L 69.5 99.7 L 69.5 150.3 L 57.5 156.3 L 57.5 144.3 L 34.7 144.3 L 34.7 156.3 L 22.7 162.3 L 22.7 85.7 Z M 34.7 95.7 L 34.7 140.3 L 57.5 140.3 L 57.5 95.7 Z M 139.2199999809265 76.0 L 129.94233980178834 122.38830080032349 L 132.7 123.6 L 139.0 127.3 L 145.2 131.6 L 149.3179356575012 135.0897759437561 L 149.8 133.9 L 153.5 121.0 L 156.2 106.6 L 157.9 90.9 L 158.42899408340455 76.0 Z M 78.3 60.0 L 78.3 64.0 L 14.4 64.0 L 14.4 60.0 L 56.3 60.0 L 66.3 50.0 Z " />
</g>
</svg>
