<svg xmlns="http://www.w3.org/2000/svg" xmlns:xlink="http://www.w3.org/1999/xlink" version="1.1" baseProfile="full" viewBox="0 0 200 200" width="200" height="200">
<g fill="black">
<path d="M 71.7 148.0 L 67.8 143.8 L 63.4 139.8 L 60.777695941925046 137.67983922958373 L 59.2 140.7 L 51.1 153.0 L 42.1 163.9 L 32.2 173.6 L 21.2 181.9 L 9.4 188.7 L 8.5 187.2 L 18.9 178.9 L 28.5 169.7 L 37.1 159.7 L 44.9 148.7 L 51.7 136.7 L 53.66235609054566 132.41552257537842 L 53.5 132.3 L 47.9 128.9 L 41.9 125.6 L 35.5 122.3 L 34.954739284515384 122.0434066772461 L 32.5 133.3 L 19.4 136.6 L 35.509357166290286 63.0 L 15.0 63.0 L 15.0 59.0 L 36.38486576080322 59.0 L 46.3 13.7 L 57.6 18.2 L 60.1 20.8 L 56.8312747001648 21.725110912322997 L 48.70269327163696 59.0 L 73.0 59.0 L 79.0 54.0 L 90.0 63.0 L 85.0 66.0 L 84.0762845993042 66.38488140106202 L 81.7 79.9 L 77.5 96.8 L 72.4 112.7 L 66.2 127.3 L 64.89137620925904 129.80507974624635 L 69.0 132.4 L 74.4 136.2 L 79.4 140.5 L 83.9 145.1 L 88.1 150.0 L 89.1 154.5 L 86.7 158.4 L 82.2 159.3 L 78.3 156.9 L 75.2 152.4 Z M 170.7 164.3 L 167.9 157.4 L 167.4168830871582 156.30493507385253 L 158.1 159.1 L 147.5 162.1 L 137.3 164.6 L 127.5 167.0 L 118.2 169.1 L 109.2 171.0 L 100.7 172.7 L 92.6 174.3 L 84.9 175.6 L 81.69045839309692 176.12759590148926 L 79.9 179.6 L 77.6 176.8 L 74.3 165.1 L 76.3 164.9 L 83.5 164.3 L 91.1 163.6 L 95.28506345748902 163.18666038513183 L 97.0 156.8 L 100.3 145.2 L 103.8 132.8 L 107.6 119.4 L 111.6 105.2 L 115.7 90.1 L 120.0 74.0 L 124.5 57.0 L 129.1 39.2 L 133.6670479774475 21.31239538192749 L 133.6 21.3 L 134.3 18.7 L 145.5 23.5 L 147.9 26.2 L 144.43438796997071 27.190174865722657 L 140.1 42.2 L 134.8 59.9 L 129.7 76.8 L 124.6 92.7 L 119.7 107.7 L 114.8 121.7 L 110.1 134.8 L 105.4 147.0 L 100.6 158.1 L 98.34866714477539 162.88408222198487 L 99.2 162.8 L 107.7 161.8 L 116.7 160.7 L 126.2 159.5 L 136.1 158.2 L 146.5 156.8 L 157.4 155.4 L 166.55696392059326 154.35578479766846 L 164.9 150.6 L 161.7 143.8 L 158.2 137.0 L 154.4 130.1 L 150.4 123.3 L 146.2 116.4 L 141.9 109.3 L 143.3 108.2 L 149.2 114.0 L 154.7 120.2 L 159.8 126.5 L 164.6 133.0 L 169.1 139.6 L 173.2 146.3 L 177.0 153.1 L 180.5 160.0 L 183.7 167.1 L 186.7 174.2 L 186.3 178.7 L 182.9 181.8 L 178.4 181.4 L 175.3 178.1 L 173.1 171.2 Z M 47.83040838241577 63.0 L 35.720851039886476 118.53028087615967 L 36.7 118.7 L 43.9 120.6 L 50.8 122.9 L 56.81526231765747 125.53167724609375 L 57.7 123.6 L 62.9 109.4 L 67.1 94.1 L 70.5 77.7 L 72.6 63.0 Z " />
</g>
</svg>
