<svg xmlns="http://www.w3.org/2000/svg" xmlns:xlink="http://www.w3.org/1999/xlink" version="1.1" baseProfile="full" viewBox="0 0 200 200" width="200" height="200">
<g fill="black">
<path d="M 110.1 16.0 L 112.8 18.4 L 109.31456813812255 19.73080129623413 L 107.7 27.4 L 104.8 38.5 L 101.7 49.4 L 98.1 60.0 L 94.3 70.4 L 93.02270603179932 73.37045097351074 L 96.8 74.0 L 99.8 76.0 L 96.8 77.8 L 96.8 184.0 L 84.8 190.0 L 84.8 91.30588235855103 L 80.3 99.6 L 74.8 108.7 L 68.8 117.4 L 67.2 116.5 L 71.4 106.9 L 75.5 97.3 L 79.3 87.5 L 82.9 77.6 L 86.3 67.5 L 89.3 57.2 L 92.0 46.7 L 94.4 36.0 L 96.5 25.1 L 98.13871536254882 14.903548908233642 L 98.1 14.9 L 98.27600002288818 14.0493332862854 L 98.3 13.9 L 98.30665159225464 13.901183795928954 L 98.7 12.0 Z M 57.8 147.3 L 54.9 143.2 L 51.7 139.3 L 51.248377323150635 138.8085283279419 L 50.6 140.4 L 44.3 152.6 L 37.2 163.6 L 29.4 173.4 L 20.8 181.7 L 11.4 188.7 L 10.3 187.2 L 18.1 179.0 L 25.2 170.0 L 31.7 160.0 L 37.6 149.1 L 42.8 137.0 L 44.48686008453369 132.08936290740968 L 40.3 128.7 L 35.9 125.5 L 32.092308330535886 122.90752906799317 L 30.4 133.0 L 17.6 136.9 L 29.986818504333495 63.0 L 15.5 63.0 L 15.5 59.0 L 30.65728235244751 59.0 L 38.2 14.0 L 49.7 17.9 L 52.4 20.4 L 49.11448497772217 21.391853618621827 L 42.808340549468994 59.0 L 58.8 59.0 L 64.8 54.0 L 75.8 63.0 L 70.8 66.0 L 70.03439178466797 66.31900339126587 L 68.2 79.6 L 64.9 96.5 L 60.9 112.3 L 56.1 126.9 L 54.83407821655273 130.00726261138917 L 58.2 132.7 L 62.5 136.6 L 66.4 140.9 L 70.0 145.5 L 73.2 150.5 L 73.7 155.0 L 70.8 158.6 L 66.3 159.0 L 62.7 156.2 L 60.4 151.6 Z M 170.1 178.1 L 165.6 174.4 L 161.4 170.3 L 157.5 165.8 L 154.0 160.9 L 150.8 155.6 L 148.0 149.9 L 145.7 143.8 L 145.2804054260254 142.17098569869995 L 144.3 146.9 L 141.6 154.5 L 138.0 161.5 L 133.5 167.7 L 128.1 173.3 L 121.9 178.1 L 114.8 182.2 L 106.9 185.4 L 98.3 187.8 L 97.7 186.1 L 105.4 182.0 L 112.1 177.6 L 117.8 172.9 L 122.7 168.0 L 126.7 162.7 L 129.9 157.0 L 132.3 150.9 L 133.9 144.4 L 134.6420289993286 138.0 L 99.9 138.0 L 99.9 134.0 L 134.74666662216185 134.0 L 134.8 130.0 L 134.8 114.0 L 109.0 114.0 L 109.0 110.0 L 134.8 110.0 L 134.8 90.0 L 103.5 90.0 L 103.5 86.0 L 145.35 86.0 L 146.2 84.3 L 147.4 81.1 L 148.5 78.0 L 149.6 75.1 L 150.6 72.3 L 151.5 69.7 L 152.3 67.2 L 153.0 64.9 L 153.5 62.6 L 153.76197185516358 61.552112674713136 L 153.6 61.5 L 154.5 59.3 L 165.1 65.2 L 167.1 68.2 L 162.6215189933777 68.81772155761719 L 162.3 69.3 L 160.7 71.5 L 159.0 73.7 L 157.2 76.0 L 155.2 78.4 L 153.1 80.8 L 150.8 83.2 L 148.4 85.7 L 148.1444444656372 86.0 L 160.7 86.0 L 170.7 76.0 L 182.7 86.0 L 182.7 90.0 L 146.8 90.0 L 146.8 110.0 L 159.9181818008423 110.0 L 168.1 101.0 L 178.1 110.0 L 178.1 114.0 L 146.8 114.0 L 146.8 130.0 L 146.43218393325805 134.0 L 166.1 134.0 L 176.1 124.0 L 188.1 134.0 L 188.1 138.0 L 146.7555555343628 138.0 L 149.5 141.9 L 153.1 147.0 L 156.8 151.6 L 160.5 155.8 L 164.4 159.5 L 168.3 162.8 L 172.3 165.7 L 176.5 168.1 L 180.7 170.2 L 185.1 171.8 L 191.6 174.5 L 180.2 184.1 L 175.0 181.3 Z M 42.137619495391846 63.0 L 32.77676906585693 118.82558965682983 L 38.4 120.7 L 43.8 123.1 L 46.97585945129394 124.84360914230346 L 47.3 123.9 L 51.2 109.7 L 54.4 94.4 L 56.9 77.9 L 58.51771430969238 63.0 Z M 124.1 75.8 L 123.8 74.1 L 123.3 72.4 L 122.7 70.6 L 121.9 68.8 L 121.0 66.9 L 119.9 64.9 L 118.3 63.3 L 119.4 61.9 L 121.3 63.3 L 123.5 64.3 L 125.6 65.5 L 127.5 66.9 L 129.2 68.3 L 130.9 70.0 L 132.4 71.7 L 133.7 73.6 L 134.9 75.6 L 136.0 77.7 L 135.2 82.2 L 131.5 84.9 L 127.0 84.1 L 124.3 80.4 L 124.3 77.4 Z M 101.7 54.0 L 128.0 54.0 L 128.0 12.0 L 139.0 14.0 L 141.8 16.0 L 139.0 17.75 L 139.0 54.0 L 146.2 54.0 L 146.2 12.0 L 157.2 14.0 L 160.0 16.0 L 157.2 17.75 L 157.2 54.0 L 162.5 54.0 L 172.5 44.0 L 184.5 54.0 L 184.5 58.0 L 101.7 58.0 Z M 178.9 21.9 L 181.0 24.8 L 176.8644763946533 25.670636558532713 L 174.2 30.5 L 172.5 33.4 L 170.6 36.3 L 168.7 39.3 L 166.6 42.3 L 164.4 45.3 L 162.0 48.2 L 159.8 51.4 L 158.2 50.5 L 159.5 46.9 L 160.5 43.3 L 161.6 39.8 L 162.6 36.4 L 163.6 33.1 L 165.4 26.7 L 166.2 23.7 L 166.9 20.7 L 167.34908590316772 18.83950138092041 L 167.2 18.8 L 168.1 16.4 Z M 114.9 36.5 L 114.7 33.9 L 114.5 31.4 L 114.1 29.0 L 112.9 24.4 L 112.1 22.2 L 110.8 20.3 L 112.1 19.0 L 114.0 20.6 L 116.2 22.2 L 118.1 24.1 L 119.9 26.4 L 121.5 28.9 L 122.9 31.6 L 124.1 34.6 L 125.1 37.7 L 126.0 41.1 L 126.6 44.7 L 125.0 49.0 L 120.9 50.9 L 116.6 49.3 L 114.6 45.2 L 114.9 42.2 Z " />
</g>
</svg>
