<svg xmlns="http://www.w3.org/2000/svg" xmlns:xlink="http://www.w3.org/1999/xlink" version="1.1" baseProfile="full" viewBox="0 0 200 200" width="200" height="200">
<g fill="black">
<path d="M 62.7 147.7 L 59.2 143.6 L 55.3 139.6 L 54.167353534698485 138.62539720535278 L 53.3 140.5 L 46.2 152.8 L 38.3 163.8 L 29.5 173.5 L 19.8 181.8 L 9.3 188.7 L 8.3 187.2 L 17.3 178.9 L 25.5 169.9 L 33.0 159.9 L 39.7 148.9 L 45.6 136.9 L 47.144705867767335 133.00852937698363 L 46.2 132.3 L 40.9 128.8 L 35.2 125.5 L 29.0 122.3 L 22.4 119.1 L 22.429411792755126 119.0 L 20.8 119.0 L 31.552851676940918 63.0 L 14.9 63.0 L 14.9 59.0 L 32.320912551879886 59.0 L 41.0 13.8 L 52.4 18.1 L 54.9 20.6 L 51.73190183639527 21.57479944229126 L 44.5361743927002 59.0 L 59.9 59.0 L 69.9 49.0 L 81.9 59.0 L 81.9 63.0 L 75.67569065093994 63.0 L 73.0 79.7 L 69.4 96.7 L 64.9 112.5 L 59.5 127.1 L 58.00569849014282 130.3296194076538 L 61.2 132.4 L 66.2 136.3 L 70.8 140.6 L 74.9 145.3 L 78.6 150.3 L 79.3 154.8 L 76.6 158.5 L 72.1 159.2 L 68.4 156.5 L 65.7 152.0 Z M 114.2 107.5 L 113.9 106.1 L 113.5 104.6 L 112.9 103.1 L 112.1 101.4 L 111.2 99.6 L 110.1 97.7 L 108.5 96.3 L 109.6 94.8 L 111.4 96.1 L 113.6 97.0 L 115.5 98.0 L 117.4 99.1 L 119.1 100.3 L 120.7 101.6 L 122.2 103.0 L 123.5 104.6 L 124.7 106.3 L 125.7 108.1 L 125.0 112.6 L 123.41428575515747 113.8 L 144.2454545021057 113.8 L 145.7 111.8 L 146.9 109.3 L 148.0 107.0 L 149.2 104.7 L 150.2 102.6 L 151.2 100.4 L 152.2 98.4 L 153.1 96.4 L 153.9 94.4 L 154.24057188034058 93.47559051513672 L 154.1 93.4 L 154.55070419311522 92.63380279541016 L 154.6 92.5 L 154.62124528884888 92.51388301849366 L 155.1 91.7 L 164.7 99.1 L 166.1 102.4 L 161.46361742019653 102.24012470245361 L 159.7 103.9 L 157.9 105.5 L 156.0 107.1 L 154.0 108.7 L 151.9 110.3 L 149.7 111.9 L 147.4 113.4 L 146.9555555343628 113.8 L 160.5 113.8 L 170.5 103.8 L 182.5 113.8 L 182.5 117.8 L 141.5 117.8 L 141.5 134.5 L 159.9181818008423 134.5 L 168.1 125.5 L 178.1 134.5 L 178.1 138.5 L 141.5 138.5 L 141.5 154.8 L 165.4 154.8 L 175.4 144.8 L 187.4 154.8 L 187.4 158.8 L 141.5 158.8 L 141.5 182.2 L 129.5 188.2 L 129.5 158.8 L 83.5 158.8 L 83.5 154.8 L 129.5 154.8 L 129.5 138.5 L 92.8 138.5 L 92.8 134.5 L 129.5 134.5 L 129.5 117.8 L 88.4 117.8 L 88.4 113.8 L 116.2 113.8 L 114.1 111.0 L 114.3 108.8 Z M 43.76709613800049 63.0 L 33.0 119.0 L 31.405263137817382 119.0 L 37.3 120.6 L 43.9 123.0 L 50.0 125.7 L 50.03757286071777 125.72072982788086 L 50.8 123.8 L 55.3 109.6 L 58.9 94.3 L 61.8 77.8 L 63.561904716491696 63.0 Z M 114.2 27.5 L 113.9 26.1 L 113.5 24.6 L 112.9 23.1 L 112.1 21.4 L 111.2 19.6 L 110.1 17.7 L 108.5 16.3 L 109.6 14.8 L 111.4 16.1 L 113.6 17.0 L 115.5 18.0 L 117.4 19.1 L 119.1 20.3 L 120.7 21.6 L 122.2 23.0 L 123.5 24.6 L 124.7 26.3 L 125.7 28.1 L 125.0 32.6 L 123.41428575515747 33.8 L 144.2454545021057 33.8 L 145.7 31.8 L 146.9 29.3 L 148.0 27.0 L 149.2 24.7 L 150.2 22.6 L 151.2 20.4 L 152.2 18.4 L 153.1 16.4 L 153.9 14.4 L 154.24057188034058 13.47559051513672 L 154.1 13.4 L 154.55070419311522 12.633802795410157 L 154.6 12.5 L 154.62124528884888 12.513883018493653 L 155.1 11.7 L 164.7 19.1 L 166.1 22.4 L 161.46361742019653 22.240124702453613 L 159.7 23.9 L 157.9 25.5 L 156.0 27.1 L 154.0 28.7 L 151.9 30.3 L 149.7 31.9 L 147.4 33.4 L 146.9555555343628 33.8 L 160.5 33.8 L 170.5 23.8 L 182.5 33.8 L 182.5 37.8 L 141.5 37.8 L 141.5 54.5 L 159.9181818008423 54.5 L 168.1 45.5 L 178.1 54.5 L 178.1 58.5 L 141.5 58.5 L 141.5 74.8 L 165.4 74.8 L 175.4 64.8 L 187.4 74.8 L 187.4 78.8 L 141.5 78.8 L 141.5 102.2 L 129.5 108.2 L 129.5 78.8 L 83.5 78.8 L 83.5 74.8 L 129.5 74.8 L 129.5 58.5 L 92.8 58.5 L 92.8 54.5 L 129.5 54.5 L 129.5 37.8 L 88.4 37.8 L 88.4 33.8 L 116.2 33.8 L 114.1 31.0 L 114.3 28.8 Z " />
</g>
</svg>
