<svg xmlns="http://www.w3.org/2000/svg" xmlns:xlink="http://www.w3.org/1999/xlink" version="1.1" baseProfile="full" viewBox="0 0 200 200" width="200" height="200">
<g fill="black">
<path d="M 71.6 148.1 L 67.4 143.9 L 62.8 139.9 L 60.35714282989502 138.067857170105 L 58.9 140.8 L 50.7 153.0 L 41.6 164.0 L 31.5 173.6 L 20.4 181.9 L 8.4 188.7 L 7.5 187.2 L 18.1 178.9 L 27.8 169.7 L 36.6 159.7 L 44.5 148.7 L 51.5 136.6 L 53.102173233032225 133.15926733016968 L 51.9 132.4 L 45.6 128.9 L 38.8 125.6 L 31.5 122.3 L 23.7 119.1 L 23.722222232818602 119.0 L 22.8 119.0 L 35.297625827789304 63.0 L 15.0 63.0 L 15.0 59.0 L 36.19031343460083 59.0 L 46.3 13.7 L 57.6 18.2 L 60.1 20.8 L 56.79707374572754 21.7971097946167 L 48.49285717010498 59.0 L 71.0 59.0 L 81.0 49.0 L 93.0 59.0 L 93.0 63.0 L 84.6714285850525 63.0 L 81.7 79.9 L 77.5 96.8 L 72.3 112.7 L 66.1 127.3 L 64.51322317123413 130.27520656585693 L 68.1 132.3 L 73.8 136.1 L 79.1 140.4 L 83.9 145.0 L 88.1 150.0 L 89.1 154.5 L 86.7 158.4 L 82.2 159.3 L 78.3 156.9 L 75.2 152.4 Z M 103.0 21.0 L 178.0 21.0 L 178.0 21.818181800842286 L 188.0 30.0 L 183.0 34.0 L 183.0 174.0 L 171.0 180.0 L 171.0 179.0 L 103.0 179.0 L 101.0 180.0 L 101.0 20.0 Z M 113.0 30.0 L 113.0 170.0 L 171.0 170.0 L 171.0 30.0 Z M 47.6 63.0 L 35.1 119.0 L 33.95 119.0 L 40.7 120.5 L 48.2 122.9 L 55.3 125.6 L 56.37861862182617 126.12296657562256 L 57.6 123.5 L 62.8 109.4 L 67.1 94.1 L 70.5 77.7 L 72.5245509147644 63.0 Z " />
</g>
</svg>
