<svg xmlns="http://www.w3.org/2000/svg" xmlns:xlink="http://www.w3.org/1999/xlink" version="1.1" baseProfile="full" viewBox="0 0 200 200" width="200" height="200">
<g fill="black">
<path d="M 121.0 144.0 L 167.3 144.0 L 173.3 139.0 L 184.3 148.0 L 179.3 152.0 L 179.3 180.0 L 167.3 186.0 L 167.3 176.0 L 121.0 176.0 L 121.0 183.0 L 109.0 189.0 L 109.0 138.0 Z M 89.3 60.6 L 83.1 66.1 L 76.4 71.6 L 75.2 70.3 L 80.4 63.5 L 85.3 57.0 L 89.9 50.8 L 94.1 44.8 L 98.0 38.9 L 101.5 33.3 L 104.5 27.8 L 107.2 22.6 L 109.4 17.5 L 110.8622314453125 13.519481182098389 L 110.8 13.5 L 111.1617021560669 12.704255294799804 L 111.2 12.6 L 111.20767631530762 12.603112030029298 L 111.8 11.3 L 122.3 17.1 L 124.4 20.1 L 120.53401412963868 20.69989433288574 L 119.7 22.4 L 116.6 27.7 L 113.16481485366822 33.0 L 147.2 33.0 L 147.74838705062865 32.54301071166992 L 148.0 31.9 L 148.30519189834595 32.07900676727295 L 153.2 28.0 L 164.2 37.0 L 159.2 40.0 L 155.2733727455139 41.636094665527345 L 154.7 42.3 L 152.7 44.5 L 150.5 46.7 L 148.2 48.8 L 145.8 51.0 L 143.2 53.1 L 140.5 55.2 L 138.01428575515746 57.0 L 166.2 57.0 L 176.2 47.0 L 188.2 57.0 L 188.2 61.0 L 102.0 61.0 L 102.0 100.0 L 101.3 112.7 L 100.0 124.6 L 97.9 135.7 L 95.2 146.0 L 91.7 155.4 L 87.5 164.0 L 82.6 171.7 L 77.0 178.5 L 70.6 184.1 L 63.6 188.7 L 62.6 187.2 L 68.0 181.4 L 72.8 175.0 L 77.1 168.2 L 80.7 160.7 L 83.8 152.5 L 86.2 143.5 L 88.1 133.8 L 89.3 123.3 L 89.9 112.0 L 90.0 100.0 L 90.0 59.9 Z M 62.5 148.6 L 59.1 144.9 L 55.4 141.4 L 54.39131412506104 140.5678340911865 L 48.2 152.2 L 40.8 163.3 L 32.6 173.1 L 23.6 181.6 L 13.8 188.5 L 12.7 187.1 L 21.0 178.8 L 28.5 169.7 L 35.4 159.6 L 41.5 148.5 L 47.0 136.4 L 47.447911739349365 135.1589111328125 L 47.1 134.9 L 42.3 131.9 L 37.3 129.0 L 31.9 126.1 L 26.1 123.3 L 26.12941179275513 123.2 L 22.5 123.2 L 33.47821779251099 61.6 L 18.1 61.6 L 18.1 57.6 L 34.191089153289795 57.6 L 42.3 12.1 L 53.8 16.1 L 56.4 18.6 L 53.1693531036377 19.636245250701904 L 46.39897289276123 57.6 L 63.9 57.6 L 69.9 52.6 L 80.9 61.6 L 75.9 64.6 L 75.20424594879151 64.88989753723145 L 73.2 78.4 L 69.8 95.5 L 65.6 111.5 L 60.6 126.2 L 58.05316162109375 132.17189693450928 L 61.1 134.0 L 65.8 137.4 L 70.2 141.1 L 74.2 145.2 L 78.0 149.6 L 78.9 154.1 L 76.5 158.0 L 72.1 158.9 L 68.2 156.5 L 65.5 152.4 Z M 121.0 148.0 L 121.0 172.0 L 167.3 172.0 L 167.3 148.0 Z M 102.3 128.0 L 137.7 128.0 L 137.7 104.0 L 108.7 104.0 L 108.7 100.0 L 157.7 100.0 L 167.7 90.0 L 179.7 100.0 L 179.7 104.0 L 149.7 104.0 L 149.7 128.0 L 167.9181818008423 128.0 L 176.1 119.0 L 186.1 128.0 L 186.1 132.0 L 102.3 132.0 Z M 45.685620880126955 61.6 L 34.75349445343018 122.90003900527954 L 39.3 124.0 L 45.2 125.9 L 50.04074420928955 127.97460460662842 L 51.8 123.1 L 55.9 108.8 L 59.3 93.3 L 62.0 76.7 L 63.696629238128665 61.6 Z M 139.6 70.1 L 141.0 73.5 L 136.6225806236267 73.27741937637329 L 135.3 74.6 L 132.7 77.1 L 129.8 79.6 L 126.5 82.3 L 122.9 85.1 L 119.0 88.1 L 114.7 91.2 L 110.0 94.3 L 105.0 97.6 L 103.8 96.3 L 107.8 91.8 L 111.5 87.5 L 114.9 83.6 L 118.0 79.9 L 120.8 76.5 L 123.2 73.4 L 125.4 70.5 L 127.1 67.8 L 128.6 65.5 L 129.1565529823303 64.33123874664307 L 129.1 64.3 L 129.4 63.81999998092651 L 129.6 63.4 L 129.6440528869629 63.42951545715332 L 130.1 62.7 Z M 168.2 85.0 L 166.9 83.0 L 165.4 80.8 L 163.6 78.6 L 161.5 76.3 L 159.1 73.9 L 156.5 71.4 L 153.7 68.7 L 150.4 66.2 L 151.3 64.7 L 155.1 66.4 L 158.8 67.8 L 162.3 69.4 L 165.5 71.0 L 168.4 72.7 L 171.2 74.5 L 173.7 76.3 L 176.0 78.2 L 178.1 80.2 L 180.0 82.2 L 180.7 86.8 L 178.1 90.5 L 173.6 91.2 L 169.8 88.6 L 169.1 86.8 Z M 110.28333330154419 37.0 L 109.2 38.5 L 104.8 43.9 L 100.1 49.4 L 95.88292684555054 53.94146337509155 L 102.0 57.0 L 134.475 57.0 L 135.6 55.5 L 137.4 52.4 L 139.1 49.5 L 142.3 44.1 L 143.7 41.5 L 145.86000003814698 37.0 Z " />
</g>
</svg>
