<svg xmlns="http://www.w3.org/2000/svg" xmlns:xlink="http://www.w3.org/1999/xlink" version="1.1" baseProfile="full" viewBox="0 0 200 200" width="200" height="200">
<g fill="black">
<path d="M 114.4 17.6 L 116.7 20.4 L 113.17272729873658 21.281818199157716 L 110.7 28.7 L 106.8 39.6 L 102.7 50.2 L 98.5 60.6 L 94.0 70.8 L 92.921875 73.1203125 L 98.2 74.0 L 101.2 76.0 L 98.2 77.8 L 98.2 183.0 L 86.2 189.0 L 86.2 86.96938772201538 L 84.5 90.3 L 79.4 99.7 L 74.0 108.7 L 68.2 117.4 L 66.6 116.5 L 70.6 107.0 L 74.6 97.3 L 78.5 87.6 L 82.4 77.7 L 86.2 67.6 L 89.8 57.3 L 93.3 46.8 L 96.6 36.2 L 99.8 25.3 L 102.61960697174072 15.203987884521485 L 102.6 15.2 L 102.82439022064209 14.470731735229492 L 102.9 14.2 L 102.90705089569092 14.202084636688232 L 103.4 12.6 Z M 57.2 147.3 L 54.4 143.2 L 51.4 139.3 L 51.05450105667114 138.9240159034729 L 50.5 140.3 L 44.4 152.6 L 37.5 163.6 L 29.8 173.3 L 21.4 181.7 L 12.3 188.7 L 11.1 187.2 L 18.7 179.0 L 25.6 170.0 L 31.9 160.1 L 37.6 149.1 L 42.7 137.1 L 44.360247421264646 132.15699071884154 L 44.3 132.1 L 40.3 128.7 L 36.0 125.5 L 32.52826452255249 123.03121032714844 L 30.9 133.0 L 18.0 136.9 L 30.14629783630371 63.0 L 16.2 63.0 L 16.2 59.0 L 30.8037428855896 59.0 L 38.2 14.0 L 49.7 17.9 L 52.3 20.4 L 49.13246784210205 21.374625301361085 L 42.98688097000122 59.0 L 58.2 59.0 L 64.2 54.0 L 75.2 63.0 L 70.2 66.0 L 69.54049825668335 66.27479238510132 L 67.7 79.6 L 64.5 96.5 L 60.6 112.3 L 55.9 126.9 L 54.62159090042114 130.0723484992981 L 58.0 132.7 L 62.1 136.7 L 65.9 140.9 L 69.4 145.6 L 72.6 150.5 L 73.0 155.1 L 70.1 158.6 L 65.5 159.0 L 62.0 156.1 L 59.8 151.6 Z M 155.0 16.2 L 158.0 18.2 L 155.0 20.0 L 155.0 39.6 L 171.61818180084228 39.6 L 179.8 30.6 L 189.8 39.6 L 189.8 43.6 L 155.0 43.6 L 155.0 69.0 L 175.6 69.0 L 181.6 64.0 L 192.6 73.0 L 187.6 77.0 L 187.6 179.6 L 175.6 185.6 L 175.6 175.6 L 122.8 175.6 L 122.8 182.6 L 110.8 188.6 L 110.8 63.0 L 122.8 69.0 L 143.0 69.0 L 143.0 14.2 Z M 122.8 100.5 L 146.0 100.5 L 152.0 95.5 L 163.0 104.5 L 158.0 108.5 L 158.0 147.1 L 146.0 153.1 L 146.0 141.1 L 122.8 141.1 L 122.8 171.6 L 175.6 171.6 L 175.6 73.0 L 122.8 73.0 Z M 122.8 104.5 L 122.8 137.1 L 146.0 137.1 L 146.0 104.5 Z M 42.333536052703856 63.0 L 33.192379570007326 118.96527166366577 L 38.6 120.8 L 43.9 123.2 L 46.81015558242798 124.86294603347778 L 47.1 124.0 L 50.8 109.8 L 54.0 94.4 L 56.4 78.0 L 57.93409090042114 63.0 Z " />
</g>
</svg>
