<svg xmlns="http://www.w3.org/2000/svg" xmlns:xlink="http://www.w3.org/1999/xlink" version="1.1" baseProfile="full" viewBox="0 0 200 200" width="200" height="200">
<g fill="black">
<path d="M 58.5 147.4 L 55.5 143.3 L 52.1 139.4 L 51.29219512939453 138.5697561264038 L 50.5 140.4 L 43.9 152.7 L 36.6 163.7 L 28.4 173.4 L 19.5 181.8 L 9.7 188.7 L 8.7 187.2 L 16.9 179.0 L 24.3 169.9 L 31.2 160.0 L 37.3 149.0 L 42.7 137.0 L 44.496430492401124 132.0972417831421 L 40.1 128.7 L 35.4 125.5 L 31.109555149078368 122.69807682037353 L 29.3 133.0 L 16.5 136.9 L 29.477560997009277 63.0 L 14.0 63.0 L 14.0 59.0 L 30.180000019073486 59.0 L 38.1 13.9 L 49.5 18.0 L 52.2 20.5 L 48.885089588165286 21.500727653503418 L 42.298260879516604 59.0 L 59.5 59.0 L 65.5 54.0 L 76.5 63.0 L 71.5 66.0 L 70.82771787643432 66.28011751174927 L 68.9 79.7 L 65.4 96.6 L 61.3 112.4 L 56.3 127.0 L 55.00321807861328 129.99601345062257 L 58.5 132.6 L 62.9 136.6 L 67.0 140.8 L 70.7 145.4 L 74.1 150.4 L 74.6 154.9 L 71.9 158.6 L 67.3 159.1 L 63.7 156.3 L 61.2 151.8 Z M 165.0 183.5 L 162.7 181.7 L 160.2 180.0 L 157.4 178.2 L 154.3 176.5 L 151.0 174.7 L 143.6 171.0 L 139.4 169.4 L 139.9 167.6 L 144.3 168.2 L 148.7 168.6 L 152.8 169.3 L 156.7 170.1 L 160.4 171.0 L 163.9 172.0 L 167.3 173.2 L 170.4 174.5 L 173.4 176.0 L 176.2 177.5 L 178.4 181.5 L 177.2 186.0 L 173.2 188.2 L 168.8 187.0 L 167.0 185.2 Z M 117.00909090042114 167.40909090042115 L 123.0 173.4 L 123.2 176.8 L 119.37723798751831 175.24497814178466 L 117.4 176.1 L 113.6 177.7 L 109.7 179.2 L 105.6 180.6 L 101.4 181.9 L 97.0 183.2 L 92.5 184.3 L 87.7 185.3 L 82.8 186.1 L 77.8 186.9 L 77.3 185.2 L 81.8 182.9 L 86.1 180.6 L 90.3 178.5 L 94.4 176.4 L 98.3 174.3 L 102.0 172.3 L 105.5 170.2 L 108.9 168.2 L 112.1 166.1 L 114.24758625030518 164.66827583312988 L 114.2 164.6 L 114.26000003814697 164.66000003814696 L 115.1 164.1 Z M 73.9 159.6 L 107.6 159.6 L 107.6 144.1 L 87.6 144.1 L 87.6 140.1 L 107.6 140.1 L 107.6 124.5 L 112.6 125.33333330154419 L 112.6 120.4 L 102.6 117.7 L 102.6 114.9 L 113.6 114.9 L 114.3 114.7 L 114.7 114.6 L 114.9 114.5 L 115.1 114.3 L 115.2 114.1 L 115.4 113.6 L 115.7 112.9 L 115.8 111.8 L 115.9 110.4 L 115.9 100.0 L 91.8 100.0 L 91.8 120.0 L 79.8 126.0 L 79.8 60.0 L 91.8 66.0 L 115.9 66.0 L 121.4 61.0 L 131.9 70.0 L 126.9 73.5 L 126.9 110.4 L 126.8 112.9 L 126.4 115.2 L 125.7 117.5 L 124.7 119.6 L 123.3 121.6 L 121.6 123.2 L 119.5 124.5 L 117.3 125.3 L 115.17358493804932 125.76226415634156 L 119.6 126.5 L 122.6 128.5 L 119.6 130.3 L 119.6 140.1 L 143.3 140.1 L 143.3 124.5 L 155.3 126.5 L 158.3 128.5 L 155.3 130.3 L 155.3 140.1 L 157.11818180084228 140.1 L 165.3 131.1 L 175.3 140.1 L 175.3 144.1 L 155.3 144.1 L 155.3 159.6 L 167.0 159.6 L 177.0 149.6 L 189.0 159.6 L 189.0 163.6 L 73.9 163.6 Z M 119.6 144.1 L 119.6 159.6 L 143.3 159.6 L 143.3 144.1 Z M 41.595652198791505 63.0 L 31.801989936828612 118.7559977531433 L 32.0 118.8 L 37.9 120.7 L 43.5 123.1 L 47.096862602233884 125.00022926330567 L 47.5 123.9 L 51.6 109.7 L 54.9 94.4 L 57.6 77.9 L 59.293181800842284 63.0 Z M 187.2 106.7 L 189.2 106.7 L 187.2 115.7 L 189.6 117.3 L 191.2 119.7 L 189.6 122.1 L 187.2 123.7 L 150.5 123.7 L 148.2 123.5 L 146.0 122.9 L 143.9 121.9 L 142.0 120.6 L 140.4 118.8 L 139.1 116.8 L 138.2 114.6 L 137.6 112.2 L 137.4 109.7 L 137.4 52.4 L 148.4 57.9 L 173.1 57.9 L 173.1 45.8 L 148.9 45.8 L 136.9 51.8 L 136.9 13.9 L 148.9 15.9 L 151.9 17.9 L 148.9 19.7 L 148.9 27.0 L 170.3181818008423 27.0 L 178.5 18.0 L 188.5 27.0 L 188.5 31.0 L 148.9 31.0 L 148.9 41.8 L 173.1 41.8 L 179.1 36.8 L 190.1 45.8 L 185.1 49.8 L 185.1 61.9 L 175.26428575515746 66.81785717010499 L 181.8 72.7 L 181.8 76.7 L 148.4 76.7 L 148.4 86.2 L 163.61818180084228 86.2 L 171.8 77.2 L 181.8 86.2 L 181.8 90.2 L 148.4 90.2 L 148.4 99.7 L 163.61818180084228 99.7 L 171.8 90.7 L 181.8 99.7 L 181.8 103.7 L 148.4 103.7 L 148.4 109.7 L 148.3 111.0 L 148.3 112.1 L 148.4 112.8 L 148.5 113.4 L 148.7 113.9 L 149.0 114.3 L 149.5 114.7 L 150.3 115.1 L 151.4 115.5 L 152.9 115.7 L 183.2 115.7 Z M 91.8 85.3 L 91.8 96.0 L 115.9 96.0 L 115.9 85.3 Z M 91.8 70.0 L 91.8 81.3 L 115.9 81.3 L 115.9 70.0 Z M 148.4 61.9 L 148.4 72.7 L 163.61818180084228 72.7 L 171.8 63.7 L 173.1 64.86999998092651 L 173.1 61.9 Z M 87.7 44.1 L 87.1 40.9 L 86.7 39.3 L 85.7 35.9 L 85.0 34.2 L 83.9 32.8 L 85.1 31.5 L 86.6 32.7 L 88.4 33.6 L 90.0 34.7 L 91.6 35.9 L 93.2 37.2 L 94.6 38.7 L 95.9 40.2 L 97.2 41.9 L 98.4 43.6 L 99.4 45.5 L 98.9 50.0 L 95.88275861740112 52.5 L 108.65 52.5 L 109.1 51.6 L 109.8 49.0 L 110.5 46.5 L 111.2 44.1 L 111.8 41.8 L 112.4 39.6 L 113.4 35.4 L 113.8 33.4 L 113.94616718292237 32.47427453994751 L 113.7 32.4 L 114.5217391014099 30.3 L 75.1 30.3 L 75.1 26.3 L 97.9 26.3 L 97.9 11.9 L 109.9 13.9 L 112.9 15.9 L 109.9 17.7 L 109.9 26.3 L 114.61818180084228 26.3 L 122.8 17.3 L 132.8 26.3 L 132.8 30.3 L 114.96896553039551 30.3 L 125.3 35.9 L 127.3 38.8 L 122.69406147003174 39.60805940628052 L 119.9 43.4 L 116.7 47.2 L 113.1 51.0 L 111.4333333015442 52.5 L 119.8777777671814 52.5 L 126.1 45.5 L 134.1 52.5 L 134.1 56.5 L 73.7 56.5 L 73.7 52.5 L 91.71999998092652 52.5 L 90.8 52.4 L 87.9 48.8 L 87.9 47.3 Z " />
</g>
</svg>
