<svg xmlns="http://www.w3.org/2000/svg" xmlns:xlink="http://www.w3.org/1999/xlink" version="1.1" baseProfile="full" viewBox="0 0 200 200" width="200" height="200">
<g fill="black">
<path d="M 159.4 167.7 L 154.8 160.7 L 149.9 154.0 L 146.34430656433105 149.67739219665526 L 138.7 160.3 L 129.8 169.4 L 119.7 176.9 L 108.4 182.7 L 96.1 186.8 L 95.5 185.1 L 106.7 179.4 L 116.6 172.6 L 125.2 164.7 L 132.7 155.6 L 139.1 145.3 L 140.25953760147095 142.73563804626465 L 139.6 142.0 L 134.1 136.6 L 128.4 131.6 L 122.5 126.8 L 120.50575218200683 125.27107667922974 L 120.3 126.2 L 107.3 129.5 L 119.13710803985596 76.0 L 90.8 76.0 L 90.8 72.0 L 120.02212543487549 72.0 L 132.7 14.7 L 144.0 19.2 L 146.5 21.8 L 143.21839714050293 22.72875556945801 L 132.30504674911498 72.0 L 165.1 72.0 L 175.1 62.0 L 187.1 72.0 L 187.1 76.0 L 166.04078216552733 76.0 L 164.7 92.0 L 162.0 108.5 L 158.1 123.7 L 152.9 137.3 L 150.60054750442504 141.6512716293335 L 151.0 142.0 L 157.0 148.0 L 162.8 154.6 L 168.3 161.7 L 173.6 169.3 L 178.6 177.4 L 179.1 182.0 L 176.2 185.6 L 171.7 186.0 L 168.1 183.2 L 163.8 175.2 Z M 53.41682300567627 19.849906158447265 L 52.8 48.4 L 52.28387098312378 58.0 L 76.8 58.0 L 82.8 53.0 L 93.8 62.0 L 88.8 65.0 L 88.77085962295533 65.01214179992675 L 88.7 77.2 L 88.6 93.0 L 88.3 107.4 L 88.0 120.2 L 87.5 131.6 L 87.0 141.5 L 86.4 150.0 L 85.6 157.0 L 84.7 162.7 L 83.6 167.2 L 82.8 169.6 L 81.6 171.8 L 80.3 173.9 L 78.6 175.8 L 76.7 177.4 L 74.6 178.7 L 72.3 179.7 L 69.9 180.4 L 67.5 180.8 L 64.9 181.0 L 64.9 175.0 L 46.9 172.0 L 46.9 169.0 L 64.9 169.0 L 66.2 168.9 L 67.3 168.7 L 68.2 168.5 L 69.0 168.1 L 69.6 167.7 L 70.2 167.2 L 70.7 166.6 L 71.2 165.9 L 71.7 164.9 L 72.2 163.6 L 72.9 160.4 L 73.7 155.5 L 74.4 148.9 L 75.0 140.7 L 75.6 131.0 L 76.0 119.8 L 76.3 107.1 L 76.6 92.9 L 76.7 77.2 L 76.78837213516235 62.0 L 52.06881723403931 62.0 L 51.3 76.3 L 49.0 100.0 L 45.8 120.0 L 41.7 136.8 L 36.6 150.8 L 30.6 162.3 L 23.6 171.7 L 15.7 179.4 L 6.9 185.7 L 5.8 184.2 L 13.1 176.6 L 19.4 168.4 L 24.9 159.1 L 29.6 148.0 L 33.5 134.6 L 36.6 118.4 L 39.0 98.9 L 40.6 75.6 L 40.99563636779785 62.0 L 10.7 62.0 L 10.7 58.0 L 41.11199998855591 58.0 L 41.4 48.1 L 41.5 16.0 L 41.5 13.6 L 53.5 16.0 L 56.5 18.0 Z M 131.41906538009644 76.0 L 121.1930606842041 122.1680383682251 L 124.5 123.5 L 131.5 127.2 L 138.2 131.5 L 143.4974193572998 135.57493801116942 L 144.3 133.8 L 148.4 120.8 L 151.5 106.6 L 153.4 90.9 L 154.0171597480774 76.0 Z " />
</g>
</svg>
