<svg xmlns="http://www.w3.org/2000/svg" xmlns:xlink="http://www.w3.org/1999/xlink" version="1.1" baseProfile="full" viewBox="0 0 200 200" width="200" height="200">
<g fill="black">
<path d="M 146.3 180.2 L 138.5 176.5 L 130.2 172.9 L 121.3 169.6 L 113.7679762840271 167.19616260528565 L 105.6 171.7 L 93.1 176.7 L 78.6 180.9 L 62.1 184.1 L 43.6 186.5 L 23.0 187.8 L 22.9 186.1 L 43.0 182.7 L 61.0 178.9 L 76.8 174.5 L 90.4 169.6 L 101.8 164.2 L 102.38210525512696 163.81192979812622 L 102.0 163.7 L 91.5 161.0 L 80.4 158.5 L 70.36477298736573 156.33723554611205 L 64.6 164.8 L 51.3 163.1 L 71.78472223281861 133.0 L 15.0 133.0 L 15.0 129.0 L 74.5069444656372 129.0 L 85.6 112.7 L 94.3 121.2 L 95.7 124.5 L 91.80153541564941 124.86777963638306 L 88.98669729232788 129.0 L 165.0 129.0 L 175.0 119.0 L 187.0 129.0 L 187.0 133.0 L 137.56470584869385 133.0 L 136.0 141.4 L 131.6 150.6 L 124.9 158.8 L 122.07132987976074 161.102405834198 L 123.8 161.5 L 133.3 164.2 L 142.3 167.2 L 150.9 170.5 L 159.0 174.2 L 166.6 178.3 L 169.2 182.0 L 168.5 186.5 L 164.8 189.2 L 160.2 188.5 L 153.6 184.2 Z M 86.26192665100098 133.0 L 71.74279346466065 154.31428308486937 L 81.0 154.7 L 92.4 155.8 L 103.3 157.3 L 110.26067419052124 158.55955057144166 L 110.8 158.2 L 117.7 151.8 L 122.3 145.2 L 125.0 138.2 L 125.65 133.0 Z M 92.0 74.4 L 87.0 77.4 L 84.13719272613525 78.59283638000488 L 68.8 112.3 L 55.4 112.6 L 73.35970153808594 74.4 L 24.0 74.4 L 24.0 70.4 L 75.0 70.4 L 81.0 65.4 Z M 141.01616163253783 51.03030300140381 L 140.4 57.5 L 139.5657886505127 61.1781138420105 L 141.1 65.7 L 143.4 70.7 L 146.1 75.3 L 149.5 79.5 L 153.4 83.4 L 158.1 87.1 L 163.4 90.5 L 169.5 93.6 L 176.4 96.5 L 184.1 99.2 L 191.2 101.7 L 179.7 111.6 L 171.4 108.0 L 164.0 104.1 L 157.4 99.7 L 151.6 95.0 L 146.7 89.9 L 142.8 84.5 L 139.8 78.7 L 137.8 72.7 L 137.36214332580568 69.30661096572877 L 134.7 76.0 L 130.0 84.0 L 124.0 91.1 L 116.9 97.1 L 108.6 102.2 L 99.3 106.2 L 89.0 109.2 L 77.6 111.2 L 77.2 109.5 L 87.8 105.6 L 97.2 101.3 L 105.3 96.5 L 112.1 91.2 L 117.7 85.3 L 122.2 78.9 L 125.5 72.0 L 127.8 64.4 L 129.1 56.1 L 129.4 47.0 L 129.4 44.6 L 141.4 47.0 L 144.4 49.0 Z M 77.9 46.5 L 75.2 43.8 L 72.4 41.1 L 69.3 38.3 L 66.1 35.6 L 62.7 32.8 L 59.1 30.0 L 55.4 27.1 L 55.2557541847229 26.99542179107666 L 52.3 30.6 L 48.0 35.4 L 43.5 40.0 L 38.9 44.3 L 34.0 48.5 L 29.0 52.5 L 23.7 56.2 L 18.2 59.6 L 12.5 62.7 L 11.4 61.2 L 15.9 56.6 L 20.3 52.1 L 24.6 47.6 L 28.8 43.1 L 32.8 38.4 L 36.6 33.7 L 40.3 28.9 L 43.8 24.0 L 47.2 19.0 L 49.88021621704102 14.64464864730835 L 49.8 14.6 L 50.9 13.1 L 60.4 20.5 L 61.8 23.8 L 57.96471719741821 23.604985618591307 L 57.44470586776733 24.268000030517577 L 61.5 25.8 L 65.9 27.6 L 70.0 29.6 L 74.0 31.6 L 77.8 33.8 L 81.4 36.1 L 84.8 38.5 L 88.1 41.0 L 91.2 43.5 L 92.8 47.8 L 91.0 52.0 L 86.8 53.6 L 82.6 51.9 L 80.3 49.2 Z M 82.0 57.2 L 82.0 61.2 L 25.0 61.2 L 25.0 57.2 L 60.0 57.2 L 70.0 47.2 Z M 135.9 18.8 L 138.0 21.7 L 134.07809524536134 22.443809509277344 L 133.6 23.4 L 131.0 27.8 L 128.1 32.0 L 124.8 36.0 L 122.49230766296387 38.5 L 171.2 38.5 L 171.7 38.08333330154419 L 171.9 37.8 L 172.9 36.2 L 173.37874603271484 36.68437833786011 L 177.2 33.5 L 188.2 42.5 L 183.2 45.5 L 173.9 49.375 L 173.0 49.9 L 170.5 51.3 L 167.7 52.8 L 164.8 54.3 L 161.7 55.9 L 158.2 57.4 L 154.9 59.4 L 153.8 57.9 L 156.7 55.3 L 159.2 52.6 L 161.6 50.0 L 163.8 47.6 L 165.8 45.4 L 167.6 43.3 L 168.23999996185302 42.5 L 118.38918914794922 42.5 L 117.2 43.6 L 112.9 47.1 L 108.3 50.4 L 103.3 53.4 L 97.9 56.1 L 96.8 54.6 L 101.0 50.4 L 104.8 46.3 L 108.4 42.3 L 111.7 38.4 L 114.7 34.4 L 117.3 30.5 L 119.6 26.5 L 121.6 22.5 L 123.3 18.6 L 124.30686521530151 15.501953029632569 L 124.3 15.5 L 124.34426231384278 15.386885261535644 L 124.6 14.6 L 124.64554920196534 14.616929817199708 L 125.2 13.2 Z " />
</g>
</svg>
