<svg xmlns="http://www.w3.org/2000/svg" xmlns:xlink="http://www.w3.org/1999/xlink" version="1.1" baseProfile="full" viewBox="0 0 200 200" width="200" height="200">
<g fill="black">
<path d="M 71.6 148.1 L 67.4 143.9 L 62.8 139.9 L 60.35714282989502 138.067857170105 L 58.9 140.8 L 50.7 153.0 L 41.6 164.0 L 31.5 173.6 L 20.4 181.9 L 8.4 188.7 L 7.5 187.2 L 18.1 178.9 L 27.8 169.7 L 36.6 159.7 L 44.5 148.7 L 51.5 136.6 L 53.102173233032225 133.15926733016968 L 51.9 132.4 L 45.6 128.9 L 38.8 125.6 L 31.5 122.3 L 23.7 119.1 L 23.722222232818602 119.0 L 22.8 119.0 L 35.297625827789304 63.0 L 15.0 63.0 L 15.0 59.0 L 36.19031343460083 59.0 L 46.3 13.7 L 57.6 18.2 L 60.1 20.8 L 56.79707374572754 21.7971097946167 L 48.49285717010498 59.0 L 71.0 59.0 L 81.0 49.0 L 93.0 59.0 L 93.0 63.0 L 84.6714285850525 63.0 L 81.7 79.9 L 77.5 96.8 L 72.3 112.7 L 66.1 127.3 L 64.51322317123413 130.27520656585693 L 68.1 132.3 L 73.8 136.1 L 79.1 140.4 L 83.9 145.0 L 88.1 150.0 L 89.1 154.5 L 86.7 158.4 L 82.2 159.3 L 78.3 156.9 L 75.2 152.4 Z M 95.5 174.6 L 136.0 174.6 L 136.0 132.4 L 102.5 132.4 L 102.5 128.4 L 136.0 128.4 L 136.0 95.7 L 148.0 97.7 L 151.0 99.7 L 148.0 101.5 L 148.0 128.4 L 159.4 128.4 L 169.4 118.4 L 181.4 128.4 L 181.4 132.4 L 148.0 132.4 L 148.0 174.6 L 166.4 174.6 L 176.4 164.6 L 188.4 174.6 L 188.4 178.6 L 95.5 178.6 Z M 47.6 63.0 L 35.1 119.0 L 33.95 119.0 L 40.7 120.5 L 48.2 122.9 L 55.3 125.6 L 56.37861862182617 126.12296657562256 L 57.6 123.5 L 62.8 109.4 L 67.1 94.1 L 70.5 77.7 L 72.5245509147644 63.0 Z M 171.2 88.0 L 166.8 83.4 L 162.7 78.5 L 158.8 73.1 L 155.1 67.3 L 151.6 61.1 L 148.4 54.4 L 148.0 53.38571424484253 L 148.0 86.2 L 136.0 92.2 L 136.0 63.88139533996582 L 135.4 64.9 L 130.7 71.8 L 125.8 78.2 L 120.6 84.1 L 115.0 89.6 L 109.2 94.5 L 103.0 98.7 L 96.6 102.4 L 95.5 100.9 L 100.7 95.8 L 105.6 90.5 L 110.3 85.0 L 114.7 79.3 L 119.0 73.2 L 122.9 66.7 L 126.7 59.9 L 130.1 52.7 L 133.4 45.1 L 135.22278480529786 40.3 L 100.4 40.3 L 100.4 36.3 L 136.0 36.3 L 136.0 12.4 L 148.0 14.4 L 151.0 16.4 L 148.0 18.2 L 148.0 36.3 L 162.6 36.3 L 172.6 26.3 L 184.6 36.3 L 184.6 40.3 L 148.0 40.3 L 148.0 43.522222232818606 L 149.3 45.4 L 153.6 51.5 L 157.7 57.2 L 161.9 62.5 L 166.1 67.3 L 170.3 71.7 L 174.6 75.6 L 178.9 79.0 L 183.2 82.0 L 187.6 84.6 L 191.7 87.2 L 180.6 95.8 L 175.8 92.1 Z " />
</g>
</svg>
