<svg xmlns="http://www.w3.org/2000/svg" xmlns:xlink="http://www.w3.org/1999/xlink" version="1.1" baseProfile="full" viewBox="0 0 200 200" width="200" height="200">
<g fill="black">
<path d="M 145.7 181.8 L 137.9 178.9 L 129.5 176.2 L 120.6 173.7 L 113.18688526153565 171.90524587631225 L 104.2 175.5 L 91.7 178.9 L 77.3 181.7 L 60.9 183.8 L 42.5 185.2 L 22.0 185.8 L 21.9 184.0 L 42.1 181.4 L 60.2 178.5 L 76.1 175.3 L 89.8 171.6 L 98.12664575576783 168.60532913208007 L 90.6 167.1 L 79.5 165.0 L 70.16940307617188 163.3912763595581 L 63.4 170.9 L 50.5 167.3 L 69.29583330154419 146.5 L 14.0 146.5 L 14.0 142.5 L 72.9104166984558 142.5 L 85.2 128.9 L 92.7 138.4 L 93.6 141.9 L 89.47015104293823 141.9825969696045 L 89.00369234085083 142.5 L 164.0 142.5 L 174.0 132.5 L 186.0 142.5 L 186.0 146.5 L 136.49024391174316 146.5 L 134.8 153.1 L 130.1 160.3 L 123.97762241363526 165.70209789276123 L 131.8 167.2 L 140.8 169.3 L 149.2 171.6 L 157.2 174.2 L 164.7 177.1 L 167.8 180.5 L 167.7 185.0 L 164.3 188.1 L 159.7 188.0 L 153.0 184.8 Z M 85.39753847122192 146.5 L 72.14492311477662 161.2 L 79.9 161.2 L 91.3 161.8 L 102.1 162.7 L 109.46056337356568 163.54929580688477 L 110.4 163.1 L 117.3 158.4 L 121.8 153.6 L 124.2 148.9 L 124.58181819915771 146.5 Z M 68.4 40.4 L 67.6 38.9 L 66.5 37.3 L 65.2 35.6 L 63.6 33.9 L 61.8 32.2 L 59.7 30.4 L 57.3 28.5 L 54.6 27.1 L 54.6375 27.0 L 28.0 27.0 L 28.0 23.0 L 135.59230766296386 23.0 L 136.1 22.4 L 136.759259223938 23.0 L 150.0 23.0 L 160.0 13.0 L 172.0 23.0 L 172.0 27.0 L 141.15432100296022 27.0 L 145.0 30.5 L 146.0 34.0 L 141.77738733291625 33.344766998291014 L 140.5 34.4 L 135.5 38.0 L 132.8 39.8 L 130.0 41.5 L 127.0 43.1 L 123.9 44.6 L 122.95714282989502 45.0 L 166.8181818008423 45.0 L 175.0 36.0 L 185.0 45.0 L 185.0 49.0 L 106.0 49.0 L 106.0 63.0 L 156.8181818008423 63.0 L 165.0 54.0 L 175.0 63.0 L 175.0 67.0 L 106.0 67.0 L 106.0 81.0 L 96.47333335876465 85.76333332061768 L 103.5 91.6 L 103.8 94.5 L 99.37884855270386 92.20100126266479 L 93.9 93.0 L 88.7 93.5 L 83.4 93.9 L 78.0 94.2 L 72.5 94.5 L 66.9 94.7 L 61.2 94.8 L 55.3 94.9 L 49.3 94.8 L 43.2 94.4 L 43.0 94.38064517974854 L 43.0 106.0 L 92.0 106.0 L 92.0 110.0 L 43.0 110.0 L 43.0 120.0 L 156.0 120.0 L 156.0 110.0 L 107.0 110.0 L 107.0 106.0 L 156.0 106.0 L 156.0 94.0 L 107.0 94.0 L 107.0 90.0 L 156.0 90.0 L 162.0 85.0 L 173.0 94.0 L 168.0 98.0 L 168.0 126.0 L 156.0 132.0 L 156.0 124.0 L 43.0 124.0 L 43.0 127.0 L 31.0 133.0 L 31.0 85.0 L 42.46373624801636 90.7318681716919 L 43.0 90.6 L 48.9 89.4 L 54.7 88.3 L 60.4 87.3 L 66.0 86.3 L 71.5 85.3 L 76.8 84.3 L 82.0 83.2 L 87.1 82.2 L 91.11909198760986 81.37977714538575 L 91.1 81.3 L 91.18086528778076 81.3671703338623 L 92.0 81.2 L 92.15754632949829 82.17844572067261 L 94.0 83.70887098312377 L 94.0 67.0 L 25.0 67.0 L 25.0 63.0 L 94.0 63.0 L 94.0 49.0 L 15.0 49.0 L 15.0 45.0 L 71.51428575515747 45.0 L 69.2 43.2 L 68.9 41.8 Z M 61.6625 27.0 L 64.2 27.7 L 66.9 28.6 L 69.5 29.6 L 71.9 30.8 L 74.1 32.2 L 76.2 33.8 L 78.1 35.5 L 79.8 37.4 L 80.2 42.0 L 77.86666669845582 45.0 L 117.85652170181274 45.0 L 119.1 43.9 L 121.4 41.2 L 123.7 38.8 L 125.8 36.4 L 127.8 34.0 L 129.7 31.7 L 131.4 29.4 L 132.9 27.2 L 133.04285717010498 27.0 Z " />
</g>
</svg>
