<svg xmlns="http://www.w3.org/2000/svg" xmlns:xlink="http://www.w3.org/1999/xlink" version="1.1" baseProfile="full" viewBox="0 0 200 200" width="200" height="200">
<g fill="black">
<path d="M 145.9 179.7 L 135.9 176.0 L 125.6 172.5 L 114.9 169.1 L 111.17160491943359 167.9814814567566 L 100.1 174.1 L 87.2 179.2 L 72.9 183.2 L 57.1 186.2 L 39.8 187.9 L 21.0 188.5 L 20.9 186.7 L 39.3 184.1 L 56.1 180.9 L 71.2 176.9 L 84.6 172.1 L 96.3 166.5 L 99.38953218460082 164.5226993560791 L 92.6 162.6 L 81.0 159.5 L 69.0 156.4 L 62.224006271362306 154.62269020080566 L 61.4 155.6 L 56.8 160.5 L 52.2 165.3 L 43.7 156.8 L 48.1 152.2 L 52.4 147.6 L 56.6 142.8 L 60.6 137.9 L 64.5 132.8 L 65.69215688705444 131.2 L 15.0 131.2 L 15.0 127.2 L 68.64905662536621 127.2 L 72.0 122.4 L 75.5 117.0 L 78.9 111.5 L 82.2 105.8 L 82.23721933364868 105.8209137916565 L 82.8 104.9 L 92.7 111.7 L 94.3 114.9 L 90.72863960266113 115.02315034866334 L 89.2 117.6 L 85.7 123.4 L 83.16666669845581 127.2 L 163.0 127.2 L 173.0 117.2 L 185.0 127.2 L 185.0 131.2 L 141.55412845611573 131.2 L 136.6 142.0 L 129.8 151.8 L 121.5 160.4 L 119.90296869277954 161.58180322647095 L 128.2 163.6 L 138.9 166.5 L 149.4 169.6 L 159.6 172.9 L 169.4 176.4 L 172.6 179.7 L 172.7 184.3 L 169.5 187.5 L 164.9 187.6 L 155.6 183.6 Z M 80.475 131.2 L 78.1 134.7 L 74.1 140.1 L 70.0 145.4 L 64.35834054946899 152.09127054214477 L 69.7 152.6 L 82.0 154.2 L 94.0 156.2 L 105.7 158.4 L 107.7593765258789 158.8516176223755 L 114.6 153.0 L 121.4 145.2 L 126.5 136.6 L 128.61621618270874 131.2 Z M 144.9 100.2 L 166.1 100.2 L 167.0 100.0 L 167.6 99.8 L 167.9 99.6 L 168.1 99.5 L 168.3 99.3 L 168.5 99.0 L 168.6 98.4 L 168.8 97.5 L 168.9 96.2 L 168.9 26.2 L 101.7 26.2 L 101.7 22.2 L 168.9 22.2 L 174.9 17.2 L 185.9 26.2 L 180.9 30.2 L 180.9 96.2 L 180.7 98.8 L 180.3 101.3 L 179.5 103.7 L 178.3 106.0 L 176.6 108.0 L 174.6 109.6 L 172.3 110.8 L 169.9 111.7 L 167.4 112.1 L 164.9 112.2 L 164.9 106.2 L 144.9 103.2 Z M 90.2 26.0 L 85.2 30.0 L 85.2 50.2 L 73.2 56.2 L 73.2 50.2 L 31.8 50.2 L 31.8 63.7 L 78.1 63.7 L 84.1 58.7 L 95.1 67.7 L 90.1 71.7 L 90.1 93.9 L 78.1 99.9 L 78.1 93.9 L 31.8 93.9 L 31.8 105.9 L 19.8 111.9 L 19.8 40.2 L 31.8 46.2 L 73.2 46.2 L 73.2 26.0 L 22.0 26.0 L 22.0 22.0 L 73.2 22.0 L 79.2 17.0 Z M 118.7 56.5 L 141.5 56.5 L 147.5 51.5 L 158.5 60.5 L 153.5 64.5 L 153.5 90.8 L 141.5 96.8 L 141.5 86.8 L 118.7 86.8 L 118.7 93.8 L 106.7 99.8 L 106.7 50.5 Z M 31.8 67.7 L 31.8 89.9 L 78.1 89.9 L 78.1 67.7 Z M 118.7 60.5 L 118.7 82.8 L 141.5 82.8 L 141.5 60.5 Z M 162.3 39.4 L 162.3 43.4 L 98.4 43.4 L 98.4 39.4 L 144.11818180084228 39.4 L 152.3 30.4 Z " />
</g>
</svg>
