<svg xmlns="http://www.w3.org/2000/svg" xmlns:xlink="http://www.w3.org/1999/xlink" version="1.1" baseProfile="full" viewBox="0 0 200 200" width="200" height="200">
<g fill="black">
<path d="M 145.9 180.8 L 135.9 177.2 L 125.6 173.8 L 114.9 170.5 L 111.24192037582398 169.4358313560486 L 100.1 175.3 L 87.2 180.2 L 72.9 184.0 L 57.1 186.8 L 39.8 188.5 L 21.0 188.9 L 20.9 187.2 L 39.4 184.7 L 56.1 181.5 L 71.2 177.7 L 84.6 173.1 L 96.3 167.7 L 99.09775085449219 165.98256883621215 L 92.6 164.2 L 81.0 161.2 L 69.1 158.2 L 62.3001353263855 156.48621292114257 L 61.3 157.6 L 56.8 162.3 L 52.1 166.9 L 43.8 158.2 L 48.2 153.9 L 52.5 149.4 L 56.7 144.8 L 60.7 140.1 L 64.6 135.3 L 65.5880000114441 134.0 L 15.0 134.0 L 15.0 130.0 L 68.62200002670288 130.0 L 72.1 125.3 L 75.6 120.1 L 79.0 114.8 L 81.80854768753052 110.20419473648072 L 81.8 110.2 L 82.8 108.5 L 92.6 115.5 L 94.2 118.7 L 90.65714282989502 118.7 L 89.2 121.1 L 85.6 126.7 L 83.33888893127441 130.0 L 163.0 130.0 L 173.0 120.0 L 185.0 130.0 L 185.0 134.0 L 141.55188674926757 134.0 L 136.5 144.5 L 129.8 153.9 L 121.4 162.2 L 120.33411016464234 162.9644260406494 L 128.1 164.8 L 138.9 167.6 L 149.3 170.6 L 159.5 173.7 L 169.3 177.1 L 172.6 180.3 L 172.7 184.9 L 169.5 188.1 L 165.0 188.3 L 155.6 184.5 Z M 80.52777776718139 134.0 L 78.0 137.5 L 74.0 142.7 L 69.9 147.8 L 65.7 152.7 L 64.57521781921386 153.9525983810425 L 69.7 154.4 L 82.0 155.9 L 94.0 157.8 L 105.7 159.9 L 107.82872371673584 160.32947931289672 L 114.7 154.7 L 121.4 147.1 L 126.6 138.9 L 128.5884057998657 134.0 Z M 59.9 68.5 L 58.8 67.1 L 57.5 65.7 L 56.0 64.3 L 54.3 62.8 L 52.5 61.3 L 50.4 59.8 L 49.5 59.145454502105714 L 49.5 110.0 L 37.5 116.0 L 37.5 64.46896553039551 L 37.1 65.2 L 34.0 70.2 L 30.5 75.0 L 26.8 79.7 L 22.7 84.1 L 18.3 88.2 L 13.5 91.9 L 12.2 90.7 L 15.5 85.7 L 18.5 80.7 L 21.4 75.8 L 24.1 70.9 L 26.6 66.0 L 28.9 61.0 L 30.9 55.9 L 32.6 50.7 L 34.1 45.5 L 34.47894735336304 43.7 L 12.9 43.7 L 12.9 39.7 L 37.5 39.7 L 37.5 14.5 L 49.5 16.5 L 52.5 18.5 L 49.5 20.3 L 49.5 39.7 L 53.61818180084229 39.7 L 61.8 30.7 L 71.8 39.7 L 71.8 43.7 L 49.5 43.7 L 49.5 56.13571424484253 L 51.8 56.3 L 54.5 56.7 L 57.0 57.2 L 59.5 57.9 L 61.8 58.6 L 64.0 59.4 L 66.2 60.4 L 68.2 61.5 L 70.1 62.7 L 71.8 67.0 L 70.1 71.2 L 65.8 72.9 L 61.6 71.2 L 60.9 69.9 Z M 113.5 103.9 L 110.1 98.7 L 107.2 93.2 L 104.7 87.2 L 102.7 80.9 L 101.0 74.2 L 100.31172313690186 69.82005653381347 L 98.0 78.0 L 94.8 86.3 L 90.8 93.8 L 86.2 100.3 L 80.8 105.7 L 74.9 110.1 L 68.4 113.2 L 67.5 111.6 L 72.6 107.1 L 77.0 102.0 L 80.8 96.4 L 84.1 90.2 L 86.9 83.2 L 89.1 75.4 L 90.8 66.8 L 91.9 57.4 L 92.16796112060547 52.8 L 69.0 52.8 L 69.0 48.8 L 92.40097084045411 48.8 L 92.5 47.1 L 92.5 15.1 L 104.5 17.1 L 107.5 19.1 L 104.5 20.9 L 104.5 36.0 L 103.8 47.8 L 103.68990821838379 48.8 L 109.71818180084229 48.8 L 117.2302752494812 40.53669729232788 L 113.3 40.1 L 110.3 36.6 L 110.3 35.1 L 110.2 33.5 L 110.0 32.0 L 109.8 30.4 L 109.2 27.4 L 108.8 25.8 L 107.8 22.6 L 106.7 21.4 L 108.0 20.1 L 109.3 21.2 L 110.9 22.0 L 112.5 22.9 L 114.1 24.0 L 115.5 25.2 L 116.9 26.6 L 118.2 28.0 L 119.5 29.6 L 120.7 31.3 L 121.7 33.1 L 121.3 37.6 L 118.30650405883789 40.16585369110108 L 127.9 48.8 L 127.9 52.8 L 103.24954128265381 52.8 L 102.80288658142089 56.85711336135864 L 103.5 59.1 L 105.7 65.9 L 108.0 72.2 L 110.5 78.0 L 113.2 83.4 L 116.1 88.2 L 119.3 92.5 L 122.6 96.4 L 126.2 99.8 L 130.0 102.7 L 132.5 104.8 L 121.6 113.0 L 117.3 108.6 Z M 171.2 91.2 L 168.1 86.2 L 165.3 81.0 L 162.8 75.4 L 160.7 69.5 L 160.0 67.08888893127441 L 160.0 109.4 L 148.0 115.4 L 148.0 64.80666666030884 L 147.6 65.5 L 144.4 70.6 L 140.9 75.5 L 137.0 80.2 L 132.9 84.6 L 128.4 88.7 L 123.6 92.5 L 122.3 91.3 L 125.6 86.2 L 128.7 81.3 L 131.7 76.3 L 134.5 71.4 L 137.0 66.4 L 139.3 61.3 L 141.4 56.1 L 143.2 50.9 L 144.8 45.5 L 145.22631578445436 43.7 L 125.0 43.7 L 125.0 39.7 L 148.0 39.7 L 148.0 13.9 L 160.0 15.9 L 163.0 17.9 L 160.0 19.7 L 160.0 39.7 L 164.8181818008423 39.7 L 173.0 30.7 L 183.0 39.7 L 183.0 43.7 L 160.0 43.7 L 160.0 47.31481485366821 L 160.7 49.0 L 163.2 55.2 L 165.7 60.9 L 168.4 66.3 L 171.2 71.3 L 174.1 75.9 L 177.2 80.1 L 180.5 83.9 L 183.9 87.4 L 187.4 90.5 L 189.2 92.1 L 178.5 100.1 L 174.7 95.8 Z " />
</g>
</svg>
