<svg xmlns="http://www.w3.org/2000/svg" xmlns:xlink="http://www.w3.org/1999/xlink" version="1.1" baseProfile="full" viewBox="0 0 200 200" width="200" height="200">
<g fill="black">
<path d="M 87.66926317214966 120.64455471038818 L 96.4 128.2 L 96.6 131.3 L 92.59192171096802 129.5651601791382 L 91.1 130.1 L 87.2 131.1 L 83.0 132.1 L 78.5 133.0 L 73.7 133.8 L 68.6 134.6 L 63.2 135.3 L 57.4 135.9 L 51.3 136.4 L 44.9 136.7 L 44.0 136.7 L 44.0 152.1 L 71.0 152.1 L 81.0 142.1 L 93.0 152.1 L 93.0 156.1 L 44.0 156.1 L 44.0 173.2 L 156.0 173.2 L 156.0 156.1 L 107.0 156.1 L 107.0 152.1 L 156.0 152.1 L 156.0 134.9 L 105.0 134.9 L 105.0 130.9 L 156.0 130.9 L 162.0 125.9 L 173.0 134.9 L 168.0 138.9 L 168.0 181.2 L 156.0 187.2 L 156.0 177.2 L 44.0 177.2 L 44.0 184.2 L 32.0 190.2 L 32.0 127.8 L 43.0 133.3 L 44.3 132.9 L 50.4 131.1 L 56.2 129.4 L 61.7 127.8 L 66.8 126.3 L 71.6 124.8 L 76.0 123.3 L 80.0 121.8 L 83.7 120.3 L 86.02104539871216 119.24497938156128 L 86.0 119.2 L 86.04132452011109 119.23576154708863 L 87.0 118.8 Z M 116.4 45.5 L 118.7 48.2 L 114.88036003112794 49.22311782836914 L 114.4 50.4 L 112.5617021560669 54.0 L 172.0 54.0 L 178.0 49.0 L 189.0 58.0 L 184.0 61.0 L 183.949790763855 61.02092046737671 L 183.9 66.0 L 183.8 75.1 L 183.7 83.2 L 183.5 90.3 L 183.3 96.5 L 182.9 101.7 L 182.6 106.0 L 182.1 109.5 L 181.5 112.4 L 179.9 115.6 L 178.3 117.5 L 176.5 119.2 L 174.7 120.7 L 172.7 122.0 L 170.6 123.2 L 168.4 124.1 L 166.1 124.8 L 163.8 125.3 L 161.4 125.6 L 159.0 125.7 L 159.0 119.7 L 139.0 116.7 L 139.0 113.7 L 153.83225803375245 113.7 L 151.2 111.3 L 151.4 110.6 L 151.2 109.6 L 150.8 108.5 L 150.2 107.2 L 149.5327868461609 106.19918031692505 L 145.0 107.3 L 138.1 108.9 L 131.2 110.2 L 124.5 111.5 L 117.9 112.6 L 111.4 113.8 L 98.8 116.0 L 92.7 117.0 L 90.76554622650147 117.32240896224975 L 89.0 120.8 L 86.7 118.0 L 83.2 106.4 L 85.2 106.1 L 91.3 105.7 L 103.9 104.9 L 110.4 104.5 L 117.0 104.2 L 120.0 104.06567163467408 L 120.0 91.5 L 105.3 91.5 L 93.3 97.5 L 93.3 75.6387755393982 L 88.6 78.9 L 83.3 82.1 L 77.4 84.8 L 76.5 83.3 L 81.0 79.0 L 85.3 74.8 L 89.1 70.7 L 92.6 66.6 L 93.3 65.64333333969117 L 93.3 65.0 L 93.64464282989502 65.1723214149475 L 95.6 62.5 L 98.3 58.5 L 100.5 54.4 L 102.4 50.3 L 103.8 46.2 L 104.6553882598877 43.01173477172851 L 104.6 43.0 L 104.88800001144409 42.1 L 99.8 42.1 L 99.8 45.1 L 87.8 51.1 L 87.8 12.6 L 99.8 18.6 L 167.1 18.6 L 173.1 13.6 L 184.1 22.6 L 179.1 26.6 L 179.1 42.1 L 167.1 48.1 L 167.1 42.1 L 108.91999998092652 42.1 Z M 66.3 101.4 L 63.0 98.8 L 59.3 96.3 L 56.774102973937985 94.79648990631104 L 55.4 96.6 L 48.2 104.1 L 40.1 110.8 L 31.3 116.6 L 21.7 121.5 L 11.3 125.3 L 10.6 123.7 L 19.9 118.1 L 28.3 112.2 L 36.0 105.8 L 42.8 98.8 L 48.7 91.4 L 49.13996124267578 90.71467571258545 L 45.7 89.1 L 40.3 86.9 L 34.6 84.6 L 34.48291749954224 84.55393476486206 L 32.6 90.6 L 19.3 92.7 L 33.302319622039796 47.8 L 16.2 47.8 L 16.2 43.8 L 34.549742221832275 43.8 L 43.5 15.1 L 54.4 20.6 L 56.7 23.4 L 53.27090892791748 24.225521945953368 L 47.1748571395874 43.8 L 66.9 43.8 L 72.9 38.8 L 83.9 47.8 L 78.9 50.8 L 77.63497533798218 51.32709360122681 L 75.8 58.3 L 72.0 69.1 L 67.3 79.0 L 62.23064661026001 87.47964572906494 L 63.6 88.0 L 68.2 90.2 L 72.6 92.7 L 76.6 95.3 L 80.3 98.3 L 82.0 102.5 L 80.3 106.8 L 76.1 108.5 L 71.8 106.8 L 69.3 104.1 Z M 110.13111114501953 58.0 L 109.1 59.6 L 105.8 63.9 L 102.1 68.0 L 101.13529415130616 68.91764707565308 L 105.3 71.0 L 120.0 71.0 L 120.0 58.1 L 132.0 60.1 L 135.0 62.1 L 132.0 63.9 L 132.0 71.0 L 146.6 71.0 L 152.6 66.0 L 163.6 75.0 L 158.6 79.0 L 158.6 91.5 L 146.6 97.5 L 146.6 91.5 L 132.0 91.5 L 132.0 103.65714282989502 L 137.5 103.5 L 144.6 103.6 L 147.51230230331421 103.6797890663147 L 146.5 102.6 L 144.8 100.9 L 142.9 99.1 L 140.5 97.8 L 141.2 96.2 L 143.9 97.2 L 146.5 97.7 L 149.0 98.4 L 151.4 99.1 L 153.5 100.0 L 155.5 100.9 L 157.4 102.0 L 159.1 103.3 L 160.7 104.7 L 162.2 106.4 L 162.3 110.9 L 159.7991011619568 113.64292135238648 L 161.8 113.5 L 163.1 113.2 L 164.3 112.8 L 166.5 111.8 L 167.5 111.1 L 168.6 110.2 L 169.5 109.3 L 170.0865385055542 108.59615383148193 L 170.3 107.6 L 170.6 104.8 L 171.0 100.9 L 171.3 95.9 L 171.5 89.9 L 171.7 82.9 L 171.8 74.9 L 171.9 65.9 L 171.97979793548583 58.0 Z M 105.3 75.0 L 105.3 87.5 L 120.0 87.5 L 120.0 75.0 Z M 132.0 75.0 L 132.0 87.5 L 146.6 87.5 L 146.6 75.0 Z M 45.9291428565979 47.8 L 35.616259479522704 80.91476306915283 L 41.8 81.7 L 47.7 82.9 L 53.2638298034668 84.2909574508667 L 53.9 83.3 L 58.3 74.6 L 62.0 65.3 L 64.8 55.3 L 66.35660381317139 47.8 Z M 99.8 22.6 L 99.8 38.1 L 114.2 38.1 L 114.2 22.6 Z M 126.2 22.6 L 126.2 38.1 L 140.7 38.1 L 140.7 22.6 Z M 152.7 22.6 L 152.7 38.1 L 167.1 38.1 L 167.1 22.6 Z " />
</g>
</svg>
