<svg xmlns="http://www.w3.org/2000/svg" xmlns:xlink="http://www.w3.org/1999/xlink" version="1.1" baseProfile="full" viewBox="0 0 200 200" width="200" height="200">
<g fill="black">
<path d="M 146.0 180.4 L 136.0 177.0 L 125.7 173.8 L 115.0 170.6 L 111.30974655151367 169.59356727600098 L 111.3 169.6 L 100.0 175.2 L 87.1 179.7 L 72.8 183.3 L 57.0 185.8 L 39.8 187.3 L 21.0 187.7 L 20.9 185.9 L 39.4 183.5 L 56.2 180.5 L 71.3 176.9 L 84.7 172.5 L 96.4 167.5 L 98.62704839706421 166.22110090255737 L 92.7 164.7 L 81.0 161.9 L 69.1 159.0 L 62.360372924804686 157.41098222732543 L 61.1 158.7 L 56.6 163.1 L 52.0 167.4 L 43.9 158.5 L 48.4 154.4 L 56.8 146.0 L 60.8 141.6 L 64.7 137.1 L 65.2659574508667 136.4 L 15.0 136.4 L 15.0 132.4 L 68.5 132.4 L 72.2 127.7 L 75.7 122.9 L 79.1 118.0 L 82.3 112.9 L 82.35857257843017 112.93675146102905 L 82.9 112.1 L 92.5 119.3 L 94.0 122.6 L 90.3614800453186 122.53833017349243 L 89.0 124.6 L 85.5 129.8 L 83.56274509429932 132.4 L 163.0 132.4 L 173.0 122.4 L 185.0 132.4 L 185.0 136.4 L 141.65238094329834 136.4 L 141.6 136.5 L 136.4 146.4 L 129.7 155.2 L 121.3 163.0 L 120.91490678787231 163.25416145324706 L 128.0 164.8 L 138.8 167.3 L 149.2 170.1 L 159.4 173.0 L 169.2 176.2 L 172.5 179.3 L 172.8 183.9 L 169.6 187.2 L 165.1 187.4 L 155.7 183.8 Z M 80.56000003814697 136.4 L 77.9 139.9 L 73.9 144.8 L 69.8 149.5 L 65.5 154.2 L 64.80435352325439 154.91145658493042 L 69.7 155.3 L 82.0 156.6 L 94.0 158.3 L 105.6 160.2 L 107.87575092315674 160.6391799926758 L 114.8 155.3 L 121.5 148.2 L 126.7 140.5 L 128.44754095077514 136.4 Z M 131.4 76.5 L 131.4 88.8 L 130.7 92.3 L 129.5 95.5 L 127.8 98.4 L 125.6 100.8 L 123.0 102.8 L 120.2 104.3 L 117.1 105.4 L 115.03723039627076 105.8853575706482 L 123.0 106.8 L 140.1 107.8 L 157.01824054718017 107.97441482543945 L 155.2 106.9 L 153.1 105.3 L 151.5 103.3 L 150.3 101.0 L 149.5 98.6 L 149.0 96.1 L 148.9 93.5 L 148.9 76.5 Z M 67.03636360168457 76.8 L 65.4 79.8 L 64.66509437561035 80.8761118888855 L 66.7 85.6 L 71.1 90.9 L 76.64271602630615 94.98888893127442 L 77.5 94.3 L 82.3 89.4 L 86.5 84.1 L 90.1 78.4 L 90.88688526153564 76.8 Z M 95.4 67.0 L 93.2 66.5 L 91.1 65.7 L 89.1 64.4 L 87.4 62.7 L 86.0 60.7 L 85.0 58.4 L 84.3 56.0 L 84.0 53.5 L 84.0 52.51898145675659 L 45.1 54.5 L 44.8 50.5 L 84.0 48.5037036895752 L 84.0 36.9 L 96.0 38.9 L 99.0 40.9 L 96.0 42.7 L 96.0 47.89259262084961 L 130.98035593032836 46.1111855506897 L 139.40476188659667 36.8 L 41.0 36.8 L 41.0 72.7 L 40.4 79.3 L 39.3 85.5 L 37.7 91.3 L 35.6 96.7 L 33.0 101.7 L 29.8 106.2 L 26.2 110.2 L 22.1 113.7 L 17.4 116.5 L 12.4 118.6 L 11.5 117.0 L 15.2 113.4 L 18.4 109.7 L 21.2 106.0 L 23.5 102.0 L 25.4 97.9 L 26.9 93.5 L 28.0 88.8 L 28.7 83.7 L 29.0 78.4 L 29.0 26.8 L 41.0 32.8 L 90.0 32.8 L 90.0 11.9 L 102.0 13.9 L 105.0 15.9 L 102.0 17.7 L 102.0 20.6 L 143.0 20.6 L 153.0 10.6 L 165.0 20.6 L 165.0 24.6 L 102.0 24.6 L 102.0 32.8 L 170.0 32.8 L 170.4975609779358 32.385365867614745 L 170.9 31.8 L 172.0 30.3 L 172.41976623535157 30.783528137207032 L 176.0 27.8 L 187.0 36.8 L 182.0 39.8 L 170.0 44.8 L 170.0 44.28000001907348 L 168.4 45.0 L 166.2 46.0 L 164.0 46.9 L 161.6 47.7 L 159.5 49.0 L 158.4 47.5 L 160.2 45.9 L 161.7 43.9 L 163.2 42.0 L 166.0 38.4 L 167.2235294342041 36.8 L 141.86666669845582 36.8 L 152.8 45.0 L 153.1 49.0 L 96.0 51.90787038803101 L 96.0 53.5 L 95.8 54.8 L 95.7 55.8 L 95.7 57.1 L 95.8 57.7 L 96.0 58.2 L 96.5 58.7 L 97.3 59.2 L 98.5 59.7 L 100.0 60.0 L 166.5 60.0 L 170.0 55.0 L 172.0 55.0 L 170.0 60.0 L 172.1 61.4 L 173.5 63.5 L 172.1 65.6 L 170.0 67.0 L 120.4 67.0 L 131.4 72.5 L 148.9 72.5 L 154.9 67.5 L 165.9 76.5 L 160.9 80.5 L 160.9 93.5 L 161.0 94.8 L 161.1 95.7 L 161.3 96.3 L 161.5 96.6 L 161.6 96.8 L 162.2 97.1 L 162.7 97.3 L 163.7 97.5 L 168.2 97.5 L 174.2 72.5 L 176.2 72.5 L 174.2 97.5 L 177.8 99.9 L 180.2 103.5 L 177.8 107.1 L 177.18695650100707 107.50869569778442 L 181.1 107.4 L 192.6 107.1 L 181.5 120.6 L 159.4 120.5 L 139.5 119.6 L 121.8 117.8 L 106.3 115.1 L 93.0 111.5 L 81.9 106.9 L 78.34743995666504 104.7045976638794 L 76.5 105.9 L 69.1 109.6 L 61.1 112.7 L 52.6 115.0 L 43.4 116.6 L 33.7 117.4 L 33.4 115.6 L 42.6 112.9 L 51.0 109.9 L 58.7 106.6 L 65.7 102.9 L 71.03406791687011 99.37263250350952 L 66.6 94.8 L 62.9 87.3 L 62.564245796203615 83.94245805740357 L 59.4 87.7 L 55.8 91.1 L 51.8 94.1 L 47.4 96.8 L 42.6 99.0 L 37.5 100.8 L 36.7 99.2 L 40.8 96.0 L 44.4 92.7 L 47.7 89.3 L 50.5 86.0 L 52.9 82.5 L 55.0 79.0 L 56.6 75.3 L 57.9 71.5 L 58.9 67.6 L 59.35288457870483 64.5052885055542 L 59.3 64.5 L 59.8 61.6 L 71.3 65.7 L 73.9 68.2 L 70.13979587554931 69.56734695434571 L 69.8 70.7 L 68.90638294219971 72.8 L 92.5 72.8 L 98.5 67.8 L 109.5 76.8 L 104.5 79.8 L 101.84677162170411 80.9055118560791 L 99.8 84.4 L 95.0 90.7 L 89.5 96.5 L 85.82553968429565 99.46327447891235 L 95.6 102.5 L 107.19573173522949 104.89277000427246 L 109.4 104.2 L 112.4 102.5 L 114.8 100.8 L 116.7 99.0 L 118.1 97.3 L 119.0 95.6 L 119.5 93.9 L 119.7 92.3 L 119.7 90.6 L 119.4 88.8 L 119.4 67.0 L 100.0 67.0 L 97.6 67.1 Z " />
</g>
</svg>
