<svg xmlns="http://www.w3.org/2000/svg" xmlns:xlink="http://www.w3.org/1999/xlink" version="1.1" baseProfile="full" viewBox="0 0 200 200" width="200" height="200">
<g fill="black">
<path d="M 102.6 41.0 L 134.1 41.0 L 134.1 12.0 L 146.1 14.0 L 149.1 16.0 L 146.1 17.8 L 146.1 41.0 L 169.1 41.0 L 179.1 31.0 L 191.1 41.0 L 191.1 45.0 L 102.6 45.0 L 102.6 104.0 L 102.2 115.2 L 101.3 125.9 L 100.1 136.0 L 98.6 145.6 L 96.7 154.5 L 94.4 162.8 L 91.7 170.5 L 88.6 177.6 L 85.1 183.9 L 81.0 189.4 L 79.5 188.5 L 81.6 182.2 L 83.6 175.6 L 85.5 168.6 L 87.1 161.0 L 88.4 152.9 L 89.4 144.2 L 90.2 135.0 L 90.6 125.2 L 90.8 114.9 L 90.6 104.0 L 90.6 35.0 Z M 65.0 147.8 L 61.2 143.7 L 57.0 139.7 L 55.395940971374515 138.37490777969361 L 54.3 140.6 L 46.8 152.9 L 38.4 163.9 L 29.1 173.5 L 18.8 181.8 L 7.8 188.7 L 6.8 187.2 L 16.4 178.9 L 25.2 169.8 L 33.2 159.8 L 40.4 148.8 L 46.7 136.8 L 48.298550033569335 133.06053466796874 L 47.2 132.3 L 41.6 128.9 L 35.4 125.6 L 28.8 122.3 L 21.7 119.1 L 21.729411792755126 119.0 L 20.4 119.0 L 31.844866943359374 63.0 L 13.7 63.0 L 13.7 59.0 L 32.6623574256897 59.0 L 41.9 13.8 L 53.2 18.1 L 55.7 20.7 L 52.47010622024536 21.675062274932863 L 44.849752235412595 59.0 L 63.0 59.0 L 73.0 49.0 L 85.0 59.0 L 85.0 63.0 L 77.98453035354615 63.0 L 75.2 79.8 L 71.3 96.7 L 66.6 112.5 L 60.9 127.2 L 59.37357702255249 130.29910125732422 L 62.7 132.4 L 68.0 136.3 L 72.8 140.5 L 77.2 145.2 L 81.1 150.2 L 81.9 154.7 L 79.3 158.5 L 74.8 159.2 L 71.1 156.7 L 68.2 152.2 Z M 185.0 146.7 L 187.0 146.7 L 185.0 171.7 L 188.6 174.1 L 191.0 177.7 L 188.6 181.3 L 185.0 183.7 L 153.6 183.7 L 151.1 183.5 L 148.6 183.1 L 146.2 182.3 L 143.9 181.1 L 141.9 179.4 L 140.2 177.4 L 139.0 175.1 L 138.2 172.7 L 137.8 170.2 L 137.6 167.7 L 137.6 118.79491529464721 L 106.3 124.1 L 105.6 120.2 L 137.6 114.73753023147583 L 137.6 77.95135135650635 L 134.7 78.5 L 126.8 79.8 L 118.5 80.8 L 109.7 81.6 L 109.4 79.8 L 117.7 77.1 L 125.6 74.5 L 133.1 72.1 L 140.2 69.8 L 146.8 67.5 L 152.9 65.3 L 158.6 63.0 L 163.8 60.8 L 168.5 58.6 L 172.8 56.4 L 173.83246755599976 58.67142858505249 L 181.5 65.7 L 181.7 68.9 L 177.92557792663575 67.3423020362854 L 177.8 67.4 L 172.8 69.2 L 167.5 70.9 L 161.8 72.5 L 155.7 74.1 L 149.6 75.57878789901733 L 149.6 112.6891040802002 L 166.5345073699951 109.7983468055725 L 174.7 98.3 L 188.2 106.1 L 188.9 110.1 L 149.6 116.76101694107055 L 149.6 167.7 L 149.7 168.9 L 149.9 169.8 L 150.2 170.7 L 150.6 171.1 L 150.9 171.3 L 151.5 171.4 L 152.4 171.6 L 153.6 171.7 L 179.0 171.7 Z M 44.03310203552246 63.0 L 32.6 119.0 L 31.168421077728272 119.0 L 37.4 120.6 L 44.3 122.9 L 50.9 125.7 L 51.34776391983032 125.92755212783814 L 52.3 123.7 L 57.0 109.5 L 60.9 94.2 L 64.0 77.8 L 65.85 63.0 Z " />
</g>
</svg>
