<svg xmlns="http://www.w3.org/2000/svg" xmlns:xlink="http://www.w3.org/1999/xlink" version="1.1" baseProfile="full" viewBox="0 0 200 200" width="200" height="200">
<g fill="black">
<path d="M 56.8 147.6 L 53.6 143.5 L 50.0 139.5 L 49.300742053985594 138.86896238327026 L 48.6 140.5 L 41.9 152.7 L 34.4 163.7 L 26.1 173.4 L 16.9 181.8 L 7.0 188.7 L 5.9 187.2 L 14.3 179.0 L 22.0 169.9 L 29.0 159.9 L 35.3 149.0 L 40.8 136.9 L 42.300118160247806 132.9200945854187 L 41.4 132.2 L 36.5 128.8 L 31.2 125.5 L 25.4 122.3 L 19.3 119.1 L 19.329411792755128 119.0 L 17.3 119.0 L 27.423691749572754 63.0 L 12.1 63.0 L 12.1 59.0 L 28.146812534332277 59.0 L 36.3 13.9 L 47.8 18.0 L 50.4 20.5 L 47.17037467956543 21.474981212615965 L 40.371287155151364 59.0 L 53.3 59.0 L 63.3 49.0 L 75.3 59.0 L 75.3 63.0 L 69.69116020202637 63.0 L 67.2 79.7 L 63.8 96.6 L 59.5 112.4 L 54.4 127.0 L 52.93942794799805 130.39960737228392 L 56.0 132.5 L 60.8 136.4 L 65.1 140.7 L 69.0 145.4 L 72.5 150.4 L 73.0 154.9 L 70.3 158.6 L 65.7 159.1 L 62.1 156.3 L 59.7 151.8 Z M 117.3 143.3 L 116.60136985778809 148.4 L 144.6 148.4 L 144.6 122.9 L 155.6 124.9 L 158.3 126.9 L 155.6 128.62340421676635 L 155.6 148.4 L 164.9 148.4 L 174.9 138.4 L 186.9 148.4 L 186.9 152.4 L 155.6 152.4 L 155.6 183.0 L 144.6 188.5 L 144.6 152.4 L 115.8764705657959 152.4 L 114.7 157.4 L 112.6 163.6 L 109.9 169.2 L 106.8 174.2 L 103.1 178.6 L 99.0 182.3 L 94.4 185.2 L 89.4 187.3 L 84.0 188.6 L 83.4 187.0 L 87.8 184.2 L 91.6 181.1 L 94.9 177.8 L 97.8 174.1 L 100.2 170.1 L 102.2 165.6 L 103.8 160.6 L 105.1 155.1 L 105.46000003814697 152.4 L 73.7 152.4 L 73.7 148.4 L 105.95303030014038 148.4 L 106.4 142.5 L 106.4 122.9 L 117.4 124.9 L 120.1 126.9 L 117.4 128.62340421676635 L 117.4 142.9 L 117.1411078453064 143.2883381843567 Z M 136.0 46.8 L 139.0 48.8 L 136.0 50.6 L 136.0 59.0 L 156.01818180084229 59.0 L 164.2 50.0 L 174.2 59.0 L 174.2 63.0 L 136.0 63.0 L 136.0 75.6 L 171.9777777671814 75.6 L 178.2 68.6 L 186.2 75.6 L 186.2 79.6 L 153.34090909957885 79.6 L 159.0 85.6 L 159.7 89.1 L 155.00161848068237 87.94601154327393 L 154.3 88.4 L 152.5 89.6 L 150.5 90.9 L 148.4 92.3 L 146.1 93.9 L 143.7 95.5 L 141.71176471710206 96.8 L 164.71818180084227 96.8 L 172.9 87.8 L 182.9 96.8 L 182.9 100.8 L 135.0 100.8 L 135.0 113.4 L 154.61818180084228 113.4 L 162.8 104.4 L 172.8 113.4 L 172.8 117.4 L 135.0 117.4 L 135.0 132.6 L 125.0 137.6 L 125.0 117.4 L 87.1 117.4 L 87.1 113.4 L 125.0 113.4 L 125.0 100.8 L 77.0 100.8 L 77.0 96.8 L 109.7235294342041 96.8 L 107.9 94.8 L 108.0 93.8 L 107.9 92.6 L 107.7 91.3 L 107.3 89.9 L 106.8 88.4 L 106.1 86.9 L 105.3 85.3 L 104.3 83.6 L 103.1 81.8 L 101.5 80.4 L 102.03333330154419 79.6 L 73.7 79.6 L 73.7 75.6 L 124.0 75.6 L 124.0 63.0 L 85.7 63.0 L 85.7 59.0 L 124.0 59.0 L 124.0 44.9 L 93.4 44.9 L 81.4 50.9 L 81.4 12.6 L 93.4 18.6 L 166.5 18.6 L 172.5 13.6 L 183.5 22.6 L 178.5 26.6 L 178.5 44.9 L 166.5 50.9 L 166.5 44.9 L 124.6 44.9 Z M 39.64653463363648 63.0 L 29.5 119.0 L 27.53333330154419 119.0 L 33.4 120.6 L 39.6 123.0 L 45.06216545104981 125.59221410751343 L 45.7 123.9 L 49.9 109.7 L 53.3 94.3 L 56.0 77.9 L 57.67514791488647 63.0 Z M 104.4 80.1 L 106.5 80.8 L 108.5 81.7 L 110.4 82.7 L 112.1 83.8 L 113.8 85.0 L 115.4 86.3 L 116.8 87.7 L 118.1 89.3 L 119.3 91.0 L 118.9 95.5 L 117.47419357299805 96.8 L 138.4307692527771 96.8 L 139.4 95.6 L 140.9 92.9 L 142.4 90.4 L 143.9 88.0 L 145.2 85.8 L 146.5 83.8 L 147.6 81.9 L 148.7 80.2 L 149.0375 79.6 L 103.60833330154419 79.6 Z M 93.4 22.6 L 93.4 40.9 L 109.8 40.9 L 109.8 22.6 Z M 121.8 22.6 L 121.8 40.9 L 138.1 40.9 L 138.1 22.6 Z M 150.1 22.6 L 150.1 40.9 L 166.5 40.9 L 166.5 22.6 Z " />
</g>
</svg>
