<svg xmlns="http://www.w3.org/2000/svg" xmlns:xlink="http://www.w3.org/1999/xlink" version="1.1" baseProfile="full" viewBox="0 0 200 200" width="200" height="200">
<g fill="black">
<path d="M 84.7 165.9 L 82.8 161.8 L 83.89353237152099 158.4412935256958 L 79.6 159.3 L 75.8 156.9 L 72.7 152.3 L 69.3 147.9 L 65.6 143.7 L 61.4 139.7 L 59.02513084411621 137.7381516456604 L 57.5 140.7 L 49.7 152.9 L 41.0 163.9 L 31.3 173.6 L 20.7 181.9 L 9.2 188.7 L 8.2 187.2 L 18.3 178.9 L 27.5 169.8 L 35.9 159.7 L 43.4 148.7 L 50.0 136.7 L 51.937191581726076 132.39877796173096 L 51.8 132.3 L 46.4 128.9 L 40.6 125.5 L 34.4 122.3 L 34.066194725036624 122.13815507888793 L 31.7 133.3 L 18.7 136.6 L 34.27038240432739 63.0 L 14.5 63.0 L 14.5 59.0 L 35.11659889221191 59.0 L 44.7 13.7 L 56.1 18.2 L 58.6 20.8 L 55.354081535339354 21.718656158447267 L 47.45082540512085 59.0 L 70.6 59.0 L 76.6 54.0 L 87.6 63.0 L 82.6 66.0 L 81.69925632476807 66.3753098487854 L 79.4 79.8 L 75.3 96.8 L 70.3 112.6 L 64.4 127.3 L 63.070642185211184 129.88165140151978 L 67.1 132.4 L 72.3 136.3 L 77.1 140.5 L 81.6 145.1 L 85.7 150.1 L 86.5 154.6 L 85.4714285850525 156.2285714149475 L 86.0 155.7 L 87.7 153.4 L 89.3 150.5 L 90.8 147.0 L 92.2 142.9 L 93.4 138.3 L 94.4 133.1 L 95.3 127.4 L 96.1 121.2 L 96.8 114.4 L 98.6 114.3 L 99.7 121.1 L 100.5 127.5 L 100.8 133.6 L 100.8 139.2 L 100.4 144.5 L 99.7 149.4 L 98.7 153.9 L 97.3 158.1 L 95.5 161.9 L 93.2 165.4 L 89.1 167.4 Z M 161.5 143.2 L 163.5 143.2 L 161.5 168.2 L 165.1 170.6 L 167.5 174.2 L 165.1 177.7 L 161.5 180.2 L 125.5 180.2 L 122.9 180.0 L 120.4 179.6 L 118.0 178.8 L 115.7 177.5 L 113.7 175.9 L 112.1 173.9 L 110.9 171.6 L 110.1 169.2 L 109.6 166.7 L 109.5 164.2 L 109.5 109.5 L 121.5 111.5 L 124.5 113.5 L 121.5 115.3 L 121.5 165.4 L 121.7 166.3 L 121.9 166.9 L 122.1 167.2 L 122.2 167.4 L 122.4 167.6 L 123.3 167.9 L 124.2 168.1 L 125.5 168.2 L 155.5 168.2 Z M 173.0 147.6 L 172.2 143.5 L 171.3 139.5 L 170.2 135.6 L 168.8 131.7 L 167.4 127.9 L 165.7 124.2 L 164.0 120.3 L 162.0 116.6 L 163.4 115.4 L 166.7 118.4 L 169.8 121.5 L 172.7 124.8 L 175.3 128.5 L 177.6 132.3 L 179.7 136.3 L 181.6 140.5 L 183.3 144.9 L 184.7 149.4 L 185.9 154.1 L 184.8 158.5 L 180.9 161.0 L 176.5 159.8 L 174.1 156.0 L 173.6 151.7 Z M 136.8 118.7 L 135.8 115.7 L 134.6 112.8 L 133.3 110.1 L 131.9 107.4 L 130.4 104.8 L 128.8 102.3 L 127.0 99.8 L 125.0 97.6 L 126.0 96.1 L 128.8 97.6 L 131.7 99.2 L 134.4 101.0 L 137.0 103.2 L 139.5 105.6 L 141.9 108.2 L 144.1 111.0 L 146.2 114.1 L 148.1 117.3 L 149.9 120.8 L 149.7 125.4 L 146.4 128.5 L 141.9 128.3 L 138.7 125.0 L 137.8 121.8 Z M 46.60286703109741 63.0 L 34.82753944396973 118.54672994613648 L 35.7 118.7 L 42.7 120.6 L 49.3 123.0 L 55.05868377685547 125.46800727844239 L 55.9 123.6 L 60.8 109.4 L 64.9 94.1 L 68.2 77.7 L 70.21599998474122 63.0 Z M 106.1 94.8 L 95.1 100.3 L 95.1 24.0 L 106.1 29.5 L 164.8 29.5 L 170.3 24.5 L 180.8 33.5 L 175.8 37.0 L 175.8 88.8 L 164.8 94.3 L 164.8 82.8 L 106.1 82.8 Z M 106.1 33.5 L 106.1 78.8 L 118.8 78.8 L 118.8 33.5 Z M 128.8 33.5 L 128.8 78.8 L 142.1 78.8 L 142.1 33.5 Z M 152.1 33.5 L 152.1 78.8 L 164.8 78.8 L 164.8 33.5 Z " />
</g>
</svg>
