<svg xmlns="http://www.w3.org/2000/svg" xmlns:xlink="http://www.w3.org/1999/xlink" version="1.1" baseProfile="full" viewBox="0 0 200 200" width="200" height="200">
<g fill="black">
<path d="M 71.6 148.1 L 67.4 143.9 L 62.8 139.9 L 60.35714282989502 138.067857170105 L 58.9 140.8 L 50.7 153.0 L 41.6 164.0 L 31.5 173.6 L 20.4 181.9 L 8.4 188.7 L 7.5 187.2 L 18.1 178.9 L 27.8 169.7 L 36.6 159.7 L 44.5 148.7 L 51.5 136.6 L 53.102173233032225 133.15926733016968 L 51.9 132.4 L 45.6 128.9 L 38.8 125.6 L 31.5 122.3 L 23.7 119.1 L 23.722222232818602 119.0 L 22.8 119.0 L 35.297625827789304 63.0 L 15.0 63.0 L 15.0 59.0 L 36.19031343460083 59.0 L 46.3 13.7 L 57.6 18.2 L 60.1 20.8 L 56.79707374572754 21.7971097946167 L 48.49285717010498 59.0 L 71.0 59.0 L 81.0 49.0 L 93.0 59.0 L 93.0 63.0 L 84.6714285850525 63.0 L 81.7 79.9 L 77.5 96.8 L 72.3 112.7 L 66.1 127.3 L 64.51322317123413 130.27520656585693 L 68.1 132.3 L 73.8 136.1 L 79.1 140.4 L 83.9 145.0 L 88.1 150.0 L 89.1 154.5 L 86.7 158.4 L 82.2 159.3 L 78.3 156.9 L 75.2 152.4 Z M 157.7 166.7 L 149.3 156.5 L 141.7 145.3 L 138.61738414764403 139.81475715637208 L 136.1 143.5 L 125.2 156.0 L 113.1 166.8 L 99.9 176.0 L 85.6 183.3 L 70.3 188.8 L 69.6 187.1 L 83.9 179.9 L 97.0 171.5 L 108.9 161.8 L 119.6 150.8 L 129.3 138.4 L 133.89718809127808 130.99041442871095 L 129.0 120.2 L 123.9 106.3 L 119.7 91.5 L 116.4 75.7 L 115.06712560653686 65.64285717010497 L 112.0 71.3 L 107.0 79.2 L 101.7 86.8 L 95.9 93.9 L 89.7 100.5 L 88.2 99.4 L 92.8 91.7 L 97.2 83.9 L 101.4 76.0 L 105.2 67.8 L 108.8 59.4 L 112.0 50.8 L 115.0 41.9 L 117.6 32.8 L 119.9 23.4 L 121.71404371261596 14.601888179779053 L 121.7 14.6 L 122.3 11.8 L 133.6 16.2 L 136.1 18.8 L 132.56861839294433 20.01993179321289 L 130.9 26.2 L 127.9 35.9 L 124.5 45.2 L 120.82527475357055 54.0 L 161.0 54.0 L 167.0 49.0 L 178.0 58.0 L 173.0 61.0 L 171.73681344985962 61.5263277053833 L 167.9 77.5 L 161.7 96.3 L 154.4 113.6 L 145.8 129.3 L 144.61796655654908 131.0303994178772 L 150.2 139.6 L 157.9 149.6 L 166.3 158.5 L 175.2 166.5 L 184.8 173.6 L 188.1 175.9 L 177.1 184.3 L 167.0 176.0 Z M 47.6 63.0 L 35.1 119.0 L 33.95 119.0 L 40.7 120.5 L 48.2 122.9 L 55.3 125.6 L 56.37861862182617 126.12296657562256 L 57.6 123.5 L 62.8 109.4 L 67.1 94.1 L 70.5 77.7 L 72.5245509147644 63.0 Z M 118.91379308700562 58.0 L 116.9304654121399 62.108321571350096 L 120.5 74.8 L 125.3 89.8 L 130.7 103.8 L 136.6 116.7 L 139.2885193824768 121.66342039108277 L 145.3 109.4 L 151.6 92.7 L 156.9 74.5 L 160.4177664756775 58.0 Z " />
</g>
</svg>
