<svg xmlns="http://www.w3.org/2000/svg" xmlns:xlink="http://www.w3.org/1999/xlink" version="1.1" baseProfile="full" viewBox="0 0 200 200" width="200" height="200">
<g fill="black">
<path d="M 62.0 147.7 L 58.6 143.5 L 54.9 139.6 L 53.39522829055786 138.17046689987183 L 52.3 140.5 L 45.2 152.8 L 37.3 163.8 L 28.5 173.5 L 18.8 181.8 L 8.3 188.7 L 7.3 187.2 L 16.3 178.9 L 24.5 169.9 L 32.0 159.9 L 38.7 148.9 L 44.7 136.9 L 46.525724220275876 132.30057935714723 L 46.4 132.2 L 41.7 128.8 L 36.5 125.5 L 31.239436626434326 122.43930854797364 L 29.2 133.1 L 16.2 136.8 L 30.3 63.0 L 13.1 63.0 L 13.1 59.0 L 31.064227676391603 59.0 L 39.7 13.8 L 51.2 18.1 L 53.7 20.6 L 50.53919553756714 21.55420513153076 L 43.37565221786499 59.0 L 63.1 59.0 L 69.1 54.0 L 80.1 63.0 L 75.1 66.0 L 74.2655511856079 66.34768705368042 L 72.2 79.7 L 68.5 96.7 L 64.0 112.5 L 58.6 127.1 L 57.26598072052002 129.93743772506713 L 61.0 132.5 L 65.7 136.4 L 70.1 140.7 L 74.2 145.3 L 77.9 150.2 L 78.5 154.8 L 75.9 158.5 L 71.4 159.2 L 67.6 156.5 L 65.0 152.0 Z M 157.7 182.2 L 156.1 184.0 L 154.2 185.6 L 152.2 186.9 L 150.0 188.0 L 147.8 188.9 L 145.4 189.5 L 143.0 189.8 L 140.5 190.0 L 140.5 184.0 L 120.5 181.0 L 120.5 178.0 L 140.5 178.0 L 141.8 177.9 L 143.1 177.7 L 144.2 177.4 L 145.2 177.1 L 146.1 176.6 L 147.0 176.0 L 147.8 175.3 L 148.5 174.5 L 149.3 173.5 L 150.0 172.3 L 150.6 170.9 L 151.4 168.0 L 152.2 163.8 L 152.50566034317018 162.0 L 105.98467969894409 162.0 L 104.3 174.6 L 91.6 179.0 L 97.61431980133057 134.0 L 82.3 134.0 L 82.3 130.0 L 98.14892597198487 130.0 L 102.8 95.2 L 112.73157892227172 102.0 L 157.5 102.0 L 163.5 97.0 L 174.5 106.0 L 169.5 109.0 L 169.21302490234376 109.11957292556762 L 168.8 116.2 L 168.1 127.0 L 167.88787879943848 130.0 L 173.4777777671814 130.0 L 179.7 123.0 L 187.7 130.0 L 187.7 134.0 L 167.60505046844483 134.0 L 167.4 136.9 L 166.6 145.7 L 165.8 153.4 L 165.25882349014282 158.0 L 172.2 158.0 L 176.7 152.0 L 182.7 158.0 L 182.7 162.0 L 164.72068967819214 162.0 L 164.1 166.0 L 163.1 170.8 L 162.0 174.7 L 160.5 178.1 L 159.2 180.2 Z M 109.7284122467041 134.0 L 106.51949863433838 158.0 L 123.52142858505249 158.0 L 126.17857141494751 134.0 Z M 138.27857141494752 134.0 L 135.62142858505248 158.0 L 153.1625 158.0 L 153.9 152.1 L 154.7 144.5 L 155.4 135.9 L 155.55670099258424 134.0 Z M 113.47214488983154 106.0 L 110.2632311820984 130.0 L 126.62142858505248 130.0 L 129.27857141494752 106.0 Z M 141.37857141494752 106.0 L 138.72142858505248 130.0 L 155.88659791946412 130.0 L 156.2 126.2 L 156.8 115.5 L 157.36355934143066 106.0 Z M 42.61043481826782 63.0 L 31.9535005569458 118.70670156478882 L 32.4 118.8 L 38.8 120.7 L 44.8 123.0 L 49.33355369567871 125.22700881958008 L 49.9 123.8 L 54.3 109.6 L 58.0 94.3 L 61.0 77.8 L 62.776000022888184 63.0 Z M 81.6 83.0 L 129.0 83.0 L 129.0 63.0 L 95.9 63.0 L 95.9 59.0 L 129.0 59.0 L 129.0 39.0 L 91.6 39.0 L 91.6 35.0 L 129.0 35.0 L 129.0 13.0 L 141.0 15.0 L 144.0 17.0 L 141.0 18.8 L 141.0 35.0 L 156.4 35.0 L 166.4 25.0 L 178.4 35.0 L 178.4 39.0 L 141.0 39.0 L 141.0 59.0 L 155.8181818008423 59.0 L 164.0 50.0 L 174.0 59.0 L 174.0 63.0 L 141.0 63.0 L 141.0 83.0 L 170.11818180084228 83.0 L 178.3 74.0 L 188.3 83.0 L 188.3 87.0 L 81.6 87.0 Z " />
</g>
</svg>
