<svg xmlns="http://www.w3.org/2000/svg" xmlns:xlink="http://www.w3.org/1999/xlink" version="1.1" baseProfile="full" viewBox="0 0 200 200" width="200" height="200">
<g fill="black">
<path d="M 71.7 148.0 L 67.8 143.8 L 63.4 139.8 L 60.777695941925046 137.67983922958373 L 59.2 140.7 L 51.1 153.0 L 42.1 163.9 L 32.2 173.6 L 21.2 181.9 L 9.4 188.7 L 8.5 187.2 L 18.9 178.9 L 28.5 169.7 L 37.1 159.7 L 44.9 148.7 L 51.7 136.7 L 53.66235609054566 132.41552257537842 L 53.5 132.3 L 47.9 128.9 L 41.9 125.6 L 35.5 122.3 L 34.954739284515384 122.0434066772461 L 32.5 133.3 L 19.4 136.6 L 35.509357166290286 63.0 L 15.0 63.0 L 15.0 59.0 L 36.38486576080322 59.0 L 46.3 13.7 L 57.6 18.2 L 60.1 20.8 L 56.8312747001648 21.725110912322997 L 48.70269327163696 59.0 L 73.0 59.0 L 79.0 54.0 L 90.0 63.0 L 85.0 66.0 L 84.0762845993042 66.38488140106202 L 81.7 79.9 L 77.5 96.8 L 72.4 112.7 L 66.2 127.3 L 64.89137620925904 129.80507974624635 L 69.0 132.4 L 74.4 136.2 L 79.4 140.5 L 83.9 145.1 L 88.1 150.0 L 89.1 154.5 L 86.7 158.4 L 82.2 159.3 L 78.3 156.9 L 75.2 152.4 Z M 172.4 172.5 L 170.9 169.0 L 170.4284420967102 167.96846704483033 L 167.5 168.8 L 159.4 171.0 L 151.2 172.9 L 142.9 174.7 L 134.7 176.4 L 126.4 178.0 L 118.0 179.5 L 109.7 181.0 L 96.9393162727356 183.12678060531616 L 95.2 186.5 L 92.9 183.8 L 89.4 172.1 L 91.4 171.9 L 99.9 171.1 L 108.3 170.4 L 110.88554916381835 170.15375719070434 L 112.8 168.0 L 118.5 161.6 L 124.3 155.1 L 130.1 148.4 L 135.9 141.4 L 141.7 134.2 L 147.6 126.7 L 153.4 118.9 L 159.3 110.9 L 164.5285620689392 103.41774730682373 L 164.5 103.4 L 164.87029705047607 102.92871284484863 L 165.1 102.6 L 165.11804647445678 102.61339530944824 L 165.6 102.0 L 174.8 109.8 L 176.0 113.2 L 172.3727201461792 112.82476415634156 L 168.3 117.9 L 161.8 125.6 L 155.3 133.1 L 148.8 140.3 L 142.2 147.1 L 135.6 153.6 L 128.9 159.7 L 122.2 165.5 L 116.97297849655152 169.57400207519532 L 125.1 168.8 L 133.4 168.0 L 150.2 166.4 L 158.5 165.7 L 166.9 165.1 L 169.02785148620606 164.99867372512819 L 167.4 162.0 L 165.3 158.3 L 163.0 154.6 L 160.5 150.7 L 157.9 146.8 L 155.0 142.7 L 156.2 141.4 L 160.3 144.5 L 164.1 147.5 L 167.7 150.7 L 171.0 153.9 L 174.0 157.2 L 176.8 160.6 L 179.4 164.1 L 181.8 167.6 L 183.9 171.1 L 185.8 174.8 L 185.7 179.3 L 182.4 182.5 L 177.9 182.4 L 174.6 179.1 L 173.6 175.8 Z M 120.6 133.3 L 118.1 130.5 L 115.4 127.8 L 112.4 125.1 L 109.1 122.4 L 105.6 119.7 L 101.9 116.9 L 97.9 114.1 L 93.7 111.3 L 94.4 109.7 L 99.4 111.1 L 104.1 112.6 L 108.7 114.3 L 112.9 116.3 L 113.91360607147217 116.81916408538818 L 114.0 116.7 L 116.8 112.8 L 119.6 109.0 L 122.4 105.3 L 125.1 101.5 L 127.8 97.8 L 130.4 94.0 L 132.9 90.3 L 135.3 86.5 L 137.11162309646608 83.50688362121582 L 137.1 83.5 L 137.2714285850525 83.24285717010498 L 137.6 82.7 L 137.62268514633178 82.7159722328186 L 138.1 82.0 L 147.4 89.6 L 148.7 93.0 L 144.84369974136354 92.66756029129029 L 144.4 93.2 L 141.3 96.8 L 138.1 100.3 L 134.8 103.7 L 131.4 107.0 L 127.9 110.3 L 124.2 113.4 L 120.5 116.4 L 117.41220989227295 118.63864784240722 L 120.8 120.6 L 124.5 123.0 L 127.9 125.6 L 131.1 128.3 L 134.0 131.1 L 135.3 135.5 L 133.3 139.6 L 128.9 140.9 L 124.8 138.8 L 122.8 136.0 Z M 47.83040838241577 63.0 L 35.720851039886476 118.53028087615967 L 36.7 118.7 L 43.9 120.6 L 50.8 122.9 L 56.81526231765747 125.53167724609375 L 57.7 123.6 L 62.9 109.4 L 67.1 94.1 L 70.5 77.7 L 72.6 63.0 Z M 173.7168740272522 15.524770164489746 L 182.2 23.0 L 182.4 26.2 L 178.43295850753785 24.491120624542237 L 177.4 24.9 L 170.7 27.1 L 163.9 29.2 L 157.0 31.1 L 150.0 32.8 L 142.9 34.4 L 135.6 35.8 L 128.3 37.0 L 120.8 37.9 L 115.72914943695068 38.36705198287964 L 114.4346734046936 38.86130657196045 L 113.8 41.4 L 112.0 47.6 L 110.1 53.6 L 108.0 59.4 L 105.7 64.9 L 103.2 70.2 L 100.5 75.2 L 97.6 79.9 L 94.4 84.4 L 90.9 88.4 L 89.4 87.5 L 91.1 82.5 L 92.8 77.6 L 94.5 72.5 L 96.2 67.3 L 97.7 62.0 L 99.1 56.5 L 100.4 50.9 L 101.6 45.1 L 102.7 39.0 L 103.45405406951905 33.80540542602539 L 103.4 33.8 L 103.9 30.9 L 113.83152599334717 34.440804958343506 L 119.8 32.7 L 126.9 30.5 L 133.8 28.4 L 140.7 26.2 L 147.4 23.9 L 154.0 21.5 L 160.5 19.0 L 166.8 16.4 L 173.0 13.7 Z M 175.2 69.3 L 174.1 65.5 L 172.9 61.7 L 171.4 57.8 L 169.8 53.9 L 168.1 49.9 L 166.2 45.8 L 164.2 41.6 L 162.0 37.3 L 163.5 36.2 L 166.9 39.6 L 170.3 43.1 L 173.3 46.6 L 176.1 50.3 L 178.7 54.0 L 181.0 57.8 L 183.2 61.7 L 185.1 65.6 L 186.9 69.5 L 188.5 73.5 L 187.8 78.0 L 184.3 80.8 L 179.8 80.2 L 176.9 76.7 L 176.1 73.0 Z M 136.4 67.5 L 136.0 64.4 L 135.5 61.4 L 134.9 58.3 L 134.2 55.3 L 133.4 52.3 L 132.5 49.2 L 131.6 46.2 L 130.2 43.3 L 131.7 42.3 L 133.9 44.7 L 136.3 47.1 L 138.4 49.8 L 140.3 52.6 L 142.1 55.5 L 143.7 58.6 L 145.2 61.8 L 146.5 65.1 L 147.7 68.5 L 148.7 72.1 L 147.6 76.5 L 143.7 78.9 L 139.2 77.8 L 136.8 73.9 L 136.7 70.7 Z " />
</g>
</svg>
