<svg xmlns="http://www.w3.org/2000/svg" xmlns:xlink="http://www.w3.org/1999/xlink" version="1.1" baseProfile="full" viewBox="0 0 200 200" width="200" height="200">
<g fill="black">
<path d="M 51.4 147.0 L 48.9 143.0 L 46.594085693359375 139.66923494338988 L 46.4 140.2 L 40.8 152.4 L 34.6 163.5 L 27.6 173.2 L 20.0 181.6 L 11.6 188.6 L 10.4 187.3 L 17.1 179.1 L 23.3 170.1 L 28.9 160.2 L 33.9 149.2 L 38.4 137.2 L 40.013838863372804 131.91467761993408 L 40.0 131.9 L 36.5 128.6 L 32.7 125.4 L 30.276941871643068 123.52212991714478 L 28.9 132.9 L 16.1 137.0 L 27.058502864837646 63.0 L 15.1 63.0 L 15.1 59.0 L 27.65085439682007 59.0 L 34.3 14.1 L 45.8 17.8 L 48.5 20.2 L 45.2937029838562 21.24821252822876 L 39.7506516456604 59.0 L 52.3 59.0 L 58.3 54.0 L 69.3 63.0 L 64.3 66.0 L 63.69266500473022 66.25305624008179 L 62.0 79.5 L 59.1 96.4 L 55.5 112.2 L 51.3 126.8 L 50.07331218719482 130.15461559295653 L 53.2 132.9 L 56.9 136.8 L 60.4 141.1 L 63.6 145.7 L 66.5 150.7 L 66.6 155.2 L 63.6 158.7 L 59.0 158.8 L 55.6 155.8 L 53.6 151.3 Z M 105.0 182.6 L 95.0 187.6 L 95.0 129.5 L 87.4 129.5 L 87.4 169.9 L 76.4 175.4 L 76.4 121.79032258987426 L 73.7 122.4 L 73.1 120.8 L 78.3 117.5 L 83.1 114.2 L 87.4 110.7 L 91.4 107.0 L 95.0 103.1 L 98.1 98.8 L 100.9 94.3 L 103.4 89.5 L 105.5 84.3 L 106.02363634109497 82.7 L 95.875 82.7 L 94.0 85.7 L 91.8 88.8 L 89.5 91.6 L 86.9 94.3 L 84.2 96.7 L 81.3 99.0 L 78.1 100.9 L 75.0 102.9 L 73.9 101.5 L 76.2 98.8 L 78.1 95.9 L 79.9 93.0 L 81.6 90.1 L 83.0 87.3 L 84.3 84.3 L 85.4 81.4 L 86.4 78.3 L 87.2 75.3 L 87.61201848983765 73.10256805419922 L 87.6 73.1 L 87.64117650985717 72.9470588684082 L 87.8 72.1 L 87.86398763656616 72.11947450637817 L 88.19230766296387 70.9 L 70.4 70.9 L 70.4 66.9 L 104.41772155761718 66.9 L 105.90911388397217 53.2 L 90.01956520080566 53.2 L 89.9 54.0 L 77.2 58.2 L 83.8 13.4 L 95.4 17.2 L 98.1 19.6 L 94.88729066848755 20.630491638183592 L 93.87554349899293 27.4 L 108.5 27.4 L 114.5 22.4 L 125.5 31.4 L 120.5 34.4 L 119.21111106872559 34.937036991119385 L 116.4714285850525 66.9 L 119.4 66.9 L 123.9 60.9 L 129.9 66.9 L 129.9 70.9 L 89.16274509429931 70.9 L 99.3 75.6 L 101.6 78.3 L 100.10666666030883 78.7 L 106.9 78.7 L 112.9 73.7 L 123.9 82.7 L 118.9 85.7 L 116.96123781204224 86.50781755447387 L 116.0 88.8 L 112.9 94.5 L 109.4 99.8 L 105.4 104.6 L 101.1 109.0 L 96.54201679229736 112.60840339660645 L 105.0 114.3 L 107.5 116.3 L 105.0 117.96666669845581 L 105.0 125.5 L 112.6 125.5 L 118.1 120.5 L 128.6 129.5 L 123.6 133.0 L 123.6 160.9 L 123.5 163.3 L 123.1 165.7 L 122.5 167.9 L 121.5 170.1 L 120.1 172.0 L 118.3 173.7 L 116.2 174.9 L 114.0 175.8 L 111.7 176.2 L 109.4 176.4 L 109.4 170.9 L 105.0 169.36000003814698 Z M 165.3 183.1 L 157.3 187.1 L 157.3 129.5 L 148.4 129.5 L 148.4 170.1 L 138.4 175.1 L 138.4 121.6774193763733 L 135.2 122.4 L 134.6 120.8 L 139.8 117.5 L 144.5 114.2 L 148.8 110.7 L 152.8 107.0 L 156.3 103.1 L 159.4 98.8 L 162.2 94.3 L 164.6 89.5 L 166.7 84.3 L 167.1945454597473 82.7 L 157.275 82.7 L 155.4 85.7 L 153.3 88.7 L 150.9 91.6 L 148.4 94.3 L 145.7 96.7 L 142.8 98.9 L 139.6 100.9 L 136.6 102.9 L 135.4 101.5 L 137.7 98.8 L 139.6 95.9 L 141.4 93.0 L 143.0 90.2 L 144.5 87.3 L 145.7 84.3 L 146.8 81.4 L 147.8 78.4 L 148.6 75.3 L 149.0083673477173 73.12204084396362 L 148.9 73.1 L 149.1880000114441 72.16400003433228 L 149.2 72.1 L 149.2070508956909 72.10208463668823 L 149.57692308425902 70.9 L 132.0 70.9 L 132.0 66.9 L 165.6177215576172 66.9 L 167.10911388397216 53.2 L 151.5173913002014 53.2 L 151.4 54.0 L 138.6 58.2 L 145.2 13.4 L 156.8 17.2 L 159.5 19.6 L 156.2970730781555 20.627353954315186 L 155.30326089859008 27.4 L 169.7 27.4 L 175.7 22.4 L 186.7 31.4 L 181.7 34.4 L 180.31973094940184 34.97511215209961 L 177.66623373031615 66.9 L 180.4 66.9 L 184.9 60.9 L 190.9 66.9 L 190.9 70.9 L 150.58000001907348 70.9 L 160.7 75.5 L 163.0 78.3 L 161.50666666030884 78.7 L 168.1 78.7 L 174.1 73.7 L 185.1 82.7 L 180.1 85.7 L 178.16123781204223 86.50781755447387 L 177.2 88.8 L 174.1 94.5 L 170.6 99.8 L 166.7 104.6 L 162.4 108.9 L 158.0704433441162 112.49261083602906 L 165.3 114.3 L 167.3 116.3 L 165.3 117.8 L 165.3 125.5 L 174.2 125.5 L 179.2 120.5 L 189.2 129.5 L 184.2 132.5 L 184.2 163.2 L 183.9 165.4 L 183.3 167.5 L 182.5 169.5 L 181.4 171.4 L 179.9 173.0 L 178.1 174.3 L 176.0 175.2 L 173.9 175.7 L 171.7 175.9 L 171.7 170.9 L 165.3 168.9 Z M 152.6 116.1 L 147.2 118.9 L 141.4 121.0 L 140.0222222328186 121.31111106872558 L 148.4 125.5 L 157.3 125.5 L 157.3 113.05882349014283 Z M 91.2 116.1 L 85.7 118.9 L 79.9 121.0 L 78.86666669845582 121.23333330154419 L 87.4 125.5 L 95.0 125.5 L 95.0 113.64117650985717 Z M 39.16333627700806 63.0 L 30.92678804397583 119.09625434875488 L 35.5 120.8 L 40.3 123.3 L 42.27685422897339 124.50330257415771 L 42.4 124.1 L 45.7 109.9 L 48.5 94.5 L 50.7 78.0 L 52.06363639831543 63.0 Z M 154.71630430221558 31.4 L 152.1043478012085 49.2 L 167.54455699920655 49.2 L 169.4822784423828 31.4 Z M 93.27771739959717 31.4 L 90.61739130020142 49.2 L 106.34455699920655 49.2 L 108.28227844238282 31.4 Z M 105.0 129.5 L 105.0 165.4 L 109.4 165.4 L 110.3 165.3 L 111.0 165.2 L 111.8 164.8 L 112.0 164.5 L 112.2 164.0 L 112.4 163.3 L 112.6 162.2 L 112.6 129.5 Z M 165.3 129.5 L 165.3 165.9 L 171.7 165.9 L 172.4 165.8 L 172.9 165.7 L 173.1 165.6 L 173.2 165.5 L 173.4 165.4 L 173.6 165.0 L 173.8 164.4 L 174.0 163.6 L 174.2 162.4 L 174.2 129.5 Z " />
</g>
</svg>
