<svg xmlns="http://www.w3.org/2000/svg" xmlns:xlink="http://www.w3.org/1999/xlink" version="1.1" baseProfile="full" viewBox="0 0 200 200" width="200" height="200">
<g fill="black">
<path d="M 62.8 151.2 L 59.2 146.7 L 55.3 142.4 L 54.25443935394287 141.37875471115112 L 47.3 153.4 L 39.4 164.0 L 30.6 173.2 L 20.9 180.8 L 10.4 186.7 L 9.5 185.2 L 18.6 177.8 L 26.8 169.4 L 34.2 160.0 L 40.8 149.4 L 46.6 137.6 L 47.549044609069824 135.13248405456542 L 46.5 134.2 L 41.6 130.4 L 36.4 126.6 L 30.9 122.9 L 28.24120635986328 121.2038730621338 L 27.2 125.1 L 23.9 136.6 L 12.4 133.3 L 15.6 121.9 L 18.7 110.5 L 24.5 87.3 L 29.7 63.9 L 30.08319330215454 62.0 L 9.9 62.0 L 9.9 58.0 L 30.889915943145752 58.0 L 32.1 52.0 L 34.4 40.1 L 36.6 28.1 L 38.6 16.0 L 38.63263854980469 16.00521116256714 L 38.9 14.0 L 50.5 17.9 L 53.1 20.4 L 49.85226936340332 21.66300630569458 L 48.4 30.1 L 46.2 42.3 L 43.9 54.4 L 43.14369745254517 58.0 L 63.4 58.0 L 69.4 53.0 L 80.4 62.0 L 75.4 65.0 L 74.7932583808899 65.25280895233155 L 73.0 79.3 L 69.6 96.8 L 65.4 113.0 L 60.3 127.8 L 58.03333330154419 132.9 L 61.5 135.5 L 66.4 139.7 L 71.0 144.2 L 75.2 149.0 L 79.2 154.2 L 80.0 158.7 L 77.5 162.5 L 73.0 163.3 L 69.1 160.7 L 66.1 155.9 Z M 72.0 175.0 L 125.0 175.0 L 125.0 153.0 L 84.0 153.0 L 84.0 149.0 L 125.0 149.0 L 125.0 129.0 L 102.0 129.0 L 102.0 132.0 L 90.0 138.0 L 90.0 76.0 L 102.0 82.0 L 158.0 82.0 L 164.0 77.0 L 175.0 86.0 L 170.0 90.0 L 170.0 131.0 L 158.0 137.0 L 158.0 129.0 L 137.0 129.0 L 137.0 149.0 L 153.0 149.0 L 163.0 139.0 L 175.0 149.0 L 175.0 153.0 L 137.0 153.0 L 137.0 175.0 L 165.0 175.0 L 175.0 165.0 L 187.0 175.0 L 187.0 179.0 L 72.0 179.0 Z M 42.303361320495604 62.0 L 41.4 66.3 L 38.8 78.3 L 36.1 90.1 L 33.3 101.8 L 30.3 113.5 L 28.981006145477295 118.43559007644653 L 32.6 119.5 L 39.0 121.9 L 45.1 124.8 L 50.38246393203735 127.76559381484985 L 51.6 124.6 L 55.8 110.3 L 59.1 94.6 L 61.7 77.7 L 63.15846996307373 62.0 Z M 102.0 107.0 L 102.0 125.0 L 125.0 125.0 L 125.0 107.0 Z M 137.0 107.0 L 137.0 125.0 L 158.0 125.0 L 158.0 107.0 Z M 102.0 86.0 L 102.0 103.0 L 125.0 103.0 L 125.0 86.0 Z M 137.0 86.0 L 137.0 103.0 L 158.0 103.0 L 158.0 86.0 Z M 161.0 46.3 L 163.0 49.3 L 158.25400409698486 49.95462017059326 L 156.7 51.8 L 154.9 53.8 L 153.0 56.0 L 150.9 58.2 L 148.6 60.6 L 146.1 63.1 L 143.3 65.6 L 142.9413793563843 66.0 L 167.8181818008423 66.0 L 176.0 57.0 L 186.0 66.0 L 186.0 70.0 L 80.0 70.0 L 80.0 66.0 L 140.0484848022461 66.0 L 141.2 64.1 L 142.8 60.7 L 144.2 57.5 L 145.5 54.6 L 146.7 51.9 L 147.7 49.4 L 148.6 47.0 L 149.2 44.9 L 149.7 43.1 L 149.87376260757446 42.36150884628296 L 149.7 42.3 L 150.6 40.2 Z M 106.9 58.2 L 106.5 56.3 L 106.0 54.4 L 105.4 52.4 L 103.8 48.4 L 102.8 46.3 L 101.7 44.1 L 100.1 42.3 L 101.3 41.0 L 103.3 42.5 L 105.5 43.8 L 107.6 45.2 L 109.6 46.7 L 111.4 48.4 L 113.2 50.2 L 114.8 52.0 L 116.2 54.0 L 117.6 56.1 L 118.8 58.3 L 118.3 62.9 L 114.8 65.8 L 110.3 65.3 L 107.3 61.8 L 107.2 60.0 Z M 84.0 36.0 L 124.0 36.0 L 124.0 13.0 L 136.0 15.0 L 139.0 17.0 L 136.0 18.8 L 136.0 36.0 L 156.0 36.0 L 166.0 26.0 L 178.0 36.0 L 178.0 40.0 L 84.0 40.0 Z " />
</g>
</svg>
