<svg xmlns="http://www.w3.org/2000/svg" xmlns:xlink="http://www.w3.org/1999/xlink" version="1.1" baseProfile="full" viewBox="0 0 200 200" width="200" height="200">
<g fill="black">
<path d="M 62.5 160.0 L 78.7 160.0 L 88.7 150.0 L 100.7 160.0 L 100.7 164.0 L 62.5 164.0 L 62.5 184.5 L 52.5 189.5 L 52.5 164.0 L 15.4 164.0 L 15.4 160.0 L 52.5 160.0 L 52.5 142.0 L 19.7 142.0 L 19.7 138.0 L 33.6 138.0 L 33.6 112.0 L 12.7 112.0 L 12.7 108.0 L 33.6 108.0 L 33.6 92.1 L 21.8 98.0 L 21.8 18.0 L 33.8 24.0 L 80.7 24.0 L 86.7 19.0 L 97.7 28.0 L 92.7 32.0 L 92.7 86.0 L 81.4 91.65 L 81.4 108.0 L 84.11818180084228 108.0 L 92.3 99.0 L 102.3 108.0 L 102.3 112.0 L 81.4 112.0 L 81.4 138.0 L 85.3 138.0 L 89.8 132.0 L 95.8 138.0 L 95.8 142.0 L 62.5 142.0 Z M 158.7 181.2 L 149.7 176.8 L 141.7 171.8 L 139.21945962905883 169.91339178085326 L 135.1 172.9 L 126.2 177.8 L 116.3 182.1 L 105.6 185.4 L 94.0 187.9 L 93.5 186.2 L 104.4 181.8 L 114.2 177.1 L 123.0 172.1 L 130.7 166.6 L 132.8801796913147 164.70837345123292 L 128.5 160.4 L 123.5 153.9 L 119.6 147.0 L 117.0 139.6 L 116.21904764175414 135.30476188659668 L 116.1 135.4 L 111.3 138.9 L 106.1 142.0 L 100.6 144.7 L 99.5 143.2 L 103.8 138.9 L 107.8 134.8 L 111.6 130.6 L 115.1 126.5 L 118.3 122.3 L 121.3 118.1 L 123.9 113.7 L 126.3 109.4 L 128.4 104.9 L 129.72712268829346 101.30896224975587 L 129.7 101.3 L 129.86279067993163 100.9418604850769 L 130.1 100.3 L 130.14558525085448 100.31971254348755 L 130.7 99.1 L 141.2 105.1 L 143.1 108.1 L 139.2967212677002 108.62459020614624 L 138.5 110.1 L 135.5 114.8 L 132.2 119.4 L 128.7 123.7 L 128.6048780441284 123.8 L 166.3 123.8 L 176.3 113.8 L 188.3 123.8 L 188.3 127.8 L 168.7021276473999 127.8 L 165.8 136.6 L 161.6 145.3 L 156.4 153.3 L 150.3 160.6 L 147.3069239616394 163.30208253860474 L 154.6 166.9 L 163.1 170.3 L 172.4 173.2 L 182.7 175.8 L 191.2 177.9 L 179.4 188.6 L 168.6 185.2 Z M 124.8 127.8 L 120.6 131.8 L 118.45466375350952 133.51626901626588 L 120.8 138.0 L 124.7 144.0 L 129.2 149.5 L 134.4 154.4 L 139.58109636306762 158.43949880599976 L 143.3 154.4 L 148.1 147.6 L 152.0 140.4 L 155.1 132.7 L 156.3397590637207 127.8 Z M 44.6 112.0 L 44.6 138.0 L 52.5 138.0 L 52.5 112.0 Z M 62.5 112.0 L 62.5 138.0 L 70.4 138.0 L 70.4 112.0 Z M 44.6 80.0 L 44.6 108.0 L 52.5 108.0 L 52.5 80.0 Z M 62.5 80.0 L 62.5 108.0 L 70.4 108.0 L 70.4 80.0 Z M 163.8 90.9 L 159.5 87.5 L 155.0 84.2 L 150.80586500167846 81.43365564346314 L 150.3 81.9 L 142.9 87.0 L 134.5 91.1 L 125.1 94.4 L 114.7 96.7 L 103.3 98.1 L 103.0 96.3 L 113.8 93.0 L 123.3 89.3 L 131.7 85.2 L 138.8 80.6 L 143.1292568206787 76.93113832473755 L 140.1 75.3 L 134.6 72.6 L 128.9 69.9 L 126.87207612991332 68.97196702957153 L 125.9 71.2 L 112.5 71.9 L 124.02487306594848 45.5 L 98.4 45.5 L 98.4 41.5 L 125.77106599807739 41.5 L 138.3 12.8 L 148.5 19.4 L 150.5 22.5 L 146.8528158187866 23.175404453277586 L 138.857915019989 41.5 L 167.5 41.5 L 177.5 31.5 L 189.5 41.5 L 189.5 45.5 L 169.82282609939574 45.5 L 168.6 53.0 L 165.8 61.5 L 161.8 69.2 L 157.3744966506958 75.10067110061645 L 159.7 76.2 L 165.1 79.1 L 170.2 82.2 L 175.1 85.7 L 179.7 89.4 L 181.6 93.5 L 180.1 97.8 L 175.9 99.7 L 171.6 98.2 L 167.8 94.4 Z M 33.8 54.0 L 33.8 76.0 L 52.5 76.0 L 52.5 54.0 Z M 62.5 54.0 L 62.5 76.0 L 80.7 76.0 L 80.7 54.0 Z M 137.11274127960206 45.5 L 128.14802055358888 66.04745731353759 L 130.0 66.3 L 136.4 67.5 L 142.5 69.2 L 148.46378831863404 71.28732585906982 L 149.5 70.1 L 153.1 64.1 L 155.8 57.7 L 157.4 50.7 L 157.8333333015442 45.5 Z M 33.8 28.0 L 33.8 50.0 L 52.5 50.0 L 52.5 28.0 Z M 62.5 28.0 L 62.5 50.0 L 80.7 50.0 L 80.7 28.0 Z " />
</g>
</svg>
