<svg xmlns="http://www.w3.org/2000/svg" xmlns:xlink="http://www.w3.org/1999/xlink" version="1.1" baseProfile="full" viewBox="0 0 200 200" width="200" height="200">
<g fill="black">
<path d="M 110.6 115.6 L 160.6 115.6 L 166.6 110.6 L 177.6 119.6 L 172.6 123.6 L 172.6 181.4 L 160.6 187.4 L 160.6 177.4 L 110.6 177.4 L 110.6 184.4 L 98.6 190.4 L 98.6 109.6 Z M 63.5 147.7 L 60.1 143.6 L 56.3 139.6 L 54.60227108001709 138.06395950317383 L 53.4 140.6 L 46.2 152.8 L 38.1 163.8 L 29.1 173.5 L 19.2 181.8 L 8.5 188.7 L 7.5 187.2 L 16.7 178.9 L 25.2 169.8 L 32.8 159.8 L 39.7 148.8 L 45.8 136.8 L 47.672330665588376 132.25786457061767 L 47.6 132.2 L 42.7 128.8 L 37.4 125.5 L 31.81782522201538 122.36614751815796 L 29.7 133.2 L 16.8 136.7 L 31.19218873977661 63.0 L 13.4 63.0 L 13.4 59.0 L 31.973311614990234 59.0 L 40.8 13.8 L 52.2 18.1 L 54.7 20.6 L 51.52002420425415 21.578454113006593 L 44.20477848052978 59.0 L 64.7 59.0 L 70.7 54.0 L 81.7 63.0 L 76.7 66.0 L 75.83744449615479 66.35939807891846 L 73.7 79.7 L 69.9 96.7 L 65.3 112.5 L 59.8 127.1 L 58.4640172958374 129.91808853149413 L 62.3 132.5 L 67.1 136.4 L 71.6 140.6 L 75.7 145.3 L 79.5 150.2 L 80.2 154.7 L 77.6 158.5 L 73.1 159.2 L 69.3 156.6 L 66.6 152.1 Z M 110.6 147.6 L 110.6 173.4 L 160.6 173.4 L 160.6 147.6 Z M 110.6 119.6 L 110.6 143.6 L 160.6 143.6 L 160.6 119.6 Z M 43.42284965515137 63.0 L 32.5372633934021 118.68582153320312 L 33.1 118.8 L 39.6 120.6 L 45.8 123.0 L 50.54441270828247 125.29040613174439 L 51.2 123.7 L 55.7 109.5 L 59.5 94.2 L 62.5 77.8 L 64.36057138442993 63.0 Z M 169.2 104.9 L 164.5 100.5 L 160.1 95.8 L 155.9 90.8 L 152.0 85.4 L 148.4 79.7 L 145.0 73.6 L 142.1 67.1 L 141.6 65.73999996185303 L 141.6 106.0 L 129.6 112.0 L 129.6 74.88095235824585 L 129.4 75.2 L 124.8 81.5 L 119.9 87.4 L 114.6 93.0 L 109.0 98.3 L 103.0 103.1 L 96.7 107.5 L 90.0 111.4 L 83.0 114.7 L 82.0 113.2 L 87.9 108.2 L 93.4 103.2 L 98.7 98.1 L 103.6 92.8 L 108.3 87.4 L 112.6 81.7 L 116.6 75.7 L 120.3 69.5 L 123.6 63.1 L 124.52195119857788 61.0 L 83.4 61.0 L 83.4 57.0 L 129.6 57.0 L 129.6 35.745678997039796 L 124.9 36.5 L 116.4 37.5 L 107.7 38.3 L 98.8 38.8 L 89.6 38.8 L 89.4 37.1 L 98.3 35.0 L 106.9 33.0 L 115.3 31.0 L 123.4 29.0 L 131.1 26.9 L 138.6 24.7 L 145.8 22.4 L 152.7 20.0 L 159.2 17.4 L 165.5 14.7 L 166.2168740272522 16.524770164489745 L 174.7 24.0 L 174.9 27.2 L 170.93295850753785 25.491120624542237 L 169.9 25.9 L 163.0 28.1 L 155.9 30.2 L 148.5 32.0 L 141.6 33.54342107772827 L 141.6 57.0 L 165.8 57.0 L 175.8 47.0 L 187.8 57.0 L 187.8 61.0 L 142.48571424484254 61.0 L 145.7 65.0 L 150.0 70.4 L 154.2 75.5 L 158.5 80.2 L 162.9 84.6 L 167.3 88.6 L 171.8 92.3 L 176.4 95.6 L 181.1 98.6 L 185.9 101.3 L 190.3 103.9 L 179.2 112.6 L 174.0 108.9 Z " />
</g>
</svg>
