<svg xmlns="http://www.w3.org/2000/svg" xmlns:xlink="http://www.w3.org/1999/xlink" version="1.1" baseProfile="full" viewBox="0 0 200 200" width="200" height="200">
<g fill="black">
<path d="M 59.3 147.5 L 56.2 143.4 L 52.8 139.4 L 51.915625 138.515625 L 51.1 140.4 L 44.4 152.7 L 37.0 163.7 L 28.7 173.4 L 19.7 181.8 L 9.8 188.7 L 8.7 187.2 L 17.1 179.0 L 24.7 169.9 L 31.6 160.0 L 37.8 149.0 L 43.3 137.0 L 45.072193241119386 132.16338920593262 L 45.0 132.1 L 40.6 128.8 L 35.9 125.5 L 31.436229133605956 122.69920253753662 L 29.6 133.0 L 16.7 136.9 L 29.85780487060547 63.0 L 14.2 63.0 L 14.2 59.0 L 30.569999980926514 59.0 L 38.6 13.9 L 50.1 18.0 L 52.7 20.5 L 49.481125354766846 21.471735763549805 L 42.79130430221558 59.0 L 60.3 59.0 L 66.3 54.0 L 77.3 63.0 L 72.3 66.0 L 71.60014724731445 66.29160528182983 L 69.6 79.7 L 66.2 96.6 L 61.9 112.4 L 56.9 127.0 L 55.60321807861328 129.99601345062257 L 59.1 132.6 L 63.6 136.5 L 67.7 140.8 L 71.5 145.4 L 74.9 150.4 L 75.5 154.9 L 72.7 158.6 L 68.2 159.1 L 64.5 156.3 L 62.1 151.8 Z M 150.7 127.9 L 150.37882356643678 130.0 L 165.8 130.0 L 175.8 120.0 L 187.8 130.0 L 187.8 134.0 L 149.76705884933472 134.0 L 149.59513912200927 135.12409048080445 L 150.8 137.7 L 153.8 143.4 L 156.9 148.8 L 160.2 153.7 L 163.8 158.1 L 167.7 162.2 L 171.9 165.9 L 176.5 169.2 L 181.3 172.1 L 186.5 174.7 L 191.7 177.4 L 180.4 186.4 L 174.6 182.7 L 169.3 178.6 L 164.4 174.0 L 160.1 169.0 L 156.3 163.7 L 153.1 158.0 L 150.4 152.0 L 148.3 145.6 L 147.74285717010497 143.11142854690553 L 147.4 144.5 L 144.6 152.1 L 141.0 159.1 L 136.7 165.6 L 131.7 171.5 L 126.0 176.8 L 119.6 181.4 L 112.5 185.3 L 104.7 188.5 L 103.9 186.9 L 110.5 182.1 L 116.3 177.2 L 121.5 172.0 L 125.9 166.6 L 129.7 160.9 L 132.8 154.9 L 135.2 148.5 L 137.0 141.8 L 138.2 134.6 L 138.23999996185302 134.0 L 104.8 134.0 L 104.8 130.0 L 138.50666666030884 130.0 L 138.7 127.1 L 138.7 99.7 L 127.39230766296387 99.7 L 127.2 100.2 L 124.9 105.3 L 122.4 110.1 L 119.7 114.8 L 116.7 119.3 L 113.5 123.5 L 109.9 127.3 L 108.4 126.3 L 112.0 116.7 L 113.8 112.0 L 117.0 102.2 L 118.4 97.2 L 119.6 92.1 L 120.7 86.9 L 121.6 81.6 L 122.25109491348266 77.20510950088502 L 122.2 77.2 L 122.38260869979858 76.31739130020142 L 122.4 76.2 L 122.40664043426514 76.20123805999756 L 122.8 74.3 L 134.2 78.4 L 136.8 80.9 L 133.2643316268921 82.20950679779052 L 132.8 84.1 L 131.1 89.6 L 129.2 95.0 L 128.9307692527771 95.7 L 157.7 95.7 L 167.7 85.7 L 179.7 95.7 L 179.7 99.7 L 150.7 99.7 L 150.7 127.5 L 150.44468088150023 127.88297872543335 Z M 104.5 127.4 L 104.49436616897583 127.40845069885253 L 104.3 134.6 L 103.7 141.8 L 102.6 148.6 L 101.2 155.2 L 99.3 161.5 L 97.0 167.5 L 94.3 173.2 L 91.1 178.5 L 87.5 183.4 L 83.3 187.8 L 81.8 186.8 L 84.2 181.4 L 86.4 176.1 L 88.2 170.6 L 89.8 165.1 L 91.1 159.3 L 92.1 153.4 L 92.7 147.3 L 93.0 141.0 L 92.9 134.4 L 92.82419242858887 133.1302225112915 L 92.4 133.8 L 90.5 136.4 L 88.7 138.9 L 86.9 141.2 L 85.1 143.3 L 83.4 145.3 L 82.01989250183105 146.76129035949708 L 81.6 151.8 L 78.4 150.2 L 70.8 140.7 L 72.5 139.8 L 74.1 139.3 L 75.8 138.6 L 77.7 137.8 L 79.8 136.8 L 82.0 135.5 L 84.4 134.2 L 86.9 132.6 L 89.6 130.9 L 92.5 129.1 L 92.5795371055603 129.0322462081909 L 92.5 127.7 L 92.69459457397461 127.69189186096192 L 92.5 127.4 L 92.5 108.61142854690551 L 90.1 110.6 L 85.6 110.1 L 82.6 106.6 L 82.4 104.8 L 82.1 102.8 L 81.7 100.8 L 81.1 98.6 L 80.4 96.5 L 79.5 94.2 L 78.6 91.8 L 77.5 89.4 L 76.3 86.8 L 74.6 84.5 L 75.9 83.3 L 78.1 85.2 L 80.5 86.9 L 82.7 88.7 L 84.7 90.6 L 86.6 92.6 L 88.4 94.6 L 90.0 96.6 L 91.5 98.7 L 92.5 100.27142858505249 L 92.5 62.9 L 104.5 68.9 L 135.1 68.9 L 135.1 44.4 L 143.1 45.73333330154419 L 143.1 31.3 L 117.8 31.3 L 117.8 42.0 L 105.8 48.0 L 105.8 31.3 L 72.6 31.3 L 72.6 27.3 L 105.8 27.3 L 105.8 12.1 L 117.8 14.1 L 120.8 16.1 L 117.8 17.9 L 117.8 27.3 L 143.1 27.3 L 143.1 12.1 L 155.1 14.1 L 158.1 16.1 L 155.1 17.9 L 155.1 27.3 L 166.3 27.3 L 176.3 17.3 L 188.3 27.3 L 188.3 31.3 L 155.1 31.3 L 155.1 42.0 L 146.5 46.3 L 147.1 46.4 L 150.1 48.4 L 147.1 50.2 L 147.1 68.9 L 167.0 68.9 L 177.0 58.9 L 189.0 68.9 L 189.0 72.9 L 104.5 72.9 Z M 42.07826089859009 63.0 L 32.137732315063474 118.76394052505493 L 32.3 118.8 L 38.3 120.7 L 43.9 123.1 L 47.675766181945804 125.0578046798706 L 48.1 123.9 L 52.3 109.7 L 55.7 94.3 L 58.4 77.9 L 60.09318180084229 63.0 Z " />
</g>
</svg>
