<svg xmlns="http://www.w3.org/2000/svg" xmlns:xlink="http://www.w3.org/1999/xlink" version="1.1" baseProfile="full" viewBox="0 0 200 200" width="200" height="200">
<g fill="black">
<path d="M 121.9 97.8 L 124.3 100.5 L 120.51386861801147 101.49635038375854 L 120.1 102.6 L 118.1 107.3 L 117.57391300201417 108.4 L 159.8 108.4 L 169.8 98.4 L 181.8 108.4 L 181.8 112.4 L 145.5 112.4 L 145.5 142.8 L 167.7 142.8 L 177.7 132.8 L 189.7 142.8 L 189.7 146.8 L 145.5 146.8 L 145.5 186.5 L 133.5 192.5 L 133.5 146.8 L 89.8 146.8 L 89.8 142.8 L 133.5 142.8 L 133.5 112.4 L 115.63863639831543 112.4 L 113.6 116.3 L 111.1 120.6 L 108.4 124.7 L 105.5 128.6 L 102.4 132.4 L 99.0 135.9 L 95.4 139.2 L 94.0 138.1 L 98.0 129.5 L 100.0 125.3 L 101.8 121.1 L 103.6 116.8 L 105.2 112.4 L 106.7 108.0 L 108.1 103.6 L 109.3 99.0 L 110.15804634094238 95.41180601119996 L 110.1 95.4 L 110.3731707572937 94.51219511032104 L 110.4 94.4 L 110.40705089569092 94.40208463668823 L 110.9 92.8 Z M 47.83040838241577 63.0 L 35.720851039886476 118.53028087615967 L 36.7 118.7 L 43.9 120.6 L 50.8 122.9 L 56.81526231765747 125.53167724609375 L 57.7 123.6 L 62.9 109.4 L 67.1 94.1 L 70.5 77.7 L 72.6 63.0 Z M 129.8 14.4 L 132.6 16.4 L 129.8 18.15 L 129.8 39.3 L 129.1 48.3 L 128.66324663162231 50.95171699523926 L 132.8 49.9 L 139.1 48.3 L 139.8 50.0 L 134.3 53.4 L 128.9 56.4 L 127.61059370040894 57.09429569244385 L 125.3 64.7 L 122.2 72.1 L 118.3 78.9 L 113.6 85.1 L 108.1 90.6 L 101.8 95.4 L 94.9 99.4 L 87.2 102.7 L 86.4 101.2 L 93.0 96.5 L 98.8 91.5 L 103.8 86.3 L 108.1 80.8 L 111.6 74.9 L 114.4 68.7 L 116.31532354354859 62.866969394683835 L 114.0 64.0 L 109.5 66.2 L 105.3 68.2 L 101.2 70.0 L 97.78737859725952 71.66019420623779 L 96.8 75.5 L 94.0 73.3 L 88.7380618095398 63.757162952423094 L 85.0 66.0 L 84.0762845993042 66.38488140106202 L 81.7 79.9 L 77.5 96.8 L 72.4 112.7 L 66.2 127.3 L 64.89137620925904 129.80507974624635 L 69.0 132.4 L 74.4 136.2 L 79.4 140.5 L 83.9 145.1 L 88.1 150.0 L 89.1 154.5 L 86.7 158.4 L 82.2 159.3 L 78.3 156.9 L 75.2 152.4 L 71.7 148.0 L 67.8 143.8 L 63.4 139.8 L 60.777695941925046 137.67983922958373 L 59.2 140.7 L 51.1 153.0 L 42.1 163.9 L 32.2 173.6 L 21.2 181.9 L 9.4 188.7 L 8.5 187.2 L 18.9 178.9 L 28.5 169.7 L 37.1 159.7 L 44.9 148.7 L 51.7 136.7 L 53.66235609054566 132.41552257537842 L 53.5 132.3 L 47.9 128.9 L 41.9 125.6 L 35.5 122.3 L 34.954739284515384 122.0434066772461 L 32.5 133.3 L 19.4 136.6 L 35.509357166290286 63.0 L 15.0 63.0 L 15.0 59.0 L 36.38486576080322 59.0 L 46.3 13.7 L 57.6 18.2 L 60.1 20.8 L 56.8312747001648 21.725110912322997 L 48.70269327163696 59.0 L 73.0 59.0 L 79.0 54.0 L 89.11814346313477 62.278481006622314 L 90.0 62.0 L 93.7 61.0 L 95.2 60.615384578704834 L 95.2 19.5 L 106.2 21.5 L 109.0 23.5 L 106.2 25.25 L 106.2 57.5 L 110.9 56.1 L 115.9 54.6 L 118.10158081054688 53.947679710388186 L 118.8 47.4 L 118.8 12.4 Z M 172.8 86.6 L 167.2 81.2 L 162.1 75.1 L 159.02475843429565 70.52130699157715 L 158.0 71.6 L 151.8 76.8 L 145.1 81.3 L 137.8 84.9 L 130.1 87.6 L 129.4 85.9 L 136.0 81.6 L 142.0 76.9 L 147.5 71.9 L 152.5 66.4 L 154.85202112197877 63.316238975524904 L 153.6 61.0 L 150.2 53.0 L 147.3 44.4 L 145.1 35.2 L 143.72121210098265 26.1 L 135.8 26.1 L 135.8 22.1 L 172.2 22.1 L 178.2 17.1 L 189.2 26.1 L 184.2 29.1 L 182.66459627151488 29.739751529693603 L 181.0 34.9 L 177.5 43.5 L 173.5 51.6 L 168.8 59.0 L 165.47425088882446 63.303910636901854 L 170.0 68.6 L 174.9 73.3 L 180.1 77.4 L 185.5 80.7 L 191.3 83.5 L 197.0 86.2 L 185.6 95.4 L 178.9 91.4 Z M 145.88791208267213 26.1 L 149.1 34.0 L 152.8 42.4 L 156.7 50.0 L 160.0622950553894 55.52377052307129 L 161.0 54.0 L 164.5 47.0 L 167.6 39.5 L 170.2 31.4 L 171.47931032180787 26.1 Z " />
</g>
</svg>
