<svg xmlns="http://www.w3.org/2000/svg" xmlns:xlink="http://www.w3.org/1999/xlink" version="1.1" baseProfile="full" viewBox="0 0 200 200" width="200" height="200">
<g fill="black">
<path d="M 42.0 81.0 L 162.0 81.0 L 172.0 71.0 L 184.0 81.0 L 184.0 85.0 L 42.0 85.0 L 42.0 116.0 L 41.4 125.4 L 40.3 134.5 L 38.7 143.1 L 36.6 151.2 L 34.0 158.8 L 30.8 165.9 L 27.1 172.5 L 22.8 178.5 L 18.0 183.9 L 12.6 188.6 L 11.3 187.3 L 15.0 181.6 L 18.3 175.6 L 21.3 169.4 L 23.8 162.9 L 25.9 156.1 L 27.6 148.9 L 28.8 141.3 L 29.7 133.3 L 30.0 124.8 L 30.0 75.0 Z M 148.1 177.3 L 141.2 173.3 L 133.9 169.4 L 126.2 165.8 L 124.98038377761841 165.28166313171386 L 122.7 166.9 L 111.9 172.5 L 99.5 177.1 L 85.5 180.8 L 69.9 183.5 L 52.7 185.2 L 52.5 183.4 L 69.2 179.8 L 84.1 175.6 L 97.3 170.9 L 108.6 165.6 L 115.54792060852051 161.35811166763307 L 109.8 159.1 L 101.1 156.0 L 92.0 153.0 L 86.34483156204223 151.2141573905945 L 80.7 160.8 L 67.3 159.9 L 87.69273738861084 125.3 L 45.3 125.3 L 45.3 121.3 L 90.05027933120728 121.3 L 109.5 88.3 L 118.8 96.1 L 120.4 99.4 L 116.56389331817627 99.89727306365967 L 103.96043272018433 121.3 L 162.6 121.3 L 172.6 111.3 L 184.6 121.3 L 184.6 125.3 L 151.4 125.3 L 149.6 134.3 L 145.5 144.0 L 139.6 152.7 L 133.04601774215698 159.253982257843 L 137.6 160.9 L 145.6 164.3 L 153.3 167.9 L 160.7 171.8 L 167.7 176.0 L 170.2 179.9 L 169.3 184.4 L 165.4 186.8 L 160.9 185.9 L 154.7 181.5 Z M 101.60494594573974 125.3 L 87.7992262840271 148.74435844421387 L 92.8 149.3 L 102.4 150.8 L 111.7 152.9 L 120.7 155.2 L 122.82986946105957 155.86867990493775 L 125.8 153.4 L 131.7 146.5 L 135.9 139.2 L 138.6 131.3 L 139.35 125.3 Z M 123.6 72.8 L 117.8 69.8 L 111.5 66.8 L 106.94864044189453 64.71937847137451 L 106.5 64.9 L 98.3 68.2 L 89.4 71.4 L 80.0 74.6 L 70.0 77.8 L 59.3 80.8 L 58.6 79.1 L 68.6 74.2 L 78.0 69.6 L 86.9 65.3 L 95.2 61.2 L 96.86698999404908 60.34513339996338 L 89.0 57.1 L 80.4 53.6 L 71.3 50.0 L 61.7 46.1 L 62.2 44.4 L 72.4 46.3 L 82.0 48.5 L 91.1 50.8 L 99.6 53.2 L 106.43332633972167 55.36244506835938 L 110.1 53.4 L 116.7 49.7 L 122.7 46.1 L 128.1 42.7 L 132.0094274520874 40.01226863861084 L 132.0 40.0 L 132.0107325553894 40.01137142181396 L 132.02727270126343 40.0 L 32.0 40.0 L 32.0 36.0 L 94.0 36.0 L 94.0 12.0 L 106.0 14.0 L 109.0 16.0 L 106.0 17.8 L 106.0 36.0 L 152.0 36.0 L 162.0 26.0 L 174.0 36.0 L 174.0 40.0 L 133.28019800186158 40.0 L 135.89569587707518 44.127582454681395 L 140.4 48.9 L 140.5 52.4 L 136.87580642700195 50.84677419662476 L 133.9 52.5 L 127.9 55.6 L 121.3 58.6 L 119.0806884765625 59.600253105163574 L 121.8 60.6 L 128.2 63.2 L 134.0 65.7 L 139.3 68.3 L 142.1 71.9 L 141.5 76.4 L 137.9 79.2 L 133.4 78.6 L 128.8 75.8 Z " />
</g>
</svg>
