<svg xmlns="http://www.w3.org/2000/svg" xmlns:xlink="http://www.w3.org/1999/xlink" version="1.1" baseProfile="full" viewBox="0 0 200 200" width="200" height="200">
<g fill="black">
<path d="M 159.9 178.4 L 155.6 174.5 L 151.2 170.9 L 147.291819190979 167.989652633667 L 147.0 168.3 L 139.7 174.1 L 131.3 178.9 L 121.9 182.7 L 111.6 185.5 L 100.2 187.2 L 99.9 185.4 L 110.5 181.8 L 119.9 177.7 L 128.1 173.1 L 135.1 168.0 L 140.1423906326294 163.21400213241577 L 136.5 161.0 L 131.1 158.0 L 125.5 155.0 L 123.55834884643555 154.0127197265625 L 122.8 156.0 L 109.4 157.3 L 120.86525678634644 127.3 L 95.3 127.3 L 95.3 123.3 L 122.39395771026611 123.3 L 134.7 91.1 L 145.2 97.3 L 147.3 100.2 L 143.7962357521057 100.97861423492432 L 135.2783645629883 123.3 L 163.6 123.3 L 173.6 113.3 L 185.6 123.3 L 185.6 127.3 L 166.15 127.3 L 164.9 135.8 L 162.2 145.3 L 158.3 153.9 L 153.37000865936278 161.49218673706054 L 156.4 163.2 L 161.7 166.5 L 166.8 170.2 L 171.7 174.1 L 176.4 178.4 L 177.9 182.7 L 176.1 186.9 L 171.8 188.4 L 167.6 186.6 L 163.9 182.4 Z M 12.9 188.4 L 10.6 184.4 L 11.6 180.0 L 13.4 178.0 L 15.0 175.6 L 16.6 172.9 L 18.1 169.9 L 19.5 166.4 L 20.7 162.6 L 21.9 158.5 L 23.0 154.0 L 24.0 149.1 L 24.8 144.0 L 26.6 144.0 L 27.2 149.3 L 27.7 154.4 L 27.9 159.2 L 27.7 163.9 L 27.3 168.3 L 26.7 172.5 L 25.7 176.4 L 24.5 180.2 L 23.1 183.8 L 21.3 187.1 L 17.3 189.4 Z M 61.3 168.6 L 60.9 166.0 L 60.3 163.3 L 59.5 160.7 L 58.5 158.1 L 57.3 155.4 L 56.0 152.6 L 54.5 149.8 L 52.5 147.3 L 53.7 146.0 L 56.4 148.0 L 59.2 150.0 L 61.7 152.1 L 64.0 154.5 L 66.1 157.1 L 68.0 159.8 L 69.7 162.6 L 71.2 165.6 L 72.5 168.8 L 73.5 172.1 L 72.4 176.5 L 68.5 178.9 L 64.1 177.8 L 61.6 173.9 L 61.6 171.2 Z M 43.8 182.9 L 39.8 180.7 L 38.5 176.3 L 39.1 174.1 L 39.5 171.7 L 39.8 169.2 L 39.9 166.6 L 39.9 163.7 L 39.7 160.7 L 39.4 157.6 L 38.9 154.3 L 38.3 150.7 L 37.3 147.2 L 38.9 146.5 L 40.8 149.7 L 42.8 152.8 L 44.6 155.9 L 46.1 159.0 L 47.3 162.1 L 48.4 165.3 L 49.2 168.4 L 49.9 171.5 L 50.3 174.6 L 50.4 177.7 L 48.1 181.6 Z M 82.9 164.1 L 82.0 161.6 L 81.0 159.2 L 79.8 156.8 L 78.4 154.4 L 76.9 152.0 L 75.2 149.7 L 73.4 147.3 L 71.1 145.3 L 72.1 143.7 L 74.9 145.2 L 77.8 146.5 L 80.6 148.1 L 83.2 150.0 L 85.6 152.0 L 87.9 154.2 L 90.1 156.7 L 92.1 159.3 L 93.9 162.1 L 95.6 165.0 L 95.4 169.6 L 92.1 172.8 L 87.5 172.6 L 84.4 169.3 L 83.7 166.7 Z M 133.7519591331482 127.3 L 124.68360919952393 151.06393489837646 L 126.7 151.4 L 133.1 153.0 L 139.2 155.0 L 144.83814182281495 157.25525674819946 L 145.7 156.1 L 149.4 149.4 L 152.0 141.9 L 153.7 133.8 L 154.15882349014282 127.3 Z M 21.6 138.0 L 21.6 64.8615385055542 L 20.4 66.4 L 16.2 71.2 L 11.7 75.5 L 10.3 74.4 L 13.1 68.9 L 15.9 63.5 L 21.5 52.3 L 24.2 46.4 L 26.8 40.5 L 29.3 34.3 L 31.7 28.0 L 34.1 21.5 L 35.9657380104065 15.817979621887208 L 35.9 15.8 L 36.8 13.4 L 47.6 19.0 L 49.7 21.9 L 45.980051612854005 22.617884826660156 L 44.6 25.7 L 41.6 32.2 L 41.193650817871095 33.0 L 64.8 33.0 L 70.8 28.0 L 81.8 37.0 L 76.8 40.0 L 73.98326358795165 41.173640155792235 L 73.4 42.1 L 71.5 44.7 L 69.3 47.4 L 66.9 50.2 L 64.2 53.1 L 61.1 56.1 L 57.8 59.1 L 54.1 62.2 L 52.08823528289795 64.0 L 74.9 64.0 L 80.9 59.0 L 91.9 68.0 L 86.9 72.0 L 86.9 132.0 L 74.9 138.0 L 74.9 132.0 L 33.6 132.0 Z M 33.6 100.0 L 33.6 128.0 L 48.2 128.0 L 48.2 100.0 Z M 60.2 100.0 L 60.2 128.0 L 74.9 128.0 L 74.9 100.0 Z M 33.6 68.0 L 33.6 96.0 L 48.2 96.0 L 48.2 68.0 Z M 60.2 68.0 L 60.2 96.0 L 74.9 96.0 L 74.9 68.0 Z M 94.4 92.0 L 92.3 88.0 L 93.6 83.6 L 94.6 82.8 L 95.7 81.3 L 96.9 79.2 L 98.0 76.5 L 99.1 73.2 L 100.0 69.3 L 101.0 65.0 L 101.8 60.1 L 102.7 54.7 L 103.3 48.8 L 105.1 48.8 L 105.8 54.7 L 106.3 58.7 L 134.5 58.7 L 134.5 13.8 L 146.5 15.8 L 149.5 17.8 L 146.5 19.6 L 146.5 35.6 L 159.01818180084229 35.6 L 167.2 26.6 L 177.2 35.6 L 177.2 39.6 L 146.5 39.6 L 146.5 58.7 L 174.4 58.7 L 180.4 53.7 L 191.4 62.7 L 186.4 65.7 L 183.73838863372802 66.80900478363037 L 182.5 69.0 L 181.2 71.4 L 179.7 74.0 L 178.1 76.6 L 176.4 79.4 L 174.5 82.2 L 172.5 85.2 L 170.7 88.4 L 169.0 87.7 L 170.1 84.2 L 170.7 80.7 L 171.4 77.4 L 172.0 74.2 L 172.6 71.3 L 173.2 68.5 L 173.6 65.8 L 174.11666669845582 62.7 L 106.68823528289795 62.7 L 106.9 65.4 L 107.0 70.1 L 106.9 74.4 L 106.7 78.4 L 106.2 82.0 L 105.4 85.3 L 104.4 88.4 L 102.9 91.2 L 98.8 93.3 Z M 165.1 81.2 L 165.1 85.2 L 111.6 85.2 L 111.6 81.2 L 143.1 81.2 L 153.1 71.2 Z M 39.1619047164917 37.0 L 38.4 38.5 L 35.1 44.6 L 31.7 50.4 L 28.1 56.0 L 25.367123317718505 59.88356161117554 L 33.6 64.0 L 49.21219511032105 64.0 L 51.9 60.2 L 54.3 56.2 L 56.6 52.5 L 58.7 49.0 L 60.4 45.7 L 61.9 42.6 L 63.2 39.8 L 64.1 37.3 L 64.17826089859008 37.0 Z " />
</g>
</svg>
