<svg xmlns="http://www.w3.org/2000/svg" xmlns:xlink="http://www.w3.org/1999/xlink" version="1.1" baseProfile="full" viewBox="0 0 200 200" width="200" height="200">
<g fill="black">
<path d="M 40.9 46.5 L 117.97333335876465 46.5 L 117.4 37.9 L 117.01729106903076 15.798559093475342 L 117.0 15.8 L 117.0 12.4 L 129.0 14.8 L 132.0 16.8 L 129.066259765625 18.56024408340454 L 129.4 37.5 L 129.97798166275024 46.5 L 160.5 46.5 L 170.5 36.5 L 182.5 46.5 L 182.5 50.5 L 130.2348624229431 50.5 L 130.8 59.3 L 133.2 80.2 L 136.7 99.7 L 141.3 117.6 L 143.86116008758546 124.70942707061768 L 146.8 118.0 L 151.3 104.9 L 155.0 91.0 L 157.70527505874634 77.10048351287841 L 157.7 77.1 L 157.79056606292724 76.66226415634155 L 157.9 76.1 L 157.90665159225463 76.10118379592896 L 158.3 74.2 L 169.7 78.2 L 172.3 80.7 L 168.8035461425781 82.05973205566406 L 166.1 93.7 L 161.5 108.3 L 156.1 121.9 L 149.7 134.5 L 148.49041509628296 136.42208013534545 L 154.2 147.6 L 162.4 159.2 L 172.0 168.2 L 175.51203002929688 170.2812029838562 L 180.4 149.1 L 182.4 149.1 L 180.54141693115236 173.2615803718567 L 182.8 174.6 L 185.9 178.0 L 185.9 182.5 L 182.6 185.7 L 178.0 185.6 L 164.7 177.8 L 153.4 167.1 L 143.9 153.8 L 140.94418287277222 147.96415605545045 L 134.2 156.6 L 125.2 166.2 L 115.2 174.6 L 104.4 181.8 L 92.7 187.9 L 91.8 186.3 L 102.2 178.7 L 111.8 170.5 L 120.4 161.6 L 128.3 151.9 L 135.3 141.4 L 136.50609951019288 139.20178632736207 L 136.1 138.4 L 129.8 121.1 L 124.9 102.2 L 121.3 81.9 L 118.9 60.4 L 118.23999996185303 50.5 L 40.9 50.5 L 40.9 89.0 L 62.940410137176514 89.0 L 69.4 63.5 L 80.5 68.4 L 82.9 71.1 L 79.59611501693726 71.9727243423462 L 75.28828229904175 89.0 L 94.0 89.0 L 104.0 79.0 L 116.0 89.0 L 116.0 93.0 L 104.64598541259765 93.0 L 102.0 105.5 L 98.2 118.3 L 93.3 130.1 L 90.3600061416626 135.57447137832642 L 92.1 136.5 L 96.6 139.3 L 100.7 142.2 L 104.4 145.4 L 107.8 148.9 L 109.0 153.3 L 106.8 157.3 L 102.4 158.5 L 98.4 156.3 L 96.1 153.2 L 93.5 150.2 L 90.4 147.2 L 87.0 144.2 L 85.80314273834229 143.31002922058104 L 80.6 150.7 L 72.8 159.4 L 64.0 167.0 L 54.3 173.5 L 43.7 178.8 L 32.3 182.8 L 31.6 181.1 L 42.0 175.4 L 51.4 169.0 L 59.8 162.0 L 67.3 154.2 L 73.8 145.7 L 78.27550954818726 138.18753757476807 L 74.1 135.7 L 69.0 132.9 L 64.74885187149047 130.65848550796508 L 61.5 143.5 L 48.4 146.4 L 61.92714109420776 93.0 L 40.9 93.0 L 40.9 100.0 L 40.3 111.4 L 39.3 122.3 L 37.8 132.6 L 35.8 142.3 L 33.3 151.5 L 30.3 160.1 L 26.8 168.0 L 22.8 175.3 L 18.2 181.9 L 13.0 187.6 L 11.6 186.5 L 15.0 179.8 L 18.0 172.9 L 20.8 165.5 L 23.1 157.7 L 25.1 149.4 L 26.7 140.6 L 27.8 131.2 L 28.6 121.3 L 28.9 110.9 L 28.9 40.5 Z M 74.27629823684693 93.0 L 65.74143676757812 126.73516311645508 L 70.9 127.9 L 76.8 129.7 L 81.61879653930664 131.48473949432372 L 84.1 126.1 L 88.0 115.0 L 90.9 103.0 L 92.48333330154419 93.0 Z M 148.3 32.8 L 147.1 30.9 L 145.8 28.9 L 144.3 27.0 L 142.7 25.2 L 141.0 23.3 L 139.1 21.4 L 136.9 20.0 L 137.6 18.4 L 140.2 19.3 L 143.0 19.9 L 145.6 20.9 L 148.2 22.0 L 150.7 23.4 L 153.0 24.9 L 155.3 26.6 L 157.5 28.6 L 159.5 30.7 L 161.5 32.9 L 162.1 37.5 L 159.4 41.2 L 154.8 41.7 L 151.2 39.0 L 149.4 34.8 Z " />
</g>
</svg>
