<svg xmlns="http://www.w3.org/2000/svg" xmlns:xlink="http://www.w3.org/1999/xlink" version="1.1" baseProfile="full" viewBox="0 0 200 200" width="200" height="200">
<g fill="black">
<path d="M 66.5 147.9 L 62.7 143.7 L 58.4 139.8 L 56.56689567565918 138.34879236221315 L 55.4 140.7 L 47.7 152.9 L 39.1 163.9 L 29.6 173.6 L 19.2 181.9 L 7.9 188.7 L 6.9 187.2 L 16.8 178.9 L 25.8 169.8 L 34.0 159.8 L 41.3 148.8 L 47.8 136.7 L 49.38494253158569 133.05741271972656 L 48.3 132.3 L 42.5 128.9 L 36.2 125.6 L 29.4 122.3 L 22.2 119.1 L 22.227777767181397 119.0 L 20.9 119.0 L 32.599905014038086 63.0 L 14.0 63.0 L 14.0 59.0 L 33.4356125831604 59.0 L 42.9 13.7 L 54.2 18.2 L 56.8 20.7 L 53.46971473693848 21.705369091033937 L 45.7 59.0 L 64.9 59.0 L 74.9 49.0 L 86.9 59.0 L 86.9 63.0 L 79.57734804153442 63.0 L 76.7 79.8 L 72.8 96.8 L 67.9 112.6 L 62.1 127.2 L 60.59011306762695 130.2423095703125 L 64.0 132.3 L 69.3 136.2 L 74.3 140.5 L 78.8 145.1 L 82.8 150.1 L 83.6 154.6 L 81.1 158.5 L 76.6 159.3 L 72.8 156.7 L 69.9 152.2 Z M 146.1361110687256 118.95833330154419 L 145.7 125.5 L 145.4051073074341 127.21731643676758 L 146.6 132.5 L 148.9 140.2 L 151.7 147.2 L 155.1 153.6 L 159.0 159.2 L 163.4 164.3 L 168.4 168.8 L 174.0 172.7 L 180.1 176.2 L 185.0 178.8 L 173.8 187.7 L 166.8 183.0 L 160.5 177.6 L 155.1 171.6 L 150.5 165.0 L 146.8 157.8 L 143.9 150.2 L 142.03298835754396 142.6386028289795 L 141.5 144.6 L 138.1 153.1 L 133.8 160.8 L 128.7 167.8 L 122.7 173.9 L 115.8 179.1 L 108.2 183.4 L 99.8 186.8 L 99.1 185.1 L 106.2 180.2 L 112.5 174.9 L 118.0 169.3 L 122.6 163.2 L 126.5 156.6 L 129.6 149.5 L 131.9 141.8 L 133.5 133.5 L 134.3 124.5 L 134.4 115.0 L 134.4 112.6 L 146.4 115.0 L 149.4 117.0 Z M 44.86666669845581 63.0 L 33.2 119.0 L 31.8 119.0 L 38.2 120.6 L 45.3 122.9 L 51.9 125.7 L 52.46523952484131 125.9781337738037 L 53.5 123.6 L 58.4 109.5 L 62.4 94.2 L 65.5 77.8 L 67.4380952835083 63.0 Z M 137.1 107.8 L 134.6 107.4 L 132.2 106.6 L 130.0 105.3 L 127.9 103.7 L 126.3 101.7 L 125.1 99.4 L 124.3 97.0 L 123.8 94.5 L 123.7 92.0 L 123.7 80.73954620361329 L 104.2 83.9 L 104.2 117.0 L 103.6 126.6 L 102.6 135.6 L 101.1 144.2 L 99.1 152.1 L 96.6 159.5 L 93.5 166.3 L 90.0 172.5 L 85.9 178.0 L 81.3 182.7 L 76.1 186.6 L 74.9 185.3 L 78.4 180.2 L 81.5 175.0 L 84.2 169.3 L 86.5 163.3 L 88.5 156.9 L 90.0 149.9 L 91.2 142.5 L 91.9 134.5 L 92.3 126.0 L 92.2 117.0 L 92.2 43.0 L 104.2 49.0 L 126.8 49.0 L 126.8 12.0 L 138.8 14.0 L 141.8 16.0 L 138.8 17.8 L 138.8 28.0 L 154.3181818008423 28.0 L 162.5 19.0 L 172.5 28.0 L 172.5 32.0 L 138.8 32.0 L 138.8 49.0 L 172.8 49.0 L 178.8 44.0 L 189.8 53.0 L 184.8 56.0 L 181.92513370513916 57.19786100387573 L 181.8 57.4 L 180.4 59.5 L 179.0 61.7 L 176.0 66.1 L 174.4 68.4 L 172.8 70.6 L 171.0 72.9 L 169.6 75.3 L 167.9 74.6 L 168.8 71.9 L 169.6 66.3 L 170.2 63.6 L 170.7 61.0 L 171.2 58.5 L 171.7 55.9 L 172.3 53.5 L 172.4041666984558 53.0 L 104.2 53.0 L 104.2 79.8867314338684 L 123.7 76.73139162063599 L 123.7 55.0 L 135.7 57.0 L 138.7 59.0 L 135.7 60.8 L 135.7 74.78964405059814 L 143.53424072265625 73.52196750640869 L 151.8 62.0 L 165.3 70.0 L 165.9 73.9 L 135.7 78.7946515083313 L 135.7 92.0 L 135.8 93.2 L 135.9 94.1 L 136.1 94.7 L 136.3 95.0 L 136.4 95.2 L 136.6 95.4 L 137.0 95.5 L 137.5 95.7 L 138.5 95.9 L 139.7 96.0 L 169.1 96.0 L 175.1 71.0 L 177.1 71.0 L 175.1 96.0 L 178.7 98.4 L 181.1 102.0 L 178.7 105.6 L 175.1 108.0 L 139.7 108.0 Z " />
</g>
</svg>
