<svg xmlns="http://www.w3.org/2000/svg" xmlns:xlink="http://www.w3.org/1999/xlink" version="1.1" baseProfile="full" viewBox="0 0 200 200" width="200" height="200">
<g fill="black">
<path d="M 71.7 148.0 L 67.8 143.8 L 63.4 139.8 L 60.777695941925046 137.67983922958373 L 59.2 140.7 L 51.1 153.0 L 42.1 163.9 L 32.2 173.6 L 21.2 181.9 L 9.4 188.7 L 8.5 187.2 L 18.9 178.9 L 28.5 169.7 L 37.1 159.7 L 44.9 148.7 L 51.7 136.7 L 53.66235609054566 132.41552257537842 L 53.5 132.3 L 47.9 128.9 L 41.9 125.6 L 35.5 122.3 L 34.954739284515384 122.0434066772461 L 32.5 133.3 L 19.4 136.6 L 35.509357166290286 63.0 L 15.0 63.0 L 15.0 59.0 L 36.38486576080322 59.0 L 46.3 13.7 L 57.6 18.2 L 60.1 20.8 L 56.8312747001648 21.725110912322997 L 48.70269327163696 59.0 L 73.0 59.0 L 79.0 54.0 L 90.0 63.0 L 85.0 66.0 L 84.0762845993042 66.38488140106202 L 81.7 79.9 L 77.5 96.8 L 72.4 112.7 L 66.2 127.3 L 64.89137620925904 129.80507974624635 L 69.0 132.4 L 74.4 136.2 L 79.4 140.5 L 83.9 145.1 L 88.1 150.0 L 89.1 154.5 L 86.7 158.4 L 82.2 159.3 L 78.3 156.9 L 75.2 152.4 Z M 170.2 169.4 L 168.2 164.6 L 167.54234571456908 163.09679012298585 L 163.4 164.4 L 154.8 167.0 L 146.4 169.2 L 138.2 171.3 L 130.4 173.1 L 122.8 174.9 L 115.5 176.4 L 108.5 177.8 L 101.7 179.1 L 99.37732419967651 179.49920988082886 L 97.6 183.0 L 95.3 180.2 L 91.8 168.6 L 93.8 168.3 L 100.2 167.8 L 106.9 167.2 L 113.9 166.5 L 114.84033145904542 166.3983425140381 L 114.9 166.1 L 116.2 160.4 L 117.5 154.8 L 118.9 149.4 L 120.2 144.1 L 121.5 139.0 L 122.7 134.0 L 123.8 129.1 L 124.9 124.4 L 125.67927770614624 120.81532258987427 L 125.6 120.8 L 125.88148145675659 119.88518514633179 L 125.9 119.8 L 125.90707321166992 119.80201215744019 L 126.4 118.2 L 137.5 123.1 L 139.8 125.8 L 136.10622520446776 126.7894040107727 L 135.8 127.6 L 134.1 132.3 L 132.3 137.0 L 128.3 146.8 L 126.1 151.9 L 123.7 157.0 L 121.2 162.2 L 119.23288259506225 165.92347211837767 L 121.3 165.7 L 128.9 164.8 L 136.9 163.8 L 145.1 162.8 L 153.7 161.7 L 162.7 160.7 L 166.33965187072755 160.3477756500244 L 166.1 159.8 L 163.9 155.3 L 161.6 150.8 L 159.2 146.4 L 156.8 142.1 L 154.3 137.9 L 151.8 133.6 L 153.1 132.4 L 157.2 135.4 L 161.0 138.8 L 164.6 142.6 L 167.9 146.6 L 171.2 150.8 L 174.2 155.3 L 177.2 160.0 L 179.9 164.9 L 182.6 170.0 L 185.1 175.3 L 184.9 179.9 L 181.6 183.1 L 177.1 182.9 L 173.9 179.6 L 172.1 174.5 Z M 144.2 17.7 L 146.8 20.2 L 142.72529182434081 21.681712055206297 L 142.2 23.1 L 140.0 28.7 L 138.7 31.6 L 137.4 34.6 L 136.0 37.5 L 134.5 40.6 L 132.8 43.6 L 132.3625 44.6 L 165.0 44.6 L 171.0 39.6 L 182.0 48.6 L 177.0 52.6 L 177.0 121.1 L 165.0 127.1 L 165.0 117.1 L 110.9 117.1 L 110.9 129.1 L 98.9 135.1 L 98.9 38.6 L 110.9 44.6 L 130.0 44.6 L 130.3 42.9 L 130.5 39.4 L 131.1 32.8 L 131.4 29.7 L 131.6 26.6 L 131.9 23.7 L 132.1 20.8 L 132.3 18.0 L 132.3622618675232 16.318930530548094 L 132.2 16.3 L 132.39701490402223 15.380597019195557 L 132.4 15.3 L 132.41368913650513 15.302784252166749 L 132.8 13.5 Z M 47.83040838241577 63.0 L 35.720851039886476 118.53028087615967 L 36.7 118.7 L 43.9 120.6 L 50.8 122.9 L 56.81526231765747 125.53167724609375 L 57.7 123.6 L 62.9 109.4 L 67.1 94.1 L 70.5 77.7 L 72.6 63.0 Z M 110.9 82.2 L 110.9 113.1 L 165.0 113.1 L 165.0 82.2 Z M 110.9 48.6 L 110.9 78.2 L 165.0 78.2 L 165.0 48.6 Z " />
</g>
</svg>
