<svg xmlns="http://www.w3.org/2000/svg" xmlns:xlink="http://www.w3.org/1999/xlink" version="1.1" baseProfile="full" viewBox="0 0 200 200" width="200" height="200">
<g fill="black">
<path d="M 146.3 179.8 L 138.5 175.9 L 130.2 172.3 L 121.3 168.9 L 113.92477226257324 166.38928413391113 L 105.7 171.2 L 93.1 176.4 L 78.6 180.7 L 62.1 184.1 L 43.6 186.4 L 23.0 187.8 L 22.9 186.1 L 43.0 182.7 L 61.0 178.8 L 76.8 174.4 L 90.4 169.3 L 101.7 163.7 L 102.68628807067871 163.02802352905275 L 101.9 162.8 L 91.4 160.1 L 80.4 157.5 L 70.56671047210693 155.38075656890868 L 64.6 164.7 L 51.3 163.2 L 71.90075044631958 131.0 L 15.0 131.0 L 15.0 127.0 L 74.45984992980956 127.0 L 85.4 109.9 L 94.5 118.0 L 95.9 121.3 L 92.11263666152954 121.72875814437866 L 88.73768739700317 127.0 L 165.0 127.0 L 175.0 117.0 L 187.0 127.0 L 187.0 131.0 L 137.574285697937 131.0 L 136.0 139.7 L 131.6 149.3 L 125.0 157.7 L 121.8602897644043 160.33446950912474 L 123.8 160.8 L 133.3 163.5 L 142.4 166.7 L 151.0 170.2 L 159.1 174.0 L 166.7 178.3 L 169.2 182.1 L 168.5 186.6 L 164.7 189.1 L 160.2 188.4 L 153.5 184.0 Z M 86.17665948867798 131.0 L 71.88596506118775 153.32024850845337 L 81.0 153.7 L 92.4 154.8 L 103.4 156.4 L 110.43018865585327 157.75195932388306 L 110.8 157.5 L 117.6 150.9 L 122.3 144.0 L 125.0 136.6 L 125.66315793991089 131.0 Z M 69.0 97.3 L 83.0 97.3 L 84.0 97.2 L 84.6 97.1 L 85.0 96.9 L 85.3 96.8 L 85.4 96.6 L 85.6 96.4 L 85.8 95.9 L 86.0 95.2 L 86.2 94.1 L 86.3 92.8 L 86.3 46.5 L 31.7 46.5 L 31.7 101.6 L 20.7 107.1 L 20.7 43.71428575515747 L 17.1 45.6 L 12.7 47.9 L 11.7 46.4 L 15.2 43.0 L 18.4 39.6 L 20.7 37.14666662216187 L 20.7 37.0 L 20.793617057800294 37.046808528900144 L 21.4 36.4 L 24.3 33.2 L 26.9 30.1 L 29.4 27.1 L 31.6 24.1 L 33.5 21.2 L 35.3 18.3 L 36.291498851776126 16.449202156066896 L 36.2 16.4 L 36.733823490142825 15.623529434204102 L 36.8 15.5 L 36.81289768218994 15.508512496948242 L 37.3 14.8 L 46.8 22.1 L 48.2 25.4 L 44.15737323760986 25.260599040985106 L 41.7 27.9 L 38.9 30.6 L 35.8 33.3 L 32.5 36.0 L 29.0 38.5 L 26.745977020263673 40.02298851013184 L 31.7 42.5 L 52.5 42.5 L 52.5 11.1 L 64.5 13.1 L 67.5 15.1 L 64.5 16.9 L 64.5 42.5 L 86.3 42.5 L 91.59030103683472 37.69063549041748 L 91.5 37.5 L 90.3 35.5 L 88.9 33.6 L 87.3 31.6 L 85.5 29.6 L 83.4 27.6 L 81.1 25.6 L 78.5 23.6 L 75.8 21.5 L 72.6 19.7 L 73.2 18.1 L 76.8 19.1 L 80.3 19.8 L 83.7 20.9 L 86.8 22.0 L 89.8 23.4 L 92.7 24.9 L 95.3 26.6 L 97.8 28.4 L 100.2 30.5 L 102.3 32.7 L 103.2 37.1 L 100.7 41.0 L 96.7945945739746 41.78108110427856 L 102.3 46.5 L 97.3 50.0 L 97.3 92.8 L 97.1 95.2 L 96.8 97.5 L 96.1 99.8 L 95.1 101.9 L 93.7 103.9 L 91.9 105.5 L 89.9 106.8 L 87.7 107.7 L 85.4 108.1 L 83.0 108.3 L 83.0 102.8 L 69.0 100.0 Z M 158.1 98.4 L 149.3 93.5 L 141.4 88.1 L 139.26431674957274 86.26941432952881 L 135.4 89.4 L 126.6 94.9 L 116.8 99.6 L 106.2 103.5 L 94.8 106.3 L 94.3 104.6 L 104.9 99.9 L 114.5 94.8 L 123.1 89.4 L 130.7 83.4 L 133.28569164276124 80.85348548889161 L 128.5 75.5 L 123.6 68.5 L 119.8 60.9 L 117.3 52.9 L 116.57566413879394 48.219675827026364 L 111.9 52.0 L 106.7 55.5 L 101.3 58.7 L 100.2 57.2 L 104.3 52.6 L 108.2 48.1 L 111.9 43.6 L 115.3 39.1 L 118.5 34.5 L 121.4 29.9 L 124.0 25.1 L 126.3 20.3 L 128.4 15.3 L 129.8687460899353 11.220149707794189 L 129.8 11.2 L 130.7 8.9 L 141.4 14.6 L 143.4 17.5 L 139.6182692527771 18.1634614944458 L 138.7 20.0 L 135.8 25.3 L 132.6 30.3 L 129.1 35.1 L 128.33695650100708 36.0 L 165.4 36.0 L 175.4 26.0 L 187.4 36.0 L 187.4 40.0 L 168.26699028015136 40.0 L 165.5 49.5 L 161.4 59.0 L 156.4 67.8 L 150.3 75.8 L 146.78770694732665 79.41264429092408 L 147.2 79.7 L 154.7 83.9 L 163.0 87.6 L 172.1 90.9 L 182.1 93.7 L 190.3 96.0 L 178.6 106.4 L 167.9 102.7 Z M 51.0 58.7 L 66.5 58.7 L 72.0 53.7 L 82.5 62.7 L 77.5 66.2 L 77.5 86.3 L 66.5 91.8 L 66.5 84.3 L 51.0 84.3 L 51.0 87.3 L 40.0 92.8 L 40.0 53.2 Z M 51.0 62.7 L 51.0 80.3 L 66.5 80.3 L 66.5 62.7 Z M 124.92045450210571 40.0 L 121.1 44.1 L 118.72392444610595 46.26486883163452 L 121.2 51.5 L 125.1 58.2 L 129.6 64.4 L 134.7 70.0 L 139.54226140975953 74.18568353652954 L 143.0 70.0 L 147.8 62.5 L 151.7 54.5 L 154.7 45.9 L 156.0467391014099 40.0 Z " />
</g>
</svg>
