<svg xmlns="http://www.w3.org/2000/svg" xmlns:xlink="http://www.w3.org/1999/xlink" version="1.1" baseProfile="full" viewBox="0 0 200 200" width="200" height="200">
<g fill="black">
<path d="M 20.6 175.0 L 25.0 173.6 L 29.5 172.1 L 31.2 171.49555559158324 L 31.2 143.65769233703614 L 26.1 146.6 L 20.5 149.3 L 14.6 151.7 L 13.7 150.2 L 18.5 146.1 L 23.0 142.2 L 27.4 138.4 L 31.4 134.6 L 35.2 130.8 L 38.7 127.0 L 41.9 123.2 L 44.8 119.4 L 47.4 115.5 L 47.76315793991089 114.9 L 31.5 114.9 L 31.5 121.9 L 19.5 127.9 L 19.5 79.0 L 31.5 85.0 L 81.1 85.0 L 87.1 80.0 L 98.1 89.0 L 93.1 93.0 L 93.1 114.9 L 81.1 120.9 L 81.1 114.9 L 54.62307691574097 114.9 L 59.7 118.2 L 56.5 122.3 L 53.0 126.2 L 49.2 130.0 L 45.2 133.6 L 40.925714302062985 137.0 L 43.2 137.0 L 43.2 167.22608699798585 L 47.6 165.6 L 52.1 163.9 L 61.5 160.7 L 66.3 159.2 L 67.2 160.7 L 63.2 163.9 L 59.2 167.0 L 50.8 172.4 L 46.6 174.9 L 38.0 179.7 L 33.7 181.9 L 29.3 184.1 L 28.778982830047607 184.35445022583008 L 27.9 188.2 L 25.0 186.2 L 18.7 175.7 Z M 166.1 167.4 L 162.1 160.4 L 157.9 153.8 L 155.44933652877808 150.2664852142334 L 149.2 160.1 L 141.4 169.3 L 132.4 176.8 L 122.4 182.7 L 111.5 186.8 L 110.9 185.1 L 120.5 179.4 L 129.0 172.7 L 136.5 164.8 L 143.0 155.8 L 148.5 145.5 L 149.61196689605714 142.65830678939818 L 149.0 141.9 L 144.3 136.5 L 139.5 131.5 L 134.4 126.8 L 133.43340301513672 125.92816734313965 L 133.4 126.1 L 120.5 129.7 L 130.92219324111937 76.0 L 106.8 76.0 L 106.8 72.0 L 131.69852046966554 72.0 L 142.8 14.8 L 154.2 19.1 L 156.7 21.6 L 153.5278633117676 22.557626152038573 L 143.91663551330566 72.0 L 169.1 72.0 L 179.1 62.0 L 191.1 72.0 L 191.1 76.0 L 173.45139665603637 76.0 L 172.2 92.0 L 169.8 108.4 L 166.3 123.5 L 161.7 137.1 L 159.57833337783813 141.67833337783813 L 160.1 142.2 L 165.4 148.2 L 170.5 154.8 L 175.3 161.9 L 180.0 169.5 L 184.4 177.7 L 184.6 182.2 L 181.6 185.7 L 177.0 185.8 L 173.6 182.8 L 169.9 174.9 Z M 87.0 164.3 L 83.9 160.6 L 80.4 156.8 L 76.5 153.0 L 72.2 149.2 L 67.4 145.4 L 62.3 141.4 L 56.7 137.4 L 50.8 133.2 L 51.6 131.6 L 58.5 134.1 L 65.0 136.8 L 71.0 139.8 L 73.12671756744385 141.0152671813965 L 75.6 139.0 L 78.2 136.6 L 80.7 134.3 L 83.1 132.0 L 85.5 129.9 L 90.1 125.7 L 94.3 121.7 L 95.59356727600098 120.40643272399902 L 95.5 120.3 L 96.3 119.7 L 103.5 129.4 L 103.7 133.0 L 99.83333330154419 131.3530863761902 L 95.5 133.6 L 92.6 134.9 L 89.7 136.3 L 86.7 137.6 L 83.6 138.9 L 80.4 140.2 L 77.0 141.3 L 75.0884955406189 142.1362832069397 L 76.6 143.0 L 81.8 146.4 L 86.6 149.8 L 91.0 153.4 L 95.0 157.2 L 98.7 161.1 L 101.9 165.2 L 102.7 169.7 L 100.1 173.5 L 95.6 174.2 L 91.8 171.7 L 89.6 168.0 Z M 143.13906545639037 76.0 L 134.10569038391114 122.46976594924926 L 136.6 123.6 L 142.8 127.3 L 148.8 131.7 L 152.61626710891724 134.98065071105958 L 153.0 134.0 L 156.6 121.0 L 159.2 106.7 L 160.9 90.9 L 161.42899408340455 76.0 Z M 31.5 89.0 L 31.5 110.9 L 81.1 110.9 L 81.1 89.0 Z M 104.0 71.0 L 104.0 75.0 L 15.3 75.0 L 15.3 71.0 L 85.81818180084228 71.0 L 94.0 62.0 Z M 16.8 61.9 L 16.8 16.5 L 27.8 22.0 L 87.1 22.0 L 92.6 17.0 L 103.1 26.0 L 98.1 29.5 L 98.1 56.4 L 87.1 61.9 L 87.1 56.4 L 27.8 56.4 Z M 27.8 26.0 L 27.8 52.4 L 40.7 52.4 L 40.7 26.0 Z M 50.7 26.0 L 50.7 52.4 L 64.1 52.4 L 64.1 26.0 Z M 74.1 26.0 L 74.1 52.4 L 87.1 52.4 L 87.1 26.0 Z " />
</g>
</svg>
