<svg xmlns="http://www.w3.org/2000/svg" xmlns:xlink="http://www.w3.org/1999/xlink" version="1.1" baseProfile="full" viewBox="0 0 200 200" width="200" height="200">
<g fill="black">
<path d="M 74.1 151.5 L 69.9 147.0 L 65.3 142.6 L 63.08762435913086 140.74160451889037 L 62.7 141.5 L 54.8 153.6 L 45.9 164.2 L 35.9 173.3 L 24.9 180.9 L 13.0 186.8 L 12.1 185.1 L 22.8 177.7 L 32.3 169.3 L 40.9 159.8 L 48.6 149.2 L 55.3 137.4 L 56.22573289871216 135.32508144378662 L 55.0 134.4 L 49.2 130.4 L 43.2 126.7 L 36.7 122.9 L 32.82660827636719 120.70315093994141 L 31.4 125.3 L 27.7 136.8 L 16.3 133.1 L 20.0 121.7 L 23.5 110.3 L 26.9 98.7 L 30.1 87.1 L 33.2 75.5 L 36.1 63.7 L 36.5 62.0 L 12.6 62.0 L 12.6 58.0 L 37.44117650985718 58.0 L 38.9 51.8 L 41.6 39.9 L 44.0 27.9 L 46.201620769500735 16.800162029266357 L 46.2 16.8 L 46.7 13.9 L 58.2 18.0 L 60.7 20.5 L 57.466862201690674 21.757331371307373 L 55.8 30.3 L 53.3 42.4 L 50.6 54.5 L 49.78333330154419 58.0 L 74.8 58.0 L 80.8 53.0 L 91.8 62.0 L 86.8 65.0 L 86.08947372436523 65.29605264663697 L 84.0 79.4 L 80.3 96.9 L 75.5 113.1 L 69.6 128.0 L 67.16443748474121 132.76523094177247 L 71.1 135.3 L 76.6 139.5 L 81.8 144.0 L 86.7 148.8 L 91.2 154.0 L 92.2 158.4 L 90.0 162.4 L 85.5 163.4 L 81.6 161.2 L 78.0 156.3 Z M 188.2 174.0 L 185.8 177.6 L 182.2 180.0 L 118.7 180.0 L 116.1 179.8 L 113.6 179.4 L 111.2 178.6 L 108.9 177.3 L 106.9 175.7 L 105.3 173.7 L 104.0 171.4 L 103.2 169.0 L 102.8 166.5 L 102.7 164.0 L 102.7 48.0 L 114.7 54.0 L 137.5 54.0 L 137.5 17.0 L 149.5 19.0 L 152.5 21.0 L 149.5 22.8 L 149.5 54.0 L 164.1 54.0 L 174.1 44.0 L 186.1 54.0 L 186.1 58.0 L 114.7 58.0 L 114.7 165.2 L 114.9 166.1 L 115.1 166.7 L 115.3 167.0 L 115.4 167.2 L 115.6 167.4 L 116.5 167.7 L 117.4 167.9 L 118.7 168.0 L 182.2 168.0 L 185.8 170.4 Z M 48.85 62.0 L 47.8 66.5 L 44.8 78.4 L 41.7 90.3 L 38.4 102.0 L 35.0 113.7 L 33.58879995346069 118.24720001220703 L 38.2 119.4 L 45.5 121.8 L 52.4 124.7 L 58.9 127.9 L 59.40875654220581 128.1907180786133 L 61.1 124.4 L 65.9 110.1 L 69.8 94.5 L 72.8 77.6 L 74.51428575515747 62.0 Z " />
</g>
</svg>
