<svg xmlns="http://www.w3.org/2000/svg" xmlns:xlink="http://www.w3.org/1999/xlink" version="1.1" baseProfile="full" viewBox="0 0 200 200" width="200" height="200">
<g fill="black">
<path d="M 39.4 146.3 L 37.7 142.3 L 37.47990427017212 141.85980863571166 L 33.9 152.1 L 29.1 163.1 L 23.8 172.9 L 17.8 181.4 L 11.3 188.5 L 9.9 187.4 L 14.6 179.3 L 19.0 170.4 L 23.1 160.5 L 26.7 149.6 L 30.0 137.6 L 31.377236366271973 131.33120002746583 L 29.1 128.2 L 26.5 125.1 L 26.346431541442872 124.93546237945557 L 25.5 132.6 L 12.9 137.3 L 21.115284538269044 63.0 L 13.6 63.0 L 13.6 59.0 L 21.557561016082765 59.0 L 26.5 14.3 L 38.2 17.6 L 40.9 19.9 L 37.82619228363037 20.984873294830322 L 33.62799997329712 59.0 L 40.0 59.0 L 46.0 54.0 L 57.0 63.0 L 52.0 66.0 L 51.50956525802612 66.2043478012085 L 50.2 79.3 L 47.9 96.2 L 45.2 111.9 L 41.9 126.4 L 40.75546846389771 130.54506015777588 L 43.3 133.5 L 46.2 137.4 L 48.9 141.7 L 51.4 146.2 L 53.6 151.1 L 53.4 155.7 L 50.0 158.8 L 45.4 158.5 L 42.3 155.1 L 41.0 150.6 Z M 120.4 176.0 L 147.4 176.0 L 147.4 104.0 L 117.8 104.0 L 117.8 100.0 L 147.4 100.0 L 147.4 38.95238094329834 L 141.4 40.0 L 134.9 40.9 L 128.2 41.6 L 121.2 41.8 L 120.9 40.1 L 127.4 37.8 L 133.7 35.7 L 139.8 33.7 L 145.7 31.6 L 151.3 29.5 L 156.6 27.4 L 161.7 25.1 L 166.6 22.8 L 171.2 20.5 L 174.61049299240113 18.517155265808107 L 174.6 18.5 L 174.61522340774536 18.51440496444702 L 175.5 18.0 L 176.78265304565429 20.565306091308592 L 183.9 27.3 L 184.0 30.6 L 180.32063493728637 29.031746006011964 L 175.9 30.8 L 170.7 32.8 L 165.3 34.5 L 159.6 36.2 L 159.4 36.24827585220337 L 159.4 100.0 L 167.0 100.0 L 177.0 90.0 L 189.0 100.0 L 189.0 104.0 L 159.4 104.0 L 159.4 176.0 L 164.4 176.0 L 174.4 166.0 L 186.4 176.0 L 186.4 180.0 L 120.4 180.0 Z M 115.1 142.0 L 117.1 142.0 L 115.1 167.0 L 118.7 169.4 L 121.1 173.0 L 118.7 176.6 L 115.1 179.0 L 101.7 179.0 L 99.1 178.8 L 96.6 178.4 L 94.2 177.6 L 92.0 176.3 L 90.0 174.7 L 88.3 172.7 L 87.1 170.4 L 86.3 168.0 L 85.8 165.5 L 85.7 163.0 L 85.7 153.4 L 82.7 156.4 L 79.1 160.1 L 75.6 163.5 L 72.2 166.6 L 68.8 169.6 L 65.5 172.5 L 62.4 175.2 L 59.4 177.7 L 57.0 179.6199999809265 L 57.0 183.8 L 53.6 182.4 L 45.4 173.5 L 47.1 172.4 L 50.1 170.7 L 53.4 169.0 L 56.8 167.1 L 57.0 166.98571424484254 L 57.0 16.0 L 69.0 18.0 L 72.0 20.0 L 69.0 21.8 L 69.0 78.0 L 73.0 78.0 L 77.5 72.0 L 83.5 78.0 L 83.5 82.0 L 69.0 82.0 L 69.0 160.1675000190735 L 71.9 158.5 L 76.2 156.1 L 80.7 153.7 L 85.3 151.2 L 85.7 151.7454545021057 L 85.7 16.0 L 97.7 18.0 L 100.7 20.0 L 97.7 21.8 L 97.7 83.5285714149475 L 99.7 80.1 L 101.7 76.5 L 105.3 69.9 L 107.0 66.7 L 108.6 63.6 L 109.63977699279785 61.520446109771726 L 109.6 61.5 L 109.9333333015442 60.93333330154419 L 110.1 60.6 L 110.12148275375367 60.61347932815552 L 110.6 59.8 L 120.3 67.0 L 121.8 70.3 L 117.66471643447876 70.22991046905517 L 115.8 72.5 L 113.4 75.4 L 110.8 78.3 L 108.1 81.3 L 105.3 84.3 L 99.2 90.4 L 97.7 91.7235294342041 L 97.7 163.0 L 97.8 164.2 L 97.9 165.1 L 98.1 165.7 L 98.3 166.0 L 98.4 166.2 L 98.6 166.4 L 99.0 166.5 L 99.5 166.7 L 100.5 166.9 L 101.7 167.0 L 109.1 167.0 Z M 33.186260890960696 63.0 L 26.897157001495362 119.94857845306396 L 29.6 121.3 L 33.04614067077637 123.53533449172974 L 35.3 110.2 L 37.3 94.8 L 38.9 78.2 L 39.85 63.0 Z " />
</g>
</svg>
