<svg xmlns="http://www.w3.org/2000/svg" xmlns:xlink="http://www.w3.org/1999/xlink" version="1.1" baseProfile="full" viewBox="0 0 200 200" width="200" height="200">
<g fill="black">
<path d="M 73.9 151.6 L 69.6 147.0 L 64.9 142.6 L 62.68762435913086 140.74160451889037 L 62.3 141.5 L 54.3 153.6 L 45.3 164.2 L 35.2 173.3 L 24.1 180.9 L 12.1 186.8 L 11.3 185.1 L 22.0 177.7 L 31.7 169.3 L 40.3 159.8 L 48.1 149.2 L 54.9 137.4 L 55.806638145446776 135.36788005828856 L 54.5 134.4 L 48.7 130.5 L 42.6 126.7 L 36.1 122.9 L 32.132843589782716 120.68305959701539 L 30.7 125.3 L 26.9 136.9 L 15.5 133.0 L 19.2 121.7 L 22.8 110.2 L 26.2 98.7 L 29.5 87.1 L 32.6 75.4 L 35.5 63.7 L 35.9 62.0 L 11.7 62.0 L 11.7 58.0 L 36.84117650985718 58.0 L 38.3 51.8 L 41.0 39.9 L 43.5 27.9 L 45.701620769500735 16.800162029266357 L 45.7 16.8 L 46.2 13.9 L 57.7 18.0 L 60.2 20.6 L 56.958422565460204 21.80058422088623 L 55.3 30.3 L 52.7 42.4 L 50.0 54.5 L 49.18333330154419 58.0 L 74.6 58.0 L 80.6 53.0 L 91.6 62.0 L 86.6 65.0 L 85.81012659072876 65.32911396026611 L 83.8 79.4 L 80.0 96.9 L 75.1 113.1 L 69.2 128.0 L 66.74812536239624 132.7971460342407 L 70.7 135.3 L 76.3 139.5 L 81.5 144.0 L 86.4 148.8 L 91.0 153.9 L 92.1 158.4 L 89.8 162.3 L 85.4 163.4 L 81.4 161.2 L 77.8 156.3 Z M 162.8 170.7 L 157.0 163.1 L 151.8 154.8 L 147.3 145.6 L 143.5 135.7 L 140.6 125.1 L 138.5 113.8 L 137.690585231781 104.00608139038086 L 137.4 106.2 L 134.1 120.3 L 129.7 133.4 L 124.1 145.4 L 117.3 156.2 L 109.3 166.0 L 100.2 174.5 L 89.9 181.8 L 78.6 187.7 L 77.7 186.2 L 87.7 178.7 L 96.6 170.6 L 104.3 161.7 L 110.9 152.1 L 116.5 141.5 L 121.0 130.1 L 124.4 117.8 L 126.8 104.5 L 128.1 90.2 L 128.3 75.0 L 128.3 67.0 L 140.3 69.0 L 143.3 71.0 L 140.3 72.8 L 140.3 75.0 L 139.4936975479126 89.423854637146 L 141.6 101.2 L 144.3 112.6 L 147.5 123.1 L 151.3 132.8 L 155.7 141.5 L 160.5 149.4 L 165.8 156.5 L 171.5 162.7 L 177.5 168.0 L 183.9 172.5 L 187.3 174.9 L 176.3 183.4 L 169.3 177.5 Z M 48.25 62.0 L 47.2 66.5 L 44.2 78.4 L 41.0 90.3 L 37.7 102.1 L 34.3 113.7 L 32.90915870666504 118.18159971237182 L 37.6 119.4 L 44.9 121.8 L 51.9 124.7 L 58.5 127.9 L 59.00709495544434 128.19444227218628 L 60.7 124.4 L 65.6 110.1 L 69.5 94.5 L 72.5 77.6 L 74.3 62.0 Z M 129.7 17.9 L 132.3 20.4 L 128.79714288711548 21.76222219467163 L 127.9 25.6 L 125.8 33.3 L 123.2 41.1 L 120.3 48.9 L 118.07692308425904 54.0 L 169.9 54.0 L 175.9 49.0 L 186.9 58.0 L 181.9 61.0 L 179.62631578445433 61.947368431091306 L 179.3 62.6 L 177.6 65.5 L 175.5 68.6 L 173.2 72.0 L 170.5 75.6 L 167.4 79.4 L 163.9 83.5 L 160.0 87.8 L 155.8 92.5 L 154.4 91.4 L 157.4 86.0 L 159.9 80.8 L 162.3 76.1 L 164.4 71.8 L 166.2 67.9 L 167.6 64.4 L 168.7 61.3 L 169.5 58.6 L 169.60909090042114 58.0 L 116.28249998092652 58.0 L 113.1 64.7 L 109.0 72.6 L 104.3 80.6 L 99.2 88.5 L 93.5 96.4 L 91.9 95.5 L 95.9 86.7 L 99.6 78.1 L 103.0 69.8 L 106.2 61.6 L 109.0 53.6 L 111.5 45.8 L 113.6 38.1 L 115.4 30.6 L 116.8 23.2 L 117.8 16.0 L 117.83263854980468 16.00521116256714 L 118.1 14.0 Z " />
</g>
</svg>
