<svg xmlns="http://www.w3.org/2000/svg" xmlns:xlink="http://www.w3.org/1999/xlink" version="1.1" baseProfile="full" viewBox="0 0 200 200" width="200" height="200">
<g fill="black">
<path d="M 71.1 149.6 L 66.8 145.9 L 62.1 142.3 L 59.329151248931886 140.4527675628662 L 59.2 140.7 L 51.1 153.0 L 42.1 163.9 L 32.2 173.6 L 21.2 181.9 L 9.4 188.7 L 8.5 187.2 L 18.9 178.9 L 28.5 169.7 L 37.1 159.7 L 44.9 148.7 L 51.7 136.7 L 52.000777912139895 136.04330167770385 L 51.4 135.7 L 45.4 132.7 L 38.9 129.8 L 32.0 126.9 L 24.7 124.0 L 21.8 124.0 L 35.349410724639895 63.0 L 15.0 63.0 L 15.0 59.0 L 36.237896633148196 59.0 L 46.3 13.7 L 57.6 18.2 L 60.1 20.8 L 56.81605548858643 21.72941827774048 L 48.5376181602478 59.0 L 73.0 59.0 L 79.0 54.0 L 90.0 63.0 L 85.0 66.0 L 84.0762845993042 66.38488140106202 L 81.7 79.9 L 77.5 96.8 L 72.4 112.7 L 66.2 127.3 L 63.41267280578613 132.6357406616211 L 67.0 134.4 L 72.7 137.7 L 78.0 141.4 L 82.9 145.4 L 87.5 149.7 L 88.9 154.1 L 86.9 158.2 L 82.6 159.6 L 78.5 157.6 L 75.0 153.6 Z M 154.1 167.9 L 143.6 156.2 L 134.3 143.1 L 134.20079193115234 142.92018537521363 L 128.4 149.9 L 114.6 162.8 L 99.3 173.8 L 82.5 182.8 L 64.3 189.8 L 63.6 188.1 L 80.7 179.4 L 96.2 169.3 L 110.2 157.8 L 122.7 144.8 L 129.95880222320557 135.23157892227172 L 126.3 128.6 L 119.6 112.7 L 114.0 95.4 L 109.7 76.6 L 106.7 56.5 L 105.26976747512818 36.0 L 87.0 36.0 L 87.0 32.0 L 167.0 32.0 L 173.0 27.0 L 184.0 36.0 L 179.0 39.0 L 178.01734104156495 39.40944128036499 L 174.4 58.3 L 168.3 80.1 L 160.6 100.2 L 151.4 118.6 L 141.05078182220458 134.55907468795778 L 142.9 137.5 L 152.1 149.1 L 162.2 159.3 L 173.2 167.9 L 185.1 175.2 L 190.0 177.8 L 178.8 186.7 L 165.8 178.1 Z M 47.649149322509764 63.0 L 34.22747020721435 123.42611293792724 L 40.6 124.6 L 47.7 126.5 L 54.5 128.8 L 55.18994369506836 129.0802896499634 L 57.7 123.6 L 62.9 109.4 L 67.1 94.1 L 70.5 77.7 L 72.6 63.0 Z M 107.1042857170105 36.0 L 110.8 55.9 L 115.5 75.3 L 120.9 93.2 L 127.3 109.5 L 134.6 124.3 L 135.967126083374 126.47422466278076 L 143.3 114.1 L 151.4 96.4 L 158.0 77.0 L 163.2 55.9 L 166.51666669845582 36.0 Z M 134.3 74.4 L 133.1 72.0 L 131.7 69.5 L 129.9 67.0 L 127.8 64.5 L 125.4 62.0 L 122.6 59.4 L 119.6 56.7 L 116.1 54.3 L 116.9 52.7 L 121.0 54.2 L 124.9 55.7 L 128.6 57.3 L 132.1 59.3 L 135.2 61.4 L 138.2 63.7 L 140.8 66.2 L 143.2 69.0 L 145.3 71.9 L 147.0 75.1 L 146.8 79.6 L 143.5 82.8 L 138.9 82.5 L 135.8 79.2 L 135.2 76.8 Z " />
</g>
</svg>
