<svg xmlns="http://www.w3.org/2000/svg" xmlns:xlink="http://www.w3.org/1999/xlink" version="1.1" baseProfile="full" viewBox="0 0 200 200" width="200" height="200">
<g fill="black">
<path d="M 60.3 147.7 L 56.9 143.6 L 53.0 139.6 L 51.86735353469849 138.62539720535278 L 51.0 140.5 L 44.0 152.8 L 36.1 163.8 L 27.3 173.5 L 17.7 181.8 L 7.3 188.7 L 6.3 187.2 L 15.2 179.0 L 23.4 169.9 L 30.8 159.9 L 37.5 148.9 L 43.4 136.9 L 44.899113750457765 133.04933528900148 L 43.9 132.3 L 38.7 128.8 L 33.0 125.5 L 26.9 122.3 L 20.3 119.1 L 20.329411792755128 119.0 L 18.6 119.0 L 29.29961977005005 63.0 L 12.8 63.0 L 12.8 59.0 L 30.063878345489503 59.0 L 38.7 13.8 L 50.1 18.1 L 52.7 20.6 L 49.436827659606934 21.58510866165161 L 42.31724481582641 59.0 L 57.5 59.0 L 67.5 49.0 L 79.5 59.0 L 79.5 63.0 L 73.28342542648315 63.0 L 70.7 79.7 L 67.0 96.7 L 62.5 112.5 L 57.2 127.1 L 55.70569849014282 130.3296194076538 L 58.9 132.4 L 63.8 136.3 L 68.4 140.6 L 72.5 145.3 L 75.97799997329712 150.0 L 120.9 150.0 L 120.9 126.0 L 81.6 126.0 L 81.6 122.0 L 120.9 122.0 L 120.9 98.0 L 87.1 98.0 L 87.1 94.0 L 120.9 94.0 L 120.9 70.0 L 79.7 70.0 L 79.7 66.0 L 120.9 66.0 L 120.9 42.0 L 87.1 42.0 L 87.1 38.0 L 120.9 38.0 L 120.9 13.0 L 132.9 15.0 L 135.9 17.0 L 132.9 18.8 L 132.9 38.0 L 157.0 38.0 L 163.0 33.0 L 174.0 42.0 L 169.0 46.0 L 169.0 66.0 L 174.6777777671814 66.0 L 180.9 59.0 L 188.9 66.0 L 188.9 70.0 L 169.0 70.0 L 169.0 102.0 L 157.0 108.0 L 157.0 98.0 L 132.9 98.0 L 132.9 122.0 L 155.8 122.0 L 165.8 112.0 L 177.8 122.0 L 177.8 126.0 L 132.9 126.0 L 132.9 150.0 L 165.0 150.0 L 175.0 140.0 L 187.0 150.0 L 187.0 154.0 L 132.9 154.0 L 132.9 183.0 L 120.9 189.0 L 120.9 154.0 L 76.69333333969116 154.0 L 76.8 154.8 L 74.2 158.5 L 69.6 159.1 L 65.9 156.5 L 63.3 152.0 Z M 41.556095123291016 63.0 L 30.9 119.0 L 29.289473724365234 119.0 L 35.1 120.6 L 41.6 123.0 L 47.76605958938599 125.68521947860718 L 48.5 123.8 L 52.9 109.6 L 56.6 94.3 L 59.4 77.9 L 61.16331357955933 63.0 Z M 132.9 70.0 L 132.9 94.0 L 157.0 94.0 L 157.0 70.0 Z M 132.9 42.0 L 132.9 66.0 L 157.0 66.0 L 157.0 42.0 Z " />
</g>
</svg>
