<svg xmlns="http://www.w3.org/2000/svg" xmlns:xlink="http://www.w3.org/1999/xlink" version="1.1" baseProfile="full" viewBox="0 0 200 200" width="200" height="200">
<g fill="black">
<path d="M 102.0 51.0 L 102.0 55.0 L 68.0 55.0 L 68.0 78.0 L 82.5 78.0 L 88.0 73.0 L 98.5 82.0 L 93.5 85.5 L 93.5 177.0 L 82.5 182.5 L 82.5 171.0 L 30.5 171.0 L 30.5 183.0 L 19.5 188.5 L 19.5 72.5 L 30.5 78.0 L 41.5 78.0 L 41.5 55.0 L 13.0 55.0 L 13.0 51.0 L 80.0 51.0 L 90.0 41.0 Z M 166.3 178.7 L 162.3 175.2 L 158.0 172.0 L 153.4 169.0 L 151.24230766296387 167.85769233703613 L 148.4 170.7 L 141.0 176.0 L 132.6 180.3 L 123.2 183.5 L 112.7 185.8 L 101.2 187.0 L 100.9 185.2 L 111.8 182.1 L 121.4 178.5 L 129.7 174.4 L 136.8 169.7 L 142.6 164.5 L 143.1559241294861 163.82322273254394 L 142.9 163.7 L 137.2 161.4 L 131.0 159.1 L 129.03002796173095 158.46354751586915 L 128.5 159.9 L 115.2 161.4 L 125.9523585319519 132.3 L 96.7 132.3 L 96.7 128.3 L 127.43034591674805 128.3 L 138.7 97.8 L 149.2 103.8 L 151.4 106.8 L 147.82428522109984 107.5283863067627 L 140.15989303588867 128.3 L 169.3 128.3 L 179.3 118.3 L 191.3 128.3 L 191.3 132.3 L 166.76494846343994 132.3 L 165.8 140.1 L 163.4 149.1 L 159.6 157.3 L 156.82419595718383 161.29715785980224 L 157.1 161.4 L 162.8 164.0 L 168.1 167.0 L 173.1 170.4 L 177.9 174.2 L 182.3 178.4 L 183.7 182.8 L 181.7 186.9 L 177.3 188.3 L 173.2 186.3 L 169.9 182.4 Z M 30.5 147.0 L 30.5 167.0 L 82.5 167.0 L 82.5 147.0 Z M 138.68395719528198 132.3 L 130.17729406356813 155.35429000854492 L 131.8 155.4 L 138.5 156.2 L 145.0 157.5 L 147.5841368675232 158.20855369567872 L 150.7 152.6 L 153.1 145.8 L 154.6 138.4 L 154.8259259223938 132.3 Z M 80.0 91.5 L 82.0 91.5 L 80.0 112.5 L 82.5 114.16666669845581 L 82.5 82.0 L 68.0 82.0 L 68.0 108.0 L 68.1 109.3 L 68.3 110.3 L 68.6 111.0 L 68.9 111.5 L 69.5 111.9 L 70.0 112.1 L 70.7 112.3 L 71.7 112.4 L 73.0 112.5 L 74.5 112.5 Z M 117.4 107.1 L 106.4 112.6 L 106.4 30.6 L 117.4 36.1 L 131.1039999961853 36.1 L 131.5 35.2 L 132.2 32.6 L 132.8 30.0 L 133.5 27.6 L 134.2 25.3 L 134.8 23.0 L 135.3 20.8 L 135.9 18.7 L 136.4 16.7 L 136.5864686012268 15.767656803131104 L 136.4 15.7 L 136.775 14.825 L 136.8 14.7 L 136.82379913330078 14.711135387420654 L 137.3 13.6 L 147.7 19.8 L 149.6 22.9 L 144.96000003814697 23.380000019073485 L 143.7 25.0 L 142.2 26.8 L 139.0 30.6 L 137.3 32.5 L 135.5 34.4 L 133.8 36.1 L 168.8 36.1 L 174.8 31.1 L 185.8 40.1 L 180.8 44.1 L 180.8 101.1 L 168.8 107.1 L 168.8 95.1 L 117.4 95.1 Z M 117.4 66.9 L 117.4 91.1 L 137.6 91.1 L 137.6 66.9 Z M 149.6 66.9 L 149.6 91.1 L 168.8 91.1 L 168.8 66.9 Z M 50.5 55.0 L 50.5 78.0 L 58.0 78.0 L 58.0 55.0 Z M 117.4 40.1 L 117.4 62.9 L 137.6 62.9 L 137.6 40.1 Z M 149.6 40.1 L 149.6 62.9 L 168.8 62.9 L 168.8 40.1 Z M 81.6 17.3 L 84.0 19.9 L 80.16442737579345 21.155278301239015 L 77.6 27.2 L 76.0 30.5 L 74.3 33.8 L 72.5 37.1 L 70.5 40.5 L 68.4 43.8 L 66.0 47.0 L 63.8 50.4 L 62.1 49.5 L 63.4 45.7 L 64.3 41.9 L 65.2 38.2 L 66.1 34.6 L 67.0 31.1 L 67.7 27.6 L 68.4 24.2 L 69.0 20.9 L 69.5 17.7 L 69.77360820770264 15.511134052276612 L 69.7 15.5 L 69.87142858505248 14.72857141494751 L 69.9 14.5 L 69.9211000442505 14.50504961013794 L 70.3 12.8 Z M 38.2 36.5 L 37.8 33.9 L 37.3 31.2 L 36.6 28.6 L 35.8 25.9 L 34.9 23.2 L 33.8 20.6 L 32.6 17.8 L 31.0 15.3 L 32.3 14.1 L 34.6 16.2 L 37.1 18.1 L 39.4 20.3 L 41.5 22.7 L 43.4 25.2 L 45.1 27.9 L 46.7 30.7 L 48.1 33.7 L 49.3 36.8 L 50.4 40.0 L 49.3 44.4 L 45.4 46.9 L 41.0 45.8 L 38.5 42.0 L 38.4 39.2 Z M 70.4 123.3 L 68.0 122.8 L 65.7 122.0 L 63.6 120.8 L 61.7 119.2 L 60.2 117.2 L 59.1 115.1 L 58.4 112.8 L 58.0 110.4 L 58.0 82.0 L 50.5 82.0 L 50.5 83.0 L 50.0 89.7 L 49.2 96.1 L 47.9 102.3 L 46.3 108.2 L 44.2 113.8 L 41.7 119.0 L 38.8 124.0 L 35.5 128.6 L 31.7 132.7 L 30.5 133.73255815505982 L 30.5 143.0 L 82.5 143.0 L 82.5 121.83333330154419 L 80.0 123.5 L 73.0 123.5 Z M 30.5 82.0 L 30.5 129.1307692527771 L 32.1 126.3 L 34.5 121.6 L 36.5 116.7 L 38.2 111.6 L 39.5 106.4 L 40.5 100.9 L 41.2 95.1 L 41.5 89.2 L 41.5 82.0 Z " />
</g>
</svg>
