<svg xmlns="http://www.w3.org/2000/svg" xmlns:xlink="http://www.w3.org/1999/xlink" version="1.1" baseProfile="full" viewBox="0 0 200 200" width="200" height="200">
<g fill="black">
<path d="M 145.7 176.4 L 135.7 172.3 L 125.4 168.3 L 114.8 164.5 L 111.28528804779053 163.31777868270873 L 100.3 170.1 L 87.4 176.0 L 73.0 180.6 L 57.1 184.0 L 39.8 186.1 L 21.0 186.8 L 20.9 185.1 L 39.3 182.3 L 56.0 178.8 L 71.1 174.3 L 84.4 169.0 L 96.1 162.8 L 100.35833616256714 159.7339979171753 L 92.5 157.3 L 80.9 153.9 L 69.0 150.5 L 61.99368963241577 148.4899929046631 L 61.6 149.0 L 57.1 154.5 L 52.4 159.9 L 43.5 152.0 L 47.9 146.8 L 52.2 141.5 L 56.4 136.1 L 60.4 130.5 L 64.4 124.8 L 66.23448276519775 122.0 L 15.0 122.0 L 15.0 118.0 L 68.8 118.0 L 71.8 113.0 L 75.4 106.9 L 78.8 100.6 L 82.1 94.2 L 82.14014873504638 94.21970262527466 L 82.7 93.1 L 92.9 99.5 L 94.7 102.7 L 91.10089168548583 102.94400730133057 L 89.4 106.2 L 85.9 112.7 L 82.753125 118.0 L 163.0 118.0 L 173.0 108.0 L 185.0 118.0 L 185.0 122.0 L 141.57603302001954 122.0 L 136.7 133.8 L 130.0 144.8 L 121.7 154.6 L 118.98954248428345 156.89978218078613 L 128.3 159.5 L 139.1 162.8 L 149.6 166.4 L 159.8 170.2 L 169.7 174.2 L 172.8 177.6 L 172.7 182.2 L 169.3 185.3 L 164.7 185.1 L 155.4 180.7 Z M 80.35079364776611 122.0 L 78.3 125.4 L 74.3 131.5 L 70.2 137.5 L 66.0 143.3 L 63.91224203109741 146.0045955657959 L 69.8 146.7 L 82.1 148.6 L 94.1 150.9 L 105.8 153.5 L 107.76115207672119 153.99888954162597 L 114.4 147.6 L 121.2 138.8 L 126.4 129.0 L 128.81111106872558 122.0 Z M 61.991699600219725 14.170707035064698 L 71.3 22.1 L 71.5 25.1 L 67.48757762908936 23.32981367111206 L 65.1 24.1 L 61.9 24.7 L 58.6 25.2 L 51.8 26.2 L 48.2 26.7 L 44.5 27.1 L 40.6 27.4 L 36.7 27.6 L 34.4 27.656097602844238 L 34.4 53.2 L 49.977777767181394 53.2 L 56.2 46.2 L 64.2 53.2 L 64.2 57.2 L 34.4 57.2 L 34.4 82.7 L 49.977777767181394 82.7 L 56.2 75.7 L 64.2 82.7 L 64.2 86.7 L 34.4 86.7 L 34.4 98.7 L 22.4 104.7 L 22.4 19.1 L 33.072463798522946 24.436231899261475 L 35.7 23.3 L 39.4 21.8 L 42.9 20.4 L 46.2 19.1 L 49.5 17.7 L 52.7 16.4 L 55.7 15.2 L 58.7 13.9 L 60.55666847229004 13.037975406646728 L 60.5 12.9 L 60.624824142456056 13.006331634521484 L 61.5 12.6 Z M 96.4 87.5 L 116.4 87.5 L 117.7 87.4 L 118.6 87.2 L 119.2 87.1 L 119.5 86.9 L 119.7 86.7 L 119.8 86.5 L 120.0 86.2 L 120.2 85.6 L 120.4 84.7 L 120.4 73.5 L 84.0222222328186 73.5 L 83.8 75.1 L 82.8 78.5 L 81.6 81.8 L 79.9 84.8 L 78.0 87.5 L 75.7 90.0 L 73.2 92.2 L 70.3 94.2 L 67.2 95.8 L 64.0 97.5 L 63.1 96.1 L 65.8 93.9 L 67.8 91.3 L 69.5 88.8 L 70.9 86.4 L 72.0 83.9 L 72.8 81.5 L 73.3 79.0 L 73.6 76.6 L 73.6 74.1 L 73.3 71.5 L 73.3 41.57142858505249 L 72.2 42.2 L 67.6 44.4 L 62.8 46.5 L 61.9 45.0 L 65.8 41.7 L 69.4 38.3 L 72.6 35.1 L 73.3 34.32758617401123 L 73.3 31.6 L 75.00107526779175 32.45053768157959 L 75.5 31.9 L 78.1 28.8 L 80.2 25.8 L 82.1 22.8 L 83.6 19.8 L 84.7 16.9 L 85.23972606658936 15.010958862304687 L 85.2 15.0 L 85.35882349014283 14.594117641448975 L 85.5 14.1 L 85.54568729400634 14.116576862335204 L 86.1 12.7 L 96.8 18.2 L 98.39310340881347 20.4 L 110.9 20.4 L 111.45555553436279 19.937036991119385 L 111.5 19.7 L 111.65104894638061 19.774125862121583 L 116.9 15.4 L 127.9 24.4 L 122.9 27.4 L 118.73853206634521 29.133944988250732 L 117.1 30.6 L 115.1 32.2 L 112.9 33.6 L 110.6 34.9 L 108.2 36.2 L 105.86000003814698 37.1 L 120.4 37.1 L 126.4 32.1 L 137.4 41.1 L 132.4 45.1 L 132.4 83.5 L 132.3 86.0 L 131.9 88.5 L 131.1 90.9 L 129.8 93.2 L 128.2 95.2 L 126.2 96.9 L 123.9 98.1 L 121.5 98.9 L 119.0 99.3 L 116.4 99.5 L 116.4 93.5 L 96.4 90.5 Z M 182.9 29.6 L 177.9 33.6 L 177.9 93.2 L 165.9 99.2 L 165.9 87.2 L 137.8 87.2 L 137.8 83.2 L 165.9 83.2 L 165.9 57.7 L 137.8 57.7 L 137.8 53.7 L 165.9 53.7 L 165.9 29.6 L 137.8 29.6 L 137.8 25.6 L 165.9 25.6 L 171.9 20.6 Z M 84.3 56.3 L 84.3 69.5 L 96.2 69.5 L 96.2 56.3 Z M 107.2 56.3 L 107.2 69.5 L 120.4 69.5 L 120.4 56.3 Z M 84.3 41.1 L 84.3 52.3 L 96.2 52.3 L 96.2 41.1 Z M 107.2 41.1 L 107.2 52.3 L 120.4 52.3 L 120.4 41.1 Z M 93.14117650985717 24.4 L 92.6 25.2 L 90.0 28.5 L 87.1 31.6 L 83.8 34.5 L 81.95168542861938 35.925842666625975 L 84.3 37.1 L 100.2470588684082 37.1 L 101.6 36.1 L 103.4 34.1 L 105.1 32.1 L 106.6 30.2 L 107.9 28.3 L 109.0 26.5 L 109.9 24.7 L 110.02352943420411 24.4 Z " />
</g>
</svg>
