<svg xmlns="http://www.w3.org/2000/svg" xmlns:xlink="http://www.w3.org/1999/xlink" version="1.1" baseProfile="full" viewBox="0 0 200 200" width="200" height="200">
<g fill="black">
<path d="M 164.8 182.5 L 163.0 184.2 L 161.1 185.7 L 159.0 186.9 L 156.9 188.0 L 154.6 188.8 L 152.2 189.3 L 149.8 189.6 L 147.3 189.8 L 147.3 183.8 L 127.3 180.8 L 127.3 177.8 L 147.3 177.8 L 148.7 177.7 L 150.0 177.5 L 151.2 177.2 L 152.3 176.9 L 153.3 176.4 L 154.3 175.8 L 155.2 175.1 L 156.1 174.3 L 156.9 173.3 L 157.71818180084227 172.20909090042113 L 157.8 171.8 L 158.1 170.8 L 158.3 169.3 L 158.6 167.5 L 158.8 165.3 L 159.1 162.7 L 159.3 159.8 L 159.4 156.6 L 159.474285697937 155.3 L 126.86521739959717 155.3 L 124.5 160.1 L 120.4 166.3 L 115.5 171.9 L 110.1 176.8 L 103.9 181.0 L 97.2 184.5 L 89.9 187.1 L 82.0 189.0 L 81.5 187.2 L 88.4 183.6 L 94.6 179.8 L 100.2 175.6 L 105.0 171.1 L 109.2 166.3 L 112.7 161.1 L 115.6 155.5 L 117.9 149.4 L 119.6 142.9 L 120.51142854690552 137.1 L 81.7 137.1 L 81.7 133.1 L 128.5 133.1 L 128.5 116.0 L 140.5 118.0 L 143.5 120.0 L 140.5 121.8 L 140.5 133.1 L 169.61818180084228 133.1 L 177.8 124.1 L 187.8 133.1 L 187.8 137.1 L 130.5358974456787 137.1 L 132.6 137.8 L 135.2 140.2 L 131.63711338043214 141.65154638290406 L 130.6 145.8 L 128.59324321746826 151.3 L 159.6 151.3 L 165.6 146.3 L 176.6 155.3 L 171.6 158.3 L 171.32261304855348 158.41557788848877 L 171.2 160.5 L 171.0 163.6 L 170.8 166.4 L 170.5 169.0 L 170.2 171.2 L 169.8 173.3 L 169.4 175.1 L 168.8 176.9 L 167.8 178.7 L 166.4 180.7 Z M 64.1 150.0 L 60.3 146.3 L 56.1 142.6 L 54.54772777557373 141.3851782798767 L 50.8 148.3 L 42.7 160.2 L 33.5 170.8 L 23.4 180.0 L 12.2 187.7 L 11.2 186.2 L 20.8 177.2 L 29.5 167.3 L 37.3 156.4 L 44.2 144.6 L 47.91045217514038 136.48731651306153 L 46.5 135.5 L 41.0 132.0 L 35.1 128.4 L 28.9 124.8 L 22.3 121.1 L 22.3375 121.0 L 19.2 121.0 L 31.157089519500733 63.0 L 10.8 63.0 L 10.8 59.0 L 31.981716442108155 59.0 L 41.3 13.8 L 52.7 18.1 L 55.2 20.7 L 51.95929708480835 21.678325366973876 L 44.2338191986084 59.0 L 65.66432428359985 59.0 L 66.22437000274658 51.599395751953125 L 66.2 51.6 L 66.4 48.3 L 78.3 51.3 L 81.1 53.5 L 77.87248783111572 55.20868291854858 L 76.2 70.5 L 73.1 88.4 L 69.1 105.2 L 64.0 120.8 L 58.656229400634764 133.41480264663696 L 61.5 135.1 L 66.6 138.5 L 71.3 142.0 L 75.7 145.8 L 79.6 149.8 L 80.9 154.2 L 78.8 158.3 L 74.4 159.5 L 70.3 157.4 L 67.4 153.7 Z M 43.40583086013794 63.0 L 31.4 121.0 L 29.15 121.0 L 30.4 121.3 L 37.4 123.6 L 44.0 126.1 L 50.2 128.9 L 50.981533241271975 129.297389793396 L 55.2 117.8 L 59.3 102.7 L 62.6 86.4 L 64.9 69.1 L 65.36162166595459 63.0 Z M 127.9 97.9 L 130.3 100.6 L 126.31999998092651 101.7371428489685 L 125.8 103.0 L 123.1 107.7 L 119.8 111.9 L 116.0 115.6 L 111.6 118.8 L 106.8 121.5 L 101.4 123.7 L 95.7 125.5 L 89.4 126.6 L 82.7 127.2 L 82.4 125.4 L 88.4 123.0 L 93.9 120.4 L 98.7 117.8 L 102.9 115.0 L 106.5 112.1 L 109.5 108.9 L 111.9 105.7 L 113.9 102.2 L 115.3 98.6 L 116.3 94.7 L 116.35530395507813 94.71525621414185 L 116.8 93.0 Z M 181.5 104.2 L 183.5 104.2 L 181.5 113.2 L 183.9 114.8 L 185.5 117.2 L 183.9 119.6 L 181.5 121.2 L 154.2 121.2 L 151.8 121.0 L 149.6 120.5 L 147.5 119.6 L 145.5 118.2 L 143.8 116.5 L 142.5 114.4 L 141.5 112.1 L 140.9 109.7 L 140.5 107.2 L 140.5 93.7 L 152.5 95.7 L 155.5 97.7 L 152.5 99.5 L 152.5 107.2 L 152.4 108.4 L 152.3 109.4 L 152.4 110.1 L 152.4 110.7 L 152.6 111.1 L 152.8 111.6 L 153.2 112.0 L 154.0 112.5 L 155.1 112.9 L 156.5 113.2 L 177.5 113.2 Z M 81.3 109.6 L 80.5 105.1 L 83.0 101.3 L 83.8 101.3 L 84.8 100.9 L 85.8 100.1 L 86.9 98.9 L 88.0 97.3 L 89.0 95.3 L 90.0 92.9 L 90.9 90.1 L 91.7 86.9 L 92.0 83.4 L 93.8 83.4 L 94.1 87.0 L 94.31818180084228 88.2 L 128.5 88.2 L 128.5 74.8 L 107.0 74.8 L 95.0 80.8 L 95.0 21.6 L 107.0 27.6 L 126.53125 27.6 L 127.0 26.1 L 127.8 23.1 L 128.4 20.3 L 128.6 19.0 L 128.8 17.8 L 128.8953890800476 16.655331420898438 L 128.5 16.5 L 128.9 15.7 L 128.9 15.6 L 128.9401487350464 15.619702625274659 L 129.5 14.5 L 139.7 20.9 L 141.5 24.1 L 135.6 24.5 L 136.18571424484253 23.98571424484253 L 135.1 24.8 L 133.8 25.7 L 132.4 26.6 L 131.0 27.4 L 130.68888893127442 27.6 L 161.2 27.6 L 167.2 22.6 L 178.2 31.6 L 173.2 35.6 L 173.2 74.8 L 161.2 80.8 L 161.2 74.8 L 138.7 74.8 L 140.5 75.1 L 143.5 77.1 L 140.5 78.9 L 140.5 88.2 L 174.3 88.2 L 175.01304349899291 87.60579710006714 L 175.1 87.2 L 175.33636360168458 87.33636360168457 L 180.3 83.2 L 191.3 92.2 L 186.3 95.2 L 181.05555553436278 97.38518514633179 L 180.0 98.3 L 178.4 99.7 L 176.7 101.1 L 172.9 104.1 L 170.7 105.6 L 168.9 107.5 L 167.5 106.4 L 169.0 104.2 L 170.0 101.8 L 171.8 97.4 L 172.5 95.4 L 173.3 93.6 L 173.76666669845582 92.2 L 94.878125 92.2 L 95.0 93.5 L 95.2 96.5 L 95.0 99.3 L 94.6 102.0 L 94.0 104.6 L 92.9 107.1 L 91.5 109.4 L 89.6 111.4 L 85.1 112.2 Z M 107.0 59.8 L 107.0 70.8 L 161.2 70.8 L 161.2 59.8 Z M 107.0 45.7 L 107.0 55.8 L 161.2 55.8 L 161.2 45.7 Z M 107.0 31.6 L 107.0 41.7 L 161.2 41.7 L 161.2 31.6 Z " />
</g>
</svg>
