<svg xmlns="http://www.w3.org/2000/svg" xmlns:xlink="http://www.w3.org/1999/xlink" version="1.1" baseProfile="full" viewBox="0 0 200 200" width="200" height="200">
<g fill="black">
<path d="M 52.1 182.9 L 47.1 187.5 L 45.7 186.4 L 49.0 180.7 L 52.1 174.9 L 55.0 169.0 L 57.7 162.9 L 60.2 156.5 L 62.4 149.9 L 64.3 143.1 L 66.0 136.0 L 67.4 128.6 L 68.02727270126343 124.0 L 61.035616397857666 124.0 L 58.8 130.8 L 56.0 137.8 L 52.9 144.6 L 49.5 151.2 L 45.8 157.5 L 41.7 163.5 L 37.4 169.3 L 32.6 174.8 L 27.4 179.9 L 21.9 184.6 L 20.6 183.3 L 24.6 177.4 L 28.4 171.5 L 32.0 165.6 L 35.3 159.6 L 38.4 153.4 L 41.2 147.1 L 43.7 140.7 L 45.9 134.1 L 47.9 127.3 L 48.70943393707275 124.0 L 39.97272729873657 124.0 L 38.5 126.7 L 34.7 133.0 L 30.7 139.0 L 26.3 144.7 L 21.6 150.1 L 16.6 155.1 L 11.2 159.6 L 9.9 158.3 L 13.7 152.6 L 17.4 146.8 L 20.9 141.0 L 24.2 135.0 L 27.3 128.9 L 30.2 122.5 L 32.9 116.0 L 35.3 109.3 L 37.6 102.4 L 38.544444465637206 99.0 L 11.7 99.0 L 11.7 95.0 L 86.51818180084229 95.0 L 94.7 86.0 L 104.7 95.0 L 104.7 99.0 L 50.98648653030396 99.0 L 48.3 106.1 L 45.3 113.2 L 42.14637680053711 120.0 L 85.2 120.0 L 91.2 115.0 L 97.7 120.31818180084228 L 97.7 117.1 L 127.78999996185303 117.1 L 133.4 98.5 L 144.4 103.9 L 146.6 106.7 L 143.30346927642822 107.50858297348023 L 140.38895025253296 117.1 L 170.3 117.1 L 180.3 107.1 L 192.3 117.1 L 192.3 121.1 L 167.7982300758362 121.1 L 166.8 130.5 L 164.4 140.9 L 160.7 150.4 L 157.56129035949706 155.78064517974855 L 159.2 156.6 L 164.6 159.9 L 169.8 163.7 L 174.8 167.9 L 179.4 172.5 L 183.8 177.6 L 184.8 182.0 L 182.5 185.9 L 178.0 187.0 L 174.1 184.7 L 170.7 179.9 L 167.1 175.4 L 163.2 171.3 L 159.0 167.3 L 154.5 163.7 L 152.7532760620117 162.43641242980956 L 149.6 166.2 L 142.3 172.5 L 133.8 177.7 L 124.3 181.7 L 113.8 184.5 L 102.2 186.2 L 101.9 184.4 L 112.7 180.9 L 122.2 176.8 L 130.5 172.0 L 137.5 166.6 L 143.3 160.5 L 145.34142389297486 157.58988513946534 L 144.7 157.2 L 139.3 154.3 L 133.6 151.5 L 130.37667074203492 150.04950180053712 L 127.9 158.2 L 114.7 160.5 L 126.58354835510254 121.1 L 98.65555553436279 121.1 L 102.2 124.0 L 97.2 127.0 L 97.1204330444336 127.03315286636352 L 97.1 128.3 L 96.8 134.3 L 96.3 140.0 L 95.8 145.6 L 95.2 150.9 L 94.4 156.0 L 93.5 160.9 L 92.4 165.6 L 91.3 170.1 L 90.0 174.3 L 89.1 176.7 L 87.9 178.9 L 86.5 181.0 L 84.9 182.8 L 82.9 184.4 L 80.8 185.7 L 78.6 186.7 L 76.2 187.4 L 73.7 187.8 L 71.2 188.0 L 71.2 182.0 L 55.241025638580325 179.34017095565795 Z M 139.17348070144652 121.1 L 131.15833530426025 147.4771146774292 L 134.7 147.9 L 141.2 149.3 L 147.4 151.2 L 148.91813955307006 151.83255815505981 L 151.5 146.3 L 154.1 138.1 L 155.6 129.0 L 155.83939390182496 121.1 Z M 174.7 99.8 L 170.7 94.8 L 167.8 88.7 L 165.7 81.3 L 164.2 72.6 L 163.4 62.7 L 163.1 51.4 L 163.3 38.6 L 163.9638298034668 26.9 L 107.2 26.9 L 107.2 22.9 L 164.1 22.9 L 170.1 17.9 L 181.1 26.9 L 176.1 29.9 L 175.75946950912476 30.041887760162354 L 175.3 39.1 L 175.1 51.3 L 175.4 62.0 L 176.1 71.2 L 177.4 78.7 L 179.1 84.5 L 181.0 88.6 L 181.23529415130616 88.91372547149658 L 186.2 67.4 L 188.2 67.4 L 186.2744680404663 92.43191490173339 L 190.4 94.2 L 192.2 98.4 L 190.4 102.6 L 186.2 104.4 L 180.0 103.2 Z M 141.0729097366333 34.5762541770935 L 140.8 42.9 L 140.52429904937745 48.8 L 145.6777777671814 48.8 L 151.9 41.8 L 159.9 48.8 L 159.9 52.8 L 140.33738317489625 52.8 L 140.3 53.6 L 139.4 63.0 L 138.0 71.3 L 137.97123289108276 71.4 L 144.21818180084227 71.4 L 152.4 62.4 L 162.4 71.4 L 162.4 75.4 L 136.82054796218873 75.4 L 135.9 78.6 L 132.9 85.0 L 129.0 90.5 L 124.1 95.0 L 118.1 98.6 L 111.0 101.6 L 110.1 99.9 L 116.0 95.5 L 120.4 91.0 L 123.7 86.5 L 126.1 81.7 L 127.7 76.2 L 127.8375 75.4 L 107.2 75.4 L 107.2 71.4 L 128.525 71.4 L 128.8 69.8 L 129.4 62.2 L 129.6 53.2 L 129.59615383148193 52.8 L 109.7 52.8 L 109.7 48.8 L 129.55769233703614 48.8 L 129.5 42.8 L 129.2247422218323 31.69793815612793 L 129.2 31.7 L 129.2 28.3 L 141.2 30.7 L 144.2 32.7 Z M 35.6 23.0 L 78.5 23.0 L 84.5 18.0 L 95.5 27.0 L 90.5 31.0 L 90.5 79.0 L 78.5 85.0 L 78.5 77.0 L 35.6 77.0 L 35.6 80.0 L 23.6 86.0 L 23.6 17.0 Z M 35.6 50.0 L 35.6 73.0 L 78.5 73.0 L 78.5 50.0 Z M 35.6 27.0 L 35.6 46.0 L 78.5 46.0 L 78.5 27.0 Z M 80.8 162.8 L 81.7 158.5 L 82.5 154.0 L 83.3 149.3 L 83.9 144.3 L 84.4 139.0 L 84.8 133.5 L 85.1 127.8 L 85.16333332061768 124.0 L 80.0555555343628 124.0 L 78.5 131.0 L 76.4 138.7 L 73.9 146.1 L 71.1 153.2 L 68.0 159.9 L 64.5 166.2 L 60.7 172.2 L 57.91785717010498 176.0 L 71.2 176.0 L 72.5 175.9 L 73.6 175.7 L 74.5 175.4 L 75.3 175.1 L 75.9 174.7 L 76.5 174.2 L 77.0 173.6 L 77.6 172.8 L 78.1 171.8 L 78.6 170.6 L 79.7 166.8 Z " />
</g>
</svg>
