<svg xmlns="http://www.w3.org/2000/svg" xmlns:xlink="http://www.w3.org/1999/xlink" version="1.1" baseProfile="full" viewBox="0 0 200 200" width="200" height="200">
<g fill="black">
<path d="M 166.7 165.0 L 161.4 159.5 L 156.4 153.5 L 151.6 147.3 L 147.1 140.7 L 143.0 133.7 L 139.1 126.3 L 136.0 119.27941179275513 L 136.0 181.3 L 124.0 187.3 L 124.0 127.28000001907348 L 123.1 129.0 L 118.3 137.2 L 113.1 144.8 L 107.5 151.9 L 101.5 158.5 L 95.2 164.5 L 88.5 170.0 L 81.4 174.7 L 73.9 178.8 L 72.9 177.3 L 79.1 171.7 L 85.0 165.9 L 90.6 159.9 L 95.8 153.5 L 100.7 146.8 L 105.3 139.6 L 109.6 132.1 L 113.5 124.2 L 117.2 115.8 L 118.88358211517334 111.1 L 76.7 111.1 L 76.7 107.1 L 124.0 107.1 L 124.0 77.8 L 136.0 79.8 L 139.0 81.8 L 136.0 83.6 L 136.0 107.1 L 161.3 107.1 L 171.3 97.1 L 183.3 107.1 L 183.3 111.1 L 136.0 111.1 L 136.0 111.83999996185302 L 139.4 116.6 L 144.2 123.3 L 149.0 129.7 L 153.9 135.7 L 158.9 141.4 L 164.0 146.7 L 169.2 151.7 L 174.6 156.2 L 180.1 160.5 L 185.8 164.3 L 189.1 166.7 L 178.1 175.1 L 172.3 170.2 Z M 64.3 151.1 L 60.8 146.7 L 56.9 142.3 L 55.99206352233887 141.39206352233887 L 49.3 153.3 L 41.6 164.0 L 33.0 173.2 L 23.5 180.8 L 13.2 186.7 L 12.2 185.2 L 21.1 177.8 L 29.1 169.4 L 36.4 160.0 L 42.8 149.5 L 48.4 137.7 L 49.357542991638184 135.1400382041931 L 48.3 134.2 L 43.6 130.3 L 38.5 126.6 L 33.2 122.9 L 30.696713161468505 121.24604263305665 L 29.7 125.1 L 26.5 136.6 L 15.0 133.3 L 18.1 121.9 L 21.1 110.5 L 24.0 99.0 L 26.8 87.4 L 29.4 75.7 L 31.9 63.9 L 32.283193302154544 62.0 L 12.7 62.0 L 12.7 58.0 L 33.089915943145755 58.0 L 34.3 52.0 L 36.5 40.1 L 38.6 28.1 L 40.6 16.0 L 40.63263854980469 16.00521116256714 L 40.9 14.0 L 52.5 17.9 L 55.1 20.3 L 51.89232273101807 21.60683145523071 L 50.5 30.1 L 48.3 42.3 L 46.0 54.3 L 45.26000003814697 58.0 L 64.9 58.0 L 70.9 53.0 L 81.9 62.0 L 76.9 65.0 L 76.21452589035034 65.28561420440674 L 74.5 79.3 L 71.2 96.8 L 67.1 112.9 L 62.1 127.8 L 59.82942476272583 132.87095136642455 L 63.2 135.5 L 68.0 139.8 L 72.5 144.3 L 76.7 149.1 L 80.6 154.2 L 81.3 158.7 L 78.7 162.5 L 74.2 163.2 L 70.5 160.7 L 67.5 155.8 Z M 44.46000003814697 62.0 L 43.6 66.3 L 41.1 78.2 L 38.5 90.1 L 35.7 101.8 L 32.7 113.5 L 31.420930194854737 118.44573640823364 L 34.9 119.5 L 41.2 121.9 L 47.1 124.8 L 52.134874534606936 127.71492738723755 L 53.3 124.6 L 57.4 110.3 L 60.7 94.7 L 63.2 77.7 L 64.65846996307373 62.0 Z M 102.8 25.5 L 157.1 25.5 L 163.1 20.5 L 174.1 29.5 L 169.1 33.5 L 169.1 79.4 L 157.1 85.4 L 157.1 73.4 L 102.8 73.4 L 102.8 85.4 L 90.8 91.4 L 90.8 19.5 Z M 102.8 29.5 L 102.8 69.4 L 157.1 69.4 L 157.1 29.5 Z " />
</g>
</svg>
