<svg xmlns="http://www.w3.org/2000/svg" xmlns:xlink="http://www.w3.org/1999/xlink" version="1.1" baseProfile="full" viewBox="0 0 200 200" width="200" height="200">
<g fill="black">
<path d="M 122.96739130020141 123.96739130020141 L 129.3 130.3 L 129.4 133.7 L 125.57643413543701 132.07984495162964 L 124.4 132.5 L 121.4 133.5 L 118.2 134.4 L 114.8 135.3 L 111.2 136.1 L 107.4 136.8 L 103.4 137.4 L 99.2 138.0 L 95.8 138.22666664123534 L 95.8 155.1 L 109.01818180084229 155.1 L 117.2 146.1 L 127.2 155.1 L 127.2 159.1 L 95.8 159.1 L 95.8 177.3 L 168.1 177.3 L 168.1 159.1 L 136.7 159.1 L 136.7 155.1 L 168.1 155.1 L 168.1 136.9 L 135.4 136.9 L 135.4 132.9 L 168.1 132.9 L 174.1 127.9 L 185.1 136.9 L 180.1 140.9 L 180.1 183.3 L 168.1 189.3 L 168.1 181.3 L 95.8 181.3 L 95.8 184.3 L 83.8 190.3 L 83.8 130.0 L 94.36708860397339 135.28354434967042 L 98.0 133.6 L 101.8 131.9 L 105.4 130.3 L 108.7 128.6 L 111.8 127.1 L 114.6 125.5 L 117.1 124.0 L 119.4 122.5 L 120.55765924453735 121.58605852127076 L 120.5 121.5 L 120.5735294342041 121.5735294342041 L 121.3 121.0 Z M 63.9 147.7 L 60.4 143.6 L 56.6 139.6 L 54.90227108001709 138.06395950317383 L 53.7 140.6 L 46.4 152.8 L 38.3 163.8 L 29.2 173.5 L 19.3 181.8 L 8.6 188.7 L 7.5 187.2 L 16.8 178.9 L 25.3 169.8 L 33.0 159.8 L 40.0 148.8 L 46.1 136.8 L 47.97233066558838 132.25786457061767 L 47.9 132.2 L 42.9 128.8 L 37.6 125.5 L 31.936231994628905 122.32034072875976 L 29.8 133.2 L 16.9 136.7 L 31.412123680114746 63.0 L 13.5 63.0 L 13.5 59.0 L 32.199755859375 59.0 L 41.1 13.8 L 52.4 18.1 L 55.0 20.6 L 51.71436386108398 21.591890144348145 L 44.36924409866333 59.0 L 65.1 59.0 L 71.1 54.0 L 82.1 63.0 L 77.1 66.0 L 76.24193229675294 66.35752820968628 L 74.1 79.8 L 70.3 96.7 L 65.6 112.5 L 60.1 127.1 L 58.764017295837405 129.91808853149413 L 62.6 132.5 L 67.5 136.4 L 72.0 140.6 L 76.1 145.3 L 79.9 150.2 L 80.6 154.7 L 78.1 158.5 L 73.5 159.2 L 69.8 156.6 L 67.0 152.1 Z M 116.4 45.5 L 118.7 48.2 L 114.88036003112794 49.22311782836914 L 114.4 50.4 L 112.5617021560669 54.0 L 172.0 54.0 L 178.0 49.0 L 189.0 58.0 L 184.0 61.0 L 183.949790763855 61.02092046737671 L 183.9 66.0 L 183.8 75.1 L 183.7 83.2 L 183.5 90.3 L 183.3 96.5 L 182.9 101.7 L 182.6 106.0 L 182.1 109.5 L 181.5 112.4 L 179.9 115.6 L 178.3 117.5 L 176.5 119.2 L 174.7 120.7 L 172.7 122.0 L 170.6 123.2 L 168.4 124.1 L 166.1 124.8 L 163.8 125.3 L 161.4 125.6 L 159.0 125.7 L 159.0 119.7 L 139.0 116.7 L 139.0 113.7 L 153.83225803375245 113.7 L 151.2 111.3 L 151.4 110.6 L 151.2 109.6 L 150.8 108.5 L 150.2 107.2 L 149.5327868461609 106.19918031692505 L 145.0 107.3 L 138.1 108.9 L 131.2 110.2 L 124.5 111.5 L 117.9 112.6 L 111.4 113.8 L 98.8 116.0 L 92.7 117.0 L 90.76554622650147 117.32240896224975 L 89.0 120.8 L 86.7 118.0 L 83.2 106.4 L 85.2 106.1 L 91.3 105.7 L 103.9 104.9 L 110.4 104.5 L 117.0 104.2 L 120.0 104.06567163467408 L 120.0 91.5 L 105.3 91.5 L 93.3 97.5 L 93.3 75.6387755393982 L 88.6 78.9 L 83.3 82.1 L 77.4 84.8 L 76.5 83.3 L 81.0 79.0 L 85.3 74.8 L 89.1 70.7 L 92.6 66.6 L 93.3 65.64333333969117 L 93.3 65.0 L 93.64464282989502 65.1723214149475 L 95.6 62.5 L 98.3 58.5 L 100.5 54.4 L 102.4 50.3 L 103.8 46.2 L 104.6553882598877 43.01173477172851 L 104.6 43.0 L 104.88800001144409 42.1 L 99.8 42.1 L 99.8 45.1 L 87.8 51.1 L 87.8 12.6 L 99.8 18.6 L 167.1 18.6 L 173.1 13.6 L 184.1 22.6 L 179.1 26.6 L 179.1 42.1 L 167.1 48.1 L 167.1 42.1 L 108.91999998092652 42.1 Z M 43.58384017944336 63.0 L 32.65322160720825 118.66876964569092 L 33.3 118.8 L 39.8 120.6 L 46.0 123.0 L 50.841434955596924 125.29763011932373 L 51.5 123.7 L 56.0 109.5 L 59.9 94.2 L 62.9 77.8 L 64.76057138442994 63.0 Z M 110.13111114501953 58.0 L 109.1 59.6 L 105.8 63.9 L 102.1 68.0 L 101.13529415130616 68.91764707565308 L 105.3 71.0 L 120.0 71.0 L 120.0 58.1 L 132.0 60.1 L 135.0 62.1 L 132.0 63.9 L 132.0 71.0 L 146.6 71.0 L 152.6 66.0 L 163.6 75.0 L 158.6 79.0 L 158.6 91.5 L 146.6 97.5 L 146.6 91.5 L 132.0 91.5 L 132.0 103.65714282989502 L 137.5 103.5 L 144.6 103.6 L 147.51230230331421 103.6797890663147 L 146.5 102.6 L 144.8 100.9 L 142.9 99.1 L 140.5 97.8 L 141.2 96.2 L 143.9 97.2 L 146.5 97.7 L 149.0 98.4 L 151.4 99.1 L 153.5 100.0 L 155.5 100.9 L 157.4 102.0 L 159.1 103.3 L 160.7 104.7 L 162.2 106.4 L 162.3 110.9 L 159.7991011619568 113.64292135238648 L 161.8 113.5 L 163.1 113.2 L 164.3 112.8 L 166.5 111.8 L 167.5 111.1 L 168.6 110.2 L 169.5 109.3 L 170.0865385055542 108.59615383148193 L 170.3 107.6 L 170.6 104.8 L 171.0 100.9 L 171.3 95.9 L 171.5 89.9 L 171.7 82.9 L 171.8 74.9 L 171.9 65.9 L 171.97979793548583 58.0 Z M 105.3 75.0 L 105.3 87.5 L 120.0 87.5 L 120.0 75.0 Z M 132.0 75.0 L 132.0 87.5 L 146.6 87.5 L 146.6 75.0 Z M 99.8 22.6 L 99.8 38.1 L 114.2 38.1 L 114.2 22.6 Z M 126.2 22.6 L 126.2 38.1 L 140.7 38.1 L 140.7 22.6 Z M 152.7 22.6 L 152.7 38.1 L 167.1 38.1 L 167.1 22.6 Z " />
</g>
</svg>
