<svg xmlns="http://www.w3.org/2000/svg" xmlns:xlink="http://www.w3.org/1999/xlink" version="1.1" baseProfile="full" viewBox="0 0 200 200" width="200" height="200">
<g fill="black">
<path d="M 70.9 148.0 L 67.0 143.8 L 62.8 139.8 L 60.17769594192505 137.67983922958373 L 58.6 140.7 L 50.7 153.0 L 41.7 163.9 L 31.9 173.6 L 21.0 181.9 L 9.3 188.7 L 8.4 187.2 L 18.7 178.9 L 28.1 169.7 L 36.7 159.7 L 44.4 148.7 L 51.2 136.7 L 53.13693590164185 132.39934568405153 L 53.0 132.3 L 47.4 128.9 L 41.5 125.6 L 35.1 122.3 L 34.6283974647522 122.07475700378419 L 32.2 133.3 L 19.2 136.6 L 35.1296989440918 63.0 L 14.8 63.0 L 14.8 59.0 L 35.995443439483644 59.0 L 45.8 13.7 L 57.1 18.2 L 59.6 20.8 L 56.33779945373535 21.723264312744142 L 48.27358818054199 59.0 L 72.2 59.0 L 78.2 54.0 L 89.2 63.0 L 84.2 66.0 L 83.27137174606324 66.38692846298218 L 80.9 79.8 L 76.8 96.8 L 71.7 112.6 L 65.6 127.3 L 64.26286678314209 129.8596549987793 L 68.4 132.4 L 73.7 136.3 L 78.6 140.5 L 83.2 145.1 L 87.3 150.1 L 88.2 154.5 L 85.8 158.4 L 81.3 159.3 L 77.5 156.9 L 74.4 152.3 Z M 116.7 110.5 L 115.7 124.0 L 114.1 136.4 L 111.6 147.5 L 108.5 157.5 L 104.6 166.3 L 99.8 173.8 L 94.4 180.0 L 88.2 184.7 L 81.4 187.8 L 80.5 186.1 L 85.9 181.7 L 90.4 176.4 L 94.3 170.3 L 97.7 163.1 L 100.4 154.9 L 102.6 145.5 L 104.1 134.9 L 105.0 123.2 L 105.3 110.2 L 105.0 96.1 L 105.0655647277832 96.09834709167481 L 105.0 96.0 L 105.0 18.0 L 117.0 20.0 L 120.0 22.0 L 117.0 23.8 L 117.0 96.0 L 116.89513893127442 96.15729169845581 Z M 182.0 20.0 L 185.0 22.0 L 182.0 23.8 L 182.0 177.0 L 170.0 183.0 L 170.0 18.0 Z M 149.0 29.0 L 152.0 31.0 L 149.0 32.8 L 149.0 153.0 L 137.0 159.0 L 137.0 27.0 Z M 47.40825366973877 63.0 L 35.39611444473267 118.5259931564331 L 36.4 118.7 L 43.5 120.6 L 50.3 122.9 L 56.244041442871094 125.5005181312561 L 57.1 123.6 L 62.2 109.4 L 66.4 94.1 L 69.7 77.7 L 71.8 63.0 Z " />
</g>
</svg>
