<svg xmlns="http://www.w3.org/2000/svg" xmlns:xlink="http://www.w3.org/1999/xlink" version="1.1" baseProfile="full" viewBox="0 0 200 200" width="200" height="200">
<g fill="black">
<path d="M 125.0 177.0 L 145.0 177.0 L 146.2 176.9 L 147.1 176.7 L 148.0 176.4 L 148.4 176.0 L 148.7 175.1 L 148.9 174.2 L 149.0 173.0 L 149.0 140.0 L 86.0 140.0 L 86.0 136.0 L 149.0 136.0 L 149.0 120.0 L 161.0 122.0 L 164.0 124.0 L 161.0 125.8 L 161.0 136.0 L 166.0 136.0 L 176.0 126.0 L 188.0 136.0 L 188.0 140.0 L 161.0 140.0 L 161.0 173.0 L 160.8 175.5 L 160.4 178.0 L 159.6 180.4 L 158.3 182.7 L 156.7 184.7 L 154.7 186.3 L 152.4 187.6 L 150.0 188.4 L 147.5 188.8 L 145.0 189.0 L 145.0 183.0 L 125.0 180.0 Z M 67.2 147.9 L 63.9 143.8 L 60.2 139.9 L 58.82741012573242 138.59603958129884 L 57.8 140.8 L 50.8 153.0 L 42.9 164.0 L 34.2 173.6 L 24.6 181.9 L 14.2 188.7 L 13.2 187.3 L 22.1 179.1 L 30.2 170.0 L 37.6 160.1 L 44.2 149.1 L 50.1 137.2 L 51.91961622238159 132.61596670150757 L 51.9 132.6 L 47.2 129.2 L 42.1 125.9 L 36.89686965942383 122.87272415161132 L 34.9 133.4 L 22.0 137.1 L 35.94276371002197 63.6 L 18.9 63.6 L 18.9 59.6 L 36.70155353546143 59.6 L 45.2 14.8 L 56.6 19.0 L 59.2 21.5 L 55.939053535461426 22.48443670272827 L 48.89877624511719 59.6 L 68.3 59.6 L 74.3 54.6 L 85.3 63.6 L 80.3 66.6 L 79.47782182693481 66.9425742149353 L 77.4 80.3 L 73.8 97.2 L 69.3 112.9 L 64.0 127.5 L 62.703061199188234 130.282142829895 L 66.3 132.8 L 71.0 136.7 L 75.4 141.0 L 79.4 145.6 L 83.0 150.5 L 83.7 155.0 L 81.0 158.7 L 76.5 159.4 L 72.8 156.7 L 70.2 152.2 Z M 114.7 165.3 L 113.5 163.0 L 112.2 160.7 L 110.7 158.4 L 108.9 156.0 L 106.9 153.5 L 104.6 151.1 L 102.2 148.5 L 99.4 146.2 L 100.3 144.7 L 103.7 146.3 L 107.1 147.7 L 110.3 149.3 L 113.2 151.0 L 116.0 152.9 L 118.6 155.0 L 121.1 157.2 L 123.3 159.6 L 125.3 162.1 L 127.1 164.7 L 127.3 169.3 L 124.2 172.7 L 119.7 172.8 L 116.2 169.8 L 115.6 167.6 Z M 142.0 17.0 L 145.0 19.0 L 142.0 20.8 L 142.0 40.0 L 165.0 40.0 L 175.0 30.0 L 187.0 40.0 L 187.0 44.0 L 142.0 44.0 L 142.0 59.0 L 165.0 59.0 L 171.0 54.0 L 182.0 63.0 L 177.0 67.0 L 177.0 117.0 L 165.0 123.0 L 165.0 104.0 L 142.0 104.0 L 142.0 118.0 L 130.0 124.0 L 130.0 104.0 L 107.0 104.0 L 107.0 122.0 L 95.0 128.0 L 95.0 53.0 L 107.0 59.0 L 130.0 59.0 L 130.0 44.0 L 86.0 44.0 L 86.0 40.0 L 130.0 40.0 L 130.0 15.0 Z M 48.14003496170044 63.6 L 37.60925369262695 119.11711444854737 L 38.0 119.2 L 44.3 121.0 L 50.3 123.4 L 54.71665363311767 125.56958417892456 L 55.3 124.1 L 59.7 110.0 L 63.3 94.8 L 66.2 78.4 L 67.98620691299439 63.6 Z M 107.0 83.0 L 107.0 100.0 L 130.0 100.0 L 130.0 83.0 Z M 142.0 83.0 L 142.0 100.0 L 165.0 100.0 L 165.0 83.0 Z M 107.0 63.0 L 107.0 79.0 L 130.0 79.0 L 130.0 63.0 Z M 142.0 63.0 L 142.0 79.0 L 165.0 79.0 L 165.0 63.0 Z M 158.2 28.1 L 157.4 26.6 L 155.4 23.6 L 154.1 22.0 L 152.7 20.5 L 151.2 18.9 L 149.6 17.3 L 147.5 16.2 L 148.2 14.5 L 150.5 15.3 L 152.9 15.7 L 155.3 16.2 L 157.5 16.9 L 159.6 17.8 L 161.7 18.8 L 163.7 19.9 L 165.6 21.1 L 167.4 22.5 L 169.1 24.1 L 170.1 28.5 L 167.7 32.4 L 163.2 33.3 L 159.3 30.9 L 158.8 29.5 Z " />
</g>
</svg>
