<svg xmlns="http://www.w3.org/2000/svg" xmlns:xlink="http://www.w3.org/1999/xlink" version="1.1" baseProfile="full" viewBox="0 0 200 200" width="200" height="200">
<g fill="black">
<path d="M 47.3 106.0 L 70.1 106.0 L 76.1 101.0 L 87.1 110.0 L 82.1 114.0 L 82.1 167.2 L 82.3 168.1 L 82.5 168.7 L 82.7 169.0 L 82.8 169.2 L 83.0 169.4 L 83.9 169.7 L 84.8 169.9 L 86.1 170.0 L 101.3 170.0 L 107.3 145.0 L 109.3 145.0 L 107.3 170.0 L 110.9 172.4 L 113.3 176.0 L 110.9 179.6 L 107.3 182.0 L 86.1 182.0 L 83.5 181.8 L 81.0 181.4 L 78.6 180.6 L 76.3 179.3 L 74.3 177.7 L 72.7 175.7 L 71.4 173.4 L 70.6 171.0 L 70.2 168.5 L 70.1 166.0 L 70.1 110.0 L 47.3 110.0 L 47.3 113.0 L 46.6 124.0 L 45.2 134.2 L 43.2 143.8 L 40.4 152.6 L 36.9 160.7 L 32.6 167.9 L 27.7 174.3 L 22.0 179.8 L 15.6 184.3 L 8.7 187.7 L 7.8 186.2 L 13.3 181.3 L 18.2 176.0 L 22.5 170.3 L 26.1 164.1 L 29.1 157.2 L 31.5 149.8 L 33.4 141.6 L 34.6 132.8 L 35.2 123.2 L 35.3 113.0 L 35.3 100.0 Z M 164.6 167.4 L 160.7 160.3 L 156.6 153.8 L 154.30764093399048 150.41604146957397 L 148.3 160.1 L 140.6 169.2 L 131.8 176.8 L 122.0 182.7 L 111.3 186.8 L 110.7 185.1 L 120.1 179.4 L 128.4 172.7 L 135.7 164.9 L 142.0 155.8 L 147.4 145.6 L 148.5322696685791 142.61492538452148 L 147.9 141.8 L 143.4 136.5 L 138.6 131.5 L 133.7 126.7 L 132.8179147720337 125.90612325668334 L 132.8 126.0 L 119.9 129.7 L 130.13524808883668 76.0 L 106.7 76.0 L 106.7 72.0 L 130.89765014648438 72.0 L 141.8 14.8 L 153.2 19.1 L 155.8 21.6 L 152.53481168746947 22.58571720123291 L 143.1049578666687 72.0 L 167.2 72.0 L 177.2 62.0 L 189.2 72.0 L 189.2 76.0 L 172.06201114654542 76.0 L 170.9 92.0 L 168.5 108.4 L 165.1 123.5 L 160.6 137.1 L 158.4632188796997 141.7551302909851 L 158.9 142.2 L 164.1 148.3 L 169.1 154.9 L 173.9 162.0 L 178.5 169.6 L 182.8 177.7 L 183.0 182.3 L 179.9 185.7 L 175.4 185.8 L 172.0 182.8 L 168.4 174.9 Z M 142.34162769317626 76.0 L 133.46059045791625 122.53837642669677 L 135.9 123.7 L 142.0 127.3 L 147.9 131.7 L 151.46504135131835 134.88307266235353 L 151.8 134.0 L 155.3 121.0 L 157.9 106.7 L 159.5 90.9 L 160.02899408340454 76.0 Z M 46.1 23.0 L 71.8 23.0 L 77.8 18.0 L 88.8 27.0 L 83.8 31.0 L 83.8 78.0 L 83.9 79.2 L 84.1 80.1 L 84.2 80.7 L 84.4 81.0 L 84.8 81.4 L 85.7 81.7 L 86.6 81.9 L 87.8 82.0 L 95.4 82.0 L 101.4 57.0 L 103.4 57.0 L 101.4 82.0 L 105.0 84.4 L 107.4 88.0 L 105.0 91.6 L 101.4 94.0 L 87.8 94.0 L 85.3 93.8 L 82.8 93.4 L 80.4 92.6 L 78.1 91.3 L 76.1 89.7 L 74.4 87.7 L 73.2 85.4 L 72.4 83.0 L 72.0 80.5 L 71.8 78.0 L 71.8 27.0 L 46.1 27.0 L 46.1 52.0 L 45.5 59.4 L 44.3 66.4 L 42.5 73.1 L 40.1 79.2 L 37.0 84.9 L 33.4 90.1 L 29.3 94.7 L 24.5 98.7 L 19.2 102.1 L 13.4 104.7 L 12.5 103.2 L 17.0 99.0 L 20.9 94.8 L 24.3 90.4 L 27.2 85.8 L 29.5 81.0 L 31.4 75.9 L 32.8 70.4 L 33.7 64.7 L 34.1 58.5 L 34.1 17.0 Z " />
</g>
</svg>
