<svg xmlns="http://www.w3.org/2000/svg" xmlns:xlink="http://www.w3.org/1999/xlink" version="1.1" baseProfile="full" viewBox="0 0 200 200" width="200" height="200">
<g fill="black">
<path d="M 59.7 151.0 L 56.4 146.5 L 52.9 142.2 L 52.465909767150876 141.73163948059081 L 46.4 153.2 L 39.2 163.9 L 31.1 173.1 L 22.2 180.7 L 12.5 186.7 L 11.5 185.2 L 19.7 177.8 L 27.1 169.5 L 33.8 160.1 L 39.8 149.6 L 45.0 137.8 L 45.95195932388306 135.0287407875061 L 45.0 134.1 L 40.6 130.3 L 35.9 126.6 L 31.0 122.9 L 29.13371686935425 121.54602994918824 L 28.3 125.0 L 25.3 136.5 L 13.7 133.4 L 16.6 122.0 L 19.4 110.6 L 22.1 99.1 L 24.7 87.4 L 29.5 64.0 L 29.869747924804688 62.0 L 12.0 62.0 L 12.0 58.0 L 30.60924367904663 58.0 L 31.7 52.1 L 33.8 40.2 L 35.8 28.2 L 37.6 16.1 L 37.623671531677246 16.103381633758545 L 37.9 14.1 L 49.5 17.8 L 52.2 20.2 L 48.90785236358643 21.602210998535156 L 47.6 30.0 L 45.6 42.2 L 43.5 54.3 L 42.81596641540527 58.0 L 60.2 58.0 L 66.2 53.0 L 77.2 62.0 L 72.2 65.0 L 71.63410997390747 65.23578748703002 L 70.0 79.2 L 66.9 96.7 L 63.1 112.8 L 58.4 127.7 L 56.21420612335205 132.93029251098633 L 59.5 135.6 L 64.0 139.9 L 68.2 144.4 L 72.1 149.2 L 75.7 154.3 L 76.3 158.8 L 73.6 162.5 L 69.1 163.1 L 65.4 160.4 L 62.7 155.6 Z M 142.7 186.8 L 140.6 187.1 L 138.5 187.3 L 136.3 187.5 L 132.1 187.7 L 129.9 187.8 L 129.9 181.8 L 109.9 178.8 L 109.9 175.8 L 129.9 175.8 L 131.8 175.7 L 133.6 175.7 L 135.4 175.5 L 137.3 175.4 L 139.1 175.2 L 144.5 174.3 L 146.3 173.9 L 148.1 173.4 L 148.4 173.3 L 148.8 173.0 L 149.6 172.0 L 150.4 170.4 L 151.3 168.1 L 152.1 165.1 L 152.8 161.5 L 153.3 157.2 L 153.7 152.3 L 153.81999998092653 149.0 L 111.11379308700562 149.0 L 110.1 153.2 L 97.0 156.2 L 103.61202745437622 129.1 L 74.4 129.1 L 74.4 125.1 L 169.3181818008423 125.1 L 177.5 116.1 L 187.5 125.1 L 187.5 129.1 L 115.91724138259887 129.1 L 112.07931032180787 145.0 L 153.9 145.0 L 159.9 140.0 L 170.9 149.0 L 165.9 152.0 L 165.73151865005494 152.07020053863525 L 165.7 153.0 L 165.3 158.4 L 164.6 163.3 L 163.8 167.8 L 162.7 171.8 L 161.4 175.4 L 159.6 178.6 L 157.4 181.4 L 154.5 183.6 L 151.1 185.1 L 149.0 185.6 Z M 42.0764705657959 62.0 L 41.3 66.2 L 38.9 78.1 L 36.4 90.0 L 33.8 101.7 L 31.1 113.4 L 29.8460901260376 118.59476957321166 L 32.8 119.5 L 38.7 122.0 L 44.3 124.9 L 48.56342496871948 127.42647399902344 L 49.5 124.7 L 53.3 110.4 L 56.4 94.7 L 58.7 77.8 L 60.08142080307007 62.0 Z M 80.2 105.8 L 84.1 105.6 L 88.1 105.40952377319336 L 88.1 67.2 L 93.2 68.05 L 93.2 50.97826089859009 L 88.7 54.5 L 83.7 57.6 L 78.4 60.3 L 77.4 58.9 L 81.4 54.6 L 85.1 50.4 L 88.7 46.3 L 91.9 42.1 L 93.2 40.29677419662475 L 93.2 35.2 L 95.78461542129517 36.49230766296387 L 97.7 33.3 L 100.2 28.8 L 102.5 24.2 L 104.4 19.4 L 106.1 14.5 L 106.14535942077637 14.517414760589599 L 106.7 13.1 L 117.3 18.8 L 119.4 21.7 L 115.58477783203125 22.436270904541015 L 115.2716980934143 23.1 L 141.6 23.1 L 142.2 22.6 L 142.3 22.2 L 142.52852230072023 22.326231384277342 L 147.6 18.1 L 158.6 27.1 L 153.6 30.1 L 149.01176471710204 32.011764717102054 L 146.1 34.6 L 144.0 36.2 L 141.9 37.7 L 139.6 39.2 L 137.1 40.7 L 136.1714285850525 41.2 L 163.5 41.2 L 169.5 36.2 L 180.5 45.2 L 175.5 49.2 L 175.5 65.1 L 163.5 71.1 L 163.5 65.1 L 105.2 65.1 L 97.775 68.8125 L 100.1 69.2 L 103.1 71.2 L 100.1 73.0 L 100.1 83.2 L 112.11818180084228 83.2 L 120.3 74.2 L 130.3 83.2 L 130.3 87.2 L 100.1 87.2 L 100.1 104.50392160415649 L 102.7 104.3 L 108.2 103.9 L 113.9 103.5 L 120.0 103.2 L 126.4 102.9 L 133.2 102.8 L 133.5 104.6 L 127.0 106.6 L 120.9 108.5 L 115.0 110.0 L 109.4 111.4 L 104.0 112.7 L 99.0 113.9 L 94.3 115.0 L 89.8 116.0 L 85.88000001907349 116.83999996185302 L 84.1 120.4 L 81.8 117.7 L 78.2 106.1 Z M 149.5 115.6 L 147.1 115.3 L 144.8 114.7 L 142.7 113.7 L 140.7 112.3 L 139.0 110.4 L 137.7 108.3 L 136.8 106.0 L 136.2 103.6 L 135.9 101.0 L 135.9 67.2 L 147.9 69.2 L 150.9 71.2 L 147.9 73.0 L 147.9 86.3307692527771 L 149.7 85.5 L 153.5 83.9 L 160.7 80.9 L 164.1 79.5 L 167.4 78.1 L 170.6 76.8 L 173.6 75.4 L 175.55237112045288 74.52479915618896 L 175.5 74.4 L 175.6140471458435 74.49715127944947 L 176.5 74.1 L 177.0105146408081 75.68673467636108 L 186.3 83.6 L 186.6 86.7 L 182.48446960449218 84.85099353790284 L 180.2 85.6 L 173.6 86.8 L 170.1 87.4 L 166.5 88.0 L 162.8 88.6 L 158.9 89.1 L 154.9 89.6 L 150.8 90.0 L 147.9 90.13488368988037 L 147.9 101.0 L 147.8 102.3 L 147.8 103.3 L 147.9 104.0 L 148.1 104.8 L 148.3 105.2 L 148.7 105.6 L 149.5 106.0 L 150.5 106.3 L 151.9 106.5 L 176.6 106.5 L 181.1 93.5 L 183.1 93.5 L 181.1 106.5 L 183.8 108.3 L 185.6 111.0 L 183.8 113.7 L 181.1 115.5 L 151.9 115.5 Z M 105.2 45.2 L 105.2 61.1 L 163.5 61.1 L 163.5 45.2 Z M 113.09411764144897 27.1 L 111.9 29.2 L 108.8 34.0 L 105.4 38.6 L 103.77142858505249 40.48571424484253 L 105.2 41.2 L 132.1380952835083 41.2 L 132.9 40.4 L 134.5 37.9 L 136.0 35.6 L 137.3 33.4 L 138.5 31.3 L 139.6 29.3 L 140.5 27.3 L 140.58888893127443 27.1 Z " />
</g>
</svg>
