<svg xmlns="http://www.w3.org/2000/svg" xmlns:xlink="http://www.w3.org/1999/xlink" version="1.1" baseProfile="full" viewBox="0 0 200 200" width="200" height="200">
<g fill="black">
<path d="M 49.5 151.8 L 47.0 147.4 L 45.79732618331909 145.41096258163452 L 42.3 154.3 L 36.9 165.1 L 30.8 174.5 L 24.1 182.3 L 16.7 188.5 L 15.5 187.1 L 21.2 179.9 L 26.3 171.6 L 31.0 162.1 L 35.2 151.5 L 39.0 139.6 L 39.702290058135986 136.70305347442627 L 38.5 135.1 L 35.2 131.4 L 31.8 127.7 L 28.1 124.1 L 27.963460063934328 123.96705322265625 L 27.6 125.9 L 25.3 137.5 L 13.5 135.1 L 15.8 123.6 L 18.0 112.0 L 20.1 100.4 L 22.1 88.6 L 24.0 76.8 L 25.8 64.9 L 26.144999980926514 62.6 L 14.8 62.6 L 14.8 58.6 L 26.744999980926515 58.6 L 27.6 52.9 L 30.8 28.7 L 32.2 16.4 L 32.22859811782837 16.40336446762085 L 32.5 14.3 L 44.1 17.8 L 46.9 20.1 L 43.67182598114014 21.56181468963623 L 42.7 30.1 L 41.1 42.4 L 39.5 54.5 L 38.89008264541626 58.6 L 49.9 58.6 L 55.9 53.6 L 66.9 62.6 L 61.9 65.6 L 61.43388433456421 65.79421491622925 L 60.1 79.8 L 57.7 97.4 L 54.8 113.6 L 51.2 128.5 L 49.26905574798584 134.90508346557618 L 51.7 137.4 L 55.3 141.7 L 58.7 146.3 L 61.8 151.2 L 64.7 156.3 L 64.8 160.9 L 61.7 164.3 L 57.2 164.4 L 53.8 161.3 L 51.7 156.5 Z M 79.9 111.6 L 106.9 111.6 L 112.9 106.6 L 123.9 115.6 L 118.9 119.6 L 118.9 173.3 L 106.9 179.3 L 106.9 173.3 L 79.9 173.3 L 79.9 180.3 L 67.9 186.3 L 67.9 105.6 Z M 167.8 169.1 L 161.5 158.8 L 155.9 146.8 L 153.7191285133362 140.89881830215455 L 149.9 149.0 L 142.7 161.2 L 134.8 171.4 L 126.3 179.6 L 117.1 185.7 L 116.1 184.2 L 123.6 176.9 L 130.6 168.1 L 137.1 157.7 L 143.1 145.7 L 148.6 131.9 L 149.58033628463744 128.79893617630006 L 146.3 117.5 L 142.3 100.1 L 138.8 80.9 L 136.1 59.9 L 134.175 39.0 L 123.4 39.0 L 123.4 35.0 L 167.9 35.0 L 173.9 30.0 L 184.9 39.0 L 179.9 42.0 L 179.201353931427 42.291102504730226 L 176.4 60.7 L 172.4 82.0 L 167.7 101.5 L 162.4 119.1 L 159.00695848464966 128.24395942687988 L 159.6 129.9 L 165.2 142.6 L 171.1 153.3 L 177.2 162.0 L 183.5 168.7 L 189.8 173.4 L 193.6 175.9 L 182.6 184.5 L 174.8 177.7 Z M 79.9 115.6 L 79.9 169.3 L 106.9 169.3 L 106.9 115.6 Z M 38.29504127502442 62.6 L 35.9 78.7 L 33.9 90.6 L 31.9 102.4 L 29.8 114.2 L 28.663275051116944 120.24531002044678 L 30.3 120.9 L 35.1 123.5 L 39.6 126.4 L 41.78178596496582 128.12513303756714 L 42.2 126.4 L 44.9 111.8 L 47.1 95.9 L 48.8 78.7 L 49.757297325134275 62.6 Z M 136.2302222251892 39.0 L 140.2 59.3 L 144.6 79.8 L 149.3 98.5 L 154.0504638671875 114.27153987884522 L 158.0 99.0 L 161.9 79.9 L 165.2 59.0 L 167.6561403274536 39.0 Z M 113.2 80.1 L 112.67034015655517 77.76066913604737 L 111.0 78.5 L 105.0 80.9 L 99.3 83.1 L 93.8 85.0 L 88.6 86.8 L 83.5 88.4 L 78.8 89.9 L 74.3 91.3 L 70.1525424003601 92.48498792648316 L 68.6 96.2 L 66.1 93.6 L 61.8 82.3 L 63.7 81.9 L 67.7 81.4 L 72.0 80.8 L 73.40827341079712 80.58093528747558 L 73.8 78.1 L 75.2 70.7 L 76.6 63.4 L 77.9 56.3 L 79.3 49.4 L 80.5 42.6 L 81.7 36.0 L 82.8 29.5 L 83.7 23.1 L 84.6 16.8 L 84.67015857696533 16.813080406188966 L 85.0 14.9 L 96.4 19.0 L 99.0 21.5 L 95.48523807525635 22.842000007629395 L 94.9 25.3 L 93.3 31.7 L 91.5 38.2 L 89.5 44.8 L 87.5 51.5 L 85.3 58.3 L 82.9 65.2 L 80.3 72.1 L 77.5 79.1 L 77.08709678649902 80.01612901687622 L 81.4 79.4 L 86.5 78.5 L 91.9 77.6 L 97.7 76.7 L 103.7 75.7 L 110.0 74.9 L 111.96630430221558 74.66521739959717 L 110.7 69.6 L 109.2 64.5 L 107.7 59.5 L 106.0 54.6 L 104.2 49.8 L 102.4 45.1 L 100.6 40.3 L 102.1 39.3 L 105.7 43.1 L 108.9 47.3 L 111.9 51.8 L 114.6 56.5 L 117.1 61.4 L 119.5 66.5 L 121.6 71.8 L 123.6 77.3 L 125.3 83.0 L 126.9 88.8 L 126.0 93.3 L 122.3 95.9 L 117.8 95.0 L 115.2 91.2 L 114.3 85.6 Z " />
</g>
</svg>
