<svg xmlns="http://www.w3.org/2000/svg" xmlns:xlink="http://www.w3.org/1999/xlink" version="1.1" baseProfile="full" viewBox="0 0 200 200" width="200" height="200">
<g fill="black">
<path d="M 13.5 112.0 L 13.5 108.0 L 58.2 108.0 L 58.2 74.0 L 34.1 74.0 L 34.1 86.0 L 22.1 92.0 L 22.1 23.0 L 34.1 25.0 L 37.1 27.0 L 34.1 28.8 L 34.1 70.0 L 58.2 70.0 L 58.2 12.0 L 70.2 14.0 L 73.2 16.0 L 70.2 17.8 L 70.2 154.67058820724486 L 80.7 150.7 L 91.3 145.1 L 100.6 138.6 L 108.8 131.1 L 115.7 122.4 L 117.29683656692505 119.74762744903565 L 114.7 117.8 L 107.8 113.1 L 100.5 108.5 L 98.25780696868897 107.16050806045533 L 96.2 115.4 L 83.1 118.3 L 96.7245810508728 63.7 L 79.4 63.7 L 79.4 59.7 L 97.72271881103515 59.7 L 109.9 10.9 L 121.1 15.7 L 123.5 18.4 L 120.19649724960327 19.31763963699341 L 110.1110330581665 59.7 L 142.5 59.7 L 152.5 49.7 L 164.5 59.7 L 164.5 63.7 L 146.19358978271484 63.7 L 144.1 77.9 L 140.5 92.3 L 135.8 105.4 L 129.7 117.2 L 128.7602017402649 118.55748643875123 L 132.3 120.9 L 138.8 125.8 L 144.8 131.0 L 150.4 136.6 L 155.5 142.4 L 160.2 148.7 L 160.9 153.2 L 158.4 156.9 L 153.9 157.7 L 150.1 155.2 L 146.4 149.3 L 142.2 143.6 L 137.6 138.1 L 132.6 132.7 L 127.1 127.6 L 124.18292684555054 125.16910572052002 L 122.5 127.6 L 114.1 136.5 L 104.5 143.9 L 93.8 149.9 L 82.0 154.2 L 70.2 156.78125 L 70.2 182.0 L 58.2 188.0 L 58.2 112.0 L 39.0 112.0 L 39.0 126.0 L 38.5 133.7 L 37.5 141.2 L 36.1 148.4 L 34.2 155.2 L 31.9 161.8 L 29.1 168.0 L 25.9 173.8 L 22.2 179.2 L 17.9 184.1 L 13.2 188.5 L 11.8 187.4 L 14.9 181.9 L 17.6 176.4 L 20.0 170.8 L 22.1 165.1 L 23.8 159.1 L 25.2 153.0 L 26.2 146.6 L 26.8 140.0 L 27.1 133.1 L 27.0 126.0 L 27.0 112.0 Z M 183.0 23.0 L 186.0 25.0 L 183.0 26.8 L 183.0 181.0 L 171.0 187.0 L 171.0 179.0 L 84.5 179.0 L 84.5 175.0 L 171.0 175.0 L 171.0 21.0 Z M 109.1120361328125 63.7 L 99.03583335876465 104.04527778625489 L 102.2 105.1 L 110.4 108.4 L 118.1 112.2 L 120.88811922073364 113.7824460029602 L 121.6 112.6 L 126.4 101.7 L 130.2 89.5 L 132.8 76.0 L 134.09020977020265 63.7 Z " />
</g>
</svg>
