<svg xmlns="http://www.w3.org/2000/svg" xmlns:xlink="http://www.w3.org/1999/xlink" version="1.1" baseProfile="full" viewBox="0 0 200 200" width="200" height="200">
<g fill="black">
<path d="M 12.0 57.0 L 12.0 53.0 L 60.73333330154419 53.0 L 61.8 50.0 L 63.3 45.5 L 64.8 41.2 L 66.3 37.1 L 67.7 33.0 L 68.9 29.0 L 70.1 25.2 L 71.2 21.4 L 72.1 17.7 L 72.67414722442626 15.116337490081786 L 72.6 15.1 L 72.85454549789429 14.304545497894287 L 72.9 14.1 L 72.91817893981934 14.10569076538086 L 73.4 12.6 L 84.4 17.7 L 86.6 20.5 L 82.77404584884644 21.456488513946532 L 81.1 25.1 L 79.2 28.8 L 77.2 32.6 L 75.1 36.4 L 72.8 40.2 L 70.3 44.0 L 67.7 47.8 L 63.594736862182614 53.0 L 78.0 53.0 L 88.0 43.0 L 100.0 53.0 L 100.0 57.0 L 61.0 57.0 L 61.0 113.0 L 60.69565219879151 118.0 L 81.0 118.0 L 81.0 72.0 L 93.0 74.0 L 96.0 76.0 L 93.0 77.8 L 93.0 128.0 L 81.0 134.0 L 81.0 122.0 L 60.45217390060425 122.0 L 60.3 124.5 L 58.9 135.3 L 56.7 145.2 L 53.8 154.3 L 50.0 162.5 L 45.6 169.8 L 40.3 176.2 L 34.3 181.5 L 27.7 185.7 L 20.3 188.8 L 19.6 187.1 L 25.5 182.6 L 30.8 177.5 L 35.3 172.0 L 39.1 165.8 L 42.4 158.9 L 44.9 151.3 L 46.9 142.9 L 48.2 133.8 L 48.9 123.8 L 48.91666669845581 122.0 L 31.0 122.0 L 31.0 134.0 L 19.0 140.0 L 19.0 72.0 L 31.0 74.0 L 34.0 76.0 L 31.0 77.8 L 31.0 118.0 L 48.95370368957519 118.0 L 49.0 113.0 L 49.0 57.0 Z M 161.0 167.6 L 156.6 160.6 L 152.1 153.9 L 148.99019689559935 149.9479585647583 L 141.9 160.2 L 133.4 169.4 L 123.8 176.9 L 113.1 182.7 L 101.4 186.8 L 100.8 185.1 L 111.4 179.4 L 120.6 172.6 L 128.8 164.7 L 135.8 155.7 L 141.8 145.4 L 142.92832679748534 142.72885904312133 L 142.3 142.0 L 137.2 136.6 L 131.9 131.5 L 126.4 126.8 L 124.73541097640991 125.45664749145507 L 124.6 126.1 L 111.6 129.5 L 122.87787456512451 76.0 L 96.4 76.0 L 96.4 72.0 L 123.72108011245727 72.0 L 135.8 14.7 L 147.1 19.2 L 149.6 21.7 L 146.3684754371643 22.67555456161499 L 135.98681011199952 72.0 L 165.5 72.0 L 175.5 62.0 L 187.5 72.0 L 187.5 76.0 L 167.95139665603637 76.0 L 166.7 92.0 L 164.1 108.5 L 160.3 123.6 L 155.4 137.3 L 153.19090909957885 141.71818180084227 L 153.6 142.1 L 159.3 148.1 L 164.8 154.7 L 170.0 161.8 L 175.0 169.4 L 179.8 177.5 L 180.2 182.1 L 177.2 185.6 L 172.7 185.9 L 169.2 183.0 L 165.2 175.1 Z M 135.14490175247192 76.0 L 125.40066699981689 122.29594221115113 L 128.4 123.6 L 135.1 127.2 L 141.5 131.6 L 146.0764482498169 135.2761633872986 L 146.7 133.8 L 150.7 120.9 L 153.5 106.6 L 155.3 90.9 L 155.91715974807738 76.0 Z M 34.9 38.4 L 34.0 35.6 L 33.0 32.8 L 31.7 30.1 L 30.4 27.3 L 28.8 24.6 L 27.1 21.8 L 25.3 18.9 L 23.1 16.3 L 24.3 14.9 L 27.2 16.9 L 30.2 18.8 L 33.0 20.9 L 35.6 23.2 L 38.1 25.7 L 40.3 28.3 L 42.4 31.1 L 44.4 34.0 L 46.1 37.0 L 47.7 40.2 L 47.3 44.8 L 43.9 47.8 L 39.3 47.4 L 36.3 44.0 L 35.7 41.2 Z " />
</g>
</svg>
