<svg xmlns="http://www.w3.org/2000/svg" xmlns:xlink="http://www.w3.org/1999/xlink" version="1.1" baseProfile="full" viewBox="0 0 200 200" width="200" height="200">
<g fill="black">
<path d="M 145.4 180.5 L 137.6 176.9 L 129.3 173.6 L 120.4 170.5 L 113.09174537658691 168.3230731010437 L 104.5 172.7 L 92.0 177.3 L 77.5 181.0 L 61.0 183.8 L 42.5 185.8 L 22.0 186.8 L 21.9 185.0 L 42.1 182.0 L 60.1 178.5 L 75.9 174.6 L 89.5 170.1 L 100.9 165.1 L 101.04344053268433 165.01172895431517 L 101.0 165.0 L 90.5 162.5 L 79.4 160.1 L 69.77324857711793 158.09093885421754 L 63.6 166.8 L 50.3 164.7 L 70.28471078872681 136.5 L 14.0 136.5 L 14.0 132.5 L 73.11942148208618 132.5 L 84.6 116.3 L 93.3 124.9 L 94.6 128.2 L 90.7000675201416 128.5679181098938 L 87.91288785934448 132.5 L 164.0 132.5 L 174.0 122.5 L 186.0 132.5 L 186.0 136.5 L 136.549484539032 136.5 L 134.9 144.5 L 130.5 153.2 L 123.8 160.8 L 121.88698205947875 162.22926626205444 L 122.7 162.4 L 132.2 164.8 L 141.2 167.5 L 149.7 170.6 L 157.8 174.1 L 165.4 177.8 L 168.1 181.5 L 167.5 186.0 L 163.9 188.8 L 159.3 188.2 L 152.7 184.2 Z M 85.07756567001343 136.5 L 71.24884519577026 156.00920486450195 L 79.9 156.3 L 91.4 157.2 L 102.3 158.5 L 109.57804880142211 159.7596622467041 L 110.0 159.5 L 116.8 153.6 L 121.4 147.4 L 124.1 141.0 L 124.65384616851807 136.5 Z M 106.0 12.3 L 109.0 14.3 L 106.0 16.1 L 106.0 25.7 L 148.4 25.7 L 158.4 15.7 L 170.4 25.7 L 170.4 29.7 L 106.0 29.7 L 106.0 43.9 L 150.3 43.9 L 156.3 38.9 L 167.3 47.9 L 162.3 51.9 L 162.3 115.6 L 150.3 121.6 L 150.3 111.6 L 50.5 111.6 L 50.5 118.6 L 38.5 124.6 L 38.5 37.9 L 50.5 43.9 L 94.0 43.9 L 94.0 10.3 Z M 50.5 63.5 L 99.2 63.5 L 105.2 58.5 L 116.2 67.5 L 111.2 71.5 L 111.2 92.2 L 99.2 98.2 L 99.2 90.2 L 50.5 90.2 L 50.5 107.6 L 150.3 107.6 L 150.3 47.9 L 50.5 47.9 Z M 50.5 67.5 L 50.5 86.2 L 99.2 86.2 L 99.2 67.5 Z " />
</g>
</svg>
