<svg xmlns="http://www.w3.org/2000/svg" xmlns:xlink="http://www.w3.org/1999/xlink" version="1.1" baseProfile="full" viewBox="0 0 200 200" width="200" height="200">
<g fill="black">
<path d="M 149.7 132.8 L 139.6 125.7 L 132.0 119.51978025436401 L 132.0 155.0 L 140.0 155.0 L 150.0 145.0 L 162.0 155.0 L 162.0 159.0 L 132.0 159.0 L 132.0 184.0 L 120.0 190.0 L 120.0 159.0 L 93.0 159.0 L 93.0 155.0 L 120.0 155.0 L 120.0 117.90238094329834 L 119.0 118.7 L 110.0 125.0 L 100.4 130.8 L 90.2 136.0 L 79.4 140.8 L 78.5 139.1 L 88.3 132.7 L 97.5 126.2 L 106.2 119.6 L 114.2 112.8 L 119.91526823043823 107.46574964523316 L 115.6 102.4 L 109.9 94.0 L 105.4 85.3 L 102.1 76.3 L 100.96716413497924 70.50995025634765 L 98.0 72.7 L 93.5 75.6 L 88.7 78.5 L 83.6 81.1 L 78.2 83.6 L 72.93638668060302 85.50579099655151 L 70.5 96.7 L 66.0 112.5 L 60.6 127.1 L 59.26598072052002 129.93743772506713 L 63.0 132.5 L 67.7 136.4 L 72.1 140.7 L 76.2 145.3 L 79.9 150.2 L 80.5 154.8 L 77.9 158.5 L 73.4 159.2 L 69.6 156.5 L 67.0 152.0 L 64.0 147.7 L 60.6 143.5 L 56.9 139.6 L 55.39522829055786 138.17046689987183 L 54.3 140.5 L 47.2 152.8 L 39.3 163.8 L 30.5 173.5 L 20.8 181.8 L 10.3 188.7 L 9.3 187.2 L 18.3 178.9 L 26.5 169.9 L 34.0 159.9 L 40.7 148.9 L 46.7 136.9 L 48.525724220275876 132.30057935714723 L 48.4 132.2 L 43.7 128.8 L 38.5 125.5 L 33.239436626434326 122.43930854797364 L 31.2 133.1 L 18.2 136.8 L 32.3 63.0 L 15.1 63.0 L 15.1 59.0 L 33.0642276763916 59.0 L 41.7 13.8 L 53.2 18.1 L 55.7 20.6 L 52.53919553756714 21.55420513153076 L 45.37565221786499 59.0 L 65.1 59.0 L 71.1 54.0 L 82.1 63.0 L 77.1 66.0 L 76.2655511856079 66.34768705368042 L 74.2 79.7 L 73.59981670379639 82.45759887695313 L 76.2 80.3 L 80.7 76.6 L 85.0 73.1 L 88.9 69.6 L 92.6 66.1 L 96.0 62.7 L 99.1 59.3 L 101.9 55.9 L 104.3 52.6 L 105.91270036697388 50.10764484405517 L 105.9 50.1 L 106.05 49.895454502105714 L 106.5 49.2 L 106.53904294967651 49.22857780456543 L 107.0 48.6 L 116.2 56.3 L 117.5 59.7 L 113.49441652297973 59.35469102859497 L 113.1 59.8 L 109.8 63.2 L 106.1 66.5 L 103.1375 68.85480766296386 L 106.0 74.8 L 110.6 82.5 L 115.8 89.9 L 120.0 94.70967741012574 L 120.0 14.0 L 132.0 16.0 L 135.0 18.0 L 132.0 19.8 L 132.0 36.0 L 159.0 36.0 L 169.0 26.0 L 181.0 36.0 L 181.0 40.0 L 132.0 40.0 L 132.0 94.45238094329834 L 134.9 91.0 L 140.6 83.2 L 145.7 75.2 L 149.74899778366088 67.82182626724243 L 149.7 67.8 L 150.37537317276002 66.58432836532593 L 148.6 64.9 L 144.8 60.8 L 141.3 56.3 L 138.0 51.3 L 139.3 50.1 L 144.1 53.3 L 148.7 56.4 L 153.2 59.3 L 157.5 61.9 L 161.7 64.2 L 165.8 66.3 L 169.9 68.1 L 173.9 69.5 L 177.9 70.7 L 181.8 71.6 L 189.8 73.9 L 178.1 84.3 L 173.6 82.5 L 169.2 80.3 L 164.9 77.9 L 161.92459020614623 75.91639347076416 L 158.63317136764528 76.02989063262939 L 155.3 81.4 L 149.2 89.6 L 142.5 97.5 L 135.3 105.0 L 132.93404750823976 107.09641361236572 L 137.0 110.4 L 145.9 116.7 L 155.9 122.7 L 166.8 128.5 L 178.7 134.0 L 184.6 136.6 L 173.2 145.9 L 160.9 139.5 Z M 44.61043481826782 63.0 L 33.9535005569458 118.70670156478882 L 34.4 118.8 L 40.8 120.7 L 46.8 123.0 L 51.33355369567871 125.22700881958008 L 51.9 123.8 L 56.3 109.6 L 60.0 94.3 L 63.0 77.8 L 64.77600002288818 63.0 Z " />
</g>
</svg>
