<svg xmlns="http://www.w3.org/2000/svg" xmlns:xlink="http://www.w3.org/1999/xlink" version="1.1" baseProfile="full" viewBox="0 0 200 200" width="200" height="200">
<g fill="black">
<path d="M 67.0 147.7 L 63.6 143.5 L 59.9 139.6 L 58.39522829055786 138.17046689987183 L 57.3 140.5 L 50.2 152.8 L 42.3 163.8 L 33.5 173.5 L 23.8 181.8 L 13.3 188.7 L 12.3 187.2 L 21.3 178.9 L 29.5 169.9 L 37.0 159.9 L 43.7 148.9 L 49.7 136.9 L 51.525724220275876 132.30057935714723 L 51.4 132.2 L 46.7 128.8 L 41.5 125.5 L 36.239436626434326 122.43930854797364 L 34.2 133.1 L 21.2 136.8 L 35.3 63.0 L 18.1 63.0 L 18.1 59.0 L 36.0642276763916 59.0 L 44.7 13.8 L 56.2 18.1 L 58.7 20.6 L 55.53919553756714 21.55420513153076 L 48.37565221786499 59.0 L 68.1 59.0 L 74.1 54.0 L 85.1 63.0 L 80.1 66.0 L 79.2655511856079 66.34768705368042 L 77.2 79.7 L 73.5 96.7 L 69.0 112.5 L 63.6 127.1 L 62.26598072052002 129.93743772506713 L 66.0 132.5 L 70.7 136.4 L 75.1 140.7 L 79.2 145.3 L 82.9 150.2 L 83.5 154.8 L 80.9 158.5 L 76.4 159.2 L 72.6 156.5 L 70.0 152.0 Z M 159.4 179.5 L 150.6 174.2 L 142.4 167.7 L 136.9172371864319 162.14314584732057 L 134.2 164.8 L 124.8 172.2 L 114.9 178.3 L 104.5 183.0 L 93.7 186.2 L 82.6 187.8 L 82.3 186.1 L 92.6 182.5 L 102.3 178.1 L 111.5 172.6 L 120.2 166.2 L 128.4 158.6 L 131.24072933197021 155.39034481048583 L 128.2 151.5 L 122.1 141.8 L 116.7 131.0 L 112.1 119.2 L 108.91230773925781 108.0 L 91.7 108.0 L 91.7 104.0 L 128.6 104.0 L 128.6 72.0 L 103.0 72.0 L 103.0 84.0 L 91.0 90.0 L 91.0 24.0 L 103.0 26.0 L 106.0 28.0 L 103.0 29.8 L 103.0 68.0 L 128.6 68.0 L 128.6 13.0 L 140.6 15.0 L 143.6 17.0 L 140.6 18.8 L 140.6 68.0 L 166.2 68.0 L 166.2 24.0 L 178.2 26.0 L 181.2 28.0 L 178.2 29.8 L 178.2 78.0 L 166.2 84.0 L 166.2 72.0 L 140.6 72.0 L 140.6 104.0 L 162.3 104.0 L 162.74047622680663 103.63293647766113 L 162.8 103.5 L 162.86516590118407 103.52902841567993 L 168.3 99.0 L 179.3 108.0 L 174.3 111.0 L 172.00993070602416 111.95419549942017 L 166.9 122.1 L 159.5 134.7 L 151.6 146.0 L 143.70506324768067 155.39873418807983 L 148.9 159.8 L 156.5 164.8 L 164.4 168.8 L 172.7 171.6 L 181.4 173.5 L 190.8 175.2 L 178.9 186.4 L 168.9 183.6 Z M 115.9 117.5 L 121.9 128.3 L 128.2 138.0 L 134.8 146.4 L 136.99184474945068 148.7189082145691 L 143.5 140.1 L 150.3 129.1 L 156.8 116.9 L 160.78507461547852 108.0 L 111.18991594314575 108.0 Z M 47.61043481826782 63.0 L 36.9535005569458 118.70670156478882 L 37.4 118.8 L 43.8 120.7 L 49.8 123.0 L 54.33355369567871 125.22700881958008 L 54.9 123.8 L 59.3 109.6 L 63.0 94.3 L 66.0 77.8 L 67.77600002288818 63.0 Z " />
</g>
</svg>
