<svg xmlns="http://www.w3.org/2000/svg" xmlns:xlink="http://www.w3.org/1999/xlink" version="1.1" baseProfile="full" viewBox="0 0 200 200" width="200" height="200">
<g fill="black">
<path d="M 145.7 176.4 L 135.7 172.3 L 125.4 168.3 L 114.8 164.5 L 111.28528804779053 163.31777868270873 L 100.3 170.1 L 87.4 176.0 L 73.0 180.6 L 57.1 184.0 L 39.8 186.1 L 21.0 186.8 L 20.9 185.1 L 39.3 182.3 L 56.0 178.8 L 71.1 174.3 L 84.4 169.0 L 96.1 162.8 L 100.35833616256714 159.7339979171753 L 92.5 157.3 L 80.9 153.9 L 69.0 150.5 L 61.99368963241577 148.4899929046631 L 61.6 149.0 L 57.1 154.5 L 52.4 159.9 L 43.5 152.0 L 47.9 146.8 L 52.2 141.5 L 56.4 136.1 L 60.4 130.5 L 64.4 124.8 L 66.23448276519775 122.0 L 15.0 122.0 L 15.0 118.0 L 68.8 118.0 L 71.8 113.0 L 75.4 106.9 L 78.8 100.6 L 82.1 94.2 L 82.14014873504638 94.21970262527466 L 82.7 93.1 L 92.9 99.5 L 94.7 102.7 L 91.10089168548583 102.94400730133057 L 89.4 106.2 L 85.9 112.7 L 82.753125 118.0 L 163.0 118.0 L 173.0 108.0 L 185.0 118.0 L 185.0 122.0 L 141.57603302001954 122.0 L 136.7 133.8 L 130.0 144.8 L 121.7 154.6 L 118.98954248428345 156.89978218078613 L 128.3 159.5 L 139.1 162.8 L 149.6 166.4 L 159.8 170.2 L 169.7 174.2 L 172.8 177.6 L 172.7 182.2 L 169.3 185.3 L 164.7 185.1 L 155.4 180.7 Z M 80.35079364776611 122.0 L 78.3 125.4 L 74.3 131.5 L 70.2 137.5 L 66.0 143.3 L 63.91224203109741 146.0045955657959 L 69.8 146.7 L 82.1 148.6 L 94.1 150.9 L 105.8 153.5 L 107.76115207672119 153.99888954162597 L 114.4 147.6 L 121.2 138.8 L 126.4 129.0 L 128.81111106872558 122.0 Z M 38.0 86.0 L 76.0 86.0 L 86.0 76.0 L 98.0 86.0 L 98.0 90.0 L 38.0 90.0 L 38.0 102.0 L 26.0 108.0 L 26.0 44.0 L 14.0 44.0 L 14.0 40.0 L 53.0 40.0 L 53.0 13.0 L 65.0 15.0 L 68.0 17.0 L 65.0 18.8 L 65.0 40.0 L 74.0 40.0 L 84.0 30.0 L 96.0 40.0 L 96.0 44.0 L 38.0 44.0 Z M 122.0 86.0 L 159.0 86.0 L 169.0 76.0 L 181.0 86.0 L 181.0 90.0 L 122.0 90.0 L 122.0 102.0 L 110.0 108.0 L 110.0 44.0 L 103.0 44.0 L 103.0 40.0 L 140.0 40.0 L 140.0 13.0 L 152.0 15.0 L 155.0 17.0 L 152.0 18.8 L 152.0 40.0 L 164.0 40.0 L 174.0 30.0 L 186.0 40.0 L 186.0 44.0 L 122.0 44.0 Z " />
</g>
</svg>
