<svg xmlns="http://www.w3.org/2000/svg" xmlns:xlink="http://www.w3.org/1999/xlink" version="1.1" baseProfile="full" viewBox="0 0 200 200" width="200" height="200">
<g fill="black">
<path d="M 66.2 147.8 L 62.6 143.6 L 58.7 139.7 L 56.62565441131592 137.90851974487305 L 55.3 140.6 L 47.8 152.9 L 39.4 163.9 L 30.1 173.5 L 19.9 181.8 L 8.8 188.7 L 7.8 187.2 L 17.5 178.9 L 26.3 169.8 L 34.3 159.8 L 41.4 148.8 L 47.8 136.8 L 49.6675802230835 132.3517635345459 L 49.6 132.3 L 44.4 128.8 L 38.9 125.5 L 33.0 122.3 L 32.83320960998535 122.2152811050415 L 30.6 133.2 L 17.7 136.7 L 32.63189582824707 63.0 L 13.9 63.0 L 13.9 59.0 L 33.44231081008911 59.0 L 42.6 13.8 L 54.0 18.1 L 56.5 20.7 L 53.28651838302612 21.609475898742676 L 45.68496961593628 59.0 L 67.4 59.0 L 73.4 54.0 L 84.4 63.0 L 79.4 66.0 L 78.63442134857178 66.3189910888672 L 76.4 79.8 L 72.5 96.7 L 67.7 112.6 L 61.9 127.2 L 60.6055248260498 129.8281767845154 L 64.5 132.4 L 69.5 136.3 L 74.2 140.6 L 78.5 145.2 L 82.4 150.2 L 83.2 154.7 L 80.6 158.5 L 76.1 159.3 L 72.3 156.7 L 69.5 152.2 Z M 121.5 176.0 L 141.5 176.0 L 142.7 175.9 L 143.6 175.7 L 144.2 175.5 L 144.6 175.4 L 144.8 175.2 L 144.9 175.0 L 145.1 174.7 L 145.3 174.1 L 145.4 173.2 L 145.5 172.0 L 145.5 89.51355934143066 L 139.7 101.9 L 133.4 113.7 L 126.6 124.7 L 119.5 134.8 L 111.9 144.2 L 103.9 152.6 L 95.4 160.1 L 86.5 166.6 L 85.4 165.3 L 92.8 157.4 L 99.9 149.0 L 106.7 140.1 L 113.2 130.5 L 119.4 120.2 L 125.2 109.3 L 130.6 97.6 L 135.7 85.2 L 140.4 72.0 L 143.48333330154418 62.0 L 89.8 62.0 L 89.8 58.0 L 145.5 58.0 L 145.5 15.0 L 157.5 17.0 L 160.5 19.0 L 157.5 20.8 L 157.5 58.0 L 166.6 58.0 L 176.6 48.0 L 188.6 58.0 L 188.6 62.0 L 157.5 62.0 L 157.5 172.0 L 157.4 174.5 L 156.9 177.0 L 156.1 179.4 L 154.9 181.7 L 153.2 183.7 L 151.2 185.3 L 149.0 186.6 L 146.6 187.4 L 144.1 187.8 L 141.5 188.0 L 141.5 182.0 L 121.5 179.0 Z M 44.871763706207275 63.0 L 33.57486400604248 118.56722860336303 L 34.3 118.7 L 41.0 120.6 L 47.4 123.0 L 52.5930962562561 125.38371629714966 L 53.3 123.7 L 58.1 109.5 L 62.0 94.2 L 65.2 77.8 L 67.13409090042114 63.0 Z " />
</g>
</svg>
