<svg xmlns="http://www.w3.org/2000/svg" xmlns:xlink="http://www.w3.org/1999/xlink" version="1.1" baseProfile="full" viewBox="0 0 200 200" width="200" height="200">
<g fill="black">
<path d="M 146.8 180.4 L 136.6 177.6 L 126.1 174.9 L 115.3 172.2 L 111.41912860870362 171.32592983245848 L 111.1 171.5 L 99.7 176.0 L 86.8 179.6 L 72.4 182.5 L 56.5 184.5 L 39.1 185.5 L 20.2 185.7 L 20.1 183.9 L 38.8 181.7 L 55.8 179.1 L 71.1 176.0 L 84.8 172.3 L 96.57979793548584 168.04343433380126 L 92.7 167.2 L 80.9 164.7 L 68.8 162.2 L 62.519535541534424 160.88312845230104 L 60.3 162.8 L 55.7 166.4 L 51.0 170.0 L 43.9 160.3 L 52.7 153.5 L 56.8 150.0 L 60.9 146.4 L 63.85135135650635 143.6 L 14.1 143.6 L 14.1 139.6 L 67.9 139.6 L 68.6 138.9 L 72.3 135.0 L 75.8 131.1 L 79.2 127.1 L 82.24615383148193 123.31538457870484 L 82.9 122.4 L 92.0 130.3 L 93.1 133.7 L 89.62870931625366 133.28105115890503 L 88.5 134.7 L 84.9 139.0 L 84.35714282989503 139.6 L 163.8 139.6 L 173.8 129.6 L 185.8 139.6 L 185.8 143.6 L 142.1 143.6 L 141.8 144.1 L 136.5 152.4 L 129.5 159.8 L 122.66089687347412 164.86898231506348 L 128.1 165.8 L 138.9 167.8 L 149.4 170.0 L 159.6 172.4 L 169.5 174.9 L 173.0 177.8 L 173.5 182.4 L 170.6 185.9 L 166.1 186.4 L 156.6 183.4 Z M 80.71951217651367 143.6 L 77.2 147.3 L 73.2 151.3 L 69.0 155.2 L 65.57793073654175 158.22415418624877 L 69.3 158.4 L 81.7 159.4 L 93.8 160.7 L 105.5 162.2 L 107.9126714706421 162.55665578842164 L 115.4 157.8 L 122.2 152.0 L 127.3 145.7 L 128.4268292427063 143.6 Z M 140.1 13.3 L 143.1 15.3 L 140.1 17.1 L 140.1 27.8 L 159.2 27.8 L 165.2 22.8 L 176.2 31.8 L 171.2 35.8 L 171.2 46.5 L 173.1777777671814 46.5 L 179.4 39.5 L 187.4 46.5 L 187.4 50.5 L 171.2 50.5 L 171.2 69.3 L 159.2 75.3 L 159.2 69.3 L 140.1 69.3 L 140.1 84.0 L 159.71818180084227 84.0 L 167.9 75.0 L 177.9 84.0 L 177.9 88.0 L 140.1 88.0 L 140.1 102.8 L 163.8 102.8 L 173.8 92.8 L 185.8 102.8 L 185.8 106.8 L 140.1 106.8 L 140.1 124.6 L 128.1 130.6 L 128.1 106.8 L 87.2 106.8 L 87.2 102.8 L 128.1 102.8 L 128.1 88.0 L 95.2 88.0 L 95.2 84.0 L 128.1 84.0 L 128.1 69.3 L 100.0 69.3 L 100.0 65.3 L 128.1 65.3 L 128.1 50.5 L 93.6 50.5 L 93.6 46.5 L 128.1 46.5 L 128.1 31.8 L 100.0 31.8 L 100.0 27.8 L 128.1 27.8 L 128.1 11.3 Z M 59.4 114.3 L 67.4 114.3 L 68.6 114.2 L 69.5 114.1 L 70.1 113.9 L 70.4 113.7 L 70.8 113.3 L 71.1 112.4 L 71.3 111.5 L 71.4 110.3 L 71.4 96.1 L 57.5 96.1 L 57.5 125.0 L 45.5 131.0 L 45.5 96.1 L 32.0 96.1 L 32.0 118.5 L 20.0 124.5 L 20.0 88.86896553039551 L 12.5 89.3 L 12.2 87.5 L 20.4 85.0 L 28.1 82.5 L 35.1 79.9 L 41.4 77.2 L 47.2 74.3 L 52.2 71.3 L 56.7 68.1 L 60.5 64.8 L 61.82857141494751 63.3 L 43.04399995803833 63.3 L 40.8 65.0 L 37.2 67.2 L 33.4 69.2 L 29.4 70.9 L 25.2 72.2 L 20.7 73.2 L 16.0 74.1 L 15.5 72.4 L 19.6 70.3 L 23.3 68.0 L 26.7 65.6 L 29.8 63.2 L 32.5 60.8 L 35.0 58.3 L 37.1 55.7 L 39.0 53.0 L 40.6 50.2 L 41.06428575515747 49.2 L 13.3 49.2 L 13.3 45.2 L 59.655284595489505 45.2 L 61.24878044128418 38.2 L 37.13491382598877 38.2 L 36.6 39.9 L 23.3 42.0 L 33.0 11.2 L 43.9 16.7 L 46.1 19.5 L 42.766447925567626 20.302521800994874 L 42.67284479141235 20.6 L 65.0 20.6 L 71.0 15.6 L 82.0 24.6 L 77.0 27.6 L 75.19378595352173 28.352589225769044 L 71.98135595321655 45.2 L 76.77777776718139 45.2 L 83.0 38.2 L 91.0 45.2 L 91.0 49.2 L 46.5764705657959 49.2 L 52.4 53.2 L 54.1 56.4 L 49.94345607757568 56.54089975357056 L 49.9 56.6 L 47.46129035949707 59.3 L 65.08571424484253 59.3 L 66.2 57.8 L 66.5726674079895 58.07277717590332 L 71.1 54.3 L 82.1 63.3 L 77.1 66.3 L 72.9 68.05 L 71.9 69.1 L 67.4 72.9 L 62.4 76.4 L 56.8 79.4 L 53.28617515563965 80.89769582748413 L 57.5 81.6 L 60.5 83.6 L 57.5 85.4 L 57.5 92.1 L 71.4 92.1 L 77.4 87.1 L 88.4 96.1 L 83.4 100.1 L 83.4 110.3 L 83.2 112.8 L 82.8 115.3 L 82.0 117.7 L 80.7 120.0 L 79.1 122.0 L 77.1 123.7 L 74.8 124.9 L 72.4 125.7 L 69.9 126.1 L 67.4 126.3 L 67.4 120.3 L 59.4 117.3 Z M 44.1 84.3 L 37.0 86.2 L 29.4 87.7 L 24.5115385055542 88.3557692527771 L 32.0 92.1 L 45.5 92.1 L 45.5 83.81212120056152 Z M 140.1 50.5 L 140.1 65.3 L 159.2 65.3 L 159.2 50.5 Z M 140.1 31.8 L 140.1 46.5 L 159.2 46.5 L 159.2 31.8 Z M 41.41422414779663 24.6 L 38.39353446960449 34.2 L 62.159349632263186 34.2 L 64.3447154045105 24.6 Z " />
</g>
</svg>
