<svg xmlns="http://www.w3.org/2000/svg" xmlns:xlink="http://www.w3.org/1999/xlink" version="1.1" baseProfile="full" viewBox="0 0 200 200" width="200" height="200">
<g fill="black">
<path d="M 62.3 147.8 L 58.7 143.6 L 54.7 139.7 L 53.35143461227417 138.5612114906311 L 52.4 140.6 L 45.1 152.8 L 37.0 163.8 L 28.1 173.5 L 18.2 181.8 L 7.5 188.7 L 6.5 187.2 L 15.7 178.9 L 24.1 169.8 L 31.8 159.8 L 38.7 148.8 L 44.8 136.8 L 46.3180136680603 133.0479284286499 L 45.3 132.3 L 39.9 128.8 L 34.0 125.5 L 27.7 122.3 L 20.9 119.1 L 20.929411792755126 119.0 L 19.4 119.0 L 30.36577949523926 63.0 L 13.2 63.0 L 13.2 59.0 L 31.149049472808837 59.0 L 40.0 13.8 L 51.4 18.1 L 54.0 20.6 L 50.714798545837404 21.591758918762206 L 43.374033737182614 59.0 L 59.8 59.0 L 69.8 49.0 L 81.8 59.0 L 81.8 63.0 L 75.18342542648315 63.0 L 72.6 79.7 L 68.8 96.7 L 64.2 112.5 L 58.7 127.1 L 57.205140209198 130.30327100753783 L 60.5 132.4 L 65.6 136.3 L 70.2 140.6 L 74.5 145.2 L 78.3 150.2 L 79.0 154.8 L 76.3 158.5 L 71.8 159.2 L 68.1 156.6 L 65.4 152.1 Z M 157.5 181.6 L 148.4 178.3 L 140.2 174.2 L 134.78064517974855 170.51182794570923 L 131.3 173.1 L 123.0 178.0 L 114.2 182.0 L 104.9 185.1 L 95.3 187.1 L 85.2 188.2 L 84.9 186.4 L 94.4 183.5 L 103.2 180.0 L 111.4 176.0 L 119.1 171.5 L 126.3 166.2 L 128.0103840827942 164.71936902999877 L 126.9 163.7 L 121.9 157.4 L 118.0 150.4 L 115.4 142.9 L 114.2 134.8 L 114.625 134.7 L 101.7 134.7 L 101.7 130.7 L 154.0 130.7 L 154.48710803985597 130.29407663345336 L 154.7 129.9 L 154.85912237167358 129.98406467437744 L 160.0 125.7 L 171.0 134.7 L 166.0 137.7 L 163.21904764175414 138.85873012542726 L 159.6 144.7 L 153.3 153.1 L 146.5 160.6 L 142.76392078399658 163.9826663017273 L 144.9 165.1 L 152.3 167.9 L 160.5 170.2 L 169.7 171.8 L 179.7 172.8 L 190.3 173.8 L 178.4 185.9 L 167.5 184.1 Z M 116.04571428298951 134.7 L 119.3 141.4 L 123.2 147.5 L 127.6 153.0 L 132.6 157.7 L 134.36831521987915 158.91952772140502 L 139.1 153.8 L 144.8 146.5 L 150.0 138.6 L 152.1068965911865 134.7 Z M 147.8 113.9 L 163.8 113.9 L 165.0 113.8 L 165.9 113.6 L 166.5 113.5 L 166.9 113.3 L 167.0 113.1 L 167.2 112.9 L 167.4 112.6 L 167.6 112.0 L 167.7 111.1 L 167.8 109.9 L 167.8 109.21904764175414 L 167.4 110.0 L 163.0 111.2 L 159.0 109.1 L 157.4 106.6 L 155.6 104.3 L 153.6 101.9 L 153.0550898551941 101.33032121658326 L 152.2 102.6 L 148.6 107.1 L 144.6 110.9 L 140.2 114.2 L 135.6 116.8 L 130.6 118.7 L 125.4 119.8 L 124.8 118.1 L 128.9 115.3 L 132.7 112.3 L 136.1 109.1 L 139.1 105.6 L 141.9 101.8 L 144.4 97.6 L 145.83807334899902 94.65848627090455 L 143.6 92.9 L 140.7 90.7 L 137.5 88.4 L 134.0 86.4 L 134.6 84.7 L 138.6 85.7 L 142.6 86.6 L 146.3 87.8 L 148.31606969833373 88.58402709960937 L 148.5 88.1 L 150.1 82.7 L 151.5 76.8 L 151.50727615356445 76.80180349349976 L 151.7615385055542 75.7 L 125.51428575515747 75.7 L 134.2 78.9 L 136.7 81.5 L 133.03471698760987 82.83283014297486 L 132.6 84.3 L 130.6 89.4 L 128.2 94.2 L 127.47399997711182 95.41000003814698 L 127.6 95.5 L 130.2 97.7 L 132.4 100.0 L 134.5 102.5 L 135.0 107.1 L 132.2 110.7 L 127.7 111.2 L 124.1 108.5 L 123.2 106.5 L 122.2 104.4 L 121.68812503814698 103.59562501907348 L 119.0 106.6 L 115.2 110.0 L 111.1 113.0 L 106.6 115.5 L 101.7 117.6 L 101.7 118.1 L 89.7 124.1 L 89.7 66.54857139587402 L 88.8 67.5 L 85.2 71.0 L 83.8 69.9 L 86.0 65.5 L 88.1 61.1 L 90.0 56.9 L 91.7 52.7 L 93.2 48.7 L 94.5 44.7 L 95.5 40.7 L 96.4 36.9 L 97.0 33.0 L 97.4 29.2 L 97.470374584198 29.211827659606932 L 97.8 27.3 L 105.70927295684814 29.982275199890136 L 106.4 29.8 L 113.5 28.1 L 120.5 26.5 L 127.3 24.9 L 134.0 23.3 L 140.6 21.6 L 147.1 19.9 L 153.5 18.1 L 159.7 16.3 L 164.9259796142578 14.672235870361328 L 164.9 14.6 L 164.96980409622194 14.65858564376831 L 165.8 14.4 L 166.14294872283935 15.64318914413452 L 176.1 24.0 L 176.4 27.1 L 172.17157363891602 25.106598949432374 L 169.0 26.0 L 165.90845069885253 26.618309879302977 L 166.5 27.9 L 168.8 32.7 L 171.0 37.3 L 173.1 41.5 L 175.2 45.3 L 177.4 48.7 L 179.5 51.8 L 181.6 54.5 L 183.7 56.8 L 185.8 58.7 L 186.6 59.7 L 175.9 67.5 L 173.8 64.4 L 171.8 60.9 L 170.1 57.2 L 168.4 53.2 L 167.0 48.9 L 165.7 44.3 L 164.5 39.5 L 163.6 34.3 L 162.9 28.9 L 162.75762710571288 27.248474597930908 L 162.5 27.3 L 155.9 28.6 L 149.2 29.7 L 142.5 30.7 L 140.57636365890502 30.95090913772583 L 143.5 32.9 L 140.5 34.7 L 140.5 56.2 L 128.5 62.2 L 128.5 32.40845069885254 L 121.5 33.0 L 114.2 33.4 L 111.66036224365234 33.46957912445068 L 111.9 33.7 L 108.2008695602417 35.138550758361816 L 108.1 35.5 L 106.6 39.8 L 104.9 44.0 L 102.9 48.1 L 100.6 52.2 L 98.1 56.2 L 95.3 60.0 L 92.3 63.8 L 90.2449541091919 65.97247705459594 L 101.7 71.7 L 167.8 71.7 L 173.8 66.7 L 184.8 75.7 L 179.8 79.7 L 179.8 109.9 L 179.7 112.4 L 179.2 114.9 L 178.4 117.3 L 177.2 119.6 L 175.5 121.6 L 173.5 123.3 L 171.3 124.5 L 168.8 125.3 L 166.4 125.7 L 163.8 125.9 L 163.8 119.9 L 147.8 116.9 Z M 42.589098072052 63.0 L 31.6 119.0 L 30.03684206008911 119.0 L 36.1 120.6 L 42.8 122.9 L 49.1 125.7 L 49.25649871826172 125.78488063812256 L 50.1 123.7 L 54.6 109.5 L 58.4 94.2 L 61.3 77.8 L 63.15 63.0 Z M 101.7 75.7 L 101.7 115.125 L 104.4 112.5 L 107.7 109.0 L 110.6 105.5 L 113.3 101.8 L 115.6 98.0 L 116.18965520858765 96.78965520858765 L 114.8 95.4 L 112.2 93.0 L 109.3 90.6 L 106.2 88.0 L 102.6 85.7 L 103.3 84.1 L 107.4 85.5 L 111.4 86.8 L 115.1 88.3 L 118.6 89.9 L 119.12567148208618 90.17926292419433 L 119.2 90.0 L 120.6 85.8 L 121.6 81.3 L 122.22924795150757 77.60316848754883 L 122.2 77.6 L 122.36800003051758 76.7880000114441 L 122.4 76.6 L 122.4066291809082 76.6012921333313 L 122.59310340881348 75.7 Z M 153.37391300201415 75.7 L 163.2 79.7 L 165.6 82.4 L 161.90667486190796 83.52118797302246 L 161.0 86.2 L 158.4 92.2 L 157.8111159324646 93.3168490409851 L 159.8 94.6 L 162.8 96.7 L 165.6 99.0 L 167.8 101.03703699111938 L 167.8 75.7 Z " />
</g>
</svg>
