<svg xmlns="http://www.w3.org/2000/svg" xmlns:xlink="http://www.w3.org/1999/xlink" version="1.1" baseProfile="full" viewBox="0 0 200 200" width="200" height="200">
<g fill="black">
<path d="M 66.0 147.7 L 62.6 143.5 L 58.9 139.6 L 57.39522829055786 138.17046689987183 L 56.3 140.5 L 49.2 152.8 L 41.3 163.8 L 32.5 173.5 L 22.8 181.8 L 12.3 188.7 L 11.3 187.2 L 20.3 178.9 L 28.5 169.9 L 36.0 159.9 L 42.7 148.9 L 48.7 136.9 L 50.525724220275876 132.30057935714723 L 50.4 132.2 L 45.7 128.8 L 40.5 125.5 L 35.239436626434326 122.43930854797364 L 33.2 133.1 L 20.2 136.8 L 34.3 63.0 L 17.1 63.0 L 17.1 59.0 L 35.0642276763916 59.0 L 43.7 13.8 L 55.2 18.1 L 57.7 20.6 L 54.53919553756714 21.55420513153076 L 47.37565221786499 59.0 L 67.1 59.0 L 73.1 54.0 L 84.1 63.0 L 79.1 66.0 L 78.2655511856079 66.34768705368042 L 76.2 79.7 L 72.5 96.7 L 68.0 112.5 L 62.6 127.1 L 61.26598072052002 129.93743772506713 L 65.0 132.5 L 69.7 136.4 L 74.1 140.7 L 78.2 145.3 L 81.9 150.2 L 82.5 154.8 L 79.9 158.5 L 75.4 159.2 L 71.6 156.5 L 69.0 152.0 Z M 139.5 135.7 L 142.5 137.7 L 139.5 139.5 L 139.5 154.8 L 141.9 154.8 L 151.9 144.8 L 163.9 154.8 L 163.9 158.8 L 139.5 158.8 L 139.5 182.5 L 127.5 188.5 L 127.5 158.8 L 103.0 158.8 L 103.0 154.8 L 127.5 154.8 L 127.5 133.7 Z M 170.6 156.4 L 166.0 151.8 L 161.6 147.0 L 157.4 142.0 L 153.5 136.7 L 149.8 131.2 L 146.4 125.4 L 143.4 119.4 L 141.084375 113.7 L 129.48705883026122 113.7 L 128.4 115.9 L 123.4 124.2 L 117.8 132.0 L 111.5 139.6 L 104.5 146.7 L 96.9 153.4 L 88.5 159.7 L 79.4 165.4 L 78.3 164.0 L 86.1 156.7 L 93.2 149.5 L 99.7 142.2 L 105.6 134.7 L 110.9 127.1 L 115.5 119.4 L 118.31392402648926 113.7 L 81.4 113.7 L 81.4 109.7 L 120.12439022064208 109.7 L 122.7 103.3 L 125.4 95.0 L 127.4 86.5 L 127.4211000442505 86.50504961013795 L 127.8 84.8 L 139.1 89.3 L 141.5 91.9 L 137.91009254455565 93.07487878799438 L 136.2 98.5 L 132.6 107.4 L 131.46352939605714 109.7 L 163.5 109.7 L 173.5 99.7 L 185.5 109.7 L 185.5 113.7 L 143.83999996185304 113.7 L 146.9 117.1 L 151.2 122.0 L 155.5 126.8 L 159.9 131.4 L 164.3 135.7 L 168.9 139.8 L 173.5 143.7 L 178.2 147.4 L 183.1 150.8 L 188.0 154.0 L 191.5 156.4 L 180.5 164.8 L 175.4 160.7 Z M 46.61043481826782 63.0 L 35.9535005569458 118.70670156478882 L 36.4 118.8 L 42.8 120.7 L 48.8 123.0 L 53.33355369567871 125.22700881958008 L 53.9 123.8 L 58.3 109.6 L 62.0 94.3 L 65.0 77.8 L 66.77600002288818 63.0 Z M 111.8 53.2 L 114.8 55.2 L 111.8 57.0 L 111.8 70.2 L 116.9777777671814 70.2 L 123.2 63.2 L 131.2 70.2 L 131.2 74.2 L 111.8 74.2 L 111.8 94.0 L 99.8 100.0 L 99.8 74.2 L 80.3 74.2 L 80.3 70.2 L 99.8 70.2 L 99.8 51.2 Z M 167.5 53.2 L 170.5 55.2 L 167.5 57.0 L 167.5 70.2 L 169.51818180084229 70.2 L 177.7 61.2 L 187.7 70.2 L 187.7 74.2 L 167.5 74.2 L 167.5 94.0 L 155.5 100.0 L 155.5 74.2 L 135.2 74.2 L 135.2 70.2 L 155.5 70.2 L 155.5 51.2 Z M 139.5 14.4 L 142.5 16.4 L 139.5 18.2 L 139.5 31.4 L 150.0 31.4 L 160.0 21.4 L 172.0 31.4 L 172.0 35.4 L 139.5 35.4 L 139.5 55.2 L 127.5 61.2 L 127.5 35.4 L 94.9 35.4 L 94.9 31.4 L 127.5 31.4 L 127.5 12.4 Z " />
</g>
</svg>
