<svg xmlns="http://www.w3.org/2000/svg" xmlns:xlink="http://www.w3.org/1999/xlink" version="1.1" baseProfile="full" viewBox="0 0 200 200" width="200" height="200">
<g fill="black">
<path d="M 57.7 147.4 L 54.7 143.3 L 51.4 139.4 L 50.72185201644898 138.70301456451415 L 50.0 140.4 L 43.5 152.6 L 36.2 163.7 L 28.1 173.4 L 19.3 181.7 L 9.6 188.7 L 8.6 187.2 L 16.6 179.0 L 24.0 169.9 L 30.8 160.0 L 36.8 149.0 L 42.2 137.0 L 43.943581867218015 132.14022941589354 L 43.9 132.1 L 39.6 128.7 L 35.0 125.5 L 30.783266925811766 122.74621515274048 L 29.0 133.0 L 16.2 136.9 L 28.997317028045654 63.0 L 13.9 63.0 L 13.9 59.0 L 29.689999961853026 59.0 L 37.5 13.9 L 49.0 18.0 L 51.6 20.4 L 48.40070924758911 21.445921993255617 L 41.86956520080567 59.0 L 58.8 59.0 L 64.8 54.0 L 75.8 63.0 L 70.8 66.0 L 70.01733989715576 66.32610836029053 L 68.1 79.6 L 64.7 96.6 L 60.6 112.3 L 55.7 127.0 L 54.405428409576416 130.04337873458863 L 57.8 132.7 L 62.2 136.6 L 66.2 140.8 L 69.9 145.5 L 73.3 150.4 L 73.8 154.9 L 71.0 158.6 L 66.4 159.0 L 62.8 156.3 L 60.4 151.7 Z M 149.7 176.0 L 168.9 176.0 L 169.9 175.8 L 170.4 175.6 L 171.0 175.3 L 171.1 175.1 L 171.3 174.8 L 171.5 174.2 L 171.6 173.3 L 171.7 172.0 L 171.7 127.5 L 136.5 127.5 L 136.5 151.4083333015442 L 137.8 151.3 L 143.8 150.9 L 149.9 150.6 L 151.17510499954224 150.57909660339357 L 151.1 150.4 L 149.6 147.3 L 147.9 144.2 L 146.1 141.0 L 144.1 137.8 L 141.7 134.7 L 142.9 133.4 L 146.2 135.7 L 149.4 138.1 L 152.4 140.6 L 155.2 143.3 L 157.7 146.2 L 160.1 149.2 L 162.2 152.4 L 164.1 155.7 L 165.9 159.1 L 167.4 162.6 L 166.8 167.1 L 163.2 170.0 L 158.7 169.4 L 155.8 165.9 L 155.2 162.8 L 154.5 159.7 L 153.5 156.6 L 152.46668310165404 153.6879250526428 L 150.5 154.4 L 144.7 156.2 L 138.9 157.8 L 133.0 159.3 L 127.2 160.7 L 121.4 162.0 L 115.5 163.2 L 103.9 165.6 L 102.21022968292236 165.92609605789184 L 100.5 169.4 L 98.2 166.7 L 94.6 155.0 L 96.6 154.8 L 108.2 153.8 L 124.5 152.41864404678344 L 124.5 127.5 L 89.2 127.5 L 89.2 182.2 L 77.2 188.2 L 77.2 117.5 L 89.2 123.5 L 124.5 123.5 L 124.5 107.1 L 98.9 107.1 L 98.9 110.1 L 86.9 116.1 L 86.9 53.1 L 98.9 59.1 L 162.0 59.1 L 168.0 54.1 L 179.0 63.1 L 174.0 67.1 L 174.0 109.1 L 162.0 115.1 L 162.0 107.1 L 136.5 107.1 L 136.5 123.5 L 171.7 123.5 L 177.7 118.5 L 188.7 127.5 L 183.7 131.5 L 183.7 172.0 L 183.6 174.6 L 183.1 177.1 L 182.3 179.5 L 181.1 181.8 L 179.5 183.8 L 177.4 185.4 L 175.2 186.6 L 172.8 187.5 L 170.3 187.9 L 167.7 188.0 L 167.7 182.0 L 149.7 179.0 Z M 41.17391300201416 63.0 L 31.47457160949707 118.77121315002441 L 31.6 118.8 L 37.5 120.7 L 43.0 123.1 L 46.509104347229005 124.98951768875122 L 46.9 123.9 L 50.9 109.7 L 54.2 94.4 L 56.9 77.9 L 58.50852270126343 63.0 Z M 98.9 85.1 L 98.9 103.1 L 124.5 103.1 L 124.5 85.1 Z M 136.5 85.1 L 136.5 103.1 L 162.0 103.1 L 162.0 85.1 Z M 98.9 63.1 L 98.9 81.1 L 124.5 81.1 L 124.5 63.1 Z M 136.5 63.1 L 136.5 81.1 L 162.0 81.1 L 162.0 63.1 Z M 155.9 15.6 L 158.9 17.6 L 155.9 19.4 L 155.9 32.0 L 168.9 32.0 L 178.9 22.0 L 190.9 32.0 L 190.9 36.0 L 155.9 36.0 L 155.9 49.6 L 143.9 55.6 L 143.9 36.0 L 117.0 36.0 L 117.0 49.6 L 105.0 55.6 L 105.0 36.0 L 70.0 36.0 L 70.0 32.0 L 105.0 32.0 L 105.0 13.6 L 117.0 15.6 L 120.0 17.6 L 117.0 19.4 L 117.0 32.0 L 143.9 32.0 L 143.9 13.6 Z " />
</g>
</svg>
