<svg xmlns="http://www.w3.org/2000/svg" xmlns:xlink="http://www.w3.org/1999/xlink" version="1.1" baseProfile="full" viewBox="0 0 200 200" width="200" height="200">
<g fill="black">
<path d="M 146.2 180.5 L 136.1 177.5 L 125.8 174.5 L 115.1 171.6 L 111.26806726455689 170.6594347000122 L 111.2 170.7 L 99.8 175.8 L 87.0 179.8 L 72.7 183.0 L 57.0 185.2 L 39.7 186.5 L 21.0 186.8 L 20.9 185.0 L 39.4 182.7 L 56.2 179.9 L 71.3 176.6 L 84.8 172.6 L 96.6 167.9 L 97.61235418319703 167.36345233917237 L 92.7 166.2 L 81.1 163.5 L 69.1 160.9 L 62.596191215515134 159.41945819854737 L 60.9 161.0 L 56.4 165.0 L 51.7 168.9 L 44.2 159.6 L 48.6 155.9 L 52.9 152.1 L 57.0 148.3 L 61.0 144.3 L 64.70975608825684 140.4 L 15.0 140.4 L 15.0 136.4 L 68.42195119857789 136.4 L 68.7 136.1 L 72.3 131.8 L 75.8 127.5 L 79.2 123.0 L 81.90936937332154 119.30540542602539 L 81.9 119.3 L 82.9 117.8 L 92.3 125.3 L 93.6 128.7 L 90.06438360214233 128.4561643600464 L 88.9 130.1 L 85.3 134.9 L 84.06086959838868 136.4 L 163.0 136.4 L 173.0 126.4 L 185.0 136.4 L 185.0 140.4 L 141.66956520080566 140.4 L 141.5 140.7 L 136.3 149.7 L 129.5 157.8 L 121.73870964050293 164.26774196624757 L 127.9 165.5 L 138.6 167.7 L 149.1 170.2 L 159.2 172.8 L 169.0 175.6 L 172.4 178.7 L 172.8 183.2 L 169.8 186.6 L 165.2 187.0 L 155.8 183.7 Z M 80.73999996185303 140.4 L 77.7 144.0 L 73.7 148.4 L 69.6 152.7 L 65.37629528045655 156.82547903060913 L 69.7 157.1 L 81.9 158.2 L 93.9 159.7 L 105.6 161.4 L 107.801766872406 161.7702085494995 L 115.0 156.8 L 121.7 150.4 L 126.8 143.5 L 128.25882349014282 140.4 Z M 93.5 93.5 L 92.2 91.9 L 90.3 90.1 L 88.0 88.2 L 85.1 86.2 L 81.8 84.1 L 78.1 82.0 L 73.9 79.6 L 73.4 79.37659578323364 L 73.4 113.6 L 61.4 119.6 L 61.4 82.58333330154419 L 57.9 87.0 L 53.3 91.9 L 48.4 96.5 L 43.2 100.6 L 37.6 104.4 L 31.8 107.6 L 25.6 110.4 L 19.1 112.6 L 18.3 110.9 L 23.7 107.0 L 28.9 103.1 L 33.7 99.1 L 38.3 94.8 L 42.5 90.4 L 46.4 85.8 L 49.9 80.9 L 53.2 75.7 L 56.2 70.3 L 56.60344829559326 69.4 L 40.6 69.4 L 40.6 72.4 L 28.6 78.4 L 28.6 37.8 L 40.6 43.8 L 61.4 43.8 L 61.4 32.2 L 19.7 32.2 L 19.7 28.2 L 61.4 28.2 L 61.4 11.8 L 73.4 13.8 L 76.4 15.8 L 73.4 17.6 L 73.4 28.2 L 93.1 28.2 L 103.1 18.2 L 115.1 28.2 L 115.1 32.2 L 73.4 32.2 L 73.4 43.8 L 94.3 43.8 L 100.3 38.8 L 111.3 47.8 L 106.3 51.8 L 106.3 69.4 L 94.3 75.4 L 94.3 69.4 L 73.4 69.4 L 73.4 76.59803924560546 L 74.8 76.9 L 79.6 77.8 L 84.0 78.9 L 88.0 80.1 L 91.7 81.3 L 94.9 82.7 L 97.9 84.2 L 100.6 85.8 L 103.0 87.7 L 105.0 89.9 L 105.6 94.5 L 102.9 98.1 L 98.3 98.7 L 94.7 96.0 L 94.4 94.9 Z M 171.4 70.6 L 168.4 68.6 L 165.1 66.5 L 161.5 64.5 L 157.7 62.5 L 153.6 60.5 L 149.3 58.4 L 144.7 56.2 L 142.4 55.19375 L 142.4 113.3 L 130.4 119.3 L 130.4 11.7 L 142.4 13.7 L 145.4 15.7 L 142.4 17.5 L 142.4 52.63773584365845 L 145.6 53.0 L 150.7 53.7 L 155.6 54.6 L 160.2 55.7 L 164.6 56.9 L 168.8 58.3 L 172.8 59.8 L 176.6 61.4 L 180.2 63.1 L 183.6 65.0 L 186.0 68.9 L 185.0 73.4 L 181.1 75.7 L 176.7 74.8 L 174.2 72.7 Z M 40.6 47.8 L 40.6 65.4 L 61.4 65.4 L 61.4 47.8 Z M 73.4 47.8 L 73.4 65.4 L 94.3 65.4 L 94.3 47.8 Z " />
</g>
</svg>
