<svg xmlns="http://www.w3.org/2000/svg" xmlns:xlink="http://www.w3.org/1999/xlink" version="1.1" baseProfile="full" viewBox="0 0 200 200" width="200" height="200">
<g fill="black">
<path d="M 71.7 148.0 L 67.8 143.8 L 63.4 139.8 L 60.777695941925046 137.67983922958373 L 59.2 140.7 L 51.1 153.0 L 42.1 163.9 L 32.2 173.6 L 21.2 181.9 L 9.4 188.7 L 8.5 187.2 L 18.9 178.9 L 28.5 169.7 L 37.1 159.7 L 44.9 148.7 L 51.7 136.7 L 53.66235609054566 132.41552257537842 L 53.5 132.3 L 47.9 128.9 L 41.9 125.6 L 35.5 122.3 L 34.954739284515384 122.0434066772461 L 32.5 133.3 L 19.4 136.6 L 35.509357166290286 63.0 L 15.0 63.0 L 15.0 59.0 L 36.38486576080322 59.0 L 46.3 13.7 L 57.6 18.2 L 60.1 20.8 L 56.8312747001648 21.725110912322997 L 48.70269327163696 59.0 L 73.0 59.0 L 79.0 54.0 L 90.0 63.0 L 85.0 66.0 L 84.0762845993042 66.38488140106202 L 81.7 79.9 L 77.5 96.8 L 72.4 112.7 L 66.2 127.3 L 64.89137620925904 129.80507974624635 L 69.0 132.4 L 74.4 136.2 L 79.4 140.5 L 83.9 145.1 L 88.1 150.0 L 89.1 154.5 L 86.7 158.4 L 82.2 159.3 L 78.3 156.9 L 75.2 152.4 Z M 167.8 168.7 L 166.0 164.7 L 165.40314741134642 163.43997793197633 L 161.7 164.6 L 153.6 166.8 L 145.8 168.7 L 138.2 170.5 L 130.9 172.1 L 123.8 173.6 L 117.0 174.9 L 110.4 176.1 L 104.2 177.2 L 102.24882154464721 177.51986532211305 L 100.4 181.0 L 98.1 178.2 L 94.9 166.5 L 96.9 166.3 L 102.8 165.9 L 109.1 165.5 L 115.6 165.0 L 116.64777774810791 164.90888891220092 L 117.7 160.7 L 118.9 156.1 L 120.1 151.6 L 121.3 147.3 L 122.4 143.1 L 123.5 139.0 L 125.5 131.2 L 126.10043649673462 128.42298126220703 L 126.0 128.4 L 126.76800003051758 126.0 L 113.1 126.0 L 113.1 138.0 L 101.1 144.0 L 101.1 60.0 L 113.1 66.0 L 130.56428575515747 66.0 L 130.8 64.9 L 131.0 62.0 L 131.2 59.3 L 131.5 56.6 L 131.7 54.0 L 131.9 51.5 L 132.1 49.1 L 132.2 46.7 L 132.3535484313965 43.32193546295166 L 132.2 43.3 L 132.39615383148194 42.384615421295166 L 132.4 42.3 L 132.4136125564575 42.30314140319824 L 132.8 40.5 L 144.1 45.0 L 146.6 47.6 L 142.35209121704102 48.96539926528931 L 142.2 49.3 L 141.1 51.5 L 140.0 53.8 L 138.8 56.1 L 137.5 58.5 L 136.2 60.8 L 134.7 63.3 L 133.1 65.7 L 132.9615385055542 66.0 L 162.8 66.0 L 168.8 61.0 L 179.8 70.0 L 174.8 74.0 L 174.8 128.0 L 162.8 134.0 L 162.8 126.0 L 127.0115385055542 126.0 L 137.8 131.1 L 140.0 134.0 L 136.16801681518555 134.8739610671997 L 134.6 138.5 L 132.8 142.4 L 130.9 146.3 L 129.0 150.3 L 126.9 154.3 L 124.7 158.4 L 122.3 162.6 L 121.11094093322754 164.52078771591187 L 122.5 164.4 L 129.6 163.7 L 137.0 163.0 L 144.7 162.3 L 152.7 161.5 L 161.0 160.8 L 164.05115995407104 160.62464599609376 L 162.2 157.2 L 160.1 153.5 L 157.9 149.9 L 155.7 146.4 L 153.4 142.8 L 150.9 139.3 L 152.2 138.0 L 155.8 140.4 L 159.4 143.1 L 162.7 146.0 L 165.9 149.1 L 168.9 152.5 L 171.8 156.0 L 174.5 159.8 L 177.2 163.7 L 179.6 167.7 L 182.0 172.0 L 182.0 176.5 L 178.9 179.9 L 174.4 179.9 L 171.0 176.8 L 169.5 172.7 Z M 47.83040838241577 63.0 L 35.720851039886476 118.53028087615967 L 36.7 118.7 L 43.9 120.6 L 50.8 122.9 L 56.81526231765747 125.53167724609375 L 57.7 123.6 L 62.9 109.4 L 67.1 94.1 L 70.5 77.7 L 72.6 63.0 Z M 113.1 97.5 L 113.1 122.0 L 162.8 122.0 L 162.8 97.5 Z M 113.1 70.0 L 113.1 93.5 L 162.8 93.5 L 162.8 70.0 Z M 90.8 61.8 L 88.5 57.8 L 89.7 53.4 L 90.7 52.3 L 91.9 50.6 L 93.1 48.2 L 94.3 45.1 L 95.4 41.5 L 96.4 37.3 L 97.3 32.5 L 98.2 27.1 L 99.1 21.3 L 99.8 14.8 L 101.6 14.8 L 102.4 21.3 L 102.925 25.8 L 173.0 25.8 L 179.0 20.8 L 190.0 29.8 L 185.0 32.8 L 182.6631579399109 33.77368421554566 L 181.2 36.7 L 179.8 39.3 L 178.3 42.1 L 176.7 45.0 L 174.9 48.0 L 173.0 51.2 L 170.9 54.4 L 169.0 57.9 L 167.4 57.2 L 168.4 53.4 L 169.1 49.6 L 169.8 46.1 L 170.4 42.7 L 171.1 39.5 L 171.6 36.5 L 172.1 33.6 L 172.6 30.9 L 172.73199996948242 29.8 L 103.2339285850525 29.8 L 103.4 32.9 L 103.5 38.0 L 103.4 42.7 L 103.1 47.0 L 102.6 50.9 L 101.8 54.4 L 100.7 57.7 L 99.2 60.7 L 95.2 62.9 Z " />
</g>
</svg>
