<svg xmlns="http://www.w3.org/2000/svg" xmlns:xlink="http://www.w3.org/1999/xlink" version="1.1" baseProfile="full" viewBox="0 0 200 200" width="200" height="200">
<g fill="black">
<path d="M 169.7 19.5 L 171.6 22.6 L 167.56418085098267 22.947915458679198 L 166.0 25.5 L 163.8 28.9 L 161.4 32.6 L 158.7 36.5 L 155.9 40.6 L 152.8 45.0 L 149.5 49.6 L 145.8 54.4 L 143.6680000305176 57.0 L 162.4 57.0 L 172.4 47.0 L 184.4 57.0 L 184.4 61.0 L 141.8 61.0 L 141.8 96.0 L 158.3 96.0 L 168.3 86.0 L 180.3 96.0 L 180.3 100.0 L 141.8 100.0 L 141.8 135.0 L 165.5 135.0 L 175.5 125.0 L 187.5 135.0 L 187.5 139.0 L 141.8 139.0 L 141.8 184.0 L 129.8 190.0 L 129.8 139.0 L 87.1 139.0 L 87.1 135.0 L 129.8 135.0 L 129.8 100.0 L 94.4 100.0 L 94.4 96.0 L 129.8 96.0 L 129.8 61.0 L 90.2 61.0 L 90.2 57.0 L 140.810169506073 57.0 L 142.6 52.6 L 144.9 47.0 L 147.2 41.8 L 149.4 36.9 L 151.4 32.4 L 153.3 28.1 L 155.0 24.2 L 156.5 20.6 L 157.8 17.3 L 158.57077856063842 15.12780590057373 L 158.5 15.1 L 158.7777777671814 14.544444465637207 L 158.9 14.2 L 158.9401487350464 14.219702625274659 L 159.5 13.1 Z M 70.1 152.9 L 66.2 148.3 L 61.9 143.9 L 60.27991580963135 142.42079277038573 L 60.1 142.8 L 52.7 155.0 L 44.2 165.7 L 34.8 175.0 L 24.5 182.6 L 13.2 188.6 L 12.3 187.0 L 22.2 179.6 L 31.1 171.1 L 39.2 161.5 L 46.3 150.9 L 52.6 138.9 L 53.540871715545656 136.61751480102538 L 52.3 135.6 L 47.0 131.7 L 41.4 127.9 L 35.4 124.1 L 32.10866088867188 122.11474781036377 L 30.9 126.4 L 27.4 138.1 L 15.9 134.5 L 19.4 123.1 L 22.7 111.5 L 25.8 99.9 L 28.9 88.1 L 31.8 76.3 L 34.5 64.4 L 34.89327726364136 62.6 L 12.8 62.6 L 12.8 58.6 L 35.76722688674927 58.6 L 37.1 52.5 L 39.6 40.4 L 41.9 28.3 L 43.919380855560306 17.101615047454835 L 43.9 17.1 L 44.5 14.1 L 55.9 18.1 L 58.6 20.6 L 55.228027725219725 21.887480354309083 L 53.7 30.5 L 51.4 42.8 L 48.9 55.0 L 48.09669418334961 58.6 L 70.8 58.6 L 76.8 53.6 L 87.8 62.6 L 82.8 65.6 L 82.14697675704956 65.87209300994873 L 80.2 80.1 L 76.6 97.8 L 72.1 114.1 L 66.6 129.1 L 64.20174388885498 134.15478591918946 L 68.0 136.8 L 73.2 141.1 L 78.1 145.6 L 82.7 150.5 L 86.9 155.7 L 87.8 160.1 L 85.4 164.0 L 80.9 164.9 L 77.1 162.5 L 73.8 157.6 Z M 47.20413227081299 62.6 L 46.2 67.1 L 43.4 79.1 L 40.5 91.1 L 37.4 102.9 L 34.2 114.7 L 32.84514417648315 119.50357971191406 L 37.0 120.6 L 43.8 123.1 L 50.4 126.0 L 56.5 129.3 L 56.545745849609375 129.32791271209717 L 58.0 125.8 L 62.5 111.3 L 66.2 95.5 L 68.9 78.4 L 70.53152170181275 62.6 Z M 112.8 43.5 L 111.9 40.8 L 110.8 37.9 L 109.3 34.9 L 107.6 31.8 L 105.5 28.6 L 103.2 25.3 L 100.7 21.7 L 97.7 18.3 L 98.8 16.9 L 102.7 19.6 L 106.4 22.1 L 109.8 24.8 L 112.9 27.5 L 115.7 30.3 L 118.2 33.2 L 120.4 36.2 L 122.4 39.2 L 124.0 42.4 L 125.4 45.6 L 124.6 50.1 L 121.0 52.9 L 116.5 52.1 L 113.7 48.5 L 113.4 46.0 Z " />
</g>
</svg>
