<svg xmlns="http://www.w3.org/2000/svg" xmlns:xlink="http://www.w3.org/1999/xlink" version="1.1" baseProfile="full" viewBox="0 0 200 200" width="200" height="200">
<g fill="black">
<path d="M 185.4 31.0 L 188.2 33.0 L 185.4 34.75 L 185.4 178.0 L 174.4 183.5 L 174.4 172.0 L 87.5 172.0 L 87.5 184.0 L 76.5 189.5 L 76.5 29.0 L 87.5 31.0 L 90.2 33.0 L 87.5 34.723404216766355 L 87.5 168.0 L 174.4 168.0 L 174.4 29.0 Z M 54.2 147.3 L 51.4 143.2 L 48.4 139.3 L 48.05450105667114 138.9240159034729 L 47.5 140.3 L 41.4 152.6 L 34.5 163.6 L 26.8 173.3 L 18.4 181.7 L 9.3 188.7 L 8.1 187.2 L 15.7 179.0 L 22.6 170.0 L 28.9 160.1 L 34.6 149.1 L 39.7 137.1 L 41.360247421264646 132.15699071884154 L 41.3 132.1 L 37.3 128.7 L 33.0 125.5 L 29.52826452255249 123.03121032714844 L 27.9 133.0 L 15.0 136.9 L 27.14629783630371 63.0 L 13.2 63.0 L 13.2 59.0 L 27.8037428855896 59.0 L 35.2 14.0 L 46.7 17.9 L 49.3 20.4 L 46.13246784210205 21.374625301361085 L 39.98688097000122 59.0 L 55.2 59.0 L 61.2 54.0 L 72.2 63.0 L 67.2 66.0 L 66.54049825668335 66.27479238510132 L 64.7 79.6 L 61.5 96.5 L 57.6 112.3 L 52.9 126.9 L 51.62159090042114 130.0723484992981 L 55.0 132.7 L 59.1 136.7 L 62.9 140.9 L 66.4 145.6 L 69.6 150.5 L 70.0 155.1 L 67.1 158.6 L 62.5 159.0 L 59.0 156.1 L 56.8 151.6 Z M 91.4 150.2 L 116.3 150.2 L 116.3 110.2 L 108.4 110.2 L 108.4 122.2 L 97.4 127.7 L 97.4 55.8 L 108.4 61.3 L 116.3 61.3 L 116.3 27.5 L 93.7 27.5 L 93.7 23.5 L 146.2 23.5 L 156.2 13.5 L 168.2 23.5 L 168.2 27.5 L 145.7 27.5 L 145.7 61.3 L 153.5 61.3 L 159.0 56.3 L 169.5 65.3 L 164.5 68.8 L 164.5 116.2 L 153.5 121.7 L 153.5 110.2 L 145.7 110.2 L 145.7 150.2 L 148.5 150.2 L 158.5 140.2 L 170.5 150.2 L 170.5 154.2 L 91.4 154.2 Z M 127.3 27.5 L 127.3 71.3 L 116.3 76.8 L 116.3 65.3 L 108.4 65.3 L 108.4 106.2 L 116.3 106.2 L 121.8 101.2 L 132.3 110.2 L 127.3 113.7 L 127.3 150.2 L 134.7 150.2 L 134.7 100.7 L 145.7 106.2 L 153.5 106.2 L 153.5 65.3 L 145.7 65.3 L 145.7 77.3 L 134.7 82.8 L 134.7 27.5 Z M 39.333536052703856 63.0 L 30.192379570007326 118.96527166366577 L 35.6 120.8 L 40.9 123.2 L 43.81015558242798 124.86294603347778 L 44.1 124.0 L 47.8 109.8 L 51.0 94.4 L 53.4 78.0 L 54.93409090042114 63.0 Z " />
</g>
</svg>
