<svg xmlns="http://www.w3.org/2000/svg" xmlns:xlink="http://www.w3.org/1999/xlink" version="1.1" baseProfile="full" viewBox="0 0 200 200" width="200" height="200">
<g fill="black">
<path d="M 70.0 177.0 L 90.0 177.0 L 91.2 176.9 L 92.1 176.7 L 93.0 176.4 L 93.4 176.0 L 93.7 175.1 L 93.9 174.2 L 94.0 173.0 L 94.0 146.0 L 13.0 146.0 L 13.0 142.0 L 94.0 142.0 L 94.0 125.0 L 105.12830190658569 126.85471696853638 L 106.0 126.3 L 110.3 123.6 L 114.6 121.0 L 118.8 118.6 L 127.0 113.8 L 130.05217390060426 112.0 L 44.0 112.0 L 44.0 108.0 L 136.73043479919434 108.0 L 142.2 104.6 L 142.4639039993286 105.11341333389282 L 145.0 103.0 L 156.0 112.0 L 151.0 115.0 L 139.0 120.0 L 139.0 118.90238094329834 L 135.3 120.4 L 130.9 122.1 L 126.5 123.7 L 121.9 125.3 L 117.2 126.9 L 112.4 128.3 L 108.45882349014282 129.32470588684083 L 106.0 130.8 L 106.0 142.0 L 166.0 142.0 L 176.0 132.0 L 188.0 142.0 L 188.0 146.0 L 106.0 146.0 L 106.0 173.0 L 105.8 175.5 L 105.4 178.0 L 104.6 180.4 L 103.3 182.7 L 101.7 184.7 L 99.7 186.3 L 97.4 187.6 L 95.0 188.4 L 92.5 188.8 L 90.0 189.0 L 90.0 183.0 L 70.0 180.0 Z M 56.1 65.5 L 55.2 63.6 L 54.1 61.6 L 52.7 59.5 L 51.1 57.4 L 49.3 55.1 L 47.3 52.7 L 45.0 50.3 L 44.38483943939209 49.798758029937744 L 42.6 51.7 L 37.6 56.3 L 32.3 60.8 L 26.6 64.9 L 20.5 68.7 L 19.4 67.3 L 24.1 62.0 L 28.6 56.9 L 32.9 51.8 L 36.9 46.7 L 40.5 41.6 L 43.9 36.5 L 46.9 31.3 L 47.0 31.103703689575195 L 47.0 30.3 L 47.409433937072755 30.3 L 49.6 26.0 L 52.0 20.7 L 53.659568309783936 16.219165420532228 L 53.6 16.2 L 53.96000003814697 15.407999992370605 L 54.0 15.3 L 54.00764989852905 15.303170204162598 L 54.6 14.0 L 65.1 19.9 L 67.1 22.9 L 63.30251903533936 23.432979774475097 L 62.2 25.6 L 59.51428575515747 30.3 L 86.0 30.3 L 92.0 25.3 L 103.0 34.3 L 98.0 37.3 L 95.87772417068481 38.184281539916995 L 92.9 44.9 L 87.4 54.9 L 81.0 64.3 L 73.7 73.1 L 65.7 81.3 L 56.8 88.8 L 47.2 95.8 L 36.7 102.0 L 25.4 107.5 L 13.3 112.3 L 12.6 110.6 L 23.7 104.2 L 33.9 97.4 L 43.3 90.4 L 51.9 83.0 L 59.7 75.3 L 62.544303798675536 71.91981287002564 L 60.7 72.0 L 57.2 69.0 L 56.8 67.3 Z M 131.0 54.2 L 151.0 54.2 L 152.2 54.1 L 153.1 53.9 L 154.0 53.6 L 154.4 53.2 L 154.7 52.3 L 154.9 51.4 L 155.0 50.2 L 155.0 29.8 L 120.0 29.8 L 120.0 71.5 L 120.1 72.4 L 120.2 73.0 L 120.4 73.4 L 120.5 73.7 L 120.7 73.9 L 121.7 74.4 L 122.7 74.6 L 124.0 74.7 L 175.5 74.7 L 181.0 53.7 L 183.0 53.7 L 181.0 74.7 L 184.3 76.9 L 186.5 80.2 L 184.3 83.5 L 181.0 85.7 L 124.0 85.7 L 121.4 85.6 L 119.0 85.3 L 116.6 84.5 L 114.4 83.4 L 112.4 81.8 L 110.7 79.8 L 109.5 77.6 L 108.6 75.3 L 108.1 72.8 L 108.0 70.2 L 108.0 19.8 L 120.0 25.8 L 155.0 25.8 L 161.0 20.8 L 172.0 29.8 L 167.0 33.8 L 167.0 50.2 L 166.8 52.7 L 166.4 55.2 L 165.6 57.6 L 164.3 59.9 L 162.7 61.9 L 160.7 63.6 L 158.4 64.8 L 156.0 65.6 L 153.5 66.0 L 151.0 66.2 L 151.0 60.2 L 131.0 57.2 Z M 56.93333330154419 34.3 L 55.4 36.6 L 51.5 41.8 L 47.2 46.8 L 46.06049547195435 48.01382007598877 L 46.4 48.2 L 49.6 49.5 L 52.6 50.9 L 55.4 52.5 L 57.9 54.1 L 60.3 55.9 L 62.5 57.7 L 64.5 59.6 L 66.4 61.6 L 68.0 63.7 L 68.08518276214599 65.00613574981689 L 72.7 58.5 L 78.1 49.5 L 82.6 40.1 L 84.76767673492432 34.3 Z " />
</g>
</svg>
