<svg xmlns="http://www.w3.org/2000/svg" xmlns:xlink="http://www.w3.org/1999/xlink" version="1.1" baseProfile="full" viewBox="0 0 200 200" width="200" height="200">
<g fill="black">
<path d="M 70.0 177.0 L 90.0 177.0 L 91.2 176.9 L 92.1 176.7 L 93.0 176.4 L 93.4 176.0 L 93.7 175.1 L 93.9 174.2 L 94.0 173.0 L 94.0 146.0 L 13.0 146.0 L 13.0 142.0 L 94.0 142.0 L 94.0 125.0 L 105.12830190658569 126.85471696853638 L 106.0 126.3 L 110.3 123.6 L 114.6 121.0 L 118.8 118.6 L 127.0 113.8 L 130.05217390060426 112.0 L 44.0 112.0 L 44.0 108.0 L 136.73043479919434 108.0 L 142.2 104.6 L 142.4639039993286 105.11341333389282 L 145.0 103.0 L 156.0 112.0 L 151.0 115.0 L 139.0 120.0 L 139.0 118.90238094329834 L 135.3 120.4 L 130.9 122.1 L 126.5 123.7 L 121.9 125.3 L 117.2 126.9 L 112.4 128.3 L 108.45882349014282 129.32470588684083 L 106.0 130.8 L 106.0 142.0 L 166.0 142.0 L 176.0 132.0 L 188.0 142.0 L 188.0 146.0 L 106.0 146.0 L 106.0 173.0 L 105.8 175.5 L 105.4 178.0 L 104.6 180.4 L 103.3 182.7 L 101.7 184.7 L 99.7 186.3 L 97.4 187.6 L 95.0 188.4 L 92.5 188.8 L 90.0 189.0 L 90.0 183.0 L 70.0 180.0 Z M 142.3 94.3 L 133.5 90.5 L 124.3 86.9 L 114.6 83.5 L 112.0492829322815 82.66659736633301 L 108.6 84.5 L 95.4 89.5 L 80.3 93.7 L 63.3 97.0 L 44.2 99.4 L 23.0 100.8 L 22.9 99.1 L 43.6 95.6 L 62.2 91.7 L 78.7 87.3 L 92.9 82.4 L 100.27303371429443 78.99229536056518 L 94.0 77.2 L 83.0 74.2 L 71.6 71.4 L 63.79837284088135 69.4826509475708 L 56.1 79.2 L 42.9 76.5 L 67.0768292427063 46.0 L 14.0 46.0 L 14.0 42.0 L 70.24756097793579 42.0 L 94.9 10.9 L 103.0 20.0 L 104.1 23.4 L 100.1209900856018 23.6340594291687 L 85.57094593048096 42.0 L 164.0 42.0 L 174.0 32.0 L 186.0 42.0 L 186.0 46.0 L 143.52574253082275 46.0 L 141.2 54.7 L 136.2 63.8 L 129.0 71.7 L 122.26823749542237 76.69453344345092 L 127.2 78.0 L 137.0 81.1 L 146.4 84.3 L 155.4 87.9 L 164.0 91.7 L 166.9 95.3 L 166.6 99.8 L 163.1 102.7 L 158.5 102.4 L 150.6 98.2 Z M 82.40202703475953 46.0 L 65.67693767547607 67.11141347885132 L 72.3 67.6 L 84.0 69.0 L 95.4 70.8 L 106.4 72.9 L 110.00146923065185 73.71542701721191 L 114.6 70.9 L 122.0 64.5 L 127.3 57.7 L 130.6 50.7 L 131.44179105758667 46.0 Z " />
</g>
</svg>
