<svg xmlns="http://www.w3.org/2000/svg" xmlns:xlink="http://www.w3.org/1999/xlink" version="1.1" baseProfile="full" viewBox="0 0 200 200" width="200" height="200">
<g fill="black">
<path d="M 110.7 174.4 L 130.7 174.4 L 132.0 174.3 L 132.9 174.2 L 133.5 174.0 L 133.8 173.8 L 134.0 173.7 L 134.3 173.1 L 134.5 172.6 L 134.7 171.6 L 134.7 149.8 L 97.5 149.8 L 97.5 145.8 L 134.7 145.8 L 134.7 129.6 L 144.68755979537963 131.2645933151245 L 146.1 130.3 L 149.7 127.4 L 153.1 124.7 L 156.2 122.3 L 159.0 120.0 L 161.4 117.8 L 161.7473684310913 117.5 L 104.4 117.5 L 104.4 113.5 L 165.9 113.5 L 165.99230766296387 113.42307691574096 L 166.8 112.5 L 167.8 111.1 L 168.22268371582032 111.5644302368164 L 171.9 108.5 L 182.9 117.5 L 177.9 120.5 L 165.9 125.5 L 165.9 125.24516124725342 L 163.1 126.6 L 159.7 128.1 L 156.0 129.6 L 151.9 131.2 L 148.1470588684082 132.56470584869385 L 149.7 133.6 L 146.7 135.4 L 146.7 145.8 L 165.4 145.8 L 175.4 135.8 L 187.4 145.8 L 187.4 149.8 L 146.7 149.8 L 146.7 170.4 L 146.6 173.0 L 146.1 175.5 L 145.3 177.9 L 144.1 180.1 L 142.5 182.2 L 140.5 183.8 L 138.2 185.0 L 135.8 185.8 L 133.3 186.3 L 130.7 186.4 L 130.7 180.4 L 110.7 177.4 Z M 32.1 174.3 L 46.1 174.3 L 47.3 174.2 L 48.2 174.1 L 48.8 173.9 L 49.4 173.6 L 49.7 173.0 L 49.9 172.4 L 50.0 171.5 L 50.1 170.3 L 50.1 152.48048782348633 L 49.4 152.6 L 41.2 153.9 L 33.2 155.1 L 25.2 156.2 L 21.338792514801025 156.73763647079468 L 19.5 160.1 L 17.3 157.3 L 14.1 145.5 L 16.1 145.3 L 24.1 144.9 L 32.1 144.4 L 40.2 143.9 L 48.3 143.3 L 50.1 143.1915662765503 L 50.1 128.7 L 56.9 129.8333333015442 L 59.3 128.3 L 62.7 125.9 L 66.0 123.7 L 69.1 121.5 L 72.0 119.4 L 74.9 117.5 L 75.16000003814698 117.3 L 15.7 117.3 L 15.7 113.3 L 80.51111106872558 113.3 L 82.3 111.9 L 84.5 110.2 L 84.77570495605468 110.65357913970948 L 87.6 108.3 L 98.6 117.3 L 93.6 120.3 L 81.6 125.3 L 81.6 124.1875 L 78.9 125.2 L 75.6 126.4 L 72.1 127.6 L 68.5 128.8 L 64.6 129.9 L 61.84528303146362 130.65754718780516 L 62.1 130.7 L 65.1 132.7 L 62.1 134.5 L 62.1 142.468674659729 L 64.9 142.3 L 73.4 141.7 L 81.9 141.3 L 90.6 140.9 L 99.3 140.7 L 99.6 142.5 L 91.1 144.7 L 82.6 146.6 L 74.2 148.3 L 65.9 149.8 L 62.1 150.4409638404846 L 62.1 170.3 L 62.0 172.9 L 61.5 175.4 L 60.7 177.8 L 59.5 180.0 L 57.8 182.0 L 55.8 183.7 L 53.6 184.9 L 51.2 185.7 L 48.7 186.2 L 46.1 186.3 L 46.1 180.3 L 32.1 177.3 Z M 157.3 98.7 L 149.3 92.1 L 142.1 84.8 L 138.4753900527954 80.52620611190795 L 131.1 86.9 L 122.2 93.4 L 112.7 99.3 L 102.4 104.7 L 101.5 103.2 L 110.5 96.2 L 118.9 89.1 L 126.7 82.0 L 133.8 74.6 L 133.8019232749939 74.5976861000061 L 129.5 68.4 L 124.3 59.3 L 119.8 49.5 L 116.1 39.2 L 113.59636363983154 29.0 L 104.0 29.0 L 104.0 25.0 L 162.0 25.0 L 168.0 20.0 L 179.0 29.0 L 174.0 32.0 L 171.9319149017334 32.8617021560669 L 169.6 38.4 L 164.9 47.6 L 159.5 56.3 L 153.5 64.6 L 146.7 72.5 L 145.44161071777344 73.74161071777344 L 149.3 77.6 L 156.5 83.6 L 164.1 89.0 L 172.2 93.8 L 180.8 98.0 L 186.4 100.7 L 175.1 109.9 L 165.9 104.6 Z M 20.0 105.0 L 20.0 19.5 L 32.0 25.5 L 77.5 25.5 L 87.5 15.5 L 99.5 25.5 L 99.5 29.5 L 65.5 29.5 L 65.5 47.0 L 82.0 47.0 L 88.0 42.0 L 99.0 51.0 L 94.0 55.0 L 94.0 77.5 L 82.0 83.5 L 82.0 75.5 L 65.5 75.5 L 65.5 95.0 L 83.81818180084228 95.0 L 92.0 86.0 L 102.0 95.0 L 102.0 99.0 L 32.0 99.0 Z M 32.0 75.5 L 32.0 95.0 L 53.5 95.0 L 53.5 75.5 Z M 32.0 71.5 L 82.0 71.5 L 82.0 51.0 L 32.0 51.0 Z M 115.78599996566773 29.0 L 120.0 37.6 L 125.1 46.9 L 130.5 55.6 L 136.4 63.6 L 139.70675420761108 67.49343633651733 L 140.2 66.9 L 146.0 59.1 L 151.0 51.0 L 155.4 42.6 L 159.2 33.9 L 160.9067416191101 29.0 Z M 32.0 29.5 L 32.0 47.0 L 53.5 47.0 L 53.5 29.5 Z " />
</g>
</svg>
