<svg xmlns="http://www.w3.org/2000/svg" xmlns:xlink="http://www.w3.org/1999/xlink" version="1.1" baseProfile="full" viewBox="0 0 200 200" width="200" height="200">
<g fill="black">
<path d="M 70.0 177.0 L 90.0 177.0 L 91.2 176.9 L 92.1 176.7 L 93.0 176.4 L 93.4 176.0 L 93.7 175.1 L 93.9 174.2 L 94.0 173.0 L 94.0 146.0 L 13.0 146.0 L 13.0 142.0 L 94.0 142.0 L 94.0 125.0 L 105.12830190658569 126.85471696853638 L 106.0 126.3 L 110.3 123.6 L 114.6 121.0 L 118.8 118.6 L 127.0 113.8 L 130.05217390060426 112.0 L 44.0 112.0 L 44.0 108.0 L 136.73043479919434 108.0 L 142.2 104.6 L 142.4639039993286 105.11341333389282 L 145.0 103.0 L 156.0 112.0 L 151.0 115.0 L 139.0 120.0 L 139.0 118.90238094329834 L 135.3 120.4 L 130.9 122.1 L 126.5 123.7 L 121.9 125.3 L 117.2 126.9 L 112.4 128.3 L 108.45882349014282 129.32470588684083 L 106.0 130.8 L 106.0 142.0 L 166.0 142.0 L 176.0 132.0 L 188.0 142.0 L 188.0 146.0 L 106.0 146.0 L 106.0 173.0 L 105.8 175.5 L 105.4 178.0 L 104.6 180.4 L 103.3 182.7 L 101.7 184.7 L 99.7 186.3 L 97.4 187.6 L 95.0 188.4 L 92.5 188.8 L 90.0 189.0 L 90.0 183.0 L 70.0 180.0 Z M 146.6 99.2 L 132.7 96.8 L 119.5 93.9 L 107.1 90.4 L 95.6 86.2 L 89.67987728118896 83.568834400177 L 88.8 84.3 L 80.2 89.2 L 70.0 93.3 L 58.2 96.7 L 44.8 99.3 L 29.8 101.1 L 13.0 102.1 L 12.9 100.3 L 29.2 97.4 L 43.7 94.0 L 56.4 90.4 L 67.3 86.3 L 76.2 81.7 L 80.22773246765136 78.88058729171753 L 75.0 76.0 L 66.0 69.9 L 58.2 63.0 L 59.3 61.6 L 68.3 66.4 L 77.7 70.8 L 85.95208911895752 74.10083560943603 L 88.4 71.7 L 91.8 66.3 L 93.6 60.8 L 93.68813562393188 59.5 L 48.0 59.5 L 48.0 66.5 L 36.0 72.5 L 36.0 24.0 L 48.0 30.0 L 94.0 30.0 L 94.0 12.3 L 106.0 14.3 L 109.0 16.3 L 106.0 18.1 L 106.0 30.0 L 152.0 30.0 L 158.0 25.0 L 169.0 34.0 L 164.0 38.0 L 164.0 63.5 L 152.0 69.5 L 152.0 59.5 L 105.25977010726929 59.5 L 104.6 63.6 L 101.2 71.5 L 96.44682083129882 77.68810119628907 L 98.3 78.3 L 109.7 81.4 L 121.7 83.9 L 134.5 85.9 L 147.9 87.4 L 162.2 88.4 L 177.2 88.9 L 188.6 89.3 L 176.7 102.1 L 161.3 100.9 Z M 152.0 55.5 L 152.0 34.0 L 106.0 34.0 L 106.0 54.9 L 105.90344829559326 55.5 Z M 48.0 34.0 L 48.0 55.5 L 93.95932207107543 55.5 L 94.0 54.9 L 94.0 34.0 Z " />
</g>
</svg>
