<svg xmlns="http://www.w3.org/2000/svg" xmlns:xlink="http://www.w3.org/1999/xlink" version="1.1" baseProfile="full" viewBox="0 0 200 200" width="200" height="200">
<g fill="black">
<path d="M 149.0 110.0 L 152.0 112.0 L 149.0 113.8 L 149.0 142.0 L 166.0 142.0 L 176.0 132.0 L 188.0 142.0 L 188.0 146.0 L 149.0 146.0 L 149.0 182.0 L 137.0 188.0 L 137.0 146.0 L 83.0 146.0 L 83.0 142.0 L 99.93500003814697 142.0 L 101.3 139.4 L 103.0 135.4 L 104.7 131.6 L 106.4 128.0 L 108.0 124.6 L 109.5 121.3 L 110.8 118.2 L 112.1 115.3 L 113.2 112.6 L 113.83190727233887 110.95704097747803 L 113.7 110.9 L 114.7 109.0 L 124.8 115.7 L 126.5 118.9 L 122.28336811065674 119.04293670654297 L 121.1 120.6 L 119.1 123.2 L 117.0 125.9 L 114.7 128.8 L 112.2 131.7 L 109.6 134.8 L 106.8 137.9 L 103.7 141.0 L 102.84285717010498 142.0 L 137.0 142.0 L 137.0 108.0 Z M 28.1 176.0 L 42.1 176.0 L 43.3 175.9 L 44.2 175.7 L 44.8 175.5 L 45.2 175.4 L 45.4 175.2 L 45.5 175.0 L 45.7 174.7 L 45.9 174.1 L 46.0 173.2 L 46.1 172.0 L 46.1 110.5 L 39.2 112.8 L 31.7 115.2 L 24.3 117.4 L 20.916266441345215 118.41975536346436 L 19.6 122.0 L 17.0 119.6 L 12.2 108.3 L 14.2 107.9 L 21.5 106.4 L 29.0 104.8 L 36.5 103.1 L 44.1 101.4 L 46.1 100.93246755599975 L 46.1 62.0 L 53.33028392791748 63.20504732131958 L 54.3 61.6 L 57.1 57.0 L 59.9 52.7 L 62.6 48.5 L 65.3 44.4 L 67.7 40.4 L 70.1 36.6 L 72.3 32.8 L 73.35 31.0 L 14.6 31.0 L 14.6 27.0 L 75.4 27.0 L 75.75478258132935 26.704347801208495 L 76.3 25.7 L 76.6724021911621 25.939664840698242 L 81.4 22.0 L 92.4 31.0 L 87.4 34.0 L 83.91223020553589 35.4532374382019 L 83.8 35.6 L 81.1 39.0 L 78.2 42.4 L 75.1 46.0 L 71.9 49.5 L 68.5 53.1 L 64.9 56.7 L 61.1 60.4 L 57.25625 63.859375 L 58.1 64.0 L 61.1 66.0 L 58.1 67.8 L 58.1 98.06538457870484 L 59.6 97.7 L 67.5 95.7 L 83.7 91.9 L 92.1 90.1 L 92.7 91.8 L 85.0 95.5 L 77.2 98.9 L 69.5 102.0 L 61.9 104.9 L 58.1 106.28181819915771 L 58.1 172.0 L 58.0 174.5 L 57.5 177.0 L 56.7 179.4 L 55.5 181.7 L 53.8 183.7 L 51.8 185.3 L 49.6 186.6 L 47.2 187.4 L 44.7 187.8 L 42.1 188.0 L 42.1 182.0 L 28.1 179.0 Z M 107.0 111.0 L 95.0 117.0 L 95.0 33.0 L 107.0 39.0 L 114.54827585220337 39.0 L 116.1 36.5 L 120.4 27.9 L 121.8 25.2 L 124.2 20.0 L 125.3 17.5 L 126.3 15.1 L 126.89018039703369 13.742585182189941 L 126.8 13.7 L 127.8 11.9 L 137.6 18.8 L 139.2 22.1 L 134.90476188659667 22.1 L 134.0 23.1 L 132.1 25.3 L 130.0 27.5 L 127.9 29.6 L 123.3 34.0 L 120.8 36.1 L 118.1 38.2 L 117.23043479919434 39.0 L 165.0 39.0 L 171.0 34.0 L 182.0 43.0 L 177.0 47.0 L 177.0 110.0 L 165.0 116.0 L 165.0 104.0 L 107.0 104.0 Z M 107.0 75.0 L 107.0 100.0 L 130.0 100.0 L 130.0 75.0 Z M 142.0 75.0 L 142.0 100.0 L 165.0 100.0 L 165.0 75.0 Z M 107.0 43.0 L 107.0 71.0 L 130.0 71.0 L 130.0 43.0 Z M 142.0 43.0 L 142.0 71.0 L 165.0 71.0 L 165.0 43.0 Z " />
</g>
</svg>
