<svg xmlns="http://www.w3.org/2000/svg" xmlns:xlink="http://www.w3.org/1999/xlink" version="1.1" baseProfile="full" viewBox="0 0 200 200" width="200" height="200">
<g fill="black">
<path d="M 153.6 185.4 L 149.6 183.4 L 145.3 181.5 L 140.6 179.6 L 135.5 177.7 L 130.1 175.8 L 124.3 173.9 L 118.2 171.9 L 111.8 169.7 L 112.1 167.9 L 118.9 168.1 L 125.4 168.6 L 131.6 169.4 L 137.5 170.4 L 143.0 171.4 L 148.2 172.7 L 153.2 174.0 L 157.8 175.5 L 162.1 177.1 L 166.2 178.8 L 169.0 182.4 L 168.6 186.9 L 165.0 189.8 L 160.4 189.3 L 157.2 187.3 Z M 78.5168740272522 165.82477016448973 L 87.0 173.3 L 87.2 176.5 L 83.20138568878174 174.803618144989 L 82.2 175.2 L 76.9 176.9 L 71.3 178.6 L 65.5 180.2 L 59.4 181.7 L 53.1 183.2 L 46.6 184.5 L 39.9 185.8 L 32.9 186.9 L 25.7 187.8 L 18.1 188.5 L 17.8 186.7 L 24.8 184.1 L 31.6 181.7 L 38.3 179.4 L 44.6 177.2 L 50.8 175.0 L 56.7 172.8 L 62.3 170.7 L 67.7 168.5 L 72.9 166.3 L 76.90895404815674 164.41824607849122 L 76.9 164.4 L 76.9166217803955 164.4146469116211 L 77.16086959838867 164.3 L 14.0 164.3 L 14.0 160.3 L 75.0 160.3 L 75.0 151.3 L 50.0 151.3 L 38.0 157.3 L 38.0 128.4 L 50.0 130.4 L 53.0 132.4 L 50.0 134.2 L 50.0 147.3 L 75.0 147.3 L 75.0 126.2 L 87.0 128.2 L 90.0 130.2 L 87.0 132.0 L 87.0 160.3 L 113.0 160.3 L 113.0 126.2 L 125.0 128.2 L 128.0 130.2 L 125.0 132.0 L 125.0 147.3 L 150.0 147.3 L 150.0 128.4 L 162.0 130.4 L 165.0 132.4 L 162.0 134.2 L 162.0 151.3 L 150.0 157.3 L 150.0 151.3 L 125.0 151.3 L 125.0 160.3 L 167.8181818008423 160.3 L 176.0 151.3 L 186.0 160.3 L 186.0 164.3 L 77.91785717010498 164.3 Z M 92.1 114.5 L 92.7 114.3 L 93.0 114.1 L 93.2 114.0 L 93.4 113.8 L 93.7 112.9 L 93.9 112.0 L 94.0 110.7 L 94.0 101.0 L 19.1 101.0 L 19.1 97.0 L 94.0 97.0 L 94.0 88.1 L 103.67929515838622 89.7132158279419 L 107.5 87.9 L 113.0 85.3 L 118.2 82.9 L 123.0 80.8 L 127.5 78.7 L 129.6052631378174 77.7 L 43.6 77.7 L 43.6 73.7 L 137.54705886840821 73.7 L 138.3 73.3 L 141.1 71.8 L 143.4 70.3 L 143.59471368789673 70.70440530776978 L 146.0 68.7 L 157.0 77.7 L 152.0 80.7 L 140.0 85.7 L 140.0 83.91351346969604 L 138.7 84.3 L 134.7 85.4 L 130.3 86.6 L 125.4 87.8 L 120.2 89.0 L 114.6 90.2 L 108.6 91.3 L 107.9619631767273 91.40797548294067 L 109.0 92.1 L 106.0 93.9 L 106.0 97.0 L 158.8 97.0 L 168.8 87.0 L 180.8 97.0 L 180.8 101.0 L 106.0 101.0 L 106.0 110.7 L 105.8 113.3 L 105.4 115.8 L 104.6 118.2 L 103.3 120.4 L 101.7 122.5 L 99.7 124.1 L 97.4 125.3 L 95.0 126.1 L 92.5 126.6 L 89.9 126.7 L 89.95006246566773 120.69250936508179 L 70.0 117.7 L 70.0 114.7 L 91.2 114.7 Z M 84.0 15.0 L 87.0 17.0 L 84.0 18.8 L 84.0 61.0 L 72.0 67.0 L 72.0 52.0 L 18.0 52.0 L 18.0 48.0 L 72.0 48.0 L 72.0 31.0 L 23.0 31.0 L 23.0 27.0 L 72.0 27.0 L 72.0 13.0 Z M 128.0 15.0 L 131.0 17.0 L 128.0 18.8 L 128.0 27.0 L 158.0 27.0 L 168.0 17.0 L 180.0 27.0 L 180.0 31.0 L 128.0 31.0 L 128.0 49.0 L 168.8181818008423 49.0 L 177.0 40.0 L 187.0 49.0 L 187.0 53.0 L 128.0 53.0 L 128.0 61.0 L 116.0 67.0 L 116.0 13.0 Z " />
</g>
</svg>
