<svg xmlns="http://www.w3.org/2000/svg" xmlns:xlink="http://www.w3.org/1999/xlink" version="1.1" baseProfile="full" viewBox="0 0 200 200" width="200" height="200">
<g fill="black">
<path d="M 149.0 98.8 L 152.0 100.8 L 149.0 102.6 L 149.0 115.6 L 165.0 115.6 L 175.0 105.6 L 187.0 115.6 L 187.0 119.6 L 149.0 119.6 L 149.0 180.4 L 137.0 186.4 L 137.0 178.4 L 63.0 178.4 L 63.0 181.4 L 51.0 187.4 L 51.0 119.6 L 13.0 119.6 L 13.0 115.6 L 51.0 115.6 L 51.0 96.8 L 63.0 98.8 L 66.0 100.8 L 63.0 102.6 L 63.0 115.6 L 137.0 115.6 L 137.0 96.8 Z M 63.0 147.7 L 63.0 174.4 L 137.0 174.4 L 137.0 147.7 Z M 63.0 119.6 L 63.0 143.7 L 137.0 143.7 L 137.0 119.6 Z M 70.0 91.0 L 90.0 91.0 L 91.2 90.9 L 92.1 90.7 L 93.0 90.4 L 93.4 90.0 L 93.7 89.1 L 93.9 88.2 L 94.0 87.0 L 94.0 58.0 L 13.0 58.0 L 13.0 54.0 L 94.0 54.0 L 94.0 38.0 L 103.94951457977295 39.65825242996216 L 106.0 38.4 L 110.4 35.9 L 114.6 33.4 L 118.8 31.0 L 122.9 28.7 L 126.9 26.3 L 130.6375 24.0 L 44.0 24.0 L 44.0 20.0 L 137.0666666984558 20.0 L 138.3 19.2 L 141.9 16.8 L 142.21061754226685 17.32448539733887 L 145.0 15.0 L 156.0 24.0 L 151.0 27.0 L 139.0 32.0 L 139.0 31.293023300170898 L 135.4 32.8 L 131.0 34.6 L 126.5 36.2 L 121.9 37.8 L 117.2 39.3 L 112.3 40.7 L 108.3725191116333 41.581679344177246 L 109.0 42.0 L 106.0 43.8 L 106.0 54.0 L 166.0 54.0 L 176.0 44.0 L 188.0 54.0 L 188.0 58.0 L 106.0 58.0 L 106.0 87.0 L 105.8 89.5 L 105.4 92.0 L 104.6 94.4 L 103.3 96.7 L 101.7 98.7 L 99.7 100.3 L 97.4 101.6 L 95.0 102.4 L 92.5 102.8 L 90.0 103.0 L 90.0 97.0 L 70.0 94.0 Z " />
</g>
</svg>
