<svg xmlns="http://www.w3.org/2000/svg" xmlns:xlink="http://www.w3.org/1999/xlink" version="1.1" baseProfile="full" viewBox="0 0 200 200" width="200" height="200">
<g fill="black">
<path d="M 70.0 176.0 L 91.2 176.0 L 92.1 175.8 L 92.7 175.6 L 93.0 175.4 L 93.2 175.3 L 93.4 175.1 L 93.7 174.2 L 93.9 173.3 L 94.0 172.0 L 94.0 142.9 L 13.0 142.9 L 13.0 138.9 L 94.0 138.9 L 94.0 120.9 L 105.29285717010498 122.78214282989502 L 106.0 122.3 L 110.3 119.5 L 118.7 114.3 L 122.9 111.8 L 126.9 109.3 L 130.6375 107.0 L 44.0 107.0 L 44.0 103.0 L 137.0125 103.0 L 138.4 102.1 L 142.0 99.8 L 142.2696409225464 100.27529926300049 L 145.0 98.0 L 156.0 107.0 L 151.0 110.0 L 139.0 115.0 L 139.0 114.1714285850525 L 135.4 115.8 L 131.0 117.6 L 122.0 121.0 L 117.3 122.7 L 112.4 124.3 L 107.9 125.56000003814697 L 106.0 126.7 L 106.0 138.9 L 166.0 138.9 L 176.0 128.9 L 188.0 138.9 L 188.0 142.9 L 106.0 142.9 L 106.0 172.0 L 105.8 174.6 L 105.4 177.1 L 104.6 179.5 L 103.3 181.7 L 101.7 183.8 L 99.7 185.4 L 97.4 186.6 L 95.0 187.4 L 92.5 187.9 L 90.0 188.0 L 90.0 182.0 L 70.0 179.0 Z M 15.0 83.0 L 94.0 83.0 L 94.0 60.6 L 46.0 60.6 L 46.0 67.6 L 34.0 73.6 L 34.0 24.6 L 46.0 26.6 L 49.0 28.6 L 46.0 30.4 L 46.0 56.6 L 94.0 56.6 L 94.0 14.9 L 106.0 16.9 L 109.0 18.9 L 106.0 20.7 L 106.0 56.6 L 154.0 56.6 L 154.0 24.6 L 166.0 26.6 L 169.0 28.6 L 166.0 30.4 L 166.0 64.6 L 154.0 70.6 L 154.0 60.6 L 106.0 60.6 L 106.0 83.0 L 166.8181818008423 83.0 L 175.0 74.0 L 185.0 83.0 L 185.0 87.0 L 15.0 87.0 Z " />
</g>
</svg>
