<svg xmlns="http://www.w3.org/2000/svg" xmlns:xlink="http://www.w3.org/1999/xlink" version="1.1" baseProfile="full" viewBox="0 0 200 200" width="200" height="200">
<g fill="black">
<path d="M 169.3 180.0 L 164.9 176.9 L 160.8 173.7 L 157.0 170.2 L 153.5 166.6 L 150.4 162.7 L 147.7 158.7 L 147.5 158.32608699798584 L 147.5 184.3 L 135.5 190.3 L 135.5 163.0 L 134.4 164.1 L 130.2 167.7 L 125.7 171.0 L 120.8 174.0 L 115.6 176.8 L 110.2 179.2 L 104.4 181.2 L 98.2 182.8 L 97.6 181.1 L 102.8 177.8 L 107.7 174.5 L 112.2 171.2 L 116.5 167.8 L 120.4 164.4 L 123.9 160.8 L 127.1 157.1 L 130.0 153.4 L 131.9333333015442 150.5 L 99.4 150.5 L 99.4 146.5 L 135.5 146.5 L 135.5 135.80923080444336 L 132.8 136.1 L 126.0 136.6 L 119.1 137.0 L 111.9 137.0 L 104.4 136.8 L 104.2 135.1 L 111.4 133.3 L 118.4 131.6 L 125.1 130.1 L 131.6 128.6 L 137.9 127.1 L 143.9 125.6 L 149.7 124.0 L 155.2 122.4 L 160.5 120.7 L 164.6386607170105 119.40159664154052 L 164.6 119.3 L 164.69875745773317 119.38274278640748 L 165.6 119.1 L 165.99207916259766 120.46633663177491 L 175.7 128.6 L 176.0 131.7 L 171.75615215301514 129.7599552154541 L 168.9 130.6 L 163.4 131.8 L 157.7 132.8 L 151.8 133.8 L 147.5 134.4344262123108 L 147.5 146.5 L 161.5 146.5 L 171.5 136.5 L 183.5 146.5 L 183.5 150.5 L 147.5 150.5 L 147.5 150.9371428489685 L 148.7 152.0 L 152.1 155.0 L 155.5 157.9 L 159.1 160.5 L 162.8 163.1 L 166.7 165.4 L 170.7 167.6 L 175.0 169.6 L 179.4 171.5 L 184.1 173.2 L 190.5 175.8 L 179.0 185.4 L 174.0 182.8 Z M 35.6 176.2 L 51.6 176.2 L 52.8 176.1 L 53.7 176.0 L 54.3 175.8 L 54.6 175.6 L 54.8 175.5 L 55.0 175.3 L 55.1 174.9 L 55.3 174.4 L 55.5 173.4 L 55.6 172.2 L 55.6 153.9731707572937 L 54.8 154.1 L 46.7 155.4 L 38.6 156.6 L 30.6 157.8 L 26.683221912384035 158.29579467773436 L 24.9 161.6 L 22.7 158.8 L 19.5 147.1 L 21.5 146.9 L 37.5 145.9 L 45.6 145.4 L 53.8 144.9 L 55.6 144.76987953186034 L 55.6 130.0 L 62.44285717010498 131.14047622680664 L 64.8 129.7 L 68.2 127.2 L 71.4 124.9 L 74.6 122.8 L 77.5 120.7 L 80.3 118.7 L 80.70500001907348 118.4 L 21.1 118.4 L 21.1 114.4 L 86.13888893127441 114.4 L 87.8 113.1 L 90.0 111.3 L 90.27864074707031 111.7511326789856 L 93.1 109.4 L 100.7837984085083 115.68674421310425 L 104.8 114.4 L 114.2 110.8 L 122.8 106.8 L 130.5 102.4 L 135.43430318832398 98.87549772262574 L 132.2 95.7 L 127.7 89.7 L 124.1 83.2 L 121.7 76.2 L 120.4493332862854 69.5 L 111.5 69.5 L 111.5 65.5 L 160.2 65.5 L 166.2 60.5 L 177.2 69.5 L 172.2 72.5 L 169.9346784591675 73.44388399124145 L 167.5 78.2 L 162.4 85.8 L 156.5 92.8 L 150.88869333267212 97.90880165100097 L 155.8 100.1 L 163.0 102.5 L 171.0 104.5 L 179.7 105.9 L 189.4 107.5 L 177.5 118.9 L 168.0 116.6 L 159.2 113.7 L 151.2 110.1 L 144.1 106.0 L 142.10395584106445 104.47177867889404 L 134.3 109.0 L 125.4 112.8 L 115.9 115.9 L 105.7 118.1 L 104.00017623901367 118.31832599639893 L 104.1 118.4 L 99.1 121.4 L 87.1 126.4 L 87.1 125.39354839324952 L 84.5 126.4 L 81.1 127.6 L 77.6 128.9 L 74.0 130.1 L 70.1 131.2 L 67.3028037071228 131.95046730041503 L 67.6 132.0 L 70.6 134.0 L 67.6 135.8 L 67.6 143.968674659729 L 70.4 143.8 L 78.9 143.2 L 87.4 142.7 L 96.1 142.4 L 104.9 142.2 L 105.1 144.0 L 96.6 146.1 L 88.1 148.1 L 79.7 149.8 L 71.3 151.3 L 67.6 151.968674659729 L 67.6 172.2 L 67.4 174.8 L 67.0 177.3 L 66.2 179.7 L 65.0 181.9 L 63.3 184.0 L 61.3 185.6 L 59.0 186.8 L 56.6 187.6 L 54.1 188.1 L 51.6 188.2 L 51.6 182.2 L 35.6 179.2 Z M 91.5 92.7 L 91.5 96.7 L 30.2 96.7 L 30.2 92.7 L 73.31818180084228 92.7 L 81.5 83.7 Z M 13.4 95.1 L 11.2 91.1 L 12.4 86.7 L 13.9 85.3 L 15.3 83.8 L 16.7 82.2 L 18.0 80.5 L 19.3 78.6 L 20.4 76.5 L 21.5 74.3 L 22.6 72.0 L 23.6 69.5 L 24.1 66.7 L 25.9 66.8 L 26.0 69.7 L 26.34285717010498 72.1 L 95.3 72.1 L 101.3 67.1 L 112.3 76.1 L 107.3 79.1 L 104.68497114181518 80.18959541320801 L 103.0 83.1 L 101.8 85.0 L 100.6 86.8 L 97.8 90.6 L 96.3 92.5 L 95.2 94.5 L 93.5 93.8 L 94.2 91.6 L 94.6 87.0 L 95.0 82.6 L 95.1 80.5 L 95.3 78.5 L 95.3 76.1 L 26.575 76.1 L 26.5 78.2 L 26.2 80.9 L 25.8 83.7 L 25.1 86.4 L 24.2 89.0 L 23.1 91.6 L 21.8 94.1 L 17.8 96.3 Z M 122.790625 69.5 L 125.5 74.6 L 129.3 80.3 L 133.4 85.3 L 138.1 89.8 L 142.46054191589354 93.00870065689087 L 143.6 92.0 L 149.0 86.1 L 153.6 79.7 L 157.5 72.7 L 158.88378381729126 69.5 Z M 130.6 18.2 L 152.2 18.2 L 158.2 13.2 L 169.2 22.2 L 164.2 26.2 L 164.2 44.0 L 164.1 45.2 L 164.1 46.2 L 164.2 46.9 L 164.3 47.4 L 164.4 47.8 L 164.6 48.2 L 165.0 48.5 L 165.7 48.9 L 166.8 49.3 L 168.2 49.5 L 177.0 49.5 L 181.5 36.5 L 183.5 36.5 L 181.5 49.5 L 184.2 51.3 L 186.0 54.0 L 184.2 56.7 L 181.5 58.5 L 165.8 58.5 L 163.4 58.3 L 161.1 57.6 L 159.0 56.6 L 157.0 55.2 L 155.3 53.4 L 154.0 51.3 L 153.1 49.0 L 152.5 46.5 L 152.2 44.0 L 152.2 22.2 L 130.6 22.2 L 130.6 34.9 L 130.0 39.1 L 128.7 43.0 L 127.0 46.7 L 124.8 50.2 L 122.1 53.3 L 119.0 56.2 L 115.4 58.8 L 111.5 61.2 L 107.1 63.2 L 102.4 65.2 L 101.5 63.7 L 105.5 60.7 L 108.8 57.5 L 111.6 54.4 L 114.0 51.4 L 115.8 48.5 L 117.2 45.7 L 118.1 42.9 L 118.6 40.2 L 118.8 37.6 L 118.6 34.9 L 118.6 12.2 Z M 25.0 54.0 L 54.3 54.0 L 54.3 36.4 L 18.1 36.4 L 18.1 32.4 L 54.3 32.4 L 54.3 13.8 L 66.3 15.8 L 69.3 17.8 L 66.3 19.6 L 66.3 32.4 L 85.0 32.4 L 95.0 22.4 L 107.0 32.4 L 107.0 36.4 L 66.3 36.4 L 66.3 54.0 L 79.01818180084229 54.0 L 87.2 45.0 L 97.2 54.0 L 97.2 58.0 L 25.0 58.0 Z " />
</g>
</svg>
