<svg xmlns="http://www.w3.org/2000/svg" xmlns:xlink="http://www.w3.org/1999/xlink" version="1.1" baseProfile="full" viewBox="0 0 200 200" width="200" height="200">
<g fill="black">
<path d="M 105.62058372497559 108.02764978408814 L 105.15479669570922 112.97215852737426 L 106.7 121.9 L 109.7 131.2 L 113.7 139.5 L 116.95973014831543 144.2937208175659 L 120.2 142.5 L 125.7 139.5 L 131.0 136.7 L 136.2 134.0 L 141.3 131.3 L 146.2 128.7 L 150.9 126.0 L 155.5 123.4 L 159.9 120.8 L 163.3675358772278 118.70335035324096 L 163.3 118.6 L 163.3911169052124 118.68909206390381 L 164.2 118.2 L 165.68092012405396 120.92801084518433 L 172.3 127.4 L 172.4 130.8 L 168.73307723999022 129.2462191581726 L 165.2 130.9 L 160.3 133.0 L 155.3 135.1 L 150.1 137.1 L 144.7 139.1 L 139.2 141.0 L 133.5 142.8 L 127.6 144.5 L 121.5 146.0 L 118.54178428649902 146.62027101516725 L 118.8 147.0 L 125.2 153.6 L 132.9 159.5 L 141.9 164.7 L 152.3 169.2 L 164.1 173.0 L 177.3 176.0 L 186.3 177.9 L 174.6 188.9 L 160.5 184.9 L 147.8 180.1 L 136.6 174.4 L 126.9 167.8 L 118.7 160.3 L 112.1 151.9 L 107.2 142.8 L 104.0 132.9 L 102.965625 125.1421875 L 101.7 130.5 L 96.8 142.1 L 90.1 152.5 L 81.7 161.6 L 71.5 169.4 L 59.8 175.9 L 46.5 181.0 L 31.6 184.9 L 15.1 187.3 L 14.8 185.6 L 30.6 181.2 L 44.6 176.0 L 56.8 170.0 L 67.2 163.2 L 75.7 155.5 L 82.6 147.1 L 87.8 137.7 L 91.4 127.5 L 93.5 116.2 L 94.0 104.0 L 94.0 101.6 L 106.0 104.0 L 109.0 106.0 Z M 27.1 152.4 L 27.5 147.8 L 31.0 144.8 L 35.2 143.7 L 38.9 142.3 L 42.1 140.8 L 44.9 138.9 L 47.3 136.9 L 49.3 134.5 L 51.1 131.7 L 52.5 128.5 L 53.7 124.7 L 54.1 120.5 L 55.9 120.4 L 56.7 124.8 L 57.0 129.2 L 56.6 133.5 L 55.5 137.6 L 53.6 141.6 L 51.1 145.2 L 47.8 148.5 L 44.0 151.5 L 39.6 154.1 L 34.6 156.3 L 30.1 155.8 Z M 70.0 87.5 L 90.0 87.5 L 91.2 87.4 L 92.1 87.3 L 92.7 87.1 L 93.0 86.9 L 93.2 86.7 L 93.4 86.6 L 93.5 86.2 L 93.7 85.6 L 93.9 84.7 L 94.0 83.5 L 94.0 57.9 L 14.0 57.9 L 14.0 53.9 L 94.0 53.9 L 94.0 40.8 L 104.45467624664306 42.542446041107176 L 107.8 40.6 L 113.6 37.2 L 119.1 34.1 L 124.2 31.3 L 128.9 28.6 L 133.1 26.0 L 135.5782608985901 24.5 L 40.0 24.5 L 40.0 20.5 L 141.6050000190735 20.5 L 143.2 19.4 L 145.7 17.5 L 146.01621618270875 17.986486530303956 L 149.0 15.5 L 160.0 24.5 L 155.0 27.5 L 143.0 32.5 L 143.0 31.889743614196778 L 141.6 32.5 L 137.3 34.3 L 132.5 36.2 L 127.4 38.1 L 121.8 40.1 L 115.8 42.1 L 109.3 44.1 L 108.32577323913574 44.35051546096802 L 109.0 44.8 L 106.0 46.6 L 106.0 53.9 L 164.0 53.9 L 174.0 43.9 L 186.0 53.9 L 186.0 57.9 L 106.0 57.9 L 106.0 83.5 L 105.8 86.1 L 105.4 88.5 L 104.6 91.0 L 103.3 93.2 L 101.7 95.2 L 99.7 96.9 L 97.4 98.1 L 95.0 98.9 L 92.5 99.4 L 90.0 99.5 L 90.0 93.5 L 70.0 90.5 Z " />
</g>
</svg>
