<svg xmlns="http://www.w3.org/2000/svg" xmlns:xlink="http://www.w3.org/1999/xlink" version="1.1" baseProfile="full" viewBox="0 0 200 200" width="200" height="200">
<g fill="black">
<path d="M 70.0 176.2 L 90.0 176.2 L 91.2 176.1 L 92.1 176.0 L 92.7 175.8 L 93.0 175.6 L 93.2 175.4 L 93.4 175.3 L 93.5 174.9 L 93.7 174.3 L 93.9 173.4 L 94.0 172.2 L 94.0 143.4 L 13.0 143.4 L 13.0 139.4 L 94.0 139.4 L 94.0 121.6 L 105.29285717010498 123.48214282989503 L 106.0 123.0 L 110.3 120.2 L 114.5 117.6 L 122.9 112.6 L 126.9 110.1 L 130.475 107.9 L 44.0 107.9 L 44.0 103.9 L 136.95217390060424 103.9 L 138.4 103.0 L 142.1 100.6 L 142.36612377166747 101.0948968887329 L 145.0 98.9 L 156.0 107.9 L 151.0 110.9 L 139.0 115.9 L 139.0 115.05714282989501 L 135.4 116.6 L 131.0 118.4 L 122.0 121.8 L 117.3 123.4 L 112.4 125.0 L 107.9 126.26000003814697 L 106.0 127.4 L 106.0 139.4 L 166.0 139.4 L 176.0 129.4 L 188.0 139.4 L 188.0 143.4 L 106.0 143.4 L 106.0 172.2 L 105.8 174.7 L 105.4 177.2 L 104.6 179.6 L 103.3 181.9 L 101.7 183.9 L 99.7 185.6 L 97.4 186.8 L 95.0 187.6 L 92.5 188.0 L 90.0 188.2 L 90.0 182.2 L 70.0 179.2 Z M 16.1 74.9 L 21.8 73.5 L 27.7 71.9 L 33.6 70.4 L 39.7 68.8 L 45.8 67.1 L 52.1 65.4 L 58.5 63.8 L 65.1 62.1 L 71.8 60.5 L 73.0 60.2529411315918 L 73.0 42.0 L 21.0 42.0 L 21.0 38.0 L 73.0 38.0 L 73.0 15.0 L 85.0 17.0 L 88.0 19.0 L 85.0 20.8 L 85.0 85.0 L 73.0 91.0 L 73.0 64.1 L 66.8 67.1 L 60.7 70.0 L 54.6 72.6 L 42.6 77.6 L 36.7 79.9 L 25.3 84.3 L 23.57200002670288 84.94799995422363 L 22.5 88.7 L 19.7 86.4 L 14.2 75.5 Z M 181.0 53.5 L 183.0 53.5 L 181.0 74.5 L 184.3 76.7 L 186.5 80.0 L 184.3 83.3 L 181.0 85.5 L 129.0 85.5 L 126.4 85.4 L 124.0 85.0 L 121.6 84.2 L 119.4 83.1 L 117.4 81.5 L 115.7 79.6 L 114.5 77.4 L 113.6 75.0 L 113.1 72.5 L 113.0 70.0 L 113.0 15.0 L 125.0 17.0 L 128.0 19.0 L 125.0 20.8 L 125.0 47.165517234802245 L 130.5 44.7 L 136.2 42.2 L 141.7 39.8 L 147.0 37.3 L 152.1 34.9 L 156.9 32.5 L 161.6 30.0 L 166.0 27.6 L 169.4107689857483 25.616994762420653 L 169.4 25.6 L 169.41512632369995 25.614461421966553 L 170.3 25.1 L 171.70074062347413 27.799609088897704 L 178.5 34.3 L 178.6 37.6 L 174.86865673065185 36.10746269226074 L 171.0 37.8 L 166.1 39.8 L 160.9 41.7 L 155.5 43.5 L 150.0 45.3 L 144.2 46.9 L 138.3 48.4 L 132.2 49.8 L 125.8 50.9 L 125.0 51.00909090042114 L 125.0 71.2 L 125.1 72.1 L 125.2 72.7 L 125.4 73.1 L 125.5 73.4 L 125.7 73.6 L 126.1 73.9 L 126.7 74.1 L 127.7 74.3 L 129.0 74.5 L 175.5 74.5 Z " />
</g>
</svg>
