<svg xmlns="http://www.w3.org/2000/svg" xmlns:xlink="http://www.w3.org/1999/xlink" version="1.1" baseProfile="full" viewBox="0 0 200 200" width="200" height="200">
<g fill="black">
<path d="M 117.6 105.5 L 163.0 105.5 L 169.0 100.5 L 180.0 109.5 L 175.0 113.5 L 175.0 177.4 L 163.0 183.4 L 163.0 171.4 L 117.6 171.4 L 117.6 183.4 L 105.6 189.4 L 105.6 99.5 Z M 28.3 170.6 L 43.6 170.6 L 44.5 170.4 L 45.1 170.2 L 45.4 170.0 L 45.6 169.9 L 45.7 169.7 L 45.9 169.4 L 46.1 168.8 L 46.3 167.9 L 46.3 103.8 L 11.1 103.8 L 11.1 99.8 L 46.3 99.8 L 46.3 61.4 L 56.8 63.15 L 59.8 57.9 L 62.8 52.7 L 65.6 47.8 L 68.2 43.2 L 70.4 39.0 L 72.4 35.1 L 74.1 31.5 L 74.82121210098266 29.8 L 17.7 29.8 L 17.7 25.8 L 76.0 25.8 L 82.0 20.8 L 93.0 29.8 L 88.0 32.8 L 85.25360822677612 33.94432992935181 L 83.5 36.7 L 81.0 40.3 L 78.3 44.0 L 75.2 47.9 L 71.9 52.1 L 68.2 56.5 L 64.1 61.1 L 60.496103858947755 64.86406927108764 L 61.3 65.4 L 58.3 67.2 L 58.3 99.8 L 74.9 99.8 L 84.9 89.8 L 96.9 99.8 L 96.9 103.8 L 58.3 103.8 L 58.3 166.6 L 58.2 169.2 L 57.7 171.7 L 56.9 174.1 L 55.7 176.4 L 54.1 178.4 L 52.1 180.0 L 49.8 181.2 L 47.4 182.1 L 44.9 182.5 L 42.3 182.6 L 42.3 176.6 L 28.3 173.6 Z M 117.6 139.5 L 117.6 167.4 L 163.0 167.4 L 163.0 139.5 Z M 117.6 109.5 L 117.6 135.5 L 163.0 135.5 L 163.0 109.5 Z M 180.5 54.5 L 182.5 54.5 L 180.5 75.5 L 183.8 77.7 L 186.0 81.0 L 183.8 84.3 L 180.5 86.5 L 120.2 86.5 L 117.7 86.4 L 115.3 86.0 L 112.9 85.2 L 110.7 84.1 L 108.7 82.5 L 107.0 80.6 L 105.7 78.4 L 104.9 76.0 L 104.4 73.5 L 104.2 71.0 L 104.2 18.0 L 116.2 20.0 L 119.2 22.0 L 116.2 23.8 L 116.2 49.359701538085936 L 121.3 47.0 L 127.7 44.1 L 133.8 41.4 L 139.5 38.8 L 144.8 36.4 L 149.8 34.0 L 154.3 31.7 L 158.5 29.4 L 162.3 27.2 L 164.82601661682128 25.639813232421876 L 164.8 25.6 L 164.8350266456604 25.63424825668335 L 165.7 25.1 L 167.26485414505004 28.01007957458496 L 173.8 34.4 L 173.9 37.8 L 170.1738392829895 36.22111835479736 L 167.4 37.4 L 163.0 39.2 L 158.3 40.9 L 153.2 42.6 L 147.8 44.3 L 142.1 46.0 L 135.9 47.6 L 129.4 49.2 L 122.5 50.6 L 116.2 51.62162160873413 L 116.2 72.2 L 116.3 73.1 L 116.5 73.7 L 116.7 74.1 L 116.8 74.4 L 117.0 74.6 L 117.4 74.9 L 118.0 75.1 L 118.9 75.3 L 120.2 75.5 L 175.0 75.5 Z " />
</g>
</svg>
