<svg xmlns="http://www.w3.org/2000/svg" xmlns:xlink="http://www.w3.org/1999/xlink" version="1.1" baseProfile="full" viewBox="0 0 200 200" width="200" height="200">
<g fill="black">
<path d="M 27.3 176.0 L 41.3 176.0 L 42.5 175.9 L 43.4 175.7 L 44.3 175.4 L 44.7 175.0 L 45.0 174.1 L 45.2 173.2 L 45.3 172.0 L 45.3 110.7779411315918 L 39.8 112.8 L 26.4 117.4 L 23.68825273513794 118.24995059967041 L 22.4 121.9 L 19.7 119.5 L 14.7 108.4 L 16.7 107.9 L 23.3 106.4 L 36.9 103.2 L 43.8 101.4 L 45.3 101.01428575515747 L 45.3 62.0 L 52.31824102401733 63.16970682144165 L 53.1 61.7 L 55.6 57.2 L 58.1 52.8 L 60.5 48.6 L 62.8 44.6 L 65.0 40.6 L 67.1 36.8 L 69.1 33.1 L 70.12162160873413 31.0 L 17.2 31.0 L 17.2 27.0 L 71.8 27.0 L 72.24639997482299 26.62799997329712 L 72.6 25.9 L 72.90519189834595 26.07900676727295 L 77.8 22.0 L 88.8 31.0 L 83.8 34.0 L 80.56610174179077 35.347457599639895 L 78.1 38.8 L 75.4 42.2 L 72.6 45.8 L 69.6 49.3 L 66.5 52.9 L 63.2 56.6 L 59.7 60.3 L 56.01968507766723 63.78661413192749 L 57.3 64.0 L 60.3 66.0 L 57.3 67.8 L 57.3 97.86056337356567 L 57.9 97.7 L 65.1 95.8 L 72.4 93.8 L 79.8 91.9 L 87.5 90.1 L 88.1 91.8 L 81.2 95.5 L 74.2 98.9 L 67.3 102.0 L 60.3 104.9 L 57.3 106.11739130020142 L 57.3 172.0 L 57.1 174.5 L 56.7 177.0 L 55.9 179.4 L 54.7 181.7 L 53.0 183.7 L 51.0 185.3 L 48.7 186.6 L 46.3 187.4 L 43.8 187.8 L 41.3 188.0 L 41.3 182.0 L 27.3 179.0 Z M 133.9 132.4 L 132.7 141.0 L 130.9 149.1 L 128.5 156.5 L 125.5 163.3 L 121.8 169.4 L 117.6 174.7 L 112.8 179.3 L 107.5 183.1 L 101.6 185.9 L 95.3 187.8 L 94.6 186.1 L 99.8 182.6 L 104.3 178.8 L 108.2 174.6 L 111.6 170.0 L 114.6 165.0 L 117.0 159.5 L 119.0 153.4 L 120.4 146.7 L 121.4 139.4 L 122.0 131.5 L 122.0 115.0 L 134.0 117.0 L 137.0 119.0 L 134.0 120.8 L 134.0 132.0 L 133.7413332939148 132.3880000114441 Z M 182.0 147.0 L 184.0 147.0 L 182.0 172.0 L 185.6 174.4 L 188.0 178.0 L 185.6 181.6 L 182.0 184.0 L 163.0 184.0 L 160.4 183.8 L 157.9 183.4 L 155.5 182.6 L 153.2 181.3 L 151.2 179.7 L 149.6 177.7 L 148.3 175.4 L 147.5 173.0 L 147.1 170.5 L 147.0 168.0 L 147.0 115.0 L 159.0 117.0 L 162.0 119.0 L 159.0 120.8 L 159.0 169.2 L 159.2 170.1 L 159.5 171.0 L 159.9 171.4 L 160.8 171.7 L 161.7 171.9 L 163.0 172.0 L 176.0 172.0 Z M 138.4 107.8 L 135.9 107.4 L 133.5 106.6 L 131.2 105.3 L 129.2 103.7 L 127.6 101.7 L 126.3 99.4 L 125.5 97.0 L 125.1 94.5 L 125.0 92.0 L 125.0 81.78333330154419 L 106.3 84.9 L 106.0 83.22857141494751 L 106.0 120.0 L 105.4 129.9 L 104.3 139.2 L 102.6 147.9 L 100.4 155.9 L 97.7 163.2 L 94.3 169.8 L 90.5 175.6 L 86.0 180.6 L 81.0 184.6 L 75.5 187.7 L 74.4 186.2 L 78.4 181.8 L 81.9 177.1 L 84.9 172.0 L 87.6 166.4 L 89.7 160.2 L 91.5 153.5 L 92.8 146.1 L 93.6 138.0 L 94.0 129.3 L 94.0 43.0 L 106.0 49.0 L 128.0 49.0 L 128.0 12.0 L 140.0 14.0 L 143.0 16.0 L 140.0 17.8 L 140.0 28.0 L 154.8181818008423 28.0 L 163.0 19.0 L 173.0 28.0 L 173.0 32.0 L 140.0 32.0 L 140.0 49.0 L 172.0 49.0 L 178.0 44.0 L 189.0 53.0 L 184.0 56.0 L 181.09411764144897 57.210784339904784 L 179.9 59.4 L 178.5 61.5 L 177.2 63.8 L 175.8 66.0 L 174.3 68.3 L 172.7 70.5 L 171.1 72.8 L 169.8 75.3 L 168.1 74.6 L 168.8 71.9 L 169.1 69.1 L 169.4 66.4 L 169.8 63.8 L 170.2 61.1 L 170.6 58.6 L 171.1 56.1 L 171.61666669845582 53.0 L 106.0 53.0 L 106.0 80.9333333015442 L 125.0 77.76666669845581 L 125.0 55.0 L 137.0 57.0 L 140.0 59.0 L 137.0 60.8 L 137.0 75.76666669845581 L 143.92438354492188 74.61260271072388 L 152.1 63.1 L 165.6 71.0 L 166.3 74.9 L 137.0 79.78333330154419 L 137.0 93.2 L 137.2 94.1 L 137.5 95.0 L 137.9 95.4 L 138.8 95.7 L 139.7 95.9 L 141.0 96.0 L 172.0 96.0 L 178.0 71.0 L 180.0 71.0 L 178.0 96.0 L 181.6 98.4 L 184.0 102.0 L 181.6 105.6 L 178.0 108.0 L 141.0 108.0 Z " />
</g>
</svg>
