<svg xmlns="http://www.w3.org/2000/svg" xmlns:xlink="http://www.w3.org/1999/xlink" version="1.1" baseProfile="full" viewBox="0 0 200 200" width="200" height="200">
<g fill="black">
<path d="M 114.0 90.0 L 114.0 86.0 L 141.8181818008423 86.0 L 150.0 77.0 L 160.0 86.0 L 160.0 90.0 L 141.0 90.0 L 141.0 109.0 L 140.2 121.2 L 139.91327438354492 123.0 L 158.0 123.0 L 168.0 113.0 L 180.0 123.0 L 180.0 127.0 L 139.2761061668396 127.0 L 138.4 132.5 L 135.7 143.0 L 132.0 152.6 L 127.4 161.3 L 121.8 169.0 L 115.2 175.6 L 107.7 181.2 L 99.4 185.6 L 90.3 188.8 L 89.6 187.1 L 97.6 182.3 L 104.6 176.9 L 110.6 170.9 L 115.7 164.4 L 120.0 157.1 L 123.5 149.1 L 126.1 140.3 L 127.9 130.7 L 128.22019233703614 127.0 L 90.0 127.0 L 90.0 123.0 L 128.56634616851807 123.0 L 128.8 120.3 L 129.0 109.0 L 129.0 90.0 Z M 27.3 176.0 L 41.3 176.0 L 42.5 175.9 L 43.4 175.7 L 44.3 175.4 L 44.7 175.0 L 45.0 174.1 L 45.2 173.2 L 45.3 172.0 L 45.3 110.50547943115234 L 38.6 112.8 L 31.2 115.2 L 24.0 117.4 L 20.747150230407716 118.33575134277343 L 19.4 122.0 L 16.7 119.5 L 12.0 108.4 L 13.9 107.9 L 21.1 106.4 L 28.5 104.8 L 35.9 103.1 L 43.4 101.4 L 45.3 100.94399995803833 L 45.3 62.0 L 52.46962022781372 63.194936752319336 L 53.4 61.6 L 56.1 57.1 L 58.9 52.7 L 61.6 48.5 L 64.1 44.4 L 68.9 36.6 L 71.0 32.9 L 72.10833330154419 31.0 L 14.4 31.0 L 14.4 27.0 L 74.1 27.0 L 74.48181819915771 26.681818199157714 L 75.0 25.7 L 75.37240219116211 25.939664840698242 L 80.1 22.0 L 91.1 31.0 L 86.1 34.0 L 82.64612550735474 35.43911437988281 L 82.6 35.5 L 79.8 38.9 L 77.0 42.4 L 74.0 45.9 L 70.8 49.5 L 67.4 53.1 L 63.9 56.7 L 60.2 60.4 L 56.371875 63.8453125 L 57.3 64.0 L 60.3 66.0 L 57.3 67.8 L 57.3 98.02077922821044 L 58.6 97.7 L 66.4 95.8 L 74.3 93.8 L 82.4 91.9 L 90.6 90.1 L 91.1 91.8 L 83.6 95.5 L 76.0 98.9 L 68.4 102.0 L 60.9 104.9 L 57.3 106.24399995803833 L 57.3 172.0 L 57.1 174.5 L 56.7 177.0 L 55.9 179.4 L 54.6 181.7 L 53.0 183.7 L 51.0 185.3 L 48.7 186.6 L 46.3 187.4 L 43.8 187.8 L 41.3 188.0 L 41.3 182.0 L 27.3 179.0 Z M 163.3 173.9 L 160.9 169.8 L 158.2 165.8 L 155.2 161.8 L 151.9 157.8 L 148.4 153.8 L 144.6 149.7 L 140.5 145.6 L 136.3 141.3 L 137.3 139.8 L 142.8 142.5 L 148.0 145.6 L 152.8 148.9 L 157.2 152.4 L 161.4 156.0 L 165.3 159.9 L 168.9 163.8 L 172.2 167.9 L 175.3 172.2 L 178.0 176.6 L 178.2 181.1 L 175.3 184.6 L 170.7 184.9 L 167.2 182.0 L 165.4 177.9 Z M 99.8 57.9 L 98.9 55.6 L 96.7 51.4 L 95.4 49.4 L 94.0 47.5 L 92.4 45.6 L 90.6 43.6 L 88.5 42.2 L 89.2 40.6 L 91.8 41.5 L 94.5 42.3 L 97.1 43.3 L 99.7 44.7 L 102.1 46.3 L 104.4 48.2 L 106.5 50.2 L 108.6 52.6 L 110.5 55.1 L 112.2 57.8 L 112.25052700042724 60.12424058914185 L 114.1 54.8 L 117.0 44.8 L 119.7 34.4 L 121.34444446563721 27.0 L 100.0 27.0 L 100.0 23.0 L 122.0 23.0 L 128.0 18.0 L 139.0 27.0 L 134.0 30.0 L 132.604248046875 30.58156328201294 L 130.7 37.4 L 127.3 48.0 L 123.5 58.2 L 119.5 67.8 L 115.1 77.0 L 110.3 85.6 L 105.2 93.7 L 99.8 101.3 L 93.9 108.3 L 87.6 114.5 L 86.3 113.4 L 90.9 106.0 L 95.3 98.3 L 99.6 90.4 L 103.6 82.1 L 107.3 73.4 L 110.8 64.3 L 110.96713361740112 63.818857765197755 L 109.2 65.7 L 104.6 65.7 L 101.3 62.6 L 100.6 60.2 Z M 165.7 88.3 L 161.0 81.1 L 156.8 73.7 L 152.9 65.9 L 149.4 57.8 L 146.4 49.4 L 143.8 40.6 L 141.7 31.6 L 140.3 22.1 L 142.1 21.7 L 145.7 30.4 L 149.3 38.7 L 151.31601085662842 42.891180419921874 L 151.7 42.2 L 153.1 39.6 L 155.9 34.6 L 158.3 29.8 L 159.4 27.4 L 160.4 25.1 L 160.92477064132692 23.758919429779052 L 160.8 23.7 L 161.8 21.9 L 171.6 28.8 L 173.2 32.1 L 168.85714282989503 32.1 L 168.0 33.1 L 166.0 35.2 L 161.8 39.2 L 159.5 41.2 L 157.2 43.1 L 154.7 44.9 L 152.84429655075073 46.06840591430664 L 153.1 46.6 L 157.0 54.3 L 161.1 61.5 L 161.85828971862793 62.68913612365723 L 162.8 61.1 L 164.3 58.5 L 165.9 55.9 L 167.4 53.4 L 169.0 50.9 L 170.4 48.4 L 173.2 43.6 L 174.1120231628418 41.97138729095459 L 174.0 41.9 L 175.0 40.5 L 184.2 48.4 L 185.4 51.8 L 181.16836738586426 51.28928575515747 L 179.9 52.5 L 177.7 54.5 L 175.5 56.4 L 173.2 58.4 L 170.8 60.3 L 168.3 62.2 L 165.7 64.0 L 163.57867822647094 65.38701810836793 L 165.5 68.4 L 170.2 74.9 L 175.1 81.1 L 180.3 86.9 L 185.7 92.4 L 186.9 93.6 L 176.2 101.5 L 170.8 95.1 Z " />
</g>
</svg>
