<svg xmlns="http://www.w3.org/2000/svg" xmlns:xlink="http://www.w3.org/1999/xlink" version="1.1" baseProfile="full" viewBox="0 0 200 200" width="200" height="200">
<g fill="black">
<path d="M 70.0 177.0 L 91.2 177.0 L 92.1 176.8 L 92.7 176.6 L 93.0 176.4 L 93.2 176.3 L 93.4 176.1 L 93.7 175.2 L 93.9 174.3 L 94.0 173.0 L 94.0 145.4 L 14.0 145.4 L 14.0 141.4 L 94.0 141.4 L 94.0 127.6 L 104.59310340881348 129.36551723480224 L 107.8 127.4 L 113.6 123.9 L 119.1 120.7 L 124.1 117.7 L 128.8 114.9 L 133.0 112.3 L 136.03999996185303 110.3 L 40.0 110.3 L 40.0 106.3 L 141.78181819915773 106.3 L 143.1 105.3 L 145.6 103.3 L 145.96060276031494 103.83283100128173 L 149.0 101.3 L 160.0 110.3 L 155.0 113.3 L 143.0 118.3 L 143.0 117.96666669845581 L 141.7 118.6 L 137.4 120.5 L 132.6 122.5 L 127.5 124.5 L 121.9 126.7 L 115.8 128.8 L 109.3 130.9 L 108.35500001907349 131.16999998092652 L 109.0 131.6 L 106.0 133.4 L 106.0 141.4 L 164.0 141.4 L 174.0 131.4 L 186.0 141.4 L 186.0 145.4 L 106.0 145.4 L 106.0 173.0 L 105.8 175.6 L 105.4 178.1 L 104.6 180.5 L 103.3 182.8 L 101.7 184.8 L 99.7 186.4 L 97.4 187.7 L 95.0 188.5 L 92.5 188.9 L 90.0 189.0 L 90.0 183.0 L 70.0 180.0 Z M 175.0 32.1 L 170.0 36.1 L 170.0 94.2 L 158.0 100.2 L 158.0 88.2 L 107.0 88.2 L 107.0 84.2 L 158.0 84.2 L 158.0 59.3 L 107.0 59.3 L 107.0 55.3 L 158.0 55.3 L 158.0 32.1 L 102.0 32.1 L 102.0 28.1 L 158.0 28.1 L 164.0 23.1 Z M 95.20665197372436 15.781367111206055 L 105.5 24.3 L 105.9 27.3 L 101.53337459564209 25.266229248046876 L 97.7 26.2 L 92.0 27.2 L 80.4 29.0 L 74.4 29.8 L 68.4 30.5 L 62.2 31.2 L 56.0 31.7 L 49.6 32.2 L 43.1 32.4 L 42.4 32.389230728149414 L 42.4 55.4 L 70.9 55.4 L 80.9 45.4 L 92.9 55.4 L 92.9 59.4 L 42.4 59.4 L 42.4 84.3 L 70.9 84.3 L 80.9 74.3 L 92.9 84.3 L 92.9 88.3 L 42.4 88.3 L 42.4 91.3 L 30.4 97.3 L 30.4 23.4 L 41.47722768783569 28.938613891601562 L 42.6 28.6 L 48.8 26.9 L 54.9 25.3 L 60.9 23.7 L 66.8 22.2 L 72.6 20.7 L 78.4 19.1 L 84.0 17.6 L 89.5 16.1 L 93.92898206710815 14.787709045410157 L 93.9 14.7 L 93.98568181991577 14.770909118652344 L 94.9 14.5 Z " />
</g>
</svg>
