<svg xmlns="http://www.w3.org/2000/svg" xmlns:xlink="http://www.w3.org/1999/xlink" version="1.1" baseProfile="full" viewBox="0 0 200 200" width="200" height="200">
<g fill="black">
<path d="M 110.8 177.0 L 130.8 177.0 L 132.0 176.9 L 132.9 176.7 L 133.5 176.5 L 133.9 176.4 L 134.1 176.2 L 134.2 176.0 L 134.4 175.7 L 134.6 175.1 L 134.7 174.2 L 134.8 173.0 L 134.8 107.0 L 95.3 107.0 L 95.3 103.0 L 134.8 103.0 L 134.8 63.0 L 145.859375 64.84322919845582 L 149.3 59.3 L 152.7 53.8 L 155.9 48.8 L 158.7 44.0 L 161.3 39.6 L 163.5 35.5 L 165.4 31.8 L 166.19411764144897 30.0 L 102.6 30.0 L 102.6 26.0 L 167.6 26.0 L 168.07107439041138 25.607437992095946 L 168.2 25.3 L 168.35104894638062 25.37412586212158 L 173.6 21.0 L 184.6 30.0 L 179.6 33.0 L 176.59385662078859 34.25255975723267 L 174.6 37.2 L 172.0 40.9 L 169.0 44.8 L 165.7 48.9 L 162.0 53.2 L 158.0 57.8 L 153.5 62.6 L 149.43086423873902 66.75390949249268 L 149.8 67.0 L 148.20909090042113 67.95454549789429 L 146.8 69.25925922393799 L 146.8 103.0 L 167.9 103.0 L 177.9 93.0 L 189.9 103.0 L 189.9 107.0 L 146.8 107.0 L 146.8 173.0 L 146.7 175.5 L 146.2 178.0 L 145.4 180.4 L 144.2 182.7 L 142.5 184.7 L 140.5 186.3 L 138.3 187.6 L 135.9 188.4 L 133.4 188.8 L 130.8 189.0 L 130.8 183.0 L 110.8 180.0 Z M 82.9 154.3 L 81.9 150.1 L 81.28321552276611 147.8898554801941 L 79.1 148.9 L 72.4 151.9 L 65.6 154.6 L 58.8 157.2 L 45.0 162.2 L 38.0 164.6 L 31.1 166.9 L 21.01278657913208 170.21437015533448 L 19.8 173.8 L 17.1 171.5 L 12.0 160.4 L 13.9 159.9 L 21.0 158.2 L 24.93282279968262 157.32603940963745 L 27.5 152.1 L 33.0 141.1 L 38.5 130.4 L 43.8 120.0 L 48.9 109.9 L 53.8 100.0 L 58.6 90.4 L 63.1 81.1 L 67.4 72.0 L 71.06819896697998 64.12679243087769 L 71.0 64.1 L 72.0 62.1 L 82.2 68.5 L 84.0 71.6 L 80.35556020736695 71.91417589187623 L 77.5 77.2 L 72.6 86.0 L 67.4 95.1 L 62.0 104.4 L 56.3 114.0 L 50.4 123.7 L 44.2 133.6 L 37.7 143.8 L 30.8 154.0 L 29.13156442642212 156.37694940567016 L 42.4 153.2 L 49.5 151.6 L 56.6 149.9 L 70.8 146.7 L 78.0 145.3 L 80.38681316375732 144.9021978378296 L 79.2 141.5 L 77.4 137.2 L 75.4 132.8 L 73.2 128.4 L 70.8 123.9 L 68.2 119.3 L 69.5 118.1 L 73.7 121.6 L 77.5 125.4 L 80.9 129.4 L 83.9 133.5 L 86.7 137.8 L 89.2 142.2 L 91.3 146.7 L 93.2 151.4 L 94.7 156.1 L 96.0 161.0 L 94.8 165.4 L 91.0 167.9 L 86.5 166.8 L 84.1 162.9 L 83.6 158.6 Z M 35.9 97.2 L 34.3 94.0 L 32.4 90.7 L 30.2 87.3 L 27.7 83.7 L 24.9 80.1 L 21.8 76.3 L 18.4 72.3 L 14.7 68.3 L 15.9 66.9 L 20.6 69.7 L 25.1 72.6 L 29.2 75.7 L 30.06698513031006 76.40727729797364 L 32.1 71.5 L 34.9 64.8 L 37.7 58.4 L 40.4 52.2 L 42.9 46.3 L 45.3 40.5 L 47.5 35.0 L 49.6 29.7 L 51.5 24.6 L 52.85437355041504 20.616548442840575 L 52.8 20.6 L 53.7 18.3 L 64.3 24.1 L 66.3 27.1 L 62.539813709259036 27.693713665008545 L 61.9 29.0 L 59.4 34.1 L 56.6 39.2 L 53.7 44.6 L 50.5 50.1 L 47.1 55.7 L 43.5 61.5 L 39.6 67.4 L 35.4 73.4 L 31.929519653320312 77.92671346664429 L 33.0 78.8 L 36.5 82.0 L 39.6 85.2 L 42.5 88.5 L 45.0 91.8 L 47.3 95.2 L 49.2 98.7 L 49.1 103.3 L 45.8 106.5 L 41.3 106.4 L 38.1 103.2 L 37.1 100.2 Z " />
</g>
</svg>
