<svg xmlns="http://www.w3.org/2000/svg" xmlns:xlink="http://www.w3.org/1999/xlink" version="1.1" baseProfile="full" viewBox="0 0 200 200" width="200" height="200">
<g fill="black">
<path d="M 163.6 176.7 L 158.0 170.8 L 153.0 164.2 L 148.6 156.9 L 144.9 149.0 L 142.0 140.6 L 140.0 131.5 L 139.64293661117554 128.03648500442506 L 136.6 137.6 L 131.9 147.7 L 125.9 157.0 L 118.8 165.3 L 110.4 172.6 L 100.9 179.0 L 90.3 184.3 L 78.5 188.6 L 77.9 186.9 L 88.5 181.0 L 97.9 174.5 L 106.1 167.6 L 113.1 160.2 L 118.9 152.1 L 123.6 143.5 L 127.1 134.3 L 129.6 124.3 L 130.9 113.7 L 131.2 102.2 L 131.2 92.8 L 119.64666662216186 92.8 L 118.4 95.0 L 114.7 100.9 L 110.7 106.9 L 106.3 112.9 L 101.4 118.8 L 99.9 117.8 L 103.0 110.9 L 106.0 104.3 L 108.9 97.8 L 111.6 91.6 L 114.1 85.4 L 116.3 79.4 L 118.3 73.5 L 120.0 67.8 L 121.5 62.1 L 122.47892408370971 57.61326456069946 L 122.4 57.6 L 123.1 54.9 L 134.3 59.6 L 136.7 62.3 L 133.05282049179078 63.40717945098877 L 132.4 65.4 L 130.1 71.3 L 127.6 77.1 L 124.9 83.0 L 121.90333337783814 88.8 L 169.6 88.8 L 175.6 83.8 L 186.6 92.8 L 181.6 95.8 L 177.92941179275513 97.32941179275512 L 177.4 98.0 L 175.6 100.1 L 173.6 102.4 L 171.3 104.9 L 168.7 107.6 L 165.9 110.6 L 162.6 113.7 L 159.4 117.3 L 158.0 116.2 L 160.5 112.1 L 164.3 104.5 L 165.9 101.2 L 167.2 98.2 L 168.3 95.6 L 169.1 93.3 L 169.25789470672606 92.8 L 143.2 92.8 L 143.2 102.2 L 142.2 114.8 L 141.95229835510253 116.19184732437134 L 143.1 121.2 L 145.7 130.1 L 148.8 138.1 L 152.5 145.4 L 156.6 152.1 L 161.2 158.0 L 166.1 163.3 L 171.4 167.9 L 176.9 171.9 L 182.7 175.2 L 187.1 177.8 L 175.9 186.6 L 169.6 182.0 Z M 84.0 83.6 L 82.3 81.7 L 80.3 79.7 L 77.9 77.6 L 75.2 75.5 L 72.2 73.3 L 68.8 71.1 L 65.2 68.8 L 62.31281433105469 67.32119760513305 L 59.2 72.4 L 55.1 78.5 L 50.6 84.4 L 45.9 90.2 L 40.7 95.7 L 39.5 96.9 L 70.0 96.9 L 80.0 86.9 L 92.0 96.9 L 92.0 100.9 L 66.5 100.9 L 66.5 121.2 L 75.5 121.2 L 85.5 111.2 L 97.5 121.2 L 97.5 125.2 L 66.5 125.2 L 66.5 167.10933332443238 L 72.7 166.2 L 80.2 165.2 L 87.8 164.2 L 95.4 163.4 L 95.9 165.1 L 88.7 167.9 L 81.4 170.4 L 74.1 172.7 L 66.8 174.8 L 59.5 176.7 L 52.1 178.6 L 44.7 180.4 L 37.3 182.1 L 30.0 183.7 L 26.595399188995362 184.39012174606324 L 25.0 187.9 L 22.6 185.2 L 18.7 173.7 L 20.7 173.4 L 28.1 172.5 L 50.3 169.5 L 54.5 168.88400001525878 L 54.5 125.2 L 22.5 125.2 L 22.5 121.2 L 54.5 121.2 L 54.5 100.9 L 39.2 100.9 L 39.2 97.2 L 35.3 101.1 L 29.5 106.2 L 23.2 111.0 L 16.6 115.6 L 15.4 114.2 L 20.7 108.2 L 25.7 102.4 L 30.5 96.6 L 35.0 90.8 L 39.2 84.9 L 43.1 79.0 L 46.6 73.1 L 49.9 67.0 L 52.9 61.0 L 55.11966190338135 55.70696001052856 L 55.1 55.7 L 56.0 53.6 L 66.4 59.7 L 68.3 62.8 L 64.54116649627686 63.253652286529544 L 63.40915431976318 65.41779327392578 L 66.2 66.1 L 70.6 67.1 L 74.6 68.2 L 78.4 69.5 L 81.9 70.9 L 85.2 72.5 L 88.2 74.1 L 91.0 75.9 L 93.5 77.8 L 95.8 80.0 L 96.9 84.4 L 94.7 88.4 L 90.3 89.5 L 86.3 87.2 L 85.3 85.5 Z M 34.7 155.9 L 34.3 153.8 L 33.8 151.7 L 33.0 149.5 L 31.9 147.2 L 30.5 144.8 L 28.9 142.3 L 27.0 139.7 L 24.6 137.5 L 25.7 136.0 L 28.6 137.8 L 31.6 139.4 L 34.3 141.1 L 36.8 143.1 L 39.1 145.2 L 41.1 147.5 L 42.9 149.9 L 44.4 152.6 L 45.7 155.3 L 46.6 158.3 L 45.3 162.7 L 41.4 165.0 L 37.0 163.7 L 34.7 159.7 L 34.8 157.8 Z M 93.1 139.1 L 94.8 142.3 L 90.39541730880737 142.5278232574463 L 89.6 143.5 L 87.8 145.6 L 85.8 147.8 L 83.8 149.9 L 81.7 152.0 L 79.4 154.1 L 77.1 156.1 L 74.6 158.1 L 72.3 160.3 L 70.9 159.1 L 72.6 156.5 L 73.9 153.6 L 75.2 150.9 L 76.4 148.2 L 77.6 145.6 L 79.8 140.6 L 80.8 138.2 L 81.7 135.8 L 82.1748031616211 134.3755905151367 L 82.0 134.3 L 83.0 132.4 Z M 13.4 69.2 L 12.8 64.7 L 15.4 61.0 L 17.4 60.0 L 19.4 58.6 L 21.2 56.8 L 23.0 54.5 L 24.6 51.7 L 26.1 48.3 L 27.4 44.4 L 28.5 40.0 L 29.5 35.1 L 30.1 29.7 L 31.9 29.6 L 32.6 35.1 L 32.93018865585327 38.6 L 94.0 38.6 L 94.0 11.3 L 106.0 13.3 L 109.0 15.3 L 106.0 17.1 L 106.0 38.6 L 170.0 38.6 L 170.5760000228882 38.119999980926515 L 170.9 37.4 L 171.2067491531372 37.594375705718996 L 176.0 33.6 L 187.0 42.6 L 182.0 45.6 L 177.6956521987915 47.393478298187254 L 177.5 47.6 L 175.5 49.7 L 173.3 51.9 L 171.0 54.1 L 168.5 56.4 L 165.8 58.8 L 162.9 61.3 L 159.7 63.8 L 156.6 66.7 L 155.3 65.5 L 157.6 62.0 L 159.6 58.6 L 161.5 55.3 L 163.3 52.2 L 164.9 49.3 L 166.4 46.6 L 167.8 44.1 L 168.55 42.6 L 33.14489793777466 42.6 L 33.2 45.3 L 32.9 49.9 L 32.1 54.3 L 31.0 58.3 L 29.4 62.1 L 27.3 65.5 L 24.7 68.6 L 21.6 71.3 L 17.1 71.9 Z " />
</g>
</svg>
