<svg xmlns="http://www.w3.org/2000/svg" xmlns:xlink="http://www.w3.org/1999/xlink" version="1.1" baseProfile="full" viewBox="0 0 200 200" width="200" height="200">
<g fill="black">
<path d="M 15.0 179.6 L 48.0 179.6 L 48.0 147.4 L 60.0 149.4 L 63.0 151.4 L 60.0 153.2 L 60.0 179.6 L 99.0 179.6 L 99.0 133.0 L 111.0 135.0 L 114.0 137.0 L 111.0 138.8 L 111.0 153.9 L 152.0 153.9 L 162.0 143.9 L 174.0 153.9 L 174.0 157.9 L 111.0 157.9 L 111.0 179.6 L 165.0 179.6 L 175.0 169.6 L 187.0 179.6 L 187.0 183.6 L 15.0 183.6 Z M 24.4 125.6 L 94.0 125.6 L 94.0 107.8 L 36.3 107.8 L 36.3 103.8 L 141.7 103.8 L 148.34193544387819 97.15806455612183 L 147.8 96.5 L 146.2 94.8 L 144.3 92.9 L 142.0 91.1 L 139.5 89.1 L 136.6 87.1 L 133.5 85.1 L 130.1 83.0 L 126.5 80.8 L 123.39678897857667 79.2105504989624 L 123.2 79.3 L 123.0074073791504 79.01111106872558 L 122.4 78.7 L 122.5384614944458 78.30769233703613 L 122.2 77.8 L 122.9162790298462 77.23720932006836 L 123.0 77.0 L 123.16640987396241 77.04067792892457 L 125.0 75.6 L 127.6 73.1 L 130.1 70.8 L 132.6 68.6 L 135.0 66.4 L 139.6 62.4 L 141.8 60.5 L 143.8 58.6 L 145.05572757720947 57.46984519958496 L 145.0 57.4 L 145.0604422569275 57.46560192108154 L 145.8 56.8 L 149.40607957839967 62.182208347320554 L 153.2 66.3 L 153.3 69.9 L 149.4876947402954 68.23644857406616 L 144.8 70.4 L 142.0 71.6 L 139.1 72.9 L 136.1 74.2 L 133.0 75.4 L 129.8 76.7 L 126.5 77.8 L 126.42052021026612 77.83612718582154 L 127.5 78.1 L 131.8 78.9 L 135.8 79.9 L 139.5 81.0 L 143.1 82.2 L 146.4 83.5 L 149.5 84.8 L 152.3 86.3 L 155.0 87.8 L 157.4 89.5 L 159.2 93.7 L 157.6 98.0 L 157.03207550048828 98.24339618682862 L 163.7 103.8 L 163.7 107.8 L 106.0 107.8 L 106.0 125.6 L 153.5 125.6 L 163.5 115.6 L 175.5 125.6 L 175.5 129.6 L 24.4 129.6 Z M 100.6 92.9 L 98.3 91.1 L 95.8 89.1 L 93.0 87.1 L 89.8 85.1 L 86.4 83.0 L 82.8 80.8 L 79.73735494613648 79.19211139678956 L 79.5 79.3 L 79.29635038375855 78.9605839729309 L 78.8 78.7 L 78.9259259223938 78.34320983886718 L 78.6 77.8 L 79.31627902984619 77.23720932006836 L 79.4 77.0 L 79.56551723480224 77.04137935638428 L 81.4 75.6 L 83.9 73.1 L 86.4 70.8 L 88.9 68.6 L 91.3 66.4 L 93.7 64.4 L 95.9 62.4 L 98.1 60.5 L 100.2 58.6 L 101.39752321243286 57.52222909927368 L 101.3 57.4 L 101.40577392578125 57.514803409576416 L 102.2 56.8 L 105.8688735961914 62.358899402618405 L 109.5 66.3 L 109.6 69.9 L 105.79801588058471 68.24095239639283 L 103.8 69.2 L 101.1 70.4 L 98.3 71.6 L 95.4 72.9 L 92.4 74.2 L 89.4 75.4 L 86.1 76.7 L 82.8 77.8 L 82.7290322303772 77.83225803375244 L 83.8 78.1 L 88.1 78.9 L 92.1 79.9 L 95.9 81.0 L 99.4 82.2 L 102.7 83.5 L 105.8 84.8 L 108.6 86.3 L 111.3 87.8 L 113.7 89.5 L 115.5 93.7 L 114.0 98.0 L 109.8 99.8 L 105.5 98.2 L 104.2 96.5 Z M 58.9 94.8 L 56.9 92.9 L 54.7 91.1 L 52.1 89.1 L 49.3 87.1 L 46.2 85.1 L 42.8 83.0 L 39.1 80.8 L 36.037354946136475 79.19211139678956 L 35.8 79.3 L 35.59635038375855 78.9605839729309 L 35.1 78.7 L 35.2259259223938 78.34320983886718 L 34.9 77.8 L 35.61627902984619 77.23720932006836 L 35.7 77.0 L 35.86551723480225 77.04137935638428 L 37.7 75.6 L 40.2 73.1 L 42.8 70.8 L 47.6 66.4 L 50.0 64.4 L 52.2 62.4 L 54.4 60.5 L 56.5 58.6 L 57.69752321243286 57.52222909927368 L 57.6 57.4 L 57.70577392578125 57.514803409576416 L 58.5 56.8 L 62.1688735961914 62.358899402618405 L 65.8 66.3 L 65.9 69.9 L 62.13909654617309 68.25887851715088 L 60.1 69.2 L 57.4 70.4 L 54.6 71.6 L 48.8 74.2 L 45.7 75.4 L 42.5 76.7 L 39.1 77.8 L 39.0290322303772 77.83225803375244 L 40.1 78.1 L 44.4 78.9 L 48.4 79.9 L 52.2 81.0 L 55.7 82.2 L 59.0 83.5 L 62.1 84.8 L 65.0 86.3 L 67.6 87.8 L 70.1 89.5 L 71.9 93.7 L 70.3 98.0 L 66.1 99.8 L 61.8 98.2 L 60.5 96.5 Z M 13.2 52.1 L 13.2 47.6 L 16.4 44.3 L 18.4 43.8 L 20.2 43.1 L 21.9 42.1 L 23.5 40.8 L 25.0 39.2 L 26.4 37.2 L 27.7 34.7 L 28.8 31.9 L 29.8 28.6 L 30.1 24.9 L 31.9 24.8 L 32.3 28.7 L 32.50833330154419 30.2 L 94.0 30.2 L 94.0 11.6 L 106.0 13.6 L 109.0 15.6 L 106.0 17.4 L 106.0 30.2 L 170.0 30.2 L 170.6 29.7 L 171.5 28.2 L 171.93297300338745 28.58918914794922 L 176.0 25.2 L 187.0 34.2 L 182.0 37.2 L 173.99130430221558 40.53695650100708 L 172.7 41.3 L 170.4 42.7 L 168.0 44.2 L 165.3 45.7 L 164.25304346084596 46.26086959838867 L 170.9 51.8 L 170.9 55.8 L 29.0 55.8 L 29.0 51.8 L 148.9 51.8 L 158.9 41.8 L 160.64367351531982 43.25306119918823 L 161.9 41.6 L 163.8 39.3 L 165.5 37.1 L 167.0 35.1 L 167.6631579399109 34.2 L 32.852777767181394 34.2 L 32.9 35.9 L 32.5 39.3 L 31.8 42.5 L 30.5 45.6 L 28.8 48.5 L 26.7 51.1 L 24.0 53.4 L 21.0 55.4 L 16.5 55.3 Z " />
</g>
</svg>
