<svg xmlns="http://www.w3.org/2000/svg" xmlns:xlink="http://www.w3.org/1999/xlink" version="1.1" baseProfile="full" viewBox="0 0 200 200" width="200" height="200">
<g fill="black">
<path d="M 14.0 176.6 L 40.0 176.6 L 40.0 131.3 L 52.0 137.3 L 148.0 137.3 L 154.0 132.3 L 165.0 141.3 L 160.0 145.3 L 160.0 176.6 L 164.0 176.6 L 174.0 166.6 L 186.0 176.6 L 186.0 180.6 L 14.0 180.6 Z M 52.0 141.3 L 52.0 176.6 L 76.0 176.6 L 76.0 141.3 Z M 88.0 141.3 L 88.0 176.6 L 112.0 176.6 L 112.0 141.3 Z M 124.0 141.3 L 124.0 176.6 L 148.0 176.6 L 148.0 141.3 Z M 150.0 130.6 L 139.3 127.2 L 129.8 123.1 L 121.7 118.1 L 115.0 112.4 L 109.8 105.9 L 106.1 98.8 L 106.04298572540283 98.56594152450562 L 104.4 102.3 L 99.3 108.8 L 92.7 114.4 L 84.5 119.2 L 74.9 123.3 L 63.7 126.7 L 51.1 129.4 L 36.8 131.4 L 21.1 132.7 L 20.8 130.9 L 36.2 127.7 L 49.9 124.2 L 61.8 120.4 L 72.0 116.3 L 80.4 111.8 L 87.0 107.1 L 91.8 102.1 L 95.0 97.1 L 96.6 92.0 L 97.0 86.7 L 97.0 49.6 L 109.0 51.6 L 112.0 53.6 L 109.0 55.4 L 109.0 86.7 L 108.42995882034302 90.25179519653321 L 111.5 96.2 L 115.5 101.6 L 120.6 106.2 L 126.7 110.3 L 134.1 113.8 L 142.7 116.7 L 152.7 119.0 L 163.9 120.8 L 176.5 121.9 L 187.3 122.8 L 175.4 135.0 L 162.1 133.2 Z M 79.71209945678712 52.69386596679688 L 89.3 60.8 L 89.6 63.8 L 85.45606498718261 61.96482877731323 L 82.7 62.8 L 79.3 63.4 L 75.7 63.9 L 71.8 64.4 L 67.8 64.8 L 63.4 65.2 L 58.9 65.5 L 54.0 65.8 L 49.0 65.9 L 44.0 65.80740737915039 L 44.0 78.5 L 65.81818180084228 78.5 L 74.0 69.5 L 84.0 78.5 L 84.0 82.5 L 44.0 82.5 L 44.0 98.9 L 66.81818180084228 98.9 L 75.0 89.9 L 85.0 98.9 L 85.0 102.9 L 44.0 102.9 L 44.0 109.9 L 32.0 115.9 L 32.0 56.8 L 43.2 62.4 L 48.3 61.0 L 53.1 59.6 L 57.7 58.4 L 62.0 57.2 L 66.0 56.0 L 69.8 54.8 L 73.2 53.6 L 76.4 52.4 L 78.36083488464355 51.65623502731323 L 78.3 51.5 L 78.4464038848877 51.623777866363525 L 79.3 51.3 Z M 174.0 64.4 L 169.0 68.4 L 169.0 106.9 L 157.0 112.9 L 157.0 102.9 L 120.0 102.9 L 120.0 98.9 L 157.0 98.9 L 157.0 82.5 L 120.0 82.5 L 120.0 78.5 L 157.0 78.5 L 157.0 64.4 L 120.0 64.4 L 120.0 60.4 L 157.0 60.4 L 163.0 55.4 Z M 13.2 58.8 L 13.1 54.2 L 16.1 50.8 L 18.1 50.1 L 19.9 49.2 L 21.7 48.0 L 23.3 46.4 L 24.9 44.4 L 26.3 42.0 L 27.6 39.1 L 28.7 35.7 L 29.7 31.9 L 30.1 27.7 L 31.9 27.6 L 32.4 32.0 L 32.65609760284424 34.1 L 94.0 34.1 L 94.0 12.8 L 106.0 14.8 L 109.0 16.8 L 106.0 18.6 L 106.0 34.1 L 170.0 34.1 L 170.6470588684082 33.560784339904785 L 171.3 32.4 L 171.6785478591919 32.70121011734009 L 176.0 29.1 L 187.0 38.1 L 182.0 41.1 L 175.94782609939574 43.621739101409915 L 175.1 44.3 L 172.9 45.9 L 170.6 47.6 L 168.1 49.3 L 165.5 51.1 L 162.6 52.9 L 159.5 54.7 L 156.6 56.9 L 155.3 55.6 L 157.8 52.8 L 159.8 49.9 L 161.8 47.2 L 163.6 44.7 L 165.3 42.2 L 166.8 40.0 L 168.0666666984558 38.1 L 32.95 38.1 L 33.0 40.1 L 32.6 43.9 L 31.9 47.4 L 30.7 50.8 L 29.0 54.0 L 26.9 56.9 L 24.3 59.5 L 21.2 61.6 L 16.7 61.8 Z " />
</g>
</svg>
