<svg xmlns="http://www.w3.org/2000/svg" xmlns:xlink="http://www.w3.org/1999/xlink" version="1.1" baseProfile="full" viewBox="0 0 200 200" width="200" height="200">
<g fill="black">
<path d="M 75.7 185.4 L 73.2 185.0 L 70.8 184.2 L 68.6 183.0 L 66.6 181.3 L 64.9 179.3 L 63.7 177.0 L 62.9 174.6 L 62.4 172.1 L 62.3 169.6 L 62.3 141.3 L 74.3 143.3 L 77.3 145.3 L 74.3 147.1 L 74.3 169.6 L 74.4 170.8 L 74.5 171.7 L 74.7 172.3 L 74.9 172.7 L 75.2 173.0 L 75.6 173.2 L 76.2 173.4 L 77.1 173.5 L 78.3 173.6 L 137.7 173.6 L 143.7 148.6 L 145.7 148.6 L 143.7 173.6 L 147.3 176.0 L 149.7 179.6 L 147.3 183.2 L 143.7 185.6 L 78.3 185.6 Z M 20.9 178.0 L 20.6 173.5 L 23.5 169.9 L 26.1 168.9 L 28.5 167.5 L 30.6 165.8 L 32.6 163.8 L 34.4 161.4 L 36.1 158.5 L 37.5 155.2 L 38.8 151.4 L 39.9 147.2 L 40.4 142.6 L 42.2 142.5 L 42.8 147.3 L 43.2 152.0 L 43.2 156.4 L 42.6 160.6 L 41.6 164.7 L 40.1 168.5 L 38.0 172.0 L 35.5 175.2 L 32.5 178.1 L 29.0 180.6 L 24.5 180.9 Z M 165.1 166.8 L 163.8 164.1 L 162.2 161.4 L 160.2 158.6 L 157.9 155.8 L 155.2 152.9 L 152.2 150.0 L 148.9 147.0 L 145.1 144.2 L 145.9 142.6 L 150.4 144.4 L 154.7 146.2 L 158.7 148.2 L 162.4 150.5 L 165.8 152.9 L 168.9 155.6 L 171.7 158.4 L 174.2 161.5 L 176.3 164.7 L 178.1 168.2 L 177.9 172.7 L 174.5 175.8 L 169.9 175.5 L 166.8 172.2 L 166.1 169.5 Z M 107.4 156.2 L 105.8 154.0 L 103.9 151.8 L 101.9 149.6 L 99.7 147.4 L 97.2 145.3 L 94.5 143.1 L 91.7 140.9 L 88.4 139.1 L 89.1 137.4 L 92.8 138.4 L 96.5 139.3 L 99.9 140.5 L 103.3 141.8 L 106.4 143.4 L 109.5 145.1 L 112.3 147.0 L 115.0 149.2 L 117.6 151.4 L 119.9 153.9 L 120.8 158.4 L 118.4 162.3 L 114.0 163.2 L 110.1 160.8 L 108.8 158.5 Z M 153.5 133.8 L 146.1 130.6 L 139.0 127.1 L 132.2 123.4 L 125.8 119.4 L 119.9 115.1 L 114.3 110.5 L 109.3 105.6 L 106.0 101.63999996185302 L 106.0 126.5 L 94.0 132.5 L 94.0 108.36393442153931 L 88.1 113.2 L 81.6 118.0 L 74.6 122.4 L 67.1 126.4 L 59.2 130.2 L 50.7 133.6 L 41.8 136.6 L 32.3 139.2 L 22.3 141.3 L 21.8 139.6 L 31.1 135.6 L 39.8 131.6 L 48.1 127.6 L 55.8 123.4 L 62.9 119.1 L 69.6 114.6 L 75.7 109.9 L 81.2 105.1 L 85.4 100.9 L 22.1 100.9 L 22.1 96.9 L 94.0 96.9 L 94.0 66.03709678649902 L 85.8 66.5 L 73.2 67.0 L 60.4 67.2 L 57.422222232818605 67.2 L 59.5 68.3 L 62.6 70.3 L 65.4 72.5 L 68.1 74.7 L 70.6 77.1 L 72.9 79.6 L 75.0 82.2 L 77.0 84.9 L 78.7 87.7 L 78.6 92.2 L 75.5 95.5 L 70.9 95.5 L 67.6 92.3 L 66.9 89.9 L 66.1 87.4 L 65.0 84.9 L 63.7 82.3 L 62.2 79.7 L 60.6 77.0 L 58.7 74.3 L 56.6 71.5 L 54.4 68.6 L 53.0518518447876 67.2 L 47.5 67.2 L 34.4 66.7 L 34.4 64.9 L 47.3 63.4 L 60.1 61.9 L 72.7 60.4 L 85.1 58.9 L 97.4 57.4 L 109.5 55.7 L 121.3 53.9 L 133.0 52.0 L 144.6 50.0 L 155.9 47.8 L 156.09909648895263 48.98462390899658 L 166.08034906387329 57.18061189651489 L 166.7 55.9 L 167.6 52.7 L 168.5 49.9 L 169.3 47.2 L 170.0 44.8 L 170.5 42.7 L 170.94736843109132 41.0 L 32.047727298736575 41.0 L 32.1 43.3 L 31.7 47.5 L 31.0 51.4 L 29.8 55.1 L 28.2 58.5 L 26.1 61.7 L 23.5 64.5 L 20.4 66.9 L 15.9 67.3 L 12.3 64.4 L 11.9 59.9 L 14.8 56.3 L 16.8 55.5 L 18.6 54.4 L 20.4 52.9 L 22.1 51.0 L 23.7 48.6 L 25.2 45.7 L 26.5 42.4 L 27.6 38.5 L 28.6 34.2 L 29.1 29.4 L 30.9 29.3 L 31.5 34.3 L 31.793478298187257 37.0 L 94.0 37.0 L 94.0 12.9 L 106.0 14.9 L 109.0 16.9 L 106.0 18.7 L 106.0 37.0 L 171.0 37.0 L 177.0 32.0 L 188.0 41.0 L 183.0 44.0 L 178.5540983200073 45.852459049224855 L 177.9 46.6 L 176.4 48.3 L 174.8 50.2 L 172.9 52.3 L 170.9 54.6 L 168.7 57.0 L 167.3201117515564 59.00083799362183 L 167.6 61.1 L 163.07845373153685 58.80908327102661 L 157.9 59.7 L 146.3 61.2 L 134.5 62.6 L 122.6 63.9 L 110.5 64.9 L 106.0 65.22926826477051 L 106.0 96.9 L 155.9 96.9 L 165.9 86.9 L 177.9 96.9 L 177.9 100.9 L 109.47058820724487 100.9 L 117.8 105.7 L 123.8 109.0 L 130.0 112.1 L 136.5 115.1 L 143.2 117.8 L 150.2 120.4 L 157.5 122.7 L 165.0 124.8 L 172.9 126.8 L 181.2 129.0 L 169.5 139.5 L 161.3 136.8 Z M 148.0 71.3 L 149.2 74.7 L 145.19266166687012 74.42363185882569 L 143.1 76.6 L 138.0 81.7 L 135.3 84.2 L 132.6 86.6 L 129.7 89.0 L 126.7 91.3 L 123.6 93.5 L 120.5 95.8 L 119.3 94.6 L 121.5 91.5 L 123.4 88.3 L 127.4 82.1 L 129.4 79.1 L 131.2 76.1 L 133.1 73.2 L 134.8 70.2 L 137.69750804901122 65.2571922302246 L 137.6 65.2 L 138.7 63.7 Z " />
</g>
</svg>
