<svg xmlns="http://www.w3.org/2000/svg" xmlns:xlink="http://www.w3.org/1999/xlink" version="1.1" baseProfile="full" viewBox="0 0 200 200" width="200" height="200">
<g fill="black">
<path d="M 16.0 187.0 L 94.0 187.0 L 94.0 174.2 L 32.0 174.2 L 32.0 170.2 L 94.0 170.2 L 94.0 158.3 L 51.0 158.3 L 39.0 164.3 L 39.0 114.6 L 51.0 120.6 L 149.0 120.6 L 155.0 115.6 L 166.0 124.6 L 161.0 128.6 L 161.0 158.3 L 149.0 164.3 L 149.0 158.3 L 106.0 158.3 L 106.0 170.2 L 149.8181818008423 170.2 L 158.0 161.2 L 168.0 170.2 L 168.0 174.2 L 106.0 174.2 L 106.0 187.0 L 165.8181818008423 187.0 L 174.0 178.0 L 184.0 187.0 L 184.0 191.0 L 16.0 191.0 Z M 51.0 141.4 L 51.0 154.3 L 94.0 154.3 L 94.0 141.4 Z M 106.0 141.4 L 106.0 154.3 L 149.0 154.3 L 149.0 141.4 Z M 51.0 124.6 L 51.0 137.4 L 94.0 137.4 L 94.0 124.6 Z M 106.0 124.6 L 106.0 137.4 L 149.0 137.4 L 149.0 124.6 Z M 155.0 111.0 L 146.3 107.7 L 138.0 104.1 L 130.4 100.2 L 123.4 95.9 L 117.0 91.3 L 111.3 86.4 L 107.4 82.18163261413574 L 107.4 114.3 L 95.4 120.3 L 95.4 87.43230772018433 L 89.1 91.6 L 81.8 95.7 L 73.6 99.6 L 64.6 103.3 L 54.7 106.7 L 43.9 109.9 L 32.2 112.8 L 19.6 115.3 L 19.2 113.6 L 31.1 109.2 L 42.2 104.8 L 52.4 100.6 L 61.6 96.3 L 69.9 92.0 L 77.2 87.7 L 83.5 83.3 L 88.9 78.9 L 93.3 74.6 L 95.4 71.94411764144897 L 95.4 55.4 L 27.107999992370605 55.4 L 24.9 57.7 L 20.5 58.8 L 16.5 56.5 L 15.5 52.0 L 17.8 48.1 L 19.7 47.0 L 21.5 45.8 L 23.1 44.4 L 24.5 42.8 L 25.8 41.0 L 26.9 38.9 L 27.9 36.4 L 28.0 36.0625 L 28.0 32.4 L 28.960000038146973 32.4 L 29.3 30.7 L 29.2 27.4 L 31.0 27.1 L 31.8 30.5 L 32.334375 32.4 L 94.0 32.4 L 94.0 10.6 L 106.0 12.6 L 109.0 14.6 L 106.0 16.4 L 106.0 32.4 L 171.0 32.4 L 171.66545457839965 31.845454502105714 L 172.2 30.7 L 172.6341675758362 31.038193702697754 L 177.0 27.4 L 188.0 36.4 L 183.0 39.4 L 176.8800000190735 41.95 L 176.7 42.1 L 174.7 43.6 L 172.5 45.3 L 170.1 47.2 L 167.5 49.1 L 164.7 51.2 L 164.40476188659667 51.4 L 170.0 51.4 L 174.5 45.4 L 180.5 51.4 L 180.5 55.4 L 159.17692308425904 55.4 L 158.6 55.9 L 158.1 55.4 L 107.4 55.4 L 107.4 76.72363634109497 L 109.2 78.0 L 115.0 81.7 L 119.23593072891235 84.2415584564209 L 119.3 84.2 L 122.7 81.6 L 125.8 78.9 L 128.6 76.2 L 131.1 73.4 L 133.4 70.5 L 135.4 67.4 L 137.1 64.3 L 138.6 61.0 L 139.54941816329955 58.51690626144409 L 139.5 58.5 L 140.4 56.3 L 150.9 62.4 L 152.9 65.4 L 148.79701633453368 65.96592874526978 L 148.6 66.3 L 146.0 70.0 L 144.8832836151123 71.30925369262695 L 148.4 71.7 L 151.8 72.4 L 155.1 73.2 L 158.2 74.1 L 161.3 75.1 L 164.2 76.2 L 167.0 77.4 L 169.7 78.7 L 172.3 80.2 L 174.4 84.2 L 173.2 88.6 L 169.2 90.8 L 164.8 89.6 L 163.2 87.9 L 161.4 86.1 L 159.4 84.4 L 157.2 82.6 L 154.9 80.9 L 152.4 79.2 L 149.7 77.4 L 146.9 75.6 L 143.9 73.8 L 143.08297872543335 73.41702127456665 L 140.0 76.5 L 136.6 79.3 L 133.0 81.7 L 129.1 83.9 L 125.0 85.7 L 123.00590219497681 86.34924116134644 L 127.5 88.7 L 134.5 91.8 L 142.0 94.7 L 150.0 97.3 L 158.5 99.7 L 167.5 101.8 L 177.1 103.7 L 186.1 105.6 L 174.3 116.6 L 164.4 114.0 Z M 70.8 82.5 L 69.8 81.2 L 68.4 79.9 L 66.7 78.4 L 64.7 76.9 L 62.4 75.2 L 59.8 73.5 L 57.40198020935058 71.8727723121643 L 55.6 73.9 L 52.0 77.3 L 48.1 80.4 L 43.7 83.3 L 39.0 85.9 L 34.0 88.2 L 28.5 90.2 L 22.6 91.8 L 21.9 90.2 L 26.9 86.9 L 31.4 83.6 L 35.6 80.4 L 39.3 77.2 L 42.6 74.0 L 45.5 70.8 L 48.0 67.5 L 50.1 64.2 L 51.7 60.9 L 52.71587743759155 58.505431747436525 L 52.7 58.5 L 53.6 56.3 L 64.1 62.4 L 66.0 65.4 L 62.02278137207031 65.9485818862915 L 61.7 66.5 L 59.32672233581543 69.6098120689392 L 61.3 69.9 L 64.4 70.5 L 67.3 71.1 L 70.0 71.8 L 72.4 72.5 L 74.7 73.3 L 76.8 74.1 L 78.7 75.1 L 80.5 76.2 L 82.1 80.5 L 80.3 84.7 L 76.0 86.3 L 71.8 84.5 L 71.5 83.6 Z M 33.1 37.0 L 33.2 40.2 L 32.9 43.4 L 32.1 46.5 L 31.0 49.5 L 29.951724147796632 51.4 L 95.4 51.4 L 95.4 38.9 L 107.4 40.9 L 110.4 42.9 L 107.4 44.7 L 107.4 51.4 L 159.825 51.4 L 161.7 48.4 L 163.6 45.5 L 165.3 42.8 L 166.9 40.3 L 168.3 38.0 L 169.29047622680665 36.4 L 33.02727270126343 36.4 Z " />
</g>
</svg>
