<svg xmlns="http://www.w3.org/2000/svg" xmlns:xlink="http://www.w3.org/1999/xlink" version="1.1" baseProfile="full" viewBox="0 0 200 200" width="200" height="200">
<g fill="black">
<path d="M 174.4 138.4 L 169.4 141.4 L 166.8648715019226 142.45630359649658 L 150.2 186.0 L 136.8 187.1 L 156.20315580368043 138.4 L 97.1 138.4 L 97.1 134.4 L 157.4 134.4 L 163.4 129.4 Z M 35.9 172.3 L 24.9 177.8 L 24.9 82.0 L 35.9 84.0 L 38.7 86.0 L 35.9 87.75 L 35.9 156.3 L 46.9 156.3 L 46.9 58.4 L 56.9 60.4 L 59.4 62.4 L 56.9 64.0666666984558 L 56.9 156.3 L 69.4 156.3 L 69.4 82.0 L 80.4 84.0 L 83.1 86.0 L 80.4 87.72340421676635 L 80.4 166.3 L 69.4 171.8 L 69.4 160.3 L 35.9 160.3 Z M 165.4 113.8 L 159.8 109.0 L 154.4 103.7 L 149.3 98.0 L 144.5 91.7 L 140.0 84.9 L 135.9 77.7 L 132.1 69.9 L 131.7866310119629 69.07740640640259 L 128.8 75.2 L 124.3 83.0 L 119.5 90.6 L 114.3 97.8 L 108.8 104.7 L 102.9 111.2 L 96.6 117.4 L 89.8 123.2 L 82.6 128.4 L 81.4 127.1 L 87.2 120.4 L 92.6 113.7 L 97.8 107.0 L 102.8 100.1 L 107.3 93.0 L 111.6 85.7 L 115.5 78.2 L 119.1 70.5 L 122.4 62.5 L 125.3 54.4 L 125.31158180236817 54.40420227050781 L 125.8 53.0 L 136.6 58.5 L 138.7 61.5 L 134.97142858505248 62.14285717010498 L 133.70001392364503 64.98681106567383 L 135.8 67.8 L 140.8 74.5 L 145.9 80.7 L 151.0 86.4 L 156.2 91.6 L 161.4 96.3 L 166.8 100.5 L 172.2 104.2 L 177.8 107.3 L 183.5 110.0 L 188.9 112.7 L 177.6 121.9 L 171.4 118.1 Z M 155.4 110.8 L 155.4 114.8 L 108.2 114.8 L 108.2 110.8 L 137.21818180084227 110.8 L 145.4 101.8 Z M 13.4 69.6 L 12.8 65.1 L 15.4 61.3 L 17.4 60.4 L 19.3 59.0 L 21.2 57.2 L 22.9 54.9 L 24.6 52.0 L 26.1 48.6 L 27.4 44.7 L 28.5 40.2 L 29.5 35.3 L 30.1 29.8 L 31.9 29.8 L 32.6 35.3 L 32.93018865585327 38.8 L 94.0 38.8 L 94.0 11.4 L 106.0 13.4 L 109.0 15.4 L 106.0 17.2 L 106.0 38.8 L 170.0 38.8 L 170.6 38.3 L 170.9 37.6 L 171.2067491531372 37.79437570571899 L 176.0 33.8 L 187.0 42.8 L 182.0 45.8 L 177.8239999771118 47.53999996185303 L 177.5 47.9 L 175.5 50.0 L 173.3 52.1 L 171.0 54.4 L 168.5 56.7 L 165.8 59.2 L 162.9 61.7 L 159.7 64.2 L 156.6 67.0 L 155.3 65.8 L 157.6 62.4 L 159.6 58.9 L 161.5 55.6 L 163.3 52.6 L 164.9 49.6 L 166.4 46.9 L 167.8 44.3 L 168.55 42.8 L 33.14399995803833 42.8 L 33.2 45.6 L 32.9 50.2 L 32.1 54.6 L 31.0 58.6 L 29.4 62.4 L 27.3 65.9 L 24.7 69.0 L 21.6 71.6 L 17.1 72.3 Z " />
</g>
</svg>
