<svg xmlns="http://www.w3.org/2000/svg" xmlns:xlink="http://www.w3.org/1999/xlink" version="1.1" baseProfile="full" viewBox="0 0 200 200" width="200" height="200">
<g fill="black">
<path d="M 164.5 173.0 L 159.4 168.8 L 154.5 164.4 L 149.9 159.7 L 145.5 154.7 L 141.5 149.5 L 137.8 144.0 L 134.8 138.72727270126342 L 134.8 182.3 L 122.8 188.3 L 122.8 145.15454549789428 L 122.0 146.3 L 117.4 152.2 L 112.3 157.8 L 106.9 162.9 L 101.2 167.6 L 95.1 171.8 L 88.7 175.6 L 82.0 178.9 L 74.9 181.6 L 74.1 180.0 L 80.1 175.6 L 85.8 171.2 L 91.2 166.6 L 96.2 161.8 L 101.0 156.9 L 105.3 151.6 L 109.4 146.1 L 113.1 140.3 L 116.6 134.3 L 117.33513517379761 132.6 L 77.6 132.6 L 77.6 128.6 L 122.8 128.6 L 122.8 107.6 L 134.8 109.6 L 137.8 111.6 L 134.8 113.4 L 134.8 128.6 L 157.9 128.6 L 167.9 118.6 L 179.9 128.6 L 179.9 132.6 L 134.8 132.6 L 134.8 132.63478260040284 L 137.8 135.7 L 142.4 140.3 L 146.9 144.7 L 151.5 148.9 L 156.3 152.9 L 161.1 156.6 L 166.1 160.0 L 171.2 163.2 L 176.4 166.2 L 181.8 168.9 L 186.8 171.6 L 175.5 180.5 L 169.9 176.9 Z M 66.5 159.5 L 63.5 156.5 L 60.1 153.6 L 58.57915859222412 152.49019680023193 L 57.6 154.1 L 50.9 162.9 L 43.5 170.8 L 35.2 177.6 L 26.2 183.4 L 16.5 188.1 L 15.7 186.5 L 24.1 180.3 L 31.8 173.5 L 38.7 166.2 L 45.0 158.3 L 50.4 149.6 L 51.38488502502442 147.67126684188844 L 47.8 145.6 L 43.0 143.1 L 38.22272138595581 140.75819673538209 L 36.5 147.7 L 23.4 150.6 L 36.47195529937744 97.9 L 21.0 97.9 L 21.0 93.9 L 37.46413412094116 93.9 L 45.6 61.1 L 56.8 65.9 L 59.2 68.5 L 55.924726486206055 69.42696418762208 L 49.85134477615357 93.9 L 67.2 93.9 L 73.2 88.9 L 84.2 97.9 L 79.2 100.9 L 78.15155277252197 101.33685302734375 L 76.4 109.9 L 72.9 122.3 L 68.6 133.7 L 63.5 144.4 L 63.23042678833008 144.84319667816163 L 65.3 145.9 L 69.6 148.5 L 73.7 151.5 L 77.5 154.7 L 80.9 158.2 L 82.1 162.6 L 80.0 166.6 L 75.6 167.8 L 71.5 165.7 L 69.2 162.5 Z M 48.85867967605591 97.9 L 39.14839458465576 137.02814378738404 L 44.8 138.1 L 50.4 139.6 L 54.73936023712158 141.10208625793456 L 55.2 140.2 L 59.3 130.1 L 62.7 119.2 L 65.3 107.5 L 66.83599996566772 97.9 Z M 13.5 78.1 L 12.6 73.6 L 15.1 69.8 L 17.1 68.6 L 19.1 67.0 L 21.0 64.8 L 22.8 62.0 L 24.4 58.7 L 25.9 54.7 L 27.2 50.2 L 28.3 45.2 L 29.4 39.6 L 30.1 33.4 L 31.9 33.3 L 32.7 39.6 L 33.06440677642822 43.9 L 94.0 43.9 L 94.0 13.0 L 106.0 15.0 L 109.0 17.0 L 106.0 18.8 L 106.0 43.9 L 170.0 43.9 L 170.45806455612183 43.51827955245972 L 170.7 42.9 L 170.99863481521606 43.06780433654785 L 176.0 38.9 L 187.0 47.9 L 182.0 50.9 L 178.29032258987428 52.44569892883301 L 177.7 53.2 L 175.7 55.6 L 173.5 58.1 L 171.2 60.7 L 168.6 63.4 L 165.9 66.2 L 164.28500003814696 67.81499996185303 L 171.6 73.8 L 166.6 77.8 L 166.6 109.3 L 154.6 115.3 L 154.6 105.3 L 102.9 105.3 L 102.9 112.3 L 90.9 118.3 L 90.9 63.8 L 102.9 69.8 L 154.6 69.8 L 160.08571424484253 65.22857141494751 L 161.3 62.8 L 163.1 59.4 L 167.6 50.4 L 168.7111110687256 47.9 L 33.24285717010498 47.9 L 33.3 51.1 L 33.0 56.2 L 32.2 61.0 L 31.1 65.5 L 29.5 69.7 L 27.5 73.4 L 24.9 76.8 L 21.8 79.7 L 17.3 80.6 Z M 102.9 73.8 L 102.9 101.3 L 154.6 101.3 L 154.6 73.8 Z " />
</g>
</svg>
