<svg xmlns="http://www.w3.org/2000/svg" xmlns:xlink="http://www.w3.org/1999/xlink" version="1.1" baseProfile="full" viewBox="0 0 200 200" width="200" height="200">
<g fill="black">
<path d="M 163.0 175.5 L 158.6 170.2 L 153.7 165.1 L 148.4 160.1 L 145.6772925376892 157.8467248916626 L 144.1 160.1 L 135.9 168.7 L 126.5 175.9 L 116.1 181.6 L 104.7 185.8 L 92.3 188.4 L 91.9 186.6 L 103.4 182.2 L 113.6 176.8 L 122.7 170.5 L 130.6 163.3 L 137.3 154.9 L 138.77727813720702 152.46378698349 L 136.4 150.7 L 129.7 146.1 L 122.7 141.7 L 120.63653669357299 140.46192207336426 L 118.7 148.2 L 105.6 151.1 L 118.78804244995118 98.5 L 102.1 98.5 L 102.1 94.5 L 119.79093542099 94.5 L 131.6 47.4 L 142.7 52.3 L 145.2 54.9 L 141.81393346786498 55.840573978424075 L 132.13899898529053 94.5 L 162.8 94.5 L 172.8 84.5 L 184.8 94.5 L 184.8 98.5 L 167.17302627563475 98.5 L 165.1 112.2 L 161.6 126.1 L 157.0 138.7 L 151.1 150.1 L 150.28105049133302 151.2699278831482 L 153.6 153.4 L 159.9 158.1 L 165.7 163.1 L 171.1 168.5 L 176.1 174.1 L 180.7 180.1 L 181.4 184.6 L 178.9 188.4 L 174.4 189.2 L 170.6 186.6 L 167.0 181.0 Z M 27.3 179.3 L 27.3 135.6 L 39.3 137.6 L 42.3 139.6 L 39.3 141.4 L 39.3 173.56274509429932 L 40.1 173.5 L 45.8 173.1 L 52.1 172.6 L 56.6 172.20869569778444 L 56.6 119.7 L 68.6 121.7 L 71.6 123.7 L 68.6 125.5 L 68.6 143.7 L 83.6777777671814 143.7 L 89.9 136.7 L 97.9 143.7 L 97.9 147.7 L 68.6 147.7 L 68.6 171.2074999809265 L 74.4 170.7 L 82.9 170.1 L 92.1 169.6 L 101.9 169.2 L 102.1 170.9 L 92.6 173.3 L 83.7 175.4 L 75.3 177.2 L 67.5 178.9 L 60.2 180.4 L 53.4 181.8 L 47.2 183.0 L 41.6 184.2 L 36.17653064727783 185.2846939086914 L 34.5 188.8 L 32.1 186.1 L 29.989655208587646 179.3 Z M 131.13795623779296 98.5 L 121.43321380615234 137.27853298187256 L 124.3 138.2 L 132.3 141.4 L 139.8 145.1 L 142.36595935821532 146.5456109046936 L 143.0 145.5 L 147.7 134.9 L 151.3 123.2 L 153.9 110.2 L 155.09562044143678 98.5 Z M 32.2 43.2 L 31.9 48.1 L 31.2 52.7 L 30.0 56.9 L 28.9875 59.6 L 87.41818180084229 59.6 L 95.6 50.6 L 105.6 59.6 L 105.6 63.6 L 66.74615383148193 63.6 L 66.2 70.7 L 64.9811764717102 78.1 L 85.6 78.1 L 91.6 73.1 L 102.6 82.1 L 97.6 85.1 L 97.59295501708985 85.10293540954589 L 97.5 89.1 L 97.4 93.0 L 97.2 96.5 L 97.0 99.7 L 96.7 102.4 L 96.4 104.9 L 95.9 107.1 L 95.3 109.1 L 94.2 111.2 L 92.8 113.2 L 91.2 115.1 L 89.4 116.7 L 87.5 118.2 L 85.4 119.5 L 83.2 120.5 L 81.0 121.3 L 78.6 121.8 L 76.2 122.1 L 73.7 122.3 L 73.7 116.3 L 53.7 113.3 L 53.7 110.3 L 73.7 110.3 L 75.1 110.2 L 76.4 110.0 L 77.6 109.7 L 78.7 109.4 L 79.7 108.9 L 80.7 108.3 L 81.6 107.6 L 82.5 106.8 L 83.4 105.8 L 84.175 104.6375 L 84.3 104.2 L 84.5 102.9 L 84.8 101.0 L 85.0 98.6 L 85.2 95.8 L 85.4 92.5 L 85.5 88.8 L 85.6 84.6 L 85.6 82.1 L 63.98205127716064 82.1 L 62.6 87.0 L 59.7 94.2 L 55.9 100.5 L 51.5 106.1 L 46.3 110.9 L 40.4 114.7 L 33.9 117.5 L 26.8 119.4 L 26.2 117.7 L 32.2 114.1 L 37.4 110.2 L 41.8 106.0 L 45.6 101.3 L 48.7 96.2 L 51.1 90.5 L 53.0 84.2 L 54.3 77.3 L 54.9 69.8 L 54.9 63.6 L 26.925 63.6 L 26.4 64.5 L 23.8 67.8 L 20.7 70.5 L 16.2 71.3 L 12.4 68.7 L 11.7 64.2 L 14.3 60.4 L 16.3 59.3 L 18.2 57.8 L 20.1 55.8 L 21.9 53.3 L 23.5 50.2 L 25.0 46.5 L 26.3 42.3 L 27.4 37.6 L 28.4 32.3 L 29.1 26.5 L 30.9 26.4 L 31.6 32.3 L 32.01785717010498 36.2 L 94.0 36.2 L 94.0 10.9 L 106.0 12.9 L 109.0 14.9 L 106.0 16.7 L 106.0 36.2 L 171.0 36.2 L 171.5777777671814 35.718518543243405 L 171.8 35.2 L 172.03542852401733 35.337142848968504 L 177.0 31.2 L 188.0 40.2 L 183.0 43.2 L 179.08888893127443 44.829629611969 L 178.6 45.4 L 176.6 47.6 L 174.4 50.0 L 172.1 52.4 L 169.6 54.9 L 166.9 57.5 L 163.9 60.2 L 160.8 63.0 L 157.6 66.0 L 156.3 64.8 L 158.6 61.2 L 160.5 57.5 L 162.4 54.1 L 164.2 50.9 L 165.8 47.8 L 167.3 44.9 L 168.7 42.2 L 169.66000003814696 40.2 L 32.2 40.2 Z " />
</g>
</svg>
