<svg xmlns="http://www.w3.org/2000/svg" xmlns:xlink="http://www.w3.org/1999/xlink" version="1.1" baseProfile="full" viewBox="0 0 200 200" width="200" height="200">
<g fill="black">
<path d="M 136.2 175.4 L 157.4 175.4 L 158.3 175.2 L 158.9 175.0 L 159.2 174.8 L 159.4 174.7 L 159.6 174.5 L 159.9 173.6 L 160.1 172.7 L 160.2 171.4 L 160.2 133.7 L 118.51621618270875 133.7 L 118.2 137.6 L 117.3 144.8 L 116.0 151.5 L 114.3 158.0 L 112.1 164.0 L 109.6 169.6 L 106.5 174.8 L 103.1 179.6 L 99.2 183.8 L 94.8 187.4 L 93.5 186.2 L 96.2 181.5 L 98.6 176.7 L 100.7 171.8 L 102.6 166.7 L 104.1 161.3 L 105.3 155.7 L 106.1 149.8 L 106.7 143.6 L 106.9 137.0 L 106.8 130.2 L 106.8 57.1 L 118.8 63.1 L 158.62702703475952 63.1 L 159.6 61.6 L 161.5 57.9 L 163.4 54.5 L 165.1 51.3 L 166.6 48.4 L 168.0 45.7 L 169.3 43.2 L 169.61818180084228 42.5 L 33.18461542129516 42.5 L 33.3 43.4 L 33.3 47.2 L 33.0 51.0 L 32.3 54.6 L 31.1 58.1 L 29.6 61.4 L 27.6 64.6 L 25.2 67.6 L 20.9 69.1 L 16.7 67.2 L 15.2 62.9 L 17.1 58.7 L 19.2 57.2 L 21.0 55.5 L 22.7 53.6 L 24.2 51.4 L 25.6 48.9 L 26.7 46.1 L 27.7 42.9 L 28.0 41.625 L 28.0 38.5 L 28.657894706726076 38.5 L 29.1 35.7 L 29.2 31.7 L 31.0 31.5 L 31.9 35.6 L 32.5692307472229 38.5 L 94.0 38.5 L 94.0 11.7 L 106.0 13.7 L 109.0 15.7 L 106.0 17.5 L 106.0 38.5 L 171.0 38.5 L 171.58356161117553 38.01369867324829 L 171.9 37.2 L 172.27240219116212 37.43966484069824 L 177.0 33.5 L 188.0 42.5 L 183.0 45.5 L 178.25217390060425 47.47826089859009 L 177.0 48.8 L 172.8 53.0 L 170.4 55.3 L 167.7 57.9 L 166.88289966583253 58.658736038208005 L 177.2 67.1 L 172.2 71.1 L 172.2 171.4 L 172.0 174.0 L 171.6 176.5 L 170.8 178.9 L 169.5 181.1 L 167.9 183.2 L 165.9 184.8 L 163.6 186.0 L 161.2 186.8 L 158.7 187.3 L 156.2 187.4 L 156.2 181.4 L 136.2 178.4 Z M 65.9 58.2 L 68.9 60.2 L 65.9 62.0 L 65.9 81.675 L 69.4 79.8 L 74.7 76.6 L 79.7 73.3 L 83.64043130874634 70.44947519302369 L 83.6 70.4 L 83.64230384826661 70.44812059402466 L 84.4 69.9 L 89.04309930801392 76.59152545928956 L 91.6 79.5 L 91.8 83.0 L 88.20535717010497 81.49678573608398 L 85.7 83.0 L 79.9 86.0 L 73.9 88.8 L 67.5 91.3 L 65.9 91.86615381240844 L 65.9 109.70363636016846 L 69.7 107.7 L 75.0 104.7 L 79.9 101.5 L 83.6233606338501 98.82889347076416 L 83.6 98.8 L 83.62515335083008 98.82760734558106 L 84.5 98.2 L 88.51999998092651 104.2 L 91.8 107.8 L 91.9 111.3 L 88.340740776062 109.81158246994019 L 85.7 111.3 L 80.0 114.1 L 74.1 116.8 L 67.8 119.1 L 65.9 119.753125 L 65.9 139.5 L 73.3 136.0 L 80.6 132.3 L 87.7 128.4 L 93.81965808868408 124.72820510864258 L 93.8 124.7 L 93.82482166290283 124.7251070022583 L 94.7 124.2 L 96.65382165908814 127.58662424087524 L 102.5 133.5 L 102.7 136.9 L 99.0607476234436 135.4196261405945 L 93.1 138.4 L 85.3 142.0 L 77.3 145.2 L 69.3 148.2 L 65.9 149.26506023406984 L 65.9 177.7 L 53.9 183.7 L 53.9 152.68192768096924 L 52.7 153.0 L 44.1 155.0 L 35.5 156.5 L 26.7 157.6 L 17.7 158.2 L 17.4 156.4 L 25.9 153.9 L 34.3 151.3 L 42.4 148.6 L 50.4 145.8 L 53.9 144.45384616851806 L 53.9 123.36000003814698 L 47.6 124.8 L 40.3 126.1 L 32.7 127.1 L 24.9 127.6 L 24.6 125.9 L 31.9 123.4 L 39.0 120.9 L 45.8 118.5 L 52.2 116.0 L 53.9 115.25967741012573 L 53.9 95.65070419311523 L 47.0 97.4 L 39.6 98.9 L 32.0 100.0 L 24.0 100.7 L 23.7 98.9 L 31.1 96.3 L 38.2 93.7 L 45.1 91.1 L 51.6 88.4 L 53.9 87.41428575515747 L 53.9 56.2 Z M 118.8 100.8 L 118.8 129.7 L 160.2 129.7 L 160.2 100.8 Z M 118.8 67.1 L 118.8 96.8 L 160.2 96.8 L 160.2 67.1 Z " />
</g>
</svg>
