<svg xmlns="http://www.w3.org/2000/svg" xmlns:xlink="http://www.w3.org/1999/xlink" version="1.1" baseProfile="full" viewBox="0 0 200 200" width="200" height="200">
<g fill="black">
<path d="M 65.1 55.3 L 67.0 58.4 L 63.3072416305542 58.84567775726318 L 60.6 64.2 L 55.9 72.9 L 51.0 81.3 L 45.9 89.6 L 40.5 97.6 L 39.88716983795166 98.46452827453614 L 45.5 99.4 L 48.5 101.4 L 45.5 103.2 L 45.5 185.8 L 33.5 191.8 L 33.5 107.33448276519775 L 29.1 113.1 L 23.0 120.4 L 16.5 127.4 L 9.8 134.1 L 8.4 133.0 L 13.6 125.1 L 18.7 117.2 L 23.7 109.3 L 28.6 101.3 L 33.3 93.1 L 37.8 84.9 L 42.2 76.5 L 46.4 67.9 L 50.3 59.2 L 53.70986843109131 51.30346260070801 L 53.7 51.3 L 53.82195119857788 51.04390239715576 L 54.1 50.4 L 54.12357139587402 50.41049995422363 L 54.7 49.2 Z M 80.3 189.3 L 80.3 138.46499996185304 L 77.0 141.6 L 72.8 145.4 L 68.2 148.9 L 63.3 152.3 L 62.1 151.0 L 65.5 146.2 L 68.9 141.7 L 72.1 137.3 L 75.2 133.0 L 78.0 128.8 L 80.3 125.08461542129517 L 80.3 121.0 L 82.16226415634155 121.93113203048706 L 83.0 120.5 L 85.2 116.4 L 87.1 112.4 L 88.40656766891479 109.40258016586304 L 88.4 109.4 L 88.46000003814697 109.28000001907348 L 88.5384614944458 109.1 L 82.6 109.1 L 82.6 112.1 L 70.6 118.1 L 70.6 50.5 L 82.6 56.5 L 107.2 56.5 L 112.7 51.5 L 123.2 60.5 L 118.2 64.0 L 118.2 111.1 L 107.2 116.6 L 107.2 109.1 L 92.109375 109.1 L 99.6 113.8 L 101.4 117.0 L 97.53664379119873 117.26643838882447 L 97.1 118.0 L 94.3 122.0 L 91.4 126.1 L 91.13243246078491 126.41621618270874 L 92.3 127.0 L 121.42666664123536 127.0 L 121.5 126.9 L 122.2 124.9 L 122.9 123.1 L 124.5 119.3 L 125.4 117.5 L 126.2 115.6 L 126.7 114.54444446563721 L 126.7 51.0 L 137.7 56.5 L 156.73999996185302 56.5 L 157.7 55.3 L 159.7 52.1 L 161.6 49.1 L 163.4 46.3 L 165.1 43.7 L 166.6 41.2 L 168.0 38.8 L 168.32727270126344 38.2 L 33.046666622161865 38.2 L 33.1 40.6 L 32.7 44.7 L 32.0 48.7 L 30.8 52.4 L 29.2 55.9 L 27.1 59.0 L 24.5 61.9 L 21.4 64.3 L 16.9 64.7 L 13.3 61.8 L 12.9 57.2 L 15.8 53.7 L 17.8 52.9 L 19.6 51.8 L 21.4 50.3 L 23.1 48.3 L 24.7 45.9 L 26.2 43.0 L 27.5 39.6 L 28.6 35.7 L 29.6 31.4 L 30.1 26.6 L 31.9 26.5 L 32.5 31.5 L 32.79347829818725 34.2 L 94.0 34.2 L 94.0 10.0 L 106.0 12.0 L 109.0 14.0 L 106.0 15.8 L 106.0 34.2 L 170.0 34.2 L 170.6 33.7 L 171.0 32.8 L 171.37029705047607 33.05808582305908 L 176.0 29.2 L 187.0 38.2 L 182.0 41.2 L 177.17931032180786 43.208620643615724 L 175.3 44.9 L 173.1 46.7 L 170.8 48.7 L 168.3 50.7 L 165.6 52.8 L 162.7 54.9 L 160.44545450210572 56.5 L 162.3 56.5 L 168.3 51.5 L 179.3 60.5 L 174.3 64.5 L 174.3 111.1 L 162.3 117.1 L 162.3 109.1 L 137.7 109.1 L 132.34193544387819 111.7790322303772 L 138.5 117.0 L 139.7 120.4 L 135.16028041839598 119.93037385940552 L 133.5 121.2 L 131.8 122.6 L 130.1 123.8 L 128.4 125.1 L 125.46363639831543 127.0 L 162.4777777671814 127.0 L 168.7 120.0 L 176.7 127.0 L 176.7 131.0 L 131.9 131.0 L 131.9 144.2 L 150.11818180084228 144.2 L 158.3 135.2 L 168.3 144.2 L 168.3 148.2 L 131.9 148.2 L 131.9 162.1 L 150.11818180084228 162.1 L 158.3 153.1 L 168.3 162.1 L 168.3 166.1 L 131.9 166.1 L 131.9 179.3 L 161.6 179.3 L 171.6 169.3 L 183.6 179.3 L 183.6 183.3 L 92.3 183.3 Z M 92.3 166.1 L 92.3 179.3 L 119.9 179.3 L 119.9 166.1 Z M 92.3 148.2 L 92.3 162.1 L 119.9 162.1 L 119.9 148.2 Z M 92.3 131.0 L 92.3 144.2 L 119.9 144.2 L 119.9 131.0 Z M 137.7 92.2 L 137.7 105.1 L 162.3 105.1 L 162.3 92.2 Z M 82.6 92.2 L 82.6 105.1 L 107.2 105.1 L 107.2 92.2 Z M 137.7 76.4 L 137.7 88.2 L 162.3 88.2 L 162.3 76.4 Z M 82.6 76.4 L 82.6 88.2 L 107.2 88.2 L 107.2 76.4 Z M 137.7 60.5 L 137.7 72.4 L 162.3 72.4 L 162.3 60.5 Z M 82.6 60.5 L 82.6 72.4 L 107.2 72.4 L 107.2 60.5 Z " />
</g>
</svg>
