<svg xmlns="http://www.w3.org/2000/svg" xmlns:xlink="http://www.w3.org/1999/xlink" version="1.1" baseProfile="full" viewBox="0 0 200 200" width="200" height="200">
<g fill="black">
<path d="M 111.0 176.2 L 131.0 176.2 L 132.2 176.1 L 133.1 176.0 L 133.7 175.8 L 134.0 175.6 L 134.2 175.4 L 134.4 175.3 L 134.5 174.9 L 134.7 174.3 L 134.9 173.4 L 135.0 172.2 L 135.0 126.0 L 62.83157892227173 126.0 L 62.4 134.2 L 61.1 143.1 L 58.9 151.3 L 55.8 158.8 L 51.8 165.6 L 47.0 171.6 L 41.5 176.8 L 35.1 181.1 L 28.0 184.5 L 20.3 186.8 L 19.6 185.2 L 26.3 181.1 L 32.1 176.7 L 37.0 172.0 L 41.2 166.8 L 44.6 161.2 L 47.2 155.2 L 49.2 148.5 L 50.5 141.3 L 51.1 133.4 L 51.01294116973877 126.0 L 16.0 126.0 L 16.0 122.0 L 51.0 122.0 L 51.0 72.4 L 63.0 78.4 L 74.7956521987915 78.4 L 76.2 76.7 L 77.7 74.1 L 79.1 71.5 L 80.5 69.0 L 81.8 66.4 L 83.0 63.8 L 85.2 58.4 L 86.2 55.6 L 86.79915084838868 53.735975074768064 L 86.7 53.7 L 87.6 51.6 L 98.0 57.8 L 99.9 60.9 L 95.75771350860596 61.32851238250733 L 94.3 63.4 L 92.2 66.0 L 90.1 68.5 L 87.9 70.8 L 85.6 73.0 L 83.2 75.1 L 80.7 76.9 L 78.31764707565307 78.4 L 135.0 78.4 L 141.0 73.4 L 152.0 82.4 L 147.0 86.4 L 147.0 122.0 L 164.0 122.0 L 174.0 112.0 L 186.0 122.0 L 186.0 126.0 L 147.0 126.0 L 147.0 172.2 L 146.8 174.7 L 146.4 177.2 L 145.6 179.6 L 144.3 181.9 L 142.7 183.9 L 140.7 185.6 L 138.4 186.8 L 136.0 187.6 L 133.5 188.0 L 131.0 188.2 L 131.0 182.2 L 111.0 179.2 Z M 103.0 134.2 L 106.0 136.2 L 103.0 138.0 L 103.0 167.7 L 91.0 173.7 L 91.0 132.2 Z M 63.0 82.4 L 63.0 122.0 L 135.0 122.0 L 135.0 82.4 Z M 96.2 109.0 L 95.7 107.3 L 94.9 105.3 L 93.7 103.2 L 92.3 101.0 L 90.5 98.6 L 88.4 96.0 L 86.1 93.4 L 83.3 90.9 L 84.3 89.4 L 87.6 91.3 L 90.9 92.9 L 94.0 94.6 L 96.7 96.3 L 99.2 98.2 L 101.5 100.1 L 103.5 102.1 L 105.3 104.2 L 106.8 106.5 L 108.1 109.0 L 107.3 113.5 L 103.7 116.2 L 99.2 115.5 L 96.4 111.8 L 96.4 110.6 Z M 13.5 78.1 L 12.6 73.6 L 15.1 69.8 L 17.1 68.6 L 19.1 67.0 L 21.0 64.8 L 22.8 62.0 L 24.4 58.7 L 25.9 54.7 L 27.2 50.2 L 28.3 45.2 L 29.4 39.6 L 30.1 33.4 L 31.9 33.3 L 32.7 39.6 L 33.06440677642822 43.9 L 94.0 43.9 L 94.0 13.0 L 106.0 15.0 L 109.0 17.0 L 106.0 18.8 L 106.0 43.9 L 170.0 43.9 L 170.45806455612183 43.51827955245972 L 170.7 42.9 L 170.99863481521606 43.06780433654785 L 176.0 38.9 L 187.0 47.9 L 182.0 50.9 L 178.29032258987428 52.44569892883301 L 177.7 53.2 L 175.7 55.6 L 173.5 58.1 L 171.2 60.7 L 168.6 63.4 L 165.9 66.2 L 163.0 69.1 L 159.8 72.0 L 156.7 75.2 L 155.2 74.1 L 157.5 70.2 L 159.5 66.4 L 161.3 62.8 L 163.1 59.4 L 167.6 50.4 L 168.7111110687256 47.9 L 33.24285717010498 47.9 L 33.3 51.1 L 33.0 56.2 L 32.2 61.0 L 31.1 65.5 L 29.5 69.7 L 27.5 73.4 L 24.9 76.8 L 21.8 79.7 L 17.3 80.6 Z " />
</g>
</svg>
