<svg xmlns="http://www.w3.org/2000/svg" xmlns:xlink="http://www.w3.org/1999/xlink" version="1.1" baseProfile="full" viewBox="0 0 200 200" width="200" height="200">
<g fill="black">
<path d="M 119.50447282791137 130.46621408462525 L 129.3 138.6 L 129.6 141.7 L 125.39245281219482 139.71644201278687 L 122.3 140.6 L 120.4 140.7 L 118.0 140.9 L 115.3 141.2 L 112.1 141.5 L 108.4 141.9 L 104.3 142.3 L 99.8 142.7 L 94.8 143.2 L 89.3 143.6 L 89.2 143.610169506073 L 89.2 160.3 L 105.61818180084228 160.3 L 113.8 151.3 L 123.8 160.3 L 123.8 164.3 L 89.2 164.3 L 89.2 181.6 L 168.3 181.6 L 168.3 164.3 L 133.8 164.3 L 133.8 160.3 L 168.3 160.3 L 168.3 144.3 L 133.0 144.3 L 133.0 140.3 L 168.3 140.3 L 174.3 135.3 L 185.3 144.3 L 180.3 148.3 L 180.3 185.6 L 168.3 191.6 L 168.3 185.6 L 89.2 185.6 L 77.2 191.6 L 77.2 135.3 L 88.16000003814698 140.7800000190735 L 88.7 140.6 L 93.8 138.7 L 98.5 137.0 L 102.8 135.5 L 106.7 134.1 L 110.1 132.9 L 113.0 131.7 L 115.5 130.7 L 117.5 129.8 L 118.16268653869629 129.46865673065184 L 118.1 129.3 L 118.25033559799195 129.42483224868775 L 119.1 129.0 Z M 37.1 193.2 L 33.2 190.9 L 31.9 186.5 L 32.5 182.9 L 32.6 179.7 L 32.3 176.8 L 31.6 174.1 L 30.3 171.5 L 28.4 168.9 L 25.9 166.5 L 22.6 164.2 L 18.6 161.9 L 13.8 160.2 L 14.2 158.4 L 19.5 159.1 L 24.4 160.0 L 28.8 161.5 L 31.10684928894043 162.71109590530395 L 31.5 162.2 L 34.0 159.0 L 37.1 155.2 L 40.8 150.7 L 45.1 145.5 L 50.0 139.6 L 55.7 133.1 L 62.0 126.0 L 69.2 118.3 L 70.6 119.4 L 65.1 128.3 L 60.0 136.3 L 55.3 143.5 L 51.2 150.0 L 47.7 155.6 L 44.7 160.5 L 42.3 164.6 L 40.6 167.9 L 39.49549379348755 170.2010546684265 L 41.5 173.6 L 43.0 178.0 L 43.8 182.8 L 43.8 187.9 L 41.5 191.9 Z M 156.2 132.1 L 154.1 132.6 L 152.0 133.0 L 147.6 133.6 L 145.4 133.8 L 141.0 134.0 L 141.0 128.0 L 121.0 125.0 L 121.0 122.0 L 141.0 122.0 L 144.6 121.8 L 146.3 121.7 L 148.1 121.5 L 149.8 121.2 L 154.9 120.0 L 157.99090909957886 118.90909090042115 L 158.0 118.9 L 158.5 118.3 L 159.2 117.2 L 159.9 115.5 L 160.7 113.5 L 161.6 111.0 L 162.4 108.1 L 163.3 104.8 L 163.3972972869873 104.4 L 116.0 104.4 L 111.3 109.9 L 106.3 115.1 L 100.7 120.0 L 94.7 124.7 L 88.3 129.0 L 81.3 133.0 L 73.9 136.6 L 66.0 139.8 L 65.2 138.1 L 72.0 133.3 L 78.4 128.5 L 84.4 123.7 L 89.9 118.8 L 94.9 113.8 L 99.5 108.7 L 103.6 103.5 L 107.2 98.2 L 110.4 92.7 L 113.1 87.1 L 113.13992538452149 87.12014923095703 L 113.7 86.0 L 123.8 92.5 L 125.6 95.7 L 121.69569320678711 95.96926250457764 L 120.1 98.6 L 118.82758617401123 100.4 L 164.0 100.4 L 170.0 95.4 L 181.0 104.4 L 176.0 107.4 L 174.93401012420654 107.84416246414185 L 174.0 111.3 L 173.0 114.6 L 172.0 117.6 L 170.9 120.3 L 169.8 122.8 L 168.4 125.0 L 166.9 127.0 L 165.0 128.7 L 162.5 130.1 L 158.3 131.5 Z M 32.8 130.7 L 31.5 129.3 L 29.8 128.0 L 27.8 126.5 L 25.3 125.1 L 22.6 123.6 L 19.5 122.1 L 16.1 120.5 L 12.2 119.3 L 12.6 117.5 L 16.6 118.0 L 20.5 118.2 L 24.1 118.5 L 27.4 119.0 L 30.5 119.6 L 33.4 120.3 L 36.1 121.1 L 38.6 122.1 L 40.9 123.3 L 43.0 124.7 L 44.6 129.0 L 42.7 133.2 L 38.4 134.8 L 34.2 132.9 L 33.7 131.9 Z M 167.5 50.4 L 164.2 47.2 L 161.1 43.8 L 158.2 40.1 L 155.5 36.1 L 153.1 31.9 L 151.0 27.5 L 149.1 22.7 L 148.77443332672118 21.614777851104737 L 146.0 21.9 L 135.0 22.9 L 123.9 23.7 L 112.6 24.5 L 107.31370964050294 24.775806427001953 L 109.0 25.9 L 106.0 27.7 L 106.0 43.9 L 95.8 49.0 L 106.0 50.7 L 109.0 52.7 L 106.0 54.5 L 106.0 69.9 L 170.0 69.9 L 170.62105264663697 69.38245611190796 L 171.3 68.1 L 171.73704919815063 68.45245904922486 L 176.0 64.9 L 187.0 73.9 L 182.0 76.9 L 175.775 79.49375 L 175.1 80.0 L 172.9 81.6 L 170.6 83.3 L 168.1 85.0 L 165.5 86.7 L 162.6 88.5 L 159.5 90.4 L 156.5 92.5 L 155.4 91.2 L 157.8 88.5 L 159.8 85.6 L 161.8 82.9 L 163.6 80.3 L 165.3 77.9 L 166.8 75.7 L 168.0 73.9 L 32.951282024383545 73.9 L 33.0 75.8 L 32.6 79.6 L 31.9 83.2 L 30.7 86.5 L 29.005358505249024 89.68991327285767 L 31.3 90.0 L 35.0 90.1 L 38.4 90.5 L 41.6 91.0 L 44.6 91.6 L 47.4 92.3 L 50.0 93.1 L 52.5 94.1 L 54.8 95.2 L 56.9 96.6 L 58.7 100.8 L 57.0 105.1 L 52.8 106.8 L 48.5 105.1 L 47.8 104.0 L 46.8 102.7 L 45.4 101.3 L 43.7 99.9 L 41.7 98.5 L 39.4 97.0 L 36.8 95.5 L 33.9 94.0 L 30.8 92.4 L 27.775 91.39166669845581 L 26.9 92.6 L 24.3 95.1 L 21.2 97.3 L 16.6 97.4 L 13.2 94.4 L 13.1 89.8 L 16.1 86.4 L 18.1 85.8 L 19.9 84.9 L 21.7 83.7 L 23.3 82.1 L 24.9 80.1 L 26.3 77.7 L 27.6 74.8 L 28.7 71.5 L 29.7 67.7 L 30.1 63.5 L 31.9 63.4 L 32.4 67.8 L 32.65609760284424 69.9 L 94.0 69.9 L 94.0 25.46410255432129 L 89.4 25.7 L 77.6 26.1 L 65.6 26.3 L 54.058620643615725 26.3 L 55.5 28.2 L 51.35337839126587 29.072972965240478 L 49.1 32.6 L 46.4 36.1 L 43.3 39.4 L 39.8 42.7 L 36.0 45.8 L 31.7 48.8 L 27.1 51.7 L 21.9 54.4 L 16.4 56.9 L 15.5 55.4 L 20.0 51.5 L 24.0 47.6 L 27.7 43.9 L 31.0 40.4 L 33.9 36.9 L 36.3 33.6 L 38.4 30.3 L 40.0 27.2 L 40.926315784454346 24.673684215545656 L 40.9 24.2 L 41.10937786102295 24.170824432373045 L 41.702284240722655 22.326226711273193 L 41.6 22.3 L 42.5 19.9 L 48.87692308425903 23.088461494445802 L 53.1 22.5 L 65.2 21.0 L 77.1 19.5 L 88.8 18.1 L 100.3 16.7 L 111.7 15.2 L 122.8 13.7 L 133.8 12.2 L 144.6 10.6 L 155.2 8.9 L 155.34426078796386 10.044469261169434 L 166.8 19.5 L 167.2 22.5 L 162.54144792556764 20.04813051223755 L 156.7 20.8 L 152.67859182357788 21.213415813446044 L 155.6 24.5 L 158.7 28.0 L 161.8 31.1 L 164.9 34.0 L 168.1 36.6 L 171.3 39.0 L 174.5 41.0 L 177.8 42.8 L 181.1 44.4 L 186.0 47.1 L 174.8 56.0 L 171.0 53.3 Z " />
</g>
</svg>
