<svg xmlns="http://www.w3.org/2000/svg" xmlns:xlink="http://www.w3.org/1999/xlink" version="1.1" baseProfile="full" viewBox="0 0 200 200" width="200" height="200">
<g fill="black">
<path d="M 96.0 63.7 L 97.1 67.2 L 92.36778240203857 66.54728031158447 L 91.4 67.3 L 89.5 68.8 L 87.4 70.5 L 85.0 72.4 L 82.5 74.5 L 79.7 76.7 L 76.6 79.0 L 76.38571424484253 79.2 L 145.0 79.2 L 151.0 74.2 L 162.0 83.2 L 157.0 87.2 L 157.0 135.3 L 145.0 141.3 L 145.0 129.3 L 80.8745454788208 129.3 L 90.3 134.1 L 92.4 137.0 L 88.63614130020142 137.7263586997986 L 86.4 142.6 L 81.6 150.4 L 75.9 157.6 L 69.3 164.1 L 61.9 169.8 L 53.7 174.8 L 44.8 179.0 L 35.0 182.6 L 24.5 185.3 L 13.1 187.1 L 12.8 185.4 L 23.4 181.6 L 33.1 177.5 L 41.9 173.1 L 49.8 168.3 L 56.8 163.0 L 62.9 157.3 L 68.1 151.2 L 72.6 144.6 L 76.1 137.6 L 78.6471676826477 131.01249742507935 L 78.6 131.0 L 79.2375 129.3 L 55.0 129.3 L 55.0 141.3 L 43.0 147.3 L 43.0 73.2 L 55.0 79.2 L 73.31818180084228 79.2 L 74.7 77.3 L 76.6 74.0 L 78.5 71.0 L 80.2 68.2 L 81.7 65.6 L 83.1 63.3 L 84.2 61.2 L 85.2 59.3 L 86.0 57.7 L 86.20044546127319 57.23229398727417 L 86.0 57.1 L 86.56571426391602 56.380000019073485 L 86.6 56.3 L 86.61765260696411 56.31389675140381 L 87.1 55.7 Z M 181.0 147.1 L 183.0 147.1 L 181.0 172.1 L 184.6 174.5 L 187.0 178.1 L 184.6 181.7 L 181.0 184.1 L 132.0 184.1 L 129.4 183.9 L 126.9 183.5 L 124.5 182.7 L 122.2 181.5 L 120.2 179.8 L 118.6 177.8 L 117.3 175.5 L 116.5 173.1 L 116.1 170.6 L 116.0 168.1 L 116.0 130.1 L 128.0 132.1 L 131.0 134.1 L 128.0 135.9 L 128.0 169.3 L 128.2 170.2 L 128.5 171.1 L 128.9 171.5 L 129.2 171.7 L 129.8 171.8 L 130.7 172.0 L 132.0 172.1 L 175.0 172.1 Z M 55.0 106.2 L 55.0 125.3 L 145.0 125.3 L 145.0 106.2 Z M 55.0 83.2 L 55.0 102.2 L 145.0 102.2 L 145.0 83.2 Z M 13.5 78.1 L 12.6 73.6 L 15.1 69.8 L 17.1 68.6 L 19.1 67.0 L 21.0 64.8 L 22.8 62.0 L 24.4 58.7 L 25.9 54.7 L 27.2 50.2 L 28.3 45.2 L 29.4 39.6 L 30.1 33.4 L 31.9 33.3 L 32.7 39.6 L 33.06440677642822 43.9 L 94.0 43.9 L 94.0 13.0 L 106.0 15.0 L 109.0 17.0 L 106.0 18.8 L 106.0 43.9 L 170.0 43.9 L 170.45806455612183 43.51827955245972 L 170.7 42.9 L 170.99863481521606 43.06780433654785 L 176.0 38.9 L 187.0 47.9 L 182.0 50.9 L 178.29032258987428 52.44569892883301 L 177.7 53.2 L 175.7 55.6 L 173.5 58.1 L 171.2 60.7 L 168.6 63.4 L 165.9 66.2 L 163.0 69.1 L 159.8 72.0 L 156.7 75.2 L 155.2 74.1 L 157.5 70.2 L 159.5 66.4 L 161.3 62.8 L 163.1 59.4 L 167.6 50.4 L 168.7111110687256 47.9 L 33.24285717010498 47.9 L 33.3 51.1 L 33.0 56.2 L 32.2 61.0 L 31.1 65.5 L 29.5 69.7 L 27.5 73.4 L 24.9 76.8 L 21.8 79.7 L 17.3 80.6 Z " />
</g>
</svg>
