<svg xmlns="http://www.w3.org/2000/svg" xmlns:xlink="http://www.w3.org/1999/xlink" version="1.1" baseProfile="full" viewBox="0 0 200 200" width="200" height="200">
<g fill="black">
<path d="M 67.3 159.8 L 64.0 156.7 L 60.4 153.8 L 58.33512735366821 152.33948030471802 L 57.1 154.3 L 49.9 163.2 L 42.0 171.3 L 33.2 178.3 L 23.6 184.2 L 13.2 188.9 L 12.4 187.3 L 21.5 181.0 L 29.8 174.1 L 37.3 166.6 L 44.0 158.4 L 50.0 149.6 L 50.97977752685547 147.75571279525758 L 47.0 145.6 L 41.8 143.0 L 36.218574905395506 140.40862407684327 L 34.3 147.8 L 21.1 150.6 L 35.10919036865234 96.8 L 18.1 96.8 L 18.1 92.8 L 36.150765895843506 92.8 L 44.9 59.2 L 56.0 64.2 L 58.4 66.9 L 55.07090139389038 67.77938451766968 L 48.576315784454344 92.8 L 68.1 92.8 L 74.1 87.8 L 85.1 96.8 L 80.1 99.8 L 79.02284746170044 100.24881353378296 L 77.1 109.2 L 73.4 121.8 L 68.8 133.5 L 63.4 144.3 L 63.067199039459226 144.82825555801392 L 65.3 145.9 L 70.0 148.6 L 74.3 151.6 L 78.3 154.9 L 82.0 158.5 L 83.3 162.8 L 81.3 166.9 L 76.9 168.2 L 72.8 166.2 L 70.2 162.9 Z M 75.8 174.4 L 124.5 174.4 L 124.5 124.7 L 87.9 124.7 L 87.9 120.7 L 124.5 120.7 L 124.5 76.2 L 82.2 76.2 L 82.2 72.2 L 156.7 72.2 L 166.7 62.2 L 178.7 72.2 L 178.7 76.2 L 136.5 76.2 L 136.5 120.7 L 151.0 120.7 L 161.0 110.7 L 173.0 120.7 L 173.0 124.7 L 136.5 124.7 L 136.5 174.4 L 163.1 174.4 L 173.1 164.4 L 185.1 174.4 L 185.1 178.4 L 75.8 178.4 Z M 159.6 156.3 L 158.3 153.6 L 156.9 151.0 L 153.7 145.8 L 152.0 143.3 L 148.2 138.1 L 146.0 135.8 L 147.0 134.3 L 149.9 136.0 L 152.9 137.5 L 155.8 139.3 L 158.5 141.3 L 161.1 143.4 L 163.6 145.7 L 166.0 148.1 L 168.3 150.7 L 170.4 153.4 L 172.5 156.2 L 172.8 160.8 L 169.9 164.3 L 165.4 164.7 L 161.8 161.8 L 160.8 159.0 Z M 47.53803825378418 96.8 L 37.15662775039673 136.79474277496337 L 37.2 136.8 L 43.5 137.9 L 49.4 139.4 L 54.49957447052002 141.13021278381348 L 55.1 140.0 L 59.5 129.7 L 63.1 118.6 L 66.0 106.6 L 67.62047243118286 96.8 Z M 32.8 43.9 L 32.5 48.7 L 31.8 53.2 L 30.6 57.3 L 29.1 61.2 L 27.0 64.7 L 24.5 67.9 L 21.5 70.6 L 16.9 71.3 L 13.2 68.7 L 12.5 64.2 L 15.1 60.4 L 17.0 59.4 L 18.9 58.0 L 20.8 56.1 L 22.5 53.7 L 24.1 50.7 L 25.6 47.2 L 26.9 43.1 L 28.0 38.5 L 29.0 33.4 L 29.6 27.7 L 31.4 27.7 L 32.2 33.4 L 32.54259262084961 37.1 L 93.5 37.1 L 93.5 12.5 L 105.5 14.5 L 108.5 16.5 L 105.5 18.3 L 105.5 37.1 L 169.3 37.1 L 169.8581395149231 36.63488368988037 L 170.1 36.0 L 170.40191659927368 36.18173618316651 L 175.3 32.1 L 186.3 41.1 L 181.3 44.1 L 177.28726110458373 45.77197456359863 L 175.0 48.3 L 172.8 50.6 L 168.0 55.4 L 165.4 57.9 L 162.5 60.5 L 159.3 63.1 L 156.3 66.1 L 154.9 64.9 L 157.2 61.4 L 159.1 57.8 L 161.0 54.4 L 162.7 51.3 L 164.3 48.3 L 165.8 45.5 L 167.1 42.9 L 167.9640000343323 41.1 L 32.74509801864624 41.1 Z " />
</g>
</svg>
