<svg xmlns="http://www.w3.org/2000/svg" xmlns:xlink="http://www.w3.org/1999/xlink" version="1.1" baseProfile="full" viewBox="0 0 200 200" width="200" height="200">
<g fill="black">
<path d="M 133.7 178.5 L 153.7 178.5 L 154.9 178.4 L 155.8 178.2 L 156.4 178.0 L 156.8 177.9 L 157.0 177.7 L 157.1 177.5 L 157.3 177.2 L 157.5 176.6 L 157.6 175.7 L 157.7 174.5 L 157.7 129.5 L 100.98936166763306 129.5 L 100.3 137.6 L 98.7 146.3 L 96.2 154.5 L 92.8 161.9 L 88.5 168.6 L 83.3 174.6 L 77.4 179.7 L 70.6 184.0 L 63.1 187.3 L 54.9 189.8 L 54.3 188.1 L 61.4 183.9 L 67.7 179.5 L 73.1 174.7 L 77.7 169.5 L 81.4 163.9 L 84.4 157.9 L 86.7 151.3 L 88.2 144.2 L 89.0 136.5 L 89.0843373298645 129.5 L 69.2 129.5 L 69.2 125.5 L 89.1 125.5 L 89.1 76.7 L 101.1 82.7 L 112.175 82.7 L 113.3 80.9 L 115.0 77.6 L 116.6 74.5 L 118.1 71.6 L 119.4 68.8 L 120.7 66.2 L 121.8 63.7 L 122.7 61.4 L 123.5 59.3 L 123.87480316162109 58.17559051513672 L 123.7 58.1 L 124.7 56.2 L 134.8 62.9 L 136.5 66.1 L 131.98485383987426 66.32958374023437 L 131.5 66.9 L 129.7 68.9 L 127.7 71.1 L 125.6 73.3 L 123.3 75.5 L 120.9 77.8 L 118.2 80.2 L 115.4 82.6 L 115.29629631042481 82.7 L 157.7 82.7 L 163.7 77.7 L 174.7 86.7 L 169.7 90.7 L 169.7 125.5 L 174.2777777671814 125.5 L 180.5 118.5 L 188.5 125.5 L 188.5 129.5 L 169.7 129.5 L 169.7 174.5 L 169.6 177.0 L 169.1 179.5 L 168.3 181.9 L 167.1 184.2 L 165.4 186.2 L 163.4 187.8 L 161.2 189.1 L 158.8 189.9 L 156.3 190.3 L 153.7 190.5 L 153.7 184.5 L 133.7 181.5 Z M 39.4 188.9 L 35.4 186.7 L 34.1 182.3 L 34.7 177.5 L 34.8 173.1 L 34.3 169.2 L 33.4 165.6 L 31.9 162.3 L 29.9 159.3 L 27.2 156.4 L 23.7 153.6 L 19.5 151.0 L 14.5 148.8 L 14.9 147.0 L 20.6 147.9 L 25.9 149.2 L 30.7 151.3 L 33.19565219879151 152.96376810073852 L 33.5 152.5 L 36.1 148.5 L 39.4 143.8 L 43.3 138.2 L 47.9 131.7 L 53.1 124.4 L 59.1 116.3 L 65.9 107.4 L 73.4 97.7 L 74.9 98.7 L 69.0 109.4 L 63.6 119.2 L 58.7 127.9 L 54.3 135.8 L 50.5 142.6 L 47.3 148.6 L 44.8 153.6 L 42.9 157.7 L 41.7 160.7 L 41.44415407180786 161.62104539871217 L 41.5 161.7 L 43.8 166.5 L 45.3 171.7 L 46.0 177.5 L 46.0 183.6 L 43.8 187.6 Z M 133.7 137.5 L 136.7 139.5 L 133.7 141.3 L 133.7 170.2 L 121.7 176.2 L 121.7 135.5 Z M 101.1 86.7 L 101.1 125.5 L 157.7 125.5 L 157.7 86.7 Z M 131.6 113.3 L 130.8 111.5 L 129.7 109.5 L 128.2 107.4 L 126.4 105.1 L 124.2 102.7 L 121.7 100.1 L 119.0 97.4 L 115.7 95.0 L 116.6 93.4 L 120.4 95.2 L 124.1 96.7 L 127.4 98.3 L 130.5 100.0 L 133.3 101.8 L 135.9 103.6 L 138.2 105.5 L 140.2 107.5 L 142.0 109.7 L 143.5 112.0 L 143.3 116.6 L 140.0 119.8 L 135.4 119.5 L 132.3 116.2 L 132.1 114.9 Z M 34.8 111.8 L 33.4 110.2 L 31.5 108.6 L 29.3 106.9 L 26.7 105.3 L 23.8 103.6 L 20.5 101.8 L 16.9 100.0 L 12.8 98.6 L 13.2 96.8 L 17.5 97.4 L 21.7 97.8 L 25.6 98.4 L 29.2 99.1 L 32.5 100.0 L 35.7 101.1 L 38.6 102.3 L 41.2 103.6 L 43.7 105.2 L 45.9 107.1 L 47.1 111.5 L 45.0 115.5 L 40.6 116.8 L 36.6 114.6 L 35.9 113.3 Z M 49.7 77.4 L 48.1 75.8 L 46.3 74.1 L 44.1 72.4 L 41.7 70.7 L 38.9 69.0 L 35.8 67.3 L 32.5 65.5 L 31.21566524505615 65.02682399749756 L 31.1 65.5 L 29.5 69.7 L 27.5 73.4 L 24.9 76.8 L 21.8 79.7 L 17.3 80.6 L 13.5 78.1 L 12.6 73.6 L 15.1 69.8 L 17.1 68.6 L 19.1 67.0 L 21.0 64.8 L 22.8 62.0 L 24.4 58.7 L 25.9 54.7 L 27.2 50.2 L 28.3 45.2 L 29.4 39.6 L 30.1 33.4 L 31.9 33.3 L 32.7 39.6 L 33.06440677642822 43.9 L 94.0 43.9 L 94.0 13.0 L 106.0 15.0 L 109.0 17.0 L 106.0 18.8 L 106.0 43.9 L 170.0 43.9 L 170.45806455612183 43.51827955245972 L 170.7 42.9 L 170.99863481521606 43.06780433654785 L 176.0 38.9 L 187.0 47.9 L 182.0 50.9 L 178.29032258987428 52.44569892883301 L 177.7 53.2 L 175.7 55.6 L 173.5 58.1 L 171.2 60.7 L 168.6 63.4 L 165.9 66.2 L 163.0 69.1 L 159.8 72.0 L 156.7 75.2 L 155.2 74.1 L 157.5 70.2 L 159.5 66.4 L 161.3 62.8 L 163.1 59.4 L 167.6 50.4 L 168.7111110687256 47.9 L 33.24285717010498 47.9 L 33.3 51.1 L 33.0 56.2 L 32.2 61.0 L 31.772189617156982 62.750133228302005 L 33.2 63.0 L 37.1 63.3 L 40.8 63.9 L 44.2 64.7 L 47.5 65.6 L 50.5 66.6 L 53.3 67.8 L 56.0 69.2 L 58.5 70.7 L 60.8 72.5 L 62.2 76.8 L 60.2 81.0 L 55.9 82.4 L 51.7 80.4 L 50.9 78.9 Z " />
</g>
</svg>
