<svg xmlns="http://www.w3.org/2000/svg" xmlns:xlink="http://www.w3.org/1999/xlink" version="1.1" baseProfile="full" viewBox="0 0 200 200" width="200" height="200">
<g fill="black">
<path d="M 157.4 183.2 L 149.0 178.9 L 141.4 173.7 L 139.74551219940184 172.24605617523193 L 131.6 177.9 L 122.3 182.8 L 112.3 186.8 L 101.5 189.7 L 90.1 191.7 L 89.7 189.9 L 100.4 186.1 L 110.3 181.8 L 119.2 177.0 L 127.3 171.6 L 133.52547969818116 166.3978868484497 L 129.2 161.3 L 124.5 154.0 L 120.8 146.1 L 118.2 137.6 L 116.92307691574096 129.3 L 107.5 129.3 L 107.5 125.3 L 158.9 125.3 L 164.9 120.3 L 175.9 129.3 L 170.9 132.3 L 168.87744808197021 133.14272994995116 L 166.1 139.5 L 160.9 148.9 L 154.8 157.5 L 147.8 165.2 L 147.47018966674804 165.49126110076904 L 154.2 169.1 L 161.8 172.3 L 170.1 174.8 L 179.2 176.6 L 188.4 178.5 L 176.6 189.6 L 166.6 186.8 Z M 27.0 144.9 L 33.0 144.3 L 39.1 143.7 L 45.3 143.1 L 51.5 142.4 L 51.8 142.37142858505248 L 51.8 121.6 L 25.1 121.6 L 25.1 117.6 L 61.6 117.6 L 62.4 115.2 L 63.3 111.9 L 65.1 105.5 L 66.1 102.4 L 67.1 99.4 L 68.0 96.5 L 69.0 93.6 L 70.0 90.8 L 70.59805135726928 88.93939561843872 L 70.5 88.9 L 70.81000003814697 88.28000001907348 L 70.9 88.0 L 70.93999996185303 88.01999998092651 L 71.5 86.9 L 81.7 93.4 L 83.4 96.5 L 79.33328514099121 96.78046312332154 L 76.6 100.8 L 74.8 103.3 L 72.9 105.9 L 71.1 108.5 L 69.1 111.1 L 67.0 113.8 L 64.9 116.4 L 64.07241382598878 117.6 L 73.7 117.6 L 83.7 107.6 L 95.7 117.6 L 95.7 121.6 L 60.2 121.6 L 63.8 122.2 L 66.8 124.2 L 63.8 126.0 L 63.8 139.5 L 63.66942443847656 141.24100723266602 L 64.1 141.2 L 77.1 140.0 L 83.6 139.6 L 90.3 139.4 L 90.7 141.2 L 84.3 143.4 L 78.0 145.3 L 71.7 147.0 L 65.4 148.6 L 62.8729326248169 149.25214643478392 L 61.8 155.0 L 59.7 162.0 L 57.0 168.3 L 53.5 174.1 L 49.3 179.1 L 44.4 183.4 L 39.0 187.0 L 32.9 189.7 L 26.3 191.6 L 25.7 189.9 L 31.2 186.4 L 35.9 182.6 L 40.0 178.6 L 43.4 174.3 L 46.3 169.6 L 48.5 164.5 L 50.1 159.0 L 51.3 153.1 L 51.38690633773804 151.9702181816101 L 46.9 153.0 L 34.7 155.6 L 32.74849500656128 155.99030103683472 L 31.1 159.5 L 28.7 156.8 L 25.0 145.2 Z M 119.15487804412842 129.3 L 122.1 136.2 L 126.1 143.5 L 130.5 150.1 L 135.5 155.9 L 140.00971326828002 160.00706033706666 L 141.1 158.9 L 146.7 151.5 L 151.6 143.5 L 155.8 134.8 L 157.76842107772828 129.3 Z M 127.3 66.4 L 150.5 66.4 L 156.5 61.4 L 160.40322580337525 64.5935483932495 L 161.3 62.8 L 163.1 59.4 L 167.6 50.4 L 168.7111110687256 47.9 L 33.24285717010498 47.9 L 33.3 51.1 L 33.0 56.2 L 32.2 61.0 L 31.1 65.5 L 29.5 69.7 L 27.5 73.4 L 24.9 76.8 L 21.8 79.7 L 17.3 80.6 L 13.5 78.1 L 12.6 73.6 L 15.1 69.8 L 17.1 68.6 L 19.1 67.0 L 21.0 64.8 L 22.8 62.0 L 24.4 58.7 L 25.9 54.7 L 27.2 50.2 L 28.3 45.2 L 29.4 39.6 L 30.1 33.4 L 31.9 33.3 L 32.7 39.6 L 33.06440677642822 43.9 L 94.0 43.9 L 94.0 13.0 L 106.0 15.0 L 109.0 17.0 L 106.0 18.8 L 106.0 43.9 L 170.0 43.9 L 170.45806455612183 43.51827955245972 L 170.7 42.9 L 170.99863481521606 43.06780433654785 L 176.0 38.9 L 187.0 47.9 L 182.0 50.9 L 178.29032258987428 52.44569892883301 L 177.7 53.2 L 175.7 55.6 L 173.5 58.1 L 171.2 60.7 L 168.6 63.4 L 165.9 66.2 L 164.31000003814697 67.78999996185303 L 167.5 70.4 L 162.5 74.4 L 162.5 100.4 L 162.4 101.7 L 162.4 102.7 L 162.5 103.4 L 162.7 104.2 L 162.9 104.6 L 163.3 105.0 L 164.0 105.4 L 165.1 105.7 L 166.5 105.9 L 180.9 105.9 L 183.6 107.7 L 185.4 110.4 L 183.6 113.1 L 180.9 114.9 L 166.5 114.9 L 164.1 115.0 L 161.7 114.7 L 159.4 114.1 L 157.2 113.1 L 155.3 111.7 L 153.6 109.8 L 152.3 107.7 L 151.3 105.4 L 150.8 103.0 L 150.5 100.4 L 150.5 70.4 L 127.3 70.4 L 127.3 86.7 L 126.7 91.6 L 125.5 96.3 L 123.8 100.7 L 121.5 104.9 L 118.8 108.8 L 115.6 112.5 L 111.9 115.9 L 107.7 119.0 L 103.1 121.7 L 98.0 124.2 L 97.1 122.7 L 101.1 119.0 L 104.5 115.2 L 107.4 111.6 L 109.9 108.0 L 111.9 104.4 L 113.4 100.9 L 114.5 97.3 L 115.2 93.8 L 115.4 90.3 L 115.3 86.7 L 115.3 60.4 Z M 41.0 106.4 L 40.7 104.5 L 40.4 102.5 L 39.9 100.4 L 39.2 98.3 L 38.4 96.2 L 37.4 93.9 L 36.3 91.6 L 34.7 89.6 L 35.9 88.3 L 38.0 90.0 L 40.3 91.5 L 42.4 93.1 L 44.4 94.9 L 46.2 96.8 L 47.8 98.8 L 49.3 100.9 L 50.7 103.1 L 51.8 105.5 L 52.8 107.9 L 51.8 112.4 L 48.0 114.9 L 43.6 113.9 L 41.0 110.1 L 41.1 108.3 Z M 26.9 80.9 L 51.8 80.9 L 51.8 59.7 L 63.8 61.7 L 66.8 63.7 L 63.8 65.5 L 63.8 80.9 L 71.9 80.9 L 81.9 70.9 L 93.9 80.9 L 93.9 84.9 L 26.9 84.9 Z " />
</g>
</svg>
