<svg xmlns="http://www.w3.org/2000/svg" xmlns:xlink="http://www.w3.org/1999/xlink" version="1.1" baseProfile="full" viewBox="0 0 200 200" width="200" height="200">
<g fill="black">
<path d="M 170.6 179.7 L 169.1 177.0 L 167.4 174.4 L 165.6710000038147 171.94300003051757 L 161.9 173.2 L 156.1 175.0 L 150.4 176.5 L 144.7 177.9 L 133.3 180.5 L 127.7 181.7 L 116.5 183.9 L 115.13651876449585 184.17269620895385 L 113.4 187.7 L 111.0 185.0 L 107.4 173.4 L 109.4 173.1 L 114.58000001907348 172.7300000190735 L 115.0 172.1 L 118.5 166.9 L 121.9 161.8 L 125.2 156.8 L 128.4 151.9 L 131.4 147.0 L 134.2 142.1 L 136.9 137.3 L 139.4 132.5 L 141.25686092376708 128.62481203079224 L 141.2 128.6 L 142.2 126.7 L 152.2 133.4 L 153.9 136.6 L 150.07639198303224 136.79777278900147 L 149.2 138.2 L 146.0 142.9 L 142.6 147.6 L 139.0 152.3 L 135.2 156.9 L 131.2 161.5 L 127.0 166.0 L 122.6 170.4 L 120.53636360168457 172.20568180084229 L 120.6 172.2 L 126.3 171.8 L 137.7 170.8 L 143.5 170.4 L 149.4 170.0 L 155.3 169.7 L 161.3 169.5 L 163.85 169.5 L 163.4 168.9 L 161.1 166.1 L 158.8 163.2 L 156.3 160.2 L 153.4 157.4 L 154.5 156.0 L 158.0 158.0 L 161.6 159.8 L 164.9 161.9 L 168.1 164.0 L 171.0 166.2 L 173.8 168.5 L 176.5 170.9 L 178.9 173.3 L 181.3 175.8 L 183.4 178.4 L 184.1 183.0 L 181.5 186.7 L 177.0 187.4 L 173.2 184.8 L 172.0 182.2 Z M 47.4 169.5 L 48.4 172.9 L 44.184375 172.234375 L 42.3 173.7 L 39.4 175.7 L 36.3 177.7 L 33.0 179.5 L 29.4 181.3 L 25.6 182.9 L 21.5 184.5 L 17.1 186.0 L 12.6 187.5 L 11.8 185.9 L 15.8 183.3 L 19.3 180.5 L 22.6 177.9 L 25.7 175.4 L 28.5 173.0 L 31.0 170.6 L 33.2 168.3 L 35.2 166.1 L 36.8 163.9 L 37.61379308700562 162.67931032180786 L 37.5 162.6 L 38.6 161.3 Z M 77.0 178.2 L 75.9 176.7 L 74.6 175.1 L 73.0 173.5 L 71.1 171.9 L 69.0 170.1 L 66.6 168.4 L 64.0 166.5 L 61.1 165.0 L 61.7 163.3 L 64.9 164.2 L 68.2 164.8 L 71.2 165.5 L 72.4 165.8310344696045 L 72.4 160.1 L 33.4 160.1 L 21.4 166.1 L 21.4 94.2 L 33.4 100.2 L 72.4 100.2 L 78.4 95.2 L 89.4 104.2 L 84.4 108.2 L 84.4 160.1 L 72.74666662216187 165.92666664123536 L 74.1 166.3 L 76.7 167.2 L 79.2 168.2 L 81.6 169.3 L 83.8 170.5 L 85.9 171.8 L 87.52041454315186 173.07927465438843 L 94.7 164.9 L 101.8 156.0 L 107.9 147.1 L 113.2 138.1 L 117.5 129.1 L 121.0 120.0 L 121.25714282989502 119.1 L 95.9 119.1 L 95.9 115.1 L 122.4 115.1 L 123.6 110.9 L 125.3 101.6 L 126.01398839950562 93.29988441467285 L 126.0 93.3 L 126.3 90.1 L 138.1 93.2 L 140.9 95.4 L 137.49368419647217 97.10315790176392 L 136.5 103.5 L 133.9 113.7 L 133.4 115.1 L 163.6 115.1 L 173.6 105.1 L 185.6 115.1 L 185.6 119.1 L 131.97142858505248 119.1 L 130.4 123.5 L 125.9 133.1 L 120.5 142.4 L 114.2 151.4 L 106.9 160.2 L 98.6 168.6 L 89.4 176.7 L 88.84088888168336 177.11659259796141 L 89.0 177.7 L 86.9 181.8 L 82.5 183.0 L 81.5783187866211 182.52791938781738 L 79.2 184.3 L 78.1 182.9 L 79.4924415588379 181.4595432281494 L 78.4 180.9 L 77.9 179.6 Z M 33.4 140.7 L 33.4 156.1 L 72.4 156.1 L 72.4 140.7 Z M 33.4 122.4 L 33.4 136.7 L 72.4 136.7 L 72.4 122.4 Z M 33.4 104.2 L 33.4 118.4 L 72.4 118.4 L 72.4 104.2 Z M 131.9 87.1 L 125.9 84.3 L 120.6 81.2 L 115.8 77.8 L 111.7 74.2 L 108.3 70.2 L 105.6 66.0 L 103.8 61.6 L 103.6802110671997 60.91121368408203 L 103.3 62.0 L 99.9 67.6 L 95.5 72.6 L 90.0 76.8 L 83.6 80.4 L 76.2 83.4 L 68.0 85.8 L 58.7 87.5 L 48.6 88.6 L 48.3 86.8 L 57.9 83.8 L 66.3 80.6 L 73.7 77.3 L 79.9 73.8 L 84.9 70.0 L 88.8 66.1 L 91.6 62.1 L 93.4 57.9 L 93.42093019485473 57.8 L 50.2 57.8 L 50.2 53.8 L 94.2581395149231 53.8 L 94.3 53.6 L 94.5 48.9 L 94.5 38.5 L 106.5 40.5 L 109.5 42.5 L 106.5 44.3 L 106.5 48.9 L 105.77941179275513 53.8 L 128.7 53.8 L 138.7 43.8 L 150.7 53.8 L 150.7 57.8 L 105.88125 57.8 L 107.4 59.6 L 110.3 62.5 L 113.5 65.2 L 117.0 67.7 L 121.0 70.1 L 125.4 72.2 L 130.4 74.2 L 135.9 76.0 L 142.0 77.6 L 148.6 79.0 L 157.2 81.1 L 145.5 91.8 L 138.4 89.6 Z M 13.3 58.3 L 13.0 53.7 L 15.9 50.2 L 17.9 49.5 L 19.8 48.5 L 21.5 47.1 L 23.2 45.4 L 24.8 43.2 L 26.2 40.5 L 27.5 37.3 L 28.7 33.7 L 29.7 29.6 L 30.1 25.1 L 31.9 25.1 L 32.4 29.7 L 32.672727298736575 32.1 L 94.0 32.1 L 94.0 9.4 L 106.0 11.4 L 109.0 13.4 L 106.0 15.2 L 106.0 32.1 L 170.0 32.1 L 170.64838705062866 31.559677410125733 L 171.1 30.6 L 171.4726674079895 30.87277717590332 L 176.0 27.1 L 187.0 36.1 L 182.0 39.1 L 176.7384614944458 41.292307662963864 L 175.2 42.6 L 173.0 44.3 L 170.7 46.1 L 168.2 48.0 L 165.6 49.9 L 162.7 51.9 L 159.6 53.9 L 156.6 56.3 L 155.3 55.0 L 157.8 52.0 L 159.8 49.0 L 161.7 46.2 L 163.5 43.5 L 165.2 41.0 L 166.7 38.6 L 168.1 36.3 L 168.2199999809265 36.1 L 32.94761905670166 36.1 L 33.0 38.3 L 32.7 42.3 L 32.0 46.1 L 30.8 49.6 L 29.1 52.9 L 27.0 56.0 L 24.4 58.7 L 21.3 61.0 L 16.8 61.2 Z " />
</g>
</svg>
