<svg xmlns="http://www.w3.org/2000/svg" xmlns:xlink="http://www.w3.org/1999/xlink" version="1.1" baseProfile="full" viewBox="0 0 200 200" width="200" height="200">
<g fill="black">
<path d="M 92.4 123.0 L 93.8 126.4 L 90.2555555343628 126.21666669845581 L 89.0 128.1 L 85.4 133.1 L 83.81428575515747 135.2 L 163.0 135.2 L 173.0 125.2 L 185.0 135.2 L 185.0 139.2 L 141.6 139.2 L 141.5 139.4 L 136.4 148.9 L 129.6 157.3 L 121.24424571990967 164.66102170944214 L 128.0 166.0 L 138.7 168.5 L 149.1 171.1 L 159.3 173.9 L 169.1 176.9 L 172.5 179.9 L 172.8 184.5 L 169.7 187.9 L 165.1 188.2 L 155.8 184.7 L 146.1 181.4 L 136.1 178.1 L 125.7 175.0 L 115.0 172.0 L 111.38290786743164 171.0464030265808 L 111.3 171.1 L 99.9 176.4 L 87.1 180.7 L 72.8 184.1 L 57.0 186.5 L 39.7 187.9 L 21.0 188.2 L 20.9 186.4 L 39.4 184.1 L 56.2 181.2 L 71.3 177.7 L 84.8 173.5 L 96.5 168.6 L 98.21442003250122 167.66640491485595 L 92.7 166.3 L 81.0 163.6 L 69.1 160.8 L 62.49191169738769 159.24199542999267 L 61.0 160.7 L 56.5 164.9 L 51.9 169.1 L 44.0 160.0 L 48.5 156.1 L 52.7 152.1 L 56.9 148.0 L 60.9 143.8 L 64.8 139.5 L 65.05909090042114 139.2 L 15.0 139.2 L 15.0 135.2 L 68.51363639831543 135.2 L 68.6 135.1 L 72.2 130.6 L 75.7 126.0 L 79.1 121.3 L 82.4 116.4 L 82.41289768218994 116.40851249694825 L 82.41875 116.4 L 53.0 116.4 L 53.0 119.4 L 41.0 125.4 L 41.0 56.8 L 53.0 62.8 L 83.81818180084228 62.8 L 85.7 61.0 L 87.7 58.5 L 89.6 56.1 L 91.5 53.8 L 93.3 51.5 L 95.0 49.3 L 96.5 47.1 L 99.5 42.9 L 100.28351354598999 41.634324359893796 L 100.1 41.5 L 100.85 40.6 L 32.14399995803833 40.6 L 32.2 43.4 L 31.9 48.2 L 31.1 52.6 L 30.0 56.7 L 28.4 60.5 L 26.3 64.1 L 23.7 67.2 L 20.6 69.9 L 16.1 70.5 L 12.4 67.9 L 11.7 63.4 L 14.4 59.7 L 16.4 58.6 L 18.3 57.2 L 20.2 55.4 L 21.9 53.0 L 23.6 50.1 L 25.0 46.6 L 26.3 42.6 L 27.5 38.0 L 28.5 33.0 L 29.1 27.4 L 30.9 27.4 L 31.6 33.0 L 31.933333301544188 36.6 L 94.0 36.6 L 94.0 12.4 L 106.0 14.4 L 109.0 16.4 L 106.0 18.2 L 106.0 36.6 L 171.0 36.6 L 171.55813951492308 36.13488368988037 L 171.8 35.5 L 172.09988803863524 35.68342666625976 L 177.0 31.6 L 188.0 40.6 L 183.0 43.6 L 178.85379314422607 45.32758617401123 L 178.5 45.7 L 176.5 47.9 L 172.0 52.4 L 169.5 54.8 L 166.8 57.3 L 163.9 59.8 L 160.7 62.4 L 159.730601978302 63.30685615539551 L 164.0 66.8 L 159.0 70.8 L 159.0 118.4 L 147.0 124.4 L 147.0 116.4 L 83.81095886230469 116.4 Z M 80.70425529479981 139.2 L 77.8 142.7 L 73.8 147.4 L 69.7 152.0 L 65.4 156.4 L 65.0858232498169 156.70703639984131 L 69.7 157.0 L 82.0 158.3 L 93.9 159.9 L 105.6 161.7 L 107.9015887260437 162.12772884368897 L 114.9 156.9 L 121.6 150.1 L 126.7 142.8 L 128.37142858505248 139.2 Z M 53.0 92.4 L 53.0 112.4 L 94.0 112.4 L 94.0 92.4 Z M 106.0 92.4 L 106.0 112.4 L 147.0 112.4 L 147.0 92.4 Z M 53.0 66.8 L 53.0 88.4 L 94.0 88.4 L 94.0 66.8 Z M 106.0 66.8 L 106.0 88.4 L 147.0 88.4 L 147.0 66.8 Z M 101.41445779800415 40.6 L 109.8 48.6 L 110.8 52.1 L 106.46683254241944 51.35290212631226 L 105.5 52.1 L 103.2 53.8 L 100.8 55.5 L 98.3 57.1 L 95.7 58.7 L 93.0 60.2 L 90.2 61.7 L 87.74615383148193 62.8 L 147.0 62.8 L 153.0 57.8 L 157.83851346969604 61.75878381729126 L 158.6 60.6 L 160.6 57.1 L 162.5 53.8 L 164.2 50.6 L 165.9 47.7 L 167.4 44.9 L 169.55 40.6 Z " />
</g>
</svg>
