<svg xmlns="http://www.w3.org/2000/svg" xmlns:xlink="http://www.w3.org/1999/xlink" version="1.1" baseProfile="full" viewBox="0 0 200 200" width="200" height="200">
<g fill="black">
<path d="M 167.0 163.9 L 165.2 165.4 L 163.2 166.8 L 161.2 168.0 L 159.0 169.0 L 156.7 169.8 L 154.3 170.3 L 151.9 170.6 L 149.5 170.7 L 149.5 164.7 L 137.5 161.7 L 137.5 158.7 L 149.5 158.7 L 152.3 158.5 L 153.5 158.2 L 154.7 157.8 L 155.7 157.3 L 156.8 156.7 L 157.7 156.0 L 158.7 155.2 L 159.6 154.2 L 160.5 153.1 L 161.1 152.1 L 161.8 150.6 L 162.5 148.4 L 163.1 145.7 L 163.7 142.5 L 164.1 138.7 L 164.5 134.5 L 164.8 129.8 L 164.9 124.6 L 164.96428575515748 121.0 L 106.0 121.0 L 106.0 181.2 L 94.0 187.2 L 94.0 132.3015151977539 L 89.3 137.5 L 82.2 144.2 L 74.7 150.4 L 66.6 156.0 L 58.1 161.0 L 49.2 165.4 L 39.8 169.2 L 29.9 172.2 L 19.6 174.6 L 19.1 172.8 L 28.6 168.7 L 37.6 164.2 L 46.2 159.5 L 54.2 154.5 L 61.7 149.0 L 68.8 143.2 L 75.3 136.9 L 81.4 130.2 L 87.0 123.1 L 88.38292684555054 121.0 L 47.050629711151124 121.0 L 44.3 129.4 L 31.0 131.3 L 47.8 80.2 L 55.65842695236206 88.05842695236205 L 66.3 86.4 L 80.8 84.0 L 94.0 81.84888887405396 L 94.0 56.5 L 106.0 58.5 L 109.0 60.5 L 106.0 62.3 L 106.0 79.57142858505249 L 106.9 79.4 L 118.6 77.0 L 129.4 74.5 L 139.3 71.9 L 148.1 69.2 L 156.1 66.4 L 163.0 63.5 L 163.75249795913697 65.35616149902344 L 172.2 72.8 L 172.4 75.9 L 168.46477632522584 74.23051118850708 L 167.5 74.6 L 159.7 77.2 L 151.1 79.5 L 141.6 81.6 L 131.3 83.6 L 120.2 85.3 L 108.1 86.9 L 106.0 87.12790699005127 L 106.0 117.0 L 165.0 117.0 L 171.0 112.0 L 182.0 121.0 L 177.0 124.0 L 176.91316928863526 124.03617944717408 L 176.9 124.8 L 176.8 130.3 L 176.5 135.4 L 176.1 140.0 L 175.5 144.3 L 174.8 148.1 L 174.0 151.6 L 173.0 154.7 L 171.8 157.6 L 170.2 160.2 L 168.7 162.1 Z M 81.4 89.4 L 66.7 90.2 L 57.0552921295166 90.44730024337768 L 48.36045341491699 117.0 L 94.0 117.0 L 94.0 88.39565219879151 Z M 18.1 63.8 L 16.7 59.4 L 18.8 55.3 L 20.7 54.0 L 22.4 52.5 L 24.0 50.9 L 25.5 48.9 L 26.8 46.7 L 27.9 44.3 L 28.9 41.5 L 29.1 40.7 L 29.1 37.2 L 29.894117641448975 37.2 L 30.3 34.9 L 30.3 31.2 L 32.1 31.0 L 32.9 34.7 L 33.508108139038086 37.2 L 93.0 37.2 L 93.0 12.7 L 105.0 14.7 L 108.0 16.7 L 105.0 18.5 L 105.0 37.2 L 167.6 37.2 L 168.36721315383912 36.560655784606936 L 168.7 35.8 L 169.01794023513793 36.01838312149048 L 173.6 32.2 L 184.6 41.2 L 179.6 44.2 L 174.63529415130614 46.26862745285034 L 173.7 47.1 L 171.7 48.9 L 169.6 50.9 L 167.2 53.0 L 164.7 55.3 L 161.9 57.7 L 158.8 60.1 L 155.9 63.0 L 154.5 61.9 L 156.8 58.5 L 158.7 55.0 L 160.5 51.9 L 162.1 48.9 L 163.6 46.2 L 165.0 43.7 L 166.2 41.4 L 166.29523811340331 41.2 L 34.2 41.2 L 34.3 41.9 L 34.4 45.5 L 34.1 48.9 L 33.4 52.3 L 32.3 55.5 L 30.8 58.7 L 28.9 61.6 L 26.6 64.4 L 22.2 65.8 Z " />
</g>
</svg>
