<svg xmlns="http://www.w3.org/2000/svg" xmlns:xlink="http://www.w3.org/1999/xlink" version="1.1" baseProfile="full" viewBox="0 0 200 200" width="200" height="200">
<g fill="black">
<path d="M 56.0 115.0 L 144.0 115.0 L 150.0 110.0 L 161.0 119.0 L 156.0 123.0 L 156.0 177.0 L 144.0 183.0 L 144.0 171.0 L 56.0 171.0 L 56.0 183.0 L 44.0 189.0 L 44.0 109.0 Z M 56.0 153.0 L 56.0 167.0 L 144.0 167.0 L 144.0 153.0 Z M 56.0 136.0 L 56.0 149.0 L 144.0 149.0 L 144.0 136.0 Z M 56.0 119.0 L 56.0 132.0 L 144.0 132.0 L 144.0 119.0 Z M 101.4 110.3 L 101.4 81.8 L 113.4 83.8 L 116.4 85.8 L 113.4 87.6 L 113.4 100.3 L 132.5 100.3 L 132.5 78.8 L 93.0 78.8 L 93.0 74.8 L 132.5 74.8 L 132.5 61.0 L 116.1 61.0 L 115.0 62.1 L 112.3 64.4 L 109.4 66.6 L 106.3 68.7 L 103.1 70.6 L 99.6 72.3 L 96.2 74.1 L 95.1 72.6 L 97.9 70.0 L 100.3 67.2 L 102.6 64.5 L 104.7 61.8 L 106.6 59.1 L 108.3 56.5 L 109.9 53.8 L 111.2 51.2 L 112.4 48.6 L 113.03285884857178 46.95456705093384 L 112.9 46.9 L 113.9 44.9 L 124.1 51.5 L 125.8 54.6 L 121.62070369720459 54.88822736740112 L 119.9 57.0 L 155.74642858505248 57.0 L 157.8 54.7 L 159.8 51.6 L 161.7 48.8 L 163.5 46.2 L 165.2 43.7 L 166.7 41.3 L 168.1 39.1 L 168.157142829895 39.0 L 32.94878044128418 39.0 L 33.0 41.1 L 32.7 45.1 L 31.9 48.8 L 30.8 52.3 L 29.1 55.6 L 28.819999980926514 56.0 L 80.77777776718139 56.0 L 87.0 49.0 L 95.0 56.0 L 95.0 60.0 L 64.0 60.0 L 64.0 76.4 L 69.0 76.4 L 79.0 66.4 L 91.0 76.4 L 91.0 80.4 L 64.0 80.4 L 64.0 95.28227844238282 L 68.9 94.6 L 76.9 93.5 L 85.2 92.4 L 93.7 91.5 L 94.2 93.3 L 86.1 96.1 L 78.1 98.7 L 70.2 101.0 L 62.6 103.1 L 55.0 105.1 L 47.7 107.0 L 40.5 108.7 L 33.4 110.3 L 26.6 111.8 L 23.907946014404295 112.36251878738403 L 22.3 115.9 L 19.9 113.2 L 16.0 101.7 L 18.0 101.4 L 24.7 100.6 L 31.6 99.7 L 38.6 98.8 L 45.9 97.8 L 52.0 96.98666667938232 L 52.0 80.4 L 26.0 80.4 L 26.0 76.4 L 52.0 76.4 L 52.0 60.0 L 25.651851844787597 60.0 L 24.4 61.3 L 21.3 63.5 L 16.7 63.8 L 13.3 60.8 L 13.0 56.3 L 16.0 52.8 L 17.9 52.1 L 19.8 51.1 L 21.6 49.8 L 23.2 48.0 L 24.8 45.9 L 26.3 43.2 L 27.5 40.1 L 28.7 36.6 L 29.7 32.5 L 30.1 28.1 L 31.9 28.0 L 32.4 32.6 L 32.672727298736575 35.0 L 94.0 35.0 L 94.0 12.5 L 106.0 14.5 L 109.0 16.5 L 106.0 18.3 L 106.0 35.0 L 170.0 35.0 L 170.63157892227173 34.47368421554565 L 171.2 33.4 L 171.57706727981568 33.685777282714845 L 176.0 30.0 L 187.0 39.0 L 182.0 42.0 L 176.41739130020142 44.32608699798584 L 175.2 45.3 L 173.0 47.1 L 170.7 48.8 L 168.3084337234497 50.61759033203125 L 175.4 57.0 L 175.4 61.0 L 144.5 61.0 L 144.5 74.8 L 165.71818180084227 74.8 L 173.9 65.8 L 183.9 74.8 L 183.9 78.8 L 144.5 78.8 L 144.5 100.3 L 163.5 100.3 L 163.5 81.8 L 175.5 83.8 L 178.5 85.8 L 175.5 87.6 L 175.5 106.3 L 163.5 112.3 L 163.5 104.3 L 113.4 104.3 Z " />
</g>
</svg>
