<svg xmlns="http://www.w3.org/2000/svg" xmlns:xlink="http://www.w3.org/1999/xlink" version="1.1" baseProfile="full" viewBox="0 0 200 200" width="200" height="200">
<g fill="black">
<path d="M 156.7 182.1 L 148.4 177.7 L 140.7 172.6 L 134.98093605041504 167.69794521331787 L 127.6 172.5 L 118.5 177.1 L 108.8 180.8 L 98.3 183.5 L 87.2 185.2 L 86.9 183.5 L 97.3 179.8 L 106.8 175.8 L 115.6 171.2 L 123.5 166.1 L 129.04442977905273 161.6488380432129 L 127.4 159.9 L 121.8 152.5 L 117.0 144.4 L 113.0 135.6 L 110.375 127.2 L 95.8 127.2 L 95.8 123.2 L 154.8 123.2 L 160.8 118.2 L 171.8 127.2 L 166.8 130.2 L 164.590163898468 131.12076501846315 L 161.9 136.8 L 156.6 145.6 L 150.4 153.6 L 143.6 160.8 L 142.73011722564698 161.51172227859496 L 146.5 164.1 L 153.6 168.0 L 161.2 171.2 L 169.3 173.7 L 177.9 175.5 L 187.0 177.4 L 175.2 188.4 L 165.7 185.7 Z M 68.5 53.0 L 70.2 56.2 L 65.84093751907349 56.42546873092651 L 65.0 57.5 L 63.0 59.7 L 61.0 62.0 L 58.8 64.3 L 56.5 66.6 L 54.0 68.9 L 51.4 71.1 L 48.63181819915771 73.2 L 73.4 73.2 L 79.4 68.2 L 90.4 77.2 L 85.4 81.2 L 85.4 112.0 L 73.4 118.0 L 73.4 108.0 L 40.1 108.0 L 40.1 129.1 L 76.2 129.1 L 82.2 124.1 L 93.2 133.1 L 88.2 137.1 L 88.2 167.9 L 76.2 173.9 L 76.2 167.9 L 40.1 167.9 L 40.1 179.9 L 28.1 185.9 L 28.1 67.2 L 40.1 73.2 L 45.43333330154419 73.2 L 46.5 71.6 L 48.1 68.5 L 49.7 65.5 L 51.2 62.6 L 53.9 57.2 L 55.1 54.6 L 56.1 52.1 L 57.1 49.7 L 57.59274768829346 48.28335037231445 L 57.4 48.2 L 58.5 46.3 Z M 40.1 133.1 L 40.1 163.9 L 76.2 163.9 L 76.2 133.1 Z M 112.85357141494751 127.2 L 116.8 133.7 L 122.0 141.3 L 127.6 148.1 L 133.5 154.2 L 135.37325296401977 155.77591123580933 L 137.0 154.2 L 142.6 147.3 L 147.5 139.9 L 151.7 131.8 L 153.52954549789428 127.2 Z M 167.8 108.4 L 166.6 105.8 L 165.2 103.2 L 164.6132703781128 102.18300199508667 L 161.2 103.1 L 154.3 104.7 L 147.3 106.2 L 140.1 107.6 L 132.9 108.9 L 125.5 110.3 L 118.0 111.6 L 110.3 112.9 L 102.6 114.3 L 98.78620691299439 114.92758617401122 L 97.1 118.3 L 94.7 115.6 L 91.1 104.0 L 93.1 103.7 L 101.1 103.0 L 109.0 102.3 L 114.95622119903564 101.75852537155151 L 119.0 98.2 L 123.8 93.9 L 128.5 89.5 L 132.9 85.1 L 137.2 80.6 L 141.2 76.0 L 144.9 71.4 L 148.5 66.6 L 151.8 61.8 L 151.84690523147583 61.834332656860354 L 152.3 61.2 L 161.5 68.9 L 162.7 72.3 L 158.92723989486694 71.97476205825805 L 157.4 73.8 L 153.0 78.5 L 148.4 83.0 L 143.6 87.3 L 138.6 91.4 L 133.3 95.4 L 127.8 99.1 L 124.75512819290161 100.96965808868408 L 131.8 100.5 L 139.2 100.0 L 146.5 99.7 L 153.7 99.4 L 160.7 99.4 L 162.98556032180787 99.46530170440674 L 162.0 97.9 L 160.2 95.2 L 158.3 92.5 L 156.3 89.6 L 154.0 87.0 L 155.1 85.6 L 158.1 87.6 L 161.2 89.4 L 164.2 91.3 L 166.9 93.4 L 169.5 95.6 L 172.0 97.9 L 174.3 100.3 L 176.5 102.7 L 178.6 105.3 L 180.5 107.9 L 180.8 112.4 L 178.0 116.0 L 173.4 116.3 L 169.9 113.5 L 168.9 110.9 Z M 40.1 77.2 L 40.1 104.0 L 73.4 104.0 L 73.4 77.2 Z M 118.9 84.1 L 117.2 82.3 L 115.2 80.4 L 112.9 78.5 L 110.4 76.5 L 107.7 74.5 L 104.8 72.3 L 101.7 70.1 L 98.2 68.1 L 98.9 66.5 L 102.7 67.6 L 106.6 68.5 L 110.2 69.5 L 113.6 70.7 L 114.13333330154418 70.88333330154418 L 114.5 70.5 L 116.4 67.9 L 120.0 62.9 L 121.7 60.4 L 124.9 55.4 L 126.3 52.9 L 128.41888885498048 48.66222219467163 L 128.3 48.6 L 129.4 46.9 L 139.0 54.2 L 140.4 57.5 L 136.13408765792846 57.4264497756958 L 134.6 59.1 L 132.2 61.4 L 129.8 63.6 L 127.3 65.6 L 124.7 67.6 L 122.0 69.4 L 119.1 71.1 L 117.31511487960816 72.02321643829346 L 119.8 73.1 L 122.6 74.4 L 125.2 75.8 L 127.7 77.3 L 130.0 78.8 L 131.8 83.0 L 130.2 87.3 L 126.0 89.1 L 121.7 87.5 L 120.4 85.8 Z M 13.3 60.5 L 13.0 55.9 L 16.0 52.5 L 17.9 51.8 L 19.8 50.8 L 21.6 49.4 L 23.2 47.7 L 24.8 45.6 L 26.3 42.9 L 27.5 39.8 L 28.7 36.3 L 29.7 32.3 L 30.1 27.8 L 31.9 27.7 L 32.4 32.3 L 32.672727298736575 34.7 L 94.0 34.7 L 94.0 12.2 L 106.0 14.2 L 109.0 16.2 L 106.0 18.0 L 106.0 34.7 L 170.0 34.7 L 170.63157892227173 34.173684215545656 L 171.2 33.1 L 171.57706727981568 33.38577728271484 L 176.0 29.7 L 187.0 38.7 L 182.0 41.7 L 176.50769233703613 43.9884614944458 L 175.2 45.1 L 173.0 46.8 L 170.7 48.5 L 168.2 50.4 L 165.5 52.3 L 162.7 54.2 L 159.6 56.2 L 156.6 58.5 L 155.3 57.2 L 157.8 54.3 L 159.8 51.3 L 161.7 48.5 L 163.5 45.8 L 165.2 43.4 L 166.7 41.0 L 168.1 38.8 L 168.157142829895 38.7 L 32.94878044128418 38.7 L 33.0 40.8 L 32.7 44.8 L 31.9 48.5 L 30.8 52.0 L 29.1 55.3 L 27.0 58.3 L 24.4 61.0 L 21.3 63.2 L 16.7 63.5 Z " />
</g>
</svg>
