<svg xmlns="http://www.w3.org/2000/svg" xmlns:xlink="http://www.w3.org/1999/xlink" version="1.1" baseProfile="full" viewBox="0 0 200 200" width="200" height="200">
<g fill="black">
<path d="M 80.05238094329835 164.55333337783813 L 81.5 166.2 L 81.6 169.8 L 78.05176553726196 168.2887149810791 L 76.4 169.3 L 71.4 172.1 L 66.2 174.8 L 61.0 177.2 L 55.6 179.5 L 50.0 181.7 L 44.4 183.6 L 38.6 185.2 L 32.6 186.6 L 26.5 187.6 L 26.0 185.9 L 31.4 183.0 L 36.7 180.2 L 41.9 177.5 L 46.9 174.7 L 51.8 171.9 L 56.6 169.0 L 61.3 166.0 L 65.8 163.0 L 70.1 159.8 L 73.51453866958619 157.11714820861818 L 73.5 157.1 L 73.51485605239868 157.11689882278444 L 74.3 156.5 Z M 153.5 180.0 L 150.4 177.6 L 147.0 175.2 L 143.4 172.8 L 139.4 170.4 L 135.2 168.0 L 130.8 165.6 L 126.0 163.1 L 121.0 160.5 L 121.6 158.8 L 127.2 159.7 L 132.6 160.8 L 137.7 162.1 L 142.5 163.6 L 147.1 165.3 L 151.5 167.2 L 155.6 169.1 L 159.5 171.3 L 163.2 173.5 L 166.7 175.9 L 168.6 180.1 L 167.2 184.4 L 163.1 186.4 L 158.8 185.0 L 156.3 182.5 Z M 68.57210683822632 61.39720220565796 L 75.4 68.0 L 75.6 71.3 L 71.75621557235718 69.7876914024353 L 69.3 70.7 L 65.9 71.9 L 62.5 72.9 L 59.1 73.8 L 55.7 74.6 L 52.3 75.2 L 49.0 75.6 L 45.6 75.9 L 42.3 75.9 L 42.128598594665526 75.90519399642945 L 42.90246000289917 97.6 L 59.577777767181395 97.6 L 65.8 90.6 L 73.8 97.6 L 73.8 101.6 L 43.04514141082764 101.6 L 43.82988929748535 123.6 L 56.61818180084229 123.6 L 64.8 114.6 L 74.8 123.6 L 74.8 127.6 L 43.972570705413816 127.6 L 44.828659248352054 151.6 L 79.71043252944946 151.6 L 85.5 114.3 L 97.0 118.1 L 99.7 120.5 L 96.46753358840942 121.53682889938355 L 91.80985918045045 151.6 L 107.68918914794922 151.6 L 112.21081085205078 103.8 L 95.08474578857422 103.8 L 95.0 104.5 L 82.4 109.0 L 88.3 59.8 L 100.0 63.2 L 102.7 65.5 L 99.59127140045166 66.57609834671021 L 98.78934621810913 73.2 L 113.8777777671814 73.2 L 120.1 66.2 L 128.1 73.2 L 128.1 77.2 L 98.30508470535278 77.2 L 95.56900730133057 99.8 L 112.4 99.8 L 118.4 94.8 L 129.4 103.8 L 124.4 106.8 L 123.05899085998536 107.35875377655029 L 119.74960632324219 151.6 L 157.09594097137452 151.6 L 158.2472324371338 127.6 L 132.0 127.6 L 132.0 123.6 L 158.43911437988282 123.6 L 159.52804431915283 100.9 L 133.9 100.9 L 133.9 96.9 L 159.71992616653444 96.9 L 160.8040590286255 74.3 L 134.9 74.3 L 134.9 70.3 L 160.9 70.3 L 166.9 65.3 L 177.9 74.3 L 172.9 77.3 L 171.73805713653564 77.78414287567139 L 169.07222909927367 151.6 L 173.0777777671814 151.6 L 179.3 144.6 L 187.3 151.6 L 187.3 155.6 L 15.6 155.6 L 15.6 151.6 L 32.82753620147705 151.6 L 29.9 70.8 L 42.0 72.3 L 42.659055137634276 72.70393705368042 L 44.6 71.7 L 47.4 70.3 L 50.3 68.8 L 53.1 67.3 L 56.0 65.7 L 58.8 64.1 L 61.6 62.4 L 66.38072528839112 59.326676559448245 L 66.3 59.2 L 66.41092147827149 59.307264709472655 L 67.2 58.8 Z M 13.3 62.5 L 13.0 57.9 L 15.9 54.4 L 17.9 53.6 L 19.7 52.6 L 21.5 51.2 L 23.2 49.4 L 24.8 47.1 L 26.2 44.3 L 27.5 41.1 L 28.6 37.4 L 29.6 33.2 L 30.1 28.6 L 31.9 28.5 L 32.4 33.3 L 32.73333330154419 35.8 L 94.0 35.8 L 94.0 12.6 L 106.0 14.6 L 109.0 16.6 L 106.0 18.4 L 106.0 35.8 L 170.0 35.8 L 170.68823528289795 35.2264705657959 L 171.1 34.3 L 171.4726674079895 34.57277717590332 L 176.0 30.8 L 187.0 39.8 L 182.0 42.8 L 176.7384614944458 44.99230766296387 L 175.2 46.3 L 173.1 48.1 L 168.3 51.9 L 165.6 53.9 L 162.7 55.9 L 159.6 58.0 L 156.6 60.4 L 155.3 59.1 L 157.8 56.1 L 159.8 53.0 L 161.7 50.1 L 163.5 47.4 L 165.2 44.9 L 166.7 42.4 L 168.0 40.2 L 168.2285714149475 39.8 L 33.0 39.8 L 33.0 42.1 L 32.7 46.1 L 32.0 49.9 L 30.8 53.6 L 29.2 56.9 L 27.0 60.0 L 24.4 62.7 L 21.4 65.1 L 16.8 65.4 Z " />
</g>
</svg>
