<svg xmlns="http://www.w3.org/2000/svg" xmlns:xlink="http://www.w3.org/1999/xlink" version="1.1" baseProfile="full" viewBox="0 0 200 200" width="200" height="200">
<g fill="black">
<path d="M 182.8 152.0 L 184.8 152.0 L 182.8 177.0 L 186.4 179.4 L 188.8 183.0 L 186.4 186.6 L 182.8 189.0 L 141.6 189.0 L 139.0 188.8 L 136.5 188.4 L 134.1 187.6 L 131.8 186.4 L 129.8 184.7 L 128.2 182.7 L 126.9 180.4 L 126.1 178.0 L 125.7 175.5 L 125.6 173.0 L 125.6 141.8 L 101.4 141.8 L 101.4 153.8 L 89.4 159.8 L 89.4 103.3 L 101.4 105.3 L 104.4 107.3 L 101.4 109.1 L 101.4 137.8 L 125.6 137.8 L 125.6 89.56634616851807 L 121.5 90.0 L 110.6 90.8 L 99.3 91.5 L 87.5 92.0 L 75.4 92.1 L 75.2 90.3 L 87.2 88.2 L 98.7 86.2 L 109.8 84.3 L 120.4 82.4 L 125.6 81.44077672958375 L 125.6 57.1 L 137.6 59.1 L 140.6 61.1 L 137.6 62.9 L 137.6 79.16224489212036 L 140.5 78.6 L 149.9 76.6 L 158.8 74.5 L 167.3 72.4 L 174.42171211242675 70.46570777893066 L 174.4 70.4 L 174.46471958160402 70.45402679443359 L 175.4 70.2 L 175.70946407318115 71.49311790466308 L 185.9 80.0 L 186.2 83.0 L 181.9636248588562 80.97131338119507 L 178.2 81.9 L 169.8 83.5 L 160.9 85.0 L 151.7 86.4 L 142.0 87.7 L 137.6 88.22277231216431 L 137.6 137.8 L 162.7 137.8 L 162.7 103.3 L 174.7 105.3 L 177.7 107.3 L 174.7 109.1 L 174.7 147.8 L 162.7 153.8 L 162.7 141.8 L 137.6 141.8 L 137.6 174.2 L 137.8 175.1 L 138.0 175.7 L 138.2 176.1 L 138.5 176.4 L 138.8 176.6 L 139.4 176.8 L 140.3 176.9 L 141.6 177.0 L 176.8 177.0 Z M 15.5 158.4 L 20.6 157.3 L 25.9 156.2 L 31.5 154.8 L 37.5 153.4 L 40.8 152.54838705062866 L 40.8 102.4 L 16.1 102.4 L 16.1 98.4 L 40.8 98.4 L 40.8 61.1 L 52.8 63.1 L 55.8 65.1 L 52.8 66.9 L 52.8 98.4 L 57.2 98.4 L 67.2 88.4 L 79.2 98.4 L 79.2 102.4 L 52.8 102.4 L 52.8 149.53823528289794 L 57.1 148.4 L 71.9 144.7 L 79.8 143.0 L 80.4 144.6 L 73.1 148.3 L 66.1 151.6 L 59.3 154.6 L 52.7 157.4 L 46.3 159.9 L 40.2 162.3 L 34.4 164.5 L 28.9 166.5 L 23.6 168.3 L 22.517112255096436 168.6681818008423 L 21.2 172.4 L 18.6 170.0 L 13.6 158.9 Z M 16.7 67.2 L 15.2 62.9 L 17.1 58.7 L 19.2 57.2 L 21.0 55.5 L 22.7 53.6 L 24.2 51.4 L 25.6 48.9 L 26.7 46.1 L 27.7 42.9 L 28.0 41.625 L 28.0 38.5 L 28.657894706726076 38.5 L 29.1 35.7 L 29.2 31.7 L 31.0 31.5 L 31.9 35.6 L 32.5692307472229 38.5 L 94.0 38.5 L 94.0 11.7 L 106.0 13.7 L 109.0 15.7 L 106.0 17.5 L 106.0 38.5 L 171.0 38.5 L 171.58356161117553 38.01369867324829 L 171.9 37.2 L 172.27240219116212 37.43966484069824 L 177.0 33.5 L 188.0 42.5 L 183.0 45.5 L 178.25217390060425 47.47826089859009 L 177.0 48.8 L 172.8 53.0 L 170.4 55.3 L 167.7 57.9 L 164.9 60.5 L 161.7 63.3 L 158.7 66.4 L 157.2 65.3 L 159.6 61.6 L 161.5 57.9 L 163.4 54.5 L 165.1 51.3 L 166.6 48.4 L 168.0 45.7 L 169.3 43.2 L 169.61818180084228 42.5 L 33.18461542129516 42.5 L 33.3 43.4 L 33.3 47.2 L 33.0 51.0 L 32.3 54.6 L 31.1 58.1 L 29.6 61.4 L 27.6 64.6 L 25.2 67.6 L 20.9 69.1 Z " />
</g>
</svg>
