<svg xmlns="http://www.w3.org/2000/svg" xmlns:xlink="http://www.w3.org/1999/xlink" version="1.1" baseProfile="full" viewBox="0 0 200 200" width="200" height="200">
<g fill="black">
<path d="M 65.1 164.5 L 63.9 161.9 L 62.4 159.2 L 60.5 156.3 L 58.3 153.3 L 55.8 150.2 L 53.1 146.9 L 50.1 143.5 L 49.76000003814697 143.16000003814696 L 48.9 146.6 L 46.0 154.8 L 42.3 162.3 L 37.8 169.2 L 32.7 175.4 L 26.8 180.8 L 20.1 185.4 L 12.9 189.1 L 11.9 187.6 L 17.9 182.3 L 23.1 176.9 L 27.6 171.2 L 31.5 165.1 L 34.7 158.5 L 37.3 151.6 L 39.2 144.1 L 40.5 136.1 L 41.2 127.6 L 41.2 57.9 L 53.2 59.9 L 56.2 61.9 L 53.2 63.7 L 53.2 101.69333333969116 L 56.1 98.6 L 59.0 95.6 L 61.7 92.8 L 64.3 90.1 L 66.7 87.5 L 68.9 85.1 L 71.0 82.8 L 72.28434190750122 81.38046417236328 L 72.2 81.3 L 73.1 80.5 L 80.9 89.6 L 81.4 93.2 L 77.38036813735962 91.97975463867188 L 75.7 93.1 L 72.9 95.0 L 69.9 96.9 L 66.7 99.0 L 63.3 101.1 L 59.7 103.2 L 55.9 105.4 L 53.2 106.88500003814697 L 53.2 118.6 L 52.5 128.5 L 51.1 137.8 L 50.48549222946167 140.2580310821533 L 51.9 141.1 L 56.0 143.5 L 59.8 145.9 L 63.2 148.4 L 66.4 151.0 L 69.2 153.6 L 71.8 156.3 L 74.1 159.0 L 76.1 161.8 L 77.8 164.7 L 77.6 169.3 L 74.4 172.5 L 69.8 172.4 L 66.6 169.1 L 66.0 166.9 Z M 77.1 179.9 L 127.0 179.9 L 127.0 152.7 L 85.5 152.7 L 85.5 148.7 L 127.0 148.7 L 127.0 127.0 L 139.0 129.0 L 142.0 131.0 L 139.0 132.8 L 139.0 148.7 L 158.4 148.7 L 168.4 138.7 L 180.4 148.7 L 180.4 152.7 L 139.0 152.7 L 139.0 179.9 L 166.9 179.9 L 176.9 169.9 L 188.9 179.9 L 188.9 183.9 L 77.1 183.9 Z M 96.9 134.1 L 84.9 140.1 L 84.9 81.5 L 96.9 87.5 L 112.9 87.5 L 112.9 69.0 L 78.8 69.0 L 78.8 65.0 L 165.1 65.0 L 175.1 55.0 L 187.1 65.0 L 187.1 69.0 L 153.0 69.0 L 153.0 87.5 L 169.0 87.5 L 175.0 82.5 L 186.0 91.5 L 181.0 95.5 L 181.0 128.1 L 169.0 134.1 L 169.0 122.1 L 96.9 122.1 Z M 15.7 129.4 L 13.6 125.3 L 14.9 121.0 L 16.7 119.1 L 18.3 117.0 L 19.7 114.6 L 21.0 111.8 L 22.0 108.6 L 22.9 105.0 L 23.5 101.1 L 23.9 96.8 L 24.1 92.2 L 23.9 87.2 L 25.6 86.8 L 27.1 91.7 L 28.5 96.4 L 29.3 101.0 L 29.8 105.4 L 29.9 109.7 L 29.6 113.8 L 28.9 117.8 L 27.8 121.6 L 26.2 125.2 L 24.1 128.6 L 20.1 130.7 Z M 96.9 91.5 L 96.9 118.1 L 112.9 118.1 L 112.9 91.5 Z M 124.9 91.5 L 124.9 118.1 L 141.0 118.1 L 141.0 91.5 Z M 153.0 91.5 L 153.0 118.1 L 169.0 118.1 L 169.0 91.5 Z M 124.9 69.0 L 124.9 87.5 L 141.0 87.5 L 141.0 69.0 Z M 32.7 40.5 L 32.4 44.9 L 31.7 49.0 L 30.5 52.9 L 29.0 56.5 L 26.9 59.8 L 24.4 62.8 L 21.3 65.3 L 16.8 65.8 L 13.1 63.1 L 12.6 58.6 L 15.3 54.9 L 17.3 54.0 L 19.1 52.8 L 20.9 51.1 L 22.6 49.0 L 24.2 46.4 L 25.7 43.2 L 27.0 39.6 L 28.1 35.4 L 29.1 30.8 L 29.6 25.6 L 31.4 25.6 L 32.1 30.8 L 32.410000038146975 33.9 L 93.5 33.9 L 93.5 11.5 L 105.5 13.5 L 108.5 15.5 L 105.5 17.3 L 105.5 33.9 L 169.3 33.9 L 169.9640000343323 33.34666662216186 L 170.3 32.6 L 170.6125 32.80625 L 175.3 28.9 L 186.3 37.9 L 181.3 40.9 L 176.842857170105 42.75714282989502 L 174.8 44.8 L 172.7 46.8 L 170.4 48.9 L 167.9 51.1 L 165.2 53.4 L 162.4 55.7 L 159.3 58.0 L 156.3 60.7 L 154.9 59.5 L 157.3 56.2 L 159.2 52.9 L 161.1 49.8 L 162.8 46.8 L 164.5 44.1 L 165.9 41.5 L 167.3 39.0 L 167.82608699798584 37.9 L 32.64468088150024 37.9 Z " />
</g>
</svg>
