<svg xmlns="http://www.w3.org/2000/svg" xmlns:xlink="http://www.w3.org/1999/xlink" version="1.1" baseProfile="full" viewBox="0 0 200 200" width="200" height="200">
<g fill="black">
<path d="M 14.4 166.5 L 13.3 162.0 L 15.5 158.0 L 17.6 156.6 L 19.6 154.6 L 21.5 152.1 L 23.3 148.8 L 25.0 144.9 L 26.4 140.4 L 27.7 135.3 L 28.9 129.6 L 29.9 123.2 L 30.8 116.3 L 32.6 116.2 L 33.6 123.3 L 33.98636360168457 128.4 L 94.0 128.4 L 94.0 93.6 L 106.0 95.6 L 109.0 97.6 L 106.0 99.4 L 106.0 128.4 L 169.2 128.4 L 169.70270271301268 127.98108110427856 L 169.8 127.7 L 169.9510489463806 127.77412586212158 L 175.2 123.4 L 186.2 132.4 L 181.2 135.4 L 178.017142868042 136.72619047164918 L 177.1 138.0 L 175.1 140.8 L 173.0 143.6 L 170.7 146.5 L 168.1 149.6 L 165.4 152.8 L 162.5 156.1 L 159.3 159.5 L 156.1 163.1 L 154.6 162.1 L 156.8 157.8 L 158.7 153.6 L 160.5 149.7 L 162.3 145.9 L 163.9 142.4 L 165.4 139.1 L 166.7 135.9 L 167.9 133.0 L 168.12222223281861 132.4 L 34.140322589874266 132.4 L 34.2 136.1 L 33.8 141.8 L 33.1 147.1 L 32.0 152.0 L 30.4 156.6 L 28.4 160.7 L 25.9 164.4 L 22.8 167.6 L 18.4 168.7 Z M 66.4 69.9 L 65.1 66.8 L 63.5 63.8 L 61.6 60.7 L 59.5 57.6 L 57.1 54.6 L 54.5 51.5 L 51.6 48.3 L 49.15161294937134 46.0 L 44.93378381729126 46.0 L 42.9 50.3 L 38.9 57.4 L 34.5 64.3 L 29.7 70.9 L 24.5 77.2 L 18.8 83.1 L 12.6 88.6 L 11.3 87.3 L 15.9 80.6 L 20.2 73.9 L 24.3 67.2 L 28.0 60.4 L 31.4 53.5 L 34.4 46.4 L 37.1 39.2 L 39.4 31.8 L 41.3 24.3 L 42.9 16.6 L 42.91363639831543 16.603030300140382 L 43.3 14.8 L 54.6 19.2 L 57.1 21.8 L 53.50953207015991 23.040343475341796 L 52.3 27.3 L 49.5 35.2 L 46.76233768463135 42.0 L 84.0 42.0 L 94.0 32.0 L 106.0 42.0 L 106.0 46.0 L 53.78095235824585 46.0 L 57.4 47.9 L 61.1 50.2 L 64.5 52.8 L 67.7 55.5 L 70.6 58.5 L 73.3 61.6 L 75.7 65.0 L 77.8 68.5 L 79.6 72.1 L 79.3 76.7 L 75.9 79.8 L 71.4 79.5 L 68.3 76.1 L 67.5 73.0 Z M 145.4 69.9 L 144.1 66.8 L 142.5 63.8 L 140.6 60.7 L 138.5 57.6 L 136.1 54.6 L 133.5 51.5 L 130.6 48.3 L 128.15161294937133 46.0 L 123.39428567886353 46.0 L 121.8 49.1 L 117.8 55.8 L 113.5 62.1 L 108.7 68.1 L 103.4 73.8 L 97.7 78.9 L 91.6 83.6 L 90.3 82.3 L 95.0 76.3 L 99.3 70.3 L 103.4 64.2 L 107.1 58.0 L 110.5 51.6 L 113.5 45.0 L 116.1 38.2 L 118.4 31.3 L 120.3 24.0 L 121.9 16.6 L 121.91363639831543 16.603030300140382 L 122.3 14.8 L 133.6 19.2 L 136.1 21.9 L 132.49016227722169 23.06030492782593 L 131.3 27.2 L 128.5 34.8 L 125.44246578216553 42.0 L 164.0 42.0 L 174.0 32.0 L 186.0 42.0 L 186.0 46.0 L 132.78095235824586 46.0 L 136.4 47.9 L 140.1 50.2 L 143.5 52.8 L 146.7 55.5 L 149.6 58.5 L 152.3 61.6 L 154.7 65.0 L 156.8 68.5 L 158.6 72.1 L 158.3 76.7 L 154.9 79.8 L 150.4 79.5 L 147.3 76.1 L 146.5 73.0 Z " />
</g>
</svg>
