<svg xmlns="http://www.w3.org/2000/svg" xmlns:xlink="http://www.w3.org/1999/xlink" version="1.1" baseProfile="full" viewBox="0 0 200 200" width="200" height="200">
<g fill="black">
<path d="M 143.0 181.0 L 128.6 176.0 L 115.4 170.0 L 103.4 163.0 L 99.8291121482849 160.3548978805542 L 93.1 164.9 L 80.7 171.6 L 67.1 177.3 L 52.5 182.1 L 36.9 185.8 L 20.1 188.5 L 19.8 186.7 L 35.9 182.2 L 50.9 177.0 L 64.6 171.2 L 77.2 164.8 L 88.5 157.7 L 92.34427642822266 154.76025915145874 L 83.0 146.0 L 74.8 136.1 L 67.9 125.3 L 62.6 113.5 L 64.2 112.7 L 71.4 123.0 L 79.3 132.4 L 88.0 140.8 L 97.6 148.4 L 99.22732391357422 149.41323947906494 L 107.8 141.5 L 115.7 132.3 L 122.4 122.5 L 128.1 111.9 L 128.13999996185302 111.91999998092652 L 128.7 110.8 L 138.9 117.3 L 140.6 120.4 L 136.82680711746215 120.72527523040772 L 132.0 128.7 L 124.0 139.1 L 114.8 148.6 L 107.58987054824829 154.620108127594 L 108.2 155.0 L 119.8 160.7 L 132.4 165.6 L 146.1 169.6 L 160.9 172.7 L 176.8 174.9 L 187.0 176.2 L 175.1 188.0 L 158.5 185.0 Z M 134.4 101.5 L 125.4 96.3 L 116.0 91.3 L 110.13887243270874 88.45824117660523 L 105.4 91.0 L 93.8 96.3 L 81.8 101.2 L 69.2 105.5 L 56.0 109.2 L 42.3 112.2 L 28.1 114.6 L 27.8 112.8 L 41.4 108.6 L 54.5 104.1 L 66.9 99.3 L 78.9 94.2 L 90.2 88.7 L 99.65949163436889 83.53231477737427 L 95.9 81.8 L 85.2 77.2 L 74.1 72.8 L 62.6 68.4 L 50.7 64.0 L 51.1 62.3 L 63.7 64.8 L 75.7 67.7 L 87.4 71.0 L 98.6 74.7 L 108.28677911758423 78.25478134155273 L 111.1 76.5 L 120.7 69.8 L 129.8 62.7 L 138.2 55.2 L 138.23862066268921 55.24344825744629 L 138.4 55.1 L 146.2 64.2 L 146.7 67.8 L 143.12729120254517 66.65162935256959 L 136.8 71.7 L 126.9 78.6 L 119.93131093978882 82.91395044326782 L 130.0 87.4 L 139.6 92.1 L 148.9 97.2 L 157.8 102.4 L 160.3 106.3 L 159.4 110.8 L 155.6 113.3 L 151.1 112.4 L 143.0 106.9 Z M 13.4 72.3 L 12.7 67.8 L 15.3 64.0 L 17.3 63.0 L 19.2 61.5 L 21.1 59.6 L 22.9 57.1 L 24.5 54.1 L 26.0 50.6 L 27.3 46.4 L 28.4 41.8 L 29.4 36.6 L 30.1 30.9 L 31.9 30.9 L 32.6 36.7 L 33.00363636016846 40.4 L 94.0 40.4 L 94.0 11.9 L 106.0 13.9 L 109.0 15.9 L 106.0 17.7 L 106.0 40.4 L 170.0 40.4 L 170.5310344696045 39.95747127532959 L 170.8 39.3 L 171.1019165992737 39.481736183166504 L 176.0 35.4 L 187.0 44.4 L 182.0 47.4 L 178.08888893127443 49.02962961196899 L 177.6 49.6 L 175.5 51.7 L 173.4 54.0 L 171.0 56.4 L 168.5 58.8 L 165.8 61.4 L 162.9 64.0 L 159.7 66.7 L 156.6 69.6 L 155.3 68.5 L 157.6 64.9 L 159.5 61.3 L 161.4 57.9 L 163.2 54.7 L 164.9 51.7 L 166.4 48.9 L 167.7 46.3 L 168.6119999885559 44.4 L 33.2 44.4 L 33.2 47.3 L 32.9 52.1 L 32.2 56.6 L 31.0 60.8 L 29.4 64.7 L 27.4 68.3 L 24.8 71.5 L 21.7 74.2 L 17.2 74.9 Z " />
</g>
</svg>
