<svg xmlns="http://www.w3.org/2000/svg" xmlns:xlink="http://www.w3.org/1999/xlink" version="1.1" baseProfile="full" viewBox="0 0 200 200" width="200" height="200">
<g fill="black">
<path d="M 53.5 161.6 L 55.2 164.8 L 51.19456224441528 165.00717782974243 L 48.7 168.3 L 46.0 171.6 L 43.1 174.7 L 40.0 177.6 L 36.7 180.5 L 33.2 183.3 L 29.5 185.9 L 25.4 188.2 L 21.3 190.6 L 20.2 189.2 L 23.4 185.7 L 26.3 182.3 L 29.0 178.9 L 31.6 175.6 L 33.9 172.3 L 36.1 169.0 L 38.1 165.8 L 39.9 162.5 L 41.5 159.3 L 42.429421710968015 157.01219272613525 L 42.4 157.0 L 42.58333330154419 156.63333330154418 L 42.8 156.1 L 42.83977699279785 156.12044610977173 L 43.4 155.0 Z M 78.6 180.9 L 77.1 178.1 L 75.4 175.3 L 73.5 172.5 L 71.4 169.7 L 69.1 166.9 L 66.7 164.1 L 64.1 161.1 L 61.1 158.4 L 62.1 156.9 L 69.5 160.5 L 72.9 162.6 L 76.1 164.8 L 79.2 167.1 L 82.1 169.6 L 84.7 172.3 L 87.3 175.1 L 89.6 178.0 L 91.7 181.1 L 92.1 185.6 L 89.1 189.2 L 84.6 189.5 L 81.1 186.6 L 79.9 183.8 Z M 148.0 141.7 L 150.9 143.7 L 147.9584210395813 144.87663154602052 L 147.82068061828613 155.4 L 154.8 155.4 L 164.8 145.4 L 176.8 155.4 L 176.8 159.4 L 147.76832456588744 159.4 L 147.52617797851562 177.9 L 164.7 177.9 L 174.7 167.9 L 186.7 177.9 L 186.7 181.9 L 96.2 181.9 L 96.2 177.9 L 135.5247525215149 177.9 L 135.75371284484862 159.4 L 104.6 159.4 L 104.6 155.4 L 135.803217792511 155.4 L 136.0 139.5 Z M 12.0 62.4 L 10.3 58.2 L 12.0 54.0 L 12.8 53.7 L 13.7 52.8 L 14.8 51.4 L 15.9 49.5 L 16.9 47.0 L 17.9 44.1 L 18.8 40.8 L 19.6 37.0 L 20.5 32.9 L 20.9 28.3 L 22.7 28.2 L 23.1 32.9 L 23.506976699829103 35.4 L 51.0 35.4 L 51.0 12.5 L 63.0 14.5 L 66.0 16.5 L 63.0 18.3 L 63.0 35.4 L 89.7 35.4 L 95.7 30.4 L 106.7 39.4 L 101.7 42.4 L 98.3307692527771 43.803846168518064 L 97.8 44.6 L 96.4 46.5 L 94.9 48.4 L 93.4 50.4 L 91.7 52.5 L 89.9 54.7 L 87.9 56.9 L 87.23174228668213 57.94415273666382 L 89.5 59.8 L 84.5 63.8 L 84.5 147.9 L 72.5 153.9 L 72.5 147.9 L 40.4 147.9 L 40.4 150.9 L 28.4 156.9 L 28.4 49.8 L 40.4 55.8 L 72.5 55.8 L 78.5 50.8 L 85.56538457870484 56.5807692527771 L 85.9 55.8 L 86.5 52.9 L 87.1 50.2 L 87.8 47.7 L 88.3 45.3 L 88.8 43.0 L 89.2 40.8 L 89.48000001907349 39.4 L 24.019999980926514 39.4 L 24.2 41.2 L 24.4 45.0 L 24.4 48.4 L 24.2 51.6 L 23.7 54.6 L 23.0 57.4 L 22.0 60.0 L 20.5 62.5 L 16.2 64.2 Z M 40.4 117.3 L 40.4 143.9 L 72.5 143.9 L 72.5 117.3 Z M 165.4 135.9 L 160.0 131.7 L 156.18073558807373 127.7994746208191 L 151.0 131.5 L 144.2 135.3 L 136.8 138.3 L 128.8 140.6 L 128.2 138.9 L 135.1 134.9 L 141.5 130.6 L 147.2 126.2 L 151.4341959953308 122.13517179489136 L 151.0 121.6 L 147.4 115.8 L 144.4 109.5 L 141.9 102.8 L 140.2 95.6 L 139.3947368621826 88.8 L 132.1 88.8 L 132.1 84.8 L 169.8 84.8 L 175.8 79.8 L 186.8 88.8 L 181.8 91.8 L 180.33608751296998 92.40996351242066 L 179.2 96.0 L 176.2 103.3 L 172.4 110.1 L 168.0 116.3 L 164.052756690979 120.7998574256897 L 166.9 123.0 L 171.7 126.0 L 176.8 128.4 L 182.3 130.4 L 189.1 133.0 L 177.6 142.8 L 171.2 139.7 Z M 96.9 122.5 L 99.1 122.32399997711181 L 99.1 86.2 L 110.1 88.2 L 112.8 90.2 L 110.1 91.92340421676636 L 110.1 120.91666669845581 L 112.0 120.6 L 115.9 120.0 L 117.8 119.72857141494751 L 117.8 80.6 L 128.8 82.6 L 131.5 84.6 L 128.8 86.32340421676636 L 128.8 118.175 L 129.4 118.1 L 134.4 117.2 L 135.0 118.9 L 130.3 121.0 L 128.8 121.71590909957885 L 128.8 137.0 L 117.8 142.5 L 117.8 126.74324321746826 L 114.2 128.3 L 110.8 129.7 L 107.6 131.0 L 104.7 132.2 L 103.79200506210327 132.53629446029663 L 102.2 136.7 L 99.6 134.2 L 95.0 122.9 Z M 141.57313432693482 88.8 L 144.2 94.3 L 147.4 100.5 L 150.8 106.1 L 154.4 111.2 L 157.59481134414673 114.88632078170777 L 160.4 110.9 L 163.7 105.2 L 166.3 99.0 L 168.4 92.5 L 169.20434780120848 88.8 Z M 40.4 88.6 L 40.4 113.3 L 72.5 113.3 L 72.5 88.6 Z M 40.4 59.8 L 40.4 84.6 L 72.5 84.6 L 72.5 59.8 Z M 147.0 39.7 L 150.0 41.7 L 147.0 43.5 L 147.0 57.2 L 152.3 57.2 L 156.8 51.2 L 162.8 57.2 L 162.8 61.2 L 147.0 61.2 L 147.0 76.8 L 135.0 82.8 L 135.0 61.2 L 120.2 61.2 L 120.2 57.2 L 135.0 57.2 L 135.0 37.7 Z M 171.4 62.9 L 168.0 59.1 L 165.0 55.0 L 162.3 50.7 L 160.0 46.1 L 157.9 41.2 L 156.3 36.0 L 155.1 30.6 L 154.49824562072754 25.7 L 126.4 25.7 L 126.4 21.7 L 144.37777776718139 21.7 L 150.6 14.7 L 158.6 21.7 L 158.6 25.7 L 156.842857170105 25.7 L 158.9 29.3 L 161.6 33.8 L 164.3 38.0 L 167.0 41.9 L 169.9 45.4 L 172.9 48.6 L 176.0 51.5 L 179.2 54.1 L 182.6 56.3 L 186.1 58.3 L 190.1 60.9 L 179.0 69.5 L 175.1 66.3 Z M 128.7 31.1 L 131.0 33.9 L 127.22299232482911 34.82768611907959 L 126.6 36.4 L 124.2 41.4 L 121.6 46.1 L 118.7 50.5 L 115.6 54.6 L 112.2 58.4 L 108.6 61.8 L 104.7 64.8 L 100.6 67.3 L 96.2 69.3 L 95.2 67.9 L 98.3 64.4 L 101.2 60.9 L 103.9 57.4 L 106.4 53.7 L 108.7 49.8 L 110.8 45.8 L 112.7 41.6 L 114.4 37.1 L 115.9 32.5 L 116.95784311294555 28.512745094299316 L 116.9 28.5 L 117.7 26.0 Z " />
</g>
</svg>
