<svg xmlns="http://www.w3.org/2000/svg" xmlns:xlink="http://www.w3.org/1999/xlink" version="1.1" baseProfile="full" viewBox="0 0 200 200" width="200" height="200">
<g fill="black">
<path d="M 87.6 151.8 L 88.4 155.3 L 84.6642008781433 154.44797563552856 L 82.5 156.4 L 77.1 160.8 L 71.2 165.1 L 65.1 169.1 L 58.6 173.0 L 51.7 176.6 L 44.4 180.1 L 36.8 183.3 L 28.7 186.2 L 20.3 188.8 L 19.6 187.1 L 27.2 182.8 L 34.4 178.5 L 41.3 174.3 L 47.9 170.1 L 54.0 165.8 L 59.8 161.5 L 65.1 157.1 L 70.1 152.6 L 74.7 148.1 L 78.23501863479615 144.22831296920776 L 78.2 144.2 L 79.2 143.2 Z M 151.6 174.8 L 147.6 171.1 L 143.4 167.5 L 138.8 164.1 L 133.8 160.8 L 128.5 157.5 L 122.9 154.4 L 116.9 151.3 L 110.6 148.1 L 111.2 146.4 L 118.2 147.7 L 124.9 149.5 L 131.3 151.6 L 137.4 154.1 L 143.1 156.8 L 148.6 159.9 L 153.8 163.2 L 158.7 166.8 L 163.3 170.6 L 167.5 174.7 L 168.9 179.1 L 166.9 183.2 L 162.6 184.6 L 158.5 182.6 L 155.2 178.7 Z M 20.0 132.0 L 74.0 132.0 L 74.0 110.0 L 48.0 110.0 L 48.0 117.0 L 36.0 123.0 L 36.0 71.0 L 48.0 73.0 L 51.0 75.0 L 48.0 76.8 L 48.0 106.0 L 74.0 106.0 L 74.0 69.0 L 86.0 71.0 L 89.0 73.0 L 86.0 74.8 L 86.0 132.0 L 108.0 132.0 L 108.0 69.0 L 120.0 71.0 L 123.0 73.0 L 120.0 74.8 L 120.0 106.0 L 147.0 106.0 L 147.0 71.0 L 159.0 73.0 L 162.0 75.0 L 159.0 76.8 L 159.0 114.0 L 147.0 120.0 L 147.0 110.0 L 120.0 110.0 L 120.0 132.0 L 166.0 132.0 L 176.0 122.0 L 188.0 132.0 L 188.0 136.0 L 20.0 136.0 Z M 13.4 72.3 L 12.7 67.8 L 15.3 64.0 L 17.3 63.0 L 19.2 61.5 L 21.1 59.6 L 22.9 57.1 L 24.5 54.1 L 26.0 50.6 L 27.3 46.4 L 28.4 41.8 L 29.4 36.6 L 30.1 30.9 L 31.9 30.9 L 32.6 36.7 L 33.00363636016846 40.4 L 94.0 40.4 L 94.0 11.9 L 106.0 13.9 L 109.0 15.9 L 106.0 17.7 L 106.0 40.4 L 170.0 40.4 L 170.5310344696045 39.95747127532959 L 170.8 39.3 L 171.1019165992737 39.481736183166504 L 176.0 35.4 L 187.0 44.4 L 182.0 47.4 L 178.08888893127443 49.02962961196899 L 177.6 49.6 L 175.5 51.7 L 173.4 54.0 L 171.0 56.4 L 168.5 58.8 L 165.8 61.4 L 162.9 64.0 L 159.7 66.7 L 156.6 69.6 L 155.3 68.5 L 157.6 64.9 L 159.5 61.3 L 161.4 57.9 L 163.2 54.7 L 164.9 51.7 L 166.4 48.9 L 167.7 46.3 L 168.6119999885559 44.4 L 33.2 44.4 L 33.2 47.3 L 32.9 52.1 L 32.2 56.6 L 31.0 60.8 L 29.4 64.7 L 27.4 68.3 L 24.8 71.5 L 21.7 74.2 L 17.2 74.9 Z " />
</g>
</svg>
