<svg xmlns="http://www.w3.org/2000/svg" xmlns:xlink="http://www.w3.org/1999/xlink" version="1.1" baseProfile="full" viewBox="0 0 200 200" width="200" height="200">
<g fill="black">
<path d="M 167.7 161.0 L 168.2 164.6 L 164.53003301620484 163.35483264923096 L 160.7 166.2 L 153.5 171.0 L 145.9 175.4 L 138.1 179.2 L 130.0 182.6 L 121.6 185.5 L 113.0 187.9 L 104.1 189.8 L 94.9 191.0 L 85.5 191.6 L 85.3 189.8 L 94.2 187.3 L 102.8 184.6 L 111.0 181.6 L 119.0 178.4 L 126.6 174.8 L 133.9 170.9 L 140.8 166.7 L 147.5 162.1 L 153.8 157.2 L 159.1511957168579 152.55060043334962 L 159.1 152.5 L 160.0 151.8 Z M 27.1 60.4 L 24.5 63.2 L 21.4 65.6 L 16.9 66.0 L 13.3 63.2 L 12.9 58.6 L 15.8 55.1 L 17.7 54.2 L 19.6 53.1 L 21.4 51.6 L 23.1 49.7 L 24.7 47.2 L 26.2 44.3 L 27.5 40.9 L 28.6 37.0 L 29.6 32.6 L 30.1 27.7 L 31.9 27.7 L 32.5 32.6 L 32.79166669845581 35.4 L 94.0 35.4 L 94.0 11.1 L 106.0 13.1 L 109.0 15.1 L 106.0 16.9 L 106.0 35.4 L 170.0 35.4 L 170.6324324607849 34.87297296524048 L 171.0 34.0 L 171.37029705047607 34.25808582305908 L 176.0 30.4 L 187.0 39.4 L 182.0 42.4 L 177.17931032180786 44.40862064361572 L 175.3 46.1 L 173.1 48.0 L 170.8 50.0 L 168.3 52.0 L 165.6 54.1 L 162.7 56.3 L 159.6 58.4 L 157.98461542129516 59.8 L 163.5 59.8 L 169.5 54.8 L 180.5 63.8 L 175.5 67.8 L 175.5 110.6 L 163.5 116.6 L 163.5 95.6 L 162.8 96.3 L 160.2 98.7 L 157.4 101.1 L 154.4 103.3 L 151.4 105.4 L 148.2 107.4 L 144.9 109.3 L 141.3 111.0 L 137.9 112.8 L 136.8 111.3 L 139.6 108.6 L 144.6 103.0 L 146.9 100.3 L 149.1 97.6 L 151.1 94.9 L 153.0 92.3 L 154.8 89.6 L 156.5 86.9 L 157.50345401763917 85.16067972183228 L 157.4 85.1 L 158.4 83.6 L 163.5 87.72340421676635 L 163.5 63.8 L 150.95753421783448 63.8 L 159.9 70.6 L 161.4 73.9 L 157.26698808670045 73.75989789962769 L 154.9 76.4 L 152.1 79.2 L 149.2 81.9 L 146.0 84.5 L 142.8 86.9 L 139.3 89.3 L 135.6 91.5 L 131.8 93.5 L 127.8 95.5 L 126.8 94.0 L 129.9 91.0 L 132.7 87.8 L 135.5 84.8 L 138.0 81.8 L 140.4 78.8 L 142.6 75.8 L 144.7 72.9 L 146.6 70.0 L 148.3 67.0 L 149.32708225250244 65.01430759429931 L 149.3 65.0 L 149.58571424484253 64.51428575515747 L 149.8 64.1 L 149.82133502960204 64.11373043060303 L 150.00588235855102 63.8 L 131.3 63.8 L 131.3 59.8 L 155.4 59.8 L 155.3 59.7 L 157.7 56.6 L 159.7 53.4 L 161.6 50.4 L 163.4 47.6 L 165.1 45.0 L 166.6 42.5 L 168.0 40.1 L 168.35 39.4 L 33.04545450210571 39.4 L 33.1 41.8 L 32.8 46.0 L 32.0 50.0 L 30.9 53.7 L 30.489655208587646 54.54482755661011 L 41.0 59.8 L 58.5 59.8 L 64.5 54.8 L 75.5 63.8 L 70.5 67.8 L 70.5 175.0 L 70.3 177.6 L 69.9 180.1 L 69.1 182.5 L 67.9 184.8 L 66.2 186.8 L 64.2 188.4 L 61.9 189.6 L 59.5 190.5 L 57.0 190.9 L 54.5 191.0 L 54.5 185.0 L 38.5 182.0 L 38.5 179.0 L 55.7 179.0 L 56.6 178.8 L 57.2 178.6 L 57.6 178.4 L 57.9 178.1 L 58.1 177.8 L 58.3 177.2 L 58.4 176.3 L 58.5 175.0 L 58.5 132.9 L 41.0 132.9 L 41.0 135.6 L 40.6 144.1 L 39.9 151.9 L 38.9 159.2 L 37.7 165.8 L 36.2 171.8 L 34.4 177.1 L 32.3 181.8 L 29.8 185.8 L 27.0 189.0 L 23.8 191.2 L 22.6 189.9 L 23.9 186.8 L 25.1 183.3 L 26.2 179.4 L 27.1 175.0 L 27.9 170.0 L 28.5 164.4 L 28.9 158.1 L 29.2 151.3 L 29.2 143.7 L 29.0 135.6 L 29.0 57.50476188659668 Z M 151.5 149.7 L 151.9 153.3 L 148.30718936920167 152.1241710662842 L 146.1 153.8 L 140.5 157.5 L 134.7 160.9 L 128.7 164.0 L 122.6 166.8 L 116.3 169.2 L 109.7 171.2 L 103.0 172.9 L 96.2 174.1 L 89.1 174.8 L 88.7 173.0 L 95.2 170.4 L 101.4 167.8 L 107.5 165.1 L 113.3 162.2 L 118.9 159.2 L 124.2 155.9 L 129.4 152.4 L 134.3 148.7 L 139.0 144.8 L 142.86088008880614 141.35878076553345 L 142.8 141.3 L 143.7 140.5 Z M 136.5 137.8 L 137.1 141.3 L 133.36195287704467 140.23198652267456 L 132.5 140.9 L 128.4 143.8 L 124.1 146.5 L 119.6 149.0 L 114.9 151.2 L 110.1 153.3 L 105.2 155.1 L 100.0 156.6 L 94.7 157.7 L 89.2 158.5 L 88.6 156.8 L 93.4 154.2 L 98.0 151.6 L 102.5 149.1 L 106.7 146.5 L 110.8 143.8 L 114.7 141.1 L 118.4 138.2 L 121.9 135.3 L 125.2 132.2 L 127.61162528991699 129.7105803489685 L 127.6 129.7 L 128.5 128.8 Z M 163.0 143.6 L 157.9 140.9 L 152.9 137.9 L 148.1 134.6 L 143.5 131.1 L 139.1 127.2 L 134.9 123.0 L 130.9 118.4 L 130.0075471878052 117.12506742477417 L 129.3 117.9 L 124.8 122.2 L 119.9 126.3 L 114.6 130.2 L 109.0 133.8 L 103.0 137.1 L 96.7 140.2 L 90.0 143.0 L 82.9 145.4 L 75.5 147.4 L 74.8 145.7 L 81.4 141.9 L 87.7 138.2 L 93.5 134.4 L 99.1 130.7 L 104.2 126.8 L 108.9 122.8 L 113.3 118.8 L 117.2 114.6 L 120.8 110.4 L 123.3250961303711 106.81599264144897 L 123.3 106.8 L 123.65200004577636 106.35200004577636 L 123.9 106.0 L 123.91788539886474 106.01360034942627 L 124.4 105.4 L 133.5 113.3 L 134.26211318969726 115.65562267303467 L 138.6 118.4 L 143.4 121.4 L 148.2 124.2 L 153.0 126.7 L 157.8 128.9 L 162.6 131.0 L 167.5 132.7 L 172.4 134.3 L 177.4 135.5 L 185.2 137.9 L 173.6 148.2 L 168.2 146.0 Z M 41.0 97.5 L 41.0 128.9 L 58.5 128.9 L 58.5 97.5 Z M 130.3 63.8 L 125.3 67.8 L 125.3 104.3 L 113.3 110.3 L 113.3 94.25172414779664 L 113.02665348052979 94.23287267684937 L 112.8 94.5 L 109.7 97.6 L 106.4 100.7 L 102.9 103.6 L 99.3 106.3 L 95.4 108.9 L 91.3 111.4 L 86.9 113.6 L 82.3 115.6 L 77.6 117.5 L 76.7 116.0 L 80.5 112.7 L 84.2 109.5 L 87.6 106.3 L 90.8 103.2 L 93.9 100.1 L 96.7 97.0 L 99.3 93.8 L 101.7 90.7 L 103.8 87.5 L 105.27317504882812 85.142919921875 L 105.2 85.1 L 106.2 83.6 L 113.3 89.34042549133301 L 113.3 63.8 L 100.85753421783447 63.8 L 109.8 70.6 L 111.2 73.9 L 107.06908884048462 73.7575548171997 L 104.7 76.4 L 101.9 79.2 L 99.0 81.9 L 95.9 84.5 L 92.6 86.9 L 89.1 89.3 L 85.5 91.5 L 77.7 95.5 L 76.6 94.0 L 79.7 91.0 L 82.6 87.8 L 85.3 84.8 L 87.8 81.8 L 90.2 78.8 L 92.5 75.8 L 94.5 72.9 L 96.4 70.0 L 98.1 67.0 L 99.12713670730591 65.01420240402221 L 99.1 65.0 L 99.271875 64.734375 L 99.6 64.1 L 99.6583095550537 64.13715801239013 L 99.8764705657959 63.8 L 79.1 63.8 L 79.1 59.8 L 113.3 59.8 L 119.3 54.8 Z M 41.0 63.8 L 41.0 93.5 L 58.5 93.5 L 58.5 63.8 Z " />
</g>
</svg>
