<svg xmlns="http://www.w3.org/2000/svg" xmlns:xlink="http://www.w3.org/1999/xlink" version="1.1" baseProfile="full" viewBox="0 0 200 200" width="200" height="200">
<g fill="black">
<path d="M 147.0 148.6 L 149.0 148.6 L 148.9021276473999 149.82340421676636 L 149.2 149.1 L 153.9 150.5 L 158.4 151.7 L 162.6 153.2 L 166.4 154.9 L 170.0 156.8 L 173.2 158.8 L 176.2 161.0 L 178.8 163.4 L 181.1 166.0 L 183.1 168.9 L 183.3 173.5 L 180.2 176.9 L 175.7 177.0 L 172.2 174.0 L 171.6 172.0 L 170.6 169.9 L 169.2 167.7 L 167.4 165.4 L 165.3 163.1 L 162.7 160.7 L 159.7 158.2 L 156.4 155.7 L 152.7 153.1 L 148.81040143966675 150.96998176574706 L 147.0 173.6 L 150.6 176.0 L 153.0 179.6 L 150.6 183.2 L 147.0 185.6 L 76.0 185.6 L 73.4 185.4 L 70.9 185.0 L 68.5 184.2 L 66.2 182.9 L 64.2 181.3 L 62.6 179.3 L 61.3 177.0 L 60.5 174.6 L 60.1 172.1 L 60.0 169.6 L 60.0 148.0 L 72.0 150.0 L 75.0 152.0 L 72.0 153.8 L 72.0 170.8 L 72.2 171.7 L 72.5 172.6 L 72.9 173.0 L 73.8 173.3 L 74.7 173.5 L 76.0 173.6 L 141.0 173.6 Z M 15.2 178.2 L 15.3 173.7 L 18.6 170.5 L 21.4 169.6 L 24.0 168.6 L 26.2 167.3 L 28.3 165.8 L 30.1 164.0 L 31.8 161.9 L 33.3 159.4 L 34.6 156.5 L 35.7 153.2 L 36.1 149.4 L 37.9 149.3 L 38.3 153.3 L 38.7 157.1 L 38.6 160.9 L 37.9 164.5 L 36.7 168.0 L 34.9 171.3 L 32.6 174.4 L 29.8 177.1 L 26.6 179.6 L 22.9 181.6 L 18.4 181.5 Z M 108.6 161.4 L 106.9 159.5 L 104.8 157.6 L 102.6 155.7 L 100.1 153.8 L 97.3 152.0 L 94.4 150.1 L 91.2 148.1 L 87.6 146.5 L 88.2 144.8 L 92.1 145.5 L 95.9 146.1 L 99.5 146.9 L 103.0 147.9 L 106.3 149.0 L 109.4 150.3 L 112.4 151.8 L 115.2 153.4 L 117.9 155.1 L 120.3 157.1 L 121.9 161.4 L 120.0 165.6 L 115.7 167.1 L 111.5 165.2 L 110.2 163.3 Z M 88.89695377349854 120.84602613449097 L 46.7 124.70682992935181 L 46.7 128.5 L 46.8 129.7 L 46.9 130.6 L 47.1 131.2 L 47.3 131.5 L 47.4 131.7 L 47.6 131.9 L 48.0 132.1 L 48.5 132.3 L 49.5 132.4 L 50.7 132.5 L 86.1 132.5 Z M 172.42137184143067 120.3276174545288 L 128.2 124.4211212158203 L 128.2 129.7 L 128.4 130.6 L 128.6 131.2 L 128.8 131.5 L 128.9 131.7 L 129.1 131.9 L 129.4 132.1 L 130.0 132.3 L 130.9 132.4 L 132.2 132.5 L 169.5 132.5 Z M 46.7 112.24052925109864 L 46.7 120.72474222183227 L 67.08634853363037 118.833225440979 L 74.6041706085205 109.71438570022583 Z M 128.2 112.94263229370117 L 128.2 120.44856395721436 L 151.47733430862428 118.26061611175537 L 158.44778966903687 109.87025308609009 Z M 151.5 98.8 L 146.2 99.5 L 140.5 100.3 L 134.4 101.1 L 128.2 101.778125 L 128.2 108.90200290679931 L 145.6748808860779 107.1270149230957 L 152.62656841278076 98.6160704612732 Z M 66.8 99.9 L 60.9 100.5 L 54.8 101.1 L 48.4 101.7 L 46.7 101.85 L 46.7 108.20431756973267 L 61.25575065612793 106.88659639358521 L 67.08540410995484 99.86942100524902 Z M 92.3 61.17859697341919 L 92.3 67.72074537277221 L 154.43001403808594 65.63688154220581 L 160.75515451431275 58.87552452087402 Z M 143.1 49.7 L 132.8 50.4 L 122.2 51.1 L 111.2 51.8 L 99.9 52.3 L 92.3 52.62758617401123 L 92.3 57.17356729507446 L 140.82731370925904 55.53976812362671 L 146.62978649139404 49.33712472915649 Z M 35.45 34.6 L 35.5 36.5 L 35.2 40.1 L 34.4 43.6 L 33.3 46.8 L 31.6 49.9 L 30.80062894821167 50.9658281326294 L 38.3 50.0 L 51.1 48.4 L 63.6 47.0 L 75.8 45.7 L 87.7 44.4 L 99.2 43.1 L 110.4 41.8 L 121.2 40.4 L 131.7 39.1 L 140.9049991607666 37.926813793182376 L 140.9 37.9 L 140.92868719100952 37.923794746398926 L 141.9 37.8 L 142.0022819519043 38.814295864105226 L 150.15087299346925 45.57320470809937 L 150.5 45.2 L 156.9378349304199 50.224651622772214 L 158.5 48.6 L 160.5 45.8 L 162.4 43.1 L 164.2 40.7 L 165.8 38.4 L 167.3 36.2 L 168.36666669845582 34.6 Z M 98.1 138.5 L 95.7 142.1 L 92.1 144.5 L 50.7 144.5 L 48.1 144.3 L 45.6 143.9 L 43.2 143.1 L 41.0 141.9 L 38.9 140.2 L 37.3 138.2 L 36.1 135.9 L 35.3 133.5 L 34.8 131.0 L 34.7 128.5 L 34.7 125.80476808547974 L 11.8 127.9 L 11.4 124.0 L 34.7 121.83814430236816 L 34.7 113.32688026428222 L 11.8 115.4 L 11.4 111.4 L 34.7 109.29066848754883 L 34.7 102.79285717010498 L 34.6 102.8 L 27.3 103.2 L 19.7 103.5 L 11.7 103.6 L 11.5 101.8 L 19.1 99.7 L 26.5 97.9 L 33.7 96.3 L 40.5 94.8 L 47.1 93.3 L 53.3 91.9 L 59.3 90.6 L 65.0 89.3 L 70.4 88.0 L 74.50887403488159 87.03320608139038 L 74.5 87.0 L 74.53324174880981 87.02747249603271 L 75.5 86.8 L 75.7141731262207 88.00344886779786 L 86.6 97.0 L 87.0 100.0 L 82.4238410949707 97.74242830276489 L 77.6 98.6 L 74.64509134292602 98.99777612686157 L 83.2 104.9 L 83.6 108.9 L 78.25127897262573 109.38421573638917 L 89.0 116.8 L 89.25529413223266 119.35294113159179 L 92.1 107.5 L 94.1 107.5 L 92.1 132.5 L 95.7 134.9 Z M 167.47055644989013 69.20601482391358 L 92.3 71.72569828033447 L 92.3 74.2 L 92.5 75.2 L 92.7 75.7 L 93.0 76.3 L 93.2 76.4 L 93.5 76.6 L 94.1 76.8 L 95.0 76.9 L 96.3 77.0 L 165.6 77.0 Z M 16.0 54.3 L 15.9 49.7 L 18.9 46.4 L 20.9 45.8 L 22.7 44.9 L 24.4 43.8 L 26.0 42.4 L 27.5 40.5 L 28.9 38.2 L 30.2 35.5 L 31.3 32.3 L 32.3 28.7 L 32.6 24.6 L 34.4 24.6 L 34.9 28.7 L 35.1375 30.6 L 95.5 30.6 L 95.5 10.3 L 107.5 12.3 L 110.5 14.3 L 107.5 16.1 L 107.5 30.6 L 170.3 30.6 L 171.02941179275513 29.992156887054442 L 171.7 28.8 L 172.0837133407593 29.113572216033937 L 176.3 25.6 L 187.3 34.6 L 182.3 37.6 L 176.02054796218872 40.216438388824464 L 175.5 40.6 L 173.3 42.1 L 171.0 43.7 L 168.6 45.3 L 166.0 47.0 L 163.2 48.7 L 160.1 50.4 L 158.57624368667604 51.50340976715088 L 162.8 54.8 L 162.88968906402587 56.59378070831299 L 164.1 55.3 L 169.74971237182618 59.70953159332275 L 171.6 52.0 L 173.6 52.0 L 172.7932047843933 62.084940338134764 L 176.4 64.9 L 176.6 68.9 L 172.23629846572877 69.04626932144166 L 171.6 77.0 L 175.2 79.4 L 177.6 83.0 L 175.2 86.6 L 171.6 89.0 L 155.91546392440796 89.0 L 164.6 96.2 L 164.9 99.2 L 160.55511283874512 97.0879020690918 L 157.069917678833 97.85294494628906 L 167.6 104.9 L 168.0 108.9 L 163.3858938217163 109.36867170333862 L 173.4 116.2 L 173.4035294532776 116.23529415130615 L 175.5 107.5 L 177.5 107.5 L 175.5 132.5 L 179.1 134.9 L 181.5 138.5 L 179.1 142.1 L 175.5 144.5 L 132.2 144.5 L 129.6 144.3 L 127.1 143.9 L 124.7 143.1 L 122.4 141.9 L 120.4 140.2 L 118.8 138.2 L 117.6 135.9 L 116.7 133.5 L 116.3 131.0 L 116.2 128.5 L 116.2 125.531942653656 L 97.1 127.3 L 96.8 123.4 L 116.2 121.57650127410889 L 116.2 114.16151647567749 L 98.1 116.0 L 97.7 112.0 L 116.2 110.1208869934082 L 116.2 103.09295778274536 L 114.1 103.3 L 106.5 104.0 L 98.6 104.5 L 90.3 104.8 L 90.0 103.0 L 98.0 100.7 L 105.7 98.7 L 113.0 96.8 L 119.9 95.1 L 126.5 93.5 L 132.7 91.9 L 138.6 90.5 L 144.0 89.0 L 96.3 89.0 L 93.7 88.9 L 91.2 88.4 L 88.8 87.6 L 86.6 86.4 L 84.5 84.7 L 82.9 82.7 L 81.7 80.5 L 80.9 78.1 L 80.4 75.6 L 80.3 73.0 L 80.3 72.12793292999268 L 15.5 74.3 L 15.4 70.3 L 80.3 68.12322978973388 L 80.3 61.582319259643555 L 23.3 63.5 L 23.2 59.5 L 80.3 57.57757883071899 L 80.3 53.06666669845581 L 76.3 53.2 L 64.1 53.6 L 51.4 53.8 L 38.5 53.7 L 28.614598751068115 53.55134735107422 L 26.9 55.2 L 23.9 57.3 L 19.4 57.4 Z " />
</g>
</svg>
