<svg xmlns="http://www.w3.org/2000/svg" xmlns:xlink="http://www.w3.org/1999/xlink" version="1.1" baseProfile="full" viewBox="0 0 200 200" width="200" height="200">
<g fill="black">
<path d="M 42.8 69.2 L 96.8 69.2 L 96.8 51.1 L 108.8 53.1 L 111.8 55.1 L 108.8 56.9 L 108.8 69.2 L 153.5 69.2 L 158.15882349014282 64.54117650985718 L 159.5 62.0 L 161.4 58.6 L 163.2 55.4 L 164.8 52.3 L 166.3 49.5 L 167.7 46.8 L 168.6119999885559 44.9 L 33.2 44.9 L 33.2 47.8 L 32.9 52.7 L 32.2 57.2 L 31.0 61.4 L 29.4 65.4 L 27.4 69.0 L 24.8 72.2 L 21.7 75.0 L 17.2 75.7 L 13.4 73.1 L 12.7 68.6 L 15.3 64.8 L 17.3 63.7 L 19.2 62.3 L 21.1 60.3 L 22.9 57.8 L 24.5 54.7 L 26.0 51.1 L 27.3 47.0 L 28.4 42.3 L 29.4 37.0 L 30.1 31.3 L 31.9 31.2 L 32.6 37.1 L 33.01454544067383 40.9 L 94.0 40.9 L 94.0 12.0 L 106.0 14.0 L 109.0 16.0 L 106.0 17.8 L 106.0 40.9 L 170.0 40.9 L 170.5310344696045 40.45747127532959 L 170.8 39.8 L 171.10397272109986 39.980022716522214 L 176.0 35.9 L 187.0 44.9 L 182.0 47.9 L 178.08888893127443 49.52962961196899 L 177.6 50.1 L 175.6 52.3 L 173.4 54.6 L 171.1 57.0 L 168.5 59.4 L 166.29175262451173 61.52646045684814 L 175.5 69.2 L 175.5 73.2 L 42.8 73.2 L 42.8 112.1 L 98.7 112.1 L 98.7 96.2 L 56.2 96.2 L 56.2 92.2 L 98.7 92.2 L 98.7 74.1 L 110.7 76.1 L 113.7 78.1 L 110.7 79.9 L 110.7 92.2 L 146.2 92.2 L 152.2 87.2 L 163.2 96.2 L 158.2 100.2 L 158.2 112.1 L 164.11818180084228 112.1 L 172.3 103.1 L 182.3 112.1 L 182.3 116.1 L 158.2 116.1 L 158.2 137.6 L 146.2 143.6 L 146.2 137.6 L 56.2 137.6 L 56.2 133.6 L 98.7 133.6 L 98.7 116.1 L 42.8 116.1 L 42.8 128.4 L 42.3 137.3 L 41.3 145.8 L 39.8 153.7 L 37.9 161.1 L 35.5 167.9 L 32.6 174.2 L 29.2 179.9 L 25.3 184.9 L 20.9 189.2 L 16.1 192.7 L 14.9 191.3 L 18.1 186.7 L 21.0 181.8 L 23.5 176.7 L 25.7 171.1 L 27.5 165.2 L 28.9 158.8 L 29.9 152.0 L 30.6 144.6 L 30.9 136.8 L 30.8 128.4 L 30.8 63.2 Z M 74.8 150.3 L 147.2 150.3 L 153.2 145.3 L 164.2 154.3 L 159.2 158.3 L 159.2 184.9 L 147.2 190.9 L 147.2 182.9 L 74.8 182.9 L 74.8 185.9 L 62.8 191.9 L 62.8 144.3 Z M 74.8 154.3 L 74.8 178.9 L 147.2 178.9 L 147.2 154.3 Z M 110.7 116.1 L 110.7 133.6 L 146.2 133.6 L 146.2 116.1 Z M 110.7 96.2 L 110.7 112.1 L 146.2 112.1 L 146.2 96.2 Z " />
</g>
</svg>
