<svg xmlns="http://www.w3.org/2000/svg" xmlns:xlink="http://www.w3.org/1999/xlink" version="1.1" baseProfile="full" viewBox="0 0 200 200" width="200" height="200">
<g fill="black">
<path d="M 13.9 178.0 L 46.7 178.0 L 46.7 139.9 L 58.7 141.9 L 61.7 143.9 L 58.7 145.7 L 58.7 178.0 L 97.4 178.0 L 97.4 123.0 L 109.4 125.0 L 112.4 127.0 L 109.4 128.8 L 109.4 147.8 L 150.1 147.8 L 160.1 137.8 L 172.1 147.8 L 172.1 151.8 L 109.4 151.8 L 109.4 178.0 L 163.0 178.0 L 173.0 168.0 L 185.0 178.0 L 185.0 182.0 L 13.9 182.0 Z M 137.0 119.0 L 149.0 119.0 L 150.2 118.9 L 151.1 118.7 L 152.0 118.4 L 152.4 118.0 L 152.7 117.1 L 152.9 116.2 L 153.0 115.0 L 153.0 80.0 L 103.77820510864258 80.0 L 102.7 82.9 L 101.16539459228515 85.73311767578124 L 105.1 86.4 L 110.6 87.6 L 115.7 89.1 L 120.5 90.7 L 124.9 92.6 L 128.9 94.7 L 132.6 97.0 L 135.9 99.5 L 138.9 102.2 L 141.4 105.2 L 142.1 109.7 L 139.5 113.5 L 135.0 114.2 L 131.3 111.6 L 130.1 109.3 L 128.4 107.0 L 126.3 104.6 L 123.8 102.1 L 120.7 99.7 L 117.2 97.2 L 113.2 94.7 L 108.8 92.2 L 104.0 89.6 L 100.05909929275512 87.77550897598266 L 98.8 90.1 L 93.8 96.6 L 87.8 102.5 L 80.8 107.6 L 72.9 112.1 L 64.0 115.8 L 54.3 118.8 L 53.6 117.1 L 62.5 112.4 L 70.2 107.5 L 76.9 102.3 L 82.5 97.0 L 87.1 91.3 L 90.7 85.4 L 93.01428575515747 80.0 L 51.0 80.0 L 51.0 124.0 L 39.0 130.0 L 39.0 70.0 L 51.0 76.0 L 94.1984848022461 76.0 L 95.1 72.5 L 96.0 65.5 L 96.0 59.0 L 38.0 59.0 L 38.0 55.0 L 151.8181818008423 55.0 L 160.0 46.0 L 161.13968954086303 47.02572059631348 L 161.7 46.2 L 163.5 43.5 L 165.2 41.1 L 166.7 38.7 L 168.1 36.5 L 32.94878044128418 36.5 L 33.0 38.6 L 32.7 42.5 L 31.9 46.2 L 30.8 49.7 L 29.1 53.0 L 27.0 55.9 L 24.4 58.6 L 21.3 60.9 L 16.7 61.1 L 13.3 58.1 L 13.0 53.6 L 16.0 50.1 L 18.0 49.4 L 19.8 48.4 L 21.6 47.1 L 23.3 45.4 L 24.8 43.3 L 26.3 40.7 L 27.6 37.6 L 28.7 34.1 L 29.7 30.1 L 30.1 25.6 L 31.9 25.6 L 32.4 30.1 L 32.672727298736575 32.5 L 94.0 32.5 L 94.0 10.2 L 106.0 12.2 L 109.0 14.2 L 106.0 16.0 L 106.0 32.5 L 170.0 32.5 L 170.6 32.0 L 171.2 30.8 L 171.637020778656 31.13581600189209 L 176.0 27.5 L 187.0 36.5 L 182.0 39.5 L 176.41739130020142 41.82608699798584 L 175.2 42.8 L 173.0 44.5 L 170.7 46.3 L 168.2 48.1 L 165.5 50.0 L 164.8981900215149 50.40837106704712 L 170.0 55.0 L 170.0 59.0 L 107.8191011428833 59.0 L 107.3 66.7 L 105.6 75.1 L 105.26538457870484 76.0 L 153.0 76.0 L 159.0 71.0 L 170.0 80.0 L 165.0 84.0 L 165.0 115.0 L 164.8 117.5 L 164.4 120.0 L 163.6 122.4 L 162.3 124.7 L 160.7 126.7 L 158.7 128.3 L 156.4 129.6 L 154.0 130.4 L 151.5 130.8 L 149.0 131.0 L 149.0 125.0 L 137.0 122.0 Z " />
</g>
</svg>
