<svg xmlns="http://www.w3.org/2000/svg" xmlns:xlink="http://www.w3.org/1999/xlink" version="1.1" baseProfile="full" viewBox="0 0 200 200" width="200" height="200">
<g fill="black">
<path d="M 115.6 103.7 L 161.3 103.7 L 167.3 98.7 L 178.3 107.7 L 173.3 111.7 L 173.3 179.3 L 161.3 185.3 L 161.3 175.3 L 115.6 175.3 L 115.6 182.3 L 103.6 188.3 L 103.6 97.7 Z M 53.0 176.0 L 71.0 176.0 L 72.2 175.9 L 73.1 175.7 L 74.0 175.4 L 74.4 175.0 L 74.7 174.1 L 74.9 173.2 L 75.0 172.0 L 75.0 138.0 L 40.775 138.0 L 40.4 143.0 L 39.4 150.6 L 37.8 157.7 L 35.7 164.2 L 33.1 170.1 L 30.0 175.5 L 26.3 180.2 L 22.2 184.2 L 17.5 187.4 L 12.4 189.7 L 11.5 188.2 L 15.1 184.4 L 18.3 180.5 L 21.0 176.3 L 23.4 171.7 L 25.3 166.8 L 26.8 161.4 L 28.0 155.6 L 28.7 149.2 L 29.0 142.3 L 29.0 63.10384616851807 L 27.3 65.0 L 24.3 67.5 L 19.8 68.1 L 16.1 65.3 L 15.6 60.8 L 18.3 57.1 L 20.3 56.3 L 22.1 55.0 L 23.9 53.4 L 25.6 51.3 L 27.2 48.7 L 28.7 45.5 L 30.0 41.9 L 31.1 37.8 L 32.1 33.1 L 32.6 28.0 L 34.4 28.0 L 35.0 33.2 L 35.37959184646606 36.3 L 95.5 36.3 L 95.5 10.6 L 107.5 12.6 L 110.5 14.6 L 107.5 16.4 L 107.5 36.3 L 170.3 36.3 L 170.9972972869873 35.71891889572144 L 171.3 35.0 L 171.6125 35.20625 L 176.3 31.3 L 187.3 40.3 L 182.3 43.3 L 177.83913040161133 45.158695697784424 L 177.8 45.2 L 175.8 47.1 L 173.7 49.1 L 171.4 51.2 L 168.9 53.4 L 166.2 55.6 L 163.4 57.9 L 160.3 60.3 L 157.3 62.9 L 155.9 61.7 L 158.3 58.5 L 160.2 55.2 L 162.1 52.1 L 163.9 49.1 L 165.5 46.4 L 167.0 43.8 L 168.3 41.3 L 168.8 40.3 L 35.646808528900145 40.3 L 35.7 42.8 L 35.4 47.2 L 34.7 51.3 L 33.5 55.2 L 31.9 58.8 L 29.9 62.1 L 29.683333301544188 62.34166669845581 L 40.78596487045288 67.89298248291016 L 75.0 67.27090911865234 L 75.0 65.0 L 81.0 60.0 L 89.56304349899293 67.00612649917602 L 89.9 67.0 L 89.90738096237183 67.28785715103149 L 92.0 69.0 L 89.99246234893799 70.60603017807007 L 90.0 70.9 L 89.6162790298462 70.9069766998291 L 87.0 73.0 L 87.0 172.0 L 86.8 174.5 L 86.4 177.0 L 85.6 179.4 L 84.3 181.7 L 82.7 183.7 L 80.7 185.3 L 78.4 186.6 L 76.0 187.4 L 73.5 187.8 L 71.0 188.0 L 71.0 182.0 L 53.0 179.0 Z M 115.6 151.8 L 115.6 171.3 L 161.3 171.3 L 161.3 151.8 Z M 115.6 130.2 L 115.6 147.8 L 161.3 147.8 L 161.3 130.2 Z M 41.0 103.0 L 41.0 134.0 L 75.0 134.0 L 75.0 103.0 Z M 115.6 107.7 L 115.6 126.2 L 161.3 126.2 L 161.3 107.7 Z M 155.5 54.0 L 158.2 56.0 L 155.5 57.723404216766355 L 155.5 75.0 L 169.7777777671814 75.0 L 176.0 68.0 L 184.0 75.0 L 184.0 79.0 L 155.5 79.0 L 155.5 94.2 L 144.5 99.7 L 144.5 52.0 Z M 132.5 54.0 L 135.2 56.0 L 132.5 57.723404216766355 L 132.5 94.2 L 121.5 99.7 L 121.5 79.0 L 98.0 79.0 L 98.0 75.0 L 121.5 75.0 L 121.5 52.0 Z M 41.0 71.79090909957885 L 41.0 99.0 L 75.0 99.0 L 75.0 71.17272729873658 Z " />
</g>
</svg>
