<svg xmlns="http://www.w3.org/2000/svg" xmlns:xlink="http://www.w3.org/1999/xlink" version="1.1" baseProfile="full" viewBox="0 0 200 200" width="200" height="200">
<g fill="black">
<path d="M 20.0 181.0 L 50.0 181.0 L 50.0 143.0 L 62.0 145.0 L 65.0 147.0 L 62.0 148.8 L 62.0 181.0 L 95.0 181.0 L 95.0 129.0 L 40.0 129.0 L 40.0 125.0 L 142.0 125.0 L 152.0 115.0 L 164.0 125.0 L 164.0 129.0 L 107.0 129.0 L 107.0 151.0 L 138.0 151.0 L 148.0 141.0 L 160.0 151.0 L 160.0 155.0 L 107.0 155.0 L 107.0 181.0 L 156.0 181.0 L 166.0 171.0 L 178.0 181.0 L 178.0 185.0 L 20.0 185.0 Z M 17.9 120.9 L 17.9 116.3 L 21.0 113.0 L 22.9 112.4 L 24.7 111.7 L 26.4 110.7 L 27.9 109.4 L 29.4 107.7 L 30.8 105.6 L 32.1 103.1 L 33.2 100.2 L 34.2 96.8 L 34.5 93.0 L 36.3 92.9 L 36.7 96.9 L 36.91621618270874 98.5 L 116.69354839324951 98.5 L 117.7 97.2 L 119.7 93.9 L 121.8 90.8 L 123.7 87.8 L 125.6 84.9 L 127.4 82.0 L 129.1 79.3 L 132.1 73.9 L 132.96461534500122 72.23727807998657 L 132.9 72.2 L 133.28181819915773 71.62727270126342 L 133.4 71.4 L 133.42286376953126 71.41570434570312 L 133.9 70.7 L 143.3 78.2 L 144.6 81.5 L 140.44750175476074 81.28521556854248 L 138.9 82.9 L 136.6 85.2 L 134.1 87.6 L 131.5 89.9 L 128.8 92.3 L 125.9 94.6 L 122.9 96.9 L 120.67391300201416 98.5 L 171.4 98.5 L 172.25714282989503 97.78571424484252 L 172.9 96.5 L 173.34079656600952 96.88266954421997 L 177.4 93.5 L 188.4 102.5 L 183.4 105.5 L 176.2 108.5 L 174.4 109.7 L 172.1 111.1 L 169.7 112.6 L 167.1 114.1 L 164.3 115.7 L 161.3 117.3 L 158.4 119.2 L 157.3 117.9 L 159.7 115.4 L 161.7 112.7 L 163.6 110.2 L 165.4 107.8 L 167.1 105.6 L 168.6 103.6 L 169.31499996185303 102.5 L 37.2527777671814 102.5 L 37.3 104.2 L 37.0 107.6 L 36.2 110.9 L 35.1 114.0 L 33.4 117.0 L 31.3 119.6 L 28.7 122.0 L 25.8 124.0 L 21.2 124.0 Z M 69.8 90.7 L 68.9 88.6 L 67.8 86.5 L 66.6 84.5 L 65.3 82.4 L 63.8 80.3 L 62.2 78.2 L 60.5 76.0 L 58.3 74.2 L 59.3 72.7 L 61.9 74.0 L 64.6 75.1 L 67.2 76.3 L 69.7 77.8 L 72.0 79.4 L 74.3 81.1 L 76.4 83.0 L 78.4 85.1 L 80.2 87.3 L 82.0 89.6 L 82.2 94.1 L 79.3 97.6 L 74.7 97.9 L 71.2 95.0 L 70.6 92.8 Z M 165.0 66.0 L 165.0 70.0 L 34.0 70.0 L 34.0 66.0 L 143.0 66.0 L 153.0 56.0 Z M 97.8 59.4 L 96.8 57.9 L 95.6 56.3 L 94.2 54.8 L 92.7 53.2 L 91.0 51.6 L 89.1 50.0 L 87.0 48.3 L 84.6 47.1 L 85.2 45.4 L 87.9 46.2 L 90.6 46.5 L 93.2 47.1 L 95.8 47.8 L 98.2 48.6 L 100.5 49.6 L 102.7 50.7 L 104.8 51.9 L 106.9 53.3 L 108.8 54.9 L 110.0 59.3 L 107.8 63.3 L 103.4 64.5 L 99.4 62.4 L 98.7 60.9 Z M 29.7 40.2 L 29.7 43.7 L 29.4 47.0 L 28.5 50.3 L 27.3 53.5 L 25.6 56.6 L 23.4 59.4 L 20.9 62.1 L 16.5 63.2 L 12.5 60.9 L 11.4 56.5 L 13.7 52.5 L 15.8 51.3 L 17.6 49.9 L 19.3 48.4 L 20.8 46.6 L 22.2 44.6 L 23.4 42.3 L 24.4 39.7 L 24.44827585220337 39.5 L 24.4 39.5 L 24.4 35.5 L 25.37575759887695 35.5 L 25.8 33.5 L 25.7 30.0 L 27.5 29.7 L 28.3 33.3 L 28.865714263916015 35.5 L 94.0 35.5 L 94.0 12.2 L 106.0 14.2 L 109.0 16.2 L 106.0 18.0 L 106.0 35.5 L 174.8 35.5 L 175.6039999961853 34.83000001907349 L 176.1 33.9 L 176.42092514038086 34.14922904968262 L 180.8 30.5 L 191.8 39.5 L 186.8 42.5 L 181.183505153656 44.840206146240234 L 180.4 45.5 L 178.3 47.2 L 176.0 49.0 L 173.5 51.0 L 170.8 53.1 L 167.9 55.3 L 164.6 57.6 L 161.5 60.4 L 160.2 59.1 L 162.7 55.9 L 164.8 52.5 L 166.8 49.4 L 168.7 46.6 L 170.4 43.9 L 171.9 41.5 L 173.0818181991577 39.5 L 29.597058868408205 39.5 Z " />
</g>
</svg>
