<svg xmlns="http://www.w3.org/2000/svg" xmlns:xlink="http://www.w3.org/1999/xlink" version="1.1" baseProfile="full" viewBox="0 0 200 200" width="200" height="200">
<g fill="black">
<path d="M 155.7 183.3 L 149.1 178.8 L 143.1 173.6 L 138.17114095687867 168.1234899520874 L 135.9 170.3 L 128.1 176.3 L 119.6 181.4 L 110.5 185.5 L 100.7 188.7 L 90.4 190.8 L 90.0 189.1 L 96.2608757019043 186.4638418197632 L 94.9 185.8 L 93.7 184.2 L 92.2 182.4 L 90.3 180.6 L 88.0 178.7 L 85.3 176.8 L 82.3 174.9 L 78.9 172.9 L 75.2 171.0 L 71.1 168.9 L 66.6 167.1 L 67.1 165.3 L 71.9 166.1 L 76.6 166.7 L 80.9 167.6 L 85.0 168.6 L 88.7 169.7 L 92.3 171.0 L 95.5 172.4 L 98.5 174.0 L 101.3 175.8 L 103.8 177.8 L 105.29030752182007 182.17156858444213 L 108.2 180.7 L 116.2 175.7 L 123.5 170.2 L 130.1 164.1 L 133.0051676750183 160.80747661590576 L 133.0 160.8 L 129.0 153.4 L 125.7 145.3 L 123.1 136.4 L 121.54166669845581 127.6 L 111.9 127.6 L 111.9 123.6 L 153.2 123.6 L 159.2 118.6 L 170.2 127.6 L 165.2 130.6 L 163.180574798584 131.44142713546753 L 160.5 137.8 L 155.4 147.1 L 149.6 155.7 L 144.7505576133728 161.44472408294678 L 149.9 166.0 L 155.4 169.8 L 161.2 172.8 L 167.3 175.2 L 173.9 176.8 L 182.5 179.0 L 170.8 189.7 L 163.0 186.9 Z M 53.9 171.1 L 54.4 174.7 L 50.380160903930665 173.40790882110596 L 48.1 174.7 L 44.8 176.5 L 41.3 178.2 L 37.5 179.8 L 33.5 181.4 L 29.2 182.9 L 24.6 184.4 L 19.6 185.7 L 14.5 187.1 L 13.8 185.4 L 18.4 182.8 L 22.6 180.0 L 26.6 177.5 L 30.3 175.1 L 33.7 172.7 L 36.8 170.5 L 39.5 168.3 L 42.0 166.1 L 44.1 164.1 L 45.23766231536865 162.83593072891236 L 45.2 162.8 L 45.55 162.4888889312744 L 45.9 162.1 L 45.93862066268921 162.1434482574463 L 46.1 162.0 Z M 18.1 93.9 L 24.8 93.2 L 31.6 92.4 L 38.7 91.6 L 46.0 90.7 L 52.0 89.88918914794922 L 52.0 75.0 L 26.0 75.0 L 26.0 71.0 L 52.0 71.0 L 52.0 56.0 L 25.71199998855591 56.0 L 24.2 57.4 L 21.2 59.5 L 16.6 59.7 L 13.2 56.6 L 13.1 52.0 L 16.2 48.6 L 18.1 48.0 L 20.0 47.1 L 21.7 46.0 L 23.4 44.4 L 24.9 42.5 L 26.3 40.1 L 27.6 37.3 L 28.7 34.0 L 29.7 30.3 L 30.1 26.2 L 31.9 26.1 L 32.4 30.4 L 32.64390239715576 32.4 L 94.0 32.4 L 94.0 11.5 L 106.0 13.5 L 109.0 15.5 L 106.0 17.3 L 106.0 32.4 L 170.0 32.4 L 170.62105264663697 31.88245611190796 L 171.3 30.6 L 171.73420190811157 30.954831695556642 L 176.0 27.4 L 187.0 36.4 L 182.0 39.4 L 175.775 41.99375 L 175.1 42.5 L 172.9 44.1 L 170.6 45.7 L 168.5295154571533 47.10792951583862 L 175.6 53.0 L 175.9 56.0 L 171.65473651885986 54.026849365234376 L 168.3 54.9 L 162.5 56.0 L 156.6 57.1 L 150.6 58.1 L 144.5 59.1 L 138.3 59.9 L 131.9 60.7 L 125.4 61.4 L 118.7 61.9 L 112.0 62.2 L 105.1 62.2 L 104.8 60.4 L 111.4 58.4 L 117.9 56.6 L 130.5 53.2 L 136.6 51.6 L 142.6 50.0 L 148.4 48.3 L 154.2 46.7 L 159.8 45.0 L 162.57241382598878 44.12720308303833 L 163.6 42.7 L 165.3 40.3 L 166.8 38.1 L 167.9333333015442 36.4 L 32.95 36.4 L 33.0 38.3 L 32.6 42.0 L 31.9 45.6 L 30.7 48.9 L 29.0 52.0 L 76.81818180084228 52.0 L 85.0 43.0 L 95.0 52.0 L 95.0 56.0 L 64.0 56.0 L 64.0 71.0 L 69.0 71.0 L 79.0 61.0 L 91.0 71.0 L 91.0 75.0 L 64.0 75.0 L 64.0 88.42820510864257 L 68.9 87.8 L 77.0 86.8 L 85.3 85.9 L 93.8 85.1 L 94.1 86.8 L 86.0 89.6 L 78.0 92.0 L 70.2 94.2 L 62.5 96.2 L 55.0 98.1 L 47.6 99.8 L 40.4 101.5 L 33.4 103.0 L 31.265979385375978 103.43298969268798 L 39.2 107.4 L 81.7 107.4 L 87.7 102.4 L 98.7 111.4 L 93.7 115.4 L 93.7 159.3 L 81.7 165.3 L 81.7 159.3 L 39.2 159.3 L 27.2 165.3 L 27.2 104.25797100067139 L 26.5 104.4 L 23.86373987197876 104.91151313781738 L 22.2 108.4 L 19.8 105.7 L 16.1 94.2 Z M 39.2 143.3 L 39.2 155.3 L 81.7 155.3 L 81.7 143.3 Z M 123.64418601989746 127.6 L 127.0 135.0 L 131.1 142.9 L 135.3 149.9 L 138.42858219146729 154.04877204895018 L 141.4 149.9 L 146.0 141.9 L 150.1 133.1 L 152.08936166763306 127.6 Z M 39.2 127.4 L 39.2 139.3 L 81.7 139.3 L 81.7 127.4 Z M 101.3 125.3 L 99.5 121.2 L 101.0 116.8 L 102.1 116.2 L 103.2 115.1 L 104.4 113.6 L 105.6 111.7 L 106.8 109.4 L 107.9 106.7 L 109.0 103.6 L 110.1 100.2 L 111.1 96.5 L 111.7 92.4 L 113.5 92.4 L 113.7 96.6 L 114.2 100.6 L 114.21315793991089 101.1 L 150.21739130020143 101.1 L 151.0 98.1 L 152.1 93.6 L 153.2 89.2 L 154.5 85.0 L 155.7 80.9 L 157.0 76.8 L 159.4 69.0 L 161.4975609779358 62.53252029418945 L 161.4 62.5 L 162.3 60.3 L 172.8 66.3 L 174.8 69.3 L 170.92374582290648 69.84403572082519 L 169.2 73.1 L 167.2 76.7 L 165.3 80.3 L 163.2 84.0 L 161.1 87.8 L 158.9 91.6 L 156.5 95.5 L 154.0 99.4 L 152.9375 101.1 L 167.9 101.1 L 168.59230766296386 100.52307691574097 L 168.8 99.9 L 169.1101351737976 100.09155406951905 L 173.9 96.1 L 184.9 105.1 L 179.9 108.1 L 174.9325581550598 110.16976747512817 L 174.9 110.2 L 171.9 113.0 L 168.7 115.8 L 167.0 117.2 L 165.2 118.6 L 163.8 120.3 L 162.3 119.3 L 163.4 117.4 L 164.0 115.2 L 165.2 111.0 L 165.9 109.1 L 166.5 107.1 L 167.1 105.3 L 167.1631579399109 105.1 L 114.3 105.1 L 114.3 107.9 L 114.1 111.2 L 113.7 114.3 L 113.2 117.3 L 112.3 120.0 L 111.2 122.6 L 109.8 125.0 L 105.6 126.9 Z M 39.2 111.4 L 39.2 123.4 L 81.7 123.4 L 81.7 111.4 Z M 117.7 87.3 L 117.7 85.3 L 117.5 83.3 L 117.1 81.2 L 116.5 79.1 L 115.8 76.9 L 114.8 74.6 L 113.7 72.2 L 112.0 70.2 L 113.2 68.9 L 115.4 70.6 L 117.8 72.2 L 119.9 73.9 L 121.9 75.8 L 123.7 77.9 L 125.2 80.2 L 126.6 82.6 L 127.7 85.1 L 128.7 87.8 L 129.4 90.6 L 127.8 94.9 L 123.7 96.9 L 119.4 95.3 L 117.4 91.2 L 117.6 89.3 Z M 137.6 82.3 L 137.4 80.4 L 137.1 78.4 L 136.6 76.3 L 136.0 74.1 L 135.1 71.7 L 134.1 69.3 L 133.0 66.7 L 131.3 64.4 L 132.6 63.1 L 134.8 65.2 L 137.2 66.9 L 139.4 68.8 L 141.3 70.8 L 143.1 72.8 L 144.7 75.0 L 146.2 77.2 L 147.4 79.5 L 148.5 81.9 L 149.3 84.4 L 148.0 88.8 L 144.0 91.0 L 139.6 89.7 L 137.4 85.8 L 137.5 84.1 Z " />
</g>
</svg>
