<svg xmlns="http://www.w3.org/2000/svg" xmlns:xlink="http://www.w3.org/1999/xlink" version="1.1" baseProfile="full" viewBox="0 0 200 200" width="200" height="200">
<g fill="black">
<path d="M 20.4 146.2 L 20.4 142.2 L 161.6 142.2 L 171.6 132.2 L 183.6 142.2 L 183.6 146.2 L 142.6 146.2 L 142.6 185.7 L 130.6 191.7 L 130.6 146.2 L 74.3 146.2 L 74.3 160.9 L 73.2 166.2 L 70.6 170.9 L 66.9 174.7 L 62.2 177.9 L 56.6 180.5 L 50.1 182.8 L 42.7 184.6 L 34.3 186.1 L 24.8 187.1 L 14.4 187.7 L 14.1 186.0 L 24.2 183.4 L 33.1 180.9 L 40.9 178.3 L 47.5 175.6 L 52.9 172.9 L 57.1 170.1 L 60.0 167.4 L 61.7 165.0 L 62.3 162.9 L 62.3 146.2 Z M 16.7 64.9 L 15.3 60.5 L 17.4 56.4 L 19.4 55.1 L 21.2 53.6 L 22.8 51.8 L 24.3 49.9 L 25.7 47.6 L 26.8 45.1 L 27.8 42.2 L 28.0 41.4 L 28.0 37.9 L 28.788571453094484 37.9 L 29.2 35.5 L 29.2 31.8 L 31.0 31.5 L 31.8 35.3 L 32.43243246078491 37.9 L 94.0 37.9 L 94.0 12.9 L 106.0 14.9 L 109.0 16.9 L 106.0 18.7 L 106.0 37.9 L 171.0 37.9 L 171.60983610153198 37.39180326461792 L 172.0 36.5 L 172.37275743484497 36.75603542327881 L 177.0 32.9 L 188.0 41.9 L 183.0 44.9 L 177.85714282989503 47.04285717010498 L 176.9 48.0 L 174.9 49.8 L 172.7 51.8 L 170.3 54.0 L 167.6 56.3 L 164.8 58.7 L 161.7 61.3 L 158.6 64.2 L 157.3 63.0 L 157.9764705657959 62.0 L 120.0 62.0 L 120.0 75.0 L 151.0 75.0 L 157.0 70.0 L 168.0 79.0 L 163.0 83.0 L 163.0 128.0 L 151.0 134.0 L 151.0 126.0 L 54.0 126.0 L 54.0 129.0 L 42.0 135.0 L 42.0 69.0 L 54.0 75.0 L 81.0 75.0 L 81.0 62.0 L 46.0 62.0 L 46.0 58.0 L 141.8181818008423 58.0 L 150.0 49.0 L 160.0 58.0 L 160.0 58.9 L 161.6 56.1 L 163.4 52.8 L 165.2 49.8 L 166.7 47.1 L 168.1 44.5 L 169.4 42.2 L 169.53636360168457 41.9 L 33.091891860961915 41.9 L 33.2 42.7 L 33.3 46.3 L 33.0 49.8 L 32.2 53.2 L 31.1 56.6 L 29.5 59.8 L 27.5 62.8 L 25.1 65.6 L 20.8 66.9 Z M 54.0 112.0 L 54.0 122.0 L 151.0 122.0 L 151.0 112.0 Z M 121.6 98.6 L 119.4 98.4 L 117.2 98.0 L 115.1 97.1 L 113.1 95.8 L 111.4 94.1 L 110.0 92.1 L 109.0 89.9 L 108.3 87.5 L 108.0 85.0 L 108.0 79.0 L 92.42857141494751 79.0 L 92.2 80.2 L 90.9 84.2 L 88.8 88.0 L 86.2 91.4 L 83.1 94.4 L 79.5 97.2 L 75.4 99.7 L 70.9 102.0 L 65.8 103.9 L 60.3 105.8 L 59.6 104.1 L 64.4 101.1 L 68.5 97.9 L 72.0 94.9 L 74.9 91.9 L 77.3 89.0 L 79.0 86.1 L 80.2 83.4 L 80.9 80.9 L 81.05200004577637 79.0 L 54.0 79.0 L 54.0 108.0 L 151.0 108.0 L 151.0 79.0 L 120.0 79.0 L 120.0 85.0 L 119.8 86.2 L 119.7 87.2 L 119.7 88.6 L 119.8 89.1 L 120.0 89.6 L 120.5 90.1 L 121.3 90.7 L 122.5 91.1 L 124.0 91.5 L 136.5 91.5 L 140.0 86.5 L 142.0 86.5 L 140.0 91.5 L 142.1 92.9 L 143.5 95.0 L 142.1 97.1 L 140.0 98.5 L 124.0 98.5 Z M 93.0 62.0 L 93.0 75.0 L 108.0 75.0 L 108.0 62.0 Z " />
</g>
</svg>
