<svg xmlns="http://www.w3.org/2000/svg" xmlns:xlink="http://www.w3.org/1999/xlink" version="1.1" baseProfile="full" viewBox="0 0 200 200" width="200" height="200">
<g fill="black">
<path d="M 107.4 112.4 L 155.0 112.4 L 161.0 107.4 L 172.0 116.4 L 167.0 120.4 L 167.0 150.3 L 155.0 156.3 L 155.0 150.3 L 137.2 150.3 L 137.2 162.8 L 164.11818180084228 162.8 L 172.3 153.8 L 182.3 162.8 L 182.3 166.8 L 137.2 166.8 L 137.2 185.1 L 125.2 191.1 L 125.2 166.8 L 81.3 166.8 L 81.3 162.8 L 125.2 162.8 L 125.2 150.3 L 107.4 150.3 L 95.4 156.3 L 95.4 106.4 Z M 32.6 172.1 L 21.6 177.6 L 21.6 81.2 L 32.6 83.2 L 35.3 85.2 L 32.6 86.92340421676636 L 32.6 156.1 L 43.8 156.1 L 43.8 57.5 L 53.8 59.5 L 56.3 61.5 L 53.8 63.16666669845581 L 53.8 156.1 L 66.7 156.1 L 66.7 81.2 L 77.7 83.2 L 80.4 85.2 L 77.7 86.92340421676636 L 77.7 160.1 L 66.7 165.6 L 66.7 160.1 L 32.6 160.1 Z M 107.4 133.3 L 107.4 146.3 L 155.0 146.3 L 155.0 133.3 Z M 107.4 116.4 L 107.4 129.3 L 155.0 129.3 L 155.0 116.4 Z M 88.4 68.2 L 125.6 68.2 L 125.6 52.2 L 137.6 54.2 L 140.6 56.2 L 137.6 58.0 L 137.6 68.2 L 152.8 68.2 L 155.50909090042114 65.49090909957886 L 157.6 62.4 L 159.6 58.9 L 161.5 55.6 L 163.3 52.6 L 164.9 49.6 L 166.4 46.9 L 167.8 44.3 L 168.55 42.8 L 33.14399995803833 42.8 L 33.2 45.6 L 32.9 50.2 L 32.1 54.6 L 31.0 58.6 L 29.4 62.4 L 27.3 65.9 L 24.7 69.0 L 21.6 71.6 L 17.1 72.3 L 13.4 69.6 L 12.8 65.1 L 15.4 61.3 L 17.4 60.4 L 19.3 59.0 L 21.2 57.2 L 22.9 54.9 L 24.6 52.0 L 26.1 48.6 L 27.4 44.7 L 28.5 40.2 L 29.5 35.3 L 30.1 29.8 L 31.9 29.8 L 32.6 35.3 L 32.93018865585327 38.8 L 94.0 38.8 L 94.0 11.4 L 106.0 13.4 L 109.0 15.4 L 106.0 17.2 L 106.0 38.8 L 170.0 38.8 L 170.6 38.3 L 170.9 37.6 L 171.2067491531372 37.79437570571899 L 176.0 33.8 L 187.0 42.8 L 182.0 45.8 L 177.8239999771118 47.53999996185303 L 177.5 47.9 L 175.5 50.0 L 173.3 52.1 L 171.0 54.4 L 168.5 56.7 L 165.8 59.2 L 164.91525421142578 59.96271190643311 L 174.8 68.2 L 174.8 72.2 L 150.32295083999634 72.2 L 159.7 77.7 L 161.6 80.8 L 156.95185556411744 81.36098299026489 L 155.5 83.2 L 153.9 85.2 L 152.1 87.3 L 150.3 89.5 L 146.1 94.1 L 143.7 96.6 L 143.53703699111938 96.8 L 162.51818180084229 96.8 L 170.7 87.8 L 180.7 96.8 L 180.7 100.8 L 81.6 100.8 L 81.6 96.8 L 140.72580642700194 96.8 L 141.5 95.2 L 142.6 92.0 L 143.7 89.0 L 144.7 86.2 L 145.7 83.6 L 146.5 81.1 L 147.2 78.8 L 147.9 76.6 L 148.4 74.6 L 148.57633285522462 73.76241874694824 L 148.4 73.7 L 148.77241382598876 72.83103446960449 L 148.8 72.7 L 148.82387733459473 72.71095294952393 L 149.04285717010498 72.2 L 88.4 72.2 Z M 110.2 86.9 L 109.8 85.1 L 109.3 83.3 L 108.6 81.5 L 107.9 79.6 L 107.0 77.7 L 106.0 75.7 L 104.4 74.1 L 105.6 72.7 L 107.5 74.1 L 109.6 75.1 L 111.6 76.4 L 113.5 77.7 L 115.3 79.3 L 116.9 80.9 L 118.5 82.7 L 119.9 84.6 L 122.3 88.8 L 121.6 93.3 L 118.1 96.2 L 113.5 95.6 L 110.7 92.0 L 110.5 88.6 Z " />
</g>
</svg>
