<svg xmlns="http://www.w3.org/2000/svg" xmlns:xlink="http://www.w3.org/1999/xlink" version="1.1" baseProfile="full" viewBox="0 0 200 200" width="200" height="200">
<g fill="black">
<path d="M 122.7 176.8 L 142.7 176.8 L 143.9 176.7 L 144.9 176.6 L 145.4 176.4 L 145.8 176.2 L 146.1 175.9 L 146.3 175.5 L 146.5 174.9 L 146.6 174.0 L 146.7 172.8 L 146.7 166.1 L 54.2 166.1 L 54.2 182.0 L 42.2 188.0 L 42.2 126.8 L 54.2 132.8 L 146.7 132.8 L 152.7 127.8 L 163.7 136.8 L 158.7 140.8 L 158.7 172.8 L 158.6 175.3 L 158.1 177.8 L 157.3 180.2 L 156.1 182.5 L 154.5 184.5 L 152.4 186.2 L 150.2 187.4 L 147.8 188.2 L 145.3 188.6 L 142.7 188.8 L 142.7 182.8 L 122.7 179.8 Z M 54.2 151.4 L 54.2 162.1 L 146.7 162.1 L 146.7 151.4 Z M 54.2 136.8 L 54.2 147.4 L 146.7 147.4 L 146.7 136.8 Z M 47.4 96.7 L 86.5 96.7 L 92.5 91.7 L 103.5 100.7 L 98.5 104.7 L 98.5 121.6 L 86.5 127.6 L 86.5 121.6 L 47.4 121.6 L 35.4 127.6 L 35.4 90.7 Z M 154.3 121.5 L 148.4 118.4 L 143.0 114.8 L 139.54551753997802 111.90951471328735 L 135.3 114.5 L 128.8 117.4 L 121.9 119.7 L 114.6 121.2 L 106.8 122.1 L 106.5 120.3 L 113.6 117.6 L 120.1 114.6 L 126.0 111.5 L 131.3 108.0 L 133.76243495941162 106.05057229995728 L 130.0 101.1 L 126.7 95.5 L 124.2 89.6 L 122.73230772018432 84.3 L 112.7 84.3 L 112.7 80.3 L 132.2 80.3 L 132.2 50.9 L 144.2 52.9 L 147.2 54.9 L 144.2 56.7 L 144.2 65.1 L 154.37777776718139 65.1 L 160.2 58.55 L 161.6 56.1 L 163.4 52.8 L 165.2 49.8 L 166.7 47.1 L 168.1 44.5 L 169.4 42.2 L 169.53636360168457 41.9 L 33.091891860961915 41.9 L 33.2 42.7 L 33.3 46.3 L 33.0 49.8 L 32.2 53.2 L 31.1 56.6 L 29.5 59.8 L 27.5 62.8 L 25.1 65.6 L 20.8 66.9 L 16.7 64.9 L 15.3 60.5 L 17.4 56.4 L 19.4 55.1 L 21.2 53.6 L 22.8 51.8 L 24.3 49.9 L 25.7 47.6 L 26.8 45.1 L 27.8 42.2 L 28.0 41.4 L 28.0 37.9 L 28.788571453094484 37.9 L 29.2 35.5 L 29.2 31.8 L 31.0 31.5 L 31.8 35.3 L 32.43243246078491 37.9 L 94.0 37.9 L 94.0 12.9 L 106.0 14.9 L 109.0 16.9 L 106.0 18.7 L 106.0 37.9 L 171.0 37.9 L 171.60983610153198 37.39180326461792 L 172.0 36.5 L 172.37275743484497 36.75603542327881 L 177.0 32.9 L 188.0 41.9 L 183.0 44.9 L 177.85714282989503 47.04285717010498 L 176.9 48.0 L 174.9 49.8 L 172.7 51.8 L 170.3 54.0 L 167.6 56.3 L 164.8 58.7 L 163.00564708709717 60.20494117736816 L 168.6 65.1 L 168.6 69.1 L 144.2 69.1 L 144.2 80.3 L 151.7 80.3 L 157.7 75.3 L 168.7 84.3 L 163.7 87.3 L 161.22437810897827 88.33150911331177 L 159.9 90.9 L 156.1 96.8 L 151.6 102.1 L 147.80935440063476 105.73592538833618 L 148.6 106.2 L 153.4 108.6 L 158.6 110.5 L 164.1 112.0 L 169.9 113.1 L 179.1 115.0 L 167.3 126.0 L 160.6 124.0 Z M 47.4 100.7 L 47.4 117.6 L 86.5 117.6 L 86.5 100.7 Z M 127.9 87.6 L 131.7 92.3 L 135.6 96.5 L 139.7 100.2 L 139.97856464385987 100.41378211975098 L 140.3 100.1 L 144.0 95.6 L 147.2 90.8 L 149.9 85.6 L 150.41071424484252 84.3 L 125.4884614944458 84.3 Z M 22.4 84.8 L 61.0 84.8 L 61.0 68.2 L 44.90833330154419 68.2 L 43.9 69.3 L 41.5 71.6 L 38.9 73.8 L 36.2 75.9 L 33.3 77.9 L 30.2 79.7 L 27.2 81.6 L 26.1 80.2 L 28.5 77.6 L 30.4 74.8 L 32.3 72.1 L 34.0 69.4 L 35.5 66.8 L 36.9 64.2 L 38.1 61.6 L 39.2 59.1 L 40.1 56.5 L 40.600693988800046 54.93533124923706 L 40.5 54.9 L 40.84146337509155 54.18292684555054 L 40.9 54.0 L 40.92357139587402 54.01049995422363 L 41.5 52.8 L 51.9 58.9 L 53.8 61.9 L 49.581818199157716 62.40909090042114 L 48.273076915740965 64.2 L 61.0 64.2 L 61.0 51.0 L 73.0 53.0 L 76.0 55.0 L 73.0 56.8 L 73.0 64.2 L 82.71818180084229 64.2 L 90.9 55.2 L 100.9 64.2 L 100.9 68.2 L 73.0 68.2 L 73.0 84.8 L 93.31818180084228 84.8 L 101.5 75.8 L 111.5 84.8 L 111.5 88.8 L 22.4 88.8 Z " />
</g>
</svg>
