<svg xmlns="http://www.w3.org/2000/svg" xmlns:xlink="http://www.w3.org/1999/xlink" version="1.1" baseProfile="full" viewBox="0 0 200 200" width="200" height="200">
<g fill="black">
<path d="M 160.1 183.9 L 156.0 182.1 L 151.2 180.3 L 145.8 178.5 L 139.9 176.8 L 133.4 175.0 L 126.3 173.2 L 118.6 171.2 L 110.4 169.1 L 110.7 167.3 L 119.2 167.4 L 127.1 167.9 L 134.5 168.5 L 141.4 169.3 L 147.8 170.3 L 153.6 171.3 L 159.0 172.5 L 163.8 173.8 L 168.2 175.2 L 172.2 176.8 L 175.0 180.4 L 174.6 185.0 L 171.0 187.8 L 166.5 187.4 L 163.6 185.6 Z M 80.23756771087646 164.96026487350463 L 88.3 172.2 L 88.5 175.4 L 84.63648290634156 173.77007875442504 L 84.1 174.0 L 79.7 175.5 L 74.8 176.9 L 69.5 178.3 L 63.7 179.6 L 57.4 180.9 L 50.6 182.2 L 43.3 183.4 L 35.6 184.6 L 27.3 185.5 L 18.5 186.3 L 18.2 184.5 L 26.5 181.8 L 34.4 179.3 L 41.9 177.0 L 48.8 174.8 L 55.2 172.7 L 61.1 170.7 L 66.5 168.7 L 71.3 166.7 L 75.6 164.8 L 78.51111993789672 163.42104845046998 L 78.5 163.4 L 78.51918563842773 163.41722784042358 L 79.4 163.0 Z M 58.0 117.9 L 142.0 117.9 L 148.0 112.9 L 159.0 121.9 L 154.0 125.9 L 154.0 162.7 L 142.0 168.7 L 142.0 162.7 L 58.0 162.7 L 46.0 168.7 L 46.0 111.9 Z M 58.0 149.1 L 58.0 158.7 L 142.0 158.7 L 142.0 149.1 Z M 58.0 135.5 L 58.0 145.1 L 142.0 145.1 L 142.0 135.5 Z M 58.0 121.9 L 58.0 131.5 L 142.0 131.5 L 142.0 121.9 Z M 27.7 115.3 L 27.7 82.0 L 39.7 88.0 L 160.2 88.0 L 166.2 83.0 L 177.2 92.0 L 172.2 96.0 L 172.2 109.3 L 160.2 115.3 L 160.2 109.3 L 39.7 109.3 Z M 39.7 92.0 L 39.7 105.3 L 71.9 105.3 L 71.9 92.0 Z M 83.9 92.0 L 83.9 105.3 L 116.0 105.3 L 116.0 92.0 Z M 128.0 92.0 L 128.0 105.3 L 160.2 105.3 L 160.2 92.0 Z M 28.0 76.7 L 94.0 76.7 L 94.0 65.5 L 26.593333339691164 65.5 L 24.6 67.8 L 21.5 70.3 L 17.0 70.8 L 13.3 68.1 L 12.8 63.5 L 15.6 59.9 L 17.6 59.0 L 19.5 57.7 L 21.3 56.1 L 23.0 53.9 L 24.6 51.3 L 26.1 48.1 L 27.4 44.4 L 28.5 40.2 L 29.5 35.5 L 30.1 30.4 L 31.9 30.3 L 32.5 35.6 L 32.87200002670288 38.7 L 94.0 38.7 L 94.0 12.8 L 106.0 14.8 L 109.0 16.8 L 106.0 18.6 L 106.0 38.7 L 170.0 38.7 L 176.0 33.7 L 187.0 42.7 L 182.0 45.7 L 177.9165467262268 47.40143880844116 L 177.0 48.6 L 175.5 50.6 L 173.8 52.7 L 173.6875 52.84375 L 174.0 52.5 L 184.0 61.5 L 184.0 65.5 L 106.0 65.5 L 106.0 76.7 L 157.7777777671814 76.7 L 164.0 69.7 L 172.0 76.7 L 172.0 80.7 L 28.0 80.7 Z M 33.1 42.7 L 33.1 45.3 L 32.8 49.7 L 32.1 53.9 L 30.9 57.8 L 29.3 61.5 L 94.0 61.5 L 94.0 49.6 L 106.0 51.6 L 109.0 53.6 L 106.0 55.4 L 106.0 61.5 L 164.57058820724487 61.5 L 165.6 59.0 L 166.6 55.7 L 167.4 52.6 L 168.2 49.8 L 168.9 47.3 L 169.5 45.0 L 169.9 43.0 L 169.95 42.7 Z " />
</g>
</svg>
