<svg xmlns="http://www.w3.org/2000/svg" xmlns:xlink="http://www.w3.org/1999/xlink" version="1.1" baseProfile="full" viewBox="0 0 200 200" width="200" height="200">
<g fill="black">
<path d="M 147.1 180.2 L 165.1 180.2 L 166.3 180.1 L 167.2 179.9 L 168.1 179.6 L 168.5 179.2 L 168.7 178.9 L 168.8 178.3 L 169.0 177.4 L 169.1 176.2 L 169.1 144.6 L 132.5 144.6 L 132.5 161.77868852615356 L 134.1 161.7 L 146.5 161.5 L 147.59676113128663 161.5348177909851 L 146.7 160.1 L 144.9 157.6 L 142.9 155.0 L 140.8 152.4 L 138.2 150.0 L 139.2 148.5 L 142.4 150.3 L 145.6 151.9 L 148.6 153.6 L 151.3 155.5 L 153.9 157.6 L 156.3 159.7 L 158.5 162.0 L 160.5 164.5 L 162.3 167.0 L 163.9 169.7 L 163.7 174.3 L 160.4 177.5 L 155.8 177.3 L 152.7 174.0 L 152.2 171.8 L 151.5 169.6 L 150.6 167.3 L 149.5 164.9 L 149.33691759109496 164.59892473220825 L 147.0 165.3 L 141.0 166.9 L 135.0 168.3 L 128.9 169.5 L 122.9 170.7 L 110.9 172.9 L 104.9 173.9 L 98.9 174.8 L 97.12149858474731 175.07129678726196 L 95.3 178.5 L 93.0 175.7 L 89.8 164.0 L 91.8 163.8 L 115.8 162.6 L 120.5 162.3688524246216 L 120.5 144.6 L 83.8 144.6 L 83.8 185.6 L 71.8 191.6 L 71.8 134.6 L 83.8 140.6 L 120.5 140.6 L 120.5 128.9 L 93.8 128.9 L 81.8 134.9 L 81.8 85.1 L 93.8 91.1 L 159.1 91.1 L 165.1 86.1 L 176.1 95.1 L 171.1 99.1 L 171.1 128.9 L 159.1 134.9 L 159.1 128.9 L 132.5 128.9 L 132.5 140.6 L 169.1 140.6 L 175.1 135.6 L 186.1 144.6 L 181.1 148.6 L 181.1 176.2 L 180.9 178.7 L 180.5 181.2 L 179.7 183.6 L 178.5 185.9 L 176.8 187.9 L 174.8 189.5 L 172.5 190.8 L 170.1 191.6 L 167.6 192.0 L 165.1 192.2 L 165.1 186.2 L 147.1 183.2 Z M 37.5 190.6 L 33.5 188.4 L 32.1 184.1 L 32.7 179.0 L 32.8 174.4 L 32.4 170.3 L 31.6 166.6 L 30.3 163.2 L 28.4 160.0 L 26.0 157.1 L 22.9 154.3 L 19.1 151.7 L 14.5 149.5 L 15.0 147.7 L 20.3 148.6 L 25.3 150.0 L 29.7 152.2 L 31.540169143676756 153.53412265777587 L 34.0 149.5 L 37.1 144.6 L 40.7 138.8 L 45.0 132.1 L 49.9 124.6 L 55.4 116.2 L 61.8 107.1 L 68.8 97.1 L 70.4 98.0 L 65.0 109.0 L 60.1 118.9 L 48.1 142.9 L 45.2 149.0 L 42.9 154.1 L 41.2 158.3 L 40.1 161.4 L 39.75548391342163 162.77806453704835 L 39.9 163.0 L 42.0 167.8 L 43.3 173.2 L 44.0 179.0 L 44.1 185.2 L 41.9 189.2 Z M 93.8 112.0 L 93.8 124.9 L 120.5 124.9 L 120.5 112.0 Z M 132.5 112.0 L 132.5 124.9 L 159.1 124.9 L 159.1 112.0 Z M 32.8 111.2 L 31.5 109.6 L 29.9 108.0 L 27.9 106.3 L 25.6 104.6 L 23.0 102.9 L 20.0 101.2 L 16.7 99.3 L 13.0 97.9 L 13.4 96.1 L 17.4 96.8 L 21.3 97.3 L 24.9 97.9 L 28.3 98.7 L 31.4 99.6 L 34.4 100.7 L 37.1 102.0 L 39.6 103.4 L 41.9 105.1 L 44.0 107.0 L 45.0 111.5 L 42.7 115.4 L 38.2 116.4 L 34.3 114.0 L 33.7 112.7 Z M 93.8 95.1 L 93.8 108.0 L 120.5 108.0 L 120.5 95.1 Z M 132.5 95.1 L 132.5 108.0 L 159.1 108.0 L 159.1 95.1 Z M 152.5 58.3 L 155.5 60.3 L 152.5 62.1 L 152.5 70.2 L 166.7 70.2 L 176.7 60.2 L 188.7 70.2 L 188.7 74.2 L 152.5 74.2 L 152.5 83.5 L 140.5 89.5 L 140.5 74.2 L 112.4 74.2 L 112.4 83.5 L 100.4 89.5 L 100.4 74.2 L 64.2 74.2 L 64.2 70.2 L 100.4 70.2 L 100.4 56.3 L 112.4 58.3 L 115.4 60.3 L 112.4 62.1 L 112.4 70.2 L 140.5 70.2 L 140.5 56.3 Z M 46.5 75.8 L 45.2 74.2 L 43.5 72.6 L 41.6 70.9 L 39.4 69.2 L 36.9 67.5 L 34.1 65.7 L 31.1 63.9 L 28.286206912994384 62.74137935638428 L 27.2 64.5 L 24.6 67.4 L 21.5 69.9 L 17.0 70.5 L 13.3 67.7 L 12.8 63.1 L 15.6 59.5 L 17.6 58.6 L 19.5 57.4 L 21.3 55.7 L 23.0 53.6 L 24.7 51.0 L 26.1 47.8 L 27.4 44.2 L 28.5 40.0 L 29.5 35.3 L 30.1 30.2 L 31.9 30.1 L 32.5 35.4 L 32.87200002670288 38.5 L 94.0 38.5 L 94.0 12.7 L 106.0 14.7 L 109.0 16.7 L 106.0 18.5 L 106.0 38.5 L 170.0 38.5 L 170.56999998092653 38.025 L 170.9 37.2 L 171.26992235183715 37.441731452941895 L 176.0 33.5 L 187.0 42.5 L 182.0 45.5 L 177.54285717010498 47.35714282989502 L 177.4 47.5 L 175.4 49.4 L 173.2 51.4 L 170.9 53.5 L 168.4 55.7 L 165.7 58.0 L 162.8 60.3 L 159.7 62.6 L 156.6 65.3 L 155.3 64.1 L 157.7 60.8 L 159.7 57.5 L 161.6 54.4 L 163.3 51.4 L 165.0 48.7 L 166.5 46.0 L 167.9 43.6 L 168.47391300201417 42.5 L 33.1 42.5 L 33.1 45.1 L 32.8 49.5 L 32.1 53.6 L 30.9 57.5 L 29.337673091888426 61.01523542404175 L 31.9 61.5 L 35.5 61.9 L 38.9 62.5 L 42.2 63.3 L 45.2 64.3 L 48.1 65.3 L 50.7 66.6 L 53.2 68.0 L 55.6 69.6 L 57.7 71.4 L 58.9 75.9 L 56.7 79.9 L 52.3 81.1 L 48.3 78.9 L 47.5 77.4 Z " />
</g>
</svg>
