<svg xmlns="http://www.w3.org/2000/svg" xmlns:xlink="http://www.w3.org/1999/xlink" version="1.1" baseProfile="full" viewBox="0 0 200 200" width="200" height="200">
<g fill="black">
<path d="M 105.51663408279418 127.99001960754394 L 105.17414827346802 130.88797597885133 L 106.7 137.5 L 109.6 144.3 L 113.5 150.4 L 117.11643838882446 154.3780821800232 L 120.3 152.9 L 125.9 150.4 L 131.2 148.1 L 136.5 145.9 L 141.6 143.7 L 146.5 141.6 L 151.3 139.4 L 156.0 137.3 L 160.4 135.2 L 163.81624393463136 133.53160181045533 L 163.8 133.5 L 163.82849645614624 133.52561798095704 L 164.7 133.1 L 165.49857864379882 135.02700510025025 L 173.7 142.4 L 173.9 145.6 L 169.99242296218873 143.91673603057862 L 169.3 144.2 L 164.6 145.8 L 159.8 147.3 L 154.8 148.9 L 149.6 150.3 L 144.3 151.7 L 138.9 153.1 L 133.2 154.4 L 127.4 155.5 L 121.4 156.5 L 119.54124746322631 156.70985918045045 L 124.8 160.8 L 132.4 165.2 L 141.4 169.1 L 151.8 172.5 L 163.7 175.3 L 177.0 177.6 L 186.7 179.2 L 174.9 190.6 L 160.9 187.5 L 148.3 183.7 L 137.1 179.3 L 127.4 174.1 L 119.1 168.2 L 112.4 161.6 L 107.4 154.4 L 104.1 146.5 L 103.00288648605347 140.42930526733397 L 101.6 145.0 L 96.5 154.2 L 89.7 162.2 L 81.2 169.2 L 71.2 175.0 L 59.5 179.8 L 46.3 183.7 L 31.5 186.4 L 15.1 188.1 L 14.8 186.3 L 30.7 182.7 L 44.8 178.5 L 57.1 173.7 L 67.5 168.3 L 76.2 162.4 L 83.0 155.8 L 88.1 148.8 L 91.5 141.2 L 93.5 132.9 L 94.0 123.9 L 94.0 121.5 L 106.0 123.9 L 109.0 125.9 Z M 27.0 160.9 L 27.8 156.4 L 31.5 153.7 L 35.7 152.9 L 39.4 152.0 L 42.6 150.9 L 45.4 149.6 L 47.7 148.2 L 49.7 146.6 L 51.3 144.7 L 52.7 142.5 L 53.8 139.8 L 54.2 136.7 L 56.0 136.5 L 56.5 139.9 L 56.9 143.4 L 56.4 146.9 L 55.2 150.3 L 53.2 153.5 L 50.6 156.5 L 47.3 159.2 L 43.5 161.5 L 39.2 163.6 L 34.3 165.3 L 29.8 164.6 Z M 50.4 55.7 L 147.6 55.7 L 153.6 50.7 L 164.6 59.7 L 159.6 63.7 L 159.6 122.2 L 147.6 128.2 L 147.6 120.2 L 50.4 120.2 L 50.4 132.2 L 38.4 138.2 L 38.4 49.7 Z M 50.4 59.7 L 50.4 116.2 L 147.6 116.2 L 147.6 59.7 Z M 119.6 107.3 L 113.8 103.6 L 108.7 99.3 L 104.6 94.5 L 101.3 89.3 L 99.1 83.7 L 98.91777782440185 82.87299146652222 L 97.9 85.3 L 94.4 90.9 L 90.0 95.8 L 84.8 100.0 L 78.9 103.4 L 72.2 106.2 L 64.9 108.2 L 56.8 109.5 L 56.4 107.8 L 63.7 104.6 L 70.0 101.3 L 75.5 97.8 L 80.1 94.0 L 83.8 90.0 L 86.6 85.7 L 88.8 81.1 L 90.2 76.2 L 90.9 70.9 L 91.0 65.1 L 91.0 62.7 L 103.0 65.1 L 106.0 67.1 L 102.54761905670166 69.1714285850525 L 102.2 72.3 L 102.15365858078003 72.48536586761475 L 103.5 76.3 L 105.7 80.9 L 108.4 84.9 L 111.6 88.4 L 115.4 91.5 L 119.8 94.3 L 124.9 96.8 L 130.6 98.9 L 137.1 100.7 L 145.2 102.9 L 133.6 113.4 L 126.2 110.6 Z M 33.1 41.8 L 32.8 46.1 L 32.0 50.2 L 30.9 54.0 L 29.3 57.5 L 27.2 60.8 L 24.6 63.6 L 21.5 66.1 L 16.9 66.6 L 13.3 63.7 L 12.9 59.2 L 15.7 55.6 L 17.7 54.7 L 19.6 53.6 L 21.4 52.0 L 23.1 50.0 L 24.7 47.4 L 26.2 44.4 L 27.4 40.9 L 28.6 36.9 L 29.6 32.4 L 30.1 27.4 L 31.9 27.3 L 32.5 32.4 L 32.8125 35.4 L 94.0 35.4 L 94.0 10.4 L 106.0 12.4 L 109.0 14.4 L 106.0 16.2 L 106.0 35.4 L 170.0 35.4 L 176.0 30.4 L 187.0 39.4 L 182.0 42.4 L 177.75748033523558 44.16771650314331 L 177.0 45.1 L 175.5 46.9 L 173.8 48.9 L 172.0 51.1 L 170.0 53.5 L 167.7 56.1 L 165.7 59.1 L 164.2 58.2 L 165.7 54.9 L 166.6 51.7 L 167.5 48.7 L 168.3 46.0 L 168.9 43.6 L 169.5 41.3 L 169.9 39.4 L 33.04782609939575 39.4 Z " />
</g>
</svg>
