<svg xmlns="http://www.w3.org/2000/svg" xmlns:xlink="http://www.w3.org/1999/xlink" version="1.1" baseProfile="full" viewBox="0 0 200 200" width="200" height="200">
<g fill="black">
<path d="M 157.9 161.7 L 149.4 155.7 L 141.4 149.1 L 133.9 141.8 L 126.9 134.1 L 120.4 125.7 L 114.4 116.8 L 109.2 107.2 L 106.0 100.17391300201416 L 106.0 186.4 L 94.0 192.4 L 94.0 111.0 L 88.8 118.8 L 81.6 128.0 L 73.8 136.6 L 65.4 144.5 L 56.3 151.8 L 46.7 158.4 L 36.5 164.3 L 25.7 169.3 L 14.3 173.6 L 13.6 171.9 L 24.0 166.0 L 33.8 159.7 L 43.0 153.0 L 51.6 145.9 L 59.5 138.3 L 66.9 130.3 L 73.7 121.8 L 79.9 112.7 L 85.5 103.2 L 88.2 97.8 L 18.0 97.8 L 18.0 93.8 L 94.0 93.8 L 94.0 59.3 L 106.0 61.3 L 109.0 63.3 L 106.0 65.1 L 106.0 93.8 L 160.0 93.8 L 170.0 83.8 L 182.0 93.8 L 182.0 97.8 L 107.38181819915772 97.8 L 112.7 105.0 L 119.3 113.4 L 126.0 121.2 L 133.0 128.4 L 140.3 135.1 L 147.9 141.1 L 155.8 146.7 L 164.0 151.6 L 172.6 156.1 L 181.6 159.9 L 187.7 162.6 L 176.3 172.0 L 166.9 167.2 Z M 140.2 80.1 L 138.2 77.9 L 133.7 73.4 L 131.2 71.1 L 128.5 68.8 L 125.7 66.4 L 122.7 63.9 L 119.4 61.5 L 120.3 59.9 L 124.1 61.4 L 127.8 62.6 L 131.4 64.0 L 134.8 65.5 L 138.1 67.0 L 141.2 68.7 L 144.1 70.4 L 146.9 72.1 L 149.6 73.9 L 152.1 75.8 L 153.8 80.1 L 152.1 84.3 L 147.8 86.0 L 143.6 84.3 L 142.0 82.2 Z M 13.3 67.7 L 12.8 63.1 L 15.6 59.5 L 17.6 58.6 L 19.5 57.4 L 21.3 55.7 L 23.0 53.6 L 24.7 51.0 L 26.1 47.8 L 27.4 44.2 L 28.5 40.0 L 29.5 35.3 L 30.1 30.2 L 31.9 30.1 L 32.5 35.4 L 32.87200002670288 38.5 L 94.0 38.5 L 94.0 12.7 L 106.0 14.7 L 109.0 16.7 L 106.0 18.5 L 106.0 38.5 L 170.0 38.5 L 170.56999998092653 38.025 L 170.9 37.2 L 171.26992235183715 37.441731452941895 L 176.0 33.5 L 187.0 42.5 L 182.0 45.5 L 177.54285717010498 47.35714282989502 L 177.4 47.5 L 175.4 49.4 L 173.2 51.4 L 170.9 53.5 L 168.4 55.7 L 165.7 58.0 L 162.8 60.3 L 159.7 62.6 L 156.6 65.3 L 155.3 64.1 L 157.7 60.8 L 159.7 57.5 L 161.6 54.4 L 163.3 51.4 L 165.0 48.7 L 166.5 46.0 L 167.9 43.6 L 168.47391300201417 42.5 L 33.1 42.5 L 33.1 45.1 L 32.8 49.5 L 32.1 53.6 L 30.9 57.5 L 29.3 61.1 L 27.2 64.5 L 24.6 67.4 L 21.5 69.9 L 17.0 70.5 Z " />
</g>
</svg>
