<svg xmlns="http://www.w3.org/2000/svg" xmlns:xlink="http://www.w3.org/1999/xlink" version="1.1" baseProfile="full" viewBox="0 0 200 200" width="200" height="200">
<g fill="black">
<path d="M 30.0 183.0 L 30.0 135.0 L 42.0 137.0 L 45.0 139.0 L 42.0 140.8 L 42.0 173.0 L 54.5 173.0 L 54.5 124.0 L 26.0 124.0 L 26.0 120.0 L 54.5 120.0 L 54.5 87.0 L 43.936170196533205 87.0 L 43.3 88.3 L 40.8 93.0 L 38.0 97.6 L 34.9 102.0 L 31.5 106.3 L 27.7 110.4 L 26.2 109.5 L 28.2 104.4 L 30.2 99.4 L 32.1 94.6 L 33.9 89.8 L 35.5 85.0 L 36.9 80.3 L 38.2 75.7 L 39.3 71.0 L 40.2 66.4 L 40.76193466186523 62.70728645324707 L 40.7 62.7 L 41.2 59.9 L 52.6 64.1 L 55.2 66.7 L 51.515619945526126 67.9727858543396 L 51.2 69.1 L 49.6 74.0 L 47.7 78.8 L 45.8625 83.0 L 67.0 83.0 L 77.0 73.0 L 89.0 83.0 L 89.0 87.0 L 65.5 87.0 L 65.5 120.0 L 75.0 120.0 L 85.0 110.0 L 97.0 120.0 L 97.0 124.0 L 65.5 124.0 L 65.5 173.0 L 77.5 173.0 L 77.5 134.0 L 88.5 136.0 L 91.2 138.0 L 88.5 139.72340421676637 L 88.5 181.0 L 77.5 186.5 L 77.5 177.0 L 42.0 177.0 Z M 152.5 157.7 L 151.7 155.2 L 150.9 152.8 L 150.0 150.4 L 149.0 148.0 L 147.9 145.6 L 146.8 143.3 L 145.6 140.9 L 144.1 138.8 L 145.3 137.5 L 147.4 139.2 L 149.8 140.7 L 152.0 142.4 L 154.2 144.2 L 158.2 148.4 L 160.0 150.7 L 161.8 153.1 L 165.0 158.3 L 164.9 162.9 L 161.7 166.1 L 161.33035717010497 166.09196424484253 L 172.5 175.4 L 172.5 179.4 L 93.4 179.4 L 93.4 175.4 L 127.0 175.4 L 127.0 128.3 L 102.1 128.3 L 102.1 124.3 L 127.0 124.3 L 127.0 82.1 L 98.0 82.1 L 98.0 78.1 L 145.9 78.1 L 155.9 68.1 L 157.78048782348634 69.66707315444947 L 159.5 66.4 L 161.3 62.8 L 163.1 59.4 L 167.6 50.4 L 168.7111110687256 47.9 L 33.24285717010498 47.9 L 33.3 51.1 L 33.0 56.2 L 32.2 61.0 L 31.1 65.5 L 29.5 69.7 L 27.5 73.4 L 24.9 76.8 L 21.8 79.7 L 17.3 80.6 L 13.5 78.1 L 12.6 73.6 L 15.1 69.8 L 17.1 68.6 L 19.1 67.0 L 21.0 64.8 L 22.8 62.0 L 24.4 58.7 L 25.9 54.7 L 27.2 50.2 L 28.3 45.2 L 29.4 39.6 L 30.1 33.4 L 31.9 33.3 L 32.7 39.6 L 33.06440677642822 43.9 L 94.0 43.9 L 94.0 13.0 L 106.0 15.0 L 109.0 17.0 L 106.0 18.8 L 106.0 43.9 L 170.0 43.9 L 170.45806455612183 43.51827955245972 L 170.7 42.9 L 170.99863481521606 43.06780433654785 L 176.0 38.9 L 187.0 47.9 L 182.0 50.9 L 178.29032258987428 52.44569892883301 L 177.7 53.2 L 175.7 55.6 L 173.5 58.1 L 171.2 60.7 L 168.6 63.4 L 165.9 66.2 L 163.0 69.1 L 160.17365264892578 71.66137723922729 L 167.9 78.1 L 167.9 82.1 L 139.0 82.1 L 139.0 124.3 L 141.8 124.3 L 151.8 114.3 L 163.8 124.3 L 163.8 128.3 L 139.0 128.3 L 139.0 175.4 L 150.5 175.4 L 159.840425491333 166.059574508667 L 157.1 166.0 L 153.9 162.8 L 153.2 160.2 Z " />
</g>
</svg>
