<svg xmlns="http://www.w3.org/2000/svg" xmlns:xlink="http://www.w3.org/1999/xlink" version="1.1" baseProfile="full" viewBox="0 0 200 200" width="200" height="200">
<g fill="black">
<path d="M 89.1 181.7 L 84.3 177.6 L 79.8 173.0 L 75.8 167.9 L 72.1 162.4 L 68.8 156.5 L 66.0 150.1 L 63.7 143.2 L 63.21581315994263 141.1208445549011 L 62.9 142.0 L 58.4 151.5 L 53.2 160.0 L 47.3 167.7 L 40.8 174.4 L 33.5 180.2 L 25.6 184.8 L 17.1 188.3 L 16.3 186.7 L 23.6 181.6 L 30.2 176.0 L 36.1 169.8 L 41.3 163.0 L 46.0 155.6 L 50.0 147.4 L 53.5 138.5 L 54.04285717010498 136.6 L 19.3 136.6 L 19.3 132.6 L 55.18571424484253 132.6 L 56.3 128.7 L 58.5 118.3 L 59.778761100769046 109.8 L 43.18511905670166 109.8 L 40.2 118.3 L 26.9 119.9 L 47.3 62.1 L 57.9 67.9 L 60.1 70.8 L 56.60911045074463 71.5757532119751 L 44.58988094329834 105.8 L 60.1 105.8 L 66.1 100.8 L 77.1 109.8 L 72.1 112.8 L 71.18363637924195 113.18181819915772 L 69.7 120.6 L 66.6 131.7 L 66.27669906616211 132.6 L 82.6 132.6 L 92.6 122.6 L 104.6 132.6 L 104.6 136.6 L 64.83980579376221 136.6 L 64.72955961227417 136.90690155029296 L 67.5 141.5 L 71.2 147.4 L 75.0 152.7 L 78.9 157.6 L 82.9 161.9 L 87.0 165.8 L 91.3 169.1 L 95.8 172.0 L 100.4 174.4 L 105.2 176.4 L 111.3 179.1 L 99.9 188.5 L 94.3 185.4 Z M 125.1 178.8 L 113.1 184.8 L 113.1 73.2 L 125.1 79.2 L 158.2 79.2 L 164.2 74.2 L 175.2 83.2 L 170.2 87.2 L 170.2 158.8 L 176.2 162.8 L 176.2 166.8 L 125.1 166.8 Z M 125.1 83.2 L 125.1 162.8 L 158.2 162.8 L 158.2 83.2 Z M 13.5 78.1 L 12.6 73.6 L 15.1 69.8 L 17.1 68.6 L 19.1 67.0 L 21.0 64.8 L 22.8 62.0 L 24.4 58.7 L 25.9 54.7 L 27.2 50.2 L 28.3 45.2 L 29.4 39.6 L 30.1 33.4 L 31.9 33.3 L 32.7 39.6 L 33.06440677642822 43.9 L 94.0 43.9 L 94.0 13.0 L 106.0 15.0 L 109.0 17.0 L 106.0 18.8 L 106.0 43.9 L 170.0 43.9 L 170.45806455612183 43.51827955245972 L 170.7 42.9 L 170.99863481521606 43.06780433654785 L 176.0 38.9 L 187.0 47.9 L 182.0 50.9 L 178.29032258987428 52.44569892883301 L 177.7 53.2 L 175.7 55.6 L 173.5 58.1 L 171.2 60.7 L 168.6 63.4 L 165.9 66.2 L 163.0 69.1 L 159.8 72.0 L 156.7 75.2 L 155.2 74.1 L 157.5 70.2 L 159.5 66.4 L 161.3 62.8 L 163.1 59.4 L 167.6 50.4 L 168.7111110687256 47.9 L 33.24285717010498 47.9 L 33.3 51.1 L 33.0 56.2 L 32.2 61.0 L 31.1 65.5 L 29.5 69.7 L 27.5 73.4 L 24.9 76.8 L 21.8 79.7 L 17.3 80.6 Z " />
</g>
</svg>
