<svg xmlns="http://www.w3.org/2000/svg" xmlns:xlink="http://www.w3.org/1999/xlink" version="1.1" baseProfile="full" viewBox="0 0 200 200" width="200" height="200">
<g fill="black">
<path d="M 51.2 178.0 L 69.2 178.0 L 70.4 177.9 L 71.3 177.8 L 71.9 177.6 L 72.5 177.3 L 72.8 176.7 L 73.0 176.1 L 73.1 175.2 L 73.2 174.0 L 73.2 150.8012345314026 L 70.3 153.2 L 62.1 159.6 L 53.5 165.6 L 44.8 171.3 L 35.8 176.5 L 26.4 181.3 L 16.8 185.6 L 16.0 184.0 L 24.5 178.0 L 32.9 172.0 L 41.1 165.9 L 49.0 159.5 L 56.8 153.0 L 64.3 146.2 L 65.60801963806152 144.92831420898438 L 64.0 145.4 L 56.9 147.3 L 50.3 149.1 L 44.1 150.7 L 38.3 152.2 L 33.0 153.6 L 28.1 154.9 L 23.743507957458498 156.06173124313355 L 22.2 159.7 L 19.6 157.2 L 15.4 145.7 L 17.4 145.4 L 21.5 144.9 L 26.1 144.4 L 30.6 143.86000003814698 L 30.6 69.8 L 42.6 75.8 L 44.888888931274415 75.8 L 45.9 74.5 L 47.7 71.6 L 49.3 68.9 L 50.9 66.4 L 52.4 63.9 L 53.8 61.6 L 55.0 59.4 L 56.2 57.3 L 57.2 55.3 L 57.67139463424682 54.304833602905276 L 57.5 54.2 L 58.5 52.8 L 67.8 60.5 L 69.0 63.8 L 64.53802537918091 63.415347003936766 L 64.2 63.7 L 62.3 65.4 L 60.2 67.1 L 58.0 68.9 L 55.7 70.7 L 53.2 72.5 L 50.6 74.4 L 48.463157939910886 75.8 L 73.2 75.8 L 79.2 70.8 L 90.2 79.8 L 85.2 83.8 L 85.2 124.52352943420411 L 85.4 124.3 L 91.9 116.5 L 91.93868227005005 116.53358125686646 L 92.3 116.1 L 101.0 124.4 L 102.0 127.8 L 98.36997690200806 127.17413396835327 L 93.7 132.1 L 86.2 139.4 L 85.2 140.31025638580323 L 85.2 174.0 L 85.1 176.6 L 84.6 179.1 L 83.8 181.5 L 82.6 183.7 L 80.9 185.7 L 78.9 187.4 L 76.7 188.6 L 74.3 189.4 L 71.8 189.9 L 69.2 190.0 L 69.2 184.0 L 51.2 181.0 Z M 130.0 178.0 L 146.0 178.0 L 147.3 177.9 L 148.2 177.8 L 148.8 177.6 L 149.1 177.4 L 149.3 177.3 L 149.6 176.7 L 149.8 176.1 L 150.0 175.2 L 150.0 96.9 L 95.6 96.9 L 95.6 92.9 L 150.0 92.9 L 150.0 52.8 L 157.76603775024415 54.09433965682983 L 159.7 51.0 L 161.7 48.1 L 163.5 45.4 L 165.1 42.8 L 166.6 40.3 L 168.0 38.0 L 168.28571424484252 37.5 L 33.04651165008545 37.5 L 33.1 39.8 L 32.7 43.9 L 32.0 47.8 L 30.8 51.5 L 29.2 54.9 L 27.1 58.0 L 24.5 60.8 L 21.4 63.2 L 16.8 63.5 L 13.3 60.6 L 12.9 56.1 L 15.8 52.5 L 17.8 51.7 L 19.7 50.7 L 21.5 49.2 L 23.2 47.3 L 24.8 45.0 L 26.2 42.2 L 27.5 38.9 L 28.6 35.1 L 29.6 30.8 L 30.1 26.1 L 31.9 26.0 L 32.5 30.9 L 32.78260869979859 33.5 L 94.0 33.5 L 94.0 9.8 L 106.0 11.8 L 109.0 13.8 L 106.0 15.6 L 106.0 33.5 L 170.0 33.5 L 170.64347829818726 32.96376810073853 L 171.1 32.0 L 171.47513809204102 32.2707181930542 L 176.0 28.5 L 187.0 37.5 L 182.0 40.5 L 176.97241382598878 42.594827556610106 L 175.3 44.1 L 173.1 45.9 L 170.8 47.8 L 168.3 49.8 L 165.6 51.8 L 162.7 53.9 L 161.49554138183595 54.715923595428464 L 162.0 54.8 L 165.0 56.8 L 162.0 58.6 L 162.0 92.9 L 164.3 92.9 L 174.3 82.9 L 186.3 92.9 L 186.3 96.9 L 162.0 96.9 L 162.0 174.0 L 161.9 176.6 L 161.4 179.1 L 160.6 181.5 L 159.4 183.7 L 157.8 185.7 L 155.8 187.4 L 153.5 188.6 L 151.1 189.4 L 148.6 189.9 L 146.0 190.0 L 146.0 184.0 L 130.0 181.0 Z M 121.2 136.6 L 119.7 133.8 L 118.0 130.9 L 115.8 127.9 L 113.4 124.9 L 110.5 121.9 L 107.3 118.8 L 103.8 115.6 L 99.9 112.4 L 100.8 110.9 L 105.5 112.9 L 110.0 114.9 L 114.2 117.2 L 118.0 119.6 L 121.5 122.3 L 124.7 125.1 L 127.6 128.0 L 130.2 131.2 L 132.4 134.5 L 134.3 138.0 L 134.1 142.6 L 130.7 145.7 L 126.2 145.5 L 123.0 142.2 L 122.3 139.4 Z M 42.6 122.5 L 42.6 142.3875 L 48.9 141.6 L 55.7 140.9 L 63.0 140.1 L 70.8 139.5 L 71.2232855796814 139.4690279006958 L 71.5 139.2 L 73.2 137.45211267471313 L 73.2 122.5 Z M 42.6 100.0 L 42.6 118.5 L 73.2 118.5 L 73.2 100.0 Z M 42.6 79.8 L 42.6 96.0 L 73.2 96.0 L 73.2 79.8 Z " />
</g>
</svg>
