<svg xmlns="http://www.w3.org/2000/svg" xmlns:xlink="http://www.w3.org/1999/xlink" version="1.1" baseProfile="full" viewBox="0 0 200 200" width="200" height="200">
<g fill="black">
<path d="M 44.8 190.6 L 44.8 141.1638298034668 L 42.2 143.1 L 37.0 146.5 L 31.6 149.8 L 25.8 153.0 L 19.5 155.9 L 18.6 154.4 L 23.6 149.8 L 28.4 145.5 L 33.0 141.3 L 37.3 137.2 L 41.3 133.2 L 45.0 129.3 L 48.4 125.4 L 51.4 121.6 L 54.2 117.9 L 56.05831289291382 115.03510093688965 L 56.0 115.0 L 57.1 113.5 L 66.3 121.2 L 67.6 124.5 L 63.744939994812015 124.23413381576538 L 63.1 125.0 L 59.5 128.7 L 56.49655170440674 131.54942531585692 L 56.8 131.6 L 57.7 132.2 L 98.38666667938233 132.2 L 98.6 132.0 L 101.0 128.2 L 102.4 126.4 L 103.7 124.6 L 105.0 122.7 L 106.4 120.9 L 107.8 119.0 L 109.1 117.2 L 109.1 55.2 L 121.1 61.2 L 154.5 61.2 L 159.54770641326905 56.99357795715332 L 159.6 56.9 L 161.5 53.7 L 163.3 50.7 L 165.0 47.8 L 166.5 45.2 L 167.8 42.7 L 168.45 41.4 L 33.14375 41.4 L 33.2 44.1 L 32.8 48.6 L 32.1 52.8 L 30.9 56.8 L 29.3 60.5 L 27.2 63.8 L 24.6 66.8 L 21.6 69.4 L 17.0 70.0 L 13.4 67.2 L 12.8 62.7 L 15.5 59.0 L 17.5 58.1 L 19.4 56.8 L 21.3 55.1 L 23.0 52.9 L 24.6 50.2 L 26.1 46.9 L 27.4 43.2 L 28.5 38.9 L 29.5 34.1 L 30.1 28.8 L 31.9 28.8 L 32.5 34.2 L 32.8764705657959 37.4 L 94.0 37.4 L 94.0 11.0 L 106.0 13.0 L 109.0 15.0 L 106.0 16.8 L 106.0 37.4 L 170.0 37.4 L 170.5760000228882 36.91999998092651 L 170.9 36.2 L 171.20469274520875 36.39608936309814 L 176.0 32.4 L 187.0 41.4 L 182.0 44.4 L 177.54285717010498 46.25714282989502 L 173.3 50.5 L 170.9 52.7 L 168.4 54.9 L 165.7 57.2 L 163.72247619628905 58.83657140731812 L 171.5 65.2 L 166.5 69.2 L 166.5 115.6 L 154.5 121.6 L 154.5 111.6 L 121.1 111.6 L 111.80656366348266 116.24671812057495 L 118.7 124.1 L 119.3 127.7 L 114.96166009902954 126.38300399780273 L 114.6 126.6 L 112.5 127.8 L 110.5 129.0 L 108.4 130.1 L 104.2 132.1 L 103.96666669845581 132.2 L 158.1777777671814 132.2 L 164.4 125.2 L 172.4 132.2 L 172.4 136.2 L 110.1 136.2 L 110.1 148.1 L 143.01818180084229 148.1 L 151.2 139.1 L 161.2 148.1 L 161.2 152.1 L 110.1 152.1 L 110.1 164.7 L 143.01818180084229 164.7 L 151.2 155.7 L 161.2 164.7 L 161.2 168.7 L 110.1 168.7 L 110.1 180.6 L 163.51818180084229 180.6 L 171.7 171.6 L 181.7 180.6 L 181.7 184.6 L 56.8 184.6 Z M 56.8 168.7 L 56.8 180.6 L 98.1 180.6 L 98.1 168.7 Z M 56.8 152.1 L 56.8 164.7 L 98.1 164.7 L 98.1 152.1 Z M 56.8 136.2 L 56.8 148.1 L 98.1 148.1 L 98.1 136.2 Z M 44.8 61.2 L 79.3 61.2 L 85.3 56.2 L 96.3 65.2 L 91.3 69.2 L 91.3 115.6 L 79.3 121.6 L 79.3 111.6 L 44.8 111.6 L 44.8 118.6 L 32.8 124.6 L 32.8 55.2 Z M 121.1 95.5 L 121.1 107.6 L 154.5 107.6 L 154.5 95.5 Z M 44.8 95.5 L 44.8 107.6 L 79.3 107.6 L 79.3 95.5 Z M 121.1 80.3 L 121.1 91.5 L 154.5 91.5 L 154.5 80.3 Z M 44.8 80.3 L 44.8 91.5 L 79.3 91.5 L 79.3 80.3 Z M 121.1 65.2 L 121.1 76.3 L 154.5 76.3 L 154.5 65.2 Z M 44.8 65.2 L 44.8 76.3 L 79.3 76.3 L 79.3 65.2 Z " />
</g>
</svg>
