<svg xmlns="http://www.w3.org/2000/svg" xmlns:xlink="http://www.w3.org/1999/xlink" version="1.1" baseProfile="full" viewBox="0 0 200 200" width="200" height="200">
<g fill="black">
<path d="M 70.0 176.6 L 90.0 176.6 L 91.2 176.5 L 92.1 176.4 L 92.7 176.2 L 93.0 176.0 L 93.2 175.8 L 93.4 175.7 L 93.5 175.3 L 93.7 174.7 L 93.9 173.8 L 94.0 172.6 L 94.0 148.3 L 17.0 148.3 L 17.0 144.3 L 161.0 144.3 L 171.0 134.3 L 183.0 144.3 L 183.0 148.3 L 106.0 148.3 L 106.0 172.6 L 105.8 175.2 L 105.4 177.6 L 104.6 180.1 L 103.3 182.3 L 101.7 184.3 L 99.7 186.0 L 97.4 187.2 L 95.0 188.0 L 92.5 188.5 L 90.0 188.6 L 90.0 182.6 L 70.0 179.6 Z M 67.4 161.3 L 68.1 164.8 L 64.28118810653686 163.79504947662355 L 63.9 164.1 L 60.1 166.7 L 55.9 169.3 L 51.4 171.8 L 46.6 174.2 L 41.5 176.5 L 36.0 178.6 L 30.1 180.6 L 23.9 182.5 L 17.3 184.0 L 16.6 182.3 L 22.5 178.9 L 28.0 175.7 L 33.1 172.7 L 38.0 169.7 L 42.4 166.8 L 46.5 163.9 L 50.2 161.0 L 53.6 158.2 L 56.5 155.4 L 58.328745460510255 153.42495489120483 L 58.3 153.4 L 59.3 152.4 Z M 159.8 176.8 L 156.8 174.3 L 153.4 171.8 L 149.6 169.4 L 145.3 166.9 L 140.7 164.5 L 135.7 162.0 L 130.4 159.5 L 124.7 156.8 L 125.2 155.1 L 131.5 155.9 L 137.5 157.0 L 143.1 158.4 L 148.3 160.0 L 153.3 161.8 L 157.9 163.8 L 162.2 165.9 L 166.1 168.2 L 169.8 170.6 L 173.1 173.3 L 174.8 177.6 L 173.1 181.8 L 168.8 183.5 L 164.6 181.7 L 162.4 179.3 Z M 160.0 127.9 L 160.0 131.9 L 40.0 131.9 L 40.0 127.9 L 145.7777777671814 127.9 L 152.0 120.9 Z M 17.3 109.9 L 22.8 108.6 L 28.5 107.2 L 34.3 105.8 L 40.4 104.2 L 45.0 103.01290321350098 L 45.0 80.0 L 24.0 80.0 L 24.0 76.0 L 45.0 76.0 L 45.0 56.0 L 25.71199998855591 56.0 L 24.2 57.4 L 21.2 59.5 L 16.6 59.7 L 13.2 56.6 L 13.1 52.0 L 16.2 48.6 L 18.1 48.0 L 20.0 47.1 L 21.7 46.0 L 23.4 44.4 L 24.9 42.5 L 26.3 40.1 L 27.6 37.3 L 28.7 34.0 L 29.7 30.3 L 30.1 26.2 L 31.9 26.1 L 32.4 30.4 L 32.64390239715576 32.4 L 94.0 32.4 L 94.0 11.5 L 106.0 13.5 L 109.0 15.5 L 106.0 17.3 L 106.0 32.4 L 170.0 32.4 L 170.62105264663697 31.88245611190796 L 171.3 30.6 L 171.73420190811157 30.954831695556642 L 176.0 27.4 L 187.0 36.4 L 182.0 39.4 L 175.775 41.99375 L 175.1 42.5 L 172.9 44.1 L 170.6 45.7 L 168.1 47.4 L 167.73181819915771 47.63181819915771 L 172.2 52.1 L 172.2 56.1 L 139.6 56.1 L 139.6 66.4 L 153.8 66.4 L 159.8 61.4 L 170.8 70.4 L 165.8 74.4 L 165.8 114.5 L 153.8 120.5 L 153.8 114.5 L 104.6 114.5 L 92.6 120.5 L 92.6 60.4 L 104.6 66.4 L 114.2 66.4 L 114.2 56.1 L 86.7 56.1 L 86.7 52.1 L 156.6 52.1 L 157.8 50.8 L 159.9 47.9 L 161.8 45.2 L 163.6 42.7 L 165.3 40.3 L 166.8 38.1 L 167.9333333015442 36.4 L 32.95 36.4 L 33.0 38.3 L 32.6 42.0 L 31.9 45.6 L 30.7 48.9 L 29.0 52.0 L 63.81818180084228 52.0 L 72.0 43.0 L 82.0 52.0 L 82.0 56.0 L 57.0 56.0 L 57.0 76.0 L 59.81818180084228 76.0 L 68.0 67.0 L 78.0 76.0 L 78.0 80.0 L 57.0 80.0 L 57.0 99.8696969985962 L 59.6 99.2 L 66.4 97.4 L 73.4 95.7 L 80.6 94.1 L 81.3 95.8 L 74.7 99.3 L 68.2 102.5 L 61.8 105.4 L 55.5 108.1 L 49.3 110.7 L 43.3 113.1 L 37.4 115.4 L 31.6 117.5 L 26.0 119.5 L 24.503083419799804 120.02669286727905 L 23.3 123.8 L 20.6 121.4 L 15.3 110.5 Z M 104.6 104.0 L 104.6 110.5 L 153.8 110.5 L 153.8 104.0 Z M 151.1 83.0 L 153.1 83.0 L 151.1 88.0 L 153.2 89.4 L 153.8 90.3 L 153.8 70.4 L 139.6 70.4 L 139.6 81.5 L 139.5 82.9 L 139.6 84.0 L 139.7 84.8 L 139.9 85.5 L 140.1 86.0 L 140.5 86.5 L 141.1 87.0 L 141.9 87.4 L 143.1 87.8 L 144.6 88.0 L 147.6 88.0 Z M 104.6 70.4 L 104.6 94.62580642700195 L 105.1 94.4 L 107.7 92.4 L 109.8 90.3 L 111.4 88.0 L 112.7 85.5 L 113.6 82.8 L 114.2 79.8 L 114.5 76.5 L 114.5 72.7 L 114.33170728683471 70.4 Z M 124.2 56.1 L 124.2 66.4 L 129.6 66.4 L 129.6 56.1 Z M 160.41176471710205 52.1 L 161.7 52.1 L 162.6 50.9 Z M 140.1 94.8 L 137.9 94.2 L 135.9 93.3 L 134.1 92.0 L 132.5 90.4 L 131.3 88.4 L 130.4 86.2 L 129.9 83.9 L 129.6 81.5 L 129.6 70.4 L 123.96530609130859 70.4 L 123.8 73.1 L 123.1 77.7 L 121.9 81.8 L 120.3 85.6 L 118.2 88.9 L 115.6 91.6 L 112.7 93.9 L 109.5 95.5 L 106.0 96.5 L 104.6 96.80270271301269 L 104.6 100.0 L 153.8 100.0 L 153.8 92.7 L 153.2 93.6 L 151.1 95.0 L 142.3 95.0 Z " />
</g>
</svg>
