<svg xmlns="http://www.w3.org/2000/svg" xmlns:xlink="http://www.w3.org/1999/xlink" version="1.1" baseProfile="full" viewBox="0 0 200 200" width="200" height="200">
<g fill="black">
<path d="M 78.0 158.6 L 73.7 155.6 L 69.0 152.6 L 65.05617980957031 150.47640447616578 L 62.9 153.2 L 54.2 161.8 L 44.6 169.5 L 34.0 176.1 L 22.5 181.8 L 10.0 186.3 L 9.3 184.6 L 20.7 178.4 L 31.2 171.6 L 40.6 164.3 L 49.0 156.3 L 56.4 147.7 L 57.129641723632815 146.65114002227784 L 52.0 144.5 L 45.4 141.9 L 38.4 139.4 L 37.097696685791014 138.9485348701477 L 34.5 146.8 L 21.3 148.8 L 38.330577564239505 97.3 L 16.1 97.3 L 16.1 93.3 L 39.653340911865236 93.3 L 50.5 60.5 L 61.2 66.1 L 63.5 69.0 L 59.95843372344971 69.8525993347168 L 52.20074348449707 93.3 L 78.9 93.3 L 84.9 88.3 L 95.9 97.3 L 90.9 100.3 L 89.61496067047119 100.83543310165405 L 87.3 109.5 L 82.7 121.8 L 77.1 133.1 L 70.65830411911011 143.34815244674684 L 73.1 144.3 L 78.8 146.9 L 84.0 149.7 L 88.8 152.9 L 93.2 156.3 L 95.1 160.5 L 93.5 164.8 L 89.3 166.6 L 85.0 165.0 L 81.7 161.8 Z M 150.0 158.8 L 163.2 158.8 L 164.1 158.6 L 164.7 158.4 L 165.0 158.2 L 165.2 158.1 L 165.4 157.9 L 165.7 157.0 L 165.9 156.1 L 166.0 154.8 L 166.0 78.1 L 126.0 78.1 L 126.0 181.0 L 114.0 187.0 L 114.0 68.1 L 126.0 74.1 L 166.0 74.1 L 172.0 69.1 L 183.0 78.1 L 178.0 82.1 L 178.0 154.8 L 177.8 157.4 L 177.4 159.9 L 176.6 162.3 L 175.3 164.6 L 173.7 166.6 L 171.7 168.2 L 169.4 169.5 L 167.0 170.3 L 164.5 170.7 L 162.0 170.8 L 162.0 164.8 L 150.0 161.8 Z M 50.87732343673706 97.3 L 38.20139999389649 135.61262245178222 L 39.2 135.7 L 46.8 136.8 L 54.0 138.2 L 60.8 140.0 L 61.58571424484253 140.24553575515748 L 62.8 138.5 L 68.2 128.5 L 72.8 117.8 L 76.3 106.3 L 78.29180326461793 97.3 Z M 13.4 70.4 L 12.7 65.8 L 15.4 62.1 L 17.4 61.1 L 19.3 59.7 L 21.2 57.9 L 22.9 55.5 L 24.6 52.6 L 26.0 49.2 L 27.3 45.2 L 28.5 40.7 L 29.5 35.7 L 30.1 30.1 L 31.9 30.1 L 32.6 35.7 L 32.939622688293454 39.3 L 94.0 39.3 L 94.0 11.6 L 106.0 13.6 L 109.0 15.6 L 106.0 17.4 L 106.0 39.3 L 170.0 39.3 L 170.50232553482056 38.88139533996582 L 170.8 38.1 L 171.1690929412842 38.32575588226318 L 176.0 34.3 L 187.0 43.3 L 182.0 46.3 L 177.82675161361695 48.038853549957274 L 177.5 48.4 L 175.5 50.5 L 171.0 55.0 L 168.5 57.3 L 165.8 59.8 L 162.9 62.3 L 159.7 64.9 L 156.6 67.8 L 155.3 66.6 L 157.6 63.1 L 159.6 59.6 L 161.5 56.3 L 163.3 53.2 L 164.9 50.2 L 166.4 47.5 L 167.8 44.9 L 168.5333333015442 43.3 L 33.14509801864624 43.3 L 33.2 46.1 L 32.9 50.7 L 32.1 55.1 L 31.0 59.3 L 29.4 63.1 L 27.3 66.6 L 24.7 69.7 L 21.6 72.4 L 17.1 73.0 Z " />
</g>
</svg>
