<svg xmlns="http://www.w3.org/2000/svg" xmlns:xlink="http://www.w3.org/1999/xlink" version="1.1" baseProfile="full" viewBox="0 0 200 200" width="200" height="200">
<g fill="black">
<path d="M 15.7 179.0 L 47.9 179.0 L 47.9 146.7 L 59.9 148.7 L 62.9 150.7 L 59.9 152.5 L 59.9 179.0 L 95.9 179.0 L 95.9 134.6 L 23.5 134.6 L 23.5 130.6 L 158.21818180084227 130.6 L 166.4 121.6 L 176.4 130.6 L 176.4 134.6 L 107.9 134.6 L 107.9 153.4 L 147.4181818008423 153.4 L 155.6 144.4 L 165.6 153.4 L 165.6 157.4 L 107.9 157.4 L 107.9 179.0 L 162.2 179.0 L 172.2 169.0 L 184.2 179.0 L 184.2 183.0 L 15.7 183.0 Z M 54.5 76.9 L 145.5 76.9 L 151.5 71.9 L 162.5 80.9 L 157.5 84.9 L 157.5 117.4 L 145.5 123.4 L 145.5 117.4 L 54.5 117.4 L 42.5 123.4 L 42.5 70.9 Z M 54.5 99.1 L 54.5 113.4 L 145.5 113.4 L 145.5 99.1 Z M 54.5 80.9 L 54.5 95.1 L 145.5 95.1 L 145.5 80.9 Z M 13.5 78.1 L 12.6 73.6 L 15.1 69.8 L 17.1 68.6 L 19.1 67.0 L 21.0 64.8 L 22.8 62.0 L 24.4 58.7 L 25.9 54.7 L 27.2 50.2 L 28.3 45.2 L 29.4 39.6 L 30.1 33.4 L 31.9 33.3 L 32.7 39.6 L 33.06440677642822 43.9 L 94.0 43.9 L 94.0 13.0 L 106.0 15.0 L 109.0 17.0 L 106.0 18.8 L 106.0 43.9 L 170.0 43.9 L 170.45806455612183 43.51827955245972 L 170.7 42.9 L 170.99863481521606 43.06780433654785 L 176.0 38.9 L 187.0 47.9 L 182.0 50.9 L 178.29032258987428 52.44569892883301 L 177.7 53.2 L 175.7 55.6 L 173.5 58.1 L 171.2 60.7 L 168.6 63.4 L 165.9 66.2 L 163.0 69.1 L 159.8 72.0 L 156.7 75.2 L 155.2 74.1 L 157.5 70.2 L 159.1842104911804 67.0 L 35.0 67.0 L 35.0 63.0 L 141.8181818008423 63.0 L 150.0 54.0 L 160.0 63.0 L 160.0 65.4 L 161.3 62.8 L 163.1 59.4 L 167.6 50.4 L 168.7111110687256 47.9 L 33.24285717010498 47.9 L 33.3 51.1 L 33.0 56.2 L 32.2 61.0 L 31.1 65.5 L 29.5 69.7 L 27.5 73.4 L 24.9 76.8 L 21.8 79.7 L 17.3 80.6 Z " />
</g>
</svg>
