<svg xmlns="http://www.w3.org/2000/svg" xmlns:xlink="http://www.w3.org/1999/xlink" version="1.1" baseProfile="full" viewBox="0 0 200 200" width="200" height="200">
<g fill="black">
<path d="M 152.6 120.1 L 150.7 121.5 L 148.6 122.7 L 146.5 123.7 L 144.3 124.5 L 142.1 125.1 L 139.7 125.6 L 137.4 125.8 L 135.0 125.9 L 135.0 119.9 L 115.0 116.9 L 115.0 113.9 L 136.5 113.9 L 137.9 113.7 L 139.3 113.4 L 140.6 113.1 L 141.9 112.6 L 143.1 112.0 L 144.3 111.3 L 145.4 110.6 L 146.5 109.6 L 147.7 108.6 L 149.0 106.9 L 150.4 104.8 L 151.8 102.2 L 153.0 99.0 L 154.2 95.4 L 155.2 91.2 L 156.1 86.6 L 156.9 81.4 L 157.5 75.8 L 157.80327873229982 72.1 L 106.6195876121521 72.1 L 103.3 81.3 L 98.7 90.3 L 93.0 98.6 L 86.3 106.1 L 78.4 113.0 L 69.6 119.1 L 59.8 124.5 L 54.648258686065674 126.67412939071656 L 65.9 132.3 L 142.0 132.3 L 148.0 127.3 L 159.0 136.3 L 154.0 140.3 L 154.0 182.8 L 142.0 188.8 L 142.0 180.8 L 65.9 180.8 L 65.9 183.8 L 53.9 189.8 L 53.9 126.98990821838379 L 48.9 129.1 L 37.0 132.9 L 24.2 135.9 L 23.7 134.2 L 35.8 129.3 L 46.8 124.2 L 56.6 118.7 L 65.3 112.8 L 73.0 106.5 L 79.5 99.8 L 84.9 92.6 L 89.3 85.1 L 92.7 77.1 L 94.05714282989501 72.1 L 34.0 72.1 L 34.0 68.1 L 158.0 68.1 L 164.0 63.1 L 175.0 72.1 L 170.0 75.1 L 169.52516822814943 75.29784660339355 L 169.4 76.9 L 168.8 83.0 L 167.9 88.6 L 166.9 93.8 L 165.7 98.6 L 164.3 103.1 L 162.7 107.1 L 160.8 110.8 L 158.7 114.1 L 156.2 117.0 L 154.5 118.6 Z M 65.9 136.3 L 65.9 176.8 L 142.0 176.8 L 142.0 136.3 Z M 13.3 66.9 L 12.9 62.4 L 15.6 58.7 L 17.6 57.9 L 19.5 56.7 L 21.3 55.0 L 23.1 52.9 L 24.7 50.4 L 26.1 47.3 L 27.4 43.6 L 28.6 39.5 L 29.6 34.9 L 30.1 29.9 L 31.9 29.8 L 32.5 35.0 L 32.8061224937439 38.0 L 94.0 38.0 L 94.0 12.6 L 106.0 14.6 L 109.0 16.6 L 106.0 18.4 L 106.0 38.0 L 170.0 38.0 L 170.66400003433228 37.446666622161864 L 171.0 36.7 L 171.30903005599976 36.909141540527344 L 176.0 33.0 L 187.0 42.0 L 182.0 45.0 L 177.53043479919432 46.86231880187988 L 177.4 47.0 L 175.4 48.9 L 173.2 50.9 L 170.9 53.0 L 168.4 55.1 L 165.7 57.3 L 162.8 59.6 L 159.7 61.9 L 156.6 64.6 L 155.3 63.3 L 157.7 60.1 L 159.7 56.8 L 161.6 53.7 L 163.4 50.8 L 165.0 48.1 L 166.5 45.5 L 167.9 43.0 L 168.44545450210572 42.0 L 33.04468088150024 42.0 L 33.1 44.6 L 32.8 48.9 L 32.1 53.0 L 30.9 56.9 L 29.3 60.5 L 27.2 63.8 L 24.6 66.7 L 21.5 69.2 L 17.0 69.7 Z " />
</g>
</svg>
