<svg xmlns="http://www.w3.org/2000/svg" xmlns:xlink="http://www.w3.org/1999/xlink" version="1.1" baseProfile="full" viewBox="0 0 200 200" width="200" height="200">
<g fill="black">
<path d="M 137.9 110.3 L 140.7 112.5 L 137.42814073562622 114.23216075897217 L 136.4 122.8 L 134.2 134.4 L 131.2 145.0 L 127.4 154.7 L 122.9 163.5 L 117.6 171.2 L 111.6 177.8 L 104.8 183.4 L 97.4 187.7 L 89.3 190.8 L 88.6 189.1 L 95.4 184.5 L 96.42882480621338 183.59120473861694 L 90.7 182.5 L 81.1 179.7 L 72.4 176.1 L 64.6 171.6 L 63.71197862625122 170.90786571502684 L 63.6 171.0 L 55.0 176.6 L 45.8 181.2 L 35.8 184.8 L 25.3 187.4 L 14.1 188.8 L 13.8 187.1 L 24.3 183.7 L 34.0 179.8 L 42.9 175.3 L 51.0 170.2 L 56.978383255004886 165.45005168914795 L 52.0 160.3 L 47.3 153.4 L 43.7 146.0 L 41.4 137.8 L 40.3 129.1 L 40.725 129.0 L 28.0 129.0 L 28.0 125.0 L 84.0 125.0 L 90.0 120.0 L 101.0 129.0 L 96.0 132.0 L 93.68048782348633 132.96646337509156 L 90.7 139.3 L 85.0 148.6 L 78.6 157.0 L 72.13996276855468 163.823983001709 L 76.9 166.0 L 84.6 168.4 L 93.2 170.2 L 102.7 171.4 L 107.78500537872314 171.9867314338684 L 111.4 166.8 L 115.4 159.4 L 118.8 151.3 L 121.6 142.2 L 123.7 132.2 L 125.1 121.4 L 125.83225765228272 110.59920024871826 L 125.8 110.6 L 126.0 107.3 Z M 177.0 147.0 L 179.0 147.0 L 177.0 172.0 L 180.6 174.4 L 183.0 178.0 L 180.6 181.6 L 177.0 184.0 L 158.0 184.0 L 155.4 183.8 L 152.9 183.4 L 150.5 182.6 L 148.2 181.3 L 146.2 179.7 L 144.6 177.7 L 143.3 175.4 L 142.5 173.0 L 142.1 170.5 L 142.0 168.0 L 142.0 105.0 L 154.0 105.0 L 154.0 169.2 L 154.2 170.1 L 154.5 171.0 L 154.9 171.4 L 155.8 171.7 L 156.7 171.9 L 158.0 172.0 L 171.0 172.0 Z M 42.12692308425903 129.0 L 45.3 136.5 L 49.0 143.4 L 53.3 149.4 L 58.2 154.6 L 63.68991594314575 159.09174938201903 L 64.9 157.9 L 70.8 150.7 L 76.0 142.8 L 80.5 134.2 L 82.65744676589966 129.0 Z M 91.1 113.4 L 87.0 110.3 L 83.1 107.2 L 79.6 103.9 L 76.3 100.4 L 73.3 96.9 L 70.7 93.1 L 70.5 92.74545450210572 L 70.5 117.5 L 58.5 123.5 L 58.5 97.5 L 57.2 98.7 L 53.0 102.0 L 48.7 105.1 L 44.1 108.0 L 39.3 110.6 L 34.3 113.0 L 29.0 115.0 L 23.5 116.6 L 22.7 115.0 L 27.3 111.6 L 31.6 108.3 L 35.8 105.1 L 39.7 101.8 L 43.4 98.4 L 46.9 95.0 L 50.2 91.5 L 53.2 87.8 L 54.76756753921509 85.8 L 23.6 85.8 L 23.6 81.8 L 58.5 81.8 L 58.5 52.4 L 70.5 54.4 L 73.5 56.4 L 70.5 58.2 L 70.5 81.8 L 83.3 81.8 L 93.3 71.8 L 105.3 81.8 L 105.3 85.8 L 70.5 85.8 L 70.5 86.00588235855102 L 71.5 86.8 L 74.8 89.4 L 81.6 94.4 L 85.3 96.8 L 89.0 99.0 L 92.9 101.2 L 97.0 103.3 L 101.3 105.3 L 105.8 107.1 L 111.0 109.60714282989503 L 111.0 58.0 L 123.0 64.0 L 161.0 64.0 L 167.0 59.0 L 178.0 68.0 L 173.0 72.0 L 173.0 111.0 L 161.0 117.0 L 161.0 105.0 L 123.0 105.0 L 123.0 117.0 L 111.0 123.0 L 111.0 110.12280702590942 L 100.0 119.0 L 95.4 116.3 Z M 123.0 68.0 L 123.0 101.0 L 161.0 101.0 L 161.0 68.0 Z M 98.5 63.3 L 99.6 66.8 L 95.10650329589843 66.25768146514892 L 94.7 66.6 L 92.7 68.3 L 90.6 69.9 L 88.4 71.6 L 86.1 73.2 L 83.7 74.8 L 78.5 78.0 L 76.0 79.8 L 74.8 78.5 L 76.8 76.2 L 78.4 73.6 L 80.0 71.1 L 81.5 68.7 L 83.0 66.5 L 84.3 64.2 L 86.9 60.0 L 88.0 57.9 L 88.53367071151733 56.886025714874265 L 88.4 56.8 L 88.94202899932861 56.11014490127563 L 89.0 56.0 L 89.0178153038025 56.01368961334229 L 89.5 55.4 Z M 41.4 73.8 L 40.8 72.2 L 40.1 70.5 L 39.3 68.8 L 38.4 67.0 L 37.3 65.1 L 34.7 61.1 L 32.9 59.4 L 34.0 58.0 L 36.1 59.3 L 38.4 60.3 L 40.6 61.4 L 42.7 62.6 L 44.7 63.9 L 48.3 66.7 L 49.9 68.2 L 51.4 69.8 L 52.8 71.5 L 53.1 76.0 L 50.1 79.5 L 45.5 79.8 L 42.1 76.8 L 41.8 75.3 Z M 33.0 38.6 L 32.7 42.5 L 31.9 46.2 L 30.8 49.7 L 29.1 53.0 L 27.0 55.9 L 24.4 58.6 L 21.3 60.9 L 16.7 61.1 L 13.3 58.1 L 13.0 53.6 L 16.0 50.1 L 18.0 49.4 L 19.8 48.4 L 21.6 47.1 L 23.3 45.4 L 24.8 43.3 L 26.3 40.7 L 27.6 37.6 L 28.7 34.1 L 29.7 30.1 L 30.1 25.6 L 31.9 25.6 L 32.4 30.1 L 32.672727298736575 32.5 L 94.0 32.5 L 94.0 10.2 L 106.0 12.2 L 109.0 14.2 L 106.0 16.0 L 106.0 32.5 L 170.0 32.5 L 170.6 32.0 L 171.2 30.8 L 171.637020778656 31.13581600189209 L 176.0 27.5 L 187.0 36.5 L 182.0 39.5 L 176.41739130020142 41.82608699798584 L 175.2 42.8 L 173.0 44.5 L 170.7 46.3 L 168.2 48.1 L 165.5 50.0 L 162.7 51.9 L 159.6 53.8 L 156.6 56.1 L 155.3 54.8 L 157.8 52.0 L 159.8 49.0 L 161.7 46.2 L 163.5 43.5 L 165.2 41.1 L 166.7 38.7 L 168.1 36.5 L 32.94878044128418 36.5 Z " />
</g>
</svg>
