<svg xmlns="http://www.w3.org/2000/svg" xmlns:xlink="http://www.w3.org/1999/xlink" version="1.1" baseProfile="full" viewBox="0 0 200 200" width="200" height="200">
<g fill="black">
<path d="M 152.5 145.4 L 149.9 143.0 L 146.9 140.5 L 145.20035400390626 139.16088495254516 L 138.2 140.2 L 125.8 141.7 L 113.7 143.1 L 101.9 144.3 L 100.69281768798828 144.41546964645386 L 106.0 145.3 L 109.0 147.3 L 106.0 149.1 L 106.0 160.2 L 144.0 160.2 L 154.0 150.2 L 166.0 160.2 L 166.0 164.2 L 106.0 164.2 L 106.0 181.3 L 162.0 181.3 L 172.0 171.3 L 184.0 181.3 L 184.0 185.3 L 16.0 185.3 L 16.0 181.3 L 94.0 181.3 L 94.0 164.2 L 34.0 164.2 L 34.0 160.2 L 94.0 160.2 L 94.0 145.05565214157104 L 90.4 145.4 L 79.3 146.4 L 68.5 147.3 L 58.1 148.1 L 48.0 148.9 L 42.28848037719727 149.30796566009522 L 40.3 152.5 L 38.2 149.6 L 35.7 137.7 L 37.7 137.6 L 47.5 137.5 L 57.6 137.4 L 65.17942361831665 137.32712097167968 L 67.7 134.4 L 70.6 131.0 L 73.4 127.8 L 76.0 124.7 L 78.5 121.8 L 80.8 119.0 L 81.85 117.7 L 42.0 117.7 L 42.0 113.7 L 136.0 113.7 L 146.0 103.7 L 157.1664122581482 113.00534353256225 L 158.0 112.3 L 160.1 109.8 L 162.1 107.5 L 163.9 105.4 L 165.6 103.3 L 167.2 101.4 L 167.3555555343628 101.2 L 32.8 101.2 L 32.8 102.7 L 32.5 105.8 L 31.7 108.8 L 30.4 111.7 L 28.7 114.4 L 26.5 116.9 L 23.9 119.0 L 20.9 120.8 L 16.3 120.6 L 13.1 117.3 L 13.3 112.7 L 16.6 109.6 L 18.6 109.2 L 20.5 108.5 L 22.1 107.7 L 23.7 106.7 L 25.2 105.3 L 26.5 103.6 L 27.8 101.5 L 28.9 98.9 L 29.8 96.0 L 30.1 92.7 L 31.9 92.6 L 32.3 96.1 L 32.46666669845581 97.2 L 94.0 97.2 L 94.0 80.4 L 106.0 82.4 L 109.0 84.4 L 106.0 86.2 L 106.0 97.2 L 170.0 97.2 L 170.6 96.7 L 170.8 96.4 L 171.7 94.9 L 172.1818181991577 95.38181819915772 L 176.0 92.2 L 187.0 101.2 L 182.0 104.2 L 170.537931060791 108.9758620262146 L 170.3 109.1 L 167.8 110.4 L 165.2 111.7 L 162.4 113.0 L 159.4 114.3 L 158.0 115.12068967819214 L 158.0 117.7 L 98.02380952835082 117.7 L 95.3 119.9 L 92.9 121.8 L 90.3 123.9 L 87.5 126.1 L 84.6 128.3 L 81.4 130.6 L 78.1 133.0 L 74.5 135.4 L 71.71661586761475 137.23117380142213 L 78.8 137.1 L 90.0 136.9 L 101.5 136.7 L 113.3 136.5 L 125.5 136.4 L 138.0 136.4 L 141.5040397644043 136.42716312408447 L 139.9 135.3 L 135.8 132.6 L 131.4 129.8 L 126.6 126.8 L 121.5 123.8 L 122.2 122.1 L 128.0 123.6 L 133.5 125.2 L 138.6 127.0 L 143.3 128.8 L 147.8 130.8 L 151.9 132.8 L 155.7 134.9 L 159.1 137.1 L 162.3 139.3 L 165.2 141.7 L 166.8 145.9 L 165.0 150.1 L 160.7 151.7 L 156.5 149.9 L 154.7 147.7 Z M 150.0 84.0 L 137.0 81.7 L 124.6 78.8 L 112.9 75.4 L 101.8 71.4 L 101.4027681350708 71.22975778579712 L 92.3 74.1 L 80.2 77.1 L 67.2 79.7 L 53.1 81.6 L 38.1 83.0 L 22.0 83.7 L 21.9 81.9 L 37.6 79.2 L 52.2 76.3 L 65.8 73.2 L 78.3 69.8 L 89.64094486236573 66.01968507766723 L 81.5 61.7 L 72.5 55.9 L 64.3 49.4 L 65.3 47.9 L 74.5 52.3 L 84.1 56.4 L 94.1 60.2 L 99.75940237045288 61.99577188491821 L 100.0 61.9 L 109.2 57.5 L 117.3 52.8 L 124.2 47.7 L 130.1 42.4 L 130.3 42.2 L 138.3 51.2 L 138.9 54.7 L 135.21049728393555 53.64585638046265 L 131.1 56.9 L 122.8 62.0 L 114.36656541824341 66.12504949569703 L 115.4 66.4 L 126.9 68.9 L 138.9 70.8 L 151.4 72.3 L 164.6 73.3 L 178.2 73.9 L 189.6 74.4 L 177.7 87.1 L 163.5 85.8 Z M 141.0 45.3 L 132.4 42.4 L 123.0 39.6 L 112.8 36.8 L 107.30865459442138 35.38937911987305 L 98.4 37.9 L 87.1 40.7 L 75.5 43.2 L 63.6 45.3 L 51.4 47.0 L 38.9 48.2 L 26.1 49.0 L 25.8 47.2 L 38.3 44.5 L 50.4 41.7 L 62.3 38.8 L 73.7 35.8 L 84.9 32.5 L 89.45155248641967 31.02495985031128 L 77.8 28.3 L 64.7 25.4 L 50.8 22.3 L 51.1 20.5 L 65.3 21.6 L 78.7 23.0 L 91.4 24.7 L 102.92661600112915 26.428992366790773 L 106.1 25.3 L 116.3 21.3 L 126.1 17.1 L 134.6136607170105 13.024311351776124 L 134.6 13.0 L 134.62194547653198 13.020345306396484 L 135.5 12.6 L 136.4852011680603 14.747738647460938 L 144.2 21.9 L 144.4 25.1 L 140.5112689971924 23.495126914978027 L 140.5 23.5 L 130.5 27.6 L 123.31904764175415 30.22380952835083 L 125.2 30.6 L 135.0 32.7 L 144.2 35.0 L 152.6 37.4 L 160.3 39.8 L 163.6 43.0 L 163.8 47.6 L 160.6 50.9 L 156.0 51.0 L 148.9 48.1 Z " />
</g>
</svg>
