<svg xmlns="http://www.w3.org/2000/svg" xmlns:xlink="http://www.w3.org/1999/xlink" version="1.1" baseProfile="full" viewBox="0 0 200 200" width="200" height="200">
<g fill="black">
<path d="M 45.4 178.5 L 62.6 178.5 L 63.5 178.3 L 64.1 178.1 L 64.4 177.9 L 64.6 177.8 L 64.8 177.6 L 65.1 176.7 L 65.3 175.8 L 65.4 174.5 L 65.4 155.81447372436523 L 63.1 157.6 L 55.4 163.2 L 47.4 168.6 L 39.2 173.5 L 30.7 178.2 L 22.0 182.3 L 13.0 186.0 L 12.1 184.4 L 20.1 179.0 L 27.9 173.6 L 35.6 168.0 L 43.0 162.4 L 50.2 156.5 L 57.07905502319336 150.5053949356079 L 50.5 152.2 L 44.3 153.9 L 38.5 155.4 L 33.1 156.7 L 28.1 158.0 L 23.5 159.2 L 19.742927455902098 160.20799503326415 L 18.2 163.9 L 15.7 161.3 L 11.5 149.8 L 13.5 149.5 L 17.4 149.1 L 21.6 148.6 L 25.5 148.18510637283325 L 25.5 82.0 L 37.5 88.0 L 39.330434799194336 88.0 L 40.2 87.0 L 41.8 84.3 L 43.4 81.9 L 44.8 79.5 L 46.2 77.3 L 47.4 75.2 L 48.6 73.2 L 49.6 71.3 L 50.5 69.5 L 50.871569061279295 68.7104157447815 L 50.7 68.6 L 51.27575759887695 67.85151519775391 L 51.3 67.8 L 51.309669208526614 67.80742998123169 L 51.7 67.3 L 60.8 75.1 L 62.0 78.5 L 57.34939022064209 78.01890239715576 L 55.6 79.4 L 53.7 80.8 L 51.6 82.4 L 49.4 83.9 L 47.1 85.5 L 44.6 87.1 L 43.08125 88.0 L 65.4 88.0 L 71.4 83.0 L 82.4 92.0 L 77.4 96.0 L 77.4 130.3344262123108 L 83.0 124.0 L 83.02001123428344 124.01798763275147 L 83.4 123.6 L 91.9 132.0 L 92.8 135.5 L 89.14571676254272 134.7947874069214 L 85.1 138.9 L 78.0 145.4 L 77.4 145.91780824661254 L 77.4 174.5 L 77.2 177.1 L 76.8 179.6 L 76.0 182.0 L 74.7 184.3 L 73.1 186.3 L 71.1 187.9 L 68.8 189.1 L 66.4 190.0 L 63.9 190.4 L 61.4 190.5 L 61.4 184.5 L 45.4 181.5 Z M 185.3 150.8 L 187.3 150.8 L 185.3 175.8 L 188.9 178.2 L 191.3 181.8 L 188.9 185.4 L 185.3 187.8 L 113.6 187.8 L 111.0 187.7 L 108.5 187.2 L 106.1 186.4 L 103.8 185.2 L 101.8 183.5 L 100.2 181.5 L 99.0 179.3 L 98.1 176.8 L 97.7 174.4 L 97.6 171.8 L 97.6 109.8 L 109.6 115.8 L 167.7 115.8 L 173.7 110.8 L 184.7 119.8 L 179.7 123.8 L 179.7 152.8 L 167.7 158.8 L 167.7 148.8 L 109.6 148.8 L 109.6 173.0 L 109.8 173.9 L 110.0 174.5 L 110.2 174.9 L 110.5 175.2 L 110.8 175.4 L 111.4 175.6 L 112.3 175.7 L 113.6 175.8 L 179.3 175.8 Z M 37.5 130.0 L 37.5 146.95 L 43.0 146.4 L 49.3 145.8 L 56.2 145.2 L 63.447682762145995 144.70358333587646 L 64.0 144.2 L 65.4 142.82121210098268 L 65.4 130.0 Z M 109.6 119.8 L 109.6 144.8 L 133.0 144.8 L 133.0 119.8 Z M 145.0 119.8 L 145.0 144.8 L 167.7 144.8 L 167.7 119.8 Z M 37.5 109.9 L 37.5 126.0 L 65.4 126.0 L 65.4 109.9 Z M 120.2 75.3 L 157.7 75.3 L 163.7 70.3 L 174.7 79.3 L 169.7 83.3 L 169.7 102.5 L 157.7 108.5 L 157.7 102.5 L 120.2 102.5 L 108.2 108.5 L 108.2 69.3 Z M 37.5 92.0 L 37.5 105.9 L 65.4 105.9 L 65.4 92.0 Z M 120.2 79.3 L 120.2 98.5 L 157.7 98.5 L 157.7 79.3 Z M 13.4 72.3 L 12.7 67.8 L 15.3 64.0 L 17.3 63.0 L 19.2 61.5 L 21.1 59.6 L 22.9 57.1 L 24.5 54.1 L 26.0 50.6 L 27.3 46.4 L 28.4 41.8 L 29.4 36.6 L 30.1 30.9 L 31.9 30.9 L 32.6 36.7 L 33.00363636016846 40.4 L 94.0 40.4 L 94.0 11.9 L 106.0 13.9 L 109.0 15.9 L 106.0 17.7 L 106.0 40.4 L 170.0 40.4 L 170.5310344696045 39.95747127532959 L 170.8 39.3 L 171.1019165992737 39.481736183166504 L 176.0 35.4 L 187.0 44.4 L 182.0 47.4 L 178.08888893127443 49.02962961196899 L 177.6 49.6 L 175.5 51.7 L 173.4 54.0 L 171.0 56.4 L 168.5 58.8 L 165.8 61.4 L 162.9 64.0 L 159.7 66.7 L 156.6 69.6 L 155.3 68.5 L 157.6 64.9 L 159.5 61.3 L 161.4 57.9 L 163.2 54.7 L 164.9 51.7 L 166.4 48.9 L 167.7 46.3 L 168.6119999885559 44.4 L 33.2 44.4 L 33.2 47.3 L 32.9 52.1 L 32.2 56.6 L 31.0 60.8 L 29.4 64.7 L 27.4 68.3 L 24.8 71.5 L 21.7 74.2 L 17.2 74.9 Z " />
</g>
</svg>
