<svg xmlns="http://www.w3.org/2000/svg" xmlns:xlink="http://www.w3.org/1999/xlink" version="1.1" baseProfile="full" viewBox="0 0 200 200" width="200" height="200">
<g fill="black">
<path d="M 122.1675238609314 66.69948568344117 L 123.2 89.5 L 125.15207538604736 102.24590377807617 L 165.8907042503357 99.87504920959472 L 175.3 89.3 L 187.8 98.6 L 188.1 102.6 L 125.76192626953124 106.2278715133667 L 126.6 111.7 L 131.7 130.0 L 138.1 144.7 L 140.09160795211793 147.78290004730223 L 144.2 144.2 L 151.8 136.2 L 158.5 127.6 L 163.86060609817505 119.09696969985961 L 164.8 117.5 L 174.6 124.5 L 176.1 127.8 L 172.26666669845582 127.8 L 167.6 134.4 L 159.7 143.4 L 150.9 151.7 L 145.37956924438475 155.96837434768676 L 145.4 156.0 L 153.2 164.4 L 161.1 170.3 L 168.7 174.0 L 175.7 175.8 L 176.29304122924805 175.83015460968016 L 182.0 151.1 L 184.0 151.1 L 182.06445989608764 176.26202087402345 L 185.9 177.6 L 187.9 181.7 L 186.4 186.0 L 182.3 188.1 L 173.8 187.7 L 164.6 185.3 L 154.9 180.6 L 145.2 173.4 L 136.0 163.4 L 135.56813440322875 162.7264952659607 L 130.5 165.9 L 119.0 171.8 L 106.6 177.0 L 93.3 181.3 L 79.2 184.7 L 64.1 187.3 L 63.8 185.5 L 78.2 181.1 L 91.6 176.2 L 104.1 170.9 L 115.6 165.0 L 126.1 158.7 L 130.7766439437866 155.2540518760681 L 127.6 150.3 L 120.4 134.0 L 114.8 114.2 L 113.68639402389526 106.9306279182434 L 66.1 109.7 L 65.8 105.7 L 113.0763918876648 102.94866895675659 L 111.2 90.7 L 110.04316549301147 63.99640283584595 L 110.0 64.0 L 110.0 60.6 L 122.0 63.0 L 125.0 65.0 Z M 76.9 66.6 L 78.5 69.8 L 74.75112581253052 69.86463575363159 L 71.7 74.5 L 66.3 82.2 L 60.6 89.7 L 54.7 97.1 L 48.53811473846436 104.15635242462159 L 54.2 105.1 L 57.2 107.1 L 54.2 108.9 L 54.2 181.9 L 42.2 187.9 L 42.2 110.88769226074218 L 42.0 111.1 L 35.3 117.8 L 28.3 124.3 L 20.9 130.5 L 13.2 136.3 L 12.0 134.9 L 18.3 127.7 L 24.5 120.5 L 30.5 113.4 L 36.3 106.1 L 41.9 98.8 L 47.3 91.4 L 52.5 83.8 L 57.4 76.2 L 62.1 68.4 L 66.6 60.5 L 67.1 59.6 Z M 158.3 86.2 L 156.2 84.3 L 153.9 82.3 L 151.3 80.3 L 148.5 78.4 L 145.4 76.4 L 142.1 74.3 L 138.5 72.2 L 134.6 70.3 L 135.2 68.6 L 139.5 69.5 L 143.7 70.2 L 147.6 71.1 L 151.4 72.2 L 155.0 73.4 L 155.49018020629882 73.60795526504516 L 157.5 70.2 L 159.5 66.4 L 161.3 62.8 L 163.1 59.4 L 167.6 50.4 L 168.7111110687256 47.9 L 33.24285717010498 47.9 L 33.3 51.1 L 33.0 56.2 L 32.2 61.0 L 31.1 65.5 L 29.5 69.7 L 27.5 73.4 L 24.9 76.8 L 21.8 79.7 L 17.3 80.6 L 13.5 78.1 L 12.6 73.6 L 15.1 69.8 L 17.1 68.6 L 19.1 67.0 L 21.0 64.8 L 22.8 62.0 L 24.4 58.7 L 25.9 54.7 L 27.2 50.2 L 28.3 45.2 L 29.4 39.6 L 30.1 33.4 L 31.9 33.3 L 32.7 39.6 L 33.06440677642822 43.9 L 94.0 43.9 L 94.0 13.0 L 106.0 15.0 L 109.0 17.0 L 106.0 18.8 L 106.0 43.9 L 170.0 43.9 L 170.45806455612183 43.51827955245972 L 170.7 42.9 L 170.99863481521606 43.06780433654785 L 176.0 38.9 L 187.0 47.9 L 182.0 50.9 L 178.29032258987428 52.44569892883301 L 177.7 53.2 L 175.7 55.6 L 173.5 58.1 L 171.2 60.7 L 168.6 63.4 L 165.9 66.2 L 163.0 69.1 L 159.8 72.0 L 157.4406711578369 74.4354362487793 L 158.3 74.8 L 161.5 76.2 L 164.5 77.8 L 167.3 79.5 L 169.9 81.3 L 171.7 85.5 L 170.1 89.8 L 165.9 91.6 L 161.6 90.0 L 160.1 88.1 Z " />
</g>
</svg>
