<svg xmlns="http://www.w3.org/2000/svg" xmlns:xlink="http://www.w3.org/1999/xlink" version="1.1" baseProfile="full" viewBox="0 0 200 200" width="200" height="200">
<g fill="black">
<path d="M 160.3 119.5 L 156.3 116.1 L 152.1 112.9 L 148.46012325286864 110.33554134368896 L 148.2 110.6 L 141.2 115.7 L 133.2 119.9 L 124.3 123.2 L 114.4 125.6 L 111.80465116500855 125.93643407821655 L 114.0 127.4 L 111.0 129.2 L 111.0 148.0 L 152.0 148.0 L 162.0 138.0 L 174.0 148.0 L 174.0 152.0 L 111.0 152.0 L 111.0 178.1 L 165.0 178.1 L 175.0 168.1 L 187.0 178.1 L 187.0 182.1 L 15.0 182.1 L 15.0 178.1 L 48.0 178.1 L 48.0 140.2 L 60.0 142.2 L 63.0 144.2 L 60.0 146.0 L 60.0 178.1 L 99.0 178.1 L 99.0 123.4 L 105.69832773208618 124.51638793945312 L 113.4 122.0 L 122.4 118.2 L 130.2 114.1 L 136.9 109.5 L 141.06551122665405 105.63743505477905 L 138.2 104.0 L 133.0 101.2 L 127.7 98.5 L 126.02705612182618 97.67873668670654 L 125.2 99.7 L 111.9 100.7 L 122.89430484771728 73.8 L 99.0 73.8 L 99.0 69.8 L 124.52914571762085 69.8 L 136.3 41.0 L 146.6 47.4 L 148.6 50.4 L 145.07293510437012 51.13203229904175 L 137.43441686630248 69.8 L 163.0 69.8 L 173.0 59.8 L 185.0 69.8 L 185.0 73.8 L 166.65652170181275 73.8 L 165.5 81.4 L 162.9 89.9 L 159.1 97.6 L 154.69786100387574 103.79893045425415 L 157.1 105.0 L 162.1 107.9 L 167.0 111.1 L 171.6 114.6 L 176.0 118.3 L 177.8 122.6 L 176.1 126.8 L 171.8 128.5 L 167.6 126.9 L 164.1 123.1 Z M 83.7 123.1 L 81.8 124.5 L 79.8 125.8 L 77.6 126.8 L 75.4 127.7 L 73.2 128.4 L 70.8 128.9 L 68.5 129.2 L 66.0 129.3 L 66.0 123.3 L 48.0 120.3 L 48.0 117.3 L 66.0 117.3 L 67.5 117.2 L 70.3 116.8 L 71.5 116.4 L 72.7 115.9 L 73.8 115.3 L 74.9 114.6 L 76.0 113.8 L 77.1 112.9 L 77.7551724433899 112.17931032180786 L 77.9 111.6 L 78.3 109.8 L 78.6 107.3 L 78.9 104.0 L 79.1 100.0 L 79.3 95.4 L 79.3 90.2 L 79.3426742553711 87.6822190284729 L 79.3 87.7 L 79.3 79.7 L 54.49791669845581 79.7 L 53.1 85.8 L 50.3 94.7 L 46.6 102.6 L 42.3 109.7 L 37.1 115.8 L 31.3 120.8 L 24.8 124.7 L 17.7 127.5 L 16.9 125.8 L 22.7 121.5 L 27.8 116.8 L 32.1 111.5 L 35.9 105.6 L 39.0 99.0 L 41.5 91.7 L 43.3 83.6 L 44.6 74.7 L 45.3 64.9 L 45.3 56.4 L 27.42580642700195 56.4 L 27.0 57.0 L 24.4 59.7 L 21.4 62.1 L 16.8 62.4 L 13.3 59.5 L 13.0 54.9 L 14.7 52.84827585220337 L 14.7 52.4 L 15.071428585052491 52.4 L 15.9 51.4 L 17.9 50.6 L 19.7 49.6 L 21.5 48.2 L 23.2 46.4 L 24.8 44.1 L 26.2 41.3 L 27.5 38.1 L 28.6 34.4 L 29.6 30.2 L 30.1 25.6 L 31.9 25.5 L 32.4 30.3 L 32.73333330154419 32.8 L 94.0 32.8 L 94.0 9.6 L 106.0 11.6 L 109.0 13.6 L 106.0 15.4 L 106.0 32.8 L 170.0 32.8 L 170.68823528289795 32.2264705657959 L 171.1 31.3 L 171.4726674079895 31.57277717590332 L 176.0 27.8 L 187.0 36.8 L 182.0 39.8 L 176.7384614944458 41.99230766296387 L 175.2 43.3 L 173.1 45.1 L 168.3 48.9 L 165.6 50.9 L 162.7 52.9 L 159.6 55.0 L 156.6 57.4 L 155.3 56.1 L 157.8 53.1 L 159.8 50.0 L 161.7 47.1 L 163.5 44.4 L 165.2 41.9 L 166.7 39.4 L 168.0 37.2 L 168.2285714149475 36.8 L 33.0 36.8 L 33.0 39.1 L 32.7 43.1 L 32.0 46.9 L 30.8 50.6 L 29.927272701263426 52.4 L 85.9777777671814 52.4 L 92.2 45.4 L 100.2 52.4 L 100.2 56.4 L 57.1761061668396 56.4 L 56.6 65.7 L 55.3619047164917 75.7 L 79.3 75.7 L 85.3 70.7 L 96.3 79.7 L 91.37657661437989 82.65405406951905 L 91.4 84.2 L 91.3 90.3 L 91.3 95.7 L 91.1 100.5 L 90.9 104.8 L 90.5 108.5 L 90.1 111.7 L 89.6 114.5 L 88.7 117.0 L 87.1 119.7 L 85.5 121.5 Z M 135.79770555496216 73.8 L 127.26138219833373 94.66213607788086 L 128.9 94.9 L 135.0 96.2 L 140.8 97.9 L 146.0939130783081 99.88521738052368 L 146.9 98.9 L 150.3 92.9 L 152.8 86.4 L 154.3 79.3 L 154.73999996185302 73.8 Z " />
</g>
</svg>
