<svg xmlns="http://www.w3.org/2000/svg" xmlns:xlink="http://www.w3.org/1999/xlink" version="1.1" baseProfile="full" viewBox="0 0 200 200" width="200" height="200">
<g fill="black">
<path d="M 147.2 116.2 L 150.2 118.2 L 147.2 120.0 L 147.2 157.9 L 162.1 157.9 L 162.1 126.0 L 174.1 128.0 L 177.1 130.0 L 174.1 131.8 L 174.1 167.9 L 162.1 173.9 L 162.1 161.9 L 147.2 161.9 L 147.2 183.0 L 135.2 189.0 L 135.2 161.9 L 118.4 161.9 L 118.4 173.9 L 106.4 179.9 L 106.4 126.0 L 118.4 128.0 L 121.4 130.0 L 118.4 131.8 L 118.4 157.9 L 135.2 157.9 L 135.2 114.2 Z M 67.6 116.2 L 70.6 118.2 L 67.6 120.0 L 67.6 157.9 L 82.4 157.9 L 82.4 126.0 L 94.4 128.0 L 97.4 130.0 L 94.4 131.8 L 94.4 167.9 L 82.4 173.9 L 82.4 161.9 L 67.26666669845581 161.9 L 66.7 165.3 L 64.8 170.4 L 61.9 174.8 L 58.1 178.5 L 53.5 181.5 L 48.3 183.9 L 42.4 185.8 L 35.8 187.0 L 28.4 187.7 L 20.4 187.8 L 20.2 186.0 L 27.8 184.0 L 34.5 181.9 L 40.3 179.6 L 45.1 177.1 L 48.9 174.5 L 51.8 171.7 L 53.8 168.9 L 55.0 166.1 L 55.6 163.1 L 55.6 161.9 L 39.7 161.9 L 39.7 168.9 L 27.7 174.9 L 27.7 126.0 L 39.7 128.0 L 42.7 130.0 L 39.7 131.8 L 39.7 157.9 L 55.6 157.9 L 55.6 114.2 Z M 13.5 78.1 L 12.6 73.6 L 15.1 69.8 L 17.1 68.6 L 19.1 67.0 L 21.0 64.8 L 22.8 62.0 L 24.4 58.7 L 25.9 54.7 L 27.2 50.2 L 28.3 45.2 L 29.4 39.6 L 30.1 33.4 L 31.9 33.3 L 32.7 39.6 L 33.06440677642822 43.9 L 94.0 43.9 L 94.0 13.0 L 106.0 15.0 L 109.0 17.0 L 106.0 18.8 L 106.0 43.9 L 170.0 43.9 L 170.45806455612183 43.51827955245972 L 170.7 42.9 L 170.99863481521606 43.06780433654785 L 176.0 38.9 L 187.0 47.9 L 182.0 50.9 L 178.29032258987428 52.44569892883301 L 177.7 53.2 L 175.7 55.6 L 173.5 58.1 L 171.2 60.7 L 168.6 63.4 L 165.9 66.2 L 164.08000001907348 68.01999998092651 L 164.2 68.1 L 163.7 68.4 L 163.0 69.1 L 161.2 70.73125 L 161.2 95.5 L 149.2 101.5 L 149.2 91.5 L 106.9 91.5 L 106.9 114.1 L 94.9 120.1 L 94.9 91.5 L 53.5 91.5 L 53.5 98.5 L 41.5 104.5 L 41.5 64.1 L 53.5 66.1 L 56.5 68.1 L 53.5 69.9 L 53.5 87.5 L 94.9 87.5 L 94.9 57.3 L 106.9 59.3 L 109.9 61.3 L 106.9 63.1 L 106.9 87.5 L 149.2 87.5 L 149.2 64.1 L 159.7692307472229 65.8615385055542 L 161.3 62.8 L 163.1 59.4 L 167.6 50.4 L 168.7111110687256 47.9 L 33.24285717010498 47.9 L 33.3 51.1 L 33.0 56.2 L 32.2 61.0 L 31.1 65.5 L 29.5 69.7 L 27.5 73.4 L 24.9 76.8 L 21.8 79.7 L 17.3 80.6 Z " />
</g>
</svg>
