<svg xmlns="http://www.w3.org/2000/svg" xmlns:xlink="http://www.w3.org/1999/xlink" version="1.1" baseProfile="full" viewBox="0 0 200 200" width="200" height="200">
<g fill="black">
<path d="M 14.7 160.1 L 19.7 159.1 L 25.1 158.0 L 30.7 156.8 L 36.7 155.4 L 40.0 154.60161294937134 L 40.0 106.0 L 15.2 106.0 L 15.2 102.0 L 40.0 102.0 L 40.0 65.8 L 52.0 67.8 L 55.0 69.8 L 52.0 71.6 L 52.0 102.0 L 56.5 102.0 L 66.5 92.0 L 78.5 102.0 L 78.5 106.0 L 52.0 106.0 L 52.0 151.64782609939576 L 56.4 150.5 L 63.6 148.8 L 71.2 147.0 L 79.1 145.3 L 79.7 147.0 L 72.4 150.6 L 65.3 153.9 L 58.5 156.8 L 51.8 159.5 L 45.5 162.0 L 39.4 164.3 L 33.5 166.4 L 28.0 168.4 L 22.6 170.1 L 21.630748653411864 170.42954549789428 L 20.3 174.2 L 17.6 171.8 L 12.7 160.6 Z M 145.6 138.8 L 155.6 138.8 L 156.9 138.7 L 157.8 138.5 L 158.7 138.2 L 158.9 138.0 L 159.0 137.8 L 159.2 137.5 L 159.4 136.9 L 159.6 136.0 L 159.6 92.89625616073609 L 132.2 101.18374385833741 L 132.2 153.9 L 120.2 159.9 L 120.2 104.8133005142212 L 95.5 112.28413791656494 L 95.5 166.2 L 95.6 167.5 L 95.7 168.4 L 95.9 169.0 L 96.1 169.3 L 96.2 169.5 L 96.8 169.8 L 97.4 170.0 L 98.3 170.2 L 175.1 170.2 L 181.1 145.2 L 183.1 145.2 L 181.1 170.2 L 184.7 172.6 L 187.1 176.2 L 184.7 179.8 L 181.1 182.2 L 99.5 182.2 L 96.9 182.1 L 94.4 181.6 L 92.0 180.8 L 89.8 179.6 L 87.8 178.0 L 86.1 175.9 L 84.9 173.7 L 84.1 171.3 L 83.6 168.8 L 83.5 166.2 L 83.5 115.91369457244873 L 64.7 121.6 L 63.5 117.8 L 83.5 111.75669288635254 L 83.5 75.1 L 95.5 77.1 L 98.5 79.1 L 95.5 80.9 L 95.5 108.13070869445801 L 120.2 100.66722440719604 L 120.2 63.0 L 132.2 65.0 L 135.2 67.0 L 132.2 68.8 L 132.2 97.04124011993409 L 159.6 88.76190948486328 L 159.6 87.0 L 165.6 82.0 L 176.6 91.0 L 171.6 95.0 L 171.6 134.8 L 171.5 137.3 L 171.1 139.8 L 170.2 142.2 L 169.0 144.5 L 167.4 146.5 L 165.4 148.1 L 163.1 149.4 L 160.7 150.2 L 158.2 150.6 L 155.6 150.8 L 155.6 144.8 L 145.6 141.8 Z M 13.4 69.6 L 12.8 65.1 L 15.4 61.3 L 17.4 60.4 L 19.3 59.0 L 21.2 57.2 L 22.9 54.9 L 24.6 52.0 L 26.1 48.6 L 27.4 44.7 L 28.5 40.2 L 29.5 35.3 L 30.1 29.8 L 31.9 29.8 L 32.6 35.3 L 32.93018865585327 38.8 L 94.0 38.8 L 94.0 11.4 L 106.0 13.4 L 109.0 15.4 L 106.0 17.2 L 106.0 38.8 L 170.0 38.8 L 170.6 38.3 L 170.9 37.6 L 171.2067491531372 37.79437570571899 L 176.0 33.8 L 187.0 42.8 L 182.0 45.8 L 177.8239999771118 47.53999996185303 L 177.5 47.9 L 175.5 50.0 L 173.3 52.1 L 171.0 54.4 L 168.5 56.7 L 165.8 59.2 L 162.9 61.7 L 159.7 64.2 L 156.6 67.0 L 155.3 65.8 L 157.6 62.4 L 159.6 58.9 L 161.5 55.6 L 163.3 52.6 L 164.9 49.6 L 166.4 46.9 L 167.8 44.3 L 168.55 42.8 L 33.14399995803833 42.8 L 33.2 45.6 L 32.9 50.2 L 32.1 54.6 L 31.0 58.6 L 29.4 62.4 L 27.3 65.9 L 24.7 69.0 L 21.6 71.6 L 17.1 72.3 Z " />
</g>
</svg>
