<svg xmlns="http://www.w3.org/2000/svg" xmlns:xlink="http://www.w3.org/1999/xlink" version="1.1" baseProfile="full" viewBox="0 0 200 200" width="200" height="200">
<g fill="black">
<path d="M 136.0 180.1 L 120.7 173.3 L 106.9 164.9 L 99.19004831314086 158.643563747406 L 91.0 164.3 L 75.7 172.4 L 58.9 179.0 L 40.7 184.1 L 21.1 187.6 L 20.8 185.8 L 39.7 180.4 L 57.0 174.0 L 72.7 166.5 L 86.9 157.9 L 93.0088418006897 153.19716148376466 L 84.1 143.7 L 75.0 131.0 L 67.7 116.8 L 62.1 101.3 L 58.63928575515747 86.0 L 34.0 86.0 L 34.0 82.0 L 140.0 82.0 L 146.0 77.0 L 157.0 86.0 L 152.0 89.0 L 150.1559928894043 89.76833629608154 L 145.4 102.3 L 137.6 117.5 L 128.2 131.3 L 117.3 143.7 L 107.26488285064697 152.60212001800537 L 112.6 156.4 L 125.6 163.3 L 140.0 169.0 L 155.7 173.2 L 172.9 176.1 L 182.9 177.5 L 171.0 189.2 L 152.8 185.4 Z M 46.4 141.0 L 45.1 138.6 L 43.5 136.3 L 41.5 133.8 L 39.2 131.4 L 36.6 128.9 L 33.6 126.4 L 30.2 123.8 L 26.4 121.5 L 27.1 119.8 L 31.5 121.3 L 35.7 122.6 L 39.6 124.1 L 43.2 125.9 L 46.6 127.9 L 49.6 130.0 L 52.4 132.4 L 55.0 135.0 L 57.2 137.8 L 59.1 140.8 L 59.0 145.4 L 55.8 148.7 L 51.3 148.6 L 48.0 145.4 L 47.3 143.2 Z M 60.80949363708496 86.0 L 66.0 99.9 L 73.0 114.2 L 81.1 127.0 L 90.3 138.2 L 100.23791160583497 147.47538414001465 L 110.6 137.3 L 120.2 125.3 L 128.3 112.2 L 135.0 97.8 L 138.95870971679688 86.0 Z M 99.8 111.7 L 98.6 109.7 L 97.2 107.7 L 95.5 105.6 L 93.5 103.4 L 91.2 101.3 L 88.6 99.1 L 85.8 96.8 L 82.5 94.8 L 83.2 93.1 L 86.9 94.4 L 90.6 95.4 L 94.0 96.6 L 97.2 98.0 L 100.2 99.6 L 103.0 101.4 L 105.6 103.3 L 107.9 105.3 L 110.0 107.6 L 111.9 110.1 L 112.2 114.6 L 109.3 118.2 L 104.8 118.5 L 101.2 115.5 L 100.6 113.7 Z M 13.5 81.7 L 12.6 77.2 L 15.0 73.3 L 17.0 72.1 L 19.0 70.4 L 20.9 68.2 L 22.7 65.3 L 24.4 61.9 L 25.9 57.9 L 27.2 53.2 L 28.3 48.1 L 29.3 42.3 L 30.1 36.0 L 31.9 36.0 L 32.7 42.4 L 33.13999996185303 46.8 L 94.0 46.8 L 94.0 15.2 L 106.0 17.2 L 109.0 19.2 L 106.0 21.0 L 106.0 46.8 L 170.0 46.8 L 170.51612901687622 46.36989250183105 L 170.7 45.9 L 170.9301037788391 46.024913501739505 L 176.0 41.8 L 187.0 50.8 L 182.0 53.8 L 178.4064516067505 55.297311782836914 L 177.7 56.2 L 175.7 58.6 L 173.5 61.2 L 171.2 63.8 L 168.7 66.6 L 166.0 69.5 L 163.0 72.4 L 159.8 75.4 L 156.7 78.7 L 155.2 77.6 L 157.5 73.7 L 159.4 69.8 L 161.3 66.1 L 163.1 62.7 L 164.7 59.4 L 166.2 56.3 L 167.6 53.5 L 168.75714282989503 50.8 L 33.3 50.8 L 33.3 54.1 L 33.0 59.3 L 32.3 64.2 L 31.1 68.8 L 29.5 73.0 L 27.5 76.8 L 24.9 80.3 L 21.8 83.2 L 17.3 84.1 Z " />
</g>
</svg>
