<svg xmlns="http://www.w3.org/2000/svg" xmlns:xlink="http://www.w3.org/1999/xlink" version="1.1" baseProfile="full" viewBox="0 0 200 200" width="200" height="200">
<g fill="black">
<path d="M 180.0 148.7 L 182.0 148.7 L 180.0 173.7 L 183.6 176.1 L 186.0 179.7 L 183.6 183.3 L 180.0 185.7 L 126.0 185.7 L 123.4 185.6 L 120.9 185.2 L 118.5 184.3 L 116.2 183.1 L 114.2 181.5 L 112.6 179.5 L 111.3 177.2 L 110.5 174.8 L 110.1 172.3 L 110.0 169.7 L 110.0 125.3 L 86.72666664123535 125.3 L 89.9 126.1 L 92.8 128.3 L 89.23806829452515 130.14946451187134 L 88.2 136.5 L 85.2 146.0 L 80.7 154.7 L 74.9 162.5 L 67.7 169.2 L 59.4 175.0 L 49.8 179.9 L 39.1 183.7 L 27.2 186.6 L 14.1 188.4 L 13.8 186.6 L 26.2 182.9 L 37.3 178.7 L 46.9 173.9 L 55.2 168.7 L 62.1 162.9 L 67.7 156.6 L 72.0 149.7 L 75.1 142.3 L 77.1 134.2 L 77.80911140441894 126.39977407455444 L 77.8 126.4 L 77.86666669845582 125.3 L 59.0 125.3 L 59.0 137.3 L 47.0 143.3 L 47.0 67.4 L 59.0 73.4 L 143.0 73.4 L 149.0 68.4 L 160.0 77.4 L 155.0 81.4 L 155.0 131.3 L 143.0 137.3 L 143.0 125.3 L 122.0 125.3 L 122.0 171.0 L 122.2 171.9 L 122.5 172.8 L 122.7 173.0 L 122.9 173.1 L 123.2 173.3 L 123.8 173.5 L 124.7 173.7 L 174.0 173.7 Z M 59.0 77.4 L 59.0 121.3 L 143.0 121.3 L 143.0 77.4 Z M 17.8 67.0 L 16.2 62.7 L 18.1 58.5 L 20.1 57.0 L 21.9 55.2 L 23.6 53.1 L 25.1 50.7 L 26.5 47.9 L 27.7 44.9 L 28.6 41.4 L 29.4 37.7 L 30.1 33.5 L 30.2 29.1 L 32.0 28.8 L 32.9 33.3 L 33.9 37.7 L 34.11904764175415 40.0 L 95.0 40.0 L 95.0 19.0 L 107.0 21.0 L 110.0 23.0 L 107.0 24.8 L 107.0 40.0 L 169.0 40.0 L 169.83478260040283 39.30434780120849 L 169.9 39.2 L 170.7 37.7 L 171.1818181991577 38.18181819915772 L 175.0 35.0 L 186.0 44.0 L 181.0 47.0 L 172.74399995803833 50.439999961853026 L 170.7 51.9 L 168.5 53.7 L 166.0 55.6 L 163.3 57.7 L 160.4 59.9 L 157.6 62.5 L 156.3 61.4 L 158.5 58.2 L 160.3 55.0 L 162.1 52.1 L 163.7 49.4 L 165.2 47.0 L 166.5 44.7 L 166.95500001907348 44.0 L 34.35121955871582 44.0 L 34.4 46.0 L 34.1 49.9 L 33.3 53.8 L 32.2 57.4 L 30.6 60.9 L 28.6 64.2 L 26.2 67.3 L 21.9 68.8 Z " />
</g>
</svg>
