<svg xmlns="http://www.w3.org/2000/svg" xmlns:xlink="http://www.w3.org/1999/xlink" version="1.1" baseProfile="full" viewBox="0 0 200 200" width="200" height="200">
<g fill="black">
<path d="M 21.2 159.2 L 26.2 158.5 L 31.3 157.7 L 32.7 157.48867921829225 L 32.7 75.1 L 20.6 75.1 L 20.6 71.4333333015442 L 17.1 71.9 L 13.4 69.2 L 12.8 64.7 L 15.4 61.0 L 17.4 60.0 L 19.4 58.6 L 21.2 56.8 L 23.0 54.5 L 24.6 51.7 L 26.1 48.3 L 27.4 44.4 L 28.5 40.0 L 29.5 35.1 L 30.1 29.7 L 31.9 29.6 L 32.6 35.1 L 32.93018865585327 38.6 L 94.0 38.6 L 94.0 11.3 L 106.0 13.3 L 109.0 15.3 L 106.0 17.1 L 106.0 38.6 L 170.0 38.6 L 170.5760000228882 38.119999980926515 L 170.9 37.4 L 171.2067491531372 37.594375705718996 L 176.0 33.6 L 187.0 42.6 L 182.0 45.6 L 177.6956521987915 47.393478298187254 L 177.5 47.6 L 175.5 49.7 L 173.3 51.9 L 171.0 54.1 L 168.5 56.4 L 165.8 58.8 L 162.9 61.3 L 159.7 63.8 L 156.6 66.7 L 155.3 65.5 L 157.6 62.0 L 159.6 58.6 L 161.5 55.3 L 163.3 52.2 L 164.9 49.3 L 166.4 46.6 L 167.8 44.1 L 168.55 42.6 L 33.14489793777466 42.6 L 33.2 45.3 L 32.9 49.9 L 32.1 54.3 L 31.0 58.3 L 29.4 62.1 L 27.3 65.5 L 24.7 68.6 L 21.829629611968993 71.1 L 80.6 71.1 L 90.6 61.1 L 102.6 71.1 L 102.6 75.1 L 84.8 75.1 L 84.8 183.9 L 72.8 189.9 L 72.8 154.58474578857422 L 67.1 157.0 L 61.2 159.3 L 55.4 161.3 L 49.8 163.2 L 44.3 165.0 L 38.9 166.7 L 33.6 168.2 L 28.5 169.6 L 27.65172414779663 169.8423645019531 L 26.1 173.5 L 23.6 171.0 L 19.3 159.6 Z M 116.2 133.8 L 161.2 133.8 L 167.2 128.8 L 178.2 137.8 L 173.2 141.8 L 173.2 180.1 L 161.2 186.1 L 161.2 178.1 L 116.2 178.1 L 116.2 181.1 L 104.2 187.1 L 104.2 127.8 Z M 116.2 137.8 L 116.2 174.1 L 161.2 174.1 L 161.2 137.8 Z M 44.7 129.8 L 44.7 155.53571424484252 L 47.7 155.0 L 53.5 154.0 L 59.5 152.9 L 65.6 151.8 L 72.0 150.9 L 72.8 150.79090909957887 L 72.8 129.8 Z M 44.7 102.5 L 44.7 125.8 L 72.8 125.8 L 72.8 102.5 Z M 121.3 71.8 L 156.1 71.8 L 162.1 66.8 L 173.1 75.8 L 168.1 79.8 L 168.1 115.1 L 156.1 121.1 L 156.1 111.1 L 121.3 111.1 L 121.3 118.1 L 109.3 124.1 L 109.3 65.8 Z M 121.3 75.8 L 121.3 107.1 L 156.1 107.1 L 156.1 75.8 Z M 44.7 75.1 L 44.7 98.5 L 72.8 98.5 L 72.8 75.1 Z " />
</g>
</svg>
