<svg xmlns="http://www.w3.org/2000/svg" xmlns:xlink="http://www.w3.org/1999/xlink" version="1.1" baseProfile="full" viewBox="0 0 200 200" width="200" height="200">
<g fill="black">
<path d="M 149.0 112.5 L 152.0 114.5 L 149.0 116.3 L 149.0 132.3 L 165.0 132.3 L 175.0 122.3 L 187.0 132.3 L 187.0 136.3 L 149.0 136.3 L 149.0 181.0 L 137.0 187.0 L 137.0 179.0 L 63.0 179.0 L 63.0 182.0 L 51.0 188.0 L 51.0 136.3 L 13.0 136.3 L 13.0 132.3 L 51.0 132.3 L 51.0 110.5 L 63.0 112.5 L 66.0 114.5 L 63.0 116.3 L 63.0 132.3 L 137.0 132.3 L 137.0 110.5 Z M 63.0 157.2 L 63.0 175.0 L 137.0 175.0 L 137.0 157.2 Z M 63.0 136.3 L 63.0 153.2 L 137.0 153.2 L 137.0 136.3 Z M 156.9 109.0 L 149.1 106.3 L 141.7 103.4 L 134.7 100.3 L 128.1 97.0 L 121.9 93.4 L 116.1 89.6 L 110.9 85.5 L 106.93111114501953 81.7 L 106.0 81.7 L 106.0 107.2 L 94.0 113.2 L 94.0 88.52542371749878 L 93.9 88.6 L 87.4 92.6 L 80.5 96.4 L 73.1 99.9 L 65.2 103.2 L 56.8 106.2 L 47.9 108.9 L 38.5 111.2 L 28.6 113.2 L 18.2 114.8 L 17.7 113.0 L 27.6 109.5 L 36.9 106.1 L 45.7 102.6 L 54.0 99.1 L 61.7 95.4 L 68.9 91.6 L 75.5 87.7 L 81.6 83.6 L 84.08461542129517 81.7 L 18.0 81.7 L 18.0 77.7 L 94.0 77.7 L 94.0 50.9 L 106.0 52.9 L 109.0 54.9 L 106.0 56.7 L 106.0 77.7 L 160.0 77.7 L 170.0 67.7 L 182.0 77.7 L 182.0 81.7 L 112.4039999961853 81.7 L 113.1 82.0 L 119.0 84.5 L 125.1 87.0 L 131.5 89.4 L 138.1 91.6 L 145.1 93.8 L 152.4 95.8 L 160.0 97.7 L 168.0 99.4 L 176.3 100.9 L 185.3 102.9 L 173.6 113.9 L 165.0 111.5 Z M 149.7 58.5 L 150.6 62.0 L 146.4508833885193 61.199293327331546 L 144.7 62.6 L 142.1 64.7 L 139.4 66.6 L 136.6 68.6 L 133.8 70.5 L 127.8 74.1 L 124.6 75.7 L 121.5 77.6 L 120.4 76.2 L 122.8 73.6 L 125.0 70.8 L 127.2 68.1 L 131.4 62.9 L 133.4 60.3 L 135.4 57.8 L 137.3 55.3 L 139.1 52.9 L 140.23678092956544 51.22826328277588 L 140.2 51.2 L 140.4222222328186 50.955555534362794 L 140.8 50.4 L 140.8696478843689 50.463387393951415 L 141.2 50.1 Z M 64.7 70.5 L 63.6 68.4 L 62.3 66.3 L 60.7 64.1 L 58.9 61.8 L 56.9 59.5 L 54.7 57.1 L 52.2 54.5 L 49.3 52.3 L 50.3 50.7 L 53.6 52.3 L 57.0 53.7 L 60.2 55.2 L 63.1 56.8 L 65.9 58.5 L 68.4 60.3 L 70.8 62.2 L 73.0 64.2 L 75.0 66.4 L 76.8 68.6 L 77.2 73.2 L 74.4 76.7 L 69.8 77.2 L 66.2 74.3 L 65.6 72.4 Z M 13.3 64.9 L 12.9 60.4 L 15.6 56.7 L 17.6 55.9 L 19.5 54.7 L 21.3 53.0 L 23.1 50.9 L 24.7 48.4 L 26.1 45.3 L 27.4 41.6 L 28.6 37.5 L 29.6 32.9 L 30.1 27.9 L 31.9 27.8 L 32.5 33.0 L 32.8061224937439 36.0 L 94.0 36.0 L 94.0 10.6 L 106.0 12.6 L 109.0 14.6 L 106.0 16.4 L 106.0 36.0 L 170.0 36.0 L 170.66400003433228 35.446666622161864 L 171.0 34.7 L 171.30903005599976 34.909141540527344 L 176.0 31.0 L 187.0 40.0 L 182.0 43.0 L 177.53043479919432 44.86231880187988 L 177.4 45.0 L 175.4 46.9 L 173.2 48.9 L 170.9 51.0 L 168.4 53.1 L 165.7 55.3 L 162.8 57.6 L 159.7 59.9 L 156.6 62.6 L 155.3 61.3 L 157.7 58.1 L 159.7 54.8 L 161.6 51.7 L 163.4 48.8 L 165.0 46.1 L 166.5 43.5 L 167.9 41.0 L 168.44545450210572 40.0 L 33.04468088150024 40.0 L 33.1 42.6 L 32.8 46.9 L 32.1 51.0 L 30.9 54.9 L 29.3 58.5 L 27.2 61.8 L 24.6 64.7 L 21.5 67.2 L 17.0 67.7 Z " />
</g>
</svg>
