<svg xmlns="http://www.w3.org/2000/svg" xmlns:xlink="http://www.w3.org/1999/xlink" version="1.1" baseProfile="full" viewBox="0 0 200 200" width="200" height="200">
<g fill="black">
<path d="M 127.2 176.3 L 147.2 176.3 L 148.4 176.2 L 149.3 176.1 L 149.9 175.9 L 150.2 175.7 L 150.4 175.6 L 150.6 175.4 L 150.7 175.0 L 150.9 174.4 L 151.1 173.5 L 151.2 172.3 L 151.2 158.6 L 48.8 158.6 L 48.8 182.4 L 36.8 188.4 L 36.8 108.0 L 48.8 114.0 L 151.2 114.0 L 157.2 109.0 L 168.2 118.0 L 163.2 122.0 L 163.2 172.3 L 163.0 174.9 L 162.6 177.4 L 161.8 179.8 L 160.5 182.0 L 158.9 184.0 L 156.9 185.7 L 154.6 186.9 L 152.2 187.7 L 149.7 188.2 L 147.2 188.3 L 147.2 182.3 L 127.2 179.3 Z M 48.8 138.3 L 48.8 154.6 L 151.2 154.6 L 151.2 138.3 Z M 48.8 118.0 L 48.8 134.3 L 151.2 134.3 L 151.2 118.0 Z M 13.5 78.1 L 12.6 73.6 L 15.1 69.8 L 17.1 68.6 L 19.1 67.0 L 21.0 64.8 L 22.8 62.0 L 24.4 58.7 L 25.9 54.7 L 27.2 50.2 L 28.3 45.2 L 29.4 39.6 L 30.1 33.4 L 31.9 33.3 L 32.7 39.6 L 33.06440677642822 43.9 L 94.0 43.9 L 94.0 13.0 L 106.0 15.0 L 109.0 17.0 L 106.0 18.8 L 106.0 43.9 L 170.0 43.9 L 170.45806455612183 43.51827955245972 L 170.7 42.9 L 170.99863481521606 43.06780433654785 L 176.0 38.9 L 187.0 47.9 L 182.0 50.9 L 178.29032258987428 52.44569892883301 L 177.7 53.2 L 175.7 55.6 L 173.5 58.1 L 171.2 60.7 L 168.6 63.4 L 165.9 66.2 L 163.0 69.1 L 159.8 72.0 L 157.5892234802246 74.28209190368652 L 160.3 76.5 L 155.3 80.5 L 155.3 100.0 L 143.3 106.0 L 143.3 100.0 L 56.7 100.0 L 44.7 106.0 L 44.7 66.5 L 56.7 72.5 L 143.3 72.5 L 149.3 67.5 L 155.90518865585327 72.90424528121949 L 157.5 70.2 L 159.5 66.4 L 161.3 62.8 L 163.1 59.4 L 167.6 50.4 L 168.7111110687256 47.9 L 33.24285717010498 47.9 L 33.3 51.1 L 33.0 56.2 L 32.2 61.0 L 31.1 65.5 L 29.5 69.7 L 27.5 73.4 L 24.9 76.8 L 21.8 79.7 L 17.3 80.6 Z M 56.7 76.5 L 56.7 96.0 L 143.3 96.0 L 143.3 76.5 Z " />
</g>
</svg>
