<svg xmlns="http://www.w3.org/2000/svg" xmlns:xlink="http://www.w3.org/1999/xlink" version="1.1" baseProfile="full" viewBox="0 0 200 200" width="200" height="200">
<g fill="black">
<path d="M 158.3 182.2 L 149.1 177.6 L 140.9 172.5 L 138.2601788520813 170.38070697784423 L 131.3 174.0 L 120.2 178.4 L 107.9 182.1 L 94.6 184.9 L 80.1 186.8 L 79.8 185.1 L 93.7 181.2 L 106.4 176.9 L 117.7 172.3 L 127.8 167.2 L 131.75214281082154 164.68500003814697 L 127.7 160.5 L 122.8 153.6 L 119.0 146.2 L 116.4 138.4 L 115.41927709579468 131.0 L 97.0 131.0 L 97.0 127.0 L 162.0 127.0 L 168.0 122.0 L 179.0 131.0 L 174.0 134.0 L 171.91076231002808 134.87051572799683 L 169.7 139.9 L 164.4 148.4 L 157.8 156.0 L 150.1 162.8 L 147.63353357315063 164.48168172836304 L 154.1 167.8 L 162.6 171.2 L 172.1 174.1 L 182.4 176.5 L 191.2 178.6 L 179.5 189.4 L 168.4 186.1 Z M 20.2 155.9 L 24.0 155.59841270446776 L 24.0 133.0 L 36.0 135.0 L 39.0 137.0 L 36.0 138.8 L 36.0 154.73661975860597 L 40.2 154.5 L 47.7 154.1 L 55.5 153.7 L 63.8 153.4 L 72.5 153.1 L 72.86393442153931 153.0919125556946 L 73.0 152.7199999809265 L 73.0 122.0 L 85.0 124.0 L 88.0 126.0 L 85.0 127.8 L 85.0 152.9 L 91.0 152.9 L 100.9 153.1 L 101.0 154.8 L 91.3 156.6 L 83.5836594581604 157.92754249572755 L 81.7 161.5 L 78.0 166.6 L 73.5 171.1 L 68.3 175.1 L 62.4 178.6 L 55.7 181.6 L 48.4 184.2 L 40.4 186.3 L 31.6 187.8 L 22.1 188.8 L 21.8 187.1 L 30.7 184.1 L 38.8 181.1 L 46.1 178.0 L 52.5 174.8 L 58.0 171.3 L 62.7 167.7 L 66.5 163.9 L 69.38205127716064 160.15333337783812 L 64.5 160.9 L 56.4 162.1 L 48.6 163.3 L 41.3 164.5 L 34.4 165.6 L 27.8 166.7 L 25.792554664611817 167.06199836730957 L 24.1 170.5 L 21.7 167.8 L 18.2 156.1 Z M 117.60547943115235 131.0 L 120.4 137.0 L 124.2 143.5 L 128.6 149.4 L 133.8 154.8 L 139.4209238052368 159.3729549407959 L 144.2 155.6 L 150.5 149.2 L 155.5 142.3 L 159.4 134.9 L 160.8 131.0 Z M 45.7 116.4 L 33.7 122.4 L 33.7 54.0 L 45.7 60.0 L 150.2 60.0 L 155.70909090042113 55.40909090042114 L 155.3 55.0 L 157.8 52.0 L 159.8 49.0 L 161.7 46.2 L 163.5 43.5 L 165.2 41.0 L 166.7 38.6 L 168.1 36.3 L 168.2199999809265 36.1 L 32.94761905670166 36.1 L 33.0 38.3 L 32.7 42.3 L 32.0 46.1 L 30.8 49.6 L 29.1 52.9 L 27.0 56.0 L 24.4 58.7 L 21.3 61.0 L 16.8 61.2 L 13.3 58.3 L 13.0 53.7 L 15.9 50.2 L 17.9 49.5 L 19.8 48.5 L 21.5 47.1 L 23.2 45.4 L 24.8 43.2 L 26.2 40.5 L 27.5 37.3 L 28.7 33.7 L 29.7 29.6 L 30.1 25.1 L 31.9 25.1 L 32.4 29.7 L 32.672727298736575 32.1 L 94.0 32.1 L 94.0 9.4 L 106.0 11.4 L 109.0 13.4 L 106.0 15.2 L 106.0 32.1 L 170.0 32.1 L 170.64838705062866 31.559677410125733 L 171.1 30.6 L 171.4726674079895 30.87277717590332 L 176.0 27.1 L 187.0 36.1 L 182.0 39.1 L 176.7384614944458 41.292307662963864 L 175.2 42.6 L 173.0 44.3 L 170.7 46.1 L 168.2 48.0 L 165.6 49.9 L 162.7 51.9 L 159.6 53.9 L 157.2011236190796 55.8191011428833 L 167.2 64.0 L 162.2 68.0 L 162.2 113.4 L 150.2 119.4 L 150.2 113.4 L 45.7 113.4 Z M 45.7 88.3 L 45.7 109.4 L 92.0 109.4 L 92.0 88.3 Z M 104.0 88.3 L 104.0 109.4 L 150.2 109.4 L 150.2 88.3 Z M 45.7 64.0 L 45.7 84.3 L 92.0 84.3 L 92.0 64.0 Z M 104.0 64.0 L 104.0 84.3 L 150.2 84.3 L 150.2 64.0 Z " />
</g>
</svg>
