<svg xmlns="http://www.w3.org/2000/svg" xmlns:xlink="http://www.w3.org/1999/xlink" version="1.1" baseProfile="full" viewBox="0 0 200 200" width="200" height="200">
<g fill="black">
<path d="M 31.7 69.5 L 29.2 72.7 L 26.2 75.4 L 21.7 76.1 L 17.9 73.6 L 17.2 69.0 L 19.8 65.3 L 21.7 64.3 L 23.6 62.9 L 25.4 61.0 L 27.1 58.5 L 28.7 55.5 L 30.1 52.0 L 31.4 48.0 L 32.5 43.4 L 33.5 38.3 L 34.2 32.6 L 36.0 32.6 L 36.7 38.3 L 37.03333330154419 41.9 L 96.0 41.9 L 96.0 13.8 L 108.0 15.8 L 111.0 17.8 L 108.0 19.6 L 108.0 41.9 L 169.7 41.9 L 170.31395349502563 41.388372135162356 L 170.5 40.9 L 170.7338252067566 41.038479042053225 L 175.7 36.9 L 186.7 45.9 L 181.7 48.9 L 177.84399995803832 50.50666666030884 L 177.4 51.0 L 175.4 53.2 L 173.3 55.4 L 171.0 57.8 L 168.6 60.2 L 165.9 62.7 L 163.1 65.3 L 160.0 67.9 L 157.0 70.9 L 155.6 69.7 L 157.8 66.2 L 159.7 62.6 L 161.5 59.3 L 163.2 56.2 L 164.8 53.2 L 167.5 47.8 L 168.41199998855592 45.9 L 37.24313726425171 45.9 L 37.3 48.8 L 37.0 53.5 L 36.3 58.0 L 35.2 62.1 L 33.7 66.0 L 32.98888893127442 67.2444444656372 L 44.7 73.1 L 99.3 73.1 L 99.3 50.3 L 111.3 52.3 L 114.3 54.3 L 111.3 56.1 L 111.3 73.1 L 161.4 73.1 L 171.4 63.1 L 183.4 73.1 L 183.4 77.1 L 44.7 77.1 L 44.7 123.6 L 44.1 132.8 L 43.0 141.5 L 41.4 149.7 L 39.2 157.4 L 36.4 164.7 L 33.1 171.3 L 29.2 177.5 L 24.8 183.0 L 19.8 187.8 L 14.2 191.9 L 13.0 190.5 L 17.0 185.2 L 20.5 179.8 L 23.6 174.1 L 26.2 168.1 L 28.4 161.7 L 30.2 154.9 L 31.5 147.8 L 32.4 140.2 L 32.8 132.1 L 32.7 123.6 L 32.7 67.75 Z M 109.2011236190796 138.0 L 143.4 138.0 L 143.4 119.6 L 111.1 119.6 L 111.1 125.5 L 110.1 134.8 Z M 111.1 99.7 L 111.1 115.6 L 143.4 115.6 L 143.4 99.7 Z M 150.8 183.4 L 142.8 179.2 L 135.5 174.6 L 128.8 169.5 L 122.8 164.0 L 117.5 158.0 L 112.9 151.7 L 109.2 144.9 L 108.07530288696289 142.00792169570923 L 107.6 143.7 L 103.7 151.9 L 98.5 159.5 L 92.0 166.4 L 84.2 172.6 L 75.2 178.2 L 65.0 183.2 L 53.6 187.4 L 40.9 191.0 L 40.4 189.3 L 52.2 183.9 L 62.7 178.4 L 71.8 172.6 L 79.6 166.6 L 86.0 160.4 L 91.1 153.9 L 94.9 147.2 L 96.78405799865723 142.0 L 55.9 142.0 L 55.9 138.0 L 97.84722223281861 138.0 L 98.8 133.1 L 99.1 125.5 L 99.1 119.6 L 51.1 119.6 L 51.1 115.6 L 99.1 115.6 L 99.1 99.7 L 56.8 99.7 L 56.8 95.7 L 99.1 95.7 L 99.1 82.2 L 111.1 84.2 L 114.1 86.2 L 111.1 88.0 L 111.1 95.7 L 143.4 95.7 L 149.4 90.7 L 160.4 99.7 L 155.4 103.7 L 155.4 115.6 L 165.11818180084228 115.6 L 173.3 106.6 L 183.3 115.6 L 183.3 119.6 L 155.4 119.6 L 155.4 148.0 L 143.4 154.0 L 143.4 142.0 L 112.21379308700561 142.0 L 112.7 142.6 L 117.6 148.0 L 122.7 153.1 L 128.3 157.7 L 134.4 162.0 L 140.9 165.9 L 147.9 169.4 L 155.5 172.5 L 163.6 175.3 L 172.2 177.7 L 180.2 180.1 L 168.5 190.4 L 159.4 187.1 Z " />
</g>
</svg>
