<svg xmlns="http://www.w3.org/2000/svg" xmlns:xlink="http://www.w3.org/1999/xlink" version="1.1" baseProfile="full" viewBox="0 0 200 200" width="200" height="200">
<g fill="black">
<path d="M 71.1 55.2 L 73.0 58.3 L 69.21748094558716 58.684662914276124 L 66.4 63.9 L 61.5 72.4 L 56.4 80.7 L 51.0 88.8 L 45.4 96.7 L 44.901727485656735 97.35028791427612 L 50.6 98.3 L 53.6 100.3 L 50.6 102.1 L 50.6 183.0 L 38.6 189.0 L 38.6 105.49180326461791 L 33.4 111.8 L 27.0 119.0 L 20.3 125.9 L 13.2 132.4 L 11.9 131.2 L 17.4 123.4 L 28.2 107.8 L 33.3 100.0 L 38.3 92.0 L 43.1 83.9 L 47.7 75.6 L 52.1 67.2 L 56.3 58.7 L 60.3 50.0 L 60.34029846191406 50.01940298080444 L 60.9 48.9 Z M 153.3 179.8 L 144.1 176.0 L 135.5 171.6 L 127.8 166.6 L 126.43245029449463 165.48642387390137 L 121.4 168.2 L 110.2 173.1 L 98.0 177.3 L 84.7 180.9 L 70.4 183.7 L 55.1 185.8 L 54.8 184.1 L 69.6 180.0 L 83.3 175.7 L 95.8 171.1 L 107.2 166.1 L 117.5 160.7 L 119.39328861236572 159.49328861236572 L 114.6 154.7 L 109.3 147.8 L 104.9 140.3 L 101.88874998092652 133.0 L 84.0 133.0 L 84.0 129.0 L 151.0 129.0 L 151.19802951812744 128.83497533798217 L 151.8 127.9 L 152.10397272109986 128.08002271652222 L 157.0 124.0 L 168.0 133.0 L 163.0 136.0 L 159.6 137.4166666984558 L 156.1 142.2 L 149.0 149.7 L 140.8 156.5 L 135.44661054611205 160.10771894454956 L 140.3 162.6 L 148.3 165.8 L 156.9 168.6 L 166.1 170.8 L 176.1 172.4 L 185.7 174.1 L 173.8 185.5 L 163.2 182.9 Z M 104.46060609817505 133.0 L 108.4 138.0 L 113.9 144.1 L 119.7 149.5 L 126.0 154.4 L 126.6830982208252 154.83559885025025 L 134.6 148.7 L 141.4 142.1 L 147.1 135.2 L 148.51643838882447 133.0 Z M 107.8 93.4 L 107.1 91.8 L 106.3 90.2 L 105.3 88.6 L 104.3 86.9 L 103.2 85.2 L 102.0 83.5 L 100.3 82.2 L 100.4375 81.99375 L 96.5 84.4 L 90.7 87.7 L 84.3 90.8 L 77.4 93.7 L 76.5 92.2 L 82.3 87.6 L 87.7 83.2 L 92.7 79.0 L 97.3 75.0 L 101.3 71.2 L 104.9 67.4 L 108.0 63.8 L 110.6 60.4 L 112.6 57.1 L 113.74089221954345 54.818215656280515 L 113.7 54.8 L 114.0666666984558 54.16666669845581 L 114.2 53.9 L 114.21595134735108 53.908811283111575 L 114.8 52.9 L 124.7 59.7 L 126.4 62.9 L 122.328244972229 63.038025569915774 L 122.0 63.5 L 118.9 67.1 L 116.0 70.0 L 155.8473684310913 70.0 L 157.3 68.2 L 157.73704919815063 68.55245904922485 L 162.0 65.0 L 173.0 74.0 L 168.0 77.0 L 163.71812076568602 78.78411636352538 L 160.9 81.8 L 154.4 87.6 L 147.3 93.0 L 139.4 98.2 L 130.9 103.1 L 121.6 107.7 L 111.6 112.0 L 100.9 116.0 L 89.4 119.6 L 77.2 122.8 L 76.7 121.1 L 88.1 116.1 L 98.9 111.1 L 108.8 106.1 L 118.1 101.0 L 126.5 95.8 L 134.2 90.5 L 141.2 85.1 L 147.3 79.5 L 152.6035714149475 74.0 L 111.5285714149475 74.0 L 111.3 74.2 L 106.8 77.7 L 101.96901407241822 81.05211267471313 L 103.2 81.7 L 105.4 82.3 L 107.4 83.1 L 109.4 84.1 L 111.4 85.2 L 113.2 86.4 L 115.0 87.7 L 116.7 89.2 L 118.3 90.7 L 119.8 92.4 L 120.2 97.0 L 117.4 100.6 L 112.8 101.0 L 109.2 98.2 L 108.8 96.6 Z M 13.3 62.5 L 13.0 57.9 L 15.9 54.4 L 17.9 53.6 L 19.7 52.6 L 21.5 51.2 L 23.2 49.4 L 24.8 47.1 L 26.2 44.3 L 27.5 41.1 L 28.6 37.4 L 29.6 33.2 L 30.1 28.6 L 31.9 28.5 L 32.4 33.3 L 32.73333330154419 35.8 L 94.0 35.8 L 94.0 12.6 L 106.0 14.6 L 109.0 16.6 L 106.0 18.4 L 106.0 35.8 L 170.0 35.8 L 170.68823528289795 35.2264705657959 L 171.1 34.3 L 171.4726674079895 34.57277717590332 L 176.0 30.8 L 187.0 39.8 L 182.0 42.8 L 176.7384614944458 44.99230766296387 L 175.2 46.3 L 173.1 48.1 L 168.3 51.9 L 165.6 53.9 L 162.7 55.9 L 159.6 58.0 L 156.6 60.4 L 155.3 59.1 L 157.8 56.1 L 159.8 53.0 L 161.7 50.1 L 163.5 47.4 L 165.2 44.9 L 166.7 42.4 L 168.0 40.2 L 168.2285714149475 39.8 L 33.0 39.8 L 33.0 42.1 L 32.7 46.1 L 32.0 49.9 L 30.8 53.6 L 29.2 56.9 L 27.0 60.0 L 24.4 62.7 L 21.4 65.1 L 16.8 65.4 Z " />
</g>
</svg>
