<svg xmlns="http://www.w3.org/2000/svg" xmlns:xlink="http://www.w3.org/1999/xlink" version="1.1" baseProfile="full" viewBox="0 0 200 200" width="200" height="200">
<g fill="black">
<path d="M 146.0 181.3 L 135.3 176.5 L 125.9 170.8 L 118.0 164.4 L 111.6 157.3 L 106.9 149.5 L 103.8 141.0 L 102.8924690246582 135.23069591522216 L 101.8 139.2 L 97.0 149.1 L 90.5 157.9 L 82.3 165.5 L 72.6 172.0 L 61.3 177.3 L 48.6 181.5 L 34.3 184.6 L 18.5 186.5 L 18.2 184.8 L 33.4 180.9 L 46.9 176.4 L 58.6 171.3 L 68.6 165.5 L 76.8 159.0 L 83.3 151.9 L 88.2 144.2 L 91.6 135.8 L 93.5 126.6 L 93.99504947662354 116.6 L 48.2 116.6 L 48.2 128.6 L 36.2 134.6 L 36.2 63.1 L 46.87200002670288 68.43599996566772 L 47.8 68.1 L 53.5 66.2 L 59.0 64.4 L 64.4 62.7 L 69.6 61.0 L 74.6 59.4 L 79.4 57.7 L 84.1 56.1 L 88.6 54.5 L 91.93369064331054 53.18202934265137 L 91.9 53.1 L 91.97645025253296 53.165124320983885 L 92.9 52.8 L 93.39169960021972 54.3707070350647 L 102.7 62.3 L 103.0 65.4 L 98.85832824707032 63.53924894332886 L 96.5 64.3 L 91.8 65.4 L 87.0 66.4 L 82.0 67.4 L 76.9 68.4 L 71.5 69.3 L 66.1 70.1 L 60.4 70.8 L 54.6 71.4 L 48.5 71.8 L 48.2 71.80967741012573 L 48.2 89.3 L 74.6 89.3 L 84.6 79.3 L 96.6 89.3 L 96.6 93.3 L 48.2 93.3 L 48.2 112.6 L 150.8 112.6 L 150.8 93.3 L 108.0 93.3 L 108.0 89.3 L 150.8 89.3 L 150.8 69.9 L 109.0 69.9 L 109.0 65.9 L 150.8 65.9 L 156.8 60.9 L 157.2561939239502 61.273249530792235 L 157.7 60.7 L 159.7 57.4 L 161.6 54.4 L 163.4 51.5 L 165.1 48.9 L 166.6 46.3 L 167.9 43.9 L 168.33636360168458 43.1 L 33.0456521987915 43.1 L 33.1 45.6 L 32.8 49.8 L 32.0 53.9 L 30.9 57.7 L 29.3 61.2 L 27.1 64.4 L 24.5 67.3 L 21.5 69.7 L 16.9 70.2 L 13.3 67.4 L 12.9 62.8 L 15.7 59.2 L 17.7 58.4 L 19.6 57.2 L 21.4 55.6 L 23.1 53.6 L 24.7 51.1 L 26.2 48.1 L 27.5 44.6 L 28.6 40.6 L 29.6 36.2 L 30.1 31.2 L 31.9 31.2 L 32.5 36.2 L 32.80208330154419 39.1 L 94.0 39.1 L 94.0 14.3 L 106.0 16.3 L 109.0 18.3 L 106.0 20.1 L 106.0 39.1 L 170.0 39.1 L 170.55652170181276 38.636231899261475 L 171.0 37.7 L 171.37275743484497 37.956035423278806 L 176.0 34.1 L 187.0 43.1 L 182.0 46.1 L 177.190625 48.10390625 L 175.3 49.9 L 173.2 51.8 L 170.8 53.8 L 168.3 55.9 L 165.7 58.1 L 162.8 60.3 L 159.6 62.5 L 159.18992805480957 62.85539569854736 L 167.8 69.9 L 162.8 73.9 L 162.8 116.6 L 150.8 122.6 L 150.8 116.6 L 106.15 116.6 L 109.0 118.5 L 105.58844766616821 120.5469313621521 L 105.14372625350953 124.92002534866333 L 106.5 131.4 L 109.3 139.1 L 113.2 145.9 L 116.45709009170533 149.95474481582642 L 119.4 148.4 L 124.7 145.8 L 129.8 143.3 L 134.8 141.0 L 139.7 138.6 L 144.4 136.4 L 149.0 134.1 L 153.4 131.8 L 157.7 129.6 L 160.82691020965575 127.84587965011596 L 160.8 127.8 L 160.84128999710083 127.83781290054321 L 161.8 127.3 L 162.95909090042113 129.77727270126343 L 170.3 136.5 L 170.5 139.8 L 166.7554217338562 138.2546184539795 L 162.4 139.9 L 157.7 141.7 L 152.9 143.3 L 147.9 145.0 L 142.8 146.6 L 137.5 148.1 L 132.1 149.5 L 126.4 150.9 L 120.6 152.0 L 118.45714282989502 152.3214285850525 L 124.1 157.4 L 131.4 162.2 L 140.0 166.5 L 150.0 170.2 L 161.4 173.3 L 174.1 175.8 L 183.5 177.6 L 171.7 188.8 L 158.2 185.4 Z M 29.9 157.0 L 30.5 152.5 L 34.0 149.7 L 38.1 148.8 L 41.6 147.7 L 44.6 146.5 L 47.3 145.1 L 49.5 143.5 L 51.4 141.7 L 53.1 139.5 L 54.5 137.0 L 55.6 133.9 L 56.0 130.5 L 57.7 130.3 L 58.3 134.0 L 58.7 137.8 L 58.3 141.5 L 57.2 145.1 L 55.4 148.5 L 52.9 151.7 L 49.8 154.5 L 46.1 157.1 L 41.9 159.3 L 37.2 161.2 L 32.7 160.6 Z " />
</g>
</svg>
