<svg xmlns="http://www.w3.org/2000/svg" xmlns:xlink="http://www.w3.org/1999/xlink" version="1.1" baseProfile="full" viewBox="0 0 200 200" width="200" height="200">
<g fill="black">
<path d="M 162.7 185.7 L 158.3 183.8 L 153.4 181.9 L 147.8 180.0 L 141.6 178.1 L 134.8 176.2 L 127.4 174.2 L 119.4 172.2 L 110.8 170.0 L 111.1 168.2 L 119.9 168.4 L 128.2 168.9 L 136.0 169.7 L 143.2 170.7 L 149.8 171.8 L 155.9 173.0 L 161.5 174.3 L 166.6 175.8 L 171.2 177.4 L 175.3 179.1 L 178.1 182.8 L 177.6 187.3 L 173.9 190.1 L 169.4 189.6 L 166.4 187.7 Z M 79.53667097091675 165.98361511230468 L 87.3 173.1 L 87.5 176.3 L 83.67532787322997 174.72156391143798 L 83.5 174.8 L 78.9 176.5 L 73.8 178.0 L 68.2 179.6 L 62.2 181.1 L 55.6 182.6 L 48.6 184.0 L 41.0 185.4 L 32.9 186.7 L 24.3 187.8 L 15.1 188.7 L 14.8 187.0 L 23.5 184.1 L 31.7 181.5 L 39.4 179.0 L 46.6 176.7 L 53.3 174.4 L 59.5 172.2 L 65.1 170.1 L 70.1 167.9 L 74.6 165.9 L 77.72164182662964 164.3391791343689 L 77.7 164.3 L 77.73529415130615 164.33235292434694 L 78.6 163.9 Z M 56.0 114.3 L 144.0 114.3 L 150.0 109.3 L 161.0 118.3 L 156.0 122.3 L 156.0 162.9 L 144.0 168.9 L 144.0 162.9 L 56.0 162.9 L 44.0 168.9 L 44.0 108.3 Z M 56.0 148.0 L 56.0 158.9 L 144.0 158.9 L 144.0 148.0 Z M 56.0 133.2 L 56.0 144.0 L 144.0 144.0 L 144.0 133.2 Z M 56.0 118.3 L 56.0 129.2 L 144.0 129.2 L 144.0 118.3 Z M 147.3 107.9 L 145.1 108.4 L 142.9 108.7 L 140.8 109.0 L 138.6 109.2 L 134.2 109.4 L 134.2 103.4 L 114.2 100.4 L 114.2 97.4 L 134.2 97.4 L 135.9 97.3 L 137.7 97.2 L 139.4 97.1 L 141.1 96.9 L 142.9 96.6 L 144.5 96.2 L 146.2 95.8 L 147.9 95.3 L 149.6 94.7 L 151.2 94.1 L 153.0 93.2 L 154.6 91.7 L 156.2 89.7 L 157.8 86.8 L 159.1 83.2 L 160.3 78.8 L 161.2 73.6 L 161.8 67.7 L 162.0 63.23333330154419 L 162.0 55.4 L 56.95714282989502 55.4 L 54.5 57.4 L 49.8 60.7 L 44.7 64.0 L 39.2 67.1 L 33.3 70.1 L 26.9 73.0 L 20.1 75.6 L 12.7 77.9 L 12.0 76.3 L 18.4 72.2 L 24.4 68.2 L 30.0 64.4 L 35.1 60.7 L 39.9 57.0 L 44.1 53.4 L 48.0 49.8 L 51.3 46.2 L 54.2 42.7 L 56.035789489746094 40.02280702590942 L 56.0 40.0 L 56.404081630706784 39.48571424484253 L 56.6 39.2 L 56.61788539886474 39.21360034942627 L 57.1 38.6 L 66.2 46.5 L 67.4 49.9 L 63.37741937637329 49.48387098312378 L 62.7 50.2 L 61.435135173797605 51.4 L 162.0 51.4 L 168.0 46.4 L 179.0 55.4 L 174.0645161628723 58.36129035949707 L 174.1 61.2 L 173.7 68.5 L 173.1 75.2 L 172.0 81.3 L 170.6 86.8 L 168.7 91.8 L 166.3 96.2 L 163.4 100.0 L 159.8 103.1 L 155.7 105.3 L 149.4 107.4 Z M 66.9 64.1 L 112.5 64.1 L 118.5 59.1 L 129.5 68.1 L 124.5 72.1 L 124.5 90.6 L 112.5 96.6 L 112.5 88.6 L 66.9 88.6 L 66.9 91.6 L 54.9 97.6 L 54.9 58.1 Z M 66.9 68.1 L 66.9 84.6 L 112.5 84.6 L 112.5 68.1 Z M 13.2 52.1 L 13.2 47.5 L 16.3 44.2 L 18.3 43.7 L 20.1 42.9 L 21.8 41.8 L 23.5 40.5 L 25.0 38.7 L 26.4 36.6 L 27.7 34.0 L 28.8 31.0 L 29.8 27.6 L 30.1 23.7 L 31.9 23.6 L 32.3 27.6 L 32.52368421554566 29.3 L 94.0 29.3 L 94.0 9.9 L 106.0 11.9 L 109.0 13.9 L 106.0 15.7 L 106.0 29.3 L 170.0 29.3 L 170.7714285850525 28.65714282989502 L 171.4 27.4 L 171.83100109100343 27.77416572570801 L 176.0 24.3 L 187.0 33.3 L 182.0 36.3 L 174.7039999961853 39.339999961853025 L 172.8 40.7 L 170.5 42.1 L 168.0 43.7 L 165.4 45.2 L 162.5 46.9 L 159.5 48.5 L 156.5 50.5 L 155.4 49.1 L 157.9 46.5 L 159.9 43.8 L 161.9 41.3 L 163.7 38.9 L 165.4 36.6 L 167.0 34.5 L 167.7800000190735 33.3 L 32.85135135650635 33.3 L 32.9 35.1 L 32.6 38.6 L 31.8 42.0 L 30.6 45.1 L 28.9 48.1 L 26.7 50.8 L 24.1 53.2 L 21.1 55.2 L 16.5 55.2 Z " />
</g>
</svg>
