<svg xmlns="http://www.w3.org/2000/svg" xmlns:xlink="http://www.w3.org/1999/xlink" version="1.1" baseProfile="full" viewBox="0 0 200 200" width="200" height="200">
<g fill="black">
<path d="M 19.0 112.0 L 19.0 108.0 L 65.0 108.0 L 65.0 74.0 L 40.0 74.0 L 40.0 86.0 L 28.0 92.0 L 28.0 23.0 L 40.0 25.0 L 43.0 27.0 L 40.0 28.8 L 40.0 70.0 L 65.0 70.0 L 65.0 12.0 L 77.0 14.0 L 80.0 16.0 L 77.0 17.8 L 77.0 182.0 L 65.0 188.0 L 65.0 112.0 L 45.0 112.0 L 45.0 126.0 L 44.4 133.7 L 43.4 141.2 L 42.0 148.4 L 40.1 155.3 L 37.7 161.8 L 34.9 168.0 L 31.6 173.8 L 27.8 179.2 L 23.5 184.1 L 18.6 188.5 L 17.3 187.4 L 20.4 181.9 L 23.2 176.4 L 25.7 170.8 L 27.9 165.0 L 29.7 159.1 L 31.1 152.9 L 32.1 146.6 L 32.8 140.0 L 33.1 133.1 L 33.0 126.0 L 33.0 112.0 Z M 169.2 179.4 L 167.0 177.2 L 164.4 175.0 L 161.4 172.9 L 158.0 170.7 L 154.2 168.4 L 150.1 166.2 L 145.6 163.9 L 140.7 161.7 L 141.2 160.0 L 146.6 160.8 L 151.7 161.7 L 156.5 162.9 L 161.0 164.2 L 165.1 165.7 L 169.0 167.4 L 172.6 169.2 L 175.9 171.2 L 178.9 173.5 L 181.7 175.9 L 182.9 180.3 L 180.9 184.4 L 176.5 185.7 L 172.4 183.6 L 171.0 181.5 Z M 126.6 165.6 L 127.2 169.1 L 123.24076433181763 168.03949041366576 L 120.3 170.0 L 116.7 172.2 L 112.9 174.3 L 108.7 176.3 L 104.3 178.3 L 99.5 180.3 L 94.5 182.1 L 89.0 183.8 L 83.3 185.5 L 82.6 183.8 L 87.6 180.6 L 92.2 177.6 L 96.6 174.7 L 100.7 171.9 L 104.5 169.2 L 107.9 166.6 L 111.1 164.0 L 113.8 161.6 L 116.2 159.2 L 117.63360004425049 157.62986669540405 L 117.6 157.6 L 118.5 156.7 Z M 110.0 91.5 L 158.0 91.5 L 164.0 86.5 L 175.0 95.5 L 170.0 99.5 L 170.0 152.2 L 158.0 158.2 L 158.0 152.2 L 110.0 152.2 L 110.0 155.2 L 98.0 161.2 L 98.0 85.5 Z M 110.0 133.3 L 110.0 148.2 L 158.0 148.2 L 158.0 133.3 Z M 110.0 114.4 L 110.0 129.3 L 158.0 129.3 L 158.0 114.4 Z M 110.0 95.5 L 110.0 110.4 L 158.0 110.4 L 158.0 95.5 Z M 177.0 66.0 L 177.0 70.0 L 97.0 70.0 L 97.0 66.0 L 155.0 66.0 L 165.0 56.0 Z M 81.2 57.2 L 80.0 52.8 L 82.3 48.8 L 83.1 48.5 L 84.2 47.9 L 85.3 46.7 L 86.4 45.1 L 87.5 43.0 L 88.6 40.5 L 89.6 37.5 L 90.5 34.1 L 91.3 30.3 L 91.7 26.2 L 93.5 26.1 L 93.9 30.4 L 94.20769233703614 32.4 L 128.0 32.4 L 128.0 11.5 L 140.0 13.5 L 143.0 15.5 L 140.0 17.3 L 140.0 32.4 L 173.6 32.4 L 174.16842107772828 31.926315784454346 L 174.2 31.8 L 174.2757968902588 31.836835861206055 L 179.6 27.4 L 190.6 36.4 L 185.6 39.4 L 181.39016389846802 41.15409832000732 L 181.0 41.6 L 179.5 43.2 L 177.9 44.9 L 174.3 48.5 L 172.3 50.4 L 170.1 52.3 L 168.3 54.6 L 166.8 53.6 L 168.2 51.1 L 169.1 48.3 L 170.0 45.8 L 170.9 43.4 L 171.6 41.1 L 172.3 39.0 L 172.9 37.0 L 173.05789470672607 36.4 L 94.72702703475952 36.4 L 94.9 38.0 L 95.0 41.5 L 94.9 44.8 L 94.5 47.8 L 93.8 50.7 L 92.8 53.4 L 91.5 56.0 L 89.6 58.3 L 85.2 59.4 Z " />
</g>
</svg>
