<svg xmlns="http://www.w3.org/2000/svg" xmlns:xlink="http://www.w3.org/1999/xlink" version="1.1" baseProfile="full" viewBox="0 0 200 200" width="200" height="200">
<g fill="black">
<path d="M 14.0 176.6 L 94.0 176.6 L 94.0 144.2 L 58.6 144.2 L 58.6 156.2 L 46.6 162.2 L 46.6 90.1 L 58.6 96.1 L 94.0 96.1 L 94.0 72.5 L 32.0 72.5 L 32.0 68.5 L 146.0 68.5 L 156.0 58.5 L 158.6470588684082 60.70588235855102 L 159.0 60.0 L 160.9 56.4 L 162.6 53.1 L 164.2 49.9 L 165.7 47.0 L 167.0 44.2 L 168.0666666984558 41.8 L 32.84259262084961 41.8 L 32.9 44.9 L 32.5 50.0 L 31.8 54.7 L 30.7 59.1 L 29.2 63.2 L 27.1 66.9 L 24.6 70.3 L 21.6 73.2 L 17.1 74.0 L 13.2 71.5 L 12.4 67.1 L 14.9 63.2 L 16.8 62.1 L 18.8 60.5 L 20.6 58.3 L 22.4 55.6 L 24.0 52.4 L 25.5 48.5 L 26.8 44.1 L 27.9 39.1 L 28.9 33.6 L 29.6 27.5 L 31.4 27.5 L 32.2 33.6 L 32.62711868286133 37.8 L 93.5 37.8 L 93.5 11.3 L 105.5 13.3 L 108.5 15.3 L 105.5 17.1 L 105.5 37.8 L 169.3 37.8 L 169.9551724433899 37.25402297973633 L 170.1 36.9 L 170.26774196624757 36.99354839324951 L 175.3 32.8 L 186.3 41.8 L 181.3 44.8 L 177.6403314590454 46.32486190795898 L 175.1 49.4 L 172.9 51.8 L 170.6 54.4 L 168.1 57.0 L 165.4 59.8 L 162.6 62.6 L 161.79520959854125 63.32934131622314 L 168.0 68.5 L 168.0 72.5 L 106.0 72.5 L 106.0 96.1 L 142.3 96.1 L 148.3 91.1 L 159.3 100.1 L 154.3 104.1 L 154.3 150.2 L 142.3 156.2 L 142.3 144.2 L 106.0 144.2 L 106.0 176.6 L 165.0 176.6 L 175.0 166.6 L 187.0 176.6 L 187.0 180.6 L 14.0 180.6 Z M 58.6 100.1 L 58.6 140.2 L 142.3 140.2 L 142.3 100.1 Z " />
</g>
</svg>
