<svg xmlns="http://www.w3.org/2000/svg" xmlns:xlink="http://www.w3.org/1999/xlink" version="1.1" baseProfile="full" viewBox="0 0 200 200" width="200" height="200">
<g fill="black">
<path d="M 164.8 181.5 L 159.8 178.8 L 154.4 176.2 L 148.5 173.6 L 142.0 171.1 L 141.7623646736145 171.01045627593993 L 140.2 172.1 L 131.7 176.5 L 122.1 180.1 L 111.6 182.8 L 100.0 184.5 L 87.5 185.4 L 87.3 183.6 L 99.4 180.8 L 110.2 177.6 L 119.9 173.9 L 128.3 169.7 L 131.865714263916 167.42190475463866 L 127.6 166.0 L 119.7 163.5 L 116.64692993164063 162.51865606307985 L 114.2 166.7 L 100.8 165.8 L 117.27805824279785 137.7 L 96.4 137.7 L 96.4 133.7 L 119.62368936538697 133.7 L 131.0 114.3 L 140.3 122.1 L 141.9 125.4 L 138.07304573059082 125.90544681549072 L 133.51165914535522 133.7 L 164.9 133.7 L 174.9 123.7 L 186.9 133.7 L 186.9 137.7 L 166.3333333015442 137.7 L 163.7 145.6 L 159.6 153.6 L 154.2 160.7 L 149.51390628814698 165.16643304824828 L 151.2 165.6 L 157.8 167.5 L 163.9 169.6 L 169.6 171.9 L 174.8 174.4 L 179.7 177.1 L 182.2 180.9 L 181.3 185.4 L 177.5 187.9 L 173.0 187.0 L 169.1 184.3 Z M 148.0 112.5 L 139.9 109.3 L 131.3 106.3 L 122.2 103.5 L 113.7125 101.225 L 113.3 101.5 L 102.6 106.3 L 89.9 110.3 L 75.1 113.6 L 58.3 116.1 L 49.87747068405152 116.85359468460084 L 57.6 121.9 L 59.3 125.0 L 55.78970146179199 125.2420895576477 L 55.0 126.7 L 52.3 131.4 L 51.087234020233154 133.3 L 77.4 133.3 L 83.4 128.3 L 94.4 137.3 L 89.4 140.3 L 87.50253810882569 141.09060916900634 L 86.0 144.8 L 81.7 152.1 L 76.2 158.6 L 72.71829843521118 161.76031370162963 L 76.4 162.6 L 81.7 164.0 L 86.6 165.6 L 91.2 167.3 L 94.2 170.8 L 94.0 175.3 L 90.6 178.3 L 86.0 178.1 L 82.2 176.1 L 78.0 174.1 L 73.3 172.2 L 68.2 170.2 L 63.526676177978516 168.69786024093628 L 62.2 169.6 L 53.6 174.1 L 44.2 177.9 L 33.7 181.0 L 22.2 183.4 L 9.7 185.0 L 9.4 183.2 L 21.3 179.7 L 32.1 175.9 L 41.7 171.8 L 50.2 167.3 L 52.96953945159912 165.47893295288085 L 50.2 164.7 L 43.4 162.8 L 36.2 160.9 L 31.860162258148193 159.700834274292 L 28.3 163.9 L 24.2 168.4 L 15.4 160.3 L 19.3 155.9 L 23.0 151.6 L 26.6 147.2 L 30.0 142.9 L 33.2 138.5 L 34.04545450210571 137.3 L 9.6 137.3 L 9.6 133.3 L 36.827272701263425 133.3 L 39.2 129.7 L 42.0 125.2 L 44.5 120.8 L 46.44075164794922 117.16109066009521 L 39.3 117.8 L 18.1 118.7 L 18.0 116.9 L 38.8 114.0 L 57.4 110.8 L 73.7 107.1 L 87.7 103.0 L 99.3 98.4 L 99.95678882598877 98.0430495262146 L 91.4 96.3 L 80.1 94.1 L 69.96074323654175 92.31071939468384 L 63.8 100.5 L 50.6 98.1 L 68.83712577819824 73.8 L 14.0 73.8 L 14.0 69.8 L 71.83912172317505 69.8 L 88.2 48.0 L 96.6 56.9 L 97.8 60.3 L 93.8113857269287 60.60681648254395 L 86.89541282653809 69.8 L 167.9 69.8 L 177.9 59.8 L 189.9 69.8 L 189.9 73.8 L 134.2222222328186 73.8 L 132.9 80.8 L 128.6 88.9 L 122.71204004287719 94.96638298034668 L 124.1 95.2 L 133.8 97.3 L 143.1 99.8 L 151.8 102.5 L 160.1 105.6 L 167.9 109.0 L 170.8 112.5 L 170.5 117.1 L 166.9 120.0 L 162.4 119.7 L 155.4 116.0 Z M 131.1708519935608 137.7 L 118.39442729949951 159.53251123428345 L 120.5 159.7 L 128.9 160.8 L 136.8 162.2 L 138.4766583442688 162.56252069473265 L 141.6 159.9 L 146.5 154.3 L 150.3 148.2 L 153.1 141.6 L 154.02542371749877 137.7 Z M 48.534042549133304 137.3 L 46.3 140.8 L 43.0 145.5 L 39.6 150.1 L 36.0 154.7 L 34.04583110809326 157.0655729293823 L 36.8 157.1 L 44.3 157.5 L 51.5 158.2 L 58.3 159.1 L 61.05229740142822 159.5300464630127 L 63.6 157.4 L 68.7 152.0 L 72.7 146.2 L 75.6 140.1 L 76.475 137.3 Z M 83.88623857498169 73.8 L 71.50995283126831 90.25140419006348 L 80.5 90.4 L 92.1 91.0 L 103.3 92.0 L 109.24155530929565 92.832928276062 L 115.3 88.2 L 119.8 82.8 L 122.1 77.4 L 122.4214285850525 73.8 Z M 32.7 41.7 L 32.4 46.2 L 31.7 50.5 L 30.6 54.5 L 29.0 58.2 L 27.0 61.6 L 24.4 64.6 L 21.4 67.2 L 16.8 67.8 L 13.1 65.1 L 12.5 60.6 L 15.2 56.9 L 17.2 55.9 L 19.1 54.6 L 20.9 52.9 L 22.6 50.7 L 24.2 47.9 L 25.7 44.6 L 26.9 40.8 L 28.1 36.5 L 29.1 31.7 L 29.6 26.4 L 31.4 26.3 L 32.1 31.7 L 32.42692308425903 35.1 L 93.5 35.1 L 93.5 11.9 L 105.5 13.9 L 108.5 15.9 L 105.5 17.7 L 105.5 35.1 L 169.3 35.1 L 169.8930233001709 34.60581398010254 L 170.2 33.8 L 170.5739999771118 34.038333320617674 L 175.3 30.1 L 186.3 39.1 L 181.3 42.1 L 177.0043478012085 43.88985509872437 L 176.9 44.0 L 174.9 46.1 L 172.7 48.2 L 170.4 50.3 L 167.9 52.6 L 165.3 55.0 L 162.4 57.4 L 159.3 59.8 L 156.3 62.6 L 154.9 61.4 L 157.2 58.1 L 159.2 54.6 L 161.0 51.4 L 162.8 48.4 L 164.4 45.6 L 165.9 42.9 L 167.2 40.4 L 167.85 39.1 L 32.64583330154419 39.1 Z " />
</g>
</svg>
