<svg xmlns="http://www.w3.org/2000/svg" xmlns:xlink="http://www.w3.org/1999/xlink" version="1.1" baseProfile="full" viewBox="0 0 200 200" width="200" height="200">
<g fill="black">
<path d="M 142.4 180.1 L 133.6 176.6 L 124.4 173.4 L 114.7 170.2 L 112.0942681312561 169.45181951522827 L 108.4 171.2 L 95.3 175.7 L 80.3 179.3 L 63.2 182.3 L 44.1 184.3 L 23.0 185.5 L 22.9 183.8 L 43.7 180.6 L 62.3 177.0 L 78.7 172.9 L 93.0 168.4 L 99.11639719009399 165.85150117874144 L 94.0 164.5 L 83.0 161.8 L 71.6 159.1 L 63.99184627532959 157.35915126800538 L 55.5 167.0 L 42.5 163.6 L 66.55326633453369 136.3 L 14.0 136.3 L 14.0 132.3 L 70.0775544166565 132.3 L 95.1 103.9 L 102.8 113.3 L 103.7 116.8 L 99.5746340751648 116.9617790222168 L 86.06443204879761 132.3 L 164.0 132.3 L 174.0 122.3 L 186.0 132.3 L 186.0 136.3 L 143.5225806236267 136.3 L 141.2 144.3 L 136.0 152.6 L 128.8 159.8 L 123.20797157287598 163.50775804519654 L 127.0 164.4 L 136.8 167.1 L 146.1 170.0 L 155.1 173.2 L 163.7 176.6 L 166.8 180.0 L 166.7 184.6 L 163.3 187.6 L 158.7 187.5 L 150.8 183.7 Z M 82.5411545753479 136.3 L 66.07424411773681 154.99499130249023 L 72.2 155.4 L 84.0 156.5 L 95.3 158.0 L 106.3 159.9 L 109.96893730163575 160.63378744125367 L 114.7 158.0 L 122.2 152.2 L 127.5 146.1 L 130.6 140.0 L 131.37894735336303 136.3 Z M 56.6 80.4 L 55.3 78.8 L 53.7 77.3 L 51.9 75.7 L 50.0 74.2 L 47.8 72.6 L 45.5 71.0 L 42.9 69.4 L 42.807804870605466 69.36048784255982 L 42.0 70.0 L 36.9 73.6 L 31.3 77.0 L 25.3 80.0 L 18.8 82.7 L 17.9 81.1 L 23.3 76.8 L 28.2 72.6 L 32.8 68.5 L 37.0 64.3 L 40.8 60.2 L 44.2 56.0 L 47.1 51.8 L 49.6 47.5 L 51.8 43.2 L 53.1120924949646 39.80399580001831 L 53.1 39.8 L 53.19090909957886 39.6 L 53.5 38.8 L 53.545585250854494 38.81971254348755 L 54.1 37.6 L 64.6 43.6 L 66.5 46.6 L 62.5764705657959 47.141176509857175 L 61.8 48.5 L 59.92708330154419 51.4 L 88.8 51.4 L 94.8 46.4 L 105.8 55.4 L 100.8 58.4 L 98.78137369155884 59.241094303131106 L 96.8 63.9 L 92.0 72.0 L 86.2 79.4 L 79.3 86.2 L 71.6 92.4 L 62.9 97.9 L 53.2 102.8 L 42.6 107.1 L 31.1 110.7 L 18.6 113.5 L 18.1 111.8 L 29.9 107.1 L 40.5 102.2 L 50.2 97.0 L 58.8 91.5 L 66.4 85.7 L 72.9 79.5 L 78.4 73.0 L 82.9 66.2 L 86.4 59.1 L 87.73199996948242 55.4 L 57.019999980926514 55.4 L 55.1 57.8 L 51.2 62.1 L 46.8 66.2 L 45.449319171905515 67.2692889213562 L 46.8 67.4 L 49.8 67.8 L 52.6 68.4 L 55.4 69.2 L 58.0 70.1 L 60.5 71.1 L 62.9 72.2 L 65.2 73.5 L 67.3 75.0 L 69.0 79.2 L 67.3 83.5 L 63.0 85.1 L 58.8 83.4 L 57.8 81.9 Z M 130.7 78.2 L 150.7 78.2 L 151.9 78.1 L 152.8 78.0 L 153.4 77.8 L 153.7 77.6 L 153.9 77.4 L 154.1 77.3 L 154.2 76.9 L 154.4 76.3 L 154.6 75.4 L 154.7 74.2 L 154.7 53.1 L 122.7 53.1 L 122.7 95.9 L 122.9 96.9 L 123.0 97.5 L 123.3 98.1 L 123.5 98.4 L 124.5 98.9 L 125.4 99.1 L 126.7 99.2 L 173.3 99.2 L 178.8 78.2 L 180.8 78.2 L 178.8 99.2 L 182.1 101.4 L 184.3 104.7 L 182.1 108.0 L 178.8 110.2 L 126.7 110.2 L 124.2 110.1 L 121.8 109.7 L 119.4 109.0 L 117.2 107.8 L 115.2 106.3 L 113.5 104.3 L 112.3 102.1 L 111.4 99.7 L 110.9 97.3 L 110.7 94.7 L 110.7 43.1 L 122.7 49.1 L 154.7 49.1 L 160.7 44.1 L 171.7 53.1 L 166.7 57.1 L 166.7 74.2 L 166.5 76.7 L 166.1 79.2 L 165.3 81.6 L 164.1 83.9 L 162.4 85.9 L 160.4 87.6 L 158.1 88.8 L 155.7 89.6 L 153.2 90.0 L 150.7 90.2 L 150.7 84.2 L 130.7 81.2 Z M 18.4 46.9 L 18.6 42.3 L 21.9 39.2 L 23.8 38.8 L 25.5 38.3 L 27.1 37.6 L 28.5 36.7 L 29.9 35.4 L 31.3 33.8 L 32.5 31.9 L 33.5 29.5 L 34.5 26.8 L 34.7 23.7 L 36.5 23.6 L 36.8 26.8 L 36.940625 27.7 L 95.5 27.7 L 95.5 11.9 L 107.5 13.9 L 110.5 15.9 L 107.5 17.7 L 107.5 27.7 L 168.0 27.7 L 168.9 26.95 L 169.0 26.8 L 169.8 25.5 L 170.1818181991577 25.881818199157713 L 174.0 22.7 L 185.0 31.7 L 180.0 34.7 L 168.0 39.7 L 168.0 39.55 L 166.3 40.4 L 163.8 41.6 L 161.1 42.8 L 158.2 44.0 L 155.5 45.6 L 154.4 44.2 L 156.8 42.1 L 158.8 39.7 L 160.7 37.5 L 162.5 35.4 L 164.1 33.5 L 165.52105264663697 31.7 L 37.35483875274658 31.7 L 37.4 33.1 L 37.1 36.1 L 36.4 38.9 L 35.2 41.7 L 33.6 44.3 L 31.5 46.6 L 29.0 48.7 L 26.1 50.4 L 21.6 50.2 Z " />
</g>
</svg>
