<svg xmlns="http://www.w3.org/2000/svg" xmlns:xlink="http://www.w3.org/1999/xlink" version="1.1" baseProfile="full" viewBox="0 0 200 200" width="200" height="200">
<g fill="black">
<path d="M 140.6 186.0 L 125.8 183.6 L 112.5 180.7 L 100.8 177.3 L 100.44259386062622 177.16334466934205 L 91.7 179.8 L 78.3 183.0 L 64.2 185.6 L 49.3 187.5 L 33.5 188.6 L 17.0 189.0 L 16.9 187.2 L 33.1 184.9 L 48.5 182.2 L 62.9 179.1 L 76.5 175.6 L 88.05170545578002 172.05262584686278 L 81.9 168.8 L 74.9 163.7 L 69.8 157.9 L 66.74920635223388 151.7 L 45.0 151.7 L 45.0 147.7 L 135.6854838371277 147.7 L 139.3 145.0 L 139.66932182312013 145.4755651473999 L 143.0 142.7 L 154.0 151.7 L 149.0 154.7 L 141.67919464111327 157.75033559799195 L 137.2 160.8 L 127.0 166.5 L 116.97720928192139 171.05581398010253 L 127.5 172.7 L 141.9 174.2 L 157.8 175.3 L 175.2 176.0 L 186.6 176.4 L 174.7 189.1 L 156.9 187.8 Z M 69.24545450210572 151.7 L 72.8 155.1 L 78.5 158.9 L 85.3 162.4 L 93.6 165.6 L 100.37095584869385 167.5345588684082 L 101.0 167.3 L 111.9 162.4 L 121.9 157.0 L 130.21551723480223 151.7 Z M 139.5 139.2 L 137.2 138.9 L 134.9 138.3 L 132.7 137.3 L 130.7 135.8 L 129.1 134.0 L 127.7 131.9 L 126.8 129.6 L 126.2 127.2 L 126.0 124.6 L 126.0 116.5 L 85.19642858505249 116.5 L 84.5 119.1 L 81.2 123.7 L 76.7 127.2 L 71.1 130.0 L 64.3 132.2 L 56.4 134.1 L 47.3 135.6 L 36.8 136.8 L 25.1 137.5 L 12.0 137.8 L 11.9 136.0 L 24.7 133.8 L 36.0 131.5 L 46.0 129.2 L 54.5 126.8 L 61.6 124.2 L 67.1 121.6 L 71.0 118.9 L 73.2 116.6 L 73.2444444656372 116.5 L 25.0 116.5 L 25.0 112.5 L 74.0 112.5 L 74.0 104.0 L 86.0 106.0 L 89.0 108.0 L 86.0 109.8 L 86.0 112.5 L 126.0 112.5 L 132.0 107.5 L 143.0 116.5 L 138.0 120.5 L 138.0 124.6 L 137.9 125.9 L 137.9 126.8 L 138.0 127.5 L 138.0 128.0 L 138.4 128.8 L 138.8 129.2 L 139.5 129.6 L 140.6 129.9 L 142.0 130.1 L 175.5 130.1 L 180.0 117.1 L 182.0 117.1 L 180.0 130.1 L 182.7 131.9 L 184.5 134.6 L 182.7 137.3 L 180.0 139.1 L 142.0 139.1 Z M 53.9 73.4 L 146.0 73.4 L 152.0 68.4 L 163.0 77.4 L 158.0 81.4 L 158.0 101.7 L 146.0 107.7 L 146.0 99.7 L 53.9 99.7 L 41.9 105.7 L 41.9 67.4 Z M 53.9 77.4 L 53.9 95.7 L 146.0 95.7 L 146.0 77.4 Z M 63.1 39.1 L 136.8 39.1 L 142.8 34.1 L 153.8 43.1 L 148.8 47.1 L 148.8 62.6 L 136.8 68.6 L 136.8 62.6 L 63.1 62.6 L 51.1 68.6 L 51.1 33.1 Z M 63.1 43.1 L 63.1 58.6 L 136.8 58.6 L 136.8 43.1 Z M 13.1 43.9 L 13.5 39.3 L 16.9 36.3 L 18.9 36.0 L 20.8 35.5 L 22.4 34.9 L 23.9 34.0 L 25.3 33.0 L 26.6 31.6 L 27.9 29.9 L 28.9 27.8 L 29.9 25.3 L 30.1 22.4 L 31.9 22.3 L 32.2 25.3 L 32.31666669845581 26.0 L 94.0 26.0 L 94.0 11.3 L 106.0 13.3 L 109.0 15.3 L 106.0 17.1 L 106.0 26.0 L 170.0 26.0 L 170.6 25.5 L 171.1 24.8 L 172.0 23.5 L 172.42245988845826 23.981283378601074 L 176.0 21.0 L 187.0 30.0 L 182.0 33.0 L 170.0 38.0 L 170.0 37.14399995803833 L 167.6 38.2 L 165.1 39.2 L 162.3 40.3 L 159.3 41.3 L 156.4 42.8 L 155.5 41.3 L 158.0 39.3 L 160.2 37.1 L 162.2 34.9 L 164.1 33.0 L 165.8 31.1 L 166.83529415130616 30.0 L 32.75862064361572 30.0 L 32.8 31.2 L 32.4 34.1 L 31.5 36.8 L 30.2 39.5 L 28.4 41.9 L 26.2 44.1 L 23.6 46.1 L 20.7 47.7 L 16.1 47.3 Z " />
</g>
</svg>
