<svg xmlns="http://www.w3.org/2000/svg" xmlns:xlink="http://www.w3.org/1999/xlink" version="1.1" baseProfile="full" viewBox="0 0 200 200" width="200" height="200">
<g fill="black">
<path d="M 157.6 185.7 L 153.5 183.9 L 148.8 182.1 L 143.6 180.3 L 137.7 178.5 L 131.3 176.7 L 124.4 174.9 L 116.8 172.9 L 108.8 170.8 L 109.0 169.0 L 117.4 169.1 L 125.2 169.6 L 132.5 170.3 L 139.3 171.1 L 145.6 172.1 L 151.4 173.2 L 156.6 174.4 L 161.4 175.7 L 165.7 177.2 L 169.6 178.8 L 172.4 182.4 L 171.9 187.0 L 168.3 189.7 L 163.8 189.3 L 161.0 187.5 Z M 79.02349462509156 166.7543044090271 L 86.9 173.9 L 87.0 177.1 L 83.17769784927368 175.5225419998169 L 83.0 175.6 L 78.6 177.1 L 73.8 178.6 L 68.5 180.0 L 62.8 181.4 L 56.6 182.8 L 49.9 184.1 L 42.8 185.3 L 35.1 186.5 L 27.0 187.5 L 18.3 188.3 L 17.9 186.5 L 26.2 183.8 L 33.9 181.3 L 41.2 178.9 L 48.0 176.7 L 54.3 174.6 L 60.1 172.5 L 65.4 170.5 L 70.2 168.5 L 74.4 166.5 L 77.21647396087647 165.12982349395753 L 77.2 165.1 L 77.22714910507202 165.1246301651001 L 78.1 164.7 Z M 57.2 118.6 L 139.7 118.6 L 145.7 113.6 L 156.7 122.6 L 151.7 126.6 L 151.7 164.2 L 139.7 170.2 L 139.7 164.2 L 57.2 164.2 L 45.2 170.2 L 45.2 112.6 Z M 57.2 150.3 L 57.2 160.2 L 139.7 160.2 L 139.7 150.3 Z M 57.2 136.5 L 57.2 146.3 L 139.7 146.3 L 139.7 136.5 Z M 57.2 122.6 L 57.2 132.5 L 139.7 132.5 L 139.7 122.6 Z M 27.6 106.0 L 93.5 106.0 L 93.5 92.1 L 65.9 92.1 L 53.9 98.1 L 53.9 60.5 L 65.9 66.5 L 93.5 66.5 L 93.5 57.0 L 42.7 57.0 L 42.7 53.0 L 138.01818180084229 53.0 L 146.2 44.0 L 156.2 53.0 L 156.2 57.0 L 105.5 57.0 L 105.5 66.5 L 133.8 66.5 L 139.8 61.5 L 150.8 70.5 L 145.8 74.5 L 145.8 92.1 L 133.8 98.1 L 133.8 92.1 L 105.5 92.1 L 105.5 106.0 L 157.87777776718139 106.0 L 164.1 99.0 L 172.1 106.0 L 172.1 110.0 L 27.6 110.0 Z M 65.9 70.5 L 65.9 88.1 L 133.8 88.1 L 133.8 70.5 Z M 13.3 62.5 L 13.0 57.9 L 15.9 54.4 L 17.9 53.6 L 19.7 52.6 L 21.5 51.2 L 23.2 49.4 L 24.8 47.1 L 26.2 44.3 L 27.5 41.1 L 28.6 37.4 L 29.6 33.2 L 30.1 28.6 L 31.9 28.5 L 32.4 33.3 L 32.73333330154419 35.8 L 94.0 35.8 L 94.0 12.6 L 106.0 14.6 L 109.0 16.6 L 106.0 18.4 L 106.0 35.8 L 170.0 35.8 L 170.68823528289795 35.2264705657959 L 171.1 34.3 L 171.4726674079895 34.57277717590332 L 176.0 30.8 L 187.0 39.8 L 182.0 42.8 L 176.7384614944458 44.99230766296387 L 175.2 46.3 L 173.1 48.1 L 168.3 51.9 L 165.6 53.9 L 162.7 55.9 L 159.6 58.0 L 156.6 60.4 L 155.3 59.1 L 157.8 56.1 L 159.8 53.0 L 161.7 50.1 L 163.5 47.4 L 165.2 44.9 L 166.7 42.4 L 168.0 40.2 L 168.2285714149475 39.8 L 33.0 39.8 L 33.0 42.1 L 32.7 46.1 L 32.0 49.9 L 30.8 53.6 L 29.2 56.9 L 27.0 60.0 L 24.4 62.7 L 21.4 65.1 L 16.8 65.4 Z " />
</g>
</svg>
