<svg xmlns="http://www.w3.org/2000/svg" xmlns:xlink="http://www.w3.org/1999/xlink" version="1.1" baseProfile="full" viewBox="0 0 200 200" width="200" height="200">
<g fill="black">
<path d="M 147.7 174.7 L 162.9 174.7 L 163.8 174.5 L 164.4 174.3 L 164.7 174.1 L 164.9 174.0 L 165.1 173.8 L 165.3 173.5 L 165.5 172.9 L 165.6 172.0 L 165.7 170.7 L 165.7 57.0 L 177.7 59.0 L 180.7 61.0 L 177.7 62.8 L 177.7 170.7 L 177.5 173.3 L 177.1 175.8 L 176.3 178.2 L 175.1 180.4 L 173.4 182.5 L 171.4 184.1 L 169.1 185.3 L 166.7 186.1 L 164.2 186.6 L 161.7 186.7 L 161.7 180.7 L 147.7 177.7 Z M 75.2 174.7 L 88.5 174.7 L 89.4 174.5 L 90.0 174.3 L 90.3 174.1 L 90.5 174.0 L 90.6 173.8 L 90.8 173.5 L 91.0 172.9 L 91.2 172.0 L 91.2 157.0 L 45.7 157.0 L 45.7 180.7 L 33.7 186.7 L 33.7 112.5 L 45.7 118.5 L 91.2 118.5 L 97.2 113.5 L 108.2 122.5 L 103.2 126.5 L 103.2 170.7 L 103.1 173.3 L 102.6 175.8 L 101.8 178.2 L 100.6 180.4 L 99.0 182.5 L 97.0 184.1 L 94.7 185.3 L 92.3 186.1 L 89.8 186.6 L 87.2 186.7 L 87.2 180.7 L 75.2 177.7 Z M 140.3 70.0 L 143.3 72.0 L 140.3 73.8 L 140.3 155.7 L 128.3 161.7 L 128.3 68.0 Z M 45.7 140.1 L 45.7 153.0 L 91.2 153.0 L 91.2 140.1 Z M 45.7 122.5 L 45.7 136.1 L 91.2 136.1 L 91.2 122.5 Z M 99.8 83.8 L 101.5 87.0 L 97.1154613494873 87.14862842559815 L 96.3 88.1 L 94.4 90.3 L 92.3 92.5 L 90.1 94.6 L 87.8 96.8 L 85.3 99.0 L 82.7 101.2 L 80.3 103.0 L 99.71818180084229 103.0 L 107.9 94.0 L 117.9 103.0 L 117.9 107.0 L 20.1 107.0 L 20.1 103.0 L 76.86551723480224 103.0 L 77.9 101.5 L 79.6 98.5 L 81.1 95.6 L 82.6 92.8 L 84.0 90.1 L 85.3 87.5 L 86.5 85.0 L 87.6 82.6 L 88.5 80.2 L 88.94864864349366 78.96621618270873 L 88.8 78.9 L 89.26444444656372 78.09777774810792 L 89.3 78.0 L 89.31595134735107 78.00881128311157 L 89.9 77.0 Z M 46.2 95.6 L 45.6 93.7 L 44.8 91.7 L 43.9 89.8 L 42.8 87.8 L 41.6 85.8 L 40.2 83.7 L 38.7 81.6 L 36.8 79.9 L 37.8 78.4 L 40.1 79.7 L 42.7 80.8 L 45.0 82.0 L 47.3 83.4 L 49.5 85.0 L 51.5 86.7 L 53.4 88.5 L 55.1 90.5 L 56.7 92.6 L 58.2 94.8 L 58.1 99.4 L 54.9 102.6 L 50.4 102.6 L 47.1 99.4 L 46.7 97.5 Z M 22.3 72.9 L 63.0 72.9 L 63.0 56.2 L 75.0 58.2 L 78.0 60.2 L 75.0 62.0 L 75.0 72.9 L 93.7 72.9 L 103.7 62.9 L 115.7 72.9 L 115.7 76.9 L 22.3 76.9 Z M 33.2 39.0 L 33.3 42.4 L 32.9 45.8 L 32.2 49.1 L 31.0 52.3 L 29.5 55.4 L 27.5 58.3 L 25.1 61.1 L 20.7 62.3 L 16.6 60.2 L 15.4 55.8 L 17.5 51.7 L 19.5 50.5 L 21.3 49.1 L 22.9 47.5 L 24.4 45.6 L 25.7 43.5 L 26.9 41.1 L 27.8 38.4 L 28.0 37.65 L 28.0 34.2 L 28.818181800842286 34.2 L 29.2 32.1 L 29.2 28.5 L 31.0 28.3 L 31.8 31.9 L 32.375 34.2 L 94.0 34.2 L 94.0 10.5 L 106.0 12.5 L 109.0 14.5 L 106.0 16.3 L 106.0 34.2 L 171.0 34.2 L 171.6983606338501 33.61803274154663 L 172.1 32.7 L 172.47513809204102 32.970718193054196 L 177.0 29.2 L 188.0 38.2 L 183.0 41.2 L 177.54432992935182 43.47319583892822 L 176.8 44.1 L 174.8 45.9 L 172.6 47.8 L 170.2 49.8 L 167.6 52.0 L 164.7 54.3 L 161.6 56.7 L 158.6 59.5 L 157.3 58.3 L 159.7 55.0 L 161.6 51.6 L 163.5 48.5 L 165.2 45.6 L 166.8 42.9 L 168.2 40.5 L 169.4 38.2 L 33.08571424484253 38.2 Z " />
</g>
</svg>
