<svg xmlns="http://www.w3.org/2000/svg" xmlns:xlink="http://www.w3.org/1999/xlink" version="1.1" baseProfile="full" viewBox="0 0 200 200" width="200" height="200">
<g fill="black">
<path d="M 40.7 70.3 L 64.1 70.3 L 70.1 65.3 L 81.1 74.3 L 76.1 78.3 L 76.1 165.5 L 64.1 171.5 L 64.1 159.5 L 40.7 159.5 L 40.7 171.5 L 28.7 177.5 L 28.7 64.3 Z M 163.0 180.6 L 161.2 182.2 L 159.2 183.6 L 157.1 184.7 L 154.9 185.7 L 152.7 186.4 L 150.3 187.0 L 147.9 187.3 L 145.4 187.4 L 145.4 181.4 L 125.4 178.4 L 125.4 175.4 L 145.4 175.4 L 146.9 175.3 L 148.3 175.1 L 149.5 174.9 L 150.7 174.5 L 151.8 174.0 L 152.8 173.4 L 153.8 172.7 L 154.8 171.9 L 155.8 170.9 L 156.7 169.8 L 157.9 167.6 L 159.4 163.8 L 160.7 158.5 L 162.0 151.7 L 163.0 143.6 L 163.9 134.1 L 164.6 123.4 L 165.1 111.3 L 165.4 97.9 L 165.48639459609984 85.2 L 104.5 85.2 L 100.2 90.2 L 95.5 95.0 L 90.6 99.6 L 85.2 104.0 L 79.5 108.0 L 78.3 106.7 L 82.6 101.3 L 86.7 96.0 L 90.6 90.7 L 94.2 85.5 L 97.6 80.2 L 100.7 74.9 L 103.5 69.6 L 106.1 64.2 L 108.3 58.8 L 109.9657223701477 54.21926345825195 L 109.9 54.2 L 110.8 51.9 L 121.5 57.6 L 123.5 60.6 L 119.7326503753662 61.26093854904175 L 118.7 63.4 L 115.6 69.1 L 112.2 74.6 L 108.5 80.0 L 107.57692308425904 81.2 L 165.5 81.2 L 171.5 76.2 L 182.5 85.2 L 177.5 88.2 L 177.46634883880614 88.21402130126953 L 177.4 98.1 L 177.1 111.6 L 176.6 124.0 L 175.9 135.1 L 174.9 144.9 L 173.8 153.6 L 172.4 161.0 L 170.8 167.3 L 168.8 172.6 L 166.3 177.0 L 164.7 178.9 Z M 105.3 105.4 L 130.7 105.4 L 136.7 100.4 L 147.7 109.4 L 142.7 113.4 L 142.7 153.1 L 130.7 159.1 L 130.7 147.1 L 105.3 147.1 L 105.3 159.1 L 93.3 165.1 L 93.3 99.4 Z M 40.7 115.7 L 40.7 155.5 L 64.1 155.5 L 64.1 115.7 Z M 105.3 109.4 L 105.3 143.1 L 130.7 143.1 L 130.7 109.4 Z M 40.7 74.3 L 40.7 111.7 L 64.1 111.7 L 64.1 74.3 Z M 16.7 64.9 L 15.3 60.5 L 17.4 56.4 L 19.4 55.1 L 21.2 53.6 L 22.8 51.8 L 24.3 49.9 L 25.7 47.6 L 26.8 45.1 L 27.8 42.2 L 28.0 41.4 L 28.0 37.9 L 28.788571453094484 37.9 L 29.2 35.5 L 29.2 31.8 L 31.0 31.5 L 31.8 35.3 L 32.43243246078491 37.9 L 94.0 37.9 L 94.0 12.9 L 106.0 14.9 L 109.0 16.9 L 106.0 18.7 L 106.0 37.9 L 171.0 37.9 L 171.60983610153198 37.39180326461792 L 172.0 36.5 L 172.37275743484497 36.75603542327881 L 177.0 32.9 L 188.0 41.9 L 183.0 44.9 L 177.85714282989503 47.04285717010498 L 176.9 48.0 L 174.9 49.8 L 172.7 51.8 L 170.3 54.0 L 167.6 56.3 L 164.8 58.7 L 161.7 61.3 L 158.6 64.2 L 157.3 63.0 L 159.6 59.6 L 161.6 56.1 L 163.4 52.8 L 165.2 49.8 L 166.7 47.1 L 168.1 44.5 L 169.4 42.2 L 169.53636360168457 41.9 L 33.091891860961915 41.9 L 33.2 42.7 L 33.3 46.3 L 33.0 49.8 L 32.2 53.2 L 31.1 56.6 L 29.5 59.8 L 27.5 62.8 L 25.1 65.6 L 20.8 66.9 Z " />
</g>
</svg>
