<svg xmlns="http://www.w3.org/2000/svg" xmlns:xlink="http://www.w3.org/1999/xlink" version="1.1" baseProfile="full" viewBox="0 0 200 200" width="200" height="200">
<g fill="black">
<path d="M 161.0 160.6 L 157.9 157.0 L 155.1 153.1 L 152.6 148.9 L 152.03071784973145 147.70968284606934 L 151.1 155.9 L 149.2 164.9 L 146.3 174.0 L 145.2 176.3 L 143.9 178.4 L 142.4 180.4 L 140.7 182.1 L 138.7 183.7 L 136.6 184.9 L 134.3 185.8 L 131.9 186.5 L 129.5 186.9 L 126.9 187.0 L 126.9 181.0 L 106.9 178.0 L 106.9 175.0 L 126.9 175.0 L 128.3 174.9 L 129.4 174.7 L 130.4 174.5 L 131.3 174.1 L 132.0 173.7 L 132.7 173.2 L 133.4 172.5 L 134.0 171.7 L 134.6 170.7 L 135.2 169.5 L 138.3 161.6 L 140.6 153.8 L 142.1 146.2 L 142.3159999847412 143.5 L 137.9 148.3 L 133.0 152.9 L 127.9 157.0 L 122.6 160.6 L 117.0 163.7 L 111.2 166.2 L 105.1 168.1 L 98.9 169.3 L 98.3 167.6 L 103.7 164.6 L 108.8 161.4 L 113.6 158.1 L 118.1 154.5 L 122.4 150.5 L 126.5 146.3 L 130.3 141.7 L 133.9 136.8 L 137.3 131.5 L 140.5 125.8 L 141.78274669647217 126.54004611968995 L 141.4 124.0 L 139.5 116.6 L 138.7687809944153 114.66749258041382 L 136.1 118.3 L 132.2 122.8 L 128.2 126.9 L 124.0 130.6 L 119.5 133.9 L 114.9 136.7 L 110.1 139.1 L 105.1 140.9 L 99.9 142.1 L 99.3 140.5 L 103.4 137.5 L 107.4 134.5 L 111.1 131.3 L 114.7 128.0 L 118.1 124.4 L 121.4 120.6 L 124.4 116.5 L 127.3 112.1 L 130.1 107.4 L 132.6 102.4 L 133.73377685546876 103.02036848068238 L 133.1 101.7 L 129.5047890663147 95.62808818817139 L 126.7 98.7 L 122.2 102.9 L 117.5 106.8 L 112.5 110.2 L 107.1 113.2 L 101.5 115.6 L 100.6 114.1 L 105.0 110.0 L 109.1 106.0 L 113.1 101.9 L 116.8 97.6 L 120.3 93.2 L 123.5 88.5 L 126.4 83.6 L 129.1 78.5 L 131.6 73.2 L 132.05 72.0 L 100.1 72.0 L 100.1 68.0 L 150.8 68.0 L 160.8 58.0 L 161.17123746871948 58.30936450958252 L 161.4 57.9 L 163.2 54.7 L 164.9 51.7 L 166.4 48.9 L 167.7 46.3 L 168.6119999885559 44.4 L 33.2 44.4 L 33.2 47.3 L 32.9 52.1 L 32.2 56.6 L 31.0 60.8 L 29.4 64.7 L 27.4 68.3 L 27.31875 68.4 L 73.6 68.4 L 83.6 58.4 L 95.6 68.4 L 95.6 72.4 L 74.9848484992981 72.4 L 74.0 73.7 L 70.6 78.0 L 66.8 82.2 L 62.6 86.2 L 58.2 90.1 L 54.80983200073242 92.78388299942017 L 57.8 95.3 L 64.6 102.7 L 70.0 110.6 L 71.97560977935791 114.74878044128418 L 72.5 113.7 L 74.1 110.8 L 75.6 108.1 L 77.2 105.4 L 78.7 102.8 L 80.2 100.3 L 83.2 95.5 L 84.0491304397583 94.10500001907349 L 83.9 94.0 L 85.0 92.7 L 93.7 100.9 L 94.7 104.4 L 90.49185180664062 103.73555555343628 L 89.6 104.5 L 87.5 106.4 L 85.3 108.3 L 80.7 112.3 L 75.7 116.3 L 73.49282922744752 117.93494129180908 L 73.89979553222656 118.78957052230835 L 76.1 119.7 L 78.9 121.1 L 81.5 122.7 L 84.0 124.3 L 86.3 126.0 L 88.5 127.8 L 90.6 129.8 L 92.5 131.8 L 94.3 133.9 L 94.9 138.5 L 92.1 142.1 L 87.6 142.6 L 83.9 139.9 L 83.2 137.9 L 82.3 135.9 L 81.3 133.8 L 80.1 131.7 L 78.7 129.6 L 77.2 127.4 L 76.16718406677246 126.06341466903686 L 76.7 127.8 L 77.9 137.0 L 77.7 146.4 L 76.0 156.1 L 72.8 166.0 L 68.3 176.1 L 67.0 178.2 L 65.5 180.2 L 63.9 182.0 L 62.0 183.6 L 60.0 185.0 L 57.9 186.1 L 55.6 186.9 L 53.2 187.5 L 50.8 187.9 L 48.3 188.0 L 48.3 182.0 L 32.3 179.0 L 32.3 176.0 L 48.3 176.0 L 49.7 175.9 L 50.9 175.8 L 52.0 175.5 L 53.0 175.1 L 53.9 174.6 L 54.7 174.1 L 55.5 173.4 L 56.3 172.5 L 57.1 171.5 L 57.8 170.3 L 62.3 161.7 L 65.6 153.2 L 67.7 145.0 L 68.2617169380188 140.06937351226807 L 67.5 140.8 L 62.4 145.2 L 57.1 149.2 L 51.6 152.9 L 45.9 156.1 L 40.0 159.0 L 34.0 161.5 L 27.7 163.4 L 21.2 164.8 L 20.6 163.1 L 26.2 159.9 L 31.6 156.6 L 36.8 153.3 L 41.9 149.7 L 46.7 146.0 L 51.3 142.0 L 55.7 137.7 L 59.9 133.3 L 63.9 128.5 L 67.30403881072998 124.02100162506103 L 66.8 121.4 L 64.1 113.6 L 63.56866483688354 112.5237057685852 L 63.5 112.6 L 59.6 116.5 L 55.5 120.1 L 51.2 123.6 L 46.6 127.0 L 41.9 130.1 L 36.9 133.1 L 31.7 135.8 L 26.2 138.2 L 20.5 140.3 L 19.7 138.7 L 24.3 134.9 L 28.8 131.3 L 33.2 127.6 L 37.3 124.0 L 41.3 120.4 L 45.0 116.7 L 48.5 112.9 L 51.8 109.1 L 54.8 105.2 L 57.46243686676026 101.61948137283325 L 54.9 97.8 L 52.36267194747925 94.63809881210327 L 48.2 97.6 L 42.7 101.2 L 36.8 104.6 L 30.6 107.8 L 23.9 110.8 L 22.9 109.2 L 28.5 104.6 L 33.8 100.2 L 38.8 95.9 L 43.5 91.7 L 47.8 87.5 L 51.8 83.4 L 55.4 79.3 L 58.6 75.2 L 60.58048782348633 72.4 L 25.9 72.4 L 25.9 70.14615383148194 L 24.8 71.5 L 21.7 74.2 L 17.2 74.9 L 13.4 72.3 L 12.7 67.8 L 15.3 64.0 L 17.3 63.0 L 19.2 61.5 L 21.1 59.6 L 22.9 57.1 L 24.5 54.1 L 26.0 50.6 L 27.3 46.4 L 28.4 41.8 L 29.4 36.6 L 30.1 30.9 L 31.9 30.9 L 32.6 36.7 L 33.00363636016846 40.4 L 94.0 40.4 L 94.0 11.9 L 106.0 13.9 L 109.0 15.9 L 106.0 17.7 L 106.0 40.4 L 170.0 40.4 L 170.5310344696045 39.95747127532959 L 170.8 39.3 L 171.1019165992737 39.481736183166504 L 176.0 35.4 L 187.0 44.4 L 182.0 47.4 L 178.08888893127443 49.02962961196899 L 177.6 49.6 L 175.5 51.7 L 173.4 54.0 L 171.0 56.4 L 168.5 58.8 L 165.8 61.4 L 165.3568106651306 61.797342205047606 L 172.8 68.0 L 172.8 72.0 L 145.1 72.0 L 144.9 72.4 L 141.8 78.3 L 138.4 83.9 L 134.8 89.1 L 130.96048641204834 94.02245330810547 L 136.2 99.6 L 141.4 106.7 L 141.8158868789673 107.44265508651733 L 143.2 108.2 L 142.6759825706482 108.97854022979736 L 145.6 114.2 L 147.83923044204712 119.83419275283813 L 152.7 112.3 L 154.6 109.1 L 156.6 105.8 L 158.6 102.3 L 160.5 98.8 L 162.4 95.1 L 163.76010236740112 92.22867269515991 L 163.7 92.2 L 164.02765960693358 91.6638298034668 L 164.2 91.3 L 164.23680696487426 91.32158870697022 L 164.8 90.4 L 174.6 97.4 L 176.2 100.7 L 172.28108110427857 100.7 L 172.0 101.1 L 169.3 104.6 L 166.5 107.9 L 163.8 111.1 L 160.9 114.0 L 158.0 116.8 L 155.1 119.4 L 152.0 121.7 L 149.1268292427063 123.64634141921997 L 150.72666664123534 129.817142868042 L 152.0 132.0 L 154.7 136.3 L 157.4 140.2 L 160.2 143.8 L 163.0 146.9 L 165.9 149.6 L 168.8 151.9 L 171.8 153.9 L 174.8 155.5 L 179.1 158.1 L 167.9 166.8 L 164.3 163.9 Z " />
</g>
</svg>
