<svg xmlns="http://www.w3.org/2000/svg" xmlns:xlink="http://www.w3.org/1999/xlink" version="1.1" baseProfile="full" viewBox="0 0 200 200" width="200" height="200">
<g fill="black">
<path d="M 130.95508155822753 112.42254600524902 L 140.1 120.2 L 140.3 123.3 L 136.2682580947876 121.52129030227661 L 134.3 122.2 L 131.2 122.8 L 128.0 123.5 L 124.8 124.1 L 121.5 124.7 L 118.1 125.3 L 114.7 125.8 L 111.1 126.3 L 107.78636360168457 126.66818180084229 L 105.9 127.8 L 105.9 145.9 L 119.5777777671814 145.9 L 125.8 138.9 L 133.8 145.9 L 133.8 149.9 L 105.9 149.9 L 105.9 170.1 L 165.8 170.1 L 165.8 149.9 L 141.9 149.9 L 141.9 145.9 L 165.8 145.9 L 165.8 126.5 L 140.8 126.5 L 140.8 122.5 L 165.8 122.5 L 171.8 117.5 L 182.8 126.5 L 177.8 130.5 L 177.8 178.1 L 165.8 184.1 L 165.8 174.1 L 105.9 174.1 L 105.9 181.1 L 93.9 187.1 L 93.9 122.0 L 104.14888887405395 123.70814819335938 L 106.3 122.6 L 109.5 120.9 L 112.7 119.4 L 115.8 117.8 L 121.8 115.0 L 127.6 112.2 L 129.47232475280762 111.26383762359619 L 129.4 111.1 L 129.54809684753417 111.22595157623292 L 130.4 110.8 Z M 46.5 175.1 L 65.7 175.1 L 66.6 174.9 L 67.2 174.7 L 67.5 174.5 L 67.7 174.4 L 67.9 174.2 L 68.1 173.9 L 68.2 173.3 L 68.4 172.4 L 68.5 171.1 L 68.5 126.5 L 47.3 126.5 L 47.3 133.6 L 46.7 141.9 L 45.8 149.5 L 44.6 156.6 L 43.1 163.0 L 41.2 168.9 L 39.0 174.1 L 36.5 178.7 L 33.5 182.6 L 30.2 185.7 L 26.6 187.8 L 25.4 186.5 L 27.4 183.2 L 29.1 179.7 L 30.6 175.8 L 31.9 171.4 L 33.0 166.6 L 34.0 161.1 L 34.7 155.1 L 35.1 148.5 L 35.3 141.3 L 35.3 53.1 L 47.3 59.1 L 68.5 59.1 L 74.5 54.1 L 85.5 63.1 L 80.5 67.1 L 80.5 171.1 L 80.3 173.7 L 79.9 176.2 L 79.1 178.6 L 77.9 180.8 L 76.2 182.9 L 74.2 184.5 L 71.9 185.7 L 69.5 186.5 L 67.0 187.0 L 64.5 187.1 L 64.5 181.1 L 46.5 178.1 Z M 47.3 94.0 L 47.3 122.5 L 68.5 122.5 L 68.5 94.0 Z M 161.0 107.1 L 156.8 108.7 L 154.6 109.4 L 152.4 109.9 L 150.2 110.3 L 148.0 110.6 L 145.7 110.8 L 143.4 110.9 L 143.4 104.9 L 127.4 101.9 L 127.4 98.9 L 143.4 98.9 L 145.1 98.8 L 146.7 98.7 L 148.3 98.5 L 149.9 98.2 L 151.5 97.8 L 154.5 96.8 L 157.5 95.4 L 157.94594593048095 95.16216220855713 L 158.1 94.7 L 158.7 93.1 L 159.2 90.9 L 159.8 88.2 L 160.4 84.9 L 161.1 81.2 L 161.7 77.0 L 161.9680850982666 75.2 L 126.58405799865723 75.2 L 123.5 80.8 L 119.5 87.3 L 115.0 93.5 L 110.1 99.4 L 104.9 105.0 L 99.3 110.2 L 93.2 114.9 L 86.7 119.2 L 85.5 117.7 L 90.6 112.1 L 95.4 106.4 L 99.9 100.7 L 104.1 94.8 L 108.0 88.7 L 111.5 82.5 L 114.6 76.1 L 117.5 69.5 L 119.9 62.7 L 121.81598358154297 56.60368852615356 L 121.8 56.6 L 122.6 54.1 L 133.5 59.3 L 135.8 62.1 L 132.06236753463745 63.01801500320435 L 130.6 66.8 L 128.55492954254152 71.2 L 162.4 71.2 L 168.4 66.2 L 179.4 75.2 L 174.4 78.2 L 173.6414048194885 78.5160813331604 L 173.6 78.8 L 172.9 83.2 L 172.2 87.1 L 171.6 90.6 L 170.9 93.7 L 170.2 96.3 L 169.5 98.7 L 168.6 100.7 L 167.4 102.7 L 165.1 104.9 L 163.1 106.1 Z M 47.3 63.1 L 47.3 90.0 L 68.5 90.0 L 68.5 63.1 Z M 33.2 39.0 L 33.3 42.4 L 32.9 45.8 L 32.2 49.1 L 31.0 52.3 L 29.5 55.4 L 27.5 58.3 L 25.1 61.1 L 20.7 62.3 L 16.6 60.2 L 15.4 55.8 L 17.5 51.7 L 19.5 50.5 L 21.3 49.1 L 22.9 47.5 L 24.4 45.6 L 25.7 43.5 L 26.9 41.1 L 27.8 38.4 L 28.0 37.65 L 28.0 34.2 L 28.818181800842286 34.2 L 29.2 32.1 L 29.2 28.5 L 31.0 28.3 L 31.8 31.9 L 32.375 34.2 L 94.0 34.2 L 94.0 10.5 L 106.0 12.5 L 109.0 14.5 L 106.0 16.3 L 106.0 34.2 L 171.0 34.2 L 171.6983606338501 33.61803274154663 L 172.1 32.7 L 172.47513809204102 32.970718193054196 L 177.0 29.2 L 188.0 38.2 L 183.0 41.2 L 177.54432992935182 43.47319583892822 L 176.8 44.1 L 174.8 45.9 L 172.6 47.8 L 170.2 49.8 L 167.6 52.0 L 164.7 54.3 L 161.6 56.7 L 158.6 59.5 L 157.3 58.3 L 159.7 55.0 L 161.6 51.6 L 163.5 48.5 L 165.2 45.6 L 166.8 42.9 L 168.2 40.5 L 169.4 38.2 L 33.08571424484253 38.2 Z " />
</g>
</svg>
