<svg xmlns="http://www.w3.org/2000/svg" xmlns:xlink="http://www.w3.org/1999/xlink" version="1.1" baseProfile="full" viewBox="0 0 200 200" width="200" height="200">
<g fill="black">
<path d="M 93.0 177.0 L 113.0 177.0 L 114.7 176.9 L 116.3 176.8 L 118.0 176.6 L 121.2 176.0 L 122.8 175.5 L 124.3 175.0 L 125.9 174.4 L 128.9 173.0 L 128.9395833015442 173.0729166984558 L 129.0 173.0 L 134.6 183.5 L 132.6 184.6 L 130.5 185.5 L 128.4 186.3 L 126.3 187.0 L 124.1 187.6 L 121.9 188.1 L 119.7 188.5 L 117.5 188.7 L 115.2 188.9 L 113.0 189.0 L 113.0 183.0 L 93.0 180.0 Z M 165.0 65.0 L 165.0 69.0 L 126.94347829818726 69.0 L 136.7 75.8 L 138.3 79.0 L 134.3092342376709 79.06880626678466 L 132.3 81.9 L 129.8 85.0 L 127.2 88.2 L 124.4 91.5 L 121.5 94.8 L 118.3 98.2 L 115.0 101.6 L 111.4 105.0 L 110.34285717010498 106.0 L 158.0 106.0 L 168.0 96.0 L 180.0 106.0 L 180.0 110.0 L 75.65200004577636 110.0 L 65.47600002288819 134.0 L 147.0 134.0 L 153.0 129.0 L 164.0 138.0 L 159.0 141.0 L 158.7609561920166 141.09960155487062 L 158.7 142.4 L 158.0 148.5 L 156.9 154.2 L 155.2 159.7 L 153.0 164.7 L 150.3 169.4 L 147.1 173.6 L 143.4 177.4 L 139.2 180.7 L 134.6 183.5 L 129.0 173.0 L 132.4 170.9 L 135.4 168.5 L 138.0 165.8 L 140.3 162.7 L 142.3 159.3 L 143.9 155.5 L 145.2 151.3 L 146.2 146.6 L 146.8 141.5 L 146.92727270126343 138.0 L 63.78000001907348 138.0 L 60.6 145.5 L 47.3 146.4 L 62.56145830154419 110.0 L 17.0 110.0 L 17.0 106.0 L 107.02727270126343 106.0 L 108.8 103.0 L 111.1 98.7 L 113.4 94.6 L 115.6 90.6 L 117.7 86.8 L 119.7 83.2 L 121.6 79.7 L 123.3 76.3 L 124.8 73.0 L 125.77761554718018 70.83527984619141 L 125.7 70.8 L 126.12533330917358 70.06533336639404 L 126.2 69.9 L 126.21588506698609 69.90892591476441 L 126.74210529327392 69.0 L 29.0 69.0 L 29.0 65.0 L 143.0 65.0 L 153.0 55.0 Z M 66.1 91.5 L 65.1 89.4 L 64.0 87.2 L 62.7 85.0 L 61.1 82.7 L 59.2 80.4 L 57.2 78.0 L 55.0 75.5 L 52.3 73.2 L 53.3 71.7 L 56.4 73.3 L 59.7 74.7 L 62.7 76.3 L 65.5 78.0 L 68.1 79.8 L 70.5 81.7 L 72.7 83.8 L 74.8 86.0 L 76.6 88.3 L 78.3 90.8 L 78.3 95.4 L 75.1 98.7 L 70.6 98.7 L 67.3 95.6 L 66.8 93.6 Z M 93.8 60.2 L 92.7 58.9 L 91.5 57.5 L 90.2 56.1 L 88.8 54.8 L 85.6 52.2 L 83.8 50.8 L 81.7 50.1 L 82.1 48.3 L 84.4 48.7 L 86.8 48.7 L 89.1 48.9 L 91.4 49.3 L 93.6 49.8 L 95.8 50.5 L 98.0 51.3 L 100.1 52.2 L 102.1 53.3 L 104.1 54.6 L 105.8 58.8 L 104.1 63.1 L 99.8 64.8 L 95.6 63.1 L 94.7 61.6 Z M 13.2 59.6 L 13.1 55.0 L 16.1 51.6 L 18.0 50.9 L 19.9 50.0 L 21.6 48.7 L 23.3 47.1 L 24.9 45.0 L 26.3 42.5 L 27.6 39.6 L 28.7 36.2 L 29.7 32.3 L 30.1 28.0 L 31.9 27.9 L 32.4 32.3 L 32.655813980102536 34.5 L 94.0 34.5 L 94.0 12.9 L 106.0 14.9 L 109.0 16.9 L 106.0 18.7 L 106.0 34.5 L 170.0 34.5 L 170.65806455612181 33.95161294937134 L 171.2 32.8 L 171.6341675758362 33.138193702697755 L 176.0 29.5 L 187.0 38.5 L 182.0 41.5 L 176.20869569778444 43.91304349899292 L 175.1 44.8 L 173.0 46.4 L 170.6 48.1 L 168.2 49.9 L 165.5 51.7 L 162.6 53.6 L 159.5 55.4 L 156.6 57.7 L 155.3 56.3 L 157.8 53.5 L 159.8 50.6 L 161.8 47.9 L 163.6 45.3 L 165.3 42.9 L 166.8 40.6 L 168.04090909957887 38.5 L 32.94750003814697 38.5 L 33.0 40.6 L 32.7 44.4 L 31.9 48.0 L 30.7 51.5 L 29.1 54.7 L 26.9 57.6 L 24.3 60.2 L 21.2 62.4 L 16.7 62.6 Z " />
</g>
</svg>
