<svg xmlns="http://www.w3.org/2000/svg" xmlns:xlink="http://www.w3.org/1999/xlink" version="1.1" baseProfile="full" viewBox="0 0 200 200" width="200" height="200">
<g fill="black">
<path d="M 57.7 142.7 L 147.2 142.7 L 153.2 137.7 L 164.2 146.7 L 159.2 150.7 L 159.2 180.0 L 147.2 186.0 L 147.2 176.0 L 57.7 176.0 L 57.7 183.0 L 45.7 189.0 L 45.7 136.7 Z M 57.7 146.7 L 57.7 172.0 L 147.2 172.0 L 147.2 146.7 Z M 46.0 136.8 L 46.0 76.90625 L 43.1 78.9 L 36.4 83.1 L 29.2 87.1 L 21.5 90.8 L 13.4 94.2 L 12.5 92.6 L 19.6 87.6 L 26.3 82.6 L 32.6 77.7 L 38.6 72.9 L 44.1 68.0 L 49.2 63.1 L 53.9 58.1 L 58.2 53.1 L 62.0 48.1 L 64.92835721969604 43.91663255691528 L 64.9 43.9 L 66.0 42.4 L 75.3 50.0 L 76.6 53.4 L 72.74834175109864 53.07358827590942 L 70.9 55.3 L 66.2 60.3 L 61.0 65.2 L 59.13333330154419 66.8 L 104.9 66.8 L 107.0 65.0 L 110.2 62.0 L 113.3 59.1 L 116.1 56.4 L 118.7 53.9 L 121.0 51.5 L 123.2 49.2 L 125.0 47.1 L 126.6 45.1 L 127.39422092437744 44.078858852386475 L 127.3 44.0 L 128.3 43.0 L 136.5 51.7 L 137.2 55.3 L 132.96956520080568 54.24239130020142 L 131.9 55.0 L 129.3 56.7 L 126.4 58.4 L 123.4 60.2 L 120.1 62.0 L 116.5 63.8 L 112.7 65.6 L 110.11052627563477 66.8 L 152.0 66.8 L 162.0 56.8 L 174.0 66.8 L 174.0 70.8 L 116.0 70.8 L 116.0 86.6 L 148.8181818008423 86.6 L 157.0 77.6 L 167.0 86.6 L 167.0 90.6 L 116.0 90.6 L 116.0 105.9 L 148.8181818008423 105.9 L 157.0 96.9 L 167.0 105.9 L 167.0 109.9 L 116.0 109.9 L 116.0 126.8 L 162.8181818008423 126.8 L 171.0 117.8 L 181.0 126.8 L 181.0 130.8 L 58.0 130.8 Z M 58.0 109.9 L 58.0 126.8 L 104.0 126.8 L 104.0 109.9 Z M 58.0 90.6 L 58.0 105.9 L 104.0 105.9 L 104.0 90.6 Z M 58.0 70.8 L 58.0 86.6 L 104.0 86.6 L 104.0 70.8 Z M 13.3 58.3 L 13.0 53.7 L 15.9 50.2 L 17.9 49.5 L 19.8 48.5 L 21.5 47.1 L 23.2 45.4 L 24.8 43.2 L 26.2 40.5 L 27.5 37.3 L 28.7 33.7 L 29.7 29.6 L 30.1 25.1 L 31.9 25.1 L 32.4 29.7 L 32.672727298736575 32.1 L 94.0 32.1 L 94.0 9.4 L 106.0 11.4 L 109.0 13.4 L 106.0 15.2 L 106.0 32.1 L 170.0 32.1 L 170.64838705062866 31.559677410125733 L 171.1 30.6 L 171.4726674079895 30.87277717590332 L 176.0 27.1 L 187.0 36.1 L 182.0 39.1 L 176.7384614944458 41.292307662963864 L 175.2 42.6 L 173.0 44.3 L 170.7 46.1 L 168.2 48.0 L 165.6 49.9 L 162.7 51.9 L 159.6 53.9 L 156.6 56.3 L 155.3 55.0 L 157.8 52.0 L 159.8 49.0 L 161.7 46.2 L 163.5 43.5 L 165.2 41.0 L 166.7 38.6 L 168.1 36.3 L 168.2199999809265 36.1 L 32.94761905670166 36.1 L 33.0 38.3 L 32.7 42.3 L 32.0 46.1 L 30.8 49.6 L 29.1 52.9 L 27.0 56.0 L 24.4 58.7 L 21.3 61.0 L 16.8 61.2 Z " />
</g>
</svg>
