<svg xmlns="http://www.w3.org/2000/svg" xmlns:xlink="http://www.w3.org/1999/xlink" version="1.1" baseProfile="full" viewBox="0 0 200 200" width="200" height="200">
<g fill="black">
<path d="M 158.6 131.8 L 151.18064517974852 128.23870964050292 L 157.0 133.0 L 152.0 137.0 L 152.0 180.0 L 140.0 186.0 L 140.0 176.0 L 60.0 176.0 L 60.0 183.0 L 48.0 189.0 L 48.0 131.2911392211914 L 44.9 132.9 L 36.4 136.7 L 27.1 140.0 L 17.3 142.8 L 16.6 141.1 L 25.7 136.5 L 34.0 131.9 L 41.7 127.2 L 48.7 122.4 L 54.9 117.6 L 60.4 112.5 L 65.3 107.4 L 69.4 102.1 L 72.8 96.8 L 73.2 96.0 L 25.0 96.0 L 25.0 92.0 L 71.4333333015442 92.0 L 69.3 90.4 L 68.7 88.6 L 67.9 86.8 L 67.0 85.0 L 66.0 83.2 L 64.8 81.4 L 63.5 79.5 L 62.0 77.7 L 60.4 75.7 L 58.6 73.8 L 56.4 72.2 L 57.3 70.6 L 59.8 71.8 L 62.5 72.6 L 65.0 73.5 L 67.4 74.7 L 69.8 76.0 L 72.0 77.4 L 74.1 78.9 L 76.0 80.6 L 77.9 82.4 L 79.6 84.3 L 80.2 88.9 L 77.875 92.0 L 94.0 92.0 L 94.0 67.24375 L 83.5 67.9 L 71.9 68.5 L 60.0 68.9 L 47.7 69.0 L 35.0 68.8 L 34.9 67.1 L 47.4 65.2 L 59.6 63.5 L 71.4 61.9 L 82.7 60.4 L 93.7 58.8 L 104.4 57.2 L 114.6 55.5 L 124.4 53.8 L 133.9 52.0 L 142.9 50.2 L 143.0969288825989 51.30655279159546 L 154.1 60.4 L 154.5 63.4 L 150.00128812789916 61.12065267562866 L 145.0 62.0 L 135.7 63.3 L 126.0 64.4 L 115.9 65.5 L 105.5 66.4 L 99.2 66.86666669845582 L 106.0 68.0 L 109.0 70.0 L 106.0 71.8 L 106.0 92.0 L 117.55200004577637 92.0 L 118.8 90.7 L 120.9 88.0 L 122.8 85.4 L 124.6 82.8 L 126.3 80.3 L 127.8 77.9 L 129.1 75.5 L 130.3 73.2 L 131.4 71.0 L 131.91047620773315 69.75216932296753 L 131.8 69.7 L 132.8 67.9 L 142.6 74.8 L 144.2 78.1 L 139.89090909957886 78.1 L 138.8 79.3 L 136.6 81.4 L 134.3 83.5 L 131.9 85.5 L 129.3 87.4 L 126.5 89.3 L 123.6 91.1 L 121.95882349014282 92.0 L 154.0 92.0 L 164.0 82.0 L 176.0 92.0 L 176.0 96.0 L 119.42307691574096 96.0 L 121.9 98.1 L 126.6 101.9 L 131.6 105.5 L 137.0 108.9 L 142.8 112.2 L 149.0 115.2 L 155.8 118.1 L 163.0 120.8 L 170.7 123.3 L 178.9 125.6 L 186.7 128.0 L 175.0 138.3 L 166.5 135.1 Z M 60.0 154.0 L 60.0 172.0 L 140.0 172.0 L 140.0 154.0 Z M 60.0 133.0 L 60.0 150.0 L 140.0 150.0 L 140.0 133.0 Z M 106.0 96.0 L 106.0 122.0 L 94.0 128.0 L 94.0 96.0 L 86.6692307472229 96.0 L 86.3 96.6 L 82.4 102.9 L 77.8 108.8 L 72.5 114.3 L 66.6 119.5 L 60.0 124.3 L 55.8222222328186 126.91111106872559 L 60.0 129.0 L 140.0 129.0 L 145.05803108215332 124.78497409820557 L 144.2 124.3 L 137.9 120.1 L 132.1 115.7 L 127.0 111.0 L 122.5 106.1 L 118.7 100.9 L 116.1625 96.0 Z M 13.4 69.4 L 12.8 64.9 L 15.5 61.2 L 17.5 60.2 L 19.4 58.9 L 21.2 57.1 L 23.0 54.9 L 24.6 52.1 L 26.1 48.8 L 27.4 44.9 L 28.5 40.6 L 29.5 35.7 L 30.1 30.3 L 31.9 30.3 L 32.6 35.8 L 32.9235294342041 39.1 L 94.0 39.1 L 94.0 12.2 L 106.0 14.2 L 109.0 16.2 L 106.0 18.0 L 106.0 39.1 L 170.0 39.1 L 170.5760000228882 38.619999980926515 L 170.9 37.9 L 171.2067491531372 38.094375705718996 L 176.0 34.1 L 187.0 43.1 L 182.0 46.1 L 177.8239999771118 47.839999961853025 L 177.5 48.2 L 175.5 50.2 L 173.3 52.3 L 171.0 54.5 L 168.4 56.8 L 165.8 59.2 L 162.9 61.7 L 159.7 64.1 L 156.6 66.9 L 155.3 65.7 L 157.6 62.3 L 159.6 58.9 L 161.5 55.7 L 163.3 52.6 L 164.9 49.7 L 166.4 47.0 L 167.8 44.5 L 168.5 43.1 L 33.14489793777466 43.1 L 33.2 45.8 L 32.8 50.4 L 32.1 54.7 L 31.0 58.7 L 29.4 62.4 L 27.3 65.9 L 24.7 68.9 L 21.6 71.5 L 17.1 72.1 Z " />
</g>
</svg>
