<svg xmlns="http://www.w3.org/2000/svg" xmlns:xlink="http://www.w3.org/1999/xlink" version="1.1" baseProfile="full" viewBox="0 0 200 200" width="200" height="200">
<g fill="black">
<path d="M 147.0 152.2 L 149.0 152.2 L 147.0 177.2 L 150.6 179.6 L 153.0 183.2 L 150.6 186.7 L 147.0 189.2 L 76.0 189.2 L 73.4 189.0 L 70.9 188.6 L 68.5 187.8 L 66.2 186.5 L 64.2 184.9 L 62.6 182.9 L 61.3 180.6 L 60.5 178.2 L 60.1 175.7 L 60.0 173.2 L 60.0 146.5 L 72.0 148.5 L 75.0 150.5 L 72.0 152.3 L 72.0 174.4 L 72.2 175.3 L 72.5 176.2 L 72.9 176.6 L 73.8 176.9 L 74.7 177.1 L 76.0 177.2 L 141.0 177.2 Z M 15.2 181.6 L 15.1 177.0 L 18.2 173.6 L 21.0 172.6 L 23.6 171.3 L 25.9 169.7 L 28.0 167.8 L 29.9 165.5 L 31.6 162.9 L 33.2 159.8 L 34.4 156.2 L 35.6 152.2 L 36.1 147.8 L 37.9 147.7 L 38.4 152.3 L 38.8 156.8 L 38.7 161.1 L 38.0 165.2 L 36.9 169.1 L 35.2 172.8 L 32.9 176.3 L 30.1 179.4 L 26.9 182.2 L 23.2 184.6 L 18.6 184.7 Z M 170.4 171.3 L 169.0 168.7 L 167.2 166.0 L 165.0 163.3 L 162.5 160.6 L 159.5 157.8 L 156.2 155.0 L 152.6 152.1 L 148.5 149.4 L 149.2 147.8 L 154.0 149.4 L 158.6 151.0 L 162.8 152.9 L 166.7 155.0 L 170.3 157.3 L 173.6 159.8 L 176.5 162.5 L 179.2 165.4 L 181.5 168.5 L 183.4 171.8 L 183.3 176.4 L 180.1 179.6 L 175.5 179.5 L 172.3 176.3 L 171.5 173.8 Z M 108.4 161.2 L 106.6 159.0 L 104.6 156.9 L 102.4 154.7 L 99.9 152.6 L 97.2 150.5 L 94.2 148.4 L 91.1 146.3 L 87.6 144.4 L 88.2 142.7 L 92.1 143.7 L 96.0 144.5 L 99.7 145.5 L 103.2 146.8 L 106.6 148.2 L 109.8 149.9 L 112.8 151.7 L 115.6 153.7 L 118.3 155.8 L 120.8 158.2 L 122.0 162.6 L 119.8 166.6 L 115.4 167.8 L 111.4 165.6 L 110.0 163.4 Z M 159.0 100.0 L 155.39596538543702 98.58760805130005 L 157.0 99.9 L 152.0 103.9 L 152.0 132.8 L 140.0 138.8 L 140.0 132.8 L 60.0 132.8 L 60.0 144.8 L 48.0 150.8 L 48.0 98.89230766296387 L 44.6 100.2 L 36.1 102.9 L 27.0 105.2 L 17.2 107.2 L 16.7 105.4 L 25.8 101.6 L 34.3 97.9 L 42.0 94.2 L 48.0 90.94285717010499 L 48.0 89.9 L 49.0 90.4 L 55.3 86.5 L 60.9 82.6 L 65.8 78.6 L 69.9 74.5 L 72.23414630889893 71.6 L 25.0 71.6 L 25.0 67.6 L 69.32307691574097 67.6 L 68.9 66.5 L 68.2 65.1 L 67.4 63.7 L 66.4 62.3 L 65.2 60.8 L 63.8 59.2 L 62.3 57.7 L 60.6 56.1 L 58.8 54.4 L 56.5 53.2 L 57.2 51.5 L 59.7 52.4 L 62.3 52.8 L 64.7 53.3 L 67.0 54.0 L 69.3 54.8 L 71.4 55.7 L 73.4 56.7 L 75.3 57.8 L 77.2 59.1 L 78.9 60.5 L 80.0 64.9 L 78.51499996185302 67.6 L 94.0 67.6 L 94.0 50.17200002670288 L 85.8 50.5 L 75.5 50.9 L 65.0 51.0 L 54.1 50.9 L 43.0 50.6 L 42.9 48.8 L 53.9 47.1 L 64.6 45.7 L 75.0 44.3 L 85.2 43.0 L 95.1 41.7 L 104.6 40.3 L 113.9 39.0 L 123.0 37.6 L 131.7 36.2 L 139.1172724723816 34.87548704147339 L 139.1 34.8 L 139.17774953842164 34.86468763351441 L 140.1 34.7 L 140.25110244750977 35.75771722793579 L 151.6 45.2 L 152.0 48.2 L 147.4314606666565 45.795505619049074 L 141.8 46.6 L 133.2 47.4 L 124.2 48.2 L 115.0 49.0 L 105.6 49.6 L 104.528125 49.6546875 L 106.0 49.9 L 109.0 51.9 L 106.0 53.7 L 106.0 67.6 L 118.0 67.6 L 119.0 66.8 L 121.1 64.6 L 123.1 62.4 L 125.0 60.3 L 126.7 58.3 L 128.2 56.3 L 129.6 54.4 L 130.7 52.6 L 131.7 50.8 L 132.13162469863892 49.98470897674561 L 132.0 49.9 L 133.0 48.5 L 142.1 56.4 L 143.3 59.8 L 138.67328243255616 59.32137403488159 L 138.2 59.7 L 136.1 61.2 L 133.8 62.6 L 131.4 64.0 L 128.9 65.4 L 126.2 66.6 L 123.86666669845582 67.6 L 154.0 67.6 L 164.0 57.6 L 176.0 67.6 L 176.0 71.6 L 120.51538457870484 71.6 L 121.7 72.3 L 126.4 74.9 L 131.3 77.5 L 136.6 80.0 L 142.4 82.4 L 148.6 84.6 L 155.3 86.7 L 162.5 88.7 L 170.2 90.5 L 178.4 92.2 L 187.2 94.2 L 175.5 105.1 L 167.0 102.6 Z M 60.0 115.9 L 60.0 128.8 L 94.0 128.8 L 94.0 115.9 Z M 106.0 115.9 L 106.0 128.8 L 140.0 128.8 L 140.0 115.9 Z M 60.0 99.9 L 60.0 111.9 L 94.0 111.9 L 94.0 99.9 Z M 106.0 99.9 L 106.0 111.9 L 140.0 111.9 L 140.0 99.9 Z M 86.975 71.6 L 86.0 72.8 L 82.0 77.7 L 77.3 82.2 L 72.0 86.4 L 66.1 90.3 L 59.6 93.9 L 57.72173910140991 94.76086959838867 L 60.0 95.9 L 94.0 95.9 L 94.0 71.6 Z M 106.0 71.6 L 106.0 90.3 L 94.8 95.9 L 140.0 95.9 L 143.14035091400146 93.28304090499878 L 138.4 90.8 L 132.6 87.3 L 127.4 83.6 L 122.8 79.7 L 119.0 75.5 L 116.45652170181275 71.6 Z M 40.0 33.8 L 40.1 36.7 L 39.8 39.6 L 39.2 42.4 L 38.1 45.2 L 36.6 47.9 L 34.8 50.4 L 32.6 52.7 L 28.1 53.7 L 24.2 51.4 L 23.2 46.9 L 25.6 43.0 L 27.3 42.1 L 28.9 41.1 L 30.3 40.0 L 31.7 38.7 L 32.9 37.1 L 33.9 35.3 L 34.9 33.2 L 35.0 32.85714282989502 L 35.0 29.4 L 35.923076915740964 29.4 L 36.2 28.2 L 36.1 25.2 L 37.9 24.9 L 38.6 27.9 L 39.05 29.4 L 96.0 29.4 L 96.0 9.9 L 108.0 11.9 L 111.0 13.9 L 108.0 15.7 L 108.0 29.4 L 167.6 29.4 L 168.4222222328186 28.714814853668212 L 168.9 27.6 L 169.33420190811157 27.954831695556642 L 173.6 24.4 L 184.6 33.4 L 179.6 36.4 L 172.4328766822815 39.386301326751706 L 171.6 40.0 L 169.5 41.5 L 167.3 43.1 L 164.8 44.8 L 162.2 46.6 L 159.3 48.5 L 156.5 50.8 L 155.3 49.5 L 157.5 46.7 L 159.4 43.8 L 161.1 41.2 L 162.7 38.7 L 164.1 36.4 L 165.4 34.3 L 165.8949999809265 33.4 L 39.93103446960449 33.4 Z " />
</g>
</svg>
