<svg xmlns="http://www.w3.org/2000/svg" xmlns:xlink="http://www.w3.org/1999/xlink" version="1.1" baseProfile="full" viewBox="0 0 200 200" width="200" height="200">
<g fill="black">
<path d="M 115.3 182.5 L 103.3 188.5 L 103.3 134.5 L 115.3 136.5 L 118.3 138.5 L 115.3 140.3 L 115.3 175.5 L 135.5 175.5 L 135.5 124.7 L 94.3 124.7 L 94.3 120.7 L 135.5 120.7 L 135.5 86.5 L 118.04909086227417 86.5 L 115.3 91.9 L 112.3 97.1 L 109.1 102.2 L 105.6 107.0 L 101.9 111.5 L 97.8 115.7 L 96.3 114.7 L 98.7 109.4 L 103.3 99.0 L 105.5 93.7 L 107.6 88.4 L 111.2 77.4 L 112.7 71.7 L 114.2 65.9 L 115.4 60.0 L 115.42106208801269 60.00522050857544 L 115.8 58.3 L 127.1 62.9 L 129.5 65.5 L 125.88803644180298 66.59648895263672 L 125.1 69.0 L 123.0 75.0 L 120.6 80.8 L 119.8410714149475 82.5 L 157.7 82.5 L 167.7 72.5 L 179.7 82.5 L 179.7 86.5 L 147.5 86.5 L 147.5 120.7 L 166.6 120.7 L 176.6 110.7 L 188.6 120.7 L 188.6 124.7 L 147.5 124.7 L 147.5 175.5 L 167.6 175.5 L 167.6 134.5 L 179.6 136.5 L 182.6 138.5 L 179.6 140.3 L 179.6 181.5 L 167.6 187.5 L 167.6 179.5 L 115.3 179.5 Z M 91.3 29.0 L 91.3 33.0 L 64.0 33.0 L 64.0 61.0 L 75.2 61.0 L 80.7 56.0 L 91.2 65.0 L 86.2 68.5 L 86.2 174.0 L 75.2 179.5 L 75.2 168.0 L 29.2 168.0 L 29.2 180.0 L 17.2 186.0 L 17.2 55.0 L 29.2 61.0 L 37.7 61.0 L 37.7 33.0 L 12.6 33.0 L 12.6 29.0 L 69.3 29.0 L 79.3 19.0 Z M 29.2 143.0 L 29.2 164.0 L 75.2 164.0 L 75.2 143.0 Z M 75.2 65.0 L 64.0 65.0 L 64.0 107.0 L 64.1 108.3 L 64.4 109.4 L 64.8 110.2 L 65.5 110.9 L 65.9 111.1 L 66.4 111.3 L 66.45072050094605 111.30634002685547 L 71.9 90.5 L 73.9 90.5 L 71.9 111.5 L 75.2 113.7 Z M 29.2 65.0 L 29.2 127.63333330154418 L 30.6 124.6 L 32.1 120.2 L 33.6 115.4 L 34.8 109.9 L 35.9 103.8 L 36.7 97.0 L 37.3 89.5 L 37.7 81.3 L 37.8 72.5 L 37.72105264663696 65.0 Z M 92.8 71.0 L 90.9 66.9 L 92.4 62.5 L 93.4 61.9 L 94.5 60.5 L 95.7 58.6 L 96.9 56.1 L 98.0 53.0 L 99.0 49.4 L 99.9 45.3 L 100.8 40.8 L 101.7 35.7 L 102.3 30.1 L 104.1 30.1 L 104.7 35.7 L 105.18461542129516 39.3 L 135.5 39.3 L 135.5 11.6 L 147.5 13.6 L 150.5 15.6 L 147.5 17.4 L 147.5 39.3 L 177.6 39.3 L 183.6 34.3 L 194.6 43.3 L 189.6 46.3 L 186.79572191238404 47.46844921112061 L 185.6 49.4 L 184.2 51.7 L 182.6 54.1 L 181.0 56.6 L 179.2 59.1 L 177.3 61.8 L 175.2 64.5 L 173.3 67.6 L 171.7 66.8 L 172.9 63.5 L 173.6 60.1 L 174.4 56.9 L 175.1 54.0 L 175.7 51.1 L 176.3 48.4 L 176.9 45.9 L 177.3 43.6 L 177.3545454978943 43.3 L 105.54693880081177 43.3 L 105.7 45.8 L 105.8 50.3 L 105.8 54.4 L 105.4 58.2 L 104.9 61.7 L 104.1 64.9 L 102.9 67.9 L 101.3 70.6 L 97.1 72.5 Z M 47.7 33.0 L 47.7 61.0 L 55.0 61.0 L 55.0 33.0 Z M 67.0 122.2 L 64.6 121.7 L 62.3 120.8 L 60.2 119.6 L 58.4 118.0 L 57.0 116.1 L 56.0 113.9 L 55.3 111.7 L 55.0 109.4 L 55.0 65.0 L 47.61752576828003 65.0 L 47.3 72.7 L 46.6 81.9 L 45.6 90.3 L 44.4 98.1 L 42.8 105.1 L 40.9 111.5 L 38.7 117.2 L 36.2 122.1 L 33.3 126.2 L 30.0 129.4 L 29.2 128.8 L 29.2 139.0 L 75.2 139.0 L 75.2 120.3 L 71.9 122.5 L 69.5 122.5 Z " />
</g>
</svg>
