<svg xmlns="http://www.w3.org/2000/svg" xmlns:xlink="http://www.w3.org/1999/xlink" version="1.1" baseProfile="full" viewBox="0 0 200 200" width="200" height="200">
<g fill="black">
<path d="M 162.5 184.5 L 158.2 182.4 L 153.2 180.3 L 147.7 178.1 L 141.5 176.0 L 134.7 173.9 L 127.3 171.8 L 119.3 169.6 L 110.8 167.2 L 111.1 165.4 L 120.0 165.8 L 128.3 166.5 L 136.1 167.5 L 143.3 168.7 L 150.0 170.0 L 156.1 171.4 L 161.8 173.0 L 166.9 174.7 L 171.5 176.6 L 175.7 178.7 L 178.2 182.5 L 177.5 187.0 L 173.7 189.6 L 169.2 188.8 L 166.2 186.7 Z M 79.59885997772217 163.80325736999512 L 86.6 170.5 L 86.7 173.8 L 82.9787368774414 172.24947366714477 L 79.1 173.9 L 74.0 175.7 L 68.4 177.5 L 62.3 179.3 L 55.8 181.1 L 48.7 182.8 L 41.1 184.4 L 33.0 186.0 L 24.3 187.4 L 15.2 188.6 L 14.7 186.8 L 23.4 183.7 L 31.6 180.8 L 39.3 178.1 L 46.5 175.5 L 53.2 173.0 L 59.3 170.5 L 64.9 168.1 L 69.9 165.8 L 74.4 163.5 L 77.44990720748902 161.77953958511353 L 77.4 161.7 L 77.47082109451294 161.76774196624757 L 78.3 161.3 Z M 140.0 99.5 L 138.0 100.6 L 135.9 101.7 L 133.7 102.5 L 131.5 103.2 L 129.3 103.8 L 127.575 104.1 L 144.0 104.1 L 150.0 99.1 L 161.0 108.1 L 156.0 112.1 L 156.0 158.9 L 144.0 164.9 L 144.0 158.9 L 56.0 158.9 L 56.0 161.9 L 44.0 167.9 L 44.0 99.55137615203857 L 38.9 100.3 L 26.6 101.4 L 13.2 101.9 L 13.0 100.1 L 26.1 97.6 L 37.9 95.0 L 48.3 92.3 L 57.3 89.3 L 64.9 86.1 L 70.9 82.8 L 75.3 79.4 L 78.1 76.2 L 79.5 73.3 L 79.71818180084229 71.40909090042115 L 79.71875 71.4 L 43.4 71.4 L 43.4 68.77323942184448 L 40.7 69.8 L 33.4 72.4 L 25.8 74.8 L 17.8 77.2 L 17.1 75.5 L 24.3 71.4 L 31.3 67.5 L 38.0 63.8 L 44.6 60.2 L 50.9 56.8 L 56.9 53.5 L 62.7 50.2 L 68.3 47.0 L 73.6 43.9 L 77.72745513916016 41.34097785949707 L 77.7 41.3 L 77.73605251312256 41.335647392272946 L 78.6 40.8 L 80.2917236328125 43.862603187561035 L 86.6 50.1 L 86.8 53.4 L 83.09375 51.917500019073486 L 78.9 53.9 L 73.2 56.5 L 67.2 59.2 L 61.0 61.8 L 54.5 64.5 L 47.8 67.1 L 47.01111106872558 67.4 L 138.4 67.4 L 144.4 62.4 L 155.4 71.4 L 150.5 74.33999996185302 L 150.5 76.2 L 150.4 79.4 L 150.1 82.4 L 149.7 85.3 L 149.0 87.9 L 148.2 90.4 L 147.1 92.7 L 145.6 94.8 L 143.8 96.7 Z M 56.0 142.0 L 56.0 154.9 L 144.0 154.9 L 144.0 142.0 Z M 56.0 125.0 L 56.0 138.0 L 144.0 138.0 L 144.0 125.0 Z M 56.0 108.1 L 56.0 121.0 L 144.0 121.0 L 144.0 108.1 Z M 156.9 67.7 L 152.8 64.5 L 148.3 61.5 L 143.5 58.7 L 138.3 56.0 L 132.8 53.4 L 126.9 50.9 L 120.6 48.5 L 114.0 46.1 L 114.3 44.3 L 121.5 44.8 L 128.3 45.8 L 134.9 47.2 L 141.1 48.9 L 147.1 51.0 L 152.7 53.3 L 158.1 56.0 L 163.2 59.0 L 167.9 62.3 L 172.4 65.9 L 174.1 70.1 L 172.5 74.4 L 168.3 76.1 L 164.0 74.5 L 160.6 71.0 Z M 13.2 56.6 L 13.1 52.0 L 16.2 48.6 L 18.1 48.0 L 20.0 47.1 L 21.7 46.0 L 23.4 44.4 L 24.9 42.5 L 26.3 40.1 L 27.6 37.3 L 28.7 34.0 L 29.7 30.3 L 30.1 26.2 L 31.9 26.1 L 32.4 30.4 L 32.64390239715576 32.4 L 94.0 32.4 L 94.0 11.5 L 106.0 13.5 L 109.0 15.5 L 106.0 17.3 L 106.0 32.4 L 170.0 32.4 L 170.62105264663697 31.88245611190796 L 171.3 30.6 L 171.73420190811157 30.954831695556642 L 176.0 27.4 L 187.0 36.4 L 182.0 39.4 L 175.775 41.99375 L 175.1 42.5 L 172.9 44.1 L 170.6 45.7 L 168.1 47.4 L 165.4 49.1 L 162.6 50.9 L 159.5 52.6 L 156.5 54.8 L 155.4 53.4 L 157.8 50.8 L 159.9 47.9 L 161.8 45.2 L 163.6 42.7 L 165.3 40.3 L 166.8 38.1 L 167.9333333015442 36.4 L 32.95 36.4 L 33.0 38.3 L 32.6 42.0 L 31.9 45.6 L 30.7 48.9 L 29.0 52.0 L 26.9 54.9 L 24.2 57.4 L 21.2 59.5 L 16.6 59.7 Z M 102.3 92.5 L 122.3 92.5 L 123.9 92.4 L 125.4 92.3 L 126.8 92.0 L 128.3 91.7 L 129.6 91.3 L 131.0 90.7 L 132.3 90.1 L 133.6 89.3 L 134.8 88.5 L 136.1 87.5 L 136.3 87.2 L 136.7 86.7 L 137.1 85.8 L 137.5 84.6 L 137.9 83.0 L 138.2 81.0 L 138.4 78.6 L 138.4 71.4 L 91.30666666030884 71.4 L 91.7 71.5 L 94.6 73.7 L 90.51809520721436 75.74095239639283 L 90.0 77.6 L 86.5 82.9 L 81.6 87.3 L 75.4 90.9 L 68.1 94.0 L 59.6 96.6 L 49.8 98.7 L 46.24397163391113 99.22198581695557 L 56.0 104.1 L 122.3 104.1 L 122.3 98.5 L 102.3 95.5 Z " />
</g>
</svg>
