<svg xmlns="http://www.w3.org/2000/svg" xmlns:xlink="http://www.w3.org/1999/xlink" version="1.1" baseProfile="full" viewBox="0 0 200 200" width="200" height="200">
<g fill="black">
<path d="M 135.0 176.5 L 156.2 176.5 L 157.1 176.3 L 157.7 176.1 L 158.1 175.9 L 158.4 175.6 L 158.6 175.3 L 158.8 174.7 L 158.9 173.8 L 159.0 172.5 L 159.0 57.1 L 171.0 59.1 L 174.0 61.1 L 171.0 62.9 L 171.0 172.5 L 170.8 175.1 L 170.4 177.6 L 169.6 180.0 L 168.4 182.3 L 166.7 184.3 L 164.7 185.9 L 162.4 187.2 L 160.0 188.0 L 157.5 188.4 L 155.0 188.5 L 155.0 182.5 L 135.0 179.5 Z M 63.9 173.1 L 64.5 176.7 L 60.51243782043457 175.48949003219604 L 57.8 177.1 L 54.2 178.9 L 50.4 180.5 L 46.3 182.1 L 41.9 183.6 L 37.2 185.0 L 32.2 186.2 L 26.8 187.2 L 21.1 188.2 L 20.6 186.4 L 25.7 184.0 L 30.5 181.5 L 35.0 179.2 L 39.1 177.0 L 42.8 174.7 L 46.2 172.6 L 49.2 170.4 L 51.8 168.3 L 54.0 166.3 L 55.13828468322754 165.03523931503295 L 55.1 165.0 L 56.0 164.1 Z M 95.5 180.9 L 94.0 179.6 L 92.0 178.1 L 89.7 176.5 L 87.1 174.9 L 84.1 173.2 L 80.8 171.4 L 77.2 169.4 L 73.2 167.8 L 73.7 166.0 L 78.0 166.9 L 82.1 167.4 L 85.9 168.1 L 89.4 168.8 L 92.7 169.5 L 95.7 170.3 L 98.4 171.2 L 100.9 172.1 L 103.2 173.1 L 105.3 174.2 L 107.3 178.4 L 105.9 182.7 L 101.8 184.7 L 97.4 183.3 L 96.7 182.2 Z M 45.1 107.8 L 91.2 107.8 L 97.2 102.8 L 108.2 111.8 L 103.2 115.8 L 103.2 162.1 L 91.2 168.1 L 91.2 162.1 L 45.1 162.1 L 33.1 168.1 L 33.1 101.8 Z M 142.3 70.3 L 145.3 72.3 L 142.3 74.1 L 142.3 157.2 L 130.3 163.2 L 130.3 68.3 Z M 45.1 144.7 L 45.1 158.1 L 91.2 158.1 L 91.2 144.7 Z M 45.1 127.7 L 45.1 140.7 L 91.2 140.7 L 91.2 127.7 Z M 45.1 111.8 L 45.1 123.7 L 91.2 123.7 L 91.2 111.8 Z M 33.7 87.1 L 40.6 86.7 L 47.7 86.3 L 55.0 85.8 L 62.5 85.4 L 64.0 85.32207794189453 L 64.0 70.2 L 38.2 70.2 L 38.2 66.2 L 64.0 66.2 L 64.0 50.7 L 35.0 50.7 L 35.0 46.7 L 90.11818180084228 46.7 L 98.3 37.7 L 108.3 46.7 L 108.3 50.7 L 76.0 50.7 L 76.0 66.2 L 83.1 66.2 L 93.1 56.2 L 105.1 66.2 L 105.1 70.2 L 76.0 70.2 L 76.0 84.62820510864258 L 78.0 84.5 L 86.1 84.1 L 94.3 83.7 L 102.8 83.5 L 111.5 83.5 L 111.7 85.3 L 103.2 87.3 L 95.0 89.1 L 86.9 90.6 L 78.9 92.1 L 71.1 93.4 L 63.5 94.6 L 56.1 95.8 L 48.9 97.0 L 41.8 98.0 L 39.00343475341797 98.40529928207397 L 37.2 101.8 L 34.9 99.0 L 31.7 87.3 Z M 13.2 51.9 L 13.2 47.4 L 16.4 44.1 L 18.4 43.5 L 20.2 42.8 L 21.9 41.8 L 23.5 40.5 L 25.0 38.8 L 26.4 36.7 L 27.7 34.3 L 28.8 31.3 L 29.8 28.0 L 30.1 24.2 L 31.9 24.2 L 32.3 28.1 L 32.502702713012695 29.6 L 94.0 29.6 L 94.0 10.7 L 106.0 12.7 L 109.0 14.7 L 106.0 16.5 L 106.0 29.6 L 170.0 29.6 L 170.7199999809265 29.0 L 171.5 27.7 L 171.87769317626953 28.035255718231202 L 176.0 24.6 L 187.0 33.6 L 182.0 36.6 L 174.63448276519776 39.66896553039551 L 172.7 40.9 L 170.4 42.3 L 168.0 43.8 L 165.3 45.3 L 162.5 46.8 L 159.5 48.4 L 156.5 50.3 L 155.4 48.9 L 157.9 46.5 L 160.0 43.8 L 161.9 41.3 L 163.8 38.9 L 165.5 36.7 L 167.0 34.7 L 167.7699999809265 33.6 L 32.85 33.6 L 32.9 35.4 L 32.6 38.8 L 31.8 42.1 L 30.6 45.2 L 28.9 48.1 L 26.7 50.8 L 24.1 53.1 L 21.0 55.1 L 16.5 55.1 Z " />
</g>
</svg>
