<svg xmlns="http://www.w3.org/2000/svg" xmlns:xlink="http://www.w3.org/1999/xlink" version="1.1" baseProfile="full" viewBox="0 0 200 200" width="200" height="200">
<g fill="black">
<path d="M 127.8 175.4 L 147.8 175.4 L 149.0 175.3 L 150.0 175.1 L 150.5 174.9 L 150.9 174.8 L 151.1 174.6 L 151.2 174.4 L 151.4 174.1 L 151.6 173.5 L 151.7 172.6 L 151.8 171.4 L 151.8 102.9 L 97.1 102.9 L 97.1 98.9 L 151.8 98.9 L 151.8 62.8 L 163.8 64.8 L 166.8 66.8 L 163.8 68.6 L 163.8 98.9 L 166.2 98.9 L 176.2 88.9 L 188.2 98.9 L 188.2 102.9 L 163.8 102.9 L 163.8 171.4 L 163.7 173.9 L 163.2 176.4 L 162.4 178.8 L 161.2 181.1 L 159.6 183.1 L 157.5 184.7 L 155.3 186.0 L 152.9 186.8 L 150.4 187.2 L 147.8 187.4 L 147.8 181.4 L 127.8 178.4 Z M 92.2 99.6 L 92.2 103.6 L 56.6 103.6 L 56.6 181.7 L 46.6 186.7 L 46.6 103.6 L 15.4 103.6 L 15.4 99.6 L 70.2 99.6 L 80.2 89.6 Z M 35.0 115.9 L 37.8 117.9 L 35.0 119.65 L 35.0 138.0 L 34.6 143.9 L 33.8 149.4 L 32.7 154.5 L 31.2 159.2 L 29.5 163.4 L 27.3 167.1 L 24.9 170.4 L 22.1 173.0 L 19.0 175.0 L 15.8 176.5 L 15.0 175.0 L 17.2 172.7 L 18.9 170.1 L 20.3 167.3 L 21.6 164.2 L 22.5 160.8 L 23.3 157.0 L 23.9 152.9 L 24.2 148.3 L 24.2 143.4 L 24.0 138.0 L 24.0 113.9 Z M 80.9 115.9 L 83.6 117.9 L 80.9 119.62340421676636 L 80.9 161.8 L 69.9 167.3 L 69.9 113.9 Z M 122.9 138.9 L 121.5 136.4 L 119.7 133.7 L 117.6 131.0 L 115.1 128.3 L 112.2 125.5 L 109.0 122.6 L 105.5 119.6 L 101.5 116.8 L 102.3 115.2 L 107.0 117.0 L 111.5 118.7 L 115.6 120.7 L 119.4 122.8 L 122.9 125.1 L 126.1 127.6 L 129.0 130.2 L 131.6 133.0 L 133.9 136.0 L 135.8 139.2 L 135.7 143.8 L 132.5 147.0 L 127.9 146.9 L 124.7 143.7 L 123.9 141.4 Z M 82.4 74.4 L 82.4 78.4 L 24.2 78.4 L 24.2 74.4 L 60.4 74.4 L 70.4 64.4 Z M 13.3 68.1 L 12.8 63.5 L 15.6 59.9 L 17.6 59.0 L 19.5 57.7 L 21.3 56.1 L 23.0 53.9 L 24.6 51.3 L 26.1 48.1 L 27.4 44.4 L 28.5 40.2 L 29.5 35.5 L 30.1 30.4 L 31.9 30.3 L 32.5 35.6 L 32.87200002670288 38.7 L 94.0 38.7 L 94.0 12.8 L 106.0 14.8 L 109.0 16.8 L 106.0 18.6 L 106.0 38.7 L 170.0 38.7 L 176.0 33.7 L 187.0 42.7 L 182.0 45.7 L 177.9165467262268 47.40143880844116 L 177.0 48.6 L 175.5 50.6 L 173.8 52.7 L 172.0 55.0 L 170.0 57.5 L 167.7 60.1 L 165.7 63.2 L 164.2 62.4 L 165.6 59.0 L 166.6 55.7 L 167.4 52.6 L 168.2 49.8 L 168.9 47.3 L 169.5 45.0 L 169.9 43.0 L 169.95 42.7 L 33.1 42.7 L 33.1 45.3 L 32.8 49.7 L 32.1 53.9 L 30.9 57.8 L 29.3 61.5 L 27.2 64.8 L 24.6 67.8 L 21.5 70.3 L 17.0 70.8 Z " />
</g>
</svg>
