<svg xmlns="http://www.w3.org/2000/svg" xmlns:xlink="http://www.w3.org/1999/xlink" version="1.1" baseProfile="full" viewBox="0 0 200 200" width="200" height="200">
<g fill="black">
<path d="M 94.6 176.0 L 94.6 180.0 L 18.3 180.0 L 18.3 176.0 L 72.6 176.0 L 82.6 166.0 Z M 98.0 178.3 L 95.8 174.4 L 96.9 169.9 L 98.4 168.2 L 99.9 166.0 L 101.3 163.4 L 102.7 160.3 L 103.9 156.7 L 104.9 152.6 L 105.8 148.1 L 106.6 143.2 L 107.4 137.8 L 107.9 132.0 L 109.7 131.9 L 110.7 137.7 L 111.5 143.3 L 111.9 148.5 L 112.0 153.4 L 111.9 158.0 L 111.4 162.4 L 110.7 166.5 L 109.6 170.3 L 108.2 173.9 L 106.4 177.2 L 102.4 179.4 Z M 181.9 180.6 L 180.4 182.5 L 178.6 184.2 L 176.7 185.7 L 174.5 186.9 L 172.2 187.8 L 169.9 188.5 L 167.4 188.8 L 164.9 189.0 L 164.9 183.0 L 144.9 180.0 L 144.9 177.0 L 164.9 177.0 L 166.2 176.9 L 167.4 176.7 L 168.4 176.4 L 169.3 176.1 L 170.1 175.6 L 170.8 175.1 L 171.5 174.4 L 172.1 173.6 L 172.8 172.6 L 173.4 171.4 L 173.8 170.1 L 174.3 167.8 L 174.8 164.7 L 175.2 160.8 L 175.5 156.1 L 175.7 150.7 L 175.8 144.6 L 175.8 131.9166666984558 L 175.6 132.0 L 175.6 124.0 L 124.3 124.0 L 112.3 130.0 L 112.3 30.0 L 124.3 36.0 L 134.79230766296388 36.0 L 135.1 35.0 L 135.5 32.3 L 136.5 27.1 L 137.1 24.5 L 137.6 21.9 L 138.2 19.3 L 138.7 16.8 L 139.3 14.2 L 139.60747966766357 12.662601661682128 L 139.4 12.6 L 140.3 10.4 L 151.0 16.1 L 153.1 19.0 L 148.71356782913207 19.75628137588501 L 145.4 25.2 L 142.4 29.6 L 140.8 31.8 L 139.1 34.0 L 137.38571424484252 36.0 L 162.2 36.0 L 168.2 31.0 L 179.2 40.0 L 174.2 44.0 L 174.2 86.0 L 162.2 92.0 L 162.2 84.0 L 124.3 84.0 L 124.3 100.0 L 172.4181818008423 100.0 L 180.6 91.0 L 190.6 100.0 L 190.6 104.0 L 124.3 104.0 L 124.3 120.0 L 175.6 120.0 L 181.6 115.0 L 192.6 124.0 L 187.72351541519166 126.92589073181152 L 187.8 130.1 L 187.8 144.7 L 187.7 151.1 L 187.5 156.7 L 187.1 161.7 L 186.7 166.1 L 186.1 170.0 L 185.4 173.3 L 184.4 176.2 L 183.2 178.4 Z M 124.0 175.9 L 120.1 173.5 L 119.0 169.1 L 120.4 163.3 L 120.9 160.3 L 121.3 157.3 L 121.5 154.3 L 121.7 151.2 L 121.7 144.8 L 121.6 141.5 L 121.1 138.2 L 122.8 137.6 L 124.3 140.7 L 125.9 143.8 L 127.2 147.0 L 128.3 150.3 L 129.2 153.6 L 129.9 157.0 L 130.4 160.4 L 130.7 163.8 L 130.9 167.3 L 130.8 170.9 L 128.5 174.7 Z M 138.8 158.5 L 138.6 155.6 L 138.3 152.8 L 138.0 150.2 L 137.5 147.6 L 137.0 145.2 L 136.3 142.8 L 135.7 140.4 L 134.5 138.3 L 135.9 137.1 L 137.7 138.9 L 139.8 140.7 L 141.7 142.7 L 143.4 145.1 L 145.0 147.6 L 146.5 150.4 L 147.8 153.3 L 148.9 156.5 L 149.9 159.8 L 150.8 163.3 L 149.5 167.7 L 145.5 169.9 L 141.1 168.6 L 138.9 164.6 L 138.9 161.5 Z M 156.3 152.6 L 156.0 150.3 L 155.0 145.9 L 154.4 143.7 L 153.6 141.5 L 152.7 139.4 L 151.8 137.2 L 150.3 135.3 L 151.6 134.0 L 153.5 135.5 L 155.7 136.9 L 157.8 138.6 L 159.7 140.4 L 161.5 142.4 L 163.1 144.6 L 164.6 146.9 L 166.0 149.4 L 167.3 152.0 L 168.4 154.8 L 167.5 159.3 L 163.7 161.9 L 159.2 161.0 L 156.6 157.2 L 156.5 154.9 Z M 12.2 151.9 L 23.1 151.9 L 23.1 108.0 L 34.1 113.5 L 78.8 113.5 L 84.3 108.5 L 94.8 117.5 L 89.8 121.0 L 89.8 151.9 L 90.2 151.9 L 94.7 145.9 L 100.7 151.9 L 100.7 155.9 L 12.2 155.9 Z M 34.1 117.5 L 34.1 151.9 L 42.2 151.9 L 42.2 117.5 Z M 52.2 117.5 L 52.2 151.9 L 60.7 151.9 L 60.7 117.5 Z M 70.7 117.5 L 70.7 151.9 L 78.8 151.9 L 78.8 117.5 Z M 79.1 74.3 L 81.1 74.3 L 79.1 91.3 L 82.1 93.3 L 84.1 96.3 L 82.1 99.3 L 79.1 101.3 L 48.9 101.3 L 46.5 101.2 L 44.1 100.9 L 41.8 100.2 L 39.5 99.2 L 37.6 97.7 L 35.9 95.8 L 34.6 93.6 L 33.7 91.3 L 33.2 88.8 L 32.9 86.3 L 32.9 56.2 L 44.9 58.2 L 47.9 60.2 L 44.9 62.0 L 44.9 87.5 L 45.0 88.5 L 45.1 89.1 L 45.2 89.6 L 45.3 89.9 L 45.5 90.2 L 45.9 90.5 L 46.6 90.8 L 47.6 91.1 L 48.9 91.3 L 74.1 91.3 Z M 14.1 91.3 L 12.5 87.0 L 14.4 82.8 L 15.2 82.5 L 16.3 81.7 L 17.4 80.6 L 18.5 79.0 L 19.7 76.9 L 20.8 74.6 L 21.9 71.8 L 22.9 68.7 L 24.0 65.2 L 24.6 61.4 L 26.4 61.5 L 26.5 65.4 L 26.9 69.1 L 27.1 72.6 L 27.0 75.9 L 26.9 78.9 L 26.5 81.8 L 25.9 84.4 L 25.1 87.0 L 24.0 89.4 L 22.6 91.6 L 18.3 93.1 Z M 88.4 80.6 L 87.9 78.2 L 87.2 75.8 L 86.5 73.2 L 85.6 70.7 L 84.6 68.0 L 83.5 65.3 L 82.3 62.5 L 80.6 59.9 L 82.0 58.7 L 84.3 60.9 L 86.7 62.9 L 89.0 65.1 L 91.1 67.3 L 93.1 69.6 L 94.9 72.0 L 96.5 74.4 L 98.0 77.0 L 99.4 79.6 L 100.6 82.2 L 100.0 86.7 L 96.4 89.6 L 91.8 88.9 L 89.0 85.3 L 88.8 83.0 Z M 124.3 62.0 L 124.3 80.0 L 162.2 80.0 L 162.2 62.0 Z M 57.9 65.1 L 57.2 63.0 L 56.4 61.0 L 55.5 58.9 L 54.6 57.0 L 53.6 55.0 L 52.4 53.1 L 51.2 51.1 L 49.6 49.6 L 50.6 48.1 L 52.6 49.3 L 54.9 50.2 L 57.1 51.4 L 59.3 52.8 L 61.3 54.4 L 63.3 56.2 L 65.1 58.1 L 66.9 60.3 L 68.5 62.5 L 70.1 64.9 L 70.1 69.5 L 66.9 72.8 L 62.3 72.8 L 59.0 69.6 L 58.5 67.3 Z M 11.1 67.5 L 9.3 63.3 L 10.9 59.0 L 11.7 58.5 L 12.7 57.5 L 13.8 55.9 L 14.9 53.7 L 15.9 51.0 L 16.9 47.7 L 17.8 44.1 L 18.7 39.9 L 19.6 35.4 L 20.0 30.4 L 21.8 30.3 L 22.4 35.4 L 22.78297872543335 38.4 L 50.5 38.4 L 50.5 13.4 L 62.5 15.4 L 65.5 17.4 L 62.5 19.2 L 62.5 38.4 L 89.6 38.4 L 95.6 33.4 L 106.6 42.4 L 101.6 45.4 L 98.5283019065857 46.67987422943115 L 98.2 47.3 L 97.2 49.2 L 96.0 51.3 L 94.8 53.6 L 93.4 56.1 L 91.9 58.8 L 90.8 61.9 L 89.1 61.4 L 89.7 58.2 L 89.8 55.1 L 90.0 52.3 L 90.08078174591064 50.19967422485352 L 89.6 50.4 L 89.6 42.4 L 23.209090900421142 42.4 L 23.4 44.5 L 23.6 48.5 L 23.6 52.3 L 23.3 55.7 L 22.9 58.9 L 22.2 61.9 L 21.1 64.6 L 19.6 67.2 L 15.4 69.0 Z M 124.3 40.0 L 124.3 58.0 L 162.2 58.0 L 162.2 40.0 Z " />
</g>
</svg>
