<svg xmlns="http://www.w3.org/2000/svg" xmlns:xlink="http://www.w3.org/1999/xlink" version="1.1" baseProfile="full" viewBox="0 0 200 200" width="200" height="200">
<g fill="black">
<path d="M 40.0 180.9 L 28.0 186.9 L 28.0 143.0 L 40.0 145.0 L 43.0 147.0 L 40.0 148.8 L 40.0 169.9 L 94.0 169.9 L 94.0 132.6 L 106.0 134.6 L 109.0 136.6 L 106.0 138.4 L 106.0 169.9 L 160.0 169.9 L 160.0 143.0 L 172.0 145.0 L 175.0 147.0 L 172.0 148.8 L 172.0 177.9 L 160.0 183.9 L 160.0 173.9 L 40.0 173.9 Z M 121.0 129.5 L 131.0 129.5 L 132.2 129.4 L 133.1 129.3 L 133.7 129.1 L 134.0 128.9 L 134.2 128.8 L 134.4 128.6 L 134.5 128.2 L 134.7 127.6 L 134.9 126.7 L 135.0 125.5 L 135.0 97.6 L 62.77857141494751 97.6 L 62.4 102.9 L 61.0 109.3 L 58.7 115.3 L 55.4 120.7 L 51.4 125.4 L 46.5 129.5 L 41.0 132.9 L 34.7 135.7 L 27.8 137.7 L 20.2 139.0 L 19.7 137.3 L 26.5 134.1 L 32.4 130.8 L 37.5 127.4 L 41.7 123.7 L 45.0 119.8 L 47.6 115.7 L 49.4 111.4 L 50.6 106.8 L 51.1 101.8 L 51.02363634109497 97.6 L 16.0 97.6 L 16.0 93.6 L 51.0 93.6 L 51.0 57.7 L 63.0 63.7 L 75.33125 63.7 L 76.4 62.8 L 78.0 60.8 L 79.5 58.8 L 81.0 56.9 L 82.3 54.9 L 83.5 53.0 L 85.7 49.2 L 86.6 47.3 L 86.99690399169921 46.307739925384524 L 86.8 46.2 L 87.37391300201416 45.36521739959717 L 87.4 45.3 L 87.41283693313599 45.30860080718994 L 87.9 44.6 L 97.4 52.0 L 98.8 55.3 L 94.2011505126953 55.06212844848633 L 93.6 55.6 L 91.6 57.3 L 89.5 58.8 L 87.3 60.3 L 85.1 61.6 L 82.7 62.8 L 80.73636360168457 63.7 L 135.0 63.7 L 141.0 58.7 L 152.0 67.7 L 147.0 71.7 L 147.0 93.6 L 164.0 93.6 L 174.0 83.6 L 186.0 93.6 L 186.0 97.6 L 147.0 97.6 L 147.0 125.5 L 146.8 128.1 L 146.4 130.6 L 145.6 133.0 L 144.3 135.2 L 142.7 137.2 L 140.7 138.9 L 138.4 140.1 L 136.0 140.9 L 133.5 141.4 L 131.0 141.5 L 131.0 135.5 L 121.0 132.5 Z M 103.0 102.9 L 106.0 104.9 L 103.0 106.7 L 103.0 124.6 L 91.0 130.6 L 91.0 100.9 Z M 63.0 67.7 L 63.0 93.6 L 135.0 93.6 L 135.0 67.7 Z M 96.6 86.3 L 96.2 85.2 L 95.4 83.9 L 94.3 82.3 L 92.8 80.7 L 91.0 78.9 L 88.8 77.0 L 86.4 74.9 L 83.5 73.2 L 84.2 71.6 L 87.4 72.8 L 90.6 73.6 L 93.5 74.5 L 96.1 75.5 L 98.6 76.4 L 100.7 77.5 L 102.7 78.6 L 104.6 79.9 L 106.2 81.5 L 107.6 83.4 L 107.3 88.0 L 104.0 91.1 L 99.4 90.8 L 96.3 87.4 L 96.6 87.1 Z M 13.3 65.3 L 12.8 60.8 L 15.6 57.1 L 17.6 56.2 L 19.5 55.0 L 21.3 53.4 L 23.0 51.3 L 24.7 48.7 L 26.1 45.5 L 27.4 41.9 L 28.5 37.8 L 29.6 33.1 L 30.1 28.0 L 31.9 28.0 L 32.5 33.2 L 32.81632652282715 36.3 L 94.0 36.3 L 94.0 10.6 L 106.0 12.6 L 109.0 14.6 L 106.0 16.4 L 106.0 36.3 L 170.0 36.3 L 170.63478260040284 35.771014499664304 L 171.0 35.0 L 171.31111106872558 35.20740737915039 L 176.0 31.3 L 187.0 40.3 L 182.0 43.3 L 177.36875 45.2296875 L 175.4 47.1 L 173.2 49.2 L 170.9 51.2 L 168.4 53.4 L 165.7 55.7 L 162.8 58.0 L 159.7 60.3 L 156.6 62.9 L 155.3 61.7 L 157.7 58.5 L 159.7 55.1 L 161.6 52.0 L 163.4 49.1 L 165.0 46.4 L 166.5 43.8 L 167.9 41.3 L 168.4217391014099 40.3 L 33.046808528900144 40.3 L 33.1 42.8 L 32.8 47.2 L 32.1 51.3 L 30.9 55.2 L 29.3 58.8 L 27.2 62.1 L 24.6 65.1 L 21.5 67.6 L 17.0 68.1 Z " />
</g>
</svg>
