<svg xmlns="http://www.w3.org/2000/svg" xmlns:xlink="http://www.w3.org/1999/xlink" version="1.1" baseProfile="full" viewBox="0 0 200 200" width="200" height="200">
<g fill="black">
<path d="M 147.0 145.8 L 149.0 145.8 L 147.0 170.8 L 150.6 173.2 L 153.0 176.8 L 150.6 180.4 L 147.0 182.8 L 76.0 182.8 L 73.4 182.6 L 70.9 182.2 L 68.5 181.4 L 66.2 180.1 L 64.2 178.5 L 62.6 176.5 L 61.3 174.2 L 60.5 171.8 L 60.1 169.3 L 60.0 166.8 L 60.0 135.0 L 72.0 137.0 L 75.0 139.0 L 72.0 140.8 L 72.0 168.0 L 72.2 168.9 L 72.5 169.8 L 72.9 170.2 L 73.8 170.5 L 74.7 170.7 L 76.0 170.8 L 141.0 170.8 Z M 15.3 174.9 L 14.9 170.4 L 17.8 166.8 L 20.7 165.6 L 23.2 164.0 L 25.6 162.0 L 27.8 159.7 L 29.7 157.0 L 31.5 153.8 L 33.0 150.1 L 34.3 146.0 L 35.4 141.3 L 36.1 136.2 L 37.9 136.1 L 38.6 141.4 L 39.0 146.5 L 38.8 151.3 L 38.2 155.9 L 37.0 160.3 L 35.3 164.4 L 33.1 168.2 L 30.4 171.7 L 27.1 174.8 L 23.4 177.5 L 18.8 177.8 Z M 170.3 162.7 L 168.8 159.7 L 167.0 156.7 L 164.8 153.6 L 162.2 150.5 L 159.3 147.5 L 156.1 144.3 L 152.5 141.1 L 148.4 138.0 L 149.3 136.4 L 154.1 138.3 L 158.7 140.4 L 163.0 142.7 L 166.9 145.2 L 170.6 147.9 L 173.8 150.9 L 176.8 154.0 L 179.4 157.4 L 181.7 161.0 L 183.6 164.7 L 183.3 169.3 L 179.9 172.4 L 175.4 172.1 L 172.3 168.7 L 171.5 165.7 Z M 108.3 151.0 L 106.5 148.6 L 104.4 146.1 L 102.2 143.8 L 99.7 141.4 L 97.0 139.1 L 94.1 136.8 L 91.0 134.4 L 87.5 132.4 L 88.2 130.7 L 92.2 131.8 L 96.1 132.8 L 99.9 134.2 L 103.4 135.7 L 106.8 137.5 L 110.1 139.5 L 113.1 141.6 L 116.0 144.0 L 118.7 146.5 L 121.2 149.3 L 122.1 153.8 L 119.6 157.6 L 115.2 158.5 L 111.3 156.1 L 109.9 153.5 Z M 86.9 111.8 L 87.2 115.4 L 83.48827981948853 114.05028352737426 L 82.2 114.9 L 77.2 117.9 L 71.8 120.7 L 66.1 123.4 L 60.1 126.0 L 53.7 128.4 L 46.9 130.7 L 39.7 132.8 L 32.2 134.6 L 24.2 136.2 L 23.7 134.5 L 31.0 131.0 L 37.9 127.7 L 44.4 124.6 L 50.6 121.4 L 56.4 118.3 L 61.8 115.2 L 66.8 112.0 L 71.5 108.8 L 75.7 105.6 L 78.70278911590576 103.00299320220947 L 78.7 103.0 L 78.7470588684082 102.96470584869385 L 79.4 102.4 L 79.4374376296997 102.44692182540894 L 79.5 102.4 Z M 143.8 127.1 L 140.4 124.5 L 136.6 121.9 L 132.6 119.4 L 128.2 117.0 L 123.5 114.7 L 118.6 112.4 L 113.3 110.0 L 107.7 107.6 L 108.1 105.9 L 114.3 106.4 L 120.2 107.3 L 125.8 108.5 L 131.1 110.0 L 136.2 111.8 L 141.0 113.7 L 145.6 115.9 L 149.9 118.3 L 154.0 121.0 L 157.8 123.8 L 159.7 128.0 L 158.2 132.3 L 154.0 134.2 L 149.7 132.7 L 146.9 129.9 Z M 24.0 94.4 L 74.0 94.4 L 74.0 79.7 L 53.0 79.7 L 41.0 85.7 L 41.0 50.8 L 53.0 52.8 L 56.0 54.8 L 53.0 56.6 L 53.0 75.7 L 74.0 75.7 L 74.0 49.4 L 86.0 51.4 L 89.0 53.4 L 86.0 55.2 L 86.0 94.4 L 105.0 94.4 L 105.0 49.4 L 117.0 51.4 L 120.0 53.4 L 117.0 55.2 L 117.0 75.7 L 140.0 75.7 L 140.0 50.8 L 152.0 52.8 L 155.0 54.8 L 152.0 56.6 L 152.0 79.7 L 140.0 85.7 L 140.0 79.7 L 117.0 79.7 L 117.0 94.4 L 155.8181818008423 94.4 L 164.0 85.4 L 174.0 94.4 L 174.0 98.4 L 24.0 98.4 Z M 13.2 52.1 L 13.1 47.6 L 16.2 44.2 L 18.2 43.6 L 20.0 42.8 L 21.8 41.6 L 23.4 40.2 L 24.9 38.3 L 26.4 36.1 L 27.6 33.3 L 28.8 30.2 L 29.7 26.6 L 30.1 22.6 L 31.9 22.5 L 32.4 26.6 L 32.6375 28.5 L 94.0 28.5 L 94.0 8.3 L 106.0 10.3 L 109.0 12.3 L 106.0 14.1 L 106.0 28.5 L 170.0 28.5 L 170.68571424484253 27.92857141494751 L 171.3 26.7 L 171.73139162063597 27.057173633575438 L 176.0 23.5 L 187.0 32.5 L 182.0 35.5 L 175.55 38.1875 L 175.0 38.6 L 172.9 40.1 L 170.5 41.6 L 168.1 43.2 L 165.4 44.9 L 162.6 46.6 L 159.5 48.3 L 156.5 50.4 L 155.4 49.0 L 157.8 46.4 L 159.9 43.6 L 161.8 41.0 L 163.7 38.5 L 165.4 36.2 L 166.9 34.0 L 167.95 32.5 L 32.9 32.5 L 32.9 34.4 L 32.6 38.0 L 31.8 41.5 L 30.6 44.7 L 29.0 47.8 L 26.8 50.6 L 24.2 53.1 L 21.1 55.1 L 16.6 55.2 Z " />
</g>
</svg>
