<svg xmlns="http://www.w3.org/2000/svg" xmlns:xlink="http://www.w3.org/1999/xlink" version="1.1" baseProfile="full" viewBox="0 0 200 200" width="200" height="200">
<g fill="black">
<path d="M 83.9 133.7 L 85.0 137.1 L 80.87935657501221 136.46058979034424 L 79.2 138.0 L 76.6 140.1 L 73.9 142.3 L 71.0 144.4 L 68.0 146.6 L 64.8 148.7 L 61.5 150.7 L 58.875 152.2 L 115.0 152.2 L 115.0 126.6 L 127.0 128.6 L 130.0 130.6 L 127.0 132.4 L 127.0 152.2 L 162.0 152.2 L 172.0 142.2 L 184.0 152.2 L 184.0 156.2 L 127.0 156.2 L 127.0 181.6 L 115.0 187.6 L 115.0 156.2 L 18.0 156.2 L 18.0 152.2 L 54.558620643615725 152.2 L 56.2 150.5 L 58.6 147.4 L 61.1 144.4 L 63.4 141.6 L 65.6 138.8 L 67.7 136.1 L 69.6 133.5 L 71.4 130.9 L 73.1 128.4 L 74.11379308700562 126.87931032180786 L 74.0 126.8 L 75.1 125.5 Z M 54.0 131.2 L 42.0 137.2 L 42.0 67.1 L 54.0 73.1 L 84.9714285850525 73.1 L 86.8 71.5 L 88.7 69.1 L 90.7 66.8 L 92.6 64.6 L 96.0 60.2 L 97.6 58.1 L 99.1 56.1 L 100.5 54.0 L 101.25335206985474 52.84099683761597 L 101.2 52.8 L 101.4807017326355 52.491228103637695 L 101.8 52.0 L 101.8696478843689 52.063387393951416 L 102.2 51.7 L 110.7 60.1 L 111.6 63.6 L 107.27313690185547 62.76499137878418 L 106.4 63.4 L 104.1 65.0 L 101.7 66.6 L 99.2 68.1 L 96.7 69.5 L 94.0 71.0 L 91.2 72.3 L 89.35384616851806 73.1 L 148.0 73.1 L 154.0 68.1 L 156.2247191429138 69.92022476196288 L 157.6 67.8 L 159.5 64.0 L 161.4 60.5 L 163.2 57.2 L 164.8 54.1 L 166.3 51.2 L 167.6 48.4 L 168.65600004196168 46.2 L 33.24259262084961 46.2 L 33.3 49.3 L 32.9 54.3 L 32.2 59.0 L 31.1 63.3 L 29.5 67.3 L 27.4 71.0 L 24.8 74.3 L 21.7 77.2 L 17.2 77.9 L 13.4 75.4 L 12.7 70.9 L 15.2 67.1 L 17.2 66.0 L 19.1 64.4 L 21.0 62.4 L 22.8 59.7 L 24.5 56.5 L 26.0 52.8 L 27.3 48.5 L 28.4 43.6 L 29.4 38.2 L 30.1 32.2 L 31.9 32.2 L 32.7 38.2 L 33.05087718963623 42.2 L 94.0 42.2 L 94.0 12.5 L 106.0 14.5 L 109.0 16.5 L 106.0 18.3 L 106.0 42.2 L 170.0 42.2 L 170.60645160675048 41.69462366104126 L 170.8 41.2 L 171.03542852401733 41.337142848968504 L 176.0 37.2 L 187.0 46.2 L 182.0 49.2 L 178.22958583831786 50.771005916595456 L 177.6 51.5 L 175.6 53.8 L 173.4 56.2 L 171.1 58.7 L 168.6 61.3 L 165.9 63.9 L 163.0 66.7 L 159.8 69.5 L 157.96000003814697 71.33999996185302 L 165.0 77.1 L 160.0 81.1 L 160.0 130.2 L 148.0 136.2 L 148.0 124.2 L 54.0 124.2 Z M 54.0 101.4 L 54.0 120.2 L 95.0 120.2 L 95.0 101.4 Z M 107.0 101.4 L 107.0 120.2 L 148.0 120.2 L 148.0 101.4 Z M 54.0 77.1 L 54.0 97.4 L 95.0 97.4 L 95.0 77.1 Z M 107.0 77.1 L 107.0 97.4 L 148.0 97.4 L 148.0 77.1 Z " />
</g>
</svg>
