<svg xmlns="http://www.w3.org/2000/svg" xmlns:xlink="http://www.w3.org/1999/xlink" version="1.1" baseProfile="full" viewBox="0 0 200 200" width="200" height="200">
<g fill="black">
<path d="M 49.8 176.5 L 67.8 176.5 L 69.0 176.4 L 70.0 176.2 L 70.5 176.0 L 70.9 175.9 L 71.1 175.7 L 71.2 175.5 L 71.4 175.2 L 71.6 174.6 L 71.7 173.7 L 71.8 172.5 L 71.8 150.36341466903687 L 68.6 152.9 L 60.2 159.0 L 51.5 164.8 L 42.6 170.3 L 33.4 175.3 L 23.9 179.9 L 14.1 184.0 L 13.3 182.4 L 22.0 176.6 L 30.6 170.7 L 39.0 164.8 L 47.1 158.6 L 55.0 152.3 L 62.7 145.7 L 63.715243911743165 144.76707315444946 L 62.2 145.2 L 55.0 147.1 L 48.2 148.8 L 41.9 150.4 L 36.0 151.9 L 30.5 153.2 L 25.5 154.5 L 21.001669120788574 155.59959201812745 L 19.4 159.3 L 16.9 156.7 L 12.8 145.2 L 14.7 144.9 L 19.0 144.4 L 23.6 143.9 L 28.3 143.35769233703613 L 28.3 71.7 L 40.3 77.7 L 42.8 77.7 L 43.9 76.4 L 45.7 73.6 L 47.4 71.0 L 49.1 68.5 L 50.6 66.1 L 52.0 63.8 L 53.3 61.7 L 54.5 59.6 L 55.5 57.7 L 55.98913860321045 56.72172288894653 L 55.8 56.6 L 56.9 55.3 L 65.9 63.1 L 67.1 66.5 L 62.59877300262451 66.03435583114624 L 62.4 66.2 L 60.4 67.9 L 58.3 69.5 L 56.1 71.2 L 53.7 72.9 L 51.2 74.7 L 48.5 76.5 L 46.4529411315918 77.7 L 71.8 77.7 L 77.8 72.7 L 88.8 81.7 L 83.8 85.7 L 83.8 125.02142858505249 L 84.3 124.5 L 90.3493553161621 117.63804473876954 L 90.3 117.6 L 91.4 116.5 L 99.9 125.0 L 100.8 128.5 L 97.12361326217652 127.73936824798584 L 92.4 132.4 L 84.7 139.6 L 83.8 140.3746835708618 L 83.8 172.5 L 83.7 175.0 L 83.2 177.5 L 82.4 179.9 L 81.2 182.2 L 79.6 184.2 L 77.5 185.8 L 75.3 187.1 L 72.9 187.9 L 70.4 188.3 L 67.8 188.5 L 67.8 182.5 L 49.8 179.5 Z M 167.3 182.3 L 165.4 183.7 L 163.4 185.0 L 161.3 186.0 L 159.1 186.9 L 156.9 187.6 L 154.5 188.1 L 152.1 188.4 L 149.7 188.5 L 149.7 182.5 L 133.7 179.5 L 133.7 176.5 L 149.7 176.5 L 151.2 176.4 L 152.6 176.2 L 153.9 176.0 L 155.2 175.6 L 156.4 175.1 L 157.5 174.5 L 158.6 173.8 L 159.7 173.0 L 160.7 172.1 L 161.8 171.0 L 162.6 169.9 L 163.5 168.1 L 164.5 165.5 L 165.5 162.3 L 166.4 158.5 L 167.3 154.0 L 168.0 149.0 L 168.7 143.3 L 169.3 137.1 L 169.6235294342041 132.7 L 117.15888652801513 132.7 L 115.5 145.4 L 102.9 149.8 L 110.5 91.2 L 120.56400003433228 98.0 L 166.4 98.0 L 166.4 72.0 L 108.5 72.0 L 108.5 68.0 L 166.4 68.0 L 172.4 63.0 L 183.4 72.0 L 178.4 76.0 L 178.4 108.0 L 166.4 114.0 L 166.4 102.0 L 121.1689507484436 102.0 L 117.68137044906616 128.7 L 169.8 128.7 L 175.8 123.7 L 186.8 132.7 L 181.8 135.7 L 181.46134967803954 135.84110431671144 L 181.3 138.1 L 180.6 144.6 L 179.9 150.6 L 179.1 156.1 L 178.1 161.0 L 177.1 165.5 L 175.8 169.5 L 174.4 173.0 L 172.8 176.1 L 170.8 178.9 L 169.1 180.7 Z M 40.3 123.0 L 40.3 142.01147537231446 L 40.4 142.0 L 46.9 141.3 L 53.9 140.6 L 61.3 139.9 L 69.2 139.3 L 69.6964879989624 139.27079486846924 L 70.1 138.9 L 71.8 137.22361106872557 L 71.8 123.0 Z M 40.3 101.2 L 40.3 119.0 L 71.8 119.0 L 71.8 101.2 Z M 40.3 81.7 L 40.3 97.2 L 71.8 97.2 L 71.8 81.7 Z M 13.3 68.1 L 12.8 63.5 L 15.6 59.9 L 17.6 59.0 L 19.5 57.7 L 21.3 56.1 L 23.0 53.9 L 24.6 51.3 L 26.1 48.1 L 27.4 44.4 L 28.5 40.2 L 29.5 35.5 L 30.1 30.4 L 31.9 30.3 L 32.5 35.6 L 32.87200002670288 38.7 L 94.0 38.7 L 94.0 12.8 L 106.0 14.8 L 109.0 16.8 L 106.0 18.6 L 106.0 38.7 L 170.0 38.7 L 176.0 33.7 L 187.0 42.7 L 182.0 45.7 L 177.9165467262268 47.40143880844116 L 177.0 48.6 L 175.5 50.6 L 173.8 52.7 L 172.0 55.0 L 170.0 57.5 L 167.7 60.1 L 165.7 63.2 L 164.2 62.4 L 165.6 59.0 L 166.6 55.7 L 167.4 52.6 L 168.2 49.8 L 168.9 47.3 L 169.5 45.0 L 169.9 43.0 L 169.95 42.7 L 33.1 42.7 L 33.1 45.3 L 32.8 49.7 L 32.1 53.9 L 30.9 57.8 L 29.3 61.5 L 27.2 64.8 L 24.6 67.8 L 21.5 70.3 L 17.0 70.8 Z " />
</g>
</svg>
