<svg xmlns="http://www.w3.org/2000/svg" xmlns:xlink="http://www.w3.org/1999/xlink" version="1.1" baseProfile="full" viewBox="0 0 200 200" width="200" height="200">
<g fill="black">
<path d="M 78.0 55.7 L 79.7 58.9 L 75.99579830169678 59.02773113250733 L 72.7 64.5 L 67.1 73.2 L 61.3 81.7 L 55.2 89.9 L 48.8 97.9 L 48.39213485717774 98.38202247619628 L 54.5 99.4 L 57.5 101.4 L 54.5 103.2 L 54.5 185.8 L 42.5 191.8 L 42.5 105.34545450210571 L 42.2 105.7 L 35.3 113.3 L 28.1 120.6 L 20.5 127.6 L 12.6 134.2 L 11.3 132.9 L 17.8 124.9 L 24.1 117.0 L 30.3 109.0 L 36.3 101.0 L 42.0 92.8 L 47.6 84.5 L 52.9 76.1 L 58.0 67.5 L 62.9 58.8 L 67.02405786514282 50.910497951507566 L 67.0 50.9 L 68.0 49.0 Z M 101.8 124.0 L 157.5 124.0 L 163.5 119.0 L 174.5 128.0 L 169.5 132.0 L 169.5 181.5 L 157.5 187.5 L 157.5 177.5 L 101.8 177.5 L 101.8 184.5 L 89.8 190.5 L 89.8 118.0 Z M 101.8 152.0 L 101.8 173.5 L 157.5 173.5 L 157.5 152.0 Z M 101.8 128.0 L 101.8 148.0 L 157.5 148.0 L 157.5 128.0 Z M 177.1 82.8 L 179.1 82.8 L 177.1 99.8 L 180.1 101.8 L 182.1 104.8 L 180.1 107.8 L 177.1 109.8 L 104.2 109.8 L 101.8 109.7 L 99.4 109.4 L 97.0 108.7 L 94.8 107.6 L 92.8 106.1 L 91.2 104.3 L 89.9 102.1 L 89.0 99.8 L 88.5 97.3 L 88.2 94.8 L 88.2 54.2 L 100.2 56.2 L 103.2 58.2 L 100.2 60.0 L 100.2 79.6580246925354 L 107.6 77.1 L 115.2 74.7 L 122.5 72.4 L 129.3 70.2 L 135.7 68.1 L 141.7 66.1 L 147.2 64.2 L 152.2 62.3 L 156.8 60.4 L 159.3274335861206 59.37699117660522 L 159.6 58.9 L 161.5 55.6 L 163.3 52.6 L 164.9 49.6 L 166.4 46.9 L 167.8 44.3 L 168.55 42.8 L 33.14399995803833 42.8 L 33.2 45.6 L 32.9 50.2 L 32.1 54.6 L 31.0 58.6 L 29.4 62.4 L 27.3 65.9 L 24.7 69.0 L 21.6 71.6 L 17.1 72.3 L 13.4 69.6 L 12.8 65.1 L 15.4 61.3 L 17.4 60.4 L 19.3 59.0 L 21.2 57.2 L 22.9 54.9 L 24.6 52.0 L 26.1 48.6 L 27.4 44.7 L 28.5 40.2 L 29.5 35.3 L 30.1 29.8 L 31.9 29.8 L 32.6 35.3 L 32.93018865585327 38.8 L 94.0 38.8 L 94.0 11.4 L 106.0 13.4 L 109.0 15.4 L 106.0 17.2 L 106.0 38.8 L 170.0 38.8 L 170.6 38.3 L 170.9 37.6 L 171.2067491531372 37.79437570571899 L 176.0 33.8 L 187.0 42.8 L 182.0 45.8 L 177.8239999771118 47.53999996185303 L 177.5 47.9 L 175.5 50.0 L 173.3 52.1 L 171.0 54.4 L 168.5 56.7 L 165.8 59.2 L 163.0102110862732 61.60499038696289 L 170.4 68.0 L 170.6 71.1 L 166.6248656272888 69.35335006713868 L 165.1 69.9 L 160.5 71.2 L 155.4 72.5 L 150.0 73.8 L 144.1 75.1 L 137.8 76.3 L 131.1 77.6 L 124.0 78.8 L 116.4 79.9 L 108.4 80.9 L 100.2 81.57529411315917 L 100.2 96.9 L 100.4 97.6 L 100.6 98.4 L 100.8 98.7 L 101.2 99.0 L 101.9 99.3 L 102.9 99.6 L 104.2 99.8 L 172.1 99.8 Z " />
</g>
</svg>
