<svg xmlns="http://www.w3.org/2000/svg" xmlns:xlink="http://www.w3.org/1999/xlink" version="1.1" baseProfile="full" viewBox="0 0 200 200" width="200" height="200">
<g fill="black">
<path d="M 31.4 183.3 L 19.4 189.3 L 19.4 145.8 L 31.4 147.8 L 34.4 149.8 L 31.4 151.6 L 31.4 172.3 L 50.5 172.3 L 50.5 140.5 L 11.0 140.5 L 11.0 136.5 L 50.5 136.5 L 50.5 115.5 L 34.01666669845581 115.5 L 33.6 116.1 L 30.8 119.5 L 27.9 122.8 L 24.8 126.0 L 21.5 128.9 L 17.9 131.6 L 14.3 134.2 L 13.0 132.9 L 15.6 129.4 L 17.9 125.7 L 20.1 122.2 L 22.2 118.6 L 24.1 115.0 L 25.8 111.4 L 27.4 107.8 L 28.9 104.2 L 30.1 100.4 L 30.929974174499513 97.60826873779297 L 30.9 97.6 L 31.123255825042726 96.95813951492309 L 31.2 96.7 L 31.211581802368165 96.7042022705078 L 31.7 95.3 L 42.5 100.8 L 44.6 103.7 L 40.67087383270264 104.45825242996216 L 40.5 104.8 L 38.4 108.7 L 36.70526313781738 111.5 L 71.4 111.5 L 81.4 101.5 L 93.4 111.5 L 93.4 115.5 L 62.5 115.5 L 62.5 136.5 L 79.9 136.5 L 89.9 126.5 L 101.9 136.5 L 101.9 140.5 L 62.5 140.5 L 62.5 172.3 L 81.5 172.3 L 81.5 145.8 L 93.5 147.8 L 96.5 149.8 L 93.5 151.6 L 93.5 180.3 L 81.5 186.3 L 81.5 176.3 L 31.4 176.3 Z M 113.5 176.2 L 133.5 176.2 L 134.7 176.1 L 135.7 175.9 L 136.2 175.7 L 136.6 175.6 L 136.8 175.4 L 136.9 175.2 L 137.1 174.9 L 137.3 174.3 L 137.4 173.4 L 137.5 172.2 L 137.5 84.8 L 99.1 84.8 L 99.1 80.8 L 163.8 80.8 L 173.8 70.8 L 185.8 80.8 L 185.8 84.8 L 149.5 84.8 L 149.5 172.2 L 149.4 174.7 L 148.9 177.2 L 148.1 179.6 L 146.9 181.9 L 145.3 183.9 L 143.2 185.5 L 141.0 186.8 L 138.6 187.6 L 136.1 188.0 L 133.5 188.2 L 133.5 182.2 L 113.5 179.2 Z M 85.1 81.0 L 83.9 77.2 L 82.4 73.6 L 80.7 70.0 L 78.7 66.6 L 76.4 63.2 L 73.9 59.9 L 71.1 56.5 L 68.0 53.3 L 68.5583333015442 52.4625 L 68.4 52.6 L 67.0 51.3 L 69.6 47.2 L 72.1 43.1 L 74.4 39.1 L 76.6 35.3 L 78.7 31.5 L 80.5 27.8 L 82.3 24.2 L 83.8 20.7 L 85.2 17.3 L 86.07327823638916 14.825711631774903 L 86.0 14.8 L 86.31818180084228 14.131818199157715 L 86.4 13.9 L 86.42357139587402 13.910499954223633 L 87.0 12.7 L 97.4 18.8 L 99.3 21.9 L 95.24371004104614 22.389552211761476 L 93.1 25.8 L 90.8 29.2 L 88.2 32.7 L 85.4 36.1 L 82.4 39.5 L 79.3 42.9 L 75.9 46.2 L 72.2 49.3 L 69.20384616851807 51.90192308425903 L 73.2 53.9 L 77.2 56.3 L 80.9 59.0 L 84.3 62.1 L 87.4 65.4 L 90.2 69.1 L 92.7 73.0 L 95.0 77.1 L 96.9 81.5 L 98.5 86.2 L 97.7 90.7 L 94.1 93.4 L 89.6 92.6 L 86.8 88.9 L 86.1 84.9 Z M 33.2 81.2 L 31.8 77.4 L 30.2 73.6 L 28.5 70.1 L 26.5 66.6 L 24.3 63.2 L 22.0 59.8 L 19.4 56.5 L 16.6 53.3 L 17.566473960876465 51.982080936431885 L 17.0 52.5 L 15.6 51.4 L 17.9 47.3 L 20.1 43.2 L 22.2 39.2 L 24.2 35.4 L 26.0 31.6 L 27.8 27.9 L 29.4 24.3 L 30.9 20.8 L 32.2 17.3 L 33.07327823638916 14.825711631774903 L 33.0 14.8 L 33.31818180084228 14.131818199157715 L 33.4 13.9 L 33.42357139587402 13.910499954223633 L 34.0 12.7 L 44.4 18.8 L 46.3 21.9 L 42.35282192230225 22.376383590698243 L 40.3 25.7 L 38.0 29.1 L 35.5 32.6 L 32.9 36.0 L 30.1 39.4 L 27.1 42.7 L 24.0 46.1 L 17.740584754943846 51.82289400100708 L 21.6 54.0 L 25.3 56.3 L 28.9 59.1 L 32.1 62.1 L 35.2 65.5 L 38.0 69.1 L 40.6 72.9 L 42.9 77.0 L 45.0 81.3 L 46.9 85.9 L 46.4 90.4 L 42.9 93.3 L 38.3 92.8 L 35.4 89.3 L 34.4 85.2 Z M 59.6 81.2 L 58.2 77.4 L 56.6 73.7 L 54.7 70.1 L 52.6 66.6 L 50.3 63.2 L 47.7 59.9 L 44.9 56.5 L 41.8 53.3 L 42.63199996948242 52.05200004577637 L 42.1 52.5 L 40.8 51.4 L 43.3 47.2 L 45.7 43.1 L 47.9 39.1 L 50.1 35.3 L 52.2 31.5 L 54.1 27.8 L 55.8 24.2 L 57.5 20.7 L 58.9 17.2 L 59.848928928375244 14.718185997009277 L 59.8 14.7 L 60.08358211517334 14.104477596282958 L 60.2 13.8 L 60.223365497589114 13.810932445526124 L 60.8 12.6 L 71.1 18.9 L 72.9 22.0 L 68.99749183654785 22.403707695007324 L 66.7 25.8 L 64.3 29.3 L 61.7 32.7 L 58.9 36.1 L 56.0 39.5 L 52.8 42.8 L 49.5 46.1 L 45.9 49.3 L 42.882352924346925 51.84117650985718 L 47.0 53.9 L 51.0 56.2 L 54.7 59.0 L 58.2 62.0 L 61.4 65.4 L 64.3 69.0 L 66.9 72.9 L 69.3 77.0 L 71.4 81.4 L 73.2 86.0 L 72.6 90.5 L 69.0 93.3 L 64.5 92.7 L 61.6 89.2 L 60.7 85.1 Z M 100.1 73.1 L 98.0 69.1 L 99.3 64.7 L 100.1 64.0 L 101.2 62.7 L 102.3 60.7 L 103.4 58.2 L 104.4 55.1 L 105.3 51.5 L 106.2 47.4 L 107.1 42.8 L 108.0 37.7 L 108.5 32.1 L 110.3 32.1 L 110.9 37.7 L 111.38461542129517 41.3 L 137.4 41.3 L 137.4 13.6 L 149.4 15.6 L 152.4 17.6 L 149.4 19.4 L 149.4 41.3 L 174.8 41.3 L 180.8 36.3 L 191.8 45.3 L 186.8 48.3 L 184.11875 49.4171875 L 183.1 51.2 L 181.8 53.5 L 180.3 55.9 L 178.8 58.4 L 177.2 61.0 L 175.4 63.7 L 173.4 66.5 L 171.8 69.5 L 170.1 68.8 L 171.1 65.5 L 171.7 62.2 L 172.3 59.1 L 172.8 56.1 L 173.3 53.3 L 173.8 50.6 L 174.2 48.1 L 174.6 45.7 L 174.6380952835083 45.3 L 111.8 45.3 L 112.0 47.7 L 112.2 52.2 L 112.2 56.3 L 112.0 60.0 L 111.6 63.4 L 110.9 66.6 L 110.0 69.5 L 108.6 72.2 L 104.5 74.4 Z " />
</g>
</svg>
