<svg xmlns="http://www.w3.org/2000/svg" xmlns:xlink="http://www.w3.org/1999/xlink" version="1.1" baseProfile="full" viewBox="0 0 200 200" width="200" height="200">
<g fill="black">
<path d="M 58.111111068725585 153.0 L 53.4 156.2 L 48.96666669845581 158.76666669845582 L 49.9 159.0 L 52.1 159.6 L 54.2 160.3 L 56.1 161.0 L 58.0 161.8 L 59.7 162.6 L 61.3 163.5 L 62.8 164.5 L 64.2 165.6 L 65.1 170.1 L 63.644038391113284 172.3713002204895 L 68.6 169.3 L 74.8 164.5 L 80.3 159.3 L 85.0 153.7 L 85.4627119064331 153.0 Z M 182.0 134.4 L 182.0 138.4 L 124.0 138.4 L 124.0 159.00422534942626 L 124.9 158.7 L 131.6 156.5 L 137.8 154.6 L 143.5 152.8 L 148.7 151.0 L 153.4 149.4 L 157.5 147.9 L 161.2 146.4 L 164.2 145.0 L 165.82758111953734 144.15365781784058 L 165.8 144.1 L 165.84826498031617 144.14290218353273 L 166.7 143.7 L 167.48732175827027 145.59984149932862 L 175.7 152.9 L 175.9 156.1 L 172.05041599273682 154.47595672607423 L 171.3 154.8 L 168.1 155.7 L 164.4 156.6 L 160.3 157.5 L 155.8 158.4 L 150.7 159.3 L 145.2 160.1 L 139.2 161.0 L 132.7 161.8 L 125.7 162.4 L 124.0 162.51184206008912 L 124.0 174.4 L 124.2 175.3 L 124.5 176.2 L 124.9 176.6 L 125.8 176.9 L 126.7 177.1 L 128.0 177.2 L 175.0 177.2 L 181.0 152.2 L 183.0 152.2 L 181.0 177.2 L 184.6 179.6 L 187.0 183.2 L 184.6 186.8 L 181.0 189.2 L 128.0 189.2 L 125.4 189.0 L 122.9 188.6 L 120.5 187.8 L 118.2 186.6 L 116.2 184.9 L 114.6 182.9 L 113.3 180.6 L 112.5 178.2 L 112.1 175.7 L 112.0 173.2 L 112.0 138.4 L 74.30526313781738 138.4 L 72.6 140.2 L 68.3 144.6 L 63.7 148.8 L 63.43684206008911 149.0 L 88.0 149.0 L 88.23773584365844 148.80188674926757 L 88.9 147.8 L 89.20469274520875 147.99608936309815 L 94.0 144.0 L 105.0 153.0 L 100.0 156.0 L 96.5720588684082 157.4283088684082 L 93.8 161.0 L 87.8 167.0 L 81.0 172.4 L 73.5 177.2 L 65.4 181.3 L 56.5 184.8 L 46.9 187.6 L 36.7 189.9 L 25.7 191.3 L 14.1 192.1 L 13.8 190.3 L 25.0 187.6 L 35.4 184.6 L 44.9 181.4 L 53.7 177.7 L 59.989436626434326 174.4746479034424 L 58.2 174.8 L 54.3 172.4 L 54.2 171.6 L 54.0 170.5 L 53.5 169.4 L 52.8 168.1 L 51.9 166.7 L 50.8 165.2 L 49.5 163.7 L 48.0 162.0 L 46.4 160.2 L 46.37571430206299 160.18421430587767 L 41.7 162.6 L 35.4 165.4 L 28.7 167.9 L 21.7 169.9 L 14.2 171.6 L 13.7 169.9 L 20.3 166.4 L 26.5 163.0 L 32.5 159.5 L 38.0 156.0 L 43.2 152.4 L 48.0 148.7 L 52.4 144.8 L 56.4 140.9 L 58.59512195587158 138.4 L 20.0 138.4 L 20.0 134.4 L 163.8181818008423 134.4 L 169.43591833114624 128.22048978805543 L 168.8 128.1 L 160.1 124.7 L 152.4 119.7 L 146.5008264541626 113.8008264541626 L 142.1 116.9 L 134.4 121.2 L 126.2 124.7 L 117.4 127.2 L 108.2 128.8 L 107.7 127.1 L 116.2 123.6 L 124.1 119.8 L 131.2 115.5 L 137.7 110.8 L 141.7048740386963 107.14037370681763 L 140.5 105.4 L 136.2 96.3 L 133.1 86.0 L 131.1 74.5 L 130.19765625 64.0 L 66.0 64.0 L 66.9 101.8 L 58.96666669845581 102.0 L 67.0 102.0 L 66.2 107.0 L 64.5 111.7 L 62.0 115.9 L 58.7 119.4 L 54.7 122.5 L 50.2 124.9 L 45.0 126.9 L 39.3 128.3 L 33.0 129.3 L 26.1 129.8 L 25.8 128.1 L 32.2 125.9 L 37.8 123.6 L 42.6 121.1 L 46.5 118.6 L 49.7 115.9 L 52.0 113.3 L 53.6 110.5 L 54.6 107.8 L 55.0 105.0 L 55.0 102.1 L 54.847500038146975 96.0 L 37.7938775062561 96.0 L 37.7 98.3 L 36.9 103.0 L 35.5 107.3 L 33.5 111.2 L 30.9 114.7 L 27.8 117.7 L 24.3 120.2 L 20.3 122.1 L 15.9 123.6 L 11.2 124.8 L 10.7 123.1 L 14.7 120.9 L 18.0 118.3 L 20.7 115.6 L 22.9 112.9 L 24.5 110.2 L 25.6 107.4 L 26.3 104.5 L 26.6 101.4 L 26.5 98.1 L 26.20833330154419 96.0 L 11.0 96.0 L 11.0 92.0 L 54.747500038146974 92.0 L 54.472500038146975 81.0 L 34.0 81.0 L 22.0 87.0 L 22.0 56.58695650100708 L 19.4 56.7 L 16.0 53.6 L 15.8 49.1 L 18.9 45.6 L 20.8 45.0 L 22.6 44.2 L 24.3 43.0 L 25.9 41.5 L 27.5 39.5 L 28.9 37.1 L 30.2 34.3 L 31.3 31.0 L 32.3 27.3 L 32.6 23.2 L 34.4 23.1 L 34.9 27.4 L 35.15 29.4 L 95.5 29.4 L 95.5 8.5 L 107.5 10.5 L 110.5 12.5 L 107.5 14.3 L 107.5 29.4 L 170.3 29.4 L 171.04516124725342 28.779032230377197 L 171.6 27.6 L 172.03934783935546 27.95054349899292 L 176.3 24.4 L 187.3 33.4 L 182.3 36.4 L 176.3 38.9 L 175.5 39.5 L 173.4 41.1 L 171.1 42.7 L 168.6 44.4 L 166.0 46.1 L 163.2 47.9 L 162.84692478179932 48.093621826171876 L 163.0 48.1 L 165.2 48.4 L 167.2 48.7 L 169.0 49.2 L 170.9 49.8 L 172.7 50.9 L 173.622594165802 53.544769859313966 L 181.0 60.0 L 181.0 64.0 L 142.2393162727356 64.0 L 143.0 72.9 L 144.8 83.2 L 147.5 92.1 L 150.14532995224 97.85748291015625 L 153.4 93.4 L 157.5 86.5 L 161.0 79.0 L 163.6607090950012 71.81608533859253 L 163.6 71.8 L 164.5 69.4 L 175.3 74.9 L 177.4 77.8 L 173.69816875457764 78.51438846588135 L 171.4 83.7 L 166.8 91.9 L 161.5 99.3 L 155.7 106.0 L 155.6475806236267 106.04758062362671 L 159.9 110.3 L 165.6 114.0 L 172.1 116.5 L 173.51176471710204 116.78235292434692 L 179.0 93.0 L 181.0 93.0 L 179.0848484992981 117.89696969985962 L 179.6 118.0 L 183.6 120.2 L 184.9 124.6 L 182.7 128.6 L 178.3 129.9 L 176.65333337783812 129.58800001144408 Z M 91.9 72.7 L 104.0 72.7 L 110.0 67.7 L 121.0 76.7 L 116.0 80.7 L 116.0 112.5 L 104.0 118.5 L 104.0 112.5 L 91.9 112.5 L 91.9 119.5 L 79.9 125.5 L 79.9 66.7 Z M 91.9 76.7 L 91.9 108.5 L 104.0 108.5 L 104.0 76.7 Z M 163.9 58.0 L 163.2 57.1 L 162.1 56.0 L 160.7 55.0 L 158.9 53.8 L 156.8 52.6 L 154.4 51.4 L 151.8 50.0 L 148.7 49.2 L 149.1 47.4 L 152.2 47.9 L 155.3 47.8 L 158.1 47.8 L 158.37936964035035 47.822349548339844 L 158.4 47.8 L 160.4 44.9 L 162.3 42.2 L 164.1 39.7 L 165.8 37.4 L 167.3 35.1 L 168.4050000190735 33.4 L 35.451282024383545 33.4 L 35.5 35.3 L 35.2 39.0 L 34.5 42.5 L 33.3 45.9 L 31.7 49.0 L 29.6 51.8 L 27.0 54.4 L 24.192307662963866 56.365384578704834 L 34.0 58.0 L 37.0 60.0 L 34.0 61.8 L 34.0 77.0 L 54.372500038146974 77.0 L 53.8 54.1 L 65.9 59.8 L 65.90476188659667 60.0 L 129.9877697944641 60.0 L 129.90719118118287 48.79958047866821 L 129.9 48.8 L 129.90581398010255 48.608139514923096 L 129.9 47.8 L 129.93028011322022 47.800757026672365 L 130.0 45.5 L 141.9 48.1 L 144.9 50.2 L 141.92892694473267 51.88943367004394 L 141.9908396720886 60.0 L 166.01052627563476 60.0 L 163.8 59.0 L 164.1 58.7 Z " />
</g>
</svg>
