<svg xmlns="http://www.w3.org/2000/svg" xmlns:xlink="http://www.w3.org/1999/xlink" version="1.1" baseProfile="full" viewBox="0 0 200 200" width="200" height="200">
<g fill="black">
<path d="M 82.8 60.4 L 84.3 63.7 L 80.59112949371338 63.63713779449463 L 77.0 68.9 L 71.0 77.1 L 64.7 85.2 L 58.2 93.1 L 57.4 93.98115940093994 L 57.4 184.2 L 45.4 190.2 L 45.4 106.84929580688477 L 44.2 108.1 L 36.8 115.3 L 29.0 122.3 L 20.9 128.9 L 12.4 135.1 L 11.2 133.8 L 18.3 126.1 L 25.3 118.4 L 32.0 110.8 L 38.6 103.0 L 44.9 95.2 L 45.4 94.53333330154419 L 45.4 93.4 L 46.25 93.4 L 50.9 87.2 L 56.7 79.2 L 62.2 71.0 L 67.5 62.6 L 72.5 54.1 L 72.52162952423096 54.113229751586914 L 73.0 53.3 Z M 170.9 131.9 L 169.1 128.2 L 168.74757356643676 127.54801111221313 L 160.0 129.1 L 148.3 130.9 L 137.3 132.5 L 136.1 132.66310682296753 L 136.1 184.2 L 124.1 190.2 L 124.1 134.2322916984558 L 117.4 135.0 L 108.4 136.1 L 100.1 137.0 L 92.5 137.7 L 85.5 138.4 L 83.41319599151612 138.5682906150818 L 81.4 141.8 L 79.3 138.9 L 77.0 127.0 L 79.0 126.9 L 85.1 127.0 L 99.5 127.0 L 107.8 126.8 L 111.24142551422119 126.72266464233398 L 114.2 123.3 L 119.1 117.5 L 124.1 111.8 L 128.9 106.2 L 133.6 100.6 L 138.2 95.0 L 142.6 89.4 L 146.9 83.9 L 151.1 78.3 L 154.4883542060852 73.55630416870117 L 154.4 73.5 L 155.5 72.1 L 164.6 80.0 L 165.7 83.4 L 162.07625942230226 82.96265201568603 L 160.0 85.4 L 155.2 90.7 L 150.2 96.0 L 145.1 101.2 L 139.8 106.4 L 134.4 111.5 L 128.7 116.5 L 122.9 121.3 L 116.7 126.0 L 115.81849365234375 126.6198091506958 L 116.7 126.6 L 126.4 126.3 L 136.8 126.0 L 147.9 125.6 L 159.7 125.3 L 167.46527328491212 125.17575559616088 L 167.1 124.5 L 165.0 121.0 L 162.7 117.5 L 160.3 114.0 L 157.7 110.6 L 155.0 107.1 L 152.1 103.7 L 153.2 102.2 L 157.2 104.5 L 161.1 107.0 L 164.7 109.7 L 168.2 112.7 L 171.4 115.9 L 174.5 119.3 L 177.4 122.9 L 180.1 126.6 L 182.7 130.5 L 185.0 134.6 L 185.1 139.1 L 182.1 142.5 L 177.5 142.7 L 174.1 139.6 L 172.6 135.7 Z M 111.5 148.6 L 113.4 151.7 L 109.49790573120117 152.10366487503052 L 109.1 152.8 L 106.5 156.8 L 103.6 160.8 L 100.6 164.7 L 97.3 168.4 L 93.8 172.0 L 90.1 175.5 L 86.2 178.8 L 81.9 182.0 L 77.4 184.9 L 76.2 183.5 L 79.4 179.3 L 82.4 175.2 L 85.3 171.2 L 88.1 167.2 L 90.7 163.3 L 93.0 159.4 L 95.2 155.4 L 97.2 151.5 L 99.0 147.5 L 100.21395530700684 144.5409839630127 L 100.1 144.5 L 101.1 142.4 Z M 167.7 171.6 L 165.9 168.1 L 163.9 164.6 L 161.8 161.2 L 159.5 157.8 L 157.0 154.4 L 154.4 151.0 L 151.7 147.6 L 148.8 144.2 L 149.9 142.8 L 153.9 145.1 L 157.7 147.5 L 161.4 150.1 L 164.8 153.0 L 168.0 156.0 L 171.1 159.2 L 174.0 162.6 L 176.7 166.1 L 179.2 169.7 L 181.6 173.5 L 181.8 178.0 L 178.9 181.5 L 174.3 181.8 L 170.8 178.8 L 169.3 175.2 Z M 109.1 102.3 L 107.2 99.4 L 105.2 96.6 L 103.1 93.8 L 100.8 91.1 L 98.3 88.4 L 95.6 85.8 L 92.9 83.1 L 89.8 80.6 L 90.6 79.1 L 94.4 80.5 L 98.2 82.0 L 101.8 83.8 L 105.2 85.8 L 106.40548782348633 86.60365858078003 L 107.0 85.7 L 109.4 82.0 L 114.2 74.8 L 116.5 71.3 L 118.7 67.8 L 120.8 64.3 L 122.8 60.9 L 124.7 57.5 L 126.02920732498168 54.91543025970459 L 126.0 54.9 L 126.29545450210571 54.39772729873657 L 126.5 54.0 L 126.52133502960206 54.013730430603026 L 127.0 53.2 L 136.6 60.5 L 138.1 63.8 L 134.20183296203612 63.66558046340943 L 134.1 63.8 L 128.7 70.2 L 125.8 73.3 L 122.8 76.4 L 119.7 79.4 L 116.4 82.4 L 113.0 85.3 L 108.94285717010499 88.34285717010498 L 111.6 90.4 L 114.6 93.0 L 117.4 95.8 L 120.0 98.8 L 122.5 102.0 L 123.2 106.5 L 120.5 110.2 L 116.0 110.9 L 112.3 108.2 L 110.7 105.2 Z M 32.3 45.2 L 32.0 50.3 L 31.2 55.0 L 30.1 59.5 L 28.5 63.6 L 26.4 67.3 L 23.9 70.7 L 20.8 73.6 L 16.3 74.4 L 12.5 71.9 L 11.6 67.4 L 14.1 63.6 L 16.1 62.4 L 18.1 60.8 L 20.0 58.7 L 21.8 56.0 L 23.4 52.7 L 24.9 48.8 L 26.2 44.3 L 27.3 39.3 L 28.4 33.8 L 29.1 27.7 L 30.9 27.6 L 31.7 33.8 L 32.055932235717776 38.0 L 94.0 38.0 L 94.0 11.4 L 106.0 13.4 L 109.0 15.4 L 106.0 17.2 L 106.0 38.0 L 171.0 38.0 L 171.50344829559327 37.58045978546143 L 171.7 37.1 L 171.9285223007202 37.22623138427734 L 177.0 33.0 L 188.0 42.0 L 183.0 45.0 L 179.3310344696045 46.528735637664795 L 178.7 47.3 L 176.7 49.7 L 174.5 52.1 L 172.1 54.7 L 169.6 57.4 L 164.0 63.0 L 160.8 65.9 L 157.7 69.0 L 156.2 67.9 L 158.5 64.1 L 160.5 60.3 L 162.3 56.8 L 164.1 53.4 L 165.8 50.2 L 167.3 47.2 L 168.6 44.4 L 169.70769233703612 42.0 L 32.24181814193726 42.0 Z " />
</g>
</svg>
