<svg xmlns="http://www.w3.org/2000/svg" xmlns:xlink="http://www.w3.org/1999/xlink" version="1.1" baseProfile="full" viewBox="0 0 200 200" width="200" height="200">
<g fill="black">
<path d="M 158.3 149.5 L 154.3326530456543 147.95714282989502 L 150.2 150.1 L 147.4 151.5 L 144.5 152.9 L 141.5 154.2 L 138.4 155.5 L 135.2 156.7 L 132.11806917190552 157.6970952987671 L 134.1 158.7 L 143.3 162.8 L 153.5 166.6 L 164.5 170.3 L 176.5 173.7 L 184.4 176.1 L 172.8 186.4 L 160.5 182.1 L 149.2 177.6 L 138.8 172.8 L 129.3 167.8 L 120.9 162.4 L 113.4 156.8 L 107.0 150.9 L 101.7 144.7 L 97.5 138.2 L 95.6735294342041 133.6 L 63.3 133.6 L 63.3 168.3885057449341 L 71.9 167.4 L 80.6 166.5 L 89.2 165.6 L 97.9 164.7 L 106.6 164.0 L 115.3 163.5 L 115.6 165.3 L 107.2 167.8 L 98.8 170.0 L 81.8 174.0 L 56.0 179.4 L 47.4 181.1 L 38.7 182.7 L 34.08864974975586 183.55792560577393 L 32.5 187.0 L 30.1 184.3 L 26.3 172.8 L 28.3 172.5 L 37.0 171.5 L 45.8 170.4 L 51.3 169.76781606674194 L 51.3 133.6 L 22.4 133.6 L 22.4 129.6 L 94.0 129.6 L 94.0 77.0 L 26.2 77.0 L 26.2 73.0 L 94.0 73.0 L 94.0 56.9 L 106.0 58.9 L 109.0 60.9 L 106.0 62.7 L 106.0 73.0 L 160.37777776718139 73.0 L 166.6 66.0 L 174.6 73.0 L 174.6 77.0 L 106.0 77.0 L 106.0 129.6 L 160.3181818008423 129.6 L 168.5 120.6 L 178.5 129.6 L 178.5 133.6 L 98.99615383148193 133.6 L 100.9 135.8 L 106.0 140.7 L 111.8 145.5 L 118.4 150.1 L 125.8 154.5 L 129.4101182937622 156.32680683135987 L 130.5 155.5 L 133.0 153.1 L 135.5 150.8 L 138.0 148.6 L 142.6 144.4 L 144.8 142.3 L 146.9 140.3 L 150.0952940940857 137.1047059059143 L 150.0 137.0 L 150.8 136.4 L 158.1 145.9 Z M 46.6 86.3 L 68.9 86.3 L 74.9 81.3 L 85.9 90.3 L 80.9 94.3 L 80.9 114.9 L 68.9 120.9 L 68.9 112.9 L 46.6 112.9 L 46.6 115.9 L 34.6 121.9 L 34.6 80.3 Z M 130.0 86.3 L 152.3 86.3 L 158.3 81.3 L 169.3 90.3 L 164.3 94.3 L 164.3 114.9 L 152.3 120.9 L 152.3 112.9 L 130.0 112.9 L 130.0 115.9 L 118.0 121.9 L 118.0 80.3 Z M 130.0 90.3 L 130.0 108.9 L 152.3 108.9 L 152.3 90.3 Z M 46.6 90.3 L 46.6 108.9 L 68.9 108.9 L 68.9 90.3 Z M 13.4 72.3 L 12.7 67.8 L 15.3 64.0 L 17.3 63.0 L 19.2 61.5 L 21.1 59.6 L 22.9 57.1 L 24.5 54.1 L 26.0 50.6 L 27.3 46.4 L 28.4 41.8 L 29.4 36.6 L 30.1 30.9 L 31.9 30.9 L 32.6 36.7 L 33.00363636016846 40.4 L 94.0 40.4 L 94.0 11.9 L 106.0 13.9 L 109.0 15.9 L 106.0 17.7 L 106.0 40.4 L 170.0 40.4 L 170.5310344696045 39.95747127532959 L 170.8 39.3 L 171.1019165992737 39.481736183166504 L 176.0 35.4 L 187.0 44.4 L 182.0 47.4 L 178.08888893127443 49.02962961196899 L 177.6 49.6 L 175.5 51.7 L 173.4 54.0 L 171.0 56.4 L 168.5 58.8 L 165.8 61.4 L 162.9 64.0 L 159.7 66.7 L 156.6 69.6 L 155.3 68.5 L 157.6 64.9 L 159.5 61.3 L 161.4 57.9 L 163.2 54.7 L 164.9 51.7 L 166.4 48.9 L 167.7 46.3 L 168.6119999885559 44.4 L 33.2 44.4 L 33.2 47.3 L 32.9 52.1 L 32.2 56.6 L 31.0 60.8 L 29.4 64.7 L 27.4 68.3 L 24.8 71.5 L 21.7 74.2 L 17.2 74.9 Z " />
</g>
</svg>
