<svg xmlns="http://www.w3.org/2000/svg" xmlns:xlink="http://www.w3.org/1999/xlink" version="1.1" baseProfile="full" viewBox="0 0 200 200" width="200" height="200">
<g fill="black">
<path d="M 182.5 181.9 L 182.5 185.9 L 21.2 185.9 L 21.2 181.9 L 164.3181818008423 181.9 L 172.5 172.9 Z M 62.5 137.5 L 135.5 137.5 L 141.5 132.5 L 152.5 141.5 L 147.5 145.5 L 147.5 173.6 L 135.5 179.6 L 135.5 173.6 L 62.5 173.6 L 50.5 179.6 L 50.5 131.5 Z M 62.5 157.1 L 62.5 169.6 L 135.5 169.6 L 135.5 157.1 Z M 62.5 141.5 L 62.5 153.1 L 135.5 153.1 L 135.5 141.5 Z M 16.6 125.9 L 17.1 121.4 L 20.6 118.4 L 22.5 118.2 L 24.3 117.9 L 25.8 117.4 L 27.3 116.7 L 28.6 115.9 L 29.8 114.8 L 31.0 113.3 L 32.1 111.5 L 33.0 109.3 L 33.2 106.8 L 35.0 106.7 L 35.2 109.4 L 35.23703699111938 109.6 L 94.9 109.6 L 94.9 96.7 L 106.9 98.7 L 109.9 100.7 L 106.9 102.5 L 106.9 109.6 L 168.6 109.6 L 169.5 108.85 L 170.0 108.2 L 170.8 107.0 L 171.17270784378053 107.4560767173767 L 174.6 104.6 L 185.6 113.6 L 180.6 116.6 L 168.6 121.6 L 168.6 120.27826089859009 L 166.5 121.1 L 164.0 122.0 L 161.3 122.9 L 158.4 123.7 L 155.7 125.0 L 154.8 123.5 L 157.3 121.7 L 159.3 119.6 L 161.3 117.7 L 163.2 115.8 L 164.8 114.1 L 165.3 113.6 L 35.75769233703613 113.6 L 35.8 114.7 L 35.4 117.3 L 34.6 119.9 L 33.3 122.4 L 31.6 124.6 L 29.4 126.7 L 26.9 128.4 L 24.1 129.9 L 19.5 129.4 Z M 152.8 125.2 L 152.8 129.2 L 47.2 129.2 L 47.2 125.2 L 138.5777777671814 125.2 L 144.8 118.2 Z M 182.5 91.6 L 182.5 95.6 L 21.2 95.6 L 21.2 91.6 L 168.2777777671814 91.6 L 174.5 84.6 Z M 62.5 49.7 L 135.5 49.7 L 141.5 44.7 L 152.5 53.7 L 147.5 57.7 L 147.5 84.0 L 135.5 90.0 L 135.5 84.0 L 62.5 84.0 L 50.5 90.0 L 50.5 43.7 Z M 62.5 68.4 L 62.5 80.0 L 135.5 80.0 L 135.5 68.4 Z M 62.5 53.7 L 62.5 64.4 L 135.5 64.4 L 135.5 53.7 Z M 16.6 38.9 L 17.1 34.3 L 20.7 31.5 L 22.7 31.3 L 24.4 30.9 L 26.0 30.5 L 27.4 30.0 L 28.7 29.2 L 29.9 28.2 L 31.0 26.9 L 32.1 25.3 L 33.0 23.2 L 33.2 20.9 L 35.0 20.8 L 35.2 23.3 L 35.2192307472229 23.4 L 94.9 23.4 L 94.9 11.2 L 106.9 13.2 L 109.9 15.2 L 106.9 17.0 L 106.9 23.4 L 168.6 23.4 L 169.35 22.775 L 170.1 21.8 L 170.9 20.6 L 171.31458778381347 21.137843513488768 L 174.6 18.4 L 185.6 27.4 L 180.6 30.4 L 168.6 35.4 L 168.6 33.76666669845581 L 166.4 34.5 L 163.9 35.3 L 161.3 36.1 L 158.4 36.9 L 155.6 38.1 L 154.8 36.5 L 157.3 34.8 L 159.4 32.8 L 161.4 30.9 L 163.2 29.2 L 165.0 27.4 L 35.76000003814697 27.4 L 35.8 28.4 L 35.4 30.9 L 34.5 33.4 L 33.2 35.8 L 31.5 37.9 L 29.3 39.9 L 26.8 41.6 L 24.0 43.0 L 19.5 42.4 Z M 152.8 38.1 L 152.8 42.1 L 47.2 42.1 L 47.2 38.1 L 138.5777777671814 38.1 L 144.8 31.1 Z " />
</g>
</svg>
