<svg xmlns="http://www.w3.org/2000/svg" xmlns:xlink="http://www.w3.org/1999/xlink" version="1.1" baseProfile="full" viewBox="0 0 200 200" width="200" height="200">
<g fill="black">
<path d="M 152.8 177.9 L 143.3 172.0 L 134.7 165.5 L 127.1 158.6 L 120.5 151.2 L 115.0 143.4 L 110.5 135.0 L 107.3 126.3 L 105.56703300476075 118.0 L 104.24568967819214 118.0 L 101.6 127.9 L 96.6 138.6 L 89.9 148.5 L 81.4 157.5 L 71.3 165.5 L 59.5 172.7 L 46.0 179.0 L 30.9 184.4 L 14.2 188.8 L 13.7 187.1 L 29.6 180.8 L 43.8 174.2 L 56.2 167.1 L 66.7 159.5 L 75.5 151.4 L 82.5 142.9 L 87.8 133.9 L 91.4 124.5 L 92.76499996185302 118.0 L 26.0 118.0 L 26.0 114.0 L 93.52380952835082 114.0 L 94.0 104.0 L 94.0 78.0 L 38.0 78.0 L 38.0 74.0 L 140.0 74.0 L 150.0 64.0 L 162.0 74.0 L 162.0 78.0 L 106.0 78.0 L 106.0 104.0 L 104.94308938980103 114.0 L 152.0 114.0 L 162.0 104.0 L 174.0 114.0 L 174.0 118.0 L 107.76625003814698 118.0 L 111.2 124.7 L 115.7 132.2 L 120.9 139.2 L 126.8 145.7 L 133.4 151.8 L 140.9 157.4 L 149.2 162.6 L 158.3 167.4 L 168.3 171.8 L 179.2 175.7 L 186.3 178.3 L 174.7 188.2 L 163.3 183.3 Z M 33.3 45.2 L 33.4 49.1 L 33.0 53.0 L 32.3 56.7 L 31.2 60.3 L 29.6 63.8 L 27.6 67.1 L 25.3 70.1 L 21.0 71.7 L 16.8 69.9 L 15.2 65.6 L 17.0 61.4 L 19.1 59.8 L 20.9 58.0 L 22.6 55.9 L 24.2 53.6 L 25.5 50.9 L 26.7 48.0 L 27.7 44.7 L 28.0 43.35 L 28.0 40.1 L 28.653846168518065 40.1 L 29.1 37.2 L 29.2 32.9 L 31.0 32.7 L 31.9 37.0 L 32.58048782348633 40.1 L 94.0 40.1 L 94.0 12.2 L 106.0 14.2 L 109.0 16.2 L 106.0 18.0 L 106.0 40.1 L 171.0 40.1 L 171.6 39.6 L 171.8 39.0 L 172.09988803863524 39.18342666625976 L 177.0 35.1 L 188.0 44.1 L 183.0 47.1 L 178.73043479919434 48.878985500335695 L 177.1 50.6 L 175.0 52.7 L 172.8 55.0 L 170.4 57.5 L 167.8 60.1 L 164.9 62.9 L 161.8 65.8 L 158.7 69.1 L 157.2 68.0 L 159.6 64.2 L 161.5 60.3 L 163.3 56.8 L 165.0 53.5 L 166.6 50.5 L 168.0 47.7 L 169.2 45.2 L 169.72608699798585 44.1 L 33.16585369110108 44.1 Z " />
</g>
</svg>
