<svg xmlns="http://www.w3.org/2000/svg" xmlns:xlink="http://www.w3.org/1999/xlink" version="1.1" baseProfile="full" viewBox="0 0 200 200" width="200" height="200">
<g fill="black">
<path d="M 132.8 61.5 L 135.3 64.1 L 131.73622875213624 65.26632509231567 L 129.1 74.6 L 124.8 87.0 L 124.38119659423828 88.0 L 165.9 88.0 L 175.9 78.0 L 187.9 88.0 L 187.9 92.0 L 122.70598287582398 92.0 L 119.9 98.7 L 114.3 109.7 L 108.0 120.0 L 106.6679536819458 121.8339768409729 L 111.0 124.0 L 159.8 124.0 L 165.8 119.0 L 176.8 128.0 L 171.8 132.0 L 171.8 179.2 L 159.8 185.2 L 159.8 175.2 L 111.0 175.2 L 111.0 182.2 L 99.0 188.2 L 99.0 131.9640000343323 L 93.6 138.3 L 85.4 146.3 L 76.5 153.5 L 66.9 159.7 L 65.9 158.2 L 74.0 150.6 L 81.6 142.5 L 88.6 134.1 L 95.0 125.1 L 99.0 118.47931032180786 L 99.0 118.0 L 99.22239999771118 118.11120004653931 L 100.8 115.5 L 106.0 105.4 L 110.7 94.7 L 111.65575218200684 92.0 L 65.0 92.0 L 65.0 88.0 L 113.07168140411378 88.0 L 114.7 83.4 L 118.2 71.4 L 121.1 58.9 L 121.5 57.1 Z M 75.7 59.9 L 77.4 63.1 L 73.65765743255615 63.290288639068606 L 70.7 68.2 L 65.4 76.3 L 59.9 84.3 L 54.1 92.0 L 48.1 99.5 L 47.901599979400636 99.7336000442505 L 53.7 100.7 L 56.7 102.7 L 53.7 104.5 L 53.7 181.5 L 41.7 187.5 L 41.7 107.01846151351928 L 35.4 113.9 L 28.6 120.7 L 21.4 127.2 L 13.9 133.3 L 12.6 132.1 L 18.7 124.6 L 24.6 117.1 L 30.4 109.6 L 36.0 102.0 L 41.4 94.4 L 46.6 86.6 L 51.5 78.7 L 56.3 70.7 L 60.8 62.5 L 65.1 54.2 L 65.15743036270142 54.23088235855103 L 65.7 53.2 Z M 111.0 128.0 L 111.0 171.2 L 159.8 171.2 L 159.8 128.0 Z M 32.9 45.9 L 32.6 51.1 L 31.8 55.9 L 30.7 60.4 L 29.2 64.5 L 27.2 68.3 L 24.6 71.7 L 21.6 74.7 L 17.1 75.6 L 13.3 73.1 L 12.4 68.7 L 14.8 64.8 L 16.8 63.6 L 18.7 61.9 L 20.6 59.7 L 22.4 57.0 L 24.0 53.6 L 25.5 49.6 L 26.8 45.1 L 27.9 40.0 L 28.9 34.3 L 29.6 28.1 L 31.4 28.1 L 32.3 34.4 L 32.66440677642822 38.7 L 93.5 38.7 L 93.5 11.6 L 105.5 13.6 L 108.5 15.6 L 105.5 17.4 L 105.5 38.7 L 169.3 38.7 L 169.84489793777465 38.245918369293214 L 170.0 37.8 L 170.23096332550048 37.92419729232788 L 175.3 33.7 L 186.3 42.7 L 181.3 45.7 L 177.73870964050292 47.18387098312378 L 177.1 48.0 L 175.1 50.4 L 173.0 52.9 L 170.6 55.5 L 168.2 58.3 L 165.5 61.1 L 162.6 64.0 L 159.4 67.0 L 156.3 70.2 L 154.9 69.1 L 157.1 65.2 L 160.8 57.8 L 162.6 54.4 L 164.2 51.1 L 165.7 48.1 L 167.0 45.3 L 168.1555555343628 42.7 L 32.84285717010498 42.7 Z " />
</g>
</svg>
