<svg xmlns="http://www.w3.org/2000/svg" xmlns:xlink="http://www.w3.org/1999/xlink" version="1.1" baseProfile="full" viewBox="0 0 200 200" width="200" height="200">
<g fill="black">
<path d="M 170.1 155.1 L 168.5 156.9 L 166.7 158.6 L 164.7 160.1 L 162.6 161.3 L 160.3 162.2 L 157.9 162.8 L 155.5 163.2 L 153.0 163.3 L 153.0 157.3 L 133.0 154.3 L 133.0 151.3 L 153.0 151.3 L 154.3 151.2 L 155.5 151.0 L 156.6 150.8 L 157.5 150.4 L 158.3 150.0 L 159.0 149.4 L 159.7 148.7 L 160.4 147.9 L 161.1 146.9 L 161.9 145.3 L 162.2 144.5 L 162.5 143.5 L 162.8 142.2 L 163.1 140.7 L 163.5 138.9 L 163.9 137.0 L 164.2 134.8 L 164.55 132.7 L 106.38333330154418 132.7 L 109.5 137.8 L 114.3 144.4 L 119.6 150.3 L 125.5 155.6 L 132.0 160.4 L 139.3 164.6 L 147.3 168.2 L 156.1 171.3 L 165.7 173.8 L 176.2 175.8 L 185.6 177.5 L 173.7 188.7 L 162.6 185.9 L 152.3 182.4 L 142.8 178.3 L 134.2 173.4 L 126.5 167.9 L 119.8 161.8 L 114.1 155.0 L 109.3 147.6 L 105.8 139.7 L 103.8235294342041 132.7 L 102.60683765411378 132.7 L 101.6 136.5 L 96.6 147.2 L 89.8 156.7 L 81.3 165.1 L 71.1 172.3 L 59.2 178.3 L 45.8 183.3 L 30.8 187.0 L 14.1 189.6 L 13.8 187.8 L 29.8 183.3 L 44.0 178.2 L 56.4 172.4 L 66.9 165.9 L 75.6 158.7 L 82.6 150.9 L 87.8 142.4 L 91.4 133.2 L 91.50396041870117 132.7 L 43.59963903427124 132.7 L 42.3 137.2 L 29.2 139.6 L 40.4 100.4 L 48.45054941177368 107.8 L 94.0 107.8 L 94.0 90.1 L 28.0 90.1 L 28.0 86.1 L 94.0 86.1 L 94.0 72.3 L 15.0 72.3 L 15.0 68.84444446563721 L 13.4 67.6 L 12.8 63.1 L 15.5 59.4 L 17.5 58.5 L 19.4 57.2 L 21.2 55.4 L 23.0 53.2 L 24.6 50.5 L 26.1 47.2 L 27.4 43.4 L 28.5 39.1 L 29.5 34.3 L 30.1 29.0 L 31.9 28.9 L 32.5 34.4 L 32.88823528289795 37.7 L 94.0 37.7 L 94.0 11.1 L 106.0 13.1 L 109.0 15.1 L 106.0 16.9 L 106.0 37.7 L 170.0 37.7 L 170.5039999961853 37.28000001907348 L 170.9 36.4 L 171.27240219116212 36.639664840698245 L 176.0 32.7 L 187.0 41.7 L 182.0 44.7 L 177.68000001907347 46.5 L 177.5 46.7 L 175.4 48.7 L 173.3 50.8 L 170.9 53.0 L 168.4 55.2 L 165.7 57.6 L 162.8 60.0 L 159.7 62.4 L 156.6 65.2 L 155.3 64.0 L 157.7 60.6 L 159.6 57.2 L 161.5 54.0 L 163.3 51.0 L 165.0 48.1 L 166.5 45.5 L 167.8 43.0 L 168.45 41.7 L 33.14583330154419 41.7 L 33.2 44.3 L 32.8 48.8 L 32.1 53.1 L 30.9 57.1 L 29.3 60.8 L 27.2 64.2 L 24.7 67.2 L 23.3884614944458 68.3 L 94.0 68.3 L 94.0 50.0 L 106.0 52.0 L 109.0 54.0 L 106.0 55.8 L 106.0 68.3 L 166.8181818008423 68.3 L 175.0 59.3 L 185.0 68.3 L 185.0 72.3 L 106.0 72.3 L 106.0 86.1 L 150.0 86.1 L 156.0 81.1 L 167.0 90.1 L 162.0 94.1 L 162.0 113.8 L 150.0 119.8 L 150.0 111.8 L 106.0 111.8 L 106.0 112.2 L 104.7 124.8 L 103.66666669845581 128.7 L 165.0 128.7 L 171.0 123.7 L 182.0 132.7 L 177.0 135.7 L 176.224285697937 136.02321424484253 L 176.1 136.8 L 175.7 139.1 L 175.3 141.2 L 174.9 143.2 L 174.5 145.0 L 174.0 146.6 L 173.6 148.1 L 173.1 149.5 L 172.6 150.8 L 171.4 153.0 Z M 106.0 90.1 L 106.0 107.8 L 150.0 107.8 L 150.0 90.1 Z M 49.6357400894165 111.8 L 44.75487365722656 128.7 L 92.33564357757568 128.7 L 93.5 123.1 L 94.0 112.2 L 94.0 111.8 Z " />
</g>
</svg>
