<svg xmlns="http://www.w3.org/2000/svg" xmlns:xlink="http://www.w3.org/1999/xlink" version="1.1" baseProfile="full" viewBox="0 0 200 200" width="200" height="200">
<g fill="black">
<path d="M 88.1 91.3 L 88.1 95.3 L 55.7 95.3 L 55.7 183.5 L 45.7 188.5 L 45.7 95.3 L 17.4 95.3 L 17.4 91.3 L 66.1 91.3 L 76.1 81.3 Z M 85.0 180.8 L 128.3 180.8 L 128.3 158.1 L 97.5 158.1 L 97.5 154.1 L 128.3 154.1 L 128.3 131.6 L 140.3 133.6 L 143.3 135.6 L 140.3 137.4 L 140.3 154.1 L 152.1 154.1 L 162.1 144.1 L 174.1 154.1 L 174.1 158.1 L 140.3 158.1 L 140.3 180.8 L 161.6 180.8 L 171.6 170.8 L 183.6 180.8 L 183.6 184.8 L 85.0 184.8 Z M 35.9 109.2 L 38.7 111.2 L 35.9 112.95 L 35.9 134.2 L 35.5 140.7 L 34.7 146.8 L 33.7 152.5 L 32.4 157.7 L 30.8 162.3 L 28.8 166.5 L 26.5 170.1 L 23.9 173.2 L 21.0 175.5 L 17.9 177.2 L 16.9 175.9 L 18.8 173.3 L 20.2 170.5 L 21.5 167.4 L 22.6 164.0 L 23.6 160.1 L 24.3 155.9 L 24.8 151.1 L 25.0 145.9 L 25.1 140.3 L 24.9 134.2 L 24.9 107.2 Z M 78.1 109.2 L 80.9 111.2 L 78.1 112.95 L 78.1 161.2 L 67.1 166.7 L 67.1 107.2 Z M 183.6 59.9 L 183.6 63.9 L 148.7 63.9 L 148.7 81.1 L 165.1 81.1 L 171.1 76.1 L 182.1 85.1 L 177.1 89.1 L 177.1 133.1 L 165.1 139.1 L 165.1 129.1 L 104.1 129.1 L 104.1 136.1 L 92.1 142.1 L 92.1 75.1 L 104.1 81.1 L 118.7 81.1 L 118.7 63.9 L 86.2 63.9 L 86.2 59.9 L 165.4181818008423 59.9 L 173.6 50.9 Z M 162.2 96.8 L 164.2 96.8 L 162.2 105.8 L 164.6 107.4 L 165.1 108.15 L 165.1 85.1 L 148.7 85.1 L 148.7 99.8 L 148.6 101.1 L 148.6 102.2 L 148.7 102.9 L 148.9 103.5 L 149.0 104.0 L 149.3 104.4 L 149.8 104.8 L 150.6 105.2 L 151.7 105.6 L 153.2 105.8 L 158.2 105.8 Z M 104.1 85.1 L 104.1 117.3875 L 104.6 117.0 L 108.0 113.8 L 110.9 110.5 L 113.3 107.2 L 115.2 103.7 L 116.7 100.1 L 117.8 96.4 L 118.5 92.4 L 118.8 88.3 L 118.72727270126343 85.1 Z M 129.7 63.9 L 129.7 81.1 L 137.7 81.1 L 137.7 63.9 Z M 79.1 63.1 L 79.1 67.1 L 25.5 67.1 L 25.5 63.1 L 57.1 63.1 L 67.1 53.1 Z M 32.6 38.7 L 32.3 42.9 L 31.6 46.8 L 30.5 50.4 L 28.9 53.8 L 26.8 57.0 L 24.2 59.8 L 21.2 62.1 L 16.6 62.5 L 13.1 59.7 L 12.7 55.1 L 15.6 51.5 L 17.5 50.8 L 19.3 49.7 L 21.1 48.2 L 22.8 46.3 L 24.3 44.0 L 25.8 41.1 L 27.1 37.8 L 28.2 34.0 L 29.2 29.7 L 29.6 25.0 L 31.4 24.9 L 32.0 29.8 L 32.29347829818725 32.5 L 93.5 32.5 L 93.5 11.8 L 105.5 13.8 L 108.5 15.8 L 105.5 17.6 L 105.5 32.5 L 169.3 32.5 L 169.98823528289796 31.9264705657959 L 170.4 31.0 L 170.77942476272582 31.267146015167235 L 175.3 27.5 L 186.3 36.5 L 181.3 39.5 L 176.25172414779664 41.60344829559326 L 174.7 43.0 L 172.6 44.8 L 170.3 46.8 L 167.8 48.7 L 165.1 50.8 L 162.3 52.9 L 159.2 55.0 L 156.2 57.5 L 155.0 56.2 L 157.3 53.2 L 159.3 50.0 L 161.2 47.1 L 164.6 41.7 L 166.0 39.3 L 167.4 37.0 L 167.65 36.5 L 32.548837184906006 36.5 Z M 148.5 113.6 L 146.3 113.0 L 144.2 112.0 L 142.3 110.7 L 140.7 108.9 L 139.4 106.9 L 138.5 104.7 L 138.0 102.3 L 137.7 99.8 L 137.7 85.1 L 129.5666666984558 85.1 L 129.1 89.3 L 128.0 94.4 L 126.4 99.2 L 124.2 103.6 L 121.6 107.7 L 118.4 111.3 L 114.8 114.6 L 110.7 117.3 L 106.2 119.6 L 104.1 120.43125 L 104.1 125.1 L 165.1 125.1 L 165.1 111.45 L 164.6 112.2 L 162.2 113.8 L 150.8 113.8 Z " />
</g>
</svg>
