<svg xmlns="http://www.w3.org/2000/svg" xmlns:xlink="http://www.w3.org/1999/xlink" version="1.1" baseProfile="full" viewBox="0 0 200 200" width="200" height="200">
<g fill="black">
<path d="M 182.0 149.4 L 184.0 149.4 L 182.0 174.4 L 185.6 176.8 L 188.0 180.4 L 185.6 184.0 L 182.0 186.4 L 126.0 186.4 L 123.4 186.2 L 120.9 185.8 L 118.5 185.0 L 116.2 183.7 L 114.2 182.1 L 112.6 180.1 L 111.3 177.8 L 110.5 175.4 L 110.1 172.9 L 110.0 170.4 L 110.0 140.3 L 84.93260869979858 140.3 L 89.6 142.2 L 92.0 144.8 L 88.17639102935792 146.029017162323 L 86.7 150.0 L 82.6 157.2 L 77.4 163.7 L 71.1 169.5 L 63.7 174.6 L 55.4 179.0 L 46.1 182.7 L 35.8 185.7 L 24.5 188.1 L 12.1 189.7 L 11.8 187.9 L 23.6 184.4 L 34.2 180.6 L 43.6 176.6 L 51.9 172.2 L 59.0 167.5 L 65.0 162.5 L 69.8 157.2 L 73.5 151.5 L 76.2 145.6 L 77.62478694915771 140.40371809005737 L 77.6 140.4 L 77.625 140.3 L 58.0 140.3 L 58.0 152.3 L 46.0 158.3 L 46.0 56.1 L 58.0 62.1 L 142.0 62.1 L 148.0 57.1 L 159.0 66.1 L 154.0 70.1 L 154.0 146.3 L 142.0 152.3 L 142.0 140.3 L 122.0 140.3 L 122.0 171.6 L 122.2 172.5 L 122.5 173.4 L 122.9 173.8 L 123.8 174.1 L 124.7 174.3 L 126.0 174.4 L 176.0 174.4 Z M 58.0 115.0 L 58.0 136.3 L 142.0 136.3 L 142.0 115.0 Z M 58.0 90.6 L 58.0 111.0 L 142.0 111.0 L 142.0 90.6 Z M 58.0 66.1 L 58.0 86.6 L 142.0 86.6 L 142.0 66.1 Z M 33.0 38.6 L 32.7 42.5 L 31.9 46.2 L 30.8 49.7 L 29.1 53.0 L 27.0 55.9 L 24.4 58.6 L 21.3 60.9 L 16.7 61.1 L 13.3 58.1 L 13.0 53.6 L 16.0 50.1 L 18.0 49.4 L 19.8 48.4 L 21.6 47.1 L 23.3 45.4 L 24.8 43.3 L 26.3 40.7 L 27.6 37.6 L 28.7 34.1 L 29.7 30.1 L 30.1 25.6 L 31.9 25.6 L 32.4 30.1 L 32.672727298736575 32.5 L 94.0 32.5 L 94.0 10.2 L 106.0 12.2 L 109.0 14.2 L 106.0 16.0 L 106.0 32.5 L 170.0 32.5 L 170.6 32.0 L 171.2 30.8 L 171.637020778656 31.13581600189209 L 176.0 27.5 L 187.0 36.5 L 182.0 39.5 L 176.41739130020142 41.82608699798584 L 175.2 42.8 L 173.0 44.5 L 170.7 46.3 L 168.2 48.1 L 165.5 50.0 L 162.7 51.9 L 159.6 53.8 L 156.6 56.1 L 155.3 54.8 L 157.8 52.0 L 159.8 49.0 L 161.7 46.2 L 163.5 43.5 L 165.2 41.1 L 166.7 38.7 L 168.1 36.5 L 32.94878044128418 36.5 Z " />
</g>
</svg>
