<svg xmlns="http://www.w3.org/2000/svg" xmlns:xlink="http://www.w3.org/1999/xlink" version="1.1" baseProfile="full" viewBox="0 0 200 200" width="200" height="200">
<g fill="black">
<path d="M 155.8 176.9 L 146.3 170.3 L 137.8 163.0 L 135.19508438110353 160.10961418151857 L 127.6 167.0 L 116.6 174.6 L 104.5 181.0 L 91.1 186.1 L 76.7 189.9 L 76.2 188.1 L 89.8 182.6 L 102.0 176.2 L 113.0 169.1 L 122.6 161.2 L 129.6915584564209 153.7707483291626 L 124.2 146.1 L 119.0 136.7 L 115.1 126.6 L 112.3 115.8 L 111.46424303054809 109.05424766540527 L 106.6 114.3 L 101.1 119.4 L 95.1 124.1 L 93.9 122.8 L 98.3 116.8 L 102.5 110.9 L 106.4 104.9 L 110.1 98.7 L 113.6 92.5 L 116.7 86.0 L 119.6 79.4 L 122.2 72.7 L 124.5 65.7 L 126.21727867126465 59.60366077423096 L 126.2 59.6 L 126.9 57.0 L 138.0 62.1 L 140.3 64.8 L 136.6110584259033 65.77077407836914 L 135.2 69.5 L 132.1 76.7 L 128.7 83.7 L 125.0 90.4 L 122.7578125 93.9 L 165.6 93.9 L 175.6 83.9 L 187.6 93.9 L 187.6 97.9 L 166.6496551513672 97.9 L 163.6 111.3 L 159.0 124.7 L 153.0 137.0 L 145.8 148.1 L 141.8715277671814 152.7679493904114 L 144.7 155.4 L 152.8 161.4 L 161.7 166.7 L 171.5 171.3 L 182.2 175.4 L 189.3 177.9 L 177.8 187.8 L 166.3 182.7 Z M 79.9 162.3 L 79.74102563858033 161.50512819290162 L 78.0 162.5 L 72.3 165.3 L 66.3 168.0 L 60.2 170.5 L 53.9 172.9 L 47.6 175.2 L 41.1 177.4 L 34.5 179.5 L 27.8 181.5 L 24.92642993927002 182.34516763687134 L 23.6 185.9 L 21.0 183.5 L 16.3 172.2 L 18.3 171.8 L 25.1 170.5 L 31.8 169.1 L 45.0 166.3 L 50.9 164.9384614944458 L 50.9 132.9 L 34.5 132.9 L 34.5 144.9 L 22.5 150.9 L 22.5 81.9 L 34.5 87.9 L 50.9 87.9 L 50.9 58.4 L 62.9 60.4 L 65.9 62.4 L 62.9 64.2 L 62.9 87.9 L 79.3 87.9 L 85.3 82.9 L 96.3 91.9 L 91.3 95.9 L 91.3 132.9 L 79.3 138.9 L 79.3 132.9 L 62.9 132.9 L 62.9 162.10952377319336 L 70.5 160.3 L 76.8 158.9 L 78.96999998092652 158.44499998092653 L 78.9 158.2 L 78.1 155.9 L 76.9 153.4 L 75.6 150.7 L 73.9 147.9 L 72.1 144.8 L 69.7 141.9 L 71.0 140.6 L 73.9 143.1 L 76.9 145.2 L 79.6 147.3 L 82.1 149.5 L 84.3 151.7 L 86.3 153.9 L 88.0 156.2 L 89.5 158.6 L 90.8 161.0 L 91.7 163.5 L 90.6 167.9 L 86.7 170.4 L 82.3 169.2 L 79.9 165.4 L 80.0 163.9 Z M 120.10655736923218 97.9 L 116.5 102.9 L 113.51306533813477 106.57144050598144 L 116.3 114.7 L 120.5 124.3 L 125.4 133.2 L 131.1 141.4 L 135.4924210548401 146.41010522842407 L 138.2 142.8 L 144.2 132.3 L 149.0 120.8 L 152.6 108.4 L 154.53199996948243 97.9 Z M 34.5 91.9 L 34.5 128.9 L 50.9 128.9 L 50.9 91.9 Z M 62.9 91.9 L 62.9 128.9 L 79.3 128.9 L 79.3 91.9 Z M 13.5 78.1 L 12.6 73.6 L 15.1 69.8 L 17.1 68.6 L 19.1 67.0 L 21.0 64.8 L 22.8 62.0 L 24.4 58.7 L 25.9 54.7 L 27.2 50.2 L 28.3 45.2 L 29.4 39.6 L 30.1 33.4 L 31.9 33.3 L 32.7 39.6 L 33.06440677642822 43.9 L 94.0 43.9 L 94.0 13.0 L 106.0 15.0 L 109.0 17.0 L 106.0 18.8 L 106.0 43.9 L 170.0 43.9 L 170.45806455612183 43.51827955245972 L 170.7 42.9 L 170.99863481521606 43.06780433654785 L 176.0 38.9 L 187.0 47.9 L 182.0 50.9 L 178.29032258987428 52.44569892883301 L 177.7 53.2 L 175.7 55.6 L 173.5 58.1 L 171.2 60.7 L 168.6 63.4 L 165.9 66.2 L 163.0 69.1 L 159.8 72.0 L 156.7 75.2 L 155.2 74.1 L 157.5 70.2 L 159.5 66.4 L 161.3 62.8 L 163.1 59.4 L 167.6 50.4 L 168.7111110687256 47.9 L 33.24285717010498 47.9 L 33.3 51.1 L 33.0 56.2 L 32.2 61.0 L 31.1 65.5 L 29.5 69.7 L 27.5 73.4 L 24.9 76.8 L 21.8 79.7 L 17.3 80.6 Z " />
</g>
</svg>
