<svg xmlns="http://www.w3.org/2000/svg" xmlns:xlink="http://www.w3.org/1999/xlink" version="1.1" baseProfile="full" viewBox="0 0 200 200" width="200" height="200">
<g fill="black">
<path d="M 131.0 140.7 L 135.0 146.8 L 139.2 152.4 L 143.6 157.3 L 148.2 161.6 L 153.1 165.3 L 158.3 168.4 L 163.7 171.0 L 169.5 173.1 L 175.6 174.7 L 184.0 176.9 L 172.2 187.4 L 165.1 184.8 L 158.5 181.6 L 152.4 177.8 L 146.8 173.3 L 141.7 168.2 L 137.2 162.6 L 133.2 156.4 L 129.9 149.7 L 127.2 142.4 L 126.46874685287476 139.39801321029663 L 126.3 140.1 L 122.4 149.6 L 117.1 158.2 L 110.4 165.7 L 102.3 172.3 L 93.1 177.8 L 82.6 182.2 L 70.8 185.6 L 57.9 187.9 L 57.5 186.1 L 69.7 182.0 L 80.5 177.3 L 89.8 172.0 L 97.7 166.2 L 104.2 159.9 L 109.4 152.9 L 113.3 145.3 L 116.0 137.1 L 116.28651685714722 135.4 L 67.7 135.4 L 67.7 131.4 L 82.8 131.4 L 82.8 79.9 L 94.8 85.9 L 117.8 85.9 L 117.8 58.6 L 129.8 60.6 L 132.8 62.6 L 129.8 64.4 L 129.8 85.9 L 152.9 85.9 L 158.9 80.9 L 169.9 89.9 L 164.9 93.9 L 164.9 131.4 L 167.6777777671814 131.4 L 173.9 124.4 L 181.9 131.4 L 181.9 135.4 L 127.8358208656311 135.4 Z M 41.6 187.0 L 37.6 184.8 L 36.3 180.4 L 36.8 175.6 L 36.9 171.3 L 36.6 167.3 L 35.7 163.7 L 34.4 160.5 L 32.5 157.4 L 30.1 154.6 L 27.0 151.9 L 23.1 149.3 L 18.5 147.1 L 18.9 145.4 L 24.3 146.3 L 29.2 147.6 L 33.7 149.7 L 35.61611480712891 151.04128036499023 L 35.7 150.9 L 38.2 147.0 L 41.2 142.2 L 44.9 136.6 L 49.2 130.2 L 54.1 123.0 L 59.7 114.9 L 66.0 106.0 L 73.1 96.4 L 74.7 97.3 L 69.3 108.0 L 64.3 117.7 L 59.7 126.3 L 55.7 134.1 L 52.2 140.9 L 49.3 146.8 L 47.0 151.8 L 45.2 155.8 L 44.1 158.8 L 43.859770107269284 159.94109191894532 L 43.9 160.0 L 46.0 164.7 L 47.4 169.9 L 48.1 175.6 L 48.2 181.6 L 46.0 185.6 Z M 128.39134616851806 131.4 L 152.9 131.4 L 152.9 89.9 L 129.8 89.9 L 129.8 118.5 L 128.8 129.7 Z M 37.0 110.2 L 35.7 108.7 L 34.0 107.1 L 32.0 105.5 L 29.7 103.8 L 27.0 102.1 L 24.0 100.4 L 20.7 98.6 L 16.9 97.2 L 17.4 95.5 L 21.4 96.1 L 25.3 96.5 L 28.9 97.1 L 32.3 97.8 L 35.4 98.7 L 38.3 99.7 L 41.1 100.9 L 43.6 102.3 L 45.9 103.9 L 48.1 105.8 L 49.1 110.2 L 46.8 114.2 L 42.4 115.2 L 38.4 113.0 L 37.9 111.7 Z M 50.7 76.0 L 49.4 74.5 L 47.7 72.8 L 45.8 71.2 L 43.6 69.5 L 41.0 67.8 L 38.2 66.1 L 35.2 64.4 L 31.7 63.0 L 32.2 61.2 L 35.9 61.9 L 39.6 62.3 L 43.0 62.9 L 46.2 63.6 L 49.3 64.5 L 52.1 65.5 L 54.8 66.7 L 57.3 68.1 L 59.7 69.6 L 61.8 71.4 L 63.1 75.8 L 61.0 79.8 L 56.6 81.1 L 52.5 79.0 L 51.8 77.6 Z M 16.7 64.9 L 15.3 60.5 L 17.4 56.4 L 19.4 55.1 L 21.2 53.6 L 22.8 51.8 L 24.3 49.9 L 25.7 47.6 L 26.8 45.1 L 27.8 42.2 L 28.0 41.4 L 28.0 37.9 L 28.788571453094484 37.9 L 29.2 35.5 L 29.2 31.8 L 31.0 31.5 L 31.8 35.3 L 32.43243246078491 37.9 L 94.0 37.9 L 94.0 12.9 L 106.0 14.9 L 109.0 16.9 L 106.0 18.7 L 106.0 37.9 L 171.0 37.9 L 171.60983610153198 37.39180326461792 L 172.0 36.5 L 172.37275743484497 36.75603542327881 L 177.0 32.9 L 188.0 41.9 L 183.0 44.9 L 177.85714282989503 47.04285717010498 L 176.9 48.0 L 174.9 49.8 L 172.7 51.8 L 170.3 54.0 L 167.6 56.3 L 164.8 58.7 L 161.7 61.3 L 158.6 64.2 L 157.3 63.0 L 159.6 59.6 L 161.6 56.1 L 163.4 52.8 L 165.2 49.8 L 166.7 47.1 L 168.1 44.5 L 169.4 42.2 L 169.53636360168457 41.9 L 33.091891860961915 41.9 L 33.2 42.7 L 33.3 46.3 L 33.0 49.8 L 32.2 53.2 L 31.1 56.6 L 29.5 59.8 L 27.5 62.8 L 25.1 65.6 L 20.8 66.9 Z M 94.8 89.9 L 94.8 131.4 L 116.96067419052125 131.4 L 117.5 128.2 L 117.8 118.5 L 117.8 89.9 Z " />
</g>
</svg>
