<svg xmlns="http://www.w3.org/2000/svg" xmlns:xlink="http://www.w3.org/1999/xlink" version="1.1" baseProfile="full" viewBox="0 0 200 200" width="200" height="200">
<g fill="black">
<path d="M 32.0 179.0 L 48.0 179.0 L 49.2 178.9 L 50.1 178.7 L 51.0 178.4 L 51.4 178.0 L 51.7 177.1 L 51.9 176.2 L 52.0 175.0 L 52.0 74.0 L 21.0 74.0 L 21.0 70.0 L 78.0 70.0 L 88.0 60.0 L 100.0 70.0 L 100.0 74.0 L 64.0 74.0 L 64.0 175.0 L 63.8 177.5 L 63.4 180.0 L 62.6 182.4 L 61.3 184.7 L 59.7 186.7 L 57.7 188.3 L 55.4 189.6 L 53.0 190.4 L 50.5 190.8 L 48.0 191.0 L 48.0 185.0 L 32.0 182.0 Z M 120.0 110.0 L 118.8 108.1 L 116.0 104.5 L 114.4 102.6 L 112.7 100.8 L 110.8 99.0 L 108.9 97.1 L 108.45387411117554 96.80904836654663 L 106.6 98.7 L 101.4 103.4 L 96.0 107.8 L 90.2 111.8 L 84.1 115.4 L 83.0 114.0 L 87.8 108.9 L 92.3 103.9 L 96.8 98.8 L 101.0 93.6 L 105.0 88.2 L 108.9 82.7 L 112.5 77.1 L 115.9 71.2 L 119.1 65.2 L 122.0 59.0 L 122.057994556427 59.02981033325195 L 122.6 58.0 L 132.7 64.5 L 134.5 67.6 L 130.72652597427367 67.86023960113525 L 129.0 70.8 L 127.62295083999634 72.9 L 155.2 72.9 L 155.79829063415528 72.40142450332641 L 155.9 72.2 L 155.98719444274903 72.24400463104249 L 161.2 67.9 L 172.2 76.9 L 167.2 79.9 L 164.7055613517761 80.9393494606018 L 160.7 88.0 L 154.2 97.8 L 147.1 107.1 L 139.5 115.8 L 131.2 123.9 L 122.4 131.5 L 115.89399137496949 136.39699573516845 L 119.7 138.3 L 161.0 138.3 L 167.0 133.3 L 178.0 142.3 L 173.0 146.3 L 173.0 183.9 L 161.0 189.9 L 161.0 183.9 L 119.7 183.9 L 107.7 189.9 L 107.7 141.90200004577636 L 103.1 144.8 L 92.6 150.4 L 81.5 155.3 L 80.7 153.7 L 90.7 147.1 L 100.2 140.3 L 107.7 134.31685390472413 L 107.7 132.3 L 109.2448275566101 133.07241382598878 L 117.5 125.8 L 125.3 117.9 L 127.35714282989503 115.55714282989501 L 126.1 115.9 L 122.1 113.7 L 121.1 111.8 Z M 119.7 142.3 L 119.7 179.9 L 161.0 179.9 L 161.0 142.3 Z M 125.0 76.9 L 120.8 82.7 L 116.3 88.3 L 111.6 93.6 L 110.18796300888062 95.0402777671814 L 112.8 95.6 L 115.4 96.5 L 118.0 97.5 L 120.4 98.6 L 122.8 99.9 L 125.1 101.3 L 127.4 102.8 L 129.5 104.5 L 131.5 106.3 L 132.4445086479187 109.76319847106933 L 132.5 109.7 L 139.2 101.0 L 145.3 91.8 L 150.8 82.3 L 153.52673263549804 76.9 Z M 17.6 63.5 L 17.1 58.9 L 19.9 55.3 L 21.8 54.5 L 23.6 53.5 L 25.3 52.0 L 26.9 50.1 L 28.5 47.7 L 29.9 44.8 L 31.1 41.4 L 32.2 37.5 L 33.2 33.2 L 33.7 28.4 L 35.5 28.4 L 36.1 33.3 L 36.393478298187254 36.0 L 94.5 36.0 L 94.5 11.9 L 106.5 13.9 L 109.5 15.9 L 106.5 17.7 L 106.5 36.0 L 167.0 36.0 L 167.78648653030396 35.34459457397461 L 168.1 34.6 L 168.42006692886352 34.8166109085083 L 173.0 31.0 L 184.0 40.0 L 179.0 43.0 L 174.3241379737854 44.948275852203366 L 172.6 46.5 L 170.5 48.4 L 168.3 50.3 L 165.9 52.3 L 163.3 54.4 L 160.5 56.6 L 157.5 58.7 L 154.6 61.2 L 153.3 60.0 L 155.6 56.9 L 157.4 53.8 L 159.2 50.8 L 160.9 48.0 L 162.5 45.4 L 163.9 43.0 L 165.2 40.6 L 165.51428575515746 40.0 L 36.64772729873657 40.0 L 36.7 42.3 L 36.4 46.4 L 35.8 50.3 L 34.7 54.0 L 33.2 57.4 L 31.2 60.6 L 28.7 63.4 L 25.8 65.8 L 21.2 66.3 Z " />
</g>
</svg>
