<svg xmlns="http://www.w3.org/2000/svg" xmlns:xlink="http://www.w3.org/1999/xlink" version="1.1" baseProfile="full" viewBox="0 0 200 200" width="200" height="200">
<g fill="black">
<path d="M 160.6 82.0 L 162.7 84.9 L 158.68696222305297 85.67444591522217 L 157.5 87.9 L 155.8 91.0 L 152.0 97.4 L 150.0 100.7 L 147.8 104.0 L 145.5 107.4 L 142.9 110.9 L 142.0666666984558 112.1 L 162.2 112.1 L 172.2 102.1 L 184.2 112.1 L 184.2 116.1 L 134.5 116.1 L 134.5 141.7 L 155.7 141.7 L 165.7 131.7 L 177.7 141.7 L 177.7 145.7 L 134.5 145.7 L 134.5 182.0 L 122.5 188.0 L 122.5 145.7 L 79.3 145.7 L 79.3 141.7 L 122.5 141.7 L 122.5 116.1 L 72.8 116.1 L 72.8 112.1 L 139.31219511032106 112.1 L 140.2 109.5 L 141.3 105.4 L 142.5 101.5 L 143.7 97.8 L 144.8 94.1 L 145.9 90.6 L 146.8 87.2 L 147.8 84.0 L 148.6 80.8 L 149.15573501586914 78.71599349975585 L 149.1 78.7 L 149.35714282989503 77.96071424484253 L 149.4 77.8 L 149.4115385055542 77.80432691574097 L 149.9 76.4 Z M 33.7 72.1 L 56.7 72.1 L 62.7 67.1 L 73.7 76.1 L 68.7 80.1 L 68.7 151.1 L 56.7 157.1 L 56.7 145.1 L 33.7 145.1 L 33.7 157.1 L 21.7 163.1 L 21.7 66.1 Z M 33.7 76.1 L 33.7 141.1 L 56.7 141.1 L 56.7 76.1 Z M 105.6 101.0 L 105.1 98.2 L 104.5 95.3 L 103.8 92.5 L 102.9 89.7 L 102.0 87.0 L 100.9 84.2 L 99.8 81.3 L 98.3 78.7 L 99.7 77.6 L 101.9 79.7 L 104.4 81.8 L 106.6 84.1 L 108.7 86.6 L 110.6 89.2 L 112.4 92.0 L 114.0 94.9 L 115.5 98.0 L 116.8 101.1 L 118.0 104.4 L 117.1 108.9 L 113.4 111.5 L 108.9 110.6 L 106.3 106.9 L 106.0 103.9 Z M 81.3 71.5 L 122.5 71.5 L 122.5 49.9 L 134.5 51.9 L 137.5 53.9 L 134.5 55.7 L 134.5 71.5 L 153.7 71.5 L 163.7 61.5 L 175.7 71.5 L 175.7 75.5 L 81.3 75.5 Z M 13.3 58.3 L 13.0 53.7 L 15.9 50.2 L 17.9 49.5 L 19.8 48.5 L 21.5 47.1 L 23.2 45.4 L 24.8 43.2 L 26.2 40.5 L 27.5 37.3 L 28.7 33.7 L 29.7 29.6 L 30.1 25.1 L 31.9 25.1 L 32.4 29.7 L 32.672727298736575 32.1 L 94.0 32.1 L 94.0 9.4 L 106.0 11.4 L 109.0 13.4 L 106.0 15.2 L 106.0 32.1 L 170.0 32.1 L 170.64838705062866 31.559677410125733 L 171.1 30.6 L 171.4726674079895 30.87277717590332 L 176.0 27.1 L 187.0 36.1 L 182.0 39.1 L 176.7384614944458 41.292307662963864 L 175.2 42.6 L 173.0 44.3 L 170.7 46.1 L 168.2 48.0 L 165.6 49.9 L 162.7 51.9 L 159.6 53.9 L 156.6 56.3 L 155.3 55.0 L 157.8 52.0 L 159.8 49.0 L 161.7 46.2 L 163.5 43.5 L 165.2 41.0 L 166.7 38.6 L 168.1 36.3 L 168.2199999809265 36.1 L 32.94761905670166 36.1 L 33.0 38.3 L 32.7 42.3 L 32.0 46.1 L 30.8 49.6 L 29.1 52.9 L 27.0 56.0 L 24.4 58.7 L 21.3 61.0 L 16.8 61.2 Z " />
</g>
</svg>
