<svg xmlns="http://www.w3.org/2000/svg" xmlns:xlink="http://www.w3.org/1999/xlink" version="1.1" baseProfile="full" viewBox="0 0 200 200" width="200" height="200">
<g fill="black">
<path d="M 131.3 175.3 L 146.6 175.3 L 147.5 175.1 L 148.1 174.9 L 148.4 174.7 L 148.6 174.6 L 148.7 174.4 L 148.9 174.1 L 149.1 173.5 L 149.3 172.6 L 149.3 147.5 L 93.1 147.5 L 93.1 181.1 L 81.1 187.1 L 81.1 147.5 L 63.7 147.5 L 63.7 143.5 L 81.1 143.5 L 81.1 117.4 L 64.4 117.4 L 64.4 113.4 L 81.1 113.4 L 81.1 77.2 L 93.1 83.2 L 115.2 83.2 L 115.2 61.1 L 127.2 63.1 L 130.2 65.1 L 127.2 66.9 L 127.2 83.2 L 149.3 83.2 L 155.3 78.2 L 166.3 87.2 L 161.3 91.2 L 161.3 113.4 L 164.4777777671814 113.4 L 170.7 106.4 L 178.7 113.4 L 178.7 117.4 L 161.3 117.4 L 161.3 143.5 L 164.4777777671814 143.5 L 170.7 136.5 L 178.7 143.5 L 178.7 147.5 L 161.3 147.5 L 161.3 171.3 L 161.2 173.9 L 160.7 176.4 L 159.9 178.8 L 158.7 181.0 L 157.1 183.1 L 155.1 184.7 L 152.8 185.9 L 150.4 186.7 L 147.9 187.2 L 145.3 187.3 L 145.3 181.3 L 131.3 178.3 Z M 72.2 68.6 L 73.9 71.9 L 70.12990779876709 71.96389989852905 L 67.4 76.4 L 62.3 83.9 L 57.0 91.2 L 51.4 98.4 L 45.61213388442993 105.38535566329956 L 51.1 106.3 L 54.1 108.3 L 51.1 110.1 L 51.1 181.2 L 39.1 187.2 L 39.1 112.51904764175416 L 33.2 118.7 L 26.6 125.0 L 19.7 131.0 L 12.4 136.7 L 11.2 135.4 L 17.0 128.3 L 22.7 121.3 L 28.3 114.3 L 33.7 107.3 L 38.9 100.1 L 43.9 92.9 L 48.7 85.5 L 53.3 78.1 L 57.6 70.5 L 61.35090055465698 63.62334890365601 L 61.3 63.6 L 62.3 61.8 Z M 93.1 117.4 L 93.1 143.5 L 115.2 143.5 L 115.2 117.4 Z M 127.2 117.4 L 127.2 143.5 L 149.3 143.5 L 149.3 117.4 Z M 93.1 87.2 L 93.1 113.4 L 115.2 113.4 L 115.2 87.2 Z M 127.2 87.2 L 127.2 113.4 L 149.3 113.4 L 149.3 87.2 Z M 13.4 72.3 L 12.7 67.8 L 15.3 64.0 L 17.3 63.0 L 19.2 61.5 L 21.1 59.6 L 22.9 57.1 L 24.5 54.1 L 26.0 50.6 L 27.3 46.4 L 28.4 41.8 L 29.4 36.6 L 30.1 30.9 L 31.9 30.9 L 32.6 36.7 L 33.00363636016846 40.4 L 94.0 40.4 L 94.0 11.9 L 106.0 13.9 L 109.0 15.9 L 106.0 17.7 L 106.0 40.4 L 170.0 40.4 L 170.5310344696045 39.95747127532959 L 170.8 39.3 L 171.1019165992737 39.481736183166504 L 176.0 35.4 L 187.0 44.4 L 182.0 47.4 L 178.08888893127443 49.02962961196899 L 177.6 49.6 L 175.5 51.7 L 173.4 54.0 L 171.0 56.4 L 168.5 58.8 L 165.8 61.4 L 162.9 64.0 L 159.7 66.7 L 156.6 69.6 L 155.3 68.5 L 157.6 64.9 L 159.5 61.3 L 161.4 57.9 L 163.2 54.7 L 164.9 51.7 L 166.4 48.9 L 167.7 46.3 L 168.6119999885559 44.4 L 33.2 44.4 L 33.2 47.3 L 32.9 52.1 L 32.2 56.6 L 31.0 60.8 L 29.4 64.7 L 27.4 68.3 L 24.8 71.5 L 21.7 74.2 L 17.2 74.9 Z " />
</g>
</svg>
