<svg xmlns="http://www.w3.org/2000/svg" xmlns:xlink="http://www.w3.org/1999/xlink" version="1.1" baseProfile="full" viewBox="0 0 200 200" width="200" height="200">
<g fill="black">
<path d="M 48.0 135.8 L 152.0 135.8 L 158.0 130.8 L 169.0 139.8 L 164.0 143.8 L 164.0 180.0 L 152.0 186.0 L 152.0 176.0 L 48.0 176.0 L 48.0 183.0 L 36.0 189.0 L 36.0 129.8 Z M 48.0 139.8 L 48.0 172.0 L 152.0 172.0 L 152.0 139.8 Z M 134.4 121.1 L 118.7 115.0 L 104.4 108.2 L 101.41702384948731 106.42441892623901 L 100.6 106.9 L 86.0 113.6 L 70.3 119.2 L 53.4 123.8 L 35.3 127.1 L 16.1 129.3 L 15.8 127.5 L 34.6 123.4 L 52.0 118.6 L 68.1 113.0 L 83.0 106.7 L 92.95780591964721 101.38917016983032 L 91.8 100.7 L 80.8 92.5 L 71.5 83.5 L 63.9 73.9 L 58.2 63.6 L 54.5 52.7 L 56.1 52.0 L 61.8 61.5 L 68.6 70.3 L 76.6 78.4 L 86.0 85.9 L 96.7 92.8 L 102.31041669845581 95.67362804412842 L 108.8 91.4 L 119.8 82.6 L 129.5 72.9 L 138.0 62.4 L 145.3 51.0 L 145.32172079086303 51.013074684143064 L 145.8 50.2 L 155.6 57.2 L 157.1 60.5 L 153.28181819915773 60.5 L 147.1 69.3 L 137.3 80.3 L 126.3 90.2 L 114.0 99.1 L 111.92468214035034 100.30802087783813 L 122.8 104.8 L 138.1 109.9 L 154.9 114.4 L 173.3 118.3 L 182.4 120.1 L 170.6 131.2 L 151.8 126.5 Z M 32.9 44.9 L 32.5 50.0 L 31.8 54.7 L 30.7 59.1 L 29.2 63.2 L 27.1 66.9 L 24.6 70.3 L 21.6 73.2 L 17.1 74.0 L 13.2 71.5 L 12.4 67.1 L 14.9 63.2 L 16.8 62.1 L 18.8 60.5 L 20.6 58.3 L 22.4 55.6 L 24.0 52.4 L 25.5 48.5 L 26.8 44.1 L 27.9 39.1 L 28.9 33.6 L 29.6 27.5 L 31.4 27.5 L 32.2 33.6 L 32.62711868286133 37.8 L 93.5 37.8 L 93.5 11.3 L 105.5 13.3 L 108.5 15.3 L 105.5 17.1 L 105.5 37.8 L 169.3 37.8 L 169.9551724433899 37.25402297973633 L 170.1 36.9 L 170.26774196624757 36.99354839324951 L 175.3 32.8 L 186.3 41.8 L 181.3 44.8 L 177.6403314590454 46.32486190795898 L 175.1 49.4 L 172.9 51.8 L 170.6 54.4 L 168.1 57.0 L 165.4 59.8 L 162.6 62.6 L 159.4 65.5 L 156.3 68.6 L 154.9 67.5 L 157.1 63.8 L 159.0 60.0 L 160.9 56.4 L 162.6 53.1 L 164.2 49.9 L 165.7 47.0 L 167.0 44.2 L 168.0666666984558 41.8 L 32.84259262084961 41.8 Z " />
</g>
</svg>
