<svg xmlns="http://www.w3.org/2000/svg" xmlns:xlink="http://www.w3.org/1999/xlink" version="1.1" baseProfile="full" viewBox="0 0 200 200" width="200" height="200">
<g fill="black">
<path d="M 155.0 171.6 L 145.9 165.8 L 137.6 159.5 L 130.2 152.8 L 123.5 145.6 L 117.8 138.0 L 113.0 129.9 L 109.1 121.3 L 106.75714282989502 113.28021974563599 L 102.5 115.9 L 97.7 118.8 L 92.2 121.5 L 87.07330169677735 123.69715642929077 L 91.8 126.7 L 99.2 132.1 L 105.4 137.7 L 110.4 143.3 L 114.4 149.0 L 117.1 154.8 L 118.6 160.9 L 118.7 167.1 L 117.3 173.1 L 114.5 179.0 L 113.1 181.0 L 111.4 182.8 L 109.6 184.4 L 107.7 185.9 L 105.7 187.1 L 103.5 188.1 L 101.2 188.9 L 98.8 189.4 L 96.4 189.8 L 94.0 189.9 L 94.0 183.9 L 74.0 180.9 L 74.0 177.9 L 94.0 177.9 L 95.4 177.8 L 96.7 177.6 L 97.9 177.4 L 99.0 177.0 L 100.0 176.5 L 101.0 175.9 L 102.0 175.2 L 102.9 174.4 L 103.7 173.4 L 104.6 172.2 L 106.8 168.8 L 108.1 165.4 L 108.6 161.6 L 108.2 157.5 L 107.41881837844849 154.87746171951295 L 104.7 156.4 L 96.8 160.3 L 88.4 163.9 L 79.5 167.3 L 70.1 170.3 L 60.3 173.1 L 50.0 175.6 L 39.2 177.8 L 27.9 179.6 L 16.1 180.9 L 15.8 179.1 L 27.1 175.9 L 37.9 172.6 L 48.2 169.3 L 58.0 165.9 L 67.3 162.3 L 76.0 158.6 L 84.2 154.7 L 91.9 150.7 L 99.1 146.5 L 102.09754095077514 144.5016393661499 L 100.4 142.0 L 97.79958572387696 138.81581916809083 L 92.5 141.3 L 85.7 144.1 L 78.4 146.8 L 70.8 149.3 L 62.8 151.7 L 54.3 153.9 L 45.4 155.9 L 36.1 157.7 L 26.3 159.1 L 16.1 160.3 L 15.8 158.5 L 25.5 155.4 L 34.8 152.4 L 43.7 149.5 L 52.1 146.6 L 60.1 143.6 L 67.6 140.6 L 74.7 137.5 L 81.3 134.3 L 87.4 131.1 L 89.59617652893067 129.80582456588746 L 89.4 129.6 L 84.34479637145996 124.75542984008788 L 78.9 126.7 L 71.1 129.1 L 62.5 131.5 L 53.2 133.8 L 43.0 136.0 L 32.0 137.9 L 20.1 139.7 L 19.8 137.9 L 31.1 134.3 L 41.6 130.8 L 51.4 127.5 L 60.2 124.3 L 68.3 121.1 L 75.5 118.0 L 81.8 115.0 L 85.21999998092652 113.1 L 42.0 113.1 L 42.0 109.1 L 137.7777777671814 109.1 L 144.0 102.1 L 152.0 109.1 L 152.0 113.1 L 109.04358978271485 113.1 L 112.9 119.5 L 118.0 126.7 L 123.5 133.6 L 129.7 139.9 L 130.50954122543334 140.6249623298645 L 132.1 139.6 L 136.5 136.8 L 140.6 134.1 L 144.6 131.6 L 148.4 129.2 L 151.9 126.8 L 155.2 124.6 L 158.3 122.4 L 161.2 120.3 L 163.04850692749022 118.86227235794067 L 163.0 118.8 L 163.05405206680297 118.85795946121216 L 163.9 118.2 L 167.15 123.25 L 171.3 127.7 L 171.5 131.2 L 167.71003522872925 129.60422534942626 L 167.1 129.9 L 163.7 131.6 L 160.0 133.2 L 156.2 134.8 L 152.1 136.5 L 147.8 138.1 L 143.3 139.7 L 138.6 141.3 L 133.5 142.7 L 132.98230657577514 142.8393790245056 L 136.4 145.9 L 143.8 151.4 L 151.9 156.5 L 160.6 161.2 L 170.1 165.5 L 180.3 169.3 L 187.1 171.9 L 175.6 181.7 L 164.9 176.9 Z M 33.0 98.2 L 32.7 102.0 L 31.9 105.7 L 30.7 109.1 L 29.1 112.4 L 26.9 115.3 L 24.3 117.9 L 21.3 120.2 L 16.7 120.4 L 13.3 117.4 L 13.0 112.8 L 16.0 109.4 L 18.0 108.7 L 19.9 107.7 L 21.6 106.5 L 23.3 104.8 L 24.8 102.7 L 26.3 100.2 L 27.6 97.2 L 28.7 93.7 L 29.7 89.8 L 30.1 85.4 L 31.9 85.4 L 32.4 89.8 L 32.667441844940186 92.1 L 132.8375 92.1 L 132.5 91.5 L 135.3 89.2 L 137.8 86.6 L 140.2 84.1 L 142.4 81.6 L 144.4 79.2 L 146.3 76.7 L 148.1 74.2 L 149.7 71.6 L 151.1 69.1 L 151.94463710784913 67.47569789886475 L 151.8 67.4 L 152.9 65.8 L 162.5 73.0 L 163.9 76.3 L 159.69362277984618 76.22747621536254 L 157.8 78.2 L 155.2 80.5 L 152.5 82.8 L 149.7 84.9 L 146.7 86.8 L 143.6 88.6 L 140.3 90.2 L 136.8 91.6 L 135.6666666984558 92.1 L 170.0 92.1 L 170.70588235855104 91.51176471710205 L 171.2 90.4 L 171.6341675758362 90.73819370269776 L 176.0 87.1 L 187.0 96.1 L 182.0 99.1 L 176.20869569778444 101.51304349899291 L 175.1 102.4 L 173.0 104.0 L 170.7 105.8 L 168.2 107.6 L 165.5 109.4 L 162.6 111.3 L 159.5 113.2 L 156.6 115.4 L 155.3 114.1 L 157.8 111.3 L 159.8 108.3 L 161.8 105.6 L 163.6 103.0 L 165.2 100.5 L 166.8 98.2 L 168.1 96.1 L 32.94878044128418 96.1 Z M 51.3 86.2 L 50.4 84.6 L 49.2 82.9 L 47.7 81.1 L 45.8 79.3 L 43.7 77.4 L 41.3 75.4 L 38.7 73.3 L 35.5 71.6 L 36.2 69.9 L 39.7 71.1 L 43.1 71.8 L 46.3 72.8 L 49.2 73.9 L 52.0 75.0 L 54.5 76.3 L 56.9 77.8 L 59.0 79.3 L 61.0 81.1 L 62.7 83.0 L 63.2 87.6 L 60.4 91.2 L 55.9 91.7 L 52.2 88.9 L 51.9 87.6 Z M 97.4 82.2 L 96.8 80.8 L 96.0 79.3 L 95.0 77.7 L 93.8 76.1 L 92.5 74.5 L 91.1 72.8 L 89.5 71.0 L 87.4 69.7 L 88.2 68.1 L 90.5 69.1 L 93.0 69.7 L 95.3 70.4 L 97.5 71.2 L 99.6 72.2 L 101.6 73.3 L 103.5 74.4 L 105.3 75.7 L 106.9 77.1 L 108.5 78.7 L 109.2 83.2 L 106.5 86.9 L 102.0 87.6 L 98.3 84.9 L 97.9 83.6 Z M 13.3 65.7 L 12.9 61.2 L 15.7 57.6 L 17.7 56.7 L 19.6 55.6 L 21.4 54.0 L 23.1 52.0 L 24.7 49.4 L 26.2 46.4 L 27.4 42.9 L 28.6 38.9 L 29.6 34.4 L 30.1 29.4 L 31.9 29.3 L 32.5 34.4 L 32.8125 37.4 L 94.0 37.4 L 94.0 12.4 L 106.0 14.4 L 109.0 16.4 L 106.0 18.2 L 106.0 37.4 L 170.0 37.4 L 170.55652170181276 36.93623189926147 L 171.0 36.0 L 171.37525081634521 36.25395765304565 L 176.0 32.4 L 187.0 41.4 L 182.0 44.4 L 177.36216220855712 46.332432460784915 L 175.3 48.1 L 173.2 50.1 L 170.9 52.1 L 169.33386602401734 53.3649543762207 L 177.4 60.0 L 177.8 63.0 L 173.23529415130616 60.65758514404297 L 167.9 61.5 L 157.4050458908081 62.802293586730954 L 156.6 63.5 L 156.0681818008423 62.96818180084229 L 154.2 63.2 L 140.4 64.7 L 126.3 66.0 L 112.0 67.0 L 97.5 67.7 L 82.8 68.3 L 67.9 68.5 L 52.8 68.4 L 37.5 67.9 L 22.695488739013673 67.1358962059021 L 21.5 68.1 L 16.9 68.6 Z M 33.04782609939575 41.4 L 33.1 43.8 L 32.8 48.1 L 32.0 52.2 L 30.9 56.0 L 29.3 59.5 L 27.2 62.8 L 25.08306007385254 65.07978143692017 L 37.4 64.2 L 52.6 63.1 L 67.6 61.9 L 82.4 60.7 L 96.9 59.3 L 111.2 57.7 L 125.2 56.0 L 139.1 54.1 L 152.7 51.9 L 163.29178247451782 50.06833839416504 L 163.4 49.9 L 165.0 47.2 L 166.6 44.6 L 167.9 42.2 L 168.33636360168458 41.4 Z " />
</g>
</svg>
