<svg xmlns="http://www.w3.org/2000/svg" xmlns:xlink="http://www.w3.org/1999/xlink" version="1.1" baseProfile="full" viewBox="0 0 200 200" width="200" height="200">
<g fill="black">
<path d="M 49.0 161.2 L 49.0 176.3 L 94.0 176.3 L 94.0 161.2 Z M 106.0 161.2 L 106.0 176.3 L 151.0 176.3 L 151.0 161.2 Z M 49.0 142.1 L 49.0 157.2 L 94.0 157.2 L 94.0 142.1 Z M 106.0 142.1 L 106.0 157.2 L 151.0 157.2 L 151.0 142.1 Z M 82.3 119.5 L 80.7 117.3 L 80.501344871521 117.06997833251953 L 76.4 118.7 L 68.8 121.4 L 61.4 123.9 L 54.3 126.2 L 47.4 128.3 L 40.8 130.3 L 34.5 132.2 L 28.5 133.9 L 22.7 135.5 L 21.14054880142212 135.92530488967896 L 19.7 139.5 L 17.2 137.0 L 12.7 125.7 L 14.7 125.3 L 20.3 124.4 L 26.1 123.4 L 29.0 122.93225803375245 L 29.0 86.6 L 39.937864112854 92.068932056427 L 41.1 91.7 L 47.1 89.8 L 52.9 88.2 L 58.4 86.6 L 63.6 85.1 L 68.5 83.6 L 73.1 82.1 L 77.5 80.7 L 81.5 79.3 L 84.32348108291626 78.25977010726929 L 84.3 78.2 L 84.356365776062 78.24765472412109 L 85.3 77.9 L 85.75151767730713 79.42719221115112 L 95.3 87.5 L 95.6 90.5 L 91.49386501312256 88.59570550918579 L 88.7 89.4 L 84.5 90.3 L 80.1 91.1 L 75.5 91.9 L 70.5 92.7 L 65.3 93.4 L 59.9 94.0 L 54.1 94.6 L 48.1 95.1 L 41.7 95.4 L 41.0 95.41060609817505 L 41.0 120.89411764144897 L 45.5 120.1 L 52.5 118.8 L 59.8 117.5 L 67.5 116.2 L 75.4 115.0 L 78.27521533966065 114.6189474105835 L 76.4 112.9 L 73.6 110.6 L 70.5 108.3 L 66.9 105.9 L 63.0 103.4 L 58.6 101.1 L 59.2 99.4 L 64.1 100.7 L 68.7 101.8 L 73.0 103.1 L 77.0 104.6 L 80.7 106.3 L 84.1 108.2 L 87.2 110.2 L 90.0 112.4 L 92.5 114.8 L 94.7 117.5 L 95.2 122.0 L 92.4 125.7 L 87.9 126.2 L 84.2 123.4 L 83.5 121.5 Z M 168.6 129.2 L 166.7 130.7 L 164.7 132.0 L 162.6 133.1 L 160.4 134.0 L 158.7235915184021 134.51021127700807 L 168.0 142.1 L 163.0 146.1 L 163.0 182.3 L 151.0 188.3 L 151.0 180.3 L 49.0 180.3 L 49.0 183.3 L 37.0 189.3 L 37.0 132.1 L 49.0 138.1 L 151.0 138.1 L 154.2470588684082 135.394117641449 L 153.4 135.5 L 151.0 135.6 L 151.0 129.6 L 131.0 126.6 L 131.0 123.6 L 151.0 123.6 L 152.4 123.5 L 153.8 123.3 L 155.1 123.1 L 156.4 122.7 L 157.5 122.2 L 158.7 121.6 L 159.7 120.9 L 160.8 120.1 L 161.8 119.2 L 162.8 118.1 L 163.2 117.4 L 163.8 116.3 L 164.4 114.6 L 164.9 112.4 L 165.4 109.7 L 165.7 106.5 L 166.0 102.9 L 166.09094734191893 99.26210527420044 L 166.0 99.3 L 166.0 91.3 L 138.6129870414734 91.3 L 137.2 97.7 L 134.5 104.9 L 130.7 111.4 L 125.9 117.2 L 120.2 122.4 L 113.7 126.8 L 106.3 130.6 L 98.1 133.7 L 89.0 136.0 L 79.1 137.6 L 78.8 135.8 L 87.9 132.4 L 96.1 128.7 L 103.3 124.8 L 109.5 120.5 L 114.7 116.0 L 118.9 111.2 L 122.1 106.1 L 124.6 100.7 L 126.2 94.9 L 126.65 91.3 L 101.0 91.3 L 101.0 87.3 L 166.0 87.3 L 172.0 82.3 L 183.0 91.3 L 178.1 94.23999996185303 L 178.1 99.0 L 178.0 103.5 L 177.7 107.6 L 177.3 111.3 L 176.7 114.8 L 175.9 117.9 L 174.9 120.8 L 173.6 123.4 L 172.0 125.8 L 170.3 127.6 Z M 13.3 61.8 L 12.9 57.2 L 15.8 53.7 L 17.8 52.9 L 19.6 51.8 L 21.4 50.3 L 23.1 48.3 L 24.7 45.9 L 26.2 43.0 L 27.5 39.6 L 28.6 35.7 L 29.6 31.4 L 30.1 26.6 L 31.9 26.5 L 32.5 31.5 L 32.79347829818725 34.2 L 94.0 34.2 L 94.0 10.0 L 106.0 12.0 L 109.0 14.0 L 106.0 15.8 L 106.0 34.2 L 170.0 34.2 L 170.6 33.7 L 171.0 32.8 L 171.37029705047607 33.05808582305908 L 176.0 29.2 L 187.0 38.2 L 182.0 41.2 L 177.17931032180786 43.208620643615724 L 175.3 44.9 L 173.1 46.7 L 170.8 48.7 L 168.3 50.7 L 165.6 52.8 L 162.7 54.9 L 159.9390625 56.859375 L 161.5 57.9 L 158.5 59.7 L 158.5 70.1 L 146.5 76.1 L 146.5 70.1 L 106.0 70.1 L 106.0 80.0 L 94.0 86.0 L 94.0 70.1 L 53.4 70.1 L 41.4 76.1 L 41.4 53.9 L 53.4 55.9 L 56.4 57.9 L 53.4 59.7 L 53.4 66.1 L 94.0 66.1 L 94.0 50.5 L 106.0 52.5 L 109.0 54.5 L 106.0 56.3 L 106.0 66.1 L 146.5 66.1 L 146.5 53.9 L 157.37058820724488 55.71176471710205 L 157.7 55.3 L 159.7 52.1 L 161.6 49.1 L 163.4 46.3 L 165.1 43.7 L 166.6 41.2 L 168.0 38.8 L 168.32727270126344 38.2 L 33.046666622161865 38.2 L 33.1 40.6 L 32.7 44.7 L 32.0 48.7 L 30.8 52.4 L 29.2 55.9 L 27.1 59.0 L 24.5 61.9 L 21.4 64.3 L 16.9 64.7 Z " />
</g>
</svg>
