<svg xmlns="http://www.w3.org/2000/svg" xmlns:xlink="http://www.w3.org/1999/xlink" version="1.1" baseProfile="full" viewBox="0 0 200 200" width="200" height="200">
<g fill="black">
<path d="M 62.0 17.4 L 63.8 20.5 L 59.72742347717285 20.921300983428956 L 58.3 23.1 L 56.2 26.0 L 54.0 28.9 L 51.7 31.8 L 49.2 34.7 L 46.6 37.6 L 43.7 40.6 L 40.7 43.5 L 40.2 44.0 L 68.0 44.0 L 74.0 39.0 L 85.0 48.0 L 80.0 52.0 L 80.0 92.0 L 68.0 98.0 L 68.0 86.0 L 31.0 86.0 L 31.0 113.0 L 71.0 113.0 L 77.0 108.0 L 88.0 117.0 L 83.0 121.0 L 83.0 166.0 L 71.0 172.0 L 71.0 160.0 L 31.0 160.0 L 31.0 172.0 L 19.0 178.0 L 19.0 38.0 L 31.0 44.0 L 36.99459457397461 44.0 L 38.3 41.7 L 40.1 38.0 L 41.8 34.4 L 43.4 30.9 L 45.0 27.6 L 46.5 24.3 L 47.8 21.2 L 49.0 18.1 L 50.1 15.2 L 50.779469871520995 13.22953748703003 L 50.7 13.2 L 51.08360652923584 12.347540950775146 L 51.1 12.3 L 51.10413036346436 12.301932525634765 L 51.6 11.2 Z M 87.9 171.7 L 99.8 171.7 L 99.8 95.4 L 110.8 100.9 L 167.1 100.9 L 172.6 95.9 L 183.1 104.9 L 178.1 108.4 L 178.1 171.7 L 179.5 171.7 L 184.0 165.7 L 190.0 171.7 L 190.0 175.7 L 87.9 175.7 Z M 110.8 104.9 L 110.8 171.7 L 122.9 171.7 L 122.9 104.9 Z M 132.9 104.9 L 132.9 171.7 L 145.0 171.7 L 145.0 104.9 Z M 155.0 104.9 L 155.0 171.7 L 167.1 171.7 L 167.1 104.9 Z M 31.0 117.0 L 31.0 156.0 L 71.0 156.0 L 71.0 117.0 Z M 88.3 83.8 L 86.2 79.8 L 87.5 75.4 L 88.6 74.3 L 89.9 72.6 L 91.1 70.2 L 92.4 67.1 L 93.5 63.5 L 94.5 59.2 L 95.5 54.4 L 96.4 49.0 L 97.3 43.1 L 98.0 36.7 L 99.8 36.6 L 100.7 43.1 L 101.15245904922486 47.7 L 133.0 47.7 L 133.0 15.5 L 145.0 17.5 L 148.0 19.5 L 145.0 21.3 L 145.0 47.7 L 177.0 47.7 L 183.0 42.7 L 194.0 51.7 L 189.0 54.7 L 186.6631579399109 55.673684215545656 L 186.4 56.2 L 185.0 58.7 L 183.5 61.4 L 182.0 64.2 L 180.3 67.1 L 178.4 70.1 L 176.5 73.3 L 174.3 76.5 L 172.3 80.0 L 170.6 79.3 L 171.8 75.4 L 172.5 71.6 L 173.3 68.0 L 174.1 64.6 L 174.8 61.4 L 175.5 58.4 L 176.0 55.5 L 176.5 52.8 L 176.7199999809265 51.7 L 101.43392858505248 51.7 L 101.6 54.8 L 101.7 60.0 L 101.6 64.7 L 101.2 69.1 L 100.6 73.1 L 99.7 76.7 L 98.4 80.0 L 96.8 83.0 L 92.7 85.1 Z M 31.0 48.0 L 31.0 82.0 L 68.0 82.0 L 68.0 48.0 Z " />
</g>
</svg>
