<svg xmlns="http://www.w3.org/2000/svg" xmlns:xlink="http://www.w3.org/1999/xlink" version="1.1" baseProfile="full" viewBox="0 0 200 200" width="200" height="200">
<g fill="black">
<path d="M 137.5 178.7 L 157.5 178.7 L 158.7 178.6 L 159.6 178.5 L 160.2 178.3 L 160.8 178.0 L 161.1 177.4 L 161.3 176.9 L 161.4 175.9 L 161.5 174.7 L 161.5 70.2 L 173.5 72.2 L 176.5 74.2 L 173.5 76.0 L 173.5 174.7 L 173.4 177.3 L 172.9 179.8 L 172.1 182.2 L 170.9 184.4 L 169.2 186.5 L 167.2 188.1 L 165.0 189.3 L 162.5 190.1 L 160.1 190.6 L 157.5 190.7 L 157.5 184.7 L 137.5 181.7 Z M 54.5 164.4 L 55.9 167.7 L 51.81766700744629 167.488844871521 L 49.2 170.2 L 46.2 172.9 L 42.9 175.6 L 39.3 178.2 L 35.5 180.7 L 31.4 183.1 L 27.1 185.4 L 22.4 187.5 L 17.5 189.6 L 16.5 188.0 L 20.6 184.7 L 24.3 181.3 L 27.8 178.1 L 31.1 175.0 L 34.0 172.0 L 36.7 169.0 L 39.1 166.1 L 41.2 163.2 L 43.0 160.4 L 44.094469451904295 158.55308284759522 L 44.0 158.5 L 45.1 157.0 Z M 85.8 176.4 L 84.6 174.5 L 83.1 172.6 L 81.3 170.6 L 79.3 168.5 L 77.0 166.4 L 74.5 164.3 L 71.8 162.0 L 68.7 160.1 L 69.5 158.5 L 73.0 159.7 L 76.5 160.7 L 79.8 161.8 L 82.9 163.1 L 85.8 164.5 L 88.5 166.0 L 91.1 167.7 L 93.5 169.5 L 95.6 171.4 L 97.6 173.5 L 98.4 178.0 L 95.9 181.8 L 91.4 182.6 L 87.6 180.1 L 86.8 178.3 Z M 131.5 82.4 L 134.5 84.4 L 131.5 86.2 L 131.5 161.3 L 119.5 167.3 L 119.5 80.4 Z M 39.1 75.6 L 81.2 75.6 L 87.2 70.6 L 98.2 79.6 L 93.2 83.6 L 93.2 153.3 L 81.2 159.3 L 81.2 153.3 L 39.1 153.3 L 39.1 156.3 L 27.1 162.3 L 27.1 69.6 Z M 39.1 127.7 L 39.1 149.3 L 81.2 149.3 L 81.2 127.7 Z M 39.1 103.7 L 39.1 123.7 L 81.2 123.7 L 81.2 103.7 Z M 39.1 79.6 L 39.1 99.7 L 81.2 99.7 L 81.2 79.6 Z M 13.4 72.3 L 12.7 67.8 L 15.3 64.0 L 17.3 63.0 L 19.2 61.5 L 21.1 59.6 L 22.9 57.1 L 24.5 54.1 L 26.0 50.6 L 27.3 46.4 L 28.4 41.8 L 29.4 36.6 L 30.1 30.9 L 31.9 30.9 L 32.6 36.7 L 33.00363636016846 40.4 L 94.0 40.4 L 94.0 11.9 L 106.0 13.9 L 109.0 15.9 L 106.0 17.7 L 106.0 40.4 L 170.0 40.4 L 170.5310344696045 39.95747127532959 L 170.8 39.3 L 171.1019165992737 39.481736183166504 L 176.0 35.4 L 187.0 44.4 L 182.0 47.4 L 178.08888893127443 49.02962961196899 L 177.6 49.6 L 175.5 51.7 L 173.4 54.0 L 171.0 56.4 L 168.5 58.8 L 165.8 61.4 L 162.9 64.0 L 159.7 66.7 L 156.6 69.6 L 155.3 68.5 L 157.6 64.9 L 159.5 61.3 L 161.4 57.9 L 163.2 54.7 L 164.9 51.7 L 166.4 48.9 L 167.7 46.3 L 168.6119999885559 44.4 L 33.2 44.4 L 33.2 47.3 L 32.9 52.1 L 32.2 56.6 L 31.0 60.8 L 29.4 64.7 L 27.4 68.3 L 24.8 71.5 L 21.7 74.2 L 17.2 74.9 Z " />
</g>
</svg>
