<svg xmlns="http://www.w3.org/2000/svg" xmlns:xlink="http://www.w3.org/1999/xlink" version="1.1" baseProfile="full" viewBox="0 0 200 200" width="200" height="200">
<g fill="black">
<path d="M 162.8 147.7 L 164.8 147.7 L 162.8 172.7 L 166.4 175.1 L 168.8 178.7 L 166.4 182.3 L 162.8 184.7 L 64.7 184.7 L 62.1 184.5 L 59.6 184.1 L 57.2 183.3 L 54.9 182.1 L 52.9 180.4 L 51.3 178.4 L 50.0 176.1 L 49.2 173.7 L 48.8 171.2 L 48.7 168.7 L 48.7 124.1 L 60.7 126.1 L 63.7 128.1 L 60.7 129.9 L 60.7 150.68965520858765 L 63.2 150.0 L 71.8 147.8 L 80.4 145.8 L 88.9 143.8 L 97.4 141.9 L 114.2 138.1 L 122.5 136.2 L 130.8 134.4 L 138.10221347808837 132.70802373886107 L 138.1 132.7 L 138.10801525115966 132.70667934417725 L 139.0 132.5 L 139.2210792541504 133.63423271179198 L 150.1 142.7 L 150.5 145.6 L 146.0082417488098 143.44395608901976 L 141.3 144.3 L 132.9 145.6 L 124.5 146.8 L 116.0 148.0 L 90.2 151.3 L 72.6 153.1 L 63.8 153.7 L 60.7 153.87222223281861 L 60.7 169.9 L 60.9 170.8 L 61.2 171.7 L 61.6 172.1 L 61.9 172.3 L 62.5 172.4 L 63.4 172.6 L 64.7 172.7 L 156.8 172.7 Z M 15.1 132.9 L 15.5 128.3 L 18.9 125.3 L 20.8 125.0 L 22.4 124.6 L 23.9 124.0 L 25.3 123.3 L 26.7 122.3 L 27.9 121.0 L 29.1 119.4 L 30.1 117.4 L 31.1 115.0 L 31.3 112.2 L 33.0 112.1 L 33.3 115.0 L 33.38620691299438 115.5 L 91.0 115.5 L 91.0 101.5 L 103.0 103.5 L 106.0 105.5 L 103.0 107.3 L 103.0 115.5 L 162.4 115.5 L 163.2470588684082 114.79411764144898 L 163.6 114.3 L 164.4 113.1 L 164.77687368392944 113.51927194595336 L 168.4 110.5 L 179.4 119.5 L 174.4 122.5 L 162.4 127.5 L 162.4 126.66086959838867 L 160.7 127.4 L 158.2 128.4 L 155.6 129.4 L 152.8 130.4 L 150.1 131.8 L 149.1 130.3 L 151.5 128.4 L 153.5 126.2 L 155.4 124.2 L 157.1 122.3 L 158.7 120.5 L 159.58235292434694 119.5 L 33.85714282989502 119.5 L 33.9 120.7 L 33.6 123.4 L 32.9 126.1 L 31.7 128.6 L 30.0 131.0 L 28.0 133.2 L 25.5 135.0 L 22.8 136.6 L 18.2 136.3 Z M 154.8 94.3 L 145.1 88.7 L 136.4 82.5 L 135.75567464828492 81.91502046585083 L 132.3 84.4 L 122.6 90.0 L 112.2 94.7 L 101.0 98.5 L 89.2 101.3 L 88.7 99.6 L 99.7 94.9 L 109.9 89.8 L 119.3 84.3 L 127.9 78.2 L 129.84812459945678 76.55158681869507 L 128.8 75.6 L 122.3 68.1 L 116.9 59.9 L 112.8 51.2 L 109.8 41.9 L 108.59081630706787 34.0 L 86.0 34.0 L 86.0 97.5 L 74.0 103.5 L 74.0 80.93880596160889 L 73.4 81.1 L 66.8 82.7 L 60.3 84.1 L 53.9 85.5 L 47.5 86.7 L 41.2 88.0 L 28.8 90.4 L 22.8 91.6 L 20.841022777557374 91.95914583206176 L 19.2 95.4 L 16.8 92.7 L 13.1 81.2 L 15.1 80.9 L 21.2 80.3 L 31.0 79.50967741012573 L 31.0 25.0 L 14.0 25.0 L 14.0 21.0 L 96.81818180084228 21.0 L 105.0 12.0 L 115.0 21.0 L 115.0 25.0 L 86.0 25.0 L 86.0 30.0 L 163.0 30.0 L 169.0 25.0 L 180.0 34.0 L 175.0 37.0 L 172.6232416152954 37.990316009521486 L 169.4 44.5 L 163.5 54.1 L 156.9 62.9 L 149.4 70.8 L 144.2338843345642 75.33610162734985 L 150.7 79.2 L 159.8 83.6 L 169.8 87.4 L 180.8 90.6 L 188.8 92.9 L 177.1 103.3 L 165.5 99.1 Z M 43.0 64.0 L 43.0 78.565625 L 46.4 78.3 L 52.9 77.9 L 59.5 77.6 L 66.2 77.4 L 73.0 77.4 L 74.0 77.42941179275513 L 74.0 64.0 Z M 110.99318180084228 34.0 L 113.8 40.5 L 118.1 48.6 L 123.0 56.0 L 128.7 62.7 L 135.2 68.8 L 137.0598726272583 70.20127391815186 L 142.7 64.4 L 149.0 56.6 L 154.5 48.3 L 159.3 39.3 L 161.56354169845582 34.0 Z M 43.0 43.5 L 43.0 60.0 L 74.0 60.0 L 74.0 43.5 Z M 43.0 25.0 L 43.0 39.5 L 74.0 39.5 L 74.0 25.0 Z " />
</g>
</svg>
