<svg xmlns="http://www.w3.org/2000/svg" xmlns:xlink="http://www.w3.org/1999/xlink" version="1.1" baseProfile="full" viewBox="0 0 200 200" width="200" height="200">
<g fill="black">
<path d="M 14.6 176.2 L 46.6 176.2 L 46.6 133.9 L 58.6 135.9 L 61.6 137.9 L 58.6 139.7 L 58.6 176.2 L 96.3 176.2 L 96.3 115.2 L 108.3 117.2 L 111.3 119.2 L 108.3 121.0 L 108.3 142.7 L 147.6 142.7 L 157.6 132.7 L 169.6 142.7 L 169.6 146.7 L 108.3 146.7 L 108.3 176.2 L 160.3 176.2 L 170.3 166.2 L 182.3 176.2 L 182.3 180.2 L 14.6 180.2 Z M 28.7 108.5 L 95.0 108.5 L 95.0 84.8 L 41.3 84.8 L 41.3 80.8 L 95.0 80.8 L 95.0 63.18974361419678 L 84.8 63.8 L 72.6 64.4 L 60.1 64.8 L 47.1 64.9 L 33.8 64.8 L 33.7 63.0 L 46.9 61.2 L 59.6 59.5 L 72.0 57.9 L 84.0 56.3 L 95.6 54.7 L 106.8 53.0 L 117.7 51.3 L 128.1 49.6 L 138.1 47.8 L 147.7 45.9 L 147.9026502609253 47.09563674926758 L 156.5477321624756 54.25263071060181 L 157.8 52.8 L 159.8 49.7 L 161.7 46.8 L 163.5 44.1 L 165.2 41.6 L 166.7 39.2 L 168.0 36.9 L 168.1714285850525 36.6 L 33.0 36.6 L 33.0 38.8 L 32.7 42.8 L 32.0 46.7 L 30.8 50.2 L 29.2 53.6 L 27.0 56.7 L 24.4 59.4 L 21.3 61.7 L 16.8 62.0 L 13.3 59.1 L 13.0 54.5 L 15.9 51.0 L 17.9 50.3 L 19.7 49.2 L 21.5 47.8 L 23.2 46.0 L 24.8 43.8 L 26.2 41.1 L 27.5 37.9 L 28.6 34.2 L 29.6 30.0 L 30.1 25.4 L 31.9 25.4 L 32.4 30.1 L 32.73333330154419 32.6 L 94.0 32.6 L 94.0 9.5 L 106.0 11.5 L 109.0 13.5 L 106.0 15.3 L 106.0 32.6 L 170.0 32.6 L 170.61764707565308 32.08529415130615 L 171.1 31.0 L 171.5336968421936 31.32191934585571 L 176.0 27.6 L 187.0 36.6 L 182.0 39.6 L 176.7384614944458 41.792307662963864 L 175.2 43.1 L 173.1 44.8 L 170.7 46.7 L 168.2 48.6 L 165.6 50.6 L 162.7 52.6 L 159.6 54.6 L 158.26112785339356 55.671097660064696 L 158.9 56.2 L 159.3 59.1 L 154.87238693237305 56.85667600631714 L 149.7 57.7 L 139.8 59.0 L 129.6 60.2 L 118.9 61.3 L 107.9 62.3 L 107.0 62.36315793991089 L 107.0 80.8 L 138.6 80.8 L 148.6 70.8 L 160.6 80.8 L 160.6 84.8 L 107.0 84.8 L 107.0 108.5 L 151.2 108.5 L 161.2 98.5 L 173.2 108.5 L 173.2 112.5 L 28.7 112.5 Z " />
</g>
</svg>
