<svg xmlns="http://www.w3.org/2000/svg" xmlns:xlink="http://www.w3.org/1999/xlink" version="1.1" baseProfile="full" viewBox="0 0 200 200" width="200" height="200">
<g fill="black">
<path d="M 72.0 179.9 L 92.0 179.9 L 93.2 179.8 L 94.1 179.7 L 94.7 179.5 L 95.0 179.3 L 95.2 179.1 L 95.4 179.0 L 95.5 178.6 L 95.7 178.0 L 95.9 177.1 L 96.0 175.9 L 96.0 119.1 L 20.3 119.1 L 20.3 115.1 L 165.037931060791 115.1 L 167.1 112.8 L 167.53354835510254 113.23870964050293 L 171.3 110.1 L 182.3 119.1 L 177.3 122.1 L 171.84765100479126 124.37181205749512 L 168.7 126.8 L 165.0 129.6 L 161.0 132.4 L 156.8 135.2 L 152.4 138.0 L 147.7 140.9 L 142.7 143.7 L 137.5 146.3 L 131.9 148.9 L 130.9 147.4 L 135.3 143.2 L 139.7 139.3 L 143.8 135.5 L 147.8 132.0 L 151.6 128.5 L 155.1 125.2 L 158.5 121.9 L 161.3 119.1 L 108.0 119.1 L 108.0 175.9 L 107.8 178.5 L 107.4 180.9 L 106.6 183.4 L 105.3 185.6 L 103.7 187.6 L 101.7 189.3 L 99.4 190.5 L 97.0 191.3 L 94.5 191.8 L 92.0 191.9 L 92.0 185.9 L 72.0 182.9 Z M 101.0 107.3 L 97.5 104.3 L 93.6 101.4 L 89.4 98.5 L 84.9 95.7 L 80.1 92.9 L 74.9 90.1 L 69.4 87.2 L 63.7 84.2 L 64.2 82.5 L 70.7 83.6 L 76.9 85.1 L 82.7 86.9 L 88.2 88.9 L 93.5 91.1 L 98.4 93.4 L 103.1 96.0 L 105.74583835601807 97.62358264923095 L 108.1 95.9 L 113.5 92.1 L 118.6 88.5 L 123.5 85.1 L 128.0 81.8 L 132.2 78.7 L 136.0 75.7 L 138.23448276519775 73.9 L 37.4 73.9 L 37.4 69.9 L 142.9037036895752 69.9 L 145.6 67.3 L 146.01643686294557 67.80296926498413 L 149.5 64.9 L 160.5 73.9 L 155.5 76.9 L 148.3872727394104 79.86363639831544 L 145.9 81.5 L 141.7 84.0 L 137.2 86.5 L 132.4 89.0 L 127.3 91.6 L 121.9 94.2 L 116.1 96.8 L 109.9 99.2 L 108.75323886871338 99.61700401306152 L 111.6 101.7 L 115.4 104.8 L 117.2 109.0 L 115.5 113.3 L 111.3 115.0 L 107.0 113.3 L 104.2 110.3 Z M 33.3 45.2 L 33.4 49.1 L 33.0 53.0 L 32.3 56.7 L 31.2 60.3 L 29.6 63.8 L 27.6 67.1 L 25.3 70.1 L 21.0 71.7 L 16.8 69.9 L 15.2 65.6 L 17.0 61.4 L 19.1 59.8 L 20.9 58.0 L 22.6 55.9 L 24.2 53.6 L 25.5 50.9 L 26.7 48.0 L 27.7 44.7 L 28.0 43.35 L 28.0 40.1 L 28.653846168518065 40.1 L 29.1 37.2 L 29.2 32.9 L 31.0 32.7 L 31.9 37.0 L 32.58048782348633 40.1 L 94.0 40.1 L 94.0 12.2 L 106.0 14.2 L 109.0 16.2 L 106.0 18.0 L 106.0 40.1 L 171.0 40.1 L 171.6 39.6 L 171.8 39.0 L 172.09988803863524 39.18342666625976 L 177.0 35.1 L 188.0 44.1 L 183.0 47.1 L 178.73043479919434 48.878985500335695 L 177.1 50.6 L 175.0 52.7 L 172.8 55.0 L 170.4 57.5 L 167.8 60.1 L 164.9 62.9 L 161.8 65.8 L 158.7 69.1 L 157.2 68.0 L 159.6 64.2 L 161.5 60.3 L 163.3 56.8 L 165.0 53.5 L 166.6 50.5 L 168.0 47.7 L 169.2 45.2 L 169.72608699798585 44.1 L 33.16585369110108 44.1 Z " />
</g>
</svg>
