<svg xmlns="http://www.w3.org/2000/svg" xmlns:xlink="http://www.w3.org/1999/xlink" version="1.1" baseProfile="full" viewBox="0 0 200 200" width="200" height="200">
<g fill="black">
<path d="M 16.6 133.8 L 16.6 129.8 L 69.9 129.8 L 69.9 105.9 L 39.7 105.9 L 39.7 112.9 L 27.7 118.9 L 27.7 70.4714285850525 L 27.4 71.0 L 24.8 74.3 L 21.7 77.2 L 17.2 77.9 L 13.4 75.4 L 12.7 70.9 L 15.2 67.1 L 17.2 66.0 L 19.1 64.4 L 21.0 62.4 L 22.8 59.7 L 24.5 56.5 L 26.0 52.8 L 27.3 48.5 L 28.4 43.6 L 29.4 38.2 L 30.1 32.2 L 31.9 32.2 L 32.7 38.2 L 33.05087718963623 42.2 L 94.0 42.2 L 94.0 12.5 L 106.0 14.5 L 109.0 16.5 L 106.0 18.3 L 106.0 42.2 L 170.0 42.2 L 170.60645160675048 41.69462366104126 L 170.8 41.2 L 171.03542852401733 41.337142848968504 L 176.0 37.2 L 187.0 46.2 L 182.0 49.2 L 178.22958583831786 50.771005916595456 L 177.6 51.5 L 175.6 53.8 L 173.4 56.2 L 171.1 58.7 L 168.6 61.3 L 165.9 63.9 L 163.0 66.7 L 159.8 69.5 L 156.7 72.6 L 155.2 71.5 L 157.6 67.8 L 159.5 64.0 L 161.4 60.5 L 163.2 57.2 L 164.8 54.1 L 166.3 51.2 L 167.6 48.4 L 168.65600004196168 46.2 L 33.24259262084961 46.2 L 33.3 49.3 L 32.9 54.3 L 32.2 59.0 L 31.1 63.3 L 29.5 67.3 L 29.188888931274413 67.8481481552124 L 39.7 69.6 L 42.7 71.6 L 39.7 73.4 L 39.7 101.9 L 69.9 101.9 L 69.9 59.5 L 81.9 61.5 L 84.9 63.5 L 81.9 65.3 L 81.9 183.9 L 69.9 189.9 L 69.9 133.8 L 45.4 133.8 L 45.4 143.6 L 44.8 149.5 L 43.7 155.3 L 42.1 160.8 L 39.9 166.0 L 37.2 170.9 L 34.0 175.5 L 30.2 179.7 L 26.0 183.5 L 21.3 186.9 L 16.0 189.9 L 14.9 188.4 L 18.8 184.1 L 22.2 179.8 L 25.1 175.6 L 27.6 171.3 L 29.7 166.9 L 31.3 162.5 L 32.4 158.0 L 33.2 153.3 L 33.5 148.5 L 33.4 143.6 L 33.4 133.8 Z M 132.3 168.0 L 132.9 171.6 L 129.0111110687256 170.4888889312744 L 128.6 170.8 L 124.6 173.5 L 120.4 176.0 L 115.8 178.4 L 111.0 180.6 L 105.9 182.7 L 100.4 184.6 L 94.7 186.3 L 88.6 187.7 L 82.2 188.8 L 81.7 187.1 L 87.4 184.1 L 92.7 181.3 L 97.8 178.5 L 102.6 175.8 L 107.0 173.1 L 111.1 170.4 L 114.9 167.6 L 118.3 164.9 L 121.4 162.1 L 123.46467189788818 159.95885877609254 L 123.4 159.9 L 124.3 159.0 Z M 173.5 181.0 L 170.9 178.9 L 168.1 176.8 L 164.9 174.6 L 161.4 172.5 L 157.7 170.4 L 153.6 168.3 L 149.3 166.1 L 144.7 164.1 L 145.1 162.3 L 150.3 163.1 L 155.2 163.8 L 159.8 164.8 L 164.2 166.0 L 168.4 167.4 L 172.3 168.9 L 176.0 170.5 L 179.5 172.4 L 182.8 174.4 L 185.8 176.5 L 187.7 180.7 L 186.1 185.0 L 182.0 186.8 L 177.7 185.3 L 175.7 183.2 Z M 114.6 72.6 L 165.3 72.6 L 171.3 67.6 L 182.3 76.6 L 177.3 80.6 L 177.3 153.2 L 165.3 159.2 L 165.3 153.2 L 114.6 153.2 L 114.6 156.2 L 102.6 162.2 L 102.6 66.6 Z M 114.6 126.6 L 114.6 149.2 L 165.3 149.2 L 165.3 126.6 Z M 114.6 101.6 L 114.6 122.6 L 165.3 122.6 L 165.3 101.6 Z M 114.6 76.6 L 114.6 97.6 L 165.3 97.6 L 165.3 76.6 Z " />
</g>
</svg>
