<svg xmlns="http://www.w3.org/2000/svg" xmlns:xlink="http://www.w3.org/1999/xlink" version="1.1" baseProfile="full" viewBox="0 0 200 200" width="200" height="200">
<g fill="black">
<path d="M 155.4 183.4 L 145.4 188.4 L 145.4 136.7 L 136.5 136.7 L 136.5 169.2 L 125.5 174.7 L 125.5 133.8444444656372 L 124.4 134.7 L 119.8 134.2 L 117.0 130.6 L 117.5 126.1 L 117.575 126.0125 L 105.8 131.9 L 105.8 125.9 L 103.3 125.9 L 103.3 145.1 L 106.27777776718139 145.1 L 112.5 138.1 L 120.5 145.1 L 120.5 149.1 L 103.3 149.1 L 103.3 167.32666664123536 L 107.2 166.2 L 111.8 164.9 L 116.5 163.7 L 121.3 162.6 L 122.1 164.2 L 118.0 167.0 L 113.9 169.7 L 109.6 172.1 L 105.4 174.4 L 96.8 178.6 L 88.2 182.4 L 83.8 184.2 L 83.4787356376648 184.32701148986817 L 82.3 188.2 L 79.5 185.9 L 74.1 175.0 L 76.0 174.4 L 79.7 173.55909090042115 L 79.7 136.1 L 88.7 138.1 L 90.9 140.1 L 88.7 141.6714285850525 L 88.7 171.23636360168456 L 89.2 171.1 L 93.3 170.09777774810792 L 93.3 125.9 L 88.4 125.9 L 77.4 131.4 L 77.4 62.1 L 88.4 67.6 L 91.91111106872559 67.6 L 92.2 67.2 L 93.6 63.2 L 94.2 61.3 L 94.7 59.4 L 95.2 57.7 L 95.5 56.0 L 95.8 54.4 L 96.0 52.9 L 96.0 52.482758617401124 L 95.7 52.4 L 96.0 51.5375 L 96.0 51.5 L 96.01158180236817 51.50420227050781 L 96.5 50.1 L 107.3 55.6 L 109.5 58.5 L 104.42599725723267 59.46231088638306 L 103.7 60.3 L 102.3 61.8 L 100.8 63.2 L 99.2 64.7 L 97.5 66.0 L 95.7 67.4 L 95.38333330154418 67.6 L 105.8 67.6 L 111.8 62.6 L 122.8 71.6 L 117.8 75.6 L 117.8 90.2 L 105.8 96.2 L 105.8 90.2 L 88.4 90.2 L 88.4 101.0 L 105.8 101.0 L 111.8 96.0 L 122.8 105.0 L 117.8 109.0 L 117.8 125.75 L 118.7 124.7 L 119.7 123.2 L 120.8 121.6 L 121.7 119.8 L 122.5 117.8 L 123.2 115.7 L 123.8 113.4 L 124.3 111.0 L 124.8 108.4 L 124.6 105.7 L 126.4 105.3 L 127.1 108.0 L 128.1 110.7 L 128.19230766296386 111.0 L 170.8 111.0 L 176.8 106.0 L 187.8 115.0 L 182.8 118.0 L 179.0866141319275 119.54724407196045 L 177.5 121.5 L 176.1 123.1 L 172.9 126.3 L 171.2 127.9 L 170.96460180282594 128.09823007583617 L 181.0 136.7 L 176.0 140.2 L 176.0 160.4 L 175.8 162.8 L 175.5 165.2 L 174.8 167.4 L 173.8 169.5 L 172.4 171.5 L 170.6 173.1 L 168.6 174.4 L 166.4 175.3 L 164.1 175.7 L 161.7 175.9 L 161.7 170.4 L 155.4 168.19499998092653 Z M 47.8 158.0 L 55.8 158.0 L 56.5 157.9 L 56.9 157.8 L 57.3 157.6 L 57.4 157.5 L 57.6 157.1 L 57.8 156.5 L 58.1 155.7 L 58.2 154.5 L 58.3 153.0 L 58.3 66.9 L 40.1 66.9 L 40.1 181.2 L 28.1 187.2 L 28.1 60.17619047164917 L 27.1 61.7 L 24.5 64.6 L 21.4 67.0 L 16.9 67.4 L 13.3 64.6 L 12.9 60.0 L 15.7 56.4 L 17.7 55.6 L 19.6 54.5 L 21.4 52.9 L 23.1 51.0 L 24.7 48.5 L 26.2 45.6 L 27.5 42.1 L 28.6 38.2 L 29.6 33.8 L 30.1 28.9 L 31.9 28.8 L 32.5 33.8 L 32.80208330154419 36.7 L 94.0 36.7 L 94.0 12.2 L 106.0 14.2 L 109.0 16.2 L 106.0 18.0 L 106.0 36.7 L 170.0 36.7 L 170.56756753921508 36.22702703475952 L 171.0 35.2 L 171.4356435775757 35.50363035202027 L 176.0 31.7 L 187.0 40.7 L 182.0 43.7 L 177.003125 45.78203125 L 175.3 47.4 L 173.2 49.3 L 170.8 51.2 L 168.3 53.3 L 165.6 55.4 L 162.8 57.6 L 160.61818180084228 59.1 L 161.6 59.1 L 167.6 54.1 L 178.6 63.1 L 173.6 67.1 L 173.6 75.4333333015442 L 177.0 70.9 L 183.0 76.9 L 183.0 80.9 L 173.6 80.9 L 173.6 98.8 L 161.6 104.8 L 161.6 98.8 L 129.9 98.8 L 129.9 94.8 L 161.6 94.8 L 161.6 80.9 L 122.4 80.9 L 122.4 76.9 L 161.6 76.9 L 161.6 63.1 L 129.9 63.1 L 129.9 59.1 L 156.84838705062867 59.1 L 157.7 58.0 L 159.7 54.8 L 161.6 51.7 L 163.4 48.9 L 165.1 46.3 L 166.6 43.7 L 167.9 41.4 L 168.28181819915773 40.7 L 33.046666622161865 40.7 L 33.1 43.1 L 32.8 47.3 L 32.0 51.3 L 30.9 55.0 L 29.610344791412352 57.655172443389894 L 40.1 62.9 L 58.3 62.9 L 63.3 57.9 L 73.3 66.9 L 68.3 69.9 L 68.3 153.0 L 68.2 155.3 L 67.9 157.5 L 67.4 159.6 L 66.6 161.6 L 65.4 163.5 L 63.9 165.1 L 62.1 166.4 L 60.1 167.3 L 57.9 167.8 L 55.8 168.0 L 55.8 163.0 L 47.8 160.5 Z M 129.2148148536682 115.0 L 129.4 116.0 L 129.8 118.7 L 129.9 121.3 L 129.7 124.0 L 129.4 126.7 L 128.8931034088135 128.89655170440673 L 136.5 132.7 L 145.4 132.7 L 145.4 116.7 L 155.4 118.7 L 157.9 120.7 L 155.4 122.36666669845582 L 155.4 132.7 L 165.0 132.7 L 167.0416974067688 130.84391145706178 L 166.3 130.3 L 167.4 128.3 L 168.1 125.9 L 168.7 123.7 L 169.2 121.6 L 169.7 119.6 L 170.2 117.7 L 170.65 115.0 Z M 88.4 105.0 L 88.4 121.9 L 105.8 121.9 L 105.8 105.0 Z M 88.4 71.6 L 88.4 86.2 L 105.8 86.2 L 105.8 71.6 Z M 155.4 136.7 L 155.4 164.9 L 161.7 164.9 L 162.7 164.8 L 163.3 164.7 L 163.8 164.5 L 164.0 164.4 L 164.1 164.3 L 164.3 164.0 L 164.5 163.5 L 164.7 162.8 L 164.9 161.7 L 165.0 160.4 L 165.0 136.7 Z " />
</g>
</svg>
