<svg xmlns="http://www.w3.org/2000/svg" xmlns:xlink="http://www.w3.org/1999/xlink" version="1.1" baseProfile="full" viewBox="0 0 200 200" width="200" height="200">
<g fill="black">
<path d="M 144.4 185.3 L 131.4 182.5 L 119.3 179.1 L 108.2 175.3 L 107.00305099487305 174.78868198394775 L 105.4 175.3 L 92.6 178.5 L 78.6 181.1 L 63.5 183.2 L 47.3 184.6 L 29.9 185.3 L 29.7 183.5 L 46.8 180.8 L 62.7 177.9 L 77.3 174.7 L 90.7 171.1 L 95.41947040557861 169.578848361969 L 88.7 166.0 L 80.5 160.5 L 73.3 154.4 L 68.27910451889038 148.6 L 43.9 148.6 L 43.9 144.6 L 141.7618182182312 144.6 L 143.9 142.5 L 144.32893886566163 142.90921754837035 L 148.3 139.6 L 159.3 148.6 L 154.3 151.6 L 149.09677419662475 153.76801071166992 L 145.4 156.9 L 137.0 162.4 L 127.6 167.3 L 122.44483165740967 169.39124755859376 L 133.7 171.7 L 146.3 173.6 L 159.8 175.2 L 174.2 176.3 L 185.0 177.2 L 173.1 189.4 L 158.3 187.6 Z M 72.12340421676636 148.6 L 75.9 151.1 L 83.6 155.5 L 92.0 159.5 L 101.2 163.2 L 107.65693655014039 165.2662197113037 L 113.6 162.9 L 123.1 158.3 L 131.3 153.3 L 137.5075471878052 148.6 Z M 55.0 140.0 L 55.0 91.1 L 67.0 97.1 L 151.0 97.1 L 157.0 92.1 L 168.0 101.1 L 163.0 105.1 L 163.0 134.0 L 151.0 140.0 L 151.0 134.0 L 67.0 134.0 Z M 67.0 117.6 L 67.0 130.0 L 103.0 130.0 L 103.0 117.6 Z M 115.0 117.6 L 115.0 130.0 L 151.0 130.0 L 151.0 117.6 Z M 67.0 101.1 L 67.0 113.6 L 103.0 113.6 L 103.0 101.1 Z M 115.0 101.1 L 115.0 113.6 L 151.0 113.6 L 151.0 101.1 Z M 93.6 91.6 L 91.4 91.4 L 89.2 91.0 L 87.1 90.1 L 85.1 88.8 L 83.4 87.1 L 82.0 85.1 L 81.0 82.9 L 80.3 80.5 L 80.0 78.0 L 80.0 77.12115383148193 L 43.0 78.9 L 42.9 75.0 L 80.0 73.21634616851807 L 80.0 63.0 L 92.0 65.0 L 95.0 67.0 L 92.0 68.8 L 92.0 72.63942308425904 L 124.84542846679688 71.06031589508056 L 132.1380952835083 63.0 L 40.0 63.0 L 40.0 118.0 L 39.4 127.9 L 38.4 137.3 L 36.9 146.0 L 35.0 154.2 L 32.5 161.7 L 29.5 168.6 L 26.1 174.8 L 22.1 180.3 L 17.6 184.9 L 12.6 188.6 L 11.3 187.3 L 14.7 182.4 L 17.6 177.2 L 20.3 171.7 L 22.5 165.7 L 24.4 159.2 L 25.9 152.1 L 27.0 144.5 L 27.7 136.2 L 28.0 127.4 L 28.0 53.0 L 40.0 59.0 L 86.0 59.0 L 86.0 39.0 L 98.0 41.0 L 101.0 43.0 L 98.0 44.8 L 98.0 48.0 L 139.8181818008423 48.0 L 148.0 39.0 L 158.0 48.0 L 158.0 49.43333330154419 L 159.9 46.9 L 161.8 44.2 L 163.7 41.8 L 165.3 39.4 L 166.9 37.3 L 167.89047622680664 35.7 L 32.9 35.7 L 32.9 37.6 L 32.6 41.2 L 31.9 44.7 L 30.7 48.0 L 29.0 51.1 L 26.8 53.9 L 24.2 56.3 L 21.2 58.4 L 16.6 58.5 L 13.2 55.4 L 13.1 50.9 L 16.2 47.5 L 18.2 46.9 L 20.0 46.0 L 21.8 44.9 L 23.4 43.4 L 24.9 41.6 L 26.4 39.3 L 27.6 36.5 L 28.7 33.4 L 29.7 29.7 L 30.1 25.7 L 31.9 25.6 L 32.4 29.8 L 32.6375 31.7 L 94.0 31.7 L 94.0 11.3 L 106.0 13.3 L 109.0 15.3 L 106.0 17.1 L 106.0 31.7 L 170.0 31.7 L 170.68571424484253 31.12857141494751 L 171.3 29.9 L 171.73420190811157 30.25483169555664 L 176.0 26.7 L 187.0 35.7 L 182.0 38.7 L 175.55 41.3875 L 175.0 41.8 L 172.9 43.3 L 170.6 44.8 L 168.1 46.5 L 165.4 48.2 L 162.6 49.9 L 159.5 51.6 L 156.5 53.7 L 155.4 52.3 L 155.67692308425904 52.0 L 98.0 52.0 L 98.0 59.0 L 163.92666664123536 59.0 L 164.0 58.9 L 165.0 57.4 L 165.47013816833496 57.941551494598386 L 169.0 55.0 L 180.0 64.0 L 175.0 67.0 L 163.0 72.0 L 163.0 71.03999996185303 L 159.6 72.4 L 157.5 73.0 L 155.3 73.7 L 153.4 74.7 L 152.5 73.2 L 154.1 71.8 L 155.4 70.1 L 156.7 68.3 L 159.3 65.1 L 160.875 63.0 L 137.68947372436523 63.0 L 146.9 70.0 L 147.0 73.9 L 92.0 76.5442307472229 L 92.0 78.0 L 91.8 79.2 L 91.7 80.2 L 91.7 81.6 L 91.8 82.1 L 92.0 82.6 L 92.5 83.1 L 93.3 83.7 L 94.5 84.1 L 96.0 84.5 L 159.5 84.5 L 163.0 79.5 L 165.0 79.5 L 163.0 84.5 L 165.1 85.9 L 166.5 88.0 L 165.1 90.1 L 163.0 91.5 L 96.0 91.5 Z " />
</g>
</svg>
