<svg xmlns="http://www.w3.org/2000/svg" xmlns:xlink="http://www.w3.org/1999/xlink" version="1.1" baseProfile="full" viewBox="0 0 200 200" width="200" height="200">
<g fill="black">
<path d="M 88.3 168.1 L 86.2 164.7 L 84.42321643829345 162.1828899383545 L 79.9 164.2 L 72.6 167.2 L 65.4 169.9 L 58.5 172.4 L 51.7 174.7 L 45.1 176.9 L 38.6 178.9 L 32.4 180.8 L 26.4 182.5 L 24.617913818359376 182.991609954834 L 23.2 186.7 L 20.6 184.1 L 16.1 172.8 L 18.0 172.4 L 23.9 171.4 L 29.9 170.4 L 30.5 170.28571424484252 L 30.5 71.1 L 42.5 77.1 L 85.9 77.1 L 91.9 72.1 L 102.9 81.1 L 97.9 85.1 L 97.9 133.5 L 85.9 139.5 L 85.9 131.5 L 42.5 131.5 L 42.5 167.93999996185303 L 42.7 167.9 L 49.5 166.5 L 56.4 165.1 L 63.6 163.6 L 71.1 162.0 L 78.8 160.6 L 82.70945405960083 159.91584558486937 L 81.2 158.0 L 78.3 154.7 L 75.2 151.4 L 71.9 148.1 L 68.4 144.8 L 64.6 141.4 L 65.5 139.9 L 70.3 141.9 L 74.8 144.0 L 79.1 146.5 L 83.2 149.2 L 87.0 152.1 L 90.5 155.2 L 93.9 158.5 L 97.0 162.0 L 99.8 165.6 L 102.4 169.5 L 102.8 174.0 L 100.0 177.6 L 95.4 178.0 L 91.8 175.1 L 90.2 171.6 Z M 148.1 161.8 L 161.4 161.8 L 162.3 161.6 L 162.9 161.4 L 163.2 161.2 L 163.4 161.1 L 163.6 160.9 L 163.9 160.0 L 164.1 159.1 L 164.1 81.1 L 128.2 81.1 L 128.2 184.0 L 116.2 190.0 L 116.2 71.1 L 128.2 77.1 L 164.1 77.1 L 170.1 72.1 L 181.1 81.1 L 176.1 85.1 L 176.1 157.8 L 176.0 160.4 L 175.6 162.9 L 174.8 165.3 L 173.5 167.6 L 171.9 169.6 L 169.9 171.2 L 167.6 172.5 L 165.2 173.3 L 162.7 173.7 L 160.1 173.8 L 160.1 167.8 L 148.1 164.8 Z M 42.5 105.9 L 42.5 127.5 L 85.9 127.5 L 85.9 105.9 Z M 42.5 81.1 L 42.5 101.9 L 85.9 101.9 L 85.9 81.1 Z M 13.5 78.1 L 12.6 73.6 L 15.1 69.8 L 17.1 68.6 L 19.1 67.0 L 21.0 64.8 L 22.8 62.0 L 24.4 58.7 L 25.9 54.7 L 27.2 50.2 L 28.3 45.2 L 29.4 39.6 L 30.1 33.4 L 31.9 33.3 L 32.7 39.6 L 33.06440677642822 43.9 L 94.0 43.9 L 94.0 13.0 L 106.0 15.0 L 109.0 17.0 L 106.0 18.8 L 106.0 43.9 L 170.0 43.9 L 170.45806455612183 43.51827955245972 L 170.7 42.9 L 170.99863481521606 43.06780433654785 L 176.0 38.9 L 187.0 47.9 L 182.0 50.9 L 178.29032258987428 52.44569892883301 L 177.7 53.2 L 175.7 55.6 L 173.5 58.1 L 171.2 60.7 L 168.6 63.4 L 165.9 66.2 L 163.0 69.1 L 159.8 72.0 L 156.7 75.2 L 155.2 74.1 L 157.5 70.2 L 159.5 66.4 L 161.3 62.8 L 163.1 59.4 L 167.6 50.4 L 168.7111110687256 47.9 L 33.24285717010498 47.9 L 33.3 51.1 L 33.0 56.2 L 32.2 61.0 L 31.1 65.5 L 29.5 69.7 L 27.5 73.4 L 24.9 76.8 L 21.8 79.7 L 17.3 80.6 Z " />
</g>
</svg>
