<svg xmlns="http://www.w3.org/2000/svg" xmlns:xlink="http://www.w3.org/1999/xlink" version="1.1" baseProfile="full" viewBox="0 0 200 200" width="200" height="200">
<g fill="black">
<path d="M 46.0 89.5 L 157.0 89.5 L 167.0 79.5 L 179.0 89.5 L 179.0 93.5 L 46.0 93.5 L 46.0 123.8 L 45.4 133.2 L 44.2 142.0 L 42.4 150.2 L 40.1 157.9 L 37.1 165.0 L 33.6 171.5 L 29.4 177.3 L 24.7 182.4 L 19.4 186.7 L 13.5 190.2 L 12.4 188.7 L 16.8 183.9 L 20.7 178.9 L 24.0 173.6 L 26.9 167.9 L 29.3 161.8 L 31.2 155.2 L 32.6 148.2 L 33.5 140.6 L 34.0 132.5 L 34.0 83.5 Z M 74.4 158.1 L 156.5 158.1 L 162.5 153.1 L 173.5 162.1 L 168.5 166.1 L 168.5 181.0 L 156.5 187.0 L 156.5 181.0 L 74.4 181.0 L 62.4 187.0 L 62.4 152.1 Z M 74.4 162.1 L 74.4 177.0 L 156.5 177.0 L 156.5 162.1 Z M 165.2 143.9 L 165.2 147.9 L 65.7 147.9 L 65.7 143.9 L 150.9777777671814 143.9 L 157.2 136.9 Z M 165.2 128.8 L 165.2 132.8 L 65.7 132.8 L 65.7 128.8 L 150.9777777671814 128.8 L 157.2 121.8 Z M 117.4 109.6 L 116.0 107.9 L 114.3 106.1 L 112.5 104.4 L 110.4 102.8 L 108.2 101.2 L 105.7 99.6 L 103.0 98.0 L 99.9 96.9 L 100.3 95.1 L 103.6 95.6 L 106.9 95.8 L 110.1 96.3 L 113.2 97.0 L 116.1 97.9 L 119.0 99.0 L 121.7 100.4 L 124.3 102.0 L 126.8 103.7 L 129.1 105.7 L 130.3 110.1 L 128.2 114.2 L 126.73333330154419 114.6 L 155.21818180084227 114.6 L 163.4 105.6 L 173.4 114.6 L 173.4 118.6 L 57.5 118.6 L 57.5 114.6 L 122.27619047164917 114.6 L 119.8 113.3 L 118.7 111.5 Z M 118.3 82.2 L 110.9 79.2 L 107.43989601135254 77.9082278251648 L 104.5 78.9 L 96.0 81.4 L 87.3 83.5 L 78.3 85.3 L 69.2 86.7 L 59.7 87.6 L 50.1 88.0 L 49.8 86.2 L 59.1 83.8 L 68.1 81.4 L 76.8 78.9 L 85.3 76.2 L 93.4 73.3 L 93.80874881744384 73.13960485458374 L 88.3 71.4 L 80.5 69.1 L 72.7 67.0 L 64.8 64.8 L 56.8 62.7 L 57.1 60.9 L 65.4 61.1 L 73.7 61.7 L 81.9 62.7 L 90.0 64.0 L 98.1 65.7 L 106.2 67.6 L 106.77192897796631 67.7520318031311 L 108.9 66.8 L 116.2 63.2 L 123.3 59.4 L 125.12439022064208 58.3 L 31.3 58.3 L 31.3 54.3 L 95.5 54.3 L 95.5 36.4 L 34.65128202438355 36.4 L 34.7 38.3 L 34.3 42.0 L 33.6 45.6 L 32.4 48.9 L 30.8 52.0 L 28.7 54.9 L 26.1 57.4 L 23.0 59.5 L 18.5 59.7 L 15.1 56.6 L 14.9 52.1 L 18.0 48.6 L 19.9 48.0 L 21.7 47.1 L 23.4 46.0 L 25.1 44.5 L 26.6 42.5 L 28.0 40.1 L 29.3 37.3 L 30.4 34.0 L 31.4 30.3 L 31.8 26.2 L 33.6 26.1 L 34.1 30.4 L 34.35 32.4 L 95.0 32.4 L 95.0 11.5 L 107.0 13.5 L 110.0 15.5 L 107.0 17.3 L 107.0 32.4 L 170.2 32.4 L 170.70847454071045 31.976271152496338 L 170.7 31.9 L 170.76449699401854 31.92958583831787 L 176.2 27.4 L 187.2 36.4 L 182.2 39.4 L 176.7454545021057 41.672727298736575 L 175.6 42.9 L 173.9 44.5 L 172.1 46.3 L 170.1 48.2 L 167.9 50.3 L 167.4875 50.87291669845581 L 171.6 54.3 L 171.6 58.3 L 131.84757280349731 58.3 L 132.1 58.73333330154419 L 137.9 64.6 L 138.0 68.0 L 134.37178726196288 66.49867057800293 L 128.6 69.5 L 122.35409832000732 72.22257251739502 L 129.8 74.8 L 137.6 77.8 L 140.7 81.1 L 140.7 85.7 L 137.4 88.8 L 132.8 88.7 L 125.6 85.4 Z M 98.5 36.4 L 107.5 37.9 L 110.5 39.9 L 107.5 41.7 L 107.5 54.3 L 149.6 54.3 L 159.6 44.3 L 165.82258062362672 49.48548383712769 L 166.1 49.0 L 167.0 46.2 L 167.9 43.6 L 168.7 41.3 L 169.4 39.1 L 169.9 37.2 L 170.13529415130614 36.4 Z " />
</g>
</svg>
