<svg xmlns="http://www.w3.org/2000/svg" xmlns:xlink="http://www.w3.org/1999/xlink" version="1.1" baseProfile="full" viewBox="0 0 200 200" width="200" height="200">
<g fill="black">
<path d="M 15.5 167.5 L 24.3 166.1 L 28.6 165.4574712753296 L 28.6 61.0 L 40.6 67.0 L 70.3 67.0 L 76.3 62.0 L 87.3 71.0 L 82.3 75.0 L 82.3 156.38461542129517 L 90.0 155.2 L 97.7 154.1 L 98.2 155.9 L 91.0 158.8 L 83.5 161.6 L 75.8 164.1 L 68.0 166.5 L 60.0 168.8 L 51.9 171.0 L 43.6 173.2 L 35.1 175.3 L 26.5 177.3 L 21.746518707275392 178.38033666610718 L 20.2 181.9 L 17.7 179.3 L 13.5 167.9 Z M 101.7 172.8 L 115.6 172.8 L 115.6 63.1 L 127.6 69.1 L 159.3 69.1 L 165.3 64.1 L 170.16502141952515 68.0804720878601 L 170.7 66.0 L 171.3 62.6 L 171.8 59.4 L 172.4 56.3 L 172.9 53.4 L 173.3 50.6 L 173.7 48.0 L 174.1 45.6 L 174.16086959838867 44.9 L 112.39200000762939 44.9 L 112.6 47.5 L 112.8 52.1 L 112.8 56.3 L 112.6 60.2 L 112.2 63.7 L 111.6 67.0 L 110.6 70.0 L 109.3 72.8 L 105.3 75.0 L 100.9 73.9 L 98.6 69.9 L 99.8 65.4 L 100.7 64.7 L 101.7 63.2 L 102.8 61.2 L 103.9 58.5 L 104.9 55.2 L 105.9 51.4 L 106.8 47.1 L 107.2814814567566 44.211111068725586 L 102.3 47.2 L 99.32918920516968 48.437837791442874 L 98.8 49.4 L 97.5 51.5 L 96.1 53.7 L 94.6 56.2 L 92.9 58.8 L 91.2 61.6 L 89.2 64.5 L 87.5 67.8 L 85.8 67.1 L 86.9 63.6 L 87.4 60.1 L 88.0 56.9 L 88.6 53.9 L 89.1 51.1 L 89.6 48.5 L 89.9 46.1 L 90.1714285850525 44.2 L 24.670270252227784 44.2 L 24.8 45.0 L 25.2 48.6 L 25.3 52.0 L 25.3 55.3 L 25.0 58.4 L 24.5 61.4 L 23.8 64.3 L 22.9 67.1 L 19.3 69.9 L 14.7 69.4 L 11.9 65.8 L 12.4 61.2 L 13.6 59.8 L 14.7 58.0 L 15.8 56.0 L 16.8 53.6 L 17.7 51.0 L 18.6 48.0 L 19.3 44.8 L 20.0 41.3 L 20.7 37.5 L 20.9 33.5 L 22.7 33.3 L 23.4 37.4 L 23.97435894012451 40.2 L 51.3 40.2 L 51.3 13.6 L 63.3 15.6 L 66.3 17.6 L 63.3 19.4 L 63.3 40.2 L 90.3 40.2 L 96.3 35.2 L 107.28533334732056 44.18800001144409 L 107.6 42.3 L 108.5 37.0 L 109.1 31.3 L 110.9 31.2 L 111.6 37.1 L 112.0222222328186 40.9 L 137.5 40.9 L 137.5 12.0 L 149.5 14.0 L 152.5 16.0 L 149.5 17.8 L 149.5 40.9 L 174.3 40.9 L 180.3 35.9 L 191.3 44.9 L 186.3 47.9 L 183.82941179275514 48.929411792755126 L 182.7 51.0 L 181.4 53.4 L 180.0 55.9 L 178.5 58.5 L 175.1 64.1 L 173.1 67.0 L 171.78198385238647 69.40344133377076 L 176.3 73.1 L 171.3 77.1 L 171.3 172.8 L 174.7 172.8 L 179.2 166.8 L 185.2 172.8 L 185.2 176.8 L 101.7 176.8 Z M 127.6 141.3 L 127.6 172.8 L 159.3 172.8 L 159.3 141.3 Z M 40.6 134.5 L 40.6 163.45882349014283 L 41.5 163.3 L 49.9 161.9 L 66.3 159.1 L 70.3 158.4 L 70.3 134.5 Z M 127.6 107.2 L 127.6 137.3 L 159.3 137.3 L 159.3 107.2 Z M 40.6 102.8 L 40.6 130.5 L 70.3 130.5 L 70.3 102.8 Z M 127.6 73.1 L 127.6 103.2 L 159.3 103.2 L 159.3 73.1 Z M 40.6 71.0 L 40.6 98.8 L 70.3 98.8 L 70.3 71.0 Z " />
</g>
</svg>
