<svg xmlns="http://www.w3.org/2000/svg" xmlns:xlink="http://www.w3.org/1999/xlink" version="1.1" baseProfile="full" viewBox="0 0 200 200" width="200" height="200">
<g fill="black">
<path d="M 52.3 176.5 L 70.3 176.5 L 71.5 176.4 L 72.4 176.2 L 73.3 175.9 L 73.7 175.5 L 73.9 175.2 L 74.0 174.6 L 74.2 173.7 L 74.3 172.5 L 74.3 147.05909090042115 L 70.1 150.4 L 61.0 157.1 L 51.6 163.3 L 41.9 169.2 L 32.0 174.6 L 21.8 179.6 L 11.2 184.1 L 10.4 182.5 L 20.0 176.3 L 29.3 170.0 L 38.4 163.7 L 47.2 157.1 L 55.8 150.3 L 64.2 143.2 L 65.9972116470337 141.58029079437256 L 63.4 142.3 L 55.5 144.3 L 48.2 146.1 L 41.3 147.8 L 34.9 149.3 L 28.9 150.7 L 23.5 152.0 L 18.6 153.3 L 18.180724239349367 153.4024896621704 L 16.6 157.0 L 14.1 154.4 L 10.0 142.9 L 12.0 142.6 L 16.6 142.1 L 21.6 141.5 L 27.2 140.8 L 27.2 64.2 L 39.2 70.2 L 42.31428575515747 70.2 L 43.6 68.7 L 45.6 65.7 L 47.5 62.9 L 49.3 60.2 L 51.0 57.7 L 52.6 55.3 L 54.0 53.0 L 55.3 50.8 L 56.5 48.7 L 57.0340030670166 47.68539409637451 L 56.9 47.6 L 57.44202899932861 46.910144901275636 L 57.5 46.8 L 57.51788539886475 46.81360034942627 L 58.0 46.2 L 67.1 54.1 L 68.2 57.5 L 63.82166967391968 56.971580791473386 L 63.2 57.5 L 61.1 59.2 L 58.9 61.0 L 56.5 62.9 L 54.0 64.8 L 51.3 66.7 L 48.5 68.7 L 46.052631568908694 70.2 L 74.3 70.2 L 80.3 65.2 L 91.3 74.2 L 86.3 78.2 L 86.3 121.9368420600891 L 87.7 120.5 L 95.0 112.3 L 95.01817255020141 112.31653909683227 L 95.4 111.9 L 103.9 120.4 L 104.7 123.9 L 101.09558820724487 123.20441179275512 L 95.8 128.5 L 87.5 136.1 L 86.3 137.11860466003418 L 86.3 172.5 L 86.1 175.0 L 85.7 177.5 L 84.9 179.9 L 83.7 182.2 L 82.0 184.2 L 80.0 185.9 L 77.7 187.1 L 75.3 187.9 L 72.8 188.3 L 70.3 188.5 L 70.3 182.5 L 52.3 179.5 Z M 122.7 68.0 L 157.3 68.0 L 163.3 63.0 L 174.3 72.0 L 169.3 76.0 L 169.3 109.8 L 157.3 115.8 L 157.3 105.8 L 145.5 105.8 L 144.9 107.2 L 143.9 109.4 L 142.9 111.7 L 141.7 114.0 L 140.5 116.4 L 137.7 121.4 L 136.2 124.1 L 134.4 126.7 L 134.1310344696045 127.3 L 162.3 127.3 L 168.3 122.3 L 179.3 131.3 L 174.3 135.3 L 174.3 175.9 L 162.3 181.9 L 162.3 169.9 L 117.7 169.9 L 117.7 181.9 L 105.7 187.9 L 105.7 121.3 L 117.7 127.3 L 131.7838709831238 127.3 L 132.1 125.9 L 132.4 122.8 L 132.7 119.8 L 133.3 114.2 L 133.6 111.6 L 134.0 106.8 L 134.0454545021057 105.8 L 122.7 105.8 L 122.7 112.8 L 110.7 118.8 L 110.7 62.0 Z M 117.7 131.3 L 117.7 165.9 L 162.3 165.9 L 162.3 131.3 Z M 39.2 118.5 L 39.2 139.46363639831543 L 39.8 139.4 L 46.8 138.6 L 54.4 137.8 L 62.4 137.0 L 71.0 136.3 L 71.92374534606934 136.23909368515015 L 72.3 135.9 L 74.3 133.95128202438354 L 74.3 118.5 Z M 39.2 95.1 L 39.2 114.5 L 74.3 114.5 L 74.3 95.1 Z M 122.7 72.0 L 122.7 101.8 L 157.3 101.8 L 157.3 72.0 Z M 39.2 74.2 L 39.2 91.1 L 74.3 91.1 L 74.3 74.2 Z M 13.3 61.8 L 12.9 57.2 L 15.8 53.7 L 17.8 52.9 L 19.6 51.8 L 21.4 50.3 L 23.1 48.3 L 24.7 45.9 L 26.2 43.0 L 27.5 39.6 L 28.6 35.7 L 29.6 31.4 L 30.1 26.6 L 31.9 26.5 L 32.5 31.5 L 32.79347829818725 34.2 L 94.0 34.2 L 94.0 10.0 L 106.0 12.0 L 109.0 14.0 L 106.0 15.8 L 106.0 34.2 L 170.0 34.2 L 170.6 33.7 L 171.0 32.8 L 171.37029705047607 33.05808582305908 L 176.0 29.2 L 187.0 38.2 L 182.0 41.2 L 177.17931032180786 43.208620643615724 L 175.3 44.9 L 173.1 46.7 L 170.8 48.7 L 168.3 50.7 L 165.6 52.8 L 162.7 54.9 L 159.6 57.1 L 156.6 59.6 L 155.3 58.3 L 157.7 55.3 L 159.7 52.1 L 161.6 49.1 L 163.4 46.3 L 165.1 43.7 L 166.6 41.2 L 168.0 38.8 L 168.32727270126344 38.2 L 33.046666622161865 38.2 L 33.1 40.6 L 32.7 44.7 L 32.0 48.7 L 30.8 52.4 L 29.2 55.9 L 27.1 59.0 L 24.5 61.9 L 21.4 64.3 L 16.9 64.7 Z " />
</g>
</svg>
