<svg xmlns="http://www.w3.org/2000/svg" xmlns:xlink="http://www.w3.org/1999/xlink" version="1.1" baseProfile="full" viewBox="0 0 200 200" width="200" height="200">
<g fill="black">
<path d="M 80.1 167.4 L 94.1 167.4 L 95.3 167.3 L 96.2 167.2 L 96.8 167.0 L 97.1 166.8 L 97.3 166.7 L 97.5 166.5 L 97.7 166.1 L 98.0 164.6 L 98.1 163.4 L 98.1 126.70500001907348 L 96.2 130.6 L 91.8 132.0 L 87.7 130.1 L 86.7 128.4 L 85.5 126.7 L 84.1 124.9 L 82.4 123.1 L 80.5 121.3 L 78.3 119.4 L 76.0 117.4 L 73.4 115.4 L 70.7 113.3 L 69.11876468658447 112.4599687576294 L 67.6 115.7 L 63.8 121.5 L 59.2 126.4 L 54.0 130.6 L 48.2 133.9 L 41.7 136.3 L 37.0 137.23999996185302 L 37.0 160.9666666984558 L 39.5 159.3 L 43.9 156.1 L 48.0 152.8 L 51.6 149.4 L 54.9 145.9 L 57.9 142.3 L 60.5 138.5 L 62.7 134.5 L 64.6 130.4 L 66.2 126.0 L 66.2791386604309 126.03109016418458 L 66.8 124.7 L 77.4 130.4 L 79.4 133.4 L 75.48262548446655 134.08725872039795 L 74.8 135.4 L 71.9 140.1 L 70.23195486068725 142.20958642959596 L 71.2 142.5 L 74.3 143.0 L 77.3 143.7 L 80.2 144.6 L 82.9 145.7 L 85.5 146.8 L 88.1 148.1 L 90.5 149.6 L 92.8 151.2 L 95.0 152.9 L 96.4 157.2 L 94.5 161.3 L 90.1 162.8 L 86.0 160.8 L 84.9 159.1 L 83.6 157.3 L 82.2 155.5 L 80.6 153.7 L 78.9 152.0 L 77.0 150.2 L 74.9 148.4 L 72.7 146.6 L 70.3 144.8 L 68.82962293624878 143.9831238746643 L 68.5 144.4 L 64.9 148.4 L 60.8 152.1 L 56.4 155.3 L 51.7 158.2 L 46.6 160.7 L 41.2 162.7 L 37.0 163.78620691299437 L 37.0 172.0 L 25.0 178.0 L 25.0 92.3 L 37.0 98.3 L 62.56716413497925 98.3 L 63.1 93.2 L 63.26756753921509 87.0 L 15.0 87.0 L 15.0 83.0 L 120.56388893127442 83.0 L 120.0 78.1 L 119.03426609039306 49.997144508361814 L 119.0 50.0 L 119.0 46.6 L 131.0 49.0 L 134.0 51.0 L 131.1314878463745 52.72110729217529 L 132.0 77.3 L 132.63858919143678 83.0 L 160.0 83.0 L 170.0 73.0 L 182.0 83.0 L 182.0 87.0 L 133.08672199249267 87.0 L 134.7 101.4 L 138.9 121.6 L 144.1 138.1 L 145.44273948669434 141.10409507751464 L 145.8 140.5 L 150.7 130.3 L 155.1 119.2 L 158.9 107.1 L 158.91817893981934 107.10569076538086 L 159.4 105.6 L 170.4 110.7 L 172.7 113.5 L 169.01824035644532 114.40429182052613 L 165.7 123.3 L 160.4 134.9 L 154.4 145.5 L 150.19560232162476 151.615487575531 L 156.2 161.3 L 162.2 168.4 L 167.7 173.0 L 169.67945203781127 174.0557077407837 L 175.0 151.0 L 177.0 151.0 L 175.07446804046631 176.0319149017334 L 179.2 177.8 L 181.0 182.0 L 179.2 186.2 L 175.0 188.0 L 168.1 186.7 L 161.0 183.0 L 153.7 176.9 L 146.4 168.3 L 142.31650266647338 161.649732875824 L 140.6 163.7 L 132.7 171.2 L 124.2 177.7 L 115.1 182.9 L 105.4 187.0 L 95.2 189.8 L 94.7 188.1 L 103.9 183.5 L 112.4 178.3 L 120.3 172.4 L 127.5 165.7 L 134.2 158.2 L 137.77556800842285 153.27626705169678 L 132.9 142.4 L 127.3 124.6 L 122.9 103.3 L 121.02420635223389 87.0 L 76.75 87.0 L 78.2 88.0 L 74.9222222328186 89.96666669845581 L 74.5 94.4 L 73.68961038589478 98.3 L 98.1 98.3 L 104.1 93.3 L 115.1 102.3 L 110.1 106.3 L 110.1 163.4 L 109.9 166.0 L 109.5 168.5 L 108.7 170.9 L 107.5 173.1 L 105.8 175.2 L 103.8 176.8 L 101.5 178.0 L 99.1 178.8 L 96.6 179.3 L 94.1 179.4 L 94.1 173.4 L 80.1 170.4 Z M 37.0 102.3 L 37.0 134.50666666030884 L 40.2 132.8 L 45.4 129.3 L 49.9 125.5 L 53.7 121.3 L 56.8 116.7 L 59.2 111.6 L 61.1 106.0 L 61.88852462768555 102.3 Z M 72.83611106872559 102.3 L 70.6 109.3 L 70.04669256210327 110.48038911819458 L 71.7 111.0 L 75.2 111.7 L 78.5 112.7 L 81.6 113.7 L 84.5 114.9 L 87.3 116.1 L 89.9 117.5 L 92.3 118.9 L 94.6 120.5 L 96.7 122.2 L 98.1 126.21333332061768 L 98.1 102.3 Z M 155.6 69.2 L 154.4 67.4 L 153.1 65.5 L 151.5 63.7 L 149.8 61.8 L 147.8 59.8 L 145.6 57.9 L 143.3 55.8 L 140.5 54.2 L 141.2 52.5 L 144.3 53.6 L 147.5 54.4 L 150.5 55.3 L 153.3 56.4 L 156.0 57.7 L 157.42465753555297 58.4671233177185 L 157.7 58.1 L 159.7 54.8 L 161.6 51.7 L 163.4 48.8 L 165.0 46.1 L 166.5 43.5 L 167.9 41.0 L 168.44545450210572 40.0 L 33.04468088150024 40.0 L 33.1 42.6 L 32.8 46.9 L 32.1 51.0 L 30.9 54.9 L 29.3 58.5 L 27.2 61.8 L 24.6 64.7 L 21.5 67.2 L 17.0 67.7 L 13.3 64.9 L 12.9 60.4 L 15.6 56.7 L 17.6 55.9 L 19.5 54.7 L 21.3 53.0 L 23.1 50.9 L 24.7 48.4 L 26.1 45.3 L 27.4 41.6 L 28.6 37.5 L 29.6 32.9 L 30.1 27.9 L 31.9 27.8 L 32.5 33.0 L 32.8061224937439 36.0 L 94.0 36.0 L 94.0 10.6 L 106.0 12.6 L 109.0 14.6 L 106.0 16.4 L 106.0 36.0 L 170.0 36.0 L 170.66400003433228 35.446666622161864 L 171.0 34.7 L 171.30903005599976 34.909141540527344 L 176.0 31.0 L 187.0 40.0 L 182.0 43.0 L 177.53043479919432 44.86231880187988 L 177.4 45.0 L 175.4 46.9 L 173.2 48.9 L 170.9 51.0 L 168.4 53.1 L 165.7 55.3 L 162.8 57.6 L 159.78230085372925 59.838938045501706 L 161.0 60.6 L 163.2 62.3 L 165.3 64.1 L 167.3 66.1 L 168.1 70.6 L 165.6 74.4 L 161.1 75.3 L 157.3 72.8 L 156.5 71.0 Z " />
</g>
</svg>
