<svg xmlns="http://www.w3.org/2000/svg" xmlns:xlink="http://www.w3.org/1999/xlink" version="1.1" baseProfile="full" viewBox="0 0 200 200" width="200" height="200">
<g fill="black">
<path d="M 52.9 160.3 L 54.2 163.7 L 50.224849700927734 163.3573145866394 L 50.1 163.5 L 47.0 166.6 L 43.7 169.6 L 40.3 172.5 L 36.7 175.2 L 32.9 177.8 L 28.9 180.3 L 24.7 182.6 L 20.3 184.7 L 15.7 186.7 L 14.7 185.2 L 18.4 181.9 L 21.8 178.6 L 25.1 175.4 L 28.3 172.2 L 31.2 169.1 L 34.0 165.9 L 36.6 162.8 L 39.0 159.6 L 41.2 156.4 L 42.67234420776367 154.04424934387208 L 42.6 154.0 L 43.08888893127441 153.37777776718139 L 43.2 153.2 L 43.21813936233521 153.21327724456788 L 43.7 152.6 Z M 87.3 177.7 L 85.5 174.8 L 83.5 172.1 L 81.4 169.3 L 79.0 166.7 L 76.5 164.0 L 73.8 161.4 L 70.9 158.7 L 67.7 156.2 L 68.5 154.6 L 72.4 156.1 L 76.2 157.6 L 79.9 159.3 L 83.4 161.3 L 86.7 163.5 L 89.8 165.9 L 92.8 168.5 L 95.6 171.2 L 98.2 174.2 L 100.7 177.3 L 101.3 181.8 L 98.6 185.5 L 94.1 186.1 L 90.4 183.5 L 88.9 180.5 Z M 102.8 167.0 L 111.8 167.0 L 111.8 46.5 L 122.8 52.0 L 136.07894735336305 52.0 L 136.3 49.9 L 136.6 46.0 L 137.0 42.2 L 137.4 38.3 L 137.9 34.5 L 138.9 26.7 L 139.9 18.7 L 140.1987654685974 15.712345695495605 L 140.1 15.7 L 140.2875 14.825 L 140.3 14.7 L 140.31366529464722 14.702895164489746 L 140.7 12.9 L 152.1 17.2 L 154.6 19.7 L 150.94194049835204 20.96369323730469 L 150.9 21.1 L 149.6 25.0 L 148.4 28.9 L 147.0 32.7 L 144.2 40.1 L 142.7 43.7 L 141.1 47.3 L 139.3 50.8 L 138.7 52.0 L 168.1 52.0 L 173.6 47.0 L 184.1 56.0 L 179.1 59.5 L 179.1 165.0 L 182.1 161.0 L 188.1 167.0 L 188.1 171.0 L 102.8 171.0 Z M 122.8 56.0 L 122.8 167.0 L 131.2 167.0 L 131.2 56.0 Z M 141.2 56.0 L 141.2 167.0 L 149.7 167.0 L 149.7 56.0 Z M 159.7 56.0 L 159.7 167.0 L 168.1 167.0 L 168.1 56.0 Z M 36.1 151.0 L 24.1 157.0 L 24.1 78.0 L 36.1 84.0 L 52.5 84.0 L 52.5 64.0 L 31.7 64.0 L 31.7 60.0 L 67.01818180084229 60.0 L 75.2 51.0 L 85.2 60.0 L 85.2 64.0 L 64.5 64.0 L 64.5 84.0 L 80.8 84.0 L 86.8 79.0 L 97.8 88.0 L 92.8 92.0 L 92.8 144.0 L 80.8 150.0 L 80.8 144.0 L 36.1 144.0 Z M 36.1 116.0 L 36.1 140.0 L 52.5 140.0 L 52.5 116.0 Z M 64.5 116.0 L 64.5 140.0 L 80.8 140.0 L 80.8 116.0 Z M 36.1 88.0 L 36.1 112.0 L 52.5 112.0 L 52.5 88.0 Z M 64.5 88.0 L 64.5 112.0 L 80.8 112.0 L 80.8 88.0 Z M 13.3 71.1 L 11.2 67.0 L 12.6 62.6 L 13.5 62.0 L 14.5 60.6 L 15.7 58.7 L 16.8 56.2 L 17.8 53.1 L 18.8 49.5 L 19.7 45.4 L 20.6 40.8 L 21.5 35.7 L 22.0 30.1 L 23.8 30.1 L 24.5 35.7 L 24.915384578704835 39.3 L 52.5 39.3 L 52.5 11.6 L 64.5 13.6 L 67.5 15.6 L 64.5 17.4 L 64.5 39.3 L 91.6 39.3 L 97.6 34.3 L 108.6 43.3 L 103.6 46.3 L 100.91055278778076 47.42060298919678 L 99.8 49.3 L 98.4 51.6 L 97.0 54.0 L 95.4 56.5 L 93.7 59.1 L 91.9 61.8 L 89.8 64.5 L 88.1 67.5 L 86.5 66.8 L 87.5 63.5 L 88.2 60.2 L 88.8 57.0 L 89.4 54.0 L 90.0 51.2 L 90.5 48.5 L 90.9 46.0 L 91.3 43.7 L 91.35454549789429 43.3 L 25.29591836929321 43.3 L 25.5 45.8 L 25.7 50.2 L 25.6 54.3 L 25.4 58.1 L 24.9 61.5 L 24.2 64.7 L 23.2 67.7 L 21.7 70.4 L 17.6 72.4 Z " />
</g>
</svg>
