<svg xmlns="http://www.w3.org/2000/svg" xmlns:xlink="http://www.w3.org/1999/xlink" version="1.1" baseProfile="full" viewBox="0 0 200 200" width="200" height="200">
<g fill="black">
<path d="M 147.0 148.4 L 149.0 148.4 L 147.0 173.4 L 150.6 175.8 L 153.0 179.4 L 150.6 183.0 L 147.0 185.4 L 76.0 185.4 L 73.4 185.3 L 70.9 184.8 L 68.5 184.0 L 66.2 182.8 L 64.2 181.1 L 62.6 179.1 L 61.3 176.9 L 60.5 174.4 L 60.1 172.0 L 60.0 169.4 L 60.0 136.8 L 72.0 138.8 L 75.0 140.8 L 72.0 142.6 L 72.0 170.6 L 72.2 171.5 L 72.4 172.1 L 72.5 172.5 L 72.7 172.6 L 72.9 172.8 L 73.2 173.0 L 73.8 173.2 L 74.7 173.3 L 76.0 173.4 L 141.0 173.4 Z M 15.3 177.5 L 14.9 173.0 L 17.8 169.4 L 20.6 168.1 L 23.2 166.5 L 25.6 164.5 L 27.7 162.1 L 29.7 159.3 L 31.5 156.0 L 33.0 152.3 L 34.3 148.0 L 35.4 143.3 L 36.1 138.0 L 37.9 138.0 L 38.6 143.4 L 39.0 148.6 L 38.8 153.5 L 38.2 158.2 L 37.0 162.6 L 35.4 166.8 L 33.2 170.6 L 30.4 174.2 L 27.2 177.3 L 23.4 180.0 L 18.9 180.4 Z M 170.3 165.0 L 168.8 161.9 L 167.0 158.8 L 164.8 155.7 L 162.2 152.6 L 159.3 149.5 L 156.0 146.3 L 152.4 143.1 L 148.4 139.9 L 149.3 138.3 L 154.1 140.3 L 158.8 142.3 L 163.0 144.7 L 167.0 147.3 L 170.6 150.1 L 173.9 153.1 L 176.8 156.3 L 179.5 159.8 L 181.7 163.4 L 183.6 167.3 L 183.3 171.8 L 179.9 174.9 L 175.4 174.6 L 172.3 171.2 L 171.5 168.1 Z M 108.3 153.1 L 106.4 150.6 L 104.4 148.1 L 102.1 145.7 L 99.7 143.3 L 97.0 141.0 L 94.1 138.6 L 91.0 136.2 L 87.5 134.1 L 88.2 132.5 L 96.2 134.7 L 99.9 136.1 L 103.5 137.7 L 106.9 139.5 L 110.1 141.5 L 113.2 143.7 L 116.1 146.1 L 118.7 148.7 L 121.2 151.5 L 122.1 156.0 L 119.6 159.9 L 115.1 160.7 L 111.3 158.3 L 109.9 155.7 Z M 54.5 131.9 L 42.5 137.9 L 42.5 59.4 L 54.5 65.4 L 143.8 65.4 L 149.8 60.4 L 156.81044778823852 66.1358208656311 L 157.6 64.9 L 159.5 61.3 L 161.4 57.9 L 163.2 54.7 L 164.9 51.7 L 166.4 48.9 L 167.7 46.3 L 168.6119999885559 44.4 L 33.2 44.4 L 33.2 47.3 L 32.9 52.1 L 32.2 56.6 L 31.0 60.8 L 29.4 64.7 L 27.4 68.3 L 24.8 71.5 L 21.7 74.2 L 17.2 74.9 L 13.4 72.3 L 12.7 67.8 L 15.3 64.0 L 17.3 63.0 L 19.2 61.5 L 21.1 59.6 L 22.9 57.1 L 24.5 54.1 L 26.0 50.6 L 27.3 46.4 L 28.4 41.8 L 29.4 36.6 L 30.1 30.9 L 31.9 30.9 L 32.6 36.7 L 33.00363636016846 40.4 L 94.0 40.4 L 94.0 11.9 L 106.0 13.9 L 109.0 15.9 L 106.0 17.7 L 106.0 40.4 L 170.0 40.4 L 170.5310344696045 39.95747127532959 L 170.8 39.3 L 171.1019165992737 39.481736183166504 L 176.0 35.4 L 187.0 44.4 L 182.0 47.4 L 178.08888893127443 49.02962961196899 L 177.6 49.6 L 175.5 51.7 L 173.4 54.0 L 171.0 56.4 L 168.5 58.8 L 165.8 61.4 L 162.9 64.0 L 159.7 66.7 L 158.6735785484314 67.66020069122314 L 160.8 69.4 L 155.8 73.4 L 155.8 121.9 L 143.8 127.9 L 143.8 119.9 L 54.5 119.9 Z M 54.5 94.3 L 54.5 115.9 L 93.1 115.9 L 93.1 94.3 Z M 105.1 94.3 L 105.1 115.9 L 143.8 115.9 L 143.8 94.3 Z M 54.5 69.4 L 54.5 90.3 L 93.1 90.3 L 93.1 69.4 Z M 105.1 69.4 L 105.1 90.3 L 143.8 90.3 L 143.8 69.4 Z " />
</g>
</svg>
