<svg xmlns="http://www.w3.org/2000/svg" xmlns:xlink="http://www.w3.org/1999/xlink" version="1.1" baseProfile="full" viewBox="0 0 200 200" width="200" height="200">
<g fill="black">
<path d="M 161.0 118.0 L 172.0 127.0 L 167.0 131.0 L 167.0 181.0 L 155.0 187.0 L 155.0 138.0 L 118.0 138.0 L 118.0 185.0 L 106.0 191.0 L 106.0 61.0 L 118.0 63.0 L 121.0 65.0 L 118.0 66.8 L 118.0 100.0 L 150.5 100.0 L 152.0 98.0 L 152.0 61.0 L 156.11081085205078 61.685135173797605 L 157.7 59.5 L 159.6 56.2 L 161.5 53.0 L 163.3 50.1 L 165.0 47.3 L 166.5 44.6 L 167.8 42.1 L 168.37391300201415 41.0 L 33.1 41.0 L 33.1 43.6 L 32.8 48.0 L 32.1 52.2 L 30.9 56.1 L 29.3 59.8 L 27.2 63.1 L 24.6 66.1 L 21.5 68.7 L 17.0 69.2 L 13.3 66.5 L 12.8 61.9 L 15.6 58.3 L 17.6 57.4 L 19.5 56.1 L 21.3 54.4 L 23.0 52.2 L 24.6 49.6 L 26.1 46.4 L 27.4 42.7 L 28.5 38.4 L 29.5 33.7 L 30.1 28.5 L 31.9 28.5 L 32.5 33.8 L 32.88400001525879 37.0 L 94.0 37.0 L 94.0 10.9 L 106.0 12.9 L 109.0 14.9 L 106.0 16.7 L 106.0 37.0 L 170.0 37.0 L 170.56999998092653 36.525 L 170.9 35.7 L 171.27240219116212 35.93966484069824 L 176.0 32.0 L 187.0 41.0 L 182.0 44.0 L 177.37142858505248 45.92857141494751 L 173.3 50.0 L 170.9 52.1 L 168.4 54.3 L 165.7 56.6 L 162.8 59.0 L 159.7 61.4 L 158.84870462417604 62.141450786590575 L 164.0 63.0 L 167.0 65.0 L 164.0 66.8 L 164.0 107.0 L 152.0 113.0 L 152.0 104.0 L 118.0 104.0 L 118.0 134.0 L 155.0 134.0 L 155.0 123.0 Z M 61.34183139801026 61.89490118026733 L 60.7 77.7 L 60.57629909515381 79.10709762573242 L 62.3 93.5 L 64.7 108.8 L 67.9 122.7 L 71.7 135.2 L 76.1 146.4 L 81.2 156.2 L 86.9 164.6 L 93.1 171.6 L 99.9 177.4 L 102.7 179.5 L 91.8 187.8 L 84.0 180.2 L 77.3 171.4 L 71.5 161.5 L 66.6 150.3 L 62.7 138.0 L 59.7 124.5 L 57.6 109.8 L 57.41130809783935 107.31555700302124 L 56.6 112.8 L 53.2 128.2 L 48.9 142.1 L 43.6 154.5 L 37.5 165.4 L 30.4 174.7 L 22.4 182.3 L 13.5 188.1 L 12.5 186.6 L 19.8 179.5 L 26.2 171.4 L 31.8 162.1 L 36.7 151.4 L 40.8 139.4 L 44.1 126.0 L 46.7 111.2 L 48.4 94.9 L 49.3 77.2 L 49.5 58.0 L 49.5 55.6 L 61.5 58.0 L 64.5 60.0 Z " />
</g>
</svg>
