<svg xmlns="http://www.w3.org/2000/svg" xmlns:xlink="http://www.w3.org/1999/xlink" version="1.1" baseProfile="full" viewBox="0 0 200 200" width="200" height="200">
<g fill="black">
<path d="M 52.9 158.2 L 49.2 162.4 L 47.8 164.9 L 47.7 165.2 L 47.9 165.4 L 50.5 166.7 L 56.0 168.1 L 64.0 169.0 L 74.5 169.4 L 161.0 169.4 L 167.0 144.4 L 169.0 144.4 L 167.0 169.4 L 170.6 171.8 L 173.0 175.4 L 170.6 179.0 L 167.0 181.4 L 74.5 181.4 L 63.2 181.0 L 53.9 179.9 L 46.3 178.0 L 40.2 174.6 L 36.2 168.7 L 36.3 161.6 L 39.4 155.4 L 44.6 149.5 L 51.7 143.4 L 60.9 136.8 L 127.24477615356446 91.9 L 41.6 91.9 L 41.6 89.15454549789429 L 41.4 88.9 L 41.6 88.68235292434693 L 41.6 87.9 L 42.31891889572144 87.9 L 44.8 85.2 L 48.1 81.6 L 51.2 78.2 L 54.2 74.8 L 57.0 71.6 L 59.7 68.5 L 62.2 65.5 L 64.6 62.5 L 66.7 59.7 L 68.16589813232422 57.64774255752563 L 68.1 57.6 L 69.1 56.4 L 77.9 64.7 L 78.8 68.1 L 74.80934257507325 67.4698962211609 L 72.3 69.8 L 69.2 72.4 L 66.0 75.0 L 62.5 77.6 L 58.9 80.2 L 55.2 82.8 L 51.2 85.4 L 46.9 87.8 L 46.723999977111816 87.9 L 134.9 87.9 L 140.9 82.9 L 151.9 91.9 L 146.9 94.9 L 139.3773344039917 98.03444404602051 L 67.6 146.7 L 59.1 152.9 Z M 13.4 69.6 L 12.8 65.1 L 15.4 61.3 L 17.4 60.4 L 19.3 59.0 L 21.2 57.2 L 22.9 54.9 L 24.6 52.0 L 26.1 48.6 L 27.4 44.7 L 28.5 40.2 L 29.5 35.3 L 30.1 29.8 L 31.9 29.8 L 32.6 35.3 L 32.93018865585327 38.8 L 94.0 38.8 L 94.0 11.4 L 106.0 13.4 L 109.0 15.4 L 106.0 17.2 L 106.0 38.8 L 170.0 38.8 L 170.6 38.3 L 170.9 37.6 L 171.2067491531372 37.79437570571899 L 176.0 33.8 L 187.0 42.8 L 182.0 45.8 L 177.8239999771118 47.53999996185303 L 177.5 47.9 L 175.5 50.0 L 173.3 52.1 L 171.0 54.4 L 168.5 56.7 L 165.8 59.2 L 162.9 61.7 L 159.7 64.2 L 156.6 67.0 L 155.3 65.8 L 157.6 62.4 L 159.6 58.9 L 161.5 55.6 L 163.3 52.6 L 164.9 49.6 L 166.4 46.9 L 167.8 44.3 L 168.55 42.8 L 33.14399995803833 42.8 L 33.2 45.6 L 32.9 50.2 L 32.1 54.6 L 31.0 58.6 L 29.4 62.4 L 27.3 65.9 L 24.7 69.0 L 21.6 71.6 L 17.1 72.3 Z " />
</g>
</svg>
