<svg xmlns="http://www.w3.org/2000/svg" xmlns:xlink="http://www.w3.org/1999/xlink" version="1.1" baseProfile="full" viewBox="0 0 200 200" width="200" height="200">
<g fill="black">
<path d="M 68.1 157.8 L 64.7 154.6 L 61.0 151.5 L 58.96532335281372 150.01121225357056 L 57.7 152.1 L 50.5 161.5 L 42.4 169.9 L 33.5 177.2 L 23.8 183.5 L 13.3 188.5 L 12.5 186.9 L 21.7 180.3 L 30.1 173.1 L 37.7 165.3 L 44.5 156.8 L 50.5 147.5 L 51.656828212738034 145.27533035278321 L 47.5 142.9 L 42.2 140.3 L 36.5 137.6 L 36.48966703414917 137.5953501701355 L 34.5 145.5 L 21.4 148.3 L 35.573822021484375 91.9 L 18.2 91.9 L 18.2 87.9 L 36.57905759811401 87.9 L 45.4 52.8 L 56.6 57.7 L 59.0 60.4 L 55.705388355255124 61.25415859222412 L 48.99840545654297 87.9 L 68.9 87.9 L 74.9 82.9 L 85.9 91.9 L 80.9 94.9 L 79.86832580566406 95.32986421585083 L 77.9 104.9 L 74.2 118.1 L 69.5 130.3 L 64.0 141.7 L 63.56983575820923 142.41011238098145 L 66.1 143.7 L 70.8 146.6 L 75.2 149.8 L 79.3 153.2 L 83.0 157.0 L 84.2 161.4 L 82.1 165.4 L 77.7 166.6 L 73.7 164.5 L 71.1 161.1 Z M 82.7 172.6 L 125.1 172.6 L 125.1 121.2 L 77.1 121.2 L 77.1 117.2 L 125.1 117.2 L 125.1 78.87325582504272 L 120.0 80.0 L 111.2 81.6 L 102.0 83.0 L 92.6 84.0 L 82.9 84.6 L 82.6 82.9 L 91.9 80.3 L 101.0 77.7 L 109.7 75.2 L 118.2 72.6 L 126.3 70.0 L 134.1 67.2 L 141.6 64.3 L 148.8 61.3 L 155.3184331893921 58.276958560943605 L 157.7 55.3 L 159.7 52.1 L 161.6 49.1 L 163.4 46.3 L 165.1 43.7 L 166.6 41.2 L 168.0 38.8 L 168.32727270126344 38.2 L 33.046666622161865 38.2 L 33.1 40.6 L 32.7 44.7 L 32.0 48.7 L 30.8 52.4 L 29.2 55.9 L 27.1 59.0 L 24.5 61.9 L 21.4 64.3 L 16.9 64.7 L 13.3 61.8 L 12.9 57.2 L 15.8 53.7 L 17.8 52.9 L 19.6 51.8 L 21.4 50.3 L 23.1 48.3 L 24.7 45.9 L 26.2 43.0 L 27.5 39.6 L 28.6 35.7 L 29.6 31.4 L 30.1 26.6 L 31.9 26.5 L 32.5 31.5 L 32.79347829818725 34.2 L 94.0 34.2 L 94.0 10.0 L 106.0 12.0 L 109.0 14.0 L 106.0 15.8 L 106.0 34.2 L 170.0 34.2 L 170.6 33.7 L 171.0 32.8 L 171.37029705047607 33.05808582305908 L 176.0 29.2 L 187.0 38.2 L 182.0 41.2 L 177.17931032180786 43.208620643615724 L 175.3 44.9 L 173.1 46.7 L 170.8 48.7 L 168.3 50.7 L 165.6 52.8 L 162.7 54.9 L 162.39892082214357 55.113669109344485 L 163.3 57.060000038146974 L 170.9 64.1 L 171.0 67.3 L 167.24154777526854 65.7238748550415 L 160.2 68.6 L 152.7 71.3 L 144.9 73.8 L 137.1 76.04250001907349 L 137.1 117.2 L 163.2 117.2 L 173.2 107.2 L 185.2 117.2 L 185.2 121.2 L 137.1 121.2 L 137.1 172.6 L 157.5 172.6 L 167.5 162.6 L 179.5 172.6 L 179.5 176.6 L 82.7 176.6 Z M 47.991571712493894 91.9 L 37.4006386756897 133.9761956214905 L 37.6 134.0 L 44.0 135.2 L 50.0 136.9 L 55.084332370758055 138.6839762687683 L 55.7 137.5 L 60.2 126.6 L 63.9 114.9 L 66.8 102.4 L 68.5238805770874 91.9 Z " />
</g>
</svg>
