<svg xmlns="http://www.w3.org/2000/svg" xmlns:xlink="http://www.w3.org/1999/xlink" version="1.1" baseProfile="full" viewBox="0 0 200 200" width="200" height="200">
<g fill="black">
<path d="M 27.0 161.2 L 27.8 156.7 L 31.5 154.0 L 35.8 153.2 L 39.5 152.3 L 42.7 151.3 L 45.5 150.1 L 47.8 148.8 L 49.7 147.3 L 51.4 145.6 L 52.7 143.5 L 53.8 140.9 L 54.2 137.9 L 56.0 137.7 L 56.5 141.0 L 56.8 144.4 L 56.4 147.8 L 55.1 151.1 L 53.2 154.2 L 50.5 157.1 L 47.3 159.7 L 43.4 161.9 L 39.1 163.9 L 34.2 165.7 L 29.7 164.9 Z M 39.2 119.9625 L 38.5 120.2 L 32.7 122.0 L 26.5 123.5 L 20.0 124.6 L 19.5 122.9 L 25.2 119.9 L 30.7 117.0 L 35.9 114.2 L 40.9 111.4 L 45.5 108.6 L 49.8 105.8 L 53.8 102.9 L 57.6 100.0 L 61.0 97.0 L 62.244034671783446 95.79609546661376 L 61.5 96.2 L 57.9 98.0 L 54.1 99.7 L 50.3 101.2 L 46.3 102.7 L 42.3 104.0 L 38.1 105.2 L 33.9 106.2 L 29.5 106.9 L 25.0 107.6 L 24.5 105.9 L 28.4 103.9 L 32.2 101.7 L 35.9 99.6 L 42.9 95.4 L 46.2 93.3 L 49.4 91.1 L 52.5 88.9 L 55.4 86.7 L 56.59912023544312 85.74897356033325 L 55.325225257873534 84.26276273727417 L 53.7 85.1 L 50.2 86.6 L 46.4 88.1 L 42.3 89.4 L 38.1 90.6 L 33.5 91.7 L 28.6 92.6 L 23.6 93.6 L 23.0 91.9 L 27.6 89.7 L 31.9 87.3 L 35.8 85.1 L 39.5 83.0 L 42.8 80.9 L 45.9 78.8 L 47.925 77.3 L 22.6 77.3 L 22.6 73.3 L 68.0 73.3 L 69.675 66.6 L 43.922477054595944 66.6 L 43.4 68.3 L 30.1 70.5 L 39.2 41.0 L 50.1 46.5 L 52.3 49.2 L 49.00247735977173 50.07104368209839 L 48.87064218521118 50.5 L 73.4 50.5 L 79.4 45.5 L 90.4 54.5 L 85.4 57.5 L 83.57354049682617 58.26102476119995 L 80.33119268417359 73.3 L 85.0777777671814 73.3 L 91.3 66.3 L 99.3 73.3 L 99.3 77.3 L 66.5 77.3 L 62.9 79.7 L 60.0 81.6 L 57.725 82.96499996185302 L 59.0 83.9 L 63.2 87.1 L 66.8 90.5 L 69.8 94.0 L 70.3586766242981 94.80449438095093 L 70.9 94.5 L 73.7 92.5 L 76.4 90.6 L 78.9 88.8 L 81.2 87.0 L 83.3 85.3 L 85.2 83.6 L 87.0 82.0 L 88.5 80.4 L 89.1001685142517 79.70749788284301 L 89.0 79.6 L 89.59318180084229 79.13863639831543 L 89.8 78.9 L 89.83772764205932 78.94843406677246 L 89.9 78.9 L 97.2 88.4 L 97.5 92.0 L 93.1967212677002 90.32650270462037 L 92.6 90.6 L 90.1 91.7 L 87.5 92.7 L 84.7 93.7 L 81.7 94.6 L 78.6 95.5 L 75.3 96.2 L 71.9 96.9 L 71.82814569473267 96.92052984237671 L 72.02807016372681 97.2084210395813 L 73.0 97.5 L 76.1 98.1 L 79.1 98.8 L 81.9 99.6 L 84.6 100.5 L 87.3 101.5 L 89.8 102.5 L 92.2 103.6 L 94.5 104.8 L 96.7 106.1 L 98.7 110.2 L 97.3 114.6 L 93.2 116.6 L 88.8 115.2 L 87.6 113.6 L 86.1 112.0 L 84.5 110.3 L 82.8 108.7 L 80.9 107.0 L 78.9 105.2 L 76.8 103.5 L 74.5 101.7 L 74.22459020614625 101.48196725845337 L 75.4 105.4 L 75.9 109.5 L 75.7 113.7 L 74.7 117.9 L 73.6 120.2 L 72.2 122.3 L 70.7 124.2 L 68.9 126.0 L 67.0 127.5 L 64.8 128.7 L 62.6 129.6 L 60.2 130.2 L 57.7 130.6 L 55.2 130.7 L 55.2 124.7 L 39.2 121.7 Z M 115.2 120.87903223037719 L 113.5 121.4 L 106.9 123.1 L 100.29710140228272 124.45942029953002 L 106.0 125.6 L 109.0 127.6 L 105.50201616287231 129.69879035949708 L 105.17984762191773 132.35048475265503 L 106.7 138.6 L 109.6 145.2 L 113.4 151.0 L 117.0714352607727 154.81829271316528 L 120.4 153.3 L 125.9 150.9 L 131.3 148.7 L 136.5 146.6 L 141.7 144.4 L 146.6 142.4 L 151.4 140.3 L 156.0 138.3 L 160.5 136.2 L 163.90760431289672 134.61506776809694 L 163.9 134.6 L 163.91372919082642 134.61221895217895 L 164.8 134.2 L 165.56173362731934 136.07894287109374 L 173.9 143.5 L 174.1 146.6 L 170.16011610031128 144.96343278884888 L 169.3 145.3 L 164.6 146.9 L 159.7 148.3 L 154.7 149.8 L 149.6 151.2 L 144.3 152.5 L 138.8 153.8 L 133.2 155.0 L 127.4 156.1 L 121.4 157.0 L 119.7257227897644 157.18903131484984 L 124.7 160.9 L 132.3 165.1 L 141.3 168.8 L 151.7 172.0 L 163.6 174.7 L 177.0 176.9 L 186.8 178.5 L 174.9 190.0 L 160.9 187.0 L 148.3 183.3 L 137.2 179.0 L 127.5 174.1 L 119.2 168.4 L 112.5 162.1 L 107.4 155.0 L 104.1 147.4 L 102.99677419662476 141.51612901687622 L 101.5 146.1 L 96.5 154.9 L 89.7 162.6 L 81.2 169.3 L 71.1 174.9 L 59.5 179.5 L 46.3 183.1 L 31.5 185.7 L 15.1 187.3 L 14.8 185.5 L 30.7 182.0 L 44.8 177.9 L 57.1 173.3 L 67.6 168.2 L 76.2 162.4 L 83.0 156.1 L 88.1 149.3 L 91.6 142.1 L 93.5 134.2 L 94.0 125.6 L 94.0 125.4319444656372 L 92.9 125.6 L 92.4 123.9 L 99.0 120.9 L 105.2 118.1 L 111.1 115.3 L 116.8 112.5 L 122.1 109.6 L 127.0 106.7 L 131.7 103.7 L 136.0 100.7 L 140.0 97.6 L 142.19421491622924 95.6495867729187 L 141.86387434005738 95.05497379302979 L 137.7 97.2 L 134.1 98.8 L 130.4 100.3 L 126.5 101.7 L 122.5 103.0 L 118.3 104.2 L 113.9 105.3 L 109.3 106.2 L 104.6 107.2 L 104.1 105.5 L 108.2 103.2 L 112.2 100.9 L 116.0 98.7 L 119.6 96.6 L 123.1 94.4 L 126.3 92.3 L 129.4 90.2 L 132.3 88.1 L 134.9 86.0 L 135.01662197113038 85.90203752517701 L 133.90514879226686 84.76277751922608 L 131.1 85.9 L 127.3 87.4 L 123.2 88.7 L 118.9 89.9 L 114.3 91.0 L 109.6 91.8 L 104.6 92.6 L 104.1 90.9 L 108.6 88.8 L 112.7 86.5 L 116.6 84.3 L 120.3 82.2 L 123.8 80.1 L 127.0 78.0 L 129.34761905670166 76.3 L 103.6 76.3 L 103.6 72.3 L 117.8 72.3 L 113.6785234451294 68.1785234451294 L 113.5 68.2 L 113.55260276794434 68.05260276794434 L 110.1 64.6 L 116.7677248954773 59.04356260299683 L 123.1 41.3 L 133.8 47.2 L 135.9 50.1 L 132.47932748794557 50.860149478912355 L 132.42886600494384 51.0 L 150.9 51.0 L 156.9 46.0 L 158.91090145111085 47.64528303146362 L 160.5 45.5 L 162.4 43.0 L 164.2 40.6 L 165.9 38.4 L 167.4 36.3 L 168.18000001907347 35.1 L 35.452777767181395 35.1 L 35.5 36.8 L 35.1 40.3 L 34.4 43.6 L 33.2 46.8 L 31.6 49.8 L 29.4 52.4 L 26.8 54.8 L 23.9 56.8 L 19.3 56.9 L 16.0 53.7 L 15.9 49.2 L 19.1 45.8 L 21.0 45.3 L 22.8 44.5 L 24.5 43.5 L 26.1 42.2 L 27.6 40.5 L 29.0 38.3 L 30.2 35.8 L 31.3 32.8 L 32.3 29.4 L 32.6 25.6 L 34.4 25.5 L 34.9 29.4 L 35.12368421554565 31.1 L 95.5 31.1 L 95.5 11.8 L 107.5 13.8 L 110.5 15.8 L 107.5 17.6 L 107.5 31.1 L 170.3 31.1 L 171.0199999809265 30.5 L 171.8 29.2 L 172.1845070838928 29.529577445983886 L 176.3 26.1 L 187.3 35.1 L 182.3 38.1 L 175.4780821800232 40.94246578216553 L 175.4 41.0 L 171.0 43.8 L 168.5 45.3 L 165.9 46.9 L 163.1 48.5 L 161.19641256332397 49.51524667739868 L 167.9 55.0 L 162.9 58.0 L 160.69811849594117 58.9174506187439 L 156.6108374595642 72.3 L 165.01818180084229 72.3 L 173.2 63.3 L 183.2 72.3 L 183.2 76.3 L 148.65652170181275 76.3 L 144.7 78.9 L 141.6 80.9 L 138.3 82.7 L 136.6263958930969 83.51289339065552 L 137.3270270347595 83.96129732131958 L 137.4 83.9 L 137.53588619232178 84.09496717453003 L 137.7 84.2 L 142.2 87.3 L 146.0 90.6 L 147.6726773262024 92.37405166625976 L 148.4 92.0 L 151.6 89.9 L 154.6 87.9 L 157.4 86.1 L 160.0 84.3 L 162.4 82.6 L 164.5 81.0 L 166.4 79.5 L 168.1 78.0 L 168.78875741958618 77.31124258041382 L 168.7 77.2 L 168.79534883499144 77.30465116500855 L 169.5 76.6 L 173.24211978912354 82.18525342941284 L 176.9 86.2 L 177.0 89.7 L 172.8868194580078 87.97994270324708 L 171.5 88.5 L 169.0 89.4 L 166.2 90.3 L 163.3 91.2 L 160.1 92.1 L 156.8 92.9 L 154.30067567825319 93.4554054260254 L 155.2 94.6 L 157.7 97.0 L 160.2 99.1 L 162.7 101.0 L 165.4 102.6 L 168.1 104.0 L 171.0 105.2 L 174.0 106.3 L 177.2 107.1 L 180.6 107.7 L 188.7 110.0 L 177.0 120.4 L 173.0 118.7 L 169.3 116.7 L 165.9 114.5 L 162.7 112.0 L 160.0 109.2 L 157.5 106.3 L 155.4 103.1 L 153.7 99.7 L 152.5 96.1 L 151.8359661102295 93.98716497421265 L 149.56633787155153 94.4649814605713 L 152.0 97.8 L 154.0 101.7 L 155.4 105.8 L 156.0 110.1 L 155.7 114.5 L 154.7 118.9 L 153.6 121.1 L 152.3 123.3 L 150.7 125.2 L 149.0 126.9 L 147.0 128.4 L 144.9 129.6 L 142.6 130.6 L 140.2 131.2 L 137.8 131.6 L 135.2 131.7 L 135.2 125.7 L 115.2 122.7 Z M 128.1 66.6 L 122.4 72.3 L 143.98544597625732 72.3 L 145.93896713256837 66.6 Z M 130.98556699752808 55.0 L 128.24329900741577 62.6 L 147.30985918045045 62.6 L 149.91455402374268 55.0 Z M 47.64128437042236 54.5 L 45.151834869384764 62.6 L 70.675 62.6 L 72.7 54.5 Z M 145.5 109.6 L 145.7699472427368 107.35043935775757 L 141.8 109.7 L 136.7 112.4 L 131.3 114.9 L 125.7 117.3 L 119.7 119.5 L 119.04736843109131 119.7 L 135.2 119.7 L 136.6 119.6 L 137.8 119.5 L 138.8 119.2 L 140.4 118.4 L 141.1 117.9 L 141.8 117.2 L 142.4 116.4 L 143.0 115.4 L 143.6 114.2 L 144.8 111.9 Z M 57.7 118.5 L 58.7 118.2 L 59.6 117.9 L 60.4 117.4 L 61.1 116.9 L 61.8 116.2 L 62.4 115.4 L 63.0 114.4 L 63.6 113.2 L 64.7 111.1 L 65.4 108.9 L 65.62933330535888 107.52399997711181 L 63.8 108.7 L 59.2 111.4 L 54.5 113.8 L 49.4 116.1 L 44.1 118.3 L 42.921052646636966 118.7 L 56.6 118.7 Z " />
</g>
</svg>
