<svg xmlns="http://www.w3.org/2000/svg" xmlns:xlink="http://www.w3.org/1999/xlink" version="1.1" baseProfile="full" viewBox="0 0 200 200" width="200" height="200">
<g fill="black">
<path d="M 159.0 183.8 L 149.8 179.5 L 141.3 174.5 L 135.26052322387696 170.18608798980713 L 126.9 174.9 L 116.6 179.5 L 105.4 183.5 L 93.2 186.9 L 80.2 189.5 L 79.7 187.7 L 92.1 183.2 L 103.5 178.5 L 113.9 173.5 L 123.2 168.2 L 128.6130841255188 164.59127721786498 L 126.7 162.9 L 120.5 156.3 L 115.2 149.1 L 110.9 141.3 L 107.87831325531006 133.7 L 94.0 133.7 L 94.0 129.7 L 158.0 129.7 L 164.0 124.7 L 175.0 133.7 L 170.0 136.7 L 167.36189222335815 137.79921159744262 L 164.7 142.5 L 159.1 150.2 L 152.4 157.3 L 144.8 163.7 L 143.99102725982667 164.26152229309082 L 146.5 165.7 L 154.5 169.5 L 163.2 172.8 L 172.5 175.6 L 182.4 177.8 L 191.2 179.9 L 179.5 190.7 L 168.9 187.5 Z M 81.0 124.1 L 84.0 126.1 L 81.0 127.9 L 81.0 150.4 L 80.57463474273682 153.0682002067566 L 89.8 152.0 L 99.8 151.0 L 100.1 152.8 L 90.5 155.7 L 81.3 158.3 L 79.25739841461181 158.85707321166993 L 77.3 163.6 L 73.3 169.1 L 68.0 173.9 L 61.7 178.0 L 54.2 181.4 L 45.7 184.3 L 36.0 186.7 L 25.1 188.4 L 13.1 189.5 L 12.8 187.7 L 24.4 184.7 L 34.6 181.5 L 43.5 178.1 L 51.0 174.5 L 57.2 170.8 L 62.0 166.8 L 65.5 162.8 L 65.73587474822997 162.3711368560791 L 64.0 162.8 L 48.4 166.7 L 41.1 168.4 L 34.3 169.9 L 27.9 171.4 L 26.034453773498534 171.80420169830322 L 24.4 175.4 L 21.9 172.7 L 18.0 161.2 L 19.9 160.9 L 26.0 160.2 L 30.0 159.7 L 30.0 127.8 L 42.0 129.8 L 45.0 131.8 L 42.0 133.6 L 42.0 158.1351351737976 L 46.7 157.5 L 54.4 156.5 L 62.6 155.4 L 68.80773000717163 154.5338050842285 L 69.0 150.4 L 69.0 122.1 Z M 110.33043479919434 133.7 L 114.4 139.1 L 119.9 145.5 L 125.8 151.3 L 132.1 156.6 L 135.782888507843 159.16200942993163 L 138.9 156.6 L 145.2 150.3 L 150.6 143.6 L 155.0 136.6 L 156.3904109954834 133.7 Z M 37.8 123.0 L 37.8 73.1 L 49.8 79.1 L 148.2 79.1 L 154.2 74.1 L 165.2 83.1 L 160.2 87.1 L 160.2 117.0 L 148.2 123.0 L 148.2 117.0 L 49.8 117.0 Z M 49.8 100.1 L 49.8 113.0 L 93.0 113.0 L 93.0 100.1 Z M 105.0 100.1 L 105.0 113.0 L 148.2 113.0 L 148.2 100.1 Z M 49.8 83.1 L 49.8 96.1 L 93.0 96.1 L 93.0 83.1 Z M 105.0 83.1 L 105.0 96.1 L 148.2 96.1 L 148.2 83.1 Z M 142.3 70.3 L 141.1 68.7 L 139.8 67.1 L 138.3 65.5 L 136.7 63.9 L 134.8 62.2 L 132.8 60.4 L 130.6 58.6 L 128.1 57.2 L 128.3004454612732 56.632071304321286 L 127.9 56.8 L 127.0 55.2 L 129.7 53.3 L 132.1 51.1 L 134.3 49.0 L 136.4 47.0 L 140.1 43.3 L 141.8 41.5 L 143.2 39.8 L 144.5 38.2 L 145.10300998687745 37.39598665237427 L 145.0 37.3 L 145.9 36.4 L 153.8 45.5 L 154.3 49.1 L 149.867112827301 47.75430212020874 L 147.4 49.1 L 145.0 50.2 L 142.5 51.3 L 139.8 52.4 L 137.0 53.5 L 134.1 54.5 L 131.0 55.5 L 130.0217988014221 55.91021337509155 L 131.6 56.4 L 134.5 57.0 L 137.2 57.6 L 139.8 58.4 L 142.3 59.3 L 144.7 60.3 L 146.9 61.4 L 149.1 62.6 L 151.1 63.9 L 153.0 65.4 L 154.4 69.7 L 152.4 73.8 L 148.1 75.2 L 144.0 73.2 L 143.2 71.8 Z M 55.8 70.3 L 54.7 68.7 L 53.4 67.1 L 51.9 65.5 L 50.2 63.9 L 48.3 62.2 L 46.3 60.4 L 44.1 58.6 L 41.6 57.2 L 41.84082565307617 56.615137577056885 L 41.4 56.8 L 40.6 55.2 L 43.3 53.3 L 45.6 51.1 L 47.8 49.0 L 49.9 47.0 L 53.6 43.3 L 55.3 41.5 L 56.8 39.8 L 58.1 38.2 L 58.63333330154419 37.424242401123045 L 58.5 37.3 L 59.4 36.4 L 67.3 45.5 L 67.8 49.1 L 63.36711282730103 47.75430212020874 L 60.9 49.1 L 58.5 50.2 L 56.0 51.3 L 53.3 52.4 L 50.5 53.5 L 47.6 54.5 L 44.5 55.5 L 43.545412158966066 55.90031108856201 L 45.1 56.4 L 48.0 57.0 L 50.7 57.6 L 53.3 58.4 L 55.8 59.3 L 58.2 60.3 L 60.5 61.4 L 62.6 62.6 L 64.6 63.9 L 66.6 65.4 L 68.0 69.7 L 66.0 73.8 L 61.6 75.2 L 57.5 73.2 L 56.7 71.8 Z M 99.0 70.3 L 97.9 68.7 L 96.6 67.1 L 95.1 65.5 L 93.4 63.9 L 91.6 62.2 L 87.4 58.6 L 84.8 57.2 L 85.02219572067261 56.66038188934326 L 84.7 56.8 L 83.8 55.2 L 86.5 53.3 L 88.8 51.1 L 91.0 49.0 L 93.1 47.0 L 95.1 45.1 L 96.9 43.3 L 98.5 41.5 L 100.0 39.8 L 101.3 38.2 L 101.83333330154419 37.424242401123045 L 101.7 37.3 L 102.27377052307129 36.78360652923584 L 102.4 36.6 L 102.43502159118653 36.63848056793213 L 102.7 36.4 L 110.5 45.5 L 111.1 49.1 L 106.65918369293213 47.75189504623413 L 106.4 47.9 L 104.1 49.1 L 101.7 50.2 L 99.2 51.3 L 96.6 52.4 L 93.8 53.5 L 90.8 54.5 L 87.7 55.5 L 86.76309146881104 55.90599365234375 L 88.3 56.4 L 91.2 57.0 L 94.0 57.6 L 96.6 58.4 L 99.1 59.3 L 101.4 60.3 L 103.7 61.4 L 105.8 62.6 L 107.9 63.9 L 109.8 65.4 L 111.2 69.7 L 109.2 73.8 L 104.8 75.2 L 100.7 73.2 L 100.0 71.8 Z M 13.2 50.5 L 13.2 45.9 L 16.5 42.6 L 18.4 42.1 L 20.3 41.4 L 22.0 40.5 L 23.6 39.3 L 25.1 37.7 L 26.5 35.7 L 27.7 33.3 L 28.8 30.5 L 29.8 27.3 L 30.1 23.6 L 31.9 23.5 L 32.3 27.3 L 32.50833330154419 28.8 L 94.0 28.8 L 94.0 10.4 L 106.0 12.4 L 109.0 14.4 L 106.0 16.2 L 106.0 28.8 L 170.0 28.8 L 170.67659578323364 28.2361701965332 L 170.7 28.2 L 171.5 26.7 L 171.98754024505615 27.143716430664064 L 176.0 23.8 L 187.0 32.8 L 182.0 35.8 L 173.6 39.3 L 172.7 39.9 L 170.4 41.2 L 167.9 42.6 L 165.3 44.1 L 162.5 45.6 L 159.4 47.1 L 156.5 49.0 L 155.4 47.5 L 157.9 45.1 L 160.0 42.5 L 162.0 40.1 L 163.8 37.8 L 165.5 35.6 L 167.0 33.6 L 167.58947372436523 32.8 L 32.8542857170105 32.8 L 32.9 34.4 L 32.5 37.8 L 31.8 41.0 L 30.5 44.1 L 28.8 46.9 L 26.6 49.5 L 24.0 51.8 L 21.0 53.7 L 16.4 53.7 Z " />
</g>
</svg>
