<svg xmlns="http://www.w3.org/2000/svg" xmlns:xlink="http://www.w3.org/1999/xlink" version="1.1" baseProfile="full" viewBox="0 0 200 200" width="200" height="200">
<g fill="black">
<path d="M 170.8 181.9 L 169.0 180.1 L 166.8 178.2 L 164.3 176.3 L 161.4 174.3 L 158.2 172.4 L 154.6 170.4 L 150.7 168.3 L 146.4 166.5 L 146.9 164.7 L 151.6 165.5 L 156.1 166.2 L 160.3 167.1 L 164.2 168.1 L 167.8 169.3 L 171.3 170.7 L 174.4 172.1 L 177.3 173.8 L 180.0 175.6 L 182.5 177.7 L 183.8 182.1 L 181.8 186.1 L 177.4 187.5 L 173.3 185.4 L 172.2 183.7 Z M 134.4 170.4 L 135.0 174.0 L 130.86467390060426 172.81847829818724 L 128.8 174.1 L 125.6 175.9 L 122.2 177.7 L 118.5 179.3 L 114.6 181.0 L 110.4 182.6 L 105.9 184.1 L 101.2 185.4 L 96.2 186.9 L 95.5 185.2 L 99.9 182.6 L 103.9 179.8 L 107.7 177.3 L 111.2 174.8 L 114.5 172.4 L 117.4 170.1 L 120.1 167.9 L 122.4 165.7 L 124.5 163.6 L 125.54577255249023 162.43119535446166 L 125.4 162.3 L 126.4 161.4 Z M 83.4 168.5 L 80.7 163.6 L 78.6 157.6 L 77.0 150.5 L 75.80272731781005 142.3186363220215 L 75.5 145.8 L 72.1 148.8 L 67.5 148.4 L 64.5 145.0 L 64.1 142.4 L 63.6 139.9 L 62.6 135.1 L 62.0 132.9 L 61.4 130.6 L 60.8 128.4 L 60.2 126.3 L 59.6 124.1 L 59.4 123.73999996185303 L 59.4 160.60810813903808 L 59.6 160.5 L 67.2 156.7 L 71.2 155.0 L 75.1 153.2 L 76.1 154.7 L 69.9 160.7 L 66.8 163.6 L 63.6 166.4 L 54.3 174.5 L 51.2 177.1 L 48.38867082595825 179.53648529052734 L 48.5 183.6 L 45.2 182.3 L 36.6 173.6 L 38.2 172.5 L 47.4 167.24285717010497 L 47.4 146.24117650985718 L 44.5 148.8 L 40.0 148.4 L 36.9 145.0 L 36.5 142.4 L 36.0 139.9 L 35.0 135.1 L 34.4 132.9 L 33.8 130.6 L 33.2 128.4 L 32.6 126.3 L 32.0 124.1 L 31.0 122.3 L 32.4 121.2 L 34.0 122.7 L 35.8 124.2 L 37.6 125.8 L 39.3 127.6 L 41.0 129.5 L 42.5 131.6 L 44.1 133.8 L 46.9 138.6 L 47.4 139.52857141494752 L 47.4 118.08484849929809 L 44.6 120.8 L 40.0 120.5 L 36.9 117.2 L 36.7 115.5 L 36.4 113.7 L 36.0 111.8 L 35.6 110.0 L 35.1 108.1 L 34.5 106.1 L 33.8 104.2 L 33.1 102.2 L 32.3 100.1 L 31.75714282989502 99.28571424484252 L 30.9 99.8 L 30.9 163.691428565979 L 31.1 163.6 L 34.7 161.9 L 38.3 160.4 L 42.0 158.9 L 45.7 157.2 L 46.7 158.7 L 43.7 161.4 L 40.8 164.2 L 37.8 166.9 L 34.9 169.4 L 31.9 171.9 L 28.9 174.3 L 26.0 176.7 L 20.714103794097902 180.89226245880127 L 20.6 185.0 L 17.3 183.5 L 9.3 174.4 L 11.0 173.3 L 14.2 171.7 L 19.76875 169.0 L 18.9 169.0 L 18.9 94.0 L 30.9 96.0 L 33.9 98.0 L 33.525 98.225 L 34.0 98.7 L 36.0 99.9 L 39.6 102.7 L 41.2 104.3 L 42.7 105.9 L 44.2 107.6 L 45.6 109.3 L 46.9 111.2 L 47.4 111.99166669845582 L 47.4 93.0 L 59.4 95.0 L 62.4 97.0 L 60.8375 97.9375 L 61.6 98.7 L 63.6 99.9 L 65.4 101.3 L 67.1 102.7 L 68.8 104.3 L 70.3 105.9 L 71.8 107.6 L 73.2 109.3 L 74.00704698562622 110.47953023910523 L 74.0 110.2 L 74.0 96.9 L 74.02940454483033 96.90024499893188 L 74.1 94.5 L 86.0 97.0 L 89.0 99.1 L 86.0 100.83999996185302 L 86.0 110.0 L 86.3 121.7 L 86.9 132.0 L 87.7 140.9 L 88.8 148.4 L 89.90607738494873 153.1403314590454 L 93.4 138.0 L 95.4 138.0 L 93.54774188995361 162.07935485839843 L 94.3 162.9 L 94.6 163.1 L 98.4 165.7 L 99.3 170.2 L 96.6 173.9 L 92.2 174.8 L 87.1 172.5 Z M 120.2 105.6 L 160.7 105.6 L 166.7 100.6 L 177.7 109.6 L 172.7 113.6 L 172.7 158.5 L 160.7 164.5 L 160.7 158.5 L 120.2 158.5 L 108.2 164.5 L 108.2 99.6 Z M 120.2 142.2 L 120.2 154.5 L 160.7 154.5 L 160.7 142.2 Z M 64.0 113.7 L 63.6 111.8 L 63.2 110.0 L 62.6 108.1 L 62.1 106.1 L 61.4 104.2 L 60.7 102.2 L 59.9 100.1 L 59.4 99.35 L 59.4 121.6714285850525 L 60.0 121.2 L 61.5 122.7 L 63.4 124.2 L 65.2 125.8 L 66.9 127.6 L 68.6 129.5 L 70.1 131.6 L 71.7 133.8 L 74.5 138.6 L 75.65027723312377 140.7362292289734 L 74.9 132.9 L 74.3 122.1 L 74.21789712905884 118.84325132369995 L 72.2 120.8 L 67.6 120.5 L 64.5 117.2 L 64.3 115.5 Z M 120.2 125.9 L 120.2 138.2 L 160.7 138.2 L 160.7 125.9 Z M 120.2 109.6 L 120.2 121.9 L 160.7 121.9 L 160.7 109.6 Z M 142.8 87.9 L 156.0 87.9 L 156.9 87.7 L 157.5 87.5 L 158.1 87.2 L 158.2 87.0 L 158.4 86.7 L 158.6 86.1 L 158.7 85.2 L 158.8 83.9 L 158.8 57.4 L 124.2 57.4 L 124.2 53.4 L 158.8 53.4 L 158.8 36.6 L 170.1947826385498 38.499130439758304 L 170.5 38.1 L 171.3 36.0 L 172.0 34.1 L 172.7 32.3 L 173.3 30.6 L 173.9 29.0 L 173.9666666984558 28.8 L 106.29230766296386 28.8 L 106.4 29.5 L 106.6 32.0 L 106.6 34.3 L 106.4 36.6 L 105.8 38.8 L 105.0 41.0 L 103.7 43.0 L 102.0 44.8 L 97.5 45.5 L 93.8 42.9 L 93.26007747650146 39.35193796157837 L 88.7 43.0 L 88.7 87.0 L 76.7 93.0 L 76.7 87.0 L 29.1 87.0 L 17.1 93.0 L 17.1 30.0 L 26.297101402282713 34.598550701141356 L 30.5 30.9 L 33.0 28.8 L 35.5 26.6 L 37.8 24.4 L 40.2 22.2 L 42.4 19.9 L 44.7 17.6 L 46.19537982940674 15.890994548797607 L 46.1 15.8 L 47.0 15.0 L 54.8 24.1 L 55.4 27.6 L 51.43303680419922 26.395743370056152 L 45.9 29.9 L 39.7 33.1 L 36.6 34.5 L 33.3 35.8 L 30.1 36.9 L 29.1 37.16470584869385 L 29.1 58.0 L 35.577777767181395 58.0 L 41.8 51.0 L 49.8 58.0 L 49.8 62.0 L 29.1 62.0 L 29.1 83.0 L 76.7 83.0 L 76.7 62.0 L 58.7 62.0 L 58.7 58.0 L 76.7 58.0 L 76.7 39.0 L 56.9 39.0 L 56.9 35.0 L 76.7 35.0 L 82.7 30.0 L 93.13634309768676 38.5388261795044 L 93.1 38.3 L 95.8 34.6 L 96.3 34.8 L 97.0 34.7 L 97.8 34.3 L 98.8 33.5 L 99.7 32.3 L 100.7 30.8 L 101.6 28.9 L 102.4 26.7 L 103.2 24.2 L 103.4 21.4 L 105.2 21.3 L 105.4 24.2 L 105.53333330154419 24.8 L 134.5 24.8 L 134.5 10.6 L 146.5 12.6 L 149.5 14.6 L 146.5 16.4 L 146.5 24.8 L 174.4 24.8 L 175.09677419662475 24.219354820251464 L 175.2 23.6 L 175.56909294128417 23.825755882263184 L 180.4 19.8 L 191.4 28.8 L 186.4 31.8 L 179.04516124725342 34.86451616287231 L 179.0 34.9 L 177.4 36.0 L 175.7 37.1 L 174.0 38.3 L 172.1 39.4 L 172.06000003814697 39.439999961853026 L 173.8 40.6 L 170.8 42.4 L 170.8 53.4 L 174.6 53.4 L 179.1 47.4 L 185.1 53.4 L 185.1 57.4 L 170.8 57.4 L 170.8 83.9 L 170.7 86.5 L 170.2 89.0 L 169.4 91.4 L 168.2 93.6 L 166.5 95.7 L 164.5 97.3 L 162.3 98.5 L 159.9 99.3 L 157.4 99.8 L 154.8 99.9 L 154.8 93.9 L 142.8 90.9 Z M 131.8 42.2 L 133.1 45.5 L 129.21735534667968 45.299173545837405 L 128.8 45.8 L 125.7 49.3 L 122.5 52.7 L 119.1 56.0 L 116.95945949554444 57.84324321746826 L 120.3 58.4 L 123.3 60.4 L 120.3 62.2 L 120.3 92.3 L 108.3 98.3 L 108.3 64.87692308425903 L 108.0 65.1 L 104.0 67.9 L 99.8 70.5 L 95.4 72.9 L 94.3 71.4 L 97.5 67.7 L 103.7 60.5 L 106.7 56.9 L 109.5 53.4 L 112.3 49.8 L 114.9 46.3 L 119.7 39.1 L 121.39279537200927 36.253025913238524 L 121.3 36.2 L 122.4 34.7 Z M 140.3 75.0 L 139.8 73.9 L 139.0 72.6 L 137.8 71.2 L 136.3 69.8 L 134.5 68.2 L 132.5 66.6 L 130.2 64.9 L 127.5 63.6 L 128.1 61.9 L 131.0 62.8 L 134.0 63.2 L 136.7 63.8 L 139.2 64.4 L 141.5 65.1 L 143.7 65.8 L 145.7 66.7 L 147.5 67.8 L 149.3 69.0 L 150.9 70.6 L 151.4 75.1 L 148.6 78.8 L 144.1 79.3 L 140.4 76.5 L 140.5 75.9 Z " />
</g>
</svg>
