<svg xmlns="http://www.w3.org/2000/svg" xmlns:xlink="http://www.w3.org/1999/xlink" version="1.1" baseProfile="full" viewBox="0 0 200 200" width="200" height="200">
<g fill="black">
<path d="M 162.8 183.0 L 158.4 181.2 L 153.4 179.4 L 147.8 177.5 L 141.6 175.7 L 134.8 173.9 L 127.4 172.0 L 119.4 170.0 L 110.8 167.9 L 111.1 166.1 L 119.9 166.2 L 128.2 166.7 L 136.0 167.4 L 143.1 168.3 L 149.8 169.3 L 155.9 170.4 L 161.4 171.6 L 166.5 173.0 L 171.0 174.5 L 175.2 176.1 L 178.0 179.7 L 177.6 184.2 L 174.0 187.1 L 169.5 186.7 L 166.5 184.9 Z M 79.53750562667847 163.67793874740602 L 87.6 171.0 L 87.8 174.1 L 84.05406827926636 172.51968507766725 L 83.4 172.8 L 78.8 174.3 L 73.7 175.8 L 68.1 177.2 L 62.1 178.6 L 55.6 180.0 L 48.5 181.3 L 41.0 182.6 L 32.9 183.8 L 24.3 184.8 L 15.1 185.6 L 14.8 183.9 L 23.5 181.1 L 31.7 178.6 L 39.5 176.2 L 46.7 174.0 L 53.4 171.8 L 59.5 169.7 L 65.2 167.6 L 70.2 165.6 L 74.7 163.6 L 77.81152696609497 162.12202472686766 L 77.8 162.1 L 77.81988191604614 162.1180561065674 L 78.7 161.7 Z M 70.3 55.0 L 71.1 58.6 L 67.35248622894287 57.679557991027835 L 65.9 59.0 L 61.2 62.8 L 56.3 66.6 L 51.1 70.2 L 48.37946767807007 71.99657793045044 L 52.0 72.6 L 55.0 74.6 L 52.0 76.4 L 52.0 110.3 L 49.3 111.65 L 56.0 115.0 L 144.0 115.0 L 150.0 110.0 L 161.0 119.0 L 156.0 123.0 L 156.0 161.2 L 144.0 167.2 L 144.0 161.2 L 56.0 161.2 L 44.0 167.2 L 44.0 114.3 L 40.0 116.3 L 40.0 77.17068967819213 L 34.5 80.3 L 28.5 83.3 L 22.2 86.1 L 15.6 88.6 L 14.8 87.0 L 20.3 82.8 L 25.7 78.7 L 30.9 74.7 L 36.0 70.8 L 40.8 66.8 L 45.4 62.8 L 49.9 58.8 L 54.1 54.8 L 58.0 50.7 L 61.1288444519043 47.32414150238037 L 61.1 47.3 L 62.1 46.3 Z M 56.0 147.1 L 56.0 157.2 L 144.0 157.2 L 144.0 147.1 Z M 56.0 133.1 L 56.0 143.1 L 144.0 143.1 L 144.0 133.1 Z M 56.0 119.0 L 56.0 129.1 L 144.0 129.1 L 144.0 119.0 Z M 13.4 67.9 L 12.8 63.3 L 15.5 59.7 L 17.5 58.7 L 19.4 57.5 L 21.3 55.8 L 23.0 53.6 L 24.6 50.9 L 26.1 47.7 L 27.4 43.9 L 28.5 39.7 L 29.5 34.9 L 30.1 29.7 L 31.9 29.6 L 32.5 35.0 L 32.88400001525879 38.2 L 94.0 38.2 L 94.0 11.9 L 106.0 13.9 L 109.0 15.9 L 106.0 17.7 L 106.0 38.2 L 170.0 38.2 L 170.56999998092653 37.725 L 170.9 36.9 L 171.26992235183715 37.1417314529419 L 176.0 33.2 L 187.0 42.2 L 182.0 45.2 L 177.54285717010498 47.05714282989502 L 175.4 49.2 L 173.3 51.2 L 170.9 53.4 L 168.4 55.6 L 167.19697580337524 56.62479839324951 L 169.0 58.1 L 164.0 62.1 L 164.0 75.8 L 152.0 81.8 L 152.0 75.8 L 131.0 75.8 L 131.0 84.2 L 168.8181818008423 84.2 L 177.0 75.2 L 187.0 84.2 L 187.0 88.2 L 131.0 88.2 L 131.0 108.6 L 119.0 114.6 L 119.0 88.2 L 104.3039216041565 88.2 L 106.51163654327392 91.83204727172851 L 111.6 97.1 L 111.7 100.6 L 107.91672534942627 99.00704221725464 L 106.9 99.5 L 103.2 101.1 L 99.3 102.6 L 95.0 104.0 L 90.5 105.4 L 85.7 106.7 L 80.6 108.0 L 75.1 109.1 L 69.3 110.1 L 63.2 110.9 L 62.7 109.2 L 68.3 106.6 L 73.5 104.1 L 78.5 101.9 L 83.1 99.7 L 87.5 97.6 L 91.5 95.5 L 95.1 93.5 L 98.4 91.5 L 101.4 89.6 L 103.12769832611085 88.33745126724243 L 103.1 88.3 L 103.13266716003417 88.33382015228271 L 103.31578950881958 88.2 L 62.0 88.2 L 62.0 84.2 L 119.0 84.2 L 119.0 75.8 L 98.0 75.8 L 86.0 81.8 L 86.0 48.1 L 98.0 54.1 L 152.0 54.1 L 158.0 49.1 L 162.46174640655516 52.75051975250244 L 163.3 51.4 L 165.0 48.6 L 166.5 45.9 L 167.8 43.4 L 168.42608699798583 42.2 L 33.1 42.2 L 33.1 44.8 L 32.8 49.3 L 32.1 53.5 L 30.9 57.5 L 29.3 61.1 L 27.2 64.5 L 24.6 67.5 L 21.5 70.1 L 17.0 70.6 Z M 167.1 106.9 L 164.3 104.9 L 161.2 103.1 L 157.9 101.3 L 154.4 99.5 L 150.6 97.7 L 146.5 96.0 L 142.3 94.2 L 137.8 92.6 L 138.1 90.8 L 143.0 91.1 L 147.7 91.4 L 152.2 92.0 L 156.6 92.8 L 160.8 93.7 L 164.8 94.9 L 168.6 96.2 L 172.2 97.6 L 175.7 99.3 L 179.0 101.1 L 181.4 105.0 L 180.4 109.5 L 176.5 111.8 L 172.0 110.8 L 169.7 108.8 Z M 98.0 58.1 L 98.0 71.8 L 152.0 71.8 L 152.0 58.1 Z " />
</g>
</svg>
