<svg xmlns="http://www.w3.org/2000/svg" xmlns:xlink="http://www.w3.org/1999/xlink" version="1.1" baseProfile="full" viewBox="0 0 200 200" width="200" height="200">
<g fill="black">
<path d="M 15.7 179.3 L 94.0 179.3 L 94.0 164.4 L 43.1 164.4 L 43.1 160.4 L 94.0 160.4 L 94.0 143.7 L 106.0 145.7 L 109.0 147.7 L 106.0 149.5 L 106.0 160.4 L 134.8 160.4 L 144.8 150.4 L 156.8 160.4 L 156.8 164.4 L 106.0 164.4 L 106.0 179.3 L 162.2 179.3 L 172.2 169.3 L 184.2 179.3 L 184.2 183.3 L 15.7 183.3 Z M 162.0 156.8 L 154.6 154.2 L 147.6 151.3 L 140.8 148.4 L 134.3 145.2 L 128.1 141.9 L 122.2 138.4 L 116.8 134.5 L 112.65365858078003 131.1 L 92.0666666984558 131.1 L 87.3 134.4 L 79.8 138.7 L 71.4 142.8 L 61.9 146.6 L 51.5 150.2 L 40.1 153.5 L 27.6 156.5 L 14.1 159.1 L 13.7 157.3 L 26.6 152.8 L 38.5 148.4 L 49.3 144.0 L 59.0 139.6 L 67.6 135.2 L 74.4333333015442 131.1 L 17.9 131.1 L 17.9 127.1 L 80.21999998092652 127.1 L 81.5 126.2 L 86.8 121.7 L 90.9 117.3 L 93.9 113.0 L 94.4 112.2 L 103.9 119.6 L 105.3 123.0 L 101.13295555114746 122.7881163597107 L 99.3 124.9 L 96.88000001907349 127.1 L 159.0 127.1 L 169.0 117.1 L 181.0 127.1 L 181.0 131.1 L 119.35454549789429 131.1 L 124.9 133.1 L 131.1 135.3 L 137.5 137.5 L 144.1 139.7 L 151.0 141.7 L 158.0 143.6 L 165.3 145.5 L 172.8 147.2 L 180.6 148.9 L 189.2 151.0 L 177.5 161.7 L 169.6 159.3 Z M 147.2 43.8 L 150.2 45.8 L 147.2 47.6 L 147.2 59.1 L 162.6 59.1 L 162.6 46.9 L 174.6 48.9 L 177.6 50.9 L 174.6 52.7 L 174.6 63.1 L 162.6 69.1 L 162.6 63.1 L 147.2 63.1 L 147.2 75.3 L 135.45 81.175 L 145.8 82.9 L 148.8 84.9 L 145.8 86.7 L 145.8 98.4 L 160.9 98.4 L 160.9 86.1 L 172.9 88.1 L 175.9 90.1 L 172.9 91.9 L 172.9 102.4 L 160.9 108.4 L 160.9 102.4 L 145.8 102.4 L 145.8 114.9 L 133.8 120.9 L 133.8 102.4 L 118.7 102.4 L 106.7 108.4 L 106.7 86.1 L 118.7 88.1 L 121.7 90.1 L 118.7 91.9 L 118.7 98.4 L 133.8 98.4 L 133.8 80.9 L 135.2 81.13333330154418 L 135.2 63.1 L 119.8 63.1 L 107.8 69.1 L 107.8 46.9 L 119.8 48.9 L 122.8 50.9 L 119.8 52.7 L 119.8 59.1 L 135.2 59.1 L 135.2 41.8 Z M 67.0 82.9 L 70.0 84.9 L 67.0 86.7 L 67.0 98.4 L 82.1 98.4 L 82.1 86.1 L 94.1 88.1 L 97.1 90.1 L 94.1 91.9 L 94.1 102.4 L 82.1 108.4 L 82.1 102.4 L 66.2581395149231 102.4 L 65.9 103.8 L 63.6 107.5 L 60.5 110.3 L 56.8 112.6 L 52.4 114.3 L 47.4 115.8 L 41.7 117.0 L 35.3 117.9 L 28.1 118.4 L 20.2 118.7 L 20.0 117.0 L 27.6 115.0 L 34.3 112.9 L 40.1 110.9 L 45.1 108.9 L 49.0 106.8 L 52.0 104.8 L 54.0 102.9 L 54.3125 102.4 L 39.8 102.4 L 27.8 108.4 L 27.8 86.1 L 39.8 88.1 L 42.8 90.1 L 39.8 91.9 L 39.8 98.4 L 55.0 98.4 L 55.0 80.9 Z M 13.2 50.2 L 13.3 45.6 L 16.5 42.4 L 18.5 41.9 L 20.3 41.2 L 22.0 40.3 L 23.6 39.2 L 25.1 37.7 L 26.5 35.8 L 27.7 33.5 L 28.8 30.8 L 29.8 27.6 L 30.1 24.1 L 31.9 24.0 L 32.3 27.7 L 32.48571424484253 29.0 L 94.0 29.0 L 94.0 11.2 L 106.0 13.2 L 109.0 15.2 L 106.0 17.0 L 106.0 29.0 L 170.0 29.0 L 170.67826089859008 28.434782600402833 L 170.7 28.4 L 171.6 26.9 L 172.03171520233155 27.30690402984619 L 176.0 24.0 L 187.0 33.0 L 182.0 36.0 L 173.31764707565307 39.617647075653075 L 172.7 40.0 L 170.4 41.3 L 167.9 42.7 L 165.3 44.1 L 162.5 45.5 L 159.4 46.9 L 156.5 48.7 L 155.4 47.3 L 157.9 45.0 L 160.0 42.4 L 162.0 40.0 L 163.8 37.7 L 165.5 35.6 L 167.1 33.6 L 167.5666666984558 33.0 L 32.8529411315918 33.0 L 32.9 34.6 L 32.5 37.9 L 31.7 41.1 L 30.5 44.1 L 28.8 46.9 L 28.710465145111083 47.001744174957274 L 40.1 48.9 L 43.1 50.9 L 40.1 52.7 L 40.1 59.1 L 55.6 59.1 L 55.6 41.8 L 67.6 43.8 L 70.6 45.8 L 67.6 47.6 L 67.6 59.1 L 83.0 59.1 L 83.0 46.9 L 95.0 48.9 L 98.0 50.9 L 95.0 52.7 L 95.0 63.1 L 83.0 69.1 L 83.0 63.1 L 66.85 63.1 L 66.5 64.5 L 64.2 68.1 L 61.0 70.9 L 57.3 73.1 L 52.9 74.9 L 47.9 76.3 L 42.1 77.4 L 35.6 78.3 L 28.4 78.8 L 20.4 79.1 L 20.2 77.4 L 27.8 75.4 L 34.6 73.4 L 40.5 71.4 L 45.5 69.3 L 49.6 67.3 L 52.6 65.3 L 54.6 63.4 L 54.7875 63.1 L 40.1 63.1 L 28.1 69.1 L 28.1 47.69545450210571 L 26.6 49.4 L 24.0 51.7 L 21.0 53.5 L 16.4 53.4 Z " />
</g>
</svg>
