<svg xmlns="http://www.w3.org/2000/svg" xmlns:xlink="http://www.w3.org/1999/xlink" version="1.1" baseProfile="full" viewBox="0 0 200 200" width="200" height="200">
<g fill="black">
<path d="M 148.7 184.9 L 138.2 181.4 L 128.9 177.1 L 120.9 172.0 L 114.2 166.0 L 108.8 159.2 L 105.0 151.8 L 103.52799997329711 146.61599998474122 L 102.3 150.3 L 97.3 158.9 L 90.7 166.4 L 82.5 172.8 L 72.8 178.1 L 61.6 182.4 L 49.0 185.6 L 35.0 187.8 L 19.4 188.9 L 19.2 187.1 L 34.3 184.0 L 47.7 180.4 L 59.4 176.2 L 69.4 171.3 L 77.6 165.9 L 84.1 159.9 L 89.0 153.3 L 92.4 146.3 L 94.3 138.5 L 94.9 130.0 L 94.9 127.6 L 106.9 130.2 L 109.9 132.3 L 106.35091934204101 134.3181046485901 L 105.63894739151002 139.65789470672607 L 106.7 142.5 L 110.2 149.1 L 114.6 154.9 L 118.47465877532959 158.55533847808837 L 122.2 156.1 L 126.4 153.2 L 134.4 148.0 L 138.1 145.5 L 141.7 143.1 L 145.2 140.7 L 148.4 138.3 L 151.5 136.0 L 153.59023838043214 134.41430196762084 L 153.5 134.3 L 153.59845943450927 134.40806522369385 L 154.4 133.8 L 157.96283187866212 139.1982300758362 L 161.7 143.3 L 161.9 146.8 L 158.15637063980103 145.262437915802 L 157.5 145.6 L 153.9 147.4 L 150.1 149.2 L 146.1 151.0 L 142.0 152.8 L 137.7 154.5 L 133.2 156.2 L 128.5 157.8 L 123.6 159.2 L 120.24512920379638 160.13936386108398 L 126.1 164.2 L 133.4 167.9 L 141.9 171.0 L 151.5 173.5 L 162.4 175.3 L 174.5 176.4 L 185.2 177.4 L 173.3 189.6 L 160.4 187.6 Z M 37.6 164.2 L 37.8 159.6 L 41.0 156.4 L 44.2 155.4 L 47.2 154.3 L 49.9 152.9 L 52.4 151.4 L 54.7 149.6 L 56.8 147.6 L 58.7 145.3 L 60.5 142.8 L 62.2 139.9 L 63.4 136.6 L 65.2 136.9 L 64.6 144.3 L 63.7 147.8 L 62.4 151.3 L 60.6 154.6 L 58.4 157.6 L 55.7 160.5 L 52.7 163.1 L 49.2 165.5 L 45.4 167.6 L 40.8 167.4 Z M 107.0 48.4 L 110.0 50.4 L 107.0 52.2 L 107.0 78.8 L 102.0 81.3 L 146.9 81.3 L 152.9 76.3 L 163.9 85.3 L 158.9 89.3 L 158.9 126.0 L 146.9 132.0 L 146.9 126.0 L 53.0 126.0 L 53.0 138.0 L 41.0 144.0 L 41.0 75.3 L 53.0 81.3 L 95.0 81.3 L 95.0 46.4 Z M 53.0 105.1 L 53.0 122.0 L 146.9 122.0 L 146.9 105.1 Z M 53.0 85.3 L 53.0 101.1 L 146.9 101.1 L 146.9 85.3 Z M 65.3 74.8 L 63.8 72.8 L 62.0 70.6 L 59.9 68.4 L 57.5 66.1 L 54.8 63.8 L 51.8 61.3 L 48.6 58.7 L 44.9 56.4 L 45.7 54.7 L 49.9 56.2 L 53.9 57.5 L 57.7 59.0 L 61.2 60.5 L 64.5 62.2 L 67.6 63.9 L 70.3 65.8 L 72.9 67.8 L 75.2 69.9 L 77.3 72.1 L 78.1 76.6 L 75.5 80.4 L 71.0 81.2 L 67.2 78.6 L 66.4 76.8 Z M 13.3 63.4 L 12.9 58.8 L 15.7 55.2 L 17.7 54.4 L 19.6 53.2 L 21.4 51.6 L 23.1 49.6 L 24.7 47.1 L 26.2 44.1 L 27.5 40.6 L 28.6 36.6 L 29.6 32.2 L 30.1 27.2 L 31.9 27.2 L 32.5 32.2 L 32.80208330154419 35.1 L 94.0 35.1 L 94.0 10.3 L 106.0 12.3 L 109.0 14.3 L 106.0 16.1 L 106.0 35.1 L 170.0 35.1 L 170.55652170181276 34.636231899261475 L 171.0 33.7 L 171.37275743484497 33.956035423278806 L 176.0 30.1 L 187.0 39.1 L 182.0 42.1 L 177.190625 44.10390625 L 175.3 45.9 L 173.2 47.8 L 170.8 49.8 L 168.3 51.9 L 165.7 54.1 L 162.8 56.3 L 159.6 58.5 L 157.7227544784546 60.12694606781006 L 158.5 62.6 L 154.54411764144896 62.0543610572815 L 154.5 62.1 L 151.5 64.8 L 148.4 67.5 L 145.2 69.9 L 141.9 72.2 L 138.6 74.3 L 135.1 76.3 L 131.6 78.0 L 128.0 79.4 L 124.4 80.9 L 123.5 79.3 L 126.3 76.9 L 129.0 74.2 L 131.7 71.6 L 136.7 66.2 L 139.2 63.4 L 141.5 60.6 L 143.8 57.6 L 146.0 54.6 L 147.57428379058837 52.35102319717407 L 147.5 52.3 L 148.6 51.0 L 156.49023971557617 58.2626070022583 L 157.7 56.7 L 159.7 53.4 L 161.6 50.4 L 163.4 47.5 L 165.1 44.9 L 166.6 42.3 L 167.9 39.9 L 168.33636360168458 39.1 L 33.0456521987915 39.1 L 33.1 41.6 L 32.8 45.8 L 32.0 49.9 L 30.9 53.7 L 29.3 57.2 L 27.1 60.4 L 24.5 63.3 L 21.5 65.7 L 16.9 66.2 Z " />
</g>
</svg>
