<svg xmlns="http://www.w3.org/2000/svg" xmlns:xlink="http://www.w3.org/1999/xlink" version="1.1" baseProfile="full" viewBox="0 0 200 200" width="200" height="200">
<g fill="black">
<path d="M 136.0 179.3 L 122.0 173.7 L 109.2 167.2 L 98.94482412338257 160.74631175994872 L 97.0 162.0 L 83.9 169.0 L 69.6 175.0 L 54.1 180.1 L 37.6 184.2 L 19.9 187.3 L 19.6 185.5 L 36.6 180.5 L 52.4 175.0 L 67.0 168.9 L 80.4 162.2 L 91.67967290878296 155.30168762207032 L 87.3 151.9 L 78.2 143.1 L 70.5 133.5 L 64.3 123.2 L 59.89909086227417 112.9 L 37.1 112.9 L 37.1 108.9 L 92.5 108.9 L 92.5 85.7 L 20.7 85.7 L 20.7 81.7 L 92.5 81.7 L 92.5 55.5 L 104.5 57.5 L 107.5 59.5 L 104.5 61.3 L 104.5 81.7 L 154.2 81.7 L 164.2 71.7 L 176.2 81.7 L 176.2 85.7 L 104.5 85.7 L 104.5 108.9 L 134.5 108.9 L 135.03855419158936 108.45120477676392 L 135.3 108.0 L 135.46955013275146 108.09204149246216 L 140.5 103.9 L 151.5 112.9 L 146.5 115.9 L 143.6093069076538 117.10445547103882 L 138.4 125.2 L 129.8 135.8 L 120.0 145.4 L 109.1 154.2 L 107.99568872451782 154.911870098114 L 114.0 158.1 L 126.3 163.5 L 139.8 168.1 L 154.4 172.1 L 170.2 175.4 L 179.4 177.2 L 167.6 188.3 L 151.2 184.2 Z M 67.8 121.0 L 75.2 129.9 L 83.3 138.0 L 92.5 145.4 L 99.29124279022217 149.8609143257141 L 103.5 146.8 L 113.2 138.1 L 121.7 128.8 L 129.1 118.7 L 132.4607476234436 112.9 L 62.315625 112.9 Z M 13.4 72.3 L 12.7 67.8 L 15.3 64.0 L 17.3 63.0 L 19.2 61.5 L 21.1 59.6 L 22.9 57.1 L 24.5 54.1 L 26.0 50.6 L 27.3 46.4 L 28.4 41.8 L 29.4 36.6 L 30.1 30.9 L 31.9 30.9 L 32.6 36.7 L 33.00363636016846 40.4 L 94.0 40.4 L 94.0 11.9 L 106.0 13.9 L 109.0 15.9 L 106.0 17.7 L 106.0 40.4 L 170.0 40.4 L 170.5310344696045 39.95747127532959 L 170.8 39.3 L 171.1019165992737 39.481736183166504 L 176.0 35.4 L 187.0 44.4 L 182.0 47.4 L 178.08888893127443 49.02962961196899 L 177.6 49.6 L 175.5 51.7 L 173.4 54.0 L 171.0 56.4 L 168.5 58.8 L 165.8 61.4 L 162.9 64.0 L 159.7 66.7 L 156.6 69.6 L 155.3 68.5 L 157.6 64.9 L 159.5 61.3 L 161.4 57.9 L 163.2 54.7 L 164.9 51.7 L 166.4 48.9 L 167.7 46.3 L 168.6119999885559 44.4 L 33.2 44.4 L 33.2 47.3 L 32.9 52.1 L 32.2 56.6 L 31.0 60.8 L 29.4 64.7 L 27.4 68.3 L 24.8 71.5 L 21.7 74.2 L 17.2 74.9 Z " />
</g>
</svg>
