<svg xmlns="http://www.w3.org/2000/svg" xmlns:xlink="http://www.w3.org/1999/xlink" version="1.1" baseProfile="full" viewBox="0 0 200 200" width="200" height="200">
<g fill="black">
<path d="M 25.6 180.9 L 95.0 180.9 L 95.0 137.6 L 38.6 137.6 L 38.6 133.6 L 95.0 133.6 L 95.0 112.1 L 61.0 112.1 L 61.0 108.1 L 118.9 108.1 L 128.9 98.1 L 140.9 108.1 L 140.9 112.1 L 107.0 112.1 L 107.0 133.6 L 141.3 133.6 L 151.3 123.6 L 163.3 133.6 L 163.3 137.6 L 107.0 137.6 L 107.0 180.9 L 154.3 180.9 L 164.3 170.9 L 176.3 180.9 L 176.3 184.9 L 25.6 184.9 Z M 149.3 151.2 L 150.8 154.5 L 146.75714282989503 154.5 L 144.7 156.9 L 142.3 159.8 L 139.7 162.6 L 137.0 165.4 L 134.1 168.2 L 131.1 170.9 L 127.9 173.6 L 124.5 176.2 L 121.1 178.9 L 119.8 177.6 L 122.3 174.1 L 124.5 170.5 L 126.6 167.1 L 128.7 163.8 L 130.7 160.5 L 132.6 157.3 L 134.4 154.2 L 137.6 148.0 L 138.56509294509888 145.93194370269777 L 138.5 145.9 L 139.5 144.1 Z M 64.3 167.4 L 63.4 165.0 L 62.3 162.5 L 60.9 159.9 L 59.4 157.3 L 57.6 154.6 L 55.7 151.8 L 53.5 148.9 L 51.0 146.3 L 52.1 144.8 L 55.3 146.9 L 58.5 148.7 L 61.5 150.8 L 64.3 152.9 L 66.9 155.2 L 69.3 157.5 L 71.5 160.0 L 73.4 162.5 L 75.2 165.2 L 76.7 168.0 L 76.5 172.5 L 73.1 175.6 L 68.6 175.4 L 65.5 172.0 L 65.0 169.8 Z M 155.2 111.2 L 147.1 106.6 L 139.2 101.6 L 131.7 96.1 L 124.4 90.1 L 117.5 83.7 L 110.9 76.9 L 104.7 69.4 L 103.01851921081543 67.02791109085084 L 100.2 70.5 L 92.9 78.5 L 85.1 86.0 L 76.9 93.0 L 68.3 99.4 L 59.2 105.4 L 49.7 110.7 L 39.7 115.6 L 29.3 119.7 L 18.5 123.2 L 17.9 121.5 L 27.8 116.3 L 37.3 110.8 L 46.3 105.1 L 55.0 99.1 L 63.1 92.7 L 70.9 85.9 L 78.1 78.8 L 85.0 71.2 L 91.4 63.3 L 96.81511125564575 55.809096050262454 L 96.8 55.8 L 97.8 54.4 L 107.1 62.0 L 108.4 65.4 L 106.08189144134522 65.20355014801025 L 107.7 66.6 L 115.0 72.6 L 122.2 78.2 L 129.6 83.5 L 137.0 88.4 L 144.6 92.9 L 152.4 96.9 L 160.3 100.5 L 168.4 103.8 L 176.6 106.6 L 183.8 109.1 L 172.2 119.0 L 163.6 115.3 Z M 13.5 78.1 L 12.6 73.6 L 15.1 69.8 L 17.1 68.6 L 19.1 67.0 L 21.0 64.8 L 22.8 62.0 L 24.4 58.7 L 25.9 54.7 L 27.2 50.2 L 28.3 45.2 L 29.4 39.6 L 30.1 33.4 L 31.9 33.3 L 32.7 39.6 L 33.06440677642822 43.9 L 94.0 43.9 L 94.0 13.0 L 106.0 15.0 L 109.0 17.0 L 106.0 18.8 L 106.0 43.9 L 170.0 43.9 L 170.45806455612183 43.51827955245972 L 170.7 42.9 L 170.99863481521606 43.06780433654785 L 176.0 38.9 L 187.0 47.9 L 182.0 50.9 L 178.29032258987428 52.44569892883301 L 177.7 53.2 L 175.7 55.6 L 173.5 58.1 L 171.2 60.7 L 168.6 63.4 L 165.9 66.2 L 163.0 69.1 L 159.8 72.0 L 156.7 75.2 L 155.2 74.1 L 157.5 70.2 L 159.5 66.4 L 161.3 62.8 L 163.1 59.4 L 167.6 50.4 L 168.7111110687256 47.9 L 33.24285717010498 47.9 L 33.3 51.1 L 33.0 56.2 L 32.2 61.0 L 31.1 65.5 L 29.5 69.7 L 27.5 73.4 L 24.9 76.8 L 21.8 79.7 L 17.3 80.6 Z " />
</g>
</svg>
