<svg xmlns="http://www.w3.org/2000/svg" xmlns:xlink="http://www.w3.org/1999/xlink" version="1.1" baseProfile="full" viewBox="0 0 200 200" width="200" height="200">
<g fill="black">
<path d="M 41.507042217254636 134.4 L 41.3 139.3 L 40.6 146.0 L 39.4 152.2 L 37.8 158.0 L 35.7 163.4 L 33.2 168.2 L 30.2 172.6 L 26.8 176.3 L 22.9 179.4 L 18.6 181.7 L 17.5 180.3 L 20.2 176.7 L 22.6 172.9 L 24.6 169.1 L 26.3 164.9 L 27.7 160.5 L 28.8 155.7 L 29.5 150.5 L 29.9 145.0 L 29.9 139.0 L 29.68769226074219 134.4 L 18.1 134.4 L 18.1 130.4 L 51.4 130.4 L 51.4 111.4 L 37.0 111.4 L 37.0 114.4 L 25.0 120.4 L 25.0 73.6 L 37.0 75.6 L 40.0 77.6 L 37.0 79.4 L 37.0 107.4 L 51.4 107.4 L 51.4 75.0 L 62.4 80.5 L 126.98363637924194 80.5 L 126.71362247467042 60.69897832870483 L 126.7 60.7 L 126.70940437316895 60.38965520858765 L 126.7 59.7 L 126.73029537200928 59.70025243759155 L 126.8 57.4 L 138.7 59.8 L 141.7 61.9 L 138.7531512260437 63.60917224884033 L 138.98883724212646 80.5 L 158.9 80.5 L 168.9 70.5 L 180.9 80.5 L 180.9 84.5 L 139.18238344192505 84.5 L 140.1 100.6 L 142.1 117.8 L 145.0 132.8 L 147.14236640930176 140.41730279922484 L 149.4 135.3 L 153.5 124.1 L 157.0 111.8 L 160.0 98.5 L 160.01363639831544 98.50303030014038 L 160.4 96.7 L 171.7 101.1 L 174.2 103.7 L 170.66553716659547 104.85673332214355 L 167.9 114.9 L 163.6 127.7 L 158.6 139.4 L 153.0 149.9 L 151.41168518066405 152.37360515594483 L 153.0 156.2 L 158.0 164.6 L 163.7 170.8 L 169.8 175.0 L 170.06235666275023 175.09645462036133 L 175.3 152.4 L 177.3 152.4 L 175.40308027267457 177.05995597839356 L 176.6 177.5 L 180.3 180.2 L 181.2 184.7 L 178.5 188.4 L 174.0 189.2 L 164.3 185.7 L 155.7 179.8 L 148.4 171.7 L 143.46963777542115 163.53661327362062 L 140.1 167.6 L 132.7 174.7 L 124.7 180.5 L 116.2 184.9 L 107.2 188.0 L 106.5 186.3 L 114.4 181.6 L 121.5 176.2 L 128.2 169.9 L 134.3 162.7 L 139.52209348678588 155.00928058624268 L 137.2 149.5 L 133.3 135.5 L 130.3 119.6 L 128.2 101.6 L 127.16884422302246 84.5 L 62.4 84.5 L 62.4 144.9 L 61.8 151.9 L 60.7 158.4 L 58.9 164.4 L 56.5 169.9 L 53.5 174.8 L 49.9 179.1 L 45.8 182.7 L 41.1 185.6 L 35.9 187.7 L 30.3 189.0 L 29.8 187.4 L 34.4 184.6 L 38.4 181.5 L 41.8 178.2 L 44.6 174.6 L 46.9 170.7 L 48.7 166.5 L 50.1 161.8 L 51.0 156.6 L 51.4 151.0 L 51.4 134.4 Z M 85.5 98.0 L 105.0 98.0 L 111.0 93.0 L 122.0 102.0 L 117.0 106.0 L 117.0 153.0 L 105.0 159.0 L 105.0 147.0 L 85.5 147.0 L 85.5 159.0 L 74.5 164.5 L 74.5 92.5 Z M 85.5 102.0 L 85.5 143.0 L 105.0 143.0 L 105.0 102.0 Z M 154.2 72.1 L 153.7 70.9 L 152.8 69.5 L 151.6 68.1 L 150.1 66.6 L 148.4 65.0 L 146.4 63.4 L 144.1 61.7 L 141.4 60.5 L 141.9 58.8 L 144.9 59.6 L 147.8 60.0 L 150.6 60.5 L 153.1 61.2 L 155.5 62.0 L 157.8 62.9 L 158.2 63.119999980926515 L 159.6 60.6 L 161.5 57.3 L 163.2 54.1 L 164.9 51.1 L 166.4 48.3 L 167.7 45.7 L 168.56400003433228 43.9 L 33.143137264251706 43.9 L 33.2 46.8 L 32.9 51.6 L 32.2 56.0 L 31.0 60.2 L 29.4 64.1 L 27.3 67.6 L 24.7 70.8 L 21.7 73.5 L 17.1 74.2 L 13.4 71.5 L 12.7 67.0 L 15.3 63.3 L 17.3 62.2 L 19.3 60.8 L 21.1 58.9 L 22.9 56.5 L 24.5 53.5 L 26.0 50.0 L 27.3 45.9 L 28.4 41.4 L 29.5 36.3 L 30.1 30.6 L 31.9 30.6 L 32.6 36.3 L 32.93333330154419 39.9 L 94.0 39.9 L 94.0 11.8 L 106.0 13.8 L 109.0 15.8 L 106.0 17.6 L 106.0 39.9 L 170.0 39.9 L 170.55813951492308 39.43488368988037 L 170.8 38.8 L 171.09988803863524 38.98342666625977 L 176.0 34.9 L 187.0 43.9 L 182.0 46.9 L 177.97197456359862 48.57834396362305 L 177.5 49.1 L 175.5 51.2 L 173.4 53.5 L 171.0 55.8 L 168.5 58.2 L 165.8 60.8 L 162.9 63.3 L 161.1268398284912 64.79610385894776 L 161.8 65.2 L 163.5 66.7 L 165.1 68.5 L 165.5 73.0 L 162.6 76.5 L 158.0 76.9 L 154.5 74.0 L 154.5 73.2 Z " />
</g>
</svg>
