<svg xmlns="http://www.w3.org/2000/svg" xmlns:xlink="http://www.w3.org/1999/xlink" version="1.1" baseProfile="full" viewBox="0 0 200 200" width="200" height="200">
<g fill="black">
<path d="M 142.3 52.2 L 145.3 54.2 L 142.3 56.0 L 142.3 70.0 L 159.8 70.0 L 165.8 65.0 L 176.8 74.0 L 171.8 78.0 L 171.8 92.4 L 176.5 92.4 L 181.0 86.4 L 187.0 92.4 L 187.0 96.4 L 171.8 96.4 L 171.8 120.8 L 159.8 126.8 L 159.8 118.8 L 142.3 118.8 L 142.3 137.2 L 159.71818180084227 137.2 L 167.9 128.2 L 177.9 137.2 L 177.9 141.2 L 142.3 141.2 L 142.3 159.6 L 163.4 159.6 L 173.4 149.6 L 185.4 159.6 L 185.4 163.6 L 142.3 163.6 L 142.3 185.8 L 130.3 191.8 L 130.3 163.6 L 91.7 163.6 L 91.7 159.6 L 130.3 159.6 L 130.3 141.2 L 99.3 141.2 L 99.3 137.2 L 130.3 137.2 L 130.3 118.8 L 103.8 118.8 L 103.8 114.8 L 130.3 114.8 L 130.3 96.4 L 97.8 96.4 L 97.8 92.4 L 130.3 92.4 L 130.3 74.0 L 103.8 74.0 L 103.8 70.0 L 130.3 70.0 L 130.3 50.2 Z M 24.6 65.6 L 21.5 68.1 L 16.9 68.6 L 13.3 65.7 L 12.9 61.2 L 15.7 57.6 L 17.7 56.7 L 19.6 55.6 L 21.4 54.0 L 23.1 52.0 L 24.7 49.4 L 26.2 46.4 L 27.4 42.9 L 28.6 38.9 L 29.6 34.4 L 30.1 29.4 L 31.9 29.3 L 32.5 34.4 L 32.8125 37.4 L 94.0 37.4 L 94.0 12.4 L 106.0 14.4 L 109.0 16.4 L 106.0 18.2 L 106.0 37.4 L 170.0 37.4 L 170.55652170181276 36.93623189926147 L 171.0 36.0 L 171.37525081634521 36.25395765304565 L 176.0 32.4 L 187.0 41.4 L 182.0 44.4 L 177.36216220855712 46.332432460784915 L 175.3 48.1 L 173.2 50.1 L 170.9 52.1 L 168.3 54.2 L 165.7 56.4 L 162.8 58.6 L 159.6 60.9 L 156.6 63.5 L 155.3 62.2 L 157.7 59.0 L 159.7 55.8 L 161.6 52.7 L 163.4 49.9 L 165.0 47.2 L 166.6 44.6 L 167.9 42.2 L 168.33636360168458 41.4 L 33.04782609939575 41.4 L 33.1 43.8 L 32.8 48.1 L 32.0 52.2 L 30.9 56.0 L 29.3 59.5 L 27.2 62.8 L 27.073170757293703 62.93658533096313 L 37.0380952835083 67.91904764175415 L 37.1 67.9 L 42.1 66.3 L 51.7 63.1 L 56.2 61.2 L 60.6 59.3 L 64.9 57.2 L 69.0 54.9 L 73.0 52.4 L 76.02331771850587 50.331414222717285 L 76.0 50.3 L 76.02716493606567 50.32878189086914 L 76.8 49.8 L 79.32256269454956 53.82033424377441 L 84.4 59.2 L 84.5 62.7 L 80.8895432472229 61.17980766296387 L 78.5 62.4 L 73.7 64.5 L 68.9 66.4 L 63.9 68.0 L 58.8 69.3 L 53.6 70.4 L 48.4 71.2 L 43.0 71.6 L 38.0 71.6 L 38.0 83.6 L 76.6 83.6 L 82.6 78.6 L 93.6 87.6 L 88.6 91.6 L 88.6 118.4 L 76.6 124.4 L 76.6 116.4 L 37.870129871368405 116.4 L 37.5 122.1 L 36.96835441589356 127.08417720794678 L 48.8 133.0 L 76.3 133.0 L 82.3 128.0 L 93.3 137.0 L 88.3 141.0 L 88.3 176.5 L 76.3 182.5 L 76.3 172.5 L 48.8 172.5 L 48.8 179.5 L 36.8 185.5 L 36.8 128.6625 L 36.7 129.6 L 35.5 136.8 L 34.0 143.8 L 32.2 150.4 L 29.9 156.7 L 27.4 162.6 L 24.4 168.2 L 20.9 173.4 L 17.0 178.0 L 15.5 177.1 L 17.6 171.6 L 19.5 166.0 L 21.2 160.3 L 22.7 154.4 L 23.9 148.3 L 24.9 142.0 L 25.6 135.5 L 26.0 128.7 L 26.1 121.7 L 26.0 114.4 L 26.0 64.09230766296386 Z M 48.8 137.0 L 48.8 168.5 L 76.3 168.5 L 76.3 137.0 Z M 142.3 96.4 L 142.3 114.8 L 159.8 114.8 L 159.8 96.4 Z M 38.0 87.6 L 38.0 112.4 L 76.6 112.4 L 76.6 87.6 Z M 142.3 74.0 L 142.3 92.4 L 159.8 92.4 L 159.8 74.0 Z " />
</g>
</svg>
