<svg xmlns="http://www.w3.org/2000/svg" xmlns:xlink="http://www.w3.org/1999/xlink" version="1.1" baseProfile="full" viewBox="0 0 200 200" width="200" height="200">
<g fill="black">
<path d="M 152.4 178.7 L 143.1 174.2 L 134.7 169.0 L 132.40888166427612 167.1113754272461 L 132.3 167.2 L 122.8 173.3 L 112.5 178.4 L 101.4 182.5 L 89.5 185.5 L 76.8 187.5 L 76.4 185.8 L 88.5 181.9 L 99.6 177.4 L 109.7 172.5 L 118.8 166.8 L 125.87631216049195 161.36332111358644 L 121.0 156.1 L 115.7 148.6 L 111.5 140.4 L 108.5 131.6 L 106.94315786361695 122.9 L 96.3 122.9 L 96.3 118.9 L 154.4 118.9 L 160.4 113.9 L 171.4 122.9 L 166.4 125.9 L 164.36806230545045 126.74664068222046 L 161.2 133.6 L 155.3 143.4 L 148.5 152.3 L 140.9 160.2 L 140.5183897972107 160.51061296463013 L 148.0 164.3 L 156.6 167.6 L 165.9 170.3 L 176.2 172.2 L 185.6 174.0 L 173.8 185.2 L 162.7 182.3 Z M 87.5 65.4 L 87.5 69.4 L 63.614814853668214 69.4 L 61.3 76.9 L 58.4 84.9 L 55.2 92.7 L 51.6 100.3 L 49.36400003433228 104.6 L 68.0 104.6 L 74.0 99.6 L 85.0 108.6 L 80.0 112.6 L 80.0 167.0 L 68.0 173.0 L 68.0 163.0 L 50.6 163.0 L 50.6 175.0 L 38.6 181.0 L 38.6 122.71400003433227 L 33.9 129.2 L 28.4 135.9 L 22.5 142.3 L 21.1 141.2 L 25.3 133.7 L 29.4 126.3 L 33.2 118.9 L 36.8 111.5 L 38.6 107.46363639831543 L 38.6 107.0 L 38.806756782531735 107.0 L 40.1 104.1 L 43.1 96.6 L 45.8 89.0 L 48.3 81.4 L 50.4 73.7 L 51.35555553436279 69.4 L 26.0 69.4 L 26.0 65.4 L 65.5 65.4 L 75.5 55.4 Z M 50.6 108.6 L 50.6 159.0 L 68.0 159.0 L 68.0 108.6 Z M 109.05714282989501 122.9 L 112.4 130.1 L 116.7 137.7 L 121.6 144.5 L 127.1 150.5 L 132.6447054862976 155.1645935058594 L 134.3 153.6 L 140.7 146.0 L 146.3 137.6 L 151.0 128.6 L 153.21020412445068 122.9 Z M 117.7 57.9 L 145.0 57.9 L 151.0 52.9 L 162.0 61.9 L 157.0 65.9 L 157.0 93.5 L 156.9 94.7 L 157.0 95.7 L 157.0 96.4 L 157.1 96.9 L 157.2 97.3 L 157.9 98.0 L 158.6 98.4 L 159.6 98.8 L 161.0 99.0 L 173.9 99.0 L 178.4 86.0 L 180.4 86.0 L 178.4 99.0 L 181.1 100.8 L 182.9 103.5 L 181.1 106.2 L 178.4 108.0 L 158.6 108.0 L 156.3 107.7 L 154.0 107.1 L 151.8 106.1 L 149.8 104.7 L 148.1 102.9 L 146.8 100.8 L 145.9 98.5 L 145.3 96.0 L 145.0 93.5 L 145.0 61.9 L 117.7 61.9 L 117.7 78.9 L 117.1 84.0 L 115.8 88.9 L 113.9 93.5 L 111.5 97.8 L 108.5 101.9 L 104.9 105.7 L 100.9 109.2 L 96.3 112.4 L 91.2 115.2 L 85.6 117.7 L 84.7 116.2 L 89.2 112.3 L 93.1 108.4 L 96.5 104.6 L 99.3 100.8 L 101.6 97.1 L 103.4 93.5 L 104.7 89.9 L 105.5 86.2 L 105.8 82.6 L 105.7 78.9 L 105.7 51.9 Z M 13.3 58.3 L 13.0 53.7 L 15.9 50.2 L 17.9 49.5 L 19.8 48.5 L 21.5 47.1 L 23.2 45.4 L 24.8 43.2 L 26.2 40.5 L 27.5 37.3 L 28.7 33.7 L 29.7 29.6 L 30.1 25.1 L 31.9 25.1 L 32.4 29.7 L 32.672727298736575 32.1 L 94.0 32.1 L 94.0 9.4 L 106.0 11.4 L 109.0 13.4 L 106.0 15.2 L 106.0 32.1 L 170.0 32.1 L 170.64838705062866 31.559677410125733 L 171.1 30.6 L 171.4726674079895 30.87277717590332 L 176.0 27.1 L 187.0 36.1 L 182.0 39.1 L 176.7384614944458 41.292307662963864 L 175.2 42.6 L 173.0 44.3 L 170.7 46.1 L 168.2 48.0 L 165.6 49.9 L 162.7 51.9 L 159.6 53.9 L 156.6 56.3 L 155.3 55.0 L 157.8 52.0 L 159.8 49.0 L 161.7 46.2 L 163.5 43.5 L 165.2 41.0 L 166.7 38.6 L 168.1 36.3 L 168.2199999809265 36.1 L 32.94761905670166 36.1 L 33.0 38.3 L 32.7 42.3 L 32.0 46.1 L 30.8 49.6 L 29.1 52.9 L 27.0 56.0 L 24.4 58.7 L 21.3 61.0 L 16.8 61.2 Z " />
</g>
</svg>
