<svg xmlns="http://www.w3.org/2000/svg" xmlns:xlink="http://www.w3.org/1999/xlink" version="1.1" baseProfile="full" viewBox="0 0 200 200" width="200" height="200">
<g fill="black">
<path d="M 157.3 178.9 L 148.6 174.4 L 140.4 169.4 L 132.7 163.9 L 125.5 157.9 L 118.9 151.5 L 112.8 144.4 L 107.4 136.9 L 104.285227394104 131.41529169082642 L 103.5 131.9 L 95.1 136.7 L 86.1 141.3 L 76.8 145.7 L 71.0 148.18571424484253 L 71.0 172.3869565010071 L 73.4 172.1 L 82.5 170.9 L 100.9 168.7 L 110.1 167.7 L 119.4 166.8 L 128.8 166.1 L 129.1 167.9 L 120.1 170.6 L 111.1 173.0 L 102.0 175.2 L 93.0 177.3 L 83.9 179.3 L 74.9 181.2 L 65.8 183.1 L 56.8 184.9 L 42.80037574768066 187.54437351226807 L 41.2 190.9 L 38.8 188.3 L 35.1 176.7 L 37.1 176.4 L 46.1 175.3 L 55.1 174.3 L 59.0 173.8285714149475 L 59.0 153.03725490570068 L 56.8 153.9 L 46.1 157.6 L 34.9 161.1 L 23.3 164.2 L 11.2 167.0 L 10.7 165.3 L 22.1 160.6 L 33.1 156.1 L 43.7 151.5 L 53.8 146.9 L 63.5 142.2 L 72.7 137.4 L 81.4 132.5 L 89.6 127.5 L 97.4 122.3 L 103.93638467788696 117.64394512176514 L 103.9 117.6 L 103.93776731491089 117.64296026229859 L 104.7 117.1 L 109.68603458404542 124.18161430358887 L 111.9 126.7 L 112.0 130.3 L 108.50414199829102 128.8110234260559 L 106.52605934143067 130.03206214904785 L 110.6 134.3 L 117.1 140.4 L 123.8 146.2 L 130.7 151.4 L 131.7172131538391 152.0827868461609 L 133.9 149.9 L 137.2 146.5 L 140.3 143.3 L 143.4 140.3 L 146.3 137.4 L 149.0 134.6 L 151.5 131.9 L 153.9 129.4 L 156.1 126.9 L 157.4509680747986 125.34638671875 L 157.4 125.3 L 157.81999998092653 124.92200002670288 L 158.1 124.6 L 158.13547592163087 124.63807172775269 L 158.4 124.4 L 166.3 133.4 L 166.9 136.9 L 162.99696969985962 135.7848484992981 L 160.8 137.3 L 157.8 139.4 L 154.6 141.5 L 151.3 143.6 L 147.7 145.8 L 144.0 148.1 L 140.0 150.3 L 135.8 152.5 L 133.87374534606934 153.530322265625 L 138.0 156.3 L 145.6 160.6 L 153.6 164.5 L 161.9 168.0 L 170.6 171.0 L 179.8 173.5 L 187.8 175.8 L 176.1 186.2 L 166.5 182.8 Z M 114.6 117.7 L 112.1 117.2 L 109.7 116.4 L 107.5 115.2 L 105.5 113.6 L 103.8 111.5 L 102.6 109.3 L 101.8 106.9 L 101.3 104.4 L 101.2 101.8 L 101.2 83.0 L 99.8 87.2 L 95.9 93.9 L 90.7 99.8 L 84.4 104.7 L 77.0 108.8 L 68.5 112.0 L 59.0 114.4 L 48.5 116.0 L 36.8 116.8 L 36.6 115.0 L 47.8 112.3 L 57.6 109.3 L 66.2 105.9 L 73.4 102.0 L 79.4 97.8 L 84.0 93.3 L 87.5 88.4 L 89.8 83.2 L 91.1 77.6 L 91.43548383712769 72.4 L 42.0 72.4 L 42.0 68.4 L 91.5 68.4 L 91.5 51.6 L 103.5 53.6 L 106.5 55.6 L 103.5 57.4 L 103.5 68.4 L 130.15 68.4 L 128.0 67.7 L 127.5 66.8 L 126.8 65.8 L 125.9 64.7 L 124.7 63.5 L 123.2 62.4 L 121.5 61.2 L 119.6 60.0 L 117.5 58.7 L 115.2 57.4 L 112.5 56.6 L 112.9 54.9 L 115.6 55.3 L 118.4 55.2 L 121.0 55.2 L 123.5 55.4 L 125.8 55.6 L 128.0 56.0 L 130.1 56.5 L 132.2 57.1 L 134.1 57.8 L 135.9 58.7 L 137.9 62.8 L 136.4 67.2 L 133.81052627563477 68.4 L 136.2 68.4 L 146.2 58.4 L 156.3492446899414 66.85770397186279 L 157.6 64.9 L 159.5 61.3 L 161.4 57.9 L 163.2 54.7 L 164.9 51.7 L 166.4 48.9 L 167.7 46.3 L 168.6119999885559 44.4 L 33.2 44.4 L 33.2 47.3 L 32.9 52.1 L 32.2 56.6 L 31.0 60.8 L 29.4 64.7 L 27.4 68.3 L 24.8 71.5 L 21.7 74.2 L 17.2 74.9 L 13.4 72.3 L 12.7 67.8 L 15.3 64.0 L 17.3 63.0 L 19.2 61.5 L 21.1 59.6 L 22.9 57.1 L 24.5 54.1 L 26.0 50.6 L 27.3 46.4 L 28.4 41.8 L 29.4 36.6 L 30.1 30.9 L 31.9 30.9 L 32.6 36.7 L 33.00363636016846 40.4 L 94.0 40.4 L 94.0 11.9 L 106.0 13.9 L 109.0 15.9 L 106.0 17.7 L 106.0 40.4 L 170.0 40.4 L 170.5310344696045 39.95747127532959 L 170.8 39.3 L 171.1019165992737 39.481736183166504 L 176.0 35.4 L 187.0 44.4 L 182.0 47.4 L 178.08888893127443 49.02962961196899 L 177.6 49.6 L 175.5 51.7 L 173.4 54.0 L 171.0 56.4 L 168.5 58.8 L 165.8 61.4 L 162.9 64.0 L 159.7 66.7 L 158.03221883773804 68.26018238067627 L 158.2 68.4 L 158.2 72.4 L 103.29135799407959 72.4 L 102.46156940460205 78.51026153564453 L 113.2 80.3 L 116.2 82.3 L 113.2 84.1 L 113.2 101.8 L 113.3 103.0 L 113.4 104.0 L 113.6 104.5 L 113.9 105.1 L 114.5 105.4 L 115.1 105.6 L 116.0 105.7 L 117.2 105.8 L 147.7 105.8 L 153.7 80.8 L 155.7 80.8 L 153.7 105.8 L 157.3 108.2 L 159.7 111.8 L 157.3 115.4 L 153.7 117.8 L 117.2 117.8 Z " />
</g>
</svg>
