<svg xmlns="http://www.w3.org/2000/svg" xmlns:xlink="http://www.w3.org/1999/xlink" version="1.1" baseProfile="full" viewBox="0 0 200 200" width="200" height="200">
<g fill="black">
<path d="M 63.0 134.2 L 51.0 140.2 L 51.0 96.6 L 63.0 102.6 L 136.9 102.6 L 142.9 97.6 L 153.9 106.6 L 148.9 110.6 L 148.9 133.2 L 136.9 139.2 L 136.9 131.2 L 104.95510206222534 131.2 L 105.4 131.4 L 104.0 133.5 L 102.5 135.6 L 101.0 137.6 L 99.4 139.5 L 97.9 141.3 L 96.3 143.0 L 94.6 144.6 L 92.9 146.1 L 91.79230766296386 146.9 L 152.0 146.9 L 158.0 141.9 L 169.0 150.9 L 164.0 154.9 L 164.0 180.7 L 152.0 186.7 L 152.0 178.7 L 48.0 178.7 L 48.0 181.7 L 36.0 187.7 L 36.0 140.9 L 48.0 146.9 L 88.7555555343628 146.9 L 89.2 146.1 L 89.7 144.0 L 92.1 135.6 L 93.3 131.2 L 63.0 131.2 Z M 48.0 150.9 L 48.0 174.7 L 152.0 174.7 L 152.0 150.9 Z M 63.0 106.6 L 63.0 127.2 L 94.325 127.2 L 94.5 126.5 L 96.05714282989501 127.2 L 136.9 127.2 L 136.9 106.6 Z M 32.0 92.1 L 31.6 95.8 L 30.9 99.3 L 29.7 102.7 L 28.0 105.8 L 25.8 108.6 L 23.2 111.1 L 20.2 113.2 L 15.6 113.4 L 12.2 110.3 L 12.1 105.7 L 15.2 102.3 L 17.1 101.7 L 19.0 100.9 L 20.7 99.7 L 22.4 98.2 L 23.9 96.3 L 25.3 93.9 L 26.6 91.1 L 27.7 87.8 L 28.7 84.2 L 29.1 80.1 L 30.9 80.0 L 31.4 84.2 L 31.643902397155763 86.2 L 94.0 86.2 L 94.0 68.2 L 106.0 70.2 L 109.0 72.2 L 106.0 74.0 L 106.0 86.2 L 171.0 86.2 L 171.62105264663697 85.68245611190795 L 172.3 84.4 L 172.73420190811157 84.75483169555665 L 177.0 81.2 L 188.0 90.2 L 183.0 93.2 L 176.55 95.8875 L 176.0 96.3 L 173.9 97.9 L 171.6 99.5 L 169.1 101.1 L 166.4 102.9 L 163.6 104.6 L 160.5 106.4 L 157.5 108.5 L 156.4 107.1 L 158.8 104.5 L 160.9 101.6 L 162.8 99.0 L 164.6 96.5 L 166.3 94.1 L 167.8 91.9 L 168.9333333015442 90.2 L 31.95 90.2 Z M 16.5 57.9 L 22.2 56.8 L 28.0 55.6 L 33.9 54.5 L 46.1 52.1 L 52.3 50.9 L 58.7 49.6 L 65.2 48.5 L 71.9 47.4 L 73.0 47.25441179275513 L 73.0 33.6 L 21.0 33.6 L 21.0 29.6 L 73.0 29.6 L 73.0 11.6 L 85.0 13.6 L 88.0 15.6 L 85.0 17.4 L 85.0 66.5 L 73.0 72.5 L 73.0 50.955555534362794 L 72.9 51.0 L 66.7 53.6 L 60.5 56.0 L 54.3 58.2 L 48.3 60.3 L 42.3 62.3 L 36.4 64.2 L 25.0 67.8 L 23.36482181549072 68.28768472671509 L 22.0 72.0 L 19.3 69.5 L 14.6 58.4 Z M 181.0 36.7 L 183.0 36.7 L 181.0 57.7 L 184.3 59.9 L 186.5 63.2 L 184.3 66.5 L 181.0 68.7 L 129.0 68.7 L 126.4 68.6 L 124.0 68.2 L 121.6 67.4 L 119.4 66.3 L 117.4 64.7 L 115.7 62.8 L 114.5 60.6 L 113.6 58.2 L 113.1 55.7 L 113.0 53.2 L 113.0 11.6 L 125.0 13.6 L 128.0 15.6 L 125.0 17.4 L 125.0 36.922033882141115 L 130.7 34.7 L 136.4 32.6 L 141.9 30.6 L 147.3 28.6 L 152.4 26.6 L 157.3 24.6 L 162.0 22.5 L 166.5 20.5 L 169.81179838180543 18.922953128814697 L 169.8 18.9 L 169.82106742858886 18.918539333343507 L 170.7 18.5 L 171.47753829956054 20.376233673095705 L 179.8 27.7 L 180.0 30.9 L 176.07877550125122 29.271183681488036 L 175.3 29.6 L 170.6 31.1 L 165.6 32.6 L 160.5 34.1 L 155.2 35.4 L 149.7 36.7 L 144.0 37.9 L 138.1 39.0 L 132.0 39.9 L 125.7 40.6 L 125.0 40.65303030014038 L 125.0 54.4 L 125.1 55.3 L 125.2 55.9 L 125.4 56.3 L 125.5 56.6 L 125.7 56.8 L 126.1 57.1 L 126.7 57.3 L 127.7 57.5 L 129.0 57.7 L 175.5 57.7 Z " />
</g>
</svg>
