<svg xmlns="http://www.w3.org/2000/svg" xmlns:xlink="http://www.w3.org/1999/xlink" version="1.1" baseProfile="full" viewBox="0 0 200 200" width="200" height="200">
<g fill="black">
<path d="M 120.7641791343689 70.90149250030518 L 121.66895160675048 91.3 L 150.7 91.3 L 160.7 81.3 L 172.7 91.3 L 172.7 95.3 L 122.21262140274048 95.3 L 124.9 112.6 L 129.5 129.2 L 134.62938899993895 140.87378187179564 L 135.3 140.1 L 141.1 131.9 L 146.2 123.1 L 150.17537784576416 114.42644834518433 L 150.1 114.4 L 151.1 112.3 L 161.5 118.4 L 163.5 121.4 L 159.6668472290039 121.86262187957763 L 156.1 128.6 L 149.9 138.0 L 143.0 146.5 L 139.92048530578614 149.6195083618164 L 141.7 152.4 L 148.2 159.7 L 154.5 164.7 L 160.2 167.8 L 162.13364925384522 168.48751974105835 L 167.6 144.8 L 169.6 144.8 L 167.6744680404663 169.8319149017334 L 171.8 171.6 L 173.6 175.8 L 171.8 180.0 L 167.6 181.8 L 162.0 181.0 L 155.4 178.8 L 147.9 174.7 L 140.0 168.4 L 132.1 159.6 L 130.96015157699586 157.81321058273315 L 126.9 161.1 L 117.8 167.1 L 108.0 172.3 L 97.5 176.5 L 86.4 179.7 L 74.6 181.9 L 74.2 180.2 L 85.2 176.1 L 95.5 171.5 L 105.0 166.4 L 113.7 160.8 L 121.6 154.5 L 126.09719123840333 150.19019174575806 L 124.7 148.0 L 118.2 133.3 L 113.1 115.1 L 110.11643838882446 95.3 L 22.2 95.3 L 22.2 91.3 L 109.71230773925781 91.3 L 108.64597702026367 68.19616861343384 L 108.6 68.2 L 108.6 64.8 L 120.6 67.2 L 123.6 69.2 Z M 25.8 161.7 L 33.2 161.0 L 40.8 160.2 L 48.6 159.3 L 56.6 158.4 L 64.7 157.5 L 73.1 156.5 L 81.6 155.6 L 90.3 154.6 L 99.2 153.8 L 108.4 153.1 L 108.7 154.9 L 99.9 157.5 L 91.3 159.9 L 82.7 162.0 L 74.3 164.0 L 66.1 165.9 L 58.1 167.6 L 50.2 169.3 L 42.4 170.8 L 34.9 172.3 L 31.524914932250976 172.89292039871216 L 29.9 176.3 L 27.5 173.6 L 23.8 162.0 Z M 52.2 110.4 L 84.6 110.4 L 90.6 105.4 L 101.6 114.4 L 96.6 118.4 L 96.6 141.5 L 84.6 147.5 L 84.6 141.5 L 52.2 141.5 L 52.2 148.5 L 40.2 154.5 L 40.2 104.4 Z M 52.2 114.4 L 52.2 137.5 L 84.6 137.5 L 84.6 114.4 Z M 144.1 80.8 L 143.1 79.2 L 141.9 77.6 L 140.5 76.0 L 138.9 74.3 L 137.2 72.7 L 135.2 71.0 L 133.1 69.3 L 130.6 68.0 L 131.2 66.3 L 134.0 67.1 L 136.8 67.6 L 139.5 68.2 L 142.1 69.0 L 144.6 69.9 L 147.0 71.0 L 149.2 72.2 L 151.4 73.5 L 153.4 75.0 L 155.3 76.7 L 156.3 81.2 L 153.9 85.1 L 149.5 86.1 L 145.6 83.8 L 144.9 82.3 Z M 21.8 68.2 L 21.3 63.6 L 24.1 60.0 L 25.8 59.3 L 27.4 58.3 L 29.1 57.0 L 30.6 55.2 L 32.1 52.9 L 33.5 50.1 L 34.7 46.9 L 35.7 43.2 L 36.7 39.0 L 37.1 34.4 L 38.9 34.4 L 39.5 39.1 L 39.78409090042114 41.6 L 94.5 41.6 L 94.5 18.5 L 106.5 20.5 L 109.5 22.5 L 106.5 24.3 L 106.5 41.6 L 163.2 41.6 L 163.9315068244934 40.9904109954834 L 164.2 40.3 L 164.5125 40.50625 L 169.2 36.6 L 180.2 45.6 L 175.2 48.6 L 170.49908256530762 50.558715629577634 L 169.0 51.9 L 167.0 53.7 L 164.9 55.5 L 162.6 57.5 L 160.1 59.4 L 157.4 61.5 L 154.5 63.5 L 151.8 66.0 L 150.5 64.7 L 152.7 61.8 L 154.4 58.8 L 156.1 55.9 L 157.6 53.2 L 159.1 50.7 L 160.4 48.3 L 161.6 46.1 L 161.8380952835083 45.6 L 40.097674465179445 45.6 L 40.2 47.8 L 39.9 51.7 L 39.4 55.5 L 38.4 59.0 L 37.0 62.3 L 35.1 65.4 L 32.8 68.1 L 30.0 70.5 L 25.4 71.0 Z " />
</g>
</svg>
