<svg xmlns="http://www.w3.org/2000/svg" xmlns:xlink="http://www.w3.org/1999/xlink" version="1.1" baseProfile="full" viewBox="0 0 200 200" width="200" height="200">
<g fill="black">
<path d="M 145.9 183.0 L 135.9 179.7 L 127.1 175.7 L 119.4 171.0 L 112.9 165.5 L 107.8 159.2 L 104.1 152.3 L 102.92464570999145 148.15827531814574 L 101.9 151.1 L 97.1 159.0 L 90.7 165.9 L 82.8 171.7 L 73.6 176.5 L 63.0 180.4 L 50.9 183.3 L 37.5 185.2 L 22.7 186.1 L 22.5 184.3 L 36.9 181.4 L 49.7 178.1 L 60.8 174.2 L 70.3 169.7 L 78.1 164.7 L 84.2 159.2 L 88.9 153.3 L 92.0 146.8 L 93.8 139.9 L 94.3 132.2 L 94.33028011322021 132.20075702667236 L 94.4 129.9 L 106.3 132.5 L 109.3 134.5 L 105.76236324310302 136.5115973472595 L 105.10399999618531 141.4239999771118 L 106.0 143.6 L 109.4 149.6 L 113.5 154.7 L 117.28996868133545 158.1109718322754 L 120.7 156.0 L 124.6 153.3 L 128.5 150.8 L 132.2 148.4 L 135.8 146.1 L 139.2 143.8 L 142.5 141.6 L 145.6 139.4 L 148.5 137.3 L 150.45789470672608 135.77719297409058 L 150.4 135.7 L 150.46606369018554 135.7708394050598 L 151.2 135.2 L 153.88433198928834 139.43621139526368 L 158.7 144.6 L 158.9 148.1 L 155.11338024139405 146.50563383102417 L 154.3 146.9 L 150.9 148.6 L 143.5 151.8 L 139.5 153.3 L 135.4 154.8 L 131.1 156.3 L 126.7 157.7 L 122.0 159.0 L 119.24093027114868 159.68976745605468 L 124.4 163.1 L 131.4 166.5 L 139.5 169.3 L 148.6 171.5 L 159.0 173.1 L 170.5 174.1 L 181.2 175.0 L 169.3 187.2 L 157.1 185.5 Z M 39.9 163.5 L 40.1 158.9 L 43.4 155.8 L 46.4 154.9 L 49.2 153.9 L 51.8 152.8 L 54.1 151.4 L 56.3 149.9 L 58.3 148.1 L 60.1 146.1 L 61.9 143.9 L 63.5 141.3 L 64.6 138.3 L 66.3 138.6 L 66.1 141.9 L 65.8 145.3 L 65.0 148.6 L 63.7 151.8 L 62.0 154.9 L 59.9 157.7 L 57.4 160.4 L 54.5 162.8 L 51.2 165.0 L 47.6 167.0 L 43.1 166.8 Z M 13.3 57.5 L 13.0 52.9 L 16.0 49.5 L 17.9 48.8 L 19.8 47.8 L 21.6 46.4 L 23.2 44.7 L 24.8 42.6 L 26.3 39.9 L 27.5 36.8 L 28.7 33.3 L 29.7 29.3 L 30.1 24.8 L 31.9 24.7 L 32.4 29.3 L 32.672727298736575 31.7 L 94.0 31.7 L 94.0 9.2 L 106.0 11.2 L 109.0 13.2 L 106.0 15.0 L 106.0 31.7 L 170.0 31.7 L 170.63157892227173 31.173684215545656 L 171.2 30.1 L 171.57706727981568 30.385777282714844 L 176.0 26.7 L 187.0 35.7 L 182.0 38.7 L 176.50769233703613 40.9884614944458 L 175.2 42.1 L 173.0 43.8 L 170.7 45.5 L 168.2 47.4 L 165.5 49.3 L 162.7 51.2 L 159.6 53.2 L 156.6 55.5 L 156.3 55.2 L 155.8 55.6 L 155.8 64.9 L 162.71818180084227 64.9 L 170.9 55.9 L 180.9 64.9 L 180.9 68.9 L 155.8 68.9 L 155.8 86.7 L 143.8 92.7 L 143.8 86.7 L 78.88604650497436 86.7 L 77.9 88.3 L 71.3 96.2 L 70.55545454025268 96.87772731781006 L 74.2 98.7 L 150.3 98.7 L 156.3 93.7 L 167.3 102.7 L 162.3 106.7 L 162.3 127.6 L 150.3 133.6 L 150.3 127.6 L 74.2 127.6 L 62.2 133.6 L 62.2 104.23483142852783 L 54.6 109.7 L 44.6 115.3 L 33.4 120.1 L 21.1 124.0 L 20.5 122.3 L 31.8 116.6 L 42.0 110.6 L 50.9 104.3 L 58.5 97.6 L 62.2 93.553125 L 62.2 92.7 L 62.73529415130615 92.96764707565308 L 64.9 90.6 L 67.69324321746826 86.7 L 40.0 86.7 L 40.0 82.7 L 70.45641021728515 82.7 L 74.2 75.4 L 76.47108430862427 68.9 L 21.7 68.9 L 21.7 64.9 L 77.58045978546143 64.9 L 79.0 58.4 L 79.46363639831543 51.6 L 41.8 51.6 L 41.8 47.6 L 143.8 47.6 L 149.8 42.6 L 158.72941179275512 49.905882358551025 L 159.8 48.3 L 161.7 45.5 L 163.5 42.8 L 165.2 40.4 L 166.7 38.0 L 168.1 35.8 L 168.157142829895 35.7 L 32.94878044128418 35.7 L 33.0 37.8 L 32.7 41.8 L 31.9 45.5 L 30.8 49.0 L 29.1 52.3 L 27.0 55.3 L 24.4 58.0 L 21.3 60.2 L 16.7 60.5 Z M 74.2 102.7 L 74.2 123.6 L 150.3 123.6 L 150.3 102.7 Z M 87.82424240112304 68.9 L 87.4 70.4 L 83.2 79.7 L 81.351162815094 82.7 L 143.8 82.7 L 143.8 68.9 Z M 91.45943393707276 51.6 L 90.2 60.5 L 88.95555553436279 64.9 L 143.8 64.9 L 143.8 51.6 Z " />
</g>
</svg>
