<svg xmlns="http://www.w3.org/2000/svg" xmlns:xlink="http://www.w3.org/1999/xlink" version="1.1" baseProfile="full" viewBox="0 0 200 200" width="200" height="200">
<g fill="black">
<path d="M 82.0 150.1 L 80.8 156.0 L 78.8 161.5 L 75.9 166.6 L 72.3 171.1 L 68.0 175.2 L 63.0 178.8 L 57.4 181.9 L 51.2 184.4 L 44.3 186.5 L 36.8 187.9 L 36.2 186.2 L 43.0 182.9 L 48.9 179.6 L 54.1 176.2 L 58.5 172.7 L 62.2 169.1 L 65.1 165.3 L 67.2 161.5 L 68.8 157.6 L 69.7 153.5 L 70.0 149.1 L 70.0 136.3 L 21.9 136.3 L 21.9 132.3 L 161.1 132.3 L 171.1 122.3 L 183.1 132.3 L 183.1 136.3 L 137.1 136.3 L 137.1 182.0 L 125.1 188.0 L 125.1 136.3 L 82.0 136.3 L 82.0 149.6 L 81.68421049118042 150.07368421554565 Z M 55.9 119.6 L 43.9 125.6 L 43.9 59.1 L 55.9 65.1 L 146.0 65.1 L 152.0 60.1 L 163.0 69.1 L 158.0 73.1 L 158.0 118.6 L 146.0 124.6 L 146.0 116.6 L 55.9 116.6 Z M 55.9 92.5 L 55.9 112.6 L 95.0 112.6 L 95.0 92.5 Z M 107.0 92.5 L 107.0 112.6 L 146.0 112.6 L 146.0 92.5 Z M 55.9 69.1 L 55.9 88.5 L 95.0 88.5 L 95.0 69.1 Z M 107.0 69.1 L 107.0 88.5 L 146.0 88.5 L 146.0 69.1 Z M 16.7 64.9 L 15.3 60.5 L 17.4 56.4 L 19.4 55.1 L 21.2 53.6 L 22.8 51.8 L 24.3 49.9 L 25.7 47.6 L 26.8 45.1 L 27.8 42.2 L 28.0 41.4 L 28.0 37.9 L 28.788571453094484 37.9 L 29.2 35.5 L 29.2 31.8 L 31.0 31.5 L 31.8 35.3 L 32.43243246078491 37.9 L 94.0 37.9 L 94.0 12.9 L 106.0 14.9 L 109.0 16.9 L 106.0 18.7 L 106.0 37.9 L 171.0 37.9 L 171.60983610153198 37.39180326461792 L 172.0 36.5 L 172.37275743484497 36.75603542327881 L 177.0 32.9 L 188.0 41.9 L 183.0 44.9 L 177.85714282989503 47.04285717010498 L 176.9 48.0 L 174.9 49.8 L 172.7 51.8 L 170.3 54.0 L 167.6 56.3 L 164.8 58.7 L 161.7 61.3 L 158.6 64.2 L 157.3 63.0 L 159.6 59.6 L 161.6 56.1 L 163.4 52.8 L 165.2 49.8 L 166.7 47.1 L 168.1 44.5 L 169.4 42.2 L 169.53636360168457 41.9 L 33.091891860961915 41.9 L 33.2 42.7 L 33.3 46.3 L 33.0 49.8 L 32.2 53.2 L 31.1 56.6 L 29.5 59.8 L 27.5 62.8 L 25.1 65.6 L 20.8 66.9 Z " />
</g>
</svg>
