<svg xmlns="http://www.w3.org/2000/svg" xmlns:xlink="http://www.w3.org/1999/xlink" version="1.1" baseProfile="full" viewBox="0 0 200 200" width="200" height="200">
<g fill="black">
<path d="M 37.1 180.4 L 53.1 180.4 L 54.4 180.3 L 55.3 180.1 L 56.2 179.8 L 56.4 179.6 L 56.5 179.4 L 56.7 179.1 L 56.9 178.5 L 57.1 177.6 L 57.1 139.6 L 21.0 139.6 L 21.0 135.6 L 83.3 135.6 L 93.3 125.6 L 105.3 135.6 L 105.3 139.6 L 69.1 139.6 L 69.1 176.4 L 69.0 178.9 L 68.5 181.4 L 67.7 183.8 L 66.5 186.1 L 64.9 188.1 L 62.9 189.7 L 60.6 191.0 L 58.2 191.8 L 55.7 192.2 L 53.1 192.4 L 53.1 186.4 L 37.1 183.4 Z M 156.6 171.6 L 148.9 162.3 L 143.01760091781617 153.16911191940306 L 139.9 157.1 L 129.7 167.3 L 118.3 175.9 L 105.9 182.8 L 92.4 188.2 L 91.7 186.5 L 104.0 179.5 L 115.2 171.5 L 125.2 162.5 L 134.1 152.3 L 138.9048225402832 145.36645851135253 L 136.4 140.4 L 131.6 127.8 L 127.7 114.2 L 124.7 99.5 L 122.7 83.7 L 121.94285717010499 67.8 L 108.9 67.8 L 108.9 63.8 L 165.6 63.8 L 171.6 58.8 L 182.6 67.8 L 177.6 70.8 L 176.76409759521485 71.14829263687133 L 174.2 85.1 L 169.6 102.3 L 163.9 118.1 L 157.1 132.5 L 149.7095711708069 144.50944690704347 L 150.9 146.5 L 157.6 155.5 L 165.0 163.3 L 172.9 169.9 L 181.6 175.4 L 185.9 178.0 L 174.8 186.7 L 165.2 179.8 Z M 47.6 151.4 L 49.9 154.1 L 45.854082870483396 155.18372783660888 L 44.2 158.4 L 42.2 161.9 L 39.9 165.2 L 37.3 168.4 L 34.5 171.5 L 31.4 174.6 L 28.1 177.5 L 24.4 180.2 L 20.6 183.0 L 19.4 181.7 L 22.2 178.1 L 24.6 174.4 L 26.8 170.8 L 28.9 167.4 L 30.6 164.0 L 32.2 160.7 L 33.5 157.4 L 34.6 154.2 L 35.4 151.1 L 35.815347290039064 149.02326335906983 L 35.7 149.0 L 36.5 146.4 Z M 87.5 164.1 L 86.8 162.3 L 85.8 160.5 L 84.7 158.6 L 83.4 156.7 L 82.0 154.6 L 80.4 152.5 L 78.7 150.3 L 76.5 148.5 L 77.5 147.0 L 80.0 148.4 L 82.8 149.5 L 85.3 150.7 L 87.7 152.0 L 89.9 153.4 L 92.0 154.9 L 94.0 156.5 L 95.8 158.1 L 97.5 159.8 L 99.1 161.7 L 99.5 166.2 L 96.6 169.8 L 92.1 170.2 L 88.5 167.3 L 88.1 165.8 Z M 123.91463413238526 67.8 L 126.9 83.1 L 130.5 98.3 L 134.6 112.2 L 139.4 124.9 L 144.65160760879516 135.986727142334 L 148.8 128.3 L 154.6 114.4 L 159.3 99.3 L 163.0 82.8 L 165.2752808570862 67.8 Z M 94.2 116.4 L 94.2 120.4 L 32.0 120.4 L 32.0 116.4 L 72.2 116.4 L 82.2 106.4 Z M 85.4 95.4 L 83.8 93.7 L 82.0 91.9 L 80.0 90.2 L 77.8 88.4 L 75.4 86.5 L 72.8 84.7 L 69.9 82.7 L 69.1 82.28709678649902 L 69.1 105.0 L 57.1 111.0 L 57.1 81.27567567825318 L 56.1 82.6 L 52.3 87.1 L 48.2 91.2 L 44.0 95.0 L 39.6 98.4 L 35.1 101.3 L 30.3 103.8 L 25.4 105.8 L 20.4 107.2 L 19.6 105.5 L 23.6 102.4 L 27.5 99.3 L 31.2 96.0 L 34.7 92.6 L 38.1 88.9 L 41.4 85.0 L 44.5 80.8 L 47.4 76.3 L 50.2 71.6 L 21.0 71.6 L 21.0 67.6 L 57.1 67.6 L 57.1 50.2 L 69.1 52.2 L 72.1 54.2 L 69.1 56.0 L 69.1 67.6 L 83.3 67.6 L 93.3 57.6 L 105.3 67.6 L 105.3 71.6 L 69.1 71.6 L 69.1 79.83714284896851 L 70.9 80.3 L 74.4 80.9 L 77.7 81.7 L 80.8 82.6 L 83.8 83.6 L 86.6 84.7 L 89.3 86.0 L 91.8 87.3 L 94.2 88.8 L 96.5 90.4 L 98.1 94.7 L 96.3 98.9 L 92.0 100.5 L 87.8 98.8 L 86.7 97.1 Z M 13.2 57.2 L 13.1 52.6 L 16.1 49.2 L 18.1 48.5 L 19.9 47.6 L 21.6 46.4 L 23.3 44.8 L 24.9 42.7 L 26.3 40.2 L 27.6 37.3 L 28.7 33.9 L 29.7 30.1 L 30.1 25.8 L 31.9 25.8 L 32.4 30.2 L 32.65609760284424 32.3 L 94.0 32.3 L 94.0 10.8 L 106.0 12.8 L 109.0 14.8 L 106.0 16.6 L 106.0 32.3 L 170.0 32.3 L 170.65806455612181 31.75161294937134 L 171.2 30.6 L 171.6341675758362 30.938193702697752 L 176.0 27.3 L 187.0 36.3 L 182.0 39.3 L 176.075 41.76875 L 175.1 42.5 L 173.0 44.2 L 170.6 45.8 L 168.1 47.6 L 165.5 49.4 L 162.6 51.2 L 159.5 53.1 L 156.6 55.3 L 155.3 53.9 L 157.8 51.2 L 159.8 48.3 L 161.8 45.5 L 163.6 43.0 L 165.3 40.5 L 166.8 38.3 L 168.07272729873657 36.3 L 32.95 36.3 L 33.0 38.3 L 32.7 42.1 L 31.9 45.7 L 30.7 49.1 L 29.1 52.3 L 26.9 55.2 L 24.3 57.8 L 21.2 60.0 L 16.7 60.2 Z " />
</g>
</svg>
