<svg xmlns="http://www.w3.org/2000/svg" xmlns:xlink="http://www.w3.org/1999/xlink" version="1.1" baseProfile="full" viewBox="0 0 200 200" width="200" height="200">
<g fill="black">
<path d="M 168.7 173.7 L 164.3 169.1 L 160.1 164.3 L 156.1 159.2 L 152.4 153.8 L 149.0 148.1 L 145.8 142.1 L 144.5 139.0666666984558 L 144.5 185.2 L 132.5 191.2 L 132.5 145.8268292427063 L 129.3 150.9 L 124.9 157.1 L 120.1 162.8 L 115.0 168.0 L 109.6 172.8 L 103.9 177.1 L 97.9 180.8 L 91.5 183.9 L 90.6 182.4 L 95.7 177.8 L 100.5 173.0 L 105.1 168.1 L 109.4 162.9 L 113.5 157.5 L 117.2 151.7 L 120.7 145.7 L 124.0 139.3 L 126.9 132.6 L 127.95 129.8 L 93.8 129.8 L 93.8 125.8 L 132.5 125.8 L 132.5 102.5 L 144.5 104.5 L 147.5 106.5 L 144.5 108.3 L 144.5 125.8 L 161.1 125.8 L 171.1 115.8 L 183.1 125.8 L 183.1 129.8 L 144.5 129.8 L 144.5 130.93720932006835 L 146.7 133.7 L 150.8 139.0 L 154.9 144.0 L 159.0 148.7 L 163.2 153.1 L 167.5 157.3 L 171.9 161.1 L 176.4 164.7 L 181.0 168.0 L 185.8 171.0 L 189.3 173.5 L 178.3 181.9 L 173.4 177.9 Z M 35.6 183.7 L 23.6 189.7 L 23.6 124.2 L 35.6 126.2 L 38.6 128.2 L 35.6 130.0 L 35.6 167.7 L 48.2 167.7 L 48.2 113.7 L 19.2 113.7 L 19.2 109.7 L 48.2 109.7 L 48.2 79.5 L 39.2039999961853 79.5 L 39.1 79.7 L 36.3 84.7 L 33.2 89.8 L 29.8 94.9 L 26.1 100.0 L 21.9 105.0 L 20.4 104.1 L 22.8 98.1 L 25.1 92.3 L 27.4 86.8 L 29.5 81.4 L 31.4 76.2 L 33.1 71.2 L 34.6 66.3 L 35.8 61.5 L 36.9 56.9 L 37.53539037704468 53.40535316467285 L 37.5 53.4 L 37.621739101409915 52.93043479919434 L 37.7 52.5 L 37.73145160675049 52.50725803375244 L 38.2 50.7 L 49.4 55.2 L 51.9 57.9 L 48.117218589782716 59.04834432601929 L 47.8 60.0 L 46.0 64.9 L 44.0 69.7 L 41.7 74.7 L 41.28400001525879 75.5 L 64.3 75.5 L 74.3 65.5 L 86.3 75.5 L 86.3 79.5 L 60.2 79.5 L 60.2 109.7 L 69.1 109.7 L 79.1 99.7 L 91.1 109.7 L 91.1 113.7 L 60.2 113.7 L 60.2 167.7 L 72.8 167.7 L 72.8 124.2 L 84.8 126.2 L 87.8 128.2 L 84.8 130.0 L 84.8 177.7 L 72.8 183.7 L 72.8 171.7 L 35.6 171.7 Z M 116.6 60.9 L 160.3 60.9 L 166.3 55.9 L 177.3 64.9 L 172.3 68.9 L 172.3 105.7 L 160.3 111.7 L 160.3 99.7 L 116.6 99.7 L 116.6 111.7 L 104.6 117.7 L 104.6 54.9 Z M 116.6 64.9 L 116.6 95.7 L 160.3 95.7 L 160.3 64.9 Z M 13.3 58.3 L 13.0 53.7 L 15.9 50.2 L 17.9 49.5 L 19.8 48.5 L 21.5 47.1 L 23.2 45.4 L 24.8 43.2 L 26.2 40.5 L 27.5 37.3 L 28.7 33.7 L 29.7 29.6 L 30.1 25.1 L 31.9 25.1 L 32.4 29.7 L 32.672727298736575 32.1 L 94.0 32.1 L 94.0 9.4 L 106.0 11.4 L 109.0 13.4 L 106.0 15.2 L 106.0 32.1 L 170.0 32.1 L 170.64838705062866 31.559677410125733 L 171.1 30.6 L 171.4726674079895 30.87277717590332 L 176.0 27.1 L 187.0 36.1 L 182.0 39.1 L 176.7384614944458 41.292307662963864 L 175.2 42.6 L 173.0 44.3 L 170.7 46.1 L 168.2 48.0 L 165.6 49.9 L 162.7 51.9 L 159.6 53.9 L 156.6 56.3 L 155.3 55.0 L 157.8 52.0 L 159.8 49.0 L 161.7 46.2 L 163.5 43.5 L 165.2 41.0 L 166.7 38.6 L 168.1 36.3 L 168.2199999809265 36.1 L 32.94761905670166 36.1 L 33.0 38.3 L 32.7 42.3 L 32.0 46.1 L 30.8 49.6 L 29.1 52.9 L 27.0 56.0 L 24.4 58.7 L 21.3 61.0 L 16.8 61.2 Z " />
</g>
</svg>
