<svg xmlns="http://www.w3.org/2000/svg" xmlns:xlink="http://www.w3.org/1999/xlink" version="1.1" baseProfile="full" viewBox="0 0 200 200" width="200" height="200">
<g fill="black">
<path d="M 57.3 168.0 L 57.9 171.6 L 53.958222198486325 170.4737777709961 L 51.0 172.6 L 47.7 174.8 L 44.2 176.9 L 40.6 178.9 L 36.8 180.9 L 33.0 182.8 L 28.9 184.5 L 24.7 186.1 L 20.4 187.7 L 19.5 186.2 L 23.1 183.4 L 26.5 180.5 L 29.7 177.7 L 32.9 175.0 L 36.0 172.3 L 38.9 169.7 L 41.6 167.0 L 44.3 164.4 L 46.8 161.8 L 48.44474506378174 159.94072303771972 L 48.4 159.9 L 48.79622640609741 159.5433961868286 L 49.1 159.2 L 49.13547592163086 159.2380717277527 L 49.4 159.0 Z M 86.7 180.0 L 84.6 177.7 L 82.3 175.3 L 79.9 173.0 L 77.3 170.6 L 74.6 168.3 L 71.7 165.9 L 68.7 163.4 L 65.5 161.2 L 66.2 159.6 L 70.1 160.8 L 73.9 162.0 L 77.5 163.4 L 81.0 164.9 L 84.4 166.6 L 87.7 168.3 L 90.8 170.2 L 96.6 174.4 L 99.3 176.7 L 100.8 181.0 L 99.0 185.1 L 94.7 186.7 L 90.5 184.8 L 88.7 182.4 Z M 120.5 174.2 L 108.5 180.2 L 108.5 122.2 L 120.5 124.2 L 123.5 126.2 L 120.5 128.0 L 120.5 158.2 L 137.0 158.2 L 137.0 114.0 L 101.3 114.0 L 101.3 110.0 L 137.0 110.0 L 137.0 80.3 L 122.8 80.3 L 120.3 85.1 L 117.6 89.7 L 114.7 94.1 L 111.6 98.3 L 108.2 102.3 L 104.5 105.9 L 103.0 104.8 L 105.0 100.2 L 107.0 95.5 L 109.0 90.9 L 110.8 86.3 L 112.6 81.6 L 114.2 76.8 L 115.7 71.9 L 117.0 67.0 L 118.2 61.9 L 119.0074631690979 57.70119161605835 L 119.0 57.7 L 119.0297872543335 57.58510637283325 L 119.2 56.7 L 119.25568113327026 56.713801288604735 L 119.7 55.0 L 130.9 59.6 L 133.3 62.3 L 129.62094593048096 63.437162208557126 L 129.1 65.0 L 127.2 70.3 L 125.1 75.4 L 124.67755098342896 76.3 L 154.8 76.3 L 164.8 66.3 L 176.8 76.3 L 176.8 80.3 L 149.0 80.3 L 149.0 110.0 L 162.6 110.0 L 172.6 100.0 L 184.6 110.0 L 184.6 114.0 L 149.0 114.0 L 149.0 158.2 L 165.4 158.2 L 165.4 122.2 L 177.4 124.2 L 180.4 126.2 L 177.4 128.0 L 177.4 168.2 L 165.4 174.2 L 165.4 162.2 L 120.5 162.2 Z M 42.0 69.0 L 78.0 69.0 L 84.0 64.0 L 95.0 73.0 L 90.0 77.0 L 90.0 152.0 L 78.0 158.0 L 78.0 152.0 L 42.0 152.0 L 42.0 155.0 L 30.0 161.0 L 30.0 63.0 Z M 42.0 125.0 L 42.0 148.0 L 78.0 148.0 L 78.0 125.0 Z M 42.0 97.0 L 42.0 121.0 L 78.0 121.0 L 78.0 97.0 Z M 42.0 73.0 L 42.0 93.0 L 78.0 93.0 L 78.0 73.0 Z M 13.4 71.9 L 12.7 67.4 L 15.3 63.7 L 17.3 62.6 L 19.3 61.2 L 21.1 59.3 L 22.9 56.8 L 24.5 53.8 L 26.0 50.3 L 27.3 46.2 L 28.4 41.6 L 29.5 36.4 L 30.1 30.8 L 31.9 30.7 L 32.6 36.5 L 32.94259262084961 40.2 L 94.0 40.2 L 94.0 11.8 L 106.0 13.8 L 109.0 15.8 L 106.0 17.6 L 106.0 40.2 L 170.0 40.2 L 170.5111110687256 39.7740740776062 L 170.8 39.1 L 171.1019165992737 39.2817361831665 L 176.0 35.2 L 187.0 44.2 L 182.0 47.2 L 177.85379314422607 48.92758617401123 L 177.5 49.3 L 175.5 51.5 L 173.4 53.7 L 171.0 56.1 L 168.5 58.5 L 165.8 61.1 L 162.9 63.7 L 159.7 66.3 L 156.6 69.3 L 155.3 68.1 L 157.6 64.5 L 159.6 61.0 L 161.4 57.6 L 163.2 54.4 L 164.9 51.4 L 166.4 48.6 L 167.7 46.0 L 168.56400003433228 44.2 L 33.1442307472229 44.2 L 33.2 47.1 L 32.9 51.8 L 32.2 56.3 L 31.0 60.5 L 29.4 64.4 L 27.3 67.9 L 24.8 71.1 L 21.7 73.8 L 17.1 74.5 Z " />
</g>
</svg>
