<svg xmlns="http://www.w3.org/2000/svg" xmlns:xlink="http://www.w3.org/1999/xlink" version="1.1" baseProfile="full" viewBox="0 0 200 200" width="200" height="200">
<g fill="black">
<path d="M 150.5 181.3 L 141.0 176.9 L 132.4 171.9 L 130.8239351272583 170.70730218887329 L 124.9 173.4 L 112.6 177.7 L 99.1 181.2 L 84.2 183.9 L 68.2 185.8 L 67.9 184.0 L 83.5 180.2 L 97.7 176.1 L 110.4 171.5 L 121.8 166.5 L 123.95469989776612 165.30294446945192 L 118.5 160.1 L 113.3 153.4 L 109.2 146.1 L 106.4 138.4 L 105.23000001907349 131.2 L 88.7 131.2 L 88.7 127.2 L 159.9 127.2 L 165.9 122.2 L 176.9 131.2 L 171.9 134.2 L 169.55581398010253 135.17674417495726 L 167.1 140.2 L 161.3 148.5 L 154.1 155.9 L 145.6 162.5 L 141.58198909759523 164.94394483566285 L 145.7 166.9 L 154.6 170.3 L 164.5 173.2 L 175.4 175.6 L 184.3 177.6 L 172.5 188.5 L 161.0 185.2 Z M 23.1 154.7 L 25.4 154.51960783004762 L 25.4 133.1 L 37.4 135.1 L 40.4 137.1 L 37.4 138.9 L 37.4 153.73333330154418 L 39.3 153.6 L 45.3 153.2 L 51.6 152.9 L 58.3 152.5 L 65.0 152.20869569778444 L 65.0 121.8 L 77.0 123.8 L 80.0 125.8 L 77.0 127.6 L 77.0 151.83999996185304 L 80.0 151.8 L 87.9 151.8 L 88.2 153.6 L 80.5 155.5 L 76.21878204345703 156.48352308273314 L 74.4 160.5 L 71.3 165.4 L 67.5 169.8 L 63.1 173.6 L 58.1 177.0 L 52.6 179.9 L 46.5 182.3 L 39.9 184.3 L 32.7 185.6 L 24.9 186.5 L 24.6 184.7 L 31.7 182.0 L 38.1 179.2 L 43.9 176.3 L 48.9 173.3 L 53.3 170.0 L 56.9 166.7 L 59.9 163.1 L 62.3 159.5 L 62.34825534820557 159.3981276512146 L 59.2 160.0 L 52.7 161.3 L 46.5 162.5 L 40.5 163.6 L 34.9 164.6 L 29.6 165.6 L 28.736518764495848 165.77269620895385 L 27.0 169.3 L 24.6 166.6 L 21.1 154.9 Z M 107.45 131.2 L 110.3 136.9 L 114.3 143.2 L 119.0 148.9 L 124.4 154.2 L 130.6 158.9 L 132.80986127853393 160.2072419166565 L 140.1 155.0 L 147.2 148.7 L 152.8 141.9 L 157.2 134.8 L 158.62105264663697 131.2 Z M 23.0 109.7 L 54.5 109.7 L 54.5 90.6 L 28.7 90.6 L 28.7 86.6 L 74.01818180084229 86.6 L 82.2 77.6 L 92.2 86.6 L 92.2 90.6 L 66.5 90.6 L 66.5 109.7 L 79.71818180084229 109.7 L 87.9 100.7 L 97.9 109.7 L 97.9 113.7 L 23.0 113.7 Z M 103.9 109.7 L 134.5 109.7 L 134.5 90.6 L 109.4 90.6 L 109.4 86.6 L 153.3181818008423 86.6 L 161.5 77.6 L 171.5 86.6 L 171.5 90.6 L 146.5 90.6 L 146.5 109.7 L 158.8181818008423 109.7 L 167.0 100.7 L 177.0 109.7 L 177.0 113.7 L 103.9 113.7 Z M 104.5 72.0 L 132.5 72.0 L 132.5 54.2 L 109.6 54.2 L 109.6 50.2 L 149.11818180084228 50.2 L 157.3 41.2 L 160.97933492660522 44.51140146255493 L 161.9 43.3 L 163.8 40.9 L 165.5 38.7 L 167.0 36.7 L 167.7699999809265 35.6 L 32.85 35.6 L 32.9 37.4 L 32.6 40.8 L 31.8 44.1 L 30.6 47.2 L 28.9 50.1 L 26.7 52.8 L 24.1 55.1 L 21.0 57.1 L 16.5 57.1 L 13.2 53.9 L 13.2 49.4 L 16.4 46.1 L 18.4 45.5 L 20.2 44.8 L 21.9 43.8 L 23.5 42.5 L 25.0 40.8 L 26.4 38.7 L 27.7 36.3 L 28.8 33.3 L 29.8 30.0 L 30.1 26.2 L 31.9 26.2 L 32.3 30.1 L 32.502702713012695 31.6 L 94.0 31.6 L 94.0 12.7 L 106.0 14.7 L 109.0 16.7 L 106.0 18.5 L 106.0 31.6 L 170.0 31.6 L 170.7199999809265 31.0 L 171.5 29.7 L 171.87769317626953 30.035255718231202 L 176.0 26.6 L 187.0 35.6 L 182.0 38.6 L 174.63448276519776 41.66896553039551 L 172.7 42.9 L 170.4 44.3 L 168.0 45.8 L 165.3 47.3 L 164.53383083343505 47.710447788238525 L 167.3 50.2 L 167.3 54.2 L 144.5 54.2 L 144.5 72.0 L 154.21818180084227 72.0 L 162.4 63.0 L 172.4 72.0 L 172.4 76.0 L 104.5 76.0 Z M 27.6 72.0 L 56.0 72.0 L 56.0 54.2 L 32.8 54.2 L 32.8 50.2 L 73.01818180084229 50.2 L 81.2 41.2 L 91.2 50.2 L 91.2 54.2 L 68.0 54.2 L 68.0 72.0 L 78.21818180084229 72.0 L 86.4 63.0 L 96.4 72.0 L 96.4 76.0 L 27.6 76.0 Z " />
</g>
</svg>
