<svg xmlns="http://www.w3.org/2000/svg" xmlns:xlink="http://www.w3.org/1999/xlink" version="1.1" baseProfile="full" viewBox="0 0 200 200" width="200" height="200">
<g fill="black">
<path d="M 170.0 143.6 L 172.0 143.6 L 170.0 168.6 L 173.6 171.0 L 176.0 174.6 L 173.6 178.2 L 170.0 180.6 L 65.0 180.6 L 62.4 180.5 L 59.9 180.0 L 57.5 179.2 L 55.2 178.0 L 53.2 176.3 L 51.6 174.3 L 50.3 172.1 L 49.5 169.6 L 49.1 167.2 L 49.0 164.6 L 49.0 114.9 L 61.0 116.9 L 64.0 118.9 L 61.0 120.7 L 61.0 144.21521739959718 L 64.0 143.4 L 73.2 141.0 L 82.3 138.8 L 91.4 136.7 L 100.5 134.7 L 109.4 132.6 L 118.4 130.6 L 127.2 128.6 L 136.1 126.6 L 143.80797986984254 124.82805061340332 L 143.8 124.8 L 143.82833013534545 124.82337236404419 L 144.8 124.6 L 145.0380711555481 125.82140874862671 L 155.8 134.7 L 156.2 137.7 L 151.77355375289918 135.48677682876587 L 147.1 136.4 L 138.2 137.8 L 129.2 139.2 L 120.2 140.5 L 111.1 141.8 L 102.0 143.0 L 92.7 144.2 L 83.4 145.3 L 74.1 146.3 L 64.6 147.1 L 61.0 147.32736845016478 L 61.0 165.8 L 61.2 166.7 L 61.4 167.3 L 61.5 167.7 L 61.7 167.8 L 61.9 168.0 L 62.2 168.2 L 62.8 168.4 L 63.7 168.5 L 65.0 168.6 L 164.0 168.6 Z M 13.1 124.3 L 13.4 119.8 L 16.8 116.7 L 18.8 116.3 L 20.6 115.8 L 22.3 115.1 L 23.8 114.2 L 25.3 113.0 L 26.6 111.5 L 27.8 109.6 L 28.9 107.4 L 29.9 104.7 L 30.1 101.7 L 31.9 101.6 L 32.2 104.8 L 32.329032230377194 105.6 L 94.0 105.6 L 94.0 90.2 L 106.0 92.2 L 109.0 94.2 L 106.0 96.0 L 106.0 105.6 L 170.0 105.6 L 170.6 105.1 L 171.0 104.5 L 171.9 103.2 L 172.32540197372435 103.66216506958008 L 176.0 100.6 L 187.0 109.6 L 182.0 112.6 L 170.0 117.6 L 170.0 117.05 L 167.7 118.2 L 165.1 119.3 L 162.3 120.5 L 159.3 121.6 L 156.4 123.2 L 155.5 121.7 L 158.0 119.6 L 160.1 117.3 L 162.1 115.1 L 164.0 113.0 L 165.8 111.1 L 167.05 109.6 L 32.75666666030884 109.6 L 32.8 110.9 L 32.4 113.9 L 31.6 116.8 L 30.3 119.5 L 28.5 122.0 L 26.3 124.3 L 23.7 126.3 L 20.8 128.0 L 16.2 127.7 Z M 104.9 20.6 L 105.9 24.0 L 101.19102993011475 23.25647840499878 L 100.3 23.9 L 98.4 25.3 L 96.3 26.9 L 94.0 28.7 L 91.4 30.6 L 88.6 32.7 L 85.6 34.9 L 85.48888893127442 35.0 L 145.0 35.0 L 151.0 30.0 L 162.0 39.0 L 157.0 43.0 L 157.0 87.0 L 145.0 93.0 L 145.0 83.0 L 55.0 83.0 L 55.0 90.0 L 43.0 96.0 L 43.0 29.0 L 55.0 35.0 L 82.30645160675049 35.0 L 83.7 33.2 L 85.7 30.0 L 87.5 27.0 L 89.2 24.3 L 90.8 21.9 L 92.1 19.6 L 93.3 17.6 L 94.3 15.8 L 95.1 14.2 L 95.30826444625855 13.748760318756103 L 95.1 13.6 L 96.1 12.4 Z M 55.0 61.0 L 55.0 79.0 L 145.0 79.0 L 145.0 61.0 Z M 55.0 39.0 L 55.0 57.0 L 145.0 57.0 L 145.0 39.0 Z " />
</g>
</svg>
