<svg xmlns="http://www.w3.org/2000/svg" xmlns:xlink="http://www.w3.org/1999/xlink" version="1.1" baseProfile="full" viewBox="0 0 200 200" width="200" height="200">
<g fill="black">
<path d="M 57.1 170.6 L 57.7 174.2 L 53.40754718780518 172.97358493804933 L 52.1 173.7 L 49.0 175.3 L 45.6 176.9 L 41.8 178.5 L 37.6 180.2 L 32.9 181.9 L 27.8 183.6 L 22.3 185.3 L 16.4 187.2 L 15.6 185.5 L 20.9 182.3 L 25.8 179.3 L 30.2 176.4 L 34.3 173.8 L 37.9 171.3 L 41.1 169.1 L 43.8 167.0 L 46.0 165.0 L 47.8 163.3 L 48.33888168334961 162.626397895813 L 48.2 162.5 L 49.2 161.6 Z M 99.0 181.25217390060425 L 98.8 181.6 L 94.3 182.6 L 90.4 180.3 L 90.2 179.4 L 89.5 178.3 L 88.3 176.9 L 86.7 175.4 L 84.6 173.8 L 82.2 172.2 L 79.4 170.4 L 76.1 168.6 L 72.6 166.7 L 68.5 165.1 L 69.0 163.4 L 73.3 164.2 L 77.5 164.7 L 81.2 165.4 L 84.7 166.2 L 87.9 167.0 L 90.8 167.9 L 93.4 168.9 L 95.8 170.1 L 98.0 171.5 L 100.0 173.2 L 101.1 177.6 L 101.04250001907349 177.7 L 136.0 177.7 L 136.0 141.6 L 124.3 141.6 L 124.3 153.6 L 112.3 159.6 L 112.3 83.0 L 124.3 89.0 L 136.0 89.0 L 136.0 62.6 L 108.0 62.6 L 108.0 58.6 L 154.0 58.6 L 156.4 56.2 L 157.3 55.0 L 159.3 51.8 L 161.1 48.8 L 162.9 45.9 L 164.5 43.3 L 166.0 40.7 L 167.3 38.4 L 167.73636360168456 37.6 L 32.64666662216187 37.6 L 32.7 40.0 L 32.3 44.2 L 31.6 48.2 L 30.5 52.0 L 28.9 55.5 L 28.834375 55.6 L 83.11818180084228 55.6 L 91.3 46.6 L 101.3 55.6 L 101.3 59.6 L 68.4 59.6 L 68.4 73.2 L 79.91818180084229 73.2 L 88.1 64.2 L 98.1 73.2 L 98.1 77.2 L 68.4 77.2 L 68.4 90.8 L 90.3777777671814 90.8 L 96.6 83.8 L 104.6 90.8 L 104.6 94.8 L 20.3 94.8 L 20.3 90.8 L 56.4 90.8 L 56.4 77.2 L 26.8 77.2 L 26.8 73.2 L 56.4 73.2 L 56.4 59.6 L 26.0241379737854 59.6 L 24.3 61.6 L 21.3 64.0 L 16.7 64.5 L 13.1 61.7 L 12.6 57.1 L 15.5 53.5 L 17.4 52.7 L 19.2 51.6 L 21.0 50.0 L 22.7 48.0 L 24.3 45.5 L 25.7 42.5 L 27.0 39.1 L 28.1 35.1 L 29.1 30.7 L 29.6 25.7 L 31.4 25.7 L 32.0 30.7 L 32.3625 33.6 L 93.5 33.6 L 93.5 12.1 L 105.5 14.1 L 108.5 16.1 L 105.5 17.9 L 105.5 33.6 L 169.3 33.6 L 169.93243246078492 33.07297296524048 L 170.3 32.2 L 170.67694015502929 32.45254993438721 L 175.3 28.6 L 186.3 37.6 L 181.3 40.6 L 176.5 42.6 L 174.8 44.3 L 172.6 46.2 L 170.3 48.2 L 167.8 50.3 L 166.90625 51.021875 L 176.0 58.6 L 176.0 62.6 L 148.0 62.6 L 148.0 89.0 L 160.1 89.0 L 166.1 84.0 L 177.1 93.0 L 172.1 97.0 L 172.1 147.6 L 160.1 153.6 L 160.1 141.6 L 148.0 141.6 L 148.0 177.7 L 163.5 177.7 L 173.5 167.7 L 185.5 177.7 L 185.5 181.7 L 99.0 181.7 Z M 39.3 104.4 L 85.6 104.4 L 91.6 99.4 L 102.6 108.4 L 97.6 112.4 L 97.6 160.4 L 85.6 166.4 L 85.6 160.4 L 39.3 160.4 L 27.3 166.4 L 27.3 98.4 Z M 39.3 142.8 L 39.3 156.4 L 85.6 156.4 L 85.6 142.8 Z M 39.3 125.2 L 39.3 138.8 L 85.6 138.8 L 85.6 125.2 Z M 124.3 93.0 L 124.3 137.6 L 160.1 137.6 L 160.1 93.0 Z M 39.3 108.4 L 39.3 121.2 L 85.6 121.2 L 85.6 108.4 Z " />
</g>
</svg>
