<svg xmlns="http://www.w3.org/2000/svg" xmlns:xlink="http://www.w3.org/1999/xlink" version="1.1" baseProfile="full" viewBox="0 0 200 200" width="200" height="200">
<g fill="black">
<path d="M 66.3 62.9 L 68.5 65.7 L 64.75309381484985 66.48882236480713 L 63.8 68.7 L 60.9 74.4 L 57.6 80.1 L 55.02321424484253 84.0 L 148.0 84.0 L 158.0 74.0 L 170.0 84.0 L 170.0 88.0 L 106.0 88.0 L 106.0 126.0 L 160.0 126.0 L 170.0 116.0 L 182.0 126.0 L 182.0 130.0 L 106.0 130.0 L 106.0 182.0 L 94.0 188.0 L 94.0 130.0 L 18.0 130.0 L 18.0 126.0 L 94.0 126.0 L 94.0 88.0 L 52.25714282989502 88.0 L 49.9 91.3 L 45.5 96.8 L 40.7 102.2 L 35.4 107.5 L 29.8 112.6 L 23.6 117.6 L 22.3 116.3 L 27.0 110.1 L 31.4 104.0 L 35.5 98.1 L 39.4 92.3 L 42.8 86.6 L 46.0 80.9 L 48.8 75.3 L 51.2 69.8 L 53.2 64.3 L 54.66141729354858 59.915748023986815 L 54.6 59.9 L 55.5 57.5 Z M 32.9 46.4 L 32.6 51.6 L 31.9 56.5 L 30.7 61.0 L 29.2 65.2 L 27.2 69.0 L 24.7 72.5 L 21.6 75.4 L 17.1 76.4 L 13.3 73.9 L 12.3 69.5 L 14.8 65.6 L 16.7 64.4 L 18.7 62.7 L 20.6 60.5 L 22.3 57.6 L 24.0 54.2 L 25.5 50.2 L 26.7 45.6 L 27.9 40.4 L 28.9 34.7 L 29.6 28.4 L 31.4 28.4 L 32.3 34.8 L 32.65833330154419 39.1 L 93.5 39.1 L 93.5 11.8 L 105.5 13.8 L 108.5 15.8 L 105.5 17.6 L 105.5 39.1 L 169.3 39.1 L 169.8938775062561 38.60510206222534 L 170.0 38.3 L 170.15802755355836 38.38497705459595 L 175.3 34.1 L 186.3 43.1 L 181.3 46.1 L 177.8548387527466 47.535483837127686 L 177.1 48.5 L 175.1 50.9 L 173.0 53.5 L 170.7 56.1 L 168.2 58.9 L 165.5 61.7 L 162.6 64.7 L 159.4 67.7 L 156.3 70.9 L 154.9 69.9 L 157.1 66.0 L 159.0 62.1 L 160.8 58.4 L 162.6 55.0 L 164.2 51.8 L 165.6 48.7 L 167.0 45.8 L 168.1 43.1 L 32.84107141494751 43.1 Z " />
</g>
</svg>
