<svg xmlns="http://www.w3.org/2000/svg" xmlns:xlink="http://www.w3.org/1999/xlink" version="1.1" baseProfile="full" viewBox="0 0 200 200" width="200" height="200">
<g fill="black">
<path d="M 151.5 183.1 L 142.3 179.5 L 134.0 175.1 L 126.4 170.0 L 119.7 164.3 L 113.9 158.0 L 109.1 151.0 L 105.2 143.4 L 104.01565589904786 139.8031029701233 L 98.7 143.6 L 91.2 148.4 L 83.4 152.8 L 78.0 155.46746988296508 L 78.0 174.65945949554444 L 82.6 174.1 L 90.2 173.2 L 98.1 172.4 L 106.3 171.7 L 114.8 171.1 L 115.1 172.8 L 107.0 175.4 L 99.1 177.7 L 91.4 179.7 L 83.9 181.6 L 76.7 183.3 L 69.7 185.0 L 62.9 186.5 L 56.3 188.0 L 50.0 189.4 L 47.916336631774904 189.84405937194825 L 46.3 193.4 L 43.9 190.7 L 40.0 179.2 L 42.0 178.9 L 48.1 178.2 L 54.5 177.4 L 61.2 176.7 L 66.0 176.07391300201417 L 66.0 160.9944444656372 L 57.5 164.3 L 48.0 167.5 L 38.2 170.4 L 27.9 172.8 L 17.2 174.8 L 16.7 173.1 L 26.8 169.2 L 36.5 165.3 L 45.7 161.4 L 54.5 157.3 L 62.9 153.1 L 66.0 151.37341775894166 L 66.0 150.0 L 68.46590909957885 150.0 L 70.8 148.7 L 78.3 144.1 L 85.4 139.4 L 92.0 134.4 L 98.2 129.3 L 102.84387464523316 135.05840454101562 L 104.2 134.5 L 108.8 141.4 L 113.8 147.5 L 119.2 153.1 L 125.2 158.0 L 131.7 162.3 L 133.9564383506775 163.50767126083375 L 134.1 163.4 L 137.7 160.6 L 141.3 157.9 L 145.0 155.2 L 148.6 152.5 L 152.3 149.8 L 155.9 147.1 L 163.1 141.5 L 165.92221822738648 139.22654647827147 L 165.9 139.2 L 165.92302160263063 139.22589931488037 L 166.7 138.6 L 171.77975463867188 145.81472396850586 L 173.9 148.2 L 174.0 151.8 L 170.48163976669312 150.3014391899109 L 169.5 150.9 L 165.4 153.2 L 161.2 155.5 L 157.1 157.6 L 148.7 161.6 L 144.4 163.4 L 140.1 165.0 L 138.05031051635743 165.69875774383544 L 138.8 166.1 L 146.5 169.2 L 155.0 171.9 L 164.1 173.9 L 173.9 175.4 L 183.8 176.9 L 172.0 188.5 L 161.3 186.1 Z M 56.0 135.0 L 44.0 141.0 L 44.0 92.0 L 56.0 98.0 L 139.0 98.0 L 145.0 93.0 L 156.0 102.0 L 151.0 106.0 L 151.0 132.0 L 139.0 138.0 L 139.0 128.0 L 56.0 128.0 Z M 56.0 102.0 L 56.0 124.0 L 76.0 124.0 L 76.0 102.0 Z M 88.0 102.0 L 88.0 124.0 L 109.0 124.0 L 109.0 102.0 Z M 121.0 102.0 L 121.0 124.0 L 139.0 124.0 L 139.0 102.0 Z M 36.5 82.0 L 95.0 82.0 L 95.0 66.2 L 46.2 66.2 L 46.2 62.2 L 95.0 62.2 L 95.0 48.8 L 107.0 50.8 L 110.0 52.8 L 107.0 54.6 L 107.0 62.2 L 137.51818180084229 62.2 L 145.7 53.2 L 155.7 62.2 L 155.7 66.2 L 107.0 66.2 L 107.0 82.0 L 147.3181818008423 82.0 L 155.5 73.0 L 165.5 82.0 L 165.5 86.0 L 36.5 86.0 Z M 20.2 67.9 L 18.7 63.6 L 20.6 59.4 L 22.5 58.0 L 24.3 56.4 L 26.0 54.6 L 27.4 52.5 L 28.7 50.1 L 29.9 47.4 L 30.8 44.5 L 31.1 43.2625 L 31.1 40.1 L 31.808108139038087 40.1 L 32.3 37.5 L 32.3 33.6 L 34.1 33.4 L 34.9 37.3 L 35.54615383148193 40.1 L 95.0 40.1 L 95.0 14.3 L 107.0 16.3 L 110.0 18.3 L 107.0 20.1 L 107.0 40.1 L 169.6 40.1 L 170.30746269226074 39.51044778823852 L 170.6 38.8 L 170.9159776687622 39.0033519744873 L 175.6 35.1 L 186.6 44.1 L 181.6 47.1 L 176.97142858505248 49.02857141494751 L 175.8 50.2 L 173.8 52.1 L 171.7 54.2 L 169.3 56.5 L 166.7 58.9 L 163.9 61.4 L 160.9 64.1 L 157.9 67.1 L 156.5 66.0 L 158.8 62.4 L 160.6 58.8 L 162.4 55.5 L 164.1 52.5 L 165.6 49.6 L 168.1 44.6 L 168.32727270126344 44.1 L 36.19189186096192 44.1 L 36.3 44.9 L 36.4 48.6 L 36.1 52.2 L 35.4 55.7 L 34.3 59.1 L 32.8 62.3 L 30.9 65.4 L 28.6 68.3 L 24.3 69.8 Z " />
</g>
</svg>
