<svg xmlns="http://www.w3.org/2000/svg" xmlns:xlink="http://www.w3.org/1999/xlink" version="1.1" baseProfile="full" viewBox="0 0 200 200" width="200" height="200">
<g fill="black">
<path d="M 129.7 176.0 L 149.7 176.0 L 151.0 175.9 L 151.9 175.7 L 152.8 175.4 L 153.2 175.0 L 153.5 174.1 L 153.7 173.2 L 153.7 69.0 L 101.8 69.0 L 101.8 65.0 L 153.7 65.0 L 153.7 13.0 L 165.7 15.0 L 168.7 17.0 L 165.7 18.8 L 165.7 65.0 L 170.51818180084229 65.0 L 178.7 56.0 L 188.7 65.0 L 188.7 69.0 L 165.7 69.0 L 165.7 172.0 L 165.6 174.5 L 165.2 177.0 L 164.4 179.4 L 163.1 181.7 L 161.5 183.7 L 159.5 185.3 L 157.2 186.6 L 154.8 187.4 L 152.3 187.8 L 149.7 188.0 L 149.7 182.0 L 129.7 179.0 Z M 32.0 180.8 L 20.0 186.8 L 20.0 109.2 L 32.0 115.2 L 86.0 115.2 L 92.0 110.2 L 103.0 119.2 L 98.0 123.2 L 98.0 177.8 L 86.0 183.8 L 86.0 173.8 L 32.0 173.8 Z M 32.0 146.5 L 32.0 169.8 L 53.0 169.8 L 53.0 146.5 Z M 65.0 146.5 L 65.0 169.8 L 86.0 169.8 L 86.0 146.5 Z M 32.0 119.2 L 32.0 142.5 L 53.0 142.5 L 53.0 119.2 Z M 65.0 119.2 L 65.0 142.5 L 86.0 142.5 L 86.0 119.2 Z M 125.9 120.0 L 124.4 116.2 L 122.7 112.4 L 120.6 108.6 L 118.2 104.8 L 115.6 101.0 L 112.6 97.2 L 109.3 93.2 L 105.8 89.3 L 106.9 87.8 L 111.6 90.5 L 116.1 93.4 L 120.2 96.6 L 123.9 100.1 L 127.3 103.7 L 130.4 107.5 L 133.2 111.5 L 135.6 115.6 L 137.7 120.0 L 139.5 124.5 L 138.9 129.0 L 135.3 131.8 L 130.8 131.2 L 127.9 127.6 L 127.1 123.8 Z M 65.0 16.1 L 68.0 18.1 L 65.0 19.9 L 65.0 32.7 L 77.7 32.7 L 87.7 22.7 L 99.7 32.7 L 99.7 36.7 L 65.0 36.7 L 65.0 56.7 L 79.31818180084228 56.7 L 87.5 47.7 L 97.5 56.7 L 97.5 60.7 L 65.0 60.7 L 65.0 81.8 L 87.01818180084229 81.8 L 95.2 72.8 L 105.2 81.8 L 105.2 85.8 L 65.0 85.8 L 65.0 105.3 L 53.0 111.3 L 53.0 85.8 L 13.9 85.8 L 13.9 81.8 L 53.0 81.8 L 53.0 60.7 L 21.0 60.7 L 21.0 56.7 L 53.0 56.7 L 53.0 36.7 L 18.8 36.7 L 18.8 32.7 L 53.0 32.7 L 53.0 14.1 Z " />
</g>
</svg>
