<svg xmlns="http://www.w3.org/2000/svg" xmlns:xlink="http://www.w3.org/1999/xlink" version="1.1" baseProfile="full" viewBox="0 0 200 200" width="200" height="200">
<g fill="black">
<path d="M 104.0 177.0 L 125.2 177.0 L 126.1 176.8 L 126.7 176.6 L 127.0 176.4 L 127.2 176.3 L 127.4 176.1 L 127.7 175.2 L 127.9 174.3 L 128.0 173.0 L 128.0 151.2 L 19.0 151.2 L 19.0 147.2 L 128.0 147.2 L 128.0 132.2 L 140.0 134.2 L 143.0 136.2 L 140.0 138.0 L 140.0 147.2 L 161.8181818008423 147.2 L 170.0 138.2 L 180.0 147.2 L 180.0 151.2 L 140.0 151.2 L 140.0 173.0 L 139.8 175.6 L 139.4 178.1 L 138.6 180.5 L 137.3 182.8 L 135.7 184.8 L 133.7 186.4 L 131.4 187.6 L 129.0 188.5 L 126.5 188.9 L 124.0 189.0 L 124.0 183.0 L 104.0 180.0 Z M 73.1 173.7 L 71.8 171.5 L 70.4 169.4 L 68.8 167.3 L 67.1 165.2 L 65.2 163.1 L 63.1 161.0 L 61.0 158.8 L 58.4 157.0 L 59.2 155.4 L 62.2 156.6 L 65.3 157.5 L 68.2 158.7 L 71.0 160.0 L 73.7 161.6 L 76.3 163.3 L 78.8 165.1 L 81.1 167.1 L 83.3 169.3 L 85.4 171.6 L 86.1 176.1 L 83.6 179.9 L 79.1 180.7 L 75.3 178.1 L 74.3 175.9 Z M 165.25553436279296 74.57557249069214 L 161.6 77.5 L 161.6 104.0 L 149.6 110.0 L 149.6 102.0 L 137.3 102.0 L 141.8 106.5 L 141.8 110.5 L 73.6 110.5 L 73.6 118.8 L 135.6 118.8 L 140.1 112.8 L 146.1 118.8 L 146.1 122.8 L 73.6 122.8 L 64.8 127.2 L 149.9777777671814 127.2 L 156.2 120.2 L 164.2 127.2 L 164.2 131.2 L 48.1 131.2 L 48.1 134.2 L 36.1 140.2 L 36.1 92.0 L 48.1 98.0 L 122.9 98.0 L 122.9 93.2 L 49.1 93.2 L 49.1 89.2 L 122.9 89.2 L 122.9 80.9 L 49.1 80.9 L 49.1 76.9 L 122.9 76.9 L 126.98000001907349 73.5 L 34.3 73.5 L 34.3 72.01214284896851 L 28.6 73.6 L 13.2 76.8 L 12.7 75.1 L 27.5 70.0 L 40.8 64.7 L 52.6 59.1 L 62.9 53.1 L 65.1709677696228 51.5 L 15.0 51.5 L 15.0 47.5 L 70.84838705062866 47.5 L 71.7 46.9 L 78.9 40.3 L 80.43529415130615 38.5 L 34.0 38.5 L 34.0 34.5 L 83.8470588684082 34.5 L 84.7 33.5 L 89.1 26.4 L 89.46986303329467 25.5 L 27.0 25.5 L 27.0 21.5 L 91.1136986732483 21.5 L 92.1 19.1 L 93.79489049911498 11.849635028839112 L 94.2 9.5 L 105.7 13.5 L 108.3 16.0 L 104.52610216140747 17.44094285964966 L 103.31702127456666 21.5 L 154.8181818008423 21.5 L 163.0 12.5 L 173.0 21.5 L 173.0 25.5 L 101.6 25.5 L 98.5 31.7 L 96.460493850708 34.5 L 151.7777777671814 34.5 L 158.0 27.5 L 166.0 34.5 L 166.0 38.5 L 116.4 38.5 L 118.5 40.2 L 123.1 43.6 L 128.1 46.8 L 129.34193544387819 47.5 L 170.7777777671814 47.5 L 177.0 40.5 L 185.0 47.5 L 185.0 51.5 L 136.90666666030884 51.5 L 139.8 52.9 L 146.6 55.7 L 154.1 58.4 L 162.2 61.0 L 171.0 63.3 L 180.6 65.5 L 189.1 67.7 L 177.3 78.4 L 167.6 75.4 Z M 48.1 102.0 L 48.1 127.2 L 61.6 127.2 L 61.6 102.0 Z M 64.6 102.0 L 73.6 106.5 L 131.3 106.5 L 134.675 102.0 Z M 130.8555555343628 73.5 L 139.9 80.9 L 134.9 84.9 L 134.9 93.2 L 125.3 98.0 L 149.6 98.0 L 149.6 73.5 Z M 79.5666666984558 51.5 L 76.7 53.7 L 66.7 59.7 L 55.3 65.0 L 43.140425491333005 69.5 L 149.6 69.5 L 150.40666666030884 68.8277777671814 L 150.1 68.7 L 142.4 65.1 L 135.4 61.2 L 129.2 57.0 L 123.7 52.6 L 122.62340421676636 51.5 Z M 93.54691362380981 38.5 L 92.6 39.8 L 85.3 47.1 L 84.77878789901733 47.5 L 118.79795913696289 47.5 L 115.4 43.0 L 113.15 38.5 Z " />
</g>
</svg>
