<svg xmlns="http://www.w3.org/2000/svg" xmlns:xlink="http://www.w3.org/1999/xlink" version="1.1" baseProfile="full" viewBox="0 0 200 200" width="200" height="200">
<g fill="black">
<path d="M 127.0 175.4 L 147.0 175.4 L 148.2 175.3 L 149.1 175.2 L 149.7 175.0 L 150.0 174.8 L 150.2 174.7 L 150.4 174.5 L 150.5 174.1 L 150.7 173.6 L 150.9 172.6 L 151.0 171.4 L 151.0 122.5 L 95.68571424484253 122.5 L 101.4 127.5 L 101.4 131.4319149017334 L 104.9 132.4 L 109.3 133.5 L 113.4 134.8 L 117.2 136.2 L 120.7 137.7 L 123.9 139.4 L 126.8 141.2 L 129.4 143.2 L 131.7 145.4 L 133.8 147.8 L 134.2 152.3 L 131.4 155.9 L 126.8 156.4 L 123.2 153.6 L 122.7 152.0 L 121.7 150.3 L 120.4 148.3 L 118.6 146.3 L 116.4 144.2 L 113.9 142.0 L 110.9 139.8 L 107.5 137.5 L 103.8 135.0 L 99.6 132.8 L 100.05882349014283 131.5 L 12.4 131.5 L 12.4 127.5 L 50.9 127.5 L 50.9 111.3 L 18.6 111.3 L 18.6 107.3 L 50.9 107.3 L 50.9 91.4 L 62.9 93.4 L 65.9 95.4 L 62.9 97.2 L 62.9 107.3 L 78.81818180084228 107.3 L 87.0 98.3 L 97.0 107.3 L 97.0 111.3 L 62.9 111.3 L 62.9 127.5 L 87.1777777671814 127.5 L 93.4 120.5 L 95.0 121.9 L 95.0 118.5 L 151.0 118.5 L 151.0 91.4 L 163.0 93.4 L 166.0 95.4 L 163.0 97.2 L 163.0 118.5 L 173.7777777671814 118.5 L 180.0 111.5 L 188.0 118.5 L 188.0 122.5 L 163.0 122.5 L 163.0 171.4 L 162.8 174.0 L 162.4 176.5 L 161.6 178.9 L 160.3 181.1 L 158.7 183.2 L 156.7 184.8 L 154.4 186.0 L 152.0 186.8 L 149.5 187.3 L 147.0 187.4 L 147.0 181.4 L 127.0 178.4 Z M 13.6 170.6 L 21.4 170.0 L 29.4 169.4 L 37.7 168.8 L 46.1 168.2 L 50.9 167.8181818008423 L 50.9 151.6 L 18.6 151.6 L 18.6 147.6 L 50.9 147.6 L 50.9 132.7 L 62.9 134.7 L 65.9 136.7 L 62.9 138.5 L 62.9 147.6 L 78.81818180084228 147.6 L 87.0 138.6 L 97.0 147.6 L 97.0 151.6 L 62.9 151.6 L 62.9 166.87078647613527 L 63.8 166.8 L 73.0 166.1 L 82.5 165.5 L 92.2 165.0 L 102.2 164.6 L 102.4 166.4 L 92.7 168.7 L 83.2 170.8 L 73.9 172.7 L 64.8 174.3 L 55.9 175.9 L 47.3 177.4 L 38.8 178.8 L 30.6 180.1 L 22.7 181.3 L 19.07493476867676 181.85770235061645 L 17.3 185.3 L 14.9 182.5 L 11.7 170.8 Z M 145.0 86.7 L 130.2 82.4 L 116.5 77.5 L 103.9 71.9 L 100.51145429611206 70.04079790115357 L 89.5 75.3 L 75.5 81.1 L 60.7 86.3 L 45.3 90.9 L 29.1 94.7 L 12.1 97.8 L 11.8 96.1 L 28.1 91.1 L 43.7 85.7 L 58.5 80.1 L 72.6 74.1 L 85.9 67.6 L 91.136065864563 64.70969161987304 L 82.4 58.8 L 73.5 51.3 L 65.9 43.1 L 61.30141439437866 36.46597490310669 L 58.4 39.2 L 52.7 44.1 L 46.4 48.8 L 39.7 53.5 L 32.5 58.1 L 24.8 62.5 L 16.4 66.7 L 15.5 65.2 L 22.7 59.4 L 29.4 53.8 L 35.7 48.3 L 41.6 43.0 L 47.0 37.8 L 51.8 32.6 L 56.2 27.5 L 60.1 22.5 L 63.5 17.5 L 65.82575206756592 13.512996387481689 L 65.8 13.5 L 66.8 11.8 L 76.5 18.9 L 78.0 22.2 L 74.0884614944458 22.2 L 72.7 24.1 L 68.4 29.2 L 66.70588235855102 31.0 L 138.20689659118653 31.0 L 140.8 28.6 L 141.2783350944519 29.101387405395506 L 145.0 26.0 L 156.0 35.0 L 151.0 38.0 L 145.56045198440552 40.26647834777832 L 138.6 46.1 L 127.4 54.3 L 115.5 61.9 L 110.80492610931397 64.50837440490723 L 120.0 67.9 L 133.3 71.8 L 147.7 75.2 L 163.2 78.1 L 179.9 80.4 L 189.9 81.8 L 178.0 93.5 L 161.0 90.4 Z M 63.2542857170105 35.0 L 68.9 40.2 L 77.2 46.8 L 86.4 52.8 L 96.6 58.4 L 99.79806070327759 59.82770566940307 L 110.1 53.4 L 121.1 45.6 L 131.4 37.3 L 133.88505744934082 35.0 Z " />
</g>
</svg>
