<svg xmlns="http://www.w3.org/2000/svg" xmlns:xlink="http://www.w3.org/1999/xlink" version="1.1" baseProfile="full" viewBox="0 0 200 200" width="200" height="200">
<g fill="black">
<path d="M 20.0 133.6 L 20.0 129.6 L 158.0 129.6 L 168.0 119.6 L 180.0 129.6 L 180.0 133.6 L 138.0 133.6 L 138.0 180.4 L 126.0 186.4 L 126.0 133.6 L 78.0 133.6 L 78.0 147.6 L 77.1 153.7 L 75.2 159.4 L 72.3 164.6 L 68.4 169.1 L 63.7 173.1 L 58.1 176.6 L 51.8 179.5 L 44.7 181.9 L 36.9 183.7 L 28.2 185.0 L 27.7 183.2 L 35.8 180.1 L 42.8 176.9 L 48.9 173.6 L 54.1 170.2 L 58.2 166.6 L 61.4 163.0 L 63.7 159.3 L 65.2 155.6 L 65.9 151.7 L 66.0 147.6 L 66.0 133.6 Z M 133.6 107.1 L 154.8 107.1 L 155.7 106.9 L 156.3 106.7 L 156.6 106.5 L 156.8 106.4 L 157.0 106.2 L 157.3 105.3 L 157.5 104.4 L 157.6 103.1 L 157.6 51.2 L 40.4 51.2 L 40.4 111.8 L 28.4 117.8 L 28.4 41.2 L 40.4 47.2 L 93.0 47.2 L 93.0 11.6 L 105.0 13.6 L 108.0 15.6 L 105.0 17.4 L 105.0 47.2 L 157.6 47.2 L 163.6 42.2 L 174.6 51.2 L 169.6 55.2 L 169.6 103.1 L 169.4 105.7 L 169.0 108.2 L 168.2 110.6 L 166.9 112.8 L 165.3 114.9 L 163.3 116.5 L 161.0 117.7 L 158.6 118.5 L 156.1 119.0 L 153.6 119.1 L 153.6 113.1 L 133.6 110.1 Z M 73.5 65.6 L 124.4 65.6 L 130.4 60.6 L 141.4 69.6 L 136.4 73.6 L 136.4 100.4 L 124.4 106.4 L 124.4 96.4 L 73.5 96.4 L 73.5 103.4 L 61.5 109.4 L 61.5 59.6 Z M 73.5 69.6 L 73.5 92.4 L 124.4 92.4 L 124.4 69.6 Z M 162.90734729766845 23.41732406616211 L 163.5 24.1 L 163.4 24.1 L 163.32961082458496 24.141793537139893 L 163.5 24.1 L 163.6 27.6 L 159.97767753601073 26.124238967895508 L 156.8 27.9 L 153.3 29.8 L 149.6 31.7 L 141.8 35.6 L 137.7 37.5 L 133.4 39.4 L 128.8 41.2 L 124.1 43.1 L 123.2 41.5 L 127.1 38.3 L 130.8 35.2 L 134.5 32.2 L 138.0 29.4 L 141.4 26.7 L 144.7 24.1 L 147.9 21.6 L 150.9 19.1 L 153.7 16.7 L 155.64036693573 15.047094821929932 L 155.6 15.0 L 155.6406644821167 15.04684133529663 L 156.4 14.4 Z M 56.4 36.5 L 54.2 34.2 L 51.9 31.9 L 49.5 29.7 L 46.9 27.4 L 44.1 25.2 L 41.2 23.0 L 38.2 20.7 L 34.9 18.7 L 35.6 17.0 L 39.4 18.1 L 43.2 19.0 L 46.9 20.2 L 50.4 21.6 L 53.8 23.1 L 57.1 24.8 L 60.2 26.6 L 63.2 28.6 L 66.1 30.7 L 68.9 32.9 L 70.5 37.2 L 68.7 41.4 L 64.4 43.0 L 60.2 41.2 L 58.4 38.8 Z " />
</g>
</svg>
