<svg xmlns="http://www.w3.org/2000/svg" xmlns:xlink="http://www.w3.org/1999/xlink" version="1.1" baseProfile="full" viewBox="0 0 200 200" width="200" height="200">
<g fill="black">
<path d="M 68.0 17.0 L 71.0 19.0 L 68.0 20.8 L 68.0 84.0 L 67.86956520080567 86.0 L 144.0 86.0 L 144.0 15.0 L 156.0 17.0 L 159.0 19.0 L 156.0 20.8 L 156.0 86.0 L 166.0 86.0 L 176.0 76.0 L 188.0 86.0 L 188.0 90.0 L 156.0 90.0 L 156.0 182.0 L 144.0 188.0 L 144.0 90.0 L 67.60869569778443 90.0 L 67.1 97.8 L 65.2 111.0 L 62.3 123.5 L 58.3 135.3 L 53.3 146.3 L 47.2 156.5 L 40.0 165.9 L 31.9 174.4 L 22.7 182.1 L 12.5 188.7 L 11.4 187.2 L 20.2 179.2 L 28.0 170.7 L 34.9 161.9 L 40.7 152.5 L 45.6 142.6 L 49.6 132.1 L 52.6 121.0 L 54.7 109.3 L 55.8 97.0 L 55.90769233703613 90.0 L 16.0 90.0 L 16.0 86.0 L 55.9692307472229 86.0 L 56.0 84.0 L 56.0 15.0 Z M 70.0 170.0 L 90.0 170.0 L 91.2 169.9 L 92.1 169.7 L 93.0 169.4 L 93.4 169.0 L 93.7 168.1 L 93.9 167.2 L 94.0 166.0 L 94.0 93.0 L 106.0 95.0 L 109.0 97.0 L 106.0 98.8 L 106.0 166.0 L 105.8 168.5 L 105.4 171.0 L 104.6 173.4 L 103.3 175.7 L 101.7 177.7 L 99.7 179.3 L 97.4 180.6 L 95.0 181.4 L 92.5 181.8 L 90.0 182.0 L 90.0 176.0 L 70.0 173.0 Z M 88.6 115.3 L 91.0 117.9 L 87.3606107711792 119.09107284545898 L 86.9 120.5 L 85.0 125.6 L 82.9 130.7 L 80.4 135.8 L 77.7 140.8 L 74.8 145.7 L 71.5 150.6 L 67.9 155.4 L 64.0 160.0 L 59.7 164.5 L 58.2 163.4 L 60.9 157.9 L 63.4 152.5 L 65.8 147.3 L 68.0 142.2 L 70.1 137.1 L 71.9 132.1 L 73.5 127.2 L 74.8 122.3 L 76.0 117.4 L 76.73038816452026 113.50459651947021 L 76.7 113.5 L 77.3 110.8 Z M 123.5 146.2 L 122.7 142.3 L 121.7 138.4 L 120.6 134.6 L 119.2 130.8 L 117.6 127.0 L 115.9 123.1 L 114.0 119.2 L 111.9 115.3 L 113.3 114.1 L 116.7 117.2 L 119.9 120.4 L 122.8 123.8 L 125.5 127.4 L 127.9 131.2 L 130.1 135.1 L 132.0 139.1 L 133.7 143.3 L 135.2 147.6 L 136.4 152.0 L 135.3 156.4 L 131.4 158.9 L 127.0 157.8 L 124.5 154.0 L 124.1 150.0 Z M 33.7 63.0 L 32.9 59.0 L 31.7 54.9 L 30.3 50.8 L 28.5 46.5 L 26.5 42.2 L 24.2 37.7 L 21.7 33.1 L 18.9 28.3 L 20.3 27.1 L 24.5 30.8 L 28.4 34.7 L 31.9 38.7 L 35.0 42.8 L 37.8 47.0 L 40.2 51.3 L 42.3 55.7 L 44.0 60.1 L 45.5 64.7 L 46.5 69.2 L 45.3 73.6 L 41.3 75.9 L 36.9 74.7 L 34.6 70.7 L 34.3 66.9 Z " />
</g>
</svg>
