<svg xmlns="http://www.w3.org/2000/svg" xmlns:xlink="http://www.w3.org/1999/xlink" version="1.1" baseProfile="full" viewBox="0 0 200 200" width="200" height="200">
<g fill="black">
<path d="M 23.6 182.1 L 37.6 182.1 L 38.8 182.0 L 39.7 181.8 L 40.3 181.7 L 40.6 181.5 L 41.0 181.1 L 41.3 180.2 L 41.5 179.3 L 41.6 178.1 L 41.6 142.7 L 36.1 144.2 L 29.6 145.8 L 23.2 147.4 L 20.860596466064454 147.9482976913452 L 19.3 151.5 L 16.8 148.9 L 12.7 137.5 L 14.7 137.1 L 27.5 135.3 L 40.7 133.3 L 41.6 133.15441179275513 L 41.6 108.5 L 48.55342464447021 109.65890407562256 L 49.7 108.3 L 52.2 105.1 L 54.6 102.0 L 57.0 99.0 L 59.2 96.2 L 61.3 93.4 L 63.3 90.7 L 64.4692307472229 89.1 L 14.8 89.1 L 14.8 85.1 L 67.2 85.1 L 67.5 84.85 L 68.6 83.2 L 69.03380279541015 83.57183094024658 L 73.2 80.1 L 78.61919431686401 84.53388624191284 L 82.3 78.9 L 87.1 71.6 L 91.6 64.4 L 95.8 57.2 L 99.7 50.0 L 103.3 42.9 L 106.6 35.7 L 109.5 28.5 L 112.0 21.3 L 113.97902355194091 15.018751335144042 L 113.9 15.0 L 114.8 12.5 L 125.7 17.8 L 127.9 20.6 L 124.24671812057495 21.433204650878906 L 122.7 25.3 L 120.08108110427857 31.0 L 148.8 31.0 L 154.8 26.0 L 165.8 35.0 L 160.8 38.0 L 158.448837184906 38.97965116500855 L 156.6 42.4 L 154.5 45.9 L 152.2 49.5 L 149.7 53.0 L 147.0 56.5 L 144.2 59.8 L 141.1 63.2 L 137.8 66.3 L 137.05625 67.0 L 168.0 67.0 L 174.0 62.0 L 185.0 71.0 L 180.0 75.0 L 180.0 120.0 L 168.0 126.0 L 168.0 114.0 L 137.36319017410278 114.0 L 135.2 122.6 L 129.9 137.2 L 123.3 150.3 L 115.3 161.6 L 106.2 171.2 L 95.8 179.0 L 84.2 184.9 L 71.6 188.8 L 71.0 187.1 L 82.5 181.5 L 92.7 174.6 L 101.6 166.5 L 109.3 157.0 L 115.8 146.1 L 121.3 133.8 L 125.5 119.9 L 126.71806449890137 114.0 L 106.1 114.0 L 106.1 126.0 L 94.1 132.0 L 94.1 71.61785717010498 L 91.4 74.8 L 85.3 81.3 L 80.35 85.95 L 84.2 89.1 L 79.2 92.1 L 74.02204723358155 94.2574803352356 L 72.9 95.2 L 70.3 97.4 L 67.6 99.6 L 64.7 101.8 L 61.7 104.0 L 58.5 106.2 L 55.2 108.4 L 52.11304349899292 110.25217390060425 L 53.6 110.5 L 56.6 112.5 L 53.6 114.3 L 53.6 131.21323528289795 L 54.3 131.1 L 61.2 130.0 L 68.2 129.0 L 75.3 128.0 L 82.5 127.1 L 83.0 128.9 L 76.2 131.7 L 69.5 134.2 L 62.7 136.4 L 56.0 138.5 L 53.6 139.21641788482665 L 53.6 178.1 L 53.4 180.6 L 53.0 183.1 L 52.2 185.5 L 50.9 187.8 L 49.3 189.8 L 47.3 191.5 L 45.0 192.7 L 42.6 193.5 L 40.1 193.9 L 37.6 194.1 L 37.6 188.1 L 23.6 185.1 Z M 182.7 149.0 L 184.7 149.0 L 182.7 174.0 L 186.3 176.4 L 188.7 180.0 L 186.3 183.6 L 182.7 186.0 L 156.2 186.0 L 153.6 185.8 L 151.1 185.4 L 148.7 184.6 L 146.5 183.3 L 144.4 181.7 L 142.8 179.7 L 141.6 177.4 L 140.8 175.0 L 140.3 172.5 L 140.2 170.0 L 140.2 117.0 L 152.2 119.0 L 155.2 121.0 L 152.2 122.8 L 152.2 170.0 L 152.3 171.2 L 152.4 172.1 L 152.6 172.7 L 152.8 173.0 L 152.9 173.2 L 153.1 173.4 L 153.5 173.5 L 154.0 173.7 L 155.0 173.9 L 156.2 174.0 L 176.7 174.0 Z M 106.1 71.0 L 106.1 110.0 L 127.54387092590332 110.0 L 128.7 104.4 L 130.7 87.4 L 131.41304349899292 71.0 Z M 143.3530927658081 71.0 L 142.0 88.5 L 139.3 106.3 L 138.36932516098022 110.0 L 168.0 110.0 L 168.0 71.0 Z M 26.5 70.2 L 40.5 70.2 L 41.7 70.1 L 42.6 69.9 L 43.5 69.6 L 43.9 69.2 L 44.2 68.3 L 44.4 67.4 L 44.5 66.2 L 44.5 12.4 L 56.5 14.4 L 59.5 16.4 L 56.5 18.2 L 56.5 66.2 L 56.3 68.7 L 55.9 71.2 L 55.1 73.6 L 53.8 75.9 L 52.2 77.9 L 50.2 79.5 L 47.9 80.8 L 45.5 81.6 L 43.0 82.0 L 40.5 82.2 L 40.5 76.2 L 26.5 73.2 Z M 118.13424654006958 35.0 L 115.6 40.0 L 111.5 47.2 L 107.0 54.3 L 102.2 61.3 L 100.14736843109131 64.02368421554566 L 106.1 67.0 L 133.7699999809265 67.0 L 135.2 64.4 L 137.2 60.3 L 139.1 56.5 L 141.0 52.6 L 142.7 48.9 L 144.3 45.2 L 145.7 41.6 L 147.0 37.9 L 147.99428567886352 35.0 Z M 35.8 35.2 L 38.1 38.0 L 34.10705680847168 38.98072290420532 L 32.4 42.3 L 30.5 45.6 L 28.4 48.9 L 26.1 52.0 L 23.6 55.0 L 20.9 57.8 L 18.1 60.5 L 11.9 65.5 L 10.6 64.2 L 12.8 61.0 L 14.6 57.7 L 16.3 54.4 L 17.8 51.2 L 19.3 47.9 L 20.6 44.7 L 21.8 41.5 L 22.8 38.2 L 23.7 34.9 L 24.183922863006593 32.61864948272705 L 24.1 32.6 L 24.36067419052124 31.785393238067627 L 24.4 31.6 L 24.418164443969726 31.60573616027832 L 24.9 30.1 Z M 77.4 54.6 L 76.5 52.0 L 75.5 49.3 L 74.3 46.6 L 72.9 43.9 L 71.3 41.1 L 69.6 38.3 L 67.7 35.3 L 65.3 32.6 L 66.5 31.3 L 69.5 33.3 L 72.6 35.3 L 75.5 37.4 L 78.1 39.7 L 80.6 42.2 L 82.9 44.8 L 84.9 47.5 L 86.8 50.3 L 88.5 53.2 L 90.0 56.3 L 89.5 60.8 L 86.1 63.8 L 81.5 63.3 L 78.5 59.9 L 78.1 57.3 Z " />
</g>
</svg>
