<svg xmlns="http://www.w3.org/2000/svg" xmlns:xlink="http://www.w3.org/1999/xlink" version="1.1" baseProfile="full" viewBox="0 0 200 200" width="200" height="200">
<g fill="black">
<path d="M 70.0 176.8 L 90.0 176.8 L 91.2 176.7 L 92.1 176.5 L 93.0 176.2 L 93.4 175.8 L 93.7 174.9 L 93.9 174.0 L 94.0 172.8 L 94.0 125.0 L 55.0 125.0 L 55.0 128.0 L 43.0 134.0 L 43.0 41.0 L 55.0 47.0 L 81.93584909439087 47.0 L 83.8 43.2 L 85.9 38.2 L 88.0 33.7 L 89.8 29.7 L 91.5 26.1 L 92.9 22.9 L 94.1 20.2 L 95.1 17.9 L 95.9 16.0 L 96.0819149017334 15.454255294799804 L 95.8 15.3 L 96.9 13.7 L 106.4 21.1 L 107.8 24.4 L 103.23977699279786 24.242750930786134 L 102.3 25.3 L 100.4 27.6 L 98.2 30.2 L 95.7 33.3 L 92.9 36.7 L 89.8 40.6 L 86.3 44.7 L 84.53829784393311 47.0 L 145.0 47.0 L 151.0 42.0 L 162.0 51.0 L 157.0 55.0 L 157.0 127.0 L 145.0 133.0 L 145.0 125.0 L 101.2 125.0 L 106.0 125.8 L 109.0 127.8 L 106.0 129.6 L 106.0 172.8 L 105.8 175.3 L 105.4 177.8 L 104.6 180.2 L 103.3 182.5 L 101.7 184.5 L 99.7 186.1 L 97.4 187.4 L 95.0 188.2 L 92.5 188.6 L 90.0 188.8 L 90.0 182.8 L 70.0 179.8 Z M 59.1 146.9 L 60.3 150.3 L 56.27418146133423 149.81412534713746 L 55.9 150.2 L 52.4 153.4 L 48.6 156.4 L 44.4 159.3 L 39.9 162.1 L 35.1 164.7 L 30.0 167.1 L 24.5 169.4 L 18.6 171.4 L 12.3 173.1 L 11.6 171.5 L 17.0 168.0 L 22.0 164.6 L 26.8 161.4 L 31.1 158.2 L 35.1 155.1 L 38.8 151.9 L 42.1 148.8 L 44.9 145.7 L 47.4 142.6 L 49.00905828475952 140.40582962036132 L 49.0 140.4 L 50.0 139.0 Z M 167.6 165.0 L 165.0 162.4 L 161.9 159.8 L 158.4 157.1 L 154.3 154.3 L 149.8 151.5 L 144.8 148.7 L 139.4 145.7 L 133.6 142.5 L 134.2 140.8 L 140.8 142.2 L 146.9 143.8 L 152.5 145.6 L 157.8 147.7 L 162.6 149.8 L 167.0 152.1 L 171.1 154.5 L 174.8 157.0 L 178.0 159.8 L 180.9 162.7 L 182.0 167.1 L 179.8 171.1 L 175.3 172.2 L 171.4 169.9 L 169.7 167.5 Z M 55.0 101.0 L 55.0 121.0 L 145.0 121.0 L 145.0 101.0 Z M 55.0 76.0 L 55.0 97.0 L 145.0 97.0 L 145.0 76.0 Z M 55.0 51.0 L 55.0 72.0 L 145.0 72.0 L 145.0 51.0 Z " />
</g>
</svg>
