<svg xmlns="http://www.w3.org/2000/svg" xmlns:xlink="http://www.w3.org/1999/xlink" version="1.1" baseProfile="full" viewBox="0 0 200 200" width="200" height="200">
<g fill="black">
<path d="M 92.0 101.7 L 94.3 104.5 L 90.62902069091797 105.40164403915405 L 87.0 115.2 L 81.3 127.8 L 74.9 139.3 L 67.8 149.8 L 60.0 159.2 L 51.5 167.5 L 42.3 174.7 L 32.5 180.6 L 22.0 185.4 L 11.0 188.8 L 10.4 187.1 L 20.4 181.9 L 29.7 176.1 L 38.4 169.4 L 46.3 162.0 L 53.6 153.7 L 60.2 144.5 L 66.2 134.3 L 71.6 123.2 L 76.4 111.2 L 80.5 98.1 L 80.57355289459228 98.12302522659301 L 81.0 96.6 Z M 170.8 181.3 L 169.0 182.9 L 167.0 184.2 L 164.9 185.4 L 162.7 186.3 L 160.4 187.0 L 158.1 187.5 L 155.7 187.9 L 153.2 188.0 L 153.2 182.0 L 133.2 179.0 L 133.2 176.0 L 153.2 176.0 L 154.7 175.9 L 156.1 175.7 L 158.5 175.1 L 159.6 174.6 L 160.7 174.0 L 161.7 173.3 L 162.7 172.5 L 163.7 171.5 L 163.9307692527771 171.24615383148193 L 164.0 170.9 L 164.5 168.1 L 165.2 163.1 L 166.0 155.4 L 166.9 144.6 L 167.9 130.1 L 168.8 111.5 L 169.7 88.2 L 170.44326238632203 62.0 L 122.10609760284424 62.0 L 121.7 62.9 L 117.8 70.5 L 113.5 77.8 L 109.0 84.6 L 104.2 90.8 L 99.0 96.5 L 97.5 95.4 L 101.0 88.7 L 104.4 81.8 L 107.7 74.7 L 110.9 67.3 L 113.9 59.5 L 116.7 51.5 L 119.3 43.0 L 121.7 34.2 L 124.0 25.1 L 125.8102014541626 16.501543045043945 L 125.8 16.5 L 126.4 13.8 L 137.7 18.3 L 140.2 20.9 L 136.65952281951905 22.03801050186157 L 135.0 28.0 L 132.0 37.3 L 128.8 46.2 L 125.4 54.7 L 123.91097564697266 58.0 L 170.6 58.0 L 176.6 53.0 L 187.6 62.0 L 182.6 65.0 L 182.44320001602173 65.06533336639404 L 181.7 88.6 L 180.8 112.0 L 179.9 130.8 L 178.9 145.5 L 178.0 156.5 L 177.1 164.5 L 176.4 170.0 L 175.8 173.4 L 175.3 175.4 L 174.1 177.7 L 172.5 179.6 Z M 129.1 117.9 L 128.5 114.1 L 127.7 110.4 L 126.7 106.9 L 125.3 103.5 L 123.8 100.3 L 121.9 97.2 L 119.8 94.1 L 117.3 91.3 L 118.3 89.8 L 121.9 91.8 L 125.3 94.0 L 128.5 96.7 L 131.3 99.8 L 133.8 103.3 L 136.0 107.1 L 137.9 111.3 L 139.4 115.8 L 140.6 120.5 L 141.4 125.6 L 139.9 129.9 L 135.8 131.9 L 131.5 130.4 L 129.5 126.4 L 129.4 122.0 Z M 32.1 118.0 L 46.1 118.0 L 47.3 117.9 L 48.2 117.7 L 49.1 117.4 L 49.5 117.0 L 49.8 116.1 L 50.0 115.2 L 50.1 114.0 L 50.1 14.0 L 62.1 16.0 L 65.1 18.0 L 62.1 19.8 L 62.1 114.0 L 61.9 116.5 L 61.5 119.0 L 60.7 121.4 L 59.4 123.7 L 57.8 125.7 L 55.8 127.3 L 53.5 128.6 L 51.1 129.4 L 48.6 129.8 L 46.1 130.0 L 46.1 124.0 L 32.1 121.0 Z M 38.7 58.9 L 41.4 61.3 L 37.82960529327393 62.754605293273926 L 37.3 65.1 L 35.5 71.2 L 33.5 77.2 L 31.2 83.1 L 28.6 89.0 L 25.7 94.8 L 22.5 100.4 L 18.9 106.0 L 15.0 111.3 L 10.6 116.4 L 9.1 115.5 L 11.7 109.4 L 14.2 103.4 L 16.6 97.5 L 18.8 91.7 L 20.7 85.9 L 22.4 80.1 L 23.9 74.3 L 25.1 68.6 L 26.1 62.8 L 26.761433410644532 58.00460748672485 L 26.7 58.0 L 27.2 55.0 Z M 86.4 80.1 L 85.0 77.1 L 83.4 73.9 L 81.5 70.7 L 79.4 67.4 L 76.9 64.0 L 74.2 60.5 L 71.2 56.9 L 67.8 53.3 L 68.9 51.9 L 73.2 54.4 L 77.4 57.0 L 81.1 59.7 L 84.6 62.6 L 87.8 65.6 L 90.7 68.7 L 93.3 71.9 L 95.7 75.2 L 97.7 78.6 L 99.5 82.1 L 99.2 86.7 L 95.8 89.8 L 91.3 89.5 L 88.2 86.1 L 87.4 83.2 Z " />
</g>
</svg>
