<svg xmlns="http://www.w3.org/2000/svg" xmlns:xlink="http://www.w3.org/1999/xlink" version="1.1" baseProfile="full" viewBox="0 0 200 200" width="200" height="200">
<g fill="black">
<path d="M 32.2 177.0 L 46.2 177.0 L 47.4 176.9 L 48.3 176.7 L 48.9 176.5 L 49.3 176.4 L 49.5 176.2 L 49.6 176.0 L 49.8 175.7 L 50.0 175.1 L 50.1 174.2 L 50.2 173.0 L 50.2 133.0 L 40.8 133.0 L 28.8 139.0 L 28.8 90.15 L 23.1 95.7 L 14.7 102.6 L 13.5 101.3 L 20.3 93.1 L 26.5 84.9 L 28.8 81.53214282989502 L 28.8 74.0 L 32.56666669845581 75.88333330154418 L 36.9 68.3 L 41.1 59.8 L 44.6 51.1 L 47.177272701263426 43.0 L 16.4 43.0 L 16.4 39.0 L 48.1615385055542 39.0 L 49.5 33.2 L 50.9 24.0 L 51.61580057144165 15.499868297576905 L 51.6 15.5 L 51.8 12.3 L 63.6 15.4 L 66.5 17.6 L 63.06770830154419 19.316145801544188 L 62.2 25.7 L 59.9 35.6 L 58.883505153656 39.0 L 74.8 39.0 L 84.8 29.0 L 96.8 39.0 L 96.8 43.0 L 57.68762884140015 43.0 L 57.0 45.3 L 53.2 54.6 L 48.7 63.6 L 43.4 72.2 L 38.568141555786134 78.88407077789307 L 40.8 80.0 L 71.6 80.0 L 77.6 75.0 L 82.52043008804321 79.02580642700195 L 81.6 77.3 L 79.6 74.1 L 77.0 70.8 L 73.9 67.4 L 70.3 63.9 L 66.2 60.2 L 61.7 56.3 L 56.6 52.2 L 57.5 50.7 L 63.6 53.2 L 69.1 55.9 L 74.2 58.8 L 78.7 61.8 L 79.31681413650513 62.266371726989746 L 80.3 60.3 L 81.2 58.3 L 82.2 56.4 L 83.0 54.6 L 83.8 52.9 L 84.5 51.3 L 85.1 49.8 L 85.6 48.4 L 85.69583854675292 48.088524627685544 L 85.4 47.9 L 85.98160915374756 47.15977010726929 L 86.0 47.1 L 86.01788539886475 47.11360034942627 L 86.5 46.5 L 95.6 54.4 L 96.7 57.8 L 91.53303833007813 57.176401138305664 L 91.5 57.2 L 90.0 58.2 L 88.4 59.2 L 86.7 60.4 L 84.8 61.5 L 82.9 62.7 L 81.18582677841187 63.679527568817136 L 82.8 64.9 L 86.5 68.1 L 89.7 71.4 L 92.4 74.9 L 94.6 78.6 L 96.4 82.4 L 95.8 87.0 L 92.2 89.8 L 87.7 89.2 L 85.46769762039185 86.50584192276001 L 83.6 88.0 L 83.6 133.0 L 71.6 139.0 L 71.6 133.0 L 62.2 133.0 L 62.2 173.0 L 62.1 175.5 L 61.6 178.0 L 60.8 180.4 L 59.6 182.7 L 57.9 184.7 L 55.9 186.3 L 53.7 187.6 L 51.3 188.4 L 48.8 188.8 L 46.2 189.0 L 46.2 183.0 L 32.2 180.0 Z M 44.6 148.1 L 46.6 151.1 L 42.752234649658206 151.70754194259644 L 42.5 152.2 L 40.2 156.2 L 37.8 160.2 L 35.1 164.1 L 32.3 167.9 L 29.2 171.7 L 26.0 175.3 L 22.5 178.9 L 18.8 182.3 L 14.8 185.5 L 13.5 184.4 L 16.0 180.0 L 18.5 175.7 L 20.9 171.6 L 25.3 163.4 L 27.2 159.4 L 29.0 155.5 L 30.7 151.5 L 32.1 147.6 L 33.4 143.6 L 33.47889966964722 143.63170080184938 L 34.0 142.3 Z M 130.6 148.2 L 132.5 151.3 L 128.6852038383484 151.76848373413085 L 128.4 152.3 L 126.0 156.3 L 123.5 160.2 L 120.8 164.1 L 118.0 167.9 L 114.9 171.7 L 111.7 175.3 L 108.3 178.9 L 104.5 182.3 L 100.6 185.5 L 99.3 184.4 L 101.8 180.0 L 104.2 175.7 L 106.6 171.6 L 111.0 163.4 L 113.0 159.4 L 116.6 151.4 L 118.1 147.5 L 119.17618865966797 144.42517538070678 L 119.1 144.4 L 119.46956520080566 143.58695650100708 L 119.5 143.5 L 119.50762367248535 143.50322799682618 L 120.1 142.2 Z M 168.0 172.2 L 166.6 168.4 L 163.4 161.0 L 161.7 157.5 L 160.0 154.1 L 158.2 150.8 L 156.5 147.5 L 154.5 144.3 L 155.8 143.0 L 158.9 145.4 L 161.9 147.8 L 164.8 150.6 L 167.6 153.6 L 170.3 156.8 L 172.8 160.3 L 175.3 163.9 L 177.6 167.7 L 179.8 171.8 L 181.9 176.0 L 181.8 180.5 L 178.6 183.7 L 174.0 183.6 L 170.8 180.4 L 169.4 176.2 Z M 80.1 172.0 L 78.7 168.4 L 77.3 165.0 L 75.7 161.6 L 72.3 155.0 L 70.4 151.7 L 68.4 148.4 L 66.2 145.3 L 67.5 144.0 L 70.7 146.3 L 73.9 148.7 L 76.9 151.3 L 79.7 154.2 L 82.4 157.2 L 84.9 160.5 L 87.3 163.9 L 89.6 167.4 L 91.7 171.1 L 93.6 175.0 L 93.5 179.6 L 90.2 182.8 L 85.6 182.6 L 82.4 179.3 L 81.3 175.6 Z M 128.0 109.0 L 128.0 131.0 L 156.0 131.0 L 156.0 109.0 Z M 40.8 108.0 L 40.8 129.0 L 71.6 129.0 L 71.6 108.0 Z M 168.9 95.7 L 168.0 94.4307692527771 L 168.0 135.0 L 156.0 141.0 L 156.0 135.0 L 148.0 135.0 L 148.0 173.0 L 147.8 175.5 L 147.4 178.0 L 146.6 180.4 L 145.3 182.7 L 143.7 184.7 L 141.7 186.3 L 139.4 187.6 L 137.0 188.4 L 134.5 188.8 L 132.0 189.0 L 132.0 183.0 L 116.0 180.0 L 116.0 177.0 L 132.0 177.0 L 133.2 176.9 L 134.1 176.7 L 135.0 176.4 L 135.4 176.0 L 135.7 175.1 L 135.9 174.2 L 136.0 173.0 L 136.0 135.0 L 128.0 135.0 L 116.0 141.0 L 116.0 92.56349210739135 L 113.1 96.2 L 106.1 103.3 L 98.6 109.6 L 97.3 108.3 L 103.3 100.8 L 108.8 93.0 L 113.9 84.7 L 116.0 80.77391300201415 L 116.0 77.67333335876465 L 113.4 77.5 L 110.3 74.1 L 109.8 71.5 L 108.8 66.5 L 108.3 64.2 L 107.1 59.6 L 106.5 57.4 L 105.9 55.3 L 105.4 53.1 L 104.4 51.3 L 105.8 50.2 L 107.3 51.7 L 109.2 53.2 L 110.9 54.8 L 112.6 56.6 L 114.3 58.5 L 115.8 60.6 L 117.4 62.8 L 118.8 65.1 L 120.3 67.6 L 121.3875 69.775 L 122.7 66.9 L 126.4 57.2 L 129.6 47.0 L 130.35 44.0 L 100.5 44.0 L 100.5 40.0 L 131.35 40.0 L 132.3 36.2 L 134.6 24.9 L 136.24825286865234 14.00321683883667 L 136.2 14.0 L 136.7 11.0 L 148.2 14.8 L 150.9 17.3 L 147.44357976913452 18.7081711769104 L 145.8 27.2 L 142.7 38.9 L 142.35625 40.0 L 161.5 40.0 L 171.5 30.0 L 183.5 40.0 L 183.5 44.0 L 149.81014490127563 44.0 L 152.6 49.5 L 155.9 56.0 L 159.3 62.2 L 162.7 68.1 L 165.89227180480958 72.97708196640015 L 166.0 72.5 L 166.8 69.5 L 167.7 66.6 L 168.5 63.8 L 169.2 61.0 L 170.0 58.3 L 171.4 53.1 L 171.75753421783446 51.55068492889404 L 171.6 51.5 L 171.94375 50.74375 L 172.0 50.5 L 172.0457417488098 50.519368171691895 L 172.6 49.3 L 183.1 55.2 L 185.1 58.2 L 180.79103775024413 58.794339656829834 L 178.6 62.3 L 176.9 64.7 L 175.3 67.1 L 173.5 69.5 L 171.6 71.9 L 169.7 74.4 L 168.13878784179687 76.18424243927002 L 170.0 78.8 L 173.9 83.6 L 177.9 88.1 L 182.1 92.3 L 186.5 96.1 L 188.2 97.8 L 177.4 105.8 L 173.0 100.9 Z M 128.0 83.0 L 128.0 105.0 L 156.0 105.0 L 156.0 83.0 Z M 40.8 84.0 L 40.8 104.0 L 71.6 104.0 L 71.6 84.0 Z M 141.10625 44.0 L 139.2 50.1 L 135.0 60.6 L 130.4 70.5 L 126.12542371749878 78.06271190643311 L 128.0 79.0 L 156.0 79.0 L 157.82722120285035 77.4773157119751 L 155.3 71.9 L 152.7 65.2 L 150.4 58.2 L 148.6 50.8 L 147.52631578445434 44.0 Z M 24.8 63.7 L 24.5 62.0 L 24.0 60.3 L 23.4 58.5 L 22.7 56.7 L 21.9 54.8 L 20.9 52.9 L 19.8 50.9 L 18.2 49.3 L 19.3 47.9 L 21.2 49.2 L 23.4 50.3 L 25.5 51.5 L 27.4 52.8 L 29.2 54.3 L 30.9 55.8 L 32.5 57.5 L 34.0 59.3 L 35.3 61.2 L 36.5 63.3 L 36.1 67.8 L 32.6 70.8 L 28.1 70.4 L 25.1 66.9 L 25.0 65.3 Z " />
</g>
</svg>
