<svg xmlns="http://www.w3.org/2000/svg" xmlns:xlink="http://www.w3.org/1999/xlink" version="1.1" baseProfile="full" viewBox="0 0 200 200" width="200" height="200">
<g fill="black">
<path d="M 70.0 176.3 L 90.0 176.3 L 91.2 176.2 L 92.1 176.1 L 92.7 175.9 L 93.0 175.7 L 93.2 175.5 L 93.4 175.4 L 93.5 175.0 L 93.7 174.4 L 93.9 173.5 L 94.0 172.3 L 94.0 101.8 L 106.0 103.8 L 109.0 105.8 L 106.0 107.6 L 106.0 172.3 L 105.8 174.9 L 105.4 177.3 L 104.6 179.8 L 103.3 182.0 L 101.7 184.0 L 99.7 185.7 L 97.4 186.9 L 95.0 187.7 L 92.5 188.2 L 90.0 188.3 L 90.0 182.3 L 70.0 179.3 Z M 81.6 122.9 L 83.7 125.8 L 79.9080117225647 126.46526107788085 L 78.8 128.8 L 75.6 134.6 L 72.0 140.3 L 68.1 145.8 L 63.7 151.2 L 59.0 156.4 L 53.9 161.4 L 48.3 166.3 L 42.4 170.9 L 35.9 175.2 L 34.8 173.8 L 39.8 168.1 L 44.6 162.5 L 49.0 157.0 L 53.2 151.5 L 57.0 146.1 L 60.4 140.6 L 63.4 135.1 L 66.1 129.6 L 68.5 124.1 L 70.4 118.6 L 70.44535942077637 118.6174147605896 L 71.0 117.2 Z M 148.4 158.8 L 146.2 154.4 L 143.5 149.9 L 140.5 145.4 L 137.1 140.8 L 133.3 136.1 L 129.1 131.3 L 124.7 126.3 L 119.9 121.1 L 121.1 119.7 L 127.1 123.4 L 132.8 127.3 L 137.9 131.4 L 142.7 135.7 L 147.0 140.0 L 151.0 144.4 L 154.6 149.0 L 157.8 153.6 L 160.6 158.3 L 163.0 163.1 L 162.8 167.7 L 159.6 170.9 L 155.0 170.7 L 151.8 167.5 L 150.3 163.2 Z M 134.2 85.7 L 139.1 90.9 L 144.0 95.9 L 148.9 100.6 L 154.1 105.0 L 159.3 109.2 L 164.8 113.1 L 170.4 116.7 L 176.2 120.1 L 182.1 123.2 L 187.0 125.8 L 175.8 134.7 L 169.6 130.7 L 163.7 126.4 L 158.0 121.8 L 152.7 117.0 L 147.6 111.8 L 142.9 106.3 L 138.4 100.6 L 134.4 94.5 L 130.8 88.1 L 128.019117641449 82.0 L 75.68000001907349 82.0 L 75.4 82.5 L 71.1 90.1 L 66.5 97.4 L 61.4 104.4 L 56.0 111.0 L 50.1 117.3 L 43.8 123.2 L 37.1 128.8 L 30.0 133.9 L 22.4 138.6 L 14.4 142.7 L 13.5 141.2 L 20.3 135.5 L 26.7 129.7 L 32.8 123.8 L 38.5 117.8 L 43.8 111.6 L 48.7 105.2 L 53.3 98.6 L 57.4 91.7 L 61.2 84.7 L 62.406382942199706 82.0 L 16.0 82.0 L 16.0 78.0 L 64.0 78.0 L 64.0 48.0 L 28.0 48.0 L 28.0 44.0 L 64.0 44.0 L 64.0 13.0 L 76.0 15.0 L 79.0 17.0 L 76.0 18.8 L 76.0 44.0 L 124.0 44.0 L 124.0 13.0 L 136.0 15.0 L 139.0 17.0 L 136.0 18.8 L 136.0 44.0 L 150.0 44.0 L 160.0 34.0 L 172.0 44.0 L 172.0 48.0 L 136.0 48.0 L 136.0 78.0 L 162.0 78.0 L 172.0 68.0 L 184.0 78.0 L 184.0 82.0 L 130.7740740776062 82.0 Z M 76.0 48.0 L 76.0 78.0 L 124.0 78.0 L 124.0 48.0 Z " />
</g>
</svg>
