<svg xmlns="http://www.w3.org/2000/svg" xmlns:xlink="http://www.w3.org/1999/xlink" version="1.1" baseProfile="full" viewBox="0 0 200 200" width="200" height="200">
<g fill="black">
<path d="M 118.34980993270874 84.19011402130127 L 118.1 85.8 L 116.83978490829467 89.58064517974853 L 117.7 90.2 L 120.4 91.9 L 123.3 93.5 L 126.5 95.1 L 130.2 96.7 L 134.3 98.2 L 138.9 99.6 L 144.0 101.0 L 149.5 102.3 L 155.6 103.5 L 160.0 104.63882350921631 L 160.0 90.6 L 172.0 92.6 L 175.0 94.6 L 172.0 96.4 L 172.0 177.3 L 160.0 183.3 L 160.0 171.3 L 69.5 171.3 L 69.5 183.3 L 58.5 188.8 L 58.5 90.6 L 69.5 92.6 L 72.2 94.6 L 69.5 96.32340421676636 L 69.5 167.3 L 160.0 167.3 L 160.0 109.41779661178589 L 152.3 116.4 L 146.1 114.3 L 140.3 112.1 L 135.0 109.8 L 130.2 107.3 L 125.9 104.7 L 122.2 101.9 L 119.0 98.9 L 116.5 95.8 L 115.07591161727905 93.26828727722167 L 113.4 96.1 L 109.6 100.4 L 105.1 104.0 L 99.8 107.1 L 93.7 109.6 L 86.9 111.6 L 79.4 113.0 L 71.1 113.8 L 70.8 112.1 L 78.5 109.3 L 85.2 106.5 L 91.0 103.6 L 95.9 100.6 L 99.8 97.4 L 102.8 94.1 L 104.9 90.7 L 106.3 87.3 L 106.9 83.8 L 107.0 80.0 L 107.0 77.6 L 119.0 80.0 L 122.0 82.0 Z M 47.1 64.3 L 157.6 64.3 L 167.6 54.3 L 179.6 64.3 L 179.6 68.3 L 47.1 68.3 L 47.1 114.7 L 46.6 125.0 L 45.5 134.6 L 43.9 143.6 L 41.8 152.0 L 39.2 159.8 L 36.0 166.9 L 32.3 173.2 L 28.0 178.8 L 23.1 183.6 L 17.8 187.5 L 16.7 186.2 L 20.6 181.2 L 24.0 175.9 L 27.0 170.2 L 29.6 164.0 L 31.8 157.3 L 33.6 150.0 L 34.9 142.1 L 35.7 133.6 L 36.1 124.4 L 36.1 58.8 Z M 145.0 150.0 L 145.0 154.0 L 83.0 154.0 L 83.0 150.0 L 126.81818180084228 150.0 L 135.0 141.0 Z M 146.0 128.0 L 146.0 132.0 L 82.0 132.0 L 82.0 128.0 L 124.0 128.0 L 134.0 118.0 Z M 116.5 14.8 L 119.5 16.8 L 116.5 18.6 L 116.5 57.6 L 104.5 63.6 L 104.5 12.8 Z M 176.5 27.9 L 177.8 31.2 L 174.0519521713257 30.94151391983032 L 173.2 32.0 L 169.7 35.9 L 166.1 39.6 L 162.4 43.1 L 158.6 46.4 L 154.7 49.5 L 150.7 52.3 L 146.6 54.9 L 142.4 57.1 L 138.0 59.1 L 137.0 57.6 L 146.6 47.4 L 149.7 44.0 L 155.7 36.8 L 158.5 33.0 L 161.4 29.1 L 164.1 25.1 L 166.7 20.9 L 166.76774196624757 20.94838705062866 L 167.2 20.3 Z M 69.1 50.1 L 67.2 47.3 L 64.9 44.4 L 62.3 41.4 L 59.3 38.4 L 56.1 35.3 L 52.5 32.2 L 48.6 28.9 L 44.3 25.6 L 45.2 24.0 L 50.3 26.0 L 55.1 28.1 L 59.6 30.3 L 63.8 32.7 L 67.6 35.2 L 71.2 37.9 L 74.4 40.7 L 77.4 43.5 L 80.0 46.6 L 82.4 49.7 L 82.9 54.3 L 80.1 57.9 L 75.5 58.4 L 71.9 55.6 L 70.7 52.9 Z " />
</g>
</svg>
