<svg xmlns="http://www.w3.org/2000/svg" xmlns:xlink="http://www.w3.org/1999/xlink" version="1.1" baseProfile="full" viewBox="0 0 200 200" width="200" height="200">
<g fill="black">
<path d="M 67.2 129.3 L 152.7 129.3 L 158.7 124.3 L 169.7 133.3 L 164.7 137.3 L 164.7 181.0 L 152.7 187.0 L 152.7 177.0 L 67.2 177.0 L 67.2 184.0 L 55.2 190.0 L 55.2 123.3 Z M 45.0 23.0 L 161.0 23.0 L 167.0 18.0 L 178.0 27.0 L 173.0 31.0 L 173.0 60.0 L 161.0 66.0 L 161.0 56.0 L 45.0 56.0 L 45.0 87.0 L 44.4 99.7 L 43.3 111.8 L 41.7 123.3 L 39.5 134.2 L 36.8 144.5 L 33.6 154.1 L 29.7 163.1 L 25.4 171.4 L 20.3 178.8 L 14.7 185.5 L 13.2 184.4 L 17.1 176.9 L 20.6 169.0 L 23.7 160.6 L 26.3 151.8 L 28.6 142.4 L 30.4 132.5 L 31.7 122.0 L 32.6 110.9 L 33.0 99.2 L 33.0 17.0 Z M 67.2 155.2 L 67.2 173.0 L 152.7 173.0 L 152.7 155.2 Z M 67.2 133.3 L 67.2 151.2 L 152.7 151.2 L 152.7 133.3 Z M 167.7 90.5 L 169.7 90.5 L 167.7 107.5 L 170.7 109.5 L 172.7 112.5 L 170.7 115.5 L 167.7 117.5 L 105.7 117.5 L 103.3 117.2 L 101.0 116.5 L 98.8 115.4 L 96.8 113.9 L 95.1 112.0 L 93.8 109.9 L 92.9 107.5 L 92.4 105.1 L 92.2 102.5 L 92.2 88.67667398452758 L 46.2 92.4 L 45.8 88.4 L 92.2 84.64429731369019 L 92.2 62.1 L 104.2 64.1 L 107.2 66.1 L 104.2 67.9 L 104.2 83.67299480438233 L 159.81507987976073 79.17140636444091 L 169.0 68.4 L 181.7 77.4 L 182.1 81.4 L 104.2 87.70537157058716 L 104.2 102.5 L 104.1 103.8 L 104.2 104.7 L 104.3 105.4 L 104.4 105.8 L 104.5 106.1 L 104.7 106.4 L 105.1 106.8 L 105.8 107.1 L 106.8 107.4 L 108.2 107.5 L 162.7 107.5 Z M 45.0 27.0 L 45.0 52.0 L 161.0 52.0 L 161.0 27.0 Z " />
</g>
</svg>
