<svg xmlns="http://www.w3.org/2000/svg" xmlns:xlink="http://www.w3.org/1999/xlink" version="1.1" baseProfile="full" viewBox="0 0 200 200" width="200" height="200">
<g fill="black">
<path d="M 64.0 182.0 L 52.0 188.0 L 52.0 112.0 L 64.0 118.0 L 156.0 118.0 L 162.0 113.0 L 173.0 122.0 L 168.0 126.0 L 168.0 181.0 L 156.0 187.0 L 156.0 179.0 L 64.0 179.0 Z M 45.0 23.0 L 161.0 23.0 L 167.0 18.0 L 178.0 27.0 L 173.0 31.0 L 173.0 48.0 L 161.0 54.0 L 161.0 46.0 L 45.0 46.0 L 45.0 87.0 L 44.4 99.7 L 43.468660259246825 109.94473686218262 L 49.8 107.3 L 57.2 103.7 L 64.2 99.7 L 70.7 95.4 L 76.8 90.6 L 80.76297969818116 86.84932279586792 L 77.9 87.5 L 73.9 85.2 L 73.8 84.3 L 73.5 83.3 L 73.0 82.2 L 72.3 81.1 L 71.3 79.9 L 70.2 78.6 L 68.9 77.3 L 67.4 75.9 L 65.80200004577637 74.5840000152588 L 62.4 77.5 L 58.7 80.1 L 54.8 82.3 L 50.7 83.9 L 46.5 85.3 L 45.8 83.7 L 49.1 81.1 L 54.8 75.4 L 57.4 72.3 L 59.8 69.1 L 62.0 65.7 L 64.0 62.1 L 65.8 58.3 L 67.5 54.3 L 68.67785234451294 50.9234899520874 L 68.6 50.9 L 69.5 48.6 L 80.2 54.4 L 82.2 57.4 L 78.36414346694946 57.99521913528442 L 77.8 59.1 L 76.8581395149231 60.6 L 100.2 60.6 L 100.46896553039551 60.3758620262146 L 100.9 59.6 L 101.19863481521607 59.767804336547854 L 106.2 55.6 L 117.2 64.6 L 116.7 64.9 L 146.6 64.9 L 146.6 50.6 L 158.6 52.6 L 161.6 54.6 L 158.6 56.4 L 158.6 64.9 L 161.61818180084228 64.9 L 169.8 55.9 L 179.8 64.9 L 179.8 68.9 L 158.6 68.9 L 158.6 88.3 L 162.4181818008423 88.3 L 170.6 79.3 L 180.6 88.3 L 180.6 92.3 L 158.6 92.3 L 158.6 109.2 L 146.6 115.2 L 146.6 92.3 L 117.48074865341187 92.3 L 116.3 94.7 L 102.8 94.8 L 115.6 68.9 L 125.5 76.0 L 127.3 79.1 L 123.67786407470703 79.70368928909302 L 119.44866313934327 88.3 L 146.6 88.3 L 146.6 68.9 L 115.0 68.9 L 115.0 65.91999998092652 L 112.2 67.6 L 109.19456195831299 68.85226583480835 L 106.4 73.1 L 100.9 80.1 L 95.0 86.5 L 88.7 92.2 L 81.9 97.3 L 74.8 101.8 L 67.2 105.5 L 59.3 108.6 L 51.0 110.9 L 43.249679279327395 112.16168012619019 L 41.7 123.3 L 39.5 134.2 L 36.8 144.5 L 33.6 154.1 L 29.7 163.1 L 25.4 171.4 L 20.3 178.8 L 14.7 185.5 L 13.2 184.4 L 17.1 176.9 L 20.6 169.0 L 23.7 160.6 L 26.3 151.8 L 28.6 142.4 L 30.4 132.5 L 31.7 122.0 L 32.6 110.9 L 33.0 99.2 L 33.0 17.0 Z M 64.0 159.0 L 64.0 175.0 L 104.0 175.0 L 104.0 159.0 Z M 116.0 159.0 L 116.0 175.0 L 156.0 175.0 L 156.0 159.0 Z M 64.0 139.0 L 64.0 155.0 L 104.0 155.0 L 104.0 139.0 Z M 116.0 139.0 L 116.0 155.0 L 156.0 155.0 L 156.0 139.0 Z M 64.0 122.0 L 64.0 135.0 L 104.0 135.0 L 104.0 122.0 Z M 116.0 122.0 L 116.0 135.0 L 156.0 135.0 L 156.0 122.0 Z M 74.28048782348633 64.6 L 72.3 67.5 L 69.2 71.2 L 67.78000001907348 72.61999998092651 L 68.7 72.7 L 70.9 72.9 L 73.0 73.3 L 75.0 73.8 L 76.9 74.4 L 78.7 75.1 L 80.4 75.9 L 82.1 77.0 L 83.6 78.1 L 84.6 82.6 L 84.11882848739624 83.41589956283569 L 87.6 79.6 L 92.5 73.5 L 96.9 66.8 L 98.1222222328186 64.6 Z M 45.0 27.0 L 45.0 42.0 L 161.0 42.0 L 161.0 27.0 Z " />
</g>
</svg>
