<svg xmlns="http://www.w3.org/2000/svg" xmlns:xlink="http://www.w3.org/1999/xlink" version="1.1" baseProfile="full" viewBox="0 0 200 200" width="200" height="200">
<g fill="black">
<path d="M 155.8 157.7 L 156.7 161.1 L 152.6458869934082 160.38875207901 L 149.7 162.9 L 142.1 167.5 L 133.0 171.5 L 122.5 175.1 L 110.4 178.2 L 96.7 181.0 L 81.5 183.4 L 64.6 185.4 L 46.1 186.9 L 26.0 187.8 L 25.9 186.1 L 45.7 183.1 L 63.9 180.1 L 80.4 176.9 L 95.1 173.6 L 108.2 170.0 L 119.5 166.3 L 129.1 162.3 L 136.8 158.1 L 142.7 153.9 L 146.8 149.7 L 146.81836738586426 149.71632652282716 L 147.2 149.3 Z M 111.0 122.0 L 114.0 124.0 L 111.0 125.8 L 111.0 162.0 L 99.0 168.0 L 99.0 120.0 Z M 72.0 142.2 L 72.3 145.8 L 68.67326736450195 144.48118810653688 L 68.5 144.6 L 64.8 147.0 L 60.8 149.4 L 56.6 151.9 L 52.1 154.4 L 47.3 156.9 L 42.3 159.5 L 37.0 162.0 L 31.4 164.4 L 25.4 166.7 L 24.5 165.2 L 29.5 161.1 L 34.3 157.4 L 38.9 153.9 L 43.3 150.5 L 47.4 147.3 L 51.3 144.2 L 55.0 141.2 L 58.4 138.4 L 61.5 135.6 L 63.62293157577515 133.62347755432128 L 63.6 133.6 L 64.5 132.8 Z M 150.4 137.3 L 156.1 138.0 L 161.3 138.9 L 165.8 139.7 L 169.8 140.6 L 173.3 141.6 L 176.3 142.6 L 179.0 143.7 L 181.4 145.3 L 183.5 148.0 L 183.3 152.6 L 180.0 155.8 L 175.4 155.5 L 172.3 152.2 L 172.73636360168456 152.03636360168457 L 171.7 151.0 L 169.7 149.6 L 167.0 148.0 L 163.6 146.2 L 159.6 144.4 L 154.9 142.4 L 149.7 140.1 L 143.7 138.1 L 144.1 136.3 Z M 172.3 152.2 L 173.0 152.9 L 172.9 152.2 L 172.73636360168456 152.03636360168457 Z M 177.1140687942505 89.25804653167725 L 113.8 93.39032258987427 L 113.8 106.1 L 114.0 107.0 L 114.2 107.6 L 114.4 108.0 L 114.7 108.3 L 115.0 108.5 L 115.6 108.7 L 116.5 108.8 L 117.8 108.9 L 172.4 108.9 Z M 46.3 19.3 L 163.6 19.3 L 169.6 14.3 L 180.6 23.3 L 175.6 27.3 L 175.6 41.2 L 163.6 47.2 L 163.6 41.2 L 152.9615385055542 41.2 L 153.09562044143678 41.78102188110351 L 163.6 50.4 L 163.9 53.4 L 159.52950105667114 51.304555320739745 L 155.5 52.2 L 146.9 53.8 L 137.9 55.3 L 128.7 56.6 L 119.2 57.9 L 113.8 58.506122493743895 L 113.8 71.16101989746093 L 149.16016874313354 68.65494050979615 L 158.4 58.0 L 171.1 67.1 L 171.3 71.1 L 113.8 75.17871971130371 L 113.8 89.42213048934937 L 160.3997886657715 86.34577541351318 L 169.7 75.8 L 182.3 84.9 L 182.6 88.9 L 179.98635339736938 89.07058305740357 L 178.4 108.9 L 182.0 111.3 L 184.4 114.9 L 182.0 118.5 L 178.4 120.9 L 117.8 120.9 L 115.2 120.8 L 112.7 120.3 L 110.3 119.5 L 108.0 118.3 L 106.0 116.6 L 104.4 114.6 L 103.1 112.4 L 102.3 109.9 L 101.9 107.5 L 101.8 104.9 L 101.8 94.17351837158203 L 49.3 97.6 L 49.0 93.7 L 101.8 90.21432857513427 L 101.8 76.02993078231812 L 55.7 79.3 L 55.4 75.3 L 101.8 72.01149520874023 L 101.8 59.74509801864624 L 99.2 60.0 L 88.8 60.9 L 78.1 61.6 L 67.0 62.0 L 55.7 62.2 L 55.5 60.4 L 66.6 58.3 L 77.4 56.3 L 88.0 54.4 L 98.2 52.5 L 108.1 50.6 L 117.7 48.7 L 126.9 46.7 L 135.9 44.7 L 144.5 42.7 L 150.15909090042115 41.2 L 46.3 41.2 L 46.3 59.5 L 45.8 67.5 L 44.6 75.2 L 43.0 82.5 L 40.7 89.4 L 37.9 95.8 L 34.6 101.8 L 30.7 107.3 L 26.3 112.3 L 21.2 116.7 L 15.7 120.4 L 14.5 119.0 L 18.5 114.0 L 22.1 108.9 L 25.2 103.7 L 27.9 98.3 L 30.1 92.6 L 31.9 86.6 L 33.2 80.3 L 34.0 73.7 L 34.4 66.8 L 34.3 59.5 L 34.3 13.3 Z M 46.3 23.3 L 46.3 37.2 L 163.6 37.2 L 163.6 23.3 Z " />
</g>
</svg>
