<svg xmlns="http://www.w3.org/2000/svg" xmlns:xlink="http://www.w3.org/1999/xlink" version="1.1" baseProfile="full" viewBox="0 0 200 200" width="200" height="200">
<g fill="black">
<path d="M 33.0 26.0 L 76.0 26.0 L 82.0 21.0 L 93.0 30.0 L 88.0 34.0 L 88.0 60.0 L 76.0 66.0 L 76.0 60.0 L 33.0 60.0 L 33.0 70.0 L 32.5 88.0 L 31.8 104.6 L 30.7 119.9 L 29.3 133.9 L 27.7 146.4 L 25.7 157.7 L 23.3 167.5 L 20.6 176.0 L 17.4 183.0 L 13.7 188.4 L 12.2 187.5 L 13.8 181.6 L 15.4 174.5 L 16.9 166.1 L 18.2 156.5 L 19.2 145.5 L 20.1 133.1 L 20.7 119.3 L 21.0 104.2 L 21.1 87.8 L 21.0 70.0 L 21.0 20.0 Z M 183.0 146.0 L 185.0 146.0 L 183.0 171.0 L 186.6 173.4 L 189.0 177.0 L 186.6 180.6 L 183.0 183.0 L 68.0 183.0 L 65.4 182.8 L 62.9 182.4 L 60.5 181.6 L 58.2 180.3 L 56.2 178.7 L 54.6 176.7 L 53.3 174.4 L 52.5 172.0 L 52.1 169.5 L 52.0 167.0 L 52.0 144.86129035949708 L 30.6 152.8 L 29.3 149.1 L 52.0 140.6790322303772 L 52.0 119.29444446563721 L 32.7 126.8 L 31.2 123.1 L 52.0 115.01111106872558 L 52.0 93.63589744567871 L 49.1 94.9 L 45.1 96.4 L 41.2 97.6 L 37.4 98.7 L 36.5 97.2 L 42.7 92.0 L 46.0 89.4 L 49.4 86.9 L 52.9 84.3 L 56.5 81.6 L 60.2 78.9 L 64.0 76.2 L 67.9 73.3 L 71.02590837478638 71.03371639251709 L 71.0 71.0 L 71.02941961288452 71.03117074966431 L 71.9 70.4 L 74.8956958770752 75.1275824546814 L 79.4 79.9 L 79.5 83.3 L 75.88709678649903 81.81612901687622 L 73.9 82.9 L 69.6 85.2 L 65.4 87.4 L 62.5481481552124 88.7580246925354 L 64.0 89.0 L 67.0 91.0 L 64.0 92.8 L 64.0 110.34444446563721 L 64.71080379486084 110.06802072525025 L 70.4 97.1 L 85.2 102.1 L 86.7 105.8 L 64.0 114.6277777671814 L 64.0 136.2274193763733 L 70.55447883605957 133.79591913223265 L 76.5 120.9 L 91.3 126.1 L 92.6 129.8 L 64.0 140.40967741012574 L 64.0 168.2 L 64.2 169.1 L 64.5 170.0 L 64.9 170.4 L 65.8 170.7 L 66.7 170.9 L 68.0 171.0 L 177.0 171.0 Z M 169.49210901260375 15.525830841064453 L 177.4 22.7 L 177.6 25.9 L 173.7210331916809 24.26356086730957 L 173.4 24.4 L 166.7 26.9 L 159.7 29.3 L 152.5 31.4 L 146.2 32.9960000038147 L 146.2 63.9 L 164.7 63.9 L 174.7 53.9 L 186.7 63.9 L 186.7 67.9 L 146.2 67.9 L 146.2 98.5 L 163.6 98.5 L 169.6 93.5 L 180.6 102.5 L 175.6 106.5 L 175.6 150.8 L 163.6 156.8 L 163.6 144.8 L 116.7 144.8 L 116.7 156.8 L 104.7 162.8 L 104.7 92.5 L 116.7 98.5 L 134.2 98.5 L 134.2 67.9 L 93.7 67.9 L 93.7 63.9 L 134.2 63.9 L 134.2 35.58860759735107 L 129.4 36.5 L 121.2 37.8 L 112.8 38.8 L 104.2 39.4 L 95.3 39.7 L 95.1 37.9 L 103.6 35.7 L 111.9 33.5 L 119.9 31.3 L 127.7 29.1 L 135.2 26.8 L 142.4 24.4 L 149.3 21.8 L 156.0 19.2 L 162.4 16.4 L 167.7090775489807 13.916721820831299 L 167.7 13.9 L 167.71524972915648 13.913834762573241 L 168.6 13.5 Z M 116.7 140.8 L 163.6 140.8 L 163.6 102.5 L 116.7 102.5 Z M 33.0 30.0 L 33.0 56.0 L 76.0 56.0 L 76.0 30.0 Z " />
</g>
</svg>
