<svg xmlns="http://www.w3.org/2000/svg" xmlns:xlink="http://www.w3.org/1999/xlink" version="1.1" baseProfile="full" viewBox="0 0 200 200" width="200" height="200">
<g fill="black">
<path d="M 46.0 26.0 L 159.0 26.0 L 165.0 21.0 L 176.0 30.0 L 171.0 34.0 L 171.0 62.0 L 159.0 68.0 L 159.0 58.0 L 46.0 58.0 L 46.0 73.0 L 45.3 89.8 L 44.0 105.6 L 41.9 120.2 L 39.2 133.7 L 35.8 146.1 L 31.6 157.3 L 26.7 167.4 L 21.1 176.2 L 14.7 183.6 L 7.6 189.6 L 6.3 188.3 L 11.8 181.2 L 16.6 173.3 L 20.8 164.5 L 24.5 154.6 L 27.6 143.8 L 30.1 131.8 L 32.0 118.8 L 33.3 104.6 L 33.9 89.4 L 34.0 73.0 L 34.0 20.0 Z M 169.0 169.0 L 167.1 164.5 L 166.87343378067015 163.97889776229857 L 161.2 165.8 L 153.5 168.0 L 146.0 170.0 L 138.8 171.7 L 131.9 173.3 L 125.4 174.7 L 119.1 176.0 L 113.2 177.2 L 107.6 178.2 L 106.40300483703614 178.40326328277587 L 104.6 181.9 L 102.3 179.1 L 99.0 167.4 L 101.0 167.2 L 106.3 166.9 L 111.8 166.5 L 114.95904426574707 166.28582754135132 L 115.7 163.4 L 117.9 155.4 L 120.4 146.9 L 123.0 137.8 L 125.8 128.1 L 128.8 117.8 L 131.8 106.9 L 135.0 95.4 L 138.3 83.3 L 141.7 70.5 L 141.76416721343995 70.51880760192871 L 142.2 68.9 L 153.3 73.9 L 155.6 76.6 L 152.12375516891478 77.51480131149292 L 149.2 86.5 L 145.3 98.5 L 141.4 109.9 L 137.6 120.7 L 133.9 130.8 L 130.2 140.3 L 126.6 149.1 L 122.9 157.3 L 119.3 164.8 L 118.60334901809692 166.02830562591552 L 124.0 165.6 L 130.6 164.9 L 137.6 164.2 L 144.9 163.5 L 152.5 162.8 L 160.5 162.1 L 165.89106702804565 161.7194540977478 L 165.1 159.9 L 162.8 155.4 L 160.4 150.8 L 157.8 146.2 L 155.1 141.5 L 152.2 136.7 L 149.2 131.7 L 150.6 130.5 L 155.1 134.3 L 159.3 138.2 L 163.1 142.3 L 166.7 146.6 L 170.1 150.9 L 173.2 155.3 L 176.0 159.8 L 178.7 164.4 L 181.1 169.1 L 183.3 173.8 L 183.1 178.3 L 179.7 181.5 L 175.2 181.3 L 172.0 177.9 L 170.6 173.5 Z M 89.3 179.4 L 87.6 181.1 L 85.7 182.6 L 83.6 183.9 L 81.5 184.9 L 79.2 185.7 L 76.8 186.3 L 74.4 186.6 L 71.9 186.7 L 71.9 180.7 L 53.9 177.7 L 53.9 174.7 L 71.9 174.7 L 73.3 174.6 L 74.6 174.5 L 75.8 174.2 L 76.9 173.8 L 77.8 173.3 L 78.8 172.8 L 79.7 172.1 L 80.5 171.2 L 81.4 170.2 L 82.2 169.1 L 83.0 167.5 L 83.9 165.4 L 84.7 162.7 L 85.5 159.4 L 86.2 155.7 L 86.8 151.4 L 87.4 146.7 L 87.8 141.5 L 88.1 135.7 L 88.23114757537842 131.7 L 63.6470588684082 131.7 L 62.5 139.5 L 49.8 143.7 L 57.0 94.4 L 66.71428575515748 101.2 L 87.5 101.2 L 87.5 77.3 L 50.9 77.3 L 50.9 73.3 L 87.5 73.3 L 93.5 68.3 L 104.5 77.3 L 99.5 81.3 L 99.5 109.2 L 87.5 115.2 L 87.5 105.2 L 67.54411764144898 105.2 L 64.23529415130615 127.7 L 88.3 127.7 L 94.3 122.7 L 105.3 131.7 L 100.3 134.7 L 100.14802112579346 134.76332454681398 L 100.1 136.3 L 99.8 142.3 L 99.3 147.8 L 98.8 152.9 L 98.1 157.6 L 97.3 162.0 L 96.3 165.9 L 95.2 169.4 L 93.9 172.6 L 92.3 175.5 L 90.9 177.5 Z M 46.0 30.0 L 46.0 54.0 L 159.0 54.0 L 159.0 30.0 Z " />
</g>
</svg>
