<svg xmlns="http://www.w3.org/2000/svg" xmlns:xlink="http://www.w3.org/1999/xlink" version="1.1" baseProfile="full" viewBox="0 0 200 200" width="200" height="200">
<g fill="black">
<path d="M 107.0 139.5 L 107.0 127.7 L 45.0 127.7 L 45.0 136.4 L 44.70476188659668 139.5 Z M 73.7 160.0 L 73.7 176.1 L 152.2 176.1 L 152.2 160.0 Z M 45.0 109.6 L 45.0 123.7 L 161.0 123.7 L 161.0 109.6 Z M 38.8 48.1 L 78.0 48.1 L 84.0 43.1 L 95.0 52.1 L 90.0 56.1 L 90.0 67.2 L 84.12191238403321 70.1390438079834 L 87.9 73.7 L 88.9 77.2 L 84.29543972015381 76.39218244552612 L 82.9 77.4 L 80.9 78.8 L 78.8 80.2 L 76.5 81.7 L 74.1 83.3 L 71.6 84.9 L 70.50361442565918 85.5656626701355 L 78.8 85.0 L 87.6 84.5 L 96.5 84.3 L 105.4 84.2 L 105.6 86.0 L 96.9 88.0 L 88.3 89.9 L 70.9 93.1 L 62.2 94.6 L 53.6 96.0 L 44.9 97.5 L 36.3 98.9 L 27.7 100.2 L 23.130503749847414 100.94387149810791 L 21.4 104.3 L 19.1 101.6 L 15.7 89.9 L 17.6 89.7 L 26.3 88.9 L 42.014825916290285 87.63558874130248 L 39.4 85.1 L 39.4 84.2 L 39.2 83.0 L 38.8 81.8 L 38.2 80.4 L 37.3 78.9 L 36.2 77.3 L 34.8 75.7 L 33.2 73.9 L 31.4 72.1 L 30.3 71.45 L 26.8 73.2 L 26.8 42.4 L 20.5 42.4 L 20.5 38.4 L 51.4 38.4 L 51.4 28.9 L 15.3 28.9 L 15.3 24.9 L 51.4 24.9 L 51.4 13.7 L 63.4 15.7 L 66.4 17.7 L 63.4 19.5 L 63.4 24.9 L 92.0 24.9 L 96.5 18.9 L 102.5 24.9 L 102.5 28.9 L 63.4 28.9 L 63.4 38.4 L 84.1777777671814 38.4 L 90.4 31.4 L 98.4 38.4 L 98.4 42.4 L 27.4 42.4 Z M 158.5 96.4 L 149.3 92.8 L 140.9 88.7 L 137.96013021469116 86.95928764343262 L 137.3 87.3 L 127.1 91.5 L 116.2 95.0 L 104.4 97.7 L 91.7 99.7 L 78.2 100.9 L 78.0 99.1 L 91.0 96.0 L 103.0 92.5 L 114.1 88.7 L 124.3 84.5 L 129.8564489364624 81.63018569946288 L 126.6 79.2 L 120.7 73.6 L 115.7 67.7 L 111.8 61.2 L 109.28405799865723 55.0 L 99.2 55.0 L 99.2 51.0 L 132.1 51.0 L 132.1 34.7 L 97.6 34.7 L 97.6 30.7 L 132.1 30.7 L 132.1 13.4 L 144.1 15.4 L 147.1 17.4 L 144.1 19.2 L 144.1 30.7 L 169.8181818008423 30.7 L 178.0 21.7 L 188.0 30.7 L 188.0 34.7 L 144.1 34.7 L 144.1 51.0 L 164.2 51.0 L 164.4360655784607 50.8032787322998 L 165.1 49.8 L 165.40805368423463 49.993288612365724 L 170.2 46.0 L 181.2 55.0 L 176.2 58.0 L 172.86623792648317 59.389067554473876 L 169.5 63.8 L 162.7 70.7 L 155.1 77.0 L 149.0582734107971 80.90935249328614 L 153.3 82.5 L 162.0 85.1 L 171.4 87.3 L 181.5 89.1 L 191.0 90.8 L 179.2 102.0 L 168.5 99.4 Z M 38.8 67.2 L 32.67692308425903 70.2615385055542 L 35.1 70.8 L 37.5 71.5 L 39.8 72.4 L 41.9 73.4 L 43.9 74.5 L 45.8 75.7 L 47.5 77.1 L 49.1 78.7 L 50.4 80.5 L 50.4 85.0 L 48.337589740753174 87.12686061859131 L 52.4 86.8 L 66.1659574508667 85.86141195297242 L 67.1 84.8 L 68.8 82.1 L 70.5 79.6 L 72.1 77.2 L 73.5 75.0 L 74.8 72.9 L 76.0 71.0 L 77.1 69.2 L 78.0 67.5 L 78.0 67.2 Z M 115.2 58.8 L 120.1 63.8 L 125.5 68.3 L 131.5 72.4 L 138.1 76.2 L 138.66706972122194 76.4599069595337 L 141.6 74.6 L 148.9 69.1 L 155.2 63.1 L 160.6 56.6 L 161.65882349014282 55.0 L 111.90188674926758 55.0 Z M 38.8 52.1 L 38.8 63.2 L 78.0 63.2 L 78.0 52.1 Z M 45.0 105.6 L 161.0 105.6 L 167.0 100.6 L 178.0 109.6 L 173.0 113.6 L 173.0 127.7 L 161.0 133.7 L 161.0 127.7 L 116.6 127.7 L 119.0 128.1 L 122.0 130.1 L 119.0 131.9 L 119.0 139.5 L 165.8181818008423 139.5 L 174.0 130.5 L 184.0 139.5 L 184.0 143.5 L 119.0 143.5 L 119.0 156.0 L 152.2 156.0 L 158.2 151.0 L 169.2 160.0 L 164.2 164.0 L 164.2 182.1 L 152.2 188.1 L 152.2 180.1 L 73.7 180.1 L 73.7 183.1 L 61.7 189.1 L 61.7 150.0 L 73.7 156.0 L 107.0 156.0 L 107.0 143.5 L 44.23999996185303 143.5 L 43.2 148.7 L 41.5 154.4 L 39.2 159.8 L 36.4 164.7 L 33.1 169.3 L 29.2 173.4 L 24.8 177.1 L 19.9 180.2 L 14.4 182.7 L 13.5 181.2 L 17.5 177.2 L 21.1 173.1 L 24.2 169.1 L 26.8 164.9 L 29.0 160.6 L 30.7 156.2 L 31.9 151.6 L 32.7 146.8 L 33.0 141.7 L 33.0 99.6 Z " />
</g>
</svg>
