<svg xmlns="http://www.w3.org/2000/svg" xmlns:xlink="http://www.w3.org/1999/xlink" version="1.1" baseProfile="full" viewBox="0 0 200 200" width="200" height="200">
<g fill="black">
<path d="M 71.6 148.1 L 67.4 143.9 L 62.8 139.9 L 60.35714282989502 138.067857170105 L 58.9 140.8 L 50.7 153.0 L 41.6 164.0 L 31.5 173.6 L 20.4 181.9 L 8.4 188.7 L 7.5 187.2 L 18.1 178.9 L 27.8 169.7 L 36.6 159.7 L 44.5 148.7 L 51.5 136.6 L 53.102173233032225 133.15926733016968 L 51.9 132.4 L 45.6 128.9 L 38.8 125.6 L 31.5 122.3 L 23.7 119.1 L 23.722222232818602 119.0 L 22.8 119.0 L 35.297625827789304 63.0 L 15.0 63.0 L 15.0 59.0 L 36.19031343460083 59.0 L 46.3 13.7 L 57.6 18.2 L 60.1 20.8 L 56.79707374572754 21.7971097946167 L 48.49285717010498 59.0 L 71.0 59.0 L 81.0 49.0 L 93.0 59.0 L 93.0 63.0 L 84.6714285850525 63.0 L 81.7 79.9 L 77.5 96.8 L 72.3 112.7 L 66.1 127.3 L 64.51322317123413 130.27520656585693 L 68.1 132.3 L 73.8 136.1 L 79.1 140.4 L 83.9 145.0 L 88.1 150.0 L 89.1 154.5 L 86.7 158.4 L 82.2 159.3 L 78.3 156.9 L 75.2 152.4 Z M 111.6 23.0 L 170.6 23.0 L 176.6 18.0 L 187.6 27.0 L 182.6 31.0 L 182.6 72.0 L 170.6 78.0 L 170.6 66.0 L 111.6 66.0 L 111.6 87.0 L 111.1 99.6 L 110.4 111.6 L 109.4 123.0 L 108.0 133.8 L 106.3 144.0 L 104.3 153.6 L 102.0 162.6 L 99.3 170.9 L 96.2 178.5 L 92.6 185.3 L 90.9 184.6 L 92.6 177.2 L 94.1 169.4 L 95.6 161.1 L 96.9 152.3 L 97.9 142.9 L 98.8 132.9 L 99.3 122.3 L 99.7 111.1 L 99.8 99.3 L 99.6 87.0 L 99.6 17.0 Z M 183.5 170.4 L 183.5 174.4 L 110.9 174.4 L 110.9 170.4 L 161.5 170.4 L 171.5 160.4 Z M 47.6 63.0 L 35.1 119.0 L 33.95 119.0 L 40.7 120.5 L 48.2 122.9 L 55.3 125.6 L 56.37861862182617 126.12296657562256 L 57.6 123.5 L 62.8 109.4 L 67.1 94.1 L 70.5 77.7 L 72.5245509147644 63.0 Z M 175.9 106.8 L 175.9 110.8 L 118.5 110.8 L 118.5 106.8 L 153.9 106.8 L 163.9 96.8 Z M 111.6 27.0 L 111.6 62.0 L 170.6 62.0 L 170.6 27.0 Z " />
</g>
</svg>
