<svg xmlns="http://www.w3.org/2000/svg" xmlns:xlink="http://www.w3.org/1999/xlink" version="1.1" baseProfile="full" viewBox="0 0 200 200" width="200" height="200">
<g fill="black">
<path d="M 156.9 182.6 L 154.9 183.8 L 152.9 184.9 L 150.7 185.8 L 148.5 186.6 L 146.3 187.1 L 144.0 187.6 L 141.6 187.8 L 139.2 187.9 L 139.2 181.9 L 119.2 178.9 L 119.2 175.9 L 139.2 175.9 L 140.8 175.8 L 142.3 175.7 L 145.1 175.1 L 147.7 174.1 L 149.0 173.4 L 150.2 172.6 L 151.4 171.7 L 152.6 170.7 L 154.0 169.1 L 155.6 165.8 L 157.2 161.1 L 158.7 154.9 L 160.0 147.4 L 161.0 138.5 L 161.7 128.4 L 162.2 116.9 L 162.5 104.2 L 162.5 92.1 L 79.10895519256592 92.1 L 78.9 92.5 L 75.0 99.0 L 70.7 105.3 L 66.1 111.5 L 61.1 117.5 L 55.7 123.4 L 49.9 129.0 L 45.51299266815185 132.6906569480896 L 45.4 133.4 L 43.0 143.8 L 40.0 153.2 L 36.4 161.8 L 32.1 169.4 L 27.2 176.0 L 21.6 181.4 L 15.5 185.7 L 14.4 184.2 L 18.9 178.8 L 22.9 172.8 L 26.4 166.2 L 29.4 158.8 L 31.9 150.7 L 33.9 141.7 L 35.5 131.8 L 36.5 121.1 L 37.0 109.5 L 37.0 21.0 L 49.0 27.0 L 151.0 27.0 L 157.0 22.0 L 168.0 31.0 L 163.0 35.0 L 163.0 68.0 L 151.0 74.0 L 151.0 64.0 L 49.0 64.0 L 49.0 97.0 L 48.4 110.0 L 47.2 122.1 L 46.350991535186765 127.4298867225647 L 47.1 126.4 L 51.6 120.0 L 55.9 113.6 L 59.9 107.2 L 63.5 100.8 L 66.9 94.4 L 69.9 88.0 L 72.6 81.5 L 75.0 75.0 L 76.72536735534668 69.3062876701355 L 76.7 69.3 L 77.5 66.9 L 88.4 72.2 L 90.6 75.0 L 86.92350797653198 75.83849821090698 L 85.6 79.1 L 82.4 85.8 L 81.19850749969483 88.1 L 162.5 88.1 L 168.5 83.1 L 179.5 92.1 L 174.5 95.1 L 174.5 104.3 L 174.2 117.3 L 173.7 129.1 L 172.9 139.7 L 171.8 149.0 L 170.5 157.3 L 168.8 164.4 L 166.7 170.4 L 164.1 175.5 L 160.7 179.6 L 158.8 181.2 Z M 131.7 157.5 L 130.1 154.3 L 128.1 150.9 L 127.27530860900879 149.6629630088806 L 118.7 151.9 L 108.1 154.5 L 98.5 156.8 L 89.9 158.8 L 82.3 160.6 L 75.7 162.1 L 70.1 163.5 L 65.5 164.7 L 63.40169486999512 165.22457628250123 L 61.8 169.0 L 59.3 166.4 L 55.1 155.0 L 57.1 154.6 L 59.9 154.4 L 63.6 154.1 L 68.4 153.6 L 71.95364665985107 153.225931930542 L 73.5 149.6 L 76.4 143.2 L 79.3 137.0 L 82.1 131.0 L 84.8 125.2 L 87.3 119.6 L 89.7 114.2 L 91.9 108.9 L 94.0 103.8 L 95.54491014480591 99.81575794219971 L 95.5 99.8 L 96.4 97.7 L 106.9 103.8 L 108.8 106.9 L 105.0125563621521 107.35710525512695 L 104.3 108.7 L 101.6 113.6 L 98.6 118.7 L 95.5 123.9 L 92.2 129.2 L 88.7 134.7 L 85.0 140.3 L 81.0 145.9 L 76.7 151.6 L 75.7244013786316 152.80889396667482 L 80.9 152.2 L 88.6 151.3 L 97.4 150.3 L 107.2 149.2 L 118.0 148.2 L 125.81820583343506 147.4773087501526 L 125.7 147.3 L 122.9 143.5 L 119.6 139.5 L 116.1 135.3 L 112.2 130.8 L 107.9 126.1 L 109.1 124.7 L 114.5 128.1 L 119.6 131.5 L 124.1 134.9 L 128.3 138.4 L 132.0 141.8 L 135.4 145.3 L 138.4 148.7 L 141.0 152.2 L 143.2 155.6 L 145.0 159.2 L 144.8 163.7 L 141.5 166.9 L 136.9 166.6 L 133.8 163.3 L 132.9 160.5 Z M 49.0 31.0 L 49.0 60.0 L 151.0 60.0 L 151.0 31.0 Z " />
</g>
</svg>
