<svg xmlns="http://www.w3.org/2000/svg" xmlns:xlink="http://www.w3.org/1999/xlink" version="1.1" baseProfile="full" viewBox="0 0 200 200" width="200" height="200">
<g fill="black">
<path d="M 45.1 18.2 L 171.3 18.2 L 177.3 13.2 L 188.3 22.2 L 183.3 26.2 L 183.3 54.7 L 171.3 60.7 L 171.3 52.7 L 45.1 52.7 L 45.1 85.3 L 44.5 98.7 L 43.3 111.4 L 41.6 123.5 L 39.3 134.9 L 36.4 145.7 L 32.9 155.8 L 28.9 165.2 L 24.2 173.9 L 18.8 181.8 L 12.8 188.7 L 11.4 187.7 L 15.6 179.7 L 19.4 171.4 L 22.8 162.7 L 25.8 153.4 L 28.2 143.5 L 30.2 133.1 L 31.7 122.1 L 32.6 110.4 L 33.1 98.2 L 33.1 12.2 Z M 147.6 183.5 L 135.9 180.2 L 124.9 176.2 L 114.9 171.7 L 114.35162372589112 171.39600877761842 L 113.4 171.8 L 101.8 175.8 L 89.1 179.0 L 75.5 181.6 L 60.8 183.4 L 45.1 184.5 L 44.9 182.7 L 60.2 179.7 L 74.4 176.3 L 87.5 172.6 L 99.4 168.6 L 105.0723663330078 166.16141262054444 L 97.4 160.8 L 90.0 154.4 L 83.8 147.4 L 79.36233768463134 140.7 L 57.7 140.7 L 57.7 136.7 L 145.38787879943848 136.7 L 146.6 135.1 L 147.03655319213868 135.41953897476196 L 151.5 131.7 L 162.5 140.7 L 157.5 143.7 L 153.46878404617308 145.3796732902527 L 149.8 149.5 L 142.3 156.1 L 133.7 162.1 L 126.52906980514527 165.94421005249023 L 128.4 166.6 L 138.9 169.5 L 150.1 171.9 L 162.2 173.8 L 175.0 175.2 L 185.5 176.3 L 173.6 188.3 L 160.2 186.2 Z M 82.48474578857422 140.7 L 86.8 144.5 L 93.8 149.9 L 101.4 154.8 L 109.7 159.3 L 114.89646797180175 161.55180282592772 L 119.7 159.1 L 128.1 153.7 L 135.4 147.9 L 141.6 141.7 L 142.35757579803467 140.7 Z M 90.8 60.7 L 92.9 63.7 L 88.95384616851807 64.39230766296387 L 88.6 65.1 L 85.9 69.2 L 84.21999998092652 71.3 L 163.71818180084227 71.3 L 171.9 62.3 L 181.9 71.3 L 181.9 75.3 L 112.7 75.3 L 112.7 89.0 L 149.3181818008423 89.0 L 157.5 80.0 L 167.5 89.0 L 167.5 93.0 L 112.7 93.0 L 112.7 108.5 L 156.11818180084228 108.5 L 164.3 99.5 L 174.3 108.5 L 174.3 112.5 L 112.7 112.5 L 112.7 128.7 L 100.7 134.7 L 100.7 75.3 L 80.65526313781739 75.3 L 79.0 77.0 L 74.9 80.6 L 70.3 84.1 L 65.3 87.4 L 59.7 90.6 L 53.7 93.5 L 47.1 96.2 L 46.3 94.6 L 51.7 90.3 L 56.7 86.1 L 61.3 82.2 L 65.4 78.3 L 69.0 74.5 L 72.1 70.7 L 74.7 67.0 L 76.8 63.5 L 78.4 60.0 L 79.25220518112182 57.51440143585205 L 79.2 57.5 L 80.1 55.2 Z M 45.1 22.2 L 45.1 48.7 L 171.3 48.7 L 171.3 22.2 Z " />
</g>
</svg>
