<svg xmlns="http://www.w3.org/2000/svg" xmlns:xlink="http://www.w3.org/1999/xlink" version="1.1" baseProfile="full" viewBox="0 0 200 200" width="200" height="200">
<g fill="black">
<path d="M 151.77714281082154 135.40857143402098 L 162.4 144.1 L 157.4 148.1 L 157.4 180.1 L 145.4 186.1 L 145.4 176.1 L 78.5 176.1 L 78.5 183.1 L 66.5 189.1 L 66.5 134.82173910140992 L 63.0 136.8 L 53.2 141.2 L 42.8 144.8 L 42.1 143.2 L 51.5 137.8 L 60.3 132.2 L 68.4 126.2 L 75.9 119.9 L 82.7 113.1 L 86.03537092208862 109.28046236038207 L 85.4 108.7 L 78.8 100.2 L 74.0 90.8 L 72.73169136047363 86.2515827178955 L 72.7 86.3 L 68.8 91.7 L 64.5 96.8 L 59.9 101.6 L 54.9 106.2 L 49.6 110.5 L 43.8 114.4 L 43.05860347747803 113.53503742218018 L 41.7 123.3 L 39.5 134.2 L 36.8 144.5 L 33.6 154.1 L 29.7 163.1 L 25.4 171.4 L 20.3 178.8 L 14.7 185.5 L 13.2 184.4 L 17.1 176.9 L 20.6 169.0 L 23.7 160.6 L 26.3 151.8 L 28.6 142.4 L 30.4 132.5 L 31.7 122.0 L 32.6 110.9 L 33.0 99.2 L 33.0 17.0 L 45.0 23.0 L 161.0 23.0 L 167.0 18.0 L 178.0 27.0 L 173.0 31.0 L 173.0 60.0 L 161.0 66.0 L 161.0 56.0 L 45.0 56.0 L 45.0 87.0 L 44.4 99.7 L 43.3 111.8 L 43.24036083221436 112.22865619659424 L 47.0 107.7 L 51.1 102.5 L 54.9 97.3 L 58.5 92.1 L 61.8 86.9 L 64.7 81.5 L 67.4 76.1 L 69.7 70.5 L 71.8 64.9 L 73.22940521240234 60.107288455963136 L 73.2 60.1 L 74.0 57.7 L 84.9 63.0 L 87.2 65.8 L 83.39698600769043 66.66735410690308 L 82.4 69.1 L 80.53220338821411 72.9 L 106.7 72.9 L 112.7 67.9 L 123.7 76.9 L 118.7 79.9 L 116.52386121749878 80.80672454833984 L 113.7 86.7 L 108.5 95.8 L 102.5 104.2 L 98.28089475631714 109.18621520996093 L 98.3 109.2 L 107.4 114.0 L 117.7 117.8 L 129.4 120.6 L 142.5 122.5 L 156.9 123.4 L 172.7 123.3 L 184.3 123.1 L 172.9 136.5 L 156.2 135.9 Z M 78.5 144.1 L 78.5 172.1 L 145.4 172.1 L 145.4 144.1 Z M 88.7 119.2 L 80.8 125.7 L 72.2 131.6 L 67.17755098342896 134.4387755393982 L 78.5 140.1 L 145.4 140.1 L 151.11764707565308 135.33529415130616 L 140.9 134.2 L 127.0 131.4 L 114.4 127.5 L 103.2 122.3 L 93.5 116.1 L 92.61161289215087 115.28838710784912 Z M 162.7 108.0 L 160.7 105.4 L 158.5 102.7 L 156.0 100.1 L 153.4 97.4 L 150.6 94.8 L 147.6 92.1 L 144.4 89.3 L 143.5369047164917 88.68350343704223 L 142.4 90.6 L 138.5 96.1 L 134.2 101.1 L 129.6 105.6 L 124.5 109.6 L 119.1 113.1 L 113.2 115.9 L 112.3 114.3 L 116.8 110.0 L 121.0 105.6 L 124.8 101.1 L 128.3 96.3 L 131.5 91.3 L 134.3 86.0 L 136.8 80.4 L 138.9 74.5 L 140.7 68.3 L 142.2 61.8 L 142.21358880996704 61.80325202941894 L 142.6 60.0 L 153.9 64.6 L 156.3 67.3 L 152.66098461151122 68.42478656768799 L 151.6 71.7 L 148.9 78.4 L 145.9 84.7 L 144.92097902297974 86.3503496170044 L 145.9 86.7 L 150.0 88.2 L 153.8 89.9 L 157.5 91.8 L 161.0 93.9 L 164.4 96.1 L 167.5 98.5 L 170.5 100.9 L 173.3 103.6 L 175.9 106.3 L 176.9 110.8 L 174.6 114.7 L 170.1 115.7 L 166.2 113.4 L 164.5 110.7 Z M 78.45172414779663 76.9 L 76.3 80.8 L 74.69595088958741 83.25063056945801 L 77.8 88.9 L 83.6 96.7 L 90.4 103.5 L 90.58854417800903 103.63603820800782 L 94.4 98.3 L 99.3 90.3 L 103.5 81.7 L 105.47333335876465 76.9 Z M 45.0 27.0 L 45.0 52.0 L 161.0 52.0 L 161.0 27.0 Z " />
</g>
</svg>
