<svg xmlns="http://www.w3.org/2000/svg" xmlns:xlink="http://www.w3.org/1999/xlink" version="1.1" baseProfile="full" viewBox="0 0 200 200" width="200" height="200">
<g fill="black">
<path d="M 89.6 177.6 L 110.9 177.6 L 111.8 177.4 L 112.7 177.1 L 112.9 176.9 L 113.0 176.7 L 113.2 176.4 L 113.4 175.8 L 113.6 174.9 L 113.6 149.15789470672607 L 112.4 149.9 L 105.0 154.1 L 98.0 158.0 L 91.3 161.6 L 85.0 165.0 L 79.1 168.1 L 73.6 170.9 L 68.4 173.6 L 63.7 176.0 L 63.00542631149292 176.34728679656982 L 62.3 180.2 L 59.3 178.2 L 52.8 167.9 L 54.6 167.1 L 59.2 165.5 L 64.2 163.7 L 69.5 161.7 L 75.3 159.6 L 81.5 157.2 L 88.2 154.7 L 95.3 152.1 L 102.8 149.3 L 110.8 146.4 L 113.6 145.4666666984558 L 113.6 116.5 L 51.3 116.5 L 51.3 112.5 L 147.8 112.5 L 147.8 97.9 L 74.3 97.9 L 74.3 93.9 L 147.8 93.9 L 147.8 79.9 L 68.8 79.9 L 68.8 75.9 L 147.8 75.9 L 153.8 70.9 L 164.8 79.9 L 159.8 83.9 L 159.8 112.5 L 162.8 112.5 L 172.8 102.5 L 184.8 112.5 L 184.8 116.5 L 125.6 116.5 L 125.6 129.12340421676635 L 126.3 130.3 L 131.2 137.5 L 136.2 144.0 L 138.51624364852904 146.48781728744507 L 142.5 143.5 L 146.4 140.6 L 150.3 137.9 L 154.0 135.3 L 161.0 130.3 L 164.3 127.9 L 167.4 125.5 L 169.64230937957763 123.85563974380493 L 169.6 123.8 L 169.64799823760987 123.85146799087525 L 170.4 123.3 L 173.21966896057128 127.68133182525635 L 177.9 132.7 L 178.0 136.2 L 174.43030300140381 134.6701298713684 L 173.4 135.2 L 169.8 137.0 L 166.0 138.8 L 162.1 140.6 L 158.0 142.5 L 153.8 144.3 L 149.4 146.1 L 144.9 147.9 L 141.03157892227173 149.18947372436523 L 141.6 149.8 L 147.3 154.8 L 153.3 159.1 L 159.8 162.8 L 166.6 165.8 L 173.8 168.2 L 181.5 169.9 L 190.4 171.9 L 178.6 182.8 L 169.9 180.1 L 161.8 176.6 L 154.3 172.4 L 147.3 167.4 L 141.0 161.7 L 135.4 155.4 L 130.4 148.3 L 126.1 140.6 L 125.6 139.38571424484252 L 125.6 173.6 L 125.5 176.2 L 125.1 178.7 L 124.2 181.1 L 123.0 183.4 L 121.4 185.4 L 119.4 187.0 L 117.1 188.3 L 114.7 189.1 L 112.2 189.5 L 109.6 189.6 L 109.6 183.6 L 89.6 180.6 Z M 51.0 25.0 L 159.0 25.0 L 165.0 20.0 L 176.0 29.0 L 171.0 33.0 L 171.0 66.0 L 159.0 72.0 L 159.0 60.0 L 51.0 60.0 L 51.0 70.0 L 50.3 85.9 L 49.0 100.8 L 47.0 114.6 L 44.4 127.4 L 41.0 139.1 L 37.0 149.8 L 32.2 159.3 L 26.7 167.7 L 20.5 174.9 L 13.6 180.6 L 12.3 179.3 L 17.6 172.4 L 22.2 164.8 L 26.3 156.4 L 29.9 147.1 L 32.9 136.8 L 35.3 125.5 L 37.1 113.1 L 38.3 99.8 L 38.9 85.4 L 39.0 70.0 L 39.0 19.0 Z M 85.1 141.2 L 83.1 139.3 L 80.7 137.5 L 78.2 135.7 L 75.4 133.9 L 72.3 132.2 L 69.0 130.5 L 65.5 128.8 L 61.6 127.5 L 61.9 125.8 L 66.1 126.1 L 70.2 126.3 L 74.1 126.8 L 77.8 127.6 L 81.4 128.6 L 84.9 129.8 L 88.2 131.2 L 91.3 132.8 L 94.3 134.7 L 97.1 136.7 L 98.8 140.9 L 97.1 145.2 L 92.9 146.9 L 88.6 145.2 L 87.0 143.2 Z M 51.0 29.0 L 51.0 56.0 L 159.0 56.0 L 159.0 29.0 Z " />
</g>
</svg>
