<svg xmlns="http://www.w3.org/2000/svg" xmlns:xlink="http://www.w3.org/1999/xlink" version="1.1" baseProfile="full" viewBox="0 0 200 200" width="200" height="200">
<g fill="black">
<path d="M 144.7 184.7 L 133.9 181.7 L 123.9 178.2 L 114.7 174.1 L 114.28940315246582 173.8777946472168 L 113.5 174.2 L 102.8 177.6 L 91.2 180.5 L 78.7 182.7 L 65.2 184.2 L 50.8 185.1 L 50.6 183.3 L 64.6 180.5 L 77.6 177.4 L 89.6 174.1 L 100.5 170.4 L 104.85343399047852 168.57866535186767 L 98.6 164.3 L 91.9 158.6 L 86.2 152.2 L 82.2 146.2 L 62.3 146.2 L 62.3 142.2 L 142.25862064361573 142.2 L 143.5 140.6 L 143.87894735336303 140.88421049118043 L 148.3 137.2 L 159.3 146.2 L 154.3 149.2 L 150.31951217651368 150.85853662490845 L 147.1 154.4 L 140.1 160.3 L 132.1 165.5 L 126.68431777954102 168.3924666404724 L 127.3 168.6 L 136.8 171.1 L 147.1 173.2 L 158.2 174.8 L 169.9 176.0 L 180.4 177.1 L 168.6 189.1 L 156.3 187.2 Z M 45.0 23.0 L 161.0 23.0 L 167.0 18.0 L 178.0 27.0 L 173.0 31.0 L 173.0 48.0 L 161.0 54.0 L 161.0 46.0 L 45.0 46.0 L 45.0 87.0 L 44.4 99.7 L 43.3 111.8 L 41.7 123.3 L 39.5 134.2 L 36.8 144.5 L 33.6 154.1 L 29.7 163.1 L 25.4 171.4 L 20.3 178.8 L 14.7 185.5 L 13.2 184.4 L 17.1 176.9 L 20.6 169.0 L 23.7 160.6 L 26.3 151.8 L 28.6 142.4 L 30.4 132.5 L 31.7 122.0 L 32.6 110.9 L 33.0 99.2 L 33.0 17.0 Z M 85.39215688705444 146.2 L 89.1 149.3 L 95.6 154.0 L 102.6 158.3 L 110.2 162.1 L 114.78552627563477 164.0572368621826 L 119.1 161.9 L 126.7 157.1 L 133.4 151.9 L 139.0 146.4 L 139.1551724433899 146.2 Z M 134.0 122.5 L 144.0 122.5 L 145.2 122.4 L 146.1 122.3 L 146.7 122.1 L 147.0 121.9 L 147.4 121.5 L 147.7 120.6 L 147.9 119.7 L 148.0 118.5 L 148.0 107.4 L 121.5 107.4 L 121.5 132.6 L 109.5 138.6 L 109.5 107.4 L 84.2 107.4 L 84.2 128.2 L 72.2 134.2 L 72.2 97.4 L 84.2 103.4 L 109.5 103.4 L 109.5 94.4 L 121.5 96.4 L 124.5 98.4 L 121.5 100.2 L 121.5 103.4 L 148.0 103.4 L 154.0 98.4 L 157.7714285850525 101.48571424484253 L 157.3 100.7 L 159.2 99.3 L 160.8 97.4 L 162.2 95.7 L 163.5 94.2 L 164.475 93.0 L 65.14545450210571 93.0 L 65.2 93.6 L 65.1 95.8 L 64.6 98.0 L 63.8 100.1 L 62.5 102.1 L 60.9 103.9 L 59.0 105.5 L 56.7 106.9 L 52.2 106.5 L 49.2 103.0 L 49.6 98.5 L 53.0 95.5 L 54.3 95.5 L 55.5 95.4 L 56.5 95.2 L 57.6 94.9 L 58.6 94.3 L 59.6 93.5 L 60.6 92.4 L 61.6 91.0 L 62.4 89.2 L 62.5 87.1 L 64.3 87.0 L 64.48181819915771 89.0 L 166.8 89.0 L 168.21081085205077 87.82432432174683 L 168.4 87.5 L 168.9 86.5 L 169.28021392822265 86.93315505981445 L 172.8 84.0 L 183.8 93.0 L 178.8 96.0 L 166.8 101.0 L 166.8 99.13500003814697 L 164.9 99.8 L 162.7 100.5 L 160.3 101.1 L 158.4709677696228 102.05806455612182 L 165.0 107.4 L 160.0 111.4 L 160.0 118.5 L 159.8 121.0 L 159.4 123.5 L 158.6 125.9 L 157.3 128.2 L 155.7 130.2 L 153.7 131.9 L 151.4 133.1 L 149.0 133.9 L 146.5 134.3 L 144.0 134.5 L 144.0 128.5 L 134.0 125.5 Z M 161.7 59.4 L 156.7 63.4 L 156.7 66.9 L 171.1 66.9 L 175.6 60.9 L 181.6 66.9 L 181.6 70.9 L 156.7 70.9 L 156.7 82.4 L 144.7 88.4 L 144.7 82.4 L 68.6 82.4 L 68.6 78.4 L 144.7 78.4 L 144.7 70.9 L 48.5 70.9 L 48.5 66.9 L 144.7 66.9 L 144.7 59.4 L 70.2 59.4 L 70.2 55.4 L 144.7 55.4 L 150.7 50.4 Z M 45.0 27.0 L 45.0 42.0 L 161.0 42.0 L 161.0 27.0 Z " />
</g>
</svg>
