<svg xmlns="http://www.w3.org/2000/svg" xmlns:xlink="http://www.w3.org/1999/xlink" version="1.1" baseProfile="full" viewBox="0 0 200 200" width="200" height="200">
<g fill="black">
<path d="M 91.1 127.9 L 129.0 127.9 L 135.0 122.9 L 146.0 131.9 L 141.0 135.9 L 141.0 170.4 L 141.2 171.4 L 141.4 171.9 L 141.5 172.3 L 141.7 172.5 L 141.9 172.6 L 142.2 172.8 L 142.8 173.0 L 143.7 173.1 L 145.0 173.2 L 173.7 173.2 L 179.7 148.2 L 181.7 148.2 L 179.7 173.2 L 183.3 175.6 L 185.7 179.2 L 183.3 182.8 L 179.7 185.2 L 145.0 185.2 L 142.4 185.1 L 139.9 184.6 L 137.5 183.8 L 135.2 182.6 L 133.2 180.9 L 131.6 178.9 L 130.3 176.7 L 129.5 174.3 L 129.1 171.8 L 129.0 169.2 L 129.0 131.9 L 91.1 131.9 L 91.1 133.5 L 90.3 142.0 L 88.4 149.9 L 85.4 157.1 L 81.4 163.8 L 76.5 169.7 L 70.5 174.9 L 63.7 179.3 L 56.0 183.0 L 47.5 185.9 L 38.0 188.0 L 37.5 186.3 L 46.1 182.4 L 53.6 178.2 L 60.1 173.8 L 65.6 169.1 L 70.1 164.1 L 73.6 158.7 L 76.3 153.1 L 78.0 147.0 L 79.0 140.5 L 79.1 133.5 L 79.1 121.9 Z M 45.0 80.2 L 161.0 80.2 L 167.0 75.2 L 178.0 84.2 L 173.0 88.2 L 173.0 113.6 L 161.0 119.6 L 161.0 109.6 L 45.0 109.6 L 45.0 122.5 L 44.4 131.0 L 43.3 139.1 L 41.6 146.7 L 39.4 154.0 L 36.6 160.8 L 33.3 167.1 L 29.5 172.9 L 25.1 178.2 L 20.1 182.9 L 14.5 186.9 L 13.4 185.5 L 17.3 180.3 L 20.8 174.9 L 23.9 169.4 L 26.6 163.7 L 28.8 157.7 L 30.5 151.3 L 31.8 144.7 L 32.6 137.7 L 33.0 130.3 L 33.0 74.2 Z M 45.0 84.2 L 45.0 105.6 L 161.0 105.6 L 161.0 84.2 Z M 56.0 19.9 L 144.0 19.9 L 150.0 14.9 L 161.0 23.9 L 156.0 27.9 L 156.0 64.5 L 144.0 70.5 L 144.0 62.5 L 56.0 62.5 L 56.0 65.5 L 44.0 71.5 L 44.0 13.9 Z M 56.0 43.2 L 56.0 58.5 L 144.0 58.5 L 144.0 43.2 Z M 56.0 23.9 L 56.0 39.2 L 144.0 39.2 L 144.0 23.9 Z " />
</g>
</svg>
