<svg xmlns="http://www.w3.org/2000/svg" xmlns:xlink="http://www.w3.org/1999/xlink" version="1.1" baseProfile="full" viewBox="0 0 200 200" width="200" height="200">
<g fill="black">
<path d="M 161.8 182.8 L 158.7 180.6 L 155.4 178.5 L 151.7 176.3 L 147.7 174.2 L 143.4 172.1 L 138.9 170.0 L 134.0 167.8 L 128.9 165.6 L 129.3 163.9 L 135.0 164.4 L 140.4 165.2 L 145.5 166.2 L 150.3 167.4 L 154.9 168.8 L 159.3 170.3 L 163.4 171.9 L 167.3 173.7 L 171.0 175.7 L 174.4 177.8 L 176.6 181.8 L 175.4 186.2 L 171.4 188.4 L 167.0 187.2 L 164.5 185.0 Z M 101.61369428634643 163.643736743927 L 107.7 169.8 L 107.8 173.2 L 104.1276762008667 171.68041772842406 L 101.3 173.0 L 96.7 175.1 L 91.9 177.0 L 86.8 178.9 L 81.6 180.7 L 76.2 182.5 L 70.6 184.0 L 64.8 185.5 L 58.8 186.7 L 52.5 187.7 L 52.0 186.0 L 57.6 183.1 L 63.1 180.4 L 68.4 177.9 L 73.5 175.4 L 78.4 172.9 L 83.1 170.4 L 87.6 168.0 L 91.9 165.5 L 95.9 163.0 L 99.00611400604248 161.00890130996703 L 99.0 161.0 L 99.00775814056396 161.00784730911255 L 99.8 160.5 Z M 51.0 25.0 L 159.0 25.0 L 165.0 20.0 L 176.0 29.0 L 171.0 33.0 L 171.0 66.0 L 159.0 72.0 L 159.0 60.0 L 51.0 60.0 L 51.0 70.0 L 50.3 85.9 L 49.0 100.8 L 47.0 114.6 L 44.4 127.4 L 41.0 139.1 L 37.0 149.8 L 32.2 159.3 L 26.7 167.7 L 20.5 174.9 L 13.6 180.6 L 12.3 179.3 L 17.6 172.4 L 22.2 164.8 L 26.3 156.4 L 29.9 147.1 L 32.9 136.8 L 35.3 125.5 L 37.1 113.1 L 38.3 99.8 L 38.9 85.4 L 39.0 70.0 L 39.0 19.0 Z M 48.0 154.8 L 65.8 154.8 L 65.8 83.7 L 77.8 89.7 L 97.2 89.7 L 97.2 67.3 L 109.2 69.3 L 112.2 71.3 L 109.2 73.1 L 109.2 89.7 L 127.5 89.7 L 127.5 67.3 L 139.5 69.3 L 142.5 71.3 L 139.5 73.1 L 139.5 89.7 L 158.1 89.7 L 164.1 84.7 L 175.1 93.7 L 170.1 97.7 L 170.1 154.8 L 173.6777777671814 154.8 L 179.9 147.8 L 187.9 154.8 L 187.9 158.8 L 48.0 158.8 Z M 77.8 124.6 L 77.8 154.8 L 97.2 154.8 L 97.2 124.6 Z M 109.2 124.6 L 109.2 154.8 L 127.5 154.8 L 127.5 124.6 Z M 139.5 124.6 L 139.5 154.8 L 158.1 154.8 L 158.1 124.6 Z M 77.8 93.7 L 77.8 120.6 L 97.2 120.6 L 97.2 93.7 Z M 109.2 93.7 L 109.2 120.6 L 127.5 120.6 L 127.5 93.7 Z M 139.5 93.7 L 139.5 120.6 L 158.1 120.6 L 158.1 93.7 Z M 51.0 29.0 L 51.0 56.0 L 159.0 56.0 L 159.0 29.0 Z " />
</g>
</svg>
