<svg xmlns="http://www.w3.org/2000/svg" xmlns:xlink="http://www.w3.org/1999/xlink" version="1.1" baseProfile="full" viewBox="0 0 200 200" width="200" height="200">
<g fill="black">
<path d="M 162.5 182.1 L 155.6 178.8 L 149.5 174.7 L 144.1 169.7 L 139.6 163.9 L 136.0 157.3 L 133.3 150.0 L 131.50565671920776 142.5393096923828 L 130.4 143.0 L 130.4 135.0 L 72.11709403991699 135.0 L 63.34478359222412 170.39173498153687 L 72.1 169.5 L 83.2 168.5 L 94.8 167.4 L 106.8 166.4 L 119.2 165.4 L 132.1 164.5 L 132.3 166.3 L 119.8 169.1 L 107.6 171.7 L 95.7 173.9 L 84.3 176.0 L 73.2 178.0 L 62.5 179.8 L 52.2 181.5 L 42.3 183.0 L 32.8 184.5 L 27.68445405960083 185.27845268249513 L 26.0 188.7 L 23.6 185.9 L 20.3 174.2 L 22.3 174.0 L 31.4 173.2 L 41.0 172.4 L 50.664785385131836 171.52138319015503 L 64.10427350997925 117.3 L 24.0 117.3 L 24.0 113.3 L 159.8181818008423 113.3 L 168.0 104.3 L 178.0 113.3 L 178.0 117.3 L 76.50427350997924 117.3 L 73.1085470199585 131.0 L 130.4 131.0 L 136.4 126.0 L 147.4 135.0 L 142.91889171600343 137.68866500854492 L 143.2 140.0 L 144.8 146.5 L 147.0 152.3 L 149.7 157.3 L 153.0 161.7 L 156.9 165.3 L 161.5 168.4 L 166.8 170.9 L 172.9 172.8 L 173.50448713302612 172.9138889312744 L 179.0 149.1 L 181.0 149.1 L 179.08725271224975 173.96571426391603 L 179.8 174.1 L 183.7 176.4 L 184.9 180.8 L 182.6 184.8 L 178.2 186.0 L 170.0 184.5 Z M 102.0 157.7 L 100.4 155.5 L 98.5 153.2 L 96.4 151.0 L 94.2 148.9 L 91.7 146.7 L 89.0 144.6 L 86.1 142.4 L 82.9 140.5 L 83.5 138.8 L 87.2 139.8 L 90.9 140.7 L 94.4 141.9 L 97.8 143.2 L 101.0 144.8 L 104.0 146.5 L 106.9 148.5 L 109.6 150.6 L 112.2 152.9 L 114.5 155.3 L 115.5 159.8 L 113.1 163.7 L 108.7 164.7 L 104.8 162.3 L 103.5 160.0 Z M 102.0 30.0 L 133.0 30.0 L 133.0 12.0 L 145.0 14.0 L 148.0 16.0 L 145.0 17.8 L 145.0 30.0 L 160.0 30.0 L 170.0 20.0 L 182.0 30.0 L 182.0 34.0 L 161.29677419662477 34.0 L 167.0 37.4 L 168.9 40.4 L 164.5702880859375 40.922551441192624 L 163.7 42.1 L 161.9 44.5 L 160.0 46.8 L 158.1 49.2 L 156.0 51.5 L 153.8 53.8 L 151.5 56.0 L 149.0 58.1 L 147.17916669845582 60.0 L 165.0 60.0 L 175.0 50.0 L 187.0 60.0 L 187.0 64.0 L 145.0 64.0 L 145.0 82.0 L 160.0 82.0 L 170.0 72.0 L 182.0 82.0 L 182.0 86.0 L 145.0 86.0 L 145.0 104.0 L 133.0 110.0 L 133.0 86.0 L 102.0 86.0 L 102.0 82.0 L 133.0 82.0 L 133.0 64.0 L 97.0 64.0 L 97.0 60.0 L 146.01818180084229 60.0 L 145.2 59.4 L 146.9 56.6 L 148.1 53.6 L 149.3 50.7 L 150.5 47.9 L 152.7 42.5 L 153.7 39.9 L 154.5 37.3 L 155.4 34.8 L 155.62399997711182 34.0 L 102.0 34.0 Z M 40.0 20.0 L 78.0 20.0 L 84.0 15.0 L 95.0 24.0 L 90.0 28.0 L 90.0 53.0 L 78.0 59.0 L 78.0 49.0 L 39.85365858078003 49.0 L 39.4 55.2 L 38.5 62.9 L 37.1 70.1 L 35.2 76.8 L 32.9 82.9 L 30.2 88.4 L 27.0 93.3 L 23.3 97.6 L 19.1 101.0 L 14.5 103.7 L 13.4 102.2 L 16.4 98.3 L 19.0 94.2 L 21.3 89.9 L 23.3 85.2 L 25.0 80.0 L 26.3 74.4 L 27.2 68.3 L 27.8 61.7 L 28.1 54.6 L 28.0 47.0 L 28.0 14.0 Z M 119.9 51.2 L 119.5 49.3 L 119.0 47.4 L 118.4 45.4 L 116.8 41.4 L 115.8 39.3 L 114.7 37.1 L 113.1 35.3 L 114.3 34.0 L 116.3 35.5 L 118.5 36.8 L 120.6 38.2 L 122.6 39.7 L 124.4 41.4 L 126.2 43.2 L 127.8 45.0 L 129.2 47.0 L 130.6 49.1 L 131.8 51.3 L 131.3 55.9 L 127.8 58.8 L 123.3 58.3 L 120.3 54.8 L 120.2 53.0 Z M 40.0 24.0 L 40.0 45.0 L 78.0 45.0 L 78.0 24.0 Z " />
</g>
</svg>
