<svg xmlns="http://www.w3.org/2000/svg" xmlns:xlink="http://www.w3.org/1999/xlink" version="1.1" baseProfile="full" viewBox="0 0 200 200" width="200" height="200">
<g fill="black">
<path d="M 46.0 186.9 L 45.9 182.3 L 49.0 179.0 L 51.2 178.3 L 53.2 177.4 L 55.1 176.2 L 56.9 174.8 L 58.6 173.0 L 60.3 170.8 L 61.8 168.3 L 63.1 165.4 L 64.4 162.0 L 65.1 158.3 L 66.9 158.4 L 67.0 162.3 L 67.2 166.2 L 66.9 169.8 L 66.3 173.3 L 65.3 176.7 L 63.8 179.8 L 61.9 182.8 L 59.7 185.5 L 57.0 187.9 L 53.9 189.9 L 49.3 190.0 Z M 169.0 180.6 L 168.0 178.4 L 166.8 176.0 L 165.2 173.4 L 163.2 170.8 L 161.0 168.0 L 158.4 165.2 L 155.6 162.2 L 152.2 159.3 L 153.2 157.8 L 157.2 159.9 L 161.0 161.7 L 164.6 163.8 L 167.8 165.9 L 170.8 168.1 L 173.5 170.4 L 175.9 172.9 L 178.0 175.4 L 179.9 178.1 L 181.4 180.9 L 181.0 185.5 L 177.6 188.5 L 173.1 188.1 L 170.0 184.7 L 169.7 182.8 Z M 129.9 178.6 L 129.6 176.7 L 129.0 174.7 L 128.1 172.5 L 127.0 170.1 L 125.5 167.7 L 123.7 165.1 L 121.7 162.4 L 119.1 160.0 L 120.2 158.6 L 123.3 160.5 L 126.4 162.2 L 129.3 164.0 L 131.8 165.9 L 134.2 168.0 L 136.3 170.2 L 138.1 172.6 L 139.6 175.1 L 140.9 177.8 L 141.8 180.7 L 140.5 185.0 L 136.6 187.3 L 132.2 186.0 L 129.9 182.0 L 130.0 180.4 Z M 97.1 187.3 L 93.1 185.0 L 91.8 180.7 L 92.3 179.1 L 92.7 177.4 L 92.9 175.6 L 92.9 173.8 L 92.6 171.7 L 92.2 169.6 L 91.5 167.3 L 90.5 164.9 L 89.4 162.3 L 87.6 160.0 L 88.8 158.8 L 91.1 160.8 L 93.6 162.5 L 95.8 164.5 L 97.7 166.6 L 99.4 168.8 L 100.8 171.2 L 102.0 173.7 L 102.9 176.4 L 103.5 179.2 L 103.7 182.0 L 101.4 186.0 Z M 168.2 75.2 L 180.2 85.2 L 180.2 89.2 L 157.8 89.2 L 157.8 118.2 L 163.3 118.2 L 173.3 108.2 L 185.3 118.2 L 185.3 122.2 L 157.8 122.2 L 157.8 150.3 L 161.6 150.3 L 171.6 140.3 L 183.6 150.3 L 183.6 154.3 L 44.3 154.3 L 44.3 150.3 L 65.8 150.3 L 65.8 122.2 L 45.45625 122.2 L 44.4 127.4 L 41.0 139.1 L 37.0 149.8 L 32.2 159.3 L 26.7 167.7 L 20.5 174.9 L 13.6 180.6 L 12.3 179.3 L 17.6 172.4 L 22.2 164.8 L 26.3 156.4 L 29.9 147.1 L 32.9 136.8 L 35.3 125.5 L 37.1 113.1 L 38.3 99.8 L 38.9 85.4 L 39.0 70.0 L 39.0 19.0 L 51.0 25.0 L 159.0 25.0 L 165.0 20.0 L 176.0 29.0 L 171.0 33.0 L 171.0 64.0 L 159.0 70.0 L 159.0 60.0 L 51.0 60.0 L 51.0 70.0 L 50.3 85.9 L 49.0 100.8 L 48.90398483276367 101.46250476837159 L 50.4 99.9 L 54.7 95.3 L 58.8 90.9 L 62.7 86.6 L 66.2 82.4 L 69.4 78.2 L 72.4 74.2 L 75.1 70.2 L 76.96992235183716 67.23928966522217 L 76.9 67.2 L 78.0 65.6 L 87.4 73.1 L 88.7 76.4 L 84.85547075271606 76.20114507675171 L 84.2 77.0 L 80.7 80.9 L 77.0 84.8 L 76.58974361419678 85.2 L 158.2 85.2 Z M 77.8 122.2 L 77.8 150.3 L 92.5 150.3 L 92.5 122.2 Z M 104.5 122.2 L 104.5 150.3 L 119.1 150.3 L 119.1 122.2 Z M 131.1 122.2 L 131.1 150.3 L 145.8 150.3 L 145.8 122.2 Z M 64.0 96.4 L 59.1 100.2 L 53.9 104.0 L 48.3 107.6 L 47.98812665939331 107.78192615509033 L 47.0 114.6 L 46.26875 118.2 L 65.8 118.2 L 65.8 94.91304349899292 Z M 77.8 89.2 L 77.8 118.2 L 92.5 118.2 L 92.5 89.2 Z M 104.5 89.2 L 104.5 118.2 L 119.1 118.2 L 119.1 89.2 Z M 131.1 89.2 L 131.1 118.2 L 145.8 118.2 L 145.8 89.2 Z M 51.0 29.0 L 51.0 56.0 L 159.0 56.0 L 159.0 29.0 Z " />
</g>
</svg>
