<svg xmlns="http://www.w3.org/2000/svg" xmlns:xlink="http://www.w3.org/1999/xlink" version="1.1" baseProfile="full" viewBox="0 0 200 200" width="200" height="200">
<g fill="black">
<path d="M 85.0 177.8 L 105.0 177.8 L 106.2 177.7 L 107.1 177.6 L 107.7 177.4 L 108.0 177.2 L 108.2 177.1 L 108.4 176.9 L 108.5 176.5 L 108.7 175.9 L 108.9 175.0 L 109.0 173.8 L 109.0 157.9 L 46.2 157.9 L 46.2 153.9 L 109.0 153.9 L 109.0 142.0 L 118.77419357299804 143.6290322303772 L 119.7 143.1 L 123.1 140.9 L 126.5 138.9 L 129.8 137.0 L 133.0 135.1 L 135.5833333015442 133.6 L 70.7 133.6 L 70.7 129.6 L 142.3611110687256 129.6 L 145.1 127.9 L 147.9 126.2 L 148.09471368789673 126.60440530776978 L 150.5 124.6 L 161.5 133.6 L 156.5 136.6 L 144.5 141.6 L 144.5 139.8470588684082 L 143.1 140.3 L 139.6 141.4 L 132.4 143.4 L 128.6 144.3 L 124.8 145.1 L 123.14615383148194 145.4307692527771 L 124.0 146.0 L 121.0 147.8 L 121.0 153.9 L 162.5 153.9 L 172.5 143.9 L 184.5 153.9 L 184.5 157.9 L 121.0 157.9 L 121.0 173.8 L 120.8 176.4 L 120.4 178.9 L 119.6 181.3 L 118.3 183.5 L 116.7 185.5 L 114.7 187.2 L 112.4 188.4 L 110.0 189.2 L 107.5 189.7 L 105.0 189.8 L 105.0 183.8 L 85.0 180.8 Z M 51.0 25.0 L 159.0 25.0 L 165.0 20.0 L 176.0 29.0 L 171.0 33.0 L 171.0 58.0 L 159.0 64.0 L 159.0 56.0 L 51.0 56.0 L 51.0 70.0 L 50.3 85.9 L 49.0 100.8 L 47.0 114.6 L 44.4 127.4 L 41.0 139.1 L 37.0 149.8 L 32.2 159.3 L 26.7 167.7 L 20.5 174.9 L 13.6 180.6 L 12.3 179.3 L 17.6 172.4 L 22.2 164.8 L 26.3 156.4 L 29.9 147.1 L 32.9 136.8 L 35.3 125.5 L 37.1 113.1 L 38.3 99.8 L 38.9 85.4 L 39.0 70.0 L 39.0 19.0 Z M 152.0 121.0 L 149.9 121.9 L 147.8 122.7 L 145.6 123.4 L 141.2 124.4 L 138.9 124.7 L 136.6 124.9 L 134.3 124.9 L 134.3 118.9 L 114.3 115.9 L 114.3 112.9 L 136.0 112.9 L 139.2 112.5 L 140.8 112.2 L 142.3 111.8 L 143.9 111.4 L 145.4 110.8 L 146.8 110.2 L 148.3 109.4 L 149.7 108.6 L 150.1 108.3 L 150.8 107.4 L 151.7 105.7 L 152.6 103.4 L 153.5 100.3 L 154.4 96.6 L 155.2 92.3 L 155.9 87.3 L 156.5 81.8 L 156.7451612472534 78.0 L 142.1546875 78.0 L 139.3 84.3 L 135.7 90.3 L 131.5 95.8 L 126.5 100.9 L 121.0 105.6 L 114.8 109.8 L 108.0 113.5 L 100.6 116.8 L 92.5 119.6 L 83.9 121.8 L 83.3 120.1 L 91.1 116.1 L 98.2 112.0 L 104.7 107.9 L 110.4 103.6 L 115.5 99.1 L 119.9 94.5 L 123.5 89.7 L 126.6 84.7 L 129.0 79.5 L 129.47142858505248 78.0 L 115.3848484992981 78.0 L 114.4 79.3 L 110.9 83.7 L 106.9 87.9 L 102.5 91.9 L 97.6 95.6 L 92.3 99.1 L 86.5 102.3 L 80.3 105.3 L 73.6 108.0 L 66.5 110.4 L 58.9 112.4 L 58.2 110.7 L 65.0 106.9 L 71.3 103.2 L 77.2 99.6 L 82.5 95.9 L 87.4 92.2 L 91.8 88.4 L 95.6 84.6 L 99.0 80.7 L 100.9384614944458 78.0 L 86.4 78.0 L 82.9 80.8 L 78.5 83.8 L 73.8 86.6 L 68.8 89.3 L 63.5 91.8 L 57.8 94.0 L 51.8 95.9 L 51.0 94.3 L 56.1 90.7 L 60.8 87.2 L 65.3 83.8 L 69.5 80.4 L 73.3 77.1 L 76.8 73.7 L 80.0 70.4 L 82.8 67.0 L 85.2 63.7 L 86.8481481552124 61.227777767181394 L 86.8 61.2 L 87.9 59.7 L 97.2 67.2 L 98.5 70.6 L 94.57797355651856 70.32951545715332 L 94.1 70.9 L 91.0 74.0 L 156.9 74.0 L 162.9 69.0 L 173.9 78.0 L 168.9 81.0 L 168.534437084198 81.15231790542603 L 168.4 82.9 L 167.8 88.8 L 167.0 94.2 L 166.2 99.0 L 165.1 103.4 L 163.9 107.3 L 162.5 110.8 L 160.8 113.9 L 158.7 116.6 L 156.0 118.8 L 154.0 120.0 Z M 51.0 29.0 L 51.0 52.0 L 159.0 52.0 L 159.0 29.0 Z " />
</g>
</svg>
