<svg xmlns="http://www.w3.org/2000/svg" xmlns:xlink="http://www.w3.org/1999/xlink" version="1.1" baseProfile="full" viewBox="0 0 200 200" width="200" height="200">
<g fill="black">
<path d="M 164.7 173.7 L 157.9 166.7 L 152.131090259552 159.1042688369751 L 146.0 166.1 L 137.7 173.9 L 128.6 180.3 L 118.9 185.3 L 108.6 188.8 L 108.0 187.1 L 117.1 181.9 L 125.5 175.9 L 133.3 169.0 L 140.4 161.1 L 146.8 152.2 L 147.2915259361267 151.37523622512816 L 146.5 150.1 L 141.8 140.6 L 137.9 130.2 L 134.6 119.0 L 132.1 107.0 L 130.61162786483766 95.0 L 123.8 95.0 L 123.8 91.0 L 144.5 91.0 L 144.5 14.0 L 156.5 16.0 L 159.5 18.0 L 156.5 19.8 L 156.5 50.0 L 170.71818180084227 50.0 L 178.9 41.0 L 188.9 50.0 L 188.9 54.0 L 156.5 54.0 L 156.5 91.0 L 169.9 91.0 L 175.9 86.0 L 186.9 95.0 L 181.9 98.0 L 180.49163494110107 98.58681879043579 L 177.5 109.2 L 172.6 122.9 L 167.1 135.5 L 160.8 146.9 L 158.35887508392335 150.4919409751892 L 160.0 152.7 L 166.0 159.1 L 172.4 164.6 L 179.1 169.3 L 186.3 173.1 L 191.6 175.8 L 180.3 184.8 L 172.2 179.7 Z M 33.5 26.0 L 100.0 26.0 L 106.0 21.0 L 117.0 30.0 L 112.0 34.0 L 112.0 61.0 L 100.0 67.0 L 100.0 57.0 L 33.5 57.0 L 33.5 117.0 L 33.0 125.9 L 32.2 134.5 L 31.0 142.7 L 29.4 150.4 L 27.5 157.6 L 25.1 164.4 L 22.4 170.8 L 19.3 176.6 L 15.7 181.8 L 11.6 186.4 L 10.3 185.5 L 12.7 180.1 L 14.9 174.4 L 16.8 168.6 L 18.5 162.3 L 19.9 155.8 L 21.0 148.8 L 21.9 141.5 L 22.4 133.7 L 22.6 125.5 L 22.5 117.0 L 22.5 20.5 Z M 105.0 174.7 L 103.3 172.7 L 101.3 170.6 L 99.2 168.6 L 96.8 166.6 L 94.2 164.5 L 91.4 162.5 L 88.4 160.3 L 85.1 158.5 L 85.7 156.8 L 89.4 157.8 L 93.2 158.6 L 96.7 159.6 L 100.1 160.8 L 103.3 162.1 L 106.4 163.6 L 109.3 165.3 L 112.0 167.1 L 114.6 169.0 L 117.1 171.1 L 118.4 175.5 L 116.4 179.6 L 112.0 180.9 L 107.9 178.9 L 106.6 176.8 Z M 71.3 163.2 L 71.7 166.8 L 67.87446565628052 165.54800691604615 L 64.9 167.5 L 61.5 169.4 L 58.0 171.3 L 54.4 173.2 L 50.6 174.9 L 46.7 176.5 L 42.6 178.0 L 38.4 179.2 L 34.1 180.6 L 33.4 178.9 L 37.0 176.4 L 40.5 173.8 L 43.8 171.3 L 47.0 168.8 L 50.1 166.4 L 53.1 163.9 L 55.9 161.5 L 58.5 159.1 L 62.75058822631836 154.84941177368165 L 62.7 154.8 L 63.6 154.0 Z M 31.0 146.2 L 42.0 146.2 L 42.0 78.9 L 52.0 83.9 L 63.1 83.9 L 63.1 62.6 L 73.1 64.6 L 75.6 66.6 L 73.1 68.26666669845581 L 73.1 83.9 L 83.4 83.9 L 83.4 62.6 L 93.4 64.6 L 95.9 66.6 L 93.4 68.26666669845581 L 93.4 83.9 L 103.4 83.9 L 108.9 78.9 L 119.4 87.9 L 114.4 91.4 L 114.4 146.2 L 118.9 140.2 L 124.9 146.2 L 124.9 150.2 L 31.0 150.2 Z M 52.0 117.6 L 52.0 146.2 L 63.1 146.2 L 63.1 117.6 Z M 73.1 117.6 L 73.1 146.2 L 83.4 146.2 L 83.4 117.6 Z M 93.4 117.6 L 93.4 146.2 L 103.4 146.2 L 103.4 117.6 Z M 136.2 106.0 L 140.2 117.2 L 144.6 127.6 L 149.3 136.9 L 152.6719715118408 142.34703092575074 L 152.7 142.3 L 157.9 131.3 L 162.6 119.2 L 166.6 106.0 L 169.1972222328186 95.0 L 132.68360652923585 95.0 Z M 52.0 87.9 L 52.0 113.6 L 63.1 113.6 L 63.1 87.9 Z M 73.1 87.9 L 73.1 113.6 L 83.4 113.6 L 83.4 87.9 Z M 93.4 87.9 L 93.4 113.6 L 103.4 113.6 L 103.4 87.9 Z M 33.5 30.0 L 33.5 53.0 L 100.0 53.0 L 100.0 30.0 Z " />
</g>
</svg>
