<svg xmlns="http://www.w3.org/2000/svg" xmlns:xlink="http://www.w3.org/1999/xlink" version="1.1" baseProfile="full" viewBox="0 0 200 200" width="200" height="200">
<g fill="black">
<path d="M 157.3 176.6 L 149.9 172.3 L 143.2 167.8 L 137.1 162.8 L 131.7 157.6 L 127.1 151.9 L 123.2 146.0 L 120.2 139.7 L 118.80874242782593 135.17841291427612 L 115.4 136.9 L 111.4 138.9 L 106.9 140.8 L 104.53934421539307 141.63317260742187 L 106.2401273727417 142.55859870910643 L 107.1 142.1 L 107.74173030853271 143.43282442092897 L 112.6 146.3 L 117.7 150.0 L 122.0 153.7 L 125.4 157.5 L 128.0 161.5 L 129.7 165.9 L 130.1 170.5 L 129.2 175.1 L 127.1 179.4 L 125.5 181.3 L 123.8 183.0 L 121.9 184.6 L 119.9 185.9 L 117.9 187.1 L 115.7 188.0 L 113.4 188.8 L 111.0 189.3 L 108.6 189.6 L 106.2 189.7 L 106.2 183.7 L 86.2 180.7 L 86.2 177.7 L 106.2 177.7 L 107.7 177.6 L 109.0 177.5 L 110.3 177.2 L 111.5 176.8 L 112.6 176.3 L 113.6 175.7 L 114.7 175.0 L 115.6 174.2 L 116.6 173.2 L 117.6 172.1 L 118.8 170.6 L 119.6 169.2 L 119.9 167.4 L 119.7 165.0 L 119.52474317550659 164.54725322723388 L 117.1 165.7 L 110.6 168.4 L 103.7 170.9 L 96.5 173.2 L 88.9 175.2 L 80.9 177.1 L 72.5 178.7 L 63.8 180.1 L 54.6 181.2 L 45.1 181.8 L 44.8 180.0 L 53.9 177.4 L 62.7 174.9 L 71.0 172.4 L 78.9 169.8 L 86.4 167.1 L 93.4 164.4 L 100.1 161.5 L 106.2 158.6 L 112.0 155.5 L 113.53447942733764 154.57352180480956 L 113.4 154.4 L 112.10689659118653 152.97427053451537 L 107.1 154.9 L 101.6 156.9 L 95.7 158.7 L 89.5 160.4 L 82.9 162.0 L 76.1 163.4 L 68.9 164.7 L 61.3 165.8 L 53.4 166.6 L 45.1 167.2 L 44.8 165.4 L 52.6 162.9 L 60.2 160.5 L 67.3 158.3 L 74.1 156.1 L 80.6 153.8 L 86.6 151.6 L 92.3 149.2 L 97.6 146.9 L 102.6 144.5 L 103.15799503326416 144.20240268707275 L 101.37763328552246 142.72379713058473 L 96.0 144.3 L 89.7 145.9 L 82.7 147.5 L 75.1 149.0 L 66.9 150.3 L 57.9 151.5 L 48.3 152.5 L 48.0 150.7 L 57.1 147.8 L 65.7 145.1 L 73.5 142.6 L 80.7 140.2 L 87.2 137.8 L 93.0 135.5 L 98.1 133.2 L 98.28461542129517 133.1 L 61.2 133.1 L 49.2 139.1 L 49.2 100.7 L 61.2 106.7 L 87.7 106.7 L 93.7 101.7 L 104.7 110.7 L 99.7 114.7 L 99.7 118.2 L 126.2 118.2 L 126.2 100.7 L 138.2 106.7 L 164.7 106.7 L 170.7 101.7 L 181.7 110.7 L 176.7 114.7 L 176.7 133.1 L 165.93271379470826 138.48364315032958 L 165.9956521987915 138.5956521987915 L 172.1 144.7 L 172.3 148.1 L 168.45090608596803 146.53426685333253 L 167.5 146.9 L 164.7 147.9 L 161.7 148.9 L 158.5 149.9 L 155.2 150.9 L 151.7 151.9 L 148.1 152.9 L 144.2 153.8 L 141.33197116851807 154.35961542129516 L 142.9 155.5 L 148.8 159.2 L 155.3 162.7 L 162.4 165.9 L 170.0 168.8 L 178.2 171.5 L 185.6 173.9 L 174.0 184.0 L 165.4 180.5 Z M 122.92399997711182 133.1 L 121.04465293884277 134.04916515350342 L 123.8 137.7 L 128.0 142.6 L 132.5 147.2 L 137.4 151.5 L 138.44654207229615 152.26112146377562 L 139.1 151.9 L 142.5 149.7 L 145.9 147.6 L 149.0 145.7 L 152.0 143.8 L 154.9 142.0 L 157.5 140.3 L 159.9 138.6 L 162.2 137.0 L 163.39689121246337 136.0424870491028 L 163.3 135.9 L 163.4222222328186 136.0222222328186 L 164.2 135.4 L 164.7 136.289830493927 L 164.7 133.1 Z M 138.2 110.7 L 138.2 122.2 L 126.2 128.2 L 126.2 122.2 L 99.7 122.2 L 87.7 128.2 L 87.7 110.7 L 61.2 110.7 L 61.2 129.1 L 164.7 129.1 L 164.7 110.7 Z M 83.8 91.8 L 103.8 91.8 L 105.0 91.7 L 105.9 91.5 L 106.8 91.2 L 107.2 90.8 L 107.5 89.9 L 107.7 89.0 L 107.8 87.8 L 107.8 56.5 L 119.8 58.5 L 122.8 60.5 L 119.8 62.3 L 119.8 75.15454549789429 L 122.6 75.3 L 130.0 76.0 L 135.57962961196898 76.64691362380981 L 136.1 76.3 L 139.1 73.9 L 142.1 71.6 L 147.7 67.4 L 150.3 65.3 L 152.9 63.3 L 155.3 61.3 L 157.6 59.3 L 158.98557996749878 58.10336275100708 L 158.9 58.0 L 158.98976984024048 58.09974422454834 L 159.8 57.4 L 161.0 59.1470588684082 L 161.0 56.0 L 40.0 56.0 L 40.0 106.0 L 39.4 117.3 L 38.3 128.0 L 36.8 138.0 L 34.7 147.4 L 32.0 156.1 L 28.9 164.2 L 25.1 171.5 L 20.9 178.1 L 16.0 183.8 L 10.6 188.6 L 9.3 187.3 L 13.0 181.5 L 16.3 175.3 L 19.2 168.6 L 21.8 161.5 L 23.9 153.8 L 25.6 145.4 L 26.8 136.5 L 27.6 127.0 L 28.0 116.8 L 28.0 13.0 L 40.0 19.0 L 161.0 19.0 L 167.0 14.0 L 178.0 23.0 L 173.0 27.0 L 173.0 56.0 L 162.45864658355714 61.27067670822144 L 164.44075832366943 64.15639810562134 L 167.0 67.0 L 167.1 70.5 L 163.36591711044312 68.90955724716187 L 160.9 70.1 L 157.9 71.5 L 151.5 74.1 L 148.2 75.4 L 144.7 76.6 L 141.82631578445435 77.55789470672607 L 143.4 77.8 L 149.5 78.9 L 155.2 80.1 L 160.5 81.4 L 165.5 82.8 L 170.1 84.2 L 174.3 85.8 L 177.4 89.2 L 177.2 93.7 L 173.8 96.8 L 169.2 96.6 L 165.7 94.7 L 161.8 92.9 L 157.4 91.0 L 152.5 89.0 L 147.3 87.1 L 141.5 85.2 L 135.4 83.2 L 128.9 81.2 L 121.9 79.0 L 119.8 78.33835620880127 L 119.8 87.8 L 119.6 90.3 L 119.2 92.8 L 118.4 95.2 L 117.2 97.5 L 115.5 99.5 L 113.5 101.1 L 111.2 102.4 L 108.8 103.2 L 106.3 103.6 L 103.8 103.8 L 103.8 97.8 L 83.8 94.8 Z M 48.0 85.7 L 53.8 84.9 L 59.6 84.0 L 71.4 82.2 L 77.2 81.4 L 83.1 80.5 L 89.1 79.6 L 95.0 78.8 L 101.0 78.2 L 107.1 77.7 L 107.5 79.5 L 101.9 81.9 L 96.2 84.1 L 84.8 87.9 L 79.1 89.6 L 73.3 91.3 L 67.6 92.9 L 61.8 94.5 L 56.1 96.0 L 54.32117719650269 96.46004037857055 L 52.8 100.1 L 50.3 97.5 L 46.0 86.1 Z M 78.4 75.2 L 76.6 73.8 L 74.5 72.4 L 72.2 70.9 L 69.5 69.4 L 66.6 67.9 L 60.0 64.6 L 56.2 63.2 L 56.6 61.5 L 60.6 62.0 L 64.5 62.3 L 68.2 62.7 L 71.6 63.2 L 74.8 63.8 L 77.9 64.5 L 80.7 65.2 L 83.3 66.0 L 85.8 67.0 L 88.1 68.0 L 90.5 71.9 L 89.5 76.4 L 85.5 78.8 L 81.1 77.8 L 79.9 76.5 Z M 40.0 23.0 L 40.0 52.0 L 161.0 52.0 L 161.0 23.0 Z " />
</g>
</svg>
