<svg xmlns="http://www.w3.org/2000/svg" xmlns:xlink="http://www.w3.org/1999/xlink" version="1.1" baseProfile="full" viewBox="0 0 200 200" width="200" height="200">
<g fill="black">
<path d="M 101.3 138.0 L 100.3 145.2 L 98.6 151.9 L 96.1 158.3 L 92.9 164.1 L 88.9 169.5 L 84.4 174.3 L 79.1 178.6 L 73.3 182.4 L 66.8 185.5 L 59.6 188.0 L 58.9 186.3 L 64.9 182.2 L 70.2 178.0 L 74.8 173.7 L 78.8 169.2 L 82.1 164.5 L 84.7 159.6 L 86.8 154.5 L 88.2 149.1 L 89.1 143.5 L 89.4 137.5 L 89.4 119.0 L 54.4 119.0 L 54.4 115.0 L 163.6 115.0 L 173.6 105.0 L 185.6 115.0 L 185.6 119.0 L 148.9 119.0 L 148.9 182.2 L 136.9 188.2 L 136.9 119.0 L 101.4 119.0 L 101.4 137.8 L 101.26757497787476 137.9986375808716 Z M 45.0 23.0 L 161.0 23.0 L 167.0 18.0 L 178.0 27.0 L 173.0 31.0 L 173.0 60.0 L 161.0 66.0 L 161.0 56.0 L 45.0 56.0 L 45.0 87.0 L 44.4 99.7 L 43.3 111.8 L 41.7 123.3 L 39.5 134.2 L 36.8 144.5 L 33.6 154.1 L 29.7 163.1 L 25.4 171.4 L 20.3 178.8 L 14.7 185.5 L 13.2 184.4 L 17.1 176.9 L 20.6 169.0 L 23.7 160.6 L 26.3 151.8 L 28.6 142.4 L 30.4 132.5 L 31.7 122.0 L 32.6 110.9 L 33.0 99.2 L 33.0 17.0 Z M 165.9 85.1 L 165.9 89.1 L 74.0 89.1 L 74.0 85.1 L 143.9 85.1 L 153.9 75.1 Z M 45.0 27.0 L 45.0 52.0 L 161.0 52.0 L 161.0 27.0 Z " />
</g>
</svg>
