<svg xmlns="http://www.w3.org/2000/svg" xmlns:xlink="http://www.w3.org/1999/xlink" version="1.1" baseProfile="full" viewBox="0 0 200 200" width="200" height="200">
<g fill="black">
<path d="M 94.0 106.9 L 97.0 108.9 L 94.0 110.7 L 94.0 141.3 L 93.0 149.1 L 90.6 156.4 L 86.9 162.9 L 81.9 168.7 L 75.8 173.8 L 68.6 178.0 L 60.3 181.6 L 51.0 184.4 L 40.6 186.5 L 29.1 187.9 L 28.8 186.1 L 39.7 182.9 L 49.4 179.3 L 57.7 175.5 L 64.8 171.4 L 70.6 167.0 L 75.1 162.4 L 78.4 157.6 L 80.6 152.5 L 81.54827585220337 148.23275861740112 L 75.2 150.5 L 68.2 152.9 L 61.2 155.1 L 47.2 159.3 L 33.2 163.3 L 26.2 165.2 L 23.16589298248291 165.98019895553588 L 21.8 169.5 L 19.2 167.0 L 14.7 155.8 L 16.6 155.3 L 23.7 154.1 L 31.0 152.76338024139403 L 31.0 97.0 L 38.70982656478882 98.28497114181519 L 42.7 97.0 L 48.5 95.3 L 54.4 93.6 L 60.4 91.9 L 66.3 90.2 L 72.3 88.5 L 78.3 86.7 L 90.3 82.9 L 94.0 81.66666669845581 L 94.0 66.0 L 43.0 66.0 L 43.0 78.0 L 31.0 84.0 L 31.0 27.0 L 43.0 29.0 L 46.0 31.0 L 43.0 32.8 L 43.0 62.0 L 94.0 62.0 L 94.0 14.0 L 106.0 16.0 L 109.0 18.0 L 106.0 19.8 L 106.0 62.0 L 156.0 62.0 L 156.0 27.0 L 168.0 29.0 L 171.0 31.0 L 168.0 32.8 L 168.0 72.0 L 156.0 78.0 L 156.0 66.0 L 106.0 66.0 L 106.0 84.0 L 101.45454549789429 86.27272729873657 L 106.5 90.5 L 106.8 93.5 L 102.59169025421143 91.57620124816894 L 99.6 92.4 L 93.3 93.9 L 87.0 95.2 L 80.6 96.4 L 74.4 97.5 L 68.1 98.5 L 61.9 99.4 L 55.6 100.0 L 49.4 100.5 L 45.535114479064944 100.69007635116577 L 46.0 101.0 L 43.0 102.8 L 43.0 150.63802814483643 L 45.0 150.3 L 59.4 147.7 L 66.7 146.5 L 73.9 145.3 L 81.3 144.3 L 81.89906406402588 144.22714080810547 L 82.0 141.3 L 82.0 104.9 Z M 148.9 158.5 L 160.9 158.5 L 162.1 158.4 L 163.0 158.3 L 163.6 158.1 L 163.9 157.9 L 164.1 157.7 L 164.3 157.6 L 164.5 157.2 L 164.6 156.6 L 164.8 155.7 L 164.9 154.5 L 164.9 97.4 L 125.0 97.4 L 125.0 183.3 L 113.0 189.3 L 113.0 87.4 L 125.0 93.4 L 164.9 93.4 L 170.9 88.4 L 181.9 97.4 L 176.9 101.4 L 176.9 154.5 L 176.7 157.0 L 176.3 159.5 L 175.5 162.0 L 174.3 164.2 L 172.6 166.2 L 170.6 167.9 L 168.3 169.1 L 165.9 169.9 L 163.4 170.3 L 160.9 170.5 L 160.9 164.5 L 148.9 161.5 Z " />
</g>
</svg>
