<svg xmlns="http://www.w3.org/2000/svg" xmlns:xlink="http://www.w3.org/1999/xlink" version="1.1" baseProfile="full" viewBox="0 0 200 200" width="200" height="200">
<g fill="black">
<path d="M 42.0 41.0 L 99.0 41.0 L 99.0 12.0 L 111.0 14.0 L 114.0 16.0 L 111.0 17.8 L 111.0 41.0 L 164.0 41.0 L 174.0 31.0 L 186.0 41.0 L 186.0 45.0 L 42.0 45.0 L 42.0 104.0 L 41.4 115.3 L 40.2 126.1 L 38.6 136.3 L 36.3 145.9 L 33.5 154.9 L 30.1 163.3 L 26.2 171.0 L 21.6 178.0 L 16.4 184.2 L 10.6 189.6 L 9.3 188.3 L 13.4 181.9 L 17.0 175.2 L 20.3 168.1 L 23.1 160.5 L 25.4 152.5 L 27.3 143.9 L 28.7 134.7 L 29.6 125.0 L 30.0 114.8 L 30.0 35.0 Z M 65.3 182.4 L 53.3 188.4 L 53.3 103.2 L 65.3 109.2 L 164.6 109.2 L 170.6 104.2 L 181.6 113.2 L 176.6 117.2 L 176.6 176.4 L 164.6 182.4 L 164.6 170.4 L 65.3 170.4 Z M 65.3 141.4 L 65.3 166.4 L 109.0 166.4 L 109.0 141.4 Z M 121.0 141.4 L 121.0 166.4 L 164.6 166.4 L 164.6 141.4 Z M 65.3 113.2 L 65.3 137.4 L 109.0 137.4 L 109.0 113.2 Z M 121.0 113.2 L 121.0 137.4 L 164.6 137.4 L 164.6 113.2 Z M 120.3 56.0 L 123.3 58.0 L 120.3 59.8 L 120.3 81.2 L 158.4 81.2 L 158.4 60.2 L 170.4 62.2 L 173.4 64.2 L 170.4 66.0 L 170.4 87.2 L 158.4 93.2 L 158.4 85.2 L 120.3 85.2 L 120.3 100.0 L 108.3 106.0 L 108.3 85.2 L 71.1 85.2 L 71.1 88.2 L 59.1 94.2 L 59.1 60.2 L 71.1 62.2 L 74.1 64.2 L 71.1 66.0 L 71.1 81.2 L 108.3 81.2 L 108.3 54.0 Z " />
</g>
</svg>
