<svg xmlns="http://www.w3.org/2000/svg" xmlns:xlink="http://www.w3.org/1999/xlink" version="1.1" baseProfile="full" viewBox="0 0 200 200" width="200" height="200">
<g fill="black">
<path d="M 96.5 135.1 L 96.5 139.1 L 64.0 139.1 L 64.0 156.1 L 82.8 156.1 L 92.8 146.1 L 104.8 156.1 L 104.8 160.1 L 64.0 160.1 L 64.0 185.2 L 52.0 191.2 L 52.0 160.1 L 11.1 160.1 L 11.1 156.1 L 52.0 156.1 L 52.0 139.1 L 19.4 139.1 L 19.4 135.1 L 74.5 135.1 L 84.5 125.1 Z M 184.4 148.0 L 186.4 148.0 L 184.4 173.0 L 188.0 175.4 L 190.4 179.0 L 188.0 182.6 L 184.4 185.0 L 152.6 185.0 L 150.0 184.8 L 147.5 184.4 L 145.1 183.6 L 142.8 182.3 L 140.8 180.7 L 139.2 178.7 L 137.9 176.4 L 137.1 174.0 L 136.7 171.5 L 136.6 169.0 L 136.6 122.0 L 118.5 122.0 L 118.5 134.0 L 107.5 139.5 L 107.5 67.0 L 118.5 69.0 L 121.3 71.0 L 118.5 72.75 L 118.5 118.0 L 136.6 118.0 L 136.6 51.0 L 106.5 51.0 L 106.5 47.0 L 136.6 47.0 L 136.6 16.0 L 148.6 18.0 L 151.6 20.0 L 148.6 21.8 L 148.6 47.0 L 159.9 47.0 L 169.9 37.0 L 181.9 47.0 L 181.9 51.0 L 148.6 51.0 L 148.6 118.0 L 166.9 118.0 L 166.9 67.0 L 178.9 69.0 L 181.9 71.0 L 178.9 72.8 L 178.9 128.0 L 166.9 134.0 L 166.9 122.0 L 148.6 122.0 L 148.6 170.2 L 148.8 171.1 L 149.1 172.0 L 149.5 172.4 L 150.4 172.7 L 151.3 172.9 L 152.6 173.0 L 178.4 173.0 Z M 90.4 118.4 L 91.5 121.8 L 87.13992538452149 121.1880597114563 L 86.5 121.7 L 84.5 123.4 L 82.4 125.0 L 80.2 126.7 L 78.0 128.2 L 75.7 129.8 L 73.3 131.3 L 70.7 132.7 L 68.4 134.4 L 67.2 133.1 L 69.0 130.9 L 72.0 126.1 L 73.4 123.8 L 76.2 119.4 L 77.5 117.2 L 80.57561979293823 111.81766529083252 L 80.4 111.7 L 81.5 110.4 Z M 38.5 128.3 L 37.9 126.9 L 37.0 125.4 L 35.9 123.8 L 34.6 122.1 L 33.0 120.4 L 31.1 118.7 L 29.1 116.9 L 26.6 115.5 L 27.3 113.9 L 30.1 114.8 L 32.9 115.4 L 35.5 116.1 L 38.0 117.0 L 40.4 118.0 L 42.6 119.2 L 44.6 120.6 L 46.5 122.1 L 48.3 123.8 L 49.8 125.6 L 50.1 130.2 L 47.1 133.7 L 42.5 133.9 L 39.1 130.9 L 38.9 129.7 Z M 85.5 110.2 L 83.7 107.9 L 81.7 105.6 L 79.5 103.4 L 77.1 101.1 L 74.6 98.9 L 71.8 96.7 L 68.8 94.4 L 65.5 92.4 L 66.2 90.7 L 70.0 91.8 L 73.8 92.8 L 77.4 94.0 L 80.8 95.4 L 84.1 97.1 L 87.2 98.9 L 90.2 100.8 L 93.0 102.9 L 95.6 105.2 L 98.1 107.7 L 99.2 112.2 L 96.9 116.1 L 92.4 117.2 L 88.5 114.9 L 87.1 112.5 Z M 34.4 40.9 L 81.5 40.9 L 87.5 35.9 L 98.5 44.9 L 93.5 48.9 L 93.5 60.1 L 81.5 66.1 L 81.5 60.1 L 34.4 60.1 L 23.7 65.45 L 28.0 67.6 L 88.4 67.6 L 93.9 62.6 L 104.4 71.6 L 99.4 75.1 L 99.4 89.0 L 88.4 94.5 L 88.4 89.0 L 44.65227270126343 89.0 L 52.2 97.1 L 52.9 100.6 L 48.928688526153564 99.62459020614624 L 45.8 101.9 L 42.4 104.2 L 38.9 106.4 L 35.3 108.5 L 31.5 110.4 L 27.6 112.2 L 23.5 113.9 L 19.2 115.4 L 14.9 116.8 L 14.0 115.2 L 17.7 112.5 L 21.1 109.8 L 24.4 107.1 L 27.6 104.5 L 30.7 101.8 L 33.6 99.2 L 36.4 96.6 L 39.0 93.9 L 41.4 91.2 L 43.05989303588867 89.25142993927003 L 43.0 89.2 L 43.2222222328186 89.0 L 28.0 89.0 L 16.0 95.0 L 16.0 61.6 L 22.4 64.8 L 22.4 34.9 Z M 28.0 71.6 L 28.0 85.0 L 88.4 85.0 L 88.4 71.6 Z M 34.4 44.9 L 34.4 56.1 L 81.5 56.1 L 81.5 44.9 Z M 8.7 27.8 L 52.0 27.8 L 52.0 12.2 L 64.0 14.2 L 67.0 16.2 L 64.0 18.0 L 64.0 27.8 L 89.11818180084228 27.8 L 97.3 18.8 L 107.3 27.8 L 107.3 31.8 L 8.7 31.8 Z " />
</g>
</svg>
