<svg xmlns="http://www.w3.org/2000/svg" xmlns:xlink="http://www.w3.org/1999/xlink" version="1.1" baseProfile="full" viewBox="0 0 200 200" width="200" height="200">
<g fill="black">
<path d="M 135.2 183.5 L 116.8 182.0 L 100.6 179.6 L 86.4 176.3 L 74.3 172.0 L 64.4 166.8 L 56.8 160.5 L 51.7 153.3 L 51.33089637756348 152.03220911026 L 49.3 155.6 L 44.9 161.7 L 39.7 167.3 L 33.9 172.6 L 27.5 177.4 L 20.3 181.6 L 12.4 185.3 L 11.5 183.8 L 18.2 178.5 L 24.1 173.1 L 29.4 167.8 L 34.1 162.3 L 38.0 156.7 L 41.2 150.9 L 43.9 145.0 L 45.8 138.9 L 47.2 132.6 L 47.86818180084229 126.39545450210571 L 48.1 124.0 L 59.8 127.4 L 62.6 129.7 L 59.026690292358396 131.31810255050658 L 58.3 135.0 L 56.0 142.2 L 53.34804859161377 148.29948816299438 L 55.2 151.1 L 60.7 156.2 L 68.0 160.5 L 77.3 164.2 L 88.7 167.2 L 94.0 168.10296297073364 L 94.0 100.9 L 22.0 100.9 L 22.0 96.9 L 163.9050000190735 96.9 L 164.5 96.2 L 166.0 94.3 L 166.47013816833496 94.84155149459839 L 170.0 91.9 L 181.0 100.9 L 176.0 103.9 L 166.32799997329712 107.93000001907349 L 164.3 109.1 L 161.6 110.7 L 158.7 112.3 L 155.6 114.0 L 152.3 115.6 L 148.9 117.2 L 145.5 119.2 L 144.4 117.7 L 147.3 115.1 L 149.8 112.2 L 152.2 109.6 L 154.6 107.1 L 156.8 104.7 L 158.9 102.4 L 160.26363639831544 100.9 L 106.0 100.9 L 106.0 133.8 L 147.0 133.8 L 157.0 123.8 L 169.0 133.8 L 169.0 137.8 L 106.0 137.8 L 106.0 169.86538457870483 L 117.8 171.0 L 135.6 171.7 L 155.6 171.6 L 177.7 170.7 L 189.0 170.2 L 178.2 183.9 L 155.7 184.1 Z M 107.0 19.0 L 110.0 21.0 L 107.0 22.8 L 107.0 58.6 L 151.6 58.6 L 151.6 26.4 L 163.6 28.4 L 166.6 30.4 L 163.6 32.2 L 163.6 68.6 L 151.6 74.6 L 151.6 62.6 L 107.0 62.6 L 107.0 87.4 L 95.0 93.4 L 95.0 62.6 L 51.4 62.6 L 51.4 74.6 L 39.4 80.6 L 39.4 26.4 L 51.4 28.4 L 54.4 30.4 L 51.4 32.2 L 51.4 58.6 L 95.0 58.6 L 95.0 17.0 Z " />
</g>
</svg>
