<svg xmlns="http://www.w3.org/2000/svg" xmlns:xlink="http://www.w3.org/1999/xlink" version="1.1" baseProfile="full" viewBox="0 0 200 200" width="200" height="200">
<g fill="black">
<path d="M 172.0 176.9 L 168.1 168.1 L 165.2 156.6 L 163.0 142.4 L 161.5 125.3 L 160.5 105.2 L 160.2 82.0 L 160.5 55.9 L 161.23698625564575 29.0 L 96.3 29.0 L 96.3 25.0 L 161.3 25.0 L 167.3 20.0 L 178.3 29.0 L 173.3 32.0 L 173.16557760238646 32.05600929260254 L 172.5 56.1 L 172.2 82.0 L 172.5 104.8 L 173.5 124.5 L 174.9 141.0 L 177.0 154.3 L 179.5 164.3 L 181.1729874610901 168.18372097015381 L 185.6 149.0 L 187.6 149.0 L 185.6744101524353 174.03266792297364 L 189.7 175.8 L 191.6 180.0 L 189.7 184.2 L 185.6 186.0 L 177.5 183.3 Z M 133.93982582092286 41.836104488372804 L 133.6 63.5 L 133.18482141494752 79.0 L 137.61818180084228 79.0 L 145.8 70.0 L 155.8 79.0 L 155.8 83.0 L 133.0776785850525 83.0 L 133.0 85.9 L 132.0 105.3 L 130.5 122.2 L 129.9312925338745 126.0 L 136.7 126.0 L 146.7 116.0 L 158.7 126.0 L 158.7 130.0 L 129.3326530456543 130.0 L 128.3 136.9 L 125.2 149.6 L 121.0 160.6 L 115.6 170.2 L 108.9 178.4 L 100.7 185.6 L 99.5 184.3 L 106.0 176.0 L 111.0 167.4 L 114.9 158.1 L 117.9 147.6 L 119.9 135.5 L 120.44609928131104 130.0 L 96.3 130.0 L 96.3 126.0 L 120.84326238632202 126.0 L 121.3 121.4 L 122.0 104.9 L 122.3 85.7 L 122.28783779144287 83.0 L 99.2 83.0 L 99.2 79.0 L 122.26981983184814 79.0 L 122.2 63.5 L 122.00783805847168 38.999346828460695 L 122.0 39.0 L 122.0 35.6 L 134.0 38.0 L 137.0 40.0 Z M 61.0 19.1 L 64.0 21.1 L 61.0 22.9 L 61.0 101.4 L 80.9 101.4 L 80.9 34.5 L 92.9 36.5 L 95.9 38.5 L 92.9 40.3 L 92.9 109.4 L 80.9 115.4 L 80.9 105.4 L 61.0 105.4 L 61.0 176.9 L 49.0 182.9 L 49.0 105.4 L 29.0 105.4 L 17.0 111.4 L 17.0 34.5 L 29.0 36.5 L 32.0 38.5 L 29.0 40.3 L 29.0 101.4 L 49.0 101.4 L 49.0 17.1 Z " />
</g>
</svg>
