<svg xmlns="http://www.w3.org/2000/svg" xmlns:xlink="http://www.w3.org/1999/xlink" version="1.1" baseProfile="full" viewBox="0 0 200 200" width="200" height="200">
<g fill="black">
<path d="M 46.0 182.0 L 34.0 188.0 L 34.0 132.1 L 46.0 138.1 L 154.0 138.1 L 160.0 133.1 L 171.0 142.1 L 166.0 146.1 L 166.0 179.0 L 154.0 185.0 L 154.0 175.0 L 46.0 175.0 Z M 46.0 158.6 L 46.0 171.0 L 94.0 171.0 L 94.0 158.6 Z M 106.0 158.6 L 106.0 171.0 L 154.0 171.0 L 154.0 158.6 Z M 46.0 142.1 L 46.0 154.6 L 94.0 154.6 L 94.0 142.1 Z M 106.0 142.1 L 106.0 154.6 L 154.0 154.6 L 154.0 142.1 Z M 114.0 121.5 L 134.0 121.5 L 135.2 121.4 L 136.1 121.3 L 136.7 121.1 L 137.0 120.9 L 137.2 120.7 L 137.4 120.6 L 137.5 120.2 L 137.7 119.6 L 137.9 118.7 L 138.0 117.5 L 138.0 106.27152318954468 L 132.4 108.2 L 115.9 113.0 L 98.0 117.4 L 78.7 121.5 L 57.9 125.1 L 35.7 128.2 L 12.1 130.7 L 11.8 128.9 L 35.1 124.4 L 56.9 119.8 L 77.3 115.0 L 96.2 110.1 L 113.5 104.9 L 115.16119403839112 104.32537317276001 L 110.4 104.9 L 98.2 106.0 L 85.6 107.0 L 72.6 108.0 L 59.1 108.8 L 45.2 109.6 L 30.9 110.3 L 20.122287940979003 110.7369342803955 L 18.1 113.9 L 16.1 110.9 L 13.8 98.9 L 44.9 98.9 L 50.0 98.86330938339233 L 50.0 52.8 L 62.0 58.8 L 85.3 58.8 L 85.6 58.6 L 87.2 56.7 L 88.8 55.0 L 91.8 51.8 L 93.1 50.3 L 94.3 48.8 L 95.0 47.90909090042114 L 95.0 35.9 L 51.4 35.9 L 39.4 41.9 L 39.4 17.6 L 51.4 19.6 L 54.4 21.6 L 51.4 23.4 L 51.4 31.9 L 95.0 31.9 L 95.0 13.3 L 107.0 15.3 L 110.0 17.3 L 107.0 19.1 L 107.0 31.9 L 151.6 31.9 L 151.6 17.6 L 163.6 19.6 L 166.6 21.6 L 163.6 23.4 L 163.6 35.9 L 151.6 41.9 L 151.6 35.9 L 107.0 35.9 L 107.0 44.6 L 100.29118776321411 47.95440616607666 L 105.1 53.7 L 105.6 57.3 L 100.83429317474365 55.74031410217285 L 99.8 56.2 L 95.8 57.8 L 93.6 58.5 L 92.775 58.8 L 138.0 58.8 L 144.0 53.8 L 155.0 62.8 L 150.0 66.8 L 150.0 90.79375 L 156.6 87.7 L 168.0 81.6 L 176.91467599868776 75.71815195083619 L 176.9 75.7 L 176.91571798324586 75.71746444702148 L 177.7 75.2 L 181.72843599319458 81.06492891311646 L 185.0 84.7 L 185.2 88.3 L 181.60816326141358 86.79795913696289 L 173.6 91.5 L 161.2 97.5 L 150.0 101.99635038375854 L 150.0 117.5 L 149.8 120.1 L 149.4 122.5 L 148.6 125.0 L 147.3 127.2 L 145.7 129.2 L 143.7 130.9 L 141.4 132.1 L 139.0 132.9 L 136.5 133.4 L 134.0 133.5 L 134.0 127.5 L 114.0 124.5 Z M 62.0 89.5 L 62.0 98.7762963294983 L 72.3 98.7 L 85.3 98.6 L 97.8 98.4 L 110.0 98.3 L 121.7 98.2 L 132.43157892227174 98.2 L 138.0 95.9958333015442 L 138.0 89.5 Z M 62.0 76.4 L 62.0 85.5 L 138.0 85.5 L 138.0 76.4 Z M 62.0 62.8 L 62.0 72.4 L 138.0 72.4 L 138.0 62.8 Z " />
</g>
</svg>
