<svg xmlns="http://www.w3.org/2000/svg" xmlns:xlink="http://www.w3.org/1999/xlink" version="1.1" baseProfile="full" viewBox="0 0 200 200" width="200" height="200">
<g fill="black">
<path d="M 157.7 180.8 L 149.9 178.3 L 142.4 175.3 L 135.3 172.0 L 128.4 168.2 L 121.9 163.9 L 115.8 159.2 L 110.2 154.0 L 105.70508470535279 148.8 L 99.30909090042114 148.8 L 98.4 150.4 L 91.8 158.2 L 83.8 164.9 L 74.5 170.7 L 63.9 175.5 L 51.9 179.3 L 38.7 182.2 L 24.1 184.0 L 23.8 182.2 L 37.8 178.5 L 50.3 174.2 L 61.2 169.5 L 70.7 164.2 L 78.6 158.3 L 85.0 151.8 L 87.17391300201416 148.8 L 18.0 148.8 L 18.0 144.8 L 90.04799995422363 144.8 L 93.6 137.4 L 95.9 129.3 L 96.69101123809814 122.9 L 47.0 122.9 L 47.0 129.9 L 35.0 135.9 L 35.0 76.3 L 47.0 78.3 L 50.0 80.3 L 47.0 82.1 L 47.0 118.9 L 97.0 118.9 L 103.0 113.9 L 114.0 122.9 L 109.0 125.9 L 108.0111587524414 126.3120171546936 L 107.0 131.9 L 103.4 141.6 L 101.58181819915771 144.8 L 165.0 144.8 L 175.0 134.8 L 187.0 144.8 L 187.0 148.8 L 109.63333330154418 148.8 L 112.8 150.7 L 119.2 154.3 L 125.7 157.7 L 132.3 160.7 L 139.0 163.4 L 146.0 165.7 L 153.1 167.7 L 160.4 169.3 L 168.0 170.5 L 175.8 171.3 L 186.0 172.6 L 174.1 184.4 L 165.8 182.8 Z M 107.0 13.8 L 110.0 15.8 L 107.0 17.6 L 107.0 36.5 L 151.6 36.5 L 151.6 17.5 L 163.6 19.5 L 166.6 21.5 L 163.6 23.3 L 163.6 42.5 L 151.6 48.5 L 151.6 40.5 L 107.0 40.5 L 107.0 58.1 L 97.8 62.7 L 148.9 62.7 L 154.9 57.7 L 165.9 66.7 L 160.9 70.7 L 160.9 110.4 L 148.9 116.4 L 148.9 104.4 L 81.0 104.4 L 69.0 110.4 L 69.0 56.7 L 81.0 62.7 L 95.0 62.7 L 95.0 40.5 L 51.4 40.5 L 39.4 46.5 L 39.4 17.5 L 51.4 19.5 L 54.4 21.5 L 51.4 23.3 L 51.4 36.5 L 95.0 36.5 L 95.0 11.8 Z M 81.0 85.0 L 81.0 100.4 L 148.9 100.4 L 148.9 85.0 Z M 81.0 66.7 L 81.0 81.0 L 148.9 81.0 L 148.9 66.7 Z " />
</g>
</svg>
