<svg xmlns="http://www.w3.org/2000/svg" xmlns:xlink="http://www.w3.org/1999/xlink" version="1.1" baseProfile="full" viewBox="0 0 200 200" width="200" height="200">
<g fill="black">
<path d="M 52.0 126.0 L 148.0 126.0 L 154.0 121.0 L 165.0 130.0 L 160.0 134.0 L 160.0 155.0 L 148.0 161.0 L 148.0 155.0 L 106.0 155.0 L 106.0 164.0 L 164.0 164.0 L 174.0 154.0 L 186.0 164.0 L 186.0 168.0 L 106.0 168.0 L 106.0 183.0 L 94.0 189.0 L 94.0 168.0 L 14.0 168.0 L 14.0 164.0 L 94.0 164.0 L 94.0 155.0 L 52.0 155.0 L 40.0 161.0 L 40.0 120.0 Z M 52.0 130.0 L 52.0 151.0 L 148.0 151.0 L 148.0 130.0 Z M 37.0 90.0 L 37.0 116.8 L 25.0 122.8 L 25.0 80.0 L 37.0 86.0 L 163.0 86.0 L 169.0 81.0 L 180.0 90.0 L 175.0 94.0 L 175.0 105.8 L 174.8 108.4 L 174.4 110.9 L 173.6 113.3 L 172.3 115.5 L 170.7 117.6 L 168.7 119.2 L 166.4 120.4 L 164.0 121.2 L 161.5 121.7 L 159.0 121.8 L 159.0 115.8 L 140.8 113.06999998092651 L 140.8 115.8 L 128.8 121.8 L 128.8 115.8 L 71.2 115.8 L 59.2 121.8 L 59.2 91.6 L 71.2 97.6 L 128.8 97.6 L 134.8 92.6 L 145.8 101.6 L 140.8 105.6 L 140.8 109.8 L 159.0 109.8 L 160.2 109.7 L 161.1 109.6 L 161.7 109.4 L 162.0 109.2 L 162.2 109.1 L 162.4 108.9 L 162.5 108.5 L 162.7 108.0 L 162.9 107.0 L 163.0 105.8 L 163.0 90.0 Z M 71.2 101.6 L 71.2 111.8 L 128.8 111.8 L 128.8 101.6 Z M 58.0 62.1 L 142.0 62.1 L 148.0 57.1 L 159.0 66.1 L 154.0 70.1 L 154.0 79.7 L 142.0 85.7 L 142.0 79.7 L 58.0 79.7 L 46.0 85.7 L 46.0 56.1 Z M 58.0 66.1 L 58.0 75.7 L 142.0 75.7 L 142.0 66.1 Z M 16.0 51.8 L 94.0 51.8 L 94.0 38.5 L 95.0 38.66666669845581 L 95.0 30.2 L 51.4 30.2 L 39.4 36.2 L 39.4 15.0 L 51.4 17.0 L 54.4 19.0 L 51.4 20.8 L 51.4 26.2 L 95.0 26.2 L 95.0 11.6 L 107.0 13.6 L 110.0 15.6 L 107.0 17.4 L 107.0 26.2 L 151.6 26.2 L 151.6 15.0 L 163.6 17.0 L 166.6 19.0 L 163.6 20.8 L 163.6 30.2 L 151.6 36.2 L 151.6 30.2 L 107.0 30.2 L 107.0 36.2 L 100.3 39.55 L 106.0 40.5 L 109.0 42.5 L 106.0 44.3 L 106.0 51.8 L 169.7777777671814 51.8 L 176.0 44.8 L 184.0 51.8 L 184.0 55.8 L 16.0 55.8 Z " />
</g>
</svg>
