<svg xmlns="http://www.w3.org/2000/svg" xmlns:xlink="http://www.w3.org/1999/xlink" version="1.1" baseProfile="full" viewBox="0 0 200 200" width="200" height="200">
<g fill="black">
<path d="M 102.5 143.4 L 99.6 141.1 L 96.2 138.7 L 92.3 136.3 L 87.9 133.8 L 83.0 131.2 L 77.7 128.5 L 71.9 125.7 L 68.05038928985596 123.86685209274292 L 62.4 127.3 L 53.8 131.7 L 44.7 135.9 L 34.8 139.8 L 24.3 143.2 L 23.6 141.6 L 33.2 136.3 L 42.2 131.1 L 50.6 126.0 L 58.3 120.8 L 65.4 115.6 L 71.7 110.3 L 77.4 105.0 L 82.4 99.5 L 86.7 94.1 L 89.80393466949462 89.40215291976929 L 89.8 89.4 L 89.9375 89.2 L 90.4 88.5 L 90.41283693313599 88.50860080718994 L 90.9 87.8 L 100.4 95.2 L 101.8 98.5 L 97.86666669845582 98.36666669845582 L 95.6 101.2 L 92.9473684310913 104.0 L 159.0 104.0 L 159.26548671722412 103.77876110076905 L 159.6 103.2 L 159.821125125885 103.31572904586793 L 165.0 99.0 L 176.0 108.0 L 171.0 111.0 L 168.09261741638184 112.21140937805175 L 162.6 120.7 L 153.3 131.5 L 142.5 141.4 L 130.1 150.3 L 116.2 158.2 L 100.8 165.1 L 83.9 171.1 L 65.5 176.1 L 45.5 180.0 L 24.1 182.9 L 23.8 181.1 L 44.8 176.3 L 64.1 170.9 L 81.8 164.9 L 97.8 158.1 L 112.2 150.7 L 124.9 142.6 L 136.0 133.7 L 145.5 124.2 L 153.3 114.1 L 156.82568807601928 108.0 L 89.0 108.0 L 84.2 112.4 L 77.5 117.6 L 71.30762042999268 121.81425828933716 L 73.1 122.1 L 79.5 123.5 L 85.5 125.1 L 90.9 126.8 L 96.0 128.6 L 100.6 130.5 L 104.9 132.5 L 108.7 134.6 L 112.1 136.9 L 115.2 139.3 L 116.8 143.5 L 115.0 147.8 L 110.8 149.4 L 106.6 147.6 L 104.8 145.6 Z M 107.0 17.0 L 110.0 19.0 L 107.0 20.8 L 107.0 51.7 L 151.6 51.7 L 151.6 23.3 L 163.6 25.3 L 166.6 27.3 L 163.6 29.1 L 163.6 59.7 L 151.6 65.7 L 151.6 55.7 L 107.0 55.7 L 107.0 84.0 L 95.0 90.0 L 95.0 55.7 L 51.4 55.7 L 51.4 62.7 L 39.4 68.7 L 39.4 23.3 L 51.4 25.3 L 54.4 27.3 L 51.4 29.1 L 51.4 51.7 L 95.0 51.7 L 95.0 15.0 Z " />
</g>
</svg>
