<svg xmlns="http://www.w3.org/2000/svg" xmlns:xlink="http://www.w3.org/1999/xlink" version="1.1" baseProfile="full" viewBox="0 0 200 200" width="200" height="200">
<g fill="black">
<path d="M 70.0 173.8 L 90.0 173.8 L 91.2 173.7 L 92.1 173.6 L 92.7 173.4 L 93.0 173.2 L 93.2 173.1 L 93.4 172.9 L 93.5 172.5 L 93.7 171.9 L 93.9 171.0 L 94.0 169.8 L 94.0 135.6 L 13.0 135.6 L 13.0 131.6 L 94.0 131.6 L 94.0 111.3 L 105.58893613815307 113.23148937225342 L 105.9 113.0 L 110.1 109.9 L 114.4 107.0 L 118.6 104.2 L 122.7 101.5 L 126.7 98.7 L 130.6 96.1 L 131.7259259223938 95.3 L 44.0 95.3 L 44.0 91.3 L 137.3884614944458 91.3 L 141.8 88.2 L 142.11262140274047 88.70614891052246 L 145.0 86.3 L 156.0 95.3 L 151.0 98.3 L 139.0 103.3 L 139.0 103.03953485488891 L 135.6 104.7 L 131.2 106.8 L 126.7 108.8 L 122.1 110.8 L 117.4 112.8 L 112.6 114.6 L 107.5 116.3 L 107.17901229858398 116.39259262084961 L 106.0 117.1 L 106.0 131.6 L 166.0 131.6 L 176.0 121.6 L 188.0 131.6 L 188.0 135.6 L 106.0 135.6 L 106.0 169.8 L 105.8 172.4 L 105.4 174.9 L 104.6 177.3 L 103.3 179.5 L 101.7 181.5 L 99.7 183.2 L 97.4 184.4 L 95.0 185.2 L 92.5 185.7 L 90.0 185.8 L 90.0 179.8 L 70.0 176.8 Z M 106.0 16.0 L 109.0 18.0 L 106.0 19.8 L 106.0 62.0 L 156.0 62.0 L 156.0 27.0 L 168.0 29.0 L 171.0 31.0 L 168.0 32.8 L 168.0 72.0 L 156.0 78.0 L 156.0 66.0 L 106.0 66.0 L 106.0 84.0 L 94.0 90.0 L 94.0 66.0 L 43.0 66.0 L 43.0 73.0 L 31.0 79.0 L 31.0 27.0 L 43.0 29.0 L 46.0 31.0 L 43.0 32.8 L 43.0 62.0 L 94.0 62.0 L 94.0 14.0 Z " />
</g>
</svg>
