<svg xmlns="http://www.w3.org/2000/svg" xmlns:xlink="http://www.w3.org/1999/xlink" version="1.1" baseProfile="full" viewBox="0 0 200 200" width="200" height="200">
<g fill="black">
<path d="M 160.8 93.5 L 152.0 89.9 L 143.5 86.1 L 135.4 81.9 L 127.6 77.4 L 120.1 72.5 L 113.0 67.3 L 106.3 61.7 L 103.68345861434936 59.08345861434937 L 99.9 62.1 L 92.0 67.7 L 83.7 73.1 L 74.8 78.1 L 65.5 82.8 L 55.7 87.2 L 45.3 91.3 L 36.84782609939575 94.27391300201415 L 46.5 99.1 L 153.5 99.1 L 159.5 94.1 L 170.5 103.1 L 165.5 107.1 L 165.5 139.1 L 153.78965520858765 144.9551724433899 L 156.9 147.5 L 151.9 151.5 L 151.9 183.0 L 139.9 189.0 L 139.9 183.0 L 60.0 183.0 L 48.0 189.0 L 48.0 137.5 L 60.0 143.5 L 139.9 143.5 L 145.9 138.5 L 153.5 144.71818180084227 L 153.5 133.1 L 46.5 133.1 L 46.5 145.1 L 34.5 151.1 L 34.5 95.1 L 23.1 98.4 L 11.2 101.2 L 10.7 99.5 L 21.9 94.8 L 32.6 90.1 L 42.7 85.3 L 52.4 80.4 L 61.5 75.3 L 70.1 70.1 L 78.2 64.7 L 85.7 59.1 L 92.7 53.3 L 95.0 51.17692308425903 L 95.0 41.3 L 51.4 41.3 L 39.4 47.3 L 39.4 16.6 L 51.4 18.6 L 54.4 20.6 L 51.4 22.4 L 51.4 37.3 L 95.0 37.3 L 95.0 11.0 L 107.0 13.0 L 110.0 15.0 L 107.0 16.8 L 107.0 37.3 L 151.6 37.3 L 151.6 16.6 L 163.6 18.6 L 166.6 20.6 L 163.6 22.4 L 163.6 43.3 L 151.6 49.3 L 151.6 41.3 L 107.0 41.3 L 107.0 47.0 L 101.63984670639039 49.680076599121094 L 107.3 56.2 L 107.49926795959473 57.63472957611084 L 108.7 58.3 L 116.2 62.4 L 123.7 66.3 L 131.5 70.0 L 139.4 73.5 L 147.6 76.7 L 155.9 79.6 L 164.6 82.3 L 173.4 84.7 L 182.6 86.8 L 191.1 89.0 L 179.3 99.6 L 169.9 96.7 Z M 60.0 165.3 L 60.0 179.0 L 139.9 179.0 L 139.9 165.3 Z M 60.0 147.5 L 60.0 161.3 L 139.9 161.3 L 139.9 147.5 Z M 46.5 103.1 L 46.5 129.1 L 94.0 129.1 L 94.0 103.1 Z M 106.0 103.1 L 106.0 129.1 L 153.5 129.1 L 153.5 103.1 Z M 142.2 113.4 L 142.7 117.0 L 138.60838708877563 115.61177415847779 L 137.6 116.2 L 135.1 117.6 L 132.6 119.1 L 129.9 120.5 L 127.1 122.0 L 124.2 123.4 L 121.2 124.8 L 118.0 126.2 L 114.9 127.9 L 113.9 126.4 L 116.5 124.1 L 118.8 121.5 L 121.0 119.0 L 123.2 116.7 L 125.3 114.5 L 127.3 112.3 L 129.2 110.2 L 132.8 106.2 L 133.76085500717164 105.0589846611023 L 133.6 104.9 L 134.5 104.2 Z M 69.7 121.8 L 68.6 120.1 L 67.4 118.4 L 65.9 116.6 L 64.2 114.8 L 62.4 113.0 L 60.3 111.1 L 58.1 109.2 L 55.5 107.6 L 56.2 106.0 L 59.1 107.0 L 62.1 107.7 L 65.0 108.5 L 67.7 109.5 L 70.3 110.6 L 72.7 111.9 L 75.0 113.2 L 77.2 114.7 L 79.2 116.4 L 81.1 118.2 L 82.0 122.6 L 79.6 126.5 L 75.1 127.4 L 71.2 125.0 L 70.5 123.4 Z M 138.0 86.4 L 138.0 90.4 L 62.0 90.4 L 62.0 86.4 L 116.0 86.4 L 126.0 76.4 Z " />
</g>
</svg>
