<svg xmlns="http://www.w3.org/2000/svg" xmlns:xlink="http://www.w3.org/1999/xlink" version="1.1" baseProfile="full" viewBox="0 0 200 200" width="200" height="200">
<g fill="black">
<path d="M 143.6 182.9 L 141.5 183.8 L 139.3 184.5 L 137.1 185.1 L 134.9 185.6 L 132.6 186.0 L 130.3 186.2 L 128.0 186.3 L 128.0 180.3 L 108.0 177.3 L 108.0 174.3 L 128.0 174.3 L 131.2 174.1 L 134.2 173.5 L 135.7 173.1 L 137.1 172.6 L 138.5 172.0 L 139.9 171.3 L 141.3 170.5 L 142.6 169.6 L 143.6 168.7 L 144.8 167.0 L 146.0 164.5 L 147.1 161.3 L 148.1 157.2 L 148.9 152.3 L 149.5 146.6 L 149.9 140.3 L 150.0 133.2 L 150.0 127.3 L 91.36324787139893 127.3 L 88.7 135.5 L 83.5 146.2 L 76.8 155.8 L 68.8 164.1 L 59.5 171.3 L 49.0 177.2 L 37.2 181.9 L 24.2 185.2 L 23.7 183.5 L 35.8 178.3 L 46.4 172.5 L 55.7 166.0 L 63.5 158.7 L 70.1 150.6 L 75.3 141.8 L 79.3 132.0 L 82.1 121.4 L 83.6 109.8 L 83.93650789260865 99.2 L 19.0 99.2 L 19.0 95.2 L 163.0 95.2 L 173.0 85.2 L 185.0 95.2 L 185.0 99.2 L 95.85507249832153 99.2 L 95.0 111.0 L 92.59765625 123.3 L 150.0 123.3 L 156.0 118.3 L 167.0 127.3 L 162.0 130.3 L 161.96359958648682 130.3151668548584 L 162.0 133.3 L 161.9 140.8 L 161.5 147.6 L 160.8 153.9 L 159.9 159.5 L 158.7 164.6 L 157.1 169.1 L 155.1 173.1 L 152.7 176.5 L 149.6 179.4 L 147.6 180.7 Z M 107.0 17.4 L 110.0 19.4 L 107.0 21.2 L 107.0 53.0 L 151.6 53.0 L 151.6 23.9 L 163.6 25.9 L 166.6 27.9 L 163.6 29.7 L 163.6 63.0 L 151.6 69.0 L 151.6 57.0 L 107.0 57.0 L 107.0 86.1 L 95.0 92.1 L 95.0 57.0 L 51.4 57.0 L 39.4 63.0 L 39.4 23.9 L 51.4 25.9 L 54.4 27.9 L 51.4 29.7 L 51.4 53.0 L 95.0 53.0 L 95.0 15.4 Z " />
</g>
</svg>
