<svg xmlns="http://www.w3.org/2000/svg" xmlns:xlink="http://www.w3.org/1999/xlink" version="1.1" baseProfile="full" viewBox="0 0 200 200" width="200" height="200">
<g fill="black">
<path d="M 40.0 177.5 L 28.0 183.5 L 28.0 99.9 L 40.0 101.9 L 43.0 103.9 L 40.0 105.7 L 40.0 161.5 L 94.0 161.5 L 94.0 76.5 L 106.0 78.5 L 109.0 80.5 L 106.0 82.3 L 106.0 161.5 L 160.0 161.5 L 160.0 99.9 L 172.0 101.9 L 175.0 103.9 L 172.0 105.7 L 172.0 171.5 L 160.0 177.5 L 160.0 165.5 L 40.0 165.5 Z M 82.0 22.3 L 85.0 24.3 L 82.0 26.1 L 82.0 74.3 L 70.0 80.3 L 70.0 51.3 L 13.0 51.3 L 13.0 47.3 L 70.0 47.3 L 70.0 20.3 Z M 130.0 22.3 L 133.0 24.3 L 130.0 26.1 L 130.0 47.3 L 165.0 47.3 L 175.0 37.3 L 187.0 47.3 L 187.0 51.3 L 130.0 51.3 L 130.0 74.3 L 118.0 80.3 L 118.0 20.3 Z " />
</g>
</svg>
