<svg xmlns="http://www.w3.org/2000/svg" xmlns:xlink="http://www.w3.org/1999/xlink" version="1.1" baseProfile="full" viewBox="0 0 200 200" width="200" height="200">
<g fill="black">
<path d="M 44.8 120.0 L 70.4 120.0 L 76.4 115.0 L 87.4 124.0 L 82.4 128.0 L 82.4 167.0 L 82.5 168.2 L 82.7 169.1 L 82.8 169.7 L 83.0 170.0 L 83.4 170.4 L 84.3 170.7 L 85.2 170.9 L 86.4 171.0 L 95.0 171.0 L 101.0 146.0 L 103.0 146.0 L 101.0 171.0 L 104.6 173.4 L 107.0 177.0 L 104.6 180.6 L 101.0 183.0 L 86.4 183.0 L 83.9 182.8 L 81.4 182.4 L 79.0 181.6 L 76.7 180.3 L 74.7 178.7 L 73.0 176.7 L 71.8 174.4 L 71.0 172.0 L 70.6 169.5 L 70.4 167.0 L 70.4 124.0 L 44.8 124.0 L 44.8 140.0 L 44.2 146.7 L 43.1 153.1 L 41.3 159.1 L 38.9 164.7 L 36.0 170.0 L 32.5 174.8 L 28.5 179.1 L 23.9 182.9 L 18.8 186.1 L 13.1 188.7 L 12.2 187.2 L 16.5 183.1 L 20.3 178.9 L 23.5 174.7 L 26.3 170.4 L 28.6 165.9 L 30.3 161.2 L 31.7 156.3 L 32.5 151.2 L 32.9 145.7 L 32.8 140.0 L 32.8 114.0 Z M 167.5 170.9 L 163.3 164.3 L 158.7 157.9 L 153.8 151.8 L 151.96742305755615 149.7945384979248 L 150.9 151.8 L 143.2 162.5 L 134.5 171.6 L 124.6 178.9 L 113.8 184.3 L 102.1 187.8 L 101.5 186.1 L 112.1 180.9 L 121.6 174.5 L 129.9 166.8 L 137.2 157.9 L 143.5 147.6 L 145.5561580657959 143.1069139480591 L 142.7 140.3 L 136.6 134.9 L 130.1 129.5 L 128.80783586502076 128.49287204742433 L 127.0 138.1 L 114.1 141.8 L 126.49859266281128 76.0 L 111.2 76.0 L 111.2 72.0 L 127.25230646133423 72.0 L 138.2 13.9 L 149.6 18.0 L 152.2 20.6 L 148.92467641830444 21.588776874542237 L 139.43846797943115 72.0 L 166.4 72.0 L 176.4 62.0 L 188.4 72.0 L 188.4 76.0 L 172.30806455612182 76.0 L 170.4 92.9 L 167.2 110.0 L 162.9 125.5 L 157.5 139.4 L 155.88613138198852 142.4321167945862 L 159.9 146.0 L 165.8 151.9 L 171.4 158.3 L 176.5 165.0 L 181.2 172.2 L 185.4 179.6 L 185.7 184.2 L 182.7 187.6 L 178.1 187.9 L 174.6 184.9 L 171.2 177.8 Z M 138.68576183319092 76.0 L 129.4530897140503 125.0638903617859 L 132.2 126.3 L 139.7 130.5 L 146.9 135.2 L 148.5784394264221 136.50266942977905 L 148.9 135.8 L 153.3 122.6 L 156.7 107.8 L 159.1 91.4 L 160.25057468414306 76.0 Z M 103.7 94.0 L 103.7 98.0 L 13.2 98.0 L 13.2 94.0 L 81.7 94.0 L 91.7 84.0 Z M 30.7 76.2 L 18.7 82.2 L 18.7 28.4 L 30.7 30.4 L 33.7 32.4 L 30.7 34.2 L 30.7 65.2 L 52.5 65.2 L 52.5 14.7 L 64.5 16.7 L 67.5 18.7 L 64.5 20.5 L 64.5 65.2 L 85.7 65.2 L 85.7 28.4 L 97.7 30.4 L 100.7 32.4 L 97.7 34.2 L 97.7 73.2 L 85.7 79.2 L 85.7 69.2 L 30.7 69.2 Z " />
</g>
</svg>
