<svg xmlns="http://www.w3.org/2000/svg" xmlns:xlink="http://www.w3.org/1999/xlink" version="1.1" baseProfile="full" viewBox="0 0 200 200" width="200" height="200">
<g fill="black">
<path d="M 20.1 175.9 L 95.0 175.9 L 95.0 150.9 L 38.0 150.9 L 38.0 146.9 L 95.0 146.9 L 95.0 122.2 L 29.5 122.2 L 29.5 118.2 L 150.4 118.2 L 160.4 108.2 L 172.4 118.2 L 172.4 122.2 L 107.0 122.2 L 107.0 146.9 L 141.9 146.9 L 151.9 136.9 L 163.9 146.9 L 163.9 150.9 L 107.0 150.9 L 107.0 175.9 L 159.8 175.9 L 169.8 165.9 L 181.8 175.9 L 181.8 179.9 L 20.1 179.9 Z M 183.5 95.5 L 183.5 99.5 L 18.4 99.5 L 18.4 95.5 L 165.3181818008423 95.5 L 173.5 86.5 Z M 49.5 80.5 L 37.5 86.5 L 37.5 29.3 L 49.5 31.3 L 52.5 33.3 L 49.5 35.1 L 49.5 69.5 L 95.0 69.5 L 95.0 13.9 L 107.0 15.9 L 110.0 17.9 L 107.0 19.7 L 107.0 69.5 L 152.4 69.5 L 152.4 29.3 L 164.4 31.3 L 167.4 33.3 L 164.4 35.1 L 164.4 77.5 L 152.4 83.5 L 152.4 73.5 L 49.5 73.5 Z " />
</g>
</svg>
