<svg xmlns="http://www.w3.org/2000/svg" xmlns:xlink="http://www.w3.org/1999/xlink" version="1.1" baseProfile="full" viewBox="0 0 200 200" width="200" height="200">
<g fill="black">
<path d="M 40.0 182.9 L 28.0 188.9 L 28.0 134.2 L 40.0 136.2 L 43.0 138.2 L 40.0 140.0 L 40.0 171.9 L 94.0 171.9 L 94.0 119.8 L 106.0 121.8 L 109.0 123.8 L 106.0 125.6 L 106.0 171.9 L 160.0 171.9 L 160.0 134.2 L 172.0 136.2 L 175.0 138.2 L 172.0 140.0 L 172.0 179.9 L 160.0 185.9 L 160.0 175.9 L 40.0 175.9 Z M 58.6 102.5 L 63.5 101.1 L 65.1 100.65200004577636 L 65.1 75.1 L 44.276595783233645 75.1 L 55.0 79.6 L 57.4 82.2 L 53.63941602706909 83.34160585403443 L 53.0 85.1 L 50.4 90.4 L 47.4 95.2 L 43.9 99.7 L 39.9 103.8 L 35.4 107.4 L 30.5 110.7 L 25.2 113.4 L 19.5 115.7 L 13.3 117.4 L 12.6 115.7 L 17.8 112.3 L 22.5 108.8 L 26.7 105.3 L 30.4 101.7 L 33.7 98.0 L 36.5 94.0 L 38.8 90.0 L 40.7 85.7 L 42.2 81.3 L 43.3 76.6 L 43.35556545257568 76.61424751281739 L 43.748148155212405 75.1 L 37.2 75.1 L 37.2 87.1 L 25.2 93.1 L 25.2 14.6 L 37.2 20.6 L 76.5 20.6 L 82.5 15.6 L 93.5 24.6 L 88.5 28.6 L 88.5 77.1 L 77.1 82.8 L 77.1 97.19200000762939 L 83.5 95.4 L 93.7 92.6 L 98.9 91.3 L 104.1 90.1 L 109.5 89.1 L 110.1 90.7 L 105.5 93.6 L 100.8 96.3 L 91.2 101.1 L 86.4 103.4 L 81.7 105.6 L 72.1 109.8 L 67.3 111.8 L 66.37924919128417 112.19180889129639 L 65.4 116.0 L 62.6 113.8 L 56.7 103.1 Z M 182.8 78.0 L 184.8 78.0 L 182.8 103.0 L 186.4 105.4 L 188.8 109.0 L 186.4 112.6 L 182.8 115.0 L 157.7 115.0 L 155.1 114.9 L 152.6 114.5 L 150.2 113.6 L 147.9 112.4 L 145.9 110.8 L 144.3 108.8 L 143.0 106.5 L 142.2 104.1 L 141.8 101.6 L 141.7 99.0 L 141.7 78.8 L 126.16000003814698 78.8 L 135.2 82.4 L 137.7 85.0 L 133.7397068977356 86.27295141220092 L 132.9 88.5 L 129.6 94.1 L 125.4 99.0 L 120.3 103.4 L 114.5 107.1 L 107.8 110.2 L 100.5 112.8 L 92.3 114.8 L 83.4 116.1 L 73.7 116.9 L 73.4 115.1 L 82.6 112.4 L 90.9 109.6 L 98.2 106.6 L 104.5 103.4 L 110.0 99.9 L 114.4 96.2 L 117.9 92.3 L 120.6 88.3 L 122.4 84.1 L 123.5 79.6 L 123.52110004425049 79.60504961013794 L 123.7 78.8 L 118.1 78.8 L 106.1 84.8 L 106.1 14.8 L 118.1 20.8 L 163.0 20.8 L 169.0 15.8 L 180.0 24.8 L 175.0 28.8 L 175.0 84.8 L 163.0 90.8 L 163.0 78.8 L 153.7 78.8 L 153.7 100.3 L 153.9 101.2 L 154.2 102.1 L 154.4 102.3 L 154.6 102.4 L 154.9 102.6 L 155.5 102.8 L 156.4 103.0 L 176.8 103.0 Z M 118.1 60.0 L 118.1 74.8 L 163.0 74.8 L 163.0 60.0 Z M 37.2 57.1 L 37.2 71.1 L 76.5 71.1 L 76.5 57.1 Z M 118.1 42.4 L 118.1 56.0 L 163.0 56.0 L 163.0 42.4 Z M 37.2 40.9 L 37.2 53.1 L 76.5 53.1 L 76.5 40.9 Z M 118.1 24.8 L 118.1 38.4 L 163.0 38.4 L 163.0 24.8 Z M 37.2 24.6 L 37.2 36.9 L 76.5 36.9 L 76.5 24.6 Z " />
</g>
</svg>
