<svg xmlns="http://www.w3.org/2000/svg" xmlns:xlink="http://www.w3.org/1999/xlink" version="1.1" baseProfile="full" viewBox="0 0 200 200" width="200" height="200">
<g fill="black">
<path d="M 16.0 180.0 L 94.0 180.0 L 94.0 165.8 L 34.0 165.8 L 34.0 161.8 L 94.0 161.8 L 94.0 144.5 L 51.0 144.5 L 51.0 147.5 L 39.0 153.5 L 39.0 95.7 L 51.0 101.7 L 94.0 101.7 L 94.0 89.0 L 18.0 89.0 L 18.0 85.0 L 94.0 85.0 L 94.0 74.37868852615357 L 83.0 75.1 L 70.5 75.8 L 57.7 76.3 L 44.5 76.5 L 31.0 76.5 L 30.9 74.7 L 44.2 72.7 L 57.3 70.9 L 69.9 69.3 L 82.3 67.6 L 94.3 65.9 L 105.9 64.2 L 117.2 62.4 L 128.1 60.6 L 138.8 58.8 L 149.0 56.9 L 149.1876395225525 58.07521619796753 L 160.3 67.2 L 160.7 70.2 L 156.1673092842102 67.90343675613403 L 150.9 68.8 L 140.4 70.1 L 129.6 71.3 L 118.5 72.4 L 107.0 73.4 L 106.0 73.47627115249634 L 106.0 85.0 L 162.8181818008423 85.0 L 171.0 76.0 L 181.0 85.0 L 181.0 89.0 L 106.0 89.0 L 106.0 101.7 L 149.0 101.7 L 155.0 96.7 L 166.0 105.7 L 161.0 109.7 L 161.0 146.5 L 149.0 152.5 L 149.0 144.5 L 106.0 144.5 L 106.0 161.8 L 151.8181818008423 161.8 L 160.0 152.8 L 170.0 161.8 L 170.0 165.8 L 106.0 165.8 L 106.0 180.0 L 161.0 180.0 L 171.0 170.0 L 183.0 180.0 L 183.0 184.0 L 16.0 184.0 Z M 51.0 125.5 L 51.0 140.5 L 94.0 140.5 L 94.0 125.5 Z M 106.0 125.5 L 106.0 140.5 L 149.0 140.5 L 149.0 125.5 Z M 51.0 105.7 L 51.0 121.5 L 94.0 121.5 L 94.0 105.7 Z M 106.0 105.7 L 106.0 121.5 L 149.0 121.5 L 149.0 105.7 Z M 44.0 55.8 L 32.0 61.8 L 32.0 21.2 L 44.0 23.2 L 47.0 25.2 L 44.0 27.0 L 44.0 48.8 L 94.0 48.8 L 94.0 10.9 L 106.0 12.9 L 109.0 14.9 L 106.0 16.7 L 106.0 48.8 L 155.0 48.8 L 155.0 21.2 L 167.0 23.2 L 170.0 25.2 L 167.0 27.0 L 167.0 56.8 L 155.0 62.8 L 155.0 52.8 L 44.0 52.8 Z " />
</g>
</svg>
