<svg xmlns="http://www.w3.org/2000/svg" xmlns:xlink="http://www.w3.org/1999/xlink" version="1.1" baseProfile="full" viewBox="0 0 200 200" width="200" height="200">
<g fill="black">
<path d="M 40.0 181.6 L 28.0 187.6 L 28.0 132.3 L 40.0 134.3 L 43.0 136.3 L 40.0 138.1 L 40.0 170.6 L 94.0 170.6 L 94.0 122.9 L 106.0 124.9 L 109.0 126.9 L 106.0 128.7 L 106.0 170.6 L 160.0 170.6 L 160.0 132.3 L 172.0 134.3 L 175.0 136.3 L 172.0 138.1 L 172.0 178.6 L 160.0 184.6 L 160.0 174.6 L 40.0 174.6 Z M 31.3 70.0 L 71.8 70.0 L 77.8 65.0 L 88.8 74.0 L 83.8 78.0 L 83.8 119.3 L 71.8 125.3 L 71.8 113.3 L 31.3 113.3 L 31.3 116.3 L 19.3 122.3 L 19.3 64.0 Z M 117.8 28.4 L 117.3 26.8 L 116.8 25.1 L 116.2 23.4 L 115.5 21.7 L 114.7 19.8 L 113.8 17.9 L 112.4 16.4 L 113.6 15.1 L 115.2 16.4 L 117.2 17.4 L 119.1 18.4 L 120.9 19.6 L 124.1 22.2 L 127.1 25.2 L 128.4 26.8 L 129.6 28.5 L 129.5 33.1 L 127.3 35.3 L 146.775 35.3 L 147.3 34.4 L 148.2 31.7 L 149.3 29.2 L 150.3 26.8 L 151.4 24.4 L 152.5 22.1 L 153.5 19.9 L 154.6 17.7 L 155.6 15.6 L 156.23533143997193 14.387094497680664 L 156.1 14.3 L 157.1 12.9 L 166.2 20.8 L 167.3 24.3 L 162.93476600646972 23.7731614112854 L 162.8 23.9 L 159.2 27.1 L 153.5 32.2 L 151.4 34.0 L 149.81111106872558 35.3 L 166.5 35.3 L 176.5 25.3 L 188.5 35.3 L 188.5 39.3 L 143.4 39.3 L 142.6 40.3 L 141.1 42.1 L 139.4 43.9 L 137.8 45.6 L 136.0 47.2 L 134.2 48.9 L 132.4 50.4 L 130.5 51.9 L 128.5 53.4 L 127.85384616851806 53.8 L 162.2 53.8 L 168.2 48.8 L 179.2 57.8 L 174.2 61.8 L 174.2 117.5 L 162.2 123.5 L 162.2 115.5 L 113.9 115.5 L 101.9 121.5 L 101.9 47.8 L 113.9 53.8 L 124.18947372436523 53.8 L 124.6 53.2 L 125.6 51.0 L 126.5 48.8 L 127.5 46.6 L 128.4 44.5 L 129.2 42.5 L 130.1 40.4 L 130.48500003814698 39.3 L 88.3 39.3 L 88.3 35.3 L 120.8 35.3 L 118.5 33.0 L 118.1 30.0 Z M 113.9 95.2 L 113.9 111.5 L 162.2 111.5 L 162.2 95.2 Z M 31.3 93.0 L 31.3 109.3 L 71.8 109.3 L 71.8 93.0 Z M 113.9 75.5 L 113.9 91.2 L 162.2 91.2 L 162.2 75.5 Z M 31.3 74.0 L 31.3 89.0 L 71.8 89.0 L 71.8 74.0 Z M 113.9 57.8 L 113.9 71.5 L 162.2 71.5 L 162.2 57.8 Z M 84.1 37.6 L 86.1 37.6 L 84.1 50.6 L 86.8 52.4 L 88.6 55.1 L 86.8 57.8 L 84.1 59.6 L 31.7 59.6 L 29.3 59.4 L 27.0 58.8 L 24.8 57.8 L 22.9 56.3 L 21.2 54.5 L 19.9 52.4 L 18.9 50.1 L 18.4 47.7 L 18.1 45.1 L 18.1 14.7 L 30.1 16.7 L 33.1 18.7 L 30.1 20.5 L 30.1 35.08125 L 34.5 33.5 L 40.5 31.3 L 46.3 29.3 L 51.7 27.5 L 56.8 25.7 L 61.5 24.0 L 65.8 22.3 L 69.8 20.7 L 73.5 19.1 L 75.81970262527466 17.940148735046385 L 75.8 17.9 L 75.83620071411133 17.931899642944337 L 76.7 17.5 L 77.41687402725219 19.324770164489745 L 85.9 26.8 L 86.1 29.9 L 82.25393562316894 28.24323377609253 L 81.1 28.7 L 77.3 29.8 L 73.2 30.9 L 68.8 31.9 L 64.0 32.9 L 59.0 33.9 L 53.6 34.8 L 47.8 35.7 L 41.7 36.5 L 35.3 37.2 L 30.1 37.50588235855103 L 30.1 45.1 L 30.0 46.4 L 30.0 47.3 L 30.1 48.0 L 30.2 48.5 L 30.3 48.9 L 30.5 49.3 L 30.9 49.7 L 31.6 50.1 L 32.7 50.4 L 34.1 50.6 L 79.6 50.6 Z " />
</g>
</svg>
