<svg xmlns="http://www.w3.org/2000/svg" xmlns:xlink="http://www.w3.org/1999/xlink" version="1.1" baseProfile="full" viewBox="0 0 200 200" width="200" height="200">
<g fill="black">
<path d="M 155.5 184.6 L 148.2 181.0 L 141.6 176.7 L 136.71395940780639 172.77514772415162 L 130.7 176.4 L 122.8 180.1 L 114.4 183.0 L 105.3 185.1 L 95.7 186.3 L 95.4 184.5 L 104.3 181.4 L 112.5 177.9 L 120.0 174.1 L 126.8 169.9 L 130.7270252227783 166.93863677978516 L 130.1 166.3 L 125.3 160.1 L 121.2 153.4 L 117.8 146.1 L 115.64810123443604 139.3 L 103.1 139.3 L 103.1 135.3 L 131.0 135.3 L 131.0 115.2 L 98.7 115.2 L 98.7 111.2 L 131.0 111.2 L 131.0 101.1 L 93.6 101.1 L 93.6 97.1 L 119.4235294342041 97.1 L 118.1 95.6 L 118.2 94.7 L 118.2 92.5 L 118.0 91.3 L 117.2 88.7 L 116.6 87.2 L 115.9 85.7 L 115.1 84.1 L 113.8 83.0 L 114.58571424484253 81.9 L 100.2 81.9 L 100.2 77.9 L 131.0 77.9 L 131.0 68.1 L 143.0 70.1 L 146.0 72.1 L 143.0 73.9 L 143.0 77.9 L 159.6818181991577 77.9 L 160.2 77.0 L 162.1 73.9 L 163.9 71.0 L 165.5 68.3 L 167.0 65.7 L 168.3 63.3 L 168.82173910140992 62.3 L 35.6456521987915 62.3 L 35.7 64.8 L 35.4 69.1 L 34.6 73.2 L 33.5 77.1 L 32.8777777671814 78.5 L 68.21818180084229 78.5 L 76.4 69.5 L 86.4 78.5 L 86.4 82.5 L 59.8 82.5 L 59.8 94.2 L 62.5 94.2 L 72.5 84.2 L 84.5 94.2 L 84.5 98.2 L 59.8 98.2 L 59.8 109.40476188659667 L 70.9 108.7 L 77.5 108.5 L 84.2 108.4 L 91.2 108.6 L 91.4 110.3 L 84.7 112.2 L 78.2 113.8 L 71.8 115.2 L 65.6 116.6 L 59.5 117.9 L 53.6 119.1 L 47.9 120.3 L 43.88918914794922 121.15945949554444 L 46.5 122.9 L 43.5 124.7 L 43.5 134.4 L 71.5 134.4 L 71.5 118.9 L 83.5 120.9 L 86.5 122.9 L 83.5 124.7 L 83.5 134.4 L 88.5 134.4 L 93.0 128.4 L 99.0 134.4 L 99.0 138.4 L 83.5 138.4 L 83.5 180.1 L 71.5 186.1 L 71.5 178.1 L 43.5 178.1 L 43.5 181.1 L 31.5 187.1 L 31.5 138.4 L 17.5 138.4 L 17.5 134.4 L 31.5 134.4 L 31.5 123.09473686218261 L 27.9 112.2 L 29.8 111.9 L 35.2 111.3 L 40.7 110.8 L 46.4 110.4 L 47.8 110.28135595321655 L 47.8 98.2 L 31.0 98.2 L 31.0 94.2 L 47.8 94.2 L 47.8 82.5 L 30.775 82.5 L 29.9 83.9 L 27.3 86.9 L 24.3 89.4 L 19.7 89.9 L 16.1 87.1 L 15.6 82.6 L 18.4 78.9 L 20.3 78.1 L 22.2 76.9 L 23.9 75.2 L 25.7 73.2 L 27.2 70.6 L 28.7 67.5 L 30.0 63.9 L 31.1 59.8 L 32.1 55.2 L 32.6 50.2 L 34.4 50.1 L 35.0 55.3 L 35.367346954345706 58.3 L 170.3 58.3 L 170.9972972869873 57.71891889572144 L 171.3 57.0 L 171.6125 57.20625 L 176.3 53.3 L 187.3 62.3 L 182.3 65.3 L 177.842857170105 67.15714282989502 L 177.8 67.2 L 175.8 69.1 L 173.7 71.1 L 171.4 73.2 L 170.0956521987915 74.2956521987915 L 173.7 77.9 L 173.7 81.9 L 160.56956520080567 81.9 L 160.3 82.1 L 158.5525773048401 83.61443300247193 L 162.4 86.5 L 163.9 89.7 L 158.8 89.7 L 158.3 90.1 L 155.3 92.7 L 153.6 94.0 L 150.0 96.6 L 149.28571424484252 97.1 L 162.11818180084228 97.1 L 170.3 88.1 L 180.3 97.1 L 180.3 101.1 L 143.0 101.1 L 143.0 111.2 L 157.01818180084229 111.2 L 165.2 102.2 L 175.2 111.2 L 175.2 115.2 L 143.0 115.2 L 143.0 129.8 L 132.0 135.3 L 153.2 135.3 L 159.2 130.3 L 170.2 139.3 L 165.2 142.3 L 162.86315793991088 143.27368421554564 L 160.8 147.4 L 156.1 154.6 L 150.7 161.1 L 144.89758510589598 166.70900106430054 L 147.1 168.1 L 153.2 171.1 L 159.7 173.6 L 166.7 175.6 L 174.1 177.0 L 183.4 178.8 L 171.6 189.9 L 163.3 187.6 Z M 61.2 163.5 L 60.09348249435425 161.71254863739014 L 60.0 161.8 L 56.6 164.3 L 53.0 166.4 L 49.2 168.1 L 45.2 169.4 L 43.5 169.86750001907347 L 43.5 174.1 L 71.5 174.1 L 71.5 169.08888893127443 L 67.4 170.0 L 63.5 167.6 L 62.4 165.6 Z M 43.5 138.4 L 43.5 166.8588234901428 L 43.9 166.6 L 46.9 164.2 L 49.6 161.6 L 52.1 159.0 L 54.2 156.2 L 54.888193702697755 155.20211906433104 L 54.8 155.1 L 52.8 153.0 L 50.7 150.8 L 48.4 148.6 L 45.7 146.7 L 46.6 145.1 L 49.7 146.3 L 52.8 147.4 L 55.8 148.6 L 58.18645830154419 149.6697916984558 L 59.4 147.0 L 60.7 143.6 L 61.50250377655029 140.9006690979004 L 61.5 140.9 L 61.525 140.825 L 61.8 139.9 L 61.82973680496216 139.9107894897461 L 62.3 138.5 L 71.5 143.18518514633178 L 71.5 138.4 Z M 118.20895519256592 139.3 L 121.5 144.2 L 126.1 150.2 L 130.9 155.6 L 136.0 160.3 L 137.20322580337523 161.23584232330322 L 138.3 160.2 L 143.0 154.6 L 147.2 148.6 L 150.7 142.1 L 151.84366197586058 139.3 Z M 71.21553401947021 147.768932056427 L 71.0 148.2 L 68.6 152.1 L 66.64138441085815 154.81192932128906 L 68.9 156.6 L 71.1 158.5 L 71.5 158.9 L 71.5 147.7140351295471 Z M 116.3 82.6 L 118.1 83.2 L 119.9 83.9 L 121.5 84.7 L 123.0 85.6 L 124.5 86.6 L 125.9 87.7 L 127.1 88.9 L 128.3 90.3 L 129.4 91.7 L 129.1 96.3 L 128.19333333969115 97.1 L 145.93157892227174 97.1 L 146.3 96.6 L 147.1 94.4 L 148.0 92.3 L 148.7 90.3 L 149.5 88.4 L 150.2 86.6 L 150.8 84.8 L 151.70625 81.9 L 115.25 81.9 Z M 156.26666669845582 81.9 L 156.8 82.3 L 157.1 81.9 Z M 40.3 53.9 L 40.3 21.3 L 52.3 23.3 L 55.3 25.3 L 52.3 27.1 L 52.3 43.9 L 98.0 43.9 L 98.0 12.8 L 110.0 14.8 L 113.0 16.8 L 110.0 18.6 L 110.0 43.9 L 154.7 43.9 L 154.7 21.3 L 166.7 23.3 L 169.7 25.3 L 166.7 27.1 L 166.7 47.9 L 154.7 53.9 L 154.7 47.9 L 52.3 47.9 Z " />
</g>
</svg>
