<svg xmlns="http://www.w3.org/2000/svg" xmlns:xlink="http://www.w3.org/1999/xlink" version="1.1" baseProfile="full" viewBox="0 0 200 200" width="200" height="200">
<g fill="black">
<path d="M 40.0 182.9 L 28.0 188.9 L 28.0 121.9 L 40.0 123.9 L 43.0 125.9 L 40.0 127.7 L 40.0 166.9 L 94.0 166.9 L 94.0 104.7 L 106.0 106.7 L 109.0 108.7 L 106.0 110.5 L 106.0 166.9 L 160.0 166.9 L 160.0 121.9 L 172.0 123.9 L 175.0 125.9 L 172.0 127.7 L 172.0 176.9 L 160.0 182.9 L 160.0 170.9 L 40.0 170.9 Z M 159.0 94.3 L 151.1 89.7 L 143.4 84.5 L 136.1 78.9 L 129.0 72.7 L 122.4 66.0 L 116.0 58.8 L 110.2 51.0 L 106.0 44.388888931274415 L 106.0 92.8 L 94.0 98.8 L 94.0 51.95 L 93.0 53.2 L 85.8 61.2 L 78.2 68.7 L 70.2 75.6 L 61.8 81.9 L 53.0 87.7 L 43.9 92.9 L 34.4 97.5 L 24.5 101.3 L 14.3 104.5 L 13.6 102.8 L 23.0 97.9 L 32.0 92.7 L 40.6 87.2 L 48.8 81.4 L 56.6 75.2 L 64.1 68.6 L 71.1 61.5 L 77.8 54.0 L 84.1 46.1 L 86.11224489212036 43.2 L 20.0 43.2 L 20.0 39.2 L 94.0 39.2 L 94.0 14.6 L 106.0 16.6 L 109.0 18.6 L 106.0 20.4 L 106.0 39.2 L 158.0 39.2 L 168.0 29.2 L 180.0 39.2 L 180.0 43.2 L 108.12608699798584 43.2 L 113.3 48.3 L 120.3 54.7 L 127.3 60.7 L 134.4 66.3 L 141.6 71.4 L 149.0 76.0 L 156.5 80.1 L 164.2 83.7 L 172.1 86.9 L 180.1 89.6 L 187.4 92.1 L 175.8 102.1 L 167.3 98.5 Z " />
</g>
</svg>
