<svg xmlns="http://www.w3.org/2000/svg" xmlns:xlink="http://www.w3.org/1999/xlink" version="1.1" baseProfile="full" viewBox="0 0 200 200" width="200" height="200">
<g fill="black">
<path d="M 38.0 46.0 L 115.74615383148193 46.0 L 113.0 15.4 L 113.03732500076293 15.397200584411621 L 112.9 13.2 L 125.0 14.5 L 128.1 16.3 L 125.33981819152832 18.238000011444093 L 127.8 45.3 L 127.88941602706909 46.0 L 157.0 46.0 L 167.0 36.0 L 179.0 46.0 L 179.0 50.0 L 128.40036497116088 50.0 L 131.3 72.7 L 135.6 96.9 L 140.6 117.6 L 144.59643077850342 129.79963073730468 L 145.1 128.7 L 149.3 117.4 L 152.9 105.4 L 155.7 92.6 L 157.73782739639282 80.00252180099487 L 157.7 80.0 L 158.2 77.0 L 169.7 80.8 L 172.4 83.3 L 168.89806547164918 84.72671403884888 L 166.8 95.0 L 163.2 108.3 L 158.8 120.8 L 153.6 132.6 L 149.0125910758972 140.93379287719728 L 152.7 149.0 L 159.5 159.5 L 166.7 166.6 L 174.1 170.7 L 176.44183864593506 171.08536586761474 L 182.0 147.0 L 184.0 147.0 L 182.07446804046631 172.0319149017334 L 186.2 173.8 L 188.0 178.0 L 186.2 182.2 L 182.0 184.0 L 170.2 182.0 L 159.5 176.2 L 150.2 167.0 L 142.1 154.7 L 141.31234340667726 152.9784076690674 L 140.9 153.6 L 133.4 162.8 L 125.2 171.1 L 116.2 178.4 L 106.5 184.7 L 105.4 183.2 L 113.8 175.5 L 121.4 167.4 L 128.3 158.7 L 134.6 149.3 L 137.38048782348633 144.38449478149414 L 135.1 139.4 L 129.0 120.9 L 123.8 99.3 L 119.4 74.5 L 116.23870964050293 50.0 L 38.0 50.0 L 38.0 105.0 L 37.4 116.4 L 37.23636360168457 118.36363639831544 L 37.8 117.8 L 39.8 115.0 L 41.7 112.4 L 43.4 109.9 L 45.0 107.4 L 46.4 105.0 L 47.6 102.7 L 48.6 100.5 L 49.5 98.3 L 49.82844038009644 97.1504587173462 L 49.7 97.1 L 50.03333330154419 96.4333333015442 L 50.1 96.2 L 50.14014873504639 96.21970262527466 L 50.7 95.1 L 60.9 101.5 L 62.7 104.7 L 58.24844512939453 105.00180034637451 L 57.3 106.1 L 55.2 108.3 L 53.0 110.4 L 50.7 112.4 L 48.2 114.4 L 45.5 116.3 L 42.6 118.1 L 39.5 119.7 L 36.98529415130615 121.3764705657959 L 36.5 127.2 L 35.2 137.4 L 33.5 146.8 L 31.3 155.6 L 28.7 163.8 L 25.7 171.2 L 22.2 177.8 L 18.2 183.6 L 13.7 188.5 L 12.2 187.4 L 14.9 181.6 L 17.4 175.5 L 19.6 168.8 L 21.5 161.6 L 23.1 153.8 L 24.3 145.3 L 25.3 136.2 L 25.8 126.4 L 26.1 116.0 L 26.0 105.0 L 26.0 40.0 Z M 54.9 180.3 L 42.9 186.3 L 42.9 142.0 L 54.9 144.0 L 57.9 146.0 L 54.9 147.8 L 54.9 169.3 L 69.5 169.3 L 69.5 133.1 L 81.5 135.1 L 84.5 137.1 L 81.5 138.9 L 81.5 169.3 L 98.0 169.3 L 98.0 142.0 L 110.0 144.0 L 113.0 146.0 L 110.0 147.8 L 110.0 173.3 L 98.0 179.3 L 98.0 173.3 L 54.9 173.3 Z M 50.0 119.0 L 68.0 119.0 L 69.2 118.9 L 70.1 118.7 L 71.0 118.4 L 71.4 118.0 L 71.7 117.1 L 71.9 116.2 L 72.0 115.0 L 72.0 88.0 L 84.0 90.0 L 87.0 92.0 L 84.0 93.8 L 84.0 115.0 L 83.8 117.5 L 83.4 120.0 L 82.6 122.4 L 81.3 124.7 L 79.7 126.7 L 77.7 128.3 L 75.4 129.6 L 73.0 130.4 L 70.5 130.8 L 68.0 131.0 L 68.0 125.0 L 50.0 122.0 Z M 105.0 113.7 L 104.4 112.1 L 103.6 110.4 L 102.4 108.6 L 101.0 106.6 L 99.3 104.6 L 97.3 102.4 L 95.1 100.2 L 92.4 98.2 L 93.3 96.7 L 96.3 98.1 L 99.5 99.2 L 102.3 100.4 L 105.0 101.8 L 107.4 103.2 L 109.6 104.7 L 111.7 106.3 L 113.5 108.0 L 115.2 110.0 L 116.6 112.1 L 116.3 116.6 L 113.0 119.8 L 108.4 119.5 L 105.3 116.2 L 105.2 115.0 Z M 42.0 84.0 L 72.0 84.0 L 72.0 55.0 L 84.0 57.0 L 87.0 59.0 L 84.0 60.8 L 84.0 69.0 L 95.81818180084228 69.0 L 104.0 60.0 L 114.0 69.0 L 114.0 73.0 L 84.0 73.0 L 84.0 84.0 L 98.0 84.0 L 108.0 74.0 L 120.0 84.0 L 120.0 88.0 L 42.0 88.0 Z M 148.4 30.4 L 147.6 29.0 L 146.4 27.4 L 144.9 25.7 L 143.2 23.9 L 141.2 22.1 L 138.9 20.1 L 136.4 17.9 L 133.5 16.2 L 134.2 14.6 L 137.5 15.8 L 140.7 16.7 L 143.7 17.6 L 146.5 18.6 L 149.1 19.6 L 153.7 21.9 L 155.7 23.2 L 157.6 24.6 L 159.3 26.1 L 160.1 30.6 L 157.6 34.4 L 153.1 35.3 L 149.3 32.8 L 149.0 31.7 Z " />
</g>
</svg>
