<svg xmlns="http://www.w3.org/2000/svg" xmlns:xlink="http://www.w3.org/1999/xlink" version="1.1" baseProfile="full" viewBox="0 0 200 200" width="200" height="200">
<g fill="black">
<path d="M 160.5 180.2 L 158.7 181.8 L 156.7 183.2 L 154.6 184.3 L 152.4 185.3 L 150.2 186.0 L 147.8 186.5 L 145.4 186.8 L 143.0 187.0 L 143.0 181.0 L 123.0 178.0 L 123.0 175.0 L 143.0 175.0 L 144.4 174.9 L 145.8 174.7 L 148.2 174.1 L 149.3 173.6 L 150.3 173.0 L 151.4 172.3 L 152.3 171.5 L 153.3 170.5 L 154.2 169.4 L 156.1 166.3 L 157.9 162.2 L 159.5 157.1 L 160.9 150.9 L 162.0 143.7 L 162.8 135.5 L 163.3 126.4 L 163.5 116.3 L 163.4 105.2 L 163.3221918106079 102.86575345993042 L 163.0 103.0 L 163.0 95.0 L 134.32394361495972 95.0 L 134.2 97.2 L 132.4 110.7 L 129.6 123.5 L 125.8 135.5 L 121.1 146.7 L 115.3 157.1 L 108.6 166.6 L 100.9 175.3 L 92.2 183.0 L 82.5 189.7 L 81.4 188.2 L 89.6 180.2 L 96.9 171.7 L 103.3 162.8 L 108.7 153.3 L 113.3 143.2 L 117.0 132.5 L 119.8 121.2 L 121.8 109.1 L 122.8 96.4 L 123.0 83.0 L 123.0 58.0 L 135.0 60.0 L 138.0 62.0 L 135.0 63.8 L 135.0 83.0 L 134.54929580688477 91.0 L 163.0 91.0 L 169.0 86.0 L 180.0 95.0 L 175.11440000534057 97.93135995864868 L 175.4 104.9 L 175.5 116.3 L 175.3 126.8 L 174.8 136.4 L 173.9 145.2 L 172.7 153.1 L 171.1 160.2 L 169.2 166.4 L 166.7 171.9 L 163.8 176.6 L 162.2 178.5 Z M 28.0 161.0 L 16.0 167.0 L 16.0 50.0 L 28.0 52.0 L 31.0 54.0 L 28.0 55.8 L 28.0 145.0 L 44.0 145.0 L 44.0 20.0 L 56.0 22.0 L 59.0 24.0 L 56.0 25.8 L 56.0 145.0 L 74.0 145.0 L 74.0 50.0 L 86.0 52.0 L 89.0 54.0 L 86.0 55.8 L 86.0 155.0 L 74.0 161.0 L 74.0 149.0 L 28.0 149.0 Z M 91.0 54.0 L 128.0 54.0 L 128.0 16.0 L 140.0 18.0 L 143.0 20.0 L 140.0 21.8 L 140.0 54.0 L 165.0 54.0 L 175.0 44.0 L 187.0 54.0 L 187.0 58.0 L 91.0 58.0 Z " />
</g>
</svg>
