<svg xmlns="http://www.w3.org/2000/svg" xmlns:xlink="http://www.w3.org/1999/xlink" version="1.1" baseProfile="full" viewBox="0 0 200 200" width="200" height="200">
<g fill="black">
<path d="M 40.0 180.8 L 28.0 186.8 L 28.0 136.5 L 40.0 138.5 L 43.0 140.5 L 40.0 142.3 L 40.0 169.8 L 94.0 169.8 L 94.0 123.7 L 106.0 125.7 L 109.0 127.7 L 106.0 129.5 L 106.0 169.8 L 160.0 169.8 L 160.0 136.5 L 172.0 138.5 L 175.0 140.5 L 172.0 142.3 L 172.0 177.8 L 160.0 183.8 L 160.0 173.8 L 40.0 173.8 Z M 87.9 93.0 L 87.9 82.4 L 57.6 82.4 L 57.6 90.0 L 57.15319147109985 93.0 Z M 99.9 82.4 L 99.9 93.0 L 131.6 93.0 L 131.6 82.4 Z M 57.6 68.2 L 57.6 78.4 L 87.9 78.4 L 87.9 68.2 Z M 99.9 68.2 L 99.9 78.4 L 131.6 78.4 L 131.6 68.2 Z M 130.0 13.9 L 133.0 15.9 L 130.0 17.7 L 130.0 26.8 L 165.0 26.8 L 175.0 16.8 L 187.0 26.8 L 187.0 30.8 L 130.0 30.8 L 130.0 41.0 L 118.0 47.0 L 118.0 11.9 Z M 82.0 13.9 L 85.0 15.9 L 82.0 17.7 L 82.0 41.0 L 70.0 47.0 L 70.0 30.8 L 13.0 30.8 L 13.0 26.8 L 70.0 26.8 L 70.0 11.9 Z M 168.7 127.8 L 166.8 129.2 L 164.7 130.4 L 162.6 131.4 L 160.4 132.3 L 158.2 132.9 L 155.8 133.4 L 153.5 133.7 L 151.0 133.8 L 151.0 127.8 L 137.0 124.8 L 137.0 121.8 L 151.0 121.8 L 154.0 121.6 L 155.3 121.3 L 156.6 120.9 L 159.0 119.9 L 160.1 119.2 L 161.2 118.4 L 163.4 116.4 L 164.1 115.2 L 165.2 112.7 L 166.2 108.9 L 167.2 104.0 L 167.9 98.0 L 168.5 90.9 L 168.8 82.7 L 169.0 73.5 L 168.9 63.4 L 168.85960264205931 61.89183225631714 L 168.6 62.0 L 168.6 54.0 L 50.7 54.0 L 50.2 54.5 L 46.2 58.1 L 45.884403705596924 58.34220180511475 L 57.6 64.2 L 131.6 64.2 L 137.6 59.2 L 148.6 68.2 L 143.6 72.2 L 143.6 106.1 L 143.4 108.7 L 143.0 111.2 L 142.2 113.6 L 141.0 115.9 L 139.3 117.9 L 137.3 119.5 L 135.0 120.7 L 132.6 121.6 L 130.1 122.0 L 127.6 122.1 L 127.6 116.1 L 107.6 113.1 L 107.6 110.1 L 128.8 110.1 L 129.7 109.9 L 130.3 109.7 L 130.6 109.5 L 130.8 109.4 L 131.0 109.2 L 131.2 108.9 L 131.3 108.3 L 131.5 107.4 L 131.6 106.1 L 131.6 97.0 L 99.9 97.0 L 99.9 111.1 L 87.9 117.1 L 87.9 97.0 L 56.28666667938232 97.0 L 55.7 99.2 L 54.0 103.2 L 51.8 106.9 L 49.0 110.1 L 45.8 112.9 L 42.2 115.2 L 38.2 116.9 L 33.9 118.2 L 29.3 119.3 L 28.7 117.6 L 32.7 115.5 L 36.0 113.0 L 38.8 110.5 L 41.1 107.9 L 42.8 105.3 L 44.1 102.5 L 45.0 99.7 L 45.6 96.7 L 45.7 93.5 L 45.6 90.0 L 45.6 58.56046514511108 L 41.9 61.4 L 37.2 64.4 L 32.2 67.3 L 26.8 69.8 L 21.1 72.0 L 14.9 73.8 L 14.2 72.2 L 19.3 68.6 L 24.2 65.1 L 28.6 61.7 L 32.7 58.3 L 36.5 54.8 L 39.8 51.3 L 42.8 47.8 L 45.4 44.1 L 47.7 40.5 L 49.172310733795165 37.632868480682376 L 49.1 37.6 L 50.1 35.8 L 60.1 42.6 L 61.7 45.8 L 57.71616163253784 45.93737373352051 L 57.1 46.8 L 54.53999996185303 50.0 L 168.6 50.0 L 174.6 45.0 L 185.6 54.0 L 180.7347149848938 56.91917095184326 L 180.9 63.2 L 181.0 73.6 L 180.8 83.1 L 180.4 91.6 L 179.8 99.1 L 179.0 105.8 L 177.9 111.6 L 176.6 116.6 L 174.7 120.8 L 172.2 124.5 L 170.5 126.2 Z " />
</g>
</svg>
