<svg xmlns="http://www.w3.org/2000/svg" xmlns:xlink="http://www.w3.org/1999/xlink" version="1.1" baseProfile="full" viewBox="0 0 200 200" width="200" height="200">
<g fill="black">
<path d="M 125.4777777671814 38.788888931274414 L 126.7 38.3 L 133.4 35.8 L 139.7 33.4 L 145.5 31.2 L 151.0 29.0 L 156.1 26.9 L 160.7 24.9 L 164.9 22.9 L 168.7 20.9 L 171.10812759399414 19.513502311706542 L 171.1 19.5 L 171.11211080551146 19.511208915710448 L 172.0 19.0 L 173.19850206375122 21.4422306060791 L 180.5 28.2 L 180.6 31.5 L 176.8571801185608 29.96605739593506 L 173.3 31.3 L 169.0 32.8 L 164.2 34.3 L 159.1 35.7 L 153.6 37.1 L 147.7 38.5 L 141.4 39.8 L 134.8 41.0 L 127.7 42.0 L 125.9 42.189473724365236 L 125.9 82.0 L 167.5 82.0 L 177.5 72.0 L 189.5 82.0 L 189.5 86.0 L 164.2 86.0 L 164.2 182.0 L 152.2 188.0 L 152.2 86.0 L 125.9 86.0 L 125.9 107.0 L 125.3 118.7 L 124.1 129.7 L 122.3 139.9 L 119.8 149.4 L 116.7 158.1 L 113.0 166.0 L 108.7 173.1 L 103.7 179.3 L 98.0 184.5 L 91.7 188.7 L 90.7 187.2 L 95.3 181.8 L 99.4 176.0 L 103.0 169.7 L 106.1 162.8 L 108.7 155.3 L 110.8 147.1 L 112.4 138.1 L 113.4 128.5 L 113.9 118.1 L 113.9 33.0 Z M 64.5 117.4 L 67.5 119.4 L 64.5 121.2 L 64.5 150.8 L 64.0692307472229 154.8 L 86.8 154.8 L 86.8 127.5 L 98.8 129.5 L 101.8 131.5 L 98.8 133.3 L 98.8 160.8 L 86.8 166.8 L 86.8 158.8 L 63.4 158.8 L 62.2 163.3 L 59.6 168.8 L 56.3 173.7 L 52.1 177.9 L 47.2 181.4 L 41.6 184.3 L 35.4 186.5 L 28.5 187.9 L 21.0 188.7 L 20.7 186.9 L 27.5 184.3 L 33.4 181.5 L 38.5 178.5 L 42.7 175.3 L 46.1 171.9 L 48.7 168.2 L 50.6 164.4 L 51.9 160.2 L 52.086666679382326 158.8 L 29.7 158.8 L 29.7 165.8 L 17.7 171.8 L 17.7 127.0 L 29.7 129.0 L 32.7 131.0 L 29.7 132.8 L 29.7 154.8 L 52.5 154.8 L 52.5 115.4 Z M 33.6 72.1 L 83.3 72.1 L 89.3 67.1 L 100.3 76.1 L 95.3 80.1 L 95.3 112.0 L 83.3 118.0 L 83.3 112.0 L 33.6 112.0 L 21.6 118.0 L 21.6 66.1 Z M 33.6 93.6 L 33.6 108.0 L 83.3 108.0 L 83.3 93.6 Z M 33.6 76.1 L 33.6 89.6 L 83.3 89.6 L 83.3 76.1 Z M 20.4 64.4 L 20.4 21.8 L 32.4 23.8 L 35.4 25.8 L 32.4 27.6 L 32.4 54.4 L 51.5 54.4 L 51.5 11.3 L 63.5 13.3 L 66.5 15.3 L 63.5 17.1 L 63.5 54.4 L 84.8 54.4 L 84.8 21.8 L 96.8 23.8 L 99.8 25.8 L 96.8 27.6 L 96.8 58.4 L 84.8 64.4 L 84.8 58.4 L 32.4 58.4 Z " />
</g>
</svg>
