<svg xmlns="http://www.w3.org/2000/svg" xmlns:xlink="http://www.w3.org/1999/xlink" version="1.1" baseProfile="full" viewBox="0 0 200 200" width="200" height="200">
<g fill="black">
<path d="M 40.0 183.6 L 28.0 189.6 L 28.0 125.1 L 40.0 127.1 L 43.0 129.1 L 40.0 130.9 L 40.0 167.6 L 94.0 167.6 L 94.0 108.9 L 106.0 110.9 L 109.0 112.9 L 106.0 114.7 L 106.0 167.6 L 160.0 167.6 L 160.0 125.1 L 172.0 127.1 L 175.0 129.1 L 172.0 130.9 L 172.0 177.6 L 160.0 183.6 L 160.0 171.6 L 40.0 171.6 Z M 76.9 100.8 L 72.3 97.8 L 67.3 94.9 L 64.22901945114135 93.3924277305603 L 63.8 93.9 L 55.8 101.4 L 46.8 107.9 L 36.9 113.4 L 26.0 117.8 L 14.3 121.1 L 13.8 119.3 L 24.6 114.3 L 34.3 108.7 L 43.0 102.6 L 50.7 95.8 L 56.26185913085938 89.66559658050537 L 55.9 89.5 L 49.6 86.8 L 43.0 84.2 L 35.9 81.5 L 31.149310684204103 79.7897518157959 L 28.9 84.0 L 24.9 91.3 L 14.5 85.4 L 18.4 78.3 L 22.2 71.2 L 25.8 64.1 L 29.2 56.9 L 32.5 49.7 L 35.169444465637206 43.5 L 11.8 43.5 L 11.8 39.5 L 36.79178085327148 39.5 L 38.5 35.2 L 41.3 27.9 L 44.0 20.5 L 46.10754795074463 14.001727104187012 L 46.1 14.0 L 46.9 11.5 L 57.9 16.7 L 60.1 19.6 L 56.655517196655275 20.385583782196044 L 55.3 24.4 L 52.6 32.0 L 49.73815793991089 39.5 L 77.0 39.5 L 83.0 34.5 L 94.0 43.5 L 89.0 46.5 L 87.77209300994873 47.01162786483765 L 85.9 54.5 L 82.0 65.7 L 76.9 76.1 L 70.9 85.5 L 70.29895305633545 86.21109781265258 L 71.1 86.5 L 76.9 88.9 L 82.4 91.5 L 87.4 94.3 L 92.2 97.4 L 94.4 101.4 L 93.2 105.8 L 89.2 108.0 L 84.8 106.9 L 81.1 103.8 Z M 116.0 108.0 L 126.0 108.0 L 127.2 107.9 L 128.1 107.7 L 129.0 107.4 L 129.4 107.0 L 129.7 106.1 L 129.9 105.2 L 130.0 104.0 L 130.0 73.0 L 87.0 73.0 L 87.0 69.0 L 130.0 69.0 L 130.0 44.0 L 141.91182794570923 45.98530464172363 L 145.2 41.9 L 148.3 38.1 L 151.1 34.5 L 153.8 31.1 L 156.2 28.0 L 158.3 25.0 L 159.7074073791504 23.0 L 97.0 23.0 L 97.0 19.0 L 162.0 19.0 L 162.36986303329468 18.691780853271485 L 163.1 17.4 L 163.53655319213868 17.719538974761964 L 168.0 14.0 L 179.0 23.0 L 174.0 26.0 L 169.54285717010498 27.857142829895018 L 168.3 29.1 L 165.6 31.5 L 162.8 34.1 L 159.6 36.8 L 156.2 39.6 L 152.5 42.4 L 148.5 45.4 L 144.84157304763795 47.89438199996948 L 145.0 48.0 L 142.83999996185304 49.2960000038147 L 142.0 49.89333333969116 L 142.0 69.0 L 166.0 69.0 L 176.0 59.0 L 188.0 69.0 L 188.0 73.0 L 142.0 73.0 L 142.0 104.0 L 141.8 106.5 L 141.4 109.0 L 140.6 111.4 L 139.3 113.7 L 137.7 115.7 L 135.7 117.3 L 133.4 118.6 L 131.0 119.4 L 128.5 119.8 L 126.0 120.0 L 126.0 114.0 L 116.0 111.0 Z M 48.13999996185303 43.5 L 46.7 47.1 L 43.5 54.6 L 40.1 62.0 L 36.5 69.4 L 32.8 76.7 L 32.44499349594116 77.36449937820434 L 36.8 77.8 L 44.4 79.0 L 51.6 80.5 L 58.5 82.3 L 61.14871196746826 83.11498832702637 L 63.2 80.2 L 68.0 71.4 L 71.9 61.9 L 74.9 51.6 L 76.41875 43.5 Z " />
</g>
</svg>
