<svg xmlns="http://www.w3.org/2000/svg" xmlns:xlink="http://www.w3.org/1999/xlink" version="1.1" baseProfile="full" viewBox="0 0 200 200" width="200" height="200">
<g fill="black">
<path d="M 40.0 181.9 L 28.0 187.9 L 28.0 139.2 L 40.0 141.2 L 43.0 143.2 L 40.0 145.0 L 40.0 170.9 L 94.0 170.9 L 94.0 127.0 L 106.0 129.0 L 109.0 131.0 L 106.0 132.8 L 106.0 170.9 L 160.0 170.9 L 160.0 139.2 L 172.0 141.2 L 175.0 143.2 L 172.0 145.0 L 172.0 178.9 L 160.0 184.9 L 160.0 174.9 L 40.0 174.9 Z M 160.6 110.7 L 152.3 107.1 L 144.4 103.3 L 136.8 99.2 L 129.6 94.9 L 122.8 90.3 L 116.4 85.4 L 110.5 80.2 L 106.0 75.36037731170654 L 106.0 116.9 L 94.0 122.9 L 94.0 81.18387098312378 L 92.1 82.9 L 85.4 88.2 L 78.2 93.1 L 70.4 97.7 L 62.2 101.9 L 53.4 105.7 L 44.2 109.2 L 34.4 112.2 L 24.0 114.8 L 13.2 116.8 L 12.7 115.1 L 22.9 111.2 L 32.6 107.2 L 41.7 103.1 L 50.2 98.8 L 58.2 94.4 L 65.6 89.7 L 72.5 84.9 L 78.7 79.8 L 83.6471697807312 75.2 L 18.0 75.2 L 18.0 71.2 L 94.0 71.2 L 94.0 53.3 L 106.0 55.3 L 109.0 57.3 L 106.0 59.1 L 106.0 71.2 L 160.0 71.2 L 170.0 61.2 L 182.0 71.2 L 182.0 75.2 L 110.10270271301269 75.2 L 119.7 80.5 L 126.6 84.1 L 133.6 87.6 L 141.0 90.9 L 148.6 94.0 L 156.4 96.9 L 164.6 99.6 L 173.0 102.1 L 181.8 104.4 L 189.8 106.8 L 178.1 117.1 L 169.2 114.0 Z M 54.9 20.5 L 145.0 20.5 L 151.0 15.5 L 162.0 24.5 L 157.0 28.5 L 157.0 53.7 L 145.0 59.7 L 145.0 51.7 L 54.9 51.7 L 54.9 54.7 L 42.9 60.7 L 42.9 14.5 Z M 54.9 24.5 L 54.9 47.7 L 145.0 47.7 L 145.0 24.5 Z " />
</g>
</svg>
