<svg xmlns="http://www.w3.org/2000/svg" xmlns:xlink="http://www.w3.org/1999/xlink" version="1.1" baseProfile="full" viewBox="0 0 200 200" width="200" height="200">
<g fill="black">
<path d="M 40.0 178.2 L 28.0 184.2 L 28.0 125.0 L 40.0 127.0 L 43.0 129.0 L 40.0 130.8 L 40.0 162.2 L 94.0 162.2 L 94.0 110.7 L 106.0 112.7 L 109.0 114.7 L 106.0 116.5 L 106.0 162.2 L 160.0 162.2 L 160.0 125.0 L 172.0 127.0 L 175.0 129.0 L 172.0 130.8 L 172.0 172.2 L 160.0 178.2 L 160.0 166.2 L 40.0 166.2 Z M 47.4 104.8 L 44.9 104.4 L 42.5 103.6 L 40.2 102.3 L 38.2 100.7 L 36.6 98.7 L 35.3 96.4 L 34.5 94.0 L 34.1 91.5 L 34.0 89.0 L 34.0 55.0 L 44.0 60.0 L 150.0 60.0 L 150.0 26.0 L 25.0 26.0 L 25.0 22.0 L 150.0 22.0 L 156.0 17.0 L 167.0 26.0 L 162.0 30.0 L 162.0 70.0 L 150.0 76.0 L 150.0 64.0 L 46.0 64.0 L 46.0 90.2 L 46.2 91.1 L 46.5 92.0 L 46.9 92.4 L 47.8 92.7 L 48.7 92.9 L 50.0 93.0 L 170.0 93.0 L 176.0 68.0 L 178.0 68.0 L 176.0 93.0 L 179.6 95.4 L 182.0 99.0 L 179.6 102.6 L 176.0 105.0 L 50.0 105.0 Z M 92.8 49.8 L 91.4 47.7 L 89.6 45.6 L 87.3 43.4 L 84.7 41.1 L 81.7 38.8 L 78.3 36.5 L 74.5 34.1 L 70.3 31.9 L 70.8 30.2 L 75.6 31.4 L 80.1 32.5 L 84.3 33.7 L 88.1 35.2 L 91.7 36.9 L 95.0 38.7 L 98.0 40.7 L 100.7 42.9 L 103.1 45.4 L 105.2 48.1 L 105.5 52.7 L 102.6 56.2 L 98.0 56.5 L 94.5 53.6 L 93.8 51.8 Z " />
</g>
</svg>
