<svg xmlns="http://www.w3.org/2000/svg" xmlns:xlink="http://www.w3.org/1999/xlink" version="1.1" baseProfile="full" viewBox="0 0 200 200" width="200" height="200">
<g fill="black">
<path d="M 40.0 180.9 L 28.0 186.9 L 28.0 135.2 L 40.0 137.2 L 43.0 139.2 L 40.0 141.0 L 40.0 169.9 L 94.0 169.9 L 94.0 121.9 L 106.0 123.9 L 109.0 125.9 L 106.0 127.7 L 106.0 169.9 L 160.0 169.9 L 160.0 135.2 L 172.0 137.2 L 175.0 139.2 L 172.0 141.0 L 172.0 177.9 L 160.0 183.9 L 160.0 173.9 L 40.0 173.9 Z M 147.0 113.2 L 158.2 113.2 L 159.1 113.0 L 159.7 112.8 L 160.0 112.6 L 160.2 112.5 L 160.4 112.3 L 160.7 111.4 L 160.9 110.5 L 161.0 109.2 L 161.0 99.8 L 133.0 99.8 L 133.0 117.5 L 121.0 123.5 L 121.0 99.8 L 94.0 99.8 L 94.0 117.5 L 82.0 123.5 L 82.0 73.3740740776062 L 77.0 76.8 L 71.5 80.3 L 65.7 83.5 L 59.7 86.5 L 53.4 89.1 L 52.5 87.6 L 57.7 83.3 L 62.7 79.1 L 67.6 74.9 L 72.4 70.7 L 77.0 66.5 L 81.4 62.2 L 85.7 57.8 L 89.8 53.3 L 92.57333335876464 50.1 L 61.0 50.1 L 61.0 46.1 L 96.0 46.1 L 96.0 31.8 L 75.0 31.8 L 75.0 27.8 L 96.0 27.8 L 96.0 13.0 L 108.0 15.0 L 111.0 17.0 L 108.0 18.8 L 108.0 27.8 L 140.0 27.8 L 140.0 13.0 L 152.0 15.0 L 155.0 17.0 L 152.0 18.8 L 152.0 27.8 L 158.0 27.8 L 168.0 17.8 L 180.0 27.8 L 180.0 31.8 L 152.0 31.8 L 152.0 46.1 L 170.8181818008423 46.1 L 179.0 37.1 L 189.0 46.1 L 189.0 50.1 L 108.4 50.1 L 102.0 56.5 L 97.4 60.9 L 96.37142858505248 61.8 L 161.0 61.8 L 167.0 56.8 L 178.0 65.8 L 173.0 69.8 L 173.0 109.2 L 172.8 111.8 L 172.4 114.3 L 171.6 116.7 L 170.3 119.0 L 168.7 121.0 L 166.7 122.6 L 164.4 123.9 L 162.0 124.7 L 159.5 125.1 L 157.0 125.2 L 157.0 119.2 L 147.0 116.2 Z M 68.2 17.3 L 69.8 20.5 L 66.07111444473267 20.564291095733644 L 63.7 24.2 L 58.9 31.0 L 53.8 37.6 L 48.6 44.1 L 43.331850147247316 50.03864164352417 L 48.5 50.9 L 51.5 52.9 L 48.5 54.7 L 48.5 118.1 L 36.5 124.1 L 36.5 57.3 L 31.5 62.3 L 25.3 67.9 L 18.8 73.3 L 11.9 78.3 L 10.7 77.0 L 16.1 70.6 L 26.7 57.8 L 31.7 51.4 L 36.6 45.0 L 41.2 38.4 L 45.7 31.8 L 50.0 25.0 L 54.0 18.2 L 57.9 11.2 L 58.4 10.3 Z M 94.0 82.8 L 94.0 95.8 L 121.0 95.8 L 121.0 82.8 Z M 133.0 82.8 L 133.0 95.8 L 161.0 95.8 L 161.0 82.8 Z M 94.0 65.8 L 94.0 78.8 L 121.0 78.8 L 121.0 65.8 Z M 133.0 65.8 L 133.0 78.8 L 161.0 78.8 L 161.0 65.8 Z M 108.0 31.8 L 108.0 46.1 L 140.0 46.1 L 140.0 31.8 Z " />
</g>
</svg>
