<svg xmlns="http://www.w3.org/2000/svg" xmlns:xlink="http://www.w3.org/1999/xlink" version="1.1" baseProfile="full" viewBox="0 0 200 200" width="200" height="200">
<g fill="black">
<path d="M 141.317768573761 70.72933883666992 L 142.0305263519287 93.3 L 162.7 93.3 L 170.0875 85.9125 L 167.2 86.7 L 163.2 84.5 L 162.4 82.8 L 161.4 81.2 L 160.3 79.5 L 159.1 77.8 L 157.6 76.2 L 156.0 74.5 L 154.3 72.8 L 152.4 71.0 L 150.3 69.2 L 147.9 67.9 L 148.6 66.2 L 151.3 67.1 L 154.1 67.6 L 156.8 68.3 L 159.4 69.2 L 161.8 70.1 L 164.2 71.3 L 166.5 72.5 L 168.6 73.9 L 170.7 75.4 L 172.6 77.1 L 173.8 81.5 L 172.7754285812378 83.36285715103149 L 184.7 93.3 L 184.7 97.3 L 142.3008584022522 97.3 L 144.7 118.8 L 148.5 137.4 L 151.13685178756714 145.42276191711426 L 156.3 137.5 L 161.4 127.9 L 165.3215355873108 118.50655431747437 L 165.3 118.5 L 166.2 116.2 L 176.8 122.0 L 178.9 125.0 L 175.0849019050598 125.59199800491334 L 171.5 133.1 L 165.4 143.3 L 158.4 152.6 L 155.25999040603637 155.98154878616333 L 158.3 162.3 L 163.6 169.7 L 168.5 174.4 L 172.7 177.1 L 172.79189186096193 177.1351351737976 L 178.2 153.7 L 180.2 153.7 L 178.2744680404663 178.7319149017334 L 182.4 180.5 L 184.2 184.7 L 182.4 188.8 L 178.2 190.7 L 173.3 190.0 L 167.5 187.9 L 161.1 183.9 L 154.5 177.5 L 148.0 168.4 L 146.25416641235353 164.78997116088868 L 142.0 168.5 L 132.7 175.0 L 122.5 180.6 L 111.6 185.2 L 100.0 188.8 L 87.7 191.2 L 87.3 189.5 L 98.8 185.2 L 109.5 180.3 L 119.4 174.8 L 128.4 168.7 L 136.6 162.0 L 142.1482409477234 156.29975242614745 L 142.1 156.2 L 136.9 140.5 L 132.8 120.7 L 130.21065578460693 97.3 L 74.4 97.3 L 74.4 93.3 L 130.00784978866577 93.3 L 129.23063831329347 67.99744682312011 L 129.2 68.0 L 129.2 64.6 L 141.2 67.0 L 144.2 69.0 Z M 33.4 71.1 L 57.4 71.1 L 62.9 66.1 L 73.4 75.1 L 68.4 78.6 L 68.4 175.4 L 68.3 177.8 L 67.9 180.1 L 67.2 182.4 L 66.2 184.5 L 64.8 186.5 L 63.1 188.1 L 61.0 189.4 L 58.8 190.3 L 56.5 190.7 L 54.1 190.9 L 54.1 185.4 L 38.7 182.6 L 38.7 179.9 L 54.1 179.9 L 55.1 179.8 L 55.8 179.7 L 56.4 179.4 L 56.6 179.2 L 56.7 179.0 L 56.9 178.5 L 57.2 177.8 L 57.3 176.7 L 57.4 175.4 L 57.4 138.0 L 33.4 138.0 L 33.4 140.3 L 32.9 148.1 L 32.2 155.4 L 31.1 162.0 L 29.7 168.1 L 27.9 173.7 L 25.8 178.6 L 23.3 182.9 L 20.5 186.5 L 17.3 189.2 L 13.7 191.1 L 12.6 189.7 L 14.5 186.6 L 16.1 183.4 L 17.5 179.9 L 18.7 175.9 L 19.7 171.3 L 20.6 166.3 L 21.1 160.7 L 21.5 154.5 L 21.6 147.7 L 21.4 140.3 L 21.4 65.1 Z M 71.2 165.7 L 76.7 164.7 L 82.3 163.7 L 88.0 162.6 L 93.8 161.5 L 99.7 160.3 L 105.7 159.1 L 111.9 157.8 L 118.1 156.6 L 124.6 155.5 L 131.2 154.5 L 131.7 156.2 L 125.7 159.1 L 119.7 161.8 L 113.7 164.2 L 107.8 166.4 L 102.0 168.5 L 96.2 170.5 L 90.5 172.3 L 84.9 174.1 L 79.4 175.8 L 77.90090255737304 176.23610105514527 L 76.5 179.9 L 73.9 177.4 L 69.3 166.2 Z M 92.1 111.9 L 111.4 111.9 L 117.4 106.9 L 128.4 115.9 L 123.4 119.9 L 123.4 145.2 L 111.4 151.2 L 111.4 145.2 L 92.1 145.2 L 92.1 148.2 L 81.1 153.7 L 81.1 106.4 Z M 92.1 115.9 L 92.1 141.2 L 111.4 141.2 L 111.4 115.9 Z M 33.4 105.9 L 33.4 134.0 L 57.4 134.0 L 57.4 105.9 Z M 33.4 75.1 L 33.4 101.9 L 57.4 101.9 L 57.4 75.1 Z M 44.0 55.0 L 32.0 61.0 L 32.0 16.0 L 44.0 18.0 L 47.0 20.0 L 44.0 21.8 L 44.0 48.0 L 94.0 48.0 L 94.0 10.0 L 106.0 12.0 L 109.0 14.0 L 106.0 15.8 L 106.0 48.0 L 155.0 48.0 L 155.0 16.0 L 167.0 18.0 L 170.0 20.0 L 167.0 21.8 L 167.0 52.0 L 155.0 58.0 L 155.0 52.0 L 44.0 52.0 Z " />
</g>
</svg>
