<svg xmlns="http://www.w3.org/2000/svg" xmlns:xlink="http://www.w3.org/1999/xlink" version="1.1" baseProfile="full" viewBox="0 0 200 200" width="200" height="200">
<g fill="black">
<path d="M 14.0 179.5 L 94.0 179.5 L 94.0 148.5 L 29.0 148.5 L 29.0 144.5 L 94.0 144.5 L 94.0 120.35500001907349 L 80.7 121.4 L 66.2 122.2 L 51.2 122.9 L 35.9 123.3 L 20.0 123.3 L 19.9 121.6 L 35.6 119.5 L 50.8 117.6 L 65.6 115.7 L 79.9 113.8 L 93.7 111.9 L 107.1 109.9 L 120.0 107.9 L 132.4 105.7 L 144.4 103.5 L 155.9 101.2 L 156.1141731262207 102.40344886779785 L 167.0 111.4 L 167.4 114.4 L 162.8688524246216 112.13442621231079 L 158.0 113.0 L 146.3 114.8 L 134.0 116.4 L 121.4 117.8 L 108.2 119.1 L 106.0 119.29555559158325 L 106.0 144.5 L 149.0 144.5 L 159.0 134.5 L 171.0 144.5 L 171.0 148.5 L 106.0 148.5 L 106.0 179.5 L 164.0 179.5 L 174.0 169.5 L 186.0 179.5 L 186.0 183.5 L 14.0 183.5 Z M 173.5 86.4 L 173.5 90.4 L 33.4 90.4 L 33.4 86.4 L 151.5 86.4 L 161.5 76.4 Z M 44.9 68.9 L 32.9 74.9 L 32.9 25.2 L 44.9 27.2 L 47.9 29.2 L 44.9 31.0 L 44.9 57.9 L 95.0 57.9 L 95.0 12.6 L 107.0 14.6 L 110.0 16.6 L 107.0 18.4 L 107.0 57.9 L 157.0 57.9 L 157.0 25.2 L 169.0 27.2 L 172.0 29.2 L 169.0 31.0 L 169.0 65.9 L 157.0 71.9 L 157.0 61.9 L 44.9 61.9 Z " />
</g>
</svg>
