<svg xmlns="http://www.w3.org/2000/svg" xmlns:xlink="http://www.w3.org/1999/xlink" version="1.1" baseProfile="full" viewBox="0 0 200 200" width="200" height="200">
<g fill="black">
<path d="M 40.0 179.8 L 28.0 185.8 L 28.0 124.3 L 40.0 126.3 L 43.0 128.3 L 40.0 130.1 L 40.0 163.8 L 94.0 163.8 L 94.0 114.6 L 106.0 116.6 L 109.0 118.6 L 106.0 120.4 L 106.0 163.8 L 160.0 163.8 L 160.0 124.3 L 172.0 126.3 L 175.0 128.3 L 172.0 130.1 L 172.0 173.8 L 160.0 179.8 L 160.0 167.8 L 40.0 167.8 Z M 101.3 91.8 L 107.1 91.4 L 113.6 90.9 L 113.9 90.87887325286866 L 113.9 30.9 L 100.5 30.9 L 100.5 26.9 L 162.5 26.9 L 172.5 16.9 L 184.5 26.9 L 184.5 30.9 L 168.9 30.9 L 168.9 86.54485979080201 L 175.7 86.1 L 187.0 85.6 L 187.2 87.4 L 176.2 89.9 L 168.9 91.42952384948731 L 168.9 112.0 L 156.9 118.0 L 156.9 93.8777777671814 L 155.8 94.1 L 146.5 95.9 L 137.7 97.5 L 129.6 99.0 L 122.0 100.3 L 115.0 101.6 L 108.5 102.7 L 106.77854652404785 102.99680233001709 L 105.0 106.5 L 102.7 103.7 L 99.3 92.0 Z M 14.1 91.8 L 18.0 91.5 L 22.3 91.2 L 26.9 90.82448978424073 L 26.9 30.9 L 13.5 30.9 L 13.5 26.9 L 75.5 26.9 L 85.5 16.9 L 97.5 26.9 L 97.5 30.9 L 81.9 30.9 L 81.9 112.0 L 69.9 118.0 L 69.9 91.24337348937988 L 67.8 91.8 L 60.1 93.8 L 52.8 95.4 L 46.1 96.9 L 39.8 98.3 L 34.0 99.6 L 28.7 100.7 L 23.9 101.8 L 19.953306579589842 102.71783571243286 L 18.3 106.3 L 15.9 103.7 L 12.1 92.1 Z M 125.9 72.5 L 125.9 89.99480524063111 L 128.4 89.8 L 136.6 89.1 L 145.5 88.3 L 154.9 87.6 L 156.9 87.44158420562744 L 156.9 72.5 Z M 38.9 72.5 L 38.9 89.8692307472229 L 45.0 89.4 L 51.9 88.9 L 59.3 88.5 L 67.3 88.1 L 69.9 88.03882350921631 L 69.9 72.5 Z M 125.9 52.0 L 125.9 68.5 L 156.9 68.5 L 156.9 52.0 Z M 38.9 52.0 L 38.9 68.5 L 69.9 68.5 L 69.9 52.0 Z M 125.9 30.9 L 125.9 48.0 L 156.9 48.0 L 156.9 30.9 Z M 38.9 30.9 L 38.9 48.0 L 69.9 48.0 L 69.9 30.9 Z " />
</g>
</svg>
