<svg xmlns="http://www.w3.org/2000/svg" xmlns:xlink="http://www.w3.org/1999/xlink" version="1.1" baseProfile="full" viewBox="0 0 200 200" width="200" height="200">
<g fill="black">
<path d="M 186.5 32.0 L 186.5 36.0 L 151.05423727035523 36.0 L 158.6 40.2 L 160.6 43.2 L 156.92712497711182 43.70660343170166 L 153.4 51.1 L 147.9 61.7 L 142.0 71.9 L 141.49178085327148 72.69863014221191 L 143.3 73.0 L 146.3 75.0 L 143.3 76.8 L 143.3 183.0 L 131.3 189.0 L 131.3 88.13333330154418 L 129.1 91.3 L 122.0 100.4 L 114.6 109.2 L 106.7 117.5 L 98.4 125.3 L 89.6 132.6 L 88.4 131.3 L 95.7 122.7 L 102.7 113.9 L 109.5 105.0 L 115.9 95.9 L 122.1 86.5 L 127.8 76.9 L 133.3 67.0 L 138.4 56.8 L 143.1 46.3 L 147.1264121055603 36.50849781036377 L 147.1 36.5 L 147.30454549789428 36.0 L 93.4 36.0 L 93.4 32.0 L 164.5 32.0 L 174.5 22.0 Z M 28.0 161.0 L 16.0 167.0 L 16.0 50.0 L 28.0 52.0 L 31.0 54.0 L 28.0 55.8 L 28.0 145.0 L 44.0 145.0 L 44.0 20.0 L 56.0 22.0 L 59.0 24.0 L 56.0 25.8 L 56.0 145.0 L 74.0 145.0 L 74.0 50.0 L 86.0 52.0 L 89.0 54.0 L 86.0 55.8 L 86.0 155.0 L 74.0 161.0 L 74.0 149.0 L 28.0 149.0 Z M 173.0 123.3 L 170.5 119.3 L 167.7 115.4 L 164.7 111.3 L 161.4 107.3 L 157.8 103.2 L 153.9 99.0 L 149.9 94.7 L 145.6 90.3 L 146.7 88.8 L 152.2 91.7 L 157.4 94.9 L 162.2 98.3 L 166.7 101.9 L 170.9 105.5 L 174.8 109.3 L 178.5 113.2 L 181.8 117.2 L 184.9 121.3 L 187.7 125.4 L 188.1 130.0 L 185.3 133.6 L 180.7 134.0 L 177.1 131.2 L 175.2 127.3 Z " />
</g>
</svg>
