<svg xmlns="http://www.w3.org/2000/svg" xmlns:xlink="http://www.w3.org/1999/xlink" version="1.1" baseProfile="full" viewBox="0 0 200 200" width="200" height="200">
<g fill="black">
<path d="M 44.5 168.4 L 50.4 168.1 L 53.4 167.9032787322998 L 53.4 121.7 L 44.2 121.7 L 44.2 117.7 L 78.75875701904297 117.7 L 84.64124298095703 104.0 L 48.0 104.0 L 48.0 100.0 L 86.0 100.0 L 92.0 95.0 L 103.0 104.0 L 98.0 107.0 L 95.54496726989746 108.02293033599854 L 91.77844314575195 117.7 L 102.0777777671814 117.7 L 108.3 110.7 L 116.3 117.7 L 116.3 121.7 L 101.1 121.7 L 101.1 165.22307691574096 L 105.9 165.1 L 113.9 165.0 L 114.2 166.8 L 106.4 168.8 L 101.1 170.05526313781738 L 101.1 183.8 L 89.1 189.8 L 89.1 172.6472222328186 L 84.2 173.6 L 77.2 174.9 L 70.5 176.1 L 64.0 177.3 L 57.7 178.4 L 51.7 179.4 L 49.97188844680786 179.66361026763917 L 48.2 183.1 L 45.8 180.3 L 42.6 168.6 Z M 28.0 82.8 L 28.0 49.5 L 27.0 50.0 L 27.0 19.6 L 39.0 21.6 L 42.0 23.6 L 39.0 25.4 L 39.0 40.0 L 94.0 40.0 L 94.0 11.9 L 106.0 13.9 L 109.0 15.9 L 106.0 17.7 L 106.0 40.0 L 159.8 40.0 L 159.8 19.6 L 171.8 21.6 L 174.8 23.6 L 171.8 25.4 L 171.8 44.0 L 159.8 50.0 L 159.8 44.0 L 39.0 44.0 L 30.8 48.1 L 40.0 52.7 L 58.4 52.7 L 63.9 47.7 L 74.4 56.7 L 69.4 60.2 L 69.4 78.2 L 58.4 83.7 L 58.4 78.2 L 40.0 78.2 L 29.4 83.5 L 38.4 88.0 L 169.0 88.0 L 173.5 82.0 L 179.5 88.0 L 179.5 92.0 L 38.4 92.0 L 38.4 128.5 L 37.9 137.3 L 36.9 145.5 L 35.5 153.2 L 33.6 160.3 L 31.2 166.8 L 28.3 172.7 L 24.9 177.9 L 21.1 182.4 L 16.7 186.1 L 12.0 189.0 L 10.9 187.5 L 14.1 183.4 L 16.9 179.1 L 19.3 174.5 L 21.4 169.5 L 23.2 164.0 L 24.6 157.9 L 25.6 151.4 L 26.2 144.3 L 26.5 136.7 L 26.4 128.5 L 26.4 82.0 Z M 152.0 180.7 L 144.7 175.8 L 138.3 170.3 L 137.29174308776857 169.2197247505188 L 133.2 172.8 L 125.1 178.3 L 116.2 182.8 L 106.6 186.3 L 96.1 188.8 L 95.6 187.0 L 105.2 182.8 L 113.8 178.0 L 121.5 172.8 L 128.2 167.1 L 131.8818570137024 163.16852560043336 L 128.0 157.8 L 124.1 150.9 L 121.2 143.4 L 119.4 135.6 L 119.14333333969117 132.55666666030885 L 117.2 134.5 L 113.1 138.1 L 108.6 141.3 L 107.3 140.0 L 110.3 135.5 L 113.1 131.1 L 118.3 122.3 L 120.6 117.8 L 122.7 113.2 L 124.7 108.5 L 126.4 103.7 L 127.9 98.7 L 129.01887998580932 94.7039999961853 L 129.0 94.7 L 129.2222222328186 93.9777777671814 L 129.3 93.7 L 129.30703363418579 93.70214071273804 L 129.8 92.1 L 140.8 97.2 L 143.0 100.0 L 139.35692310333252 100.91076927185058 L 138.7 102.6 L 136.3 107.8 L 133.7 112.8 L 130.9 117.5 L 130.05217390060426 118.8 L 155.1 118.8 L 165.1 108.8 L 177.1 118.8 L 177.1 122.8 L 162.24056606292726 122.8 L 160.0 132.3 L 156.5 142.1 L 152.0 151.0 L 146.7 159.2 L 144.24631576538087 162.04315786361695 L 144.9 162.6 L 151.0 166.7 L 157.7 170.3 L 165.0 173.5 L 173.1 176.3 L 180.4 178.8 L 168.9 188.8 L 160.1 185.0 Z M 65.4 153.9 L 65.4 167.14242420196533 L 69.4 166.9 L 76.2 166.5 L 83.2 166.1 L 89.1 165.69589042663574 L 89.1 153.9 Z M 127.375 122.8 L 124.6 126.5 L 121.61100921630859 129.98715600967407 L 123.4 134.4 L 126.7 141.1 L 130.4 147.3 L 134.7 152.9 L 137.55554981231688 155.93402166366576 L 139.0 153.9 L 143.1 146.4 L 146.5 138.2 L 149.0 129.4 L 150.0744186401367 122.8 Z M 65.4 137.8 L 65.4 149.9 L 89.1 149.9 L 89.1 137.8 Z M 65.4 121.7 L 65.4 133.8 L 89.1 133.8 L 89.1 121.7 Z M 141.5 52.7 L 160.0 52.7 L 166.0 47.7 L 177.0 56.7 L 172.0 60.7 L 172.0 78.2 L 160.0 84.2 L 160.0 78.2 L 141.5 78.2 L 130.5 83.7 L 130.5 47.2 Z M 90.5 52.7 L 109.4 52.7 L 114.9 47.7 L 125.4 56.7 L 120.4 60.2 L 120.4 78.2 L 109.4 83.7 L 109.4 78.2 L 90.5 78.2 L 79.5 83.7 L 79.5 47.2 Z M 141.5 56.7 L 141.5 74.2 L 160.0 74.2 L 160.0 56.7 Z M 90.5 56.7 L 90.5 74.2 L 109.4 74.2 L 109.4 56.7 Z M 40.0 56.7 L 40.0 74.2 L 58.4 74.2 L 58.4 56.7 Z " />
</g>
</svg>
