<svg xmlns="http://www.w3.org/2000/svg" xmlns:xlink="http://www.w3.org/1999/xlink" version="1.1" baseProfile="full" viewBox="0 0 200 200" width="200" height="200">
<g fill="black">
<path d="M 43.4 21.0 L 46.4 23.0 L 43.4 24.8 L 43.4 104.0 L 42.8 115.8 L 41.8 126.9 L 40.3 137.3 L 38.2 147.0 L 35.6 155.8 L 32.5 163.9 L 28.9 171.2 L 24.7 177.7 L 20.0 183.2 L 14.7 187.6 L 13.4 186.3 L 17.0 180.8 L 20.1 174.9 L 23.0 168.4 L 25.4 161.3 L 27.5 153.6 L 29.1 145.1 L 30.3 135.9 L 31.1 126.0 L 31.5 115.3 L 31.4 104.0 L 31.4 19.0 Z M 111.0 21.0 L 114.0 23.0 L 111.0 24.8 L 111.0 181.0 L 99.0 187.0 L 99.0 19.0 Z M 182.4 145.0 L 184.4 145.0 L 182.4 170.0 L 186.0 172.4 L 188.4 176.0 L 186.0 179.6 L 182.4 182.0 L 168.1 182.0 L 165.5 181.8 L 163.1 181.4 L 160.6 180.6 L 158.4 179.3 L 156.4 177.7 L 154.7 175.7 L 153.5 173.4 L 152.7 171.0 L 152.2 168.5 L 152.1 166.0 L 152.1 100.73921566009521 L 149.64143838882447 102.08901424407959 L 148.7 112.3 L 146.8 125.4 L 144.3 137.4 L 141.1 148.4 L 137.2 158.3 L 132.7 167.0 L 127.5 174.7 L 121.6 181.0 L 115.1 186.1 L 108.0 189.7 L 107.1 188.2 L 112.7 183.1 L 117.7 177.4 L 122.1 170.9 L 126.0 163.5 L 129.4 155.1 L 132.2 145.7 L 134.5 135.3 L 136.2 123.8 L 137.4 111.3 L 137.9559844017029 98.69768657684327 L 137.9 98.7 L 138.06363639831542 96.0 L 137.2 96.0 L 137.2 108.0 L 125.2 114.0 L 125.2 24.0 L 137.2 30.0 L 168.1 30.0 L 174.1 25.0 L 185.1 34.0 L 180.1 38.0 L 180.1 102.0 L 168.1 108.0 L 168.1 96.0 L 164.1 96.0 L 164.1 166.0 L 164.2 167.2 L 164.3 168.1 L 164.5 168.7 L 164.7 169.0 L 164.9 169.2 L 165.0 169.4 L 165.4 169.5 L 166.0 169.7 L 166.9 169.9 L 168.1 170.0 L 176.4 170.0 Z M 76.6 29.0 L 79.6 31.0 L 76.6 32.8 L 76.6 161.0 L 64.6 167.0 L 64.6 27.0 Z M 85.3 107.1 L 85.1 102.9 L 84.8 98.7 L 84.3 94.3 L 83.7 89.9 L 83.0 85.4 L 82.2 80.8 L 81.5 76.1 L 80.6 71.2 L 82.3 70.6 L 84.7 74.9 L 87.0 79.3 L 89.0 83.7 L 90.8 88.1 L 92.4 92.5 L 93.7 97.0 L 94.9 101.4 L 95.9 105.8 L 96.7 110.2 L 97.3 114.6 L 95.8 118.9 L 91.7 120.9 L 87.4 119.4 L 85.4 115.3 L 85.4 111.2 Z M 50.9 107.1 L 50.7 102.9 L 50.3 98.7 L 49.9 94.3 L 49.3 89.9 L 48.6 85.4 L 47.8 80.8 L 47.0 76.1 L 46.1 71.2 L 47.8 70.6 L 50.3 74.9 L 52.6 79.3 L 54.6 83.7 L 56.4 88.1 L 57.9 92.5 L 59.3 97.0 L 60.5 101.4 L 61.5 105.8 L 62.3 110.2 L 62.9 114.6 L 61.3 118.9 L 57.2 120.9 L 52.9 119.4 L 50.9 115.3 L 51.0 111.2 Z M 15.2 122.6 L 12.2 119.2 L 12.4 114.6 L 14.1 111.5 L 15.7 108.1 L 17.2 104.2 L 18.5 100.0 L 19.7 95.4 L 20.8 90.5 L 21.7 85.1 L 22.5 79.5 L 23.4 73.4 L 24.2 67.0 L 26.0 66.9 L 27.2 73.4 L 27.9 79.6 L 28.2 85.5 L 28.3 91.2 L 28.1 96.6 L 27.6 101.8 L 26.9 106.7 L 25.9 111.3 L 24.7 115.8 L 23.2 119.9 L 19.7 122.9 Z M 140.65 96.0 L 150.0 98.2 L 152.1 99.72068967819214 L 152.1 96.0 Z M 137.2 34.0 L 137.2 92.0 L 168.1 92.0 L 168.1 34.0 Z " />
</g>
</svg>
