<svg xmlns="http://www.w3.org/2000/svg" xmlns:xlink="http://www.w3.org/1999/xlink" version="1.1" baseProfile="full" viewBox="0 0 200 200" width="200" height="200">
<g fill="black">
<path d="M 183.0 178.0 L 183.0 182.0 L 20.0 182.0 L 20.0 178.0 L 161.0 178.0 L 171.0 168.0 Z M 155.0 154.0 L 155.0 158.0 L 39.0 158.0 L 39.0 154.0 L 133.0 154.0 L 143.0 144.0 Z M 46.0 139.0 L 34.0 145.0 L 34.0 74.0 L 46.0 80.0 L 154.0 80.0 L 160.0 75.0 L 171.0 84.0 L 166.0 88.0 L 166.0 133.0 L 154.0 139.0 L 154.0 127.0 L 46.0 127.0 Z M 46.0 105.0 L 46.0 123.0 L 93.0 123.0 L 93.0 105.0 Z M 105.0 105.0 L 105.0 123.0 L 154.0 123.0 L 154.0 105.0 Z M 46.0 84.0 L 46.0 101.0 L 93.0 101.0 L 93.0 84.0 Z M 105.0 84.0 L 105.0 101.0 L 154.0 101.0 L 154.0 84.0 Z M 49.1 63.3 L 47.4 60.5 L 45.5 57.8 L 43.5 55.1 L 41.3 52.4 L 38.9 49.7 L 36.3 46.9 L 33.6 44.1 L 30.5 41.6 L 30.907547187805175 40.875471687316896 L 30.7 41.0 L 29.6 39.6 L 32.7 36.2 L 35.6 32.8 L 41.0 26.4 L 43.4 23.4 L 45.7 20.4 L 47.9 17.6 L 49.8 14.8 L 51.6 12.1 L 52.69140748977661 10.258249855041504 L 52.6 10.2 L 53.112328720092776 9.54794521331787 L 53.2 9.4 L 53.217885398864745 9.41360034942627 L 53.7 8.8 L 62.8 16.7 L 64.0 20.1 L 59.969852924346924 19.613602924346925 L 57.8 21.7 L 55.0 24.2 L 52.1 26.6 L 49.0 29.1 L 45.7 31.5 L 42.3 34.0 L 38.6 36.3 L 34.7 38.6 L 31.953768825531007 40.247738647460935 L 35.2 41.7 L 38.9 43.3 L 42.4 45.1 L 45.8 47.2 L 48.9 49.4 L 51.9 51.7 L 54.8 54.3 L 57.4 56.9 L 59.9 59.7 L 62.2 62.7 L 62.9 67.2 L 60.2 70.9 L 55.6 71.5 L 51.9 68.8 L 50.6 66.0 Z M 102.7 63.3 L 101.0 60.5 L 99.1 57.8 L 97.1 55.1 L 94.8 52.4 L 92.4 49.7 L 89.9 46.9 L 87.2 44.1 L 84.1 41.6 L 84.50754718780517 40.875471687316896 L 84.3 41.0 L 83.2 39.6 L 86.3 36.2 L 89.1 32.8 L 91.9 29.6 L 94.5 26.4 L 97.0 23.4 L 99.3 20.4 L 101.5 17.6 L 103.4 14.8 L 105.2 12.1 L 106.29140748977662 10.258249855041504 L 106.2 10.2 L 106.71232872009277 9.54794521331787 L 106.8 9.4 L 106.81788539886475 9.41360034942627 L 107.3 8.8 L 116.4 16.7 L 117.6 20.1 L 113.56985292434692 19.613602924346925 L 111.4 21.7 L 108.6 24.2 L 105.7 26.6 L 102.6 29.1 L 99.3 31.5 L 95.8 34.0 L 92.2 36.3 L 88.3 38.6 L 85.55376882553101 40.247738647460935 L 88.8 41.7 L 92.5 43.3 L 96.0 45.1 L 99.3 47.2 L 102.5 49.4 L 105.5 51.7 L 108.3 54.3 L 111.0 56.9 L 113.5 59.7 L 115.8 62.7 L 116.4 67.2 L 113.7 70.9 L 109.2 71.5 L 105.5 68.8 L 104.2 66.0 Z M 156.2 63.3 L 154.6 60.5 L 152.7 57.8 L 150.7 55.1 L 148.4 52.4 L 146.0 49.7 L 143.4 46.9 L 140.7 44.1 L 137.7 41.6 L 138.15849056243897 40.78490562438965 L 137.8 41.0 L 136.7 39.6 L 139.9 36.2 L 142.7 32.8 L 145.5 29.6 L 148.1 26.4 L 150.6 23.4 L 152.9 20.4 L 155.0 17.6 L 157.0 14.8 L 158.8 12.1 L 159.8914074897766 10.258249855041504 L 159.8 10.2 L 160.31232872009278 9.54794521331787 L 160.4 9.4 L 160.41788539886474 9.41360034942627 L 160.9 8.8 L 170.0 16.7 L 171.2 20.1 L 167.09538459777832 19.60461540222168 L 165.0 21.7 L 162.2 24.2 L 159.3 26.6 L 156.2 29.1 L 152.9 31.5 L 149.4 34.0 L 145.8 36.3 L 141.8 38.6 L 139.09081630706788 40.22551021575928 L 142.3 41.7 L 146.1 43.3 L 149.6 45.1 L 152.9 47.2 L 156.1 49.4 L 159.1 51.7 L 161.9 54.3 L 164.6 56.9 L 167.1 59.7 L 169.4 62.7 L 170.0 67.2 L 167.3 70.9 L 162.8 71.5 L 159.1 68.8 L 157.8 66.0 Z " />
</g>
</svg>
