<svg xmlns="http://www.w3.org/2000/svg" xmlns:xlink="http://www.w3.org/1999/xlink" version="1.1" baseProfile="full" viewBox="0 0 200 200" width="200" height="200">
<g fill="black">
<path d="M 116.0 176.2 L 136.0 176.2 L 137.2 176.1 L 138.1 175.9 L 139.0 175.6 L 139.4 175.2 L 139.7 174.3 L 139.9 173.4 L 140.0 172.2 L 140.0 84.8 L 103.5 84.8 L 103.5 80.8 L 164.4 80.8 L 174.4 70.8 L 186.4 80.8 L 186.4 84.8 L 152.0 84.8 L 152.0 172.2 L 151.8 174.7 L 151.4 177.2 L 150.6 179.6 L 149.4 181.9 L 147.7 183.9 L 145.7 185.5 L 143.4 186.8 L 141.0 187.6 L 138.5 188.0 L 136.0 188.2 L 136.0 182.2 L 116.0 179.2 Z M 12.7 177.6 L 25.8 177.6 L 25.8 139.4 L 37.8 141.4 L 40.8 143.4 L 37.8 145.2 L 37.8 177.6 L 56.0 177.6 L 56.0 131.2 L 13.8 131.2 L 13.8 127.2 L 56.0 127.2 L 56.0 106.6 L 37.08333330154419 106.6 L 35.0 109.6 L 32.3 113.0 L 29.4 116.3 L 26.2 119.4 L 22.7 122.4 L 19.1 125.4 L 17.8 124.1 L 20.3 120.3 L 24.5 112.7 L 26.4 109.1 L 28.1 105.4 L 29.6 101.8 L 31.0 98.2 L 32.1 94.7 L 33.1 91.1 L 33.66825542449951 88.61388244628907 L 33.6 88.6 L 34.3 86.0 L 45.4 91.0 L 47.7 93.8 L 43.757380390167235 94.76836271286011 L 43.7 94.9 L 41.9 98.7 L 39.8 102.4 L 39.672222232818605 102.6 L 78.2 102.6 L 88.2 92.6 L 100.2 102.6 L 100.2 106.6 L 68.0 106.6 L 68.0 127.2 L 91.91818180084229 127.2 L 100.1 118.2 L 110.1 127.2 L 110.1 131.2 L 68.0 131.2 L 68.0 149.6 L 84.41818180084229 149.6 L 92.6 140.6 L 102.6 149.6 L 102.6 153.6 L 68.0 153.6 L 68.0 177.6 L 89.3 177.6 L 99.3 167.6 L 111.3 177.6 L 111.3 181.6 L 12.7 181.6 Z M 85.7 72.6 L 84.9 69.7 L 84.2 66.8 L 83.3 63.9 L 82.4 61.1 L 81.4 58.4 L 79.2 52.8 L 77.8 50.3 L 79.2 49.1 L 81.4 51.2 L 83.7 53.2 L 86.0 55.4 L 88.1 57.9 L 90.1 60.4 L 91.9 63.1 L 93.7 66.0 L 95.4 69.0 L 96.9 72.1 L 98.4 75.4 L 97.8 79.9 L 94.3 82.8 L 89.8 82.3 L 86.8 78.8 L 86.3 75.7 Z M 26.2 69.7 L 25.4 66.8 L 24.5 63.9 L 23.6 61.1 L 22.6 58.4 L 21.6 55.6 L 20.5 52.8 L 19.0 50.3 L 20.4 49.1 L 22.6 51.2 L 25.0 53.2 L 27.2 55.4 L 29.3 57.9 L 31.3 60.4 L 33.2 63.1 L 35.0 66.0 L 36.6 69.0 L 38.2 72.1 L 39.6 75.4 L 39.1 79.9 L 35.6 82.8 L 31.0 82.3 L 28.1 78.8 L 26.9 72.6 Z M 55.6 69.7 L 54.8 66.8 L 53.9 63.9 L 53.0 61.1 L 52.0 58.4 L 50.9 55.6 L 49.9 52.8 L 48.4 50.3 L 49.8 49.1 L 52.0 51.2 L 54.4 53.2 L 56.6 55.4 L 58.7 57.9 L 60.7 60.4 L 62.6 63.1 L 64.3 66.0 L 66.0 69.0 L 67.5 72.1 L 69.0 75.4 L 68.4 79.9 L 64.9 82.8 L 60.4 82.3 L 57.5 78.8 L 56.3 72.6 Z M 104.4 73.2 L 102.2 69.2 L 103.4 64.8 L 104.2 64.1 L 105.3 62.8 L 106.3 60.8 L 107.4 58.2 L 108.4 55.1 L 109.3 51.5 L 110.2 47.4 L 111.0 42.8 L 111.9 37.7 L 112.5 32.1 L 114.3 32.1 L 114.9 37.7 L 115.38461542129517 41.3 L 139.8 41.3 L 139.8 13.6 L 151.8 15.6 L 154.8 17.6 L 151.8 19.4 L 151.8 41.3 L 175.6 41.3 L 181.6 36.3 L 192.6 45.3 L 187.6 48.3 L 184.98823528289796 49.38823528289795 L 184.0 51.2 L 182.7 53.5 L 181.4 55.9 L 179.9 58.4 L 178.3 61.0 L 176.6 63.7 L 174.6 66.5 L 173.0 69.5 L 171.4 68.8 L 172.3 65.5 L 172.8 62.2 L 173.3 59.1 L 173.8 56.1 L 174.3 53.3 L 174.7 50.7 L 175.1 48.2 L 175.4 45.8 L 175.46818180084227 45.3 L 115.8 45.3 L 116.0 47.7 L 116.2 52.2 L 116.2 56.2 L 116.0 60.0 L 115.6 63.4 L 115.0 66.5 L 114.2 69.4 L 112.9 72.1 L 108.9 74.3 Z M 69.3 21.0 L 71.4 23.9 L 67.28957748413086 24.693239402770995 L 66.2 26.6 L 64.5 29.5 L 62.7 32.3 L 60.7 35.2 L 58.7 38.0 L 56.5 40.9 L 54.1 43.7 L 51.6 46.5 L 49.2 49.4 L 47.7 48.5 L 49.2 45.0 L 50.4 41.5 L 51.6 38.2 L 52.7 34.9 L 53.8 31.7 L 55.8 25.5 L 56.6 22.5 L 57.4 19.6 L 57.869979763031004 17.72008113861084 L 57.8 17.7 L 58.06666669845581 16.933333301544188 L 58.1 16.8 L 58.1115385055542 16.804326915740965 L 58.6 15.4 Z M 98.7 21.0 L 100.8 23.9 L 96.68957748413087 24.693239402770995 L 95.6 26.6 L 93.9 29.5 L 92.0 32.3 L 90.1 35.2 L 88.0 38.0 L 85.9 40.9 L 83.5 43.7 L 81.0 46.5 L 78.6 49.4 L 77.1 48.5 L 78.6 45.0 L 79.8 41.5 L 80.9 38.2 L 82.1 34.9 L 83.2 31.7 L 85.2 25.5 L 86.0 22.5 L 86.8 19.6 L 87.26338024139405 17.746478843688966 L 87.1 17.7 L 88.0 15.4 Z M 40.0 21.0 L 42.1 23.9 L 37.962908840179445 24.684620761871336 L 36.8 26.6 L 35.1 29.5 L 33.3 32.3 L 31.3 35.2 L 29.3 38.0 L 27.1 40.9 L 24.8 43.7 L 22.2 46.5 L 19.8 49.4 L 18.3 48.5 L 19.8 45.0 L 21.0 41.5 L 22.2 38.2 L 23.3 34.9 L 24.4 31.7 L 25.5 28.6 L 26.4 25.5 L 27.3 22.5 L 28.0 19.6 L 28.47002010345459 17.71991949081421 L 28.4 17.7 L 28.607692337036134 17.1692307472229 L 28.7 16.8 L 28.745549201965332 16.816929817199707 L 29.3 15.4 Z " />
</g>
</svg>
