<svg xmlns="http://www.w3.org/2000/svg" xmlns:xlink="http://www.w3.org/1999/xlink" version="1.1" baseProfile="full" viewBox="0 0 200 200" width="200" height="200">
<g fill="black">
<path d="M 69.5 160.9 L 80.2 158.6 L 91.1 156.3 L 99.0 154.70550460815429 L 99.0 32.0 L 79.0 32.0 L 79.0 28.0 L 161.0 28.0 L 171.0 18.0 L 183.0 28.0 L 183.0 32.0 L 164.0 32.0 L 164.0 141.9256410598755 L 170.0 140.9 L 181.7 139.1 L 182.2 140.8 L 170.8 144.6 L 164.0 146.725 L 164.0 186.0 L 152.0 192.0 L 152.0 150.33928575515748 L 148.4 151.4 L 137.2 154.6 L 126.2 157.8 L 115.2 160.8 L 93.6 166.8 L 82.9 169.7 L 76.30838966369629 171.44118003845216 L 75.0 175.0 L 72.3 172.5 L 67.6 161.4 Z M 16.7 139.9 L 22.8 138.4 L 29.2 136.8 L 36.0 135.2 L 43.0 133.42535209655762 L 43.0 49.0 L 18.5 49.0 L 18.5 45.0 L 64.1 45.0 L 74.1 35.0 L 86.1 45.0 L 86.1 49.0 L 55.0 49.0 L 55.0 130.48961038589476 L 58.2 129.7 L 66.2 127.7 L 74.5 125.8 L 83.2 123.9 L 92.3 122.1 L 92.9 123.8 L 84.4 127.5 L 76.1 130.9 L 68.1 134.0 L 60.4 136.9 L 52.9 139.7 L 45.8 142.3 L 38.9 144.8 L 32.3 147.1 L 26.0 149.3 L 23.977161502838136 150.00799350738527 L 22.8 153.7 L 20.0 151.4 L 14.7 140.5 Z M 111.0 113.0 L 111.0 152.2351351737976 L 124.2 149.5 L 135.5 147.3 L 146.8 145.0 L 152.0 144.05043478012084 L 152.0 113.0 Z M 111.0 70.0 L 111.0 109.0 L 152.0 109.0 L 152.0 70.0 Z M 111.0 32.0 L 111.0 66.0 L 152.0 66.0 L 152.0 32.0 Z " />
</g>
</svg>
