<svg xmlns="http://www.w3.org/2000/svg" xmlns:xlink="http://www.w3.org/1999/xlink" version="1.1" baseProfile="full" viewBox="0 0 200 200" width="200" height="200">
<g fill="black">
<path d="M 180.0 142.0 L 182.0 142.0 L 180.0 167.0 L 183.6 169.4 L 186.0 173.0 L 183.6 176.6 L 180.0 179.0 L 115.0 179.0 L 112.4 178.8 L 109.9 178.4 L 107.5 177.6 L 105.2 176.3 L 103.2 174.7 L 101.6 172.7 L 100.3 170.4 L 99.5 168.0 L 99.1 165.5 L 99.0 163.0 L 99.0 22.0 L 111.0 28.0 L 162.0 28.0 L 168.0 23.0 L 179.0 32.0 L 174.0 36.0 L 174.0 101.0 L 162.0 107.0 L 162.0 95.0 L 111.0 95.0 L 111.0 164.2 L 111.2 165.1 L 111.5 166.0 L 111.9 166.4 L 112.8 166.7 L 113.7 166.9 L 115.0 167.0 L 174.0 167.0 Z M 16.7 139.9 L 22.8 138.4 L 29.2 136.8 L 36.0 135.2 L 43.0 133.42535209655762 L 43.0 49.0 L 18.5 49.0 L 18.5 45.0 L 64.1 45.0 L 74.1 35.0 L 86.1 45.0 L 86.1 49.0 L 55.0 49.0 L 55.0 130.48961038589476 L 58.2 129.7 L 66.2 127.7 L 74.5 125.8 L 83.2 123.9 L 92.3 122.1 L 92.9 123.8 L 84.4 127.5 L 76.1 130.9 L 68.1 134.0 L 60.4 136.9 L 52.9 139.7 L 45.8 142.3 L 38.9 144.8 L 32.3 147.1 L 26.0 149.3 L 23.977161502838136 150.00799350738527 L 22.8 153.7 L 20.0 151.4 L 14.7 140.5 Z M 111.0 32.0 L 111.0 91.0 L 162.0 91.0 L 162.0 32.0 Z " />
</g>
</svg>
