<svg xmlns="http://www.w3.org/2000/svg" xmlns:xlink="http://www.w3.org/1999/xlink" version="1.1" baseProfile="full" viewBox="0 0 200 200" width="200" height="200">
<g fill="black">
<path d="M 161.6 178.6 L 153.2 175.0 L 145.2 171.1 L 137.5 166.8 L 130.1 162.1 L 123.2 157.1 L 116.6 151.8 L 110.6 146.0 L 106.0 140.73090906143187 L 106.0 183.9 L 94.0 189.9 L 94.0 146.88363637924195 L 93.1 147.8 L 86.9 153.0 L 80.1 158.0 L 72.6 162.7 L 64.5 167.0 L 55.8 171.1 L 46.4 174.8 L 36.3 178.3 L 25.6 181.3 L 14.2 183.8 L 13.7 182.1 L 24.4 177.7 L 34.4 173.2 L 43.8 168.8 L 52.4 164.3 L 60.4 159.6 L 67.6 154.8 L 74.1 149.9 L 79.9 144.9 L 84.4115385055542 140.3 L 15.0 140.3 L 15.0 136.3 L 94.0 136.3 L 94.0 117.2 L 52.35 117.2 L 50.6 119.1 L 46.8 122.7 L 42.8 126.2 L 38.4 129.6 L 33.6 132.7 L 28.5 135.6 L 27.4 134.2 L 31.2 129.9 L 34.8 125.7 L 38.1 121.6 L 41.3 117.6 L 44.1 113.7 L 46.7 109.8 L 48.9 105.9 L 50.9 102.1 L 52.6 98.3 L 53.66099548339844 95.42015504837036 L 53.6 95.4 L 53.961111068725586 94.6055555343628 L 54.0 94.5 L 54.00762367248535 94.50322799682617 L 54.6 93.2 L 65.1 99.2 L 67.0 102.3 L 63.14299144744873 102.77366771697999 L 62.8 103.4 L 60.2 107.5 L 57.3 111.5 L 55.86842107772827 113.2 L 94.0 113.2 L 94.0 91.0 L 106.0 93.0 L 109.0 95.0 L 106.0 96.8 L 106.0 113.2 L 146.0 113.2 L 156.0 103.2 L 168.0 113.2 L 168.0 117.2 L 106.0 117.2 L 106.0 136.3 L 163.0 136.3 L 173.0 126.3 L 185.0 136.3 L 185.0 140.3 L 109.43636360168458 140.3 L 113.2 142.7 L 120.1 147.0 L 127.2 151.1 L 134.4 154.9 L 141.8 158.5 L 149.5 161.8 L 157.4 164.8 L 165.5 167.5 L 173.9 169.9 L 182.6 172.1 L 191.0 174.3 L 179.3 184.8 L 170.3 181.9 Z M 165.6 87.9 L 163.6 89.0 L 161.5 89.9 L 159.3 90.7 L 157.1 91.3 L 154.9 91.8 L 152.6 92.1 L 150.3 92.3 L 148.0 92.4 L 148.0 86.4 L 128.0 83.4 L 128.0 80.4 L 149.6 80.4 L 151.2 80.2 L 152.7 80.0 L 154.2 79.6 L 155.6 79.2 L 157.1 78.7 L 158.5 78.1 L 159.9 77.4 L 161.2 76.6 L 162.6 75.7 L 163.7 74.7 L 164.9 73.1 L 166.2 70.8 L 167.4 67.8 L 168.4 64.2 L 169.3 59.9 L 170.0 54.9 L 170.5 49.3 L 170.8 43.1 L 170.94029846191407 38.4 L 135.28064517974855 38.4 L 134.1 44.5 L 131.2 53.2 L 127.3 61.1 L 122.5 68.1 L 116.7 74.3 L 110.1 79.7 L 102.6 84.1 L 94.2 87.7 L 85.1 90.2 L 75.1 91.8 L 74.8 90.1 L 83.9 86.6 L 92.1 82.7 L 99.2 78.4 L 105.4 73.7 L 110.7 68.4 L 115.0 62.7 L 118.5 56.4 L 121.1 49.5 L 122.9 42.0 L 123.38888893127441 38.4 L 93.0 38.4 L 93.0 34.4 L 123.93209877014161 34.4 L 124.0 33.9 L 124.0 12.6 L 136.0 14.6 L 139.0 16.6 L 136.0 18.4 L 136.0 34.4 L 171.0 34.4 L 177.0 29.4 L 188.0 38.4 L 183.0 41.4 L 182.85748214721679 41.45938243865967 L 182.8 43.5 L 182.5 50.2 L 181.9 56.3 L 181.1 61.9 L 180.1 67.0 L 178.7 71.7 L 177.1 75.8 L 175.0 79.5 L 172.6 82.8 L 169.6 85.4 L 167.6 86.7 Z M 16.8 75.8 L 24.5 74.6 L 32.2 73.5 L 40.0 72.3 L 51.0 70.62911396026611 L 51.0 30.2 L 19.0 30.2 L 19.0 26.2 L 71.0 26.2 L 81.0 16.2 L 93.0 26.2 L 93.0 30.2 L 63.0 30.2 L 63.0 68.83333330154419 L 63.9 68.7 L 71.9 67.5 L 80.1 66.4 L 88.4 65.4 L 96.8 64.6 L 97.1 66.3 L 89.2 69.1 L 81.2 71.7 L 73.3 74.0 L 57.5 78.2 L 49.7 80.2 L 42.0 82.2 L 26.6 85.8 L 23.069503593444825 86.6361701965332 L 21.6 90.1 L 19.0 87.6 L 14.9 76.1 Z " />
</g>
</svg>
