<svg xmlns="http://www.w3.org/2000/svg" xmlns:xlink="http://www.w3.org/1999/xlink" version="1.1" baseProfile="full" viewBox="0 0 200 200" width="200" height="200">
<g fill="black">
<path d="M 136.0 123.9 L 139.0 125.9 L 136.0 127.7 L 136.0 142.1 L 163.0 142.1 L 173.0 132.1 L 185.0 142.1 L 185.0 146.1 L 136.0 146.1 L 136.0 180.4 L 124.0 186.4 L 124.0 146.1 L 78.7027027130127 146.1 L 77.9 151.5 L 75.5 158.2 L 71.6 164.3 L 66.6 169.6 L 60.4 174.1 L 53.1 177.9 L 44.7 181.1 L 35.3 183.6 L 24.8 185.5 L 13.1 186.6 L 12.8 184.9 L 23.9 181.8 L 33.8 178.5 L 42.4 175.0 L 49.6 171.2 L 55.5 167.1 L 60.1 162.9 L 63.5 158.5 L 65.6 154.0 L 66.8 149.2 L 66.92156858444214 146.1 L 16.0 146.1 L 16.0 142.1 L 67.0 142.1 L 67.0 121.9 L 79.0 123.9 L 82.0 125.9 L 79.0 127.7 L 79.0 142.1 L 124.0 142.1 L 124.0 121.9 Z M 184.0 117.0 L 184.0 121.0 L 16.0 121.0 L 16.0 117.0 L 162.0 117.0 L 172.0 107.0 Z M 110.0 60.0 L 137.0 60.0 L 137.0 44.7527777671814 L 132.0 45.1 L 124.2 45.6 L 115.9 45.8 L 107.0 45.8 L 106.9 44.1 L 115.5 42.1 L 123.5 40.3 L 131.1 38.6 L 138.1 37.1 L 144.5 35.6 L 150.4 34.1 L 155.7 32.7 L 160.5 31.3 L 164.6 29.9 L 167.2314799308777 28.876646709442138 L 167.2 28.8 L 167.27209587097167 28.860851573944093 L 168.2 28.5 L 168.68673963546752 30.054862880706786 L 178.1 38.0 L 178.3 41.1 L 174.17407741546631 39.246324634552 L 171.8 40.0 L 167.6 40.9 L 162.9 41.7 L 157.8 42.5 L 152.1 43.3 L 149.0 43.65 L 149.0 60.0 L 159.0 60.0 L 169.0 50.0 L 181.0 60.0 L 181.0 64.0 L 149.01304349899291 64.0 L 151.1 67.2 L 154.1 71.4 L 157.4 75.3 L 160.8 78.9 L 164.5 82.1 L 168.4 85.0 L 172.5 87.6 L 177.0 89.9 L 181.7 92.0 L 187.6 94.7 L 176.2 103.9 L 170.9 100.9 L 165.9 97.4 L 161.4 93.6 L 157.4 89.5 L 153.7 85.0 L 150.6 80.2 L 149.0 77.1777777671814 L 149.0 105.0 L 137.0 111.0 L 137.0 76.83783779144287 L 135.1 79.2 L 131.2 83.6 L 127.1 87.8 L 122.7 91.8 L 118.1 95.5 L 113.2 98.9 L 108.0 102.0 L 105.0 103.47272729873657 L 105.0 117.0 L 93.0 117.0 L 93.0 25.0 L 24.0 25.0 L 24.0 21.0 L 154.0 21.0 L 164.0 11.0 L 176.0 21.0 L 176.0 25.0 L 105.0 25.0 L 105.0 99.68372097015381 L 105.7 99.0 L 109.8 94.8 L 113.7 90.6 L 117.3 86.4 L 120.8 82.1 L 124.0 77.7 L 127.0 73.3 L 129.8 68.7 L 132.3 64.0 L 110.0 64.0 Z M 72.8 86.9 L 71.6 84.9 L 70.1 82.8 L 68.3 80.6 L 66.3 78.3 L 64.0 75.9 L 62.0 73.97692308425903 L 62.0 105.0 L 50.0 111.0 L 50.0 78.4371428489685 L 47.3 81.6 L 43.5 85.7 L 39.4 89.7 L 35.2 93.6 L 30.6 97.4 L 25.8 101.1 L 20.6 104.6 L 19.3 103.3 L 23.1 98.4 L 26.8 93.7 L 30.4 89.1 L 33.7 84.6 L 36.9 80.2 L 39.9 75.9 L 42.7 71.6 L 45.3 67.3 L 47.10714282989502 64.0 L 21.0 64.0 L 21.0 60.0 L 50.0 60.0 L 50.0 44.74925374984741 L 45.3 45.1 L 38.1 45.6 L 30.3 45.8 L 22.1 45.8 L 21.8 44.1 L 29.8 42.1 L 37.3 40.3 L 44.3 38.6 L 50.8 37.1 L 56.7 35.6 L 62.1 34.2 L 66.9 32.7 L 71.2 31.3 L 74.9 30.0 L 77.10241079330444 29.005362892150877 L 77.1 29.0 L 77.1049295425415 29.00422534942627 L 78.0 28.6 L 78.59528131484986 30.281669712066652 L 87.6 38.0 L 87.8 41.1 L 83.69720401763917 39.32416296005249 L 82.0 39.9 L 78.2 40.9 L 73.9 41.7 L 69.2 42.5 L 63.9 43.3 L 62.0 43.53333330154419 L 62.0 60.0 L 67.81818180084228 60.0 L 76.0 51.0 L 86.0 60.0 L 86.0 64.0 L 62.0 64.0 L 62.0 69.21081085205078 L 63.7 69.9 L 67.1 71.4 L 70.3 73.1 L 73.2 74.8 L 76.0 76.5 L 78.4 78.3 L 80.7 80.2 L 82.8 82.2 L 84.6 84.3 L 85.2 88.9 L 82.5 92.5 L 77.9 93.1 L 74.3 90.4 L 73.6 88.7 Z " />
</g>
</svg>
