<svg xmlns="http://www.w3.org/2000/svg" xmlns:xlink="http://www.w3.org/1999/xlink" version="1.1" baseProfile="full" viewBox="0 0 200 200" width="200" height="200">
<g fill="black">
<path d="M 173.3 106.0 L 176.3 108.0 L 173.3 109.8 L 173.3 173.9 L 161.3 179.9 L 161.3 167.9 L 38.6 167.9 L 38.6 179.9 L 26.6 185.9 L 26.6 104.0 L 38.6 106.0 L 41.6 108.0 L 38.6 109.8 L 38.6 163.9 L 161.3 163.9 L 161.3 104.0 Z M 150.0 131.7 L 150.0 135.7 L 52.0 135.7 L 52.0 131.7 L 128.0 131.7 L 138.0 121.7 Z M 15.7 83.9 L 22.6 83.0 L 30.0 82.0 L 37.7 80.9 L 45.4 79.96097564697266 L 45.4 30.0 L 15.8 30.0 L 15.8 26.0 L 72.9 26.0 L 82.9 16.0 L 94.9 26.0 L 94.9 30.0 L 57.4 30.0 L 57.4 78.4333333015442 L 63.4 77.7 L 72.7 76.6 L 82.4 75.5 L 92.6 74.6 L 103.2 73.8 L 103.5 75.6 L 93.2 78.4 L 83.3 80.8 L 73.8 83.1 L 64.6 85.2 L 55.9 87.1 L 47.5 89.0 L 39.5 90.8 L 31.9 92.5 L 24.7 94.2 L 21.879245281219482 94.81320753097535 L 20.4 98.3 L 17.8 95.7 L 13.7 84.3 Z M 109.6 79.4 L 144.5 79.4 L 144.5 30.3 L 115.8 30.3 L 115.8 26.3 L 163.1 26.3 L 173.1 16.3 L 185.1 26.3 L 185.1 30.3 L 156.5 30.3 L 156.5 79.4 L 169.3 79.4 L 179.3 69.4 L 191.3 79.4 L 191.3 83.4 L 109.6 83.4 Z " />
</g>
</svg>
