<svg xmlns="http://www.w3.org/2000/svg" xmlns:xlink="http://www.w3.org/1999/xlink" version="1.1" baseProfile="full" viewBox="0 0 200 200" width="200" height="200">
<g fill="black">
<path d="M 31.6 177.0 L 47.6 177.0 L 48.8 176.9 L 49.7 176.7 L 50.6 176.4 L 51.0 176.0 L 51.3 175.1 L 51.5 174.2 L 51.6 173.0 L 51.6 111.0 L 16.3 111.0 L 16.3 107.0 L 51.6 107.0 L 51.6 76.0 L 32.6 76.0 L 32.6 72.0 L 67.2 72.0 L 77.2 62.0 L 89.2 72.0 L 89.2 76.0 L 63.6 76.0 L 63.6 107.0 L 72.0 107.0 L 82.0 97.0 L 94.0 107.0 L 94.0 111.0 L 63.6 111.0 L 63.6 173.0 L 63.4 175.5 L 63.0 178.0 L 62.2 180.4 L 60.9 182.7 L 59.3 184.7 L 57.3 186.3 L 55.0 187.6 L 52.6 188.4 L 50.1 188.8 L 47.6 189.0 L 47.6 183.0 L 31.6 180.0 Z M 176.0 129.8 L 174.9 123.8 L 173.8 118.1 L 172.6 112.7 L 171.3 107.7 L 170.0 103.0 L 168.68096628189087 98.76024894714355 L 166.7 108.5 L 164.0 119.5 L 161.0 129.7 L 157.6 139.1 L 153.8 147.6 L 149.6 155.3 L 149.0 155.0375 L 149.0 173.0 L 166.5 173.0 L 176.5 163.0 L 188.5 173.0 L 188.5 177.0 L 97.4 177.0 L 97.4 173.0 L 137.0 173.0 L 137.0 30.0 L 100.6 30.0 L 100.6 26.0 L 163.4 26.0 L 173.4 16.0 L 185.4 26.0 L 185.4 30.0 L 149.0 30.0 L 149.0 150.99130430221558 L 150.3 146.3 L 152.5 137.5 L 154.6 128.0 L 156.6 117.8 L 158.4 106.9 L 159.9 95.3 L 161.3 83.0 L 162.4 69.9 L 163.3 56.1 L 163.9 41.6 L 163.96227293014528 41.60363254547119 L 164.1 39.4 L 175.9 42.3 L 178.8 44.4 L 175.56000003814697 46.14461536407471 L 174.6 57.0 L 173.1 71.0 L 171.2 84.2 L 169.92632293701172 91.78141117095947 L 170.6 92.5 L 173.5 96.2 L 176.0 100.4 L 178.4 105.1 L 180.7 110.1 L 182.7 115.5 L 184.7 121.4 L 186.5 127.5 L 188.2 134.1 L 189.7 141.0 L 188.6 145.4 L 184.8 147.9 L 180.3 146.8 L 177.9 143.0 L 177.0 136.2 Z M 43.0 127.4 L 45.4 130.0 L 41.791917610168454 131.0953106880188 L 41.3 132.6 L 39.4 137.7 L 37.4 142.6 L 35.2 147.3 L 32.8 151.9 L 30.3 156.3 L 27.5 160.5 L 24.6 164.4 L 21.4 168.1 L 18.0 171.5 L 16.5 170.4 L 18.3 166.1 L 20.0 161.7 L 21.8 157.4 L 23.5 153.0 L 25.1 148.5 L 26.5 143.9 L 27.9 139.2 L 29.2 134.4 L 30.3 129.5 L 31.119349575042726 125.40325202941895 L 31.1 125.4 L 31.1875 125.0625 L 31.3 124.5 L 31.331320667266844 124.50776319503784 L 31.8 122.7 Z M 80.5 150.5 L 79.2 146.5 L 77.9 142.6 L 76.5 138.8 L 75.0 135.2 L 73.4 131.6 L 70.0 124.6 L 68.1 121.3 L 69.4 120.1 L 72.5 122.6 L 75.6 125.3 L 78.4 128.3 L 81.1 131.5 L 83.6 135.0 L 86.0 138.7 L 88.2 142.6 L 90.3 146.6 L 92.3 150.9 L 94.1 155.3 L 93.6 159.9 L 90.1 162.8 L 85.6 162.3 L 82.6 158.8 L 81.6 154.6 Z M 124.0 127.3 L 123.3 122.0 L 122.5 116.8 L 121.6 111.9 L 120.5 107.1 L 119.4 102.5 L 119.17179298400879 101.71005249023438 L 117.6 109.7 L 114.8 121.2 L 111.7 132.1 L 108.4 142.2 L 104.6 151.6 L 100.3 160.3 L 98.7 159.6 L 101.0 150.4 L 103.2 140.7 L 105.4 130.5 L 107.4 119.6 L 109.2 108.2 L 110.8 96.1 L 112.3 83.4 L 113.4 70.1 L 114.4 56.2 L 115.14526748657227 42.59886827468872 L 115.1 42.6 L 115.3 39.3 L 127.1 42.3 L 130.0 44.5 L 126.75893802642823 46.182859134674075 L 125.8 57.1 L 124.1 71.2 L 122.2 84.7 L 120.83073711395264 92.66662034988403 L 123.0 95.8 L 125.5 100.1 L 127.7 104.6 L 129.7 109.5 L 131.5 114.6 L 133.1 119.9 L 134.6 125.5 L 135.8 131.3 L 136.9 137.3 L 135.6 141.7 L 131.6 143.9 L 127.3 142.6 L 125.0 138.6 L 124.6 132.9 Z M 79.2 51.7 L 76.7 48.3 L 74.0 44.9 L 71.0 41.6 L 67.7 38.3 L 64.2 35.1 L 60.4 31.9 L 57.485072708129884 29.358781337738037 L 54.5 35.4 L 50.1 43.7 L 45.5 51.7 L 40.7 59.5 L 35.7 67.1 L 30.5 74.4 L 25.0 81.5 L 19.2 88.2 L 13.1 94.5 L 11.7 93.4 L 16.2 85.9 L 20.6 78.4 L 25.0 70.8 L 29.3 63.2 L 33.4 55.3 L 37.3 47.3 L 41.2 39.2 L 44.8 30.8 L 48.3 22.3 L 51.252398777008054 14.516403102874756 L 51.2 14.5 L 52.1 12.3 L 62.7 18.1 L 64.8 21.1 L 61.073524475097656 21.678246212005615 L 59.205434799194336 25.78804349899292 L 63.2 27.5 L 67.9 29.8 L 72.3 32.5 L 76.4 35.3 L 80.3 38.3 L 84.0 41.5 L 87.5 44.9 L 90.7 48.4 L 93.6 52.2 L 94.4 56.7 L 91.8 60.5 L 87.3 61.2 L 83.5 58.7 L 81.5 55.1 Z " />
</g>
</svg>
