<svg xmlns="http://www.w3.org/2000/svg" xmlns:xlink="http://www.w3.org/1999/xlink" version="1.1" baseProfile="full" viewBox="0 0 200 200" width="200" height="200">
<g fill="black">
<path d="M 113.1 184.0 L 102.1 189.5 L 102.1 23.5 L 113.1 29.0 L 164.2 29.0 L 174.2 19.0 L 186.2 29.0 L 186.2 33.0 L 156.5 33.0 L 156.5 72.0 L 169.8 72.0 L 175.8 67.0 L 186.8 76.0 L 181.8 80.0 L 181.8 131.0 L 169.8 137.0 L 169.8 125.0 L 156.5 125.0 L 156.5 168.0 L 169.2 168.0 L 179.2 158.0 L 191.2 168.0 L 191.2 172.0 L 113.1 172.0 Z M 91.6 138.0 L 93.6 138.0 L 91.6 163.0 L 95.1 165.4 L 97.6 169.0 L 95.1 172.6 L 91.6 175.0 L 36.0 175.0 L 33.4 174.8 L 30.9 174.4 L 28.5 173.6 L 26.3 172.3 L 24.3 170.7 L 22.6 168.7 L 21.4 166.4 L 20.6 164.0 L 20.1 161.5 L 20.0 159.0 L 20.0 23.0 L 32.0 29.0 L 77.0 29.0 L 83.0 24.0 L 94.0 33.0 L 89.0 37.0 L 89.0 98.0 L 77.0 104.0 L 77.0 92.0 L 32.0 92.0 L 32.0 159.0 L 32.1 160.2 L 32.2 161.1 L 32.4 161.7 L 32.6 162.0 L 32.7 162.2 L 32.9 162.4 L 33.3 162.5 L 33.9 162.7 L 34.8 162.9 L 36.0 163.0 L 85.6 163.0 Z M 113.1 33.0 L 113.1 168.0 L 144.5 168.0 L 144.5 125.0 L 134.0 125.0 L 134.0 137.0 L 123.0 142.5 L 123.0 66.5 L 134.0 72.0 L 144.5 72.0 L 144.5 33.0 Z M 134.0 121.0 L 169.8 121.0 L 169.8 76.0 L 134.0 76.0 Z M 32.0 33.0 L 32.0 88.0 L 77.0 88.0 L 77.0 33.0 Z " />
</g>
</svg>
