<svg xmlns="http://www.w3.org/2000/svg" xmlns:xlink="http://www.w3.org/1999/xlink" version="1.1" baseProfile="full" viewBox="0 0 200 200" width="200" height="200">
<g fill="black">
<path d="M 81.9 139.1 L 80.8 146.1 L 78.9 152.8 L 76.3 159.0 L 72.9 164.6 L 68.8 169.8 L 64.0 174.4 L 58.5 178.4 L 52.4 181.9 L 45.6 184.7 L 38.3 186.8 L 37.6 185.1 L 44.0 181.3 L 49.6 177.3 L 54.5 173.2 L 58.7 168.9 L 62.1 164.5 L 64.9 159.8 L 67.1 154.9 L 68.6 149.7 L 69.6 144.2 L 70.0 138.3 L 70.0 121.5 L 24.0 121.5 L 24.0 117.5 L 157.0 117.5 L 167.0 107.5 L 179.0 117.5 L 179.0 121.5 L 135.0 121.5 L 135.0 180.3 L 123.0 186.3 L 123.0 121.5 L 82.0 121.5 L 82.0 138.7 L 81.74048261642456 139.0892761230469 Z M 170.2 67.9 L 172.2 67.9 L 170.2 88.9 L 173.5 91.1 L 175.7 94.4 L 173.5 97.7 L 170.2 99.9 L 57.2 99.9 L 54.6 99.8 L 52.2 99.4 L 49.8 98.7 L 47.6 97.5 L 45.6 95.9 L 43.9 94.0 L 42.7 91.8 L 41.8 89.4 L 41.3 86.9 L 41.2 84.4 L 41.2 43.0 L 53.2 49.0 L 146.1 49.0 L 146.1 22.5 L 33.6 22.5 L 33.6 18.5 L 146.1 18.5 L 152.1 13.5 L 163.1 22.5 L 158.1 26.5 L 158.1 59.0 L 146.1 65.0 L 146.1 53.0 L 53.2 53.0 L 53.2 85.6 L 53.3 86.5 L 53.4 87.2 L 53.6 87.5 L 53.7 87.8 L 53.9 88.0 L 54.3 88.3 L 54.9 88.5 L 55.9 88.7 L 57.2 88.9 L 164.7 88.9 Z " />
</g>
</svg>
