<svg xmlns="http://www.w3.org/2000/svg" xmlns:xlink="http://www.w3.org/1999/xlink" version="1.1" baseProfile="full" viewBox="0 0 200 200" width="200" height="200">
<g fill="black">
<path d="M 45.4 174.8 L 42.9 174.4 L 40.5 173.6 L 38.2 172.3 L 36.2 170.7 L 34.6 168.7 L 33.3 166.4 L 32.5 164.0 L 32.1 161.5 L 32.0 159.0 L 32.0 23.0 L 44.0 29.0 L 152.0 29.0 L 158.0 24.0 L 169.0 33.0 L 164.0 37.0 L 164.0 98.0 L 152.0 104.0 L 152.0 92.0 L 44.0 92.0 L 44.0 160.2 L 44.2 161.1 L 44.5 162.0 L 44.9 162.4 L 45.8 162.7 L 46.7 162.9 L 48.0 163.0 L 170.0 163.0 L 176.0 138.0 L 178.0 138.0 L 176.0 163.0 L 179.6 165.4 L 182.0 169.0 L 179.6 172.6 L 176.0 175.0 L 48.0 175.0 Z M 44.0 33.0 L 44.0 88.0 L 152.0 88.0 L 152.0 33.0 Z M 101.8 71.6 L 99.4 67.4 L 96.5 63.2 L 93.2 59.2 L 89.4 55.1 L 85.1 51.2 L 80.3 47.2 L 75.1 43.2 L 69.5 39.2 L 70.2 37.6 L 77.0 39.9 L 83.2 42.7 L 88.9 45.8 L 94.3 49.3 L 99.1 53.1 L 103.5 57.1 L 107.5 61.4 L 111.0 66.0 L 114.0 70.9 L 116.5 76.1 L 116.3 80.6 L 113.0 83.8 L 108.4 83.5 L 105.3 80.2 L 103.8 75.9 Z " />
</g>
</svg>
