<svg xmlns="http://www.w3.org/2000/svg" xmlns:xlink="http://www.w3.org/1999/xlink" version="1.1" baseProfile="full" viewBox="0 0 200 200" width="200" height="200">
<g fill="black">
<path d="M 28.0 176.0 L 42.0 176.0 L 43.2 175.9 L 44.1 175.7 L 45.0 175.4 L 45.4 175.0 L 45.7 174.1 L 45.9 173.2 L 46.0 172.0 L 46.0 12.0 L 58.0 14.0 L 61.0 16.0 L 58.0 17.8 L 58.0 172.0 L 57.8 174.5 L 57.4 177.0 L 56.6 179.4 L 55.3 181.7 L 53.7 183.7 L 51.7 185.3 L 49.4 186.6 L 47.0 187.4 L 44.5 187.8 L 42.0 188.0 L 42.0 182.0 L 28.0 179.0 Z M 149.2 161.0 L 157.2 161.0 L 158.4 160.9 L 159.3 160.7 L 159.9 160.5 L 160.3 160.4 L 160.5 160.2 L 160.6 160.0 L 160.8 159.7 L 161.0 159.1 L 161.1 158.2 L 161.2 157.0 L 161.2 116.0 L 145.5 116.0 L 145.5 183.0 L 133.5 189.0 L 133.5 116.0 L 117.7 116.0 L 117.7 167.0 L 105.7 173.0 L 105.7 106.0 L 117.7 112.0 L 133.5 112.0 L 133.5 90.0 L 145.5 92.0 L 148.5 94.0 L 145.5 95.8 L 145.5 112.0 L 161.2 112.0 L 167.2 107.0 L 170.2022222518921 109.45636367797852 L 170.8 107.5 L 171.6 104.0 L 172.3 100.6 L 173.0 97.5 L 173.7 94.5 L 174.3 91.6 L 174.8 89.0 L 175.2 86.4 L 175.3043478012085 85.8 L 103.58823528289795 85.8 L 103.8 88.5 L 103.9 93.3 L 103.8 97.7 L 103.5 101.7 L 102.9 105.4 L 102.1 108.8 L 100.9 111.9 L 99.3 114.8 L 95.2 116.8 L 90.9 115.5 L 88.9 111.4 L 90.2 107.0 L 91.2 106.2 L 92.4 104.7 L 93.6 102.5 L 94.8 99.8 L 95.9 96.4 L 96.9 92.5 L 97.9 88.1 L 98.7 83.2 L 99.6 77.8 L 100.3 71.8 L 102.1 71.8 L 102.8 77.8 L 103.22857141494751 81.8 L 147.3285714149475 81.8 L 147.9 79.4 L 148.6 75.3 L 149.4 71.3 L 150.2 67.4 L 151.0 63.6 L 151.8 60.0 L 152.5 56.4 L 153.2 52.9 L 153.9 49.5 L 154.31396732330322 47.22317981719971 L 154.2 47.2 L 154.4888889312744 46.26111106872558 L 154.5 46.2 L 154.50705089569092 46.202084636688234 L 155.0 44.6 L 166.0 49.6 L 168.3 52.4 L 164.4627119064331 53.35932207107544 L 163.3 56.1 L 161.8 59.4 L 160.2 62.8 L 158.5 66.2 L 156.8 69.7 L 154.9 73.3 L 152.9 76.9 L 150.7 80.5 L 149.98157892227172 81.8 L 175.6 81.8 L 181.6 76.8 L 192.6 85.8 L 187.6 88.8 L 185.01176471710204 89.87843141555786 L 185.0 89.9 L 183.7 92.3 L 182.2 94.7 L 180.7 97.3 L 179.1 100.0 L 177.3 102.7 L 175.4 105.6 L 173.2 108.6 L 171.92529182434083 110.86614789962769 L 178.2 116.0 L 173.2 120.0 L 173.2 157.0 L 173.1 159.5 L 172.6 162.0 L 171.8 164.4 L 170.6 166.7 L 168.9 168.7 L 166.9 170.3 L 164.7 171.6 L 162.3 172.4 L 159.8 172.8 L 157.2 173.0 L 157.2 167.0 L 149.2 164.0 Z M 39.8 57.5 L 42.7 59.7 L 39.2892484664917 61.373198890686034 L 38.6 66.6 L 37.0 75.6 L 35.2 84.4 L 33.0 93.2 L 30.5 101.8 L 27.7 110.2 L 24.6 118.5 L 21.1 126.7 L 17.2 134.6 L 12.8 142.3 L 11.1 141.6 L 13.7 133.2 L 16.1 124.8 L 18.4 116.5 L 20.5 108.1 L 22.3 99.6 L 23.9 91.1 L 25.3 82.6 L 26.4 73.9 L 27.3 65.2 L 27.831800079345705 57.40026502609253 L 27.8 57.4 L 28.1 54.3 Z M 74.0 112.2 L 73.6 107.0 L 72.9 101.2 L 71.9 94.9 L 70.6 88.1 L 69.1 80.7 L 67.4 72.8 L 65.5 64.3 L 63.4 55.2 L 65.1 54.6 L 69.1 63.1 L 72.5 71.2 L 75.4 78.8 L 78.0 86.1 L 80.2 93.0 L 82.0 99.4 L 83.5 105.4 L 84.7 110.9 L 85.5 116.1 L 86.0 121.0 L 84.2 125.2 L 80.0 127.0 L 75.8 125.2 L 74.0 121.0 L 74.1 116.9 Z M 119.1 69.3 L 118.7 66.2 L 117.7 60.2 L 117.2 57.5 L 116.6 54.8 L 116.0 52.2 L 115.3 49.6 L 114.3 47.3 L 115.8 46.2 L 117.6 48.2 L 119.6 50.2 L 121.5 52.4 L 123.2 54.9 L 124.8 57.6 L 126.4 60.5 L 127.8 63.6 L 129.1 66.8 L 130.3 70.3 L 131.5 73.9 L 130.5 78.4 L 126.7 80.9 L 122.2 79.9 L 119.7 76.1 L 119.4 72.6 Z M 97.8 40.0 L 133.5 40.0 L 133.5 12.0 L 145.5 14.0 L 148.5 16.0 L 145.5 17.8 L 145.5 40.0 L 159.1 40.0 L 169.1 30.0 L 181.1 40.0 L 181.1 44.0 L 97.8 44.0 Z " />
</g>
</svg>
