<svg xmlns="http://www.w3.org/2000/svg" xmlns:xlink="http://www.w3.org/1999/xlink" version="1.1" baseProfile="full" viewBox="0 0 200 200" width="200" height="200">
<g fill="black">
<path d="M 152.5 161.1 L 151.6 163.5 L 150.4 165.8 L 148.7 167.7 L 146.7 169.4 L 144.4 170.6 L 142.0 171.4 L 139.5 171.8 L 137.0 172.0 L 137.0 166.0 L 125.0 163.0 L 125.0 160.0 L 137.0 160.0 L 138.2 159.9 L 139.1 159.7 L 139.7 159.5 L 140.3 159.2 L 140.7 158.6 L 140.9 158.0 L 141.1 157.1 L 141.2 155.8 L 141.8597701072693 123.0 L 103.5 123.0 L 103.5 185.2 L 92.5 190.7 L 92.5 123.0 L 57.0 123.0 L 57.0 165.0 L 45.0 171.0 L 45.0 112.0 L 57.0 118.0 L 57.0 119.0 L 92.5 119.0 L 92.5 100.0 L 103.5 102.0 L 106.2 104.0 L 103.5 105.72340421676635 L 103.5 119.0 L 142.0 119.0 L 148.0 114.0 L 159.0 123.0 L 154.0 126.0 L 153.02584104537965 126.40589952468872 L 153.2 156.1 L 153.0 158.6 Z M 170.6 99.6 L 168.7 101.1 L 166.7 102.3 L 164.6 103.4 L 162.4 104.3 L 160.1 105.0 L 157.8 105.5 L 155.4 105.8 L 153.0 105.9 L 153.0 99.9 L 141.0 96.9 L 141.0 93.9 L 153.0 93.9 L 155.8 93.7 L 157.2 93.4 L 158.4 93.0 L 159.6 92.5 L 160.7 92.0 L 161.8 91.3 L 162.8 90.4 L 163.9 89.5 L 164.9 88.4 L 165.0 88.2 L 165.4 87.6 L 165.8 86.5 L 166.3 85.1 L 166.8 83.3 L 167.2 81.3 L 167.7 78.9 L 168.2 76.2 L 168.6 73.2 L 168.675 72.6 L 123.5 72.6 L 123.5 109.4 L 112.5 114.9 L 112.5 72.6 L 83.0602409362793 72.6 L 83.0 73.1 L 80.7 80.9 L 77.2 87.9 L 72.4 94.2 L 66.5 99.7 L 59.5 104.4 L 51.5 108.3 L 42.4 111.5 L 32.3 113.8 L 21.1 115.4 L 20.8 113.6 L 31.3 110.2 L 40.6 106.4 L 48.6 102.4 L 55.4 98.0 L 60.9 93.3 L 65.2 88.3 L 68.4 83.0 L 70.6 77.4 L 71.54426231384278 72.6 L 37.642084980010985 72.6 L 35.9 77.4 L 22.6 78.9 L 36.0 41.8 L 43.19072160720825 49.3 L 72.0 49.3 L 72.0 33.4 L 21.0 33.4 L 21.0 29.4 L 72.0 29.4 L 72.0 11.7 L 84.0 13.7 L 87.0 15.7 L 84.0 17.5 L 84.0 29.4 L 112.5 29.4 L 112.5 11.7 L 123.5 13.7 L 126.2 15.7 L 123.5 17.423404216766357 L 123.5 29.4 L 156.0 29.4 L 162.0 24.4 L 173.0 33.4 L 168.0 37.4 L 168.0 55.3 L 156.0 61.3 L 156.0 53.3 L 123.5 53.3 L 123.5 68.6 L 169.0 68.6 L 175.0 63.6 L 186.0 72.6 L 181.0 75.6 L 180.33147630691528 75.87855157852172 L 180.0 78.0 L 179.5 81.0 L 179.0 83.8 L 178.4 86.3 L 177.7 88.6 L 177.0 90.7 L 176.2 92.7 L 175.2 94.5 L 174.0 96.2 L 172.4 98.0 Z M 112.5 68.6 L 112.5 53.3 L 84.0 53.3 L 84.0 64.8 L 83.54216871261596 68.6 Z M 84.0 33.4 L 84.0 49.3 L 112.5 49.3 L 112.5 33.4 Z M 123.5 33.4 L 123.5 49.3 L 156.0 49.3 L 156.0 33.4 Z M 44.64671812057495 53.3 L 39.093822383880614 68.6 L 71.88307695388794 68.6 L 72.0 64.8 L 72.0 53.3 Z " />
</g>
</svg>
