<svg xmlns="http://www.w3.org/2000/svg" xmlns:xlink="http://www.w3.org/1999/xlink" version="1.1" baseProfile="full" viewBox="0 0 200 200" width="200" height="200">
<g fill="black">
<path d="M 65.5 168.5 L 74.7 168.5 L 75.6 168.3 L 76.2 168.1 L 76.5 167.9 L 76.7 167.8 L 76.9 167.6 L 77.2 166.7 L 77.4 165.8 L 77.5 164.5 L 77.5 133.4 L 61.0 133.4 L 61.0 185.9 L 49.0 191.9 L 49.0 133.4 L 32.5 133.4 L 32.5 173.8 L 20.5 179.8 L 20.5 123.4 L 32.5 129.4 L 49.0 129.4 L 49.0 112.7 L 12.0 112.7 L 12.0 108.7 L 49.0 108.7 L 49.0 90.0 L 38.5 90.0 L 38.5 57.0 L 49.5 59.0 L 52.2 61.0 L 49.5 62.723404216766355 L 49.5 89.08333330154419 L 61.0 91.0 L 64.0 93.0 L 61.0 94.8 L 61.0 108.7 L 76.0 108.7 L 86.0 98.7 L 98.0 108.7 L 98.0 112.7 L 61.0 112.7 L 61.0 129.4 L 77.5 129.4 L 83.5 124.4 L 94.5 133.4 L 89.5 137.4 L 89.5 164.5 L 89.3 167.1 L 88.9 169.6 L 88.1 172.0 L 86.8 174.3 L 85.2 176.3 L 83.2 177.9 L 80.9 179.1 L 78.5 179.9 L 76.0 180.4 L 73.5 180.5 L 73.5 174.5 L 65.5 171.5 Z M 154.0 168.5 L 163.3 168.5 L 164.2 168.3 L 164.8 168.1 L 165.1 167.9 L 165.3 167.8 L 165.4 167.6 L 165.6 167.3 L 165.8 166.7 L 166.0 165.8 L 166.0 133.4 L 149.0 133.4 L 149.0 185.9 L 137.0 191.9 L 137.0 133.4 L 119.9 133.4 L 119.9 173.8 L 107.9 179.8 L 107.9 123.4 L 119.9 129.4 L 137.0 129.4 L 137.0 112.7 L 99.1 112.7 L 99.1 108.7 L 137.0 108.7 L 137.0 90.0 L 127.5 90.0 L 127.5 57.0 L 138.5 59.0 L 141.2 61.0 L 138.5 62.723404216766355 L 138.5 89.25 L 149.0 91.0 L 152.0 93.0 L 149.0 94.8 L 149.0 108.7 L 164.8 108.7 L 174.8 98.7 L 186.8 108.7 L 186.8 112.7 L 149.0 112.7 L 149.0 129.4 L 166.0 129.4 L 172.0 124.4 L 183.0 133.4 L 178.0 137.4 L 178.0 164.5 L 177.9 167.1 L 177.4 169.6 L 176.6 172.0 L 175.4 174.3 L 173.8 176.3 L 171.7 177.9 L 169.5 179.1 L 167.1 179.9 L 164.6 180.4 L 162.0 180.5 L 162.0 174.5 L 154.0 171.5 Z M 157.5 59.0 L 160.2 61.0 L 157.5 62.723404216766355 L 157.5 90.0 L 146.5 90.0 L 146.5 57.0 Z M 68.5 59.0 L 71.2 61.0 L 68.5 62.723404216766355 L 68.5 90.0 L 57.5 90.0 L 57.5 57.0 Z M 179.0 66.3 L 180.9 69.4 L 176.44691944122314 69.93744077682496 L 176.1 70.4 L 174.4 72.5 L 172.7 74.7 L 170.8 76.9 L 168.8 79.1 L 166.7 81.4 L 164.4 83.6 L 161.9 85.9 L 159.7 88.5 L 158.2 87.4 L 159.9 84.5 L 161.1 81.4 L 162.2 78.4 L 164.4 73.0 L 165.3 70.4 L 166.2 68.0 L 166.9 65.7 L 167.5 63.5 L 167.82973594665526 62.34592418670654 L 167.7 62.3 L 168.6 60.2 Z M 90.0 66.3 L 91.9 69.4 L 87.45442562103271 69.9365348815918 L 87.2 70.3 L 85.7 72.4 L 84.1 74.5 L 82.4 76.7 L 80.6 78.9 L 78.8 81.2 L 76.8 83.5 L 74.6 85.8 L 72.7 88.4 L 71.2 87.5 L 72.4 84.6 L 73.3 81.5 L 74.1 78.6 L 75.0 75.9 L 75.8 73.2 L 76.6 70.6 L 77.3 68.2 L 77.9 65.8 L 78.5 63.5 L 78.82973594665528 62.34592418670654 L 78.7 62.3 L 79.6 60.2 Z M 25.2 77.2 L 25.2 75.5 L 25.1 73.8 L 24.8 72.0 L 24.5 70.1 L 23.9 68.2 L 23.2 66.2 L 22.4 64.1 L 21.0 62.3 L 22.3 61.0 L 24.1 62.6 L 26.1 63.9 L 28.0 65.4 L 29.7 67.0 L 31.3 68.8 L 32.7 70.7 L 34.0 72.7 L 35.1 74.9 L 36.0 77.1 L 36.7 79.5 L 35.2 83.8 L 31.2 85.9 L 26.9 84.5 L 24.7 80.4 L 25.0 78.8 Z M 113.2 77.1 L 113.2 73.6 L 113.0 71.8 L 112.7 70.0 L 112.3 68.1 L 111.8 66.1 L 111.2 64.0 L 109.9 62.3 L 111.3 61.1 L 112.9 62.7 L 114.8 64.0 L 116.5 65.5 L 118.1 67.2 L 119.6 68.9 L 120.9 70.8 L 122.1 72.8 L 123.1 75.0 L 124.0 77.2 L 124.7 79.5 L 123.2 83.8 L 119.2 85.9 L 114.9 84.5 L 112.7 80.4 L 113.0 78.8 Z M 99.1 48.5 L 129.3 48.5 L 129.3 13.2 L 139.3 15.2 L 141.8 17.2 L 139.3 18.86666669845581 L 139.3 48.5 L 146.6 48.5 L 146.6 13.2 L 156.6 15.2 L 159.1 17.2 L 156.6 18.86666669845581 L 156.6 48.5 L 160.63999996185302 48.5 L 161.4 46.6 L 162.4 43.1 L 163.4 39.7 L 164.4 36.5 L 165.4 33.4 L 166.3 30.3 L 167.1 27.4 L 167.9 24.6 L 168.87328519821168 20.22021656036377 L 168.8 20.2 L 169.0333333015442 19.5 L 169.1 19.2 L 169.12965879440307 19.211023616790772 L 169.6 17.8 L 180.4 23.4 L 182.5 26.3 L 178.37565155029296 27.082204055786132 L 177.5 28.6 L 175.9 31.2 L 174.2 33.9 L 172.3 36.7 L 170.4 39.4 L 168.4 42.3 L 166.2 45.1 L 163.8 47.9 L 163.37419357299805 48.5 L 172.5777777671814 48.5 L 178.8 41.5 L 186.8 48.5 L 186.8 52.5 L 99.1 52.5 Z M 12.0 48.5 L 41.5 48.5 L 41.5 13.2 L 51.5 15.2 L 54.0 17.2 L 51.5 18.86666669845581 L 51.5 48.5 L 58.5 48.5 L 58.5 13.2 L 68.5 15.2 L 71.0 17.2 L 68.5 18.86666669845581 L 68.5 48.5 L 72.29428567886353 48.5 L 73.0 46.6 L 74.0 43.1 L 76.0 36.5 L 76.9 33.4 L 78.5 27.4 L 79.3 24.6 L 79.9 21.9 L 80.28079795837402 20.249875354766846 L 80.1 20.2 L 81.0 17.9 L 91.7 23.4 L 93.9 26.3 L 89.73078603744507 27.10458517074585 L 88.9 28.6 L 87.3 31.2 L 85.6 33.9 L 83.8 36.6 L 82.0 39.4 L 79.9 42.2 L 77.8 45.1 L 75.4 47.9 L 74.97419357299805 48.5 L 83.77777776718139 48.5 L 90.0 41.5 L 98.0 48.5 L 98.0 52.5 L 12.0 52.5 Z M 113.6 35.7 L 113.3 33.5 L 113.0 31.2 L 112.5 29.0 L 111.9 26.7 L 111.3 24.3 L 110.5 21.9 L 109.2 19.7 L 110.6 18.6 L 112.4 20.5 L 114.5 22.2 L 116.4 24.1 L 118.1 26.2 L 119.7 28.3 L 121.2 30.6 L 122.5 32.9 L 123.7 35.4 L 124.7 37.9 L 125.5 40.6 L 124.3 45.0 L 120.4 47.3 L 116.0 46.1 L 113.7 42.2 L 113.7 37.9 Z M 26.2 37.8 L 26.1 35.7 L 25.8 33.5 L 25.5 31.2 L 25.0 29.0 L 24.5 26.7 L 23.1 21.9 L 21.9 19.7 L 23.3 18.6 L 25.0 20.5 L 27.1 22.2 L 29.0 24.2 L 30.7 26.2 L 32.3 28.3 L 33.7 30.6 L 35.0 33.0 L 36.1 35.4 L 37.1 38.0 L 38.0 40.6 L 36.8 45.0 L 32.8 47.3 L 28.4 46.1 L 26.1 42.2 L 26.2 40.0 Z " />
</g>
</svg>
