<svg xmlns="http://www.w3.org/2000/svg" xmlns:xlink="http://www.w3.org/1999/xlink" version="1.1" baseProfile="full" viewBox="0 0 200 200" width="200" height="200">
<g fill="black">
<path d="M 169.3 161.7 L 165.0 155.9 L 161.0 149.9 L 157.3 143.4 L 153.9 136.5 L 150.8 129.3 L 148.1 121.7 L 147.8 120.7 L 147.8 182.0 L 135.8 188.0 L 135.8 126.25652170181274 L 132.3 132.8 L 127.1 141.0 L 121.5 148.7 L 115.4 155.9 L 108.8 162.7 L 101.7 168.9 L 94.1 174.6 L 85.9 179.7 L 84.9 178.2 L 91.6 171.7 L 98.0 165.0 L 104.0 158.2 L 109.5 151.1 L 114.6 143.7 L 119.2 136.1 L 123.4 128.1 L 127.2 119.7 L 130.5 111.1 L 132.08028173446655 106.0 L 96.1 106.0 L 96.1 102.0 L 135.8 102.0 L 135.8 38.63373489379883 L 133.9 39.0 L 125.2 40.5 L 116.2 41.9 L 106.9 43.0 L 97.2 43.8 L 96.9 42.1 L 106.2 39.3 L 115.1 36.6 L 123.8 34.1 L 132.1 31.6 L 140.0 29.2 L 147.6 26.7 L 154.9 24.2 L 161.8 21.7 L 168.4 19.2 L 173.6270318031311 17.057773876190186 L 173.6 17.0 L 173.6536392211914 17.04686918258667 L 174.5 16.7 L 175.10595664978027 18.315884494781493 L 183.9 26.0 L 184.1 29.1 L 180.15720491409303 27.367559719085694 L 178.7 27.9 L 172.1 30.0 L 165.1 32.0 L 157.8 33.9 L 150.1 35.7 L 147.8 36.194936752319336 L 147.8 102.0 L 166.3 102.0 L 176.3 92.0 L 188.3 102.0 L 188.3 106.0 L 147.8 106.0 L 147.8 108.78000001907348 L 149.6 112.2 L 153.5 119.3 L 157.3 126.1 L 161.3 132.5 L 165.3 138.5 L 169.4 144.0 L 173.7 149.1 L 178.1 153.8 L 182.6 158.1 L 187.3 162.0 L 189.4 163.8 L 178.6 171.9 L 173.8 167.0 Z M 64.0 140.0 L 74.0 140.0 L 75.2 139.9 L 76.1 139.7 L 77.0 139.4 L 77.4 139.0 L 77.7 138.1 L 77.9 137.2 L 78.0 136.0 L 78.0 54.0 L 60.0 54.0 L 60.0 183.0 L 48.0 189.0 L 48.0 54.0 L 30.0 54.0 L 30.0 147.0 L 18.0 153.0 L 18.0 44.0 L 30.0 50.0 L 48.0 50.0 L 48.0 13.0 L 60.0 15.0 L 63.0 17.0 L 60.0 18.8 L 60.0 50.0 L 78.0 50.0 L 84.0 45.0 L 95.0 54.0 L 90.0 58.0 L 90.0 136.0 L 89.8 138.5 L 89.4 141.0 L 88.6 143.4 L 87.3 145.7 L 85.7 147.7 L 83.7 149.3 L 81.4 150.6 L 79.0 151.4 L 76.5 151.8 L 74.0 152.0 L 74.0 146.0 L 64.0 143.0 Z M 182.9 48.0 L 185.0 50.9 L 181.1667893409729 51.639742374420166 L 180.9 52.2 L 178.8 56.7 L 176.6 61.3 L 174.1 66.0 L 171.5 70.9 L 168.7 76.0 L 165.7 81.2 L 162.5 86.5 L 159.0 91.9 L 155.1 97.4 L 153.5 96.5 L 155.6 90.2 L 157.7 84.1 L 159.8 78.3 L 161.8 72.8 L 163.8 67.4 L 165.6 62.3 L 167.3 57.4 L 168.9 52.7 L 170.3 48.1 L 171.6 43.8 L 171.62965879440307 43.81102361679077 L 172.1 42.4 Z M 116.1 80.0 L 115.5 77.0 L 114.6 73.8 L 113.5 70.5 L 112.1 67.1 L 110.5 63.6 L 108.7 59.9 L 106.6 56.1 L 104.2 52.3 L 105.5 51.1 L 109.0 54.2 L 112.3 57.2 L 115.3 60.3 L 118.1 63.5 L 120.5 66.8 L 122.7 70.1 L 124.5 73.5 L 126.2 77.0 L 127.5 80.5 L 128.5 84.1 L 127.3 88.6 L 123.4 90.9 L 119.0 89.7 L 116.6 85.8 L 116.5 83.0 Z " />
</g>
</svg>
