<svg xmlns="http://www.w3.org/2000/svg" xmlns:xlink="http://www.w3.org/1999/xlink" version="1.1" baseProfile="full" viewBox="0 0 200 200" width="200" height="200">
<g fill="black">
<path d="M 135.0 170.1 L 147.0 170.1 L 148.2 170.0 L 149.1 169.9 L 149.7 169.7 L 150.0 169.5 L 150.2 169.3 L 150.4 169.2 L 150.5 168.8 L 150.7 168.2 L 150.9 167.3 L 151.0 166.1 L 151.0 138.0 L 106.0 138.0 L 106.0 186.5 L 94.0 192.5 L 94.0 138.0 L 49.0 138.0 L 49.0 175.2 L 37.0 181.2 L 37.0 128.0 L 49.0 134.0 L 94.0 134.0 L 94.0 118.7 L 14.0 118.7 L 14.0 114.7 L 94.0 114.7 L 94.0 96.4 L 106.0 98.4 L 109.0 100.4 L 106.0 102.2 L 106.0 114.7 L 164.0 114.7 L 174.0 104.7 L 186.0 114.7 L 186.0 118.7 L 106.0 118.7 L 106.0 134.0 L 151.0 134.0 L 157.0 129.0 L 168.0 138.0 L 163.0 142.0 L 163.0 166.1 L 162.8 168.6 L 162.4 171.1 L 161.6 173.5 L 160.3 175.8 L 158.7 177.8 L 156.7 179.5 L 154.4 180.7 L 152.0 181.5 L 149.5 181.9 L 147.0 182.1 L 147.0 176.1 L 135.0 173.1 Z M 163.2 61.0 L 161.1 59.2 L 158.9 57.4 L 156.4 55.6 L 153.8 53.8 L 151.0 52.0 L 148.1 50.2 L 145.0 48.3 L 144.04690589904786 47.85148515701294 L 140.8 51.0 L 137.4 53.9 L 133.6 56.5 L 129.6 58.7 L 125.4 60.6 L 123.06976747512817 61.376744174957274 L 127.9 63.9 L 135.2 67.1 L 142.9 70.1 L 151.2 72.9 L 160.0 75.4 L 169.4 77.6 L 179.3 79.5 L 188.4 81.5 L 176.6 92.5 L 166.3 89.7 L 156.6 86.7 L 147.5 83.3 L 139.0 79.6 L 131.1 75.5 L 123.8 71.1 L 117.2 66.4 L 111.3 61.3 L 107.0 56.66274509429932 L 107.0 90.4 L 95.0 96.4 L 95.0 61.93728809356689 L 94.8 62.1 L 88.1 66.6 L 80.5 70.9 L 72.1 74.9 L 62.7 78.7 L 52.5 82.3 L 41.3 85.6 L 29.2 88.6 L 16.2 91.3 L 15.7 89.5 L 28.1 85.0 L 39.6 80.6 L 50.2 76.2 L 59.7 71.8 L 68.3 67.3 L 75.9 62.8 L 82.5 58.3 L 88.1 53.8 L 92.7 49.3 L 95.0 46.34285717010498 L 95.0 29.2 L 20.0 29.2 L 20.0 25.2 L 95.0 25.2 L 95.0 12.2 L 107.0 14.2 L 110.0 16.2 L 107.0 18.0 L 107.0 25.2 L 161.0 25.2 L 171.0 15.2 L 183.0 25.2 L 183.0 29.2 L 107.0 29.2 L 107.0 51.29649124145508 L 109.0 52.7 L 114.9 56.6 L 119.27929344177247 59.241478538513185 L 119.5 59.1 L 123.0 56.4 L 126.3 53.7 L 129.2 50.9 L 131.8 48.0 L 134.2 45.0 L 136.3 41.8 L 138.1 38.6 L 139.7 35.2 L 140.74408321380616 32.51521453857422 L 140.7 32.5 L 141.6 30.4 L 152.0 36.4 L 154.0 39.4 L 150.00820417404174 39.95059251785278 L 149.7 40.5 L 147.0 44.3 L 145.84813079833984 45.69018688201904 L 145.9 45.7 L 149.6 46.2 L 153.1 46.9 L 156.5 47.8 L 159.8 48.7 L 162.9 49.8 L 166.0 51.0 L 168.9 52.3 L 171.7 53.7 L 174.3 55.2 L 176.5 59.2 L 175.3 63.6 L 171.3 65.8 L 166.9 64.6 L 165.1 62.8 Z M 69.4 57.2 L 68.3 55.9 L 66.8 54.5 L 65.0 53.0 L 62.9 51.4 L 60.5 49.8 L 57.9 48.0 L 55.253267765045166 46.26593408584595 L 53.4 48.4 L 49.7 51.9 L 45.6 55.1 L 41.1 58.1 L 36.3 60.8 L 31.0 63.2 L 25.4 65.3 L 19.3 67.0 L 18.6 65.3 L 23.7 61.9 L 28.4 58.5 L 32.8 55.3 L 36.6 52.0 L 40.1 48.7 L 43.1 45.3 L 45.7 41.9 L 47.9 38.5 L 49.7 35.1 L 50.73514776229858 32.512130641937254 L 50.7 32.5 L 51.6 30.4 L 62.0 36.4 L 64.0 39.4 L 59.967914485931395 39.95614976882935 L 59.6 40.6 L 57.141100311279295 43.99158573150635 L 59.3 44.3 L 62.6 45.0 L 65.6 45.7 L 68.3 46.4 L 70.9 47.2 L 73.2 48.0 L 75.4 48.9 L 77.4 49.9 L 79.2 51.0 L 80.8 55.3 L 79.0 59.5 L 74.7 61.1 L 70.5 59.3 L 70.2 58.4 Z " />
</g>
</svg>
