<svg xmlns="http://www.w3.org/2000/svg" xmlns:xlink="http://www.w3.org/1999/xlink" version="1.1" baseProfile="full" viewBox="0 0 200 200" width="200" height="200">
<g fill="black">
<path d="M 60.8 166.9 L 68.8 166.9 L 70.0 166.8 L 70.9 166.7 L 71.5 166.5 L 71.8 166.3 L 72.0 166.2 L 72.2 166.0 L 72.3 165.6 L 72.5 165.0 L 72.7 164.1 L 72.8 162.9 L 72.8 129.5 L 60.0 129.5 L 60.0 184.8 L 48.0 190.8 L 48.0 129.5 L 35.2 129.5 L 35.2 171.7 L 23.2 177.7 L 23.2 119.5 L 35.2 125.5 L 48.0 125.5 L 48.0 111.6 L 60.0 113.6 L 63.0 115.6 L 60.0 117.4 L 60.0 125.5 L 72.8 125.5 L 78.8 120.5 L 89.8 129.5 L 84.8 133.5 L 84.8 162.9 L 84.6 165.5 L 84.2 168.0 L 83.4 170.4 L 82.1 172.6 L 80.5 174.6 L 78.5 176.3 L 76.2 177.5 L 73.8 178.3 L 71.3 178.8 L 68.8 178.9 L 68.8 172.9 L 60.8 169.9 Z M 147.8 161.8 L 155.8 161.8 L 157.0 161.7 L 157.9 161.5 L 158.8 161.2 L 159.2 160.8 L 159.5 159.9 L 159.7 159.0 L 159.8 157.8 L 159.8 113.7 L 147.0 113.7 L 147.0 183.1 L 135.0 189.1 L 135.0 113.7 L 122.2 113.7 L 122.2 167.0 L 110.2 173.0 L 110.2 103.7 L 122.2 109.7 L 135.0 109.7 L 135.0 92.4 L 147.0 94.4 L 150.0 96.4 L 147.0 98.2 L 147.0 109.7 L 159.8 109.7 L 165.8 104.7 L 176.8 113.7 L 171.8 117.7 L 171.8 157.8 L 171.6 160.3 L 171.2 162.8 L 170.4 165.2 L 169.1 167.5 L 167.5 169.5 L 165.5 171.1 L 163.2 172.4 L 160.8 173.2 L 158.3 173.6 L 155.8 173.8 L 155.8 167.8 L 147.8 164.8 Z M 55.1 75.2 L 56.96666669845581 78.0 L 79.0 78.0 L 79.05454549789428 77.95454549789429 L 79.9 76.7 L 80.27240219116212 76.93966484069824 L 85.0 73.0 L 96.0 82.0 L 91.0 85.0 L 87.24827585220336 86.56321840286255 L 85.5 88.7 L 80.3 93.6 L 74.3 98.1 L 67.7 102.2 L 60.3 105.7 L 52.3 108.9 L 43.6 111.6 L 34.1 113.9 L 24.0 115.6 L 13.1 116.8 L 12.8 115.1 L 23.2 111.9 L 32.7 108.7 L 41.5 105.4 L 49.4 101.9 L 56.6 98.2 L 62.9 94.2 L 68.3 90.1 L 73.0 85.8 L 76.20888891220093 82.0 L 50.6 82.0 L 47.7 85.0 L 44.6 87.8 L 41.1 90.3 L 37.4 92.5 L 33.3 94.5 L 28.9 96.2 L 24.2 97.5 L 19.3 98.8 L 18.6 97.1 L 23.0 94.6 L 26.8 92.0 L 30.3 89.4 L 33.4 86.7 L 36.1 84.1 L 38.4 81.4 L 40.3 78.7 L 41.9 76.0 L 43.1 73.3 L 43.69031410217285 71.52905759811401 L 43.6 71.5 L 43.975 70.675 L 44.0 70.6 L 44.00764989852905 70.6031702041626 L 44.6 69.3 Z M 161.0 86.8 L 153.3 82.0 L 146.2 76.4 L 141.34473686218263 71.61943321228027 L 135.0 76.5 L 126.6 81.6 L 117.5 85.7 L 107.7 88.7 L 97.4 90.7 L 97.0 89.0 L 106.5 85.2 L 115.2 80.8 L 123.2 75.9 L 130.4 70.5 L 135.99905214309692 65.3251184463501 L 134.0 62.8 L 128.9 54.8 L 124.6 46.1 L 121.0 36.6 L 118.61456308364868 27.5 L 105.3 27.5 L 105.3 23.5 L 159.3 23.5 L 165.3 18.5 L 176.3 27.5 L 171.3 30.5 L 169.38554916381835 31.297687816619874 L 166.8 37.7 L 161.9 47.2 L 156.3 55.8 L 149.9 63.6 L 148.4070135116577 65.05093050003052 L 152.6 68.5 L 159.2 72.7 L 166.2 76.2 L 173.5 78.9 L 181.4 80.8 L 190.0 82.9 L 178.3 93.7 L 169.3 90.7 Z M 101.0 64.0 L 101.0 68.0 L 15.0 68.0 L 15.0 64.0 L 79.0 64.0 L 89.0 54.0 Z M 52.9 17.5 L 54.7 20.7 L 50.58047332763672 20.97928991317749 L 50.56666669845581 21.0 L 77.0 21.0 L 77.11586208343506 20.90344829559326 L 77.8 19.8 L 78.16909294128418 20.025755882263184 L 83.0 16.0 L 94.0 25.0 L 89.0 28.0 L 85.4917197227478 29.461783409118652 L 83.6 31.9 L 78.4 37.3 L 72.5 42.1 L 65.8 46.5 L 58.5 50.4 L 50.4 53.9 L 41.7 56.9 L 32.2 59.4 L 22.0 61.4 L 11.1 62.8 L 10.8 61.1 L 21.1 57.7 L 30.7 54.3 L 39.4 50.7 L 47.3 47.0 L 54.4 43.0 L 60.7 38.7 L 66.2 34.3 L 70.8 29.7 L 74.54081630706787 25.0 L 47.33225803375244 25.0 L 44.9 27.6 L 41.7 30.5 L 38.3 33.2 L 34.6 35.6 L 30.6 37.8 L 26.4 39.7 L 22.0 41.3 L 17.3 42.8 L 16.6 41.1 L 20.5 38.5 L 24.0 35.6 L 27.3 32.8 L 30.2 30.0 L 32.9 27.2 L 35.3 24.3 L 37.4 21.3 L 39.3 18.3 L 40.8 15.3 L 41.71938676834107 13.107616233825684 L 41.7 13.1 L 41.839999961853025 12.819999980926514 L 42.1 12.2 L 42.14014873504639 12.219702625274659 L 42.7 11.1 Z M 120.93913040161132 27.5 L 124.8 34.9 L 129.8 43.3 L 135.0 50.9 L 140.5 57.6 L 141.75103034973145 58.8298264503479 L 142.8 57.6 L 147.9 50.2 L 152.4 42.1 L 156.3 33.2 L 158.2 27.5 Z " />
</g>
</svg>
