<svg xmlns="http://www.w3.org/2000/svg" xmlns:xlink="http://www.w3.org/1999/xlink" version="1.1" baseProfile="full" viewBox="0 0 200 200" width="200" height="200">
<g fill="black">
<path d="M 188.0 172.0 L 188.0 176.0 L 82.0 176.0 L 82.0 172.0 L 166.0 172.0 L 176.0 162.0 Z M 114.3 27.6 L 159.6 27.6 L 165.6 22.6 L 176.6 31.6 L 171.6 35.6 L 171.6 146.4 L 159.6 152.4 L 159.6 140.4 L 114.3 140.4 L 114.3 152.4 L 102.3 158.4 L 102.3 21.6 Z M 61.9 140.0 L 69.9 140.0 L 71.1 139.9 L 72.0 139.7 L 72.9 139.4 L 73.3 139.0 L 73.5 138.7 L 73.6 138.1 L 73.8 137.2 L 73.9 136.0 L 73.9 54.0 L 59.2 54.0 L 59.2 183.0 L 47.2 189.0 L 47.2 54.0 L 33.7 54.0 L 33.7 147.0 L 21.7 153.0 L 21.7 44.0 L 33.7 50.0 L 47.2 50.0 L 47.2 13.0 L 59.2 15.0 L 62.2 17.0 L 59.2 18.8 L 59.2 50.0 L 73.9 50.0 L 79.9 45.0 L 90.9 54.0 L 85.9 58.0 L 85.9 136.0 L 85.7 138.5 L 85.3 141.0 L 84.5 143.4 L 83.3 145.7 L 81.6 147.7 L 79.6 149.3 L 77.3 150.6 L 74.9 151.4 L 72.4 151.8 L 69.9 152.0 L 69.9 146.0 L 61.9 143.0 Z M 114.3 84.4 L 114.3 136.4 L 159.6 136.4 L 159.6 84.4 Z M 114.3 31.6 L 114.3 80.4 L 159.6 80.4 L 159.6 31.6 Z " />
</g>
</svg>
