<svg xmlns="http://www.w3.org/2000/svg" xmlns:xlink="http://www.w3.org/1999/xlink" version="1.1" baseProfile="full" viewBox="0 0 200 200" width="200" height="200">
<g fill="black">
<path d="M 136.9 161.4 L 150.9 161.4 L 152.1 161.3 L 153.0 161.1 L 153.6 161.0 L 154.0 160.8 L 154.2 160.6 L 154.3 160.4 L 154.5 160.1 L 154.7 159.5 L 154.8 158.6 L 154.9 157.4 L 154.9 102.2 L 106.5 102.2 L 106.5 186.3 L 94.5 192.3 L 94.5 102.2 L 46.0 102.2 L 46.0 167.0 L 34.0 173.0 L 34.0 92.2 L 46.0 98.2 L 94.5 98.2 L 94.5 77.3 L 106.5 79.3 L 109.5 81.3 L 106.5 83.1 L 106.5 98.2 L 154.9 98.2 L 160.9 93.2 L 171.9 102.2 L 166.9 106.2 L 166.9 157.4 L 166.8 159.9 L 166.3 162.4 L 165.5 164.8 L 164.3 167.1 L 162.6 169.1 L 160.6 170.8 L 158.4 172.0 L 156.0 172.8 L 153.5 173.2 L 150.9 173.4 L 150.9 167.4 L 136.9 164.4 Z M 13.6 96.0 L 12.4 91.6 L 14.5 87.6 L 16.6 86.0 L 18.7 83.8 L 20.6 80.9 L 22.5 77.4 L 24.2 73.2 L 25.7 68.3 L 27.0 62.7 L 28.1 56.5 L 29.1 49.7 L 30.1 42.3 L 31.9 42.2 L 32.9 49.8 L 33.37323942184448 55.4 L 94.0 55.4 L 94.0 13.0 L 106.0 15.0 L 109.0 17.0 L 106.0 18.8 L 106.0 55.4 L 170.0 55.4 L 170.4615385055542 55.01538457870483 L 170.5 54.9 L 170.56404228210448 54.92996473312378 L 176.0 50.4 L 187.0 59.4 L 182.0 62.4 L 179.03414630889893 63.6357723236084 L 177.9 65.4 L 175.9 68.3 L 173.8 71.4 L 171.4 74.6 L 168.9 77.9 L 166.2 81.4 L 163.2 84.9 L 160.0 88.6 L 156.7 92.5 L 155.2 91.5 L 157.3 86.9 L 159.2 82.4 L 161.1 78.3 L 162.8 74.3 L 164.5 70.5 L 166.0 67.0 L 167.3 63.7 L 168.5 60.5 L 168.9172413825989 59.4 L 33.5 59.4 L 33.5 63.5 L 33.1 69.6 L 32.4 75.3 L 31.3 80.5 L 29.7 85.3 L 27.7 89.6 L 25.1 93.5 L 22.1 96.9 L 17.7 98.2 Z M 157.4 26.1 L 158.8 29.4 L 154.35333337783814 29.246666622161865 L 153.7 29.9 L 151.5 32.0 L 148.9 34.4 L 146.1 37.1 L 142.9 39.9 L 139.4 43.0 L 135.5 46.3 L 131.1 49.8 L 126.6 53.6 L 125.3 52.3 L 128.8 47.6 L 132.0 43.1 L 134.9 39.0 L 137.6 35.2 L 140.0 31.8 L 142.2 28.6 L 144.0 25.8 L 145.4 23.4 L 146.6 21.2 L 146.97775812149047 20.39726390838623 L 146.8 20.3 L 147.9 18.7 Z M 57.2 43.5 L 55.8 40.6 L 54.3 37.8 L 52.7 34.9 L 50.8 32.2 L 48.7 29.4 L 46.5 26.6 L 44.1 23.8 L 41.3 21.2 L 42.3 19.7 L 45.8 21.5 L 49.3 23.2 L 52.6 25.2 L 55.7 27.4 L 58.6 29.8 L 61.3 32.5 L 63.9 35.3 L 66.2 38.3 L 68.4 41.5 L 70.3 44.9 L 70.3 49.4 L 67.1 52.7 L 62.5 52.7 L 59.3 49.5 L 58.3 46.5 Z " />
</g>
</svg>
