<svg xmlns="http://www.w3.org/2000/svg" xmlns:xlink="http://www.w3.org/1999/xlink" version="1.1" baseProfile="full" viewBox="0 0 200 200" width="200" height="200">
<g fill="black">
<path d="M 136.0 161.0 L 150.0 161.0 L 151.2 160.9 L 152.1 160.7 L 153.0 160.4 L 153.4 160.0 L 153.7 159.1 L 153.9 158.2 L 154.0 157.0 L 154.0 123.0 L 106.0 123.0 L 106.0 179.0 L 94.0 185.0 L 94.0 123.0 L 48.0 123.0 L 48.0 169.0 L 36.0 175.0 L 36.0 113.0 L 48.0 119.0 L 94.0 119.0 L 94.0 100.0 L 106.0 102.0 L 109.0 104.0 L 106.0 105.8 L 106.0 119.0 L 154.0 119.0 L 160.0 114.0 L 171.0 123.0 L 166.0 127.0 L 166.0 157.0 L 165.8 159.5 L 165.4 162.0 L 164.6 164.4 L 163.3 166.7 L 161.7 168.7 L 159.7 170.3 L 157.4 171.6 L 155.0 172.4 L 152.5 172.8 L 150.0 173.0 L 150.0 167.0 L 136.0 164.0 Z M 131.0 90.4 L 151.0 90.4 L 152.2 90.3 L 153.1 90.1 L 154.0 89.8 L 154.4 89.4 L 154.7 88.5 L 154.9 87.6 L 155.0 86.4 L 155.0 45.3 L 106.0 45.3 L 106.0 92.9 L 94.0 98.9 L 94.0 45.3 L 46.0 45.3 L 46.0 94.4 L 34.0 100.4 L 34.0 35.3 L 46.0 41.3 L 94.0 41.3 L 94.0 12.5 L 106.0 14.5 L 109.0 16.5 L 106.0 18.3 L 106.0 41.3 L 155.0 41.3 L 161.0 36.3 L 172.0 45.3 L 167.0 49.3 L 167.0 86.4 L 166.8 88.9 L 166.4 91.4 L 165.6 93.8 L 164.3 96.1 L 162.7 98.1 L 160.7 99.7 L 158.4 101.0 L 156.0 101.8 L 153.5 102.2 L 151.0 102.4 L 151.0 96.4 L 131.0 93.4 Z M 85.1 60.9 L 86.3 64.3 L 82.08863048553467 63.86434106826782 L 80.1 65.7 L 77.3 68.1 L 74.3 70.4 L 71.2 72.6 L 67.8 74.8 L 64.3 77.0 L 60.5 79.0 L 56.5 80.9 L 52.4 83.0 L 51.5 81.5 L 54.8 78.5 L 57.8 75.3 L 60.7 72.4 L 63.4 69.5 L 65.9 66.7 L 68.3 63.9 L 70.4 61.3 L 72.3 58.7 L 74.1 56.1 L 75.08657140731812 54.455714321136476 L 75.0 54.4 L 76.0 53.0 Z M 134.4 75.4 L 132.5 73.1 L 130.5 70.8 L 128.2 68.5 L 125.7 66.1 L 123.0 63.8 L 120.0 61.4 L 116.9 58.9 L 113.5 56.7 L 114.2 55.0 L 118.2 56.3 L 122.2 57.5 L 125.9 58.9 L 129.4 60.5 L 132.8 62.2 L 135.9 64.0 L 138.9 65.9 L 141.7 68.0 L 144.4 70.3 L 146.8 72.6 L 148.0 77.0 L 145.8 81.0 L 141.4 82.2 L 137.4 80.0 L 136.0 77.7 Z M 61.0 35.7 L 58.8 33.7 L 56.5 31.7 L 54.0 29.6 L 51.3 27.6 L 48.4 25.5 L 45.3 23.4 L 42.1 21.2 L 38.6 19.3 L 39.2 17.6 L 43.2 18.6 L 47.1 19.4 L 50.8 20.4 L 54.4 21.6 L 57.8 22.9 L 61.1 24.2 L 64.2 25.7 L 67.2 27.3 L 70.0 29.0 L 72.7 30.8 L 74.6 34.9 L 73.2 39.3 L 69.0 41.2 L 64.7 39.7 L 62.9 37.7 Z M 157.8 24.5 L 158.0 28.1 L 154.12608699798585 26.521739101409914 L 152.3 27.5 L 149.4 29.1 L 146.2 30.7 L 142.9 32.3 L 139.4 33.9 L 135.7 35.6 L 131.8 37.2 L 127.6 38.8 L 123.4 40.6 L 122.5 39.0 L 126.1 36.2 L 129.4 33.3 L 132.6 30.6 L 135.7 28.1 L 138.6 25.6 L 141.4 23.3 L 143.9 21.1 L 146.3 18.9 L 148.5 16.9 L 149.79473686218262 15.605263137817383 L 149.7 15.5 L 150.3 15.1 L 150.5 14.9 L 150.53364057540892 14.944239616394043 L 150.6 14.9 Z " />
</g>
</svg>
