<svg xmlns="http://www.w3.org/2000/svg" xmlns:xlink="http://www.w3.org/1999/xlink" version="1.1" baseProfile="full" viewBox="0 0 200 200" width="200" height="200">
<g fill="black">
<path d="M 148.7470881462097 109.35174713134765 L 148.2 117.9 L 148.09419355392455 118.66709680557251 L 149.6 127.2 L 152.0 136.5 L 155.0 144.9 L 158.6 152.3 L 162.7 158.9 L 167.4 164.6 L 172.7 169.6 L 178.6 173.7 L 185.1 177.2 L 190.5 179.9 L 179.2 189.0 L 171.6 184.1 L 164.8 178.3 L 159.0 171.8 L 154.1 164.4 L 150.1 156.4 L 147.1 147.6 L 145.0 138.1 L 144.86201105117797 136.93859281539918 L 144.1 140.2 L 140.7 150.0 L 136.4 158.9 L 131.3 166.7 L 125.2 173.5 L 118.3 179.2 L 110.6 183.6 L 102.1 186.9 L 101.4 185.2 L 108.6 180.4 L 114.9 175.0 L 120.4 169.1 L 125.0 162.4 L 128.9 155.0 L 132.0 146.8 L 134.4 137.8 L 136.0 127.9 L 136.9 117.1 L 137.0 105.4 L 137.0 103.0 L 149.0 105.4 L 152.0 107.4 Z M 67.8 156.0 L 77.8 156.0 L 79.0 155.9 L 79.9 155.7 L 80.5 155.5 L 80.9 155.4 L 81.0 155.2 L 81.2 155.0 L 81.4 154.7 L 81.6 154.1 L 81.7 153.2 L 81.8 152.0 L 81.8 83.0 L 62.7 83.0 L 62.7 183.0 L 50.7 189.0 L 50.7 83.0 L 32.5 83.0 L 32.5 165.0 L 20.5 171.0 L 20.5 73.0 L 32.5 79.0 L 50.7 79.0 L 50.7 51.0 L 12.8 51.0 L 12.8 47.0 L 50.7 47.0 L 50.7 14.0 L 62.7 16.0 L 65.7 18.0 L 62.7 19.8 L 62.7 47.0 L 84.21818180084229 47.0 L 92.4 38.0 L 102.4 47.0 L 102.4 51.0 L 62.7 51.0 L 62.7 79.0 L 81.8 79.0 L 87.8 74.0 L 98.8 83.0 L 93.8 87.0 L 93.8 152.0 L 93.7 154.5 L 93.2 157.0 L 92.4 159.4 L 91.2 161.7 L 89.5 163.7 L 87.5 165.3 L 85.3 166.6 L 82.8 167.4 L 80.4 167.8 L 77.8 168.0 L 77.8 162.0 L 67.8 159.0 Z M 183.3 92.2 L 180.9 95.8 L 177.3 98.2 L 125.5 98.2 L 122.9 98.0 L 120.5 97.6 L 118.0 96.8 L 115.8 95.6 L 113.8 93.9 L 112.1 91.9 L 110.9 89.6 L 110.1 87.2 L 109.6 84.7 L 109.5 82.2 L 109.5 36.0 L 100.8 36.0 L 100.8 32.0 L 137.0 32.0 L 137.0 14.2 L 149.0 16.2 L 152.0 18.2 L 149.0 20.0 L 149.0 32.0 L 163.1 32.0 L 173.1 22.0 L 185.1 32.0 L 185.1 36.0 L 121.5 36.0 L 121.5 82.2 L 121.6 83.4 L 121.7 84.3 L 121.9 84.9 L 122.1 85.2 L 122.3 85.4 L 122.4 85.6 L 122.8 85.7 L 123.4 85.9 L 124.3 86.1 L 125.5 86.2 L 177.3 86.2 L 180.9 88.6 Z " />
</g>
</svg>
