<svg xmlns="http://www.w3.org/2000/svg" xmlns:xlink="http://www.w3.org/1999/xlink" version="1.1" baseProfile="full" viewBox="0 0 200 200" width="200" height="200">
<g fill="black">
<path d="M 59.2 17.3 L 61.1 20.3 L 56.9983006477356 20.865751647949217 L 55.6 23.0 L 53.6 25.9 L 51.5 28.8 L 49.3 31.7 L 46.9 34.6 L 44.4 37.6 L 41.7 40.5 L 38.7 43.4 L 38.13870964050293 44.0 L 64.3 44.0 L 70.3 39.0 L 81.3 48.0 L 76.3 52.0 L 76.3 92.0 L 64.3 98.0 L 64.3 86.0 L 29.7 86.0 L 29.7 113.0 L 67.1 113.0 L 73.1 108.0 L 84.1 117.0 L 79.1 121.0 L 79.1 166.0 L 67.1 172.0 L 67.1 160.0 L 29.7 160.0 L 29.7 172.0 L 17.7 178.0 L 17.7 38.0 L 29.7 44.0 L 35.118918895721436 44.0 L 36.3 41.7 L 37.9 38.0 L 39.6 34.4 L 41.1 31.0 L 42.6 27.7 L 43.9 24.4 L 45.2 21.3 L 46.3 18.2 L 47.3 15.3 L 47.908837985992434 13.338188743591308 L 47.8 13.3 L 48.14653463363648 12.57227725982666 L 48.2 12.4 L 48.223571395874025 12.410499954223633 L 48.8 11.2 Z M 148.9 159.0 L 158.9 159.0 L 160.2 158.9 L 161.1 158.7 L 162.0 158.4 L 162.2 158.2 L 162.3 158.0 L 162.5 157.7 L 162.7 157.1 L 162.9 156.2 L 162.9 121.0 L 142.0 121.0 L 142.0 183.0 L 130.0 189.0 L 130.0 121.0 L 110.1 121.0 L 110.1 164.0 L 98.1 170.0 L 98.1 111.0 L 110.1 117.0 L 130.0 117.0 L 130.0 93.0 L 99.33611106872559 93.0 L 99.6 94.9 L 99.7 98.4 L 99.4 102.0 L 98.8 105.6 L 97.8 109.1 L 96.4 112.6 L 94.7 116.0 L 90.8 118.4 L 86.4 117.4 L 84.0 113.5 L 84.9 109.0 L 86.7 106.9 L 88.4 104.7 L 89.8 102.4 L 91.0 99.9 L 92.1 97.2 L 92.9 94.4 L 93.6 91.4 L 94.0 88.2 L 94.3 84.7 L 94.0 81.1 L 95.8 80.7 L 97.0 84.2 L 98.3 87.7 L 98.58888893127441 89.0 L 173.3 89.0 L 173.74210529327394 88.63157892227173 L 173.8 88.4 L 173.94089307785035 88.46592245101928 L 179.3 84.0 L 190.3 93.0 L 185.3 96.0 L 181.66999998092652 97.5125 L 181.6 97.6 L 179.9 99.7 L 178.0 101.8 L 173.9 105.9 L 171.6 108.0 L 169.1 110.1 L 166.5 112.2 L 164.0 114.5 L 162.6 113.4 L 164.5 110.6 L 167.4 104.8 L 168.7 102.1 L 170.9 97.1 L 171.8 94.8 L 172.42608699798583 93.0 L 142.0 93.0 L 142.0 117.0 L 162.9 117.0 L 168.9 112.0 L 179.9 121.0 L 174.9 125.0 L 174.9 155.0 L 174.8 157.5 L 174.4 160.0 L 173.5 162.4 L 172.3 164.7 L 170.7 166.7 L 168.7 168.3 L 166.4 169.6 L 164.0 170.4 L 161.5 170.8 L 158.9 171.0 L 158.9 165.0 L 148.9 162.0 Z M 29.7 117.0 L 29.7 156.0 L 67.1 156.0 L 67.1 117.0 Z M 29.7 48.0 L 29.7 82.0 L 64.3 82.0 L 64.3 48.0 Z M 179.0 27.0 L 174.0 31.0 L 174.0 74.0 L 162.0 80.0 L 162.0 72.0 L 98.4 72.0 L 98.4 68.0 L 162.0 68.0 L 162.0 49.0 L 102.2 49.0 L 102.2 45.0 L 162.0 45.0 L 162.0 27.0 L 98.4 27.0 L 98.4 23.0 L 162.0 23.0 L 168.0 18.0 Z " />
</g>
</svg>
