<svg xmlns="http://www.w3.org/2000/svg" xmlns:xlink="http://www.w3.org/1999/xlink" version="1.1" baseProfile="full" viewBox="0 0 200 200" width="200" height="200">
<g fill="black">
<path d="M 32.4 126.1 L 32.4 170.35769233703613 L 37.5 169.9 L 40.4 169.64303798675536 L 40.4 126.1 Z M 151.5 158.0 L 159.5 158.0 L 160.8 157.9 L 161.7 157.7 L 162.6 157.4 L 162.8 157.2 L 162.9 157.0 L 163.1 156.7 L 163.3 156.1 L 163.5 155.2 L 163.5 120.0 L 148.6 120.0 L 148.6 182.0 L 136.6 188.0 L 136.6 120.0 L 122.4 120.0 L 122.4 163.0 L 110.4 169.0 L 110.4 113.54615383148193 L 110.0 114.5 L 106.3 117.2 L 101.7 116.5 L 100.09601993560791 114.2174129486084 L 89.3 122.7 L 85.75882349014282 120.06470584869385 L 92.8 126.1 L 87.8 129.6 L 87.8 166.30454549789428 L 87.9 166.3 L 97.0 166.1 L 97.2 167.9 L 88.4 170.1 L 87.8 170.23255815505982 L 87.8 170.3 L 87.49473686218262 170.3 L 79.8 172.0 L 71.3 173.8 L 62.9 175.4 L 54.7 176.9 L 46.7 178.4 L 38.8 179.8 L 31.1 181.2 L 23.5 182.6 L 20.229963111877442 183.1823353767395 L 18.6 186.6 L 16.2 183.9 L 12.6 172.3 L 14.6 172.0 L 21.4 171.35675678253173 L 21.4 117.87209300994873 L 17.2 120.9 L 12.7 123.6 L 11.5 122.3 L 14.7 118.2 L 17.7 114.2 L 20.4 110.2 L 23.0 106.3 L 25.2 102.3 L 27.2 98.2 L 29.0 94.2 L 30.5 90.0 L 31.7 85.8 L 32.7 81.5 L 32.76444444656372 81.51777782440186 L 33.2 79.9 L 44.3 84.7 L 46.6 87.4 L 42.88999996185303 88.46000003814697 L 42.5 89.5 L 40.3 94.1 L 37.9 98.6 L 35.2 102.8 L 32.2 106.9 L 28.9 110.8 L 25.3 114.4 L 22.324528312683107 117.06226415634156 L 32.4 122.1 L 76.8 122.1 L 82.3 117.1 L 82.87272729873658 117.59090909957885 L 81.1 116.0 L 77.6 112.2 L 74.6 108.0 L 72.0 103.6 L 69.9 98.9 L 68.3 94.0 L 67.1 88.9 L 66.6 83.5 L 66.6 78.8 L 41.6 78.8 L 41.6 74.8 L 62.58000001907349 74.8 L 67.5 70.7 L 78.5 79.7 L 73.5 82.7 L 71.01327438354492 83.94336280822753 L 72.5 87.2 L 74.7 91.4 L 77.1 95.2 L 79.7 98.7 L 82.5 101.8 L 85.5 104.6 L 88.7 107.1 L 92.1 109.3 L 95.9 111.2 L 99.43280000686646 113.27360000610352 L 99.1 112.8 L 99.8 108.2 L 101.3 106.3 L 102.7 104.3 L 103.9 102.1 L 105.0 99.6 L 106.0 97.1 L 106.7 94.3 L 107.4 91.3 L 107.8 88.1 L 108.2 84.7 L 108.0 81.1 L 109.8 80.8 L 110.8 84.3 L 112.0 87.7 L 112.29714288711548 89.0 L 172.0 89.0 L 178.0 84.0 L 189.0 93.0 L 184.0 96.0 L 180.80677967071534 97.33050851821899 L 179.4 99.3 L 176.0 103.3 L 174.1 105.4 L 172.1 107.4 L 170.0 109.4 L 167.7 111.3 L 165.6 113.5 L 164.2 112.4 L 165.7 109.9 L 166.8 107.1 L 167.8 104.5 L 168.8 102.0 L 170.4 97.2 L 171.1 95.0 L 171.55454549789428 93.0 L 113.06470584869385 93.0 L 113.3 94.6 L 113.5 98.1 L 113.4 101.4 L 113.0 104.8 L 112.3 108.1 L 111.55 110.575 L 122.4 116.0 L 136.6 116.0 L 136.6 96.0 L 148.6 98.0 L 151.6 100.0 L 148.6 101.8 L 148.6 116.0 L 163.5 116.0 L 169.5 111.0 L 180.5 120.0 L 175.5 124.0 L 175.5 154.0 L 175.4 156.5 L 175.0 159.0 L 174.2 161.4 L 172.9 163.7 L 171.3 165.7 L 169.3 167.3 L 167.0 168.6 L 164.6 169.4 L 162.1 169.8 L 159.5 170.0 L 159.5 164.0 L 151.5 161.0 Z M 50.4 126.1 L 50.4 168.7731707572937 L 53.6 168.5 L 58.9 168.11686744689942 L 58.9 126.1 Z M 68.9 126.1 L 68.9 167.3235294342041 L 70.4 167.2 L 76.8 166.83218393325805 L 76.8 126.1 Z M 176.7 27.0 L 171.7 31.0 L 171.7 45.0 L 176.0 45.0 L 180.5 39.0 L 186.5 45.0 L 186.5 49.0 L 171.7 49.0 L 171.7 74.0 L 159.7 80.0 L 159.7 72.0 L 114.9 72.0 L 114.9 68.0 L 159.7 68.0 L 159.7 49.0 L 104.9 49.0 L 104.9 45.0 L 159.7 45.0 L 159.7 27.0 L 114.9 27.0 L 114.9 23.0 L 159.7 23.0 L 165.7 18.0 Z M 45.6 31.5 L 48.0 34.2 L 44.37246532440186 35.38719320297241 L 43.8 37.2 L 41.7 42.6 L 39.4 47.9 L 36.7 52.9 L 33.8 57.8 L 30.6 62.4 L 27.0 66.8 L 23.2 70.9 L 19.0 74.7 L 14.4 78.1 L 13.1 76.9 L 16.2 72.2 L 19.0 67.6 L 21.7 63.0 L 24.1 58.4 L 26.4 53.7 L 28.4 48.9 L 30.1 44.1 L 31.6 39.1 L 32.9 34.0 L 33.707486629486084 29.80106954574585 L 33.7 29.8 L 33.75714282989502 29.54285717010498 L 33.9 28.8 L 33.92113819122314 28.80487804412842 L 34.3 27.1 Z M 67.3 77.78333330154419 L 67.5 77.75 L 67.5 77.7 L 67.3 77.63333330154418 Z M 80.9 68.1 L 77.6 63.7 L 74.7 58.9 L 72.2 53.8 L 70.2 48.4 L 68.6 42.8 L 67.5 36.8 L 67.0 30.5 L 67.17272729873658 24.8 L 42.8 24.8 L 42.8 20.8 L 63.3 20.8 L 68.1 16.8 L 79.1 25.8 L 74.1 28.8 L 71.29701490402222 30.201492500305175 L 73.3 35.3 L 75.5 40.5 L 77.9 45.2 L 80.4 49.5 L 83.2 53.3 L 86.2 56.8 L 89.4 59.9 L 92.9 62.6 L 96.5 65.0 L 100.0 67.4 L 89.0 75.8 L 84.8 72.2 Z M 73.2 56.0 L 73.2 60.0 L 37.6 60.0 L 37.6 56.0 L 58.977777767181394 56.0 L 65.2 49.0 Z M 68.0 23.811111068725587 L 68.1 23.8 L 68.0 23.76666669845581 Z " />
</g>
</svg>
