<svg xmlns="http://www.w3.org/2000/svg" xmlns:xlink="http://www.w3.org/1999/xlink" version="1.1" baseProfile="full" viewBox="0 0 200 200" width="200" height="200">
<g fill="black">
<path d="M 102.8 32.0 L 102.8 36.0 L 87.2 36.0 L 87.2 92.0 L 92.11818180084228 92.0 L 100.3 83.0 L 110.3 92.0 L 110.3 96.0 L 87.2 96.0 L 87.2 183.0 L 75.2 189.0 L 75.2 96.0 L 62.9 96.0 L 62.9 92.0 L 75.2 92.0 L 75.2 36.0 L 61.8 36.0 L 61.8 32.0 L 84.61818180084228 32.0 L 92.8 23.0 Z M 56.7 32.0 L 56.7 36.0 L 43.9 36.0 L 43.9 92.0 L 46.477777767181394 92.0 L 52.7 85.0 L 60.7 92.0 L 60.7 96.0 L 43.81366910934448 96.0 L 43.3 107.9 L 42.2 120.9 L 40.5 132.9 L 38.3 144.0 L 35.5 154.1 L 32.2 163.2 L 28.3 171.3 L 23.7 178.3 L 18.5 184.1 L 12.8 188.6 L 11.6 187.3 L 15.6 181.7 L 19.2 175.4 L 22.3 168.4 L 25.1 160.6 L 27.4 151.8 L 29.2 142.2 L 30.6 131.6 L 31.5 120.0 L 31.9 107.4 L 31.9 96.0 L 11.1 96.0 L 11.1 92.0 L 31.9 92.0 L 31.9 36.0 L 15.6 36.0 L 15.6 32.0 L 38.518181800842285 32.0 L 46.7 23.0 Z M 144.3 133.7 L 145.9 136.9 L 142.16453762054442 137.02880907058716 L 140.9 139.0 L 137.4 144.3 L 133.5 149.7 L 129.4 155.1 L 125.1 160.6 L 120.4 166.2 L 115.5 171.8 L 110.3 177.4 L 104.7 183.0 L 98.7 188.5 L 97.4 187.4 L 101.8 180.6 L 106.1 174.1 L 110.3 167.8 L 114.4 161.7 L 118.2 155.7 L 121.7 149.9 L 125.1 144.2 L 128.2 138.6 L 131.1 133.2 L 133.7 127.9 L 133.77668809890747 127.94196138381957 L 134.3 127.0 Z M 176.2 170.8 L 174.8 166.6 L 173.0 162.3 L 171.0 157.8 L 168.6 153.1 L 165.9 148.3 L 163.0 143.2 L 159.8 137.9 L 156.5 132.3 L 157.8 131.1 L 162.8 135.5 L 167.3 140.0 L 171.3 144.5 L 175.0 149.0 L 178.3 153.5 L 181.2 158.0 L 183.9 162.4 L 186.1 166.8 L 188.1 171.2 L 189.7 175.5 L 189.0 180.1 L 185.4 182.9 L 180.9 182.2 L 178.1 178.5 L 177.3 174.8 Z M 129.2 27.0 L 167.5 27.0 L 173.5 22.0 L 184.5 31.0 L 179.5 35.0 L 179.5 112.0 L 167.5 118.0 L 167.5 106.0 L 129.2 106.0 L 129.2 118.0 L 117.2 124.0 L 117.2 21.0 Z M 129.2 31.0 L 129.2 102.0 L 167.5 102.0 L 167.5 31.0 Z " />
</g>
</svg>
