<svg xmlns="http://www.w3.org/2000/svg" xmlns:xlink="http://www.w3.org/1999/xlink" version="1.1" baseProfile="full" viewBox="0 0 200 200" width="200" height="200">
<g fill="black">
<path d="M 174.0 129.3 L 174.0 133.3 L 142.0 133.3 L 142.0 151.5 L 165.0 151.5 L 175.0 141.5 L 187.0 151.5 L 187.0 155.5 L 142.0 155.5 L 142.0 184.5 L 130.0 190.5 L 130.0 155.5 L 104.0 155.5 L 104.0 151.5 L 130.0 151.5 L 130.0 133.3 L 102.0 133.3 L 102.0 129.3 L 155.8181818008423 129.3 L 164.0 120.3 Z M 93.0 129.3 L 93.0 133.3 L 61.0 133.3 L 61.0 151.5 L 78.0 151.5 L 88.0 141.5 L 100.0 151.5 L 100.0 155.5 L 61.0 155.5 L 61.0 184.5 L 49.0 190.5 L 49.0 155.5 L 13.0 155.5 L 13.0 151.5 L 49.0 151.5 L 49.0 133.3 L 21.0 133.3 L 21.0 129.3 L 74.81818180084228 129.3 L 83.0 120.3 Z M 81.0 104.0 L 107.0 104.0 L 107.0 85.6 L 100.0 85.6 L 100.0 81.6 L 138.0 81.6 L 138.0 69.2 L 150.0 71.2 L 153.0 73.2 L 150.0 75.0 L 150.0 81.6 L 159.8181818008423 81.6 L 168.0 72.6 L 178.0 81.6 L 178.0 85.6 L 150.0 85.6 L 150.0 104.0 L 171.7777777671814 104.0 L 178.0 97.0 L 186.0 104.0 L 186.0 108.0 L 150.0 108.0 L 150.0 119.6 L 138.0 125.6 L 138.0 108.0 L 81.0 108.0 Z M 65.2 72.6 L 66.5 76.0 L 62.60227365493775 75.60362100601196 L 62.0 76.3 L 59.9 78.4 L 83.0 78.4 L 83.11791906356811 78.30173406600952 L 83.9 77.1 L 84.26992235183715 77.3417314529419 L 89.0 73.4 L 100.0 82.4 L 95.0 85.4 L 91.5720588684082 86.8283088684082 L 88.8 90.4 L 83.0 96.7 L 76.6 102.3 L 69.8 107.3 L 62.4 111.7 L 54.5 115.5 L 46.1 118.7 L 37.3 121.2 L 27.9 123.1 L 18.1 124.2 L 17.8 122.4 L 27.0 119.4 L 35.7 116.1 L 43.7 112.6 L 51.1 108.7 L 58.0 104.4 L 59.74099588394165 103.12879667282104 L 59.5 103.2 L 55.4 101.2 L 55.0 100.0 L 54.4 98.8 L 53.6 97.5 L 52.7 96.3 L 51.6 95.0 L 50.4 93.6 L 49.0 92.3 L 47.4 90.9 L 46.05120210647583 89.78922529220581 L 42.0 92.4 L 37.2 95.1 L 32.3 97.6 L 27.0 99.8 L 21.4 101.7 L 20.5 100.1 L 25.1 96.5 L 29.4 93.0 L 33.6 89.6 L 37.5 86.3 L 41.1 82.9 L 44.5 79.5 L 47.7 76.0 L 50.5 72.6 L 53.2 69.1 L 53.711111068725586 68.3 L 21.0 68.3 L 21.0 64.3 L 47.0 64.3 L 47.0 47.8 L 16.0 47.8 L 16.0 43.8 L 47.0 43.8 L 47.0 28.86470584869385 L 46.0 29.6 L 42.3 32.0 L 38.3 34.5 L 34.0 36.9 L 29.3 39.1 L 24.4 41.5 L 23.5 40.0 L 27.5 36.4 L 31.2 32.9 L 34.6 29.6 L 37.8 26.5 L 40.7 23.5 L 43.2 20.5 L 45.5 17.7 L 47.4 15.0 L 49.1 12.5 L 49.92485942840576 10.913731861114503 L 49.9 10.9 L 50.09047622680664 10.59523811340332 L 50.4 10.0 L 50.44405288696289 10.02951545715332 L 50.9 9.3 L 60.4 16.7 L 61.8 20.1 L 57.517741966247556 19.882258033752443 L 55.4 22.0 L 53.776000022888184 23.4 L 153.0 23.4 L 163.0 13.4 L 175.0 23.4 L 175.0 27.4 L 152.0 27.4 L 152.0 43.8 L 167.8181818008423 43.8 L 176.0 34.8 L 186.0 43.8 L 186.0 47.8 L 152.0 47.8 L 152.0 64.3 L 167.7777777671814 64.3 L 174.0 57.3 L 182.0 64.3 L 182.0 68.3 L 60.062337684631345 68.3 Z M 119.0 85.6 L 119.0 104.0 L 138.0 104.0 L 138.0 85.6 Z M 55.594117641448975 82.4 L 54.7 83.2 L 50.7 86.4 L 49.03143568038941 87.63155937194824 L 51.0 87.9 L 53.2 88.3 L 55.3 88.8 L 57.3 89.5 L 59.2 90.3 L 61.1 91.2 L 62.9 92.2 L 64.6 93.4 L 65.9 97.8 L 65.40797262191772 98.80865602493286 L 70.0 94.7 L 75.2 89.3 L 79.8 83.4 L 80.45079364776612 82.4 Z M 59.0 47.8 L 59.0 64.3 L 78.0 64.3 L 78.0 47.8 Z M 90.0 47.8 L 90.0 64.3 L 109.0 64.3 L 109.0 47.8 Z M 121.0 47.8 L 121.0 64.3 L 140.0 64.3 L 140.0 47.8 Z M 59.0 27.4 L 59.0 43.8 L 78.0 43.8 L 78.0 27.4 Z M 90.0 27.4 L 90.0 43.8 L 109.0 43.8 L 109.0 27.4 Z M 121.0 27.4 L 121.0 43.8 L 140.0 43.8 L 140.0 27.4 Z " />
</g>
</svg>
