<svg xmlns="http://www.w3.org/2000/svg" xmlns:xlink="http://www.w3.org/1999/xlink" version="1.1" baseProfile="full" viewBox="0 0 200 200" width="200" height="200">
<g fill="black">
<path d="M 92.4 30.0 L 92.4 34.0 L 62.0 34.0 L 62.0 93.0 L 78.2 93.0 L 88.2 83.0 L 100.2 93.0 L 100.2 97.0 L 62.0 97.0 L 62.0 182.0 L 50.0 188.0 L 50.0 97.0 L 11.8 97.0 L 11.8 93.0 L 50.0 93.0 L 50.0 34.0 L 19.6 34.0 L 19.6 30.0 L 70.4 30.0 L 80.4 20.0 Z M 168.2 180.7 L 166.4 182.3 L 164.5 183.8 L 162.5 185.1 L 160.3 186.1 L 158.0 186.9 L 155.7 187.5 L 153.2 187.8 L 150.8 188.0 L 150.8 182.0 L 130.8 179.0 L 130.8 176.0 L 150.8 176.0 L 152.2 175.9 L 153.5 175.7 L 155.7 175.1 L 156.7 174.6 L 157.7 174.0 L 158.6 173.3 L 159.4 172.5 L 160.3 171.5 L 161.1 170.3 L 162.2 168.1 L 163.5 165.1 L 164.7 161.2 L 165.8 156.5 L 166.8 151.1 L 167.8 144.9 L 168.6 137.9 L 169.3 130.2 L 169.9 121.8 L 170.27362632751465 115.0 L 119.58421049118041 115.0 L 118.4 127.5 L 105.8 132.3 L 112.4 63.4 L 122.99718313217163 70.0 L 167.1 70.0 L 167.1 34.0 L 110.9 34.0 L 110.9 30.0 L 167.1 30.0 L 173.1 25.0 L 184.1 34.0 L 179.1 38.0 L 179.1 80.0 L 167.1 86.0 L 167.1 74.0 L 123.46842107772827 74.0 L 119.96315793991089 111.0 L 170.4 111.0 L 176.4 106.0 L 187.4 115.0 L 182.4 118.0 L 182.13889389038087 118.10879421234131 L 181.9 122.6 L 181.3 131.2 L 180.5 139.2 L 179.7 146.5 L 178.7 153.1 L 177.5 159.1 L 176.2 164.4 L 174.8 169.1 L 173.1 173.2 L 171.2 176.8 L 169.8 178.8 Z " />
</g>
</svg>
