<svg xmlns="http://www.w3.org/2000/svg" xmlns:xlink="http://www.w3.org/1999/xlink" version="1.1" baseProfile="full" viewBox="0 0 200 200" width="200" height="200">
<g fill="black">
<path d="M 95.6 165.1 L 95.9 166.0 L 96.3 166.4 L 97.2 166.7 L 98.1 166.9 L 99.3 167.0 L 118.6 167.0 L 124.6 142.0 L 126.6 142.0 L 124.6 167.0 L 128.2 169.4 L 130.6 173.0 L 128.2 176.6 L 124.6 179.0 L 99.3 179.0 L 96.8 178.8 L 94.3 178.4 L 91.9 177.6 L 89.6 176.3 L 87.6 174.7 L 85.9 172.7 L 84.7 170.4 L 84.41987953186035 169.55963859558105 L 84.2 169.9 L 76.6 179.6 L 68.4 187.6 L 67.1 186.3 L 73.5 177.3 L 79.7 167.0 L 83.3 159.98305082321167 L 83.3 59.0 L 95.3 61.0 L 98.3 63.0 L 95.3 64.8 L 95.3 131.90754718780516 L 96.6 128.4 L 101.7 112.8 L 106.4 95.7 L 110.8 77.2 L 114.8 57.3 L 118.5 35.9 L 118.57027559280395 35.912401580810545 L 118.9 34.0 L 130.4 38.0 L 133.0 40.4 L 129.65060243606567 41.67886085510254 L 126.0 59.6 L 121.2 79.7 L 116.1 98.4 L 110.5 115.7 L 104.6 131.4 L 98.2 145.8 L 95.3 151.34029846191407 L 95.3 163.0 L 95.4 164.2 Z M 66.5 25.6 L 66.5 29.6 L 48.1 29.6 L 48.1 88.8 L 50.8 88.8 L 60.8 78.8 L 72.8 88.8 L 72.8 92.8 L 48.1 92.8 L 48.1 180.7 L 36.1 186.7 L 36.1 92.8 L 12.5 92.8 L 12.5 88.8 L 36.1 88.8 L 36.1 29.6 L 17.3 29.6 L 17.3 25.6 L 48.31818180084228 25.6 L 56.5 16.6 Z M 182.0 25.6 L 182.0 29.6 L 164.6 29.6 L 164.6 88.8 L 169.9181818008423 88.8 L 178.1 79.8 L 188.1 88.8 L 188.1 92.8 L 164.6 92.8 L 164.6 180.7 L 152.6 186.7 L 152.6 92.8 L 130.2 92.8 L 130.2 88.8 L 152.6 88.8 L 152.6 29.6 L 134.8 29.6 L 134.8 25.6 L 163.8181818008423 25.6 L 172.0 16.6 Z M 130.8 127.3 L 130.4 122.0 L 129.9 116.9 L 129.2 111.9 L 127.4 102.3 L 126.2 97.6 L 125.1 92.9 L 123.9 88.3 L 125.5 87.4 L 128.5 91.3 L 131.2 95.6 L 133.6 100.1 L 135.6 104.9 L 137.4 109.9 L 139.0 115.1 L 140.3 120.5 L 141.4 126.1 L 142.3 131.8 L 142.9 137.7 L 141.3 142.0 L 137.2 143.9 L 132.9 142.3 L 131.0 138.2 L 130.9 132.7 Z M 67.7 145.6 L 64.7 142.2 L 65.0 137.6 L 66.6 134.5 L 68.1 130.8 L 69.5 126.5 L 70.7 121.5 L 71.8 115.9 L 72.6 109.7 L 73.3 102.9 L 73.9 95.5 L 74.4 87.6 L 74.8 79.0 L 76.6 78.9 L 78.1 87.4 L 79.2 95.4 L 79.9 103.0 L 80.2 110.1 L 80.2 116.6 L 79.9 122.8 L 79.4 128.5 L 78.5 133.7 L 77.3 138.5 L 75.7 142.9 L 72.2 145.9 Z M 100.3 47.5 L 99.4 43.9 L 98.4 40.4 L 97.3 37.0 L 96.0 33.7 L 94.5 30.5 L 92.9 27.4 L 91.1 24.2 L 89.1 21.3 L 90.3 20.0 L 93.3 22.1 L 96.4 24.4 L 99.3 27.1 L 101.9 30.1 L 104.3 33.3 L 106.5 36.7 L 108.5 40.4 L 110.3 44.3 L 111.9 48.5 L 113.3 52.8 L 112.4 57.3 L 108.6 59.9 L 104.1 59.0 L 101.5 55.2 L 101.0 51.3 Z " />
</g>
</svg>
