<svg xmlns="http://www.w3.org/2000/svg" xmlns:xlink="http://www.w3.org/1999/xlink" version="1.1" baseProfile="full" viewBox="0 0 200 200" width="200" height="200">
<g fill="black">
<path d="M 19.0 118.7 L 19.0 114.7 L 159.0 114.7 L 169.0 104.7 L 181.0 114.7 L 181.0 118.7 L 136.0 118.7 L 136.0 182.0 L 124.0 188.0 L 124.0 118.7 L 80.0 118.7 L 80.0 127.0 L 79.2 136.2 L 77.4 144.7 L 74.6 152.7 L 70.8 160.1 L 66.1 166.7 L 60.5 172.6 L 53.9 177.8 L 46.6 182.3 L 38.3 185.9 L 29.3 188.6 L 28.6 187.0 L 36.7 182.4 L 43.7 177.7 L 49.9 172.7 L 55.0 167.3 L 59.3 161.7 L 62.7 155.6 L 65.2 149.2 L 66.9 142.3 L 67.8 134.9 L 68.0 127.0 L 68.0 118.7 Z M 166.7 94.4 L 165.7 92.0 L 165.28318386077882 91.05269060134887 L 163.8 91.5 L 157.4 93.2 L 150.9 94.7 L 144.4 96.1 L 137.7 97.4 L 124.3 99.8 L 117.4 101.0 L 110.5 102.1 L 107.64610862731934 102.51360740661622 L 105.9 105.9 L 103.6 103.1 L 100.3 91.4 L 102.3 91.2 L 109.3 90.7 L 111.97371864318848 90.54500179290771 L 121.7 82.8 L 127.0 78.4 L 132.2 73.9 L 132.38106508255004 73.73668642044068 L 129.9 74.8 L 125.6 73.1 L 124.0 71.2 L 122.3 69.2 L 120.4 67.1 L 118.3 65.1 L 116.1 63.1 L 113.7 61.1 L 111.2 59.0 L 108.5 56.9 L 105.6 54.7 L 102.5 52.8 L 103.2 51.1 L 106.8 52.2 L 110.4 53.1 L 113.8 54.1 L 116.03684206008911 54.93881578445435 L 116.7 54.4 L 119.6 51.7 L 122.4 49.1 L 125.0 46.7 L 127.5 44.3 L 131.9 39.9 L 133.8 37.8 L 134.9699999809265 36.5 L 63.857777786254886 36.5 L 69.3 42.7 L 69.9 46.2 L 65.79032258987426 45.02580642700195 L 64.5 45.8 L 61.8 47.4 L 59.0 49.0 L 56.0 50.6 L 52.9 52.2 L 49.5 53.8 L 46.0 55.3 L 43.46406574249268 56.30102672576904 L 44.2 56.6 L 47.2 58.0 L 50.1 59.5 L 55.5 62.7 L 58.0 64.5 L 59.7 68.7 L 58.55573091506958 71.7752230644226 L 61.3 69.3 L 66.4 64.6 L 71.3 59.8 L 76.2 54.8 L 80.33037738800049 50.32542457580566 L 80.3 50.3 L 81.3 49.3 L 89.5 58.0 L 90.2 61.6 L 86.58740158081055 60.69685039520264 L 84.1 63.0 L 78.6 67.7 L 72.9 72.2 L 67.2 76.5 L 61.4 80.7 L 55.4 84.6 L 49.4 88.2 L 47.0060938835144 89.51278724670411 L 49.9 89.3 L 70.0 87.8 L 76.6 87.4 L 83.2 87.2 L 83.52689657211303 87.1950469970703 L 83.3 86.7 L 82.2 84.4 L 80.9 81.9 L 79.5 79.4 L 78.0 76.9 L 76.1 74.6 L 77.3 73.3 L 79.8 75.1 L 82.4 76.7 L 84.9 78.5 L 87.2 80.3 L 89.4 82.3 L 91.4 84.4 L 93.4 86.6 L 95.2 88.9 L 96.8 91.3 L 98.4 93.8 L 98.3 98.4 L 95.1 101.6 L 90.5 101.5 L 87.3 98.3 L 86.7 96.0 L 86.1 93.8 L 85.3 91.4 L 84.96022100448609 90.5316759109497 L 83.8 90.9 L 77.4 92.7 L 71.0 94.3 L 64.4 95.8 L 57.8 97.2 L 51.1 98.5 L 37.5 100.9 L 30.6 102.1 L 27.64144582748413 102.52265062332154 L 25.9 105.9 L 23.6 103.1 L 20.3 91.4 L 22.3 91.2 L 29.3 90.7 L 36.2 90.3 L 36.28954391479492 90.29351129531861 L 45.7 82.8 L 51.0 78.4 L 56.2 73.9 L 56.38106508255005 73.73668642044068 L 53.9 74.8 L 49.6 73.1 L 48.0 71.2 L 46.3 69.2 L 44.4 67.1 L 42.3 65.1 L 40.1 63.1 L 37.7 61.1 L 35.2 59.0 L 32.5 56.9 L 29.6 54.7 L 26.5 52.8 L 27.2 51.1 L 30.8 52.2 L 34.4 53.1 L 37.8 54.1 L 40.036842060089114 54.93881578445435 L 40.7 54.4 L 43.6 51.7 L 46.4 49.1 L 49.0 46.7 L 51.5 44.3 L 55.9 39.9 L 57.8 37.8 L 58.96999998092652 36.5 L 15.0 36.5 L 15.0 32.5 L 75.76363639831543 32.5 L 73.4 31.2 L 72.6 29.7 L 71.7 28.1 L 70.7 26.4 L 69.4 24.8 L 68.0 23.0 L 66.5 21.3 L 64.7 19.4 L 62.8 17.6 L 60.8 15.6 L 58.4 14.1 L 59.2 12.4 L 62.0 13.5 L 64.8 14.2 L 67.4 15.1 L 70.0 16.1 L 72.4 17.1 L 74.7 18.3 L 76.9 19.5 L 79.0 20.8 L 80.9 22.2 L 82.8 23.8 L 84.0 28.2 L 81.8 32.2 L 80.7 32.5 L 112.8039999961853 32.5 L 114.1 31.3 L 116.5 28.5 L 118.9 26.0 L 121.2 23.5 L 125.6 18.9 L 129.6 14.5 L 131.5 12.4 L 132.58996925354003 11.18892307281494 L 132.5 11.1 L 133.10714282989503 10.614285755157471 L 133.3 10.4 L 133.33031091690063 10.435751342773438 L 133.5 10.3 L 141.1 19.6 L 141.5 23.2 L 137.50192308425903 21.818846130371092 L 136.2 22.6 L 133.6 24.1 L 130.9 25.7 L 128.1 27.2 L 125.2 28.8 L 122.2 30.4 L 119.0 32.0 L 117.82142858505249 32.5 L 163.0 32.5 L 173.0 22.5 L 185.0 32.5 L 185.0 36.5 L 139.85777778625487 36.5 L 145.3 42.7 L 145.9 46.2 L 141.79032258987428 45.02580642700195 L 140.5 45.8 L 137.8 47.4 L 135.0 49.0 L 132.0 50.6 L 128.9 52.2 L 125.5 53.8 L 122.0 55.3 L 119.46406574249268 56.30102672576904 L 120.2 56.6 L 123.2 58.0 L 126.1 59.5 L 131.5 62.7 L 134.0 64.5 L 135.7 68.7 L 134.55573091506957 71.7752230644226 L 137.3 69.3 L 142.4 64.6 L 147.3 59.8 L 152.2 54.8 L 156.3303773880005 50.32542457580566 L 156.3 50.3 L 157.3 49.3 L 165.5 58.0 L 166.2 61.6 L 162.58740158081054 60.69685039520264 L 160.1 63.0 L 154.6 67.7 L 148.9 72.2 L 143.2 76.5 L 137.4 80.7 L 131.4 84.6 L 125.4 88.2 L 122.38831043243408 89.85157175064087 L 123.1 89.8 L 136.7 89.0 L 143.4 88.6 L 150.0 88.2 L 156.7 87.9 L 163.3 87.8 L 163.75348834991456 87.80697669982911 L 163.4 87.1 L 162.0 84.6 L 160.5 82.1 L 158.9 79.5 L 157.2 76.9 L 155.1 74.6 L 156.3 73.2 L 159.0 75.0 L 161.8 76.6 L 164.4 78.4 L 166.9 80.3 L 169.3 82.4 L 171.5 84.6 L 173.7 86.9 L 175.6 89.3 L 177.5 91.8 L 179.2 94.4 L 179.3 99.0 L 176.2 102.3 L 171.6 102.4 L 168.2 99.3 L 167.5 96.9 Z " />
</g>
</svg>
