<svg xmlns="http://www.w3.org/2000/svg" xmlns:xlink="http://www.w3.org/1999/xlink" version="1.1" baseProfile="full" viewBox="0 0 200 200" width="200" height="200">
<g fill="black">
<path d="M 31.0 176.0 L 47.0 176.0 L 48.2 175.9 L 49.1 175.7 L 50.0 175.4 L 50.4 175.0 L 50.7 174.1 L 50.9 173.2 L 51.0 172.0 L 51.0 110.33493976593017 L 50.8 110.4 L 42.5 112.9 L 34.4 115.2 L 26.2 117.5 L 22.17507266998291 118.55654344558715 L 20.8 122.1 L 18.2 119.6 L 13.7 108.3 L 15.6 107.9 L 23.7 106.4 L 31.8 104.8 L 48.4 101.4 L 51.0 100.84285717010498 L 51.0 62.0 L 58.35 63.225 L 59.5 61.5 L 62.7 56.9 L 65.8 52.5 L 68.8 48.3 L 71.7 44.2 L 74.5 40.3 L 77.1 36.4 L 79.6 32.7 L 80.65675678253174 31.0 L 16.0 31.0 L 16.0 27.0 L 83.0 27.0 L 83.2 26.83333330154419 L 84.0 25.5 L 84.43564357757569 25.803630352020264 L 89.0 22.0 L 100.0 31.0 L 95.0 34.0 L 91.31940298080444 35.53358211517334 L 91.1 35.8 L 88.1 39.2 L 85.0 42.6 L 81.7 46.1 L 78.2 49.7 L 74.5 53.3 L 70.7 56.9 L 66.6 60.5 L 62.43692312240601 63.90615386962891 L 63.0 64.0 L 66.0 66.0 L 63.0 67.8 L 63.0 98.23023252487182 L 65.4 97.7 L 74.0 95.7 L 82.7 93.8 L 91.6 91.9 L 100.7 90.1 L 101.2 91.8 L 92.8 95.5 L 84.3 98.9 L 75.8 102.0 L 67.4 105.0 L 63.0 106.431325340271 L 63.0 172.0 L 62.8 174.5 L 62.4 177.0 L 61.6 179.4 L 60.3 181.7 L 58.7 183.7 L 56.7 185.3 L 54.4 186.6 L 52.0 187.4 L 49.5 187.8 L 47.0 188.0 L 47.0 182.0 L 31.0 179.0 Z M 171.8 167.2 L 170.1 161.1 L 169.77094354629517 159.98486423492432 L 167.0 161.1 L 158.8 164.2 L 150.5 167.0 L 142.1 169.7 L 133.7 172.3 L 125.3 174.7 L 116.8 177.1 L 108.3 179.3 L 99.7 181.5 L 95.14589023590088 182.61205005645752 L 93.7 186.2 L 91.1 183.6 L 86.8 172.3 L 88.7 171.9 L 105.9 168.9 L 107.33032293319702 168.63389339447022 L 110.8 162.5 L 116.5 152.1 L 122.3 141.4 L 128.2 130.3 L 134.1 118.7 L 140.1 106.6 L 146.1 94.0 L 152.1 81.0 L 158.1 67.4 L 163.71240396499633 54.304390811920165 L 163.7 54.3 L 164.6 52.2 L 175.0 58.3 L 177.0 61.3 L 173.33554553985596 61.80544195175171 L 168.4 72.2 L 161.7 85.6 L 155.0 98.5 L 148.3 110.9 L 141.6 122.7 L 134.8 134.0 L 127.9 144.8 L 121.0 155.0 L 113.9 164.5 L 111.16338796615601 167.92076501846313 L 123.1 165.7 L 131.7 164.0 L 140.3 162.4 L 148.8 160.7 L 157.4 159.0 L 166.0 157.5 L 168.9 157.0333333015442 L 168.3 155.0 L 166.2 148.8 L 164.0 142.7 L 161.6 136.4 L 159.1 130.2 L 156.4 123.8 L 153.7 117.3 L 155.2 116.3 L 159.7 121.9 L 163.8 127.6 L 167.5 133.5 L 170.9 139.5 L 174.1 145.5 L 177.0 151.7 L 179.6 157.8 L 182.0 164.1 L 184.2 170.3 L 186.1 176.7 L 185.3 181.2 L 181.6 183.9 L 177.1 183.1 L 174.4 179.4 L 173.2 173.3 Z M 118.5 99.3 L 115.9 94.7 L 113.0 90.1 L 109.9 85.7 L 106.5 81.3 L 103.0 77.1 L 99.2 72.8 L 95.3 68.6 L 91.2 64.3 L 92.3 62.8 L 97.7 65.6 L 102.7 68.8 L 107.5 72.3 L 111.6721697807312 75.8231656074524 L 111.9 75.3 L 114.7 69.2 L 117.5 63.2 L 123.1 51.0 L 128.5 38.6 L 131.1 32.3 L 133.6 25.9 L 135.65560932159423 20.41837520599365 L 135.6 20.4 L 135.894117641449 19.782352924346924 L 136.0 19.5 L 136.0237771987915 19.510067844390868 L 136.6 18.3 L 147.1 24.2 L 149.1 27.2 L 145.39965362548827 27.710392570495607 L 144.0 30.6 L 140.8 36.8 L 137.5 42.9 L 134.1 49.0 L 130.6 54.9 L 127.0 60.7 L 123.2 66.4 L 119.3 72.0 L 115.1 77.3 L 114.26887664794921 78.263347530365 L 116.3 80.2 L 120.3 84.4 L 124.1 88.9 L 127.6 93.6 L 130.9 98.5 L 134.0 103.6 L 134.2 108.1 L 131.3 111.6 L 126.7 111.9 L 123.2 109.0 L 121.0 104.1 Z " />
</g>
</svg>
