<svg xmlns="http://www.w3.org/2000/svg" xmlns:xlink="http://www.w3.org/1999/xlink" version="1.1" baseProfile="full" viewBox="0 0 200 200" width="200" height="200">
<g fill="black">
<path d="M 84.0 178.1 L 105.2 178.1 L 106.1 177.9 L 106.7 177.7 L 107.0 177.5 L 107.2 177.4 L 107.4 177.2 L 107.7 176.3 L 107.9 175.4 L 108.0 174.1 L 108.0 152.3892307281494 L 107.7 152.5 L 94.1 157.0 L 80.2 161.3 L 65.7 165.4 L 50.7 169.1 L 35.2 172.4 L 19.2 175.3 L 18.7 173.6 L 34.2 168.7 L 49.2 163.9 L 63.8 159.1 L 77.8 154.1 L 91.3 149.0 L 104.3 143.8 L 108.0 142.20159997940064 L 108.0 116.0 L 20.0 116.0 L 20.0 112.0 L 108.0 112.0 L 108.0 89.6 L 120.0 91.6 L 123.0 93.6 L 120.0 95.4 L 120.0 112.0 L 160.0 112.0 L 170.0 102.0 L 182.0 112.0 L 182.0 116.0 L 120.0 116.0 L 120.0 136.90666666030884 L 128.8 132.8 L 140.3 127.1 L 151.3 121.1 L 152.7792003631592 123.9263292312622 L 159.4 130.4 L 159.6 133.7 L 156.0300000190735 132.2125 L 145.3 137.3 L 133.2 142.6 L 120.7 147.7 L 120.0 147.95846157073976 L 120.0 174.1 L 119.8 176.7 L 119.4 179.2 L 118.6 181.6 L 117.3 183.8 L 115.7 185.9 L 113.7 187.5 L 111.4 188.7 L 109.0 189.5 L 106.5 190.0 L 104.0 190.1 L 104.0 184.1 L 84.0 181.1 Z M 160.9 86.1 L 158.3 82.9 L 155.4 79.7 L 153.22169895172118 77.45143117904664 L 145.4 78.8 L 133.5 80.5 L 121.4 82.1 L 109.1 83.7 L 96.6 85.2 L 83.8 86.7 L 70.8 88.2 L 57.6 89.8 L 44.2 91.3 L 34.538035011291505 92.42840471267701 L 32.8 95.7 L 30.5 92.9 L 27.4 81.1 L 29.4 80.9 L 43.1 80.0 L 56.6 79.1 L 66.46282348632812 78.43259086608887 L 75.0 73.5 L 83.7 68.4 L 92.1 63.2 L 100.0 57.9 L 107.6 52.5 L 114.8 47.1 L 121.6 41.5 L 128.1 35.8 L 134.1 29.9 L 134.13547592163087 29.938071727752686 L 134.4 29.7 L 142.3 38.7 L 142.9 42.3 L 139.3066237449646 41.20915365219116 L 135.5 44.4 L 128.3 49.9 L 120.7 55.2 L 112.8 60.3 L 104.5 65.1 L 95.8 69.8 L 86.8 74.2 L 78.70838108062745 77.72932319641113 L 83.0 77.5 L 95.8 76.8 L 108.5 76.1 L 120.9 75.6 L 133.1 75.2 L 145.1 75.0 L 150.8029655456543 75.04833021163941 L 149.0 73.3 L 145.4 70.0 L 141.6 66.7 L 137.6 63.3 L 133.4 59.7 L 134.3 58.2 L 139.5 60.2 L 144.4 62.4 L 149.1 64.8 L 153.5 67.4 L 157.6 70.1 L 161.5 72.9 L 165.2 75.8 L 168.7 78.8 L 171.9 81.9 L 174.9 85.1 L 176.0 89.5 L 173.8 93.5 L 169.3 94.6 L 165.4 92.4 L 163.2 89.2 Z M 77.0 57.0 L 73.4 54.8 L 69.4 52.5 L 65.0 50.2 L 60.2 47.9 L 55.1 45.5 L 49.6 43.0 L 43.8 40.4 L 37.7 37.5 L 38.2 35.8 L 44.9 36.7 L 51.3 37.9 L 57.2 39.3 L 62.9 40.8 L 65.07848272323608 41.41655168533325 L 66.4 40.4 L 70.1 37.3 L 73.8 34.3 L 77.2 31.4 L 80.6 28.4 L 83.7 25.4 L 86.8 22.5 L 89.6 19.4 L 92.3 16.4 L 94.2682891845703 14.053193664550781 L 94.2 14.0 L 95.2 12.9 L 103.7 21.4 L 104.5 24.9 L 100.65155811309815 24.089801692962645 L 100.3 24.4 L 96.8 27.2 L 93.2 30.0 L 89.4 32.6 L 85.5 35.1 L 81.4 37.4 L 77.2 39.6 L 72.7 41.6 L 69.6370192527771 42.798557662963866 L 73.1 44.0 L 77.8 45.7 L 82.1 47.5 L 86.1 49.4 L 89.8 51.4 L 92.3 55.2 L 91.4 59.7 L 87.6 62.2 L 83.1 61.3 L 80.3 59.2 Z " />
</g>
</svg>
