<svg xmlns="http://www.w3.org/2000/svg" xmlns:xlink="http://www.w3.org/1999/xlink" version="1.1" baseProfile="full" viewBox="0 0 200 200" width="200" height="200">
<g fill="black">
<path d="M 160.2 177.1 L 152.0 172.9 L 144.1 168.5 L 136.5 163.7 L 129.3 158.7 L 122.5 153.3 L 116.2 147.6 L 110.3 141.6 L 106.0 136.32641506195068 L 106.0 186.2 L 94.0 192.2 L 94.0 142.55245904922486 L 92.5 144.2 L 85.7 150.5 L 78.5 156.4 L 70.7 161.9 L 62.5 167.0 L 53.7 171.6 L 44.3 175.8 L 34.5 179.6 L 24.1 182.8 L 13.2 185.4 L 12.7 183.7 L 22.8 179.2 L 32.4 174.6 L 41.5 169.9 L 50.0 165.0 L 57.9 159.8 L 65.3 154.3 L 72.1 148.7 L 78.4 142.7 L 84.1 136.5 L 84.7 135.7 L 18.0 135.7 L 18.0 131.7 L 94.0 131.7 L 94.0 110.4 L 106.0 112.4 L 109.0 114.4 L 106.0 116.2 L 106.0 131.7 L 160.0 131.7 L 170.0 121.7 L 182.0 131.7 L 182.0 135.7 L 109.10869569778443 135.7 L 119.9 143.0 L 126.8 147.5 L 133.9 151.7 L 141.3 155.7 L 148.9 159.5 L 156.8 163.0 L 164.9 166.3 L 173.4 169.3 L 182.1 172.1 L 189.4 174.6 L 177.8 184.6 L 168.9 181.0 Z M 158.7 101.9 L 151.3 97.4 L 144.4 92.1 L 137.8 86.3 L 136.99114503860474 85.45136528015136 L 135.3 86.8 L 126.8 92.5 L 117.6 97.5 L 107.7 101.9 L 97.2 105.6 L 86.1 108.5 L 85.5 106.8 L 95.9 102.1 L 105.5 97.1 L 114.4 91.8 L 122.5 86.2 L 130.0 80.1 L 131.06107378005981 79.10134229660034 L 126.1 72.9 L 120.9 65.2 L 116.3 57.0 L 112.3 48.1 L 113.9 47.2 L 119.8 54.7 L 125.6 61.8 L 131.6 68.2 L 137.06664915084838 73.39779758453369 L 142.8 66.9 L 148.2 59.7 L 152.9 52.0 L 156.53242616653444 44.912339210510254 L 156.5 44.9 L 157.5 42.8 L 167.8 49.2 L 169.6 52.4 L 165.76926889419556 52.664188385009766 L 162.7 57.9 L 156.9 66.0 L 150.3 73.6 L 144.20944395065308 79.51899108886718 L 150.4 83.9 L 157.1 88.0 L 164.1 91.4 L 171.2 94.3 L 178.6 96.6 L 186.3 99.1 L 174.7 109.2 L 166.5 105.9 Z M 79.4 93.5 L 78.4 90.9 L 77.95220737457275 89.9699691772461 L 75.2 90.8 L 68.8 92.5 L 62.4 93.9 L 56.0 95.2 L 49.5 96.3 L 43.1 97.4 L 30.1 99.2 L 23.7 100.0 L 21.293741703033447 100.25913553237915 L 19.3 103.6 L 17.2 100.7 L 14.5 88.9 L 16.5 88.7 L 22.9 88.7 L 28.564533615112303 88.52298336029052 L 30.0 86.6 L 35.2 79.7 L 40.4 73.1 L 45.3 66.7 L 50.1 60.4 L 54.6 54.2 L 59.0 48.2 L 63.1 42.4 L 67.0 36.6 L 70.15124416351318 31.830549430847167 L 70.1 31.8 L 70.54897956848144 31.22857141494751 L 70.7 31.0 L 70.7183006286621 31.013071918487547 L 71.2 30.4 L 80.5 38.0 L 81.8 41.3 L 78.073406791687 41.04734964370728 L 76.2 43.4 L 71.6 48.9 L 66.9 54.5 L 61.8 60.1 L 56.6 65.8 L 51.1 71.6 L 45.3 77.5 L 39.2 83.3 L 33.70877189636231 88.36222591400147 L 35.7 88.3 L 42.2 88.1 L 48.6 87.9 L 55.1 87.6 L 68.1 87.2 L 74.7 87.1 L 76.51071424484253 87.1 L 75.6 85.4 L 73.9 82.4 L 71.9 79.4 L 69.8 76.1 L 67.6 72.8 L 64.9 69.5 L 66.1 68.1 L 69.5 70.7 L 73.0 73.1 L 76.1 75.6 L 79.1 78.1 L 81.7 80.6 L 84.2 83.2 L 86.5 85.7 L 88.5 88.3 L 90.3 91.0 L 92.0 93.6 L 91.9 98.2 L 88.7 101.5 L 84.1 101.4 L 80.9 98.2 L 80.2 95.9 Z M 37.3 59.2 L 36.2 57.4 L 34.8 55.5 L 33.2 53.5 L 31.2 51.4 L 29.0 49.2 L 26.5 46.8 L 23.8 44.4 L 20.6 42.2 L 21.4 40.6 L 25.0 42.1 L 28.6 43.3 L 31.9 44.7 L 33.23399696350098 45.302450275421144 L 33.5 44.8 L 35.1 41.3 L 36.7 37.9 L 38.4 34.6 L 40.0 31.3 L 41.6 28.1 L 44.8 21.9 L 46.3 18.8 L 47.26452264785767 16.73316583633423 L 47.2 16.7 L 47.48695650100708 16.256521701812744 L 47.7 15.8 L 47.758572578430176 15.836751461029053 L 48.3 15.0 L 57.9 22.2 L 59.4 25.5 L 55.268173408508304 25.429969024658202 L 53.5 27.6 L 48.9 33.0 L 46.5 35.8 L 44.0 38.5 L 41.4 41.2 L 38.7 43.9 L 35.9 46.5 L 35.86746988296509 46.53373489379883 L 37.8 47.5 L 40.4 49.1 L 42.9 50.7 L 45.1 52.4 L 47.1 54.2 L 48.9 56.2 L 49.5 60.7 L 46.8 64.4 L 42.3 65.0 L 38.6 62.3 L 38.1 60.8 Z M 132.0 22.9 L 133.5 26.2 L 129.5962025642395 26.132693099975587 L 129.1 26.8 L 126.0 30.5 L 122.6 34.0 L 119.0 37.4 L 115.2 40.7 L 111.1 43.8 L 106.8 46.6 L 102.3 49.3 L 97.4 51.7 L 92.3 53.8 L 91.4 52.3 L 95.4 48.6 L 99.2 45.1 L 102.8 41.6 L 106.2 38.1 L 109.4 34.6 L 112.3 31.1 L 115.0 27.5 L 117.5 24.0 L 119.7 20.3 L 121.24347829818726 17.521739101409914 L 121.2 17.5 L 122.2 15.8 Z M 170.4 43.6 L 168.4 40.8 L 166.1 37.9 L 163.5 35.0 L 160.6 32.1 L 157.4 29.2 L 153.9 26.2 L 150.1 23.2 L 146.0 20.2 L 146.8 18.6 L 151.7 20.3 L 156.4 22.1 L 160.8 24.1 L 164.9 26.4 L 168.7 28.8 L 172.3 31.4 L 175.6 34.1 L 178.6 37.0 L 181.3 40.0 L 183.8 43.2 L 184.3 47.8 L 181.6 51.4 L 177.1 52.0 L 173.4 49.3 L 172.0 46.5 Z " />
</g>
</svg>
