<svg xmlns="http://www.w3.org/2000/svg" xmlns:xlink="http://www.w3.org/1999/xlink" version="1.1" baseProfile="full" viewBox="0 0 200 200" width="200" height="200">
<g fill="black">
<path d="M 41.6 33.0 L 62.0 33.0 L 68.0 28.0 L 79.0 37.0 L 74.0 41.0 L 74.0 148.2285714149475 L 74.8 147.6 L 80.6 143.0 L 86.7 138.2 L 93.1 133.3 L 94.4 134.6 L 89.3 141.0 L 84.3 146.9 L 79.2 152.5 L 74.2 157.7 L 74.0 157.8959183692932 L 74.0 158.0 L 73.89375 158.0 L 69.3 162.5 L 64.5 167.1 L 59.8 171.4 L 55.3 175.3 L 50.8 179.0 L 49.8 179.77272729873658 L 49.8 183.8 L 46.4 182.4 L 38.1 173.5 L 39.8 172.4 L 44.2 169.7 L 48.8 166.7 L 53.6 163.5 L 58.6 159.9 L 62.0 157.41538457870485 L 62.0 37.0 L 41.6 37.0 L 41.6 78.1 L 42.2 77.4 L 44.6 79.1 L 47.2 80.7 L 49.5 82.5 L 51.8 84.6 L 53.8 86.8 L 55.7 89.2 L 57.4 91.8 L 58.9 94.5 L 60.2 97.4 L 61.4 100.4 L 60.5 104.9 L 56.7 107.5 L 52.3 106.6 L 49.6 102.8 L 49.5 100.3 L 49.2 97.9 L 48.7 95.4 L 48.1 93.0 L 47.4 90.6 L 46.5 88.2 L 45.4 85.8 L 44.2 83.4 L 42.9 80.9 L 41.6 79.46315793991089 L 41.6 109.0 L 41.1 118.9 L 40.0 128.4 L 38.3 137.5 L 36.2 146.2 L 33.5 154.5 L 30.2 162.3 L 26.4 169.7 L 22.0 176.6 L 17.0 182.9 L 11.4 188.5 L 10.0 187.4 L 13.9 180.7 L 17.4 173.8 L 20.5 166.8 L 23.1 159.5 L 25.4 151.9 L 27.1 144.0 L 28.5 135.8 L 29.3 127.2 L 29.7 118.3 L 29.6 109.0 L 29.6 27.0 Z M 175.6 164.8 L 175.41855144500732 161.17102918624877 L 172.0 163.6 L 168.2 166.2 L 164.3 168.6 L 156.5 173.0 L 152.6 175.1 L 148.6 177.1 L 144.7 178.9 L 144.66759452819824 178.91578731536865 L 143.7 182.9 L 140.8 180.8 L 134.98234949111938 170.42518997192383 L 135.2 171.7 L 135.7 175.6 L 134.0 179.9 L 129.9 181.8 L 125.6 180.1 L 123.7 175.9 L 123.9 172.3 L 124.0 168.6 L 123.9 164.8 L 123.80762939453125 161.10517711639403 L 120.6 163.6 L 116.8 166.1 L 113.0 168.5 L 109.2 170.8 L 105.3 173.0 L 101.4 175.1 L 93.56759452819824 178.91578731536865 L 92.6 182.9 L 89.7 180.8 L 83.7 170.1 L 85.6 169.5 L 89.6 168.4 L 92.85146884918213 167.42455930709838 L 95.5 159.8 L 98.8 150.4 L 102.2 141.1 L 105.5 131.9 L 107.12119207382202 127.23907289505004 L 106.4 127.8 L 101.9 127.1 L 99.1 123.5 L 98.3 119.2 L 97.4 115.0 L 96.3 110.9 L 95.1 106.8 L 92.3 98.6 L 90.7 94.6 L 87.3 86.4 L 85.4 82.3 L 86.9 81.3 L 90.1 84.5 L 93.3 87.9 L 94.02470588684082 88.83176469802856 L 94.7 85.6 L 96.2 79.2 L 97.7 73.2 L 99.1 67.5 L 100.4 62.1 L 101.6 56.9 L 102.8 52.0 L 103.7 47.4 L 104.6 43.1 L 105.1412857055664 40.006938743591306 L 105.1 40.0 L 105.2307692527771 39.49560441970825 L 105.3 39.1 L 105.33132066726685 39.10776319503784 L 105.8 37.3 L 117.0 42.0 L 119.4 44.6 L 115.7319727897644 45.713508224487306 L 115.6 46.1 L 114.1 50.4 L 112.4 54.9 L 110.5 59.7 L 108.5 64.7 L 106.3 69.9 L 103.9 75.4 L 101.2 81.1 L 98.3 86.9 L 95.90669460296631 91.25146446228027 L 96.1 91.5 L 98.7 95.3 L 101.2 99.2 L 103.4 103.3 L 105.5 107.4 L 107.4 111.7 L 109.2 116.0 L 110.08152170181275 118.64456520080566 L 111.8 113.6 L 114.8 104.6 L 117.7 95.5 L 120.5 86.5 L 122.9251410484314 78.50601663589478 L 122.9 78.5 L 123.7 76.1 L 134.6 81.3 L 136.8 84.1 L 133.26266145706177 84.90676145553589 L 131.3 90.2 L 127.8 99.1 L 124.2 108.0 L 120.5 117.0 L 116.6 125.9 L 112.5 134.8 L 108.2 143.7 L 103.7 152.5 L 98.9 161.3 L 95.8343095779419 166.5297071456909 L 97.6 166.0 L 101.7 164.7 L 105.8 163.3 L 109.9 162.0 L 114.1 160.6 L 122.7 157.8 L 123.56603174209594 157.5244444847107 L 123.5 156.6 L 123.2 152.3 L 122.7 147.9 L 122.3 143.3 L 121.8 138.5 L 121.2 133.6 L 122.9 133.1 L 125.0 137.6 L 127.0 142.1 L 128.7 146.5 L 130.2 150.8 L 131.6 155.2 L 132.7 159.4 L 133.7 163.5 L 134.5 167.6 L 134.92034101486206 170.0619976043701 L 136.7 169.5 L 140.7 168.4 L 143.38641119003296 167.59407663345337 L 146.1 159.7 L 149.6 150.4 L 153.0 141.1 L 156.5 131.9 L 158.15276384353638 127.29229478836059 L 157.5 127.8 L 153.0 127.1 L 150.2 123.5 L 149.4 119.2 L 148.5 115.0 L 147.4 110.9 L 146.2 106.8 L 143.4 98.6 L 141.8 94.6 L 138.4 86.4 L 136.5 82.3 L 138.0 81.3 L 141.2 84.5 L 144.4 87.9 L 145.12470588684081 88.83176469802856 L 145.8 85.6 L 147.3 79.2 L 148.8 73.2 L 150.2 67.5 L 151.5 62.1 L 152.8 56.9 L 153.9 52.0 L 154.9 47.4 L 155.7 43.1 L 156.2412857055664 40.006938743591306 L 156.2 40.0 L 156.3307692527771 39.49560441970825 L 156.4 39.1 L 156.43132066726685 39.10776319503784 L 156.9 37.3 L 168.1 42.0 L 170.5 44.6 L 166.8319727897644 45.713508224487306 L 166.7 46.1 L 165.2 50.4 L 163.5 54.9 L 161.6 59.7 L 159.6 64.7 L 157.4 69.9 L 155.0 75.4 L 152.4 81.1 L 149.4 86.9 L 147.00669460296632 91.25146446228027 L 147.2 91.5 L 149.8 95.3 L 152.3 99.2 L 154.5 103.3 L 156.6 107.4 L 158.5 111.7 L 160.3 116.0 L 161.2032085418701 118.70962562561036 L 166.2 104.5 L 169.2 95.5 L 172.1 86.5 L 174.6185106277466 78.4047872543335 L 174.6 78.4 L 175.4 76.0 L 186.2 81.4 L 188.4 84.2 L 184.81826820373536 85.01688623428345 L 182.8 90.3 L 179.3 99.2 L 171.7 117.0 L 163.5 134.8 L 159.1 143.7 L 154.5 152.6 L 149.6 161.3 L 146.39474229812623 166.66264266967772 L 148.8 165.9 L 152.9 164.7 L 165.5 160.5 L 169.8 159.1 L 174.3 157.8 L 175.16045503616334 157.5262188911438 L 175.1 156.7 L 174.7 152.4 L 174.2 147.9 L 173.6 143.3 L 173.0 138.5 L 172.3 133.6 L 174.0 133.0 L 176.2 137.6 L 178.3 142.0 L 180.1 146.4 L 181.7 150.8 L 183.1 155.1 L 184.3 159.3 L 185.3 163.5 L 186.2 167.6 L 186.9 171.6 L 187.4 175.6 L 185.7 179.9 L 181.5 181.8 L 177.3 180.1 L 175.4 175.9 L 175.6 172.4 Z M 184.8 29.2 L 184.8 33.2 L 85.1 33.2 L 85.1 29.2 L 162.8 29.2 L 172.8 19.2 Z " />
</g>
</svg>
