<svg xmlns="http://www.w3.org/2000/svg" xmlns:xlink="http://www.w3.org/1999/xlink" version="1.1" baseProfile="full" viewBox="0 0 200 200" width="200" height="200">
<g fill="black">
<path d="M 174.1 173.0 L 173.8 170.4 L 173.3 167.7 L 172.95470237731934 166.44829626083373 L 169.5 167.7 L 162.5 170.0 L 155.5 172.0 L 148.6 173.9 L 141.6 175.7 L 134.6 177.4 L 127.6 179.0 L 120.7 180.6 L 113.7 182.0 L 110.88276968002319 182.57161197662353 L 109.2 186.1 L 106.8 183.4 L 103.0 171.9 L 105.0 171.6 L 111.9 170.8 L 116.38428077697753 170.28751077651978 L 120.9 165.3 L 127.5 158.1 L 134.0 151.1 L 140.4 144.1 L 146.5 137.2 L 152.4 130.4 L 158.1 123.6 L 163.6 116.9 L 168.8 110.2 L 173.8 103.6 L 173.81756191253663 103.6140121459961 L 174.3 103.0 L 183.2 111.1 L 184.3 114.5 L 180.6638461112976 113.99846153259277 L 177.6 117.5 L 171.7 123.9 L 165.6 130.3 L 159.2 136.7 L 152.6 143.1 L 145.7 149.5 L 138.6 155.8 L 131.2 162.0 L 123.5 168.1 L 121.36240272521972 169.6834053993225 L 125.9 169.1 L 132.9 168.3 L 154.2 165.6 L 161.4 164.7 L 168.7 164.0 L 172.16110181808472 163.71552591323854 L 171.5 161.6 L 170.3 158.3 L 168.9 154.8 L 167.3 151.1 L 165.2 147.4 L 166.6 146.3 L 169.6 149.5 L 172.5 152.4 L 175.1 155.5 L 177.5 158.5 L 179.5 161.5 L 181.4 164.5 L 182.9 167.5 L 184.2 170.6 L 185.2 173.6 L 185.9 176.7 L 184.4 181.0 L 180.3 183.1 L 176.0 181.5 L 174.0 177.5 L 174.1 175.3 Z M 85.0 172.9 L 84.8 170.4 L 84.3 167.6 L 84.01643056869507 166.4252124786377 L 80.6 167.7 L 73.8 170.0 L 67.0 172.0 L 60.1 173.9 L 53.2 175.7 L 46.3 177.4 L 32.5 180.6 L 22.782769680023193 182.57161197662353 L 21.1 186.1 L 18.7 183.4 L 14.9 171.9 L 16.9 171.6 L 29.33233757019043 170.15856952667235 L 33.6 165.3 L 40.0 158.1 L 46.3 151.1 L 52.4 144.1 L 58.3 137.3 L 64.0 130.5 L 69.5 123.7 L 74.8 117.0 L 79.9 110.3 L 84.11238508224487 104.50797052383423 L 84.1 104.5 L 85.1 103.1 L 94.2 111.0 L 95.4 114.4 L 91.66546249389648 113.94927997589112 L 88.7 117.4 L 83.0 123.9 L 77.1 130.3 L 70.9 136.7 L 64.5 143.1 L 57.9 149.4 L 50.9 155.7 L 43.7 162.0 L 36.2 168.1 L 34.30934362411499 169.53594150543213 L 37.7 169.1 L 44.7 168.3 L 51.6 167.4 L 65.6 165.6 L 72.7 164.7 L 79.7 164.0 L 83.34897956848144 163.69591836929322 L 82.8 161.5 L 81.7 158.2 L 80.4 154.8 L 78.9 151.1 L 77.0 147.4 L 78.5 146.3 L 81.3 149.5 L 84.1 152.5 L 86.5 155.6 L 88.8 158.6 L 90.7 161.6 L 92.4 164.6 L 93.9 167.6 L 95.1 170.6 L 96.1 173.7 L 96.8 176.7 L 95.3 181.0 L 91.2 183.1 L 86.9 181.5 L 84.9 177.5 L 85.0 175.3 Z M 127.6 135.1 L 125.5 132.1 L 123.2 129.0 L 120.6 125.9 L 117.6 122.8 L 114.5 119.6 L 111.0 116.4 L 107.3 113.0 L 103.3 109.6 L 104.2 108.1 L 109.1 110.2 L 113.8 112.3 L 118.12253522872925 114.65774650573731 L 120.4 111.0 L 123.6 106.1 L 126.6 101.5 L 129.5 97.1 L 132.1 93.0 L 134.6 89.1 L 136.7 85.4 L 138.7 82.0 L 140.4 78.8 L 141.36532258987427 76.73145160675048 L 141.3 76.7 L 142.3 74.9 L 152.1 81.9 L 153.7 85.1 L 149.70248165130616 85.1689227104187 L 147.5 87.9 L 144.9 91.2 L 142.0 94.5 L 138.8 98.1 L 135.3 101.7 L 131.6 105.5 L 127.6 109.4 L 123.2 113.4 L 120.20845069885254 115.95528173446655 L 122.2 117.2 L 126.0 119.9 L 129.6 122.6 L 132.9 125.5 L 135.9 128.5 L 138.7 131.7 L 141.2 134.9 L 141.8 139.5 L 139.1 143.2 L 134.6 143.8 L 130.9 141.1 L 129.4 138.1 Z M 39.5 135.1 L 37.4 132.1 L 35.1 129.0 L 32.4 125.9 L 29.5 122.8 L 26.3 119.6 L 22.9 116.4 L 19.2 113.0 L 15.2 109.6 L 16.1 108.1 L 21.0 110.2 L 25.7 112.3 L 29.997199630737306 114.69843702316284 L 32.3 111.0 L 35.5 106.1 L 38.5 101.5 L 41.4 97.1 L 44.0 93.0 L 46.4 89.1 L 48.6 85.4 L 50.6 82.0 L 53.240298461914065 76.71940298080445 L 53.2 76.7 L 54.2 74.9 L 64.0 81.9 L 65.6 85.1 L 61.60248165130615 85.1689227104187 L 59.4 87.9 L 56.8 91.2 L 53.9 94.5 L 50.7 98.1 L 47.2 101.7 L 43.5 105.5 L 39.5 109.4 L 35.1 113.4 L 32.087712574005124 115.97299547195435 L 34.1 117.2 L 37.9 119.9 L 41.5 122.6 L 44.8 125.5 L 47.8 128.5 L 50.6 131.7 L 53.1 134.9 L 53.7 139.5 L 51.0 143.2 L 46.5 143.8 L 42.8 141.1 L 41.3 138.1 Z M 107.0 13.7 L 110.0 15.7 L 107.0 17.5 L 107.0 40.6 L 151.6 40.6 L 151.6 18.3 L 163.6 20.3 L 166.6 22.3 L 163.6 24.1 L 163.6 46.6 L 151.6 52.6 L 151.6 44.6 L 107.0 44.6 L 107.0 66.1 L 99.6 69.8 L 164.0 69.8 L 174.0 59.8 L 186.0 69.8 L 186.0 73.8 L 14.0 73.8 L 14.0 69.8 L 95.0 69.8 L 95.0 44.6 L 51.4 44.6 L 39.4 50.6 L 39.4 18.3 L 51.4 20.3 L 54.4 22.3 L 51.4 24.1 L 51.4 40.6 L 95.0 40.6 L 95.0 11.7 Z " />
</g>
</svg>
