<svg xmlns="http://www.w3.org/2000/svg" xmlns:xlink="http://www.w3.org/1999/xlink" version="1.1" baseProfile="full" viewBox="0 0 200 200" width="200" height="200">
<g fill="black">
<path d="M 86.3 129.4 L 82.6 126.2 L 81.14366731643676 124.82457466125489 L 76.9731707572937 125.11219511032104 L 76.9 125.2 L 75.4 126.9 L 70.6 132.0 L 68.9 133.7 L 65.1 136.9 L 65.02105264663696 137.0 L 68.7 137.0 L 78.7 127.0 L 90.7 137.0 L 90.7 141.0 L 62.5 141.0 L 62.5 156.0 L 76.0 156.0 L 86.0 146.0 L 98.0 156.0 L 98.0 160.0 L 62.5 160.0 L 62.5 182.1 L 50.5 188.1 L 50.5 160.0 L 14.9 160.0 L 14.9 156.0 L 50.5 156.0 L 50.5 141.0 L 22.2 141.0 L 22.2 137.0 L 44.194117641448976 137.0 L 41.9 134.4 L 42.0 133.1 L 41.9 131.7 L 41.7 130.3 L 41.4 128.9 L 40.9 127.4 L 40.3 125.9 L 39.6 124.3 L 38.7 122.7 L 37.6 121.0 L 36.1 119.8 L 36.317500019073485 119.47375001907349 L 33.2 122.0 L 26.9 126.5 L 20.1 130.5 L 12.6 134.1 L 11.7 132.5 L 17.9 127.3 L 23.6 122.2 L 28.9 117.1 L 33.6 112.0 L 37.7 106.8 L 41.3 101.6 L 42.64528303146362 99.3 L 14.2 99.3 L 14.2 95.3 L 44.86296300888061 95.3 L 46.9 90.9 L 48.9 85.4 L 50.15181427001953 80.81001453399658 L 50.1 80.8 L 50.9 78.2 L 62.0 83.1 L 64.3 85.9 L 60.50966033935547 86.91526956558228 L 59.5 89.5 L 56.647540950775145 95.3 L 76.7 95.3 L 86.7 85.3 L 98.7 95.3 L 98.7 99.3 L 65.865625 99.3 L 67.6 100.8 L 71.2 103.9 L 78.2 109.7 L 81.8 112.4 L 85.5 115.0 L 89.2 117.5 L 93.1 119.8 L 97.0 122.0 L 101.0 124.0 L 105.5 126.6 L 94.3 135.4 L 90.2 132.5 Z M 156.4 168.9 L 147.8 160.3 L 140.1 150.8 L 138.57462587356568 148.37326831817626 L 132.3 156.6 L 122.2 166.8 L 111.0 175.5 L 98.6 182.6 L 85.2 188.0 L 84.5 186.3 L 96.8 179.3 L 107.8 171.2 L 117.7 162.1 L 126.4 151.8 L 133.79052629470826 140.76220092773437 L 133.5 140.3 L 127.9 129.0 L 123.4 116.8 L 119.8 103.7 L 117.4 89.7 L 116.76622705459594 81.23048877716064 L 112.9 87.4 L 107.7 94.4 L 102.1 101.0 L 100.6 99.9 L 104.5 92.4 L 108.2 84.7 L 111.8 76.9 L 115.2 68.9 L 118.3 60.7 L 121.2 52.2 L 123.8 43.4 L 126.2 34.4 L 128.3 25.1 L 129.91223239898682 16.50142707824707 L 129.9 16.5 L 130.0 16.03333330154419 L 130.1 15.5 L 130.11368913650512 15.502784252166748 L 130.5 13.7 L 141.9 17.9 L 144.4 20.5 L 140.89959602355958 21.709230422973633 L 139.3 27.8 L 136.5 37.3 L 133.3 46.5 L 129.9 55.4 L 126.94941177368165 62.0 L 164.6 62.0 L 174.6 52.0 L 186.6 62.0 L 186.6 66.0 L 167.99255323410034 66.0 L 165.2 83.5 L 161.0 100.9 L 155.6 116.9 L 149.1 131.6 L 144.4714928627014 139.43285818099974 L 148.3 144.5 L 155.8 152.7 L 164.0 159.8 L 173.0 166.1 L 182.7 171.4 L 187.9 174.1 L 176.6 183.1 L 166.0 176.5 Z M 54.267241382598876 99.3 L 53.0 101.4 L 48.8 107.0 L 44.2 112.3 L 39.0 117.3 L 37.495091152191165 118.5194951057434 L 38.9 119.3 L 40.9 120.0 L 42.8 120.8 L 44.7 121.8 L 46.4 123.0 L 48.0 124.2 L 49.6 125.7 L 51.0 127.2 L 52.2 128.9 L 53.4 130.8 L 52.9 135.3 L 50.97333335876465 137.0 L 62.46666669845581 137.0 L 63.2 135.6 L 64.6 131.0 L 66.0 126.6 L 66.7 124.5 L 67.3 122.3 L 67.9 120.3 L 68.5 118.2 L 68.8052589416504 117.18247013092041 L 68.6 117.1 L 69.6 115.1 L 75.10301303863525 118.60682201385498 L 72.5 115.5 L 69.5 111.6 L 66.8 107.5 L 64.5 103.2 L 62.76666669845581 99.3 Z M 125.0756097793579 66.0 L 122.1 72.1 L 118.83324489593505 77.76237554550171 L 121.5 88.9 L 125.5 102.1 L 130.1 114.2 L 135.5 125.4 L 138.86344623565674 131.06180124282838 L 140.7 127.5 L 146.2 113.5 L 150.7 98.1 L 154.0 81.4 L 155.94712648391723 66.0 Z M 90.1 75.6 L 88.9 72.9 L 87.5 70.1 L 87.02394771575928 69.24310598373413 L 83.7 70.2 L 77.0 71.8 L 70.1 73.3 L 63.1 74.7 L 56.0 76.1 L 48.7 77.5 L 41.3 78.9 L 33.8 80.3 L 26.2 81.7 L 22.53782539367676 82.36584987640381 L 20.9 85.8 L 18.5 83.1 L 14.8 71.5 L 16.8 71.2 L 24.6 70.4 L 37.97017936706543 69.18452911376953 L 42.2 65.3 L 46.9 60.8 L 51.5 56.2 L 55.8 51.6 L 59.9 46.9 L 63.9 42.1 L 67.6 37.2 L 71.1 32.2 L 73.81285009384155 28.007413482666017 L 73.8 28.0 L 74.1 27.56363639831543 L 74.4 27.1 L 74.41263427734376 27.108895587921143 L 74.9 26.4 L 84.2 34.0 L 85.6 37.3 L 81.81642074584961 37.03906354904175 L 80.2 39.1 L 75.9 44.0 L 71.4 48.8 L 66.6 53.3 L 61.7 57.7 L 56.5 61.9 L 51.1 65.8 L 47.32558135986328 68.31627902984619 L 47.5 68.3 L 54.8 67.7 L 62.1 67.2 L 69.3 66.8 L 76.3 66.5 L 83.3 66.4 L 85.46495723724365 66.46367521286011 L 84.4 64.6 L 82.7 61.8 L 78.9 56.0 L 76.6 53.2 L 77.8 51.9 L 80.8 54.0 L 83.9 55.9 L 86.8 58.0 L 89.5 60.3 L 92.1 62.6 L 94.5 65.0 L 96.8 67.6 L 99.0 70.2 L 101.0 72.9 L 102.9 75.6 L 103.1 80.2 L 100.2 83.7 L 95.6 83.9 L 92.1 80.9 L 91.2 78.3 Z M 42.0 49.9 L 40.3 48.1 L 38.4 46.1 L 36.2 44.1 L 33.7 42.1 L 31.1 40.0 L 28.2 37.8 L 25.2 35.5 L 21.8 33.4 L 22.5 31.8 L 26.3 33.0 L 30.1 34.0 L 33.7 35.1 L 37.0 36.3 L 37.44933586120605 36.48254270553589 L 37.8 36.1 L 39.6 33.4 L 43.2 28.2 L 46.4 23.0 L 47.9 20.3 L 49.3 17.7 L 50.6 15.0 L 51.38209457397461 13.24028720855713 L 51.3 13.2 L 51.709090900421145 12.504545497894288 L 51.8 12.3 L 51.82172079086304 12.313074684143066 L 52.3 11.5 L 62.1 18.5 L 63.6 21.8 L 59.40769233703613 21.8 L 57.8 23.7 L 55.5 26.1 L 53.1 28.4 L 50.6 30.6 L 48.0 32.7 L 45.3 34.7 L 42.5 36.5 L 40.32666664123535 37.65911111831665 L 43.2 39.0 L 46.0 40.4 L 48.6 41.9 L 51.1 43.5 L 53.3 45.1 L 55.0 49.4 L 53.2 53.6 L 48.9 55.2 L 44.7 53.5 L 43.5 51.8 Z " />
</g>
</svg>
