<svg xmlns="http://www.w3.org/2000/svg" xmlns:xlink="http://www.w3.org/1999/xlink" version="1.1" baseProfile="full" viewBox="0 0 200 200" width="200" height="200">
<g fill="black">
<path d="M 140.58402433395386 19.74958543777466 L 141.3 51.7 L 142.9103395462036 73.73237314224244 L 165.460378742218 71.32831783294678 L 174.4 60.3 L 187.3 69.0 L 187.8 72.9 L 143.19705133438111 77.65511178970337 L 143.5 81.8 L 147.0 106.7 L 151.5 126.8 L 156.6 142.6 L 162.2 154.6 L 168.0 163.1 L 173.6 168.8 L 177.1845088005066 171.16712846755982 L 182.3 149.0 L 184.3 149.0 L 182.40654201507567 173.6149532318115 L 183.7 174.1 L 187.4 176.9 L 188.1 181.4 L 185.3 185.1 L 180.8 185.8 L 173.5 183.0 L 166.0 178.1 L 158.7 170.7 L 151.8 160.5 L 145.5 147.0 L 139.9 130.0 L 135.2 108.8 L 131.6 83.1 L 131.28820896148682 78.92471122741699 L 94.0 82.9 L 93.5 79.0 L 130.9953263282776 75.00263042449951 L 129.3 52.3 L 128.52199811935424 16.998166847229005 L 128.5 17.0 L 128.5 13.6 L 140.5 16.0 L 143.5 18.0 Z M 83.8 157.4 L 83.20435075759887 155.38395652770996 L 82.4 155.8 L 76.4 158.5 L 70.1 161.1 L 63.6 163.6 L 56.9 166.0 L 49.9 168.3 L 42.8 170.7 L 35.5 173.0 L 28.1 175.3 L 24.33215961456299 176.37652578353882 L 23.0 180.0 L 20.4 177.5 L 15.5 166.4 L 17.5 165.9 L 25.2 164.2 L 30.207560539245605 163.14577674865723 L 32.8 159.1 L 39.2 148.9 L 45.2 138.7 L 51.0 128.3 L 56.4 117.9 L 61.4 107.4 L 66.1 96.7 L 70.4 85.9 L 74.4 75.0 L 77.9 64.0 L 77.91807231903076 64.00602407455445 L 78.4 62.5 L 89.3 67.8 L 91.5 70.6 L 87.91071243286133 71.41860942840576 L 85.0 79.0 L 80.3 90.1 L 75.3 100.9 L 69.8 111.5 L 63.8 122.0 L 57.5 132.2 L 50.8 142.2 L 43.6 151.9 L 35.9 161.4 L 35.307155990600585 162.0579122543335 L 40.2 161.0 L 47.5 159.4 L 54.5 157.8 L 61.4 156.3 L 68.2 154.8 L 74.8 153.4 L 81.3 152.1 L 82.14801082611083 151.96749830245972 L 81.0 148.6 L 79.4 144.3 L 77.6 140.0 L 75.8 135.9 L 73.9 131.7 L 69.9 123.3 L 71.3 122.2 L 74.8 125.4 L 78.2 128.8 L 81.3 132.5 L 84.1 136.4 L 86.8 140.5 L 89.3 144.8 L 91.7 149.2 L 93.9 153.7 L 95.9 158.4 L 97.7 163.3 L 97.2 167.8 L 93.6 170.7 L 89.1 170.2 L 86.2 166.6 L 85.1 162.0 Z M 42.4 96.9 L 40.0 93.0 L 37.4 89.2 L 34.6 85.5 L 31.6 81.8 L 28.5 78.2 L 25.2 74.6 L 21.8 70.9 L 18.3 67.3 L 19.3 65.8 L 24.0 68.0 L 28.5 70.5 L 32.8 73.3 L 35.32366933822632 75.20814027786255 L 37.7 69.6 L 40.1 63.9 L 42.6 58.4 L 45.0 53.0 L 47.3 47.7 L 49.5 42.5 L 51.6 37.4 L 53.5 32.4 L 55.3 27.5 L 56.67334423065186 23.622322177886964 L 56.6 23.6 L 57.5 21.3 L 68.1 27.1 L 70.2 30.1 L 66.4162428855896 30.687134742736816 L 65.8 32.0 L 63.3 36.8 L 60.7 41.7 L 57.9 46.7 L 54.9 51.6 L 51.7 56.6 L 48.3 61.6 L 44.8 66.6 L 40.9 71.6 L 36.77963304519653 76.30899085998536 L 36.9 76.4 L 40.7 79.7 L 44.4 83.2 L 47.9 86.9 L 51.2 90.7 L 54.3 94.8 L 57.2 99.0 L 57.7 103.5 L 54.9 107.2 L 50.4 107.7 L 46.7 104.9 L 44.7 100.9 Z M 163.0 42.9 L 161.8 40.4 L 160.5 38.0 L 159.0 35.5 L 157.3 33.0 L 155.5 30.6 L 153.5 28.1 L 151.4 25.5 L 149.0 23.3 L 150.0 21.8 L 153.0 23.4 L 156.1 24.8 L 159.1 26.5 L 161.9 28.3 L 164.6 30.3 L 167.1 32.5 L 169.5 34.8 L 171.7 37.3 L 173.8 39.9 L 175.7 42.6 L 175.9 47.2 L 173.0 50.6 L 168.4 50.9 L 164.9 47.9 L 164.0 45.4 Z " />
</g>
</svg>
