<svg xmlns="http://www.w3.org/2000/svg" xmlns:xlink="http://www.w3.org/1999/xlink" version="1.1" baseProfile="full" viewBox="0 0 200 200" width="200" height="200">
<g fill="black">
<path d="M 66.87800960540771 18.873194217681885 L 66.21259841918945 40.0 L 158.0 40.0 L 168.0 30.0 L 180.0 40.0 L 180.0 44.0 L 65.93620691299438 44.0 L 64.5 63.6 L 61.9 84.8 L 58.4 104.1 L 54.1 121.7 L 48.8 137.6 L 42.6 152.2 L 35.5 165.5 L 27.6 177.5 L 18.7 188.5 L 17.2 187.4 L 24.4 175.5 L 30.8 162.9 L 36.6 149.6 L 41.6 135.2 L 45.8 119.5 L 49.3 102.3 L 52.0 83.5 L 53.8 62.7 L 54.62378854751587 44.0 L 20.0 44.0 L 20.0 40.0 L 54.8 40.0 L 55.0 15.0 L 55.0 12.6 L 67.0 15.0 L 70.0 17.0 Z M 166.3 169.3 L 164.2 164.0 L 161.8 158.7 L 161.10590343475343 157.25627908706664 L 155.1 158.9 L 145.4 161.3 L 135.5 163.6 L 125.4 165.8 L 115.1 168.1 L 104.7 170.3 L 94.0 172.6 L 83.2 174.9 L 72.2 177.3 L 64.9468879699707 178.78947839736938 L 63.5 182.2 L 61.0 179.6 L 56.8 168.2 L 58.8 167.8 L 70.1 166.1 L 81.2 164.3 L 86.96232347488403 163.46184387207032 L 88.8 161.5 L 96.0 153.5 L 102.9 145.4 L 109.6 137.1 L 116.1 128.6 L 122.2 119.9 L 128.1 110.9 L 133.6 101.8 L 138.9 92.4 L 143.42961807250975 83.6125410079956 L 143.4 83.6 L 144.4 81.7 L 154.5 88.3 L 156.2 91.5 L 152.50735101699829 91.69099912643432 L 148.8 98.0 L 142.7 107.5 L 136.4 116.6 L 129.7 125.4 L 122.7 133.9 L 115.4 142.0 L 107.8 149.8 L 99.8 157.3 L 93.54399995803833 162.51333332061768 L 103.0 161.2 L 113.7 159.7 L 124.1 158.3 L 134.4 157.1 L 144.5 156.0 L 154.5 155.1 L 159.935893535614 154.82265853881836 L 159.3 153.5 L 156.6 148.3 L 153.8 143.1 L 150.8 138.0 L 147.8 132.8 L 144.6 127.5 L 146.0 126.4 L 150.7 130.4 L 155.1 134.8 L 159.2 139.4 L 163.0 144.2 L 166.6 149.1 L 170.0 154.2 L 173.1 159.4 L 176.1 164.8 L 178.9 170.3 L 181.4 175.9 L 181.2 180.5 L 177.9 183.7 L 173.3 183.5 L 170.2 180.2 L 168.3 174.7 Z M 96.9 119.7 L 94.0 116.2 L 90.8 112.7 L 87.3 109.2 L 83.5 105.6 L 79.5 102.0 L 75.2 98.3 L 70.6 94.5 L 65.9 90.5 L 66.8 88.9 L 72.6 91.3 L 78.1 93.8 L 83.3 96.6 L 87.72204723358155 99.36377954483032 L 89.1 97.1 L 91.9 92.6 L 94.6 88.2 L 97.4 83.6 L 100.0 79.0 L 102.5 74.3 L 104.9 69.5 L 107.3 64.6 L 109.5 59.6 L 111.22558879852295 55.40928440093994 L 111.2 55.4 L 112.1 53.3 L 122.5 59.5 L 124.4 62.6 L 120.62022476196289 62.991011238098146 L 119.7 64.7 L 116.7 69.7 L 113.7 74.5 L 110.4 79.2 L 107.1 83.7 L 103.5 88.0 L 99.9 92.2 L 96.0 96.1 L 91.9 99.7 L 90.19681386947632 100.96748733520508 L 92.7 102.6 L 97.0 105.8 L 101.0 109.0 L 104.7 112.4 L 108.2 115.9 L 111.4 119.4 L 112.5 123.9 L 110.2 127.8 L 105.7 128.9 L 101.8 126.6 L 99.5 123.1 Z " />
</g>
</svg>
