<svg xmlns="http://www.w3.org/2000/svg" xmlns:xlink="http://www.w3.org/1999/xlink" version="1.1" baseProfile="full" viewBox="0 0 200 200" width="200" height="200">
<g fill="black">
<path d="M 168.4 156.4 L 164.7 150.1 L 161.3 143.3 L 158.1 136.0 L 155.2 128.1 L 152.6 119.6 L 151.5 115.2956521987915 L 151.5 184.0 L 139.5 190.0 L 139.5 122.71621618270873 L 136.3 130.5 L 132.2 138.9 L 127.9 146.6 L 123.2 153.7 L 118.1 160.0 L 112.7 165.6 L 107.0 170.3 L 105.7 169.0 L 109.8 163.1 L 113.8 156.9 L 117.6 150.2 L 121.2 143.0 L 124.5 135.3 L 127.7 127.1 L 130.6 118.3 L 133.2 108.9 L 135.6 98.9 L 137.091397857666 91.6 L 108.1 91.6 L 108.1 87.6 L 139.5 87.6 L 139.5 51.7 L 151.5 53.7 L 154.5 55.7 L 151.5 57.5 L 151.5 87.6 L 160.8 87.6 L 170.8 77.6 L 182.8 87.6 L 182.8 91.6 L 151.5 91.6 L 151.5 97.33243246078491 L 152.5 99.9 L 156.0 108.9 L 159.4 117.2 L 163.0 125.0 L 166.6 132.1 L 170.3 138.5 L 174.1 144.3 L 178.0 149.5 L 182.0 154.0 L 186.0 157.9 L 187.5 159.4 L 176.7 167.3 L 172.4 162.1 Z M 42.0 41.0 L 99.0 41.0 L 99.0 12.0 L 111.0 14.0 L 114.0 16.0 L 111.0 17.8 L 111.0 41.0 L 164.0 41.0 L 174.0 31.0 L 186.0 41.0 L 186.0 45.0 L 42.0 45.0 L 42.0 104.0 L 41.4 115.3 L 40.2 126.1 L 38.6 136.3 L 36.3 145.9 L 33.5 154.9 L 30.1 163.3 L 26.2 171.0 L 21.6 178.0 L 16.4 184.2 L 10.6 189.6 L 9.3 188.3 L 13.4 181.9 L 17.0 175.2 L 20.3 168.1 L 23.1 160.5 L 25.4 152.5 L 27.3 143.9 L 28.7 134.7 L 29.6 125.0 L 30.0 114.8 L 30.0 35.0 Z M 106.4 64.1 L 106.4 68.1 L 85.5 68.1 L 85.5 113.5 L 90.2 113.5 L 100.2 103.5 L 112.2 113.5 L 112.2 117.5 L 85.5 117.5 L 85.5 183.2 L 73.5 189.2 L 73.5 117.5 L 46.7 117.5 L 46.7 113.5 L 73.5 113.5 L 73.5 68.1 L 52.5 68.1 L 52.5 64.1 L 84.4 64.1 L 94.4 54.1 Z " />
</g>
</svg>
