<svg xmlns="http://www.w3.org/2000/svg" xmlns:xlink="http://www.w3.org/1999/xlink" version="1.1" baseProfile="full" viewBox="0 0 200 200" width="200" height="200">
<g fill="black">
<path d="M 155.5 185.4 L 148.0 183.0 L 140.9 180.2 L 134.2 176.9 L 128.1 173.3 L 122.4 169.2 L 117.4 164.8 L 112.9 159.8 L 110.5880000114441 156.3319999694824 L 107.8 161.5 L 102.3 168.1 L 95.3 173.7 L 87.1 178.3 L 77.7 182.0 L 66.9 184.7 L 55.0 186.5 L 41.7 187.3 L 41.6 185.5 L 54.3 182.8 L 65.6 179.5 L 75.3 175.8 L 83.6 171.6 L 90.3 166.9 L 95.5 161.8 L 99.3 156.2 L 99.8 155.0 L 40.0 155.0 L 40.0 151.0 L 101.46666669845581 151.0 L 101.8 150.2 L 103.1 143.7 L 103.3 136.5 L 103.3 134.1 L 115.3 136.2 L 118.3 138.2 L 114.8935209274292 140.3551194190979 L 114.4 145.4 L 112.7529411315918 151.0 L 157.4 151.0 L 167.4 141.0 L 179.4 151.0 L 179.4 155.0 L 113.2 155.0 L 115.8 156.8 L 121.0 160.1 L 126.4 163.2 L 132.1 166.0 L 138.1 168.5 L 144.5 170.6 L 151.2 172.4 L 158.2 173.9 L 165.7 175.1 L 173.6 176.0 L 183.8 177.2 L 171.9 189.1 L 163.5 187.4 Z M 36.5 91.0 L 36.392562007904054 91.16115703582764 L 35.8 104.0 L 34.8 116.3 L 33.5 127.9 L 31.8 138.8 L 29.8 148.9 L 27.4 158.3 L 24.6 167.0 L 21.4 175.0 L 17.8 182.1 L 13.7 188.3 L 12.2 187.6 L 14.6 180.7 L 16.8 173.3 L 18.8 165.4 L 20.6 156.8 L 22.1 147.5 L 23.4 137.5 L 24.3 126.9 L 25.0 115.6 L 25.4 103.6 L 25.5 90.9 L 25.5 22.5 L 36.5 28.0 L 99.0 28.0 L 99.0 12.0 L 111.0 14.0 L 114.0 16.0 L 111.0 17.8 L 111.0 28.0 L 169.8181818008423 28.0 L 178.0 19.0 L 188.0 28.0 L 188.0 32.0 L 36.5 32.0 Z M 140.0 146.6 L 139.3 145.6 L 138.4 144.5 L 137.2 143.3 L 135.7 142.1 L 134.0 140.8 L 132.1 139.5 L 130.0 138.0 L 127.5 137.1 L 128.0 135.4 L 130.6 136.0 L 133.3 136.1 L 135.7 136.2 L 138.0 136.5 L 140.2 136.9 L 142.2 137.3 L 144.1 137.8 L 145.9 138.4 L 147.7 139.2 L 149.3 140.2 L 150.8 144.6 L 148.9 148.7 L 144.5 150.2 L 140.4 148.2 L 140.3 147.5 Z M 158.1 126.3 L 151.1 121.4 L 144.9 116.0 L 143.60091981887817 114.52934322357177 L 139.0 118.5 L 130.9 124.0 L 121.9 128.5 L 112.1 131.9 L 101.5 134.4 L 101.0 132.7 L 110.7 128.4 L 119.5 123.7 L 127.3 118.5 L 134.1 112.7 L 138.35008220672609 108.23381185531616 L 135.0 103.5 L 131.4 96.6 L 128.6 89.2 L 126.8 81.4 L 126.47752809524536 77.62247190475463 L 123.7 80.4 L 119.5 83.9 L 115.0 87.1 L 113.7 85.8 L 116.7 81.3 L 119.6 76.9 L 122.3 72.5 L 124.9 68.1 L 127.2 63.6 L 129.4 59.0 L 131.3 54.4 L 133.1 49.6 L 134.6 44.7 L 135.6625542640686 40.61325302124023 L 135.6 40.6 L 136.4 38.1 L 147.4 43.1 L 149.7 45.9 L 145.95323276519775 46.82025861740112 L 145.3 48.5 L 143.0 53.7 L 140.4 58.7 L 137.6 63.4 L 136.72391300201417 64.7 L 160.0 64.7 L 170.0 54.7 L 182.0 64.7 L 182.0 68.7 L 168.3380952835083 68.7 L 166.1 78.1 L 162.6 87.9 L 158.1 96.8 L 152.7 104.9 L 150.57369680404662 107.32531452178955 L 151.7 108.3 L 157.5 112.4 L 163.9 116.0 L 171.0 119.2 L 178.7 122.0 L 185.8 124.5 L 174.2 134.4 L 165.8 130.6 Z M 81.3 119.6 L 93.3 119.6 L 94.6 119.5 L 95.5 119.4 L 96.1 119.2 L 96.4 119.0 L 96.6 118.9 L 96.9 118.3 L 97.1 117.7 L 97.3 116.8 L 97.3 108.6 L 59.1 108.6 L 59.1 125.2 L 48.1 130.7 L 48.1 69.1 L 51.0 70.55 L 51.0 37.9 L 63.0 43.9 L 93.9 43.9 L 99.9 38.9 L 110.9 47.9 L 105.9 51.9 L 105.9 65.3 L 93.9 71.3 L 93.9 65.3 L 63.0 65.3 L 51.75 70.925 L 59.1 74.6 L 97.3 74.6 L 103.3 69.6 L 114.3 78.6 L 109.3 82.6 L 109.3 115.6 L 109.2 118.2 L 108.8 120.7 L 107.9 123.1 L 106.7 125.3 L 105.1 127.3 L 103.1 129.0 L 100.8 130.2 L 98.4 131.0 L 95.9 131.5 L 93.3 131.6 L 93.3 125.6 L 81.3 122.6 Z M 59.1 93.6 L 59.1 104.6 L 97.3 104.6 L 97.3 93.6 Z M 133.95909090042113 68.7 L 131.1 72.4 L 128.75261783599854 75.14979057312011 L 130.8 80.2 L 134.0 86.9 L 137.7 93.1 L 141.8 98.7 L 144.00041065216064 101.08767967224121 L 145.1 99.6 L 149.2 92.1 L 152.6 84.0 L 155.1 75.2 L 156.19473686218262 68.7 Z M 59.1 78.6 L 59.1 89.6 L 97.3 89.6 L 97.3 78.6 Z M 63.0 47.9 L 63.0 61.3 L 93.9 61.3 L 93.9 47.9 Z " />
</g>
</svg>
