<svg xmlns="http://www.w3.org/2000/svg" xmlns:xlink="http://www.w3.org/1999/xlink" version="1.1" baseProfile="full" viewBox="0 0 200 200" width="200" height="200">
<g fill="black">
<path d="M 42.6 34.4 L 99.9 34.4 L 99.9 11.8 L 111.9 13.8 L 114.9 15.8 L 111.9 17.6 L 111.9 34.4 L 165.1 34.4 L 175.1 24.4 L 187.1 34.4 L 187.1 38.4 L 42.6 38.4 L 42.6 100.4 L 42.0 112.0 L 41.0 123.0 L 39.3 133.3 L 37.2 143.0 L 34.5 152.1 L 31.3 160.5 L 27.5 168.2 L 23.1 175.2 L 18.1 181.4 L 12.5 186.7 L 11.2 185.5 L 15.0 179.2 L 18.5 172.5 L 21.5 165.4 L 24.1 157.8 L 26.3 149.7 L 28.1 141.0 L 29.4 131.8 L 30.3 121.9 L 30.7 111.5 L 30.6 100.4 L 30.6 28.4 Z M 179.0 143.1 L 181.0 143.1 L 179.0 168.1 L 182.6 170.5 L 185.0 174.1 L 182.6 177.7 L 179.0 180.1 L 116.4 180.1 L 113.8 180.0 L 111.3 179.5 L 108.9 178.7 L 106.6 177.5 L 104.6 175.9 L 103.0 173.8 L 101.8 171.6 L 101.0 169.2 L 100.5 166.7 L 100.4 164.1 L 100.4 137.46216220855712 L 46.4 143.3 L 45.9 139.4 L 100.4 133.47262773513793 L 100.4 106.51414136886596 L 53.0 112.1 L 52.5 108.2 L 100.4 102.51489896774292 L 100.4 77.5 L 97.9 78.0 L 87.2 79.8 L 76.1 81.5 L 64.6 82.8 L 52.9 83.7 L 52.6 82.0 L 64.0 79.0 L 75.0 76.2 L 85.8 73.4 L 96.2 70.6 L 106.3 67.7 L 116.1 64.7 L 125.6 61.7 L 134.7 58.5 L 143.5 55.2 L 152.0 51.8 L 152.65306015014647 53.55704288482666 L 161.4 61.2 L 161.6 64.3 L 157.65720491409303 62.56755971908569 L 156.2 63.1 L 147.3 66.0 L 138.0 68.7 L 128.4 71.3 L 118.6 73.7 L 112.4 75.03725490570068 L 112.4 101.09065656661987 L 149.4413110733032 96.69433937072753 L 158.2 85.6 L 171.3 94.1 L 171.8 98.1 L 112.4 105.1 L 112.4 132.16751823425292 L 160.99787931442262 126.88205547332764 L 169.9 115.9 L 182.9 124.5 L 183.3 128.5 L 112.4 136.1648648262024 L 112.4 165.3 L 112.6 166.3 L 112.8 166.8 L 113.1 167.4 L 113.3 167.5 L 113.6 167.7 L 114.2 167.9 L 115.1 168.0 L 116.4 168.1 L 173.0 168.1 Z " />
</g>
</svg>
