<svg xmlns="http://www.w3.org/2000/svg" xmlns:xlink="http://www.w3.org/1999/xlink" version="1.1" baseProfile="full" viewBox="0 0 200 200" width="200" height="200">
<g fill="black">
<path d="M 42.1 34.2 L 98.4 34.2 L 98.4 11.7 L 110.4 13.7 L 113.4 15.7 L 110.4 17.5 L 110.4 34.2 L 162.3 34.2 L 172.3 24.2 L 184.3 34.2 L 184.3 38.2 L 42.1 38.2 L 42.1 91.0 L 163.0 91.0 L 173.0 81.0 L 185.0 91.0 L 185.0 95.0 L 42.1 95.0 L 42.1 99.9 L 41.5 111.4 L 40.5 122.3 L 38.9 132.6 L 36.7 142.3 L 34.1 151.3 L 30.9 159.7 L 27.1 167.4 L 22.8 174.3 L 17.9 180.5 L 12.4 185.8 L 11.1 184.6 L 14.8 178.3 L 18.2 171.6 L 21.2 164.6 L 23.8 157.0 L 25.9 149.0 L 27.7 140.3 L 28.9 131.1 L 29.8 121.3 L 30.2 110.9 L 30.1 99.9 L 30.1 28.2 Z M 70.0 165.0 L 58.0 171.0 L 58.0 101.0 L 70.0 107.0 L 149.0 107.0 L 155.0 102.0 L 166.0 111.0 L 161.0 115.0 L 161.0 159.0 L 149.0 165.0 L 149.0 153.0 L 70.0 153.0 Z M 70.0 131.0 L 70.0 149.0 L 103.0 149.0 L 103.0 131.0 Z M 115.0 131.0 L 115.0 149.0 L 149.0 149.0 L 149.0 131.0 Z M 70.0 111.0 L 70.0 127.0 L 103.0 127.0 L 103.0 111.0 Z M 115.0 111.0 L 115.0 127.0 L 149.0 127.0 L 149.0 111.0 Z M 136.52329750061034 49.986021518707275 L 136.3 51.9 L 135.89070768356322 53.50793428421021 L 136.4 54.9 L 138.3 58.4 L 140.5 61.5 L 143.0 64.2 L 145.9 66.6 L 149.2 68.6 L 153.0 70.4 L 157.4 71.9 L 162.2 73.2 L 170.1 75.6 L 158.5 85.9 L 152.8 83.5 L 147.6 80.7 L 143.1 77.5 L 139.2 73.9 L 136.1 69.9 L 133.6 65.6 L 132.5982608795166 62.71999998092652 L 129.9 67.0 L 126.4 71.0 L 122.3 74.3 L 117.6 77.1 L 112.3 79.3 L 106.6 80.8 L 100.4 81.7 L 99.9 80.0 L 100.25195531845092 79.83362112045288 L 98.1 79.1 L 97.0 77.5 L 95.6 75.9 L 94.1 74.3 L 92.5 72.6 L 90.7 70.8 L 88.7 69.0 L 86.6 67.2 L 84.4 65.3 L 82.4547945022583 63.67899541854858 L 82.4 63.8 L 79.5 68.8 L 75.8 73.3 L 71.6 77.5 L 66.9 81.3 L 61.5 84.7 L 55.6 87.6 L 49.1 90.0 L 48.3 88.3 L 53.7 84.3 L 58.5 80.3 L 62.6 76.3 L 66.2 72.3 L 69.1 68.2 L 71.5 64.0 L 73.3 59.7 L 74.5 55.4 L 75.3 50.9 L 75.5 46.2 L 75.56224069595336 46.20414934158325 L 75.7 44.0 L 87.5 47.0 L 90.4 49.2 L 86.8240740776062 50.98796300888061 L 86.5 52.9 L 84.8 58.5 L 83.57415790557862 61.20706787109375 L 86.2 61.8 L 89.1 62.6 L 91.9 63.5 L 94.6 64.5 L 97.1 65.5 L 99.6 66.6 L 101.9 67.7 L 104.1 68.9 L 106.2 70.2 L 108.1 74.3 L 107.44322299957275 76.18276081085205 L 110.1 74.6 L 114.2 71.7 L 117.5 68.7 L 120.2 65.5 L 122.2 62.1 L 123.7 58.5 L 124.6 54.6 L 125.0 50.5 L 125.0 43.5 L 137.0 45.9 L 140.0 47.9 Z " />
</g>
</svg>
