<svg xmlns="http://www.w3.org/2000/svg" xmlns:xlink="http://www.w3.org/1999/xlink" version="1.1" baseProfile="full" viewBox="0 0 200 200" width="200" height="200">
<g fill="black">
<path d="M 90.3 180.4 L 88.5 182.0 L 86.5 183.3 L 84.4 184.5 L 82.2 185.4 L 80.0 186.2 L 77.6 186.7 L 75.2 187.0 L 72.8 187.1 L 72.8 181.1 L 52.8 178.1 L 52.8 175.1 L 72.8 175.1 L 74.2 175.0 L 75.6 174.8 L 76.9 174.6 L 78.0 174.2 L 79.2 173.7 L 80.2 173.1 L 81.2 172.4 L 82.2 171.6 L 83.2 170.6 L 84.2 169.5 L 84.3 169.2 L 84.8 168.2 L 85.3 166.4 L 85.9 164.1 L 86.5 161.3 L 87.1 157.9 L 87.7 154.1 L 88.2 149.8 L 88.8 144.9 L 89.05961542129516 142.2 L 65.25816621780396 142.2 L 63.9 150.1 L 51.0 153.9 L 59.1 107.2 L 68.41499996185303 114.1 L 90.9 114.1 L 90.9 95.7 L 73.25652170181274 95.7 L 68.0 98.8 L 59.8 102.9 L 51.1 106.5 L 42.51724729537964 109.29872369766235 L 42.4 111.8 L 41.3 123.7 L 39.8 134.9 L 37.7 145.1 L 35.0 154.6 L 31.9 163.1 L 28.2 170.8 L 23.9 177.5 L 19.0 183.1 L 13.6 187.6 L 12.3 186.3 L 16.0 180.8 L 19.3 174.7 L 22.2 168.0 L 24.7 160.5 L 26.9 152.3 L 28.6 143.3 L 29.8 133.5 L 30.6 122.8 L 31.0 111.3 L 31.0 27.0 L 43.0 33.0 L 103.0 33.0 L 103.0 12.0 L 115.0 14.0 L 118.0 16.0 L 115.0 17.8 L 115.0 33.0 L 159.0 33.0 L 169.0 23.0 L 181.0 33.0 L 181.0 37.0 L 43.0 37.0 L 43.0 99.0 L 42.621825981140134 107.0677116394043 L 49.4 103.1 L 57.2 98.2 L 64.5 93.2 L 71.3 88.0 L 74.60777206420899 85.20906734466553 L 74.3 85.3 L 70.2 83.2 L 69.2 81.3 L 68.0 79.5 L 65.2 75.9 L 63.6 74.1 L 60.0 70.5 L 58.0 68.7 L 55.8 66.9 L 53.3 65.5 L 54.0 63.8 L 56.8 64.7 L 59.7 65.2 L 62.5 66.0 L 65.2 66.9 L 67.8 68.0 L 70.3 69.2 L 72.8 70.6 L 75.1 72.1 L 77.3 73.7 L 79.5 75.5 L 80.72064990997315 79.63143033981324 L 83.5 76.9 L 88.8 70.9 L 93.7 64.8 L 98.1 58.3 L 99.08955221176147 56.6 L 58.4 56.6 L 58.4 52.6 L 101.2 52.6 L 101.62318840026856 52.24734296798706 L 102.0 51.6 L 102.23542852401734 51.7371428489685 L 107.2 47.6 L 118.2 56.6 L 113.2 59.6 L 109.99934101104736 60.93360786437988 L 107.4 64.7 L 102.1 71.5 L 96.2 77.8 L 89.9 83.6 L 83.0 89.1 L 79.32941179275512 91.7 L 90.9 91.7 L 96.9 86.7 L 107.9 95.7 L 102.9 99.7 L 102.9 118.1 L 90.9 124.1 L 90.9 118.1 L 69.40143270492554 118.1 L 65.94584531784058 138.2 L 89.2 138.2 L 95.2 133.2 L 106.2 142.2 L 101.2 145.2 L 100.7748031616211 145.3771653175354 L 100.7 146.2 L 100.2 151.2 L 99.6 155.7 L 99.0 159.9 L 98.3 163.6 L 97.6 166.9 L 96.8 169.8 L 96.0 172.4 L 95.0 174.7 L 93.6 176.8 L 92.1 178.7 Z M 150.7 178.0 L 143.3 172.8 L 136.7 167.1 L 135.11557092666627 165.34878892898558 L 130.0 169.8 L 121.4 175.6 L 111.8 180.4 L 101.4 184.1 L 90.1 186.8 L 89.6 185.1 L 100.0 180.6 L 109.4 175.6 L 117.8 170.1 L 125.1 164.0 L 129.81759481430055 159.13498039245604 L 126.1 153.9 L 122.2 146.6 L 119.2 138.7 L 117.2 130.5 L 116.80609245300293 126.21625528335571 L 113.7 129.4 L 109.2 133.2 L 104.5 136.6 L 103.2 135.3 L 106.5 130.6 L 109.6 125.9 L 112.5 121.3 L 115.3 116.6 L 117.8 111.8 L 120.1 107.0 L 122.3 102.0 L 124.1 96.9 L 125.8 91.7 L 127.0209771156311 87.3044822692871 L 127.0 87.3 L 127.7 84.7 L 138.7 89.8 L 141.0 92.6 L 137.25825242996217 93.53543691635132 L 136.5 95.5 L 134.1 101.0 L 131.3 106.3 L 128.3 111.4 L 127.3 112.9 L 154.0 112.9 L 164.0 102.9 L 176.0 112.9 L 176.0 116.9 L 161.05675678253175 116.9 L 158.6 127.0 L 154.9 137.4 L 150.2 146.8 L 144.4 155.4 L 142.03493089675902 158.11806449890136 L 143.5 159.4 L 149.7 163.8 L 156.5 167.7 L 164.1 171.1 L 172.3 174.0 L 179.5 176.6 L 167.9 186.5 L 158.9 182.5 Z M 124.5638298034668 116.9 L 121.5 120.9 L 119.07598333358764 123.70675611495972 L 121.2 129.3 L 124.7 136.5 L 128.5 143.1 L 132.9 149.1 L 135.53478527069092 151.9455680847168 L 136.9 150.1 L 141.3 142.1 L 144.9 133.5 L 147.6 124.1 L 148.88316831588745 116.9 Z M 158.0 99.1 L 150.4 94.1 L 143.4 88.7 L 137.1 82.9 L 131.5 76.7 L 126.7 70.2 L 122.6 63.2 L 119.3 55.9 L 117.1 48.1 L 118.8 47.5 L 123.0 53.9 L 127.5 60.0 L 132.4 65.7 L 137.0618182182312 70.54111890792846 L 137.1 70.5 L 139.2 67.5 L 141.3 64.8 L 143.2 62.2 L 145.0 59.8 L 146.6 57.5 L 148.1 55.4 L 149.5 53.4 L 150.7 51.6 L 151.1765486717224 50.83752212524414 L 151.0 50.7 L 152.0 49.6 L 160.5 58.1 L 161.3 61.6 L 156.8529411315918 60.6637770652771 L 156.8 60.7 L 154.8 62.1 L 152.6 63.7 L 150.2 65.3 L 147.6 66.9 L 144.9 68.7 L 142.0 70.5 L 138.99895133972169 72.28187265396119 L 143.4 76.0 L 149.6 80.6 L 150.50162353515626 81.15688514709473 L 152.8 78.7 L 155.5 75.8 L 158.1 73.2 L 160.4 70.7 L 162.5 68.5 L 164.4 66.3 L 166.1 64.4 L 167.6 62.7 L 168.2449999809265 61.839999961853025 L 168.1 61.7 L 169.0 60.9 L 176.8 70.1 L 177.3 73.6 L 172.9897958755493 72.2915452003479 L 172.8 72.4 L 170.4 73.8 L 167.9 75.2 L 165.1 76.8 L 162.1 78.5 L 158.9 80.3 L 153.49210529327394 83.00394735336303 L 156.4 84.8 L 163.7 88.7 L 171.5 92.3 L 179.9 95.5 L 186.7 98.1 L 175.2 107.8 L 166.3 103.6 Z " />
</g>
</svg>
