<svg xmlns="http://www.w3.org/2000/svg" xmlns:xlink="http://www.w3.org/1999/xlink" version="1.1" baseProfile="full" viewBox="0 0 200 200" width="200" height="200">
<g fill="black">
<path d="M 94.6 157.3 L 93.96111106872559 159.6 L 130.8 159.6 L 130.8 142.5 L 142.8 144.5 L 145.8 146.5 L 142.8 148.3 L 142.8 159.6 L 161.3 159.6 L 171.3 149.6 L 183.3 159.6 L 183.3 163.6 L 142.8 163.6 L 142.8 182.8 L 130.8 188.8 L 130.8 163.6 L 92.72200002670289 163.6 L 91.0 167.7 L 88.2 172.2 L 84.8 176.2 L 80.8 179.6 L 76.3 182.4 L 71.2 184.7 L 65.7 186.4 L 59.7 187.5 L 53.3 188.0 L 53.0 186.3 L 58.8 184.0 L 63.9 181.6 L 68.4 179.0 L 72.2 176.2 L 75.3 173.3 L 77.9 170.2 L 79.8 166.9 L 81.11999998092651 163.6 L 40.5 163.6 L 40.5 159.6 L 82.2125 159.6 L 82.6 156.5 L 82.6 142.5 L 94.6 144.5 L 97.6 146.5 L 94.6 148.3 L 94.6 156.5 L 94.11053981781006 157.23419027328492 Z M 37.0 94.0 L 36.93452377319336 94.09821424484252 L 37.0 94.1 L 36.1 106.5 L 35.0 118.3 L 33.5 129.4 L 31.7 139.9 L 29.6 149.7 L 27.2 158.9 L 24.4 167.3 L 21.2 175.1 L 17.5 182.1 L 13.5 188.3 L 12.0 187.6 L 14.4 180.7 L 16.6 173.4 L 18.6 165.6 L 20.4 157.2 L 22.0 148.2 L 23.3 138.6 L 24.4 128.3 L 25.2 117.4 L 25.7 105.9 L 26.0 93.8 L 26.0 27.5 L 37.0 33.0 L 101.3 33.0 L 101.3 12.0 L 113.3 14.0 L 116.3 16.0 L 113.3 17.8 L 113.3 33.0 L 166.9181818008423 33.0 L 175.1 24.0 L 185.1 33.0 L 185.1 37.0 L 37.0 37.0 Z M 78.8 130.7 L 88.8 130.7 L 90.0 130.6 L 90.9 130.5 L 91.5 130.3 L 91.8 130.1 L 92.2 129.7 L 92.4 129.4 L 92.6 128.8 L 92.7 127.9 L 92.8 126.7 L 92.8 118.4 L 59.5 118.4 L 59.5 136.2 L 48.5 141.7 L 48.5 81.7 L 59.5 87.2 L 92.8 87.2 L 98.8 82.2 L 109.8 91.2 L 104.8 95.2 L 104.8 126.7 L 104.6 129.2 L 104.2 131.7 L 103.4 134.1 L 102.2 136.4 L 100.5 138.4 L 98.5 140.1 L 96.2 141.3 L 93.8 142.1 L 91.3 142.5 L 88.8 142.7 L 88.8 136.7 L 78.8 133.7 Z M 133.5 139.1 L 131.2 139.0 L 129.0 138.5 L 126.9 137.7 L 125.0 136.4 L 123.3 134.7 L 121.9 132.7 L 120.9 130.5 L 120.2 128.1 L 119.8 125.5 L 119.8 73.7 L 131.8 79.7 L 165.4 79.7 L 165.4 67.5 L 131.8 67.5 L 119.8 73.5 L 119.8 38.4 L 131.8 40.4 L 134.8 42.4 L 131.8 44.2 L 131.8 50.2 L 169.0777777671814 50.2 L 175.3 43.2 L 183.3 50.2 L 183.3 54.2 L 131.8 54.2 L 131.8 63.5 L 165.4 63.5 L 171.4 58.5 L 182.4 67.5 L 177.4 71.5 L 177.4 83.7 L 169.08571424484253 87.85714282989503 L 174.8 93.0 L 174.8 97.0 L 165.68888893127442 97.0 L 174.8 105.2 L 174.8 109.2 L 165.8 109.2 L 174.8 117.3 L 174.8 121.3 L 131.8 121.3 L 131.8 125.5 L 131.6 126.8 L 131.6 127.8 L 131.5 128.6 L 131.6 129.1 L 131.7 129.7 L 131.9 130.2 L 132.4 130.7 L 133.2 131.2 L 134.3 131.7 L 135.8 132.0 L 178.1 132.0 L 181.6 127.0 L 183.6 127.0 L 181.6 132.0 L 183.7 133.4 L 185.1 135.5 L 183.7 137.6 L 181.6 139.0 L 135.8 139.0 Z M 131.8 109.2 L 131.8 117.3 L 156.61818180084228 117.3 L 163.98181819915771 109.2 Z M 59.5 105.1 L 59.5 114.4 L 92.8 114.4 L 92.8 105.1 Z M 131.8 97.0 L 131.8 105.2 L 156.61818180084228 105.2 L 164.07272729873657 97.0 Z M 59.5 91.2 L 59.5 101.1 L 92.8 101.1 L 92.8 91.2 Z M 131.8 83.7 L 131.8 93.0 L 156.61818180084228 93.0 L 164.8 84.0 L 165.4 84.53999996185303 L 165.4 83.7 Z M 58.0 69.8 L 57.7 68.3 L 57.3 66.9 L 56.7 65.4 L 56.0 63.8 L 55.2 62.2 L 54.3 60.5 L 53.3 58.8 L 51.8 57.5 L 52.8 56.0 L 54.6 57.1 L 56.6 57.8 L 58.5 58.7 L 60.3 59.6 L 62.1 60.7 L 63.8 61.9 L 66.8 64.7 L 68.2 66.3 L 69.4 68.0 L 69.3 72.5 L 66.77878789901733 75.1 L 83.03478260040283 75.1 L 83.7 74.2 L 85.9 69.4 L 86.9 67.1 L 87.9 65.0 L 88.8 62.9 L 89.6 60.9 L 90.8 57.1 L 91.01990518569946 56.352322292327884 L 90.9 56.3 L 91.20666666030884 55.71733331680298 L 91.3 55.4 L 91.35743036270142 55.430882358551024 L 91.42631578445435 55.3 L 40.5 55.3 L 40.5 51.3 L 70.8 51.3 L 70.8 38.4 L 82.8 40.4 L 85.8 42.4 L 82.8 44.2 L 82.8 51.3 L 94.91818180084229 51.3 L 103.1 42.3 L 113.1 51.3 L 113.1 55.3 L 93.24328355789184 55.3 L 101.9 61.1 L 103.5 64.3 L 98.76353940963745 64.54498929977417 L 97.3 66.1 L 95.6 67.7 L 93.8 69.3 L 91.9 71.0 L 89.9 72.6 L 87.7 74.2 L 86.40625 75.1 L 96.61818180084228 75.1 L 104.8 66.1 L 114.8 75.1 L 114.8 79.1 L 38.8 79.1 L 38.8 75.1 L 60.9 75.1 L 58.3 72.5 L 58.2 71.1 Z " />
</g>
</svg>
