<svg xmlns="http://www.w3.org/2000/svg" xmlns:xlink="http://www.w3.org/1999/xlink" version="1.1" baseProfile="full" viewBox="0 0 200 200" width="200" height="200">
<g fill="black">
<path d="M 149.1 137.2 L 145.59679040908813 135.67973918914794 L 145.4 135.8 L 141.6 138.0 L 137.6 140.3 L 133.4 142.6 L 129.0 145.0 L 124.4 147.3 L 119.5 149.7 L 114.64654026031494 151.9839810371399 L 125.9 151.9 L 140.0 151.8 L 154.7 151.9 L 163.6750150680542 152.01732044219972 L 162.0 150.6 L 159.1 148.3 L 155.9 145.9 L 152.4 143.4 L 148.5 141.1 L 149.2 139.5 L 153.6 140.8 L 157.8 141.9 L 161.8 143.3 L 165.5 144.7 L 168.9 146.3 L 172.2 148.0 L 175.2 149.9 L 178.0 151.8 L 180.5 154.0 L 182.9 156.2 L 183.9 160.7 L 181.6 164.6 L 177.2 165.7 L 173.2 163.4 L 172.1 161.4 L 170.7 159.3 L 169.0 157.2 L 166.9 155.0 L 166.2292176246643 154.3583821296692 L 154.9 155.7 L 140.3 157.2 L 126.2 158.4 L 119.5 158.95 L 119.5 182.8 L 107.5 188.8 L 107.5 159.91085271835328 L 99.9 160.5 L 87.7 161.4 L 81.51224489212036 161.87598114013673 L 88.4 170.0 L 88.9 173.5 L 84.96659069061279 172.3059292793274 L 81.9 174.2 L 78.4 176.2 L 74.6 178.1 L 70.5 179.9 L 66.3 181.6 L 61.7 183.2 L 56.9 184.7 L 51.8 186.0 L 46.5 187.3 L 45.9 185.6 L 50.6 182.9 L 54.9 180.2 L 59.1 177.6 L 63.0 175.1 L 66.6 172.7 L 69.9 170.3 L 73.0 167.9 L 75.8 165.6 L 78.2 163.3 L 79.40722017288208 162.03790616989136 L 76.0 162.3 L 65.0 163.0 L 54.5 163.6 L 48.82622604370117 163.9473738670349 L 46.8 167.2 L 44.7 164.2 L 42.4 152.3 L 44.4 152.2 L 54.2 152.3 L 64.6 152.3 L 75.7 152.2 L 87.3 152.1 L 93.86999998092651 152.1 L 91.0 150.7 L 89.8 148.8 L 88.2 146.9 L 86.3 144.9 L 84.2 142.9 L 81.7 140.9 L 78.8 138.8 L 75.7 136.8 L 72.3 134.7 L 68.6 132.5 L 64.6 130.6 L 65.1 128.9 L 69.6 129.8 L 73.9 130.6 L 78.0 131.6 L 81.8 132.7 L 85.5 134.1 L 88.8 135.5 L 89.0628571510315 135.63142852783204 L 91.2 133.3 L 93.5 131.0 L 95.6 128.7 L 97.7 126.6 L 99.8 124.4 L 101.7 122.4 L 103.6 120.3 L 105.3 118.3 L 106.3396556854248 117.13803186416627 L 106.2 117.0 L 106.90422534942627 116.50704221725464 L 107.0 116.4 L 107.02142858505249 116.425 L 107.2 116.3 L 114.8 125.5 L 115.3 129.1 L 111.22974243164063 127.69391098022462 L 110.1 128.4 L 107.5 129.8 L 104.9 131.3 L 102.2 132.7 L 99.4 134.0 L 96.6 135.4 L 93.6 136.7 L 92.20086584091186 137.22467536926268 L 94.9 138.9 L 97.6 140.8 L 100.1 142.9 L 101.5 147.3 L 99.5 151.4 L 97.1307692527771 152.1 L 99.6 152.1 L 105.83258428573609 152.05168542861938 L 107.1 151.0 L 111.7 147.4 L 116.1 144.1 L 120.4 140.9 L 124.5 137.8 L 128.4 134.8 L 132.0 132.0 L 135.5 129.2 L 138.8 126.5 L 141.0465696334839 124.55297298431397 L 141.0 124.5 L 141.8 123.9 L 149.0 133.6 Z M 40.0 35.1 L 99.0 35.1 L 99.0 12.0 L 111.0 14.0 L 114.0 16.0 L 111.0 17.8 L 111.0 35.1 L 166.0 35.1 L 176.0 25.1 L 188.0 35.1 L 188.0 39.1 L 113.11518983840942 39.1 L 122.1 46.9 L 123.3 50.3 L 119.41960954666138 49.83167705535889 L 118.9 50.4 L 115.5 53.7 L 111.9 56.9 L 110.26599998474121 58.23299999237061 L 110.8 58.5 L 135.6 58.5 L 136.5 57.6 L 138.3 55.2 L 140.1 53.0 L 141.7 50.8 L 143.3 48.8 L 144.8 46.9 L 146.2 45.0 L 147.5 43.3 L 148.7 41.6 L 149.1867133140564 40.86993007659912 L 149.0 40.7 L 150.0 39.8 L 157.9 48.8 L 158.5 52.4 L 153.97295083999634 51.10655736923218 L 152.4 52.1 L 150.3 53.2 L 148.1 54.4 L 145.8 55.7 L 143.3 57.0 L 140.7 58.2 L 140.07692308425902 58.5 L 160.71818180084227 58.5 L 168.9 49.5 L 178.9 58.5 L 178.9 62.5 L 145.5 62.5 L 145.5 74.3 L 158.9181818008423 74.3 L 167.1 65.3 L 177.1 74.3 L 177.1 78.3 L 145.5 78.3 L 145.5 90.6 L 158.9181818008423 90.6 L 167.1 81.6 L 177.1 90.6 L 177.1 94.6 L 145.5 94.6 L 145.5 108.6 L 160.7 108.6 L 170.7 98.6 L 182.7 108.6 L 182.7 112.6 L 110.8 112.6 L 98.8 118.6 L 98.8 66.06818180084228 L 95.4 68.0 L 90.8 70.3 L 85.9 72.3 L 80.9 74.0 L 80.0 72.4 L 84.1 69.1 L 88.1 65.9 L 91.8 62.7 L 95.4 59.5 L 98.8 56.3 L 98.8 52.5 L 101.28000001907348 53.73999996185303 L 101.9 53.1 L 104.9 49.8 L 107.7 46.4 L 110.2 43.0 L 112.0242691040039 40.41561870574951 L 112.0 40.4 L 112.92857141494751 39.1 L 81.83924055099487 39.1 L 89.7 46.0 L 90.9 49.4 L 87.12378168106079 48.94424953460693 L 85.5 50.8 L 81.1 55.4 L 76.5 60.0 L 71.7 64.4 L 68.1238410949707 67.40397348403931 L 72.3 68.1 L 75.3 70.1 L 72.3 71.9 L 72.3 113.8 L 60.3 119.8 L 60.3 73.58888893127441 L 56.1 76.7 L 50.4 80.4 L 44.5 84.0 L 40.0 86.3225806236267 L 40.0 96.4 L 39.4 109.7 L 38.4 122.0 L 37.0 133.5 L 35.0 144.2 L 32.6 154.0 L 29.6 162.8 L 26.2 170.8 L 22.2 177.8 L 17.7 183.7 L 12.6 188.5 L 11.3 187.3 L 14.6 181.5 L 17.5 175.2 L 20.1 168.3 L 22.4 160.5 L 24.3 152.0 L 25.9 142.6 L 27.0 132.3 L 27.7 121.2 L 28.0 109.3 L 28.0 29.1 Z M 161.8 181.4 L 159.6 179.2 L 157.1 176.9 L 154.3 174.7 L 151.2 172.4 L 147.8 170.0 L 144.2 167.6 L 140.4 165.1 L 136.2 162.7 L 136.8 161.1 L 141.6 162.3 L 146.1 163.4 L 150.5 164.7 L 154.5 166.2 L 158.3 167.8 L 161.9 169.5 L 165.3 171.3 L 168.5 173.3 L 171.4 175.3 L 174.2 177.5 L 175.7 181.8 L 173.9 186.0 L 169.6 187.6 L 165.4 185.8 L 163.8 183.6 Z M 110.8 94.6 L 110.8 108.6 L 133.5 108.6 L 133.5 94.6 Z M 110.8 78.3 L 110.8 90.6 L 133.5 90.6 L 133.5 78.3 Z M 40.0 39.1 L 40.0 83.01199998855591 L 42.2 80.9 L 47.1 76.2 L 51.9 71.6 L 56.5 67.0 L 60.9 62.4 L 65.2 57.8 L 69.2 53.1 L 73.1 48.3 L 76.7 43.5 L 79.61134357452393 39.50730028152466 L 79.6 39.5 L 79.83157892227173 39.20526313781738 L 79.90833330154419 39.1 Z M 110.8 62.5 L 110.8 74.3 L 133.5 74.3 L 133.5 62.5 Z " />
</g>
</svg>
