<svg xmlns="http://www.w3.org/2000/svg" xmlns:xlink="http://www.w3.org/1999/xlink" version="1.1" baseProfile="full" viewBox="0 0 200 200" width="200" height="200">
<g fill="black">
<path d="M 168.3 173.0 L 164.0 168.5 L 159.9 163.8 L 156.2 158.8 L 152.9 153.7 L 149.8 148.4 L 147.2 142.8 L 145.8 139.10909090042114 L 145.8 184.4 L 133.8 190.4 L 133.8 146.33902435302736 L 130.6 151.1 L 126.0 156.9 L 120.9 162.4 L 115.3 167.5 L 109.2 172.3 L 102.6 176.7 L 95.6 180.6 L 88.0 184.1 L 87.1 182.5 L 93.5 177.4 L 99.5 172.4 L 105.0 167.3 L 110.0 162.1 L 114.5 156.7 L 118.6 151.2 L 122.2 145.6 L 125.3 139.8 L 128.0 133.8 L 128.71707315444945 131.7 L 96.4 131.7 L 96.4 127.7 L 133.8 127.7 L 133.8 108.6 L 115.3 108.6 L 115.3 111.6 L 103.3 117.6 L 103.3 49.9 L 115.3 55.9 L 164.4 55.9 L 170.4 50.9 L 181.4 59.9 L 176.4 63.9 L 176.4 110.6 L 164.4 116.6 L 164.4 108.6 L 145.8 108.6 L 145.8 127.7 L 163.7 127.7 L 173.7 117.7 L 185.7 127.7 L 185.7 131.7 L 146.2020408630371 131.7 L 148.7 135.1 L 152.3 139.8 L 155.9 144.4 L 159.6 148.8 L 163.4 152.9 L 167.4 156.8 L 171.6 160.5 L 176.0 164.0 L 180.6 167.3 L 185.4 170.4 L 188.9 172.8 L 177.9 181.3 L 172.9 177.2 Z M 86.4 137.4 L 85.3 135.0 L 84.0 132.7 L 82.5 130.3 L 80.9 127.8 L 79.0 125.3 L 77.1 123.0380952835083 L 77.1 184.4 L 65.1 190.4 L 65.1 126.53220338821411 L 63.1 128.6 L 56.8 134.5 L 50.1 140.0 L 42.9 145.2 L 41.7 143.8 L 47.5 137.3 L 52.9 130.7 L 58.2 124.2 L 63.1 117.7 L 65.1 114.72222223281861 L 65.1 113.6 L 65.85373134613037 113.6 L 67.6 111.0 L 71.9 104.3 L 75.7 97.5 L 79.3 90.5 L 82.5 83.4 L 83.6277777671814 80.5 L 45.5 80.5 L 45.5 76.5 L 65.1 76.5 L 65.1 43.7 L 77.1 45.7 L 80.1 47.7 L 77.1 49.5 L 77.1 76.5 L 84.9 76.5 L 90.9 71.5 L 101.9 80.5 L 96.9 83.5 L 94.65500001907348 84.43541669845581 L 92.8 88.3 L 88.8 95.5 L 84.4 102.6 L 79.6 109.5 L 76.43181819915772 113.6 L 77.1 113.6 L 77.1 118.40909090042115 L 79.5 119.5 L 82.6 121.2 L 85.4 123.1 L 88.1 125.1 L 90.6 127.2 L 92.9 129.4 L 95.1 131.7 L 97.1 134.2 L 98.9 136.7 L 99.0 141.3 L 96.0 144.7 L 91.4 144.9 L 88.0 141.9 L 87.3 139.6 Z M 42.6 34.4 L 99.9 34.4 L 99.9 11.8 L 111.9 13.8 L 114.9 15.8 L 111.9 17.6 L 111.9 34.4 L 165.1 34.4 L 175.1 24.4 L 187.1 34.4 L 187.1 38.4 L 42.6 38.4 L 42.6 100.4 L 42.0 112.0 L 41.0 123.0 L 39.3 133.3 L 37.2 143.0 L 34.5 152.1 L 31.3 160.5 L 27.5 168.2 L 23.1 175.2 L 18.1 181.4 L 12.5 186.7 L 11.2 185.5 L 15.0 179.2 L 18.5 172.5 L 21.5 165.4 L 24.1 157.8 L 26.3 149.7 L 28.1 141.0 L 29.4 131.8 L 30.3 121.9 L 30.7 111.5 L 30.6 100.4 L 30.6 28.4 Z M 115.3 84.6 L 115.3 104.6 L 133.8 104.6 L 133.8 84.6 Z M 145.8 84.6 L 145.8 104.6 L 164.4 104.6 L 164.4 84.6 Z M 115.3 59.9 L 115.3 80.6 L 133.8 80.6 L 133.8 59.9 Z M 145.8 59.9 L 145.8 80.6 L 164.4 80.6 L 164.4 59.9 Z " />
</g>
</svg>
