<svg xmlns="http://www.w3.org/2000/svg" xmlns:xlink="http://www.w3.org/1999/xlink" version="1.1" baseProfile="full" viewBox="0 0 200 200" width="200" height="200">
<g fill="black">
<path d="M 40.0 35.0 L 98.0 35.0 L 98.0 12.0 L 110.0 14.0 L 113.0 16.0 L 110.0 17.8 L 110.0 35.0 L 164.0 35.0 L 174.0 25.0 L 186.0 35.0 L 186.0 39.0 L 40.0 39.0 L 40.0 102.0 L 39.4 113.7 L 38.3 124.8 L 36.7 135.3 L 34.5 145.2 L 31.8 154.4 L 28.5 162.9 L 24.7 170.8 L 20.3 177.9 L 15.2 184.2 L 9.6 189.5 L 8.3 188.4 L 12.2 181.9 L 15.6 175.2 L 18.7 168.0 L 21.4 160.3 L 23.6 152.0 L 25.4 143.2 L 26.7 133.8 L 27.6 123.8 L 28.0 113.2 L 28.0 29.0 Z M 169.8 180.3 L 166.9 173.0 L 164.8 163.5 L 163.2 151.8 L 162.0 137.7 L 161.3 121.2 L 161.1 102.3 L 161.3 80.8 L 161.84476985931397 59.1 L 115.5 59.1 L 115.5 55.1 L 161.9 55.1 L 167.9 50.1 L 178.9 59.1 L 173.9 62.1 L 173.7771855354309 62.151172733306886 L 173.3 81.0 L 173.1 102.2 L 173.3 120.9 L 174.0 137.0 L 175.1 150.5 L 176.6 161.4 L 177.8217038154602 166.67261667251586 L 181.3 151.6 L 183.3 151.6 L 181.41691541671753 176.0800994873047 L 181.8 176.6 L 181.37692308425903 176.6 L 181.3744680404663 176.6319149017334 L 185.5 178.4 L 187.3 182.6 L 185.5 186.7 L 181.3 188.6 L 174.2 186.0 Z M 144.82642784118653 70.14414329528809 L 144.5 87.2 L 144.1666666984558 99.4 L 148.9 99.4 L 153.4 93.4 L 159.4 99.4 L 159.4 103.4 L 144.05737705230712 103.4 L 144.0 105.5 L 143.2 121.5 L 142.0 135.3 L 141.61000003814698 137.9 L 147.2777777671814 137.9 L 153.5 130.9 L 161.5 137.9 L 161.5 141.9 L 141.01000003814698 141.9 L 140.2 147.3 L 137.8 157.7 L 134.6 166.8 L 130.5 174.7 L 125.3 181.4 L 119.0 187.3 L 117.7 186.0 L 122.2 179.2 L 125.7 172.1 L 128.4 164.6 L 130.4 156.0 L 131.8 146.1 L 132.1258620262146 141.9 L 115.5 141.9 L 115.5 137.9 L 132.43620691299438 137.9 L 132.7 134.5 L 133.2 121.0 L 133.3 105.3 L 133.27900552749634 103.4 L 117.6 103.4 L 117.6 99.4 L 133.2348066329956 99.4 L 133.1 87.2 L 132.90956172943115 67.29920320510864 L 132.9 67.3 L 132.9 63.9 L 144.9 66.3 L 147.9 68.3 Z M 100.7 109.4 L 98.0 105.3 L 97.05208330154419 103.69583330154418 L 95.8 106.2 L 94.4 108.5 L 93.1 110.9 L 91.7 113.2 L 90.2 115.5 L 89.51428575515747 116.48571424484253 L 93.1 112.9 L 105.1 122.9 L 105.1 126.9 L 85.5 126.9 L 85.5 147.8 L 89.8 147.8 L 99.8 137.8 L 111.8 147.8 L 111.8 151.8 L 85.5 151.8 L 85.5 183.4 L 73.5 189.4 L 73.5 151.8 L 48.4 151.8 L 48.4 147.8 L 73.5 147.8 L 73.5 126.9 L 53.5 126.9 L 53.5 122.9 L 83.1 122.9 L 84.1833333015442 121.8166666984558 L 83.9 121.7 L 84.6 119.1 L 84.9 116.3 L 85.3 113.6 L 85.7 111.0 L 86.1 108.3 L 86.5 105.7 L 86.9 103.2 L 87.2 100.6 L 87.6 98.1 L 87.78003816604614 96.53966941833497 L 87.6 96.5 L 87.88872184753419 95.59774436950684 L 87.9 95.5 L 87.91817893981934 95.50569076538086 L 88.4 94.0 L 92.83082313537598 96.05429067611695 L 90.7 91.7 L 88.6 86.7 L 86.8 81.6 L 85.3 76.2 L 84.25 71.3 L 79.22597398757935 71.3 L 78.7 72.8 L 75.5 80.3 L 71.8 87.4 L 67.7 94.2 L 65.57792644500732 97.26521739959716 L 66.8 98.4 L 68.6 99.6 L 70.3 100.9 L 71.9 102.4 L 73.4 104.1 L 74.7 105.9 L 76.0 107.9 L 77.2 109.9 L 78.2 112.1 L 79.2 114.4 L 78.2 118.9 L 74.4 121.4 L 69.9 120.4 L 67.4 116.7 L 67.4 112.8 L 67.3 110.9 L 67.1 109.1 L 66.9 107.2 L 66.6 105.4 L 66.2 103.6 L 65.2 99.8 L 64.49172658920288 98.83417263031006 L 63.2 100.7 L 58.2 106.9 L 52.7 112.6 L 46.6 117.9 L 45.3 116.7 L 49.8 110.2 L 53.9 103.7 L 57.7 97.2 L 61.1 90.5 L 64.2 83.7 L 66.9 76.7 L 68.64929580688477 71.3 L 47.6 71.3 L 47.6 67.3 L 69.79054050445556 67.3 L 71.1 62.2 L 72.6 54.7 L 73.65897436141968 47.90491456985474 L 73.6 47.9 L 74.1 45.0 L 85.6 48.9 L 88.3 51.3 L 84.75625 52.74375 L 83.8 57.1 L 81.4 65.1 L 80.62857141494752 67.3 L 90.2 67.3 L 100.2 57.3 L 112.2 67.3 L 112.2 71.3 L 86.8043478012085 71.3 L 89.1 74.5 L 92.1 79.0 L 95.0 83.4 L 97.9 87.5 L 100.9 91.5 L 103.8 95.2 L 106.8 98.7 L 109.9 101.9 L 113.0 105.0 L 116.1 107.8 L 117.4 109.2 L 106.7 117.1 L 103.6 113.4 Z " />
</g>
</svg>
