<svg xmlns="http://www.w3.org/2000/svg" xmlns:xlink="http://www.w3.org/1999/xlink" version="1.1" baseProfile="full" viewBox="0 0 200 200" width="200" height="200">
<g fill="black">
<path d="M 38.0 35.0 L 104.0 35.0 L 104.0 12.0 L 116.0 14.0 L 119.0 16.0 L 116.0 17.8 L 116.0 35.0 L 164.0 35.0 L 174.0 25.0 L 186.0 35.0 L 186.0 39.0 L 38.0 39.0 L 38.0 107.0 L 37.4 117.0 L 36.3 126.7 L 34.7 135.9 L 32.6 144.6 L 30.0 152.9 L 26.9 160.8 L 23.2 168.1 L 18.9 174.9 L 14.1 181.0 L 8.6 186.5 L 7.3 185.4 L 11.0 178.9 L 14.3 172.2 L 17.2 165.2 L 19.8 158.0 L 21.9 150.5 L 23.6 142.5 L 24.8 134.2 L 25.7 125.6 L 26.0 116.5 L 26.0 29.0 Z M 117.3 136.4 L 116.43483142852783 141.9 L 155.8 141.9 L 165.8 131.9 L 177.8 141.9 L 177.8 145.9 L 116.88510637283325 145.9 L 117.6 147.1 L 120.8 151.2 L 124.5 154.9 L 129.0 158.3 L 134.2 161.3 L 140.3 164.1 L 147.4 166.6 L 155.3 168.7 L 164.2 170.5 L 174.0 172.0 L 183.7 173.6 L 171.9 185.1 L 161.5 182.8 L 152.1 180.1 L 143.6 176.9 L 136.0 173.4 L 129.4 169.3 L 123.8 164.8 L 119.2 159.8 L 115.8 154.4 L 114.1240270614624 149.85093059539795 L 112.7 153.5 L 108.0 160.7 L 101.8 167.0 L 94.3 172.3 L 85.4 176.7 L 75.3 180.2 L 63.9 182.9 L 51.1 184.7 L 37.0 185.6 L 36.9 183.8 L 50.5 181.0 L 62.6 177.7 L 73.2 174.0 L 82.2 169.8 L 89.6 165.2 L 95.5 160.1 L 100.0 154.7 L 103.0 148.9 L 103.87096776962281 145.9 L 50.6 145.9 L 50.6 141.9 L 104.87164182662964 141.9 L 105.4 136.0 L 105.4 128.2 L 66.6 128.2 L 66.6 124.2 L 105.4 124.2 L 105.4 109.7 L 59.4 109.7 L 59.4 105.7 L 91.38571424484253 105.7 L 89.5 103.5 L 89.6 102.3 L 89.5 101.0 L 89.2 99.6 L 88.6 98.0 L 87.9 96.3 L 86.9 94.5 L 85.7 92.6 L 84.2 90.6 L 82.6 88.4 L 80.5 86.7 L 81.5 85.2 L 83.9 86.6 L 86.5 87.6 L 88.9 88.8 L 91.2 90.1 L 93.2 91.4 L 95.1 92.9 L 96.9 94.5 L 98.5 96.2 L 99.9 98.0 L 101.0 100.0 L 100.5 104.6 L 99.17241382598877 105.7 L 122.16666669845581 105.7 L 122.7 105.1 L 124.7 102.2 L 126.6 99.4 L 128.3 96.7 L 130.0 94.2 L 131.5 91.7 L 132.9 89.4 L 134.2 87.1 L 135.24761905670167 85.1 L 52.2 85.1 L 52.2 81.1 L 91.8 81.1 L 91.8 49.0 L 103.8 51.0 L 106.8 53.0 L 103.8 54.8 L 103.8 81.1 L 120.6 81.1 L 120.6 49.0 L 132.6 51.0 L 135.6 53.0 L 132.6 54.8 L 132.6 81.1 L 156.6 81.1 L 166.6 71.1 L 178.6 81.1 L 178.6 85.1 L 140.55135135650636 85.1 L 146.2 89.5 L 147.6 92.9 L 143.1274193763733 92.67258062362671 L 142.4 93.4 L 140.3 95.4 L 138.0 97.4 L 135.6 99.3 L 133.1 101.3 L 130.4 103.2 L 127.6 105.1 L 126.62105264663697 105.7 L 152.4181818008423 105.7 L 160.6 96.7 L 170.6 105.7 L 170.6 109.7 L 117.7 109.7 L 120.4 111.5 L 117.4 113.3 L 117.4 124.2 L 139.61818180084228 124.2 L 147.8 115.2 L 157.8 124.2 L 157.8 128.2 L 117.4 128.2 L 117.4 136.2 L 117.26739721298217 136.39890413284303 Z M 165.1 59.0 L 166.3 62.4 L 162.04427242279053 61.959752368927 L 160.9 63.0 L 158.7 65.1 L 156.3 67.2 L 153.9 69.2 L 151.3 71.3 L 148.6 73.4 L 145.8 75.5 L 142.8 77.6 L 140.0 79.8 L 138.7 78.6 L 140.9 75.7 L 142.7 72.6 L 144.6 69.7 L 146.4 66.9 L 149.8 61.5 L 151.4 59.0 L 152.9 56.5 L 154.3 54.1 L 155.1235852241516 52.57953500747681 L 155.0 52.5 L 156.0 51.1 Z M 72.0 70.8 L 71.3 69.0 L 70.4 67.0 L 69.3 65.1 L 67.9 63.1 L 66.3 61.0 L 64.5 59.0 L 62.4 56.8 L 59.8 55.1 L 60.6 53.5 L 63.6 54.7 L 66.6 55.7 L 69.4 56.9 L 72.1 58.3 L 74.6 59.8 L 76.9 61.6 L 79.0 63.6 L 80.9 65.7 L 82.6 68.0 L 84.0 70.6 L 83.7 75.1 L 80.3 78.2 L 75.8 77.9 L 72.7 74.5 L 72.4 72.7 Z " />
</g>
</svg>
