<svg xmlns="http://www.w3.org/2000/svg" xmlns:xlink="http://www.w3.org/1999/xlink" version="1.1" baseProfile="full" viewBox="0 0 200 200" width="200" height="200">
<g fill="black">
<path d="M 31.1 41.0 L 57.8 41.0 L 57.8 12.0 L 69.8 14.0 L 72.8 16.0 L 69.8 17.8 L 69.8 41.0 L 87.1 41.0 L 97.1 31.0 L 109.1 41.0 L 109.1 45.0 L 31.1 45.0 L 31.1 104.0 L 30.7 115.2 L 29.9 125.9 L 28.8 136.0 L 27.4 145.5 L 25.7 154.4 L 23.6 162.7 L 21.1 170.4 L 18.3 177.5 L 15.1 183.8 L 11.3 189.4 L 9.8 188.5 L 11.6 182.3 L 13.3 175.7 L 14.8 168.7 L 16.2 161.1 L 17.3 153.0 L 18.2 144.3 L 18.8 135.1 L 19.2 125.3 L 19.3 114.9 L 19.1 104.0 L 19.1 35.0 Z M 173.3 145.6 L 169.5 137.8 L 166.0 129.3 L 162.7 120.1 L 159.7 110.2 L 157.0 99.5 L 155.5 92.375 L 155.5 183.0 L 143.5 189.0 L 143.5 102.48461542129516 L 139.8 113.3 L 135.6 124.0 L 131.1 133.8 L 126.2 142.8 L 121.0 151.0 L 115.3 158.3 L 109.3 164.5 L 107.9 163.4 L 112.2 156.1 L 116.4 148.2 L 120.4 139.8 L 124.1 130.7 L 127.7 120.9 L 131.0 110.4 L 134.0 99.2 L 136.8 87.2 L 139.4 74.4 L 141.07741937637329 64.0 L 110.5 64.0 L 110.5 60.0 L 143.5 60.0 L 143.5 14.0 L 155.5 16.0 L 158.5 18.0 L 155.5 19.8 L 155.5 60.0 L 166.4 60.0 L 176.4 50.0 L 188.4 60.0 L 188.4 64.0 L 155.5 64.0 L 155.5 71.21578950881958 L 156.7 75.1 L 160.3 86.7 L 163.9 97.5 L 167.6 107.6 L 171.4 116.8 L 175.3 125.2 L 179.4 132.8 L 183.5 139.6 L 187.8 145.6 L 192.1 150.7 L 192.6 151.4 L 181.9 159.2 L 177.5 152.7 Z M 98.0 71.2 L 98.0 75.2 L 74.9 75.2 L 74.9 116.1 L 83.6 116.1 L 93.6 106.1 L 105.6 116.1 L 105.6 120.1 L 74.9 120.1 L 74.9 181.1 L 62.9 187.1 L 62.9 120.1 L 33.5 120.1 L 33.5 116.1 L 62.9 116.1 L 62.9 75.2 L 39.3 75.2 L 39.3 71.2 L 76.0 71.2 L 86.0 61.2 Z " />
</g>
</svg>
