<svg xmlns="http://www.w3.org/2000/svg" xmlns:xlink="http://www.w3.org/1999/xlink" version="1.1" baseProfile="full" viewBox="0 0 200 200" width="200" height="200">
<g fill="black">
<path d="M 98.6 51.0 L 100.5 54.0 L 96.86460494995117 54.51023092269897 L 94.2 59.9 L 89.6 68.7 L 84.8 77.2 L 79.7 85.6 L 74.5 93.7 L 73.88657846450806 94.58109636306763 L 79.4 95.5 L 82.4 97.5 L 79.4 99.3 L 79.4 182.7 L 67.4 188.7 L 67.4 103.7241379737854 L 63.2 109.3 L 57.2 116.7 L 50.9 123.8 L 44.2 130.6 L 42.8 129.4 L 47.9 121.5 L 52.9 113.5 L 57.8 105.5 L 62.6 97.5 L 67.2 89.3 L 71.7 80.9 L 75.9 72.5 L 80.0 63.9 L 83.9 55.1 L 87.22262487411498 47.10774011611939 L 87.2 47.1 L 88.1 45.0 Z M 39.6 35.0 L 97.9 35.0 L 97.9 12.0 L 109.9 14.0 L 112.9 16.0 L 109.9 17.8 L 109.9 35.0 L 164.1 35.0 L 174.1 25.0 L 186.1 35.0 L 186.1 39.0 L 39.6 39.0 L 39.6 96.0 L 39.1 109.1 L 38.1 121.4 L 36.6 132.9 L 34.7 143.5 L 32.3 153.2 L 29.4 162.0 L 26.0 169.9 L 22.0 176.9 L 17.5 182.8 L 12.5 187.6 L 11.2 186.3 L 14.4 180.6 L 17.3 174.4 L 19.9 167.4 L 22.2 159.7 L 24.0 151.2 L 25.5 141.9 L 26.7 131.7 L 27.4 120.6 L 27.7 108.7 L 27.6 96.0 L 27.6 29.0 Z M 169.4 181.9 L 167.5 183.4 L 165.5 184.7 L 163.4 185.8 L 161.2 186.7 L 158.9 187.4 L 156.6 187.9 L 154.2 188.2 L 151.8 188.3 L 151.8 182.3 L 135.8 179.3 L 135.8 176.3 L 151.8 176.3 L 154.6 176.1 L 155.9 175.8 L 157.2 175.4 L 158.3 174.9 L 159.4 174.3 L 160.5 173.6 L 161.6 172.8 L 162.6 171.9 L 163.6 170.8 L 164.0 170.1 L 164.6 168.7 L 165.3 166.5 L 165.9 163.6 L 166.4 160.1 L 166.8 155.9 L 167.1 151.2 L 167.3 145.9 L 167.3 143.35833330154418 L 167.2 143.4 L 167.2 135.4 L 112.3 135.4 L 100.3 141.4 L 100.3 56.9 L 112.3 62.9 L 127.48947372436524 62.9 L 127.7 62.5 L 128.2 60.3 L 128.8 58.2 L 129.3 56.1 L 129.9 54.0 L 130.9 50.0 L 131.90658979415895 44.96705102920532 L 131.7 44.9 L 132.6 42.7 L 143.1 48.6 L 145.1 51.6 L 140.54748363494872 52.23894968032837 L 139.1 54.1 L 137.7 55.8 L 134.7 59.2 L 133.1 60.8 L 131.4 62.3 L 130.62857141494752 62.9 L 156.6 62.9 L 162.6 57.9 L 173.6 66.9 L 168.6 70.9 L 168.6 102.8 L 156.6 108.8 L 156.6 102.8 L 112.3 102.8 L 112.3 115.1 L 163.8181818008423 115.1 L 172.0 106.1 L 182.0 115.1 L 182.0 119.1 L 112.3 119.1 L 112.3 131.4 L 167.2 131.4 L 173.2 126.4 L 184.2 135.4 L 179.27692308425904 138.35384616851806 L 179.3 139.9 L 179.3 146.1 L 179.1 151.7 L 178.8 156.9 L 178.3 161.5 L 177.7 165.7 L 176.9 169.4 L 175.9 172.8 L 174.6 175.8 L 172.8 178.5 L 171.1 180.3 Z M 92.5 176.0 L 91.3 171.6 L 93.5 167.6 L 94.8 166.9 L 96.1 166.0 L 97.4 164.7 L 98.6 163.1 L 99.7 161.0 L 100.7 158.6 L 101.6 155.8 L 102.3 152.5 L 102.9 149.0 L 102.9 145.1 L 104.7 144.9 L 105.4 148.8 L 106.3 152.5 L 106.9 156.1 L 107.1 159.5 L 107.1 162.8 L 106.6 165.9 L 105.8 169.0 L 104.6 171.9 L 103.0 174.6 L 100.9 177.0 L 96.5 178.2 Z M 118.5 172.9 L 115.1 169.8 L 114.9 165.2 L 115.5 164.6 L 116.1 163.8 L 116.6 162.6 L 117.0 161.2 L 117.2 159.5 L 117.3 157.5 L 117.2 155.4 L 117.0 152.9 L 116.7 150.3 L 115.6 147.7 L 117.2 146.9 L 118.7 149.4 L 120.4 151.6 L 121.9 153.7 L 123.2 155.9 L 124.3 158.1 L 125.2 160.2 L 125.8 162.4 L 126.2 164.6 L 126.4 166.9 L 126.2 169.3 L 123.0 172.6 Z M 133.6 158.8 L 133.7 157.5 L 133.7 156.2 L 133.6 154.7 L 133.3 153.2 L 132.7 151.6 L 132.0 150.0 L 131.0 148.2 L 129.5 146.9 L 130.5 145.4 L 132.3 146.6 L 134.4 147.4 L 136.3 148.4 L 138.1 149.7 L 139.7 151.2 L 141.2 152.8 L 142.4 154.7 L 143.5 156.8 L 144.3 159.0 L 144.9 161.4 L 143.1 165.6 L 138.9 167.4 L 134.7 165.6 L 132.9 161.4 L 133.3 160.1 Z M 150.6 153.8 L 150.6 152.9 L 150.4 151.9 L 149.9 150.7 L 149.1 149.4 L 148.1 148.1 L 146.7 146.7 L 145.1 145.2 L 143.1 144.3 L 143.6 142.6 L 145.9 143.3 L 148.2 143.5 L 150.4 143.9 L 152.5 144.5 L 154.4 145.3 L 156.3 146.3 L 158.0 147.6 L 159.5 149.1 L 160.8 150.9 L 161.8 153.0 L 160.8 157.5 L 157.0 160.0 L 152.6 158.9 L 150.0 155.1 L 150.4 154.5 Z M 112.3 84.9 L 112.3 98.8 L 156.6 98.8 L 156.6 84.9 Z M 112.3 66.9 L 112.3 80.9 L 156.6 80.9 L 156.6 66.9 Z " />
</g>
</svg>
