<svg xmlns="http://www.w3.org/2000/svg" xmlns:xlink="http://www.w3.org/1999/xlink" version="1.1" baseProfile="full" viewBox="0 0 200 200" width="200" height="200">
<g fill="black">
<path d="M 40.0 35.0 L 98.0 35.0 L 98.0 12.0 L 110.0 14.0 L 113.0 16.0 L 110.0 17.8 L 110.0 35.0 L 164.0 35.0 L 174.0 25.0 L 186.0 35.0 L 186.0 39.0 L 40.0 39.0 L 40.0 102.0 L 39.4 113.7 L 38.3 124.8 L 36.7 135.3 L 34.5 145.2 L 31.8 154.4 L 28.5 162.9 L 24.7 170.8 L 20.3 177.9 L 15.2 184.2 L 9.6 189.5 L 8.3 188.4 L 12.2 181.9 L 15.6 175.2 L 18.7 168.0 L 21.4 160.3 L 23.6 152.0 L 25.4 143.2 L 26.7 133.8 L 27.6 123.8 L 28.0 113.2 L 28.0 29.0 Z M 36.3 180.3 L 106.0 180.3 L 106.0 157.8 L 47.7 157.8 L 47.7 153.8 L 106.0 153.8 L 106.0 135.4 L 118.0 137.4 L 121.0 139.4 L 118.0 141.2 L 118.0 153.8 L 154.2 153.8 L 164.2 143.8 L 176.2 153.8 L 176.2 157.8 L 118.0 157.8 L 118.0 180.3 L 165.6 180.3 L 175.6 170.3 L 187.6 180.3 L 187.6 184.3 L 36.3 184.3 Z M 46.0 96.9 L 54.6 96.1 L 58.33083333969116 95.76083335876464 L 62.0 91.1 L 65.6 86.6 L 69.1 82.2 L 72.4 78.0 L 75.5 73.8 L 78.3 69.7 L 81.0 65.7 L 83.5 61.7 L 85.28698244094849 58.747594165802 L 85.2 58.7 L 86.3 57.1 L 95.8 64.5 L 97.2 67.8 L 93.35187444686889 67.60095901489258 L 92.8 68.3 L 89.6 72.1 L 86.2 76.0 L 82.6 79.8 L 78.7 83.6 L 74.6 87.4 L 70.3 91.2 L 65.8 94.9 L 65.3830496788025 95.21484003067016 L 67.8 95.0 L 72.2 94.7 L 81.2 94.1 L 85.8 94.1 L 86.3374755859375 94.08831577301025 L 87.7 89.6 L 88.44703903198243 84.70274391174317 L 88.4 84.7 L 88.9 81.7 L 100.4 85.4 L 103.1 87.8 L 99.39841270446777 89.4063491821289 L 98.6 92.6 L 95.9 99.5 L 92.2 105.9 L 87.7 111.8 L 82.4 117.3 L 76.3 122.3 L 69.3 126.8 L 61.6 130.9 L 53.1 134.4 L 43.8 137.3 L 43.2 135.6 L 51.5 130.9 L 59.0 126.2 L 65.6 121.4 L 71.4 116.4 L 76.3 111.3 L 80.4 106.1 L 83.6 100.7 L 84.77637557983398 98.00413932800294 L 82.1 99.0 L 77.8 100.5 L 69.2 103.1 L 65.0 104.3 L 60.7 105.5 L 56.4 106.6 L 52.2 107.7 L 52.06747570037842 107.73155336380005 L 50.4 111.4 L 48.0 108.7 L 44.0 97.2 Z M 109.8 135.8 L 109.8 73.12857141494752 L 107.8 74.7 L 103.5 77.7 L 99.0 80.3 L 94.2 82.7 L 93.1 81.2 L 96.7 77.3 L 100.1 73.6 L 103.4 69.8 L 106.6 66.1 L 109.6 62.3 L 109.8 62.02142858505249 L 109.8 58.3 L 111.76603775024414 59.28301887512207 L 112.4 58.4 L 115.1 54.5 L 117.6 50.4 L 119.9 46.3 L 121.66501750946045 42.93042106628418 L 121.6 42.9 L 122.6 41.1 L 132.5 48.0 L 134.1 51.2 L 130.29764709472656 51.26555776596069 L 129.6 52.3 L 126.4 56.5 L 123.1 60.5 L 120.34336280822754 63.57168140411377 L 121.8 64.3 L 143.52307691574097 64.3 L 144.4 63.1 L 145.9 60.3 L 148.9 55.3 L 150.2 52.9 L 151.5 50.7 L 152.7 48.6 L 153.8 46.6 L 154.8 44.6 L 155.28673629760743 43.72387456893921 L 155.1 43.6 L 156.2 42.3 L 165.2 50.3 L 166.3 53.7 L 161.73765687942506 53.070711326599124 L 161.7 53.1 L 159.9 54.6 L 157.9 56.2 L 155.8 57.8 L 153.6 59.5 L 151.3 61.3 L 148.9 63.0 L 146.95 64.3 L 165.11818180084228 64.3 L 173.3 55.3 L 183.3 64.3 L 183.3 68.3 L 153.4 68.3 L 153.4 83.7 L 163.4181818008423 83.7 L 171.6 74.7 L 181.6 83.7 L 181.6 87.7 L 153.4 87.7 L 153.4 103.7 L 163.4181818008423 103.7 L 171.6 94.7 L 181.6 103.7 L 181.6 107.7 L 153.4 107.7 L 153.4 125.8 L 164.7 125.8 L 174.7 115.8 L 186.7 125.8 L 186.7 129.8 L 121.8 129.8 Z M 121.8 107.7 L 121.8 125.8 L 141.4 125.8 L 141.4 107.7 Z M 121.8 87.7 L 121.8 103.7 L 141.4 103.7 L 141.4 87.7 Z M 121.8 68.3 L 121.8 83.7 L 141.4 83.7 L 141.4 68.3 Z M 58.0 75.4 L 57.5 74.0 L 56.7 72.4 L 55.6 70.8 L 54.2 69.1 L 52.6 67.3 L 50.6 65.5 L 48.4 63.5 L 45.7 62.1 L 46.4 60.4 L 49.4 61.4 L 52.4 62.1 L 55.2 63.0 L 56.45458517074585 63.482532787322995 L 56.9 63.0 L 59.1 60.1 L 61.2 57.4 L 65.2 52.2 L 67.1 49.7 L 68.9 47.2 L 70.6 44.8 L 72.2 42.4 L 73.2123456954956 40.78024692535401 L 73.1 40.7 L 74.1 39.5 L 82.9 47.7 L 84.0 51.1 L 79.83807535171509 50.45418405532837 L 78.3 51.8 L 75.8 53.8 L 70.6 57.8 L 67.8 59.7 L 64.9 61.6 L 61.9 63.4 L 59.39473686218262 64.73092107772827 L 60.2 65.1 L 62.5 66.5 L 64.6 68.0 L 66.5 69.7 L 68.1 71.6 L 69.6 73.8 L 69.3 78.4 L 66.0 81.5 L 61.4 81.3 L 58.3 77.9 L 58.2 76.7 Z " />
</g>
</svg>
