<svg xmlns="http://www.w3.org/2000/svg" xmlns:xlink="http://www.w3.org/1999/xlink" version="1.1" baseProfile="full" viewBox="0 0 200 200" width="200" height="200">
<g fill="black">
<path d="M 40.0 35.0 L 98.0 35.0 L 98.0 12.0 L 110.0 14.0 L 113.0 16.0 L 110.0 17.8 L 110.0 35.0 L 164.0 35.0 L 174.0 25.0 L 186.0 35.0 L 186.0 39.0 L 40.0 39.0 L 40.0 102.0 L 39.4 113.7 L 38.3 124.8 L 36.7 135.3 L 34.5 145.2 L 31.8 154.4 L 28.5 162.9 L 24.7 170.8 L 20.3 177.9 L 15.2 184.2 L 9.6 189.5 L 8.3 188.4 L 12.2 181.9 L 15.6 175.2 L 18.7 168.0 L 21.4 160.3 L 23.6 152.0 L 25.4 143.2 L 26.7 133.8 L 27.6 123.8 L 28.0 113.2 L 28.0 29.0 Z M 158.6 185.4 L 156.6 186.5 L 154.5 187.4 L 152.3 188.2 L 150.1 188.8 L 147.9 189.3 L 145.6 189.7 L 143.3 189.9 L 141.0 190.0 L 141.0 184.0 L 121.0 181.0 L 121.0 178.0 L 141.0 178.0 L 142.6 177.9 L 144.1 177.8 L 145.7 177.5 L 147.2 177.2 L 148.6 176.8 L 150.0 176.3 L 152.8 174.9 L 154.1 174.1 L 155.5 173.2 L 158.0 171.0 L 160.3 168.0 L 162.3 164.1 L 164.1 159.2 L 165.6 153.5 L 166.7 146.9 L 167.4 139.3 L 167.7 130.9 L 167.5 121.6 L 167.46116895675658 120.8078462600708 L 167.0 121.0 L 167.0 116.0 L 65.89615383148194 116.0 L 64.9 118.8 L 51.6 120.5 L 59.6 98.0 L 49.0 98.0 L 49.0 94.0 L 75.0 94.0 L 75.0 68.0 L 49.0 68.0 L 49.0 64.0 L 75.0 64.0 L 75.0 43.0 L 87.0 45.0 L 90.0 47.0 L 87.0 48.8 L 87.0 64.0 L 122.0 64.0 L 122.0 43.0 L 134.0 45.0 L 137.0 47.0 L 134.0 48.8 L 134.0 64.0 L 163.0 64.0 L 169.0 59.0 L 180.0 68.0 L 175.0 72.0 L 175.0 98.0 L 163.0 104.0 L 163.0 98.0 L 72.3 98.0 L 67.3192307472229 112.0 L 167.0 112.0 L 167.0 109.0 L 173.0 104.0 L 184.0 113.0 L 179.20437955856323 115.87737226486206 L 179.5 121.1 L 179.7 131.0 L 179.4 140.0 L 178.6 148.4 L 177.3 155.9 L 175.6 162.8 L 173.3 169.0 L 170.4 174.4 L 166.8 179.1 L 162.6 182.9 L 160.6 184.2 Z M 43.7 168.0 L 70.51642513275146 168.0 L 78.55821256637573 148.3 L 55.0 148.3 L 55.0 144.3 L 80.19106283187867 144.3 L 85.78357486724853 130.6 L 48.7 130.6 L 48.7 126.6 L 128.01818180084229 126.6 L 136.2 117.6 L 146.2 126.6 L 146.2 130.6 L 98.78357486724853 130.6 L 93.19106283187867 144.3 L 116.5 144.3 L 122.5 139.3 L 133.5 148.3 L 128.5 152.3 L 128.5 168.0 L 133.01818180084229 168.0 L 141.2 159.0 L 151.2 168.0 L 151.2 172.0 L 43.7 172.0 Z M 91.55821256637573 148.3 L 83.51642513275146 168.0 L 116.5 168.0 L 116.5 148.3 Z M 87.0 68.0 L 87.0 94.0 L 122.0 94.0 L 122.0 68.0 Z M 134.0 68.0 L 134.0 94.0 L 163.0 94.0 L 163.0 68.0 Z " />
</g>
</svg>
