<svg xmlns="http://www.w3.org/2000/svg" xmlns:xlink="http://www.w3.org/1999/xlink" version="1.1" baseProfile="full" viewBox="0 0 200 200" width="200" height="200">
<g fill="black">
<path d="M 42.0 41.0 L 99.0 41.0 L 99.0 12.0 L 111.0 14.0 L 114.0 16.0 L 111.0 17.8 L 111.0 41.0 L 164.0 41.0 L 174.0 31.0 L 186.0 41.0 L 186.0 45.0 L 42.0 45.0 L 42.0 104.0 L 41.4 115.3 L 40.2 126.1 L 38.6 136.3 L 36.3 145.9 L 33.5 154.9 L 30.1 163.3 L 26.2 171.0 L 21.6 178.0 L 16.4 184.2 L 10.6 189.6 L 9.3 188.3 L 13.4 181.9 L 17.0 175.2 L 20.3 168.1 L 23.1 160.5 L 25.4 152.5 L 27.3 143.9 L 28.7 134.7 L 29.6 125.0 L 30.0 114.8 L 30.0 35.0 Z M 151.9 181.6 L 143.8 178.5 L 135.5 175.5 L 126.9 172.7 L 124.30974655151367 171.88508882522584 L 115.5 176.8 L 104.8 181.1 L 93.0 184.5 L 80.0 186.9 L 65.8 188.3 L 50.4 188.7 L 50.3 186.9 L 65.3 184.6 L 79.0 181.7 L 91.2 178.2 L 102.1 174.1 L 111.5 169.3 L 112.91940298080445 168.35373134613036 L 108.8 167.1 L 99.4 164.5 L 89.7 161.7 L 84.7110375404358 160.28898029327394 L 84.3 160.8 L 80.6 165.2 L 76.7 169.3 L 68.1 161.0 L 71.6 157.2 L 75.1 153.2 L 78.5 148.9 L 81.7 144.5 L 84.48260869979859 140.5 L 45.4 140.5 L 45.4 136.5 L 86.98163261413575 136.5 L 87.9 135.0 L 90.9 129.9 L 93.8 124.6 L 96.6 119.2 L 98.82964115142822 114.410400390625 L 98.8 114.4 L 99.75454549789428 112.3 L 72.4 112.3 L 72.4 119.3 L 60.4 125.3 L 60.4 74.1 L 72.4 80.1 L 92.8 80.1 L 92.8 63.4 L 47.7 63.4 L 47.7 59.4 L 164.01818180084229 59.4 L 172.2 50.4 L 182.2 59.4 L 182.2 63.4 L 137.2 63.4 L 137.2 80.1 L 157.6 80.1 L 163.6 75.1 L 174.6 84.1 L 169.6 88.1 L 169.6 116.3 L 157.6 122.3 L 157.6 112.3 L 99.96774196624756 112.3 L 110.2 118.4 L 112.1 121.4 L 108.60304508209228 121.82204627990723 L 107.4 124.4 L 104.4 130.2 L 101.4 135.8 L 100.98518514633179 136.5 L 162.5 136.5 L 172.5 126.5 L 184.5 136.5 L 184.5 140.5 L 150.0543478012085 140.5 L 145.9 149.6 L 140.2 157.9 L 133.2 165.2 L 132.95361499786378 165.38929576873778 L 138.2 166.6 L 146.9 169.0 L 155.5 171.5 L 163.7 174.2 L 171.7 177.1 L 174.9 180.4 L 175.0 184.9 L 171.7 188.1 L 167.1 188.2 L 159.6 184.8 Z M 98.61481485366821 140.5 L 98.2 141.2 L 94.9 146.4 L 91.5 151.4 L 88.0 156.2 L 86.7784267425537 157.71871271133423 L 90.4 158.0 L 100.5 159.2 L 110.3 160.7 L 119.8 162.5 L 120.9170352935791 162.7402226448059 L 126.3 158.0 L 131.6 151.4 L 135.8 144.3 L 137.1758620262146 140.5 Z M 72.4 84.1 L 72.4 108.3 L 92.8 108.3 L 92.8 84.1 Z M 104.8 84.1 L 104.8 108.3 L 125.2 108.3 L 125.2 84.1 Z M 137.2 84.1 L 137.2 108.3 L 157.6 108.3 L 157.6 84.1 Z M 104.8 63.4 L 104.8 80.1 L 125.2 80.1 L 125.2 63.4 Z " />
</g>
</svg>
