<svg xmlns="http://www.w3.org/2000/svg" xmlns:xlink="http://www.w3.org/1999/xlink" version="1.1" baseProfile="full" viewBox="0 0 200 200" width="200" height="200">
<g fill="black">
<path d="M 67.7 135.4 L 156.2 135.4 L 162.2 130.4 L 173.2 139.4 L 168.2 143.4 L 168.2 176.7 L 156.2 182.7 L 156.2 170.7 L 67.7 170.7 L 67.7 182.7 L 55.7 188.7 L 55.7 129.4 Z M 39.6 35.0 L 97.9 35.0 L 97.9 12.0 L 109.9 14.0 L 112.9 16.0 L 109.9 17.8 L 109.9 35.0 L 164.1 35.0 L 174.1 25.0 L 186.1 35.0 L 186.1 39.0 L 39.6 39.0 L 39.6 96.0 L 39.1 109.1 L 38.1 121.4 L 36.6 132.9 L 34.7 143.5 L 32.3 153.2 L 29.4 162.0 L 26.0 169.9 L 22.0 176.9 L 17.5 182.8 L 12.5 187.6 L 11.2 186.3 L 14.4 180.6 L 17.3 174.4 L 19.9 167.4 L 22.2 159.7 L 24.0 151.2 L 25.5 141.9 L 26.7 131.7 L 27.4 120.6 L 27.7 108.7 L 27.6 96.0 L 27.6 29.0 Z M 67.7 139.4 L 67.7 166.7 L 156.2 166.7 L 156.2 139.4 Z M 76.6 87.2 L 147.3 87.2 L 153.3 82.2 L 164.3 91.2 L 159.3 95.2 L 159.3 120.6 L 147.3 126.6 L 147.3 118.6 L 76.6 118.6 L 76.6 121.6 L 64.6 127.6 L 64.6 81.2 Z M 76.6 91.2 L 76.6 114.6 L 147.3 114.6 L 147.3 91.2 Z M 154.1 76.9 L 148.4 73.9 L 143.2 70.7 L 138.6 67.1 L 134.5 63.3 L 130.9 59.2 L 128.0 54.8 L 125.9 50.2 L 124.6 45.3 L 126.2 44.6 L 129.4 48.0 L 132.7 51.2 L 136.2 54.2 L 139.9 56.9 L 144.0 59.5 L 148.5 61.9 L 153.3 64.1 L 158.6 66.0 L 164.3 67.8 L 170.5 69.4 L 178.5 71.7 L 166.9 82.1 L 160.2 79.7 Z M 96.6 49.3 L 98.9 52.1 L 94.87657661437989 53.17770271301269 L 94.6 53.8 L 91.8 57.8 L 88.4 61.5 L 84.3 64.8 L 79.7 67.8 L 74.5 70.5 L 68.7 73.0 L 62.3 75.1 L 55.3 76.9 L 47.7 78.3 L 47.2 76.6 L 54.1 73.3 L 60.3 70.2 L 65.9 67.0 L 70.8 63.9 L 74.9 60.8 L 78.3 57.7 L 81.0 54.7 L 83.0 51.7 L 84.3 48.8 L 84.84050340652466 46.90823802947998 L 84.8 46.9 L 85.5 44.4 Z " />
</g>
</svg>
