<svg xmlns="http://www.w3.org/2000/svg" xmlns:xlink="http://www.w3.org/1999/xlink" version="1.1" baseProfile="full" viewBox="0 0 200 200" width="200" height="200">
<g fill="black">
<path d="M 43.0 43.0 L 96.0 43.0 L 96.0 13.0 L 108.0 15.0 L 111.0 17.0 L 108.0 18.8 L 108.0 43.0 L 162.0 43.0 L 172.0 33.0 L 184.0 43.0 L 184.0 47.0 L 43.0 47.0 L 43.0 102.0 L 42.4 113.5 L 41.2 124.5 L 39.5 135.0 L 37.2 144.8 L 34.3 154.0 L 30.8 162.5 L 26.7 170.4 L 21.9 177.6 L 16.6 184.0 L 10.6 189.6 L 9.3 188.3 L 13.6 181.7 L 17.4 174.8 L 20.8 167.5 L 23.7 159.7 L 26.1 151.4 L 28.1 142.7 L 29.6 133.3 L 30.5 123.4 L 31.0 113.0 L 31.0 37.0 Z M 64.6 127.5 L 97.6 127.5 L 103.1 122.5 L 113.6 131.5 L 108.6 135.0 L 108.6 178.2 L 97.6 183.7 L 97.6 174.2 L 64.6 174.2 L 64.6 181.2 L 52.6 187.2 L 52.6 121.5 Z M 130.1 127.5 L 163.1 127.5 L 169.1 122.5 L 180.1 131.5 L 175.1 135.5 L 175.1 178.2 L 163.1 184.2 L 163.1 174.2 L 130.1 174.2 L 130.1 181.2 L 119.1 186.7 L 119.1 122.0 Z M 130.1 131.5 L 130.1 170.2 L 163.1 170.2 L 163.1 131.5 Z M 64.6 131.5 L 64.6 170.2 L 97.6 170.2 L 97.6 131.5 Z M 86.9 66.7 L 143.2 66.7 L 149.2 61.7 L 160.2 70.7 L 155.2 74.7 L 155.2 111.7 L 143.2 117.7 L 143.2 109.7 L 86.9 109.7 L 86.9 112.7 L 74.9 118.7 L 74.9 60.7 Z M 86.9 70.7 L 86.9 105.7 L 143.2 105.7 L 143.2 70.7 Z " />
</g>
</svg>
