<svg xmlns="http://www.w3.org/2000/svg" xmlns:xlink="http://www.w3.org/1999/xlink" version="1.1" baseProfile="full" viewBox="0 0 200 200" width="200" height="200">
<g fill="black">
<path d="M 149.3 183.9 L 143.2 181.1 L 136.6 178.4 L 129.6 175.8 L 124.310062789917 174.15583028793336 L 117.5 177.6 L 107.3 181.3 L 95.5 184.2 L 82.2 186.4 L 67.3 187.9 L 50.7 188.5 L 50.6 186.7 L 66.8 184.1 L 81.3 181.2 L 93.9 177.8 L 104.8 174.1 L 112.24927263259887 170.70644245147705 L 105.9 169.1 L 97.0 167.0 L 90.27442770004272 165.46481504440308 L 85.5 172.3 L 72.2 170.3 L 87.93599996566772 147.9 L 44.2 147.9 L 44.2 143.9 L 90.7460000038147 143.9 L 100.3 130.3 L 108.9 138.8 L 110.2 142.2 L 106.26048002243041 142.57880001068116 L 105.33761196136474 143.9 L 160.7 143.9 L 170.7 133.9 L 182.7 143.9 L 182.7 147.9 L 144.0268292427063 147.9 L 142.7 154.3 L 138.9 161.6 L 133.4 167.9 L 133.24042072296143 168.01746807098388 L 139.5 169.5 L 146.8 171.7 L 153.6 174.1 L 160.1 176.8 L 166.2 179.8 L 168.9 183.5 L 168.4 188.0 L 164.7 190.7 L 160.1 190.2 L 155.0 187.0 Z M 40.0 35.0 L 98.0 35.0 L 98.0 12.0 L 110.0 14.0 L 113.0 16.0 L 110.0 17.8 L 110.0 35.0 L 164.0 35.0 L 174.0 25.0 L 186.0 35.0 L 186.0 39.0 L 40.0 39.0 L 40.0 102.0 L 39.4 113.7 L 38.3 124.8 L 36.7 135.3 L 34.5 145.2 L 31.8 154.4 L 28.5 162.9 L 24.7 170.8 L 20.3 177.9 L 15.2 184.2 L 9.6 189.5 L 8.3 188.4 L 12.2 181.9 L 15.6 175.2 L 18.7 168.0 L 21.4 160.3 L 23.6 152.0 L 25.4 143.2 L 26.7 133.8 L 27.6 123.8 L 28.0 113.2 L 28.0 29.0 Z M 102.54358205795288 147.9 L 91.86936798095704 163.1814603805542 L 97.5 163.3 L 106.7 163.8 L 115.5 164.8 L 120.8061068534851 165.6211832046509 L 121.0 165.5 L 126.3 160.7 L 129.8 155.9 L 131.8 150.9 L 132.1 147.9 Z M 62.3 135.2 L 62.3 84.2 L 74.3 90.2 L 96.47647056579589 90.2 L 96.9 89.8 L 98.3 87.8 L 99.6 85.9 L 100.9 84.1 L 102.2 82.4 L 103.3 80.7 L 104.4 79.1 L 105.4 77.6 L 106.3 76.1 L 106.59978857040406 75.57537002563477 L 106.4 75.4 L 107.01764707565307 74.84411764144897 L 107.1 74.7 L 107.13615436553955 74.73746109008789 L 107.4 74.5 L 115.4 83.3 L 116.1 86.9 L 111.2525691986084 85.60158100128174 L 110.5 86.0 L 108.7 86.9 L 106.8 87.9 L 104.8 88.8 L 102.8 89.8 L 101.8222222328186 90.2 L 151.6 90.2 L 157.6 85.2 L 168.6 94.2 L 163.6 98.2 L 163.6 129.2 L 151.6 135.2 L 151.6 129.2 L 74.3 129.2 Z M 74.3 111.2 L 74.3 125.2 L 107.3 125.2 L 107.3 111.2 Z M 119.3 111.2 L 119.3 125.2 L 151.6 125.2 L 151.6 111.2 Z M 74.3 94.2 L 74.3 107.2 L 107.3 107.2 L 107.3 94.2 Z M 119.3 94.2 L 119.3 107.2 L 151.6 107.2 L 151.6 94.2 Z M 142.0 44.7 L 145.0 46.7 L 142.0 48.5 L 142.0 61.2 L 161.5 61.2 L 171.5 51.2 L 183.5 61.2 L 183.5 65.2 L 142.0 65.2 L 142.0 79.0 L 130.0 85.0 L 130.0 65.2 L 96.9 65.2 L 96.9 79.0 L 84.9 85.0 L 84.9 65.2 L 43.4 65.2 L 43.4 61.2 L 84.9 61.2 L 84.9 42.7 L 96.9 44.7 L 99.9 46.7 L 96.9 48.5 L 96.9 61.2 L 130.0 61.2 L 130.0 42.7 Z " />
</g>
</svg>
