<svg xmlns="http://www.w3.org/2000/svg" xmlns:xlink="http://www.w3.org/1999/xlink" version="1.1" baseProfile="full" viewBox="0 0 200 200" width="200" height="200">
<g fill="black">
<path d="M 40.0 35.0 L 98.0 35.0 L 98.0 12.0 L 110.0 14.0 L 113.0 16.0 L 110.0 17.8 L 110.0 35.0 L 164.0 35.0 L 174.0 25.0 L 186.0 35.0 L 186.0 39.0 L 40.0 39.0 L 40.0 102.0 L 39.4 113.7 L 38.3 124.8 L 36.7 135.3 L 34.5 145.2 L 31.8 154.4 L 28.5 162.9 L 24.7 170.8 L 20.3 177.9 L 15.2 184.2 L 9.6 189.5 L 8.3 188.4 L 12.2 181.9 L 15.6 175.2 L 18.7 168.0 L 21.4 160.3 L 23.6 152.0 L 25.4 143.2 L 26.7 133.8 L 27.6 123.8 L 28.0 113.2 L 28.0 29.0 Z M 132.0 121.7 L 160.8 121.7 L 166.8 116.7 L 177.8 125.7 L 172.8 129.7 L 172.8 174.2 L 160.8 180.2 L 160.8 168.2 L 132.0 168.2 L 132.0 180.2 L 120.0 186.2 L 120.0 115.7 Z M 66.1 121.7 L 94.9 121.7 L 100.9 116.7 L 111.9 125.7 L 106.9 129.7 L 106.9 174.2 L 94.9 180.2 L 94.9 168.2 L 66.1 168.2 L 66.1 180.2 L 54.1 186.2 L 54.1 115.7 Z M 132.0 125.7 L 132.0 164.2 L 160.8 164.2 L 160.8 125.7 Z M 66.1 125.7 L 66.1 164.2 L 94.9 164.2 L 94.9 125.7 Z M 49.0 94.0 L 75.0 94.0 L 75.0 68.0 L 49.0 68.0 L 49.0 64.0 L 75.0 64.0 L 75.0 43.0 L 87.0 45.0 L 90.0 47.0 L 87.0 48.8 L 87.0 64.0 L 122.0 64.0 L 122.0 43.0 L 134.0 45.0 L 137.0 47.0 L 134.0 48.8 L 134.0 64.0 L 163.0 64.0 L 169.0 59.0 L 180.0 68.0 L 175.0 72.0 L 175.0 102.0 L 163.0 108.0 L 163.0 98.0 L 49.0 98.0 Z M 87.0 68.0 L 87.0 94.0 L 122.0 94.0 L 122.0 68.0 Z M 134.0 68.0 L 134.0 94.0 L 163.0 94.0 L 163.0 68.0 Z " />
</g>
</svg>
