<svg xmlns="http://www.w3.org/2000/svg" xmlns:xlink="http://www.w3.org/1999/xlink" version="1.1" baseProfile="full" viewBox="0 0 200 200" width="200" height="200">
<g fill="black">
<path d="M 41.5 41.0 L 99.0 41.0 L 99.0 12.0 L 111.0 14.0 L 114.0 16.0 L 111.0 17.8 L 111.0 41.0 L 164.0 41.0 L 174.0 31.0 L 186.0 41.0 L 186.0 45.0 L 41.5 45.0 L 41.5 104.0 L 40.9 115.3 L 39.8 126.1 L 38.2 136.3 L 35.9 145.9 L 33.2 154.8 L 29.8 163.2 L 25.9 170.9 L 21.4 177.9 L 16.3 184.1 L 10.6 189.5 L 9.3 188.4 L 13.5 182.0 L 17.2 175.3 L 20.5 168.2 L 23.4 160.6 L 25.7 152.6 L 27.6 144.0 L 29.1 134.8 L 30.0 125.1 L 30.5 114.8 L 30.5 35.5 Z M 61.5 132.1 L 61.5 134.6 L 61.1 142.8 L 60.4 150.4 L 59.5 157.4 L 58.4 163.8 L 56.9 169.6 L 55.2 174.8 L 54.444444465637204 176.5 L 74.2 176.5 L 75.5 176.4 L 76.4 176.3 L 77.0 176.1 L 77.3 175.9 L 77.5 175.8 L 77.8 175.2 L 78.0 174.7 L 78.2 173.7 L 78.2 132.1 Z M 125.71951217651367 145.0 L 124.43582887649536 146.50374336242675 L 125.9 148.7 L 129.6 153.2 L 133.6 157.2 L 138.0 160.9 L 138.30162220001222 161.0969778060913 L 141.7 158.2 L 147.1 152.5 L 152.0 146.4 L 152.91212120056153 145.0 Z M 61.5 97.9 L 61.5 128.1 L 78.2 128.1 L 78.2 97.9 Z M 118.6 109.5 L 118.6 124.1 L 156.2 124.1 L 156.2 109.5 Z M 118.6 91.9 L 118.6 105.5 L 156.2 105.5 L 156.2 91.9 Z M 61.5 65.2 L 61.5 93.9 L 78.2 93.9 L 78.2 65.2 Z M 157.1 182.7 L 149.9 179.5 L 143.4 175.9 L 138.54969005584718 172.47133264541625 L 133.3 175.5 L 124.9 179.4 L 116.0 182.7 L 106.6 185.2 L 96.6 187.0 L 86.1 188.0 L 85.8 186.2 L 95.8 183.3 L 105.1 180.1 L 113.7 176.5 L 121.7 172.6 L 129.0 168.2 L 131.7445303916931 166.20397787094117 L 128.2 162.0 L 124.7 156.5 L 122.2 150.5 L 121.91666669845581 149.225 L 119.7 151.5 L 115.7 155.1 L 111.5 158.5 L 107.0 161.6 L 102.3 164.4 L 97.2 166.8 L 91.9 168.9 L 91.0 167.3 L 95.2 163.6 L 99.2 160.0 L 102.9 156.5 L 106.5 152.9 L 109.7 149.1 L 112.8 145.3 L 115.6 141.4 L 118.2 137.4 L 120.5 133.2 L 122.15010414123535 129.8212152481079 L 122.1 129.8 L 122.99473686218262 128.1 L 118.6 128.1 L 106.6 134.1 L 106.6 89.5 L 104.7 91.4 L 100.6 95.0 L 96.1 98.2 L 91.3 101.1 L 90.2 99.8166666984558 L 90.2 172.5 L 90.1 175.1 L 89.6 177.6 L 88.8 180.0 L 87.6 182.2 L 86.0 184.3 L 83.9 185.9 L 81.7 187.1 L 79.3 187.9 L 76.8 188.4 L 74.2 188.5 L 74.2 182.5 L 54.2 179.5 L 54.2 177.05 L 53.2 179.3 L 50.9 183.2 L 48.2 186.2 L 45.2 188.4 L 44.1 187.2 L 45.4 184.2 L 46.5 180.9 L 47.6 177.2 L 48.5 172.9 L 49.3 168.0 L 49.9 162.6 L 50.4 156.5 L 50.6 149.8 L 50.6 142.5 L 50.5 134.6 L 50.5 55.7 L 61.5 61.2 L 78.2 61.2 L 84.2 56.2 L 95.2 65.2 L 90.2 69.2 L 90.2 99.5764705657959 L 93.5 95.5 L 96.7 91.2 L 99.8 87.1 L 102.6 82.8 L 105.2 78.5 L 107.5 74.1 L 109.6 69.6 L 111.5 65.0 L 113.1 60.3 L 114.21337146759033 56.40319995880127 L 114.2 56.4 L 114.33333330154419 55.98333330154419 L 114.5 55.4 L 114.51807231903076 55.406024074554445 L 115.0 53.9 L 125.9 59.2 L 128.1 62.0 L 124.34676313400269 62.871287155151364 L 123.7 64.4 L 121.2 69.5 L 119.90625 71.8 L 163.51818180084229 71.8 L 171.7 62.8 L 181.7 71.8 L 181.7 75.8 L 117.5217391014099 75.8 L 115.5 78.9 L 112.2 83.3 L 111.36000003814698 84.28000001907348 L 118.6 87.9 L 156.2 87.9 L 162.2 82.9 L 173.2 91.9 L 168.2 95.9 L 168.2 128.1 L 156.2 134.1 L 156.2 128.1 L 123.40606060028077 128.1 L 133.2 134.5 L 134.9 137.7 L 130.98083782196045 137.90271530151367 L 130.2 139.1 L 128.8181818008423 141.0 L 155.3 141.0 L 155.77734804153442 140.6022099494934 L 156.3 139.8 L 156.54994373321534 139.95838022232056 L 161.3 136.0 L 172.3 145.0 L 167.3 148.0 L 164.02727270126343 149.36363639831544 L 161.0 153.4 L 154.9 159.9 L 148.3 165.8 L 147.41343278884887 166.44029846191407 L 148.3 166.9 L 154.3 169.4 L 160.9 171.5 L 168.0 173.2 L 175.8 174.5 L 185.3 176.2 L 173.5 187.5 L 165.0 185.3 Z " />
</g>
</svg>
