<svg xmlns="http://www.w3.org/2000/svg" xmlns:xlink="http://www.w3.org/1999/xlink" version="1.1" baseProfile="full" viewBox="0 0 200 200" width="200" height="200">
<g fill="black">
<path d="M 39.5 35.0 L 98.0 35.0 L 98.0 12.0 L 110.0 14.0 L 113.0 16.0 L 110.0 17.8 L 110.0 35.0 L 164.0 35.0 L 174.0 25.0 L 186.0 35.0 L 186.0 39.0 L 39.5 39.0 L 39.5 102.0 L 38.9 113.7 L 37.8 124.8 L 36.3 135.2 L 34.1 145.1 L 31.4 154.3 L 28.2 162.8 L 24.4 170.6 L 20.1 177.8 L 15.1 184.1 L 9.6 189.5 L 8.3 188.4 L 12.3 182.0 L 15.8 175.3 L 19.0 168.1 L 21.7 160.4 L 24.0 152.1 L 25.8 143.3 L 27.1 133.9 L 28.1 123.8 L 28.5 113.2 L 28.5 29.5 Z M 180.6 146.6 L 182.6 146.6 L 180.6 171.6 L 184.2 174.0 L 186.6 177.6 L 184.2 181.2 L 180.6 183.6 L 163.7 183.6 L 161.2 183.5 L 158.7 183.1 L 156.3 182.2 L 154.0 181.0 L 152.0 179.4 L 150.3 177.4 L 149.1 175.1 L 148.3 172.7 L 147.9 170.2 L 147.7 167.6 L 147.7 137.3958333015442 L 144.3 147.1 L 138.5 159.0 L 131.7 168.8 L 123.9 176.7 L 115.3 182.3 L 105.8 185.7 L 105.3 184.0 L 113.3 179.1 L 120.3 172.8 L 126.4 164.9 L 131.8 155.4 L 136.4 144.1 L 140.2 131.0 L 143.1 116.1 L 143.6337278366089 112.0 L 131.51864404678344 112.0 L 130.0 124.6 L 117.3 129.1 L 124.7 68.0 L 136.4 71.5 L 139.1 73.8 L 135.99316701889038 74.87544221878052 L 132.00075330734253 108.0 L 144.15443782806398 108.0 L 145.3 99.2 L 146.6 80.6 L 146.96097564697266 62.1 L 122.0 62.1 L 122.0 58.1 L 158.6 58.1 L 168.6 48.1 L 180.6 58.1 L 180.6 62.1 L 159.00094785690308 62.1 L 158.0 81.3 L 156.0 100.5 L 154.70689659118653 108.0 L 161.6 108.0 L 171.6 98.0 L 183.6 108.0 L 183.6 112.0 L 154.01724138259888 112.0 L 153.0 117.9 L 152.78668727874756 118.74778118133545 L 159.7 119.9 L 162.7 121.9 L 159.7 123.7 L 159.7 167.6 L 159.8 168.9 L 160.0 169.8 L 160.3 170.7 L 160.5 170.9 L 160.7 171.0 L 161.0 171.2 L 161.6 171.4 L 162.5 171.6 L 174.6 171.6 Z M 106.13896102905274 144.38766231536866 L 106.1 144.4 L 101.1 145.7 L 96.1 146.8 L 91.1 147.8 L 86.0 148.7 L 80.9 149.5 L 75.8 150.1 L 70.6 150.6 L 65.4 150.9 L 60.6 150.9 L 60.6 161.8 L 60.7 163.1 L 60.9 164.0 L 61.2 164.9 L 61.6 165.3 L 62.5 165.6 L 63.4 165.8 L 101.0 165.8 Z M 85.3 48.1 L 88.3 50.1 L 85.3 51.9 L 85.3 61.5 L 99.31818180084228 61.5 L 107.5 52.5 L 117.5 61.5 L 117.5 65.5 L 85.3 65.5 L 85.3 77.5 L 97.9 77.5 L 103.9 72.5 L 114.9 81.5 L 109.9 85.5 L 109.9 122.1 L 97.9 128.1 L 97.9 120.1 L 60.2 120.1 L 49.2 125.6 L 49.2 72.0 L 60.2 77.5 L 73.3 77.5 L 73.3 46.1 Z M 60.2 101.0 L 60.2 116.1 L 97.9 116.1 L 97.9 101.0 Z M 60.2 97.0 L 97.9 97.0 L 97.9 81.5 L 60.2 81.5 Z M 113.0 171.8 L 110.6 175.4 L 107.0 177.8 L 64.6 177.8 L 62.1 177.7 L 59.6 177.3 L 57.2 176.5 L 54.9 175.2 L 52.9 173.6 L 51.2 171.6 L 50.0 169.3 L 49.2 166.9 L 48.8 164.4 L 48.6 161.8 L 48.6 125.8 L 60.6 127.8 L 63.6 129.8 L 60.6 131.6 L 60.6 146.84799995422364 L 64.5 145.6 L 69.4 144.2 L 74.3 142.7 L 79.1 141.2 L 83.8 139.7 L 93.2 136.5 L 97.8 134.8 L 102.3 133.0 L 102.84217395782471 134.62652177810668 L 112.1 142.5 L 112.3 145.5 L 108.7493182182312 143.93352270126343 L 107.0 165.8 L 110.6 168.2 Z " />
</g>
</svg>
