<svg xmlns="http://www.w3.org/2000/svg" xmlns:xlink="http://www.w3.org/1999/xlink" version="1.1" baseProfile="full" viewBox="0 0 200 200" width="200" height="200">
<g fill="black">
<path d="M 42.6 34.4 L 99.9 34.4 L 99.9 11.8 L 111.9 13.8 L 114.9 15.8 L 111.9 17.6 L 111.9 34.4 L 165.1 34.4 L 175.1 24.4 L 187.1 34.4 L 187.1 38.4 L 42.6 38.4 L 42.6 58.0 L 77.0 58.0 L 77.0 46.0 L 89.0 48.0 L 92.0 50.0 L 89.0 51.8 L 89.0 58.0 L 123.0 58.0 L 123.0 46.0 L 135.0 48.0 L 138.0 50.0 L 135.0 51.8 L 135.0 58.0 L 164.0 58.0 L 170.0 53.0 L 181.0 62.0 L 176.0 66.0 L 176.0 89.0 L 164.0 95.0 L 164.0 87.0 L 42.6 87.0 L 42.6 100.4 L 42.0 112.0 L 41.0 123.0 L 39.3 133.3 L 37.2 143.0 L 34.5 152.1 L 31.3 160.5 L 27.5 168.2 L 23.1 175.2 L 18.1 181.4 L 12.5 186.7 L 11.2 185.5 L 15.0 179.2 L 18.5 172.5 L 21.5 165.4 L 24.1 157.8 L 26.3 149.7 L 28.1 141.0 L 29.4 131.8 L 30.3 121.9 L 30.7 111.5 L 30.6 100.4 L 30.6 28.4 Z M 44.0 177.3 L 107.9 177.3 L 107.9 158.6 L 54.5 158.6 L 54.5 154.6 L 107.9 154.6 L 107.9 139.1 L 119.9 141.1 L 122.9 143.1 L 119.9 144.9 L 119.9 154.6 L 151.2 154.6 L 161.2 144.6 L 173.2 154.6 L 173.2 158.6 L 119.9 158.6 L 119.9 177.3 L 161.7 177.3 L 171.7 167.3 L 183.7 177.3 L 183.7 181.3 L 44.0 181.3 Z M 159.0 137.8 L 156.0 135.2 L 153.60022735595703 133.17519178390503 L 148.0 134.1 L 137.2 135.6 L 126.5 136.9 L 115.9 138.1 L 105.5 139.2 L 95.2 140.2 L 85.0 141.1 L 75.0 141.9 L 65.1 142.7 L 59.38848037719727 143.1079656600952 L 57.4 146.3 L 55.3 143.4 L 52.8 131.5 L 54.8 131.4 L 64.6 131.3 L 74.5 131.2 L 81.07712306976319 131.06845750808716 L 82.2 129.0 L 84.3 125.6 L 86.3 122.3 L 90.3 115.9 L 92.2 112.7 L 94.2 109.6 L 94.54615383148193 109.0 L 45.8 109.0 L 45.8 105.0 L 159.1 105.0 L 169.1 95.0 L 181.1 105.0 L 181.1 109.0 L 108.8285714149475 109.0 L 107.5 110.5 L 105.1 113.2 L 102.5 116.0 L 99.9 118.7 L 94.5 124.1 L 91.6 126.7 L 88.7 129.4 L 86.88077802658081 130.9766590118408 L 94.7 130.9 L 105.0 130.7 L 115.5 130.5 L 126.1 130.4 L 136.8 130.3 L 147.7 130.3 L 149.83369331359864 130.35766735076905 L 149.2 129.9 L 145.4 127.2 L 141.2 124.6 L 136.8 121.9 L 132.2 119.0 L 127.3 116.1 L 127.9 114.5 L 133.5 115.7 L 138.9 117.1 L 144.0 118.8 L 148.8 120.7 L 153.4 122.6 L 157.7 124.8 L 161.8 127.0 L 165.6 129.4 L 169.1 131.9 L 172.5 134.6 L 174.2 138.8 L 172.5 143.1 L 168.3 144.8 L 164.0 143.1 L 161.7 140.5 Z M 42.6 62.0 L 42.6 83.0 L 77.0 83.0 L 77.0 62.0 Z M 89.0 62.0 L 89.0 83.0 L 123.0 83.0 L 123.0 62.0 Z M 135.0 62.0 L 135.0 83.0 L 164.0 83.0 L 164.0 62.0 Z " />
</g>
</svg>
