<svg xmlns="http://www.w3.org/2000/svg" xmlns:xlink="http://www.w3.org/1999/xlink" version="1.1" baseProfile="full" viewBox="0 0 200 200" width="200" height="200">
<g fill="black">
<path d="M 152.47199230194093 53.476804637908934 L 151.9 70.8 L 151.72225437164306 73.12254333496094 L 153.2 87.9 L 155.6 104.4 L 158.6 119.5 L 162.2 133.1 L 166.4 145.2 L 171.2 155.8 L 176.6 164.9 L 182.5 172.6 L 188.9 178.8 L 190.9 180.6 L 180.1 188.6 L 172.8 180.6 L 166.6 171.2 L 161.2 160.5 L 156.7 148.6 L 153.1 135.5 L 150.4 121.0 L 148.41191120147704 105.39350299835205 L 148.0 108.5 L 144.8 125.0 L 140.8 139.9 L 135.9 153.2 L 130.1 165.0 L 123.4 175.0 L 115.9 183.2 L 107.5 189.5 L 106.4 188.1 L 113.1 180.6 L 119.0 172.0 L 124.3 161.9 L 128.8 150.5 L 132.6 137.6 L 135.7 123.1 L 138.1 107.1 L 139.7 89.5 L 140.6 70.3 L 140.6 47.2 L 152.6 49.6 L 155.6 51.6 Z M 40.0 35.0 L 98.0 35.0 L 98.0 12.0 L 110.0 14.0 L 113.0 16.0 L 110.0 17.8 L 110.0 35.0 L 164.0 35.0 L 174.0 25.0 L 186.0 35.0 L 186.0 39.0 L 40.0 39.0 L 40.0 102.0 L 39.4 113.7 L 38.3 124.8 L 36.7 135.3 L 34.5 145.2 L 31.8 154.4 L 28.5 162.9 L 24.7 170.8 L 20.3 177.9 L 15.2 184.2 L 9.6 189.5 L 8.3 188.4 L 12.2 181.9 L 15.6 175.2 L 18.7 168.0 L 21.4 160.3 L 23.6 152.0 L 25.4 143.2 L 26.7 133.8 L 27.6 123.8 L 28.0 113.2 L 28.0 29.0 Z M 100.7 77.9 L 99.1 75.3 L 97.4 72.7 L 95.4 70.1 L 93.1 67.5 L 90.6 64.8 L 87.8 62.2 L 85.0583275794983 59.55286798477173 L 82.7 64.0 L 78.9 70.4 L 75.0 76.5 L 70.8 82.3 L 66.3 87.8 L 64.03026313781739 90.41513156890869 L 71.2 94.0 L 77.4 94.0 L 77.4 73.6 L 89.4 75.6 L 92.4 77.6 L 89.4 79.4 L 89.4 94.0 L 94.9 94.0 L 100.9 89.0 L 111.9 98.0 L 106.9 102.0 L 106.9 136.8 L 94.9 142.8 L 94.9 136.8 L 71.2 136.8 L 71.2 165.89230766296387 L 75.4 164.6 L 80.9 163.0 L 86.6 161.2 L 92.7 159.5 L 94.41017961502075 159.06566867828369 L 94.0 158.3 L 92.3 155.5 L 90.5 152.6 L 88.5 149.8 L 86.3 147.0 L 83.7 144.3 L 84.8 142.9 L 88.1 144.8 L 91.4 146.6 L 94.5 148.7 L 97.4 151.0 L 100.2 153.5 L 102.7 156.2 L 105.1 159.0 L 107.3 162.1 L 109.3 165.3 L 111.1 168.6 L 110.9 173.2 L 107.6 176.4 L 103.0 176.2 L 99.8 172.9 L 99.0 169.9 L 98.0 166.9 L 96.9 164.0 L 95.8961630821228 161.92062349319457 L 94.2 163.0 L 88.7 166.2 L 83.4 169.0 L 78.3 171.7 L 73.3 174.1 L 68.5 176.4 L 63.9 178.5 L 59.5 180.5 L 55.3 182.3 L 55.14181604385376 182.36173028945922 L 54.1 186.2 L 51.2 183.9 L 45.7 173.1 L 47.6 172.5 L 51.7 171.5 L 55.9 170.3 L 59.2 169.43913040161132 L 59.2 95.55 L 56.7 98.0 L 51.5 102.5 L 45.9 106.6 L 44.7 105.2 L 52.7 94.4 L 56.6 88.9 L 60.2 83.3 L 63.7 77.6 L 67.0 71.6 L 70.1 65.5 L 73.1 59.2 L 75.8 52.7 L 77.95746660232544 46.917989540100095 L 77.9 46.9 L 78.8 44.7 L 89.4 50.5 L 91.5 53.5 L 87.73796443939209 54.08376417160034 L 86.42705774307251 56.91040678024292 L 90.3 58.4 L 94.0 60.2 L 97.4 62.2 L 100.7 64.3 L 103.7 66.6 L 106.5 69.0 L 109.1 71.7 L 111.4 74.4 L 113.6 77.3 L 114.0 81.9 L 111.1 85.5 L 106.5 85.8 L 103.0 83.0 L 101.9 80.4 Z M 71.2 117.0 L 71.2 132.8 L 94.9 132.8 L 94.9 117.0 Z M 71.2 113.0 L 94.9 113.0 L 94.9 98.0 L 71.2 98.0 Z " />
</g>
</svg>
