<svg xmlns="http://www.w3.org/2000/svg" xmlns:xlink="http://www.w3.org/1999/xlink" version="1.1" baseProfile="full" viewBox="0 0 200 200" width="200" height="200">
<g fill="black">
<path d="M 42.0 41.0 L 99.0 41.0 L 99.0 12.0 L 111.0 14.0 L 114.0 16.0 L 111.0 17.8 L 111.0 41.0 L 167.8181818008423 41.0 L 176.0 32.0 L 186.0 41.0 L 186.0 45.0 L 42.0 45.0 L 42.0 104.0 L 41.4 115.3 L 40.2 126.1 L 38.6 136.3 L 36.3 145.9 L 33.5 154.9 L 30.1 163.3 L 26.2 171.0 L 21.6 178.0 L 16.4 184.2 L 10.6 189.6 L 9.3 188.3 L 13.4 181.9 L 17.0 175.2 L 20.3 168.1 L 23.1 160.5 L 25.4 152.5 L 27.3 143.9 L 28.7 134.7 L 29.6 125.0 L 30.0 114.8 L 30.0 35.0 Z M 48.2 105.0 L 53.1 104.5 L 58.1 104.0 L 63.2 103.5 L 66.5 103.18269233703613 L 66.5 84.9 L 49.9 84.9 L 49.9 80.9 L 66.5 80.9 L 66.5 63.1 L 48.1 63.1 L 48.1 59.1 L 83.01818180084229 59.1 L 91.2 50.1 L 101.2 59.1 L 101.2 63.1 L 78.5 63.1 L 78.5 80.9 L 81.31818180084228 80.9 L 89.5 71.9 L 99.5 80.9 L 99.5 84.9 L 78.5 84.9 L 78.5 101.95555553436279 L 79.1 101.9 L 84.6 101.3 L 90.2 100.8 L 96.0 100.3 L 101.9 100.1 L 102.3 101.8 L 96.8 104.1 L 91.3 106.0 L 85.9 107.7 L 80.5 109.3 L 75.3 110.8 L 64.9 113.4 L 54.9 115.8 L 54.085321712493894 115.96626091003418 L 52.4 119.5 L 50.0 116.8 L 46.3 105.3 Z M 130.0 56.0 L 152.0 56.0 L 158.0 51.0 L 169.0 60.0 L 164.0 64.0 L 164.0 68.0 L 163.8 69.2 L 163.8 70.9 L 163.9 71.5 L 164.0 71.9 L 164.2 72.4 L 164.7 72.8 L 165.4 73.3 L 166.5 73.7 L 168.0 74.0 L 178.0 74.0 L 182.0 65.0 L 184.0 65.0 L 182.0 74.0 L 184.4 75.6 L 186.0 78.0 L 184.4 80.4 L 182.0 82.0 L 165.6 82.0 L 165.17729730606078 81.96324319839478 L 175.0 90.0 L 170.0 93.0 L 166.15441856384277 94.60232553482055 L 164.4 96.7 L 159.1 101.6 L 156.3005214691162 103.52750978469848 L 158.0 104.3 L 163.1 107.1 L 168.0 110.1 L 172.6 113.4 L 174.6 117.6 L 173.2 121.9 L 169.1 123.9 L 164.8 122.5 L 161.2 119.2 L 157.2 116.1 L 153.0 113.0 L 148.4 110.1 L 146.69652576446532 109.18012390136718 L 146.1 109.5 L 138.6 112.6 L 130.3 115.2 L 121.4 117.2 L 111.6 118.7 L 105.28101263046264 119.24683542251587 L 114.0 120.7 L 117.0 122.7 L 114.0 124.5 L 114.0 135.5 L 151.6 135.5 L 161.6 125.5 L 173.6 135.5 L 173.6 139.5 L 115.71578950881958 139.5 L 118.4 141.5 L 123.6 145.2 L 128.9 148.7 L 134.4 152.0 L 140.1 155.1 L 146.1 157.8 L 152.3 160.4 L 158.9 162.7 L 165.7 164.7 L 172.9 166.5 L 181.1 168.7 L 169.4 179.2 L 161.9 176.6 L 154.7 173.7 L 147.8 170.5 L 141.4 166.9 L 135.3 163.1 L 129.7 158.9 L 124.5 154.5 L 119.7 149.6 L 115.5 144.5 L 114.0 142.1666666984558 L 114.0 181.6 L 102.0 187.6 L 102.0 148.81481485366822 L 99.1 151.5 L 93.2 156.1 L 86.9 160.3 L 80.1 164.2 L 72.9 167.6 L 65.2 170.7 L 57.1 173.3 L 48.4 175.5 L 39.4 177.1 L 38.9 175.4 L 47.3 171.9 L 55.2 168.3 L 62.5 164.7 L 69.4 160.9 L 75.8 156.8 L 81.6 152.6 L 87.0 148.2 L 91.8 143.6 L 95.5583333015442 139.5 L 42.4 139.5 L 42.4 135.5 L 102.0 135.5 L 102.0 119.5307692527771 L 101.2 119.6 L 90.0 119.8 L 89.9 118.1 L 100.7 115.9 L 110.7 113.5 L 119.7 110.9 L 128.0 108.0 L 135.3 104.8 L 136.61450490951538 104.09218969345093 L 132.6 102.3 L 126.6 99.9 L 120.4 97.5 L 113.8 95.0 L 114.1 93.3 L 121.2 93.8 L 128.0 94.7 L 134.6 96.0 L 140.8 97.7 L 145.05864658355713 99.04857139587402 L 147.3 97.5 L 152.0 93.5 L 155.1744186401367 90.0 L 107.0 90.0 L 107.0 86.0 L 158.0 86.0 L 158.075 85.9375 L 158.9 84.7 L 159.27240219116212 84.93966484069824 L 163.0937931060791 81.7551724433899 L 161.0 81.3 L 158.9 80.3 L 156.9 79.0 L 155.2 77.2 L 153.9 75.2 L 152.9 72.9 L 152.3 70.5 L 152.0 68.0 L 152.0 60.0 L 130.0 60.0 L 130.0 67.0 L 129.1 70.3 L 127.6 73.2 L 125.6 75.7 L 123.1 77.7 L 120.2 79.5 L 117.0 81.0 L 113.4 82.4 L 109.4 83.6 L 105.0 84.6 L 100.2 85.8 L 99.7 84.1 L 104.0 82.1 L 107.8 79.8 L 111.0 77.6 L 113.6 75.4 L 115.7 73.4 L 117.1 71.5 L 118.0 69.9 L 118.4 68.6 L 118.3 67.6 L 118.0 67.0 L 118.0 50.0 Z " />
</g>
</svg>
