<svg xmlns="http://www.w3.org/2000/svg" xmlns:xlink="http://www.w3.org/1999/xlink" version="1.1" baseProfile="full" viewBox="0 0 200 200" width="200" height="200">
<g fill="black">
<path d="M 136.0 113.5 L 139.0 115.5 L 136.0 117.3 L 136.0 135.9 L 163.0 135.9 L 173.0 125.9 L 185.0 135.9 L 185.0 139.9 L 136.0 139.9 L 136.0 181.9 L 124.0 187.9 L 124.0 139.9 L 78.7619047164917 139.9 L 78.0 146.3 L 75.6 154.1 L 71.9 161.1 L 66.9 167.4 L 60.7 172.9 L 53.3 177.6 L 44.9 181.5 L 35.4 184.7 L 24.8 187.0 L 13.1 188.6 L 12.8 186.8 L 23.9 183.4 L 33.7 179.6 L 42.2 175.5 L 49.4 171.1 L 55.2 166.4 L 59.8 161.3 L 63.2 156.0 L 65.5 150.4 L 66.7 144.4 L 66.90769233703614 139.9 L 16.0 139.9 L 16.0 135.9 L 67.0 135.9 L 67.0 111.5 L 79.0 113.5 L 82.0 115.5 L 79.0 117.3 L 79.0 135.9 L 124.0 135.9 L 124.0 111.5 Z M 69.5 67.3 L 68.9 65.5 L 68.0 63.6 L 66.9 61.6 L 65.7 59.6 L 64.2 57.5 L 62.5 55.3 L 60.6 53.0 L 58.3 51.0 L 59.1 49.8 L 15.0 49.8 L 15.0 45.8 L 94.0 45.8 L 94.0 31.0 L 33.0 31.0 L 33.0 27.0 L 94.0 27.0 L 94.0 11.1 L 106.0 13.1 L 109.0 15.1 L 106.0 16.9 L 106.0 27.0 L 145.0 27.0 L 155.0 17.0 L 167.0 27.0 L 167.0 31.0 L 106.0 31.0 L 106.0 45.8 L 166.8181818008423 45.8 L 175.0 36.8 L 185.0 45.8 L 185.0 49.8 L 136.53417720794678 49.8 L 143.1 55.5 L 144.3 58.9 L 140.0045636177063 58.38158531188965 L 139.1 59.2 L 136.9 61.1 L 134.6 63.1 L 132.2 65.2 L 129.5 67.3 L 126.8 69.5 L 123.8 71.7 L 120.84090909957885 73.8 L 163.8181818008423 73.8 L 172.0 64.8 L 182.0 73.8 L 182.0 77.8 L 106.0 77.8 L 106.0 93.9 L 152.0 93.9 L 162.0 83.9 L 174.0 93.9 L 174.0 97.9 L 106.0 97.9 L 106.0 120.9 L 94.0 126.9 L 94.0 97.9 L 26.0 97.9 L 26.0 93.9 L 94.0 93.9 L 94.0 77.8 L 18.0 77.8 L 18.0 73.8 L 73.4 73.8 L 70.3 70.7 L 70.0 69.0 Z M 62.0 51.0 L 64.9 52.2 L 67.5 53.6 L 70.0 55.0 L 72.3 56.6 L 74.5 58.3 L 76.5 60.0 L 78.3 62.0 L 79.9 64.0 L 81.4 66.2 L 81.3 70.7 L 78.29393939971924 73.8 L 117.30645160675049 73.8 L 118.7 72.0 L 120.7 68.8 L 122.7 65.7 L 124.6 62.8 L 126.4 60.1 L 128.1 57.4 L 129.7 54.9 L 131.1 52.6 L 132.4 50.3 L 132.68571424484253 49.8 L 59.839999961853025 49.8 Z " />
</g>
</svg>
