<svg xmlns="http://www.w3.org/2000/svg" xmlns:xlink="http://www.w3.org/1999/xlink" version="1.1" baseProfile="full" viewBox="0 0 200 200" width="200" height="200">
<g fill="black">
<path d="M 78.9 143.7 L 77.99154930114746 148.0 L 124.0 148.0 L 124.0 126.0 L 136.0 128.0 L 139.0 130.0 L 136.0 131.8 L 136.0 148.0 L 163.0 148.0 L 173.0 138.0 L 185.0 148.0 L 185.0 152.0 L 136.0 152.0 L 136.0 180.0 L 124.0 186.0 L 124.0 152.0 L 76.97014923095703 152.0 L 75.0 157.5 L 71.9 163.6 L 68.1 169.2 L 63.6 174.1 L 58.3 178.4 L 52.5 182.0 L 46.0 185.0 L 38.9 187.3 L 31.2 188.8 L 30.7 187.1 L 37.5 183.7 L 43.6 180.2 L 48.9 176.5 L 53.5 172.5 L 57.3 168.3 L 60.5 163.8 L 63.0 159.0 L 65.0 153.8 L 65.41785717010498 152.0 L 16.0 152.0 L 16.0 148.0 L 66.32333335876464 148.0 L 67.0 142.2 L 67.0 126.0 L 79.0 128.0 L 82.0 130.0 L 79.0 131.8 L 79.0 143.0 L 78.56175708770752 143.65736436843872 Z M 71.0 45.0 L 74.0 47.0 L 71.0 48.8 L 71.0 54.6 L 85.77777776718139 54.6 L 92.0 47.6 L 100.0 54.6 L 100.0 58.6 L 71.0 58.6 L 71.0 67.8 L 96.8777777671814 67.8 L 103.1 60.8 L 111.1 67.8 L 111.1 71.8 L 83.59577465057373 71.8 L 90.7 77.0 L 92.2 80.2 L 87.3 80.2 L 86.6 80.9 L 85.2 82.2 L 83.7 83.5 L 82.1 84.9 L 78.9 87.5 L 78.25714282989502 88.0 L 90.11818180084228 88.0 L 98.3 79.0 L 108.3 88.0 L 108.3 92.0 L 71.0 92.0 L 71.0 103.1 L 81.3 103.1 L 91.3 93.1 L 103.3 103.1 L 103.3 107.1 L 71.0 107.1 L 71.0 120.4 L 59.0 126.4 L 59.0 107.1 L 27.8 107.1 L 27.8 103.1 L 59.0 103.1 L 59.0 92.0 L 22.8 92.0 L 22.8 88.0 L 47.48571424484253 88.0 L 45.6 85.8 L 45.8 84.8 L 45.8 82.5 L 45.7 81.3 L 45.1 78.5 L 44.7 77.0 L 44.1 75.4 L 43.5 73.7 L 42.3 72.4 L 42.9 71.8 L 19.5 71.8 L 19.5 67.8 L 59.0 67.8 L 59.0 58.6 L 30.0 58.6 L 30.0 54.6 L 59.0 54.6 L 59.0 43.1 L 32.2 43.1 L 20.2 49.1 L 20.2 12.1 L 32.2 18.1 L 97.2 18.1 L 102.7 13.1 L 113.2 22.1 L 108.2 25.6 L 108.2 43.1 L 97.2 48.6 L 97.2 43.1 L 59.6 43.1 Z M 181.4 19.6 L 181.4 23.6 L 127.4 23.6 L 127.4 46.3 L 164.5 46.3 L 170.5 41.3 L 181.5 50.3 L 176.5 54.3 L 176.5 86.7 L 164.5 92.7 L 164.5 82.7 L 127.4 82.7 L 127.4 107.9 L 161.5 107.9 L 171.5 97.9 L 183.5 107.9 L 183.5 111.9 L 127.4 111.9 L 116.4 117.4 L 116.4 14.1 L 127.4 19.6 L 159.4 19.6 L 169.4 9.6 Z M 44.9 72.3 L 46.7 73.1 L 48.3 74.0 L 49.8 75.0 L 51.2 76.0 L 53.8 78.2 L 55.0 79.5 L 56.1 80.8 L 57.1 82.2 L 56.6 86.7 L 55.08333330154419 88.0 L 75.08947372436523 88.0 L 75.3 87.6 L 75.9 85.5 L 77.1 81.5 L 78.3 77.7 L 78.9 75.9 L 79.4 74.1 L 79.9 72.4 L 80.11176471710205 71.8 L 44.35833330154419 71.8 Z M 127.4 50.3 L 127.4 78.7 L 164.5 78.7 L 164.5 50.3 Z M 32.2 22.1 L 32.2 39.1 L 45.7 39.1 L 45.7 22.1 Z M 57.7 22.1 L 57.7 39.1 L 71.2 39.1 L 71.2 22.1 Z M 83.2 22.1 L 83.2 39.1 L 97.2 39.1 L 97.2 22.1 Z " />
</g>
</svg>
