<svg xmlns="http://www.w3.org/2000/svg" xmlns:xlink="http://www.w3.org/1999/xlink" version="1.1" baseProfile="full" viewBox="0 0 200 200" width="200" height="200">
<g fill="black">
<path d="M 78.4 136.2 L 77.35180721282958 142.0 L 121.4 142.0 L 121.4 113.4 L 133.4 115.4 L 136.4 117.4 L 133.4 119.2 L 133.4 142.0 L 158.5 142.0 L 168.5 132.0 L 180.5 142.0 L 180.5 146.0 L 133.4 146.0 L 133.4 180.6 L 121.4 186.6 L 121.4 146.0 L 76.46578950881958 146.0 L 74.7 152.1 L 71.7 159.1 L 68.0 165.4 L 63.6 171.0 L 58.5 175.8 L 52.8 179.8 L 46.5 183.0 L 39.6 185.3 L 32.1 186.7 L 31.6 185.0 L 38.2 181.8 L 44.0 178.3 L 49.0 174.5 L 53.4 170.3 L 57.0 165.7 L 60.1 160.6 L 62.5 155.1 L 64.4 149.0 L 64.99090909957886 146.0 L 17.4 146.0 L 17.4 142.0 L 65.73835620880126 142.0 L 66.4 135.1 L 66.4 113.4 L 78.4 115.4 L 81.4 117.4 L 78.4 119.2 L 78.4 135.7 L 78.08586387634277 136.17120418548583 Z M 102.0 20.1 L 162.2 20.1 L 168.2 15.1 L 179.2 24.1 L 174.2 28.1 L 174.2 55.7 L 162.2 61.7 L 162.2 53.7 L 102.0 53.7 L 102.0 70.2 L 169.8 70.2 L 175.8 65.2 L 186.8 74.2 L 181.8 78.2 L 181.8 111.6 L 169.8 117.6 L 169.8 105.6 L 102.0 105.6 L 102.0 117.6 L 90.0 123.6 L 90.0 14.1 Z M 14.1 88.4 L 19.5 87.6 L 25.3 86.8 L 31.4 85.9 L 37.9 84.8 L 41.5 84.20895519256592 L 41.5 46.9 L 14.2 46.9 L 14.2 42.9 L 41.5 42.9 L 41.5 14.2 L 53.5 16.2 L 56.5 18.2 L 53.5 20.0 L 53.5 42.9 L 60.6 42.9 L 70.6 32.9 L 82.6 42.9 L 82.6 46.9 L 53.5 46.9 L 53.5 82.20810813903809 L 59.1 81.3 L 66.8 80.0 L 74.9 78.7 L 83.3 77.6 L 83.8 79.4 L 75.8 82.4 L 68.1 85.2 L 60.6 87.6 L 53.4 89.9 L 46.5 92.0 L 39.9 93.9 L 33.6 95.7 L 27.5 97.3 L 21.7 98.8 L 20.300630474090575 99.16279945373535 L 18.8 102.7 L 16.3 100.2 L 12.1 88.7 Z M 102.0 74.2 L 102.0 101.6 L 169.8 101.6 L 169.8 74.2 Z M 102.0 24.1 L 102.0 49.7 L 162.2 49.7 L 162.2 24.1 Z " />
</g>
</svg>
