<svg xmlns="http://www.w3.org/2000/svg" xmlns:xlink="http://www.w3.org/1999/xlink" version="1.1" baseProfile="full" viewBox="0 0 200 200" width="200" height="200">
<g fill="black">
<path d="M 78.9 136.1 L 77.78764047622681 142.7 L 124.0 142.7 L 124.0 111.5 L 136.0 113.5 L 139.0 115.5 L 136.0 117.3 L 136.0 142.7 L 163.0 142.7 L 173.0 132.7 L 185.0 142.7 L 185.0 146.7 L 136.0 146.7 L 136.0 184.6 L 124.0 190.6 L 124.0 146.7 L 76.92891569137574 146.7 L 75.1 153.3 L 72.1 160.8 L 68.3 167.6 L 63.8 173.7 L 58.6 178.9 L 52.6 183.3 L 46.1 186.8 L 38.9 189.3 L 31.2 190.9 L 30.7 189.2 L 37.5 185.8 L 43.5 182.1 L 48.7 178.0 L 53.3 173.5 L 57.1 168.5 L 60.3 163.0 L 62.9 156.9 L 64.8 150.3 L 65.4904109954834 146.7 L 16.0 146.7 L 16.0 142.7 L 66.23037977218628 142.7 L 67.0 135.1 L 67.0 111.5 L 79.0 113.5 L 82.0 115.5 L 79.0 117.3 L 79.0 135.6 L 78.67904510498047 136.0814323425293 Z M 116.3 82.1 L 130.3 82.1 L 131.5 82.0 L 132.4 81.9 L 133.0 81.7 L 133.3 81.5 L 133.5 81.4 L 133.7 81.2 L 133.8 80.8 L 134.0 80.3 L 134.2 79.3 L 134.3 78.1 L 134.3 25.1 L 80.0 25.1 L 80.0 99.2 L 68.0 105.2 L 68.0 15.1 L 80.0 21.1 L 134.3 21.1 L 140.3 16.1 L 151.3 25.1 L 146.3 29.1 L 146.3 78.1 L 146.1 80.7 L 145.7 83.2 L 144.9 85.6 L 143.6 87.8 L 142.0 89.9 L 140.0 91.5 L 137.7 92.7 L 135.3 93.5 L 132.8 94.0 L 130.3 94.1 L 130.3 88.1 L 116.3 85.1 Z " />
</g>
</svg>
