<svg xmlns="http://www.w3.org/2000/svg" xmlns:xlink="http://www.w3.org/1999/xlink" version="1.1" baseProfile="full" viewBox="0 0 200 200" width="200" height="200">
<g fill="black">
<path d="M 76.9 149.8 L 76.0 156.5 L 74.1 162.7 L 71.3 168.4 L 67.6 173.5 L 63.2 178.0 L 58.0 181.9 L 52.1 185.1 L 45.5 187.8 L 38.2 189.7 L 30.2 190.9 L 29.7 189.2 L 37.0 186.1 L 43.3 182.8 L 48.8 179.4 L 53.4 175.8 L 57.2 172.0 L 60.2 168.0 L 62.4 163.8 L 63.9 159.3 L 64.7 154.5 L 65.0 149.4 L 65.0 144.7 L 19.0 144.7 L 19.0 140.7 L 65.0 140.7 L 65.0 106.6 L 77.0 108.6 L 80.0 110.6 L 77.0 112.4 L 77.0 140.7 L 123.0 140.7 L 123.0 106.6 L 135.0 108.6 L 138.0 110.6 L 135.0 112.4 L 135.0 140.7 L 160.0 140.7 L 170.0 130.7 L 182.0 140.7 L 182.0 144.7 L 135.0 144.7 L 135.0 184.6 L 123.0 190.6 L 123.0 144.7 L 77.0 144.7 L 77.0 149.6 L 76.86739721298218 149.798904132843 Z M 158.4 112.1 L 149.8 107.7 L 141.4 102.8 L 133.4 97.4 L 125.6 91.5 L 118.1 85.0 L 110.9 78.0 L 104.2 70.5 L 101.21486206054688 66.55191440582276 L 100.6 67.4 L 93.9 75.0 L 86.6 82.2 L 78.5 89.1 L 69.8 95.5 L 60.3 101.6 L 50.1 107.3 L 39.1 112.7 L 27.5 117.5 L 15.0 121.8 L 14.3 120.1 L 25.9 114.0 L 36.7 107.9 L 46.8 101.7 L 56.1 95.3 L 64.7 88.7 L 72.5 82.0 L 79.6 75.0 L 85.9 67.9 L 91.5 60.5 L 96.3 53.0 L 96.32142553329467 53.01357660293579 L 96.8 52.2 L 106.4 59.4 L 107.9 62.7 L 104.0555555343628 62.63371648788452 L 103.02059469223022 64.06124877929688 L 107.2 67.5 L 114.9 73.7 L 122.6 79.4 L 130.5 84.7 L 138.4 89.6 L 146.5 93.9 L 154.7 97.8 L 163.1 101.3 L 171.6 104.2 L 180.2 106.7 L 188.1 109.1 L 176.5 119.4 L 167.3 116.0 Z M 159.7 69.6 L 150.9 65.3 L 142.4 60.4 L 134.2 55.1 L 126.2 49.2 L 118.6 42.9 L 111.2 36.0 L 104.4 28.5 L 101.21796312332154 24.423015213012697 L 100.4 25.5 L 93.7 33.0 L 86.2 40.1 L 78.0 46.9 L 69.0 53.2 L 59.4 59.2 L 49.0 64.9 L 37.8 70.1 L 25.9 74.9 L 13.3 79.1 L 12.6 77.4 L 24.4 71.4 L 35.4 65.3 L 45.8 59.2 L 55.3 52.8 L 64.1 46.4 L 72.1 39.7 L 79.3 32.8 L 85.8 25.7 L 91.4 18.5 L 95.84361324310302 11.923452377319336 L 95.8 11.9 L 96.9 10.3 L 106.4 17.6 L 107.8 20.9 L 103.99336452484131 20.768736743927 L 103.00787401199341 22.0662992477417 L 107.3 25.5 L 115.1 31.5 L 123.0 37.2 L 131.0 42.4 L 139.1 47.2 L 147.3 51.5 L 155.7 55.3 L 164.2 58.7 L 172.9 61.6 L 181.8 64.1 L 189.8 66.4 L 178.1 76.8 L 168.8 73.5 Z " />
</g>
</svg>
