<svg xmlns="http://www.w3.org/2000/svg" xmlns:xlink="http://www.w3.org/1999/xlink" version="1.1" baseProfile="full" viewBox="0 0 200 200" width="200" height="200">
<g fill="black">
<path d="M 78.9 162.7 L 78.37692308425903 164.3 L 124.0 164.3 L 124.0 148.8 L 136.0 150.8 L 139.0 152.8 L 136.0 154.6 L 136.0 164.3 L 163.0 164.3 L 173.0 154.3 L 185.0 164.3 L 185.0 168.3 L 136.0 168.3 L 136.0 185.2 L 124.0 191.2 L 124.0 168.3 L 76.98260869979859 168.3 L 74.7 172.5 L 71.4 176.7 L 67.4 180.3 L 62.8 183.3 L 57.6 185.8 L 51.9 187.7 L 45.5 189.2 L 38.6 190.0 L 31.1 190.3 L 30.8 188.5 L 37.8 186.3 L 44.1 184.0 L 49.5 181.6 L 54.2 179.0 L 58.1 176.2 L 61.2 173.3 L 63.6 170.3 L 64.69677419662476 168.3 L 16.0 168.3 L 16.0 164.3 L 66.3875 164.3 L 66.5 164.0 L 67.0 160.6 L 67.0 148.8 L 79.0 150.8 L 82.0 152.8 L 79.0 154.6 L 79.0 161.6 L 78.33333330154419 162.6 Z M 131.3 142.6 L 152.6 142.6 L 153.5 142.4 L 154.1 142.2 L 154.4 142.0 L 154.6 141.9 L 154.7 141.7 L 154.9 141.4 L 155.1 140.8 L 155.3 139.9 L 155.3 113.2 L 101.9 113.2 L 101.9 109.2 L 155.3 109.2 L 155.3 96.6 L 158.5 97.13333330154418 L 158.5 94.0 L 39.4 94.0 L 32.8 97.3 L 38.6 100.2 L 83.1 100.2 L 89.1 95.2 L 100.1 104.2 L 95.1 108.2 L 95.1 124.6 L 90.83333330154419 126.73333330154419 L 96.0 131.9 L 96.0 135.9 L 93.12857141494752 135.9 L 100.9 142.7 L 100.9 146.7 L 38.6 146.7 L 38.6 149.6 L 26.6 155.6 L 26.6 94.2 L 27.4 94.6 L 27.4 76.86744184494019 L 23.9 77.6 L 19.3 78.3 L 14.6 79.2 L 14.1 77.5 L 18.4 75.5 L 22.4 73.3 L 26.1 71.3 L 27.4 70.4970588684082 L 27.4 70.0 L 27.844736862182618 70.22236843109131 L 29.5 69.2 L 32.6 67.2 L 35.4 65.2 L 37.9 63.3 L 40.1 61.3 L 41.810000038146974 59.494999980926515 L 40.0 60.4 L 40.0 12.5 L 52.0 14.5 L 55.0 16.5 L 52.0 18.3 L 52.0 26.1 L 148.0 26.1 L 148.0 12.5 L 160.0 14.5 L 163.0 16.5 L 160.0 18.3 L 160.0 51.182300853729245 L 162.9 50.9 L 162.97531833648682 51.90424499511719 L 175.1 62.1 L 175.6 65.0 L 170.92400074005127 62.395645999908446 L 163.8 62.9 L 155.86956520080565 63.17826089859009 L 159.6 63.8 L 163.4 64.4 L 166.8 65.2 L 170.0 65.9 L 172.9 66.7 L 175.5 67.6 L 177.9 68.5 L 180.4 72.3 L 179.7 76.8 L 175.9 79.4 L 174.45205049514772 79.14258670806885 L 175.5 80.0 L 170.5 84.0 L 170.5 94.0 L 162.8 97.85 L 167.3 98.6 L 170.3 100.6 L 167.3 102.4 L 167.3 109.2 L 171.87777776718139 109.2 L 178.1 102.2 L 186.1 109.2 L 186.1 113.2 L 167.3 113.2 L 167.3 138.6 L 167.2 141.2 L 166.7 143.7 L 165.9 146.1 L 164.7 148.4 L 163.1 150.4 L 161.0 152.0 L 158.8 153.2 L 156.4 154.0 L 153.9 154.5 L 151.3 154.6 L 151.3 148.6 L 131.3 145.6 Z M 38.6 135.9 L 38.6 142.7 L 86.6777777671814 142.7 L 92.72222223281861 135.9 Z M 129.1 131.8 L 127.9 130.2 L 126.6 128.5 L 125.1 126.8 L 123.5 125.2 L 121.7 123.5 L 119.8 121.8 L 117.8 120.0 L 115.4 118.7 L 116.1 117.0 L 118.7 117.9 L 121.5 118.3 L 124.2 119.0 L 126.7 119.8 L 129.2 120.7 L 131.6 121.8 L 133.8 122.9 L 136.0 124.2 L 138.1 125.6 L 140.1 127.1 L 141.5 131.5 L 139.5 135.6 L 135.2 137.0 L 131.1 135.0 L 130.2 133.4 Z M 38.6 124.6 L 38.6 131.9 L 85.5 131.9 L 88.5 127.9 L 83.1 130.6 L 83.1 124.6 Z M 38.6 114.4 L 38.6 120.6 L 83.1 120.6 L 83.1 114.4 Z M 38.6 104.2 L 38.6 110.4 L 83.1 110.4 L 83.1 104.2 Z M 39.4 80.0 L 39.4 90.0 L 71.1 90.0 L 71.1 80.0 Z M 83.1 80.0 L 83.1 90.0 L 114.8 90.0 L 114.8 80.0 Z M 126.8 80.0 L 126.8 90.0 L 158.5 90.0 L 158.5 80.0 Z M 51.8 66.2 L 52.5 69.7 L 48.30205335617065 68.5952772140503 L 46.2 69.9 L 43.0 71.5 L 39.7 73.0 L 36.1 74.3 L 36.040625 74.3203125 L 39.4 76.0 L 100.43999996185303 76.0 L 100.5 75.7 L 100.2 74.9 L 99.5 73.9 L 98.4 72.8 L 97.0 71.6 L 95.3 70.4 L 93.2 69.0 L 90.9 67.6 L 88.3 66.1 L 85.3 65.1 L 85.39411764144897 64.7 L 79.8 64.7 L 67.0 64.6 L 54.1 64.2 L 49.80197124481201 64.0046350479126 Z M 140.7 63.7 L 128.9 64.1 L 116.9 64.4 L 104.7 64.6 L 97.73692312240601 64.65615386962891 L 99.8 65.0 L 102.0 65.4 L 104.0 65.9 L 105.9 66.5 L 107.8 67.3 L 109.5 68.4 L 110.9 72.8 L 109.26097564697265 76.0 L 158.5 76.0 L 162.45489358901978 72.70425529479981 L 160.9 71.9 L 157.6 70.3 L 153.9 68.6 L 149.8 66.9 L 145.5 64.9 L 141.98748283386232 63.655983448028564 Z M 52.0 45.1 L 52.0 54.4 L 44.481853294372556 58.15907335281372 L 47.18427267074585 61.12839832305908 L 54.0 60.4 L 66.8 59.2 L 79.5 58.1 L 92.0 57.1 L 104.3 56.1 L 116.4 55.1 L 128.3 54.1 L 140.1 53.0 L 148.0 52.31304349899292 L 148.0 45.1 Z M 52.0 30.1 L 52.0 41.1 L 148.0 41.1 L 148.0 30.1 Z " />
</g>
</svg>
