<svg xmlns="http://www.w3.org/2000/svg" xmlns:xlink="http://www.w3.org/1999/xlink" version="1.1" baseProfile="full" viewBox="0 0 200 200" width="200" height="200">
<g fill="black">
<path d="M 78.9 135.3 L 77.8235294342041 141.4 L 124.0 141.4 L 124.0 111.7 L 136.0 113.7 L 139.0 115.7 L 136.0 117.5 L 136.0 141.4 L 163.0 141.4 L 173.0 131.4 L 185.0 141.4 L 185.0 145.4 L 136.0 145.4 L 136.0 181.2 L 124.0 187.2 L 124.0 145.4 L 76.93417720794677 145.4 L 75.1 151.7 L 72.1 158.9 L 68.3 165.4 L 63.7 171.1 L 58.5 176.1 L 52.6 180.3 L 46.0 183.6 L 38.9 185.9 L 31.2 187.4 L 30.7 185.7 L 37.5 182.4 L 43.5 178.8 L 48.8 174.9 L 53.3 170.6 L 57.2 165.8 L 60.3 160.6 L 62.9 154.8 L 64.9 148.5 L 65.49264707565308 145.4 L 16.0 145.4 L 16.0 141.4 L 66.23157892227172 141.4 L 67.0 134.1 L 67.0 111.7 L 79.0 113.7 L 82.0 115.7 L 79.0 117.5 L 79.0 134.7 L 78.61889762878418 135.27165355682374 Z M 145.9 86.5 L 145.9 90.5 L 59.0 90.5 L 59.0 86.5 L 123.9 86.5 L 133.9 76.5 Z M 159.8 71.3 L 151.8 67.3 L 144.6 62.8 L 138.3 57.8 L 133.0 52.3 L 128.7 46.4 L 125.4 40.1 L 123.2 33.5 L 122.4043478012085 27.4 L 64.0 27.4 L 64.0 23.4 L 114.0 23.4 L 124.0 13.4 L 136.0 23.4 L 136.0 27.4 L 124.72068967819214 27.4 L 127.1 32.0 L 130.5 37.3 L 134.4 42.1 L 139.0 46.5 L 144.2 50.5 L 150.1 54.1 L 156.8 57.4 L 164.2 60.4 L 172.5 63.0 L 181.6 65.2 L 190.1 67.4 L 178.3 78.0 L 168.6 74.9 Z M 78.6 39.4 L 80.1 42.6 L 76.17241382598877 42.6 L 74.2 45.2 L 69.3 50.6 L 63.9 55.6 L 58.0 60.0 L 51.6 64.0 L 44.7 67.4 L 37.3 70.4 L 29.4 72.9 L 21.0 74.7 L 12.1 76.0 L 11.8 74.2 L 20.0 71.1 L 27.6 67.8 L 34.7 64.4 L 41.1 60.7 L 47.1 56.8 L 52.4 52.6 L 57.2 48.2 L 61.4 43.4 L 65.1 38.4 L 67.80588235855103 34.0029411315918 L 67.8 34.0 L 68.8 32.3 Z " />
</g>
</svg>
