<svg xmlns="http://www.w3.org/2000/svg" xmlns:xlink="http://www.w3.org/1999/xlink" version="1.1" baseProfile="full" viewBox="0 0 200 200" width="200" height="200">
<g fill="black">
<path d="M 62.0 121.1 L 65.0 123.1 L 62.0 124.9 L 62.0 146.4 L 74.0 146.4 L 84.0 136.4 L 96.0 146.4 L 96.0 150.4 L 61.88275861740112 150.4 L 60.9 156.1 L 59.3 161.7 L 57.1 166.8 L 54.3 171.5 L 51.1 175.7 L 47.2 179.5 L 42.9 182.7 L 38.2 185.4 L 32.9 187.5 L 27.3 189.1 L 26.6 187.4 L 31.3 184.3 L 35.3 181.0 L 38.9 177.7 L 41.9 174.3 L 44.3 170.7 L 46.4 166.9 L 47.9 162.9 L 49.0 158.7 L 49.7 154.2 L 49.9375 150.4 L 15.0 150.4 L 15.0 146.4 L 50.0 146.4 L 50.0 119.1 Z M 148.0 121.1 L 151.0 123.1 L 148.0 124.9 L 148.0 146.4 L 163.0 146.4 L 173.0 136.4 L 185.0 146.4 L 185.0 150.4 L 148.0 150.4 L 148.0 181.6 L 136.0 187.6 L 136.0 150.4 L 102.0 150.4 L 102.0 146.4 L 136.0 146.4 L 136.0 119.1 Z M 125.5 118.0 L 123.4 118.8 L 119.0 120.0 L 116.8 120.4 L 114.5 120.7 L 112.3 120.9 L 110.0 121.0 L 110.0 115.0 L 90.0 112.0 L 90.0 109.0 L 110.0 109.0 L 111.6 108.9 L 113.3 108.8 L 114.9 108.6 L 116.4 108.3 L 118.0 107.9 L 121.0 106.9 L 122.5 106.2 L 123.9 105.5 L 125.4 104.6 L 126.2 103.8 L 127.9 101.1 L 129.7 96.7 L 130.03709678649903 95.6 L 48.63134326934814 95.6 L 45.9 108.6 L 33.0 112.0 L 43.978542518615725 59.6 L 16.0 59.6 L 16.0 55.6 L 44.816599178314206 55.6 L 53.7 13.2 L 62.68192768096924 20.3 L 141.0 20.3 L 147.0 15.3 L 158.0 24.3 L 153.0 27.3 L 152.52617444992066 27.49742727279663 L 151.7 38.1 L 150.3 52.0 L 149.83920001983643 55.6 L 162.0 55.6 L 172.0 45.6 L 184.0 55.6 L 184.0 59.6 L 149.3272000312805 59.6 L 148.7 64.5 L 147.0 75.6 L 145.2 85.3 L 143.7 91.6 L 156.0 91.6 L 166.0 81.6 L 178.0 91.6 L 178.0 95.6 L 142.60285711288452 95.6 L 141.0 100.7 L 138.6 106.5 L 135.6 111.3 L 131.6 114.9 L 127.6 117.1 Z M 56.19506311416626 59.6 L 49.47175664901734 91.6 L 131.26290321350098 91.6 L 131.6 90.5 L 133.5 82.8 L 135.2 73.6 L 136.8 62.9 L 137.20573768615722 59.6 Z M 98.1 81.2 L 96.6 79.3 L 94.8 77.3 L 92.6 75.3 L 90.1 73.4 L 87.2 71.5 L 84.1 69.6 L 80.6 67.6 L 76.7 66.1 L 77.1 64.3 L 81.4 65.0 L 85.5 65.5 L 89.4 66.3 L 93.1 67.4 L 96.5 68.7 L 99.7 70.2 L 102.7 71.9 L 105.5 73.9 L 108.1 76.2 L 110.4 78.7 L 111.1 83.2 L 108.6 87.0 L 104.1 87.7 L 100.3 85.2 L 99.3 83.2 Z M 63.61171064376831 24.3 L 57.035476493835446 55.6 L 137.69754095077514 55.6 L 138.3 50.7 L 139.7 37.0 L 140.78618421554566 24.3 Z M 102.9 45.4 L 101.8 43.7 L 100.4 41.9 L 98.6 40.1 L 96.5 38.3 L 94.0 36.5 L 91.3 34.6 L 88.2 32.8 L 84.7 31.3 L 85.2 29.6 L 89.0 30.3 L 92.7 30.8 L 96.2 31.6 L 99.5 32.5 L 102.6 33.7 L 105.5 35.1 L 108.1 36.7 L 110.6 38.5 L 112.8 40.6 L 114.8 43.0 L 115.2 47.5 L 112.4 51.1 L 107.8 51.5 L 104.2 48.7 L 103.7 47.1 Z " />
</g>
</svg>
