<svg xmlns="http://www.w3.org/2000/svg" xmlns:xlink="http://www.w3.org/1999/xlink" version="1.1" baseProfile="full" viewBox="0 0 200 200" width="200" height="200">
<g fill="black">
<path d="M 78.9 147.7 L 77.97246379852295 151.7 L 124.0 151.7 L 124.0 128.8 L 136.0 130.8 L 139.0 132.8 L 136.0 134.6 L 136.0 151.7 L 163.0 151.7 L 173.0 141.7 L 185.0 151.7 L 185.0 155.7 L 136.0 155.7 L 136.0 182.7 L 124.0 188.7 L 124.0 155.7 L 76.9046875 155.7 L 75.0 161.0 L 71.9 166.8 L 68.0 172.0 L 63.4 176.5 L 58.1 180.3 L 52.3 183.4 L 45.8 185.9 L 38.8 187.5 L 31.1 188.5 L 30.8 186.7 L 37.7 183.9 L 43.8 180.9 L 49.1 177.7 L 53.7 174.2 L 57.5 170.4 L 60.6 166.3 L 63.1 161.9 L 65.0 157.1 L 65.35 155.7 L 16.0 155.7 L 16.0 151.7 L 66.32456140518188 151.7 L 67.0 146.2 L 67.0 128.8 L 79.0 130.8 L 82.0 132.8 L 79.0 134.6 L 79.0 147.0 L 78.56175708770752 147.65736436843872 Z M 99.0 75.0 L 102.0 77.0 L 98.39037437438965 79.16577539443969 L 97.8 83.2 L 96.25333337783813 87.2 L 148.0 87.2 L 154.0 82.2 L 165.0 91.2 L 160.0 94.2 L 159.55407094955444 94.38580379486083 L 159.1 98.2 L 158.3 102.2 L 157.2 106.0 L 155.9 109.4 L 154.3 112.6 L 152.4 115.5 L 150.1 118.1 L 147.5 120.3 L 144.6 122.0 L 142.5 123.0 L 140.5 123.9 L 138.4 124.6 L 136.2 125.3 L 134.1 125.9 L 129.7 126.7 L 127.5 126.9 L 125.2 127.1 L 123.0 127.2 L 123.0 121.2 L 103.0 118.2 L 103.0 115.2 L 123.0 115.2 L 126.4 115.0 L 128.0 114.8 L 129.7 114.5 L 131.3 114.2 L 132.9 113.8 L 134.5 113.3 L 136.1 112.7 L 137.7 112.0 L 139.2 111.3 L 140.5 110.5 L 141.7 109.5 L 142.9 108.2 L 143.9 106.6 L 144.9 104.6 L 145.8 102.3 L 146.6 99.5 L 147.2 96.3 L 147.7 92.8 L 147.82307691574096 91.2 L 94.56911764144897 91.2 L 90.4 97.5 L 84.4 103.5 L 77.1 108.7 L 68.4 113.2 L 58.4 117.0 L 47.0 120.2 L 34.2 122.7 L 20.1 124.4 L 19.8 122.7 L 33.4 119.0 L 45.5 115.1 L 56.0 110.9 L 65.0 106.4 L 72.3 101.7 L 78.1 96.7 L 82.4 91.5 L 85.2 86.2 L 86.7 80.8 L 87.0 75.0 L 87.0 74.8 L 17.0 74.8 L 17.0 70.8 L 94.0 70.8 L 94.0 55.4 L 106.0 57.4 L 109.0 59.4 L 106.0 61.2 L 106.0 70.8 L 164.8181818008423 70.8 L 173.0 61.8 L 183.0 70.8 L 183.0 74.8 L 98.0 74.8 Z M 159.1 53.7 L 150.4 50.2 L 142.0 46.3 L 133.8 42.0 L 126.0 37.4 L 118.4 32.4 L 111.2 27.0 L 104.4 21.2 L 102.49608135223389 19.234664630889892 L 102.41852960586547 19.213891887664794 L 98.1 23.0 L 90.2 28.9 L 82.0 34.5 L 73.2 39.7 L 64.0 44.4 L 54.4 48.8 L 44.3 52.7 L 33.7 56.2 L 22.7 59.1 L 11.2 61.5 L 10.7 59.8 L 21.5 55.5 L 31.9 51.1 L 41.8 46.6 L 51.1 41.9 L 60.0 37.0 L 68.4 31.7 L 76.3 26.2 L 83.7 20.4 L 90.6 14.4 L 97.0 8.0 L 97.03638610839843 8.037252521514892 L 97.3 7.8 L 105.4 16.6 L 105.47265243530273 16.973640823364256 L 106.9 17.8 L 114.5 22.1 L 122.2 26.2 L 130.0 30.0 L 137.9 33.6 L 146.1 36.9 L 154.4 39.9 L 162.9 42.5 L 171.6 44.9 L 180.6 47.0 L 189.1 49.1 L 177.3 59.8 L 168.1 56.9 Z M 133.0 45.9 L 133.0 49.9 L 64.0 49.9 L 64.0 45.9 L 111.0 45.9 L 121.0 35.9 Z " />
</g>
</svg>
