<svg xmlns="http://www.w3.org/2000/svg" xmlns:xlink="http://www.w3.org/1999/xlink" version="1.1" baseProfile="full" viewBox="0 0 200 200" width="200" height="200">
<g fill="black">
<path d="M 122.6 152.6 L 121.9 156.1 L 146.2 156.1 L 146.2 135.7 L 158.2 137.7 L 161.2 139.7 L 158.2 141.5 L 158.2 156.1 L 164.6 156.1 L 174.6 146.1 L 186.6 156.1 L 186.6 160.1 L 158.2 160.1 L 158.2 183.7 L 146.2 189.7 L 146.2 160.1 L 120.99821424484253 160.1 L 119.9 164.2 L 117.8 169.4 L 115.2 174.0 L 112.1 178.1 L 108.6 181.6 L 104.6 184.5 L 100.3 186.8 L 95.5 188.3 L 90.6 189.2 L 90.1 187.5 L 94.2 185.1 L 97.7 182.5 L 100.7 179.6 L 103.3 176.6 L 105.4 173.3 L 107.2 169.7 L 108.6 165.7 L 109.6 161.4 L 109.79361705780029 160.1 L 81.0 160.1 L 81.0 156.1 L 110.33461542129517 156.1 L 110.6 151.5 L 110.6 135.7 L 122.6 137.7 L 125.6 139.7 L 122.6 141.5 L 122.6 152.1 L 122.28586387634277 152.57120418548584 Z M 42.3 166.3 L 46.1 164.44871797561646 L 46.1 99.06000003814697 L 43.01219110488891 100.91268529891968 L 42.6 109.5 L 41.4 121.3 L 39.7 132.4 L 37.3 142.8 L 34.4 152.4 L 30.8 161.3 L 26.6 169.5 L 21.8 176.8 L 16.4 183.2 L 10.3 188.6 L 9.0 187.3 L 13.4 180.8 L 17.3 173.9 L 20.8 166.5 L 23.7 158.6 L 26.2 150.0 L 28.3 140.7 L 29.8 130.8 L 30.8 120.2 L 31.2 108.9 L 31.2 95.5 L 28.7 95.5 L 28.7 107.5 L 16.7 113.5 L 16.7 23.4 L 28.7 29.4 L 59.1 29.4 L 65.1 24.4 L 76.1 33.4 L 71.1 37.4 L 71.1 101.5 L 59.1 107.5 L 59.1 95.5 L 58.1 95.5 L 58.1 158.3 L 60.9 156.9 L 64.5 155.2 L 71.5 152.0 L 75.0 150.7 L 78.4 149.2 L 79.4 150.7 L 74.1 156.0 L 71.3 158.6 L 68.3 161.1 L 65.3 163.7 L 62.1 166.2 L 58.9 168.8 L 58.1 169.43030300140381 L 58.1 170.0 L 57.37692308425903 170.0 L 55.6 171.4 L 52.2 173.9 L 52.066707611083984 173.99901723861694 L 51.9 178.0 L 48.7 176.5 L 40.6 167.4 Z M 105.3 123.1 L 116.3 123.1 L 117.0 122.9 L 117.4 122.8 L 117.7 122.5 L 117.9 122.2 L 118.1 121.8 L 118.4 121.0 L 118.5 120.0 L 118.6 118.6 L 118.6 106.6 L 97.0 106.6 L 97.0 128.4 L 85.0 134.4 L 85.0 64.5 L 97.0 70.5 L 118.6 70.5 L 124.1 65.5 L 134.6 74.5 L 129.6 78.0 L 129.6 118.6 L 129.5 121.1 L 129.1 123.4 L 128.4 125.7 L 127.4 127.8 L 126.0 129.7 L 124.3 131.4 L 122.2 132.7 L 120.0 133.5 L 117.7 134.0 L 115.3 134.1 L 115.3 128.6 L 105.3 125.9 Z M 185.3 105.3 L 187.3 105.3 L 185.3 122.3 L 188.3 124.3 L 190.3 127.3 L 188.3 130.3 L 185.3 132.3 L 154.1 132.3 L 151.6 132.2 L 149.2 131.8 L 146.9 131.1 L 144.8 130.0 L 142.9 128.5 L 141.3 126.6 L 140.1 124.5 L 139.2 122.2 L 138.8 119.8 L 138.6 117.3 L 138.6 56.0 L 149.6 61.5 L 171.8 61.5 L 171.8 46.4 L 150.1 46.4 L 138.1 52.4 L 138.1 12.5 L 150.1 14.5 L 153.1 16.5 L 150.1 18.3 L 150.1 26.6 L 168.4181818008423 26.6 L 176.6 17.6 L 186.6 26.6 L 186.6 30.6 L 150.1 30.6 L 150.1 42.4 L 171.8 42.4 L 177.8 37.4 L 188.8 46.4 L 183.8 50.4 L 183.8 65.5 L 173.12142858505248 70.83928575515748 L 180.3 77.3 L 180.3 81.3 L 149.6 81.3 L 149.6 91.7 L 162.11818180084228 91.7 L 170.3 82.7 L 180.3 91.7 L 180.3 95.7 L 149.6 95.7 L 149.6 106.1 L 162.11818180084228 106.1 L 170.3 97.1 L 180.3 106.1 L 180.3 110.1 L 149.6 110.1 L 149.6 118.5 L 149.7 119.5 L 149.9 120.2 L 150.1 120.7 L 150.3 121.0 L 150.6 121.3 L 151.0 121.6 L 151.7 121.9 L 152.7 122.1 L 154.1 122.3 L 180.3 122.3 Z M 97.0 90.9 L 97.0 102.6 L 118.6 102.6 L 118.6 90.9 Z M 46.1 95.5 L 35.7 95.5 L 43.2 97.0 L 46.1 98.9333333015442 Z M 28.7 33.4 L 28.7 91.5 L 59.1 91.5 L 59.1 33.4 Z M 97.0 74.5 L 97.0 86.9 L 118.6 86.9 L 118.6 74.5 Z M 149.6 65.5 L 149.6 77.3 L 162.11818180084228 77.3 L 170.3 68.3 L 171.8 69.65 L 171.8 65.5 Z M 92.3 46.7 L 91.9 43.3 L 91.5 41.5 L 91.1 39.8 L 90.1 36.2 L 89.1 34.8 L 90.4 33.5 L 91.8 34.9 L 93.5 35.9 L 95.1 37.1 L 96.7 38.5 L 98.1 39.9 L 99.5 41.5 L 100.8 43.2 L 102.0 45.0 L 103.1 46.9 L 104.2 48.9 L 103.4 53.4 L 99.92857141494751 56.1 L 112.06000003814697 56.1 L 112.5 55.1 L 113.1 52.3 L 113.7 49.7 L 114.3 47.2 L 114.9 44.8 L 115.4 42.4 L 115.8 40.1 L 116.2 37.9 L 116.6 35.8 L 116.70474996566773 34.752499961853026 L 116.5 34.7 L 117.3 32.3 L 128.2 37.7 L 130.4 40.5 L 125.95903615951538 41.434939765930174 L 125.8 41.7 L 124.4 43.7 L 121.6 47.9 L 120.0 49.9 L 118.3 52.0 L 116.5 54.1 L 114.69047622680664 56.1 L 121.77777776718139 56.1 L 128.0 49.1 L 136.0 56.1 L 136.0 60.1 L 79.7 60.1 L 79.7 56.1 L 99.15714282989502 56.1 L 95.3 55.5 L 92.5 51.8 L 92.5 50.1 Z M 81.0 28.0 L 101.8 28.0 L 101.8 12.5 L 113.8 14.5 L 116.8 16.5 L 113.8 18.3 L 113.8 28.0 L 116.51818180084229 28.0 L 124.7 19.0 L 134.7 28.0 L 134.7 32.0 L 81.0 32.0 Z " />
</g>
</svg>
