<svg xmlns="http://www.w3.org/2000/svg" xmlns:xlink="http://www.w3.org/1999/xlink" version="1.1" baseProfile="full" viewBox="0 0 200 200" width="200" height="200">
<g fill="black">
<path d="M 78.9 136.6 L 77.61999998092651 143.0 L 124.0 143.0 L 124.0 120.0 L 136.0 122.0 L 139.0 124.0 L 136.0 125.8 L 136.0 143.0 L 164.0 143.0 L 174.0 133.0 L 186.0 143.0 L 186.0 147.0 L 136.0 147.0 L 136.0 181.0 L 124.0 187.0 L 124.0 147.0 L 76.46056337356568 147.0 L 75.1 151.2 L 72.0 157.7 L 68.2 163.6 L 63.7 169.0 L 58.5 173.7 L 52.6 177.8 L 46.1 181.2 L 39.0 183.9 L 31.2 185.8 L 30.7 184.1 L 37.4 180.4 L 43.5 176.5 L 48.8 172.4 L 53.4 168.1 L 57.2 163.4 L 60.4 158.5 L 63.0 153.3 L 64.9 147.7 L 65.06333332061767 147.0 L 17.0 147.0 L 17.0 143.0 L 65.99666662216187 143.0 L 66.3 141.7 L 67.0 135.3 L 67.0 120.0 L 79.0 122.0 L 82.0 124.0 L 79.0 125.8 L 79.0 136.0 L 78.620365524292 136.56945171356202 Z M 66.6 111.4 L 80.6 111.4 L 81.5 111.3 L 82.2 111.2 L 83.0 110.8 L 83.2 110.5 L 83.4 110.0 L 83.6 109.3 L 83.7 108.2 L 83.8 106.9 L 83.8 65.39230766296387 L 82.6 67.1 L 78.1 67.9 L 74.3 65.3 L 73.5 63.4 L 72.6 61.5 L 71.5 59.6 L 70.2 57.6 L 68.7 55.5 L 67.0 53.5 L 65.1 51.3 L 63.1 49.2 L 61.0 46.9 L 60.262365627288816 46.360959434509276 L 59.3 49.1 L 56.1 55.7 L 52.2 61.5 L 47.7 66.4 L 42.6 70.4 L 37.0 73.4 L 33.6 74.44193544387818 L 33.6 101.63684206008911 L 34.4 100.9 L 37.9 97.3 L 41.2 93.7 L 44.2 89.9 L 46.9 86.0 L 49.3 81.8 L 51.5 77.4 L 53.4 72.7 L 55.0 67.8 L 56.06710901260376 63.6136492729187 L 56.0 63.6 L 56.8 61.1 L 67.8 66.0 L 70.2 68.7 L 66.44079751968384 69.6892638206482 L 65.7 71.7 L 63.2 77.1 L 60.9746335029602 80.936838722229 L 61.8 81.3 L 64.6 82.1 L 67.2 83.1 L 69.8 84.3 L 72.2 85.6 L 74.6 87.1 L 76.8 88.7 L 79.0 90.5 L 81.0 92.4 L 82.9 94.5 L 83.7 99.0 L 81.1 102.8 L 76.6 103.6 L 72.8 101.0 L 72.0 99.0 L 71.0 97.0 L 69.9 95.0 L 68.7 93.1 L 67.3 91.2 L 65.9 89.2 L 62.5 85.4 L 60.7 83.4 L 59.82076330184937 82.82658472061158 L 57.2 86.8 L 53.7 91.1 L 49.8 95.0 L 45.7 98.5 L 41.3 101.5 L 36.5 104.0 L 33.6 105.13725490570069 L 33.6 115.7 L 21.6 121.7 L 21.6 24.0 L 33.6 30.0 L 53.42345676422119 30.0 L 53.8 23.9 L 53.9 15.1 L 53.9 12.7 L 65.9 15.2 L 68.9 17.3 L 65.61048374176025 19.170509243011473 L 65.2 24.8 L 64.43181819915772 30.0 L 83.8 30.0 L 89.3 25.0 L 99.8 34.0 L 94.8 37.5 L 94.8 106.9 L 94.7 109.3 L 94.3 111.7 L 93.7 113.9 L 92.7 116.1 L 91.3 118.0 L 89.5 119.7 L 87.4 120.9 L 85.2 121.8 L 82.9 122.2 L 80.6 122.4 L 80.6 116.9 L 66.6 114.1 Z M 148.6 109.0 L 162.6 109.0 L 163.8 108.9 L 164.7 108.7 L 165.3 108.6 L 165.7 108.4 L 165.8 108.2 L 166.0 108.0 L 166.2 107.7 L 166.4 107.1 L 166.5 106.2 L 166.6 105.0 L 166.6 64.08000001907348 L 165.6 65.6 L 161.1 66.5 L 157.3 64.0 L 156.4 62.1 L 155.4 60.2 L 154.2 58.2 L 152.8 56.3 L 151.3 54.2 L 149.5 52.1 L 147.5 50.0 L 143.1 45.6 L 142.2473117828369 44.96837911605835 L 141.2 47.8 L 137.8 54.3 L 133.8 60.1 L 129.2 65.0 L 123.9 68.9 L 118.0 71.9 L 113.8 73.1 L 113.8 100.5875 L 115.5 99.1 L 119.2 95.5 L 122.7 91.9 L 125.8 88.1 L 128.7 84.2 L 131.2 80.1 L 133.4 75.7 L 135.4 71.1 L 137.1 66.2 L 138.22408924102783 62.10510368347168 L 138.2 62.1 L 138.43636360168458 61.331818199157716 L 138.5 61.1 L 138.5070336341858 61.102140712738034 L 139.0 59.5 L 150.0 64.6 L 152.3 67.4 L 148.49285955429076 68.33508710861206 L 147.7 70.3 L 145.1 75.6 L 142.97804880142212 79.25853662490844 L 143.9 79.6 L 146.8 80.4 L 149.5 81.4 L 152.1 82.5 L 154.6 83.9 L 157.0 85.3 L 159.4 86.9 L 161.6 88.7 L 163.7 90.6 L 165.7 92.7 L 166.5 97.1 L 164.1 101.0 L 159.6 101.8 L 155.7 99.4 L 154.8 97.4 L 153.8 95.4 L 152.6 93.4 L 151.3 91.5 L 149.9 89.6 L 148.3 87.6 L 146.6 85.7 L 144.7 83.8 L 142.8 81.8 L 141.8254729270935 81.12206811904908 L 138.9 85.2 L 135.3 89.5 L 131.3 93.4 L 127.1 96.8 L 122.5 99.8 L 117.6 102.3 L 113.8 103.66226415634155 L 113.8 114.1 L 102.8 119.6 L 102.8 23.3 L 113.8 28.8 L 135.4425000190735 28.8 L 135.9 22.7 L 136.0 14.0 L 136.0 11.7 L 148.0 14.2 L 151.0 16.2 L 147.71182746887206 18.06974515914917 L 147.3 23.6 L 146.47272729873657 28.8 L 166.6 28.8 L 172.6 23.8 L 183.6 32.8 L 178.6 36.8 L 178.6 105.0 L 178.5 107.5 L 178.0 110.0 L 177.2 112.4 L 176.0 114.7 L 174.3 116.7 L 172.3 118.4 L 170.1 119.6 L 167.6 120.4 L 165.2 120.8 L 162.6 121.0 L 162.6 115.0 L 148.6 112.0 Z M 33.6 34.0 L 33.6 71.1208333015442 L 35.0 70.1 L 39.2 66.3 L 42.9 62.0 L 45.9 57.2 L 48.5 51.9 L 50.6 45.9 L 52.2 39.3 L 52.998630142211915 34.0 Z M 113.8 32.8 L 113.8 70.14705886840821 L 116.2 68.5 L 120.6 64.7 L 124.4 60.5 L 127.6 55.7 L 130.3 50.4 L 132.5 44.5 L 134.2 38.0 L 134.98356161117553 32.8 Z M 63.801234531402585 34.0 L 61.9 41.7 L 61.02058820724487 44.2029411315918 L 62.3 44.8 L 65.3 45.8 L 68.2 47.1 L 71.0 48.4 L 73.6 49.9 L 76.0 51.5 L 78.3 53.2 L 80.5 54.9 L 82.5 56.8 L 83.8 58.23684206008911 L 83.8 34.0 Z M 145.8012345314026 32.8 L 143.9 40.5 L 143.03856163024903 42.829074192047116 L 144.4 43.4 L 147.5 44.4 L 150.5 45.7 L 153.4 47.0 L 156.0 48.4 L 158.6 50.0 L 161.0 51.7 L 163.2 53.4 L 165.3 55.3 L 166.6 56.66842107772827 L 166.6 32.8 Z " />
</g>
</svg>
