<svg xmlns="http://www.w3.org/2000/svg" xmlns:xlink="http://www.w3.org/1999/xlink" version="1.1" baseProfile="full" viewBox="0 0 200 200" width="200" height="200">
<g fill="black">
<path d="M 78.9 125.5 L 77.69032258987427 133.0 L 124.0 133.0 L 124.0 104.0 L 136.0 106.0 L 139.0 108.0 L 136.0 109.8 L 136.0 133.0 L 163.0 133.0 L 173.0 123.0 L 185.0 133.0 L 185.0 137.0 L 136.0 137.0 L 136.0 177.0 L 124.0 183.0 L 124.0 137.0 L 76.85 137.0 L 75.2 143.6 L 72.2 151.7 L 68.4 159.2 L 64.0 166.1 L 58.8 172.2 L 52.9 177.6 L 46.4 182.2 L 39.2 185.9 L 31.3 188.8 L 30.6 187.1 L 37.3 182.6 L 43.2 177.8 L 48.5 172.7 L 53.0 167.2 L 56.9 161.3 L 60.2 155.0 L 62.8 148.2 L 64.8 140.8 L 65.47341775894165 137.0 L 16.0 137.0 L 16.0 133.0 L 66.18227844238281 133.0 L 66.2 132.9 L 67.0 124.4 L 67.0 104.0 L 79.0 106.0 L 82.0 108.0 L 79.0 109.8 L 79.0 125.0 L 78.6802110671997 125.47968339920044 Z M 138.0 88.0 L 150.0 88.0 L 151.2 87.9 L 152.1 87.7 L 153.0 87.4 L 153.4 87.0 L 153.7 86.1 L 153.9 85.2 L 154.0 84.0 L 154.0 52.0 L 108.0 52.0 L 108.0 92.0 L 96.0 98.0 L 96.0 52.0 L 51.0 52.0 L 51.0 95.0 L 39.0 101.0 L 39.0 42.0 L 51.0 48.0 L 96.0 48.0 L 96.0 27.0 L 22.0 27.0 L 22.0 23.0 L 160.0 23.0 L 170.0 13.0 L 182.0 23.0 L 182.0 27.0 L 108.0 27.0 L 108.0 48.0 L 154.0 48.0 L 160.0 43.0 L 171.0 52.0 L 166.0 56.0 L 166.0 84.0 L 165.8 86.5 L 165.4 89.0 L 164.6 91.4 L 163.3 93.7 L 161.7 95.7 L 159.7 97.3 L 157.4 98.6 L 155.0 99.4 L 152.5 99.8 L 150.0 100.0 L 150.0 94.0 L 138.0 91.0 Z " />
</g>
</svg>
