<svg xmlns="http://www.w3.org/2000/svg" xmlns:xlink="http://www.w3.org/1999/xlink" version="1.1" baseProfile="full" viewBox="0 0 200 200" width="200" height="200">
<g fill="black">
<path d="M 80.4 139.4 L 79.39367084503174 144.7 L 123.4 144.7 L 123.4 117.6 L 135.4 119.6 L 138.4 121.6 L 135.4 123.4 L 135.4 144.7 L 160.5 144.7 L 170.5 134.7 L 182.5 144.7 L 182.5 148.7 L 135.4 148.7 L 135.4 181.2 L 123.4 187.2 L 123.4 148.7 L 78.4527777671814 148.7 L 76.6 154.5 L 73.7 161.2 L 70.0 167.2 L 65.6 172.5 L 60.5 177.1 L 54.7 180.8 L 48.4 183.8 L 41.5 185.9 L 34.1 187.2 L 33.6 185.4 L 40.2 182.4 L 46.0 179.0 L 51.1 175.4 L 55.4 171.4 L 59.1 167.0 L 62.1 162.2 L 64.6 157.0 L 66.4 151.3 L 66.93650789260865 148.7 L 19.4 148.7 L 19.4 144.7 L 67.73088235855103 144.7 L 68.4 138.2 L 68.4 117.6 L 80.4 119.6 L 83.4 121.6 L 80.4 123.4 L 80.4 138.8 L 80.025 139.3625 Z M 63.1 59.8 L 137.8 59.8 L 143.8 54.8 L 154.8 63.8 L 149.8 67.8 L 149.8 103.8 L 137.8 109.8 L 137.8 97.8 L 63.1 97.8 L 63.1 109.8 L 51.1 115.8 L 51.1 53.8 Z M 63.1 63.8 L 63.1 93.8 L 137.8 93.8 L 137.8 63.8 Z M 75.2 32.3 L 76.7 35.5 L 72.78222217559815 35.5 L 71.8 36.8 L 67.9 41.0 L 63.5 45.1 L 58.6 48.8 L 53.2 52.4 L 47.3 55.8 L 40.9 58.9 L 34.0 61.8 L 26.5 64.4 L 18.5 66.7 L 17.8 65.0 L 25.0 60.9 L 31.6 57.0 L 37.7 53.2 L 43.3 49.3 L 48.3 45.5 L 52.8 41.6 L 56.6 37.8 L 59.9 33.9 L 62.7 30.0 L 64.372438621521 27.035222434997557 L 64.3 27.0 L 65.4 25.3 Z M 159.8 60.4 L 153.5 56.9 L 147.7 53.1 L 142.4 49.0 L 137.8 44.7 L 133.8 40.1 L 130.5 35.2 L 127.9 30.1 L 126.5074073791504 25.4 L 76.1 25.4 L 76.1 21.4 L 112.1 21.4 L 122.1 11.4 L 134.1 21.4 L 134.1 25.4 L 129.24615383148193 25.4 L 131.4 27.8 L 135.1 31.6 L 139.0 35.1 L 143.3 38.4 L 148.0 41.5 L 153.1 44.4 L 158.6 47.1 L 164.7 49.6 L 171.2 51.9 L 178.2 54.0 L 185.8 56.5 L 174.1 66.6 L 166.7 63.6 Z " />
</g>
</svg>
