<svg xmlns="http://www.w3.org/2000/svg" xmlns:xlink="http://www.w3.org/1999/xlink" version="1.1" baseProfile="full" viewBox="0 0 200 200" width="200" height="200">
<g fill="black">
<path d="M 62.0 121.1 L 65.0 123.1 L 62.0 124.9 L 62.0 146.4 L 74.0 146.4 L 84.0 136.4 L 96.0 146.4 L 96.0 150.4 L 61.88275861740112 150.4 L 60.9 156.1 L 59.3 161.7 L 57.1 166.8 L 54.3 171.5 L 51.1 175.7 L 47.2 179.5 L 42.9 182.7 L 38.2 185.4 L 32.9 187.5 L 27.3 189.1 L 26.6 187.4 L 31.3 184.3 L 35.3 181.0 L 38.9 177.7 L 41.9 174.3 L 44.3 170.7 L 46.4 166.9 L 47.9 162.9 L 49.0 158.7 L 49.7 154.2 L 49.9375 150.4 L 15.0 150.4 L 15.0 146.4 L 50.0 146.4 L 50.0 119.1 Z M 148.0 121.1 L 151.0 123.1 L 148.0 124.9 L 148.0 146.4 L 163.0 146.4 L 173.0 136.4 L 185.0 146.4 L 185.0 150.4 L 148.0 150.4 L 148.0 181.6 L 136.0 187.6 L 136.0 150.4 L 102.0 150.4 L 102.0 146.4 L 136.0 146.4 L 136.0 119.1 Z M 45.0 115.5 L 33.0 121.5 L 33.0 17.0 L 45.0 23.0 L 155.2 23.0 L 165.2 13.0 L 177.2 23.0 L 177.2 27.0 L 108.0 27.0 L 108.0 46.7 L 149.6 46.7 L 155.6 41.7 L 166.6 50.7 L 161.6 54.7 L 161.6 81.6 L 149.6 87.6 L 149.6 77.6 L 108.0 77.6 L 108.0 99.5 L 159.9 99.5 L 169.9 89.5 L 181.9 99.5 L 181.9 103.5 L 45.0 103.5 Z M 45.0 77.6 L 45.0 99.5 L 96.0 99.5 L 96.0 77.6 Z M 45.0 73.6 L 149.6 73.6 L 149.6 50.7 L 45.0 50.7 Z M 45.0 27.0 L 45.0 46.7 L 96.0 46.7 L 96.0 27.0 Z " />
</g>
</svg>
