<svg xmlns="http://www.w3.org/2000/svg" xmlns:xlink="http://www.w3.org/1999/xlink" version="1.1" baseProfile="full" viewBox="0 0 200 200" width="200" height="200">
<g fill="black">
<path d="M 136.0 108.0 L 139.0 110.0 L 136.0 111.8 L 136.0 132.0 L 163.0 132.0 L 173.0 122.0 L 185.0 132.0 L 185.0 136.0 L 136.0 136.0 L 136.0 181.0 L 124.0 187.0 L 124.0 136.0 L 78.77011489868164 136.0 L 78.0 142.7 L 75.6 150.9 L 71.9 158.4 L 67.0 165.0 L 60.8 170.9 L 53.4 175.9 L 45.0 180.1 L 35.5 183.5 L 24.9 186.1 L 13.1 187.8 L 12.8 186.1 L 23.8 182.4 L 33.6 178.5 L 42.1 174.2 L 49.3 169.5 L 55.1 164.5 L 59.7 159.2 L 63.2 153.5 L 65.5 147.5 L 66.7 141.0 L 66.91428575515747 136.0 L 16.0 136.0 L 16.0 132.0 L 67.0 132.0 L 67.0 106.0 L 79.0 108.0 L 82.0 110.0 L 79.0 111.8 L 79.0 132.0 L 124.0 132.0 L 124.0 106.0 Z M 155.8 105.2 L 147.6 102.2 L 139.9 98.8 L 132.6 95.2 L 125.9 91.2 L 119.7 86.9 L 114.1 82.2 L 109.2 77.1 L 106.0 72.90952377319336 L 106.0 100.9 L 94.0 106.9 L 94.0 78.91269845962525 L 93.9 79.0 L 87.2 84.2 L 80.1 88.9 L 72.6 93.2 L 64.7 97.2 L 56.3 100.7 L 47.7 103.8 L 38.6 106.4 L 29.1 108.5 L 19.2 110.0 L 18.7 108.3 L 28.0 104.8 L 36.9 101.3 L 45.3 97.6 L 53.2 93.8 L 60.7 89.6 L 67.8 85.2 L 74.4 80.6 L 80.6 75.7 L 85.50769233703613 71.3 L 56.0 71.3 L 56.0 74.3 L 44.0 80.3 L 44.0 38.2 L 56.0 44.2 L 94.0 44.2 L 94.0 33.5 L 18.0 33.5 L 18.0 29.5 L 94.0 29.5 L 94.0 13.7 L 106.0 15.7 L 109.0 17.7 L 106.0 19.5 L 106.0 29.5 L 162.0 29.5 L 172.0 19.5 L 184.0 29.5 L 184.0 33.5 L 106.0 33.5 L 106.0 44.2 L 145.0 44.2 L 151.0 39.2 L 162.0 48.2 L 157.0 52.2 L 157.0 73.3 L 145.0 79.3 L 145.0 71.3 L 107.7 71.3 L 111.9 74.0 L 117.6 77.5 L 123.6 80.8 L 129.9 83.9 L 136.6 86.7 L 143.7 89.4 L 151.2 91.8 L 159.1 93.9 L 167.5 95.8 L 176.3 97.4 L 185.4 99.3 L 173.6 110.4 L 164.5 107.9 Z M 56.0 48.2 L 56.0 67.3 L 94.0 67.3 L 94.0 48.2 Z M 106.0 48.2 L 106.0 67.3 L 145.0 67.3 L 145.0 48.2 Z " />
</g>
</svg>
