<svg xmlns="http://www.w3.org/2000/svg" xmlns:xlink="http://www.w3.org/1999/xlink" version="1.1" baseProfile="full" viewBox="0 0 200 200" width="200" height="200">
<g fill="black">
<path d="M 136.0 118.6 L 139.0 120.6 L 136.0 122.4 L 136.0 139.5 L 163.0 139.5 L 173.0 129.5 L 185.0 139.5 L 185.0 143.5 L 136.0 143.5 L 136.0 182.8 L 124.0 188.8 L 124.0 143.5 L 78.75 143.5 L 78.0 149.5 L 75.6 157.0 L 71.8 163.7 L 66.8 169.6 L 60.6 174.8 L 53.3 179.1 L 44.9 182.8 L 35.4 185.7 L 24.8 187.9 L 13.1 189.3 L 12.8 187.6 L 23.9 184.2 L 33.7 180.6 L 42.2 176.8 L 49.4 172.6 L 55.3 168.1 L 59.9 163.3 L 63.3 158.3 L 65.5 153.1 L 66.7 147.5 L 66.9 143.5 L 16.0 143.5 L 16.0 139.5 L 67.0 139.5 L 67.0 116.6 L 79.0 118.6 L 82.0 120.6 L 79.0 122.4 L 79.0 139.5 L 124.0 139.5 L 124.0 116.6 Z M 170.0 76.9 L 172.0 76.9 L 170.0 101.9 L 173.6 104.3 L 176.0 107.9 L 173.6 111.5 L 170.0 113.9 L 61.0 113.9 L 58.4 113.8 L 55.9 113.3 L 53.5 112.5 L 51.2 111.3 L 49.2 109.7 L 47.6 107.6 L 46.3 105.4 L 45.5 103.0 L 45.1 100.5 L 45.0 97.9 L 45.0 69.5 L 40.0 72.0 L 40.0 20.4 L 52.0 26.4 L 77.0 26.4 L 77.5 26.0 L 79.2 24.0 L 82.4 20.4 L 85.4 17.0 L 88.0 13.8 L 89.3 12.3 L 89.76207990646363 11.669890975952148 L 89.6 11.5 L 90.26724138259888 10.981034469604491 L 90.4 10.8 L 90.43829317092896 10.847994136810303 L 90.5 10.8 L 97.9 20.2 L 98.3 23.8 L 93.80609760284423 22.165853691101074 L 92.3 22.8 L 88.1 24.6 L 85.9 25.5 L 83.6 26.3 L 83.33333330154419 26.4 L 144.0 26.4 L 150.0 21.4 L 161.0 30.4 L 156.0 34.4 L 156.0 66.0 L 145.08709678649902 71.45645160675049 L 146.1169508934021 71.2740816116333 L 146.1 71.2 L 146.17638950347902 71.26355600357056 L 147.1 71.1 L 147.25110244750977 72.15771722793579 L 158.6 81.6 L 159.0 84.6 L 154.4314606666565 82.19550561904907 L 148.8 83.0 L 139.1 84.1 L 129.5 85.1 L 119.8 86.1 L 110.0 87.1 L 100.3 88.0 L 90.5 88.9 L 80.7 89.7 L 70.9 90.4 L 61.0 90.9 L 57.0 91.06161613464356 L 57.0 99.1 L 57.2 100.1 L 57.4 100.6 L 57.5 101.0 L 57.7 101.2 L 57.9 101.3 L 58.2 101.5 L 58.8 101.7 L 59.7 101.8 L 61.0 101.9 L 164.0 101.9 Z M 52.0 66.0 L 45.9 69.05 L 57.0 70.9 L 60.0 72.9 L 57.0 74.7 L 57.0 88.02989692687989 L 60.5 87.2 L 70.2 85.1 L 79.8 83.2 L 89.5 81.4 L 99.1 79.6 L 108.8 77.9 L 128.0 74.5 L 137.5 72.8 L 144.0 71.64895830154418 L 144.0 66.0 Z M 52.0 47.9 L 52.0 62.0 L 144.0 62.0 L 144.0 47.9 Z M 52.0 30.4 L 52.0 43.9 L 144.0 43.9 L 144.0 30.4 Z " />
</g>
</svg>
