<svg xmlns="http://www.w3.org/2000/svg" xmlns:xlink="http://www.w3.org/1999/xlink" version="1.1" baseProfile="full" viewBox="0 0 200 200" width="200" height="200">
<g fill="black">
<path d="M 78.9 132.6 L 78.13369569778442 137.3 L 124.0 137.3 L 124.0 114.8 L 136.0 116.8 L 139.0 118.8 L 136.0 120.6 L 136.0 137.3 L 163.0 137.3 L 173.0 127.3 L 185.0 137.3 L 185.0 141.3 L 136.0 141.3 L 136.0 183.4 L 124.0 189.4 L 124.0 141.3 L 77.48152170181274 141.3 L 77.4 141.8 L 75.2 150.3 L 72.1 158.1 L 68.4 165.2 L 63.9 171.5 L 58.6 177.0 L 52.7 181.6 L 46.2 185.4 L 39.0 188.1 L 31.2 189.9 L 30.7 188.2 L 37.5 184.7 L 43.4 180.7 L 48.7 176.4 L 53.2 171.7 L 57.0 166.4 L 60.2 160.7 L 62.8 154.3 L 64.8 147.4 L 65.92368421554565 141.3 L 16.0 141.3 L 16.0 137.3 L 66.44096384048461 137.3 L 67.0 131.5 L 67.0 114.8 L 79.0 116.8 L 82.0 118.8 L 79.0 120.6 L 79.0 132.1 L 78.6802110671997 132.57968339920043 Z M 61.4 108.3 L 58.9 107.8 L 56.5 107.0 L 54.2 105.8 L 52.2 104.1 L 50.6 102.1 L 49.3 99.9 L 48.5 97.4 L 48.1 95.0 L 48.0 92.4 L 48.0 48.2 L 60.0 50.2 L 63.0 52.2 L 60.0 54.0 L 60.0 74.5509614944458 L 64.3 73.6 L 74.5 71.4 L 84.2 69.1 L 93.7 66.8 L 102.8 64.4 L 111.5 61.8 L 119.8 59.1 L 127.8 56.2 L 135.5 53.1 L 141.83682641983032 50.37164421081543 L 141.8 50.3 L 141.86625995635987 50.358971405029294 L 142.7 50.0 L 143.43336229324342 51.75369243621826 L 151.8 59.2 L 151.9 62.4 L 148.03134326934816 60.70746269226074 L 147.3 61.0 L 139.4 63.8 L 131.2 66.4 L 122.7 68.7 L 113.8 70.8 L 104.7 72.6 L 95.2 74.3 L 85.4 75.6 L 75.3 76.7 L 64.8 77.4 L 60.0 77.53333330154419 L 60.0 93.6 L 60.2 94.5 L 60.4 95.1 L 60.5 95.5 L 60.7 95.6 L 60.9 95.8 L 61.2 96.0 L 61.8 96.2 L 62.7 96.3 L 64.0 96.4 L 148.0 96.4 L 154.0 71.4 L 156.0 71.4 L 154.0 96.4 L 157.6 98.8 L 160.0 102.4 L 157.6 106.0 L 154.0 108.4 L 64.0 108.4 Z M 13.3 65.0 L 12.9 60.4 L 15.8 56.9 L 17.7 56.0 L 19.6 54.9 L 21.4 53.4 L 23.1 51.5 L 24.7 49.0 L 26.2 46.1 L 27.5 42.7 L 28.6 38.8 L 29.6 34.5 L 30.1 29.6 L 31.9 29.6 L 32.5 34.5 L 32.797872352600095 37.3 L 94.0 37.3 L 94.0 13.0 L 106.0 15.0 L 109.0 17.0 L 106.0 18.8 L 106.0 37.3 L 170.0 37.3 L 170.6 36.8 L 171.0 35.9 L 171.37275743484497 36.15603542327881 L 176.0 32.3 L 187.0 41.3 L 182.0 44.3 L 177.003125 46.38203125 L 175.3 48.0 L 173.1 49.8 L 170.8 51.8 L 168.3 53.8 L 165.6 55.9 L 162.7 58.1 L 159.6 60.3 L 156.6 62.8 L 155.3 61.5 L 157.7 58.4 L 159.7 55.2 L 161.6 52.2 L 163.4 49.4 L 165.1 46.8 L 166.6 44.3 L 168.0 41.9 L 168.342857170105 41.3 L 33.046666622161865 41.3 L 33.1 43.7 L 32.8 47.9 L 32.0 51.8 L 30.9 55.5 L 29.2 59.0 L 27.1 62.2 L 24.5 65.0 L 21.4 67.4 L 16.9 67.8 Z " />
</g>
</svg>
