<svg xmlns="http://www.w3.org/2000/svg" xmlns:xlink="http://www.w3.org/1999/xlink" version="1.1" baseProfile="full" viewBox="0 0 200 200" width="200" height="200">
<g fill="black">
<path d="M 78.9 135.0 L 77.78333330154419 141.7 L 124.0 141.7 L 124.0 109.9 L 136.0 111.9 L 139.0 113.9 L 136.0 115.7 L 136.0 141.7 L 163.0 141.7 L 173.0 131.7 L 185.0 141.7 L 185.0 145.7 L 136.0 145.7 L 136.0 184.4 L 124.0 190.4 L 124.0 145.7 L 76.95476188659669 145.7 L 75.2 152.4 L 72.1 160.0 L 68.4 167.0 L 63.8 173.1 L 58.6 178.4 L 52.7 182.9 L 46.1 186.5 L 38.9 189.1 L 31.2 190.7 L 30.7 189.0 L 37.5 185.6 L 43.5 181.8 L 48.7 177.7 L 53.2 173.1 L 57.1 168.0 L 60.3 162.4 L 62.8 156.2 L 64.8 149.4 L 65.5 145.7 L 16.0 145.7 L 16.0 141.7 L 66.22962961196899 141.7 L 67.0 133.9 L 67.0 109.9 L 79.0 111.9 L 82.0 113.9 L 79.0 115.7 L 79.0 134.4 L 78.61741428375244 134.97387866973878 Z M 70.0 97.2 L 91.2 97.2 L 92.1 97.0 L 92.7 96.8 L 93.0 96.6 L 93.2 96.5 L 93.4 96.3 L 93.7 95.4 L 93.9 94.5 L 94.0 93.2 L 94.0 62.0 L 14.0 62.0 L 14.0 58.0 L 94.0 58.0 L 94.0 42.8 L 104.85863189697265 44.60977201461792 L 107.7 42.7 L 113.5 39.0 L 119.0 35.6 L 124.0 32.3 L 128.7 29.3 L 132.9 26.5 L 136.7 23.8 L 136.8319999694824 23.7 L 40.0 23.7 L 40.0 19.7 L 142.0173913002014 19.7 L 142.9 19.0 L 145.4 16.9 L 145.76605796813965 17.394951629638673 L 149.0 14.7 L 160.0 23.7 L 155.0 26.7 L 144.41333332061768 31.111111068725585 L 141.9 32.4 L 137.5 34.5 L 132.7 36.7 L 127.6 39.0 L 122.0 41.4 L 115.9 43.8 L 109.4 46.1 L 108.42417058944702 46.41611375808716 L 109.0 46.8 L 106.0 48.6 L 106.0 58.0 L 164.0 58.0 L 174.0 48.0 L 186.0 58.0 L 186.0 62.0 L 106.0 62.0 L 106.0 93.2 L 105.8 95.8 L 105.4 98.3 L 104.6 100.7 L 103.3 103.0 L 101.7 105.0 L 99.7 106.6 L 97.4 107.8 L 95.0 108.7 L 92.5 109.1 L 90.0 109.2 L 90.0 103.2 L 70.0 100.2 Z " />
</g>
</svg>
