<svg xmlns="http://www.w3.org/2000/svg" xmlns:xlink="http://www.w3.org/1999/xlink" version="1.1" baseProfile="full" viewBox="0 0 200 200" width="200" height="200">
<g fill="black">
<path d="M 136.0 122.6 L 139.0 124.6 L 136.0 126.4 L 136.0 141.2 L 163.0 141.2 L 173.0 131.2 L 185.0 141.2 L 185.0 145.2 L 136.0 145.2 L 136.0 180.2 L 124.0 186.2 L 124.0 145.2 L 78.7027027130127 145.2 L 77.9 150.6 L 75.5 157.4 L 71.7 163.6 L 66.6 169.0 L 60.4 173.6 L 53.1 177.5 L 44.8 180.8 L 35.3 183.4 L 24.8 185.3 L 13.1 186.4 L 12.8 184.7 L 23.9 181.5 L 33.8 178.2 L 42.3 174.6 L 49.6 170.8 L 55.5 166.7 L 60.1 162.4 L 63.4 157.9 L 65.6 153.2 L 66.8 148.4 L 66.92307691574096 145.2 L 16.0 145.2 L 16.0 141.2 L 67.0 141.2 L 67.0 120.6 L 79.0 122.6 L 82.0 124.6 L 79.0 126.4 L 79.0 141.2 L 124.0 141.2 L 124.0 120.6 Z M 175.0 79.3 L 177.0 79.3 L 175.0 104.3 L 178.6 106.7 L 181.0 110.3 L 178.6 113.9 L 175.0 116.3 L 62.0 116.3 L 59.4 116.1 L 56.9 115.7 L 54.5 114.9 L 52.2 113.7 L 50.2 112.0 L 48.6 110.0 L 47.3 107.7 L 46.5 105.3 L 46.1 102.8 L 46.0 100.3 L 46.0 66.8 L 58.0 68.8 L 61.0 70.8 L 58.0 72.6 L 58.0 91.05242719650269 L 61.1 90.3 L 71.3 88.0 L 81.6 85.9 L 91.8 83.8 L 102.1 81.8 L 122.5 77.8 L 132.7 75.9 L 142.8 73.9 L 153.0 71.9 L 153.1876395225525 73.07521619796753 L 164.3 82.2 L 164.7 85.2 L 160.12222223281861 82.91111106872559 L 154.9 83.8 L 144.7 85.1 L 134.4 86.5 L 124.1 87.8 L 103.3 90.2 L 93.0 91.3 L 82.5 92.4 L 72.1 93.3 L 61.6 94.1 L 58.0 94.27142858505249 L 58.0 101.5 L 58.2 102.4 L 58.5 103.3 L 58.9 103.7 L 59.2 103.9 L 59.8 104.0 L 60.7 104.2 L 62.0 104.3 L 169.0 104.3 Z M 120.1 51.3 L 113.6 47.2 L 106.6 43.2 L 103.40878925323486 41.58311986923218 L 94.4 45.8 L 92.86154317855835 46.450275611877444 L 93.7 46.6 L 96.3 47.1 L 98.8 47.7 L 101.2 48.4 L 103.5 49.2 L 107.7 51.0 L 109.7 52.1 L 111.6 56.3 L 110.2 60.6 L 106.96315793991089 62.1 L 159.0 62.1 L 159.0 13.9 L 171.0 15.9 L 174.0 17.9 L 171.0 19.7 L 171.0 66.1 L 159.0 72.1 L 159.0 66.1 L 41.0 66.1 L 41.0 78.1 L 29.0 84.1 L 29.0 13.9 L 41.0 15.9 L 44.0 17.9 L 41.0 19.7 L 41.0 62.1 L 104.84285717010498 62.1 L 101.7 61.1 L 100.9 59.8 L 99.8 58.5 L 98.5 57.1 L 97.1 55.7 L 95.5 54.2 L 93.7 52.7 L 91.7 51.2 L 89.5 49.7 L 87.9258487701416 48.536496925354 L 84.7 49.9 L 74.9 53.5 L 64.9 56.8 L 54.7 59.6 L 44.2 61.9 L 43.7 60.2 L 53.4 56.0 L 63.0 51.8 L 72.4 47.5 L 81.6 42.9 L 90.6 38.2 L 93.38674764633178 36.61662063598633 L 91.3 35.6 L 83.0 31.9 L 74.3 28.3 L 65.2 24.7 L 55.7 21.0 L 56.1 19.2 L 66.3 21.0 L 75.9 23.2 L 85.2 25.7 L 94.1 28.5 L 102.21816892623902 31.49599094390869 L 108.0 28.0 L 116.4 22.5 L 124.6 16.7 L 132.6 10.7 L 139.7 20.4 L 139.8 24.0 L 136.43446836471557 22.53948621749878 L 131.0 26.1 L 122.1 31.5 L 113.65192880630494 36.28724031448364 L 118.3 38.4 L 125.6 42.1 L 132.5 46.0 L 139.1 50.1 L 141.4 54.1 L 140.4 58.5 L 136.4 60.9 L 132.0 59.8 L 126.3 55.5 Z M 143.3 43.3 L 142.3 41.9 L 141.0 40.5 L 139.5 39.0 L 137.7 37.5 L 135.6 35.9 L 133.2 34.3 L 130.6 32.7 L 127.7 31.5 L 128.2 29.7 L 131.4 30.4 L 134.6 30.7 L 137.5 31.2 L 140.3 31.8 L 143.0 32.6 L 145.5 33.4 L 147.8 34.4 L 150.0 35.6 L 152.0 36.9 L 153.9 38.4 L 155.0 42.9 L 152.8 46.8 L 148.3 48.0 L 144.4 45.7 L 143.9 44.6 Z M 60.9 42.2 L 59.8 40.8 L 58.5 39.3 L 56.9 37.8 L 55.1 36.3 L 53.1 34.7 L 50.9 33.1 L 48.4 31.4 L 45.6 30.2 L 46.2 28.5 L 49.2 29.2 L 52.3 29.5 L 55.1 30.0 L 57.9 30.6 L 60.5 31.4 L 62.9 32.2 L 65.3 33.2 L 67.5 34.3 L 69.6 35.6 L 71.5 37.0 L 72.9 41.4 L 70.9 45.5 L 66.6 46.9 L 62.5 44.9 L 61.8 43.6 Z M 91.6 22.5 L 89.9 21.0 L 88.1 19.5 L 86.2 18.0 L 84.2 16.5 L 82.0 14.8 L 79.6 13.7 L 80.2 12.0 L 82.9 12.7 L 85.6 12.9 L 88.3 13.4 L 90.8 13.9 L 93.3 14.5 L 95.7 15.2 L 98.0 16.0 L 100.2 16.9 L 102.3 17.8 L 104.4 18.8 L 106.5 22.9 L 105.3 27.3 L 101.3 29.4 L 96.9 28.2 L 94.5 25.4 Z " />
</g>
</svg>
