<svg xmlns="http://www.w3.org/2000/svg" xmlns:xlink="http://www.w3.org/1999/xlink" version="1.1" baseProfile="full" viewBox="0 0 200 200" width="200" height="200">
<g fill="black">
<path d="M 78.9 131.4 L 77.7473684310913 138.7 L 124.0 138.7 L 124.0 105.1 L 136.0 107.1 L 139.0 109.1 L 136.0 110.9 L 136.0 138.7 L 163.0 138.7 L 173.0 128.7 L 185.0 138.7 L 185.0 142.7 L 136.0 142.7 L 136.0 183.7 L 124.0 189.7 L 124.0 142.7 L 76.95 142.7 L 75.2 149.7 L 72.2 157.7 L 68.4 165.0 L 63.9 171.5 L 58.7 177.1 L 52.7 181.8 L 46.2 185.6 L 39.0 188.4 L 31.2 190.2 L 30.7 188.5 L 37.5 184.9 L 43.4 181.0 L 48.6 176.7 L 53.2 171.8 L 57.0 166.5 L 60.2 160.6 L 62.8 154.0 L 64.8 146.9 L 65.54430379867554 142.7 L 16.0 142.7 L 16.0 138.7 L 66.22790699005127 138.7 L 67.0 130.4 L 67.0 105.1 L 79.0 107.1 L 82.0 109.1 L 79.0 110.9 L 79.0 130.9 L 78.67904510498047 131.3814323425293 Z M 135.0 65.1 L 147.0 65.1 L 148.2 65.0 L 149.1 64.9 L 149.7 64.7 L 150.0 64.5 L 150.2 64.3 L 150.4 64.2 L 150.5 63.8 L 150.7 63.2 L 150.9 62.3 L 151.0 61.1 L 151.0 34.63430557250977 L 107.0 41.26486110687256 L 107.0 76.7 L 95.0 82.7 L 95.0 43.07319440841675 L 55.0 49.100972175598145 L 55.0 84.5 L 55.2 85.4 L 55.4 86.0 L 55.5 86.4 L 55.7 86.6 L 55.9 86.7 L 56.2 86.9 L 56.8 87.1 L 57.7 87.2 L 59.0 87.3 L 173.0 87.3 L 179.0 62.3 L 181.0 62.3 L 179.0 87.3 L 182.6 89.7 L 185.0 93.3 L 182.6 96.9 L 179.0 99.3 L 59.0 99.3 L 56.4 99.2 L 53.9 98.7 L 51.5 97.9 L 49.2 96.7 L 47.2 95.0 L 45.6 93.0 L 44.3 90.8 L 43.5 88.4 L 43.1 85.9 L 43.0 83.3 L 43.0 50.909305572509766 L 13.2 55.4 L 12.7 51.4 L 43.0 46.833958339691165 L 43.0 21.6 L 55.0 23.6 L 58.0 25.6 L 55.0 27.4 L 55.0 45.02562503814697 L 95.0 38.997847175598146 L 95.0 13.0 L 107.0 15.0 L 110.0 17.0 L 107.0 18.8 L 107.0 37.18951387405396 L 151.0 30.558958339691163 L 151.0 29.7 L 157.0 24.7 L 168.0 33.7 L 163.0 37.7 L 163.0 61.1 L 162.8 63.6 L 162.4 66.1 L 161.6 68.5 L 160.3 70.8 L 158.7 72.8 L 156.7 74.5 L 154.4 75.7 L 152.0 76.5 L 149.5 76.9 L 147.0 77.1 L 147.0 71.1 L 135.0 68.1 Z " />
</g>
</svg>
