<svg xmlns="http://www.w3.org/2000/svg" xmlns:xlink="http://www.w3.org/1999/xlink" version="1.1" baseProfile="full" viewBox="0 0 200 200" width="200" height="200">
<g fill="black">
<path d="M 77.5 172.6 L 71.4 162.6 L 66.0 150.0 L 61.2 134.8 L 56.9 116.9 L 53.2 96.4 L 50.27496156692505 75.10206384658814 L 13.2 79.9 L 12.7 76.0 L 49.80253601074219 71.19849529266358 L 47.3 47.1 L 45.0 18.3 L 45.037363815307614 18.297820472717284 L 44.9 16.1 L 57.0 17.6 L 60.1 19.3 L 57.286091804504395 21.29318494796753 L 59.2 46.0 L 61.685751056671144 69.66066751480102 L 75.77885999679566 67.83685340881348 L 84.5 56.6 L 97.7 65.0 L 98.2 68.9 L 62.1615852355957 73.56379480361939 L 65.1 94.5 L 68.7 114.5 L 72.8 131.6 L 77.2 145.8 L 82.1 157.1 L 87.1 165.4 L 90.2327543258667 168.65806455612181 L 95.0 148.0 L 97.0 148.0 L 95.13249607086182 172.27755098342897 L 96.8 173.2 L 100.2 176.2 L 100.7 180.8 L 97.7 184.2 L 93.1 184.7 L 84.7 180.1 Z M 163.4 170.2 L 156.2 159.4 L 149.9 146.4 L 144.3 131.0 L 139.5 113.3 L 135.2 93.2 L 132.73824005126954 77.3040644645691 L 87.4 84.9 L 86.8 81.0 L 132.13435850143432 73.40471477508545 L 131.7 70.6 L 128.7 45.7 L 126.57956237792969 19.387296772003175 L 126.5 19.4 L 126.3 16.1 L 138.4 17.5 L 141.6 19.3 L 138.72670640945435 21.335249614715575 L 140.7 44.5 L 143.6 69.0 L 143.97416725158692 71.42108192443848 L 160.51413974761962 68.6499870300293 L 168.8 57.1 L 182.3 65.0 L 182.9 68.9 L 144.5768256187439 75.32063655853271 L 147.0 91.0 L 151.1 110.5 L 155.8 127.4 L 161.0 141.8 L 166.7 153.5 L 172.8 162.7 L 178.46058254241944 168.53747568130493 L 183.2 148.0 L 185.2 148.0 L 183.35501689910888 171.98478012084962 L 185.7 173.5 L 188.8 176.9 L 188.7 181.5 L 185.3 184.5 L 180.7 184.4 L 171.5 178.5 Z M 160.2 43.1 L 159.2 40.2 L 158.0 37.3 L 156.6 34.4 L 155.1 31.6 L 153.3 28.7 L 151.4 25.9 L 149.3 23.0 L 146.9 20.3 L 148.0 18.9 L 154.4 22.7 L 157.5 24.9 L 160.3 27.3 L 162.9 29.9 L 165.3 32.6 L 167.6 35.5 L 169.6 38.6 L 171.5 41.8 L 173.1 45.2 L 172.7 49.8 L 169.3 52.8 L 164.7 52.4 L 161.7 49.0 L 161.0 46.0 Z M 79.3 40.4 L 78.1 38.0 L 76.6 35.5 L 75.0 33.1 L 73.3 30.6 L 71.3 28.0 L 69.2 25.4 L 66.9 22.7 L 64.3 20.3 L 65.3 18.8 L 68.5 20.5 L 71.8 22.1 L 74.9 23.9 L 77.8 25.8 L 80.6 27.8 L 83.2 29.9 L 85.6 32.1 L 87.8 34.5 L 89.9 36.9 L 91.8 39.5 L 92.2 44.0 L 89.4 47.6 L 84.8 48.0 L 81.2 45.1 L 80.4 42.8 Z " />
</g>
</svg>
