<svg xmlns="http://www.w3.org/2000/svg" xmlns:xlink="http://www.w3.org/1999/xlink" version="1.1" baseProfile="full" viewBox="0 0 200 200" width="200" height="200">
<g fill="black">
<path d="M 136.10584955215455 18.73649024963379 L 137.0 50.3 L 138.60364236831666 67.0 L 166.0 67.0 L 176.0 57.0 L 188.0 67.0 L 188.0 71.0 L 138.98774833679198 71.0 L 139.9 80.5 L 144.2 105.8 L 149.7 126.5 L 155.8 143.0 L 162.3 155.6 L 168.7 164.6 L 174.5 170.4 L 176.74226360321046 171.78352432250978 L 182.0 149.0 L 184.0 149.0 L 182.07446804046631 174.0319149017334 L 186.2 175.8 L 188.0 180.0 L 186.2 184.2 L 182.0 186.0 L 174.5 184.3 L 167.1 179.8 L 159.5 172.4 L 152.0 161.8 L 144.8 147.9 L 138.2 130.1 L 132.5 108.3 L 128.0 82.1 L 126.92926044464112 71.0 L 12.0 71.0 L 12.0 67.0 L 126.54340839385986 67.0 L 125.0 51.0 L 124.0277135848999 15.99769048690796 L 124.0 16.0 L 124.0 12.6 L 136.0 15.0 L 139.0 17.0 Z M 81.4 168.9 L 95.4 168.9 L 96.6 168.8 L 97.5 168.6 L 98.1 168.4 L 98.5 168.3 L 98.6 168.1 L 98.8 167.9 L 99.0 167.6 L 99.2 167.0 L 99.3 166.1 L 99.4 164.9 L 99.4 145.5 L 36.5 145.5 L 36.5 175.7 L 24.5 181.7 L 24.5 86.1 L 36.5 92.1 L 99.4 92.1 L 105.4 87.1 L 116.4 96.1 L 111.4 100.1 L 111.4 164.9 L 111.3 167.4 L 110.8 169.9 L 110.0 172.3 L 108.8 174.6 L 107.1 176.6 L 105.1 178.2 L 102.9 179.5 L 100.4 180.3 L 98.0 180.7 L 95.4 180.9 L 95.4 174.9 L 81.4 171.9 Z M 36.5 120.8 L 36.5 141.5 L 99.4 141.5 L 99.4 120.8 Z M 36.5 96.1 L 36.5 116.8 L 99.4 116.8 L 99.4 96.1 Z M 163.0 44.2 L 161.6 41.8 L 160.1 39.3 L 158.4 36.9 L 156.5 34.5 L 154.5 32.2 L 152.4 29.8 L 150.1 27.3 L 147.4 25.2 L 148.3 23.7 L 151.5 25.0 L 154.8 26.3 L 157.9 27.8 L 160.9 29.5 L 163.7 31.4 L 166.4 33.5 L 169.0 35.7 L 171.4 38.1 L 173.6 40.7 L 175.7 43.4 L 176.2 47.9 L 173.4 51.6 L 168.9 52.1 L 165.2 49.3 L 164.2 46.7 Z M 110.0 38.0 L 110.0 42.0 L 25.0 42.0 L 25.0 38.0 L 88.0 38.0 L 98.0 28.0 Z " />
</g>
</svg>
