<svg xmlns="http://www.w3.org/2000/svg" xmlns:xlink="http://www.w3.org/1999/xlink" version="1.1" baseProfile="full" viewBox="0 0 200 200" width="200" height="200">
<g fill="black">
<path d="M 14.0 172.3 L 94.0 172.3 L 94.0 143.3 L 27.0 143.3 L 27.0 139.3 L 94.0 139.3 L 94.0 116.3 L 106.0 118.3 L 109.0 120.3 L 106.0 122.1 L 106.0 139.3 L 151.0 139.3 L 161.0 129.3 L 173.0 139.3 L 173.0 143.3 L 106.0 143.3 L 106.0 172.3 L 164.0 172.3 L 174.0 162.3 L 186.0 172.3 L 186.0 176.3 L 14.0 176.3 Z M 146.0 114.9 L 134.5 108.5 L 124.2 100.4 L 114.9 90.7 L 106.8 79.6 L 99.7 66.9 L 94.98313417434693 55.7074369430542 L 18.1 60.6 L 17.8 56.6 L 93.45706443786621 51.78545951843262 L 89.0 37.3 L 85.42340059280396 21.393544673919678 L 85.4 21.4 L 85.3182879447937 20.92607002258301 L 85.2 20.4 L 85.226727104187 20.395016956329346 L 84.9 18.5 L 97.0 18.2 L 100.3 19.6 L 97.81666870117188 21.852323722839355 L 100.6 34.3 L 105.1 48.8 L 106.01519765853882 50.98630561828613 L 149.85505838394164 48.19649629592895 L 159.2 37.6 L 171.8 46.8 L 172.1 50.8 L 107.65395383834839 54.90111198425293 L 110.5 61.7 L 116.9 73.1 L 124.1 83.0 L 132.2 91.5 L 141.2 98.5 L 151.1 104.1 L 162.0 108.3 L 167.56648454666137 109.64523372650146 L 173.0 86.1 L 175.0 86.1 L 173.0862177848816 110.97916927337647 L 174.0 111.2 L 177.8 113.7 L 178.9 118.2 L 176.4 122.0 L 171.9 123.0 L 158.5 119.8 Z M 139.9 36.7 L 138.0 34.8 L 135.8 32.9 L 133.2 30.9 L 130.2 28.9 L 126.8 26.9 L 123.1 24.8 L 119.1 22.6 L 114.7 20.7 L 115.2 19.0 L 120.0 19.9 L 124.6 20.6 L 129.0 21.6 L 133.0 22.7 L 136.7 23.9 L 140.2 25.3 L 143.4 26.8 L 146.4 28.4 L 149.1 30.2 L 151.5 32.3 L 152.9 36.6 L 150.9 40.7 L 146.6 42.1 L 142.4 40.1 L 141.4 38.4 Z " />
</g>
</svg>
