<svg xmlns="http://www.w3.org/2000/svg" xmlns:xlink="http://www.w3.org/1999/xlink" version="1.1" baseProfile="full" viewBox="0 0 200 200" width="200" height="200">
<g fill="black">
<path d="M 57.2 15.0 L 60.2 17.0 L 57.2 18.8 L 57.2 36.0 L 66.6 36.0 L 76.6 26.0 L 88.6 36.0 L 88.6 40.0 L 57.2 40.0 L 57.2 63.0 L 70.5 63.0 L 76.5 58.0 L 87.5 67.0 L 82.5 71.0 L 82.5 123.0 L 70.5 129.0 L 70.5 117.0 L 57.2 117.0 L 57.2 146.0 L 69.5 146.0 L 79.5 136.0 L 91.5 146.0 L 91.5 150.0 L 57.2 150.0 L 57.2 183.0 L 45.2 189.0 L 45.2 150.0 L 12.0 150.0 L 12.0 146.0 L 45.2 146.0 L 45.2 117.0 L 32.9 117.0 L 32.9 129.0 L 20.9 135.0 L 20.9 57.0 L 32.9 63.0 L 45.2 63.0 L 45.2 40.0 L 14.8 40.0 L 14.8 36.0 L 45.2 36.0 L 45.2 13.0 Z M 132.15395002365113 68.70762996673584 L 133.2 93.9 L 134.55298080444337 103.25148468017578 L 164.87193126678466 101.9474437713623 L 174.4 91.5 L 186.9 101.0 L 187.0 104.9 L 135.11436500549317 107.13164024353027 L 136.6 117.4 L 141.6 135.9 L 147.7 150.0 L 154.3 160.2 L 161.0 167.3 L 167.3 171.9 L 172.9 174.5 L 174.4776315689087 174.93026313781738 L 180.0 151.0 L 182.0 151.0 L 180.07446804046631 176.0319149017334 L 184.2 177.8 L 186.0 182.0 L 184.2 186.2 L 180.0 188.0 L 175.2 187.5 L 168.9 185.8 L 161.3 182.3 L 153.1 176.4 L 144.9 167.7 L 137.1 155.6 L 130.2 139.8 L 124.8 119.8 L 123.03645296096802 107.65112028121948 L 94.0 108.9 L 93.9 105.0 L 122.47321615219116 103.77104444503784 L 121.2 95.0 L 120.03986711502075 65.99667778015137 L 120.0 66.0 L 120.0 62.6 L 132.0 65.0 L 135.0 67.0 Z M 32.9 92.0 L 32.9 113.0 L 70.5 113.0 L 70.5 92.0 Z M 160.9 85.8 L 159.2 83.9 L 157.3 82.0 L 155.0 80.0 L 152.5 78.1 L 149.7 76.1 L 146.6 74.0 L 143.3 71.9 L 139.6 70.1 L 140.2 68.4 L 144.3 69.3 L 148.3 70.1 L 152.0 71.0 L 155.6 72.1 L 158.9 73.4 L 162.0 74.8 L 165.0 76.3 L 167.7 78.0 L 170.3 79.8 L 172.6 81.8 L 173.9 86.2 L 171.9 90.3 L 167.5 91.6 L 163.4 89.5 L 162.3 87.7 Z M 32.9 88.0 L 70.5 88.0 L 70.5 67.0 L 32.9 67.0 Z M 167.0 63.0 L 162.3 58.8 L 157.7 54.2 L 153.3 49.1 L 149.2 43.7 L 145.3 38.0 L 141.7 31.8 L 138.78633852005004 25.88438425064087 L 134.4 33.0 L 129.6 39.8 L 124.6 46.2 L 119.3 52.2 L 113.7 57.6 L 107.8 62.6 L 101.7 67.0 L 95.2 70.9 L 88.5 74.0 L 87.5 72.5 L 93.1 67.7 L 98.3 62.8 L 103.4 57.7 L 108.3 52.3 L 112.9 46.6 L 117.2 40.6 L 121.3 34.2 L 125.2 27.5 L 128.8 20.4 L 131.9384614944458 13.476923084259033 L 132.7 11.7 L 143.1 18.0 L 144.9 21.1 L 141.20033226013183 21.482724285125734 L 141.0062068939209 21.83862066268921 L 141.9 22.9 L 146.5 28.4 L 151.1 33.6 L 155.6 38.4 L 160.1 42.8 L 164.7 46.7 L 169.4 50.3 L 174.0 53.5 L 178.8 56.3 L 183.6 58.8 L 188.5 61.5 L 177.2 70.4 L 172.0 66.9 Z " />
</g>
</svg>
