<svg xmlns="http://www.w3.org/2000/svg" xmlns:xlink="http://www.w3.org/1999/xlink" version="1.1" baseProfile="full" viewBox="0 0 200 200" width="200" height="200">
<g fill="black">
<path d="M 87.9 182.8 L 82.5 179.3 L 77.6 175.4 L 73.4 171.2 L 69.8 166.7 L 66.8 161.8 L 64.6 156.7 L 63.34352531433105 152.26045608520508 L 60.8 158.4 L 56.8 164.6 L 51.8 170.1 L 45.9 174.9 L 39.2 178.9 L 31.6 182.2 L 23.1 184.7 L 13.8 186.3 L 13.4 184.6 L 21.9 181.1 L 29.3 177.3 L 35.8 173.3 L 41.2 168.9 L 45.6 164.3 L 49.1 159.4 L 51.7 154.1 L 53.4 148.5 L 53.68032789230347 146.6 L 15.2 146.6 L 15.2 142.6 L 54.27049179077149 142.6 L 54.3 142.4 L 54.5 135.8 L 54.5 122.8 L 66.5 124.8 L 69.5 126.8 L 66.5 128.6 L 66.5 135.8 L 65.7444444656372 142.6 L 83.7 142.6 L 93.7 132.6 L 105.7 142.6 L 105.7 146.6 L 65.06304349899293 146.6 L 67.0 149.9 L 69.8 154.0 L 72.8 157.8 L 76.1 161.3 L 79.8 164.4 L 83.9 167.3 L 88.3 170.0 L 93.3 172.3 L 98.7 174.4 L 104.5 176.3 L 111.9 178.8 L 100.3 188.8 L 93.8 186.0 Z M 143.05440225601197 18.767358589172364 L 143.4 42.7 L 144.9 67.9 L 145.24277276992797 71.28301782608033 L 161.9539179801941 68.11001558303833 L 169.9 56.4 L 183.6 64.0 L 184.3 67.9 L 145.6436809539795 75.23980741500854 L 147.2 90.6 L 150.5 110.7 L 154.7 128.3 L 159.8 143.3 L 165.7 155.6 L 172.3 165.4 L 179.6 172.6 L 180.16434106826782 172.95452194213868 L 185.0 152.0 L 187.0 152.0 L 185.14731893539428 176.084854221344 L 187.4 177.5 L 190.5 180.9 L 190.4 185.4 L 187.0 188.5 L 182.5 188.4 L 172.1 182.0 L 163.0 173.0 L 155.3 161.6 L 148.7 147.7 L 143.2 131.6 L 138.7 113.1 L 135.3 92.2 L 133.78495759963988 77.49146375656127 L 105.3 82.9 L 104.6 79.0 L 133.37751903533936 73.53591413497925 L 132.9 68.9 L 131.4 43.1 L 131.014218044281 15.998815155029297 L 131.0 16.0 L 131.0 12.6 L 143.0 15.0 L 146.0 17.0 Z M 35.8 87.0 L 85.9 87.0 L 91.9 82.0 L 102.9 91.0 L 97.9 95.0 L 97.9 116.3 L 85.9 122.3 L 85.9 114.3 L 35.8 114.3 L 35.8 117.3 L 23.8 123.3 L 23.8 81.0 Z M 35.8 91.0 L 35.8 110.3 L 85.9 110.3 L 85.9 91.0 Z M 100.2 71.6 L 100.2 75.6 L 21.6 75.6 L 21.6 71.6 L 82.01818180084229 71.6 L 90.2 62.6 Z M 100.2 55.6 L 100.2 59.6 L 21.6 59.6 L 21.6 55.6 L 85.9777777671814 55.6 L 92.2 48.6 Z M 167.8 40.0 L 167.2 38.0 L 166.4 35.9 L 165.3 33.8 L 164.1 31.6 L 162.5 29.3 L 160.7 26.9 L 158.8 24.4 L 156.3 22.3 L 157.3 20.8 L 160.2 22.4 L 163.3 23.8 L 166.1 25.4 L 168.7 27.1 L 171.1 29.0 L 173.3 31.0 L 175.2 33.1 L 177.0 35.4 L 178.6 37.8 L 179.9 40.4 L 179.3 45.0 L 175.8 47.8 L 171.2 47.3 L 168.4 43.7 L 168.2 41.9 Z M 112.6 38.4 L 112.6 42.4 L 16.0 42.4 L 16.0 38.4 L 94.41818180084229 38.4 L 102.6 29.4 Z M 100.2 22.4 L 100.2 26.4 L 21.6 26.4 L 21.6 22.4 L 82.01818180084229 22.4 L 90.2 13.4 Z " />
</g>
</svg>
