<svg xmlns="http://www.w3.org/2000/svg" xmlns:xlink="http://www.w3.org/1999/xlink" version="1.1" baseProfile="full" viewBox="0 0 200 200" width="200" height="200">
<g fill="black">
<path d="M 180.0 88.0 L 180.0 92.0 L 106.03861389160156 92.0 L 103.46963691711426 105.9 L 137.0 105.9 L 143.0 100.9 L 154.0 109.9 L 149.0 113.9 L 149.0 179.8 L 158.0 179.8 L 168.0 169.8 L 180.0 179.8 L 180.0 183.8 L 17.0 183.8 L 17.0 179.8 L 50.0 179.8 L 50.0 99.9 L 62.0 105.9 L 91.17101449966431 105.9 L 93.74956521987914 92.0 L 17.0 92.0 L 17.0 88.0 L 94.49159421920777 88.0 L 97.2 73.4 L 108.7 77.6 L 111.3 80.1 L 108.05701379776 81.07901468276978 L 106.77788782119751 88.0 L 158.0 88.0 L 166.8444444656372 79.15555553436279 L 157.2 77.6 L 145.6 74.4 L 135.0 69.8 L 125.3 63.8 L 116.6 56.5 L 109.0 47.9 L 104.54421224594117 41.28383026123047 L 17.0 43.3 L 16.9 39.3 L 102.04534015655517 37.39068021774292 L 96.9 27.1 L 92.82153844833374 15.791538429260253 L 92.8 15.8 L 92.60645160675048 15.195161247253418 L 92.5 14.9 L 92.51093502044678 14.896671962738036 L 92.0 13.3 L 104.0 11.4 L 107.4 12.4 L 105.23261232376099 14.789683818817139 L 108.0 22.4 L 112.8 32.1 L 116.1359808921814 37.07470827102661 L 159.90897188186645 36.0931321144104 L 169.7 25.8 L 181.9 35.6 L 182.0 39.5 L 118.81622190475464 40.95514154434204 L 125.0 47.9 L 132.3 54.1 L 140.5 59.1 L 149.6 63.1 L 159.7 65.9 L 170.8 67.6 L 177.29551124572754 67.91945133209228 L 183.0 43.2 L 185.0 43.2 L 183.07446804046631 68.2319149017334 L 187.2 70.0 L 189.0 74.2 L 187.2 78.4 L 183.0 80.2 L 169.938170337677 79.61514196395873 Z M 62.0 165.3 L 62.0 179.8 L 137.0 179.8 L 137.0 165.3 Z M 62.0 146.2 L 62.0 161.3 L 137.0 161.3 L 137.0 146.2 Z M 62.0 127.0 L 62.0 142.2 L 137.0 142.2 L 137.0 127.0 Z M 62.0 109.9 L 62.0 123.0 L 137.0 123.0 L 137.0 109.9 Z M 143.2 27.9 L 142.2 26.2 L 140.9 24.5 L 139.3 22.6 L 137.4 20.7 L 135.1 18.8 L 132.5 16.8 L 129.6 14.7 L 126.3 13.0 L 126.9 11.3 L 130.6 12.3 L 134.2 13.1 L 137.6 14.1 L 140.8 15.2 L 143.7 16.5 L 146.4 17.9 L 148.8 19.5 L 151.1 21.3 L 153.1 23.4 L 154.9 25.7 L 155.1 30.2 L 152.1 33.7 L 147.6 33.9 L 144.1 30.9 L 143.8 29.5 Z " />
</g>
</svg>
