<svg xmlns="http://www.w3.org/2000/svg" xmlns:xlink="http://www.w3.org/1999/xlink" version="1.1" baseProfile="full" viewBox="0 0 200 200" width="200" height="200">
<g fill="black">
<path d="M 164.6 180.1 L 155.6 171.7 L 146.7 160.1 L 138.4 145.1 L 131.0 126.7 L 125.0 104.5 L 120.7 78.4 L 119.65099334716797 64.0 L 12.0 64.0 L 12.0 60.0 L 119.35960264205933 60.0 L 118.5 48.2 L 118.9 13.7 L 118.93026485443116 13.701261043548584 L 119.0 11.4 L 130.9 14.2 L 133.8 16.4 L 130.8552501678467 17.958985233306883 L 130.5 47.8 L 131.37739725112914 60.0 L 166.0 60.0 L 176.0 50.0 L 188.0 60.0 L 188.0 64.0 L 131.66506853103638 64.0 L 132.6 77.0 L 136.7 101.9 L 142.4 122.9 L 149.2 140.0 L 156.8 153.5 L 164.5 163.6 L 171.9 170.6 L 177.68769226074218 174.0199999809265 L 183.0 151.0 L 185.0 151.0 L 183.0864661216736 175.87593984603882 L 183.5 176.0 L 187.5 178.2 L 188.9 182.5 L 186.7 186.5 L 182.4 187.9 L 173.6 185.5 Z M 40.5 111.4 L 88.4 111.4 L 94.4 106.4 L 105.4 115.4 L 100.4 119.4 L 100.4 174.5 L 88.4 180.5 L 88.4 168.5 L 40.5 168.5 L 40.5 180.5 L 28.5 186.5 L 28.5 105.4 Z M 40.5 141.2 L 40.5 164.5 L 88.4 164.5 L 88.4 141.2 Z M 40.5 115.4 L 40.5 137.2 L 88.4 137.2 L 88.4 115.4 Z M 108.0 86.0 L 108.0 90.0 L 26.0 90.0 L 26.0 86.0 L 86.0 86.0 L 96.0 76.0 Z M 161.3 38.6 L 160.1 36.3 L 158.6 34.0 L 157.0 31.7 L 155.1 29.4 L 153.0 27.1 L 150.8 24.7 L 148.3 22.3 L 145.4 20.2 L 146.3 18.6 L 149.6 20.0 L 153.0 21.2 L 156.3 22.7 L 159.3 24.3 L 162.2 26.1 L 164.8 28.1 L 167.4 30.2 L 169.7 32.4 L 171.9 34.9 L 173.8 37.5 L 174.2 42.0 L 171.4 45.6 L 166.8 46.0 L 163.2 43.1 L 162.4 40.9 Z " />
</g>
</svg>
