<svg xmlns="http://www.w3.org/2000/svg" xmlns:xlink="http://www.w3.org/1999/xlink" version="1.1" baseProfile="full" viewBox="0 0 200 200" width="200" height="200">
<g fill="black">
<path d="M 167.8 181.5 L 165.3 179.3 L 162.5 177.0 L 159.4 174.7 L 155.9 172.4 L 152.2 170.0 L 148.1 167.7 L 143.8 165.2 L 139.1 162.7 L 139.7 161.0 L 144.9 162.1 L 149.9 163.2 L 154.6 164.5 L 159.0 166.0 L 163.2 167.6 L 167.1 169.3 L 170.8 171.1 L 174.2 173.1 L 177.4 175.2 L 180.4 177.4 L 182.1 181.6 L 180.4 185.9 L 176.2 187.6 L 171.9 185.9 L 170.0 183.7 Z M 124.0 167.2 L 124.7 170.7 L 120.77384614944458 169.7184615135193 L 117.4 172.1 L 113.7 174.4 L 109.7 176.6 L 105.4 178.7 L 100.9 180.7 L 96.1 182.5 L 90.9 184.3 L 85.5 185.8 L 79.8 187.2 L 79.1 185.5 L 84.1 182.5 L 88.8 179.6 L 93.3 176.8 L 97.4 174.1 L 101.2 171.5 L 104.8 168.8 L 107.9 166.2 L 110.8 163.7 L 113.4 161.1 L 114.94762020111084 159.34134063720703 L 114.9 159.3 L 115.30384616851806 158.9365385055542 L 115.6 158.6 L 115.63638610839844 158.63725252151488 L 115.9 158.4 Z M 12.2 158.0 L 19.3 155.5 L 26.3 153.1 L 33.5 150.5 L 40.8 148.0 L 48.1 145.4 L 52.45 143.95 L 51.6 143.8 L 52.7 133.8 L 53.9 124.4 L 55.1 115.5 L 56.2 107.2 L 57.3 99.4 L 58.2 92.1 L 59.1 85.3 L 59.8 79.1 L 60.4 73.3 L 60.72297382354736 69.10134010314941 L 60.7 69.1 L 60.754545497894284 68.69090909957886 L 60.8 68.1 L 60.83271026611328 68.10467290878296 L 61.1 66.1 L 72.7 69.8 L 75.4 72.2 L 71.90038957595826 73.65266847610474 L 71.6 75.1 L 70.4 80.8 L 69.0 87.1 L 67.4 93.8 L 65.6 101.0 L 63.7 108.7 L 61.5 116.9 L 59.1 125.5 L 56.4 134.6 L 53.45866146087646 143.61377954483032 L 55.6 142.9 L 63.1 140.3 L 70.7 137.8 L 78.5 135.4 L 86.5 133.1 L 87.2 134.8 L 80.0 138.9 L 72.8 142.7 L 65.6 146.4 L 58.5 149.9 L 51.3 153.3 L 44.3 156.6 L 30.3 163.0 L 20.388940620422364 167.5182770729065 L 19.6 171.2 L 16.7 169.2 L 10.4 158.7 Z M 105.5 131.9 L 105.5 151.1 L 158.6 151.1 L 158.6 131.9 Z M 29.7 120.3 L 29.4 113.9 L 28.4 101.1 L 27.7 94.8 L 27.0 88.4 L 25.4 75.6 L 24.7 69.2 L 26.4 68.7 L 29.1 74.7 L 31.4 80.8 L 33.4 87.0 L 35.2 93.4 L 36.7 99.8 L 38.1 106.2 L 39.3 112.7 L 40.4 119.3 L 41.3 126.0 L 42.0 132.7 L 40.4 136.9 L 36.3 138.9 L 32.0 137.4 L 30.0 133.3 L 29.9 126.8 Z M 105.5 110.2 L 105.5 127.9 L 158.6 127.9 L 158.6 110.2 Z M 105.5 88.5 L 105.5 106.2 L 158.6 106.2 L 158.6 88.5 Z M 170.84410772323608 92.30471382141113 L 170.6 92.5 L 170.6 155.1 L 158.6 161.1 L 158.6 155.1 L 105.5 155.1 L 105.5 158.1 L 93.5 164.1 L 93.5 78.5 L 105.5 84.5 L 158.6 84.5 L 158.72970819473267 84.39190979003907 L 156.3 82.6 L 148.9 75.9 L 141.9 68.3 L 135.6 59.8 L 130.65161294937133 52.0 L 87.4 52.0 L 87.4 48.0 L 128.41287126541138 48.0 L 124.5 40.4 L 119.7 29.5 L 115.82003211975098 18.691517925262453 L 115.8 18.7 L 115.61052627563477 18.107894706726075 L 115.5 17.8 L 115.51084337234497 17.79638557434082 L 115.0 16.2 L 126.9 14.0 L 130.4 15.0 L 128.18471059799194 17.565071964263915 L 130.9 25.1 L 135.3 35.3 L 140.2 44.6 L 142.30476188659668 48.0 L 165.9 48.0 L 175.9 38.0 L 187.9 48.0 L 187.9 52.0 L 144.78095235824586 52.0 L 145.4 53.0 L 151.2 60.6 L 157.3 67.4 L 163.9 73.3 L 170.9 78.4 L 178.4 82.8 L 179.0055506706238 83.07594709396362 L 184.1 61.0 L 186.1 61.0 L 184.21909685134887 85.45174036026 L 186.3 86.4 L 189.6 89.6 L 189.7 94.1 L 186.5 97.4 L 182.0 97.5 L 172.9 93.5 Z M 12.6 56.0 L 41.0 56.0 L 41.0 17.0 L 53.0 19.0 L 56.0 21.0 L 53.0 22.8 L 53.0 56.0 L 63.0 56.0 L 73.0 46.0 L 85.0 56.0 L 85.0 60.0 L 12.6 60.0 Z M 158.2 34.4 L 157.3 32.6 L 156.1 30.8 L 154.5 28.9 L 152.6 26.9 L 150.4 24.9 L 147.9 22.9 L 145.1 20.7 L 141.9 19.0 L 142.5 17.3 L 146.2 18.4 L 149.7 19.3 L 153.1 20.3 L 156.2 21.5 L 159.0 22.9 L 161.7 24.4 L 164.1 26.1 L 166.4 28.0 L 168.4 30.2 L 170.1 32.5 L 170.2 37.1 L 167.1 40.5 L 162.5 40.6 L 159.2 37.5 L 158.8 36.0 Z " />
</g>
</svg>
