<svg xmlns="http://www.w3.org/2000/svg" xmlns:xlink="http://www.w3.org/1999/xlink" version="1.1" baseProfile="full" viewBox="0 0 200 200" width="200" height="200">
<g fill="black">
<path d="M 151.5 184.0 L 147.3 185.6 L 145.1 186.2 L 142.9 186.7 L 140.7 187.1 L 138.5 187.3 L 136.2 187.5 L 134.0 187.6 L 134.0 181.6 L 114.0 178.6 L 114.0 175.6 L 134.0 175.6 L 135.6 175.5 L 137.3 175.4 L 138.9 175.2 L 140.6 174.9 L 142.1 174.5 L 143.7 174.1 L 145.3 173.6 L 146.8 173.0 L 148.3 172.3 L 149.8 171.5 L 150.8 170.8 L 151.9 169.5 L 153.1 167.6 L 154.3 164.9 L 155.3 161.4 L 156.3 157.3 L 157.0 152.5 L 157.5 147.0 L 157.8 140.8 L 157.94117650985717 136.0 L 58.3 136.0 L 56.5 137.8 L 52.6 141.1 L 48.2 144.3 L 43.5 147.3 L 38.4 150.1 L 32.8 152.7 L 26.8 155.1 L 20.3 157.2 L 19.6 155.5 L 25.1 151.7 L 30.2 148.1 L 34.9 144.5 L 39.1 141.1 L 42.9 137.6 L 46.3 134.2 L 49.2 130.9 L 51.6 127.6 L 53.6 124.3 L 54.78222217559814 121.93555555343627 L 54.7 121.9 L 55.7 120.0 L 65.8 126.7 L 67.5 129.9 L 63.43920221328735 130.11004123687744 L 63.1 130.6 L 61.92702703475952 132.0 L 158.0 132.0 L 164.0 127.0 L 175.0 136.0 L 170.0 139.0 L 169.8594847679138 139.0585479736328 L 169.8 141.2 L 169.5 147.8 L 168.9 153.9 L 168.1 159.5 L 166.9 164.5 L 165.5 169.0 L 163.8 173.0 L 161.6 176.6 L 158.9 179.6 L 155.6 182.0 L 153.6 183.0 Z M 183.5 23.9 L 183.5 27.9 L 154.0 27.9 L 154.0 43.9 L 168.3 43.9 L 174.3 38.9 L 185.3 47.9 L 180.3 51.9 L 180.3 118.1 L 168.3 124.1 L 168.3 112.1 L 127.1 112.1 L 127.1 115.1 L 116.1 120.6 L 116.1 38.4 L 127.1 43.9 L 142.0 43.9 L 142.0 27.9 L 112.8 27.9 L 112.8 23.9 L 161.5 23.9 L 171.5 13.9 Z M 98.3 112.9 L 96.6 114.7 L 94.8 116.3 L 92.7 117.6 L 90.6 118.7 L 88.3 119.6 L 85.9 120.1 L 83.5 120.5 L 81.0 120.6 L 81.0 114.6 L 61.0 111.6 L 61.0 108.6 L 81.0 108.6 L 82.4 108.5 L 83.7 108.4 L 84.8 108.1 L 85.8 107.7 L 87.6 106.7 L 88.4 106.0 L 89.2 105.1 L 90.0 104.1 L 90.7 102.9 L 91.1 102.1 L 91.6 100.7 L 92.1 98.6 L 92.6 96.1 L 93.1 93.1 L 93.5 89.6 L 93.8 85.7 L 94.1 81.4 L 94.3 76.6 L 94.35849056243896 73.5 L 78.49249143600464 73.5 L 78.0 77.2 L 65.3 81.6 L 70.7 40.3 L 80.72105264663696 47.1 L 94.3 47.1 L 94.3 27.5 L 67.4 27.5 L 67.4 23.5 L 94.3 23.5 L 99.8 18.5 L 110.3 27.5 L 105.3 31.0 L 105.3 53.1 L 94.3 58.6 L 94.3 51.1 L 81.4740613937378 51.1 L 79.02491464614869 69.5 L 94.4 69.5 L 100.4 64.5 L 111.4 73.5 L 106.4 76.5 L 106.30855369567871 76.53810262680054 L 106.3 77.0 L 106.1 82.0 L 105.8 86.6 L 105.4 90.8 L 105.0 94.7 L 104.5 98.1 L 103.8 101.2 L 103.1 104.0 L 102.3 106.6 L 101.2 108.9 L 99.8 111.0 Z M 51.3 112.9 L 49.6 114.7 L 47.7 116.3 L 45.7 117.6 L 43.5 118.7 L 41.3 119.6 L 38.9 120.1 L 36.4 120.5 L 34.0 120.6 L 34.0 114.6 L 20.0 111.6 L 20.0 108.6 L 34.0 108.6 L 35.4 108.5 L 36.6 108.4 L 37.7 108.1 L 38.8 107.7 L 39.7 107.2 L 40.5 106.7 L 41.4 106.0 L 42.2 105.1 L 42.9 104.1 L 43.7 102.9 L 44.1 102.1 L 44.6 100.7 L 45.1 98.6 L 45.6 96.1 L 46.0 93.1 L 46.4 89.6 L 46.8 85.7 L 47.0 81.4 L 47.3 76.6 L 47.358490562438966 73.5 L 31.39249143600464 73.5 L 30.9 77.2 L 18.3 81.6 L 23.7 40.3 L 33.63157892227173 47.1 L 46.8 47.1 L 46.8 27.5 L 20.3 27.5 L 20.3 23.5 L 46.8 23.5 L 52.8 18.5 L 63.8 27.5 L 58.8 31.5 L 58.8 53.1 L 46.8 59.1 L 46.8 51.1 L 34.37406139373779 51.1 L 31.924914646148682 69.5 L 47.4 69.5 L 53.4 64.5 L 64.4 73.5 L 59.4 76.5 L 59.215674018859865 76.57680253982544 L 59.2 77.0 L 59.0 82.0 L 58.7 86.6 L 58.4 90.8 L 57.9 94.7 L 57.4 98.1 L 56.8 101.2 L 56.1 104.0 L 55.2 106.6 L 54.1 108.9 L 52.8 111.0 Z M 157.8 80.7 L 156.9 77.4 L 155.8 74.4 L 154.7 71.6 L 153.4 68.9 L 152.1 66.5 L 150.8882483482361 64.56119737625122 L 150.5 66.0 L 148.3 71.9 L 145.6 77.3 L 142.3 82.0 L 138.6 86.2 L 134.3 89.7 L 129.6 92.4 L 127.1 93.33137254714966 L 127.1 108.1 L 168.3 108.1 L 168.3 90.98000001907349 L 166.9 92.1 L 162.3 91.6 L 159.5 88.0 L 158.7 84.2 Z M 127.1 47.9 L 127.1 89.65789470672607 L 127.5 89.3 L 130.8 85.7 L 133.6 81.9 L 136.0 77.9 L 138.0 73.5 L 139.6 68.7 L 140.8 63.6 L 141.6 57.9 L 142.0 51.9 L 142.0 47.9 Z M 153.6972972869873 47.9 L 153.3 52.8 L 152.2 59.7 L 152.03414630889893 60.31463413238525 L 153.4 60.9 L 156.1 62.7 L 158.7 64.8 L 161.1 67.4 L 163.4 70.2 L 165.5 73.4 L 167.5 76.9 L 168.3 78.54444446563721 L 168.3 47.9 Z " />
</g>
</svg>
