<svg xmlns="http://www.w3.org/2000/svg" xmlns:xlink="http://www.w3.org/1999/xlink" version="1.1" baseProfile="full" viewBox="0 0 200 200" width="200" height="200">
<g fill="black">
<path d="M 165.8 183.5 L 160.2 179.8 L 155.2 175.9 L 150.8 171.7 L 147.2 167.3 L 144.2 162.6 L 142.0 157.6 L 140.7 152.5 L 140.47615633010864 149.53407163619994 L 139.7 152.2 L 136.1 159.5 L 131.3 166.0 L 125.3 171.7 L 118.2 176.7 L 110.0 180.8 L 100.8 184.2 L 90.5 186.8 L 79.1 188.7 L 78.8 186.9 L 89.4 183.2 L 98.9 179.2 L 107.0 175.0 L 114.0 170.4 L 119.6 165.4 L 124.1 160.2 L 127.3 154.7 L 129.5 148.8 L 129.63333330154418 148.1 L 95.0 148.1 L 95.0 144.1 L 130.3952381134033 144.1 L 130.7 142.5 L 131.0 135.8 L 131.0 124.4 L 110.62758617401123 124.4 L 108.6 126.5 L 105.5 129.1 L 102.1 131.6 L 94.5 136.0 L 93.4 134.5 L 96.5 131.5 L 99.0 128.3 L 101.3 125.2 L 103.3 122.1 L 104.9 119.1 L 106.3 116.1 L 107.3 113.1 L 108.1 110.2 L 108.6 107.3 L 108.7991735458374 105.30826444625855 L 108.7 105.3 L 109.2 102.4 L 120.7 106.3 L 123.3 108.8 L 119.41443853378296 110.31105165481567 L 118.0 113.8 L 116.1 117.2 L 113.96666669845581 120.4 L 131.0 120.4 L 131.0 97.2 L 143.0 99.2 L 146.0 101.2 L 143.0 103.0 L 143.0 120.4 L 161.0 120.4 L 171.0 110.4 L 183.0 120.4 L 183.0 124.4 L 143.0 124.4 L 143.0 135.8 L 142.0235294342041 144.1 L 166.0 144.1 L 176.0 134.1 L 188.0 144.1 L 188.0 148.1 L 142.87380952835082 148.1 L 144.6 151.0 L 147.2 154.9 L 150.2 158.5 L 153.5 161.8 L 157.2 164.9 L 161.3 167.8 L 166.0 170.5 L 171.2 173.0 L 176.9 175.3 L 183.2 177.4 L 190.2 180.0 L 178.7 189.9 L 171.9 186.8 Z M 60.6 176.7 L 58.6 178.0 L 56.6 179.2 L 54.4 180.2 L 52.2 181.0 L 50.0 181.6 L 47.7 182.0 L 45.3 182.3 L 42.9 182.4 L 42.9 176.4 L 28.9 173.4 L 28.9 170.4 L 42.9 170.4 L 45.9 170.2 L 47.3 169.9 L 48.6 169.5 L 49.8 169.1 L 51.1 168.5 L 52.3 167.8 L 53.4 167.0 L 54.6 166.1 L 55.7 165.1 L 57.9 162.6 L 60.0 159.3 L 62.2 155.3 L 64.2 150.6 L 66.1 145.1 L 67.9 138.9 L 69.6 132.0 L 71.1 124.4 L 72.5 116.1 L 73.33999996185302 109.8 L 34.81105165481567 109.8 L 33.0 122.5 L 20.2 126.7 L 29.9 58.7 L 39.70259742736816 65.5 L 68.8 65.5 L 68.8 31.1 L 22.3 31.1 L 22.3 27.1 L 68.8 27.1 L 74.8 22.1 L 85.8 31.1 L 80.8 35.1 L 80.8 75.5 L 68.8 81.5 L 68.8 69.5 L 40.55793228149414 69.5 L 35.381461715698244 105.8 L 73.6 105.8 L 79.6 100.8 L 90.6 109.8 L 85.6 112.8 L 84.9617506980896 113.0659372329712 L 84.3 117.8 L 82.9 126.5 L 81.3 134.6 L 79.5 142.0 L 77.6 148.8 L 75.4 154.9 L 73.0 160.5 L 70.4 165.5 L 67.4 169.8 L 64.2 173.6 L 62.4 175.2 Z M 158.6 88.9 L 153.9 85.8 L 149.0 82.8 L 143.8156223297119 80.00841197967529 L 142.8 80.8 L 134.9 85.2 L 125.9 88.9 L 115.8 91.7 L 104.6 93.7 L 92.3 94.8 L 92.0 93.0 L 103.8 90.0 L 114.3 86.5 L 123.5 82.8 L 131.3 78.5 L 135.0526388168335 75.84428634643555 L 132.5 74.7 L 126.5 72.2 L 120.2 69.6 L 117.58711099624634 68.59504270553589 L 116.1 71.4 L 102.7 71.1 L 115.02504673004151 47.8 L 87.0 47.8 L 87.0 43.8 L 117.1409345626831 43.8 L 131.0 17.6 L 140.7 25.0 L 142.4 28.1 L 138.72566804885864 28.723943138122557 L 130.73275861740112 43.8 L 163.9 43.8 L 173.9 33.8 L 185.9 43.8 L 185.9 47.8 L 163.9800000190735 47.8 L 162.6 54.7 L 159.6 62.4 L 155.3 69.4 L 151.21104402542113 73.7759002685547 L 153.1 74.5 L 158.8 77.0 L 164.2 79.8 L 169.5 82.8 L 174.5 86.1 L 176.8 90.0 L 175.6 94.5 L 171.7 96.7 L 167.2 95.6 L 163.1 92.2 Z M 128.612068939209 47.8 L 119.06908788681031 65.79976921081543 L 121.1 66.0 L 128.0 67.0 L 134.6 68.5 L 141.0 70.2 L 141.53899230957032 70.37671880722046 L 143.0 69.0 L 147.0 63.7 L 149.8 58.0 L 151.6 51.9 L 152.0032787322998 47.8 Z " />
</g>
</svg>
