<svg xmlns="http://www.w3.org/2000/svg" xmlns:xlink="http://www.w3.org/1999/xlink" version="1.1" baseProfile="full" viewBox="0 0 200 200" width="200" height="200">
<g fill="black">
<path d="M 189.5 175.0 L 189.5 179.0 L 77.5 179.0 L 77.5 175.0 L 167.5 175.0 L 177.5 165.0 Z M 65.2 180.2 L 63.6 182.0 L 61.7 183.6 L 59.7 184.9 L 57.5 186.0 L 55.3 186.9 L 52.9 187.5 L 50.4 187.8 L 48.0 188.0 L 48.0 182.0 L 32.0 179.0 L 32.0 176.0 L 48.0 176.0 L 49.3 175.9 L 50.6 175.7 L 51.7 175.4 L 52.7 175.1 L 53.6 174.6 L 54.5 174.0 L 55.3 173.3 L 56.1 172.5 L 56.8 171.5 L 57.6 170.3 L 59.2 166.9 L 60.8 162.8 L 62.3 158.0 L 63.6 152.6 L 64.7 146.5 L 65.7 139.8 L 66.6 132.5 L 67.2 124.6 L 67.7 116.0 L 67.92826089859008 109.0 L 32.72950820922851 109.0 L 31.1 121.6 L 18.5 126.0 L 27.0 59.3 L 37.140540504455565 66.0 L 67.0 66.0 L 67.0 29.0 L 18.0 29.0 L 18.0 25.0 L 67.0 25.0 L 73.0 20.0 L 84.0 29.0 L 79.0 33.0 L 79.0 76.0 L 67.0 82.0 L 67.0 70.0 L 37.77322406768799 70.0 L 33.24681234359741 105.0 L 68.0 105.0 L 74.0 100.0 L 85.0 109.0 L 80.0 112.0 L 79.79391775131225 112.08586759567261 L 79.7 116.5 L 79.2 125.4 L 78.5 133.6 L 77.6 141.4 L 76.6 148.5 L 75.3 155.1 L 73.9 161.2 L 72.2 166.7 L 70.2 171.7 L 68.1 176.1 L 66.7 178.3 Z M 167.5 147.3 L 163.7 141.0 L 162.33732805252075 138.11434183120727 L 158.9 143.7 L 153.5 150.7 L 147.6 156.7 L 141.0 161.6 L 139.9 160.3 L 144.8 154.1 L 149.2 147.5 L 153.3 140.3 L 156.9 132.6 L 158.36577396392823 128.70653800964357 L 157.3 125.9 L 154.8 117.1 L 152.7 107.4 L 151.0 96.8 L 149.8 85.4 L 149.33658533096315 74.0 L 145.7 74.0 L 145.7 70.0 L 169.5 70.0 L 175.5 65.0 L 186.5 74.0 L 181.5 77.0 L 180.7723943710327 77.30316905975342 L 179.8 84.9 L 177.6 96.6 L 175.0 107.6 L 171.8 117.8 L 168.2084415435791 126.77889614105224 L 169.5 129.4 L 173.1 135.3 L 176.9 140.0 L 180.7 143.8 L 184.5 146.6 L 187.9 148.9 L 176.9 157.3 L 171.9 152.8 Z M 136.2 158.9 L 134.6 160.7 L 132.8 162.4 L 130.8 163.8 L 128.7 165.0 L 126.4 165.9 L 124.0 166.5 L 121.6 166.8 L 119.1 167.0 L 119.1 161.0 L 99.1 158.0 L 99.1 155.0 L 119.1 155.0 L 120.5 154.9 L 121.7 154.7 L 123.7 154.1 L 125.3 153.1 L 126.0 152.4 L 126.7 151.5 L 127.4 150.5 L 128.1 149.3 L 129.2 146.4 L 130.3 141.9 L 131.3 135.9 L 132.1 128.5 L 132.7 119.9 L 133.1 109.9 L 133.3 98.6 L 133.3 86.1 L 133.1 72.3 L 132.9577006340027 66.89262475967408 L 132.7 67.0 L 132.7 59.0 L 120.89022083282471 59.0 L 120.4 62.7 L 107.7 67.1 L 112.23407201766967 33.0 L 98.5 33.0 L 98.5 29.0 L 164.8 29.0 L 174.8 19.0 L 186.8 29.0 L 186.8 33.0 L 124.3350157737732 33.0 L 121.42018928527833 55.0 L 132.7 55.0 L 138.7 50.0 L 149.7 59.0 L 144.8347149848938 61.91917095184326 L 145.1 72.0 L 145.3 86.0 L 145.3 98.7 L 145.1 110.2 L 144.7 120.5 L 144.1 129.6 L 143.2 137.5 L 142.1 144.2 L 140.7 149.9 L 138.9 154.6 L 137.7 156.8 Z M 101.3 79.0 L 113.1 79.0 L 118.6 74.0 L 129.1 83.0 L 124.1 86.5 L 124.1 139.0 L 113.1 144.5 L 113.1 133.0 L 101.3 133.0 L 101.3 145.0 L 90.3 150.5 L 90.3 73.5 Z M 101.3 83.0 L 101.3 129.0 L 113.1 129.0 L 113.1 83.0 Z M 151.39243698120117 74.0 L 154.0 84.7 L 156.8 95.7 L 159.7 105.6 L 162.8 114.6 L 162.92413387298583 114.89716892242431 L 165.2 105.2 L 167.1 94.7 L 168.5 83.4 L 169.28991594314576 74.0 Z " />
</g>
</svg>
