<svg xmlns="http://www.w3.org/2000/svg" xmlns:xlink="http://www.w3.org/1999/xlink" version="1.1" baseProfile="full" viewBox="0 0 200 200" width="200" height="200">
<g fill="black">
<path d="M 149.1 175.4 L 159.1 175.4 L 160.3 175.3 L 161.2 175.2 L 161.8 175.0 L 162.1 174.8 L 162.3 174.6 L 162.5 174.5 L 162.7 174.1 L 162.8 173.5 L 163.0 172.6 L 163.1 171.4 L 163.1 148.55172414779662 L 159.58996725082397 148.91483097076417 L 157.3 152.3 L 155.16714544296264 155.05493717193605 L 157.3 156.8 L 159.4 158.6 L 161.3 160.6 L 162.1 165.0 L 159.7 168.9 L 155.2 169.8 L 151.4 167.3 L 150.5 165.4 L 149.5 163.5 L 148.68893804550171 162.14823007583618 L 146.7 164.0 L 143.7 166.4 L 140.5 168.7 L 133.7 172.5 L 133.0 171.60909090042114 L 133.0 178.8 L 121.0 184.8 L 121.0 148.6241379737854 L 118.08244276046753 148.92595415115358 L 115.8 152.3 L 113.72035398483277 154.9619468688965 L 114.4 155.5 L 116.6 157.6 L 118.6 159.9 L 120.5 162.3 L 120.9 166.8 L 118.0 170.4 L 113.5 170.8 L 109.9 167.9 L 109.1 165.8 L 108.2 163.7 L 107.28275861740113 161.86551723480224 L 104.8 164.1 L 101.5 166.5 L 98.1 168.7 L 94.5 170.7 L 90.9 172.6 L 90.1 171.4 L 90.1 180.4 L 78.1 186.4 L 78.1 106.10454549789429 L 76.4 106.8 L 71.9 108.3 L 69.62890481948853 108.94183120727538 L 69.7 109.0 L 64.7 112.0 L 64.59266548156738 112.04472274780274 L 64.5 116.4 L 64.1 125.2 L 63.7 133.4 L 63.0 141.1 L 62.3 148.1 L 61.4 154.6 L 60.3 160.5 L 59.1 165.9 L 57.8 170.7 L 56.2 175.0 L 55.1 177.3 L 53.9 179.4 L 52.3 181.4 L 50.6 183.1 L 48.7 184.6 L 46.5 185.9 L 44.2 186.8 L 41.9 187.5 L 39.4 187.8 L 36.9 188.0 L 36.9 182.0 L 22.9 179.0 L 22.9 176.0 L 36.9 176.0 L 38.2 175.9 L 39.4 175.7 L 40.4 175.4 L 41.2 175.1 L 42.0 174.7 L 42.7 174.1 L 43.3 173.5 L 43.9 172.7 L 44.6 171.6 L 45.1 170.4 L 46.4 167.0 L 47.5 162.9 L 48.6 158.2 L 49.5 152.7 L 50.4 146.7 L 51.1 140.0 L 51.7 132.6 L 52.2 124.6 L 52.5 116.1 L 52.654347801208495 109.0 L 29.781818199157716 109.0 L 28.6 121.5 L 16.1 126.3 L 22.4 59.4 L 32.99718313217163 66.0 L 52.0 66.0 L 52.0 29.0 L 17.3 29.0 L 17.3 25.0 L 52.0 25.0 L 58.0 20.0 L 69.0 29.0 L 64.0 33.0 L 64.0 70.0 L 52.0 76.0 L 52.0 70.0 L 33.469090938568115 70.0 L 30.160000038146972 105.0 L 52.7 105.0 L 58.7 100.0 L 67.55341424942017 107.24370260238648 L 70.4 105.2 L 74.0 102.4 L 77.6 99.7 L 78.1 99.3 L 78.1 94.8 L 81.54494380950928 96.52247190475464 L 84.4 94.1 L 87.6 91.3 L 90.7 88.4 L 93.7 85.4 L 96.5 82.4 L 98.55224094390869 80.04372339248657 L 98.5 80.0 L 99.1 79.4 L 67.6 79.4 L 67.6 75.4 L 168.11818180084228 75.4 L 176.3 66.4 L 186.3 75.4 L 186.3 79.4 L 133.0 79.4 L 133.0 100.8 L 163.1 100.8 L 168.11951217651367 96.61707315444946 L 165.7 94.9 L 162.3 92.7 L 158.5 90.5 L 154.5 88.1 L 150.2 85.7 L 145.6 83.4 L 146.1 81.6 L 151.3 82.7 L 156.2 83.7 L 160.9 84.9 L 165.3 86.3 L 169.4 87.8 L 173.2 89.3 L 176.8 91.0 L 180.2 92.8 L 183.3 94.8 L 186.2 96.8 L 188.0 101.0 L 186.4 105.3 L 182.2 107.1 L 178.80436506271363 105.83650789260864 L 175.1 108.8 L 175.1 171.4 L 174.9 173.9 L 174.5 176.4 L 173.7 178.8 L 172.5 181.1 L 170.8 183.1 L 168.8 184.8 L 166.5 186.0 L 164.1 186.8 L 161.6 187.2 L 159.1 187.4 L 159.1 181.4 L 149.1 178.4 Z M 108.1 132.2 L 106.9 130.3 L 106.85418500900269 130.23303966522218 L 104.7 132.1 L 101.6 134.5 L 98.4 136.6 L 94.9 138.4 L 91.6 140.1 L 90.6 138.6 L 93.1 136.0 L 95.4 133.2 L 97.6 130.3 L 99.6 127.5 L 101.5 124.5 L 101.73644065856934 124.09279661178589 L 100.3 122.8 L 98.1 120.9 L 95.8 119.0 L 93.1 117.5 L 93.7 115.8 L 96.8 116.7 L 99.9 117.3 L 102.9 118.2 L 104.647802734375 118.8629596710205 L 105.0 118.2 L 106.6 114.9 L 108.0 111.5 L 108.96637916564941 108.82387323379517 L 108.9 108.8 L 109.21034479141235 108.14827585220337 L 109.3 107.9 L 109.32348756790161 107.91067619323731 L 109.9 106.7 L 120.3 112.9 L 121.0 114.04210529327392 L 121.0 104.8 L 90.1 104.8 L 90.1 170.9 L 92.7 168.3 L 95.2 165.2 L 97.5 162.3 L 99.7 159.3 L 101.7 156.3 L 102.58746080398559 154.85203762054442 L 101.0 153.0 L 99.0 150.8 L 96.8 148.5 L 94.3 146.7 L 95.1 145.1 L 98.1 146.4 L 101.2 147.4 L 104.1 148.7 L 105.5909423828125 149.49871912002564 L 106.8 147.0 L 108.1 143.7 L 108.95523252487183 141.41937980651855 L 108.9 141.4 L 109.19411764144897 140.78235292434692 L 109.3 140.5 L 109.32357139587403 140.51049995422363 L 109.9 139.3 L 120.3 145.4 L 121.0 146.54210529327392 L 121.0 116.1241379737854 L 118.10996017456054 116.42310752868653 L 118.0 116.6 L 115.7 120.2 L 113.18609275817872 123.39072847366333 L 113.5 123.6 L 115.8 125.4 L 118.0 127.3 L 120.0 129.5 L 120.8 134.0 L 118.2 137.8 L 113.7 138.5 L 109.9 136.0 L 109.1 134.1 Z M 149.5 132.2 L 148.33893394470215 130.36164541244506 L 146.4 132.1 L 143.4 134.5 L 140.2 136.6 L 136.9 138.4 L 133.7 140.0 L 133.0 139.10909090042114 L 133.0 170.6692307472229 L 135.2 168.3 L 137.4 165.3 L 139.5 162.4 L 141.5 159.4 L 143.4 156.4 L 143.91281461715698 155.516819190979 L 143.9 155.5 L 142.1 153.5 L 140.2 151.4 L 138.1 149.2 L 135.7 147.4 L 136.5 145.8 L 139.4 147.1 L 142.4 148.1 L 145.2 149.2 L 146.8717948913574 150.0358974456787 L 148.2 147.0 L 149.5 143.8 L 150.36449785232543 141.42263078689575 L 150.3 141.4 L 150.60769233703613 140.75384616851807 L 150.7 140.5 L 150.72357139587402 140.51049995422363 L 151.3 139.3 L 161.7 145.4 L 163.1 147.6842104911804 L 163.1 116.05172414779663 L 159.50996017456055 116.42310752868653 L 159.4 116.6 L 157.1 120.2 L 154.65033559799195 123.43355703353882 L 154.9 123.6 L 157.2 125.4 L 159.4 127.3 L 161.4 129.5 L 162.2 134.0 L 159.6 137.8 L 155.1 138.5 L 151.3 136.0 L 150.5 134.1 Z M 133.0 104.8 L 133.0 138.1840000152588 L 135.1 136.0 L 139.3 130.4 L 141.2 127.5 L 143.1 124.5 L 143.26512145996094 124.20860929489136 L 141.7 122.8 L 139.5 120.9 L 137.2 119.0 L 134.5 117.5 L 135.1 115.8 L 138.2 116.7 L 141.3 117.3 L 144.3 118.2 L 146.17524662017823 118.91130046844482 L 146.5 118.3 L 148.0 115.0 L 149.4 111.5 L 150.36637916564942 108.82387323379517 L 150.3 108.8 L 150.61034479141236 108.14827585220337 L 150.7 107.9 L 150.7234875679016 107.91067619323731 L 151.3 106.7 L 161.7 112.9 L 163.1 115.18421049118042 L 163.1 104.8 Z M 99.87701148986817 79.4 L 107.7 87.7 L 108.5 91.3 L 104.68261661529542 90.36239709854127 L 104.3 90.7 L 100.6 93.5 L 96.9 96.1 L 93.1 98.6 L 89.65813951492309 100.57906980514527 L 90.1 100.8 L 121.0 100.8 L 121.0 79.4 Z M 100.8 19.3 L 151.4 19.3 L 157.4 14.3 L 168.4 23.3 L 163.4 27.3 L 163.4 64.7 L 151.4 70.7 L 151.4 64.7 L 100.8 64.7 L 88.8 70.7 L 88.8 13.3 Z M 100.8 43.4 L 100.8 60.7 L 151.4 60.7 L 151.4 43.4 Z M 100.8 23.3 L 100.8 39.4 L 151.4 39.4 L 151.4 23.3 Z " />
</g>
</svg>
