<svg xmlns="http://www.w3.org/2000/svg" xmlns:xlink="http://www.w3.org/1999/xlink" version="1.1" baseProfile="full" viewBox="0 0 200 200" width="200" height="200">
<g fill="black">
<path d="M 179.0 147.0 L 181.0 147.0 L 179.0 172.0 L 182.6 174.4 L 185.0 178.0 L 182.6 181.6 L 179.0 184.0 L 136.0 184.0 L 133.4 183.8 L 130.9 183.4 L 128.5 182.6 L 126.2 181.3 L 124.2 179.7 L 122.6 177.7 L 121.3 175.4 L 120.5 173.0 L 120.1 170.5 L 120.0 168.0 L 120.0 124.72277231216431 L 83.3 130.9 L 82.6 127.0 L 120.0 120.70495052337647 L 120.0 90.15568180084229 L 86.3 95.9 L 85.6 92.0 L 120.0 86.13636360168456 L 120.0 50.284269618988034 L 115.5 51.7 L 106.1 54.4 L 96.3 56.7 L 86.2 58.8 L 85.7 57.1 L 95.2 53.1 L 104.4 49.3 L 113.2 45.5 L 121.7 41.8 L 129.9 38.1 L 137.7 34.4 L 145.1 30.7 L 152.1 26.9 L 158.8 23.1 L 164.22782258987428 19.73991937637329 L 164.2 19.7 L 164.23479995727538 19.735599994659424 L 165.1 19.2 L 167.1 22.66666669845581 L 172.9 28.6 L 173.1 32.0 L 169.43234825134277 30.445910263061524 L 164.2 33.1 L 156.9 36.5 L 149.3 39.8 L 141.4 43.0 L 133.1 46.0 L 132.0 46.36666669845581 L 132.0 84.09090909957885 L 151.92544136047363 80.69452705383301 L 160.1 69.1 L 173.6 77.0 L 174.3 80.9 L 132.0 88.11022729873658 L 132.0 118.68514852523803 L 161.89553451538086 113.65322685241699 L 170.1 102.1 L 183.6 110.0 L 184.3 113.9 L 132.0 122.70297031402588 L 132.0 169.2 L 132.2 170.1 L 132.5 171.0 L 132.9 171.4 L 133.8 171.7 L 134.7 171.9 L 136.0 172.0 L 173.0 172.0 Z M 65.2 180.2 L 63.6 182.0 L 61.7 183.6 L 59.7 184.9 L 57.5 186.0 L 55.3 186.9 L 52.9 187.5 L 50.4 187.8 L 48.0 188.0 L 48.0 182.0 L 32.0 179.0 L 32.0 176.0 L 48.0 176.0 L 49.3 175.9 L 50.6 175.7 L 51.7 175.4 L 52.7 175.1 L 53.6 174.6 L 54.5 174.0 L 55.3 173.3 L 56.1 172.5 L 56.8 171.5 L 57.6 170.3 L 59.2 166.9 L 60.8 162.8 L 62.3 158.0 L 63.6 152.6 L 64.7 146.5 L 65.7 139.8 L 66.6 132.5 L 67.2 124.6 L 67.7 116.0 L 67.92826089859008 109.0 L 32.72950820922851 109.0 L 31.1 121.6 L 18.5 126.0 L 27.0 59.3 L 37.140540504455565 66.0 L 67.0 66.0 L 67.0 29.0 L 18.0 29.0 L 18.0 25.0 L 67.0 25.0 L 73.0 20.0 L 84.0 29.0 L 79.0 33.0 L 79.0 76.0 L 67.0 82.0 L 67.0 70.0 L 37.77322406768799 70.0 L 33.24681234359741 105.0 L 68.0 105.0 L 74.0 100.0 L 85.0 109.0 L 80.0 112.0 L 79.79391775131225 112.08586759567261 L 79.7 116.5 L 79.2 125.4 L 78.5 133.6 L 77.6 141.4 L 76.6 148.5 L 75.3 155.1 L 73.9 161.2 L 72.2 166.7 L 70.2 171.7 L 68.1 176.1 L 66.7 178.3 Z " />
</g>
</svg>
