<svg xmlns="http://www.w3.org/2000/svg" xmlns:xlink="http://www.w3.org/1999/xlink" version="1.1" baseProfile="full" viewBox="0 0 200 200" width="200" height="200">
<g fill="black">
<path d="M 70.0 175.9 L 91.2 175.9 L 92.1 175.7 L 92.7 175.5 L 93.0 175.3 L 93.2 175.2 L 93.4 175.0 L 93.7 174.1 L 93.9 173.2 L 94.0 171.9 L 94.0 104.4 L 106.0 106.4 L 109.0 108.4 L 106.0 110.2 L 106.0 120.05454549789428 L 109.5 126.1 L 114.3 133.1 L 119.6 139.5 L 123.61999998092651 143.38599996566774 L 125.6 142.0 L 130.5 138.6 L 135.3 135.4 L 139.9 132.3 L 144.4 129.2 L 148.6 126.2 L 152.6 123.3 L 156.5 120.3 L 160.1 117.4 L 162.831942653656 115.13639039993286 L 162.8 115.1 L 163.6 114.5 L 170.7 124.1 L 170.9 127.7 L 167.37250442504882 126.26287212371827 L 166.7 126.7 L 162.5 129.2 L 158.1 131.7 L 153.4 134.2 L 148.6 136.6 L 143.6 138.9 L 138.4 141.2 L 133.0 143.4 L 127.3 145.4 L 126.14299860000611 145.72781705856323 L 132.2 150.5 L 139.5 155.1 L 147.6 159.2 L 156.4 162.8 L 166.0 165.9 L 176.5 168.4 L 185.2 170.5 L 173.4 181.2 L 162.3 177.8 L 152.0 173.8 L 142.6 169.1 L 134.0 163.8 L 126.4 157.8 L 119.7 151.2 L 114.0 144.0 L 109.3 136.3 L 106.0 128.6 L 106.0 171.9 L 105.8 174.5 L 105.4 177.0 L 104.6 179.4 L 103.3 181.7 L 101.7 183.7 L 99.7 185.3 L 97.4 186.5 L 95.0 187.4 L 92.5 187.8 L 90.0 187.9 L 90.0 181.9 L 70.0 178.9 Z M 88.0 130.5 L 83.0 133.5 L 81.37214488983155 134.17827301025392 L 80.6 136.6 L 77.3 143.0 L 73.0 149.0 L 67.8 154.4 L 61.6 159.4 L 54.5 164.0 L 46.6 168.1 L 37.7 171.7 L 27.9 174.8 L 17.2 177.4 L 16.7 175.7 L 26.6 171.3 L 35.5 166.8 L 43.5 162.3 L 50.4 157.6 L 56.3 152.8 L 61.2 147.9 L 65.0 142.9 L 67.9 137.8 L 69.9 132.7 L 70.39811325073242 130.5 L 28.0 130.5 L 28.0 126.5 L 71.0 126.5 L 77.0 121.5 Z M 177.36686210632325 71.05574045181274 L 184.6 77.9 L 184.7 81.2 L 180.98656272888184 79.61722345352173 L 173.7 82.7 L 165.4 85.8 L 156.5 88.7 L 147.0 91.4 L 137.1 93.8 L 126.6 96.1 L 115.5 98.1 L 103.9 99.9 L 91.6 101.3 L 78.9 102.3 L 78.6 100.5 L 91.0 97.5 L 102.8 94.6 L 114.1 91.7 L 124.8 88.7 L 134.8 85.7 L 144.3 82.5 L 153.2 79.2 L 161.5 75.8 L 169.1 72.3 L 175.32598218917846 69.14316396713257 L 175.3 69.1 L 175.3387661933899 69.13668193817139 L 176.2 68.7 Z M 65.7 99.5 L 63.7 100.8 L 61.6 101.9 L 59.5 102.8 L 57.3 103.5 L 55.0 104.1 L 52.7 104.5 L 50.3 104.8 L 48.0 104.9 L 48.0 98.9 L 32.0 95.9 L 32.0 92.9 L 48.0 92.9 L 51.0 92.7 L 52.4 92.4 L 53.8 92.0 L 55.1 91.6 L 57.7 90.4 L 58.9 89.6 L 60.1 88.7 L 61.3 87.7 L 62.1 86.8 L 63.0 85.6 L 63.9 83.9 L 64.7 81.8 L 65.5 79.3 L 66.2 76.4 L 66.8 73.0 L 67.3 69.3 L 67.7 65.2 L 67.84666662216186 63.0 L 32.60339622497558 63.0 L 31.5 67.3 L 18.4 70.2 L 28.1 32.1 L 36.541379356384276 39.3 L 67.0 39.3 L 67.0 22.6 L 18.0 22.6 L 18.0 18.6 L 67.0 18.6 L 73.0 13.6 L 84.0 22.6 L 79.0 26.6 L 79.0 45.3 L 67.0 51.3 L 67.0 43.3 L 37.65849056243896 43.3 L 33.62981128692627 59.0 L 68.0 59.0 L 74.0 54.0 L 85.0 63.0 L 80.0 66.0 L 79.69715366363525 66.12618598937988 L 79.2 70.7 L 78.7 74.9 L 78.0 78.8 L 77.1 82.5 L 76.0 85.9 L 74.8 89.0 L 73.3 91.8 L 71.5 94.3 L 69.4 96.6 L 67.6 98.1 Z M 159.7713747024536 57.044729995727536 L 166.3 63.5 L 166.4 66.8 L 162.77115383148194 65.26235332489014 L 158.1 67.4 L 151.8 70.0 L 145.2 72.5 L 138.3 74.8 L 131.0 77.0 L 123.3 79.0 L 115.3 80.9 L 106.9 82.6 L 98.1 84.0 L 88.9 85.1 L 88.5 83.3 L 97.2 80.3 L 105.5 77.4 L 113.5 74.6 L 121.0 71.8 L 128.2 69.0 L 135.0 66.1 L 141.4 63.2 L 147.4 60.2 L 153.0 57.2 L 158.2 54.2 Z M 143.5 45.13333330154419 L 149.3 51.0 L 149.4 54.4 L 145.71120004653932 52.873600006103516 L 143.2 54.1 L 138.6 56.0 L 133.7 57.8 L 128.6 59.6 L 123.3 61.2 L 117.6 62.7 L 111.7 64.1 L 105.5 65.3 L 99.1 66.2 L 92.3 66.9 L 91.8 65.2 L 98.1 62.6 L 104.1 60.1 L 109.8 57.8 L 115.2 55.5 L 120.4 53.2 L 125.2 50.9 L 129.7 48.6 L 133.9 46.3 L 137.9 44.0 L 140.63642225265502 42.25173025131225 L 140.6 42.2 L 140.64544401168823 42.24596633911133 L 141.5 41.7 Z M 168.2 48.1 L 163.2 45.3 L 158.3 42.2 L 153.7 38.9 L 149.2 35.3 L 145.0 31.5 L 141.0 27.3 L 137.56699028015137 23.00873785018921 L 136.2 24.5 L 131.5 29.0 L 126.6 33.2 L 121.3 37.1 L 115.8 40.6 L 110.1 43.8 L 104.0 46.7 L 97.7 49.2 L 91.1 51.3 L 84.3 52.9 L 83.7 51.2 L 89.7 47.8 L 95.4 44.4 L 100.9 41.0 L 106.1 37.4 L 111.0 33.6 L 115.6 29.7 L 119.9 25.7 L 123.9 21.4 L 127.7 17.0 L 130.5701289176941 13.145826816558838 L 130.5 13.1 L 131.6 11.8 L 140.6 19.7 L 140.72502040863037 20.08642683029175 L 144.9 22.9 L 149.5 25.8 L 154.0 28.5 L 158.7 31.0 L 163.4 33.3 L 168.1 35.4 L 173.0 37.3 L 177.9 38.9 L 183.0 40.3 L 190.5 42.8 L 178.9 52.9 L 173.5 50.6 Z " />
</g>
</svg>
