<svg xmlns="http://www.w3.org/2000/svg" xmlns:xlink="http://www.w3.org/1999/xlink" version="1.1" baseProfile="full" viewBox="0 0 200 200" width="200" height="200">
<g fill="black">
<path d="M 81.6 177.0 L 127.0 177.0 L 127.0 141.0 L 91.4 141.0 L 91.4 137.0 L 127.0 137.0 L 127.0 108.54038457870483 L 117.2 109.2 L 105.8 109.6 L 93.4 109.8 L 93.2 108.1 L 105.4 105.8 L 116.6 103.8 L 126.7 102.0 L 135.8 100.2 L 143.7 98.4 L 150.5 96.7 L 156.3 95.0 L 160.8 93.3 L 164.1 91.8 L 165.13843545913696 91.05001878738403 L 165.1 91.0 L 165.1430284500122 91.04670162200928 L 165.9 90.5 L 168.9198758125305 95.14596271514893 L 173.3 99.9 L 173.5 103.4 L 169.54687843322753 101.77639646530152 L 168.6 102.2 L 164.1 103.5 L 158.7 104.7 L 152.5 105.8 L 145.2 106.8 L 139.0 107.47228918075561 L 139.0 137.0 L 153.9 137.0 L 163.9 127.0 L 175.9 137.0 L 175.9 141.0 L 139.0 141.0 L 139.0 177.0 L 163.0 177.0 L 173.0 167.0 L 185.0 177.0 L 185.0 181.0 L 81.6 181.0 Z M 60.6 176.7 L 58.6 178.0 L 56.6 179.2 L 54.4 180.2 L 52.2 181.0 L 50.0 181.6 L 47.7 182.0 L 45.3 182.3 L 42.9 182.4 L 42.9 176.4 L 28.9 173.4 L 28.9 170.4 L 42.9 170.4 L 45.9 170.2 L 47.3 169.9 L 48.6 169.5 L 49.8 169.1 L 51.1 168.5 L 52.3 167.8 L 53.4 167.0 L 54.6 166.1 L 55.7 165.1 L 57.9 162.6 L 60.0 159.3 L 62.2 155.3 L 64.2 150.6 L 66.1 145.1 L 67.9 138.9 L 69.6 132.0 L 71.1 124.4 L 72.5 116.1 L 73.33999996185302 109.8 L 34.81105165481567 109.8 L 33.0 122.5 L 20.2 126.7 L 29.9 58.7 L 39.70259742736816 65.5 L 68.8 65.5 L 68.8 31.1 L 22.3 31.1 L 22.3 27.1 L 68.8 27.1 L 74.8 22.1 L 85.8 31.1 L 80.8 35.1 L 80.8 75.5 L 68.8 81.5 L 68.8 69.5 L 40.55793228149414 69.5 L 35.381461715698244 105.8 L 73.6 105.8 L 79.6 100.8 L 90.6 109.8 L 85.6 112.8 L 84.9617506980896 113.0659372329712 L 84.3 117.8 L 82.9 126.5 L 81.3 134.6 L 79.5 142.0 L 77.6 148.8 L 75.4 154.9 L 73.0 160.5 L 70.4 165.5 L 67.4 169.8 L 64.2 173.6 L 62.4 175.2 Z M 109.5 23.4 L 156.4 23.4 L 162.4 18.4 L 173.4 27.4 L 168.4 31.4 L 168.4 77.5 L 156.4 83.5 L 156.4 75.5 L 109.5 75.5 L 109.5 87.5 L 97.5 93.5 L 97.5 17.4 Z M 109.5 27.4 L 109.5 71.5 L 156.4 71.5 L 156.4 27.4 Z " />
</g>
</svg>
