<svg xmlns="http://www.w3.org/2000/svg" xmlns:xlink="http://www.w3.org/1999/xlink" version="1.1" baseProfile="full" viewBox="0 0 200 200" width="200" height="200">
<g fill="black">
<path d="M 166.7 182.8 L 160.6 179.0 L 155.1 175.1 L 150.3 170.8 L 146.0 166.3 L 142.5 161.6 L 139.6 156.7 L 137.5 151.5 L 137.35621299743653 150.8072081565857 L 136.8 152.4 L 133.6 158.2 L 129.4 163.5 L 124.3 168.3 L 118.4 172.6 L 111.6 176.4 L 104.0 179.8 L 95.6 182.7 L 86.2 185.2 L 76.0 187.1 L 75.6 185.3 L 85.1 181.5 L 93.6 177.7 L 101.2 173.9 L 107.8 169.8 L 113.4 165.7 L 118.0 161.5 L 121.7 157.1 L 124.4 152.7 L 126.2 148.3 L 126.28695650100708 147.9 L 83.4 147.9 L 83.4 143.9 L 127.1 143.9 L 127.1 122.0 L 109.73333330154419 122.0 L 109.2 122.8 L 106.4 126.6 L 103.2 130.1 L 99.8 133.4 L 96.1 136.4 L 92.1 139.2 L 87.8 141.8 L 86.7 140.4 L 89.8 136.7 L 92.6 132.9 L 95.2 129.3 L 97.5 125.6 L 99.6 122.0 L 101.4 118.3 L 102.9 114.6 L 104.2 110.8 L 105.2 107.0 L 106.0 103.1 L 106.05553560256958 103.11436262130738 L 106.5 101.4 L 117.6 106.1 L 120.0 108.8 L 116.25236597061158 109.89022083282471 L 116.0 110.6 L 114.0 114.8 L 112.28292684555053 118.0 L 158.9 118.0 L 168.9 108.0 L 180.9 118.0 L 180.9 122.0 L 139.1 122.0 L 139.1 143.9 L 164.6 143.9 L 174.6 133.9 L 186.6 143.9 L 186.6 147.9 L 139.91463413238526 147.9 L 141.2 149.6 L 144.5 153.4 L 148.0 157.0 L 151.9 160.4 L 156.2 163.6 L 161.0 166.7 L 166.2 169.5 L 172.0 172.2 L 178.3 174.8 L 185.1 177.1 L 192.0 179.7 L 180.5 189.5 L 173.3 186.3 Z M 65.2 180.2 L 63.6 182.0 L 61.7 183.6 L 59.7 184.9 L 57.5 186.0 L 55.3 186.9 L 52.9 187.5 L 50.4 187.8 L 48.0 188.0 L 48.0 182.0 L 32.0 179.0 L 32.0 176.0 L 48.0 176.0 L 49.3 175.9 L 50.6 175.7 L 51.7 175.4 L 52.7 175.1 L 53.6 174.6 L 54.5 174.0 L 55.3 173.3 L 56.1 172.5 L 56.8 171.5 L 57.6 170.3 L 59.2 166.9 L 60.8 162.8 L 62.3 158.0 L 63.6 152.6 L 64.7 146.5 L 65.7 139.8 L 66.6 132.5 L 67.2 124.6 L 67.7 116.0 L 67.92826089859008 109.0 L 32.72950820922851 109.0 L 31.1 121.6 L 18.5 126.0 L 27.0 59.3 L 37.140540504455565 66.0 L 67.0 66.0 L 67.0 29.0 L 18.0 29.0 L 18.0 25.0 L 67.0 25.0 L 73.0 20.0 L 84.0 29.0 L 79.0 33.0 L 79.0 76.0 L 67.0 82.0 L 67.0 70.0 L 37.77322406768799 70.0 L 33.24681234359741 105.0 L 68.0 105.0 L 74.0 100.0 L 85.0 109.0 L 80.0 112.0 L 79.79391775131225 112.08586759567261 L 79.7 116.5 L 79.2 125.4 L 78.5 133.6 L 77.6 141.4 L 76.6 148.5 L 75.3 155.1 L 73.9 161.2 L 72.2 166.7 L 70.2 171.7 L 68.1 176.1 L 66.7 178.3 Z M 164.6 97.1 L 158.5 93.3 L 153.0 89.3 L 148.3 85.1 L 144.2 80.7 L 140.9 76.0 L 138.4 71.1 L 137.57011880874634 68.50662136077881 L 135.8 73.0 L 132.3 79.0 L 127.8 84.4 L 122.5 89.1 L 116.3 93.3 L 109.3 96.8 L 101.5 99.8 L 92.8 102.1 L 83.4 103.7 L 82.9 101.9 L 91.7 98.4 L 99.4 94.8 L 106.2 91.0 L 112.1 87.0 L 116.9 82.7 L 120.8 78.3 L 123.8 73.6 L 126.0 68.8 L 127.3 63.7 L 127.50727272033691 61.8 L 90.3 61.8 L 90.3 57.8 L 127.9 57.8 L 127.9 35.2 L 102.2 35.2 L 102.2 31.2 L 127.9 31.2 L 127.9 12.2 L 139.9 14.2 L 142.9 16.2 L 139.9 18.0 L 139.9 31.2 L 158.3 31.2 L 164.3 26.2 L 175.3 35.2 L 170.3 39.2 L 170.3 57.8 L 172.7777777671814 57.8 L 179.0 50.8 L 187.0 57.8 L 187.0 61.8 L 139.37183094024658 61.8 L 139.2426001548767 62.4116925239563 L 140.6 64.5 L 143.4 68.1 L 146.6 71.6 L 150.2 74.9 L 154.3 78.0 L 158.9 81.0 L 164.1 83.8 L 169.9 86.5 L 176.3 89.1 L 183.3 91.5 L 190.3 94.1 L 178.8 103.9 L 171.4 100.6 Z M 139.9 35.2 L 139.9 57.8 L 158.3 57.8 L 158.3 35.2 Z " />
</g>
</svg>
