<svg xmlns="http://www.w3.org/2000/svg" xmlns:xlink="http://www.w3.org/1999/xlink" version="1.1" baseProfile="full" viewBox="0 0 200 200" width="200" height="200">
<g fill="black">
<path d="M 108.6 15.0 L 111.6 17.0 L 108.6 18.8 L 108.6 36.0 L 112.31818180084228 36.0 L 120.5 27.0 L 130.5 36.0 L 130.5 40.0 L 108.6 40.0 L 108.6 63.0 L 115.4 63.0 L 121.4 58.0 L 132.4 67.0 L 127.4 71.0 L 127.4 123.0 L 115.4 129.0 L 115.4 117.0 L 108.6 117.0 L 108.6 146.0 L 110.6 146.0 L 120.6 136.0 L 132.6 146.0 L 132.6 150.0 L 108.6 150.0 L 108.6 183.0 L 96.6 189.0 L 96.6 150.0 L 73.2 150.0 L 73.2 146.0 L 96.6 146.0 L 96.6 117.0 L 90.4 117.0 L 90.4 129.0 L 78.4 135.0 L 78.4 57.0 L 90.4 63.0 L 96.6 63.0 L 96.6 40.0 L 75.3 40.0 L 75.3 36.0 L 96.6 36.0 L 96.6 13.0 Z M 169.3 164.4 L 165.2 151.7 L 161.7 137.5 L 158.9 121.7 L 156.8 104.3 L 156.00092248916627 94.17835178375245 L 154.0 109.0 L 150.7 127.1 L 146.6 143.3 L 141.9 157.5 L 136.4 169.8 L 130.1 180.0 L 123.0 188.0 L 121.7 186.8 L 126.8 178.0 L 131.5 167.6 L 135.7 155.4 L 139.3 141.4 L 142.3 125.5 L 144.8 107.8 L 146.7 88.1 L 147.9 66.5 L 148.6 43.0 L 148.6 15.2 L 160.6 17.6 L 163.6 19.6 L 160.49477844238282 21.4631329536438 L 159.9 43.3 L 159.4732551574707 51.11271362304687 L 160.5 64.4 L 162.5 84.7 L 165.1 103.3 L 168.1 120.1 L 171.6 135.1 L 175.7 148.4 L 180.2 159.8 L 185.2 169.5 L 190.6 177.3 L 190.6 177.4 L 180.0 185.1 L 174.2 175.5 Z M 51.3 182.3 L 49.5 183.8 L 47.5 185.2 L 45.4 186.3 L 43.2 187.3 L 41.0 188.0 L 38.6 188.5 L 36.2 188.9 L 33.8 189.0 L 33.8 183.0 L 19.7 180.0 L 19.7 177.0 L 33.8 177.0 L 35.2 176.9 L 36.6 176.7 L 39.0 176.1 L 40.1 175.6 L 41.2 175.0 L 42.2 174.3 L 43.2 173.5 L 44.1 172.5 L 45.1 171.4 L 46.9 168.6 L 48.7 165.0 L 50.5 160.6 L 52.2 155.3 L 53.8 149.3 L 55.4 142.5 L 56.7 134.8 L 58.0 126.5 L 59.2 117.3 L 59.93737373352051 110.0 L 29.55642738342285 110.0 L 28.2 122.5 L 15.6 127.2 L 23.5 55.3 L 33.77945203781128 62.0 L 56.2 62.0 L 56.2 24.0 L 18.2 24.0 L 18.2 20.0 L 56.2 20.0 L 62.2 15.0 L 73.2 24.0 L 68.2 28.0 L 68.2 72.0 L 56.2 78.0 L 56.2 66.0 L 34.33105173110962 66.0 L 29.990484142303465 106.0 L 60.2 106.0 L 66.2 101.0 L 77.2 110.0 L 72.2 113.0 L 71.63577508926392 113.23509368896484 L 71.1 118.7 L 69.9 128.1 L 68.6 136.8 L 67.1 144.8 L 65.5 152.1 L 63.7 158.8 L 61.8 164.7 L 59.6 170.0 L 57.3 174.6 L 54.6 178.7 L 53.0 180.5 Z M 90.4 92.0 L 90.4 113.0 L 115.4 113.0 L 115.4 92.0 Z M 90.4 88.0 L 115.4 88.0 L 115.4 67.0 L 90.4 67.0 Z " />
</g>
</svg>
