<svg xmlns="http://www.w3.org/2000/svg" xmlns:xlink="http://www.w3.org/1999/xlink" version="1.1" baseProfile="full" viewBox="0 0 200 200" width="200" height="200">
<g fill="black">
<path d="M 187.4 26.0 L 187.4 30.0 L 144.0 30.0 L 144.0 58.8 L 169.0 58.8 L 175.0 53.8 L 186.0 62.8 L 181.0 66.8 L 181.0 174.1 L 169.0 180.1 L 169.0 168.1 L 106.9 168.1 L 106.9 180.1 L 94.9 186.1 L 94.9 52.8 L 106.9 58.8 L 132.0 58.8 L 132.0 30.0 L 88.5 30.0 L 88.5 26.0 L 165.4 26.0 L 175.4 16.0 Z M 65.2 180.2 L 63.6 182.0 L 61.7 183.6 L 59.7 184.9 L 57.5 186.0 L 55.3 186.9 L 52.9 187.5 L 50.4 187.8 L 48.0 188.0 L 48.0 182.0 L 32.0 179.0 L 32.0 176.0 L 48.0 176.0 L 49.3 175.9 L 50.6 175.7 L 51.7 175.4 L 52.7 175.1 L 53.6 174.6 L 54.5 174.0 L 55.3 173.3 L 56.1 172.5 L 56.8 171.5 L 57.6 170.3 L 59.2 166.9 L 60.8 162.8 L 62.3 158.0 L 63.6 152.6 L 64.7 146.5 L 65.7 139.8 L 66.6 132.5 L 67.2 124.6 L 67.7 116.0 L 67.92826089859008 109.0 L 32.72950820922851 109.0 L 31.1 121.6 L 18.5 126.0 L 27.0 59.3 L 37.140540504455565 66.0 L 67.0 66.0 L 67.0 29.0 L 18.0 29.0 L 18.0 25.0 L 67.0 25.0 L 73.0 20.0 L 84.0 29.0 L 79.0 33.0 L 79.0 76.0 L 67.0 82.0 L 67.0 70.0 L 37.77322406768799 70.0 L 33.24681234359741 105.0 L 68.0 105.0 L 74.0 100.0 L 85.0 109.0 L 80.0 112.0 L 79.79391775131225 112.08586759567261 L 79.7 116.5 L 79.2 125.4 L 78.5 133.6 L 77.6 141.4 L 76.6 148.5 L 75.3 155.1 L 73.9 161.2 L 72.2 166.7 L 70.2 171.7 L 68.1 176.1 L 66.7 178.3 Z M 153.8 117.7 L 152.1 112.0 L 150.2 106.7 L 148.2 101.9 L 146.1 97.5 L 143.9 93.5 L 141.5 89.9 L 140.49816179275513 88.5375 L 139.6 92.9 L 136.7 102.3 L 133.2 110.9 L 128.9 118.6 L 123.9 125.4 L 118.3 131.2 L 111.9 136.0 L 106.9 138.64285717010497 L 106.9 164.1 L 169.0 164.1 L 169.0 62.8 L 143.73389825820922 62.8 L 143.2 71.8 L 141.7 82.7 L 141.512931060791 83.60862064361572 L 145.4 86.2 L 149.0 89.5 L 152.4 93.4 L 155.6 97.8 L 158.6 102.8 L 161.4 108.3 L 164.0 114.2 L 166.3 120.7 L 168.5 127.6 L 167.7 132.1 L 164.1 134.9 L 159.6 134.1 L 156.8 130.5 L 155.4 123.8 Z M 106.9 62.8 L 106.9 135.51090908050537 L 109.5 133.1 L 114.4 127.5 L 118.6 121.5 L 122.3 114.9 L 125.4 107.5 L 127.9 99.5 L 129.8 90.8 L 131.1 81.3 L 131.8 71.0 L 131.94774770736694 62.8 Z " />
</g>
</svg>
