<svg xmlns="http://www.w3.org/2000/svg" xmlns:xlink="http://www.w3.org/1999/xlink" version="1.1" baseProfile="full" viewBox="0 0 200 200" width="200" height="200">
<g fill="black">
<path d="M 164.3 173.5 L 158.8 166.9 L 154.0 159.8 L 149.9 152.2 L 146.5 144.2 L 143.7 135.8 L 141.7 126.9 L 140.5 117.7 L 140.366380405426 113.4241717338562 L 139.9 116.6 L 136.6 129.8 L 132.0 141.9 L 126.1 152.8 L 119.1 162.6 L 110.8 171.1 L 101.4 178.4 L 90.9 184.3 L 79.3 188.8 L 78.6 187.1 L 89.0 181.0 L 98.2 174.1 L 106.2 166.4 L 113.1 158.0 L 118.8 148.6 L 123.4 138.3 L 126.9 127.0 L 129.3 114.7 L 129.9 109.0 L 95.0 109.0 L 95.0 105.0 L 130.32105264663696 105.0 L 130.7 101.4 L 131.0 87.0 L 131.0 63.0 L 110.82372884750366 63.0 L 109.4 66.0 L 106.3 71.6 L 102.9 76.9 L 99.0 81.9 L 94.7 86.5 L 93.2 85.4 L 95.8 79.8 L 98.2 74.3 L 100.4 68.7 L 102.4 63.0 L 104.2 57.3 L 105.7 51.4 L 106.9 45.4 L 107.8 39.2 L 108.5 32.9 L 108.83844184875488 27.40032033920288 L 108.8 27.4 L 109.1 24.3 L 120.8 27.5 L 123.7 29.7 L 120.23479537963867 31.3999116897583 L 119.8 34.4 L 118.4 41.2 L 116.6 47.7 L 114.6 54.0 L 112.63278684616088 59.0 L 131.0 59.0 L 131.0 13.0 L 143.0 15.0 L 146.0 17.0 L 143.0 18.8 L 143.0 59.0 L 161.0 59.0 L 171.0 49.0 L 183.0 59.0 L 183.0 63.0 L 143.0 63.0 L 143.0 87.0 L 142.0 102.3 L 141.60349645614625 105.0 L 166.0 105.0 L 176.0 95.0 L 188.0 105.0 L 188.0 109.0 L 142.342857170105 109.0 L 144.6 116.9 L 147.4 125.4 L 150.5 133.4 L 154.1 140.8 L 158.1 147.7 L 162.5 154.0 L 167.4 159.9 L 172.7 165.2 L 178.5 170.1 L 184.8 174.6 L 188.1 176.9 L 177.1 185.3 L 170.4 179.7 Z M 60.6 176.7 L 58.6 178.0 L 56.6 179.2 L 54.4 180.2 L 52.2 181.0 L 50.0 181.6 L 47.7 182.0 L 45.3 182.3 L 42.9 182.4 L 42.9 176.4 L 28.9 173.4 L 28.9 170.4 L 42.9 170.4 L 45.9 170.2 L 47.3 169.9 L 48.6 169.5 L 49.8 169.1 L 51.1 168.5 L 52.3 167.8 L 53.4 167.0 L 54.6 166.1 L 55.7 165.1 L 57.9 162.6 L 60.0 159.3 L 62.2 155.3 L 64.2 150.6 L 66.1 145.1 L 67.9 138.9 L 69.6 132.0 L 71.1 124.4 L 72.5 116.1 L 73.33999996185302 109.8 L 34.81105165481567 109.8 L 33.0 122.5 L 20.2 126.7 L 29.9 58.7 L 39.70259742736816 65.5 L 68.8 65.5 L 68.8 31.1 L 22.3 31.1 L 22.3 27.1 L 68.8 27.1 L 74.8 22.1 L 85.8 31.1 L 80.8 35.1 L 80.8 75.5 L 68.8 81.5 L 68.8 69.5 L 40.55793228149414 69.5 L 35.381461715698244 105.8 L 73.6 105.8 L 79.6 100.8 L 90.6 109.8 L 85.6 112.8 L 84.9617506980896 113.0659372329712 L 84.3 117.8 L 82.9 126.5 L 81.3 134.6 L 79.5 142.0 L 77.6 148.8 L 75.4 154.9 L 73.0 160.5 L 70.4 165.5 L 67.4 169.8 L 64.2 173.6 L 62.4 175.2 Z " />
</g>
</svg>
