<svg xmlns="http://www.w3.org/2000/svg" xmlns:xlink="http://www.w3.org/1999/xlink" version="1.1" baseProfile="full" viewBox="0 0 200 200" width="200" height="200">
<g fill="black">
<path d="M 152.6 176.0 L 166.6 176.0 L 167.9 175.9 L 168.8 175.7 L 169.7 175.4 L 169.9 175.2 L 170.0 175.0 L 170.2 174.7 L 170.4 174.1 L 170.6 173.2 L 170.6 138.65135135650635 L 167.4 140.9 L 162.9 140.0 L 160.3 136.2 L 159.1 129.6 L 157.8 123.4 L 156.4 117.7 L 154.9 112.4 L 153.3 107.7 L 151.6 103.3 L 149.8 99.3 L 148.11942443847656 95.93884887695313 L 147.6 98.7 L 145.2 108.1 L 142.1 116.6 L 138.5 124.3 L 134.3 131.2 L 129.4 137.1 L 123.9 141.9 L 120.8 143.86333332061767 L 120.8 183.0 L 108.8 189.0 L 108.8 59.0 L 120.8 65.0 L 139.4 65.0 L 139.4 36.0 L 104.4 36.0 L 104.4 32.0 L 166.1 32.0 L 176.1 22.0 L 188.1 32.0 L 188.1 36.0 L 151.4 36.0 L 151.4 65.0 L 170.6 65.0 L 176.6 60.0 L 187.6 69.0 L 182.6 73.0 L 182.6 172.0 L 182.5 174.5 L 182.1 177.0 L 181.2 179.4 L 180.0 181.7 L 178.4 183.7 L 176.4 185.3 L 174.1 186.6 L 171.7 187.4 L 169.2 187.8 L 166.6 188.0 L 166.6 182.0 L 152.6 179.0 Z M 91.3 178.2 L 90.0 180.2 L 88.3 182.1 L 86.4 183.8 L 84.3 185.1 L 82.0 186.1 L 79.7 186.8 L 77.2 187.2 L 74.6 187.3 L 74.6 181.3 L 54.6 178.3 L 54.6 175.3 L 75.9 175.3 L 77.0 175.1 L 77.9 174.8 L 78.7 174.5 L 79.3 174.1 L 80.4 173.0 L 80.9 172.2 L 81.4 171.2 L 81.8 170.0 L 82.4 167.7 L 83.0 164.4 L 83.6 160.3 L 84.1 155.4 L 84.6 149.7 L 85.1 143.3 L 85.5 136.0 L 85.8 128.0 L 86.1 119.3 L 86.33368425369262 111.9 L 67.36769227981567 111.9 L 66.8 124.2 L 54.5 129.6 L 55.33084115982056 111.32149534225464 L 54.2 112.0 L 54.09266548156738 112.04472274780274 L 54.0 116.4 L 53.7 125.2 L 53.4 133.3 L 52.9 140.9 L 52.3 147.9 L 51.6 154.3 L 50.8 160.1 L 49.9 165.4 L 48.9 170.1 L 47.7 174.3 L 46.8 176.6 L 45.7 178.9 L 44.3 180.9 L 42.7 182.8 L 40.8 184.4 L 38.6 185.7 L 36.4 186.7 L 34.0 187.4 L 31.5 187.8 L 29.0 188.0 L 29.0 182.0 L 17.0 179.0 L 17.0 176.0 L 29.0 176.0 L 30.3 175.9 L 31.4 175.7 L 32.3 175.4 L 33.0 175.1 L 33.7 174.7 L 34.3 174.2 L 34.8 173.6 L 35.3 172.8 L 35.8 171.8 L 36.3 170.6 L 37.3 167.2 L 38.2 163.1 L 39.0 158.3 L 39.7 152.8 L 40.4 146.8 L 40.9 140.0 L 41.4 132.7 L 41.7 124.7 L 42.0 116.1 L 42.154347801208495 109.0 L 27.00181818008423 109.0 L 26.1 121.4 L 13.6 126.5 L 18.6 59.5 L 29.433333301544188 66.0 L 41.6 66.0 L 41.6 29.0 L 15.9 29.0 L 15.9 25.0 L 41.6 25.0 L 47.6 20.0 L 58.6 29.0 L 53.6 33.0 L 53.6 76.0 L 41.6 82.0 L 41.6 70.0 L 29.8381817817688 70.0 L 27.292727279663087 105.0 L 42.2 105.0 L 48.2 100.0 L 55.57131471633911 106.03107566833496 L 57.7 59.2 L 69.136923122406 65.5 L 84.7 65.5 L 84.7 28.1 L 60.1 28.1 L 60.1 24.1 L 84.7 24.1 L 90.7 19.1 L 101.7 28.1 L 96.7 32.1 L 96.7 75.5 L 84.7 81.5 L 84.7 69.5 L 69.3246153831482 69.5 L 67.55230770111083 107.9 L 86.4 107.9 L 92.4 102.9 L 103.4 111.9 L 98.4 114.9 L 98.24485492706299 114.96464376449585 L 98.1 119.6 L 97.8 128.5 L 97.5 136.6 L 97.0 144.0 L 96.6 150.7 L 96.1 156.6 L 95.5 161.8 L 94.8 166.3 L 94.1 170.2 L 93.3 173.5 L 92.4 175.9 Z M 120.8 69.0 L 120.8 139.7555555343628 L 121.3 139.2 L 125.2 133.7 L 128.7 127.7 L 131.6 121.1 L 134.2 113.8 L 136.2 105.7 L 137.7 96.9 L 138.8 87.4 L 139.4 77.0 L 139.4 69.0 Z M 151.22051286697388 69.0 L 150.7 77.7 L 149.5 88.6 L 149.21461305618286 90.11705703735352 L 152.2 92.4 L 155.3 95.7 L 158.3 99.6 L 161.0 104.1 L 163.6 109.1 L 166.0 114.5 L 168.1 120.5 L 170.2 126.9 L 170.6 128.4333333015442 L 170.6 69.0 Z " />
</g>
</svg>
