<svg xmlns="http://www.w3.org/2000/svg" xmlns:xlink="http://www.w3.org/1999/xlink" version="1.1" baseProfile="full" viewBox="0 0 200 200" width="200" height="200">
<g fill="black">
<path d="M 67.4 178.7 L 87.2 178.7 L 87.2 134.2 L 98.2 139.7 L 158.7 139.7 L 164.2 134.7 L 174.7 143.7 L 169.7 147.2 L 169.7 178.7 L 175.2777777671814 178.7 L 181.5 171.7 L 189.5 178.7 L 189.5 182.7 L 67.4 182.7 Z M 98.2 143.7 L 98.2 178.7 L 111.5 178.7 L 111.5 143.7 Z M 121.5 143.7 L 121.5 178.7 L 135.4 178.7 L 135.4 143.7 Z M 145.4 143.7 L 145.4 178.7 L 158.7 178.7 L 158.7 143.7 Z M 51.3 182.3 L 49.5 183.8 L 47.5 185.2 L 45.4 186.3 L 43.2 187.3 L 41.0 188.0 L 38.6 188.5 L 36.2 188.9 L 33.8 189.0 L 33.8 183.0 L 19.7 180.0 L 19.7 177.0 L 33.8 177.0 L 35.2 176.9 L 36.6 176.7 L 39.0 176.1 L 40.1 175.6 L 41.2 175.0 L 42.2 174.3 L 43.2 173.5 L 44.1 172.5 L 45.1 171.4 L 46.9 168.6 L 48.7 165.0 L 50.5 160.6 L 52.2 155.3 L 53.8 149.3 L 55.4 142.5 L 56.7 134.8 L 58.0 126.5 L 59.2 117.3 L 59.93737373352051 110.0 L 29.55642738342285 110.0 L 28.2 122.5 L 15.6 127.2 L 23.5 55.3 L 33.77945203781128 62.0 L 56.2 62.0 L 56.2 24.0 L 18.2 24.0 L 18.2 20.0 L 56.2 20.0 L 62.2 15.0 L 73.2 24.0 L 68.2 28.0 L 68.2 72.0 L 56.2 78.0 L 56.2 66.0 L 34.33105173110962 66.0 L 29.990484142303465 106.0 L 60.2 106.0 L 66.2 101.0 L 77.2 110.0 L 72.2 113.0 L 71.63577508926392 113.23509368896484 L 71.1 118.7 L 69.9 128.1 L 68.6 136.8 L 67.1 144.8 L 65.5 152.1 L 63.7 158.8 L 61.8 164.7 L 59.6 170.0 L 57.3 174.6 L 54.6 178.7 L 53.0 180.5 Z M 86.8 131.6 L 86.8 81.6 L 98.8 87.6 L 162.1 87.6 L 168.1 82.6 L 179.1 91.6 L 174.1 95.6 L 174.1 125.6 L 162.1 131.6 L 162.1 125.6 L 98.8 125.6 Z M 98.8 91.6 L 98.8 121.6 L 111.9 121.6 L 111.9 91.6 Z M 123.9 91.6 L 123.9 121.6 L 137.0 121.6 L 137.0 91.6 Z M 149.0 91.6 L 149.0 121.6 L 162.1 121.6 L 162.1 91.6 Z M 90.8 68.2 L 110.8 68.2 L 112.0 68.1 L 112.9 68.0 L 113.5 67.8 L 114.1 67.5 L 114.4 66.9 L 114.6 66.3 L 114.7 65.4 L 114.8 64.2 L 114.8 50.60975608825684 L 111.5 52.3 L 107.4 54.2 L 103.3 56.0 L 99.2 57.6 L 95.2 59.2 L 91.3 60.7 L 87.3 62.1 L 83.70938072204589 63.42285976409912 L 82.3 67.2 L 79.6 64.8 L 74.9 53.6 L 76.8 53.1 L 80.7 52.5 L 84.7 51.9 L 88.7 51.2 L 92.8 50.5 L 97.0 49.8 L 101.3 49.0 L 105.6 48.3 L 110.1 47.6 L 114.6 47.0 L 114.8 46.96956520080566 L 114.8 21.5 L 78.6 21.5 L 78.6 17.5 L 114.8 17.5 L 120.8 12.5 L 131.8 21.5 L 126.8 25.5 L 126.8 64.2 L 126.7 66.8 L 126.2 69.3 L 125.4 71.7 L 124.2 73.9 L 122.5 75.9 L 120.5 77.6 L 118.3 78.8 L 115.9 79.6 L 113.4 80.1 L 110.8 80.2 L 110.8 74.2 L 90.8 71.2 Z M 151.5 68.2 L 163.5 68.2 L 164.7 68.1 L 165.6 68.0 L 166.2 67.8 L 166.5 67.6 L 166.7 67.5 L 166.9 67.3 L 167.0 66.9 L 167.2 66.3 L 167.4 65.4 L 167.5 64.2 L 167.5 50.553846168518064 L 167.2 50.7 L 163.3 52.7 L 159.5 54.5 L 155.6 56.1 L 151.8 57.7 L 148.1 59.2 L 144.4 60.6 L 140.7 61.9 L 137.6307583808899 63.00833721160889 L 136.2 66.9 L 133.6 64.4 L 128.8 53.2 L 130.8 52.8 L 134.4 52.2 L 138.1 51.7 L 141.9 51.1 L 149.7 49.9 L 153.7 49.3 L 157.8 48.7 L 162.0 48.1 L 166.3 47.7 L 167.5 47.53255815505982 L 167.5 21.5 L 133.8 21.5 L 133.8 17.5 L 167.5 17.5 L 173.5 12.5 L 184.5 21.5 L 179.5 25.5 L 179.5 64.2 L 179.3 66.8 L 178.9 69.3 L 178.1 71.7 L 176.8 73.9 L 175.2 75.9 L 173.2 77.6 L 170.9 78.8 L 168.5 79.6 L 166.0 80.1 L 163.5 80.2 L 163.5 74.2 L 151.5 71.2 Z M 95.6 39.2 L 95.2 37.9 L 94.6 36.6 L 93.8 35.1 L 92.7 33.7 L 91.5 32.2 L 90.0 30.6 L 88.4 28.9 L 86.3 27.8 L 87.0 26.1 L 89.3 27.0 L 91.7 27.4 L 94.0 28.0 L 96.2 28.7 L 98.3 29.6 L 100.2 30.6 L 102.0 31.8 L 103.8 33.1 L 105.3 34.6 L 106.8 36.3 L 106.9 40.9 L 103.9 44.3 L 99.3 44.4 L 95.9 41.4 L 95.8 40.3 Z M 149.4 38.6 L 148.9 37.3 L 148.2 36.0 L 147.3 34.5 L 146.3 33.1 L 145.1 31.5 L 143.7 29.9 L 142.1 28.2 L 140.2 27.1 L 140.9 25.4 L 143.1 26.4 L 145.5 26.8 L 147.7 27.4 L 149.8 28.2 L 151.8 29.0 L 153.7 29.9 L 155.5 30.9 L 157.2 32.1 L 158.8 33.4 L 160.2 34.9 L 160.8 39.4 L 158.1 43.0 L 153.5 43.6 L 149.9 40.9 L 149.7 39.8 Z " />
</g>
</svg>
