<svg xmlns="http://www.w3.org/2000/svg" xmlns:xlink="http://www.w3.org/1999/xlink" version="1.1" baseProfile="full" viewBox="0 0 200 200" width="200" height="200">
<g fill="black">
<path d="M 126.4 178.2 L 123.9 177.7 L 121.5 176.9 L 119.3 175.7 L 117.2 174.1 L 115.6 172.0 L 114.4 169.8 L 113.6 167.4 L 113.1 164.9 L 113.0 162.3 L 113.0 115.8 L 125.0 117.8 L 128.0 119.8 L 125.0 121.6 L 125.0 162.3 L 125.1 163.6 L 125.2 164.5 L 125.4 165.1 L 125.6 165.4 L 125.7 165.6 L 126.3 165.9 L 126.8 166.1 L 127.8 166.3 L 155.4 166.3 L 161.4 141.3 L 163.4 141.3 L 161.4 166.3 L 165.0 168.7 L 167.4 172.3 L 165.0 175.9 L 161.4 178.3 L 129.0 178.3 Z M 60.6 176.7 L 58.6 178.0 L 56.6 179.2 L 54.4 180.2 L 52.2 181.0 L 50.0 181.6 L 47.7 182.0 L 45.3 182.3 L 42.9 182.4 L 42.9 176.4 L 28.9 173.4 L 28.9 170.4 L 42.9 170.4 L 45.9 170.2 L 47.3 169.9 L 48.6 169.5 L 49.8 169.1 L 51.1 168.5 L 52.3 167.8 L 53.4 167.0 L 54.6 166.1 L 55.7 165.1 L 57.9 162.6 L 60.0 159.3 L 62.2 155.3 L 64.2 150.6 L 66.1 145.1 L 67.9 138.9 L 69.6 132.0 L 71.1 124.4 L 72.5 116.1 L 73.33999996185302 109.8 L 34.81105165481567 109.8 L 33.0 122.5 L 20.2 126.7 L 29.9 58.7 L 39.70259742736816 65.5 L 68.8 65.5 L 68.8 31.1 L 22.3 31.1 L 22.3 27.1 L 68.8 27.1 L 74.8 22.1 L 85.8 31.1 L 80.8 35.1 L 80.8 75.5 L 68.8 81.5 L 68.8 69.5 L 40.55793228149414 69.5 L 35.381461715698244 105.8 L 73.6 105.8 L 79.6 100.8 L 90.6 109.8 L 85.6 112.8 L 84.9617506980896 113.0659372329712 L 84.3 117.8 L 82.9 126.5 L 81.3 134.6 L 79.5 142.0 L 77.6 148.8 L 75.4 154.9 L 73.0 160.5 L 70.4 165.5 L 67.4 169.8 L 64.2 173.6 L 62.4 175.2 Z M 88.4 160.3 L 87.6 155.8 L 90.1 152.0 L 91.3 151.6 L 92.6 150.8 L 94.0 149.4 L 95.4 147.6 L 96.7 145.2 L 98.0 142.4 L 99.3 139.1 L 100.4 135.3 L 101.5 131.0 L 102.2 126.3 L 104.0 126.4 L 104.2 131.2 L 104.6 135.7 L 104.7 140.0 L 104.5 143.9 L 104.1 147.6 L 103.3 151.0 L 102.3 154.1 L 100.9 157.1 L 99.0 159.7 L 96.7 162.1 L 92.2 162.9 Z M 172.5 146.1 L 172.0 143.7 L 171.3 141.3 L 170.4 138.9 L 169.2 136.4 L 167.8 133.8 L 166.2 131.2 L 164.5 128.6 L 162.2 126.2 L 163.3 124.7 L 166.2 126.6 L 169.1 128.3 L 171.8 130.3 L 174.4 132.4 L 176.6 134.7 L 178.7 137.1 L 180.6 139.7 L 182.2 142.5 L 183.6 145.5 L 184.7 148.5 L 183.8 153.0 L 180.0 155.6 L 175.5 154.6 L 173.0 150.8 L 172.8 148.5 Z M 137.4 111.2 L 136.4 109.2 L 135.2 107.3 L 133.7 105.3 L 132.0 103.3 L 130.1 101.4 L 128.0 99.4 L 125.6 97.3 L 122.8 95.8 L 123.4 94.1 L 126.6 95.1 L 129.9 95.8 L 132.9 96.9 L 135.8 98.1 L 138.5 99.6 L 141.1 101.2 L 143.5 103.1 L 145.7 105.2 L 147.7 107.4 L 149.6 109.9 L 149.8 114.5 L 146.8 117.9 L 142.2 118.2 L 138.8 115.2 L 138.2 113.2 Z M 112.6 24.5 L 160.3 24.5 L 166.3 19.5 L 177.3 28.5 L 172.3 32.5 L 172.3 80.4 L 160.3 86.4 L 160.3 74.4 L 112.6 74.4 L 112.6 86.4 L 100.6 92.4 L 100.6 18.5 Z M 112.6 28.5 L 112.6 70.4 L 160.3 70.4 L 160.3 28.5 Z " />
</g>
</svg>
