<svg xmlns="http://www.w3.org/2000/svg" xmlns:xlink="http://www.w3.org/1999/xlink" version="1.1" baseProfile="full" viewBox="0 0 200 200" width="200" height="200">
<g fill="black">
<path d="M 32.5 176.3 L 49.7 176.3 L 50.6 176.1 L 51.2 175.9 L 51.6 175.7 L 51.9 175.4 L 52.1 175.1 L 52.3 174.5 L 52.4 173.6 L 52.5 172.3 L 52.5 134.6 L 13.1 134.6 L 13.1 130.6 L 52.5 130.6 L 52.5 104.1 L 22.9 104.1 L 22.9 100.1 L 74.91818180084229 100.1 L 83.1 91.1 L 93.1 100.1 L 93.1 104.1 L 64.5 104.1 L 64.5 130.6 L 81.9 130.6 L 91.9 120.6 L 103.9 130.6 L 103.9 134.6 L 64.5 134.6 L 64.5 172.3 L 64.4 174.9 L 63.9 177.4 L 63.1 179.8 L 61.9 182.0 L 60.2 184.1 L 58.2 185.7 L 56.0 186.9 L 53.5 187.7 L 51.1 188.2 L 48.5 188.3 L 48.5 182.3 L 32.5 179.3 Z M 168.1 183.3 L 166.1 184.5 L 164.0 185.5 L 161.9 186.4 L 159.7 187.1 L 157.4 187.6 L 155.1 188.0 L 152.8 188.2 L 150.4 188.3 L 150.4 182.3 L 130.4 179.3 L 130.4 176.3 L 152.0 176.3 L 155.0 175.9 L 157.8 175.1 L 159.1 174.5 L 160.5 173.9 L 161.7 173.1 L 163.0 172.3 L 164.3 171.3 L 164.5 171.0 L 165.1 170.2 L 165.8 168.8 L 166.5 166.8 L 167.3 164.3 L 168.0 161.4 L 168.6 157.9 L 169.2 154.0 L 169.8 149.7 L 169.99166669845582 147.4 L 118.72222223281861 147.4 L 118.0 151.4 L 105.1 155.2 L 112.4 114.5 L 121.73333330154419 121.5 L 166.8 121.5 L 166.8 104.1 L 110.1 104.1 L 110.1 100.1 L 166.8 100.1 L 172.8 95.1 L 183.8 104.1 L 178.8 108.1 L 178.8 127.5 L 166.8 133.5 L 166.8 125.5 L 122.67638893127442 125.5 L 119.4444444656372 143.4 L 170.2 143.4 L 176.2 138.4 L 187.2 147.4 L 182.2 150.4 L 181.74003410339355 150.5916524887085 L 181.7 151.0 L 181.1 155.7 L 180.5 160.0 L 179.7 163.9 L 178.9 167.4 L 177.9 170.6 L 176.8 173.5 L 175.5 176.1 L 173.9 178.5 L 171.9 180.6 L 170.1 182.0 Z M 84.0 82.9 L 84.0 86.9 L 32.0 86.9 L 32.0 82.9 L 65.81818180084228 82.9 L 74.0 73.9 Z M 168.0 82.9 L 168.0 86.9 L 116.0 86.9 L 116.0 82.9 L 149.8181818008423 82.9 L 158.0 73.9 Z M 13.5 74.1 L 12.5 69.6 L 14.9 65.7 L 16.9 64.6 L 18.7 63.1 L 20.5 61.1 L 22.2 58.7 L 23.8 55.7 L 25.2 52.3 L 26.4 48.4 L 27.5 44.0 L 28.5 39.1 L 29.1 33.8 L 30.9 33.7 L 31.6 39.2 L 31.903921604156494 42.3 L 94.0 42.3 L 94.0 26.1 L 34.0 26.1 L 34.0 22.1 L 148.0 22.1 L 158.0 12.1 L 170.0 22.1 L 170.0 26.1 L 106.0 26.1 L 106.0 42.3 L 173.0 42.3 L 173.50769233703613 41.87692308425903 L 173.6 41.6 L 173.7484393119812 41.676300621032716 L 179.0 37.3 L 190.0 46.3 L 185.0 49.3 L 181.55652170181276 50.73478260040283 L 181.0 51.5 L 179.2 53.6 L 177.4 55.6 L 175.6 57.7 L 173.7 59.6 L 169.7 63.4 L 167.5 65.1 L 165.7 67.1 L 164.2 66.0 L 165.5 63.7 L 166.5 61.1 L 167.4 58.6 L 168.4 56.1 L 170.2 51.3 L 171.1 48.8 L 172.0 46.4 L 172.0333333015442 46.3 L 106.0 46.3 L 106.0 77.0 L 94.0 83.0 L 94.0 46.3 L 32.181632614135744 46.3 L 32.3 49.2 L 32.0 53.8 L 31.4 58.1 L 30.3 62.2 L 28.9 66.0 L 27.0 69.5 L 24.7 72.7 L 21.9 75.5 L 17.4 76.4 Z M 84.0 63.6 L 84.0 67.6 L 37.0 67.6 L 37.0 63.6 L 65.81818180084228 63.6 L 74.0 54.6 Z M 161.0 63.6 L 161.0 67.6 L 116.0 67.6 L 116.0 63.6 L 142.8181818008423 63.6 L 151.0 54.6 Z " />
</g>
</svg>
