<svg xmlns="http://www.w3.org/2000/svg" xmlns:xlink="http://www.w3.org/1999/xlink" version="1.1" baseProfile="full" viewBox="0 0 200 200" width="200" height="200">
<g fill="black">
<path d="M 168.7 176.2 L 164.1 172.9 L 159.6 169.3 L 155.5 165.5 L 151.5 161.6 L 147.8 157.5 L 144.4 153.2 L 142.0 149.5199999809265 L 142.0 182.6 L 130.0 188.6 L 130.0 155.80909090042115 L 125.8 160.2 L 121.0 164.4 L 116.0 168.4 L 110.6 172.0 L 105.0 175.3 L 99.1 178.3 L 92.8 180.8 L 86.2 182.8 L 85.5 181.1 L 91.1 177.4 L 96.4 173.6 L 101.4 169.8 L 106.1 165.9 L 110.5 161.9 L 114.6 157.7 L 118.4 153.3 L 121.9 148.8 L 124.8957447052002 144.4 L 88.8 144.4 L 88.8 140.4 L 130.0 140.4 L 130.0 130.6 L 142.0 132.6 L 145.0 134.6 L 142.0 136.4 L 142.0 140.4 L 161.3 140.4 L 171.3 130.4 L 183.3 140.4 L 183.3 144.4 L 142.61875 144.4 L 144.5 145.8 L 148.7 149.1 L 152.8 152.3 L 157.0 155.3 L 161.3 158.2 L 165.7 161.0 L 170.2 163.6 L 174.8 166.1 L 179.6 168.5 L 184.5 170.6 L 189.9 173.3 L 178.6 182.5 L 173.5 179.4 Z M 65.2 180.2 L 63.6 182.0 L 61.7 183.6 L 59.7 184.9 L 57.5 186.0 L 55.3 186.9 L 52.9 187.5 L 50.4 187.8 L 48.0 188.0 L 48.0 182.0 L 32.0 179.0 L 32.0 176.0 L 48.0 176.0 L 49.3 175.9 L 50.6 175.7 L 51.7 175.4 L 52.7 175.1 L 53.6 174.6 L 54.5 174.0 L 55.3 173.3 L 56.1 172.5 L 56.8 171.5 L 57.6 170.3 L 59.2 166.9 L 60.8 162.8 L 62.3 158.0 L 63.6 152.6 L 64.7 146.5 L 65.7 139.8 L 66.6 132.5 L 67.2 124.6 L 67.7 116.0 L 67.92826089859008 109.0 L 32.72950820922851 109.0 L 31.1 121.6 L 18.5 126.0 L 27.0 59.3 L 37.140540504455565 66.0 L 67.0 66.0 L 67.0 29.0 L 18.0 29.0 L 18.0 25.0 L 67.0 25.0 L 73.0 20.0 L 84.0 29.0 L 79.0 33.0 L 79.0 76.0 L 67.0 82.0 L 67.0 70.0 L 37.77322406768799 70.0 L 33.24681234359741 105.0 L 68.0 105.0 L 74.0 100.0 L 85.0 109.0 L 80.0 112.0 L 79.79391775131225 112.08586759567261 L 79.7 116.5 L 79.2 125.4 L 78.5 133.6 L 77.6 141.4 L 76.6 148.5 L 75.3 155.1 L 73.9 161.2 L 72.2 166.7 L 70.2 171.7 L 68.1 176.1 L 66.7 178.3 Z M 167.1 84.9 L 167.1 88.9 L 132.325 88.9 L 131.5 90.1 L 128.1 94.7 L 124.5 99.1 L 121.92148761749267 101.81074380874634 L 122.5 102.1 L 153.5 102.1 L 159.5 97.1 L 170.5 106.1 L 165.5 110.1 L 165.5 126.3 L 153.5 132.3 L 153.5 126.3 L 122.5 126.3 L 110.5 132.3 L 110.5 111.4782608985901 L 107.5 113.5 L 102.6 116.3 L 97.6 118.7 L 92.2 120.6 L 86.6 122.1 L 85.9 120.5 L 90.5 117.2 L 94.9 114.0 L 99.0 110.8 L 102.9 107.4 L 106.6 103.9 L 110.0 100.3 L 110.5 99.6709677696228 L 110.5 96.1 L 112.53119268417359 97.11559629440308 L 113.1 96.4 L 116.1 92.4 L 118.35 88.9 L 100.4 88.9 L 100.4 84.9 L 152.87777776718139 84.9 L 159.1 77.9 Z M 122.5 106.1 L 122.5 122.3 L 153.5 122.3 L 153.5 106.1 Z M 85.8 97.5 L 84.3 93.2 L 86.1 89.0 L 87.0 88.6 L 88.0 87.7 L 89.2 86.2 L 90.3 84.2 L 91.4 81.7 L 92.4 78.6 L 93.4 75.2 L 94.3 71.3 L 95.2 66.9 L 95.6 62.2 L 97.4 62.1 L 97.9 67.0 L 98.26000003814697 69.7 L 129.5 69.7 L 129.5 59.0 L 109.8 59.0 L 97.8 65.0 L 97.8 33.0 L 109.8 39.0 L 129.5 39.0 L 129.5 29.0 L 89.1 29.0 L 89.1 25.0 L 129.5 25.0 L 129.5 13.0 L 141.5 15.0 L 144.5 17.0 L 141.5 18.8 L 141.5 25.0 L 163.61818180084228 25.0 L 171.8 16.0 L 181.8 25.0 L 181.8 29.0 L 141.5 29.0 L 141.5 39.0 L 161.1 39.0 L 167.1 34.0 L 178.1 43.0 L 173.1 47.0 L 173.1 59.0 L 161.1 65.0 L 161.1 59.0 L 141.5 59.0 L 141.5 69.7 L 172.4 69.7 L 178.4 64.7 L 189.4 73.7 L 184.4 76.7 L 180.91779136657715 78.1509202003479 L 180.2 79.2 L 178.7 81.1 L 177.2 83.1 L 175.5 85.2 L 173.7 87.4 L 171.8 89.6 L 169.7 91.9 L 167.9 94.5 L 166.3 93.6 L 167.6 90.7 L 168.4 87.7 L 169.1 84.9 L 169.9 82.3 L 170.6 79.8 L 171.2 77.4 L 171.7 75.2 L 172.057142829895 73.7 L 98.70952377319335 73.7 L 98.9 75.7 L 99.0 79.6 L 98.9 83.2 L 98.6 86.5 L 98.1 89.6 L 97.2 92.6 L 96.0 95.3 L 94.3 97.8 L 90.0 99.3 Z M 109.8 43.0 L 109.8 55.0 L 129.5 55.0 L 129.5 43.0 Z M 141.5 43.0 L 141.5 55.0 L 161.1 55.0 L 161.1 43.0 Z " />
</g>
</svg>
