<svg xmlns="http://www.w3.org/2000/svg" xmlns:xlink="http://www.w3.org/1999/xlink" version="1.1" baseProfile="full" viewBox="0 0 200 200" width="200" height="200">
<g fill="black">
<path d="M 133.7 176.0 L 153.7 176.0 L 154.9 175.9 L 155.8 175.7 L 156.7 175.4 L 157.1 175.0 L 157.3 174.7 L 157.4 174.1 L 157.6 173.2 L 157.7 172.0 L 157.7 108.0 L 117.96333332061768 108.0 L 117.6 118.9 L 116.6 130.1 L 115.2 140.4 L 113.2 150.0 L 110.7 158.6 L 107.6 166.4 L 104.0 173.3 L 99.9 179.2 L 95.1 184.0 L 89.8 187.6 L 88.7 186.3 L 92.3 181.5 L 95.4 176.2 L 98.2 170.3 L 100.6 163.7 L 102.5 156.3 L 104.1 148.1 L 105.2 139.1 L 105.9 129.2 L 106.2 118.6 L 106.01724138259888 108.0 L 86.8 108.0 L 86.8 104.0 L 106.0 104.0 L 106.0 41.0 L 118.0 47.0 L 122.44285717010499 47.0 L 123.1 44.7 L 123.7 41.6 L 124.3 38.6 L 125.5 32.2 L 126.1 28.9 L 126.6 25.5 L 127.1 22.0 L 127.6 18.4 L 127.97697973251343 15.610350227355957 L 127.9 15.6 L 128.5 12.8 L 139.8 17.2 L 142.3 19.8 L 138.5648775100708 21.090315055847167 L 137.2 24.6 L 135.8 28.1 L 134.4 31.5 L 132.8 34.7 L 131.2 37.8 L 129.5 40.7 L 127.7 43.4 L 125.7 45.9 L 124.9079999923706 47.0 L 157.7 47.0 L 163.7 42.0 L 174.7 51.0 L 169.7 55.0 L 169.7 104.0 L 173.11818180084228 104.0 L 181.3 95.0 L 191.3 104.0 L 191.3 108.0 L 169.7 108.0 L 169.7 172.0 L 169.5 174.5 L 169.1 177.0 L 168.3 179.4 L 167.1 181.7 L 165.4 183.7 L 163.4 185.3 L 161.1 186.6 L 158.7 187.4 L 156.2 187.8 L 153.7 188.0 L 153.7 182.0 L 133.7 179.0 Z M 65.2 180.2 L 63.6 182.0 L 61.7 183.6 L 59.7 184.9 L 57.5 186.0 L 55.3 186.9 L 52.9 187.5 L 50.4 187.8 L 48.0 188.0 L 48.0 182.0 L 32.0 179.0 L 32.0 176.0 L 48.0 176.0 L 49.3 175.9 L 50.6 175.7 L 51.7 175.4 L 52.7 175.1 L 53.6 174.6 L 54.5 174.0 L 55.3 173.3 L 56.1 172.5 L 56.8 171.5 L 57.6 170.3 L 59.2 166.9 L 60.8 162.8 L 62.3 158.0 L 63.6 152.6 L 64.7 146.5 L 65.7 139.8 L 66.6 132.5 L 67.2 124.6 L 67.7 116.0 L 67.92826089859008 109.0 L 32.72950820922851 109.0 L 31.1 121.6 L 18.5 126.0 L 27.0 59.3 L 37.140540504455565 66.0 L 67.0 66.0 L 67.0 29.0 L 18.0 29.0 L 18.0 25.0 L 67.0 25.0 L 73.0 20.0 L 84.0 29.0 L 79.0 33.0 L 79.0 76.0 L 67.0 82.0 L 67.0 70.0 L 37.77322406768799 70.0 L 33.24681234359741 105.0 L 68.0 105.0 L 74.0 100.0 L 85.0 109.0 L 80.0 112.0 L 79.79391775131225 112.08586759567261 L 79.7 116.5 L 79.2 125.4 L 78.5 133.6 L 77.6 141.4 L 76.6 148.5 L 75.3 155.1 L 73.9 161.2 L 72.2 166.7 L 70.2 171.7 L 68.1 176.1 L 66.7 178.3 Z M 142.6 119.0 L 145.6 121.0 L 142.6 122.8 L 142.6 164.0 L 130.6 170.0 L 130.6 117.0 Z M 118.0 51.0 L 118.0 104.0 L 157.7 104.0 L 157.7 51.0 Z M 134.0 84.9 L 133.8 82.4 L 133.4 79.8 L 132.9 77.1 L 132.2 74.3 L 131.4 71.4 L 130.4 68.4 L 129.4 65.3 L 127.8 62.3 L 129.3 61.3 L 131.6 63.9 L 134.0 66.4 L 136.1 68.9 L 138.1 71.5 L 139.8 74.2 L 141.4 76.9 L 142.8 79.7 L 144.0 82.5 L 145.1 85.4 L 145.9 88.3 L 144.6 92.7 L 140.6 94.9 L 136.3 93.6 L 134.0 89.7 L 134.1 87.3 Z " />
</g>
</svg>
