<svg xmlns="http://www.w3.org/2000/svg" xmlns:xlink="http://www.w3.org/1999/xlink" version="1.1" baseProfile="full" viewBox="0 0 200 200" width="200" height="200">
<g fill="black">
<path d="M 63.0 15.0 L 66.0 17.0 L 63.0 18.8 L 63.0 36.0 L 75.0 36.0 L 85.0 26.0 L 97.0 36.0 L 97.0 40.0 L 63.0 40.0 L 63.0 63.0 L 78.0 63.0 L 84.0 58.0 L 95.0 67.0 L 90.0 71.0 L 90.0 123.0 L 78.0 129.0 L 78.0 117.0 L 63.0 117.0 L 63.0 146.0 L 78.0 146.0 L 88.0 136.0 L 100.0 146.0 L 100.0 150.0 L 63.0 150.0 L 63.0 183.0 L 51.0 189.0 L 51.0 150.0 L 15.0 150.0 L 15.0 146.0 L 51.0 146.0 L 51.0 117.0 L 37.0 117.0 L 37.0 129.0 L 25.0 135.0 L 25.0 57.0 L 37.0 63.0 L 51.0 63.0 L 51.0 40.0 L 18.0 40.0 L 18.0 36.0 L 51.0 36.0 L 51.0 13.0 Z M 162.5 180.1 L 160.6 181.6 L 158.6 182.9 L 156.5 184.0 L 154.3 184.9 L 152.1 185.6 L 149.7 186.1 L 147.3 186.3 L 144.9 186.4 L 144.9 180.4 L 126.9 177.4 L 126.9 174.4 L 146.4 174.4 L 147.8 174.2 L 149.1 173.9 L 150.3 173.6 L 151.5 173.1 L 152.6 172.5 L 153.7 171.8 L 154.7 171.0 L 155.8 170.0 L 156.8 168.9 L 157.3 168.2 L 158.0 166.6 L 158.8 164.4 L 159.6 161.6 L 160.4 158.1 L 161.1 154.0 L 161.8 149.4 L 162.4 144.2 L 162.9 138.4 L 163.14761905670167 134.5 L 117.45761423110962 134.5 L 116.5 142.2 L 103.8 146.6 L 110.3 95.3 L 120.21599998474122 102.0 L 160.2 102.0 L 160.2 78.2 L 109.1 78.2 L 109.1 74.2 L 160.2 74.2 L 166.2 69.2 L 177.2 78.2 L 172.2 82.2 L 172.2 110.0 L 160.2 116.0 L 160.2 106.0 L 121.00203046798705 106.0 L 117.95507612228394 130.5 L 163.3 130.5 L 169.3 125.5 L 180.3 134.5 L 175.3 137.5 L 175.00947370529175 137.62105264663697 L 174.9 139.4 L 174.3 145.4 L 173.7 150.9 L 173.0 155.9 L 172.2 160.4 L 171.3 164.5 L 170.3 168.1 L 169.1 171.3 L 167.7 174.1 L 165.9 176.7 L 164.3 178.5 Z M 37.0 92.0 L 37.0 113.0 L 78.0 113.0 L 78.0 92.0 Z M 37.0 88.0 L 78.0 88.0 L 78.0 67.0 L 37.0 67.0 Z M 167.9 64.4 L 163.4 59.8 L 159.1 54.8 L 155.0 49.4 L 151.2 43.7 L 147.5 37.5 L 144.2 30.8 L 141.68900003433228 25.048999977111816 L 138.0 31.9 L 133.4 39.4 L 128.7 46.3 L 123.6 52.8 L 118.3 58.7 L 112.7 64.2 L 106.8 69.0 L 100.7 73.3 L 94.2 76.8 L 93.2 75.4 L 98.3 70.3 L 103.2 65.1 L 108.0 59.6 L 112.5 53.8 L 116.8 47.7 L 120.9 41.2 L 124.8 34.3 L 128.4 27.0 L 131.9 19.3 L 134.7395528793335 12.112381744384766 L 134.7 12.1 L 135.6 9.9 L 146.2 15.7 L 148.2 18.7 L 144.4978723526001 19.27446804046631 L 143.8948941230774 20.540722274780272 L 144.8 21.8 L 149.2 27.8 L 153.6 33.5 L 157.9 38.7 L 162.3 43.5 L 166.6 47.9 L 171.1 51.8 L 175.5 55.4 L 180.0 58.4 L 184.5 61.1 L 188.6 63.6 L 177.5 72.3 L 172.6 68.5 Z " />
</g>
</svg>
