<svg xmlns="http://www.w3.org/2000/svg" xmlns:xlink="http://www.w3.org/1999/xlink" version="1.1" baseProfile="full" viewBox="0 0 200 200" width="200" height="200">
<g fill="black">
<path d="M 176.0 108.7 L 173.6 105.6 L 171.0 102.6 L 168.3 99.6 L 165.3 96.7 L 162.1 93.8 L 158.7 91.0 L 155.2 88.0 L 154.7 87.62162160873413 L 154.7 183.0 L 142.7 189.0 L 142.7 18.0 L 154.7 20.0 L 157.7 22.0 L 154.7 23.8 L 154.7 84.4 L 156.8 85.1 L 161.3 86.8 L 165.5 88.7 L 169.6 90.9 L 173.4 93.3 L 177.1 95.9 L 180.6 98.6 L 183.9 101.6 L 187.0 104.7 L 190.0 108.0 L 191.0 112.5 L 188.6 116.4 L 184.2 117.4 L 180.2 115.0 L 178.2 111.8 Z M 109.6 164.6 L 104.4 159.9 L 99.3 154.7 L 94.4 149.0 L 89.6 142.9 L 85.0 136.4 L 84.23251485824585 135.1790008544922 L 84.6 136.4 L 85.9 146.1 L 85.8 155.0 L 84.7 162.9 L 83.1 169.5 L 81.2 174.6 L 79.0 178.5 L 77.4 180.3 L 75.7 182.0 L 73.8 183.5 L 71.8 184.8 L 69.7 185.9 L 67.5 186.9 L 65.3 187.6 L 62.9 188.1 L 60.5 188.4 L 58.1 188.5 L 58.1 182.5 L 42.1 179.5 L 42.1 176.5 L 58.1 176.5 L 60.9 176.3 L 62.2 176.0 L 63.4 175.6 L 64.5 175.1 L 65.6 174.5 L 66.7 173.8 L 67.7 173.0 L 68.7 172.0 L 69.7 170.9 L 70.8 169.4 L 72.6 165.7 L 74.4 160.5 L 75.8 153.9 L 76.4 146.3 L 76.27896366119384 143.75823669433595 L 72.3 147.4 L 66.0 152.5 L 59.4 157.3 L 52.3 161.7 L 44.9 165.7 L 37.1 169.4 L 28.9 172.7 L 20.3 175.6 L 11.3 177.9 L 10.7 176.2 L 18.9 172.0 L 26.7 167.8 L 34.1 163.6 L 41.1 159.2 L 47.7 154.6 L 53.9 149.8 L 59.6 144.8 L 65.0 139.6 L 69.9 134.2 L 74.16385955810547 129.00921449661254 L 74.1 128.7 L 70.4929591178894 119.39763145446777 L 69.0 120.7 L 63.9 124.7 L 58.5 128.4 L 52.8 132.0 L 46.7 135.4 L 40.3 138.6 L 33.6 141.5 L 26.5 144.3 L 19.1 146.7 L 11.3 148.7 L 10.6 147.1 L 17.6 143.2 L 24.3 139.4 L 30.6 135.7 L 36.6 131.9 L 42.3 128.1 L 47.6 124.3 L 52.5 120.4 L 57.1 116.4 L 61.3 112.3 L 64.61881160736084 108.81099300384521 L 64.5 108.6 L 57.89965400695801 99.35951557159424 L 56.9 100.1 L 51.0 103.9 L 44.7 107.5 L 37.8 110.9 L 30.4 114.1 L 22.5 117.0 L 14.1 119.6 L 13.4 117.9 L 20.9 113.6 L 28.0 109.3 L 34.6 105.1 L 40.7 101.0 L 46.2 96.9 L 51.3 92.7 L 55.7 88.6 L 59.7 84.4 L 62.18780488967896 81.4 L 11.8 81.4 L 11.8 77.4 L 84.34800834655762 77.4 L 87.37568130493165 60.0 L 44.71440677642822 60.0 L 43.7 64.2 L 30.7 67.3 L 43.9 12.3 L 55.1 17.0 L 57.6 19.7 L 54.233074283599855 20.589376640319824 L 52.03262710571289 29.7 L 92.4 29.7 L 98.4 24.7 L 109.4 33.7 L 104.4 36.7 L 102.75773782730103 37.384275913238525 L 96.41691646575927 77.4 L 114.27777776718139 77.4 L 120.5 70.4 L 128.5 77.4 L 128.5 81.4 L 77.29428567886353 81.4 L 75.7 83.2 L 71.7 87.7 L 67.3 92.0 L 62.3 96.1 L 59.860546588897705 97.90700254440307 L 68.7 105.3 L 74.45609760284424 113.10102691650391 L 79.9 119.5 L 85.4 125.9 L 85.80630321502686 126.36763200759887 L 86.9 124.8 L 89.6 120.6 L 92.3 116.7 L 94.9 112.9 L 97.3 109.3 L 99.6 105.8 L 101.8 102.5 L 103.8 99.3 L 105.6 96.3 L 106.79750804901123 94.2571922302246 L 106.7 94.2 L 107.8 92.7 L 117.1 100.3 L 118.4 103.7 L 114.38410520553589 103.35380220413208 L 112.2 105.8 L 109.5 108.6 L 106.6 111.6 L 103.6 114.6 L 100.3 117.6 L 96.9 120.7 L 93.2 123.9 L 89.3 127.1 L 87.59728374481202 128.42894926071168 L 90.7 132.0 L 96.0 137.5 L 101.2 142.6 L 106.4 147.3 L 111.6 151.5 L 116.8 155.2 L 121.9 158.5 L 127.1 161.3 L 131.7 163.9 L 120.5 172.7 L 115.0 168.9 Z M 51.06652545928955 33.7 L 45.68050851821899 56.0 L 88.07169809341431 56.0 L 91.95199165344238 33.7 Z " />
</g>
</svg>
