<svg xmlns="http://www.w3.org/2000/svg" xmlns:xlink="http://www.w3.org/1999/xlink" version="1.1" baseProfile="full" viewBox="0 0 200 200" width="200" height="200">
<g fill="black">
<path d="M 48.0 182.0 L 36.0 188.0 L 36.0 126.0 L 48.0 132.0 L 152.0 132.0 L 158.0 127.0 L 169.0 136.0 L 164.0 140.0 L 164.0 167.0 L 170.0 171.0 L 170.0 175.0 L 48.0 175.0 Z M 48.0 136.0 L 48.0 171.0 L 152.0 171.0 L 152.0 136.0 Z M 130.2 118.4 L 109.7 114.5 L 91.2 108.9 L 74.7 101.7 L 60.4 92.8 L 57.85234470367432 90.64588489532471 L 56.9 92.0 L 49.6 100.1 L 41.7 107.0 L 32.9 112.8 L 23.4 117.4 L 13.3 120.7 L 12.6 119.0 L 21.7 114.0 L 30.0 108.3 L 37.4 102.0 L 44.1 94.9 L 50.0 87.0 L 51.20363903045654 85.0242151260376 L 48.1 82.4 L 38.2 70.3 L 30.6 56.7 L 25.4 41.8 L 27.1 41.2 L 34.2 54.8 L 42.9 66.7 L 53.1 77.1 L 55.125953388214114 78.58569917678832 L 55.3 78.3 L 59.8 68.7 L 63.6 58.2 L 66.7 46.8 L 68.49512195587158 37.2 L 12.5 37.2 L 12.5 33.2 L 49.5 33.2 L 49.5 12.0 L 61.5 14.0 L 64.5 16.0 L 61.5 17.8 L 61.5 33.2 L 76.4 33.2 L 86.4 23.2 L 98.4 33.2 L 98.4 37.2 L 80.7534351348877 37.2 L 77.7 49.7 L 73.7 61.7 L 68.9 72.8 L 63.3 82.9 L 62.520493030548096 84.00836153030396 L 65.1 85.9 L 78.8 93.3 L 94.5 99.2 L 112.1 103.7 L 131.7 106.7 L 153.3 108.3 L 176.9 108.3 L 188.5 108.2 L 177.0 121.5 L 152.6 120.8 Z M 186.5 63.7 L 186.7 67.3 L 183.23321857452393 65.82340793609619 L 178.5 68.9 L 170.2 73.7 L 161.6 78.0 L 152.7 81.9 L 143.5 85.3 L 134.1 88.3 L 124.3 90.8 L 114.3 92.7 L 103.9 94.1 L 93.3 94.9 L 93.0 93.1 L 103.2 90.4 L 113.0 87.5 L 122.5 84.4 L 131.7 81.1 L 140.5 77.4 L 148.9 73.4 L 157.0 69.1 L 164.8 64.4 L 172.3 59.4 L 178.60441875457764 54.60508995056152 L 178.6 54.6 L 179.4 54.0 Z M 174.0199999809265 39.0 L 177.3 42.6 L 177.4 46.1 L 173.89697427749633 44.63509836196899 L 169.5 47.2 L 162.2 51.1 L 154.8 54.7 L 147.2 57.9 L 139.4 60.8 L 131.5 63.4 L 123.4 65.6 L 115.1 67.4 L 106.7 68.7 L 98.1 69.5 L 97.8 67.8 L 105.8 65.0 L 113.7 62.2 L 121.4 59.3 L 128.9 56.3 L 136.2 53.0 L 143.3 49.5 L 150.3 45.7 L 157.0 41.7 L 163.6 37.5 L 169.11691398620604 33.62091989517212 L 169.1 33.6 L 169.1182222366333 33.619999980926515 L 170.0 33.0 Z M 165.1520215988159 17.981850814819335 L 168.9 22.1 L 169.1 25.7 L 165.5037693977356 24.15875835418701 L 161.8 26.3 L 155.3 29.7 L 148.6 32.9 L 141.7 35.8 L 134.7 38.3 L 127.6 40.6 L 120.3 42.5 L 112.9 44.1 L 105.3 45.3 L 97.5 46.0 L 97.2 44.2 L 104.4 41.6 L 111.4 39.0 L 118.3 36.3 L 125.0 33.5 L 131.5 30.5 L 137.9 27.3 L 144.1 23.9 L 150.1 20.4 L 155.9 16.6 L 161.6 12.6 Z " />
</g>
</svg>
