<svg xmlns="http://www.w3.org/2000/svg" xmlns:xlink="http://www.w3.org/1999/xlink" version="1.1" baseProfile="full" viewBox="0 0 200 200" width="200" height="200">
<g fill="black">
<path d="M 57.0 184.4 L 47.0 189.4 L 47.0 126.5 L 36.7 126.5 L 36.7 175.1 L 25.7 180.6 L 25.7 117.0 L 36.7 122.5 L 47.0 122.5 L 47.0 103.1 L 57.0 105.1 L 59.5 107.1 L 57.0 108.76666669845581 L 57.0 122.5 L 67.9 122.5 L 73.4 117.5 L 83.9 126.5 L 78.9 130.0 L 78.9 162.2 L 78.8 164.6 L 78.4 166.9 L 77.7 169.2 L 76.7 171.3 L 75.3 173.3 L 73.6 174.9 L 71.5 176.2 L 69.3 177.1 L 67.0 177.5 L 64.6 177.7 L 64.6 172.2 L 57.0 169.53999996185303 Z M 189.0 122.2 L 191.0 125.2 L 187.30427560806274 125.70975503921508 L 184.7 131.1 L 180.3 139.5 L 175.5 147.4 L 170.6 154.8 L 165.4 161.7 L 160.0 168.0 L 154.3 173.9 L 148.4 179.1 L 142.2 183.8 L 135.7 187.7 L 134.6 186.2 L 139.7 180.9 L 144.6 175.3 L 149.4 169.5 L 154.1 163.3 L 158.5 156.7 L 162.8 149.7 L 166.8 142.3 L 170.7 134.5 L 174.4 126.3 L 177.5335841178894 118.51080532073975 L 177.5 118.5 L 177.83000001907348 117.77399997711181 L 177.9 117.6 L 177.90764989852906 117.6031702041626 L 178.5 116.3 Z M 130.8033962249756 156.32037734985352 L 130.2 156.8 L 126.3 159.8 L 122.3 162.5 L 118.4 165.1 L 110.8 169.9 L 107.0 172.1 L 103.3 174.2 L 99.8898066520691 176.09455184936525 L 99.1 180.1 L 96.1 178.1 L 89.6 167.8 L 91.4 167.0 L 95.2 165.8 L 99.0 164.5 L 102.02969188690186 163.4124182701111 L 102.1 162.1 L 102.7 156.6 L 103.3 151.3 L 104.0 146.0 L 104.7 140.8 L 105.3 135.7 L 106.0 130.7 L 106.6 125.7 L 107.1 120.8 L 107.24210529327392 119.0 L 93.4 119.0 L 93.4 115.0 L 98.4 115.0 L 98.4 26.0 L 110.4 32.0 L 124.0777777671814 32.0 L 130.3 25.0 L 138.3 32.0 L 138.3 36.0 L 110.4 36.0 L 110.4 59.0 L 119.4777777671814 59.0 L 125.7 52.0 L 133.7 59.0 L 133.7 63.0 L 110.4 63.0 L 110.4 85.0 L 119.4777777671814 85.0 L 125.7 78.0 L 133.7 85.0 L 133.7 89.0 L 110.4 89.0 L 110.4 115.0 L 123.01818180084229 115.0 L 131.2 106.0 L 141.2 115.0 L 141.2 119.0 L 119.23061227798462 119.0 L 117.1 127.7 L 115.8 132.6 L 113.0 142.6 L 111.4 147.7 L 109.7 152.8 L 107.9 157.9 L 106.24020614624024 161.9309278488159 L 106.9 161.7 L 111.0 160.2 L 115.2 158.6 L 119.5 157.0 L 123.9 155.4 L 128.5 153.8 L 130.24827585220336 153.21724138259887 L 129.6 150.3 L 128.8 146.6 L 127.9 142.8 L 126.9 139.0 L 125.9 135.1 L 124.7 131.3 L 126.3 130.4 L 128.7 133.8 L 131.1 137.1 L 133.3 140.6 L 135.3 144.1 L 137.1 147.6 L 138.8 151.2 L 140.4 154.8 L 141.8 158.5 L 144.2 165.9 L 143.2 170.3 L 139.4 172.9 L 135.0 171.9 L 132.4 168.1 L 131.6 161.1 Z M 184.7 73.2 L 186.7 76.3 L 182.92201833724977 76.75596332550049 L 181.2 80.2 L 177.6 86.8 L 173.8 93.3 L 169.9 99.4 L 165.8 105.2 L 161.5 110.8 L 157.0 116.1 L 152.4 121.0 L 147.4 125.5 L 142.2 129.6 L 140.9 128.3 L 144.6 123.0 L 148.2 117.6 L 151.8 112.1 L 155.3 106.4 L 158.7 100.6 L 161.9 94.6 L 165.0 88.4 L 168.1 82.0 L 170.9 75.4 L 173.33063831329346 69.41021280288696 L 173.3 69.4 L 174.2 67.2 Z M 14.8 120.1 L 12.7 116.1 L 14.0 111.7 L 14.6 111.4 L 15.5 110.6 L 16.4 109.1 L 17.4 107.1 L 18.3 104.6 L 19.2 101.7 L 20.1 98.3 L 20.9 94.5 L 21.7 90.4 L 22.1 85.8 L 23.9 85.7 L 24.3 90.4 L 24.706976699829102 92.9 L 77.9 92.9 L 83.9 87.9 L 94.9 96.9 L 89.9 99.9 L 86.80769233703613 101.1884614944458 L 86.4 101.8 L 85.2 103.7 L 83.9 105.7 L 82.5 107.7 L 81.0 109.8 L 79.4 112.0 L 77.7 114.3 L 76.3 116.8 L 74.6 116.1 L 75.5 113.4 L 75.9 110.6 L 76.3 107.9 L 76.7 105.4 L 77.1 103.0 L 77.7 98.6 L 77.87894735336303 96.9 L 25.275 96.9 L 25.5 98.7 L 25.7 102.3 L 25.8 105.7 L 25.8 108.8 L 25.6 111.7 L 25.1 114.4 L 24.4 116.9 L 23.2 119.3 L 19.1 121.4 Z M 82.5 27.7 L 77.5 31.7 L 77.5 47.4 L 78.3 47.4 L 82.8 41.4 L 88.8 47.4 L 88.8 51.4 L 77.5 51.4 L 77.5 77.1 L 65.5 83.1 L 65.5 75.1 L 25.9 75.1 L 25.9 71.1 L 65.5 71.1 L 65.5 51.4 L 14.7 51.4 L 14.7 47.4 L 65.5 47.4 L 65.5 27.7 L 26.8 27.7 L 26.8 23.7 L 65.5 23.7 L 71.5 18.7 Z M 181.4 25.3 L 183.3 28.4 L 179.56749706268312 28.850474452972414 L 178.2 31.5 L 174.9 37.5 L 171.4 43.3 L 167.7 48.9 L 163.9 54.4 L 160.0 59.7 L 155.9 64.8 L 151.6 69.7 L 147.1 74.3 L 142.3 78.5 L 140.9 77.4 L 144.1 71.9 L 147.3 66.5 L 153.7 55.5 L 156.7 49.9 L 159.7 44.2 L 162.6 38.5 L 165.3 32.6 L 168.0 26.5 L 170.12720127105712 21.309628772735596 L 170.1 21.3 L 171.0 19.2 Z M 57.0 126.5 L 57.0 166.7 L 64.6 166.7 L 65.6 166.6 L 66.3 166.5 L 66.9 166.2 L 67.0 166.0 L 67.2 165.8 L 67.4 165.3 L 67.6 164.6 L 67.8 163.5 L 67.9 162.2 L 67.9 126.5 Z " />
</g>
</svg>
