<svg xmlns="http://www.w3.org/2000/svg" xmlns:xlink="http://www.w3.org/1999/xlink" version="1.1" baseProfile="full" viewBox="0 0 200 200" width="200" height="200">
<g fill="black">
<path d="M 66.5 14.0 L 69.5 16.0 L 66.5 17.8 L 66.5 46.0 L 90.5 46.0 L 96.5 41.0 L 107.5 50.0 L 102.5 54.0 L 102.5 139.0 L 90.5 145.0 L 90.5 133.0 L 66.5 133.0 L 66.5 183.0 L 54.5 189.0 L 54.5 133.0 L 30.4 133.0 L 30.4 145.0 L 18.4 151.0 L 18.4 40.0 L 30.4 46.0 L 54.5 46.0 L 54.5 12.0 Z M 188.2 123.3 L 189.4 126.7 L 185.67465171813964 126.37884931564331 L 180.9 132.2 L 173.3 140.5 L 165.3 148.4 L 156.9 155.7 L 148.1 162.5 L 139.0 168.7 L 129.5 174.4 L 119.7 179.6 L 109.4 184.0 L 98.8 187.8 L 98.1 186.1 L 107.8 180.6 L 117.1 174.9 L 126.0 168.9 L 134.6 162.5 L 142.9 155.8 L 150.7 148.7 L 158.2 141.2 L 165.4 133.3 L 172.1 125.0 L 178.5 116.2 L 178.54690523147582 116.23433265686035 L 179.0 115.6 Z M 180.6 74.4 L 181.8 77.8 L 178.11578950881957 77.3553539276123 L 174.8 81.3 L 168.7 87.9 L 162.3 94.3 L 155.7 100.3 L 148.8 106.1 L 141.6 111.5 L 134.2 116.7 L 126.5 121.5 L 118.5 125.8 L 110.2 129.7 L 109.3 128.2 L 116.5 122.6 L 123.5 117.1 L 130.3 111.4 L 136.9 105.7 L 143.2 99.7 L 149.3 93.6 L 155.1 87.3 L 160.7 80.8 L 166.0 74.1 L 170.51167068481445 67.90751085281372 L 170.5 67.9 L 171.5 66.5 Z M 30.4 91.0 L 30.4 129.0 L 54.5 129.0 L 54.5 91.0 Z M 66.5 91.0 L 66.5 129.0 L 90.5 129.0 L 90.5 91.0 Z M 30.4 50.0 L 30.4 87.0 L 54.5 87.0 L 54.5 50.0 Z M 66.5 50.0 L 66.5 87.0 L 90.5 87.0 L 90.5 50.0 Z M 174.9 26.5 L 176.0 29.9 L 172.3373803138733 29.394811058044432 L 169.5 32.6 L 163.8 38.5 L 158.0 44.3 L 151.9 49.9 L 145.6 55.3 L 139.0 60.5 L 132.2 65.5 L 125.2 70.2 L 117.8 74.6 L 110.2 78.7 L 109.2 77.2 L 115.6 71.5 L 121.9 65.9 L 128.1 60.3 L 134.1 54.7 L 139.8 49.0 L 145.4 43.2 L 150.7 37.3 L 155.9 31.3 L 160.8 25.2 L 165.5 19.0 L 165.50953350067138 19.007606506347656 L 165.9 18.5 Z " />
</g>
</svg>
