<svg xmlns="http://www.w3.org/2000/svg" xmlns:xlink="http://www.w3.org/1999/xlink" version="1.1" baseProfile="full" viewBox="0 0 200 200" width="200" height="200">
<g fill="black">
<path d="M 106.0 15.0 L 109.0 17.0 L 106.0 18.8 L 106.0 36.0 L 140.0 36.0 L 146.0 31.0 L 157.0 40.0 L 152.0 44.0 L 152.0 64.0 L 160.0 64.0 L 170.0 54.0 L 182.0 64.0 L 182.0 68.0 L 152.0 68.0 L 152.0 102.0 L 140.0 108.0 L 140.0 96.0 L 106.0 96.0 L 106.0 182.0 L 94.0 188.0 L 94.0 152.22054796218873 L 92.0 153.7 L 84.4 158.6 L 76.5 163.0 L 68.4 167.0 L 60.0 170.5 L 51.3 173.5 L 42.4 176.1 L 33.2 178.1 L 23.8 179.5 L 14.1 180.3 L 13.8 178.5 L 23.0 175.8 L 31.9 172.9 L 40.4 169.8 L 48.7 166.4 L 56.6 162.7 L 64.2 158.7 L 71.5 154.3 L 78.5 149.6 L 85.2 144.5 L 91.6 139.1 L 91.63732690811158 139.14459829330445 L 91.8 139.0 L 94.0 141.72799997329713 L 94.0 96.0 L 41.0 96.0 L 41.0 92.0 L 94.0 92.0 L 94.0 68.0 L 21.0 68.0 L 21.0 64.0 L 94.0 64.0 L 94.0 40.0 L 43.0 40.0 L 43.0 36.0 L 94.0 36.0 L 94.0 13.0 Z M 90.3 127.3 L 90.5 130.9 L 87.00842218399048 129.4775053024292 L 83.8 131.6 L 77.1 135.6 L 70.3 139.3 L 63.4 142.6 L 56.2 145.6 L 49.0 148.2 L 41.6 150.5 L 34.0 152.3 L 26.3 153.7 L 18.5 154.5 L 18.1 152.8 L 25.4 150.0 L 32.5 147.2 L 39.4 144.3 L 46.1 141.2 L 52.7 137.9 L 59.1 134.3 L 65.4 130.6 L 71.4 126.5 L 77.4 122.3 L 82.32360954284668 118.3265606880188 L 82.3 118.3 L 83.1 117.7 Z M 82.7 106.6 L 82.9 110.2 L 79.35373134613037 108.75522384643554 L 76.8 110.4 L 70.8 113.9 L 64.7 117.2 L 58.4 120.1 L 52.0 122.7 L 45.5 125.0 L 38.8 127.0 L 32.0 128.7 L 25.0 129.9 L 18.0 130.6 L 17.6 128.9 L 24.1 126.2 L 30.4 123.6 L 36.6 120.9 L 42.6 118.0 L 48.5 115.0 L 54.2 111.8 L 59.8 108.4 L 65.2 104.8 L 70.4 101.0 L 74.71437740325928 97.61617460250855 L 74.7 97.6 L 75.5 97.0 Z M 106.0 68.0 L 106.0 92.0 L 140.0 92.0 L 140.0 68.0 Z M 106.0 40.0 L 106.0 64.0 L 140.0 64.0 L 140.0 40.0 Z " />
</g>
</svg>
