<svg xmlns="http://www.w3.org/2000/svg" xmlns:xlink="http://www.w3.org/1999/xlink" version="1.1" baseProfile="full" viewBox="0 0 200 200" width="200" height="200">
<g fill="black">
<path d="M 77.1 59.0 L 78.6 62.2 L 74.83866662979126 62.2 L 71.8 66.5 L 66.3 73.8 L 60.5 80.9 L 54.4 87.7 L 48.0 94.3 L 46.38898878097534 95.81483144760132 L 53.5 97.0 L 56.5 99.0 L 53.5 100.8 L 53.5 182.0 L 41.5 188.0 L 41.5 100.4119402885437 L 41.3 100.6 L 34.3 106.6 L 27.1 112.4 L 19.4 117.7 L 11.4 122.7 L 10.3 121.2 L 17.0 114.8 L 23.5 108.3 L 29.9 101.8 L 35.9 95.2 L 41.7 88.5 L 47.3 81.7 L 52.6 74.7 L 57.6 67.5 L 62.4 60.1 L 66.34595746994019 53.52340421676636 L 66.3 53.5 L 67.4 51.8 Z M 133.0 124.0 L 136.0 126.0 L 133.0 127.8 L 133.0 148.0 L 155.8181818008423 148.0 L 164.0 139.0 L 174.0 148.0 L 174.0 152.0 L 133.0 152.0 L 133.0 179.0 L 166.0 179.0 L 176.0 169.0 L 188.0 179.0 L 188.0 183.0 L 67.0 183.0 L 67.0 179.0 L 88.0 179.0 L 88.0 140.0 L 100.0 142.0 L 103.0 144.0 L 100.0 145.8 L 100.0 179.0 L 121.0 179.0 L 121.0 122.0 Z M 169.2 78.7 L 168.0 76.6 L 165.2 72.4 L 163.7 70.4 L 160.3 66.2 L 158.5 64.0 L 158.43037977218628 63.94303798675537 L 157.6 65.5 L 155.0 69.7 L 152.2 73.5 L 149.1 76.8 L 145.7 79.6 L 142.47975778579712 81.71615915298462 L 143.4 82.8 L 148.2 87.8 L 153.3 92.3 L 158.6 96.4 L 164.3 100.1 L 170.3 103.4 L 176.6 106.3 L 183.3 108.8 L 190.1 111.4 L 178.6 121.1 L 171.3 117.6 L 164.4 113.6 L 158.1 109.2 L 152.2 104.4 L 146.8 99.1 L 142.0 93.3 L 137.7 87.2 L 134.0 80.77368421554566 L 134.0 111.0 L 122.0 117.0 L 122.0 85.85 L 121.2 86.9 L 115.7 92.9 L 109.6 98.5 L 102.9 103.9 L 95.5 108.9 L 87.5 113.6 L 78.7 117.9 L 69.4 121.8 L 68.5 120.1 L 76.9 114.6 L 84.6 109.1 L 91.7 103.6 L 98.1 98.0 L 103.8 92.4 L 108.8 86.6 L 113.2 80.8 L 116.9 74.9 L 119.9 68.9 L 122.0 63.776000022888184 L 122.0 37.0 L 72.0 37.0 L 72.0 33.0 L 122.0 33.0 L 122.0 15.0 L 134.0 17.0 L 137.0 19.0 L 134.0 20.8 L 134.0 33.0 L 163.0 33.0 L 173.0 23.0 L 185.0 33.0 L 185.0 37.0 L 134.0 37.0 L 134.0 70.97906980514526 L 134.5 71.7 L 138.9 77.5 L 140.13637762069703 78.95617809295655 L 142.1 76.1 L 144.2 72.9 L 146.1 69.4 L 147.8 65.7 L 149.4 61.7 L 150.7 57.4 L 152.0 52.8 L 153.0 47.9 L 153.72638578414916 43.703104209899905 L 153.7 43.7 L 153.83999996185304 43.046666622161865 L 153.9 42.7 L 153.9136841773987 42.70280704498291 L 154.3 40.9 L 165.6 45.1 L 168.2 47.7 L 164.5126103401184 48.97382555007935 L 164.0 50.8 L 162.1 56.1 L 160.0 61.0 L 159.55789470672607 61.828947353363034 L 159.9 62.0 L 162.6 63.0 L 165.3 64.2 L 167.8 65.5 L 170.3 67.0 L 172.6 68.6 L 174.9 70.3 L 177.1 72.1 L 179.2 74.0 L 181.2 76.1 L 182.1 80.5 L 179.7 84.4 L 175.2 85.3 L 171.3 82.9 L 170.3 80.8 Z M 104.7 73.8 L 104.1 72.4 L 103.3 70.8 L 102.3 69.1 L 101.1 67.3 L 99.7 65.3 L 98.2 63.3 L 97.04202899932861 61.80144929885864 L 94.3 66.6 L 91.3 71.1 L 87.9 75.4 L 84.3 79.3 L 80.4 82.9 L 76.1 86.0 L 71.5 88.7 L 70.4 87.2 L 73.5 83.2 L 76.5 79.2 L 79.2 75.2 L 81.7 71.0 L 84.0 66.7 L 86.1 62.3 L 87.9 57.6 L 89.4 52.8 L 90.8 47.8 L 91.68963871002197 43.51355876922607 L 91.6 43.5 L 92.3 40.8 L 103.5 45.3 L 106.0 48.0 L 102.31488780975342 49.11869478225708 L 101.7 51.1 L 99.5 56.5 L 98.146231174469 59.433165836334226 L 100.4 60.3 L 102.9 61.5 L 105.2 62.6 L 107.3 63.8 L 109.2 65.0 L 111.1 66.3 L 112.8 67.6 L 114.3 68.9 L 115.7 70.4 L 116.2 75.0 L 113.4 78.6 L 108.9 79.0 L 105.2 76.2 L 105.1 75.1 Z M 69.2 21.0 L 70.6 24.3 L 66.86046628952026 24.23552532196045 L 64.5 27.5 L 59.6 33.8 L 54.6 39.9 L 49.3 45.7 L 43.9 51.3 L 38.3 56.6 L 32.5 61.6 L 26.5 66.3 L 20.3 70.7 L 13.8 74.7 L 12.7 73.2 L 17.8 67.8 L 22.9 62.3 L 28.0 56.9 L 32.9 51.3 L 37.6 45.6 L 42.2 39.7 L 46.7 33.7 L 51.0 27.5 L 55.1 21.1 L 59.1 14.5 L 59.14457197189331 14.528684902191163 L 59.6 13.8 Z " />
</g>
</svg>
