<svg xmlns="http://www.w3.org/2000/svg" xmlns:xlink="http://www.w3.org/1999/xlink" version="1.1" baseProfile="full" viewBox="0 0 200 200" width="200" height="200">
<g fill="black">
<path d="M 77.8 51.9 L 79.3 55.1 L 75.62399997711182 55.1 L 72.7 59.4 L 67.4 66.9 L 61.8 74.1 L 55.9 81.2 L 50.6043478012085 87.08405799865723 L 56.1 88.0 L 59.1 90.0 L 56.1 91.8 L 56.1 182.0 L 44.1 188.0 L 44.1 93.78333330154419 L 43.0 94.9 L 36.2 101.5 L 28.9 107.8 L 21.3 113.9 L 13.2 119.6 L 12.1 118.3 L 18.7 111.1 L 25.2 104.0 L 31.4 96.9 L 37.4 89.8 L 43.2 82.7 L 48.6 75.4 L 53.7 68.1 L 58.6 60.8 L 63.2 53.3 L 66.94087104797363 46.619873046875 L 66.9 46.6 L 67.9 44.9 Z M 136.1960000038147 113.98240003585815 L 135.5 123.1 L 134.5529411315918 128.0 L 158.3 128.0 L 168.3 118.0 L 180.3 128.0 L 180.3 132.0 L 134.3235294342041 132.0 L 137.5 137.4 L 141.5 143.6 L 145.5 149.1 L 149.8 154.1 L 154.2 158.5 L 158.8 162.2 L 163.7 165.4 L 168.7 168.0 L 174.0 170.1 L 179.6 171.6 L 187.7 173.9 L 176.0 184.3 L 169.4 181.7 L 163.2 178.4 L 157.5 174.5 L 152.2 170.0 L 147.5 164.9 L 143.2 159.3 L 139.5 153.1 L 136.3 146.3 L 133.7 139.1 L 132.91876964569093 135.85172634124757 L 129.7 145.6 L 124.9 155.1 L 119.1 163.3 L 112.4 170.3 L 104.8 176.1 L 96.4 180.8 L 87.4 184.3 L 77.8 186.8 L 77.3 185.1 L 85.9 180.8 L 93.8 176.1 L 100.9 170.8 L 107.1 164.8 L 112.4 158.1 L 116.8 150.6 L 120.3 142.1 L 122.7 132.6 L 122.7841121673584 132.0 L 80.6 132.0 L 80.6 128.0 L 123.344859790802 128.0 L 124.2 121.9 L 124.5 110.0 L 124.5 107.6 L 136.5 110.0 L 139.5 112.0 Z M 78.2 99.0 L 124.5 99.0 L 124.5 76.0 L 87.4 76.0 L 87.4 72.0 L 124.5 72.0 L 124.5 49.0 L 82.5 49.0 L 82.5 45.0 L 140.6833333015442 45.0 L 141.5 42.9 L 142.5 39.3 L 143.5 35.8 L 144.6 32.4 L 145.6 29.0 L 146.5 25.8 L 147.4 22.7 L 148.3 19.7 L 149.0 16.7 L 149.47101526260377 14.748650932312012 L 149.3 14.7 L 150.2 12.4 L 160.9 18.0 L 163.1 20.9 L 158.9983425140381 21.677900505065917 L 157.9 23.6 L 156.3 26.5 L 154.5 29.4 L 152.6 32.3 L 150.7 35.3 L 148.6 38.3 L 146.4 41.3 L 144.0 44.2 L 143.425 45.0 L 156.4 45.0 L 166.4 35.0 L 178.4 45.0 L 178.4 49.0 L 136.5 49.0 L 136.5 72.0 L 151.5 72.0 L 161.5 62.0 L 173.5 72.0 L 173.5 76.0 L 136.5 76.0 L 136.5 99.0 L 160.7 99.0 L 170.7 89.0 L 182.7 99.0 L 182.7 103.0 L 78.2 103.0 Z M 73.2 20.6 L 74.1 24.1 L 70.41187887191772 23.45296115875244 L 68.9 25.0 L 64.3 29.3 L 59.6 33.6 L 54.6 37.9 L 49.4 42.1 L 43.9 46.2 L 38.2 50.3 L 32.2 54.3 L 25.9 58.1 L 19.3 61.7 L 18.3 60.2 L 23.7 55.0 L 28.9 50.0 L 34.0 45.2 L 39.0 40.4 L 43.7 35.7 L 48.2 31.1 L 52.5 26.4 L 56.6 21.9 L 60.5 17.3 L 63.48863048553467 13.56421184539795 L 63.4 13.5 L 64.5 12.3 Z M 109.7 34.3 L 109.2 31.7 L 108.6 29.2 L 107.9 26.6 L 107.1 24.1 L 105.3 19.1 L 104.2 16.6 L 102.8 14.3 L 104.1 13.1 L 106.2 15.0 L 108.5 16.8 L 110.7 18.7 L 112.7 20.9 L 114.5 23.2 L 116.3 25.6 L 117.9 28.2 L 119.4 30.8 L 120.8 33.7 L 122.0 36.6 L 121.3 41.1 L 117.7 43.9 L 113.1 43.1 L 110.4 39.5 L 110.1 36.9 Z " />
</g>
</svg>
