<svg xmlns="http://www.w3.org/2000/svg" xmlns:xlink="http://www.w3.org/1999/xlink" version="1.1" baseProfile="full" viewBox="0 0 200 200" width="200" height="200">
<g fill="black">
<path d="M 15.0 180.9 L 48.0 180.9 L 48.0 144.7 L 60.0 146.7 L 63.0 148.7 L 60.0 150.5 L 60.0 180.9 L 99.0 180.9 L 99.0 128.7 L 111.0 130.7 L 114.0 132.7 L 111.0 134.5 L 111.0 152.2 L 152.0 152.2 L 162.0 142.2 L 174.0 152.2 L 174.0 156.2 L 111.0 156.2 L 111.0 180.9 L 165.0 180.9 L 175.0 170.9 L 187.0 180.9 L 187.0 184.9 L 15.0 184.9 Z M 141.5 80.9 L 141.2865792274475 79.47719478607178 L 136.8 81.1 L 132.2 82.5 L 123.2 85.1 L 122.52935781478882 85.27155961990357 L 132.3 86.9 L 135.3 88.9 L 132.3 90.7 L 132.3 98.2 L 162.7 98.2 L 172.7 88.2 L 184.7 98.2 L 184.7 102.2 L 132.3 102.2 L 132.3 125.2 L 120.3 131.2 L 120.3 102.2 L 67.3 102.2 L 67.3 98.2 L 120.3 98.2 L 120.3 85.84186048507691 L 114.6 87.3 L 110.4 88.4 L 106.33190078735352 89.36859502792359 L 104.6 93.0 L 102.2 90.4 L 98.4 78.8 L 100.4 78.5 L 104.5 78.2 L 108.7 77.9 L 111.57757482528686 77.69923896789551 L 111.9 77.2 L 115.1 72.7 L 118.2 68.3 L 121.3 64.2 L 124.2 60.1 L 129.8 52.3 L 132.3 48.6 L 134.8 45.0 L 136.5525981903076 42.333002758026126 L 136.5 42.3 L 136.95396823883056 41.7222222328186 L 137.1 41.5 L 137.11797752380372 41.513483142852785 L 137.6 40.9 L 146.7 48.7 L 147.8 52.1 L 144.05824813842773 51.70613136291504 L 143.8 52.0 L 140.7 55.3 L 137.5 58.7 L 130.6 65.6 L 126.9 69.2 L 123.1 72.7 L 119.0 76.3 L 117.94730291366577 77.15684642791749 L 121.8 76.9 L 126.4 76.6 L 131.1 76.3 L 135.9 76.1 L 140.64376811981202 76.00318841934204 L 140.3 74.8 L 139.6 72.5 L 138.8 70.1 L 137.9 67.6 L 136.9 65.0 L 135.4 62.5 L 136.8 61.4 L 138.8 63.6 L 141.1 65.4 L 143.1 67.3 L 145.0 69.3 L 146.8 71.3 L 148.4 73.3 L 149.8 75.3 L 151.1 77.4 L 152.3 79.5 L 153.3 81.6 L 152.5 86.1 L 148.8 88.8 L 144.3 88.0 L 141.6 84.3 L 141.6 82.6 Z M 70.1 46.3 L 71.2 49.7 L 67.4034351348877 49.17633590698242 L 65.6 51.1 L 60.8 55.8 L 55.8 60.3 L 50.6 64.6 L 45.35581398010254 68.50930233001709 L 50.7 69.4 L 53.7 71.4 L 50.7 73.2 L 50.7 123.2 L 38.7 129.2 L 38.7 73.06999998092651 L 33.3 76.4 L 27.1 80.0 L 20.6 83.2 L 13.7 86.0 L 12.8 84.5 L 18.6 79.9 L 24.2 75.5 L 29.6 71.1 L 34.7 66.6 L 39.7 62.2 L 44.4 57.6 L 48.9 53.0 L 53.1 48.3 L 57.1 43.5 L 60.29397888183594 39.46550045013428 L 60.2 39.4 L 61.3 38.2 Z M 101.3 69.8 L 102.2 73.3 L 98.0644021987915 72.5019021987915 L 96.4 73.9 L 93.6 75.9 L 90.7 77.9 L 87.5 79.9 L 84.1 81.9 L 80.5 83.9 L 76.7 85.9 L 72.6 87.8 L 68.5 89.9 L 67.5 88.4 L 70.9 85.3 L 74.1 82.2 L 77.1 79.3 L 79.9 76.4 L 82.5 73.8 L 84.9 71.2 L 87.1 68.7 L 89.1 66.3 L 90.8 64.0 L 91.76511631011962 62.64883718490601 L 91.7 62.6 L 92.7 61.4 Z M 166.9 80.4 L 165.2 78.4 L 163.4 76.4 L 161.5 74.4 L 159.5 72.5 L 157.4 70.5 L 155.1 68.6 L 152.8 66.6 L 150.1 65.0 L 150.8 63.4 L 153.9 64.3 L 157.0 65.0 L 160.0 65.9 L 163.0 67.0 L 165.8 68.2 L 168.6 69.6 L 171.2 71.1 L 173.8 72.7 L 176.3 74.5 L 178.7 76.4 L 180.2 80.7 L 178.3 84.9 L 174.0 86.4 L 169.8 84.5 L 168.4 82.4 Z M 132.2 38.0 L 133.7 41.3 L 129.07199230194092 41.143118381500244 L 128.8 41.4 L 126.9 43.2 L 125.0 44.9 L 122.9 46.6 L 120.7 48.3 L 115.9 51.7 L 114.7526138305664 52.42242832183838 L 114.9 52.5 L 116.7 53.6 L 118.4 54.8 L 121.4 57.4 L 122.1 62.0 L 119.5 65.7 L 114.9 66.4 L 111.2 63.8 L 110.9 62.5 L 110.5 61.2 L 109.9 59.9 L 109.2 58.4 L 108.3 56.9 L 107.3 55.3 L 106.1 53.7 L 104.8 52.0 L 103.3 50.2 L 101.4 48.8 L 102.3 47.3 L 104.5 48.3 L 106.8 49.0 L 109.0 49.7 L 111.1 50.6 L 111.90046300888062 50.97916669845581 L 113.0 49.0 L 114.5 46.5 L 115.9 44.1 L 117.2 41.8 L 118.4 39.5 L 119.5 37.4 L 120.5 35.3 L 121.11578950881957 34.0 L 71.5 34.0 L 71.5 30.0 L 120.3 30.0 L 120.3 14.1 L 132.3 16.1 L 135.3 18.1 L 132.3 19.9 L 132.3 30.0 L 159.2 30.0 L 169.2 20.0 L 181.2 30.0 L 181.2 34.0 L 126.99452056884766 34.0 Z M 99.5 45.6 L 100.6 49.0 L 96.17712306976318 48.389947986602785 L 95.3 49.1 L 92.9 50.8 L 90.4 52.6 L 87.7 54.3 L 84.8 55.9 L 81.7 57.6 L 78.4 59.2 L 74.8 60.8 L 71.3 62.6 L 70.3 61.1 L 73.3 58.6 L 75.9 55.8 L 78.4 53.2 L 80.7 50.7 L 82.8 48.4 L 84.6 46.1 L 86.3 44.0 L 87.8 41.9 L 89.0 39.9 L 89.55021524429321 38.99964771270752 L 89.4 38.9 L 90.5 37.6 Z M 165.9 57.2 L 164.7 55.6 L 163.3 53.9 L 161.8 52.3 L 160.1 50.5 L 158.3 48.8 L 156.2 47.0 L 154.0 45.1 L 151.5 43.6 L 152.2 41.9 L 155.1 42.9 L 158.0 43.5 L 160.8 44.3 L 163.4 45.2 L 165.9 46.1 L 168.3 47.2 L 170.6 48.3 L 174.8 50.9 L 176.7 52.4 L 178.1 56.8 L 176.1 60.9 L 171.8 62.3 L 167.6 60.3 L 166.8 58.8 Z M 63.4 21.6 L 64.4 25.1 L 60.56434936523438 24.504812812805177 L 59.3 25.8 L 55.1 29.8 L 50.7 33.6 L 46.2 37.3 L 41.6 40.8 L 36.8 44.1 L 31.8 47.2 L 26.7 50.0 L 21.3 52.6 L 15.7 54.8 L 14.8 53.3 L 19.3 49.4 L 27.9 41.8 L 32.1 38.1 L 36.1 34.2 L 40.0 30.3 L 43.8 26.4 L 47.4 22.3 L 50.9 18.1 L 53.63202610015869 14.622875785827636 L 53.6 14.6 L 54.6 13.4 Z " />
</g>
</svg>
