<svg xmlns="http://www.w3.org/2000/svg" xmlns:xlink="http://www.w3.org/1999/xlink" version="1.1" baseProfile="full" viewBox="0 0 200 200" width="200" height="200">
<g fill="black">
<path d="M 127.4 183.0 L 115.4 189.0 L 115.4 168.6 L 113.3 169.5 L 104.7 172.7 L 100.4 174.2 L 96.0 175.7 L 91.6 177.1 L 82.8 180.1 L 82.2845814704895 180.2603524208069 L 81.0 183.9 L 78.3 181.5 L 73.4 170.4 L 75.4 169.9 L 84.6 168.3 L 86.9 167.90851068496704 L 86.9 111.0 L 75.9 111.0 L 75.9 107.0 L 125.0 107.0 L 125.0 94.0 L 88.8 94.0 L 88.8 90.0 L 125.0 90.0 L 125.0 78.0 L 82.0 78.0 L 82.0 74.0 L 114.9 74.0 L 113.6 72.1 L 113.6 68.4 L 113.4 66.6 L 113.1 64.8 L 112.1 61.2 L 111.4 59.4 L 110.6 57.6 L 109.6 55.7 L 108.1 54.3 L 109.05333337783813 53.0 L 76.6 53.0 L 76.6 49.0 L 113.9 49.0 L 113.9 16.0 L 124.9 18.0 L 127.6 20.0 L 124.9 21.723404216766358 L 124.9 49.0 L 137.0 49.0 L 137.0 16.0 L 148.0 18.0 L 150.8 20.0 L 148.0 21.75 L 148.0 49.0 L 154.8333333015442 49.0 L 154.0 48.5 L 155.1 45.9 L 155.9 43.0 L 160.4 29.0 L 161.4 26.2 L 162.89901800155639 21.369830894470216 L 162.7 21.3 L 163.7 19.2 L 174.1 25.3 L 176.0 28.4 L 171.83137521743774 28.90310983657837 L 170.7 30.7 L 168.9 33.2 L 167.1 35.8 L 165.3 38.2 L 163.4 40.6 L 161.5 42.9 L 159.5 45.1 L 157.3 47.2 L 155.82727270126344 49.0 L 164.7 49.0 L 174.7 39.0 L 186.7 49.0 L 186.7 53.0 L 151.2718309402466 53.0 L 156.6 56.9 L 158.1 60.2 L 153.59411764144897 60.2 L 153.5 60.3 L 151.9 62.1 L 150.2 63.9 L 148.4 65.7 L 146.5 67.5 L 144.6 69.4 L 142.5 71.3 L 140.4 73.3 L 139.7954545021057 74.0 L 162.4181818008423 74.0 L 170.6 65.0 L 180.6 74.0 L 180.6 78.0 L 137.0 78.0 L 137.0 90.0 L 153.61818180084228 90.0 L 161.8 81.0 L 171.8 90.0 L 171.8 94.0 L 137.0 94.0 L 137.0 107.0 L 172.4777777671814 107.0 L 178.7 100.0 L 186.7 107.0 L 186.7 111.0 L 127.4 111.0 Z M 73.3 58.8 L 74.9 62.0 L 71.21129703521729 62.06359834671021 L 68.5 66.3 L 63.5 73.6 L 58.2 80.7 L 52.6 87.5 L 46.8 94.1 L 45.12764043807984 95.8546067237854 L 52.0 97.0 L 55.0 99.0 L 52.0 100.8 L 52.0 182.0 L 40.0 188.0 L 40.0 101.16666669845581 L 34.4 106.5 L 27.7 112.3 L 20.7 117.7 L 13.4 122.6 L 12.2 121.3 L 18.2 114.8 L 24.0 108.4 L 29.6 102.0 L 35.1 95.4 L 40.3 88.7 L 45.3 81.9 L 50.0 74.9 L 54.5 67.7 L 58.8 60.4 L 62.31609754562378 53.807317066192624 L 62.3 53.8 L 63.3 51.9 Z M 166.1 181.0 L 160.6 176.6 L 155.6 171.5 L 154.85117263793944 170.50736837387086 L 151.3 174.4 L 145.7 179.3 L 139.7 183.2 L 133.2 186.1 L 126.5 187.8 L 125.9 186.1 L 131.5 182.7 L 136.7 178.8 L 141.4 174.4 L 145.7 169.4 L 149.6 163.7 L 149.8222222328186 163.31111106872558 L 147.5 159.4 L 144.3 152.3 L 141.6 144.6 L 139.7 136.2 L 138.61868133544922 128.0 L 129.6 128.0 L 129.6 124.0 L 163.7 124.0 L 169.7 119.0 L 180.7 128.0 L 175.7 131.0 L 174.35158195495606 131.5618408203125 L 172.7 137.2 L 169.3 146.3 L 165.5 154.5 L 161.2 162.0 L 160.95263156890869 162.3526315689087 L 163.0 164.4 L 167.5 168.0 L 172.2 170.9 L 177.2 173.1 L 182.5 174.6 L 190.4 177.0 L 178.7 187.3 L 172.1 184.5 Z M 98.9 149.0 L 98.9 166.03478260040282 L 107.6 164.9 L 112.1 164.5 L 115.4 164.28478260040282 L 115.4 149.0 Z M 140.7481927871704 128.0 L 143.7 135.0 L 147.2 142.4 L 150.8 149.1 L 154.41273441314698 154.70924549102784 L 156.4 150.3 L 159.2 142.5 L 161.7 133.9 L 163.095698928833 128.0 Z M 98.9 128.0 L 98.9 145.0 L 115.4 145.0 L 115.4 128.0 Z M 98.9 111.0 L 98.9 124.0 L 115.4 124.0 L 115.4 111.0 Z M 66.2 20.8 L 67.7 24.1 L 64.01692304611205 24.1 L 61.9 27.3 L 57.4 33.6 L 52.8 39.7 L 48.1 45.5 L 43.1 51.1 L 38.0 56.4 L 32.7 61.5 L 27.2 66.3 L 21.5 70.6 L 15.5 74.6 L 14.3 73.3 L 18.9 67.9 L 23.5 62.4 L 27.9 57.0 L 32.3 51.4 L 36.6 45.7 L 40.7 39.9 L 44.7 33.9 L 48.5 27.7 L 52.2 21.3 L 55.30122184753418 15.700571727752685 L 55.3 15.7 L 56.3 13.9 Z M 111.0 54.0 L 113.2 55.0 L 115.1 56.2 L 117.0 57.6 L 118.8 59.2 L 120.4 61.0 L 121.9 63.0 L 123.2 65.1 L 124.4 67.4 L 125.4 69.9 L 124.46818180084229 74.0 L 137.22399997711182 74.0 L 138.4 71.9 L 139.3 69.2 L 140.3 66.6 L 141.2 64.1 L 142.2 61.6 L 144.0 57.0 L 144.8 54.8 L 145.48571424484254 53.0 L 109.5 53.0 Z M 96.9 35.8 L 95.5 31.4 L 94.7 29.3 L 93.8 27.2 L 91.8 23.0 L 90.3 21.3 L 91.5 19.9 L 93.4 21.3 L 95.7 22.5 L 97.8 23.9 L 99.8 25.6 L 101.7 27.4 L 103.5 29.4 L 105.2 31.6 L 106.9 34.0 L 108.4 36.5 L 109.8 39.2 L 109.5 43.7 L 106.1 46.8 L 101.5 46.4 L 98.5 43.0 L 97.5 38.2 Z " />
</g>
</svg>
