<svg xmlns="http://www.w3.org/2000/svg" xmlns:xlink="http://www.w3.org/1999/xlink" version="1.1" baseProfile="full" viewBox="0 0 200 200" width="200" height="200">
<g fill="black">
<path d="M 154.58096590042115 18.751420497894287 L 155.4 56.7 L 156.41430892944337 70.45402879714966 L 169.35363340377808 69.17290754318238 L 178.4 58.2 L 191.3 67.0 L 191.7 70.9 L 156.70273418426513 74.36507577896118 L 157.9 90.6 L 161.6 117.5 L 163.35531282424927 125.49642505645753 L 165.2 121.0 L 169.6 108.2 L 173.2184588432312 95.30344152450562 L 173.2 95.3 L 173.9 92.7 L 185.0 97.5 L 187.4 100.2 L 183.8006600379944 101.22838287353515 L 180.4 111.8 L 175.2 125.0 L 169.5 137.1 L 167.15782842636108 141.1523286819458 L 171.1 152.9 L 176.0 163.1 L 180.5 169.4 L 182.2361701965332 170.94326238632203 L 187.3 149.0 L 189.3 149.0 L 187.3744680404663 174.0319149017334 L 191.5 175.8 L 193.3 180.0 L 191.5 184.2 L 187.3 186.0 L 182.8 185.2 L 177.4 182.6 L 171.6 177.4 L 165.7 169.3 L 159.9 157.5 L 158.8758050918579 154.3894820213318 L 156.5 157.9 L 149.2 166.6 L 141.4 174.1 L 133.1 180.3 L 124.2 185.3 L 115.0 188.8 L 114.3 187.1 L 122.3 182.0 L 129.8 176.0 L 136.9 169.3 L 143.4 161.6 L 149.5 153.0 L 155.2 143.4 L 155.23416748046876 143.3296937942505 L 154.5 141.1 L 149.8 119.6 L 145.9 91.9 L 144.71875782012938 75.55160818099975 L 131.1 76.9 L 130.7 73.0 L 144.43612623214722 71.63998746871948 L 143.4 57.3 L 142.52123889923095 15.998230075836181 L 142.5 16.0 L 142.5 12.6 L 154.5 15.0 L 157.5 17.0 Z M 67.5 58.7 L 69.2 61.8 L 65.52597866058349 61.99003562927246 L 63.0 66.2 L 58.1 73.5 L 53.0 80.6 L 47.7 87.5 L 42.1 94.1 L 40.450458717346194 95.89174308776856 L 47.1 97.0 L 50.1 99.0 L 47.1 100.8 L 47.1 182.0 L 35.1 188.0 L 35.1 101.6 L 30.2 106.5 L 23.8 112.2 L 17.1 117.6 L 10.0 122.6 L 8.8 121.3 L 14.5 114.9 L 20.0 108.4 L 25.4 102.0 L 30.5 95.5 L 35.5 88.8 L 40.2 81.9 L 44.8 75.0 L 49.1 67.8 L 53.1 60.5 L 56.52608184814453 53.91138114929199 L 56.5 53.9 L 57.5 52.0 Z M 69.4 168.9 L 74.9 167.9 L 80.6 167.0 L 86.4 165.9 L 89.9 165.3166666984558 L 89.9 135.1 L 72.6 135.1 L 72.6 131.1 L 89.9 131.1 L 89.9 103.2 L 69.7 103.2 L 69.7 99.2 L 106.8 99.2 L 116.8 89.2 L 128.8 99.2 L 128.8 103.2 L 101.9 103.2 L 101.9 131.1 L 103.9 131.1 L 113.9 121.1 L 125.9 131.1 L 125.9 135.1 L 101.9 135.1 L 101.9 163.14193544387817 L 104.7 162.6 L 111.2 161.5 L 117.7 160.3 L 124.5 159.3 L 131.5 158.5 L 132.0 160.2 L 125.5 163.0 L 119.1 165.5 L 112.8 167.8 L 106.6 170.0 L 100.5 172.0 L 94.6 173.9 L 88.7 175.7 L 83.0 177.4 L 77.4 179.0 L 76.03397874832153 179.40474700927734 L 74.6 183.1 L 72.0 180.6 L 67.4 169.3 Z M 83.9 23.7 L 112.9 23.7 L 118.9 18.7 L 129.9 27.7 L 124.9 31.7 L 124.9 80.3 L 112.9 86.3 L 112.9 76.3 L 83.9 76.3 L 83.9 83.3 L 71.9 89.3 L 71.9 17.7 Z M 60.7 20.7 L 62.4 23.9 L 58.63139352798462 24.029951953887938 L 56.6 27.3 L 52.4 33.6 L 47.9 39.6 L 43.3 45.5 L 38.6 51.0 L 33.7 56.4 L 28.6 61.4 L 23.3 66.2 L 17.8 70.6 L 12.0 74.6 L 10.8 73.3 L 15.2 67.9 L 19.5 62.5 L 27.9 51.5 L 31.9 45.8 L 35.9 40.0 L 39.6 34.0 L 43.3 27.8 L 46.8 21.4 L 50.2 14.9 L 50.25708742141724 14.931534004211425 L 50.8 13.9 Z M 83.9 27.7 L 83.9 72.3 L 112.9 72.3 L 112.9 27.7 Z M 172.1 42.0 L 171.2 39.5 L 170.2 36.9 L 169.0 34.4 L 167.7 32.0 L 166.2 29.5 L 164.6 27.0 L 162.9 24.5 L 160.7 22.3 L 161.8 20.8 L 164.6 22.5 L 167.4 24.0 L 170.1 25.8 L 172.7 27.7 L 175.1 29.9 L 177.3 32.2 L 179.4 34.7 L 181.4 37.3 L 183.2 40.1 L 184.8 43.0 L 184.6 47.6 L 181.3 50.8 L 176.7 50.5 L 173.5 47.2 L 172.9 44.6 Z " />
</g>
</svg>
