<svg xmlns="http://www.w3.org/2000/svg" xmlns:xlink="http://www.w3.org/1999/xlink" version="1.1" baseProfile="full" viewBox="0 0 200 200" width="200" height="200">
<g fill="black">
<path d="M 76.8 177.0 L 88.8 177.0 L 90.0 176.9 L 90.9 176.7 L 91.8 176.4 L 92.2 176.0 L 92.4 175.7 L 92.5 175.1 L 92.7 174.2 L 92.8 173.0 L 92.8 110.0 L 79.2 110.0 L 79.2 120.0 L 78.7 130.7 L 78.0 140.7 L 77.0 149.9 L 75.7 158.3 L 74.2 165.9 L 72.5 172.7 L 70.4 178.8 L 68.1 183.9 L 65.3 188.2 L 62.2 191.5 L 60.8 190.4 L 61.9 186.5 L 63.1 182.0 L 64.1 176.9 L 65.1 171.1 L 65.9 164.5 L 66.5 157.1 L 67.0 149.0 L 67.2 140.1 L 67.3 130.4 L 67.20096616744995 120.00144929885865 L 67.2 120.0 L 67.2 16.0 L 79.2 22.0 L 92.8 22.0 L 98.8 17.0 L 109.8 26.0 L 104.8 30.0 L 104.8 70.69032258987427 L 106.9 67.1 L 109.8 61.8 L 112.6 56.4 L 115.2 50.9 L 117.6 45.3 L 119.9 39.5 L 121.8 33.6 L 123.6 27.4 L 125.2 21.1 L 126.31941270828247 15.502936363220215 L 126.3 15.5 L 126.3875 15.1625 L 126.5 14.6 L 126.5314516067505 14.60725803375244 L 127.0 12.8 L 138.2 17.3 L 140.7 19.9 L 137.09443159103392 21.05893268585205 L 136.2 24.1 L 133.8 30.7 L 131.646875 36.0 L 168.3 36.0 L 178.3 26.0 L 190.3 36.0 L 190.3 40.0 L 129.8688524246216 40.0 L 128.4 43.2 L 125.3 49.1 L 122.84444446563721 53.0722222328186 L 131.1 57.2 L 165.9 57.2 L 171.9 52.2 L 182.9 61.2 L 177.9 65.2 L 177.9 110.8 L 165.9 116.8 L 165.9 108.8 L 131.1 108.8 L 119.1 114.8 L 119.1 58.61081085205078 L 118.2 59.9 L 114.2 64.8 L 109.9 69.4 L 105.2 73.5 L 104.8 73.18571424484253 L 104.8 161.08108110427855 L 112.1 152.4 L 115.5 147.9 L 118.8 143.2 L 121.9 138.5 L 124.7 133.5 L 127.4 128.4 L 129.8 123.0 L 132.0 117.5 L 134.0 111.7 L 134.0794708251953 111.73024110794067 L 134.6 110.4 L 145.3 116.0 L 147.3 119.0 L 143.62718172073363 119.64435405731201 L 142.5 122.1 L 139.83508768081666 127.0 L 165.1 127.0 L 165.53533124923706 126.63722400665283 L 165.6 126.5 L 165.6649582862854 126.52920141220093 L 171.1 122.0 L 182.1 131.0 L 177.1 134.0 L 174.55239181518556 135.06150341033936 L 171.5 140.8 L 165.8 149.3 L 159.6 157.1 L 156.65297737121583 160.08973302841187 L 159.6 162.3 L 165.2 165.6 L 171.4 168.4 L 178.0 170.7 L 185.3 172.5 L 193.8 174.7 L 182.1 185.4 L 173.9 182.6 L 166.4 179.1 L 159.5 175.1 L 153.4 170.4 L 149.59242277145387 166.6616515159607 L 145.3 170.2 L 137.3 175.6 L 128.8 180.0 L 119.8 183.6 L 110.3 186.2 L 100.2 187.8 L 99.9 186.1 L 109.1 182.6 L 117.7 178.6 L 125.7 174.2 L 133.1 169.2 L 139.9 163.7 L 143.77641506195067 159.82358493804932 L 143.2 159.1 L 139.3 152.6 L 136.2 145.7 L 134.0 138.1 L 133.78009204864503 136.7467204093933 L 132.6 138.5 L 128.8 143.4 L 124.7 148.0 L 120.4 152.3 L 115.8 156.2 L 111.0 159.7 L 105.8 162.7 L 104.8 161.33636360168458 L 104.8 173.0 L 104.6 175.5 L 104.2 178.0 L 103.4 180.4 L 102.2 182.7 L 100.5 184.7 L 98.5 186.3 L 96.2 187.6 L 93.8 188.4 L 91.3 188.8 L 88.8 189.0 L 88.8 183.0 L 76.8 180.0 Z M 65.3 58.6 L 67.0 61.7 L 63.33296594619751 61.95289888381958 L 60.9 66.1 L 56.2 73.5 L 51.3 80.6 L 46.1 87.4 L 40.7 94.0 L 39.03272724151611 95.90545454025269 L 45.6 97.0 L 48.6 99.0 L 45.6 100.8 L 45.6 182.0 L 33.6 188.0 L 33.6 101.92542371749877 L 29.2 106.4 L 23.0 112.2 L 16.5 117.6 L 9.7 122.6 L 8.4 121.3 L 13.9 114.9 L 19.1 108.5 L 24.3 102.0 L 29.2 95.5 L 34.0 88.8 L 38.6 82.0 L 42.9 75.0 L 47.0 67.9 L 50.9 60.6 L 54.6 53.1 L 54.63977699279785 53.12044610977173 L 55.2 52.0 Z M 137.4800000190735 131.0 L 136.18210525512694 133.1631579399109 L 137.9 136.7 L 141.5 143.1 L 145.4 148.8 L 149.4079746246338 153.55364427566528 L 151.8 150.7 L 156.9 143.3 L 161.5 135.2 L 163.47931032180787 131.0 Z M 79.2 67.0 L 79.2 106.0 L 92.8 106.0 L 92.8 67.0 Z M 131.1 84.3 L 131.1 104.8 L 165.9 104.8 L 165.9 84.3 Z M 131.1 61.2 L 131.1 80.3 L 165.9 80.3 L 165.9 61.2 Z M 58.7 20.7 L 60.4 23.8 L 56.673698616027835 23.992739772796632 L 54.7 27.2 L 50.6 33.5 L 46.4 39.6 L 41.9 45.4 L 37.3 51.0 L 32.6 56.3 L 27.7 61.4 L 22.6 66.2 L 17.2 70.6 L 11.6 74.6 L 10.4 73.3 L 22.7 57.1 L 26.7 51.5 L 30.6 45.9 L 34.3 40.0 L 38.0 34.0 L 41.5 27.9 L 44.9 21.5 L 48.1 15.0 L 48.15743036270142 15.030882358551025 L 48.7 14.0 Z M 79.2 26.0 L 79.2 63.0 L 92.8 63.0 L 92.8 26.0 Z " />
</g>
</svg>
