<svg xmlns="http://www.w3.org/2000/svg" xmlns:xlink="http://www.w3.org/1999/xlink" version="1.1" baseProfile="full" viewBox="0 0 200 200" width="200" height="200">
<g fill="black">
<path d="M 154.6 177.7 L 171.0 177.7 L 171.7 177.5 L 172.1 177.4 L 172.3 177.3 L 172.5 177.1 L 172.6 176.9 L 172.8 176.4 L 173.1 175.7 L 173.2 174.6 L 173.3 173.2 L 173.3 27.2 L 131.81612901687623 27.2 L 132.0 29.1 L 127.82614946365356 27.191954040527342 L 125.2 28.0 L 121.9 28.6 L 118.5 29.3 L 114.8 30.1 L 110.9 30.8 L 106.9 31.7 L 102.6 32.5 L 98.1 33.4 L 93.4 34.2 L 89.90106744766236 34.771254253387454 L 89.7 36.0 L 88.7 41.4 L 87.5 46.7 L 86.2 51.9 L 84.8 57.1 L 83.2 62.1 L 81.5 67.1 L 79.6 72.0 L 77.4 76.7 L 74.9 81.2 L 73.2 80.7 L 73.7 75.6 L 74.4 70.5 L 75.1 65.5 L 76.5 55.3 L 77.1 50.2 L 77.6 45.1 L 78.1 39.9 L 78.64335536956787 30.30072259902954 L 78.6 30.3 L 78.9 27.2 L 90.28032789230346 30.409836101531983 L 91.9 29.6 L 96.3 27.5 L 100.4 25.7 L 104.4 23.9 L 108.2 22.2 L 111.9 20.7 L 115.3 19.2 L 118.6 17.8 L 120.82611274719238 16.866468811035155 L 120.8 16.8 L 120.8612790107727 16.851721668243407 L 121.7 16.5 L 122.13397741317749 17.925925922393798 L 129.9 24.480733966827394 L 129.9 23.2 L 173.3 23.2 L 178.8 18.2 L 189.3 27.2 L 184.3 30.7 L 184.3 173.2 L 184.2 175.7 L 183.8 178.0 L 183.1 180.3 L 182.1 182.4 L 180.7 184.4 L 179.0 186.0 L 176.9 187.3 L 174.7 188.1 L 172.4 188.6 L 170.0 188.7 L 170.0 183.2 L 154.6 180.5 Z M 73.3 58.8 L 74.9 62.0 L 71.21129703521729 62.06359834671021 L 68.5 66.3 L 63.5 73.6 L 58.2 80.7 L 52.6 87.5 L 46.8 94.1 L 45.12764043807984 95.8546067237854 L 52.0 97.0 L 55.0 99.0 L 52.0 100.8 L 52.0 182.0 L 40.0 188.0 L 40.0 101.16666669845581 L 34.4 106.5 L 27.7 112.3 L 20.7 117.7 L 13.4 122.6 L 12.2 121.3 L 18.2 114.8 L 24.0 108.4 L 29.6 102.0 L 35.1 95.4 L 40.3 88.7 L 45.3 81.9 L 50.0 74.9 L 54.5 67.7 L 58.8 60.4 L 62.31609754562378 53.807317066192624 L 62.3 53.8 L 63.3 51.9 Z M 106.9 177.0 L 116.9 177.0 L 117.6 176.9 L 118.0 176.8 L 118.3 176.7 L 118.5 176.5 L 119.0 175.5 L 119.2 174.6 L 119.4 173.4 L 119.4 140.41999998092652 L 115.1 143.0 L 113.85071086883545 143.5205370903015 L 113.5 144.9 L 111.8 150.5 L 109.7 155.9 L 108.08563737869262 159.3305206298828 L 108.9 160.3 L 111.0 163.0 L 112.9 165.8 L 114.7 168.9 L 114.6 173.5 L 111.4 176.7 L 106.8 176.7 L 103.6 173.4 L 102.8 170.6 L 102.40287590026855 169.36450290679932 L 101.8 170.3 L 98.6 174.5 L 95.1 178.3 L 91.3 181.7 L 87.1 184.6 L 85.8 183.3 L 85.89285717010497 183.15357141494752 L 74.2 189.0 L 74.2 87.0 L 86.2 93.0 L 97.15714282989502 93.0 L 97.2 92.8 L 97.7022222518921 93.0 L 100.046875 93.0 L 98.5 91.5 L 98.1 89.7 L 97.3 85.9 L 96.3 82.1 L 95.7 80.1 L 95.1 78.2 L 94.4 76.1 L 93.8 74.1 L 92.6 72.3 L 94.0 71.2 L 95.5 72.7 L 97.4 74.0 L 99.2 75.3 L 102.4 78.3 L 104.0 79.9 L 104.75909881591797 80.76031198501587 L 105.8 78.3 L 106.7 75.8 L 107.6 73.4 L 108.4 71.3 L 109.1 69.2 L 109.17368421554565 69.0 L 84.2 69.0 L 84.2 65.0 L 109.9 65.0 L 110.59473686218261 64.42105264663697 L 110.7 64.0 L 110.93798627853394 64.13501148223877 L 115.9 60.0 L 126.9 69.0 L 121.9 72.0 L 117.27142858505249 73.92857141494751 L 117.0 74.2 L 115.5 75.8 L 113.8 77.5 L 111.9 79.2 L 110.0 81.1 L 107.9 83.1 L 107.20752687454224 83.7021505355835 L 108.2 85.0 L 109.5 86.8 L 109.5 91.4 L 107.9484848022461 93.0 L 119.4 93.0 L 124.4 88.0 L 134.4 97.0 L 129.4 100.0 L 129.4 172.0 L 129.3 174.3 L 129.0 176.5 L 128.5 178.6 L 127.7 180.6 L 126.5 182.5 L 125.0 184.1 L 123.2 185.4 L 121.2 186.3 L 119.1 186.8 L 116.9 187.0 L 116.9 182.0 L 106.9 179.5 Z M 86.2 182.6692307472229 L 88.4 179.2 L 90.9 175.0 L 93.2 170.8 L 95.2 166.5 L 97.1 162.1 L 98.10439119338989 159.32315368652343 L 97.3 157.9 L 95.9 155.6 L 94.4 153.3 L 92.8 151.1 L 90.8 149.2 L 91.8 147.7 L 94.3 149.0 L 97.0 150.2 L 99.6 151.7 L 100.29577083587647 152.20095500946044 L 101.4 147.6 L 102.4 142.4 L 102.74909086227417 140.0 L 87.6 140.0 L 87.6 136.0 L 103.1 136.0 L 109.1 131.0 L 119.4 139.42727270126343 L 119.4 133.4699999809265 L 116.8 134.9 L 112.5 133.6 L 110.2 129.6 L 110.3 127.5 L 110.3 125.2 L 110.2 122.8 L 110.0 120.3 L 109.82105264663696 119.13684206008911 L 107.8 120.4 L 105.4 121.8 L 103.0 123.1 L 100.7 124.4 L 98.4 125.6 L 96.2 126.9 L 94.1 128.0 L 93.95182485580445 128.08467149734497 L 92.8 132.5 L 89.9 130.3 L 86.2 123.35438594818115 Z M 170.8 85.0 L 165.8 88.0 L 165.8 145.0 L 155.8 150.0 L 155.8 139.0 L 143.8 139.0 L 143.8 151.0 L 134.8 155.5 L 134.8 76.5 L 143.8 81.0 L 155.8 81.0 L 160.8 76.0 Z M 143.8 85.0 L 143.8 135.0 L 155.8 135.0 L 155.8 85.0 Z M 107.74666662216187 97.0 L 108.5 97.3 L 111.0 99.9 L 106.95901641845703 101.2225037574768 L 106.3 102.9 L 106.14730157852173 103.21714286804199 L 107.6 102.4 L 109.4 105.0 L 111.5 107.5 L 113.4 110.0 L 115.1 112.6 L 116.7 115.2 L 118.1 117.8 L 119.3 120.4 L 119.4 120.63636360168456 L 119.4 97.0 Z M 86.2 97.0 L 86.2 118.88695650100708 L 88.4 118.6 L 90.9 118.3 L 93.4 117.9 L 93.63239440917968 117.87211265563965 L 93.8 116.9 L 94.2 114.1 L 95.2 108.5 L 96.0 102.9 L 96.3 100.1 L 96.6 97.4 L 96.62857141494752 97.0 Z M 103.7 108.3 L 102.3 110.9 L 100.8 113.5 L 99.2 116.0 L 98.30033388137818 117.32303838729858 L 98.5 117.3 L 101.1 117.1 L 103.9 116.8 L 106.6 116.7 L 109.39695434570312 116.6035532951355 L 109.1 115.0 L 108.6 112.2 L 107.9 109.3 L 107.2 106.2 L 106.04964332580566 103.41997146606445 Z M 66.2 20.8 L 67.7 24.1 L 64.01692304611205 24.1 L 61.9 27.3 L 57.4 33.6 L 52.8 39.7 L 48.1 45.5 L 43.1 51.1 L 38.0 56.4 L 32.7 61.5 L 27.2 66.3 L 21.5 70.6 L 15.5 74.6 L 14.3 73.3 L 18.9 67.9 L 23.5 62.4 L 27.9 57.0 L 32.3 51.4 L 36.6 45.7 L 40.7 39.9 L 44.7 33.9 L 48.5 27.7 L 52.2 21.3 L 55.30122184753418 15.700571727752685 L 55.3 15.7 L 56.3 13.9 Z M 96.0 53.0 L 95.9 51.1 L 95.7 49.1 L 95.4 47.2 L 95.0 45.2 L 94.0 41.2 L 93.3 39.1 L 92.1 37.3 L 93.5 36.1 L 95.1 37.7 L 97.0 39.0 L 98.8 40.6 L 100.4 42.3 L 102.0 44.1 L 103.4 46.1 L 104.7 48.1 L 105.8 50.3 L 106.9 52.6 L 107.8 55.0 L 106.7 59.5 L 102.8 61.9 L 98.4 60.8 L 95.9 56.9 L 96.0 55.0 Z M 115.4 49.5 L 114.6 47.6 L 113.8 45.8 L 112.9 43.9 L 111.8 42.1 L 110.7 40.4 L 109.5 38.6 L 107.8 37.2 L 108.7 35.7 L 110.8 36.7 L 113.0 37.4 L 115.2 38.4 L 117.3 39.6 L 119.3 41.0 L 121.2 42.6 L 123.1 44.4 L 124.9 46.4 L 126.5 48.5 L 128.1 50.8 L 128.2 55.3 L 125.1 58.7 L 120.5 58.8 L 117.2 55.6 L 116.6 53.5 Z M 171.7 54.0 L 171.7 58.0 L 131.1 58.0 L 131.1 54.0 L 153.51818180084229 54.0 L 161.7 45.0 Z " />
</g>
</svg>
