<svg xmlns="http://www.w3.org/2000/svg" xmlns:xlink="http://www.w3.org/1999/xlink" version="1.1" baseProfile="full" viewBox="0 0 200 200" width="200" height="200">
<g fill="black">
<path d="M 109.2 116.0 L 109.1 114.8 L 108.8 113.5 L 108.2 112.0 L 107.5 110.5 L 106.6 108.8 L 105.5 107.1 L 104.2 105.2 L 102.4 103.8 L 103.4 102.3 L 105.4 103.5 L 107.7 104.3 L 109.7 105.2 L 111.7 106.2 L 113.5 107.3 L 115.2 108.5 L 116.8 109.8 L 118.2 111.3 L 119.5 112.9 L 120.6 114.7 L 120.0 119.2 L 118.75862064361573 120.2 L 141.842857170105 120.2 L 143.3 118.5 L 144.7 116.1 L 146.1 113.8 L 147.4 111.6 L 149.8 107.4 L 150.9 105.4 L 152.9 101.6 L 153.3085865020752 100.62960710525513 L 153.1 100.5 L 153.667010307312 99.77835054397583 L 153.7 99.7 L 153.7180464744568 99.71339530944825 L 154.2 99.1 L 163.4 106.9 L 164.6 110.3 L 160.08764476776122 109.83320465087891 L 159.9 110.0 L 158.0 111.5 L 156.1 112.9 L 154.1 114.4 L 152.0 115.9 L 149.7 117.4 L 147.4 118.8 L 145.0 120.2 L 161.0 120.2 L 171.0 110.2 L 183.0 120.2 L 183.0 124.2 L 138.0 124.2 L 138.0 138.9 L 160.01818180084229 138.9 L 168.2 129.9 L 178.2 138.9 L 178.2 142.9 L 138.0 142.9 L 138.0 159.6 L 167.1 159.6 L 177.1 149.6 L 189.1 159.6 L 189.1 163.6 L 138.0 163.6 L 138.0 185.9 L 126.0 191.9 L 126.0 163.6 L 75.5 163.6 L 75.5 159.6 L 126.0 159.6 L 126.0 142.9 L 85.0 142.9 L 85.0 138.9 L 126.0 138.9 L 126.0 124.2 L 80.3 124.2 L 80.3 120.2 L 110.82285718917846 120.2 L 109.0 118.0 L 109.2 117.1 Z M 79.8 52.0 L 81.3 55.3 L 77.58591928482056 55.235964107513425 L 74.6 59.6 L 68.9 67.0 L 63.0 74.2 L 56.7 81.3 L 51.281481456756595 87.04691362380981 L 57.0 88.0 L 60.0 90.0 L 57.0 91.8 L 57.0 182.0 L 45.0 188.0 L 45.0 93.25217390060425 L 43.2 95.0 L 36.0 101.6 L 28.3 107.9 L 20.3 113.9 L 11.9 119.7 L 10.7 118.2 L 17.8 111.0 L 24.7 103.9 L 31.4 96.8 L 37.8 89.7 L 43.9 82.6 L 49.6 75.3 L 55.1 68.0 L 60.3 60.6 L 65.1 53.2 L 69.14214973449707 46.52166576385498 L 69.1 46.5 L 70.2 44.8 Z M 109.2 30.2 L 109.0 28.9 L 108.7 27.4 L 108.2 25.9 L 107.4 24.3 L 106.5 22.6 L 105.4 20.8 L 104.1 18.9 L 102.3 17.4 L 103.4 15.9 L 105.4 17.2 L 107.7 18.0 L 109.8 19.0 L 111.8 20.1 L 113.6 21.3 L 115.3 22.6 L 116.9 24.1 L 118.3 25.7 L 119.6 27.4 L 120.7 29.3 L 120.0 33.8 L 118.3285714149475 35.1 L 141.5818181991577 35.1 L 143.3 33.0 L 144.7 30.5 L 146.0 28.1 L 147.3 25.8 L 148.6 23.6 L 149.7 21.4 L 150.8 19.3 L 151.9 17.3 L 152.8 15.3 L 153.27299013137818 14.301465320587159 L 153.1 14.2 L 154.2 12.7 L 163.5 20.3 L 164.8 23.7 L 160.24119997024536 23.385599994659422 L 160.0 23.6 L 156.2 26.8 L 154.2 28.4 L 149.8 31.6 L 147.5 33.2 L 145.0 34.7 L 144.5111110687256 35.1 L 161.0 35.1 L 171.0 25.1 L 183.0 35.1 L 183.0 39.1 L 138.0 39.1 L 138.0 54.7 L 160.01818180084229 54.7 L 168.2 45.7 L 178.2 54.7 L 178.2 58.7 L 138.0 58.7 L 138.0 76.5 L 167.1 76.5 L 177.1 66.5 L 189.1 76.5 L 189.1 80.5 L 138.0 80.5 L 138.0 104.1 L 126.0 110.1 L 126.0 80.5 L 75.5 80.5 L 75.5 76.5 L 126.0 76.5 L 126.0 58.7 L 85.0 58.7 L 85.0 54.7 L 126.0 54.7 L 126.0 39.1 L 80.3 39.1 L 80.3 35.1 L 111.26000003814697 35.1 L 109.1 32.4 L 109.2 31.3 Z M 75.0 20.7 L 75.8 24.2 L 72.08951559066773 23.483941650390626 L 70.4 25.1 L 65.7 29.4 L 60.7 33.7 L 55.4 37.9 L 49.9 42.1 L 44.1 46.3 L 38.1 50.3 L 31.8 54.3 L 25.2 58.1 L 18.3 61.7 L 17.3 60.2 L 23.0 55.0 L 28.7 50.0 L 34.1 45.1 L 39.4 40.3 L 44.4 35.6 L 49.3 31.0 L 53.8 26.3 L 58.2 21.7 L 62.3 17.2 L 66.1 12.6 L 66.1696478843689 12.663387393951416 L 66.5 12.3 Z " />
</g>
</svg>
