<svg xmlns="http://www.w3.org/2000/svg" xmlns:xlink="http://www.w3.org/1999/xlink" version="1.1" baseProfile="full" viewBox="0 0 200 200" width="200" height="200">
<g fill="black">
<path d="M 178.1 181.8 L 176.3 183.5 L 174.4 184.9 L 172.3 186.2 L 170.1 187.2 L 167.9 188.0 L 165.5 188.5 L 163.1 188.8 L 160.6 189.0 L 160.6 183.0 L 140.6 180.0 L 140.6 177.0 L 160.6 177.0 L 162.0 176.9 L 163.4 176.7 L 164.6 176.4 L 165.7 176.1 L 166.7 175.6 L 167.7 175.0 L 168.6 174.3 L 169.5 173.5 L 170.4 172.5 L 171.2 171.3 L 171.4 170.9 L 171.9 168.8 L 172.5 165.5 L 173.0 161.2 L 173.4 155.8 L 173.7 149.3 L 173.9 142.0 L 174.1 133.6 L 174.1 124.3 L 174.09669618606569 123.95970993041992 L 174.0 124.0 L 174.0 116.0 L 171.21320753097535 116.0 L 168.1 126.0 L 164.6 136.0 L 160.8 145.2 L 156.6 153.7 L 152.1 161.5 L 147.4 168.6 L 142.3 174.9 L 136.9 180.4 L 131.1 185.0 L 125.0 188.7 L 123.9 187.2 L 128.5 182.2 L 132.9 176.8 L 137.1 170.9 L 141.0 164.4 L 144.7 157.4 L 148.2 149.7 L 151.5 141.4 L 154.5 132.4 L 157.2 122.8 L 158.82272729873657 116.0 L 153.92058820724486 116.0 L 151.3 122.6 L 148.5 129.1 L 145.3 135.2 L 142.0 141.1 L 138.4 146.6 L 134.5 151.8 L 130.4 156.7 L 126.1 161.1 L 121.4 165.1 L 116.4 168.6 L 115.2 167.3 L 118.7 162.5 L 122.0 157.6 L 125.2 152.7 L 128.2 147.6 L 131.1 142.3 L 133.8 136.7 L 136.3 130.9 L 138.5 124.9 L 140.6 118.7 L 141.34680852890014 116.0 L 135.32542371749878 116.0 L 135.0 116.6 L 131.5 122.3 L 127.9 127.5 L 124.1 132.4 L 120.1 137.0 L 115.9 141.0 L 111.4 144.6 L 111.3 144.5 L 111.3 156.9 L 100.3 162.4 L 100.3 150.9 L 83.4 150.9 L 83.4 162.9 L 71.4 168.9 L 71.4 28.4 L 83.4 34.4 L 100.3 34.4 L 105.8 29.4 L 116.3 38.4 L 111.3 41.9 L 111.3 141.3551724433899 L 113.0 138.6 L 115.9 133.7 L 118.7 128.7 L 121.4 123.6 L 124.1 118.1 L 126.7 112.4 L 129.1 106.5 L 131.4 100.3 L 133.7 93.8 L 135.51338005065918 87.92810277938842 L 135.4 87.9 L 131.5 87.9 L 131.5 90.9 L 120.5 96.4 L 120.5 18.5 L 131.5 24.0 L 167.5 24.0 L 173.5 19.0 L 184.5 28.0 L 179.5 32.0 L 179.5 91.9 L 167.5 97.9 L 167.5 87.9 L 141.19056606292725 87.9 L 147.1 90.8 L 149.3 93.7 L 145.6310344696045 94.47241382598877 L 144.3 97.8 L 141.4 104.4 L 138.2 110.7 L 137.49491529464723 112.0 L 174.0 112.0 L 180.0 107.0 L 191.0 116.0 L 186.04875717163085 118.9707456588745 L 186.1 124.3 L 186.1 133.7 L 185.9 142.2 L 185.7 149.8 L 185.4 156.5 L 184.9 162.3 L 184.4 167.2 L 183.7 171.3 L 182.7 174.8 L 181.2 178.0 L 179.7 180.0 Z M 69.7 51.6 L 71.4 54.7 L 67.75992441177368 54.951039695739745 L 65.3 59.2 L 60.6 66.6 L 55.7 73.9 L 50.5 81.0 L 45.67157897949219 87.14526319503784 L 50.8 88.0 L 53.8 90.0 L 50.8 91.8 L 50.8 182.0 L 38.8 188.0 L 38.8 95.13278684616088 L 33.1 101.3 L 26.8 107.7 L 20.0 113.8 L 12.9 119.6 L 11.6 118.3 L 17.3 111.2 L 22.8 104.1 L 28.1 97.1 L 33.3 90.0 L 38.2 82.9 L 42.8 75.7 L 47.2 68.4 L 51.4 61.1 L 55.3 53.6 L 58.54656505584717 47.01912488937378 L 58.5 47.0 L 59.5 45.0 Z M 83.4 111.8 L 83.4 146.9 L 100.3 146.9 L 100.3 111.8 Z M 83.4 75.1 L 83.4 107.8 L 100.3 107.8 L 100.3 75.1 Z M 131.5 57.1 L 131.5 83.9 L 167.5 83.9 L 167.5 57.1 Z M 83.4 38.4 L 83.4 71.1 L 100.3 71.1 L 100.3 38.4 Z M 65.7 20.4 L 66.9 23.8 L 63.10057973861694 23.34144926071167 L 61.9 24.7 L 57.9 29.1 L 53.7 33.4 L 49.3 37.6 L 44.7 41.9 L 39.9 46.0 L 34.9 50.1 L 29.6 54.1 L 24.0 58.0 L 18.2 61.6 L 17.0 60.3 L 21.6 55.1 L 26.0 50.1 L 30.4 45.3 L 34.6 40.6 L 38.7 35.9 L 42.5 31.3 L 46.2 26.7 L 49.7 22.2 L 53.0 17.6 L 55.53397426605225 13.921650218963624 L 55.5 13.9 L 56.5 12.5 Z M 131.5 28.0 L 131.5 53.1 L 167.5 53.1 L 167.5 28.0 Z " />
</g>
</svg>
