<svg xmlns="http://www.w3.org/2000/svg" xmlns:xlink="http://www.w3.org/1999/xlink" version="1.1" baseProfile="full" viewBox="0 0 200 200" width="200" height="200">
<g fill="black">
<path d="M 129.0 176.0 L 149.0 176.0 L 150.2 175.9 L 151.1 175.7 L 152.0 175.4 L 152.4 175.0 L 152.7 174.1 L 152.9 173.2 L 153.0 172.0 L 153.0 82.0 L 133.0 82.0 L 133.0 78.0 L 166.0 78.0 L 176.0 68.0 L 188.0 78.0 L 188.0 82.0 L 165.0 82.0 L 165.0 172.0 L 164.8 174.5 L 164.4 177.0 L 163.6 179.4 L 162.3 181.7 L 160.7 183.7 L 158.7 185.3 L 156.4 186.6 L 154.0 187.4 L 151.5 187.8 L 149.0 188.0 L 149.0 182.0 L 129.0 179.0 Z M 68.3 57.9 L 70.0 61.0 L 66.35992441177368 61.25103969573975 L 63.9 65.5 L 59.2 72.8 L 54.3 79.9 L 49.1 86.8 L 43.7 93.5 L 42.087096786499025 95.31451616287231 L 48.6 96.4 L 51.6 98.4 L 48.6 100.2 L 48.6 181.9 L 36.6 187.9 L 36.6 101.35084743499756 L 32.2 105.9 L 26.0 111.8 L 19.5 117.2 L 12.7 122.2 L 11.4 120.9 L 16.9 114.5 L 22.1 108.0 L 27.3 101.6 L 32.2 95.0 L 37.0 88.3 L 41.6 81.4 L 45.9 74.4 L 50.0 67.2 L 53.9 59.9 L 57.14656505584717 53.31912488937378 L 57.1 53.3 L 58.2 51.3 Z M 106.5 17.9 L 109.0 19.9 L 106.5 21.566666698455812 L 106.5 79.7 L 119.1 79.7 L 119.1 29.0 L 130.1 31.0 L 132.8 33.0 L 130.1 34.723404216766355 L 130.1 85.7 L 119.1 91.2 L 119.1 83.7 L 106.5 83.7 L 106.5 155.9 L 122.0 155.9 L 122.0 102.4 L 134.0 104.4 L 137.0 106.4 L 134.0 108.2 L 134.0 165.9 L 122.0 171.9 L 122.0 159.9 L 80.9 159.9 L 80.9 171.9 L 68.9 177.9 L 68.9 102.4 L 80.9 104.4 L 83.9 106.4 L 80.9 108.2 L 80.9 155.9 L 96.5 155.9 L 96.5 83.7 L 83.9 83.7 L 83.9 86.7 L 72.9 92.2 L 72.9 29.0 L 83.9 31.0 L 86.6 33.0 L 83.9 34.723404216766355 L 83.9 79.7 L 96.5 79.7 L 96.5 15.9 Z M 61.7 19.7 L 63.4 22.9 L 59.69587707519531 23.091592597961426 L 57.8 26.3 L 53.6 32.6 L 49.4 38.7 L 44.9 44.6 L 40.3 50.2 L 35.6 55.6 L 30.7 60.7 L 25.6 65.5 L 20.2 69.9 L 14.6 74.0 L 13.4 72.7 L 17.5 67.3 L 21.6 61.8 L 25.7 56.4 L 29.7 50.8 L 33.6 45.1 L 37.3 39.2 L 41.0 33.2 L 44.5 27.0 L 47.9 20.7 L 51.1 14.1 L 51.157653427124025 14.130458450317382 L 51.7 13.1 Z M 183.0 33.0 L 183.0 37.0 L 137.0 37.0 L 137.0 33.0 L 164.8181818008423 33.0 L 173.0 24.0 Z " />
</g>
</svg>
