<svg xmlns="http://www.w3.org/2000/svg" xmlns:xlink="http://www.w3.org/1999/xlink" version="1.1" baseProfile="full" viewBox="0 0 200 200" width="200" height="200">
<g fill="black">
<path d="M 75.6 53.8 L 77.2 57.0 L 73.51129703521728 57.06359834671021 L 70.8 61.3 L 65.7 68.8 L 60.3 76.0 L 54.6 83.2 L 49.47341775894165 89.0955696105957 L 54.9 90.0 L 57.9 92.0 L 54.9 93.8 L 54.9 184.0 L 42.9 190.0 L 42.9 96.25238094329833 L 42.3 96.9 L 35.7 103.4 L 28.8 109.8 L 21.5 115.9 L 13.8 121.6 L 12.6 120.3 L 18.9 113.1 L 25.0 106.0 L 30.9 99.0 L 36.6 91.9 L 42.1 84.7 L 47.2 77.5 L 52.1 70.2 L 56.7 62.9 L 61.1 55.4 L 64.61609754562377 48.807317066192624 L 64.6 48.8 L 64.85384616851806 48.3615385055542 L 65.1 47.9 L 65.11588506698608 47.9089259147644 L 65.7 46.9 Z M 166.9 156.0 L 161.5 148.7 L 156.5 141.0 L 151.9 132.8 L 147.7 124.1 L 143.9 114.9 L 140.5 105.2 L 139.0 99.68214282989501 L 139.0 182.0 L 127.0 188.0 L 127.0 110.69130430221557 L 124.2 116.9 L 119.0 126.5 L 113.5 135.6 L 107.5 144.1 L 101.1 152.0 L 94.2 159.3 L 86.8 165.8 L 79.0 171.6 L 77.8 170.3 L 84.2 163.1 L 90.2 155.7 L 95.9 148.0 L 101.3 139.8 L 106.2 131.3 L 110.8 122.2 L 115.0 112.7 L 118.8 102.8 L 122.3 92.3 L 124.26236562728882 85.0 L 80.3 85.0 L 80.3 81.0 L 127.0 81.0 L 127.0 42.74285717010498 L 122.6 44.0 L 114.1 46.2 L 105.2 48.2 L 96.1 49.7 L 86.6 50.8 L 86.3 49.1 L 95.2 46.0 L 103.8 43.0 L 112.1 40.0 L 120.2 36.8 L 128.0 33.6 L 135.5 30.2 L 142.7 26.7 L 149.6 23.1 L 156.2 19.3 L 161.6351014137268 15.84914197921753 L 161.6 15.8 L 161.64277658462524 15.844268798828125 L 162.5 15.3 L 164.68988046646118 18.997666931152345 L 170.2 24.7 L 170.4 28.1 L 166.73748035430907 26.584474658966066 L 161.6 29.3 L 154.4 32.7 L 146.8 35.9 L 139.0 38.8 L 138.4285714149475 39.0 L 139.0 39.0 L 139.0 81.0 L 163.7 81.0 L 173.7 71.0 L 185.7 81.0 L 185.7 85.0 L 139.0 85.0 L 139.0 87.75 L 141.6 93.6 L 146.0 103.0 L 150.5 111.9 L 155.1 120.3 L 160.0 128.1 L 165.1 135.3 L 170.3 142.1 L 175.8 148.2 L 181.6 153.9 L 187.5 159.0 L 189.7 160.8 L 178.8 168.9 L 172.7 162.7 Z M 71.2 22.5 L 72.2 26.0 L 68.48519287109374 25.41345148086548 L 67.1 26.9 L 62.7 31.2 L 58.2 35.5 L 53.4 39.8 L 48.4 44.0 L 43.2 48.1 L 37.7 52.2 L 32.0 56.2 L 25.9 60.0 L 19.6 63.7 L 18.5 62.2 L 28.6 52.1 L 33.4 47.2 L 38.1 42.5 L 42.6 37.8 L 46.9 33.1 L 51.0 28.5 L 54.8 24.0 L 58.5 19.4 L 61.9 14.9 L 61.9094464302063 14.907719612121582 L 62.3 14.4 Z " />
</g>
</svg>
