<svg xmlns="http://www.w3.org/2000/svg" xmlns:xlink="http://www.w3.org/1999/xlink" version="1.1" baseProfile="full" viewBox="0 0 200 200" width="200" height="200">
<g fill="black">
<path d="M 73.3 58.8 L 74.9 62.0 L 71.21129703521729 62.06359834671021 L 68.5 66.3 L 63.5 73.6 L 58.2 80.7 L 52.6 87.5 L 46.8 94.1 L 45.12764043807984 95.8546067237854 L 52.0 97.0 L 55.0 99.0 L 52.0 100.8 L 52.0 182.0 L 40.0 188.0 L 40.0 101.16666669845581 L 34.4 106.5 L 27.7 112.3 L 20.7 117.7 L 13.4 122.6 L 12.2 121.3 L 18.2 114.8 L 24.0 108.4 L 29.6 102.0 L 35.1 95.4 L 40.3 88.7 L 45.3 81.9 L 50.0 74.9 L 54.5 67.7 L 58.8 60.4 L 62.31609754562378 53.807317066192624 L 62.3 53.8 L 63.3 51.9 Z M 149.2 176.0 L 166.4 176.0 L 167.3 175.8 L 167.9 175.6 L 168.2 175.4 L 168.4 175.3 L 168.6 175.1 L 168.9 174.2 L 169.1 173.3 L 169.2 172.0 L 169.2 127.5 L 137.0 127.5 L 137.0 151.3625 L 137.7 151.3 L 143.4 150.9 L 149.1 150.6 L 150.10927486419678 150.58229341506959 L 150.0 150.3 L 148.6 147.2 L 147.1 144.1 L 145.4 141.0 L 143.6 137.8 L 141.4 134.7 L 142.7 133.4 L 145.7 135.8 L 148.8 138.2 L 151.7 140.7 L 154.3 143.4 L 156.7 146.3 L 158.9 149.3 L 161.0 152.5 L 162.8 155.8 L 164.4 159.2 L 165.9 162.7 L 165.2 167.2 L 161.6 170.0 L 157.1 169.4 L 154.3 165.8 L 153.8 162.7 L 153.1 159.6 L 152.2 156.5 L 151.33057327270507 153.80477705001832 L 149.8 154.4 L 144.3 156.2 L 138.9 157.8 L 133.5 159.3 L 128.0 160.7 L 122.6 162.0 L 117.1 163.2 L 106.3 165.6 L 104.94493751525879 165.85093746185302 L 103.3 169.3 L 100.9 166.6 L 97.3 155.0 L 99.3 154.8 L 110.1 153.8 L 125.0 152.44545450210572 L 125.0 127.5 L 92.8 127.5 L 92.8 182.2 L 80.8 188.2 L 80.8 117.5 L 92.8 123.5 L 125.0 123.5 L 125.0 107.1 L 101.9 107.1 L 101.9 110.1 L 89.9 116.1 L 89.9 53.1 L 101.9 59.1 L 160.1 59.1 L 166.1 54.1 L 177.1 63.1 L 172.1 67.1 L 172.1 109.1 L 160.1 115.1 L 160.1 107.1 L 137.0 107.1 L 137.0 123.5 L 169.2 123.5 L 175.2 118.5 L 186.2 127.5 L 181.2 131.5 L 181.2 172.0 L 181.0 174.6 L 180.6 177.1 L 179.8 179.5 L 178.5 181.8 L 176.9 183.8 L 174.9 185.4 L 172.6 186.6 L 170.2 187.5 L 167.7 187.9 L 165.2 188.0 L 165.2 182.0 L 149.2 179.0 Z M 101.9 85.1 L 101.9 103.1 L 125.0 103.1 L 125.0 85.1 Z M 137.0 85.1 L 137.0 103.1 L 160.1 103.1 L 160.1 85.1 Z M 101.9 63.1 L 101.9 81.1 L 125.0 81.1 L 125.0 63.1 Z M 137.0 63.1 L 137.0 81.1 L 160.1 81.1 L 160.1 63.1 Z M 66.2 20.8 L 67.7 24.1 L 64.01692304611205 24.1 L 61.9 27.3 L 57.4 33.6 L 52.8 39.7 L 48.1 45.5 L 43.1 51.1 L 38.0 56.4 L 32.7 61.5 L 27.2 66.3 L 21.5 70.6 L 15.5 74.6 L 14.3 73.3 L 18.9 67.9 L 23.5 62.4 L 27.9 57.0 L 32.3 51.4 L 36.6 45.7 L 40.7 39.9 L 44.7 33.9 L 48.5 27.7 L 52.2 21.3 L 55.30122184753418 15.700571727752685 L 55.3 15.7 L 56.3 13.9 Z M 155.2 15.6 L 158.2 17.6 L 155.2 19.4 L 155.2 32.0 L 165.5 32.0 L 175.5 22.0 L 187.5 32.0 L 187.5 36.0 L 155.2 36.0 L 155.2 49.6 L 143.2 55.6 L 143.2 36.0 L 118.8 36.0 L 118.8 49.6 L 106.8 55.6 L 106.8 36.0 L 74.4 36.0 L 74.4 32.0 L 106.8 32.0 L 106.8 13.6 L 118.8 15.6 L 121.8 17.6 L 118.8 19.4 L 118.8 32.0 L 143.2 32.0 L 143.2 13.6 Z " />
</g>
</svg>
