<svg xmlns="http://www.w3.org/2000/svg" xmlns:xlink="http://www.w3.org/1999/xlink" version="1.1" baseProfile="full" viewBox="0 0 200 200" width="200" height="200">
<g fill="black">
<path d="M 78.9 59.0 L 80.3 62.3 L 76.60058269500732 62.236216926574706 L 73.5 66.6 L 67.8 73.9 L 61.9 80.9 L 55.6 87.8 L 49.1 94.3 L 47.49910316467285 95.7831838607788 L 54.8 97.0 L 57.8 99.0 L 54.8 100.8 L 54.8 182.0 L 42.8 188.0 L 42.8 100.13676471710205 L 42.3 100.6 L 35.1 106.7 L 27.7 112.4 L 19.9 117.7 L 11.7 122.7 L 10.6 121.2 L 17.5 114.8 L 24.2 108.3 L 30.7 101.8 L 37.0 95.2 L 42.9 88.5 L 48.6 81.6 L 54.1 74.6 L 59.2 67.4 L 64.1 60.1 L 68.27429857254029 53.43888521194458 L 68.2 53.4 L 69.3 51.8 Z M 77.6 175.3 L 96.5 175.3 L 96.5 133.2 L 108.5 135.2 L 111.5 137.2 L 108.5 139.0 L 108.5 175.3 L 129.2 175.3 L 129.2 114.6 L 141.2 116.6 L 144.2 118.6 L 141.2 120.4 L 141.2 142.0 L 161.11818180084228 142.0 L 169.3 133.0 L 179.3 142.0 L 179.3 146.0 L 141.2 146.0 L 141.2 175.3 L 165.6 175.3 L 175.6 165.3 L 187.6 175.3 L 187.6 179.3 L 77.6 179.3 Z M 133.5 41.6 L 136.5 43.6 L 133.19660682678222 45.58203592300415 L 132.7 52.1 L 131.24897956848145 60.0 L 160.5 60.0 L 166.5 55.0 L 177.5 64.0 L 172.5 67.0 L 172.3377465248108 67.0676055908203 L 172.3 68.2 L 172.0 73.9 L 171.6 79.0 L 171.1 83.7 L 170.4 88.0 L 169.6 91.9 L 168.7 95.3 L 167.5 98.4 L 166.1 101.2 L 164.2 103.7 L 162.5 105.5 L 160.7 107.1 L 158.8 108.5 L 156.8 109.7 L 154.7 110.7 L 152.5 111.6 L 150.2 112.3 L 147.9 112.7 L 145.5 113.0 L 143.1 113.1 L 143.1 107.1 L 123.1 104.1 L 123.1 101.1 L 144.6 101.1 L 146.0 100.9 L 147.3 100.6 L 148.6 100.2 L 149.8 99.8 L 151.0 99.2 L 152.1 98.5 L 153.2 97.7 L 154.3 96.8 L 155.4 95.7 L 155.8 95.0 L 156.5 93.7 L 157.2 91.7 L 157.9 89.1 L 158.6 85.9 L 159.2 82.2 L 159.7 77.9 L 160.0 73.1 L 160.3 67.7 L 160.42758617401122 64.0 L 130.2307692527771 64.0 L 128.0 71.0 L 124.2 79.4 L 119.3 86.9 L 113.5 93.6 L 106.7 99.5 L 99.0 104.4 L 90.5 108.4 L 81.1 111.3 L 80.4 109.7 L 88.8 105.0 L 96.1 99.9 L 102.5 94.4 L 107.8 88.5 L 112.3 82.2 L 115.8 75.3 L 118.5 67.8 L 120.3 59.7 L 121.3 51.0 L 121.5 41.6 L 121.5 40.9 L 78.8 40.9 L 78.8 36.9 L 126.0 36.9 L 126.0 14.8 L 138.0 16.8 L 141.0 18.8 L 138.0 20.6 L 138.0 36.9 L 163.1 36.9 L 173.1 26.9 L 185.1 36.9 L 185.1 40.9 L 130.0 40.9 Z M 70.8 21.1 L 72.2 24.4 L 68.45835485458375 24.270977783203126 L 66.0 27.6 L 61.0 33.9 L 55.8 39.9 L 50.5 45.7 L 44.9 51.3 L 39.2 56.6 L 33.3 61.6 L 27.1 66.4 L 20.7 70.7 L 14.1 74.7 L 13.0 73.2 L 18.3 67.8 L 23.6 62.3 L 28.8 56.8 L 33.8 51.2 L 38.7 45.5 L 43.4 39.6 L 48.0 33.6 L 52.4 27.4 L 56.7 21.0 L 60.27091064453125 15.338800144195556 L 60.2 15.3 L 61.3 13.7 Z " />
</g>
</svg>
