<svg xmlns="http://www.w3.org/2000/svg" xmlns:xlink="http://www.w3.org/1999/xlink" version="1.1" baseProfile="full" viewBox="0 0 200 200" width="200" height="200">
<g fill="black">
<path d="M 126.7 176.6 L 125.4 178.8 L 123.8 180.7 L 121.9 182.3 L 119.8 183.7 L 117.5 184.7 L 115.1 185.4 L 112.6 185.8 L 110.1 186.0 L 110.1 180.0 L 94.1 177.0 L 94.1 174.0 L 110.1 174.0 L 111.4 173.9 L 112.5 173.7 L 113.4 173.5 L 114.1 173.1 L 114.6 172.8 L 115.2 172.3 L 115.7 171.7 L 116.6 169.9 L 117.0 168.7 L 119.5 159.7 L 121.4 150.6 L 122.25738754272462 144.46638116836547 L 120.6 146.4 L 116.2 151.0 L 111.5 155.4 L 106.5 159.6 L 101.2 163.4 L 95.7 166.9 L 89.9 170.0 L 84.7478253364563 172.24368896484376 L 84.4 173.9 L 83.6 176.3 L 82.6 178.6 L 81.3 180.7 L 79.7 182.7 L 77.8 184.3 L 75.7 185.7 L 73.4 186.7 L 71.0 187.4 L 68.5 187.8 L 66.0 188.0 L 66.0 182.0 L 56.0 179.0 L 56.0 176.0 L 66.0 176.0 L 67.3 175.9 L 68.4 175.7 L 69.2 175.5 L 69.9 175.1 L 70.5 174.8 L 71.0 174.3 L 71.5 173.7 L 72.0 172.9 L 72.5 172.0 L 72.9 170.7 L 75.4 161.7 L 77.2 152.6 L 77.95518207550049 146.74733896255492 L 76.6 148.4 L 72.2 153.0 L 67.5 157.4 L 62.6 161.5 L 57.5 165.4 L 52.0 168.9 L 46.2 172.0 L 40.1 174.7 L 39.2 173.2 L 44.1 168.9 L 48.8 164.6 L 53.3 160.3 L 57.5 156.0 L 61.5 151.5 L 65.2 146.9 L 68.7 142.1 L 71.9 137.3 L 74.9 132.2 L 77.6 127.0 L 79.0 127.78666667938232 L 79.0 124.6 L 78.4 115.1 L 77.9922251701355 112.05737266540527 L 77.5 112.7 L 73.7 117.2 L 69.8 121.5 L 65.8 125.5 L 61.6 129.4 L 57.2 132.9 L 52.7 136.2 L 47.9 139.1 L 43.0 141.7 L 41.9 140.2 L 45.6 136.2 L 49.2 132.2 L 52.7 128.1 L 56.1 124.1 L 59.5 119.9 L 62.7 115.5 L 65.8 111.1 L 68.7 106.5 L 71.6 101.7 L 74.3 96.9 L 75.70760002136231 97.74180002212525 L 75.3 95.5 L 72.9 85.5 L 72.64714164733887 84.5698426246643 L 68.3 89.4 L 62.9 94.9 L 57.4 100.0 L 51.8 104.5 L 46.1 108.4 L 40.2 111.7 L 39.1 110.2 L 43.7 105.5 L 48.2 100.5 L 52.7 95.3 L 57.3 89.8 L 61.8 83.9 L 66.3 77.7 L 70.8 71.1 L 74.79159374237061 64.65901927947998 L 74.4 64.9 L 70.0 63.8 L 67.5 59.9 L 67.5 57.5 L 67.3 55.1 L 67.1 52.8 L 66.7 50.5 L 66.2 48.4 L 65.5 46.3 L 64.7 44.2 L 63.8 42.1 L 63.30941076278687 41.163420581817626 L 59.4 43.8 L 55.0 46.6 L 50.4 49.0 L 49.74171257019043 49.29412841796875 L 53.1 51.1 L 55.2 54.0 L 53.810247325897215 54.24381628036499 L 55.4 55.4 L 57.4 57.1 L 59.2 59.0 L 60.9 61.1 L 62.4 63.3 L 63.7 65.6 L 64.9 68.1 L 65.8 70.7 L 66.6 73.4 L 65.2 77.8 L 61.2 79.9 L 56.8 78.5 L 54.7 74.5 L 54.8 72.5 L 54.9 70.4 L 54.8 68.4 L 54.6 66.3 L 54.3 64.2 L 53.8 62.1 L 53.1 59.9 L 52.4 57.6 L 51.5 55.3 L 51.310526275634764 55.04736843109131 L 49.7 58.6 L 46.1 66.1 L 42.3 73.4 L 38.2 80.5 L 34.16363639831543 87.22727270126343 L 38.8 88.0 L 41.8 90.0 L 38.8 91.8 L 38.8 182.0 L 26.8 188.0 L 26.8 98.06875 L 24.7 101.0 L 19.7 107.4 L 14.4 113.6 L 8.7 119.5 L 7.3 118.4 L 15.3 104.4 L 19.2 97.4 L 23.0 90.4 L 26.6 83.3 L 30.0 76.2 L 33.3 69.0 L 36.4 61.6 L 39.3 54.2 L 40.2 51.7 L 39.9 51.2 L 40.60807456970215 50.56645965576172 L 41.66849527359009 47.620846366882326 L 41.6 47.6 L 42.5 45.4 L 44.92739429473877 46.705296993255615 L 47.4 44.5 L 51.1 41.3 L 54.7 37.9 L 58.2 34.4 L 61.5 30.8 L 64.8 27.1 L 68.0 23.2 L 71.1 19.2 L 73.5270544052124 15.883025646209717 L 73.4 15.8 L 74.5 14.5 L 83.5 22.4 L 84.7 25.8 L 80.90794067382812 25.342337703704835 L 79.8 26.6 L 75.9 30.5 L 72.0 34.2 L 67.9 37.6 L 65.94965515136718 39.13241376876831 L 66.6 39.5 L 68.8 41.0 L 70.8 42.8 L 72.6 44.8 L 74.3 47.1 L 75.8 49.6 L 77.2 52.2 L 78.4 55.0 L 79.17281551361084 57.31844663619995 L 79.6 56.6 L 83.53838739395141 49.618313217163085 L 83.5 49.6 L 83.61881189346313 49.398019790649414 L 83.5 49.2 L 83.98297214508057 48.77894735336304 L 84.5 47.9 L 84.77295694351196 48.09024267196655 L 87.4 45.8 L 91.2 42.5 L 94.9 39.2 L 98.5 35.9 L 102.1 32.4 L 105.5 28.8 L 108.8 25.1 L 112.1 21.2 L 115.2 17.2 L 117.61938581466674 13.812859916687012 L 117.6 13.8 L 117.78333330154419 13.58333330154419 L 118.2 13.0 L 118.24611654281617 13.03640775680542 L 118.7 12.5 L 127.7 20.5 L 128.8 23.9 L 125.03064880371093 23.380089473724365 L 123.9 24.6 L 120.0 28.5 L 116.0 32.2 L 111.8 35.6 L 109.87892379760743 37.109417057037355 L 110.6 37.5 L 112.7 39.0 L 114.7 40.8 L 116.6 42.8 L 118.3 45.1 L 119.9 47.5 L 121.2 50.2 L 122.4 53.0 L 123.27559804916382 55.626794242858885 L 123.9 54.6 L 128.3 46.7 L 128.35926837921141 46.73567609786987 L 128.9 45.9 L 138.6 52.9 L 140.2 56.1 L 136.46559352874755 56.16438627243042 L 133.5 60.7 L 128.3 68.0 L 123.0 74.9 L 119.25837068557739 79.48879070281983 L 120.6 82.2 L 124.6 92.1 L 127.1108286857605 100.11845302581787 L 128.7 101.1 L 127.79049777984619 102.37330312728882 L 130.1 111.9 L 131.7 121.9 L 132.6 131.9 L 132.7 142.0 L 132.1 152.0 L 130.7 162.0 L 128.6 171.9 L 127.8 174.4 Z M 168.4 177.3 L 162.9 170.4 L 158.1 162.3 L 156.60875854492187 159.21584157943727 L 153.8 163.7 L 147.5 171.5 L 140.8 178.0 L 133.4 183.1 L 125.7 186.7 L 124.9 185.2 L 131.2 180.0 L 137.1 174.1 L 142.4 167.4 L 147.4 159.6 L 151.9 150.8 L 152.37688817977906 149.64848937988282 L 149.9 143.0 L 146.5 131.7 L 143.7 119.3 L 141.5 105.8 L 140.1068027496338 93.0 L 131.0 93.0 L 131.0 89.0 L 149.3 89.0 L 149.3 16.0 L 161.3 18.0 L 164.3 20.0 L 161.3 21.8 L 161.3 52.0 L 169.9777777671814 52.0 L 176.2 45.0 L 184.2 52.0 L 184.2 56.0 L 161.3 56.0 L 161.3 89.0 L 167.8 89.0 L 173.8 84.0 L 184.8 93.0 L 179.8 96.0 L 178.78302583694457 96.42373924255371 L 176.7 106.7 L 173.2 120.4 L 169.2 133.0 L 164.6 144.4 L 162.1543352127075 149.29132947921752 L 166.8 157.1 L 171.7 163.7 L 176.8 169.1 L 182.0 173.2 L 187.2 176.1 L 192.4 178.8 L 181.1 187.8 L 174.4 183.2 Z M 121.5 110.7 L 117.7 115.2 L 113.8 119.5 L 109.7 123.6 L 105.4 127.4 L 101.0 130.9 L 96.4 134.2 L 91.6 137.2 L 88.39705886840821 138.8014705657959 L 88.5 144.0 L 87.8 154.0 L 86.5 163.9 L 85.44461803436279 168.92562847137452 L 87.8 166.9 L 92.5 162.6 L 97.1 158.3 L 101.4 153.9 L 105.4 149.5 L 109.2 144.9 L 112.8 140.1 L 116.0 135.2 L 119.1 130.2 L 121.8 125.0 L 123.23410453796387 125.80583019256592 L 123.2 122.6 L 122.6 113.1 L 122.16511907577515 109.85511903762817 Z M 145.6 104.9 L 149.4 117.8 L 153.4 129.5 L 156.91882495880128 138.09247941970824 L 159.6 129.9 L 162.8 117.7 L 165.6 104.4 L 167.3416666984558 93.0 L 142.30851068496705 93.0 Z M 112.3 87.4 L 106.8 92.9 L 101.2 98.0 L 95.5 102.5 L 89.7 106.4 L 84.79495458602905 109.14350004196167 L 85.9 113.9 L 87.5 123.9 L 88.3 133.9 L 88.32467908859253 135.14629287719725 L 89.2 134.2 L 92.9 130.1 L 96.5 126.1 L 100.0 122.0 L 103.4 117.8 L 106.7 113.5 L 109.8 109.1 L 112.8 104.5 L 115.7 99.7 L 118.5 94.8 L 119.80407819747924 95.60546007156373 L 119.4 93.5 L 117.0 83.5 L 116.71643381118774 82.49285125732422 Z M 111.4 53.1 L 111.1 50.8 L 110.7 48.6 L 110.2 46.4 L 109.5 44.3 L 108.7 42.2 L 107.24411764144898 39.14264707565307 L 103.2 41.9 L 98.7 44.6 L 94.1 47.0 L 89.3 49.1 L 87.20380668640136 49.784471321105954 L 94.4 54.8 L 95.9 58.1 L 92.24230766296387 58.1 L 89.3 62.6 L 84.2 70.0 L 78.9 76.9 L 75.1853503227234 81.5433120727539 L 76.5 84.2 L 80.5 94.1 L 83.00734739303589 102.10733518600463 L 84.5 103.0 L 83.6560230255127 104.24114255905151 L 84.21591835021972 106.65112686157227 L 87.3 103.5 L 91.9 98.5 L 96.6 93.3 L 101.2 87.8 L 105.8 81.9 L 110.4 75.7 L 114.9 69.0 L 119.0411392211914 62.55822782516479 L 118.5 62.9 L 114.1 61.8 L 111.6 58.0 L 111.6 55.5 Z M 98.8 68.4 L 98.7 66.4 L 98.5 64.3 L 98.1 62.2 L 97.6 60.1 L 97.0 57.9 L 96.2 55.6 L 95.2 53.3 L 93.7 51.3 L 95.0 50.0 L 97.0 51.8 L 99.2 53.3 L 101.2 55.1 L 103.1 57.0 L 104.7 59.1 L 106.3 61.3 L 107.6 63.6 L 108.7 66.1 L 109.7 68.7 L 110.5 71.4 L 109.1 75.8 L 105.1 77.9 L 100.7 76.5 L 98.6 72.5 L 98.7 70.5 Z M 50.1 19.8 L 51.7 23.0 L 47.948275852203366 23.064684867858887 L 47.2 24.2 L 44.1 28.6 L 40.8 32.9 L 37.4 37.2 L 33.8 41.4 L 30.0 45.7 L 26.0 49.8 L 21.9 53.9 L 17.4 57.8 L 12.7 61.6 L 11.4 60.3 L 14.6 55.3 L 17.8 50.4 L 24.0 41.0 L 27.0 36.4 L 29.8 31.8 L 32.5 27.3 L 35.0 22.8 L 37.4 18.3 L 39.23228034973145 14.71510362625122 L 39.2 14.7 L 40.2 12.9 Z " />
</g>
</svg>
