<svg xmlns="http://www.w3.org/2000/svg" xmlns:xlink="http://www.w3.org/1999/xlink" version="1.1" baseProfile="full" viewBox="0 0 200 200" width="200" height="200">
<g fill="black">
<path d="M 63.5 57.2 L 65.4 60.2 L 61.757247829437254 60.639642524719235 L 59.7 64.7 L 55.6 72.0 L 51.3 79.3 L 46.7 86.4 L 46.08285713195801 87.3 L 47.2 87.3 L 47.2 182.7 L 35.2 188.7 L 35.2 102.27777776718139 L 31.5 106.8 L 25.9 113.3 L 20.0 119.5 L 13.7 125.4 L 12.3 124.3 L 17.1 117.1 L 21.7 110.0 L 26.2 103.0 L 30.6 95.9 L 34.8 88.8 L 35.2 88.0615385055542 L 35.2 87.3 L 35.6125 87.3 L 38.7 81.6 L 42.5 74.4 L 46.1 67.1 L 49.4 59.7 L 52.12002897262573 53.20702772140503 L 52.1 53.2 L 52.393103408813474 52.55517244338989 L 52.5 52.3 L 52.50756015777588 52.30336771011353 L 53.1 51.0 Z M 129.6 175.0 L 149.6 175.0 L 150.8 174.9 L 151.7 174.7 L 152.6 174.4 L 153.0 174.0 L 153.2 173.7 L 153.3 173.1 L 153.5 172.2 L 153.6 171.0 L 153.6 73.0 L 131.7 73.0 L 131.7 69.0 L 164.9 69.0 L 174.9 59.0 L 186.9 69.0 L 186.9 73.0 L 165.6 73.0 L 165.6 171.0 L 165.4 173.5 L 165.0 176.0 L 164.2 178.4 L 163.0 180.7 L 161.3 182.7 L 159.3 184.3 L 157.0 185.6 L 154.6 186.4 L 152.1 186.8 L 149.6 187.0 L 149.6 181.0 L 129.6 178.0 Z M 80.8 27.3 L 114.2 27.3 L 120.2 22.3 L 131.2 31.3 L 126.2 35.3 L 126.2 69.4 L 80.8 69.4 L 80.8 89.8 L 80.4 102.0 L 79.8 113.7 L 79.0 124.8 L 78.0 135.3 L 76.8 145.3 L 75.4 154.6 L 73.7 163.3 L 71.8 171.4 L 69.5 178.8 L 66.8 185.6 L 65.1 185.1 L 65.8 178.0 L 66.5 170.4 L 67.2 162.3 L 67.8 153.7 L 68.4 144.5 L 68.7 134.7 L 69.0 124.3 L 69.1 113.4 L 69.0 101.9 L 68.8 89.8 L 68.8 21.3 Z M 75.4 173.0 L 95.1 173.0 L 95.1 125.5 L 79.3 125.5 L 79.3 121.5 L 95.1 121.5 L 95.1 85.1 L 107.1 87.1 L 110.1 89.1 L 107.1 90.9 L 107.1 121.5 L 112.3 121.5 L 116.8 115.5 L 122.8 121.5 L 122.8 125.5 L 107.1 125.5 L 107.1 173.0 L 112.4777777671814 173.0 L 118.7 166.0 L 126.7 173.0 L 126.7 177.0 L 75.4 177.0 Z M 60.3 19.0 L 62.0 22.2 L 58.26895523071289 22.328656673431396 L 56.7 24.9 L 52.8 30.6 L 48.7 36.3 L 44.5 41.9 L 40.0 47.4 L 35.3 52.8 L 30.5 58.0 L 25.4 63.1 L 19.9 68.0 L 14.2 72.7 L 12.9 71.4 L 21.3 59.6 L 25.4 53.8 L 29.4 48.1 L 33.2 42.3 L 36.9 36.6 L 43.7 25.0 L 46.8 19.1 L 49.334547710418704 14.115389442443847 L 49.3 14.1 L 50.3 12.2 Z M 80.8 31.3 L 80.8 65.4 L 114.2 65.4 L 114.2 31.3 Z M 181.3 28.0 L 181.3 32.0 L 135.7 32.0 L 135.7 28.0 L 163.11818180084228 28.0 L 171.3 19.0 Z " />
</g>
</svg>
