<svg xmlns="http://www.w3.org/2000/svg" xmlns:xlink="http://www.w3.org/1999/xlink" version="1.1" baseProfile="full" viewBox="0 0 200 200" width="200" height="200">
<g fill="black">
<path d="M 88.9 139.2 L 157.0 139.2 L 163.0 134.2 L 174.0 143.2 L 169.0 147.2 L 169.0 181.9 L 157.0 187.9 L 157.0 177.9 L 88.9 177.9 L 88.9 184.9 L 76.9 190.9 L 76.9 133.2 Z M 163.9380711555481 15.22140874862671 L 174.7 24.1 L 175.1 27.1 L 170.67355375289918 24.886776828765868 L 166.0 25.8 L 158.5 26.9 L 150.9 27.9 L 143.1 28.8 L 135.2 29.6 L 127.2 30.3 L 119.1 30.9 L 110.8 31.3 L 102.5 31.6 L 96.1241379737854 31.6 L 97.5 33.5 L 93.52354154586791 34.25415592193603 L 93.5 34.3 L 91.4 37.8 L 89.2 41.1 L 86.8 44.2 L 84.2 47.2 L 81.4 50.1 L 78.4 52.7 L 75.2 55.1 L 71.8 57.2 L 70.29840850830078 58.17161808013916 L 71.2 58.8 L 72.8 62.0 L 69.06728668212891 62.064357089996335 L 66.3 66.3 L 61.2 73.7 L 55.9 80.7 L 50.2 87.6 L 44.4 94.2 L 42.765454578399655 95.86090908050537 L 49.6 97.0 L 52.6 99.0 L 49.6 100.8 L 49.6 182.0 L 37.6 188.0 L 37.6 101.0625 L 31.8 106.5 L 25.0 112.3 L 17.9 117.7 L 10.5 122.6 L 9.4 121.3 L 15.4 114.8 L 21.3 108.4 L 27.1 101.9 L 32.6 95.4 L 37.9 88.7 L 42.9 81.8 L 47.7 74.8 L 52.3 67.7 L 56.6 60.4 L 60.249995136260985 53.723179531097415 L 60.2 53.7 L 61.3 51.9 L 68.31118211746215 56.78658151626587 L 69.8 55.0 L 72.0 51.9 L 74.1 48.8 L 76.0 45.7 L 77.8 42.6 L 79.4 39.5 L 80.8 36.3 L 82.1 33.1 L 83.2 29.8 L 83.83289222717285 27.409073734283446 L 83.8 27.4 L 83.9714285850525 26.88571424484253 L 84.1 26.4 L 84.12965879440307 26.41102361679077 L 84.6 25.0 L 91.01064224243164 28.324036693573 L 93.6 27.8 L 101.9 26.2 L 110.1 24.8 L 118.2 23.3 L 126.1 21.9 L 133.9 20.4 L 141.6 18.9 L 149.1 17.3 L 156.5 15.7 L 162.7096263885498 14.233838176727295 L 162.7 14.2 L 162.7340313911438 14.228075885772705 L 163.7 14.0 Z M 88.9 143.2 L 88.9 173.9 L 157.0 173.9 L 157.0 143.2 Z M 125.0 123.0 L 145.0 123.0 L 146.2 122.9 L 147.1 122.7 L 148.0 122.4 L 148.4 122.0 L 148.7 121.1 L 148.9 120.2 L 149.0 119.0 L 149.0 96.0 L 100.75161294937134 96.0 L 100.5 99.9 L 99.5 105.7 L 97.8 111.1 L 95.4 115.9 L 92.4 120.3 L 88.8 124.1 L 84.6 127.2 L 80.0 129.7 L 74.8 131.6 L 69.2 132.8 L 68.7 131.1 L 73.3 128.3 L 77.3 125.4 L 80.6 122.3 L 83.4 119.0 L 85.5 115.6 L 87.2 112.0 L 88.3 108.0 L 89.0 103.8 L 89.2 99.2 L 89.07200002670288 96.0 L 60.0 96.0 L 60.0 92.0 L 89.0 92.0 L 89.0 61.0 L 101.0 67.0 L 107.98000001907349 67.0 L 107.5 66.2 L 108.9 65.0 L 110.0 63.4 L 111.0 61.8 L 112.8 58.6 L 114.4 55.4 L 115.1 53.8 L 115.8 52.1 L 116.0489236831665 51.436203479766846 L 115.8 51.3 L 116.9 49.7 L 126.4 57.1 L 127.8 60.4 L 122.92741117477416 60.23197965621948 L 121.4 61.4 L 119.6 62.6 L 117.8 63.7 L 116.0 64.7 L 114.1 65.5 L 112.1 66.3 L 110.1 66.8 L 109.72222223281861 67.0 L 149.0 67.0 L 155.0 62.0 L 166.0 71.0 L 161.0 75.0 L 161.0 92.0 L 165.0 92.0 L 175.0 82.0 L 187.0 92.0 L 187.0 96.0 L 161.0 96.0 L 161.0 119.0 L 160.8 121.5 L 160.4 124.0 L 159.6 126.4 L 158.3 128.7 L 156.7 130.7 L 154.7 132.3 L 152.4 133.6 L 150.0 134.4 L 147.5 134.8 L 145.0 135.0 L 145.0 129.0 L 125.0 126.0 Z M 131.0 100.0 L 134.0 102.0 L 131.0 103.8 L 131.0 119.0 L 119.0 125.0 L 119.0 98.0 Z M 101.0 71.0 L 101.0 92.0 L 149.0 92.0 L 149.0 71.0 Z M 121.0 85.4 L 121.0 84.5 L 120.7 83.4 L 120.2 82.1 L 119.5 80.6 L 118.6 79.1 L 117.5 77.4 L 116.2 75.6 L 114.3 74.2 L 115.3 72.7 L 117.3 73.9 L 119.5 74.6 L 121.6 75.4 L 123.5 76.2 L 125.2 77.1 L 126.9 78.1 L 128.4 79.2 L 129.8 80.5 L 131.0 81.9 L 132.0 83.6 L 131.3 88.1 L 127.7 90.9 L 123.2 90.1 L 120.4 86.5 L 120.8 86.1 Z M 64.0 20.9 L 65.5 24.1 L 61.833846187591554 24.1 L 59.6 27.4 L 55.1 33.7 L 50.5 39.7 L 45.6 45.6 L 40.6 51.1 L 35.4 56.5 L 30.1 61.5 L 24.5 66.3 L 18.7 70.7 L 12.7 74.6 L 11.5 73.3 L 16.2 67.8 L 20.8 62.4 L 25.3 57.0 L 29.8 51.4 L 34.1 45.7 L 38.3 39.9 L 42.3 33.8 L 46.2 27.7 L 50.0 21.3 L 53.144845962524414 15.62180585861206 L 53.1 15.6 L 54.1 13.9 Z M 166.0 49.6 L 164.9 47.5 L 163.5 45.4 L 161.9 43.1 L 160.0 40.8 L 157.9 38.3 L 155.6 35.8 L 153.1 33.1 L 150.2 30.6 L 151.2 29.1 L 154.6 30.9 L 158.1 32.4 L 161.3 34.1 L 164.3 35.8 L 167.1 37.6 L 169.6 39.4 L 172.0 41.3 L 174.2 43.3 L 176.2 45.3 L 178.0 47.5 L 178.4 52.0 L 175.6 55.6 L 171.1 56.1 L 167.5 53.3 L 166.9 51.5 Z M 121.5 48.0 L 121.2 46.5 L 120.8 44.8 L 120.1 43.1 L 119.3 41.4 L 118.3 39.5 L 117.2 37.6 L 115.8 35.6 L 114.0 34.0 L 115.1 32.5 L 117.2 33.9 L 119.5 34.8 L 121.7 36.0 L 123.8 37.2 L 125.7 38.6 L 127.5 40.1 L 129.1 41.7 L 130.6 43.4 L 132.0 45.3 L 133.2 47.3 L 132.7 51.8 L 129.2 54.8 L 124.7 54.3 L 121.7 50.8 L 121.7 49.4 Z " />
</g>
</svg>
