<svg xmlns="http://www.w3.org/2000/svg" xmlns:xlink="http://www.w3.org/1999/xlink" version="1.1" baseProfile="full" viewBox="0 0 200 200" width="200" height="200">
<g fill="black">
<path d="M 102.0 112.1 L 101.2 122.1 L 100.0 131.6 L 98.4 140.6 L 96.4 149.1 L 94.0 157.1 L 91.2 164.6 L 87.9 171.5 L 84.1 177.9 L 79.9 183.5 L 75.1 188.5 L 73.7 187.4 L 76.7 181.5 L 79.4 175.3 L 81.8 168.9 L 84.0 162.0 L 85.8 154.8 L 87.4 147.1 L 88.5 139.0 L 89.4 130.4 L 89.9 121.3 L 90.0 111.8 L 90.0 68.48627452850342 L 87.1 71.5 L 81.6 76.3 L 75.7 80.6 L 74.5 79.3 L 78.8 73.7 L 83.0 68.0 L 87.0 62.2 L 90.8 56.2 L 94.3 50.0 L 97.6 43.5 L 100.6 36.8 L 103.4 29.8 L 105.9 22.6 L 107.92241382598877 16.005172443389892 L 107.9 16.0 L 108.7 13.5 L 119.6 18.7 L 121.9 21.6 L 118.15621299743653 22.453846168518066 L 116.6 26.5 L 113.3 34.0 L 146.0 34.0 L 152.0 29.0 L 163.0 38.0 L 158.0 41.0 L 155.56013288497925 42.01661128997803 L 153.9 44.9 L 151.9 48.1 L 149.7 51.2 L 147.5 54.2 L 145.1 57.1 L 142.6 59.9 L 140.0 62.5 L 138.31999998092653 64.0 L 163.1 64.0 L 173.1 54.0 L 185.1 64.0 L 185.1 68.0 L 102.0 68.0 L 102.0 112.0 L 101.9344262123108 112.09836063385009 Z M 78.9 51.9 L 80.4 55.2 L 76.64210529327393 55.2 L 73.7 59.5 L 68.2 67.0 L 62.3 74.2 L 56.1 81.3 L 50.68559503555298 87.04759912490844 L 56.4 88.0 L 59.4 90.0 L 56.4 91.8 L 56.4 182.0 L 44.4 188.0 L 44.4 93.3246376991272 L 42.7 95.0 L 35.6 101.5 L 28.0 107.9 L 20.1 113.9 L 11.7 119.6 L 10.6 118.3 L 17.6 111.1 L 24.4 103.9 L 31.0 96.9 L 37.2 89.7 L 43.3 82.6 L 49.0 75.4 L 54.4 68.1 L 59.5 60.7 L 64.2 53.2 L 68.21535148620606 46.50774745941162 L 68.2 46.5 L 69.2 44.8 Z M 95.9 177.1 L 110.4 177.1 L 110.4 112.6 L 122.4 114.6 L 125.4 116.6 L 122.4 118.4 L 122.4 177.1 L 137.4 177.1 L 137.4 76.7 L 149.4 78.7 L 152.4 80.7 L 149.4 82.5 L 149.4 121.7 L 163.51818180084229 121.7 L 171.7 112.7 L 181.7 121.7 L 181.7 125.7 L 149.4 125.7 L 149.4 177.1 L 163.5 177.1 L 173.5 167.1 L 185.5 177.1 L 185.5 181.1 L 95.9 181.1 Z M 111.3 38.0 L 109.7 41.2 L 105.8 48.0 L 101.6 54.4 L 97.0 60.5 L 96.40740737915038 61.20370368957519 L 102.0 64.0 L 134.45 64.0 L 134.9 63.2 L 136.4 59.9 L 137.9 56.7 L 139.3 53.4 L 140.7 50.2 L 142.0 47.0 L 144.4 40.4 L 145.2 38.0 Z M 74.1 20.7 L 75.0 24.2 L 71.25884113311767 23.478022003173827 L 69.6 25.1 L 64.9 29.4 L 60.0 33.7 L 54.8 37.9 L 49.3 42.1 L 43.6 46.3 L 37.7 50.3 L 31.5 54.3 L 24.9 58.1 L 18.1 61.7 L 17.0 60.2 L 22.7 55.0 L 28.3 50.0 L 33.7 45.1 L 38.9 40.4 L 43.8 35.7 L 48.6 31.0 L 53.1 26.4 L 57.4 21.8 L 61.4 17.2 L 64.60539083480835 13.404142475128173 L 64.6 13.4 L 64.725 13.2625 L 65.2 12.7 L 65.22001123428345 12.717987632751464 L 65.6 12.3 Z " />
</g>
</svg>
