<svg xmlns="http://www.w3.org/2000/svg" xmlns:xlink="http://www.w3.org/1999/xlink" version="1.1" baseProfile="full" viewBox="0 0 200 200" width="200" height="200">
<g fill="black">
<path d="M 156.0 183.1 L 146.9 180.3 L 138.5 177.1 L 131.1 173.4 L 131.03792476654053 173.3614380836487 L 122.9 176.6 L 112.3 180.0 L 101.1 182.7 L 89.1 184.9 L 76.4 186.3 L 63.0 187.1 L 62.8 185.3 L 75.9 182.6 L 88.0 179.6 L 99.4 176.4 L 110.0 172.7 L 119.7 168.7 L 122.2155104637146 167.4563768386841 L 118.8 164.7 L 114.1 159.7 L 110.5 154.2 L 109.71818180084229 152.1033058166504 L 109.6 152.2 L 104.9 155.5 L 99.9 158.7 L 94.6 161.5 L 89.1 164.2 L 83.2 166.5 L 76.9 168.5 L 70.4 170.1 L 69.7 168.5 L 75.4 165.0 L 80.8 161.7 L 85.9 158.4 L 90.7 155.1 L 95.1 151.7 L 99.2 148.2 L 103.0 144.6 L 106.5 140.9 L 109.6 137.2 L 111.81745290756226 134.11140489578247 L 111.8 134.1 L 111.87692308425903 134.0 L 103.3 134.0 L 91.3 140.0 L 91.3 98.1 L 90.8 98.5 L 86.0 101.8 L 80.9 104.9 L 75.3 107.7 L 69.5 110.0 L 68.6 108.4 L 73.3 104.4 L 77.8 100.5 L 81.9 96.7 L 85.8 92.8 L 89.2 88.9 L 92.4 84.9 L 95.2 80.9 L 97.7 76.8 L 99.9 72.7 L 101.32012462615967 69.30747995376586 L 101.3 69.3 L 101.44285717010499 69.01428575515747 L 101.7 68.4 L 101.74052047729492 68.41895914077759 L 102.3 67.3 L 112.6 73.5 L 114.4 76.6 L 110.51368255615235 77.00203285217285 L 109.8 78.2 L 106.7 82.7 L 105.96744184494018 83.6 L 168.61818180084228 83.6 L 176.8 74.6 L 186.8 83.6 L 186.8 87.6 L 102.64390239715576 87.6 L 99.4 91.1 L 96.00085468292237 94.25042734146118 L 103.3 97.9 L 155.5 97.9 L 161.5 92.9 L 172.5 101.9 L 167.5 105.9 L 167.5 134.0 L 155.5 140.0 L 155.5 134.0 L 114.18227844238281 134.0 L 121.9 140.7 L 123.0 144.1 L 119.11539058685302 143.63116779327393 L 118.1 144.7 L 117.78461542129517 145.0 L 154.0050000190735 145.0 L 156.0 142.9 L 156.43433475494385 143.30472106933593 L 160.4 140.0 L 171.4 149.0 L 166.4 152.0 L 161.64379558563232 153.9817518234253 L 157.9 157.4 L 150.2 163.1 L 142.68473711013795 167.6628381729126 L 150.0 169.7 L 158.7 171.5 L 168.1 173.1 L 178.4 174.2 L 188.7 175.5 L 176.8 187.3 L 166.0 185.4 Z M 74.0 56.0 L 75.6 59.3 L 71.88800001144409 59.3 L 69.2 63.5 L 64.0 70.7 L 58.6 77.6 L 52.9 84.4 L 46.9 90.8 L 45.36409091949463 92.36068181991577 L 52.2 93.5 L 55.2 95.5 L 52.2 97.3 L 52.2 177.2 L 40.2 183.2 L 40.2 97.54696969985962 L 34.1 103.0 L 27.3 108.7 L 20.2 113.9 L 12.7 118.8 L 11.5 117.4 L 17.7 111.1 L 23.7 104.7 L 29.5 98.3 L 35.1 91.9 L 40.5 85.3 L 45.6 78.5 L 50.5 71.6 L 55.2 64.6 L 59.5 57.3 L 63.23110847473144 50.81497812271118 L 63.2 50.8 L 64.2 49.1 Z M 113.51111106872558 149.0 L 112.28442821502685 150.00364961624146 L 113.9 151.7 L 118.3 155.5 L 123.2 159.0 L 128.8 162.1 L 130.80271186828614 163.0218832015991 L 136.7 159.6 L 143.9 154.4 L 150.18363637924193 149.0 Z M 103.3 117.5 L 103.3 130.0 L 155.5 130.0 L 155.5 117.5 Z M 103.3 101.9 L 103.3 113.5 L 155.5 113.5 L 155.5 101.9 Z M 95.6 68.7 L 83.6 74.7 L 83.6 32.7 L 95.6 38.7 L 111.2 38.7 L 111.2 25.9 L 73.7 25.9 L 73.7 21.9 L 166.18347110748292 21.9 L 176.2 11.8 L 188.2 21.9 L 188.2 25.9 L 150.8 25.9 L 150.8 38.7 L 166.4 38.7 L 172.4 33.7 L 183.4 42.7 L 178.4 46.7 L 178.4 67.7 L 166.4 73.7 L 166.4 65.7 L 95.6 65.7 Z M 66.7 18.7 L 68.3 21.9 L 64.5 21.9 L 62.3 25.1 L 57.8 31.3 L 53.1 37.2 L 48.2 43.0 L 43.1 48.4 L 37.9 53.7 L 32.4 58.7 L 26.8 63.3 L 21.0 67.6 L 14.8 71.5 L 13.7 70.1 L 18.5 64.8 L 23.1 59.4 L 27.8 54.0 L 32.3 48.6 L 36.7 42.9 L 40.9 37.2 L 45.0 31.2 L 49.0 25.1 L 52.8 18.9 L 56.5 12.4 L 56.52157363891602 12.41332483291626 L 57.0 11.6 Z M 95.6 42.7 L 95.6 61.7 L 111.2 61.7 L 111.2 42.7 Z M 123.2 42.7 L 123.2 61.7 L 138.8 61.7 L 138.8 42.7 Z M 150.8 42.7 L 150.8 61.7 L 166.4 61.7 L 166.4 42.7 Z M 123.2 25.9 L 123.2 38.7 L 138.8 38.7 L 138.8 25.9 Z " />
</g>
</svg>
