<svg xmlns="http://www.w3.org/2000/svg" xmlns:xlink="http://www.w3.org/1999/xlink" version="1.1" baseProfile="full" viewBox="0 0 200 200" width="200" height="200">
<g fill="black">
<path d="M 164.0 180.8 L 158.6 176.4 L 153.9 171.6 L 149.7 166.4 L 146.2 160.8 L 143.3 154.9 L 141.1 148.6 L 140.00275230407715 143.42726078033448 L 137.7 150.5 L 133.8 158.3 L 128.8 165.3 L 123.0 171.4 L 116.2 176.7 L 108.5 181.0 L 99.9 184.4 L 90.6 186.8 L 90.0 185.1 L 98.4 180.9 L 105.8 176.4 L 112.2 171.4 L 117.6 166.0 L 122.0 160.2 L 125.6 153.9 L 128.2 147.0 L 130.0 139.6 L 130.4567901611328 135.9 L 91.9 135.9 L 91.9 131.9 L 130.950617313385 131.9 L 131.0 131.5 L 131.2 122.7 L 131.2 106.4 L 143.2 108.4 L 146.2 110.4 L 143.2 112.2 L 143.2 122.7 L 142.4640000343323 131.9 L 160.4 131.9 L 170.4 121.9 L 182.4 131.9 L 182.4 135.9 L 141.73913040161133 135.9 L 141.67296180725097 136.22039527893065 L 143.7 140.8 L 146.6 146.4 L 149.7 151.5 L 153.1 156.2 L 156.9 160.5 L 161.0 164.3 L 165.6 167.8 L 170.5 171.0 L 175.9 173.8 L 181.8 176.2 L 187.9 178.9 L 176.5 188.3 L 170.0 184.8 Z M 75.2 58.9 L 76.8 62.2 L 72.98552627563477 62.2 L 70.1 66.5 L 64.7 73.8 L 59.1 80.8 L 53.1 87.7 L 46.9 94.3 L 45.29459457397461 95.83243246078491 L 52.3 97.0 L 55.3 99.0 L 52.3 100.8 L 52.3 182.0 L 40.3 188.0 L 40.3 100.6 L 33.5 106.6 L 26.4 112.4 L 19.0 117.7 L 11.1 122.7 L 10.0 121.2 L 16.5 114.8 L 22.9 108.3 L 29.0 101.9 L 34.9 95.3 L 40.6 88.6 L 46.0 81.7 L 51.1 74.7 L 56.0 67.5 L 60.6 60.2 L 65.0 52.7 L 65.5 51.8 Z M 92.5 47.7 L 119.9 47.7 L 119.9 12.9 L 131.9 14.9 L 134.9 16.9 L 131.9 18.7 L 131.9 27.8 L 152.21818180084227 27.8 L 160.4 18.8 L 170.4 27.8 L 170.4 31.8 L 131.9 31.8 L 131.9 47.7 L 171.5 47.7 L 171.97663555145263 47.302803707122806 L 172.0 47.2 L 172.06449699401855 47.229585838317874 L 177.5 42.7 L 188.5 51.7 L 183.5 54.7 L 180.1202531814575 56.108227825164796 L 178.8 57.9 L 177.3 59.8 L 175.8 61.8 L 174.2 63.8 L 172.5 65.8 L 170.7 67.8 L 168.8 69.8 L 167.3 72.0 L 165.7 71.2 L 166.7 68.7 L 167.3 66.0 L 167.9 63.4 L 168.6 60.9 L 169.8 56.1 L 170.4 53.8 L 170.97272729873657 51.7 L 92.5 51.7 L 92.5 111.4 L 92.1 121.6 L 91.3 131.2 L 90.2 140.3 L 88.7 148.7 L 87.0 156.5 L 84.9 163.7 L 82.4 170.3 L 79.5 176.1 L 76.2 181.2 L 72.4 185.5 L 70.9 184.5 L 72.8 179.5 L 74.6 174.0 L 76.1 168.2 L 77.5 161.8 L 78.7 154.8 L 79.6 147.3 L 80.2 139.2 L 80.6 130.5 L 80.7 121.3 L 80.5 111.4 L 80.5 41.7 Z M 129.4 102.3 L 126.9 101.9 L 124.5 101.1 L 122.3 99.9 L 120.3 98.2 L 118.6 96.2 L 117.4 93.9 L 116.6 91.5 L 116.1 89.0 L 116.0 86.5 L 116.0 77.58866567611695 L 93.2 80.5 L 92.7 76.6 L 116.0 73.59139165878295 L 116.0 53.7 L 128.0 55.7 L 131.0 57.7 L 128.0 59.5 L 128.0 72.04189386367798 L 140.55597801208495 70.42060537338257 L 149.2 59.2 L 162.4 67.6 L 162.9 71.6 L 128.0 76.05638446807862 L 128.0 86.5 L 128.1 87.7 L 128.2 88.6 L 128.4 89.2 L 128.6 89.5 L 128.7 89.7 L 128.9 89.9 L 129.3 90.1 L 129.9 90.2 L 130.8 90.4 L 132.0 90.5 L 167.6 90.5 L 173.6 65.5 L 175.6 65.5 L 173.6 90.5 L 177.2 92.9 L 179.6 96.5 L 177.2 100.1 L 173.6 102.5 L 132.0 102.5 Z M 67.6 21.0 L 69.1 24.3 L 65.31007471084595 24.235763931274413 L 63.0 27.5 L 58.2 33.8 L 53.3 39.8 L 48.2 45.7 L 42.9 51.2 L 37.4 56.5 L 31.8 61.6 L 25.9 66.3 L 19.8 70.7 L 13.4 74.7 L 12.3 73.2 L 22.3 62.4 L 27.2 56.9 L 31.9 51.3 L 36.5 45.6 L 41.0 39.7 L 45.3 33.7 L 49.5 27.5 L 53.5 21.2 L 57.4 14.6 L 57.421482753753665 14.613479328155517 L 57.9 13.8 Z " />
</g>
</svg>
