<svg xmlns="http://www.w3.org/2000/svg" xmlns:xlink="http://www.w3.org/1999/xlink" version="1.1" baseProfile="full" viewBox="0 0 200 200" width="200" height="200">
<g fill="black">
<path d="M 158.1 176.1 L 158.7 175.9 L 159.0 175.7 L 159.2 175.6 L 159.4 175.4 L 159.7 174.5 L 159.9 173.6 L 160.0 172.3 L 160.0 85.4 L 138.0 85.4 L 138.0 81.4 L 167.0 81.4 L 177.0 71.4 L 189.0 81.4 L 189.0 85.4 L 172.0 85.4 L 172.0 172.3 L 171.8 174.9 L 171.4 177.4 L 170.6 179.8 L 169.3 182.1 L 167.7 184.1 L 165.7 185.7 L 163.4 186.9 L 161.0 187.8 L 158.5 188.2 L 156.0 188.3 L 156.0 182.3 L 142.0 179.3 L 142.0 177.0625 L 137.1 181.0 L 131.7 177.3 L 126.6 173.3 L 121.9 168.9 L 117.6 164.1 L 113.7 159.0 L 110.2 153.5 L 107.1 147.6 L 107.0 147.3615385055542 L 107.0 180.6 L 95.0 186.6 L 95.0 150.7975609779358 L 93.2 153.3 L 88.5 158.6 L 83.4 163.7 L 77.9 168.5 L 71.8 173.0 L 65.2 177.1 L 58.1 180.7 L 57.1 179.2 L 63.0 174.0 L 68.4 168.8 L 73.4 163.7 L 77.9 158.5 L 82.0 153.3 L 85.6 147.9 L 88.7 142.4 L 89.49329071044922 140.72188501358033 L 85.9 140.8 L 82.5 137.7 L 82.5 136.6 L 82.3 135.3 L 82.0 133.9 L 81.5 132.5 L 80.9 130.9 L 80.2 129.2 L 79.3 127.4 L 78.48987340927124 125.86075944900513 L 77.4 128.3 L 75.1 132.7 L 72.6 136.8 L 69.8 140.7 L 66.7 144.2 L 63.4 147.2 L 59.8 150.0 L 58.5 148.7 L 60.6 145.0 L 62.5 141.2 L 64.4 137.3 L 66.0 133.4 L 67.5 129.3 L 68.9 125.0 L 70.0 120.6 L 71.0 116.0 L 71.8 111.2 L 72.4 106.2 L 72.4536943435669 106.20857305526734 L 72.8 104.2 L 84.3 108.1 L 86.9 110.6 L 83.28764305114746 112.00480546951295 L 82.9 113.5 L 81.3 118.7 L 79.87488079071045 122.57949123382568 L 80.8 123.0 L 82.8 124.0 L 84.6 125.1 L 88.0 127.5 L 89.5 128.7 L 90.9 130.0 L 92.2 131.3 L 93.06975803375244 132.3147177696228 L 93.5 131.2 L 95.0 126.08235292434692 L 95.0 101.6 L 59.6 101.6 L 59.6 97.6 L 95.0 97.6 L 95.0 79.4 L 107.0 81.4 L 110.0 83.4 L 107.0 85.2 L 107.0 97.6 L 120.8 97.6 L 130.8 87.6 L 142.8 97.6 L 142.8 101.6 L 107.0 101.6 L 107.0 134.3444444656372 L 109.8 138.7 L 110.28148984909058 139.39548530578614 L 111.1 137.7 L 112.4 134.6 L 113.6 131.4 L 114.7 127.9 L 115.7 124.2 L 116.5 120.3 L 117.3 116.1 L 117.9 111.6 L 118.21656312942505 107.80124225616456 L 118.2 107.8 L 118.2444444656372 107.46666669845581 L 118.3 106.8 L 118.33263854980468 106.80521116256713 L 118.6 104.8 L 130.2 108.7 L 132.8 111.1 L 129.21604537963867 112.56012964248657 L 128.9 113.8 L 127.5 118.6 L 125.9 123.1 L 125.16627569198609 124.7712610244751 L 127.1 125.6 L 129.2 126.7 L 131.1 127.9 L 133.0 129.3 L 134.9 130.8 L 136.7 132.4 L 138.4 134.1 L 141.6 137.9 L 141.9 142.5 L 139.1 146.0 L 134.5 146.4 L 131.0 143.5 L 130.4 141.5 L 128.3 135.8 L 127.5 133.9 L 126.6 132.0 L 125.6 130.2 L 124.06103897094727 127.27597398757935 L 122.1 131.1 L 119.9 134.6 L 117.5 137.7 L 114.9 140.4 L 112.36746578216552 142.40856161117554 L 113.4 143.9 L 117.1 148.7 L 121.0 153.1 L 125.1 157.1 L 129.3 160.7 L 133.8 164.0 L 138.5 166.8 L 143.4 169.3 L 148.3 172.0 L 142.94888887405395 176.3 L 157.2 176.3 Z M 62.6 55.6 L 64.5 58.7 L 60.77739696502685 59.14927968978882 L 58.8 63.0 L 54.8 70.1 L 50.5 77.2 L 46.0 84.1 L 41.78151445388794 90.11358575820923 L 46.5 90.9 L 49.5 92.9 L 46.5 94.7 L 46.5 181.5 L 34.5 187.5 L 34.5 99.51538457870484 L 31.1 103.7 L 25.6 109.9 L 19.7 115.8 L 13.5 121.4 L 12.2 120.2 L 16.8 113.3 L 21.4 106.5 L 25.8 99.8 L 30.1 93.0 L 34.2 86.1 L 38.1 79.2 L 41.8 72.2 L 45.3 65.1 L 48.6 58.0 L 51.226338958740236 51.609241771697995 L 51.2 51.6 L 51.41999998092651 51.13800001144409 L 51.6 50.7 L 51.62357139587402 50.710499954223636 L 52.2 49.5 Z M 121.1 79.1 L 115.5 75.4 L 110.3 71.3 L 105.3 66.7 L 101.64720945358276 62.74281024932861 L 101.5 62.9 L 95.3 68.5 L 88.8 73.4 L 82.0 77.6 L 75.0 81.1 L 67.7 83.8 L 60.1 85.6 L 59.6 83.9 L 66.2 80.3 L 72.4 76.4 L 78.4 72.1 L 84.1 67.4 L 89.5 62.2 L 94.7 56.5 L 95.67824373245239 55.26222219467163 L 92.0 49.7 L 88.3 43.0 L 87.02531118392945 40.09211616516113 L 84.1 43.7 L 80.9 47.3 L 77.6 50.6 L 74.1 53.7 L 70.3 56.5 L 66.4 59.0 L 65.2 57.7 L 67.8 54.0 L 72.8 46.6 L 75.1 42.8 L 77.3 39.0 L 79.4 35.1 L 81.3 31.2 L 83.1 27.1 L 84.7 22.9 L 86.2 18.6 L 86.25829830169678 18.624159622192384 L 86.8 17.3 L 97.3 23.2 L 99.3 26.2 L 95.44931154251098 26.740447521209717 L 95.0 27.6 L 94.1069766998291 29.2 L 112.1 29.2 L 112.51040887832642 28.857992553710936 L 112.8 28.3 L 113.0309633255005 28.424197292327882 L 118.1 24.2 L 129.1 33.2 L 124.1 36.2 L 121.3293628692627 37.354432106018066 L 118.4 42.1 L 113.0 49.7 L 107.48069734573365 56.50056924819946 L 111.4 59.7 L 116.4 63.1 L 121.4 66.1 L 126.5 68.6 L 131.7 70.5 L 136.9 72.0 L 144.6 74.4 L 133.0 84.7 L 126.9 82.1 Z M 59.1 25.5 L 60.5 28.8 L 56.740656757354735 28.670367431640624 L 55.9 29.8 L 52.4 33.9 L 48.8 38.1 L 45.0 42.2 L 41.1 46.3 L 36.9 50.3 L 32.6 54.3 L 28.0 58.2 L 23.1 61.9 L 18.0 65.5 L 16.8 64.2 L 20.5 59.2 L 24.2 54.4 L 27.8 49.8 L 31.3 45.3 L 34.7 40.8 L 37.9 36.3 L 40.9 31.9 L 43.8 27.6 L 46.5 23.2 L 48.612203216552736 19.706740856170654 L 48.6 19.7 L 49.6 18.1 Z M 91.76428575515747 33.2 L 89.9 36.1 L 88.95458469390869 37.41682844161987 L 91.8 40.7 L 96.7 46.1 L 100.06907358169556 49.60658683776855 L 104.2 43.5 L 108.7 36.2 L 110.25696201324463 33.2 Z M 184.0 37.3 L 184.0 41.3 L 142.0 41.3 L 142.0 37.3 L 165.8181818008423 37.3 L 174.0 28.3 Z " />
</g>
</svg>
