<svg xmlns="http://www.w3.org/2000/svg" xmlns:xlink="http://www.w3.org/1999/xlink" version="1.1" baseProfile="full" viewBox="0 0 200 200" width="200" height="200">
<g fill="black">
<path d="M 80.7 59.1 L 82.1 62.4 L 78.37421522140502 62.271524620056155 L 75.2 66.6 L 69.4 73.9 L 63.3 81.0 L 56.9 87.8 L 50.2 94.4 L 48.66875 95.778125 L 56.0 97.0 L 59.0 99.0 L 56.0 100.8 L 56.0 182.0 L 44.0 188.0 L 44.0 99.98000001907349 L 43.2 100.7 L 35.9 106.7 L 28.3 112.4 L 20.3 117.8 L 12.0 122.7 L 10.9 121.2 L 18.0 114.7 L 24.9 108.3 L 31.6 101.8 L 38.0 95.2 L 44.1 88.5 L 50.0 81.6 L 55.6 74.6 L 60.9 67.4 L 65.9 60.0 L 70.6 52.5 L 71.1 51.7 Z M 135.5 115.5 L 138.5 117.5 L 135.19960470199584 119.48023719787598 L 134.7 126.1 L 133.22399997711182 134.3 L 162.5 134.3 L 168.5 129.3 L 179.5 138.3 L 174.5 141.3 L 174.33978204727174 141.36675748825073 L 174.3 142.6 L 174.0 148.4 L 173.6 153.6 L 173.1 158.4 L 172.4 162.8 L 171.6 166.7 L 170.6 170.3 L 169.5 173.4 L 168.0 176.3 L 166.2 178.8 L 164.5 180.6 L 162.7 182.2 L 160.8 183.6 L 158.8 184.8 L 156.7 185.9 L 154.5 186.8 L 152.2 187.4 L 149.9 187.9 L 147.5 188.2 L 145.1 188.3 L 145.1 182.3 L 125.1 179.3 L 125.1 176.3 L 145.1 176.3 L 146.6 176.2 L 148.0 176.1 L 149.3 175.8 L 150.6 175.4 L 151.8 175.0 L 152.9 174.4 L 154.0 173.7 L 155.1 172.9 L 156.2 171.9 L 157.2 170.8 L 157.7 170.1 L 158.4 168.7 L 159.2 166.7 L 159.9 164.0 L 160.6 160.7 L 161.2 156.9 L 161.7 152.5 L 162.0 147.6 L 162.3 142.1 L 162.42881355285644 138.3 L 132.2139784812927 138.3 L 130.0 145.4 L 126.2 153.9 L 121.3 161.6 L 115.5 168.5 L 108.7 174.4 L 101.1 179.5 L 92.5 183.5 L 83.1 186.6 L 82.4 184.9 L 90.8 180.1 L 98.1 175.0 L 104.4 169.4 L 109.8 163.4 L 114.3 156.9 L 117.8 149.9 L 120.5 142.2 L 122.3 134.0 L 123.3 125.1 L 123.5 115.5 L 123.5 114.7 L 80.8 114.7 L 80.8 110.7 L 128.0 110.7 L 128.0 88.2 L 140.0 90.2 L 143.0 92.2 L 140.0 94.0 L 140.0 110.7 L 165.1 110.7 L 175.1 100.7 L 187.1 110.7 L 187.1 114.7 L 131.5 114.7 Z M 80.7 82.0 L 106.45340747833252 82.0 L 114.52406120300293 46.4 L 90.1 46.4 L 90.1 42.4 L 115.4308762550354 42.4 L 122.3 12.1 L 133.5 16.7 L 136.0 19.3 L 132.70196475982667 20.233406257629394 L 127.69554233551025 42.4 L 156.6 42.4 L 162.6 37.4 L 173.6 46.4 L 168.6 50.4 L 168.6 82.0 L 173.5777777671814 82.0 L 179.8 75.0 L 187.8 82.0 L 187.8 86.0 L 80.7 86.0 Z M 126.7921248435974 46.4 L 118.75170879364013 82.0 L 156.6 82.0 L 156.6 46.4 Z M 72.4 21.1 L 73.8 24.5 L 69.98565225601196 24.302706146240233 L 67.5 27.6 L 62.4 33.9 L 57.1 40.0 L 51.6 45.8 L 45.9 51.3 L 40.1 56.6 L 34.0 61.7 L 27.7 66.4 L 21.2 70.7 L 14.4 74.7 L 13.4 73.2 L 18.9 67.8 L 24.3 62.3 L 29.6 56.8 L 34.8 51.2 L 39.8 45.5 L 44.7 39.6 L 49.4 33.6 L 53.9 27.4 L 58.3 21.0 L 61.96696424484253 15.237627506256104 L 61.9 15.2 L 63.0 13.7 Z " />
</g>
</svg>
