<svg xmlns="http://www.w3.org/2000/svg" xmlns:xlink="http://www.w3.org/1999/xlink" version="1.1" baseProfile="full" viewBox="0 0 200 200" width="200" height="200">
<g fill="black">
<path d="M 73.3 58.8 L 74.9 62.0 L 71.21129703521729 62.06359834671021 L 68.5 66.3 L 63.5 73.6 L 58.2 80.7 L 52.6 87.5 L 46.8 94.1 L 45.12764043807984 95.8546067237854 L 52.0 97.0 L 55.0 99.0 L 52.0 100.8 L 52.0 182.0 L 40.0 188.0 L 40.0 101.16666669845581 L 34.4 106.5 L 27.7 112.3 L 20.7 117.7 L 13.4 122.6 L 12.2 121.3 L 18.2 114.8 L 24.0 108.4 L 29.6 102.0 L 35.1 95.4 L 40.3 88.7 L 45.3 81.9 L 50.0 74.9 L 54.5 67.7 L 58.8 60.4 L 62.31609754562378 53.807317066192624 L 62.3 53.8 L 63.3 51.9 Z M 108.1 122.0 L 160.2 122.0 L 166.2 117.0 L 177.2 126.0 L 172.2 130.0 L 172.2 179.0 L 160.2 185.0 L 160.2 175.0 L 108.1 175.0 L 108.1 182.0 L 96.1 188.0 L 96.1 116.0 Z M 108.1 126.0 L 108.1 171.0 L 160.2 171.0 L 160.2 126.0 Z M 79.6 94.0 L 128.7 94.0 L 128.7 54.0 L 105.48500003814698 54.0 L 104.0 57.3 L 101.1 63.1 L 97.8 68.8 L 94.2 74.2 L 90.3 79.5 L 85.9 84.4 L 84.5 83.5 L 87.1 77.5 L 89.6 71.7 L 91.9 65.8 L 94.1 60.0 L 96.1 54.1 L 97.9 48.2 L 99.4 42.2 L 100.8 36.2 L 101.9 30.1 L 102.7 23.9 L 102.770374584198 23.911827659606935 L 103.1 22.0 L 114.6 25.9 L 117.2 28.4 L 113.66022300720215 29.77657995223999 L 113.0 32.5 L 111.2 38.9 L 109.1 45.1 L 107.20322580337525 50.0 L 128.7 50.0 L 128.7 14.0 L 140.7 16.0 L 143.7 18.0 L 140.7 19.8 L 140.7 50.0 L 156.6 50.0 L 166.6 40.0 L 178.6 50.0 L 178.6 54.0 L 140.7 54.0 L 140.7 94.0 L 165.6 94.0 L 175.6 84.0 L 187.6 94.0 L 187.6 98.0 L 79.6 98.0 Z M 66.2 20.8 L 67.7 24.1 L 64.01692304611205 24.1 L 61.9 27.3 L 57.4 33.6 L 52.8 39.7 L 48.1 45.5 L 43.1 51.1 L 38.0 56.4 L 32.7 61.5 L 27.2 66.3 L 21.5 70.6 L 15.5 74.6 L 14.3 73.3 L 18.9 67.9 L 23.5 62.4 L 27.9 57.0 L 32.3 51.4 L 36.6 45.7 L 40.7 39.9 L 44.7 33.9 L 48.5 27.7 L 52.2 21.3 L 55.30122184753418 15.700571727752685 L 55.3 15.7 L 56.3 13.9 Z " />
</g>
</svg>
