<svg xmlns="http://www.w3.org/2000/svg" xmlns:xlink="http://www.w3.org/1999/xlink" version="1.1" baseProfile="full" viewBox="0 0 200 200" width="200" height="200">
<g fill="black">
<path d="M 63.3 59.7 L 65.2 62.8 L 61.412537002563475 63.1918065071106 L 59.3 67.1 L 55.1 74.4 L 50.7 81.6 L 46.0 88.6 L 45.4202898979187 89.4 L 46.4 89.4 L 46.4 183.9 L 34.4 189.9 L 34.4 103.88000001907349 L 30.3 108.8 L 24.6 115.2 L 18.4 121.3 L 11.9 127.2 L 10.6 126.0 L 15.6 118.9 L 20.4 111.8 L 25.1 104.8 L 29.6 97.8 L 34.0 90.8 L 34.4 90.10731706619262 L 34.4 89.4 L 34.80845069885254 89.4 L 38.1 83.7 L 42.0 76.5 L 45.7 69.3 L 49.2 62.0 L 52.009313869476316 55.50346174240112 L 52.0 55.5 L 52.117647075653075 55.2529411315918 L 52.4 54.6 L 52.42336549758911 54.610932445526124 L 53.0 53.4 Z M 165.1 168.7 L 158.9 160.0 L 153.56781663894654 150.5959674835205 L 150.3 156.4 L 142.8 166.9 L 134.3 175.9 L 125.0 183.2 L 114.9 188.7 L 114.0 187.2 L 122.7 180.2 L 130.5 172.1 L 137.5 163.0 L 143.8 152.6 L 149.24487314224243 141.0172698020935 L 148.7 139.8 L 144.8 128.4 L 141.6 116.2 L 139.3 103.0 L 137.8 89.0 L 137.5465711593628 82.66427841186524 L 135.8 86.4 L 131.8 93.6 L 127.4 100.4 L 125.8 99.5 L 128.3 92.0 L 130.8 84.3 L 133.3 76.5 L 135.6 68.3 L 137.7 60.0 L 139.7 51.4 L 141.6 42.5 L 143.2 33.3 L 144.7 23.8 L 145.9 14.1 L 145.92367153167726 14.103381633758545 L 146.2 12.1 L 157.8 15.8 L 160.5 18.2 L 157.06610918045044 19.66258316040039 L 155.9 25.8 L 153.7 35.4 L 151.3 44.7 L 148.7 53.7 L 146.35057468414306 61.0 L 170.71818180084227 61.0 L 178.9 52.0 L 188.9 61.0 L 188.9 65.0 L 176.90631580352783 65.0 L 174.8 82.4 L 171.7 100.0 L 167.7 116.2 L 162.8 131.0 L 159.15533838272094 139.4832640647888 L 162.4 145.4 L 168.0 153.7 L 174.1 161.0 L 180.6 167.3 L 187.7 172.6 L 191.0 174.9 L 180.0 183.3 L 172.2 176.5 Z M 95.2 175.8 L 105.2 175.8 L 106.4 175.7 L 107.3 175.5 L 108.2 175.2 L 108.6 174.8 L 108.9 173.9 L 109.1 173.0 L 109.2 171.8 L 109.2 154.1 L 78.1 154.1 L 78.1 182.4 L 66.1 188.4 L 66.1 97.3 L 78.1 103.3 L 109.2 103.3 L 115.2 98.3 L 126.2 107.3 L 121.2 111.3 L 121.2 171.8 L 121.0 174.3 L 120.6 176.8 L 119.8 179.2 L 118.6 181.5 L 116.9 183.5 L 114.9 185.1 L 112.6 186.4 L 110.2 187.2 L 107.7 187.6 L 105.2 187.8 L 105.2 181.8 L 95.2 178.8 Z M 78.1 130.7 L 78.1 150.1 L 109.2 150.1 L 109.2 130.7 Z M 144.92891569137572 65.0 L 142.8 70.7 L 139.78079996109008 77.8039999961853 L 141.9 88.4 L 145.0 101.8 L 148.6 114.3 L 152.7 125.7 L 153.87231569290162 128.35045280456544 L 154.0 128.0 L 158.0 113.7 L 161.1 98.0 L 163.5 80.9 L 164.83240222930908 65.0 Z M 78.1 107.3 L 78.1 126.7 L 109.2 126.7 L 109.2 107.3 Z M 96.4 59.4 L 97.8 62.8 L 93.74957313537598 62.59049520492554 L 91.5 65.2 L 88.8 68.1 L 86.0 71.0 L 83.1 74.0 L 80.1 76.9 L 76.9 79.9 L 74.55517244338989 81.9 L 76.0 81.9 L 81.1 82.0 L 86.2 82.0 L 91.4 82.1 L 96.7 82.1 L 102.2 82.2 L 107.7 82.4 L 112.33511943817139 82.72527151107788 L 111.4 80.6 L 110.1 78.1 L 108.8 75.7 L 107.3 73.2 L 105.8 70.8 L 104.1 68.4 L 102.1 66.2 L 103.2 64.8 L 105.8 66.4 L 108.6 67.8 L 111.2 69.5 L 113.7 71.4 L 116.1 73.4 L 118.3 75.6 L 120.5 78.0 L 122.5 80.5 L 124.4 83.1 L 126.2 85.9 L 126.3 90.5 L 123.2 93.9 L 118.6 94.0 L 115.3 90.9 L 114.4 88.2 L 113.82560300827026 86.54063081741333 L 113.6 86.6 L 108.1 87.8 L 102.6 88.8 L 97.3 89.7 L 92.0 90.5 L 86.8 91.3 L 81.7 92.0 L 76.7 92.6 L 71.8 93.3 L 71.13390560150147 93.36938486099243 L 69.2 96.7 L 67.0 93.8 L 65.65 87.9 L 65.0 87.3 L 65.38422079086304 86.73844652175903 L 64.3 82.0 L 66.3 81.9 L 68.54358978271485 81.9 L 69.9 79.6 L 72.3 75.9 L 76.9 68.9 L 79.0 65.5 L 81.0 62.2 L 83.0 59.0 L 84.8 55.8 L 84.96451616287231 55.5 L 59.8 55.5 L 59.8 51.5 L 87.6 51.5 L 87.6 32.2 L 64.9 32.2 L 64.9 28.2 L 87.6 28.2 L 87.6 12.3 L 99.6 14.3 L 102.6 16.3 L 99.6 18.1 L 99.6 28.2 L 104.11818180084228 28.2 L 112.3 19.2 L 122.3 28.2 L 122.3 32.2 L 99.6 32.2 L 99.6 51.5 L 105.5 51.5 L 115.5 41.5 L 127.5 51.5 L 127.5 55.5 L 91.44594593048096 55.5 Z M 60.0 21.9 L 61.6 25.1 L 57.86121463775635 25.16446180343628 L 56.2 27.7 L 52.2 33.4 L 48.0 39.0 L 43.6 44.6 L 39.1 50.0 L 34.2 55.3 L 29.2 60.5 L 24.0 65.5 L 18.4 70.4 L 12.5 75.0 L 11.2 73.7 L 20.0 61.9 L 28.4 50.5 L 32.3 44.8 L 36.1 39.1 L 39.8 33.3 L 43.2 27.6 L 46.5 21.8 L 49.121767330169675 16.81018476486206 L 49.1 16.8 L 50.1 15.0 Z " />
</g>
</svg>
