<svg xmlns="http://www.w3.org/2000/svg" xmlns:xlink="http://www.w3.org/1999/xlink" version="1.1" baseProfile="full" viewBox="0 0 200 200" width="200" height="200">
<g fill="black">
<path d="M 163.3 166.8 L 157.2 155.2 L 155.09055004119872 150.25238094329833 L 148.9 161.5 L 140.9 172.5 L 132.2 181.6 L 122.7 188.7 L 121.6 187.2 L 129.5 179.0 L 136.6 169.3 L 143.2 158.2 L 149.1 145.4 L 151.00660066604615 140.21980199813842 L 146.9 127.9 L 142.7 112.2 L 139.2 95.0 L 136.3 76.5 L 134.3 56.5 L 133.15581398010255 36.0 L 126.8 36.0 L 126.8 32.0 L 171.2 32.0 L 177.2 27.0 L 188.2 36.0 L 183.2 39.0 L 182.55922327041625 39.26699028015137 L 180.5 57.8 L 177.1 79.4 L 172.9 99.3 L 168.1 117.4 L 162.4 133.9 L 160.7831416130066 137.61372165679933 L 161.1 138.4 L 167.0 150.2 L 173.3 160.4 L 180.0 169.1 L 187.0 176.2 L 188.6 177.8 L 177.9 185.7 L 170.2 177.0 Z M 64.4 58.6 L 66.1 61.7 L 62.43296594619751 61.95289888381958 L 60.0 66.1 L 55.4 73.4 L 50.6 80.5 L 45.5 87.4 L 40.2 94.0 L 38.496774196624756 95.91612901687623 L 45.0 97.0 L 48.0 99.0 L 45.0 100.8 L 45.0 182.0 L 33.0 188.0 L 33.0 101.98275861740112 L 28.8 106.4 L 22.7 112.2 L 16.3 117.6 L 9.5 122.6 L 8.3 121.3 L 13.6 114.9 L 18.8 108.5 L 23.9 102.1 L 28.7 95.5 L 33.4 88.9 L 37.9 82.0 L 42.2 75.1 L 46.2 67.9 L 50.0 60.6 L 53.24656505584717 54.01912488937378 L 53.2 54.0 L 54.2 52.0 Z M 91.4 168.0 L 94.9 165.0 L 95.0 164.9114285469055 L 95.0 122.0268292427063 L 92.5 131.6 L 87.6 145.8 L 81.8 158.6 L 75.2 169.9 L 67.7 179.6 L 59.4 187.6 L 58.1 186.3 L 64.7 177.3 L 70.6 167.2 L 75.9 155.9 L 80.4 143.3 L 84.3 129.3 L 87.5 114.0 L 89.81325302124023 98.0 L 76.67573766708374 98.0 L 75.7 110.4 L 63.3 115.4 L 68.7 46.5 L 80.5 49.4 L 83.4 51.6 L 80.23591270446778 52.75610876083374 L 76.990491771698 94.0 L 90.21933698654175 94.0 L 91.6 79.3 L 92.6 59.8 L 92.8 38.9 L 92.8 38.0 L 62.5 38.0 L 62.5 34.0 L 104.0 34.0 L 114.0 24.0 L 126.0 34.0 L 126.0 38.0 L 100.0 38.0 L 104.8 39.0 L 107.8 41.0 L 104.63687343597412 42.86066274642944 L 103.9 60.3 L 102.3 80.2 L 100.4351351737976 94.0 L 108.5 94.0 L 118.5 84.0 L 130.5 94.0 L 130.5 98.0 L 99.89459457397462 98.0 L 99.8 98.7 L 99.78195486068725 98.79699249267578 L 107.0 100.0 L 110.0 102.0 L 107.0 103.8 L 107.0 154.45789470672608 L 113.2 149.4 L 121.2 143.2 L 125.5 140.2 L 129.9 137.3 L 131.1 138.6 L 128.0 142.9 L 124.9 147.0 L 118.5 154.8 L 115.3 158.5 L 112.2 162.2 L 106.0 169.4 L 103.0 173.0 L 102.70454549789429 173.3348484992981 L 103.5 177.1 L 100.0 176.4 L 90.0 169.5 Z M 135.0833333015442 36.0 L 138.4 55.9 L 142.1 75.5 L 146.2 93.5 L 150.8 110.0 L 155.7 125.0 L 155.96185970306396 125.64979991912841 L 159.1 114.9 L 163.1 97.1 L 166.5 77.6 L 169.2 56.4 L 170.98165941238403 36.0 Z M 57.9 20.6 L 59.6 23.8 L 55.895877075195315 23.991592597961425 L 54.0 27.2 L 49.9 33.5 L 45.7 39.5 L 41.4 45.4 L 36.8 51.0 L 32.2 56.3 L 27.3 61.4 L 22.3 66.2 L 17.0 70.6 L 11.4 74.6 L 10.2 73.3 L 14.3 67.9 L 22.3 57.1 L 26.2 51.6 L 30.0 45.9 L 33.7 40.1 L 37.3 34.1 L 40.8 27.9 L 44.1 21.6 L 46.85279731750488 15.922355651855469 L 46.8 15.9 L 47.8 14.0 Z " />
</g>
</svg>
