<svg xmlns="http://www.w3.org/2000/svg" xmlns:xlink="http://www.w3.org/1999/xlink" version="1.1" baseProfile="full" viewBox="0 0 200 200" width="200" height="200">
<g fill="black">
<path d="M 79.3 59.0 L 80.8 62.3 L 77.00179290771484 62.234513664245604 L 73.9 66.6 L 68.2 73.9 L 62.2 80.9 L 56.0 87.8 L 49.4 94.3 L 47.77919464111328 95.77986574172974 L 55.1 97.0 L 58.1 99.0 L 55.1 100.8 L 55.1 182.0 L 43.1 188.0 L 43.1 100.05217390060425 L 42.5 100.6 L 35.3 106.7 L 27.8 112.4 L 20.0 117.7 L 11.7 122.7 L 10.7 121.2 L 17.6 114.8 L 24.4 108.3 L 30.9 101.8 L 37.2 95.2 L 43.2 88.5 L 49.0 81.6 L 54.5 74.6 L 59.7 67.4 L 64.6 60.1 L 68.70704917907715 53.403724098205565 L 68.7 53.4 L 69.7 51.8 Z M 152.3 183.1 L 138.8 181.2 L 126.9 178.2 L 116.5 173.9 L 107.8 168.5 L 100.9 161.9 L 96.0 154.1 L 93.33246030807496 146.18936510086058 L 92.2 150.6 L 90.3 157.4 L 88.4 163.8 L 86.5 169.7 L 84.6 175.2 L 82.8 180.1 L 82.52597398757935 180.80028858184815 L 84.5 184.2 L 81.0 184.7 L 69.3 181.2 L 70.2 179.4 L 72.4 175.4 L 74.7 171.0 L 77.1 166.0 L 79.7 160.5 L 82.3 154.5 L 85.0 148.1 L 87.9 141.2 L 90.9 133.8 L 94.2 126.0 L 97.7 117.7 L 99.5 118.2 L 97.8 127.1 L 96.0 135.4 L 95.15686883926392 138.86127529144287 L 97.0 144.2 L 101.1 151.1 L 106.2 156.9 L 112.5991060256958 161.59934349060057 L 116.1 157.3 L 121.7 150.4 L 127.1 143.4 L 132.3 136.3 L 137.1 129.2 L 141.8 121.9 L 146.1 114.4 L 150.2 106.9 L 154.0 99.2 L 157.36000003814698 91.82666664123535 L 158.1 90.1 L 168.5 96.4 L 170.3 99.5 L 166.62966680526733 99.8796895980835 L 164.2 104.4 L 159.6 112.2 L 154.7 119.7 L 149.5 127.1 L 144.0 134.2 L 138.2 141.1 L 132.1 147.7 L 125.7 154.0 L 118.8 160.0 L 115.14729728698731 162.84099102020264 L 120.4 165.4 L 129.7 168.4 L 140.6 170.3 L 153.1 171.3 L 167.2 171.4 L 183.0 170.4 L 194.0 169.6 L 183.9 183.5 L 167.3 183.9 Z M 106.6 117.9 L 105.7 114.3 L 104.8 110.8 L 103.7 107.4 L 102.5 104.1 L 101.2 100.8 L 99.8 97.6 L 98.3 94.3 L 96.5 91.3 L 97.9 90.1 L 100.6 92.5 L 103.5 95.0 L 106.1 97.7 L 108.5 100.7 L 110.7 103.9 L 112.8 107.3 L 114.8 110.9 L 116.5 114.6 L 118.1 118.5 L 119.6 122.6 L 118.8 127.1 L 115.2 129.9 L 110.7 129.1 L 107.9 125.4 L 107.3 121.6 Z M 72.4 76.0 L 122.3 76.0 L 122.3 48.0 L 85.5 48.0 L 85.5 44.0 L 122.3 44.0 L 122.3 16.0 L 134.3 18.0 L 137.3 20.0 L 134.3 21.8 L 134.3 44.0 L 149.7 44.0 L 159.7 34.0 L 171.7 44.0 L 171.7 48.0 L 134.3 48.0 L 134.3 76.0 L 164.2 76.0 L 174.2 66.0 L 186.2 76.0 L 186.2 80.0 L 72.4 80.0 Z M 71.2 21.1 L 72.6 24.4 L 68.85835485458374 24.270977783203126 L 66.4 27.6 L 61.3 33.9 L 56.1 39.9 L 50.7 45.7 L 45.2 51.3 L 39.4 56.6 L 33.5 61.6 L 27.3 66.4 L 20.9 70.7 L 14.2 74.7 L 13.1 73.2 L 18.5 67.8 L 23.8 62.3 L 29.0 56.8 L 34.1 51.2 L 39.0 45.5 L 43.7 39.6 L 48.4 33.6 L 52.8 27.4 L 57.1 21.0 L 61.2 14.5 L 61.7 13.7 Z " />
</g>
</svg>
