<svg xmlns="http://www.w3.org/2000/svg" xmlns:xlink="http://www.w3.org/1999/xlink" version="1.1" baseProfile="full" viewBox="0 0 200 200" width="200" height="200">
<g fill="black">
<path d="M 113.8 109.9 L 112.8 106.7 L 111.5 103.6 L 110.1 100.6 L 108.6 97.8 L 106.8 95.0 L 104.9 92.3 L 103.2 90.00500001907349 L 103.2 183.0 L 91.2 189.0 L 91.2 100.70606060028076 L 90.5 102.7 L 86.8 111.7 L 82.7 120.5 L 78.1 129.0 L 73.1 137.2 L 67.5 145.0 L 61.5 152.5 L 60.0 151.4 L 64.3 143.0 L 68.4 134.6 L 72.2 126.1 L 75.7 117.5 L 78.9 108.7 L 81.7 99.7 L 84.1 90.6 L 86.3 81.3 L 88.0 71.7 L 88.9241379737854 65.0 L 72.3 65.0 L 72.3 62.154237270355225 L 71.72399997711182 62.164000034332275 L 68.9 66.4 L 63.6 73.7 L 58.0 80.8 L 52.1 87.6 L 46.0 94.2 L 44.34932126998901 95.82488689422607 L 51.4 97.0 L 54.4 99.0 L 51.4 100.8 L 51.4 182.0 L 39.4 188.0 L 39.4 100.68208951950074 L 32.9 106.6 L 26.0 112.3 L 18.6 117.7 L 10.9 122.7 L 9.8 121.2 L 16.2 114.8 L 22.4 108.4 L 28.4 101.9 L 34.1 95.3 L 39.7 88.6 L 45.0 81.8 L 50.0 74.8 L 54.8 67.6 L 59.3 60.3 L 63.13225746154785 53.61583003997803 L 63.1 53.6 L 64.1 51.9 L 73.9 58.9 L 74.95 61.0 L 91.2 61.0 L 91.2 15.0 L 103.2 17.0 L 106.2 19.0 L 103.2 20.8 L 103.2 61.0 L 108.81818180084228 61.0 L 117.0 52.0 L 127.0 61.0 L 127.0 65.0 L 103.2 65.0 L 103.2 86.6 L 104.6 87.3 L 107.9 89.0 L 110.9 91.1 L 113.8 93.4 L 116.5 96.1 L 119.0 99.0 L 121.3 102.3 L 123.4 105.7 L 125.3 109.4 L 127.1 113.3 L 126.6 117.9 L 123.1 120.8 L 118.5 120.3 L 115.6 116.8 L 114.8 113.3 Z M 143.5 28.0 L 171.9 28.0 L 177.9 23.0 L 188.9 32.0 L 183.9 36.0 L 183.9 176.0 L 171.9 182.0 L 171.9 170.0 L 143.5 170.0 L 143.5 182.0 L 131.5 188.0 L 131.5 22.0 Z M 143.5 122.0 L 143.5 166.0 L 171.9 166.0 L 171.9 122.0 Z M 143.5 77.0 L 143.5 118.0 L 171.9 118.0 L 171.9 77.0 Z M 66.4 20.9 L 67.9 24.2 L 64.15 24.2 L 61.9 27.5 L 57.2 33.7 L 52.3 39.8 L 47.3 45.6 L 42.1 51.2 L 36.8 56.5 L 31.2 61.6 L 25.5 66.3 L 19.4 70.7 L 13.2 74.6 L 12.0 73.3 L 16.9 67.8 L 21.8 62.4 L 26.6 56.9 L 31.2 51.3 L 35.7 45.6 L 40.1 39.8 L 44.3 33.8 L 48.4 27.6 L 52.4 21.2 L 55.63473052978516 15.517365264892579 L 55.6 15.5 L 55.97093019485474 14.926744174957275 L 56.1 14.7 L 56.112700366973876 14.707644844055176 L 56.7 13.8 Z M 143.5 32.0 L 143.5 73.0 L 171.9 73.0 L 171.9 32.0 Z " />
</g>
</svg>
