<svg xmlns="http://www.w3.org/2000/svg" xmlns:xlink="http://www.w3.org/1999/xlink" version="1.1" baseProfile="full" viewBox="0 0 200 200" width="200" height="200">
<g fill="black">
<path d="M 134.0 76.0 L 134.0 72.0 L 163.0 72.0 L 173.0 62.0 L 185.0 72.0 L 185.0 76.0 L 165.0 76.0 L 165.0 175.0 L 164.8 177.5 L 164.4 180.0 L 163.6 182.4 L 162.3 184.7 L 160.7 186.7 L 158.7 188.3 L 156.4 189.6 L 154.0 190.4 L 151.5 190.8 L 149.0 191.0 L 149.0 185.0 L 129.71186437606812 182.10677967071533 L 129.8 182.9 L 127.0 186.6 L 122.5 187.1 L 118.9 184.3 L 117.7 181.5 L 116.3 178.8 L 114.8 176.2 L 113.1 173.5 L 111.3 170.9 L 109.3 168.4 L 107.2 165.8 L 102.4 160.6 L 99.6 158.2 L 100.5 156.7 L 103.9 158.2 L 107.4 159.7 L 110.7 161.4 L 113.8 163.3 L 116.8 165.4 L 119.6 167.7 L 122.3 170.1 L 124.8 172.7 L 127.1 175.5 L 129.3 178.4 L 129.36666669845582 179.0 L 149.0 179.0 L 150.2 178.9 L 151.1 178.7 L 152.0 178.4 L 152.4 178.0 L 152.7 177.1 L 152.9 176.2 L 153.0 175.0 L 153.0 76.0 Z M 54.3 55.1 L 56.4 58.0 L 52.71875 58.64583330154419 L 51.0 62.5 L 47.5 69.8 L 43.8 76.9 L 39.9 83.9 L 36.0072527885437 90.45120878219605 L 40.5 91.2 L 43.5 93.2 L 40.5 95.0 L 40.5 183.3 L 28.5 189.3 L 28.5 101.73913040161133 L 26.9 104.0 L 22.1 110.3 L 16.9 116.3 L 11.5 122.1 L 10.0 121.0 L 13.9 114.1 L 17.6 107.3 L 21.4 100.5 L 25.0 93.6 L 28.4 86.7 L 31.7 79.7 L 34.8 72.6 L 37.7 65.4 L 40.5 58.1 L 42.77194185256958 51.72108640670776 L 42.7 51.7 L 43.6 49.4 Z M 87.2 163.2 L 88.5 166.5 L 84.50962629318238 166.29360132217408 L 81.8 169.1 L 78.9 171.9 L 75.8 174.5 L 72.6 177.1 L 69.1 179.5 L 65.5 181.8 L 61.8 183.9 L 57.8 185.8 L 53.7 187.7 L 52.7 186.2 L 56.0 183.2 L 59.0 180.1 L 61.8 177.1 L 64.5 174.2 L 67.1 171.2 L 69.5 168.3 L 71.7 165.3 L 73.7 162.4 L 75.6 159.4 L 76.81079139709473 157.26330938339234 L 76.7 157.2 L 77.8 155.7 Z M 72.9 151.0 L 60.9 157.0 L 60.9 86.0 L 72.9 92.0 L 85.5 92.0 L 85.5 76.0 L 51.9 76.0 L 51.9 72.0 L 112.81818180084228 72.0 L 121.0 63.0 L 131.0 72.0 L 131.0 76.0 L 97.5 76.0 L 97.5 92.0 L 110.0 92.0 L 116.0 87.0 L 127.0 96.0 L 122.0 100.0 L 122.0 148.0 L 110.0 154.0 L 110.0 148.0 L 72.9 148.0 Z M 72.9 122.0 L 72.9 144.0 L 85.5 144.0 L 85.5 122.0 Z M 97.5 122.0 L 97.5 144.0 L 110.0 144.0 L 110.0 122.0 Z M 72.9 96.0 L 72.9 118.0 L 85.5 118.0 L 85.5 96.0 Z M 97.5 96.0 L 97.5 118.0 L 110.0 118.0 L 110.0 96.0 Z M 109.7 14.0 L 112.7 16.0 L 109.7 17.8 L 109.7 33.0 L 111.77777776718139 33.0 L 118.0 26.0 L 126.0 33.0 L 126.0 37.0 L 109.7 37.0 L 109.7 60.0 L 97.7 66.0 L 97.7 60.0 L 85.2 60.0 L 73.2 66.0 L 73.2 37.0 L 56.9 37.0 L 56.9 33.0 L 73.2 33.0 L 73.2 12.0 L 85.2 14.0 L 88.2 16.0 L 85.2 17.8 L 85.2 33.0 L 97.7 33.0 L 97.7 12.0 Z M 51.4 24.4 L 53.0 27.6 L 49.15238094329834 27.73267650604248 L 48.5 28.7 L 45.5 33.0 L 42.4 37.3 L 39.1 41.5 L 35.6 45.6 L 32.0 49.8 L 28.2 53.8 L 24.2 57.8 L 19.9 61.7 L 15.3 65.3 L 14.0 64.1 L 17.0 59.2 L 20.0 54.4 L 23.0 49.7 L 26.0 45.2 L 28.8 40.6 L 31.5 36.2 L 34.0 31.7 L 36.5 27.3 L 38.7 22.9 L 40.473584938049314 19.433447647094727 L 40.4 19.4 L 41.4 17.6 Z M 85.2 37.0 L 85.2 56.0 L 97.7 56.0 L 97.7 37.0 Z M 180.0 30.0 L 180.0 34.0 L 138.0 34.0 L 138.0 30.0 L 161.8181818008423 30.0 L 170.0 21.0 Z " />
</g>
</svg>
