<svg xmlns="http://www.w3.org/2000/svg" xmlns:xlink="http://www.w3.org/1999/xlink" version="1.1" baseProfile="full" viewBox="0 0 200 200" width="200" height="200">
<g fill="black">
<path d="M 85.7 59.2 L 87.0 62.6 L 83.22987356185914 62.33999128341675 L 79.8 66.7 L 73.7 74.0 L 67.2 81.1 L 60.4 87.9 L 53.3 94.5 L 51.80672645568848 95.75112104415894 L 59.3 97.0 L 62.3 99.0 L 59.3 100.8 L 59.3 182.0 L 47.3 188.0 L 47.3 99.52702703475953 L 45.9 100.7 L 38.1 106.8 L 30.0 112.5 L 21.6 117.8 L 12.7 122.7 L 11.7 121.2 L 19.3 114.7 L 26.7 108.2 L 33.9 101.7 L 40.8 95.1 L 47.4 88.4 L 53.7 81.5 L 59.7 74.4 L 65.4 67.2 L 70.7 59.9 L 75.8 52.3 L 75.84353561401367 52.33034296035767 L 76.3 51.6 Z M 172.1 30.0 L 167.1 33.0 L 165.93213357925416 33.48661098480225 L 163.59319725036622 96.0 L 168.8181818008423 96.0 L 177.0 87.0 L 187.0 96.0 L 187.0 100.0 L 163.44353742599486 100.0 L 160.67482995986938 174.0 L 165.0 174.0 L 175.0 164.0 L 187.0 174.0 L 187.0 178.0 L 76.0 178.0 L 76.0 174.0 L 105.25 174.0 L 110.8 100.0 L 81.6 100.0 L 81.6 96.0 L 111.1 96.0 L 116.05 30.0 L 89.9 30.0 L 89.9 26.0 L 155.1 26.0 L 161.1 21.0 Z M 122.9 100.0 L 117.35 174.0 L 148.68783779144286 174.0 L 151.93783779144286 100.0 Z M 128.15 30.0 L 123.2 96.0 L 152.11351346969604 96.0 L 155.01216220855713 30.0 Z M 76.9 21.3 L 78.1 24.6 L 74.41637363433838 24.345956802368164 L 71.6 27.8 L 66.2 34.1 L 60.6 40.1 L 54.7 45.9 L 48.7 51.4 L 42.5 56.7 L 36.1 61.7 L 29.4 66.4 L 22.5 70.8 L 15.3 74.7 L 14.3 73.2 L 26.1 62.2 L 31.8 56.7 L 37.4 51.1 L 42.8 45.4 L 48.0 39.5 L 53.0 33.4 L 57.9 27.2 L 62.6 20.8 L 66.53267011642455 15.119476413726806 L 66.5 15.1 L 67.6 13.6 Z " />
</g>
</svg>
