<svg xmlns="http://www.w3.org/2000/svg" xmlns:xlink="http://www.w3.org/1999/xlink" version="1.1" baseProfile="full" viewBox="0 0 200 200" width="200" height="200">
<g fill="black">
<path d="M 156.0 183.9 L 146.9 181.1 L 138.5 177.9 L 131.0 174.2 L 130.9773094177246 174.18556051254274 L 122.9 177.4 L 112.3 180.8 L 101.1 183.6 L 89.1 185.8 L 76.4 187.2 L 63.0 188.0 L 62.8 186.2 L 75.9 183.5 L 88.0 180.5 L 99.4 177.2 L 110.0 173.6 L 119.7 169.6 L 122.33010063171386 168.29972553253174 L 118.8 165.4 L 114.1 160.4 L 110.5 154.9 L 109.68961038589478 152.72668237686156 L 109.6 152.8 L 104.9 156.2 L 99.9 159.3 L 94.7 162.3 L 89.1 164.9 L 83.2 167.3 L 76.9 169.3 L 70.4 170.9 L 69.7 169.3 L 75.4 165.8 L 80.8 162.5 L 85.9 159.2 L 90.7 155.8 L 95.1 152.4 L 99.2 148.9 L 103.0 145.3 L 106.5 141.6 L 109.6 137.8 L 111.81753778457642 134.71128664016723 L 111.8 134.7 L 111.87142858505248 134.6 L 103.3 134.6 L 91.3 140.6 L 91.3 98.3 L 90.8 98.7 L 86.0 102.1 L 80.9 105.2 L 75.3 108.0 L 69.5 110.4 L 68.6 108.8 L 73.3 104.8 L 77.8 100.9 L 81.9 97.0 L 85.7 93.1 L 89.2 89.2 L 92.4 85.2 L 95.2 81.1 L 97.7 77.0 L 99.9 72.8 L 100.95574913024902 70.27793264389038 L 100.9 70.3 L 90.9 73.4 L 80.5 75.8 L 69.8 77.4 L 69.5 75.6 L 79.5 72.1 L 89.2 68.4 L 98.4 64.2 L 107.1 59.7 L 115.4 54.7 L 123.3 49.3 L 123.57801485061646 49.0812949180603 L 118.5 44.4 L 112.6 38.0 L 109.47205600738525 33.887332916259766 L 107.4 35.8 L 103.2 39.2 L 98.8 42.4 L 94.2 45.4 L 89.4 48.2 L 84.2 50.6 L 78.8 52.7 L 77.9 51.1 L 82.2 47.4 L 86.3 43.7 L 90.3 40.2 L 94.0 36.6 L 97.5 32.9 L 100.8 29.2 L 103.8 25.5 L 106.7 21.6 L 109.3 17.7 L 111.19072751998901 14.54878740310669 L 111.1 14.5 L 112.2 12.9 L 121.7 20.2 L 123.1 23.6 L 119.26082143783569 23.40142183303833 L 118.5 24.4 L 118.325 24.6 L 149.20810813903807 24.6 L 150.8 22.7 L 151.23904552459717 23.067462062835695 L 155.4 19.6 L 166.4 28.6 L 161.4 31.6 L 157.14405851364137 33.373308944702146 L 152.7 38.0 L 145.1 44.9 L 138.74116163253785 49.924267292022705 L 143.3 52.3 L 150.6 55.5 L 158.0 58.3 L 165.6 60.7 L 173.5 62.6 L 181.5 64.0 L 190.8 65.8 L 179.11897344589232 76.88707609176636 L 186.8 83.8 L 186.8 87.8 L 102.64390239715576 87.8 L 99.4 91.3 L 95.9307692527771 94.51538457870484 L 103.3 98.2 L 155.5 98.2 L 161.5 93.2 L 172.5 102.2 L 167.5 106.2 L 167.5 134.6 L 155.5 140.6 L 155.5 134.6 L 114.29746837615967 134.6 L 121.9 141.2 L 123.0 144.7 L 119.09311647415161 144.22847957611083 L 118.1 145.3 L 117.67948713302613 145.7 L 154.0050000190735 145.7 L 156.0 143.6 L 156.43714904785156 144.00237579345702 L 160.4 140.7 L 171.4 149.7 L 166.4 152.7 L 161.53758869171142 154.72600469589233 L 157.9 158.1 L 150.2 163.8 L 142.6016477584839 168.41328525543213 L 150.0 170.5 L 158.7 172.4 L 168.1 173.9 L 178.4 175.1 L 188.7 176.4 L 176.8 188.2 L 166.0 186.3 Z M 76.1 58.8 L 77.7 62.0 L 73.99636974334717 62.06277341842652 L 71.2 66.4 L 66.0 73.7 L 60.6 80.8 L 54.9 87.6 L 48.9 94.2 L 47.27954549789429 95.84659090042115 L 54.2 97.0 L 57.2 99.0 L 54.2 100.8 L 54.2 182.0 L 42.2 188.0 L 42.2 100.9692307472229 L 36.2 106.6 L 29.3 112.3 L 22.2 117.7 L 14.7 122.7 L 13.5 121.2 L 19.7 114.8 L 25.7 108.4 L 31.5 101.9 L 37.1 95.4 L 42.5 88.7 L 47.6 81.8 L 52.5 74.8 L 57.1 67.6 L 61.5 60.3 L 65.7 52.8 L 66.2 51.9 Z M 113.38888893127441 149.7 L 112.2529411315918 150.62941179275512 L 113.9 152.4 L 118.3 156.2 L 123.2 159.7 L 128.8 162.9 L 130.8297022819519 163.83430738449096 L 136.6 160.3 L 143.9 155.1 L 150.18363637924193 149.7 Z M 103.3 117.9 L 103.3 130.6 L 155.5 130.6 L 155.5 117.9 Z M 103.3 102.2 L 103.3 113.9 L 155.5 113.9 L 155.5 102.2 Z M 128.5 57.0 L 119.7 62.1 L 110.5 66.5 L 104.72766513824463 68.78488254547119 L 112.6 73.6 L 114.5 76.7 L 110.50711488723755 77.11305704116822 L 109.8 78.3 L 106.7 82.9 L 105.96744184494018 83.8 L 168.61818180084228 83.8 L 175.61381635665893 76.1048020362854 L 170.3 74.7 L 162.0 71.9 L 153.9 68.6 L 146.2 64.8 L 138.7 60.4 L 131.6 55.6 L 131.1355718612671 55.23261651992798 Z M 68.8 20.9 L 70.3 24.1 L 66.59055290222167 24.163955974578858 L 64.4 27.4 L 59.8 33.7 L 55.1 39.8 L 50.2 45.6 L 45.1 51.1 L 39.9 56.5 L 34.5 61.5 L 28.8 66.3 L 23.0 70.7 L 16.9 74.6 L 15.7 73.3 L 20.4 67.8 L 25.1 62.4 L 29.7 57.0 L 34.3 51.4 L 38.6 45.7 L 42.9 39.8 L 47.0 33.8 L 51.0 27.6 L 54.8 21.3 L 57.975008201599124 15.636471843719482 L 57.9 15.6 L 59.0 13.8 Z M 114.80526313781738 28.6 L 111.55027275085449 31.942963123321533 L 115.4 34.9 L 122.3 39.9 L 129.2 44.4 L 129.3865385055542 44.511923122406 L 130.8 43.4 L 137.9 37.0 L 144.6 30.1 L 145.85675678253173 28.6 Z " />
</g>
</svg>
