<svg xmlns="http://www.w3.org/2000/svg" xmlns:xlink="http://www.w3.org/1999/xlink" version="1.1" baseProfile="full" viewBox="0 0 200 200" width="200" height="200">
<g fill="black">
<path d="M 71.0 53.6 L 72.8 56.8 L 69.03461179733276 56.99476146697998 L 66.6 61.2 L 61.8 68.6 L 56.7 75.9 L 51.4 83.0 L 46.50588235855103 89.11764707565308 L 51.8 90.0 L 54.8 92.0 L 51.8 93.8 L 51.8 184.0 L 39.8 190.0 L 39.8 96.9064516067505 L 33.7 103.4 L 27.2 109.7 L 20.4 115.8 L 13.1 121.6 L 11.8 120.3 L 17.6 113.2 L 23.3 106.1 L 28.8 99.0 L 34.0 92.0 L 39.1 84.9 L 43.8 77.7 L 48.4 70.4 L 52.6 63.0 L 56.7 55.6 L 59.98713235855102 48.93689384460449 L 59.9 48.9 L 61.0 47.0 Z M 162.5 183.4 L 156.4 179.9 L 150.8 175.6 L 145.8 170.8 L 141.4 165.3 L 137.6 159.2 L 134.4 152.6 L 132.0 145.3 L 130.3 137.5 L 130.63999996185302 137.4 L 129.05454549789428 137.4 L 125.6 146.9 L 120.6 156.7 L 114.8 165.4 L 108.0 172.8 L 100.4 178.8 L 91.9 183.5 L 82.7 186.7 L 72.8 188.5 L 72.4 186.7 L 81.4 183.2 L 89.4 178.8 L 96.4 173.6 L 102.6 167.5 L 107.9 160.4 L 112.4 152.4 L 116.2 143.2 L 117.90588235855103 137.4 L 72.6 137.4 L 72.6 133.4 L 119.08235292434692 133.4 L 119.2 133.0 L 121.4 121.6 L 122.88333330154418 109.23888893127442 L 123.1 107.0 L 134.8 110.4 L 137.6 112.7 L 134.1620304107666 114.25681648254394 L 132.6 123.7 L 130.21475410461426 133.4 L 162.6 133.4 L 172.6 123.4 L 184.6 133.4 L 184.6 137.4 L 132.2268656730652 137.4 L 135.8 143.7 L 139.6 149.8 L 143.6 155.2 L 147.8 160.0 L 152.3 164.0 L 157.0 167.5 L 162.0 170.3 L 167.2 172.6 L 172.9 174.3 L 178.9 175.4 L 188.1 177.2 L 176.3 188.4 L 169.2 186.2 Z M 107.1 94.1 L 123.1 94.1 L 124.3 94.0 L 125.2 93.9 L 125.8 93.7 L 126.1 93.5 L 126.3 93.4 L 126.5 93.2 L 126.7 92.8 L 127.0 91.3 L 127.1 90.1 L 127.1 65.53999996185303 L 125.2 68.2 L 120.5 74.1 L 115.6 79.7 L 110.5 85.0 L 105.1 89.9 L 99.5 94.5 L 93.6 98.8 L 87.5 102.6 L 81.2 106.0 L 74.6 108.8 L 73.7 107.2 L 79.1 102.8 L 84.4 98.2 L 89.5 93.6 L 94.5 88.9 L 99.2 83.9 L 103.6 78.7 L 107.9 73.3 L 112.0 67.6 L 115.8 61.7 L 116.32758617401123 60.8 L 74.8 60.8 L 74.8 56.8 L 173.6 56.8 L 173.95064935684204 56.50779218673706 L 174.9 55.0 L 175.33934783935547 55.35054349899292 L 179.6 51.8 L 190.6 60.8 L 185.6 63.8 L 180.89664430618285 65.7597315788269 L 179.6 67.0 L 177.2 69.2 L 172.2 73.6 L 169.6 75.8 L 166.9 77.9 L 164.2 79.9 L 161.3 81.9 L 158.6 84.0 L 157.3 82.8 L 159.3 80.0 L 161.0 77.0 L 162.8 74.1 L 166.4 68.5 L 168.1 65.8 L 169.9 63.1 L 171.3481481552124 60.8 L 139.1 60.8 L 139.1 90.1 L 138.9 92.7 L 138.5 95.2 L 137.7 97.6 L 136.5 99.8 L 134.8 101.9 L 132.8 103.5 L 130.5 104.7 L 128.1 105.5 L 125.6 106.0 L 123.1 106.1 L 123.1 100.1 L 107.1 97.1 Z M 66.9 22.4 L 68.1 25.8 L 64.35408086776734 25.34790630340576 L 63.1 26.8 L 59.0 31.1 L 54.7 35.4 L 50.3 39.7 L 45.6 43.9 L 40.7 48.1 L 35.5 52.2 L 30.2 56.2 L 24.5 60.0 L 18.5 63.6 L 17.3 62.3 L 22.0 57.1 L 26.6 52.1 L 31.1 47.3 L 35.4 42.6 L 39.6 37.9 L 43.5 33.3 L 47.3 28.7 L 50.9 24.1 L 54.3 19.6 L 56.8338719367981 15.921798801422119 L 56.8 15.9 L 57.1967212677002 15.395081996917725 L 57.4 15.1 L 57.41781530380249 15.113689613342284 L 57.9 14.5 Z M 129.2 50.0 L 128.4 48.3 L 127.5 46.6 L 126.4 44.8 L 125.2 43.0 L 123.9 41.1 L 122.5 39.1 L 121.0 37.1 L 119.0 35.4 L 120.0 33.9 L 122.3 35.2 L 124.8 36.2 L 127.1 37.2 L 129.4 38.4 L 131.5 39.6 L 133.5 40.9 L 135.4 42.3 L 136.63312883377074 43.25910024642944 L 139.4 40.4 L 142.2 37.5 L 145.0 34.7 L 147.5 32.1 L 149.9 29.6 L 152.2 27.3 L 92.5 27.3 L 92.5 23.3 L 155.8380952835083 23.3 L 156.2 22.9 L 157.9 20.8 L 158.3255319595337 21.278723430633544 L 161.9 18.3 L 172.9 27.3 L 167.9 30.3 L 160.17826089859008 33.51739130020142 L 158.3 34.7 L 155.4 36.5 L 152.3 38.3 L 149.1 40.2 L 145.7 42.1 L 142.0 44.0 L 139.0666666984558 45.46666669845581 L 140.5 46.9 L 141.2 51.4 L 138.6 55.1 L 134.1 55.8 L 130.3 53.2 L 129.8 51.6 Z " />
</g>
</svg>
