<svg xmlns="http://www.w3.org/2000/svg" xmlns:xlink="http://www.w3.org/1999/xlink" version="1.1" baseProfile="full" viewBox="0 0 200 200" width="200" height="200">
<g fill="black">
<path d="M 83.9 59.1 L 85.2 62.5 L 81.45316457748413 62.30619812011719 L 78.1 66.7 L 72.1 74.0 L 65.8 81.1 L 59.1 87.9 L 52.2 94.4 L 50.6299334526062 95.75498895645141 L 58.1 97.0 L 61.1 99.0 L 58.1 100.8 L 58.1 182.0 L 46.1 188.0 L 46.1 99.66438360214234 L 44.9 100.7 L 37.3 106.7 L 29.4 112.4 L 21.1 117.8 L 12.4 122.7 L 11.4 121.2 L 18.9 114.7 L 26.1 108.2 L 33.1 101.7 L 39.8 95.1 L 46.2 88.4 L 52.3 81.5 L 58.2 74.5 L 63.7 67.3 L 69.0 59.9 L 73.9 52.4 L 73.92304143905639 52.41543779373169 L 74.4 51.7 Z M 179.0 146.0 L 181.0 146.0 L 179.0 171.0 L 182.6 173.4 L 185.0 177.0 L 182.6 180.6 L 179.0 183.0 L 110.0 183.0 L 107.4 182.8 L 104.9 182.4 L 102.5 181.6 L 100.2 180.3 L 98.2 178.7 L 96.6 176.7 L 95.3 174.4 L 94.5 172.0 L 94.1 169.5 L 94.0 167.0 L 94.0 99.0 L 106.0 101.0 L 109.0 103.0 L 106.0 104.8 L 106.0 136.38684206008912 L 107.4 136.0 L 114.8 134.0 L 122.0 132.0 L 129.0 130.0 L 135.9 127.9 L 142.6 125.7 L 149.2 123.4 L 155.6 121.0 L 166.85281867980956 116.2037166595459 L 166.8 116.1 L 166.89654874801636 116.1850775718689 L 167.8 115.8 L 168.54500417709352 117.6376769065857 L 176.9 125.0 L 177.0 128.2 L 173.18913736343384 126.53274765014649 L 172.3 126.9 L 165.7 129.1 L 159.0 131.2 L 152.1 133.0 L 145.1 134.7 L 138.0 136.2 L 130.7 137.4 L 123.3 138.5 L 115.7 139.3 L 108.0 139.7 L 106.0 139.7253164291382 L 106.0 168.2 L 106.2 169.1 L 106.5 170.0 L 106.9 170.4 L 107.8 170.7 L 108.7 170.9 L 110.0 171.0 L 173.0 171.0 Z M 105.2 21.5 L 165.7 21.5 L 171.7 16.5 L 182.7 25.5 L 177.7 29.5 L 177.7 95.0 L 165.7 101.0 L 165.7 89.0 L 105.2 89.0 L 93.2 95.0 L 93.2 15.5 Z M 105.2 57.2 L 105.2 85.0 L 165.7 85.0 L 165.7 57.2 Z M 75.2 21.2 L 76.5 24.6 L 72.73598384857178 24.34041271209717 L 70.1 27.7 L 64.8 34.0 L 59.3 40.0 L 53.6 45.8 L 47.7 51.4 L 41.6 56.7 L 35.3 61.7 L 28.8 66.4 L 22.0 70.8 L 15.0 74.7 L 14.0 73.2 L 19.7 67.7 L 25.4 62.3 L 31.0 56.8 L 36.4 51.2 L 41.7 45.4 L 46.8 39.5 L 51.7 33.5 L 56.5 27.3 L 61.0 20.9 L 65.4 14.3 L 65.42268514633179 14.315972232818604 L 65.9 13.6 Z M 105.2 25.5 L 105.2 53.2 L 165.7 53.2 L 165.7 25.5 Z " />
</g>
</svg>
