<svg xmlns="http://www.w3.org/2000/svg" xmlns:xlink="http://www.w3.org/1999/xlink" version="1.1" baseProfile="full" viewBox="0 0 200 200" width="200" height="200">
<g fill="black">
<path d="M 76.9 53.8 L 78.6 57.0 L 74.83868350982667 57.06375112533569 L 72.1 61.4 L 66.9 68.8 L 61.4 76.1 L 55.6 83.2 L 50.39894733428955 89.08315792083741 L 55.9 90.0 L 58.9 92.0 L 55.9 93.8 L 55.9 184.0 L 43.9 190.0 L 43.9 96.05 L 43.1 96.9 L 36.3 103.5 L 29.3 109.8 L 21.8 115.9 L 14.0 121.6 L 12.8 120.3 L 19.2 113.1 L 25.5 106.0 L 31.6 98.9 L 37.4 91.8 L 43.0 84.7 L 48.2 77.5 L 53.2 70.2 L 58.0 62.8 L 62.4 55.4 L 66.01155662536621 48.70540723800659 L 66.0 48.7 L 66.12346935272217 48.49795913696289 L 66.5 47.8 L 66.5369668006897 47.82132701873779 L 67.1 46.9 Z M 83.9 170.0 L 126.0 170.0 L 126.0 87.0 L 76.7 87.0 L 76.7 83.0 L 126.0 83.0 L 126.0 21.0 L 138.0 23.0 L 141.0 25.0 L 138.0 26.8 L 138.0 83.0 L 165.2 83.0 L 175.2 73.0 L 187.2 83.0 L 187.2 87.0 L 138.0 87.0 L 138.0 170.0 L 158.1 170.0 L 168.1 160.0 L 180.1 170.0 L 180.1 174.0 L 83.9 174.0 Z M 72.5 22.6 L 73.5 26.0 L 69.80225257873535 25.426211643218995 L 68.3 27.0 L 63.8 31.3 L 59.2 35.6 L 54.3 39.8 L 49.2 44.0 L 43.9 48.2 L 38.3 52.3 L 32.5 56.2 L 26.3 60.1 L 19.9 63.7 L 18.8 62.2 L 24.0 57.0 L 29.1 52.0 L 34.1 47.2 L 38.9 42.5 L 43.5 37.8 L 47.9 33.1 L 52.1 28.5 L 56.0 23.9 L 59.8 19.4 L 62.659366035461424 15.64197597503662 L 62.6 15.6 L 63.13720932006836 15.013953495025635 L 63.3 14.8 L 63.31875638961792 14.815902137756348 L 63.7 14.4 Z " />
</g>
</svg>
