<svg xmlns="http://www.w3.org/2000/svg" xmlns:xlink="http://www.w3.org/1999/xlink" version="1.1" baseProfile="full" viewBox="0 0 200 200" width="200" height="200">
<g fill="black">
<path d="M 136.0 174.0 L 156.0 174.0 L 157.2 173.9 L 158.1 173.7 L 159.0 173.4 L 159.4 173.0 L 159.7 172.1 L 159.9 171.2 L 160.0 170.0 L 160.0 81.0 L 138.0 81.0 L 138.0 77.0 L 167.0 77.0 L 177.0 67.0 L 189.0 77.0 L 189.0 81.0 L 172.0 81.0 L 172.0 170.0 L 171.8 172.5 L 171.4 175.0 L 170.6 177.4 L 169.3 179.7 L 167.7 181.7 L 165.7 183.3 L 163.4 184.6 L 161.0 185.4 L 158.5 185.8 L 156.0 186.0 L 156.0 180.0 L 136.0 177.0 Z M 62.1 56.8 L 64.0 59.8 L 60.308314895629884 60.24554815292358 L 58.2 64.3 L 54.2 71.5 L 49.9 78.5 L 45.4 85.3 L 40.7 91.9 L 39.070491790771484 93.99508199691772 L 45.1 95.0 L 48.1 97.0 L 45.1 98.8 L 45.1 179.1 L 33.1 185.1 L 33.1 101.31538457870484 L 30.6 104.2 L 25.2 110.0 L 19.5 115.4 L 13.4 120.4 L 12.1 119.1 L 16.7 112.8 L 21.1 106.5 L 25.4 100.2 L 29.6 93.7 L 33.7 87.2 L 37.5 80.4 L 41.2 73.5 L 44.7 66.5 L 48.0 59.3 L 50.720028972625734 52.80702772140503 L 50.7 52.8 L 50.993103408813475 52.155172443389894 L 51.1 51.9 L 51.10756015777588 51.90336771011353 L 51.7 50.6 Z M 64.1 167.2 L 76.7 167.2 L 76.7 134.1 L 87.7 136.1 L 90.4 138.1 L 87.7 139.82340421676636 L 87.7 167.2 L 96.5 167.2 L 96.5 124.2 L 107.5 126.2 L 110.2 128.2 L 107.5 129.92340421676636 L 107.5 143.8 L 119.5777777671814 143.8 L 125.8 136.8 L 133.8 143.8 L 133.8 147.8 L 107.5 147.8 L 107.5 167.2 L 117.8 167.2 L 127.8 157.2 L 139.8 167.2 L 139.8 171.2 L 64.1 171.2 Z M 117.8 119.9 L 115.4 119.5 L 112.9 118.6 L 110.7 117.4 L 108.7 115.8 L 107.0 113.8 L 105.8 111.5 L 105.0 109.1 L 104.5 106.6 L 104.49924812316894 106.58045110702514 L 102.8 107.6 L 100.0 109.7 L 97.2 111.5 L 91.4 114.9 L 88.5 116.4 L 85.7 117.8 L 82.8 119.1 L 81.26138610839844 119.75940589904785 L 79.8 123.9 L 77.1 121.4 L 72.3 110.3 L 74.3 109.8 L 77.1 109.5 L 79.1 109.21428575515748 L 79.1 68.8 L 78.49333333969116 68.8 L 78.2 74.3 L 77.6 81.2 L 76.9 87.8 L 76.0 93.9 L 74.8 99.5 L 73.5 104.7 L 71.9 109.4 L 70.1 113.7 L 67.9 117.4 L 65.5 120.5 L 64.0 119.7 L 64.7 116.1 L 65.4 112.1 L 66.1 107.9 L 66.7 103.3 L 67.1 98.3 L 67.5 92.9 L 67.7 87.0 L 67.8 80.7 L 67.8 74.0 L 67.6 66.8 L 67.6 22.4 L 78.6 27.9 L 96.1 27.9 L 96.1 14.4 L 108.1 16.4 L 111.1 18.4 L 108.1 20.2 L 108.1 27.9 L 113.3 27.9 L 123.3 17.9 L 135.3 27.9 L 135.3 31.9 L 108.55 31.9 L 115.3 33.4 L 117.6 35.4 L 115.3 37.004651165008546 L 115.3 45.5 L 123.7 45.5 L 128.7 40.5 L 138.7 49.5 L 133.7 52.5 L 133.7 68.8 L 123.7 73.8 L 123.7 68.8 L 107.4 68.8 L 116.4 70.3 L 119.4 72.3 L 116.4 74.1 L 116.4 86.3 L 117.9 84.8 L 119.6 83.2 L 121.1 81.7 L 122.4 80.2 L 123.7 78.8 L 124.8 77.4 L 125.14553890228271 76.95079936981202 L 125.0 76.8 L 125.9 76.0 L 132.4753935813904 84.35252695083618 L 132.8 83.0 L 134.8 83.0 L 132.8 108.0 L 136.4 110.4 L 138.8 114.0 L 136.4 117.6 L 132.8 120.0 L 120.4 120.0 Z M 91.1 70.3 L 94.1 72.3 L 91.1 74.1 L 91.1 86.0 L 94.1 86.0 L 98.6 80.0 L 104.4 85.8 L 104.4 68.8 L 82.1 68.8 Z M 56.4 19.2 L 58.3 22.3 L 54.577005004882814 22.685137367248537 L 53.0 25.7 L 49.4 31.9 L 45.7 37.9 L 41.8 43.7 L 37.8 49.3 L 33.6 54.6 L 29.3 59.6 L 24.8 64.4 L 20.1 68.8 L 15.1 72.8 L 13.8 71.6 L 17.2 66.3 L 20.7 61.0 L 24.1 55.7 L 27.4 50.2 L 30.7 44.6 L 33.9 38.9 L 37.0 32.9 L 39.9 26.9 L 42.8 20.6 L 45.19169454574585 15.133269691467286 L 45.1 15.1 L 46.1 13.0 Z M 78.6 49.5 L 78.6 64.8 L 87.6 64.8 L 87.6 49.5 Z M 97.6 49.5 L 97.6 64.8 L 106.3 64.8 L 106.3 49.5 Z M 115.3 49.5 L 115.3 64.8 L 123.7 64.8 L 123.7 49.5 Z M 78.6 31.9 L 78.6 45.5 L 87.6 45.5 L 87.6 31.9 Z M 97.6 33.4 L 100.1 35.4 L 97.6 37.06666669845581 L 97.6 45.5 L 106.3 45.5 L 106.3 31.9 L 90.1 31.9 Z M 184.0 32.0 L 184.0 36.0 L 142.0 36.0 L 142.0 32.0 L 165.8181818008423 32.0 L 174.0 23.0 Z M 131.54782609939576 88.21739130020141 L 129.09720668792724 87.32625694274903 L 127.6 88.0 L 125.5 88.7 L 123.3 89.5 L 121.0 90.2 L 118.6 90.9 L 116.4 91.40769233703614 L 116.4 104.0 L 116.5 105.3 L 116.6 106.2 L 116.8 106.8 L 117.0 107.1 L 117.3 107.4 L 117.7 107.6 L 118.3 107.8 L 119.2 108.0 L 126.8 108.0 Z M 91.1 90.0 L 91.1 107.15483875274658 L 91.9 107.0 L 95.1 106.4 L 98.4 105.8 L 101.7 105.1 L 104.41163311004638 104.30246086120606 L 104.4 104.0 L 104.4 90.0 Z " />
</g>
</svg>
