<svg xmlns="http://www.w3.org/2000/svg" xmlns:xlink="http://www.w3.org/1999/xlink" version="1.1" baseProfile="full" viewBox="0 0 200 200" width="200" height="200">
<g fill="black">
<path d="M 63.5 51.3 L 65.4 54.3 L 61.74339618682861 54.81320753097534 L 59.7 58.9 L 55.6 66.3 L 51.3 73.6 L 46.7 80.7 L 42.258974361419675 87.17649574279785 L 47.2 88.0 L 50.2 90.0 L 47.2 91.8 L 47.2 182.0 L 35.2 188.0 L 35.2 96.5777777671814 L 31.5 101.1 L 25.9 107.6 L 20.0 113.7 L 13.7 119.5 L 12.3 118.4 L 17.1 111.3 L 21.7 104.3 L 26.2 97.3 L 30.6 90.2 L 34.8 83.1 L 38.7 76.0 L 42.5 68.7 L 46.1 61.4 L 49.4 54.0 L 52.5 46.4 L 52.54536085128784 46.42020616531372 L 53.1 45.2 Z M 129.6 175.0 L 149.6 175.0 L 150.8 174.9 L 151.7 174.7 L 152.6 174.4 L 153.0 174.0 L 153.2 173.7 L 153.3 173.1 L 153.5 172.2 L 153.6 171.0 L 153.6 73.0 L 131.7 73.0 L 131.7 69.0 L 164.9 69.0 L 174.9 59.0 L 186.9 69.0 L 186.9 73.0 L 165.6 73.0 L 165.6 171.0 L 165.4 173.5 L 165.0 176.0 L 164.2 178.4 L 163.0 180.7 L 161.3 182.7 L 159.3 184.3 L 157.0 185.6 L 154.6 186.4 L 152.1 186.8 L 149.6 187.0 L 149.6 181.0 L 129.6 178.0 Z M 66.9 168.0 L 76.8 168.0 L 76.8 125.0 L 87.8 127.0 L 90.5 129.0 L 87.8 130.72340421676637 L 87.8 168.0 L 96.9 168.0 L 96.9 106.0 L 107.9 108.0 L 110.7 110.0 L 107.9 111.75 L 107.9 134.0 L 115.4777777671814 134.0 L 121.7 127.0 L 129.7 134.0 L 129.7 138.0 L 107.9 138.0 L 107.9 168.0 L 112.8 168.0 L 122.8 158.0 L 134.8 168.0 L 134.8 172.0 L 66.9 172.0 Z M 102.9 46.2 L 104.6 49.4 L 100.14114112854004 49.630630588531496 L 100.0 49.8 L 98.4 51.7 L 95.0 55.5 L 93.2 57.4 L 91.3 59.4 L 89.3 61.4 L 87.99921255111694 62.576902866363525 L 89.1 63.8 L 90.7 65.9 L 92.2 68.0 L 93.6 70.2 L 94.9 72.5 L 94.50338983535767 77.06101694107056 L 97.0 72.9 L 99.7 68.5 L 102.2 64.2 L 104.6 60.0 L 106.9 56.1 L 108.63714389801025 53.020517635345456 L 108.6 53.0 L 109.6 51.4 L 119.1 58.8 L 120.5 62.1 L 116.72268905639649 61.969747924804686 L 116.4 62.4 L 113.5 66.1 L 110.4 69.9 L 107.3 73.8 L 104.0 77.8 L 100.5 81.9 L 96.9 86.0 L 93.0 90.3 L 90.07865171432495 93.36741571426391 L 92.0 93.3 L 97.6 93.1 L 114.7 92.2 L 120.5 92.1 L 121.53199996948243 92.1 L 121.1 90.9 L 120.1 88.4 L 119.0 85.9 L 117.8 83.4 L 116.5 80.9 L 114.8 78.6 L 116.0 77.3 L 118.3 79.1 L 120.8 80.7 L 123.2 82.6 L 125.4 84.7 L 127.5 87.0 L 129.5 89.4 L 131.3 91.9 L 133.0 94.6 L 134.6 97.5 L 136.1 100.5 L 135.6 105.0 L 132.2 108.0 L 127.6 107.5 L 124.6 104.1 L 124.1 101.3 L 123.5 98.7 L 122.8 96.0 L 122.58364782333373 95.29685535430909 L 121.2 95.8 L 115.6 97.5 L 110.0 99.0 L 104.3 100.3 L 98.6 101.5 L 93.0 102.6 L 81.6 104.4 L 75.9 105.2 L 74.3367088317871 105.36455698013306 L 72.4 108.7 L 70.2 105.8 L 67.5 94.0 L 69.5 93.9 L 80.7 93.7 L 85.20566034317017 93.53908357620239 L 85.9 92.2 L 88.7 87.1 L 91.6 82.2 L 94.3 77.4 L 94.45749998092651 77.1375 L 91.1 80.1 L 86.6 79.8 L 83.5 76.4 L 83.2 74.3 L 82.8 72.1 L 82.3 70.0 L 81.7 67.8 L 80.3 63.4 L 79.4 61.1 L 78.4 58.8 L 77.4 56.4 L 76.0 54.3 L 77.3 53.1 L 79.2 54.9 L 81.5 56.4 L 83.5 58.1 L 85.5 59.9 L 85.75243902206421 60.16646337509155 L 86.0 59.3 L 87.8 54.1 L 88.7 51.7 L 89.5 49.3 L 90.3 47.0 L 91.7 42.6 L 92.0301435470581 41.499521541595456 L 91.8 41.4 L 92.08947372436523 40.9 L 67.5 40.9 L 67.5 36.9 L 94.5 36.9 L 94.5 17.3 L 106.5 19.3 L 109.5 21.3 L 106.5 23.1 L 106.5 36.9 L 111.4 36.9 L 121.4 26.9 L 133.4 36.9 L 133.4 40.9 L 94.98955221176148 40.9 Z M 60.0 20.1 L 61.5 23.4 L 57.56968879699707 23.266769123077392 L 56.7 24.4 L 53.2 28.8 L 49.6 33.1 L 45.7 37.4 L 41.7 41.7 L 37.5 45.8 L 33.0 50.0 L 28.4 54.0 L 23.5 57.9 L 18.2 61.6 L 17.0 60.3 L 20.8 55.2 L 24.5 50.3 L 28.2 45.5 L 31.8 40.8 L 35.2 36.2 L 38.5 31.6 L 41.6 27.0 L 44.6 22.5 L 47.4 18.0 L 49.46103649139404 14.432821464538574 L 49.4 14.4 L 50.5 12.7 Z M 181.3 28.0 L 181.3 32.0 L 135.7 32.0 L 135.7 28.0 L 163.11818180084228 28.0 L 171.3 19.0 Z " />
</g>
</svg>
