<svg xmlns="http://www.w3.org/2000/svg" xmlns:xlink="http://www.w3.org/1999/xlink" version="1.1" baseProfile="full" viewBox="0 0 200 200" width="200" height="200">
<g fill="black">
<path d="M 78.9 59.0 L 80.3 62.3 L 76.60058269500732 62.236216926574706 L 73.5 66.6 L 67.8 73.9 L 61.9 80.9 L 55.6 87.8 L 49.1 94.3 L 47.49910316467285 95.7831838607788 L 54.8 97.0 L 57.8 99.0 L 54.8 100.8 L 54.8 182.0 L 42.8 188.0 L 42.8 100.13676471710205 L 42.3 100.6 L 35.1 106.7 L 27.7 112.4 L 19.9 117.7 L 11.7 122.7 L 10.6 121.2 L 17.5 114.8 L 24.2 108.3 L 30.7 101.8 L 37.0 95.2 L 42.9 88.5 L 48.6 81.6 L 54.1 74.6 L 59.2 67.4 L 64.1 60.1 L 68.27429857254029 53.43888521194458 L 68.2 53.4 L 69.3 51.8 Z M 135.3 101.3 L 137.8 103.9 L 134.1913556098938 104.995481300354 L 132.3 111.3 L 129.4306122779846 118.9 L 165.6 118.9 L 175.6 108.9 L 187.6 118.9 L 187.6 122.9 L 127.78709678649902 122.9 L 124.4 130.4 L 119.6 139.4 L 115.67176465988159 145.7 L 155.9 145.7 L 165.9 135.7 L 177.9 145.7 L 177.9 149.7 L 146.8 149.7 L 146.8 179.8 L 165.0 179.8 L 175.0 169.8 L 187.0 179.8 L 187.0 183.8 L 96.6 183.8 L 96.6 179.8 L 134.8 179.8 L 134.8 149.7 L 113.5 149.7 L 113.5 149.0118643760681 L 108.4 156.1 L 101.9 163.8 L 94.9 171.1 L 87.3 177.9 L 79.0 184.1 L 77.8 182.7 L 84.6 175.2 L 90.9 167.5 L 96.8 159.7 L 102.2 151.7 L 107.1 143.5 L 111.4 135.0 L 115.2 126.3 L 116.48444442749023 122.9 L 83.6 122.9 L 83.6 118.9 L 117.99555559158325 118.9 L 118.6 117.3 L 121.4 108.0 L 123.45819072723388 99.40929098129273 L 123.4 99.4 L 123.5555555343628 98.8 L 96.6 98.8 L 96.6 94.8 L 134.8 94.8 L 134.8 64.7 L 113.5 64.7 L 113.5 64.01186437606812 L 108.4 71.1 L 101.9 78.8 L 94.9 86.1 L 87.3 92.9 L 79.0 99.1 L 77.8 97.7 L 84.6 90.2 L 90.9 82.5 L 96.8 74.7 L 102.2 66.7 L 107.1 58.5 L 111.4 50.0 L 115.2 41.3 L 116.48444442749023 37.9 L 83.6 37.9 L 83.6 33.9 L 117.99555559158325 33.9 L 118.6 32.3 L 121.4 23.0 L 123.45819072723388 14.409290981292724 L 123.4 14.4 L 124.1 11.7 L 135.3 16.3 L 137.8 18.9 L 134.1913556098938 19.995481300354005 L 132.3 26.3 L 129.4306122779846 33.9 L 165.6 33.9 L 175.6 23.9 L 187.6 33.9 L 187.6 37.9 L 127.78709678649902 37.9 L 124.4 45.4 L 119.6 54.4 L 115.67176465988159 60.7 L 155.9 60.7 L 165.9 50.7 L 177.9 60.7 L 177.9 64.7 L 146.8 64.7 L 146.8 94.8 L 165.0 94.8 L 175.0 84.8 L 187.0 94.8 L 187.0 98.8 L 129.21304349899293 98.8 Z M 70.8 21.1 L 72.2 24.4 L 68.45835485458375 24.270977783203126 L 66.0 27.6 L 61.0 33.9 L 55.8 39.9 L 50.5 45.7 L 44.9 51.3 L 39.2 56.6 L 33.3 61.6 L 27.1 66.4 L 20.7 70.7 L 14.1 74.7 L 13.0 73.2 L 18.3 67.8 L 23.6 62.3 L 28.8 56.8 L 33.8 51.2 L 38.7 45.5 L 43.4 39.6 L 48.0 33.6 L 52.4 27.4 L 56.7 21.0 L 60.27091064453125 15.338800144195556 L 60.2 15.3 L 61.3 13.7 Z " />
</g>
</svg>
