<svg xmlns="http://www.w3.org/2000/svg" xmlns:xlink="http://www.w3.org/1999/xlink" version="1.1" baseProfile="full" viewBox="0 0 200 200" width="200" height="200">
<g fill="black">
<path d="M 121.6 178.1 L 142.9 178.1 L 143.8 177.9 L 144.4 177.7 L 144.7 177.5 L 144.9 177.4 L 145.0 177.2 L 145.2 176.9 L 145.4 176.3 L 145.6 175.4 L 145.6 136.1 L 79.1 136.1 L 79.1 132.1 L 145.6 132.1 L 145.6 110.0 L 157.6 112.0 L 160.6 114.0 L 157.6 115.8 L 157.6 132.1 L 165.9 132.1 L 175.9 122.1 L 187.9 132.1 L 187.9 136.1 L 157.6 136.1 L 157.6 174.1 L 157.5 176.7 L 157.1 179.2 L 156.3 181.6 L 155.0 183.8 L 153.4 185.9 L 151.4 187.5 L 149.1 188.7 L 146.7 189.5 L 144.2 190.0 L 141.6 190.1 L 141.6 184.1 L 121.6 181.1 Z M 71.4 58.7 L 73.1 61.9 L 69.38563480377198 62.02808151245117 L 66.8 66.3 L 61.9 73.6 L 56.8 80.7 L 51.3 87.5 L 45.7 94.1 L 44.025858116149905 95.88764305114746 L 50.7 97.0 L 53.7 99.0 L 50.7 100.8 L 50.7 182.0 L 38.7 188.0 L 38.7 101.48225803375244 L 33.6 106.5 L 27.1 112.3 L 20.3 117.6 L 13.1 122.6 L 12.0 121.3 L 17.7 114.8 L 23.3 108.4 L 28.8 102.0 L 34.0 95.4 L 39.1 88.7 L 43.9 81.9 L 48.5 74.9 L 52.9 67.8 L 57.0 60.5 L 60.46820192337036 53.830380821228026 L 60.4 53.8 L 61.4 52.0 Z M 111.7 159.7 L 110.0 158.0 L 107.8 156.3 L 105.0 154.4 L 101.8 152.5 L 98.2 150.6 L 94.1 148.5 L 89.5 146.4 L 84.5 144.4 L 85.0 142.6 L 90.4 143.5 L 95.4 144.2 L 100.1 145.1 L 104.4 146.1 L 108.3 147.3 L 111.9 148.5 L 115.1 149.8 L 118.0 151.3 L 120.6 153.0 L 122.9 155.0 L 124.1 159.4 L 121.9 163.4 L 117.5 164.6 L 113.5 162.4 L 112.8 161.2 Z M 88.5 113.6 L 76.5 119.6 L 76.5 54.0 L 88.5 60.0 L 122.0 60.0 L 122.0 40.7 L 68.5 40.7 L 68.5 36.7 L 122.0 36.7 L 122.0 13.8 L 134.0 15.8 L 137.0 17.8 L 134.0 19.6 L 134.0 36.7 L 165.5 36.7 L 175.5 26.7 L 187.5 36.7 L 187.5 40.7 L 134.0 40.7 L 134.0 60.0 L 167.5 60.0 L 173.5 55.0 L 184.5 64.0 L 179.5 68.0 L 179.5 107.6 L 167.5 113.6 L 167.5 101.6 L 88.5 101.6 Z M 88.5 64.0 L 88.5 97.6 L 106.6 97.6 L 106.6 64.0 Z M 118.6 97.6 L 137.4 97.6 L 137.4 64.0 L 118.6 64.0 Z M 149.4 64.0 L 149.4 97.6 L 167.5 97.6 L 167.5 64.0 Z M 64.5 20.8 L 66.2 24.0 L 62.441354751586914 24.063705825805663 L 60.4 27.3 L 56.0 33.6 L 51.6 39.6 L 46.9 45.5 L 42.1 51.1 L 37.1 56.4 L 32.0 61.5 L 26.6 66.2 L 21.0 70.6 L 15.2 74.6 L 14.0 73.3 L 22.8 62.5 L 31.4 51.5 L 35.5 45.8 L 39.5 39.9 L 43.3 33.9 L 47.0 27.7 L 50.6 21.4 L 53.65529880523682 15.725873756408692 L 53.6 15.7 L 54.6 13.9 Z " />
</g>
</svg>
