<svg xmlns="http://www.w3.org/2000/svg" xmlns:xlink="http://www.w3.org/1999/xlink" version="1.1" baseProfile="full" viewBox="0 0 200 200" width="200" height="200">
<g fill="black">
<path d="M 165.3 178.6 L 159.7 175.2 L 154.5 171.6 L 149.5 167.7 L 144.9 163.5 L 140.7 159.1 L 136.8 154.3 L 134.3 150.51212120056152 L 134.3 182.8 L 122.3 188.8 L 122.3 155.59534883499146 L 121.5 156.6 L 116.8 161.6 L 111.7 166.2 L 106.3 170.5 L 100.5 174.4 L 94.3 177.9 L 87.7 181.0 L 80.7 183.6 L 73.4 185.7 L 72.7 184.0 L 79.1 180.1 L 85.2 176.3 L 90.8 172.3 L 96.0 168.2 L 100.9 163.9 L 105.3 159.5 L 109.4 154.8 L 113.1 149.9 L 116.3 144.9 L 116.45652170181275 144.6 L 73.7 144.6 L 73.7 140.6 L 122.3 140.6 L 122.3 109.6 L 134.3 111.6 L 137.3 113.6 L 134.3 115.4 L 134.3 140.6 L 141.375 140.6 L 142.5 138.8 L 144.1 135.5 L 145.7 132.4 L 147.2 129.5 L 148.6 126.7 L 149.8 124.1 L 150.9 121.6 L 151.9 119.3 L 152.8 117.1 L 153.11427421569823 116.0524193763733 L 153.0 116.0 L 153.28260869979857 115.49130430221558 L 153.4 115.1 L 153.47620964050293 115.14282255172729 L 154.0 114.2 L 163.9 121.0 L 165.6 124.2 L 161.1003680229187 124.35252990722657 L 160.7 124.8 L 156.9 129.0 L 152.5 133.4 L 150.0 135.7 L 147.4 138.0 L 144.6 140.4 L 144.4 140.6 L 161.6 140.6 L 171.6 130.6 L 183.6 140.6 L 183.6 144.6 L 134.33157892227172 144.6 L 136.7 146.6 L 141.1 150.3 L 145.6 153.8 L 150.2 157.1 L 155.0 160.1 L 160.0 162.9 L 165.1 165.6 L 170.5 167.9 L 176.1 170.1 L 182.0 172.0 L 189.0 174.6 L 177.5 184.4 L 171.3 181.6 Z M 71.9 51.7 L 73.6 54.9 L 69.8422779083252 55.02738037109375 L 67.2 59.3 L 62.4 66.7 L 57.2 74.0 L 51.7 81.1 L 46.66186437606812 87.09364404678345 L 52.1 88.0 L 55.1 90.0 L 52.1 91.8 L 52.1 182.0 L 40.1 188.0 L 40.1 94.57333335876464 L 39.9 94.8 L 33.5 101.4 L 26.9 107.8 L 19.8 113.8 L 12.4 119.6 L 11.1 118.3 L 17.1 111.1 L 23.0 104.1 L 28.6 97.0 L 34.1 89.9 L 39.3 82.8 L 44.2 75.6 L 48.9 68.3 L 53.3 61.0 L 57.4 53.5 L 60.82612533569336 46.91129741668701 L 60.8 46.9 L 61.8 45.0 Z M 106.2 133.3 L 105.6 131.8 L 104.8 130.2 L 103.8 128.5 L 102.5 126.8 L 101.1 124.9 L 99.5 123.0 L 97.6 121.0 L 95.3 119.4 L 96.2 117.8 L 98.8 119.1 L 101.5 119.9 L 104.0 120.9 L 106.4 121.9 L 108.6 123.1 L 110.7 124.4 L 112.6 125.7 L 114.4 127.2 L 116.1 128.8 L 117.6 130.6 L 117.8 135.2 L 114.9 138.7 L 110.3 138.9 L 106.8 136.0 L 106.6 134.7 Z M 87.0 115.4 L 75.0 121.4 L 75.0 74.0 L 87.0 80.0 L 168.9 80.0 L 174.9 75.0 L 185.9 84.0 L 180.9 88.0 L 180.9 112.4 L 168.9 118.4 L 168.9 108.4 L 87.0 108.4 Z M 87.0 84.0 L 87.0 104.4 L 106.3 104.4 L 106.3 84.0 Z M 118.3 84.0 L 118.3 104.4 L 137.6 104.4 L 137.6 84.0 Z M 149.6 84.0 L 149.6 104.4 L 168.9 104.4 L 168.9 84.0 Z M 167.8 70.4 L 163.1 68.0 L 158.5 65.2 L 153.8 62.2 L 149.1 58.7 L 144.5 55.0 L 139.9 50.9 L 135.4 46.3 L 134.0 44.67209300994873 L 134.0 69.0 L 122.0 75.0 L 122.0 49.13958330154419 L 118.3 52.3 L 113.2 56.2 L 107.9 59.7 L 102.2 63.0 L 96.2 66.1 L 90.0 68.8 L 83.4 71.2 L 76.5 73.2 L 69.2 74.8 L 68.7 73.1 L 75.1 69.7 L 81.2 66.3 L 87.0 62.9 L 92.5 59.4 L 97.7 55.9 L 102.5 52.2 L 107.0 48.3 L 111.1 44.4 L 113.32439022064209 42.0 L 73.0 42.0 L 73.0 38.0 L 122.0 38.0 L 122.0 27.972151851654054 L 118.4 28.2 L 110.2 28.7 L 101.6 28.9 L 92.5 29.0 L 83.0 28.8 L 82.9 27.1 L 92.2 25.2 L 101.0 23.6 L 109.5 22.1 L 117.5 20.7 L 125.2 19.3 L 132.3 17.9 L 139.1 16.5 L 145.4 15.1 L 151.3 13.7 L 155.7167163848877 12.554925346374512 L 155.7 12.5 L 155.75480403900147 12.545050811767577 L 156.7 12.3 L 156.9649151802063 13.539803218841552 L 167.5 22.2 L 167.9 25.2 L 163.46705379486085 23.074614810943604 L 159.2 24.0 L 153.4 24.9 L 147.2 25.7 L 140.7 26.4 L 134.0 27.069999980926514 L 134.0 38.0 L 161.0 38.0 L 171.0 28.0 L 183.0 38.0 L 183.0 42.0 L 136.040625 42.0 L 138.0 43.1 L 143.4 46.2 L 148.6 49.1 L 153.6 51.7 L 158.5 54.1 L 163.2 56.2 L 167.8 58.0 L 172.2 59.5 L 176.5 60.7 L 180.7 61.6 L 188.9 63.8 L 177.2 74.3 L 172.5 72.5 Z M 67.6 20.5 L 68.7 23.9 L 64.98870792388917 23.379116916656493 L 63.7 24.8 L 59.5 29.2 L 55.1 33.5 L 50.5 37.7 L 45.7 41.9 L 40.7 46.1 L 35.4 50.2 L 29.9 54.2 L 24.0 58.0 L 17.9 61.7 L 16.8 60.2 L 21.6 55.1 L 26.4 50.1 L 31.0 45.3 L 35.5 40.5 L 39.8 35.9 L 43.9 31.2 L 47.8 26.6 L 51.5 22.1 L 54.9 17.5 L 57.608940505981444 13.80599012374878 L 57.6 13.8 L 57.7 13.681818199157714 L 58.2 13.0 L 58.24592084884644 13.03663902282715 L 58.7 12.5 Z " />
</g>
</svg>
