<svg xmlns="http://www.w3.org/2000/svg" xmlns:xlink="http://www.w3.org/1999/xlink" version="1.1" baseProfile="full" viewBox="0 0 200 200" width="200" height="200">
<g fill="black">
<path d="M 73.5 151.0 L 92.5 151.0 L 92.5 112.0 L 104.5 118.0 L 129.3 118.0 L 129.3 91.0 L 141.3 93.0 L 144.3 95.0 L 141.3 96.8 L 141.3 118.0 L 154.3 118.0 L 164.3 108.0 L 176.3 118.0 L 176.3 122.0 L 141.3 122.0 L 141.3 151.0 L 166.8 151.0 L 176.8 141.0 L 188.8 151.0 L 188.8 155.0 L 141.3 155.0 L 141.3 184.0 L 129.3 190.0 L 129.3 155.0 L 73.5 155.0 Z M 78.0 59.0 L 79.4 62.3 L 75.71292304992676 62.2364296913147 L 72.7 66.5 L 67.1 73.8 L 61.2 80.9 L 55.0 87.7 L 48.5 94.3 L 46.9040449142456 95.80067415237427 L 54.1 97.0 L 57.1 99.0 L 54.1 100.8 L 54.1 182.0 L 42.1 188.0 L 42.1 100.31791048049926 L 41.8 100.6 L 34.7 106.7 L 27.4 112.4 L 19.6 117.7 L 11.5 122.7 L 10.5 121.2 L 17.3 114.8 L 23.9 108.3 L 30.3 101.8 L 36.4 95.2 L 42.3 88.5 L 48.0 81.7 L 53.3 74.6 L 58.4 67.5 L 63.3 60.1 L 67.8 52.6 L 67.82148275375366 52.61347932815552 L 68.3 51.8 Z M 104.5 122.0 L 104.5 151.0 L 129.3 151.0 L 129.3 122.0 Z M 76.2 80.8 L 110.59616613388062 80.8 L 115.01980829238892 48.6 L 88.8 48.6 L 88.8 44.6 L 115.56932907104492 44.6 L 119.1 18.9 L 130.7 22.5 L 133.4 24.9 L 130.22814731597902 25.93695182800293 L 127.66593217849731 44.6 L 153.6 44.6 L 159.6 39.6 L 170.6 48.6 L 165.6 52.6 L 165.6 80.8 L 169.21818180084227 80.8 L 177.4 71.8 L 187.4 80.8 L 187.4 84.8 L 76.2 84.8 Z M 127.11677961349487 48.6 L 122.69610166549683 80.8 L 153.6 80.8 L 153.6 48.6 Z M 70.0 21.1 L 71.4 24.4 L 67.65835485458373 24.270977783203126 L 65.2 27.6 L 60.3 33.9 L 55.2 39.9 L 49.9 45.7 L 44.4 51.3 L 38.7 56.6 L 32.9 61.6 L 26.8 66.4 L 20.5 70.7 L 13.9 74.7 L 12.8 73.2 L 18.1 67.8 L 23.3 62.3 L 28.4 56.9 L 33.3 51.3 L 38.2 45.5 L 42.8 39.7 L 47.4 33.6 L 51.7 27.4 L 55.9 21.1 L 59.9 14.5 L 59.957879638671876 14.537822341918945 L 60.5 13.7 Z " />
</g>
</svg>
