<svg xmlns="http://www.w3.org/2000/svg" xmlns:xlink="http://www.w3.org/1999/xlink" version="1.1" baseProfile="full" viewBox="0 0 200 200" width="200" height="200">
<g fill="black">
<path d="M 86.9 33.0 L 118.1 33.0 L 118.1 11.0 L 130.1 13.0 L 133.1 15.0 L 130.1 16.8 L 130.1 20.0 L 152.51818180084229 20.0 L 160.7 11.0 L 170.7 20.0 L 170.7 24.0 L 130.1 24.0 L 130.1 33.0 L 172.7 33.0 L 173.4800000190735 32.35 L 174.2 31.0 L 174.63579978942872 31.386833477020264 L 178.7 28.0 L 189.7 37.0 L 184.7 40.0 L 174.28571424484252 44.33928575515747 L 174.0 44.5 L 172.3 45.5 L 170.6 46.4 L 168.8 47.3 L 167.3 48.6 L 166.0 47.3 L 167.2 45.8 L 168.8 42.2 L 170.4 38.8 L 171.3 37.0 L 88.9 37.0 L 88.9 105.0 L 88.4 116.8 L 87.6 127.9 L 86.5 138.4 L 85.1 148.1 L 83.2 157.2 L 81.1 165.6 L 78.6 173.2 L 75.6 180.1 L 72.2 186.2 L 68.4 191.4 L 66.8 190.5 L 68.8 184.6 L 70.6 178.3 L 72.2 171.4 L 73.7 163.9 L 74.9 155.7 L 75.8 146.9 L 76.5 137.4 L 76.9 127.3 L 77.1 116.5 L 76.9 105.0 L 76.9 28.0 Z M 71.5 59.5 L 73.3 62.6 L 69.59555253982543 62.919348907470706 L 67.1 67.4 L 62.5 75.1 L 57.5 82.4 L 52.3 89.4 L 47.47073173522949 95.19512195587158 L 52.3 96.0 L 55.3 98.0 L 52.3 99.8 L 52.3 183.0 L 40.3 189.0 L 40.3 103.17377052307128 L 35.0 108.3 L 28.7 113.9 L 22.0 119.0 L 14.9 123.7 L 13.8 122.2 L 19.4 116.2 L 24.9 110.1 L 30.2 103.8 L 35.3 97.4 L 40.2 90.8 L 44.8 84.0 L 49.1 76.9 L 53.2 69.6 L 57.1 62.0 L 60.7 54.2 L 60.74014873504639 54.21970262527466 L 61.3 53.1 Z M 158.4 183.7 L 150.1 180.6 L 142.5 177.0 L 135.87992525100708 173.17713994979857 L 128.0 176.5 L 119.1 179.4 L 109.5 181.7 L 99.1 183.2 L 88.2 184.1 L 87.9 182.3 L 98.4 179.5 L 108.1 176.5 L 117.0 173.2 L 125.0 169.5 L 128.43386449813843 167.5922974586487 L 123.4 163.0 L 118.4 157.3 L 114.3 151.1 L 111.61029415130615 145.2 L 96.8 145.2 L 96.8 141.2 L 155.8 141.2 L 156.1457627296448 140.9118643760681 L 156.5 140.3 L 156.7269624710083 140.4275312423706 L 161.8 136.2 L 172.8 145.2 L 167.8 148.2 L 164.6373429298401 149.51777381896972 L 162.3 152.8 L 156.9 158.8 L 150.7 164.1 L 145.94470043182372 167.45668201446534 L 146.7 167.8 L 153.9 170.2 L 161.5 172.3 L 169.7 173.9 L 178.5 175.0 L 188.5 176.4 L 176.7 188.1 L 167.2 186.1 Z M 114.49245281219483 145.2 L 117.7 148.6 L 122.8 153.3 L 128.1 157.6 L 133.9 161.4 L 136.35914688110353 162.7485644340515 L 138.7 161.2 L 144.3 156.5 L 149.1 151.4 L 153.2 146.0 L 153.6631579399109 145.2 Z M 90.5 126.6 L 106.9 126.6 L 106.9 75.3 L 118.9 81.3 L 156.0 81.3 L 162.0 76.3 L 173.0 85.3 L 168.0 89.3 L 168.0 126.6 L 170.0777777671814 126.6 L 176.3 119.6 L 184.3 126.6 L 184.3 130.6 L 90.5 130.6 Z M 118.9 115.1 L 118.9 126.6 L 156.0 126.6 L 156.0 115.1 Z M 118.9 100.2 L 118.9 111.1 L 156.0 111.1 L 156.0 100.2 Z M 118.9 85.3 L 118.9 96.2 L 156.0 96.2 L 156.0 85.3 Z M 60.6 27.6 L 62.3 30.8 L 58.57450876235962 30.99269781112671 L 56.6 34.3 L 52.5 40.6 L 48.3 46.5 L 44.1 52.0 L 39.7 57.1 L 35.3 61.7 L 30.7 66.0 L 26.0 69.8 L 21.2 73.0 L 16.2 75.7 L 15.2 74.2 L 18.8 70.1 L 22.4 65.9 L 26.0 61.4 L 29.5 56.8 L 33.1 51.8 L 36.6 46.5 L 40.0 40.9 L 43.4 34.9 L 46.7 28.7 L 49.5469292640686 22.919870948791505 L 49.5 22.9 L 50.5 21.0 Z M 174.7 56.0 L 176.7 56.0 L 174.7 65.0 L 177.1 66.6 L 178.7 69.0 L 177.1 71.4 L 174.7 73.0 L 128.4 73.0 L 126.1 72.8 L 123.9 72.3 L 121.7 71.3 L 119.8 70.0 L 118.1 68.2 L 116.7 66.2 L 115.8 63.9 L 115.1 61.5 L 114.8 59.0 L 114.8 56.22650270462036 L 90.3 57.9 L 90.1 54.0 L 114.8 52.31053352355957 L 114.8 42.0 L 126.8 44.0 L 129.8 46.0 L 126.8 47.8 L 126.8 51.48974008560181 L 141.235431098938 50.502364540100096 L 150.6 39.8 L 163.2 49.0 L 163.5 52.9 L 126.8 55.406830596923825 L 126.8 59.0 L 126.7 60.2 L 126.6 61.2 L 126.7 61.9 L 126.7 62.5 L 126.8 62.9 L 127.1 63.4 L 127.5 63.8 L 128.3 64.3 L 129.4 64.7 L 130.8 65.0 L 170.7 65.0 Z " />
</g>
</svg>
