<svg xmlns="http://www.w3.org/2000/svg" xmlns:xlink="http://www.w3.org/1999/xlink" version="1.1" baseProfile="full" viewBox="0 0 200 200" width="200" height="200">
<g fill="black">
<path d="M 155.9 181.7 L 144.9 178.0 L 135.1 173.5 L 127.89641284942627 169.028807926178 L 122.9 172.5 L 112.9 178.0 L 102.4 182.6 L 91.2 186.1 L 79.6 188.6 L 67.4 189.8 L 67.1 188.1 L 78.7 184.9 L 89.6 181.0 L 99.8 176.6 L 109.3 171.4 L 118.2 165.4 L 120.76594228744507 163.30343742370604 L 119.0 161.8 L 112.8 154.7 L 108.0 146.9 L 104.7 138.3 L 102.9 129.1 L 103.325 129.0 L 87.6 129.0 L 87.6 125.0 L 152.6 125.0 L 153.00535116195678 124.6622073173523 L 153.4 124.0 L 153.63798627853393 124.13501148223877 L 158.6 120.0 L 169.6 129.0 L 164.6 132.0 L 161.5687707901001 133.26301221847535 L 156.9 140.3 L 149.4 149.8 L 141.2 158.3 L 136.19793300628663 162.61996688842774 L 139.6 164.3 L 148.6 167.6 L 158.8 170.3 L 170.0 172.2 L 182.4 173.4 L 193.1 174.3 L 181.2 186.5 L 168.0 184.5 Z M 73.0 51.8 L 74.7 55.0 L 70.93868350982666 55.06375112533569 L 68.2 59.4 L 63.1 66.8 L 57.7 74.1 L 51.9 81.2 L 46.78607597351074 87.08101263046265 L 52.3 88.0 L 55.3 90.0 L 52.3 91.8 L 52.3 182.0 L 40.3 188.0 L 40.3 94.1444444656372 L 39.6 94.9 L 32.9 101.4 L 26.0 107.8 L 18.6 113.9 L 10.8 119.6 L 9.6 118.3 L 16.0 111.1 L 22.2 104.0 L 28.1 97.0 L 33.9 89.9 L 39.4 82.7 L 44.6 75.5 L 49.5 68.2 L 54.1 60.9 L 58.5 53.4 L 62.14990262985229 46.723348903656 L 62.1 46.7 L 63.1 44.9 Z M 104.74624996185302 129.0 L 108.5 136.7 L 113.1 143.8 L 118.3 150.1 L 124.5 155.6 L 127.50868196487427 157.62011499404906 L 134.1 151.2 L 141.1 143.0 L 147.5 133.9 L 150.42020206451417 129.0 Z M 168.6 117.4 L 165.6 115.1 L 162.3 112.7 L 158.7 110.3 L 154.6 108.0 L 150.3 105.6 L 145.7 103.1 L 140.7 100.6 L 135.4 98.0 L 135.9 96.2 L 141.8 97.2 L 147.4 98.3 L 152.7 99.7 L 157.6 101.2 L 162.3 102.9 L 166.7 104.7 L 170.8 106.6 L 174.6 108.6 L 178.2 110.8 L 181.4 113.1 L 183.3 117.2 L 181.9 121.6 L 177.7 123.5 L 173.4 122.0 L 171.2 119.7 Z M 117.7 102.6 L 118.2 106.2 L 114.40456275939941 104.98003797531128 L 114.1 105.2 L 110.3 107.6 L 106.2 110.0 L 101.7 112.2 L 97.0 114.4 L 91.9 116.4 L 86.5 118.3 L 80.8 120.1 L 74.7 121.7 L 68.3 123.0 L 67.7 121.3 L 73.4 118.1 L 78.8 115.2 L 83.9 112.3 L 88.6 109.6 L 93.0 106.9 L 97.1 104.2 L 100.8 101.5 L 104.1 98.9 L 107.1 96.2 L 108.98884811401368 94.38379993438721 L 108.9 94.3 L 109.8 93.5 Z M 96.6 18.0 L 158.3 18.0 L 164.3 13.0 L 175.3 22.0 L 170.3 26.0 L 170.3 90.1 L 158.3 96.1 L 158.3 90.1 L 96.6 90.1 L 96.6 93.1 L 84.6 99.1 L 84.6 12.0 Z M 96.6 66.4 L 96.6 86.1 L 158.3 86.1 L 158.3 66.4 Z M 96.6 44.2 L 96.6 62.4 L 158.3 62.4 L 158.3 44.2 Z M 68.6 20.6 L 69.6 24.0 L 65.91319150924683 23.41787233352661 L 64.5 24.9 L 60.1 29.3 L 55.5 33.6 L 50.7 37.8 L 45.7 42.0 L 40.4 46.2 L 34.9 50.2 L 29.1 54.2 L 23.1 58.0 L 16.7 61.7 L 15.6 60.2 L 20.7 55.1 L 25.8 50.1 L 35.4 40.5 L 39.9 35.8 L 44.2 31.1 L 48.3 26.5 L 52.2 21.9 L 55.9 17.4 L 58.75043668746948 13.73515281677246 L 58.7 13.7 L 59.8 12.4 Z M 96.6 22.0 L 96.6 40.2 L 158.3 40.2 L 158.3 22.0 Z " />
</g>
</svg>
