<svg xmlns="http://www.w3.org/2000/svg" xmlns:xlink="http://www.w3.org/1999/xlink" version="1.1" baseProfile="full" viewBox="0 0 200 200" width="200" height="200">
<g fill="black">
<path d="M 87.5 59.2 L 88.8 62.6 L 85.02151460647583 62.33941478729248 L 81.5 66.8 L 75.2 74.1 L 68.6 81.1 L 61.7 87.9 L 54.4 94.5 L 52.9101321220398 95.73502206802368 L 60.5 97.0 L 63.5 99.0 L 60.5 100.8 L 60.5 182.0 L 48.5 188.0 L 48.5 99.39078950881958 L 46.8 100.8 L 38.9 106.8 L 30.6 112.5 L 22.0 117.8 L 13.0 122.7 L 12.0 121.2 L 19.8 114.7 L 27.4 108.2 L 34.8 101.7 L 41.8 95.1 L 48.6 88.3 L 55.0 81.4 L 61.2 74.4 L 67.0 67.2 L 72.5 59.8 L 77.13222751617431 53.11890268325806 L 77.1 53.1 L 78.2 51.6 Z M 132.7 96.4 L 151.7 96.4 L 157.7 91.4 L 168.7 100.4 L 163.7 104.4 L 163.7 165.4 L 163.9 166.3 L 164.1 166.9 L 164.2 167.3 L 164.4 167.4 L 164.6 167.6 L 164.9 167.8 L 165.5 168.0 L 166.4 168.1 L 167.7 168.2 L 179.4 168.2 L 185.4 143.2 L 187.4 143.2 L 185.4 168.2 L 189.0 170.6 L 191.4 174.2 L 189.0 177.8 L 185.4 180.2 L 167.7 180.2 L 165.1 180.1 L 162.6 179.6 L 160.2 178.8 L 157.9 177.6 L 155.9 175.9 L 154.3 173.9 L 153.0 171.7 L 152.2 169.2 L 151.8 166.8 L 151.7 164.2 L 151.7 100.4 L 132.7 100.4 L 132.7 103.9 L 132.1 116.1 L 130.9 127.5 L 129.0 138.0 L 126.5 147.7 L 123.4 156.7 L 119.6 164.7 L 115.2 171.9 L 110.1 178.1 L 104.3 183.2 L 97.9 187.2 L 96.9 185.7 L 101.7 180.4 L 105.9 174.7 L 109.6 168.4 L 112.8 161.5 L 115.4 153.8 L 117.5 145.4 L 119.2 136.2 L 120.2 126.3 L 120.8 115.5 L 120.7 103.9 L 120.7 90.4 Z M 104.1 23.0 L 171.5 23.0 L 177.5 18.0 L 188.5 27.0 L 183.5 31.0 L 183.5 72.0 L 171.5 78.0 L 171.5 66.0 L 104.1 66.0 L 104.1 87.0 L 103.7 99.6 L 102.9 111.6 L 101.7 123.1 L 100.3 133.9 L 98.4 144.1 L 96.3 153.7 L 93.7 162.7 L 90.8 170.9 L 87.4 178.5 L 83.4 185.3 L 81.8 184.6 L 83.8 177.2 L 85.6 169.4 L 87.3 161.0 L 88.8 152.2 L 90.1 142.8 L 91.0 132.8 L 91.7 122.2 L 92.2 111.1 L 92.3 99.3 L 92.1 87.0 L 92.1 17.0 Z M 78.5 21.3 L 79.7 24.7 L 75.9443564414978 24.3762375831604 L 73.1 27.8 L 67.6 34.1 L 61.8 40.1 L 55.9 45.9 L 49.7 51.5 L 43.4 56.7 L 36.8 61.8 L 30.0 66.5 L 23.0 70.8 L 15.7 74.7 L 14.7 73.2 L 20.8 67.7 L 32.6 56.7 L 38.3 51.1 L 43.8 45.3 L 49.2 39.4 L 54.4 33.4 L 59.4 27.2 L 64.2 20.8 L 68.22974424362182 15.01819305419922 L 68.2 15.0 L 68.5756097793579 14.52195119857788 L 68.8 14.2 L 68.8181393623352 14.213277244567871 L 69.3 13.6 Z M 104.1 27.0 L 104.1 62.0 L 171.5 62.0 L 171.5 27.0 Z " />
</g>
</svg>
