<svg xmlns="http://www.w3.org/2000/svg" xmlns:xlink="http://www.w3.org/1999/xlink" version="1.1" baseProfile="full" viewBox="0 0 200 200" width="200" height="200">
<g fill="black">
<path d="M 166.1 175.8 L 159.5 170.1 L 153.996067237854 163.7270252227783 L 149.1 169.5 L 141.7 176.2 L 133.7 181.7 L 125.1 185.9 L 116.0 188.8 L 115.4 187.1 L 123.4 182.6 L 130.7 177.3 L 137.3 171.3 L 143.4 164.5 L 148.8 156.8 L 149.0442367553711 156.36635513305663 L 148.8 156.0 L 144.7 147.6 L 141.3 138.5 L 138.7 128.5 L 137.0 117.7 L 136.26206893920897 107.0 L 129.3 107.0 L 129.3 103.0 L 167.5 103.0 L 173.5 98.0 L 184.5 107.0 L 179.5 110.0 L 178.2626591682434 110.51555871963501 L 176.0 119.3 L 171.9 131.5 L 167.2 142.6 L 161.8 152.6 L 160.13183517456054 155.10224723815918 L 161.6 156.9 L 167.0 161.9 L 172.8 166.0 L 179.0 169.3 L 185.7 171.7 L 193.0 174.2 L 181.4 184.2 L 173.4 180.5 Z M 60.8 51.2 L 62.8 54.2 L 59.090369606018065 54.711673164367674 L 57.1 58.8 L 53.2 66.2 L 49.1 73.5 L 44.8 80.7 L 40.46999998092652 87.19499998092651 L 45.3 88.0 L 48.3 90.0 L 45.3 91.8 L 45.3 182.0 L 33.3 188.0 L 33.3 97.15882349014282 L 30.3 101.1 L 25.0 107.5 L 19.3 113.7 L 13.3 119.5 L 11.9 118.4 L 16.3 111.3 L 20.7 104.3 L 24.9 97.3 L 29.0 90.3 L 33.0 83.2 L 36.7 76.1 L 40.3 68.8 L 43.6 61.5 L 46.8 54.1 L 49.34624662399292 47.514879322052 L 49.3 47.5 L 49.64821424484253 46.73392858505249 L 49.7 46.6 L 49.707649898529056 46.603170204162595 L 50.3 45.3 Z M 63.8 161.8 L 69.8 160.7 L 72.2 160.22786884307862 L 72.2 102.7 L 63.6 102.7 L 63.6 98.7 L 111.91818180084229 98.7 L 120.1 89.7 L 124.38888893127441 93.56000003814697 L 126.2 90.3 L 128.3 85.7 L 130.2 81.2 L 131.7 76.6 L 132.9 71.9 L 133.8 67.1 L 134.3 62.2 L 134.5 57.1 L 134.4 52.0 L 134.4 20.5 L 145.4 26.0 L 161.0 26.0 L 167.0 21.0 L 178.0 30.0 L 173.0 34.0 L 173.0 74.2 L 173.1 75.1 L 173.2 75.8 L 173.4 76.6 L 173.6 76.9 L 174.0 77.2 L 174.7 77.5 L 175.7 77.8 L 177.0 78.0 L 180.9 78.0 L 185.9 61.0 L 187.9 61.0 L 185.9 78.0 L 188.9 80.0 L 190.9 83.0 L 188.9 86.0 L 185.9 88.0 L 177.0 88.0 L 174.6 87.9 L 172.2 87.6 L 169.9 86.9 L 167.6 85.8 L 165.7 84.3 L 164.0 82.5 L 162.7 80.3 L 161.8 78.0 L 161.3 75.5 L 161.0 73.0 L 161.0 30.0 L 145.4 30.0 L 145.4 52.0 L 144.9 57.8 L 144.0 63.5 L 142.8 69.0 L 141.1 74.3 L 139.0 79.3 L 136.5 84.2 L 133.6 88.7 L 130.2 93.0 L 127.19426231384277 96.08483610153198 L 130.1 98.7 L 130.1 102.7 L 116.8 102.7 L 116.8 153.0333333015442 L 118.9 152.8 L 125.2 152.3 L 125.7 154.0 L 119.8 156.5 L 116.8 157.61864404678346 L 116.8 180.6 L 104.8 186.6 L 104.8 161.75084743499755 L 102.0 162.7 L 96.1 164.6 L 78.4 170.0 L 72.5 171.7 L 70.63492422103882 172.2690061569214 L 69.3 175.9 L 66.6 173.5 L 61.9 162.2 Z M 84.2 142.6 L 84.2 158.02295083999633 L 88.0 157.4 L 94.1 156.3 L 100.2 155.3 L 104.8 154.55806455612182 L 104.8 142.6 Z M 138.3351351737976 107.0 L 141.1 116.9 L 144.4 126.9 L 148.1 135.9 L 152.2 143.9 L 154.19276943206788 146.99986352920533 L 158.0 138.5 L 161.8 128.0 L 165.0 116.4 L 166.93968257904052 107.0 Z M 84.2 122.6 L 84.2 138.6 L 104.8 138.6 L 104.8 122.6 Z M 84.2 102.7 L 84.2 118.6 L 104.8 118.6 L 104.8 102.7 Z M 78.2 83.6 L 67.2 89.1 L 67.2 30.5 L 78.2 32.5 L 80.9 34.5 L 78.2 36.223404216766355 L 78.2 76.6 L 90.5 76.6 L 90.5 12.9 L 100.5 14.9 L 103.0 16.9 L 100.5 18.566666698455812 L 100.5 76.6 L 113.2 76.6 L 113.2 30.5 L 123.2 32.5 L 125.7 34.5 L 123.2 36.16666669845581 L 123.2 80.6 L 113.2 85.6 L 113.2 80.6 L 78.2 80.6 Z M 57.5 19.9 L 59.0 23.2 L 55.1 23.2 L 54.3 24.3 L 51.0 28.7 L 47.5 33.0 L 43.9 37.3 L 40.0 41.6 L 36.0 45.8 L 31.8 49.9 L 27.3 54.0 L 22.6 57.9 L 17.6 61.6 L 16.3 60.3 L 19.8 55.2 L 23.4 50.3 L 30.2 40.9 L 33.4 36.3 L 36.5 31.7 L 39.4 27.1 L 42.2 22.6 L 44.8 18.1 L 46.835325145721434 14.517827701568603 L 46.8 14.5 L 47.8 12.8 Z " />
</g>
</svg>
