<svg xmlns="http://www.w3.org/2000/svg" xmlns:xlink="http://www.w3.org/1999/xlink" version="1.1" baseProfile="full" viewBox="0 0 200 200" width="200" height="200">
<g fill="black">
<path d="M 75.1 53.7 L 76.8 57.0 L 73.01958532333374 57.06407480239868 L 70.4 61.3 L 65.3 68.8 L 60.0 76.0 L 54.3 83.1 L 49.237578296661376 89.10626306533814 L 54.6 90.0 L 57.6 92.0 L 54.6 93.8 L 54.6 184.0 L 42.6 190.0 L 42.6 96.36031742095948 L 42.1 96.9 L 35.5 103.4 L 28.7 109.8 L 21.4 115.9 L 13.7 121.6 L 12.5 120.3 L 18.8 113.1 L 24.8 106.0 L 30.7 99.0 L 36.4 91.9 L 41.8 84.7 L 46.9 77.5 L 51.7 70.3 L 56.3 62.9 L 60.6 55.4 L 64.6 47.9 L 64.65708742141723 47.93153400421143 L 65.2 46.9 Z M 168.0 155.0 L 163.3 150.3 L 158.8 144.8 L 154.6 138.7 L 150.5 131.8 L 147.70193061828613 126.27560653686524 L 148.3 132.8 L 148.2 145.6 L 147.0 159.1 L 144.8 173.4 L 144.1 175.9 L 143.2 178.2 L 142.0 180.4 L 140.5 182.4 L 138.6 184.2 L 136.5 185.6 L 134.3 186.7 L 131.9 187.4 L 129.4 187.8 L 126.8 188.0 L 126.8 182.0 L 110.8 179.0 L 110.8 176.0 L 126.8 176.0 L 128.1 175.9 L 129.2 175.7 L 130.0 175.5 L 130.6 175.2 L 131.1 174.8 L 131.5 174.4 L 131.9 173.9 L 132.3 173.1 L 132.7 172.2 L 133.0 170.9 L 135.8 157.5 L 137.5 144.8 L 138.2 132.9 L 137.98305768966674 124.8731328010559 L 135.4 128.4 L 129.9 135.2 L 124.1 141.6 L 118.1 147.8 L 111.7 153.7 L 105.1 159.3 L 98.1 164.5 L 90.8 169.3 L 83.2 173.7 L 82.2 172.2 L 88.5 166.3 L 94.7 160.4 L 100.7 154.4 L 106.4 148.3 L 111.9 142.1 L 117.1 135.6 L 122.0 129.0 L 126.7 122.1 L 131.1 115.1 L 135.2 107.9 L 136.0058952331543 108.37268857955932 L 134.4 101.6 L 132.088232421875 95.02591104507447 L 131.8 95.4 L 127.1 101.2 L 122.1 106.6 L 117.0 111.8 L 111.7 116.7 L 106.3 121.3 L 100.6 125.5 L 94.8 129.4 L 88.8 132.8 L 82.6 135.7 L 81.6 134.2 L 86.6 129.7 L 91.6 125.1 L 96.4 120.5 L 101.1 115.7 L 105.7 110.7 L 110.2 105.5 L 114.5 100.1 L 118.6 94.5 L 122.6 88.7 L 126.30102672576905 82.91121463775634 L 121.8 75.9 L 119.90818567276001 73.58100185394287 L 119.4 74.1 L 114.4 78.7 L 109.1 83.1 L 103.6 87.4 L 97.7 91.4 L 91.5 95.2 L 85.0 98.7 L 84.0 97.2 L 89.3 92.2 L 94.4 87.3 L 99.3 82.4 L 104.0 77.6 L 108.4 72.7 L 112.5 67.8 L 116.4 62.9 L 120.0 57.9 L 123.26666669845581 53.0 L 83.3 53.0 L 83.3 49.0 L 138.73333330154418 49.0 L 137.9 48.5 L 139.6 44.6 L 141.1 40.7 L 142.7 37.0 L 144.2 33.3 L 145.8 29.8 L 147.4 26.4 L 148.9 23.1 L 150.4 19.9 L 152.7765769958496 14.637579441070557 L 152.7 14.6 L 153.1027777671814 13.915277767181397 L 153.2 13.7 L 153.22172079086303 13.713074684143066 L 153.7 12.9 L 163.5 19.9 L 165.0 23.1 L 161.03691711425782 23.16832904815674 L 159.3 25.3 L 157.2 28.2 L 154.9 31.0 L 152.6 34.0 L 147.6 40.0 L 145.0 43.1 L 142.1 46.2 L 139.7375 49.0 L 164.8 49.0 L 174.8 39.0 L 186.8 49.0 L 186.8 53.0 L 137.3625 53.0 L 136.5 54.2 L 132.7 59.4 L 128.5 64.4 L 124.1 69.3 L 122.11395797729492 71.3282982826233 L 124.6 73.4 L 131.4 81.0 L 137.1 89.6 L 140.7609561920166 97.32868528366089 L 141.8 95.9 L 145.0 91.7 L 148.1 87.7 L 151.1 83.9 L 154.1 80.3 L 156.9 76.7 L 159.5 73.3 L 162.1 70.0 L 164.5 66.8 L 166.2046224594116 64.5765793800354 L 166.1 64.5 L 167.1 63.3 L 175.8 71.6 L 176.7 75.1 L 172.9541139602661 74.44282703399658 L 170.0 77.2 L 166.8 80.1 L 163.5 83.0 L 160.0 86.0 L 156.4 89.1 L 152.6 92.2 L 148.6 95.4 L 144.3 98.5 L 141.93620510101317 100.12839202880859 L 143.65062503814698 105.37250003814697 L 148.1 113.0 L 152.9 120.5 L 157.5 127.3 L 162.1 133.2 L 166.6 138.2 L 171.1 142.4 L 175.4 145.7 L 179.5 148.2 L 183.5 149.9 L 189.7 152.6 L 178.2 162.0 L 173.0 158.9 Z M 70.8 22.5 L 71.8 26.0 L 68.07695999145508 25.422286891937254 L 66.7 26.9 L 62.4 31.2 L 57.8 35.5 L 53.1 39.8 L 48.1 44.0 L 42.9 48.1 L 37.5 52.2 L 31.8 56.2 L 25.8 60.0 L 19.4 63.7 L 18.4 62.2 L 23.4 57.1 L 28.4 52.1 L 33.2 47.2 L 37.8 42.5 L 42.3 37.8 L 46.6 33.2 L 50.6 28.5 L 54.4 24.0 L 58.1 19.4 L 60.86312389373779 15.742924213409424 L 60.8 15.7 L 61.9 14.4 Z M 109.4 35.3 L 108.3 32.3 L 107.1 29.6 L 105.8 27.0 L 104.3 24.7 L 102.7 22.5 L 100.9 20.5 L 98.9 18.6 L 96.4 17.1 L 97.0 15.4 L 100.0 16.1 L 103.1 16.9 L 106.1 18.2 L 108.9 19.9 L 111.6 22.1 L 114.2 24.6 L 116.6 27.5 L 118.8 30.8 L 120.8 34.4 L 122.6 38.2 L 122.2 42.8 L 118.7 45.8 L 114.2 45.4 L 111.2 41.9 L 110.3 38.5 Z " />
</g>
</svg>
