<svg xmlns="http://www.w3.org/2000/svg" xmlns:xlink="http://www.w3.org/1999/xlink" version="1.1" baseProfile="full" viewBox="0 0 200 200" width="200" height="200">
<g fill="black">
<path d="M 137.2 176.0 L 153.2 176.0 L 154.5 175.9 L 155.4 175.7 L 156.3 175.4 L 156.5 175.2 L 156.6 175.0 L 156.8 174.7 L 157.0 174.1 L 157.2 173.2 L 157.2 115.0 L 103.6 115.0 L 103.6 111.0 L 157.2 111.0 L 157.2 86.0 L 169.2 88.0 L 172.2 90.0 L 169.2 91.8 L 169.2 111.0 L 173.1777777671814 111.0 L 179.4 104.0 L 187.4 111.0 L 187.4 115.0 L 169.2 115.0 L 169.2 172.0 L 169.1 174.5 L 168.7 177.0 L 167.8 179.4 L 166.6 181.7 L 165.0 183.7 L 163.0 185.3 L 160.7 186.6 L 158.3 187.4 L 155.8 187.8 L 153.2 188.0 L 153.2 182.0 L 137.2 179.0 Z M 64.8 58.4 L 66.7 61.5 L 62.96506719589233 61.88637237548828 L 60.8 66.0 L 56.5 73.3 L 52.0 80.4 L 47.3 87.2 L 42.4 93.9 L 40.69488372802734 95.96581392288208 L 46.9 97.0 L 49.9 99.0 L 46.9 100.8 L 46.9 182.0 L 34.9 188.0 L 34.9 102.7981481552124 L 31.8 106.3 L 26.1 112.1 L 20.2 117.5 L 13.8 122.6 L 12.6 121.3 L 17.4 114.9 L 22.1 108.6 L 26.7 102.2 L 31.2 95.7 L 35.4 89.0 L 39.5 82.2 L 43.4 75.2 L 47.1 68.1 L 50.6 60.8 L 53.57873373031616 54.229263877868654 L 53.5 54.2 L 54.5 52.1 Z M 109.9 58.3 L 111.8 61.4 L 108.07874240875245 61.849117279052734 L 106.0 65.9 L 101.9 73.2 L 97.6 80.3 L 93.0 87.2 L 88.3 93.8 L 86.59493083953858 95.98248844146728 L 92.7 97.0 L 95.7 99.0 L 92.7 100.8 L 92.7 182.0 L 80.7 188.0 L 80.7 103.25 L 78.1 106.3 L 72.6 112.1 L 66.8 117.5 L 60.7 122.6 L 59.4 121.3 L 64.0 115.0 L 68.5 108.6 L 72.9 102.2 L 77.2 95.7 L 81.2 89.1 L 85.1 82.3 L 88.9 75.3 L 92.4 68.2 L 95.8 60.9 L 98.5244535446167 54.308580207824704 L 98.5 54.3 L 98.71212120056153 53.854545497894286 L 98.9 53.4 L 98.92357139587402 53.41049995422363 L 99.5 52.2 Z M 126.1 151.3 L 124.7 148.2 L 123.2 145.3 L 121.5 142.4 L 117.7 137.0 L 115.6 134.3 L 113.3 131.6 L 110.8 129.2 L 111.7 127.7 L 115.0 129.3 L 118.4 130.9 L 121.5 132.8 L 124.5 134.9 L 127.4 137.4 L 130.1 140.0 L 132.7 142.9 L 135.2 146.0 L 137.4 149.3 L 139.5 152.7 L 139.6 157.3 L 136.5 160.7 L 132.0 160.8 L 128.6 157.7 L 127.4 154.4 Z M 102.8 78.0 L 138.4 78.0 L 138.4 47.0 L 107.4 47.0 L 107.4 43.0 L 138.4 43.0 L 138.4 13.0 L 150.4 15.0 L 153.4 17.0 L 150.4 18.8 L 150.4 43.0 L 159.3 43.0 L 169.3 33.0 L 181.3 43.0 L 181.3 47.0 L 150.4 47.0 L 150.4 78.0 L 166.9 78.0 L 176.9 68.0 L 188.9 78.0 L 188.9 82.0 L 102.8 82.0 Z M 58.9 20.5 L 60.7 23.6 L 57.006740951538085 23.91838436126709 L 55.3 27.0 L 51.5 33.3 L 47.6 39.4 L 43.5 45.2 L 39.3 50.8 L 35.0 56.2 L 30.4 61.3 L 25.7 66.1 L 20.8 70.5 L 15.6 74.6 L 14.3 73.3 L 18.0 68.0 L 21.6 62.6 L 25.3 57.2 L 28.8 51.7 L 32.3 46.0 L 35.7 40.2 L 39.0 34.2 L 42.1 28.1 L 45.2 21.7 L 47.68388814926148 16.13266439437866 L 47.6 16.1 L 48.6 14.1 Z M 104.2 20.4 L 106.0 23.5 L 102.3261236190796 23.880056190490723 L 100.7 26.9 L 97.0 33.2 L 93.3 39.3 L 89.4 45.2 L 85.3 50.8 L 81.1 56.1 L 76.8 61.2 L 72.2 66.0 L 67.5 70.5 L 62.5 74.6 L 61.1 73.3 L 68.1 62.7 L 71.5 57.3 L 74.9 51.7 L 78.2 46.1 L 81.5 40.3 L 84.6 34.3 L 87.6 28.2 L 90.5 21.8 L 92.91060905456543 16.203943157196044 L 92.9 16.2 L 93.18800001144409 15.560000038146972 L 93.3 15.3 L 93.30413036346435 15.301932525634765 L 93.8 14.2 Z " />
</g>
</svg>
