<svg xmlns="http://www.w3.org/2000/svg" xmlns:xlink="http://www.w3.org/1999/xlink" version="1.1" baseProfile="full" viewBox="0 0 200 200" width="200" height="200">
<g fill="black">
<path d="M 67.2 54.9 L 69.1 57.9 L 65.4358603477478 58.342223739624025 L 63.1 62.9 L 58.7 70.6 L 54.1 78.0 L 49.2 85.1 L 44.52687225341797 91.12114534378051 L 49.2 91.9 L 52.2 93.9 L 49.2 95.7 L 49.2 179.8 L 37.2 185.8 L 37.2 99.77368421554566 L 32.9 104.3 L 26.9 110.0 L 20.6 115.2 L 14.0 119.9 L 12.8 118.5 L 18.0 112.4 L 23.1 106.3 L 28.0 100.0 L 32.7 93.5 L 37.2 86.9 L 41.4 80.0 L 45.5 72.9 L 49.3 65.5 L 52.9 57.9 L 55.820976161956786 50.9073600769043 L 55.8 50.9 L 55.99587631225586 50.48865976333618 L 56.2 50.0 L 56.223571395874025 50.01049995422363 L 56.8 48.8 Z M 61.5 170.8 L 66.5 170.4 L 71.2 169.9648148536682 L 71.2 122.7 L 82.2 124.7 L 84.9 126.7 L 82.2 128.42340421676636 L 82.2 168.93999996185303 L 83.6 168.8 L 90.0 168.1 L 92.5 167.79696969985963 L 92.5 107.0 L 63.0 107.0 L 63.0 103.0 L 73.0 103.0 L 73.0 22.0 L 85.0 28.0 L 107.0 28.0 L 117.0 18.0 L 129.0 28.0 L 129.0 32.0 L 85.0 32.0 L 85.0 53.0 L 106.81818180084228 53.0 L 115.0 44.0 L 125.0 53.0 L 125.0 57.0 L 85.0 57.0 L 85.0 78.0 L 107.81818180084228 78.0 L 116.0 69.0 L 126.0 78.0 L 126.0 82.0 L 85.0 82.0 L 85.0 103.0 L 114.0 103.0 L 124.0 93.0 L 136.0 103.0 L 136.0 107.0 L 106.2 107.0 L 103.5 108.72340421676635 L 103.5 133.0 L 109.4777777671814 133.0 L 115.7 126.0 L 123.7 133.0 L 123.7 137.0 L 103.5 137.0 L 103.5 166.5114285469055 L 103.6 166.5 L 110.8 165.6 L 118.5 164.9 L 126.5 164.2 L 126.8 166.0 L 119.3 168.6 L 111.9 170.9 L 104.8 172.9 L 98.0 174.7 L 91.5 176.4 L 85.2 177.9 L 79.2 179.3 L 73.5 180.6 L 68.1 181.7 L 67.12767944335937 181.89065113067628 L 65.4 185.4 L 63.0 182.7 L 59.5 171.0 Z M 182.6 146.3 L 184.6 146.3 L 182.6 171.3 L 186.2 173.7 L 188.6 177.3 L 186.2 180.9 L 182.6 183.3 L 168.5 183.3 L 165.9 183.2 L 163.4 182.7 L 161.0 181.9 L 158.7 180.7 L 156.7 179.0 L 155.1 177.0 L 153.8 174.8 L 153.0 172.4 L 152.6 169.9 L 152.5 167.3 L 152.5 128.82068967819214 L 151.2 135.5 L 147.6 148.7 L 143.3 160.2 L 138.2 169.9 L 132.4 177.9 L 125.8 184.0 L 118.6 187.9 L 117.8 186.4 L 123.3 181.2 L 128.1 174.7 L 132.4 166.8 L 136.2 157.4 L 139.4 146.3 L 142.1 133.6 L 144.1 119.2 L 145.6 103.1 L 146.5 85.4 L 146.67846155166626 68.0 L 129.1 68.0 L 129.1 64.0 L 146.7 64.0 L 146.7 15.7 L 158.7 17.7 L 161.7 19.7 L 158.7 21.5 L 158.7 64.0 L 162.9 64.0 L 172.9 54.0 L 184.9 64.0 L 184.9 68.0 L 158.61363639831544 68.0 L 157.8 85.9 L 157.5086720466614 89.43477869033813 L 164.5 90.6 L 167.5 92.6 L 164.5 94.4 L 164.5 168.5 L 164.7 169.4 L 164.9 170.0 L 165.0 170.4 L 165.2 170.6 L 165.4 170.7 L 165.7 170.9 L 166.3 171.1 L 167.2 171.2 L 168.5 171.3 L 176.6 171.3 Z M 57.0 22.7 L 58.8 25.8 L 55.058874416351316 26.122510814666747 L 53.2 29.4 L 49.4 35.8 L 45.5 41.7 L 41.5 47.3 L 37.4 52.5 L 33.2 57.2 L 28.9 61.5 L 24.5 65.4 L 19.9 68.7 L 15.2 71.4 L 14.1 70.0 L 17.4 65.9 L 20.7 61.6 L 24.0 57.2 L 27.3 52.5 L 30.5 47.5 L 33.8 42.1 L 36.9 36.5 L 40.1 30.5 L 43.2 24.2 L 45.86666669845581 18.24444446563721 L 46.7 16.3 Z M 166.5 43.8 L 166.2 41.2 L 165.8 38.8 L 165.3 36.5 L 164.7 34.4 L 164.0 32.4 L 162.4 28.4 L 161.0 26.9 L 162.1 25.5 L 164.0 26.7 L 166.1 27.8 L 168.2 29.3 L 170.1 31.1 L 171.9 33.2 L 173.5 35.5 L 175.0 38.1 L 176.4 40.9 L 177.6 43.9 L 178.8 47.2 L 177.7 51.6 L 173.9 54.2 L 169.5 53.2 L 167.0 49.4 L 166.8 46.5 Z " />
</g>
</svg>
