<svg xmlns="http://www.w3.org/2000/svg" xmlns:xlink="http://www.w3.org/1999/xlink" version="1.1" baseProfile="full" viewBox="0 0 200 200" width="200" height="200">
<g fill="black">
<path d="M 68.3 58.6 L 70.0 61.7 L 66.3329659461975 61.95289888381958 L 63.9 66.1 L 59.2 73.5 L 54.3 80.6 L 49.1 87.4 L 43.7 94.0 L 42.03272724151611 95.90545454025269 L 48.6 97.0 L 51.6 99.0 L 48.6 100.8 L 48.6 182.0 L 36.6 188.0 L 36.6 101.92542371749877 L 32.2 106.4 L 26.0 112.2 L 19.5 117.6 L 12.7 122.6 L 11.4 121.3 L 16.9 114.9 L 22.1 108.5 L 27.3 102.0 L 32.2 95.5 L 37.0 88.8 L 41.6 82.0 L 45.9 75.0 L 50.0 67.9 L 53.9 60.6 L 57.6 53.1 L 57.63977699279785 53.12044610977173 L 58.2 52.0 Z M 184.0 144.0 L 186.0 144.0 L 184.0 169.0 L 187.6 171.4 L 190.0 175.0 L 187.6 178.6 L 184.0 181.0 L 168.7 181.0 L 166.2 180.8 L 163.7 180.4 L 161.3 179.6 L 159.0 178.3 L 157.0 176.7 L 155.3 174.7 L 154.1 172.4 L 153.3 170.0 L 152.9 167.5 L 152.7 165.0 L 152.7 109.0 L 146.57741937637329 109.0 L 148.1 109.4 L 150.9 111.6 L 147.61502590179444 113.24248704910278 L 146.8 119.7 L 145.2 129.6 L 143.2 138.9 L 140.7 147.7 L 137.9 156.0 L 134.6 163.8 L 130.9 170.9 L 126.7 177.5 L 122.0 183.4 L 116.9 188.5 L 115.5 187.4 L 118.9 181.2 L 122.1 174.8 L 125.0 168.1 L 127.5 160.9 L 129.8 153.4 L 131.8 145.4 L 133.4 136.9 L 134.6 127.9 L 135.5 118.5 L 136.04001979827882 109.49966926574707 L 136.0 109.5 L 136.046875 109.0 L 117.13000001907349 109.0 L 117.4 109.9 L 116.4 114.4 L 112.6 116.9 L 108.1 115.9 L 105.6 112.1 L 105.3 108.3 L 104.8 104.6 L 104.79343061447143 104.55401458740235 L 102.1 106.2 L 98.3 108.2 L 97.9 108.4 L 97.9 183.0 L 85.9 189.0 L 85.9 131.75 L 84.72745094299316 132.33627452850342 L 84.5 133.9 L 83.5 139.4 L 82.4 144.8 L 81.0 150.2 L 79.4 155.4 L 77.6 160.6 L 75.6 165.7 L 73.4 170.7 L 70.8 175.6 L 67.8 180.3 L 66.2 179.6 L 67.2 174.3 L 68.3 169.0 L 70.3 158.6 L 71.1 153.5 L 71.9 148.3 L 72.5 143.1 L 72.9 137.9 L 73.2 132.7 L 73.36155815124512 128.4994870185852 L 73.3 128.5 L 73.5 125.3 L 85.3 128.4 L 85.9 128.8551724433899 L 85.9 113.65609760284424 L 82.5 114.9 L 74.3 117.5 L 74.23698301315308 117.51800489425659 L 72.6 121.3 L 70.1 118.7 L 66.0 107.2 L 67.9 106.9 L 76.1 105.9 L 77.88717947006225 105.6384614944458 L 79.0 102.3 L 81.7 95.1 L 84.4 88.0 L 87.1 80.8 L 88.83999996185302 76.22444448471069 L 85.4 78.9 L 80.8 78.2 L 78.1 74.6 L 77.6 71.4 L 76.9 68.3 L 76.2 65.3 L 75.3 62.4 L 74.3 59.6 L 73.2 56.8 L 71.9 54.1 L 69.1 48.7 L 67.2 46.3 L 68.3 44.9 L 71.0 46.8 L 73.7 48.6 L 76.3 50.7 L 77.9039216041565 52.30392160415649 L 78.1 51.5 L 79.1 47.3 L 80.2 43.3 L 81.3 39.2 L 82.4 35.2 L 83.6 31.1 L 84.7 27.1 L 85.8 23.0 L 86.9 19.0 L 87.65279579162598 15.913537406921387 L 87.6 15.9 L 87.80909090042114 15.272727298736573 L 87.9 14.9 L 87.92984294891357 14.91047124862671 L 88.4 13.5 L 99.3 18.9 L 101.5 21.7 L 97.63183860778808 22.514349746704102 L 93.9 30.6 L 92.0 34.4 L 90.0 38.2 L 87.9 42.0 L 85.8 45.7 L 83.5 49.3 L 79.91205167770386 54.53242464065552 L 80.9 55.7 L 83.0 58.5 L 84.9 61.5 L 86.7 64.7 L 88.3 68.0 L 89.7 71.5 L 89.07516775131225 75.60604028701782 L 92.5 66.6 L 97.9 52.2 L 100.5 44.9 L 102.67920236587524 38.62389726638794 L 102.6 38.6 L 103.5 36.3 L 114.2 42.1 L 116.2 45.0 L 112.60901527404785 45.6299973487854 L 107.8 56.3 L 104.5 63.3 L 101.1 70.3 L 97.6 77.2 L 94.0 84.0 L 90.3 90.8 L 86.5 97.4 L 82.5 104.0 L 81.7864465713501 105.06203298568725 L 84.2 104.7 L 88.2 104.0 L 92.3 103.3 L 96.3 102.5 L 100.4 101.7 L 104.28726415634155 101.03632078170776 L 103.6 97.6 L 102.9 94.4 L 102.1 91.2 L 101.2 88.1 L 100.3 85.1 L 99.3 82.1 L 98.0 79.3 L 99.4 78.2 L 101.7 80.5 L 104.1 82.8 L 106.2 85.5 L 108.3 88.4 L 110.1 91.5 L 111.9 94.8 L 113.5 98.3 L 114.9 102.0 L 116.2 105.9 L 116.9 108.23333330154419 L 116.9 105.0 L 144.1 105.0 L 144.1 79.0 L 127.0 79.0 L 127.0 75.0 L 144.1 75.0 L 144.1 51.0 L 119.8 51.0 L 119.8 47.0 L 138.75384616851807 47.0 L 137.4 46.6 L 135.1 42.7 L 135.2 39.9 L 135.1 37.2 L 135.0 34.6 L 134.6 29.6 L 134.2 27.2 L 133.4 22.6 L 132.9 20.3 L 131.9 18.3 L 133.4 17.2 L 134.9 19.0 L 136.8 20.7 L 138.5 22.7 L 140.1 24.8 L 141.6 27.2 L 142.9 29.7 L 144.1 32.4 L 145.2 35.2 L 146.2 38.2 L 147.0 41.3 L 145.7 45.6 L 143.32608699798584 47.0 L 156.04594593048097 47.0 L 156.5 44.9 L 157.0 41.2 L 157.6 37.7 L 158.2 34.3 L 158.8 31.0 L 159.4 27.8 L 159.9 24.7 L 160.4 21.7 L 161.21679391860962 17.125954151153564 L 161.1 17.1 L 161.8 14.6 L 172.8 19.7 L 175.1 22.5 L 170.9960000038147 23.507999992370607 L 170.3 24.9 L 169.0 27.7 L 167.6 30.5 L 166.1 33.4 L 164.5 36.4 L 162.9 39.5 L 161.1 42.7 L 159.1 45.9 L 158.55 47.0 L 165.37777776718139 47.0 L 171.6 40.0 L 179.6 47.0 L 179.6 51.0 L 156.1 51.0 L 156.1 75.0 L 161.0777777671814 75.0 L 167.3 68.0 L 175.3 75.0 L 175.3 79.0 L 156.1 79.0 L 156.1 105.0 L 164.9 105.0 L 174.9 95.0 L 186.9 105.0 L 186.9 109.0 L 164.7 109.0 L 164.7 165.0 L 164.8 166.2 L 165.0 167.1 L 165.3 168.0 L 165.7 168.4 L 166.6 168.7 L 167.5 168.9 L 168.7 169.0 L 178.0 169.0 Z M 104.5 150.6 L 104.0 146.7 L 103.4 143.0 L 102.8 139.4 L 102.1 136.0 L 101.3 132.7 L 100.4 129.4 L 99.6 126.3 L 98.4 123.3 L 99.9 122.3 L 102.1 124.7 L 104.5 127.4 L 106.6 130.3 L 108.5 133.5 L 110.3 136.9 L 111.9 140.5 L 113.4 144.4 L 114.7 148.4 L 116.0 152.7 L 117.1 157.1 L 115.9 161.5 L 112.0 163.9 L 107.6 162.7 L 105.2 158.8 L 104.9 154.6 Z M 61.7 20.7 L 63.4 23.8 L 59.673698616027835 23.992739772796632 L 57.7 27.2 L 53.6 33.5 L 49.4 39.6 L 44.9 45.4 L 40.3 51.0 L 35.6 56.3 L 30.7 61.4 L 25.6 66.2 L 20.2 70.6 L 14.6 74.6 L 13.4 73.3 L 25.7 57.1 L 29.7 51.5 L 33.6 45.9 L 37.3 40.0 L 41.0 34.0 L 44.5 27.9 L 47.9 21.5 L 51.1 15.0 L 51.15743036270142 15.030882358551025 L 51.7 14.0 Z " />
</g>
</svg>
