<svg xmlns="http://www.w3.org/2000/svg" xmlns:xlink="http://www.w3.org/1999/xlink" version="1.1" baseProfile="full" viewBox="0 0 200 200" width="200" height="200">
<g fill="black">
<path d="M 179.8 157.4 L 178.3 159.4 L 176.5 161.1 L 174.6 162.6 L 172.4 163.9 L 170.2 164.8 L 167.8 165.4 L 165.3 165.8 L 162.8 166.0 L 162.8 160.0 L 152.8 157.0 L 152.8 154.0 L 162.8 154.0 L 164.1 153.9 L 165.3 153.7 L 166.3 153.4 L 167.1 153.1 L 167.9 152.7 L 168.6 152.1 L 169.2 151.5 L 169.8 150.7 L 170.4 149.6 L 171.0 148.4 L 171.7 146.4 L 172.4 143.6 L 173.1 140.1 L 173.7 136.0 L 174.2 131.3 L 174.6 126.0 L 174.9 120.1 L 175.2 113.7 L 175.3 106.6 L 175.37368421554567 101.0 L 134.5 101.0 L 134.5 183.0 L 122.5 189.0 L 122.5 121.1 L 122.4 121.3 L 117.0 130.3 L 111.3 138.7 L 105.1 146.3 L 98.6 153.2 L 91.7 159.4 L 84.5 164.8 L 76.8 169.2 L 68.8 172.7 L 68.0 171.2 L 74.8 166.0 L 81.2 160.5 L 87.3 154.6 L 93.1 148.1 L 98.5 141.1 L 103.6 133.4 L 108.4 125.2 L 112.8 116.4 L 116.9 106.9 L 119.06582279205323 101.0 L 90.54003658294678 101.0 L 88.2 113.8 L 75.3 117.5 L 87.5 51.0 L 96.6049527168274 57.892534255981445 L 103.2 56.2 L 113.8 53.3 L 122.5 50.86400003433228 L 122.5 16.0 L 134.5 18.0 L 137.5 20.0 L 134.5 21.8 L 134.5 47.10588235855103 L 141.6 44.6 L 149.4 41.4 L 156.5 38.1 L 162.9 34.7 L 168.6 31.2 L 172.737717628479 28.244487380981447 L 172.7 28.2 L 172.73827514648437 28.244089126586914 L 173.5 27.7 L 179.5796597480774 36.12467126846313 L 180.6 37.3 L 180.7 40.9 L 177.1392590522766 39.383388137817384 L 174.4 41.0 L 167.8 44.3 L 160.6 47.3 L 152.7 50.1 L 144.2 52.6 L 135.1 54.9 L 134.5 55.022449016571045 L 134.5 97.0 L 175.4 97.0 L 181.4 92.0 L 192.4 101.0 L 187.4 104.0 L 187.33471164703369 104.02720346450806 L 187.3 106.7 L 187.2 114.0 L 186.9 120.7 L 186.6 126.8 L 186.1 132.4 L 185.6 137.5 L 184.9 142.1 L 184.1 146.2 L 183.2 149.8 L 182.1 153.0 L 181.0 155.3 Z M 73.9 58.9 L 75.5 62.1 L 71.72399997711182 62.164000034332275 L 68.9 66.4 L 63.6 73.7 L 58.0 80.8 L 52.1 87.6 L 46.0 94.2 L 44.34932126998901 95.82488689422607 L 51.4 97.0 L 54.4 99.0 L 51.4 100.8 L 51.4 182.0 L 39.4 188.0 L 39.4 100.68208951950074 L 32.9 106.6 L 26.0 112.3 L 18.6 117.7 L 10.9 122.7 L 9.8 121.2 L 16.2 114.8 L 22.4 108.4 L 28.4 101.9 L 34.1 95.3 L 39.7 88.6 L 45.0 81.8 L 50.0 74.8 L 54.8 67.6 L 59.3 60.3 L 63.13225746154785 53.61583003997803 L 63.1 53.6 L 64.1 51.9 Z M 114.9 58.6 L 103.8 59.9 L 97.97178716659546 60.34832410812378 L 91.27129802703857 97.0 L 122.5 97.0 L 122.5 57.357692337036134 Z M 66.4 20.9 L 67.9 24.2 L 64.15 24.2 L 61.9 27.5 L 57.2 33.7 L 52.3 39.8 L 47.3 45.6 L 42.1 51.2 L 36.8 56.5 L 31.2 61.6 L 25.5 66.3 L 19.4 70.7 L 13.2 74.6 L 12.0 73.3 L 16.9 67.8 L 21.8 62.4 L 26.6 56.9 L 31.2 51.3 L 35.7 45.6 L 40.1 39.8 L 44.3 33.8 L 48.4 27.6 L 52.4 21.2 L 55.63473052978516 15.517365264892579 L 55.6 15.5 L 55.97093019485474 14.926744174957275 L 56.1 14.7 L 56.112700366973876 14.707644844055176 L 56.7 13.8 Z " />
</g>
</svg>
