<svg xmlns="http://www.w3.org/2000/svg" xmlns:xlink="http://www.w3.org/1999/xlink" version="1.1" baseProfile="full" viewBox="0 0 200 200" width="200" height="200">
<g fill="black">
<path d="M 79.3 59.0 L 80.8 62.3 L 77.00179290771484 62.234513664245604 L 73.9 66.6 L 68.2 73.9 L 62.2 80.9 L 56.0 87.8 L 49.4 94.3 L 47.77919464111328 95.77986574172974 L 55.1 97.0 L 58.1 99.0 L 55.1 100.8 L 55.1 182.0 L 43.1 188.0 L 43.1 100.05217390060425 L 42.5 100.6 L 35.3 106.7 L 27.8 112.4 L 20.0 117.7 L 11.7 122.7 L 10.7 121.2 L 17.6 114.8 L 24.4 108.3 L 30.9 101.8 L 37.2 95.2 L 43.2 88.5 L 49.0 81.6 L 54.5 74.6 L 59.7 67.4 L 64.6 60.1 L 68.70704917907715 53.403724098205565 L 68.7 53.4 L 69.7 51.8 Z M 183.7 186.1 L 167.6 185.4 L 153.0 183.8 L 139.8 181.3 L 128.0 178.0 L 117.8 173.8 L 109.0 168.7 L 101.9 162.7 L 96.5 155.8 L 93.87889366149902 150.26655321121217 L 93.0 153.4 L 90.3 160.8 L 87.0 167.5 L 83.3 173.5 L 79.2 178.6 L 74.5 182.8 L 69.4 186.0 L 68.3 184.6 L 71.8 180.2 L 74.9 175.4 L 77.7 170.1 L 80.1 164.3 L 82.3 158.0 L 84.0 150.9 L 85.4 143.3 L 86.5 134.9 L 87.2 125.9 L 87.46916131973266 117.19711828231812 L 87.4 117.2 L 87.6 114.0 L 99.4 116.7 L 102.4 118.9 L 99.05251922607422 120.63811502456664 L 98.5 126.9 L 97.1 136.4 L 95.52739477157593 144.08829250335694 L 96.7 146.4 L 101.2 152.3 L 106.7 157.3 L 113.4 161.7 L 121.5 165.3 L 123.5 165.93157892227174 L 123.5 80.0 L 72.0 80.0 L 72.0 76.0 L 124.0 76.0 L 124.0 11.0 L 136.0 13.0 L 139.0 15.0 L 136.0 16.8 L 136.0 72.0 L 128.0 76.0 L 164.0 76.0 L 174.0 66.0 L 186.0 76.0 L 186.0 80.0 L 125.9 80.0 L 135.5 81.6 L 138.5 83.6 L 135.5 85.4 L 135.5 121.3 L 157.11818180084228 121.3 L 165.3 112.3 L 175.3 121.3 L 175.3 125.3 L 135.5 125.3 L 135.5 169.20825691223143 L 141.9 170.5 L 154.4 172.1 L 168.3 172.9 L 195.6 172.9 Z M 71.2 21.1 L 72.6 24.4 L 68.85835485458374 24.270977783203126 L 66.4 27.6 L 61.3 33.9 L 56.1 39.9 L 50.7 45.7 L 45.2 51.3 L 39.4 56.6 L 33.5 61.6 L 27.3 66.4 L 20.9 70.7 L 14.2 74.7 L 13.1 73.2 L 18.5 67.8 L 23.8 62.3 L 29.0 56.8 L 34.1 51.2 L 39.0 45.5 L 43.7 39.6 L 48.4 33.6 L 52.8 27.4 L 57.1 21.0 L 61.2 14.5 L 61.7 13.7 Z M 178.8 27.7 L 180.5 30.8 L 176.51166286468506 31.006293296813965 L 174.6 33.7 L 172.2 37.1 L 169.5 40.7 L 166.6 44.5 L 163.5 48.5 L 160.0 52.7 L 156.3 57.2 L 152.2 61.7 L 147.7 66.5 L 146.2 65.4 L 149.1 59.6 L 151.9 54.2 L 154.6 49.1 L 157.2 44.3 L 159.5 39.9 L 161.7 35.7 L 163.7 31.9 L 165.4 28.3 L 166.9 25.0 L 167.79264039993285 22.940060710906984 L 167.7 22.9 L 168.7 21.0 Z M 99.3 54.3 L 98.0 50.5 L 96.5 46.8 L 94.7 43.1 L 92.8 39.4 L 90.6 35.7 L 88.3 31.9 L 85.8 28.1 L 83.1 24.3 L 84.3 23.0 L 88.2 25.8 L 92.0 28.7 L 95.4 31.8 L 98.6 35.2 L 101.6 38.7 L 104.3 42.4 L 106.8 46.1 L 109.0 50.1 L 111.1 54.1 L 112.8 58.3 L 112.3 62.9 L 108.8 65.8 L 104.3 65.3 L 101.3 61.8 L 100.4 58.0 Z " />
</g>
</svg>
