<svg xmlns="http://www.w3.org/2000/svg" xmlns:xlink="http://www.w3.org/1999/xlink" version="1.1" baseProfile="full" viewBox="0 0 200 200" width="200" height="200">
<g fill="black">
<path d="M 164.8 173.5 L 158.6 166.5 L 153.64695844650268 159.47568645477295 L 148.5 166.0 L 140.7 173.8 L 132.3 180.2 L 123.3 185.2 L 113.8 188.8 L 113.1 187.1 L 121.4 181.9 L 129.1 175.9 L 136.1 169.1 L 142.6 161.2 L 148.5 152.4 L 149.0174364089966 151.4513666152954 L 148.2 150.0 L 143.9 140.5 L 140.3 130.1 L 137.4 119.0 L 135.2 107.0 L 133.89767446517945 95.0 L 127.7 95.0 L 127.7 91.0 L 146.2 91.0 L 146.2 14.0 L 158.2 16.0 L 161.2 18.0 L 158.2 19.8 L 158.2 50.0 L 173.2777777671814 50.0 L 179.5 43.0 L 187.5 50.0 L 187.5 54.0 L 158.2 54.0 L 158.2 91.0 L 169.6 91.0 L 175.6 86.0 L 186.6 95.0 L 181.6 98.0 L 180.29186487197876 98.54505634307861 L 177.6 109.1 L 173.1 122.8 L 167.9 135.4 L 162.1 146.8 L 159.80951156616212 150.3943049430847 L 161.5 152.8 L 167.0 159.3 L 172.8 164.8 L 179.0 169.4 L 185.6 173.2 L 190.5 175.8 L 179.2 184.7 L 171.7 179.6 Z M 96.2 148.7 L 98.5 151.4 L 94.74153003692626 152.38907108306884 L 94.5 153.0 L 92.5 157.2 L 90.4 161.4 L 88.0 165.6 L 85.5 169.6 L 82.7 173.6 L 79.8 177.5 L 76.6 181.3 L 73.1 185.0 L 69.4 188.5 L 67.9 187.4 L 70.2 182.9 L 72.3 178.5 L 74.4 174.2 L 76.3 169.9 L 78.1 165.7 L 79.8 161.6 L 81.3 157.4 L 82.6 153.3 L 83.7 149.2 L 84.47108430862427 146.1156626701355 L 84.4 146.1 L 85.2 143.6 Z M 69.4 58.7 L 71.0 61.9 L 67.29833021163941 62.02764377593994 L 64.6 66.3 L 59.7 73.6 L 54.5 80.7 L 49.0 87.5 L 43.2 94.1 L 41.51506853103638 95.86917810440063 L 48.3 97.0 L 51.3 99.0 L 48.3 100.8 L 48.3 182.0 L 36.3 188.0 L 36.3 101.28548383712769 L 31.0 106.5 L 24.4 112.3 L 17.5 117.7 L 10.3 122.6 L 9.1 121.3 L 15.0 114.8 L 20.7 108.4 L 26.2 102.0 L 31.6 95.4 L 36.7 88.7 L 41.6 81.9 L 46.3 74.9 L 50.7 67.7 L 54.9 60.4 L 58.8 52.9 L 58.85720891952515 52.93130302429199 L 59.4 51.9 Z M 112.5 167.1 L 111.8 164.4 L 110.9 161.6 L 109.9 158.9 L 108.8 156.1 L 106.2 150.7 L 104.8 147.9 L 102.9 145.3 L 104.2 144.0 L 106.7 146.1 L 109.4 148.0 L 111.9 150.1 L 114.3 152.5 L 116.4 154.9 L 118.5 157.6 L 120.4 160.3 L 122.1 163.2 L 123.7 166.2 L 125.1 169.4 L 124.6 173.9 L 121.1 176.8 L 116.6 176.3 L 113.6 172.8 L 113.1 169.9 Z M 139.2 106.0 L 143.0 117.3 L 147.1 127.7 L 151.5 137.0 L 154.22164945602418 141.76288661956787 L 158.7 131.5 L 162.9 119.3 L 166.6 106.1 L 168.9895833015442 95.0 L 135.95409832000732 95.0 Z M 85.4 22.5 L 109.6 22.5 L 115.6 17.5 L 126.6 26.5 L 121.6 30.5 L 121.6 134.8 L 109.6 140.8 L 109.6 134.8 L 85.4 134.8 L 73.4 140.8 L 73.4 16.5 Z M 85.4 97.2 L 85.4 130.8 L 109.6 130.8 L 109.6 97.2 Z M 85.4 61.8 L 85.4 93.2 L 109.6 93.2 L 109.6 61.8 Z M 62.3 20.8 L 64.0 24.0 L 60.19058790206909 24.064566326141357 L 58.1 27.3 L 53.7 33.6 L 49.2 39.7 L 44.5 45.5 L 39.6 51.1 L 34.6 56.4 L 29.3 61.5 L 23.9 66.2 L 18.3 70.6 L 12.4 74.6 L 11.2 73.3 L 15.7 67.9 L 20.1 62.5 L 24.5 57.0 L 28.8 51.4 L 33.0 45.7 L 37.1 39.9 L 41.0 33.9 L 44.8 27.7 L 48.4 21.4 L 51.41820917129517 15.708519840240479 L 51.4 15.7 L 51.571875 15.41875 L 51.9 14.8 L 51.936966800689696 14.821327018737794 L 52.5 13.9 Z M 85.4 26.5 L 85.4 57.8 L 109.6 57.8 L 109.6 26.5 Z " />
</g>
</svg>
