<svg xmlns="http://www.w3.org/2000/svg" xmlns:xlink="http://www.w3.org/1999/xlink" version="1.1" baseProfile="full" viewBox="0 0 200 200" width="200" height="200">
<g fill="black">
<path d="M 162.5 183.1 L 158.2 180.9 L 153.2 178.7 L 147.6 176.5 L 141.4 174.4 L 134.7 172.2 L 127.3 170.1 L 119.3 167.8 L 110.8 165.4 L 111.1 163.6 L 120.0 164.1 L 128.3 164.8 L 136.1 165.8 L 143.3 167.0 L 150.0 168.4 L 156.2 169.9 L 161.8 171.5 L 166.9 173.3 L 171.6 175.3 L 175.8 177.4 L 178.3 181.3 L 177.4 185.8 L 173.6 188.3 L 169.1 187.4 L 166.1 185.3 Z M 79.80806589126587 162.35455331802368 L 86.4 168.8 L 86.6 172.1 L 82.86105260848998 170.54210529327392 L 79.2 172.1 L 74.1 174.0 L 68.5 175.9 L 62.4 177.7 L 55.8 179.6 L 48.7 181.3 L 41.1 183.0 L 33.0 184.7 L 24.4 186.1 L 15.2 187.3 L 14.7 185.6 L 23.4 182.4 L 31.6 179.5 L 39.3 176.7 L 46.5 174.1 L 53.2 171.5 L 59.3 169.0 L 64.9 166.5 L 69.9 164.1 L 74.4 161.8 L 77.41435403823853 160.02230405807495 L 77.4 160.0 L 77.41962919235229 160.01919298171998 L 78.3 159.5 Z M 56.0 100.7 L 144.0 100.7 L 150.0 95.7 L 161.0 104.7 L 156.0 108.7 L 156.0 156.9 L 144.0 162.9 L 144.0 156.9 L 56.0 156.9 L 56.0 159.9 L 44.0 165.9 L 44.0 94.7 Z M 56.0 139.5 L 56.0 152.9 L 144.0 152.9 L 144.0 139.5 Z M 56.0 122.1 L 56.0 135.5 L 144.0 135.5 L 144.0 122.1 Z M 56.0 104.7 L 56.0 118.1 L 144.0 118.1 L 144.0 104.7 Z M 142.5 85.9 L 160.5 85.9 L 161.7 85.8 L 162.6 85.6 L 163.5 85.3 L 163.9 84.9 L 164.2 84.0 L 164.4 83.1 L 164.5 81.9 L 164.5 54.3 L 85.5 54.3 L 85.5 90.7 L 73.5 96.7 L 73.5 44.3 L 85.5 50.3 L 87.8 50.3 L 87.8 15.0 L 99.8 21.0 L 150.2 21.0 L 156.2 16.0 L 167.2 25.0 L 162.2 29.0 L 162.2 50.3 L 164.5 50.3 L 170.5 45.3 L 181.5 54.3 L 176.5 58.3 L 176.5 81.9 L 176.3 84.4 L 175.9 86.9 L 175.1 89.3 L 173.8 91.6 L 172.2 93.6 L 170.2 95.2 L 167.9 96.5 L 165.5 97.3 L 163.0 97.7 L 160.5 97.9 L 160.5 91.9 L 142.5 88.9 Z M 71.4 37.9 L 71.6 41.5 L 68.04058628082275 40.115783500671384 L 66.7 41.0 L 61.8 44.0 L 56.6 47.0 L 51.1 49.8 L 50.657534217834474 50.0095890045166 L 53.0 50.4 L 56.0 52.4 L 53.0 54.2 L 53.0 88.5 L 41.0 94.5 L 41.0 54.40666666030884 L 39.4 55.1 L 33.1 57.6 L 26.5 60.0 L 19.6 62.1 L 12.3 64.0 L 11.6 62.3 L 18.1 58.6 L 24.3 55.1 L 30.3 51.7 L 36.0 48.3 L 41.4 45.0 L 46.5 41.7 L 51.3 38.4 L 55.8 35.1 L 60.1 31.8 L 63.240078163146975 29.143010711669923 L 63.2 29.1 L 64.0 28.4 Z M 111.5 61.1 L 138.5 61.1 L 144.5 56.1 L 155.5 65.1 L 150.5 69.1 L 150.5 80.8 L 138.5 86.8 L 138.5 80.8 L 111.5 80.8 L 99.5 86.8 L 99.5 55.1 Z M 111.5 65.1 L 111.5 76.8 L 138.5 76.8 L 138.5 65.1 Z M 99.8 25.0 L 99.8 50.3 L 117.7 50.3 L 117.7 27.6 L 129.7 33.6 L 150.2 33.6 L 150.2 25.0 Z M 129.7 37.6 L 129.7 50.3 L 150.2 50.3 L 150.2 37.6 Z M 62.70806589126587 16.854553318023683 L 69.3 23.3 L 69.5 26.6 L 65.77368421554566 25.047368431091307 L 62.9 26.3 L 58.8 27.9 L 54.4 29.5 L 49.9 31.1 L 45.2 32.7 L 40.2 34.2 L 35.0 35.6 L 29.6 36.9 L 23.9 38.1 L 18.0 39.0 L 17.4 37.3 L 22.7 34.5 L 27.8 31.9 L 32.7 29.4 L 37.4 27.1 L 42.0 24.8 L 46.3 22.6 L 50.3 20.4 L 54.2 18.2 L 57.8 16.1 L 60.325734519958495 14.539987468719483 L 60.3 14.5 L 60.3350266456604 14.53424825668335 L 61.2 14.0 Z " />
</g>
</svg>
