<svg xmlns="http://www.w3.org/2000/svg" xmlns:xlink="http://www.w3.org/1999/xlink" version="1.1" baseProfile="full" viewBox="0 0 200 200" width="200" height="200">
<g fill="black">
<path d="M 78.4 59.0 L 79.9 62.3 L 76.11412677764892 62.23472633361816 L 73.1 66.5 L 67.4 73.9 L 61.5 80.9 L 55.3 87.7 L 48.8 94.3 L 47.18385648727417 95.79730939865112 L 54.4 97.0 L 57.4 99.0 L 54.4 100.8 L 54.4 182.0 L 42.4 188.0 L 42.4 100.22941179275513 L 42.0 100.6 L 34.9 106.7 L 27.5 112.4 L 19.7 117.7 L 11.6 122.7 L 10.5 121.2 L 17.4 114.8 L 24.0 108.3 L 30.5 101.8 L 36.7 95.2 L 42.6 88.5 L 48.3 81.6 L 53.7 74.6 L 58.8 67.4 L 63.7 60.1 L 67.7827657699585 53.44331665039063 L 67.7 53.4 L 68.8 51.8 Z M 173.1 145.2 L 174.0 148.6 L 170.19184551239013 147.93190269470216 L 166.5 151.4 L 159.1 157.0 L 150.9 162.2 L 141.7 166.8 L 131.7 170.9 L 120.9 174.6 L 109.1 177.7 L 96.5 180.4 L 83.0 182.4 L 68.6 183.8 L 68.4 182.1 L 82.3 178.7 L 95.3 175.1 L 107.3 171.4 L 118.4 167.4 L 128.5 163.1 L 137.5 158.5 L 145.6 153.6 L 152.7 148.4 L 158.9 143.0 L 163.75714282989503 137.5714285850525 L 164.4 136.8 Z M 108.2 145.5 L 124.2 145.5 L 125.5 145.4 L 126.4 145.2 L 127.3 144.9 L 127.5 144.7 L 127.6 144.5 L 127.8 144.2 L 128.0 143.6 L 128.2 142.7 L 128.2 95.5 L 140.2 97.5 L 143.2 99.5 L 140.2 101.3 L 140.2 141.5 L 140.1 144.0 L 139.7 146.5 L 138.8 148.9 L 137.6 151.2 L 136.0 153.2 L 134.0 154.8 L 131.7 156.1 L 129.3 156.9 L 126.8 157.3 L 124.2 157.5 L 124.2 151.5 L 108.2 148.5 Z M 114.0 119.7 L 116.0 122.6 L 111.77687501907349 123.25531253814697 L 109.9 125.9 L 107.5 128.8 L 104.8 131.6 L 101.8 134.3 L 98.5 136.8 L 95.0 139.2 L 91.2 141.5 L 87.1 143.6 L 82.8 145.7 L 81.8 144.2 L 85.3 141.1 L 88.4 137.9 L 91.2 134.8 L 93.8 131.8 L 96.0 128.8 L 98.0 125.9 L 99.6 123.1 L 101.0 120.4 L 102.1 117.7 L 102.61199026107788 116.03603162765503 L 102.5 116.0 L 103.4 113.8 Z M 173.7 133.4 L 171.8 131.3 L 169.7 129.3 L 167.2 127.2 L 164.5 125.1 L 161.5 122.9 L 158.2 120.6 L 154.7 118.3 L 150.7 116.1 L 151.4 114.5 L 155.8 115.6 L 160.0 116.6 L 164.0 117.8 L 167.7 119.1 L 171.2 120.5 L 174.5 122.0 L 177.6 123.6 L 180.4 125.4 L 183.1 127.2 L 185.5 129.2 L 186.9 133.6 L 185.0 137.7 L 180.6 139.1 L 176.5 137.2 L 175.2 135.3 Z M 141.0 16.0 L 144.0 18.0 L 141.0 19.8 L 141.0 86.0 L 129.0 92.0 L 129.0 32.970769214630124 L 125.41795167922973 31.42773303985596 L 124.2 31.9 L 121.5 32.5 L 118.7 33.0 L 115.8 33.5 L 112.9 33.9 L 110.0 34.2 L 103.8 34.6 L 101.9010989189148 34.65934066772461 L 100.0 35.8 L 100.0 52.0 L 110.77777776718139 52.0 L 117.0 45.0 L 125.0 52.0 L 125.0 56.0 L 100.0 56.0 L 100.0 73.0 L 111.77777776718139 73.0 L 118.0 66.0 L 126.0 73.0 L 126.0 77.0 L 100.0 77.0 L 100.0 89.0 L 88.0 95.0 L 88.0 30.0 L 97.84955749511718 31.64159288406372 L 99.8 30.7 L 102.6 29.4 L 105.3 28.1 L 108.0 26.9 L 110.5 25.7 L 113.0 24.4 L 115.4 23.2 L 117.7 22.0 L 118.9726263999939 21.24799346923828 L 118.9 21.1 L 119.03045063018799 21.213824558258057 L 119.9 20.7 L 120.63468475341797 22.61359748840332 L 129.0 29.912745094299318 L 129.0 14.0 Z M 186.0 34.0 L 181.0 38.0 L 181.0 83.0 L 169.0 89.0 L 169.0 77.0 L 144.0 77.0 L 144.0 73.0 L 169.0 73.0 L 169.0 56.0 L 144.0 56.0 L 144.0 52.0 L 169.0 52.0 L 169.0 34.0 L 144.0 34.0 L 144.0 30.0 L 169.0 30.0 L 175.0 25.0 Z M 70.4 21.1 L 71.8 24.4 L 68.05835485458374 24.270977783203126 L 65.6 27.6 L 60.7 33.9 L 55.5 39.9 L 50.2 45.7 L 44.7 51.3 L 39.0 56.6 L 33.1 61.6 L 27.0 66.4 L 20.6 70.7 L 14.0 74.7 L 12.9 73.2 L 18.2 67.8 L 28.6 56.8 L 33.6 51.3 L 38.4 45.5 L 43.1 39.7 L 47.7 33.6 L 52.1 27.4 L 56.3 21.0 L 59.87091064453125 15.338800144195556 L 59.8 15.3 L 60.9 13.7 Z " />
</g>
</svg>
