<svg xmlns="http://www.w3.org/2000/svg" xmlns:xlink="http://www.w3.org/1999/xlink" version="1.1" baseProfile="full" viewBox="0 0 200 200" width="200" height="200">
<g fill="black">
<path d="M 77.1 59.0 L 78.6 62.2 L 74.83866662979126 62.2 L 71.8 66.5 L 66.3 73.8 L 60.5 80.9 L 54.4 87.7 L 48.0 94.3 L 46.38898878097534 95.81483144760132 L 53.5 97.0 L 56.5 99.0 L 53.5 100.8 L 53.5 182.0 L 41.5 188.0 L 41.5 100.4119402885437 L 41.3 100.6 L 34.3 106.6 L 27.1 112.4 L 19.4 117.7 L 11.4 122.7 L 10.3 121.2 L 17.0 114.8 L 23.5 108.3 L 29.9 101.8 L 35.9 95.2 L 41.7 88.5 L 47.3 81.7 L 52.6 74.7 L 57.6 67.5 L 62.4 60.1 L 66.34595746994019 53.52340421676636 L 66.3 53.5 L 67.4 51.8 Z M 76.8 175.6 L 128.0 175.6 L 128.0 135.7 L 89.1 135.7 L 89.1 131.7 L 128.0 131.7 L 128.0 94.0 L 76.8 94.0 L 76.8 90.0 L 98.1 90.0 L 98.1 30.3 L 110.1 32.3 L 113.1 34.3 L 110.1 36.1 L 110.1 90.0 L 128.0 90.0 L 128.0 12.5 L 140.0 14.5 L 143.0 16.5 L 140.0 18.3 L 140.0 48.2 L 163.9181818008423 48.2 L 172.1 39.2 L 182.1 48.2 L 182.1 52.2 L 140.0 52.2 L 140.0 90.0 L 169.2 90.0 L 179.2 80.0 L 191.2 90.0 L 191.2 94.0 L 131.0 94.0 L 140.0 95.5 L 143.0 97.5 L 140.0 99.3 L 140.0 131.7 L 156.8 131.7 L 166.8 121.7 L 178.8 131.7 L 178.8 135.7 L 140.0 135.7 L 140.0 175.6 L 169.2 175.6 L 179.2 165.6 L 191.2 175.6 L 191.2 179.6 L 76.8 179.6 Z M 69.2 21.0 L 70.6 24.3 L 66.86046628952026 24.23552532196045 L 64.5 27.5 L 59.6 33.8 L 54.6 39.9 L 49.3 45.7 L 43.9 51.3 L 38.3 56.6 L 32.5 61.6 L 26.5 66.3 L 20.3 70.7 L 13.8 74.7 L 12.7 73.2 L 17.8 67.8 L 22.9 62.3 L 28.0 56.9 L 32.9 51.3 L 37.6 45.6 L 42.2 39.7 L 46.7 33.7 L 51.0 27.5 L 55.1 21.1 L 59.1 14.5 L 59.14457197189331 14.528684902191163 L 59.6 13.8 Z " />
</g>
</svg>
