<svg xmlns="http://www.w3.org/2000/svg" xmlns:xlink="http://www.w3.org/1999/xlink" version="1.1" baseProfile="full" viewBox="0 0 200 200" width="200" height="200">
<g fill="black">
<path d="M 73.3 53.7 L 75.0 56.9 L 71.28563480377197 57.02808151245117 L 68.7 61.3 L 63.7 68.7 L 58.5 76.0 L 53.0 83.1 L 47.961864376068114 89.09364404678345 L 53.4 90.0 L 56.4 92.0 L 53.4 93.8 L 53.4 184.0 L 41.4 190.0 L 41.4 96.46557378768921 L 41.1 96.8 L 34.7 103.4 L 28.0 109.8 L 20.9 115.8 L 13.4 121.6 L 12.2 120.3 L 18.3 113.1 L 24.1 106.1 L 29.9 99.0 L 35.3 91.9 L 40.6 84.8 L 45.5 77.6 L 50.2 70.3 L 54.7 63.0 L 58.9 55.5 L 62.368201923370364 48.830380821228026 L 62.3 48.8 L 63.3 47.0 Z M 170.3 118.9 L 166.1 115.1 L 163.35028085708618 112.2797752380371 L 158.7 116.0 L 158.7 145.0 L 146.7 151.0 L 146.7 145.0 L 132.63508768081664 145.0 L 135.8 149.1 L 140.0 154.3 L 144.2 158.9 L 148.4 163.0 L 152.08108110427855 165.97992277145386 L 152.9 165.2 L 154.7 162.9 L 156.6 160.6 L 158.4 158.3 L 160.1 155.9 L 161.9 153.5 L 163.6 151.0 L 165.2 148.5 L 166.9 145.8 L 167.99116010665892 143.95866737365722 L 167.9 143.9 L 168.9 142.5 L 178.0 150.4 L 179.2 153.8 L 175.07670707702636 153.30236120223998 L 173.1 155.2 L 170.6 157.4 L 168.0 159.5 L 165.4 161.4 L 162.8 163.2 L 160.1 164.8 L 157.3 166.2 L 154.5 167.4 L 154.23386001586914 167.52814149856567 L 156.8 169.3 L 161.1 171.6 L 165.5 173.4 L 169.9 174.7 L 174.4 175.5 L 183.7 177.3 L 171.9 188.4 L 166.2 186.6 L 160.7 184.2 L 155.6 181.2 L 150.8 177.6 L 146.4 173.4 L 142.3 168.7 L 138.5 163.4 L 135.1 157.6 L 132.2 151.2 L 130.074285697937 145.0 L 112.9 145.0 L 112.9 167.19811325073243 L 116.6 166.5 L 122.0 165.5 L 127.6 164.7 L 133.4 164.1 L 133.9 165.8 L 128.6 168.4 L 123.5 170.7 L 118.4 172.8 L 113.5 174.8 L 108.7 176.7 L 104.1 178.5 L 99.6 180.3 L 95.3 182.0 L 91.2 183.7 L 91.04134616851806 183.7634614944458 L 90.0 187.6 L 87.2 185.3 L 81.5 174.6 L 83.4 173.9 L 87.6 172.9 L 92.0 171.8 L 96.6 170.7 L 100.9 169.7145833015442 L 100.9 106.76666669845581 L 97.9 109.9 L 93.2 114.2 L 88.3 118.3 L 83.0 121.9 L 77.5 125.1 L 71.7 127.8 L 70.7 126.3 L 75.3 122.0 L 79.7 117.7 L 83.9 113.4 L 87.8 108.9 L 91.6 104.3 L 95.1 99.4 L 98.4 94.4 L 101.4 89.2 L 104.2 83.8 L 104.66129035949707 82.7 L 71.9 82.7 L 71.9 78.7 L 123.5 78.7 L 123.5 62.0 L 82.0 62.0 L 82.0 58.0 L 123.5 58.0 L 123.5 41.4 L 76.2 41.4 L 76.2 37.4 L 140.4 37.4 L 141.3 36.0 L 142.7 33.0 L 144.1 30.2 L 145.3 27.5 L 146.5 24.9 L 147.6 22.4 L 148.6 19.9 L 149.5 17.5 L 150.3 15.2 L 150.63989715576173 13.953710460662842 L 150.5 13.9 L 150.83999996185304 13.219999980926513 L 150.9 13.0 L 150.94029846191407 13.019402980804443 L 151.5 11.9 L 161.7 18.2 L 163.6 21.4 L 159.13487224578859 21.77840061187744 L 158.5 22.6 L 156.7 24.8 L 154.8 27.0 L 152.8 29.1 L 150.6 31.3 L 148.4 33.4 L 145.9 35.6 L 143.56000003814697 37.4 L 159.9 37.4 L 169.9 27.4 L 181.9 37.4 L 181.9 41.4 L 135.5 41.4 L 135.5 58.0 L 158.01818180084229 58.0 L 166.2 49.0 L 176.2 58.0 L 176.2 62.0 L 135.5 62.0 L 135.5 78.7 L 164.3 78.7 L 174.3 68.7 L 186.3 78.7 L 186.3 82.7 L 147.9268292427063 82.7 L 150.4 85.3 L 154.1 89.4 L 157.8 93.2 L 161.5 96.9 L 165.3 100.4 L 169.2 103.6 L 173.2 106.6 L 177.4 109.5 L 181.7 112.1 L 186.1 114.5 L 190.4 117.1 L 179.3 125.8 L 174.7 122.4 Z M 112.9 128.0 L 112.9 141.0 L 146.7 141.0 L 146.7 128.0 Z M 112.9 124.0 L 146.7 124.0 L 146.7 112.0 L 112.9 112.0 Z M 117.6 83.3 L 114.2 89.3 L 110.5 94.9 L 106.6 100.2 L 103.84929580688477 103.47464790344239 L 112.9 108.0 L 123.5 108.0 L 123.5 89.0 L 135.5 91.0 L 138.5 93.0 L 135.5 94.8 L 135.5 108.0 L 146.7 108.0 L 152.7 103.0 L 161.33020133972167 110.06107378005981 L 158.6 106.8 L 155.2 102.4 L 152.1 97.7 L 149.3 92.7 L 146.9 87.5 L 145.24181814193724 82.7 L 117.92307691574096 82.7 Z M 69.1 22.5 L 70.2 25.9 L 66.42196159362793 25.378891277313233 L 65.1 26.8 L 60.9 31.2 L 56.5 35.5 L 51.8 39.7 L 47.0 44.0 L 41.9 48.1 L 36.6 52.2 L 31.1 56.2 L 25.2 60.0 L 19.0 63.7 L 17.9 62.2 L 22.8 57.1 L 27.6 52.1 L 32.3 47.3 L 36.8 42.5 L 41.1 37.8 L 45.2 33.2 L 49.1 28.6 L 52.9 24.0 L 56.4 19.5 L 59.108940505981444 15.80599012374878 L 59.1 15.8 L 59.38571424484253 15.428571414947509 L 59.7 15.0 L 59.709533500671384 15.007606506347656 L 60.1 14.5 Z M 106.9 30.2 L 106.4 28.3 L 105.8 26.5 L 105.0 24.6 L 104.1 22.7 L 103.0 20.7 L 101.8 18.8 L 100.6 16.7 L 98.8 15.1 L 99.9 13.6 L 102.0 14.9 L 104.3 16.0 L 106.6 17.2 L 108.7 18.5 L 110.6 20.0 L 112.5 21.7 L 114.3 23.4 L 115.9 25.3 L 117.4 27.3 L 118.8 29.4 L 118.7 34.0 L 115.4 37.2 L 110.9 37.1 L 107.7 33.8 L 107.4 32.0 Z " />
</g>
</svg>
