<svg xmlns="http://www.w3.org/2000/svg" xmlns:xlink="http://www.w3.org/1999/xlink" version="1.1" baseProfile="full" viewBox="0 0 200 200" width="200" height="200">
<g fill="black">
<path d="M 163.2 168.7 L 156.9 160.0 L 151.59210863113404 150.63880987167357 L 148.3 156.4 L 140.7 166.9 L 132.1 175.9 L 122.7 183.2 L 112.4 188.7 L 111.5 187.2 L 120.4 180.2 L 128.3 172.1 L 135.5 162.9 L 141.8 152.6 L 147.24487314224243 141.0172698020935 L 146.7 139.8 L 142.8 128.4 L 139.6 116.2 L 137.2 103.0 L 135.7 89.0 L 135.41408596038818 81.85214786529541 L 133.2 86.4 L 129.2 93.6 L 124.8 100.4 L 123.1 99.5 L 125.7 92.0 L 128.3 84.3 L 130.8 76.4 L 133.1 68.3 L 135.4 60.0 L 137.4 51.3 L 139.3 42.4 L 141.0 33.2 L 142.5 23.8 L 143.75653705596923 15.004240322113038 L 143.7 15.0 L 144.2 12.0 L 155.7 15.9 L 158.4 18.3 L 154.92951488494873 19.713901329040528 L 153.7 25.8 L 151.5 35.4 L 149.1 44.8 L 146.4 53.8 L 143.97209300994874 61.0 L 168.8181818008423 61.0 L 177.0 52.0 L 187.0 61.0 L 187.0 65.0 L 174.72315788269043 65.0 L 172.8 82.4 L 169.7 100.0 L 165.7 116.2 L 160.9 131.0 L 157.1842435836792 139.64874334335326 L 160.4 145.4 L 166.0 153.7 L 172.1 161.0 L 178.7 167.3 L 185.8 172.6 L 189.1 174.9 L 178.1 183.3 L 170.2 176.5 Z M 60.2 58.3 L 62.1 61.3 L 58.453080558776854 61.74786729812622 L 56.4 65.8 L 52.4 73.2 L 48.2 80.3 L 43.8 87.1 L 39.2 93.7 L 37.4459584236145 95.99099311828613 L 43.5 97.0 L 46.5 99.0 L 43.5 100.8 L 43.5 182.0 L 31.5 188.0 L 31.5 103.44901962280274 L 29.2 106.2 L 23.9 112.0 L 18.3 117.5 L 12.3 122.6 L 11.0 121.3 L 15.4 115.0 L 19.7 108.7 L 24.0 102.3 L 28.1 95.8 L 32.1 89.1 L 35.8 82.3 L 39.4 75.4 L 42.9 68.2 L 46.1 60.9 L 48.82009334564209 54.40687398910522 L 48.8 54.4 L 49.7 52.2 Z M 110.5 134.7 L 110.41115388870239 134.40384616851807 L 109.5 134.8 L 104.7 136.5 L 99.9 137.9 L 99.0 138.13877553939818 L 99.0 181.0 L 87.0 187.0 L 87.0 141.06000003814697 L 85.0 141.5 L 74.8 143.3 L 68.56626510620117 144.25903615951538 L 66.6 147.7 L 64.4 144.9 L 61.5 133.0 L 63.5 132.9 L 68.6 132.8 L 73.7 132.6 L 76.98892049789428 132.53551139831544 L 77.8 131.4 L 81.3 126.7 L 84.8 122.1 L 88.4 117.5 L 91.9 113.0 L 95.4 108.6 L 98.8 104.1 L 108.06622514724731 91.74503307342529 L 108.0 91.7 L 109.1 90.4 L 118.0 98.5 L 119.0 102.0 L 115.28970584869384 101.42426471710205 L 114.2 102.6 L 110.3 106.7 L 106.4 110.7 L 102.3 114.8 L 98.2 118.7 L 94.0 122.7 L 89.6 126.6 L 85.1 130.4 L 82.78027448654174 132.26586618423462 L 83.9 132.2 L 88.9 132.0 L 93.9 131.7 L 98.8 131.4 L 103.8 131.2 L 108.8 131.1 L 109.33999996185302 131.1 L 109.2 130.7 L 108.3 128.7 L 107.3 126.7 L 106.1 124.8 L 104.8 122.8 L 103.3 120.8 L 101.4 119.2 L 102.3 117.7 L 104.6 118.8 L 107.2 119.8 L 109.6 121.0 L 111.9 122.4 L 114.0 124.0 L 116.1 125.9 L 117.9 127.9 L 119.7 130.2 L 121.3 132.6 L 122.7 135.2 L 122.3 139.8 L 118.9 142.8 L 114.3 142.4 L 111.3 139.0 L 111.0 136.8 Z M 82.8 148.6 L 85.6 150.9 L 81.76343278884887 152.70970153808594 L 80.7 155.9 L 79.3 159.4 L 77.6 162.8 L 75.7 166.1 L 73.6 169.3 L 71.2 172.3 L 68.5 175.1 L 65.6 177.8 L 62.6 180.5 L 61.3 179.4 L 63.3 176.0 L 64.9 172.6 L 66.3 169.3 L 67.6 166.0 L 68.6 162.8 L 69.5 159.6 L 70.1 156.5 L 70.6 153.4 L 70.8 150.3 L 70.8666111946106 148.3016653060913 L 70.8 148.3 L 71.1 145.2 Z M 110.5 162.6 L 109.8 160.4 L 109.1 158.3 L 108.2 156.1 L 107.1 153.9 L 105.9 151.7 L 104.6 149.5 L 103.1 147.2 L 101.2 145.3 L 102.3 143.8 L 104.7 145.3 L 107.3 146.6 L 109.7 148.1 L 112.0 149.8 L 114.1 151.7 L 116.1 153.7 L 118.0 155.9 L 119.7 158.2 L 121.3 160.6 L 122.7 163.2 L 122.3 167.8 L 118.9 170.8 L 114.3 170.4 L 111.3 167.0 L 111.0 164.8 Z M 142.50952377319337 65.0 L 140.3 70.8 L 137.56639995574952 77.23199996948242 L 139.8 88.4 L 143.0 101.8 L 146.6 114.3 L 150.6 125.7 L 151.87946186065673 128.5926962852478 L 152.1 128.0 L 156.0 113.7 L 159.2 98.0 L 161.5 81.0 L 162.79729728698732 65.0 Z M 75.9 113.0 L 75.0 111.2 L 73.8 109.4 L 72.5 107.5 L 70.9 105.7 L 69.1 103.8 L 67.2 101.8 L 65.0 99.8 L 62.5 98.2 L 63.2 96.6 L 66.1 97.6 L 69.1 98.4 L 71.9 99.4 L 74.6 100.5 L 75.80475111007691 101.1264705657959 L 76.1 100.7 L 77.7 97.8 L 79.3 95.0 L 80.8 92.3 L 82.4 89.7 L 83.9 87.1 L 85.4 84.6 L 88.2 79.6 L 89.09801797866821 78.06054058074952 L 89.0 78.0 L 90.0 76.5 L 99.2 84.3 L 100.4 87.8 L 96.140625 87.359375 L 95.0 88.5 L 92.8 90.5 L 90.5 92.6 L 88.2 94.6 L 83.4 98.6 L 80.8 100.6 L 78.11333332061767 102.39111108779908 L 79.5 103.2 L 81.8 104.8 L 83.9 106.5 L 85.8 108.3 L 87.6 110.3 L 88.2 114.9 L 85.5 118.5 L 80.9 119.1 L 77.3 116.4 L 76.7 114.7 Z M 74.5 79.0 L 63.5 84.5 L 63.5 26.0 L 74.5 28.0 L 77.2 30.0 L 74.5 31.723404216766358 L 74.5 63.0 L 87.0 63.0 L 87.0 12.0 L 97.0 14.0 L 99.5 16.0 L 97.0 17.66666669845581 L 97.0 63.0 L 108.5 63.0 L 108.5 26.0 L 119.5 28.0 L 122.2 30.0 L 119.5 31.723404216766358 L 119.5 71.0 L 108.5 76.5 L 108.5 67.0 L 74.5 67.0 Z M 54.7 20.3 L 56.6 23.4 L 52.87119779586792 23.85002784729004 L 51.3 26.9 L 47.7 33.2 L 44.0 39.3 L 40.2 45.1 L 36.3 50.7 L 32.2 56.1 L 28.0 61.2 L 23.5 66.0 L 18.9 70.5 L 14.0 74.6 L 12.6 73.3 L 16.0 68.0 L 19.3 62.7 L 22.7 57.3 L 25.9 51.8 L 29.1 46.1 L 32.3 40.3 L 35.3 34.4 L 38.2 28.2 L 41.0 21.9 L 43.322826862335205 16.30800943374634 L 43.3 16.3 L 43.504819297790526 15.869879531860352 L 43.7 15.4 L 43.723571395874025 15.410499954223633 L 44.3 14.2 Z " />
</g>
</svg>
