<svg xmlns="http://www.w3.org/2000/svg" xmlns:xlink="http://www.w3.org/1999/xlink" version="1.1" baseProfile="full" viewBox="0 0 200 200" width="200" height="200">
<g fill="black">
<path d="M 165.8 64.3 L 167.1 67.7 L 163.14855613708497 67.35935831069946 L 160.6 70.3 L 154.5 76.1 L 147.6 81.7 L 140.0 87.1 L 131.5 92.2 L 123.4039999961853 96.6 L 161.9 96.6 L 167.9 91.6 L 178.9 100.6 L 173.9 104.6 L 173.9 181.2 L 161.9 187.2 L 161.9 177.2 L 113.3 177.2 L 113.3 184.2 L 101.3 190.2 L 101.3 106.6 L 89.6 110.8 L 77.0 114.8 L 76.3 113.1 L 88.1 107.3 L 99.1 101.7 L 101.3 100.50198020935059 L 101.3 90.6 L 110.69707317352295 95.29853658676147 L 118.5 90.6 L 127.0 85.1 L 134.6 79.5 L 141.3 73.9 L 147.1 68.3 L 152.1 62.8 L 155.60983724594115 58.00607595443726 L 155.6 58.0 L 156.6 56.6 Z M 75.5 51.8 L 77.1 55.0 L 73.39566411972046 55.06386785507202 L 70.6 59.4 L 65.5 66.8 L 60.0 74.1 L 54.3 81.2 L 49.09894733428955 87.08315792083741 L 54.6 88.0 L 57.6 90.0 L 54.6 91.8 L 54.6 182.0 L 42.6 188.0 L 42.6 94.05 L 41.8 94.9 L 35.1 101.5 L 28.1 107.8 L 20.7 113.9 L 12.9 119.6 L 11.7 118.3 L 18.1 111.1 L 24.3 104.0 L 30.4 96.9 L 36.1 89.9 L 41.7 82.7 L 46.9 75.5 L 51.9 68.2 L 56.5 60.8 L 60.9 53.4 L 64.64120388031006 46.71927890777588 L 64.6 46.7 L 65.6 44.9 Z M 113.3 150.6 L 113.3 173.2 L 161.9 173.2 L 161.9 150.6 Z M 113.3 125.6 L 113.3 146.6 L 161.9 146.6 L 161.9 125.6 Z M 115.14583330154419 100.6 L 113.3 101.4772276878357 L 113.3 121.6 L 161.9 121.6 L 161.9 100.6 Z M 112.3 35.6 L 114.5 38.4 L 110.5615385055542 39.384615421295166 L 108.9 42.8 L 106.6 46.8 L 104.0 51.0 L 101.0 55.6 L 97.6 60.4 L 93.8 65.5 L 89.5 71.0 L 84.7 76.6 L 79.4 82.5 L 78.0 81.4 L 81.6 74.5 L 85.0 68.0 L 88.2 62.0 L 91.1 56.4 L 93.6 51.3 L 95.8 46.6 L 97.6 42.3 L 99.0 38.5 L 100.1 35.1 L 100.57873229980468 33.1166805267334 L 100.5 33.1 L 101.2 30.6 Z M 101.5 64.0 L 121.5 64.0 L 122.7 63.9 L 123.6 63.7 L 124.5 63.4 L 124.9 63.0 L 125.2 62.1 L 125.4 61.2 L 125.5 60.0 L 125.5 13.0 L 137.5 15.0 L 140.5 17.0 L 137.5 18.8 L 137.5 60.0 L 137.3 62.5 L 136.9 65.0 L 136.1 67.4 L 134.8 69.7 L 133.2 71.7 L 131.2 73.3 L 128.9 74.6 L 126.5 75.4 L 124.0 75.8 L 121.5 76.0 L 121.5 70.0 L 101.5 67.0 Z M 173.1 59.5 L 171.3 56.1 L 169.4 52.7 L 167.4 49.2 L 165.2 45.6 L 163.0 41.9 L 160.6 38.1 L 158.1 34.2 L 155.5 30.3 L 156.8 29.1 L 160.5 32.0 L 164.2 35.0 L 167.6 38.0 L 170.9 41.1 L 173.9 44.3 L 176.8 47.5 L 179.5 50.7 L 182.0 53.9 L 184.4 57.2 L 186.7 60.5 L 187.1 65.0 L 184.3 68.6 L 179.7 69.0 L 176.1 66.2 L 174.7 62.9 Z M 71.0 20.6 L 72.0 24.0 L 68.31319150924682 23.41787233352661 L 66.9 24.9 L 62.5 29.3 L 57.9 33.6 L 53.0 37.8 L 47.9 42.0 L 42.7 46.2 L 37.1 50.2 L 31.3 54.2 L 25.2 58.0 L 18.8 61.7 L 17.7 60.2 L 22.9 55.0 L 32.9 45.2 L 37.6 40.5 L 42.2 35.8 L 46.6 31.1 L 50.7 26.5 L 54.6 21.9 L 58.3 17.4 L 61.23571424484253 13.625510215759277 L 61.2 13.6 L 62.2 12.4 Z " />
</g>
</svg>
