<svg xmlns="http://www.w3.org/2000/svg" xmlns:xlink="http://www.w3.org/1999/xlink" version="1.1" baseProfile="full" viewBox="0 0 200 200" width="200" height="200">
<g fill="black">
<path d="M 59.4 58.4 L 61.3 61.5 L 57.53917274475098 61.889051055908205 L 55.4 65.9 L 51.1 73.3 L 46.7 80.4 L 42.0 87.2 L 37.1 93.8 L 35.376551723480226 95.9627586364746 L 41.6 97.0 L 44.6 99.0 L 41.6 100.8 L 41.6 182.0 L 29.6 188.0 L 29.6 102.91111106872559 L 26.6 106.3 L 21.0 112.1 L 15.0 117.5 L 8.8 122.6 L 7.5 121.3 L 12.3 115.0 L 21.5 102.2 L 25.9 95.7 L 30.1 89.0 L 34.2 82.2 L 38.1 75.2 L 41.7 68.1 L 45.2 60.8 L 48.10343780517578 54.20127773284912 L 48.1 54.2 L 48.28000001907348 53.8 L 48.5 53.3 L 48.504130363464355 53.30193252563477 L 49.0 52.2 Z M 183.04918031692506 150.9617486000061 L 181.2 152.4 L 176.6 151.7 L 173.8 148.1 L 173.3 144.8 L 172.6 141.5 L 171.9 138.3 L 171.0 135.1 L 170.0 131.9 L 169.0 128.8 L 167.8 125.6 L 166.6 122.5 L 165.3 119.3 L 163.7 116.3 L 165.1 115.2 L 167.6 117.7 L 170.3 120.1 L 172.7 122.7 L 174.9 125.5 L 177.0 128.5 L 179.0 131.5 L 180.8 134.7 L 182.5 138.1 L 184.0 141.5 L 185.4 145.1 L 185.14666662216186 147.0 L 186.0 147.0 L 184.0 172.0 L 187.6 174.4 L 190.0 178.0 L 187.6 181.6 L 184.0 184.0 L 98.7 184.0 L 96.1 183.8 L 93.6 183.4 L 91.2 182.6 L 89.0 181.3 L 87.0 179.7 L 85.3 177.7 L 84.1 175.4 L 83.3 173.0 L 82.8 170.5 L 82.7 168.0 L 82.7 112.85 L 79.95463914871216 114.2226803779602 L 79.2 120.7 L 77.7 130.5 L 76.0 139.7 L 73.9 148.5 L 71.6 156.7 L 69.0 164.5 L 66.0 171.6 L 62.7 178.2 L 59.1 184.2 L 55.0 189.4 L 53.4 188.5 L 55.7 182.4 L 57.8 176.1 L 59.9 169.4 L 61.7 162.2 L 63.4 154.6 L 64.8 146.6 L 66.1 138.1 L 67.1 129.0 L 67.9 119.5 L 68.35002069473266 110.49958658218384 L 68.3 110.5 L 68.346875 110.0 L 55.7 110.0 L 55.7 106.0 L 79.7 106.0 L 79.7 79.0 L 64.7 79.0 L 64.7 75.0 L 79.7 75.0 L 79.7 49.0 L 58.0 49.0 L 58.0 45.0 L 74.93571424484253 45.0 L 73.4 44.5 L 71.2 40.5 L 71.4 37.7 L 71.4 32.2 L 71.3 29.6 L 70.9 24.4 L 70.5 21.8 L 70.2 19.2 L 69.8 16.6 L 68.9 14.3 L 70.5 13.4 L 72.0 15.5 L 73.8 17.6 L 75.5 19.9 L 76.9 22.3 L 78.3 24.9 L 79.5 27.6 L 80.6 30.4 L 81.6 33.3 L 82.4 36.3 L 83.2 39.5 L 81.7 43.8 L 79.41428575515747 45.0 L 89.66756753921509 45.0 L 90.1 43.0 L 90.5 39.3 L 90.9 35.8 L 91.4 32.4 L 91.9 29.1 L 92.4 25.9 L 92.8 22.8 L 93.2 19.9 L 93.6 17.1 L 93.79597434997558 15.336230564117432 L 93.6 15.3 L 94.3 12.7 L 105.5 17.5 L 107.9 20.2 L 103.83999996185302 21.36000003814697 L 102.0 25.5 L 100.6 28.4 L 99.3 31.3 L 97.8 34.3 L 96.2 37.4 L 94.5 40.6 L 92.7 43.8 L 92.13529415130616 45.0 L 101.5 45.0 L 106.0 39.0 L 112.0 45.0 L 112.0 49.0 L 91.7 49.0 L 91.7 75.0 L 97.0 75.0 L 101.5 69.0 L 107.5 75.0 L 107.5 79.0 L 91.7 79.0 L 91.7 106.0 L 94.5 106.0 L 104.5 96.0 L 116.5 106.0 L 116.5 110.0 L 94.7 110.0 L 94.7 153.01052627563476 L 96.0 152.6 L 97.8 152.5 L 99.6 152.3 L 100.41525621414185 152.25923719406128 L 100.5 148.7 L 100.8 144.5 L 101.2 140.4 L 101.5 136.3 L 101.9 132.2 L 102.2 128.2 L 103.0 120.0 L 103.22422361373901 117.01035194396972 L 103.1 117.0 L 103.6 114.0 L 115.1 118.0 L 117.8 120.4 L 114.13333330154418 121.86666669845582 L 114.1 122.0 L 111.9 130.0 L 110.7 134.0 L 109.4 137.9 L 108.1 141.9 L 106.7 145.8 L 105.2 149.7 L 104.1778344154358 152.04496812820435 L 105.7 151.9 L 107.8 151.8 L 110.1 151.6 L 112.5 151.5 L 113.43000001907349 151.5 L 113.4 150.9 L 113.3 148.8 L 113.1 146.7 L 112.9 144.5 L 112.7 142.2 L 112.0 140.0 L 113.7 139.3 L 114.8 141.3 L 116.3 143.1 L 117.7 144.9 L 119.0 146.7 L 121.4 150.3 L 121.85019302368164 151.0366795539856 L 123.2 149.1 L 125.1 145.7 L 126.9 142.4 L 128.5 139.0 L 129.9 135.7 L 131.1 132.3 L 132.2 128.9 L 133.0 125.4 L 133.7 121.9 L 134.06005964279174 119.30757055282592 L 134.0 119.3 L 134.17368421554565 118.48947372436524 L 134.2 118.3 L 134.21366024017334 118.3029188156128 L 134.6 116.5 L 145.9 120.8 L 148.5 123.3 L 144.66457605361938 124.60130453109741 L 144.6 124.8 L 143.0 128.7 L 141.2 132.5 L 139.1 136.1 L 136.9 139.5 L 134.4 142.8 L 131.7 145.8 L 128.7 148.6 L 125.5 151.2 L 123.03672981262207 153.06611375808717 L 123.5 153.9 L 124.7 156.3 L 124.7 155.0 L 145.9 155.0 L 146.9 154.8 L 147.4 154.6 L 148.0 154.3 L 148.1 154.1 L 148.3 153.8 L 148.5 153.2 L 148.6 152.3 L 148.7 151.0 L 148.7 104.36206893920898 L 148.2 104.5 L 143.2 106.0 L 139.0 107.2 L 135.6 108.3 L 134.96956520080568 108.55217390060425 L 134.2 112.4 L 131.2 110.4 L 131.58455286026 109.96300811767578 L 131.5 110.0 L 131.2 110.4 L 124.7 100.1 L 126.6 99.3 L 128.26363639831544 99.1151515007019 L 128.5 98.8 L 130.0 96.7 L 132.3 93.3 L 135.3 88.6 L 139.0 82.4 L 143.3 74.7 L 148.2 65.7 L 151.55280895233153 59.41348314285278 L 150.9 59.6 L 147.2 60.7 L 143.9 61.7 L 141.0 62.7 L 138.6 63.5 L 137.6314465522766 63.887421417236325 L 136.6 68.4 L 133.6 66.3 L 134.20238094329835 65.65833330154419 L 134.0 65.8 L 133.6 66.3 L 127.6 55.7 L 129.5 55.0 L 130.95625 55.0 L 131.0 54.9 L 130.7 54.0 L 130.9 52.8 L 131.8 50.9 L 133.1 48.0 L 134.8 44.3 L 136.9 39.7 L 139.4 34.2 L 142.2 27.9 L 145.3 20.6 L 148.48582277297973 13.43189868927002 L 148.4 13.4 L 149.4 11.3 L 159.7 17.6 L 161.6 20.6 L 157.94690961837767 20.97790594100952 L 155.6 25.5 L 151.8 32.6 L 148.2 38.8 L 145.0 44.1 L 142.0 48.5 L 139.3 52.0 L 136.9 54.7 L 136.3888889312744 55.1 L 137.2 55.1 L 140.0 55.2 L 143.1 55.3 L 146.6 55.4 L 150.5 55.6 L 153.51195154190063 55.74009075164795 L 153.8 55.2 L 159.9 43.3 L 166.141263961792 30.817472076416017 L 166.1 30.8 L 167.1 28.9 L 177.2 35.5 L 179.0 38.6 L 175.34870595932006 38.847545337677005 L 169.9 48.7 L 163.2 60.4 L 156.9 70.7 L 151.3 79.6 L 146.1 87.0 L 141.5 93.0 L 137.3 97.6 L 136.50495872497558 98.26611566543579 L 141.6 97.7 L 146.8 97.2 L 152.8 96.5 L 159.7 95.9 L 167.4 95.3 L 171.41882848739624 94.96903762817382 L 170.8 92.7 L 169.8 89.5 L 168.6 86.1 L 167.2 82.7 L 165.7 79.2 L 164.1 75.6 L 162.1 72.1 L 163.5 71.0 L 166.5 73.9 L 169.4 76.7 L 172.1 79.7 L 174.6 82.8 L 176.8 85.9 L 178.9 89.2 L 180.7 92.5 L 182.4 95.9 L 183.8 99.3 L 185.1 102.8 L 184.2 107.3 L 180.5 110.0 L 176.0 109.1 L 173.4 105.4 L 173.0 102.3 L 172.4 99.2 L 172.06963205337524 97.6897463798523 L 168.1 98.9 L 160.7 101.0 L 160.7 151.0 L 160.6 153.6 L 160.1 156.1 L 159.3 158.5 L 158.1 160.7 L 156.5 162.8 L 154.4 164.4 L 152.2 165.6 L 149.8 166.4 L 147.3 166.9 L 144.7 167.0 L 144.7 161.0 L 125.19783554077148 158.0746753692627 L 124.5 162.0 L 120.9 164.7 L 116.4 164.0 L 113.7 160.3 L 113.7 156.7 L 113.61015224456787 154.992893409729 L 113.6 155.0 L 109.8 157.6 L 107.9 158.8 L 104.5 161.0 L 104.00202016830444 161.2929292678833 L 102.6 166.2 L 99.8 164.0 L 94.7 154.3368420600891 L 94.7 168.0 L 94.8 169.2 L 94.9 170.1 L 95.1 170.7 L 95.3 171.0 L 95.4 171.2 L 95.6 171.4 L 96.0 171.5 L 96.6 171.7 L 97.5 171.9 L 98.7 172.0 L 178.0 172.0 Z M 80.4 110.4 L 82.7 112.20714282989502 L 82.7 110.0 L 78.8774193763733 110.0 Z M 53.5 20.5 L 55.3 23.6 L 51.606740951538086 23.91838436126709 L 49.9 27.0 L 46.1 33.3 L 42.3 39.4 L 38.2 45.2 L 34.1 50.8 L 29.7 56.2 L 25.3 61.3 L 20.6 66.1 L 15.7 70.5 L 10.5 74.6 L 9.2 73.3 L 12.9 68.0 L 20.1 57.2 L 23.6 51.7 L 27.0 46.0 L 30.4 40.2 L 33.6 34.2 L 36.7 28.1 L 39.8 21.8 L 42.28927183151245 16.134760665893555 L 42.2 16.1 L 43.2 14.1 Z " />
</g>
</svg>
