<svg xmlns="http://www.w3.org/2000/svg" xmlns:xlink="http://www.w3.org/1999/xlink" version="1.1" baseProfile="full" viewBox="0 0 200 200" width="200" height="200">
<g fill="black">
<path d="M 162.5 184.8 L 158.2 182.7 L 153.3 180.5 L 147.7 178.4 L 141.5 176.4 L 134.7 174.3 L 127.3 172.2 L 119.3 169.9 L 110.8 167.6 L 111.1 165.8 L 120.0 166.2 L 128.3 166.9 L 136.1 167.8 L 143.3 169.0 L 150.0 170.3 L 156.1 171.7 L 161.7 173.3 L 166.9 175.0 L 171.5 176.8 L 175.7 178.9 L 178.2 182.7 L 177.5 187.2 L 173.7 189.7 L 169.2 189.0 L 166.2 186.9 Z M 79.55627946853637 164.06687593460083 L 86.7 170.9 L 86.8 174.2 L 83.0804223060608 172.6755828857422 L 79.1 174.2 L 74.0 176.1 L 68.4 177.9 L 62.3 179.6 L 55.8 181.3 L 48.7 183.0 L 41.1 184.7 L 33.0 186.2 L 24.3 187.5 L 15.2 188.7 L 14.7 187.0 L 23.4 183.9 L 31.6 181.0 L 39.3 178.3 L 46.5 175.7 L 53.2 173.3 L 59.3 170.8 L 64.9 168.4 L 70.0 166.1 L 74.4 163.9 L 78.3 161.6 Z M 56.0 105.3 L 144.0 105.3 L 150.0 100.3 L 161.0 109.3 L 156.0 113.3 L 156.0 159.4 L 144.0 165.4 L 144.0 159.4 L 56.0 159.4 L 56.0 162.4 L 44.0 168.4 L 44.0 99.3 Z M 56.0 142.7 L 56.0 155.4 L 144.0 155.4 L 144.0 142.7 Z M 56.0 126.0 L 56.0 138.7 L 144.0 138.7 L 144.0 126.0 Z M 56.0 109.3 L 56.0 122.0 L 144.0 122.0 L 144.0 109.3 Z M 78.6 95.8 L 74.2 99.1 L 73.0 97.8 L 75.8 93.4 L 76.7 91.7125 L 76.7 89.0 L 78.14666662216186 89.0 L 78.2 88.9 L 80.4 84.2 L 82.3 79.4 L 83.8 74.4 L 85.1 69.1 L 86.0 63.5 L 86.5 57.7 L 86.7 51.5 L 86.6 45.0 L 86.6 32.5 L 73.6 32.5 L 73.6 28.5 L 91.5 28.5 L 91.5 12.5 L 103.5 14.5 L 106.5 16.5 L 103.5 18.3 L 103.5 28.5 L 107.51818180084229 28.5 L 115.7 19.5 L 125.7 28.5 L 125.7 32.5 L 95.6 32.5 L 98.6 33.0 L 101.6 35.0 L 98.6 36.8 L 98.6 45.0 L 98.52957744598389 46.0 L 107.0 46.0 L 113.0 41.0 L 122.57012128829956 48.830099201202394 L 126.1 47.5 L 128.7 46.58000001907349 L 128.7 46.5 L 128.92608699798583 46.5 L 132.6 45.2 L 138.7 43.1 L 144.3 41.2 L 149.3 39.3 L 153.9 37.6 L 158.0 35.9 L 161.6 34.3 L 164.6 32.8 L 166.2450216293335 31.878787899017333 L 166.2 31.8 L 166.2704288482666 31.864559841156005 L 167.1 31.4 L 168.10361442565917 33.54497995376587 L 175.8 40.6 L 175.9 43.9 L 172.13571424484252 42.32142858505249 L 168.9 43.4 L 165.2 44.4 L 161.1 45.5 L 156.6 46.5 L 152.8753246307373 47.244935035705566 L 154.8 51.8 L 157.7 58.3 L 160.126043510437 63.23574371337891 L 161.3 62.0 L 163.1 60.1 L 164.9 58.3 L 166.8 56.5 L 168.5 54.7 L 170.3 53.0 L 172.0 51.3 L 173.7 49.7 L 174.634117603302 48.765882396698 L 174.5 48.6 L 174.64210529327391 48.75789470672608 L 175.3 48.1 L 179.32843599319457 53.96492891311645 L 182.6 57.6 L 182.7 61.2 L 178.60625 59.488068199157716 L 177.7 59.9 L 175.4 60.8 L 173.1 61.8 L 168.3 63.6 L 165.8 64.5 L 163.3 65.3 L 161.51605834960938 65.84890508651733 L 163.6 69.6 L 166.8 74.3 L 170.0 78.4 L 173.4 82.0 L 176.8 84.9 L 180.3 87.3 L 183.9 89.2 L 188.9 91.8 L 177.6 100.7 L 173.1 97.5 L 168.9 93.6 L 165.1 89.3 L 161.7 84.4 L 158.8 79.1 L 156.2 73.3 L 153.9 67.0 L 152.1 60.2 L 150.8 52.9 L 150.33638486862182 47.73400278091431 L 146.2 48.5 L 140.7 49.43220338821411 L 140.7 82.79189186096191 L 141.6 82.5 L 149.4 80.1 L 153.4 78.9 L 157.3 77.6 L 158.2 79.3 L 154.8 81.7 L 151.4 84.2 L 148.0 86.6 L 144.7 88.8 L 141.3 91.0 L 134.5 95.0 L 131.2 96.9 L 128.30493478775026 98.51783056259156 L 127.5 102.6 L 124.5 100.6 L 118.0 90.3 L 119.9 89.5 L 126.9 87.3 L 128.7 86.7 L 128.7 51.002898597717284 L 127.0 51.2 L 121.2307692527771 51.6615385055542 L 119.08049535751343 52.951702785491946 L 119.1 54.2 L 119.2 60.0 L 119.1 65.3 L 119.1 70.0 L 118.9 74.3 L 118.7 78.0 L 118.4 81.2 L 118.0 83.9 L 117.4 86.4 L 116.5 88.7 L 115.3 90.9 L 113.9 92.9 L 112.3 94.8 L 110.4 96.4 L 108.4 97.8 L 106.3 99.0 L 104.0 99.9 L 101.6 100.5 L 99.2 100.8 L 96.7 101.0 L 96.7 95.0 L 81.72444448471069 92.75366668701172 Z M 77.5 37.7 L 78.0 41.3 L 74.28999996185303 40.10749998092651 L 72.7 41.3 L 67.6 44.8 L 62.3 48.1 L 56.7 51.2 L 55.636480712890624 51.722746753692626 L 57.9 52.1 L 60.9 54.1 L 57.9 55.9 L 57.9 91.3 L 45.9 97.3 L 45.9 56.34918031692505 L 44.7 56.9 L 38.2 59.4 L 31.5 61.7 L 24.4 63.6 L 17.1 65.2 L 16.5 63.5 L 23.1 60.1 L 29.4 56.7 L 35.5 53.4 L 41.3 50.1 L 46.7 46.7 L 51.9 43.3 L 56.8 39.7 L 61.3 36.1 L 65.5 32.5 L 68.73169269561768 29.429891967773436 L 68.7 29.4 L 69.1 29.080000019073488 L 69.5 28.7 L 69.53116884231568 28.735064888000487 L 69.7 28.6 Z M 143.6 14.1 L 146.1 16.7 L 142.29399995803834 18.014799976348876 L 140.8 21.7 L 139.0 25.3 L 138.31428575515747 26.5 L 160.7 26.5 L 170.7 16.5 L 182.7 26.5 L 182.7 30.5 L 135.86666669845582 30.5 L 134.8 32.1 L 132.3 35.3 L 129.6 38.4 L 126.6 41.3 L 123.3 43.9 L 120.0 46.6 L 118.7 45.3 L 121.1 41.9 L 123.0 38.4 L 124.8 35.0 L 126.4 31.6 L 127.8 28.3 L 129.0 24.9 L 130.0 21.6 L 130.8 18.3 L 131.4 15.0 L 131.67768926620482 12.709063720703124 L 131.6 12.7 L 131.78139533996583 11.853488349914551 L 131.8 11.7 L 131.81368913650513 11.702784252166747 L 132.2 9.9 Z M 65.4 22.6 L 65.7 26.2 L 62.110756969451906 24.89482069015503 L 61.1 25.6 L 56.7 28.4 L 52.2 31.0 L 47.6 33.4 L 43.0 35.6 L 38.3 37.5 L 33.5 39.2 L 28.6 40.7 L 23.6 41.7 L 18.5 42.4 L 18.0 40.7 L 26.6 35.7 L 30.8 33.3 L 34.9 30.8 L 39.0 28.2 L 42.9 25.5 L 50.5 19.7 L 54.2 16.6 L 57.0171778678894 14.01758689880371 L 57.0 14.0 L 57.9 13.2 Z M 106.2 81.8 L 106.4 79.8 L 106.7 77.0 L 106.9 73.7 L 107.1 69.7 L 107.1 65.2 L 107.2 60.0 L 107.1637155532837 57.93178520202637 L 107.0 58.0 L 107.0 50.0 L 98.24788732528687 50.0 L 98.1 52.1 L 97.2 58.9 L 95.8 65.4 L 94.0 71.5 L 91.8 77.2 L 89.2 82.6 L 86.1 87.5 L 84.90681819915771 89.0 L 96.7 89.0 L 98.1 88.9 L 99.3 88.7 L 101.3 88.1 L 102.2 87.6 L 102.9 87.0 L 103.7 86.4 L 104.4 85.5 L 105.1 84.5 L 105.8 83.3 L 105.9 83.1 Z " />
</g>
</svg>
