<svg xmlns="http://www.w3.org/2000/svg" xmlns:xlink="http://www.w3.org/1999/xlink" version="1.1" baseProfile="full" viewBox="0 0 200 200" width="200" height="200">
<g fill="black">
<path d="M 168.3 184.0 L 162.9 178.7 L 158.9 171.9 L 156.0 163.7 L 153.9 154.1 L 152.7 143.0 L 152.3 130.5 L 152.6 116.4 L 153.5178343772888 103.3 L 72.0 103.3 L 72.0 99.3 L 153.7 99.3 L 159.7 94.3 L 170.7 103.3 L 165.7 106.3 L 165.29069242477416 106.47054481506348 L 164.6 116.9 L 164.3 130.4 L 164.7 142.2 L 165.8 152.2 L 167.5 160.5 L 169.8 166.9 L 172.5 171.4 L 175.3 174.3 L 176.753125 175.003125 L 182.2 151.4 L 184.2 151.4 L 182.2744680404663 176.4319149017334 L 186.4 178.2 L 188.2 182.4 L 186.4 186.6 L 182.2 188.4 L 174.8 187.3 Z M 75.5 51.8 L 77.1 55.0 L 73.39566411972046 55.06386785507202 L 70.6 59.4 L 65.5 66.8 L 60.0 74.1 L 54.3 81.2 L 49.09894733428955 87.08315792083741 L 54.6 88.0 L 57.6 90.0 L 54.6 91.8 L 54.6 182.0 L 42.6 188.0 L 42.6 94.05 L 41.8 94.9 L 35.1 101.5 L 28.1 107.8 L 20.7 113.9 L 12.9 119.6 L 11.7 118.3 L 18.1 111.1 L 24.3 104.0 L 30.4 96.9 L 36.1 89.9 L 41.7 82.7 L 46.9 75.5 L 51.9 68.2 L 56.5 60.8 L 60.9 53.4 L 64.64120388031006 46.71927890777588 L 64.6 46.7 L 65.6 44.9 Z M 116.98536949157715 111.4687783241272 L 116.7 121.1 L 116.29661016464233 127.9 L 123.4 127.9 L 133.4 117.9 L 145.4 127.9 L 145.4 131.9 L 116.05932207107544 131.9 L 116.0 132.9 L 114.9 143.4 L 113.1 152.6 L 113.03086423873901 152.8 L 127.0 152.8 L 137.0 142.8 L 149.0 152.8 L 149.0 156.8 L 111.6481481552124 156.8 L 110.3 160.7 L 106.4 167.8 L 101.2 173.7 L 94.6 178.6 L 86.6 182.6 L 77.0 185.8 L 76.4 184.2 L 84.9 179.2 L 91.5 174.3 L 96.4 169.2 L 99.9 163.8 L 102.4 157.7 L 102.60571432113647 156.8 L 72.0 156.8 L 72.0 152.8 L 103.51999998092651 152.8 L 104.0 150.7 L 104.9 142.3 L 105.3 132.4 L 105.3 131.9 L 75.5 131.9 L 75.5 127.9 L 105.3 127.9 L 105.3 120.9 L 105.11501874923707 108.59874839782715 L 105.1 108.6 L 105.1 105.2 L 117.1 107.6 L 120.1 109.6 Z M 165.0 75.6 L 159.2 71.6 L 153.9 67.2 L 149.1 62.6 L 144.9 57.8 L 141.1 52.7 L 137.9 47.4 L 136.8 44.935999965667726 L 136.8 88.1 L 124.8 94.1 L 124.8 49.11521739959717 L 124.5 49.5 L 119.3 54.9 L 113.6 60.0 L 107.2 64.7 L 100.2 69.0 L 92.7 72.9 L 84.5 76.4 L 75.7 79.5 L 66.3 82.0 L 65.7 80.3 L 74.3 75.9 L 82.2 71.6 L 89.5 67.2 L 96.1 62.6 L 102.1 57.9 L 107.4 53.1 L 112.1 48.0 L 116.1 42.9 L 119.5 37.5 L 119.87142858505248 36.7 L 79.0 36.7 L 79.0 32.7 L 124.8 32.7 L 124.8 12.3 L 136.8 14.3 L 139.8 16.3 L 136.8 18.1 L 136.8 32.7 L 163.9 32.7 L 173.9 22.7 L 185.9 32.7 L 185.9 36.7 L 136.8 36.7 L 136.8 37.024324321746825 L 139.0 39.7 L 142.8 44.0 L 146.7 48.1 L 150.9 52.0 L 155.4 55.7 L 160.2 59.2 L 165.4 62.4 L 171.0 65.5 L 176.9 68.3 L 183.2 71.0 L 189.2 73.7 L 177.8 83.0 L 171.2 79.5 Z M 71.0 20.6 L 72.0 24.0 L 68.31319150924682 23.41787233352661 L 66.9 24.9 L 62.5 29.3 L 57.9 33.6 L 53.0 37.8 L 47.9 42.0 L 42.7 46.2 L 37.1 50.2 L 31.3 54.2 L 25.2 58.0 L 18.8 61.7 L 17.7 60.2 L 22.9 55.0 L 32.9 45.2 L 37.6 40.5 L 42.2 35.8 L 46.6 31.1 L 50.7 26.5 L 54.6 21.9 L 58.3 17.4 L 61.23571424484253 13.625510215759277 L 61.2 13.6 L 62.2 12.4 Z " />
</g>
</svg>
