<svg xmlns="http://www.w3.org/2000/svg" xmlns:xlink="http://www.w3.org/1999/xlink" version="1.1" baseProfile="full" viewBox="0 0 200 200" width="200" height="200">
<g fill="black">
<path d="M 158.7 117.5 L 158.0 115.1 L 157.7650267601013 114.36570873260499 L 157.6 114.4 L 150.0 115.8 L 142.6 116.9 L 135.3 118.0 L 134.16400003433228 118.14399995803834 L 139.3 119.0 L 142.3 121.0 L 139.3 122.8 L 139.3 136.0 L 143.3181818008423 136.0 L 151.5 127.0 L 161.5 136.0 L 161.5 140.0 L 139.3 140.0 L 139.3 161.0 L 164.5 161.0 L 174.5 151.0 L 186.5 161.0 L 186.5 165.0 L 139.3 165.0 L 139.3 183.0 L 127.3 189.0 L 127.3 165.0 L 76.5 165.0 L 76.5 161.0 L 91.32060089111329 161.0 L 95.73690986633301 140.0 L 89.6 140.0 L 89.6 136.0 L 127.3 136.0 L 127.3 119.01739130020141 L 121.3 119.8 L 114.6 120.6 L 108.0 121.4 L 101.6 122.2 L 99.38965520858764 122.44559383392334 L 97.5 125.7 L 95.3 122.9 L 92.6 111.0 L 94.6 110.9 L 100.8 110.8 L 107.3 110.7 L 108.85992012023925 110.67636480331421 L 109.4 109.9 L 110.9 107.5 L 112.3 105.1 L 113.6 102.6 L 114.9 100.0 L 116.1 97.3 L 117.2 94.5 L 118.3 91.5 L 118.9697247505188 89.42385320663452 L 118.9 89.4 L 119.26610174179078 88.50508470535279 L 119.3 88.4 L 119.30768957138062 88.40342540740967 L 119.47272729873657 88.0 L 90.59555559158325 88.0 L 90.8 90.3 L 90.8 94.5 L 90.7 98.3 L 90.2 101.9 L 89.5 105.3 L 88.5 108.4 L 87.1 111.2 L 85.2 113.8 L 80.9 115.3 L 76.7 113.4 L 75.3 109.0 L 77.2 104.9 L 78.2 104.3 L 79.4 103.3 L 80.7 101.6 L 81.9 99.4 L 83.1 96.7 L 84.1 93.5 L 85.1 89.8 L 86.1 85.6 L 87.0 81.0 L 87.4 75.9 L 89.2 75.8 L 89.8 81.0 L 90.175 84.0 L 173.0 84.0 L 179.0 79.0 L 190.0 88.0 L 185.0 91.0 L 181.61176471710206 92.41176471710205 L 180.5 94.0 L 177.3 98.2 L 175.5 100.4 L 173.6 102.8 L 171.5 105.1 L 169.2 107.6 L 167.2 110.3 L 165.7 109.4 L 167.1 106.3 L 168.0 103.2 L 168.9 100.2 L 169.8 97.4 L 170.6 94.7 L 171.4 92.2 L 172.0 89.9 L 172.51818180084229 88.0 L 121.17704916000366 88.0 L 130.3 93.3 L 132.2 96.3 L 128.14885492324828 96.85877866744995 L 126.3 99.5 L 124.2 102.3 L 122.0 104.9 L 119.7 107.2 L 117.3 109.4 L 115.75698499679565 110.57269144058228 L 120.7 110.5 L 127.7 110.5 L 134.8 110.4 L 149.6 110.4 L 156.44163932800294 110.57770490646362 L 156.3 110.2 L 155.3 107.6 L 154.2 105.1 L 153.0 102.5 L 151.8 99.8 L 150.2 97.3 L 151.5 96.1 L 153.8 98.2 L 156.2 100.0 L 158.5 102.0 L 162.7 106.2 L 164.6 108.4 L 166.3 110.7 L 168.0 113.1 L 169.6 115.5 L 171.0 118.0 L 170.8 122.6 L 167.5 125.8 L 162.9 125.5 L 159.8 122.2 L 159.3 119.9 Z M 73.3 58.8 L 74.9 62.0 L 71.21129703521729 62.06359834671021 L 68.5 66.3 L 63.5 73.6 L 58.2 80.7 L 52.6 87.5 L 46.8 94.1 L 45.12764043807984 95.8546067237854 L 52.0 97.0 L 55.0 99.0 L 52.0 100.8 L 52.0 182.0 L 40.0 188.0 L 40.0 101.16666669845581 L 34.4 106.5 L 27.7 112.3 L 20.7 117.7 L 13.4 122.6 L 12.2 121.3 L 18.2 114.8 L 24.0 108.4 L 29.6 102.0 L 35.1 95.4 L 40.3 88.7 L 45.3 81.9 L 50.0 74.9 L 54.5 67.7 L 58.8 60.4 L 62.31609754562378 53.807317066192624 L 62.3 53.8 L 63.3 51.9 Z M 96.55333337783813 140.0 L 107.1 144.2 L 109.6 146.7 L 106.37971096038818 147.67216272354125 L 103.61489362716675 161.0 L 127.3 161.0 L 127.3 140.0 Z M 100.5 79.0 L 100.0 77.8 L 98.6 75.2 L 97.7 73.8 L 96.6 72.4 L 95.5 70.9 L 94.2 69.3 L 92.6 68.3 L 92.96206893920899 67.5758620262146 L 92.6 67.8 L 91.6 66.3 L 93.4 64.8 L 94.8 62.9 L 97.4 59.3 L 98.5 57.7 L 99.5 56.1 L 100.5 54.6 L 101.3 53.2 L 102.0 51.8 L 102.12809410095215 51.466955471038816 L 101.9 51.3 L 102.44285717010499 50.64857139587402 L 102.5 50.5 L 102.53868227005005 50.533581256866455 L 102.9 50.1 L 111.6 58.4 L 112.5 61.9 L 107.46182870864868 60.92772130966186 L 106.8 61.3 L 105.0 62.3 L 101.2 64.1 L 99.1 64.9 L 97.0 65.8 L 94.7 66.5 L 93.96865673065186 66.95273628234864 L 95.2 67.5 L 97.3 67.9 L 99.3 68.4 L 101.2 69.0 L 103.0 69.7 L 104.7 70.4 L 106.4 71.3 L 108.0 72.3 L 109.5 73.3 L 110.9 74.5 L 111.8 79.0 L 109.4 82.8 L 104.9 83.7 L 101.1 81.3 L 100.8 80.2 Z M 129.8 79.0 L 129.3 77.8 L 128.7 76.5 L 128.0 75.2 L 127.1 73.8 L 126.0 72.4 L 124.9 70.9 L 123.6 69.3 L 121.9 68.3 L 122.28571424484252 67.61428575515747 L 122.0 67.8 L 120.9 66.3 L 122.8 64.8 L 124.2 62.9 L 125.5 61.1 L 126.7 59.3 L 127.9 57.7 L 128.9 56.1 L 129.8 54.6 L 130.6 53.2 L 131.3 51.8 L 131.4472435951233 51.480972099304196 L 131.2 51.3 L 131.86619720458984 50.573239421844484 L 131.9 50.5 L 131.91847105026244 50.51621341705322 L 132.3 50.1 L 140.9 58.4 L 141.9 61.9 L 136.7953455924988 60.93187589645386 L 136.1 61.3 L 134.4 62.3 L 132.5 63.2 L 130.5 64.1 L 128.5 64.9 L 126.3 65.8 L 124.0 66.5 L 123.32994928359986 66.93553295135499 L 124.6 67.5 L 126.7 67.9 L 128.7 68.4 L 130.5 69.0 L 132.4 69.7 L 134.1 70.4 L 135.8 71.3 L 137.4 72.3 L 138.9 73.3 L 140.3 74.5 L 141.2 79.0 L 138.8 82.8 L 134.3 83.7 L 130.4 81.3 L 130.2 80.2 Z M 159.2 79.0 L 158.7 77.8 L 158.1 76.5 L 157.3 75.2 L 156.4 73.8 L 155.4 72.4 L 154.2 70.9 L 153.0 69.3 L 151.3 68.3 L 151.66206893920898 67.5758620262146 L 151.3 67.8 L 150.3 66.3 L 152.1 64.8 L 153.5 62.9 L 154.9 61.1 L 156.1 59.3 L 157.3 57.7 L 158.3 56.1 L 159.2 54.6 L 160.0 53.2 L 160.7 51.8 L 160.8472435951233 51.480972099304196 L 160.6 51.3 L 161.6 50.1 L 170.3 58.4 L 171.3 61.9 L 166.19534559249877 60.93187589645386 L 165.5 61.3 L 163.7 62.3 L 161.9 63.2 L 159.9 64.1 L 157.9 64.9 L 155.7 65.8 L 153.4 66.5 L 152.68144578933715 66.94481925964355 L 154.0 67.5 L 156.1 67.9 L 158.0 68.4 L 159.9 69.0 L 163.5 70.4 L 165.1 71.3 L 166.7 72.3 L 168.2 73.3 L 169.7 74.5 L 170.6 79.0 L 168.2 82.8 L 163.7 83.7 L 159.8 81.3 L 159.6 80.2 Z M 66.2 20.8 L 67.7 24.1 L 64.01692304611205 24.1 L 61.9 27.3 L 57.4 33.6 L 52.8 39.7 L 48.1 45.5 L 43.1 51.1 L 38.0 56.4 L 32.7 61.5 L 27.2 66.3 L 21.5 70.6 L 15.5 74.6 L 14.3 73.3 L 18.9 67.9 L 23.5 62.4 L 27.9 57.0 L 32.3 51.4 L 36.6 45.7 L 40.7 39.9 L 44.7 33.9 L 48.5 27.7 L 52.2 21.3 L 55.30122184753418 15.700571727752685 L 55.3 15.7 L 56.3 13.9 Z M 79.0 45.0 L 111.90372495651245 45.0 L 114.18166189193725 30.0 L 93.3 30.0 L 93.3 26.0 L 114.78911170959472 26.0 L 116.9 12.1 L 128.5 15.8 L 131.1 18.3 L 127.97872285842895 19.260392951965333 L 126.9634614944458 26.0 L 150.5 26.0 L 156.5 21.0 L 167.5 30.0 L 162.5 34.0 L 162.5 45.0 L 165.8181818008423 45.0 L 174.0 36.0 L 184.0 45.0 L 184.0 49.0 L 79.0 49.0 Z M 126.36089744567872 30.0 L 124.10128202438355 45.0 L 150.5 45.0 L 150.5 30.0 Z " />
</g>
</svg>
