<svg xmlns="http://www.w3.org/2000/svg" xmlns:xlink="http://www.w3.org/1999/xlink" version="1.1" baseProfile="full" viewBox="0 0 200 200" width="200" height="200">
<g fill="black">
<path d="M 73.0 58.8 L 74.6 62.1 L 70.82894735336303 62.1 L 68.0 66.4 L 62.8 73.7 L 57.3 80.8 L 51.5 87.6 L 45.5 94.2 L 43.85714282989502 95.84285717010498 L 50.8 97.0 L 53.8 99.0 L 50.8 100.8 L 50.8 182.0 L 38.8 188.0 L 38.8 100.8641791343689 L 32.5 106.6 L 25.6 112.3 L 18.4 117.7 L 10.8 122.7 L 9.7 121.2 L 15.9 114.8 L 22.0 108.4 L 27.9 101.9 L 33.6 95.3 L 39.1 88.6 L 44.3 81.8 L 49.2 74.8 L 53.9 67.6 L 58.4 60.3 L 62.6 52.8 L 62.6369668006897 52.82132701873779 L 63.2 51.9 Z M 157.2 177.5 L 147.8 173.4 L 139.1 168.4 L 131.3 162.4 L 127.46977109909058 158.62528171539307 L 119.8 164.5 L 109.9 170.8 L 99.3 176.0 L 88.1 180.2 L 76.3 183.3 L 64.0 185.3 L 63.6 183.5 L 75.3 179.7 L 86.2 175.2 L 96.4 170.1 L 105.9 164.3 L 114.7 157.7 L 121.41614694595337 151.72099113464355 L 118.4 147.8 L 113.2 139.2 L 109.1 129.7 L 107.33781833648682 123.64984283447265 L 104.2 128.0 L 99.5 133.7 L 94.5 139.1 L 89.1 144.0 L 83.4 148.6 L 77.3 152.7 L 70.9 156.2 L 69.8 154.7 L 75.0 149.7 L 79.8 144.6 L 84.5 139.4 L 88.8 134.0 L 92.8 128.5 L 96.6 122.7 L 100.0 116.7 L 103.2 110.5 L 106.1 104.0 L 108.6 97.2 L 108.65855703353881 97.22352733612061 L 109.2 95.9 L 119.8 101.7 L 121.8 104.6 L 118.10045862197876 105.24904232025146 L 116.4 108.8 L 113.47313432693481 114.1 L 148.5 114.1 L 148.90465116500854 113.76279067993164 L 149.1 113.4 L 149.2484393119812 113.47630062103272 L 154.5 109.1 L 165.5 118.1 L 160.5 121.1 L 157.76619291305542 122.23908634185791 L 153.1 129.9 L 145.8 140.0 L 137.8 149.1 L 134.0486496925354 152.67686891555786 L 137.1 155.1 L 144.5 159.7 L 152.4 163.4 L 160.9 166.3 L 170.0 168.3 L 179.9 169.6 L 190.2 170.8 L 178.3 182.7 L 167.4 180.6 Z M 111.034375 118.1 L 109.0999713897705 121.11955680847169 L 112.9 127.9 L 118.3 136.1 L 124.1 143.4 L 126.84630870819092 146.19060401916505 L 130.4 142.4 L 137.3 133.5 L 143.5 123.8 L 146.5692307472229 118.1 Z M 70.8 85.7 L 90.7 85.7 L 90.7 38.4 L 102.7 40.4 L 105.7 42.4 L 102.7 44.2 L 102.7 85.7 L 124.7 85.7 L 124.7 11.9 L 136.7 13.9 L 139.7 15.9 L 136.7 17.7 L 136.7 44.8 L 160.8181818008423 44.8 L 169.0 35.8 L 179.0 44.8 L 179.0 48.8 L 136.7 48.8 L 136.7 85.7 L 161.7 85.7 L 171.7 75.7 L 183.7 85.7 L 183.7 89.7 L 70.8 89.7 Z M 65.6 20.9 L 67.1 24.2 L 63.31538457870484 24.2 L 61.1 27.4 L 56.5 33.7 L 51.7 39.8 L 46.8 45.6 L 41.6 51.2 L 36.3 56.5 L 30.8 61.5 L 25.2 66.3 L 19.2 70.7 L 13.0 74.6 L 11.9 73.3 L 16.7 67.8 L 21.5 62.4 L 30.7 51.4 L 35.2 45.7 L 39.5 39.8 L 43.7 33.8 L 47.7 27.6 L 51.6 21.2 L 55.3 14.7 L 55.8 13.8 Z " />
</g>
</svg>
