<svg xmlns="http://www.w3.org/2000/svg" xmlns:xlink="http://www.w3.org/1999/xlink" version="1.1" baseProfile="full" viewBox="0 0 200 200" width="200" height="200">
<g fill="black">
<path d="M 71.5 59.5 L 73.3 62.6 L 69.59555253982543 62.919348907470706 L 67.1 67.4 L 62.5 75.1 L 57.5 82.4 L 52.3 89.4 L 47.47073173522949 95.19512195587158 L 52.3 96.0 L 55.3 98.0 L 52.3 99.8 L 52.3 183.0 L 40.3 189.0 L 40.3 103.17377052307128 L 35.0 108.3 L 28.7 113.9 L 22.0 119.0 L 14.9 123.7 L 13.8 122.2 L 19.4 116.2 L 24.9 110.1 L 30.2 103.8 L 35.3 97.4 L 40.2 90.8 L 44.8 84.0 L 49.1 76.9 L 53.2 69.6 L 57.1 62.0 L 60.7 54.2 L 60.74014873504639 54.21970262527466 L 61.3 53.1 Z M 188.5 169.7 L 188.5 173.7 L 72.4 173.7 L 72.4 169.7 L 166.5 169.7 L 176.5 159.7 Z M 103.6 32.5 L 157.3 32.5 L 163.3 27.5 L 174.3 36.5 L 169.3 40.5 L 169.3 143.3 L 157.3 149.3 L 157.3 137.3 L 103.6 137.3 L 103.6 149.3 L 91.6 155.3 L 91.6 26.5 Z M 103.6 85.4 L 103.6 133.3 L 157.3 133.3 L 157.3 85.4 Z M 103.6 36.5 L 103.6 81.4 L 157.3 81.4 L 157.3 36.5 Z M 60.6 27.6 L 62.3 30.8 L 58.57450876235962 30.99269781112671 L 56.6 34.3 L 52.5 40.6 L 48.3 46.5 L 44.1 52.0 L 39.7 57.1 L 35.3 61.7 L 30.7 66.0 L 26.0 69.8 L 21.2 73.0 L 16.2 75.7 L 15.2 74.2 L 18.8 70.1 L 22.4 65.9 L 26.0 61.4 L 29.5 56.8 L 33.1 51.8 L 36.6 46.5 L 40.0 40.9 L 43.4 34.9 L 46.7 28.7 L 49.5469292640686 22.919870948791505 L 49.5 22.9 L 50.5 21.0 Z " />
</g>
</svg>
