<svg xmlns="http://www.w3.org/2000/svg" xmlns:xlink="http://www.w3.org/1999/xlink" version="1.1" baseProfile="full" viewBox="0 0 200 200" width="200" height="200">
<g fill="black">
<path d="M 72.4 178.9 L 69.9 178.4 L 67.5 177.6 L 65.2 176.4 L 63.2 174.7 L 61.6 172.7 L 60.3 170.5 L 59.5 168.0 L 59.1 165.6 L 59.0 163.0 L 59.0 138.1 L 71.0 140.1 L 74.0 142.1 L 71.0 143.9 L 71.0 164.2 L 71.2 165.1 L 71.4 165.7 L 71.5 166.1 L 71.7 166.2 L 71.9 166.4 L 72.2 166.6 L 72.8 166.8 L 73.7 166.9 L 75.0 167.0 L 140.0 167.0 L 146.0 142.0 L 148.0 142.0 L 146.0 167.0 L 149.6 169.4 L 152.0 173.0 L 149.6 176.6 L 146.0 179.0 L 75.0 179.0 Z M 14.2 171.5 L 14.2 167.0 L 17.3 163.6 L 20.2 162.6 L 22.7 161.4 L 25.0 160.0 L 27.1 158.2 L 29.0 156.1 L 30.7 153.6 L 32.2 150.8 L 33.5 147.4 L 34.6 143.7 L 35.1 139.4 L 36.9 139.4 L 37.4 143.8 L 37.8 148.0 L 37.7 152.1 L 37.0 156.1 L 35.8 159.8 L 34.1 163.4 L 31.8 166.7 L 29.0 169.7 L 25.8 172.4 L 22.1 174.6 L 17.5 174.7 Z M 169.5 161.9 L 168.1 159.4 L 166.3 156.9 L 164.1 154.3 L 161.5 151.7 L 158.6 149.1 L 155.3 146.4 L 151.6 143.6 L 147.5 141.0 L 148.2 139.3 L 157.5 142.4 L 161.7 144.1 L 165.6 146.1 L 169.2 148.2 L 172.4 150.6 L 175.4 153.1 L 178.0 155.8 L 180.4 158.8 L 182.3 161.9 L 182.3 166.5 L 179.1 169.8 L 174.5 169.7 L 171.3 166.6 L 170.5 164.3 Z M 107.5 152.4 L 105.7 150.3 L 103.7 148.2 L 101.4 146.2 L 98.9 144.2 L 96.2 142.1 L 93.3 140.1 L 90.1 138.0 L 86.6 136.3 L 87.2 134.5 L 91.1 135.4 L 95.0 136.1 L 98.6 137.1 L 102.1 138.3 L 105.5 139.6 L 108.7 141.1 L 111.7 142.8 L 114.5 144.7 L 117.2 146.7 L 119.7 148.9 L 121.0 153.3 L 118.9 157.3 L 114.5 158.6 L 110.4 156.5 L 109.1 154.5 Z M 144.9777777671814 98.5 L 149.2 93.75 L 141.1 97.8 L 141.1 91.8 L 105.0 91.8 L 105.0 97.8 L 104.88333330154418 98.5 Z M 104.21666669845581 102.5 L 103.7 105.6 L 101.96760559082031 109.7 L 151.3181818008423 109.7 L 157.86363639831544 102.5 Z M 56.8 77.8 L 56.8 87.8 L 93.0 87.8 L 93.0 77.8 Z M 105.0 77.8 L 105.0 87.8 L 141.1 87.8 L 141.1 77.8 Z M 78.3 68.7 L 68.1 73.8 L 93.0 73.8 L 93.0 68.7 Z M 105.0 68.7 L 105.0 73.8 L 119.6 73.8 L 119.6 68.7 Z M 78.3 57.5 L 78.3 64.7 L 119.6 64.7 L 119.6 57.5 Z M 134.3 47.6 L 134.6 47.8 L 131.6 49.6 L 131.6 53.5 L 163.3 53.5 L 167.725 47.6 Z M 81.91470584869384 26.3 L 85.7 28.9 L 87.4 32.1 L 83.11503162384034 32.24525318145752 L 82.3 33.3 L 78.1 37.1 L 73.1 40.4 L 67.3 43.2 L 60.9 45.7 L 53.7 47.7 L 45.7 49.4 L 37.0 50.8 L 27.4 51.7 L 17.1 52.1 L 16.8 50.3 L 26.8 47.9 L 35.9 45.5 L 44.1 43.1 L 51.4 40.5 L 57.8 37.8 L 63.2 34.9 L 67.6 32.0 L 71.1 29.0 L 73.35 26.3 L 34.6 26.3 L 34.7 28.7 L 34.3 31.1 L 33.5 33.4 L 32.3 35.7 L 30.7 37.9 L 28.8 39.9 L 26.5 41.7 L 22.0 42.1 L 18.4 39.1 L 18.1 34.6 L 21.0 31.1 L 22.8 30.6 L 24.3 30.0 L 25.6 29.4 L 26.8 28.8 L 27.9 27.9 L 28.9 26.9 L 29.7 25.74444446563721 L 29.7 22.3 L 31.168421077728272 22.3 L 31.2 22.2 L 31.0 20.1 L 32.7 19.7 L 33.3 21.9 L 33.44545450210571 22.3 L 75.6777777671814 22.3 L 75.8 22.1 L 76.09117650985718 22.3 L 92.0 22.3 L 92.0 10.0 L 104.0 12.0 L 107.0 14.0 L 104.0 15.8 L 104.0 22.3 L 166.0 22.3 L 167.1818181991577 21.315151500701905 L 167.4 21.0 L 168.0 19.8 L 168.42553195953369 20.278723430633544 L 172.0 17.3 L 183.0 26.3 L 178.0 29.3 L 166.0 34.3 L 166.0 33.36521739959717 L 165.0 33.8 L 162.6 34.9 L 160.0 36.1 L 157.1 37.2 L 154.4 38.9 L 153.3 37.4 L 155.8 35.4 L 157.7 33.0 L 159.6 30.8 L 161.3 28.8 L 162.8 27.0 L 163.3764705657959 26.3 L 124.35 26.3 L 126.0 27.4 L 123.0 29.2 L 123.0 34.1 L 122.8 35.4 L 122.7 36.4 L 122.7 37.8 L 122.8 38.3 L 123.0 38.8 L 123.5 39.3 L 124.3 39.9 L 125.5 40.3 L 127.0 40.6 L 168.5 40.6 L 172.0 35.6 L 174.0 35.6 L 172.0 40.6 L 174.1 42.0 L 175.5 44.1 L 174.1 46.2 L 172.0 47.6 L 167.9 47.6 L 173.8 53.5 L 173.8 57.5 L 131.6 57.5 L 131.6 68.7 L 121.4 73.8 L 141.1 73.8 L 147.1 68.8 L 158.1 77.8 L 153.1 81.8 L 153.1 91.8 L 152.10909090042114 92.29545450210571 L 159.2 98.5 L 159.2 101.03000001907348 L 159.5 100.7 L 169.5 109.7 L 169.5 113.7 L 107.88181819915772 113.7 L 108.3 113.9 L 112.9 116.0 L 117.8 118.0 L 123.1 119.9 L 128.9 121.6 L 135.0 123.1 L 141.6 124.4 L 148.7 125.5 L 156.2 126.4 L 164.2 127.1 L 174.6 128.3 L 162.7 140.3 L 154.3 138.8 L 146.4 137.1 L 139.0 135.1 L 132.1 132.9 L 125.7 130.4 L 119.9 127.6 L 114.5 124.5 L 109.8 121.0 L 105.8 117.3 L 102.9714285850525 113.7 L 99.94590167999267 113.7 L 96.1 118.8 L 89.9 124.0 L 82.4 128.2 L 73.7 131.6 L 63.6 134.3 L 52.1 136.3 L 39.3 137.4 L 25.1 137.8 L 24.9 136.0 L 38.8 133.7 L 51.1 131.0 L 61.9 128.0 L 71.0 124.5 L 78.5 120.7 L 84.3 116.6 L 87.06818180084228 113.7 L 28.4 113.7 L 28.4 109.7 L 90.0 109.7 L 91.2 107.7 L 92.7 102.9 L 92.7235294342041 102.5 L 38.8 102.5 L 38.8 98.5 L 92.95882349014282 98.5 L 93.0 97.8 L 93.0 91.8 L 56.8 91.8 L 44.8 97.8 L 44.8 67.8 L 56.8 73.8 L 66.3 73.8 L 66.3 57.5 L 24.1 57.5 L 24.1 53.5 L 66.3 53.5 L 66.3 43.8 L 78.3 45.8 L 81.3 47.8 L 78.3 49.6 L 78.3 53.5 L 119.6 53.5 L 119.6 46.87142858505249 L 118.1 46.3 L 116.1 45.0 L 114.4 43.3 L 113.0 41.3 L 112.0 39.1 L 111.3 36.7 L 111.0 34.1 L 111.0 26.3 Z " />
</g>
</svg>
