<svg xmlns="http://www.w3.org/2000/svg" xmlns:xlink="http://www.w3.org/1999/xlink" version="1.1" baseProfile="full" viewBox="0 0 200 200" width="200" height="200">
<g fill="black">
<path d="M 46.0 16.0 L 49.0 18.0 L 46.0 19.8 L 46.0 183.0 L 34.0 189.0 L 34.0 14.0 Z M 163.9 112.9 L 162.3 109.1 L 160.97598962783815 106.14044752120972 L 157.4 107.2 L 149.4 109.2 L 141.7 111.0 L 134.2 112.7 L 126.94050636291504 114.07341775894164 L 138.5 116.0 L 141.5 118.0 L 138.5 119.8 L 138.5 142.0 L 153.0 142.0 L 163.0 132.0 L 175.0 142.0 L 175.0 146.0 L 138.5 146.0 L 138.5 176.0 L 164.6 176.0 L 174.6 166.0 L 186.6 176.0 L 186.6 180.0 L 78.3 180.0 L 78.3 176.0 L 126.5 176.0 L 126.5 146.0 L 89.9 146.0 L 89.9 142.0 L 126.5 142.0 L 126.5 114.15915489196777 L 119.7 115.5 L 112.8 116.7 L 106.1 117.9 L 99.6 118.9 L 97.5350555419922 119.19975004196166 L 95.7 122.6 L 93.4 119.8 L 90.3 108.1 L 92.2 107.9 L 98.5 107.6 L 104.9 107.2 L 108.44150791168212 106.9885666847229 L 108.7 106.1 L 110.3 100.8 L 111.9 95.8 L 113.4 91.1 L 114.9 86.5 L 116.3 82.2 L 117.7 78.0 L 118.9 74.1 L 119.82162160873413 71.0 L 95.0 71.0 L 95.0 67.0 L 147.9 67.0 L 157.9 57.0 L 168.56791048049928 65.88992538452149 L 169.2 64.4 L 170.2 61.0 L 171.1 57.8 L 172.1 54.8 L 172.9 51.9 L 173.7 49.2 L 174.4 46.7 L 175.0 44.3 L 90.29591836929322 44.3 L 90.5 46.8 L 90.5 51.4 L 90.3 55.5 L 89.8 59.4 L 89.1 63.0 L 88.0 66.3 L 86.5 69.4 L 84.6 72.1 L 80.3 73.7 L 76.1 71.9 L 74.5 67.6 L 76.3 63.4 L 77.5 62.6 L 78.7 61.3 L 80.0 59.5 L 81.3 57.0 L 82.5 54.0 L 83.6 50.4 L 84.7 46.3 L 85.6 41.7 L 86.5 36.7 L 87.1 31.1 L 88.9 31.1 L 89.5 36.7 L 89.91538457870483 40.3 L 126.5 40.3 L 126.5 12.6 L 138.5 14.6 L 141.5 16.6 L 138.5 18.4 L 138.5 40.3 L 175.5 40.3 L 181.5 35.3 L 192.5 44.3 L 187.5 47.3 L 184.32061853408814 48.62474222183228 L 183.0 50.7 L 181.4 52.9 L 179.7 55.3 L 177.9 57.7 L 175.9 60.3 L 173.8 62.9 L 171.5 65.6 L 169.9 67.88571424484253 L 169.9 71.0 L 132.34761905670166 71.0 L 132.3 71.1 L 128.8 78.1 L 126.8 81.9 L 124.8 85.8 L 122.6 89.9 L 120.2 94.1 L 117.7 98.5 L 115.0 103.0 L 112.56746034622192 106.72989416122437 L 118.5 106.3 L 125.7 105.7 L 133.1 105.1 L 140.7 104.5 L 148.6 103.9 L 156.8 103.4 L 159.54833946228027 103.30184497833253 L 158.6 101.5 L 156.4 97.6 L 154.1 93.7 L 151.6 89.7 L 148.9 85.5 L 146.1 81.3 L 147.3 80.0 L 151.5 83.2 L 155.4 86.4 L 159.0 89.8 L 162.3 93.3 L 165.5 96.9 L 168.3 100.5 L 171.0 104.3 L 173.4 108.1 L 175.6 112.0 L 177.6 116.0 L 177.4 120.6 L 174.2 123.8 L 169.6 123.6 L 166.4 120.3 L 165.3 116.6 Z M 10.5 101.4 L 8.2 97.5 L 9.1 93.0 L 10.6 91.4 L 12.0 89.3 L 13.5 86.8 L 15.0 83.8 L 16.5 80.3 L 17.9 76.4 L 19.3 72.1 L 20.8 67.4 L 22.3 62.4 L 23.6 56.9 L 25.4 57.0 L 25.4 62.8 L 25.5 68.2 L 25.3 73.2 L 24.8 78.0 L 24.3 82.4 L 23.6 86.5 L 22.7 90.3 L 21.6 93.8 L 20.4 97.0 L 18.9 100.0 L 15.0 102.4 Z M 61.0 78.4 L 60.2 75.6 L 59.3 72.8 L 58.2 69.9 L 56.9 66.9 L 55.5 63.9 L 53.9 60.7 L 52.2 57.4 L 50.0 54.3 L 51.3 53.1 L 54.3 55.6 L 57.3 58.0 L 60.0 60.6 L 62.5 63.2 L 64.8 65.9 L 67.0 68.7 L 68.9 71.5 L 70.6 74.5 L 72.1 77.4 L 73.5 80.5 L 72.8 85.0 L 69.3 87.8 L 64.7 87.2 L 61.9 83.6 L 61.5 81.0 Z " />
</g>
</svg>
