<svg xmlns="http://www.w3.org/2000/svg" xmlns:xlink="http://www.w3.org/1999/xlink" version="1.1" baseProfile="full" viewBox="0 0 200 200" width="200" height="200">
<g fill="black">
<path d="M 73.4 182.3 L 70.9 181.9 L 68.5 181.1 L 66.2 179.9 L 64.2 178.2 L 62.6 176.2 L 61.3 173.9 L 60.5 171.5 L 60.1 169.0 L 60.0 166.5 L 60.0 129.8 L 72.0 131.8 L 75.0 133.8 L 72.0 135.6 L 72.0 167.7 L 72.2 168.6 L 72.5 169.5 L 72.9 169.9 L 73.2 170.1 L 73.8 170.2 L 74.7 170.4 L 76.0 170.5 L 141.0 170.5 L 147.0 145.5 L 149.0 145.5 L 147.0 170.5 L 150.6 172.9 L 153.0 176.5 L 150.6 180.1 L 147.0 182.5 L 76.0 182.5 Z M 15.4 174.4 L 14.8 169.9 L 17.5 166.2 L 20.4 164.7 L 23.0 162.8 L 25.4 160.6 L 27.6 157.9 L 29.6 154.7 L 31.3 151.0 L 32.9 146.7 L 34.2 142.0 L 35.3 136.7 L 36.1 131.0 L 37.9 130.9 L 38.7 136.8 L 39.1 142.5 L 38.9 147.9 L 38.3 153.0 L 37.2 157.7 L 35.5 162.2 L 33.3 166.4 L 30.6 170.2 L 27.3 173.6 L 23.6 176.6 L 19.0 177.1 Z M 170.2 160.4 L 168.7 157.0 L 166.8 153.6 L 164.6 150.2 L 162.0 146.8 L 159.1 143.4 L 155.9 140.0 L 152.3 136.5 L 148.3 133.0 L 149.3 131.5 L 154.2 133.6 L 158.9 136.0 L 163.2 138.7 L 167.2 141.6 L 170.8 144.8 L 174.1 148.1 L 177.0 151.7 L 179.6 155.5 L 181.9 159.5 L 183.8 163.8 L 183.3 168.3 L 179.8 171.3 L 175.3 170.8 L 172.3 167.3 L 171.4 163.9 Z M 108.2 147.2 L 106.3 144.4 L 104.3 141.8 L 102.0 139.1 L 96.9 134.0 L 94.0 131.5 L 90.9 129.0 L 87.5 126.7 L 88.2 125.0 L 92.3 126.3 L 96.2 127.6 L 100.0 129.2 L 103.6 131.0 L 107.1 133.1 L 110.3 135.4 L 113.4 137.9 L 116.3 140.6 L 119.0 143.5 L 121.5 146.6 L 122.2 151.1 L 119.5 154.9 L 115.0 155.5 L 111.3 152.9 L 109.8 150.0 Z M 73.1 75.8 L 75.2 78.8 L 71.2651120185852 79.41058607101441 L 70.0 81.9 L 66.90689659118652 86.5 L 148.8181818008423 86.5 L 157.0 77.5 L 167.0 86.5 L 167.0 90.5 L 115.0 90.5 L 115.0 114.4 L 160.0 114.4 L 170.0 104.4 L 182.0 114.4 L 182.0 118.4 L 42.0 118.4 L 42.0 114.4 L 103.0 114.4 L 103.0 90.5 L 63.86000003814697 90.5 L 61.7 93.2 L 56.6 98.3 L 50.9 103.2 L 44.6 107.7 L 37.7 112.0 L 30.2 115.8 L 22.1 119.3 L 13.3 122.3 L 12.6 120.7 L 20.4 115.9 L 27.6 111.2 L 34.1 106.5 L 40.0 101.7 L 45.3 96.8 L 49.9 91.9 L 53.9 86.9 L 57.2 81.8 L 59.9 76.6 L 61.445283031463624 72.7 L 16.7 72.7 L 16.7 68.7 L 94.0 68.7 L 94.0 55.6 L 31.4 55.6 L 31.4 51.6 L 94.0 51.6 L 94.0 38.4 L 23.5 38.4 L 23.5 34.4 L 73.30769233703613 34.4 L 71.7 33.3 L 71.2 31.8 L 70.5 30.3 L 69.5 28.7 L 68.4 27.0 L 67.0 25.2 L 65.3 23.4 L 63.4 21.6 L 61.4 19.7 L 59.1 17.7 L 56.4 16.1 L 57.1 14.4 L 60.1 15.5 L 63.2 16.2 L 66.1 17.1 L 68.8 18.1 L 73.8 20.5 L 76.0 21.9 L 78.1 23.4 L 80.1 25.1 L 81.8 26.9 L 82.6 31.4 L 80.54736843109131 34.4 L 117.45200004577637 34.4 L 118.7 33.2 L 121.0 30.6 L 123.1 28.0 L 125.2 25.6 L 127.2 23.3 L 129.0 21.0 L 130.7 18.8 L 132.3 16.7 L 133.8 14.7 L 134.50582990646362 13.582435989379883 L 134.4 13.5 L 134.9172413825989 12.931034469604493 L 135.0 12.8 L 135.01989936828613 12.81811065673828 L 135.4 12.4 L 143.9 20.9 L 144.7 24.4 L 140.44216871261597 23.50361442565918 L 139.5 24.2 L 137.2 25.8 L 134.7 27.4 L 132.1 29.0 L 129.4 30.6 L 126.5 32.3 L 123.5 33.8 L 122.21999998092652 34.4 L 154.4 34.4 L 164.4 24.4 L 176.4 34.4 L 176.4 38.4 L 106.0 38.4 L 106.0 51.6 L 150.4181818008423 51.6 L 158.6 42.6 L 168.6 51.6 L 168.6 55.6 L 106.0 55.6 L 106.0 68.7 L 165.11818180084228 68.7 L 173.3 59.7 L 183.3 68.7 L 183.3 72.7 L 67.43448276519776 72.7 Z " />
</g>
</svg>
