<svg xmlns="http://www.w3.org/2000/svg" xmlns:xlink="http://www.w3.org/1999/xlink" version="1.1" baseProfile="full" viewBox="0 0 200 200" width="200" height="200">
<g fill="black">
<path d="M 147.0 146.2 L 149.0 146.2 L 147.0 171.2 L 150.6 173.6 L 153.0 177.2 L 150.6 180.7 L 147.0 183.2 L 76.0 183.2 L 73.4 183.0 L 70.9 182.6 L 68.5 181.8 L 66.2 180.5 L 64.2 178.9 L 62.6 176.9 L 61.3 174.6 L 60.5 172.2 L 60.1 169.7 L 60.0 167.2 L 60.0 127.7 L 72.0 129.7 L 75.0 131.7 L 72.0 133.5 L 72.0 168.4 L 72.2 169.3 L 72.5 170.2 L 72.9 170.6 L 73.8 170.9 L 74.7 171.1 L 76.0 171.2 L 141.0 171.2 Z M 15.4 174.9 L 14.7 170.4 L 17.4 166.7 L 20.2 165.0 L 22.8 163.0 L 25.2 160.6 L 27.5 157.6 L 29.5 154.1 L 31.3 150.2 L 32.8 145.6 L 34.1 140.5 L 35.2 134.9 L 36.1 128.8 L 37.9 128.7 L 38.8 135.0 L 39.2 141.0 L 39.0 146.7 L 38.4 152.1 L 37.2 157.1 L 35.6 161.8 L 33.4 166.2 L 30.7 170.2 L 27.4 173.8 L 23.7 176.9 L 19.1 177.6 Z M 170.2 160.0 L 168.6 156.3 L 166.7 152.7 L 164.5 149.0 L 161.9 145.5 L 159.0 141.9 L 155.8 138.3 L 152.2 134.6 L 148.3 130.9 L 149.3 129.4 L 154.3 131.7 L 159.0 134.3 L 163.3 137.2 L 167.3 140.4 L 170.9 143.8 L 174.2 147.4 L 177.2 151.2 L 179.8 155.3 L 182.0 159.6 L 183.9 164.0 L 183.3 168.6 L 179.8 171.5 L 175.3 170.9 L 172.3 167.4 L 171.4 163.7 Z M 108.1 145.8 L 106.2 142.9 L 104.2 140.1 L 101.9 137.3 L 99.4 134.6 L 96.8 131.9 L 93.9 129.3 L 90.8 126.7 L 87.5 124.2 L 88.2 122.6 L 92.3 124.0 L 96.3 125.4 L 100.1 127.1 L 103.7 129.1 L 107.2 131.4 L 110.5 133.8 L 113.5 136.5 L 116.4 139.4 L 119.1 142.6 L 121.6 145.9 L 122.2 150.4 L 119.5 154.1 L 114.9 154.6 L 111.3 151.9 L 109.8 148.8 Z M 18.2 109.2 L 36.2 107.2 L 45.3 106.3 L 54.4 105.3 L 68.15234460830689 103.93987798690796 L 69.6 101.9 L 71.4 98.7 L 73.1 95.8 L 74.7 93.0 L 76.2 90.3 L 77.6 87.8 L 78.9 85.5 L 81.0 81.3 L 81.3 80.625 L 81.3 80.35865383148193 L 81.2 80.3 L 81.3 80.16363639831543 L 81.3 79.3 L 40.0 79.3 L 32.4754716873169 83.06226415634156 L 33.8 83.7 L 36.5 84.7 L 39.1 85.8 L 41.5 87.1 L 43.8 88.5 L 45.9 90.0 L 47.8 91.7 L 49.6 93.6 L 51.2 95.6 L 52.5 97.8 L 52.2 102.3 L 48.9 105.4 L 44.3 105.1 L 41.2 101.8 L 41.1 100.3 L 40.8 98.8 L 40.3 97.1 L 39.5 95.4 L 38.6 93.6 L 37.4 91.7 L 36.0 89.8 L 34.4 87.8 L 32.5 85.7 L 30.361403465270996 84.1192982673645 L 28.0 85.3 L 28.0 50.6 L 40.0 56.6 L 81.3 56.6 L 87.3 51.6 L 98.3 60.6 L 93.3 64.6 L 93.3 79.3 L 86.85510206222534 82.52244901657104 L 91.6 86.4 L 92.9 89.8 L 88.41041259765625 89.41296663284302 L 88.2 89.6 L 86.3 91.3 L 84.3 93.2 L 82.1 95.1 L 79.7 97.1 L 77.2 99.3 L 74.5 101.4 L 71.60166568756104 103.59873638153076 L 72.6 103.5 L 81.8 102.7 L 91.0 102.0 L 100.2 101.5 L 109.5 101.1 L 109.8 102.9 L 100.8 105.2 L 91.8 107.3 L 82.7 109.2 L 64.7 112.8 L 46.7 116.2 L 37.8 117.8 L 28.8 119.5 L 23.88135757446289 120.38425035476685 L 22.3 123.7 L 19.9 121.1 L 16.2 109.5 Z M 158.5 111.6 L 149.5 106.1 L 141.5 100.0 L 138.83781871795654 97.41388101577759 L 131.7 103.0 L 121.4 109.3 L 109.9 114.4 L 97.4 118.5 L 83.8 121.4 L 83.4 119.7 L 96.2 114.9 L 107.7 109.5 L 118.1 103.6 L 127.1 97.0 L 133.09440145492553 91.46086959838867 L 128.6 85.9 L 123.7 77.9 L 119.9 69.4 L 117.3 60.5 L 116.56336708068848 55.1169135093689 L 112.0 59.3 L 106.8 63.4 L 101.2 67.1 L 100.0 65.8 L 104.2 60.7 L 108.1 55.6 L 111.8 50.6 L 115.3 45.5 L 118.5 40.3 L 121.4 35.0 L 124.1 29.6 L 126.5 24.1 L 128.6 18.4 L 130.11921186447142 13.504761886596679 L 130.1 13.5 L 130.9 11.1 L 141.8 16.4 L 143.9 19.3 L 140.19766359329225 20.07943925857544 L 139.1 22.6 L 136.2 28.6 L 132.9 34.3 L 129.4 39.8 L 128.00188674926758 41.7 L 166.3 41.7 L 176.3 31.7 L 188.3 41.7 L 188.3 45.7 L 168.96000003814697 45.7 L 166.0 56.8 L 161.5 68.0 L 155.9 78.3 L 149.0 87.5 L 146.01355810165404 90.56018114089966 L 147.8 92.0 L 155.4 96.8 L 163.8 101.1 L 173.0 104.9 L 183.1 108.1 L 190.8 110.5 L 179.2 120.7 L 168.4 116.5 Z M 124.9960000038147 45.7 L 121.3 50.1 L 118.71756753921508 52.85459461212158 L 121.3 59.2 L 125.3 67.0 L 129.8 74.1 L 135.1 80.7 L 139.17860164642335 84.71062488555908 L 141.7 81.7 L 147.3 73.1 L 151.7 63.7 L 155.1 53.6 L 156.68000001907347 45.7 Z M 40.0 60.6 L 40.0 75.3 L 81.3 75.3 L 81.3 60.6 Z M 21.3 44.6 L 53.6 44.6 L 53.6 31.7 L 15.9 31.7 L 15.9 27.7 L 53.6 27.7 L 53.6 13.6 L 65.6 15.6 L 68.6 17.6 L 65.6 19.4 L 65.6 27.7 L 88.31818180084228 27.7 L 96.5 18.7 L 106.5 27.7 L 106.5 31.7 L 65.6 31.7 L 65.6 44.6 L 87.9777777671814 44.6 L 94.2 37.6 L 102.2 44.6 L 102.2 48.6 L 21.3 48.6 Z " />
</g>
</svg>
