<svg xmlns="http://www.w3.org/2000/svg" xmlns:xlink="http://www.w3.org/1999/xlink" version="1.1" baseProfile="full" viewBox="0 0 200 200" width="200" height="200">
<g fill="black">
<path d="M 147.0 146.6 L 149.0 146.6 L 147.0 171.6 L 150.6 174.0 L 153.0 177.6 L 150.6 181.2 L 147.0 183.6 L 76.0 183.6 L 73.4 183.5 L 70.9 183.1 L 68.5 182.2 L 66.2 181.0 L 64.2 179.4 L 62.6 177.4 L 61.3 175.1 L 60.5 172.7 L 60.1 170.2 L 60.0 167.6 L 60.0 129.2 L 72.0 131.2 L 75.0 133.2 L 72.0 135.0 L 72.0 168.9 L 72.2 169.8 L 72.5 170.7 L 72.7 170.9 L 72.9 171.0 L 73.2 171.2 L 73.8 171.4 L 74.7 171.6 L 141.0 171.6 Z M 15.4 175.5 L 14.8 170.9 L 17.4 167.2 L 20.3 165.6 L 22.9 163.7 L 25.3 161.3 L 27.5 158.4 L 29.5 155.1 L 31.3 151.2 L 32.8 146.8 L 34.1 141.8 L 35.3 136.3 L 36.1 130.3 L 37.9 130.2 L 38.7 136.4 L 39.1 142.3 L 39.0 147.9 L 38.3 153.1 L 37.2 158.1 L 35.5 162.7 L 33.4 167.0 L 30.6 170.9 L 27.4 174.4 L 23.6 177.5 L 19.1 178.1 Z M 170.2 160.8 L 168.6 157.3 L 166.8 153.7 L 164.5 150.2 L 162.0 146.7 L 159.1 143.2 L 155.8 139.6 L 152.3 136.0 L 148.3 132.4 L 149.3 130.9 L 154.3 133.2 L 158.9 135.7 L 163.3 138.5 L 167.2 141.5 L 170.9 144.8 L 174.2 148.4 L 177.1 152.1 L 179.7 156.1 L 182.0 160.3 L 183.8 164.7 L 183.3 169.2 L 179.8 172.1 L 175.3 171.6 L 172.3 168.1 L 171.4 164.5 Z M 108.1 147.0 L 106.3 144.2 L 104.2 141.4 L 101.9 138.7 L 99.5 136.0 L 96.8 133.4 L 93.9 130.8 L 90.9 128.2 L 87.5 125.9 L 88.2 124.2 L 92.3 125.5 L 96.3 126.9 L 100.1 128.6 L 103.7 130.5 L 107.2 132.7 L 110.4 135.1 L 113.5 137.7 L 116.4 140.6 L 119.1 143.6 L 121.6 146.9 L 122.2 151.4 L 119.5 155.1 L 114.9 155.7 L 111.3 153.0 L 109.8 150.0 Z M 75.0 113.5 L 69.6 109.2 L 65.0 103.7 L 61.3 97.2 L 58.3 89.6 L 56.0 81.1 L 55.6 78.7 L 36.9 78.7 L 36.9 105.1 L 41.1 104.5 L 49.3 103.3 L 53.4 102.9 L 61.4 102.1 L 61.9 103.9 L 54.7 107.5 L 50.9 109.2 L 47.1 110.8 L 43.1 112.3 L 39.0 113.8 L 34.9 115.2 L 30.7 116.6 L 26.4 118.0 L 26.03249044418335 118.10858240127564 L 24.6 121.8 L 22.0 119.3 L 17.5 108.0 L 19.5 107.6 L 23.9 106.9 L 24.9 106.76363639831543 L 24.9 21.1 L 36.9 27.1 L 77.0 27.1 L 83.0 22.1 L 94.0 31.1 L 89.0 35.1 L 89.0 54.4 L 77.0 60.4 L 77.0 52.4 L 64.95 52.4 L 65.3 60.1 L 66.3 69.9 L 67.13720932006837 74.7 L 75.0 74.7 L 85.0 64.7 L 97.0 74.7 L 97.0 78.7 L 67.85135135650634 78.7 L 69.7 85.9 L 72.1 92.0 L 74.9 96.9 L 78.0 100.6 L 81.3 103.3 L 83.2473684310913 104.19473686218262 L 88.6 81.0 L 90.6 81.0 L 88.6878734588623 105.85764503479004 L 89.3 106.0 L 93.2 108.3 L 94.5 112.6 L 92.3 116.6 L 87.9 117.9 L 81.1 116.4 Z M 162.6 114.1 L 160.8 115.7 L 158.8 117.0 L 156.7 118.2 L 154.5 119.1 L 152.3 119.8 L 149.9 120.3 L 147.5 120.7 L 145.1 120.8 L 145.1 114.8 L 125.1 111.8 L 125.1 108.8 L 145.1 108.8 L 146.5 108.7 L 147.9 108.5 L 149.2 108.2 L 150.3 107.9 L 151.5 107.4 L 152.5 106.8 L 153.5 106.1 L 154.5 105.3 L 155.5 104.3 L 156.5 103.2 L 156.4 103.2 L 156.8 102.2 L 157.1 100.5 L 157.5 98.1 L 157.8 95.1 L 157.9 91.6 L 158.0 87.5 L 158.0 82.8 L 157.97392683029176 81.44419717788696 L 157.6 81.6 L 157.6 73.6 L 138.71578950881957 73.6 L 138.2 79.2 L 136.6 86.3 L 134.1 92.9 L 130.7 98.8 L 126.5 104.1 L 121.6 108.8 L 115.9 112.7 L 109.4 115.9 L 102.3 118.4 L 94.5 120.1 L 94.0 118.4 L 100.9 114.9 L 106.9 111.2 L 112.1 107.3 L 116.4 103.2 L 119.9 98.8 L 122.7 94.1 L 124.8 89.1 L 126.1 83.7 L 126.8 77.9 L 126.86825399398803 73.6 L 110.7 73.6 L 110.7 69.6 L 157.6 69.6 L 163.6 64.6 L 174.6 73.6 L 169.86151313781738 76.44309206008911 L 169.9 77.2 L 170.0 82.6 L 170.0 87.5 L 169.9 92.0 L 169.7 96.0 L 169.4 99.5 L 168.9 102.7 L 168.3 105.5 L 167.4 108.0 L 165.9 110.5 L 164.3 112.4 Z M 36.9 52.4 L 36.9 74.7 L 54.93333330154419 74.7 L 54.4 71.5 L 53.3 61.0 L 52.93247861862183 52.4 Z M 132.6 39.0 L 135.0 41.8 L 131.05851068496705 42.7680850982666 L 130.8 43.4 L 128.7 47.6 L 126.2 51.5 L 123.5 55.2 L 120.5 58.7 L 117.2 61.9 L 113.6 64.8 L 109.7 67.5 L 105.6 69.8 L 101.2 71.8 L 100.2 70.3 L 103.6 67.1 L 106.6 63.7 L 109.4 60.4 L 111.8 57.1 L 114.0 53.7 L 116.0 50.2 L 117.7 46.7 L 119.1 43.1 L 120.2 39.4 L 120.86025533676147 36.61225528717041 L 120.8 36.6 L 121.07428569793701 35.708571434020996 L 121.1 35.6 L 121.10705089569092 35.60208463668823 L 121.6 34.0 Z M 168.5 64.1 L 165.0 60.6 L 161.9 56.8 L 159.2 52.7 L 157.0 48.5 L 155.2 44.2 L 153.9 39.7 L 153.2 35.0 L 153.0375 31.1 L 127.9 31.1 L 127.9 27.1 L 143.6777777671814 27.1 L 149.9 20.1 L 157.9 27.1 L 157.9 31.1 L 155.3 31.1 L 156.7 33.9 L 158.9 37.7 L 161.2 41.1 L 163.7 44.3 L 166.4 47.3 L 169.3 50.1 L 172.4 52.6 L 175.8 55.0 L 179.4 57.2 L 183.4 59.2 L 188.0 61.8 L 176.8 70.6 L 172.5 67.5 Z M 36.9 31.1 L 36.9 48.4 L 77.0 48.4 L 77.0 31.1 Z " />
</g>
</svg>
