<svg xmlns="http://www.w3.org/2000/svg" xmlns:xlink="http://www.w3.org/1999/xlink" version="1.1" baseProfile="full" viewBox="0 0 200 200" width="200" height="200">
<g fill="black">
<path d="M 155.7 182.6 L 153.7 183.8 L 151.6 184.9 L 149.5 185.9 L 147.3 186.6 L 145.0 187.2 L 142.7 187.6 L 140.3 187.9 L 138.0 188.0 L 138.0 182.0 L 118.0 179.0 L 118.0 176.0 L 138.0 176.0 L 139.5 175.9 L 141.0 175.7 L 142.4 175.5 L 143.8 175.1 L 145.1 174.7 L 146.4 174.1 L 147.7 173.4 L 148.9 172.7 L 150.1 171.8 L 151.3 170.8 L 153.9 168.0 L 156.2 164.7 L 158.4 160.8 L 160.3 156.3 L 162.0 151.1 L 163.4 145.3 L 164.5 138.9 L 165.3 131.9 L 165.8 124.2 L 165.95121955871582 118.0 L 33.69058818817139 118.0 L 33.6 118.7 L 21.0 123.1 L 29.0 60.3 L 39.140540504455565 67.0 L 156.0 67.0 L 156.0 24.0 L 22.0 24.0 L 22.0 20.0 L 156.0 20.0 L 162.0 15.0 L 173.0 24.0 L 168.0 28.0 L 168.0 77.0 L 156.0 83.0 L 156.0 71.0 L 39.772941207885744 71.0 L 34.20823526382446 114.0 L 166.0 114.0 L 172.0 109.0 L 183.0 118.0 L 178.0 121.0 L 177.88394584655762 121.04835586547851 L 177.8 124.7 L 177.3 132.9 L 176.4 140.6 L 175.2 147.8 L 173.6 154.4 L 171.6 160.5 L 169.2 166.1 L 166.4 171.2 L 163.1 175.7 L 159.4 179.6 L 157.6 181.2 Z M 67.0 168.5 L 64.5 168.1 L 62.1 167.3 L 59.8 166.1 L 57.8 164.4 L 56.1 162.4 L 54.9 160.1 L 54.1 157.7 L 53.7 155.2 L 53.5 152.7 L 53.5 130.2 L 65.5 132.2 L 68.5 134.2 L 65.5 136.0 L 65.5 152.7 L 65.6 153.9 L 65.8 154.8 L 66.1 155.7 L 66.5 156.1 L 66.8 156.3 L 67.4 156.4 L 68.3 156.6 L 69.5 156.7 L 115.1 156.7 L 121.1 131.7 L 123.1 131.7 L 122.93687944412231 133.7390070915222 L 123.2 133.1 L 126.9 134.4 L 130.6 135.4 L 134.0 136.6 L 137.1 138.0 L 140.0 139.5 L 142.6 141.2 L 145.1 143.0 L 147.3 145.0 L 149.2 147.2 L 150.9 149.6 L 150.9 154.1 L 147.7 157.4 L 143.2 157.4 L 139.9 154.3 L 139.6 152.7 L 139.0 151.1 L 138.1 149.3 L 136.8 147.4 L 135.3 145.4 L 133.4 143.3 L 131.2 141.2 L 128.6 139.0 L 125.8 136.7 L 122.83650054931641 134.9937427520752 L 121.1 156.7 L 124.7 159.1 L 127.1 162.7 L 124.7 166.3 L 121.1 168.7 L 69.5 168.7 Z M 18.3 158.7 L 18.3 154.1 L 21.5 150.8 L 23.8 150.2 L 25.8 149.4 L 27.5 148.5 L 29.1 147.4 L 30.6 146.0 L 31.9 144.3 L 33.1 142.2 L 34.1 139.7 L 34.9 136.9 L 34.9 133.7 L 36.7 133.5 L 37.3 136.8 L 38.0 140.0 L 38.2 143.2 L 37.9 146.4 L 37.2 149.4 L 35.9 152.4 L 34.1 155.1 L 31.9 157.7 L 29.2 159.9 L 26.1 161.9 L 21.5 161.8 Z M 90.9 137.8 L 89.4 136.2 L 87.6 134.6 L 85.7 133.0 L 83.5 131.4 L 81.1 129.8 L 78.5 128.2 L 75.7 126.5 L 72.6 125.3 L 73.1 123.5 L 76.4 124.1 L 79.8 124.4 L 83.0 124.9 L 86.1 125.5 L 89.0 126.3 L 91.8 127.2 L 94.5 128.3 L 97.0 129.5 L 99.4 130.8 L 101.7 132.3 L 103.4 136.6 L 101.7 140.8 L 97.5 142.5 L 93.2 140.9 L 92.2 139.3 Z M 46.6 100.7 L 94.0 100.7 L 94.0 85.5 L 54.7 85.5 L 54.7 81.5 L 130.9777777671814 81.5 L 137.2 74.5 L 145.2 81.5 L 145.2 85.5 L 106.0 85.5 L 106.0 100.7 L 135.11818180084228 100.7 L 143.3 91.7 L 153.3 100.7 L 153.3 104.7 L 46.6 104.7 Z M 36.6 53.7 L 84.0 53.7 L 84.0 38.5 L 44.7 38.5 L 44.7 34.5 L 117.01818180084229 34.5 L 125.2 25.5 L 135.2 34.5 L 135.2 38.5 L 96.0 38.5 L 96.0 53.7 L 129.0777777671814 53.7 L 135.3 46.7 L 143.3 53.7 L 143.3 57.7 L 36.6 57.7 Z " />
</g>
</svg>
