<svg xmlns="http://www.w3.org/2000/svg" xmlns:xlink="http://www.w3.org/1999/xlink" version="1.1" baseProfile="full" viewBox="0 0 200 200" width="200" height="200">
<g fill="black">
<path d="M 73.4 181.8 L 70.9 181.4 L 68.5 180.6 L 66.2 179.3 L 64.2 177.7 L 62.6 175.7 L 61.3 173.4 L 60.5 171.0 L 60.1 168.5 L 60.0 166.0 L 60.0 124.0 L 72.0 126.0 L 75.0 128.0 L 72.0 129.8 L 72.0 167.2 L 72.2 168.1 L 72.5 169.0 L 72.9 169.4 L 73.8 169.7 L 74.7 169.9 L 76.0 170.0 L 141.0 170.0 L 147.0 145.0 L 149.0 145.0 L 147.0 170.0 L 150.6 172.4 L 153.0 176.0 L 150.6 179.6 L 147.0 182.0 L 76.0 182.0 Z M 15.4 173.6 L 14.7 169.1 L 17.2 165.3 L 20.0 163.5 L 22.7 161.4 L 25.1 158.7 L 27.4 155.6 L 29.4 151.9 L 31.2 147.6 L 32.7 142.8 L 34.0 137.4 L 35.2 131.5 L 36.1 125.0 L 37.9 124.9 L 38.8 131.6 L 39.2 137.9 L 39.1 143.8 L 38.4 149.5 L 37.3 154.7 L 35.6 159.6 L 33.5 164.2 L 30.8 168.4 L 27.5 172.1 L 23.7 175.3 L 19.2 176.1 Z M 170.1 157.7 L 168.5 153.8 L 166.6 150.0 L 164.4 146.2 L 161.8 142.4 L 158.9 138.7 L 155.7 134.9 L 152.2 131.1 L 148.3 127.3 L 149.3 125.8 L 154.3 128.2 L 159.1 131.0 L 163.4 134.1 L 167.4 137.4 L 171.0 141.0 L 174.3 144.9 L 177.2 149.0 L 179.8 153.2 L 182.1 157.7 L 183.9 162.4 L 183.3 167.0 L 179.8 169.8 L 175.2 169.2 L 172.4 165.7 L 171.4 161.7 Z M 108.0 142.8 L 106.2 139.7 L 104.1 136.7 L 101.8 133.8 L 99.4 131.0 L 96.7 128.2 L 93.8 125.5 L 90.8 122.7 L 87.4 120.2 L 88.2 118.6 L 92.3 120.0 L 96.4 121.6 L 100.2 123.4 L 103.8 125.6 L 107.3 128.0 L 110.6 130.6 L 113.7 133.5 L 116.6 136.6 L 119.3 139.9 L 121.8 143.4 L 122.2 148.0 L 119.4 151.6 L 114.8 152.0 L 111.2 149.2 L 109.7 145.9 Z M 186.0 111.0 L 186.0 115.0 L 14.0 115.0 L 14.0 111.0 L 164.0 111.0 L 174.0 101.0 Z M 167.2 73.6 L 165.0 72.0 L 162.7 70.4 L 160.1 68.7 L 157.3 67.1 L 154.3 65.5 L 151.1 63.8 L 147.7 62.0 L 147.1 61.75675678253174 L 147.1 104.4 L 135.1 110.4 L 135.1 27.9 L 147.1 29.9 L 150.1 31.9 L 147.1 33.7 L 147.1 59.20500001907349 L 148.4 59.4 L 152.3 59.7 L 156.1 60.2 L 159.6 60.8 L 163.0 61.6 L 166.2 62.5 L 169.3 63.4 L 172.2 64.5 L 175.0 65.6 L 177.6 66.9 L 180.0 70.8 L 179.1 75.3 L 175.2 77.7 L 170.7 76.7 L 169.1 75.1 Z M 98.6 105.7 L 96.5 106.7 L 94.4 107.6 L 92.3 108.3 L 90.1 108.9 L 87.8 109.4 L 85.6 109.7 L 83.3 109.9 L 81.0 110.0 L 81.0 104.0 L 61.0 101.0 L 61.0 98.0 L 81.0 98.0 L 84.2 97.8 L 85.8 97.5 L 87.3 97.2 L 88.8 96.8 L 90.3 96.3 L 93.1 95.1 L 94.5 94.3 L 95.9 93.4 L 97.2 92.3 L 98.6 90.5 L 99.9 87.8 L 101.1 84.2 L 102.1 79.7 L 102.9 74.5 L 103.3 68.4 L 103.5 61.5 L 103.41334772109985 54.827771759033205 L 103.0 55.0 L 103.0 47.0 L 57.20285711288452 47.0 L 53.5 49.4 L 47.5 52.7 L 44.879844951629636 53.989922523498535 L 53.3 58.2 L 75.6 58.2 L 81.6 53.2 L 92.6 62.2 L 87.6 66.2 L 87.6 85.8 L 75.6 91.8 L 75.6 83.8 L 53.3 83.8 L 53.3 86.8 L 41.3 92.8 L 41.3 55.75230770111084 L 41.0 55.9 L 34.0 58.8 L 26.4 61.4 L 18.3 63.8 L 17.6 62.1 L 24.9 58.0 L 31.7 54.0 L 37.9 50.1 L 43.6 46.2 L 48.7 42.4 L 53.2 38.6 L 57.1 34.8 L 60.4 31.0 L 63.1 27.3 L 65.06216220855713 24.0 L 14.0 24.0 L 14.0 20.0 L 165.0 20.0 L 175.0 10.0 L 187.0 20.0 L 187.0 24.0 L 67.41666669845581 24.0 L 75.5 30.0 L 77.0 33.2 L 73.04418601989747 33.2 L 72.2 34.3 L 68.3 38.4 L 63.8 42.2 L 62.740540504455566 43.0 L 103.0 43.0 L 109.0 38.0 L 120.0 47.0 L 115.2 49.880000019073485 L 115.4 53.4 L 115.5 61.5 L 115.3 69.0 L 114.8 75.7 L 113.9 81.9 L 112.7 87.4 L 111.0 92.3 L 108.8 96.7 L 106.1 100.4 L 102.6 103.4 L 100.6 104.6 Z M 53.3 62.2 L 53.3 79.8 L 75.6 79.8 L 75.6 62.2 Z " />
</g>
</svg>
