<svg xmlns="http://www.w3.org/2000/svg" xmlns:xlink="http://www.w3.org/1999/xlink" version="1.1" baseProfile="full" viewBox="0 0 200 200" width="200" height="200">
<g fill="black">
<path d="M 48.9 16.0 L 51.9 18.0 L 48.9 19.8 L 48.9 183.0 L 36.9 189.0 L 36.9 14.0 Z M 158.1 183.5 L 148.4 179.4 L 139.4 174.1 L 131.2 167.8 L 127.74233665466309 164.4788233757019 L 124.8 166.8 L 115.3 173.0 L 105.3 178.4 L 94.7 182.9 L 83.7 186.4 L 72.2 188.8 L 71.7 187.1 L 82.5 182.8 L 92.6 178.0 L 102.2 172.6 L 111.2 166.7 L 119.6 160.1 L 121.71851329803467 158.16920309066774 L 116.9 152.2 L 110.9 142.9 L 105.7 132.6 L 101.79473686218262 122.0 L 88.0 122.0 L 88.0 118.0 L 122.0 118.0 L 122.0 74.0 L 98.0 74.0 L 98.0 70.0 L 138.0 70.0 L 148.0 60.0 L 160.0 70.0 L 160.0 74.0 L 134.0 74.0 L 137.0 76.0 L 134.0 77.8 L 134.0 95.0 L 153.8181818008423 95.0 L 162.0 86.0 L 172.0 95.0 L 172.0 99.0 L 134.0 99.0 L 134.0 118.0 L 153.0 118.0 L 153.23225803375243 117.80645160675049 L 153.7 117.0 L 153.99863481521606 117.16780433654785 L 159.0 113.0 L 170.0 122.0 L 165.0 125.0 L 162.0132158279419 126.24449338912964 L 157.4 133.3 L 150.1 142.9 L 142.2 151.7 L 134.7553879737854 158.79010667800904 L 136.9 160.5 L 144.8 165.4 L 153.0 169.3 L 161.7 172.3 L 170.9 174.3 L 180.6 175.4 L 191.2 176.4 L 179.3 188.5 L 168.4 186.6 Z M 109.4 130.6 L 115.8 139.6 L 122.5 147.6 L 127.6431372642517 152.74313726425171 L 134.8 144.9 L 141.6 136.3 L 147.9 127.0 L 150.8 122.0 L 104.12079210281372 122.0 Z M 11.3 101.3 L 9.1 97.4 L 10.2 92.9 L 11.7 91.3 L 13.3 89.2 L 14.8 86.7 L 16.4 83.7 L 17.9 80.2 L 19.4 76.4 L 20.9 72.1 L 22.4 67.4 L 24.0 62.3 L 25.3 56.8 L 27.1 57.0 L 27.2 62.8 L 27.1 68.2 L 26.8 73.3 L 26.4 78.0 L 25.7 82.5 L 24.9 86.6 L 23.9 90.4 L 22.7 93.9 L 21.4 97.2 L 19.7 100.2 L 15.8 102.4 Z M 170.1 72.9 L 164.4 68.7 L 158.8 64.0 L 153.5 58.9 L 148.3 53.3 L 143.5 47.3 L 138.8 40.8 L 134.6 33.8 L 131.06223039627076 26.81756010055542 L 130.6 27.7 L 125.7 35.8 L 120.3 43.5 L 114.4 50.7 L 108.0 57.5 L 101.1 64.0 L 93.7 69.9 L 85.8 75.4 L 78.09010496139527 79.93523235321045 L 78.3 80.4 L 77.7 84.9 L 74.2 87.8 L 69.7 87.3 L 66.8 83.7 L 66.3 81.2 L 65.7 78.5 L 64.9 75.7 L 63.9 72.9 L 62.7 70.0 L 61.2 67.0 L 59.6 64.0 L 57.9 60.8 L 56.0 57.5 L 53.6 54.3 L 54.9 53.0 L 58.0 55.6 L 61.2 58.0 L 64.1 60.5 L 66.7 63.1 L 69.2 65.8 L 71.4 68.6 L 73.4 71.4 L 75.3 74.3 L 76.3698673248291 76.30600128173828 L 82.6 71.1 L 89.4 64.9 L 95.8 58.5 L 101.7 51.8 L 107.1 44.9 L 112.1 37.7 L 116.5 30.2 L 120.5 22.5 L 124.1 14.4 L 124.10767879486085 14.403451919555664 L 124.6 13.2 L 135.0 19.3 L 137.0 22.3 L 133.15044250488282 22.830973434448243 L 131.61951217651367 25.75365858078003 L 132.3 25.3 L 137.9 31.4 L 143.4 37.1 L 148.9 42.5 L 154.3 47.4 L 159.7 51.9 L 165.2 56.0 L 170.7 59.6 L 176.3 62.8 L 181.9 65.6 L 187.6 67.9 L 193.7 70.6 L 182.3 80.0 L 176.1 76.7 Z " />
</g>
</svg>
