<svg xmlns="http://www.w3.org/2000/svg" xmlns:xlink="http://www.w3.org/1999/xlink" version="1.1" baseProfile="full" viewBox="0 0 200 200" width="200" height="200">
<g fill="black">
<path d="M 73.4 182.1 L 70.9 181.7 L 68.5 180.8 L 66.2 179.6 L 64.2 178.0 L 62.6 176.0 L 61.3 173.7 L 60.5 171.3 L 60.1 168.8 L 60.0 166.2 L 60.0 137.5 L 72.0 139.5 L 75.0 141.5 L 72.0 143.3 L 72.0 167.5 L 72.2 168.4 L 72.5 169.3 L 72.7 169.5 L 72.9 169.6 L 73.2 169.8 L 73.8 170.0 L 74.7 170.2 L 141.0 170.2 L 147.0 145.2 L 149.0 145.2 L 147.0 170.2 L 150.6 172.6 L 153.0 176.2 L 150.6 179.8 L 147.0 182.2 L 76.0 182.2 Z M 15.2 174.6 L 15.0 170.0 L 18.1 166.6 L 20.9 165.4 L 23.4 164.0 L 25.8 162.3 L 27.9 160.2 L 29.8 157.8 L 31.6 154.9 L 33.1 151.6 L 34.4 147.8 L 35.5 143.5 L 36.1 138.8 L 37.9 138.7 L 38.5 143.6 L 38.9 148.3 L 38.8 152.8 L 38.1 157.1 L 36.9 161.2 L 35.2 165.1 L 33.0 168.7 L 30.2 172.0 L 27.0 174.9 L 23.3 177.4 L 18.7 177.6 Z M 170.4 163.5 L 168.9 160.7 L 167.1 157.9 L 164.9 155.1 L 162.4 152.2 L 159.4 149.3 L 156.2 146.4 L 152.5 143.4 L 148.4 140.5 L 149.2 138.9 L 154.1 140.6 L 158.6 142.4 L 162.9 144.5 L 166.8 146.7 L 170.4 149.2 L 173.7 151.9 L 176.6 154.8 L 179.3 157.8 L 181.6 161.1 L 183.5 164.6 L 183.3 169.2 L 180.0 172.4 L 175.4 172.2 L 172.3 168.9 L 171.5 166.2 Z M 108.4 152.8 L 106.6 150.5 L 104.5 148.2 L 102.3 146.0 L 99.8 143.8 L 97.1 141.6 L 94.2 139.4 L 91.1 137.2 L 87.6 135.2 L 88.2 133.6 L 92.2 134.6 L 96.1 135.5 L 99.8 136.6 L 103.3 138.0 L 106.7 139.6 L 109.9 141.3 L 112.9 143.3 L 115.8 145.4 L 118.5 147.8 L 121.0 150.3 L 122.0 154.7 L 119.7 158.7 L 115.3 159.7 L 111.3 157.4 L 110.0 155.1 Z M 177.92799997329712 99.1 L 130.0 99.1 L 130.0 121.0 L 130.2 121.9 L 130.5 122.8 L 130.9 123.2 L 131.8 123.5 L 132.7 123.7 L 134.0 123.8 L 172.0 123.8 Z M 20.1 80.4 L 27.9 79.5 L 36.0 78.7 L 44.4 77.9 L 53.1 77.1 L 56.0 76.84222221374512 L 56.0 65.7 L 22.0 65.7 L 22.0 61.7 L 56.0 61.7 L 56.0 47.8 L 68.0 49.8 L 71.0 51.8 L 68.0 53.6 L 68.0 61.7 L 80.81818180084228 61.7 L 89.0 52.7 L 99.0 61.7 L 99.0 65.7 L 68.0 65.7 L 68.0 75.86063833236695 L 71.5 75.6 L 81.1 74.9 L 91.0 74.2 L 101.3 73.8 L 111.8 73.5 L 112.1 75.3 L 101.7 77.5 L 91.7 79.6 L 81.9 81.4 L 72.4 83.1 L 63.2 84.8 L 54.4 86.3 L 45.8 87.9 L 37.5 89.4 L 29.5 90.8 L 25.83782539367676 91.46584987640381 L 24.2 94.9 L 21.8 92.2 L 18.1 80.6 Z M 96.0 81.6 L 133.0 81.6 L 133.0 65.7 L 109.0 65.7 L 109.0 61.7 L 133.0 61.7 L 133.0 47.8 L 145.0 49.8 L 148.0 51.8 L 145.0 53.6 L 145.0 61.7 L 159.8181818008423 61.7 L 168.0 52.7 L 178.0 61.7 L 178.0 65.7 L 145.0 65.7 L 145.0 81.6 L 170.7777777671814 81.6 L 177.0 74.6 L 185.0 81.6 L 185.0 85.6 L 96.0 85.6 Z M 24.0 41.8 L 95.0 41.8 L 95.0 29.5 L 37.0 29.5 L 37.0 25.5 L 95.0 25.5 L 95.0 11.6 L 107.0 13.6 L 110.0 15.6 L 107.0 17.4 L 107.0 25.5 L 146.8181818008423 25.5 L 155.0 16.5 L 165.0 25.5 L 165.0 29.5 L 107.0 29.5 L 107.0 41.8 L 163.7777777671814 41.8 L 170.0 34.8 L 178.0 41.8 L 178.0 45.8 L 24.0 45.8 Z M 184.0 129.8 L 181.6 133.4 L 178.0 135.8 L 134.0 135.8 L 131.4 135.6 L 128.9 135.2 L 126.5 134.4 L 124.2 133.1 L 122.2 131.5 L 120.6 129.5 L 119.3 127.2 L 118.5 124.8 L 118.1 122.3 L 118.0 119.8 L 118.0 99.1 L 87.22622947692871 99.1 L 92.0 101.9 L 93.9 104.9 L 89.90568180084229 105.39053030014038 L 88.4 107.9 L 83.9 113.4 L 78.5 118.3 L 72.3 122.7 L 65.4 126.4 L 57.7 129.7 L 49.2 132.4 L 39.9 134.5 L 29.9 136.1 L 19.1 137.0 L 18.8 135.3 L 29.1 132.4 L 38.6 129.4 L 47.1 126.1 L 54.7 122.7 L 61.3 119.0 L 67.0 115.0 L 71.9 110.8 L 75.8 106.4 L 78.8 101.8 L 80.09375 99.1 L 18.0 99.1 L 18.0 95.1 L 167.8181818008423 95.1 L 176.0 86.1 L 186.0 95.1 L 186.0 99.1 L 179.97600002288817 99.1 L 178.0 123.8 L 181.6 126.2 Z " />
</g>
</svg>
