<svg xmlns="http://www.w3.org/2000/svg" xmlns:xlink="http://www.w3.org/1999/xlink" version="1.1" baseProfile="full" viewBox="0 0 200 200" width="200" height="200">
<g fill="black">
<path d="M 74.4 182.9 L 71.9 182.5 L 69.5 181.7 L 67.2 180.5 L 65.2 178.8 L 63.6 176.8 L 62.3 174.5 L 61.5 172.1 L 61.1 169.6 L 61.0 167.1 L 61.0 134.5 L 73.0 136.5 L 76.0 138.5 L 73.0 140.3 L 73.0 168.3 L 73.2 169.2 L 73.5 170.1 L 73.9 170.5 L 74.2 170.7 L 74.8 170.8 L 75.7 171.0 L 77.0 171.1 L 141.0 171.1 L 147.0 146.1 L 149.0 146.1 L 147.0 171.1 L 150.6 173.5 L 153.0 177.1 L 150.6 180.7 L 147.0 183.1 L 77.0 183.1 Z M 14.2 171.4 L 14.2 166.8 L 17.4 163.6 L 20.6 162.4 L 23.4 161.1 L 25.9 159.5 L 28.1 157.7 L 30.0 155.5 L 31.6 153.0 L 33.0 150.1 L 34.1 146.7 L 35.0 142.8 L 35.2 138.5 L 37.0 138.3 L 37.9 142.7 L 38.5 147.0 L 38.6 151.2 L 38.0 155.3 L 36.9 159.2 L 35.1 162.9 L 32.6 166.3 L 29.6 169.4 L 26.1 172.2 L 22.0 174.6 L 17.5 174.6 Z M 171.4 161.4 L 170.0 158.9 L 168.1 156.3 L 165.8 153.7 L 163.2 151.0 L 160.1 148.3 L 156.6 145.5 L 152.8 142.6 L 148.5 139.9 L 149.2 138.2 L 154.2 139.8 L 158.9 141.4 L 163.2 143.3 L 167.3 145.3 L 170.9 147.5 L 174.3 149.9 L 177.3 152.5 L 180.0 155.3 L 182.4 158.2 L 184.3 161.4 L 184.3 166.0 L 181.1 169.3 L 176.5 169.3 L 173.3 166.1 L 172.5 163.8 Z M 108.9 143.3 L 106.6 141.3 L 104.1 139.2 L 101.4 137.2 L 98.3 135.2 L 95.1 133.2 L 91.5 131.2 L 87.8 129.2 L 83.7 127.4 L 84.1 125.6 L 88.6 126.3 L 93.0 126.9 L 97.2 127.8 L 101.2 128.9 L 105.0 130.2 L 108.6 131.6 L 112.0 133.2 L 115.2 135.0 L 118.2 136.9 L 121.1 139.1 L 122.8 143.3 L 121.1 147.6 L 116.8 149.3 L 112.6 147.6 L 110.9 145.5 Z M 77.5 118.3 L 75.5 119.6 L 71.3 121.6 L 69.1 122.3 L 66.8 122.9 L 64.5 123.3 L 62.1 123.6 L 59.8 123.7 L 59.8 117.7 L 43.8 114.7 L 43.8 111.7 L 59.8 111.7 L 62.8 111.5 L 64.2 111.2 L 65.6 110.8 L 66.9 110.4 L 69.5 109.2 L 70.7 108.4 L 71.9 107.5 L 72.31052627563477 107.15789470672607 L 72.6 106.0 L 73.125 103.2 L 35.87584743499756 103.2 L 34.1 115.9 L 21.4 120.2 L 27.669891166687012 75.5 L 16.2 75.5 L 16.2 71.5 L 28.2309552192688 71.5 L 32.64975986480713 39.9969708442688 L 30.2 43.1 L 27.0 46.8 L 23.5 50.1 L 19.8 53.2 L 15.8 56.0 L 14.5 54.7 L 17.2 50.8 L 19.6 46.8 L 21.9 42.9 L 24.1 39.0 L 26.1 35.0 L 27.9 30.9 L 29.5 26.8 L 31.0 22.5 L 32.2 18.2 L 33.0529242515564 14.71076421737671 L 33.0 14.7 L 33.27027025222778 13.82162160873413 L 33.3 13.7 L 33.30705089569092 13.702084636688232 L 33.8 12.1 L 44.8 17.1 L 47.1 19.9 L 43.37593050003052 20.897518634796143 L 43.0 21.9 L 40.9 26.6 L 39.59090909957886 29.0 L 77.1 29.0 L 87.1 19.0 L 99.1 29.0 L 99.1 33.0 L 37.30952377319336 33.0 L 36.0 35.2 L 33.97107563018799 38.17092494964599 L 42.842105293273924 44.3 L 77.7 44.3 L 83.7 39.3 L 94.7 48.3 L 89.7 51.3 L 89.35152835845948 51.445196533203124 L 89.0 58.3 L 88.4 68.9 L 88.2357894897461 71.5 L 92.2 71.5 L 96.7 65.5 L 102.7 71.5 L 102.7 75.5 L 87.9831579208374 75.5 L 87.8 78.4 L 87.1 86.7 L 86.5 93.8 L 85.86999998092651 99.2 L 89.1 99.2 L 93.6 93.2 L 99.6 99.2 L 99.6 103.2 L 85.31428575515747 103.2 L 85.1 104.7 L 84.3 108.7 L 83.4 111.8 L 81.2 115.4 L 79.4 116.9 Z M 166.4 112.1 L 165.0 114.2 L 163.4 116.0 L 161.4 117.6 L 159.3 118.9 L 157.1 119.9 L 154.7 120.6 L 152.2 121.0 L 149.7 121.1 L 149.7 115.1 L 129.7 112.1 L 129.7 109.1 L 151.0 109.1 L 152.1 108.9 L 153.0 108.6 L 153.8 108.3 L 154.4 107.9 L 155.0 107.4 L 155.5 106.8 L 156.1 106.0 L 156.6 105.0 L 157.1 103.8 L 157.5 102.2 L 157.9 100.0 L 158.3 97.3 L 158.7 94.1 L 159.0 90.4 L 159.2 86.3 L 159.3 81.7 L 159.4 76.6 L 159.4 67.1 L 143.62727270126342 67.1 L 143.0 74.0 L 141.4 82.1 L 139.1 89.6 L 136.1 96.5 L 132.3 102.5 L 127.8 107.9 L 122.7 112.3 L 117.0 115.9 L 110.7 118.6 L 103.9 120.3 L 103.3 118.6 L 109.0 115.2 L 114.0 111.5 L 118.4 107.4 L 122.1 102.9 L 125.1 98.0 L 127.6 92.6 L 129.6 86.6 L 130.9 80.0 L 131.7 72.8 L 131.77307691574097 67.1 L 117.9 67.1 L 117.9 63.1 L 159.4 63.1 L 165.4 58.1 L 176.4 67.1 L 171.4 70.1 L 171.38371772766112 70.10678424835206 L 171.4 71.1 L 171.4 76.7 L 171.3 82.0 L 171.2 86.8 L 170.9 91.2 L 170.6 95.2 L 170.2 98.8 L 169.8 102.0 L 169.2 104.9 L 168.5 107.5 L 167.5 109.9 Z M 39.74915256500244 75.5 L 36.435169506072995 99.2 L 73.76000003814697 99.2 L 73.9 98.3 L 74.5 92.6 L 75.2 85.6 L 75.8 77.5 L 75.9290322303772 75.5 Z M 55.6 89.9 L 55.1 88.5 L 54.4 87.1 L 53.5 85.7 L 52.4 84.3 L 51.1 82.8 L 49.6 81.3 L 47.7 80.3 L 48.3 78.7 L 50.5 79.3 L 52.7 79.6 L 54.9 80.1 L 57.0 80.8 L 59.0 81.7 L 60.9 82.8 L 62.7 84.1 L 64.4 85.5 L 66.0 87.2 L 67.4 89.1 L 67.4 93.6 L 64.2 96.9 L 59.7 96.9 L 56.4 93.8 L 56.0 91.2 Z M 43.55254240036011 48.3 L 40.30847454071045 71.5 L 76.18709678649903 71.5 L 76.4 68.2 L 77.0 57.7 L 77.56239318847656 48.3 Z M 139.0 23.8 L 141.3 26.6 L 137.56727447509766 27.599837207794188 L 136.7 29.9 L 134.2 35.8 L 131.3 41.3 L 128.2 46.5 L 124.8 51.5 L 121.1 56.1 L 117.1 60.4 L 112.8 64.3 L 108.2 67.7 L 103.2 70.7 L 102.1 69.3 L 105.6 64.9 L 108.9 60.6 L 112.1 56.2 L 115.0 51.6 L 117.6 46.9 L 120.1 42.0 L 122.3 37.0 L 124.3 31.7 L 126.0 26.2 L 127.25994920730591 21.412193012237548 L 127.2 21.4 L 128.0 18.9 Z M 58.5 63.6 L 58.3 62.5 L 58.0 61.3 L 57.4 60.0 L 56.7 58.7 L 55.8 57.3 L 54.8 55.9 L 53.5 54.5 L 51.8 53.6 L 52.5 51.9 L 54.4 52.6 L 56.5 52.9 L 58.4 53.4 L 60.4 54.0 L 62.2 54.8 L 63.9 55.8 L 65.6 57.0 L 67.1 58.3 L 68.5 59.9 L 69.7 61.6 L 69.5 66.2 L 66.1 69.3 L 61.6 69.0 L 58.4 65.7 L 58.5 64.7 Z M 170.3 60.8 L 166.5 56.1 L 163.0 51.1 L 159.8 45.8 L 157.0 40.1 L 154.6 34.2 L 152.6 28.0 L 151.0 21.4 L 150.0 14.5 L 151.8 14.0 L 154.9 20.0 L 158.0 25.7 L 161.1 31.1 L 164.3 36.1 L 167.7 40.7 L 171.2 45.0 L 174.8 48.9 L 178.7 52.5 L 182.7 55.7 L 186.8 58.6 L 190.0 60.9 L 179.0 69.2 L 174.5 65.2 Z " />
</g>
</svg>
