<svg xmlns="http://www.w3.org/2000/svg" xmlns:xlink="http://www.w3.org/1999/xlink" version="1.1" baseProfile="full" viewBox="0 0 200 200" width="200" height="200">
<g fill="black">
<path d="M 140.3 177.2 L 154.3 177.2 L 155.5 177.1 L 156.4 177.0 L 157.0 176.8 L 157.3 176.6 L 157.5 176.4 L 157.7 176.3 L 157.9 175.9 L 158.0 175.3 L 158.2 174.4 L 158.3 173.2 L 158.3 158.1 L 101.6 158.1 L 101.6 183.5 L 89.6 189.5 L 89.6 105.5 L 101.6 111.5 L 158.3 111.5 L 164.3 106.5 L 175.3 115.5 L 170.3 119.5 L 170.3 173.2 L 170.1 175.8 L 169.7 178.2 L 168.9 180.7 L 167.7 182.9 L 166.0 184.9 L 164.0 186.6 L 161.7 187.8 L 159.3 188.6 L 156.8 189.1 L 154.3 189.2 L 154.3 183.2 L 140.3 180.2 Z M 47.8 16.0 L 50.8 18.0 L 47.8 19.8 L 47.8 183.0 L 35.8 189.0 L 35.8 14.0 Z M 101.6 136.8 L 101.6 154.1 L 158.3 154.1 L 158.3 136.8 Z M 101.6 115.5 L 101.6 132.8 L 158.3 132.8 L 158.3 115.5 Z M 134.2 14.6 L 137.2 16.6 L 134.2 18.4 L 134.2 30.9 L 164.3 30.9 L 174.3 20.9 L 186.3 30.9 L 186.3 34.9 L 134.2 34.9 L 134.2 50.4 L 163.7 50.4 L 169.7 45.4 L 180.7 54.4 L 175.7 58.4 L 175.7 96.5 L 163.7 102.5 L 163.7 94.5 L 95.2 94.5 L 95.2 97.5 L 83.2 103.5 L 83.2 44.4 L 95.2 50.4 L 122.2 50.4 L 122.2 12.6 Z M 11.0 101.4 L 8.7 97.4 L 9.8 93.0 L 11.3 91.4 L 12.8 89.3 L 14.4 86.7 L 15.9 83.7 L 17.4 80.3 L 18.9 76.4 L 20.3 72.1 L 21.8 67.4 L 23.3 62.4 L 24.7 56.8 L 26.5 57.0 L 26.5 68.2 L 26.3 73.3 L 25.8 78.0 L 25.2 82.4 L 24.4 86.5 L 23.5 90.3 L 22.3 93.9 L 21.0 97.1 L 19.4 100.1 L 15.5 102.4 Z M 95.2 73.9 L 95.2 90.5 L 163.7 90.5 L 163.7 73.9 Z M 64.0 78.4 L 63.2 75.7 L 62.2 72.9 L 61.0 70.0 L 59.7 67.0 L 58.1 63.9 L 56.4 60.8 L 54.6 57.5 L 52.3 54.3 L 53.6 53.0 L 56.7 55.6 L 59.8 58.0 L 62.6 60.5 L 65.2 63.1 L 67.6 65.9 L 69.8 68.6 L 71.8 71.5 L 73.6 74.4 L 75.2 77.4 L 76.5 80.4 L 76.0 85.0 L 72.4 87.8 L 67.9 87.3 L 65.0 83.7 L 64.6 81.1 Z M 95.2 54.4 L 95.2 69.9 L 163.7 69.9 L 163.7 54.4 Z " />
</g>
</svg>
