<svg xmlns="http://www.w3.org/2000/svg" xmlns:xlink="http://www.w3.org/1999/xlink" version="1.1" baseProfile="full" viewBox="0 0 200 200" width="200" height="200">
<g fill="black">
<path d="M 73.4 180.4 L 70.9 179.9 L 68.5 179.1 L 66.2 177.9 L 64.2 176.3 L 62.6 174.2 L 61.3 172.0 L 60.5 169.6 L 60.1 167.1 L 60.0 164.5 L 60.0 132.2 L 72.0 134.2 L 75.0 136.2 L 72.0 138.0 L 72.0 165.7 L 72.2 166.7 L 72.4 167.2 L 72.5 167.6 L 72.7 167.8 L 72.9 167.9 L 73.2 168.1 L 73.8 168.3 L 74.7 168.4 L 76.0 168.5 L 141.0 168.5 L 147.0 143.5 L 149.0 143.5 L 147.0 168.5 L 150.6 170.9 L 153.0 174.5 L 150.6 178.1 L 147.0 180.5 L 76.0 180.5 Z M 15.3 172.7 L 14.9 168.1 L 17.8 164.6 L 20.6 163.3 L 23.2 161.6 L 25.6 159.7 L 27.7 157.3 L 29.7 154.5 L 31.5 151.3 L 33.0 147.6 L 34.3 143.3 L 35.4 138.6 L 36.1 133.4 L 37.9 133.4 L 38.6 138.7 L 39.0 143.9 L 38.8 148.8 L 38.2 153.4 L 37.0 157.8 L 35.4 162.0 L 33.2 165.8 L 30.4 169.3 L 27.1 172.5 L 23.4 175.2 L 18.8 175.5 Z M 170.3 160.3 L 168.8 157.2 L 167.0 154.1 L 164.8 151.0 L 162.2 147.9 L 159.3 144.8 L 156.0 141.7 L 152.4 138.4 L 148.4 135.3 L 149.3 133.7 L 154.1 135.6 L 158.8 137.7 L 163.0 140.0 L 167.0 142.6 L 170.6 145.4 L 173.9 148.4 L 176.8 151.6 L 179.5 155.0 L 181.7 158.6 L 183.6 162.4 L 183.3 167.0 L 179.9 170.1 L 175.4 169.7 L 172.3 166.3 L 171.5 163.3 Z M 108.3 148.4 L 106.4 145.9 L 104.4 143.5 L 102.1 141.1 L 99.7 138.7 L 97.0 136.4 L 94.1 134.0 L 91.0 131.6 L 87.5 129.5 L 88.2 127.9 L 92.2 129.0 L 96.1 130.1 L 99.9 131.4 L 103.5 133.0 L 106.9 134.8 L 110.1 136.8 L 113.2 139.0 L 116.0 141.4 L 118.7 144.0 L 121.2 146.8 L 122.1 151.3 L 119.6 155.1 L 115.1 156.0 L 111.3 153.5 L 109.9 150.9 Z M 68.8 93.0 L 83.9 93.0 L 93.9 83.0 L 105.9 93.0 L 105.9 97.0 L 68.8 97.0 L 68.8 112.8 L 78.1 112.1 L 87.7 111.5 L 97.5 111.0 L 107.7 110.7 L 107.9 112.5 L 98.0 114.8 L 88.3 116.8 L 78.9 118.6 L 69.7 120.3 L 60.8 121.9 L 52.2 123.4 L 43.9 124.9 L 35.8 126.3 L 28.0 127.6 L 24.501157569885255 128.24452362060546 L 22.8 131.7 L 20.4 129.0 L 16.9 117.3 L 18.8 117.1 L 26.5 116.4 L 34.4 115.6 L 42.6 114.9 L 51.0 114.2 L 56.8 113.73863639831544 L 56.8 97.0 L 21.6 97.0 L 21.6 93.0 L 56.8 93.0 L 56.8 74.0 L 33.0 74.0 L 33.0 77.0 L 22.0 82.5 L 22.0 37.6 L 33.0 43.1 L 46.0 43.1 L 46.0 27.9 L 16.7 27.9 L 16.7 23.9 L 86.8 23.9 L 96.8 13.9 L 108.8 23.9 L 108.8 27.9 L 79.5 27.9 L 79.5 43.1 L 92.5 43.1 L 98.0 38.1 L 108.5 47.1 L 103.5 50.6 L 103.5 76.0 L 92.5 81.5 L 92.5 74.0 L 68.8 74.0 Z M 159.0 117.6 L 151.4 113.0 L 144.6 107.8 L 143.4525351524353 106.72656507492066 L 135.6 111.9 L 126.5 116.6 L 116.7 120.4 L 106.3 123.3 L 95.2 125.1 L 94.8 123.4 L 105.2 119.7 L 114.7 115.5 L 123.5 110.8 L 131.5 105.5 L 137.37753190994263 100.76532154083252 L 133.1 95.6 L 128.4 88.7 L 124.6 81.2 L 121.7 73.2 L 119.97882356643677 65.5 L 112.1 65.5 L 112.1 61.5 L 135.6 61.5 L 135.6 12.6 L 147.6 14.6 L 150.6 16.6 L 147.6 18.4 L 147.6 35.2 L 165.8181818008423 35.2 L 174.0 26.2 L 184.0 35.2 L 184.0 39.2 L 147.6 39.2 L 147.6 61.5 L 163.7 61.5 L 169.7 56.5 L 180.7 65.5 L 175.7 68.5 L 173.37362756729127 69.46932182312011 L 170.5 75.4 L 165.1 84.4 L 158.8 92.5 L 151.8 99.8 L 151.51071825027466 100.04419889450074 L 157.2 103.6 L 164.2 106.9 L 171.7 109.8 L 179.7 112.2 L 187.7 114.5 L 176.0 124.8 L 167.2 121.5 Z M 125.6 71.6 L 129.8 78.4 L 134.4 84.6 L 139.4 90.2 L 144.0526587486267 94.42968978881837 L 145.2 93.3 L 151.0 86.2 L 156.0 78.6 L 160.4 70.3 L 162.37333335876465 65.5 L 122.26533336639405 65.5 Z M 33.0 47.1 L 33.0 70.0 L 46.0 70.0 L 46.0 47.1 Z M 56.0 47.1 L 56.0 70.0 L 69.5 70.0 L 69.5 47.1 Z M 79.5 47.1 L 79.5 70.0 L 92.5 70.0 L 92.5 47.1 Z M 56.0 27.9 L 56.0 43.1 L 69.5 43.1 L 69.5 27.9 Z " />
</g>
</svg>
