<svg xmlns="http://www.w3.org/2000/svg" xmlns:xlink="http://www.w3.org/1999/xlink" version="1.1" baseProfile="full" viewBox="0 0 200 200" width="200" height="200">
<g fill="black">
<path d="M 73.4 182.5 L 70.9 182.1 L 68.5 181.2 L 66.2 180.0 L 64.2 178.4 L 62.6 176.4 L 61.3 174.1 L 60.5 171.7 L 60.1 169.2 L 60.0 166.6 L 60.0 134.6 L 72.0 136.6 L 75.0 138.6 L 72.0 140.4 L 72.0 167.9 L 72.2 168.8 L 72.5 169.7 L 72.7 169.9 L 72.9 170.0 L 73.2 170.2 L 73.8 170.4 L 74.7 170.6 L 141.0 170.6 L 147.0 145.6 L 149.0 145.6 L 147.0 170.6 L 150.6 173.0 L 153.0 176.6 L 150.6 180.2 L 147.0 182.6 L 76.0 182.6 Z M 15.3 174.8 L 14.9 170.2 L 17.8 166.7 L 20.7 165.4 L 23.2 163.8 L 25.6 161.9 L 27.8 159.5 L 29.7 156.8 L 31.5 153.5 L 33.0 149.8 L 34.3 145.6 L 35.4 141.0 L 36.1 135.8 L 37.9 135.7 L 38.6 141.1 L 39.0 146.2 L 38.8 151.1 L 38.2 155.7 L 37.0 160.1 L 35.4 164.2 L 33.1 168.0 L 30.4 171.5 L 27.1 174.6 L 23.4 177.3 L 18.8 177.7 Z M 170.3 162.5 L 168.8 159.4 L 167.0 156.4 L 164.8 153.3 L 162.2 150.2 L 159.3 147.1 L 156.0 144.0 L 152.4 140.8 L 148.4 137.6 L 149.3 136.1 L 154.1 138.0 L 158.7 140.0 L 163.0 142.3 L 167.0 144.9 L 170.6 147.6 L 173.9 150.6 L 176.8 153.8 L 179.5 157.2 L 181.7 160.8 L 183.6 164.6 L 183.3 169.1 L 179.9 172.2 L 175.4 171.9 L 172.3 168.5 L 171.5 165.5 Z M 108.3 150.7 L 106.4 148.2 L 104.4 145.8 L 102.2 143.4 L 99.7 141.1 L 97.0 138.7 L 94.1 136.4 L 91.0 134.0 L 87.5 132.0 L 88.2 130.3 L 92.2 131.4 L 96.1 132.5 L 99.9 133.8 L 103.5 135.4 L 106.9 137.2 L 110.1 139.1 L 113.1 141.3 L 116.0 143.7 L 118.7 146.3 L 121.2 149.0 L 122.1 153.5 L 119.6 157.4 L 115.2 158.3 L 111.3 155.8 L 109.9 153.2 Z M 186.7 121.2 L 186.7 125.2 L 76.3 125.2 L 76.3 121.2 L 168.51818180084229 121.2 L 176.7 112.2 Z M 61.4 124.1 L 59.5 125.7 L 57.6 127.1 L 55.5 128.2 L 53.3 129.2 L 51.1 130.0 L 48.7 130.5 L 46.3 130.8 L 43.8 130.9 L 43.8 124.9 L 29.8 121.9 L 29.8 118.9 L 43.8 118.9 L 45.3 118.8 L 46.6 118.7 L 47.9 118.4 L 49.0 118.0 L 50.1 117.5 L 51.1 116.9 L 52.1 116.2 L 53.1 115.4 L 54.0 114.4 L 55.0 113.3 L 55.9 111.7 L 57.0 109.6 L 58.0 107.0 L 58.9 103.8 L 59.7 100.1 L 60.4 95.9 L 61.0 91.3 L 61.5 86.1 L 61.9 80.5 L 62.03000001907348 76.6 L 31.94513511657715 76.6 L 30.6 84.5 L 17.7 88.4 L 26.1 39.6 L 35.53291139602661 46.5 L 61.2 46.5 L 61.2 23.0 L 18.1 23.0 L 18.1 19.0 L 61.2 19.0 L 67.2 14.0 L 78.2 23.0 L 73.2 27.0 L 73.2 54.5 L 61.2 60.5 L 61.2 50.5 L 36.38918914794922 50.5 L 32.62621622085571 72.6 L 62.1 72.6 L 68.1 67.6 L 79.1 76.6 L 74.1 79.6 L 73.94802112579346 79.66332454681397 L 73.9 81.2 L 73.5 87.1 L 72.9 92.6 L 72.3 97.7 L 71.5 102.4 L 70.5 106.8 L 69.4 110.7 L 68.0 114.3 L 66.4 117.5 L 64.6 120.4 L 63.1 122.3 Z M 94.7 118.0 L 94.7 74.6 L 84.7 74.6 L 84.7 70.6 L 166.6777777671814 70.6 L 172.9 63.6 L 180.9 70.6 L 180.9 74.6 L 94.9 74.6 L 106.7 80.5 L 156.3 80.5 L 162.3 75.5 L 173.3 84.5 L 168.3 88.5 L 168.3 112.0 L 156.3 118.0 L 156.3 112.0 L 106.7 112.0 Z M 106.7 98.2 L 106.7 108.0 L 125.5 108.0 L 125.5 98.2 Z M 137.5 98.2 L 137.5 108.0 L 156.3 108.0 L 156.3 98.2 Z M 106.7 84.5 L 106.7 94.2 L 125.5 94.2 L 125.5 84.5 Z M 137.5 84.5 L 137.5 94.2 L 156.3 94.2 L 156.3 84.5 Z M 94.7 66.8 L 94.7 24.6 L 106.7 30.6 L 156.3 30.6 L 162.3 25.6 L 173.3 34.6 L 168.3 38.6 L 168.3 60.8 L 156.3 66.8 L 156.3 60.8 L 106.7 60.8 Z M 106.7 47.0 L 106.7 56.8 L 125.5 56.8 L 125.5 47.0 Z M 137.5 47.0 L 137.5 56.8 L 156.3 56.8 L 156.3 47.0 Z M 106.7 34.6 L 106.7 43.0 L 125.5 43.0 L 125.5 34.6 Z M 137.5 34.6 L 137.5 43.0 L 156.3 43.0 L 156.3 34.6 Z M 183.5 20.0 L 183.5 24.0 L 81.5 24.0 L 81.5 20.0 L 165.3181818008423 20.0 L 173.5 11.0 Z " />
</g>
</svg>
