<svg xmlns="http://www.w3.org/2000/svg" xmlns:xlink="http://www.w3.org/1999/xlink" version="1.1" baseProfile="full" viewBox="0 0 200 200" width="200" height="200">
<g fill="black">
<path d="M 176.0 86.0 L 171.0 90.0 L 171.0 104.0 L 174.7777777671814 104.0 L 181.0 97.0 L 189.0 104.0 L 189.0 108.0 L 171.0 108.0 L 171.0 138.0 L 159.0 144.0 L 159.0 132.0 L 126.29130430221558 132.0 L 126.8 132.1 L 124.4 141.4 L 121.3 150.0 L 117.6 158.0 L 113.3 165.3 L 108.4 172.0 L 102.9 177.9 L 96.8 183.1 L 90.2 187.5 L 83.0 191.1 L 75.3 193.8 L 74.6 192.1 L 81.1 187.8 L 87.1 183.2 L 92.5 178.2 L 97.3 172.8 L 101.5 166.9 L 105.3 160.6 L 108.5 153.7 L 111.2 146.3 L 113.4 138.3 L 114.66000003814698 132.0 L 90.0 132.0 L 90.0 128.0 L 115.20172414779663 128.0 L 116.88275861740112 108.0 L 81.0 108.0 L 81.0 104.0 L 117.21896553039551 104.0 L 118.73189659118653 86.0 L 91.0 86.0 L 91.0 82.0 L 159.0 82.0 L 165.0 77.0 Z M 50.0 15.0 L 53.0 17.0 L 50.0 18.8 L 50.0 182.0 L 38.0 188.0 L 38.0 13.0 Z M 128.9284210205078 108.0 L 127.20210523605347 128.0 L 159.0 128.0 L 159.0 108.0 Z M 130.82736845016478 86.0 L 129.27368421554564 104.0 L 159.0 104.0 L 159.0 86.0 Z M 19.6 100.5 L 16.9 96.9 L 17.5 92.3 L 18.7 90.7 L 20.0 88.6 L 21.3 86.0 L 22.6 82.9 L 23.9 79.4 L 25.2 75.5 L 26.4 71.2 L 27.7 66.5 L 29.1 61.4 L 30.3 55.9 L 32.1 56.0 L 32.2 61.7 L 32.4 67.1 L 32.3 72.1 L 32.1 76.8 L 31.7 81.2 L 31.2 85.2 L 30.6 88.9 L 29.9 92.3 L 28.9 95.5 L 27.8 98.4 L 24.1 101.1 Z M 60.3 77.0 L 59.8 74.3 L 59.1 71.5 L 58.3 68.6 L 57.4 65.7 L 56.3 62.7 L 55.1 59.6 L 53.8 56.4 L 52.1 53.3 L 53.5 52.2 L 56.0 54.8 L 58.6 57.3 L 61.0 59.8 L 63.2 62.5 L 65.2 65.2 L 67.0 68.0 L 68.7 70.9 L 70.2 73.7 L 71.5 76.7 L 72.7 79.7 L 71.8 84.2 L 68.1 86.9 L 63.6 86.0 L 61.0 82.3 L 60.7 79.7 Z M 107.0 17.0 L 155.0 17.0 L 161.0 12.0 L 172.0 21.0 L 167.0 25.0 L 167.0 68.0 L 155.0 74.0 L 155.0 68.0 L 107.0 68.0 L 95.0 74.0 L 95.0 11.0 Z M 107.0 64.0 L 155.0 64.0 L 155.0 45.0 L 107.0 45.0 Z M 155.0 41.0 L 155.0 21.0 L 107.0 21.0 L 107.0 41.0 Z " />
</g>
</svg>
