<svg xmlns="http://www.w3.org/2000/svg" xmlns:xlink="http://www.w3.org/1999/xlink" version="1.1" baseProfile="full" viewBox="0 0 200 200" width="200" height="200">
<g fill="black">
<path d="M 50.2 16.0 L 53.2 18.0 L 50.2 19.8 L 50.2 183.0 L 38.2 189.0 L 38.2 14.0 Z M 93.4 29.0 L 93.4 29.137036991119384 L 95.5 28.8 L 103.8 27.6 L 112.0 26.5 L 120.4 25.3 L 128.8 24.0 L 137.3 22.7 L 145.8 21.2 L 154.4 19.7 L 163.1 18.0 L 170.80174646377563 16.40653524398804 L 170.8 16.4 L 170.80671806335448 16.40550661087036 L 171.8 16.2 L 172.01245937347412 17.39381914138794 L 183.0 26.4 L 183.4 29.4 L 178.90128812789916 27.120652675628662 L 173.9 28.0 L 164.9 29.2 L 156.0 30.3 L 147.1 31.2 L 138.3 31.9 L 129.7 32.5 L 121.0 32.8 L 112.5 33.0 L 104.1 33.0 L 95.7 32.6 L 93.4 32.37831325531006 L 93.4 45.0 L 171.8 45.0 L 177.8 40.0 L 188.8 49.0 L 183.8 53.0 L 183.8 72.0 L 171.8 78.0 L 171.8 70.0 L 93.4 70.0 L 93.4 96.0 L 92.9 109.2 L 92.2 121.7 L 91.1 133.2 L 89.7 143.8 L 88.0 153.6 L 85.9 162.5 L 83.4 170.5 L 80.6 177.5 L 77.4 183.5 L 73.6 188.4 L 72.1 187.5 L 73.9 181.9 L 75.6 175.7 L 77.1 168.7 L 78.4 160.9 L 79.6 152.3 L 80.4 142.8 L 81.1 132.4 L 81.4 121.1 L 81.6 109.0 L 81.4 96.0 L 81.4 23.0 Z M 182.6 146.7 L 184.6 146.7 L 182.6 171.7 L 186.2 174.1 L 188.6 177.7 L 186.2 181.3 L 182.6 183.7 L 112.6 183.7 L 110.0 183.6 L 107.5 183.1 L 105.1 182.3 L 102.8 181.1 L 100.8 179.5 L 99.2 177.4 L 98.0 175.2 L 97.2 172.8 L 96.7 170.3 L 96.6 167.7 L 96.6 112.6 L 108.6 118.6 L 165.3 118.6 L 171.3 113.6 L 182.3 122.6 L 177.3 126.6 L 177.3 152.4 L 165.3 158.4 L 165.3 148.4 L 108.6 148.4 L 108.6 169.0 L 108.8 169.9 L 109.0 170.5 L 109.2 170.8 L 109.3 171.0 L 109.5 171.1 L 109.8 171.3 L 110.4 171.5 L 111.3 171.7 L 176.6 171.7 Z M 108.6 122.6 L 108.6 144.4 L 131.2 144.4 L 131.2 122.6 Z M 143.2 122.6 L 143.2 144.4 L 165.3 144.4 L 165.3 122.6 Z M 119.0 82.3 L 155.5 82.3 L 161.5 77.3 L 172.5 86.3 L 167.5 90.3 L 167.5 107.1 L 155.5 113.1 L 155.5 107.1 L 119.0 107.1 L 107.0 113.1 L 107.0 76.3 Z M 119.0 86.3 L 119.0 103.1 L 155.5 103.1 L 155.5 86.3 Z M 11.7 101.3 L 9.5 97.3 L 10.7 92.9 L 12.2 91.3 L 13.8 89.2 L 15.4 86.6 L 17.0 83.7 L 18.6 80.2 L 20.1 76.4 L 21.6 72.1 L 23.2 67.4 L 24.7 62.3 L 26.1 56.8 L 27.9 57.0 L 27.9 68.2 L 27.6 73.3 L 27.1 78.1 L 26.4 82.5 L 25.5 86.6 L 24.5 90.5 L 23.2 94.0 L 21.8 97.3 L 20.1 100.3 L 16.1 102.5 Z M 67.9 78.5 L 67.0 75.8 L 65.9 73.0 L 64.7 70.1 L 63.2 67.1 L 61.5 64.0 L 59.7 60.8 L 57.7 57.5 L 55.3 54.3 L 56.5 53.0 L 59.8 55.5 L 63.0 57.9 L 65.9 60.4 L 68.6 63.1 L 71.2 65.8 L 73.4 68.5 L 75.5 71.4 L 77.4 74.3 L 79.0 77.3 L 80.5 80.4 L 80.0 84.9 L 76.5 87.8 L 71.9 87.3 L 69.0 83.8 L 68.5 81.2 Z M 93.4 49.0 L 93.4 66.0 L 171.8 66.0 L 171.8 49.0 Z " />
</g>
</svg>
