<svg xmlns="http://www.w3.org/2000/svg" xmlns:xlink="http://www.w3.org/1999/xlink" version="1.1" baseProfile="full" viewBox="0 0 200 200" width="200" height="200">
<g fill="black">
<path d="M 74.4 183.2 L 71.9 182.7 L 69.5 181.9 L 67.2 180.7 L 65.2 179.1 L 63.6 177.0 L 62.3 174.8 L 61.5 172.4 L 61.1 169.9 L 61.0 167.3 L 61.0 135.4 L 73.0 137.4 L 76.0 139.4 L 73.0 141.2 L 73.0 168.5 L 73.2 169.5 L 73.4 170.0 L 73.5 170.4 L 73.7 170.6 L 73.9 170.7 L 74.2 170.9 L 74.8 171.1 L 75.7 171.2 L 77.0 171.3 L 141.0 171.3 L 147.0 146.3 L 149.0 146.3 L 147.0 171.3 L 150.6 173.7 L 153.0 177.3 L 150.6 180.9 L 147.0 183.3 L 77.0 183.3 Z M 14.2 171.8 L 14.2 167.2 L 17.4 163.9 L 20.6 162.8 L 23.4 161.5 L 25.9 159.9 L 28.1 158.1 L 30.0 156.0 L 31.7 153.6 L 33.0 150.7 L 34.2 147.4 L 35.0 143.6 L 35.2 139.4 L 37.0 139.1 L 37.9 143.5 L 38.5 147.7 L 38.6 151.9 L 38.0 155.9 L 36.8 159.8 L 35.0 163.4 L 32.6 166.8 L 29.6 169.9 L 26.1 172.6 L 22.0 175.0 L 17.5 174.9 Z M 171.5 161.9 L 170.0 159.5 L 168.1 156.9 L 165.9 154.3 L 163.2 151.7 L 160.1 149.0 L 156.7 146.3 L 152.8 143.4 L 148.5 140.7 L 149.2 139.1 L 154.2 140.7 L 158.9 142.2 L 163.2 144.0 L 167.2 146.0 L 170.9 148.2 L 174.2 150.5 L 177.3 153.0 L 180.0 155.7 L 182.3 158.7 L 184.3 161.8 L 184.3 166.4 L 181.1 169.7 L 176.6 169.7 L 173.3 166.5 L 172.5 164.3 Z M 108.9 144.2 L 106.7 142.2 L 104.2 140.1 L 101.4 138.1 L 98.4 136.1 L 95.1 134.2 L 91.5 132.2 L 87.8 130.2 L 83.7 128.4 L 84.1 126.7 L 88.6 127.3 L 93.0 127.9 L 97.2 128.8 L 101.2 129.8 L 104.9 131.1 L 108.5 132.5 L 111.9 134.1 L 115.1 135.8 L 118.2 137.7 L 121.0 139.8 L 122.8 144.1 L 121.1 148.3 L 116.9 150.0 L 112.6 148.4 L 110.9 146.3 Z M 77.0 19.5 L 78.3 22.9 L 74.50769233703613 22.6384614944458 L 71.6 26.3 L 66.0 33.0 L 60.2 39.5 L 54.1 45.8 L 53.8 46.0859375 L 53.8 118.3 L 41.8 124.3 L 41.8 57.174242401123045 L 41.1 57.8 L 34.1 63.6 L 26.9 69.1 L 19.4 74.3 L 11.5 79.2 L 10.4 77.8 L 17.0 71.4 L 23.5 65.0 L 29.7 58.7 L 35.8 52.4 L 41.6 46.0 L 41.8 45.76785717010498 L 41.8 44.9 L 42.54769229888916 44.9 L 47.2 39.5 L 52.6 32.9 L 57.7 26.2 L 62.5 19.5 L 67.1 12.6 L 67.12275857925415 12.615862083435058 L 67.6 11.9 Z M 100.8 110.5 L 116.2 110.5 L 117.2 110.4 L 117.8 110.3 L 118.2 110.1 L 118.5 110.0 L 118.6 109.8 L 118.8 109.6 L 119.0 109.1 L 119.2 108.4 L 119.4 107.3 L 119.5 106.0 L 119.5 42.0 L 120.51875 42.18522729873657 L 123.8 39.6 L 126.9 36.9 L 130.2 34.3 L 133.4 31.9 L 140.0 27.1 L 142.8 25.0 L 81.0 25.0 L 81.0 21.0 L 148.44782609939574 21.0 L 152.9 17.8 L 153.21061754226685 18.32448539733887 L 156.0 16.0 L 167.0 25.0 L 162.0 28.0 L 150.0 33.0 L 150.0 32.327027034759524 L 148.1 33.2 L 140.7 36.4 L 133.1 39.6 L 129.3 41.0 L 125.3 42.3 L 123.90474138259887 42.8008620262146 L 130.5 44.0 L 133.2 46.0 L 130.5 47.723404216766355 L 130.5 106.0 L 130.3 108.4 L 130.0 110.7 L 129.3 113.0 L 128.3 115.1 L 126.9 117.1 L 125.1 118.7 L 123.1 120.0 L 120.9 120.8 L 118.6 121.3 L 116.2 121.5 L 116.2 116.0 L 100.8 113.2 Z M 162.2 106.9 L 159.89074077606202 103.0777777671814 L 157.7 105.1 L 152.1 109.5 L 146.1 113.3 L 139.7 116.5 L 132.8 119.0 L 125.6 120.9 L 125.0 119.2 L 131.3 115.6 L 137.1 111.8 L 142.4 107.8 L 147.4 103.5 L 151.9 99.0 L 154.89082565307618 95.33623857498169 L 153.6 93.4 L 150.7 89.3 L 147.9 85.5 L 145.1 81.9 L 142.4 78.3 L 140.31999998092653 75.5 L 136.4 75.5 L 136.4 71.5 L 151.8 71.5 L 151.8 34.3 L 163.8 36.3 L 166.8 38.3 L 163.8 40.1 L 163.8 51.4 L 168.9777777671814 51.4 L 175.2 44.4 L 183.2 51.4 L 183.2 55.4 L 163.8 55.4 L 163.8 71.5 L 167.8 71.5 L 173.8 66.5 L 184.8 75.5 L 179.8 78.5 L 177.5216848373413 79.44929800033569 L 175.9 82.6 L 172.1 89.0 L 167.7 94.9 L 166.98626289367675 95.70295419692994 L 167.5 96.3 L 171.1 100.9 L 174.7 105.8 L 178.3 111.0 L 178.9 115.5 L 176.3 119.2 L 171.7 119.8 L 168.0 117.2 L 165.1 111.9 Z M 81.2 52.7 L 98.2 52.7 L 103.7 47.7 L 114.2 56.7 L 109.2 60.2 L 109.2 102.2 L 98.2 107.7 L 98.2 96.2 L 81.2 96.2 L 81.2 108.2 L 69.2 114.2 L 69.2 46.7 Z M 81.2 56.7 L 81.2 92.2 L 98.2 92.2 L 98.2 56.7 Z M 148.8 78.0 L 152.6 81.0 L 156.4 84.3 L 160.1 88.0 L 160.12426233291626 88.0262294769287 L 162.9 83.4 L 165.8 77.5 L 166.60645160675048 75.5 L 144.9 75.5 Z " />
</g>
</svg>
