<svg xmlns="http://www.w3.org/2000/svg" xmlns:xlink="http://www.w3.org/1999/xlink" version="1.1" baseProfile="full" viewBox="0 0 200 200" width="200" height="200">
<g fill="black">
<path d="M 73.4 179.8 L 70.9 179.4 L 68.5 178.6 L 66.2 177.3 L 64.2 175.7 L 62.6 173.7 L 61.3 171.4 L 60.5 169.0 L 60.1 166.5 L 60.0 163.9 L 60.0 132.4 L 72.0 134.4 L 75.0 136.4 L 72.0 138.2 L 72.0 165.2 L 72.2 166.1 L 72.5 167.0 L 72.7 167.2 L 72.9 167.3 L 73.2 167.5 L 73.8 167.7 L 74.7 167.9 L 141.0 167.9 L 147.0 142.9 L 149.0 142.9 L 147.0 167.9 L 150.6 170.3 L 153.0 173.9 L 150.6 177.5 L 147.0 179.9 L 76.0 179.9 Z M 15.3 172.1 L 15.0 167.6 L 17.9 164.1 L 20.7 162.8 L 23.3 161.2 L 25.6 159.3 L 27.8 157.0 L 29.7 154.3 L 31.5 151.1 L 33.0 147.5 L 34.3 143.3 L 35.4 138.7 L 36.1 133.6 L 37.9 133.6 L 38.6 138.8 L 39.0 143.9 L 38.8 148.7 L 38.2 153.3 L 37.0 157.6 L 35.3 161.7 L 33.1 165.5 L 30.4 169.0 L 27.1 172.0 L 23.4 174.7 L 18.8 175.0 Z M 170.3 160.0 L 168.8 157.0 L 167.0 154.0 L 164.8 151.0 L 162.3 147.9 L 159.3 144.8 L 156.1 141.7 L 152.5 138.5 L 148.4 135.5 L 149.3 133.9 L 154.1 135.8 L 158.7 137.8 L 163.0 140.0 L 166.9 142.5 L 170.5 145.3 L 173.8 148.2 L 176.8 151.3 L 179.4 154.7 L 181.7 158.2 L 183.6 162.0 L 183.3 166.5 L 179.9 169.6 L 175.4 169.3 L 172.3 165.9 L 171.5 163.0 Z M 108.3 148.4 L 106.5 146.0 L 104.4 143.5 L 102.2 141.2 L 99.7 138.8 L 97.0 136.5 L 94.1 134.2 L 91.0 131.9 L 87.5 129.8 L 88.2 128.2 L 92.2 129.2 L 96.1 130.3 L 99.9 131.6 L 103.4 133.1 L 106.8 134.9 L 110.1 136.8 L 113.1 139.0 L 116.0 141.3 L 118.7 143.9 L 121.2 146.6 L 122.1 151.1 L 119.7 154.9 L 115.2 155.9 L 111.3 153.4 L 109.9 150.9 Z M 49.3 80.5 L 150.6 80.5 L 156.6 75.5 L 167.6 84.5 L 162.6 88.5 L 162.6 122.1 L 150.6 128.1 L 150.6 122.1 L 49.3 122.1 L 37.3 128.1 L 37.3 74.5 Z M 49.3 102.7 L 49.3 118.1 L 150.6 118.1 L 150.6 102.7 Z M 49.3 84.5 L 49.3 98.7 L 150.6 98.7 L 150.6 84.5 Z M 139.5 68.9 L 137.1 68.6 L 134.8 67.9 L 132.6 66.8 L 130.6 65.3 L 128.9 63.5 L 127.6 61.3 L 126.7 59.0 L 126.2 56.5 L 126.0 54.0 L 126.0 29.0 L 106.58904113769532 29.0 L 106.0 33.3 L 103.9 40.2 L 100.5 46.5 L 96.0 52.2 L 90.5 57.2 L 84.0 61.5 L 76.5 65.3 L 68.0 68.4 L 58.6 71.0 L 48.2 72.8 L 47.7 71.1 L 57.5 67.3 L 66.0 63.5 L 73.5 59.4 L 79.8 55.2 L 84.9 50.7 L 88.9 46.1 L 91.9 41.4 L 93.8 36.5 L 94.8 31.4 L 94.88888893127441 29.0 L 72.30857143402099 29.0 L 71.1 33.7 L 68.3 40.1 L 64.4 45.9 L 59.5 50.9 L 53.7 55.2 L 47.0 58.7 L 39.5 61.6 L 31.2 63.7 L 22.1 65.2 L 12.1 65.8 L 11.8 64.1 L 21.3 61.4 L 29.7 58.6 L 37.1 55.4 L 43.5 52.0 L 48.7 48.2 L 53.0 44.2 L 56.3 39.9 L 58.7 35.4 L 60.2 30.5 L 60.426415061950685 29.0 L 25.0 29.0 L 25.0 25.0 L 61.0 25.0 L 61.0 10.0 L 73.0 12.0 L 76.0 14.0 L 73.0 15.8 L 73.0 25.0 L 95.0 25.0 L 95.0 10.0 L 107.0 12.0 L 110.0 14.0 L 107.0 15.8 L 107.0 25.0 L 126.0 25.0 L 132.0 20.0 L 143.0 29.0 L 138.0 33.0 L 138.0 54.0 L 137.9 55.2 L 138.0 56.1 L 138.1 56.8 L 138.3 57.6 L 138.5 57.9 L 138.9 58.2 L 139.6 58.5 L 140.6 58.8 L 142.0 59.0 L 175.0 59.0 L 180.0 42.0 L 182.0 42.0 L 180.0 59.0 L 183.0 61.0 L 185.0 64.0 L 183.0 67.0 L 180.0 69.0 L 142.0 69.0 Z " />
</g>
</svg>
