<svg xmlns="http://www.w3.org/2000/svg" xmlns:xlink="http://www.w3.org/1999/xlink" version="1.1" baseProfile="full" viewBox="0 0 200 200" width="200" height="200">
<g fill="black">
<path d="M 73.4 181.8 L 70.9 181.4 L 68.5 180.6 L 66.2 179.3 L 64.2 177.7 L 62.6 175.7 L 61.3 173.4 L 60.5 171.0 L 60.1 168.5 L 60.0 166.0 L 60.0 124.0 L 72.0 126.0 L 75.0 128.0 L 72.0 129.8 L 72.0 167.2 L 72.2 168.1 L 72.5 169.0 L 72.9 169.4 L 73.8 169.7 L 74.7 169.9 L 76.0 170.0 L 141.0 170.0 L 147.0 145.0 L 149.0 145.0 L 147.0 170.0 L 150.6 172.4 L 153.0 176.0 L 150.6 179.6 L 147.0 182.0 L 76.0 182.0 Z M 15.4 173.6 L 14.7 169.1 L 17.2 165.3 L 20.0 163.5 L 22.7 161.4 L 25.1 158.7 L 27.4 155.6 L 29.4 151.9 L 31.2 147.6 L 32.7 142.8 L 34.0 137.4 L 35.2 131.5 L 36.1 125.0 L 37.9 124.9 L 38.8 131.6 L 39.2 137.9 L 39.1 143.8 L 38.4 149.5 L 37.3 154.7 L 35.6 159.6 L 33.5 164.2 L 30.8 168.4 L 27.5 172.1 L 23.7 175.3 L 19.2 176.1 Z M 170.1 157.7 L 168.5 153.8 L 166.6 150.0 L 164.4 146.2 L 161.8 142.4 L 158.9 138.7 L 155.7 134.9 L 152.2 131.1 L 148.3 127.3 L 149.3 125.8 L 154.3 128.2 L 159.1 131.0 L 163.4 134.1 L 167.4 137.4 L 171.0 141.0 L 174.3 144.9 L 177.2 149.0 L 179.8 153.2 L 182.1 157.7 L 183.9 162.4 L 183.3 167.0 L 179.8 169.8 L 175.2 169.2 L 172.4 165.7 L 171.4 161.7 Z M 108.0 142.8 L 106.2 139.7 L 104.1 136.7 L 101.8 133.8 L 99.4 131.0 L 96.7 128.2 L 93.8 125.5 L 90.8 122.7 L 87.4 120.2 L 88.2 118.6 L 92.3 120.0 L 96.4 121.6 L 100.2 123.4 L 103.8 125.6 L 107.3 128.0 L 110.6 130.6 L 113.7 133.5 L 116.6 136.6 L 119.3 139.9 L 121.8 143.4 L 122.2 148.0 L 119.4 151.6 L 114.8 152.0 L 111.2 149.2 L 109.7 145.9 Z M 101.4 116.2 L 98.9 115.7 L 96.5 114.9 L 94.2 113.7 L 92.2 112.1 L 90.6 110.1 L 89.3 107.8 L 88.5 105.4 L 88.1 102.9 L 88.0 100.3 L 88.0 80.59715147018433 L 16.1 87.7 L 15.8 83.8 L 88.0 76.62375755310059 L 88.0 58.55663719177246 L 81.0 59.3 L 69.1 60.3 L 56.7 61.1 L 43.7 61.8 L 30.0 62.1 L 29.9 60.3 L 43.3 58.0 L 56.1 55.8 L 68.3 53.8 L 80.0 51.8 L 91.1 49.7 L 101.6 47.7 L 111.5 45.6 L 120.8 43.5 L 129.5 41.4 L 136.62171211242676 39.465707778930664 L 136.6 39.4 L 136.664719581604 39.454026794433595 L 137.6 39.2 L 137.90946407318114 40.49311790466309 L 148.1 49.0 L 148.4 52.0 L 144.1244355201721 49.98098344802857 L 140.4 50.9 L 131.9 52.5 L 122.8 54.1 L 113.2 55.5 L 103.1 56.9 L 100.0 57.24444446563721 L 100.0 75.4310302734375 L 158.82846899032592 69.58383703231812 L 167.8 58.6 L 180.8 67.4 L 181.1 71.4 L 100.0 79.41169700622558 L 100.0 101.6 L 100.2 102.5 L 100.5 103.4 L 100.7 103.6 L 100.9 103.7 L 101.2 103.9 L 101.8 104.1 L 102.7 104.3 L 173.0 104.3 L 179.0 79.3 L 181.0 79.3 L 179.0 104.3 L 182.6 106.7 L 185.0 110.3 L 182.6 113.9 L 179.0 116.3 L 104.0 116.3 Z M 13.2 54.0 L 13.3 49.5 L 16.5 46.2 L 18.5 45.8 L 20.3 45.1 L 22.0 44.2 L 23.6 43.0 L 25.1 41.5 L 26.5 39.7 L 27.7 37.4 L 28.8 34.7 L 29.8 31.5 L 30.1 28.0 L 31.9 28.0 L 32.3 31.6 L 32.48571424484253 32.9 L 94.0 32.9 L 94.0 15.2 L 106.0 17.2 L 109.0 19.2 L 106.0 21.0 L 106.0 32.9 L 170.0 32.9 L 170.67826089859008 32.33478260040283 L 170.7 32.3 L 171.6 30.8 L 172.02893886566162 31.20921754837036 L 176.0 27.9 L 187.0 36.9 L 182.0 39.9 L 173.0782608985901 43.61739130020142 L 170.4 45.2 L 167.9 46.5 L 165.3 47.9 L 162.4 49.4 L 159.4 50.8 L 156.5 52.6 L 155.4 51.2 L 157.9 48.8 L 160.0 46.3 L 162.0 43.9 L 163.8 41.6 L 165.5 39.5 L 167.1 37.5 L 167.5666666984558 36.9 L 32.8529411315918 36.9 L 32.9 38.5 L 32.5 41.8 L 31.7 44.9 L 30.5 47.9 L 28.8 50.7 L 26.6 53.3 L 24.0 55.5 L 21.0 57.4 L 16.4 57.3 Z " />
</g>
</svg>
