<svg xmlns="http://www.w3.org/2000/svg" xmlns:xlink="http://www.w3.org/1999/xlink" version="1.1" baseProfile="full" viewBox="0 0 200 200" width="200" height="200">
<g fill="black">
<path d="M 147.0 146.0 L 149.0 146.0 L 147.0 171.0 L 150.6 173.4 L 153.0 177.0 L 150.6 180.6 L 147.0 183.0 L 76.0 183.0 L 73.4 182.9 L 70.9 182.4 L 68.5 181.6 L 66.2 180.4 L 64.2 178.7 L 62.6 176.7 L 61.3 174.5 L 60.5 172.1 L 60.1 169.6 L 60.0 167.0 L 60.0 137.9 L 72.0 139.9 L 75.0 141.9 L 72.0 143.7 L 72.0 168.2 L 72.2 169.1 L 72.4 169.7 L 72.5 170.1 L 72.7 170.3 L 72.9 170.4 L 73.2 170.6 L 73.8 170.8 L 74.7 170.9 L 76.0 171.0 L 141.0 171.0 Z M 15.3 175.3 L 15.0 170.8 L 18.0 167.3 L 20.9 166.1 L 23.4 164.7 L 25.7 162.9 L 27.9 160.8 L 29.8 158.4 L 31.6 155.4 L 33.1 152.1 L 34.4 148.2 L 35.5 143.9 L 36.1 139.1 L 37.9 139.1 L 38.5 144.0 L 38.9 148.8 L 38.8 153.3 L 38.1 157.7 L 36.9 161.8 L 35.2 165.7 L 33.0 169.3 L 30.3 172.6 L 27.0 175.6 L 23.3 178.1 L 18.7 178.3 Z M 170.4 164.1 L 168.9 161.3 L 167.1 158.4 L 164.9 155.6 L 162.4 152.7 L 159.4 149.8 L 156.1 146.8 L 152.5 143.8 L 148.4 140.8 L 149.2 139.2 L 154.1 141.0 L 158.7 142.8 L 162.9 144.9 L 166.8 147.2 L 170.4 149.7 L 173.7 152.4 L 176.7 155.4 L 179.3 158.5 L 181.6 161.8 L 183.5 165.4 L 183.3 169.9 L 180.0 173.1 L 175.4 172.9 L 172.3 169.6 L 171.5 166.8 Z M 108.4 153.2 L 106.5 150.9 L 104.5 148.6 L 102.3 146.4 L 99.8 144.2 L 97.1 142.0 L 94.2 139.8 L 91.0 137.5 L 87.6 135.6 L 88.2 133.9 L 92.2 134.9 L 96.1 135.8 L 99.8 137.0 L 103.3 138.4 L 106.7 140.0 L 109.9 141.8 L 113.0 143.8 L 115.8 145.9 L 118.5 148.3 L 121.0 150.8 L 122.0 155.3 L 119.7 159.2 L 115.3 160.3 L 111.3 157.9 L 110.0 155.6 Z M 36.4 132.5 L 36.4 70.1 L 48.4 76.1 L 151.6 76.1 L 157.6 71.1 L 168.6 80.1 L 163.6 84.1 L 163.6 126.5 L 151.6 132.5 L 151.6 126.5 L 48.4 126.5 Z M 48.4 103.3 L 48.4 122.5 L 94.0 122.5 L 94.0 103.3 Z M 106.0 103.3 L 106.0 122.5 L 151.6 122.5 L 151.6 103.3 Z M 48.4 80.1 L 48.4 99.3 L 94.0 99.3 L 94.0 80.1 Z M 106.0 80.1 L 106.0 99.3 L 151.6 99.3 L 151.6 80.1 Z M 107.0 19.0 L 110.0 21.0 L 107.0 22.8 L 107.0 44.2 L 151.6 44.2 L 151.6 23.2 L 163.6 25.2 L 166.6 27.2 L 163.6 29.0 L 163.6 50.2 L 151.6 56.2 L 151.6 48.2 L 107.0 48.2 L 107.0 68.2 L 95.0 74.2 L 95.0 48.2 L 51.4 48.2 L 39.4 54.2 L 39.4 23.2 L 51.4 25.2 L 54.4 27.2 L 51.4 29.0 L 51.4 44.2 L 95.0 44.2 L 95.0 17.0 Z " />
</g>
</svg>
