<svg xmlns="http://www.w3.org/2000/svg" xmlns:xlink="http://www.w3.org/1999/xlink" version="1.1" baseProfile="full" viewBox="0 0 200 200" width="200" height="200">
<g fill="black">
<path d="M 73.4 181.8 L 70.9 181.4 L 68.5 180.6 L 66.2 179.3 L 64.2 177.7 L 62.6 175.7 L 61.3 173.4 L 60.5 171.0 L 60.1 168.5 L 60.0 166.0 L 60.0 124.0 L 72.0 126.0 L 75.0 128.0 L 72.0 129.8 L 72.0 167.2 L 72.2 168.1 L 72.5 169.0 L 72.9 169.4 L 73.8 169.7 L 74.7 169.9 L 76.0 170.0 L 141.0 170.0 L 147.0 145.0 L 149.0 145.0 L 147.0 170.0 L 150.6 172.4 L 153.0 176.0 L 150.6 179.6 L 147.0 182.0 L 76.0 182.0 Z M 15.4 173.6 L 14.7 169.1 L 17.2 165.3 L 20.0 163.5 L 22.7 161.4 L 25.1 158.7 L 27.4 155.6 L 29.4 151.9 L 31.2 147.6 L 32.7 142.8 L 34.0 137.4 L 35.2 131.5 L 36.1 125.0 L 37.9 124.9 L 38.8 131.6 L 39.2 137.9 L 39.1 143.8 L 38.4 149.5 L 37.3 154.7 L 35.6 159.6 L 33.5 164.2 L 30.8 168.4 L 27.5 172.1 L 23.7 175.3 L 19.2 176.1 Z M 170.1 157.7 L 168.5 153.8 L 166.6 150.0 L 164.4 146.2 L 161.8 142.4 L 158.9 138.7 L 155.7 134.9 L 152.2 131.1 L 148.3 127.3 L 149.3 125.8 L 154.3 128.2 L 159.1 131.0 L 163.4 134.1 L 167.4 137.4 L 171.0 141.0 L 174.3 144.9 L 177.2 149.0 L 179.8 153.2 L 182.1 157.7 L 183.9 162.4 L 183.3 167.0 L 179.8 169.8 L 175.2 169.2 L 172.4 165.7 L 171.4 161.7 Z M 108.0 142.8 L 106.2 139.7 L 104.1 136.7 L 101.8 133.8 L 99.4 131.0 L 96.7 128.2 L 93.8 125.5 L 90.8 122.7 L 87.4 120.2 L 88.2 118.6 L 92.3 120.0 L 96.4 121.6 L 100.2 123.4 L 103.8 125.6 L 107.3 128.0 L 110.6 130.6 L 113.7 133.5 L 116.6 136.6 L 119.3 139.9 L 121.8 143.4 L 122.2 148.0 L 119.4 151.6 L 114.8 152.0 L 111.2 149.2 L 109.7 145.9 Z M 73.1 81.1 L 71.9 83.3 L 70.4 85.2 L 68.7 87.0 L 66.7 88.6 L 64.6 89.8 L 62.3 90.8 L 59.9 91.4 L 57.5 91.8 L 55.0 91.9 L 55.0 85.9 L 45.0 82.9 L 45.0 79.9 L 56.3 79.9 L 57.4 79.7 L 58.4 79.4 L 59.3 79.1 L 60.0 78.6 L 60.6 78.1 L 61.032352924346924 77.72941179275513 L 62.4 74.2 L 63.0 73.6 L 63.5 72.8 L 63.6 71.5 L 63.3 69.7 L 62.3 67.4 L 60.6 64.8 L 58.3 61.9 L 55.3 58.8 L 51.7 55.4 L 47.4 52.1 L 47.4417218208313 52.02582778930664 L 46.4 50.7 L 49.4 47.2 L 52.1 43.6 L 54.7 40.2 L 57.1 37.0 L 59.2 33.9 L 61.2 30.9 L 62.9 28.1 L 64.4 25.4 L 64.45 25.3 L 35.0 25.3 L 35.0 112.8 L 23.0 118.8 L 23.0 15.3 L 35.0 21.3 L 66.0 21.3 L 66.4978723526001 20.885106372833253 L 66.7 20.4 L 66.9269624710083 20.527531242370607 L 72.0 16.3 L 83.0 25.3 L 78.0 28.3 L 74.41263160705566 29.794736862182617 L 73.0 31.4 L 70.6 34.0 L 68.0 36.5 L 65.2 39.1 L 62.1 41.7 L 58.8 44.3 L 55.3 46.9 L 51.5 49.4 L 49.24140186309815 50.92455377578735 L 53.4 52.8 L 58.1 54.9 L 62.2 57.2 L 65.8 59.5 L 68.9 62.0 L 71.4 64.7 L 73.5 67.8 L 74.8 71.3 L 75.3 75.1 L 74.7 79.0 L 74.03862066268921 79.13742942810059 Z M 171.9 25.3 L 166.9 28.3 L 165.6084125518799 28.83816146850586 L 163.45841121673584 62.3 L 168.71818180084227 62.3 L 176.9 53.3 L 186.9 62.3 L 186.9 66.3 L 163.2014019012451 66.3 L 160.52850465774537 107.9 L 164.9 107.9 L 174.9 97.9 L 186.9 107.9 L 186.9 111.9 L 75.3 111.9 L 75.3 107.9 L 104.85866050720215 107.9 L 110.23879909515381 66.3 L 80.9 66.3 L 80.9 62.3 L 110.75612010955811 62.3 L 115.54133949279785 25.3 L 89.3 25.3 L 89.3 21.3 L 154.9 21.3 L 160.9 16.3 Z M 122.3387990951538 66.3 L 116.95866050720215 107.9 L 148.55011548995972 107.9 L 151.6725172996521 66.3 Z M 127.64133949279785 25.3 L 122.8561201095581 62.3 L 151.97274827957153 62.3 L 154.7498845100403 25.3 Z " />
</g>
</svg>
