<svg xmlns="http://www.w3.org/2000/svg" xmlns:xlink="http://www.w3.org/1999/xlink" version="1.1" baseProfile="full" viewBox="0 0 200 200" width="200" height="200">
<g fill="black">
<path d="M 90.5 140.9 L 98.2 138.7 L 106.8 136.13116884231567 L 106.8 43.0 L 118.8 45.0 L 121.8 47.0 L 118.8 48.8 L 118.8 132.47922077178956 L 121.3 131.7 L 129.1 129.4 L 136.8 127.0 L 152.4 122.4 L 160.3 120.2 L 161.7 119.83249998092651 L 161.7 13.0 L 173.7 15.0 L 176.7 17.0 L 173.7 18.8 L 173.7 183.0 L 161.7 189.0 L 161.7 123.7 L 154.3 127.4 L 146.9 130.8 L 139.5 134.1 L 132.0 137.4 L 124.5 140.5 L 116.9 143.6 L 109.4 146.5 L 101.8 149.5 L 98.09603700637817 150.88281288146973 L 97.1 154.5 L 94.3 152.3 L 88.6 141.6 Z M 59.3 15.0 L 62.3 17.0 L 59.3 18.8 L 59.3 182.0 L 47.3 188.0 L 47.3 13.0 Z M 22.2 100.3 L 19.9 96.4 L 21.0 91.9 L 22.5 90.3 L 24.0 88.2 L 25.6 85.7 L 27.2 82.7 L 28.7 79.3 L 30.2 75.4 L 31.6 71.1 L 33.1 66.4 L 34.6 61.3 L 36.0 55.8 L 37.8 56.0 L 37.8 67.2 L 37.6 72.3 L 37.1 77.0 L 36.5 81.4 L 35.7 85.6 L 34.7 89.4 L 33.5 92.9 L 32.2 96.2 L 30.6 99.2 L 26.6 101.4 Z M 75.8 77.5 L 75.0 74.7 L 74.0 71.9 L 72.8 69.0 L 71.5 66.0 L 69.9 62.9 L 68.2 59.8 L 66.3 56.5 L 64.0 53.3 L 65.3 52.0 L 68.4 54.6 L 71.5 57.0 L 74.3 59.5 L 77.0 62.1 L 79.4 64.8 L 81.6 67.6 L 83.6 70.5 L 85.4 73.4 L 87.0 76.4 L 88.4 79.4 L 87.9 83.9 L 84.3 86.8 L 79.8 86.3 L 76.9 82.7 L 76.5 80.1 Z " />
</g>
</svg>
