<svg xmlns="http://www.w3.org/2000/svg" xmlns:xlink="http://www.w3.org/1999/xlink" version="1.1" baseProfile="full" viewBox="0 0 200 200" width="200" height="200">
<g fill="black">
<path d="M 46.0 16.0 L 49.0 18.0 L 46.0 19.8 L 46.0 183.0 L 34.0 189.0 L 34.0 14.0 Z M 72.2 173.9 L 123.0 173.9 L 123.0 146.8 L 80.8 146.8 L 80.8 142.8 L 123.0 142.8 L 123.0 121.3 L 135.0 123.3 L 138.0 125.3 L 135.0 127.1 L 135.0 142.8 L 155.1 142.8 L 165.1 132.8 L 177.1 142.8 L 177.1 146.8 L 135.0 146.8 L 135.0 173.9 L 163.7 173.9 L 173.7 163.9 L 185.7 173.9 L 185.7 177.9 L 72.2 177.9 Z M 154.4 113.2 L 166.4 113.2 L 167.6 113.1 L 168.5 112.9 L 169.4 112.6 L 169.8 112.2 L 170.1 111.3 L 170.3 110.4 L 170.4 109.2 L 170.4 18.0 L 182.4 20.0 L 185.4 22.0 L 182.4 23.8 L 182.4 109.2 L 182.2 111.7 L 181.8 114.2 L 181.0 116.6 L 179.7 118.9 L 178.1 120.9 L 176.1 122.5 L 173.8 123.8 L 171.4 124.6 L 168.9 125.0 L 166.4 125.2 L 166.4 119.2 L 154.4 116.2 Z M 114.5 64.4 L 114.5 30.0 L 101.8 30.0 L 101.8 64.0 L 101.77777776718139 64.4 Z M 155.9 29.0 L 158.9 31.0 L 155.9 32.8 L 155.9 98.2 L 143.9 104.2 L 143.9 27.0 Z M 10.5 101.4 L 8.2 97.5 L 9.1 93.0 L 10.6 91.4 L 12.0 89.3 L 13.5 86.8 L 15.0 83.8 L 16.5 80.3 L 17.9 76.4 L 19.3 72.1 L 20.8 67.4 L 22.3 62.4 L 23.6 56.9 L 25.4 57.0 L 25.4 62.8 L 25.5 68.2 L 25.3 73.2 L 24.8 78.0 L 24.3 82.4 L 23.6 86.5 L 22.7 90.3 L 21.6 93.8 L 20.4 97.0 L 18.9 100.0 L 15.0 102.4 Z M 61.0 78.4 L 60.2 75.6 L 59.3 72.8 L 58.2 69.9 L 56.9 66.9 L 55.5 63.9 L 53.9 60.7 L 52.2 57.4 L 50.0 54.3 L 51.3 53.1 L 54.3 55.6 L 57.3 58.0 L 60.0 60.6 L 62.5 63.2 L 64.8 65.9 L 67.0 68.7 L 68.9 71.5 L 70.6 74.5 L 72.1 77.4 L 73.5 80.5 L 72.8 85.0 L 69.3 87.8 L 64.7 87.2 L 61.9 83.6 L 61.5 81.0 Z M 76.2 30.0 L 76.2 26.0 L 115.7 26.0 L 125.7 16.0 L 137.7 26.0 L 137.7 30.0 L 125.5 30.0 L 125.5 64.4 L 130.4 64.4 L 134.9 58.4 L 140.9 64.4 L 140.9 68.4 L 125.5 68.4 L 125.5 118.2 L 114.5 123.7 L 114.5 68.4 L 101.5555555343628 68.4 L 101.3 73.0 L 100.3 81.4 L 98.8 89.2 L 96.7 96.3 L 94.2 102.7 L 91.1 108.4 L 87.5 113.4 L 83.4 117.5 L 78.8 120.7 L 73.8 122.9 L 73.0 121.4 L 76.7 117.9 L 79.9 114.1 L 82.6 109.9 L 85.0 105.2 L 87.0 99.9 L 88.5 94.0 L 89.7 87.5 L 90.5 80.3 L 90.9 72.5 L 90.85176467895508 68.4 L 73.0 68.4 L 73.0 64.4 L 90.8047059059143 64.4 L 90.8 64.0 L 90.8 30.0 Z " />
</g>
</svg>
