<svg xmlns="http://www.w3.org/2000/svg" xmlns:xlink="http://www.w3.org/1999/xlink" version="1.1" baseProfile="full" viewBox="0 0 200 200" width="200" height="200">
<g fill="black">
<path d="M 16.6 126.0 L 22.2 124.0 L 28.1 121.8 L 34.2 119.6 L 40.5 117.3 L 47.0 114.9 L 48.2 114.4880597114563 L 48.2 66.0 L 32.34545450210571 66.0 L 31.2 70.2 L 28.8 77.6 L 26.2 84.7 L 23.3 91.6 L 20.1 98.1 L 16.4 104.3 L 14.8 103.6 L 16.5 96.7 L 18.3 89.8 L 19.9 82.8 L 21.5 75.6 L 22.9 68.2 L 24.2 60.6 L 25.3 52.9 L 26.2 44.9 L 27.0 36.8 L 27.528554439544678 29.400237941741942 L 27.5 29.4 L 27.8 26.2 L 39.5 29.5 L 42.3 31.8 L 38.95465002059937 33.408341312408446 L 38.3 38.1 L 36.9 46.5 L 35.2 54.6 L 33.42025318145752 62.0 L 48.2 62.0 L 48.2 13.0 L 60.2 15.0 L 63.2 17.0 L 60.2 18.8 L 60.2 62.0 L 63.3 62.0 L 73.3 52.0 L 85.3 62.0 L 85.3 66.0 L 60.2 66.0 L 60.2 110.2785714149475 L 60.7 110.1 L 68.0 107.7 L 75.5 105.4 L 83.3 103.1 L 84.0 104.8 L 77.0 108.9 L 70.1 112.6 L 63.3 116.2 L 60.2 117.75 L 60.2 183.0 L 48.2 189.0 L 48.2 123.81612901687622 L 44.1 125.8 L 32.3 131.7 L 26.7 134.4 L 25.092291927337648 135.21902112960817 L 24.4 139.0 L 21.4 137.1 L 14.8 126.8 Z M 166.0 144.0 L 168.0 144.0 L 166.0 169.0 L 169.6 171.4 L 172.0 175.0 L 169.6 178.6 L 166.0 181.0 L 121.0 181.0 L 118.4 180.8 L 115.9 180.4 L 113.5 179.6 L 111.2 178.3 L 109.2 176.7 L 107.6 174.7 L 106.3 172.4 L 105.5 170.0 L 105.1 167.5 L 105.0 165.0 L 105.0 121.0 L 117.0 123.0 L 120.0 125.0 L 117.0 126.8 L 117.0 166.2 L 117.2 167.1 L 117.5 168.0 L 117.9 168.4 L 118.8 168.7 L 119.7 168.9 L 121.0 169.0 L 160.0 169.0 Z M 83.5 170.6 L 80.7 166.9 L 81.2 162.4 L 82.8 160.1 L 84.3 157.6 L 85.7 154.7 L 87.1 151.6 L 88.4 148.2 L 89.6 144.5 L 90.8 140.5 L 91.9 136.3 L 93.1 131.7 L 94.0 126.9 L 95.8 127.0 L 96.2 131.9 L 96.6 136.7 L 96.7 141.3 L 96.5 145.7 L 96.2 149.9 L 95.7 153.9 L 95.0 157.8 L 94.1 161.5 L 93.0 165.0 L 91.7 168.3 L 88.0 171.1 Z M 173.5 150.4 L 172.8 146.1 L 171.8 142.1 L 170.6 138.4 L 169.3 134.8 L 167.8 131.5 L 166.2 128.3 L 164.3 125.2 L 162.2 122.3 L 163.3 120.9 L 166.6 122.8 L 169.8 125.2 L 172.8 128.0 L 175.5 131.2 L 177.9 134.9 L 180.1 138.9 L 182.1 143.2 L 183.8 147.9 L 185.3 152.9 L 186.5 158.2 L 185.3 162.6 L 181.4 164.9 L 177.0 163.7 L 174.6 159.8 L 174.2 155.0 Z M 137.6 143.0 L 136.8 140.2 L 135.8 137.4 L 134.5 134.7 L 132.9 132.1 L 131.0 129.5 L 128.9 127.0 L 126.4 124.4 L 123.4 122.2 L 124.2 120.6 L 127.9 122.0 L 131.4 123.4 L 134.7 125.3 L 137.8 127.5 L 140.6 130.0 L 143.1 132.8 L 145.4 135.9 L 147.3 139.3 L 149.0 143.0 L 150.3 146.9 L 149.3 151.3 L 145.5 153.9 L 141.0 152.9 L 138.5 149.1 L 138.2 146.0 Z M 101.0 109.0 L 89.0 115.0 L 89.0 59.0 L 101.0 65.0 L 131.03454542160034 65.0 L 130.9 61.3 L 130.8 55.9 L 130.9 50.7 L 131.1 45.5 L 131.15 43.0 L 87.0 43.0 L 87.0 39.0 L 131.26000003814698 39.0 L 131.4 35.5 L 131.5 30.6 L 131.7 25.8 L 131.87872343063356 17.4 L 131.8 17.4 L 132.1 14.3 L 143.8 17.4 L 146.7 19.7 L 143.20186223983765 21.416067600250244 L 142.4 26.8 L 141.5 31.6 L 140.6 36.5 L 140.08979587554933 39.0 L 162.0 39.0 L 172.0 29.0 L 184.0 39.0 L 184.0 43.0 L 139.2862745285034 43.0 L 138.6 46.5 L 137.4 51.5 L 136.1 56.7 L 134.6 61.9 L 133.52692308425904 65.0 L 165.0 65.0 L 171.0 60.0 L 182.0 69.0 L 177.0 73.0 L 177.0 104.0 L 165.0 110.0 L 165.0 102.0 L 101.0 102.0 Z M 101.0 69.0 L 101.0 98.0 L 115.0 98.0 L 115.0 69.0 Z M 127.0 69.0 L 127.0 98.0 L 141.0 98.0 L 141.0 69.0 Z M 153.0 69.0 L 153.0 98.0 L 165.0 98.0 L 165.0 69.0 Z " />
</g>
</svg>
