<svg xmlns="http://www.w3.org/2000/svg" xmlns:xlink="http://www.w3.org/1999/xlink" version="1.1" baseProfile="full" viewBox="0 0 200 200" width="200" height="200">
<g fill="black">
<path d="M 73.4 181.8 L 70.9 181.3 L 68.5 180.5 L 66.2 179.3 L 64.2 177.7 L 62.6 175.6 L 61.3 173.4 L 60.5 171.0 L 60.1 168.5 L 60.0 165.9 L 60.0 132.3 L 72.0 134.3 L 75.0 136.3 L 72.0 138.1 L 72.0 167.1 L 72.2 168.1 L 72.4 168.6 L 72.5 169.0 L 72.7 169.2 L 72.9 169.3 L 73.2 169.5 L 73.8 169.7 L 74.7 169.8 L 76.0 169.9 L 141.0 169.9 L 147.0 144.9 L 149.0 144.9 L 147.0 169.9 L 150.6 172.3 L 153.0 175.9 L 150.6 179.5 L 147.0 181.9 L 76.0 181.9 Z M 15.3 174.0 L 14.9 169.5 L 17.7 165.9 L 20.6 164.5 L 23.1 162.8 L 25.5 160.8 L 27.7 158.3 L 29.7 155.4 L 31.4 152.0 L 33.0 148.1 L 34.3 143.8 L 35.4 138.9 L 36.1 133.5 L 37.9 133.5 L 38.6 139.0 L 39.0 144.3 L 38.9 149.3 L 38.2 154.1 L 37.1 158.6 L 35.4 162.9 L 33.2 166.8 L 30.5 170.4 L 27.2 173.6 L 23.4 176.4 L 18.9 176.8 Z M 170.3 161.1 L 168.8 158.0 L 166.9 154.8 L 164.7 151.6 L 162.2 148.4 L 159.3 145.2 L 156.0 142.0 L 152.4 138.7 L 148.4 135.4 L 149.3 133.9 L 154.2 135.9 L 158.8 138.0 L 163.1 140.4 L 167.0 143.1 L 170.6 146.0 L 173.9 149.1 L 176.9 152.4 L 179.5 156.0 L 181.8 159.7 L 183.7 163.6 L 183.3 168.2 L 179.9 171.2 L 175.3 170.9 L 172.3 167.5 L 171.4 164.3 Z M 108.2 148.9 L 106.4 146.3 L 104.4 143.8 L 102.1 141.3 L 99.6 138.9 L 97.0 136.5 L 94.1 134.1 L 91.0 131.7 L 87.5 129.5 L 88.2 127.9 L 92.2 129.0 L 96.2 130.2 L 99.9 131.6 L 103.5 133.2 L 106.9 135.1 L 110.2 137.2 L 113.2 139.5 L 116.1 142.0 L 118.8 144.7 L 121.3 147.6 L 122.1 152.1 L 119.6 155.9 L 115.1 156.7 L 111.3 154.2 L 109.9 151.5 Z M 159.3 123.9 L 151.7 121.0 L 144.7 117.6 L 139.4521951675415 114.49902439117432 L 131.8 117.9 L 123.1 121.0 L 113.7 123.6 L 103.6 125.7 L 92.9 127.1 L 92.6 125.3 L 102.7 122.0 L 112.1 118.5 L 120.8 114.9 L 128.7 111.0 L 131.85820236206055 109.17624931335449 L 126.5 104.5 L 121.6 99.1 L 117.3 93.3 L 114.1828125 87.6 L 113.43373489379883 87.6 L 110.6 93.2 L 105.7 100.8 L 100.0 107.7 L 93.5 113.8 L 86.4 119.1 L 78.5 123.5 L 70.0 127.0 L 69.2 125.4 L 76.5 120.3 L 83.1 114.8 L 89.0 109.0 L 94.1 102.8 L 98.6 96.1 L 102.4 88.9 L 105.5 81.2 L 107.84939756393433 73.4 L 81.97692308425903 73.4 L 82.1 73.6 L 81.9 78.1 L 78.6 81.3 L 74.0 81.1 L 70.8 77.8 L 70.4 75.6 L 69.8 73.5 L 69.5 72.6 L 68.5 73.0 L 63.3 74.7 L 58.1 76.2 L 56.2 76.66603775024414 L 56.2 121.9 L 44.2 127.9 L 44.2 79.43999996185303 L 36.4 81.0 L 30.9 82.0 L 25.2 82.9 L 23.67931032180786 83.11724138259888 L 21.8 86.5 L 19.6 83.7 L 16.5 71.9 L 18.5 71.8 L 24.1 71.6 L 29.7 71.3 L 33.12522325515747 71.11316967010498 L 33.9 70.1 L 37.8 65.2 L 41.8 60.3 L 45.7 55.5 L 49.6 50.8 L 53.4 46.0 L 57.2 41.3 L 60.9 36.6 L 64.5 31.8 L 67.45182514190674 27.836120510101317 L 67.4 27.8 L 68.4 26.6 L 77.3 34.7 L 78.4 38.1 L 74.67086448669434 37.58563652038574 L 73.2 39.2 L 69.0 43.6 L 64.7 48.0 L 60.3 52.3 L 55.8 56.6 L 51.2 60.8 L 46.5 64.9 L 41.6 69.0 L 39.275301170349124 70.77771081924439 L 46.2 70.4 L 51.6 70.0 L 62.4 69.4 L 67.8 69.2 L 68.2 69.2 L 67.1 67.1 L 65.9 65.0 L 64.5 62.8 L 62.9 60.6 L 61.2 58.4 L 59.0 56.6 L 59.9 55.0 L 62.6 56.4 L 65.4 57.6 L 68.0 58.9 L 70.4 60.5 L 72.8 62.3 L 74.9 64.2 L 77.0 66.3 L 78.8 68.6 L 79.36666669845582 69.4 L 108.70786514282227 69.4 L 109.8 64.0 L 110.57011489868164 57.3 L 87.9 57.3 L 87.9 53.3 L 148.1 53.3 L 150.4 50.7 L 152.3 47.8 L 154.1 45.1 L 155.7 42.5 L 157.2 39.9 L 158.5 37.4 L 159.7 34.9 L 160.6 32.5 L 161.5 30.2 L 161.8513627052307 28.853109741210936 L 161.7 28.8 L 162.06538457870482 28.03269233703613 L 162.1 27.9 L 162.12357139587402 27.91049995422363 L 162.7 26.7 L 173.1 32.8 L 175.0 35.9 L 170.5842900276184 36.43293046951294 L 169.6 37.8 L 167.6 40.1 L 165.4 42.4 L 163.1 44.6 L 160.7 46.8 L 158.0 48.8 L 155.2 50.8 L 152.2 52.6 L 151.23333330154418 53.3 L 163.3181818008423 53.3 L 171.5 44.3 L 181.5 53.3 L 181.5 57.3 L 122.54174757003784 57.3 L 120.9 66.2 L 120.04226808547973 69.4 L 168.11818180084228 69.4 L 176.3 60.4 L 186.3 69.4 L 186.3 73.4 L 118.97010307312011 73.4 L 118.3 75.9 L 115.3055555343628 83.6 L 159.1 83.6 L 159.40389614105226 83.34675321578979 L 160.0 82.4 L 160.31013517379762 82.59155406951905 L 165.1 78.6 L 176.1 87.6 L 171.1 90.6 L 167.69840641021727 92.01733064651489 L 165.6 94.8 L 160.2 100.5 L 154.1 105.6 L 149.73173913955688 108.55500001907349 L 155.6 110.6 L 162.6 112.6 L 169.9 114.1 L 177.7 115.2 L 187.5 116.7 L 175.7 128.2 L 167.2 126.3 Z M 39.2 88.8 L 41.9 91.2 L 37.994933700561525 92.79095296859741 L 36.8 96.1 L 35.2 99.7 L 33.4 103.1 L 31.3 106.5 L 29.0 109.7 L 26.5 112.9 L 23.6 115.9 L 20.5 118.7 L 17.3 121.6 L 16.0 120.5 L 18.2 116.9 L 19.9 113.2 L 21.6 109.7 L 23.0 106.3 L 24.3 102.9 L 25.3 99.6 L 26.1 96.4 L 26.7 93.2 L 27.1 90.0 L 27.23531303405762 87.90264844894409 L 27.2 87.9 L 27.257894706726074 87.5526315689087 L 27.3 86.9 L 27.36493864059448 86.91036834716797 L 27.7 84.9 Z M 69.3 102.9 L 68.7 100.6 L 67.9 98.3 L 67.0 96.1 L 65.9 93.8 L 64.6 91.5 L 63.2 89.3 L 61.6 86.9 L 59.6 85.0 L 60.7 83.5 L 63.2 85.0 L 65.9 86.3 L 68.4 87.9 L 70.8 89.7 L 73.0 91.7 L 75.1 93.8 L 77.0 96.2 L 78.7 98.7 L 80.3 101.4 L 81.7 104.2 L 81.2 108.7 L 77.7 111.7 L 73.1 111.2 L 70.2 107.7 L 69.8 105.3 Z M 117.18085107803344 87.6 L 120.5 90.6 L 125.7 94.9 L 131.1 98.9 L 136.8 102.4 L 139.86385517120362 104.0617519378662 L 142.1 102.5 L 147.7 97.8 L 152.5 92.9 L 156.6 87.8 L 156.7259259223938 87.6 Z M 32.3 50.6 L 31.3 48.7 L 30.0 46.8 L 28.5 44.9 L 26.8 42.9 L 24.8 41.0 L 22.5 39.0 L 20.1 36.9 L 17.2 35.2 L 17.9 33.5 L 21.2 34.6 L 24.4 35.4 L 27.5 36.5 L 30.4 37.7 L 32.111417293548584 38.494586658477786 L 32.7 37.7 L 34.4 34.7 L 36.2 31.8 L 41.3 23.4 L 46.1 15.3 L 47.11657238006592 13.470169734954833 L 47.0 13.4 L 48.0 11.9 L 57.3 19.6 L 58.6 23.0 L 54.4515625 22.6484375 L 50.4 26.7 L 48.0 28.9 L 45.5 31.2 L 42.9 33.4 L 40.3 35.5 L 37.6 37.6 L 34.7 39.6 L 34.468098163604736 39.780368137359616 L 35.8 40.6 L 38.2 42.3 L 40.4 44.2 L 42.4 46.2 L 44.3 48.5 L 44.7 53.0 L 41.9 56.6 L 37.3 57.0 L 33.7 54.2 L 33.1 52.4 Z M 97.4 46.9 L 97.1 45.5 L 96.5 43.9 L 95.8 42.3 L 94.9 40.6 L 93.8 38.8 L 92.6 36.9 L 91.1 34.9 L 89.2 33.3 L 90.2 31.8 L 92.4 33.2 L 94.8 34.1 L 97.1 35.1 L 99.1 36.2 L 101.1 37.4 L 102.9 38.7 L 104.6 40.2 L 106.2 41.7 L 107.6 43.4 L 108.9 45.2 L 108.7 49.8 L 105.4 52.9 L 100.8 52.7 L 97.6 49.4 L 97.6 48.2 Z M 127.4 44.5 L 127.1 43.1 L 126.7 41.6 L 125.5 38.4 L 124.6 36.8 L 123.7 35.1 L 122.6 33.4 L 121.0 32.1 L 122.0 30.6 L 123.9 31.7 L 126.0 32.4 L 128.0 33.3 L 129.8 34.3 L 131.6 35.5 L 133.3 36.8 L 134.9 38.2 L 136.3 39.8 L 137.7 41.5 L 138.9 43.3 L 138.6 47.9 L 135.2 51.0 L 130.7 50.7 L 127.6 47.3 L 127.5 46.0 Z M 169.8093632698059 13.581647968292236 L 180.0 22.0 L 180.3 25.0 L 175.94021492004396 23.001765155792235 L 172.3 23.9 L 164.7 25.3 L 156.7 26.6 L 148.3 27.8 L 139.4 28.7 L 130.2 29.5 L 120.4 30.2 L 110.3 30.6 L 99.8 30.9 L 88.8 30.8 L 77.3 30.4 L 77.2 28.6 L 88.5 27.0 L 99.4 25.5 L 109.7 24.1 L 119.7 22.6 L 129.1 21.1 L 138.1 19.5 L 146.7 17.9 L 154.7 16.1 L 162.3 14.2 L 168.51957445144654 12.558723449707031 L 168.5 12.5 L 168.5586149215698 12.548421096801757 L 169.5 12.3 Z " />
</g>
</svg>
