<svg xmlns="http://www.w3.org/2000/svg" xmlns:xlink="http://www.w3.org/1999/xlink" version="1.1" baseProfile="full" viewBox="0 0 200 200" width="200" height="200">
<g fill="black">
<path d="M 33.7 176.0 L 49.7 176.0 L 50.9 175.9 L 51.9 175.7 L 52.4 175.5 L 52.8 175.4 L 53.0 175.2 L 53.1 175.0 L 53.3 174.7 L 53.5 174.1 L 53.6 173.2 L 53.7 172.0 L 53.7 96.51538457870484 L 52.7 96.9 L 46.3 99.2 L 40.1 101.4 L 34.0 103.6 L 33.88225803375244 103.63924732208253 L 33.6 115.4 L 33.0 127.2 L 32.0 138.1 L 30.7 148.2 L 29.1 157.6 L 27.2 166.1 L 24.8 173.8 L 22.1 180.6 L 19.0 186.5 L 15.3 191.4 L 13.8 190.5 L 15.5 185.0 L 17.1 178.9 L 18.5 172.1 L 19.7 164.6 L 20.7 156.3 L 21.5 147.3 L 22.0 137.4 L 22.2 126.7 L 22.2 115.3 L 22.012903213500977 107.62903223037719 L 20.3375 108.1875 L 19.1 111.9 L 16.4 109.5 L 11.3 98.4 L 13.2 97.9 L 19.1 96.6 L 21.9 95.99333333969116 L 21.9 15.0 L 33.9 21.0 L 53.7 21.0 L 59.7 16.0 L 70.7 25.0 L 65.7 29.0 L 65.7 86.40833330154419 L 71.4 85.3 L 78.7 84.1 L 79.2 85.8 L 72.5 88.9 L 65.8 91.8 L 65.7 91.83939390182495 L 65.7 172.0 L 65.6 174.5 L 65.1 177.0 L 64.3 179.4 L 63.1 181.7 L 61.5 183.7 L 59.4 185.3 L 57.2 186.6 L 54.8 187.4 L 52.3 187.8 L 49.7 188.0 L 49.7 182.0 L 33.7 179.0 Z M 116.3 183.7 L 113.8 183.3 L 111.4 182.4 L 109.1 181.2 L 107.1 179.6 L 105.4 177.6 L 104.2 175.3 L 103.4 172.9 L 103.0 170.4 L 102.8 167.8 L 102.8 138.3 L 114.8 140.3 L 117.8 142.3 L 114.8 144.1 L 114.8 167.8 L 114.9 169.1 L 115.1 170.0 L 115.4 170.9 L 115.6 171.1 L 115.8 171.2 L 116.1 171.4 L 116.7 171.6 L 117.6 171.8 L 156.7 171.8 L 162.7 146.8 L 164.7 146.8 L 162.7 171.8 L 166.3 174.2 L 168.7 177.8 L 166.3 181.4 L 162.7 183.8 L 118.8 183.8 Z M 74.5 176.6 L 73.5 172.1 L 75.8 168.2 L 77.4 167.3 L 79.0 166.0 L 80.6 164.3 L 82.2 162.1 L 83.6 159.5 L 84.9 156.4 L 86.1 152.9 L 87.2 148.9 L 88.2 144.4 L 88.7 139.6 L 90.5 139.5 L 91.0 144.5 L 91.6 149.2 L 91.7 153.7 L 91.6 157.8 L 91.1 161.8 L 90.2 165.5 L 89.0 169.0 L 87.4 172.2 L 85.4 175.2 L 82.9 177.9 L 78.4 178.9 Z M 176.4 163.9 L 175.6 161.1 L 174.6 158.3 L 173.3 155.5 L 171.9 152.7 L 170.2 149.9 L 168.3 147.0 L 166.2 144.1 L 163.6 141.4 L 164.7 140.0 L 168.0 142.0 L 171.3 143.9 L 174.3 146.1 L 177.1 148.5 L 179.7 151.1 L 182.1 153.8 L 184.2 156.8 L 186.1 159.9 L 187.7 163.2 L 189.1 166.7 L 188.4 171.2 L 184.7 173.9 L 180.2 173.2 L 177.4 169.6 L 177.0 166.7 Z M 135.1 152.8 L 134.1 150.6 L 133.0 148.4 L 131.8 146.2 L 130.4 144.1 L 128.9 142.0 L 127.2 139.9 L 125.4 137.8 L 123.2 136.1 L 124.1 134.5 L 126.8 135.7 L 129.6 136.7 L 132.2 138.0 L 134.8 139.4 L 137.2 141.1 L 139.5 143.0 L 141.7 145.0 L 143.8 147.2 L 145.7 149.6 L 147.5 152.1 L 147.7 156.7 L 144.7 160.1 L 140.2 160.4 L 136.7 157.4 L 136.0 155.0 Z M 90.9 135.2 L 90.9 91.58947372436523 L 87.8 94.2 L 83.8 97.2 L 79.4 100.1 L 74.8 102.9 L 73.7 101.5 L 77.1 97.4 L 80.3 93.5 L 83.4 89.7 L 86.3 86.0 L 89.0 82.4 L 90.9 79.66400003433228 L 90.9 75.1 L 93.12608699798584 76.21304349899292 L 93.7 75.3 L 95.7 71.9 L 97.5 68.5 L 98.42121210098267 66.6 L 93.6 66.6 L 81.6 72.6 L 81.6 15.6 L 93.6 21.6 L 116.6 21.6 L 122.1 16.6 L 132.6 25.6 L 127.6 29.1 L 127.6 66.6 L 116.6 72.1 L 116.6 66.6 L 103.0485294342041 66.6 L 109.6 71.1 L 111.2 74.3 L 107.24490642547607 74.43638257980346 L 107.2 74.5 L 104.5 77.9 L 102.10824737548828 80.70412368774414 L 102.9 81.1 L 130.6 81.1 L 131.2 79.4 L 132.0 77.8 L 132.7 76.1 L 133.5 74.5 L 134.3 72.8 L 135.1 71.2 L 135.3 70.775 L 135.3 16.1 L 146.3 21.6 L 169.3 21.6 L 175.3 16.6 L 186.3 25.6 L 181.3 29.6 L 181.3 66.6 L 169.3 72.6 L 169.3 66.6 L 146.3 66.6 L 141.4619047164917 69.01904764175416 L 146.7 73.9 L 147.7 77.3 L 142.94201679229735 76.548739528656 L 141.9 77.2 L 140.3 78.3 L 138.7 79.3 L 135.5 81.1 L 172.8 81.1 L 177.3 75.1 L 183.3 81.1 L 183.3 85.1 L 140.8 85.1 L 140.8 95.6 L 161.0777777671814 95.6 L 167.3 88.6 L 175.3 95.6 L 175.3 99.6 L 140.8 99.6 L 140.8 110.7 L 161.0777777671814 110.7 L 167.3 103.7 L 175.3 110.7 L 175.3 114.7 L 140.8 114.7 L 140.8 125.2 L 171.8181818008423 125.2 L 180.0 116.2 L 190.0 125.2 L 190.0 129.2 L 102.9 129.2 Z M 102.9 114.7 L 102.9 125.2 L 128.8 125.2 L 128.8 114.7 Z M 102.9 99.6 L 102.9 110.7 L 128.8 110.7 L 128.8 99.6 Z M 102.9 85.1 L 102.9 95.6 L 128.8 95.6 L 128.8 85.1 Z M 33.9 25.0 L 33.9 93.3 L 37.5 92.5 L 44.0 91.1 L 50.6 89.6 L 53.7 88.90597019195556 L 53.7 25.0 Z M 40.3 71.3 L 40.2 68.2 L 40.0 65.1 L 39.4 58.7 L 38.9 55.4 L 38.5 52.0 L 38.0 48.6 L 37.1 45.2 L 38.7 44.5 L 40.5 47.6 L 42.5 50.6 L 44.2 53.6 L 45.8 56.8 L 47.2 60.0 L 48.5 63.2 L 49.6 66.5 L 50.6 69.8 L 51.4 73.1 L 52.1 76.5 L 50.7 80.8 L 46.6 82.9 L 42.3 81.5 L 40.2 77.4 L 40.3 74.4 Z M 146.3 52.3 L 146.3 62.6 L 169.3 62.6 L 169.3 52.3 Z M 93.6 52.3 L 93.6 62.6 L 116.6 62.6 L 116.6 52.3 Z M 146.3 39.0 L 146.3 48.3 L 169.3 48.3 L 169.3 39.0 Z M 93.6 39.0 L 93.6 48.3 L 116.6 48.3 L 116.6 39.0 Z M 146.3 25.6 L 146.3 35.0 L 169.3 35.0 L 169.3 25.6 Z M 93.6 25.6 L 93.6 35.0 L 116.6 35.0 L 116.6 25.6 Z " />
</g>
</svg>
