<svg xmlns="http://www.w3.org/2000/svg" xmlns:xlink="http://www.w3.org/1999/xlink" version="1.1" baseProfile="full" viewBox="0 0 200 200" width="200" height="200">
<g fill="black">
<path d="M 73.4 182.6 L 70.9 182.2 L 68.5 181.4 L 66.2 180.1 L 64.2 178.5 L 62.6 176.5 L 61.3 174.2 L 60.5 171.8 L 60.1 169.3 L 60.0 166.8 L 60.0 135.0 L 72.0 137.0 L 75.0 139.0 L 72.0 140.8 L 72.0 168.0 L 72.2 168.9 L 72.5 169.8 L 72.9 170.2 L 73.8 170.5 L 74.7 170.7 L 76.0 170.8 L 141.0 170.8 L 147.0 145.8 L 149.0 145.8 L 147.0 170.8 L 150.6 173.2 L 153.0 176.8 L 150.6 180.4 L 147.0 182.8 L 76.0 182.8 Z M 15.3 174.9 L 14.9 170.4 L 17.8 166.8 L 20.7 165.6 L 23.2 164.0 L 25.6 162.0 L 27.8 159.7 L 29.7 157.0 L 31.5 153.8 L 33.0 150.1 L 34.3 146.0 L 35.4 141.3 L 36.1 136.2 L 37.9 136.1 L 38.6 141.4 L 39.0 146.5 L 38.8 151.3 L 38.2 155.9 L 37.0 160.3 L 35.3 164.4 L 33.1 168.2 L 30.4 171.7 L 27.1 174.8 L 23.4 177.5 L 18.8 177.8 Z M 170.3 162.7 L 168.8 159.7 L 167.0 156.7 L 164.8 153.6 L 162.2 150.5 L 159.3 147.5 L 156.1 144.3 L 152.5 141.1 L 148.4 138.0 L 149.3 136.4 L 154.1 138.3 L 158.7 140.4 L 163.0 142.7 L 166.9 145.2 L 170.6 147.9 L 173.8 150.9 L 176.8 154.0 L 179.4 157.4 L 181.7 161.0 L 183.6 164.7 L 183.3 169.3 L 179.9 172.4 L 175.4 172.1 L 172.3 168.7 L 171.5 165.7 Z M 108.3 151.0 L 106.5 148.6 L 104.4 146.1 L 102.2 143.8 L 99.7 141.4 L 97.0 139.1 L 95.19489793777466 137.66836738586426 L 94.5 137.9 L 92.0 138.3 L 89.4 138.4 L 89.4 133.48571424484254 L 87.5 132.4 L 87.61052627563477 132.13157892227173 L 69.4 129.4 L 69.4 126.4 L 90.7 126.4 L 91.6 126.2 L 92.2 126.0 L 92.5 125.8 L 92.7 125.7 L 92.8 125.5 L 93.0 125.2 L 93.2 124.6 L 93.4 123.7 L 93.4 103.2 L 17.7 103.2 L 17.7 99.2 L 93.4 99.2 L 93.4 82.3 L 31.1 82.3 L 31.1 78.3 L 152.4777777671814 78.3 L 158.7 71.3 L 166.7 78.3 L 166.7 82.3 L 105.4 82.3 L 105.4 99.2 L 162.3 99.2 L 172.3 89.2 L 184.3 99.2 L 184.3 103.2 L 105.4 103.2 L 105.4 122.4 L 105.3 125.0 L 104.8 127.5 L 104.0 129.9 L 102.8 132.2 L 101.2 134.2 L 100.73199996948242 134.55657138824463 L 103.4 135.7 L 106.8 137.5 L 110.1 139.5 L 113.1 141.6 L 116.0 144.0 L 118.7 146.5 L 121.2 149.3 L 122.1 153.8 L 119.6 157.6 L 115.2 158.5 L 111.3 156.1 L 109.9 153.5 Z M 36.1 18.4 L 78.3 18.4 L 84.3 13.4 L 95.3 22.4 L 90.3 26.4 L 90.3 65.1 L 78.3 71.1 L 78.3 63.1 L 36.1 63.1 L 36.1 66.1 L 24.1 72.1 L 24.1 12.4 Z M 116.6 18.4 L 158.8 18.4 L 164.8 13.4 L 175.8 22.4 L 170.8 26.4 L 170.8 65.1 L 158.8 71.1 L 158.8 63.1 L 116.6 63.1 L 116.6 66.1 L 104.6 72.1 L 104.6 12.4 Z M 116.6 49.0 L 116.6 59.1 L 158.8 59.1 L 158.8 49.0 Z M 36.1 49.0 L 36.1 59.1 L 78.3 59.1 L 78.3 49.0 Z M 116.6 35.7 L 116.6 45.0 L 158.8 45.0 L 158.8 35.7 Z M 36.1 35.7 L 36.1 45.0 L 78.3 45.0 L 78.3 35.7 Z M 116.6 22.4 L 116.6 31.7 L 158.8 31.7 L 158.8 22.4 Z M 36.1 22.4 L 36.1 31.7 L 78.3 31.7 L 78.3 22.4 Z " />
</g>
</svg>
