<svg xmlns="http://www.w3.org/2000/svg" xmlns:xlink="http://www.w3.org/1999/xlink" version="1.1" baseProfile="full" viewBox="0 0 200 200" width="200" height="200">
<g fill="black">
<path d="M 75.4 184.0 L 72.9 183.5 L 70.5 182.7 L 68.2 181.5 L 66.2 179.9 L 64.6 177.8 L 63.3 175.6 L 62.5 173.2 L 62.1 170.7 L 62.0 168.1 L 62.0 130.7 L 74.0 132.7 L 77.0 134.7 L 74.0 136.5 L 74.0 169.3 L 74.2 170.3 L 74.4 170.8 L 74.5 171.2 L 74.7 171.4 L 74.9 171.5 L 75.2 171.7 L 75.8 171.9 L 76.7 172.0 L 78.0 172.1 L 143.0 172.1 L 149.0 147.1 L 151.0 147.1 L 149.0 172.1 L 152.6 174.5 L 155.0 178.1 L 152.6 181.7 L 149.0 184.1 L 78.0 184.1 Z M 17.4 176.0 L 16.8 171.5 L 19.5 167.8 L 22.3 166.2 L 24.9 164.3 L 27.3 162.0 L 29.5 159.2 L 31.5 156.0 L 33.3 152.2 L 34.8 147.9 L 36.2 143.1 L 37.3 137.7 L 38.1 131.8 L 39.9 131.8 L 40.7 137.8 L 41.1 143.6 L 41.0 149.0 L 40.3 154.2 L 39.2 159.0 L 37.5 163.6 L 35.3 167.8 L 32.6 171.7 L 29.4 175.1 L 25.6 178.1 L 21.1 178.7 Z M 172.2 161.7 L 170.7 158.3 L 168.8 154.8 L 166.6 151.3 L 164.0 147.9 L 161.1 144.4 L 157.9 141.0 L 154.3 137.4 L 150.3 133.9 L 151.3 132.4 L 156.2 134.6 L 160.9 137.0 L 165.2 139.7 L 169.2 142.7 L 172.8 145.9 L 176.1 149.4 L 179.1 153.0 L 181.7 156.9 L 183.9 161.0 L 185.8 165.3 L 185.3 169.8 L 181.8 172.8 L 177.3 172.3 L 174.3 168.8 L 173.4 165.3 Z M 110.1 148.3 L 108.3 145.5 L 106.2 142.8 L 104.0 140.1 L 101.5 137.5 L 98.8 134.9 L 96.0 132.4 L 92.9 129.8 L 89.5 127.5 L 90.2 125.8 L 94.3 127.1 L 98.3 128.4 L 102.1 130.1 L 105.7 131.9 L 109.1 134.1 L 112.4 136.4 L 115.4 139.0 L 118.3 141.7 L 121.0 144.7 L 123.5 147.9 L 124.2 152.4 L 121.5 156.1 L 117.0 156.7 L 113.3 154.1 L 111.8 151.1 Z M 133.2 124.6 L 115.1 123.1 L 99.3 120.7 L 85.5 117.5 L 74.0 113.4 L 64.6 108.3 L 57.6 102.3 L 53.275199031829835 95.51792583465576 L 49.9 100.9 L 45.6 106.4 L 40.6 111.6 L 35.1 116.3 L 29.0 120.7 L 22.3 124.6 L 15.0 127.9 L 14.1 126.4 L 20.2 121.4 L 25.7 116.5 L 30.7 111.5 L 35.1 106.4 L 38.8 101.3 L 42.0 95.9 L 44.6 90.5 L 46.7 84.9 L 48.2 79.1 L 49.2 73.2 L 49.26485013961792 73.21089916229248 L 49.6 71.2 L 61.1 75.2 L 63.7 77.7 L 60.01722269058227 79.13219118118286 L 59.2 82.1 L 56.7 88.7 L 55.4957878112793 91.14726991653443 L 56.8 93.4 L 61.7 98.0 L 68.3 102.1 L 76.9 105.6 L 87.8 108.4 L 94.0 109.44122133255004 L 94.0 57.7 L 41.8 57.7 L 41.8 53.7 L 140.01818180084229 53.7 L 148.2 44.7 L 154.34377679824829 50.22939910888672 L 156.1 48.4 L 158.1 45.7 L 160.0 43.3 L 161.8 40.9 L 163.4 38.7 L 164.9 36.7 L 165.61499996185302 35.6 L 34.952777767181395 35.6 L 35.0 37.3 L 34.7 40.7 L 34.0 44.0 L 32.8 47.1 L 31.2 50.0 L 29.1 52.7 L 26.6 55.0 L 23.6 57.0 L 19.0 57.0 L 15.7 53.9 L 15.7 49.3 L 18.8 46.0 L 20.7 45.5 L 22.5 44.7 L 24.1 43.8 L 25.7 42.5 L 27.2 40.8 L 28.5 38.7 L 29.8 36.2 L 30.9 33.3 L 31.9 29.9 L 32.2 26.2 L 34.0 26.1 L 34.4 30.0 L 34.61621618270874 31.6 L 94.0 31.6 L 94.0 12.7 L 106.0 14.7 L 109.0 16.7 L 106.0 18.5 L 106.0 31.6 L 167.7 31.6 L 168.3960000038147 31.019999980926514 L 169.1 29.7 L 169.53380279541017 30.07183094024658 L 173.7 26.6 L 184.7 35.6 L 179.7 38.6 L 172.5 41.6 L 170.7 42.8 L 168.4 44.2 L 166.0 45.7 L 163.4 47.2 L 160.7 48.8 L 157.7 50.3 L 155.84425163269043 51.5798264503479 L 158.2 53.7 L 158.2 57.7 L 106.0 57.7 L 106.0 80.3 L 143.9 80.3 L 153.9 70.3 L 165.9 80.3 L 165.9 84.3 L 106.0 84.3 L 106.0 111.1 L 116.2 112.1 L 133.7 112.8 L 153.4 112.8 L 175.4 112.1 L 186.8 111.7 L 175.8 125.3 L 153.4 125.4 Z " />
</g>
</svg>
