<svg xmlns="http://www.w3.org/2000/svg" xmlns:xlink="http://www.w3.org/1999/xlink" version="1.1" baseProfile="full" viewBox="0 0 200 200" width="200" height="200">
<g fill="black">
<path d="M 73.4 183.7 L 70.9 183.3 L 68.5 182.5 L 66.2 181.3 L 64.2 179.6 L 62.6 177.6 L 61.3 175.3 L 60.5 172.9 L 60.1 170.4 L 60.0 167.9 L 60.0 130.0 L 72.0 132.0 L 75.0 134.0 L 72.0 135.8 L 72.0 169.1 L 72.2 170.0 L 72.5 170.9 L 72.9 171.3 L 73.2 171.5 L 73.8 171.6 L 74.7 171.8 L 76.0 171.9 L 141.0 171.9 L 147.0 146.9 L 149.0 146.9 L 147.0 171.9 L 150.6 174.3 L 153.0 177.9 L 150.6 181.5 L 147.0 183.9 L 76.0 183.9 Z M 15.4 175.7 L 14.8 171.2 L 17.4 167.5 L 20.3 165.9 L 22.9 164.0 L 25.3 161.7 L 27.5 158.8 L 29.5 155.5 L 31.3 151.7 L 32.8 147.3 L 34.1 142.4 L 35.3 137.0 L 36.1 131.1 L 37.9 131.0 L 38.7 137.1 L 39.1 142.9 L 39.0 148.4 L 38.3 153.6 L 37.2 158.6 L 35.5 163.1 L 33.3 167.4 L 30.6 171.3 L 27.4 174.8 L 23.6 177.8 L 19.1 178.4 Z M 170.2 161.3 L 168.6 157.8 L 166.8 154.2 L 164.6 150.8 L 162.0 147.3 L 159.1 143.8 L 155.8 140.3 L 152.3 136.7 L 148.3 133.2 L 149.3 131.6 L 154.2 133.9 L 158.9 136.3 L 163.2 139.1 L 167.2 142.1 L 170.8 145.4 L 174.1 148.9 L 177.1 152.6 L 179.7 156.5 L 181.9 160.6 L 183.8 165.0 L 183.3 169.5 L 179.8 172.5 L 175.3 172.0 L 172.3 168.5 L 171.4 164.9 Z M 108.1 147.7 L 106.3 144.8 L 104.2 142.1 L 102.0 139.4 L 99.5 136.8 L 96.8 134.2 L 93.9 131.6 L 90.9 129.0 L 87.5 126.7 L 88.2 125.0 L 92.3 126.3 L 96.3 127.7 L 100.1 129.3 L 103.7 131.2 L 107.1 133.4 L 110.4 135.8 L 113.5 138.4 L 116.4 141.2 L 119.1 144.2 L 121.6 147.4 L 122.2 151.9 L 119.5 155.6 L 115.0 156.2 L 111.3 153.5 L 109.8 150.6 Z M 139.4 125.2 L 136.9 124.8 L 134.5 124.0 L 132.2 122.8 L 130.2 121.1 L 128.6 119.1 L 127.3 116.8 L 126.5 114.4 L 126.1 111.9 L 126.0 109.4 L 126.0 82.3 L 85.41538457870483 82.3 L 84.8 86.3 L 82.1 93.5 L 77.9 100.0 L 72.2 105.6 L 65.3 110.5 L 57.2 114.6 L 47.8 118.1 L 37.2 121.0 L 25.3 123.2 L 12.1 124.7 L 11.8 122.9 L 24.5 119.5 L 35.7 115.9 L 45.5 112.0 L 53.8 107.8 L 60.6 103.4 L 65.9 98.8 L 69.8 93.9 L 72.4 89.0 L 73.7 83.9 L 73.78888893127441 82.3 L 25.0 82.3 L 25.0 78.3 L 74.0 78.3 L 74.0 60.9 L 86.0 62.9 L 89.0 64.9 L 86.0 66.7 L 86.0 78.3 L 126.0 78.3 L 132.0 73.3 L 143.0 82.3 L 138.0 86.3 L 138.0 110.6 L 138.2 111.5 L 138.5 112.4 L 138.9 112.8 L 139.2 113.0 L 139.8 113.1 L 140.7 113.3 L 142.0 113.4 L 174.0 113.4 L 180.0 88.4 L 182.0 88.4 L 180.0 113.4 L 183.6 115.8 L 186.0 119.4 L 183.6 123.0 L 180.0 125.4 L 142.0 125.4 Z M 85.1 39.0 L 87.0 42.0 L 82.89547634124756 42.56614122390747 L 81.7 44.5 L 77.5 49.4 L 72.3 53.6 L 66.4 57.4 L 59.7 60.6 L 52.2 63.2 L 43.9 65.5 L 34.8 67.2 L 24.8 68.4 L 14.1 69.0 L 13.8 67.2 L 24.2 64.6 L 33.6 62.0 L 42.0 59.2 L 49.5 56.1 L 56.0 52.9 L 61.5 49.4 L 66.0 45.8 L 69.6 42.1 L 72.2 38.2 L 74.0 34.2 L 74.04558525085449 34.219712543487546 L 74.6 33.0 Z M 178.0 41.1 L 180.0 41.1 L 178.0 54.1 L 180.7 55.9 L 182.5 58.6 L 180.7 61.3 L 178.0 63.1 L 127.5 63.1 L 125.2 62.8 L 122.9 62.2 L 120.7 61.2 L 118.7 59.8 L 117.1 58.0 L 115.7 55.8 L 114.8 53.5 L 114.2 51.1 L 114.0 48.6 L 114.0 34.1 L 126.0 36.1 L 129.0 38.1 L 126.0 39.9 L 126.0 48.6 L 125.9 49.8 L 125.9 50.8 L 126.0 51.5 L 126.0 52.0 L 126.2 52.3 L 126.4 52.7 L 126.8 53.1 L 127.5 53.5 L 128.6 53.8 L 130.0 54.1 L 173.5 54.1 Z M 13.2 50.1 L 13.2 45.5 L 16.5 42.3 L 18.4 41.8 L 20.3 41.1 L 22.0 40.1 L 23.5 38.9 L 25.1 37.3 L 26.4 35.3 L 27.7 32.9 L 28.8 30.1 L 29.8 26.9 L 30.1 23.3 L 31.9 23.2 L 32.3 26.9 L 32.502702713012695 28.4 L 94.0 28.4 L 94.0 12.5 L 106.0 14.5 L 109.0 16.5 L 106.0 18.3 L 106.0 28.4 L 170.0 28.4 L 170.7800000190735 27.75 L 171.5 26.4 L 171.93018255233764 26.791514492034914 L 176.0 23.4 L 187.0 32.4 L 182.0 35.4 L 173.81176471710205 38.81176471710205 L 172.7 39.5 L 170.4 40.9 L 167.9 42.3 L 165.3 43.7 L 162.5 45.2 L 159.4 46.7 L 156.5 48.6 L 155.4 47.2 L 157.9 44.8 L 160.0 42.1 L 162.0 39.7 L 163.8 37.4 L 165.5 35.2 L 167.0 33.2 L 167.58947372436523 32.4 L 32.85142860412598 32.4 L 32.9 34.1 L 32.5 37.4 L 31.8 40.6 L 30.5 43.7 L 28.8 46.6 L 26.6 49.2 L 24.0 51.5 L 21.0 53.4 L 16.4 53.3 Z " />
</g>
</svg>
