<svg xmlns="http://www.w3.org/2000/svg" xmlns:xlink="http://www.w3.org/1999/xlink" version="1.1" baseProfile="full" viewBox="0 0 200 200" width="200" height="200">
<g fill="black">
<path d="M 73.4 181.5 L 70.9 181.1 L 68.5 180.2 L 66.2 179.0 L 64.2 177.4 L 62.6 175.4 L 61.3 173.1 L 60.5 170.7 L 60.1 168.2 L 60.0 165.6 L 60.0 133.6 L 72.0 135.6 L 75.0 137.6 L 72.0 139.4 L 72.0 166.9 L 72.2 167.8 L 72.5 168.7 L 72.7 168.9 L 72.9 169.0 L 73.2 169.2 L 73.8 169.4 L 74.7 169.6 L 141.0 169.6 L 147.0 144.6 L 149.0 144.6 L 147.0 169.6 L 150.6 172.0 L 153.0 175.6 L 150.6 179.2 L 147.0 181.6 L 76.0 181.6 Z M 15.3 173.8 L 14.9 169.2 L 17.8 165.7 L 20.7 164.4 L 23.2 162.8 L 25.6 160.9 L 27.8 158.5 L 29.7 155.8 L 31.5 152.5 L 33.0 148.8 L 34.3 144.6 L 35.4 140.0 L 36.1 134.8 L 37.9 134.7 L 38.6 140.1 L 39.0 145.2 L 38.8 150.1 L 38.2 154.7 L 37.0 159.1 L 35.4 163.2 L 33.1 167.0 L 30.4 170.5 L 27.1 173.6 L 23.4 176.3 L 18.8 176.7 Z M 170.3 161.5 L 168.8 158.4 L 167.0 155.4 L 164.8 152.3 L 162.2 149.2 L 159.3 146.1 L 156.0 143.0 L 152.4 139.8 L 148.4 136.6 L 149.3 135.1 L 154.1 137.0 L 158.7 139.0 L 163.0 141.3 L 167.0 143.9 L 170.6 146.6 L 173.9 149.6 L 176.8 152.8 L 179.5 156.2 L 181.7 159.8 L 183.6 163.6 L 183.3 168.1 L 179.9 171.2 L 175.4 170.9 L 172.3 167.5 L 171.5 164.5 Z M 108.3 149.7 L 106.4 147.2 L 104.4 144.8 L 102.2 142.4 L 99.7 140.1 L 97.0 137.7 L 94.1 135.4 L 91.0 133.0 L 87.5 131.0 L 88.2 129.3 L 92.2 130.4 L 96.1 131.5 L 99.9 132.8 L 103.5 134.4 L 106.9 136.2 L 110.1 138.1 L 113.1 140.3 L 116.0 142.7 L 118.7 145.3 L 121.2 148.0 L 122.1 152.5 L 119.6 156.4 L 115.2 157.3 L 111.3 154.8 L 109.9 152.2 Z M 33.0 88.6 L 33.0 84.6 L 149.0 84.6 L 159.0 74.6 L 171.0 84.6 L 171.0 88.6 L 109.0 88.6 L 109.0 112.2 L 108.8 114.7 L 108.4 117.2 L 107.6 119.6 L 106.3 121.9 L 104.7 123.9 L 102.7 125.5 L 100.4 126.8 L 98.0 127.6 L 95.5 128.0 L 93.0 128.2 L 92.94993743896484 122.19249057769775 L 73.0 119.2 L 73.0 116.2 L 92.9 116.2 L 94.2 116.1 L 95.1 115.9 L 96.0 115.6 L 96.4 115.2 L 96.7 114.3 L 96.9 113.4 L 97.0 112.2 L 97.0 88.6 Z M 160.2 116.7 L 157.0 114.3 L 153.4 111.9 L 149.4 109.5 L 145.1 107.2 L 140.5 105.0 L 135.5 102.7 L 130.3 100.3 L 124.7 97.9 L 125.1 96.1 L 131.3 96.7 L 137.1 97.6 L 142.6 98.8 L 147.9 100.2 L 152.8 101.8 L 157.5 103.6 L 162.0 105.6 L 166.1 107.7 L 170.0 110.0 L 173.6 112.5 L 175.6 116.6 L 174.2 120.9 L 170.1 122.9 L 165.8 121.6 L 163.2 119.1 Z M 71.7 103.4 L 71.9 107.0 L 68.34402170181275 105.55126810073853 L 67.8 105.9 L 63.6 108.2 L 59.2 110.4 L 54.5 112.5 L 49.6 114.5 L 44.5 116.4 L 39.1 118.2 L 33.4 119.9 L 27.5 121.2 L 21.2 122.4 L 20.7 120.7 L 26.2 117.7 L 31.5 114.9 L 36.5 112.2 L 41.3 109.5 L 45.9 106.9 L 50.2 104.3 L 54.2 101.7 L 57.9 99.0 L 61.4 96.4 L 63.82561817169189 94.42918519973755 L 63.8 94.4 L 64.6 93.8 Z M 50.2 60.3 L 49.3 58.9 L 48.3 57.4 L 47.0 55.9 L 45.6 54.4 L 43.9 52.9 L 42.0 51.3 L 40.0 49.6 L 38.48135595321655 48.84067792892456 L 35.6 50.8 L 30.5 53.9 L 25.1 56.6 L 19.4 58.8 L 18.5 57.2 L 23.0 53.4 L 27.4 49.5 L 31.6 45.7 L 35.6 41.7 L 39.4 37.6 L 42.9 33.3 L 46.3 28.9 L 49.5 24.3 L 52.5 19.5 L 55.3 14.5 L 55.8 13.6 L 65.6 20.7 L 67.1 23.9 L 63.34117650985718 23.9 L 62.0 25.8 L 60.16938772201538 28.1 L 87.8873417854309 28.1 L 89.2 26.4 L 89.63416757583619 26.738193702697753 L 94.0 23.1 L 105.0 32.1 L 100.0 35.1 L 96.16393442153931 36.6983606338501 L 91.7 41.8 L 84.2 49.3 L 76.5 56.2 L 68.3 62.6 L 59.9 68.3 L 51.0 73.5 L 41.8 78.0 L 32.3 81.9 L 22.4 85.1 L 12.2 87.5 L 11.7 85.7 L 21.1 81.5 L 30.1 77.0 L 38.8 72.2 L 47.1 67.0 L 52.0966477394104 63.45807247161865 L 51.3 63.0 L 50.9 61.7 Z M 156.6 71.8 L 147.5 66.9 L 139.0 61.5 L 131.3 55.6 L 124.3 49.3 L 118.0 42.5 L 112.6 35.2 L 108.1 27.5 L 104.6 19.3 L 106.2 18.5 L 111.6 25.2 L 114.1375 28.1 L 159.0 28.1 L 159.459375 27.7171875 L 160.1 26.5 L 160.53655319213868 26.81953897476196 L 165.0 23.1 L 176.0 32.1 L 171.0 35.1 L 165.92307691574098 37.215384578704835 L 165.5 37.6 L 163.0 39.6 L 160.3 41.6 L 157.3 43.7 L 154.0 45.7 L 150.5 47.8 L 146.8 50.0 L 142.96482677459716 51.870816230773926 L 144.5 52.8 L 152.7 57.1 L 161.5 61.0 L 170.9 64.5 L 180.9 67.6 L 188.6 70.0 L 177.0 80.2 L 166.5 76.2 Z M 138.0 66.2 L 138.0 70.2 L 69.0 70.2 L 69.0 66.2 L 116.0 66.2 L 126.0 56.2 Z M 64.4 49.8 L 63.4 48.6 L 62.2 47.3 L 60.6 45.9 L 58.8 44.5 L 56.7 43.0 L 54.3 41.5 L 51.7 39.9 L 50.090243911743165 39.30975608825683 L 49.8 39.6 L 45.3 43.7 L 40.6 47.4 L 40.561059188842776 47.426479721069335 L 40.8 47.5 L 43.6 47.9 L 46.2 48.4 L 48.6 49.1 L 51.0 49.9 L 53.2 50.8 L 55.3 51.8 L 57.3 53.0 L 59.2 54.4 L 61.0 55.9 L 61.131512355804446 56.47865447998047 L 62.6 55.3 L 65.95532274246216 52.27088918685913 L 65.4 52.0 L 65.1 51.0 Z M 117.71694917678833 32.1 L 123.3 37.5 L 129.8 43.0 L 136.9 48.2 L 140.27612524032594 50.24344425201416 L 141.0 49.6 L 144.1 46.4 L 147.0 43.3 L 149.7 40.5 L 152.1 37.8 L 154.3 35.2 L 156.2 32.8 L 156.68695650100707 32.1 Z M 56.88260869979858 32.1 L 54.1 35.3 L 51.79473686218262 37.60526313781738 L 52.3 37.7 L 55.5 37.9 L 58.4 38.2 L 61.2 38.7 L 63.8 39.3 L 66.2 40.0 L 68.5 40.8 L 70.7 41.7 L 72.7 42.9 L 74.4009033203125 44.06377601623535 L 76.6 41.8 L 83.1 34.3 L 84.79873418807983 32.1 Z " />
</g>
</svg>
