<svg xmlns="http://www.w3.org/2000/svg" xmlns:xlink="http://www.w3.org/1999/xlink" version="1.1" baseProfile="full" viewBox="0 0 200 200" width="200" height="200">
<g fill="black">
<path d="M 73.4 187.0 L 70.9 186.5 L 68.5 185.7 L 66.2 184.5 L 64.2 182.9 L 62.6 180.8 L 61.3 178.6 L 60.5 176.2 L 60.1 173.7 L 60.0 171.1 L 60.0 140.1 L 72.0 142.1 L 75.0 144.1 L 72.0 145.9 L 72.0 172.3 L 72.2 173.3 L 72.4 173.8 L 72.5 174.2 L 72.7 174.4 L 72.9 174.5 L 73.2 174.7 L 73.8 174.9 L 74.7 175.0 L 76.0 175.1 L 141.0 175.1 L 147.0 150.1 L 149.0 150.1 L 147.0 175.1 L 150.6 177.5 L 153.0 181.1 L 150.6 184.7 L 147.0 187.1 L 76.0 187.1 Z M 15.3 179.3 L 15.0 174.8 L 17.9 171.3 L 20.7 170.0 L 23.3 168.5 L 25.6 166.6 L 27.8 164.3 L 29.8 161.7 L 31.5 158.6 L 33.0 155.0 L 34.3 150.9 L 35.4 146.4 L 36.1 141.3 L 37.9 141.3 L 38.5 146.5 L 39.0 151.4 L 38.8 156.2 L 38.2 160.7 L 37.0 165.0 L 35.3 169.1 L 33.1 172.8 L 30.4 176.3 L 27.1 179.3 L 23.3 182.0 L 18.8 182.3 Z M 170.3 167.4 L 168.8 164.4 L 167.0 161.5 L 164.8 158.5 L 162.3 155.4 L 159.4 152.4 L 156.1 149.3 L 152.5 146.2 L 148.4 143.1 L 149.3 141.5 L 154.1 143.4 L 158.7 145.4 L 163.0 147.6 L 166.9 150.1 L 170.5 152.7 L 173.8 155.6 L 176.8 158.7 L 179.4 162.0 L 181.7 165.5 L 183.6 169.2 L 183.3 173.8 L 180.0 176.9 L 175.4 176.6 L 172.3 173.2 L 171.5 170.3 Z M 108.3 155.9 L 106.5 153.5 L 104.4 151.2 L 102.2 148.8 L 99.7 146.5 L 97.0 144.2 L 94.1 141.9 L 91.0 139.6 L 87.6 137.6 L 88.2 135.9 L 92.2 137.0 L 96.1 138.0 L 99.9 139.3 L 103.4 140.8 L 106.8 142.5 L 110.0 144.4 L 113.1 146.5 L 116.0 148.8 L 118.6 151.3 L 121.1 154.0 L 122.1 158.5 L 119.7 162.4 L 115.2 163.3 L 111.3 160.9 L 109.9 158.4 Z M 49.3 83.2 L 150.6 83.2 L 156.6 78.2 L 167.6 87.2 L 162.6 91.2 L 162.6 129.9 L 150.6 135.9 L 150.6 129.9 L 49.3 129.9 L 37.3 135.9 L 37.3 77.2 Z M 49.3 108.0 L 49.3 125.9 L 150.6 125.9 L 150.6 108.0 Z M 49.3 87.2 L 49.3 104.0 L 150.6 104.0 L 150.6 87.2 Z M 65.4 42.4 L 134.6 42.4 L 140.6 37.4 L 151.6 46.4 L 146.6 50.4 L 146.6 69.8 L 134.6 75.8 L 134.6 67.8 L 65.4 67.8 L 65.4 70.8 L 53.4 76.8 L 53.4 36.4 Z M 65.4 46.4 L 65.4 63.8 L 134.6 63.8 L 134.6 46.4 Z M 18.4 27.1 L 94.0 27.1 L 94.0 8.8 L 106.0 10.8 L 109.0 12.8 L 106.0 14.6 L 106.0 27.1 L 159.6 27.1 L 169.6 17.1 L 181.6 27.1 L 181.6 31.1 L 18.4 31.1 Z " />
</g>
</svg>
