<svg xmlns="http://www.w3.org/2000/svg" xmlns:xlink="http://www.w3.org/1999/xlink" version="1.1" baseProfile="full" viewBox="0 0 200 200" width="200" height="200">
<g fill="black">
<path d="M 33.7 23.0 L 64.7 23.0 L 70.7 18.0 L 81.7 27.0 L 76.7 30.0 L 74.36821708679199 30.97157621383667 L 74.2 31.3 L 72.0 35.5 L 69.6 39.8 L 67.0 44.3 L 64.3 48.9 L 61.3 53.6 L 58.1 58.4 L 54.7 63.4 L 51.0 68.4 L 46.9 73.4 L 45.3 72.5 L 47.7 66.5 L 50.0 60.8 L 52.3 55.3 L 54.6 50.1 L 56.7 45.0 L 58.7 40.2 L 60.5 35.5 L 62.2 31.0 L 63.72380952835083 27.0 L 33.7 27.0 L 33.7 180.0 L 21.7 186.0 L 21.7 17.0 Z M 113.9 180.9 L 111.4 180.5 L 109.0 179.6 L 106.8 178.4 L 104.7 176.8 L 103.1 174.8 L 101.9 172.5 L 101.1 170.1 L 100.6 167.6 L 100.5 165.0 L 100.5 132.4 L 112.5 134.4 L 115.5 136.4 L 112.5 138.2 L 112.5 165.0 L 112.6 166.3 L 112.7 167.2 L 112.9 167.8 L 113.1 168.1 L 113.2 168.3 L 113.8 168.6 L 114.3 168.8 L 115.3 169.0 L 152.2 169.0 L 158.2 144.0 L 160.2 144.0 L 158.2 169.0 L 161.8 171.4 L 164.2 175.0 L 161.8 178.6 L 158.2 181.0 L 116.5 181.0 Z M 71.4 172.7 L 70.1 168.3 L 72.2 164.3 L 73.8 163.3 L 75.3 162.1 L 76.8 160.6 L 78.3 158.7 L 79.7 156.4 L 81.1 153.8 L 82.3 150.9 L 83.5 147.6 L 84.6 144.0 L 85.3 140.0 L 87.1 140.1 L 87.3 144.2 L 87.6 148.2 L 87.7 151.9 L 87.4 155.5 L 86.9 159.0 L 86.1 162.2 L 85.0 165.3 L 83.7 168.2 L 81.9 171.0 L 79.9 173.5 L 75.5 174.8 Z M 171.8 161.9 L 171.0 159.2 L 169.8 156.3 L 168.3 153.3 L 166.6 150.2 L 164.5 147.1 L 162.2 143.7 L 159.6 140.3 L 156.5 136.9 L 157.6 135.5 L 161.5 138.0 L 165.3 140.5 L 168.7 143.1 L 171.9 145.9 L 174.7 148.7 L 177.3 151.6 L 179.5 154.7 L 181.5 157.8 L 183.1 161.1 L 184.4 164.5 L 183.6 168.9 L 179.8 171.6 L 175.4 170.8 L 172.7 167.1 L 172.4 164.6 Z M 131.1 144.2 L 130.6 142.2 L 130.0 140.2 L 129.2 138.0 L 128.1 135.7 L 126.9 133.3 L 125.4 130.8 L 123.8 128.1 L 121.7 125.6 L 122.9 124.3 L 125.5 126.3 L 128.3 128.1 L 130.8 129.9 L 133.1 131.8 L 135.2 133.7 L 137.2 135.7 L 138.9 137.8 L 140.5 140.0 L 141.8 142.2 L 143.0 144.5 L 142.3 149.1 L 138.7 151.8 L 134.2 151.2 L 131.4 147.5 L 131.3 145.9 Z M 151.5 127.0 L 142.0 122.9 L 133.4 118.3 L 128.4337222099304 114.9461501121521 L 121.3 118.8 L 111.7 123.0 L 101.3 126.5 L 89.9 129.2 L 77.5 131.3 L 77.2 129.5 L 88.8 125.6 L 99.5 121.4 L 109.1 116.9 L 117.7 112.2 L 121.52409915924072 109.59961252212524 L 118.9 107.4 L 113.2 101.3 L 108.5 94.6 L 104.9 87.5 L 102.93157892227173 80.7 L 79.2 80.7 L 79.2 76.7 L 123.0 76.7 L 123.0 61.9 L 135.0 63.9 L 138.0 65.9 L 135.0 67.7 L 135.0 76.7 L 156.8 76.7 L 166.8 66.7 L 178.8 76.7 L 178.8 80.7 L 159.2 80.7 L 155.3 88.7 L 150.5 96.0 L 144.6 102.7 L 137.7 108.7 L 137.4780101776123 108.85568113327027 L 138.3 109.3 L 146.4 112.8 L 155.4 115.9 L 165.2 118.5 L 175.9 120.8 L 184.9 122.7 L 173.2 133.7 L 161.9 130.6 Z M 66.9 130.9 L 65.2 132.5 L 63.2 134.0 L 61.2 135.2 L 59.0 136.2 L 56.7 137.0 L 54.3 137.5 L 51.9 137.8 L 49.4 138.0 L 49.45012464523315 131.98503742218017 L 39.5 129.0 L 39.5 126.0 L 49.5 126.0 L 50.9 125.9 L 52.2 125.7 L 53.4 125.4 L 54.5 125.1 L 55.6 124.6 L 56.5 124.0 L 57.5 123.3 L 58.4 122.5 L 59.3 121.5 L 60.1 120.3 L 62.0 117.6 L 63.2 114.7 L 63.8 111.4 L 63.8 107.6 L 62.9 103.3 L 61.3 98.4 L 58.8 93.1 L 55.4 87.3 L 51.2 81.1 L 46.2 74.3 L 47.5 73.0 L 54.0 78.5 L 59.6 84.0 L 64.3 89.5 L 68.0 94.9 L 70.9 100.4 L 72.9 105.8 L 73.8 111.2 L 73.7 116.7 L 72.5 122.0 L 70.0 127.1 L 68.6 129.1 Z M 108.6 85.4 L 113.2 91.1 L 118.4 96.3 L 124.3 101.0 L 128.88147859573365 103.9849027633667 L 131.7 101.6 L 137.2 95.9 L 141.7 89.8 L 145.3 83.4 L 146.27659578323363 80.7 L 105.36393442153931 80.7 Z M 168.3 50.1 L 168.01252431869506 49.1965048789978 L 168.0 49.2 L 163.8 50.6 L 159.7 51.7 L 155.8 52.8 L 151.9 53.7 L 148.1 54.6 L 144.5 55.4 L 141.0 56.2 L 138.55350551605224 56.70369005203247 L 136.5 60.4 L 134.3 57.5 L 131.3 45.7 L 133.3 45.6 L 136.6 45.7 L 140.0 45.7 L 141.45541887283326 45.74158344268799 L 141.9 43.0 L 142.6 39.3 L 143.4 35.7 L 144.1 32.1 L 144.9 28.5 L 145.6 25.0 L 146.4 21.4 L 147.1 17.9 L 147.68956155776976 15.320668029785157 L 147.6 15.3 L 148.4 12.8 L 159.3 18.0 L 161.6 20.8 L 157.7300542831421 21.750512981414794 L 156.3 24.7 L 154.8 28.1 L 153.2 31.4 L 151.5 34.8 L 149.8 38.1 L 148.0 41.4 L 146.1 44.6 L 145.35 45.8 L 151.0 45.8 L 154.9 45.9 L 159.0 45.9 L 163.2 46.0 L 167.00061664581298 46.176772880554196 L 166.8 45.6 L 165.8 43.2 L 164.7 40.8 L 163.5 38.3 L 162.2 35.8 L 160.9 33.1 L 159.1 30.7 L 160.4 29.4 L 162.7 31.4 L 165.3 33.2 L 169.9 37.0 L 173.9 41.0 L 175.7 43.1 L 177.5 45.3 L 180.5 49.7 L 180.5 54.3 L 177.3 57.6 L 172.7 57.5 L 169.4 54.4 L 168.9 52.3 Z M 119.3 50.1 L 119.0163737297058 49.20860319137573 L 118.7 49.3 L 114.3 50.6 L 110.1 51.8 L 105.9 52.8 L 101.9 53.8 L 97.9 54.7 L 94.2 55.5 L 90.5 56.2 L 87.84671277999878 56.71591691970825 L 85.8 60.4 L 83.5 57.5 L 80.6 45.7 L 82.6 45.6 L 86.0 45.7 L 89.5 45.7 L 92.44923639297485 45.779709053039554 L 92.9 43.0 L 93.6 39.3 L 94.3 35.7 L 95.9 28.5 L 96.6 25.0 L 97.4 21.4 L 98.61474876403808 15.32625608444214 L 98.5 15.3 L 99.3 12.8 L 110.3 18.0 L 112.6 20.8 L 108.62944345474243 21.77522439956665 L 107.3 24.7 L 105.8 28.1 L 104.2 31.4 L 102.5 34.8 L 100.8 38.1 L 99.0 41.4 L 97.1 44.6 L 96.35 45.8 L 109.3 45.8 L 113.7 45.9 L 117.96890592575073 46.08560457229614 L 117.8 45.6 L 116.8 43.2 L 115.7 40.8 L 114.5 38.3 L 113.2 35.8 L 111.9 33.1 L 110.0 30.7 L 111.3 29.4 L 113.7 31.4 L 116.2 33.2 L 118.6 35.1 L 120.8 37.0 L 122.9 39.0 L 124.9 41.0 L 126.7 43.1 L 128.4 45.3 L 130.0 47.5 L 131.5 49.7 L 131.4 54.3 L 128.3 57.6 L 123.7 57.5 L 120.4 54.4 L 119.9 52.3 Z " />
</g>
</svg>
