<svg xmlns="http://www.w3.org/2000/svg" xmlns:xlink="http://www.w3.org/1999/xlink" version="1.1" baseProfile="full" viewBox="0 0 200 200" width="200" height="200">
<g fill="black">
<path d="M 53.3 16.0 L 56.3 18.0 L 53.3 19.8 L 53.3 183.0 L 41.3 189.0 L 41.3 14.0 Z M 167.1 182.4 L 161.3 178.8 L 156.0 174.7 L 151.3 170.1 L 147.0 165.2 L 143.2 159.8 L 140.1 154.0 L 137.6 147.8 L 137.23740434646606 146.39227561950685 L 137.2 146.5 L 134.0 153.2 L 130.1 159.4 L 125.4 165.2 L 120.1 170.5 L 114.1 175.2 L 107.4 179.5 L 100.1 183.2 L 92.1 186.3 L 83.5 188.8 L 82.9 187.1 L 90.6 182.8 L 97.5 178.5 L 103.8 174.0 L 109.3 169.3 L 114.1 164.4 L 118.2 159.3 L 121.6 154.0 L 124.4 148.5 L 126.5 142.6 L 126.65 142.0 L 83.2 142.0 L 83.2 138.0 L 127.65 138.0 L 127.80875911712647 137.36496353149414 L 128.3597315788269 110.0 L 114.45454549789429 110.0 L 114.4 110.1 L 111.8 114.4 L 109.0 118.5 L 106.0 122.4 L 102.6 126.1 L 99.0 129.4 L 95.1 132.6 L 93.8 131.3 L 96.2 127.1 L 98.4 123.0 L 100.6 118.8 L 102.6 114.7 L 104.4 110.5 L 106.1 106.2 L 107.6 101.9 L 108.9 97.5 L 110.0 93.0 L 110.71609754562378 89.41951217651368 L 110.6 89.4 L 111.3 86.7 L 122.5 91.4 L 125.0 94.0 L 121.19747457504272 95.15433807373047 L 120.8 96.3 L 118.9 101.1 L 116.8 105.7 L 116.63636360168456 106.0 L 147.5 106.0 L 157.5 96.0 L 169.5 106.0 L 169.5 110.0 L 140.45348834991455 110.0 L 139.80232553482057 138.0 L 163.7 138.0 L 173.7 128.0 L 185.7 138.0 L 185.7 142.0 L 138.7625 142.0 L 138.69412631988524 142.1969162940979 L 141.3 145.9 L 145.1 150.9 L 149.0 155.4 L 153.1 159.6 L 157.5 163.2 L 162.2 166.5 L 167.1 169.3 L 172.4 171.8 L 178.0 173.9 L 183.9 175.6 L 191.6 178.0 L 180.0 188.3 L 173.3 185.6 Z M 134.0666666984558 138.0 L 135.8 138.0 L 133.85607481002808 137.9514019012451 Z M 140.3 19.9 L 141.8 23.2 L 136.70769233703612 23.2 L 136.6 23.3 L 135.1 24.8 L 133.4 26.4 L 131.6 28.3 L 129.5 30.3 L 127.3 32.4 L 124.9 34.7 L 124.66428575515747 35.0 L 165.7 35.0 L 171.7 30.0 L 182.7 39.0 L 177.7 43.0 L 177.7 87.0 L 165.7 93.0 L 165.7 83.0 L 104.2 83.0 L 104.2 95.0 L 92.2 101.0 L 92.2 29.0 L 104.2 35.0 L 122.03999996185303 35.0 L 123.0 33.4 L 124.1 30.3 L 125.3 27.4 L 126.3 24.8 L 127.2 22.4 L 128.1 20.2 L 128.7 18.3 L 129.3 16.5 L 129.7 15.0 L 129.76257200241088 14.728854751586914 L 129.5 14.6 L 130.5 12.8 Z M 12.6 101.2 L 10.5 97.2 L 11.8 92.8 L 13.5 91.2 L 15.2 89.1 L 16.9 86.6 L 18.6 83.6 L 20.2 80.2 L 21.8 76.3 L 23.4 72.0 L 25.0 67.4 L 26.6 62.3 L 28.1 56.8 L 29.8 57.1 L 29.8 62.8 L 29.7 68.2 L 29.3 73.3 L 28.7 78.1 L 27.9 82.6 L 27.0 86.7 L 25.8 90.6 L 24.4 94.2 L 22.9 97.5 L 21.0 100.5 L 17.0 102.6 Z M 73.0 78.7 L 72.1 75.9 L 70.9 73.1 L 69.5 70.2 L 67.9 67.2 L 66.1 64.1 L 64.0 60.9 L 61.8 57.5 L 59.2 54.3 L 60.4 53.0 L 63.9 55.5 L 67.3 57.8 L 70.4 60.3 L 73.2 63.0 L 75.9 65.6 L 78.3 68.4 L 80.5 71.3 L 82.5 74.2 L 84.2 77.2 L 85.7 80.3 L 85.3 84.8 L 81.9 87.8 L 77.3 87.4 L 74.3 83.9 L 73.8 81.3 Z M 104.2 61.0 L 104.2 79.0 L 165.7 79.0 L 165.7 61.0 Z M 104.2 39.0 L 104.2 57.0 L 165.7 57.0 L 165.7 39.0 Z " />
</g>
</svg>
