<svg xmlns="http://www.w3.org/2000/svg" xmlns:xlink="http://www.w3.org/1999/xlink" version="1.1" baseProfile="full" viewBox="0 0 200 200" width="200" height="200">
<g fill="black">
<path d="M 73.4 183.4 L 70.9 182.9 L 68.5 182.1 L 66.2 180.9 L 64.2 179.3 L 62.6 177.2 L 61.3 175.0 L 60.5 172.6 L 60.1 170.1 L 60.0 167.5 L 60.0 141.6 L 72.0 143.6 L 75.0 145.6 L 72.0 147.4 L 72.0 168.7 L 72.2 169.7 L 72.4 170.2 L 72.7 170.8 L 72.9 170.9 L 73.2 171.1 L 73.8 171.3 L 74.7 171.4 L 76.0 171.5 L 139.7 171.5 L 145.7 146.5 L 147.7 146.5 L 145.7 171.5 L 149.3 173.9 L 151.7 177.5 L 149.3 181.1 L 145.7 183.5 L 76.0 183.5 Z M 15.9 176.0 L 15.9 171.4 L 18.9 168.1 L 21.7 167.0 L 24.2 165.8 L 26.5 164.3 L 28.6 162.4 L 30.5 160.2 L 32.1 157.6 L 33.6 154.6 L 34.9 151.2 L 36.0 147.3 L 36.5 142.9 L 38.3 142.9 L 38.9 147.4 L 39.3 151.8 L 39.1 156.0 L 38.5 160.0 L 37.4 163.8 L 35.7 167.5 L 33.5 170.9 L 30.7 173.9 L 27.5 176.7 L 23.9 179.0 L 19.3 179.1 Z M 168.8 165.9 L 167.4 163.4 L 165.7 160.8 L 163.5 158.2 L 161.0 155.5 L 158.1 152.8 L 154.9 150.0 L 151.3 147.2 L 147.3 144.5 L 148.0 142.9 L 152.7 144.5 L 157.2 146.1 L 161.4 147.9 L 165.2 150.0 L 168.7 152.2 L 172.0 154.6 L 174.9 157.2 L 177.5 160.0 L 179.8 163.1 L 181.7 166.3 L 181.6 170.9 L 178.4 174.1 L 173.8 174.0 L 170.6 170.8 L 169.9 168.4 Z M 107.8 156.1 L 106.0 154.0 L 104.0 151.9 L 101.8 149.8 L 99.4 147.7 L 96.7 145.6 L 93.8 143.6 L 90.7 141.4 L 87.3 139.6 L 87.9 137.9 L 91.8 138.9 L 95.6 139.6 L 99.2 140.6 L 102.7 141.9 L 106.0 143.3 L 109.1 144.9 L 112.1 146.6 L 114.9 148.5 L 117.6 150.7 L 120.0 152.9 L 121.2 157.4 L 119.0 161.4 L 114.6 162.6 L 110.6 160.4 L 109.3 158.2 Z M 179.0 50.3 L 179.0 54.3 L 103.68421049118042 54.3 L 101.6 56.1 L 99.7 57.7 L 97.8 59.2 L 91.5 63.4 L 89.2 64.8 L 86.9 66.0 L 84.78461542129517 67.1 L 140.0 67.1 L 146.0 62.1 L 157.0 71.1 L 152.0 75.1 L 152.0 128.1 L 140.0 134.1 L 140.0 126.1 L 61.0 126.1 L 61.0 138.1 L 49.0 144.1 L 49.0 61.1 L 61.0 67.1 L 79.76842107772828 67.1 L 80.4 66.5 L 82.0 64.3 L 83.5 62.1 L 85.0 60.1 L 86.4 58.0 L 87.8 56.0 L 88.87368421554565 54.3 L 21.0 54.3 L 21.0 50.3 L 160.8181818008423 50.3 L 169.0 41.3 Z M 61.0 106.3 L 61.0 122.1 L 140.0 122.1 L 140.0 106.3 Z M 61.0 88.5 L 61.0 102.3 L 140.0 102.3 L 140.0 88.5 Z M 61.0 71.1 L 61.0 84.5 L 140.0 84.5 L 140.0 71.1 Z M 32.8 30.2 L 32.4 33.2 L 31.6 36.2 L 30.4 39.0 L 28.6 41.6 L 26.4 44.0 L 23.8 46.1 L 20.8 47.9 L 16.3 47.6 L 13.1 44.3 L 13.4 39.7 L 16.7 36.6 L 18.7 36.2 L 20.5 35.6 L 22.2 34.9 L 23.7 33.9 L 25.2 32.6 L 26.6 30.9 L 27.8 28.9 L 28.9 26.5 L 29.9 23.7 L 30.1 20.5 L 31.9 20.4 L 32.2 23.8 L 32.340625 24.7 L 94.0 24.7 L 94.0 8.5 L 106.0 10.5 L 109.0 12.5 L 106.0 14.3 L 106.0 24.7 L 170.0 24.7 L 170.675 24.1375 L 170.9 23.8 L 171.8 22.4 L 172.22792692184447 22.843394184112547 L 176.0 19.7 L 187.0 28.7 L 182.0 31.7 L 170.0 36.7 L 170.0 36.6 L 167.8 37.7 L 165.2 38.9 L 162.4 40.1 L 159.4 41.4 L 156.5 43.0 L 155.4 41.5 L 158.0 39.4 L 160.1 37.0 L 162.1 34.7 L 164.0 32.6 L 165.7 30.6 L 167.2 28.7 L 32.753125 28.7 Z " />
</g>
</svg>
