<svg xmlns="http://www.w3.org/2000/svg" xmlns:xlink="http://www.w3.org/1999/xlink" version="1.1" baseProfile="full" viewBox="0 0 200 200" width="200" height="200">
<g fill="black">
<path d="M 73.4 181.2 L 70.9 180.8 L 68.5 180.0 L 66.2 178.7 L 64.2 177.1 L 62.6 175.1 L 61.3 172.8 L 60.5 170.4 L 60.1 167.9 L 60.0 165.4 L 60.0 134.8 L 72.0 136.8 L 75.0 138.8 L 72.0 140.6 L 72.0 166.6 L 72.2 167.5 L 72.5 168.4 L 72.9 168.8 L 73.8 169.1 L 74.7 169.3 L 76.0 169.4 L 141.0 169.4 L 147.0 144.4 L 149.0 144.4 L 147.0 169.4 L 150.6 171.8 L 153.0 175.4 L 150.6 179.0 L 147.0 181.4 L 76.0 181.4 Z M 15.3 173.6 L 15.0 169.0 L 17.9 165.5 L 20.8 164.3 L 23.3 162.8 L 25.7 161.0 L 27.8 158.8 L 29.8 156.1 L 31.5 153.1 L 33.0 149.5 L 34.3 145.5 L 35.5 141.0 L 36.1 136.1 L 37.9 136.0 L 38.5 141.2 L 38.9 146.1 L 38.8 150.8 L 38.1 155.3 L 37.0 159.5 L 35.3 163.5 L 33.1 167.2 L 30.3 170.6 L 27.1 173.7 L 23.3 176.3 L 18.8 176.5 Z M 170.3 161.8 L 168.9 158.9 L 167.0 156.0 L 164.8 153.0 L 162.3 150.1 L 159.4 147.1 L 156.1 144.0 L 152.5 140.9 L 148.4 137.9 L 149.3 136.3 L 154.1 138.1 L 158.7 140.0 L 163.0 142.2 L 166.9 144.6 L 170.5 147.3 L 173.8 150.1 L 176.7 153.1 L 179.4 156.4 L 181.7 159.9 L 183.6 163.5 L 183.3 168.1 L 180.0 171.2 L 175.4 170.9 L 172.3 167.6 L 171.5 164.7 Z M 108.3 150.6 L 106.5 148.2 L 104.5 145.8 L 102.2 143.5 L 99.7 141.2 L 97.0 139.0 L 94.1 136.7 L 91.0 134.4 L 87.6 132.4 L 88.2 130.7 L 92.2 131.8 L 96.1 132.7 L 99.8 134.0 L 103.4 135.5 L 106.8 137.2 L 110.0 139.1 L 113.0 141.1 L 115.9 143.4 L 118.6 145.9 L 121.1 148.5 L 122.1 153.0 L 119.7 156.9 L 115.2 157.8 L 111.3 155.5 L 109.9 153.0 Z M 31.0 90.7 L 62.5 90.7 L 68.5 85.7 L 79.5 94.7 L 74.5 98.7 L 74.5 120.8 L 62.5 126.8 L 62.5 118.8 L 31.0 118.8 L 31.0 125.8 L 19.0 131.8 L 19.0 84.7 Z M 110.7 81.4 L 161.2 81.4 L 167.2 76.4 L 178.2 85.4 L 173.2 89.4 L 173.2 123.8 L 161.2 129.8 L 161.2 121.8 L 110.7 121.8 L 98.7 127.8 L 98.7 75.4 Z M 110.7 103.1 L 110.7 117.8 L 161.2 117.8 L 161.2 103.1 Z M 31.0 94.7 L 31.0 114.8 L 62.5 114.8 L 62.5 94.7 Z M 110.7 85.4 L 110.7 99.1 L 161.2 99.1 L 161.2 85.4 Z M 74.3 74.8 L 74.3 78.8 L 19.3 78.8 L 19.3 74.8 L 56.11818180084229 74.8 L 64.3 65.8 Z M 170.2151206970215 57.397458744049075 L 166.7 58.6 L 163.0 59.7 L 159.5 60.7 L 156.0 61.6 L 152.6 62.5 L 149.3 63.2 L 146.1 64.0 L 144.34922275543212 64.33886013031005 L 142.2 68.1 L 140.0 65.3 L 137.1 53.5 L 139.1 53.3 L 142.0 53.4 L 145.1 53.6 L 146.50546655654907 53.64392080307007 L 147.3 48.4 L 148.0 45.2 L 149.2 38.8 L 149.9 35.6 L 150.5 32.5 L 151.1 29.3 L 151.40967741012574 27.7 L 113.8884614944458 27.7 L 118.5 29.9 L 120.8 32.7 L 116.86308631896972 33.5978925704956 L 115.8 35.8 L 114.3 38.7 L 112.8 41.7 L 109.6 47.5 L 107.9 50.4 L 106.2 53.2 L 105.84285717010498 53.7 L 106.0 53.7 L 109.6 53.8 L 113.3 53.9 L 117.2 54.0 L 121.2 54.2 L 124.65905704498292 54.368734455108644 L 124.6 54.2 L 123.8 52.1 L 122.9 50.0 L 121.8 47.8 L 120.7 45.5 L 119.5 43.1 L 117.9 41.0 L 119.1 39.7 L 121.2 41.5 L 123.6 43.0 L 125.8 44.5 L 127.8 46.2 L 129.7 47.9 L 131.5 49.6 L 133.3 51.4 L 134.8 53.2 L 136.3 55.1 L 137.7 57.1 L 137.7 61.6 L 134.5 64.9 L 130.0 64.9 L 126.7 61.8 L 126.3 60.0 L 125.9 58.1 L 125.6807692527771 57.4057692527771 L 121.7 58.6 L 117.9 59.7 L 114.1 60.7 L 110.4 61.7 L 106.9 62.5 L 103.5 63.3 L 100.1 64.0 L 98.13952569961548 64.4288537979126 L 96.1 68.1 L 93.8 65.3 L 90.9 53.5 L 92.9 53.3 L 96.0 53.4 L 99.2 53.6 L 101.89972581863404 53.68180990219116 L 102.7 48.4 L 103.4 45.2 L 104.6 38.8 L 105.3 35.6 L 105.9 32.5 L 106.5 29.3 L 106.80967741012573 27.7 L 90.2 27.7 L 90.2 23.7 L 159.7 23.7 L 169.7 13.7 L 181.7 23.7 L 181.7 27.7 L 158.4884614944458 27.7 L 163.1 29.9 L 165.4 32.7 L 161.4358024597168 33.60411520004273 L 160.3 35.8 L 158.9 38.7 L 157.4 41.7 L 154.2 47.5 L 152.5 50.4 L 150.7 53.2 L 150.3191940307617 53.76118774414063 L 151.6 53.8 L 155.1 53.9 L 158.6 53.9 L 162.3 54.1 L 166.2 54.2 L 169.28300399780272 54.43715419769287 L 169.2 54.2 L 168.4 52.1 L 167.4 50.0 L 166.4 47.8 L 165.3 45.5 L 164.1 43.1 L 162.5 41.0 L 163.7 39.7 L 165.8 41.5 L 168.2 43.0 L 170.3 44.5 L 172.4 46.2 L 174.3 47.9 L 176.1 49.6 L 177.8 51.4 L 179.4 53.2 L 180.9 55.1 L 182.3 57.1 L 182.3 61.6 L 180.97961168289186 62.96165046691895 L 187.8 69.1 L 187.8 73.1 L 84.1 73.1 L 84.1 69.1 L 169.61818180084228 69.1 L 173.97236251831055 64.31040115356446 L 171.3 61.8 L 170.9 60.0 Z M 74.3 58.3 L 74.3 62.3 L 19.3 62.3 L 19.3 58.3 L 56.11818180084229 58.3 L 64.3 49.3 Z M 82.9 40.5 L 82.9 44.5 L 15.4 44.5 L 15.4 40.5 L 64.71818180084229 40.5 L 72.9 31.5 Z M 74.3 24.0 L 74.3 28.0 L 19.3 28.0 L 19.3 24.0 L 52.3 24.0 L 62.3 14.0 Z " />
</g>
</svg>
