<svg xmlns="http://www.w3.org/2000/svg" xmlns:xlink="http://www.w3.org/1999/xlink" version="1.1" baseProfile="full" viewBox="0 0 200 200" width="200" height="200">
<g fill="black">
<path d="M 73.4 183.6 L 70.9 183.2 L 68.5 182.4 L 66.2 181.1 L 64.2 179.5 L 62.6 177.5 L 61.3 175.2 L 60.5 172.8 L 60.1 170.3 L 60.0 167.8 L 60.0 129.6 L 72.0 131.6 L 75.0 133.6 L 72.0 135.4 L 72.0 169.0 L 72.2 169.9 L 72.5 170.8 L 72.9 171.2 L 73.8 171.5 L 74.7 171.7 L 76.0 171.8 L 141.0 171.8 L 147.0 146.8 L 149.0 146.8 L 147.0 171.8 L 150.6 174.2 L 153.0 177.8 L 150.6 181.4 L 147.0 183.8 L 76.0 183.8 Z M 15.4 175.6 L 14.8 171.1 L 17.4 167.4 L 20.3 165.8 L 22.9 163.8 L 25.3 161.5 L 27.5 158.6 L 29.5 155.3 L 31.3 151.4 L 32.8 147.0 L 34.1 142.1 L 35.3 136.7 L 36.1 130.7 L 37.9 130.6 L 38.7 136.8 L 39.1 142.6 L 39.0 148.2 L 38.3 153.4 L 37.2 158.3 L 35.5 162.9 L 33.4 167.2 L 30.6 171.1 L 27.4 174.6 L 23.6 177.6 L 19.1 178.3 Z M 170.2 161.1 L 168.6 157.5 L 166.8 154.0 L 164.5 150.5 L 162.0 147.0 L 159.1 143.5 L 155.8 140.0 L 152.3 136.4 L 148.3 132.8 L 149.3 131.3 L 154.3 133.5 L 158.9 136.0 L 163.2 138.8 L 167.2 141.8 L 170.8 145.1 L 174.1 148.6 L 177.1 152.4 L 179.7 156.3 L 182.0 160.5 L 183.8 164.8 L 183.3 169.4 L 179.8 172.3 L 175.3 171.8 L 172.3 168.3 L 171.4 164.7 Z M 108.1 147.4 L 106.3 144.5 L 104.2 141.7 L 101.9 139.0 L 99.5 136.4 L 96.8 133.8 L 93.9 131.2 L 90.9 128.6 L 87.5 126.3 L 88.2 124.6 L 92.3 125.9 L 96.3 127.3 L 100.1 129.0 L 103.7 130.9 L 107.1 133.1 L 110.4 135.4 L 113.5 138.0 L 116.4 140.9 L 119.1 143.9 L 121.6 147.1 L 122.2 151.7 L 119.5 155.4 L 115.0 156.0 L 111.3 153.3 L 109.8 150.3 Z M 156.6 119.4 L 154.7 120.9 L 152.7 122.3 L 150.6 123.4 L 148.4 124.3 L 146.1 125.0 L 143.8 125.5 L 141.4 125.8 L 139.0 125.9 L 139.0 119.9 L 119.0 116.9 L 119.0 113.9 L 139.0 113.9 L 141.8 113.7 L 143.1 113.4 L 144.3 113.0 L 145.5 112.5 L 146.6 111.9 L 147.6 111.2 L 148.7 110.4 L 149.7 109.5 L 150.6 108.3 L 151.5 107.2 L 152.3 105.6 L 153.2 103.7 L 154.0 101.3 L 154.7 98.6 L 155.3 95.5 L 155.9 92.1 L 156.4 88.3 L 156.7 84.1 L 156.84666662216188 81.9 L 137.68000001907347 81.9 L 137.4 82.4 L 133.9 88.4 L 129.8 94.0 L 125.0 99.3 L 119.6 104.1 L 113.5 108.6 L 106.9 112.8 L 99.7 116.5 L 91.8 119.9 L 83.4 122.8 L 74.2 125.2 L 73.7 123.5 L 81.9 119.3 L 89.5 115.1 L 96.5 110.8 L 102.8 106.4 L 108.4 101.9 L 113.3 97.3 L 117.6 92.5 L 121.2 87.6 L 124.1 82.6 L 124.41111106872559 81.9 L 103.26216220855713 81.9 L 101.7 83.6 L 96.4 89.2 L 90.4 94.5 L 83.9 99.4 L 76.7 103.9 L 69.0 108.0 L 60.7 111.8 L 51.7 115.2 L 42.2 118.2 L 32.0 120.7 L 21.2 122.7 L 20.7 120.9 L 30.9 117.0 L 40.4 113.1 L 49.2 109.1 L 57.4 105.0 L 64.9 100.6 L 71.7 96.1 L 77.9 91.4 L 83.3 86.5 L 87.62941179275512 81.9 L 65.08048782348632 81.9 L 63.1 83.3 L 57.0 87.2 L 50.6 90.7 L 43.8 93.9 L 36.7 96.8 L 29.2 99.3 L 21.4 101.4 L 13.2 103.0 L 12.7 101.2 L 20.1 97.8 L 27.2 94.3 L 34.0 90.8 L 40.3 87.1 L 46.3 83.4 L 51.9 79.4 L 57.1 75.3 L 62.0 71.0 L 65.03111114501954 67.9 L 14.0 67.9 L 14.0 63.9 L 171.7777777671814 63.9 L 178.0 56.9 L 186.0 63.9 L 186.0 67.9 L 81.6024390220642 67.9 L 79.4 70.0 L 74.3 74.7 L 70.46000003814697 77.9 L 157.0 77.9 L 163.0 72.9 L 174.0 81.9 L 169.0 84.9 L 168.69769229888917 85.0259614944458 L 168.3 89.5 L 167.8 93.7 L 167.1 97.7 L 166.4 101.4 L 165.5 104.8 L 164.4 108.0 L 163.1 110.9 L 161.6 113.5 L 159.9 115.9 L 158.3 117.8 Z M 55.7 18.6 L 144.2 18.6 L 150.2 13.6 L 161.2 22.6 L 156.2 26.6 L 156.2 54.1 L 144.2 60.1 L 144.2 54.1 L 55.7 54.1 L 43.7 60.1 L 43.7 12.6 Z M 55.7 37.9 L 55.7 50.1 L 144.2 50.1 L 144.2 37.9 Z M 55.7 22.6 L 55.7 33.9 L 144.2 33.9 L 144.2 22.6 Z " />
</g>
</svg>
