<svg xmlns="http://www.w3.org/2000/svg" xmlns:xlink="http://www.w3.org/1999/xlink" version="1.1" baseProfile="full" viewBox="0 0 200 200" width="200" height="200">
<g fill="black">
<path d="M 49.9 16.0 L 52.9 18.0 L 49.9 19.8 L 49.9 183.0 L 37.9 189.0 L 37.9 14.0 Z M 175.7 174.7 L 174.8 171.4 L 173.7 167.9 L 172.4 164.5 L 170.9 160.9 L 169.1 157.3 L 167.1 153.5 L 165.0 149.7 L 162.5 145.8 L 163.8 144.6 L 167.4 147.6 L 170.8 150.6 L 174.0 153.8 L 176.8 157.1 L 179.4 160.5 L 181.8 164.0 L 183.8 167.6 L 185.7 171.3 L 187.2 175.1 L 188.5 178.9 L 187.5 183.4 L 183.8 186.0 L 179.3 185.0 L 176.7 181.3 L 176.3 178.0 Z M 73.6 184.8 L 72.6 180.4 L 74.8 176.4 L 76.6 175.4 L 78.4 173.9 L 80.1 171.9 L 81.8 169.5 L 83.4 166.5 L 84.9 163.1 L 86.3 159.2 L 87.5 154.8 L 88.8 149.9 L 89.6 144.5 L 91.4 144.6 L 91.8 150.1 L 92.1 155.3 L 92.1 160.2 L 91.7 164.8 L 91.0 169.0 L 89.9 173.0 L 88.5 176.7 L 86.8 180.2 L 84.6 183.3 L 82.0 186.0 L 77.6 187.1 Z M 143.1 172.6 L 142.7 169.5 L 142.2 166.5 L 141.5 163.3 L 140.6 160.1 L 139.4 156.9 L 138.1 153.6 L 136.7 150.1 L 134.7 146.8 L 136.1 145.6 L 139.0 148.4 L 141.8 151.1 L 144.4 154.0 L 146.6 157.1 L 148.7 160.3 L 150.5 163.6 L 152.0 166.9 L 153.3 170.5 L 154.3 174.0 L 155.1 177.7 L 153.6 182.1 L 149.5 184.1 L 145.2 182.6 L 143.1 178.6 L 143.2 175.6 Z M 116.6 184.1 L 112.5 182.1 L 111.0 177.7 L 111.5 174.8 L 111.9 171.8 L 112.1 168.8 L 112.1 165.8 L 111.9 162.8 L 111.5 159.7 L 111.0 156.5 L 110.3 153.3 L 109.5 150.0 L 108.3 146.8 L 109.8 145.8 L 112.0 148.7 L 114.2 151.5 L 116.2 154.5 L 117.9 157.6 L 119.4 160.9 L 120.6 164.2 L 121.5 167.7 L 122.3 171.2 L 122.8 174.9 L 123.0 178.6 L 120.9 182.6 Z M 75.1 125.6 L 124.0 125.6 L 124.0 90.8 L 86.0 90.8 L 86.0 86.8 L 124.0 86.8 L 124.0 54.9 L 80.5 54.9 L 80.5 50.9 L 140.55652170181276 50.9 L 141.6 47.9 L 143.1 43.5 L 144.6 39.3 L 146.0 35.3 L 147.4 31.4 L 148.7 27.7 L 150.0 24.2 L 151.1 20.8 L 152.2 17.6 L 152.86990289688111 15.523300933837891 L 152.8 15.5 L 153.16610174179078 14.605084705352784 L 153.2 14.5 L 153.2077138900757 14.503366088867187 L 153.7 13.3 L 164.2 19.3 L 166.1 22.4 L 162.10382776260377 22.882296657562257 L 160.7 25.3 L 158.8 28.4 L 154.6 35.0 L 152.3 38.5 L 149.9 42.1 L 147.3 45.7 L 144.4 49.4 L 143.32307691574096 50.9 L 158.7 50.9 L 168.7 40.9 L 180.7 50.9 L 180.7 54.9 L 136.0 54.9 L 136.0 86.8 L 151.9 86.8 L 161.9 76.8 L 173.9 86.8 L 173.9 90.8 L 136.0 90.8 L 136.0 125.6 L 164.8 125.6 L 174.8 115.6 L 186.8 125.6 L 186.8 129.6 L 75.1 129.6 Z M 11.6 101.3 L 9.4 97.3 L 10.6 92.9 L 12.1 91.3 L 13.7 89.2 L 15.3 86.7 L 16.9 83.7 L 18.5 80.2 L 20.0 76.4 L 21.5 72.1 L 23.0 67.4 L 24.6 62.3 L 26.0 56.8 L 27.8 57.0 L 27.8 62.8 L 27.7 68.2 L 27.4 73.3 L 26.9 78.1 L 26.2 82.5 L 25.4 86.6 L 24.4 90.4 L 23.1 94.0 L 21.7 97.3 L 20.0 100.3 L 16.0 102.5 Z M 67.4 78.5 L 66.6 75.8 L 65.5 73.0 L 64.3 70.0 L 62.8 67.1 L 61.2 64.0 L 59.3 60.8 L 57.4 57.5 L 55.0 54.3 L 56.2 53.0 L 59.4 55.5 L 62.6 57.9 L 65.6 60.5 L 68.3 63.1 L 70.8 65.8 L 73.0 68.5 L 75.1 71.4 L 77.0 74.3 L 78.6 77.3 L 80.0 80.4 L 79.5 84.9 L 76.0 87.8 L 71.5 87.3 L 68.5 83.8 L 68.1 81.2 Z M 106.4 39.5 L 105.8 36.8 L 105.0 34.0 L 104.1 31.2 L 102.9 28.2 L 101.6 25.1 L 100.2 22.0 L 98.7 18.6 L 96.7 15.4 L 98.1 14.3 L 103.7 19.5 L 106.3 22.1 L 108.6 24.7 L 110.8 27.5 L 112.8 30.2 L 114.6 33.0 L 116.2 35.9 L 117.6 38.8 L 118.8 41.7 L 118.1 46.3 L 114.4 49.0 L 109.9 48.3 L 107.2 44.6 L 106.9 42.1 Z " />
</g>
</svg>
