<svg xmlns="http://www.w3.org/2000/svg" xmlns:xlink="http://www.w3.org/1999/xlink" version="1.1" baseProfile="full" viewBox="0 0 200 200" width="200" height="200">
<g fill="black">
<path d="M 73.4 183.3 L 70.9 182.8 L 68.5 182.0 L 66.2 180.8 L 64.2 179.1 L 62.6 177.1 L 61.3 174.9 L 60.5 172.4 L 60.1 170.0 L 60.0 167.4 L 60.0 134.8 L 72.0 136.8 L 75.0 138.8 L 72.0 140.6 L 72.0 168.6 L 72.2 169.5 L 72.4 170.1 L 72.5 170.5 L 72.7 170.6 L 72.9 170.8 L 73.2 171.0 L 73.8 171.2 L 74.7 171.3 L 76.0 171.4 L 141.0 171.4 L 147.0 146.4 L 149.0 146.4 L 147.0 171.4 L 150.6 173.8 L 153.0 177.4 L 150.6 181.0 L 147.0 183.4 L 76.0 183.4 Z M 15.3 175.5 L 14.9 171.0 L 17.8 167.4 L 20.6 166.1 L 23.2 164.5 L 25.6 162.5 L 27.7 160.1 L 29.7 157.3 L 31.5 154.0 L 33.0 150.3 L 34.3 146.0 L 35.4 141.3 L 36.1 136.0 L 37.9 136.0 L 38.6 141.4 L 39.0 146.6 L 38.8 151.5 L 38.2 156.2 L 37.0 160.6 L 35.4 164.8 L 33.2 168.6 L 30.4 172.2 L 27.2 175.3 L 23.4 178.0 L 18.9 178.4 Z M 170.3 163.0 L 168.8 159.9 L 167.0 156.8 L 164.8 153.7 L 162.2 150.6 L 159.3 147.5 L 156.0 144.3 L 152.4 141.1 L 148.4 137.9 L 149.3 136.3 L 154.1 138.3 L 158.8 140.3 L 163.0 142.7 L 167.0 145.3 L 170.6 148.1 L 173.9 151.1 L 176.8 154.3 L 179.5 157.8 L 181.7 161.4 L 183.6 165.3 L 183.3 169.8 L 179.9 172.9 L 175.4 172.6 L 172.3 169.2 L 171.5 166.1 Z M 108.3 151.1 L 106.4 148.6 L 104.4 146.1 L 102.1 143.7 L 99.7 141.3 L 97.0 139.0 L 94.1 136.6 L 91.0 134.2 L 87.5 132.1 L 88.2 130.5 L 96.2 132.7 L 99.9 134.1 L 103.5 135.7 L 106.9 137.5 L 110.1 139.5 L 113.2 141.7 L 116.1 144.1 L 118.7 146.7 L 121.2 149.5 L 122.1 154.0 L 119.6 157.9 L 115.1 158.7 L 111.3 156.3 L 109.9 153.7 Z M 62.9 85.9 L 137.0 85.9 L 143.0 80.9 L 154.0 89.9 L 149.0 93.9 L 149.0 124.3 L 137.0 130.3 L 137.0 124.3 L 62.9 124.3 L 50.9 130.3 L 50.9 79.9 Z M 62.9 89.9 L 62.9 120.3 L 137.0 120.3 L 137.0 89.9 Z M 142.3 44.3 L 143.9 47.6 L 139.61285171508788 47.67391633987427 L 138.6 48.9 L 136.5 51.3 L 134.2 53.9 L 131.7 56.6 L 128.9 59.4 L 126.0 62.4 L 122.8 65.4 L 119.2 68.5 L 118.3764705657959 69.3 L 157.9 69.3 L 167.9 59.3 L 179.9 69.3 L 179.9 73.3 L 20.1 73.3 L 20.1 69.3 L 115.18780488967896 69.3 L 116.9 66.6 L 119.2 62.6 L 121.4 58.8 L 123.4 55.2 L 125.3 51.9 L 127.0 48.8 L 128.5 45.9 L 129.8 43.2 L 130.9 40.7 L 131.4255033493042 39.35704698562622 L 131.3 39.3 L 131.7109889984131 38.627472496032716 L 131.8 38.4 L 131.83721933364868 38.420913791656496 L 132.4 37.5 Z M 69.6 59.2 L 68.7 56.9 L 67.7 54.5 L 66.5 52.2 L 65.0 49.8 L 63.4 47.4 L 61.5 44.9 L 59.5 42.4 L 57.0 40.2 L 58.0 38.7 L 61.1 40.3 L 64.2 41.7 L 67.0 43.4 L 69.7 45.3 L 72.3 47.3 L 74.6 49.5 L 76.7 51.8 L 78.7 54.3 L 80.5 57.0 L 82.0 59.8 L 81.7 64.4 L 78.4 67.5 L 73.8 67.2 L 70.7 63.8 L 70.2 61.5 Z M 169.5 33.5 L 169.5 37.5 L 30.4 37.5 L 30.4 33.5 L 147.5 33.5 L 157.5 23.5 Z M 95.1 27.4 L 94.1 26.0 L 92.9 24.4 L 91.4 22.7 L 89.6 20.9 L 87.5 19.1 L 85.3 17.2 L 82.8 15.1 L 79.8 13.5 L 80.5 11.8 L 83.8 13.0 L 87.0 13.7 L 90.0 14.6 L 92.8 15.5 L 95.4 16.5 L 97.9 17.6 L 100.1 18.8 L 102.2 20.0 L 104.1 21.4 L 105.9 22.9 L 106.9 27.4 L 104.5 31.3 L 100.1 32.3 L 96.1 29.9 L 95.8 28.8 Z " />
</g>
</svg>
