<svg xmlns="http://www.w3.org/2000/svg" xmlns:xlink="http://www.w3.org/1999/xlink" version="1.1" baseProfile="full" viewBox="0 0 200 200" width="200" height="200">
<g fill="black">
<path d="M 147.0 146.5 L 149.0 146.5 L 147.0 171.5 L 150.6 173.9 L 153.0 177.5 L 150.6 181.1 L 147.0 183.5 L 76.0 183.5 L 73.4 183.3 L 70.9 182.9 L 68.5 182.1 L 66.2 180.9 L 64.2 179.2 L 62.6 177.2 L 61.3 174.9 L 60.5 172.5 L 60.1 170.0 L 60.0 167.5 L 60.0 137.2 L 72.0 139.2 L 75.0 141.2 L 72.0 143.0 L 72.0 168.7 L 72.2 169.6 L 72.5 170.5 L 72.9 170.9 L 73.2 171.1 L 73.8 171.2 L 74.7 171.4 L 76.0 171.5 L 141.0 171.5 Z M 15.3 175.7 L 15.0 171.2 L 17.9 167.7 L 20.8 166.5 L 23.3 165.0 L 25.7 163.1 L 27.8 161.0 L 29.8 158.4 L 31.5 155.3 L 33.1 151.8 L 34.3 147.8 L 35.5 143.4 L 36.1 138.5 L 37.9 138.4 L 38.5 143.5 L 38.9 148.4 L 38.8 153.1 L 38.1 157.5 L 37.0 161.8 L 35.3 165.7 L 33.1 169.4 L 30.3 172.8 L 27.1 175.8 L 23.3 178.4 L 18.8 178.7 Z M 170.3 164.1 L 168.9 161.2 L 167.0 158.3 L 164.9 155.3 L 162.3 152.4 L 159.4 149.4 L 156.1 146.3 L 152.5 143.2 L 148.4 140.2 L 149.3 138.6 L 154.1 140.5 L 158.7 142.4 L 162.9 144.5 L 166.9 146.9 L 170.5 149.5 L 173.8 152.4 L 176.7 155.4 L 179.4 158.6 L 181.6 162.0 L 183.6 165.7 L 183.3 170.2 L 180.0 173.4 L 175.4 173.1 L 172.3 169.8 L 171.5 166.9 Z M 108.3 152.9 L 106.5 150.5 L 104.5 148.2 L 102.2 145.9 L 99.8 143.6 L 97.1 141.3 L 94.1 139.1 L 91.0 136.8 L 87.6 134.8 L 88.2 133.1 L 92.2 134.1 L 96.1 135.1 L 99.8 136.4 L 103.4 137.8 L 106.8 139.5 L 110.0 141.4 L 113.0 143.4 L 115.9 145.7 L 118.6 148.1 L 121.1 150.8 L 122.1 155.2 L 119.7 159.1 L 115.2 160.1 L 111.3 157.7 L 109.9 155.3 Z M 57.2 98.9 L 57.2 124.5 L 142.7 124.5 L 142.7 98.9 Z M 170.0 107.7 L 165.3 105.0 L 160.7 102.0 L 158.08059701919555 100.19552240371704 L 154.7 102.9 L 154.7 128.5 L 142.7 134.5 L 142.7 128.5 L 57.2 128.5 L 57.2 135.5 L 45.2 141.5 L 45.2 101.05483875274658 L 39.3 104.1 L 32.9 107.1 L 26.3 109.9 L 19.4 112.4 L 12.3 114.5 L 11.6 112.9 L 17.8 109.0 L 23.9 105.1 L 29.8 101.4 L 35.5 97.6 L 40.9 93.7 L 45.2 90.53584909439087 L 45.2 88.9 L 46.50769233703613 89.55384616851806 L 51.2 85.8 L 56.0 81.7 L 58.20243902206421 79.6 L 14.0 79.6 L 14.0 75.6 L 30.820415210723876 75.6 L 28.6 19.8 L 39.73795738220215 24.780387496948244 L 42.6 23.5 L 49.8 20.5 L 53.1 19.0 L 56.4 17.6 L 59.5 16.2 L 62.4 14.8 L 65.2 13.4 L 66.93284511566162 12.466929531097412 L 66.9 12.4 L 66.95960302352906 12.452521419525146 L 67.8 12.0 L 68.5168740272522 13.824770164489745 L 77.0 21.3 L 77.2 24.4 L 73.35393562316895 22.74323377609253 L 72.2 23.2 L 69.1 23.9 L 65.8 24.7 L 62.4 25.4 L 58.9 26.0 L 55.3 26.6 L 51.5 27.1 L 47.6 27.6 L 43.6 27.9 L 41.00935115814209 28.0233642578125 L 41.49827919006348 40.2 L 56.81818180084228 40.2 L 65.0 31.2 L 75.0 40.2 L 75.0 44.2 L 41.65889101028442 44.2 L 42.208986568450925 57.9 L 56.81818180084228 57.9 L 65.0 48.9 L 75.0 57.9 L 75.0 61.9 L 42.36959848403931 61.9 L 42.91969404220581 75.6 L 82.98365020751953 75.6 L 84.0 51.3 L 95.9 53.8 L 98.8 55.9 L 95.77801456451417 57.02583770751953 L 95.07563028335571 75.6 L 109.95649719238281 75.6 L 110.84350280761718 44.2 L 94.91034479141236 44.2 L 94.9 44.5 L 82.7 50.0 L 84.0 13.0 L 95.9 15.5 L 98.8 17.6 L 95.78812017440796 18.744514369964598 L 95.55517244338989 25.5 L 109.81818180084228 25.5 L 118.0 16.5 L 128.0 25.5 L 128.0 29.5 L 95.41724138259887 29.5 L 95.04827585220337 40.2 L 111.0 40.2 L 117.0 35.2 L 128.0 44.2 L 123.0 47.2 L 122.0 47.61666669845581 L 122.0 75.6 L 157.01320753097534 75.6 L 157.78867921829223 61.9 L 131.0 61.9 L 131.0 57.9 L 158.01509437561035 57.9 L 158.79056606292724 44.2 L 131.0 44.2 L 131.0 40.2 L 159.01698112487793 40.2 L 159.78679246902465 26.6 L 133.0 26.6 L 133.0 22.6 L 160.0 22.6 L 166.0 17.6 L 177.0 26.6 L 172.0 29.6 L 170.82736158370972 30.088599395751952 L 169.07692308425902 75.6 L 172.7777777671814 75.6 L 179.0 68.6 L 187.0 75.6 L 187.0 79.6 L 140.87142858505248 79.6 L 142.3 80.4 L 147.1 83.2 L 151.8 85.9 L 156.5 88.5 L 161.1 90.9 L 165.7 93.1 L 170.3 95.2 L 175.0 97.0 L 179.6 98.7 L 184.2 100.1 L 191.2 102.7 L 179.7 112.5 L 174.8 110.2 Z M 75.94545450210572 79.6 L 73.0 82.0 L 67.9 86.1 L 62.6 90.1 L 57.1 93.9 L 56.260465145111084 94.43023252487183 L 57.2 94.9 L 142.7 94.9 L 147.0489748954773 91.2758542060852 L 143.5 87.9 L 139.6 83.6 L 136.62127656936644 79.6 Z " />
</g>
</svg>
