<svg xmlns="http://www.w3.org/2000/svg" xmlns:xlink="http://www.w3.org/1999/xlink" version="1.1" baseProfile="full" viewBox="0 0 200 200" width="200" height="200">
<g fill="black">
<path d="M 73.4 181.8 L 70.9 181.3 L 68.5 180.5 L 66.2 179.3 L 64.2 177.7 L 62.6 175.6 L 61.3 173.4 L 60.5 171.0 L 60.1 168.5 L 60.0 165.9 L 60.0 132.3 L 72.0 134.3 L 75.0 136.3 L 72.0 138.1 L 72.0 167.1 L 72.2 168.1 L 72.4 168.6 L 72.5 169.0 L 72.7 169.2 L 72.9 169.3 L 73.2 169.5 L 73.8 169.7 L 74.7 169.8 L 76.0 169.9 L 141.0 169.9 L 147.0 144.9 L 149.0 144.9 L 147.0 169.9 L 150.6 172.3 L 153.0 175.9 L 150.6 179.5 L 147.0 181.9 L 76.0 181.9 Z M 15.3 174.0 L 14.9 169.5 L 17.7 165.9 L 20.6 164.5 L 23.1 162.8 L 25.5 160.8 L 27.7 158.3 L 29.7 155.4 L 31.4 152.0 L 33.0 148.1 L 34.3 143.8 L 35.4 138.9 L 36.1 133.5 L 37.9 133.5 L 38.6 139.0 L 39.0 144.3 L 38.9 149.3 L 38.2 154.1 L 37.1 158.6 L 35.4 162.9 L 33.2 166.8 L 30.5 170.4 L 27.2 173.6 L 23.4 176.4 L 18.9 176.8 Z M 170.3 161.1 L 168.8 158.0 L 166.9 154.8 L 164.7 151.6 L 162.2 148.4 L 159.3 145.2 L 156.0 142.0 L 152.4 138.7 L 148.4 135.4 L 149.3 133.9 L 154.2 135.9 L 158.8 138.0 L 163.1 140.4 L 167.0 143.1 L 170.6 146.0 L 173.9 149.1 L 176.9 152.4 L 179.5 156.0 L 181.8 159.7 L 183.7 163.6 L 183.3 168.2 L 179.9 171.2 L 175.3 170.9 L 172.3 167.5 L 171.4 164.3 Z M 108.2 148.9 L 106.4 146.3 L 104.4 143.8 L 102.1 141.3 L 99.6 138.9 L 97.0 136.5 L 94.1 134.1 L 91.0 131.7 L 87.5 129.5 L 88.2 127.9 L 90.0 128.3949999809265 L 90.0 125.0 L 70.0 122.0 L 70.0 119.0 L 91.2 119.0 L 92.1 118.8 L 93.0 118.5 L 93.4 118.1 L 93.7 117.2 L 93.9 116.3 L 94.0 115.0 L 94.0 101.5 L 14.0 101.5 L 14.0 97.5 L 94.0 97.5 L 94.0 88.9 L 103.52727270126343 90.48787879943848 L 108.0 88.5 L 114.0 85.9 L 119.5 83.6 L 124.7 81.5 L 129.4 79.5 L 131.0722222328186 78.8 L 40.0 78.8 L 40.0 74.8 L 139.9375 74.8 L 141.0 74.3 L 144.0 72.7 L 146.5 71.3 L 146.68950271606445 71.72541437149047 L 149.0 69.8 L 160.0 78.8 L 155.0 81.8 L 143.0 86.8 L 143.0 84.7615385055542 L 140.9 85.3 L 136.7 86.4 L 132.0 87.6 L 126.9 88.7 L 121.4 89.9 L 115.5 91.0 L 109.1 92.1 L 108.0127272605896 92.24181814193726 L 109.0 92.9 L 106.0 94.7 L 106.0 97.5 L 164.0 97.5 L 174.0 87.5 L 186.0 97.5 L 186.0 101.5 L 106.0 101.5 L 106.0 115.0 L 105.8 117.6 L 105.4 120.1 L 104.6 122.5 L 103.3 124.8 L 101.7 126.8 L 99.7 128.4 L 97.4 129.7 L 96.04210529327392 130.1526315689087 L 96.2 130.2 L 99.9 131.6 L 103.5 133.2 L 106.9 135.1 L 110.2 137.2 L 113.2 139.5 L 116.1 142.0 L 118.8 144.7 L 121.3 147.6 L 122.1 152.1 L 119.6 155.9 L 115.1 156.7 L 111.3 154.2 L 109.9 151.5 Z M 154.2 70.5 L 149.8 67.8 L 145.1 65.2 L 140.2 62.6 L 135.0 60.1 L 129.6 57.6 L 123.9 55.2 L 117.9 52.6 L 111.7 50.0 L 112.1 48.2 L 118.9 49.0 L 125.4 50.0 L 131.7 51.4 L 137.7 53.0 L 143.4 54.7 L 149.0 56.7 L 154.3 58.8 L 159.3 61.1 L 164.2 63.5 L 168.8 66.1 L 171.3 69.9 L 170.4 74.4 L 166.6 76.9 L 162.1 76.0 L 158.3 73.2 Z M 185.0 43.0 L 185.0 47.0 L 78.26407766342163 47.0 L 79.34822368621826 48.80108127593994 L 84.6 54.3 L 84.7 57.8 L 81.03676090240478 56.25758352279663 L 78.7 57.4 L 73.8 59.6 L 68.4 61.7 L 62.5 63.7 L 56.2 65.7 L 49.4 67.7 L 42.1 69.5 L 34.3 71.3 L 26.0 72.9 L 17.2 74.3 L 16.7 72.5 L 25.0 69.2 L 32.8 66.2 L 40.1 63.3 L 46.9 60.5 L 53.3 57.8 L 59.1 55.1 L 64.4 52.5 L 69.1 49.9 L 73.3 47.4 L 73.89200000762939 47.0 L 17.0 47.0 L 17.0 43.0 L 163.0 43.0 L 173.0 33.0 Z M 166.0 23.0 L 166.0 27.0 L 33.0 27.0 L 33.0 23.0 L 144.0 23.0 L 154.0 13.0 Z " />
</g>
</svg>
