<svg xmlns="http://www.w3.org/2000/svg" xmlns:xlink="http://www.w3.org/1999/xlink" version="1.1" baseProfile="full" viewBox="0 0 200 200" width="200" height="200">
<g fill="black">
<path d="M 15.1 177.5 L 15.5 172.9 L 18.9 169.9 L 21.8 169.2 L 24.3 168.4 L 26.6 167.4 L 28.6 166.2 L 30.4 164.8 L 32.0 163.2 L 33.4 161.2 L 34.7 158.8 L 35.8 156.0 L 36.1 152.9 L 37.9 152.8 L 38.3 156.2 L 38.6 159.5 L 38.5 162.8 L 37.7 166.1 L 36.5 169.2 L 34.7 172.1 L 32.4 174.8 L 29.6 177.3 L 26.3 179.4 L 22.7 181.3 L 18.1 180.9 Z M 170.8 170.9 L 169.4 169.0 L 167.7 167.0 L 165.5 164.9 L 162.9 162.8 L 159.9 160.7 L 156.6 158.4 L 152.8 156.1 L 148.6 154.0 L 149.2 152.3 L 153.8 153.5 L 158.3 154.4 L 162.4 155.6 L 166.2 156.9 L 169.7 158.4 L 172.9 160.0 L 175.8 161.8 L 178.4 163.8 L 180.8 166.0 L 182.8 168.5 L 183.2 173.0 L 180.4 176.6 L 175.8 177.0 L 172.2 174.2 L 171.7 172.6 Z M 108.9 163.7 L 107.1 162.0 L 105.0 160.4 L 102.8 158.7 L 100.2 157.0 L 97.5 155.3 L 94.5 153.6 L 91.3 151.8 L 87.7 150.4 L 88.1 148.6 L 92.0 149.2 L 95.8 149.6 L 99.4 150.2 L 102.8 150.9 L 106.0 151.8 L 109.1 152.8 L 112.0 153.9 L 114.8 155.2 L 117.4 156.7 L 119.9 158.3 L 121.7 162.4 L 120.1 166.7 L 116.0 168.6 L 111.7 167.0 L 110.4 165.4 Z M 60.0 151.3 L 72.0 153.3 L 75.0 155.3 L 72.0 157.1 L 72.0 169.8 L 72.2 170.7 L 72.4 171.3 L 72.5 171.7 L 72.7 171.8 L 72.9 172.0 L 73.2 172.2 L 73.8 172.4 L 74.7 172.5 L 76.0 172.6 L 141.0 172.6 L 147.0 147.6 L 149.0 147.6 L 147.0 172.6 L 150.6 175.0 L 153.0 178.6 L 150.6 182.2 L 147.0 184.6 L 76.0 184.6 L 73.4 184.5 L 70.9 184.0 L 68.5 183.2 L 66.2 182.0 L 64.2 180.3 L 62.6 178.3 L 61.3 176.1 L 60.5 173.6 L 60.1 171.2 L 60.0 168.6 L 60.0 157.0 L 48.0 163.0 L 48.0 106.73263158798218 L 39.9 107.5 L 20.0 108.8 L 19.9 107.1 L 39.4 103.8 L 58.1 100.4 L 75.8 97.0 L 92.5 93.5 L 108.3 89.7 L 110.98938417434692 88.99131088256836 L 104.0 89.8 L 92.1 91.2 L 80.5 92.5 L 69.2 93.7 L 58.1 94.8 L 47.3 96.0 L 36.7 97.1 L 30.428392219543458 97.70889396667481 L 28.6 101.0 L 26.4 98.1 L 23.5 86.3 L 25.5 86.1 L 35.9 85.7 L 46.5 85.3 L 52.0 85.04770641326904 L 52.0 46.3 L 64.0 52.3 L 68.72307691574096 52.3 L 68.9 52.2 L 70.9 50.5 L 72.9 48.9 L 74.8 47.4 L 78.6 44.6 L 82.2 42.0 L 83.9 40.7 L 84.79351072311401 40.06928653717041 L 84.7 39.9 L 84.84501514434814 40.03293046951294 L 85.6 39.5 L 86.53667097091675 41.583615112304685 L 94.3 48.7 L 94.5 51.9 L 90.67532787322997 50.32156391143799 L 90.5 50.4 L 88.5 50.9 L 86.4 51.3 L 84.2 51.8 L 82.0 52.2 L 81.53999996185303 52.3 L 134.0 52.3 L 140.0 47.3 L 151.0 56.3 L 146.0 60.3 L 146.0 78.60625 L 149.8 77.3 L 161.7 72.7 L 172.6 68.0 L 173.46687002182006 69.98657722473145 L 181.5 77.2 L 181.7 80.4 L 177.88096504211427 78.7888445854187 L 177.4 79.0 L 165.8 83.4 L 153.2 87.5 L 146.0 89.54179105758666 L 146.0 96.1 L 145.8 98.6 L 145.4 101.1 L 144.6 103.5 L 143.3 105.8 L 141.7 107.8 L 139.7 109.5 L 137.4 110.7 L 137.1 110.8 L 140.0 110.8 L 146.0 105.8 L 157.0 114.8 L 152.0 118.8 L 152.0 145.0 L 140.0 151.0 L 140.0 145.0 L 60.0 145.0 Z M 60.0 128.4 L 60.0 141.0 L 94.0 141.0 L 94.0 128.4 Z M 106.0 128.4 L 106.0 141.0 L 140.0 141.0 L 140.0 128.4 Z M 60.0 114.8 L 60.0 124.4 L 94.0 124.4 L 94.0 114.8 Z M 106.0 114.8 L 106.0 124.4 L 140.0 124.4 L 140.0 114.8 Z M 64.0 77.7 L 64.0 84.56216220855713 L 68.5 84.4 L 79.9 84.0 L 91.6 83.6 L 103.5 83.3 L 115.7 83.0 L 128.1 82.9 L 132.807035446167 82.93677368164063 L 134.0 82.58489208221435 L 134.0 77.7 Z M 64.0 66.4 L 64.0 73.7 L 134.0 73.7 L 134.0 66.4 Z M 64.0 56.3 L 64.0 62.4 L 134.0 62.4 L 134.0 56.3 Z M 134.0 14.5 L 137.0 16.5 L 134.0 18.3 L 134.0 28.5 L 165.0 28.5 L 175.0 18.5 L 187.0 28.5 L 187.0 32.5 L 134.0 32.5 L 134.0 43.9 L 122.0 49.9 L 122.0 32.5 L 78.0 32.5 L 78.0 43.9 L 66.0 49.9 L 66.0 32.5 L 13.0 32.5 L 13.0 28.5 L 66.0 28.5 L 66.0 12.5 L 78.0 14.5 L 81.0 16.5 L 78.0 18.3 L 78.0 28.5 L 122.0 28.5 L 122.0 12.5 Z M 110.0 100.1 L 130.0 100.1 L 131.2 100.0 L 132.1 99.9 L 132.7 99.7 L 133.0 99.5 L 133.4 99.1 L 133.7 98.2 L 133.9 97.3 L 134.0 96.1 L 134.0 92.7097222328186 L 125.4 94.8 L 110.1 98.0 L 94.0 100.9 L 76.9 103.5 L 58.9 105.7 L 51.24955749511719 106.42477874755859 L 60.0 110.8 L 130.0 110.8 L 130.0 106.1 L 110.0 103.1 Z " />
</g>
</svg>
