<svg xmlns="http://www.w3.org/2000/svg" xmlns:xlink="http://www.w3.org/1999/xlink" version="1.1" baseProfile="full" viewBox="0 0 200 200" width="200" height="200">
<g fill="black">
<path d="M 73.4 181.8 L 70.9 181.4 L 68.5 180.6 L 66.2 179.3 L 64.2 177.7 L 62.6 175.7 L 61.3 173.4 L 60.5 171.0 L 60.1 168.5 L 60.0 166.0 L 60.0 124.0 L 72.0 126.0 L 75.0 128.0 L 72.0 129.8 L 72.0 167.2 L 72.2 168.1 L 72.5 169.0 L 72.9 169.4 L 73.8 169.7 L 74.7 169.9 L 76.0 170.0 L 141.0 170.0 L 147.0 145.0 L 149.0 145.0 L 147.0 170.0 L 150.6 172.4 L 153.0 176.0 L 150.6 179.6 L 147.0 182.0 L 76.0 182.0 Z M 15.4 173.6 L 14.7 169.1 L 17.2 165.3 L 20.0 163.5 L 22.7 161.4 L 25.1 158.7 L 27.4 155.6 L 29.4 151.9 L 31.2 147.6 L 32.7 142.8 L 34.0 137.4 L 35.2 131.5 L 36.1 125.0 L 37.9 124.9 L 38.8 131.6 L 39.2 137.9 L 39.1 143.8 L 38.4 149.5 L 37.3 154.7 L 35.6 159.6 L 33.5 164.2 L 30.8 168.4 L 27.5 172.1 L 23.7 175.3 L 19.2 176.1 Z M 170.1 157.7 L 168.5 153.8 L 166.6 150.0 L 164.4 146.2 L 161.8 142.4 L 158.9 138.7 L 155.7 134.9 L 152.2 131.1 L 148.3 127.3 L 149.3 125.8 L 154.3 128.2 L 159.1 131.0 L 163.4 134.1 L 167.4 137.4 L 171.0 141.0 L 174.3 144.9 L 177.2 149.0 L 179.8 153.2 L 182.1 157.7 L 183.9 162.4 L 183.3 167.0 L 179.8 169.8 L 175.2 169.2 L 172.4 165.7 L 171.4 161.7 Z M 108.0 142.8 L 106.2 139.7 L 104.1 136.7 L 101.8 133.8 L 99.4 131.0 L 96.7 128.2 L 93.8 125.5 L 90.8 122.7 L 87.4 120.2 L 88.2 118.6 L 92.3 120.0 L 96.4 121.6 L 100.2 123.4 L 103.8 125.6 L 107.3 128.0 L 110.6 130.6 L 113.7 133.5 L 116.6 136.6 L 119.3 139.9 L 121.8 143.4 L 122.2 148.0 L 119.4 151.6 L 114.8 152.0 L 111.2 149.2 L 109.7 145.9 Z M 183.0 75.8 L 185.0 75.8 L 183.0 100.8 L 186.6 103.2 L 189.0 106.8 L 186.6 110.4 L 183.0 112.8 L 157.0 112.8 L 154.4 112.6 L 151.9 112.2 L 149.5 111.4 L 147.2 110.1 L 145.2 108.5 L 143.6 106.5 L 142.3 104.2 L 141.5 101.8 L 141.1 99.3 L 141.0 96.8 L 141.0 82.08999996185302 L 137.4 90.1 L 132.5 98.0 L 126.8 104.7 L 120.4 110.4 L 113.3 114.8 L 105.5 117.8 L 97.2 119.6 L 96.7 117.9 L 104.1 114.3 L 110.5 110.2 L 116.2 105.3 L 121.1 99.7 L 125.4 93.3 L 129.0 86.1 L 132.0 77.9 L 133.125 73.4 L 120.0 73.4 L 120.0 76.4 L 108.0 82.4 L 108.0 57.45384616851807 L 106.2 59.3 L 102.0 62.9 L 97.6 66.0 L 96.3 64.7 L 99.3 60.3 L 102.1 55.9 L 104.8 51.4 L 107.3 46.8 L 108.0 45.37083330154419 L 108.0 40.0 L 110.07868852615357 41.039344215393065 L 111.9 36.9 L 113.9 31.6 L 115.8 26.1 L 117.4 20.3 L 118.64779119491577 15.308835315704346 L 118.6 15.3 L 118.86666669845582 14.43333330154419 L 118.9 14.3 L 118.90709047317505 14.30195598602295 L 119.4 12.7 L 130.5 17.5 L 132.8 20.2 L 129.13164558410645 21.248101234436035 L 128.2 23.8 L 127.48000001907349 25.6 L 147.0 25.6 L 147.47727270126342 25.20227270126343 L 147.5 25.1 L 147.5649582862854 25.129201412200928 L 153.0 20.6 L 164.0 29.6 L 159.0 32.6 L 155.1891891479492 34.187837791442874 L 154.0 35.6 L 152.3 37.5 L 150.5 39.4 L 148.6 41.3 L 146.5 43.2 L 144.3 45.1 L 143.05 46.0 L 165.0 46.0 L 171.0 41.0 L 182.0 50.0 L 177.0 54.0 L 177.0 73.4 L 165.0 79.4 L 165.0 73.4 L 153.0 73.4 L 153.0 98.0 L 153.2 98.9 L 153.5 99.8 L 153.9 100.2 L 154.8 100.5 L 155.7 100.7 L 157.0 100.8 L 177.0 100.8 Z M 70.4 112.6 L 67.9 112.2 L 65.5 111.4 L 63.2 110.1 L 61.2 108.5 L 59.6 106.5 L 58.3 104.2 L 57.5 101.8 L 57.1 99.3 L 57.0 96.8 L 57.0 82.08999996185302 L 53.4 90.1 L 48.5 98.0 L 42.8 104.7 L 36.4 110.4 L 29.3 114.8 L 21.5 117.8 L 13.2 119.6 L 12.7 117.9 L 20.1 114.3 L 26.5 110.2 L 32.2 105.3 L 37.1 99.7 L 41.4 93.3 L 45.0 86.1 L 48.0 77.9 L 49.125 73.4 L 36.0 73.4 L 36.0 76.4 L 24.0 82.4 L 24.0 57.45384616851807 L 22.2 59.3 L 18.0 62.9 L 13.6 66.0 L 12.3 64.7 L 15.3 60.3 L 18.1 55.9 L 20.8 51.4 L 23.3 46.8 L 24.0 45.37083330154419 L 24.0 40.0 L 26.078688526153563 41.039344215393065 L 27.9 36.9 L 29.9 31.6 L 31.8 26.1 L 33.4 20.3 L 34.64779119491577 15.308835315704346 L 34.6 15.3 L 34.86666669845581 14.43333330154419 L 34.9 14.3 L 34.907090473175046 14.30195598602295 L 35.4 12.7 L 46.5 17.5 L 48.8 20.2 L 45.131645584106444 21.248101234436035 L 44.2 23.8 L 43.480000019073486 25.6 L 63.0 25.6 L 63.47727270126343 25.20227270126343 L 63.5 25.1 L 63.5649582862854 25.129201412200928 L 69.0 20.6 L 80.0 29.6 L 75.0 32.6 L 71.18918914794922 34.187837791442874 L 70.0 35.6 L 68.3 37.5 L 66.5 39.4 L 64.6 41.3 L 62.5 43.2 L 60.3 45.1 L 59.05 46.0 L 81.0 46.0 L 87.0 41.0 L 98.0 50.0 L 93.0 54.0 L 93.0 73.4 L 81.0 79.4 L 81.0 73.4 L 69.0 73.4 L 69.0 98.0 L 69.2 98.9 L 69.5 99.8 L 69.9 100.2 L 70.8 100.5 L 71.7 100.7 L 73.0 100.8 L 93.0 100.8 L 99.0 75.8 L 101.0 75.8 L 99.0 100.8 L 102.6 103.2 L 105.0 106.8 L 102.6 110.4 L 99.0 112.8 L 73.0 112.8 Z M 164.1 92.9 L 163.7 91.5 L 163.2 90.1 L 162.6 88.6 L 161.7 87.0 L 160.7 85.3 L 159.5 83.6 L 158.2 81.8 L 156.3 80.4 L 157.3 78.9 L 159.4 80.0 L 161.6 80.7 L 163.8 81.5 L 165.8 82.5 L 167.7 83.6 L 169.5 84.8 L 171.2 86.1 L 172.7 87.6 L 174.2 89.2 L 175.4 91.0 L 175.3 95.5 L 172.0 98.7 L 167.5 98.6 L 164.3 95.3 L 164.2 94.2 Z M 80.1 92.9 L 79.7 91.5 L 79.2 90.1 L 78.6 88.6 L 77.7 87.0 L 76.7 85.3 L 75.5 83.6 L 74.2 81.8 L 72.3 80.4 L 73.3 78.9 L 75.4 80.0 L 77.6 80.7 L 79.8 81.5 L 81.8 82.5 L 83.7 83.6 L 85.5 84.8 L 87.2 86.1 L 88.7 87.6 L 90.2 89.2 L 91.4 91.0 L 91.3 95.5 L 88.0 98.7 L 83.5 98.6 L 80.3 95.3 L 80.2 94.2 Z M 120.0 50.0 L 120.0 69.4 L 134.125 69.4 L 134.3 68.7 L 136.0 58.6 L 136.73018865585328 50.0 Z M 148.6714285850525 50.0 L 147.2 60.3 L 145.13181819915772 69.4 L 165.0 69.4 L 165.0 50.0 Z M 36.0 50.0 L 36.0 69.4 L 50.125 69.4 L 50.3 68.7 L 52.0 58.6 L 52.73018865585327 50.0 Z M 64.6714285850525 50.0 L 63.2 60.3 L 61.13181819915771 69.4 L 81.0 69.4 L 81.0 50.0 Z M 125.88000001907349 29.6 L 125.8 29.8 L 123.1 35.6 L 120.2 41.0 L 117.82255640029908 44.91127815246582 L 120.0 46.0 L 139.60769233703613 46.0 L 140.0 45.4 L 141.2 42.7 L 142.3 40.1 L 143.4 37.6 L 144.4 35.2 L 145.2 33.0 L 146.0 30.9 L 146.37142858505248 29.6 Z M 41.880000019073485 29.6 L 41.8 29.8 L 39.1 35.6 L 36.2 41.0 L 33.82255640029907 44.91127815246582 L 36.0 46.0 L 55.607692337036134 46.0 L 56.0 45.4 L 57.2 42.7 L 58.3 40.1 L 59.4 37.6 L 60.4 35.2 L 61.2 33.0 L 62.0 30.9 L 62.37142858505249 29.6 Z " />
</g>
</svg>
