<svg xmlns="http://www.w3.org/2000/svg" xmlns:xlink="http://www.w3.org/1999/xlink" version="1.1" baseProfile="full" viewBox="0 0 200 200" width="200" height="200">
<g fill="black">
<path d="M 157.0 185.7 L 147.7 182.7 L 139.1 179.1 L 131.3 174.9 L 128.94762725830077 173.3427954673767 L 127.1 174.3 L 118.1 178.1 L 108.4 181.4 L 97.9 184.2 L 86.6 186.3 L 74.6 187.9 L 74.2 186.1 L 85.7 182.6 L 96.4 179.0 L 106.2 175.2 L 115.1 171.2 L 121.3794900894165 167.78891897201538 L 118.0 164.9 L 112.6 159.0 L 108.2 152.5 L 105.23000001907349 146.2 L 92.7 146.2 L 92.7 142.2 L 149.6 142.2 L 150.05 141.825 L 150.6 141.0 L 150.8482681274414 141.15977649688722 L 155.6 137.2 L 166.6 146.2 L 161.6 149.2 L 158.15118112564087 150.63700790405272 L 155.5 153.9 L 149.6 159.8 L 142.9 165.2 L 138.67300930023194 167.90527400970458 L 143.1 169.7 L 151.1 172.2 L 159.8 174.3 L 169.2 175.9 L 179.3 177.0 L 189.7 178.2 L 177.8 190.1 L 167.1 188.2 Z M 47.5 16.0 L 50.5 18.0 L 47.5 19.8 L 47.5 183.0 L 35.5 189.0 L 35.5 14.0 Z M 107.9814814567566 146.2 L 111.5 150.0 L 116.9 154.9 L 122.6 159.3 L 128.8 163.2 L 128.81938886642456 163.2098349571228 L 130.4 162.2 L 136.7 157.3 L 142.1 152.1 L 146.8 146.7 L 147.13333330154418 146.2 Z M 160.4 77.9 L 152.5 75.0 L 145.4 71.6 L 139.3 67.4 L 134.1 62.5 L 130.0 56.9 L 128.09523811340333 52.9 L 96.1 52.9 L 96.1 67.31694917678833 L 98.4 67.2 L 110.4 66.6 L 116.5 66.3 L 122.7 66.0 L 128.9 65.9 L 135.2 65.9 L 135.5 67.6 L 129.5 69.6 L 123.5 71.3 L 117.4 72.8 L 111.4 74.1 L 105.5 75.3 L 99.5 76.5 L 93.6 77.5 L 87.6 78.5 L 86.76052627563476 78.63026313781738 L 98.1 84.3 L 156.8 84.3 L 162.8 79.3 L 173.8 88.3 L 168.8 92.3 L 168.8 131.0 L 156.8 137.0 L 156.8 131.0 L 98.1 131.0 L 86.1 137.0 L 86.1 78.73275861740112 L 81.8 79.4 L 79.96150712966919 79.64928712844849 L 78.1 83.0 L 75.9 80.2 L 72.9 68.4 L 74.9 68.2 L 80.7 68.0 L 84.1 67.88474578857422 L 84.1 13.4 L 96.1 19.4 L 157.5 19.4 L 163.5 14.4 L 174.5 23.4 L 169.5 27.4 L 169.5 38.5 L 157.5 44.5 L 157.5 38.5 L 136.8509433746338 38.5 L 137.1 41.8 L 138.3 46.5 L 139.442857170105 48.9 L 161.71818180084227 48.9 L 169.9 39.9 L 179.1165605545044 48.19490442276001 L 179.9 44.8 L 181.9 44.8 L 179.9848976135254 69.69633102416992 L 180.6 69.8 L 184.6 72.1 L 185.8 76.5 L 183.5 80.5 L 179.1 81.7 L 169.3 80.1 Z M 98.1 116.2 L 98.1 127.0 L 156.8 127.0 L 156.8 116.2 Z M 98.1 102.2 L 98.1 112.2 L 156.8 112.2 L 156.8 102.2 Z M 12.9 101.4 L 10.5 97.6 L 11.4 93.1 L 12.8 91.5 L 14.2 89.4 L 15.7 86.8 L 17.1 83.8 L 18.6 80.3 L 20.0 76.5 L 21.4 72.2 L 22.8 67.5 L 24.2 62.4 L 25.6 56.9 L 27.3 57.0 L 27.4 62.8 L 27.5 68.2 L 27.3 73.2 L 26.9 77.9 L 26.4 82.3 L 25.7 86.4 L 24.9 90.2 L 23.9 93.7 L 22.7 96.9 L 21.3 99.9 L 17.4 102.3 Z M 98.1 88.3 L 98.1 98.2 L 156.8 98.2 L 156.8 88.3 Z M 61.6 78.3 L 60.9 75.6 L 60.0 72.7 L 59.0 69.8 L 57.7 66.9 L 56.4 63.8 L 54.8 60.7 L 53.2 57.4 L 51.1 54.3 L 52.5 53.1 L 55.3 55.7 L 58.2 58.1 L 60.9 60.6 L 63.4 63.3 L 65.6 66.0 L 67.7 68.8 L 69.6 71.6 L 71.3 74.5 L 72.8 77.5 L 74.1 80.5 L 73.4 85.0 L 69.8 87.9 L 65.3 87.2 L 62.4 83.6 L 62.1 81.0 Z M 141.92105264663695 52.9 L 143.1 54.5 L 146.8 58.0 L 151.4 61.2 L 157.1 64.0 L 163.9 66.4 L 171.7 68.3 L 174.37296171188353 68.75049915313721 L 178.0307692527771 52.9 Z M 96.1 38.5 L 96.1 48.9 L 126.575 48.9 L 125.3 43.8 L 124.86438360214234 38.5 Z M 96.1 23.4 L 96.1 34.5 L 157.5 34.5 L 157.5 23.4 Z " />
</g>
</svg>
