<svg xmlns="http://www.w3.org/2000/svg" xmlns:xlink="http://www.w3.org/1999/xlink" version="1.1" baseProfile="full" viewBox="0 0 200 200" width="200" height="200">
<g fill="black">
<path d="M 73.4 183.8 L 70.9 183.3 L 68.5 182.5 L 66.2 181.3 L 64.2 179.7 L 62.6 177.6 L 61.3 175.4 L 60.5 173.0 L 60.1 170.5 L 60.0 167.9 L 60.0 134.3 L 72.0 136.3 L 75.0 138.3 L 72.0 140.1 L 72.0 169.1 L 72.2 170.1 L 72.4 170.6 L 72.5 171.0 L 72.7 171.2 L 72.9 171.3 L 73.2 171.5 L 73.8 171.7 L 74.7 171.8 L 76.0 171.9 L 141.0 171.9 L 147.0 146.9 L 149.0 146.9 L 147.0 171.9 L 150.6 174.3 L 153.0 177.9 L 150.6 181.5 L 147.0 183.9 L 76.0 183.9 Z M 15.3 176.0 L 14.9 171.5 L 17.7 167.9 L 20.6 166.5 L 23.1 164.8 L 25.5 162.8 L 27.7 160.3 L 29.7 157.4 L 31.4 154.0 L 33.0 150.1 L 34.3 145.8 L 35.4 140.9 L 36.1 135.5 L 37.9 135.5 L 38.6 141.0 L 39.0 146.3 L 38.9 151.3 L 38.2 156.1 L 37.1 160.6 L 35.4 164.9 L 33.2 168.8 L 30.5 172.4 L 27.2 175.6 L 23.4 178.4 L 18.9 178.8 Z M 170.3 163.1 L 168.8 160.0 L 166.9 156.8 L 164.7 153.6 L 162.2 150.4 L 159.3 147.2 L 156.0 144.0 L 152.4 140.7 L 148.4 137.4 L 149.3 135.9 L 154.2 137.9 L 158.8 140.0 L 163.1 142.4 L 167.0 145.1 L 170.6 148.0 L 173.9 151.1 L 176.9 154.4 L 179.5 158.0 L 181.8 161.7 L 183.7 165.6 L 183.3 170.2 L 179.9 173.2 L 175.3 172.9 L 172.3 169.5 L 171.4 166.3 Z M 108.2 150.9 L 106.4 148.3 L 104.4 145.8 L 102.1 143.3 L 99.6 140.9 L 97.0 138.5 L 94.1 136.1 L 91.0 133.7 L 87.5 131.5 L 88.2 129.9 L 92.2 131.0 L 96.2 132.2 L 99.9 133.6 L 103.5 135.2 L 106.9 137.1 L 110.2 139.2 L 113.2 141.5 L 116.1 144.0 L 118.8 146.7 L 121.3 149.6 L 122.1 154.1 L 119.6 157.9 L 115.1 158.7 L 111.3 156.2 L 109.9 153.5 Z M 53.6 84.5 L 148.3 84.5 L 154.3 79.5 L 165.3 88.5 L 160.3 92.5 L 160.3 117.5 L 148.3 123.5 L 148.3 115.5 L 53.6 115.5 L 53.6 122.5 L 41.6 128.5 L 41.6 78.5 Z M 53.6 88.5 L 53.6 111.5 L 148.3 111.5 L 148.3 88.5 Z M 174.6 43.6 L 176.6 43.6 L 174.6 60.6 L 177.6 62.6 L 179.6 65.6 L 177.6 68.6 L 174.6 70.6 L 140.4 70.6 L 137.9 70.5 L 135.5 70.2 L 133.2 69.5 L 131.0 68.5 L 129.0 67.0 L 127.3 65.1 L 126.1 62.9 L 125.2 60.6 L 124.6 58.1 L 124.4 55.6 L 124.4 32.1 L 88.03472223281861 32.1 L 87.5 35.6 L 84.9 42.3 L 80.9 48.2 L 75.7 53.4 L 69.2 57.8 L 61.7 61.6 L 53.0 64.7 L 43.2 67.3 L 32.3 69.2 L 20.1 70.5 L 19.8 68.7 L 31.5 65.5 L 41.8 62.1 L 50.7 58.6 L 58.4 54.8 L 64.6 50.7 L 69.4 46.5 L 72.9 42.2 L 75.2 37.7 L 76.4 33.2 L 76.44583330154418 32.1 L 32.0 32.1 L 32.0 28.1 L 76.6 28.1 L 76.6 12.3 L 88.6 14.3 L 91.6 16.3 L 88.6 18.1 L 88.6 28.1 L 124.4 28.1 L 130.4 23.1 L 141.4 32.1 L 136.4 36.1 L 136.4 57.8 L 136.5 58.4 L 136.6 58.9 L 137.0 59.5 L 137.4 59.8 L 138.1 60.1 L 139.1 60.4 L 140.4 60.6 L 169.6 60.6 Z " />
</g>
</svg>
