<svg xmlns="http://www.w3.org/2000/svg" xmlns:xlink="http://www.w3.org/1999/xlink" version="1.1" baseProfile="full" viewBox="0 0 200 200" width="200" height="200">
<g fill="black">
<path d="M 44.0 15.0 L 47.0 17.0 L 44.0 18.8 L 44.0 182.0 L 32.0 188.0 L 32.0 13.0 Z M 184.9 145.0 L 186.9 145.0 L 184.9 170.0 L 188.5 172.4 L 190.9 176.0 L 188.5 179.6 L 184.9 182.0 L 173.3 182.0 L 170.8 181.8 L 168.3 181.4 L 165.9 180.6 L 163.6 179.3 L 161.6 177.7 L 159.9 175.7 L 158.7 173.4 L 157.9 171.0 L 157.5 168.5 L 157.3 166.0 L 157.3 133.5714285850525 L 156.8 137.0 L 154.8 145.9 L 152.2 154.1 L 149.1 161.6 L 145.3 168.3 L 141.0 174.2 L 136.1 179.3 L 130.6 183.4 L 124.7 186.6 L 118.2 188.8 L 117.5 187.1 L 122.7 183.4 L 127.3 179.3 L 131.12608699798585 174.9 L 82.2 174.9 L 82.2 181.9 L 71.2 187.4 L 71.2 131.3444444656372 L 70.2 132.9 L 67.2 137.0 L 63.9 141.0 L 62.3 140.1 L 65.5 130.5 L 67.1 125.9 L 68.6 121.4 L 70.0 116.8 L 71.2 112.7384614944458 L 71.2 110.6 L 71.76299209594727 110.70236225128174 L 72.5 108.0 L 73.6 103.6 L 74.6 99.2 L 75.30765171051026 95.81899738311768 L 75.2 95.8 L 75.9 93.2 L 87.1 97.9 L 89.5 100.6 L 85.76007070541382 101.66855125427246 L 85.5 102.4 L 83.8 106.8 L 82.0 111.3 L 81.44505701065063 112.46273765563964 L 82.2 112.6 L 84.01999998092651 113.9 L 96.5 113.9 L 96.7 110.1 L 96.9 108.3 L 97.3 104.5 L 97.6 102.6 L 97.9 100.6 L 98.1 98.7 L 98.25779628753662 97.64802494049073 L 98.1 97.6 L 98.38085107803344 96.8276596069336 L 98.4 96.7 L 98.42386360168457 96.709375 L 98.9 95.4 L 109.6 101.1 L 111.7 104.0 L 107.07722768783569 104.79702968597412 L 104.9 107.7 L 103.7 109.2 L 102.4 110.7 L 99.8 113.5 L 99.3692307472229 113.9 L 110.61818180084228 113.9 L 118.8 104.9 L 128.8 113.9 L 128.8 117.9 L 105.1 117.9 L 105.1 132.6 L 109.77777776718139 132.6 L 116.0 125.6 L 124.0 132.6 L 124.0 136.6 L 105.1 136.6 L 105.1 152.2 L 109.77777776718139 152.2 L 116.0 145.2 L 124.0 152.2 L 124.0 156.2 L 105.1 156.2 L 105.1 170.9 L 110.8 170.9 L 120.8 160.9 L 132.8 170.9 L 132.8 172.61666669845582 L 134.9 169.7 L 137.9 164.1 L 140.5 157.9 L 142.6 151.1 L 144.3 143.6 L 145.5 135.4 L 146.12222223281861 127.4 L 146.1 127.4 L 146.4 124.3 L 157.3 127.16355934143067 L 157.3 122.4 L 146.5 122.4 L 136.5 127.4 L 136.5 20.2 L 146.5 25.2 L 170.4 25.2 L 176.4 20.2 L 187.4 29.2 L 182.4 33.2 L 182.4 128.4 L 170.4 134.4 L 170.4 122.4 L 169.3 122.4 L 169.3 166.0 L 169.4 167.2 L 169.6 168.1 L 169.9 169.0 L 170.3 169.4 L 171.2 169.7 L 172.1 169.9 L 173.3 170.0 L 178.9 170.0 Z M 82.2 156.2 L 82.2 170.9 L 94.1 170.9 L 94.1 156.2 Z M 82.2 136.6 L 82.2 152.2 L 94.1 152.2 L 94.1 136.6 Z M 82.2 117.9 L 82.2 132.6 L 94.1 132.6 L 94.1 117.9 Z M 146.5 90.0 L 146.5 118.4 L 170.4 118.4 L 170.4 90.0 Z M 17.3 100.6 L 14.3 97.2 L 14.6 92.6 L 15.7 90.9 L 16.8 88.8 L 18.0 86.1 L 19.2 83.1 L 20.4 79.6 L 21.5 75.6 L 22.7 71.3 L 23.9 66.6 L 25.1 61.4 L 26.3 55.9 L 28.1 56.0 L 28.3 61.7 L 28.5 67.1 L 28.6 72.0 L 28.5 76.7 L 28.3 81.0 L 27.9 85.0 L 27.5 88.6 L 26.9 92.0 L 26.2 95.1 L 25.3 97.9 L 21.8 100.9 Z M 75.8 61.7 L 86.7 61.7 L 91.2 56.7 L 99.5 64.5631579399109 L 99.5 57.2 L 108.5 61.7 L 120.3 61.7 L 124.8 56.7 L 134.3 65.7 L 129.3 68.2 L 129.3 89.8 L 120.3 94.3 L 120.3 87.8 L 108.5 87.8 L 99.5 92.3 L 99.5 66.3 L 95.7 68.2 L 95.7 87.8 L 86.7 92.3 L 86.7 87.8 L 75.8 87.8 L 64.8 93.3 L 64.8 56.2 Z M 51.1 76.8 L 50.7 74.0 L 50.2 71.2 L 49.6 68.4 L 48.9 65.5 L 48.1 62.5 L 47.2 59.5 L 46.2 56.3 L 44.8 53.3 L 46.3 52.3 L 48.5 54.9 L 50.8 57.4 L 52.9 60.0 L 54.9 62.7 L 56.7 65.4 L 58.3 68.2 L 59.8 71.1 L 61.1 74.0 L 62.3 76.9 L 63.3 79.9 L 62.4 84.3 L 58.6 86.9 L 54.1 85.9 L 51.6 82.1 L 51.4 79.5 Z M 146.5 59.6 L 146.5 86.0 L 170.4 86.0 L 170.4 59.6 Z M 108.5 65.7 L 108.5 83.8 L 120.3 83.8 L 120.3 65.7 Z M 75.8 65.7 L 75.8 83.8 L 86.7 83.8 L 86.7 65.7 Z M 114.3 16.0 L 117.0 18.0 L 114.3 19.723404216766358 L 114.3 33.3 L 118.1777777671814 33.3 L 124.4 26.3 L 132.4 33.3 L 132.4 37.3 L 114.3 37.3 L 114.3 52.2 L 103.3 57.7 L 103.3 37.3 L 91.9 37.3 L 91.9 52.2 L 80.9 57.7 L 80.9 37.3 L 62.7 37.3 L 62.7 33.3 L 80.9 33.3 L 80.9 14.0 L 91.9 16.0 L 94.6 18.0 L 91.9 19.723404216766358 L 91.9 33.3 L 103.3 33.3 L 103.3 14.0 Z M 146.5 29.2 L 146.5 55.6 L 170.4 55.6 L 170.4 29.2 Z " />
</g>
</svg>
