<svg xmlns="http://www.w3.org/2000/svg" xmlns:xlink="http://www.w3.org/1999/xlink" version="1.1" baseProfile="full" viewBox="0 0 200 200" width="200" height="200">
<g fill="black">
<path d="M 147.0 145.0 L 149.0 145.0 L 147.0 170.0 L 150.6 172.4 L 153.0 176.0 L 150.6 179.6 L 147.0 182.0 L 76.0 182.0 L 73.4 181.8 L 70.9 181.4 L 68.5 180.6 L 66.2 179.3 L 64.2 177.7 L 62.6 175.7 L 61.3 173.4 L 60.5 171.0 L 60.1 168.5 L 60.0 166.0 L 60.0 124.0 L 72.0 126.0 L 75.0 128.0 L 72.0 129.8 L 72.0 167.2 L 72.2 168.1 L 72.5 169.0 L 72.9 169.4 L 73.8 169.7 L 74.7 169.9 L 76.0 170.0 L 141.0 170.0 Z M 15.4 173.6 L 14.7 169.1 L 17.2 165.3 L 20.0 163.5 L 22.7 161.4 L 25.1 158.7 L 27.4 155.6 L 29.4 151.9 L 31.2 147.6 L 32.7 142.8 L 34.0 137.4 L 35.2 131.5 L 36.1 125.0 L 37.9 124.9 L 38.8 131.6 L 39.2 137.9 L 39.1 143.8 L 38.4 149.5 L 37.3 154.7 L 35.6 159.6 L 33.5 164.2 L 30.8 168.4 L 27.5 172.1 L 23.7 175.3 L 19.2 176.1 Z M 170.1 157.7 L 168.5 153.8 L 166.6 150.0 L 164.4 146.2 L 161.8 142.4 L 158.9 138.7 L 155.7 134.9 L 152.2 131.1 L 148.3 127.3 L 149.3 125.8 L 154.3 128.2 L 159.1 131.0 L 163.4 134.1 L 167.4 137.4 L 171.0 141.0 L 174.3 144.9 L 177.2 149.0 L 179.8 153.2 L 182.1 157.7 L 183.9 162.4 L 183.3 167.0 L 179.8 169.8 L 175.2 169.2 L 172.4 165.7 L 171.4 161.7 Z M 108.0 142.8 L 106.2 139.7 L 104.1 136.7 L 101.8 133.8 L 99.4 131.0 L 96.7 128.2 L 93.8 125.5 L 90.8 122.7 L 87.4 120.2 L 88.2 118.6 L 92.3 120.0 L 96.4 121.6 L 100.2 123.4 L 103.8 125.6 L 107.3 128.0 L 110.6 130.6 L 113.7 133.5 L 116.6 136.6 L 119.3 139.9 L 121.8 143.4 L 122.2 148.0 L 119.4 151.6 L 114.8 152.0 L 111.2 149.2 L 109.7 145.9 Z M 153.1 63.4 L 154.3 66.8 L 150.35253734588622 66.32358207702637 L 145.3 71.7 L 136.1 79.3 L 125.5 86.0 L 113.4 91.9 L 100.0 97.1 L 85.3 101.6 L 69.1 105.3 L 51.5 108.3 L 32.5 110.5 L 12.0 111.8 L 11.9 110.1 L 32.0 106.8 L 50.5 103.1 L 67.6 98.9 L 83.1 94.3 L 97.1 89.2 L 109.5 83.5 L 120.3 77.3 L 129.6 70.7 L 137.3 63.6 L 143.40909090042115 56.327272701263425 L 144.0 55.5 Z M 60.9 38.5 L 62.7 41.7 L 58.74191904067993 41.96834449768066 L 58.1 43.0 L 55.0 47.4 L 51.5 51.8 L 47.6 56.3 L 43.3 60.7 L 38.6 65.2 L 33.5 69.6 L 28.0 74.1 L 22.0 78.4 L 15.5 82.6 L 14.4 81.3 L 19.5 75.6 L 24.3 70.1 L 28.9 65.0 L 33.1 60.0 L 36.9 55.1 L 40.3 50.4 L 43.4 45.9 L 46.0 41.5 L 48.3 37.2 L 50.1 33.2 L 50.14014873504639 33.21970262527466 L 50.7 32.1 Z M 70.0 69.0 L 90.0 69.0 L 91.2 68.9 L 92.1 68.7 L 93.0 68.4 L 93.4 68.0 L 93.7 67.1 L 93.9 66.2 L 94.0 65.0 L 94.0 13.0 L 106.0 15.0 L 109.0 17.0 L 106.0 18.8 L 106.0 65.0 L 105.8 67.5 L 105.4 70.0 L 104.6 72.4 L 103.3 74.7 L 101.7 76.7 L 99.7 78.3 L 97.4 79.6 L 95.0 80.4 L 92.5 80.8 L 90.0 81.0 L 90.0 75.0 L 70.0 72.0 Z M 168.0 60.6 L 165.2 57.1 L 162.1 53.5 L 158.6 50.0 L 154.7 46.4 L 150.4 42.7 L 145.7 39.0 L 140.7 35.2 L 135.4 31.2 L 136.3 29.6 L 142.6 31.9 L 148.5 34.5 L 154.1 37.3 L 159.2 40.3 L 164.0 43.4 L 168.4 46.7 L 172.4 50.1 L 176.1 53.7 L 179.5 57.4 L 182.5 61.2 L 183.2 65.8 L 180.5 69.5 L 176.0 70.2 L 172.3 67.6 L 170.3 64.1 Z " />
</g>
</svg>
