<svg xmlns="http://www.w3.org/2000/svg" xmlns:xlink="http://www.w3.org/1999/xlink" version="1.1" baseProfile="full" viewBox="0 0 200 200" width="200" height="200">
<g fill="black">
<path d="M 147.0 147.3 L 149.0 147.3 L 147.0 172.3 L 150.6 174.7 L 153.0 178.3 L 150.6 181.9 L 147.0 184.3 L 76.0 184.3 L 73.4 184.2 L 70.9 183.7 L 68.5 182.9 L 66.2 181.7 L 64.2 180.1 L 62.6 178.0 L 61.3 175.8 L 60.5 173.4 L 60.1 170.9 L 60.0 168.3 L 60.0 139.8 L 72.0 141.8 L 75.0 143.8 L 72.0 145.6 L 72.0 169.5 L 72.2 170.5 L 72.4 171.0 L 72.5 171.4 L 72.7 171.6 L 72.9 171.7 L 73.2 171.9 L 73.8 172.1 L 74.7 172.2 L 76.0 172.3 L 141.0 172.3 Z M 15.2 176.7 L 15.1 172.1 L 18.1 168.7 L 20.9 167.5 L 23.5 166.1 L 25.8 164.4 L 27.9 162.4 L 29.9 159.9 L 31.6 157.1 L 33.1 153.8 L 34.4 150.0 L 35.5 145.8 L 36.1 141.1 L 37.9 141.1 L 38.5 145.9 L 38.9 150.6 L 38.7 155.1 L 38.1 159.4 L 36.9 163.4 L 35.2 167.3 L 33.0 170.9 L 30.2 174.1 L 27.0 177.0 L 23.2 179.5 L 18.7 179.7 Z M 170.4 165.7 L 168.9 162.9 L 167.1 160.1 L 164.9 157.3 L 162.4 154.5 L 159.5 151.6 L 156.2 148.7 L 152.5 145.7 L 148.5 142.8 L 149.2 141.2 L 154.1 142.9 L 158.6 144.7 L 162.9 146.7 L 166.8 149.0 L 170.4 151.4 L 173.7 154.1 L 176.6 156.9 L 179.3 160.0 L 181.6 163.3 L 183.5 166.8 L 183.3 171.3 L 180.0 174.5 L 175.5 174.3 L 172.3 171.0 L 171.5 168.4 Z M 108.4 155.0 L 106.6 152.8 L 104.5 150.5 L 102.3 148.3 L 99.8 146.1 L 97.1 143.9 L 94.2 141.8 L 91.1 139.5 L 87.6 137.6 L 87.68571424484253 137.35714282989503 L 85.8 138.3 L 85.8 77.2 L 61.792307662963864 77.2 L 59.9 79.0 L 55.3 82.8 L 50.2 86.3 L 44.6 89.7 L 38.5 93.0 L 31.7 96.0 L 24.4 98.7 L 23.6 97.1 L 29.9 92.7 L 35.7 88.4 L 40.9 84.3 L 45.6 80.3 L 49.8 76.3 L 52.7 73.23888893127442 L 52.7 73.2 L 52.73684206008911 73.2 L 53.4 72.5 L 56.4 68.7 L 58.8 64.9 L 60.7 61.3 L 61.65869951248169 58.71888589859009 L 61.6 58.7 L 62.5 56.5 L 73.1 62.4 L 75.1 65.4 L 71.03035478591919 66.04257555007935 L 70.6 66.8 L 67.6 71.1 L 65.71000003814697 73.2 L 154.8 73.2 L 164.8 63.2 L 176.8 73.2 L 176.8 77.2 L 97.8 77.2 L 97.8 91.4 L 142.4181818008423 91.4 L 150.6 82.4 L 160.6 91.4 L 160.6 95.4 L 97.8 95.4 L 97.8 111.5 L 146.2 111.5 L 156.2 101.5 L 168.2 111.5 L 168.2 115.5 L 97.8 115.5 L 97.8 132.3 L 89.78644065856933 136.30677967071534 L 92.1 136.9 L 96.1 137.8 L 99.8 138.9 L 103.3 140.3 L 106.7 141.9 L 109.9 143.6 L 112.9 145.6 L 115.8 147.7 L 118.5 150.0 L 121.0 152.5 L 122.0 156.9 L 119.7 160.9 L 115.3 161.9 L 111.3 159.7 L 110.0 157.3 Z M 159.26705884933472 14.969411754608155 L 170.5 24.3 L 170.9 27.3 L 166.38782958984376 24.893509101867675 L 160.8 25.7 L 150.0 26.9 L 139.1 28.1 L 127.9 29.1 L 116.6 30.0 L 105.1 30.8 L 93.5 31.5 L 81.6 32.0 L 69.6 32.4 L 57.4 32.4 L 57.24695377349853 32.397531509399414 L 58.7 34.9 L 54.749658298492434 35.24054670333862 L 54.4 35.8 L 51.6 39.6 L 48.6 43.2 L 45.3 46.7 L 41.8 49.9 L 38.1 53.0 L 34.1 55.8 L 29.8 58.4 L 25.2 60.8 L 20.4 62.8 L 19.5 61.3 L 23.2 57.9 L 26.7 54.4 L 30.0 51.0 L 33.1 47.6 L 35.9 44.2 L 38.4 40.8 L 40.7 37.3 L 42.7 33.7 L 44.6 30.1 L 45.721483421325686 27.408439922332764 L 45.7 27.4 L 45.85 27.1 L 46.1 26.5 L 46.14014873504639 26.519702625274657 L 46.7 25.4 L 52.809000396728514 29.233098316192628 L 57.1 28.6 L 69.2 27.0 L 81.1 25.5 L 92.8 23.9 L 104.3 22.4 L 115.6 20.8 L 126.8 19.1 L 137.7 17.4 L 148.5 15.7 L 159.1 13.8 Z M 163.5 52.8 L 161.6 50.4 L 159.3 48.0 L 156.7 45.5 L 153.7 42.8 L 150.3 40.1 L 146.7 37.3 L 142.8 34.3 L 138.4 31.3 L 139.2 29.7 L 144.2 31.5 L 149.0 33.2 L 153.4 35.0 L 157.5 37.0 L 161.3 38.9 L 164.8 41.0 L 168.0 43.1 L 170.9 45.3 L 173.6 47.6 L 176.0 49.9 L 177.0 54.4 L 174.7 58.3 L 170.3 59.4 L 166.3 57.1 L 165.1 55.0 Z M 99.5 51.0 L 98.8 49.2 L 97.8 47.4 L 96.6 45.5 L 95.1 43.4 L 93.4 41.4 L 91.4 39.2 L 89.1 36.9 L 86.4 35.0 L 87.3 33.5 L 90.4 34.8 L 93.5 35.9 L 96.4 37.2 L 99.1 38.5 L 101.7 40.0 L 104.0 41.6 L 106.2 43.4 L 108.1 45.3 L 109.9 47.4 L 111.4 49.7 L 111.3 54.2 L 108.1 57.5 L 103.5 57.4 L 100.3 54.2 L 100.0 52.6 Z " />
</g>
</svg>
