<svg xmlns="http://www.w3.org/2000/svg" xmlns:xlink="http://www.w3.org/1999/xlink" version="1.1" baseProfile="full" viewBox="0 0 200 200" width="200" height="200">
<g fill="black">
<path d="M 73.4 183.7 L 70.9 183.3 L 68.5 182.5 L 66.2 181.3 L 64.2 179.6 L 62.6 177.6 L 61.3 175.3 L 60.5 172.9 L 60.1 170.4 L 60.0 167.9 L 60.0 130.0 L 72.0 132.0 L 75.0 134.0 L 72.0 135.8 L 72.0 169.1 L 72.2 170.0 L 72.5 170.9 L 72.9 171.3 L 73.2 171.5 L 73.8 171.6 L 74.7 171.8 L 76.0 171.9 L 141.0 171.9 L 147.0 146.9 L 149.0 146.9 L 147.0 171.9 L 150.6 174.3 L 153.0 177.9 L 150.6 181.5 L 147.0 183.9 L 76.0 183.9 Z M 15.4 175.7 L 14.8 171.2 L 17.4 167.5 L 20.3 165.9 L 22.9 164.0 L 25.3 161.7 L 27.5 158.8 L 29.5 155.5 L 31.3 151.7 L 32.8 147.3 L 34.1 142.4 L 35.3 137.0 L 36.1 131.1 L 37.9 131.0 L 38.7 137.1 L 39.1 142.9 L 39.0 148.4 L 38.3 153.6 L 37.2 158.6 L 35.5 163.1 L 33.3 167.4 L 30.6 171.3 L 27.4 174.8 L 23.6 177.8 L 19.1 178.4 Z M 170.2 161.3 L 168.6 157.8 L 166.8 154.2 L 164.6 150.8 L 162.0 147.3 L 159.1 143.8 L 155.8 140.3 L 152.3 136.7 L 148.3 133.2 L 149.3 131.6 L 154.2 133.9 L 158.9 136.3 L 163.2 139.1 L 167.2 142.1 L 170.8 145.4 L 174.1 148.9 L 177.1 152.6 L 179.7 156.5 L 181.9 160.6 L 183.8 165.0 L 183.3 169.5 L 179.8 172.5 L 175.3 172.0 L 172.3 168.5 L 171.4 164.9 Z M 108.1 147.7 L 106.3 144.8 L 104.2 142.1 L 102.0 139.4 L 99.5 136.8 L 96.8 134.2 L 93.9 131.6 L 90.9 129.0 L 87.5 126.7 L 88.2 125.0 L 92.3 126.3 L 96.3 127.7 L 100.1 129.3 L 103.7 131.2 L 107.1 133.4 L 110.4 135.8 L 113.5 138.4 L 116.4 141.2 L 119.1 144.2 L 121.6 147.4 L 122.2 151.9 L 119.5 155.6 L 115.0 156.2 L 111.3 153.5 L 109.8 150.6 Z M 121.2 103.7 L 141.2 103.7 L 142.4 103.6 L 143.3 103.4 L 143.9 103.2 L 144.3 103.1 L 144.4 102.9 L 144.6 102.7 L 144.8 102.4 L 145.0 101.8 L 145.1 100.9 L 145.2 99.7 L 145.2 62.49402980804443 L 118.0 62.9 L 117.9 59.0 L 145.2 58.592537307739256 L 145.2 25.8 L 47.7 25.8 L 47.7 61.0 L 57.0 61.0 L 67.0 51.0 L 79.0 61.0 L 79.0 65.0 L 47.7 65.0 L 47.7 108.9 L 35.7 114.9 L 35.7 65.0 L 12.0 65.0 L 12.0 61.0 L 35.7 61.0 L 35.7 15.8 L 47.7 21.8 L 145.2 21.8 L 151.2 16.8 L 162.2 25.8 L 157.2 29.8 L 157.2 58.41343278884888 L 162.9071002960205 58.32825222015381 L 172.8 48.1 L 184.9 58.0 L 185.0 61.9 L 157.2 62.31492538452149 L 157.2 99.7 L 157.1 102.2 L 156.6 104.7 L 155.8 107.1 L 154.6 109.4 L 152.9 111.4 L 150.9 113.0 L 148.7 114.3 L 146.2 115.1 L 143.8 115.5 L 141.2 115.7 L 141.2 109.7 L 121.2 106.7 Z " />
</g>
</svg>
