<svg xmlns="http://www.w3.org/2000/svg" xmlns:xlink="http://www.w3.org/1999/xlink" version="1.1" baseProfile="full" viewBox="0 0 200 200" width="200" height="200">
<g fill="black">
<path d="M 72.4 186.4 L 69.9 186.0 L 67.5 185.2 L 65.2 183.9 L 63.2 182.3 L 61.6 180.3 L 60.3 178.0 L 59.5 175.6 L 59.1 173.1 L 59.0 170.6 L 59.0 129.8 L 71.0 131.8 L 74.0 133.8 L 71.0 135.6 L 71.0 171.8 L 71.2 172.7 L 71.5 173.6 L 71.9 174.0 L 72.8 174.3 L 73.7 174.5 L 75.0 174.6 L 140.0 174.6 L 146.0 149.6 L 148.0 149.6 L 146.0 174.6 L 149.6 177.0 L 152.0 180.6 L 149.6 184.2 L 146.0 186.6 L 75.0 186.6 Z M 14.4 178.3 L 13.7 173.7 L 16.3 170.0 L 19.1 168.3 L 21.7 166.2 L 24.2 163.6 L 26.4 160.6 L 28.4 157.0 L 30.2 152.9 L 31.8 148.2 L 33.1 143.0 L 34.2 137.2 L 35.1 130.9 L 36.9 130.8 L 37.8 137.3 L 38.2 143.5 L 38.1 149.3 L 37.4 154.8 L 36.3 159.9 L 34.6 164.7 L 32.4 169.2 L 29.7 173.3 L 26.5 176.9 L 22.7 180.1 L 18.2 180.8 Z M 169.2 162.8 L 167.6 159.1 L 165.7 155.3 L 163.5 151.6 L 160.9 147.9 L 158.0 144.3 L 154.7 140.6 L 151.2 136.9 L 147.3 133.1 L 148.3 131.6 L 153.3 134.0 L 158.0 136.6 L 162.3 139.6 L 166.3 142.9 L 170.0 146.4 L 173.3 150.1 L 176.2 154.1 L 178.8 158.3 L 181.0 162.7 L 182.9 167.2 L 182.3 171.8 L 178.8 174.7 L 174.2 174.1 L 171.4 170.5 L 170.4 166.7 Z M 107.1 148.3 L 105.2 145.3 L 103.1 142.4 L 100.9 139.6 L 98.4 136.8 L 95.7 134.1 L 92.9 131.4 L 89.8 128.7 L 86.5 126.2 L 87.2 124.6 L 91.3 126.0 L 95.3 127.5 L 99.2 129.3 L 102.8 131.4 L 106.2 133.7 L 109.5 136.2 L 112.6 139.0 L 115.5 142.0 L 118.2 145.2 L 120.7 148.7 L 121.2 153.2 L 118.4 156.8 L 113.9 157.3 L 110.3 154.6 L 108.7 151.4 Z M 15.0 61.5 L 15.0 57.5 L 40.0 57.5 L 40.0 11.2 L 52.0 17.2 L 79.0 17.2 L 85.0 12.2 L 96.0 21.2 L 91.0 25.2 L 91.0 57.5 L 113.0 57.5 L 113.0 11.2 L 125.0 17.2 L 153.0 17.2 L 159.0 12.2 L 170.0 21.2 L 165.0 25.2 L 165.0 57.5 L 169.8181818008423 57.5 L 178.0 48.5 L 188.0 57.5 L 188.0 61.5 L 165.0 61.5 L 165.0 106.4 L 164.8 109.0 L 164.4 111.5 L 163.6 113.9 L 162.3 116.2 L 160.7 118.2 L 158.7 119.8 L 156.4 121.0 L 154.0 121.9 L 151.5 122.3 L 149.0 122.4 L 149.0 116.4 L 129.0 113.4 L 129.0 110.4 L 150.2 110.4 L 151.1 110.2 L 151.7 110.0 L 152.0 109.8 L 152.2 109.7 L 152.4 109.5 L 152.7 108.6 L 152.9 107.7 L 153.0 106.4 L 153.0 61.5 L 125.0 61.5 L 125.0 67.8 L 124.4 75.3 L 123.3 82.3 L 121.8 88.9 L 119.7 95.1 L 117.1 100.9 L 114.0 106.1 L 110.3 110.8 L 106.2 114.9 L 101.6 118.3 L 96.5 121.0 L 95.4 119.5 L 99.1 115.4 L 102.3 111.2 L 105.0 106.9 L 107.4 102.3 L 109.3 97.4 L 110.9 92.3 L 112.0 86.7 L 112.7 80.8 L 113.0 74.5 L 113.0 61.5 L 91.0 61.5 L 91.0 105.8 L 90.8 108.4 L 90.4 110.8 L 89.6 113.3 L 88.3 115.5 L 86.7 117.5 L 84.7 119.2 L 82.4 120.4 L 80.0 121.2 L 77.5 121.7 L 75.0 121.8 L 75.0 115.8 L 55.0 112.8 L 55.0 109.8 L 75.0 109.8 L 76.2 109.7 L 77.1 109.6 L 77.7 109.4 L 78.0 109.2 L 78.2 109.0 L 78.4 108.9 L 78.5 108.5 L 78.7 107.9 L 78.9 107.0 L 79.0 105.8 L 79.0 61.5 L 52.0 61.5 L 52.0 66.5 L 51.4 74.2 L 50.2 81.4 L 48.5 88.2 L 46.2 94.6 L 43.3 100.5 L 39.8 105.9 L 35.8 110.8 L 31.2 115.1 L 26.1 118.7 L 20.4 121.7 L 19.5 120.2 L 23.7 115.8 L 27.4 111.3 L 30.6 106.7 L 33.4 101.9 L 35.6 96.8 L 37.4 91.5 L 38.7 85.8 L 39.6 79.7 L 40.0 73.3 L 40.0 61.5 Z M 52.0 21.2 L 52.0 57.5 L 79.0 57.5 L 79.0 21.2 Z M 125.0 21.2 L 125.0 57.5 L 153.0 57.5 L 153.0 21.2 Z " />
</g>
</svg>
