<svg xmlns="http://www.w3.org/2000/svg" xmlns:xlink="http://www.w3.org/1999/xlink" version="1.1" baseProfile="full" viewBox="0 0 200 200" width="200" height="200">
<g fill="black">
<path d="M 78.7 183.1 L 76.2 182.7 L 73.8 181.8 L 71.5 180.6 L 69.5 179.0 L 67.9 177.0 L 66.7 174.7 L 65.8 172.3 L 65.4 169.8 L 65.3 167.2 L 65.3 132.3 L 77.3 134.3 L 80.3 136.3 L 77.3 138.1 L 77.3 168.5 L 77.5 169.4 L 77.7 170.0 L 77.9 170.3 L 78.0 170.5 L 78.2 170.6 L 78.5 170.8 L 79.1 171.0 L 80.0 171.2 L 142.1 171.2 L 148.1 146.2 L 150.1 146.2 L 148.1 171.2 L 151.7 173.6 L 154.1 177.2 L 151.7 180.8 L 148.1 183.2 L 81.3 183.2 Z M 20.5 171.3 L 20.4 166.7 L 23.5 163.3 L 26.5 162.1 L 29.2 160.7 L 31.6 159.0 L 33.7 157.0 L 35.6 154.7 L 37.2 151.9 L 38.6 148.7 L 39.6 145.1 L 40.5 141.0 L 40.7 136.4 L 42.5 136.2 L 43.4 140.9 L 44.1 145.4 L 44.2 149.8 L 43.7 154.0 L 42.6 158.1 L 41.0 161.9 L 38.7 165.5 L 35.8 168.8 L 32.4 171.7 L 28.5 174.2 L 24.0 174.3 Z M 171.3 160.3 L 169.9 157.7 L 168.1 155.0 L 166.0 152.2 L 163.4 149.4 L 160.5 146.6 L 157.3 143.7 L 153.6 140.7 L 149.5 137.9 L 150.3 136.3 L 155.1 138.0 L 159.7 139.8 L 163.9 141.8 L 167.8 144.0 L 171.4 146.3 L 174.6 148.9 L 177.5 151.7 L 180.1 154.6 L 182.4 157.8 L 184.3 161.2 L 184.1 165.7 L 180.8 168.9 L 176.3 168.7 L 173.1 165.4 L 172.4 162.9 Z M 111.2 141.2 L 109.1 139.1 L 106.7 136.9 L 104.1 134.8 L 101.3 132.7 L 98.1 130.7 L 94.8 128.6 L 91.2 126.5 L 87.3 124.7 L 87.8 122.9 L 92.2 123.7 L 96.4 124.4 L 100.5 125.4 L 104.3 126.6 L 108.0 128.0 L 111.5 129.5 L 114.8 131.3 L 117.9 133.2 L 120.9 135.3 L 123.6 137.6 L 125.1 141.9 L 123.2 146.0 L 118.9 147.5 L 114.7 145.6 L 113.1 143.4 Z M 77.5 72.0 L 75.9 70.4 L 74.1 68.9 L 72.1 67.3 L 69.8 65.7 L 67.4 64.2 L 64.7 62.5 L 62.0 60.917241382598874 L 62.0 116.4 L 50.0 122.4 L 50.0 63.74285717010498 L 47.1 68.3 L 43.3 73.7 L 39.1 78.9 L 34.6 83.8 L 29.8 88.5 L 24.5 92.9 L 18.8 96.9 L 17.6 95.6 L 21.8 90.2 L 25.8 84.9 L 29.6 79.6 L 33.0 74.4 L 36.2 69.0 L 39.1 63.7 L 41.6 58.2 L 43.9 52.7 L 45.8 47.1 L 46.33589744567871 45.2 L 18.2 45.2 L 18.2 41.2 L 50.0 41.2 L 50.0 14.1 L 62.0 16.1 L 65.0 18.1 L 62.0 19.9 L 62.0 41.2 L 69.0 41.2 L 79.0 31.2 L 91.0 41.2 L 91.0 45.2 L 62.0 45.2 L 62.0 58.29714288711548 L 62.6 58.4 L 66.0 58.7 L 69.2 59.2 L 72.3 59.8 L 75.3 60.5 L 78.1 61.4 L 80.7 62.3 L 83.3 63.4 L 85.7 64.6 L 88.0 66.0 L 90.0 70.1 L 88.5 74.4 L 84.4 76.4 L 80.1 75.0 L 78.9 73.5 Z M 162.9 117.1 L 160.9 118.4 L 158.8 119.5 L 156.7 120.5 L 154.5 121.2 L 152.2 121.8 L 149.9 122.3 L 147.6 122.5 L 145.2 122.6 L 145.2 116.6 L 127.2 113.6 L 127.2 110.6 L 145.2 110.6 L 148.2 110.4 L 151.0 109.8 L 152.3 109.3 L 153.5 108.7 L 154.8 108.1 L 156.0 107.3 L 157.2 106.4 L 158.3 105.4 L 158.8 104.7 L 159.8 102.0 L 161.0 97.8 L 162.0 92.0 L 162.9 84.8 L 163.7 76.2 L 164.3 66.3 L 164.7 55.1 L 165.0 42.6 L 165.0 30.7 L 131.264661693573 30.7 L 130.5 42.0 L 128.6 54.4 L 125.5 66.0 L 121.3 76.8 L 115.9 86.7 L 109.5 95.7 L 102.0 103.7 L 93.4 110.8 L 83.8 116.7 L 73.2 121.6 L 72.4 120.0 L 81.8 113.5 L 90.0 106.6 L 97.3 99.2 L 103.4 91.1 L 108.6 82.5 L 112.7 73.2 L 115.8 63.2 L 118.0 52.5 L 119.2 41.0 L 119.36747970581055 30.7 L 92.7 30.7 L 92.7 26.7 L 165.0 26.7 L 171.0 21.7 L 182.0 30.7 L 177.0 33.7 L 177.0 42.7 L 176.7 55.5 L 176.3 66.9 L 175.7 77.1 L 174.9 86.1 L 173.9 93.8 L 172.7 100.3 L 171.2 105.8 L 169.4 110.3 L 166.6 114.1 L 164.8 115.7 Z " />
</g>
</svg>
