<svg xmlns="http://www.w3.org/2000/svg" xmlns:xlink="http://www.w3.org/1999/xlink" version="1.1" baseProfile="full" viewBox="0 0 200 200" width="200" height="200">
<g fill="black">
<path d="M 53.0 16.0 L 56.0 18.0 L 53.0 19.8 L 53.0 183.0 L 41.0 189.0 L 41.0 14.0 Z M 76.7 175.7 L 124.5 175.7 L 124.5 147.2 L 84.8 147.2 L 84.8 143.2 L 124.5 143.2 L 124.5 120.5 L 136.5 122.5 L 139.5 124.5 L 136.5 126.3 L 136.5 143.2 L 154.1 143.2 L 164.1 133.2 L 176.1 143.2 L 176.1 147.2 L 136.5 147.2 L 136.5 175.7 L 162.2 175.7 L 172.2 165.7 L 184.2 175.7 L 184.2 179.7 L 76.7 179.7 Z M 176.6 100.6 L 175.2 102.7 L 173.5 104.5 L 171.6 106.1 L 169.5 107.4 L 167.2 108.4 L 164.8 109.1 L 162.4 109.5 L 159.8 109.6 L 159.8 103.6 L 147.4310432434082 101.74465646743775 L 147.9 102.3 L 152.1 106.1 L 156.6 109.5 L 161.5 112.4 L 166.9 114.9 L 172.7 116.9 L 179.0 118.4 L 187.4 120.6 L 175.7 131.2 L 168.5 128.7 L 161.8 125.6 L 155.8 121.9 L 150.3 117.6 L 145.5 112.8 L 141.4 107.5 L 137.9 101.7 L 135.2 95.4 L 133.3 88.7 L 133.06654186248778 87.0191011428833 L 130.3 94.8 L 125.9 103.0 L 120.3 110.2 L 113.6 116.5 L 105.9 121.7 L 97.2 125.9 L 87.5 129.1 L 76.9 131.2 L 76.5 129.4 L 86.3 125.5 L 94.9 121.1 L 102.3 116.2 L 108.6 110.8 L 113.7 104.8 L 117.8 98.3 L 121.0 91.1 L 123.1 83.2 L 123.12790699005127 83.0 L 97.44884796142578 83.0 L 97.2 84.2 L 84.2 87.6 L 91.2 54.1 L 100.075 61.2 L 124.5 61.2 L 124.5 46.7 L 85.5 46.7 L 85.5 42.7 L 124.5 42.7 L 124.5 31.6 L 77.3 31.6 L 77.3 27.6 L 124.5 27.6 L 124.5 12.2 L 136.5 14.2 L 139.5 16.2 L 136.5 18.0 L 136.5 27.6 L 165.4181818008423 27.6 L 173.6 18.6 L 183.6 27.6 L 183.6 31.6 L 136.5 31.6 L 136.5 42.7 L 159.5 42.7 L 165.5 37.7 L 176.5 46.7 L 171.5 50.7 L 171.5 65.2 L 159.5 71.2 L 159.5 65.2 L 136.5 65.2 L 135.6 75.9 L 134.94242420196534 79.0 L 168.8 79.0 L 174.8 74.0 L 185.8 83.0 L 180.8 86.0 L 180.26605501174927 86.22247705459594 L 180.1 87.8 L 179.9 89.4 L 179.7 90.9 L 179.5 92.2 L 179.4 93.3 L 179.0 95.1 L 178.7 96.1 L 177.8 98.4 Z M 16.8 101.4 L 14.5 97.4 L 15.5 93.0 L 17.0 91.4 L 18.5 89.3 L 20.0 86.7 L 21.5 83.7 L 23.0 80.3 L 24.5 76.4 L 25.9 72.1 L 27.4 67.4 L 28.9 62.4 L 30.2 56.9 L 32.0 57.0 L 32.1 62.8 L 32.1 68.2 L 31.8 73.3 L 31.4 78.0 L 30.8 82.4 L 30.0 86.5 L 29.1 90.3 L 28.0 93.8 L 26.7 97.1 L 25.2 100.1 L 21.3 102.4 Z M 135.1 83.0 L 137.2 87.2 L 140.5 92.8 L 143.95600004196166 97.6 L 159.8 97.6 L 161.2 97.5 L 162.3 97.3 L 163.2 97.1 L 164.0 96.7 L 164.6 96.3 L 165.2 95.8 L 165.8 95.2 L 166.4 94.4 L 166.9 93.4 L 167.4 92.2 L 167.3 92.4 L 167.4 92.0 L 167.5 91.4 L 167.7 90.4 L 167.8 89.3 L 168.0 87.9 L 168.2 86.3 L 168.4 84.6 L 168.56000003814697 83.0 Z M 68.7 78.4 L 67.9 75.7 L 67.0 72.8 L 65.8 69.9 L 64.5 67.0 L 63.0 63.9 L 59.6 57.5 L 57.3 54.3 L 58.6 53.1 L 61.6 55.6 L 64.7 58.0 L 67.5 60.5 L 70.1 63.2 L 72.4 65.9 L 74.6 68.7 L 76.5 71.5 L 78.3 74.4 L 79.9 77.4 L 81.2 80.4 L 80.6 85.0 L 77.1 87.8 L 72.5 87.2 L 69.7 83.7 L 69.3 81.1 Z M 136.5 46.7 L 136.5 61.2 L 159.5 61.2 L 159.5 46.7 Z M 98.27834100723267 79.0 L 123.68604650497437 79.0 L 124.3 74.6 L 124.5 65.2 L 101.14009218215942 65.2 Z " />
</g>
</svg>
