<svg xmlns="http://www.w3.org/2000/svg" xmlns:xlink="http://www.w3.org/1999/xlink" version="1.1" baseProfile="full" viewBox="0 0 200 200" width="200" height="200">
<g fill="black">
<path d="M 75.4 179.3 L 72.9 178.8 L 70.5 178.0 L 68.2 176.8 L 66.2 175.1 L 64.6 173.1 L 63.4 170.9 L 62.5 168.4 L 62.1 166.0 L 62.0 163.4 L 62.0 130.8 L 74.0 132.8 L 77.0 134.8 L 74.0 136.6 L 74.0 164.6 L 74.2 165.5 L 74.4 166.1 L 74.6 166.5 L 74.9 166.8 L 75.2 167.0 L 75.8 167.2 L 76.7 167.3 L 78.0 167.4 L 140.5 167.4 L 146.5 142.4 L 148.5 142.4 L 146.5 167.4 L 150.1 169.8 L 152.5 173.4 L 150.1 177.0 L 146.5 179.4 L 78.0 179.4 Z M 18.8 171.6 L 18.3 167.0 L 21.2 163.4 L 23.9 162.1 L 26.4 160.5 L 28.7 158.5 L 30.8 156.2 L 32.7 153.4 L 34.4 150.1 L 35.9 146.3 L 37.2 142.0 L 38.3 137.3 L 39.0 132.0 L 40.8 132.0 L 41.5 137.4 L 41.9 142.5 L 41.8 147.5 L 41.2 152.1 L 40.1 156.5 L 38.5 160.7 L 36.4 164.5 L 33.7 168.1 L 30.6 171.2 L 26.9 174.0 L 22.4 174.4 Z M 169.0 159.0 L 167.6 155.9 L 165.8 152.8 L 163.7 149.7 L 161.2 146.6 L 158.4 143.5 L 155.3 140.3 L 151.8 137.1 L 147.9 133.9 L 148.8 132.3 L 153.6 134.3 L 158.1 136.4 L 162.2 138.8 L 166.1 141.3 L 169.6 144.2 L 172.8 147.2 L 175.7 150.4 L 178.3 153.8 L 180.5 157.5 L 182.3 161.3 L 181.9 165.9 L 178.5 168.9 L 174.0 168.5 L 170.9 165.1 L 170.1 162.0 Z M 108.8 147.0 L 107.1 144.5 L 105.1 142.1 L 103.0 139.7 L 100.6 137.3 L 98.0 134.9 L 95.2 132.6 L 92.2 130.2 L 88.9 128.2 L 89.6 126.5 L 93.5 127.6 L 97.3 128.7 L 101.0 130.1 L 104.5 131.7 L 107.8 133.5 L 110.9 135.5 L 113.9 137.8 L 116.7 140.2 L 119.3 142.8 L 121.8 145.6 L 122.6 150.1 L 120.1 153.9 L 115.6 154.7 L 111.7 152.2 L 110.4 149.6 Z M 163.8 116.0 L 158.9 110.9 L 154.7 105.4 L 151.3 99.5 L 148.6 93.3 L 146.6 86.8 L 145.7545454978943 82.00909090042114 L 145.4 83.4 L 141.9 92.7 L 137.4 101.0 L 132.0 108.3 L 125.7 114.5 L 118.6 119.6 L 110.6 123.4 L 101.9 126.0 L 101.4 124.3 L 108.9 120.0 L 115.5 115.2 L 121.2 109.7 L 126.0 103.6 L 130.0 96.8 L 133.3 89.2 L 135.7 80.8 L 137.4 71.4 L 138.3 61.2 L 138.4 50.1 L 138.4 47.7 L 150.4 50.1 L 153.4 52.1 L 150.17029361724855 54.037823867797854 L 149.7 62.1 L 148.5223464012146 69.78938550949097 L 149.2 72.5 L 151.2 78.7 L 153.5 84.5 L 156.2 89.8 L 159.3 94.7 L 162.9 99.2 L 166.9 103.3 L 171.4 107.0 L 176.5 110.5 L 182.0 113.6 L 186.7 116.2 L 175.5 125.0 L 169.3 120.7 Z M 72.6 106.3 L 71.1 103.3 L 69.8087718963623 101.07621831893921 L 66.8 102.7 L 61.0 105.8 L 55.8 108.6 L 51.1 111.0 L 46.9 113.2 L 43.3 115.1 L 40.3 116.8 L 37.8 118.2 L 35.9 119.4 L 35.060000038146974 119.93999996185303 L 30.2 124.8 L 20.2 114.8 L 26.2 108.8 L 26.2 17.1 L 38.2 23.1 L 70.6 23.1 L 76.6 18.1 L 87.6 27.1 L 82.6 31.1 L 82.6 73.2 L 70.6 79.2 L 70.6 73.2 L 38.2 73.2 L 38.2 107.16363639831543 L 39.9 106.7 L 43.9 105.6 L 48.4 104.3 L 53.5 102.8 L 59.2 101.2 L 65.5 99.5 L 68.38072137832641 98.74850749969482 L 67.4 97.2 L 65.2 94.2 L 62.9 91.2 L 60.4 88.2 L 57.7 85.1 L 54.7 82.3 L 55.7 80.8 L 63.3 84.6 L 66.8 86.9 L 70.2 89.3 L 73.3 91.9 L 76.2 94.7 L 79.0 97.7 L 81.6 100.8 L 83.9 104.1 L 86.1 107.5 L 86.2 112.1 L 83.2 115.5 L 78.6 115.7 L 75.2 112.6 L 74.0 109.5 Z M 84.3 93.5 L 88.5 91.2 L 92.7 88.7 L 97.0 86.0 L 101.3 83.2 L 105.7 80.3 L 110.1 77.2 L 114.6 74.0 L 119.2 70.7 L 123.9 67.4 L 128.8 64.1 L 130.0 65.3 L 126.5 70.2 L 122.8 74.7 L 118.9 79.0 L 115.0 83.0 L 111.0 86.9 L 107.0 90.6 L 103.0 94.1 L 98.9 97.5 L 94.8 100.7 L 94.11099586486816 101.20414934158325 L 94.0 105.2 L 90.7 103.7 L 82.6 94.6 Z M 38.2 49.8 L 38.2 69.2 L 70.6 69.2 L 70.6 49.8 Z M 146.5 15.7 L 149.0 18.3 L 145.28279485702515 19.49481592178345 L 144.8 21.0 L 142.8 26.1 L 140.6 31.1 L 138.1 35.9 L 135.3 40.6 L 169.3 40.6 L 169.975 40.0375 L 170.2 39.4 L 170.5067491531372 39.594375705718996 L 175.3 35.6 L 186.3 44.6 L 181.3 47.6 L 176.5 49.6 L 175.5 50.6 L 173.6 52.3 L 169.4 56.1 L 167.0 58.1 L 164.5 60.1 L 161.7 62.2 L 159.1 64.6 L 157.8 63.5 L 159.8 60.6 L 161.4 57.5 L 162.9 54.7 L 164.3 52.1 L 165.7 49.6 L 166.8 47.2 L 167.9 45.0 L 168.08000001907348 44.6 L 132.63333330154418 44.6 L 132.3 45.1 L 128.9 49.4 L 125.3 53.5 L 121.4 57.3 L 117.0 60.8 L 115.7 59.5 L 118.4 54.9 L 121.0 50.3 L 123.5 45.7 L 125.8 41.2 L 127.8 36.6 L 129.7 32.0 L 131.3 27.3 L 132.7 22.6 L 133.9 17.8 L 134.61588516235352 13.902402782440186 L 134.6 13.9 L 134.65600004196168 13.684000015258789 L 134.8 12.9 L 134.855797290802 12.913353157043456 L 135.3 11.2 Z M 102.6 42.7 L 101.7 41.0 L 100.6 39.2 L 99.3 37.5 L 97.8 35.7 L 96.1 33.9 L 94.2 32.1 L 92.1 30.2 L 89.5 28.9 L 90.2 27.2 L 93.0 28.1 L 96.0 28.7 L 98.7 29.5 L 101.4 30.5 L 103.9 31.7 L 106.3 33.0 L 108.5 34.6 L 110.6 36.3 L 112.6 38.2 L 114.4 40.3 L 114.8 44.9 L 112.0 48.5 L 107.5 48.9 L 103.9 46.1 L 103.3 44.4 Z M 38.2 27.1 L 38.2 45.8 L 70.6 45.8 L 70.6 27.1 Z " />
</g>
</svg>
