<svg xmlns="http://www.w3.org/2000/svg" xmlns:xlink="http://www.w3.org/1999/xlink" version="1.1" baseProfile="full" viewBox="0 0 200 200" width="200" height="200">
<g fill="black">
<path d="M 73.4 181.8 L 70.9 181.4 L 68.5 180.6 L 66.2 179.3 L 64.2 177.7 L 62.6 175.7 L 61.3 173.4 L 60.5 171.0 L 60.1 168.5 L 60.0 166.0 L 60.0 124.0 L 72.0 126.0 L 75.0 128.0 L 72.0 129.8 L 72.0 167.2 L 72.2 168.1 L 72.5 169.0 L 72.9 169.4 L 73.8 169.7 L 74.7 169.9 L 76.0 170.0 L 141.0 170.0 L 147.0 145.0 L 149.0 145.0 L 147.0 170.0 L 150.6 172.4 L 153.0 176.0 L 150.6 179.6 L 147.0 182.0 L 76.0 182.0 Z M 15.4 173.6 L 14.7 169.1 L 17.2 165.3 L 20.0 163.5 L 22.7 161.4 L 25.1 158.7 L 27.4 155.6 L 29.4 151.9 L 31.2 147.6 L 32.7 142.8 L 34.0 137.4 L 35.2 131.5 L 36.1 125.0 L 37.9 124.9 L 38.8 131.6 L 39.2 137.9 L 39.1 143.8 L 38.4 149.5 L 37.3 154.7 L 35.6 159.6 L 33.5 164.2 L 30.8 168.4 L 27.5 172.1 L 23.7 175.3 L 19.2 176.1 Z M 170.1 157.7 L 168.5 153.8 L 166.6 150.0 L 164.4 146.2 L 161.8 142.4 L 158.9 138.7 L 155.7 134.9 L 152.2 131.1 L 148.3 127.3 L 149.3 125.8 L 154.3 128.2 L 159.1 131.0 L 163.4 134.1 L 167.4 137.4 L 171.0 141.0 L 174.3 144.9 L 177.2 149.0 L 179.8 153.2 L 182.1 157.7 L 183.9 162.4 L 183.3 167.0 L 179.8 169.8 L 175.2 169.2 L 172.4 165.7 L 171.4 161.7 Z M 108.0 142.8 L 106.2 139.7 L 104.1 136.7 L 101.8 133.8 L 99.4 131.0 L 96.7 128.2 L 93.8 125.5 L 90.8 122.7 L 87.4 120.2 L 88.2 118.6 L 92.3 120.0 L 96.4 121.6 L 100.2 123.4 L 103.8 125.6 L 107.3 128.0 L 110.6 130.6 L 113.7 133.5 L 116.6 136.6 L 119.3 139.9 L 121.8 143.4 L 122.2 148.0 L 119.4 151.6 L 114.8 152.0 L 111.2 149.2 L 109.7 145.9 Z M 165.1 117.2 L 163.0 118.3 L 160.9 119.3 L 158.8 120.1 L 156.6 120.8 L 154.3 121.3 L 152.0 121.7 L 149.7 121.9 L 147.4 122.0 L 147.4 116.0 L 127.4 113.0 L 127.4 110.0 L 147.4 110.0 L 149.0 109.9 L 150.5 109.8 L 153.5 109.2 L 154.9 108.8 L 157.7 107.6 L 159.0 106.9 L 161.6 105.1 L 162.6 103.9 L 163.9 100.6 L 165.0 95.5 L 165.9 89.0 L 166.4 81.2 L 166.6 72.5 L 166.6 52.8 L 166.4 42.1 L 166.4 33.2 L 103.3625 33.2 L 101.9 34.7 L 97.6 38.6 L 93.0 42.5 L 88.1 46.2 L 82.9 49.8 L 77.3 53.2 L 71.3 56.3 L 70.2 54.8 L 75.0 50.1 L 75.4 49.7 L 50.7 49.7 L 50.7 87.7484848022461 L 54.7 86.9 L 61.5 85.5 L 68.7 84.1 L 76.2 82.8 L 76.7 84.5 L 69.8 87.7 L 63.1 90.6 L 56.5 93.2 L 50.3 95.5 L 44.2 97.7 L 38.4 99.8 L 32.9 101.6 L 27.6 103.3 L 22.6 104.9 L 21.818683624267578 105.14416131973266 L 20.4 108.8 L 17.8 106.4 L 13.2 95.1 L 15.1 94.6 L 19.9 93.8 L 25.0 92.9 L 30.3 91.9 L 36.0 90.8 L 38.7 90.25084743499755 L 38.7 49.7 L 15.5 49.7 L 15.5 45.7 L 38.7 45.7 L 38.7 14.9 L 50.7 16.9 L 53.7 18.9 L 50.7 20.7 L 50.7 45.7 L 53.6 45.7 L 63.6 35.7 L 75.6 45.7 L 75.6 49.5 L 79.5 45.6 L 83.8 41.2 L 87.8 36.9 L 91.6 32.7 L 95.0 28.5 L 98.1 24.3 L 100.8 20.2 L 103.3 16.0 L 105.04752902984619 12.822674465179443 L 105.0 12.8 L 106.0 11.0 L 115.9 18.0 L 117.5 21.2 L 113.54469270706177 21.267039108276368 L 112.8 22.3 L 109.5 26.5 L 107.12142858505248 29.2 L 166.4 29.2 L 172.4 24.2 L 183.4 33.2 L 178.4 36.2 L 178.4 42.0 L 178.5 52.7 L 178.6 62.9 L 178.6 72.7 L 178.4 81.8 L 177.8 90.1 L 176.9 97.6 L 175.4 104.1 L 173.0 109.9 L 168.9 114.6 L 167.0 116.0 Z M 103.3 51.7 L 131.8 51.7 L 137.8 46.7 L 148.8 55.7 L 143.8 59.7 L 143.8 100.3 L 131.8 106.3 L 131.8 94.3 L 103.3 94.3 L 103.3 101.3 L 91.3 107.3 L 91.3 45.7 Z M 103.3 74.4 L 103.3 90.3 L 131.8 90.3 L 131.8 74.4 Z M 103.3 55.7 L 103.3 70.4 L 131.8 70.4 L 131.8 55.7 Z " />
</g>
</svg>
