<svg xmlns="http://www.w3.org/2000/svg" xmlns:xlink="http://www.w3.org/1999/xlink" version="1.1" baseProfile="full" viewBox="0 0 200 200" width="200" height="200">
<g fill="black">
<path d="M 147.0 145.0 L 149.0 145.0 L 147.0 170.0 L 150.6 172.4 L 153.0 176.0 L 150.6 179.6 L 147.0 182.0 L 76.0 182.0 L 73.4 181.8 L 70.9 181.4 L 68.5 180.6 L 66.2 179.3 L 64.2 177.7 L 62.6 175.7 L 61.3 173.4 L 60.5 171.0 L 60.1 168.5 L 60.0 166.0 L 60.0 124.0 L 72.0 126.0 L 75.0 128.0 L 72.0 129.8 L 72.0 167.2 L 72.2 168.1 L 72.5 169.0 L 72.9 169.4 L 73.8 169.7 L 74.7 169.9 L 76.0 170.0 L 141.0 170.0 Z M 15.4 173.6 L 14.7 169.1 L 17.2 165.3 L 20.0 163.5 L 22.7 161.4 L 25.1 158.7 L 27.4 155.6 L 29.4 151.9 L 31.2 147.6 L 32.7 142.8 L 34.0 137.4 L 35.2 131.5 L 36.1 125.0 L 37.9 124.9 L 38.8 131.6 L 39.2 137.9 L 39.1 143.8 L 38.4 149.5 L 37.3 154.7 L 35.6 159.6 L 33.5 164.2 L 30.8 168.4 L 27.5 172.1 L 23.7 175.3 L 19.2 176.1 Z M 170.1 157.7 L 168.5 153.8 L 166.6 150.0 L 164.4 146.2 L 161.8 142.4 L 158.9 138.7 L 155.7 134.9 L 152.2 131.1 L 148.3 127.3 L 149.3 125.8 L 154.3 128.2 L 159.1 131.0 L 163.4 134.1 L 167.4 137.4 L 171.0 141.0 L 174.3 144.9 L 177.2 149.0 L 179.8 153.2 L 182.1 157.7 L 183.9 162.4 L 183.3 167.0 L 179.8 169.8 L 175.2 169.2 L 172.4 165.7 L 171.4 161.7 Z M 108.0 142.8 L 106.2 139.7 L 104.1 136.7 L 101.8 133.8 L 99.4 131.0 L 96.7 128.2 L 93.8 125.5 L 90.8 122.7 L 87.4 120.2 L 88.2 118.6 L 92.3 120.0 L 96.4 121.6 L 100.2 123.4 L 103.8 125.6 L 107.3 128.0 L 110.6 130.6 L 113.7 133.5 L 116.6 136.6 L 119.3 139.9 L 121.8 143.4 L 122.2 148.0 L 119.4 151.6 L 114.8 152.0 L 111.2 149.2 L 109.7 145.9 Z M 153.9 117.8 L 142.1 113.8 L 130.9 109.4 L 120.5 104.6 L 110.8 99.5 L 101.8 93.9 L 93.7 88.0 L 86.4 81.6 L 80.64782609939576 75.3 L 57.0 75.3 L 57.0 107.10222225189209 L 64.9 106.4 L 83.1 105.0 L 92.3 104.4 L 101.5 103.9 L 110.8 103.7 L 111.1 105.5 L 102.0 107.7 L 93.0 109.7 L 84.0 111.5 L 75.0 113.2 L 66.0 114.8 L 57.1 116.4 L 39.3 119.4 L 30.5 120.9 L 25.722127628326415 121.66011610031128 L 24.0 125.0 L 21.7 122.3 L 18.2 110.6 L 20.2 110.4 L 29.1 109.6 L 37.9 108.8 L 45.0 108.16888885498047 L 45.0 75.3 L 13.0 75.3 L 13.0 71.3 L 167.8181818008423 71.3 L 176.0 62.3 L 186.0 71.3 L 186.0 75.3 L 152.95 75.3 L 158.8 83.1 L 159.0 86.7 L 155.23031024932862 85.16420049667359 L 152.5 86.7 L 149.1 88.4 L 145.6 90.0 L 142.0 91.6 L 138.2 93.2 L 134.2 94.7 L 130.1 96.0 L 126.60935354232788 96.95199451446533 L 134.6 99.9 L 145.5 103.3 L 157.1 106.5 L 169.4 109.3 L 182.3 111.9 L 191.4 113.7 L 179.6 124.8 L 166.4 121.5 Z M 84.38000001907349 75.3 L 89.0 78.3 L 97.0 83.1 L 105.5 87.7 L 114.6 92.0 L 122.78764753341675 95.46075820922852 L 124.4 94.4 L 128.0 91.8 L 131.5 89.4 L 134.8 87.0 L 138.0 84.7 L 141.1 82.4 L 143.9 80.1 L 146.6 77.9 L 149.2 75.7 L 149.61818180084228 75.3 Z M 38.2 67.5 L 38.2 11.7 L 50.2 17.7 L 152.7 17.7 L 158.7 12.7 L 169.7 21.7 L 164.7 25.7 L 164.7 61.5 L 152.7 67.5 L 152.7 61.5 L 50.2 61.5 Z M 50.2 41.3 L 50.2 57.5 L 95.5 57.5 L 95.5 41.3 Z M 107.5 41.3 L 107.5 57.5 L 152.7 57.5 L 152.7 41.3 Z M 50.2 21.7 L 50.2 37.3 L 95.5 37.3 L 95.5 21.7 Z M 107.5 21.7 L 107.5 37.3 L 152.7 37.3 L 152.7 21.7 Z " />
</g>
</svg>
