<svg xmlns="http://www.w3.org/2000/svg" xmlns:xlink="http://www.w3.org/1999/xlink" version="1.1" baseProfile="full" viewBox="0 0 200 200" width="200" height="200">
<g fill="black">
<path d="M 73.4 178.0 L 70.9 177.6 L 68.5 176.8 L 66.2 175.5 L 64.2 173.9 L 62.6 171.9 L 61.3 169.6 L 60.5 167.2 L 60.1 164.7 L 60.0 162.2 L 60.0 116.3 L 72.0 118.3 L 75.0 120.3 L 72.0 122.1 L 72.0 163.4 L 72.2 164.3 L 72.5 165.2 L 72.9 165.6 L 73.8 165.9 L 74.7 166.1 L 76.0 166.2 L 141.0 166.2 L 147.0 141.2 L 149.0 141.2 L 147.0 166.2 L 150.6 168.6 L 153.0 172.2 L 150.6 175.7 L 147.0 178.2 L 76.0 178.2 Z M 15.5 169.6 L 14.6 165.1 L 17.0 161.2 L 19.8 159.3 L 22.5 156.9 L 25.0 154.0 L 27.3 150.5 L 29.3 146.4 L 31.1 141.8 L 32.6 136.5 L 34.0 130.7 L 35.1 124.3 L 36.1 117.3 L 37.9 117.2 L 38.9 124.4 L 39.3 131.2 L 39.1 137.5 L 38.5 143.5 L 37.3 149.1 L 35.7 154.4 L 33.5 159.2 L 30.9 163.6 L 27.6 167.6 L 23.8 171.0 L 19.4 172.0 Z M 170.1 152.4 L 168.5 148.2 L 166.5 144.0 L 164.3 139.9 L 161.7 135.9 L 158.8 131.9 L 155.6 127.9 L 152.0 123.9 L 148.2 119.7 L 149.3 118.3 L 154.4 120.9 L 159.2 123.9 L 163.5 127.3 L 167.5 131.0 L 171.1 134.9 L 174.4 139.1 L 177.4 143.5 L 180.0 148.2 L 182.2 153.0 L 184.0 158.1 L 183.3 162.6 L 179.7 165.4 L 175.2 164.7 L 172.4 161.1 L 171.4 156.7 Z M 108.0 136.2 L 106.1 132.9 L 104.0 129.7 L 101.7 126.6 L 99.2 123.6 L 96.6 120.6 L 93.7 117.8 L 90.7 114.9 L 87.4 112.1 L 88.3 110.6 L 92.4 112.1 L 96.5 113.8 L 100.3 115.9 L 104.0 118.3 L 107.4 120.9 L 110.7 123.8 L 113.8 126.9 L 116.7 130.3 L 119.4 133.9 L 121.9 137.7 L 122.2 142.3 L 119.3 145.8 L 114.8 146.1 L 111.2 143.2 L 109.7 139.6 Z M 30.0 18.6 L 30.0 18.0 L 167.0 18.0 L 167.0 19.681818199157714 L 176.8 27.7 L 171.8 31.7 L 171.8 98.2 L 159.8 104.2 L 159.8 103.0 L 30.6 103.0 L 28.2 104.2 L 28.2 17.7 Z M 40.2 27.7 L 40.2 94.0 L 159.0 94.0 L 159.0 94.2 L 159.8 94.2 L 159.8 27.7 Z " />
</g>
</svg>
