<svg xmlns="http://www.w3.org/2000/svg" xmlns:xlink="http://www.w3.org/1999/xlink" version="1.1" baseProfile="full" viewBox="0 0 200 200" width="200" height="200">
<g fill="black">
<path d="M 147.0 145.0 L 149.0 145.0 L 147.0 170.0 L 150.6 172.4 L 153.0 176.0 L 150.6 179.6 L 147.0 182.0 L 76.0 182.0 L 73.4 181.8 L 70.9 181.4 L 68.5 180.6 L 66.2 179.3 L 64.2 177.7 L 62.6 175.7 L 61.3 173.4 L 60.5 171.0 L 60.1 168.5 L 60.0 166.0 L 60.0 124.0 L 72.0 126.0 L 75.0 128.0 L 72.0 129.8 L 72.0 167.2 L 72.2 168.1 L 72.5 169.0 L 72.9 169.4 L 73.8 169.7 L 74.7 169.9 L 76.0 170.0 L 141.0 170.0 Z M 15.4 173.6 L 14.7 169.1 L 17.2 165.3 L 20.0 163.5 L 22.7 161.4 L 25.1 158.7 L 27.4 155.6 L 29.4 151.9 L 31.2 147.6 L 32.7 142.8 L 34.0 137.4 L 35.2 131.5 L 36.1 125.0 L 37.9 124.9 L 38.8 131.6 L 39.2 137.9 L 39.1 143.8 L 38.4 149.5 L 37.3 154.7 L 35.6 159.6 L 33.5 164.2 L 30.8 168.4 L 27.5 172.1 L 23.7 175.3 L 19.2 176.1 Z M 170.1 157.7 L 168.5 153.8 L 166.6 150.0 L 164.4 146.2 L 161.8 142.4 L 158.9 138.7 L 155.7 134.9 L 152.2 131.1 L 148.3 127.3 L 149.3 125.8 L 154.3 128.2 L 159.1 131.0 L 163.4 134.1 L 167.4 137.4 L 171.0 141.0 L 174.3 144.9 L 177.2 149.0 L 179.8 153.2 L 182.1 157.7 L 183.9 162.4 L 183.3 167.0 L 179.8 169.8 L 175.2 169.2 L 172.4 165.7 L 171.4 161.7 Z M 108.0 142.8 L 106.2 139.7 L 104.1 136.7 L 101.8 133.8 L 99.4 131.0 L 96.7 128.2 L 93.8 125.5 L 90.8 122.7 L 87.4 120.2 L 88.2 118.6 L 92.3 120.0 L 96.4 121.6 L 100.2 123.4 L 103.8 125.6 L 107.3 128.0 L 110.6 130.6 L 113.7 133.5 L 116.6 136.6 L 119.3 139.9 L 121.8 143.4 L 122.2 148.0 L 119.4 151.6 L 114.8 152.0 L 111.2 149.2 L 109.7 145.9 Z M 34.0 107.2 L 50.0 107.2 L 51.2 107.1 L 52.1 107.0 L 52.7 106.8 L 53.0 106.6 L 53.4 106.2 L 53.7 105.3 L 53.9 104.4 L 54.0 103.2 L 54.0 72.6 L 17.0 72.6 L 17.0 68.6 L 54.0 68.6 L 54.0 52.5 L 34.0 52.5 L 34.0 50.077777767181395 L 31.0 52.3 L 25.4 56.1 L 19.6 59.6 L 13.5 62.7 L 12.4 61.3 L 17.3 56.5 L 22.1 51.9 L 26.8 47.3 L 31.3 42.7 L 35.6 38.0 L 39.8 33.3 L 43.7 28.5 L 47.5 23.7 L 51.1 18.8 L 53.93955020904541 14.62419090270996 L 53.9 14.6 L 54.31621618270874 14.070270252227782 L 54.5 13.8 L 54.518139362335205 13.813277244567871 L 55.0 13.2 L 64.2 20.9 L 64.85044584274291 22.742929935455322 L 65.2 22.8 L 69.8 23.8 L 74.2 25.0 L 78.3 26.3 L 82.2 27.8 L 85.9 29.3 L 89.4 31.0 L 92.6 32.8 L 95.6 34.8 L 97.6 38.9 L 96.2 43.3 L 92.1 45.3 L 87.8 43.9 L 85.8 41.9 L 83.5 39.8 L 81.0 37.7 L 78.1 35.7 L 74.9 33.6 L 71.4 31.5 L 67.7 29.4 L 63.6 27.3 L 60.30462131500244 25.537355613708495 L 60.0 25.9 L 55.7 30.7 L 51.2 35.3 L 46.4 39.8 L 41.5 44.1 L 36.4 48.3 L 36.130000019073485 48.5 L 71.0 48.5 L 81.0 38.5 L 93.0 48.5 L 93.0 52.5 L 66.0 52.5 L 66.0 68.6 L 76.0 68.6 L 86.0 58.6 L 98.0 68.6 L 98.0 72.6 L 66.0 72.6 L 66.0 103.2 L 65.8 105.7 L 65.4 108.2 L 64.6 110.6 L 63.3 112.9 L 61.7 114.9 L 59.7 116.6 L 57.4 117.8 L 55.0 118.6 L 52.5 119.0 L 50.0 119.2 L 50.0 113.2 L 34.0 110.2 Z M 157.3 107.1 L 147.9 100.2 L 139.7 92.4 L 139.2188811302185 91.81864805221558 L 134.1 95.8 L 122.0 103.0 L 108.6 109.1 L 94.0 113.9 L 78.2 117.5 L 77.7 115.8 L 92.8 110.3 L 106.4 104.2 L 118.7 97.3 L 129.6 89.6 L 134.09413118362426 85.62624187469483 L 132.5 83.7 L 126.5 74.2 L 121.5 63.9 L 117.7 52.9 L 115.2 41.1 L 114.08640003204346 29.5 L 98.1 29.5 L 98.1 25.5 L 167.3 25.5 L 173.3 20.5 L 184.3 29.5 L 179.3 32.5 L 177.93128871917725 33.070296382904054 L 175.1 42.6 L 169.6 55.4 L 162.7 67.2 L 154.5 77.9 L 147.07724657058716 85.2454330444336 L 154.7 91.5 L 163.4 97.0 L 173.0 101.8 L 183.5 105.8 L 190.5 108.4 L 178.9 118.2 L 167.6 113.1 Z M 44.0 83.2 L 45.9 86.3 L 41.733802795410156 86.73098592758178 L 40.1 89.1 L 37.9 91.8 L 35.6 94.4 L 33.1 96.8 L 30.5 99.2 L 27.7 101.3 L 24.7 103.3 L 21.6 105.1 L 18.5 107.0 L 17.4 105.6 L 19.8 103.0 L 21.8 100.2 L 23.7 97.4 L 25.5 94.7 L 27.1 92.0 L 28.6 89.3 L 29.9 86.6 L 31.1 83.8 L 32.2 81.1 L 32.799404048919676 79.23518724441529 L 32.7 79.2 L 33.6 77.1 Z M 84.4 95.8 L 83.3 93.5 L 82.0 91.3 L 80.6 89.1 L 79.1 86.9 L 77.4 84.7 L 75.6 82.5 L 73.7 80.2 L 71.3 78.2 L 72.3 76.7 L 75.1 78.1 L 78.0 79.2 L 80.8 80.6 L 86.0 83.8 L 88.4 85.7 L 90.7 87.7 L 92.8 89.8 L 94.8 92.0 L 96.7 94.4 L 97.2 99.0 L 94.4 102.6 L 89.9 103.0 L 86.2 100.2 L 85.4 98.0 Z M 116.02905979156495 29.5 L 119.2 40.1 L 123.3 51.0 L 128.1 60.9 L 133.6 69.8 L 139.8 77.9 L 140.97853565216064 79.09513473510742 L 147.4 71.9 L 154.3 61.8 L 159.9 50.9 L 164.3 39.0 L 166.675 29.5 Z " />
</g>
</svg>
