<svg xmlns="http://www.w3.org/2000/svg" xmlns:xlink="http://www.w3.org/1999/xlink" version="1.1" baseProfile="full" viewBox="0 0 200 200" width="200" height="200">
<g fill="black">
<path d="M 147.0 147.0 L 149.0 147.0 L 147.0 172.0 L 150.6 174.4 L 153.0 178.0 L 150.6 181.6 L 147.0 184.0 L 76.0 184.0 L 73.4 183.9 L 70.9 183.5 L 68.5 182.6 L 66.2 181.4 L 64.2 179.8 L 62.6 177.8 L 61.3 175.5 L 60.5 173.1 L 60.1 170.6 L 60.0 168.0 L 60.0 141.1 L 72.0 143.1 L 75.0 145.1 L 72.0 146.9 L 72.0 169.3 L 72.2 170.2 L 72.5 171.1 L 72.7 171.3 L 72.9 171.4 L 73.2 171.6 L 73.8 171.8 L 74.7 172.0 L 141.0 172.0 Z M 15.2 176.5 L 15.1 171.9 L 18.2 168.5 L 21.0 167.4 L 23.6 166.1 L 25.9 164.5 L 28.0 162.6 L 29.9 160.3 L 31.6 157.6 L 33.1 154.5 L 34.4 150.9 L 35.5 146.9 L 36.1 142.4 L 37.9 142.3 L 38.5 147.0 L 38.9 151.5 L 38.7 155.8 L 38.0 160.0 L 36.9 163.9 L 35.2 167.6 L 32.9 171.1 L 30.2 174.2 L 26.9 177.0 L 23.2 179.4 L 18.6 179.5 Z M 170.4 166.0 L 169.0 163.4 L 167.2 160.7 L 165.0 158.0 L 162.5 155.3 L 159.5 152.5 L 156.2 149.7 L 152.6 146.8 L 148.5 144.0 L 149.2 142.4 L 154.0 144.1 L 158.6 145.7 L 162.8 147.6 L 166.7 149.8 L 170.3 152.1 L 173.6 154.6 L 176.5 157.3 L 179.2 160.2 L 181.5 163.3 L 183.4 166.7 L 183.3 171.2 L 180.1 174.5 L 175.5 174.4 L 172.3 171.1 L 171.5 168.6 Z M 108.4 155.9 L 106.6 153.7 L 104.6 151.5 L 102.4 149.4 L 99.9 147.3 L 97.2 145.2 L 94.2 143.0 L 91.1 140.9 L 87.6 139.0 L 88.2 137.3 L 92.1 138.3 L 96.0 139.1 L 99.7 140.2 L 103.2 141.4 L 106.6 142.9 L 109.8 144.6 L 112.8 146.4 L 115.7 148.4 L 118.3 150.6 L 120.8 152.9 L 122.0 157.4 L 119.8 161.4 L 115.4 162.5 L 111.4 160.3 L 110.0 158.1 Z M 60.0 88.4 L 139.9 88.4 L 145.9 83.4 L 156.9 92.4 L 151.9 96.4 L 151.9 127.6 L 139.9 133.6 L 139.9 125.6 L 60.0 125.6 L 60.0 137.6 L 48.0 143.6 L 48.0 82.4 Z M 60.0 109.0 L 60.0 121.6 L 139.9 121.6 L 139.9 109.0 Z M 60.0 92.4 L 60.0 105.0 L 139.9 105.0 L 139.9 92.4 Z M 169.09450550079345 52.02439556121826 L 165.5 54.9 L 165.5 82.9 L 153.5 88.9 L 153.5 78.9 L 46.5 78.9 L 46.5 85.9 L 34.5 91.9 L 34.5 49.918181800842284 L 34.0 50.1 L 26.9 52.2 L 19.3 54.0 L 11.2 55.4 L 10.7 53.7 L 18.1 50.4 L 25.0 47.2 L 31.5 44.0 L 34.5 42.42372884750366 L 34.5 40.9 L 35.98595037460327 41.64297523498535 L 37.4 40.9 L 42.8 37.7 L 47.6 34.4 L 52.0 31.1 L 55.8 27.8 L 59.0 24.4 L 61.11721315383911 21.812295055389406 L 61.1 21.8 L 62.1 20.6 L 70.9 28.8 L 71.9 32.3 L 67.99830379486085 31.62729377746582 L 67.0 32.6 L 62.6 36.1 L 57.8 39.3 L 52.5 42.3 L 46.8 45.2 L 44.75178575515747 46.02589282989502 L 46.5 46.9 L 153.5 46.9 L 154.12015810012818 46.383201599121094 L 149.2 44.0 L 143.7 40.6 L 139.0 37.0 L 135.2 33.0 L 132.3 28.8 L 131.79230766296388 27.403846168518065 L 131.2 27.7 L 131.2 25.775 L 130.7 24.4 L 130.37272729873658 20.8 L 72.0 20.8 L 72.0 16.8 L 126.28000001907348 16.8 L 131.2 12.7 L 142.2 21.7 L 137.2 24.7 L 136.73333330154418 24.933333301544188 L 137.1 25.3 L 140.2 27.8 L 143.9 30.2 L 148.3 32.5 L 153.5 34.7 L 159.5 36.8 L 166.3 38.7 L 173.9 40.4 L 182.3 42.0 L 191.4 43.9 L 179.6 54.9 L 170.8 52.6 Z M 46.5 50.9 L 46.5 74.9 L 94.0 74.9 L 94.0 50.9 Z M 106.0 50.9 L 106.0 74.9 L 153.5 74.9 L 153.5 50.9 Z M 142.0 60.8 L 142.4 64.4 L 138.23157892227172 62.88421049118042 L 137.4 63.3 L 135.0 64.6 L 132.5 66.0 L 129.8 67.3 L 127.0 68.6 L 124.1 69.9 L 121.1 71.2 L 118.0 72.4 L 114.9 74.0 L 113.9 72.5 L 116.5 70.2 L 118.8 67.8 L 123.3 63.3 L 125.4 61.1 L 127.4 59.1 L 131.2 55.1 L 132.9 53.3 L 133.83804569244384 52.2446985244751 L 133.7 52.1 L 134.6 51.4 Z M 69.8 68.5 L 68.7 66.9 L 67.5 65.3 L 66.0 63.6 L 62.5 60.1 L 60.4 58.4 L 58.1 56.5 L 55.5 55.1 L 56.2 53.4 L 59.1 54.3 L 62.1 54.9 L 64.9 55.6 L 67.6 56.5 L 70.1 57.5 L 72.5 58.6 L 74.8 59.8 L 77.0 61.2 L 79.0 62.7 L 80.9 64.3 L 81.9 68.8 L 79.6 72.7 L 75.2 73.8 L 71.2 71.5 L 70.6 70.0 Z M 131.0 19.805555534362792 L 131.2 19.75 L 131.2 19.7 L 131.0 19.63333330154419 Z " />
</g>
</svg>
