<svg xmlns="http://www.w3.org/2000/svg" xmlns:xlink="http://www.w3.org/1999/xlink" version="1.1" baseProfile="full" viewBox="0 0 200 200" width="200" height="200">
<g fill="black">
<path d="M 76.4 183.2 L 73.9 182.7 L 71.5 181.9 L 69.2 180.7 L 67.2 179.1 L 65.5 177.0 L 64.3 174.8 L 63.5 172.4 L 63.1 169.9 L 62.9 167.3 L 62.9 135.4 L 74.9 137.4 L 77.9 139.4 L 74.9 141.2 L 74.9 167.3 L 75.0 168.5 L 75.3 170.0 L 75.5 170.4 L 75.7 170.6 L 75.9 170.7 L 76.2 170.9 L 76.8 171.1 L 77.7 171.2 L 78.9 171.3 L 138.1 171.3 L 144.1 146.3 L 146.1 146.3 L 144.1 171.3 L 147.7 173.7 L 150.1 177.3 L 147.7 180.9 L 144.1 183.3 L 78.9 183.3 Z M 19.2 171.8 L 19.1 167.2 L 22.2 163.9 L 25.2 162.8 L 27.8 161.5 L 30.1 160.0 L 32.2 158.2 L 34.0 156.1 L 35.6 153.7 L 36.9 150.8 L 38.0 147.4 L 38.8 143.6 L 39.0 139.4 L 40.8 139.2 L 41.7 143.5 L 42.3 147.7 L 42.4 151.8 L 42.0 155.8 L 40.9 159.6 L 39.3 163.3 L 37.0 166.7 L 34.2 169.8 L 30.9 172.5 L 27.1 174.9 L 22.5 174.9 Z M 166.8 161.8 L 165.5 159.3 L 163.8 156.8 L 161.7 154.2 L 159.2 151.6 L 156.4 149.0 L 153.2 146.2 L 149.6 143.4 L 145.6 140.7 L 146.4 139.1 L 151.0 140.7 L 155.5 142.3 L 159.6 144.1 L 163.4 146.1 L 166.9 148.3 L 170.1 150.6 L 172.9 153.1 L 175.5 155.9 L 177.7 158.8 L 179.6 161.9 L 179.5 166.5 L 176.3 169.7 L 171.7 169.6 L 168.5 166.4 L 167.8 164.1 Z M 108.0 144.1 L 106.0 142.0 L 103.7 140.0 L 101.1 138.0 L 98.3 136.1 L 95.3 134.1 L 92.0 132.2 L 88.5 130.1 L 84.7 128.4 L 85.2 126.7 L 89.4 127.4 L 93.5 128.0 L 97.5 128.9 L 101.2 129.9 L 104.8 131.2 L 108.2 132.6 L 111.4 134.1 L 114.5 135.9 L 117.4 137.8 L 120.1 139.9 L 121.7 144.2 L 119.9 148.4 L 115.6 150.0 L 111.4 148.2 L 109.8 146.1 Z M 122.0 119.5 L 143.2 119.5 L 144.1 119.3 L 144.7 119.1 L 145.0 118.9 L 145.2 118.8 L 145.4 118.6 L 145.7 117.7 L 145.9 116.8 L 146.0 115.5 L 146.0 91.7 L 57.0 91.7 L 57.0 95.2 L 56.67904510498047 95.68143234252929 L 56.9 95.7 L 55.9 100.9 L 54.3 105.9 L 52.1 110.5 L 49.4 114.8 L 46.2 118.6 L 42.5 122.0 L 38.3 125.0 L 33.8 127.5 L 28.7 129.6 L 23.3 131.2 L 22.6 129.5 L 27.1 126.5 L 31.0 123.3 L 34.4 120.1 L 37.3 116.8 L 39.7 113.5 L 41.6 110.0 L 43.1 106.4 L 44.1 102.7 L 44.7 98.8 L 45.0 94.7 L 45.0 45.80689659118652 L 40.4 48.9 L 34.2 52.7 L 27.6 56.2 L 20.4 59.4 L 19.5 57.8 L 25.5 53.0 L 31.2 48.3 L 36.4 43.7 L 41.3 39.2 L 45.7 34.7 L 49.7 30.2 L 53.2 25.7 L 56.3 21.3 L 59.0 16.9 L 60.74111108779907 13.417777824401856 L 60.7 13.4 L 61.7 11.5 L 71.8 18.2 L 73.5 21.3 L 69.60116958618164 21.498245620727538 L 68.73333330154419 22.8 L 116.0 22.8 L 116.5 22.38333330154419 L 117.2 21.1 L 117.63416757583619 21.438193702697752 L 122.0 17.8 L 133.0 26.8 L 128.0 29.8 L 122.94153842926025 31.90769233703613 L 122.4 32.4 L 120.1 34.3 L 117.7 36.2 L 115.1 38.0 L 112.4 39.9 L 109.6 41.7 L 107.7235294342041 42.8 L 146.0 42.8 L 152.0 37.8 L 163.0 46.8 L 158.0 50.8 L 158.0 115.5 L 157.8 118.1 L 157.4 120.6 L 156.6 123.0 L 155.3 125.3 L 153.7 127.3 L 151.7 128.9 L 149.4 130.1 L 147.0 131.0 L 144.5 131.4 L 142.0 131.5 L 142.0 125.5 L 122.0 122.5 Z M 57.0 68.9 L 57.0 87.7 L 95.0 87.7 L 95.0 68.9 Z M 107.0 68.9 L 107.0 87.7 L 146.0 87.7 L 146.0 68.9 Z M 57.0 46.8 L 57.0 64.9 L 95.0 64.9 L 95.0 46.8 Z M 107.0 46.8 L 107.0 64.9 L 146.0 64.9 L 146.0 46.8 Z M 65.60851068496704 26.8 L 64.9 27.7 L 60.9 32.2 L 56.4 36.6 L 52.117037010192874 40.358518505096434 L 57.0 42.8 L 101.95714282989502 42.8 L 104.0 40.2 L 106.0 37.6 L 107.9 35.0 L 109.8 32.6 L 111.5 30.2 L 113.1 27.8 L 113.75217390060425 26.8 Z " />
</g>
</svg>
