<svg xmlns="http://www.w3.org/2000/svg" xmlns:xlink="http://www.w3.org/1999/xlink" version="1.1" baseProfile="full" viewBox="0 0 200 200" width="200" height="200">
<g fill="black">
<path d="M 159.8 170.1 L 151.5 165.0 L 143.6 159.6 L 136.1 153.8 L 128.9 147.6 L 122.2 141.1 L 115.9 134.2 L 110.1 126.9 L 106.0 120.82884616851807 L 106.0 183.6 L 94.0 189.6 L 94.0 127.79354839324951 L 92.8 129.4 L 86.1 137.3 L 78.9 144.7 L 71.1 151.5 L 62.8 157.9 L 54.0 163.8 L 44.6 169.2 L 34.7 174.0 L 24.3 178.2 L 13.3 181.7 L 12.6 180.0 L 22.7 174.7 L 32.2 169.2 L 41.2 163.5 L 49.7 157.5 L 57.6 151.2 L 64.9 144.6 L 71.7 137.6 L 78.0 130.3 L 83.7 122.6 L 85.45 119.8 L 18.0 119.8 L 18.0 115.8 L 94.0 115.8 L 94.0 89.1 L 106.0 91.1 L 109.0 93.1 L 106.0 94.9 L 106.0 115.8 L 160.0 115.8 L 170.0 105.8 L 182.0 115.8 L 182.0 119.8 L 108.33606557846069 119.8 L 113.2 124.1 L 120.0 130.0 L 127.0 135.7 L 134.2 141.1 L 141.6 146.2 L 149.3 151.0 L 157.2 155.5 L 165.4 159.7 L 173.8 163.6 L 182.5 167.1 L 188.8 169.8 L 177.4 179.3 L 168.4 174.9 Z M 73.4 83.0 L 70.9 82.5 L 68.5 81.7 L 66.2 80.5 L 64.2 78.8 L 62.6 76.8 L 61.3 74.6 L 60.5 72.2 L 60.1 69.7 L 60.0 67.1 L 60.0 22.8 L 72.0 24.8 L 75.0 26.8 L 72.0 28.6 L 72.0 68.3 L 72.2 69.2 L 72.4 69.8 L 72.5 70.2 L 72.7 70.4 L 72.9 70.5 L 73.2 70.7 L 73.8 70.9 L 74.7 71.0 L 76.0 71.1 L 141.0 71.1 L 147.0 46.1 L 149.0 46.1 L 147.0 71.1 L 150.6 73.5 L 153.0 77.1 L 150.6 80.7 L 147.0 83.1 L 76.0 83.1 Z M 15.5 74.6 L 14.6 70.1 L 17.1 66.3 L 19.9 64.4 L 22.6 62.1 L 25.0 59.3 L 27.3 55.9 L 29.3 52.0 L 31.1 47.5 L 32.7 42.5 L 34.0 36.8 L 35.1 30.6 L 36.1 23.8 L 37.9 23.7 L 38.9 30.7 L 39.3 37.3 L 39.1 43.5 L 38.5 49.3 L 37.3 54.8 L 35.7 59.9 L 33.5 64.6 L 30.8 69.0 L 27.6 72.8 L 23.8 76.2 L 19.3 77.1 Z M 170.1 58.0 L 168.5 53.9 L 166.6 49.8 L 164.3 45.9 L 161.7 41.9 L 158.8 38.0 L 155.6 34.1 L 152.1 30.2 L 148.3 26.2 L 149.3 24.7 L 154.4 27.3 L 159.1 30.2 L 163.5 33.5 L 167.5 37.0 L 171.1 40.8 L 174.4 44.9 L 177.3 49.1 L 179.9 53.6 L 182.1 58.3 L 184.0 63.2 L 183.3 67.8 L 179.7 70.6 L 175.2 69.9 L 172.4 66.4 L 171.4 62.1 Z M 108.0 42.3 L 106.1 39.1 L 104.0 35.9 L 101.8 32.9 L 99.3 30.0 L 96.6 27.1 L 93.8 24.3 L 90.8 21.4 L 87.4 18.8 L 88.3 17.2 L 92.4 18.7 L 96.4 20.4 L 100.3 22.4 L 103.9 24.6 L 107.4 27.2 L 110.7 30.0 L 113.8 33.0 L 116.7 36.3 L 119.4 39.7 L 121.9 43.4 L 122.2 48.0 L 119.3 51.5 L 114.8 51.9 L 111.2 49.0 L 109.7 45.6 Z " />
</g>
</svg>
