<svg xmlns="http://www.w3.org/2000/svg" xmlns:xlink="http://www.w3.org/1999/xlink" version="1.1" baseProfile="full" viewBox="0 0 200 200" width="200" height="200">
<g fill="black">
<path d="M 73.4 184.2 L 70.9 183.8 L 68.5 183.0 L 66.2 181.7 L 64.2 180.1 L 62.6 178.1 L 61.3 175.8 L 60.5 173.4 L 60.1 170.9 L 60.0 168.4 L 60.0 131.5 L 72.0 133.5 L 75.0 135.5 L 72.0 137.3 L 72.0 169.6 L 72.2 170.5 L 72.5 171.4 L 72.9 171.8 L 73.8 172.1 L 74.7 172.3 L 76.0 172.4 L 141.0 172.4 L 147.0 147.4 L 149.0 147.4 L 147.0 172.4 L 150.6 174.8 L 153.0 178.4 L 150.6 182.0 L 147.0 184.4 L 76.0 184.4 Z M 15.4 176.3 L 14.8 171.7 L 17.5 168.1 L 20.3 166.5 L 22.9 164.7 L 25.3 162.4 L 27.6 159.7 L 29.6 156.4 L 31.3 152.7 L 32.9 148.5 L 34.2 143.7 L 35.3 138.4 L 36.1 132.6 L 37.9 132.5 L 38.7 138.5 L 39.1 144.2 L 39.0 149.6 L 38.3 154.7 L 37.2 159.5 L 35.5 164.0 L 33.3 168.2 L 30.6 172.0 L 27.3 175.5 L 23.6 178.4 L 19.0 179.0 Z M 170.2 162.2 L 168.7 158.7 L 166.8 155.3 L 164.6 151.9 L 162.0 148.5 L 159.1 145.1 L 155.9 141.6 L 152.3 138.1 L 148.3 134.6 L 149.3 133.1 L 154.2 135.3 L 158.9 137.7 L 163.2 140.4 L 167.2 143.3 L 170.8 146.5 L 174.1 149.9 L 177.0 153.5 L 179.7 157.3 L 181.9 161.4 L 183.8 165.6 L 183.3 170.1 L 179.8 173.1 L 175.3 172.6 L 172.3 169.2 L 171.4 165.7 Z M 108.1 148.9 L 106.3 146.1 L 104.2 143.4 L 102.0 140.8 L 99.5 138.2 L 96.8 135.7 L 94.0 133.1 L 90.9 130.6 L 87.5 128.3 L 88.2 126.6 L 92.3 127.9 L 96.3 129.2 L 100.0 130.8 L 103.7 132.7 L 107.1 134.7 L 110.3 137.0 L 113.4 139.6 L 116.3 142.3 L 119.0 145.2 L 121.5 148.4 L 122.2 152.9 L 119.5 156.6 L 115.0 157.3 L 111.3 154.6 L 109.8 151.7 Z M 59.6 83.0 L 59.6 110.3 L 140.4 110.3 L 140.4 83.0 Z M 149.87678575515747 76.84464282989502 L 157.4 83.0 L 152.4 87.0 L 152.4 116.3 L 140.4 122.3 L 140.4 114.3 L 59.6 114.3 L 59.6 126.3 L 47.6 132.3 L 47.6 76.3915584564209 L 45.7 76.7 L 29.3 78.5 L 12.0 79.4 L 11.9 77.6 L 28.8 74.7 L 44.7 71.4 L 59.6 67.8 L 73.5 63.7 L 86.3 59.1 L 88.35703258514404 58.22837600708008 L 81.5 54.7 L 72.4 48.7 L 64.5 42.0 L 58.62328767776489 35.4 L 19.0 35.4 L 19.0 31.4 L 94.0 31.4 L 94.0 13.3 L 106.0 15.3 L 109.0 17.3 L 106.0 19.1 L 106.0 31.4 L 159.0 31.4 L 169.0 21.4 L 181.0 31.4 L 181.0 35.4 L 146.0454545021057 35.4 L 143.1 37.8 L 134.1 45.0 L 124.3 51.5 L 113.5 57.4 L 112.71424865722656 57.74922275543213 L 118.2 59.2 L 131.3 61.9 L 145.3 64.1 L 160.4 65.9 L 176.5 67.2 L 187.3 68.0 L 175.4 80.3 L 158.9 78.3 Z M 89.1 67.1 L 75.6 71.0 L 61.1 74.2 L 52.72058820724487 75.56029415130615 L 59.6 79.0 L 140.4 79.0 L 144.10378379821776 75.91351346969604 L 143.4 75.8 L 129.0 72.7 L 115.5 69.0 L 103.1 64.8 L 99.68503713607788 63.349396324157716 Z M 67.1 38.8 L 75.6 43.7 L 84.9 48.2 L 95.0 52.3 L 98.99490909576416 53.63163633346558 L 108.8 48.5 L 118.5 42.5 L 127.2 36.0 L 127.82307691574097 35.4 L 62.096226406097415 35.4 Z " />
</g>
</svg>
