<svg xmlns="http://www.w3.org/2000/svg" xmlns:xlink="http://www.w3.org/1999/xlink" version="1.1" baseProfile="full" viewBox="0 0 200 200" width="200" height="200">
<g fill="black">
<path d="M 73.4 181.8 L 70.9 181.4 L 68.5 180.6 L 66.2 179.3 L 64.2 177.7 L 62.6 175.7 L 61.3 173.4 L 60.5 171.0 L 60.1 168.5 L 60.0 166.0 L 60.0 124.0 L 72.0 126.0 L 75.0 128.0 L 72.0 129.8 L 72.0 167.2 L 72.2 168.1 L 72.5 169.0 L 72.9 169.4 L 73.8 169.7 L 74.7 169.9 L 76.0 170.0 L 141.0 170.0 L 147.0 145.0 L 149.0 145.0 L 147.0 170.0 L 150.6 172.4 L 153.0 176.0 L 150.6 179.6 L 147.0 182.0 L 76.0 182.0 Z M 15.4 173.6 L 14.7 169.1 L 17.2 165.3 L 20.0 163.5 L 22.7 161.4 L 25.1 158.7 L 27.4 155.6 L 29.4 151.9 L 31.2 147.6 L 32.7 142.8 L 34.0 137.4 L 35.2 131.5 L 36.1 125.0 L 37.9 124.9 L 38.8 131.6 L 39.2 137.9 L 39.1 143.8 L 38.4 149.5 L 37.3 154.7 L 35.6 159.6 L 33.5 164.2 L 30.8 168.4 L 27.5 172.1 L 23.7 175.3 L 19.2 176.1 Z M 170.1 157.7 L 168.5 153.8 L 166.6 150.0 L 164.4 146.2 L 161.8 142.4 L 158.9 138.7 L 155.7 134.9 L 152.2 131.1 L 148.3 127.3 L 149.3 125.8 L 154.3 128.2 L 159.1 131.0 L 163.4 134.1 L 167.4 137.4 L 171.0 141.0 L 174.3 144.9 L 177.2 149.0 L 179.8 153.2 L 182.1 157.7 L 183.9 162.4 L 183.3 167.0 L 179.8 169.8 L 175.2 169.2 L 172.4 165.7 L 171.4 161.7 Z M 108.0 142.8 L 106.2 139.7 L 104.1 136.7 L 101.8 133.8 L 99.4 131.0 L 96.7 128.2 L 93.8 125.5 L 90.8 122.7 L 87.4 120.2 L 88.2 118.6 L 92.3 120.0 L 96.4 121.6 L 100.2 123.4 L 103.8 125.6 L 107.3 128.0 L 110.6 130.6 L 113.7 133.5 L 116.6 136.6 L 119.3 139.9 L 121.8 143.4 L 122.2 148.0 L 119.4 151.6 L 114.8 152.0 L 111.2 149.2 L 109.7 145.9 Z M 70.3 21.8 L 71.7 25.1 L 67.90848054885865 24.90388689041138 L 65.6 27.9 L 60.6 34.0 L 55.4 39.8 L 50.0 45.6 L 45.139896392822266 50.37331609725952 L 50.1 51.2 L 53.1 53.2 L 50.1 55.0 L 50.1 110.9 L 38.1 116.9 L 38.1 56.84098358154297 L 32.4 61.7 L 26.0 66.7 L 19.3 71.4 L 12.2 75.7 L 11.1 74.3 L 16.8 68.4 L 22.4 62.6 L 27.9 56.9 L 33.1 51.1 L 38.2 45.3 L 43.1 39.4 L 47.7 33.4 L 52.2 27.4 L 56.4 21.2 L 60.4 15.0 L 60.42286376953125 15.015704345703124 L 60.9 14.3 Z M 88.1 33.6 L 118.7 33.6 L 118.7 14.4 L 130.7 16.4 L 133.7 18.4 L 130.7 20.2 L 130.7 33.6 L 168.2 33.6 L 168.94634141921998 32.97804880142212 L 169.0 32.9 L 169.8 31.4 L 170.28784646987916 31.860127925872803 L 174.2 28.6 L 185.2 37.6 L 180.2 40.6 L 171.21176471710206 44.34509801864624 L 170.8 44.6 L 168.4 45.9 L 165.9 47.3 L 163.1 48.7 L 160.2 50.2 L 157.0 51.7 L 153.9 53.5 L 152.9 52.1 L 155.5 49.7 L 157.8 47.0 L 159.9 44.6 L 161.8 42.3 L 163.6 40.2 L 165.2 38.1 L 165.61666669845582 37.6 L 130.7 37.6 L 130.7 60.6 L 155.3 60.6 L 155.7 60.26666669845581 L 156.1 59.6 L 156.33636360168458 59.73636360168457 L 161.3 55.6 L 172.3 64.6 L 167.3 67.6 L 164.15994234085082 68.90835733413697 L 160.7 73.8 L 154.1 81.4 L 146.6 88.3 L 138.76040315628052 94.0863691329956 L 146.5 97.2 L 155.9 100.2 L 166.3 102.8 L 177.4 105.0 L 186.7 106.8 L 174.9 117.9 L 163.2 115.0 L 152.3 111.5 L 142.3 107.4 L 133.2 102.8 L 128.8731297492981 100.10889778137206 L 119.1 104.8 L 108.4 109.0 L 96.9 112.4 L 84.5 115.1 L 71.4 116.9 L 71.1 115.2 L 83.6 111.4 L 95.2 107.3 L 106.0 102.9 L 115.8 98.0 L 121.30376472473145 94.72247714996338 L 117.8 91.9 L 111.5 85.7 L 106.3 78.9 L 102.3 71.6 L 99.75454549789428 64.6 L 88.1 64.6 L 88.1 68.9 L 87.5 76.1 L 86.1 82.9 L 84.1 89.2 L 81.4 95.0 L 78.0 100.3 L 73.9 104.9 L 69.3 108.9 L 64.0 112.3 L 58.1 115.0 L 51.8 116.9 L 51.1 115.2 L 56.4 111.6 L 60.9 107.9 L 64.9 104.0 L 68.2 100.0 L 70.9 95.6 L 73.0 91.0 L 74.6 86.1 L 75.6 80.8 L 76.1 75.0 L 76.1 27.6 Z M 105.8 69.4 L 110.9 75.2 L 116.6 80.5 L 122.9 85.4 L 129.37311782836915 89.41150970458985 L 132.8 87.0 L 139.9 80.8 L 146.1 74.2 L 151.6 67.1 L 153.1 64.6 L 102.29523811340331 64.6 Z M 88.1 37.6 L 88.1 60.6 L 118.7 60.6 L 118.7 37.6 Z " />
</g>
</svg>
