<svg xmlns="http://www.w3.org/2000/svg" xmlns:xlink="http://www.w3.org/1999/xlink" version="1.1" baseProfile="full" viewBox="0 0 200 200" width="200" height="200">
<g fill="black">
<path d="M 72.4 185.0 L 69.9 184.5 L 67.5 183.7 L 65.2 182.5 L 63.2 180.9 L 61.6 178.8 L 60.3 176.6 L 59.5 174.2 L 59.1 171.7 L 59.0 169.1 L 59.0 138.1 L 71.0 140.1 L 74.0 142.1 L 71.0 143.9 L 71.0 170.3 L 71.2 171.3 L 71.4 171.8 L 71.5 172.2 L 71.7 172.4 L 71.9 172.5 L 72.2 172.7 L 72.8 172.9 L 73.7 173.0 L 75.0 173.1 L 140.0 173.1 L 146.0 148.1 L 148.0 148.1 L 146.0 173.1 L 149.6 175.5 L 152.0 179.1 L 149.6 182.7 L 146.0 185.1 L 75.0 185.1 Z M 14.3 177.3 L 14.0 172.8 L 16.9 169.3 L 19.7 168.0 L 22.3 166.5 L 24.6 164.6 L 26.8 162.3 L 28.8 159.7 L 30.5 156.6 L 32.0 153.0 L 33.3 148.9 L 34.4 144.4 L 35.1 139.3 L 36.9 139.3 L 37.5 144.5 L 38.0 149.4 L 37.8 154.2 L 37.2 158.7 L 36.0 163.0 L 34.3 167.1 L 32.1 170.8 L 29.4 174.3 L 26.1 177.3 L 22.3 180.0 L 17.8 180.3 Z M 169.3 165.4 L 167.8 162.4 L 166.0 159.5 L 163.8 156.5 L 161.3 153.4 L 158.4 150.4 L 155.1 147.3 L 151.5 144.2 L 147.4 141.1 L 148.3 139.5 L 153.1 141.4 L 157.7 143.4 L 162.0 145.6 L 165.9 148.1 L 169.5 150.7 L 172.8 153.6 L 175.8 156.7 L 178.4 160.0 L 180.7 163.5 L 182.6 167.2 L 182.3 171.8 L 179.0 174.9 L 174.4 174.6 L 171.3 171.2 L 170.5 168.3 Z M 107.3 153.9 L 105.5 151.5 L 103.4 149.2 L 101.2 146.8 L 98.7 144.5 L 96.0 142.2 L 93.1 139.9 L 90.0 137.6 L 86.6 135.6 L 87.2 133.9 L 91.2 135.0 L 95.1 136.0 L 98.9 137.3 L 102.4 138.8 L 105.8 140.5 L 109.0 142.4 L 112.1 144.5 L 115.0 146.8 L 117.6 149.3 L 120.1 152.0 L 121.1 156.5 L 118.7 160.4 L 114.2 161.3 L 110.3 158.9 L 108.9 156.4 Z M 175.95238094329835 47.3 L 152.0 47.3 L 152.0 61.1 L 152.1 62.0 L 152.3 62.6 L 152.4 63.0 L 152.6 63.3 L 152.8 63.5 L 153.1 63.7 L 153.8 64.0 L 154.7 64.2 L 156.0 64.3 L 171.5 64.3 Z M 58.0 101.0 L 58.0 117.5 L 140.9 117.5 L 140.9 101.0 Z M 58.0 81.7 L 58.0 97.0 L 140.9 97.0 L 140.9 81.7 Z M 112.40298509597778 25.5 L 121.9 31.8 L 123.9 34.8 L 120.26017332077026 35.47404193878174 L 116.76723165512085 43.3 L 129.28771934509277 43.3 L 129.4 43.1 L 132.2 36.8 L 134.5 29.8 L 135.52380952835082 25.5 Z M 33.55820894241333 26.2 L 42.0 31.8 L 44.0 34.8 L 40.360173320770265 35.47404193878174 L 36.86723165512085 43.3 L 50.598412704467776 43.3 L 52.9 37.5 L 54.9 30.6 L 55.79375 26.2 Z M 177.0 64.3 L 180.3 66.5 L 182.5 69.8 L 180.3 73.1 L 177.0 75.3 L 156.0 75.3 L 153.5 75.2 L 151.1 74.9 L 148.7 74.1 L 148.48604650497435 73.99767446517944 L 157.9 81.7 L 152.9 85.7 L 152.9 123.5 L 140.9 129.5 L 140.9 121.5 L 58.0 121.5 L 58.0 133.5 L 46.0 139.5 L 46.0 71.7 L 58.0 77.7 L 65.91904764175415 77.7 L 64.4 76.6 L 58.5 65.9 L 60.3 65.2 L 64.2 64.2 L 64.8 64.05 L 64.8 47.3 L 59.95 47.3 L 59.4 48.4 L 55.2 54.6 L 50.5 60.1 L 45.2 64.9 L 39.5 68.7 L 33.2 71.7 L 26.5 73.8 L 19.3 74.9 L 18.9 73.2 L 25.2 70.2 L 30.8 67.0 L 35.8 63.3 L 40.2 59.2 L 44.1 54.6 L 47.5 49.5 L 48.6192982673645 47.3 L 35.08192090988159 47.3 L 34.1 49.5 L 20.7 50.1 L 31.407199954986574 26.2 L 23.8 26.2 L 23.8 22.2 L 77.0 22.2 L 87.0 12.2 L 99.0 22.2 L 99.0 26.2 L 67.97831325531006 26.2 L 65.9 33.7 L 62.9 41.4 L 61.95 43.3 L 73.3 43.3 L 83.3 33.3 L 95.3 43.3 L 95.3 47.3 L 76.8 47.3 L 76.8 60.98095235824585 L 84.7 59.1 L 89.0 58.1 L 93.4 57.2 L 97.9 56.5 L 102.5 55.6 L 103.1 57.3 L 99.0 59.6 L 95.1 61.8 L 91.1 63.9 L 87.1 65.9 L 83.2 67.8 L 79.4 69.6 L 75.5 71.4 L 71.8 73.2 L 68.25002107620239 74.78814849853515 L 67.54285717010498 77.7 L 140.9 77.7 L 146.48895025253296 73.04254140853882 L 146.4 73.0 L 144.4 71.4 L 142.8 69.4 L 141.5 67.2 L 140.7 64.9 L 140.2 62.4 L 140.0 59.8 L 140.0 47.3 L 138.5457142829895 47.3 L 138.1 48.1 L 133.7 54.3 L 128.7 59.7 L 123.1 64.3 L 117.1 68.1 L 110.6 70.9 L 103.7 72.7 L 96.4 73.5 L 96.0 71.8 L 102.5 69.1 L 108.3 66.0 L 113.6 62.5 L 118.3 58.5 L 122.5 53.9 L 126.2 48.8 L 127.04210529327392 47.3 L 114.9819209098816 47.3 L 114.0 49.5 L 100.6 50.1 L 111.62080001831055 25.5 L 101.8 25.5 L 101.8 21.5 L 152.2 21.5 L 162.2 11.5 L 174.2 21.5 L 174.2 25.5 L 147.90235290527343 25.5 L 145.3 33.4 L 142.0 41.1 L 140.77428569793702 43.3 L 158.8181818008423 43.3 L 167.0 34.3 L 177.0 43.3 L 179.0 43.3 Z " />
</g>
</svg>
