<svg xmlns="http://www.w3.org/2000/svg" xmlns:xlink="http://www.w3.org/1999/xlink" version="1.1" baseProfile="full" viewBox="0 0 200 200" width="200" height="200">
<g fill="black">
<path d="M 47.8 18.0 L 50.8 20.0 L 47.8 21.8 L 47.8 183.0 L 35.8 189.0 L 35.8 16.0 Z M 141.7 161.0 L 151.7 161.0 L 152.9 160.9 L 153.8 160.7 L 154.4 160.5 L 154.8 160.4 L 155.0 160.2 L 155.1 160.0 L 155.3 159.7 L 155.5 159.1 L 155.6 158.2 L 155.7 157.0 L 155.7 116.0 L 134.5 116.0 L 134.5 183.0 L 122.5 189.0 L 122.5 116.0 L 101.2 116.0 L 101.2 167.0 L 89.2 173.0 L 89.2 106.0 L 101.2 112.0 L 122.5 112.0 L 122.5 90.0 L 134.5 92.0 L 137.5 94.0 L 134.5 95.8 L 134.5 112.0 L 155.7 112.0 L 161.7 107.0 L 165.30766286849976 109.95172414779663 L 166.3 107.4 L 167.3 103.8 L 168.4 100.5 L 169.3 97.3 L 170.2 94.2 L 171.1 91.4 L 171.8 88.7 L 172.4 86.1 L 172.4782608985901 85.8 L 84.9384614944458 85.8 L 85.1 88.6 L 85.1 93.4 L 84.9 97.9 L 84.4 102.0 L 83.6 105.8 L 82.4 109.3 L 80.9 112.5 L 78.9 115.4 L 74.7 117.0 L 70.4 115.3 L 68.8 111.0 L 70.5 106.8 L 71.8 105.9 L 73.1 104.4 L 74.5 102.3 L 75.8 99.6 L 77.0 96.3 L 78.1 92.5 L 79.2 88.1 L 80.1 83.2 L 81.0 77.7 L 81.7 71.8 L 83.5 71.8 L 84.2 77.8 L 84.62857141494752 81.8 L 138.10232553482055 81.8 L 138.8 79.3 L 141.0 71.1 L 142.1 67.2 L 143.1 63.4 L 144.2 59.7 L 145.1 56.1 L 146.1 52.6 L 146.9 49.2 L 147.47684001922607 46.820534801483156 L 147.4 46.8 L 147.66999998092652 46.02375001907349 L 147.7 45.9 L 147.7116135597229 45.904111003875734 L 148.2 44.5 L 159.0 49.9 L 161.2 52.8 L 157.27087383270265 53.55825242996216 L 154.2 59.7 L 152.4 63.0 L 150.5 66.5 L 148.5 70.0 L 146.4 73.5 L 144.1 77.1 L 141.7 80.6 L 140.88918914794922 81.8 L 173.0 81.8 L 179.0 76.8 L 190.0 85.8 L 185.0 88.8 L 181.9938144683838 90.05257730484009 L 181.9 90.2 L 180.5 92.6 L 178.8 95.0 L 177.1 97.5 L 175.2 100.2 L 173.2 102.9 L 171.1 105.8 L 168.7 108.7 L 166.92799997329712 111.27745456695557 L 172.7 116.0 L 167.7 120.0 L 167.7 157.0 L 167.6 159.5 L 167.1 162.0 L 166.3 164.4 L 165.1 166.7 L 163.4 168.7 L 161.4 170.3 L 159.2 171.6 L 156.8 172.4 L 154.3 172.8 L 151.7 173.0 L 151.7 167.0 L 141.7 164.0 Z M 11.0 101.4 L 8.7 97.4 L 9.8 93.0 L 11.3 91.4 L 12.8 89.3 L 14.4 86.7 L 15.9 83.7 L 17.4 80.3 L 18.9 76.4 L 20.3 72.1 L 21.8 67.4 L 23.3 62.4 L 24.7 56.8 L 26.5 57.0 L 26.5 68.2 L 26.3 73.3 L 25.8 78.0 L 25.2 82.4 L 24.4 86.5 L 23.5 90.3 L 22.3 93.9 L 21.0 97.1 L 19.4 100.1 L 15.5 102.4 Z M 105.1 69.6 L 104.5 66.4 L 103.9 63.4 L 103.2 60.5 L 101.6 54.9 L 100.7 52.3 L 99.8 49.6 L 98.5 47.3 L 99.9 46.1 L 101.9 48.0 L 104.2 50.0 L 106.3 52.2 L 108.3 54.7 L 110.2 57.3 L 111.9 60.2 L 113.5 63.3 L 115.0 66.6 L 116.4 70.1 L 117.7 73.7 L 116.9 78.2 L 113.1 80.9 L 108.6 80.0 L 106.0 76.3 L 105.6 72.9 Z M 64.0 68.4 L 63.2 65.7 L 62.2 62.9 L 61.0 60.0 L 59.7 57.0 L 58.1 53.9 L 56.4 50.8 L 54.6 47.5 L 52.3 44.3 L 53.6 43.0 L 56.7 45.6 L 59.8 48.0 L 62.6 50.5 L 65.2 53.1 L 67.6 55.9 L 69.8 58.6 L 71.8 61.5 L 73.6 64.4 L 75.2 67.4 L 76.5 70.4 L 76.0 75.0 L 72.4 77.8 L 67.9 77.3 L 65.0 73.7 L 64.6 71.1 Z M 78.6 40.0 L 122.5 40.0 L 122.5 12.0 L 134.5 14.0 L 137.5 16.0 L 134.5 17.8 L 134.5 40.0 L 156.3 40.0 L 166.3 30.0 L 178.3 40.0 L 178.3 44.0 L 78.6 44.0 Z " />
</g>
</svg>
