<svg xmlns="http://www.w3.org/2000/svg" xmlns:xlink="http://www.w3.org/1999/xlink" version="1.1" baseProfile="full" viewBox="0 0 200 200" width="200" height="200">
<g fill="black">
<path d="M 74.4 184.5 L 71.9 184.1 L 69.5 183.2 L 67.2 182.0 L 65.2 180.4 L 63.6 178.4 L 62.3 176.1 L 61.5 173.7 L 61.1 171.2 L 61.0 168.6 L 61.0 132.1 L 73.0 134.1 L 76.0 136.1 L 73.0 137.9 L 73.0 169.9 L 73.2 170.8 L 73.5 171.7 L 73.7 171.9 L 73.9 172.0 L 74.2 172.2 L 74.8 172.4 L 75.7 172.6 L 141.0 172.6 L 147.0 147.6 L 149.0 147.6 L 147.0 172.6 L 150.6 175.0 L 153.0 178.6 L 150.6 182.2 L 147.0 184.6 L 77.0 184.6 Z M 14.2 172.4 L 14.1 167.8 L 17.1 164.4 L 20.3 163.1 L 23.2 161.6 L 25.7 159.8 L 27.9 157.7 L 29.8 155.2 L 31.5 152.4 L 32.9 149.0 L 34.1 145.2 L 34.9 141.0 L 35.2 136.2 L 37.0 136.0 L 37.9 140.9 L 38.6 145.6 L 38.7 150.1 L 38.1 154.5 L 37.0 158.7 L 35.2 162.7 L 32.8 166.4 L 29.8 169.7 L 26.3 172.7 L 22.2 175.3 L 17.6 175.5 Z M 171.3 161.1 L 169.8 158.3 L 168.0 155.5 L 165.7 152.6 L 163.0 149.7 L 160.0 146.8 L 156.5 143.8 L 152.7 140.7 L 148.5 137.7 L 149.2 136.1 L 154.3 137.9 L 159.0 139.8 L 163.4 141.9 L 167.4 144.2 L 171.1 146.7 L 174.5 149.4 L 177.5 152.2 L 180.2 155.3 L 182.5 158.6 L 184.5 162.1 L 184.3 166.7 L 181.0 169.9 L 176.5 169.7 L 173.3 166.4 L 172.5 163.8 Z M 108.7 141.2 L 106.5 138.9 L 104.0 136.7 L 101.2 134.5 L 98.2 132.4 L 95.0 130.2 L 91.5 128.1 L 87.7 126.0 L 83.7 124.0 L 84.2 122.3 L 88.7 123.1 L 93.1 123.8 L 97.3 124.9 L 101.3 126.1 L 105.1 127.6 L 108.8 129.2 L 112.2 131.1 L 115.5 133.1 L 118.5 135.3 L 121.4 137.7 L 122.9 142.0 L 121.0 146.2 L 116.7 147.7 L 112.5 145.8 L 110.7 143.5 Z M 161.0 105.4 L 158.5 101.8 L 155.6 98.2 L 155.405197429657 97.97377758026123 L 145.7 99.9 L 133.2 102.2 L 121.4 104.1 L 110.2 105.9 L 99.7 107.5 L 89.9 109.0 L 80.7 110.3 L 72.1 111.5 L 64.3 112.6 L 61.1358208656311 112.99552240371705 L 59.3 116.3 L 57.1 113.5 L 54.1 101.7 L 56.1 101.5 L 63.3 101.2 L 71.1 100.8 L 79.7 100.3 L 81.88138360977173 100.15773582458496 L 82.1 99.8 L 85.6 94.5 L 89.0 89.3 L 92.4 84.0 L 95.7 78.7 L 102.1 67.9 L 108.1 56.9 L 110.56926136016845 52.13177127838135 L 110.5 52.1 L 111.5 50.3 L 121.4 57.1 L 123.1 60.4 L 119.29721632003785 60.46445398330688 L 117.9 62.7 L 114.3 68.1 L 110.5 73.4 L 106.6 78.5 L 102.6 83.6 L 98.4 88.5 L 94.2 93.3 L 89.7 97.9 L 87.69320230484009 99.77870416641235 L 88.9 99.7 L 98.8 99.1 L 109.4 98.4 L 120.7 97.6 L 132.6 96.8 L 145.3 96.1 L 153.47412548065185 95.7312424659729 L 152.5 94.6 L 149.1 90.9 L 145.5 87.2 L 141.6 83.4 L 137.5 79.4 L 133.3 75.3 L 134.3 73.8 L 139.7 76.3 L 144.8 79.1 L 149.6 82.1 L 154.1 85.2 L 158.3 88.4 L 162.3 91.7 L 166.0 95.1 L 169.4 98.7 L 172.6 102.3 L 175.5 106.0 L 176.3 110.5 L 173.7 114.3 L 169.2 115.0 L 165.4 112.5 L 163.4 109.0 Z M 91.7 16.3 L 94.1 19.0 L 90.46460905075074 20.038683128356933 L 87.9 27.8 L 83.50720720291137 38.4 L 155.8 38.4 L 165.8 28.4 L 177.8 38.4 L 177.8 42.4 L 81.5824073791504 42.4 L 78.0 49.7 L 71.8 60.0 L 65.0 70.0 L 57.3 79.5 L 48.9 88.7 L 39.7 97.3 L 29.7 105.5 L 18.9 113.0 L 17.8 111.6 L 27.2 102.6 L 36.0 93.5 L 44.0 84.2 L 51.4 74.8 L 58.0 65.2 L 63.9 55.3 L 69.0 45.2 L 70.18461542129516 42.4 L 23.1 42.4 L 23.1 38.4 L 71.87692308425903 38.4 L 73.4 34.8 L 77.1 24.1 L 79.82362327575683 14.204168796539307 L 79.8 14.2 L 80.5 11.5 Z " />
</g>
</svg>
