<svg xmlns="http://www.w3.org/2000/svg" xmlns:xlink="http://www.w3.org/1999/xlink" version="1.1" baseProfile="full" viewBox="0 0 200 200" width="200" height="200">
<g fill="black">
<path d="M 147.0 145.0 L 149.0 145.0 L 147.0 170.0 L 150.6 172.4 L 153.0 176.0 L 150.6 179.6 L 147.0 182.0 L 76.0 182.0 L 73.4 181.8 L 70.9 181.4 L 68.5 180.6 L 66.2 179.4 L 64.2 177.7 L 62.6 175.7 L 61.3 173.4 L 60.5 171.0 L 60.1 168.5 L 60.0 166.0 L 60.0 130.4 L 72.0 132.4 L 75.0 134.4 L 72.0 136.2 L 72.0 167.2 L 72.2 168.1 L 72.5 169.0 L 72.9 169.4 L 73.8 169.7 L 74.7 169.9 L 76.0 170.0 L 141.0 170.0 Z M 15.3 173.9 L 14.8 169.4 L 17.6 165.8 L 20.4 164.3 L 23.0 162.5 L 25.4 160.3 L 27.6 157.7 L 29.6 154.6 L 31.4 151.0 L 32.9 146.9 L 34.2 142.3 L 35.3 137.2 L 36.1 131.5 L 37.9 131.5 L 38.7 137.3 L 39.1 142.8 L 38.9 148.1 L 38.3 153.0 L 37.1 157.7 L 35.5 162.1 L 33.3 166.2 L 30.5 170.0 L 27.3 173.3 L 23.5 176.2 L 19.0 176.7 Z M 170.2 160.3 L 168.7 157.0 L 166.8 153.7 L 164.6 150.3 L 162.1 147.0 L 159.2 143.7 L 155.9 140.3 L 152.3 136.9 L 148.4 133.5 L 149.3 132.0 L 154.2 134.1 L 158.9 136.4 L 163.2 139.0 L 167.1 141.8 L 170.7 144.9 L 174.0 148.2 L 177.0 151.7 L 179.6 155.4 L 181.9 159.3 L 183.7 163.4 L 183.3 168.0 L 179.9 170.9 L 175.3 170.5 L 172.3 167.1 L 171.4 163.7 Z M 108.2 147.4 L 106.3 144.8 L 104.3 142.1 L 102.0 139.6 L 99.6 137.0 L 96.9 134.6 L 94.0 132.1 L 90.9 129.6 L 87.5 127.3 L 88.2 125.7 L 96.2 128.1 L 100.0 129.7 L 103.6 131.5 L 107.0 133.5 L 110.3 135.7 L 113.3 138.1 L 116.2 140.7 L 118.9 143.6 L 121.4 146.6 L 122.1 151.1 L 119.5 154.9 L 115.0 155.6 L 111.3 153.0 L 109.8 150.2 Z M 145.8 89.3 L 141.2 87.3 L 136.2 85.4 L 130.7 83.4 L 124.7 81.4 L 118.4 79.4 L 111.6 77.4 L 104.4 75.2 L 102.0 74.47368421554566 L 102.0 115.6 L 90.0 121.6 L 90.0 56.4 L 16.0 56.4 L 16.0 52.4 L 162.0 52.4 L 172.0 42.4 L 184.0 52.4 L 184.0 56.4 L 102.0 56.4 L 102.0 71.34499998092652 L 105.1 71.5 L 112.6 72.1 L 119.8 73.0 L 126.5 74.0 L 132.9 75.2 L 138.8 76.5 L 144.4 77.8 L 149.6 79.3 L 154.4 80.9 L 158.9 82.5 L 161.9 86.0 L 161.7 90.6 L 158.2 93.6 L 153.6 93.3 L 150.0 91.3 Z M 165.0 24.2 L 165.0 28.2 L 30.9 28.2 L 30.9 24.2 L 143.0 24.2 L 153.0 14.2 Z " />
</g>
</svg>
