<svg xmlns="http://www.w3.org/2000/svg" xmlns:xlink="http://www.w3.org/1999/xlink" version="1.1" baseProfile="full" viewBox="0 0 200 200" width="200" height="200">
<g fill="black">
<path d="M 75.4 184.6 L 72.9 184.1 L 70.5 183.3 L 68.2 182.1 L 66.2 180.5 L 64.6 178.4 L 63.3 176.2 L 62.5 173.8 L 62.1 171.3 L 62.0 168.7 L 62.0 145.3 L 74.0 147.3 L 77.0 149.3 L 74.0 151.1 L 74.0 169.9 L 74.2 170.9 L 74.4 171.4 L 74.5 171.8 L 74.7 172.0 L 74.9 172.1 L 75.2 172.3 L 75.8 172.5 L 76.7 172.6 L 78.0 172.7 L 143.0 172.7 L 149.0 147.7 L 150.70588235855104 147.7 L 151.2 146.5 L 156.0 148.0 L 160.5 149.4 L 164.7 151.0 L 168.5 152.9 L 172.1 154.9 L 175.3 157.1 L 178.3 159.4 L 180.9 162.0 L 183.3 164.8 L 185.2 167.8 L 185.3 172.4 L 182.2 175.7 L 177.6 175.8 L 174.2 172.7 L 173.6 170.5 L 172.5 168.3 L 171.1 165.9 L 169.3 163.5 L 167.2 161.1 L 164.6 158.5 L 161.7 156.0 L 158.3 153.4 L 154.7 150.7 L 150.93909091949462 148.46136360168458 L 149.0 172.7 L 152.6 175.1 L 155.0 178.7 L 152.6 182.3 L 149.0 184.7 L 78.0 184.7 Z M 17.2 177.3 L 17.2 172.7 L 20.4 169.5 L 23.3 168.6 L 25.8 167.4 L 28.1 166.0 L 30.2 164.4 L 32.1 162.5 L 33.8 160.2 L 35.2 157.4 L 36.5 154.3 L 37.6 150.7 L 38.1 146.7 L 39.9 146.6 L 40.4 150.9 L 40.8 154.9 L 40.6 158.9 L 39.9 162.7 L 38.7 166.3 L 37.0 169.7 L 34.7 172.9 L 32.0 175.8 L 28.7 178.4 L 25.0 180.6 L 20.4 180.5 Z M 69.93970584869385 80.81617650985717 L 70.2473684310913 89.0 L 75.51818180084229 89.0 L 77.55106382369995 86.76382980346679 L 76.5 86.1 L 76.7 85.5 L 76.8 84.9 L 76.7 84.1 L 76.5 83.3 L 76.2 82.4 L 75.7 81.4 L 75.1 80.4 L 74.4 79.3 L 73.5 78.2 L 72.3 77.6 L 72.9 76.0 L 74.2 76.5 L 75.7 76.4 L 77.2 76.4 L 78.6 76.5 L 80.0 76.7 L 81.3 77.0 L 82.6 77.4 L 83.9 77.9 L 85.2 78.5 L 86.4 79.3 L 87.16341466903687 83.11707315444946 L 93.7 89.0 L 93.7 93.0 L 70.67818183898926 93.0 L 71.9 101.4 L 74.3 110.3 L 74.90984678268433 111.80283660888672 L 75.1 111.5 L 77.4 106.8 L 79.04178647994995 102.6134443283081 L 79.0 102.6 L 79.9 100.4 L 90.5 106.3 L 90.76857147216796 106.70285711288452 L 91.0 105.7 L 93.0 105.7 L 91.07446804046631 130.7319149017334 L 95.2 132.5 L 97.0 136.7 L 95.2 140.8 L 91.81504182815551 142.33129062652588 L 94.1 142.8 L 97.9 143.4 L 101.6 144.3 L 105.1 145.4 L 108.4 146.6 L 111.6 148.1 L 114.5 149.6 L 117.4 151.4 L 120.0 153.3 L 122.5 155.4 L 123.9 159.7 L 121.9 163.8 L 117.6 165.2 L 113.5 163.2 L 112.1 161.2 L 110.6 159.2 L 108.8 157.2 L 106.8 155.3 L 104.5 153.3 L 102.0 151.3 L 99.3 149.4 L 96.3 147.4 L 93.1 145.4 L 89.6 143.7 L 90.00186920166016 142.56137075424195 L 87.4 142.2 L 83.5 140.7 L 79.2 138.2 L 74.7 134.4 L 71.22363729476929 130.27687215805054 L 66.5 133.3 L 61.2 136.0 L 55.5 138.1 L 49.6 139.6 L 43.3 140.4 L 42.8 138.7 L 48.3 136.0 L 53.4 133.2 L 58.0 130.3 L 62.2 127.1 L 66.0 123.6 L 66.58161401748657 122.96706714630128 L 66.3 122.5 L 62.9 114.1 L 60.41927804946899 104.63650531768799 L 56.9 107.1 L 56.9 118.6 L 45.9 124.1 L 45.9 118.6 L 34.1 118.6 L 23.1 124.1 L 23.1 94.1 L 34.1 99.6 L 45.9 99.6 L 51.4 94.6 L 59.92270917892456 101.90517930984497 L 58.61951217651367 93.0 L 16.2 93.0 L 16.2 89.0 L 58.29583330154419 89.0 L 57.84152250289917 78.09653978347778 L 57.8 78.1 L 57.8 74.7 L 69.8 77.1 L 72.8 79.1 Z M 18.1 126.2 L 21.8 126.0 L 29.6 125.4 L 33.7 125.2 L 37.9 124.9 L 42.2 124.6 L 46.6 124.3 L 51.1 124.0 L 55.7 123.9 L 60.5 123.7 L 60.8 125.5 L 56.4 127.2 L 52.0 128.8 L 47.7 130.3 L 39.3 132.9 L 35.2 134.0 L 27.4 136.2 L 24.07001371383667 136.988680934906 L 22.3 140.7 L 19.9 138.1 L 16.1 126.5 Z M 125.55023040771485 17.48986177444458 L 126.33170728683471 25.5 L 157.2875 25.5 L 155.6 25.2 L 154.9 24.2 L 153.9 23.2 L 152.6 22.1 L 151.1 21.1 L 149.4 19.9 L 147.4 18.8 L 145.2 17.6 L 140.2 15.1 L 137.3 14.3 L 137.6 12.6 L 140.6 12.9 L 143.6 12.7 L 146.4 12.7 L 149.0 12.8 L 151.5 13.0 L 153.9 13.2 L 156.1 13.6 L 158.2 14.0 L 160.3 14.5 L 162.2 15.1 L 164.7 18.9 L 163.9 23.4 L 160.8307692527771 25.5 L 166.21818180084227 25.5 L 174.4 16.5 L 184.4 25.5 L 184.4 29.5 L 127.44554452896118 29.5 L 129.6 36.3 L 134.4 44.5 L 140.5 51.0 L 141.48396081924437 51.74153575897217 L 144.2 50.2 L 150.7 45.7 L 156.3 40.9 L 160.41602020263673 36.61247892379761 L 160.4 36.6 L 161.4 35.5 L 169.9 44.0 L 170.8 47.5 L 166.92335147857665 46.68386344909668 L 163.8 49.5 L 156.8 54.5 L 150.78353700637817 57.98321542739868 L 154.8 60.1 L 162.1 62.9 L 168.9 64.7 L 173.05625 65.35625 L 178.7 40.9 L 180.7 40.9 L 178.7744680404663 65.93191490173339 L 182.9 67.7 L 184.7 71.9 L 182.9 76.1 L 178.7 77.9 L 173.3 77.5 L 169.86150941848754 76.94377355575561 L 170.2 77.1 L 171.5 77.8 L 172.2194444656372 81.0375 L 179.4 87.5 L 179.4 91.5 L 155.19245281219483 91.5 L 156.4 99.5 L 158.8 108.0 L 159.703032207489 110.01677198410034 L 160.3 109.1 L 162.7 104.6 L 164.4124589920044 100.60426225662232 L 164.4 100.6 L 165.3 98.5 L 175.8 104.5 L 176.18558826446534 105.12911767959595 L 176.7 102.9 L 178.7 102.9 L 176.7744680404663 127.93191490173339 L 180.9 129.7 L 182.7 133.9 L 180.9 138.1 L 176.7 139.9 L 173.0 139.4 L 169.0 138.0 L 164.6 135.6 L 160.0 132.0 L 156.01855411529542 127.58578834533691 L 156.0 127.6 L 150.8 130.8 L 145.3 133.4 L 139.5 135.4 L 133.3 136.8 L 126.7 137.6 L 126.3 135.8 L 132.1 133.2 L 137.4 130.4 L 142.3 127.5 L 146.7 124.4 L 150.7 121.0 L 151.27160301208497 120.41251907348632 L 151.2 120.3 L 147.5 112.1 L 144.81003341674804 102.4929765701294 L 140.8 105.3 L 140.8 116.3 L 129.98095235824584 121.70952377319335 L 130.2 121.7 L 134.9 121.5 L 139.8 121.4 L 144.8 121.3 L 145.1 123.0 L 140.4 124.7 L 135.8 126.4 L 131.3 127.8 L 126.9 129.1 L 122.5 130.3 L 118.3 131.5 L 114.1 132.5 L 110.0 133.5 L 106.31052627563477 134.42236843109131 L 104.5 138.1 L 102.1 135.4 L 98.5 123.8 L 100.5 123.5 L 104.4 123.3 L 108.4 123.0 L 112.5 122.8 L 116.8 122.5 L 125.6 121.9 L 129.8 121.71739130020141 L 129.8 116.3 L 116.9 116.3 L 105.9 121.8 L 105.9 92.3 L 116.9 97.8 L 129.8 97.8 L 135.3 92.8 L 144.47231407165526 100.66198348999023 L 143.02166662216186 91.5 L 98.5 91.5 L 98.5 87.5 L 142.69014081954955 87.5 L 142.24210529327394 76.89649124145508 L 142.2 76.9 L 142.2 73.5 L 154.2 75.9 L 157.2 77.9 L 154.37065868377687 79.59760475158691 L 154.73538465499877 87.5 L 161.21818180084227 87.5 L 162.95993928909303 85.58406677246094 L 161.8 84.9 L 162.0 84.4 L 162.1 83.7 L 162.0 83.0 L 161.7 82.1 L 161.3 81.2 L 160.8 80.2 L 160.1 79.2 L 159.3 78.1 L 158.4 77.0 L 157.1 76.5 L 157.7 74.8 L 159.0 75.3 L 160.6 75.2 L 161.9285714149475 75.2 L 158.5 74.3 L 149.9 71.1 L 141.0 66.4 L 137.69412164688111 63.910868072509764 L 131.5 66.2 L 121.6 69.2 L 110.9 71.6 L 99.4 73.5 L 87.2 74.9 L 74.1 75.6 L 73.9 73.8 L 86.6 71.1 L 98.4 68.3 L 109.3 65.2 L 119.3 61.9 L 128.5 58.3 L 130.20835275650023 57.497280025482176 L 124.9 51.7 L 118.7 41.3 L 114.86031742095948 29.5 L 15.5 29.5 L 15.5 25.5 L 114.2972972869873 25.5 L 113.29385471343994 14.892178726196288 L 113.2 14.9 L 113.2 11.5 L 125.2 13.9 L 128.2 15.9 Z M 88.64090023040771 109.83228960037232 L 87.5 112.0 L 84.1 117.2 L 80.3 122.0 L 80.06503496170043 122.24055948257447 L 80.1 122.3 L 83.2 126.0 L 85.81581287384033 128.16481065750122 L 90.09260272979736 109.63205480575562 Z M 173.82504119873047 108.06766738891602 L 172.7 110.1 L 169.1 115.2 L 165.1326086997986 119.86168479919434 L 168.1 123.2 L 171.2 125.6 L 171.43263158798217 125.7252631187439 L 175.5556616783142 107.85879945755005 Z M 34.1 103.6 L 34.1 114.6 L 45.9 114.6 L 45.9 103.6 Z M 116.9 101.8 L 116.9 112.3 L 129.8 112.3 L 129.8 101.8 Z M 19.9 61.5 L 28.3 61.3 L 36.8 61.0 L 45.5 60.7 L 54.5 60.4 L 63.6 60.1 L 73.0 59.8 L 82.5 59.5 L 86.3 59.38247423171997 L 86.3 54.3 L 48.4 54.3 L 36.4 60.3 L 36.4 29.8 L 48.4 35.8 L 86.3 35.8 L 92.3 30.8 L 103.3 39.8 L 98.3 43.8 L 98.3 54.3 L 88.25604391098022 59.32197799682617 L 92.2 59.2 L 102.2 59.1 L 112.3 59.2 L 112.5 61.0 L 102.5 62.9 L 92.7 64.6 L 83.0 66.0 L 73.6 67.3 L 64.3 68.5 L 55.2 69.6 L 46.3 70.7 L 37.6 71.7 L 29.1 72.6 L 24.808695697784422 73.05978260040283 L 22.9 76.4 L 20.7 73.5 L 17.9 61.7 Z M 48.4 39.8 L 48.4 50.3 L 86.3 50.3 L 86.3 39.8 Z " />
</g>
</svg>
