<svg xmlns="http://www.w3.org/2000/svg" xmlns:xlink="http://www.w3.org/1999/xlink" version="1.1" baseProfile="full" viewBox="0 0 200 200" width="200" height="200">
<g fill="black">
<path d="M 73.4 180.8 L 70.9 180.4 L 68.5 179.6 L 66.2 178.3 L 64.2 176.7 L 62.6 174.7 L 61.3 172.4 L 60.5 170.0 L 60.1 167.5 L 60.0 165.0 L 60.0 129.3 L 72.0 131.3 L 75.0 133.3 L 72.0 135.1 L 72.0 166.2 L 72.2 167.1 L 72.5 168.0 L 72.9 168.4 L 73.8 168.7 L 74.7 168.9 L 76.0 169.0 L 141.0 169.0 L 147.0 144.0 L 149.0 144.0 L 147.0 169.0 L 150.6 171.4 L 153.0 175.0 L 150.6 178.6 L 147.0 181.0 L 76.0 181.0 Z M 15.3 172.9 L 14.8 168.4 L 17.6 164.8 L 20.4 163.3 L 23.0 161.5 L 25.4 159.3 L 27.6 156.7 L 29.6 153.6 L 31.4 150.0 L 32.9 145.9 L 34.2 141.3 L 35.3 136.1 L 36.1 130.5 L 37.9 130.4 L 38.7 136.2 L 39.1 141.8 L 38.9 147.0 L 38.3 152.0 L 37.1 156.7 L 35.5 161.1 L 33.3 165.2 L 30.5 169.0 L 27.3 172.3 L 23.5 175.2 L 19.0 175.7 Z M 170.2 159.3 L 168.7 156.0 L 166.8 152.6 L 164.6 149.3 L 162.1 146.0 L 159.2 142.7 L 155.9 139.3 L 152.3 135.9 L 148.4 132.5 L 149.3 130.9 L 154.2 133.0 L 158.9 135.3 L 163.2 137.9 L 167.1 140.8 L 170.7 143.8 L 174.0 147.1 L 177.0 150.6 L 179.6 154.3 L 181.9 158.3 L 183.8 162.4 L 183.3 166.9 L 179.9 169.9 L 175.3 169.5 L 172.3 166.0 L 171.4 162.7 Z M 108.2 146.4 L 106.3 143.7 L 104.3 141.1 L 102.0 138.5 L 99.6 136.0 L 96.9 133.5 L 94.0 131.1 L 90.9 128.5 L 87.5 126.3 L 88.2 124.7 L 96.2 127.1 L 100.0 128.6 L 103.6 130.4 L 107.0 132.4 L 110.3 134.6 L 113.3 137.1 L 116.2 139.7 L 118.9 142.6 L 121.4 145.6 L 122.1 150.1 L 119.5 153.9 L 115.0 154.6 L 111.3 152.0 L 109.8 149.2 Z M 131.0 115.0 L 151.0 115.0 L 152.2 114.9 L 153.1 114.8 L 153.7 114.6 L 154.0 114.4 L 154.2 114.2 L 154.4 114.1 L 154.5 113.7 L 154.7 113.1 L 154.9 112.2 L 155.0 111.0 L 155.0 76.4 L 126.0 76.4 L 126.0 115.3 L 114.0 121.3 L 114.0 76.4 L 86.0 76.4 L 86.0 115.3 L 74.0 121.3 L 74.0 76.4 L 45.0 76.4 L 45.0 120.6 L 33.0 126.6 L 33.0 66.4 L 45.0 72.4 L 81.68800001144409 72.4 L 82.7 71.3 L 84.6 68.6 L 86.5 66.1 L 88.3 63.7 L 90.0 61.5 L 91.6 59.4 L 92.23000001907349 58.5 L 13.0 58.5 L 13.0 54.5 L 168.8181818008423 54.5 L 177.0 45.5 L 187.0 54.5 L 187.0 58.5 L 108.7906976699829 58.5 L 105.1 60.8 L 103.3 61.9 L 101.4 63.1 L 99.4 64.4 L 97.2 65.7 L 94.9 67.1 L 92.5 68.5 L 90.0 70.0 L 87.2 71.6 L 85.65333337783814 72.4 L 155.0 72.4 L 161.0 67.4 L 172.0 76.4 L 167.0 80.4 L 167.0 111.0 L 166.8 113.5 L 166.4 116.0 L 165.6 118.4 L 164.3 120.7 L 162.7 122.7 L 160.7 124.4 L 158.4 125.6 L 156.0 126.4 L 153.5 126.8 L 151.0 127.0 L 151.0 121.0 L 131.0 118.0 Z M 36.3 47.7 L 36.3 16.9 L 48.3 18.9 L 51.3 20.9 L 48.3 22.7 L 48.3 37.7 L 94.0 37.7 L 94.0 8.8 L 106.0 10.8 L 109.0 12.8 L 106.0 14.6 L 106.0 37.7 L 151.6 37.7 L 151.6 16.9 L 163.6 18.9 L 166.6 20.9 L 163.6 22.7 L 163.6 41.7 L 151.6 47.7 L 151.6 41.7 L 48.3 41.7 Z " />
</g>
</svg>
