<svg xmlns="http://www.w3.org/2000/svg" xmlns:xlink="http://www.w3.org/1999/xlink" version="1.1" baseProfile="full" viewBox="0 0 200 200" width="200" height="200">
<g fill="black">
<path d="M 73.4 179.7 L 70.9 179.3 L 68.5 178.5 L 66.2 177.3 L 64.2 175.6 L 62.6 173.6 L 61.3 171.3 L 60.5 168.9 L 60.1 166.4 L 60.0 163.9 L 60.0 126.0 L 72.0 128.0 L 75.0 130.0 L 72.0 131.8 L 72.0 165.1 L 72.2 166.0 L 72.5 166.9 L 72.9 167.3 L 73.2 167.5 L 73.8 167.6 L 74.7 167.8 L 76.0 167.9 L 141.0 167.9 L 147.0 142.9 L 149.0 142.9 L 147.0 167.9 L 150.6 170.3 L 153.0 173.9 L 150.6 177.5 L 147.0 179.9 L 76.0 179.9 Z M 15.4 171.7 L 14.8 167.2 L 17.4 163.5 L 20.3 161.9 L 22.9 160.0 L 25.3 157.7 L 27.5 154.8 L 29.5 151.5 L 31.3 147.7 L 32.8 143.3 L 34.1 138.4 L 35.3 133.0 L 36.1 127.1 L 37.9 127.0 L 38.7 133.1 L 39.1 138.9 L 39.0 144.4 L 38.3 149.6 L 37.2 154.6 L 35.5 159.1 L 33.3 163.4 L 30.6 167.3 L 27.4 170.8 L 23.6 173.8 L 19.1 174.4 Z M 170.2 157.3 L 168.6 153.8 L 166.8 150.2 L 164.6 146.8 L 162.0 143.3 L 159.1 139.8 L 155.8 136.3 L 152.3 132.7 L 148.3 129.2 L 149.3 127.6 L 154.2 129.9 L 158.9 132.3 L 163.2 135.1 L 167.2 138.1 L 170.8 141.4 L 174.1 144.9 L 177.1 148.6 L 179.7 152.5 L 181.9 156.6 L 183.8 161.0 L 183.3 165.5 L 179.8 168.5 L 175.3 168.0 L 172.3 164.5 L 171.4 160.9 Z M 108.1 143.7 L 106.3 140.8 L 104.2 138.1 L 102.0 135.4 L 99.5 132.8 L 96.8 130.2 L 93.9 127.6 L 90.9 125.0 L 87.5 122.7 L 88.2 121.0 L 92.3 122.3 L 96.3 123.7 L 100.1 125.3 L 103.7 127.2 L 107.1 129.4 L 110.4 131.8 L 113.5 134.4 L 116.4 137.2 L 119.1 140.2 L 121.6 143.4 L 122.2 147.9 L 119.5 151.6 L 115.0 152.2 L 111.3 149.5 L 109.8 146.6 Z M 171.1 58.8 L 174.1 60.8 L 171.1 62.6 L 171.1 116.9 L 159.1 122.9 L 159.1 114.9 L 40.8 114.9 L 28.8 120.9 L 28.8 56.8 L 40.8 58.8 L 43.8 60.8 L 40.8 62.6 L 40.8 110.9 L 159.1 110.9 L 159.1 56.8 Z M 123.0 94.3 L 114.7 90.1 L 106.4 86.0 L 105.9333333015442 85.78333330154419 L 103.9 86.8 L 94.3 91.0 L 84.2 94.8 L 73.5 98.2 L 62.3 101.2 L 50.5 103.8 L 50.0 102.0 L 61.1 97.6 L 71.7 93.2 L 81.7 88.7 L 91.2 84.1 L 96.25736093521118 81.34143943786621 L 89.5 78.4 L 80.9 74.9 L 72.3 71.5 L 63.6 68.1 L 54.8 64.8 L 55.3 63.0 L 64.6 64.5 L 73.8 66.4 L 83.0 68.7 L 92.1 71.3 L 101.1 74.2 L 105.669522190094 75.84297428131103 L 108.2 74.3 L 115.8 69.1 L 122.8 63.8 L 129.3 58.3 L 135.3 52.3 L 143.4 61.1 L 144.1 64.7 L 140.3552951812744 63.69695405960083 L 136.6 66.9 L 129.3 72.4 L 121.3 77.5 L 116.79717140197754 80.07304496765137 L 118.9 80.9 L 127.7 84.6 L 136.4 88.6 L 145.0 92.9 L 147.9 96.5 L 147.4 101.0 L 143.8 103.8 L 139.3 103.4 L 131.2 98.7 Z M 17.4 42.2 L 93.5 42.2 L 93.5 12.3 L 105.5 14.3 L 108.5 16.3 L 105.5 18.1 L 105.5 42.2 L 159.5 42.2 L 169.5 32.2 L 181.5 42.2 L 181.5 46.2 L 17.4 46.2 Z " />
</g>
</svg>
