<svg xmlns="http://www.w3.org/2000/svg" xmlns:xlink="http://www.w3.org/1999/xlink" version="1.1" baseProfile="full" viewBox="0 0 200 200" width="200" height="200">
<g fill="black">
<path d="M 73.4 184.0 L 70.9 183.6 L 68.5 182.8 L 66.2 181.5 L 64.2 179.9 L 62.6 177.9 L 61.3 175.6 L 60.5 173.2 L 60.1 170.7 L 60.0 168.2 L 60.0 135.1 L 72.0 137.1 L 75.0 139.1 L 72.0 140.9 L 72.0 169.4 L 72.2 170.3 L 72.5 171.2 L 72.9 171.6 L 73.8 171.9 L 74.7 172.1 L 76.0 172.2 L 141.0 172.2 L 147.0 147.2 L 149.0 147.2 L 147.0 172.2 L 150.6 174.6 L 153.0 178.2 L 150.6 181.7 L 147.0 184.2 L 76.0 184.2 Z M 15.3 176.3 L 14.9 171.7 L 17.8 168.1 L 20.6 166.8 L 23.2 165.1 L 25.5 163.1 L 27.7 160.7 L 29.7 157.9 L 31.4 154.5 L 33.0 150.7 L 34.3 146.4 L 35.4 141.6 L 36.1 136.3 L 37.9 136.2 L 38.6 141.7 L 39.0 146.9 L 38.9 151.9 L 38.2 156.6 L 37.1 161.1 L 35.4 165.3 L 33.2 169.2 L 30.4 172.8 L 27.2 176.0 L 23.4 178.7 L 18.9 179.1 Z M 170.3 163.6 L 168.8 160.4 L 166.9 157.3 L 164.7 154.2 L 162.2 151.0 L 159.3 147.9 L 156.0 144.7 L 152.4 141.4 L 148.4 138.2 L 149.3 136.6 L 154.1 138.6 L 158.8 140.7 L 163.1 143.1 L 167.0 145.7 L 170.6 148.6 L 173.9 151.6 L 176.9 154.9 L 179.5 158.4 L 181.8 162.1 L 183.7 166.0 L 183.3 170.5 L 179.9 173.6 L 175.4 173.2 L 172.3 169.8 L 171.4 166.7 Z M 108.2 151.5 L 106.4 149.0 L 104.4 146.5 L 102.1 144.0 L 99.7 141.6 L 97.0 139.2 L 94.1 136.9 L 91.0 134.5 L 87.5 132.3 L 88.2 130.7 L 96.2 132.9 L 99.9 134.3 L 103.5 136.0 L 106.9 137.8 L 110.1 139.9 L 113.2 142.1 L 116.1 144.6 L 118.8 147.2 L 121.3 150.1 L 122.1 154.5 L 119.6 158.4 L 115.1 159.2 L 111.3 156.7 L 109.9 154.1 Z M 143.3 127.0 L 164.5 127.0 L 165.5 126.8 L 166.0 126.6 L 166.4 126.5 L 166.6 126.3 L 166.7 126.1 L 166.9 125.8 L 167.1 125.2 L 167.2 124.3 L 167.3 123.0 L 167.3 63.8 L 77.6 63.8 L 77.6 59.8 L 167.3 59.8 L 173.3 54.8 L 184.3 63.8 L 179.3 67.8 L 179.3 123.0 L 179.2 125.6 L 178.7 128.1 L 177.9 130.5 L 176.7 132.8 L 175.1 134.8 L 173.0 136.4 L 170.8 137.7 L 168.4 138.5 L 165.9 138.9 L 163.3 139.0 L 163.3 133.0 L 143.3 130.0 Z M 74.9 18.5 L 76.4 21.7 L 72.73896102905273 21.7 L 69.7 26.2 L 64.3 33.8 L 58.6 41.3 L 52.7 48.5 L 46.53858919143677 55.45643157958985 L 52.2 56.4 L 55.2 58.4 L 52.2 60.2 L 52.2 132.1 L 40.2 138.1 L 40.2 62.18769226074219 L 40.0 62.4 L 33.3 69.0 L 26.3 75.3 L 18.9 81.4 L 11.2 87.1 L 10.0 85.8 L 16.3 78.6 L 22.5 71.5 L 28.5 64.5 L 34.3 57.3 L 39.9 50.1 L 45.3 42.8 L 50.5 35.3 L 55.4 27.8 L 60.1 20.1 L 64.6 12.3 L 65.1 11.4 Z M 101.8 85.9 L 132.0 85.9 L 138.0 80.9 L 149.0 89.9 L 144.0 93.9 L 144.0 118.3 L 132.0 124.3 L 132.0 114.3 L 101.8 114.3 L 89.8 120.3 L 89.8 79.9 Z M 101.8 89.9 L 101.8 110.3 L 132.0 110.3 L 132.0 89.9 Z M 158.8 73.7 L 158.8 77.7 L 79.4 77.7 L 79.4 73.7 L 140.61818180084228 73.7 L 148.8 64.7 Z M 170.8 46.9 L 168.5 44.0 L 166.7164542198181 41.942062568664554 L 162.1 43.0 L 152.6 44.9 L 143.2 46.6 L 134.0 48.1 L 124.9 49.4 L 115.9 50.6 L 107.1 51.7 L 98.4 52.7 L 89.8 53.5 L 85.56750812530518 53.90309448242188 L 83.6 57.2 L 81.4 54.3 L 78.8 42.4 L 80.8 42.3 L 89.1 42.2 L 97.6 42.0 L 105.7898720741272 41.71759061813354 L 105.8 41.7 L 107.5 38.2 L 109.2 34.9 L 112.4 28.5 L 115.2 22.1 L 116.6 19.0 L 117.8 15.9 L 118.57077856063843 13.727805900573731 L 118.5 13.7 L 118.77777776718139 13.144444465637207 L 118.9 12.8 L 118.94014873504639 12.819702625274658 L 119.5 11.7 L 129.7 18.1 L 131.5 21.2 L 127.48788986206054 21.545871543884278 L 125.7 24.1 L 123.6 27.0 L 121.3 29.9 L 118.9 32.8 L 116.4 35.6 L 113.8 38.3 L 111.1 41.0 L 110.4884614944458 41.509615421295166 L 115.1 41.3 L 124.1 41.0 L 133.2 40.5 L 142.5 40.1 L 152.0 39.6 L 161.6 39.2 L 164.11479625701904 39.14867763519287 L 163.2 38.2 L 160.3 35.4 L 157.2 32.6 L 153.9 29.8 L 150.5 26.9 L 146.9 24.2 L 147.6 22.6 L 152.1 24.1 L 156.4 25.6 L 160.5 27.5 L 164.5 29.6 L 168.3 31.8 L 171.9 34.3 L 175.3 36.9 L 178.6 39.8 L 181.7 42.7 L 184.6 45.9 L 185.7 50.3 L 183.4 54.3 L 179.0 55.4 L 175.0 53.1 L 173.0 50.0 Z " />
</g>
</svg>
