<svg xmlns="http://www.w3.org/2000/svg" xmlns:xlink="http://www.w3.org/1999/xlink" version="1.1" baseProfile="full" viewBox="0 0 200 200" width="200" height="200">
<g fill="black">
<path d="M 147.0 147.1 L 149.0 147.1 L 147.0 172.1 L 150.6 174.5 L 153.0 178.1 L 150.6 181.7 L 147.0 184.1 L 76.0 184.1 L 73.4 184.0 L 70.9 183.5 L 68.5 182.7 L 66.2 181.5 L 64.2 179.9 L 62.6 177.8 L 61.3 175.6 L 60.5 173.2 L 60.1 170.7 L 60.0 168.1 L 60.0 137.1 L 72.0 139.1 L 75.0 141.1 L 72.0 142.9 L 72.0 169.3 L 72.2 170.3 L 72.4 170.8 L 72.5 171.2 L 72.7 171.4 L 72.9 171.5 L 73.2 171.7 L 73.8 171.9 L 74.7 172.0 L 76.0 172.1 L 141.0 172.1 Z M 15.3 176.3 L 15.0 171.8 L 17.9 168.3 L 20.7 167.0 L 23.3 165.5 L 25.6 163.6 L 27.8 161.3 L 29.8 158.7 L 31.5 155.6 L 33.0 152.0 L 34.3 147.9 L 35.4 143.4 L 36.1 138.3 L 37.9 138.3 L 38.5 143.5 L 39.0 148.4 L 38.8 153.2 L 38.2 157.7 L 37.0 162.0 L 35.3 166.1 L 33.1 169.8 L 30.4 173.3 L 27.1 176.3 L 23.3 179.0 L 18.8 179.3 Z M 170.3 164.4 L 168.8 161.4 L 167.0 158.5 L 164.8 155.5 L 162.3 152.4 L 159.4 149.4 L 156.1 146.3 L 152.5 143.2 L 148.4 140.1 L 149.3 138.5 L 154.1 140.4 L 158.7 142.4 L 163.0 144.6 L 166.9 147.1 L 170.5 149.7 L 173.8 152.6 L 176.8 155.7 L 179.4 159.0 L 181.7 162.5 L 183.6 166.2 L 183.3 170.8 L 180.0 173.9 L 175.4 173.6 L 172.3 170.2 L 171.5 167.3 Z M 108.3 152.9 L 106.5 150.5 L 104.4 148.2 L 102.2 145.8 L 99.7 143.5 L 97.0 141.2 L 94.1 138.9 L 91.0 136.6 L 87.6 134.6 L 88.2 132.9 L 92.2 134.0 L 96.1 135.0 L 99.9 136.3 L 103.4 137.8 L 106.8 139.5 L 110.0 141.4 L 113.1 143.5 L 116.0 145.8 L 118.6 148.3 L 121.1 151.0 L 122.1 155.5 L 119.7 159.4 L 115.2 160.3 L 111.3 157.9 L 109.9 155.4 Z M 121.3 125.9 L 141.3 125.9 L 142.5 125.8 L 143.4 125.6 L 144.3 125.3 L 144.7 124.9 L 144.9 124.6 L 145.0 124.0 L 145.2 123.1 L 145.3 121.9 L 145.3 115.5 L 49.6 115.5 L 49.6 131.1 L 37.6 137.1 L 37.6 77.49930067062378 L 28.4 78.4 L 12.7 78.9 L 12.6 77.1 L 27.9 74.6 L 41.7 71.7 L 54.0 68.4 L 64.8 64.7 L 74.0 60.5 L 81.7 55.9 L 86.9460000038147 51.6 L 52.1 51.6 L 40.1 57.6 L 40.1 39.975 L 34.7 42.0 L 27.8 44.1 L 20.6 45.8 L 12.9 47.1 L 12.4 45.4 L 19.4 42.2 L 26.0 39.1 L 32.1 36.0 L 37.8 32.8 L 40.1 31.411320781707765 L 40.1 27.7 L 43.43684206008911 29.36842107772827 L 47.9 26.3 L 52.2 22.9 L 56.1 19.5 L 59.6 16.0 L 62.5 12.4 L 62.538682270050046 12.433581256866455 L 62.9 12.0 L 71.6 20.3 L 71.85714282989503 21.3 L 117.36000003814698 21.3 L 117.7 21.0 L 119.2 19.7 L 120.4 18.4 L 120.76802577972413 18.909978580474853 L 123.9 16.3 L 134.9 25.3 L 129.9 28.3 L 117.9 33.3 L 117.9 31.70357141494751 L 117.6 31.8 L 114.6 32.7 L 111.4 33.5 L 110.6444444656372 33.7 L 152.4 33.7 L 158.4 28.7 L 169.4 37.7 L 164.4 41.7 L 164.4 51.6 L 152.50769233703613 57.54615383148193 L 154.1 57.9 L 156.5 58.6 L 158.8 59.5 L 160.9 60.5 L 163.1 64.5 L 161.8 68.9 L 158.16363639831542 70.9 L 179.8 70.9 L 183.3 65.9 L 185.3 65.9 L 183.3 70.9 L 185.4 72.3 L 186.8 74.4 L 185.4 76.5 L 183.3 77.9 L 151.6666666984558 77.9 L 162.3 86.6 L 157.3 90.6 L 157.3 121.9 L 157.1 124.4 L 156.7 126.9 L 155.9 129.3 L 154.7 131.6 L 153.0 133.6 L 151.0 135.2 L 148.7 136.5 L 146.3 137.3 L 143.8 137.7 L 141.3 137.9 L 141.3 131.9 L 121.3 128.9 Z M 49.6 101.1 L 49.6 111.5 L 145.3 111.5 L 145.3 101.1 Z M 49.6 86.6 L 49.6 97.1 L 145.3 97.1 L 145.3 86.6 Z M 153.4 69.9 L 152.7 68.9 L 151.6 67.7 L 150.1 66.5 L 148.2 65.2 L 146.0 63.8 L 143.5 62.4 L 140.6 60.9 L 137.4 59.4 L 133.9 57.8 L 130.1 56.5 L 130.4 54.7 L 134.5 55.3 L 138.4 55.5 L 142.1 55.8 L 145.4 56.2 L 148.6 56.7 L 151.4 57.3 L 152.4 57.522222232818606 L 152.4 51.6 L 118.0 51.6 L 118.0 64.4 L 117.8 65.6 L 117.7 66.6 L 117.7 67.4 L 117.8 68.0 L 117.8 68.5 L 118.1 69.0 L 118.6 69.6 L 119.4 70.1 L 120.5 70.5 L 122.0 70.9 L 157.0666666984558 70.9 Z M 52.1 37.7 L 52.1 47.6 L 90.66415090560913 47.6 L 92.4 45.6 L 95.6 40.0 L 96.348837184906 37.7 Z M 108.89375 37.7 L 105.8 45.2 L 104.10985918045044 47.6 L 152.4 47.6 L 152.4 37.7 Z M 66.125 25.3 L 63.0 27.8 L 58.1 31.1 L 53.654838752746585 33.7 L 98.66666669845581 33.7 L 99.3 33.4 L 102.7 31.2 L 105.9 29.3 L 108.8 27.5 L 112.1 25.3 Z M 117.4 77.8 L 115.2 77.4 L 113.1 76.5 L 111.1 75.2 L 109.4 73.5 L 108.1 71.5 L 107.1 69.3 L 106.4 66.9 L 106.0 64.4 L 106.0 51.6 L 101.29295778274536 51.6 L 100.8 52.3 L 94.4 58.4 L 86.7 63.7 L 77.6 68.2 L 67.3 71.8 L 55.6 74.8 L 42.7 77.0 L 39.10409355163574 77.35204677581787 L 49.6 82.6 L 145.3 82.6 L 150.93999996185303 77.9 L 122.0 77.9 L 119.7 78.0 Z " />
</g>
</svg>
