<svg xmlns="http://www.w3.org/2000/svg" xmlns:xlink="http://www.w3.org/1999/xlink" version="1.1" baseProfile="full" viewBox="0 0 200 200" width="200" height="200">
<g fill="black">
<path d="M 73.4 180.0 L 70.9 179.5 L 68.5 178.7 L 66.2 177.5 L 64.2 175.9 L 62.6 173.8 L 61.3 171.6 L 60.5 169.2 L 60.1 166.7 L 60.0 164.1 L 60.0 126.7 L 72.0 128.7 L 75.0 130.7 L 72.0 132.5 L 72.0 165.3 L 72.2 166.3 L 72.4 166.8 L 72.5 167.2 L 72.7 167.4 L 72.9 167.5 L 73.2 167.7 L 73.8 167.9 L 74.7 168.0 L 76.0 168.1 L 141.0 168.1 L 147.0 143.1 L 149.0 143.1 L 147.0 168.1 L 150.6 170.5 L 153.0 174.1 L 150.6 177.7 L 147.0 180.1 L 76.0 180.1 Z M 15.4 172.0 L 14.8 167.5 L 17.5 163.8 L 20.3 162.2 L 22.9 160.3 L 25.3 158.0 L 27.5 155.2 L 29.5 152.0 L 31.3 148.2 L 32.8 143.9 L 34.2 139.1 L 35.3 133.7 L 36.1 127.8 L 37.9 127.8 L 38.7 133.8 L 39.1 139.6 L 39.0 145.0 L 38.3 150.2 L 37.2 155.0 L 35.5 159.6 L 33.3 163.8 L 30.6 167.7 L 27.4 171.1 L 23.6 174.1 L 19.1 174.7 Z M 170.2 157.7 L 168.7 154.3 L 166.8 150.8 L 164.6 147.3 L 162.0 143.9 L 159.1 140.4 L 155.9 137.0 L 152.3 133.4 L 148.3 129.9 L 149.3 128.4 L 154.2 130.6 L 158.9 133.0 L 163.2 135.7 L 167.2 138.7 L 170.8 141.9 L 174.1 145.4 L 177.1 149.0 L 179.7 152.9 L 181.9 157.0 L 183.8 161.3 L 183.3 165.8 L 179.8 168.8 L 175.3 168.3 L 172.3 164.8 L 171.4 161.3 Z M 108.1 144.3 L 106.3 141.5 L 104.2 138.8 L 102.0 136.1 L 99.5 133.5 L 96.8 130.9 L 94.0 128.4 L 90.9 125.8 L 87.5 123.5 L 88.2 121.8 L 92.3 123.1 L 96.3 124.4 L 100.1 126.1 L 103.7 127.9 L 107.1 130.1 L 110.4 132.4 L 113.4 135.0 L 116.3 137.7 L 119.0 140.7 L 121.5 143.9 L 122.2 148.4 L 119.5 152.1 L 115.0 152.7 L 111.3 150.1 L 109.8 147.1 Z M 69.6 43.0 L 70.5 46.5 L 66.75671644210816 45.843283557891844 L 65.0 47.6 L 60.2 52.1 L 55.1 56.4 L 49.8 60.6 L 44.832872009277345 64.1221453666687 L 50.1 65.0 L 53.1 67.0 L 50.1 68.8 L 50.1 116.6 L 38.1 122.6 L 38.1 68.53999996185303 L 32.5 71.9 L 26.2 75.2 L 19.7 78.3 L 12.8 81.0 L 11.9 79.4 L 17.8 75.0 L 23.4 70.7 L 28.9 66.4 L 34.1 62.1 L 39.1 57.8 L 43.9 53.4 L 48.4 49.0 L 52.6 44.5 L 56.7 39.9 L 59.831162738800046 35.92257709503174 L 59.8 35.9 L 60.8 34.7 Z M 185.1 113.7 L 185.1 117.7 L 66.9 117.7 L 66.9 113.7 L 163.1 113.7 L 173.1 103.7 Z M 164.3 90.4 L 161.7 87.1 L 160.04047870635986 85.07169618606568 L 155.7 90.3 L 150.9 95.1 L 145.5 99.1 L 139.7 102.5 L 133.3 105.1 L 132.5 103.5 L 137.5 99.4 L 142.1 95.0 L 146.2 90.4 L 149.8 85.6 L 153.0 80.4 L 154.01751050949096 78.28960790634156 L 152.9 77.1 L 149.5 73.8 L 145.9 70.4 L 142.2 66.9 L 138.2 63.3 L 139.2 61.8 L 144.1 63.9 L 148.9 66.2 L 153.3 68.7 L 157.1882260322571 71.14144430160522 L 158.1 68.9 L 159.9 62.5 L 161.4 55.7 L 162.0569444656372 51.4 L 135.57415733337402 51.4 L 135.8 58.1 L 135.8 66.1 L 135.7 73.4 L 135.4 79.8 L 134.8 85.5 L 134.0 90.5 L 132.9 94.9 L 131.4 98.7 L 129.2 102.0 L 127.6 103.8 L 125.8 105.4 L 123.9 106.8 L 121.9 108.1 L 119.8 109.2 L 117.6 110.0 L 115.3 110.7 L 113.0 111.2 L 110.6 111.5 L 108.2 111.6 L 108.2 105.6 L 94.2 102.6 L 94.2 99.6 L 108.2 99.6 L 109.6 99.5 L 111.1 99.4 L 112.4 99.1 L 113.6 98.7 L 116.0 97.7 L 117.1 97.0 L 118.1 96.1 L 119.2 95.2 L 120.2 94.1 L 120.7 93.3 L 121.5 91.3 L 122.3 88.2 L 122.9 84.0 L 123.4 79.0 L 123.7 73.0 L 123.8 66.1 L 123.8 58.3 L 123.5 49.7 L 123.49956636428833 49.69184732437134 L 123.0 49.9 L 123.0 41.9 L 107.13232326507568 41.9 L 106.8 43.3 L 93.7 46.3 L 98.71754388809204 25.5 L 69.9 25.5 L 69.9 21.5 L 164.01818180084229 21.5 L 172.2 12.5 L 182.2 21.5 L 182.2 25.5 L 111.02525253295899 25.5 L 108.08181819915771 37.9 L 123.0 37.9 L 129.0 32.9 L 140.0 41.9 L 135.26767673492432 44.739393901824954 L 135.40625 47.4 L 162.4 47.4 L 168.4 42.4 L 179.4 51.4 L 174.4 54.4 L 173.25734262466432 54.87610721588135 L 172.5 58.2 L 170.2 65.7 L 167.4 72.7 L 165.12479724884034 76.98273468017578 L 165.4 77.2 L 169.0 80.3 L 172.3 83.5 L 175.5 86.8 L 178.5 90.2 L 179.4 94.7 L 177.0 98.6 L 172.5 99.5 L 168.6 97.1 L 166.6 93.8 Z M 85.7 53.1 L 99.3 53.1 L 105.3 48.1 L 116.3 57.1 L 111.3 61.1 L 111.3 92.6 L 99.3 98.6 L 99.3 88.6 L 85.7 88.6 L 85.7 95.6 L 73.7 101.6 L 73.7 47.1 Z M 85.7 57.1 L 85.7 84.6 L 99.3 84.6 L 99.3 57.1 Z M 62.7 19.3 L 63.6 22.8 L 59.85357007980347 22.07700471878052 L 58.6 23.3 L 54.4 27.1 L 50.0 30.8 L 45.5 34.3 L 40.8 37.6 L 36.0 40.8 L 31.0 43.7 L 25.8 46.5 L 20.4 48.9 L 14.8 51.0 L 13.9 49.4 L 18.5 45.6 L 22.9 42.0 L 27.2 38.3 L 31.4 34.7 L 35.5 31.0 L 39.5 27.2 L 43.3 23.4 L 46.9 19.4 L 50.4 15.4 L 53.122556400299075 12.116917324066161 L 53.1 12.1 L 54.1 10.9 Z " />
</g>
</svg>
