<svg xmlns="http://www.w3.org/2000/svg" xmlns:xlink="http://www.w3.org/1999/xlink" version="1.1" baseProfile="full" viewBox="0 0 200 200" width="200" height="200">
<g fill="black">
<path d="M 73.4 184.4 L 70.9 184.0 L 68.5 183.2 L 66.2 181.9 L 64.2 180.3 L 62.6 178.3 L 61.3 176.0 L 60.5 173.6 L 60.1 171.1 L 60.0 168.6 L 60.0 140.6 L 72.0 142.6 L 75.0 144.6 L 72.0 146.4 L 72.0 169.8 L 72.2 170.7 L 72.5 171.6 L 72.9 172.0 L 73.8 172.3 L 74.7 172.5 L 76.0 172.6 L 141.0 172.6 L 147.0 147.6 L 149.0 147.6 L 147.0 172.6 L 150.6 175.0 L 153.0 178.6 L 150.6 182.2 L 147.0 184.6 L 76.0 184.6 Z M 15.2 176.9 L 15.1 172.4 L 18.1 168.9 L 20.9 167.8 L 23.5 166.4 L 25.8 164.8 L 27.9 162.8 L 29.9 160.4 L 31.6 157.6 L 33.1 154.4 L 34.4 150.7 L 35.5 146.5 L 36.1 141.9 L 37.9 141.8 L 38.5 146.6 L 38.9 151.2 L 38.7 155.7 L 38.1 159.9 L 36.9 163.9 L 35.2 167.7 L 33.0 171.3 L 30.2 174.5 L 26.9 177.3 L 23.2 179.8 L 18.7 180.0 Z M 170.4 166.1 L 168.9 163.4 L 167.1 160.7 L 165.0 157.9 L 162.4 155.1 L 159.5 152.2 L 156.2 149.4 L 152.6 146.4 L 148.5 143.5 L 149.2 141.9 L 154.0 143.6 L 158.6 145.4 L 162.9 147.4 L 166.8 149.6 L 170.4 152.0 L 173.6 154.6 L 176.6 157.4 L 179.2 160.4 L 181.5 163.6 L 183.5 167.1 L 183.3 171.6 L 180.0 174.8 L 175.5 174.7 L 172.3 171.4 L 171.5 168.8 Z M 108.4 155.7 L 106.6 153.4 L 104.6 151.2 L 102.3 149.0 L 99.8 146.8 L 97.1 144.7 L 94.2 142.5 L 91.1 140.3 L 87.6 138.4 L 88.2 136.7 L 92.1 137.7 L 96.0 138.6 L 99.7 139.7 L 103.3 141.0 L 106.7 142.6 L 109.9 144.3 L 112.9 146.2 L 115.7 148.2 L 118.4 150.5 L 120.9 153.0 L 122.0 157.4 L 119.8 161.4 L 115.3 162.5 L 111.4 160.2 L 110.0 157.9 Z M 182.0 79.8 L 182.0 83.8 L 154.42307691574098 83.8 L 151.5 85.7 L 150.1 86.6 L 148.6 87.6 L 145.4 89.6 L 143.7 90.5 L 142.0 91.5 L 140.2 92.5 L 139.1444444656372 93.0 L 161.0 93.0 L 167.0 88.0 L 178.0 97.0 L 173.0 101.0 L 173.0 130.1 L 161.0 136.1 L 161.0 130.1 L 132.0 130.1 L 132.0 137.1 L 120.0 143.1 L 120.0 87.0 L 132.0 93.0 L 134.6125 93.0 L 134.8 92.8 L 135.8 90.8 L 136.8 89.0 L 137.7 87.2 L 138.7 85.5 L 139.55 83.8 L 113.0 83.8 L 113.0 79.8 L 167.7777777671814 79.8 L 174.0 72.8 Z M 88.0 79.8 L 88.0 83.8 L 60.423076915740964 83.8 L 57.5 85.7 L 56.1 86.6 L 54.6 87.6 L 51.4 89.6 L 49.7 90.5 L 48.0 91.5 L 46.2 92.5 L 45.14444446563721 93.0 L 67.0 93.0 L 73.0 88.0 L 84.0 97.0 L 79.0 101.0 L 79.0 130.1 L 67.0 136.1 L 67.0 130.1 L 38.0 130.1 L 26.0 136.1 L 26.0 87.0 L 38.0 93.0 L 40.6125 93.0 L 40.8 92.8 L 41.8 90.8 L 42.8 89.0 L 43.7 87.2 L 44.7 85.5 L 45.55 83.8 L 20.0 83.8 L 20.0 79.8 L 73.77777776718139 79.8 L 80.0 72.8 Z M 106.0 15.0 L 109.0 17.0 L 106.0 18.8 L 106.0 23.0 L 146.0 23.0 L 152.0 18.0 L 163.0 27.0 L 158.0 31.0 L 158.0 36.0 L 171.7777777671814 36.0 L 178.0 29.0 L 186.0 36.0 L 186.0 40.0 L 158.0 40.0 L 158.0 54.0 L 146.0 60.0 L 146.0 54.0 L 106.0 54.0 L 106.0 63.0 L 169.5 63.0 L 174.0 57.0 L 180.0 63.0 L 180.0 67.0 L 106.0 67.0 L 106.0 127.0 L 94.0 133.0 L 94.0 67.0 L 20.0 67.0 L 20.0 63.0 L 94.0 63.0 L 94.0 54.0 L 40.0 54.0 L 40.0 50.0 L 94.0 50.0 L 94.0 40.0 L 14.0 40.0 L 14.0 36.0 L 94.0 36.0 L 94.0 27.0 L 40.0 27.0 L 40.0 23.0 L 94.0 23.0 L 94.0 13.0 Z M 132.0 111.7 L 132.0 126.1 L 161.0 126.1 L 161.0 111.7 Z M 38.0 111.7 L 38.0 126.1 L 67.0 126.1 L 67.0 111.7 Z M 132.0 97.0 L 132.0 107.7 L 161.0 107.7 L 161.0 97.0 Z M 38.0 97.0 L 38.0 107.7 L 67.0 107.7 L 67.0 97.0 Z M 106.0 40.0 L 106.0 50.0 L 146.0 50.0 L 146.0 40.0 Z M 106.0 27.0 L 106.0 36.0 L 146.0 36.0 L 146.0 27.0 Z " />
</g>
</svg>
