<svg xmlns="http://www.w3.org/2000/svg" xmlns:xlink="http://www.w3.org/1999/xlink" version="1.1" baseProfile="full" viewBox="0 0 200 200" width="200" height="200">
<g fill="black">
<path d="M 147.0 148.1 L 149.0 148.1 L 147.0 173.1 L 150.6 175.5 L 153.0 179.1 L 150.6 182.7 L 147.0 185.1 L 76.0 185.1 L 73.4 185.0 L 70.9 184.5 L 68.5 183.7 L 66.2 182.5 L 64.2 180.9 L 62.6 178.8 L 61.3 176.6 L 60.5 174.2 L 60.1 171.7 L 60.0 169.1 L 60.0 144.5 L 72.0 146.5 L 75.0 148.5 L 72.0 150.3 L 72.0 170.3 L 72.2 171.3 L 72.4 171.8 L 72.5 172.2 L 72.7 172.4 L 72.9 172.5 L 73.2 172.7 L 73.8 172.9 L 74.7 173.0 L 76.0 173.1 L 141.0 173.1 Z M 15.2 177.7 L 15.2 173.1 L 18.3 169.8 L 21.2 168.8 L 23.7 167.6 L 26.0 166.1 L 28.1 164.4 L 30.0 162.3 L 31.7 159.9 L 33.2 157.0 L 34.5 153.7 L 35.6 150.0 L 36.1 145.8 L 37.9 145.8 L 38.4 150.1 L 38.8 154.3 L 38.7 158.4 L 38.0 162.3 L 36.8 166.1 L 35.1 169.6 L 32.8 172.9 L 30.0 175.9 L 26.8 178.5 L 23.1 180.8 L 18.5 180.8 Z M 170.5 168.1 L 169.1 165.7 L 167.3 163.2 L 165.1 160.6 L 162.6 158.0 L 159.6 155.4 L 156.3 152.7 L 152.6 149.9 L 148.5 147.3 L 149.2 145.7 L 154.0 147.2 L 158.5 148.7 L 162.7 150.5 L 166.6 152.4 L 170.2 154.5 L 173.4 156.8 L 176.4 159.3 L 179.0 162.0 L 181.3 164.9 L 183.3 168.1 L 183.3 172.6 L 180.1 175.9 L 175.6 175.9 L 172.3 172.8 L 171.5 170.5 Z M 108.5 158.7 L 106.7 156.6 L 104.7 154.6 L 102.4 152.5 L 100.0 150.5 L 97.2 148.5 L 94.3 146.5 L 91.1 144.4 L 87.6 142.7 L 88.2 140.9 L 92.1 141.8 L 96.0 142.5 L 99.6 143.5 L 103.1 144.6 L 106.5 145.9 L 109.6 147.4 L 112.6 149.1 L 115.5 150.9 L 118.2 153.0 L 120.6 155.1 L 121.9 159.5 L 119.9 163.6 L 115.5 164.9 L 111.4 162.8 L 110.1 160.8 Z M 78.8 119.7 L 78.41836738586426 120.8 L 124.0 120.8 L 124.0 106.6 L 136.0 108.6 L 139.0 110.6 L 136.0 112.4 L 136.0 120.8 L 163.0 120.8 L 173.0 110.8 L 185.0 120.8 L 185.0 124.8 L 136.0 124.8 L 136.0 140.1 L 124.0 146.1 L 124.0 124.8 L 76.98636360168457 124.8 L 74.6 129.0 L 71.2 132.9 L 67.2 136.2 L 62.7 138.9 L 57.5 141.1 L 51.8 142.9 L 45.5 144.2 L 38.6 144.9 L 31.1 145.2 L 30.8 143.4 L 37.9 141.3 L 44.1 139.0 L 49.6 136.7 L 54.3 134.3 L 58.2 131.7 L 61.4 129.0 L 63.7 126.2 L 64.55 124.8 L 16.0 124.8 L 16.0 120.8 L 66.38620691299438 120.8 L 66.5 120.5 L 67.0 117.91666669845581 L 67.0 106.6 L 79.0 108.6 L 82.0 110.6 L 79.0 112.4 L 79.0 118.5 L 78.26952142715454 119.5957179069519 Z M 122.1 96.3 L 141.3 96.3 L 142.2 96.1 L 143.1 95.8 L 143.5 95.4 L 143.7 95.1 L 143.8 94.5 L 144.0 93.6 L 144.1 92.3 L 144.1 86.9 L 58.8 86.9 L 58.8 101.5 L 46.8 107.5 L 46.8 49.3 L 58.8 55.3 L 144.1 55.3 L 150.1 50.3 L 161.1 59.3 L 156.1 63.3 L 156.1 92.3 L 155.9 94.9 L 155.5 97.4 L 154.7 99.8 L 153.5 102.1 L 151.8 104.1 L 149.8 105.7 L 147.5 107.0 L 145.1 107.8 L 142.6 108.2 L 140.1 108.3 L 140.1 102.3 L 122.1 99.3 Z M 58.8 73.1 L 58.8 82.9 L 144.1 82.9 L 144.1 73.1 Z M 58.8 59.3 L 58.8 69.1 L 144.1 69.1 L 144.1 59.3 Z M 70.5 41.0 L 69.7 39.6 L 68.6 38.0 L 67.2 36.5 L 65.6 34.8 L 63.8 33.1 L 61.7 31.3 L 59.3 29.5 L 56.6 28.0 L 57.16470584869385 26.4 L 28.0 26.4 L 28.0 22.4 L 96.0 22.4 L 96.0 11.8 L 108.0 13.8 L 111.0 15.8 L 108.0 17.6 L 108.0 22.4 L 154.0 22.4 L 164.0 12.4 L 176.0 22.4 L 176.0 26.4 L 139.51724138259888 26.4 L 145.6 32.7 L 146.3 36.2 L 141.8506072998047 35.16710529327393 L 141.8 35.2 L 139.6 36.5 L 137.2 37.9 L 134.6 39.3 L 131.8 40.8 L 128.8 42.3 L 125.5 43.9 L 123.75 44.7 L 172.7777777671814 44.7 L 179.0 37.7 L 187.0 44.7 L 187.0 48.7 L 17.0 48.7 L 17.0 44.7 L 73.15 44.7 L 71.3 43.4 L 71.0 42.3 Z M 60.2 27.3 L 63.3 27.9 L 66.2 28.6 L 68.8 29.4 L 71.3 30.4 L 73.7 31.4 L 75.9 32.6 L 77.9 33.9 L 79.8 35.4 L 81.5 37.1 L 82.2 41.6 L 79.93783779144287 44.7 L 118.8307692527771 44.7 L 120.5 43.3 L 123.1 40.5 L 125.6 38.0 L 127.9 35.6 L 129.9 33.3 L 131.8 31.2 L 133.4 29.3 L 134.9 27.5 L 135.61176471710206 26.4 L 57.5 26.4 Z " />
</g>
</svg>
