<svg xmlns="http://www.w3.org/2000/svg" xmlns:xlink="http://www.w3.org/1999/xlink" version="1.1" baseProfile="full" viewBox="0 0 200 200" width="200" height="200">
<g fill="black">
<path d="M 73.4 184.1 L 70.9 183.6 L 68.5 182.8 L 66.2 181.6 L 64.2 179.9 L 62.6 177.9 L 61.3 175.7 L 60.5 173.2 L 60.1 170.8 L 60.0 168.2 L 60.0 133.1 L 72.0 135.1 L 75.0 137.1 L 72.0 138.9 L 72.0 169.4 L 72.2 170.3 L 72.4 170.9 L 72.5 171.3 L 72.7 171.4 L 72.9 171.6 L 73.2 171.8 L 73.8 172.0 L 74.7 172.1 L 76.0 172.2 L 141.0 172.2 L 147.0 147.2 L 149.0 147.2 L 147.0 172.2 L 150.6 174.6 L 153.0 178.2 L 150.6 181.8 L 147.0 184.2 L 76.0 184.2 Z M 15.3 176.2 L 14.8 171.7 L 17.6 168.0 L 20.5 166.6 L 23.0 164.8 L 25.4 162.7 L 27.6 160.1 L 29.6 157.0 L 31.4 153.5 L 32.9 149.4 L 34.2 144.9 L 35.3 139.8 L 36.1 134.2 L 37.9 134.2 L 38.6 139.9 L 39.1 145.4 L 38.9 150.6 L 38.3 155.5 L 37.1 160.2 L 35.4 164.6 L 33.3 168.6 L 30.5 172.3 L 27.3 175.6 L 23.5 178.5 L 19.0 179.0 Z M 170.2 162.8 L 168.7 159.5 L 166.9 156.2 L 164.7 152.9 L 162.1 149.6 L 159.2 146.3 L 155.9 143.0 L 152.4 139.6 L 148.4 136.2 L 149.3 134.7 L 154.2 136.8 L 158.8 139.0 L 163.1 141.6 L 167.1 144.4 L 170.7 147.4 L 174.0 150.6 L 177.0 154.1 L 179.6 157.8 L 181.8 161.6 L 183.7 165.7 L 183.3 170.3 L 179.9 173.3 L 175.3 172.8 L 172.3 169.4 L 171.4 166.1 Z M 108.2 150.0 L 106.3 147.4 L 104.3 144.8 L 102.1 142.2 L 99.6 139.7 L 96.9 137.3 L 94.0 134.8 L 90.9 132.3 L 87.5 130.1 L 88.2 128.5 L 96.2 130.9 L 100.0 132.4 L 103.6 134.1 L 107.0 136.1 L 110.3 138.3 L 113.3 140.7 L 116.2 143.3 L 118.9 146.1 L 121.4 149.1 L 122.1 153.6 L 119.6 157.4 L 115.0 158.1 L 111.3 155.5 L 109.8 152.7 Z M 159.3 122.7 L 150.1 119.0 L 141.6 114.7 L 135.22574939727784 110.80922365188599 L 126.7 114.8 L 116.4 118.7 L 105.3 122.0 L 93.2 124.7 L 80.1 126.8 L 79.8 125.1 L 92.2 121.1 L 103.6 116.9 L 114.0 112.6 L 123.4 107.9 L 127.76412076950074 105.35426292419433 L 126.9 104.7 L 120.7 98.9 L 115.4 92.6 L 111.0 85.9 L 108.01643838882447 79.3 L 94.0 79.3 L 94.0 47.7 L 18.0 47.7 L 18.0 43.7 L 94.0 43.7 L 94.0 26.8 L 58.69230766296387 26.8 L 56.6 28.4 L 53.0 30.9 L 49.2 33.2 L 45.1 35.5 L 40.8 37.6 L 36.2 39.5 L 31.4 41.2 L 26.3 42.8 L 25.6 41.1 L 29.9 38.2 L 33.8 35.1 L 37.6 32.3 L 41.1 29.4 L 44.4 26.6 L 47.4 23.8 L 50.1 21.0 L 52.6 18.2 L 54.7 15.4 L 56.07299270629883 13.448905086517334 L 56.0 13.4 L 57.1 12.1 L 66.0 20.1 L 66.84857139587402 22.8 L 148.0 22.8 L 158.0 12.8 L 170.0 22.8 L 170.0 26.8 L 106.0 26.8 L 106.0 43.7 L 161.0 43.7 L 171.0 33.7 L 183.0 43.7 L 183.0 47.7 L 106.0 47.7 L 106.0 69.7 L 94.8 75.3 L 158.0 75.3 L 158.2970296859741 75.05247526168823 L 158.6 74.5 L 158.821125125885 74.61572904586792 L 164.0 70.3 L 175.0 79.3 L 170.0 82.3 L 166.95490198135377 83.56879081726075 L 164.5 87.2 L 158.8 93.9 L 152.1 99.9 L 145.0741506576538 105.0522894859314 L 146.2 105.6 L 154.2 108.8 L 162.9 111.5 L 172.2 113.9 L 182.2 115.8 L 191.5 117.6 L 179.7 128.7 L 169.1 126.0 Z M 81.0 70.9 L 84.0 72.9 L 81.0 74.7 L 81.0 93.3 L 80.63846416473389 95.1679349899292 L 89.8 94.3 L 99.8 93.6 L 100.1 95.4 L 90.5 98.1 L 81.2 100.4 L 79.14093055725098 100.8913688659668 L 77.1 105.2 L 73.0 110.0 L 67.8 114.1 L 61.4 117.5 L 54.0 120.4 L 45.5 122.8 L 35.9 124.7 L 25.1 126.0 L 13.1 126.8 L 12.8 125.0 L 24.4 122.3 L 34.7 119.5 L 43.6 116.5 L 51.2 113.3 L 57.5 110.0 L 62.3 106.6 L 64.470370388031 104.36579523086547 L 63.9 104.5 L 55.9 106.2 L 48.2 107.9 L 41.0 109.4 L 34.2 110.8 L 27.8 112.1 L 25.82380952835083 112.49523811340332 L 24.2 115.9 L 21.8 113.3 L 18.1 101.7 L 20.1 101.4 L 26.1 100.8 L 30.0 100.43999996185303 L 30.0 73.8 L 42.0 75.8 L 45.0 77.8 L 42.0 79.6 L 42.0 99.22602739334107 L 46.8 98.7 L 54.5 97.8 L 62.7 97.0 L 68.8145390510559 96.36010637283326 L 69.0 93.3 L 69.0 68.9 Z M 110.65964908599854 79.3 L 114.4 83.4 L 119.8 88.7 L 125.6 93.6 L 131.9 98.0 L 135.744105052948 100.22846670150757 L 139.2 97.8 L 145.5 92.4 L 150.9 86.7 L 155.2 80.7 L 155.96774196624756 79.3 Z " />
</g>
</svg>
