<svg xmlns="http://www.w3.org/2000/svg" xmlns:xlink="http://www.w3.org/1999/xlink" version="1.1" baseProfile="full" viewBox="0 0 200 200" width="200" height="200">
<g fill="black">
<path d="M 147.0 146.0 L 149.0 146.0 L 147.0 171.0 L 150.6 173.4 L 153.0 177.0 L 150.6 180.6 L 147.0 183.0 L 76.0 183.0 L 73.4 182.9 L 70.9 182.5 L 68.5 181.6 L 66.2 180.4 L 64.2 178.8 L 62.6 176.8 L 61.3 174.5 L 60.5 172.1 L 60.1 169.6 L 60.0 167.0 L 60.0 127.3 L 72.0 129.3 L 75.0 131.3 L 72.0 133.1 L 72.0 168.3 L 72.2 169.2 L 72.5 170.1 L 72.7 170.3 L 72.9 170.4 L 73.2 170.6 L 73.8 170.8 L 74.7 171.0 L 141.0 171.0 Z M 15.4 174.8 L 14.7 170.3 L 17.3 166.5 L 20.2 164.9 L 22.8 162.8 L 25.2 160.4 L 27.4 157.4 L 29.5 153.9 L 31.2 149.9 L 32.8 145.3 L 34.1 140.2 L 35.2 134.6 L 36.1 128.4 L 37.9 128.3 L 38.8 134.7 L 39.2 140.7 L 39.0 146.4 L 38.4 151.8 L 37.2 156.9 L 35.6 161.6 L 33.4 166.0 L 30.7 170.0 L 27.4 173.6 L 23.7 176.7 L 19.1 177.4 Z M 170.2 159.7 L 168.6 156.0 L 166.7 152.4 L 164.5 148.8 L 161.9 145.2 L 159.0 141.6 L 155.8 138.0 L 152.2 134.3 L 148.3 130.6 L 149.3 129.1 L 154.3 131.4 L 159.0 134.0 L 163.3 136.9 L 167.3 140.1 L 170.9 143.5 L 174.2 147.1 L 177.2 151.0 L 179.8 155.1 L 182.0 159.4 L 183.9 163.9 L 183.3 168.4 L 179.8 171.3 L 175.3 170.8 L 172.3 167.2 L 171.4 163.5 Z M 108.1 145.5 L 106.2 142.6 L 104.2 139.7 L 101.9 137.0 L 99.4 134.2 L 96.8 131.6 L 93.9 128.9 L 90.8 126.3 L 87.5 123.8 L 88.2 122.2 L 92.3 123.6 L 96.3 125.0 L 100.1 126.8 L 103.8 128.8 L 107.2 131.0 L 110.5 133.5 L 113.6 136.2 L 116.5 139.2 L 119.2 142.3 L 121.7 145.7 L 122.2 150.2 L 119.4 153.8 L 114.9 154.4 L 111.3 151.6 L 109.8 148.5 Z M 73.8 108.6 L 72.8 106.8 L 71.5 104.8 L 69.9 102.8 L 68.1 100.8 L 66.1 98.7 L 63.8 96.5 L 61.4 94.3 L 58.5 92.4 L 58.835999965667725 91.63199996948242 L 50.5 95.8 L 50.5 58.7 L 62.5 64.7 L 137.5 64.7 L 143.5 59.7 L 154.5 68.7 L 149.5 72.7 L 149.5 89.8 L 137.5 95.8 L 137.5 89.8 L 131.85909090042114 89.8 L 139.5 98.0 L 140.2 101.5 L 136.19384937286378 100.51603317260742 L 134.3 101.9 L 131.7 103.9 L 129.1 105.8 L 126.4 107.7 L 121.0 111.3 L 118.2 113.0 L 116.93125 113.7 L 160.0 113.7 L 170.0 103.7 L 182.0 113.7 L 182.0 117.7 L 18.0 117.7 L 18.0 113.7 L 77.18214282989501 113.7 L 75.2 112.2 L 74.7 110.5 Z M 62.5 89.8 L 59.96206893920898 91.0689655303955 L 62.6 92.0 L 65.9 93.0 L 69.0 94.2 L 71.9 95.5 L 74.7 97.0 L 77.3 98.6 L 79.7 100.3 L 81.9 102.2 L 83.9 104.2 L 85.7 106.4 L 86.2 110.9 L 84.08108110427857 113.7 L 112.48333330154419 113.7 L 113.4 112.6 L 115.3 109.8 L 117.2 107.2 L 119.2 104.6 L 121.1 102.1 L 123.1 99.5 L 127.1 94.5 L 129.0 92.0 L 130.38341970443724 90.27072534561157 L 130.3 90.2 L 130.7 89.8 Z M 62.5 68.7 L 62.5 85.8 L 137.5 85.8 L 137.5 68.7 Z M 158.8 60.6 L 149.3 56.0 L 142.0 51.80459766387939 L 142.0 55.4 L 58.0 55.4 L 58.0 53.60222225189209 L 53.7 55.8 L 44.2 60.0 L 34.2 63.8 L 23.5 67.0 L 12.2 69.7 L 11.7 68.0 L 22.2 63.4 L 32.1 58.8 L 41.5 54.1 L 50.2 49.1 L 53.04213705062866 47.28813762664795 L 49.7 46.2 L 48.2 44.4 L 46.5 42.6 L 44.6 40.8 L 42.6 39.0 L 40.4 37.2 L 38.0 35.5 L 35.4 33.7 L 32.7 32.0 L 29.8 30.1 L 26.7 28.7 L 27.2 27.0 L 30.7 27.6 L 34.2 28.1 L 37.5 28.7 L 40.8 29.5 L 43.9 30.5 L 46.9 31.6 L 49.8 32.8 L 52.5 34.1 L 55.2 35.6 L 57.7 37.2 L 59.6 41.4 L 58.92296476364136 43.47946538925171 L 65.7 38.6 L 72.5 33.0 L 78.7 27.2 L 84.3 21.1 L 84.69516124725342 20.6 L 33.0 20.6 L 33.0 16.6 L 87.85645160675048 16.6 L 89.2 14.9 L 89.63416757583619 15.238193702697753 L 94.0 11.6 L 105.0 20.6 L 100.0 23.6 L 95.93182754516602 25.29507188796997 L 92.6 28.9 L 86.0 35.0 L 78.8 40.8 L 71.0 46.2 L 62.7 51.2 L 62.30869569778442 51.4 L 123.81818180084228 51.4 L 130.62894926071166 43.90815572738647 L 125.6 39.8 L 119.4 33.6 L 114.1 27.0 L 109.8 20.1 L 106.6 12.7 L 108.2 11.8 L 113.2 17.7 L 118.6 23.2 L 124.4 28.4 L 130.8 33.2 L 131.24204778671265 33.486397171020506 L 131.7 33.1 L 134.6 30.2 L 137.3 27.6 L 139.9 25.1 L 142.3 22.8 L 148.4 16.7 L 150.0 14.9 L 150.7426562309265 14.051249980926514 L 150.6 13.9 L 151.5 13.2 L 158.9 22.7 L 159.2 26.3 L 155.13687000274658 24.71989393234253 L 154.6 25.0 L 152.2 26.3 L 149.6 27.6 L 146.7 29.0 L 143.7 30.6 L 140.4 32.1 L 137.0 33.7 L 133.70991678237914 35.08529815673828 L 137.9 37.8 L 145.7 42.1 L 148.07601203918458 43.203148460388185 L 151.5 40.5 L 155.1 37.8 L 158.4 35.3 L 161.5 32.9 L 164.3 30.8 L 166.9 28.8 L 169.1 26.9 L 171.1 25.2 L 172.09504585266114 24.322018337249755 L 172.0 24.2 L 172.10398550033568 24.31413040161133 L 172.8 23.7 L 176.1 28.7 L 180.2 33.2 L 180.3 36.7 L 176.36359100341798 35.053865337371825 L 174.6 35.8 L 171.9 37.1 L 168.8 38.4 L 165.5 39.8 L 161.8 41.3 L 157.9 42.9 L 153.7 44.5 L 152.12383613586425 45.082495307922365 L 154.1 46.0 L 163.3 49.6 L 173.2 52.9 L 183.8 55.9 L 191.8 58.2 L 180.1 68.6 L 169.1 64.8 Z " />
</g>
</svg>
