<svg xmlns="http://www.w3.org/2000/svg" xmlns:xlink="http://www.w3.org/1999/xlink" version="1.1" baseProfile="full" viewBox="0 0 200 200" width="200" height="200">
<g fill="black">
<path d="M 73.4 178.7 L 70.9 178.3 L 68.5 177.5 L 66.2 176.3 L 64.2 174.6 L 62.6 172.6 L 61.3 170.3 L 60.5 167.9 L 60.1 165.4 L 60.0 162.9 L 60.0 125.0 L 72.0 127.0 L 75.0 129.0 L 72.0 130.8 L 72.0 164.1 L 72.2 165.0 L 72.5 165.9 L 72.9 166.3 L 73.2 166.5 L 73.8 166.6 L 74.7 166.8 L 76.0 166.9 L 141.0 166.9 L 147.0 141.9 L 149.0 141.9 L 147.0 166.9 L 150.6 169.3 L 153.0 172.9 L 150.6 176.5 L 147.0 178.9 L 76.0 178.9 Z M 15.4 170.7 L 14.8 166.2 L 17.4 162.5 L 20.3 160.9 L 22.9 159.0 L 25.3 156.7 L 27.5 153.8 L 29.5 150.5 L 31.3 146.7 L 32.8 142.3 L 34.1 137.4 L 35.3 132.0 L 36.1 126.1 L 37.9 126.0 L 38.7 132.1 L 39.1 137.9 L 39.0 143.4 L 38.3 148.6 L 37.2 153.6 L 35.5 158.1 L 33.3 162.4 L 30.6 166.3 L 27.4 169.8 L 23.6 172.8 L 19.1 173.4 Z M 170.2 156.3 L 168.6 152.8 L 166.8 149.2 L 164.6 145.8 L 162.0 142.3 L 159.1 138.8 L 155.8 135.3 L 152.3 131.7 L 148.3 128.2 L 149.3 126.6 L 154.2 128.9 L 158.9 131.3 L 163.2 134.1 L 167.2 137.1 L 170.8 140.4 L 174.1 143.9 L 177.1 147.6 L 179.7 151.5 L 181.9 155.6 L 183.8 160.0 L 183.3 164.5 L 179.8 167.5 L 175.3 167.0 L 172.3 163.5 L 171.4 159.9 Z M 108.1 142.7 L 106.3 139.8 L 104.2 137.1 L 102.0 134.4 L 99.5 131.8 L 96.8 129.2 L 93.9 126.6 L 90.9 124.0 L 87.5 121.7 L 88.2 120.0 L 92.3 121.3 L 96.3 122.7 L 100.1 124.3 L 103.7 126.2 L 107.1 128.4 L 110.4 130.8 L 113.5 133.4 L 116.4 136.2 L 119.1 139.2 L 121.6 142.4 L 122.2 146.9 L 119.5 150.6 L 115.0 151.2 L 111.3 148.5 L 109.8 145.6 Z M 55.15833330154419 24.2 L 155.0 24.2 L 161.0 19.2 L 172.0 28.2 L 167.0 31.2 L 165.74817867279052 31.721592235565186 L 164.08415842056274 61.6 L 168.0 61.6 L 178.0 51.6 L 190.0 61.6 L 190.0 65.6 L 163.86138610839845 65.6 L 161.5 108.0 L 149.2 113.2 L 149.82896547317506 103.6 L 47.7800971031189 103.6 L 47.4 107.2 L 34.8 112.0 L 39.71525421142578 65.6 L 12.0 65.6 L 12.0 61.6 L 40.13898305892944 61.6 L 44.8 17.6 Z M 51.79223299026489 65.6 L 48.20242719650268 99.6 L 93.08567638397217 99.6 L 96.24217510223389 65.6 Z M 108.34217510223388 65.6 L 105.18567638397217 99.6 L 150.09103450775146 99.6 L 152.3186206817627 65.6 Z M 55.74101943969727 28.2 L 52.214563083648684 61.6 L 96.61352787017822 61.6 L 99.71432361602783 28.2 Z M 111.81432361602783 28.2 L 108.71352787017823 61.6 L 152.58068962097167 61.6 L 154.76896553039552 28.2 Z " />
</g>
</svg>
