<svg xmlns="http://www.w3.org/2000/svg" xmlns:xlink="http://www.w3.org/1999/xlink" version="1.1" baseProfile="full" viewBox="0 0 200 200" width="200" height="200">
<g fill="black">
<path d="M 75.4 184.0 L 72.9 183.6 L 70.5 182.8 L 68.2 181.5 L 66.2 179.9 L 64.6 177.9 L 63.3 175.6 L 62.5 173.2 L 62.1 170.7 L 62.0 168.2 L 62.0 135.1 L 74.0 137.1 L 77.0 139.1 L 74.0 140.9 L 74.0 169.4 L 74.2 170.3 L 74.5 171.2 L 74.9 171.6 L 75.8 171.9 L 76.7 172.1 L 78.0 172.2 L 143.0 172.2 L 149.0 147.2 L 151.0 147.2 L 149.0 172.2 L 152.6 174.6 L 155.0 178.2 L 152.6 181.7 L 149.0 184.2 L 78.0 184.2 Z M 17.3 176.3 L 16.9 171.7 L 19.8 168.1 L 22.6 166.8 L 25.2 165.1 L 27.5 163.1 L 29.7 160.7 L 31.7 157.9 L 33.4 154.5 L 35.0 150.7 L 36.3 146.4 L 37.4 141.6 L 38.1 136.3 L 39.9 136.2 L 40.6 141.7 L 41.0 146.9 L 40.9 151.9 L 40.2 156.6 L 39.1 161.1 L 37.4 165.3 L 35.2 169.2 L 32.4 172.8 L 29.2 176.0 L 25.4 178.7 L 20.9 179.1 Z M 172.3 163.6 L 170.8 160.4 L 168.9 157.3 L 166.7 154.2 L 164.2 151.0 L 161.3 147.9 L 158.0 144.7 L 154.4 141.4 L 150.4 138.2 L 151.3 136.6 L 156.1 138.6 L 160.8 140.7 L 165.1 143.1 L 169.0 145.7 L 172.6 148.6 L 175.9 151.6 L 178.9 154.9 L 181.5 158.4 L 183.8 162.1 L 185.7 166.0 L 185.3 170.5 L 181.9 173.6 L 177.4 173.2 L 174.3 169.8 L 173.4 166.7 Z M 110.2 151.5 L 108.4 149.0 L 106.4 146.5 L 104.1 144.0 L 101.7 141.6 L 99.0 139.2 L 96.1 136.9 L 93.0 134.5 L 89.5 132.3 L 90.2 130.7 L 98.2 132.9 L 101.9 134.3 L 105.5 136.0 L 108.9 137.8 L 112.1 139.9 L 115.2 142.1 L 118.1 144.6 L 120.8 147.2 L 123.3 150.1 L 124.1 154.5 L 121.6 158.4 L 117.1 159.2 L 113.3 156.7 L 111.9 154.1 Z M 75.5 74.7 L 75.05014839172364 73.46290798187256 L 73.6 74.0 L 68.0 75.8 L 62.3 77.3 L 59.9 77.87931032180786 L 59.9 124.6 L 47.9 130.6 L 47.9 80.52203388214112 L 44.8 81.1 L 38.8 82.2 L 32.7 83.2 L 24.590873050689698 84.39642858505249 L 22.7 87.8 L 20.5 85.0 L 17.5 73.2 L 19.5 73.0 L 25.6 72.8 L 31.6 72.5 L 35.378672409057614 72.31416368484497 L 36.3 71.2 L 40.6 66.1 L 44.9 61.1 L 49.3 56.1 L 57.7 46.3 L 61.8 41.4 L 69.8 31.6 L 73.04012680053711 27.529071426391603 L 73.0 27.5 L 73.48028173446656 26.976056385040284 L 73.7 26.7 L 73.7185619354248 26.716114234924316 L 74.1 26.3 L 82.8 34.6 L 83.7 38.0 L 80.09296875 37.3671875 L 78.3 39.2 L 73.8 43.7 L 69.1 48.3 L 64.4 52.7 L 59.6 57.2 L 54.6 61.5 L 49.5 65.8 L 44.3 70.0 L 41.597543239593506 72.00181980133057 L 43.6 71.9 L 49.6 71.5 L 55.4 71.2 L 61.3 70.8 L 67.1 70.5 L 72.9 70.3 L 73.59347829818725 70.28804349899292 L 72.4 68.1 L 71.0 65.8 L 69.4 63.6 L 67.7 61.4 L 65.7 59.0 L 63.3 57.1 L 64.3 55.6 L 67.1 57.0 L 70.1 58.2 L 72.9 59.6 L 75.5 61.2 L 78.0 63.1 L 80.3 65.1 L 82.5 67.2 L 84.5 69.6 L 86.3 72.1 L 87.9 74.8 L 87.8 79.3 L 84.5 82.5 L 80.0 82.4 L 76.7 79.2 L 76.2 76.9 Z M 143.8 123.8 L 138.6 121.0 L 133.1 118.3 L 127.4 115.7 L 121.3 113.1 L 114.9 110.7 L 108.3 108.3 L 101.3 105.9 L 94.1 103.4 L 94.5 101.7 L 102.1 102.2 L 109.6 103.1 L 116.7 104.4 L 123.6 105.9 L 130.2 107.7 L 136.6 109.6 L 142.7 111.8 L 148.6 114.2 L 154.2 116.8 L 159.5 119.6 L 162.1 123.4 L 161.4 127.9 L 157.7 130.5 L 153.2 129.8 L 148.6 126.8 Z M 41.4 90.4 L 44.0 92.8 L 40.25195264816284 94.32698221206665 L 38.9 97.9 L 37.2 101.6 L 35.3 105.2 L 33.1 108.6 L 30.6 112.0 L 27.9 115.2 L 24.9 118.4 L 21.5 121.3 L 18.1 124.3 L 16.8 123.0 L 19.2 119.3 L 21.2 115.6 L 23.0 111.9 L 24.6 108.4 L 26.0 104.9 L 27.2 101.5 L 28.1 98.2 L 28.8 94.9 L 29.3 91.6 L 29.50542631149292 89.40878553390503 L 29.4 89.4 L 29.9 86.5 Z M 155.3 81.2 L 146.6 76.8 L 138.7 71.9 L 133.14667730331422 67.69534139633178 L 129.7 70.1 L 120.4 75.6 L 110.5 80.7 L 99.9 85.2 L 88.5 89.2 L 77.12870988845825 92.42186555862426 L 78.2 93.4 L 80.4 95.6 L 82.5 98.0 L 84.3 100.6 L 86.0 103.4 L 87.5 106.3 L 87.0 110.9 L 83.6 113.9 L 79.0 113.4 L 76.0 110.0 L 75.6 107.5 L 75.0 105.1 L 74.3 102.7 L 72.3 97.9 L 71.0 95.6 L 69.6 93.2 L 68.0 90.9 L 66.2 88.5 L 64.0 86.4 L 65.0 84.9 L 67.8 86.4 L 70.7 87.8 L 73.4 89.5 L 75.9 91.3 L 76.10830192565918 91.49018869400024 L 75.9 90.9 L 87.1 85.7 L 97.6 80.3 L 107.4 74.8 L 116.5 69.1 L 124.9 63.2 L 126.5783257484436 61.80875635147095 L 125.5 60.8 L 120.3 54.7 L 116.0 48.1 L 112.9 41.1 L 112.59319267272949 39.98015336990356 L 109.0 43.9 L 104.3 48.3 L 99.2 52.5 L 93.7 56.3 L 87.7 59.7 L 81.4 62.6 L 80.5 61.0 L 85.6 56.5 L 90.3 52.1 L 94.8 47.6 L 98.9 43.0 L 102.6 38.3 L 106.0 33.5 L 109.0 28.5 L 111.6 23.4 L 113.9 18.2 L 115.53295450210571 13.709375 L 115.5 13.7 L 116.4 11.3 L 127.1 17.0 L 129.2 19.9 L 125.31214952468872 20.637350940704344 L 124.2 22.9 L 121.0 28.6 L 119.73333330154419 30.5 L 154.8 30.5 L 155.07487688064575 30.270935916900633 L 155.7 29.3 L 156.00469274520873 29.496089363098143 L 160.8 25.5 L 171.8 34.5 L 166.8 37.5 L 163.476340675354 38.88485803604126 L 160.0 43.5 L 153.5 50.9 L 146.2 57.7 L 141.4117112159729 61.579119968414304 L 144.1 63.2 L 151.6 66.9 L 159.9 70.3 L 168.9 73.4 L 178.7 76.1 L 186.8 78.3 L 175.2 88.8 L 164.8 85.2 Z M 133.1 96.1 L 131.1 94.2 L 128.9 92.4 L 126.5 90.6 L 123.9 88.8 L 121.0 87.1 L 118.0 85.3 L 114.7 83.6 L 111.2 82.2 L 111.6 80.4 L 115.5 80.9 L 119.3 81.3 L 123.0 81.9 L 126.5 82.7 L 129.9 83.7 L 133.1 84.8 L 136.2 86.2 L 139.2 87.7 L 142.1 89.4 L 144.7 91.3 L 146.5 95.5 L 144.9 99.8 L 140.7 101.6 L 136.4 99.9 L 134.8 98.0 Z M 34.9 51.1 L 33.7 49.1 L 32.3 47.2 L 30.6 45.1 L 28.6 43.1 L 26.4 41.1 L 23.9 39.0 L 21.2 36.9 L 18.0 35.1 L 18.7 33.4 L 22.3 34.5 L 25.8 35.3 L 29.1 36.4 L 32.2 37.7 L 34.15749998092652 38.644999980926514 L 34.9 37.7 L 36.8 34.6 L 38.8 31.6 L 42.6 25.8 L 44.5 23.0 L 46.3 20.2 L 48.1 17.3 L 49.8 14.5 L 50.96902656555176 12.643310737609863 L 50.9 12.6 L 51.38474578857422 11.98305082321167 L 51.5 11.8 L 51.51797752380371 11.813483142852784 L 52.0 11.2 L 61.1 19.0 L 62.2 22.4 L 58.19416341781616 21.98560314178467 L 53.7 26.3 L 51.1 28.7 L 48.5 31.0 L 45.7 33.3 L 42.9 35.5 L 40.0 37.6 L 36.9 39.7 L 36.56920156478882 39.93954372406006 L 37.9 40.7 L 40.4 42.5 L 42.8 44.4 L 45.0 46.6 L 47.0 48.9 L 47.5 53.5 L 44.7 57.1 L 40.2 57.6 L 36.5 54.9 L 35.8 53.0 Z M 117.00784311294555 34.5 L 115.09369373321533 36.94054050445557 L 116.6 39.2 L 120.9 44.7 L 125.8 49.9 L 131.2 54.7 L 133.258891582489 56.18510208129883 L 139.4 50.4 L 145.5 43.6 L 151.0 36.6 L 152.35205478668212 34.5 Z " />
</g>
</svg>
