<svg xmlns="http://www.w3.org/2000/svg" xmlns:xlink="http://www.w3.org/1999/xlink" version="1.1" baseProfile="full" viewBox="0 0 200 200" width="200" height="200">
<g fill="black">
<path d="M 73.4 183.1 L 70.9 182.7 L 68.5 181.9 L 66.2 180.7 L 64.2 179.0 L 62.6 177.0 L 61.3 174.7 L 60.5 172.3 L 60.1 169.8 L 60.0 167.3 L 60.0 128.1 L 72.0 130.1 L 75.0 132.1 L 72.0 133.9 L 72.0 168.5 L 72.2 169.4 L 72.5 170.3 L 72.9 170.7 L 73.2 170.9 L 73.8 171.0 L 74.7 171.2 L 76.0 171.3 L 141.0 171.3 L 147.0 146.3 L 149.0 146.3 L 147.0 171.3 L 150.6 173.7 L 153.0 177.3 L 150.6 180.9 L 147.0 183.3 L 76.0 183.3 Z M 15.4 175.1 L 14.7 170.5 L 17.4 166.8 L 20.2 165.2 L 22.8 163.2 L 25.2 160.7 L 27.5 157.8 L 29.5 154.4 L 31.3 150.4 L 32.8 145.9 L 34.1 140.9 L 35.2 135.3 L 36.1 129.2 L 37.9 129.1 L 38.7 135.4 L 39.2 141.4 L 39.0 147.0 L 38.4 152.3 L 37.2 157.4 L 35.6 162.0 L 33.4 166.4 L 30.7 170.4 L 27.4 173.9 L 23.6 177.0 L 19.1 177.7 Z M 170.2 160.2 L 168.6 156.5 L 166.7 152.9 L 164.5 149.3 L 161.9 145.8 L 159.0 142.2 L 155.8 138.6 L 152.2 135.0 L 148.3 131.3 L 149.3 129.8 L 154.3 132.1 L 159.0 134.6 L 163.3 137.5 L 167.3 140.7 L 170.9 144.0 L 174.2 147.6 L 177.1 151.5 L 179.7 155.5 L 182.0 159.7 L 183.9 164.2 L 183.3 168.7 L 179.8 171.6 L 175.3 171.1 L 172.3 167.6 L 171.4 163.9 Z M 108.1 146.1 L 106.2 143.2 L 104.2 140.4 L 101.9 137.7 L 99.4 135.0 L 96.8 132.3 L 93.9 129.7 L 90.9 127.1 L 87.5 124.6 L 88.2 123.0 L 92.3 124.4 L 96.3 125.8 L 100.1 127.5 L 103.7 129.5 L 107.2 131.7 L 110.5 134.2 L 113.5 136.8 L 116.4 139.7 L 119.1 142.8 L 121.6 146.1 L 122.2 150.7 L 119.5 154.3 L 114.9 154.9 L 111.3 152.2 L 109.8 149.1 Z M 154.0 114.0 L 142.1 107.7 L 131.6 99.7 L 129.49153118133546 97.50084438323975 L 121.3 101.9 L 109.6 107.1 L 96.8 111.8 L 83.0 115.8 L 68.2 119.1 L 67.7 117.3 L 81.8 112.1 L 94.9 106.7 L 106.9 101.1 L 117.8 95.2 L 123.70425615310668 91.46465425491333 L 122.3 90.0 L 114.4 78.6 L 107.9 65.6 L 102.7 51.1 L 100.2625 41.1 L 47.0 41.1 L 47.0 97.79529409408569 L 49.4 97.4 L 66.8 94.6 L 75.6 93.2 L 84.5 91.8 L 93.6 90.5 L 102.7 89.4 L 103.2 91.1 L 94.4 94.2 L 85.7 97.0 L 77.0 99.6 L 68.4 102.0 L 59.8 104.3 L 51.3 106.5 L 42.9 108.6 L 34.5 110.6 L 26.2 112.6 L 22.031247425079346 113.51509199142455 L 20.5 117.0 L 18.0 114.4 L 13.9 103.0 L 15.8 102.6 L 24.1 101.4 L 35.0 99.7130952835083 L 35.0 31.1 L 47.0 37.1 L 99.2875 37.1 L 98.8 35.1 L 96.25185842514038 18.48989200592041 L 96.2 18.5 L 96.10873785018921 17.556957912445068 L 96.1 17.5 L 96.10319204330445 17.49965124130249 L 95.9 15.4 L 108.0 16.2 L 111.2 17.9 L 108.55868873596191 19.909693336486818 L 110.5 32.8 L 111.56778526306152 37.1 L 161.0 37.1 L 171.0 27.1 L 183.0 37.1 L 183.0 41.1 L 112.56107378005981 41.1 L 114.2 47.7 L 118.9 60.9 L 124.8 72.5 L 131.6 82.4 L 133.5558705329895 84.42921562194825 L 136.2 82.4 L 143.8 75.6 L 150.3 68.4 L 155.8 60.9 L 159.86666669845582 53.78333330154419 L 160.7 52.2 L 170.8 58.9 L 172.5 62.0 L 168.61439933776856 62.19757289886475 L 165.1 67.5 L 158.4 75.5 L 150.6 82.9 L 141.9 89.8 L 140.01047296524047 91.01469593048095 L 148.6 97.6 L 158.7 102.9 L 170.1 106.9 L 176.4810525894165 108.11543855667114 L 182.0 84.2 L 184.0 84.2 L 182.07833938598634 109.18158845901489 L 182.7 109.3 L 186.6 111.6 L 187.9 116.0 L 185.6 119.9 L 181.2 121.2 L 167.0 118.4 Z M 142.8 31.3 L 141.6 29.7 L 140.1 28.1 L 138.4 26.5 L 136.4 24.8 L 134.1 23.1 L 131.6 21.4 L 128.8 19.6 L 125.7 18.2 L 126.2 16.5 L 129.6 17.2 L 133.0 17.6 L 136.2 18.3 L 139.2 19.1 L 142.1 20.0 L 144.8 21.1 L 147.3 22.3 L 149.7 23.7 L 151.9 25.3 L 154.0 27.1 L 155.0 31.6 L 152.7 35.5 L 148.3 36.6 L 144.3 34.3 L 143.7 32.9 Z " />
</g>
</svg>
