<svg xmlns="http://www.w3.org/2000/svg" xmlns:xlink="http://www.w3.org/1999/xlink" version="1.1" baseProfile="full" viewBox="0 0 200 200" width="200" height="200">
<g fill="black">
<path d="M 72.4 181.1 L 69.9 180.7 L 67.5 179.9 L 65.2 178.7 L 63.2 177.0 L 61.6 175.0 L 60.3 172.7 L 59.5 170.3 L 59.1 167.8 L 59.0 165.3 L 59.0 126.1 L 71.0 128.1 L 74.0 130.1 L 71.0 131.9 L 71.0 166.5 L 71.2 167.4 L 71.5 168.3 L 71.9 168.7 L 72.2 168.9 L 72.8 169.0 L 73.7 169.2 L 75.0 169.3 L 140.0 169.3 L 146.0 144.3 L 148.0 144.3 L 146.0 169.3 L 149.6 171.7 L 152.0 175.3 L 149.6 178.9 L 146.0 181.3 L 75.0 181.3 Z M 14.4 173.1 L 13.7 168.5 L 16.4 164.8 L 19.2 163.2 L 21.8 161.2 L 24.2 158.7 L 26.5 155.8 L 28.5 152.4 L 30.3 148.4 L 31.8 143.9 L 33.1 138.9 L 34.2 133.3 L 35.1 127.2 L 36.9 127.1 L 37.7 133.4 L 38.2 139.4 L 38.0 145.0 L 37.4 150.3 L 36.2 155.4 L 34.6 160.0 L 32.4 164.4 L 29.7 168.4 L 26.4 171.9 L 22.6 175.0 L 18.1 175.7 Z M 169.2 158.2 L 167.6 154.5 L 165.7 150.9 L 163.5 147.3 L 160.9 143.8 L 158.0 140.2 L 154.8 136.6 L 151.2 133.0 L 147.3 129.3 L 148.3 127.8 L 153.3 130.1 L 158.0 132.6 L 162.3 135.5 L 166.3 138.7 L 169.9 142.0 L 173.2 145.6 L 176.1 149.5 L 178.7 153.5 L 181.0 157.7 L 182.9 162.2 L 182.3 166.7 L 178.8 169.6 L 174.3 169.1 L 171.3 165.6 L 170.4 161.9 Z M 107.1 144.1 L 105.2 141.2 L 103.2 138.4 L 100.9 135.7 L 98.4 133.0 L 95.8 130.3 L 92.9 127.7 L 89.9 125.1 L 86.5 122.6 L 87.2 121.0 L 91.3 122.4 L 95.3 123.8 L 99.1 125.5 L 102.7 127.5 L 106.2 129.7 L 109.5 132.2 L 112.5 134.8 L 115.4 137.7 L 118.1 140.8 L 120.6 144.1 L 121.2 148.7 L 118.5 152.3 L 113.9 152.9 L 110.3 150.2 L 108.8 147.1 Z M 93.6 79.2 L 91.3 76.8 L 88.6 74.3 L 85.4 71.7 L 81.8 69.0 L 77.8 66.3 L 73.4 63.4 L 68.7 60.5 L 65.62668333053588 58.66783046722412 L 61.4 61.9 L 54.1 66.9 L 46.2 71.6 L 37.7 75.9 L 28.7 79.8 L 27.8 78.3 L 35.8 72.7 L 43.2 67.1 L 50.2 61.6 L 56.6 56.0 L 62.4 50.4 L 67.7 44.7 L 72.4 38.9 L 76.6 33.0 L 80.2 27.1 L 82.83520803451538 21.914590740203856 L 82.8 21.9 L 83.8 20.0 L 93.9 26.5 L 95.7 29.7 L 91.79749183654785 29.969138526916502 L 89.9 33.1 L 86.78387098312378 37.3 L 141.4 37.3 L 147.4 32.3 L 158.4 41.3 L 153.4 44.3 L 151.0185667991638 45.29226388931274 L 146.5 54.4 L 138.6 66.3 L 129.4 77.2 L 118.8 87.0 L 106.9 95.7 L 93.8 103.4 L 79.3 110.0 L 63.6 115.6 L 46.6 120.0 L 28.4 123.2 L 28.1 121.5 L 45.7 116.3 L 61.9 110.5 L 76.7 104.0 L 90.1 96.8 L 102.1 88.7 L 112.7 80.0 L 121.9 70.4 L 129.9 60.1 L 136.5 48.9 L 139.88487396240234 41.3 L 83.59508199691773 41.3 L 80.1 45.4 L 74.4 51.1 L 68.2 56.7 L 68.06027393341064 56.80684928894043 L 70.0 57.3 L 75.5 58.9 L 80.7 60.7 L 85.4 62.6 L 89.8 64.7 L 93.8 66.8 L 97.5 69.0 L 100.8 71.4 L 103.8 73.9 L 106.4 76.6 L 107.5 81.0 L 105.2 85.0 L 100.8 86.0 L 96.8 83.8 L 95.4 81.6 Z " />
</g>
</svg>
