<svg xmlns="http://www.w3.org/2000/svg" xmlns:xlink="http://www.w3.org/1999/xlink" version="1.1" baseProfile="full" viewBox="0 0 200 200" width="200" height="200">
<g fill="black">
<path d="M 73.4 182.9 L 70.9 182.5 L 68.5 181.7 L 66.2 180.5 L 64.2 178.8 L 62.6 176.8 L 61.3 174.5 L 60.5 172.1 L 60.1 169.6 L 60.0 167.1 L 60.0 138.1 L 72.0 140.1 L 75.0 142.1 L 72.0 143.9 L 72.0 168.3 L 72.2 169.2 L 72.5 170.1 L 72.9 170.5 L 73.2 170.7 L 73.8 170.8 L 74.7 171.0 L 76.0 171.1 L 141.0 171.1 L 147.0 146.1 L 149.0 146.1 L 147.0 171.1 L 150.6 173.5 L 153.0 177.1 L 150.6 180.7 L 147.0 183.1 L 76.0 183.1 Z M 15.2 175.4 L 15.0 170.8 L 18.0 167.4 L 20.9 166.2 L 23.4 164.8 L 25.8 163.0 L 27.9 161.0 L 29.8 158.5 L 31.6 155.6 L 33.1 152.2 L 34.4 148.4 L 35.5 144.1 L 36.1 139.4 L 37.9 139.3 L 38.5 144.2 L 38.9 149.0 L 38.8 153.5 L 38.1 157.8 L 36.9 162.0 L 35.2 165.8 L 33.0 169.5 L 30.3 172.7 L 27.0 175.7 L 23.3 178.2 L 18.7 178.4 Z M 170.4 164.2 L 168.9 161.4 L 167.1 158.6 L 164.9 155.7 L 162.4 152.9 L 159.4 150.0 L 156.1 147.0 L 152.5 144.0 L 148.4 141.1 L 149.2 139.5 L 154.1 141.2 L 158.7 143.0 L 162.9 145.1 L 166.8 147.4 L 170.4 149.9 L 173.7 152.6 L 176.7 155.5 L 179.3 158.6 L 181.6 161.9 L 183.5 165.4 L 183.3 170.0 L 180.0 173.2 L 175.4 173.0 L 172.3 169.7 L 171.5 167.0 Z M 122.20837488174439 49.97497510910034 L 123.04896907806396 64.8 L 159.01818180084229 64.8 L 167.2 55.8 L 177.2 64.8 L 177.2 68.8 L 123.73937501907349 68.8 L 126.4 81.7 L 131.2 94.5 L 136.91426544189454 104.37889957427979 L 138.5 103.0 L 144.5 96.5 L 149.8 89.5 L 153.9072054862976 82.80346927642822 L 153.9 82.8 L 154.9 81.1 L 164.7 88.0 L 166.3 91.3 L 162.40609760284423 91.3 L 159.0 96.2 L 152.5 103.7 L 145.2 110.4 L 143.19849185943605 111.90730857849121 L 143.7 112.5 L 150.5 118.3 L 157.2 122.3 L 163.3 124.8 L 166.24957265853882 125.55185184478759 L 171.8 101.5 L 173.8 101.5 L 171.8744680404663 126.5319149017334 L 176.0 128.3 L 177.8 132.5 L 176.0 136.7 L 171.8 138.5 L 166.3 137.9 L 159.6 136.2 L 151.9 133.0 L 143.6 128.1 L 135.2 121.0 L 133.36593542098998 118.81769523620605 L 128.4 121.9 L 118.9 126.5 L 108.7 130.4 L 97.8 133.6 L 91.42816905975342 134.90704221725463 L 92.2 135.1 L 96.1 136.0 L 99.8 137.2 L 103.3 138.6 L 106.7 140.2 L 109.9 142.0 L 112.9 144.0 L 115.8 146.1 L 118.5 148.4 L 121.0 151.0 L 122.0 155.4 L 119.7 159.4 L 115.3 160.4 L 111.3 158.1 L 110.0 155.7 L 108.4 153.4 L 106.6 151.1 L 104.5 148.8 L 102.3 146.6 L 99.8 144.4 L 97.1 142.2 L 94.2 140.0 L 91.0 137.7 L 87.6 135.8 L 87.6409755706787 135.6839024543762 L 86.1 136.0 L 73.8 137.5 L 73.5 135.8 L 85.2 132.3 L 96.2 128.5 L 106.3 124.3 L 115.5 119.7 L 124.0 114.6 L 127.59502077102661 111.95103731155396 L 127.3 111.6 L 120.4 99.7 L 114.9 85.0 L 111.53258428573608 68.8 L 18.8 68.8 L 18.8 64.8 L 111.06220092773438 64.8 L 110.05714282989501 47.29523811340332 L 110.0 47.3 L 110.0 43.9 L 122.0 46.3 L 125.0 48.3 Z M 22.7 120.1 L 30.5 119.5 L 38.5 119.0 L 46.7 118.4 L 55.1 117.7 L 63.7 117.1 L 72.5 116.4 L 81.4 115.7 L 90.6 115.1 L 99.9 114.6 L 109.5 114.2 L 109.8 116.0 L 100.5 118.3 L 91.3 120.4 L 82.3 122.2 L 73.4 123.9 L 64.8 125.5 L 56.3 126.9 L 47.9 128.3 L 39.8 129.6 L 31.8 130.9 L 28.037329864501952 131.4306329727173 L 26.3 134.8 L 24.0 132.0 L 20.7 120.3 Z M 50.0 80.1 L 84.8 80.1 L 90.8 75.1 L 101.8 84.1 L 96.8 88.1 L 96.8 105.6 L 84.8 111.6 L 84.8 105.6 L 50.0 105.6 L 50.0 108.6 L 38.0 114.6 L 38.0 74.1 Z M 50.0 84.1 L 50.0 101.6 L 84.8 101.6 L 84.8 84.1 Z M 147.7 57.9 L 146.6 56.6 L 145.3 55.3 L 143.7 53.9 L 142.0 52.5 L 140.0 51.0 L 137.9 49.5 L 135.6 48.0 L 132.9 47.0 L 133.4 45.2 L 136.2 45.8 L 139.1 46.0 L 141.9 46.3 L 144.5 46.8 L 147.0 47.3 L 149.4 48.0 L 151.6 48.8 L 153.8 49.8 L 155.8 50.9 L 157.8 52.1 L 157.9910448074341 52.613432788848876 L 159.8 49.9 L 161.8 47.2 L 163.6 44.6 L 165.2 42.2 L 166.8 39.9 L 168.04090909957887 37.8 L 32.95 37.8 L 33.0 39.8 L 32.7 43.7 L 31.9 47.3 L 30.7 50.8 L 29.1 54.0 L 26.9 56.9 L 24.3 59.5 L 21.3 61.7 L 16.7 62.0 L 13.2 59.0 L 13.0 54.4 L 16.0 50.9 L 18.0 50.3 L 19.9 49.3 L 21.6 48.1 L 23.3 46.4 L 24.9 44.3 L 26.3 41.8 L 27.6 38.8 L 28.7 35.4 L 29.7 31.5 L 30.1 27.2 L 31.9 27.1 L 32.4 31.5 L 32.667441844940186 33.8 L 94.0 33.8 L 94.0 12.0 L 106.0 14.0 L 109.0 16.0 L 106.0 17.8 L 106.0 33.8 L 170.0 33.8 L 170.65806455612181 33.251612949371335 L 171.2 32.1 L 171.637020778656 32.43581600189209 L 176.0 28.8 L 187.0 37.8 L 182.0 40.8 L 176.075 43.26875 L 175.1 44.0 L 173.0 45.7 L 170.7 47.4 L 168.2 49.2 L 165.5 51.0 L 162.6 52.9 L 159.5 54.8 L 158.9577236175537 55.21138210296631 L 159.4 56.4 L 157.6 60.6 L 153.4 62.2 L 149.1 60.4 L 148.5 59.2 Z " />
</g>
</svg>
