<svg xmlns="http://www.w3.org/2000/svg" xmlns:xlink="http://www.w3.org/1999/xlink" version="1.1" baseProfile="full" viewBox="0 0 200 200" width="200" height="200">
<g fill="black">
<path d="M 147.0 148.5 L 149.0 148.5 L 148.71379308700563 152.07758617401123 L 149.2 150.7 L 153.9 152.0 L 158.4 153.2 L 162.5 154.6 L 166.3 156.1 L 169.8 157.8 L 173.1 159.6 L 176.0 161.7 L 178.7 163.9 L 181.0 166.4 L 183.0 169.1 L 183.2 173.7 L 180.3 177.1 L 175.7 177.4 L 172.2 174.4 L 171.6 172.6 L 170.7 170.6 L 169.3 168.6 L 167.5 166.4 L 165.4 164.2 L 162.8 161.9 L 159.8 159.6 L 156.5 157.2 L 152.8 154.7 L 148.6843065261841 152.4461678504944 L 147.0 173.5 L 150.6 175.9 L 153.0 179.5 L 150.6 183.1 L 147.0 185.5 L 76.0 185.5 L 73.4 185.4 L 70.9 185.0 L 68.5 184.2 L 66.2 182.9 L 64.2 181.3 L 62.6 179.3 L 61.3 177.0 L 60.5 174.6 L 60.1 172.1 L 60.0 169.5 L 60.0 149.7 L 72.0 151.7 L 75.0 153.7 L 72.0 155.5 L 72.0 170.8 L 72.2 171.7 L 72.5 172.6 L 72.9 173.0 L 73.8 173.3 L 74.7 173.5 L 141.0 173.5 Z M 15.1 178.3 L 15.4 173.8 L 18.7 170.6 L 21.5 169.8 L 24.1 168.9 L 26.4 167.7 L 28.4 166.4 L 30.2 164.7 L 31.9 162.8 L 33.3 160.5 L 34.6 157.8 L 35.7 154.7 L 36.1 151.1 L 37.9 151.1 L 38.7 158.5 L 38.5 162.0 L 37.8 165.5 L 36.6 168.9 L 34.8 172.0 L 32.5 174.9 L 29.7 177.6 L 26.5 179.9 L 22.8 181.9 L 18.3 181.6 Z M 108.7 162.7 L 106.9 160.9 L 104.9 159.1 L 102.6 157.3 L 100.1 155.5 L 97.4 153.7 L 94.4 151.8 L 91.2 149.9 L 87.7 148.4 L 88.2 146.7 L 92.0 147.4 L 95.8 147.9 L 99.5 148.6 L 102.9 149.5 L 106.2 150.5 L 109.3 151.7 L 112.3 153.0 L 115.1 154.5 L 117.7 156.1 L 120.2 157.9 L 121.8 162.2 L 120.0 166.4 L 115.8 168.0 L 111.6 166.3 L 110.3 164.5 Z M 36.4 147.8 L 36.4 96.7 L 48.4 102.7 L 151.6 102.7 L 157.6 97.7 L 168.6 106.7 L 163.6 110.7 L 163.6 141.8 L 151.6 147.8 L 151.6 141.8 L 48.4 141.8 Z M 48.4 124.3 L 48.4 137.8 L 94.0 137.8 L 94.0 124.3 Z M 106.0 124.3 L 106.0 137.8 L 151.6 137.8 L 151.6 124.3 Z M 48.4 106.7 L 48.4 120.3 L 94.0 120.3 L 94.0 106.7 Z M 106.0 106.7 L 106.0 120.3 L 151.6 120.3 L 151.6 106.7 Z M 37.0 96.4 L 25.0 102.4 L 25.0 63.6 L 37.0 69.6 L 163.0 69.6 L 169.0 64.6 L 180.0 73.6 L 175.0 77.6 L 175.0 95.4 L 163.0 101.4 L 163.0 93.4 L 37.0 93.4 Z M 37.0 73.6 L 37.0 89.4 L 71.0 89.4 L 71.0 73.6 Z M 83.0 73.6 L 83.0 89.4 L 117.0 89.4 L 117.0 73.6 Z M 129.0 73.6 L 129.0 89.4 L 163.0 89.4 L 163.0 73.6 Z M 77.66042699813843 14.756033420562744 L 87.5 23.0 L 87.8 26.1 L 83.53364744186402 24.14966735839844 L 80.6 25.0 L 77.7 25.4 L 74.5 25.8 L 71.1 26.2 L 67.4 26.6 L 63.5 27.0 L 59.3 27.3 L 54.9 27.5 L 50.2 27.7 L 46.17666664123535 27.7 L 47.18416662216187 37.0 L 59.81818180084228 37.0 L 68.0 28.0 L 78.0 37.0 L 78.0 41.0 L 47.61750001907349 41.0 L 48.80916662216187 52.0 L 63.7777777671814 52.0 L 70.0 45.0 L 78.0 52.0 L 78.0 56.0 L 49.24250001907349 56.0 L 49.6 59.3 L 38.3 66.6 L 33.1 18.6 L 45.7 23.3 L 45.80303773880005 24.251117324829103 L 49.4 23.0 L 53.9 21.6 L 58.0 20.3 L 61.9 19.1 L 65.6 17.9 L 68.9 16.7 L 72.0 15.6 L 74.8 14.5 L 76.45177192687989 13.839291191101074 L 76.4 13.7 L 76.5292576789856 13.808296966552735 L 77.3 13.5 Z M 173.0 25.0 L 168.0 28.0 L 166.65098781585692 28.562088394165038 L 164.2 60.6 L 151.7 65.3 L 152.62340421676635 56.0 L 129.0 56.0 L 129.0 52.0 L 153.02056741714478 52.0 L 154.11276597976683 41.0 L 129.0 41.0 L 129.0 37.0 L 154.50992908477784 37.0 L 155.7014183998108 25.0 L 127.0 25.0 L 127.0 21.0 L 156.0 21.0 L 162.0 16.0 Z " />
</g>
</svg>
