<svg xmlns="http://www.w3.org/2000/svg" xmlns:xlink="http://www.w3.org/1999/xlink" version="1.1" baseProfile="full" viewBox="0 0 200 200" width="200" height="200">
<g fill="black">
<path d="M 147.0 146.7 L 149.0 146.7 L 147.0 171.7 L 150.6 174.1 L 153.0 177.7 L 150.6 181.3 L 147.0 183.7 L 76.0 183.7 L 73.4 183.5 L 70.9 183.1 L 68.5 182.3 L 66.2 181.1 L 64.2 179.4 L 62.6 177.4 L 61.3 175.1 L 60.5 172.7 L 60.1 170.2 L 60.0 167.7 L 60.0 133.6 L 72.0 135.6 L 75.0 137.6 L 72.0 139.4 L 72.0 168.9 L 72.2 169.8 L 72.5 170.7 L 72.9 171.1 L 73.2 171.3 L 73.8 171.4 L 74.7 171.6 L 76.0 171.7 L 141.0 171.7 Z M 15.3 175.7 L 14.9 171.2 L 17.7 167.6 L 20.5 166.2 L 23.1 164.5 L 25.5 162.4 L 27.7 159.9 L 29.6 156.9 L 31.4 153.5 L 32.9 149.6 L 34.2 145.1 L 35.4 140.2 L 36.1 134.8 L 37.9 134.7 L 38.6 140.3 L 39.0 145.7 L 38.9 150.8 L 38.2 155.6 L 37.1 160.1 L 35.4 164.4 L 33.2 168.4 L 30.5 172.1 L 27.2 175.3 L 23.5 178.1 L 18.9 178.5 Z M 170.3 162.7 L 168.7 159.5 L 166.9 156.2 L 164.7 153.0 L 162.1 149.8 L 159.2 146.6 L 156.0 143.3 L 152.4 140.0 L 148.4 136.7 L 149.3 135.1 L 154.2 137.2 L 158.8 139.3 L 163.1 141.8 L 167.0 144.5 L 170.7 147.5 L 174.0 150.6 L 176.9 154.0 L 179.5 157.6 L 181.8 161.3 L 183.7 165.3 L 183.3 169.9 L 179.9 172.9 L 175.3 172.5 L 172.3 169.1 L 171.4 165.9 Z M 33.6 43.6 L 33.6 12.3 L 45.6 18.3 L 81.7 18.3 L 87.7 13.3 L 98.7 22.3 L 93.7 26.3 L 93.7 39.5 L 81.7 45.5 L 81.7 39.5 L 45.6 39.5 L 35.5 44.55 L 40.0 46.8 L 177.5 46.8 L 182.0 40.8 L 188.0 46.8 L 188.0 50.8 L 137.9 50.8 L 147.7 55.7 L 149.9 58.6 L 146.03238430023194 59.41423482894898 L 145.5 60.6 L 143.1 65.2 L 140.5 69.8 L 137.5 74.1 L 137.19756097793578 74.5 L 161.7 74.5 L 171.7 64.5 L 183.7 74.5 L 183.7 78.5 L 169.35625 78.5 L 167.0 87.2 L 163.4 96.1 L 158.7 104.3 L 153.1 111.7 L 151.5179536819458 113.2580759048462 L 152.1 113.7 L 158.1 117.3 L 164.7 120.6 L 172.0 123.4 L 180.0 125.9 L 187.7 128.3 L 176.0 138.5 L 167.3 135.1 L 159.4 131.1 L 152.2 126.7 L 145.8 121.7 L 144.09304399490355 120.05400667190551 L 139.1 123.9 L 130.7 128.7 L 121.5 132.7 L 111.4 135.8 L 107.182857131958 136.6199999809265 L 110.2 138.6 L 113.3 140.9 L 116.1 143.4 L 118.8 146.1 L 121.3 149.1 L 122.1 153.6 L 119.6 157.4 L 115.1 158.2 L 111.3 155.6 L 109.8 152.9 L 108.2 150.3 L 106.4 147.7 L 104.3 145.1 L 102.1 142.6 L 99.6 140.2 L 96.93599996566772 137.8319999694824 L 93.6 139.5 L 93.6 134.9800000190735 L 91.0 132.9 L 87.5 130.7 L 88.2 129.1 L 92.2 130.2 L 93.6 130.6199999809265 L 93.6 120.12833337783813 L 87.7 121.8 L 81.9 123.3 L 76.2 124.6 L 70.6 125.8 L 65.2 127.0 L 59.9 128.0 L 54.7 129.0 L 49.7 129.9 L 49.04443244934082 130.02291889190673 L 47.2 133.6 L 44.9 130.8 L 41.6 119.1 L 43.6 118.9 L 48.4 118.6 L 53.5 118.4 L 54.1 118.36470584869384 L 54.1 77.7 L 42.4 77.7 L 42.4 73.7 L 74.3 73.7 L 74.3 61.6 L 47.2 61.6 L 47.2 57.6 L 103.0777777671814 57.6 L 109.1222222328186 50.8 L 40.0 50.8 L 40.0 83.4 L 39.4 91.4 L 38.4 98.9 L 36.9 105.9 L 34.9 112.4 L 32.4 118.3 L 29.4 123.7 L 25.9 128.4 L 21.9 132.4 L 17.4 135.7 L 12.4 138.1 L 11.5 136.6 L 14.9 132.8 L 17.9 128.8 L 20.5 124.6 L 22.7 120.0 L 24.5 115.1 L 26.0 109.7 L 27.1 103.9 L 27.7 97.6 L 28.0 90.8 L 28.0 40.8 Z M 109.5285714149475 50.8 L 117.3 57.6 L 117.3 61.6 L 86.3 61.6 L 86.3 73.7 L 108.6777777671814 73.7 L 114.9 66.7 L 122.9 73.7 L 122.9 77.7 L 105.6 77.7 L 105.6 133.5 L 103.54666662216187 134.52666664123535 L 103.86535091400147 134.7087718963623 L 110.2 132.2 L 119.3 127.8 L 127.4 123.0 L 134.6 117.8 L 138.49533290863036 114.16009874343872 L 135.5 110.4 L 131.6 104.0 L 128.7 97.2 L 126.8 90.0 L 126.43080682754517 86.538814163208 L 123.3 89.2 L 119.0 92.3 L 114.5 95.1 L 113.3 93.7 L 116.5 89.6 L 119.5 85.5 L 122.3 81.5 L 125.0 77.5 L 127.4 73.4 L 129.6 69.2 L 131.6 65.0 L 133.4 60.7 L 135.0 56.3 L 136.11113452911377 52.728496074676514 L 136.0 52.7 L 136.7125 50.8 Z M 66.1 106.9 L 66.1 117.64727268218994 L 69.5 117.4 L 75.1 117.1 L 80.9 116.8 L 86.9 116.5 L 93.1 116.3 L 93.6 116.30793647766113 L 93.6 106.9 Z M 134.1307692527771 78.5 L 130.9 82.1 L 128.787091255188 84.2716007232666 L 130.8 88.7 L 134.1 94.7 L 137.8 100.2 L 142.0 105.1 L 144.50116958618165 107.49473686218262 L 145.9 105.8 L 150.2 99.1 L 153.6 91.8 L 156.1 83.9 L 157.18000001907347 78.5 Z M 66.1 92.3 L 66.1 102.9 L 93.6 102.9 L 93.6 92.3 Z M 66.1 77.7 L 66.1 88.3 L 93.6 88.3 L 93.6 77.7 Z M 123.3 18.3 L 159.4 18.3 L 165.4 13.3 L 176.4 22.3 L 171.4 26.3 L 171.4 39.5 L 159.4 45.5 L 159.4 39.5 L 123.3 39.5 L 111.3 45.5 L 111.3 12.3 Z M 123.3 22.3 L 123.3 35.5 L 159.4 35.5 L 159.4 22.3 Z M 45.6 22.3 L 45.6 35.5 L 81.7 35.5 L 81.7 22.3 Z " />
</g>
</svg>
