<svg xmlns="http://www.w3.org/2000/svg" xmlns:xlink="http://www.w3.org/1999/xlink" version="1.1" baseProfile="full" viewBox="0 0 200 200" width="200" height="200">
<g fill="black">
<path d="M 73.4 181.8 L 70.9 181.4 L 68.5 180.6 L 66.2 179.3 L 64.2 177.7 L 62.6 175.7 L 61.3 173.4 L 60.5 171.0 L 60.1 168.5 L 60.0 166.0 L 60.0 124.0 L 72.0 126.0 L 75.0 128.0 L 72.0 129.8 L 72.0 167.2 L 72.2 168.1 L 72.5 169.0 L 72.9 169.4 L 73.8 169.7 L 74.7 169.9 L 76.0 170.0 L 141.0 170.0 L 147.0 145.0 L 149.0 145.0 L 147.0 170.0 L 150.6 172.4 L 153.0 176.0 L 150.6 179.6 L 147.0 182.0 L 76.0 182.0 Z M 15.4 173.6 L 14.7 169.1 L 17.2 165.3 L 20.0 163.5 L 22.7 161.4 L 25.1 158.7 L 27.4 155.6 L 29.4 151.9 L 31.2 147.6 L 32.7 142.8 L 34.0 137.4 L 35.2 131.5 L 36.1 125.0 L 37.9 124.9 L 38.8 131.6 L 39.2 137.9 L 39.1 143.8 L 38.4 149.5 L 37.3 154.7 L 35.6 159.6 L 33.5 164.2 L 30.8 168.4 L 27.5 172.1 L 23.7 175.3 L 19.2 176.1 Z M 170.1 157.7 L 168.5 153.8 L 166.6 150.0 L 164.4 146.2 L 161.8 142.4 L 158.9 138.7 L 155.7 134.9 L 152.2 131.1 L 148.3 127.3 L 149.3 125.8 L 154.3 128.2 L 159.1 131.0 L 163.4 134.1 L 167.4 137.4 L 171.0 141.0 L 174.3 144.9 L 177.2 149.0 L 179.8 153.2 L 182.1 157.7 L 183.9 162.4 L 183.3 167.0 L 179.8 169.8 L 175.2 169.2 L 172.4 165.7 L 171.4 161.7 Z M 108.0 142.8 L 106.2 139.7 L 104.1 136.7 L 101.8 133.8 L 99.4 131.0 L 96.7 128.2 L 93.8 125.5 L 90.8 122.7 L 87.4 120.2 L 88.2 118.6 L 92.3 120.0 L 96.4 121.6 L 100.2 123.4 L 103.8 125.6 L 107.3 128.0 L 110.6 130.6 L 113.7 133.5 L 116.6 136.6 L 119.3 139.9 L 121.8 143.4 L 122.2 148.0 L 119.4 151.6 L 114.8 152.0 L 111.2 149.2 L 109.7 145.9 Z M 77.4 21.4 L 78.7 24.8 L 74.99537572860717 24.5445086479187 L 72.2 28.2 L 66.7 34.8 L 61.0 41.2 L 55.0 47.5 L 49.34042549133301 52.89007091522217 L 54.8 53.8 L 57.8 55.8 L 54.8 57.6 L 54.8 119.3 L 42.8 125.3 L 42.8 58.85538463592529 L 42.2 59.4 L 35.5 65.1 L 28.4 70.6 L 21.0 75.8 L 13.3 80.6 L 12.2 79.2 L 24.9 66.5 L 31.0 60.3 L 36.9 54.0 L 42.6 47.6 L 48.1 41.2 L 53.3 34.7 L 58.3 28.1 L 63.0 21.4 L 67.5 14.6 L 67.52286376953126 14.615704345703126 L 68.0 13.9 Z M 171.5 83.1 L 166.5 86.1 L 163.17872047424316 87.48386650085449 L 143.4 121.6 L 130.0 120.6 L 152.31012659072877 83.1 L 82.6 83.1 L 82.6 79.1 L 154.5 79.1 L 160.5 74.1 Z M 164.3 65.0 L 157.6 61.2 L 151.3 57.0 L 145.2 52.4 L 139.5 47.3 L 134.0 41.9 L 129.0 36.0 L 124.3 29.7 L 123.27674417495727 27.934883689880373 L 123.1 28.2 L 118.4 34.6 L 113.2 40.7 L 107.6 46.5 L 101.6 52.1 L 95.3 57.4 L 88.4 62.4 L 81.2 67.0 L 73.5 71.3 L 65.3 75.1 L 64.4 73.6 L 71.4 68.1 L 78.1 62.7 L 84.4 57.2 L 90.3 51.7 L 95.7 46.0 L 100.8 40.2 L 105.5 34.3 L 109.7 28.3 L 113.5 22.1 L 116.50625715255737 16.602844142913817 L 116.5 16.6 L 117.5 14.8 L 127.5 21.6 L 129.1 24.8 L 125.3037036895752 24.930906772613525 L 127.5 26.9 L 133.2 31.9 L 138.9 36.6 L 144.7 40.9 L 150.7 44.8 L 156.7 48.4 L 163.0 51.5 L 169.3 54.3 L 175.9 56.8 L 182.6 58.9 L 190.1 61.3 L 178.5 71.4 L 171.2 68.4 Z M 151.0 60.7 L 151.0 64.7 L 95.6 64.7 L 95.6 60.7 L 129.0 60.7 L 139.0 50.7 Z " />
</g>
</svg>
