<svg xmlns="http://www.w3.org/2000/svg" xmlns:xlink="http://www.w3.org/1999/xlink" version="1.1" baseProfile="full" viewBox="0 0 200 200" width="200" height="200">
<g fill="black">
<path d="M 73.4 184.9 L 70.9 184.4 L 68.5 183.6 L 66.2 182.4 L 64.2 180.7 L 62.6 178.7 L 61.3 176.5 L 60.5 174.0 L 60.1 171.6 L 60.0 169.0 L 60.0 137.7 L 72.0 139.7 L 75.0 141.7 L 72.0 143.5 L 72.0 170.2 L 72.2 171.1 L 72.4 171.7 L 72.5 172.1 L 72.7 172.2 L 72.9 172.4 L 73.2 172.6 L 73.8 172.8 L 74.7 172.9 L 76.0 173.0 L 141.0 173.0 L 147.0 148.0 L 149.0 148.0 L 147.0 173.0 L 150.6 175.4 L 153.0 179.0 L 150.6 182.6 L 147.0 185.0 L 76.0 185.0 Z M 15.3 177.2 L 15.0 172.6 L 17.9 169.1 L 20.7 167.9 L 23.3 166.3 L 25.6 164.4 L 27.8 162.1 L 29.7 159.5 L 31.5 156.3 L 33.0 152.7 L 34.3 148.6 L 35.4 144.0 L 36.1 138.9 L 37.9 138.9 L 38.5 144.1 L 39.0 149.1 L 38.8 153.9 L 38.2 158.5 L 37.0 162.8 L 35.3 166.9 L 33.1 170.6 L 30.4 174.1 L 27.1 177.1 L 23.4 179.8 L 18.8 180.1 Z M 170.3 165.2 L 168.8 162.2 L 167.0 159.2 L 164.8 156.2 L 162.3 153.1 L 159.3 150.1 L 156.1 147.0 L 152.5 143.8 L 148.4 140.8 L 149.3 139.2 L 154.1 141.1 L 158.7 143.0 L 163.0 145.3 L 166.9 147.8 L 170.5 150.5 L 173.8 153.4 L 176.8 156.5 L 179.4 159.8 L 181.7 163.3 L 183.6 167.0 L 183.3 171.6 L 180.0 174.7 L 175.4 174.4 L 172.3 171.1 L 171.5 168.1 Z M 108.3 153.6 L 106.5 151.2 L 104.4 148.8 L 102.2 146.5 L 99.7 144.1 L 97.0 141.8 L 94.1 139.6 L 91.0 137.2 L 87.5 135.2 L 88.2 133.5 L 92.2 134.6 L 96.1 135.6 L 99.9 136.9 L 103.4 138.4 L 106.8 140.2 L 110.0 142.1 L 113.1 144.2 L 116.0 146.5 L 118.7 149.1 L 121.2 151.8 L 122.1 156.2 L 119.7 160.1 L 115.2 161.0 L 111.3 158.6 L 109.9 156.1 Z M 60.0 79.3 L 140.0 79.3 L 146.0 74.3 L 157.0 83.3 L 152.0 87.3 L 152.0 121.7 L 140.0 127.7 L 140.0 119.7 L 60.0 119.7 L 60.0 131.7 L 48.0 137.7 L 48.0 73.3 Z M 60.0 101.0 L 60.0 115.7 L 140.0 115.7 L 140.0 101.0 Z M 60.0 83.3 L 60.0 97.0 L 140.0 97.0 L 140.0 83.3 Z M 158.6 76.1 L 149.4 72.4 L 140.7 68.4 L 132.5 64.0 L 124.8 59.3 L 117.7 54.2 L 111.1 48.8 L 105.2 42.9 L 103.47325010299683 40.774769401550294 L 100.4 43.8 L 93.3 49.7 L 85.6 55.1 L 77.1 60.2 L 68.0 64.8 L 58.2 69.0 L 47.7 72.9 L 36.6 76.2 L 24.7 79.1 L 12.2 81.4 L 11.7 79.7 L 23.7 75.5 L 34.9 71.2 L 45.4 66.7 L 55.1 62.1 L 64.1 57.3 L 72.3 52.2 L 79.8 46.9 L 86.5 41.4 L 92.5 35.6 L 97.21111106872559 30.26666669845581 L 98.1 29.2 L 106.8 37.5 L 107.31451616287231 39.30080642700195 L 107.9 39.7 L 114.7 44.1 L 121.7 48.2 L 129.0 52.1 L 136.7 55.7 L 144.8 59.1 L 153.4 62.1 L 162.3 64.9 L 171.7 67.3 L 181.5 69.5 L 190.2 71.6 L 178.4 82.4 L 168.3 79.4 Z M 77.2 24.1 L 77.8 27.7 L 74.0622950553894 26.5653395652771 L 73.0 27.4 L 68.4 30.5 L 63.5 33.4 L 58.3 36.2 L 52.8 38.9 L 46.9 41.4 L 40.8 43.7 L 34.3 45.8 L 27.5 47.7 L 20.2 49.2 L 19.7 47.5 L 26.1 44.1 L 32.3 40.9 L 38.1 37.7 L 43.6 34.6 L 48.8 31.4 L 53.6 28.2 L 58.0 25.0 L 62.1 21.8 L 65.8 18.5 L 68.4816559791565 15.976088523864746 L 68.4 15.9 L 69.4 15.1 Z M 158.5 40.2 L 154.9 37.6 L 151.0 35.0 L 146.8 32.4 L 142.3 29.8 L 137.5 27.2 L 132.4 24.6 L 127.2 21.9 L 121.6 19.0 L 122.2 17.3 L 128.4 18.3 L 134.3 19.6 L 140.0 21.1 L 145.3 22.9 L 150.4 24.7 L 155.3 26.7 L 159.9 28.9 L 164.3 31.1 L 168.4 33.5 L 172.3 36.0 L 174.5 40.0 L 173.3 44.5 L 169.3 46.6 L 164.9 45.5 L 161.8 42.8 Z " />
</g>
</svg>
