<svg xmlns="http://www.w3.org/2000/svg" xmlns:xlink="http://www.w3.org/1999/xlink" version="1.1" baseProfile="full" viewBox="0 0 200 200" width="200" height="200">
<g fill="black">
<path d="M 75.4 184.0 L 72.9 183.5 L 70.5 182.7 L 68.2 181.5 L 66.2 179.9 L 64.6 177.8 L 63.3 175.6 L 62.5 173.2 L 62.1 170.7 L 62.0 168.1 L 62.0 130.7 L 74.0 132.7 L 77.0 134.7 L 74.0 136.5 L 74.0 169.3 L 74.2 170.3 L 74.4 170.8 L 74.5 171.2 L 74.7 171.4 L 74.9 171.5 L 75.2 171.7 L 75.8 171.9 L 76.7 172.0 L 78.0 172.1 L 143.0 172.1 L 149.0 147.1 L 151.0 147.1 L 149.0 172.1 L 152.6 174.5 L 155.0 178.1 L 152.6 181.7 L 149.0 184.1 L 78.0 184.1 Z M 17.4 176.0 L 16.8 171.5 L 19.5 167.8 L 22.3 166.2 L 24.9 164.3 L 27.3 162.0 L 29.5 159.2 L 31.5 156.0 L 33.3 152.2 L 34.8 147.9 L 36.2 143.1 L 37.3 137.7 L 38.1 131.8 L 39.9 131.8 L 40.7 137.8 L 41.1 143.6 L 41.0 149.0 L 40.3 154.2 L 39.2 159.0 L 37.5 163.6 L 35.3 167.8 L 32.6 171.7 L 29.4 175.1 L 25.6 178.1 L 21.1 178.7 Z M 172.2 161.7 L 170.7 158.3 L 168.8 154.8 L 166.6 151.3 L 164.0 147.9 L 161.1 144.4 L 157.9 141.0 L 154.3 137.4 L 150.3 133.9 L 151.3 132.4 L 156.2 134.6 L 160.9 137.0 L 165.2 139.7 L 169.2 142.7 L 172.8 145.9 L 176.1 149.4 L 179.1 153.0 L 181.7 156.9 L 183.9 161.0 L 185.8 165.3 L 185.3 169.8 L 181.8 172.8 L 177.3 172.3 L 174.3 168.8 L 173.4 165.3 Z M 110.1 148.3 L 108.3 145.5 L 106.2 142.8 L 104.0 140.1 L 101.5 137.5 L 98.8 134.9 L 96.0 132.4 L 92.9 129.8 L 89.5 127.5 L 90.2 125.8 L 94.3 127.1 L 98.3 128.4 L 102.1 130.1 L 105.7 131.9 L 109.1 134.1 L 112.4 136.4 L 115.4 139.0 L 118.3 141.7 L 121.0 144.7 L 123.5 147.9 L 124.2 152.4 L 121.5 156.1 L 117.0 156.7 L 113.3 154.1 L 111.8 151.1 Z M 161.9 115.8 L 159.2 112.8 L 156.1 109.8 L 155.1345700263977 108.86382551193238 L 147.6 110.4 L 137.5 112.2 L 127.7 113.7 L 118.1 115.1 L 108.7 116.4 L 99.6 117.6 L 90.7 118.6 L 82.1 119.6 L 73.7 120.5 L 69.67056703567505 120.89796867370606 L 67.7 124.2 L 65.6 121.3 L 62.8 109.5 L 64.8 109.4 L 73.0 109.2 L 81.3 108.9 L 84.6490592956543 108.78451519012451 L 87.9 104.7 L 91.7 99.9 L 95.2 95.3 L 98.5 90.7 L 101.5 86.2 L 104.3 81.7 L 106.8 77.3 L 109.0 73.0 L 110.50197229385375 69.60079956054688 L 110.5 69.6 L 110.51999998092651 69.56000003814697 L 110.9 68.7 L 110.93992538452149 68.72014923095703 L 111.5 67.6 L 121.6 74.1 L 123.4 77.3 L 119.51942443847656 77.56762590408326 L 118.9 78.6 L 115.9 83.0 L 112.6 87.4 L 109.0 91.7 L 105.1 96.0 L 100.9 100.3 L 96.5 104.4 L 91.7 108.5 L 91.64159135818481 108.54466543197631 L 98.9 108.3 L 108.0 107.9 L 117.4 107.6 L 127.1 107.2 L 137.0 106.8 L 147.2 106.6 L 152.74063606262206 106.54723205566407 L 149.2 103.4 L 145.4 100.1 L 141.2 96.6 L 136.9 92.9 L 132.4 89.0 L 133.3 87.5 L 138.9 89.8 L 144.1 92.2 L 149.0 94.7 L 153.6 97.3 L 157.9 100.0 L 162.0 102.6 L 165.7 105.3 L 169.3 108.0 L 172.5 110.7 L 175.5 113.5 L 177.0 117.8 L 175.1 122.0 L 170.7 123.4 L 166.6 121.5 L 164.4 118.7 Z M 94.6 39.7 L 97.0 42.4 L 93.32847681045533 43.51456956863403 L 91.5 49.0 L 87.8166666984558 57.5 L 160.6 57.5 L 170.6 47.5 L 182.6 57.5 L 182.6 61.5 L 85.73068180084229 61.5 L 82.9 66.8 L 77.4 75.3 L 71.1 83.6 L 64.0 91.7 L 56.1 99.5 L 47.4 107.0 L 37.9 114.2 L 27.5 121.1 L 26.4 119.6 L 35.5 111.3 L 43.8 103.1 L 51.4 94.9 L 58.3 86.7 L 64.3 78.5 L 69.6 70.3 L 74.1 62.0 L 74.32023811340332 61.5 L 21.2 61.5 L 21.2 57.5 L 76.08214282989502 57.5 L 77.8 53.6 L 80.8 45.3 L 82.73954238891602 37.80631351470947 L 82.7 37.8 L 83.4 35.1 Z M 18.4 49.3 L 18.6 44.7 L 21.9 41.5 L 23.7 41.1 L 25.4 40.6 L 27.0 39.8 L 28.5 38.8 L 29.9 37.5 L 31.2 35.8 L 32.4 33.8 L 33.5 31.3 L 34.5 28.5 L 34.7 25.2 L 36.5 25.2 L 36.8 28.5 L 36.981818199157715 29.5 L 95.5 29.5 L 95.5 13.2 L 107.5 15.2 L 110.5 17.2 L 107.5 19.0 L 107.5 29.5 L 168.0 29.5 L 168.9545454978943 28.704545497894287 L 169.7 27.4 L 170.0799569129944 27.766702556610106 L 174.0 24.5 L 185.0 33.5 L 180.0 36.5 L 169.41176471710205 40.91176471710205 L 168.7 41.3 L 166.4 42.5 L 163.8 43.7 L 161.1 45.0 L 158.2 46.3 L 155.5 47.9 L 154.4 46.5 L 156.8 44.3 L 158.8 41.9 L 160.7 39.7 L 162.4 37.5 L 164.1 35.6 L 165.5 33.7 L 165.6444444656372 33.5 L 37.45483875274658 33.5 L 37.5 34.9 L 37.2 38.0 L 36.4 41.0 L 35.3 43.8 L 33.6 46.4 L 31.5 48.8 L 29.0 50.9 L 26.2 52.7 L 21.6 52.6 Z " />
</g>
</svg>
