<svg xmlns="http://www.w3.org/2000/svg" xmlns:xlink="http://www.w3.org/1999/xlink" version="1.1" baseProfile="full" viewBox="0 0 200 200" width="200" height="200">
<g fill="black">
<path d="M 110.9 15.0 L 113.9 17.0 L 110.9 18.8 L 110.9 36.0 L 114.71818180084229 36.0 L 122.9 27.0 L 132.9 36.0 L 132.9 40.0 L 110.9 40.0 L 110.9 63.0 L 117.8 63.0 L 123.8 58.0 L 134.8 67.0 L 129.8 71.0 L 129.8 123.0 L 117.8 129.0 L 117.8 117.0 L 110.9 117.0 L 110.9 146.0 L 113.0 146.0 L 123.0 136.0 L 135.0 146.0 L 135.0 150.0 L 110.9 150.0 L 110.9 183.0 L 98.9 189.0 L 98.9 150.0 L 75.5 150.0 L 75.5 146.0 L 98.9 146.0 L 98.9 117.0 L 92.7 117.0 L 92.7 129.0 L 80.7 135.0 L 80.7 57.0 L 92.7 63.0 L 98.9 63.0 L 98.9 40.0 L 77.6 40.0 L 77.6 36.0 L 98.9 36.0 L 98.9 13.0 Z M 154.97207202911378 18.75675678253174 L 155.7 56.7 L 156.62620735168457 70.39176139831542 L 166.02170104980468 69.37603235244751 L 175.0 58.3 L 188.0 67.0 L 188.4 70.9 L 156.8914324760437 74.31248025894165 L 158.0 90.7 L 161.4 117.5 L 162.6645191192627 123.85343770980835 L 163.7 121.1 L 167.6 108.3 L 170.9392967224121 95.40660448074341 L 170.9 95.4 L 171.6 92.7 L 182.8 97.4 L 185.2 100.1 L 181.6715669631958 101.12645320892334 L 178.5 111.6 L 173.8 124.8 L 168.5 136.9 L 166.3841733932495 140.9831741333008 L 170.1 153.1 L 174.6 163.3 L 178.7 169.6 L 179.3954023361206 170.2532567024231 L 184.3 149.0 L 186.3 149.0 L 184.3744680404663 174.0319149017334 L 188.5 175.8 L 190.3 180.0 L 188.5 184.2 L 184.3 186.0 L 180.0 185.2 L 174.9 182.4 L 169.5 177.2 L 164.1 169.1 L 158.8 157.3 L 158.1728735923767 155.213844871521 L 156.6 157.7 L 149.9 166.4 L 142.7 174.0 L 135.0 180.3 L 126.8 185.2 L 118.3 188.8 L 117.5 187.1 L 124.8 182.0 L 131.6 176.1 L 137.9 169.4 L 143.9 161.8 L 149.4 153.1 L 154.6 143.5 L 154.63059520721436 143.43034715652465 L 153.9 141.0 L 149.5 119.5 L 146.0 91.8 L 144.92369470596313 75.60862512588501 L 133.0 76.9 L 132.5 73.0 L 144.66288194656372 71.6850938796997 L 143.7 57.2 L 142.9189274787903 15.998422718048095 L 142.9 16.0 L 142.9 12.6 L 154.9 15.0 L 157.9 17.0 Z M 50.1 15.0 L 53.1 17.0 L 50.1 18.8 L 50.1 182.0 L 38.1 188.0 L 38.1 13.0 Z M 92.7 92.0 L 92.7 113.0 L 117.8 113.0 L 117.8 92.0 Z M 17.5 100.5 L 14.9 96.7 L 15.6 92.2 L 17.0 90.6 L 18.3 88.5 L 19.7 85.9 L 21.1 82.9 L 22.5 79.4 L 23.8 75.5 L 25.2 71.2 L 26.5 66.5 L 27.9 61.4 L 29.2 55.9 L 31.0 56.0 L 31.1 61.7 L 31.2 67.1 L 31.1 72.2 L 30.8 76.9 L 30.3 81.3 L 29.7 85.3 L 29.0 89.1 L 28.1 92.5 L 27.0 95.7 L 25.7 98.7 L 22.0 101.2 Z M 92.7 88.0 L 117.8 88.0 L 117.8 67.0 L 92.7 67.0 Z M 62.5 77.2 L 61.9 74.4 L 61.1 71.6 L 60.2 68.7 L 59.1 65.8 L 57.8 62.8 L 55.0 56.4 L 53.1 53.3 L 54.5 52.1 L 57.1 54.7 L 59.9 57.2 L 62.4 59.7 L 64.8 62.4 L 66.9 65.1 L 68.9 67.9 L 70.7 70.7 L 72.3 73.6 L 73.7 76.6 L 74.9 79.6 L 74.2 84.1 L 70.5 86.9 L 66.0 86.1 L 63.3 82.5 L 63.0 79.9 Z M 170.0 41.8 L 169.3 39.3 L 168.4 36.8 L 166.2 31.8 L 164.9 29.4 L 163.5 26.9 L 162.0 24.5 L 160.0 22.3 L 161.2 20.9 L 163.7 22.6 L 166.4 24.1 L 168.9 25.9 L 171.3 27.8 L 173.5 30.0 L 175.6 32.3 L 177.6 34.8 L 179.4 37.5 L 181.1 40.2 L 182.6 43.2 L 182.3 47.7 L 178.9 50.8 L 174.3 50.4 L 171.2 47.0 L 170.7 44.4 Z " />
</g>
</svg>
