<svg xmlns="http://www.w3.org/2000/svg" xmlns:xlink="http://www.w3.org/1999/xlink" version="1.1" baseProfile="full" viewBox="0 0 200 200" width="200" height="200">
<g fill="black">
<path d="M 72.4 183.1 L 69.9 182.7 L 67.5 181.8 L 65.2 180.6 L 63.2 179.0 L 61.6 177.0 L 60.3 174.7 L 59.5 172.3 L 59.1 169.8 L 59.0 167.2 L 59.0 130.1 L 71.0 132.1 L 74.0 134.1 L 71.0 135.9 L 71.0 168.5 L 71.2 169.4 L 71.5 170.3 L 71.7 170.5 L 71.9 170.6 L 72.2 170.8 L 72.8 171.0 L 73.7 171.2 L 140.0 171.2 L 146.0 146.2 L 148.0 146.2 L 146.0 171.2 L 149.6 173.6 L 152.0 177.2 L 149.6 180.8 L 146.0 183.2 L 75.0 183.2 Z M 14.4 175.1 L 13.8 170.6 L 16.5 166.9 L 19.3 165.4 L 21.9 163.5 L 24.3 161.2 L 26.5 158.4 L 28.5 155.2 L 30.3 151.4 L 31.9 147.2 L 33.2 142.4 L 34.3 137.0 L 35.1 131.2 L 36.9 131.1 L 37.7 137.2 L 38.1 142.9 L 38.0 148.3 L 37.3 153.4 L 36.2 158.3 L 34.5 162.8 L 32.3 167.0 L 29.6 170.8 L 26.3 174.3 L 22.6 177.3 L 18.0 177.8 Z M 169.2 161.0 L 167.7 157.5 L 165.8 154.0 L 163.6 150.6 L 161.0 147.2 L 158.1 143.8 L 154.9 140.3 L 151.3 136.8 L 147.3 133.3 L 148.3 131.7 L 153.2 133.9 L 157.9 136.3 L 162.2 139.0 L 166.2 142.0 L 169.8 145.2 L 173.1 148.6 L 176.1 152.3 L 178.7 156.1 L 180.9 160.2 L 182.8 164.4 L 182.3 169.0 L 178.8 172.0 L 174.3 171.5 L 171.3 168.0 L 170.4 164.5 Z M 107.1 147.6 L 105.3 144.8 L 103.2 142.1 L 101.0 139.4 L 98.5 136.8 L 95.8 134.3 L 93.0 131.8 L 89.9 129.2 L 86.5 126.9 L 87.2 125.2 L 91.3 126.5 L 95.3 127.8 L 99.1 129.4 L 102.7 131.3 L 106.1 133.4 L 109.4 135.7 L 112.4 138.3 L 115.3 141.0 L 118.0 144.0 L 120.5 147.1 L 121.2 151.6 L 118.5 155.4 L 114.0 156.0 L 110.3 153.3 L 108.8 150.4 Z M 84.0 109.2 L 104.0 109.2 L 105.2 109.1 L 106.1 108.9 L 106.7 108.8 L 107.0 108.6 L 107.4 108.2 L 107.7 107.3 L 107.9 106.4 L 108.0 105.2 L 108.0 80.21846151351929 L 107.8 80.3 L 94.3 85.3 L 80.2 90.0 L 65.7 94.5 L 50.7 98.6 L 35.2 102.3 L 19.2 105.5 L 18.7 103.8 L 34.2 98.6 L 49.2 93.4 L 63.7 88.2 L 77.7 82.9 L 91.2 77.4 L 104.2 71.7 L 108.0 69.93680000305176 L 108.0 40.9 L 20.0 40.9 L 20.0 36.9 L 108.0 36.9 L 108.0 12.5 L 120.0 14.5 L 123.0 16.5 L 120.0 18.3 L 120.0 36.9 L 160.0 36.9 L 170.0 26.9 L 182.0 36.9 L 182.0 40.9 L 120.0 40.9 L 120.0 64.25 L 128.7 59.9 L 140.1 53.6 L 150.2117208480835 47.716816902160645 L 150.2 47.7 L 150.21472845077514 47.715067100524905 L 151.1 47.2 L 153.1 50.66666669845581 L 158.9 56.6 L 159.1 59.9 L 155.50620393753053 58.43811683654785 L 145.5 63.7 L 133.4 69.5 L 120.8 75.0 L 120.0 75.32615385055541 L 120.0 105.2 L 119.8 107.7 L 119.4 110.2 L 118.6 112.6 L 117.3 114.9 L 115.7 116.9 L 113.7 118.6 L 111.4 119.8 L 109.0 120.6 L 106.5 121.0 L 104.0 121.2 L 104.0 115.2 L 84.0 112.2 Z " />
</g>
</svg>
