<svg xmlns="http://www.w3.org/2000/svg" xmlns:xlink="http://www.w3.org/1999/xlink" version="1.1" baseProfile="full" viewBox="0 0 200 200" width="200" height="200">
<g fill="black">
<path d="M 73.4 182.9 L 70.9 182.5 L 68.5 181.7 L 66.2 180.5 L 64.2 178.8 L 62.6 176.8 L 61.3 174.5 L 60.5 172.1 L 60.1 169.6 L 60.0 167.1 L 60.0 138.1 L 72.0 140.1 L 75.0 142.1 L 72.0 143.9 L 72.0 168.3 L 72.2 169.2 L 72.5 170.1 L 72.9 170.5 L 73.2 170.7 L 73.8 170.8 L 74.7 171.0 L 76.0 171.1 L 141.0 171.1 L 147.0 146.1 L 149.0 146.1 L 147.0 171.1 L 150.6 173.5 L 153.0 177.1 L 150.6 180.7 L 147.0 183.1 L 76.0 183.1 Z M 15.2 175.4 L 15.0 170.8 L 18.0 167.4 L 20.9 166.2 L 23.4 164.8 L 25.8 163.0 L 27.9 161.0 L 29.8 158.5 L 31.6 155.6 L 33.1 152.2 L 34.4 148.4 L 35.5 144.1 L 36.1 139.4 L 37.9 139.3 L 38.5 144.2 L 38.9 149.0 L 38.8 153.5 L 38.1 157.8 L 36.9 162.0 L 35.2 165.8 L 33.0 169.5 L 30.3 172.7 L 27.0 175.7 L 23.3 178.2 L 18.7 178.4 Z M 170.4 164.2 L 168.9 161.4 L 167.1 158.6 L 164.9 155.7 L 162.4 152.9 L 159.4 150.0 L 156.1 147.0 L 152.5 144.0 L 148.4 141.1 L 149.2 139.5 L 154.1 141.2 L 158.7 143.0 L 162.9 145.1 L 166.8 147.4 L 170.4 149.9 L 173.7 152.6 L 176.7 155.5 L 179.3 158.6 L 181.6 161.9 L 183.5 165.4 L 183.3 170.0 L 180.0 173.2 L 175.4 173.0 L 172.3 169.7 L 171.5 167.0 Z M 108.4 153.4 L 106.6 151.1 L 104.5 148.8 L 102.3 146.6 L 99.8 144.4 L 97.1 142.2 L 94.2 140.0 L 91.0 137.7 L 87.6 135.8 L 88.2 134.1 L 92.2 135.1 L 96.1 136.0 L 99.8 137.2 L 103.3 138.6 L 106.7 140.2 L 109.9 142.0 L 112.9 144.0 L 115.8 146.1 L 118.5 148.4 L 121.0 151.0 L 122.0 155.4 L 119.7 159.4 L 115.3 160.4 L 111.3 158.1 L 110.0 155.7 Z M 116.6 125.1 L 133.8 125.1 L 134.7 124.9 L 135.3 124.7 L 135.7 124.5 L 136.0 124.2 L 136.2 123.9 L 136.4 123.3 L 136.5 122.4 L 136.6 121.1 L 136.6 110.4 L 63.3 110.4 L 63.3 130.9 L 51.3 136.9 L 51.3 64.7 L 63.3 70.7 L 136.6 70.7 L 142.6 65.7 L 153.6 74.7 L 148.6 78.7 L 148.6 121.1 L 148.5 123.7 L 148.0 126.2 L 147.2 128.6 L 146.0 130.9 L 144.3 132.9 L 142.3 134.5 L 140.1 135.7 L 137.6 136.6 L 135.2 137.0 L 132.6 137.1 L 132.6 131.1 L 116.6 128.1 Z M 63.3 92.6 L 63.3 106.4 L 136.6 106.4 L 136.6 92.6 Z M 63.3 74.7 L 63.3 88.6 L 136.6 88.6 L 136.6 74.7 Z M 13.3 80.9 L 13.0 76.3 L 16.0 72.8 L 17.9 72.1 L 19.8 71.1 L 21.6 69.7 L 23.2 68.0 L 24.8 65.8 L 26.3 63.2 L 27.5 60.1 L 28.7 56.5 L 29.7 52.4 L 30.1 47.9 L 31.9 47.8 L 32.4 52.5 L 32.672727298736575 54.9 L 47.0 54.9 L 47.0 10.2 L 59.0 16.2 L 141.0 16.2 L 147.0 11.2 L 158.0 20.2 L 153.0 24.2 L 153.0 54.9 L 170.0 54.9 L 170.63157892227173 54.37368421554565 L 171.2 53.3 L 171.57706727981568 53.585777282714844 L 176.0 49.9 L 187.0 58.9 L 182.0 61.9 L 176.50769233703613 64.1884614944458 L 175.2 65.3 L 173.0 67.0 L 170.7 68.8 L 168.2 70.6 L 165.5 72.6 L 162.7 74.5 L 159.6 76.5 L 156.6 78.8 L 155.3 77.5 L 157.8 74.6 L 159.8 71.6 L 161.7 68.8 L 163.5 66.1 L 165.2 63.6 L 166.7 61.3 L 168.1 59.0 L 168.16000003814696 58.9 L 32.94878044128418 58.9 L 33.0 61.0 L 32.7 65.0 L 32.0 68.7 L 30.8 72.3 L 29.1 75.6 L 27.0 78.6 L 24.4 81.3 L 21.3 83.5 L 16.8 83.8 Z M 59.0 20.2 L 59.0 54.9 L 92.0 54.9 L 92.0 26.8 L 104.0 32.8 L 141.0 32.8 L 141.0 20.2 Z M 104.0 36.8 L 104.0 54.9 L 141.0 54.9 L 141.0 36.8 Z " />
</g>
</svg>
