<svg xmlns="http://www.w3.org/2000/svg" xmlns:xlink="http://www.w3.org/1999/xlink" version="1.1" baseProfile="full" viewBox="0 0 200 200" width="200" height="200">
<g fill="black">
<path d="M 49.4 177.8 L 46.9 177.4 L 44.5 176.6 L 42.2 175.3 L 40.2 173.7 L 38.6 171.7 L 37.3 169.4 L 36.5 167.0 L 36.1 164.5 L 36.0 162.0 L 36.0 159.25 L 35.1 160.6 L 25.2 173.5 L 14.6 185.5 L 13.3 184.4 L 22.1 171.3 L 30.6 157.7 L 36.0 148.11499996185302 L 36.0 51.0 L 48.0 53.0 L 51.0 55.0 L 48.0 56.8 L 48.0 124.55942029953003 L 53.0 113.4 L 59.5 97.4 L 65.4 80.7 L 70.8 63.4 L 75.6 45.3 L 79.9 26.6 L 79.91361255645752 26.603141403198244 L 80.3 24.8 L 91.6 29.3 L 94.1 31.9 L 90.61590251922607 33.01988849639893 L 86.6 48.2 L 81.0 66.5 L 74.9 84.1 L 68.1 100.9 L 60.8 117.0 L 52.8 132.3 L 48.0 140.48823528289796 L 48.0 163.2 L 48.2 164.1 L 48.5 165.0 L 48.9 165.4 L 49.8 165.7 L 50.7 165.9 L 52.0 166.0 L 76.0 166.0 L 82.0 141.0 L 84.0 141.0 L 82.0 166.0 L 85.6 168.4 L 88.0 172.0 L 85.6 175.6 L 82.0 178.0 L 52.0 178.0 Z M 136.4 176.8 L 133.9 176.4 L 131.5 175.6 L 129.2 174.3 L 127.2 172.7 L 125.6 170.7 L 124.3 168.4 L 123.5 166.0 L 123.1 163.5 L 123.0 161.0 L 123.0 158.25 L 122.1 159.6 L 112.2 172.5 L 101.6 184.5 L 100.3 183.4 L 109.1 170.3 L 117.6 156.7 L 123.0 147.11499996185302 L 123.0 50.0 L 135.0 52.0 L 138.0 54.0 L 135.0 55.8 L 135.0 123.55942029953003 L 140.0 112.4 L 146.5 96.4 L 152.4 79.7 L 157.8 62.4 L 162.6 44.3 L 166.9 25.6 L 166.9136125564575 25.603141403198244 L 167.3 23.8 L 178.6 28.3 L 181.1 30.9 L 177.61590251922607 32.01988849639893 L 173.6 47.2 L 168.0 65.5 L 161.9 83.1 L 155.1 99.9 L 147.8 116.0 L 139.8 131.3 L 135.0 139.48823528289796 L 135.0 162.2 L 135.2 163.1 L 135.5 164.0 L 135.9 164.4 L 136.8 164.7 L 137.7 164.9 L 139.0 165.0 L 163.0 165.0 L 169.0 140.0 L 171.0 140.0 L 169.0 165.0 L 172.6 167.4 L 175.0 171.0 L 172.6 174.6 L 169.0 177.0 L 139.0 177.0 Z M 15.9 141.7 L 12.6 138.5 L 12.5 134.0 L 14.1 130.2 L 15.6 126.1 L 17.0 121.6 L 18.2 116.8 L 19.3 111.6 L 20.2 106.0 L 21.0 100.0 L 21.7 93.7 L 22.4 87.0 L 23.1 80.0 L 24.9 79.9 L 26.2 86.9 L 27.1 93.7 L 27.6 100.2 L 27.8 106.5 L 27.7 112.4 L 27.4 118.2 L 26.8 123.6 L 26.0 128.8 L 25.0 133.7 L 23.6 138.3 L 20.4 141.6 Z M 102.9 140.7 L 99.6 137.5 L 99.5 133.0 L 101.1 129.2 L 102.6 125.1 L 104.0 120.6 L 105.2 115.8 L 106.3 110.6 L 107.2 105.0 L 108.0 99.0 L 108.7 92.7 L 109.4 86.0 L 110.1 79.0 L 111.9 78.9 L 113.2 85.9 L 114.1 92.7 L 114.6 99.2 L 114.8 105.5 L 114.7 111.4 L 114.4 117.2 L 113.8 122.6 L 113.0 127.8 L 112.0 132.7 L 110.6 137.3 L 107.4 140.6 Z M 85.7 120.4 L 85.3 115.6 L 84.7 110.8 L 84.0 106.1 L 83.0 101.3 L 81.8 96.6 L 80.5 91.9 L 77.7 82.3 L 79.2 81.4 L 82.5 85.4 L 85.4 89.7 L 88.0 94.3 L 90.2 98.9 L 92.1 103.8 L 93.8 108.7 L 95.2 113.8 L 96.3 119.0 L 97.2 124.3 L 97.8 129.7 L 96.2 134.0 L 92.1 135.9 L 87.8 134.3 L 85.9 130.2 L 85.9 125.2 Z M 172.7 119.4 L 172.3 114.6 L 171.7 109.8 L 171.0 105.1 L 170.0 100.3 L 168.8 95.6 L 167.5 90.9 L 164.7 81.3 L 166.2 80.4 L 169.5 84.4 L 172.4 88.7 L 175.0 93.3 L 177.2 97.9 L 179.1 102.8 L 180.8 107.7 L 182.2 112.8 L 183.3 118.0 L 184.2 123.3 L 184.8 128.7 L 183.2 133.0 L 179.1 134.9 L 174.8 133.3 L 172.9 129.2 L 172.9 124.2 Z M 54.7 43.0 L 53.1 40.1 L 51.3 37.3 L 49.2 34.5 L 46.8 31.8 L 44.1 29.1 L 41.2 26.4 L 38.0 23.7 L 34.5 21.2 L 35.2 19.6 L 39.5 21.0 L 43.6 22.5 L 47.5 24.3 L 51.1 26.4 L 54.6 28.7 L 57.7 31.3 L 60.7 34.0 L 63.4 37.0 L 65.9 40.2 L 68.1 43.7 L 68.3 48.2 L 65.2 51.7 L 60.7 51.8 L 57.2 48.8 L 56.1 45.9 Z M 141.7 42.0 L 140.1 39.1 L 138.3 36.3 L 136.2 33.5 L 133.8 30.8 L 131.1 28.1 L 128.2 25.4 L 125.0 22.7 L 121.5 20.2 L 122.2 18.6 L 126.5 20.0 L 130.6 21.5 L 134.5 23.3 L 138.1 25.4 L 141.6 27.7 L 144.7 30.3 L 147.7 33.0 L 150.4 36.0 L 152.9 39.2 L 155.1 42.7 L 155.3 47.2 L 152.2 50.7 L 147.7 50.8 L 144.2 47.8 L 143.1 44.9 Z " />
</g>
</svg>
