<svg xmlns="http://www.w3.org/2000/svg" xmlns:xlink="http://www.w3.org/1999/xlink" version="1.1" baseProfile="full" viewBox="0 0 200 200" width="200" height="200">
<g fill="black">
<path d="M 147.0 143.8 L 149.0 143.8 L 147.0 168.8 L 150.6 171.2 L 153.0 174.8 L 150.6 178.4 L 147.0 180.8 L 76.0 180.8 L 73.4 180.6 L 70.9 180.2 L 68.5 179.4 L 66.2 178.1 L 64.2 176.5 L 62.6 174.5 L 61.3 172.2 L 60.5 169.8 L 60.1 167.3 L 60.0 164.8 L 60.0 120.2 L 72.0 122.2 L 75.0 124.2 L 72.0 126.0 L 72.0 166.0 L 72.2 166.9 L 72.5 167.8 L 72.9 168.2 L 73.8 168.5 L 74.7 168.7 L 76.0 168.8 L 141.0 168.8 Z M 15.5 172.2 L 14.6 167.8 L 17.0 163.9 L 19.9 162.0 L 22.6 159.7 L 25.0 156.9 L 27.3 153.5 L 29.3 149.6 L 31.1 145.0 L 32.7 139.9 L 34.0 134.3 L 35.1 128.0 L 36.1 121.2 L 37.9 121.1 L 38.9 128.1 L 39.3 134.7 L 39.1 141.0 L 38.5 146.8 L 37.3 152.3 L 35.7 157.5 L 33.5 162.2 L 30.8 166.5 L 27.6 170.4 L 23.8 173.8 L 19.3 174.7 Z M 170.1 155.5 L 168.5 151.4 L 166.6 147.3 L 164.3 143.4 L 161.7 139.4 L 158.8 135.5 L 155.6 131.6 L 152.1 127.6 L 148.3 123.6 L 149.3 122.1 L 154.4 124.7 L 159.1 127.6 L 163.5 130.9 L 167.5 134.5 L 171.1 138.3 L 174.4 142.4 L 177.3 146.7 L 179.9 151.2 L 182.1 155.9 L 184.0 160.9 L 183.3 165.4 L 179.7 168.2 L 175.2 167.5 L 172.4 163.9 L 171.4 159.7 Z M 108.0 139.7 L 106.1 136.5 L 104.0 133.4 L 101.7 130.3 L 99.3 127.4 L 96.6 124.5 L 93.8 121.7 L 90.7 118.8 L 87.4 116.2 L 88.3 114.6 L 92.4 116.1 L 96.4 117.8 L 100.3 119.8 L 103.9 122.1 L 107.4 124.6 L 110.7 127.4 L 113.8 130.5 L 116.7 133.7 L 119.4 137.2 L 121.9 141.0 L 122.2 145.5 L 119.3 149.1 L 114.8 149.4 L 111.2 146.5 L 109.7 143.1 Z M 54.5 19.8 L 148.2 19.8 L 154.2 14.8 L 165.2 23.8 L 160.2 27.8 L 160.2 102.6 L 148.2 108.6 L 148.2 100.6 L 54.5 100.6 L 54.5 112.6 L 42.5 118.6 L 42.5 13.8 Z M 54.5 23.8 L 54.5 96.6 L 148.2 96.6 L 148.2 23.8 Z M 109.71616163253785 33.23030300140381 L 109.3 37.6 L 107.6 45.6 L 104.9 53.2 L 103.1704626083374 56.56298933029175 L 104.7 57.0 L 110.0 58.8 L 114.9 60.9 L 119.6 63.3 L 124.0 65.7 L 128.1 68.4 L 132.0 71.2 L 135.5 74.2 L 138.8 77.3 L 141.8 80.6 L 142.9 85.1 L 140.5 89.0 L 136.1 90.0 L 132.1 87.7 L 130.1 84.7 L 127.9 81.6 L 125.2 78.6 L 122.3 75.5 L 119.1 72.5 L 115.5 69.5 L 111.7 66.5 L 107.5 63.4 L 103.1 60.2 L 101.75957450866699 59.306382942199704 L 101.3 60.2 L 96.8 66.7 L 91.3 72.7 L 85.1 78.1 L 78.0 82.9 L 70.1 87.1 L 61.3 90.6 L 60.5 88.9 L 68.2 83.8 L 74.9 78.5 L 80.8 73.1 L 85.7 67.6 L 89.8 61.8 L 93.1 55.8 L 95.5 49.6 L 97.2 43.1 L 98.0 36.3 L 98.1 29.2 L 98.1 26.8 L 110.1 29.2 L 113.1 31.2 Z " />
</g>
</svg>
