<svg xmlns="http://www.w3.org/2000/svg" xmlns:xlink="http://www.w3.org/1999/xlink" version="1.1" baseProfile="full" viewBox="0 0 200 200" width="200" height="200">
<g fill="black">
<path d="M 73.4 181.2 L 70.9 180.8 L 68.5 180.0 L 66.2 178.7 L 64.2 177.1 L 62.6 175.1 L 61.3 172.8 L 60.5 170.4 L 60.1 167.9 L 60.0 165.4 L 60.0 134.8 L 72.0 136.8 L 75.0 138.8 L 72.0 140.6 L 72.0 166.6 L 72.2 167.5 L 72.5 168.4 L 72.9 168.8 L 73.8 169.1 L 74.7 169.3 L 76.0 169.4 L 141.0 169.4 L 147.0 144.4 L 149.0 144.4 L 147.0 169.4 L 150.6 171.8 L 153.0 175.4 L 150.6 179.0 L 147.0 181.4 L 76.0 181.4 Z M 15.3 173.6 L 15.0 169.0 L 17.9 165.5 L 20.8 164.3 L 23.3 162.8 L 25.7 161.0 L 27.8 158.8 L 29.8 156.1 L 31.5 153.1 L 33.0 149.5 L 34.3 145.5 L 35.5 141.0 L 36.1 136.1 L 37.9 136.0 L 38.5 141.2 L 38.9 146.1 L 38.8 150.8 L 38.1 155.3 L 37.0 159.5 L 35.3 163.5 L 33.1 167.2 L 30.3 170.6 L 27.1 173.7 L 23.3 176.3 L 18.8 176.5 Z M 170.3 161.8 L 168.9 158.9 L 167.0 156.0 L 164.8 153.0 L 162.3 150.1 L 159.4 147.1 L 156.1 144.0 L 152.5 140.9 L 148.4 137.9 L 149.3 136.3 L 154.1 138.1 L 158.7 140.0 L 163.0 142.2 L 166.9 144.6 L 170.5 147.3 L 173.8 150.1 L 176.7 153.1 L 179.4 156.4 L 181.7 159.9 L 183.6 163.5 L 183.3 168.1 L 180.0 171.2 L 175.4 170.9 L 172.3 167.6 L 171.5 164.7 Z M 108.3 150.6 L 106.5 148.2 L 104.5 145.8 L 102.2 143.5 L 99.7 141.2 L 97.0 139.0 L 94.1 136.7 L 91.0 134.4 L 87.6 132.4 L 88.2 130.7 L 92.2 131.8 L 96.1 132.7 L 99.8 134.0 L 103.4 135.5 L 106.8 137.2 L 110.0 139.1 L 113.0 141.1 L 115.9 143.4 L 118.6 145.9 L 121.1 148.5 L 122.1 153.0 L 119.7 156.9 L 115.2 157.8 L 111.3 155.5 L 109.9 153.0 Z M 122.3 75.5 L 123.4 78.9 L 119.36416091918946 79.1328369140625 L 115.67325582504273 83.7 L 168.11818180084228 83.7 L 176.3 74.7 L 186.3 83.7 L 186.3 87.7 L 153.55652170181276 87.7 L 153.4 88.0 L 149.1 95.7 L 143.5 102.6 L 137.85069799423218 107.66775617599487 L 141.3 108.6 L 148.6 110.9 L 155.7 113.6 L 162.7 116.6 L 169.6 119.9 L 172.4 123.5 L 171.9 128.0 L 168.3 130.8 L 163.8 130.3 L 157.6 126.7 L 151.3 123.4 L 144.9 120.2 L 138.2 117.4 L 131.4 114.7 L 128.9888334274292 113.87331428527833 L 128.8 114.0 L 119.7 118.6 L 109.6 122.5 L 98.3 125.7 L 85.9 128.2 L 72.4 129.9 L 57.7 130.8 L 57.5 129.0 L 71.8 126.1 L 84.8 122.9 L 96.5 119.4 L 106.9 115.4 L 116.0 111.0 L 117.5129180908203 110.06897344589234 L 117.3 110.0 L 109.9 108.0 L 102.4 106.0 L 98.4411771774292 105.02314758300781 L 94.5 109.9 L 81.4 107.0 L 96.99211826324463 87.7 L 62.8 87.7 L 62.8 83.7 L 100.22364530563354 83.7 L 109.43349752426147 72.3 L 75.3 72.3 L 75.3 68.3 L 112.66502466201783 68.3 L 114.2 66.4 L 114.5 66.73703699111938 L 114.5 56.9 L 65.0 56.9 L 65.0 55.5764705657959 L 63.2 59.0 L 58.5 67.7 L 54.2 75.6 L 50.4 82.6 L 47.2 88.7 L 44.4 94.1 L 42.2 98.6 L 40.6 102.2 L 39.6 104.9 L 39.43114757537842 105.57540979385377 L 41.3 109.5 L 42.7 114.3 L 43.5 119.4 L 43.5 124.9 L 41.3 128.9 L 36.9 130.2 L 32.9 128.0 L 31.6 123.6 L 32.2 119.4 L 32.3 115.7 L 32.0 112.2 L 31.3 109.1 L 30.1 106.2 L 28.4 103.5 L 26.1 100.9 L 23.1 98.4 L 19.5 96.1 L 15.1 94.2 L 15.5 92.4 L 20.5 93.2 L 25.2 94.3 L 29.4 96.1 L 31.067144680023194 97.15293350219727 L 31.1 97.1 L 33.5 93.6 L 36.4 89.3 L 39.9 84.3 L 44.0 78.6 L 48.7 72.1 L 54.0 64.8 L 60.1 56.9 L 66.8 48.3 L 68.3 49.3 L 66.40721645355225 52.9 L 114.5 52.9 L 114.5 42.8 L 75.3 42.8 L 75.3 38.8 L 114.5 38.8 L 114.5 28.7 L 62.8 28.7 L 62.8 24.7 L 114.5 24.7 L 114.5 11.7 L 126.5 13.7 L 129.5 15.7 L 126.5 17.5 L 126.5 24.7 L 165.9181818008423 24.7 L 174.1 15.7 L 184.1 24.7 L 184.1 28.7 L 126.5 28.7 L 126.5 38.8 L 150.7 38.8 L 156.7 33.8 L 167.7 42.8 L 162.7 46.8 L 162.7 52.9 L 168.11818180084228 52.9 L 176.3 43.9 L 186.3 52.9 L 186.3 56.9 L 162.7 56.9 L 162.7 72.3 L 150.7 78.3 L 150.7 72.3 L 119.45164833068847 72.3 Z M 112.44069766998291 87.7 L 100.6418604850769 102.3 L 102.9 102.3 L 110.9 102.7 L 118.7 103.6 L 125.57913274765015 104.77669372558594 L 130.3 101.0 L 135.5 95.5 L 139.5 89.6 L 140.32820510864258 87.7 Z M 126.5 56.9 L 126.5 68.3 L 150.7 68.3 L 150.7 56.9 Z M 32.4 61.2 L 31.2 59.8 L 29.7 58.4 L 27.9 56.9 L 25.7 55.4 L 23.1 53.8 L 20.3 52.2 L 17.1 50.5 L 13.6 49.3 L 14.0 47.5 L 17.8 48.1 L 21.5 48.4 L 24.9 48.8 L 28.1 49.4 L 31.0 50.1 L 33.8 51.0 L 36.4 52.0 L 38.8 53.1 L 41.0 54.5 L 43.1 56.2 L 44.3 60.6 L 42.1 64.6 L 37.7 65.8 L 33.6 63.6 L 33.2 62.5 Z M 126.5 42.8 L 126.5 52.9 L 150.7 52.9 L 150.7 42.8 Z M 45.5 30.5 L 44.3 29.0 L 42.7 27.6 L 40.9 26.1 L 38.8 24.5 L 36.4 23.0 L 33.8 21.4 L 30.9 19.7 L 27.6 18.5 L 28.1 16.7 L 31.6 17.3 L 35.0 17.6 L 38.3 18.0 L 41.3 18.6 L 44.2 19.4 L 46.9 20.2 L 49.4 21.2 L 51.8 22.4 L 54.0 23.7 L 56.1 25.2 L 57.5 29.6 L 55.5 33.7 L 51.1 35.1 L 47.0 33.1 L 46.4 31.8 Z " />
</g>
</svg>
