<svg xmlns="http://www.w3.org/2000/svg" xmlns:xlink="http://www.w3.org/1999/xlink" version="1.1" baseProfile="full" viewBox="0 0 200 200" width="200" height="200">
<g fill="black">
<path d="M 51.5 15.0 L 54.5 17.0 L 51.5 18.8 L 51.5 182.0 L 39.5 188.0 L 39.5 13.0 Z M 101.0 182.0 L 89.0 188.0 L 89.0 118.0 L 101.0 120.0 L 104.0 122.0 L 101.0 123.8 L 101.0 171.0 L 127.0 171.0 L 127.0 102.0 L 77.0 102.0 L 77.0 98.0 L 127.0 98.0 L 127.0 50.0 L 104.77575759887695 50.0 L 104.0 51.6 L 100.5 58.2 L 96.7 64.6 L 92.4 70.8 L 87.8 76.7 L 82.7 82.5 L 81.2 81.4 L 84.6 74.7 L 87.8 68.0 L 90.9 61.4 L 93.7 54.8 L 96.3 48.2 L 98.5 41.6 L 100.5 35.0 L 102.3 28.3 L 103.7 21.6 L 104.72308435440064 15.802521800994873 L 104.7 15.8 L 105.2 12.9 L 116.6 17.1 L 119.2 19.6 L 115.63779973983765 20.895345592498778 L 114.8 24.2 L 112.6 31.3 L 110.1 38.2 L 107.2 45.0 L 106.71515150070191 46.0 L 155.0 46.0 L 165.0 36.0 L 177.0 46.0 L 177.0 50.0 L 139.0 50.0 L 139.0 98.0 L 167.0 98.0 L 177.0 88.0 L 189.0 98.0 L 189.0 102.0 L 139.0 102.0 L 139.0 171.0 L 164.0 171.0 L 164.0 117.0 L 176.0 119.0 L 179.0 121.0 L 176.0 122.8 L 176.0 179.0 L 164.0 185.0 L 164.0 175.0 L 101.0 175.0 Z M 20.0 100.5 L 17.4 96.8 L 18.0 92.3 L 19.3 90.6 L 20.7 88.5 L 22.0 85.9 L 23.4 82.9 L 24.7 79.4 L 26.0 75.5 L 27.3 71.2 L 28.6 66.5 L 30.0 61.4 L 31.2 55.9 L 33.0 56.0 L 33.2 61.7 L 33.3 67.1 L 33.2 72.1 L 32.9 76.8 L 32.5 81.2 L 32.0 85.2 L 31.3 89.0 L 30.5 92.4 L 29.5 95.6 L 28.3 98.5 L 24.5 101.2 Z M 62.9 77.1 L 62.3 74.4 L 61.6 71.6 L 60.7 68.7 L 59.7 65.7 L 58.5 62.7 L 57.3 59.6 L 55.9 56.4 L 54.1 53.3 L 55.5 52.2 L 58.1 54.8 L 60.8 57.2 L 63.2 59.8 L 65.5 62.4 L 67.5 65.2 L 69.4 67.9 L 71.2 70.8 L 72.7 73.7 L 74.1 76.6 L 75.3 79.7 L 74.5 84.2 L 70.8 86.9 L 66.3 86.1 L 63.6 82.4 L 63.3 79.8 Z " />
</g>
</svg>
