<svg xmlns="http://www.w3.org/2000/svg" xmlns:xlink="http://www.w3.org/1999/xlink" version="1.1" baseProfile="full" viewBox="0 0 200 200" width="200" height="200">
<g fill="black">
<path d="M 38.0 28.0 L 41.0 30.0 L 38.0 31.8 L 38.0 162.0 L 153.0 162.0 L 163.0 152.0 L 175.0 162.0 L 175.0 166.0 L 38.0 166.0 L 38.0 178.0 L 26.0 184.0 L 26.0 26.0 Z M 94.8 143.2 L 92.3 142.8 L 89.9 142.0 L 87.7 140.9 L 85.7 139.3 L 84.0 137.4 L 82.8 135.2 L 81.9 132.8 L 81.5 130.3 L 81.3 127.8 L 81.3 50.4 L 93.3 52.4 L 96.3 54.4 L 93.3 56.2 L 93.3 129.0 L 93.4 129.9 L 93.5 130.6 L 93.7 130.9 L 93.8 131.2 L 94.0 131.4 L 94.4 131.7 L 95.0 131.9 L 96.0 132.1 L 97.3 132.3 L 141.0 132.3 L 146.5 111.3 L 148.5 111.3 L 146.5 132.3 L 149.8 134.5 L 152.0 137.8 L 149.8 141.1 L 146.5 143.3 L 97.3 143.3 Z M 45.6 118.3 L 44.6 113.9 L 47.0 109.9 L 49.0 108.5 L 51.1 106.5 L 53.2 103.8 L 55.1 100.4 L 57.0 96.3 L 58.7 91.5 L 60.2 86.1 L 61.6 79.9 L 62.9 73.2 L 64.2 65.7 L 66.0 65.8 L 66.7 73.4 L 66.9 80.5 L 66.7 87.1 L 66.1 93.1 L 65.1 98.7 L 63.8 103.9 L 62.0 108.5 L 59.9 112.7 L 57.2 116.5 L 54.0 119.7 L 49.5 120.7 Z M 163.9 96.9 L 162.8 92.8 L 161.4 88.9 L 159.8 84.9 L 157.9 81.0 L 155.6 77.1 L 153.2 73.2 L 150.4 69.3 L 147.4 65.3 L 148.6 63.9 L 152.9 66.7 L 156.9 69.8 L 160.6 73.2 L 163.9 76.8 L 166.9 80.7 L 169.6 84.8 L 172.0 89.1 L 174.0 93.6 L 175.7 98.3 L 177.0 103.2 L 176.0 107.6 L 172.1 110.1 L 167.7 109.0 L 165.2 105.2 L 164.7 101.0 Z M 114.7 41.8 L 112.9 38.6 L 110.8 35.4 L 108.4 32.4 L 105.8 29.4 L 102.9 26.5 L 99.6 23.6 L 96.1 20.8 L 92.3 18.1 L 93.0 16.4 L 97.6 17.9 L 102.1 19.5 L 106.4 21.5 L 110.3 23.8 L 114.0 26.5 L 117.5 29.4 L 120.7 32.6 L 123.6 36.1 L 126.2 39.9 L 128.6 43.9 L 128.6 48.5 L 125.5 51.8 L 120.9 51.8 L 117.6 48.7 L 116.3 45.2 Z " />
</g>
</svg>
