<svg xmlns="http://www.w3.org/2000/svg" xmlns:xlink="http://www.w3.org/1999/xlink" version="1.1" baseProfile="full" viewBox="0 0 200 200" width="200" height="200">
<g fill="black">
<path d="M 158.6 47.7 L 158.0 45.9 L 157.3 44.1 L 156.4 42.3 L 155.2 40.4 L 153.9 38.4 L 152.4 36.4 L 150.7 34.2 L 149.40588235855103 33.2 L 147.37906980514526 33.2 L 146.1 35.4 L 143.3 39.5 L 140.2 43.4 L 136.9 47.0 L 133.3 50.4 L 129.3 53.4 L 125.59411764144897 55.782352924346924 L 136.5 57.6 L 139.5 59.6 L 136.5 61.4 L 136.5 80.8 L 164.8 80.8 L 174.8 70.8 L 186.8 80.8 L 186.8 84.8 L 139.51000003814698 84.8 L 143.5 86.7 L 147.9 88.7 L 152.5 90.8 L 157.3 92.7 L 162.4 94.7 L 167.7 96.5 L 173.3 98.3 L 179.2 100.0 L 185.4 101.6 L 193.2 103.9 L 181.6 114.2 L 175.3 111.8 L 169.2 109.3 L 163.5 106.7 L 158.2 104.0 L 153.1 101.1 L 148.4 98.1 L 144.1 94.9 L 140.2 91.6 L 136.7 88.0 L 136.5 87.7214285850525 L 136.5 111.3 L 124.9 117.1 L 159.8 117.1 L 165.8 112.1 L 176.8 121.1 L 171.8 125.1 L 171.8 181.0 L 159.8 187.0 L 159.8 177.0 L 101.1 177.0 L 101.1 184.0 L 89.1 190.0 L 89.1 111.1 L 101.1 117.1 L 124.5 117.1 L 124.5 93.11800003051758 L 123.4 93.8 L 118.2 96.7 L 112.7 99.4 L 106.9 102.0 L 100.9 104.3 L 94.6 106.5 L 87.9 108.3 L 81.0 109.9 L 73.7 111.1 L 73.2 109.4 L 79.8 106.3 L 86.1 103.3 L 92.1 100.4 L 97.8 97.4 L 103.2 94.4 L 108.3 91.3 L 113.0 88.1 L 117.4 84.9 L 117.51904764175416 84.8 L 80.01111106872558 84.8 L 80.0 84.9 L 76.5 87.8 L 71.9 87.3 L 69.0 83.8 L 68.5 81.2 L 67.9 78.5 L 67.0 75.8 L 65.9 73.0 L 64.7 70.1 L 63.2 67.1 L 61.5 64.0 L 59.7 60.8 L 57.7 57.5 L 55.3 54.3 L 56.5 53.0 L 59.8 55.5 L 63.0 57.9 L 65.9 60.4 L 68.6 63.1 L 71.2 65.8 L 73.4 68.5 L 75.5 71.4 L 77.4 74.3 L 79.0 77.3 L 80.5 80.4 L 80.45555553436279 80.8 L 124.5 80.8 L 124.5 55.6 L 124.73835620880126 55.639726066589354 L 124.0 54.7 L 126.8 50.8 L 129.5 46.9 L 131.9 43.1 L 134.2 39.2 L 136.2 35.2 L 137.9 31.2 L 139.5 27.1 L 140.8 22.8 L 141.9 18.5 L 142.53533782958985 15.005642127990722 L 142.5 15.0 L 143.1 12.3 L 154.4 16.9 L 156.9 19.5 L 153.07095975875853 20.73076295852661 L 152.7 21.8 L 150.8 26.5 L 149.50869569778442 29.2 L 168.61818180084228 29.2 L 176.8 20.2 L 186.8 29.2 L 186.8 33.2 L 154.43000001907347 33.2 L 154.7 33.3 L 157.2 34.5 L 159.5 35.9 L 161.7 37.3 L 163.8 38.9 L 165.7 40.7 L 167.4 42.6 L 169.0 44.6 L 170.4 46.8 L 170.2 51.4 L 166.9 54.5 L 162.3 54.3 L 159.2 51.0 L 158.9 49.3 Z M 50.2 16.0 L 53.2 18.0 L 50.2 19.8 L 50.2 183.0 L 38.2 189.0 L 38.2 14.0 Z M 101.1 157.6 L 101.1 173.0 L 159.8 173.0 L 159.8 157.6 Z M 101.1 139.3 L 101.1 153.6 L 159.8 153.6 L 159.8 139.3 Z M 101.1 121.1 L 101.1 135.3 L 159.8 135.3 L 159.8 121.1 Z M 11.7 101.3 L 9.5 97.3 L 10.7 92.9 L 12.2 91.3 L 13.8 89.2 L 15.4 86.6 L 17.0 83.7 L 18.6 80.2 L 20.1 76.4 L 21.6 72.1 L 23.2 67.4 L 24.7 62.3 L 26.1 56.8 L 27.9 57.0 L 27.9 68.2 L 27.6 73.3 L 27.1 78.1 L 26.4 82.5 L 25.5 86.6 L 24.5 90.5 L 23.2 94.0 L 21.8 97.3 L 20.1 100.3 L 16.1 102.5 Z M 101.0 75.4 L 100.0 74.0 L 98.8 72.4 L 97.4 70.7 L 95.7 69.0 L 93.9 67.3 L 91.9 65.4 L 89.7 63.5 L 87.1 61.9 L 87.9 60.3 L 90.7 61.4 L 93.7 62.0 L 96.4 62.9 L 99.0 63.7 L 101.5 64.7 L 103.8 65.7 L 106.0 66.8 L 108.0 68.0 L 109.9 69.3 L 111.7 70.7 L 112.9 75.1 L 110.7 79.1 L 106.3 80.3 L 102.3 78.1 L 101.7 76.8 Z M 174.7 66.6 L 175.0 70.2 L 170.9543932914734 68.72887029647828 L 169.9 69.3 L 167.3 70.6 L 164.6 71.9 L 161.8 73.2 L 158.9 74.5 L 155.8 75.8 L 152.6 77.0 L 149.3 78.1 L 146.0 79.5 L 145.1 78.0 L 147.9 75.8 L 150.5 73.4 L 153.0 71.1 L 155.4 69.0 L 159.8 64.8 L 165.5 59.1 L 166.5172553062439 58.022906112670896 L 166.4 57.9 L 167.3 57.2 Z M 106.8 47.7 L 106.3 45.9 L 105.6 44.1 L 104.6 42.3 L 103.5 40.4 L 102.2 38.4 L 100.6 36.4 L 99.0 34.2 L 97.70588235855102 33.2 L 95.97608699798585 33.2 L 94.4 36.1 L 91.7 40.5 L 88.6 44.7 L 85.3 48.7 L 81.7 52.5 L 77.8 56.0 L 73.5 59.1 L 72.2 57.9 L 75.0 53.5 L 77.6 49.2 L 80.0 44.9 L 82.3 40.7 L 84.3 36.4 L 86.1 32.1 L 87.7 27.7 L 89.0 23.2 L 90.1 18.7 L 90.80153360366822 15.114383888244628 L 90.7 15.1 L 91.4 12.3 L 102.7 16.8 L 105.1 19.4 L 101.4333333015442 20.6 L 101.0 21.9 L 99.1 26.8 L 97.97659578323365 29.2 L 116.21818180084229 29.2 L 124.4 20.2 L 134.4 29.2 L 134.4 33.2 L 102.63999996185302 33.2 L 102.9 33.3 L 105.4 34.5 L 107.8 35.9 L 110.0 37.3 L 112.1 38.9 L 114.0 40.7 L 115.7 42.6 L 117.3 44.6 L 118.7 46.8 L 118.4 51.4 L 115.1 54.5 L 110.6 54.3 L 107.4 51.0 L 107.2 49.3 Z " />
</g>
</svg>
