<svg xmlns="http://www.w3.org/2000/svg" xmlns:xlink="http://www.w3.org/1999/xlink" version="1.1" baseProfile="full" viewBox="0 0 200 200" width="200" height="200">
<g fill="black">
<path d="M 147.0 149.2 L 149.0 149.2 L 147.0 174.2 L 150.6 176.6 L 153.0 180.2 L 150.6 183.7 L 147.0 186.2 L 76.0 186.2 L 73.4 186.0 L 70.9 185.6 L 68.5 184.8 L 66.2 183.5 L 64.2 181.9 L 62.6 179.9 L 61.3 177.6 L 60.5 175.2 L 60.1 172.7 L 60.0 170.2 L 60.0 137.1 L 72.0 139.1 L 75.0 141.1 L 72.0 142.9 L 72.0 171.4 L 72.2 172.3 L 72.5 173.2 L 72.9 173.6 L 73.8 173.9 L 74.7 174.1 L 76.0 174.2 L 141.0 174.2 Z M 15.3 178.3 L 14.9 173.7 L 17.8 170.1 L 20.6 168.8 L 23.2 167.1 L 25.5 165.1 L 27.7 162.7 L 29.7 159.9 L 31.4 156.5 L 33.0 152.7 L 34.3 148.4 L 35.4 143.6 L 36.1 138.3 L 37.9 138.2 L 38.6 143.7 L 39.0 148.9 L 38.9 153.9 L 38.2 158.6 L 37.1 163.1 L 35.4 167.3 L 33.2 171.2 L 30.4 174.8 L 27.2 178.0 L 23.4 180.7 L 18.9 181.1 Z M 170.3 165.6 L 168.8 162.4 L 166.9 159.3 L 164.7 156.2 L 162.2 153.0 L 159.3 149.9 L 156.0 146.7 L 152.4 143.4 L 148.4 140.2 L 149.3 138.6 L 154.1 140.6 L 158.8 142.7 L 163.1 145.1 L 167.0 147.7 L 170.6 150.6 L 173.9 153.6 L 176.9 156.9 L 179.5 160.4 L 181.8 164.1 L 183.7 168.0 L 183.3 172.5 L 179.9 175.6 L 175.4 175.2 L 172.3 171.8 L 171.4 168.7 Z M 108.2 153.5 L 106.4 151.0 L 104.4 148.5 L 102.1 146.0 L 99.7 143.6 L 97.0 141.2 L 94.1 138.9 L 91.0 136.5 L 87.5 134.3 L 88.2 132.7 L 96.2 134.9 L 99.9 136.3 L 103.5 138.0 L 106.9 139.8 L 110.1 141.9 L 113.2 144.1 L 116.1 146.6 L 118.8 149.2 L 121.3 152.1 L 122.1 156.5 L 119.6 160.4 L 115.1 161.2 L 111.3 158.7 L 109.9 156.1 Z M 21.3 132.9 L 21.5 128.4 L 24.7 125.2 L 27.4 124.4 L 29.9 123.5 L 32.2 122.3 L 34.3 120.8 L 36.2 119.1 L 38.0 117.0 L 39.7 114.6 L 41.2 111.8 L 42.5 108.6 L 43.3 104.9 L 45.1 105.0 L 45.2 108.9 L 45.2 112.7 L 44.8 116.4 L 43.9 120.0 L 42.6 123.3 L 40.7 126.5 L 38.4 129.4 L 35.7 132.1 L 32.5 134.4 L 29.0 136.4 L 24.4 136.2 Z M 164.9 127.3 L 163.7 125.0 L 162.1 122.6 L 160.1 120.1 L 157.7 117.5 L 155.0 114.7 L 151.9 111.8 L 148.5 108.8 L 144.5 105.9 L 145.4 104.3 L 150.0 106.3 L 154.3 108.1 L 158.3 110.0 L 162.0 112.1 L 165.4 114.2 L 168.4 116.5 L 171.1 118.9 L 173.5 121.4 L 175.6 124.0 L 177.4 126.9 L 177.2 131.5 L 174.0 134.7 L 169.4 134.5 L 166.2 131.3 L 165.7 129.4 Z M 119.4 125.2 L 119.0 123.4 L 118.2 121.3 L 117.1 119.1 L 115.6 116.8 L 113.8 114.3 L 111.6 111.8 L 109.1 109.0 L 106.0 106.6 L 107.0 105.0 L 110.6 106.9 L 114.1 108.5 L 117.3 110.3 L 120.2 112.1 L 122.8 114.2 L 125.1 116.3 L 127.2 118.6 L 128.9 121.2 L 130.3 123.9 L 131.4 126.8 L 130.2 131.2 L 126.2 133.5 L 121.8 132.3 L 119.5 128.4 L 119.6 126.9 Z M 80.3 133.5 L 76.4 131.2 L 75.2 126.8 L 75.7 125.3 L 76.1 123.8 L 76.2 122.2 L 76.1 120.3 L 75.8 118.4 L 75.2 116.2 L 74.3 113.9 L 73.0 111.5 L 71.5 108.9 L 69.4 106.6 L 70.5 105.2 L 73.2 107.2 L 75.9 108.9 L 78.3 110.8 L 80.5 112.8 L 82.4 115.0 L 84.0 117.3 L 85.3 119.9 L 86.2 122.6 L 86.8 125.4 L 87.1 128.4 L 84.7 132.3 Z M 165.0 22.7 L 177.0 32.7 L 177.0 36.7 L 150.0 36.7 L 150.0 65.3 L 161.0 65.3 L 171.0 55.3 L 183.0 65.3 L 183.0 69.3 L 150.0 69.3 L 150.0 97.0 L 159.0 97.0 L 169.0 87.0 L 181.0 97.0 L 181.0 101.0 L 19.0 101.0 L 19.0 97.0 L 45.0 97.0 L 45.0 69.3 L 16.0 69.3 L 16.0 65.3 L 45.0 65.3 L 45.0 41.46730766296387 L 41.3 44.1 L 35.6 47.8 L 29.6 51.5 L 23.3 55.0 L 16.4 58.4 L 15.5 56.9 L 21.1 51.9 L 26.5 47.1 L 31.7 42.6 L 36.5 38.2 L 41.1 33.9 L 45.3 29.7 L 49.1 25.6 L 52.6 21.6 L 55.8 17.6 L 58.007047176361084 14.604721641540527 L 58.0 14.6 L 58.1692307472229 14.384615421295166 L 58.6 13.8 L 58.61756191253662 13.814012145996093 L 59.1 13.2 L 68.0 21.3 L 69.1 24.7 L 65.27833061218261 24.17287321090698 L 64.4 25.1 L 60.4 29.0 L 56.213157939910886 32.7 L 155.0 32.7 Z M 57.0 69.3 L 57.0 97.0 L 76.0 97.0 L 76.0 69.3 Z M 88.0 69.3 L 88.0 97.0 L 107.0 97.0 L 107.0 69.3 Z M 119.0 69.3 L 119.0 97.0 L 138.0 97.0 L 138.0 69.3 Z M 57.0 36.7 L 57.0 65.3 L 76.0 65.3 L 76.0 36.7 Z M 88.0 36.7 L 88.0 65.3 L 107.0 65.3 L 107.0 36.7 Z M 119.0 36.7 L 119.0 65.3 L 138.0 65.3 L 138.0 36.7 Z " />
</g>
</svg>
