<svg xmlns="http://www.w3.org/2000/svg" xmlns:xlink="http://www.w3.org/1999/xlink" version="1.1" baseProfile="full" viewBox="0 0 200 200" width="200" height="200">
<g fill="black">
<path d="M 73.4 181.8 L 70.9 181.4 L 68.5 180.6 L 66.2 179.3 L 64.2 177.7 L 62.6 175.7 L 61.3 173.4 L 60.5 171.0 L 60.1 168.5 L 60.0 166.0 L 60.0 124.0 L 72.0 126.0 L 75.0 128.0 L 72.0 129.8 L 72.0 167.2 L 72.2 168.1 L 72.5 169.0 L 72.9 169.4 L 73.8 169.7 L 74.7 169.9 L 76.0 170.0 L 141.0 170.0 L 147.0 145.0 L 149.0 145.0 L 147.0 170.0 L 150.6 172.4 L 153.0 176.0 L 150.6 179.6 L 147.0 182.0 L 76.0 182.0 Z M 15.4 173.6 L 14.7 169.1 L 17.2 165.3 L 20.0 163.5 L 22.7 161.4 L 25.1 158.7 L 27.4 155.6 L 29.4 151.9 L 31.2 147.6 L 32.7 142.8 L 34.0 137.4 L 35.2 131.5 L 36.1 125.0 L 37.9 124.9 L 38.8 131.6 L 39.2 137.9 L 39.1 143.8 L 38.4 149.5 L 37.3 154.7 L 35.6 159.6 L 33.5 164.2 L 30.8 168.4 L 27.5 172.1 L 23.7 175.3 L 19.2 176.1 Z M 170.1 157.7 L 168.5 153.8 L 166.6 150.0 L 164.4 146.2 L 161.8 142.4 L 158.9 138.7 L 155.7 134.9 L 152.2 131.1 L 148.3 127.3 L 149.3 125.8 L 154.3 128.2 L 159.1 131.0 L 163.4 134.1 L 167.4 137.4 L 171.0 141.0 L 174.3 144.9 L 177.2 149.0 L 179.8 153.2 L 182.1 157.7 L 183.9 162.4 L 183.3 167.0 L 179.8 169.8 L 175.2 169.2 L 172.4 165.7 L 171.4 161.7 Z M 108.0 142.8 L 106.2 139.7 L 104.1 136.7 L 101.8 133.8 L 99.4 131.0 L 96.7 128.2 L 93.8 125.5 L 90.8 122.7 L 87.4 120.2 L 88.2 118.6 L 92.3 120.0 L 96.4 121.6 L 100.2 123.4 L 103.8 125.6 L 107.3 128.0 L 110.6 130.6 L 113.7 133.5 L 116.6 136.6 L 119.3 139.9 L 121.8 143.4 L 122.2 148.0 L 119.4 151.6 L 114.8 152.0 L 111.2 149.2 L 109.7 145.9 Z M 65.1 19.9 L 66.7 23.1 L 62.95611658096313 23.16454973220825 L 60.7 26.6 L 56.2 33.1 L 51.4 39.4 L 46.4 45.6 L 41.477669906616214 51.27961168289185 L 46.4 52.1 L 49.4 54.1 L 46.4 55.9 L 46.4 116.5 L 34.4 122.5 L 34.4 58.77543859481811 L 30.1 63.0 L 24.2 68.5 L 18.0 73.6 L 11.4 78.4 L 10.2 77.1 L 15.3 70.9 L 20.3 64.7 L 25.3 58.6 L 30.0 52.5 L 34.6 46.2 L 39.0 40.0 L 43.2 33.6 L 47.2 27.1 L 51.1 20.5 L 54.25049638748169 14.724090003967286 L 54.2 14.7 L 55.2 13.0 Z M 156.3 113.8 L 149.3 111.1 L 141.9 108.5 L 134.2 105.9 L 130.13806447982788 104.6814193725586 L 128.8 105.5 L 119.4 109.9 L 108.9 113.5 L 97.4 116.2 L 84.9 118.1 L 71.4 119.1 L 56.9 119.2 L 56.8 117.4 L 71.0 115.3 L 84.0 112.8 L 95.8 109.8 L 106.5 106.2 L 115.9 102.1 L 117.75279016494751 101.06062994003295 L 109.3 98.8 L 100.3 96.4 L 92.9335786819458 94.41977920532227 L 90.4 96.7 L 86.3 100.2 L 82.2 103.6 L 74.7 94.2 L 78.7 91.0 L 82.5 87.7 L 86.3 84.3 L 90.0 80.8 L 92.3 78.5 L 62.8 78.5 L 62.8 74.5 L 96.15405406951905 74.5 L 97.1 73.5 L 100.5 69.8 L 103.9 65.9 L 107.1 62.0 L 110.3 57.9 L 110.30966920852661 57.90742998123169 L 110.4692307472229 57.7 L 89.2 57.7 L 89.2 60.7 L 77.2 66.7 L 77.2 16.6 L 89.2 22.6 L 157.9 22.6 L 163.9 17.6 L 174.9 26.6 L 169.9 30.6 L 169.9 59.7 L 157.9 65.7 L 157.9 57.7 L 111.05 57.7 L 119.8 65.2 L 121.0 68.6 L 117.47087669372559 68.23491830825806 L 116.5 69.5 L 113.0 73.7 L 112.3 74.5 L 165.2 74.5 L 175.2 64.5 L 187.2 74.5 L 187.2 78.5 L 156.81428575515747 78.5 L 156.3 79.3 L 151.1 87.1 L 144.7 94.1 L 139.56402263641357 98.40311613082886 L 144.5 99.5 L 152.3 101.5 L 159.9 103.7 L 167.1 106.0 L 174.1 108.5 L 177.2 111.9 L 177.2 116.4 L 173.9 119.6 L 169.3 119.6 L 163.0 116.6 Z M 108.78000001907348 78.5 L 105.9 81.7 L 102.2 85.6 L 98.3 89.4 L 95.23787031173705 92.30509738922119 L 100.9 92.6 L 110.3 93.5 L 119.3 94.7 L 126.36973543167115 95.83765859603882 L 131.2 92.3 L 137.1 86.6 L 141.9 80.5 L 142.95 78.5 Z M 89.2 41.7 L 89.2 53.7 L 157.9 53.7 L 157.9 41.7 Z M 89.2 26.6 L 89.2 37.7 L 157.9 37.7 L 157.9 26.6 Z " />
</g>
</svg>
