<svg xmlns="http://www.w3.org/2000/svg" xmlns:xlink="http://www.w3.org/1999/xlink" version="1.1" baseProfile="full" viewBox="0 0 200 200" width="200" height="200">
<g fill="black">
<path d="M 73.4 187.8 L 70.9 187.3 L 68.5 186.5 L 66.2 185.3 L 64.2 183.7 L 62.6 181.6 L 61.3 179.4 L 60.5 177.0 L 60.1 174.5 L 60.0 171.9 L 60.0 151.1 L 72.0 153.1 L 75.0 155.1 L 72.0 156.9 L 72.0 173.1 L 72.2 174.1 L 72.4 174.6 L 72.5 175.0 L 72.7 175.2 L 72.9 175.3 L 73.2 175.5 L 73.8 175.7 L 74.7 175.8 L 76.0 175.9 L 141.0 175.9 L 147.0 150.9 L 149.0 150.9 L 148.80689659118653 153.31379308700562 L 149.2 152.2 L 153.9 153.5 L 158.4 154.7 L 162.5 156.2 L 166.4 157.8 L 169.9 159.6 L 173.2 161.5 L 176.1 163.7 L 178.7 166.0 L 181.1 168.6 L 183.1 171.3 L 183.3 175.9 L 180.2 179.4 L 175.7 179.5 L 172.2 176.5 L 171.6 174.6 L 170.6 172.6 L 169.2 170.4 L 167.5 168.2 L 165.3 165.9 L 162.7 163.6 L 159.8 161.2 L 156.4 158.7 L 152.7 156.2 L 148.7531279563904 153.9859010696411 L 147.0 175.9 L 150.6 178.3 L 153.0 181.9 L 150.6 185.5 L 147.0 187.9 L 76.0 187.9 Z M 15.1 180.6 L 15.3 176.1 L 18.6 172.9 L 21.5 172.1 L 24.0 171.1 L 26.3 169.9 L 28.3 168.4 L 30.2 166.7 L 31.8 164.7 L 33.3 162.3 L 34.6 159.4 L 35.7 156.2 L 36.1 152.5 L 37.9 152.4 L 38.3 156.3 L 38.7 160.1 L 38.6 163.8 L 37.9 167.3 L 36.6 170.7 L 34.9 174.0 L 32.6 177.0 L 29.8 179.7 L 26.6 182.1 L 22.9 184.1 L 18.3 183.9 Z M 108.7 164.3 L 106.9 162.5 L 104.9 160.6 L 102.6 158.8 L 100.1 156.9 L 97.4 155.1 L 94.4 153.2 L 91.2 151.3 L 87.7 149.7 L 88.2 148.0 L 92.0 148.7 L 95.9 149.2 L 99.5 150.0 L 103.0 150.9 L 106.2 152.0 L 109.4 153.3 L 112.3 154.7 L 115.1 156.2 L 117.8 157.9 L 120.3 159.8 L 121.8 164.1 L 120.0 168.3 L 115.7 169.9 L 111.5 168.0 L 110.2 166.2 Z M 18.2 84.6 L 18.4 80.0 L 21.8 76.9 L 23.6 76.6 L 25.2 76.1 L 26.8 75.5 L 28.2 74.6 L 29.6 73.5 L 30.8 72.0 L 32.0 70.2 L 33.1 67.9 L 34.0 65.3 L 34.2 62.4 L 36.0 62.3 L 36.3 65.4 L 36.439999961853026 66.1 L 94.0 66.1 L 94.0 51.0 L 106.0 53.0 L 109.0 55.0 L 106.0 56.8 L 106.0 66.1 L 165.4 66.1 L 166.2 65.4333333015442 L 166.4 65.1 L 167.2 63.8 L 167.6307692527771 64.24102563858033 L 171.4 61.1 L 182.4 70.1 L 177.4 73.1 L 165.4 78.1 L 165.4 77.73478260040284 L 163.8 78.5 L 161.3 79.6 L 160.59703702926635 79.89740743637086 L 163.0 82.0 L 163.0 86.0 L 106.0 86.0 L 106.0 96.0 L 148.7777777671814 96.0 L 155.0 89.0 L 163.0 96.0 L 163.0 100.0 L 106.0 100.0 L 106.0 109.0 L 168.7777777671814 109.0 L 175.0 102.0 L 183.0 109.0 L 183.0 113.0 L 106.0 113.0 L 106.0 116.0 L 98.8 119.6 L 140.9 119.6 L 146.9 114.6 L 157.9 123.6 L 152.9 127.6 L 152.9 144.5 L 140.9 150.5 L 140.9 144.5 L 59.0 144.5 L 59.0 147.5 L 47.0 153.5 L 47.0 113.6 L 59.0 119.6 L 94.0 119.6 L 94.0 113.0 L 17.0 113.0 L 17.0 109.0 L 94.0 109.0 L 94.0 100.0 L 37.0 100.0 L 37.0 96.0 L 94.0 96.0 L 94.0 86.0 L 37.0 86.0 L 37.0 82.0 L 94.0 82.0 L 94.0 73.0 L 106.0 75.0 L 109.0 77.0 L 106.0 78.8 L 106.0 82.0 L 148.7777777671814 82.0 L 155.0 75.0 L 157.09435214996338 76.83255815505981 L 158.3 75.5 L 160.0 73.5 L 161.6 71.6 L 162.85 70.1 L 36.95666666030884 70.1 L 37.0 71.4 L 36.7 74.3 L 35.9 77.1 L 34.8 79.7 L 33.2 82.3 L 31.1 84.5 L 28.7 86.5 L 25.9 88.2 L 21.3 87.9 Z M 59.0 123.6 L 59.0 140.5 L 140.9 140.5 L 140.9 123.6 Z M 20.0 46.9 L 72.00206184387207 46.9 L 77.83195877075195 29.5 L 38.0 29.5 L 38.0 25.5 L 79.17216491699219 25.5 L 84.6 9.3 L 95.3 15.0 L 97.5 17.9 L 94.07883253097535 18.674603939056396 L 91.81057405471802 25.5 L 134.0 25.5 L 140.0 20.5 L 151.0 29.5 L 146.0 33.5 L 146.0 46.9 L 161.8181818008423 46.9 L 170.0 37.9 L 180.0 46.9 L 180.0 50.9 L 20.0 50.9 Z M 90.48126888275146 29.5 L 84.69879150390625 46.9 L 134.0 46.9 L 134.0 29.5 Z " />
</g>
</svg>
