<svg xmlns="http://www.w3.org/2000/svg" xmlns:xlink="http://www.w3.org/1999/xlink" version="1.1" baseProfile="full" viewBox="0 0 200 200" width="200" height="200">
<g fill="black">
<path d="M 73.4 181.8 L 70.9 181.4 L 68.5 180.6 L 66.2 179.3 L 64.2 177.7 L 62.6 175.7 L 61.3 173.4 L 60.5 171.0 L 60.1 168.5 L 60.0 166.0 L 60.0 124.0 L 72.0 126.0 L 75.0 128.0 L 72.0 129.8 L 72.0 167.2 L 72.2 168.1 L 72.5 169.0 L 72.9 169.4 L 73.8 169.7 L 74.7 169.9 L 76.0 170.0 L 141.0 170.0 L 147.0 145.0 L 149.0 145.0 L 147.0 170.0 L 150.6 172.4 L 153.0 176.0 L 150.6 179.6 L 147.0 182.0 L 76.0 182.0 Z M 15.4 173.6 L 14.7 169.1 L 17.2 165.3 L 20.0 163.5 L 22.7 161.4 L 25.1 158.7 L 27.4 155.6 L 29.4 151.9 L 31.2 147.6 L 32.7 142.8 L 34.0 137.4 L 35.2 131.5 L 36.1 125.0 L 37.9 124.9 L 38.8 131.6 L 39.2 137.9 L 39.1 143.8 L 38.4 149.5 L 37.3 154.7 L 35.6 159.6 L 33.5 164.2 L 30.8 168.4 L 27.5 172.1 L 23.7 175.3 L 19.2 176.1 Z M 170.1 157.7 L 168.5 153.8 L 166.6 150.0 L 164.4 146.2 L 161.8 142.4 L 158.9 138.7 L 155.7 134.9 L 152.2 131.1 L 148.3 127.3 L 149.3 125.8 L 154.3 128.2 L 159.1 131.0 L 163.4 134.1 L 167.4 137.4 L 171.0 141.0 L 174.3 144.9 L 177.2 149.0 L 179.8 153.2 L 182.1 157.7 L 183.9 162.4 L 183.3 167.0 L 179.8 169.8 L 175.2 169.2 L 172.4 165.7 L 171.4 161.7 Z M 108.0 142.8 L 106.2 139.7 L 104.1 136.7 L 101.8 133.8 L 99.4 131.0 L 96.7 128.2 L 93.8 125.5 L 90.8 122.7 L 87.4 120.2 L 88.2 118.6 L 92.3 120.0 L 96.4 121.6 L 100.2 123.4 L 103.8 125.6 L 107.3 128.0 L 110.6 130.6 L 113.7 133.5 L 116.6 136.6 L 119.3 139.9 L 121.8 143.4 L 122.2 148.0 L 119.4 151.6 L 114.8 152.0 L 111.2 149.2 L 109.7 145.9 Z M 57.3 19.0 L 56.3 19.9 L 55.3 20.9 L 54.925 21.3125 L 57.3 19.0 L 59.2 22.0 L 53.61400003433228 22.685999965667726 L 49.7 26.6 L 48.94166669845581 27.3 L 68.3 27.3 L 74.3 22.3 L 85.3 31.3 L 80.3 35.3 L 80.3 47.7 L 68.3 53.7 L 68.3 47.7 L 31.0 47.7 L 31.0 56.9 L 69.6 56.9 L 75.6 51.9 L 86.6 60.9 L 81.6 64.9 L 81.6 77.9 L 69.6 83.9 L 69.6 77.9 L 31.0 77.9 L 31.0 87.6 L 71.0 87.6 L 77.0 82.6 L 88.0 91.6 L 83.0 95.6 L 83.0 109.7 L 71.0 115.7 L 71.0 109.7 L 31.0 109.7 L 31.0 121.7 L 19.0 127.7 L 19.0 21.3 L 31.0 27.3 L 45.24210529327392 27.3 L 45.3 26.2 L 45.7 22.8 L 45.8 21.2 L 46.0 19.6 L 46.2 16.8 L 46.2 15.4 L 46.215991497039795 15.208102321624756 L 45.9 15.1 L 46.8 12.9 Z M 106.0 106.5 L 126.0 106.5 L 127.2 106.4 L 128.1 106.3 L 128.7 106.1 L 129.0 105.9 L 129.2 105.8 L 129.4 105.6 L 129.5 105.2 L 129.7 104.7 L 129.9 103.7 L 130.0 102.5 L 130.0 50.560000038146974 L 126.6 52.6 L 125.55272731781005 53.03636360168457 L 124.9 56.3 L 122.7 63.7 L 120.0 70.8 L 116.8 77.3 L 113.1 83.4 L 108.8 88.9 L 104.1 93.9 L 98.8 98.3 L 93.1 102.1 L 86.8 105.2 L 85.9 103.6 L 90.8 99.1 L 95.2 94.4 L 99.2 89.5 L 102.7 84.4 L 105.8 79.0 L 108.4 73.3 L 110.6 67.2 L 112.4 60.8 L 113.7 54.0 L 114.25 49.6 L 89.2 49.6 L 89.2 45.6 L 114.6 45.6 L 120.6 40.6 L 130.0 48.290909099578855 L 130.0 14.7 L 142.0 16.7 L 145.0 18.7 L 142.0 20.5 L 142.0 33.71304349899292 L 142.1 34.2 L 144.7 44.5 L 147.9 53.9 L 150.2486678123474 59.445465660095216 L 150.3 59.4 L 153.4 56.2 L 159.2 50.4 L 161.8 47.7 L 164.3 45.1 L 166.5 42.6 L 168.6 40.3 L 170.4 38.1 L 171.37412633895875 36.76057634353638 L 171.3 36.7 L 171.89090909957886 36.05 L 172.0 35.9 L 172.01444568634034 35.91410970687866 L 172.3 35.6 L 180.6 44.3 L 181.3 47.9 L 177.2387007713318 46.90248794555664 L 175.6 48.1 L 172.8 50.0 L 169.9 51.9 L 166.7 53.9 L 163.4 55.8 L 159.8 57.9 L 156.0 59.9 L 152.0 61.8 L 151.38552722930908 62.12971706390381 L 151.5 62.4 L 155.7 70.1 L 160.5 76.8 L 165.8 82.7 L 171.6 87.7 L 178.0 92.0 L 185.0 95.6 L 190.6 98.3 L 179.2 107.4 L 171.2 102.5 L 164.0 96.7 L 157.6 90.1 L 152.2 82.7 L 147.6 74.6 L 143.8 65.7 L 142.0 59.52857141494751 L 142.0 102.5 L 141.8 105.1 L 141.4 107.6 L 140.6 110.0 L 139.3 112.2 L 137.7 114.3 L 135.7 115.9 L 133.4 117.1 L 131.0 117.9 L 128.5 118.4 L 126.0 118.5 L 126.0 112.5 L 106.0 109.5 Z M 31.0 91.6 L 31.0 105.7 L 71.0 105.7 L 71.0 91.6 Z M 31.0 60.9 L 31.0 73.9 L 69.6 73.9 L 69.6 60.9 Z M 31.0 31.3 L 31.0 43.7 L 68.3 43.7 L 68.3 31.3 Z " />
</g>
</svg>
