<svg xmlns="http://www.w3.org/2000/svg" xmlns:xlink="http://www.w3.org/1999/xlink" version="1.1" baseProfile="full" viewBox="0 0 200 200" width="200" height="200">
<g fill="black">
<path d="M 147.0 145.0 L 149.0 145.0 L 147.0 170.0 L 150.6 172.4 L 153.0 176.0 L 150.6 179.6 L 147.0 182.0 L 76.0 182.0 L 73.4 181.8 L 70.9 181.4 L 68.5 180.6 L 66.2 179.3 L 64.2 177.7 L 62.6 175.7 L 61.3 173.4 L 60.5 171.0 L 60.1 168.5 L 60.0 166.0 L 60.0 124.0 L 72.0 126.0 L 75.0 128.0 L 72.0 129.8 L 72.0 167.2 L 72.2 168.1 L 72.5 169.0 L 72.9 169.4 L 73.8 169.7 L 74.7 169.9 L 76.0 170.0 L 141.0 170.0 Z M 15.4 173.6 L 14.7 169.1 L 17.2 165.3 L 20.0 163.5 L 22.7 161.4 L 25.1 158.7 L 27.4 155.6 L 29.4 151.9 L 31.2 147.6 L 32.7 142.8 L 34.0 137.4 L 35.2 131.5 L 36.1 125.0 L 37.9 124.9 L 38.8 131.6 L 39.2 137.9 L 39.1 143.8 L 38.4 149.5 L 37.3 154.7 L 35.6 159.6 L 33.5 164.2 L 30.8 168.4 L 27.5 172.1 L 23.7 175.3 L 19.2 176.1 Z M 170.1 157.7 L 168.5 153.8 L 166.6 150.0 L 164.4 146.2 L 161.8 142.4 L 158.9 138.7 L 155.7 134.9 L 152.2 131.1 L 148.3 127.3 L 149.3 125.8 L 154.3 128.2 L 159.1 131.0 L 163.4 134.1 L 167.4 137.4 L 171.0 141.0 L 174.3 144.9 L 177.2 149.0 L 179.8 153.2 L 182.1 157.7 L 183.9 162.4 L 183.3 167.0 L 179.8 169.8 L 175.2 169.2 L 172.4 165.7 L 171.4 161.7 Z M 168.8 77.5 L 168.8 52.9 L 129.5 52.9 L 129.5 70.0 L 128.74157304763793 77.5 Z M 50.9 101.7 L 52.1 105.2 L 47.96440677642822 104.70087671279907 L 45.4 107.0 L 42.3 109.4 L 38.9 111.8 L 35.4 114.0 L 31.6 116.2 L 27.6 118.2 L 23.3 120.1 L 18.7 121.8 L 14.0 123.5 L 13.2 121.9 L 17.2 119.0 L 20.9 116.0 L 24.3 113.1 L 27.6 110.4 L 30.5 107.6 L 33.2 104.9 L 35.7 102.2 L 37.8 99.6 L 39.7 97.0 L 40.85414094924927 95.23484315872193 L 40.8 95.2 L 41.312820529937746 94.53333330154419 L 41.4 94.4 L 41.40966920852661 94.40742998123169 L 41.8 93.9 Z M 11.7 88.9 L 32.0 88.9 L 32.0 33.9 L 13.6 33.9 L 13.6 29.9 L 32.0 29.9 L 32.0 13.1 L 44.0 15.1 L 47.0 17.1 L 44.0 18.9 L 44.0 29.9 L 75.9 29.9 L 75.9 13.1 L 87.9 15.1 L 90.9 17.1 L 87.9 18.9 L 87.9 29.9 L 90.01818180084229 29.9 L 98.2 20.9 L 108.2 29.9 L 108.2 33.9 L 87.9 33.9 L 87.9 88.9 L 91.01818180084229 88.9 L 99.2 79.9 L 109.2 88.9 L 109.2 92.9 L 11.7 92.9 Z M 44.0 73.3 L 44.0 88.9 L 75.9 88.9 L 75.9 73.3 Z M 44.0 53.6 L 44.0 69.3 L 75.9 69.3 L 75.9 53.6 Z M 44.0 33.9 L 44.0 49.6 L 75.9 49.6 L 75.9 33.9 Z M 129.5 24.4 L 129.5 48.9 L 168.8 48.9 L 168.8 24.4 Z M 180.2 114.6 L 179.4 117.0 L 178.1 119.2 L 176.5 121.3 L 174.5 122.9 L 172.2 124.1 L 169.8 124.9 L 167.3 125.4 L 164.8 125.5 L 164.8 119.5 L 144.8 116.5 L 144.8 113.5 L 166.0 113.5 L 166.9 113.3 L 167.5 113.1 L 167.8 112.9 L 168.0 112.8 L 168.2 112.6 L 168.5 111.7 L 168.7 110.8 L 168.8 109.5 L 168.8 81.5 L 128.0361445426941 81.5 L 126.8 87.2 L 124.0 94.8 L 120.1 101.7 L 115.2 107.7 L 109.4 112.8 L 102.7 117.0 L 95.2 120.4 L 94.12301034927368 120.71141872406005 L 96.4 121.6 L 100.2 123.4 L 103.8 125.6 L 107.3 128.0 L 110.6 130.6 L 113.7 133.5 L 116.6 136.6 L 119.3 139.9 L 121.8 143.4 L 122.2 148.0 L 119.4 151.6 L 114.8 152.0 L 111.2 149.2 L 109.7 145.9 L 108.0 142.8 L 106.2 139.7 L 104.1 136.7 L 101.8 133.8 L 99.4 131.0 L 96.7 128.2 L 93.8 125.5 L 90.8 122.7 L 89.79681768417359 121.96236600875855 L 86.9 122.8 L 77.7 124.2 L 77.4 122.5 L 85.7 119.2 L 90.48061885833741 116.77694664001464 L 88.1 115.7 L 86.9 113.9 L 85.4 112.1 L 83.7 110.3 L 81.7 108.5 L 79.5 106.7 L 77.1 104.9 L 74.4 103.1 L 71.5 101.2 L 68.4 99.3 L 65.0 97.8 L 65.5 96.1 L 69.3 96.8 L 73.0 97.3 L 76.6 98.0 L 79.9 98.9 L 83.1 100.0 L 86.2 101.2 L 89.1 102.5 L 91.8 104.0 L 94.4 105.7 L 96.8 107.5 L 98.4 111.8 L 98.27197456359863 112.09872608184814 L 99.2 111.5 L 104.5 107.0 L 108.8 102.1 L 112.1 96.8 L 114.7 91.0 L 116.4 84.6 L 117.3 77.6 L 117.5 70.0 L 117.5 14.4 L 129.5 20.4 L 168.8 20.4 L 174.8 15.4 L 185.8 24.4 L 180.8 28.4 L 180.8 109.5 L 180.6 112.1 Z " />
</g>
</svg>
