<svg xmlns="http://www.w3.org/2000/svg" xmlns:xlink="http://www.w3.org/1999/xlink" version="1.1" baseProfile="full" viewBox="0 0 200 200" width="200" height="200">
<g fill="black">
<path d="M 73.4 181.8 L 70.9 181.4 L 68.5 180.6 L 66.2 179.3 L 64.2 177.7 L 62.6 175.7 L 61.3 173.4 L 60.5 171.0 L 60.1 168.5 L 60.0 166.0 L 60.0 124.0 L 72.0 126.0 L 75.0 128.0 L 72.0 129.8 L 72.0 167.2 L 72.2 168.1 L 72.5 169.0 L 72.9 169.4 L 73.8 169.7 L 74.7 169.9 L 76.0 170.0 L 141.0 170.0 L 147.0 145.0 L 149.0 145.0 L 147.0 170.0 L 150.6 172.4 L 153.0 176.0 L 150.6 179.6 L 147.0 182.0 L 76.0 182.0 Z M 15.4 173.6 L 14.7 169.1 L 17.2 165.3 L 20.0 163.5 L 22.7 161.4 L 25.1 158.7 L 27.4 155.6 L 29.4 151.9 L 31.2 147.6 L 32.7 142.8 L 34.0 137.4 L 35.2 131.5 L 36.1 125.0 L 37.9 124.9 L 38.8 131.6 L 39.2 137.9 L 39.1 143.8 L 38.4 149.5 L 37.3 154.7 L 35.6 159.6 L 33.5 164.2 L 30.8 168.4 L 27.5 172.1 L 23.7 175.3 L 19.2 176.1 Z M 170.1 157.7 L 168.5 153.8 L 166.6 150.0 L 164.4 146.2 L 161.8 142.4 L 158.9 138.7 L 155.7 134.9 L 152.2 131.1 L 148.3 127.3 L 149.3 125.8 L 154.3 128.2 L 159.1 131.0 L 163.4 134.1 L 167.4 137.4 L 171.0 141.0 L 174.3 144.9 L 177.2 149.0 L 179.8 153.2 L 182.1 157.7 L 183.9 162.4 L 183.3 167.0 L 179.8 169.8 L 175.2 169.2 L 172.4 165.7 L 171.4 161.7 Z M 108.0 142.8 L 106.2 139.7 L 104.1 136.7 L 101.8 133.8 L 99.4 131.0 L 96.7 128.2 L 93.8 125.5 L 90.8 122.7 L 87.4 120.2 L 88.2 118.6 L 92.3 120.0 L 96.4 121.6 L 100.2 123.4 L 103.8 125.6 L 107.3 128.0 L 110.6 130.6 L 113.7 133.5 L 116.6 136.6 L 119.3 139.9 L 121.8 143.4 L 122.2 148.0 L 119.4 151.6 L 114.8 152.0 L 111.2 149.2 L 109.7 145.9 Z M 147.1 117.2 L 144.6 116.8 L 142.2 116.0 L 139.9 114.8 L 137.9 113.1 L 136.3 111.1 L 135.0 108.8 L 134.2 106.4 L 133.8 103.9 L 133.7 101.4 L 133.7 59.8307692527771 L 131.7 68.6 L 128.0 78.9 L 123.0 88.1 L 116.8 96.2 L 109.4 103.1 L 101.0 108.8 L 91.5 113.2 L 81.0 116.3 L 69.5 118.2 L 69.1 116.4 L 79.8 112.7 L 89.3 108.3 L 97.4 103.3 L 104.4 97.4 L 110.3 90.8 L 115.0 83.4 L 118.7 75.1 L 121.3 65.9 L 123.0 55.7 L 123.48214282989503 46.7 L 88.4 46.7 L 88.4 42.7 L 123.6 42.7 L 123.6 14.2 L 135.6 16.2 L 138.6 18.2 L 135.6 20.0 L 135.6 42.7 L 163.9 42.7 L 173.9 32.7 L 185.9 42.7 L 185.9 46.7 L 135.40975608825684 46.7 L 134.3 57.2 L 134.12422533035277 57.97070426940918 L 145.7 59.9 L 148.7 61.9 L 145.7 63.7 L 145.7 102.6 L 145.9 103.5 L 146.1 104.1 L 146.2 104.5 L 146.4 104.6 L 146.6 104.8 L 146.9 105.0 L 147.5 105.2 L 148.4 105.3 L 149.7 105.4 L 175.9 105.4 L 181.9 80.4 L 183.9 80.4 L 181.9 105.4 L 185.5 107.8 L 187.9 111.4 L 185.5 115.0 L 181.9 117.4 L 149.7 117.4 Z M 72.6 100.7 L 72.3 98.8 L 71.7 96.6 L 71.24966497421265 95.49918098449707 L 68.1 97.2 L 62.9 99.7 L 57.6 101.9 L 52.2 104.0 L 46.6 106.0 L 40.9 107.9 L 35.2 109.7 L 29.3 111.4 L 23.3 113.1 L 21.22976589202881 113.65206241607666 L 19.8 117.2 L 17.3 114.7 L 12.9 103.3 L 14.8 102.9 L 20.9 102.0 L 26.9 101.0 L 32.8 99.9 L 38.6 98.9 L 43.2 98.02758617401123 L 43.2 73.9 L 29.8 73.9 L 29.8 85.9 L 17.8 91.9 L 17.8 31.4 L 29.8 37.4 L 43.2 37.4 L 43.2 14.2 L 55.2 16.2 L 58.2 18.2 L 55.2 20.0 L 55.2 37.4 L 68.6 37.4 L 74.6 32.4 L 85.6 41.4 L 80.6 45.4 L 80.6 73.9 L 68.6 79.9 L 68.6 73.9 L 55.2 73.9 L 55.2 95.71578950881958 L 55.8 95.6 L 67.0 93.6 L 70.14401178359985 93.14268922805786 L 69.6 92.1 L 68.1 89.6 L 66.4 87.1 L 64.3 84.4 L 61.7 82.0 L 62.8 80.5 L 65.9 82.4 L 69.0 84.1 L 71.9 85.9 L 74.5 87.9 L 76.8 90.0 L 78.9 92.3 L 80.8 94.7 L 82.4 97.3 L 83.6 100.1 L 84.6 103.0 L 83.3 107.4 L 79.3 109.6 L 74.9 108.3 L 72.6 104.4 L 72.7 102.6 Z M 29.8 41.4 L 29.8 69.9 L 43.2 69.9 L 43.2 41.4 Z M 55.2 41.4 L 55.2 69.9 L 68.6 69.9 L 68.6 41.4 Z M 158.3 33.4 L 157.5 31.9 L 156.5 30.4 L 155.2 28.9 L 153.6 27.4 L 151.7 25.8 L 149.6 24.3 L 147.2 22.7 L 144.4 21.6 L 144.9 19.9 L 147.9 20.5 L 150.9 20.7 L 153.8 21.2 L 156.5 21.9 L 159.1 22.7 L 161.5 23.8 L 163.8 25.1 L 165.9 26.6 L 167.9 28.4 L 169.6 30.4 L 170.0 34.9 L 167.2 38.5 L 162.6 38.9 L 159.1 36.1 L 158.8 34.7 Z " />
</g>
</svg>
