<svg xmlns="http://www.w3.org/2000/svg" xmlns:xlink="http://www.w3.org/1999/xlink" version="1.1" baseProfile="full" viewBox="0 0 200 200" width="200" height="200">
<g fill="black">
<path d="M 73.4 179.0 L 70.9 178.5 L 68.5 177.7 L 66.2 176.5 L 64.2 174.9 L 62.6 172.8 L 61.3 170.6 L 60.5 168.2 L 60.1 165.7 L 60.0 163.1 L 60.0 125.7 L 72.0 127.7 L 75.0 129.7 L 72.0 131.5 L 72.0 164.3 L 72.2 165.3 L 72.4 165.8 L 72.5 166.2 L 72.7 166.4 L 72.9 166.5 L 73.2 166.7 L 73.8 166.9 L 74.7 167.0 L 76.0 167.1 L 141.0 167.1 L 147.0 142.1 L 149.0 142.1 L 147.0 167.1 L 150.6 169.5 L 153.0 173.1 L 150.6 176.7 L 147.0 179.1 L 76.0 179.1 Z M 15.4 171.0 L 14.8 166.5 L 17.5 162.8 L 20.3 161.2 L 22.9 159.3 L 25.3 157.0 L 27.5 154.2 L 29.5 151.0 L 31.3 147.2 L 32.8 142.9 L 34.2 138.1 L 35.3 132.7 L 36.1 126.8 L 37.9 126.8 L 38.7 132.8 L 39.1 138.6 L 39.0 144.0 L 38.3 149.2 L 37.2 154.0 L 35.5 158.6 L 33.3 162.8 L 30.6 166.7 L 27.4 170.1 L 23.6 173.1 L 19.1 173.7 Z M 170.2 156.7 L 168.7 153.3 L 166.8 149.8 L 164.6 146.3 L 162.0 142.9 L 159.1 139.4 L 155.9 136.0 L 152.3 132.4 L 148.3 128.9 L 149.3 127.4 L 154.2 129.6 L 158.9 132.0 L 163.2 134.7 L 167.2 137.7 L 170.8 140.9 L 174.1 144.4 L 177.1 148.0 L 179.7 151.9 L 181.9 156.0 L 183.8 160.3 L 183.3 164.8 L 179.8 167.8 L 175.3 167.3 L 172.3 163.8 L 171.4 160.3 Z M 108.1 143.3 L 106.3 140.5 L 104.2 137.8 L 102.0 135.1 L 99.5 132.5 L 96.8 129.9 L 94.0 127.4 L 90.9 124.8 L 87.5 122.5 L 88.2 120.8 L 92.3 122.1 L 96.3 123.4 L 100.1 125.1 L 103.7 126.9 L 107.1 129.1 L 110.4 131.4 L 113.4 134.0 L 116.3 136.7 L 119.0 139.7 L 121.5 142.9 L 122.2 147.4 L 119.5 151.1 L 115.0 151.7 L 111.3 149.1 L 109.8 146.1 Z M 180.5 27.6 L 180.5 31.6 L 106.0 31.6 L 106.0 46.0 L 153.7 46.0 L 159.7 41.0 L 170.7 50.0 L 165.7 54.0 L 165.7 111.0 L 153.7 117.0 L 153.7 109.0 L 46.2 109.0 L 34.2 115.0 L 34.2 40.0 L 46.2 46.0 L 94.0 46.0 L 94.0 31.6 L 20.3 31.6 L 20.3 27.6 L 158.5 27.6 L 168.5 17.6 Z M 129.5 82.1 L 126.7 79.0 L 123.5 76.1 L 120.1 73.3 L 116.3 70.6 L 112.1 68.1 L 107.7 65.7 L 102.9 63.3 L 101.93494567871093 62.87314910888672 L 98.9 68.1 L 94.3 73.6 L 88.6 78.4 L 82.0 82.6 L 74.5 86.1 L 66.0 89.0 L 56.5 91.2 L 46.2 92.68557691574097 L 46.2 105.0 L 153.7 105.0 L 153.7 50.0 L 105.55810813903808 50.0 L 104.8 55.1 L 103.26270017623901 59.64506034851074 L 103.9 59.7 L 109.4 60.7 L 114.7 62.1 L 119.7 63.9 L 124.5 66.1 L 129.0 68.6 L 133.2 71.4 L 137.1 74.6 L 140.8 78.1 L 144.1 82.0 L 145.1 86.4 L 142.7 90.3 L 138.2 91.3 L 134.3 88.9 L 132.1 85.4 Z M 46.2 50.0 L 46.2 90.75979385375976 L 55.5 87.5 L 64.1 83.9 L 71.7 80.1 L 78.0 76.1 L 83.3 71.8 L 87.4 67.4 L 90.4 62.7 L 92.5 57.9 L 93.6 52.8 L 93.80740737915039 50.0 Z " />
</g>
</svg>
