<svg xmlns="http://www.w3.org/2000/svg" xmlns:xlink="http://www.w3.org/1999/xlink" version="1.1" baseProfile="full" viewBox="0 0 200 200" width="200" height="200">
<g fill="black">
<path d="M 147.0 145.0 L 149.0 145.0 L 147.0 170.0 L 150.6 172.4 L 153.0 176.0 L 150.6 179.6 L 147.0 182.0 L 76.0 182.0 L 73.4 181.8 L 70.9 181.4 L 68.5 180.6 L 66.2 179.3 L 64.2 177.7 L 62.6 175.7 L 61.3 173.4 L 60.5 171.0 L 60.1 168.5 L 60.0 166.0 L 60.0 124.0 L 72.0 126.0 L 75.0 128.0 L 72.0 129.8 L 72.0 167.2 L 72.2 168.1 L 72.5 169.0 L 72.9 169.4 L 73.8 169.7 L 74.7 169.9 L 76.0 170.0 L 141.0 170.0 Z M 15.4 173.6 L 14.7 169.1 L 17.2 165.3 L 20.0 163.5 L 22.7 161.4 L 25.1 158.7 L 27.4 155.6 L 29.4 151.9 L 31.2 147.6 L 32.7 142.8 L 34.0 137.4 L 35.2 131.5 L 36.1 125.0 L 37.9 124.9 L 38.8 131.6 L 39.2 137.9 L 39.1 143.8 L 38.4 149.5 L 37.3 154.7 L 35.6 159.6 L 33.5 164.2 L 30.8 168.4 L 27.5 172.1 L 23.7 175.3 L 19.2 176.1 Z M 170.1 157.7 L 168.5 153.8 L 166.6 150.0 L 164.4 146.2 L 161.8 142.4 L 158.9 138.7 L 155.7 134.9 L 152.2 131.1 L 148.3 127.3 L 149.3 125.8 L 154.3 128.2 L 159.1 131.0 L 163.4 134.1 L 167.4 137.4 L 171.0 141.0 L 174.3 144.9 L 177.2 149.0 L 179.8 153.2 L 182.1 157.7 L 183.9 162.4 L 183.3 167.0 L 179.8 169.8 L 175.2 169.2 L 172.4 165.7 L 171.4 161.7 Z M 108.0 142.8 L 106.2 139.7 L 104.1 136.7 L 101.8 133.8 L 99.4 131.0 L 96.7 128.2 L 93.8 125.5 L 90.8 122.7 L 87.4 120.2 L 88.2 118.6 L 92.3 120.0 L 96.4 121.6 L 100.2 123.4 L 103.8 125.6 L 107.3 128.0 L 110.6 130.6 L 113.7 133.5 L 116.6 136.6 L 119.3 139.9 L 121.8 143.4 L 122.2 148.0 L 119.4 151.6 L 114.8 152.0 L 111.2 149.2 L 109.7 145.9 Z M 140.5 115.5 L 126.6 111.3 L 113.7 106.3 L 101.8 100.6 L 101.14776878356933 100.20507097244263 L 99.7 100.9 L 86.0 106.1 L 71.1 110.5 L 55.0 114.0 L 37.6 116.6 L 19.1 118.3 L 18.8 116.5 L 37.0 112.9 L 53.8 108.8 L 69.3 104.2 L 83.4 99.0 L 92.41286392211914 94.9160460472107 L 90.9 94.0 L 81.1 86.7 L 72.4 78.6 L 64.9 69.6 L 59.49175262451172 61.0 L 34.0 61.0 L 34.0 57.0 L 117.03333330154419 57.0 L 116.5 56.7 L 117.9 52.8 L 119.0 48.9 L 120.2 45.1 L 122.2 37.9 L 123.1 34.5 L 123.9 31.1 L 125.190625 25.2 L 56.5 25.2 L 56.5 21.2 L 125.6 21.2 L 131.6 16.2 L 142.6 25.2 L 137.6 28.2 L 135.53630571365358 29.0598726272583 L 134.6 31.2 L 133.0 34.4 L 131.3 37.7 L 129.5 41.0 L 127.5 44.3 L 125.4 47.6 L 123.1 50.9 L 120.6 54.2 L 118.54117650985718 57.0 L 138.97790699005128 57.0 L 139.9 55.7 L 140.26992235183715 55.941731452941895 L 145.0 52.0 L 156.0 61.0 L 151.0 64.0 L 147.41925134658814 65.4919786453247 L 142.4 71.7 L 133.6 80.3 L 123.5 88.0 L 112.37810859680175 94.7912434577942 L 117.4 96.8 L 129.9 100.8 L 143.2 104.0 L 157.5 106.6 L 172.7 108.5 L 183.0 109.7 L 171.2 121.6 L 155.3 119.0 Z M 62.347500038146975 61.0 L 68.1 66.9 L 76.4 74.2 L 85.4 80.9 L 95.3 86.9 L 101.75749998092651 90.12875003814698 L 107.6 86.9 L 117.6 79.9 L 126.4 72.4 L 133.8 64.3 L 136.1406976699829 61.0 Z " />
</g>
</svg>
