<svg xmlns="http://www.w3.org/2000/svg" xmlns:xlink="http://www.w3.org/1999/xlink" version="1.1" baseProfile="full" viewBox="0 0 200 200" width="200" height="200">
<g fill="black">
<path d="M 72.4 181.2 L 69.9 180.8 L 67.5 180.0 L 65.2 178.7 L 63.2 177.1 L 61.6 175.1 L 60.3 172.8 L 59.5 170.4 L 59.1 167.9 L 59.0 165.4 L 59.0 128.5 L 71.0 130.5 L 74.0 132.5 L 71.0 134.3 L 71.0 166.6 L 71.2 167.5 L 71.5 168.4 L 71.9 168.8 L 72.8 169.1 L 73.7 169.3 L 75.0 169.4 L 140.0 169.4 L 146.0 144.4 L 148.0 144.4 L 146.0 169.4 L 149.6 171.8 L 152.0 175.4 L 149.6 179.0 L 146.0 181.4 L 75.0 181.4 Z M 14.4 173.3 L 13.8 168.7 L 16.5 165.1 L 19.3 163.5 L 21.9 161.7 L 24.3 159.4 L 26.6 156.7 L 28.6 153.4 L 30.3 149.7 L 31.9 145.5 L 33.2 140.7 L 34.3 135.4 L 35.1 129.6 L 36.9 129.5 L 37.7 135.5 L 38.1 141.2 L 38.0 146.6 L 37.3 151.7 L 36.2 156.5 L 34.5 161.0 L 32.3 165.2 L 29.6 169.0 L 26.3 172.5 L 22.6 175.4 L 18.0 176.0 Z M 169.2 159.2 L 167.7 155.7 L 165.8 152.3 L 163.6 148.9 L 161.0 145.5 L 158.1 142.1 L 154.9 138.6 L 151.3 135.1 L 147.3 131.6 L 148.3 130.1 L 153.2 132.3 L 157.9 134.7 L 162.2 137.4 L 166.2 140.3 L 169.8 143.5 L 173.1 146.9 L 176.0 150.5 L 178.7 154.3 L 180.9 158.4 L 182.8 162.6 L 182.3 167.1 L 178.8 170.1 L 174.3 169.6 L 171.3 166.2 L 170.4 162.7 Z M 107.1 145.9 L 105.3 143.1 L 103.2 140.4 L 101.0 137.8 L 98.5 135.2 L 95.8 132.7 L 93.0 130.1 L 89.9 127.6 L 86.5 125.3 L 87.2 123.6 L 91.3 124.9 L 95.3 126.2 L 99.0 127.8 L 102.7 129.7 L 106.1 131.7 L 109.3 134.0 L 112.4 136.6 L 115.3 139.3 L 118.0 142.2 L 120.5 145.4 L 121.2 149.9 L 118.5 153.6 L 114.0 154.3 L 110.3 151.6 L 108.8 148.7 Z M 160.3 45.2 L 157.9 42.4 L 155.8587718963623 40.280263137817386 L 151.1 41.3 L 141.4 43.1 L 131.8 44.7 L 122.3 46.1 L 113.0 47.3 L 103.9 48.5 L 94.9 49.5 L 92.9079475402832 49.70144348144531 L 99.6 53.3 L 101.7 56.3 L 97.65389223098755 56.99760475158691 L 97.6 57.1 L 95.3 60.7 L 94.38235292434692 61.9 L 144.9 61.9 L 154.9 51.9 L 166.9 61.9 L 166.9 65.9 L 123.1 65.9 L 123.1 81.8 L 122.36666669845582 82.9 L 156.7 82.9 L 166.7 72.9 L 178.7 82.9 L 178.7 86.9 L 123.70606060028076 86.9 L 124.3 87.6 L 127.4 90.6 L 130.9 93.5 L 135.0 96.3 L 139.7 99.1 L 145.1 101.7 L 151.3 104.3 L 158.2 106.8 L 165.8 109.2 L 174.1 111.5 L 182.1 113.8 L 170.4 124.1 L 161.8 121.0 L 153.9 117.8 L 146.7 114.4 L 140.3 110.7 L 134.7 106.9 L 129.8 102.9 L 125.8 98.7 L 122.7 94.2 L 120.7 89.6 L 120.66927814483643 89.43956356048584 L 120.5 89.9 L 116.9 96.0 L 112.2 101.6 L 106.5 106.4 L 99.8 110.6 L 92.2 114.1 L 83.7 117.1 L 74.2 119.5 L 63.8 121.3 L 52.3 122.4 L 52.1 120.6 L 63.0 117.6 L 72.8 114.4 L 81.5 110.9 L 89.0 107.3 L 95.4 103.3 L 100.7 99.1 L 104.8 94.8 L 107.9 90.2 L 109.37446804046631 86.9 L 65.2 86.9 L 65.2 82.9 L 110.63673467636109 82.9 L 111.1 81.00833330154418 L 111.1 65.9 L 91.13225803375244 65.9 L 90.0 67.2 L 87.0 70.1 L 83.8 72.8 L 80.4 75.2 L 76.7 77.3 L 72.8 79.1 L 68.9 80.8 L 68.0 79.2 L 71.2 76.5 L 73.9 73.6 L 76.5 70.7 L 78.9 67.8 L 81.0 64.8 L 83.0 61.8 L 84.6 58.7 L 86.1 55.6 L 87.4 52.3 L 88.01886920928955 50.195844650268555 L 86.0 50.4 L 77.2 51.2 L 72.79139890670777 51.563061237335205 L 70.8 54.9 L 68.7 51.9 L 66.1 40.0 L 68.1 40.0 L 76.6 39.9 L 85.3 39.7 L 93.956467628479 39.5054726600647 L 95.5 36.6 L 97.3 33.5 L 98.9 30.5 L 100.5 27.6 L 102.1 24.6 L 103.5 21.7 L 104.8 18.9 L 106.1 16.0 L 106.8395136833191 14.117601585388183 L 106.8 14.1 L 106.98309860229492 13.752112674713135 L 107.2 13.2 L 107.25720891952514 13.231303024291993 L 107.8 12.2 L 117.8 19.0 L 119.4 22.2 L 115.30118112564087 22.341338539123534 L 113.7 24.4 L 111.5 27.0 L 109.2 29.6 L 106.8 32.2 L 104.3 34.6 L 101.6 37.1 L 98.9692307472229 39.34102563858032 L 103.2 39.2 L 112.3 38.9 L 121.7 38.5 L 131.2 38.1 L 140.8 37.8 L 150.7 37.5 L 152.90700149536133 37.47792997360229 L 152.5 37.1 L 149.5 34.5 L 146.3 31.9 L 142.9 29.3 L 139.4 26.6 L 135.6 24.1 L 136.3 22.5 L 140.8 23.8 L 145.2 25.1 L 149.4 26.7 L 153.4 28.5 L 157.2 30.5 L 160.8 32.7 L 164.3 35.0 L 167.6 37.6 L 170.8 40.2 L 173.8 43.1 L 175.1 47.4 L 173.0 51.5 L 168.6 52.8 L 164.6 50.8 L 162.5 47.9 Z M 70.2 18.3 L 71.6 21.6 L 67.91543083190918 21.53647298812866 L 65.4 25.1 L 60.4 31.8 L 55.1 38.3 L 49.6 44.6 L 44.25035457611084 50.32505912780762 L 49.5 51.2 L 52.5 53.2 L 49.5 55.0 L 49.5 117.3 L 37.5 123.3 L 37.5 57.07419357299805 L 31.7 62.5 L 25.2 68.0 L 18.4 73.3 L 11.3 78.2 L 10.1 76.8 L 15.9 70.4 L 21.5 64.1 L 27.0 57.9 L 32.4 51.5 L 37.5 45.2 L 42.4 38.7 L 47.1 32.1 L 51.6 25.5 L 55.9 18.8 L 60.0 11.9 L 60.02148275375366 11.913479328155518 L 60.5 11.1 Z " />
</g>
</svg>
