<svg xmlns="http://www.w3.org/2000/svg" xmlns:xlink="http://www.w3.org/1999/xlink" version="1.1" baseProfile="full" viewBox="0 0 200 200" width="200" height="200">
<g fill="black">
<path d="M 128.16504068374633 38.732520294189456 L 129.2 38.3 L 135.6 35.8 L 141.7 33.4 L 147.3 31.2 L 152.6 29.0 L 157.5 26.9 L 161.9 24.9 L 166.0 22.9 L 169.6 20.9 L 171.9492753982544 19.57853260040283 L 171.9 19.5 L 171.9699462890625 19.566905212402343 L 172.8 19.1 L 174.09885997772216 21.603257369995116 L 181.1 28.3 L 181.3 31.6 L 177.48241930007936 30.035417747497558 L 174.4 31.3 L 170.1 32.8 L 165.5 34.3 L 160.6 35.7 L 155.3 37.1 L 149.6 38.4 L 143.5 39.7 L 137.1 41.0 L 130.2 42.0 L 128.7 42.16438360214234 L 128.7 82.0 L 167.9 82.0 L 177.9 72.0 L 189.9 82.0 L 189.9 86.0 L 165.6 86.0 L 165.6 182.0 L 153.6 188.0 L 153.6 86.0 L 128.7 86.0 L 128.7 107.0 L 128.1 118.7 L 126.9 129.6 L 125.1 139.9 L 122.7 149.4 L 119.8 158.1 L 116.1 166.0 L 111.9 173.1 L 107.1 179.3 L 101.6 184.5 L 95.5 188.7 L 94.4 187.2 L 98.9 181.9 L 102.8 176.1 L 106.3 169.8 L 109.2 162.9 L 111.7 155.3 L 113.7 147.1 L 115.2 138.2 L 116.2 128.5 L 116.7 118.1 L 116.7 33.0 Z M 84.1 142.8 L 86.1 142.8 L 84.1 167.8 L 87.7 170.2 L 90.1 173.8 L 87.7 177.4 L 84.1 179.8 L 51.6 179.8 L 49.0 179.7 L 46.5 179.2 L 44.1 178.4 L 41.9 177.2 L 39.9 175.5 L 38.2 173.5 L 37.0 171.3 L 36.2 168.8 L 35.7 166.4 L 35.6 163.8 L 35.6 117.2 L 47.6 119.2 L 50.6 121.2 L 47.6 123.0 L 47.6 163.8 L 47.7 165.0 L 47.8 165.9 L 48.0 166.5 L 48.2 166.9 L 48.5 167.2 L 48.9 167.4 L 49.5 167.6 L 50.4 167.7 L 51.6 167.8 L 78.1 167.8 Z M 14.6 171.8 L 12.3 167.9 L 13.4 163.4 L 14.8 161.7 L 16.3 159.3 L 17.8 156.2 L 19.2 152.5 L 20.4 148.2 L 21.6 143.3 L 22.6 137.9 L 23.6 131.8 L 24.5 125.3 L 25.5 118.1 L 27.3 118.1 L 28.3 125.3 L 28.9 132.1 L 29.1 138.4 L 29.1 144.2 L 28.8 149.6 L 28.2 154.6 L 27.4 159.1 L 26.3 163.3 L 24.8 167.1 L 23.0 170.6 L 19.1 172.9 Z M 93.7 152.7 L 93.0 148.4 L 92.2 144.2 L 91.2 140.1 L 90.1 136.1 L 88.9 132.1 L 87.5 128.3 L 86.1 124.4 L 84.5 120.6 L 86.0 119.6 L 89.0 122.6 L 91.8 125.8 L 94.4 129.4 L 96.8 133.2 L 98.9 137.2 L 100.8 141.4 L 102.5 145.9 L 104.0 150.5 L 105.4 155.2 L 106.5 160.2 L 105.2 164.6 L 101.3 167.0 L 96.9 165.7 L 94.6 161.8 L 94.2 157.2 Z M 61.0 136.0 L 60.3 132.7 L 59.4 129.5 L 58.5 126.5 L 57.5 123.6 L 56.4 120.8 L 54.2 115.4 L 52.7 113.0 L 54.0 111.8 L 56.3 113.6 L 58.8 115.5 L 61.1 117.8 L 63.3 120.2 L 65.4 123.0 L 67.3 126.0 L 69.1 129.1 L 70.9 132.5 L 72.4 136.1 L 73.9 139.9 L 73.3 144.4 L 69.7 147.3 L 65.1 146.6 L 62.3 143.0 L 61.7 139.4 Z M 14.8 96.1 L 42.9 96.1 L 42.9 15.7 L 53.9 17.7 L 56.7 19.7 L 53.9 21.45 L 53.9 96.1 L 65.0 96.1 L 65.0 15.7 L 76.0 17.7 L 78.7 19.7 L 76.0 21.423404216766357 L 76.0 96.1 L 82.1 96.1 L 92.1 86.1 L 104.1 96.1 L 104.1 100.1 L 14.8 100.1 Z M 103.1 37.7 L 105.3 40.6 L 101.43072385787964 41.34670238494873 L 99.8 44.8 L 95.9 52.6 L 93.7 56.7 L 91.3 61.0 L 88.8 65.4 L 86.0 70.0 L 83.0 74.7 L 79.7 79.4 L 78.1 78.7 L 79.7 73.1 L 81.3 67.8 L 82.9 62.8 L 84.5 58.0 L 86.0 53.4 L 87.4 49.1 L 88.6 44.9 L 89.8 41.0 L 90.9 37.2 L 91.54018478393554 34.71039257049561 L 91.5 34.7 L 91.6875 34.1375 L 91.8 33.7 L 91.8298152923584 33.710554122924805 L 92.3 32.3 Z M 27.7 66.4 L 25.9 59.4 L 24.7 55.8 L 23.4 52.2 L 22.0 48.5 L 20.4 44.8 L 18.8 40.9 L 16.8 37.1 L 18.2 36.0 L 24.4 42.2 L 27.1 45.5 L 29.6 48.9 L 31.9 52.3 L 34.0 55.8 L 36.0 59.5 L 37.7 63.1 L 39.2 66.9 L 40.5 70.7 L 39.7 75.2 L 36.0 77.9 L 31.5 77.0 L 28.8 73.3 L 28.3 69.9 Z " />
</g>
</svg>
