<svg xmlns="http://www.w3.org/2000/svg" xmlns:xlink="http://www.w3.org/1999/xlink" version="1.1" baseProfile="full" viewBox="0 0 200 200" width="200" height="200">
<g fill="black">
<path d="M 51.6 16.0 L 54.6 18.0 L 51.6 19.8 L 51.6 183.0 L 39.6 189.0 L 39.6 14.0 Z M 140.2 176.6 L 154.2 176.6 L 155.5 176.5 L 156.4 176.3 L 157.3 176.0 L 157.5 175.8 L 157.6 175.6 L 157.8 175.3 L 158.0 174.7 L 158.2 173.8 L 158.2 158.2 L 103.7 158.2 L 103.7 182.8 L 91.7 188.8 L 91.7 106.6 L 103.7 112.6 L 158.2 112.6 L 164.2 107.6 L 175.2 116.6 L 170.2 120.6 L 170.2 172.6 L 170.1 175.1 L 169.7 177.6 L 168.8 180.0 L 167.6 182.3 L 166.0 184.3 L 164.0 185.9 L 161.7 187.2 L 159.3 188.0 L 156.8 188.4 L 154.2 188.6 L 154.2 182.6 L 140.2 179.6 Z M 103.7 137.4 L 103.7 154.2 L 158.2 154.2 L 158.2 137.4 Z M 103.7 116.6 L 103.7 133.4 L 158.2 133.4 L 158.2 116.6 Z M 182.1 82.3 L 184.1 82.3 L 182.1 95.3 L 184.8 97.1 L 186.6 99.8 L 184.8 102.5 L 182.1 104.3 L 146.1 104.3 L 143.8 104.1 L 141.5 103.5 L 139.3 102.5 L 137.3 101.0 L 135.6 99.2 L 134.3 97.1 L 133.4 94.8 L 132.8 92.4 L 132.5 89.8 L 132.5 68.79230766296386 L 130.3 73.7 L 125.4 81.5 L 119.6 88.2 L 112.8 94.0 L 105.3 98.7 L 96.9 102.2 L 87.8 104.7 L 78.0 106.0 L 77.7 104.2 L 86.7 101.0 L 94.8 97.3 L 101.9 93.0 L 108.0 88.1 L 113.3 82.5 L 117.7 76.3 L 121.3 69.3 L 122.40769233703614 66.1 L 104.3 66.1 L 104.3 69.1 L 92.3 75.1 L 92.3 51.577777767181395 L 88.3 54.6 L 83.5 57.6 L 78.3 60.1 L 77.3 58.7 L 81.1 54.6 L 84.8 50.6 L 88.2 46.6 L 91.4 42.4 L 92.3 41.06551723480224 L 92.3 36.2 L 94.7226086616516 37.41130437850952 L 97.0 33.7 L 99.5 29.1 L 101.7 24.3 L 103.7 19.3 L 105.14915256500244 15.113559341430664 L 105.1 15.1 L 106.0 12.7 L 116.7 18.3 L 118.9 21.3 L 115.06557703018188 21.961107444763183 L 114.2 23.9 L 113.98113203048706 24.3 L 139.8 24.3 L 140.44615383148192 23.7615385055542 L 140.6 23.3 L 140.83476295471192 23.43769750595093 L 145.8 19.3 L 156.8 28.3 L 151.8 31.3 L 146.93814430236816 33.32577323913574 L 144.0 35.8 L 141.9 37.4 L 139.6 38.9 L 137.2 40.5 L 134.6 42.0 L 134.22666664123534 42.2 L 160.9 42.2 L 166.9 37.2 L 177.9 46.2 L 172.9 50.2 L 172.9 66.1 L 160.9 72.1 L 160.9 66.1 L 144.5 66.1 L 144.5 89.8 L 144.4 91.1 L 144.5 92.0 L 144.5 92.7 L 144.6 93.2 L 144.7 93.6 L 145.0 94.0 L 145.4 94.4 L 146.1 94.8 L 147.1 95.1 L 148.5 95.3 L 177.6 95.3 Z M 15.0 101.4 L 12.7 97.4 L 13.7 93.0 L 15.2 91.4 L 16.7 89.3 L 18.2 86.7 L 19.8 83.7 L 21.3 80.3 L 22.7 76.4 L 24.2 72.1 L 25.7 67.4 L 27.2 62.4 L 28.5 56.8 L 30.3 57.0 L 30.4 62.8 L 30.4 68.2 L 30.1 73.3 L 29.7 78.0 L 29.1 82.4 L 28.3 86.5 L 27.3 90.3 L 26.2 93.9 L 24.9 97.1 L 23.4 100.1 L 19.4 102.4 Z M 160.3 86.9 L 159.7 85.5 L 158.9 84.0 L 157.8 82.4 L 156.6 80.7 L 155.2 78.9 L 153.6 77.1 L 151.8 75.2 L 149.6 73.8 L 150.4 72.2 L 152.9 73.3 L 155.5 74.0 L 158.0 74.8 L 160.3 75.8 L 162.5 76.8 L 164.6 78.0 L 166.5 79.3 L 168.3 80.6 L 170.0 82.2 L 171.5 83.9 L 171.8 88.4 L 169.0 92.0 L 164.4 92.4 L 160.9 89.5 L 160.7 88.3 Z M 67.5 78.4 L 66.8 75.7 L 65.8 72.9 L 64.6 70.0 L 63.3 67.0 L 61.8 63.9 L 60.1 60.8 L 58.2 57.5 L 56.0 54.3 L 57.3 53.0 L 60.3 55.6 L 63.4 58.0 L 66.2 60.5 L 68.8 63.2 L 71.2 65.9 L 73.4 68.6 L 75.4 71.5 L 77.2 74.4 L 78.7 77.4 L 80.1 80.4 L 79.5 85.0 L 76.0 87.8 L 71.4 87.2 L 68.6 83.7 L 68.1 81.1 Z M 104.3 46.2 L 104.3 62.1 L 123.79230766296386 62.1 L 124.0 61.5 L 126.1 52.9 L 126.94712648391723 46.2 Z M 138.95 46.2 L 137.2 55.3 L 135.0969072341919 62.1 L 160.9 62.1 L 160.9 46.2 Z M 111.3 29.2 L 108.2 34.2 L 104.7 38.9 L 102.62799997329712 41.36400003433228 L 104.3 42.2 L 129.82173910140992 42.2 L 130.3 41.7 L 132.0 39.2 L 133.7 36.8 L 135.1 34.5 L 136.5 32.3 L 137.7 30.3 L 138.7 28.3 L 111.79245281219482 28.3 Z " />
</g>
</svg>
