<svg xmlns="http://www.w3.org/2000/svg" xmlns:xlink="http://www.w3.org/1999/xlink" version="1.1" baseProfile="full" viewBox="0 0 200 200" width="200" height="200">
<g fill="black">
<path d="M 147.0 145.5 L 149.0 145.5 L 147.0 170.5 L 150.6 172.9 L 153.0 176.5 L 150.6 180.1 L 147.0 182.5 L 76.0 182.5 L 73.4 182.4 L 70.9 181.9 L 68.5 181.1 L 66.2 179.9 L 64.2 178.3 L 62.6 176.2 L 61.3 174.0 L 60.5 171.6 L 60.1 169.1 L 60.0 166.5 L 60.0 140.6 L 72.0 142.6 L 75.0 144.6 L 72.0 146.4 L 72.0 167.7 L 72.2 168.7 L 72.4 169.2 L 72.5 169.6 L 72.7 169.8 L 72.9 169.9 L 73.2 170.1 L 73.8 170.3 L 74.7 170.4 L 76.0 170.5 L 141.0 170.5 Z M 15.2 175.0 L 15.1 170.4 L 18.3 167.1 L 21.1 166.0 L 23.6 164.8 L 25.9 163.2 L 28.0 161.4 L 30.0 159.2 L 31.7 156.6 L 33.2 153.6 L 34.5 150.2 L 35.6 146.3 L 36.1 141.9 L 37.9 141.9 L 38.4 146.4 L 38.8 150.8 L 38.7 155.0 L 38.0 159.0 L 36.8 162.9 L 35.1 166.5 L 32.9 169.9 L 30.1 173.0 L 26.8 175.7 L 23.1 178.0 L 18.6 178.1 Z M 170.4 165.0 L 169.0 162.4 L 167.2 159.8 L 165.1 157.2 L 162.5 154.5 L 159.6 151.8 L 156.3 149.0 L 152.6 146.2 L 148.5 143.5 L 149.2 141.9 L 154.0 143.5 L 158.6 145.0 L 162.8 146.9 L 166.7 148.9 L 170.2 151.2 L 173.5 153.6 L 176.5 156.2 L 179.1 159.0 L 181.4 162.0 L 183.4 165.3 L 183.3 169.9 L 180.1 173.1 L 175.5 173.0 L 172.3 169.8 L 171.5 167.4 Z M 108.5 155.1 L 106.7 153.0 L 104.6 150.9 L 102.4 148.8 L 99.9 146.7 L 97.2 144.6 L 94.2 142.6 L 91.1 140.4 L 87.6 138.6 L 88.2 136.9 L 92.1 137.8 L 96.0 138.6 L 99.7 139.6 L 103.2 140.9 L 106.5 142.3 L 109.7 143.8 L 112.7 145.6 L 115.6 147.5 L 118.3 149.6 L 120.8 151.9 L 122.0 156.3 L 119.8 160.4 L 115.4 161.6 L 111.4 159.4 L 110.0 157.3 Z M 18.3 94.6 L 19.0 90.1 L 22.6 87.3 L 24.9 87.0 L 27.0 86.7 L 28.8 86.2 L 30.3 85.6 L 31.7 85.0 L 32.9 84.1 L 34.0 82.9 L 35.0 81.4 L 35.8 79.5 L 35.8 77.3 L 37.6 77.0 L 38.0 79.5 L 38.6 81.9 L 38.7 84.4 L 38.3 87.0 L 37.3 89.4 L 35.8 91.8 L 33.8 93.9 L 31.5 95.8 L 28.7 97.5 L 25.7 98.9 L 21.2 98.2 Z M 160.4 96.8 L 159.47436742782594 97.19669971466064 L 160.8917236328125 99.76260318756104 L 167.2 106.0 L 167.3 109.3 L 163.52866554260254 107.76589784622192 L 162.4 108.2 L 159.7 109.2 L 156.8 110.2 L 153.7 111.2 L 150.4 112.3 L 147.0 113.3 L 143.3 114.4 L 139.5 115.4 L 136.97021274566652 116.01702127456664 L 137.2 116.1 L 144.7 118.5 L 152.7 120.7 L 161.1 122.6 L 169.9 124.2 L 179.1 125.6 L 188.7 127.3 L 176.8 138.6 L 167.3 136.5 L 158.2 134.0 L 149.5 131.2 L 141.3 128.2 L 133.6 124.7 L 126.4 121.0 L 119.7 116.9 L 113.5 112.5 L 107.9 107.6 L 105.53514738082886 104.98880853652955 L 102.4 106.1 L 94.0 108.8 L 85.2 111.4 L 76.0 113.8 L 71.0 114.98556699752808 L 71.0 125.74835166931152 L 91.9 124.6 L 110.3 123.8 L 119.6 123.6 L 128.9 123.6 L 129.0 125.4 L 120.0 127.4 L 110.9 129.1 L 101.8 130.7 L 92.7 132.2 L 83.6 133.5 L 74.6 134.8 L 65.5 136.1 L 56.5 137.3 L 47.5 138.4 L 42.52471914291382 139.0633708000183 L 40.7 142.4 L 38.5 139.6 L 35.4 127.8 L 37.4 127.6 L 46.4 127.1 L 59.0 126.40769233703614 L 59.0 117.6900990486145 L 56.2 118.3 L 45.6 120.3 L 34.6 122.1 L 23.1 123.6 L 11.1 124.8 L 10.8 123.1 L 22.4 119.9 L 33.5 116.9 L 44.2 113.9 L 54.4 110.9 L 64.1 108.0 L 73.4 104.9 L 82.2 101.8 L 90.5 98.7 L 98.4 95.5 L 104.80285682678223 92.60555782318116 L 104.8 92.6 L 104.80506963729859 92.60455751419067 L 105.7 92.2 L 106.49857864379882 94.12700510025024 L 114.7 101.5 L 114.9 104.7 L 111.0234899520874 103.00402688980103 L 110.3 103.3 L 109.26440601348877 103.66704597473145 L 110.4 104.3 L 116.7 107.5 L 123.2 110.6 L 130.0 113.5 L 132.98915948867798 114.5794186592102 L 134.3 113.8 L 137.7 111.4 L 141.0 109.2 L 144.1 107.2 L 149.8 103.4 L 152.4 101.6 L 154.9 99.9 L 157.1 98.3 L 157.475 98.01428575515747 L 156.2 98.5 L 151.8 99.7 L 149.6 100.1 L 147.3 100.4 L 145.0 100.6 L 142.8 100.6 L 142.8 94.6 L 122.8 91.6 L 122.8 88.6 L 144.4 88.6 L 146.1 88.5 L 147.7 88.2 L 149.2 87.9 L 150.8 87.6 L 152.3 87.1 L 155.3 85.9 L 156.8 85.2 L 158.2 84.3 L 158.7 84.0 L 159.1 83.5 L 159.6 82.8 L 160.2 81.7 L 160.7 80.4 L 161.2 78.6 L 161.6 76.6 L 161.9 74.2 L 162.0 71.5 L 162.0333333015442 70.5 L 52.2 70.5 L 40.2 76.5 L 40.2 28.2 L 52.2 34.2 L 150.9777777671814 34.2 L 156.6666666984558 27.8 L 15.0 27.8 L 15.0 23.8 L 94.0 23.8 L 94.0 11.4 L 106.0 13.4 L 109.0 15.4 L 106.0 17.2 L 106.0 23.8 L 166.8181818008423 23.8 L 175.0 14.8 L 185.0 23.8 L 185.0 27.8 L 157.88571424484252 27.8 L 165.2 34.2 L 165.2 38.2 L 106.0 38.2 L 106.0 45.0 L 147.1 45.0 L 151.6 39.0 L 157.6 45.0 L 157.6 49.0 L 149.942857170105 49.0 L 157.6 55.7 L 157.6 59.7 L 106.0 59.7 L 106.0 66.5 L 162.1 66.5 L 168.1 61.5 L 179.1 70.5 L 174.1 73.5 L 173.90414505004884 73.58160619735717 L 173.8 75.3 L 173.4 78.4 L 172.9 81.3 L 172.1 84.0 L 171.2 86.6 L 169.9 89.0 L 168.4 91.1 L 166.6 93.1 L 164.4 94.6 L 162.4 95.8 Z M 63.1 87.4 L 63.4 86.7 L 63.3 85.8 L 63.0 84.6 L 62.5 83.2 L 61.6 81.7 L 60.5 80.1 L 59.1 78.4 L 57.2 77.1 L 58.1 75.5 L 60.2 76.6 L 62.4 77.3 L 64.5 78.0 L 66.4 78.9 L 68.2 79.8 L 69.8 80.9 L 71.3 82.2 L 72.6 83.8 L 73.6 85.6 L 74.3 87.8 L 72.5 92.0 L 68.3 93.8 L 64.1 92.0 L 62.3 87.8 L 62.7 87.7 Z M 95.0 86.3 L 94.5 85.2 L 93.7 83.9 L 92.6 82.6 L 91.3 81.2 L 89.7 79.7 L 87.9 78.2 L 85.8 76.6 L 83.3 75.4 L 83.9 73.7 L 86.6 74.5 L 89.3 74.8 L 91.8 75.3 L 94.2 75.8 L 96.4 76.5 L 98.5 77.3 L 100.5 78.2 L 102.3 79.3 L 104.0 80.6 L 105.6 82.1 L 106.1 86.7 L 103.4 90.3 L 98.8 90.8 L 95.2 88.1 L 95.2 87.3 Z M 128.3 84.5 L 127.4 83.4 L 126.2 82.2 L 124.7 81.0 L 122.9 79.7 L 120.9 78.4 L 118.6 77.0 L 116.1 75.6 L 113.2 74.6 L 113.6 72.9 L 116.7 73.4 L 119.6 73.4 L 122.4 73.6 L 125.0 73.9 L 127.5 74.3 L 129.8 74.8 L 131.9 75.3 L 133.9 76.0 L 135.9 76.9 L 137.7 77.9 L 139.3 82.2 L 137.6 86.4 L 133.3 88.0 L 129.1 86.3 L 128.8 85.5 Z M 52.2 59.7 L 52.2 66.5 L 94.0 66.5 L 94.0 59.7 Z M 52.2 49.0 L 52.2 55.7 L 94.0 55.7 L 94.0 49.0 Z M 106.0 49.0 L 106.0 55.7 L 143.37777776718139 55.7 L 149.3333333015442 49.0 Z M 52.2 38.2 L 52.2 45.0 L 94.0 45.0 L 94.0 38.2 Z " />
</g>
</svg>
