<svg xmlns="http://www.w3.org/2000/svg" xmlns:xlink="http://www.w3.org/1999/xlink" version="1.1" baseProfile="full" viewBox="0 0 200 200" width="200" height="200">
<g fill="black">
<path d="M 73.4 182.1 L 70.9 181.6 L 68.5 180.8 L 66.2 179.6 L 64.2 177.9 L 62.6 175.9 L 61.3 173.7 L 60.5 171.2 L 60.1 168.8 L 60.0 166.2 L 60.0 131.1 L 72.0 133.1 L 75.0 135.1 L 72.0 136.9 L 72.0 167.4 L 72.2 168.3 L 72.4 168.9 L 72.5 169.3 L 72.7 169.4 L 72.9 169.6 L 73.2 169.8 L 73.8 170.0 L 74.7 170.1 L 76.0 170.2 L 141.0 170.2 L 147.0 145.2 L 149.0 145.2 L 147.0 170.2 L 150.6 172.6 L 153.0 176.2 L 150.6 179.8 L 147.0 182.2 L 76.0 182.2 Z M 15.3 174.2 L 14.8 169.7 L 17.6 166.0 L 20.5 164.6 L 23.0 162.8 L 25.4 160.7 L 27.6 158.1 L 29.6 155.0 L 31.4 151.5 L 32.9 147.4 L 34.2 142.9 L 35.3 137.8 L 36.1 132.2 L 37.9 132.2 L 38.6 137.9 L 39.1 143.4 L 38.9 148.6 L 38.3 153.5 L 37.1 158.2 L 35.4 162.6 L 33.3 166.6 L 30.5 170.3 L 27.3 173.6 L 23.5 176.5 L 19.0 177.0 Z M 170.2 160.8 L 168.7 157.5 L 166.9 154.2 L 164.7 150.9 L 162.1 147.6 L 159.2 144.3 L 155.9 141.0 L 152.4 137.6 L 148.4 134.2 L 149.3 132.7 L 154.2 134.8 L 158.8 137.0 L 163.1 139.6 L 167.1 142.4 L 170.7 145.4 L 174.0 148.6 L 177.0 152.1 L 179.6 155.8 L 181.8 159.6 L 183.7 163.7 L 183.3 168.3 L 179.9 171.3 L 175.3 170.8 L 172.3 167.4 L 171.4 164.1 Z M 108.2 148.0 L 106.3 145.4 L 104.3 142.8 L 102.1 140.2 L 99.6 137.7 L 96.9 135.3 L 94.0 132.8 L 90.9 130.3 L 87.5 128.1 L 88.2 126.5 L 96.2 128.9 L 100.0 130.4 L 103.6 132.1 L 107.0 134.1 L 110.3 136.3 L 113.3 138.7 L 116.2 141.3 L 118.9 144.1 L 121.4 147.1 L 122.1 151.6 L 119.6 155.4 L 115.0 156.1 L 111.3 153.5 L 109.8 150.7 Z M 120.1 118.8 L 108.1 124.8 L 108.1 54.95384616851807 L 104.7 59.4 L 100.5 64.5 L 96.0 69.3 L 94.6 68.2 L 97.4 62.3 L 103.0 50.9 L 105.6 45.3 L 108.1 39.6 L 108.1 29.9 L 111.47372264862061 31.586861324310302 L 112.8 28.3 L 114.9 22.6 L 116.8 16.9 L 118.30711612701415 12.127465629577637 L 118.2 12.1 L 119.1 9.7 L 129.9 15.1 L 132.0 18.0 L 128.3451518058777 18.76944169998169 L 127.4 21.0 L 124.8 26.7 L 121.9 32.4 L 120.04084510803223 35.870422554016116 L 120.1 35.9 L 141.34838705062867 35.9 L 142.5 34.2 L 144.2 31.0 L 145.9 28.0 L 147.4 25.2 L 148.8 22.6 L 150.0 20.1 L 151.1 17.8 L 152.0 15.6 L 152.7 13.7 L 152.9741424560547 12.877572536468506 L 152.8 12.8 L 153.8 10.9 L 163.8 17.7 L 165.4 20.9 L 160.9181818008423 21.05454549789429 L 160.7 21.3 L 158.9 23.2 L 156.9 25.1 L 154.8 27.1 L 152.5 29.2 L 150.1 31.4 L 147.4 33.6 L 144.5 35.9 L 158.0 35.9 L 168.0 25.9 L 180.0 35.9 L 180.0 39.9 L 151.5 39.9 L 151.5 59.9 L 159.61818180084228 59.9 L 167.8 50.9 L 177.8 59.9 L 177.8 63.9 L 151.5 63.9 L 151.5 83.0 L 159.61818180084228 83.0 L 167.8 74.0 L 177.8 83.0 L 177.8 87.0 L 151.5 87.0 L 151.5 107.8 L 162.5 107.8 L 172.5 97.8 L 184.5 107.8 L 184.5 111.8 L 120.1 111.8 Z M 37.4 114.8 L 25.4 120.8 L 25.4 55.02105264663696 L 22.2 59.4 L 18.0 64.4 L 13.5 69.2 L 12.1 68.2 L 14.9 62.3 L 17.6 56.6 L 20.4 50.9 L 23.0 45.3 L 25.4 39.82799997329712 L 25.4 29.9 L 28.822058868408202 31.611029434204102 L 30.1 28.3 L 32.2 22.6 L 34.1 16.9 L 35.60711612701416 12.127465629577637 L 35.5 12.1 L 36.4 9.7 L 47.2 15.1 L 49.4 18.0 L 45.63535747528076 18.792556285858154 L 44.7 21.0 L 42.1 26.7 L 39.3 32.4 L 37.425 35.9 L 58.54838705062866 35.9 L 59.7 34.2 L 61.4 31.0 L 63.0 28.0 L 64.5 25.2 L 65.9 22.6 L 67.1 20.1 L 68.2 17.8 L 69.1 15.7 L 69.8 13.7 L 70.07414245605469 12.877572536468506 L 69.9 12.8 L 70.9 10.9 L 80.9 17.7 L 82.5 20.9 L 78.01818180084229 21.05454549789429 L 77.8 21.3 L 76.0 23.2 L 74.0 25.1 L 71.9 27.1 L 69.7 29.2 L 67.2 31.4 L 64.6 33.6 L 61.7 35.9 L 75.0 35.9 L 85.0 25.9 L 97.0 35.9 L 97.0 39.9 L 68.7 39.9 L 68.7 59.9 L 76.51818180084229 59.9 L 84.7 50.9 L 94.7 59.9 L 94.7 63.9 L 68.7 63.9 L 68.7 83.0 L 76.51818180084229 83.0 L 84.7 74.0 L 94.7 83.0 L 94.7 87.0 L 68.7 87.0 L 68.7 107.8 L 79.4 107.8 L 89.4 97.8 L 101.4 107.8 L 101.4 111.8 L 37.4 111.8 Z M 120.1 87.0 L 120.1 107.8 L 139.5 107.8 L 139.5 87.0 Z M 37.4 87.0 L 37.4 107.8 L 56.7 107.8 L 56.7 87.0 Z M 120.1 63.9 L 120.1 83.0 L 139.5 83.0 L 139.5 63.9 Z M 37.4 63.9 L 37.4 83.0 L 56.7 83.0 L 56.7 63.9 Z M 120.1 39.9 L 120.1 59.9 L 139.5 59.9 L 139.5 39.9 Z M 37.4 39.9 L 37.4 59.9 L 56.7 59.9 L 56.7 39.9 Z " />
</g>
</svg>
