<svg xmlns="http://www.w3.org/2000/svg" xmlns:xlink="http://www.w3.org/1999/xlink" version="1.1" baseProfile="full" viewBox="0 0 200 200" width="200" height="200">
<g fill="black">
<path d="M 94.5 184.5 L 92.0 184.1 L 89.6 183.3 L 87.4 182.1 L 85.3 180.4 L 83.7 178.4 L 82.5 176.1 L 81.7 173.7 L 81.2 171.2 L 81.1 168.7 L 81.1 141.0 L 93.1 143.0 L 96.1 145.0 L 93.1 146.8 L 93.1 169.9 L 93.3 170.8 L 93.5 171.4 L 93.7 171.7 L 93.8 171.9 L 94.0 172.1 L 94.3 172.3 L 94.9 172.4 L 95.8 172.6 L 97.1 172.7 L 146.3 172.7 L 152.3 147.7 L 154.3 147.7 L 152.3 172.7 L 155.9 175.1 L 158.3 178.7 L 155.9 182.3 L 152.3 184.7 L 97.1 184.7 Z M 45.8 177.3 L 45.3 172.8 L 48.0 169.1 L 50.1 168.1 L 52.1 166.9 L 54.0 165.3 L 55.7 163.3 L 57.4 160.9 L 58.8 158.1 L 60.2 154.8 L 61.3 151.0 L 62.4 146.9 L 62.9 142.3 L 64.7 142.2 L 65.2 146.9 L 65.7 151.5 L 65.7 155.8 L 65.4 159.9 L 64.6 163.8 L 63.4 167.5 L 61.7 170.9 L 59.6 174.1 L 57.1 177.0 L 54.0 179.5 L 49.5 180.0 Z M 170.1 165.9 L 169.0 163.2 L 167.7 160.5 L 166.1 157.8 L 164.1 155.1 L 161.9 152.3 L 159.5 149.5 L 156.7 146.6 L 153.5 144.0 L 154.4 142.4 L 158.3 144.2 L 162.1 146.0 L 165.6 148.0 L 168.9 150.2 L 171.9 152.6 L 174.6 155.2 L 177.1 158.0 L 179.3 161.0 L 181.3 164.2 L 182.9 167.5 L 182.4 172.1 L 178.9 175.1 L 174.4 174.6 L 171.4 171.1 L 170.9 168.5 Z M 120.1 155.4 L 118.8 153.3 L 117.4 151.1 L 115.7 149.0 L 113.9 146.9 L 111.8 144.8 L 109.6 142.7 L 107.3 140.6 L 104.5 138.9 L 105.3 137.2 L 108.4 138.3 L 111.7 139.2 L 114.8 140.3 L 117.7 141.7 L 120.5 143.2 L 123.2 144.9 L 125.7 146.8 L 128.1 148.9 L 130.4 151.1 L 132.5 153.5 L 133.1 158.1 L 130.5 161.8 L 126.0 162.5 L 122.3 159.8 L 121.3 157.6 Z M 39.6 128.6 L 67.9 128.6 L 67.9 77.3 L 79.9 83.3 L 143.0 83.3 L 149.0 78.3 L 160.0 87.3 L 155.0 91.3 L 155.0 128.6 L 165.11818180084228 128.6 L 173.3 119.6 L 183.3 128.6 L 183.3 132.6 L 39.6 132.6 Z M 79.9 117.1 L 79.9 128.6 L 143.0 128.6 L 143.0 117.1 Z M 79.9 102.2 L 79.9 113.1 L 143.0 113.1 L 143.0 102.2 Z M 79.9 87.3 L 79.9 98.2 L 143.0 98.2 L 143.0 87.3 Z M 97.6 77.1 L 95.3 76.9 L 93.0 76.4 L 90.9 75.4 L 88.9 74.1 L 87.2 72.3 L 85.9 70.3 L 84.9 68.0 L 84.3 65.6 L 84.0 63.0 L 84.0 61.34268522262573 L 45.1 63.9 L 44.8 59.9 L 84.0 57.32296295166016 L 84.0 42.6 L 41.0 42.6 L 41.0 98.4 L 40.4 110.8 L 39.4 122.6 L 37.9 133.5 L 35.8 143.8 L 33.3 153.3 L 30.3 162.0 L 26.7 169.9 L 22.6 177.0 L 17.9 183.2 L 12.6 188.3 L 11.3 187.1 L 14.8 181.0 L 17.9 174.4 L 20.7 167.3 L 23.1 159.6 L 25.1 151.1 L 26.7 142.0 L 27.9 132.2 L 28.7 121.7 L 29.0 110.4 L 29.0 32.6 L 41.0 38.6 L 90.0 38.6 L 90.0 12.1 L 102.0 14.1 L 105.0 16.1 L 102.0 17.9 L 102.0 23.3 L 143.0 23.3 L 153.0 13.3 L 165.0 23.3 L 165.0 27.3 L 102.0 27.3 L 102.0 38.6 L 170.0 38.6 L 170.4677966117859 38.210169506073 L 171.4 36.6 L 171.88977394104003 37.02518835067749 L 176.0 33.6 L 187.0 42.6 L 182.0 45.6 L 175.4 48.35 L 174.9 48.7 L 173.0 50.2 L 168.8 53.2 L 164.2 56.2 L 161.8 57.6 L 159.6 59.5 L 158.3 58.2 L 160.1 56.0 L 161.4 53.5 L 162.8 51.1 L 164.2 48.9 L 166.8 44.5 L 167.93999996185303 42.6 L 96.0 42.6 L 99.0 44.6 L 96.0 46.4 L 96.0 56.53407411575317 L 130.81182584762573 54.24551887512207 L 140.2 43.6 L 152.8 52.8 L 153.1 56.8 L 96.0 60.55379629135132 L 96.0 63.0 L 95.8 64.3 L 95.8 66.0 L 96.0 67.0 L 96.2 67.4 L 96.7 67.9 L 97.4 68.4 L 98.5 68.8 L 100.0 69.0 L 166.0 69.0 L 170.0 60.0 L 172.0 60.0 L 170.0 69.0 L 172.4 70.6 L 174.0 73.0 L 172.4 75.4 L 170.0 77.0 L 100.0 77.0 Z " />
</g>
</svg>
