<svg xmlns="http://www.w3.org/2000/svg" xmlns:xlink="http://www.w3.org/1999/xlink" version="1.1" baseProfile="full" viewBox="0 0 200 200" width="200" height="200">
<g fill="black">
<path d="M 73.4 187.0 L 70.9 186.6 L 68.5 185.8 L 66.2 184.5 L 64.2 182.9 L 62.6 180.9 L 61.3 178.6 L 60.5 176.2 L 60.1 173.7 L 60.0 171.2 L 60.0 144.5 L 72.0 146.5 L 75.0 148.5 L 72.0 150.3 L 72.0 172.4 L 72.2 173.3 L 72.5 174.2 L 72.9 174.6 L 73.8 174.9 L 74.7 175.1 L 76.0 175.2 L 141.0 175.2 L 147.0 150.2 L 149.0 150.2 L 147.0 175.2 L 150.6 177.6 L 153.0 181.2 L 150.6 184.7 L 147.0 187.2 L 76.0 187.2 Z M 15.2 179.6 L 15.1 175.0 L 18.2 171.6 L 21.0 170.6 L 23.6 169.3 L 25.9 167.7 L 28.0 165.8 L 29.9 163.5 L 31.6 160.9 L 33.2 157.8 L 34.4 154.2 L 35.6 150.2 L 36.1 145.8 L 37.9 145.7 L 38.4 150.3 L 38.8 154.8 L 38.7 159.1 L 38.0 163.2 L 36.9 167.1 L 35.2 170.8 L 32.9 174.3 L 30.1 177.4 L 26.9 180.2 L 23.2 182.6 L 18.6 182.7 Z M 170.4 169.3 L 169.0 166.7 L 167.2 164.0 L 165.0 161.3 L 162.5 158.6 L 159.5 155.8 L 156.2 153.0 L 152.6 150.1 L 148.5 147.4 L 149.2 145.8 L 154.0 147.4 L 158.6 149.0 L 162.8 150.9 L 166.7 153.0 L 170.3 155.3 L 173.6 157.8 L 176.5 160.5 L 179.2 163.4 L 181.5 166.5 L 183.4 169.8 L 183.3 174.4 L 180.1 177.6 L 175.5 177.5 L 172.3 174.3 L 171.5 171.8 Z M 108.4 159.2 L 106.6 157.0 L 104.6 154.9 L 102.4 152.7 L 99.9 150.6 L 97.2 148.5 L 94.2 146.4 L 91.1 144.3 L 87.6 142.4 L 88.2 140.7 L 92.1 141.7 L 96.0 142.5 L 99.7 143.5 L 103.2 144.8 L 106.6 146.2 L 109.8 147.9 L 112.8 149.7 L 115.6 151.7 L 118.3 153.8 L 120.8 156.2 L 122.0 160.6 L 119.8 164.6 L 115.4 165.8 L 111.4 163.6 L 110.0 161.4 Z M 107.7 17.9 L 109.3 21.1 L 105.3658353805542 21.16783046722412 L 104.7 22.1 L 101.6 26.2 L 99.48461542129516 28.7 L 170.6777777671814 28.7 L 176.9 21.7 L 184.9 28.7 L 184.9 32.7 L 95.7722222328186 32.7 L 94.8 33.7 L 91.2 37.2 L 87.73529415130615 40.117647075653075 L 88.9 40.7 L 96.6 40.7 L 100.6 35.7 L 108.7 43.8 L 108.7 36.7 L 116.7 40.7 L 125.2 40.7 L 129.2 35.7 L 138.2 44.7 L 133.2 46.7 L 133.2 63.6 L 125.75 67.325 L 135.5 76.1 L 130.5 79.1 L 130.5 106.5 L 127.51428575515747 107.99285717010498 L 137.3 116.8 L 137.3 120.8 L 111.7 120.8 L 111.7 137.9 L 101.7 142.9 L 101.7 120.8 L 76.1 120.8 L 76.1 116.8 L 101.7 116.8 L 101.7 106.5 L 93.3 106.5 L 82.3 112.0 L 82.3 66.9 L 78.9 68.6 L 78.9 46.356818199157715 L 74.8 48.5 L 70.2 50.6 L 69.2 49.1 L 72.6 45.6 L 75.9 42.1 L 78.9 38.81875 L 78.9 35.7 L 80.81881189346313 36.659405899047854 L 82.2 35.1 L 85.1 31.5 L 87.8 27.8 L 90.4 24.0 L 92.9 20.0 L 95.2 16.0 L 96.83148012161254 12.8147292137146 L 96.8 12.8 L 97.8 11.0 Z M 150.9 51.4 L 150.9 51.45263156890869 L 154.6 49.7 L 158.2 48.1 L 161.5 46.5 L 164.6 45.0 L 167.4 43.5 L 169.9 42.1 L 172.2 40.8 L 174.2 39.5 L 175.06168909072875 38.799877643585205 L 175.0 38.7 L 175.0842917442322 38.781512928009036 L 175.8 38.2 L 177.10171537399293 40.732427978515624 L 184.1 47.5 L 184.3 50.7 L 180.51832885742186 49.15013475418091 L 178.8 49.7 L 176.2 50.4 L 173.3 51.1 L 170.3 51.7 L 167.0 52.3 L 163.5 52.9 L 159.7 53.4 L 155.8 53.9 L 151.5 54.2 L 150.9 54.28372097015381 L 150.9 77.3 L 169.4181818008423 77.3 L 177.6 68.3 L 187.6 77.3 L 187.6 81.3 L 174.8 81.3 L 174.8 137.5 L 163.8 143.0 L 163.8 81.3 L 150.9 81.3 L 150.9 93.2 L 150.6 100.3 L 149.8 106.9 L 148.7 113.1 L 147.3 118.9 L 145.4 124.1 L 143.2 128.9 L 140.6 133.2 L 137.6 137.0 L 134.3 140.1 L 130.6 142.5 L 129.8 141.6 L 132.5 138.3 L 134.8 134.8 L 136.8 131.0 L 138.6 126.8 L 140.1 122.3 L 141.3 117.4 L 142.1 112.0 L 142.7 106.2 L 143.0 99.9 L 142.9 93.2 L 142.9 47.4 Z M 59.9 134.1 L 58.2 135.9 L 56.4 137.5 L 54.4 138.9 L 52.3 140.1 L 50.0 141.0 L 47.6 141.6 L 45.2 141.9 L 42.6 142.1 L 42.65008916854858 136.0893048286438 L 28.7 133.1 L 28.7 130.1 L 42.7 130.1 L 44.0 130.0 L 45.3 129.8 L 47.3 129.2 L 48.1 128.7 L 49.7 127.5 L 50.4 126.6 L 51.1 125.6 L 51.8 124.4 L 52.5 122.7 L 53.2 119.9 L 53.9 116.1 L 54.4 111.4 L 54.8 105.9 L 55.0 99.6 L 55.1 92.5 L 55.0 84.6 L 54.70112047195435 75.8328664779663 L 54.3 76.0 L 54.3 68.0 L 41.3307692527771 68.0 L 41.1 72.0 L 40.1 81.9 L 38.5 91.4 L 36.5 100.3 L 34.0 108.7 L 30.9 116.6 L 27.4 123.9 L 23.3 130.6 L 18.6 136.6 L 13.4 141.8 L 12.0 140.7 L 15.5 134.4 L 18.6 127.9 L 21.4 121.1 L 23.8 114.0 L 25.8 106.4 L 27.4 98.4 L 28.6 89.9 L 29.4 80.9 L 29.7 71.5 L 29.7 41.9 L 12.7 41.9 L 12.7 37.9 L 35.6 37.9 L 35.6 13.6 L 47.6 15.6 L 50.6 17.6 L 47.6 19.4 L 47.6 37.9 L 53.6 37.9 L 63.6 27.9 L 75.6 37.9 L 75.6 41.9 L 33.9 41.9 L 41.7 43.2 L 44.7 45.2 L 41.7 47.0 L 41.7 61.6 L 41.561538505554196 64.0 L 54.3 64.0 L 60.3 59.0 L 71.3 68.0 L 66.51327972412109 70.87203216552734 L 66.7 75.4 L 67.0 84.3 L 67.1 92.5 L 67.0 99.9 L 66.8 106.6 L 66.4 112.5 L 65.8 117.8 L 65.0 122.4 L 63.9 126.3 L 62.5 129.8 L 61.3 132.0 Z M 111.7 106.5 L 111.7 116.8 L 119.11818180084228 116.8 L 126.8 108.35 L 120.5 111.5 L 120.5 106.5 Z M 93.3 91.3 L 93.3 102.5 L 101.7 102.5 L 101.7 91.3 Z M 111.7 91.3 L 111.7 102.5 L 120.5 102.5 L 120.5 91.3 Z M 93.3 76.1 L 93.3 87.3 L 101.7 87.3 L 101.7 76.1 Z M 111.7 76.1 L 111.7 87.3 L 120.5 87.3 L 120.5 76.1 Z M 104.6 46.7 L 104.6 63.6 L 96.6 67.6 L 96.6 63.6 L 88.9 63.6 L 82.6 66.75 L 93.3 72.1 L 120.5 72.1 L 125.2 67.4 L 125.2 63.6 L 116.7 63.6 L 108.7 67.6 L 108.7 45.060000038146974 Z M 116.7 44.7 L 116.7 59.6 L 125.2 59.6 L 125.2 44.7 Z M 88.9 44.7 L 88.9 59.6 L 96.6 59.6 L 96.6 44.7 Z " />
</g>
</svg>
