<svg xmlns="http://www.w3.org/2000/svg" xmlns:xlink="http://www.w3.org/1999/xlink" version="1.1" baseProfile="full" viewBox="0 0 200 200" width="200" height="200">
<g fill="black">
<path d="M 78.4 182.9 L 75.9 182.5 L 73.5 181.7 L 71.2 180.5 L 69.2 178.8 L 67.5 176.8 L 66.3 174.5 L 65.5 172.1 L 65.1 169.6 L 64.9 167.1 L 64.9 142.9 L 76.9 144.9 L 79.9 146.9 L 76.9 148.7 L 76.9 167.1 L 77.0 168.3 L 77.2 169.2 L 77.3 169.8 L 77.5 170.1 L 77.9 170.5 L 78.2 170.7 L 78.8 170.8 L 79.7 171.0 L 80.9 171.1 L 140.1 171.1 L 146.1 146.1 L 148.1 146.1 L 148.06206893920898 146.5741379737854 L 148.3 145.9 L 152.9 147.2 L 157.3 148.3 L 161.3 149.6 L 165.0 151.0 L 168.4 152.6 L 171.6 154.4 L 174.4 156.3 L 177.0 158.4 L 179.3 160.7 L 181.2 163.3 L 181.4 167.9 L 178.5 171.3 L 173.9 171.6 L 170.4 168.6 L 169.9 167.0 L 169.1 165.2 L 167.8 163.2 L 166.1 161.1 L 164.0 159.0 L 161.6 156.8 L 158.7 154.5 L 155.4 152.2 L 151.8 149.8 L 147.96847524642945 147.7440598487854 L 146.1 171.1 L 149.7 173.5 L 152.1 177.1 L 149.7 180.7 L 146.1 183.1 L 80.9 183.1 Z M 21.1 172.6 L 21.4 168.1 L 24.7 165.0 L 27.7 164.2 L 30.3 163.2 L 32.6 162.1 L 34.6 160.8 L 36.3 159.3 L 37.8 157.6 L 39.1 155.4 L 40.2 152.9 L 41.0 149.9 L 41.0 146.5 L 42.8 146.2 L 43.5 149.8 L 44.2 153.2 L 44.3 156.7 L 43.8 160.1 L 42.7 163.3 L 41.0 166.5 L 38.7 169.4 L 35.8 172.0 L 32.5 174.3 L 28.8 176.3 L 24.2 176.0 Z M 110.3 151.0 L 108.3 149.3 L 106.0 147.6 L 103.4 145.9 L 100.6 144.2 L 97.5 142.5 L 94.2 140.8 L 90.6 139.0 L 86.7 137.6 L 87.1 135.8 L 91.3 136.3 L 95.4 136.7 L 99.3 137.2 L 102.9 137.9 L 106.4 138.8 L 109.8 139.8 L 112.9 141.0 L 115.9 142.3 L 118.8 143.7 L 121.4 145.3 L 123.4 149.4 L 122.1 153.8 L 118.0 155.8 L 113.6 154.5 L 112.1 152.8 Z M 167.2 130.6 L 164.4 128.5 L 161.3 126.3 L 159.89881563186646 125.43456258773804 L 148.9 126.6 L 134.0 127.9 L 119.2 129.1 L 104.6 130.1 L 90.1 131.0 L 75.8 131.9 L 61.6 132.7 L 47.6 133.5 L 33.8 134.2 L 24.199332618713377 134.69054508209229 L 22.2 137.9 L 20.1 134.9 L 17.8 123.0 L 19.8 122.9 L 33.5 122.9 L 47.3 122.8 L 61.3 122.7 L 75.5 122.6 L 89.8 122.5 L 94.0 122.5 L 94.0 107.0 L 45.0 107.0 L 45.0 110.0 L 33.0 116.0 L 33.0 77.1 L 45.0 83.1 L 94.0 83.1 L 94.0 68.0 L 106.0 70.0 L 109.0 72.0 L 106.0 73.8 L 106.0 83.1 L 155.0 83.1 L 161.0 78.1 L 172.0 87.1 L 167.0 91.1 L 167.0 107.0 L 155.0 113.0 L 155.0 107.0 L 106.0 107.0 L 106.0 122.5 L 133.8 122.5 L 148.8 122.8 L 155.85998735427856 122.9870195388794 L 154.2 122.0 L 150.2 119.8 L 146.0 117.6 L 141.5 115.2 L 136.6 112.9 L 137.2 111.1 L 142.5 112.0 L 147.6 113.0 L 152.4 114.1 L 157.0 115.4 L 161.3 116.8 L 165.4 118.3 L 169.2 119.9 L 172.8 121.6 L 176.2 123.5 L 179.4 125.4 L 181.5 129.4 L 180.3 133.8 L 176.3 136.0 L 171.9 134.8 L 169.7 132.7 Z M 45.0 87.1 L 45.0 103.0 L 94.0 103.0 L 94.0 87.1 Z M 106.0 87.1 L 106.0 103.0 L 155.0 103.0 L 155.0 87.1 Z M 173.0 39.4 L 175.0 39.4 L 173.0 56.4 L 176.0 58.4 L 178.0 61.4 L 176.0 64.4 L 173.0 66.4 L 121.0 66.4 L 118.5 66.3 L 116.1 66.0 L 113.8 65.3 L 111.6 64.2 L 109.6 62.7 L 107.9 60.9 L 106.6 58.7 L 105.7 56.4 L 105.2 53.9 L 105.0 51.4 L 105.0 34.0 L 117.0 36.0 L 120.0 38.0 L 117.0 39.8 L 117.0 51.4 L 116.9 52.6 L 117.0 53.5 L 117.1 54.2 L 117.3 55.0 L 117.5 55.3 L 117.9 55.6 L 118.6 55.9 L 119.6 56.2 L 121.0 56.4 L 168.0 56.4 Z M 104.0 14.4 L 107.0 16.4 L 104.0 18.2 L 104.0 25.8 L 139.6199999809265 25.8 L 139.1 25.4 L 137.4 24.4 L 135.4 23.3 L 133.2 22.2 L 130.6 21.1 L 127.8 20.0 L 124.8 18.8 L 121.5 17.6 L 117.8 16.8 L 118.1 15.0 L 121.8 15.1 L 125.4 14.9 L 128.8 14.8 L 131.9 14.8 L 134.9 14.9 L 137.7 15.1 L 140.3 15.4 L 142.7 15.8 L 145.0 16.2 L 147.2 16.8 L 150.0 20.4 L 149.6 25.0 L 148.5714285850525 25.8 L 157.0 25.8 L 167.0 15.8 L 179.0 25.8 L 179.0 29.8 L 103.69729728698731 29.8 L 102.4 36.2 L 98.9 42.7 L 93.7 48.3 L 87.0 52.9 L 78.9 56.7 L 69.5 59.8 L 58.6 62.2 L 46.2 64.0 L 32.4 65.1 L 17.0 65.5 L 16.9 63.8 L 31.9 61.4 L 45.4 58.7 L 57.1 55.8 L 67.1 52.5 L 75.5 48.9 L 82.0 45.0 L 86.8 40.9 L 89.9 36.8 L 91.5 32.7 L 91.84523811340333 29.8 L 24.0 29.8 L 24.0 25.8 L 92.0 25.8 L 92.0 12.4 Z " />
</g>
</svg>
