<svg xmlns="http://www.w3.org/2000/svg" xmlns:xlink="http://www.w3.org/1999/xlink" version="1.1" baseProfile="full" viewBox="0 0 200 200" width="200" height="200">
<g fill="black">
<path d="M 147.0 146.7 L 149.0 146.7 L 148.94545450210572 147.38181819915772 L 149.2 146.8 L 153.9 148.2 L 158.4 149.5 L 162.6 151.0 L 166.4 152.7 L 170.0 154.6 L 173.2 156.7 L 176.2 158.9 L 178.8 161.4 L 181.2 164.0 L 183.1 167.0 L 183.3 171.5 L 180.2 174.9 L 175.6 175.0 L 172.2 172.0 L 171.6 169.9 L 170.6 167.8 L 169.2 165.6 L 167.4 163.3 L 165.2 160.9 L 162.7 158.5 L 159.7 156.0 L 156.4 153.5 L 152.7 150.9 L 148.84745454788208 148.60681819915771 L 147.0 171.7 L 150.6 174.1 L 153.0 177.7 L 150.6 181.3 L 147.0 183.7 L 76.0 183.7 L 73.4 183.5 L 70.9 183.1 L 68.5 182.3 L 66.2 181.1 L 64.2 179.4 L 62.6 177.4 L 61.3 175.1 L 60.5 172.7 L 60.1 170.2 L 60.0 167.7 L 60.0 145.6 L 72.0 147.6 L 75.0 149.6 L 72.0 151.4 L 72.0 168.9 L 72.2 169.8 L 72.5 170.7 L 72.9 171.1 L 73.8 171.4 L 74.7 171.6 L 76.0 171.7 L 141.0 171.7 Z M 15.2 176.3 L 15.3 171.8 L 18.5 168.5 L 21.4 167.7 L 23.9 166.6 L 26.2 165.3 L 28.3 163.8 L 30.1 162.0 L 31.8 159.8 L 33.3 157.2 L 34.6 154.3 L 35.7 150.9 L 36.1 147.1 L 37.9 147.0 L 38.4 151.0 L 38.7 154.9 L 38.6 158.7 L 37.9 162.4 L 36.7 165.9 L 34.9 169.2 L 32.7 172.3 L 29.9 175.1 L 26.6 177.6 L 22.9 179.7 L 18.4 179.6 Z M 108.6 159.2 L 106.8 157.3 L 104.8 155.4 L 102.6 153.4 L 100.1 151.5 L 97.3 149.6 L 94.3 147.7 L 91.2 145.8 L 87.6 144.1 L 88.2 142.4 L 92.1 143.2 L 95.9 143.8 L 99.5 144.6 L 103.0 145.6 L 106.3 146.7 L 109.5 148.1 L 112.4 149.5 L 115.3 151.2 L 117.9 153.0 L 120.4 155.0 L 121.9 159.3 L 120.0 163.5 L 115.6 164.9 L 111.5 163.0 L 110.2 161.1 Z M 156.3 136.4 L 147.2 132.1 L 138.8 127.2 L 131.1 121.8 L 124.2 115.8 L 118.0 109.2 L 112.6 102.2 L 108.1 94.5 L 105.33631906509399 88.02509031295776 L 102.6 89.8 L 96.2 93.9 L 89.3 97.9 L 81.8 101.8 L 73.7 105.6 L 72.0 106.32298851013184 L 72.0 127.48510637283326 L 72.8 127.4 L 82.3 126.3 L 91.7 125.2 L 110.7 123.0 L 120.2 122.1 L 129.8 121.3 L 130.1 123.1 L 120.9 125.8 L 111.6 128.3 L 102.3 130.6 L 93.0 132.7 L 83.6 134.7 L 74.3 136.6 L 64.9 138.4 L 46.1 141.8 L 40.77031078338623 142.70718116760253 L 39.1 146.1 L 36.7 143.4 L 33.2 131.8 L 35.1 131.5 L 44.6 130.5 L 54.0 129.5 L 60.0 128.7978723526001 L 60.0 111.23548383712769 L 55.7 112.9 L 45.8 116.3 L 35.2 119.6 L 24.0 122.7 L 12.2 125.5 L 11.7 123.8 L 22.8 119.1 L 33.4 114.6 L 43.4 110.2 L 52.7 105.9 L 61.4 101.6 L 69.5 97.3 L 77.0 93.0 L 83.7 88.7 L 86.08918914794921 87.0 L 18.0 87.0 L 18.0 83.0 L 95.0 83.0 L 95.0 70.01951217651367 L 93.4 70.8 L 89.0 69.4 L 86.8 67.0 L 84.3 64.6 L 81.7 62.4 L 78.9 60.1 L 75.9 57.9 L 72.7 55.7 L 69.4 53.5 L 65.9 51.3 L 62.2 49.1 L 59.852909088134766 47.836181831359866 L 57.1 51.9 L 52.2 57.2 L 46.4 61.8 L 39.8 65.6 L 32.6 68.5 L 24.6 70.5 L 24.0 68.8 L 31.0 65.0 L 37.1 61.0 L 42.3 56.7 L 46.7 52.0 L 50.2 47.0 L 53.0 41.6 L 55.0 35.7 L 56.3 29.3 L 57.0 22.3 L 56.91331405639649 15.798557662963868 L 56.9 15.8 L 56.8 12.4 L 68.9 14.5 L 71.9 16.5 L 68.61891098022461 18.57579097747803 L 68.3 23.2 L 66.9 31.3 L 64.5 38.9 L 61.3 45.7 L 61.24591112136841 45.7798454284668 L 63.3 46.2 L 67.6 47.0 L 71.8 48.1 L 75.8 49.4 L 79.7 50.8 L 83.4 52.5 L 87.0 54.2 L 90.5 56.1 L 93.8 58.2 L 97.0 60.4 L 98.9 64.5 L 98.42132349014283 65.9702205657959 L 103.84799995422364 66.87466669082642 L 107.4 65.0 L 113.6 61.0 L 119.0 56.7 L 123.4 52.0 L 127.1 47.0 L 129.9 41.5 L 132.0 35.6 L 133.4 29.2 L 134.0 22.3 L 133.91331405639647 15.798557662963868 L 133.9 15.8 L 133.8 12.4 L 145.9 14.5 L 148.9 16.4 L 145.62129697799682 18.541193771362305 L 145.3 23.2 L 143.9 31.4 L 141.5 38.9 L 138.23232412338257 45.73241319656372 L 140.3 46.1 L 144.7 47.0 L 149.0 48.1 L 153.1 49.4 L 157.0 50.8 L 160.8 52.4 L 164.5 54.2 L 168.0 56.1 L 171.4 58.2 L 174.6 60.3 L 176.6 64.5 L 175.3 68.8 L 171.2 70.8 L 166.8 69.4 L 164.4 67.0 L 161.9 64.7 L 159.2 62.4 L 156.3 60.1 L 153.3 57.9 L 150.0 55.7 L 146.6 53.5 L 143.0 51.3 L 139.2 49.1 L 136.8128794670105 47.814627456665036 L 134.0 51.9 L 128.9 57.3 L 123.0 61.9 L 116.3 65.6 L 108.9 68.5 L 108.71756753921508 68.54504508972168 L 110.0 69.4 L 107.0 71.2 L 107.0 83.0 L 164.0 83.0 L 174.0 73.0 L 186.0 83.0 L 186.0 87.0 L 107.47058820724487 87.0 L 111.6 92.2 L 117.2 98.5 L 123.2 104.2 L 129.6 109.4 L 129.80063438415527 109.53957176208496 L 130.6 109.0 L 134.5 106.4 L 138.3 103.9 L 145.7 99.3 L 149.2 97.0 L 152.6 94.8 L 155.9 92.6 L 159.1 90.5 L 161.26089611053467 88.98737268447876 L 161.2 88.9 L 161.2764705657959 88.97647056579589 L 162.1 88.4 L 164.00909090042114 91.70909090042115 L 170.0 97.7 L 170.1 101.0 L 166.500892829895 99.51071424484253 L 164.5 100.4 L 160.9 101.9 L 157.2 103.5 L 153.3 105.0 L 149.3 106.6 L 145.2 108.0 L 140.9 109.5 L 136.5 110.8 L 133.04661436080931 111.79764471054077 L 136.5 114.2 L 143.9 118.4 L 151.9 122.1 L 160.5 125.3 L 169.7 128.1 L 179.5 130.3 L 188.2 132.4 L 176.4 143.2 L 166.0 140.1 Z M 29.7 46.6 L 28.0 42.4 L 29.6 38.1 L 31.1 37.2 L 32.4 36.2 L 33.6 35.2 L 35.6 33.0 L 36.4 31.7 L 37.1 30.3 L 37.7 28.7 L 38.1 26.9 L 37.8 25.0 L 39.5 24.5 L 40.2 26.4 L 41.2 28.3 L 41.9 30.4 L 42.3 32.6 L 42.4 34.8 L 42.2 37.2 L 41.6 39.5 L 40.8 41.9 L 39.6 44.2 L 38.2 46.5 L 34.0 48.2 Z M 106.1 46.6 L 104.4 42.3 L 106.0 38.1 L 107.5 37.1 L 108.9 36.2 L 110.1 35.2 L 112.1 33.0 L 112.9 31.7 L 113.6 30.3 L 114.2 28.7 L 114.7 26.9 L 114.4 25.0 L 116.1 24.5 L 116.8 26.4 L 117.8 28.3 L 118.5 30.4 L 118.9 32.6 L 118.9 34.9 L 118.7 37.2 L 118.1 39.6 L 117.2 41.9 L 116.0 44.3 L 114.6 46.5 L 110.3 48.3 Z M 173.5 26.0 L 174.8 29.4 L 170.25060243606566 29.014457798004152 L 169.6 29.6 L 165.2 33.0 L 162.8 34.5 L 160.3 36.1 L 157.6 37.5 L 154.8 38.9 L 151.9 40.1 L 149.0 41.7 L 148.0 40.2 L 150.4 38.1 L 152.4 35.7 L 154.3 33.4 L 156.1 31.2 L 157.7 29.0 L 159.2 26.9 L 160.5 24.9 L 161.7 22.9 L 162.8 20.9 L 163.23592081069947 19.979722785949708 L 163.1 19.9 L 163.59054050445556 19.231081104278566 L 163.7 19.0 L 163.7393750190735 19.028125 L 164.2 18.4 Z M 95.9 25.9 L 97.2 29.3 L 92.67971534729004 28.98825626373291 L 92.0 29.6 L 89.9 31.3 L 87.7 32.9 L 85.3 34.5 L 82.9 36.0 L 80.3 37.5 L 77.5 38.9 L 74.6 40.1 L 71.8 41.7 L 70.8 40.2 L 73.1 38.1 L 75.1 35.7 L 76.9 33.4 L 78.6 31.2 L 80.2 29.1 L 81.7 27.0 L 83.0 24.9 L 84.1 22.9 L 85.1 21.0 L 85.57396450042725 19.99940824508667 L 85.4 19.9 L 86.5 18.4 Z " />
</g>
</svg>
