<svg xmlns="http://www.w3.org/2000/svg" xmlns:xlink="http://www.w3.org/1999/xlink" version="1.1" baseProfile="full" viewBox="0 0 200 200" width="200" height="200">
<g fill="black">
<path d="M 73.4 183.1 L 70.9 182.7 L 68.5 181.9 L 66.2 180.7 L 64.2 179.0 L 62.6 177.0 L 61.3 174.7 L 60.5 172.3 L 60.1 169.8 L 60.0 167.3 L 60.0 134.5 L 72.0 136.5 L 75.0 138.5 L 72.0 140.3 L 72.0 168.5 L 72.2 169.4 L 72.5 170.3 L 72.9 170.7 L 73.2 170.9 L 73.8 171.0 L 74.7 171.2 L 76.0 171.3 L 141.0 171.3 L 147.0 146.3 L 149.0 146.3 L 147.0 171.3 L 150.6 173.7 L 153.0 177.3 L 150.6 180.9 L 147.0 183.3 L 76.0 183.3 Z M 15.3 175.4 L 14.9 170.8 L 17.8 167.3 L 20.6 166.0 L 23.2 164.3 L 25.5 162.3 L 27.7 159.9 L 29.7 157.1 L 31.5 153.8 L 33.0 150.0 L 34.3 145.7 L 35.4 140.9 L 36.1 135.7 L 37.9 135.6 L 38.6 141.0 L 39.0 146.2 L 38.9 151.2 L 38.2 155.9 L 37.0 160.3 L 35.4 164.5 L 33.2 168.4 L 30.4 172.0 L 27.2 175.1 L 23.4 177.9 L 18.9 178.3 Z M 170.3 162.8 L 168.8 159.7 L 166.9 156.6 L 164.8 153.5 L 162.2 150.3 L 159.3 147.2 L 156.0 144.0 L 152.4 140.7 L 148.4 137.5 L 149.3 136.0 L 154.1 137.9 L 158.8 140.0 L 163.0 142.4 L 167.0 145.0 L 170.6 147.8 L 173.9 150.9 L 176.9 154.1 L 179.5 157.6 L 181.8 161.2 L 183.7 165.1 L 183.3 169.7 L 179.9 172.7 L 175.4 172.4 L 172.3 169.0 L 171.4 165.9 Z M 108.2 150.8 L 106.4 148.3 L 104.4 145.8 L 102.1 143.4 L 99.7 141.0 L 97.0 138.6 L 94.1 136.3 L 91.0 133.9 L 87.5 131.7 L 88.2 130.1 L 96.2 132.3 L 99.9 133.7 L 103.5 135.3 L 106.9 137.1 L 110.1 139.2 L 113.2 141.4 L 116.1 143.8 L 118.8 146.5 L 121.3 149.3 L 122.1 153.8 L 119.6 157.6 L 115.1 158.5 L 111.3 156.0 L 109.9 153.4 Z M 18.5 118.0 L 26.0 117.3 L 33.7 116.5 L 41.8 115.8 L 50.0 115.1 L 55.6 114.57906980514527 L 55.6 99.0 L 21.2 99.0 L 21.2 95.0 L 55.6 95.0 L 55.6 76.6 L 67.6 78.6 L 70.6 80.6 L 67.6 82.4 L 67.6 95.0 L 81.8 95.0 L 91.8 85.0 L 103.8 95.0 L 103.8 99.0 L 67.6 99.0 L 67.6 113.58461542129517 L 76.5 112.9 L 85.9 112.3 L 95.6 111.8 L 105.6 111.5 L 105.8 113.3 L 96.1 115.6 L 86.6 117.6 L 77.4 119.4 L 68.4 121.1 L 59.7 122.7 L 51.3 124.3 L 43.1 125.7 L 35.2 127.2 L 27.5 128.5 L 24.258942222595216 129.1215726852417 L 22.6 132.6 L 20.2 129.9 L 16.5 118.2 Z M 158.2 119.4 L 150.2 113.6 L 143.1 107.2 L 141.2458703994751 105.07672262191772 L 135.4 110.5 L 126.1 117.1 L 115.8 122.6 L 104.5 126.9 L 92.2 130.1 L 91.7 128.3 L 103.0 123.4 L 113.3 117.8 L 122.4 111.7 L 130.4 104.8 L 135.97145891189575 98.75098743438721 L 131.6 92.4 L 127.3 84.1 L 124.0 75.3 L 121.8 66.0 L 121.27741527557373 60.87867002487182 L 117.7 64.7 L 112.9 69.1 L 107.8 73.1 L 106.5 71.8 L 110.1 66.6 L 113.5 61.4 L 116.8 56.1 L 119.8 50.8 L 122.6 45.4 L 125.2 39.9 L 127.5 34.2 L 129.6 28.4 L 131.5 22.4 L 132.8606964111328 17.212345027923583 L 132.8 17.2 L 133.6 14.6 L 144.6 19.6 L 146.9 22.4 L 143.26467370986938 23.373748111724854 L 142.3 26.1 L 139.6 32.3 L 136.7 38.3 L 133.5 44.1 L 131.89285717010497 46.6 L 163.6 46.6 L 173.6 36.6 L 185.6 46.6 L 185.6 50.6 L 168.84682540893556 50.6 L 166.2 62.1 L 162.3 73.7 L 157.2 84.4 L 151.0 94.1 L 147.92672157287598 97.76267423629761 L 150.0 99.7 L 156.8 104.7 L 164.2 109.2 L 172.5 113.2 L 181.4 116.6 L 188.4 119.1 L 176.9 128.9 L 167.1 124.5 Z M 129.2716980934143 50.6 L 126.2 55.0 L 123.4843258857727 58.3117977142334 L 125.9 64.9 L 129.5 73.2 L 133.7 80.8 L 138.5 87.7 L 141.59023056030273 91.30526895523072 L 143.3 88.9 L 148.2 79.8 L 152.2 70.0 L 155.2 59.2 L 156.6956521987915 50.6 Z M 32.5 81.5 L 21.5 87.0 L 21.5 37.9 L 32.5 43.4 L 45.0 43.4 L 45.0 28.0 L 16.4 28.0 L 16.4 24.0 L 84.7 24.0 L 94.7 14.0 L 106.7 24.0 L 106.7 28.0 L 78.1 28.0 L 78.1 43.4 L 90.6 43.4 L 96.1 38.4 L 106.6 47.4 L 101.6 50.9 L 101.6 78.5 L 90.6 84.0 L 90.6 74.5 L 32.5 74.5 Z M 32.5 47.4 L 32.5 70.5 L 45.0 70.5 L 45.0 47.4 Z M 55.0 47.4 L 55.0 70.5 L 68.1 70.5 L 68.1 47.4 Z M 78.1 47.4 L 78.1 70.5 L 90.6 70.5 L 90.6 47.4 Z M 55.0 28.0 L 55.0 43.4 L 68.1 43.4 L 68.1 28.0 Z " />
</g>
</svg>
