<svg xmlns="http://www.w3.org/2000/svg" xmlns:xlink="http://www.w3.org/1999/xlink" version="1.1" baseProfile="full" viewBox="0 0 200 200" width="200" height="200">
<g fill="black">
<path d="M 75.4 184.9 L 72.9 184.4 L 70.5 183.6 L 68.3 182.4 L 66.2 180.7 L 64.6 178.7 L 63.4 176.5 L 62.6 174.0 L 62.1 171.6 L 62.0 169.0 L 62.0 144.1 L 74.0 146.1 L 77.0 148.1 L 74.0 149.9 L 74.0 169.0 L 74.1 170.2 L 74.2 171.1 L 74.4 171.7 L 74.6 172.1 L 74.9 172.4 L 75.3 172.6 L 75.8 172.8 L 76.8 172.9 L 78.0 173.0 L 138.1 173.0 L 144.1 148.0 L 146.1 148.0 L 144.1 173.0 L 147.7 175.4 L 150.1 179.0 L 147.7 182.6 L 144.1 185.0 L 78.0 185.0 Z M 20.1 177.6 L 20.0 173.0 L 23.1 169.6 L 25.7 168.7 L 28.0 167.5 L 30.2 166.0 L 32.2 164.3 L 34.0 162.2 L 35.6 159.7 L 37.1 156.8 L 38.3 153.4 L 39.4 149.7 L 39.9 145.4 L 41.7 145.4 L 42.2 149.8 L 42.6 154.0 L 42.5 158.1 L 41.9 162.0 L 40.9 165.7 L 39.3 169.3 L 37.2 172.6 L 34.6 175.6 L 31.6 178.2 L 28.1 180.5 L 23.5 180.6 Z M 165.9 167.7 L 164.6 165.3 L 163.0 162.8 L 161.0 160.2 L 158.6 157.6 L 155.9 155.0 L 152.8 152.3 L 149.5 149.5 L 145.6 147.0 L 146.4 145.4 L 150.8 146.9 L 155.1 148.5 L 159.1 150.2 L 162.8 152.2 L 166.2 154.3 L 169.3 156.7 L 172.1 159.2 L 174.6 161.9 L 176.8 164.9 L 178.7 168.0 L 178.6 172.6 L 175.3 175.8 L 170.7 175.7 L 167.5 172.4 L 166.9 170.1 Z M 107.6 158.2 L 106.0 156.2 L 104.2 154.1 L 102.1 152.1 L 99.8 150.1 L 97.3 148.1 L 94.6 146.1 L 91.6 144.0 L 88.4 142.3 L 89.0 140.6 L 92.7 141.5 L 96.3 142.2 L 99.8 143.2 L 103.1 144.3 L 106.3 145.7 L 109.3 147.2 L 112.2 148.9 L 114.9 150.7 L 117.4 152.8 L 119.8 155.0 L 120.9 159.4 L 118.7 163.4 L 114.3 164.6 L 110.3 162.3 L 109.1 160.3 Z M 71.9 127.5 L 85.9 127.5 L 86.9 127.4 L 87.5 127.3 L 87.9 127.2 L 88.2 127.0 L 88.3 126.9 L 88.5 126.6 L 88.7 126.2 L 88.9 125.4 L 89.1 124.4 L 89.2 123.0 L 89.2 71.6 L 28.8 71.6 L 28.8 133.1 L 17.8 138.6 L 17.8 62.1 L 28.8 67.6 L 29.0 67.6 L 29.0 15.3 L 40.0 20.8 L 77.4 20.8 L 83.4 15.8 L 94.4 24.8 L 89.4 28.8 L 89.4 67.41818180084229 L 94.7 62.6 L 105.2 71.6 L 100.2 75.1 L 100.2 123.0 L 100.0 125.4 L 99.7 127.8 L 99.0 130.0 L 98.0 132.2 L 96.6 134.1 L 94.8 135.8 L 92.8 137.0 L 90.6 137.9 L 88.3 138.3 L 85.9 138.5 L 85.9 133.0 L 71.9 130.2 Z M 107.9 83.5 L 119.1 83.5 L 119.1 33.6 L 131.1 39.6 L 145.2 39.6 L 145.2 14.6 L 157.2 16.6 L 160.2 18.6 L 157.2 20.4 L 157.2 39.6 L 160.4181818008423 39.6 L 168.6 30.6 L 178.6 39.6 L 178.6 43.6 L 157.2 43.6 L 157.2 83.5 L 165.0 83.5 L 175.0 73.5 L 187.0 83.5 L 187.0 87.5 L 157.2 87.5 L 157.2 128.4 L 145.2 134.4 L 145.2 87.5 L 107.9 87.5 Z M 49.2 84.9 L 68.8 84.9 L 74.3 79.9 L 84.8 88.9 L 79.8 92.4 L 79.8 118.1 L 68.8 123.6 L 68.8 114.1 L 49.2 114.1 L 49.2 121.1 L 38.2 126.6 L 38.2 79.4 Z M 49.2 88.9 L 49.2 110.1 L 68.8 110.1 L 68.8 88.9 Z M 131.1 43.6 L 131.1 83.5 L 145.2 83.5 L 145.2 43.6 Z M 40.0 24.8 L 40.0 67.6 L 52.4 67.6 L 52.4 35.5 L 63.4 41.0 L 77.4 41.0 L 77.4 24.8 Z M 63.4 45.0 L 63.4 67.6 L 77.4 67.6 L 77.4 45.0 Z " />
</g>
</svg>
