<svg xmlns="http://www.w3.org/2000/svg" xmlns:xlink="http://www.w3.org/1999/xlink" version="1.1" baseProfile="full" viewBox="0 0 200 200" width="200" height="200">
<g fill="black">
<path d="M 72.4 180.3 L 69.9 179.9 L 67.5 179.1 L 65.2 177.9 L 63.2 176.2 L 61.6 174.2 L 60.3 171.9 L 59.5 169.5 L 59.1 167.0 L 59.0 164.5 L 59.0 127.8 L 71.0 129.8 L 74.0 131.8 L 71.0 133.6 L 71.0 165.7 L 71.2 166.6 L 71.5 167.5 L 71.9 167.9 L 72.2 168.1 L 72.8 168.2 L 73.7 168.4 L 75.0 168.5 L 140.0 168.5 L 146.0 143.5 L 148.0 143.5 L 146.0 168.5 L 149.6 170.9 L 152.0 174.5 L 149.6 178.1 L 146.0 180.5 L 75.0 180.5 Z M 14.4 172.4 L 13.8 167.9 L 16.5 164.2 L 19.4 162.7 L 22.0 160.8 L 24.4 158.6 L 26.6 155.9 L 28.6 152.7 L 30.3 149.0 L 31.9 144.7 L 33.2 140.0 L 34.3 134.7 L 35.1 129.0 L 36.9 128.9 L 37.7 134.8 L 38.1 140.5 L 37.9 145.9 L 37.3 151.0 L 36.2 155.7 L 34.5 160.2 L 32.3 164.4 L 29.6 168.2 L 26.3 171.6 L 22.6 174.6 L 18.0 175.1 Z M 169.2 158.4 L 167.7 155.0 L 165.8 151.6 L 163.6 148.2 L 161.0 144.8 L 158.1 141.4 L 154.9 138.0 L 151.3 134.5 L 147.3 131.0 L 148.3 129.5 L 153.2 131.6 L 157.9 134.0 L 162.2 136.7 L 166.2 139.6 L 169.8 142.8 L 173.1 146.1 L 176.0 149.7 L 178.6 153.5 L 180.9 157.5 L 182.8 161.8 L 182.3 166.3 L 178.8 169.3 L 174.3 168.8 L 171.3 165.3 L 170.4 161.9 Z M 107.2 145.2 L 105.3 142.4 L 103.3 139.8 L 101.0 137.1 L 95.9 132.0 L 93.0 129.5 L 89.9 127.0 L 86.5 124.7 L 87.2 123.0 L 91.3 124.3 L 95.2 125.6 L 99.0 127.2 L 102.6 129.0 L 106.1 131.1 L 109.3 133.4 L 112.4 135.9 L 115.3 138.6 L 118.0 141.5 L 120.5 144.6 L 121.2 149.1 L 118.5 152.9 L 114.0 153.5 L 110.3 150.9 L 108.8 148.0 Z M 179.5 82.7 L 181.5 82.7 L 179.5 107.7 L 183.1 110.1 L 185.5 113.7 L 183.1 117.3 L 179.5 119.7 L 148.8 119.7 L 146.2 119.6 L 143.7 119.1 L 141.3 118.3 L 139.0 117.1 L 137.0 115.4 L 135.4 113.4 L 134.1 111.2 L 133.3 108.7 L 132.9 106.3 L 132.8 103.7 L 132.8 61.46000003814697 L 131.3 68.6 L 127.7 79.3 L 122.9 89.0 L 116.9 97.5 L 109.8 104.8 L 101.6 110.8 L 92.4 115.5 L 82.2 118.8 L 71.1 120.8 L 70.7 119.0 L 81.0 115.2 L 90.0 110.7 L 97.9 105.4 L 104.6 99.3 L 110.2 92.4 L 114.7 84.6 L 118.3 75.8 L 120.9 66.1 L 122.5 55.3 L 122.98907566070557 45.6 L 89.3 45.6 L 89.3 41.6 L 123.1 41.6 L 123.1 11.6 L 135.1 13.6 L 138.1 15.6 L 135.1 17.4 L 135.1 41.6 L 161.4 41.6 L 171.4 31.6 L 183.4 41.6 L 183.4 45.6 L 134.9186046600342 45.6 L 133.8 56.7 L 133.60378894805908 57.63396482467651 L 144.8 59.5 L 147.8 61.5 L 144.8 63.3 L 144.8 104.9 L 145.0 105.8 L 145.2 106.4 L 145.4 106.8 L 145.7 107.1 L 146.0 107.3 L 146.6 107.5 L 147.5 107.6 L 148.8 107.7 L 173.5 107.7 Z M 33.8 85.7 L 63.0 85.7 L 69.0 80.7 L 80.0 89.7 L 75.0 93.7 L 75.0 113.2 L 63.0 119.2 L 63.0 113.2 L 33.8 113.2 L 21.8 119.2 L 21.8 79.7 Z M 33.8 89.7 L 33.8 109.2 L 63.0 109.2 L 63.0 89.7 Z M 74.5 70.2 L 74.5 74.2 L 22.3 74.2 L 22.3 70.2 L 56.31818180084228 70.2 L 64.5 61.2 Z M 74.5 54.0 L 74.5 58.0 L 22.3 58.0 L 22.3 54.0 L 60.2777777671814 54.0 L 66.5 47.0 Z M 82.8 36.7 L 82.8 40.7 L 18.6 40.7 L 18.6 36.7 L 64.61818180084228 36.7 L 72.8 27.7 Z M 156.5 31.4 L 155.7 29.9 L 154.8 28.4 L 153.6 26.8 L 152.1 25.2 L 150.3 23.7 L 148.3 22.1 L 146.0 20.4 L 143.4 19.3 L 143.8 17.6 L 146.8 18.2 L 149.7 18.5 L 152.5 19.1 L 155.2 19.8 L 157.7 20.8 L 160.1 22.0 L 162.4 23.4 L 164.4 25.0 L 166.3 26.9 L 168.0 29.0 L 168.3 33.5 L 165.3 37.0 L 160.7 37.3 L 157.3 34.3 L 157.0 32.9 Z M 74.5 20.6 L 74.5 24.6 L 22.3 24.6 L 22.3 20.6 L 56.31818180084228 20.6 L 64.5 11.6 Z " />
</g>
</svg>
