<svg xmlns="http://www.w3.org/2000/svg" xmlns:xlink="http://www.w3.org/1999/xlink" version="1.1" baseProfile="full" viewBox="0 0 200 200" width="200" height="200">
<g fill="black">
<path d="M 73.4 180.6 L 70.9 180.2 L 68.5 179.4 L 66.2 178.1 L 64.2 176.5 L 62.6 174.5 L 61.3 172.2 L 60.5 169.8 L 60.1 167.3 L 60.0 164.8 L 60.0 126.6 L 72.0 128.6 L 75.0 130.6 L 72.0 132.4 L 72.0 166.0 L 72.2 166.9 L 72.5 167.8 L 72.9 168.2 L 73.8 168.5 L 74.7 168.7 L 76.0 168.8 L 141.0 168.8 L 147.0 143.8 L 149.0 143.8 L 147.0 168.8 L 150.6 171.2 L 153.0 174.8 L 150.6 178.4 L 147.0 180.8 L 76.0 180.8 Z M 15.4 172.6 L 14.8 168.1 L 17.4 164.4 L 20.3 162.8 L 22.9 160.8 L 25.3 158.5 L 27.5 155.6 L 29.5 152.3 L 31.3 148.4 L 32.8 144.0 L 34.1 139.1 L 35.3 133.7 L 36.1 127.7 L 37.9 127.6 L 38.7 133.8 L 39.1 139.6 L 39.0 145.2 L 38.3 150.4 L 37.2 155.3 L 35.5 159.9 L 33.4 164.2 L 30.6 168.1 L 27.4 171.6 L 23.6 174.6 L 19.1 175.3 Z M 170.2 158.1 L 168.6 154.5 L 166.8 151.0 L 164.5 147.5 L 162.0 144.0 L 159.1 140.5 L 155.8 137.0 L 152.3 133.4 L 148.3 129.8 L 149.3 128.3 L 154.3 130.5 L 158.9 133.0 L 163.2 135.8 L 167.2 138.8 L 170.8 142.1 L 174.1 145.6 L 177.1 149.4 L 179.7 153.3 L 182.0 157.5 L 183.8 161.8 L 183.3 166.4 L 179.8 169.3 L 175.3 168.8 L 172.3 165.3 L 171.4 161.7 Z M 108.1 144.4 L 106.3 141.5 L 104.2 138.7 L 101.9 136.0 L 99.5 133.4 L 96.8 130.8 L 93.9 128.2 L 90.9 125.6 L 87.5 123.3 L 88.2 121.6 L 92.3 122.9 L 96.3 124.3 L 100.1 126.0 L 103.7 127.9 L 107.1 130.1 L 110.4 132.4 L 113.5 135.0 L 116.4 137.9 L 119.1 140.9 L 121.6 144.1 L 122.2 148.7 L 119.5 152.4 L 115.0 153.0 L 111.3 150.3 L 109.8 147.3 Z M 34.4 96.6 L 33.6 101.9 L 32.3 107.0 L 30.6 111.9 L 28.6 116.5 L 26.2 120.8 L 23.4 124.9 L 20.2 128.7 L 16.5 132.1 L 12.6 135.1 L 11.3 133.9 L 13.8 129.8 L 16.0 125.7 L 17.9 121.7 L 19.5 117.6 L 20.8 113.4 L 21.8 109.2 L 22.6 104.9 L 23.0 100.4 L 23.1 95.8 L 23.0 91.1 L 23.0 57.1 L 35.0 63.1 L 82.0 63.1 L 88.0 58.1 L 96.31336402893066 64.90184335708618 L 99.9 62.9 L 103.4 60.1 L 106.4 57.4 L 108.9 54.6 L 110.8 51.7 L 112.3 48.8 L 113.3 45.8 L 113.9 42.6 L 114.1 39.3 L 114.0 35.8 L 114.0 13.7 L 126.0 19.7 L 150.0 19.7 L 156.0 14.7 L 167.0 23.7 L 162.0 27.7 L 162.0 45.3 L 161.9 46.5 L 161.9 47.5 L 162.0 48.2 L 162.0 48.7 L 162.2 49.1 L 162.4 49.4 L 162.8 49.8 L 163.5 50.2 L 164.6 50.6 L 166.0 50.8 L 176.5 50.8 L 181.0 37.8 L 183.0 37.8 L 181.0 50.8 L 183.7 52.6 L 185.5 55.3 L 183.7 58.0 L 181.0 59.8 L 163.5 59.8 L 161.2 59.5 L 158.9 58.9 L 156.7 57.9 L 154.7 56.5 L 153.1 54.7 L 151.7 52.6 L 150.8 50.3 L 150.2 47.8 L 150.0 45.3 L 150.0 23.7 L 126.0 23.7 L 126.0 35.8 L 125.3 40.6 L 124.1 45.2 L 122.3 49.4 L 119.9 53.3 L 117.1 56.7 L 113.7 59.6 L 110.0 62.1 L 105.8 64.1 L 101.2 65.7 L 98.24657535552979 66.48356161117553 L 99.0 67.1 L 94.0 71.1 L 94.0 95.1 L 82.0 101.1 L 82.0 93.1 L 34.78181819915771 93.1 Z M 158.1 119.9 L 149.8 116.4 L 142.3 112.2 L 135.7 107.2 L 134.0299160003662 105.55921564102172 L 125.4 108.0 L 114.4 110.3 L 102.3 111.8 L 89.0 112.6 L 88.9 110.8 L 101.7 108.1 L 113.2 105.1 L 123.5 101.8 L 128.56567287445068 99.71744556427002 L 125.2 95.3 L 121.5 88.3 L 118.8 80.8 L 117.45 73.6 L 107.0 73.6 L 107.0 69.6 L 160.0 69.6 L 166.0 64.6 L 177.0 73.6 L 172.0 76.6 L 169.89230766296387 77.47820510864258 L 168.7 80.3 L 164.3 86.8 L 158.7 92.5 L 152.0 97.4 L 144.3054054260254 101.54324321746826 L 147.4 103.4 L 154.2 106.3 L 161.7 108.7 L 169.9 110.5 L 178.8 111.7 L 188.9 113.0 L 177.1 124.8 L 167.2 122.7 Z M 119.77826089859009 73.6 L 122.7 79.2 L 126.6 85.4 L 131.0 90.9 L 135.9 95.7 L 136.40102672576904 96.07349262237548 L 140.2 94.1 L 146.7 89.8 L 151.8 85.2 L 155.7 80.3 L 158.5 75.3 L 159.0452830314636 73.6 Z M 35.0 67.1 L 35.0 89.1 L 53.0 89.1 L 53.0 67.1 Z M 65.0 67.1 L 65.0 89.1 L 82.0 89.1 L 82.0 67.1 Z M 20.0 48.9 L 53.0 48.9 L 53.0 33.4 L 13.0 33.4 L 13.0 29.4 L 53.0 29.4 L 53.0 13.1 L 65.0 15.1 L 68.0 17.1 L 65.0 18.9 L 65.0 29.4 L 86.0 29.4 L 96.0 19.4 L 108.0 29.4 L 108.0 33.4 L 65.0 33.4 L 65.0 48.9 L 80.81818180084228 48.9 L 89.0 39.9 L 99.0 48.9 L 99.0 52.9 L 20.0 52.9 Z " />
</g>
</svg>
