<svg xmlns="http://www.w3.org/2000/svg" xmlns:xlink="http://www.w3.org/1999/xlink" version="1.1" baseProfile="full" viewBox="0 0 200 200" width="200" height="200">
<g fill="black">
<path d="M 51.3 15.0 L 54.3 17.0 L 51.3 18.8 L 51.3 182.0 L 39.3 188.0 L 39.3 13.0 Z M 103.5 174.7 L 120.7 174.7 L 121.6 174.5 L 122.2 174.3 L 122.5 174.1 L 122.7 174.0 L 122.9 173.8 L 123.2 172.9 L 123.4 172.0 L 123.5 170.7 L 123.5 144.5 L 75.5 144.5 L 75.5 140.5 L 123.5 140.5 L 123.5 126.9 L 131.81074380874634 128.28512392044067 L 134.4 124.7 L 137.0 121.4 L 139.4 118.3 L 141.7 115.4 L 143.8 112.7 L 145.8 110.2 L 145.8782608985901 110.1 L 94.5 110.1 L 94.5 106.1 L 148.9 106.1 L 148.92307691574098 106.0807692527771 L 149.2 105.7 L 150.7 103.8 L 151.12518672943116 104.24567766189575 L 154.9 101.1 L 165.9 110.1 L 160.9 113.1 L 153.97142858505248 115.9869047164917 L 152.4 117.1 L 149.9 119.0 L 147.1 121.0 L 144.1 123.2 L 140.9 125.5 L 137.5 127.9 L 135.7617449760437 129.0744966506958 L 138.5 130.9 L 135.5 132.7 L 135.5 140.5 L 161.4 140.5 L 171.4 130.5 L 183.4 140.5 L 183.4 144.5 L 135.5 144.5 L 135.5 170.7 L 135.3 173.3 L 134.9 175.8 L 134.1 178.2 L 132.8 180.5 L 131.2 182.5 L 129.2 184.1 L 126.9 185.3 L 124.5 186.2 L 122.0 186.6 L 119.5 186.7 L 119.5 180.7 L 103.5 177.7 Z M 73.7 112.2 L 72.7 107.7 L 75.1 103.8 L 76.0 103.6 L 77.1 103.0 L 78.3 101.9 L 79.4 100.4 L 80.6 98.4 L 81.7 96.0 L 82.7 93.2 L 83.6 90.0 L 84.5 86.4 L 84.8 82.4 L 86.6 82.3 L 87.0 86.4 L 87.28421049118042 88.2 L 123.5 88.2 L 123.5 68.2 L 135.5 70.2 L 138.5 72.2 L 135.5 74.0 L 135.5 88.2 L 171.7 88.2 L 172.3518518447876 87.65679016113282 L 172.4 87.4 L 172.55802755355836 87.48497705459594 L 177.7 83.2 L 188.7 92.2 L 183.7 95.2 L 179.24285717010497 97.05714282989501 L 175.7 100.6 L 173.9 102.3 L 172.0 104.0 L 169.9 105.8 L 167.7 107.6 L 165.7 109.8 L 164.3 108.7 L 165.8 106.2 L 166.8 103.6 L 167.8 101.1 L 168.7 98.7 L 169.6 96.5 L 170.4 94.4 L 171.0 92.5 L 171.1 92.2 L 87.76666669845581 92.2 L 87.9 93.8 L 88.0 97.2 L 87.8 100.4 L 87.4 103.4 L 86.6 106.2 L 85.5 108.9 L 84.0 111.4 L 82.0 113.6 L 77.5 114.6 Z M 19.9 100.5 L 17.3 96.8 L 17.9 92.3 L 19.2 90.6 L 20.6 88.5 L 21.9 85.9 L 23.2 82.9 L 24.6 79.4 L 25.9 75.5 L 27.1 71.2 L 28.5 66.5 L 29.9 61.4 L 31.1 55.9 L 32.9 56.0 L 33.0 61.7 L 33.2 67.1 L 33.1 72.1 L 32.8 76.8 L 32.4 81.2 L 31.9 85.2 L 31.2 89.0 L 30.4 92.4 L 29.4 95.6 L 28.2 98.5 L 24.5 101.2 Z M 62.5 77.1 L 61.9 74.3 L 61.2 71.5 L 60.3 68.7 L 59.3 65.7 L 58.2 62.7 L 56.9 59.6 L 55.6 56.4 L 53.8 53.3 L 55.2 52.2 L 57.7 54.8 L 60.4 57.2 L 62.8 59.8 L 65.1 62.4 L 67.1 65.2 L 69.0 67.9 L 70.7 70.8 L 72.3 73.7 L 73.7 76.7 L 74.9 79.7 L 74.1 84.2 L 70.4 86.9 L 65.9 86.1 L 63.2 82.4 L 62.9 79.8 Z M 84.2 26.2 L 84.2 22.2 L 159.8 22.2 L 169.8 12.2 L 181.8 22.2 L 181.8 26.2 L 159.7 26.2 L 159.7 69.3 L 147.7 75.3 L 147.7 26.2 L 118.8 26.2 L 118.8 42.3 L 118.1 47.2 L 116.5 51.7 L 114.1 55.8 L 111.1 59.4 L 107.4 62.5 L 103.2 65.1 L 98.4 67.2 L 93.0 69.0 L 87.1 70.2 L 80.7 71.2 L 80.3 69.5 L 86.1 67.1 L 91.2 64.4 L 95.6 61.8 L 99.2 59.1 L 102.1 56.3 L 104.2 53.5 L 105.7 50.8 L 106.6 48.0 L 106.9 45.3 L 106.8 42.3 L 106.8 26.2 Z " />
</g>
</svg>
