<svg xmlns="http://www.w3.org/2000/svg" xmlns:xlink="http://www.w3.org/1999/xlink" version="1.1" baseProfile="full" viewBox="0 0 200 200" width="200" height="200">
<g fill="black">
<path d="M 73.4 178.0 L 70.9 177.6 L 68.5 176.8 L 66.2 175.5 L 64.2 173.9 L 62.6 171.9 L 61.3 169.6 L 60.5 167.2 L 60.1 164.7 L 60.0 162.2 L 60.0 122.7 L 72.0 124.7 L 75.0 126.7 L 72.0 128.5 L 72.0 163.4 L 72.2 164.3 L 72.5 165.2 L 72.9 165.6 L 73.8 165.9 L 74.7 166.1 L 76.0 166.2 L 141.0 166.2 L 147.0 141.2 L 149.0 141.2 L 147.0 166.2 L 150.6 168.6 L 153.0 172.2 L 150.6 175.7 L 147.0 178.2 L 76.0 178.2 Z M 15.4 169.9 L 14.7 165.4 L 17.4 161.7 L 20.2 160.0 L 22.8 158.0 L 25.2 155.6 L 27.5 152.6 L 29.5 149.1 L 31.3 145.2 L 32.8 140.6 L 34.1 135.5 L 35.2 129.9 L 36.1 123.8 L 37.9 123.7 L 38.8 130.0 L 39.2 136.0 L 39.0 141.7 L 38.4 147.1 L 37.2 152.1 L 35.6 156.8 L 33.4 161.2 L 30.7 165.2 L 27.4 168.8 L 23.7 171.9 L 19.1 172.6 Z M 170.2 155.0 L 168.6 151.3 L 166.7 147.7 L 164.5 144.0 L 161.9 140.5 L 159.0 136.9 L 155.8 133.3 L 152.2 129.6 L 148.3 125.9 L 149.3 124.4 L 154.3 126.7 L 159.0 129.3 L 163.3 132.2 L 167.3 135.4 L 170.9 138.8 L 174.2 142.4 L 177.2 146.2 L 179.8 150.3 L 182.0 154.6 L 183.9 159.0 L 183.3 163.6 L 179.8 166.5 L 175.3 165.9 L 172.3 162.4 L 171.4 158.7 Z M 108.1 140.8 L 106.2 137.9 L 104.2 135.1 L 101.9 132.3 L 99.4 129.6 L 96.8 126.9 L 93.9 124.3 L 90.8 121.7 L 87.5 119.2 L 88.2 117.6 L 92.3 119.0 L 96.3 120.4 L 100.1 122.1 L 103.7 124.1 L 107.2 126.4 L 110.5 128.8 L 113.5 131.5 L 116.4 134.4 L 119.1 137.6 L 121.6 140.9 L 122.2 145.4 L 119.5 149.1 L 114.9 149.6 L 111.3 146.9 L 109.8 143.8 Z M 86.6 58.3 L 84.8 59.9 L 82.8 61.3 L 80.7 62.5 L 78.6 63.5 L 76.3 64.2 L 73.9 64.8 L 71.5 65.1 L 69.1 65.2 L 69.1 59.2 L 51.0 56.2 L 51.0 53.2 L 69.1 53.2 L 70.5 53.1 L 73.1 52.7 L 74.2 52.3 L 75.3 51.8 L 76.3 51.2 L 77.3 50.5 L 78.2 49.7 L 79.2 48.7 L 80.1 47.6 L 80.2 47.3 L 80.5 46.5 L 80.9 45.1 L 81.3 43.2 L 81.7 40.9 L 82.0 38.1 L 82.2 35.0 L 82.4 31.4 L 82.5 27.5 L 82.5 25.2 L 58.74626865386963 25.2 L 58.0 30.2 L 56.3 36.6 L 53.9 42.5 L 50.8 48.0 L 47.1 53.0 L 42.7 57.5 L 37.8 61.4 L 32.2 64.9 L 30.926956558227538 65.46347827911377 L 38.6 69.3 L 79.3 69.3 L 85.3 64.3 L 96.3 73.3 L 91.3 77.3 L 91.3 103.0 L 79.3 109.0 L 79.3 103.0 L 38.6 103.0 L 38.6 106.0 L 26.6 112.0 L 26.6 67.37868852615357 L 26.1 67.6 L 19.4 69.8 L 18.6 68.2 L 24.3 64.3 L 29.2 60.4 L 33.6 56.4 L 37.2 52.3 L 40.3 47.9 L 42.7 43.4 L 44.6 38.7 L 45.9 33.7 L 46.7 28.5 L 46.82452831268311 25.2 L 21.4 25.2 L 21.4 21.2 L 82.5 21.2 L 88.5 16.2 L 99.5 25.2 L 94.5 28.2 L 94.48797597885132 28.20501003265381 L 94.4 31.9 L 94.2 35.7 L 93.9 39.2 L 93.6 42.4 L 93.1 45.3 L 92.6 47.9 L 91.9 50.3 L 91.0 52.5 L 89.8 54.6 L 88.2 56.5 Z M 189.4 100.8 L 189.4 104.8 L 96.1 104.8 L 96.1 100.8 L 167.4 100.8 L 177.4 90.8 Z M 38.6 73.3 L 38.6 99.0 L 79.3 99.0 L 79.3 73.3 Z M 125.3 22.1 L 163.7 22.1 L 169.7 17.1 L 180.7 26.1 L 175.7 30.1 L 175.7 87.4 L 163.7 93.4 L 163.7 85.4 L 125.3 85.4 L 125.3 88.4 L 113.3 94.4 L 113.3 16.1 Z M 125.3 54.9 L 125.3 81.4 L 163.7 81.4 L 163.7 54.9 Z M 125.3 26.1 L 125.3 50.9 L 163.7 50.9 L 163.7 26.1 Z " />
</g>
</svg>
