<svg xmlns="http://www.w3.org/2000/svg" xmlns:xlink="http://www.w3.org/1999/xlink" version="1.1" baseProfile="full" viewBox="0 0 200 200" width="200" height="200">
<g fill="black">
<path d="M 147.0 141.8 L 149.0 141.8 L 147.0 166.8 L 150.6 169.2 L 153.0 172.8 L 150.6 176.4 L 147.0 178.8 L 76.0 178.8 L 73.4 178.7 L 70.9 178.3 L 68.5 177.4 L 66.2 176.2 L 64.2 174.6 L 62.6 172.6 L 61.3 170.3 L 60.5 167.9 L 60.1 165.4 L 60.0 162.8 L 60.0 118.8 L 72.0 120.8 L 75.0 122.8 L 72.0 124.6 L 72.0 164.1 L 72.2 165.0 L 72.5 165.9 L 72.7 166.1 L 72.9 166.2 L 73.2 166.4 L 73.8 166.6 L 74.7 166.8 L 141.0 166.8 Z M 15.5 170.4 L 14.6 165.9 L 17.1 162.0 L 19.9 160.2 L 22.6 157.9 L 25.0 155.1 L 27.3 151.8 L 29.3 147.9 L 31.1 143.4 L 32.7 138.3 L 34.0 132.7 L 35.1 126.5 L 36.1 119.8 L 37.9 119.7 L 38.9 126.6 L 39.3 133.2 L 39.1 139.4 L 38.5 145.2 L 37.3 150.7 L 35.7 155.7 L 33.5 160.5 L 30.8 164.8 L 27.6 168.6 L 23.8 172.0 L 19.3 172.8 Z M 170.1 153.8 L 168.5 149.7 L 166.6 145.7 L 164.3 141.8 L 161.8 137.9 L 158.8 134.0 L 155.6 130.1 L 152.1 126.2 L 148.3 122.1 L 149.3 120.7 L 154.4 123.2 L 159.1 126.1 L 163.5 129.4 L 167.4 132.9 L 171.1 136.7 L 174.4 140.7 L 177.3 145.0 L 179.9 149.4 L 182.1 154.1 L 184.0 159.0 L 183.3 163.5 L 179.7 166.4 L 175.2 165.7 L 172.4 162.1 L 171.4 157.9 Z M 108.0 138.2 L 106.1 135.0 L 104.0 131.9 L 101.8 128.9 L 99.3 125.9 L 96.6 123.1 L 93.8 120.3 L 90.8 117.4 L 87.4 114.8 L 88.3 113.2 L 92.4 114.7 L 96.4 116.4 L 100.3 118.3 L 103.9 120.6 L 107.4 123.1 L 110.7 125.9 L 113.8 128.9 L 116.7 132.2 L 119.4 135.6 L 121.9 139.3 L 122.2 143.8 L 119.4 147.4 L 114.8 147.8 L 111.2 144.9 L 109.7 141.5 Z M 16.3 119.7 L 15.2 115.3 L 17.4 111.2 L 19.4 109.8 L 21.4 107.8 L 23.3 105.1 L 25.1 101.8 L 26.8 97.8 L 28.3 93.2 L 29.6 88.0 L 30.7 82.2 L 31.7 75.7 L 32.6 68.6 L 34.4 68.6 L 35.4 75.7 L 35.867647075653075 81.0 L 170.3 81.0 L 170.85135135650634 80.54054050445556 L 170.9 80.4 L 170.9760563850403 80.43661975860596 L 176.3 76.0 L 187.3 85.0 L 182.3 88.0 L 179.3054054260254 89.24774770736694 L 178.3 90.7 L 176.3 93.5 L 174.2 96.4 L 171.8 99.4 L 169.3 102.5 L 166.7 105.8 L 163.7 109.2 L 160.6 112.6 L 157.4 116.3 L 155.9 115.3 L 158.0 110.9 L 159.9 106.6 L 161.7 102.6 L 163.4 98.9 L 165.0 95.3 L 166.5 91.9 L 167.8 88.7 L 169.0 85.7 L 169.259259223938 85.0 L 36.0 85.0 L 36.0 88.7 L 35.7 94.6 L 35.0 100.0 L 33.8 105.0 L 32.3 109.5 L 30.3 113.7 L 27.8 117.5 L 24.8 120.7 L 20.3 121.9 Z M 166.4 62.4 L 163.2 58.6 L 160.1 54.5 L 157.3 50.1 L 154.7 45.4 L 152.4 40.4 L 150.3 35.0 L 148.6 29.3 L 148.14631929397584 27.20608901977539 L 145.9 27.5 L 135.1 28.7 L 124.1 29.9 L 113.0 30.9 L 106.92569169998168 31.383794498443603 L 109.5 33.1 L 106.5 34.9 L 106.5 56.5 L 94.5 62.5 L 94.5 32.3008695602417 L 90.2 32.6 L 78.5 33.2 L 66.6 33.6 L 56.30422534942627 33.77159624099731 L 57.1 34.7 L 53.25293598175049 35.73046360015869 L 53.0 36.4 L 50.8 40.8 L 48.1 45.1 L 45.1 49.3 L 41.7 53.3 L 37.9 57.3 L 33.6 61.1 L 29.0 64.8 L 23.9 68.3 L 18.3 71.6 L 17.2 70.2 L 21.4 65.5 L 25.3 60.9 L 28.9 56.5 L 32.1 52.3 L 35.0 48.1 L 37.4 44.1 L 39.4 40.1 L 41.1 36.2 L 42.3 32.5 L 42.33165826797485 32.36984920501709 L 42.3 31.8 L 42.47671813964844 31.77349224090576 L 42.977563571929934 29.714461040496825 L 42.9 29.7 L 43.6 27.1 L 51.33480281829834 30.44477958679199 L 54.3 30.0 L 66.2 28.3 L 77.9 26.6 L 89.4 25.0 L 100.7 23.4 L 111.9 21.7 L 122.8 19.9 L 133.6 18.1 L 144.2 16.2 L 153.71527633666992 14.46163215637207 L 153.7 14.4 L 153.7632369041443 14.452870178222657 L 154.6 14.3 L 154.76833925247192 15.293201637268066 L 165.9 24.6 L 166.3 27.5 L 161.86181583404542 25.25131998062134 L 156.6 26.1 L 151.79049654006957 26.729280853271483 L 152.4 27.6 L 155.6 32.4 L 158.7 36.8 L 161.8 40.9 L 164.9 44.7 L 168.1 48.0 L 171.2 51.1 L 174.5 53.8 L 177.7 56.1 L 181.0 58.1 L 184.6 60.5 L 173.6 69.0 L 169.9 65.9 Z " />
</g>
</svg>
