<svg xmlns="http://www.w3.org/2000/svg" xmlns:xlink="http://www.w3.org/1999/xlink" version="1.1" baseProfile="full" viewBox="0 0 200 200" width="200" height="200">
<g fill="black">
<path d="M 77.0 18.2 L 78.9 21.3 L 75.32909383773804 21.73097143173218 L 71.7 29.4 L 66.1 40.2 L 60.3 50.9 L 54.2 61.2 L 47.9 71.4 L 46.85664119720459 72.92610683441163 L 53.3 74.0 L 56.3 76.0 L 53.3 77.8 L 53.3 183.0 L 41.3 189.0 L 41.3 81.05373134613038 L 41.2 81.2 L 34.3 90.8 L 27.1 100.1 L 19.5 109.0 L 11.6 117.5 L 10.2 116.4 L 16.5 106.7 L 22.8 96.9 L 28.9 87.1 L 34.8 77.1 L 40.6 67.0 L 46.1 56.7 L 51.4 46.2 L 56.5 35.5 L 61.3 24.6 L 65.5237717628479 14.407855033874512 L 65.5 14.4 L 65.8061224937439 13.726530647277832 L 65.9 13.5 L 65.90762367248536 13.503227996826173 L 66.5 12.2 Z M 116.3 182.8 L 113.8 182.3 L 111.4 181.5 L 109.1 180.3 L 107.1 178.7 L 105.4 176.6 L 104.2 174.4 L 103.4 172.0 L 103.0 169.5 L 102.8 166.9 L 102.8 133.3 L 114.8 135.3 L 117.8 137.3 L 114.8 139.1 L 114.8 166.9 L 114.9 168.1 L 115.1 169.1 L 115.3 169.6 L 115.4 170.0 L 115.6 170.2 L 115.8 170.3 L 116.1 170.5 L 116.7 170.7 L 117.6 170.8 L 118.8 170.9 L 156.7 170.9 L 162.7 145.9 L 164.7 145.9 L 162.7 170.9 L 166.3 173.3 L 168.7 176.9 L 166.3 180.5 L 162.7 182.9 L 118.8 182.9 Z M 74.6 175.5 L 73.3 171.1 L 75.5 167.0 L 77.1 165.9 L 78.8 164.4 L 80.5 162.4 L 82.0 159.8 L 83.5 156.8 L 84.8 153.3 L 86.0 149.3 L 87.1 144.8 L 88.1 139.9 L 88.7 134.5 L 90.5 134.5 L 91.1 140.0 L 91.7 145.2 L 91.8 150.1 L 91.7 154.7 L 91.2 159.0 L 90.3 163.0 L 89.1 166.8 L 87.5 170.3 L 85.5 173.5 L 83.0 176.3 L 78.6 177.6 Z M 176.4 161.3 L 175.5 158.1 L 174.5 155.0 L 173.2 151.9 L 171.7 148.8 L 170.0 145.7 L 168.1 142.6 L 166.1 139.5 L 163.6 136.5 L 164.7 135.1 L 168.1 137.3 L 171.4 139.6 L 174.5 142.1 L 177.3 144.8 L 179.9 147.7 L 182.2 150.9 L 184.3 154.2 L 186.2 157.7 L 187.8 161.3 L 189.2 165.2 L 188.3 169.7 L 184.6 172.3 L 180.1 171.5 L 177.5 167.8 L 177.0 164.5 Z M 135.0 148.9 L 134.0 146.4 L 132.9 144.0 L 131.7 141.6 L 130.3 139.3 L 128.7 137.1 L 127.1 134.8 L 125.3 132.5 L 123.2 130.6 L 124.1 129.1 L 126.8 130.4 L 129.7 131.6 L 132.4 133.1 L 134.9 134.8 L 137.4 136.8 L 139.7 138.9 L 141.9 141.2 L 144.0 143.7 L 145.9 146.4 L 147.7 149.2 L 147.7 153.8 L 144.6 157.1 L 140.1 157.1 L 136.7 154.0 L 135.9 151.4 Z M 130.7 123.7 L 150.7 123.7 L 151.9 123.6 L 152.9 123.5 L 153.4 123.3 L 154.0 123.0 L 154.3 122.4 L 154.5 121.9 L 154.6 120.9 L 154.7 119.7 L 154.7 99.2651785850525 L 143.6 106.5 L 131.4 113.2 L 118.3 119.3 L 104.2 124.9 L 89.2 129.8 L 73.2 134.0 L 72.7 132.2 L 87.9 126.2 L 102.2 119.9 L 115.4 113.4 L 127.7 106.5 L 139.0 99.3 L 146.2864415168762 93.92359657287598 L 138.7 95.5 L 130.6 96.9 L 122.3 98.2 L 113.7 99.4 L 104.7 100.5 L 95.5 101.4 L 86.0 102.3 L 80.23378210067749 102.71187267303466 L 78.3 105.9 L 76.2 103.0 L 73.7 91.1 L 75.7 91.0 L 85.4 90.9 L 94.8 90.7 L 96.2 90.66956520080566 L 96.2 25.2 L 108.2 31.2 L 121.05789470672607 31.2 L 121.4 30.7 L 122.2 28.5 L 122.9 26.5 L 123.7 24.4 L 124.4 22.5 L 125.0 20.6 L 125.6 18.8 L 126.6 15.2 L 126.77073173522949 14.517073154449463 L 126.5 14.4 L 127.5 12.5 L 137.6 19.2 L 139.3 22.3 L 134.52842245101928 22.546805763244627 L 133.4 23.6 L 131.9 25.1 L 130.3 26.6 L 126.9 29.4 L 125.1 30.8 L 124.48461542129516 31.2 L 154.7 31.2 L 160.7 26.2 L 171.7 35.2 L 166.7 39.2 L 166.7 75.6 L 166.8 75.5 L 174.1 66.8 L 180.4 57.8 L 180.44405288696288 57.82951545715332 L 180.9 57.1 L 190.4 64.5 L 191.8 67.9 L 187.8734133720398 67.70034303665162 L 182.9 74.0 L 174.5 83.0 L 166.7 89.9702127456665 L 166.7 119.7 L 166.6 122.3 L 166.1 124.8 L 165.3 127.2 L 164.1 129.4 L 162.5 131.5 L 160.4 133.1 L 158.2 134.3 L 155.8 135.1 L 153.3 135.6 L 150.7 135.7 L 150.7 129.7 L 130.7 126.7 Z M 108.2 73.9 L 108.2 90.31123600006103 L 112.9 90.1 L 121.5 89.8 L 129.8 89.4 L 137.9 88.9 L 145.7 88.5 L 153.2 88.2 L 153.38166723251342 88.19509010314941 L 154.7 87.06304349899293 L 154.7 73.9 Z M 108.2 54.9 L 108.2 69.9 L 154.7 69.9 L 154.7 54.9 Z M 108.2 35.2 L 108.2 50.9 L 154.7 50.9 L 154.7 35.2 Z " />
</g>
</svg>
