<svg xmlns="http://www.w3.org/2000/svg" xmlns:xlink="http://www.w3.org/1999/xlink" version="1.1" baseProfile="full" viewBox="0 0 200 200" width="200" height="200">
<g fill="black">
<path d="M 73.4 184.2 L 70.9 183.7 L 68.5 182.9 L 66.2 181.7 L 64.2 180.1 L 62.6 178.0 L 61.3 175.8 L 60.5 173.4 L 60.1 170.9 L 60.0 168.3 L 60.0 139.8 L 72.0 141.8 L 75.0 143.8 L 72.0 145.6 L 72.0 169.5 L 72.2 170.5 L 72.4 171.0 L 72.5 171.4 L 72.7 171.6 L 72.9 171.7 L 73.2 171.9 L 73.8 172.1 L 74.7 172.2 L 76.0 172.3 L 141.0 172.3 L 147.0 147.3 L 149.0 147.3 L 147.0 172.3 L 150.6 174.7 L 153.0 178.3 L 150.6 181.9 L 147.0 184.3 L 76.0 184.3 Z M 15.2 176.7 L 15.1 172.1 L 18.1 168.7 L 20.9 167.5 L 23.5 166.1 L 25.8 164.4 L 27.9 162.4 L 29.9 159.9 L 31.6 157.1 L 33.1 153.8 L 34.4 150.0 L 35.5 145.8 L 36.1 141.1 L 37.9 141.1 L 38.5 145.9 L 38.9 150.6 L 38.7 155.1 L 38.1 159.4 L 36.9 163.4 L 35.2 167.3 L 33.0 170.9 L 30.2 174.1 L 27.0 177.0 L 23.2 179.5 L 18.7 179.7 Z M 170.4 165.7 L 168.9 162.9 L 167.1 160.1 L 164.9 157.3 L 162.4 154.5 L 159.5 151.6 L 156.2 148.7 L 152.5 145.7 L 148.5 142.8 L 149.2 141.2 L 154.1 142.9 L 158.6 144.7 L 162.9 146.7 L 166.8 149.0 L 170.4 151.4 L 173.7 154.1 L 176.6 156.9 L 179.3 160.0 L 181.6 163.3 L 183.5 166.8 L 183.3 171.3 L 180.0 174.5 L 175.5 174.3 L 172.3 171.0 L 171.5 168.4 Z M 108.4 155.0 L 106.6 152.8 L 104.5 150.5 L 102.3 148.3 L 99.8 146.1 L 97.1 143.9 L 94.2 141.8 L 91.1 139.5 L 87.6 137.6 L 88.2 135.9 L 92.1 136.9 L 96.1 137.8 L 99.8 138.9 L 103.3 140.3 L 106.7 141.9 L 109.9 143.6 L 112.9 145.6 L 115.8 147.7 L 118.5 150.0 L 121.0 152.5 L 122.0 156.9 L 119.7 160.9 L 115.3 161.9 L 111.3 159.7 L 110.0 157.3 Z M 135.32163305282592 56.96702013015747 L 136.2 71.5 L 137.37402544021606 76.99140911102295 L 163.79571456909179 76.06665000915527 L 168.13144798278807 71.4319004058838 L 164.6 70.2 L 164.0 69.0 L 163.0 67.8 L 161.8 66.5 L 160.2 65.2 L 158.4 63.8 L 156.4 62.4 L 154.1 60.9 L 151.5 59.4 L 148.7 57.8 L 145.6 56.6 L 146.1 54.9 L 149.4 55.5 L 152.7 55.7 L 155.8 56.0 L 158.7 56.5 L 161.4 57.0 L 166.4 58.4 L 168.6 59.2 L 170.8 60.2 L 172.8 61.3 L 174.6 65.5 L 174.26286859512328 66.46644325256348 L 185.7 75.3 L 185.9 79.3 L 138.2243317604065 80.9686484336853 L 139.3 86.0 L 143.9 97.3 L 147.74906902313234 103.3587197303772 L 154.0 98.1 L 159.7 92.3 L 164.02857141494752 87.01914281845093 L 164.0 87.0 L 165.1 85.7 L 174.0 93.7 L 175.1 97.1 L 171.25019063949586 96.62721643447875 L 167.8 100.3 L 161.0 106.2 L 154.37106590270997 111.03733034133911 L 155.4 112.1 L 161.6 116.4 L 167.6 119.3 L 173.0 120.9 L 174.59463090896605 121.18993291854858 L 180.2 96.9 L 182.2 96.9 L 180.2744680404663 121.93191490173339 L 184.4 123.7 L 186.2 127.9 L 184.4 132.1 L 180.2 133.9 L 176.1 133.6 L 170.3 132.6 L 163.3 130.5 L 155.6 126.8 L 147.6 121.2 L 143.7807451248169 117.22998514175416 L 136.8 120.6 L 127.5 124.2 L 117.7 127.2 L 107.2 129.7 L 96.2 131.4 L 84.6 132.4 L 84.3 130.6 L 95.4 127.7 L 105.9 124.5 L 115.7 121.0 L 124.7 117.2 L 133.1 113.0 L 137.93507537841796 110.11151342391967 L 133.2 102.8 L 127.8 89.5 L 126.07007112503052 81.39404754638672 L 105.9 82.1 L 105.7 78.1 L 125.2212589263916 77.41675596237182 L 124.3 73.1 L 123.16030149459839 54.294974899291994 L 123.1 54.3 L 123.1 51.85 L 122.0 52.4 L 122.0 33.6 L 78.0 33.6 L 78.0 46.4 L 66.0 52.4 L 66.0 33.6 L 13.0 33.6 L 13.0 29.6 L 66.0 29.6 L 66.0 12.2 L 78.0 14.2 L 81.0 16.2 L 78.0 18.0 L 78.0 29.6 L 122.0 29.6 L 122.0 12.2 L 134.0 14.2 L 137.0 16.2 L 134.0 18.0 L 134.0 29.6 L 165.0 29.6 L 175.0 19.6 L 187.0 29.6 L 187.0 33.6 L 134.0 33.6 L 134.0 46.4 L 124.45714282989502 51.17142858505249 L 135.1 53.3 L 138.1 55.3 Z M 32.0 121.9 L 47.2 121.9 L 48.1 121.7 L 48.7 121.5 L 49.3 121.2 L 49.4 121.0 L 49.6 120.7 L 49.8 120.1 L 49.9 119.2 L 50.0 117.9 L 50.0 85.3 L 14.2 85.3 L 14.2 81.3 L 50.0 81.3 L 50.0 48.1 L 62.0 50.1 L 65.0 52.1 L 62.0 53.9 L 62.0 65.1 L 78.71818180084229 65.1 L 86.9 56.1 L 96.9 65.1 L 96.9 69.1 L 62.0 69.1 L 62.0 81.3 L 82.5 81.3 L 92.5 71.3 L 104.5 81.3 L 104.5 85.3 L 59.6 85.3 L 62.0 85.7 L 65.0 87.7 L 62.0 89.5 L 62.0 117.9 L 61.9 120.5 L 61.4 123.0 L 60.6 125.4 L 59.4 127.7 L 57.7 129.7 L 55.7 131.3 L 53.5 132.5 L 51.1 133.3 L 48.6 133.8 L 46.0 133.9 L 46.0 127.9 L 32.0 124.9 Z M 40.1 94.8 L 42.0 97.8 L 38.01115245819092 98.28141260147095 L 38.0 98.3 L 35.8 101.7 L 33.5 104.9 L 31.1 108.1 L 28.5 111.2 L 25.9 114.1 L 23.1 116.9 L 20.1 119.5 L 13.9 124.3 L 12.6 123.0 L 14.7 119.8 L 18.5 113.2 L 20.3 110.0 L 22.0 106.7 L 23.6 103.4 L 25.2 100.0 L 28.0 93.2 L 28.8508207321167 90.71843938827514 L 28.8 90.7 L 29.004081630706786 90.27142858505249 L 29.2 89.7 L 29.262307929992676 89.72915325164794 L 29.8 88.6 Z M 85.6 109.4 L 84.4 107.3 L 83.0 105.2 L 81.4 103.1 L 79.6 100.9 L 77.5 98.7 L 75.2 96.4 L 72.7 94.1 L 69.8 92.1 L 70.6 90.5 L 74.0 91.8 L 77.4 92.9 L 80.5 94.2 L 83.5 95.7 L 86.4 97.3 L 89.0 99.1 L 91.5 101.0 L 93.8 103.1 L 95.9 105.3 L 97.8 107.7 L 98.3 112.2 L 95.4 115.8 L 90.9 116.3 L 87.3 113.5 L 86.6 111.5 Z " />
</g>
</svg>
