<svg xmlns="http://www.w3.org/2000/svg" xmlns:xlink="http://www.w3.org/1999/xlink" version="1.1" baseProfile="full" viewBox="0 0 200 200" width="200" height="200">
<g fill="black">
<path d="M 38.0 29.0 L 98.0 29.0 L 98.0 12.0 L 110.0 14.0 L 113.0 16.0 L 110.0 17.8 L 110.0 29.0 L 162.0 29.0 L 172.0 19.0 L 184.0 29.0 L 184.0 33.0 L 130.0 33.0 L 130.0 46.0 L 160.0 46.0 L 166.0 41.0 L 177.0 50.0 L 172.0 54.0 L 172.0 69.0 L 160.0 75.0 L 160.0 69.0 L 38.0 69.0 L 38.0 91.0 L 37.4 102.7 L 36.5 114.0 L 35.1 124.9 L 33.3 135.2 L 31.1 145.1 L 28.4 154.4 L 25.3 163.3 L 21.6 171.6 L 17.5 179.3 L 12.7 186.4 L 11.2 185.5 L 14.0 177.7 L 16.7 169.6 L 19.0 161.3 L 21.1 152.5 L 22.8 143.3 L 24.2 133.7 L 25.2 123.7 L 25.8 113.2 L 26.1 102.3 L 26.0 91.0 L 26.0 23.0 Z M 86.1 178.9 L 83.6 178.5 L 81.2 177.7 L 79.0 176.5 L 76.9 174.8 L 75.3 172.8 L 74.1 170.5 L 73.3 168.1 L 72.8 165.6 L 72.7 163.1 L 72.7 127.7 L 84.7 129.7 L 87.7 131.7 L 84.7 133.5 L 84.7 164.3 L 84.9 165.2 L 85.1 165.8 L 85.3 166.1 L 85.4 166.3 L 85.6 166.5 L 85.9 166.7 L 86.5 166.8 L 87.4 167.0 L 88.7 167.1 L 146.0 167.1 L 152.0 142.1 L 154.0 142.1 L 152.0 167.1 L 155.6 169.5 L 158.0 173.1 L 155.6 176.7 L 152.0 179.1 L 88.7 179.1 Z M 32.7 171.2 L 32.0 166.7 L 34.6 162.9 L 37.1 161.5 L 39.4 159.8 L 41.6 157.6 L 43.6 155.0 L 45.4 151.9 L 47.1 148.3 L 48.5 144.2 L 49.8 139.6 L 50.8 134.5 L 51.6 128.9 L 53.4 128.8 L 54.1 134.6 L 54.6 140.0 L 54.5 145.2 L 54.0 150.1 L 53.0 154.8 L 51.6 159.1 L 49.7 163.1 L 47.3 166.9 L 44.4 170.2 L 41.0 173.1 L 36.4 173.8 Z M 172.5 157.3 L 171.2 154.0 L 169.6 150.7 L 167.6 147.4 L 165.4 144.1 L 162.8 140.9 L 159.9 137.6 L 156.8 134.2 L 153.2 130.9 L 154.2 129.4 L 158.7 131.5 L 163.0 133.8 L 166.9 136.4 L 170.6 139.2 L 173.9 142.3 L 176.9 145.6 L 179.7 149.1 L 182.1 152.7 L 184.1 156.6 L 185.9 160.7 L 185.3 165.2 L 181.8 168.1 L 177.2 167.6 L 174.3 164.0 L 173.6 160.7 Z M 116.4 144.5 L 114.7 141.8 L 113.0 139.2 L 111.0 136.7 L 108.8 134.2 L 106.5 131.8 L 104.0 129.3 L 101.3 126.9 L 98.2 124.7 L 99.0 123.1 L 102.6 124.4 L 106.3 125.6 L 109.7 127.1 L 113.1 128.9 L 116.2 130.9 L 119.2 133.1 L 122.0 135.5 L 124.7 138.2 L 127.2 141.0 L 129.5 144.0 L 130.0 148.5 L 127.2 152.2 L 122.7 152.7 L 119.0 150.0 L 117.8 147.2 Z M 41.2 106.9 L 47.5 106.4 L 53.9 105.8 L 56.0 105.58059701919555 L 56.0 69.0 L 68.0 71.0 L 71.0 73.0 L 68.0 74.8 L 68.0 85.0 L 89.81818180084228 85.0 L 98.0 76.0 L 108.0 85.0 L 108.0 89.0 L 68.0 89.0 L 68.0 104.23142852783204 L 74.4 103.5 L 81.7 102.6 L 89.1 101.7 L 96.8 100.7 L 104.6 99.8 L 112.8 99.1 L 113.1 100.8 L 105.4 103.6 L 97.9 106.0 L 90.4 108.1 L 83.1 110.1 L 76.0 111.8 L 69.0 113.5 L 62.2 115.0 L 55.5 116.4 L 49.0 117.6 L 46.794306945800784 118.02013196945191 L 45.0 121.5 L 42.7 118.8 L 39.2 107.1 Z M 180.0 79.0 L 182.0 79.0 L 180.0 104.0 L 183.6 106.4 L 186.0 110.0 L 183.6 113.6 L 180.0 116.0 L 133.0 116.0 L 130.4 115.8 L 127.9 115.4 L 125.5 114.6 L 123.2 113.3 L 121.2 111.7 L 119.6 109.7 L 118.3 107.4 L 117.5 105.0 L 117.1 102.5 L 117.0 100.0 L 117.0 69.0 L 129.0 71.0 L 132.0 73.0 L 129.0 74.8 L 129.0 89.13018865585327 L 133.8 87.5 L 138.8 85.8 L 143.4 84.3 L 147.7 82.8 L 151.7 81.3 L 155.2 79.9 L 158.4 78.5 L 161.3 77.2 L 162.77450981140137 76.33986930847168 L 162.7 76.2 L 162.82367973327638 76.31118679046631 L 163.7 75.8 L 164.5880693435669 77.89735527038575 L 172.6 85.1 L 172.8 88.3 L 168.93648290634155 86.67007875442505 L 168.4 86.9 L 165.2 87.8 L 161.8 88.6 L 158.1 89.4 L 154.0 90.1 L 149.7 90.8 L 145.0 91.4 L 140.1 91.9 L 134.7 92.4 L 129.1 92.6 L 129.0 92.60333337783814 L 129.0 101.2 L 129.2 102.1 L 129.5 103.0 L 129.9 103.4 L 130.8 103.7 L 131.7 103.9 L 133.0 104.0 L 174.0 104.0 Z M 38.0 50.0 L 38.0 65.0 L 74.0 65.0 L 74.0 50.0 Z M 86.0 50.0 L 86.0 65.0 L 118.0 65.0 L 118.0 50.0 Z M 130.0 50.0 L 130.0 65.0 L 160.0 65.0 L 160.0 50.0 Z M 38.0 33.0 L 38.0 46.0 L 74.0 46.0 L 74.0 33.0 Z M 86.0 46.0 L 118.0 46.0 L 118.0 33.0 L 86.0 33.0 Z " />
</g>
</svg>
