<svg xmlns="http://www.w3.org/2000/svg" xmlns:xlink="http://www.w3.org/1999/xlink" version="1.1" baseProfile="full" viewBox="0 0 200 200" width="200" height="200">
<g fill="black">
<path d="M 48.7 15.0 L 51.7 17.0 L 48.7 18.8 L 48.7 182.0 L 36.7 188.0 L 36.7 13.0 Z M 160.5 118.5 L 162.1 121.8 L 157.90209789276122 121.87237758636475 L 156.6 123.5 L 154.5 126.0 L 152.3 128.5 L 149.9 131.0 L 147.4 133.5 L 144.8 136.0 L 142.1 138.5 L 139.1 140.9 L 138.9962963104248 141.0 L 158.8 141.0 L 168.8 131.0 L 180.8 141.0 L 180.8 145.0 L 133.0 145.0 L 133.0 182.0 L 121.0 188.0 L 121.0 145.0 L 76.1 145.0 L 76.1 141.0 L 135.775 141.0 L 136.9 139.2 L 138.7 135.8 L 140.4 132.6 L 142.0 129.5 L 143.6 126.5 L 145.1 123.6 L 146.5 120.7 L 147.8 117.9 L 149.0 115.2 L 149.6998522758484 113.54580373764038 L 149.6 113.5 L 150.6 111.6 Z M 105.1 133.0 L 104.5 131.3 L 103.7 129.4 L 102.8 127.5 L 101.6 125.4 L 100.4 123.1 L 98.9 120.8 L 97.4 118.3 L 95.3 116.0 L 96.5 114.7 L 98.9 116.6 L 101.6 118.0 L 104.0 119.6 L 106.3 121.2 L 108.4 122.7 L 110.3 124.3 L 112.1 125.9 L 113.7 127.6 L 115.2 129.3 L 116.6 131.0 L 116.7 135.6 L 113.6 139.0 L 109.1 139.1 L 105.7 136.0 L 105.5 134.6 Z M 93.1 69.5 L 162.8 69.5 L 168.8 64.5 L 179.8 73.5 L 174.8 77.5 L 174.8 112.3 L 162.8 118.3 L 162.8 106.3 L 93.1 106.3 L 81.1 112.3 L 81.1 63.5 Z M 93.1 89.4 L 93.1 102.3 L 162.8 102.3 L 162.8 89.4 Z M 14.9 100.4 L 12.4 96.6 L 13.2 92.1 L 14.6 90.5 L 16.0 88.4 L 17.5 85.8 L 18.9 82.8 L 20.3 79.4 L 21.7 75.5 L 23.0 71.2 L 24.4 66.5 L 25.9 61.4 L 27.2 55.9 L 28.9 56.0 L 29.0 61.7 L 29.1 67.1 L 29.0 72.2 L 28.6 76.9 L 28.1 81.3 L 27.5 85.4 L 26.7 89.1 L 25.7 92.6 L 24.6 95.8 L 23.2 98.8 L 19.4 101.3 Z M 62.1 77.2 L 61.4 74.5 L 60.6 71.7 L 59.6 68.8 L 58.4 65.8 L 57.1 62.8 L 55.6 59.7 L 54.1 56.4 L 52.1 53.3 L 53.4 52.1 L 56.2 54.7 L 59.1 57.1 L 61.7 59.7 L 64.1 62.3 L 66.3 65.0 L 68.3 67.8 L 70.1 70.6 L 71.8 73.6 L 73.3 76.5 L 74.5 79.6 L 73.8 84.1 L 70.2 86.9 L 65.7 86.2 L 62.9 82.5 L 62.6 79.9 Z M 93.1 73.5 L 93.1 85.4 L 162.8 85.4 L 162.8 73.5 Z M 104.7 38.1 L 151.2 38.1 L 157.2 33.1 L 168.2 42.1 L 163.2 46.1 L 163.2 58.6 L 151.2 64.6 L 151.2 58.6 L 104.7 58.6 L 92.7 64.6 L 92.7 32.1 Z M 104.7 42.1 L 104.7 54.6 L 151.2 54.6 L 151.2 42.1 Z M 69.2 26.3 L 122.0 26.3 L 122.0 12.5 L 134.0 14.5 L 137.0 16.5 L 134.0 18.3 L 134.0 26.3 L 168.51818180084229 26.3 L 176.7 17.3 L 186.7 26.3 L 186.7 30.3 L 69.2 30.3 Z " />
</g>
</svg>
