<svg xmlns="http://www.w3.org/2000/svg" xmlns:xlink="http://www.w3.org/1999/xlink" version="1.1" baseProfile="full" viewBox="0 0 200 200" width="200" height="200">
<g fill="black">
<path d="M 78.7 183.1 L 76.2 182.7 L 73.8 181.8 L 71.5 180.6 L 69.5 179.0 L 67.9 177.0 L 66.7 174.7 L 65.8 172.3 L 65.4 169.8 L 65.3 167.2 L 65.3 132.3 L 77.3 134.3 L 80.3 136.3 L 77.3 138.1 L 77.3 168.5 L 77.5 169.4 L 77.7 170.0 L 77.9 170.3 L 78.0 170.5 L 78.2 170.6 L 78.5 170.8 L 79.1 171.0 L 80.0 171.2 L 142.1 171.2 L 148.1 146.2 L 150.1 146.2 L 148.1 171.2 L 151.7 173.6 L 154.1 177.2 L 151.7 180.8 L 148.1 183.2 L 81.3 183.2 Z M 20.5 171.3 L 20.4 166.7 L 23.5 163.3 L 26.5 162.1 L 29.2 160.7 L 31.6 159.0 L 33.7 157.0 L 35.6 154.7 L 37.2 151.9 L 38.6 148.7 L 39.6 145.1 L 40.5 141.0 L 40.7 136.4 L 42.5 136.2 L 43.4 140.9 L 44.1 145.4 L 44.2 149.8 L 43.7 154.0 L 42.6 158.1 L 41.0 161.9 L 38.7 165.5 L 35.8 168.8 L 32.4 171.7 L 28.5 174.2 L 24.0 174.3 Z M 171.3 160.3 L 169.9 157.7 L 168.1 155.0 L 166.0 152.2 L 163.4 149.4 L 160.5 146.6 L 157.3 143.7 L 153.6 140.7 L 149.5 137.9 L 150.3 136.3 L 155.1 138.0 L 159.7 139.8 L 163.9 141.8 L 167.8 144.0 L 171.4 146.3 L 174.6 148.9 L 177.5 151.7 L 180.1 154.6 L 182.4 157.8 L 184.3 161.2 L 184.1 165.7 L 180.8 168.9 L 176.3 168.7 L 173.1 165.4 L 172.4 162.9 Z M 111.2 141.2 L 109.1 139.1 L 106.7 136.9 L 104.1 134.8 L 101.3 132.7 L 98.1 130.7 L 94.8 128.6 L 91.2 126.5 L 87.3 124.7 L 87.8 122.9 L 92.2 123.7 L 96.4 124.4 L 100.5 125.4 L 104.3 126.6 L 108.0 128.0 L 111.5 129.5 L 114.8 131.3 L 117.9 133.2 L 120.9 135.3 L 123.6 137.6 L 125.1 141.9 L 123.2 146.0 L 118.9 147.5 L 114.7 145.6 L 113.1 143.4 Z M 154.6 103.9 L 146.4 99.9 L 138.7 95.8 L 131.4 91.4 L 124.6 86.8 L 118.3 82.0 L 112.5 76.8 L 107.3 71.4 L 104.0 67.05 L 104.0 112.0 L 92.0 118.0 L 92.0 73.96499996185302 L 86.3 79.0 L 79.7 84.1 L 72.5 88.9 L 64.6 93.4 L 56.1 97.6 L 47.0 101.6 L 37.3 105.2 L 26.9 108.4 L 15.9 111.3 L 15.3 109.6 L 25.6 104.9 L 35.3 100.2 L 44.3 95.6 L 52.6 90.9 L 60.3 86.1 L 67.2 81.2 L 73.5 76.2 L 79.2 71.0 L 83.72307691574096 66.2 L 22.5 66.2 L 22.5 62.2 L 92.0 62.2 L 92.0 40.0 L 52.48947372436523 40.0 L 50.7 42.0 L 47.0 45.8 L 43.0 49.5 L 38.7 53.1 L 34.0 56.5 L 29.0 59.8 L 27.8 58.4 L 31.4 53.8 L 34.9 49.3 L 38.2 45.0 L 41.3 40.8 L 44.1 36.8 L 46.6 32.8 L 48.8 28.9 L 50.8 25.1 L 52.4 21.3 L 53.44399652481079 18.61543741226196 L 53.4 18.6 L 53.672727298736575 18.027272701263428 L 53.8 17.7 L 53.823571395874026 17.710499954223632 L 54.4 16.5 L 64.8 22.6 L 66.7 25.6 L 62.84030933380127 26.07399711608887 L 62.6 26.5 L 60.0 30.5 L 57.2 34.4 L 55.89473686218262 36.0 L 92.0 36.0 L 92.0 17.1 L 104.0 19.1 L 107.0 21.1 L 104.0 22.9 L 104.0 36.0 L 140.6 36.0 L 150.6 26.0 L 162.6 36.0 L 162.6 40.0 L 104.0 40.0 L 104.0 62.2 L 154.4 62.2 L 164.4 52.2 L 176.4 62.2 L 176.4 66.2 L 107.00249996185303 66.2 L 110.1 68.3 L 116.1 72.2 L 122.4 76.0 L 129.0 79.7 L 135.9 83.3 L 143.2 86.7 L 150.9 89.9 L 159.0 92.9 L 167.5 95.8 L 176.4 98.4 L 184.0 100.9 L 172.4 111.0 L 163.3 107.5 Z " />
</g>
</svg>
