<svg xmlns="http://www.w3.org/2000/svg" xmlns:xlink="http://www.w3.org/1999/xlink" version="1.1" baseProfile="full" viewBox="0 0 200 200" width="200" height="200">
<g fill="black">
<path d="M 49.7 16.0 L 52.7 18.0 L 49.7 19.8 L 49.7 183.0 L 37.7 189.0 L 37.7 14.0 Z M 169.9 178.9 L 162.7 172.1 L 155.6 162.3 L 148.9 148.9 L 147.21926975250244 144.07823286056518 L 147.1 144.3 L 140.1 154.8 L 132.5 164.1 L 124.4 172.1 L 115.6 178.7 L 106.4 183.7 L 105.5 182.2 L 113.3 175.7 L 120.6 168.3 L 127.5 159.9 L 133.8 150.6 L 139.7 140.1 L 143.21975708007812 132.60422105789183 L 142.8 131.4 L 137.7 109.4 L 133.8 82.1 L 131.61090908050537 52.0 L 73.0 52.0 L 73.0 48.0 L 131.38596935272216 48.0 L 130.9127429008484 10.89904432296753 L 130.9 10.9 L 130.90889682769776 10.597508907318115 L 130.9 9.9 L 130.92940454483033 9.900244998931885 L 131.0 7.5 L 142.9 10.0 L 145.9 12.1 L 142.94937000274658 13.811365413665772 L 143.39222793579103 48.0 L 166.0 48.0 L 176.0 38.0 L 188.0 48.0 L 188.0 52.0 L 143.64285717010497 52.0 L 145.7 80.8 L 149.5 107.2 L 150.8820746421814 113.09497127532958 L 154.5 102.0 L 158.4 86.9 L 161.9 70.7 L 161.91366024017333 70.70291881561279 L 162.3 68.9 L 173.6 73.2 L 176.1 75.7 L 172.66745080947877 76.88578968048095 L 169.4 89.8 L 164.7 105.2 L 159.4 119.4 L 154.85623693466187 129.41168127059936 L 160.0 144.2 L 165.9 156.1 L 171.8 164.3 L 177.1 169.4 L 178.8307692527771 170.4 L 184.0 148.0 L 186.0 148.0 L 184.09389667510987 172.7793427467346 L 184.8 173.0 L 188.7 175.4 L 189.9 179.8 L 187.5 183.7 L 183.1 184.9 L 176.8 183.0 Z M 109.0 58.9 L 112.0 60.9 L 109.02518367767334 62.08992652893066 L 109.19815788269042 84.0 L 114.77777776718139 84.0 L 121.0 77.0 L 129.0 84.0 L 129.0 88.0 L 109.22973680496216 88.0 L 109.38763160705567 108.0 L 111.81818180084228 108.0 L 120.0 99.0 L 130.0 108.0 L 130.0 112.0 L 109.41921052932739 112.0 L 109.59289474487305 134.0 L 111.81818180084228 134.0 L 120.0 125.0 L 130.0 134.0 L 130.0 138.0 L 109.62447366714477 138.0 L 109.9 172.9 L 98.0 179.0 L 97.63032789230347 138.0 L 80.0 138.0 L 80.0 134.0 L 97.59426231384278 134.0 L 97.39590167999268 112.0 L 81.0 112.0 L 81.0 108.0 L 97.35983610153198 108.0 L 97.17950820922852 88.0 L 80.0 88.0 L 80.0 84.0 L 97.14344263076782 84.0 L 96.9 57.0 Z M 14.5 101.4 L 12.1 97.5 L 13.0 93.0 L 14.4 91.4 L 15.9 89.3 L 17.4 86.8 L 18.9 83.8 L 20.3 80.3 L 21.8 76.4 L 23.2 72.1 L 24.6 67.4 L 26.1 62.4 L 27.4 56.9 L 29.2 57.0 L 29.3 62.8 L 29.3 68.2 L 29.1 73.2 L 28.7 78.0 L 28.1 82.4 L 27.4 86.5 L 26.6 90.2 L 25.5 93.7 L 24.3 97.0 L 22.8 100.0 L 18.9 102.4 Z M 64.5 78.3 L 63.8 75.6 L 62.9 72.8 L 61.8 69.9 L 60.5 66.9 L 59.1 63.9 L 57.5 60.7 L 55.8 57.4 L 53.7 54.3 L 55.0 53.1 L 57.9 55.6 L 60.9 58.0 L 63.6 60.6 L 66.1 63.2 L 68.4 65.9 L 70.6 68.7 L 72.5 71.6 L 74.2 74.5 L 75.7 77.4 L 77.0 80.5 L 76.4 85.0 L 72.8 87.8 L 68.3 87.2 L 65.5 83.6 L 65.1 81.0 Z M 159.4 32.3 L 158.8 30.0 L 158.0 27.8 L 157.0 25.7 L 155.9 23.5 L 154.6 21.4 L 153.1 19.2 L 151.4 17.0 L 149.3 15.2 L 150.3 13.7 L 152.9 15.0 L 155.6 16.2 L 158.2 17.6 L 160.6 19.2 L 162.9 21.1 L 165.0 23.1 L 166.9 25.4 L 168.7 27.8 L 170.4 30.5 L 171.8 33.3 L 171.3 37.8 L 167.8 40.8 L 163.3 40.3 L 160.3 36.9 L 160.0 34.5 Z " />
</g>
</svg>
