<svg xmlns="http://www.w3.org/2000/svg" xmlns:xlink="http://www.w3.org/1999/xlink" version="1.1" baseProfile="full" viewBox="0 0 200 200" width="200" height="200">
<g fill="black">
<path d="M 77.0 182.7 L 74.5 182.3 L 72.1 181.4 L 69.9 180.2 L 67.8 178.6 L 66.2 176.6 L 65.0 174.3 L 64.2 171.9 L 63.7 169.4 L 63.6 166.8 L 63.6 133.6 L 75.6 135.6 L 78.6 137.6 L 75.6 139.4 L 75.6 166.8 L 75.7 168.1 L 75.8 169.0 L 76.0 169.6 L 76.2 169.9 L 76.3 170.1 L 76.9 170.4 L 77.4 170.6 L 78.4 170.8 L 137.2 170.8 L 143.2 145.8 L 145.2 145.8 L 143.2 170.8 L 146.8 173.2 L 149.2 176.8 L 146.8 180.4 L 143.2 182.8 L 79.6 182.8 Z M 20.9 171.2 L 20.7 166.6 L 23.8 163.2 L 26.6 162.1 L 29.2 160.7 L 31.5 159.2 L 33.5 157.3 L 35.3 155.1 L 36.8 152.5 L 38.2 149.4 L 39.2 145.9 L 40.1 142.0 L 40.3 137.6 L 42.1 137.4 L 42.9 141.9 L 43.6 146.2 L 43.7 150.5 L 43.3 154.5 L 42.3 158.4 L 40.7 162.2 L 38.6 165.6 L 35.8 168.8 L 32.6 171.6 L 28.8 174.1 L 24.3 174.2 Z M 165.3 160.6 L 164.0 158.1 L 162.3 155.5 L 160.3 152.9 L 157.9 150.2 L 155.1 147.4 L 152.0 144.6 L 148.5 141.7 L 144.6 139.0 L 145.4 137.4 L 150.0 139.1 L 154.4 140.8 L 158.4 142.7 L 162.2 144.8 L 165.6 147.0 L 168.7 149.5 L 171.6 152.1 L 174.1 154.9 L 176.3 158.0 L 178.1 161.2 L 177.9 165.8 L 174.6 168.9 L 170.0 168.7 L 166.9 165.4 L 166.2 163.1 Z M 107.7 142.3 L 105.7 140.2 L 103.5 138.1 L 101.0 136.1 L 98.3 134.1 L 95.3 132.1 L 92.1 130.1 L 88.7 128.1 L 85.0 126.3 L 85.5 124.6 L 89.7 125.4 L 93.7 126.0 L 97.6 126.9 L 101.3 128.0 L 104.8 129.3 L 108.2 130.8 L 111.4 132.4 L 114.4 134.3 L 117.2 136.3 L 119.9 138.5 L 121.4 142.8 L 119.4 146.9 L 115.1 148.4 L 111.0 146.5 L 109.4 144.4 Z M 179.0 88.3 L 181.0 88.3 L 179.0 113.3 L 182.6 115.7 L 185.0 119.3 L 182.6 122.9 L 179.0 125.3 L 128.0 125.3 L 125.4 125.2 L 122.9 124.7 L 120.5 123.9 L 118.2 122.7 L 116.2 121.0 L 114.6 119.0 L 113.3 116.8 L 112.5 114.4 L 112.1 111.9 L 112.0 109.3 L 112.0 79.7 L 94.61999998092651 79.7 L 93.5 86.5 L 90.5 94.3 L 86.1 101.3 L 80.3 107.3 L 73.4 112.5 L 65.2 116.9 L 55.9 120.4 L 45.5 123.1 L 33.9 125.0 L 21.1 126.0 L 20.8 124.3 L 33.2 121.3 L 44.1 118.0 L 53.6 114.3 L 61.8 110.1 L 68.5 105.6 L 73.9 100.7 L 77.9 95.4 L 80.7 89.9 L 82.4 83.9 L 82.73870964050293 79.7 L 61.0 79.7 L 61.0 86.7 L 49.0 92.7 L 49.0 42.4 L 61.0 48.4 L 96.0 48.4 L 96.0 34.2 L 19.0 34.2 L 19.0 30.2 L 96.0 30.2 L 96.0 11.7 L 108.0 13.7 L 111.0 15.7 L 108.0 17.5 L 108.0 30.2 L 162.0 30.2 L 172.0 20.2 L 184.0 30.2 L 184.0 34.2 L 108.0 34.2 L 108.0 48.4 L 144.0 48.4 L 150.0 43.4 L 161.0 52.4 L 156.0 56.4 L 156.0 83.7 L 144.0 89.7 L 144.0 79.7 L 124.0 79.7 L 124.0 110.5 L 124.2 111.4 L 124.4 112.0 L 124.5 112.4 L 124.7 112.6 L 124.9 112.7 L 125.2 112.9 L 125.8 113.1 L 126.7 113.2 L 128.0 113.3 L 173.0 113.3 Z M 61.0 75.7 L 144.0 75.7 L 144.0 52.4 L 61.0 52.4 Z " />
</g>
</svg>
