<svg xmlns="http://www.w3.org/2000/svg" xmlns:xlink="http://www.w3.org/1999/xlink" version="1.1" baseProfile="full" viewBox="0 0 200 200" width="200" height="200">
<g fill="black">
<path d="M 74.4 180.1 L 71.9 179.7 L 69.5 178.8 L 67.2 177.6 L 65.2 176.0 L 63.6 174.0 L 62.3 171.7 L 61.5 169.3 L 61.1 166.8 L 61.0 164.2 L 61.0 121.0 L 73.0 123.0 L 76.0 125.0 L 73.0 126.8 L 73.0 165.5 L 73.2 166.4 L 73.5 167.3 L 73.7 167.5 L 73.9 167.6 L 74.2 167.8 L 74.8 168.0 L 75.7 168.2 L 141.0 168.2 L 147.0 143.2 L 149.0 143.2 L 147.0 168.2 L 150.6 170.6 L 153.0 174.2 L 150.6 177.8 L 147.0 180.2 L 77.0 180.2 Z M 14.3 167.1 L 13.9 162.5 L 16.8 158.9 L 20.0 157.4 L 22.8 155.5 L 25.4 153.3 L 27.6 150.8 L 29.6 147.8 L 31.4 144.3 L 32.8 140.3 L 33.9 135.9 L 34.8 130.9 L 35.2 125.4 L 36.9 125.2 L 38.1 130.8 L 38.7 136.2 L 38.8 141.3 L 38.3 146.3 L 37.1 150.9 L 35.4 155.4 L 33.0 159.5 L 30.1 163.3 L 26.5 166.6 L 22.4 169.5 L 17.9 169.9 Z M 171.2 153.6 L 169.7 150.4 L 167.8 147.2 L 165.5 143.9 L 162.8 140.6 L 159.7 137.3 L 156.3 134.0 L 152.6 130.6 L 148.4 127.1 L 149.3 125.6 L 154.4 127.7 L 159.2 129.9 L 163.6 132.5 L 167.7 135.3 L 171.4 138.3 L 174.8 141.4 L 177.8 144.8 L 180.5 148.4 L 182.8 152.2 L 184.7 156.2 L 184.3 160.8 L 180.9 163.8 L 176.3 163.4 L 173.3 160.0 L 172.4 156.8 Z M 108.6 130.6 L 106.3 128.0 L 103.8 125.5 L 101.0 123.1 L 98.0 120.7 L 94.8 118.3 L 91.3 116.0 L 87.6 113.6 L 83.6 111.4 L 84.2 109.7 L 88.8 110.7 L 93.2 111.7 L 97.5 113.0 L 101.5 114.6 L 105.4 116.3 L 109.1 118.3 L 112.5 120.5 L 115.8 122.9 L 118.9 125.6 L 121.8 128.4 L 123.0 132.8 L 120.8 136.8 L 116.4 138.0 L 112.4 135.8 L 110.6 133.2 Z M 155.2 111.6 L 145.1 108.4 L 135.9 104.6 L 127.5 100.5 L 120.1 95.9 L 113.6 90.9 L 108.1 85.4 L 103.8 79.5 L 101.39830932617187 74.54167079925537 L 100.1 78.1 L 95.8 84.7 L 90.2 90.5 L 83.3 95.6 L 75.2 100.1 L 65.9 104.0 L 55.3 107.3 L 43.5 110.1 L 30.4 112.2 L 16.1 113.7 L 15.8 111.9 L 29.7 108.5 L 42.2 104.9 L 53.3 101.1 L 63.0 97.0 L 71.2 92.6 L 78.0 88.0 L 83.3 83.2 L 87.1 78.3 L 89.43999996185303 73.8 L 18.0 73.8 L 18.0 69.8 L 90.66078433990478 69.8 L 91.0 68.56428575515747 L 91.0 38.1 L 46.0 38.1 L 46.0 34.1 L 91.0 34.1 L 91.0 12.9 L 103.0 14.9 L 106.0 16.9 L 103.0 18.7 L 103.0 34.1 L 143.0 34.1 L 149.0 29.1 L 160.0 38.1 L 155.0 42.1 L 155.0 69.8 L 162.0 69.8 L 172.0 59.8 L 184.0 69.8 L 184.0 73.8 L 103.86956520080567 73.8 L 107.0 76.8 L 112.2 81.1 L 118.0 85.1 L 124.4 88.8 L 131.6 92.1 L 139.6 95.1 L 148.5 97.8 L 158.1 100.2 L 168.6 102.2 L 180.0 103.9 L 189.8 105.4 L 177.9 116.9 L 166.1 114.5 Z M 143.0 69.8 L 143.0 38.1 L 103.0 38.1 L 103.0 69.5 L 102.8 69.8 Z " />
</g>
</svg>
