<svg xmlns="http://www.w3.org/2000/svg" xmlns:xlink="http://www.w3.org/1999/xlink" version="1.1" baseProfile="full" viewBox="0 0 200 200" width="200" height="200">
<g fill="black">
<path d="M 73.4 183.3 L 70.9 182.8 L 68.5 182.0 L 66.2 180.8 L 64.2 179.1 L 62.6 177.1 L 61.3 174.9 L 60.5 172.4 L 60.1 170.0 L 60.0 167.4 L 60.0 128.5 L 72.0 130.5 L 75.0 132.5 L 72.0 134.3 L 72.0 168.6 L 72.2 169.5 L 72.4 170.1 L 72.5 170.5 L 72.7 170.6 L 72.9 170.8 L 73.2 171.0 L 73.8 171.2 L 74.7 171.3 L 76.0 171.4 L 141.0 171.4 L 147.0 146.4 L 149.0 146.4 L 147.0 171.4 L 150.6 173.8 L 153.0 177.4 L 150.6 181.0 L 147.0 183.4 L 76.0 183.4 Z M 15.4 175.2 L 14.7 170.7 L 17.4 166.9 L 20.2 165.3 L 22.8 163.3 L 25.3 160.9 L 27.5 158.0 L 29.5 154.6 L 31.3 150.7 L 32.8 146.2 L 34.1 141.2 L 35.2 135.6 L 36.096541786193846 129.5234390258789 L 31.9 131.0 L 26.2 132.1 L 25.7 130.5 L 30.6 127.8 L 34.8 124.9 L 38.4 121.8 L 41.4 118.5 L 43.8 114.9 L 45.7 110.9 L 47.1 106.6 L 48.0 101.8 L 48.5 96.7 L 48.5 81.2 L 37.80149250030517 81.2 L 37.6 85.7 L 36.8 92.1 L 35.6 98.0 L 33.8 103.5 L 31.6 108.6 L 28.9 113.2 L 25.7 117.3 L 22.1 120.8 L 18.0 123.7 L 13.4 125.8 L 12.5 124.3 L 15.5 120.8 L 18.1 117.2 L 20.4 113.5 L 22.3 109.5 L 23.8 105.4 L 24.9 100.9 L 25.7 96.1 L 26.2 90.9 L 26.3 85.3 L 26.09152545928955 81.2 L 13.0 81.2 L 13.0 77.2 L 48.5 77.2 L 48.5 60.3 L 33.0 60.3 L 33.0 63.3 L 21.0 69.3 L 21.0 24.7 L 33.0 26.7 L 36.0 28.7 L 33.0 30.5 L 33.0 56.3 L 48.5 56.3 L 48.5 25.8 L 59.5 31.3 L 132.80649995803833 31.3 L 132.9 12.6 L 132.93028011322022 12.600757026672364 L 133.0 10.3 L 144.9 12.9 L 147.9 15.0 L 144.88042554855346 16.717012882232666 L 144.80564098358155 31.3 L 162.0 31.3 L 167.0045454978943 26.295454502105713 L 166.8 26.0 L 165.7 24.6 L 164.5 23.2 L 163.1 21.8 L 161.4 20.3 L 159.6 18.8 L 157.7 17.3 L 155.5 15.7 L 153.2 14.1 L 150.6 12.9 L 151.2 11.2 L 154.0 11.9 L 156.9 12.2 L 159.7 12.6 L 162.3 13.2 L 164.8 13.8 L 167.2 14.6 L 169.5 15.4 L 171.7 16.3 L 173.8 17.4 L 175.8 18.5 L 177.7 22.7 L 176.79459457397462 25.29549551010132 L 184.0 31.3 L 184.0 35.3 L 144.95 35.3 L 145.7 49.8 L 147.5 65.4 L 150.2 78.9 L 152.74027299880981 87.08532419204712 L 154.2 85.0 L 159.3 76.4 L 163.9 67.0 L 167.62747383117676 57.90860052108765 L 167.6 57.9 L 168.5 55.7 L 179.1 61.5 L 181.2 64.5 L 177.38989362716674 65.09122343063355 L 174.1 72.0 L 168.5 81.8 L 162.4 90.7 L 156.97876110076905 97.43547868728638 L 158.2 100.1 L 163.4 107.7 L 169.2 113.4 L 175.8 117.4 L 176.6919960975647 117.7013500213623 L 182.0 94.7 L 184.0 94.7 L 182.0903748512268 119.52512664794922 L 183.2 119.9 L 186.9 122.5 L 187.8 127.0 L 185.2 130.7 L 180.7 131.6 L 170.7 128.3 L 161.8 122.8 L 154.1 115.3 L 148.2174798965454 106.52290658950805 L 140.9 112.7 L 132.7 118.3 L 124.0 123.0 L 114.9 126.7 L 105.2 129.4 L 104.7 127.7 L 113.3 123.2 L 121.4 118.3 L 129.0 112.9 L 136.1 106.9 L 142.6 100.2 L 144.21937713623046 98.25674743652344 L 142.6 94.8 L 138.6 81.9 L 135.6 67.2 L 133.7 50.8 L 132.93351650238037 35.3 L 59.5 35.3 L 59.5 91.0 L 58.9 97.6 L 57.6 103.8 L 55.8 109.5 L 53.3 114.7 L 50.1 119.3 L 46.4 123.2 L 42.1 126.5 L 37.3 129.1 L 36.16315793991089 129.5 L 37.9 129.5 L 38.7 135.7 L 39.2 141.7 L 39.0 147.3 L 38.4 152.6 L 37.2 157.6 L 35.6 162.3 L 33.4 166.6 L 30.7 170.6 L 27.4 174.1 L 23.6 177.2 L 19.1 177.8 Z M 170.2 160.4 L 168.6 156.8 L 166.7 153.2 L 164.5 149.6 L 162.0 146.1 L 159.0 142.5 L 155.8 139.0 L 152.2 135.3 L 148.3 131.7 L 149.3 130.2 L 154.3 132.5 L 159.0 135.0 L 163.3 137.8 L 167.2 141.0 L 170.9 144.3 L 174.2 147.9 L 177.1 151.7 L 179.7 155.7 L 182.0 159.9 L 183.8 164.3 L 183.3 168.9 L 179.8 171.8 L 175.3 171.3 L 172.3 167.8 L 171.4 164.1 Z M 108.1 146.4 L 106.2 143.6 L 104.2 140.7 L 101.9 138.0 L 99.5 135.3 L 96.8 132.7 L 93.9 130.1 L 90.9 127.4 L 87.5 125.0 L 88.2 123.4 L 92.3 124.8 L 96.3 126.1 L 100.1 127.9 L 103.7 129.8 L 107.2 132.0 L 110.4 134.5 L 113.5 137.1 L 116.4 140.0 L 119.1 143.1 L 121.6 146.4 L 122.2 150.9 L 119.5 154.6 L 114.9 155.2 L 111.3 152.5 L 109.8 149.4 Z M 83.2 54.8 L 112.3 54.8 L 118.3 49.8 L 129.3 58.8 L 124.3 62.8 L 124.3 101.4 L 112.3 107.4 L 112.3 99.4 L 83.2 99.4 L 83.2 106.4 L 72.2 111.9 L 72.2 49.3 Z M 83.2 58.8 L 83.2 95.4 L 112.3 95.4 L 112.3 58.8 Z " />
</g>
</svg>
