<svg xmlns="http://www.w3.org/2000/svg" xmlns:xlink="http://www.w3.org/1999/xlink" version="1.1" baseProfile="full" viewBox="0 0 200 200" width="200" height="200">
<g fill="black">
<path d="M 73.4 183.9 L 70.9 183.5 L 68.5 182.7 L 66.2 181.5 L 64.2 179.8 L 62.6 177.8 L 61.3 175.5 L 60.5 173.1 L 60.1 170.6 L 60.0 168.1 L 60.0 139.1 L 72.0 141.1 L 75.0 143.1 L 72.0 144.9 L 72.0 169.3 L 72.2 170.2 L 72.5 171.1 L 72.9 171.5 L 73.2 171.7 L 73.8 171.8 L 74.7 172.0 L 76.0 172.1 L 141.0 172.1 L 147.0 147.1 L 149.0 147.1 L 147.0 172.1 L 150.6 174.5 L 153.0 178.1 L 150.6 181.7 L 147.0 184.1 L 76.0 184.1 Z M 15.2 176.4 L 15.0 171.8 L 18.0 168.4 L 20.9 167.2 L 23.4 165.8 L 25.8 164.0 L 27.9 162.0 L 29.8 159.5 L 31.6 156.6 L 33.1 153.2 L 34.4 149.4 L 35.5 145.1 L 36.1 140.4 L 37.9 140.3 L 38.5 145.2 L 38.9 150.0 L 38.8 154.5 L 38.1 158.8 L 36.9 163.0 L 35.2 166.8 L 33.0 170.5 L 30.3 173.7 L 27.0 176.7 L 23.3 179.2 L 18.7 179.4 Z M 170.4 165.2 L 168.9 162.4 L 167.1 159.6 L 164.9 156.7 L 162.4 153.9 L 159.4 151.0 L 156.1 148.0 L 152.5 145.0 L 148.4 142.1 L 149.2 140.5 L 154.1 142.2 L 158.7 144.0 L 162.9 146.1 L 166.8 148.4 L 170.4 150.9 L 173.7 153.6 L 176.7 156.5 L 179.3 159.6 L 181.6 162.9 L 183.5 166.4 L 183.3 171.0 L 180.0 174.2 L 175.4 174.0 L 172.3 170.7 L 171.5 168.0 Z M 108.4 154.4 L 106.6 152.1 L 104.5 149.8 L 102.3 147.6 L 99.8 145.4 L 97.1 143.2 L 94.2 141.0 L 91.0 138.7 L 87.6 136.8 L 88.2 135.1 L 92.2 136.1 L 96.1 137.0 L 99.8 138.2 L 103.3 139.6 L 106.7 141.2 L 109.9 143.0 L 112.9 145.0 L 115.8 147.1 L 118.5 149.4 L 121.0 152.0 L 122.0 156.4 L 119.7 160.4 L 115.3 161.4 L 111.3 159.1 L 110.0 156.7 Z M 150.5 132.9 L 142.0 130.2 L 134.4 127.3 L 130.2263201713562 125.24430694580079 L 122.9 127.8 L 113.2 130.3 L 102.5 132.3 L 90.7 133.7 L 77.9 134.5 L 77.7 132.7 L 90.1 130.0 L 101.3 127.1 L 111.4 124.0 L 120.3 120.7 L 121.48742771148682 120.14483900070191 L 116.9 116.4 L 113.0 112.1 L 110.3 107.5 L 109.60777730941773 104.94410076141358 L 108.6 105.4 L 104.1 107.0 L 99.4 108.4 L 94.4 109.8 L 93.7 108.1 L 98.0 105.5 L 102.0 102.7 L 105.7 100.1 L 109.0 97.5 L 112.1 94.9 L 114.9 92.3 L 117.3 89.8 L 119.5 87.2 L 121.3 84.7 L 122.2881597518921 83.05306701660156 L 122.2 83.0 L 123.3 81.5 L 132.5 89.2 L 133.8 92.6 L 129.63157892227173 92.2406533241272 L 127.0 94.6 L 124.43999996185303 96.6 L 148.2581395149231 96.6 L 148.3 96.5 L 148.5666666984558 96.6 L 155.8 96.6 L 165.8 86.6 L 177.8 96.6 L 177.8 100.6 L 159.23333330154418 100.6 L 159.5 100.7 L 156.1 106.9 L 151.5 112.3 L 145.9 117.1 L 142.83465089797974 118.97581062316894 L 145.2 119.6 L 153.2 121.4 L 162.2 122.9 L 172.0 124.3 L 181.9 125.7 L 170.0 137.3 L 159.8 135.2 Z M 170.0 46.0 L 170.0 50.0 L 116.00476188659668 50.0 L 117.8 51.3 L 114.3276596069336 53.20638294219971 L 113.2 61.1 L 109.6 72.3 L 107.6432692527771 76.0 L 159.0 76.0 L 169.0 66.0 L 181.0 76.0 L 181.0 80.0 L 105.52788457870483 80.0 L 104.1 82.7 L 96.8 92.1 L 87.7 100.7 L 77.0 108.3 L 64.5 115.0 L 50.5 120.9 L 34.7 125.8 L 17.2 129.8 L 16.7 128.1 L 33.5 122.2 L 48.4 115.9 L 61.5 109.2 L 72.8 102.0 L 82.2 94.2 L 89.7 86.1 L 93.81395349502563 80.0 L 50.57668714523315 80.0 L 47.5 88.5 L 34.2 90.0 L 48.6 50.0 L 59.3 55.9 L 61.4 58.8 L 57.97479610443115 59.56115636825562 L 52.02453985214233 76.0 L 96.17582416534424 76.0 L 99.6 68.4 L 102.1 58.9 L 102.79803924560547 50.0 L 28.0 50.0 L 28.0 46.0 L 148.0 46.0 L 158.0 36.0 Z M 118.28571424484252 100.6 L 116.7 101.5 L 112.8 103.5 L 112.4175892829895 103.67299537658691 L 113.8 105.1 L 117.3 108.0 L 121.3 110.7 L 126.1 113.2 L 131.0221731185913 115.25836324691772 L 134.4 113.2 L 139.6 109.2 L 143.6 105.1 L 146.5 100.8 L 146.58372097015382 100.6 Z M 114.5 13.3 L 117.5 15.3 L 114.5 17.1 L 114.5 39.7 L 102.5 45.7 L 102.5 11.3 Z M 71.6 37.2 L 70.1 35.4 L 68.2 33.4 L 66.0 31.4 L 63.5 29.3 L 60.6 27.2 L 57.4 24.9 L 54.0 22.5 L 50.1 20.4 L 50.7 18.7 L 55.0 20.0 L 59.2 21.0 L 63.1 22.2 L 66.7 23.5 L 70.1 24.8 L 73.2 26.3 L 76.0 27.8 L 78.7 29.5 L 81.0 31.3 L 83.2 33.3 L 84.3 37.7 L 82.0 41.7 L 77.6 42.8 L 73.6 40.5 L 72.8 38.9 Z M 166.8 23.6 L 167.6 27.1 L 163.66367712020875 26.202242183685303 L 160.6 28.5 L 157.4 30.8 L 154.1 32.9 L 150.8 34.8 L 147.3 36.6 L 143.8 38.2 L 140.2 39.7 L 136.5 40.8 L 132.8 42.0 L 132.0 40.4 L 135.1 38.2 L 137.9 35.7 L 143.5 30.9 L 148.7 25.9 L 151.2 23.3 L 153.6 20.7 L 157.56114110946655 16.049964809417723 L 157.5 16.0 L 158.5 14.9 Z " />
</g>
</svg>
