<svg xmlns="http://www.w3.org/2000/svg" xmlns:xlink="http://www.w3.org/1999/xlink" version="1.1" baseProfile="full" viewBox="0 0 200 200" width="200" height="200">
<g fill="black">
<path d="M 58.0 173.9 L 78.0 173.9 L 79.2 173.8 L 80.1 173.6 L 80.7 173.5 L 81.0 173.3 L 81.4 172.9 L 81.7 172.0 L 81.9 171.1 L 82.0 169.9 L 82.0 147.78823528289794 L 78.1 149.7 L 68.6 154.2 L 59.9 158.2 L 52.0 161.7 L 45.0 164.9 L 38.7 167.8 L 33.3 170.2 L 28.7 172.4 L 25.88085193634033 173.66119785308837 L 24.9 177.7 L 22.0 175.6 L 15.9 165.1 L 17.8 164.4 L 20.9 163.5 L 24.9 162.3 L 29.7 160.9 L 35.4 159.1 L 41.9 157.0 L 49.3 154.6 L 57.5 152.0 L 66.7 149.2 L 76.7 146.1 L 82.0 144.59266052246093 L 82.0 114.0 L 22.0 114.0 L 22.0 110.0 L 82.0 110.0 L 88.0 105.0 L 99.0 114.0 L 94.0 118.0 L 94.0 169.9 L 93.8 172.4 L 93.4 174.9 L 92.6 177.3 L 91.3 179.6 L 89.7 181.6 L 87.7 183.3 L 85.4 184.5 L 83.0 185.3 L 80.5 185.7 L 78.0 185.9 L 78.0 179.9 L 58.0 176.9 Z M 146.0 173.9 L 162.0 173.9 L 163.2 173.8 L 164.1 173.6 L 164.7 173.5 L 165.0 173.3 L 165.4 172.9 L 165.7 172.0 L 165.9 171.1 L 166.0 169.9 L 166.0 147.78823528289794 L 162.1 149.7 L 152.6 154.2 L 143.9 158.2 L 136.0 161.7 L 129.0 164.9 L 122.7 167.8 L 117.3 170.2 L 112.7 172.4 L 109.88085193634033 173.66119785308837 L 108.9 177.7 L 106.0 175.6 L 99.9 165.1 L 101.8 164.4 L 104.9 163.5 L 108.9 162.3 L 113.7 160.9 L 119.4 159.1 L 125.9 157.0 L 133.3 154.6 L 141.5 152.0 L 150.7 149.2 L 160.7 146.1 L 166.0 144.59266052246093 L 166.0 114.0 L 107.0 114.0 L 107.0 110.0 L 166.0 110.0 L 172.0 105.0 L 183.0 114.0 L 178.0 118.0 L 178.0 169.9 L 177.8 172.4 L 177.4 174.9 L 176.6 177.3 L 175.3 179.6 L 173.7 181.6 L 171.7 183.3 L 169.4 184.5 L 167.0 185.3 L 164.5 185.7 L 162.0 185.9 L 162.0 179.9 L 146.0 176.9 Z M 45.4 137.8 L 44.6 135.9 L 43.4 133.9 L 41.8 131.7 L 40.0 129.5 L 37.8 127.1 L 35.4 124.6 L 32.6 122.0 L 29.4 119.7 L 30.3 118.1 L 34.0 119.8 L 37.6 121.2 L 41.0 122.7 L 44.1 124.4 L 46.9 126.1 L 49.5 128.0 L 51.9 129.9 L 54.0 132.0 L 55.9 134.3 L 57.4 136.7 L 57.3 141.3 L 54.0 144.5 L 49.5 144.4 L 46.3 141.1 L 46.0 139.6 Z M 129.4 137.8 L 128.6 135.9 L 127.4 133.9 L 125.8 131.7 L 124.0 129.5 L 121.8 127.1 L 119.4 124.6 L 116.6 122.0 L 113.4 119.7 L 114.3 118.1 L 118.0 119.8 L 121.6 121.2 L 125.0 122.7 L 128.1 124.4 L 130.9 126.1 L 133.5 128.0 L 135.9 129.9 L 138.0 132.0 L 139.9 134.3 L 141.4 136.7 L 141.3 141.3 L 138.0 144.5 L 133.5 144.4 L 130.3 141.1 L 130.0 139.6 Z M 40.0 67.7 L 71.5 67.7 L 77.5 62.7 L 88.5 71.7 L 83.5 75.7 L 83.5 96.2 L 71.5 102.2 L 71.5 96.2 L 40.0 96.2 L 28.0 102.2 L 28.0 61.7 Z M 170.9 76.8 L 172.9 76.8 L 170.9 89.8 L 173.6 91.6 L 175.4 94.3 L 173.6 97.0 L 170.9 98.8 L 141.2 98.8 L 138.9 98.6 L 136.6 98.0 L 134.4 97.0 L 132.4 95.5 L 130.7 93.7 L 129.4 91.6 L 128.5 89.3 L 127.9 86.9 L 127.6 84.3 L 127.6 37.5 L 139.6 39.5 L 142.6 41.5 L 139.6 43.3 L 139.6 84.3 L 139.5 85.6 L 139.6 86.5 L 139.6 87.2 L 139.7 87.7 L 139.8 88.1 L 140.1 88.5 L 140.5 88.9 L 141.2 89.3 L 142.2 89.6 L 143.6 89.8 L 166.4 89.8 Z M 40.0 71.7 L 40.0 92.2 L 71.5 92.2 L 71.5 71.7 Z M 102.3 80.5 L 101.4 76.0 L 103.9 72.1 L 105.5 71.4 L 107.1 70.4 L 108.6 69.2 L 110.0 67.6 L 111.4 65.7 L 112.6 63.4 L 113.8 60.8 L 114.8 57.8 L 115.7 54.4 L 116.0 50.7 L 117.8 50.7 L 118.2 54.5 L 118.8 58.1 L 119.0 61.6 L 118.9 65.0 L 118.4 68.3 L 117.6 71.4 L 116.4 74.4 L 114.9 77.2 L 112.9 79.8 L 110.6 82.1 L 106.1 82.9 Z M 176.5 68.0 L 176.2 65.7 L 175.6 63.5 L 174.8 61.2 L 173.8 58.8 L 172.6 56.4 L 171.2 53.9 L 169.5 51.3 L 167.3 49.1 L 168.4 47.7 L 171.2 49.5 L 174.0 51.1 L 176.6 52.9 L 179.0 55.0 L 181.1 57.2 L 183.1 59.5 L 184.8 62.1 L 186.3 64.8 L 187.6 67.6 L 188.5 70.6 L 187.4 75.0 L 183.5 77.4 L 179.0 76.2 L 176.7 72.3 L 176.7 70.1 Z M 84.9 56.5 L 80.6 53.1 L 79.5 52.153488349914554 L 79.5 55.4 L 33.0 55.4 L 33.0 51.4 L 61.31818180084228 51.4 L 69.5 42.4 L 69.87974681854249 42.741772174835205 L 68.3 41.0 L 64.6 36.3 L 61.0 31.3 L 57.7 25.9 L 57.228504467010495 24.940750408172608 L 53.8 29.6 L 49.7 34.7 L 45.3 39.6 L 40.6 44.2 L 35.6 48.7 L 30.3 52.9 L 24.7 56.9 L 18.7 60.5 L 12.5 63.8 L 11.4 62.3 L 16.5 57.5 L 21.3 52.7 L 25.9 48.0 L 30.3 43.3 L 34.4 38.4 L 38.2 33.6 L 41.7 28.6 L 45.0 23.5 L 48.0 18.3 L 50.226551151275636 14.011827373504639 L 50.2 14.0 L 50.51694917678833 13.452542400360107 L 50.7 13.1 L 50.71595134735107 13.108811283111573 L 51.3 12.1 L 61.2 18.9 L 62.9 22.1 L 59.803116703033446 22.204979133605956 L 61.0 23.3 L 65.5 27.4 L 69.9 31.4 L 74.2 35.0 L 78.5 38.3 L 82.7 41.4 L 87.0 44.1 L 91.3 46.5 L 95.5 48.6 L 99.8 50.5 L 105.5 53.2 L 94.1 62.4 L 89.5 59.6 Z M 152.0 32.0 L 150.5 30.3 L 148.8 28.6 L 146.9 27.1 L 144.8 25.5 L 142.5 24.0 L 140.1 22.6 L 137.4 21.1 L 134.5 20.2 L 134.8 18.4 L 138.0 18.7 L 141.2 18.7 L 144.3 19.1 L 147.3 19.6 L 150.2 20.4 L 153.1 21.4 L 155.8 22.5 L 158.5 24.0 L 161.0 25.6 L 163.4 27.4 L 164.9 31.7 L 163.0 35.9 L 158.7 37.4 L 154.5 35.5 L 153.3 33.7 Z " />
</g>
</svg>
