<svg xmlns="http://www.w3.org/2000/svg" xmlns:xlink="http://www.w3.org/1999/xlink" version="1.1" baseProfile="full" viewBox="0 0 200 200" width="200" height="200">
<g fill="black">
<path d="M 73.4 181.2 L 70.9 180.8 L 68.5 180.0 L 66.2 178.7 L 64.2 177.1 L 62.6 175.1 L 61.3 172.8 L 60.5 170.4 L 60.1 167.9 L 60.0 165.4 L 60.0 134.8 L 72.0 136.8 L 75.0 138.8 L 72.0 140.6 L 72.0 166.6 L 72.2 167.5 L 72.5 168.4 L 72.9 168.8 L 73.8 169.1 L 74.7 169.3 L 76.0 169.4 L 141.0 169.4 L 147.0 144.4 L 149.0 144.4 L 147.0 169.4 L 150.6 171.8 L 153.0 175.4 L 150.6 179.0 L 147.0 181.4 L 76.0 181.4 Z M 15.3 173.6 L 15.0 169.0 L 17.9 165.5 L 20.8 164.3 L 23.3 162.8 L 25.7 161.0 L 27.8 158.8 L 29.8 156.1 L 31.5 153.1 L 33.0 149.5 L 34.3 145.5 L 35.5 141.0 L 36.1 136.1 L 37.9 136.0 L 38.5 141.2 L 38.9 146.1 L 38.8 150.8 L 38.1 155.3 L 37.0 159.5 L 35.3 163.5 L 33.1 167.2 L 30.3 170.6 L 27.1 173.7 L 23.3 176.3 L 18.8 176.5 Z M 170.3 161.8 L 168.9 158.9 L 167.0 156.0 L 164.8 153.0 L 162.3 150.1 L 159.4 147.1 L 156.1 144.0 L 152.5 140.9 L 148.4 137.9 L 149.3 136.3 L 154.1 138.1 L 158.7 140.0 L 163.0 142.2 L 166.9 144.6 L 170.5 147.3 L 173.8 150.1 L 176.7 153.1 L 179.4 156.4 L 181.7 159.9 L 183.6 163.5 L 183.3 168.1 L 180.0 171.2 L 175.4 170.9 L 172.3 167.6 L 171.5 164.7 Z M 108.3 150.6 L 106.5 148.2 L 104.5 145.8 L 102.2 143.5 L 99.7 141.2 L 97.0 139.0 L 94.1 136.7 L 91.0 134.4 L 87.6 132.4 L 88.2 130.7 L 92.2 131.8 L 96.1 132.7 L 99.8 134.0 L 103.4 135.5 L 106.8 137.2 L 110.0 139.1 L 113.0 141.1 L 115.9 143.4 L 118.6 145.9 L 121.1 148.5 L 122.1 153.0 L 119.7 156.9 L 115.2 157.8 L 111.3 155.5 L 109.9 153.0 Z M 87.4 38.5 L 85.7 36.7 L 83.6 34.9 L 81.1 33.0 L 78.3 31.1 L 75.1 29.1 L 71.6 27.1 L 67.8 25.0 L 64.86509342193604 23.672304153442383 L 61.3 28.7 L 57.1 34.0 L 52.5 39.1 L 47.6 44.1 L 42.4 48.9 L 42.034782600402835 49.2 L 73.2 49.2 L 83.2 39.2 L 95.2 49.2 L 95.2 53.2 L 68.9 53.2 L 68.9 70.4 L 79.0 70.4 L 89.0 60.4 L 101.0 70.4 L 101.0 74.4 L 68.9 74.4 L 68.9 110.49342107772827 L 75.6 109.7 L 83.3 108.8 L 91.1 108.1 L 98.9 107.5 L 99.2 109.2 L 91.8 111.8 L 84.4 114.1 L 76.8 116.1 L 69.3 118.0 L 61.8 119.8 L 54.2 121.5 L 46.6 123.1 L 39.0 124.6 L 31.5 126.1 L 27.891184329986572 126.76478185653687 L 26.2 130.2 L 23.9 127.5 L 20.3 115.8 L 37.4 114.0 L 45.1 113.2 L 52.7 112.3 L 56.9 111.85789470672607 L 56.9 74.4 L 24.0 74.4 L 24.0 70.4 L 56.9 70.4 L 56.9 53.2 L 41.1 53.2 L 41.1 49.96785717010498 L 36.8 53.5 L 30.9 57.9 L 24.6 62.1 L 17.8 65.9 L 16.8 64.4 L 22.2 59.1 L 27.5 53.8 L 32.4 48.7 L 37.1 43.5 L 41.4 38.4 L 45.4 33.2 L 49.1 28.0 L 52.4 22.7 L 55.4 17.4 L 57.64126396179199 12.917472076416015 L 57.6 12.9 L 57.96666669845581 12.266666698455811 L 58.1 12.0 L 58.11612167358398 12.008517074584962 L 58.7 11.0 L 68.7 17.6 L 70.4 20.8 L 66.57639198303222 20.997772789001466 L 66.1207317352295 21.726829242706298 L 68.7 22.3 L 73.2 23.0 L 77.3 23.9 L 81.1 25.0 L 84.6 26.1 L 87.9 27.3 L 91.0 28.7 L 93.8 30.2 L 96.3 31.8 L 98.7 33.6 L 100.1 38.0 L 98.2 42.1 L 93.9 43.6 L 89.7 41.6 L 88.8 40.1 Z M 156.5 121.9 L 147.7 117.2 L 139.6 111.8 L 137.62704639434816 110.20542106628417 L 137.5 110.3 L 127.6 116.1 L 117.0 121.0 L 105.5 124.9 L 93.3 127.9 L 80.3 129.9 L 79.9 128.1 L 92.3 124.2 L 103.8 119.9 L 114.3 115.0 L 123.9 109.5 L 130.9783329963684 104.53703088760376 L 125.9 99.3 L 120.4 92.1 L 115.7 84.3 L 112.1 75.9 L 109.82471914291382 67.8 L 100.4 67.8 L 100.4 63.8 L 129.2 63.8 L 129.2 12.9 L 141.2 14.9 L 144.2 16.9 L 141.2 18.7 L 141.2 36.5 L 163.5 36.5 L 173.5 26.5 L 185.5 36.5 L 185.5 40.5 L 141.2 40.5 L 141.2 63.8 L 162.5 63.8 L 162.93604650497437 63.43662786483765 L 163.0 63.3 L 163.06449699401855 63.32958583831787 L 168.5 58.8 L 179.5 67.8 L 174.5 70.8 L 171.9629669189453 71.85709714889526 L 168.4 78.4 L 162.0 87.7 L 154.7 96.1 L 146.5 103.6 L 146.15156002044677 103.85939416885375 L 152.9 107.5 L 161.2 111.1 L 170.2 114.1 L 179.8 116.6 L 188.3 118.8 L 176.5 129.4 L 166.2 126.0 Z M 36.7 101.2 L 36.4 99.6 L 35.8 97.7 L 35.0 95.8 L 33.9 93.8 L 32.5 91.6 L 30.8 89.4 L 28.8 87.0 L 26.2 85.0 L 27.2 83.5 L 30.1 85.1 L 33.1 86.3 L 35.9 87.7 L 38.4 89.3 L 40.7 91.1 L 42.8 93.0 L 44.6 95.1 L 46.2 97.4 L 47.5 99.9 L 48.5 102.5 L 47.3 107.0 L 43.4 109.3 L 39.0 108.1 L 36.6 104.2 L 36.7 102.8 Z M 96.0 87.1 L 97.5 90.4 L 92.97796611785888 90.32203388214111 L 90.6 92.7 L 88.7 94.5 L 86.6 96.3 L 84.4 98.1 L 82.2 99.8 L 79.8 101.5 L 77.3 103.1 L 75.0 105.0 L 73.7 103.7 L 75.5 101.4 L 76.9 98.8 L 78.3 96.3 L 79.6 93.9 L 82.0 89.3 L 83.1 87.1 L 84.1 84.9 L 85.0 82.8 L 85.44930229187011 81.67674417495728 L 85.3 81.6 L 86.3 79.9 Z M 115.9 74.1 L 120.7 81.2 L 126.0 87.6 L 131.9 93.4 L 138.14705457687378 98.57334213256836 L 140.3 96.7 L 147.3 89.3 L 153.3 81.3 L 158.6 72.7 L 160.8936170578003 67.8 L 112.13636360168456 67.8 Z " />
</g>
</svg>
