<svg xmlns="http://www.w3.org/2000/svg" xmlns:xlink="http://www.w3.org/1999/xlink" version="1.1" baseProfile="full" viewBox="0 0 200 200" width="200" height="200">
<g fill="black">
<path d="M 55.1 136.8 L 55.1 150.5 L 98.2 150.5 L 98.2 136.8 Z M 110.2 136.8 L 110.2 150.5 L 155.4 150.5 L 155.4 136.8 Z M 55.1 119.1 L 55.1 132.8 L 98.2 132.8 L 98.2 119.1 Z M 110.2 119.1 L 110.2 132.8 L 155.4 132.8 L 155.4 119.1 Z M 68.34736843109131 101.3 L 68.0 101.6 L 63.2 105.3 L 58.0 108.9 L 52.3 112.3 L 50.9875 113.04375 L 55.1 115.1 L 105.28181819915771 115.1 L 106.6 114.1 L 109.2 111.6 L 111.7 109.3 L 114.1 107.0 L 116.3 104.8 L 118.5 102.7 L 119.9 101.3 Z M 114.64090909957886 85.19545450210572 L 114.15153369903564 73.8 L 99.28181819915771 73.8 L 97.81759262084961 75.4106481552124 L 101.6 77.7 L 101.8 78.5 L 102.0 79.4 L 102.4 80.4 L 102.9 81.5 L 103.6 82.6 L 104.5 83.8 L 105.5 85.0 L 108.0 87.5 L 109.7 88.3 L 109.1 90.0 L 107.3 89.4 L 105.3 89.3 L 103.4 89.2 L 101.6 88.9 L 99.9 88.5 L 98.1 88.0 L 96.6 87.5 L 95.0 86.7 L 93.5 85.9 L 92.1 84.9 L 91.4835376739502 82.37810859680175 L 91.1 82.8 L 81.1 73.8 L 81.1 69.8 L 113.65789470672607 69.8 L 112.0 59.3 L 108.8 48.5 L 106.54782609939575 43.52151031494141 L 104.1 47.0 L 100.9 52.7 L 98.1 58.9 L 98.07651243209838 58.8893238067627 L 97.5 60.1 L 87.1 53.9 L 85.1 50.9 L 89.09224395751953 50.42634391784668 L 91.0 47.1 L 95.4 40.8 L 100.3 35.0 L 101.13536977767944 34.21103963851929 L 100.8 33.7 L 96.6 29.0 L 92.5 25.9 L 89.9445330619812 24.551281356811522 L 84.6 47.8 L 82.6 47.8 L 84.52567691802979 22.669916820526122 L 80.4 21.0 L 78.6 16.7 L 80.4 12.5 L 84.6 10.7 L 88.8 11.4 L 93.6 13.0 L 99.0 15.7 L 104.7 20.2 L 110.3 26.3 L 110.33977336883545 26.36118984222412 L 111.6 25.4 L 118.0 21.4 L 124.9 18.2 L 132.2 15.5 L 140.0 13.5 L 148.1 12.5 L 148.5 14.2 L 141.1 17.2 L 134.2 20.5 L 127.9 24.0 L 122.1 27.9 L 116.8 32.0 L 115.10606060028076 33.69393939971924 L 115.5 34.3 L 120.1 44.3 L 123.7 56.7 L 125.74965982437134 69.8 L 184.0 69.8 L 184.0 73.8 L 126.10971431732177 73.8 L 126.75445919036865 87.9037950515747 L 126.8 87.9 L 126.8 91.3 L 114.8 88.9 L 111.8 86.9 Z M 76.4 93.8 L 77.4 97.2 L 73.59104480743409 96.60895519256592 L 72.9 97.3 L 123.56000003814697 97.3 L 124.1 96.7 L 125.7 94.8 L 126.08021392822266 95.23315505981445 L 129.6 92.3 L 140.6 101.3 L 135.6 104.3 L 126.08000001907348 108.26666669845581 L 123.5 109.7 L 120.7 111.1 L 117.7 112.5 L 114.6 113.9 L 111.64615383148194 115.1 L 155.4 115.1 L 161.4 110.1 L 172.4 119.1 L 167.4 123.1 L 167.4 169.6 L 167.3 172.1 L 166.9 174.6 L 166.0 177.0 L 164.8 179.3 L 163.2 181.3 L 161.2 183.0 L 158.9 184.2 L 156.5 185.0 L 154.0 185.4 L 151.4 185.6 L 151.4 179.6 L 131.4 176.6 L 131.4 173.6 L 151.4 173.6 L 152.7 173.5 L 153.6 173.4 L 154.2 173.2 L 154.5 173.0 L 154.8 172.7 L 155.0 172.3 L 155.2 171.7 L 155.4 170.8 L 155.4 154.5 L 54.49583330154419 154.5 L 53.9 157.1 L 52.0 161.5 L 49.6 165.6 L 46.6 169.4 L 43.0 172.8 L 38.9 175.8 L 34.3 178.6 L 29.3 180.9 L 23.7 182.9 L 17.6 184.6 L 16.9 183.0 L 22.2 179.8 L 26.8 176.5 L 30.8 173.3 L 34.3 170.2 L 37.1 167.0 L 39.4 163.8 L 41.0 160.6 L 42.2 157.5 L 42.9 154.3 L 43.1 151.1 L 43.1 117.22615385055542 L 39.8 118.8 L 32.9 121.9 L 25.5 124.7 L 17.6 127.2 L 16.9 125.5 L 23.9 121.2 L 30.4 117.1 L 36.6 113.1 L 42.3 109.2 L 47.6 105.3 L 52.4 101.4 L 56.8 97.5 L 60.7 93.7 L 64.2 89.9 L 67.1 86.1 L 67.10939865112304 86.10778169631958 L 67.31127452850342 85.84534311294556 L 66.4 85.6 L 59.2 82.2 L 52.9 77.5 L 48.003254413604736 72.24053258895874 L 44.7 74.6 L 38.8 78.1 L 32.6 81.1 L 26.2 83.5 L 19.6 85.3 L 12.7 86.4 L 12.2 84.7 L 18.3 81.7 L 24.1 78.6 L 29.6 75.3 L 34.7 71.7 L 39.6 67.8 L 42.966420555114745 64.72631168365479 L 39.4 56.9 L 36.7 48.0 L 35.310018920898436 40.83062381744385 L 11.8 42.3 L 11.5 38.3 L 34.66273717880249 36.8523289680481 L 33.7 27.4 L 33.33380279541016 16.59718313217163 L 33.3 16.6 L 33.3 13.2 L 45.3 15.6 L 48.3 17.6 L 45.4352313041687 19.318861198425292 L 45.7 26.6 L 46.66958179473877 36.10190114974976 L 55.178333377838136 35.570104122161865 L 57.89106426239014 32.49406099319458 L 57.8 32.5 L 54.3 29.5 L 54.4 28.7 L 54.4 27.7 L 54.2 26.7 L 53.9 25.5 L 53.5 24.3 L 52.9 23.1 L 52.2 21.8 L 51.5 20.4 L 50.6 18.9 L 49.2 18.0 L 50.1 16.4 L 51.6 17.3 L 53.4 17.6 L 55.1 18.1 L 58.3 19.3 L 59.8 20.1 L 61.2 20.9 L 62.6 21.9 L 63.9 23.0 L 65.1 24.2 L 65.15687208175659 25.479620838165282 L 77.1 34.2 L 77.4 38.2 L 47.41788501739502 40.07388219833374 L 48.4 45.1 L 50.7 52.7 L 51.779578018188474 55.08251695632934 L 52.5 54.2 L 56.3 48.9 L 59.8 43.3 L 59.821335029602054 43.31373043060303 L 60.3 42.5 L 69.9 49.8 L 71.3 53.1 L 67.4834282875061 52.968394088745114 L 65.4 55.7 L 60.7 61.2 L 57.174167251586915 64.58756475448608 L 60.9 68.6 L 65.4 71.9 L 69.93795919418335 74.03551015853881 L 75.3 50.8 L 77.3 50.8 L 75.38857145309449 75.64857139587403 L 76.3 75.9 L 80.2 78.5 L 81.2 82.9 L 78.6 86.7 L 74.2 87.7 L 67.95414180755616 86.01842279434204 Z M 137.2 66.1 L 126.2 57.1 L 131.2 53.1 L 131.2 39.0 L 143.2 33.0 L 143.2 39.0 L 161.6 39.0 L 173.6 33.0 L 173.6 67.1 L 161.6 61.1 L 143.2 61.1 Z M 143.2 43.0 L 143.2 57.1 L 161.6 57.1 L 161.6 43.0 Z M 171.3 29.0 L 166.0 29.5 L 160.6 29.9 L 155.1 30.4 L 149.4 30.9 L 143.5 31.4 L 137.6 31.8 L 131.4 32.0 L 125.1 32.3 L 124.8 30.5 L 130.7 28.4 L 136.6 26.5 L 142.4 24.9 L 148.1 23.4 L 153.7 22.0 L 159.2 20.7 L 164.5 19.5 L 169.8 18.4 L 174.9 17.2 L 175.76348123550414 17.027303791046144 L 177.5 13.5 L 179.9 16.2 L 183.5 27.9 L 181.5 28.2 L 176.5 28.5 Z " />
</g>
</svg>
