<svg xmlns="http://www.w3.org/2000/svg" xmlns:xlink="http://www.w3.org/1999/xlink" version="1.1" baseProfile="full" viewBox="0 0 200 200" width="200" height="200">
<g fill="black">
<path d="M 94.7 20.6 L 96.5 23.7 L 92.50128870010376 23.97577323913574 L 91.2 26.0 L 89.3 28.8 L 85.5 34.6 L 83.5 37.6 L 79.3 43.8 L 76.9 47.0 L 76.26363639831543 48.0 L 95.2 48.0 L 105.2 38.0 L 117.2 48.0 L 117.2 52.0 L 70.15238094329834 52.0 L 70.1 52.1 L 66.9 57.9 L 65.2 60.8 L 61.6 66.4 L 59.7 69.1 L 57.7 71.7 L 55.6 74.3 L 53.3 76.8 L 53.14615383148193 77.0 L 90.2 77.0 L 96.2 72.0 L 107.2 81.0 L 102.2 85.0 L 102.2 178.0 L 90.2 184.0 L 90.2 172.0 L 40.0 172.0 L 40.0 184.0 L 28.0 190.0 L 28.0 71.0 L 40.0 77.0 L 50.3 77.0 L 50.9 75.5 L 51.8 72.3 L 52.8 69.2 L 54.6 63.0 L 55.5 60.0 L 56.4 56.9 L 57.3 53.9 L 57.806666660308835 52.0 L 13.7 52.0 L 13.7 48.0 L 73.66315793991089 48.0 L 74.3 45.8 L 75.2 42.0 L 76.2 38.3 L 77.3 34.7 L 78.4 31.2 L 79.5 27.8 L 80.7 24.5 L 81.8 21.3 L 83.67030658721924 16.029136085510252 L 83.6 16.0 L 83.84752473831176 15.529702949523926 L 84.0 15.1 L 84.057994556427 15.129810333251953 L 84.6 14.1 Z M 147.08096590042115 18.751420497894287 L 147.9 56.7 L 148.9853542327881 70.85134897232055 L 168.89960870742797 69.01714134216309 L 177.9 58.1 L 190.8 67.0 L 191.1 70.9 L 149.2844754219055 74.75142993927003 L 150.5 90.6 L 154.4 117.4 L 156.6494499206543 127.21143035888672 L 159.0 121.1 L 163.1 108.2 L 166.62533807754517 95.30468435287476 L 166.6 95.3 L 167.3 92.7 L 178.5 97.5 L 180.9 100.2 L 177.3264849662781 101.20309190750122 L 174.0 111.7 L 169.0 124.9 L 163.6 136.9 L 160.6624009132385 142.3768795967102 L 164.3 152.8 L 169.6 163.0 L 174.3 169.3 L 176.83532342910766 171.3802653312683 L 182.0 149.0 L 184.0 149.0 L 182.07446804046631 174.0319149017334 L 186.2 175.8 L 188.0 180.0 L 186.2 184.2 L 182.0 186.0 L 177.4 185.2 L 171.8 182.7 L 165.7 177.6 L 159.4 169.4 L 153.3 157.6 L 152.67380285263062 155.79830989837646 L 151.4 157.8 L 144.7 166.4 L 137.5 174.0 L 129.9 180.3 L 121.8 185.2 L 113.3 188.8 L 112.6 187.1 L 119.7 182.0 L 126.4 176.1 L 132.8 169.4 L 138.7 161.8 L 144.3 153.1 L 148.86322364807128 144.83453826904298 L 147.6 141.2 L 142.6 119.6 L 138.6 91.9 L 137.34761180877686 75.85087785720825 L 115.1 77.9 L 114.8 74.0 L 137.04330749511718 71.95127429962159 L 135.9 57.3 L 135.02123889923095 15.998230075836181 L 135.0 16.0 L 135.0 12.6 L 147.0 15.0 L 150.0 17.0 Z M 40.0 140.0 L 40.0 168.0 L 90.2 168.0 L 90.2 140.0 Z M 40.0 109.0 L 40.0 136.0 L 90.2 136.0 L 90.2 109.0 Z M 40.0 81.0 L 40.0 105.0 L 90.2 105.0 L 90.2 81.0 Z M 167.4 41.7 L 166.7 39.2 L 165.8 36.7 L 164.8 34.3 L 163.7 31.9 L 162.4 29.4 L 160.9 27.0 L 159.3 24.5 L 157.2 22.3 L 158.3 20.8 L 160.9 22.5 L 163.7 24.0 L 166.3 25.8 L 168.8 27.8 L 171.0 30.0 L 173.1 32.3 L 175.1 34.9 L 176.9 37.5 L 178.4 40.4 L 179.9 43.4 L 179.3 47.9 L 175.8 50.8 L 171.3 50.3 L 168.3 46.8 L 167.9 44.2 Z M 44.4 37.2 L 44.0 34.5 L 42.8 29.3 L 42.0 26.7 L 41.3 24.1 L 40.4 21.4 L 39.6 18.7 L 38.3 16.3 L 39.7 15.2 L 41.7 17.3 L 43.9 19.3 L 45.9 21.4 L 47.8 23.7 L 49.5 26.1 L 51.2 28.6 L 52.8 31.2 L 55.6 36.6 L 56.8 39.5 L 56.1 44.0 L 52.5 46.9 L 48.0 46.2 L 45.2 42.6 L 44.9 39.9 Z " />
</g>
</svg>
