<svg xmlns="http://www.w3.org/2000/svg" xmlns:xlink="http://www.w3.org/1999/xlink" version="1.1" baseProfile="full" viewBox="0 0 200 200" width="200" height="200">
<g fill="black">
<path d="M 136.10584955215455 17.73649024963379 L 137.0 49.3 L 138.02409238815306 60.0 L 166.0 60.0 L 176.0 50.0 L 188.0 60.0 L 188.0 64.0 L 138.40693073272706 64.0 L 139.9 79.6 L 144.2 105.0 L 149.6 125.9 L 150.71722927093506 128.95864400863647 L 150.8 128.8 L 156.1 116.1 L 160.8 102.4 L 164.62549543380737 88.40428495407104 L 164.6 88.4 L 165.3 85.7 L 176.5 90.4 L 178.9 93.1 L 175.30107049942018 94.19253215789794 L 171.6 105.9 L 166.0 120.2 L 159.7 133.3 L 155.12190809249878 141.01735496520996 L 155.7 142.6 L 162.1 155.3 L 168.4 164.5 L 174.1 170.4 L 175.80758924484252 171.5004464149475 L 181.0 149.0 L 183.0 149.0 L 181.07446804046631 174.0319149017334 L 185.2 175.8 L 187.0 180.0 L 185.2 184.2 L 181.0 186.0 L 173.7 184.2 L 166.4 179.6 L 159.1 172.1 L 151.8 161.4 L 147.32093238830566 152.50495023727416 L 145.0 155.7 L 136.6 165.1 L 127.5 173.1 L 117.7 179.8 L 107.3 185.0 L 96.3 188.8 L 95.6 187.1 L 105.6 181.7 L 106.71904764175414 180.92527475357056 L 104.1 180.2 L 98.0 178.0 L 92.3 175.4 L 87.1 172.3 L 82.2 168.8 L 77.9 164.9 L 74.0 160.6 L 70.7 156.0 L 68.0 150.9 L 67.07297296524048 148.35067567825317 L 67.0 148.6 L 63.3 155.8 L 58.4 162.2 L 52.5 167.5 L 45.8 171.9 L 38.2 175.6 L 30.0 178.4 L 21.2 180.4 L 11.7 181.7 L 11.4 179.9 L 20.2 176.7 L 28.2 173.3 L 35.4 169.6 L 41.7 165.6 L 47.0 161.1 L 51.3 156.2 L 54.6 150.8 L 56.46379308700561 146.1 L 14.6 146.1 L 14.6 142.1 L 57.4890625 142.1 L 58.2 138.6 L 58.5 131.3 L 58.5 128.9 L 70.5 131.3 L 73.5 133.3 L 70.0047393798828 135.39715642929076 L 69.4 140.4 L 68.90243902206421 142.1 L 92.3 142.1 L 102.3 132.1 L 114.3 142.1 L 114.3 146.1 L 69.08292684555053 146.1 L 71.4 148.6 L 75.2 152.2 L 79.1 155.5 L 83.2 158.5 L 87.5 161.1 L 92.0 163.3 L 96.8 165.3 L 101.9 166.9 L 107.3 168.1 L 113.0 169.1 L 120.46387386322021 170.44984951019288 L 123.2 168.1 L 131.1 159.9 L 138.3 150.6 L 143.10210151672362 142.99051609039307 L 138.1 129.5 L 132.5 107.5 L 128.0 81.2 L 126.34083604812622 64.0 L 12.0 64.0 L 12.0 60.0 L 61.0 60.0 L 61.0 41.0 L 22.0 41.0 L 22.0 37.0 L 61.0 37.0 L 61.0 12.0 L 73.0 14.0 L 76.0 16.0 L 73.0 17.8 L 73.0 37.0 L 90.0 37.0 L 100.0 27.0 L 112.0 37.0 L 112.0 41.0 L 73.0 41.0 L 73.0 60.0 L 125.95498390197754 60.0 L 125.0 50.1 L 124.0276370048523 14.997696876525879 L 124.0 15.0 L 124.0 11.6 L 136.0 14.0 L 139.0 16.0 Z M 12.2 123.1 L 58.5 123.1 L 58.5 109.4 L 21.4 109.4 L 21.4 105.4 L 58.5 105.4 L 58.5 91.7 L 16.5 91.7 L 16.5 87.7 L 46.7 87.7 L 44.2 85.2 L 44.1 83.7 L 43.9 82.2 L 43.5 80.6 L 43.0 79.0 L 42.4 77.4 L 41.6 75.7 L 40.8 73.9 L 39.8 72.1 L 38.7 70.2 L 37.1 68.8 L 38.1 67.3 L 40.0 68.6 L 42.2 69.4 L 44.2 70.4 L 46.1 71.6 L 47.9 72.8 L 49.6 74.2 L 51.3 75.7 L 52.8 77.3 L 54.2 79.0 L 55.4 80.8 L 55.3 85.4 L 52.928125 87.7 L 75.2 87.7 L 75.8 86.8 L 76.9 84.2 L 78.0 81.7 L 79.1 79.3 L 80.1 77.0 L 81.0 74.8 L 81.9 72.7 L 82.6 70.6 L 83.3 68.6 L 83.60113878250122 67.64639396667481 L 83.5 67.6 L 83.78947372436524 67.05 L 83.9 66.7 L 83.95686655044555 66.73195362091064 L 84.5 65.7 L 94.4 72.6 L 96.0 75.8 L 91.33689727783204 75.96079664230346 L 91.3 76.0 L 89.7 77.8 L 87.9 79.5 L 86.1 81.3 L 84.2 83.0 L 80.0 86.6 L 78.4470588684082 87.7 L 94.21818180084229 87.7 L 102.4 78.7 L 112.4 87.7 L 112.4 91.7 L 70.5 91.7 L 70.5 105.4 L 89.31818180084228 105.4 L 97.5 96.4 L 107.5 105.4 L 107.5 109.4 L 70.5 109.4 L 70.5 123.1 L 98.51818180084229 123.1 L 106.7 114.1 L 116.7 123.1 L 116.7 127.1 L 12.2 127.1 Z M 161.3 38.6 L 160.1 36.3 L 158.6 34.0 L 157.0 31.7 L 155.1 29.4 L 153.0 27.1 L 150.8 24.7 L 148.3 22.3 L 145.4 20.2 L 146.3 18.6 L 149.6 20.0 L 153.0 21.2 L 156.3 22.7 L 159.3 24.3 L 162.2 26.1 L 164.8 28.1 L 167.4 30.2 L 169.7 32.4 L 171.9 34.9 L 173.8 37.5 L 174.2 42.0 L 171.4 45.6 L 166.8 46.0 L 163.2 43.1 L 162.4 40.9 Z " />
</g>
</svg>
