<svg xmlns="http://www.w3.org/2000/svg" xmlns:xlink="http://www.w3.org/1999/xlink" version="1.1" baseProfile="full" viewBox="0 0 200 200" width="200" height="200">
<g fill="black">
<path d="M 51.3 80.2 L 53.6 82.9 L 49.81440000534057 83.91400003433228 L 49.3 85.2 L 49.25208330154419 85.3 L 72.0 85.3 L 72.44554452896118 84.92871284484863 L 72.5 84.7 L 72.64089307785034 84.76592245101929 L 78.0 80.3 L 89.0 89.3 L 84.0 92.3 L 80.36999998092651 93.8125 L 80.3 93.9 L 78.6 96.0 L 76.8 98.0 L 74.9 99.9 L 72.8 101.8 L 70.6 103.7 L 68.3 105.5 L 66.7470588684082 106.6 L 88.0 106.6 L 94.0 101.6 L 105.0 110.6 L 100.0 114.6 L 100.0 170.0 L 99.9 172.5 L 99.4 175.0 L 98.6 177.4 L 97.64560146331787 179.22926387786865 L 104.3 175.3 L 114.1 168.3 L 123.3 160.6 L 131.8 152.0 L 137.67514562606812 144.93495149612426 L 130.9 129.3 L 124.1 107.3 L 118.7 80.9 L 118.14677419662476 76.0 L 42.241176509857176 76.0 Z M 71.1 132.0 L 71.1 149.3 L 88.0 149.3 L 88.0 132.0 Z M 42.2 110.6 L 42.2 128.0 L 59.1 128.0 L 59.1 110.6 Z M 71.1 110.6 L 71.1 128.0 L 88.0 128.0 L 88.0 110.6 Z M 47.33541669845581 89.3 L 47.0 90.0 L 44.4 94.7 L 41.5 99.2 L 38.2 103.6 L 37.6 104.3 L 42.2 106.6 L 63.29166669845581 106.6 L 64.0 105.6 L 66.6 100.4 L 68.8 95.6 L 69.7 93.3 L 70.6 91.1 L 71.17272729873658 89.3 Z M 157.2 43.6 L 155.4 40.8 L 153.4 38.0 L 151.3 35.3 L 149.1 32.6 L 146.7 30.0 L 144.1 27.3 L 141.4 24.7 L 138.4 22.2 L 139.3 20.6 L 142.9 22.1 L 146.6 23.6 L 150.2 25.4 L 153.5 27.4 L 156.7 29.6 L 159.8 31.9 L 162.7 34.5 L 165.5 37.3 L 168.1 40.2 L 170.5 43.3 L 171.2 47.8 L 168.5 51.5 L 164.0 52.2 L 160.3 49.5 L 158.8 46.5 Z M 59.1 149.3 L 59.1 132.0 L 42.2 132.0 L 42.2 146.4 L 41.910000038146975 149.3 Z M 126.12765960693359 17.723404216766358 L 127.2 49.0 L 129.80666666030885 72.0 L 169.8181818008423 72.0 L 178.0 63.0 L 188.0 72.0 L 188.0 76.0 L 130.26000003814698 76.0 L 130.6 79.0 L 135.7 104.3 L 142.2 125.2 L 145.87323417663575 133.6688455581665 L 146.9 132.2 L 153.6 120.9 L 159.6 108.7 L 164.62321853637695 96.60706653594971 L 164.6 96.6 L 165.5 94.3 L 176.1 100.1 L 178.2 103.1 L 174.4683765411377 103.67904500961303 L 169.9 113.7 L 162.9 126.3 L 155.2 137.8 L 150.5540410041809 143.7333933830261 L 157.1 154.7 L 164.6 163.9 L 171.5 170.0 L 175.64285717010497 172.21428575515748 L 181.0 149.0 L 183.0 149.0 L 181.07446804046631 174.0319149017334 L 185.2 175.8 L 187.0 180.0 L 185.2 184.2 L 181.0 186.0 L 173.0 184.3 L 164.6 179.8 L 156.0 172.3 L 147.2 161.5 L 142.27851829528808 153.27823066711426 L 137.9 157.9 L 128.2 166.3 L 117.9 173.7 L 107.0 180.0 L 95.4 185.0 L 83.2 188.8 L 82.7 187.1 L 85.0387357711792 185.9200972557068 L 84.0 186.0 L 84.0 180.0 L 64.0 177.0 L 64.0 174.0 L 84.0 174.0 L 85.3 173.9 L 86.2 173.7 L 86.8 173.6 L 87.1 173.4 L 87.3 173.2 L 87.4 173.0 L 87.6 172.7 L 87.8 172.1 L 88.0 171.2 L 88.0 153.3 L 41.30416669845581 153.3 L 40.7 156.2 L 39.3 160.8 L 37.4 165.1 L 35.2 169.1 L 32.5 172.9 L 29.4 176.3 L 26.0 179.3 L 22.1 181.9 L 18.0 184.4 L 17.0 182.9 L 20.0 179.5 L 22.5 176.0 L 24.7 172.5 L 26.5 169.0 L 27.9 165.5 L 29.0 161.9 L 29.8 158.2 L 30.3 154.4 L 30.4 150.5 L 30.2 146.4 L 30.2 112.24285717010498 L 26.6 115.5 L 22.0 119.0 L 17.0 122.1 L 15.9 120.7 L 19.4 116.2 L 22.7 111.8 L 25.8 107.5 L 28.6 103.2 L 31.2 98.8 L 33.5 94.5 L 35.5 90.1 L 37.2 85.7 L 38.6 81.2 L 39.53155078887939 77.70668449401856 L 39.5 77.7 L 39.75 76.8875 L 39.8 76.7 L 39.80703363418579 76.70214071273804 L 40.023076915740965 76.0 L 12.0 76.0 L 12.0 72.0 L 56.0 72.0 L 56.0 45.0 L 19.0 45.0 L 19.0 41.0 L 56.0 41.0 L 56.0 12.0 L 68.0 14.0 L 71.0 16.0 L 68.0 17.8 L 68.0 41.0 L 84.0 41.0 L 94.0 31.0 L 106.0 41.0 L 106.0 45.0 L 68.0 45.0 L 68.0 72.0 L 117.69516124725342 72.0 L 115.2 49.9 L 114.03333330154419 14.997222232818604 L 114.0 15.0 L 114.0 11.6 L 126.0 14.0 L 129.0 16.0 Z " />
</g>
</svg>
