<svg xmlns="http://www.w3.org/2000/svg" xmlns:xlink="http://www.w3.org/1999/xlink" version="1.1" baseProfile="full" viewBox="0 0 200 200" width="200" height="200">
<g fill="black">
<path d="M 149.4 178.8 L 137.0 170.2 L 130.10024061203003 162.93061056137086 L 125.9 165.7 L 116.4 171.1 L 106.3 176.0 L 95.8 180.3 L 84.8 183.9 L 73.2 186.8 L 72.7 185.1 L 83.4 180.3 L 93.7 175.4 L 103.4 170.1 L 112.5 164.6 L 121.2 158.6 L 124.33333330154419 156.1629630088806 L 115.9 143.3 L 107.6 125.0 L 101.87649765014649 107.0 L 15.0 107.0 L 15.0 103.0 L 100.63928575515747 103.0 L 95.6 78.1 L 92.3 49.4 L 91.03997640609741 17.99633550643921 L 91.0 18.0 L 90.9 14.6 L 103.0 16.9 L 106.0 18.9 L 103.15256328582764 20.608462047576904 L 104.3 48.5 L 107.5 76.3 L 112.4 100.3 L 113.2470588684082 103.0 L 163.0 103.0 L 173.0 93.0 L 185.0 103.0 L 185.0 107.0 L 114.50196075439453 107.0 L 118.8 120.7 L 126.5 137.6 L 133.5890901565552 148.51882848739623 L 136.9 145.6 L 144.0 138.5 L 150.5 131.0 L 156.21875 123.59375 L 157.0 122.5 L 166.1 130.4 L 167.3 133.8 L 163.55258283615112 133.34772548675537 L 159.1 138.5 L 151.6 146.1 L 143.5 153.2 L 139.90448570251465 155.94951095581055 L 144.8 161.1 L 155.0 168.2 L 165.8 172.4 L 171.41647987365724 173.19525375366212 L 177.0 149.0 L 179.0 149.0 L 177.07717170715333 173.9967677116394 L 177.1 174.0 L 181.2 175.8 L 182.9 180.1 L 181.1 184.2 L 176.8 185.9 L 162.8 184.0 Z M 52.0 173.6 L 49.6 173.1 L 47.1 172.3 L 44.9 171.1 L 42.9 169.4 L 41.2 167.4 L 40.0 165.2 L 39.2 162.7 L 38.7 160.3 L 38.6 157.7 L 38.6 124.9 L 50.6 126.9 L 53.6 128.9 L 50.6 130.7 L 50.6 157.7 L 50.7 158.9 L 50.8 159.8 L 51.0 160.4 L 51.2 160.8 L 51.4 160.9 L 51.5 161.1 L 51.9 161.3 L 52.5 161.5 L 53.4 161.6 L 54.6 161.7 L 78.2 161.7 L 84.2 136.7 L 86.2 136.7 L 84.2 161.7 L 87.8 164.1 L 90.2 167.7 L 87.8 171.3 L 84.2 173.7 L 54.6 173.7 Z M 15.7 158.8 L 15.4 154.3 L 18.3 150.7 L 19.2 150.6 L 20.3 150.2 L 21.4 149.5 L 22.7 148.4 L 23.9 146.9 L 25.1 145.0 L 26.2 142.6 L 27.3 139.9 L 28.4 136.8 L 28.8 133.3 L 30.6 133.4 L 30.7 137.0 L 31.1 140.4 L 31.3 143.6 L 31.1 146.7 L 30.8 149.5 L 30.1 152.3 L 29.1 154.8 L 27.8 157.3 L 26.0 159.5 L 23.8 161.4 L 19.3 161.7 Z M 94.4 148.3 L 94.1 146.7 L 93.5 145.0 L 92.7 143.1 L 91.7 141.2 L 90.5 139.3 L 89.0 137.2 L 87.3 135.0 L 85.1 133.3 L 86.0 131.7 L 88.6 133.1 L 91.3 134.2 L 93.8 135.5 L 96.1 136.9 L 98.3 138.4 L 100.3 140.1 L 102.1 142.0 L 103.7 144.0 L 105.0 146.2 L 106.2 148.6 L 105.4 153.1 L 101.7 155.8 L 97.2 155.0 L 94.5 151.3 L 94.5 149.9 Z M 61.7 122.6 L 60.9 121.1 L 59.8 119.6 L 58.5 118.0 L 57.0 116.4 L 55.2 114.8 L 53.2 113.2 L 50.9 111.5 L 48.3 110.3 L 48.8 108.6 L 51.7 109.4 L 54.7 109.7 L 57.4 110.3 L 60.1 111.0 L 62.6 111.9 L 64.9 113.0 L 67.2 114.2 L 69.2 115.6 L 71.2 117.3 L 72.9 119.1 L 73.6 123.6 L 70.9 127.3 L 66.4 128.0 L 62.7 125.3 L 62.3 124.0 Z M 168.8 81.4 L 168.2 79.5 L 167.4 77.4 L 167.35901527404786 77.32175645828247 L 165.2 78.2 L 159.4 80.2 L 153.8 81.9 L 148.3 83.5 L 142.9 84.9 L 138.31338024139404 85.95845069885254 L 138.9 86.2 L 140.9 86.4 L 142.8 86.7 L 144.7 87.3 L 146.5 87.9 L 148.4 88.6 L 150.2 89.5 L 152.0 90.5 L 153.7 91.5 L 155.4 92.7 L 156.9 97.1 L 154.9 101.2 L 150.6 102.6 L 146.5 100.7 L 145.7 99.2 L 145.0 97.8 L 144.2 96.4 L 143.3 95.0 L 140.3 90.8 L 139.2 89.5 L 138.0 88.0 L 136.5 87.2 L 136.8785252571106 86.28072443008423 L 132.7 87.2 L 127.8 88.2 L 123.0 89.1 L 122.63795070648193 89.15631875991821 L 120.7 92.7 L 118.5 89.8 L 115.4 78.1 L 117.4 77.9 L 121.8 77.8 L 126.5 77.6 L 128.3683871269226 77.48322582244873 L 129.4 76.2 L 133.5 71.2 L 137.6 66.3 L 141.7 61.5 L 149.7 51.9 L 153.6 47.2 L 157.4 42.4 L 161.1 37.6 L 164.1412573814392 33.629469585418704 L 164.1 33.6 L 165.1 32.4 L 173.9 40.6 L 174.9 44.0 L 171.262691116333 43.425688076019284 L 169.7 45.1 L 165.4 49.5 L 161.0 53.9 L 156.5 58.3 L 151.9 62.6 L 147.1 66.8 L 142.2 71.0 L 137.2 75.0 L 134.47164182662965 77.04626865386963 L 136.3 76.9 L 141.5 76.5 L 146.9 76.0 L 152.5 75.5 L 158.4 74.9 L 164.4 74.4 L 165.75539379119874 74.33646593093872 L 165.0 73.0 L 163.5 70.7 L 161.7 68.2 L 159.7 65.6 L 157.2 63.3 L 158.3 61.8 L 161.3 63.6 L 164.3 65.2 L 167.1 66.9 L 169.7 68.6 L 172.0 70.5 L 174.2 72.4 L 176.2 74.5 L 177.9 76.6 L 179.5 78.9 L 180.8 81.3 L 180.3 85.9 L 176.8 88.8 L 172.3 88.3 L 169.3 84.8 L 169.2 83.2 Z M 78.3 84.2 L 77.9 82.5 L 77.38196983337403 80.85957107543945 L 74.2 82.1 L 68.3 84.1 L 62.5 85.8 L 56.7 87.3 L 51.0 88.6 L 45.5 89.8 L 40.0 90.8 L 34.6 91.6 L 29.4 92.3 L 28.409103298187254 92.41433420181275 L 26.3 95.8 L 24.2 92.9 L 21.7 81.0 L 23.7 80.9 L 28.7 81.0 L 33.7 80.9 L 37.76307802200317 80.82333812713622 L 38.4 80.0 L 42.4 74.9 L 46.5 69.8 L 50.5 64.9 L 54.4 60.0 L 58.3 55.2 L 62.0 50.4 L 69.2 40.8 L 72.02260522842407 36.81514549255371 L 72.0 36.8 L 72.20465116500854 36.5581395149231 L 72.6 36.0 L 72.64592084884643 36.036639022827146 L 73.1 35.5 L 82.0 43.5 L 83.1 46.9 L 79.43500862121581 46.385615253448485 L 78.0 48.0 L 73.9 52.5 L 69.6 56.9 L 65.2 61.4 L 60.7 65.8 L 56.0 70.1 L 51.2 74.4 L 46.2 78.6 L 43.631416130065915 80.62522954940796 L 44.3 80.6 L 55.5 79.8 L 61.3 79.4 L 67.3 78.9 L 73.4 78.4 L 76.16374711990356 78.27044935226441 L 75.3 76.7 L 74.0 74.6 L 72.4 72.4 L 70.6 70.2 L 68.3 68.2 L 69.3 66.7 L 72.0 68.2 L 74.8 69.4 L 77.4 70.8 L 79.8 72.3 L 82.1 74.0 L 84.1 75.8 L 85.9 77.8 L 87.6 79.9 L 89.0 82.2 L 90.1 84.7 L 89.3 89.2 L 85.6 91.9 L 81.1 91.1 L 78.4 87.4 L 78.4 85.8 Z M 38.3 55.1 L 36.9 53.3 L 35.3 51.5 L 33.4 49.6 L 31.3 47.8 L 29.0 45.9 L 26.4 43.9 L 23.7 41.8 L 20.6 40.2 L 21.2 38.5 L 24.7 39.5 L 28.2 40.2 L 31.5 41.1 L 34.5 42.1 L 37.5 43.3 L 38.24693880081177 43.631972789764404 L 39.0 42.6 L 41.3 38.8 L 45.9 31.9 L 48.0 28.6 L 50.0 25.5 L 51.8 22.5 L 53.5 19.7 L 55.1 16.9 L 55.96461534500122 15.237278079986572 L 55.9 15.2 L 56.28181819915771 14.627272701263427 L 56.4 14.4 L 56.42286376953125 14.415704345703125 L 56.9 13.7 L 66.3 21.2 L 67.6 24.5 L 63.5388090133667 24.289938354492186 L 61.9 26.0 L 59.5 28.5 L 56.9 31.1 L 54.1 33.7 L 51.2 36.4 L 48.1 39.1 L 44.8 41.9 L 41.2 44.6 L 40.880373859405516 44.86635513305664 L 42.8 45.9 L 45.3 47.4 L 47.6 49.1 L 49.7 50.8 L 51.0 55.2 L 48.8 59.3 L 44.5 60.5 L 40.4 58.4 L 39.5 56.8 Z M 127.8 53.9 L 126.6 52.3 L 125.1 50.6 L 121.5 47.0 L 119.3 45.1 L 117.0 43.1 L 114.4 41.0 L 111.5 39.2 L 112.2 37.6 L 115.5 38.8 L 118.8 39.6 L 121.9 40.6 L 124.8 41.6 L 127.45681819915771 42.584006690979 L 128.0 41.9 L 130.4 38.4 L 132.8 35.1 L 135.0 31.9 L 137.1 28.8 L 139.0 25.8 L 140.8 22.9 L 142.5 20.0 L 144.0 17.2 L 144.90487337112427 15.454887008666992 L 144.8 15.4 L 145.34246578216553 14.610958862304688 L 145.4 14.5 L 145.41299867630005 14.508365535736084 L 145.9 13.8 L 155.5 21.0 L 156.9 24.3 L 152.720365524292 24.227937316894533 L 148.5 28.8 L 145.8 31.4 L 143.0 34.0 L 140.1 36.6 L 137.0 39.1 L 133.7 41.6 L 130.30853662490844 43.860975646972655 L 132.3 44.9 L 134.5 46.1 L 136.5 47.4 L 138.4 48.7 L 139.9 53.1 L 137.9 57.2 L 133.6 58.6 L 129.5 56.7 L 128.8 55.3 Z " />
</g>
</svg>
