<svg xmlns="http://www.w3.org/2000/svg" xmlns:xlink="http://www.w3.org/1999/xlink" version="1.1" baseProfile="full" viewBox="0 0 200 200" width="200" height="200">
<g fill="black">
<path d="M 93.9 166.5 L 91.8 163.3 L 89.5 160.2 L 86.9 157.2 L 84.1 154.3 L 81.0 151.4 L 77.7 148.6 L 74.2 145.8 L 73.5 145.32105264663696 L 73.5 183.0 L 61.5 189.0 L 61.5 143.21219511032103 L 59.3 146.7 L 54.9 152.7 L 50.2 158.4 L 45.1 163.6 L 39.7 168.4 L 34.0 172.8 L 27.9 176.7 L 21.4 180.0 L 14.6 182.7 L 13.7 181.2 L 19.4 176.8 L 24.7 172.3 L 29.8 167.7 L 34.5 162.9 L 38.9 157.8 L 43.0 152.5 L 46.7 146.9 L 50.2 141.1 L 53.3 134.9 L 54.128205108642575 133.0 L 15.4 133.0 L 15.4 129.0 L 61.5 129.0 L 61.5 111.0 L 26.0 111.0 L 26.0 107.0 L 61.5 107.0 L 61.5 89.0 L 21.3 89.0 L 21.3 85.0 L 76.74545450210572 85.0 L 77.4 83.2 L 78.3 79.8 L 79.1 76.5 L 80.0 73.4 L 81.6 67.4 L 82.3 64.6 L 82.9 61.9 L 83.5 59.3 L 83.79492635726929 57.82536821365356 L 83.7 57.8 L 83.95 57.05 L 84.0 56.8 L 84.02973680496216 56.81078948974609 L 84.5 55.4 L 95.3 60.9 L 97.4 63.9 L 93.24003295898437 64.702800655365 L 92.6 65.8 L 91.1 68.3 L 89.5 70.9 L 87.8 73.5 L 86.0 76.2 L 84.1 78.9 L 82.0 81.6 L 79.8 84.4 L 79.4 85.0 L 90.5 85.0 L 100.5 75.0 L 112.5 85.0 L 112.5 89.0 L 73.5 89.0 L 73.5 107.0 L 89.61818180084228 107.0 L 97.8 98.0 L 107.8 107.0 L 107.8 111.0 L 73.5 111.0 L 73.5 129.0 L 96.5 129.0 L 106.5 119.0 L 118.5 129.0 L 118.5 133.0 L 73.5 133.0 L 73.5 142.23043479919434 L 75.7 142.9 L 80.2 144.4 L 84.4 146.4 L 88.4 148.6 L 92.3 151.1 L 95.8 153.8 L 99.2 156.9 L 102.4 160.1 L 105.3 163.6 L 108.0 167.4 L 108.5 171.9 L 105.7 175.6 L 101.2 176.1 L 97.5 173.3 L 95.8 169.9 Z M 145.20486707687377 18.73707981109619 L 146.2 54.2 L 147.79181079864503 71.3915563583374 L 170.10180292129516 67.64440002441407 L 178.3 56.1 L 191.8 64.0 L 192.5 67.9 L 148.1581114768982 75.34760398864746 L 149.2 86.6 L 153.7 112.8 L 155.82784996032714 120.7697654724121 L 157.9 114.8 L 161.8 101.6 L 165.16732387542726 88.41131496429443 L 165.1 88.4 L 165.8 85.7 L 177.0 90.4 L 179.4 93.1 L 175.89711818695068 94.11902017593384 L 172.7 104.9 L 168.0 118.3 L 162.9 130.8 L 160.29870147705077 136.1917823791504 L 165.3 148.9 L 171.5 160.0 L 177.2 167.4 L 181.6522192955017 171.3070496559143 L 186.8 149.0 L 188.8 149.0 L 186.8744680404663 174.0319149017334 L 191.0 175.8 L 192.8 180.0 L 191.0 184.2 L 186.8 186.0 L 181.3 184.8 L 175.2 181.5 L 168.5 175.6 L 161.5 166.7 L 154.4 154.0 L 152.86294984817505 150.0642201423645 L 151.4 152.6 L 145.1 161.9 L 138.2 170.1 L 131.0 177.2 L 123.3 183.1 L 115.2 187.7 L 114.3 186.2 L 120.9 180.2 L 127.2 173.5 L 133.2 166.0 L 138.8 157.6 L 144.1 148.3 L 148.55350694656372 139.02943449020387 L 147.8 137.1 L 142.0 115.4 L 137.3 88.2 L 136.2891119003296 77.34110527038574 L 115.1 80.9 L 114.4 77.0 L 135.9208616256714 73.3853850364685 L 134.2 54.9 L 133.12750568389893 15.997707843780518 L 133.1 16.0 L 133.1 12.6 L 145.1 15.0 L 148.1 17.0 Z M 46.0 72.5 L 45.2 67.7 L 44.6 65.3 L 44.0 63.0 L 43.3 60.7 L 42.6 58.3 L 41.4 56.3 L 42.8 55.1 L 44.5 56.9 L 46.6 58.5 L 48.5 60.4 L 50.3 62.4 L 51.9 64.6 L 53.5 67.0 L 54.9 69.5 L 56.2 72.1 L 57.4 74.9 L 58.5 77.8 L 57.6 82.3 L 53.9 84.9 L 49.4 84.0 L 46.8 80.2 L 46.4 75.0 Z M 15.4 50.0 L 51.3 50.0 L 51.3 13.0 L 62.3 15.0 L 65.1 17.0 L 62.3 18.75 L 62.3 50.0 L 71.5 50.0 L 71.5 13.0 L 82.5 15.0 L 85.2 17.0 L 82.5 18.723404216766358 L 82.5 50.0 L 88.6 50.0 L 89.6 47.5 L 90.8 43.5 L 92.1 39.7 L 93.3 36.1 L 94.4 32.6 L 95.3 29.2 L 96.2 26.0 L 97.0 22.9 L 97.7 19.9 L 98.03377304077148 18.030870723724366 L 97.9 18.0 L 98.7 15.6 L 109.6 20.7 L 111.9 23.5 L 107.85299997329712 24.49399995803833 L 106.8 26.6 L 105.2 29.6 L 103.4 32.7 L 101.5 35.8 L 99.5 39.0 L 97.2 42.3 L 94.8 45.6 L 92.2 48.9 L 91.382857131958 50.0 L 100.31818180084228 50.0 L 108.5 41.0 L 118.5 50.0 L 118.5 54.0 L 15.4 54.0 Z M 169.0 42.6 L 167.7 40.0 L 166.2 37.4 L 164.5 34.8 L 162.6 32.3 L 160.5 29.7 L 158.3 27.2 L 155.8 24.6 L 153.0 22.2 L 153.9 20.7 L 157.3 22.2 L 160.8 23.7 L 164.1 25.4 L 167.2 27.3 L 170.1 29.5 L 172.8 31.8 L 175.4 34.2 L 177.7 36.9 L 179.9 39.7 L 181.9 42.7 L 182.1 47.2 L 179.0 50.7 L 174.5 50.8 L 171.0 47.8 L 170.1 45.2 Z M 32.3 35.6 L 30.9 30.4 L 30.1 27.7 L 28.3 22.5 L 27.3 19.8 L 25.9 17.3 L 27.3 16.2 L 29.4 18.3 L 31.7 20.2 L 33.8 22.3 L 35.8 24.6 L 37.6 27.0 L 39.4 29.5 L 41.0 32.1 L 42.5 34.8 L 43.9 37.6 L 45.2 40.4 L 44.6 45.0 L 41.0 47.8 L 36.5 47.2 L 33.7 43.7 L 33.3 41.0 Z " />
</g>
</svg>
