<svg xmlns="http://www.w3.org/2000/svg" xmlns:xlink="http://www.w3.org/1999/xlink" version="1.1" baseProfile="full" viewBox="0 0 200 200" width="200" height="200">
<g fill="black">
<path d="M 132.41975088119506 19.068149471282958 L 133.5 37.1 L 134.82672414779663 43.85068445205688 L 165.73725852966308 42.71243696212768 L 172.70025577545167 35.209207153320314 L 169.5 36.4 L 165.3 34.7 L 164.5 33.4 L 163.3 32.0 L 161.9 30.5 L 160.1 29.0 L 158.1 27.4 L 155.9 25.8 L 153.3 24.2 L 150.5 22.5 L 147.5 20.7 L 144.1 19.3 L 144.6 17.6 L 148.3 18.3 L 151.8 18.7 L 155.2 19.2 L 158.4 19.9 L 161.4 20.6 L 164.2 21.5 L 166.8 22.5 L 169.3 23.6 L 171.6 24.9 L 173.8 26.3 L 175.5 30.5 L 174.33440446853638 33.448271083831784 L 175.4 32.3 L 187.8 41.9 L 187.9 45.9 L 135.60792140960694 47.825600147247314 L 136.9 54.4 L 141.9 68.0 L 146.3704517364502 75.47518157958984 L 146.6 75.3 L 153.5 69.0 L 159.7 62.3 L 165.2 55.0 L 165.2181393623352 55.013277244567874 L 165.7 54.4 L 174.9 62.1 L 176.1 65.5 L 172.23172254562377 65.16652784347534 L 168.2 69.8 L 160.8 76.9 L 152.8 83.3 L 152.63965520858764 83.40203762054443 L 154.6 85.6 L 161.5 90.8 L 168.0 94.2 L 174.0 96.2 L 176.1982677459717 96.5741732597351 L 181.8 72.3 L 183.8 72.3 L 181.8744680404663 97.3319149017334 L 186.0 99.1 L 187.8 103.3 L 186.0 107.5 L 181.8 109.3 L 177.3 109.0 L 171.0 107.8 L 163.5 105.3 L 155.1 101.0 L 146.5 94.5 L 142.32074823379517 89.8110834121704 L 134.6 94.0 L 124.6 98.3 L 113.9 102.0 L 102.5 104.9 L 90.5 107.1 L 84.50582523345948 107.71844663619996 L 92.6 113.5 L 94.2 116.7 L 90.65714282989502 116.7 L 89.2 119.1 L 85.6 124.7 L 83.33888893127441 128.0 L 163.0 128.0 L 173.0 118.0 L 185.0 128.0 L 185.0 132.0 L 141.55188674926757 132.0 L 136.5 142.5 L 129.8 151.9 L 121.4 160.2 L 120.33411016464234 160.9644260406494 L 128.1 162.8 L 138.9 165.6 L 149.3 168.6 L 159.5 171.7 L 169.3 175.1 L 172.6 178.3 L 172.7 182.9 L 169.5 186.1 L 165.0 186.3 L 155.6 182.5 L 145.9 178.8 L 135.9 175.2 L 125.6 171.8 L 114.9 168.5 L 111.24192037582398 167.4358313560486 L 100.1 173.3 L 87.2 178.2 L 72.9 182.0 L 57.1 184.8 L 39.8 186.5 L 21.0 186.9 L 20.9 185.2 L 39.4 182.7 L 56.1 179.5 L 71.2 175.7 L 84.6 171.1 L 96.3 165.7 L 99.09775085449219 163.98256883621215 L 92.6 162.2 L 81.0 159.2 L 69.1 156.2 L 62.3001353263855 154.48621292114257 L 61.3 155.6 L 56.8 160.3 L 52.1 164.9 L 43.8 156.2 L 48.2 151.9 L 52.5 147.4 L 56.7 142.8 L 60.7 138.1 L 64.6 133.3 L 65.5880000114441 132.0 L 15.0 132.0 L 15.0 128.0 L 68.62200002670288 128.0 L 72.1 123.3 L 75.6 118.1 L 79.0 112.8 L 81.80854768753052 108.20419473648072 L 81.8 108.2 L 81.92673959732056 107.98454275131226 L 77.9 108.4 L 77.6 106.6 L 89.7 103.4 L 101.1 99.7 L 111.7 95.8 L 121.5 91.3 L 130.6 86.5 L 136.69558572769165 82.58140916824341 L 131.1 73.1 L 125.3 57.7 L 123.47371664047242 48.27242927551269 L 101.0 49.1 L 100.9 45.1 L 122.70362758636475 44.29710464477539 L 121.6 38.6 L 120.26004285812378 16.394996452331544 L 120.2 16.4 L 120.2 13.0 L 132.2 15.4 L 135.2 17.4 Z M 80.52777776718139 132.0 L 78.0 135.5 L 74.0 140.7 L 69.9 145.8 L 65.7 150.7 L 64.57521781921386 151.9525983810425 L 69.7 152.4 L 82.0 153.9 L 94.0 155.8 L 105.7 157.9 L 107.82872371673584 158.32947931289672 L 114.7 152.7 L 121.4 145.1 L 126.6 136.9 L 128.5884057998657 132.0 Z M 35.46373624801636 28.831868171691895 L 36.0 28.7 L 41.9 27.3 L 47.7 25.9 L 53.3 24.4 L 58.8 22.8 L 64.1 21.2 L 69.3 19.4 L 74.4 17.5 L 79.3 15.5 L 83.10868587493897 13.717210865020752 L 83.1 13.7 L 83.1156665802002 13.71394329071045 L 84.0 13.3 L 84.76173362731933 15.17894287109375 L 93.1 22.6 L 93.3 25.7 L 89.36011610031127 24.06343278884888 L 88.5 24.4 L 83.1 26.2 L 77.7 27.7 L 72.1 29.1 L 66.4 30.2 L 60.6 31.1 L 54.7 31.9 L 48.7 32.4 L 42.6 32.6 L 36.3 32.5 L 36.0 32.47619047164917 L 36.0 40.6 L 83.4 40.6 L 89.4 35.6 L 100.4 44.6 L 95.4 48.6 L 95.4 68.6 L 83.4 74.6 L 83.4 66.6 L 35.8032787322998 66.6 L 35.4 70.7 L 34.5 76.5 L 33.1 81.8 L 31.4 86.9 L 29.2 91.5 L 26.5 95.7 L 23.5 99.4 L 20.1 102.6 L 16.2 105.2 L 12.1 107.3 L 11.1 105.8 L 13.9 102.6 L 16.3 99.2 L 18.4 95.7 L 20.1 92.0 L 21.6 88.1 L 22.7 84.0 L 23.5 79.7 L 23.9 75.0 L 24.1 70.0 L 24.0 64.6 L 24.0 23.1 Z M 36.0 44.6 L 36.0 62.6 L 83.4 62.6 L 83.4 44.6 Z " />
</g>
</svg>
