<svg xmlns="http://www.w3.org/2000/svg" xmlns:xlink="http://www.w3.org/1999/xlink" version="1.1" baseProfile="full" viewBox="0 0 200 200" width="200" height="200">
<g fill="black">
<path d="M 93.9 173.3 L 91.2 170.5 L 88.1 167.6 L 84.7 164.8 L 80.9 162.0 L 76.8 159.1 L 72.3 156.2 L 67.6 153.2 L 66.06311225891113 152.2658133506775 L 63.1 158.7 L 58.5 165.7 L 52.9 171.9 L 46.2 177.4 L 38.6 182.2 L 30.0 186.2 L 20.5 189.3 L 19.9 187.7 L 28.3 182.8 L 35.7 177.7 L 42.1 172.3 L 47.3 166.7 L 51.5 160.8 L 54.8 154.6 L 57.0 148.0 L 57.21999998092652 146.9 L 20.2 146.9 L 20.2 142.9 L 58.019999980926514 142.9 L 58.4 141.0 L 58.8 133.5 L 58.450226879119874 126.59198055267333 L 58.4 126.6 L 58.2 123.4 L 70.3 124.7 L 73.5 126.4 L 70.25702028274536 128.69711065292358 L 70.2 134.0 L 69.0 142.8 L 68.97108430862427 142.9 L 94.5 142.9 L 104.5 132.9 L 116.5 142.9 L 116.5 146.9 L 67.81445779800416 146.9 L 67.08522834777833 149.42191858291625 L 69.1 149.9 L 74.6 151.5 L 79.8 153.4 L 84.6 155.5 L 89.2 157.8 L 93.5 160.2 L 97.5 162.7 L 101.1 165.4 L 104.5 168.3 L 107.6 171.3 L 108.9 175.7 L 106.8 179.7 L 102.4 181.0 L 98.3 178.9 L 96.3 176.1 Z M 143.60486707687377 18.73707981109619 L 144.6 54.2 L 146.1375340461731 71.37796640396118 L 167.3025990486145 67.7432788848877 L 175.5 56.2 L 189.1 64.0 L 189.7 67.9 L 146.49040670394896 75.32040567398072 L 147.5 86.6 L 151.9 112.8 L 153.88354330062867 120.36685037612915 L 155.8 114.8 L 159.6 101.6 L 162.84979934692382 88.50795116424561 L 162.8 88.5 L 163.5 85.8 L 174.7 90.4 L 177.2 93.0 L 173.6251428604126 94.08522453308106 L 170.5 104.8 L 165.9 118.3 L 160.9 130.7 L 158.3437870025635 136.0964496612549 L 163.3 148.9 L 169.3 160.1 L 174.9 167.5 L 179.00240001678466 171.08959999084473 L 184.1 149.0 L 186.1 149.0 L 184.1744680404663 174.0319149017334 L 188.3 175.8 L 190.1 180.0 L 188.3 184.2 L 184.1 186.0 L 178.7 184.8 L 172.7 181.5 L 166.1 175.6 L 159.2 166.6 L 152.4 154.0 L 150.9565149307251 150.24693880081176 L 149.7 152.5 L 143.4 161.9 L 136.8 170.1 L 129.7 177.2 L 122.1 183.1 L 114.2 187.7 L 113.2 186.2 L 119.7 180.2 L 125.8 173.5 L 131.6 166.0 L 137.1 157.6 L 142.3 148.4 L 146.65329236984252 139.05856018066407 L 145.9 137.1 L 140.2 115.3 L 135.6 88.2 L 134.62327518463135 77.35835437774658 L 114.0 80.9 L 113.4 77.0 L 134.26813554763794 73.41630430221558 L 132.6 54.9 L 131.52750568389894 15.997707843780518 L 131.5 16.0 L 131.5 12.6 L 143.5 15.0 L 146.5 17.0 Z M 40.3 89.0 L 90.6 89.0 L 96.6 84.0 L 107.6 93.0 L 102.6 97.0 L 102.6 118.3 L 90.6 124.3 L 90.6 116.3 L 40.3 116.3 L 40.3 119.3 L 28.3 125.3 L 28.3 83.0 Z M 40.3 93.0 L 40.3 112.3 L 90.6 112.3 L 90.6 93.0 Z M 100.5 73.5 L 100.5 77.5 L 30.5 77.5 L 30.5 73.5 L 82.31818180084228 73.5 L 90.5 64.5 Z M 100.5 57.8 L 100.5 61.8 L 30.5 61.8 L 30.5 57.8 L 86.27777776718139 57.8 L 92.5 50.8 Z M 166.6 42.5 L 165.4 39.9 L 163.9 37.4 L 162.3 34.8 L 160.5 32.3 L 158.4 29.7 L 156.2 27.2 L 153.8 24.6 L 151.1 22.2 L 152.0 20.7 L 155.4 22.3 L 158.8 23.7 L 162.0 25.4 L 165.0 27.4 L 167.9 29.5 L 170.6 31.8 L 173.1 34.3 L 175.4 36.9 L 177.5 39.7 L 179.5 42.7 L 179.6 47.3 L 176.6 50.7 L 172.0 50.8 L 168.6 47.8 L 167.7 45.1 Z M 118.6 41.6 L 118.6 45.6 L 12.3 45.6 L 12.3 41.6 L 100.41818180084229 41.6 L 108.6 32.6 Z M 101.1 24.7 L 101.1 28.7 L 29.8 28.7 L 29.8 24.7 L 79.1 24.7 L 89.1 14.7 Z " />
</g>
</svg>
