<svg xmlns="http://www.w3.org/2000/svg" xmlns:xlink="http://www.w3.org/1999/xlink" version="1.1" baseProfile="full" viewBox="0 0 200 200" width="200" height="200">
<g fill="black">
<path d="M 137.10775051116943 18.7353497505188 L 138.2 56.6 L 139.5679594039917 70.61122074127198 L 166.50065603256226 68.62356786727905 L 175.8 57.9 L 188.5 67.0 L 188.8 70.9 L 139.94815082550048 74.50530252456664 L 141.5 90.4 L 146.4 117.1 L 150.1223198890686 129.75588750839233 L 155.4 120.4 L 161.3 107.6 L 166.24899473190308 94.71393814086915 L 166.2 94.7 L 167.1 92.4 L 177.8 98.0 L 179.9 100.9 L 176.26358289718627 101.60176467895508 L 171.7 112.3 L 164.8 125.5 L 157.3 137.6 L 154.23788890838622 141.62132663726806 L 159.0 152.3 L 165.7 162.5 L 171.8 168.8 L 177.0 172.2 L 177.50055656433105 172.39758815765381 L 182.9 149.0 L 184.9 149.0 L 182.97446804046632 174.0319149017334 L 187.1 175.8 L 188.9 180.0 L 187.1 184.2 L 182.9 186.0 L 178.0 185.3 L 171.6 182.9 L 164.1 178.0 L 156.3 170.0 L 148.5 158.1 L 145.80783462524414 152.01496868133546 L 140.1 158.3 L 130.5 167.0 L 120.3 174.4 L 109.4 180.5 L 97.9 185.4 L 85.9 188.8 L 85.3 187.1 L 96.4 181.9 L 106.8 175.8 L 116.5 169.0 L 125.5 161.2 L 133.9 152.5 L 141.7 142.8 L 141.71854448318481 142.77205266952515 L 141.2 141.6 L 134.7 119.9 L 129.6 92.1 L 127.96269311904908 75.38983812332154 L 107.5 76.9 L 107.2 73.0 L 127.58115015029907 71.49585609436035 L 126.2 57.4 L 125.02823534011841 15.997647094726563 L 125.0 16.0 L 125.0 12.6 L 137.0 15.0 L 140.0 17.0 Z M 38.4 55.3 L 88.5 55.3 L 94.5 50.3 L 105.5 59.3 L 100.5 63.3 L 100.5 99.7 L 88.5 105.7 L 88.5 99.7 L 69.5 99.7 L 69.5 113.6 L 95.61818180084228 113.6 L 103.8 104.6 L 113.8 113.6 L 113.8 117.6 L 69.5 117.6 L 69.5 133.3 L 91.4 133.3 L 97.4 128.3 L 108.4 137.3 L 103.4 141.3 L 103.4 169.0 L 91.4 175.0 L 91.4 169.0 L 35.5 169.0 L 35.5 181.0 L 23.5 187.0 L 23.5 127.3 L 35.5 133.3 L 57.5 133.3 L 57.5 117.6 L 13.1 117.6 L 13.1 113.6 L 57.5 113.6 L 57.5 99.7 L 38.4 99.7 L 26.4 105.7 L 26.4 49.3 Z M 35.5 137.3 L 35.5 165.0 L 91.4 165.0 L 91.4 137.3 Z M 38.4 80.0 L 38.4 95.7 L 57.5 95.7 L 57.5 80.0 Z M 69.5 80.0 L 69.5 95.7 L 88.5 95.7 L 88.5 80.0 Z M 38.4 59.3 L 38.4 76.0 L 57.5 76.0 L 57.5 59.3 Z M 69.5 59.3 L 69.5 76.0 L 88.5 76.0 L 88.5 59.3 Z M 164.6 42.7 L 163.2 40.1 L 161.6 37.5 L 159.8 34.9 L 157.8 32.4 L 155.5 29.8 L 153.1 27.2 L 150.5 24.6 L 147.5 22.2 L 148.3 20.7 L 152.0 22.2 L 155.6 23.6 L 159.0 25.4 L 162.2 27.3 L 165.2 29.4 L 168.1 31.7 L 170.7 34.1 L 173.2 36.8 L 175.5 39.6 L 177.5 42.6 L 177.8 47.1 L 174.8 50.6 L 170.3 50.9 L 166.8 48.0 L 165.8 45.3 Z M 32.0 15.8 L 48.0 15.8 L 53.5 10.8 L 64.0 19.8 L 59.0 23.3 L 59.0 44.2 L 48.0 49.7 L 48.0 44.2 L 32.0 44.2 L 20.0 50.2 L 20.0 9.8 Z M 78.8 15.8 L 94.4 15.8 L 100.4 10.8 L 111.4 19.8 L 106.4 23.8 L 106.4 44.2 L 94.4 50.2 L 94.4 44.2 L 78.8 44.2 L 67.8 49.7 L 67.8 10.3 Z M 78.8 19.8 L 78.8 40.2 L 94.4 40.2 L 94.4 19.8 Z M 32.0 19.8 L 32.0 40.2 L 48.0 40.2 L 48.0 19.8 Z " />
</g>
</svg>
