<svg xmlns="http://www.w3.org/2000/svg" xmlns:xlink="http://www.w3.org/1999/xlink" version="1.1" baseProfile="full" viewBox="0 0 200 200" width="200" height="200">
<g fill="black">
<path d="M 127.12705764770507 17.723765468597414 L 128.29658794403076 52.0 L 167.0 52.0 L 177.0 42.0 L 189.0 52.0 L 189.0 56.0 L 128.76603775024415 56.0 L 132.1 83.9 L 137.7 109.7 L 144.191268825531 128.9856538772583 L 145.6 126.9 L 152.5 114.3 L 158.6 100.7 L 163.9 86.0 L 163.9333333015442 86.01111106872558 L 164.5 84.5 L 175.3 89.8 L 177.5 92.7 L 173.8206124305725 93.47460794448853 L 169.1 105.2 L 162.0 119.3 L 154.0 132.3 L 148.95062437057496 139.07075366973876 L 152.3 145.9 L 160.2 157.4 L 167.7 165.2 L 174.5 170.0 L 177.59921159744263 171.40341653823853 L 183.0 148.0 L 185.0 148.0 L 183.07446804046631 173.0319149017334 L 187.2 174.8 L 189.0 179.0 L 187.2 183.2 L 183.0 185.0 L 176.3 183.8 L 168.6 180.5 L 159.9 174.3 L 150.9 165.0 L 141.9 152.0 L 140.50076332092286 149.13489637374877 L 135.4 154.6 L 124.8 163.9 L 113.4 171.9 L 101.1 178.6 L 88.1 183.9 L 74.2 187.8 L 73.7 186.1 L 86.6 180.4 L 98.6 173.9 L 109.7 166.5 L 119.9 158.1 L 129.3 148.7 L 136.20836448669434 140.34569873809815 L 133.5 134.8 L 126.1 112.9 L 120.2 85.9 L 116.7465045928955 56.0 L 13.0 56.0 L 13.0 52.0 L 116.36410255432129 52.0 L 115.03579034805298 14.99701747894287 L 115.0 15.0 L 115.0 11.6 L 127.0 14.0 L 130.0 16.0 Z M 19.2 170.1 L 27.6 169.2 L 36.0 168.2 L 53.2 166.0 L 61.9 164.8 L 70.7 163.6 L 79.7 162.3 L 88.7 161.1 L 97.9 159.9 L 107.2 158.9 L 107.6 160.6 L 98.7 163.6 L 89.8 166.3 L 81.0 168.8 L 72.2 171.0 L 63.5 173.1 L 54.8 175.1 L 46.2 177.0 L 37.7 178.8 L 29.3 180.4 L 25.06105327606201 181.21714639663696 L 23.4 184.7 L 21.0 182.0 L 17.3 170.4 Z M 42.1 88.9 L 85.5 88.9 L 91.5 83.9 L 102.5 92.9 L 97.5 96.9 L 97.5 149.8 L 85.5 155.8 L 85.5 149.8 L 42.1 149.8 L 42.1 156.8 L 30.1 162.8 L 30.1 82.9 Z M 42.1 120.5 L 42.1 145.8 L 85.5 145.8 L 85.5 120.5 Z M 42.1 92.9 L 42.1 116.5 L 85.5 116.5 L 85.5 92.9 Z M 110.7 73.5 L 110.7 77.5 L 18.0 77.5 L 18.0 73.5 L 92.51818180084229 73.5 L 100.7 64.5 Z M 156.0 33.3 L 154.6 30.9 L 153.0 28.6 L 151.3 26.3 L 149.3 24.0 L 147.2 21.7 L 144.9 19.4 L 142.4 17.1 L 139.5 15.2 L 140.2 13.6 L 143.6 14.8 L 147.0 15.8 L 150.3 17.2 L 153.4 18.8 L 156.4 20.5 L 159.1 22.5 L 161.8 24.7 L 164.3 27.1 L 166.6 29.6 L 168.7 32.4 L 169.2 36.9 L 166.4 40.6 L 161.9 41.1 L 158.2 38.3 L 157.2 35.8 Z " />
</g>
</svg>
