<svg xmlns="http://www.w3.org/2000/svg" xmlns:xlink="http://www.w3.org/1999/xlink" version="1.1" baseProfile="full" viewBox="0 0 200 200" width="200" height="200">
<g fill="black">
<path d="M 96.02751626968384 20.78349018096924 L 96.2 44.5 L 97.1 69.5 L 97.15659446716309 70.34137134552002 L 98.97381820678712 70.00484848022461 L 107.0 58.3 L 120.6 66.0 L 121.3 69.9 L 97.42431106567383 74.32142391204835 L 98.6 91.8 L 100.56240806579589 110.20925655364991 L 101.9 104.6 L 104.70559310913086 91.60075197219848 L 104.7 91.6 L 105.3 88.8 L 116.6 93.2 L 119.1 95.8 L 115.63760871887207 96.99609880447387 L 113.0 107.4 L 109.1 120.6 L 104.9 132.8 L 104.47281551361084 133.8776699066162 L 106.5 143.0 L 110.3 154.6 L 114.4 163.4 L 115.7652892112732 165.3504132270813 L 120.0 147.0 L 122.0 147.0 L 121.18723402023315 157.5659574508667 L 123.0 155.3 L 125.2 152.2 L 126.3 150.68095235824586 L 126.3 149.1 L 127.14050636291503 149.52025318145752 L 129.4 146.4 L 131.5 143.7 L 133.5 141.0 L 135.4 138.3 L 137.2 135.7 L 139.0 133.2 L 140.059658908844 131.544282913208 L 140.0 131.5 L 140.37931032180785 131.0448275566101 L 140.6 130.7 L 140.6384778022766 130.73382663726807 L 141.0 130.3 L 149.7 138.7 L 150.6 142.1 L 146.51837158203125 141.38392486572266 L 144.9 142.8 L 139.7 147.0 L 137.0 149.1 L 134.2 151.2 L 132.6887324333191 152.29436616897584 L 137.3 154.6 L 146.1 154.6 L 150.1 149.6 L 157.4 156.9 L 157.4 150.6 L 165.4 154.6 L 174.3 154.6 L 178.27419357299806 150.98709678649902 L 177.6 149.7 L 176.4 147.6 L 175.0 145.6 L 173.5 143.5 L 171.9 141.4 L 170.2 139.3 L 168.4 137.2 L 166.4 135.0 L 164.2 133.2 L 165.1 131.7 L 167.8 132.9 L 168.6 133.18571424484253 L 168.6 127.9 L 143.0 127.9 L 131.0 133.9 L 131.0 66.2 L 143.0 72.2 L 146.9 72.2 L 147.3 68.4 L 147.6 66.6 L 147.8 64.8 L 148.31764707565307 60.4 L 122.9 60.4 L 122.9 56.4 L 173.9777777671814 56.4 L 180.2 49.4 L 188.2 56.4 L 188.2 60.4 L 160.0666666984558 60.4 L 160.0 60.5 L 157.8 63.5 L 156.6 65.0 L 155.5 66.4 L 151.6 70.6 L 150.2 71.9 L 149.85384616851806 72.2 L 168.6 72.2 L 174.6 67.2 L 185.6 76.2 L 180.6 80.2 L 180.6 127.9 L 169.4333333015442 133.48333330154418 L 170.6 133.9 L 173.4 135.1 L 176.0 136.5 L 178.5 137.9 L 180.9 139.5 L 183.3 141.2 L 185.5 143.1 L 187.6 145.0 L 189.6 147.1 L 190.5 151.6 L 188.1 155.4 L 186.85675678253173 155.64864864349366 L 190.3 158.6 L 185.3 162.1 L 185.3 184.8 L 174.3 190.3 L 174.3 182.8 L 165.4 182.8 L 165.4 185.8 L 157.4 189.8 L 157.4 159.2800000190735 L 154.1 160.6 L 154.1 184.8 L 146.1 188.8 L 146.1 182.8 L 137.3 182.8 L 137.3 185.8 L 126.3 191.3 L 126.3 156.5875 L 125.0 157.4 L 121.9 159.6 L 121.09285717010498 158.79285717010498 L 120.18134717941284 170.64248704910278 L 122.8 172.7 L 125.6 176.2 L 125.2 180.8 L 121.7 183.6 L 117.1 183.2 L 109.9 177.6 L 103.9 169.4 L 99.0 158.9 L 96.79832935333252 151.85465393066406 L 95.8 154.0 L 90.7 163.0 L 85.4 171.0 L 79.8 177.8 L 73.8 183.4 L 67.5 187.7 L 66.4 186.2 L 71.1 180.7 L 75.6 174.4 L 79.9 167.4 L 84.1 159.4 L 88.0 150.4 L 91.8 140.5 L 92.96470584869385 136.94117650985717 L 91.6 130.8 L 88.8 113.1 L 86.7 92.8 L 85.62335586547852 76.50678596496581 L 72.51569967269897 78.93412971496582 L 73.7 80.0 L 73.7 84.0 L 53.2 84.0 L 53.2 107.0 L 62.5 107.0 L 68.5 102.0 L 79.5 111.0 L 74.61403512954712 113.93157892227173 L 74.7 117.8 L 74.7 126.3 L 74.5 134.3 L 74.1 141.7 L 73.5 148.6 L 72.7 155.0 L 71.6 160.8 L 70.3 166.2 L 68.8 171.0 L 67.0 175.4 L 65.8 177.7 L 64.5 179.7 L 62.9 181.6 L 61.1 183.3 L 59.1 184.8 L 57.0 185.9 L 54.7 186.8 L 52.3 187.5 L 49.9 187.8 L 47.3 188.0 L 47.3 182.0 L 31.3 179.0 L 31.3 176.0 L 47.3 176.0 L 48.7 175.9 L 49.9 175.7 L 51.9 175.1 L 52.7 174.6 L 53.4 174.1 L 54.1 173.4 L 54.8 172.6 L 55.5 171.6 L 56.1 170.3 L 57.5 167.0 L 58.8 163.0 L 59.9 158.4 L 60.8 153.1 L 61.6 147.3 L 62.1 140.8 L 62.21999998092652 138.7 L 61.7 141.3 L 57.9 143.9 L 53.4 142.9 L 50.9 139.2 L 50.8 137.0 L 50.7 134.9 L 50.4 132.8 L 50.0 130.7 L 49.5 128.7 L 48.9 126.6 L 48.1 124.5 L 47.3 122.3 L 46.3 120.1 L 44.8 118.3 L 46.0 117.0 L 48.0 118.5 L 50.2 119.9 L 52.2 121.4 L 54.1 123.2 L 55.9 125.1 L 57.5 127.2 L 59.0 129.4 L 60.4 131.7 L 61.6 134.2 L 62.363681602478025 136.18557214736938 L 62.5 133.8 L 62.7 126.2 L 62.7 118.91666669845581 L 62.5 119.0 L 62.5 111.0 L 29.3 111.0 L 18.3 116.5 L 18.3 19.5 L 29.3 25.0 L 52.5 25.0 L 62.5 15.0 L 74.5 25.0 L 74.5 29.0 L 53.2 29.0 L 53.2 53.0 L 55.518181800842285 53.0 L 63.7 44.0 L 73.7 53.0 L 73.7 57.0 L 53.2 57.0 L 53.2 80.0 L 55.518181800842285 80.0 L 63.7 71.0 L 68.80238904953003 75.59215021133423 L 85.36029977798462 72.52587041854858 L 85.2 70.1 L 84.3 44.8 L 84.0107816696167 17.999101543426512 L 84.0 18.0 L 84.0 14.6 L 96.0 17.0 L 99.0 19.0 Z M 165.4 158.6 L 165.4 178.8 L 174.3 178.8 L 174.3 158.6 Z M 137.3 158.6 L 137.3 178.8 L 146.1 178.8 L 146.1 158.6 Z M 13.7 173.3 L 11.6 169.2 L 12.8 164.8 L 14.0 163.7 L 15.3 161.8 L 16.5 159.2 L 17.7 156.0 L 18.7 152.1 L 19.6 147.6 L 20.4 142.6 L 21.1 137.0 L 21.7 130.8 L 22.2 124.0 L 24.0 123.9 L 25.2 130.6 L 26.1 136.9 L 26.7 142.8 L 26.9 148.2 L 26.9 153.1 L 26.6 157.7 L 26.0 161.9 L 25.2 165.7 L 23.9 169.2 L 22.2 172.4 L 18.1 174.5 Z M 33.8 165.9 L 29.9 163.6 L 28.7 159.2 L 29.3 156.7 L 29.9 154.0 L 30.3 151.2 L 30.6 148.3 L 30.8 145.1 L 30.8 138.4 L 30.7 134.8 L 30.5 131.0 L 29.9 127.2 L 31.7 126.7 L 33.2 130.3 L 34.9 133.8 L 36.3 137.3 L 37.5 140.8 L 38.4 144.3 L 39.2 147.6 L 39.8 151.0 L 40.3 154.3 L 40.5 157.5 L 40.6 160.8 L 38.2 164.7 Z M 41.1 146.1 L 41.1 143.6 L 41.0 140.9 L 40.8 138.3 L 40.4 135.6 L 40.0 132.8 L 39.4 130.0 L 38.8 127.0 L 37.7 124.3 L 39.2 123.4 L 41.1 125.9 L 43.1 128.2 L 44.9 130.7 L 46.5 133.4 L 48.0 136.1 L 49.3 138.8 L 50.4 141.7 L 51.4 144.6 L 52.1 147.6 L 52.8 150.7 L 51.2 155.0 L 47.0 156.9 L 42.8 155.3 L 40.8 151.2 L 41.0 148.7 Z M 143.0 109.3 L 143.0 123.9 L 168.6 123.9 L 168.6 109.3 Z M 29.3 84.0 L 29.3 107.0 L 42.2 107.0 L 42.2 84.0 Z M 143.0 92.5 L 143.0 105.3 L 168.6 105.3 L 168.6 92.5 Z M 143.0 76.2 L 143.0 88.5 L 168.6 88.5 L 168.6 76.2 Z M 29.3 57.0 L 29.3 80.0 L 42.2 80.0 L 42.2 57.0 Z M 105.3 42.9 L 104.7 37.1 L 104.4 34.4 L 104.0 31.6 L 103.5 29.0 L 103.0 26.3 L 102.6 23.7 L 101.7 21.3 L 103.2 20.4 L 104.8 22.5 L 106.7 24.6 L 108.5 26.9 L 110.1 29.4 L 111.5 32.0 L 112.9 34.7 L 114.2 37.6 L 115.4 40.7 L 116.4 43.8 L 117.4 47.1 L 116.3 51.5 L 112.4 53.9 L 108.0 52.8 L 105.6 48.9 L 105.4 45.9 Z M 29.3 29.0 L 29.3 53.0 L 42.2 53.0 L 42.2 29.0 Z M 137.3 17.6 L 146.1 17.6 L 150.1 12.6 L 157.4 19.9 L 157.4 13.6 L 165.4 17.6 L 174.3 17.6 L 179.8 12.6 L 190.3 21.6 L 185.3 25.1 L 185.3 45.8 L 174.3 51.3 L 174.3 45.8 L 165.4 45.8 L 157.4 49.8 L 157.4 22.280000019073487 L 154.1 23.6 L 154.1 45.8 L 146.1 49.8 L 146.1 45.8 L 137.3 45.8 L 126.3 51.3 L 126.3 12.1 Z M 165.4 21.6 L 165.4 41.8 L 174.3 41.8 L 174.3 21.6 Z M 137.3 21.6 L 137.3 41.8 L 146.1 41.8 L 146.1 21.6 Z " />
</g>
</svg>
