<svg xmlns="http://www.w3.org/2000/svg" xmlns:xlink="http://www.w3.org/1999/xlink" version="1.1" baseProfile="full" viewBox="0 0 200 200" width="200" height="200">
<g fill="black">
<path d="M 56.2 122.3 L 57.5 125.7 L 52.89610891342163 125.30311279296875 L 51.4 126.5 L 48.6 128.3 L 45.7 129.9 L 42.5 131.3 L 39.1 132.5 L 35.4 133.5 L 31.6 134.4 L 29.0 134.7714285850525 L 29.0 154.0 L 43.7777777671814 154.0 L 50.0 147.0 L 58.0 154.0 L 58.0 158.0 L 29.0 158.0 L 29.0 178.0 L 98.0 178.0 L 98.0 158.0 L 68.0 158.0 L 68.0 154.0 L 98.0 154.0 L 98.0 135.0 L 79.0 135.0 L 79.0 131.0 L 98.0 131.0 L 104.0 126.0 L 115.0 135.0 L 110.0 139.0 L 110.0 184.0 L 98.0 190.0 L 98.0 182.0 L 29.0 182.0 L 29.0 185.0 L 17.0 191.0 L 17.0 128.0 L 26.17260274887085 132.5863013267517 L 26.6 132.4 L 30.1 130.4 L 33.2 128.4 L 36.1 126.5 L 38.6 124.6 L 40.9 122.6 L 42.8 120.7 L 44.3 118.8 L 45.6 117.0 L 46.05315980911255 116.09368028640748 L 45.9 116.0 L 46.45 115.3 L 46.5 115.2 L 46.518139362335205 115.21327724456788 L 47.0 114.6 Z M 146.60486707687377 18.73707981109619 L 147.6 54.2 L 149.1303855895996 71.3508734703064 L 169.53131589889526 67.78619480133057 L 177.7 56.2 L 191.2 64.0 L 191.9 67.9 L 149.48378953933715 75.31143465042115 L 150.5 86.7 L 154.8 112.9 L 156.68130912780762 120.04200706481933 L 158.4 114.8 L 162.2 101.7 L 165.6 87.5 L 165.62110004425048 87.50504961013795 L 166.0 85.8 L 177.3 90.3 L 179.7 93.0 L 176.20502681732177 94.08026447296143 L 173.1 104.8 L 168.6 118.2 L 163.7 130.7 L 161.1974596977234 136.08282260894777 L 166.0 149.0 L 171.9 160.1 L 177.5 167.5 L 181.32351350784302 170.9981081008911 L 186.4 149.0 L 188.4 149.0 L 186.47446804046632 174.0319149017334 L 190.6 175.8 L 192.4 180.0 L 190.6 184.2 L 186.4 186.0 L 181.0 184.8 L 175.1 181.5 L 168.6 175.6 L 161.8 166.6 L 155.1 153.9 L 153.77318019866942 150.3963665008545 L 152.6 152.5 L 146.5 161.8 L 139.9 170.1 L 132.9 177.2 L 125.5 183.1 L 117.7 187.7 L 116.7 186.2 L 123.0 180.2 L 129.0 173.5 L 134.7 166.0 L 140.1 157.7 L 145.2 148.4 L 149.49076776504518 139.08812103271484 L 148.7 137.0 L 143.1 115.3 L 138.6 88.2 L 137.6255352973938 77.38344144821167 L 117.5 80.9 L 116.8 77.0 L 137.268780708313 73.42346572875977 L 135.6 54.9 L 134.52750568389894 15.997707843780518 L 134.5 16.0 L 134.5 12.6 L 146.5 15.0 L 149.5 17.0 Z M 41.9 73.4 L 41.2 71.0 L 40.4 68.5 L 39.5 66.1 L 38.6 63.6 L 37.6 61.1 L 36.5 58.6 L 35.0 56.3 L 35.325 56.0 L 15.0 56.0 L 15.0 52.0 L 48.5 52.0 L 48.5 14.0 L 59.5 16.0 L 62.2 18.0 L 59.5 19.723404216766358 L 59.5 52.0 L 70.5 52.0 L 70.5 14.0 L 81.5 16.0 L 84.2 18.0 L 81.5 19.723404216766358 L 81.5 52.0 L 100.0 52.0 L 110.0 42.0 L 122.0 52.0 L 122.0 56.0 L 85.42830190658569 56.0 L 95.3 60.8 L 97.5 63.6 L 93.16707315444947 64.5882113456726 L 92.5 65.7 L 90.8 68.1 L 88.9 70.5 L 86.8 73.0 L 84.6 75.5 L 82.1 77.9 L 79.4 80.4 L 76.5 82.8 L 76.28518514633178 83.0 L 93.0 83.0 L 103.0 73.0 L 115.0 83.0 L 115.0 87.0 L 72.0 87.0 L 72.0 103.0 L 92.81818180084228 103.0 L 101.0 94.0 L 111.0 103.0 L 111.0 107.0 L 72.0 107.0 L 72.0 138.0 L 60.0 144.0 L 60.0 107.0 L 19.0 107.0 L 19.0 103.0 L 60.0 103.0 L 60.0 87.0 L 16.0 87.0 L 16.0 83.0 L 45.152941131591795 83.0 L 43.3 80.9 L 42.9 78.4 Z M 38.4 57.0 L 40.7 58.7 L 42.9 60.6 L 45.0 62.6 L 46.9 64.8 L 48.7 67.1 L 50.4 69.5 L 52.0 72.0 L 53.4 74.6 L 54.8 77.3 L 54.3 81.8 L 52.9 83.0 L 73.19090909957886 83.0 L 74.4 81.1 L 76.1 77.8 L 77.7 74.7 L 79.1 71.7 L 80.4 68.9 L 81.5 66.2 L 82.4 63.7 L 83.1 61.3 L 83.6 59.1 L 83.76556606292725 57.94103775024414 L 83.6 57.9 L 84.23333330154419 56.0 L 37.29473686218262 56.0 Z M 169.1 42.5 L 167.9 39.9 L 166.5 37.3 L 164.9 34.8 L 163.1 32.2 L 161.1 29.7 L 158.9 27.2 L 156.6 24.6 L 153.9 22.2 L 154.8 20.7 L 158.2 22.3 L 161.5 23.7 L 164.7 25.5 L 167.7 27.4 L 170.5 29.5 L 173.1 31.8 L 175.6 34.3 L 177.9 36.9 L 180.0 39.8 L 181.9 42.7 L 182.0 47.3 L 179.0 50.7 L 174.4 50.8 L 171.0 47.7 L 170.1 45.1 Z M 110.9 26.5 L 112.7 29.7 L 108.35867099761963 29.994327354431153 L 107.7 30.9 L 104.1 35.5 L 102.1 37.9 L 97.9 42.7 L 95.5 45.2 L 93.0 47.7 L 90.7 50.4 L 89.2 49.5 L 90.8 46.3 L 92.0 43.0 L 93.2 39.9 L 94.4 36.9 L 95.6 34.0 L 96.6 31.2 L 97.6 28.5 L 99.4 23.5 L 99.81262140274048 22.14424409866333 L 99.7 22.1 L 100.0222222328186 21.455555534362794 L 100.1 21.2 L 100.14014873504638 21.219702625274657 L 100.7 20.1 Z M 29.2 38.4 L 28.1 36.1 L 26.9 33.9 L 25.4 31.7 L 23.8 29.5 L 21.9 27.3 L 19.9 25.1 L 17.4 23.2 L 18.3 21.6 L 21.2 22.9 L 24.3 24.0 L 27.2 25.4 L 29.9 27.0 L 32.4 28.8 L 34.8 30.9 L 37.0 33.1 L 39.0 35.6 L 40.9 38.2 L 42.5 41.0 L 42.3 45.6 L 39.0 48.8 L 34.4 48.5 L 31.3 45.2 L 30.1 40.6 Z " />
</g>
</svg>
