<svg xmlns="http://www.w3.org/2000/svg" xmlns:xlink="http://www.w3.org/1999/xlink" version="1.1" baseProfile="full" viewBox="0 0 200 200" width="200" height="200">
<g fill="black">
<path d="M 138.50775051116943 18.7353497505188 L 139.6 56.6 L 140.96666765213013 70.59798984527588 L 166.74583854675294 68.65483627319335 L 176.0 57.9 L 188.7 67.0 L 189.0 70.9 L 141.34728469848633 74.49643135070801 L 142.9 90.4 L 147.7 117.1 L 151.27866916656495 129.47370367050172 L 156.2 120.4 L 162.0 107.7 L 167.1 93.8 L 167.16601753234863 93.8239532470703 L 167.7 92.4 L 178.4 97.9 L 180.6 100.8 L 176.85841035842896 101.57412195205688 L 172.4 112.2 L 165.7 125.5 L 158.3 137.5 L 155.33154010772705 141.53124179840088 L 160.0 152.4 L 166.5 162.5 L 172.5 168.8 L 177.5 172.2 L 177.9089054107666 172.36141004562378 L 183.3 149.0 L 185.3 149.0 L 183.3744680404663 174.0319149017334 L 187.5 175.8 L 189.3 180.0 L 187.5 184.2 L 183.3 186.0 L 178.4 185.3 L 172.1 182.9 L 164.8 178.0 L 157.1 169.9 L 149.4 158.0 L 146.8976396560669 152.2199001312256 L 141.5 158.3 L 132.1 166.9 L 122.1 174.3 L 111.4 180.5 L 100.1 185.3 L 88.3 188.8 L 87.7 187.1 L 98.6 181.9 L 108.7 175.9 L 114.06956520080567 172.0 L 32.2 172.0 L 32.2 184.0 L 20.2 190.0 L 20.2 17.0 L 32.2 23.0 L 87.1 23.0 L 97.1 13.0 L 109.1 23.0 L 109.1 27.0 L 32.2 27.0 L 32.2 168.0 L 92.4 168.0 L 102.4 158.0 L 114.4 168.0 L 114.4 171.76000003814698 L 118.2 169.0 L 127.0 161.3 L 135.2 152.6 L 142.8 142.9 L 142.83779420852662 142.84222888946533 L 142.3 141.6 L 136.0 119.9 L 131.0 92.1 L 129.36377182006837 75.40084743499756 L 109.5 76.9 L 109.1 73.0 L 128.98169145584106 71.50138006210327 L 127.6 57.4 L 126.4282353401184 15.997647094726563 L 126.4 16.0 L 126.4 12.6 L 138.4 15.0 L 141.4 17.0 Z M 88.5 142.7 L 86.6 138.1 L 84.5 133.8 L 82.4 129.8 L 80.2 126.0 L 77.9 122.4 L 75.5 119.1 L 73.65922193527221 116.67017288208008 L 71.8 123.6 L 68.9 131.2 L 65.3 138.1 L 61.0 144.3 L 56.0 149.8 L 50.3 154.5 L 44.0 158.3 L 37.0 161.2 L 36.2 159.6 L 41.9 155.2 L 46.8 150.4 L 51.1 145.4 L 54.8 140.0 L 57.8 134.1 L 60.3 127.8 L 62.1 121.0 L 63.4 113.6 L 64.1 105.7 L 64.134117603302 102.8 L 34.6 102.8 L 34.6 98.8 L 64.1811764717102 98.8 L 64.2 97.2 L 64.2 63.0 L 55.49827585220337 63.0 L 55.4 63.3 L 53.2 68.9 L 50.8 74.1 L 48.1 79.1 L 45.1 83.8 L 41.8 88.2 L 38.2 92.1 L 36.7 91.1 L 38.6 86.2 L 40.4 81.4 L 42.1 76.4 L 43.7 71.4 L 45.1 66.1 L 46.4 60.7 L 47.5 55.1 L 48.5 49.3 L 49.2 43.3 L 49.71102418899536 38.10458774566651 L 49.6 38.1 L 50.0 35.1 L 61.7 38.6 L 64.4 41.0 L 60.91776857376099 42.51115703582764 L 60.4 45.1 L 59.0 51.4 L 57.3 57.5 L 56.808620643615725 59.0 L 79.31818180084228 59.0 L 87.5 50.0 L 97.5 59.0 L 97.5 63.0 L 76.2 63.0 L 76.2 97.2 L 76.13370161056518 97.2994475364685 L 76.2 97.3 L 76.07234039306641 98.8 L 84.5 98.8 L 94.5 88.8 L 106.5 98.8 L 106.5 102.8 L 75.7319149017334 102.8 L 75.4 106.7 L 74.43597526550293 112.69072513580322 L 75.3 113.1 L 79.1 115.4 L 82.6 118.2 L 86.0 121.4 L 89.3 125.0 L 92.4 129.0 L 95.3 133.3 L 98.1 138.0 L 100.8 143.0 L 103.3 148.4 L 103.1 152.9 L 99.8 156.1 L 95.3 156.0 L 92.1 152.7 L 90.4 147.5 Z M 165.2 42.6 L 163.9 40.0 L 162.3 37.4 L 160.6 34.9 L 158.6 32.3 L 156.4 29.8 L 154.1 27.2 L 151.5 24.6 L 148.6 22.2 L 149.5 20.7 L 153.0 22.2 L 156.6 23.7 L 159.9 25.4 L 163.1 27.3 L 166.0 29.4 L 168.8 31.7 L 171.4 34.2 L 173.9 36.8 L 176.1 39.6 L 178.1 42.6 L 178.3 47.2 L 175.4 50.6 L 170.8 50.9 L 167.3 47.9 L 166.4 45.2 Z " />
</g>
</svg>
