<svg xmlns="http://www.w3.org/2000/svg" xmlns:xlink="http://www.w3.org/1999/xlink" version="1.1" baseProfile="full" viewBox="0 0 200 200" width="200" height="200">
<g fill="black">
<path d="M 137.51422843933105 18.731462955474854 L 138.6 54.2 L 140.3605423927307 71.48532562255859 L 167.13799743652345 67.3559434890747 L 175.5 55.9 L 188.9 64.0 L 189.5 67.9 L 140.7609004020691 75.41611261367798 L 141.9 86.6 L 146.8 112.7 L 149.53370685577391 122.04016513824463 L 152.4 114.6 L 156.7 101.5 L 160.3241271018982 88.30446043014527 L 160.3 88.3 L 160.5360655784607 87.53278684616089 L 160.6 87.3 L 160.60709047317505 87.30195598602295 L 161.1 85.7 L 172.2 90.5 L 174.5 93.2 L 171.00076007843018 94.19978284835815 L 167.5 105.0 L 162.4 118.4 L 156.9 130.9 L 154.09222536087037 136.23477172851562 L 159.4 148.7 L 166.1 159.8 L 172.4 167.2 L 177.8 171.6 L 178.0544973373413 171.7305114746094 L 183.3 149.0 L 185.3 149.0 L 183.3744680404663 174.0319149017334 L 187.5 175.8 L 189.3 180.0 L 187.5 184.2 L 183.3 186.0 L 177.7 184.9 L 171.3 181.7 L 164.0 175.8 L 156.3 166.9 L 148.7 154.2 L 146.60419578552245 149.28068180084227 L 144.5 152.7 L 137.5 162.0 L 130.2 170.2 L 122.4 177.3 L 114.1 183.2 L 105.4 187.7 L 104.5 186.2 L 111.8 180.1 L 118.7 173.4 L 125.3 165.9 L 131.5 157.5 L 137.3 148.2 L 142.20032787322998 138.94382514953614 L 141.5 137.3 L 135.1 115.5 L 130.0 88.3 L 128.8717264175415 77.24955587387085 L 105.2 80.9 L 104.6 77.0 L 128.47040004730223 73.31891813278199 L 126.6 55.0 L 125.42992515563965 15.997506237030029 L 125.4 16.0 L 125.4 12.6 L 137.4 15.0 L 140.4 17.0 Z M 69.0 109.0 L 79.0 109.0 L 80.2 108.9 L 81.1 108.7 L 82.0 108.4 L 82.4 108.0 L 82.7 107.1 L 82.9 106.2 L 83.0 105.0 L 83.0 73.0 L 62.0 73.0 L 62.0 122.15 L 62.3 121.7 L 65.9 123.3 L 69.6 125.0 L 73.2 127.0 L 76.7 129.2 L 80.1 131.5 L 83.5 134.1 L 86.9 136.8 L 90.2 139.6 L 93.4 142.6 L 96.6 145.8 L 97.9 150.2 L 95.9 154.2 L 91.5 155.6 L 87.4 153.5 L 85.0 150.1 L 82.5 146.8 L 79.9 143.6 L 77.3 140.5 L 74.7 137.5 L 72.1 134.6 L 69.4 131.7 L 66.8 128.8 L 64.1 126.0 L 62.0 123.9 L 62.0 183.0 L 50.0 189.0 L 50.0 128.4680850982666 L 48.2 131.8 L 43.3 140.0 L 38.3 147.5 L 33.0 154.5 L 27.5 160.8 L 21.8 166.5 L 15.8 171.5 L 9.5 175.6 L 8.4 174.3 L 13.2 168.7 L 17.8 162.9 L 22.4 156.6 L 26.8 150.0 L 31.1 142.9 L 35.3 135.3 L 39.3 127.2 L 43.1 118.6 L 46.8 109.5 L 50.0 100.63142852783203 L 50.0 73.0 L 29.0 73.0 L 29.0 117.0 L 17.0 123.0 L 17.0 63.0 L 29.0 69.0 L 50.0 69.0 L 50.0 43.0 L 12.0 43.0 L 12.0 39.0 L 50.0 39.0 L 50.0 12.0 L 62.0 14.0 L 65.0 16.0 L 62.0 17.8 L 62.0 39.0 L 81.0 39.0 L 91.0 29.0 L 103.0 39.0 L 103.0 43.0 L 62.0 43.0 L 62.0 69.0 L 83.0 69.0 L 89.0 64.0 L 100.0 73.0 L 95.0 77.0 L 95.0 105.0 L 94.8 107.5 L 94.4 110.0 L 93.6 112.4 L 92.3 114.7 L 90.7 116.7 L 88.7 118.3 L 86.4 119.6 L 84.0 120.4 L 81.5 120.8 L 79.0 121.0 L 79.0 115.0 L 69.0 112.0 Z M 164.5 42.8 L 163.0 40.2 L 161.3 37.6 L 159.4 35.0 L 157.3 32.4 L 155.0 29.8 L 152.4 27.3 L 149.7 24.6 L 146.5 22.2 L 147.4 20.6 L 151.1 22.1 L 154.9 23.6 L 158.4 25.3 L 161.7 27.2 L 164.8 29.3 L 167.7 31.6 L 170.5 34.1 L 173.0 36.7 L 175.3 39.5 L 177.5 42.5 L 177.8 47.1 L 174.9 50.6 L 170.3 50.9 L 166.8 48.1 L 165.7 45.4 Z " />
</g>
</svg>
