<svg xmlns="http://www.w3.org/2000/svg" xmlns:xlink="http://www.w3.org/1999/xlink" version="1.1" baseProfile="full" viewBox="0 0 200 200" width="200" height="200">
<g fill="black">
<path d="M 140.3 182.0 L 125.5 179.0 L 112.2 175.3 L 100.47666864395141 170.82923803329467 L 92.0 174.3 L 78.6 178.7 L 64.4 182.3 L 49.4 185.1 L 33.6 186.9 L 17.0 187.8 L 16.9 186.0 L 33.1 183.1 L 48.4 179.8 L 62.8 176.0 L 76.3 171.5 L 88.9 166.4 L 90.21746072769164 165.75816020965576 L 90.1 165.7 L 81.5 159.7 L 74.6 153.1 L 69.5 145.7 L 66.5 137.8 L 66.74285717010498 137.7 L 45.0 137.7 L 45.0 133.7 L 136.5 133.7 L 138.6 131.6 L 139.02893886566162 132.00921754837037 L 143.0 128.7 L 154.0 137.7 L 149.0 140.7 L 144.20654544830322 142.69727268218995 L 137.9 148.4 L 127.6 156.1 L 116.6 163.0 L 113.03659887313843 164.8266173362732 L 115.0 165.4 L 127.8 168.2 L 142.1 170.3 L 157.9 171.9 L 175.3 172.9 L 186.5 173.5 L 174.6 186.0 L 156.7 184.4 Z M 68.64761905670166 137.7 L 72.9 143.4 L 78.7 148.9 L 85.7 153.9 L 94.0 158.3 L 100.38887214660645 160.8028571128845 L 100.6 160.7 L 111.4 154.4 L 121.3 147.4 L 130.4 139.8 L 132.5 137.7 Z M 167.7 125.5 L 159.4 121.4 L 150.5 115.1 L 141.6 106.4 L 140.87554235458373 105.41985139846801 L 134.1 109.8 L 123.4 115.3 L 112.0 120.2 L 99.8 124.2 L 86.9 127.5 L 73.1 129.8 L 72.8 128.1 L 85.8 123.8 L 98.0 119.2 L 109.4 114.1 L 119.9 108.6 L 129.6 102.6 L 135.5132866859436 98.16503496170044 L 133.1 94.9 L 125.7 80.4 L 119.8 62.6 L 119.22076091766357 59.2498062133789 L 19.1 68.9 L 18.8 65.0 L 118.55259714126586 55.38529186248779 L 116.1 41.2 L 114.94726266860962 16.89645528793335 L 114.9 16.9 L 114.91815433502197 16.28275337219238 L 114.9 15.9 L 114.92940454483032 15.900244998931885 L 115.0 13.5 L 126.9 16.0 L 129.9 18.0 L 127.07019548416137 19.697882747650148 L 128.0 39.9 L 130.53317575454713 54.23053731918335 L 162.9052152633667 51.110340690612794 L 171.9 40.2 L 184.8 49.0 L 185.1 52.9 L 131.21604642868041 58.093634033203124 L 131.5 59.7 L 136.7 75.8 L 143.3 88.6 L 144.66391620635986 90.44969453811646 L 146.3 89.0 L 153.5 81.4 L 159.8 73.3 L 164.9333333015442 65.27333335876465 L 165.8 63.8 L 175.5 71.0 L 177.0 74.2 L 173.20434780120848 74.2 L 168.9 80.2 L 161.4 88.6 L 153.1 96.4 L 150.51675758361816 98.38710956573486 L 150.6 98.5 L 158.2 105.9 L 165.6 111.1 L 172.3 114.4 L 175.5700777053833 115.52966318130493 L 181.0 92.0 L 183.0 92.0 L 181.08168420791625 116.93810529708863 L 181.4 117.0 L 185.5 119.1 L 186.9 123.4 L 184.8 127.5 L 180.5 128.9 L 174.8 127.9 Z M 81.5 107.2 L 78.2 103.8 L 73.9 100.3 L 72.14919509887696 99.19764137268066 L 68.0 102.9 L 60.3 108.4 L 51.4 113.7 L 41.3 118.7 L 29.9 123.4 L 17.3 127.8 L 16.6 126.1 L 28.3 120.0 L 38.8 114.0 L 48.0 108.1 L 55.8 102.3 L 62.4 96.5 L 64.18690567016601 94.54127655029296 L 62.1 93.4 L 54.7 90.1 L 46.3 86.8 L 37.0 83.4 L 26.7 80.0 L 27.1 78.3 L 37.9 79.8 L 47.8 81.6 L 56.9 83.9 L 65.0 86.4 L 69.46284494400024 88.17291097640991 L 71.5 85.3 L 74.1 79.9 L 75.6 74.8 L 75.9 69.8 L 75.92939014434815 69.80073471069336 L 76.0 67.4 L 87.9 70.1 L 90.9 72.2 L 87.14587564468384 74.3346981048584 L 86.6 77.4 L 83.9 84.4 L 79.8 90.9 L 78.5994888305664 92.30437154769898 L 78.8 92.4 L 84.4 95.9 L 89.2 99.7 L 93.2 104.0 L 96.3 108.8 L 96.3 113.4 L 93.1 116.7 L 88.6 116.7 L 85.3 113.6 L 83.9 110.5 Z M 78.5 46.7 L 75.4 44.3 L 71.4 41.8 L 71.06859731674194 41.62372198104858 L 64.4 45.3 L 56.1 49.2 L 47.2 52.5 L 37.8 55.3 L 27.7 57.4 L 17.1 58.8 L 16.8 57.1 L 26.8 53.7 L 36.1 50.2 L 44.8 46.4 L 52.8 42.3 L 60.2 38.0 L 61.55022659301758 37.05282611846924 L 61.2 36.9 L 54.9 34.5 L 47.9 32.1 L 40.2 29.6 L 31.8 27.0 L 32.1 25.2 L 41.0 25.9 L 49.2 26.9 L 56.7 28.2 L 63.6 29.7 L 69.36388683319092 31.280420589447022 L 73.0 28.3 L 78.4 23.0 L 83.2 17.3 L 87.20681819915771 11.709090900421142 L 87.9 10.6 L 97.3 18.2 L 98.6 21.6 L 94.69889612197876 21.330958366394043 L 91.9 24.7 L 85.9 30.6 L 80.07277488708496 35.4560209274292 L 80.4 35.6 L 84.8 38.0 L 88.7 40.8 L 92.0 44.0 L 93.0 48.4 L 90.8 52.4 L 86.3 53.4 L 82.4 51.2 L 80.8 49.0 Z M 160.5 30.7 L 159.2 29.2 L 157.7 27.6 L 155.9 26.0 L 153.9 24.4 L 151.7 22.7 L 149.3 21.1 L 146.6 19.4 L 143.7 18.1 L 144.2 16.4 L 147.4 17.0 L 150.7 17.4 L 153.7 17.9 L 156.7 18.6 L 159.5 19.4 L 162.1 20.4 L 164.6 21.5 L 167.0 22.7 L 169.3 24.1 L 171.4 25.7 L 172.9 30.0 L 171.0 34.2 L 166.6 35.7 L 162.5 33.7 L 161.6 32.3 Z " />
</g>
</svg>
