<svg xmlns="http://www.w3.org/2000/svg" xmlns:xlink="http://www.w3.org/1999/xlink" version="1.1" baseProfile="full" viewBox="0 0 200 200" width="200" height="200">
<g fill="black">
<path d="M 136.10584955215455 17.73649024963379 L 137.0 49.3 L 138.02409238815306 60.0 L 169.8181818008423 60.0 L 178.0 51.0 L 188.0 60.0 L 188.0 64.0 L 138.40693073272706 64.0 L 139.9 79.6 L 144.2 105.0 L 149.6 125.9 L 150.71722927093506 128.95864400863647 L 150.8 128.8 L 156.1 116.1 L 160.8 102.4 L 164.62549543380737 88.40428495407104 L 164.6 88.4 L 165.3 85.7 L 176.5 90.4 L 178.9 93.1 L 175.30107049942018 94.19253215789794 L 171.6 105.9 L 166.0 120.2 L 159.7 133.3 L 155.12190809249878 141.01735496520996 L 155.7 142.6 L 162.1 155.3 L 168.4 164.5 L 174.1 170.4 L 175.80758924484252 171.5004464149475 L 181.0 149.0 L 183.0 149.0 L 181.07446804046631 174.0319149017334 L 185.2 175.8 L 187.0 180.0 L 185.2 184.2 L 181.0 186.0 L 173.7 184.2 L 166.4 179.6 L 159.1 172.1 L 151.8 161.4 L 147.32093238830566 152.50495023727416 L 145.0 155.7 L 136.6 165.1 L 127.5 173.1 L 117.7 179.8 L 107.3 185.0 L 96.3 188.8 L 95.6 187.1 L 105.6 181.7 L 114.7 175.4 L 123.2 168.1 L 131.1 159.9 L 138.3 150.6 L 143.10210151672362 142.99051609039307 L 138.1 129.5 L 132.5 107.5 L 128.0 81.2 L 126.34083604812622 64.0 L 12.0 64.0 L 12.0 60.0 L 125.95498390197754 60.0 L 125.0 50.1 L 124.0276370048523 14.997696876525879 L 124.0 15.0 L 124.0 11.6 L 136.0 14.0 L 139.0 16.0 Z M 108.7 138.4 L 110.7 138.4 L 108.7 159.4 L 112.0 161.6 L 114.2 164.9 L 112.0 168.2 L 108.7 170.4 L 38.9 170.4 L 36.4 170.3 L 34.0 169.9 L 31.6 169.2 L 29.4 168.0 L 27.4 166.4 L 25.7 164.5 L 24.5 162.3 L 23.6 159.9 L 23.1 157.4 L 22.9 154.9 L 22.9 103.8 L 34.9 109.8 L 91.4 109.8 L 97.4 104.8 L 108.4 113.8 L 103.4 117.8 L 103.4 141.8 L 91.4 147.8 L 91.4 137.8 L 34.9 137.8 L 34.9 154.9 L 35.0 156.1 L 35.1 157.0 L 35.2 157.7 L 35.5 158.3 L 35.7 158.5 L 36.1 158.8 L 36.7 159.0 L 37.7 159.3 L 38.9 159.4 L 103.2 159.4 Z M 34.9 113.8 L 34.9 133.8 L 57.5 133.8 L 57.5 113.8 Z M 69.5 113.8 L 69.5 133.8 L 91.4 133.8 L 91.4 113.8 Z M 45.3 76.2 L 81.6 76.2 L 87.6 71.2 L 98.6 80.2 L 93.6 84.2 L 93.6 99.4 L 81.6 105.4 L 81.6 99.4 L 45.3 99.4 L 33.3 105.4 L 33.3 70.2 Z M 45.3 80.2 L 45.3 95.4 L 81.6 95.4 L 81.6 80.2 Z M 45.1 23.4 L 83.4 23.4 L 89.4 18.4 L 100.4 27.4 L 95.4 31.4 L 95.4 48.7 L 83.4 54.7 L 83.4 48.7 L 45.1 48.7 L 33.1 54.7 L 33.1 17.4 Z M 161.3 38.6 L 160.1 36.3 L 158.6 34.0 L 157.0 31.7 L 155.1 29.4 L 153.0 27.1 L 150.8 24.7 L 148.3 22.3 L 145.4 20.2 L 146.3 18.6 L 149.6 20.0 L 153.0 21.2 L 156.3 22.7 L 159.3 24.3 L 162.2 26.1 L 164.8 28.1 L 167.4 30.2 L 169.7 32.4 L 171.9 34.9 L 173.8 37.5 L 174.2 42.0 L 171.4 45.6 L 166.8 46.0 L 163.2 43.1 L 162.4 40.9 Z M 45.1 27.4 L 45.1 44.7 L 83.4 44.7 L 83.4 27.4 Z " />
</g>
</svg>
