<svg xmlns="http://www.w3.org/2000/svg" xmlns:xlink="http://www.w3.org/1999/xlink" version="1.1" baseProfile="full" viewBox="0 0 200 200" width="200" height="200">
<g fill="black">
<path d="M 90.5 177.7 L 83.6 171.4 L 77.2 164.5 L 71.3 157.1 L 65.9 149.2 L 61.0 140.8 L 56.6 131.8 L 52.9 122.3 L 50.13762378692627 113.0 L 39.5 113.0 L 39.5 166.91132078170776 L 40.6 166.6 L 45.9 165.2 L 51.3 163.7 L 56.8 162.4 L 62.3 161.2 L 68.0 160.1 L 68.6 161.8 L 63.7 164.7 L 58.6 167.4 L 53.6 169.9 L 48.5 172.3 L 43.5 174.6 L 38.4 176.8 L 28.4 181.2 L 23.4 183.3 L 22.260390853881837 183.76514654159547 L 21.3 187.5 L 18.5 185.3 L 12.6 174.6 L 14.5 174.0 L 19.7 172.5 L 24.8 171.0 L 27.5 170.27307691574097 L 27.5 113.0 L 11.5 113.0 L 11.5 109.0 L 89.8 109.0 L 99.8 99.0 L 111.8 109.0 L 111.8 113.0 L 52.39333333969116 113.0 L 56.7 120.6 L 61.8 129.0 L 67.2 137.0 L 72.7 144.4 L 74.82528800964356 146.84948453903198 L 75.3 146.0 L 78.7 139.2 L 81.9 132.6 L 83.4 129.3 L 84.8 126.0 L 86.1 122.8 L 87.4 119.5 L 88.2547945022583 117.22054796218872 L 88.2 117.2 L 89.1 115.1 L 99.4 121.4 L 101.3 124.5 L 97.19022645950318 124.92514896392822 L 95.4 127.7 L 93.2 130.8 L 90.9 133.8 L 88.5 136.8 L 86.0 139.7 L 83.4 142.5 L 80.6 145.3 L 76.5957501411438 148.89001712799072 L 78.6 151.2 L 84.7 157.5 L 91.1 163.2 L 97.8 168.4 L 104.8 173.1 L 112.2 177.2 L 116.9 179.9 L 105.7 188.7 L 97.9 183.5 Z M 143.60486707687377 18.73707981109619 L 144.6 54.2 L 146.1375340461731 71.37796640396118 L 167.3025990486145 67.7432788848877 L 175.5 56.2 L 189.1 64.0 L 189.7 67.9 L 146.49040670394896 75.32040567398072 L 147.5 86.6 L 151.9 112.8 L 153.88354330062867 120.36685037612915 L 155.8 114.8 L 159.6 101.6 L 162.84979934692382 88.50795116424561 L 162.8 88.5 L 163.5 85.8 L 174.7 90.4 L 177.2 93.0 L 173.6251428604126 94.08522453308106 L 170.5 104.8 L 165.9 118.3 L 160.9 130.7 L 158.3437870025635 136.0964496612549 L 163.3 148.9 L 169.3 160.1 L 174.9 167.5 L 179.00240001678466 171.08959999084473 L 184.1 149.0 L 186.1 149.0 L 184.1744680404663 174.0319149017334 L 188.3 175.8 L 190.1 180.0 L 188.3 184.2 L 184.1 186.0 L 178.7 184.8 L 172.7 181.5 L 166.1 175.6 L 159.2 166.6 L 152.4 154.0 L 150.9565149307251 150.24693880081176 L 149.7 152.5 L 143.4 161.9 L 136.8 170.1 L 129.7 177.2 L 122.1 183.1 L 114.2 187.7 L 113.2 186.2 L 119.7 180.2 L 125.8 173.5 L 131.6 166.0 L 137.1 157.6 L 142.3 148.4 L 146.65329236984252 139.05856018066407 L 145.9 137.1 L 140.2 115.3 L 135.6 88.2 L 134.62327518463135 77.35835437774658 L 114.0 80.9 L 113.4 77.0 L 134.26813554763794 73.41630430221558 L 132.6 54.9 L 131.52750568389894 15.997707843780518 L 131.5 16.0 L 131.5 12.6 L 143.5 15.0 L 146.5 17.0 Z M 35.6 93.8 L 23.6 99.8 L 23.6 17.1 L 35.6 23.1 L 90.0 23.1 L 96.0 18.1 L 107.0 27.1 L 102.0 31.1 L 102.0 92.8 L 90.0 98.8 L 90.0 90.8 L 35.6 90.8 Z M 35.6 58.4 L 35.6 86.8 L 56.8 86.8 L 56.8 58.4 Z M 68.8 58.4 L 68.8 86.8 L 90.0 86.8 L 90.0 58.4 Z M 35.6 27.1 L 35.6 54.4 L 56.8 54.4 L 56.8 27.1 Z M 68.8 27.1 L 68.8 54.4 L 90.0 54.4 L 90.0 27.1 Z M 166.6 42.5 L 165.4 39.9 L 163.9 37.4 L 162.3 34.8 L 160.5 32.3 L 158.4 29.7 L 156.2 27.2 L 153.8 24.6 L 151.1 22.2 L 152.0 20.7 L 155.4 22.3 L 158.8 23.7 L 162.0 25.4 L 165.0 27.4 L 167.9 29.5 L 170.6 31.8 L 173.1 34.3 L 175.4 36.9 L 177.5 39.7 L 179.5 42.7 L 179.6 47.3 L 176.6 50.7 L 172.0 50.8 L 168.6 47.8 L 167.7 45.1 Z " />
</g>
</svg>
