<svg xmlns="http://www.w3.org/2000/svg" xmlns:xlink="http://www.w3.org/1999/xlink" version="1.1" baseProfile="full" viewBox="0 0 200 200" width="200" height="200">
<g fill="black">
<path d="M 37.2 128.1 L 78.8 128.1 L 84.8 123.1 L 95.8 132.1 L 90.8 136.1 L 90.8 176.3 L 78.8 182.3 L 78.8 176.3 L 37.2 176.3 L 37.2 183.3 L 25.2 189.3 L 25.2 122.1 Z M 133.10775051116943 18.7353497505188 L 134.2 56.6 L 135.6536512374878 70.63811731338501 L 165.79025335311889 68.5355637550354 L 175.1 57.8 L 187.8 67.0 L 188.1 70.9 L 136.05675249099733 74.53092422485352 L 137.7 90.4 L 142.9 117.0 L 147.11769618988038 130.4439064979553 L 153.1 120.3 L 159.4 107.5 L 164.63098840713502 94.60934991836548 L 164.6 94.6 L 165.5 92.3 L 176.2 98.1 L 178.2 101.0 L 174.59428071975708 101.63258228302001 L 169.7 112.4 L 162.4 125.6 L 154.5 137.7 L 151.3239441871643 141.67919635772705 L 156.3 152.2 L 163.3 162.3 L 169.8 168.7 L 175.3 172.1 L 176.56497459411622 172.55177669525148 L 182.0 149.0 L 184.0 149.0 L 182.07446804046631 174.0319149017334 L 186.2 175.8 L 188.0 180.0 L 186.2 184.2 L 182.0 186.0 L 176.9 185.3 L 170.2 183.0 L 162.4 178.1 L 154.1 170.1 L 145.9 158.2 L 142.82702770233155 151.69948177337648 L 136.4 158.4 L 126.3 167.0 L 115.5 174.4 L 104.0 180.6 L 91.9 185.4 L 79.2 188.8 L 78.7 187.1 L 90.5 181.9 L 101.5 175.8 L 111.8 169.0 L 121.4 161.2 L 130.4 152.4 L 138.58250856399536 142.72069110870362 L 138.1 141.7 L 131.3 120.0 L 125.9 92.1 L 124.16335754394531 75.36069602966309 L 102.1 76.9 L 101.8 73.0 L 123.75949831008911 71.46794195175171 L 122.3 57.4 L 121.03058223724365 15.997451496124267 L 121.0 16.0 L 121.0 12.6 L 133.0 15.0 L 136.0 17.0 Z M 37.2 153.2 L 37.2 172.3 L 78.8 172.3 L 78.8 153.2 Z M 37.2 132.1 L 37.2 149.2 L 78.8 149.2 L 78.8 132.1 Z M 16.5 81.2 L 52.5 81.2 L 52.5 64.5 L 64.5 66.5 L 67.5 68.5 L 64.5 70.3 L 64.5 81.2 L 77.4 81.2 L 87.4 71.2 L 99.4 81.2 L 99.4 85.2 L 77.52631578445434 85.2 L 87.1 90.3 L 89.2 93.2 L 84.66858682632446 94.05940589904785 L 84.3 94.6 L 82.6 96.8 L 80.8 99.2 L 78.7 101.7 L 76.4 104.4 L 73.9 107.2 L 71.1 110.0 L 68.0 113.0 L 67.27272729873657 113.8 L 85.11818180084228 113.8 L 93.3 104.8 L 103.3 113.8 L 103.3 117.8 L 12.6 117.8 L 12.6 113.8 L 64.44615383148194 113.8 L 65.8 111.4 L 67.6 107.6 L 69.3 104.0 L 70.8 100.7 L 72.2 97.7 L 73.3 94.8 L 74.3 92.2 L 75.0 89.9 L 75.6 87.8 L 75.72277088165283 87.06337451934814 L 75.5 87.0 L 76.175 85.2 L 16.5 85.2 Z M 38.1 104.1 L 37.8 102.0 L 37.4 99.8 L 36.8 97.7 L 36.1 95.6 L 35.2 93.4 L 34.2 91.3 L 33.0 89.1 L 31.3 87.2 L 32.5 85.8 L 34.6 87.3 L 37.0 88.7 L 39.2 90.2 L 41.3 92.0 L 43.1 94.0 L 44.9 96.1 L 46.5 98.4 L 47.9 100.9 L 49.1 103.5 L 50.1 106.3 L 49.1 110.8 L 45.4 113.3 L 40.9 112.3 L 38.4 108.5 L 38.3 106.3 Z M 12.6 56.5 L 29.9 56.5 L 29.9 20.0 L 41.9 22.0 L 44.9 24.0 L 41.9 25.8 L 41.9 56.5 L 55.5 56.5 L 55.5 9.1 L 67.5 11.1 L 70.5 13.1 L 67.5 14.9 L 67.5 30.7 L 84.31818180084228 30.7 L 92.5 21.7 L 102.5 30.7 L 102.5 34.7 L 67.5 34.7 L 67.5 56.5 L 88.3 56.5 L 98.3 46.5 L 110.3 56.5 L 110.3 60.5 L 12.6 60.5 Z M 162.9 42.8 L 161.3 40.2 L 159.6 37.6 L 157.7 35.0 L 155.5 32.4 L 153.1 29.9 L 150.4 27.3 L 147.6 24.6 L 144.4 22.2 L 145.3 20.6 L 152.9 23.6 L 156.4 25.3 L 159.8 27.2 L 163.0 29.3 L 166.0 31.6 L 168.7 34.0 L 171.3 36.7 L 173.7 39.5 L 175.8 42.5 L 176.2 47.0 L 173.4 50.6 L 168.8 51.0 L 165.2 48.1 L 164.2 45.5 Z " />
</g>
</svg>
