<svg xmlns="http://www.w3.org/2000/svg" xmlns:xlink="http://www.w3.org/1999/xlink" version="1.1" baseProfile="full" viewBox="0 0 200 200" width="200" height="200">
<g fill="black">
<path d="M 93.23602485656738 109.25838508605958 L 93.8 118.0 L 96.3 129.0 L 96.76104497909546 130.09076499938965 L 160.9315570831299 128.23523206710814 L 170.6 117.9 L 182.9 127.6 L 183.0 131.6 L 98.43255949020386 134.04532356262206 L 100.4 138.7 L 106.2 147.3 L 113.6 154.8 L 115.61616258621216 156.22446269989013 L 117.4 155.4 L 128.5 149.5 L 139.0 143.1 L 147.81644639968872 136.91939840316772 L 147.8 136.9 L 147.81682205200195 136.91913509368896 L 148.7 136.3 L 154.44189624786378 144.45515699386596 L 155.8 146.0 L 155.9 149.6 L 152.39475240707398 148.10702419281006 L 144.9 152.8 L 133.6 158.9 L 125.55696201324463 162.6534176826477 L 133.8 166.7 L 146.8 171.1 L 161.7 174.3 L 172.40654201507567 175.6383177757263 L 178.0 151.4 L 180.0 151.4 L 178.08095235824584 176.34761905670166 L 178.5 176.4 L 182.5 178.6 L 183.9 182.9 L 181.8 186.9 L 177.4 188.4 L 159.7 186.2 L 143.6 182.6 L 129.3 177.8 L 116.7 171.6 L 112.06796188354492 168.3278263092041 L 108.9 169.6 L 95.6 174.1 L 81.6 178.0 L 67.0 181.4 L 51.7 184.1 L 35.7 186.2 L 19.1 187.6 L 18.8 185.8 L 35.1 182.5 L 50.6 178.9 L 65.4 175.0 L 79.5 170.7 L 92.9 166.0 L 103.5955979347229 161.6708293914795 L 96.9 154.9 L 89.9 144.4 L 85.6688117980957 134.41439580917358 L 17.0 136.4 L 16.9 132.4 L 84.39958248138427 130.4482048034668 L 81.9 119.7 L 81.06349210739135 106.59470901489257 L 81.0 106.6 L 81.0 103.2 L 93.0 105.6 L 96.0 107.6 Z M 133.3 121.4 L 131.6 119.9 L 129.6 118.3 L 127.3 116.7 L 124.7 115.0 L 121.9 113.3 L 118.8 111.5 L 115.4 109.7 L 111.7 108.2 L 112.2 106.4 L 116.2 107.1 L 120.1 107.6 L 123.8 108.2 L 127.2 108.9 L 130.5 109.7 L 133.5 110.6 L 136.3 111.7 L 139.0 112.8 L 141.5 114.0 L 143.8 115.5 L 145.7 119.6 L 144.2 123.9 L 140.0 125.8 L 135.7 124.3 L 134.6 122.9 Z M 138.4 95.7 L 158.4 95.7 L 159.7 95.6 L 160.6 95.5 L 161.2 95.3 L 161.5 95.1 L 161.8 94.8 L 162.0 94.4 L 162.2 93.8 L 162.4 92.9 L 162.4 14.7 L 174.4 16.7 L 177.4 18.7 L 174.4 20.5 L 174.4 91.7 L 174.3 94.2 L 173.8 96.7 L 173.0 99.1 L 171.8 101.4 L 170.2 103.4 L 168.1 105.1 L 165.9 106.3 L 163.5 107.1 L 161.0 107.5 L 158.4 107.7 L 158.4 101.7 L 138.4 98.7 Z M 91.2 71.1 L 88.8 69.7 L 86.1 68.3 L 83.2 66.8 L 80.1 65.4 L 76.7 63.9 L 73.0 62.4 L 69.1 60.8 L 67.6 60.33571424484253 L 67.6 100.7 L 55.6 106.7 L 55.6 61.21999998092652 L 52.7 64.7 L 48.3 69.2 L 43.5 73.5 L 38.3 77.5 L 32.7 81.3 L 26.6 84.8 L 20.2 87.9 L 13.2 90.6 L 12.4 89.0 L 18.2 84.6 L 23.7 80.3 L 28.7 76.0 L 33.4 71.7 L 37.6 67.3 L 41.5 62.9 L 44.9 58.4 L 47.8 53.8 L 50.4 49.2 L 50.44285717010498 49.1 L 12.8 49.1 L 12.8 45.1 L 55.6 45.1 L 55.6 30.43913040161133 L 47.0 31.0 L 37.1 31.5 L 26.6 31.9 L 15.3 32.0 L 15.2 30.2 L 26.2 28.1 L 36.5 26.2 L 46.2 24.5 L 55.2 22.9 L 63.5 21.3 L 71.2 19.8 L 78.1 18.4 L 84.3 16.9 L 89.9 15.5 L 93.72096319198609 14.465155792236327 L 93.7 14.4 L 93.7644865989685 14.453368186950684 L 94.7 14.2 L 94.99311475753784 15.470163917541504 L 105.3 24.0 L 105.6 27.0 L 101.289590549469 24.964528846740723 L 97.4 25.9 L 92.1 26.7 L 86.2 27.5 L 79.7 28.3 L 72.5 29.0 L 67.6 29.43974361419678 L 67.6 45.1 L 84.8 45.1 L 94.8 35.1 L 106.8 45.1 L 106.8 49.1 L 67.6 49.1 L 67.6 57.86363639831543 L 69.6 58.0 L 73.9 58.1 L 78.0 58.4 L 81.9 58.8 L 85.5 59.4 L 89.0 60.0 L 92.3 60.8 L 95.4 61.6 L 98.3 62.5 L 101.0 63.6 L 103.8 67.2 L 103.3 71.8 L 99.6 74.5 L 95.1 74.0 L 93.3 72.6 Z M 132.4 24.4 L 135.4 26.4 L 132.4 28.2 L 132.4 83.2 L 120.4 89.2 L 120.4 22.4 Z " />
</g>
</svg>
