<svg xmlns="http://www.w3.org/2000/svg" xmlns:xlink="http://www.w3.org/1999/xlink" version="1.1" baseProfile="full" viewBox="0 0 200 200" width="200" height="200">
<g fill="black">
<path d="M 145.9 181.8 L 132.2 177.2 L 120.0 171.2 L 114.56670989990235 167.40694837570192 L 108.4 169.8 L 94.3 174.4 L 79.7 178.4 L 64.4 181.8 L 48.6 184.5 L 32.1 186.6 L 15.1 187.8 L 14.8 186.1 L 31.5 182.8 L 47.6 179.3 L 62.9 175.4 L 77.6 171.1 L 91.7 166.3 L 105.0 161.1 L 106.12310810089112 160.59592790603637 L 100.4 155.0 L 93.0 144.8 L 87.3 133.2 L 86.62440948486328 131.0 L 33.0 131.0 L 33.0 127.0 L 85.39606294631957 127.0 L 83.4 120.5 L 81.26237516403198 107.48837070465088 L 81.2 107.5 L 81.10784978866577 106.54778156280517 L 81.1 106.5 L 81.1031946182251 106.49967784881592 L 80.9 104.4 L 93.0 105.3 L 96.2 107.0 L 93.58372621536255 108.94828901290893 L 95.0 117.8 L 97.92727270126343 127.0 L 145.0 127.0 L 155.0 117.0 L 167.0 127.0 L 167.0 131.0 L 99.57755098342895 131.0 L 103.3 138.6 L 109.5 147.2 L 117.0 154.6 L 117.96268014907837 155.26647090911865 L 129.7 149.3 L 141.1 142.6 L 151.8 135.5 L 155.81999998092653 141.5 L 159.1 145.1 L 159.2 148.6 L 155.72877922058106 147.14839859008788 L 146.9 152.4 L 134.6 158.8 L 127.96513757705688 161.8064220428467 L 136.8 166.1 L 149.0 170.2 L 162.9 173.2 L 172.39178342819213 174.3022716522217 L 178.0 150.0 L 180.0 150.0 L 178.07978353500366 174.96281356811522 L 178.4 175.0 L 182.4 177.1 L 183.9 181.4 L 181.8 185.4 L 177.5 186.9 L 161.0 185.0 Z M 129.8 120.5 L 128.6 119.0 L 127.0 117.4 L 125.2 115.7 L 123.0 114.0 L 120.6 112.3 L 117.9 110.5 L 115.0 108.6 L 111.6 107.1 L 112.2 105.4 L 115.8 106.2 L 119.4 106.7 L 122.7 107.4 L 125.8 108.2 L 128.8 109.2 L 131.5 110.2 L 134.1 111.4 L 136.5 112.7 L 138.7 114.2 L 140.8 115.9 L 142.0 120.3 L 139.8 124.3 L 135.4 125.5 L 131.4 123.4 L 130.7 122.0 Z M 155.4 106.3 L 146.5 102.6 L 138.2 98.5 L 130.3 94.0 L 123.0 89.0 L 122.95184803009033 88.96047229766846 L 123.1 89.8 L 114.7 92.6 L 106.4 95.1 L 98.4 97.3 L 90.6 99.4 L 83.0 101.3 L 75.7 103.2 L 68.7 104.9 L 61.9 106.6 L 55.3 108.2 L 53.07191009521485 108.73049755096436 L 51.6 112.2 L 49.0 109.7 L 44.9 98.2 L 46.8 97.9 L 53.2 97.0 L 59.8 96.0 L 66.8 95.1 L 67.0 95.06901407241821 L 67.0 65.0 L 43.38202247619629 65.0 L 41.8 73.8 L 39.8 82.2 L 37.3 90.2 L 34.2 97.7 L 30.7 104.8 L 26.6 111.3 L 21.9 117.2 L 16.6 122.5 L 15.3 121.4 L 18.8 115.1 L 21.9 108.6 L 24.7 101.9 L 27.1 95.0 L 29.1 87.7 L 30.7 80.1 L 31.9 72.1 L 32.7 63.8 L 33.0 55.1 L 33.0 17.0 L 45.0 23.0 L 152.0 23.0 L 162.0 13.0 L 174.0 23.0 L 174.0 27.0 L 45.0 27.0 L 45.0 46.0 L 44.4 55.6 L 43.81935482025146 61.0 L 160.0 61.0 L 170.0 51.0 L 182.0 61.0 L 182.0 65.0 L 103.60192308425903 65.0 L 107.6 68.3 L 114.0 73.2 L 120.6 77.8 L 127.6 82.0 L 130.23942890167237 83.37394933700561 L 131.7 82.3 L 138.5 77.7 L 141.7 75.5 L 144.8 73.4 L 147.8 71.3 L 153.4 67.3 L 155.18946571350097 65.92348794937134 L 155.1 65.8 L 155.20659399032593 65.9103123664856 L 156.0 65.3 L 158.28508977890016 69.09619760513306 L 163.7 74.7 L 163.9 78.1 L 160.08962020874023 76.52329111099243 L 159.0 77.0 L 155.8 78.5 L 152.4 79.9 L 148.9 81.3 L 145.3 82.6 L 141.6 84.0 L 137.7 85.2 L 135.29766759872436 85.98075799942016 L 142.6 89.3 L 150.7 92.4 L 159.1 95.1 L 168.1 97.5 L 177.4 99.5 L 186.3 101.5 L 174.5 112.4 L 164.7 109.6 Z M 79.0 65.0 L 79.0 93.31999998092651 L 81.4 93.0 L 89.1 91.9 L 97.1 90.8 L 105.3 89.8 L 113.9 88.9 L 121.99210090637207 88.1726201057434 L 116.3 83.5 L 110.1 77.6 L 104.6 71.2 L 100.37681159973144 65.0 Z M 163.0 42.0 L 163.0 46.0 L 57.0 46.0 L 57.0 42.0 L 144.8181818008423 42.0 L 153.0 33.0 Z " />
</g>
</svg>
