<svg xmlns="http://www.w3.org/2000/svg" xmlns:xlink="http://www.w3.org/1999/xlink" version="1.1" baseProfile="full" viewBox="0 0 200 200" width="200" height="200">
<g fill="black">
<path d="M 36.83152170181275 116.4 L 36.6 123.5 L 35.9 132.2 L 34.6 140.3 L 32.9 147.8 L 30.8 154.8 L 28.1 161.1 L 25.0 166.8 L 21.3 171.9 L 17.2 176.1 L 12.6 179.5 L 11.3 178.1 L 14.3 173.6 L 16.9 168.9 L 19.1 163.8 L 21.1 158.3 L 22.6 152.4 L 23.8 145.9 L 24.7 138.9 L 25.2 131.3 L 25.2 123.2 L 25.041860485076903 116.4 L 12.0 116.4 L 12.0 112.4 L 48.5 112.4 L 48.5 86.0 L 32.0 86.0 L 32.0 98.0 L 20.0 104.0 L 20.0 36.9 L 32.0 38.9 L 35.0 40.9 L 32.0 42.7 L 32.0 82.0 L 48.5 82.0 L 48.5 40.8 L 59.5 46.3 L 143.09586210250853 46.3 L 142.9068929672241 18.899483013153077 L 142.9 18.9 L 142.9055866241455 18.710055828094482 L 142.9 17.9 L 142.92940454483033 17.900244998931885 L 143.0 15.5 L 154.9 18.0 L 157.9 20.0 L 154.92646236419677 21.78412256240845 L 155.09790210723878 46.3 L 166.0 46.3 L 175.75714282989503 36.54285717010498 L 175.1 36.5 L 172.0 33.1 L 171.9 31.6 L 171.6 30.1 L 171.1 28.5 L 170.4 26.8 L 169.5 25.0 L 168.3 23.2 L 166.9 21.4 L 165.3 19.4 L 163.4 17.4 L 161.1 15.9 L 161.9 14.3 L 164.6 15.4 L 167.3 16.3 L 169.9 17.3 L 172.3 18.5 L 174.6 19.9 L 176.7 21.4 L 178.7 23.0 L 180.4 24.9 L 182.0 26.9 L 183.4 29.2 L 183.0 33.7 L 179.7 36.8 L 176.33679246902466 36.580660343170166 L 188.0 46.3 L 188.0 50.3 L 155.24285717010497 50.3 L 156.1 72.5 L 157.9 95.5 L 160.5 115.7 L 162.05061950683594 123.87599382400512 L 163.4 119.4 L 167.0 104.4 L 170.2 88.0 L 172.7487332344055 71.10284280776978 L 172.7 71.1 L 173.2 68.1 L 184.7 71.8 L 187.4 74.2 L 184.00657682418824 75.64534692764282 L 181.4 90.1 L 177.5 106.9 L 173.0 122.3 L 168.1 136.2 L 165.96798782348634 140.9589557647705 L 167.8 147.6 L 172.5 159.1 L 177.7 167.6 L 182.12865228652953 172.10917329788208 L 187.0 151.0 L 189.0 151.0 L 187.12516469955443 175.37285900115967 L 188.8 176.3 L 192.3 179.3 L 192.6 183.8 L 189.6 187.3 L 185.1 187.6 L 175.9 182.7 L 168.2 174.9 L 161.8 164.4 L 158.40776891708373 156.0794331550598 L 156.4 159.7 L 149.8 169.2 L 142.5 177.1 L 134.7 183.3 L 126.4 187.7 L 125.5 186.2 L 132.3 180.3 L 138.6 173.4 L 144.4 165.3 L 149.8 155.9 L 154.76961946487427 145.2650143623352 L 152.1 135.8 L 148.6 117.6 L 146.0 96.7 L 144.2 73.2 L 143.2422053337097 50.3 L 59.5 50.3 L 59.5 131.0 L 58.9 140.0 L 57.7 148.5 L 55.8 156.2 L 53.3 163.3 L 50.2 169.7 L 46.4 175.3 L 42.0 180.1 L 36.9 184.1 L 31.3 187.1 L 25.3 189.1 L 24.6 187.6 L 29.6 184.1 L 33.8 180.3 L 37.5 176.1 L 40.6 171.4 L 43.2 166.2 L 45.3 160.4 L 46.9 154.0 L 47.9 147.0 L 48.5 139.3 L 48.5 116.4 Z M 82.1 119.7 L 122.3 119.7 L 128.3 114.7 L 139.3 123.7 L 134.3 127.7 L 134.3 161.8 L 122.3 167.8 L 122.3 159.8 L 82.1 159.8 L 82.1 171.8 L 71.1 177.3 L 71.1 114.2 Z M 82.1 141.2 L 82.1 155.8 L 122.3 155.8 L 122.3 141.2 Z M 82.1 123.7 L 82.1 137.2 L 122.3 137.2 L 122.3 123.7 Z M 88.9 67.2 L 116.0 67.2 L 122.0 62.2 L 133.0 71.2 L 128.0 75.2 L 128.0 105.6 L 116.0 111.6 L 116.0 105.6 L 88.9 105.6 L 76.9 111.6 L 76.9 61.2 Z M 88.9 87.9 L 88.9 101.6 L 116.0 101.6 L 116.0 87.9 Z M 88.9 71.2 L 88.9 83.9 L 116.0 83.9 L 116.0 71.2 Z " />
</g>
</svg>
