<svg xmlns="http://www.w3.org/2000/svg" xmlns:xlink="http://www.w3.org/1999/xlink" version="1.1" baseProfile="full" viewBox="0 0 200 200" width="200" height="200">
<g fill="black">
<path d="M 144.9954773902893 18.74271354675293 L 145.9 54.2 L 147.43078966140746 71.35540180206299 L 167.59606647491455 67.81285314559936 L 175.7 56.2 L 189.3 64.0 L 190.0 67.9 L 147.7842224121094 75.31628522872924 L 148.8 86.7 L 153.1 112.9 L 154.94293594360352 120.02833700180054 L 156.7 114.8 L 160.4 101.7 L 163.55844659805297 88.50884065628051 L 163.5 88.5 L 164.2 85.8 L 175.4 90.3 L 177.9 93.0 L 174.33012256622314 94.08371276855469 L 171.3 104.8 L 166.8 118.2 L 161.9 130.7 L 159.40694274902344 136.0624249458313 L 164.3 149.0 L 170.2 160.1 L 175.7 167.5 L 179.4268225669861 170.98376893997192 L 184.5 149.0 L 186.5 149.0 L 184.57446804046631 174.0319149017334 L 188.7 175.8 L 190.5 180.0 L 188.7 184.2 L 184.5 186.0 L 179.1 184.8 L 173.2 181.5 L 166.8 175.5 L 160.0 166.5 L 153.3 153.9 L 152.01781282424926 150.46048192977906 L 150.9 152.5 L 144.8 161.8 L 138.3 170.1 L 131.3 177.2 L 123.9 183.1 L 116.2 187.7 L 115.2 186.2 L 121.5 180.2 L 127.4 173.5 L 133.1 166.0 L 138.5 157.7 L 143.5 148.4 L 147.78393764495848 139.1029438018799 L 147.0 137.0 L 141.4 115.3 L 136.9 88.2 L 135.95891122817994 77.39370479583741 L 116.0 80.9 L 115.3 77.0 L 135.61384143829346 73.43135213851929 L 134.0 54.9 L 132.92750568389891 15.997707843780518 L 132.9 16.0 L 132.9 12.6 L 144.9 15.0 L 147.9 17.0 Z M 12.6 175.4 L 60.0 175.4 L 60.0 150.4 L 20.7 150.4 L 20.7 146.4 L 60.0 146.4 L 60.0 126.2 L 72.0 128.2 L 75.0 130.2 L 72.0 132.0 L 72.0 146.4 L 89.2 146.4 L 99.2 136.4 L 111.2 146.4 L 111.2 150.4 L 72.0 150.4 L 72.0 175.4 L 97.3 175.4 L 107.3 165.4 L 119.3 175.4 L 119.3 179.4 L 12.6 179.4 Z M 35.4 130.5 L 23.4 136.5 L 23.4 65.4 L 35.4 71.4 L 96.5 71.4 L 102.5 66.4 L 113.5 75.4 L 108.5 79.4 L 108.5 124.5 L 96.5 130.5 L 96.5 118.5 L 35.4 118.5 Z M 35.4 96.6 L 35.4 114.5 L 60.0 114.5 L 60.0 96.6 Z M 72.0 96.6 L 72.0 114.5 L 96.5 114.5 L 96.5 96.6 Z M 35.4 75.4 L 35.4 92.6 L 60.0 92.6 L 60.0 75.4 Z M 72.0 75.4 L 72.0 92.6 L 96.5 92.6 L 96.5 75.4 Z M 96.1 54.0 L 95.1 52.0 L 94.0 50.0 L 92.7 47.9 L 91.3 45.8 L 89.8 43.7 L 88.2 41.5 L 86.1 39.7 L 86.59756097793579 38.95365858078003 L 86.4 39.1 L 85.2 37.7 L 87.4 35.3 L 89.1 32.6 L 90.8 30.0 L 92.4 27.6 L 93.9 25.2 L 95.2 22.9 L 96.5 20.7 L 98.6 16.5 L 99.04767799377441 15.380804920196534 L 98.9 15.3 L 99.9 13.7 L 109.5 21.1 L 110.9 24.4 L 106.35666666030883 24.243333339691162 L 105.8 24.8 L 103.8 26.6 L 101.7 28.4 L 97.1 32.0 L 94.6 33.8 L 91.9 35.5 L 89.1 37.1 L 87.39328022003174 38.36423692703247 L 89.6 39.6 L 92.2 40.7 L 94.7 42.0 L 97.1 43.4 L 99.4 44.9 L 101.5 46.6 L 103.5 48.4 L 105.5 50.3 L 107.3 52.3 L 108.9 54.4 L 109.3 59.0 L 106.4 62.5 L 101.8 62.9 L 98.3 60.0 L 97.7 58.0 Z M 64.5 54.0 L 63.5 52.0 L 62.3 50.0 L 61.1 47.9 L 59.7 45.8 L 58.2 43.7 L 56.5 41.5 L 54.5 39.7 L 55.00526313781738 38.942105293273926 L 54.8 39.1 L 53.6 37.7 L 55.7 35.3 L 57.5 32.6 L 59.2 30.0 L 60.8 27.6 L 62.3 25.2 L 63.6 22.9 L 64.9 20.7 L 67.0 16.5 L 67.44767799377442 15.380804920196534 L 67.3 15.3 L 68.3 13.7 L 77.9 21.1 L 79.3 24.4 L 74.75409832000733 24.245901679992677 L 74.2 24.8 L 72.2 26.6 L 70.1 28.4 L 67.8 30.2 L 65.4 32.0 L 62.9 33.8 L 60.3 35.5 L 57.4 37.1 L 55.77199077606201 38.35231485366821 L 58.0 39.6 L 60.6 40.7 L 63.1 42.0 L 65.5 43.4 L 67.7 44.9 L 69.9 46.6 L 71.9 48.4 L 73.8 50.3 L 75.6 52.3 L 77.3 54.4 L 77.7 59.0 L 74.8 62.5 L 70.2 62.9 L 66.7 60.0 L 66.1 58.0 Z M 32.8 54.0 L 31.8 52.0 L 30.7 50.0 L 28.1 45.8 L 26.5 43.7 L 24.9 41.5 L 22.9 39.7 L 23.495121955871582 38.807317066192624 L 23.1 39.1 L 22.0 37.7 L 24.1 35.3 L 25.9 32.6 L 27.6 30.0 L 29.2 27.6 L 30.6 25.2 L 32.0 22.9 L 34.4 18.5 L 35.812128162384035 15.361937427520752 L 35.7 15.3 L 36.7 13.7 L 46.2 21.1 L 47.7 24.4 L 43.15409832000732 24.245901679992677 L 42.6 24.8 L 40.6 26.6 L 36.2 30.2 L 33.8 32.0 L 31.3 33.8 L 28.7 35.5 L 25.8 37.1 L 24.13216781616211 38.33543119430542 L 26.3 39.6 L 29.0 40.7 L 31.5 42.0 L 33.9 43.4 L 36.1 44.9 L 38.3 46.6 L 40.3 48.4 L 42.2 50.3 L 44.0 52.3 L 45.7 54.4 L 46.0 59.0 L 43.2 62.5 L 38.6 62.9 L 35.1 60.0 L 33.7 56.0 Z M 167.3 42.5 L 166.0 39.9 L 164.6 37.3 L 163.1 34.8 L 161.3 32.2 L 159.3 29.7 L 157.2 27.2 L 154.9 24.5 L 152.2 22.2 L 153.1 20.7 L 156.4 22.3 L 159.8 23.8 L 162.9 25.5 L 165.9 27.4 L 168.7 29.5 L 171.3 31.8 L 173.8 34.3 L 176.1 37.0 L 178.2 39.8 L 180.1 42.7 L 180.2 47.3 L 177.1 50.7 L 172.5 50.8 L 169.2 47.7 L 168.3 45.1 Z " />
</g>
</svg>
