<svg xmlns="http://www.w3.org/2000/svg" xmlns:xlink="http://www.w3.org/1999/xlink" version="1.1" baseProfile="full" viewBox="0 0 200 200" width="200" height="200">
<g fill="black">
<path d="M 36.4 74.3 L 86.5 74.3 L 92.5 69.3 L 103.5 78.3 L 98.5 82.3 L 98.5 130.7 L 86.5 136.7 L 86.5 128.7 L 67.5 128.7 L 67.5 148.5 L 89.8 148.5 L 99.8 138.5 L 111.8 148.5 L 111.8 152.5 L 67.5 152.5 L 67.5 183.2 L 55.5 189.2 L 55.5 152.5 L 11.1 152.5 L 11.1 148.5 L 55.5 148.5 L 55.5 128.7 L 36.4 128.7 L 36.4 131.7 L 24.4 137.7 L 24.4 68.3 Z M 147.07258834838868 56.75644702911377 L 147.4 73.7 L 148.6 92.5 L 148.62964897155763 92.74756889343261 L 162.83870649337769 91.27130317687988 L 171.8 80.3 L 184.7 89.0 L 185.2 92.9 L 149.09711961746217 96.65094861984252 L 150.6 109.2 L 153.4 123.9 L 154.76144580841066 128.8012047767639 L 155.6 127.5 L 160.6 117.9 L 164.61365690231324 108.50439395904542 L 164.6 108.5 L 164.85806455612183 107.93225803375245 L 165.0 107.6 L 165.00764989852905 107.6031702041626 L 165.6 106.3 L 176.1 112.2 L 178.1 115.1 L 174.40632848739625 115.68321132659912 L 170.8 123.1 L 164.7 133.2 L 158.76304817199707 141.20197858810425 L 161.1 147.1 L 166.0 155.5 L 171.4 161.9 L 176.88683910369872 166.15703039169313 L 182.0 144.0 L 184.0 144.0 L 182.11162786483766 168.548837184906 L 183.6 169.2 L 187.2 172.1 L 187.7 176.6 L 184.8 180.2 L 180.3 180.7 L 171.1 176.7 L 163.0 170.6 L 156.1 162.3 L 150.3 152.3 L 149.8900924682617 151.2837707519531 L 141.9 158.6 L 132.9 165.3 L 123.3 171.1 L 112.9 176.0 L 101.9 179.9 L 90.2 182.8 L 89.7 181.1 L 100.5 176.4 L 110.6 171.2 L 119.9 165.5 L 128.4 159.2 L 136.3 152.3 L 143.4 144.7 L 145.927977848053 141.46102838516236 L 145.5 140.4 L 141.7 126.6 L 138.7 111.0 L 137.11842107772827 97.89548873901367 L 108.2 100.9 L 107.7 97.0 L 136.6473684310913 93.99248123168945 L 136.6 93.6 L 135.4 74.2 L 135.0188383102417 53.99843015670776 L 135.0 54.0 L 135.0 50.6 L 147.0 53.0 L 150.0 55.0 Z M 36.4 103.5 L 36.4 124.7 L 55.5 124.7 L 55.5 103.5 Z M 67.5 103.5 L 67.5 124.7 L 86.5 124.7 L 86.5 103.5 Z M 36.4 78.3 L 36.4 99.5 L 55.5 99.5 L 55.5 78.3 Z M 67.5 78.3 L 67.5 99.5 L 86.5 99.5 L 86.5 78.3 Z M 158.5 73.8 L 158.0 71.7 L 157.4 69.5 L 156.0 65.1 L 155.1 62.9 L 154.3 60.6 L 153.3 58.3 L 152.0 56.3 L 153.3 55.1 L 155.1 56.8 L 157.3 58.3 L 159.3 59.9 L 161.2 61.7 L 163.0 63.5 L 164.7 65.5 L 166.3 67.5 L 167.8 69.6 L 169.3 71.8 L 170.6 74.1 L 170.3 78.7 L 167.0 81.8 L 162.4 81.5 L 159.3 78.1 L 158.9 76.0 Z M 139.8 17.4 L 142.3 20.0 L 138.61994981765747 21.117158126831054 L 137.8 23.7 L 135.6 29.8 L 133.1 35.7 L 130.4 41.4 L 130.2888889312744 41.6 L 163.0 41.6 L 173.0 31.6 L 185.0 41.6 L 185.0 45.6 L 128.0666666984558 45.6 L 127.4 46.8 L 124.2 52.0 L 120.8 56.9 L 117.1 61.6 L 113.0 65.9 L 108.6 69.8 L 107.2 68.7 L 110.0 63.6 L 112.6 58.6 L 115.2 53.5 L 117.6 48.4 L 119.8 43.1 L 121.9 37.7 L 123.7 32.1 L 125.4 26.4 L 126.9 20.5 L 128.2 14.5 L 128.22105264663696 14.505263137817384 L 128.6 12.8 Z M 30.0 22.3 L 46.0 22.3 L 51.5 17.3 L 62.0 26.3 L 57.0 29.8 L 57.0 59.6 L 46.0 65.1 L 46.0 57.6 L 30.0 57.6 L 30.0 60.6 L 18.0 66.6 L 18.0 16.3 Z M 76.8 22.3 L 92.4 22.3 L 98.4 17.3 L 109.4 26.3 L 104.4 30.3 L 104.4 57.6 L 92.4 63.6 L 92.4 57.6 L 76.8 57.6 L 76.8 60.6 L 65.8 66.1 L 65.8 16.8 Z M 76.8 26.3 L 76.8 53.6 L 92.4 53.6 L 92.4 26.3 Z M 30.0 26.3 L 30.0 53.6 L 46.0 53.6 L 46.0 26.3 Z " />
</g>
</svg>
