<svg xmlns="http://www.w3.org/2000/svg" xmlns:xlink="http://www.w3.org/1999/xlink" version="1.1" baseProfile="full" viewBox="0 0 200 200" width="200" height="200">
<g fill="black">
<path d="M 33.5 28.0 L 90.5 28.0 L 96.0 23.0 L 106.5 32.0 L 101.5 35.5 L 101.5 172.0 L 101.3 174.4 L 101.0 176.7 L 100.3 179.0 L 99.3 181.1 L 97.9 183.1 L 96.1 184.7 L 94.1 186.0 L 91.9 186.8 L 89.6 187.3 L 87.2 187.5 L 87.2 182.0 L 71.8 179.2 L 71.8 176.5 L 87.2 176.5 L 88.2 176.4 L 88.8 176.3 L 89.2 176.1 L 89.5 176.0 L 89.6 175.8 L 89.8 175.6 L 90.0 175.1 L 90.2 174.4 L 90.4 173.3 L 90.5 172.0 L 90.5 32.0 L 33.5 32.0 L 33.5 123.0 L 33.0 130.3 L 32.4 137.4 L 31.4 144.4 L 30.2 151.2 L 28.8 157.9 L 27.0 164.4 L 25.0 170.7 L 22.6 176.8 L 19.9 182.7 L 16.7 188.3 L 15.2 187.6 L 16.6 181.5 L 19.2 169.1 L 20.2 162.9 L 21.1 156.5 L 21.8 150.0 L 22.3 143.4 L 22.6 136.7 L 22.6 129.9 L 22.5 123.0 L 22.5 22.5 Z M 141.10486707687377 18.73707981109619 L 142.1 54.2 L 143.74743595123292 71.41836299896241 L 166.9656373977661 67.5782024383545 L 175.2 56.1 L 188.6 64.0 L 189.3 67.9 L 144.12478170394897 75.36223430633545 L 145.2 86.6 L 149.8 112.8 L 152.03477163314818 120.98086042404175 L 154.3 114.7 L 158.2 101.6 L 161.6377820968628 88.40634994506836 L 161.6 88.4 L 162.3 85.7 L 173.5 90.4 L 175.9 93.1 L 172.35404233932496 94.17645139694214 L 169.1 104.9 L 164.4 118.3 L 159.2 130.8 L 156.55024042129517 136.19415340423583 L 161.6 148.9 L 167.8 160.0 L 173.7 167.4 L 178.33414630889894 171.38536586761475 L 183.5 149.0 L 185.5 149.0 L 183.57446804046631 174.0319149017334 L 187.7 175.8 L 189.5 180.0 L 187.7 184.2 L 183.5 186.0 L 178.0 184.8 L 171.9 181.6 L 165.0 175.7 L 157.9 166.7 L 150.7 154.0 L 149.07822542190553 149.90925512313842 L 147.5 152.6 L 141.0 161.9 L 134.1 170.2 L 126.8 177.3 L 119.0 183.1 L 110.8 187.7 L 109.8 186.2 L 116.6 180.2 L 123.0 173.4 L 129.1 165.9 L 134.8 157.6 L 140.2 148.3 L 144.7557445526123 139.0062810897827 L 144.0 137.1 L 138.0 115.4 L 133.3 88.2 L 132.25476036071777 77.32297477722167 L 110.6 80.9 L 110.0 77.0 L 131.8760313987732 73.381826877594 L 130.1 54.9 L 129.02750568389894 15.997707843780518 L 129.0 16.0 L 129.0 12.6 L 141.0 15.0 L 144.0 17.0 Z M 53.5 113.0 L 69.5 113.0 L 75.0 108.0 L 85.5 117.0 L 80.5 120.5 L 80.5 158.0 L 69.5 163.5 L 69.5 152.0 L 53.5 152.0 L 53.5 164.0 L 42.5 169.5 L 42.5 107.5 Z M 53.5 117.0 L 53.5 148.0 L 69.5 148.0 L 69.5 117.0 Z M 38.0 91.0 L 54.0 91.0 L 54.0 67.0 L 39.0 67.0 L 39.0 63.0 L 54.0 63.0 L 54.0 40.0 L 66.0 42.0 L 69.0 44.0 L 66.0 45.8 L 66.0 63.0 L 71.77777776718139 63.0 L 78.0 56.0 L 86.0 63.0 L 86.0 67.0 L 66.0 67.0 L 66.0 91.0 L 68.81818180084228 91.0 L 77.0 82.0 L 87.0 91.0 L 87.0 95.0 L 38.0 95.0 Z M 165.5 42.6 L 164.2 40.0 L 162.7 37.4 L 160.9 34.9 L 159.0 32.3 L 156.9 29.8 L 154.5 27.2 L 152.0 24.6 L 149.1 22.2 L 150.0 20.7 L 153.5 22.2 L 157.1 23.7 L 160.4 25.4 L 163.5 27.3 L 166.5 29.4 L 169.2 31.7 L 171.8 34.2 L 174.2 36.8 L 176.4 39.7 L 178.4 42.6 L 178.6 47.2 L 175.6 50.6 L 171.1 50.9 L 167.6 47.9 L 166.7 45.2 Z " />
</g>
</svg>
