<svg xmlns="http://www.w3.org/2000/svg" xmlns:xlink="http://www.w3.org/1999/xlink" version="1.1" baseProfile="full" viewBox="0 0 200 200" width="200" height="200">
<g fill="black">
<path d="M 130.7 183.7 L 112.3 182.6 L 97.2 180.8 L 85.0 178.1 L 75.1 174.6 L 67.2 170.3 L 61.1 165.3 L 56.4 159.6 L 54.27821521759033 155.8868766784668 L 52.0 158.1 L 48.4 161.5 L 44.9 164.6 L 41.3 167.7 L 37.7 170.6 L 26.9 178.7 L 23.323113918304443 181.18394861221313 L 23.1 185.2 L 19.8 183.6 L 12.1 174.3 L 13.8 173.3 L 17.6 171.4 L 21.4 169.6 L 29.2 165.6 L 33.2 163.6 L 37.2 161.5 L 44.0 158.1 L 44.0 109.0 L 14.0 109.0 L 14.0 105.0 L 44.0 105.0 L 50.0 100.0 L 61.0 109.0 L 56.0 113.0 L 56.0 153.70384616851806 L 59.5 156.8 L 64.9 160.7 L 70.8 164.1 L 78.0 166.8 L 87.1 169.0 L 98.6 170.6 L 113.0 171.6 L 130.9 171.9 L 152.6 171.5 L 178.7 170.4 L 190.0 169.9 L 179.2 183.5 L 152.9 184.0 Z M 155.0 144.4 L 144.5 135.8 L 135.5 124.9 L 134.4818221092224 123.17177696228028 L 125.2 131.1 L 115.0 138.3 L 104.3 144.5 L 93.2 149.8 L 81.6 154.0 L 69.6 157.2 L 69.1 155.4 L 80.3 150.5 L 90.9 145.0 L 101.0 138.9 L 110.6 132.1 L 119.7 124.5 L 128.4 116.3 L 129.623512840271 114.92543621063233 L 127.9 112.0 L 121.9 97.1 L 117.2 80.1 L 114.6876377105713 65.6348834991455 L 68.1 68.9 L 67.8 64.9 L 113.99764804840088 61.662216091156004 L 113.9 61.1 L 111.9 40.1 L 111.32603034973144 18.097830772399902 L 111.3 18.1 L 111.3 14.7 L 123.3 17.1 L 126.3 19.1 L 123.40061779022217 20.83962926864624 L 123.9 39.4 L 125.8 59.6 L 126.01132507324219 60.820231914520264 L 162.89412698745727 58.23528337478638 L 172.2 47.6 L 184.8 56.7 L 185.1 60.7 L 126.69935274124146 64.7930368423462 L 128.9 77.5 L 133.2 93.2 L 138.05922327041625 105.21553401947021 L 144.2 97.4 L 151.4 86.8 L 158.1 75.4 L 158.1369668006897 75.4213270187378 L 158.7 74.5 L 168.5 81.4 L 170.1 84.7 L 166.3140089035034 84.7652756690979 L 160.9 93.1 L 152.7 104.0 L 144.0 113.9 L 143.26618509292604 114.61786241531372 L 145.3 118.1 L 153.0 127.3 L 161.7 134.4 L 171.5 139.7 L 176.05661478042603 141.05466928482056 L 181.4 117.9 L 183.4 117.9 L 181.49451217651367 142.67134141921997 L 182.6 143.0 L 186.4 145.6 L 187.3 150.1 L 184.7 153.9 L 180.2 154.8 L 167.0 150.8 Z M 38.3 77.2 L 36.1 74.7 L 33.7 72.2 L 31.2 69.7 L 28.5 67.3 L 25.7 65.0 L 22.8 62.6 L 19.8 60.3 L 16.5 58.2 L 17.2 56.5 L 21.1 57.6 L 24.9 58.6 L 28.6 60.0 L 32.2 61.5 L 35.7 63.3 L 39.1 65.2 L 42.4 67.3 L 45.5 69.6 L 48.6 72.1 L 51.5 74.7 L 52.9 79.1 L 50.9 83.2 L 46.6 84.6 L 42.5 82.6 L 40.5 79.9 Z M 47.9 41.9 L 46.0 39.3 L 43.9 36.8 L 41.6 34.3 L 39.1 31.8 L 36.5 29.4 L 33.7 26.9 L 30.7 24.4 L 27.5 22.2 L 28.2 20.6 L 32.1 21.8 L 35.9 23.1 L 39.5 24.6 L 43.0 26.2 L 46.4 28.1 L 49.6 30.2 L 52.7 32.4 L 55.6 34.7 L 58.3 37.3 L 61.0 40.0 L 62.0 44.4 L 59.8 48.4 L 55.3 49.4 L 51.4 47.2 L 49.7 44.5 Z M 147.8 40.6 L 146.7 38.2 L 145.5 35.8 L 144.1 33.4 L 142.6 31.0 L 140.9 28.6 L 139.0 26.2 L 137.0 23.7 L 134.5 21.5 L 135.5 20.0 L 138.5 21.6 L 141.6 23.0 L 144.5 24.6 L 147.2 26.4 L 149.8 28.4 L 152.2 30.5 L 154.5 32.7 L 156.6 35.2 L 158.5 37.7 L 160.3 40.4 L 160.4 45.0 L 157.3 48.3 L 152.7 48.4 L 149.4 45.3 L 148.6 42.9 Z " />
</g>
</svg>
