<svg xmlns="http://www.w3.org/2000/svg" xmlns:xlink="http://www.w3.org/1999/xlink" version="1.1" baseProfile="full" viewBox="0 0 200 200" width="200" height="200">
<g fill="black">
<path d="M 48.5034782409668 135.32608699798584 L 51.9 139.1 L 52.1 142.6 L 48.4670449256897 141.10789346694946 L 47.6 141.6 L 43.8 143.6 L 39.8 145.7 L 35.7 147.8 L 31.4 149.9 L 27.0 152.0 L 26.689655208587645 152.1448275566101 L 31.6 154.6 L 50.9 154.6 L 56.4 149.6 L 66.9 158.6 L 61.9 162.1 L 61.9 184.8 L 50.9 190.3 L 50.9 182.8 L 31.6 182.8 L 31.6 185.8 L 19.6 191.8 L 19.6 155.3083333015442 L 17.7 156.1 L 12.8 157.9 L 7.6 159.7 L 6.8 158.2 L 11.0 154.8 L 15.2 151.6 L 19.3 148.5 L 23.2 145.6 L 27.1 142.8 L 30.9 140.0 L 34.5 137.3 L 38.0 134.6 L 41.4 132.1 L 43.82420330047607 130.13033485412598 L 43.8 130.1 L 43.82599277496338 130.1288808822632 L 44.6 129.5 Z M 136.11422843933104 18.731462955474854 L 137.2 54.2 L 138.96161499023438 71.49585599899292 L 166.05102529525757 67.3380952835083 L 174.4 55.9 L 187.8 64.0 L 188.4 67.9 L 139.3619583129883 75.42649993896484 L 140.5 86.6 L 145.5 112.7 L 148.27687997817992 122.1876732826233 L 151.2 114.6 L 155.5 101.5 L 159.4 87.3 L 159.46444444656373 87.31777782440186 L 159.9 85.7 L 171.0 90.5 L 173.4 93.2 L 169.7970051765442 94.21136693954467 L 166.3 105.0 L 161.2 118.5 L 155.6 130.9 L 152.79222536087036 136.23477172851562 L 158.1 148.7 L 164.9 159.8 L 171.2 167.2 L 176.6 171.6 L 176.9448275566101 171.77241382598876 L 182.2 149.0 L 184.2 149.0 L 182.2744680404663 174.0319149017334 L 186.4 175.8 L 188.2 180.0 L 186.4 184.2 L 182.2 186.0 L 176.6 184.9 L 170.2 181.7 L 162.9 175.8 L 155.2 166.9 L 147.5 154.2 L 145.31868438720704 149.15010499954224 L 143.1 152.7 L 136.2 162.0 L 128.8 170.2 L 120.9 177.3 L 112.6 183.2 L 103.9 187.7 L 103.57692308425904 187.1615385055542 L 100.3 188.8 L 100.3 182.8 L 81.0 182.8 L 81.0 185.8 L 70.0 191.3 L 70.0 149.1 L 81.0 154.6 L 100.3 154.6 L 105.59887638092042 150.18426961898803 L 103.9 148.8 L 101.1 146.5 L 98.0 144.3 L 94.8 142.1 L 91.3 139.9 L 87.7 137.7 L 83.9 135.3 L 79.8 133.1 L 80.4 131.4 L 85.0 132.4 L 89.5 133.3 L 93.8 134.5 L 97.9 135.8 L 101.8 137.3 L 105.6 138.9 L 109.2 140.6 L 112.7 142.4 L 119.1 146.4 L 121.1 150.5 L 119.7 154.9 L 115.6 156.9 L 115.00869569778442 156.72529640197754 L 117.3 158.6 L 112.3 162.6 L 112.3 178.25507249832154 L 117.3 173.4 L 123.9 165.8 L 130.1 157.5 L 136.0 148.2 L 140.90568428039552 138.9337074279785 L 140.2 137.3 L 133.8 115.5 L 128.7 88.3 L 127.57037363052368 77.23630628585815 L 103.8 80.88465175628662 L 103.8 127.9 L 91.8 133.9 L 91.8 127.9 L 40.8 127.9 L 28.8 133.9 L 28.8 66.2 L 40.8 72.2 L 50.0764705657959 72.2 L 50.5 71.8 L 51.8 69.7 L 53.0 67.7 L 54.1 65.8 L 55.1 63.9 L 56.1 62.1 L 56.85555553436279 60.4 L 9.8 60.4 L 9.8 56.4 L 106.4777777671814 56.4 L 112.7 49.4 L 120.7 56.4 L 120.7 60.4 L 70.1625 60.4 L 69.0 61.6 L 67.5 63.1 L 64.1 66.1 L 62.4 67.5 L 60.5 68.8 L 58.5 70.1 L 54.825 72.2 L 91.8 72.2 L 97.8 67.2 L 108.72296476364136 76.13697118759156 L 127.16906175613403 73.30581102371215 L 125.3 55.0 L 124.03241224288941 15.997299003601075 L 124.0 16.0 L 124.0 12.6 L 136.0 15.0 L 139.0 17.0 Z M 81.0 158.6 L 81.0 178.8 L 100.3 178.8 L 100.3 158.6 Z M 31.6 158.6 L 31.6 178.8 L 50.9 178.8 L 50.9 158.6 Z M 40.8 108.8 L 40.8 123.9 L 91.8 123.9 L 91.8 108.8 Z M 40.8 92.5 L 40.8 104.8 L 91.8 104.8 L 91.8 92.5 Z M 40.8 76.2 L 40.8 88.5 L 91.8 88.5 L 91.8 76.2 Z M 81.0 17.6 L 100.3 17.6 L 106.3 12.6 L 117.3 21.6 L 112.3 25.6 L 112.3 45.8 L 100.3 51.8 L 100.3 45.8 L 81.0 45.8 L 70.0 51.3 L 70.0 12.1 Z M 31.6 17.6 L 50.9 17.6 L 56.4 12.6 L 66.9 21.6 L 61.9 25.1 L 61.9 45.8 L 50.9 51.3 L 50.9 45.8 L 31.6 45.8 L 19.6 51.8 L 19.6 11.6 Z M 163.3 42.8 L 161.8 40.2 L 160.2 37.6 L 158.2 35.0 L 156.1 32.4 L 153.7 29.8 L 151.2 27.3 L 148.4 24.6 L 145.2 22.2 L 146.1 20.6 L 149.9 22.1 L 153.6 23.6 L 157.1 25.3 L 160.5 27.2 L 163.6 29.3 L 166.5 31.6 L 169.3 34.1 L 171.8 36.7 L 174.2 39.5 L 176.3 42.5 L 176.6 47.1 L 173.8 50.6 L 169.2 51.0 L 165.7 48.1 L 164.6 45.4 Z M 81.0 21.6 L 81.0 41.8 L 100.3 41.8 L 100.3 21.6 Z M 31.6 21.6 L 31.6 41.8 L 50.9 41.8 L 50.9 21.6 Z " />
</g>
</svg>
