<svg xmlns="http://www.w3.org/2000/svg" xmlns:xlink="http://www.w3.org/1999/xlink" version="1.1" baseProfile="full" viewBox="0 0 200 200" width="200" height="200">
<g fill="black">
<path d="M 126.12705764770507 18.723765468597414 L 127.29658794403076 53.0 L 166.0 53.0 L 176.0 43.0 L 188.0 53.0 L 188.0 57.0 L 127.76603775024414 57.0 L 131.1 84.9 L 136.7 110.7 L 143.191268825531 129.9856538772583 L 144.6 127.9 L 151.5 115.3 L 157.6 101.7 L 162.9 87.0 L 162.9333333015442 87.01111106872558 L 163.5 85.5 L 174.3 90.8 L 176.5 93.7 L 172.8206124305725 94.47460794448853 L 168.1 106.2 L 161.0 120.3 L 153.0 133.3 L 147.95062437057496 140.07075366973876 L 151.3 146.9 L 159.2 158.4 L 166.7 166.2 L 173.5 171.0 L 176.59921159744263 172.40341653823853 L 182.0 149.0 L 184.0 149.0 L 182.07446804046631 174.0319149017334 L 186.2 175.8 L 188.0 180.0 L 186.2 184.2 L 182.0 186.0 L 175.3 184.8 L 167.6 181.5 L 158.9 175.3 L 149.9 166.0 L 140.9 153.0 L 139.50076332092286 150.13489637374877 L 134.4 155.6 L 123.8 164.9 L 112.4 172.9 L 100.1 179.6 L 87.1 184.9 L 73.2 188.8 L 72.7 187.1 L 85.6 181.4 L 97.6 174.9 L 108.7 167.5 L 118.9 159.1 L 128.3 149.7 L 135.20836448669434 141.34569873809815 L 132.5 135.8 L 125.1 113.9 L 119.2 86.9 L 115.7465045928955 57.0 L 12.0 57.0 L 12.0 53.0 L 115.36410255432129 53.0 L 114.03579034805298 15.99701747894287 L 114.0 16.0 L 114.0 12.6 L 126.0 15.0 L 129.0 17.0 Z M 92.5 145.9 L 90.9 141.6 L 89.2 137.4 L 87.4 133.3 L 85.4 129.3 L 83.2 125.5 L 81.0 121.6 L 79.70826654434204 119.46583166122437 L 78.2 125.7 L 74.2 136.7 L 69.3 146.3 L 63.6 154.3 L 56.9 160.8 L 49.5 165.6 L 41.3 168.5 L 40.7 166.8 L 47.4 162.3 L 53.3 156.9 L 58.3 150.3 L 62.7 142.6 L 66.3 133.7 L 69.2 123.3 L 71.4 111.6 L 72.8 98.5 L 73.4 84.0 L 73.30628566741943 69.09942378997803 L 73.3 69.1 L 73.3 65.8 L 85.3 68.0 L 88.3 70.0 L 85.1815375328064 71.90926275253295 L 84.8 84.5 L 83.5 99.6 L 81.2 113.3 L 80.781130027771 115.03132925033569 L 81.3 115.4 L 84.9 118.4 L 88.3 121.7 L 91.5 125.2 L 94.5 129.0 L 97.3 133.0 L 99.9 137.3 L 102.3 141.7 L 104.6 146.4 L 106.6 151.2 L 106.2 155.8 L 102.8 158.8 L 98.3 158.4 L 95.2 155.0 L 93.9 150.4 Z M 50.5 134.2 L 49.5 131.2 L 48.4 128.3 L 47.2 125.4 L 45.9 122.4 L 44.4 119.5 L 43.15625 117.0125 L 42.4 121.0 L 39.6 131.6 L 36.1 141.1 L 32.0 149.6 L 27.3 156.9 L 21.9 163.0 L 15.8 167.8 L 14.7 166.4 L 19.0 160.6 L 22.8 154.0 L 26.1 146.7 L 29.0 138.5 L 31.4 129.4 L 33.2 119.3 L 34.6 108.2 L 35.4 96.0 L 35.7 82.9 L 35.51406631469727 69.69871063232422 L 35.5 69.7 L 35.5 66.4 L 47.5 68.6 L 50.5 70.5 L 47.39411096572876 72.4649501800537 L 47.1 83.2 L 46.1 96.8 L 44.6 109.4 L 44.094212245941165 112.0668809890747 L 46.3 113.8 L 48.9 116.1 L 51.4 118.6 L 53.7 121.2 L 55.9 124.0 L 58.0 126.8 L 59.9 129.7 L 61.7 132.7 L 63.4 135.9 L 63.2 140.4 L 59.9 143.6 L 55.3 143.4 L 52.2 140.1 L 51.4 137.1 Z M 155.0 34.3 L 153.6 31.9 L 152.0 29.6 L 150.3 27.3 L 148.3 25.0 L 146.2 22.7 L 143.9 20.4 L 141.4 18.1 L 138.5 16.2 L 139.2 14.6 L 142.6 15.8 L 146.0 16.8 L 149.3 18.2 L 152.4 19.8 L 155.4 21.5 L 158.1 23.5 L 160.8 25.7 L 163.3 28.1 L 165.6 30.6 L 167.7 33.4 L 168.2 37.9 L 165.4 41.6 L 160.9 42.1 L 157.2 39.3 L 156.2 36.8 Z " />
</g>
</svg>
