<svg xmlns="http://www.w3.org/2000/svg" xmlns:xlink="http://www.w3.org/1999/xlink" version="1.1" baseProfile="full" viewBox="0 0 200 200" width="200" height="200">
<g fill="black">
<path d="M 148.4 182.7 L 137.2 178.0 L 127.4 172.0 L 124.7616057395935 169.67570028305053 L 123.5 170.3 L 113.2 174.5 L 102.5 178.3 L 91.3 181.5 L 79.5 184.1 L 67.3 186.0 L 54.5 187.3 L 54.3 185.5 L 66.5 182.3 L 78.2 178.9 L 89.3 175.2 L 99.9 171.1 L 109.9 166.7 L 117.58566989898682 162.81671419143677 L 112.1 155.9 L 106.8 146.0 L 103.68712587356568 136.98904857635497 L 52.9 138.8 L 52.8 134.8 L 102.64343738555908 133.02269830703736 L 100.8 122.8 L 100.15279693603516 110.59560022354125 L 100.1 110.6 L 100.1 107.2 L 112.1 109.6 L 115.1 111.6 L 112.2875 113.2875 L 112.7 121.4 L 114.6 132.0 L 114.8048867225647 132.589049243927 L 156.8815453529358 131.0886929512024 L 166.6 120.7 L 179.0 130.3 L 179.1 134.3 L 116.18037157058716 136.5435683250427 L 117.8 141.2 L 122.2 149.3 L 127.7 156.4 L 128.1766282081604 156.81354503631593 L 128.2 156.8 L 136.5 151.2 L 144.3 145.3 L 151.5 138.9 L 151.7 138.7 L 159.5 147.9 L 160.0 151.5 L 156.35194959640503 150.3274124145508 L 151.2 154.3 L 142.5 160.1 L 136.53323516845703 163.56457309722902 L 142.7 167.4 L 152.3 171.4 L 163.3 174.4 L 169.64831857681276 175.35728616714476 L 175.2 151.3 L 177.2 151.3 L 175.28406763076782 176.20712127685547 L 175.9 176.3 L 179.8 178.6 L 181.2 182.9 L 179.0 186.9 L 174.6 188.3 L 160.9 186.1 Z M 46.0 31.0 L 161.0 31.0 L 171.0 21.0 L 183.0 31.0 L 183.0 35.0 L 46.0 35.0 L 46.0 93.0 L 45.4 105.3 L 44.2 117.0 L 42.5 128.0 L 40.2 138.3 L 37.3 147.9 L 33.8 156.8 L 29.7 165.0 L 25.0 172.4 L 19.6 179.0 L 13.6 184.6 L 12.3 183.3 L 16.6 176.7 L 20.4 169.6 L 23.8 162.1 L 26.7 154.1 L 29.1 145.5 L 31.1 136.3 L 32.6 126.4 L 33.5 115.9 L 34.0 104.8 L 34.0 25.0 Z M 140.0 124.2 L 139.0 122.8 L 137.7 121.4 L 136.1 119.9 L 134.4 118.3 L 132.4 116.7 L 130.2 115.1 L 127.8 113.4 L 125.0 112.1 L 125.5 110.4 L 128.6 111.2 L 131.6 111.6 L 134.5 112.1 L 137.2 112.7 L 139.7 113.5 L 142.1 114.3 L 144.4 115.2 L 146.5 116.3 L 148.5 117.5 L 150.4 118.8 L 151.8 123.1 L 149.9 127.2 L 145.5 128.7 L 141.4 126.7 L 140.8 125.5 Z M 148.5 110.0 L 137.4 105.6 L 127.6 100.1 L 124.69408025741578 97.71299448013306 L 123.4 98.3 L 113.1 102.3 L 102.4 105.7 L 91.2 108.6 L 79.5 110.9 L 67.2 112.7 L 54.5 113.8 L 54.3 112.0 L 66.5 109.0 L 78.3 105.7 L 89.4 102.2 L 100.0 98.5 L 110.0 94.4 L 117.24651165008545 90.96744184494018 L 112.2 85.2 L 106.9 75.9 L 103.73026247024536 67.30834312438965 L 52.9 69.0 L 52.8 65.0 L 102.64426860809326 63.34115743637085 L 100.8 54.2 L 100.15664196014404 42.89527988433838 L 100.1 42.9 L 100.1 39.5 L 112.1 41.9 L 115.1 43.9 L 112.30430107116699 45.57741937637329 L 112.7 52.7 L 114.6 62.3 L 114.83178901672363 62.93555059432983 L 156.93231325149537 61.534423828125 L 166.6 51.2 L 179.0 60.8 L 179.1 64.8 L 116.27431755065918 66.89087057113647 L 117.7 70.8 L 122.0 78.2 L 127.5 84.6 L 128.22303590774536 85.19544134140014 L 128.4 85.1 L 136.7 79.9 L 144.4 74.4 L 150.92525873184204 69.12616081237793 L 150.9 69.1 L 151.8 68.4 L 159.3 77.8 L 159.6 81.4 L 156.01422681808472 80.09608249664306 L 151.0 83.6 L 142.3 89.0 L 137.0989333152771 91.77013330459594 L 142.5 94.8 L 152.1 98.5 L 163.2 101.3 L 169.6340425491333 102.21914892196655 L 175.2 78.1 L 177.2 78.1 L 175.28260869979857 103.02608699798584 L 175.8 103.1 L 179.8 105.3 L 181.2 109.7 L 179.0 113.7 L 174.6 115.1 L 160.9 113.1 Z M 140.1 55.7 L 139.1 54.4 L 137.8 53.0 L 136.2 51.6 L 134.4 50.1 L 132.4 48.6 L 130.2 47.1 L 127.8 45.4 L 125.0 44.2 L 125.5 42.5 L 128.5 43.2 L 131.6 43.5 L 134.4 43.9 L 137.1 44.5 L 139.6 45.1 L 141.9 45.8 L 144.2 46.6 L 146.3 47.5 L 148.3 48.6 L 150.2 49.8 L 151.7 54.1 L 149.9 58.3 L 145.7 59.8 L 141.5 58.0 L 140.9 56.9 Z " />
</g>
</svg>
