<svg xmlns="http://www.w3.org/2000/svg" xmlns:xlink="http://www.w3.org/1999/xlink" version="1.1" baseProfile="full" viewBox="0 0 200 200" width="200" height="200">
<g fill="black">
<path d="M 146.8 170.9 L 137.1 159.8 L 135.1819905281067 156.6506757736206 L 134.3 157.5 L 125.5 164.7 L 115.9 171.3 L 105.8 177.2 L 94.9 182.4 L 83.3 186.8 L 82.6 185.1 L 93.1 179.0 L 103.0 172.6 L 112.2 165.9 L 120.6 158.8 L 128.4 151.4 L 130.53645372390747 149.0228190422058 L 129.0 146.5 L 122.5 130.9 L 117.5 113.1 L 114.0 93.1 L 113.61216220855712 89.0 L 17.0 89.0 L 17.0 85.0 L 55.0 85.0 L 55.0 59.7 L 38.9 59.7 L 38.9 66.7 L 26.9 72.7 L 26.9 27.3 L 38.9 29.3 L 41.9 31.3 L 38.9 33.1 L 38.9 55.7 L 55.0 55.7 L 55.0 20.0 L 67.0 22.0 L 70.0 24.0 L 67.0 25.8 L 67.0 55.7 L 86.0 55.7 L 86.0 27.3 L 98.0 29.3 L 101.0 31.3 L 98.0 33.1 L 98.0 63.7 L 86.0 69.7 L 86.0 59.7 L 67.0 59.7 L 67.0 85.0 L 113.23378381729125 85.0 L 111.9 70.9 L 111.2 46.4 L 111.9 19.6 L 111.93119316101074 19.601819610595705 L 112.0 17.4 L 123.9 20.3 L 126.8 22.4 L 123.80192785263061 23.956691360473634 L 123.2 46.4 L 123.9 70.2 L 125.2896713256836 85.0 L 160.0 85.0 L 170.0 75.0 L 182.0 85.0 L 182.0 89.0 L 125.66525821685791 89.0 L 125.9 91.5 L 129.2 110.5 L 133.9 127.0 L 138.86856651306152 139.0787565231323 L 141.9 135.1 L 147.6 126.4 L 152.7 117.1 L 157.1 107.4 L 157.10767879486085 107.40345191955566 L 157.6 106.2 L 168.0 112.3 L 170.0 115.3 L 166.16642389297485 115.8287691116333 L 162.7 122.5 L 156.6 132.2 L 149.9 141.2 L 143.89240379333495 148.00860900878905 L 146.8 152.8 L 155.0 162.1 L 164.4 169.3 L 167.9310209274292 170.9655758857727 L 173.0 149.0 L 175.0 149.0 L 173.12198877334595 173.41414566040038 L 175.0 174.3 L 178.3 177.4 L 178.6 182.0 L 175.5 185.3 L 170.9 185.6 L 158.1 179.5 Z M 40.1 110.5 L 80.8 110.5 L 86.8 105.5 L 97.8 114.5 L 92.8 118.5 L 92.8 162.4 L 80.8 168.4 L 80.8 160.4 L 40.1 160.4 L 40.1 172.4 L 28.1 178.4 L 28.1 104.5 Z M 40.1 114.5 L 40.1 156.4 L 80.8 156.4 L 80.8 114.5 Z M 151.7 56.0 L 150.5 53.8 L 148.9 51.6 L 147.1 49.3 L 145.0 47.0 L 142.6 44.6 L 139.8 42.1 L 136.9 39.5 L 133.4 37.2 L 134.2 35.6 L 138.2 37.1 L 142.1 38.5 L 145.6 40.0 L 149.0 41.7 L 152.1 43.4 L 154.9 45.4 L 157.6 47.4 L 159.9 49.7 L 162.1 52.0 L 164.0 54.6 L 164.2 59.1 L 161.3 62.6 L 156.7 62.9 L 153.2 60.0 L 152.6 58.0 Z " />
</g>
</svg>
