<svg xmlns="http://www.w3.org/2000/svg" xmlns:xlink="http://www.w3.org/1999/xlink" version="1.1" baseProfile="full" viewBox="0 0 200 200" width="200" height="200">
<g fill="black">
<path d="M 156.3 178.3 L 147.7 173.0 L 139.5 166.9 L 131.90811100006104 159.80757741928102 L 132.2 160.8 L 123.0 164.5 L 113.9 167.9 L 104.9 171.0 L 96.1 174.0 L 87.5 176.7 L 79.1 179.4 L 70.9 181.9 L 62.8 184.2 L 54.9 186.5 L 51.19735059738159 187.52310047149658 L 49.9 191.0 L 47.3 188.6 L 42.6 177.3 L 44.6 176.9 L 52.3 175.4 L 60.3 173.8 L 62.0 173.44320983886718 L 62.0 145.9777777671814 L 58.9 147.7 L 48.6 152.9 L 37.7 157.6 L 26.2 162.0 L 14.3 165.8 L 13.6 164.1 L 24.7 158.5 L 35.4 152.8 L 45.5 147.0 L 55.1 141.1 L 64.2 135.1 L 72.8 128.8 L 80.9 122.3 L 88.4 115.6 L 95.4 108.7 L 101.9 101.6 L 101.91484813690185 101.61366701126099 L 102.2 101.3 L 110.7 109.7 L 111.5 113.2 L 107.83058156967164 112.49186658859253 L 106.0125937461853 114.26071968078614 L 110.7 121.4 L 117.3 130.6 L 124.0 138.9 L 128.59904985427858 143.82755346298217 L 129.7 142.8 L 132.5 140.2 L 135.2 137.8 L 137.8 135.4 L 140.2 133.1 L 142.5 131.0 L 146.6 126.9 L 147.68847579956054 125.69058237075805 L 147.6 125.6 L 148.5 124.8 L 156.0 134.2 L 156.3 137.8 L 152.34981412887572 136.3635687828064 L 150.9 137.2 L 148.2 138.7 L 145.3 140.3 L 142.2 141.8 L 139.0 143.4 L 135.6 145.0 L 132.0 146.5 L 131.37725753784179 146.74581937789918 L 138.2 153.0 L 145.7 158.8 L 153.5 163.7 L 161.6 167.8 L 170.0 171.1 L 178.7 173.6 L 186.9 175.8 L 175.2 186.3 L 165.5 182.8 Z M 103.3 116.9 L 95.4 123.7 L 87.1 130.2 L 78.2 136.4 L 73.98620691299439 139.0 L 74.0 139.0 L 74.0 170.9666666984558 L 76.8 170.4 L 85.4 168.5 L 94.2 166.7 L 103.2 164.7 L 112.4 162.8 L 121.9 160.9 L 131.32544269561768 159.16879625320433 L 124.8 152.0 L 118.3 143.3 L 112.4 133.8 L 107.1 123.5 L 104.14447507858276 116.07834854125977 Z M 94.16027393341065 43.643835639953615 L 94.7 51.2 L 97.1 61.1 L 97.57753763198852 62.17752084732056 L 158.4817017555237 60.50474729537964 L 168.2 50.2 L 180.5 59.9 L 180.6 63.9 L 99.33014888763428 66.1321307182312 L 101.0 69.9 L 106.5 77.7 L 113.6 84.5 L 115.62537088394166 85.84266157150269 L 117.3 85.1 L 128.0 79.7 L 138.1 73.8 L 146.6173610687256 68.12175922393799 L 146.6 68.1 L 146.61875 68.1208333015442 L 147.4 67.6 L 151.18959274291993 73.19954748153687 L 154.7 77.1 L 154.8 80.7 L 151.28592758178712 79.16658658981324 L 143.8 83.6 L 132.9 89.2 L 126.20044622421264 92.14549350738525 L 133.1 95.4 L 145.6 99.4 L 160.0 102.4 L 170.09597778320312 103.58409614562989 L 175.7 79.3 L 177.7 79.3 L 175.7807059288025 104.25082349777222 L 176.2 104.3 L 180.2 106.4 L 181.7 110.7 L 179.6 114.8 L 175.2 116.3 L 158.1 114.2 L 142.6 111.0 L 128.8 106.6 L 116.6 100.9 L 111.97434558868409 97.81623039245605 L 109.1 98.9 L 96.2 103.0 L 82.8 106.6 L 68.6 109.6 L 53.9 112.1 L 38.4 113.9 L 22.4 115.1 L 22.2 113.3 L 37.9 110.2 L 52.9 106.8 L 67.2 103.2 L 80.7 99.3 L 93.6 94.9 L 103.27524585723877 91.17265119552613 L 97.4 85.5 L 90.6 75.8 L 86.37508850097656 66.48795013427734 L 20.4 68.3 L 20.3 64.3 L 85.1212495803833 62.51964111328125 L 82.9 53.0 L 81.97643308639526 40.99363059997559 L 81.9 41.0 L 81.9 37.6 L 93.9 40.0 L 96.9 42.0 Z M 132.5 54.7 L 130.9 53.3 L 129.0 51.8 L 126.9 50.3 L 124.4 48.7 L 121.7 47.1 L 118.7 45.5 L 115.4 43.7 L 111.8 42.3 L 112.3 40.6 L 116.1 41.2 L 119.9 41.6 L 123.4 42.0 L 126.7 42.6 L 129.8 43.3 L 132.8 44.1 L 135.5 45.0 L 138.0 46.0 L 140.4 47.1 L 142.6 48.3 L 144.6 52.4 L 143.2 56.8 L 139.1 58.8 L 134.8 57.4 L 133.8 56.1 Z M 19.6 32.7 L 96.5 32.7 L 96.5 12.2 L 108.5 14.2 L 111.5 16.2 L 108.5 18.0 L 108.5 32.7 L 163.3 32.7 L 173.3 22.7 L 185.3 32.7 L 185.3 36.7 L 19.6 36.7 Z " />
</g>
</svg>
