<svg xmlns="http://www.w3.org/2000/svg" xmlns:xlink="http://www.w3.org/1999/xlink" version="1.1" baseProfile="full" viewBox="0 0 200 200" width="200" height="200">
<g fill="black">
<path d="M 126.12765960693359 17.723404216766358 L 127.2 49.0 L 129.80666666030885 72.0 L 166.0 72.0 L 176.0 62.0 L 188.0 72.0 L 188.0 76.0 L 130.26000003814698 76.0 L 130.6 79.0 L 135.7 104.3 L 142.2 125.2 L 145.87323417663575 133.6688455581665 L 146.9 132.2 L 153.6 120.9 L 159.6 108.7 L 164.62321853637695 96.60706653594971 L 164.6 96.6 L 165.5 94.3 L 176.1 100.1 L 178.2 103.1 L 174.4683765411377 103.67904500961303 L 169.9 113.7 L 162.9 126.3 L 155.2 137.8 L 150.5540410041809 143.7333933830261 L 157.1 154.7 L 164.6 163.9 L 171.5 170.0 L 175.64285717010497 172.21428575515748 L 181.0 149.0 L 183.0 149.0 L 181.07446804046631 174.0319149017334 L 185.2 175.8 L 187.0 180.0 L 185.2 184.2 L 181.0 186.0 L 173.0 184.3 L 164.6 179.8 L 156.0 172.3 L 147.2 161.5 L 142.27851829528808 153.27823066711426 L 137.9 157.9 L 128.2 166.3 L 117.9 173.7 L 107.0 180.0 L 95.4 185.0 L 83.2 188.8 L 82.7 187.1 L 93.8 181.5 L 104.3 175.3 L 114.1 168.3 L 123.3 160.6 L 131.8 152.0 L 137.67514562606812 144.93495149612426 L 130.9 129.3 L 124.1 107.3 L 118.7 80.9 L 118.14677419662476 76.0 L 87.8 76.0 L 81.2 79.3 L 81.2 76.0 L 42.3 76.0 L 35.7 79.3 L 35.7 76.0 L 12.0 76.0 L 12.0 73.67272729873658 L 11.0 72.4 L 14.2 68.6 L 17.1 64.9 L 19.9 61.2 L 22.5 57.3 L 25.0 53.2 L 27.2 49.0 L 29.2 44.5 L 31.1 39.9 L 32.7 35.0 L 33.0 33.8 L 14.0 33.8 L 14.0 29.8 L 35.7 29.8 L 35.7 10.1 L 47.7 12.1 L 50.7 14.1 L 47.7 15.9 L 47.7 29.8 L 49.577777767181395 29.8 L 55.8 22.8 L 63.8 29.8 L 63.8 33.8 L 47.7 33.8 L 47.7 40.876000022888185 L 48.5 41.1 L 51.0 42.1 L 53.3 43.2 L 55.5 44.5 L 57.6 46.0 L 59.6 47.6 L 61.5 49.4 L 63.2 51.4 L 64.9 53.5 L 65.1 58.0 L 62.1 61.5 L 57.5 61.7 L 54.1 58.7 L 53.6 56.9 L 53.0 55.1 L 52.3 53.3 L 51.4 51.5 L 50.4 49.7 L 49.3 47.9 L 47.7 45.84285717010498 L 47.7 72.0 L 56.83684206008911 72.0 L 59.7 68.6 L 62.6 64.9 L 65.4 61.2 L 68.1 57.3 L 70.5 53.2 L 72.7 49.0 L 74.7 44.5 L 76.6 39.9 L 78.2 35.0 L 78.5 33.8 L 65.1 33.8 L 65.1 29.8 L 81.2 29.8 L 81.2 10.1 L 93.2 12.1 L 96.2 14.1 L 93.2 15.9 L 93.2 29.8 L 96.71818180084229 29.8 L 104.9 20.8 L 114.51659965515137 29.45493965148926 L 114.03333330154419 14.997222232818604 L 114.0 15.0 L 114.0 11.6 L 126.0 14.0 L 129.0 16.0 Z M 74.1 155.8 L 69.2 148.9 L 67.5417028427124 146.8117739677429 L 64.5 150.2 L 55.8 158.5 L 46.2 166.0 L 35.8 172.9 L 24.5 179.0 L 12.3 184.3 L 11.5 182.7 L 22.6 175.7 L 32.8 168.4 L 42.1 160.9 L 50.6 152.9 L 58.2 144.5 L 61.82704095840454 139.85952110290526 L 57.9 135.4 L 51.6 128.6 L 44.8 121.9 L 37.6 115.2 L 29.9 108.3 L 21.9 101.4 L 22.9 99.9 L 32.2 105.3 L 40.9 111.0 L 49.1 116.9 L 56.7 123.1 L 63.9 129.4 L 67.11224527359009 132.4705286026001 L 70.9 126.5 L 75.9 116.8 L 80.2 106.7 L 82.39252338409423 99.8 L 16.2 99.8 L 16.2 95.8 L 83.3 95.8 L 89.3 90.8 L 100.3 99.8 L 95.3 102.8 L 93.57394361495972 103.51919012069702 L 90.7 110.9 L 85.5 121.7 L 79.4 131.8 L 73.91494512557983 139.32236099243164 L 76.9 142.5 L 82.7 149.4 L 88.1 156.3 L 92.9 163.5 L 93.5 168.0 L 90.9 171.7 L 86.3 172.3 L 82.6 169.6 L 78.6 162.7 Z M 35.2 53.7 L 32.0 58.0 L 28.5 62.0 L 24.8 65.6 L 20.9 68.8 L 16.6 71.6 L 15.781818199157716 72.0 L 35.7 72.0 L 35.7 52.93333330154419 Z M 80.7 53.7 L 77.5 58.0 L 74.0 62.0 L 70.3 65.6 L 66.4 68.8 L 62.1 71.6 L 61.28181819915771 72.0 L 81.2 72.0 L 81.2 52.93333330154419 Z M 93.2 72.0 L 108.046875 72.0 L 106.4 70.3 L 103.4 66.9 L 100.7 63.3 L 98.2 59.5 L 95.9 55.6 L 93.8 51.4 L 93.2 49.882352924346925 Z M 111.49390239715576 72.0 L 117.69516124725342 72.0 L 117.20968360900879 67.7000545501709 Z M 93.2 33.8 L 93.2 37.062963008880615 L 95.5 40.3 L 98.0 43.9 L 100.6 47.3 L 103.3 50.5 L 106.0 53.5 L 108.8 56.2 L 111.7 58.7 L 114.7 61.1 L 116.61064786911011 62.39430990219116 L 115.2 49.9 L 114.66183843612671 33.8 Z M 157.2 43.6 L 155.4 40.8 L 153.4 38.0 L 151.3 35.3 L 149.1 32.6 L 146.7 30.0 L 144.1 27.3 L 141.4 24.7 L 138.4 22.2 L 139.3 20.6 L 142.9 22.1 L 146.6 23.6 L 150.2 25.4 L 153.5 27.4 L 156.7 29.6 L 159.8 31.9 L 162.7 34.5 L 165.5 37.3 L 168.1 40.2 L 170.5 43.3 L 171.2 47.8 L 168.5 51.5 L 164.0 52.2 L 160.3 49.5 L 158.8 46.5 Z " />
</g>
</svg>
