<svg xmlns="http://www.w3.org/2000/svg" xmlns:xlink="http://www.w3.org/1999/xlink" version="1.1" baseProfile="full" viewBox="0 0 200 200" width="200" height="200">
<g fill="black">
<path d="M 146.3954773902893 18.74271354675293 L 147.3 54.2 L 148.8279188156128 71.32322788238525 L 167.80001134872435 67.90720014572143 L 175.9 56.3 L 189.5 64.0 L 190.2 67.9 L 149.1814847946167 75.28560523986816 L 150.2 86.7 L 154.4 112.9 L 156.02675819396973 119.47082719802856 L 157.5 114.9 L 161.2 101.7 L 164.5 87.5 L 164.5211000442505 87.50504961013795 L 164.9 85.8 L 176.2 90.3 L 178.6 92.9 L 175.1451153755188 94.03068952560425 L 172.1 104.8 L 167.7 118.2 L 162.9 130.6 L 160.45827798843385 136.1058437347412 L 165.2 149.0 L 171.0 160.2 L 176.4 167.6 L 179.7797468185425 170.7544303894043 L 184.8 149.0 L 186.8 149.0 L 184.8744680404663 174.0319149017334 L 189.0 175.8 L 190.8 180.0 L 189.0 184.2 L 184.8 186.0 L 179.5 184.8 L 173.7 181.4 L 167.4 175.5 L 160.8 166.5 L 154.2 153.9 L 153.0948380470276 150.8381579399109 L 152.2 152.5 L 146.2 161.8 L 139.8 170.0 L 133.0 177.2 L 125.7 183.1 L 118.1 187.7 L 117.1 186.2 L 123.3 180.2 L 129.1 173.5 L 134.6 166.0 L 139.8 157.7 L 144.7 148.4 L 148.87404975891113 139.1444984436035 L 148.1 137.0 L 142.6 115.3 L 138.3 88.1 L 137.36649332046508 77.41295824050903 L 118.0 80.9 L 117.3 77.0 L 137.02026662826538 73.44925947189331 L 135.4 54.9 L 134.32750568389892 15.997707843780518 L 134.3 16.0 L 134.3 12.6 L 146.3 15.0 L 149.3 17.0 Z M 113.03972606658935 160.93013696670533 L 101.9 166.5 L 101.9 156.5 L 82.4 156.5 L 82.4 162.3 L 71.4 167.8 L 71.4 84.6 L 62.5 84.6 L 62.5 168.8 L 62.6 170.1 L 62.8 171.1 L 63.0 171.8 L 63.2 172.2 L 63.4 172.4 L 63.7 172.6 L 64.1 172.9 L 64.8 173.1 L 65.7 173.3 L 109.8 173.3 Z M 82.4 140.0 L 82.4 152.5 L 101.9 152.5 L 101.9 140.0 Z M 32.0 140.0 L 32.0 152.5 L 51.5 152.5 L 51.5 140.0 Z M 82.4 123.5 L 82.4 136.0 L 101.9 136.0 L 101.9 123.5 Z M 32.0 123.5 L 32.0 136.0 L 51.5 136.0 L 51.5 123.5 Z M 82.4 84.6 L 82.4 101.2 L 97.5 101.2 L 97.5 84.6 Z M 36.4 84.6 L 36.4 101.2 L 51.5 101.2 L 51.5 84.6 Z M 104.3 72.3 L 99.1 69.7 L 94.1 67.0 L 89.3 64.0 L 84.9 60.7 L 80.6 57.3 L 76.7 53.5 L 73.2 49.5 L 73.0 49.209677410125735 L 73.0 73.0 L 61.0 79.0 L 61.0 54.0875 L 60.3 54.7 L 55.9 58.0 L 51.1 61.1 L 45.9 63.9 L 40.3 66.5 L 34.3 68.9 L 27.9 71.0 L 21.1 72.8 L 13.9 74.2 L 13.4 72.5 L 19.8 69.2 L 25.9 66.1 L 31.6 62.9 L 36.8 59.8 L 41.5 56.7 L 45.8 53.4 L 49.7 50.1 L 53.1 46.8 L 54.02258062362671 45.7 L 14.3 45.7 L 14.3 41.7 L 22.530769252777098 41.7 L 21.7 40.8 L 24.2 38.0 L 26.2 35.1 L 29.8 29.5 L 31.3 26.9 L 32.6 24.2 L 33.8 21.7 L 34.8 19.1 L 35.6 16.7 L 35.96262626647949 15.249494934082032 L 35.8 15.2 L 36.7 12.9 L 47.3 18.7 L 49.4 21.7 L 45.099554252624515 22.367310523986816 L 43.9 24.1 L 42.207692337036136 26.3 L 61.0 26.3 L 61.0 12.0 L 73.0 14.0 L 76.0 16.0 L 73.0 17.8 L 73.0 26.3 L 87.1 26.3 L 97.1 16.3 L 109.1 26.3 L 109.1 30.3 L 73.0 30.3 L 73.0 41.7 L 97.7 41.7 L 107.7 31.7 L 119.7 41.7 L 119.7 45.7 L 74.81999998092651 45.7 L 75.9 46.3 L 80.4 48.9 L 84.8 51.4 L 89.3 53.7 L 93.9 55.8 L 98.6 57.8 L 103.5 59.6 L 108.5 61.3 L 113.6 62.7 L 119.0 64.0 L 127.1 66.3 L 115.4 76.7 L 109.7 74.6 Z M 167.9 42.4 L 166.7 39.8 L 165.4 37.3 L 163.8 34.7 L 162.1 32.2 L 160.2 29.7 L 158.1 27.1 L 155.9 24.5 L 153.3 22.2 L 154.2 20.7 L 157.5 22.3 L 160.8 23.8 L 163.9 25.5 L 166.8 27.4 L 169.5 29.6 L 172.1 31.9 L 174.5 34.4 L 176.8 37.0 L 178.8 39.8 L 180.7 42.8 L 180.8 47.3 L 177.6 50.7 L 173.1 50.8 L 169.7 47.6 L 168.9 45.0 Z M 38.6 30.3 L 37.3 31.6 L 34.8 33.9 L 32.1 36.1 L 29.1 38.1 L 26.0 40.0 L 23.490476226806642 41.7 L 61.0 41.7 L 61.0 30.3 Z M 120.8 178.8 L 118.6 182.1 L 115.3 184.3 L 67.0 184.3 L 64.5 184.2 L 62.1 183.8 L 59.8 183.0 L 57.6 181.8 L 55.6 180.2 L 54.1 178.3 L 52.9 176.1 L 52.1 173.8 L 51.7 171.3 L 51.5 168.8 L 51.5 156.5 L 32.0 156.5 L 32.0 168.5 L 20.0 174.5 L 20.0 113.5 L 32.0 119.5 L 51.5 119.5 L 51.5 105.2 L 36.4 105.2 L 24.4 111.2 L 24.4 74.6 L 36.4 80.6 L 97.5 80.6 L 103.5 75.6 L 114.5 84.6 L 109.5 88.6 L 109.5 105.2 L 97.5 111.2 L 97.5 105.2 L 82.4 105.2 L 82.4 119.5 L 101.9 119.5 L 107.9 114.5 L 118.9 123.5 L 113.9 127.5 L 113.9 157.6454545021057 L 115.3 152.3 L 117.3 152.3 L 115.3 173.3 L 118.6 175.5 Z " />
</g>
</svg>
