<svg xmlns="http://www.w3.org/2000/svg" xmlns:xlink="http://www.w3.org/1999/xlink" version="1.1" baseProfile="full" viewBox="0 0 200 200" width="200" height="200">
<g fill="black">
<path d="M 150.58096590042115 18.751420497894287 L 151.4 56.7 L 151.68219146728515 60.52651567459107 L 165.35363340377808 59.172907543182376 L 174.4 48.2 L 187.3 57.0 L 187.7 60.9 L 151.97061672210694 64.43756265640259 L 153.9 90.6 L 157.6 117.5 L 158.7799235343933 122.87520713806153 L 162.5 112.8 L 166.9 98.7 L 170.66048288345337 84.41016521453858 L 170.6 84.4 L 171.3 81.7 L 182.5 86.4 L 184.9 89.1 L 181.3838677406311 90.10460920333863 L 177.8 102.0 L 172.6 116.5 L 166.8 129.8 L 162.28337965011596 138.54647121429443 L 167.1 152.9 L 172.0 163.1 L 176.5 169.4 L 178.2361701965332 170.94326238632203 L 183.3 149.0 L 185.3 149.0 L 183.3744680404663 174.0319149017334 L 187.5 175.8 L 189.3 180.0 L 187.5 184.2 L 183.3 186.0 L 178.8 185.2 L 173.4 182.6 L 167.6 177.4 L 161.7 169.3 L 155.9 157.5 L 154.13661336898804 152.1445294380188 L 153.6 153.0 L 146.2 162.8 L 138.2 171.3 L 129.7 178.5 L 120.6 184.4 L 111.0 188.8 L 110.68280706405639 188.12596492767335 L 109.1 189.1 L 104.6 188.1 L 102.3 186.2 L 99.6 184.1 L 96.5 182.0 L 93.1 179.9 L 89.3 177.6 L 85.2 175.3 L 80.8 173.0 L 76.1 170.5 L 71.0 167.9 L 68.02591514587402 166.32878532409669 L 66.4 168.9 L 61.1 174.7 L 54.8 179.5 L 47.6 183.3 L 39.6 186.2 L 30.7 188.0 L 21.0 188.8 L 20.7 187.1 L 29.8 184.3 L 37.7 181.1 L 44.6 177.5 L 50.3 173.4 L 55.0 168.7 L 58.7 163.6 L 61.6 157.9 L 63.5 151.6 L 64.6 144.6 L 64.9 136.9 L 64.9 134.5 L 76.9 137.0 L 79.9 139.1 L 76.45906410217285 141.05661058425903 L 75.9 146.2 L 73.8 154.5 L 70.7 162.1 L 69.50060195922852 163.99672241210936 L 72.2 164.5 L 77.8 165.7 L 80.95503215789795 166.5334047317505 L 81.2 166.1 L 82.0 163.5 L 83.6 158.7 L 85.0 154.1 L 86.2 149.7 L 86.7 147.6 L 86.9066993713379 146.56650323867797 L 86.7 146.5 L 87.6 144.3 L 95.76073188781739 148.84229412078858 L 94.3 147.5 L 90.7 143.7 L 87.3 139.6 L 84.2 135.2 L 81.71428575515748 131.0 L 61.535483837127686 131.0 L 58.6 134.5 L 53.0 140.2 L 47.0 145.5 L 40.6 150.4 L 33.9 154.8 L 26.8 158.7 L 19.3 162.0 L 11.5 164.8 L 10.7 163.1 L 17.6 158.7 L 24.0 154.1 L 30.2 149.4 L 35.9 144.5 L 41.3 139.3 L 46.2 133.8 L 48.508771896362305 131.0 L 15.7 131.0 L 15.7 127.0 L 51.657377052307126 127.0 L 55.1 122.0 L 59.0 115.6 L 59.988990783691406 113.73504590988159 L 57.0 114.2 L 53.2 111.7 L 52.9 110.5 L 52.5 109.2 L 52.0 108.0 L 51.5 106.7 L 50.9 105.58571424484253 L 50.9 121.0 L 38.9 127.0 L 38.9 109.23333330154419 L 36.9 111.3 L 33.7 114.2 L 30.3 116.9 L 26.7 119.3 L 22.8 121.6 L 18.8 123.7 L 17.7 122.2 L 20.8 119.0 L 23.6 115.8 L 26.2 112.5 L 28.6 109.3 L 30.8 106.1 L 32.8 102.9 L 34.6 99.6 L 36.2 96.3 L 37.10606060028076 94.0 L 23.5 94.0 L 23.5 90.0 L 38.9 90.0 L 38.9 76.0 L 50.9 78.0 L 53.9 80.0 L 50.9 81.8 L 50.9 90.0 L 54.7777777671814 90.0 L 61.0 83.0 L 69.0 90.0 L 69.0 94.0 L 50.9 94.0 L 50.9 98.6444444656372 L 51.6 98.8 L 53.5 99.3 L 55.2 99.9 L 56.9 100.7 L 58.6 101.6 L 60.2 102.7 L 61.8 103.9 L 63.2 105.2 L 63.77860746383667 108.4546669960022 L 73.1 114.7 L 73.38953771591187 115.24501218795777 L 75.2 112.4 L 77.1 109.2 L 78.9 105.9 L 80.4 102.7 L 81.8 99.6 L 82.9 96.4 L 83.65 94.0 L 70.9 94.0 L 70.9 90.0 L 85.1 90.0 L 85.1 76.0 L 97.1 78.0 L 100.1 80.0 L 97.1 81.8 L 97.1 90.0 L 100.27777776718139 90.0 L 106.5 83.0 L 110.43823528289795 86.44595584869384 L 110.6 85.9 L 111.3 83.3 L 112.0 81.0 L 112.6 78.9 L 113.1 76.9 L 113.5 75.0 L 21.780000019073487 75.0 L 22.1 76.6 L 22.4 79.3 L 22.6 81.9 L 22.7 84.4 L 22.6 86.8 L 22.3 89.0 L 21.8 91.2 L 21.0 93.4 L 17.1 95.8 L 12.6 94.8 L 10.2 90.9 L 11.2 86.4 L 12.0 86.0 L 12.8 85.3 L 13.7 84.1 L 14.6 82.6 L 15.4 80.8 L 16.2 78.7 L 17.0 76.3 L 17.8 73.5 L 18.5 70.5 L 18.7 67.3 L 19.837808322906493 67.23678846359253 L 18.5 19.7 L 28.292158126831055 24.275024700164796 L 28.5 24.1 L 30.3 22.7 L 33.5 20.1 L 34.9 18.9 L 36.2 17.7 L 37.3 16.7 L 38.3 15.6 L 38.4327935218811 15.434008121490479 L 38.2 15.1 L 38.477777767181394 15.377777767181396 L 39.1 14.6 L 41.00909090042114 17.90909090042114 L 47.0 23.9 L 47.1 27.3 L 42.81756277084351 25.52795696258545 L 41.9 25.7 L 40.2 26.0 L 36.4 26.6 L 32.2 27.2 L 30.758471298217774 27.38802547454834 L 31.097058868408205 38.9 L 35.1 38.9 L 39.6 32.9 L 45.6 38.9 L 45.6 42.9 L 31.214705848693846 42.9 L 31.535294151306154 53.8 L 35.1 53.8 L 39.6 47.8 L 45.6 53.8 L 45.6 57.8 L 31.652941131591795 57.8 L 32.04117650985718 71.0 L 47.2 71.0 L 47.2 14.1 L 58.2 19.6 L 80.2 19.6 L 85.2 14.6 L 95.0 23.419999980926512 L 95.0 21.8 L 107.2 21.8 L 113.2 16.8 L 124.2 25.8 L 119.2 28.8 L 118.17243890762329 29.22815046310425 L 117.9344108581543 67.47132425308227 L 119.7 66.0 L 130.7 75.0 L 125.7 78.0 L 121.20260868072509 79.87391300201416 L 120.4 80.8 L 118.9 82.4 L 117.3 84.1 L 115.6 85.9 L 113.8 87.8 L 112.90802679061889 88.60702342987061 L 114.5 90.0 L 114.5 94.0 L 97.1 94.0 L 97.1 97.78571424484252 L 97.7 98.0 L 100.2 99.1 L 102.7 100.4 L 105.1 101.7 L 107.3 103.2 L 109.5 104.8 L 111.5 106.5 L 113.4 108.3 L 115.2 110.2 L 116.0 114.7 L 113.5 118.5 L 112.32022476196289 118.68352060317993 L 122.3 127.0 L 122.3 131.0 L 85.11470584869384 131.0 L 87.1 132.5 L 91.3 135.6 L 95.4 138.5 L 99.4 141.1 L 103.3 143.4 L 107.2 145.4 L 111.0 147.2 L 114.8 148.6 L 118.5 149.8 L 122.2 150.6 L 130.1 153.0 L 118.4 163.3 L 114.1 161.4 L 109.9 159.3 L 105.8 156.8 L 101.8 154.0 L 99.4615385055542 152.09230766296386 L 100.2 153.2 L 95.59515151977538 153.83515148162843 L 95.4 154.1 L 92.4 158.1 L 89.0 161.9 L 87.2 163.8 L 85.2 165.6 L 83.36381912231445 167.17386932373046 L 88.1 168.5 L 92.7 170.1 L 97.0 171.6 L 101.1 173.2 L 104.9 174.9 L 108.3 176.6 L 111.6 178.3 L 114.0 182.2 L 113.4197138786316 184.81128778457642 L 118.5 181.2 L 126.2 174.4 L 133.5 166.8 L 140.2 158.1 L 146.5 148.4 L 150.47696342468262 140.994619846344 L 145.8 119.6 L 141.9 91.9 L 140.00134677886962 65.62263889312744 L 127.1 66.9 L 126.7 63.0 L 139.71871519088745 61.7110182762146 L 139.4 57.3 L 138.52123889923095 15.998230075836181 L 138.5 16.0 L 138.5 12.6 L 150.5 15.0 L 153.5 17.0 Z M 40.0 168.9 L 38.6 164.6 L 40.6 160.5 L 41.7 160.0 L 42.8 159.2 L 44.0 158.2 L 45.2 156.8 L 46.3 155.1 L 47.5 153.0 L 48.6 150.7 L 49.6 148.1 L 50.7 145.1 L 51.1 141.9 L 52.9 142.0 L 53.0 145.3 L 53.4 148.6 L 53.6 151.6 L 53.6 154.5 L 53.3 157.3 L 52.9 160.0 L 52.2 162.6 L 51.3 165.0 L 50.1 167.3 L 48.5 169.5 L 44.2 170.9 Z M 102.5 111.0 L 101.3 109.1 L 100.0 107.2 L 98.6 105.2 L 97.1 103.2 L 97.1 121.0 L 85.1 127.0 L 85.1 110.81071424484253 L 82.6 113.4 L 79.7 116.2 L 76.5 118.8 L 73.0 121.2 L 69.6 123.6 L 68.3 122.3 L 70.9 119.0 L 71.55882349014283 118.01176471710205 L 71.00634441375732 118.0308156967163 L 68.7 121.7 L 64.7651515007019 127.0 L 100.3 127.0 L 108.45714282989502 118.84285717010498 L 105.2 116.7 L 104.4 114.8 Z M 76.1 51.0 L 76.1 62.2 L 67.1 66.7 L 67.1 62.2 L 58.2 62.2 L 58.2 71.0 L 80.2 71.0 L 80.2 48.95 Z M 90.2 26.6 L 90.2 71.0 L 105.8528455734253 71.0 L 106.20162601470948 57.8 L 92.4 57.8 L 92.4 53.8 L 106.30731706619262 53.8 L 106.59532518386841 42.9 L 92.4 42.9 L 92.4 38.9 L 106.70101623535156 38.9 L 107.0471544265747 25.8 L 95.0 25.8 L 95.0 23.719999980926513 Z M 58.2 48.5 L 58.2 58.2 L 67.1 58.2 L 67.1 48.5 Z M 58.2 23.6 L 58.2 33.0 L 64.4777777671814 33.0 L 70.7 26.0 L 78.7 33.0 L 78.7 37.0 L 58.2 37.0 L 58.2 44.5 L 67.1 44.5 L 71.6 39.5 L 80.2 47.64736843109131 L 80.2 23.6 Z " />
</g>
</svg>
