<svg xmlns="http://www.w3.org/2000/svg" xmlns:xlink="http://www.w3.org/1999/xlink" version="1.1" baseProfile="full" viewBox="0 0 200 200" width="200" height="200">
<g fill="black">
<path d="M 136.11422843933104 18.731462955474854 L 137.2 54.2 L 138.96161499023438 71.49585599899292 L 166.05102529525757 67.3380952835083 L 174.4 55.9 L 187.8 64.0 L 188.4 67.9 L 139.3619583129883 75.42649993896484 L 140.5 86.6 L 145.5 112.7 L 148.27687997817992 122.1876732826233 L 151.2 114.6 L 155.5 101.5 L 159.4 87.3 L 159.46444444656373 87.31777782440186 L 159.9 85.7 L 171.0 90.5 L 173.4 93.2 L 169.7970051765442 94.21136693954467 L 166.3 105.0 L 161.2 118.5 L 155.6 130.9 L 152.79222536087036 136.23477172851562 L 158.1 148.7 L 164.9 159.8 L 171.2 167.2 L 176.6 171.6 L 176.9448275566101 171.77241382598876 L 182.2 149.0 L 184.2 149.0 L 182.2744680404663 174.0319149017334 L 186.4 175.8 L 188.2 180.0 L 186.4 184.2 L 182.2 186.0 L 176.6 184.9 L 170.2 181.7 L 162.9 175.8 L 155.2 166.9 L 147.5 154.2 L 145.31868438720704 149.15010499954224 L 143.1 152.7 L 136.2 162.0 L 128.8 170.2 L 120.9 177.3 L 112.6 183.2 L 103.9 187.7 L 103.0 186.2 L 110.4 180.1 L 117.3 173.4 L 123.9 165.8 L 130.1 157.5 L 136.0 148.2 L 140.90568428039552 138.9337074279785 L 140.2 137.3 L 133.8 115.5 L 128.7 88.3 L 127.57037363052368 77.23630628585815 L 111.66604022979736 79.6773491859436 L 111.5 80.3 L 110.7 83.2 L 108.7 89.2 L 107.5 92.2 L 106.2 95.2 L 104.8 98.2 L 103.2 101.1 L 101.8 104.2 L 100.1 103.7 L 100.6 100.4 L 100.8 97.1 L 100.9 93.9 L 101.1 90.8 L 101.2 87.7 L 101.3 84.7 L 101.3 83.875 L 101.0 84.0 L 101.0 76.0 L 13.0 76.0 L 13.0 72.0 L 101.0 72.0 L 107.0 67.0 L 116.67557716369629 74.91638126373292 L 127.16906175613403 73.30581102371215 L 125.3 55.0 L 124.03241224288941 15.997299003601075 L 124.0 16.0 L 124.0 12.6 L 136.0 15.0 L 139.0 17.0 Z M 61.0 173.0 L 81.0 173.0 L 82.2 172.9 L 83.1 172.7 L 84.0 172.4 L 84.4 172.0 L 84.7 171.1 L 84.9 170.2 L 85.0 169.0 L 85.0 147.0 L 62.427272701263426 147.0 L 63.7 148.0 L 65.4 148.8 L 67.0 149.8 L 68.6 151.0 L 70.1 152.4 L 71.5 154.0 L 72.8 155.7 L 74.0 157.6 L 75.1 159.6 L 76.1 161.7 L 75.3 166.2 L 71.6 168.9 L 67.1 168.1 L 64.4 164.4 L 64.4 160.8 L 64.3 159.1 L 63.9 155.9 L 63.6 154.3 L 63.2 152.7 L 62.2 149.5 L 61.1 148.3 L 62.21428575515747 147.0 L 55.0 147.0 L 55.0 146.05 L 51.5 148.5 L 51.5 169.0 L 40.5 174.5 L 40.5 167.0 L 32.5 167.0 L 32.5 170.0 L 21.5 175.5 L 21.5 135.5 L 32.5 141.0 L 40.5 141.0 L 46.0 136.0 L 55.0 143.71428575515748 L 55.0 143.0 L 85.0 143.0 L 85.0 130.0 L 13.0 130.0 L 13.0 126.0 L 98.77777776718139 126.0 L 105.0 119.0 L 113.0 126.0 L 113.0 130.0 L 97.0 130.0 L 97.0 143.0 L 102.5 143.0 L 107.0 137.0 L 113.0 143.0 L 113.0 147.0 L 97.0 147.0 L 97.0 169.0 L 96.8 171.5 L 96.4 174.0 L 95.6 176.4 L 94.3 178.7 L 92.7 180.7 L 90.7 182.3 L 88.4 183.6 L 86.0 184.4 L 83.5 184.8 L 81.0 185.0 L 81.0 179.0 L 61.0 176.0 Z M 32.5 145.0 L 32.5 163.0 L 40.5 163.0 L 40.5 145.0 Z M 21.0 110.0 L 54.0 110.0 L 54.0 93.0 L 27.0 93.0 L 27.0 89.0 L 74.81818180084228 89.0 L 83.0 80.0 L 93.0 89.0 L 93.0 93.0 L 66.0 93.0 L 66.0 110.0 L 84.77777776718139 110.0 L 91.0 103.0 L 99.0 110.0 L 99.0 114.0 L 21.0 114.0 Z M 23.0 56.0 L 54.0 56.0 L 54.0 38.0 L 14.0 38.0 L 14.0 34.0 L 54.0 34.0 L 54.0 13.0 L 66.0 15.0 L 69.0 17.0 L 66.0 18.8 L 66.0 34.0 L 86.0 34.0 L 96.0 24.0 L 108.0 34.0 L 108.0 38.0 L 66.0 38.0 L 66.0 56.0 L 81.81818180084228 56.0 L 90.0 47.0 L 100.0 56.0 L 100.0 60.0 L 23.0 60.0 Z M 163.3 42.8 L 161.8 40.2 L 160.2 37.6 L 158.2 35.0 L 156.1 32.4 L 153.7 29.8 L 151.2 27.3 L 148.4 24.6 L 145.2 22.2 L 146.1 20.6 L 149.9 22.1 L 153.6 23.6 L 157.1 25.3 L 160.5 27.2 L 163.6 29.3 L 166.5 31.6 L 169.3 34.1 L 171.8 36.7 L 174.2 39.5 L 176.3 42.5 L 176.6 47.1 L 173.8 50.6 L 169.2 51.0 L 165.7 48.1 L 164.6 45.4 Z " />
</g>
</svg>
