<svg xmlns="http://www.w3.org/2000/svg" xmlns:xlink="http://www.w3.org/1999/xlink" version="1.1" baseProfile="full" viewBox="0 0 200 200" width="200" height="200">
<g fill="black">
<path d="M 55.8 179.7 L 54.2 181.6 L 52.4 183.3 L 50.5 184.7 L 48.3 185.9 L 46.0 186.8 L 43.6 187.5 L 41.2 187.8 L 38.7 188.0 L 38.7 182.0 L 24.7 179.0 L 24.7 176.0 L 38.7 176.0 L 40.0 175.9 L 41.2 175.7 L 42.3 175.4 L 43.2 175.1 L 44.8 174.1 L 45.5 173.4 L 46.2 172.6 L 46.8 171.6 L 47.5 170.4 L 48.9 166.9 L 50.2 162.9 L 51.4 158.1 L 52.5 152.7 L 53.4 146.6 L 54.3 139.9 L 54.9 132.6 L 55.5 124.6 L 55.9 116.0 L 56.052173900604245 109.0 L 28.443351554870606 109.0 L 27.1 121.5 L 14.5 126.2 L 21.7 59.4 L 32.05833330154419 66.0 L 55.3 66.0 L 55.3 29.0 L 15.1 29.0 L 15.1 25.0 L 55.3 25.0 L 61.3 20.0 L 72.3 29.0 L 67.3 33.0 L 67.3 76.0 L 55.3 82.0 L 55.3 70.0 L 32.634608364105226 70.0 L 28.87322406768799 105.0 L 56.1 105.0 L 62.1 100.0 L 73.1 109.0 L 68.1 112.0 L 67.99481220245362 112.04382829666137 L 67.9 116.5 L 67.5 125.3 L 66.9 133.5 L 66.2 141.2 L 65.3 148.3 L 64.3 154.8 L 63.1 160.7 L 61.7 166.2 L 60.1 171.1 L 58.3 175.4 L 57.2 177.7 Z M 173.1 93.7 L 172.8 91.2 L 172.4593662261963 89.42870454788208 L 172.3 89.5 L 168.7 91.4 L 165.1 93.1 L 161.6 94.7 L 158.2 96.2 L 155.04186916351318 97.53981304168701 L 156.1 98.1 L 157.7 99.0 L 159.3 100.0 L 160.8 101.1 L 162.2 102.3 L 163.7 103.5 L 165.0 104.8 L 166.4 106.1 L 167.7 107.5 L 168.1 112.0 L 165.2 115.6 L 160.7 116.0 L 157.1 113.1 L 156.8 111.6 L 156.4 110.0 L 156.0 108.5 L 155.5 106.9 L 155.1 105.3 L 154.5 103.7 L 154.0 102.0 L 153.4 100.4 L 152.8 98.6 L 152.73058156967164 98.50975608825684 L 148.7 100.2 L 146.90547943115234 100.91780824661255 L 145.5 104.9 L 142.8 102.5 L 138.20003690719605 92.07967538833618 L 139.7 102.8 L 142.96243906021118 118.0 L 164.6 118.0 L 174.6 108.0 L 186.6 118.0 L 186.6 122.0 L 143.8209755897522 122.0 L 144.1 123.3 L 149.4 140.4 L 152.81210374832153 148.0772334098816 L 157.2 141.4 L 161.4 134.0 L 164.93661985397338 127.01517581939697 L 164.9 127.0 L 165.9 125.0 L 176.0 131.6 L 177.8 134.7 L 174.00798931121827 134.96151800155639 L 171.2 139.7 L 166.1 147.3 L 160.6 154.5 L 157.7794952392578 157.65514087677002 L 161.8 164.0 L 168.4 170.8 L 174.9 174.6 L 175.7134160041809 174.77519731521608 L 181.2 151.0 L 183.2 151.0 L 181.27892894744872 175.97392320632935 L 181.4 176.0 L 185.6 177.9 L 187.2 182.2 L 185.3 186.3 L 181.0 187.9 L 170.6 185.8 L 160.9 180.2 L 152.3 171.3 L 149.17562551498412 166.4489974975586 L 148.4 167.2 L 141.8 172.7 L 134.9 177.7 L 127.6 182.1 L 119.9 185.8 L 111.9 188.8 L 111.1 187.1 L 118.1 182.5 L 124.7 177.6 L 130.9 172.4 L 136.8 167.0 L 142.4 161.2 L 144.41225709915162 158.84603881835938 L 138.1 144.5 L 132.5 126.4 L 131.56296300888062 122.0 L 108.62727270126342 122.0 L 108.0 128.9 L 106.71999998092652 136.58000001907348 L 107.2 136.9 L 110.3 138.7 L 113.2 140.8 L 116.0 143.0 L 118.5 145.3 L 120.9 147.8 L 123.1 150.4 L 125.2 153.1 L 127.0 156.0 L 128.7 159.0 L 128.6 163.5 L 125.4 166.7 L 120.8 166.6 L 117.6 163.4 L 116.9 160.7 L 116.0 158.0 L 115.0 155.4 L 113.8 152.7 L 112.4 150.0 L 110.9 147.3 L 109.2 144.6 L 107.4 141.8 L 106.01538457870484 139.79230766296388 L 104.7 145.4 L 102.2 153.0 L 99.2 160.3 L 95.7 167.1 L 91.6 173.5 L 87.0 179.4 L 81.8 184.8 L 76.0 189.6 L 74.7 188.3 L 78.9 182.3 L 82.6 176.3 L 86.0 170.1 L 88.9 163.7 L 91.3 157.1 L 93.3 150.3 L 94.9 143.1 L 96.0 135.6 L 96.6 127.9 L 96.67468357086182 122.0 L 72.7 122.0 L 72.7 118.0 L 130.7111110687256 118.0 L 127.9 104.8 L 124.4 79.9 L 122.0 51.3 L 121.03087215423584 19.997170066833498 L 121.0 20.0 L 120.9 16.7 L 133.0 18.9 L 136.0 20.8 L 133.1163366317749 22.587871265411376 L 134.0 50.6 L 136.3 78.5 L 138.09766035079957 91.34798412322998 L 139.8 90.9 L 142.8 90.5 L 145.9 90.1 L 147.1252474784851 89.91435642242432 L 148.9 85.3 L 150.9 80.3 L 153.1 75.3 L 155.4 70.2 L 157.6 65.2 L 159.8 60.1 L 162.1 55.0 L 166.5 44.6 L 168.30951833724976 40.24070587158203 L 168.2 40.2 L 169.2 38.1 L 179.5 44.4 L 181.4 47.5 L 177.58114690780639 47.89505376815796 L 173.9 54.6 L 168.1 64.4 L 165.1 69.2 L 162.0 73.9 L 158.9 78.5 L 155.6 83.0 L 152.1 87.3 L 150.21103792190553 89.45131797790528 L 152.6 89.1 L 156.1 88.6 L 159.7 88.1 L 163.5 87.6 L 167.4 87.1 L 171.5 86.7 L 171.84972772598266 86.64882030487061 L 171.7 86.0 L 171.0 83.3 L 170.1 80.6 L 169.1 77.8 L 168.0 75.0 L 166.4 72.3 L 167.8 71.1 L 170.1 73.4 L 172.5 75.5 L 174.7 77.8 L 176.8 80.3 L 178.6 82.8 L 180.3 85.5 L 181.8 88.2 L 183.1 91.1 L 184.2 94.1 L 185.1 97.1 L 184.0 101.5 L 180.1 103.9 L 175.6 102.7 L 173.3 98.8 L 173.2 96.3 Z M 113.7 96.9 L 113.5 94.6 L 113.38679246902466 93.65660381317139 L 113.3 93.7 L 109.6 95.6 L 105.8 97.3 L 102.0 98.9 L 98.3 100.5 L 94.5 102.0 L 87.1 104.8 L 83.85454549789429 106.06212120056152 L 82.5 109.9 L 79.8 107.5 L 74.9 96.4 L 76.8 95.9 L 84.4 94.7 L 87.49969968795776 94.14364366531372 L 88.7 91.0 L 90.8 85.6 L 93.1 80.2 L 95.3 74.9 L 97.6 69.5 L 99.8 64.2 L 104.2 53.4 L 106.3 47.9 L 107.9593406677246 43.419780254364014 L 107.9 43.4 L 108.8 41.2 L 119.3 47.2 L 121.3 50.3 L 117.5919322013855 50.74752540588379 L 116.7 52.6 L 113.9 57.9 L 111.1 63.1 L 108.2 68.2 L 105.2 73.3 L 102.1 78.4 L 98.9 83.3 L 95.5 88.2 L 92.0 92.9 L 91.484872341156 93.5100196838379 L 96.1 92.8 L 100.1 92.2 L 108.3 91.0 L 112.4 90.6 L 112.94953269958496 90.53457946777344 L 112.8 89.6 L 112.2 87.1 L 111.4 84.4 L 110.5 81.7 L 109.6 78.9 L 108.1 76.3 L 109.5 75.2 L 111.6 77.5 L 113.9 79.6 L 116.0 81.8 L 117.9 84.2 L 119.6 86.7 L 121.2 89.2 L 122.6 91.9 L 123.7 94.6 L 124.7 97.4 L 125.5 100.3 L 124.2 104.7 L 120.2 106.9 L 115.8 105.6 L 113.6 101.6 L 113.7 99.3 Z M 86.6 61.9 L 85.7 59.7 L 84.7 57.5 L 83.6 55.3 L 82.3 53.0 L 80.9 50.8 L 79.4 48.5 L 77.7 46.2 L 75.6 44.3 L 76.7 42.8 L 79.2 44.3 L 82.0 45.5 L 84.5 47.0 L 87.0 48.6 L 87.88344373703003 49.29139070510864 L 88.2 48.5 L 89.5 44.5 L 90.8 40.6 L 92.1 37.0 L 93.3 33.4 L 94.5 30.0 L 95.5 26.7 L 96.5 23.6 L 97.4 20.5 L 97.91459932327271 18.634577369689943 L 97.8 18.6 L 98.13962268829346 17.81886796951294 L 98.2 17.6 L 98.2296100616455 17.611896896362303 L 98.8 16.3 L 109.4 22.1 L 111.4 25.1 L 107.31079139709473 25.734532356262207 L 106.1 27.8 L 104.3 30.8 L 102.4 33.8 L 100.4 36.9 L 96.0 43.3 L 93.5 46.6 L 90.8 49.9 L 89.9736433982849 51.012403106689455 L 91.5 52.4 L 93.5 54.5 L 95.5 56.7 L 97.3 59.0 L 98.9 61.5 L 99.0 66.1 L 95.9 69.4 L 91.3 69.5 L 88.0 66.4 L 87.3 64.1 Z M 145.9 60.6 L 145.1 58.6 L 144.2 56.6 L 143.2 54.5 L 142.0 52.3 L 140.7 50.1 L 139.3 47.8 L 137.8 45.4 L 135.8 43.3 L 137.0 41.9 L 139.4 43.6 L 142.0 44.9 L 144.5 46.5 L 146.7 48.1 L 146.97753219604493 48.3144567489624 L 147.2 47.8 L 148.5 44.1 L 149.8 40.5 L 151.1 37.0 L 152.3 33.6 L 153.5 30.3 L 155.5 23.9 L 156.4 20.8 L 156.94871797561646 18.742307662963867 L 156.8 18.7 L 157.7 16.4 L 168.4 22.0 L 170.5 24.9 L 166.43171939849853 25.67157049179077 L 165.1 28.1 L 163.3 31.1 L 161.4 34.2 L 159.3 37.2 L 157.2 40.3 L 154.9 43.3 L 152.4 46.4 L 149.7 49.3 L 149.12222223281861 49.98888893127442 L 150.9 51.5 L 152.9 53.4 L 154.6 55.3 L 156.3 57.3 L 157.8 59.4 L 158.0 64.0 L 154.9 67.4 L 150.4 67.5 L 147.0 64.5 L 146.5 62.6 Z " />
</g>
</svg>
