<svg xmlns="http://www.w3.org/2000/svg" xmlns:xlink="http://www.w3.org/1999/xlink" version="1.1" baseProfile="full" viewBox="0 0 200 200" width="200" height="200">
<g fill="black">
<path d="M 129.73772859573364 104.65736284255982 L 130.8 121.0 L 132.13652801513672 127.32885313034058 L 163.61584911346435 126.25202341079712 L 169.59692306518554 119.85846157073975 L 167.4 120.8 L 163.1 119.3 L 162.3 118.1 L 161.1 116.7 L 159.6 115.3 L 157.9 113.8 L 155.8 112.3 L 153.5 110.8 L 150.9 109.2 L 148.1 107.6 L 145.0 105.9 L 141.6 104.6 L 142.0 102.8 L 145.7 103.5 L 149.3 103.7 L 152.7 104.2 L 155.9 104.8 L 158.9 105.4 L 161.7 106.2 L 164.3 107.1 L 166.8 108.1 L 169.1 109.2 L 171.3 110.5 L 173.1 114.7 L 172.3135549545288 116.95447568893432 L 173.3 115.9 L 185.6 125.5 L 185.8 129.4 L 132.95565786361695 131.2076742172241 L 134.2 137.1 L 139.2 149.6 L 143.83839197158812 156.82372512817383 L 144.3 156.5 L 151.3 150.6 L 157.5 144.2 L 162.42009181976317 138.3134614944458 L 162.4 138.3 L 163.5 137.0 L 172.4 145.0 L 173.5 148.4 L 169.72113752365112 147.8787775993347 L 165.7 152.2 L 158.2 158.7 L 150.37356338500976 164.4007378578186 L 152.0 166.1 L 158.9 170.9 L 165.6 174.1 L 171.6 175.9 L 173.98156681060792 176.3465437889099 L 179.6 152.0 L 181.6 152.0 L 179.6744680404663 177.0319149017334 L 183.8 178.8 L 185.6 183.0 L 183.8 187.2 L 179.6 189.0 L 175.1 188.7 L 168.9 187.6 L 161.3 185.3 L 152.9 181.3 L 144.2 175.2 L 139.80074558258056 170.64173641204835 L 131.8 174.6 L 121.7 178.6 L 110.9 182.0 L 99.5 184.7 L 87.4 186.6 L 74.7 187.8 L 74.4 186.1 L 86.7 182.9 L 98.1 179.5 L 108.9 175.7 L 118.9 171.6 L 128.1 167.0 L 133.9130489349365 163.51217060089112 L 128.5 155.1 L 122.7 140.6 L 120.80492324829102 131.62332077026366 L 98.1 132.4 L 97.9 128.5 L 119.98605909347535 127.7444905281067 L 118.9 122.6 L 117.56446657180786 101.99462776184082 L 117.5 102.0 L 117.5 98.6 L 129.5 101.0 L 132.5 103.0 Z M 33.2 108.7 L 77.5 108.7 L 83.5 103.7 L 94.5 112.7 L 89.5 116.7 L 89.5 168.9 L 77.5 174.9 L 77.5 168.9 L 33.2 168.9 L 33.2 180.9 L 21.2 186.9 L 21.2 102.7 Z M 33.2 149.4 L 33.2 164.9 L 77.5 164.9 L 77.5 149.4 Z M 33.2 131.0 L 33.2 145.4 L 77.5 145.4 L 77.5 131.0 Z M 33.2 112.7 L 33.2 127.0 L 77.5 127.0 L 77.5 112.7 Z M 129.74003887176514 17.55597667694092 L 130.8 33.7 L 132.13198919296264 39.929008388519286 L 163.61584911346435 38.852023410797116 L 169.35739011764525 32.71451396942139 L 167.4 33.6 L 163.1 32.1 L 162.3 30.9 L 161.1 29.5 L 159.6 28.1 L 157.9 26.6 L 155.8 25.2 L 153.5 23.6 L 150.9 22.1 L 148.1 20.5 L 145.0 18.8 L 141.6 17.5 L 142.0 15.7 L 145.7 16.3 L 149.3 16.6 L 152.7 17.1 L 155.9 17.6 L 158.9 18.3 L 161.7 19.0 L 164.3 19.9 L 166.8 20.9 L 169.1 22.0 L 171.2 23.3 L 173.1 27.4 L 172.3691816329956 29.495012760162354 L 173.3 28.5 L 185.6 38.1 L 185.8 42.1 L 132.9825761795044 43.906753349304196 L 134.2 49.6 L 139.2 62.0 L 143.8277060508728 69.13121910095215 L 144.3 68.8 L 151.3 62.9 L 157.5 56.7 L 162.42009181976317 50.813461494445804 L 162.4 50.8 L 163.5 49.5 L 172.4 57.5 L 173.5 61.0 L 169.6042544364929 60.46265573501587 L 165.7 64.6 L 158.2 71.1 L 150.47350664138793 76.72793960571289 L 152.0 78.3 L 158.8 83.1 L 165.5 86.2 L 171.6 88.0 L 173.98156681060792 88.4465437889099 L 179.6 64.1 L 181.6 64.1 L 179.67460031509398 89.13019542694092 L 183.8 90.8 L 185.6 95.1 L 183.8 99.3 L 179.6 101.1 L 175.1 100.8 L 168.9 99.7 L 161.3 97.4 L 152.9 93.5 L 144.2 87.5 L 139.79036540985106 82.93098096847534 L 131.8 86.8 L 121.7 90.8 L 110.9 94.1 L 99.5 96.8 L 87.4 98.7 L 74.7 99.9 L 74.4 98.1 L 86.7 95.0 L 98.2 91.6 L 108.9 87.9 L 118.9 83.7 L 128.1 79.2 L 133.89256887435914 75.79260654449463 L 128.6 67.6 L 122.7 53.2 L 120.80497817993164 44.32331886291504 L 98.1 45.1 L 97.9 41.1 L 119.95578651428222 40.345526123046874 L 118.9 35.4 L 117.56476488113404 14.894602966308593 L 117.5 14.9 L 117.5 11.5 L 129.5 13.9 L 132.5 15.9 Z M 33.2 21.5 L 77.5 21.5 L 83.5 16.5 L 94.5 25.5 L 89.5 29.5 L 89.5 81.2 L 77.5 87.2 L 77.5 81.2 L 33.2 81.2 L 33.2 93.2 L 21.2 99.2 L 21.2 15.5 Z M 33.2 61.8 L 33.2 77.2 L 77.5 77.2 L 77.5 61.8 Z M 33.2 43.7 L 33.2 57.8 L 77.5 57.8 L 77.5 43.7 Z M 33.2 25.5 L 33.2 39.7 L 77.5 39.7 L 77.5 25.5 Z " />
</g>
</svg>
