<svg xmlns="http://www.w3.org/2000/svg" xmlns:xlink="http://www.w3.org/1999/xlink" version="1.1" baseProfile="full" viewBox="0 0 200 200" width="200" height="200">
<g fill="black">
<path d="M 149.67045736312866 18.757725620269774 L 150.2 47.0 L 150.58162546157837 53.0 L 167.4 53.0 L 177.4 43.0 L 189.4 53.0 L 189.4 57.0 L 150.8360424041748 57.0 L 152.0 75.3 L 154.7 99.8 L 158.2 120.7 L 158.60552978515625 122.3703966140747 L 159.0 121.4 L 163.3 107.9 L 167.0 93.4 L 169.9012550354004 78.80013599395753 L 169.9 78.8 L 169.93243246078492 78.64324321746827 L 170.1 77.8 L 170.10662918090821 77.8012921333313 L 170.5 75.9 L 181.9 80.1 L 184.5 82.6 L 181.01043853759765 83.86893148422241 L 178.1 96.2 L 173.6 111.1 L 168.3 125.0 L 162.4 137.8 L 162.36587886810304 137.85945348739625 L 162.4 138.0 L 167.1 151.8 L 172.0 162.0 L 176.9 168.7 L 178.93385829925538 170.3866141319275 L 184.1 148.0 L 186.1 148.0 L 184.1744680404663 173.0319149017334 L 188.3 174.8 L 190.1 179.0 L 188.3 183.2 L 184.1 185.0 L 175.5 182.8 L 168.1 176.9 L 161.7 168.1 L 155.9 156.3 L 154.26147737503052 151.51294355392457 L 148.5 159.8 L 140.5 169.0 L 131.8 176.9 L 122.4 183.5 L 112.4 188.7 L 111.5 187.2 L 120.2 180.5 L 128.2 173.0 L 135.6 164.6 L 142.4 155.3 L 148.5 145.0 L 150.61887340545655 140.64667816162108 L 146.4 123.1 L 142.8 101.5 L 140.0 76.3 L 138.79375 57.0 L 94.4 57.0 L 94.4 53.0 L 138.54375 53.0 L 138.2 47.5 L 137.61843318939208 15.998463916778565 L 137.6 16.0 L 137.6 12.6 L 149.6 15.0 L 152.6 17.0 Z M 59.2 105.2 L 62.1 107.3 L 58.866993522644044 109.07498388290405 L 58.1 118.0 L 56.2 129.9 L 55.939999961853026 131.0 L 69.0 131.0 L 79.0 121.0 L 91.0 131.0 L 91.0 135.0 L 56.619999980926515 135.0 L 57.4 135.5 L 61.2 138.2 L 64.7 141.1 L 68.1 144.2 L 71.3 147.4 L 74.4 150.8 L 77.2 154.3 L 80.0 158.0 L 82.6 161.7 L 85.0 165.6 L 85.3 170.1 L 82.3 173.6 L 77.8 173.9 L 74.3 171.0 L 72.7 167.2 L 70.9 163.4 L 69.0 159.7 L 67.0 156.1 L 64.8 152.5 L 62.5 148.8 L 60.1 145.2 L 57.6 141.6 L 55.0 137.9 L 54.47465438842774 137.1995391845703 L 53.6 140.9 L 50.1 150.8 L 45.9 159.8 L 41.0 167.7 L 35.2 174.6 L 28.7 180.3 L 21.5 184.7 L 13.6 187.8 L 12.9 186.1 L 19.4 181.5 L 25.2 176.2 L 30.2 170.3 L 34.6 163.6 L 38.3 156.1 L 41.4 147.7 L 43.8 138.4 L 44.39417476654053 135.0 L 16.6 135.0 L 16.6 131.0 L 45.093203926086424 131.0 L 45.6 128.1 L 46.7 116.9 L 47.2 104.7 L 47.230264854431155 104.70126104354858 L 47.2515151977539 104.0 L 14.4 104.0 L 14.4 100.0 L 47.2 100.0 L 47.2 78.0 L 25.5 78.0 L 25.5 74.0 L 47.2 74.0 L 47.2 52.0 L 18.8 52.0 L 18.8 48.0 L 40.3 48.0 L 39.2 47.7 L 36.9 43.8 L 36.9 41.2 L 36.8 38.6 L 36.6 36.1 L 36.3 33.6 L 35.9 31.0 L 35.4 28.5 L 34.8 26.0 L 34.1 23.4 L 33.3 20.7 L 32.0 18.3 L 33.5 17.2 L 35.4 19.3 L 37.5 21.3 L 39.5 23.5 L 41.2 25.8 L 42.9 28.3 L 44.4 30.8 L 45.7 33.5 L 46.9 36.3 L 47.9 39.2 L 48.8 42.2 L 47.6 46.6 L 45.16521739959717 48.0 L 59.544444465637206 48.0 L 60.1 46.0 L 60.9 42.3 L 61.7 38.8 L 62.6 35.4 L 64.2 28.6 L 65.8 22.2 L 66.5 19.0 L 66.97013292312622 16.91798276901245 L 66.9 16.9 L 67.13000001907349 16.210000038146973 L 67.2 15.9 L 67.22984294891357 15.91047124862671 L 67.7 14.5 L 78.6 19.9 L 80.7 22.7 L 76.73235292434693 23.535294151306154 L 75.6 25.8 L 74.0 28.8 L 72.4 31.9 L 70.6 34.9 L 68.8 38.0 L 66.9 41.0 L 64.9 44.1 L 62.7 47.2 L 62.18387098312378 48.0 L 69.41818180084229 48.0 L 77.6 39.0 L 87.6 48.0 L 87.6 52.0 L 59.2 52.0 L 59.2 74.0 L 63.918181800842284 74.0 L 72.1 65.0 L 82.1 74.0 L 82.1 78.0 L 59.2 78.0 L 59.2 100.0 L 71.2 100.0 L 81.2 90.0 L 93.2 100.0 L 93.2 104.0 L 54.1 104.0 Z M 93.0 114.0 L 97.8 112.4 L 102.6 110.7 L 107.4 109.1 L 113.0828763961792 107.04449148178101 L 113.0 100.0 L 113.0 70.0 L 125.0 72.0 L 128.0 74.0 L 125.0 75.8 L 125.0 100.0 L 124.83714561462402 102.96395044326782 L 126.2 102.5 L 131.0 100.9 L 135.7 99.4 L 140.6 98.1 L 141.4 99.8 L 137.4 102.8 L 133.3 105.7 L 129.0 108.4 L 124.7 111.0 L 124.2323263168335 111.26572370529175 L 123.4 118.0 L 122.0 126.6 L 120.0 134.9 L 117.6 142.9 L 114.6 150.5 L 111.2 157.9 L 107.3 164.8 L 102.8 171.4 L 97.7 177.5 L 96.2 176.4 L 99.5 169.5 L 102.5 162.4 L 105.2 155.3 L 107.5 148.0 L 109.4 140.5 L 110.9 132.9 L 112.1 125.0 L 112.74412593841552 117.54654302597046 L 111.3 118.3 L 106.8 120.6 L 102.2 122.9 L 101.32158298492432 123.31117391586304 L 100.5 127.2 L 97.5 125.1 L 91.2 114.8 Z M 166.4 36.8 L 164.4 33.0 L 163.2 31.1 L 161.8 29.2 L 160.3 27.2 L 158.6 25.1 L 156.8 23.0 L 154.6 21.2 L 155.5 19.7 L 158.1 21.0 L 160.8 22.0 L 163.4 23.1 L 165.9 24.4 L 168.2 25.8 L 170.4 27.2 L 172.5 28.9 L 174.5 30.6 L 176.4 32.4 L 178.1 34.3 L 178.7 38.9 L 175.9 42.5 L 171.4 43.1 L 167.7 40.4 L 167.1 38.6 Z " />
</g>
</svg>
