<svg xmlns="http://www.w3.org/2000/svg" xmlns:xlink="http://www.w3.org/1999/xlink" version="1.1" baseProfile="full" viewBox="0 0 200 200" width="200" height="200">
<g fill="black">
<path d="M 158.2 178.4 L 149.4 173.4 L 141.6 167.7 L 140.70838708877562 166.86083488464357 L 135.8 169.7 L 124.5 174.7 L 112.0 178.8 L 98.4 182.1 L 83.6 184.3 L 83.3 182.6 L 97.4 178.4 L 110.3 173.8 L 121.8 168.7 L 132.1 163.1 L 134.7571120262146 161.24897813796997 L 129.0 154.4 L 124.3 146.8 L 120.7 138.7 L 118.3 130.1 L 117.30879125595092 121.9 L 102.3 121.9 L 102.3 117.9 L 166.8 117.9 L 172.8 112.9 L 183.8 121.9 L 178.8 124.9 L 176.9671875 125.663671875 L 174.6 131.7 L 169.3 141.0 L 162.8 149.5 L 155.0 157.1 L 149.95243473052977 160.85763187408446 L 155.0 163.9 L 163.1 167.7 L 172.1 171.0 L 182.0 173.8 L 190.1 176.1 L 178.4 186.5 L 167.8 182.8 Z M 101.0 29.0 L 101.0 33.0 L 70.5 33.0 L 70.5 61.0 L 83.0 61.0 L 89.0 56.0 L 100.0 65.0 L 95.0 69.0 L 95.0 168.0 L 83.0 174.0 L 83.0 168.0 L 30.0 168.0 L 30.0 180.0 L 18.0 186.0 L 18.0 55.0 L 30.0 61.0 L 40.5 61.0 L 40.5 33.0 L 12.0 33.0 L 12.0 29.0 L 79.0 29.0 L 89.0 19.0 Z M 30.0 143.0 L 30.0 164.0 L 83.0 164.0 L 83.0 143.0 Z M 119.4037036895752 121.9 L 122.3 128.8 L 126.1 136.3 L 130.4 143.0 L 135.5 149.1 L 141.2 154.6 L 142.50911664962769 155.58687257766724 L 148.7 150.2 L 155.1 143.1 L 160.2 135.3 L 164.2 127.1 L 165.8545454978943 121.9 Z M 83.0 65.0 L 70.5 65.0 L 70.5 108.2 L 70.7 109.2 L 70.9 109.9 L 71.1 110.3 L 71.3 110.6 L 71.6 110.8 L 72.0 111.0 L 72.7 111.2 L 73.7 111.4 L 75.0 111.5 L 83.0 111.5 Z M 143.1656976699829 21.700581359863282 L 143.9 38.1 L 145.003071975708 44.930560779571536 L 162.84073810577394 43.168815994262694 L 168.58884382247925 36.1314154624939 L 165.5 34.7 L 164.8 33.3 L 163.0 30.5 L 161.8 29.0 L 160.5 27.5 L 159.0 26.0 L 157.4 24.5 L 155.7 22.9 L 153.8 21.3 L 151.6 20.1 L 152.2 18.5 L 154.7 19.2 L 157.3 19.6 L 159.7 20.1 L 162.1 20.7 L 164.4 21.4 L 166.6 22.3 L 168.7 23.2 L 170.7 24.3 L 172.6 25.4 L 174.4 26.7 L 175.9 31.1 L 174.47884340286254 34.013370990753174 L 184.8 41.0 L 185.1 44.9 L 145.62770776748658 48.79849796295166 L 146.5 54.2 L 150.3 66.8 L 152.73153295516968 71.76878471374512 L 156.7 67.1 L 161.2 60.7 L 165.3 53.8 L 165.8 52.9 L 175.6 59.8 L 177.2 63.1 L 173.32567567825316 63.1 L 170.5 67.2 L 164.9 74.0 L 158.7 80.2 L 158.19812049865723 80.61948137283325 L 159.9 82.9 L 164.9 87.5 L 169.7 90.4 L 174.0 92.1 L 174.4196318626404 92.1815951347351 L 180.0 68.0 L 182.0 68.0 L 180.07446804046631 93.0319149017334 L 184.2 94.8 L 186.0 99.0 L 184.2 103.2 L 180.0 105.0 L 176.0 104.7 L 170.8 103.6 L 164.5 101.2 L 157.8 97.1 L 151.0 91.0 L 148.77599573135376 87.96405763626099 L 144.7 90.7 L 137.0 94.9 L 128.7 98.5 L 120.0 101.4 L 110.8 103.5 L 101.1 104.8 L 100.8 103.1 L 109.8 99.9 L 118.2 96.3 L 126.0 92.5 L 133.3 88.3 L 139.9 83.7 L 143.76171426773072 80.52342853546142 L 139.1 71.2 L 134.8 56.9 L 133.69856357574463 49.97668504714966 L 104.1 52.9 L 103.8 49.0 L 133.0830662727356 46.107845306396484 L 132.0 39.3 L 131.04676542282104 18.99610290527344 L 131.0 19.0 L 131.0 15.6 L 143.0 18.0 L 146.0 20.0 Z M 51.5 33.0 L 51.5 61.0 L 59.5 61.0 L 59.5 33.0 Z M 70.0 121.9 L 67.7 121.1 L 65.5 119.9 L 63.6 118.3 L 62.0 116.4 L 60.8 114.2 L 60.0 111.9 L 59.6 109.5 L 59.5 107.0 L 59.5 65.0 L 51.39795913696289 65.0 L 51.0 72.8 L 50.3 81.9 L 49.2 90.4 L 47.8 98.2 L 46.0 105.3 L 43.9 111.7 L 41.4 117.4 L 38.5 122.3 L 35.2 126.4 L 31.6 129.5 L 30.3 128.4 L 32.4 124.4 L 34.2 120.0 L 35.8 115.2 L 37.2 109.7 L 38.4 103.6 L 39.3 96.8 L 40.0 89.4 L 40.4 81.2 L 40.6 72.4 L 40.52127656936646 65.0 L 30.0 65.0 L 30.0 139.0 L 83.0 139.0 L 83.0 122.5 L 75.0 122.5 L 72.4 122.3 Z " />
</g>
</svg>
