<svg xmlns="http://www.w3.org/2000/svg" xmlns:xlink="http://www.w3.org/1999/xlink" version="1.1" baseProfile="full" viewBox="0 0 200 200" width="200" height="200">
<g fill="black">
<path d="M 139.09793815612792 17.741237068176268 L 140.0 52.2 L 143.0 84.1 L 143.3301157951355 86.0 L 171.8181818008423 86.0 L 180.0 77.0 L 190.0 86.0 L 190.0 90.0 L 144.02509651184081 90.0 L 147.5 110.0 L 153.1 130.6 L 155.56969833374023 136.8937472343445 L 157.7 132.5 L 161.7 121.7 L 165.1 110.1 L 167.9 97.7 L 167.91366024017333 97.70291881561279 L 168.3 95.9 L 179.6 100.2 L 182.1 102.7 L 178.6015419960022 103.908558177948 L 176.1 113.2 L 171.8 125.4 L 166.8 136.7 L 160.9 147.0 L 160.18587923049927 148.0170810699463 L 165.6 157.9 L 171.7 165.7 L 177.0 170.3 L 177.75767917633056 170.71672353744506 L 183.0 148.0 L 185.0 148.0 L 183.07446804046631 173.0319149017334 L 187.2 174.8 L 189.0 179.0 L 187.2 183.2 L 183.0 185.0 L 176.8 183.7 L 170.1 180.2 L 162.9 173.9 L 155.6 164.5 L 152.35402240753174 158.63920707702636 L 147.0 164.8 L 138.9 172.2 L 130.1 178.6 L 120.5 183.8 L 110.3 187.8 L 109.6 186.1 L 118.6 180.5 L 126.42812604904175 174.5581693649292 L 121.4 172.0 L 115.8 168.7 L 110.3 165.1 L 105.0 161.1 L 99.8 156.7 L 94.8 152.1 L 89.9 147.0 L 88.75648078918456 145.68616943359376 L 90.2 153.0 L 90.2 160.0 L 89.1 166.1 L 87.4 171.2 L 85.5 175.2 L 83.2 178.2 L 81.4 179.7 L 79.4 181.1 L 77.4 182.3 L 75.4 183.4 L 73.2 184.3 L 71.0 185.1 L 68.8 185.7 L 66.5 186.1 L 64.1 186.3 L 61.7 186.4 L 61.7 180.4 L 45.7 177.4 L 45.7 174.4 L 61.7 174.4 L 63.3 174.3 L 64.8 174.2 L 67.6 173.6 L 69.0 173.1 L 70.3 172.6 L 71.5 171.9 L 72.8 171.1 L 74.0 170.3 L 75.2 169.3 L 75.9 168.7 L 77.4 166.5 L 79.0 163.0 L 80.2 158.6 L 80.8 153.4 L 80.70221405029297 152.24612550735475 L 75.3 155.7 L 68.9 159.4 L 62.0 162.9 L 54.8 166.0 L 47.1 168.9 L 39.1 171.5 L 30.7 173.8 L 21.9 175.7 L 12.6 177.2 L 12.2 175.4 L 20.8 172.1 L 29.0 168.7 L 36.8 165.4 L 44.2 161.9 L 51.2 158.4 L 57.7 154.7 L 63.7 150.8 L 69.3 146.8 L 74.5 142.7 L 77.72771081924438 139.8156626701355 L 74.71816625595093 134.11336765289306 L 71.8 135.9 L 66.6 138.7 L 61.0 141.4 L 55.2 144.0 L 48.9 146.4 L 42.4 148.6 L 35.5 150.7 L 28.2 152.6 L 20.6 154.1 L 12.6 155.4 L 12.2 153.7 L 19.5 150.5 L 26.6 147.5 L 33.3 144.5 L 39.6 141.6 L 45.5 138.6 L 51.1 135.6 L 56.3 132.6 L 61.2 129.5 L 65.6 126.3 L 67.37368841171265 124.92539148330688 L 61.69697589874268 118.98153953552246 L 59.5 120.1 L 53.4 122.8 L 46.9 125.4 L 39.8 127.8 L 32.3 130.0 L 24.2 132.0 L 15.5 133.7 L 15.0 131.9 L 23.0 128.4 L 30.4 125.0 L 37.4 121.7 L 43.8 118.4 L 49.7 115.2 L 55.0 112.0 L 59.7 108.8 L 63.8 105.6 L 31.0 105.6 L 31.0 101.6 L 95.3777777671814 101.6 L 101.6 94.6 L 109.6 101.6 L 109.6 105.6 L 81.52380952835082 105.6 L 78.8 107.8 L 74.7 111.1 L 70.1 114.3 L 65.0 117.3 L 64.38842792510987 117.61134576797485 L 72.0 122.0 L 80.0 129.6 L 80.26106872558594 129.9819338798523 L 83.8 132.9 L 89.4 137.4 L 90.34639177322387 138.15360822677613 L 91.6 136.9 L 94.6 133.6 L 97.4 130.5 L 100.2 127.5 L 102.8 124.7 L 105.2 122.0 L 107.5 119.4 L 109.6 116.9 L 111.5 114.5 L 112.5970193862915 113.08032789230347 L 112.5 113.0 L 113.5 112.0 L 121.8 120.7 L 122.5 124.2 L 118.42746953964233 123.27117729187012 L 116.7 124.6 L 114.0 126.6 L 111.0 128.6 L 107.9 130.7 L 104.6 132.8 L 101.1 135.0 L 97.4 137.2 L 93.5 139.3 L 92.5121934890747 139.87822818756104 L 94.8 141.7 L 100.1 145.7 L 105.5 149.3 L 110.8 152.7 L 116.1 155.7 L 121.5 158.4 L 126.8 160.7 L 132.2 162.7 L 136.88040990829467 164.67454795837403 L 141.3 159.8 L 147.5 151.5 L 148.0420781135559 150.58649797439574 L 141.7 134.4 L 135.8 112.6 L 131.85130109786988 90.0 L 14.0 90.0 L 14.0 86.0 L 131.15241632461547 86.0 L 131.1 85.7 L 128.1 53.0 L 127.02813901901246 14.99765510559082 L 127.0 15.0 L 127.0 11.6 L 139.0 14.0 L 142.0 16.0 Z M 56.173239421844485 68.22366199493408 L 53.6 69.4 L 49.9 70.8 L 46.0 72.1 L 42.1 73.3 L 33.9 75.7 L 29.6 76.8 L 25.2 78.0 L 24.842045497894286 78.0875 L 23.2 81.7 L 20.7 79.1 L 16.8 67.6 L 18.8 67.2 L 27.8 66.4 L 28.046559619903565 66.38279819488525 L 34.3 58.7 L 37.5 54.5 L 39.74944152832031 51.42576322555542 L 38.6 51.8 L 34.5 49.8 L 33.5 48.2 L 32.4 46.5 L 31.2 44.8 L 29.9 43.1 L 28.5 41.4 L 26.9 39.7 L 23.4 36.2 L 21.5 34.4 L 19.3 33.1 L 20.0 31.4 L 22.6 32.3 L 25.3 32.8 L 29.538525772094726 34.156328201293945 L 30.6 32.8 L 31.9 30.3 L 33.2 27.9 L 36.6 21.1 L 37.6 19.0 L 39.2 15.0 L 39.54222221374512 14.071111106872559 L 39.4 14.0 L 39.850704193115234 13.233802795410156 L 39.9 13.1 L 39.92162952423096 13.113229751586914 L 40.4 12.3 L 50.2 19.4 L 51.7 22.6 L 47.1 22.6 L 46.9 22.8 L 43.3 26.2 L 39.3 29.6 L 37.1 31.2 L 34.8 32.9 L 32.3 34.5 L 31.727218914031983 34.994674587249754 L 32.7 35.4 L 35.0 36.5 L 37.3 37.7 L 39.5 39.0 L 41.5 40.4 L 43.5 42.0 L 44.33569736480713 44.56678485870361 L 45.9 42.1 L 48.2 37.9 L 50.4 33.8 L 51.81217107772827 30.504934215545653 L 51.8 30.5 L 51.9 30.3 L 52.2 29.6 L 52.239925384521484 29.620149230957033 L 52.8 28.5 L 62.9 35.0 L 64.7 38.2 L 60.85228757858276 38.46535949707031 L 60.3 39.4 L 57.3 43.7 L 54.1 47.8 L 50.7 51.9 L 47.1 55.8 L 43.1 59.6 L 39.0 63.3 L 35.947368431091306 65.74210529327392 L 36.4 65.7 L 40.6 65.4 L 44.7 65.1 L 48.7 64.9 L 52.6 64.7 L 55.03333330154419 64.7 L 54.8 64.0 L 53.2 60.4 L 52.3 58.5 L 51.3 56.6 L 49.9 55.1 L 51.1 53.7 L 52.8 55.0 L 54.9 55.9 L 56.8 57.0 L 58.7 58.3 L 60.5 59.6 L 62.2 61.1 L 63.9 62.7 L 65.4 64.4 L 66.9 66.2 L 68.3 68.1 L 68.4 72.7 L 65.2 76.1 L 60.7 76.1 L 57.3 73.0 L 57.0 71.2 Z M 108.7 70.5 L 108.1 68.3 L 107.83599996566772 67.2880000114441 L 106.9 67.6 L 102.8 69.1 L 98.7 70.4 L 90.7 72.6 L 86.8 73.7 L 75.97489461898803 76.26384077072143 L 74.1 79.9 L 71.7 77.2 L 68.4 65.5 L 70.3 65.3 L 74.0 65.2 L 77.8 65.1 L 77.90350198745728 65.09455251693726 L 79.7 62.3 L 85.3 53.7 L 87.84489793777466 49.751020431518555 L 84.6 50.4 L 80.8 48.0 L 80.3 46.6 L 79.6 45.1 L 78.7 43.6 L 77.7 41.9 L 76.5 40.3 L 75.0 38.6 L 73.4 36.8 L 71.7 35.0 L 69.8 33.1 L 67.4 31.6 L 68.2 30.0 L 70.9 31.0 L 73.6 31.7 L 76.2 32.6 L 78.30526313781738 33.38947372436523 L 81.7 26.6 L 82.9 24.1 L 85.1 19.3 L 86.1 17.0 L 87.0 14.6 L 87.5255033493042 13.257046985626221 L 87.4 13.2 L 88.4 11.3 L 98.4 18.2 L 100.0 21.4 L 95.63847379684448 21.47519874572754 L 94.8 22.5 L 92.9 24.5 L 90.9 26.6 L 88.9 28.6 L 86.8 30.5 L 84.5 32.4 L 82.2 34.2 L 81.36666669845582 34.73333330154419 L 83.1 35.6 L 85.2 36.9 L 87.1 38.2 L 88.9 39.6 L 90.6 41.2 L 91.28659248352051 44.55667448043823 L 97.0 35.1 L 99.9 30.1 L 102.36229553222657 25.832021045684815 L 102.3 25.8 L 103.4 24.1 L 113.0 31.3 L 114.5 34.6 L 110.7354344367981 34.53509368896484 L 109.5 36.3 L 105.9 41.1 L 102.3 45.7 L 98.7 50.1 L 95.0 54.4 L 91.3 58.4 L 87.5 62.2 L 84.73484630584717 64.81961936950684 L 85.5 64.8 L 89.5 64.7 L 93.6 64.6 L 97.8 64.4 L 106.94347829818726 64.4 L 106.7 63.7 L 105.8 61.3 L 104.7 58.9 L 103.5 56.4 L 102.2 53.8 L 100.5 51.4 L 101.8 50.2 L 104.1 52.1 L 106.6 53.8 L 108.9 55.7 L 111.0 57.7 L 113.0 59.7 L 116.6 64.1 L 118.1 66.4 L 119.5 68.8 L 120.8 71.3 L 120.3 75.9 L 116.8 78.8 L 112.3 78.3 L 109.3 74.8 L 109.1 72.6 Z M 173.6 48.9 L 171.9 45.6 L 169.9 42.4 L 167.7 39.2 L 165.1 36.0 L 162.3 32.8 L 159.3 29.6 L 156.0 26.4 L 152.4 23.2 L 153.3 21.7 L 157.8 23.6 L 162.2 25.7 L 166.2 28.1 L 170.0 30.8 L 173.6 33.6 L 176.9 36.7 L 179.9 39.9 L 182.6 43.4 L 185.1 47.0 L 187.3 50.8 L 187.3 55.4 L 184.1 58.7 L 179.6 58.7 L 176.3 55.6 L 175.0 52.2 Z " />
</g>
</svg>
