<svg xmlns="http://www.w3.org/2000/svg" xmlns:xlink="http://www.w3.org/1999/xlink" version="1.1" baseProfile="full" viewBox="0 0 200 200" width="200" height="200">
<g fill="black">
<path d="M 147.68983449935914 18.746099281311036 L 148.6 56.7 L 149.74551544189453 70.52800741195679 L 168.15808792114257 68.92225980758667 L 177.4 58.0 L 190.2 67.0 L 190.5 70.9 L 150.06842679977416 74.42600927352905 L 151.4 90.5 L 155.6 117.3 L 158.13510665893554 127.49013471603394 L 161.3 120.7 L 166.3 108.0 L 170.7 94.1 L 170.71817893981932 94.10569076538086 L 171.2 92.6 L 182.2 97.7 L 184.4 100.5 L 180.83159923553467 101.39210023880005 L 176.9 112.0 L 171.1 125.2 L 164.6 137.3 L 162.02995777130127 141.33863773345948 L 166.3 152.7 L 171.9 162.9 L 177.1 169.1 L 180.36883716583253 171.6683720588684 L 185.6 149.0 L 187.6 149.0 L 185.6744101524353 174.03266792297364 L 189.7 175.8 L 191.6 180.0 L 189.7 184.2 L 185.6 186.0 L 180.9 185.3 L 175.2 182.7 L 168.7 177.7 L 162.0 169.6 L 155.4 157.7 L 153.7319525718689 153.28774538040162 L 150.0 158.1 L 141.8 166.7 L 133.0 174.2 L 123.7 180.4 L 115.58378381729126 184.41711711883545 L 114.6 185.3 L 114.14096775054932 185.13123817443847 L 113.8 185.3 L 103.5 188.8 L 102.8 187.1 L 109.42313594818116 183.39674119949342 L 107.8 182.8 L 101.5 179.8 L 95.7 176.3 L 90.2 172.4 L 85.3 168.0 L 80.8 163.1 L 76.9 157.8 L 73.5 152.1 L 70.7 145.9 L 68.93880596160889 140.0 L 68.16952381134033 140.0 L 66.0 146.7 L 61.4 156.1 L 55.5 164.3 L 48.4 171.3 L 40.2 176.9 L 31.0 181.3 L 20.7 184.2 L 9.4 185.8 L 9.1 184.1 L 19.6 180.6 L 28.7 176.4 L 36.6 171.4 L 43.3 165.7 L 48.8 159.1 L 53.2 151.6 L 56.6 143.3 L 57.40744676589966 140.0 L 11.9 140.0 L 11.9 136.0 L 58.3861701965332 136.0 L 58.9 133.9 L 60.2 123.5 L 60.317391300201415 119.0 L 19.9 119.0 L 19.9 115.0 L 60.42173910140991 115.0 L 60.5 112.0 L 60.5 99.0 L 35.2 99.0 L 35.2 102.0 L 23.2 108.0 L 23.2 63.0 L 35.2 69.0 L 60.5 69.0 L 60.5 56.0 L 51.8 56.0 L 39.8 62.0 L 39.8 35.0 L 8.6 35.0 L 8.6 31.0 L 39.8 31.0 L 39.8 12.0 L 51.8 14.0 L 54.8 16.0 L 51.8 17.8 L 51.8 31.0 L 81.1 31.0 L 81.1 12.0 L 93.1 14.0 L 96.1 16.0 L 93.1 17.8 L 93.1 31.0 L 102.3 31.0 L 112.3 21.0 L 124.3 31.0 L 124.3 35.0 L 93.1 35.0 L 93.1 56.0 L 81.1 62.0 L 81.1 56.0 L 72.5 56.0 L 72.5 69.0 L 97.7 69.0 L 103.7 64.0 L 114.7 73.0 L 109.7 77.0 L 109.7 101.0 L 97.7 107.0 L 97.7 99.0 L 72.5 99.0 L 72.5 112.0 L 72.2619047164917 115.0 L 94.81818180084228 115.0 L 103.0 106.0 L 113.0 115.0 L 113.0 119.0 L 71.9444444656372 119.0 L 71.5 124.6 L 69.43620691299438 136.0 L 99.0 136.0 L 109.0 126.0 L 121.0 136.0 L 121.0 140.0 L 71.46037731170654 140.0 L 74.4 143.8 L 78.4 148.8 L 82.5 153.3 L 86.8 157.3 L 91.4 160.9 L 96.1 164.0 L 101.2 166.8 L 106.5 169.1 L 112.1 171.0 L 118.1 172.6 L 123.13946723937988 173.95205221176147 L 128.8 169.2 L 136.3 161.5 L 143.4 152.8 L 149.8 143.1 L 149.84825735092164 143.01474533081054 L 149.2 141.3 L 143.8 119.7 L 139.5 92.0 L 138.1183769226074 75.46816482543946 L 121.7 76.9 L 121.4 73.0 L 137.79262800216674 71.57041034698486 L 136.6 57.3 L 135.6235941886902 15.998033809661866 L 135.6 16.0 L 135.6 12.6 L 147.6 15.0 L 150.6 17.0 Z M 35.2 73.0 L 35.2 95.0 L 60.5 95.0 L 60.5 73.0 Z M 72.5 73.0 L 72.5 95.0 L 97.7 95.0 L 97.7 73.0 Z M 51.8 35.0 L 51.8 52.0 L 81.1 52.0 L 81.1 35.0 Z M 168.1 39.7 L 166.8 37.2 L 165.4 34.6 L 163.8 32.1 L 162.0 29.6 L 160.1 27.1 L 158.0 24.5 L 155.5 22.3 L 156.5 20.7 L 159.6 22.4 L 162.7 23.8 L 165.7 25.6 L 168.5 27.5 L 171.2 29.7 L 173.7 32.0 L 176.0 34.4 L 178.1 37.1 L 180.1 39.9 L 181.9 42.8 L 181.9 47.4 L 178.7 50.7 L 174.2 50.7 L 170.9 47.5 L 170.1 44.9 Z " />
</g>
</svg>
