<svg xmlns="http://www.w3.org/2000/svg" xmlns:xlink="http://www.w3.org/1999/xlink" version="1.1" baseProfile="full" viewBox="0 0 200 200" width="200" height="200">
<g fill="black">
<path d="M 126.12705764770507 18.723765468597414 L 127.29658794403076 53.0 L 166.0 53.0 L 176.0 43.0 L 188.0 53.0 L 188.0 57.0 L 127.76603775024414 57.0 L 131.1 84.9 L 136.7 110.7 L 143.191268825531 129.9856538772583 L 144.6 127.9 L 151.5 115.3 L 157.6 101.7 L 162.9 87.0 L 162.9333333015442 87.01111106872558 L 163.5 85.5 L 174.3 90.8 L 176.5 93.7 L 172.8206124305725 94.47460794448853 L 168.1 106.2 L 161.0 120.3 L 153.0 133.3 L 147.95062437057496 140.07075366973876 L 151.3 146.9 L 159.2 158.4 L 166.7 166.2 L 173.5 171.0 L 176.59921159744263 172.40341653823853 L 182.0 149.0 L 184.0 149.0 L 182.07446804046631 174.0319149017334 L 186.2 175.8 L 188.0 180.0 L 186.2 184.2 L 182.0 186.0 L 175.3 184.8 L 167.6 181.5 L 158.9 175.3 L 149.9 166.0 L 140.9 153.0 L 139.50076332092286 150.13489637374877 L 134.4 155.6 L 123.8 164.9 L 112.4 172.9 L 100.1 179.6 L 87.1 184.9 L 73.2 188.8 L 72.7 187.1 L 85.6 181.4 L 97.6 174.9 L 108.7 167.5 L 118.9 159.1 L 128.3 149.7 L 135.20836448669434 141.34569873809815 L 132.5 135.8 L 125.1 113.9 L 119.2 86.9 L 115.7465045928955 57.0 L 12.0 57.0 L 12.0 53.0 L 115.36410255432129 53.0 L 114.03579034805298 15.99701747894287 L 114.0 16.0 L 114.0 12.6 L 126.0 15.0 L 129.0 17.0 Z M 96.3 72.3 L 91.3 75.3 L 88.1490797996521 76.61288347244263 L 87.2 78.0 L 85.8 79.9 L 84.2 81.8 L 82.6 83.6 L 80.8 85.5 L 79.0 87.3 L 76.9 89.1 L 76.21428575515748 90.0 L 91.41818180084229 90.0 L 99.6 81.0 L 109.6 90.0 L 109.6 94.0 L 74.5 94.0 L 74.5 107.7 L 90.4 107.7 L 96.4 102.7 L 107.4 111.7 L 102.4 115.7 L 102.4 166.3 L 90.4 172.3 L 90.4 166.3 L 37.0 166.3 L 37.0 178.3 L 25.0 184.3 L 25.0 101.7 L 37.0 107.7 L 48.0 107.7 L 48.0 94.0 L 18.3 94.0 L 18.3 90.0 L 73.85217390060424 90.0 L 75.0 87.8 L 75.8 85.3 L 76.5 82.9 L 77.2 80.6 L 77.8 78.3 L 78.8 74.1 L 79.06999998092651 72.3 L 28.4 72.3 L 28.4 68.3 L 79.3 68.3 L 85.3 63.3 Z M 37.0 153.3 L 37.0 162.3 L 90.4 162.3 L 90.4 153.3 Z M 87.1 129.8 L 89.1 129.8 L 87.1 134.8 L 89.1 136.2 L 90.4 138.0199999809265 L 90.4 111.7 L 74.5 111.7 L 74.5 128.3 L 74.4 129.7 L 74.4 130.8 L 74.5 131.6 L 74.7 132.3 L 75.3 133.3 L 75.9 133.8 L 76.8 134.2 L 78.0 134.6 L 79.5 134.8 L 83.6 134.8 Z M 37.0 111.7 L 37.0 142.49090909957886 L 37.9 142.0 L 40.6 139.7 L 42.8 137.2 L 44.6 134.5 L 46.0 131.4 L 47.1 128.0 L 47.8 124.2 L 48.2 119.9 L 48.3 115.1 L 48.10384616851807 111.7 Z M 58.0 94.0 L 58.0 107.7 L 64.5 107.7 L 64.5 94.0 Z M 155.0 34.3 L 153.6 31.9 L 152.0 29.6 L 150.3 27.3 L 148.3 25.0 L 146.2 22.7 L 143.9 20.4 L 141.4 18.1 L 138.5 16.2 L 139.2 14.6 L 142.6 15.8 L 146.0 16.8 L 149.3 18.2 L 152.4 19.8 L 155.4 21.5 L 158.1 23.5 L 160.8 25.7 L 163.3 28.1 L 165.6 30.6 L 167.7 33.4 L 168.2 37.9 L 165.4 41.6 L 160.9 42.1 L 157.2 39.3 L 156.2 36.8 Z M 74.9 141.6 L 72.8 141.0 L 70.8 140.1 L 68.9 138.8 L 67.4 137.2 L 66.2 135.2 L 65.3 133.0 L 64.7 130.7 L 64.5 128.3 L 64.5 111.7 L 57.82666664123535 111.7 L 57.7 115.5 L 56.9 121.0 L 55.7 126.0 L 54.1 130.5 L 51.9 134.5 L 49.3 138.0 L 46.2 140.8 L 42.8 142.9 L 39.0 144.3 L 37.0 144.8 L 37.0 149.3 L 90.4 149.3 L 90.4 138.58000001907348 L 89.1 140.4 L 87.1 141.8 L 77.1 141.8 Z " />
</g>
</svg>
