<svg xmlns="http://www.w3.org/2000/svg" xmlns:xlink="http://www.w3.org/1999/xlink" version="1.1" baseProfile="full" viewBox="0 0 200 200" width="200" height="200">
<g fill="black">
<path d="M 142.09547739028932 18.74271354675293 L 143.0 54.2 L 144.58662614822387 71.33556232452392 L 166.92438354492188 67.61260271072388 L 175.1 56.1 L 188.6 64.0 L 189.3 67.9 L 144.95288753509521 75.29118537902832 L 146.0 86.6 L 150.5 112.8 L 152.5359818458557 120.56689367294311 L 154.7 114.7 L 158.6 101.7 L 161.9 87.6 L 161.9136125564575 87.60314140319824 L 162.3 85.8 L 173.6 90.3 L 176.1 92.9 L 172.54139795303345 94.04383640289306 L 169.5 104.8 L 164.8 118.4 L 159.3 131.0 L 156.79734029769898 135.71812896728517 L 161.9 148.9 L 168.0 160.1 L 173.7 167.4 L 177.88804779052734 171.15179281234742 L 183.0 149.0 L 185.0 149.0 L 183.07446804046631 174.0319149017334 L 187.2 175.8 L 189.0 180.0 L 187.2 184.2 L 183.0 186.0 L 177.5 184.8 L 171.5 181.5 L 164.9 175.6 L 157.9 166.6 L 151.0 154.0 L 149.04471254348755 148.91625270843505 L 146.4 153.0 L 138.9 162.5 L 130.8 170.9 L 122.0 178.1 L 112.5 184.0 L 102.4 188.8 L 101.5 187.1 L 110.4 180.9 L 118.6 173.9 L 126.1 166.2 L 133.0 157.7 L 139.4 148.3 L 144.9724220275879 138.32829732894896 L 144.5 137.1 L 138.7 115.4 L 134.1 88.2 L 133.11479291915893 77.2642011642456 L 111.55 80.85833330154419 L 113.4 82.4 L 113.4 86.4 L 69.0 86.4 L 69.0 111.2 L 57.0 117.2 L 57.0 86.4 L 12.6 86.4 L 12.6 82.4 L 91.4 82.4 L 101.4 72.4 L 111.24723615646363 80.60603017807007 L 110.6 77.0 L 132.75828399658204 73.30695266723633 L 131.1 54.9 L 130.02750568389894 15.997707843780518 L 130.0 16.0 L 130.0 12.6 L 142.0 15.0 L 145.0 17.0 Z M 103.8 181.5 L 93.4 178.9 L 83.8 175.5 L 75.1 171.5 L 67.2 166.6 L 62.01462926864624 162.39158315658568 L 59.7 164.1 L 50.8 169.5 L 41.3 173.8 L 31.4 177.2 L 20.9 179.6 L 10.1 180.8 L 9.8 179.1 L 20.0 175.9 L 29.6 172.2 L 38.5 167.9 L 46.9 162.9 L 54.7 157.3 L 55.82435531616211 156.30057306289672 L 54.3 154.7 L 49.4 147.8 L 45.5 140.1 L 42.8 131.9 L 41.3 123.1 L 41.75 123.0 L 28.0 123.0 L 28.0 119.0 L 85.0 119.0 L 85.36845636367798 118.69295301437378 L 85.7 118.1 L 85.93010377883911 118.22491350173951 L 91.0 114.0 L 102.0 123.0 L 97.0 126.0 L 94.07095289230347 127.22043628692627 L 90.1 133.6 L 83.3 142.6 L 76.0 150.7 L 69.94412355422973 156.2192798614502 L 72.7 158.0 L 79.9 161.5 L 87.8 164.4 L 96.5 166.7 L 115.7 170.1 Z M 43.2384614944458 123.0 L 46.7 130.5 L 50.8 137.4 L 55.3 143.6 L 60.5 149.1 L 62.242634773254395 150.53690938949586 L 68.6 143.8 L 74.8 136.0 L 80.5 127.4 L 82.96021509170532 123.0 Z M 47.3 74.0 L 46.0 72.2 L 44.5 70.3 L 42.9 68.5 L 41.1 66.7 L 39.0 64.9 L 36.8 63.2 L 34.4 61.4 L 31.6 60.1 L 32.2 58.4 L 35.3 59.1 L 38.4 59.5 L 41.4 60.2 L 44.3 61.2 L 47.1 62.3 L 49.8 63.7 L 52.3 65.2 L 54.8 67.0 L 57.0 68.9 L 59.2 71.1 L 60.1 75.5 L 57.7 79.4 L 53.2 80.3 L 49.3 77.9 L 48.4 76.0 Z M 95.5 63.9 L 96.2 67.4 L 91.98503866195679 66.36474637985229 L 91.2 66.9 L 88.9 68.3 L 86.5 69.8 L 81.3 72.8 L 75.5 75.7 L 72.5 77.0 L 69.5 78.7 L 68.4 77.2 L 70.9 74.9 L 73.1 72.4 L 75.2 70.0 L 77.2 67.7 L 79.1 65.5 L 80.9 63.3 L 82.6 61.2 L 84.2 59.2 L 85.7 57.3 L 86.43989858627319 56.218609714508055 L 86.3 56.1 L 87.3 55.1 Z M 11.5 50.6 L 48.1 50.6 L 48.1 13.7 L 59.1 15.7 L 61.8 17.7 L 59.1 19.423404216766357 L 59.1 50.6 L 68.8 50.6 L 68.8 13.7 L 79.8 15.7 L 82.6 17.7 L 79.8 19.45 L 79.8 50.6 L 85.18918914794922 50.6 L 86.2 48.4 L 87.6 44.7 L 89.0 41.2 L 90.3 37.8 L 91.5 34.5 L 92.7 31.3 L 93.8 28.2 L 94.8 25.3 L 95.7 22.4 L 96.22134828567505 20.640449428558348 L 96.1 20.6 L 97.0 18.4 L 107.5 24.4 L 109.5 27.4 L 105.35076923370362 27.972307682037354 L 104.2 29.8 L 102.4 32.6 L 98.4 38.2 L 96.2 41.1 L 93.9 44.1 L 91.4 47.0 L 88.7 49.9 L 88.13125 50.6 L 94.4 50.6 L 104.4 40.6 L 116.4 50.6 L 116.4 54.6 L 11.5 54.6 Z M 165.2 42.5 L 164.0 39.9 L 162.5 37.4 L 160.8 34.8 L 158.9 32.3 L 156.9 29.7 L 154.6 27.2 L 152.2 24.6 L 149.4 22.2 L 150.3 20.7 L 153.7 22.2 L 157.2 23.7 L 160.4 25.4 L 163.5 27.4 L 166.4 29.5 L 169.1 31.8 L 171.6 34.2 L 174.0 36.9 L 176.1 39.7 L 178.1 42.7 L 178.3 47.2 L 175.2 50.7 L 170.7 50.8 L 167.2 47.8 L 166.3 45.1 Z M 30.0 39.6 L 29.7 37.3 L 29.3 34.9 L 28.8 32.6 L 28.1 30.2 L 27.3 27.7 L 26.3 25.2 L 25.3 22.6 L 23.7 20.3 L 25.0 19.1 L 27.2 21.1 L 29.5 22.9 L 31.7 24.9 L 33.7 27.0 L 35.5 29.3 L 37.1 31.6 L 38.6 34.1 L 39.9 36.7 L 41.0 39.4 L 42.0 42.3 L 40.8 46.7 L 37.0 49.1 L 32.5 48.0 L 30.1 44.1 L 30.1 41.8 Z " />
</g>
</svg>
