<svg xmlns="http://www.w3.org/2000/svg" xmlns:xlink="http://www.w3.org/1999/xlink" version="1.1" baseProfile="full" viewBox="0 0 200 200" width="200" height="200">
<g fill="black">
<path d="M 12.7 122.0 L 15.4 121.2 L 18.3 120.3 L 21.4 119.2 L 24.6 117.9 L 27.9 116.5 L 31.3 114.9 L 34.9 113.2 L 38.6 111.4 L 41.900908660888675 109.79186496734619 L 42.0 98.0 L 42.0 31.0 L 54.0 37.0 L 104.0 37.0 L 104.0 12.0 L 116.0 14.0 L 119.0 16.0 L 116.0 17.8 L 116.0 37.0 L 164.0 37.0 L 174.0 27.0 L 186.0 37.0 L 186.0 41.0 L 54.0 41.0 L 54.0 98.0 L 53.3 110.5 L 52.0 122.3 L 49.9 133.4 L 47.2 143.7 L 43.7 153.2 L 39.5 161.9 L 34.6 169.8 L 28.9 176.7 L 22.6 182.7 L 15.5 187.7 L 14.4 186.2 L 19.9 180.0 L 24.7 173.4 L 29.0 166.3 L 32.7 158.6 L 35.7 150.2 L 38.2 141.2 L 40.0 131.5 L 41.3 121.0 L 41.6436749458313 114.64201288223266 L 41.2 115.1 L 38.1 118.0 L 35.1 120.7 L 32.0 123.2 L 29.0 125.6 L 26.0 127.7 L 23.0 129.7 L 21.009677410125732 130.89419355392457 L 20.1 135.2 L 17.1 133.1 L 10.8 122.8 Z M 102.9 54.7 L 105.0 57.6 L 101.31986808776855 58.23450546264648 L 99.1 63.2 L 95.0 71.5 L 90.8 79.7 L 86.3 87.6 L 81.7 95.4 L 81.09277105331421 96.34879522323608 L 86.2 97.2 L 89.2 99.2 L 86.2 101.0 L 86.2 180.2 L 74.2 186.2 L 74.2 106.81764707565307 L 71.8 110.3 L 66.5 117.3 L 60.9 124.1 L 54.9 130.6 L 53.5 129.5 L 57.8 121.9 L 62.0 114.4 L 66.2 106.8 L 70.3 99.1 L 74.3 91.3 L 78.1 83.3 L 81.8 75.2 L 85.3 67.0 L 88.6 58.7 L 91.45472679138183 51.117131900787356 L 91.4 51.1 L 92.3 48.9 Z M 135.7165644645691 55.43006134033203 L 136.5 80.5 L 137.90075387954712 94.11532802581787 L 160.15287914276124 92.19014415740966 L 169.2 81.4 L 182.0 90.3 L 182.4 94.3 L 138.3117383003235 98.11009664535523 L 139.0 104.8 L 142.8 124.8 L 147.6 140.8 L 147.8612756729126 141.39996633529663 L 148.7 140.3 L 154.1 131.7 L 158.9 122.5 L 162.97272729873657 112.80303030014038 L 163.6 111.2 L 174.2 117.1 L 176.3 120.0 L 172.50543422698973 120.58881196975707 L 169.1 127.6 L 163.3 137.4 L 156.7 146.4 L 152.2290933609009 151.42976999282837 L 153.0 153.2 L 158.7 162.3 L 164.3 168.5 L 169.5 172.2 L 172.22616376876832 173.25329055786133 L 177.8 149.1 L 179.8 149.1 L 177.86075086593627 174.31023893356323 L 181.6 175.5 L 183.8 179.5 L 182.4 183.9 L 178.4 186.1 L 171.2 185.6 L 163.8 182.7 L 156.3 177.4 L 149.1 169.5 L 143.33321075439454 160.2042799949646 L 141.5 161.9 L 132.9 168.4 L 123.6 174.1 L 113.7 178.9 L 103.1 182.7 L 91.9 185.6 L 91.4 183.8 L 101.7 179.2 L 111.3 174.1 L 120.2 168.5 L 128.3 162.4 L 135.8 155.6 L 139.346693611145 151.79252004623413 L 136.3 144.9 L 131.2 127.6 L 127.2 106.5 L 126.440225315094 99.13602991104126 L 93.3 102.0 L 93.0 98.0 L 126.02819490432739 95.14250450134277 L 124.6 81.3 L 123.63368892669678 52.69719257354736 L 123.6 52.7 L 123.6 49.3 L 135.6 51.7 L 138.6 53.7 Z M 24.3 76.9 L 23.6 73.9 L 22.7 70.9 L 21.7 68.1 L 20.5 65.4 L 19.2 62.7 L 17.8 60.1 L 16.2 57.5 L 14.2 55.3 L 15.3 53.8 L 18.0 55.5 L 20.8 57.2 L 23.5 59.2 L 26.0 61.5 L 28.3 64.1 L 30.4 67.0 L 32.3 70.1 L 34.1 73.4 L 35.7 76.9 L 37.1 80.6 L 36.3 85.1 L 32.6 87.9 L 28.1 87.1 L 25.4 83.4 L 24.9 80.1 Z M 158.9 75.7 L 157.6 73.7 L 156.2 71.7 L 154.5 69.8 L 152.6 67.7 L 150.6 65.7 L 148.4 63.6 L 146.0 61.5 L 143.3 59.7 L 144.1 58.1 L 147.2 59.2 L 150.4 60.1 L 153.5 61.2 L 156.3 62.4 L 159.1 63.8 L 161.7 65.3 L 164.2 66.9 L 166.5 68.7 L 168.7 70.5 L 170.7 72.5 L 171.7 77.0 L 169.3 80.9 L 164.9 81.9 L 161.0 79.5 L 160.0 77.6 Z " />
</g>
</svg>
