<svg xmlns="http://www.w3.org/2000/svg" xmlns:xlink="http://www.w3.org/1999/xlink" version="1.1" baseProfile="full" viewBox="0 0 200 200" width="200" height="200">
<g fill="black">
<path d="M 160.86696882247924 18.759818744659423 L 161.5 54.3 L 162.46071128845216 70.78378267288208 L 167.25160036087036 69.53565521240235 L 174.4 57.4 L 188.5 64.0 L 189.5 67.9 L 162.69956884384155 74.88207626342773 L 163.4 86.9 L 166.0083915710449 109.85384616851806 L 167.4 102.2 L 169.44455270767213 89.00334148406982 L 169.4 89.0 L 169.9 86.0 L 181.4 89.9 L 184.1 92.4 L 180.65837421417237 93.71407527923584 L 178.6 104.3 L 175.4 117.7 L 172.0 130.1 L 170.31831302642823 135.281413936615 L 173.9 149.7 L 178.0 161.0 L 181.23684206008912 167.47368421554566 L 185.5 149.0 L 187.5 149.0 L 185.6253164291382 173.37088603973388 L 186.4 174.1 L 185.57627115249633 174.00847454071044 L 185.57446804046631 174.0319149017334 L 189.7 175.8 L 191.5 180.0 L 189.7 184.2 L 185.5 186.0 L 180.3 184.4 L 175.9 180.7 L 171.4 174.6 L 166.9 165.7 L 163.01889638900758 154.9191566467285 L 160.1 161.3 L 155.5 169.6 L 150.6 176.8 L 145.3 182.8 L 139.7 187.6 L 138.5 186.3 L 142.4 180.5 L 146.1 173.9 L 149.7 166.5 L 153.2 158.2 L 156.4 149.0 L 159.10516862869264 140.09912271499633 L 158.2 136.5 L 154.5 114.9 L 151.5 87.9 L 150.8991738319397 77.95632743835449 L 139.6 80.9 L 138.6 77.0 L 150.65167875289916 73.8602840423584 L 149.5 54.8 L 148.8175621986389 15.998536491394043 L 148.8 16.0 L 148.8 12.6 L 160.8 15.0 L 163.8 17.0 Z M 61.2 180.6 L 59.7 182.5 L 57.9 184.2 L 55.9 185.7 L 53.8 186.9 L 51.5 187.8 L 49.1 188.5 L 46.7 188.8 L 44.1 189.0 L 44.1 183.0 L 30.1 180.0 L 30.1 177.0 L 44.1 177.0 L 45.5 176.9 L 46.7 176.7 L 47.7 176.4 L 48.6 176.1 L 49.4 175.6 L 50.1 175.1 L 50.8 174.4 L 51.5 173.6 L 52.2 172.6 L 52.8 171.4 L 54.1 168.0 L 55.3 164.0 L 56.3 159.4 L 57.2 154.2 L 58.0 148.3 L 58.45940170288086 142.3277777671814 L 54.7 144.9 L 50.2 143.9 L 47.7 140.1 L 47.7 138.0 L 47.3 133.8 L 47.0 131.7 L 46.5 129.6 L 45.9 127.5 L 45.2 125.4 L 44.4 123.3 L 43.5 121.1 L 42.1 119.3 L 43.3 118.0 L 45.2 119.6 L 47.4 120.9 L 49.4 122.5 L 51.2 124.2 L 52.9 126.2 L 54.5 128.2 L 56.0 130.4 L 57.3 132.8 L 58.5 135.3 L 58.823383045196536 136.14079599380494 L 58.9 134.8 L 59.1 127.2 L 59.1 119.91666669845581 L 58.9 120.0 L 58.9 112.0 L 27.5 112.0 L 16.5 117.5 L 16.5 20.5 L 27.5 26.0 L 52.418181800842284 26.0 L 60.6 17.0 L 70.6 26.0 L 70.6 30.0 L 50.4 30.0 L 50.4 54.0 L 55.6777777671814 54.0 L 61.9 47.0 L 69.9 54.0 L 69.9 58.0 L 50.4 58.0 L 50.4 81.0 L 55.6777777671814 81.0 L 61.9 74.0 L 69.9 81.0 L 69.9 85.0 L 50.4 85.0 L 50.4 108.0 L 58.9 108.0 L 64.9 103.0 L 75.9 112.0 L 71.01403512954712 114.93157892227173 L 71.1 118.8 L 71.1 127.3 L 70.9 135.2 L 70.5 142.7 L 69.9 149.5 L 69.51276597976684 152.5978723526001 L 69.8 152.3 L 72.3 149.3 L 74.1 147.28400001525878 L 74.1 146.1 L 74.8298701286316 146.46493511199952 L 77.1 143.8 L 79.5 141.2 L 81.7 138.6 L 83.9 136.1 L 86.0 133.7 L 88.0 131.3 L 89.2855978012085 129.67608699798583 L 89.2 129.6 L 90.1 128.7 L 98.2 137.6 L 98.8 141.1 L 94.90782842636108 140.05745401382447 L 90.3 143.3 L 87.5 145.2 L 81.5 149.0 L 80.78115940093994 149.44057970046998 L 85.1 151.6 L 95.3 151.6 L 99.8 146.6 L 107.6 153.98947372436524 L 107.6 147.1 L 116.6 151.6 L 126.8 151.6 L 130.68407077789306 148.06902656555175 L 130.5 147.8 L 129.1 145.8 L 127.5 143.8 L 125.8 141.8 L 122.0 137.8 L 119.8 135.8 L 117.6 133.7 L 115.0 132.0 L 115.8 130.3 L 118.8 131.5 L 120.7 131.99032258987427 L 120.7 127.0 L 91.6 127.0 L 79.6 133.0 L 79.6 69.0 L 91.6 75.0 L 95.43125 75.0 L 95.5 74.9 L 96.1 73.0 L 96.7 71.2 L 97.7 67.8 L 98.1 66.1 L 98.4 64.5 L 98.43999996185303 64.3 L 69.4 64.3 L 69.4 60.3 L 131.1 60.3 L 135.6 54.3 L 141.6 60.3 L 141.6 64.3 L 110.4 64.3 L 110.1 64.7 L 108.9 66.2 L 107.7 67.6 L 106.4 69.0 L 103.6 71.6 L 102.1 72.9 L 100.6 74.1 L 99.20909090042115 75.0 L 120.7 75.0 L 126.7 70.0 L 137.7 79.0 L 132.7 83.0 L 132.7 127.0 L 122.01372547149658 132.3431372642517 L 124.8 133.4 L 127.6 134.5 L 130.3 135.9 L 132.9 137.3 L 135.4 138.8 L 137.8 140.5 L 140.1 142.2 L 142.2 144.1 L 143.5 148.5 L 141.4 152.6 L 139.80689659118653 153.03448276519777 L 142.8 155.6 L 137.8 159.1 L 137.8 178.2 L 126.8 183.7 L 126.8 178.2 L 116.6 178.2 L 116.6 181.2 L 107.6 185.7 L 107.6 156.45 L 104.3 158.1 L 104.3 180.2 L 95.3 184.7 L 95.3 178.2 L 85.1 178.2 L 85.1 181.2 L 74.1 186.7 L 74.1 153.28571424484252 L 71.6 154.5 L 69.08645601272583 155.97855529785156 L 68.1 161.7 L 66.9 167.1 L 65.4 171.9 L 63.7 176.3 L 62.6 178.5 Z M 116.6 155.6 L 116.6 174.2 L 126.8 174.2 L 126.8 155.6 Z M 85.1 155.6 L 85.1 174.2 L 95.3 174.2 L 95.3 155.6 Z M 12.3 174.3 L 10.0 170.3 L 11.2 165.9 L 12.3 164.7 L 13.6 162.8 L 14.8 160.2 L 15.9 157.0 L 16.9 153.1 L 17.8 148.6 L 18.6 143.6 L 19.3 137.9 L 19.9 131.8 L 20.4 125.0 L 22.2 124.9 L 23.4 131.6 L 24.3 137.9 L 24.8 143.8 L 25.1 149.1 L 25.1 154.1 L 24.9 158.6 L 24.3 162.8 L 23.5 166.6 L 22.3 170.1 L 20.7 173.3 L 16.7 175.5 Z M 31.6 166.9 L 27.7 164.6 L 26.4 160.2 L 27.0 157.7 L 27.6 155.1 L 28.0 152.2 L 28.3 149.3 L 28.5 146.1 L 28.6 142.8 L 28.5 139.4 L 28.5 135.8 L 28.3 132.0 L 27.8 128.2 L 29.5 127.7 L 31.0 131.3 L 32.7 134.9 L 34.0 138.4 L 35.2 141.8 L 36.2 145.3 L 36.9 148.7 L 37.6 152.0 L 38.0 155.3 L 38.2 158.5 L 38.3 161.7 L 36.0 165.7 Z M 38.4 147.1 L 38.4 144.5 L 38.3 141.9 L 38.1 139.2 L 37.8 136.5 L 37.4 133.8 L 36.9 130.9 L 36.3 128.0 L 35.3 125.3 L 36.8 124.4 L 38.6 126.9 L 40.6 129.3 L 42.3 131.8 L 43.9 134.4 L 45.3 137.1 L 46.6 139.9 L 47.7 142.7 L 48.6 145.7 L 49.4 148.7 L 50.0 151.7 L 48.4 156.0 L 44.3 157.9 L 40.0 156.3 L 38.0 152.2 L 38.3 149.7 Z M 91.6 109.3 L 91.6 123.0 L 120.7 123.0 L 120.7 109.3 Z M 27.5 85.0 L 27.5 108.0 L 39.4 108.0 L 39.4 85.0 Z M 91.6 94.2 L 91.6 105.3 L 120.7 105.3 L 120.7 94.2 Z M 91.6 79.0 L 91.6 90.2 L 120.7 90.2 L 120.7 79.0 Z M 27.5 58.0 L 27.5 81.0 L 39.4 81.0 L 39.4 58.0 Z M 85.1 24.2 L 95.3 24.2 L 99.8 19.2 L 107.6 26.589473724365234 L 107.6 19.7 L 116.6 24.2 L 126.8 24.2 L 132.3 19.2 L 142.8 28.2 L 137.8 31.7 L 137.8 50.8 L 126.8 56.3 L 126.8 50.8 L 116.6 50.8 L 107.6 55.3 L 107.6 29.05 L 104.3 30.7 L 104.3 50.8 L 95.3 55.3 L 95.3 50.8 L 85.1 50.8 L 74.1 56.3 L 74.1 18.7 Z M 27.5 30.0 L 27.5 54.0 L 39.4 54.0 L 39.4 30.0 Z M 170.7 36.6 L 169.8 34.1 L 167.8 29.3 L 166.6 26.9 L 165.3 24.4 L 163.6 22.3 L 164.8 21.0 L 167.1 22.7 L 169.6 24.2 L 171.9 26.0 L 174.1 28.0 L 176.2 30.2 L 178.1 32.5 L 179.9 35.0 L 181.6 37.6 L 183.2 40.4 L 184.6 43.3 L 184.1 47.9 L 180.6 50.8 L 176.0 50.3 L 173.1 46.8 L 172.1 41.6 Z M 116.6 28.2 L 116.6 46.8 L 126.8 46.8 L 126.8 28.2 Z M 85.1 28.2 L 85.1 46.8 L 95.3 46.8 L 95.3 28.2 Z " />
</g>
</svg>
