<svg xmlns="http://www.w3.org/2000/svg" xmlns:xlink="http://www.w3.org/1999/xlink" version="1.1" baseProfile="full" viewBox="0 0 200 200" width="200" height="200">
<g fill="black">
<path d="M 36.83152170181275 116.4 L 36.6 123.5 L 35.9 132.2 L 34.6 140.3 L 32.9 147.8 L 30.8 154.8 L 28.1 161.1 L 25.0 166.8 L 21.3 171.9 L 17.2 176.1 L 12.6 179.5 L 11.3 178.1 L 14.3 173.6 L 16.9 168.9 L 19.1 163.8 L 21.1 158.3 L 22.6 152.4 L 23.8 145.9 L 24.7 138.9 L 25.2 131.3 L 25.2 123.2 L 25.041860485076903 116.4 L 12.0 116.4 L 12.0 112.4 L 48.0 112.4 L 48.0 86.0 L 32.0 86.0 L 32.0 98.0 L 20.0 104.0 L 20.0 36.9 L 32.0 38.9 L 35.0 40.9 L 32.0 42.7 L 32.0 82.0 L 48.0 82.0 L 48.0 40.3 L 60.0 46.3 L 143.09586210250853 46.3 L 142.9068929672241 18.899483013153077 L 142.9 18.9 L 142.9055866241455 18.710055828094482 L 142.9 17.9 L 142.92940454483033 17.900244998931885 L 143.0 15.5 L 154.9 18.0 L 157.9 20.0 L 154.92646236419677 21.78412256240845 L 155.09790210723878 46.3 L 166.0 46.3 L 175.75714282989503 36.54285717010498 L 175.1 36.5 L 172.0 33.1 L 171.9 31.6 L 171.6 30.1 L 171.1 28.5 L 170.4 26.8 L 169.5 25.0 L 168.3 23.2 L 166.9 21.4 L 165.3 19.4 L 163.4 17.4 L 161.1 15.9 L 161.9 14.3 L 164.6 15.4 L 167.3 16.3 L 169.9 17.3 L 172.3 18.5 L 174.6 19.9 L 176.7 21.4 L 178.7 23.0 L 180.4 24.9 L 182.0 26.9 L 183.4 29.2 L 183.0 33.7 L 179.7 36.8 L 176.33679246902466 36.580660343170166 L 188.0 46.3 L 188.0 50.3 L 155.24285717010497 50.3 L 156.1 72.5 L 157.9 95.5 L 160.5 115.7 L 162.05061950683594 123.87599382400512 L 163.4 119.4 L 167.0 104.4 L 170.2 88.0 L 172.7487332344055 71.10284280776978 L 172.7 71.1 L 173.2 68.1 L 184.7 71.8 L 187.4 74.2 L 184.00657682418824 75.64534692764282 L 181.4 90.1 L 177.5 106.9 L 173.0 122.3 L 168.1 136.2 L 165.96798782348634 140.9589557647705 L 167.8 147.6 L 172.5 159.1 L 177.7 167.6 L 182.12865228652953 172.10917329788208 L 187.0 151.0 L 189.0 151.0 L 187.12516469955443 175.37285900115967 L 188.8 176.3 L 192.3 179.3 L 192.6 183.8 L 189.6 187.3 L 185.1 187.6 L 175.9 182.7 L 168.2 174.9 L 161.8 164.4 L 158.40776891708373 156.0794331550598 L 156.4 159.7 L 149.8 169.2 L 142.5 177.1 L 134.7 183.3 L 126.4 187.7 L 126.28333330154419 187.5055555343628 L 124.2 188.2 L 121.7 188.6 L 119.2 188.8 L 119.2 182.8 L 107.2 179.8 L 107.2 176.8 L 119.2 176.8 L 120.4 176.7 L 121.3 176.6 L 121.9 176.4 L 122.3 176.2 L 122.4 176.0 L 122.6 175.8 L 122.8 175.5 L 123.0 174.9 L 123.1 174.0 L 123.2 172.8 L 123.2 164.0 L 82.7 164.0 L 82.7 181.1 L 70.7 187.1 L 70.7 125.4 L 82.7 131.4 L 123.2 131.4 L 129.2 126.4 L 140.2 135.4 L 135.2 139.4 L 135.2 172.8 L 135.0 175.3 L 134.60369510650634 177.77690534591676 L 138.6 173.4 L 144.4 165.3 L 149.8 155.9 L 154.76961946487427 145.2650143623352 L 152.1 135.8 L 148.6 117.6 L 146.0 96.7 L 144.2 73.2 L 143.2422053337097 50.3 L 60.0 50.3 L 60.0 79.35908222198486 L 70.4126636505127 78.54279308319092 L 69.7 69.1 L 69.42580642700196 58.497849464416504 L 69.4 58.5 L 69.4 55.1 L 81.4 57.5 L 83.79104480743408 59.09402980804443 L 84.3 58.4 L 85.4 59.3 L 87.0 59.7 L 88.5 60.2 L 89.9 60.8 L 91.2 61.4 L 92.5 62.2 L 93.8 63.1 L 94.9 64.0 L 96.1 65.1 L 97.1 66.2 L 97.02039785385132 69.86169929504395 L 105.4 75.8 L 105.65323638916016 78.33236408233643 L 110.11296062469482 77.96519804000854 L 109.3 68.3 L 109.11706972122192 57.59857749938965 L 109.1 57.6 L 109.1 54.2 L 121.1 56.6 L 123.25625 58.0375 L 123.6 57.6 L 124.7 58.4 L 127.7 59.4 L 129.0 60.0 L 130.4 60.7 L 131.6 61.5 L 132.8 62.4 L 134.0 63.4 L 135.1 64.4 L 136.1 65.6 L 135.94041290283204 69.2705041885376 L 143.7 75.2 L 144.0 79.2 L 122.59116268157959 80.96257495880127 L 123.4 86.5 L 125.00662651062012 93.28353414535522 L 126.4 90.6 L 129.0 85.0 L 129.04029846191406 85.01940298080444 L 129.6 83.9 L 139.8 90.2 L 141.6 93.4 L 137.80108757019042 93.72749242782592 L 136.4 96.2 L 132.7 101.6 L 129.71102724075317 105.41094026565551 L 130.0 106.0 L 133.0 110.2 L 136.2 113.3 L 137.27932958602906 113.98957166671752 L 142.4 91.8 L 144.4 91.8 L 142.49662923812866 116.54382019042968 L 143.8 117.0 L 147.4 119.7 L 148.2 124.2 L 145.4 127.9 L 140.9 128.7 L 134.5 126.4 L 128.8 122.8 L 123.9 118.0 L 121.26892080307007 114.30396013259887 L 120.2 115.3 L 115.5 118.9 L 110.7 121.9 L 109.57166328430176 122.45310621261596 L 109.9 124.3 L 107.2 128.0 L 102.7 128.8 L 97.1 126.9333333015442 L 95.0 127.4 L 94.3 125.7 L 94.44464282989502 125.60678567886353 L 90.1 123.0 L 84.9 118.3 L 81.95820417404175 114.33199634552003 L 80.5 115.6 L 75.7 119.1 L 70.6 122.1 L 65.3 124.6 L 60.0 126.36666669845582 L 60.0 131.0 L 59.3 140.1 L 58.1 148.5 L 56.2 156.3 L 53.7 163.4 L 50.5 169.8 L 46.6 175.5 L 42.2 180.3 L 37.1 184.3 L 31.4 187.2 L 25.3 189.2 L 24.6 187.6 L 29.5 184.0 L 33.7 180.1 L 37.3 175.9 L 40.4 171.2 L 42.9 166.0 L 44.9 160.3 L 46.5 153.9 L 47.5 146.9 L 48.0 139.3 L 48.0 116.4 Z M 82.7 149.7 L 82.7 160.0 L 123.2 160.0 L 123.2 149.7 Z M 82.7 135.4 L 82.7 145.7 L 123.2 145.7 L 123.2 135.4 Z M 60.0 83.39043979644775 L 60.0 121.77272729873657 L 62.8 119.8 L 67.0 116.6 L 71.0 113.1 L 74.7 109.4 L 77.35688076019287 106.37410802841187 L 77.0 105.7 L 74.2 98.0 L 72.1 89.3 L 70.9717206954956 82.53032398223877 Z M 106.9 116.5 L 110.7 113.0 L 114.2 109.2 L 116.75363636016846 106.12061500549316 L 116.3 105.2 L 113.6 97.4 L 111.6 88.7 L 110.62544193267823 81.94770460128784 L 94.2 83.3 L 94.00683841705322 80.72451171875 L 82.99696559906006 81.58761835098267 L 83.8 86.9 L 85.66666669845581 94.36666669845582 L 87.6 90.9 L 89.9345326423645 86.31431083679199 L 89.9 86.3 L 90.9 84.3 L 101.0 90.9 L 102.8 94.1 L 98.92730503082275 94.29691667556763 L 97.4 96.8 L 93.5 102.2 L 90.57945203781128 105.6904109954834 L 90.8 106.1 L 93.9 110.3 L 97.3 113.4 L 98.833571434021 114.28785715103149 L 104.0 91.9 L 106.0 91.9 L 104.09651565551758 116.64529619216918 L 105.4 117.1 L 105.80688419342042 117.39691553115844 Z M 86.2 68.0 L 86.1 67.0 L 85.9 65.9 L 85.7 64.7 L 85.3 63.5 L 84.8 62.2 L 84.2 60.8 L 83.41333332061768 60.092000007629395 L 81.46896553039551 61.25862064361572 L 81.6 68.4 L 82.43638248443604 77.60020713806152 L 83.56603555679321 77.51164922714233 L 87.79551429748535 72.55162410736084 L 86.0 70.7 L 86.2 69.9 Z M 125.2 67.1 L 125.1 66.1 L 125.0 65.0 L 124.4 62.6 L 124.0 61.3 L 123.5 59.9 L 122.87333335876465 59.335999965667725 L 121.16773614883422 60.35935831069946 L 121.3 67.7 L 122.05009469985961 76.982421875 L 125.55618228912354 76.693768119812 L 128.37252702713013 73.11211233139038 L 128.1 73.1 L 124.9 69.9 L 125.1 68.1 Z " />
</g>
</svg>
