<svg xmlns="http://www.w3.org/2000/svg" xmlns:xlink="http://www.w3.org/1999/xlink" version="1.1" baseProfile="full" viewBox="0 0 200 200" width="200" height="200">
<g fill="black">
<path d="M 68.8 177.1 L 67.4 179.1 L 65.7 180.9 L 63.7 182.5 L 61.6 183.8 L 59.3 184.8 L 57.0 185.4 L 54.5 185.8 L 52.0 186.0 L 52.0 180.0 L 36.0 177.0 L 36.0 174.0 L 52.0 174.0 L 53.3 173.9 L 54.4 173.7 L 55.4 173.4 L 56.2 173.1 L 56.8 172.7 L 57.5 172.2 L 58.0 171.6 L 58.6 170.8 L 59.2 169.7 L 59.7 168.5 L 60.7 164.9 L 61.8 160.1 L 62.7 154.3 L 63.4 147.5 L 64.1 139.7 L 64.5 130.9 L 64.9 121.1 L 65.0 110.4 L 65.1 98.7 L 65.07848262786865 95.96729888916016 L 65.0 96.0 L 65.0 88.0 L 47.654676246643064 88.0 L 47.4 93.9 L 46.2 107.1 L 44.5 119.7 L 42.2 131.5 L 39.3 142.7 L 35.8 153.2 L 31.8 163.0 L 27.1 172.0 L 21.7 180.2 L 15.7 187.5 L 14.2 186.4 L 18.5 178.2 L 22.3 169.6 L 25.7 160.6 L 28.6 150.9 L 31.1 140.7 L 33.1 129.8 L 34.5 118.3 L 35.5 106.2 L 36.0 93.4 L 36.0 53.0 L 48.0 55.0 L 51.0 57.0 L 48.0 58.8 L 48.0 80.0 L 47.82733812332153 84.0 L 65.0 84.0 L 71.0 79.0 L 82.0 88.0 L 77.0 91.0 L 76.9798189163208 91.00840883255005 L 77.1 98.7 L 77.0 110.5 L 76.9 121.4 L 76.5 131.4 L 76.0 140.5 L 75.4 148.6 L 74.6 155.9 L 73.6 162.3 L 72.4 167.8 L 71.0 172.6 L 70.0 174.9 Z M 156.7 69.0 L 155.9 67.4 L 153.9 64.0 L 152.8 62.3 L 151.6 60.6 L 150.4 58.8 L 149.1 57.1 L 147.3 55.7 L 148.3 54.2 L 150.3 55.2 L 152.5 55.8 L 154.7 56.7 L 156.8 57.6 L 160.8 59.8 L 162.7 61.1 L 164.5 62.5 L 166.3 64.0 L 168.0 65.6 L 168.9 70.1 L 167.4889447212219 72.3929648399353 L 169.7 69.8 L 182.4 78.8 L 182.8 82.8 L 141.04123821258545 86.16693677902222 L 141.5 94.8 L 142.7021565437317 105.333180809021 L 143.0 105.0 L 148.7 98.0 L 153.60925006866455 91.30556802749634 L 153.6 91.3 L 154.6 89.8 L 163.9 97.5 L 165.1 100.9 L 161.34320936203002 100.57613878250122 L 157.5 105.2 L 150.9 112.3 L 144.58447561264038 118.24940710067749 L 146.48217897415162 127.98278894424439 L 150.9 123.5 L 157.3 116.1 L 163.4 108.2 L 163.41781530380248 108.21368961334228 L 163.9 107.6 L 172.9 115.5 L 174.1 118.9 L 170.35258283615113 118.44772548675537 L 165.9 123.6 L 158.5 131.1 L 150.7 137.9 L 149.63738670349122 138.7002395629883 L 150.8 142.5 L 152.77819843292235 146.81247253417968 L 159.0 141.0 L 166.1 133.4 L 172.7 125.1 L 172.7095335006714 125.10760650634765 L 173.1 124.6 L 182.1 132.6 L 183.2 136.0 L 179.43196201324463 135.54523677825927 L 174.4 141.1 L 166.3 148.8 L 157.8 155.9 L 157.60125799179076 156.03977460861205 L 161.6 161.9 L 168.0 168.0 L 175.2 172.0 L 177.1795147895813 172.48876905441284 L 182.6 149.0 L 184.6 149.0 L 182.68853683471679 173.84902143478394 L 183.3 174.0 L 187.3 176.3 L 188.6 180.7 L 186.3 184.7 L 181.9 186.0 L 170.8 183.2 L 160.9 177.7 L 152.4 169.6 L 147.75769233703613 162.86538457870483 L 139.2 168.0 L 129.2 172.9 L 118.8 177.1 L 108.0 180.5 L 96.7 183.1 L 85.0 184.8 L 84.7 183.0 L 95.7 179.4 L 106.3 175.4 L 116.3 171.0 L 125.8 166.1 L 134.9 160.7 L 143.26284503936768 154.7968152999878 L 139.6 146.7 L 139.4123861312866 146.0871280670166 L 134.2 149.5 L 125.4 154.2 L 116.3 158.2 L 107.0 161.4 L 97.3 163.8 L 87.3 165.4 L 87.0 163.6 L 96.2 160.2 L 105.1 156.4 L 113.6 152.2 L 121.7 147.5 L 129.5 142.3 L 136.60099334716796 136.90324506759643 L 135.1 132.0 L 134.04846334457397 126.7423168182373 L 129.5 130.0 L 121.8 134.6 L 113.8 138.6 L 105.6 141.8 L 97.2 144.3 L 88.5 146.0 L 88.1 144.3 L 95.9 140.7 L 103.5 136.9 L 110.8 132.7 L 117.8 128.1 L 124.5 123.1 L 130.9 117.6 L 132.00594596862794 116.52972974777222 L 131.7 115.0 L 129.5 95.8 L 129.05452079772948 87.13340511322022 L 87.3 90.5 L 87.0 86.6 L 128.85121603012084 83.17820243835449 L 128.4 74.4 L 128.3042181968689 51.69971876144409 L 128.3 51.7 L 128.3 48.3 L 140.3 50.9 L 143.2 53.0 L 140.31626110076905 54.67256860733032 L 140.4 74.1 L 140.8303696632385 82.19877481460571 L 160.4986478805542 80.59067659378051 L 166.04018688201904 74.09196262359619 L 162.0 74.9 L 158.1 72.4 L 157.5 70.7 Z M 120.9 17.9 L 123.1 20.8 L 119.27311897277832 21.59176845550537 L 118.3 23.8 L 115.4 29.5 L 112.2 35.0 L 109.10384616851806 39.6 L 161.1 39.6 L 171.1 29.6 L 183.1 39.6 L 183.1 43.6 L 106.11599998474121 43.6 L 104.9 45.2 L 100.8 50.0 L 96.4 54.5 L 91.7 58.7 L 86.6 62.6 L 81.2 66.0 L 80.0 64.6 L 84.0 59.8 L 87.8 55.0 L 91.5 50.2 L 94.8 45.3 L 98.0 40.4 L 100.8 35.3 L 103.4 30.1 L 105.7 24.9 L 107.8 19.5 L 109.6 13.9 L 109.6298152923584 13.910554122924804 L 110.1 12.5 Z M 15.0 49.0 L 43.0 49.0 L 43.0 16.0 L 55.0 18.0 L 58.0 20.0 L 55.0 21.8 L 55.0 49.0 L 67.0 49.0 L 77.0 39.0 L 89.0 49.0 L 89.0 53.0 L 15.0 53.0 Z " />
</g>
</svg>
