<svg xmlns="http://www.w3.org/2000/svg" xmlns:xlink="http://www.w3.org/1999/xlink" version="1.1" baseProfile="full" viewBox="0 0 200 200" width="200" height="200">
<g fill="black">
<path d="M 153.6653242111206 18.760805511474608 L 154.26004962921144 53.0 L 165.8 53.0 L 175.8 43.0 L 187.8 53.0 L 187.8 57.0 L 154.40785493850709 57.0 L 156.4 88.4 L 159.6 115.0 L 160.99850244522094 122.38696155548095 L 163.4 116.0 L 167.6 102.4 L 171.1 87.6 L 171.5 85.8 L 182.8 90.3 L 185.3 92.9 L 181.74844751358032 94.04157047271728 L 178.5 105.6 L 173.5 119.7 L 167.8 132.7 L 164.45923194885253 138.95731163024902 L 167.9 151.0 L 172.3 161.8 L 176.4 168.7 L 177.6419529914856 170.05153703689575 L 182.5 149.0 L 184.5 149.0 L 182.57446804046631 174.0319149017334 L 186.7 175.8 L 188.5 180.0 L 186.7 184.2 L 182.5 186.0 L 177.4 184.9 L 172.1 181.6 L 166.8 175.9 L 161.6 167.2 L 156.5 154.9 L 155.91586351394653 152.8368797302246 L 154.4 155.1 L 146.7 164.5 L 138.2 172.6 L 129.2 179.4 L 119.4 184.8 L 109.1 188.8 L 108.4 187.1 L 117.6 181.5 L 126.0 175.1 L 133.7 167.8 L 140.9 159.6 L 147.4 150.3 L 152.64721298217773 141.29228429794313 L 151.8 138.3 L 147.7 116.8 L 144.5 89.5 L 144.07687530517578 83.01849975585938 L 139.1 87.0 L 139.1 124.0 L 127.1 130.0 L 127.1 124.0 L 114.0 124.0 L 114.0 136.0 L 102.0 142.0 L 102.0 73.0 L 114.0 79.0 L 127.1 79.0 L 133.1 74.0 L 144.07429466247558 82.978968334198 L 142.37833824157715 57.0 L 98.2 57.0 L 98.2 53.0 L 142.25196075439453 53.0 L 141.6171323776245 15.99857234954834 L 141.6 16.0 L 141.6 12.6 L 153.6 15.0 L 156.6 17.0 Z M 11.1 87.0 L 11.1 83.0 L 46.7 83.0 L 46.7 47.0 L 16.6 47.0 L 16.6 43.0 L 46.7 43.0 L 46.7 12.0 L 58.7 14.0 L 61.7 16.0 L 58.7 17.8 L 58.7 43.0 L 69.5 43.0 L 79.5 33.0 L 91.5 43.0 L 91.5 47.0 L 58.7 47.0 L 58.7 83.0 L 74.2 83.0 L 84.2 73.0 L 96.2 83.0 L 96.2 87.0 L 71.1 87.0 L 71.1 173.0 L 71.0 175.4 L 70.6 177.7 L 70.0 180.0 L 69.0 182.1 L 67.6 184.1 L 65.8 185.7 L 63.8 187.0 L 61.5 187.8 L 59.2 188.3 L 56.9 188.5 L 56.9 183.0 L 41.5 180.2 L 41.5 177.5 L 56.9 177.5 L 57.8 177.4 L 58.5 177.3 L 59.1 177.0 L 59.5 176.6 L 59.7 176.1 L 59.9 175.4 L 60.1 174.3 L 60.1 87.0 L 48.0 87.0 L 48.0 121.0 L 47.4 130.1 L 46.2 138.7 L 44.3 146.9 L 41.8 154.6 L 38.7 161.8 L 34.9 168.4 L 30.4 174.4 L 25.4 179.9 L 19.7 184.6 L 13.4 188.6 L 12.4 187.3 L 17.4 182.0 L 21.7 176.6 L 25.5 170.9 L 28.8 164.9 L 31.5 158.6 L 33.7 151.9 L 35.4 144.8 L 36.4 137.3 L 37.0 129.4 L 37.0 87.0 Z M 94.6 156.0 L 99.0 154.5 L 103.6 153.0 L 108.2 151.3 L 113.0 149.6 L 117.8 147.8 L 122.8 145.9 L 127.9 143.9 L 133.1 142.0 L 138.5 140.0 L 144.1 138.2 L 144.9 139.7 L 140.3 143.4 L 135.6 146.7 L 130.8 149.8 L 126.1 152.7 L 121.5 155.4 L 116.9 158.0 L 112.3 160.5 L 107.8 162.8 L 103.4 165.1 L 102.81916818618774 165.37721519470216 L 102.0 169.2 L 99.0 167.2 L 92.7 156.7 Z M 29.9 111.5 L 32.7 113.8 L 29.282296180725098 115.4121244430542 L 29.0 117.2 L 27.9 122.7 L 26.6 128.0 L 25.3 133.2 L 23.7 138.2 L 22.0 143.0 L 20.1 147.7 L 17.9 152.2 L 15.5 156.4 L 12.8 160.3 L 11.2 159.6 L 12.0 155.0 L 12.9 150.4 L 14.7 141.0 L 15.5 136.2 L 16.2 131.3 L 16.8 126.2 L 17.3 121.1 L 17.7 115.8 L 17.862943649291992 111.4005202293396 L 17.8 111.4 L 18.1 108.2 Z M 84.7 139.6 L 84.2 135.2 L 83.6 131.0 L 82.8 126.9 L 82.0 122.9 L 81.0 118.9 L 79.9 115.0 L 78.7 111.1 L 77.4 107.3 L 78.9 106.3 L 81.7 109.5 L 84.3 112.9 L 86.6 116.5 L 88.7 120.4 L 90.6 124.4 L 92.3 128.7 L 93.8 133.1 L 95.1 137.7 L 96.2 142.4 L 97.2 147.4 L 95.8 151.7 L 91.8 153.9 L 87.5 152.6 L 85.2 148.6 L 85.0 144.0 Z M 114.0 83.0 L 114.0 120.0 L 127.1 120.0 L 127.1 83.0 Z M 165.8 28.7 L 164.7 26.5 L 163.6 24.4 L 161.0 20.2 L 159.6 18.0 L 157.7 16.3 L 158.8 14.8 L 161.1 16.1 L 163.6 17.2 L 166.0 18.6 L 168.3 20.1 L 170.4 21.8 L 172.5 23.7 L 174.5 25.7 L 176.4 27.9 L 178.2 30.3 L 179.9 32.7 L 180.0 37.3 L 176.9 40.7 L 172.3 40.8 L 169.0 37.7 L 167.6 33.1 Z " />
</g>
</svg>
