<svg xmlns="http://www.w3.org/2000/svg" xmlns:xlink="http://www.w3.org/1999/xlink" version="1.1" baseProfile="full" viewBox="0 0 200 200" width="200" height="200">
<g fill="black">
<path d="M 140.40486707687378 18.73707981109619 L 141.4 54.2 L 143.0487672805786 71.43227701187134 L 166.81728620529174 67.54560098648071 L 175.1 56.0 L 188.5 64.0 L 189.2 67.9 L 143.4260645866394 75.37564268112183 L 144.5 86.6 L 149.1 112.8 L 151.4443720817566 121.23151369094849 L 153.8 114.7 L 157.9 101.6 L 161.5 87.4 L 161.5555356025696 87.41436262130738 L 162.0 85.7 L 173.1 90.4 L 175.5 93.1 L 171.95404233932496 94.17645139694214 L 168.7 104.9 L 163.9 118.4 L 158.7 130.8 L 155.98825626373292 136.2234875679016 L 161.1 148.8 L 167.4 160.0 L 173.3 167.3 L 178.11773586273193 171.45647802352906 L 183.3 149.0 L 185.3 149.0 L 183.3744680404663 174.0319149017334 L 187.5 175.8 L 189.3 180.0 L 187.5 184.2 L 183.3 186.0 L 177.8 184.8 L 171.6 181.6 L 164.7 175.7 L 157.5 166.7 L 150.3 154.1 L 148.54352874755858 149.79791822433472 L 146.9 152.6 L 140.3 161.9 L 133.3 170.2 L 125.9 177.3 L 118.0 183.1 L 109.8 187.7 L 108.8 186.2 L 115.7 180.2 L 122.2 173.4 L 128.3 165.9 L 134.1 157.6 L 139.6 148.3 L 144.18664493560792 139.12671012878417 L 143.4 137.2 L 137.4 115.4 L 132.6 88.2 L 131.55395126342773 77.31455564498901 L 109.6 80.9 L 109.0 77.0 L 131.17526540756225 73.37385597229004 L 129.4 54.9 L 128.32750568389892 15.997707843780518 L 128.3 16.0 L 128.3 12.6 L 140.3 15.0 L 143.3 17.0 Z M 108.8 24.6 L 103.8 27.6 L 103.8 102.5 L 93.8 107.5 L 93.8 100.5 L 27.3 100.5 L 27.3 174.3 L 82.6 174.3 L 92.6 164.3 L 104.6 174.3 L 104.6 178.3 L 27.3 178.3 L 27.3 181.3 L 17.3 186.3 L 17.3 91.5 L 27.3 96.5 L 93.8 96.5 L 93.8 24.6 L 17.0 24.6 L 17.0 20.6 L 93.8 20.6 L 98.8 15.6 Z M 89.5 119.2 L 89.5 123.2 L 44.5 123.2 L 44.5 152.0 L 70.4 152.0 L 80.4 142.0 L 92.4 152.0 L 92.4 156.0 L 44.5 156.0 L 44.5 159.0 L 34.5 164.0 L 34.5 114.2 L 44.5 119.2 L 67.5 119.2 L 77.5 109.2 Z M 91.0 44.8 L 86.0 47.8 L 86.0 79.5 L 76.0 84.5 L 76.0 77.5 L 27.3 77.5 L 27.3 73.5 L 76.0 73.5 L 76.0 44.8 L 27.6 44.8 L 27.6 40.8 L 76.0 40.8 L 81.0 35.8 Z M 165.2 42.6 L 163.9 40.0 L 162.3 37.4 L 160.6 34.9 L 158.6 32.3 L 156.4 29.8 L 154.1 27.2 L 151.5 24.6 L 148.6 22.2 L 149.5 20.7 L 153.0 22.2 L 156.6 23.7 L 159.9 25.4 L 163.1 27.3 L 166.0 29.4 L 168.8 31.7 L 171.4 34.2 L 173.9 36.8 L 176.1 39.6 L 178.1 42.6 L 178.3 47.2 L 175.4 50.6 L 170.8 50.9 L 167.3 47.9 L 166.4 45.2 Z " />
</g>
</svg>
