<svg xmlns="http://www.w3.org/2000/svg" xmlns:xlink="http://www.w3.org/1999/xlink" version="1.1" baseProfile="full" viewBox="0 0 200 200" width="200" height="200">
<g fill="black">
<path d="M 150.2954773902893 18.74271354675293 L 151.2 54.2 L 152.56303033828735 71.23787879943848 L 168.57787523269653 68.15810089111328 L 176.5 56.4 L 190.2 64.0 L 190.9 67.9 L 152.88176250457764 75.22203092575073 L 153.8 86.7 L 157.8 113.0 L 159.015904712677 118.21825761795044 L 160.0 115.0 L 163.3 101.8 L 166.4 87.6 L 166.41363639831542 87.60303030014038 L 166.8 85.8 L 178.1 90.2 L 180.6 92.8 L 177.1019302368164 94.00842409133911 L 174.3 104.7 L 170.2 118.1 L 165.7 130.5 L 163.3892714500427 135.9231385231018 L 167.9 149.2 L 173.3 160.3 L 178.3 167.7 L 180.8875 170.2875 L 185.8 149.0 L 187.8 149.0 L 185.8744680404663 174.0319149017334 L 190.0 175.8 L 191.8 180.0 L 190.0 184.2 L 185.8 186.0 L 180.5 184.7 L 175.0 181.3 L 169.1 175.3 L 162.9 166.3 L 156.8 153.7 L 156.03360033035278 151.44113779067993 L 155.6 152.3 L 150.0 161.7 L 144.0 170.0 L 137.6 177.1 L 130.7 183.0 L 123.5 187.7 L 122.5 186.2 L 128.2 180.3 L 133.5 173.6 L 138.6 166.1 L 143.5 157.8 L 148.0 148.5 L 151.8982973098755 139.25287618637086 L 151.1 136.9 L 146.0 115.2 L 141.9 88.1 L 141.03819694519044 77.50301389694214 L 123.4 80.9 L 122.6 77.0 L 140.7139956474304 73.51653928756714 L 139.2 54.9 L 138.22501039505005 15.997915840148925 L 138.2 16.0 L 138.2 12.6 L 150.2 15.0 L 153.2 17.0 Z M 94.8 181.7 L 85.0 178.0 L 76.2 173.4 L 70.36134548187256 169.2295325279236 L 66.5 172.3 L 57.5 177.9 L 48.1 182.5 L 38.2 186.1 L 27.8 188.5 L 17.0 189.8 L 16.7 188.1 L 26.8 184.9 L 36.3 181.1 L 45.2 176.6 L 53.5 171.5 L 61.3 165.6 L 63.687035751342776 163.37873058319093 L 61.9 161.7 L 56.6 154.6 L 52.4 146.8 L 49.6 138.3 L 48.2 129.1 L 48.625 129.0 L 34.8 129.0 L 34.8 125.0 L 91.5 125.0 L 91.83391304016114 124.72173910140991 L 92.1 124.2 L 92.32265892028809 124.31445083618163 L 97.5 120.0 L 108.5 129.0 L 103.5 132.0 L 100.78822908401489 133.12990455627443 L 96.7 140.1 L 90.0 149.6 L 82.7 158.1 L 77.99540090560913 162.62594337463378 L 81.1 164.4 L 89.1 167.7 L 97.9 170.3 L 107.8 172.2 L 118.6 173.4 L 129.2 174.5 L 117.3 186.5 L 105.5 184.5 Z M 50.03333330154419 129.0 L 53.5 136.8 L 57.6 144.0 L 62.4 150.3 L 67.8 155.7 L 69.94704904556275 157.30176677703858 L 75.2 151.5 L 81.3 143.2 L 87.0 134.2 L 89.65200004577636 129.0 Z M 16.2 103.9 L 20.9 103.6 L 30.3 103.2 L 33.0 103.14255323410035 L 33.0 93.0 L 18.0 93.0 L 18.0 89.0 L 33.0 89.0 L 33.0 73.0 L 43.0 75.0 L 45.5 77.0 L 43.0 78.66666669845581 L 43.0 103.0 L 47.5 103.0 L 47.5 78.0 L 56.5 80.0 L 58.7 82.0 L 56.5 83.57142858505249 L 56.5 103.39166669845581 L 59.0 103.6 L 63.9 104.1 L 64.0 105.8 L 59.3 107.2 L 56.5 107.91489362716675 L 56.5 108.0 L 56.16666669845581 108.0 L 54.6 108.4 L 49.9 109.4 L 45.3 110.4 L 40.6 111.3 L 22.2 114.9 L 21.81672477722168 114.97665500640869 L 20.0 118.5 L 17.7 115.8 L 14.2 104.1 Z M 74.0 22.0 L 76.0 24.0 L 74.0 25.5 L 74.0 67.0 L 110.77777776718139 67.0 L 117.0 60.0 L 125.0 67.0 L 125.0 71.0 L 74.0 71.0 L 74.0 112.0 L 66.0 116.0 L 66.0 71.0 L 17.0 71.0 L 17.0 67.0 L 66.0 67.0 L 66.0 20.0 Z M 79.1 109.0 L 84.5 109.0 L 84.5 86.6 L 93.5 88.6 L 95.7 90.6 L 93.5 92.1714285850525 L 93.5 109.0 L 97.0 109.0 L 97.0 73.8 L 107.0 75.8 L 109.5 77.8 L 107.0 79.46666669845581 L 107.0 89.2 L 110.0 89.2 L 114.5 83.2 L 120.5 89.2 L 120.5 93.2 L 107.0 93.2 L 107.0 109.0 L 111.8 109.0 L 116.3 103.0 L 122.3 109.0 L 122.3 113.0 L 79.1 113.0 Z M 15.9 48.9 L 20.7 48.4 L 25.4 48.0 L 30.2 47.7 L 34.0 47.4673469543457 L 34.0 35.0 L 19.0 35.0 L 19.0 31.0 L 34.0 31.0 L 34.0 14.0 L 44.0 16.0 L 46.5 18.0 L 44.0 19.66666669845581 L 44.0 47.11632652282715 L 44.8 47.1 L 47.5 47.1 L 47.5 20.0 L 56.5 22.0 L 58.7 24.0 L 56.5 25.57142858505249 L 56.5 47.30200004577637 L 59.8 47.5 L 64.9 48.1 L 65.0 49.8 L 60.1 51.2 L 55.3 52.4 L 45.7 54.6 L 31.6 57.6 L 27.0 58.6 L 22.4 59.7 L 21.962808322906493 59.79715366363526 L 20.4 63.3 L 17.9 60.7 L 14.0 49.2 Z M 79.3 52.6 L 85.0 52.6 L 85.0 28.1 L 94.0 30.1 L 96.3 32.1 L 94.0 33.70465116500854 L 94.0 52.6 L 98.0 52.6 L 98.0 14.1 L 108.0 16.1 L 110.5 18.1 L 108.0 19.76666669845581 L 108.0 31.0 L 111.7 31.0 L 116.2 25.0 L 122.2 31.0 L 122.2 35.0 L 108.0 35.0 L 108.0 52.6 L 113.6 52.6 L 118.1 46.6 L 124.1 52.6 L 124.1 56.6 L 79.3 56.6 Z M 169.6 42.2 L 168.6 39.7 L 167.3 37.1 L 165.9 34.6 L 164.4 32.1 L 162.7 29.6 L 160.8 27.1 L 158.8 24.5 L 156.3 22.3 L 157.3 20.8 L 160.4 22.4 L 163.5 23.9 L 166.4 25.6 L 169.2 27.6 L 171.8 29.7 L 174.2 32.0 L 176.5 34.5 L 178.6 37.1 L 180.6 39.9 L 182.4 42.9 L 182.3 47.4 L 179.1 50.7 L 174.6 50.7 L 171.3 47.5 L 170.5 44.8 Z " />
</g>
</svg>
