<svg xmlns="http://www.w3.org/2000/svg" xmlns:xlink="http://www.w3.org/1999/xlink" version="1.1" baseProfile="full" viewBox="0 0 200 200" width="200" height="200">
<g fill="black">
<path d="M 106.1 137.0 L 108.0 140.0 L 102.66014757156373 140.73653135299682 L 101.5 141.8 L 100.3 143.0 L 99.0 144.1 L 97.7 145.1 L 96.71999998092652 145.8 L 117.4 145.8 L 123.4 140.8 L 134.4 149.8 L 129.4 153.8 L 129.4 177.1 L 117.4 183.1 L 117.4 177.1 L 89.5 177.1 L 89.5 184.1 L 77.5 190.1 L 77.5 139.8 L 89.5 145.8 L 93.13529415130616 145.8 L 93.4 144.3 L 93.7 142.7 L 93.9 141.1 L 94.2 139.5 L 94.6 136.5 L 94.8 135.1 L 94.9 133.6 L 94.95878133773803 133.18853044509888 L 94.7 133.1 L 95.6 131.0 Z M 155.24421253204346 97.11347246170044 L 155.9 114.0 L 156.94765663146973 122.0479079246521 L 165.96069812774658 120.95301380157471 L 172.54611892700194 112.54876251220703 L 170.8 111.4 L 170.5 110.2 L 170.1 109.0 L 169.4 107.7 L 168.6 106.3 L 167.6 104.8 L 166.4 103.4 L 165.0 101.8 L 163.4 100.2 L 161.7 98.6 L 159.6 97.4 L 160.3 95.7 L 162.6 96.6 L 165.1 97.0 L 167.5 97.6 L 169.7 98.3 L 171.8 99.0 L 173.8 99.9 L 177.6 102.1 L 179.3 103.4 L 180.9 104.8 L 181.6 109.3 L 179.30519495010375 112.78810358047485 L 187.8 118.3 L 188.3 122.2 L 157.4621868133545 126.00043468475342 L 158.1 130.9 L 161.3 144.4 L 161.66172485351564 145.38314952850342 L 161.7 145.3 L 164.4 138.4 L 166.55735902786256 132.01421718597413 L 166.5 132.0 L 167.4 129.5 L 178.2 134.9 L 180.4 137.8 L 176.6380000114441 138.5920000076294 L 174.9 142.7 L 171.4 149.9 L 167.5 156.6 L 166.69280576705933 157.77235355377198 L 169.4 162.8 L 173.6 168.4 L 177.6 172.0 L 178.9012195587158 172.8280488014221 L 184.1 150.3 L 186.1 150.3 L 184.1744680404663 175.3319149017334 L 188.3 177.1 L 190.1 181.3 L 188.3 185.5 L 184.1 187.3 L 180.0 186.6 L 175.4 184.8 L 170.2 181.5 L 164.8 176.4 L 159.3 169.3 L 158.73724136352538 168.26275863647462 L 153.9 173.1 L 148.8 177.4 L 143.4 181.0 L 137.6 183.8 L 131.6 185.8 L 130.9 184.2 L 135.7 180.5 L 140.2 176.6 L 144.4 172.5 L 148.4 167.9 L 152.1 162.9 L 154.14379558563232 159.74671535491944 L 149.8 147.9 L 146.3 133.0 L 145.56226329803468 127.46697463989258 L 131.5 129.2 L 131.0 125.2 L 145.03270959854126 123.49532222747803 L 143.9 115.0 L 143.13692312240602 94.39692306518555 L 143.1 94.4 L 143.1 91.0 L 155.1 93.4 L 158.1 95.4 Z M 36.4477162361145 97.11137027740479 L 37.1 113.5 L 38.15543613433838 121.07160730361939 L 46.87504510879516 120.2829737663269 L 53.37364730834961 112.53234720230103 L 52.1 111.8 L 51.7 110.7 L 51.2 109.4 L 50.5 108.1 L 49.7 106.7 L 48.7 105.3 L 47.5 103.8 L 46.2 102.3 L 43.2 99.1 L 41.2 98.0 L 41.9 96.3 L 44.1 97.2 L 46.5 97.6 L 48.7 98.1 L 50.8 98.8 L 52.8 99.5 L 54.8 100.3 L 56.6 101.2 L 58.4 102.2 L 60.1 103.4 L 61.7 104.6 L 62.8 109.1 L 60.6970308303833 112.66590423583985 L 68.8 118.3 L 69.2 122.3 L 38.71040334701538 125.05289373397827 L 39.4 130.0 L 42.6 143.2 L 44.00607995986938 146.78550395965576 L 45.2 144.5 L 48.5 137.4 L 51.14411916732788 130.61342754364014 L 51.1 130.6 L 52.0 128.3 L 62.6 134.1 L 64.7 137.1 L 60.9172176361084 137.68698348999024 L 58.8 142.2 L 54.6 149.7 L 50.2 156.5 L 49.14063234329224 157.8904200553894 L 50.9 161.0 L 55.3 166.4 L 59.3 169.9 L 61.20540542602539 171.04324321746827 L 66.5 148.1 L 68.5 148.1 L 66.57446804046631 173.1319149017334 L 70.7 174.9 L 72.5 179.1 L 70.7 183.3 L 66.5 185.1 L 66.5 174.1 L 66.40833330154419 174.1 L 66.5 185.1 L 62.4 184.6 L 57.7 182.8 L 52.3 179.6 L 46.6 174.7 L 41.006744956970216 167.80831079483033 L 40.4 168.5 L 35.0 173.5 L 29.3 177.9 L 23.4 181.5 L 17.2 184.4 L 10.7 186.4 L 10.0 184.7 L 15.4 181.0 L 20.4 177.0 L 25.2 172.8 L 29.7 168.1 L 34.0 162.9 L 36.361650466918945 159.59368934631348 L 35.8 158.6 L 31.2 146.8 L 27.6 132.3 L 26.76360216140747 126.13156576156616 L 10.5 127.6 L 10.2 123.6 L 26.2238299369812 122.15074577331544 L 25.2 114.6 L 24.34230318069458 94.39647474288941 L 24.3 94.4 L 24.3 91.0 L 36.3 93.4 L 39.3 95.4 Z M 89.5 162.9 L 89.5 173.1 L 117.4 173.1 L 117.4 162.9 Z M 89.5 149.8 L 89.5 158.9 L 117.4 158.9 L 117.4 149.8 Z M 126.28287839889526 17.630272960662843 L 127.13766231536866 28.6 L 169.8181818008423 28.6 L 178.0 19.6 L 188.0 28.6 L 188.0 32.6 L 128.08888893127443 32.6 L 130.7 42.0 L 135.9 52.2 L 142.4 60.3 L 143.1208372116089 60.94074420928955 L 145.9 59.1 L 152.7 53.7 L 158.6 48.0 L 163.6 41.8 L 163.64592084884643 41.83663902282715 L 164.1 41.3 L 173.0 49.3 L 174.1 52.7 L 170.24092903137208 52.23425006866455 L 166.7 56.0 L 159.5 62.0 L 151.4 67.5 L 151.14157304763793 67.64096012115479 L 157.3 71.4 L 164.9 74.8 L 171.9 76.9 L 176.38400001525878 77.73599996566773 L 182.0 53.4 L 184.0 53.4 L 182.07446804046631 78.43191490173339 L 186.2 80.2 L 188.0 84.4 L 186.2 88.6 L 182.0 90.4 L 176.3 89.9 L 169.1 88.6 L 160.8 86.1 L 151.7 82.1 L 142.5 76.4 L 139.434645652771 73.71781492233276 L 133.0 76.6 L 122.6 80.3 L 111.4 83.4 L 100.6269326210022 85.55461349487305 L 105.2 88.1 L 107.2 91.1 L 101.86717329025268 91.83556232452392 L 100.7 93.1 L 99.5 94.2 L 98.2 95.4 L 96.9 96.4 L 95.75454549789428 97.3 L 115.9 97.3 L 121.9 92.3 L 132.9 101.3 L 127.9 105.3 L 127.9 131.0 L 115.9 137.0 L 115.9 129.0 L 89.0 129.0 L 89.0 132.0 L 77.0 138.0 L 77.0 91.3 L 89.0 97.3 L 92.41176471710205 97.3 L 92.8 94.0 L 93.1 92.5 L 93.3 90.9 L 93.5 89.4 L 93.7 87.8 L 93.87382316589355 86.58323764801025 L 86.7 87.6 L 73.1 88.7 L 72.8 86.9 L 86.0 83.9 L 98.2 80.6 L 109.6 77.0 L 120.0 73.1 L 129.6 68.8 L 132.53766555786132 67.22869052886963 L 125.8 58.7 L 119.6 46.4 L 115.71006708145141 32.6 L 12.0 32.6 L 12.0 28.6 L 115.16800003051758 28.6 L 114.07947015762329 14.993377494812012 L 114.0 15.0 L 114.0 11.6 L 126.0 14.0 L 129.0 16.0 Z M 89.0 114.6 L 89.0 125.0 L 115.9 125.0 L 115.9 114.6 Z M 89.0 101.3 L 89.0 110.6 L 115.9 110.6 L 115.9 101.3 Z M 16.5 73.1 L 25.2 72.7 L 34.1 72.3 L 43.2 71.9 L 52.5 71.4 L 62.1 71.0 L 71.8 70.5 L 81.7 70.0 L 91.9 69.6 L 102.3 69.4 L 112.9 69.3 L 113.0 71.1 L 102.6 73.1 L 92.4 75.0 L 82.4 76.6 L 72.5 78.1 L 62.8 79.4 L 53.4 80.7 L 44.1 81.9 L 35.0 83.0 L 26.1 84.1 L 21.46713533401489 84.63251314163207 L 19.6 87.9 L 17.4 85.1 L 14.5 73.3 Z M 46.0 41.1 L 86.0 41.1 L 92.0 36.1 L 103.0 45.1 L 98.0 49.1 L 98.0 62.7 L 86.0 68.7 L 86.0 62.7 L 46.0 62.7 L 34.0 68.7 L 34.0 35.1 Z M 46.0 45.1 L 46.0 58.7 L 86.0 58.7 L 86.0 45.1 Z M 156.1 24.4 L 154.7 23.2 L 153.2 22.0 L 151.3 20.7 L 149.3 19.5 L 147.0 18.2 L 144.5 16.8 L 141.8 15.4 L 138.8 14.5 L 139.1 12.7 L 142.3 13.1 L 145.4 13.1 L 148.4 13.2 L 151.2 13.5 L 153.9 13.8 L 156.4 14.3 L 158.8 14.8 L 163.2 16.2 L 165.2 17.1 L 167.5 21.1 L 166.3 25.5 L 162.4 27.8 L 157.9 26.7 L 157.1 25.6 Z " />
</g>
</svg>
