<svg xmlns="http://www.w3.org/2000/svg" xmlns:xlink="http://www.w3.org/1999/xlink" version="1.1" baseProfile="full" viewBox="0 0 200 200" width="200" height="200">
<g fill="black">
<path d="M 36.0 26.0 L 36.0 170.0 L 163.0 170.0 L 173.0 160.0 L 185.0 170.0 L 185.0 174.0 L 36.0 174.0 L 36.0 181.0 L 24.0 187.0 L 24.0 20.0 Z M 129.10741205215453 23.13555278778076 L 129.88274765014648 50.1 L 150.3 50.1 L 160.3 40.1 L 172.3 50.1 L 172.3 54.1 L 130.2675675392151 54.1 L 132.7 76.6 L 136.7 97.7 L 140.34386434555054 109.94338436126709 L 144.4 101.5 L 148.7 90.4 L 152.4 78.3 L 152.46398763656617 78.31947450637817 L 152.9 76.7 L 163.9 81.8 L 166.2 84.6 L 162.5441047668457 85.51397380828857 L 159.3 94.4 L 154.1 106.0 L 148.2 116.7 L 144.79661836624146 121.65037326812744 L 147.2 127.2 L 152.9 136.5 L 158.2 142.7 L 162.6637517929077 146.29040899276734 L 167.9 123.6 L 169.9 123.6 L 167.97446804046632 148.6319149017334 L 172.1 150.4 L 173.9 154.6 L 172.1 158.7 L 167.9 160.6 L 162.4 159.5 L 156.4 156.6 L 149.9 151.3 L 143.1 143.5 L 136.6 132.7 L 136.49710540771486 132.46599769592285 L 134.4 135.0 L 126.6 142.6 L 118.1 149.2 L 109.0 154.7 L 99.4 158.9 L 89.2 162.0 L 88.6 160.3 L 97.8 155.5 L 106.3 150.1 L 114.1 144.0 L 121.4 137.1 L 128.0 129.5 L 132.43204660415648 123.22126731872558 L 130.4 118.6 L 125.0 100.6 L 120.8 78.4 L 118.270631980896 54.1 L 44.7 54.1 L 44.7 50.1 L 117.95638628005982 50.1 L 117.03107194900512 20.397410678863526 L 117.0 20.4 L 117.0 17.0 L 129.0 19.4 L 132.0 21.4 Z M 47.3 138.6 L 53.6 137.6 L 60.0 136.6 L 66.6 135.4 L 73.4 134.2 L 80.3 133.0 L 87.4 131.7 L 94.7 130.3 L 102.1 129.0 L 109.8 127.7 L 117.6 126.6 L 118.1 128.4 L 110.8 131.4 L 103.5 134.2 L 96.3 136.7 L 89.3 139.0 L 82.3 141.2 L 75.5 143.3 L 68.9 145.2 L 62.4 147.0 L 56.0 148.8 L 53.71876487731934 149.37936134338378 L 52.3 152.9 L 49.7 150.4 L 45.4 139.0 Z M 71.0 73.8 L 96.7 73.8 L 102.7 68.8 L 113.7 77.8 L 108.7 81.8 L 108.7 113.5 L 96.7 119.5 L 96.7 111.5 L 71.0 111.5 L 71.0 118.5 L 59.0 124.5 L 59.0 67.8 Z M 71.0 77.8 L 71.0 107.5 L 96.7 107.5 L 96.7 77.8 Z M 146.2 33.2 L 145.2 31.4 L 144.2 29.5 L 143.0 27.6 L 141.6 25.8 L 140.1 23.9 L 138.5 22.0 L 136.5 20.5 L 137.3 18.9 L 139.7 20.0 L 142.3 20.8 L 144.7 21.8 L 147.1 22.9 L 149.3 24.3 L 151.5 25.8 L 153.5 27.5 L 155.4 29.4 L 157.2 31.4 L 158.9 33.6 L 159.1 38.1 L 156.2 41.6 L 151.6 41.9 L 148.1 38.9 L 147.6 37.0 Z " />
</g>
</svg>
