<svg xmlns="http://www.w3.org/2000/svg" xmlns:xlink="http://www.w3.org/1999/xlink" version="1.1" baseProfile="full" viewBox="0 0 200 200" width="200" height="200">
<g fill="black">
<path d="M 136.10584955215455 17.73649024963379 L 137.0 49.3 L 138.02409238815306 60.0 L 169.8181818008423 60.0 L 178.0 51.0 L 188.0 60.0 L 188.0 64.0 L 138.40693073272706 64.0 L 139.9 79.6 L 144.2 105.0 L 149.6 125.9 L 150.71722927093506 128.95864400863647 L 150.8 128.8 L 156.1 116.1 L 160.8 102.4 L 164.62549543380737 88.40428495407104 L 164.6 88.4 L 165.3 85.7 L 176.5 90.4 L 178.9 93.1 L 175.30107049942018 94.19253215789794 L 171.6 105.9 L 166.0 120.2 L 159.7 133.3 L 155.12190809249878 141.01735496520996 L 155.7 142.6 L 162.1 155.3 L 168.4 164.5 L 174.1 170.4 L 175.80758924484252 171.5004464149475 L 181.0 149.0 L 183.0 149.0 L 181.07446804046631 174.0319149017334 L 185.2 175.8 L 187.0 180.0 L 185.2 184.2 L 181.0 186.0 L 173.7 184.2 L 166.4 179.6 L 159.1 172.1 L 151.8 161.4 L 147.32093238830566 152.50495023727416 L 145.0 155.7 L 136.6 165.1 L 127.5 173.1 L 117.7 179.8 L 107.3 185.0 L 96.3 188.8 L 95.6 187.1 L 105.6 181.7 L 114.7 175.4 L 123.2 168.1 L 131.1 159.9 L 138.3 150.6 L 143.10210151672362 142.99051609039307 L 138.1 129.5 L 132.5 107.5 L 128.0 81.2 L 126.34083604812622 64.0 L 12.0 64.0 L 12.0 60.0 L 61.0 60.0 L 61.0 41.5 L 36.2 41.5 L 36.2 44.5 L 24.2 50.5 L 24.2 17.5 L 36.2 19.5 L 39.2 21.5 L 36.2 23.3 L 36.2 37.5 L 61.0 37.5 L 61.0 11.0 L 73.0 13.0 L 76.0 15.0 L 73.0 16.8 L 73.0 37.5 L 97.7 37.5 L 97.7 17.5 L 109.7 19.5 L 112.7 21.5 L 109.7 23.3 L 109.7 43.5 L 97.7 49.5 L 97.7 41.5 L 73.0 41.5 L 73.0 60.0 L 125.95498390197754 60.0 L 125.0 50.1 L 124.0276370048523 14.997696876525879 L 124.0 15.0 L 124.0 11.6 L 136.0 14.0 L 139.0 16.0 Z M 119.0 83.2 L 119.0 87.2 L 70.2384614944458 87.2 L 69.8 87.8 L 67.0 91.4 L 65.4 93.2 L 63.9 94.9 L 60.5 98.3 L 58.7 99.9 L 56.8 101.5 L 55.86666669845581 102.2 L 91.0 102.2 L 97.0 97.2 L 108.0 106.2 L 103.0 110.2 L 103.0 168.4 L 91.0 174.4 L 91.0 168.4 L 42.5 168.4 L 42.5 180.4 L 30.5 186.4 L 30.5 96.2 L 42.5 102.2 L 52.65714282989502 102.2 L 53.0 101.6 L 53.8 99.3 L 54.6 97.1 L 55.3 94.9 L 56.1 92.8 L 56.7 90.7 L 57.4 88.6 L 57.81999998092651 87.2 L 13.9 87.2 L 13.9 83.2 L 100.81818180084228 83.2 L 109.0 74.2 Z M 42.5 146.0 L 42.5 164.4 L 91.0 164.4 L 91.0 146.0 Z M 42.5 125.8 L 42.5 142.0 L 91.0 142.0 L 91.0 125.8 Z M 42.5 106.2 L 42.5 121.8 L 91.0 121.8 L 91.0 106.2 Z M 161.3 38.6 L 160.1 36.3 L 158.6 34.0 L 157.0 31.7 L 155.1 29.4 L 153.0 27.1 L 150.8 24.7 L 148.3 22.3 L 145.4 20.2 L 146.3 18.6 L 149.6 20.0 L 153.0 21.2 L 156.3 22.7 L 159.3 24.3 L 162.2 26.1 L 164.8 28.1 L 167.4 30.2 L 169.7 32.4 L 171.9 34.9 L 173.8 37.5 L 174.2 42.0 L 171.4 45.6 L 166.8 46.0 L 163.2 43.1 L 162.4 40.9 Z " />
</g>
</svg>
