<svg xmlns="http://www.w3.org/2000/svg" xmlns:xlink="http://www.w3.org/1999/xlink" version="1.1" baseProfile="full" viewBox="0 0 200 200" width="200" height="200">
<g fill="black">
<path d="M 39.9 150.4 L 81.0 150.4 L 87.0 145.4 L 98.0 154.4 L 93.0 158.4 L 93.0 183.7 L 81.0 189.7 L 81.0 181.7 L 39.9 181.7 L 39.9 184.7 L 27.9 190.7 L 27.9 144.4 Z M 139.00486707687378 18.73707981109619 L 140.0 54.2 L 141.7037836074829 71.45080947875977 L 166.51830024719237 67.48292865753174 L 174.9 56.0 L 188.3 64.0 L 188.9 67.9 L 142.09320478439332 75.39369869232178 L 143.2 86.6 L 147.9 112.8 L 150.3902606010437 121.60178327560425 L 152.9 114.7 L 157.1 101.5 L 160.8 87.4 L 160.83946800231934 87.41054744720459 L 161.3 85.7 L 172.4 90.5 L 174.8 93.2 L 171.23823528289796 94.21764707565308 L 167.9 104.9 L 163.0 118.4 L 157.7 130.8 L 154.93302755355836 136.2862385749817 L 160.1 148.8 L 166.6 159.9 L 172.6 167.3 L 177.70310554504394 171.51987581253053 L 182.9 149.0 L 184.9 149.0 L 182.97446804046632 174.0319149017334 L 187.1 175.8 L 188.9 180.0 L 187.1 184.2 L 182.9 186.0 L 177.4 184.9 L 171.1 181.6 L 164.1 175.8 L 156.7 166.8 L 149.3 154.1 L 147.45160522460938 149.57277231216432 L 145.6 152.6 L 139.0 162.0 L 131.8 170.2 L 124.3 177.3 L 116.2 183.2 L 107.8 187.7 L 106.9 186.2 L 113.9 180.1 L 120.6 173.4 L 126.9 165.9 L 132.8 157.5 L 138.4 148.2 L 143.11502590179444 138.95129537582397 L 142.4 137.2 L 136.2 115.4 L 131.3 88.2 L 130.2192940711975 77.29469432830811 L 111.02680244445801 80.36738386154175 L 111.8 81.0 L 106.8 84.0 L 102.96000003814697 85.6 L 102.7 85.9 L 101.3 87.6 L 99.8 89.3 L 98.2 91.0 L 94.6 94.8 L 92.6 96.7 L 91.0 98.9 L 89.4 98.0 L 90.7 95.5 L 91.4 92.9 L 92.1 90.4 L 92.8 88.0 L 93.4 85.8 L 93.9 83.7 L 94.4 81.7 L 94.5555555343628 81.0 L 26.02702703475952 81.0 L 26.2 82.6 L 26.3 86.0 L 26.3 89.1 L 26.1 92.1 L 25.6 94.9 L 24.8 97.5 L 23.7 100.0 L 22.0 102.3 L 17.7 103.7 L 13.6 101.7 L 12.2 97.3 L 14.2 93.2 L 14.9 93.0 L 15.9 92.4 L 16.9 91.3 L 18.0 89.7 L 19.0 87.6 L 20.0 85.0 L 20.9 82.1 L 21.8 78.7 L 22.6 75.0 L 22.9 70.9 L 24.7 70.8 L 25.1 75.0 L 25.458974361419678 77.0 L 54.5 77.0 L 54.5 56.4 L 66.5 58.4 L 69.5 60.4 L 66.5 62.2 L 66.5 77.0 L 94.8 77.0 L 100.8 72.0 L 107.01530055999756 77.08524589538574 L 107.0 77.0 L 129.82834968566894 73.34971036911011 L 128.0 54.9 L 126.92750568389893 15.997707843780518 L 126.9 16.0 L 126.9 12.6 L 138.9 15.0 L 141.9 17.0 Z M 39.9 154.4 L 39.9 177.7 L 81.0 177.7 L 81.0 154.4 Z M 13.6 134.9 L 54.5 134.9 L 54.5 120.6 L 24.3 120.6 L 24.3 116.6 L 54.5 116.6 L 54.5 103.9 L 30.5 103.9 L 30.5 99.9 L 54.5 99.9 L 54.5 85.7 L 66.5 87.7 L 69.5 89.7 L 66.5 91.5 L 66.5 99.9 L 72.21818180084229 99.9 L 80.4 90.9 L 90.4 99.9 L 90.4 103.9 L 66.5 103.9 L 66.5 116.6 L 78.41818180084229 116.6 L 86.6 107.6 L 96.6 116.6 L 96.6 120.6 L 66.5 120.6 L 66.5 134.9 L 89.11818180084228 134.9 L 97.3 125.9 L 107.3 134.9 L 107.3 138.9 L 13.6 138.9 Z M 13.0 47.8 L 42.25543479919433 47.8 L 44.32445650100708 31.6 L 26.0 31.6 L 26.0 27.6 L 44.83532609939575 27.6 L 46.7 13.0 L 58.4 16.6 L 61.1 18.9 L 57.96955785751343 19.92341375350952 L 56.97530117034912 27.6 L 77.1 27.6 L 83.1 22.6 L 94.1 31.6 L 89.1 35.6 L 89.1 47.8 L 93.6777777671814 47.8 L 99.9 40.8 L 107.9 47.8 L 107.9 51.8 L 13.0 51.8 Z M 164.6 42.7 L 163.2 40.1 L 161.6 37.5 L 159.8 34.9 L 157.8 32.4 L 155.5 29.8 L 153.1 27.2 L 150.5 24.6 L 147.5 22.2 L 148.3 20.7 L 152.0 22.2 L 155.6 23.6 L 159.0 25.4 L 162.2 27.3 L 165.2 29.4 L 168.1 31.7 L 170.7 34.1 L 173.2 36.8 L 175.5 39.6 L 177.5 42.6 L 177.8 47.1 L 174.8 50.6 L 170.3 50.9 L 166.8 48.0 L 165.8 45.3 Z M 56.45722894668579 31.6 L 54.359036159515384 47.8 L 77.1 47.8 L 77.1 31.6 Z " />
</g>
</svg>
