<svg xmlns="http://www.w3.org/2000/svg" xmlns:xlink="http://www.w3.org/1999/xlink" version="1.1" baseProfile="full" viewBox="0 0 200 200" width="200" height="200">
<g fill="black">
<path d="M 146.60486707687377 18.73707981109619 L 147.6 54.2 L 149.1303855895996 71.3508734703064 L 169.53131589889526 67.78619480133057 L 177.7 56.2 L 191.2 64.0 L 191.9 67.9 L 149.48378953933715 75.31143465042115 L 150.5 86.7 L 154.8 112.9 L 156.68130912780762 120.04200706481933 L 158.4 114.8 L 162.2 101.7 L 165.6 87.5 L 165.62110004425048 87.50504961013795 L 166.0 85.8 L 177.3 90.3 L 179.7 93.0 L 176.20502681732177 94.08026447296143 L 173.1 104.8 L 168.6 118.2 L 163.7 130.7 L 161.1974596977234 136.08282260894777 L 166.0 149.0 L 171.9 160.1 L 177.5 167.5 L 181.32351350784302 170.9981081008911 L 186.4 149.0 L 188.4 149.0 L 186.47446804046632 174.0319149017334 L 190.6 175.8 L 192.4 180.0 L 190.6 184.2 L 186.4 186.0 L 181.0 184.8 L 175.1 181.5 L 168.6 175.6 L 161.8 166.6 L 155.1 153.9 L 153.77318019866942 150.3963665008545 L 152.6 152.5 L 146.5 161.8 L 139.9 170.1 L 132.9 177.2 L 125.5 183.1 L 117.7 187.7 L 116.7 186.2 L 123.0 180.2 L 129.0 173.5 L 134.7 166.0 L 140.1 157.7 L 145.2 148.4 L 149.49076776504518 139.08812103271484 L 148.7 137.0 L 143.1 115.3 L 138.6 88.2 L 137.6255352973938 77.38344144821167 L 122.81967544555664 79.97048683166504 L 122.8 80.0 L 120.1 81.8 L 85.4 81.8 L 83.1 81.5 L 80.8 80.9 L 78.6 79.9 L 76.6 78.5 L 74.9 76.7 L 73.6 74.6 L 72.7 72.2 L 72.1 69.8 L 71.8 67.3 L 71.8 43.09523811340332 L 71.0 43.2 L 54.0 45.2 L 52.8884614944458 45.317692279815674 L 58.8 46.5 L 61.8 48.5 L 58.19575967788696 50.66254415512085 L 57.9 52.7 L 56.1 58.4 L 53.2 63.6 L 49.3 68.2 L 44.7 72.0 L 39.2 75.2 L 33.0 77.7 L 26.1 79.7 L 18.4 81.0 L 10.0 81.6 L 9.7 79.8 L 17.6 77.3 L 24.5 74.6 L 30.4 71.7 L 35.4 68.6 L 39.4 65.4 L 42.4 62.0 L 44.6 58.4 L 46.0 54.7 L 46.7 50.8 L 46.8 46.5 L 46.8 45.96235294342041 L 37.0 47.0 L 28.4 47.9 L 23.90563049316406 48.31808090209961 L 22.0 51.6 L 19.8 48.7 L 17.1 36.9 L 19.1 36.7 L 40.54896144866943 36.201186943054196 L 42.3 34.2 L 45.0 31.1 L 47.6 28.2 L 50.1 25.3 L 52.4 22.5 L 54.6 19.8 L 58.4 14.6 L 59.46085500717163 12.942414093017579 L 59.4 12.9 L 59.92380952835083 12.21904764175415 L 60.0 12.1 L 60.00939865112305 12.10778169631958 L 60.4 11.6 L 69.3 19.8 L 70.3 23.3 L 66.16823978424073 22.658864784240723 L 64.2 24.4 L 61.4 26.6 L 58.5 28.9 L 55.4 31.1 L 52.2 33.4 L 48.8 35.6 L 48.07075309753418 36.02539405822754 L 53.4 35.9 L 62.0 35.8 L 70.4 35.6 L 87.3 35.6 L 95.53209171295165 35.69684810638428 L 93.8 34.3 L 90.3 31.6 L 86.6 28.8 L 82.3 26.0 L 83.1 24.4 L 87.9 26.2 L 92.5 27.7 L 96.7 29.3 L 100.5 31.0 L 104.0 32.6 L 107.2 34.3 L 110.1 36.0 L 112.8 37.7 L 115.1 39.5 L 117.2 41.4 L 118.2 45.8 L 115.9 49.8 L 111.5 50.8 L 107.5 48.5 L 106.8 47.1 L 105.6 45.3 L 104.1 43.4 L 102.1 41.4 L 99.7 39.1 L 99.39113283157349 38.846287631988524 L 96.0 39.5 L 87.7 40.9 L 79.4 42.1 L 72.45600004196167 43.009333324432376 L 83.8 44.9 L 86.8 46.9 L 83.8 48.7 L 83.8 67.3 L 83.7 68.5 L 83.8 69.5 L 83.8 70.2 L 83.9 70.7 L 84.0 71.1 L 84.7 71.8 L 85.4 72.2 L 86.4 72.5 L 87.8 72.8 L 115.6 72.8 L 120.1 59.8 L 122.1 59.8 L 120.1 72.8 L 122.8 74.6 L 123.607062625885 75.8105938911438 L 137.268780708313 73.42346572875977 L 135.6 54.9 L 134.52750568389894 15.997707843780518 L 134.5 16.0 L 134.5 12.6 L 146.5 15.0 L 149.5 17.0 Z M 97.2 180.9 L 90.1 177.7 L 83.8 173.8 L 78.4 169.1 L 74.0 163.7 L 70.6 157.7 L 68.42729969024658 151.72507419586182 L 65.9 157.3 L 61.4 164.0 L 55.7 169.8 L 49.0 174.5 L 41.4 178.4 L 32.8 181.2 L 23.3 183.1 L 12.8 183.9 L 12.6 182.1 L 22.4 179.4 L 31.0 176.1 L 38.5 172.4 L 44.8 168.3 L 49.9 163.6 L 53.9 158.5 L 57.0 152.8 L 59.1 146.6 L 60.3 139.7 L 60.6 132.1 L 60.6 129.8 L 72.6 132.3 L 75.5 134.4 L 72.15610332489014 136.3394600868225 L 71.6 141.4 L 71.10446891784667 143.20976552963256 L 73.8 149.1 L 76.9 154.1 L 78.8227071762085 156.3965669631958 L 80.4 155.2 L 83.0 152.7 L 85.5 150.3 L 87.9 148.0 L 90.2 145.8 L 92.3 143.6 L 94.4 141.5 L 96.4 139.4 L 98.2 137.4 L 99.21320219039917 136.20799741744995 L 99.1 136.1 L 99.740625 135.5875 L 99.9 135.4 L 99.93093996047973 135.43524808883666 L 100.1 135.3 L 107.8 144.4 L 108.3 148.0 L 104.2410852432251 146.69534883499145 L 102.9 147.5 L 97.5 150.5 L 94.6 152.0 L 91.6 153.5 L 88.5 154.9 L 85.2 156.2 L 81.8 157.5 L 80.31255741119385 158.17611026763916 L 80.5 158.4 L 84.6 162.1 L 89.4 165.2 L 94.8 167.7 L 100.9 169.7 L 107.8 171.2 L 115.5 172.1 L 125.8 173.3 L 114.0 185.2 L 105.2 183.4 Z M 24.0 162.5 L 23.7 158.0 L 26.5 154.4 L 28.4 153.8 L 30.2 153.1 L 31.8 152.1 L 33.5 150.9 L 35.1 149.5 L 36.6 147.8 L 38.0 145.8 L 39.4 143.5 L 40.8 140.9 L 41.5 138.0 L 43.3 138.2 L 43.1 141.3 L 43.2 144.5 L 42.9 147.5 L 42.3 150.5 L 41.4 153.3 L 40.2 156.0 L 38.6 158.5 L 36.8 160.9 L 34.6 163.1 L 32.1 165.1 L 27.6 165.4 Z M 37.0 88.9 L 94.9 88.9 L 100.9 83.9 L 111.9 92.9 L 106.9 96.9 L 106.9 128.7 L 94.9 134.7 L 94.9 128.7 L 37.0 128.7 L 37.0 131.7 L 25.0 137.7 L 25.0 82.9 Z M 37.0 110.3 L 37.0 124.7 L 94.9 124.7 L 94.9 110.3 Z M 37.0 92.9 L 37.0 106.3 L 94.9 106.3 L 94.9 92.9 Z M 169.1 42.5 L 167.9 39.9 L 166.5 37.3 L 164.9 34.8 L 163.1 32.2 L 161.1 29.7 L 158.9 27.2 L 156.6 24.6 L 153.9 22.2 L 154.8 20.7 L 158.2 22.3 L 161.5 23.7 L 164.7 25.5 L 167.7 27.4 L 170.5 29.5 L 173.1 31.8 L 175.6 34.3 L 177.9 36.9 L 180.0 39.8 L 181.9 42.7 L 182.0 47.3 L 179.0 50.7 L 174.4 50.8 L 171.0 47.7 L 170.1 45.1 Z " />
</g>
</svg>
