<svg xmlns="http://www.w3.org/2000/svg" xmlns:xlink="http://www.w3.org/1999/xlink" version="1.1" baseProfile="full" viewBox="0 0 200 200" width="200" height="200">
<g fill="black">
<path d="M 179.0 113.7 L 179.0 117.7 L 105.10465116500855 117.7 L 101.2 120.0 L 99.3 121.1 L 97.4 122.3 L 95.4 123.4 L 93.3 124.4 L 91.2 125.5 L 88.9 126.5 L 86.6 127.4 L 86.33333330154419 127.5 L 140.0 127.5 L 146.0 122.5 L 157.0 131.5 L 152.0 135.5 L 152.0 180.4 L 140.0 186.4 L 140.0 176.4 L 61.0 176.4 L 61.0 183.4 L 49.0 189.4 L 49.0 121.5 L 61.0 127.5 L 80.0 127.5 L 80.5 127.1 L 82.1 125.1 L 85.3 121.5 L 86.7 119.7 L 88.1 118.0 L 88.32941179275512 117.7 L 21.0 117.7 L 21.0 113.7 L 160.8181818008423 113.7 L 169.0 104.7 Z M 61.0 160.2 L 61.0 172.4 L 140.0 172.4 L 140.0 160.2 Z M 61.0 145.6 L 61.0 156.2 L 140.0 156.2 L 140.0 145.6 Z M 61.0 131.5 L 61.0 141.6 L 140.0 141.6 L 140.0 131.5 Z M 126.2252155303955 16.464870643615722 L 127.1 30.7 L 130.05263156890868 44.3 L 169.8181818008423 44.3 L 178.0 35.3 L 188.0 44.3 L 188.0 48.3 L 131.32598428726197 48.3 L 135.3 58.6 L 141.4 69.1 L 145.77640447616577 74.35168542861939 L 147.9 72.7 L 154.4 66.7 L 160.3 60.3 L 165.25806455612184 53.93870964050293 L 166.0 52.9 L 175.1 60.8 L 176.3 64.2 L 172.47154150009155 63.803952598571776 L 168.8 68.0 L 161.7 74.6 L 154.0 80.6 L 152.81967248916627 81.38214473724365 L 155.8 84.0 L 163.2 88.8 L 170.2 92.0 L 175.4285714149475 93.54285717010498 L 181.0 69.4 L 183.0 69.4 L 181.07446804046631 94.43191490173339 L 185.2 96.2 L 187.0 100.4 L 185.2 104.6 L 181.0 106.4 L 181.0 95.4 L 180.99166669845582 95.4 L 180.9 106.4 L 173.9 105.6 L 166.0 103.3 L 157.4 99.3 L 148.5 93.6 L 142.22501344680785 87.97414999008178 L 136.8 90.9 L 127.3 95.1 L 117.2 98.7 L 106.4 101.7 L 95.1 104.0 L 83.1 105.5 L 82.8 103.7 L 94.2 100.3 L 104.9 96.6 L 114.9 92.6 L 124.2 88.2 L 132.8 83.4 L 136.0410936355591 81.30764846801758 L 131.6 76.0 L 124.5 63.8 L 118.9 49.3 L 118.68698225021362 48.3 L 12.0 48.3 L 12.0 44.3 L 46.0 44.3 L 43.3 41.6 L 43.3 40.5 L 42.9 38.1 L 42.4 36.8 L 41.9 35.4 L 41.1 33.9 L 40.2 32.4 L 39.2 30.8 L 38.0 29.1 L 36.4 28.0 L 37.01875 26.9 L 19.8 26.9 L 19.8 22.9 L 58.0 22.9 L 58.0 11.5 L 70.0 13.5 L 73.0 15.5 L 70.0 17.3 L 70.0 22.9 L 86.2 22.9 L 96.2 12.9 L 108.2 22.9 L 108.2 26.9 L 85.96666669845581 26.9 L 92.5 31.8 L 94.0 35.1 L 88.8434959411621 34.925203227996825 L 88.5 35.2 L 86.9 36.5 L 85.2 38.0 L 83.4 39.5 L 81.3 41.1 L 79.2 42.9 L 77.2235294342041 44.3 L 117.83491125106812 44.3 L 115.3 32.4 L 114.06596193313598 13.794503211975098 L 114.0 13.8 L 114.0 10.4 L 126.0 12.8 L 129.0 14.8 Z M 40.1 55.6 L 84.8 55.6 L 90.8 50.6 L 101.8 59.6 L 96.8 63.6 L 96.8 96.4 L 84.8 102.4 L 84.8 96.4 L 40.1 96.4 L 40.1 99.4 L 28.1 105.4 L 28.1 49.6 Z M 40.1 77.4 L 40.1 92.4 L 84.8 92.4 L 84.8 77.4 Z M 40.1 59.6 L 40.1 73.4 L 84.8 73.4 L 84.8 59.6 Z M 39.1 27.4 L 41.2 27.9 L 43.2 28.6 L 45.1 29.5 L 46.9 30.4 L 48.6 31.4 L 50.2 32.6 L 51.7 33.9 L 53.1 35.4 L 54.3 37.0 L 54.3 41.5 L 51.5848484992981 44.3 L 74.25200004577637 44.3 L 75.0 43.2 L 76.2 40.5 L 77.4 38.0 L 78.5 35.7 L 79.4 33.6 L 80.3 31.6 L 81.0 29.8 L 81.6 28.1 L 81.94285717010499 26.9 L 38.2 26.9 Z M 157.9 32.6 L 156.2 30.9 L 154.2 29.2 L 152.1 27.5 L 149.8 25.7 L 147.3 24.0 L 144.6 22.2 L 141.8 20.3 L 138.6 18.8 L 139.2 17.1 L 142.7 17.9 L 146.1 18.4 L 149.5 19.0 L 152.6 19.9 L 155.6 20.8 L 158.5 21.8 L 161.3 23.0 L 163.9 24.2 L 166.4 25.6 L 168.8 27.1 L 170.7 31.3 L 169.2 35.6 L 165.0 37.5 L 160.7 36.0 L 159.4 34.3 Z " />
</g>
</svg>
