<svg xmlns="http://www.w3.org/2000/svg" xmlns:xlink="http://www.w3.org/1999/xlink" version="1.1" baseProfile="full" viewBox="0 0 200 200" width="200" height="200">
<g fill="black">
<path d="M 158.0 176.5 L 150.2 166.4 L 144.31999998092653 154.08000001907348 L 139.6 158.8 L 131.3 165.8 L 122.3 172.1 L 118.83465070724488 174.06019763946534 L 119.1 174.1 L 107.2 185.7 L 97.5 183.6 L 88.4 181.0 L 80.0 177.7 L 72.1 173.9 L 65.37686567306518 169.79141788482667 L 57.4 173.4 L 48.2 176.6 L 38.3 179.1 L 27.8 180.8 L 16.5 181.8 L 16.2 180.0 L 27.0 177.1 L 36.9 173.9 L 46.0 170.4 L 54.2 166.5 L 58.166620922088626 164.2786922454834 L 52.6 159.0 L 47.5 152.9 L 43.3 146.2 L 40.544444465637206 140.0 L 25.4 140.0 L 25.4 136.0 L 86.0 136.0 L 86.36243658065796 135.69796953201293 L 86.7 135.1 L 86.93010377883911 135.2249135017395 L 92.0 131.0 L 103.0 140.0 L 98.0 143.0 L 94.88427877426147 144.29821720123292 L 92.5 147.9 L 87.0 154.3 L 80.7 160.1 L 75.19998273849487 164.05071659088134 L 76.6 164.7 L 83.9 167.4 L 91.7 169.6 L 100.1 171.4 L 109.1 172.6 L 114.74955749511719 173.44743366241454 L 120.0 169.0 L 127.8 161.7 L 134.9 154.2 L 141.2 146.5 L 141.60694389343263 145.90808162689208 L 138.9 137.3 L 135.1 118.6 L 132.6 97.2 L 131.73277311325074 80.0 L 107.0 80.0 L 107.0 76.0 L 131.53109245300294 76.0 L 131.4 73.4 L 131.5 47.1 L 132.85106964111327 19.499577903747557 L 132.8 19.5 L 133.1 16.3 L 144.9 19.4 L 147.7 21.6 L 144.71538457870483 23.09230766296387 L 143.5 47.4 L 143.4 73.1 L 143.55 76.0 L 161.0 76.0 L 171.0 66.0 L 183.0 76.0 L 183.0 80.0 L 143.75689659118652 80.0 L 144.6 96.3 L 147.0 116.7 L 150.11738243103028 132.46504812240602 L 151.4 130.2 L 155.4 121.7 L 158.6 112.7 L 161.1 103.5 L 162.71228876113892 94.90112648010253 L 162.7 94.9 L 163.2 92.0 L 174.7 96.0 L 177.3 98.4 L 173.75538463592528 99.77846155166625 L 172.1 106.4 L 168.7 116.3 L 164.5 125.8 L 159.5 134.8 L 153.6 143.4 L 153.42316980361937 143.61433963775636 L 155.1 148.9 L 160.5 160.2 L 166.4 168.0 L 172.6 172.4 L 173.54624862670897 172.63292274475097 L 179.0 149.0 L 181.0 149.0 L 179.07735195159913 173.9944251060486 L 179.1 174.0 L 183.3 175.9 L 184.9 180.1 L 183.0 184.3 L 178.8 185.9 L 167.6 183.3 Z M 43.3 140.0 L 46.7 143.8 L 51.9 149.0 L 57.5 153.7 L 63.4 157.8 L 65.89604921340943 159.26593360900878 L 68.2 157.6 L 74.0 152.6 L 79.0 147.1 L 83.2 141.3 L 83.93387098312378 140.0 Z M 46.0 78.0 L 89.6 78.0 L 92.0 76.0 L 103.0 85.0 L 98.0 89.0 L 98.0 127.0 L 86.0 133.0 L 86.0 122.0 L 46.0 122.0 L 34.0 128.0 L 34.0 72.0 Z M 46.0 101.0 L 46.0 118.0 L 86.0 118.0 L 86.0 101.0 Z M 46.0 82.0 L 46.0 97.0 L 86.0 97.0 L 86.0 82.0 Z M 42.3 56.8 L 41.9 55.2 L 41.2 53.5 L 40.3 51.6 L 39.1 49.6 L 37.6 47.6 L 35.9 45.4 L 33.9 43.1 L 31.3 41.2 L 32.1 40.0 L 19.0 40.0 L 19.0 36.0 L 96.81818180084228 36.0 L 105.0 27.0 L 115.0 36.0 L 115.0 40.0 L 92.728125 40.0 L 99.9 44.5 L 101.7 47.7 L 97.2600778579712 48.00101165771484 L 96.4 49.1 L 94.5 51.3 L 92.4 53.5 L 90.1 55.7 L 87.7 57.9 L 85.1 60.1 L 82.4 62.2 L 79.8285714149475 64.0 L 107.77777776718139 64.0 L 114.0 57.0 L 122.0 64.0 L 122.0 68.0 L 14.0 68.0 L 14.0 64.0 L 76.32142858505249 64.0 L 77.5 62.5 L 79.3 59.4 L 81.0 56.5 L 82.6 53.8 L 84.1 51.1 L 85.4 48.5 L 86.6 46.0 L 87.6 43.7 L 88.4 41.4 L 88.80101013183594 40.139682579040525 L 88.7 40.1 L 88.75 40.0 L 32.880000019073485 40.0 L 35.2 41.2 L 38.1 42.3 L 40.8 43.6 L 43.4 45.1 L 45.7 46.6 L 47.8 48.3 L 49.7 50.1 L 51.4 52.1 L 52.8 54.2 L 54.0 56.6 L 53.3 61.1 L 49.7 63.9 L 45.2 63.1 L 42.4 59.5 L 42.4 58.2 Z M 169.2 51.7 L 167.4 49.1 L 165.3 46.6 L 163.0 44.0 L 160.5 41.4 L 157.8 38.9 L 154.9 36.3 L 151.9 33.6 L 148.4 31.2 L 149.2 29.6 L 153.3 31.0 L 157.3 32.4 L 161.0 34.1 L 164.6 35.9 L 168.0 37.9 L 171.2 40.0 L 174.2 42.3 L 177.1 44.8 L 179.7 47.3 L 182.2 50.1 L 183.1 54.6 L 180.6 58.4 L 176.2 59.3 L 172.3 56.9 L 170.9 54.3 Z M 95.0 23.0 L 95.0 27.0 L 34.0 27.0 L 34.0 23.0 L 73.0 23.0 L 83.0 13.0 Z " />
</g>
</svg>
