<svg xmlns="http://www.w3.org/2000/svg" xmlns:xlink="http://www.w3.org/1999/xlink" version="1.1" baseProfile="full" viewBox="0 0 200 200" width="200" height="200">
<g fill="black">
<path d="M 39.0 27.0 L 39.0 27.46560001373291 L 45.4 26.8 L 58.1 25.6 L 71.1 24.4 L 84.2 23.1 L 97.6 21.7 L 111.3 20.3 L 125.2 18.7 L 139.3 17.0 L 153.6 15.1 L 167.2076150894165 13.235943126678468 L 167.2 13.2 L 167.23832330703735 13.23173656463623 L 168.2 13.1 L 168.33062601089478 14.13629970550537 L 180.0 23.8 L 180.4 26.8 L 175.79759998321532 24.289599990844728 L 169.7 25.0 L 154.9 26.4 L 140.4 27.6 L 126.1 28.7 L 112.1 29.5 L 98.3 30.2 L 84.7 30.7 L 71.4 30.9 L 58.3 30.9 L 45.5 30.6 L 39.0 30.18400001525879 L 39.0 46.0 L 160.0 46.0 L 166.0 41.0 L 177.0 50.0 L 172.0 54.0 L 172.0 77.0 L 160.0 83.0 L 160.0 77.0 L 39.0 77.0 L 39.0 108.0 L 38.4 119.8 L 37.5 130.7 L 36.0 140.9 L 34.2 150.3 L 31.8 158.8 L 29.0 166.5 L 25.6 173.3 L 21.8 179.1 L 17.4 183.9 L 12.6 187.6 L 11.3 186.3 L 14.5 181.5 L 17.2 176.3 L 19.7 170.5 L 21.8 163.9 L 23.6 156.6 L 25.0 148.5 L 26.1 139.6 L 26.8 129.9 L 27.1 119.3 L 27.0 108.0 L 27.0 21.0 Z M 67.1 100.5 L 67.1 100.60181818008422 L 72.0 99.8 L 82.7 98.3 L 93.0 96.8 L 103.0 95.3 L 112.8 93.9 L 122.1 92.4 L 131.2 90.8 L 139.9 89.2 L 148.3 87.6 L 155.40249919891357 86.10935201644898 L 155.4 86.1 L 155.40953035354613 86.10787630081177 L 156.4 85.9 L 156.6141731262207 87.10344886779785 L 167.5 96.1 L 167.9 99.1 L 163.45742835998536 96.81867942810058 L 158.5 97.7 L 150.1 98.8 L 144.18951625823973 99.55599212646484 L 145.1 107.1 L 146.9 117.9 L 149.1 128.0 L 151.8 137.2 L 155.0 145.6 L 158.6 153.2 L 162.8 160.0 L 167.5 166.0 L 172.6 171.4 L 178.2 176.0 L 180.9 178.1 L 170.0 186.3 L 163.7 180.1 L 158.2 173.3 L 153.4 165.8 L 149.4 157.6 L 146.2 148.8 L 143.7 139.3 L 142.0 129.3 L 141.1 118.6 L 141.0 107.4 L 141.56788358688354 99.89131717681884 L 141.5 99.9 L 132.5 100.8 L 123.3 101.6 L 113.7 102.3 L 103.8 102.9 L 93.6 103.3 L 83.1 103.6 L 72.3 103.6 L 67.1 103.50714282989502 L 67.1 134.4 L 66.5 141.7 L 65.3 148.6 L 63.5 155.1 L 61.0 161.2 L 58.0 166.7 L 54.4 171.8 L 50.2 176.3 L 45.4 180.2 L 40.1 183.4 L 34.3 185.9 L 33.4 184.3 L 37.9 180.3 L 41.9 176.2 L 45.3 171.9 L 48.2 167.4 L 50.5 162.7 L 52.4 157.7 L 53.8 152.4 L 54.7 146.8 L 55.1 140.8 L 55.1 94.5 Z M 135.5 171.9 L 134.0 169.3 L 132.4179310798645 166.92689657211304 L 127.3 168.3 L 119.5 170.2 L 112.0 171.9 L 104.7 173.4 L 97.8 174.8 L 91.1 176.0 L 84.8 177.2 L 78.8 178.3 L 73.1 179.2 L 71.74810209274293 179.42121963500978 L 69.9 182.9 L 67.6 180.1 L 64.4 168.4 L 66.4 168.2 L 71.8 167.9 L 77.5 167.6 L 83.6 167.2 L 89.1462387084961 166.853360080719 L 89.4 165.4 L 90.7 159.1 L 92.1 152.8 L 93.5 146.4 L 94.9 139.9 L 96.2 133.3 L 97.6 126.7 L 98.8 120.0 L 101.0255639076233 107.20300750732422 L 101.0 107.2 L 101.1384614944458 106.55384616851806 L 101.2 106.2 L 101.21368417739868 106.2028070449829 L 101.6 104.4 L 112.9 108.6 L 115.5 111.2 L 111.97263965606689 112.41854267120361 L 111.2 115.6 L 109.3 122.4 L 107.3 129.1 L 105.2 135.7 L 103.1 142.2 L 100.8 148.5 L 98.4 154.7 L 95.8 160.8 L 93.01195945739747 166.57522687911987 L 96.7 166.3 L 103.7 165.9 L 111.1 165.4 L 118.7 164.9 L 126.8 164.5 L 130.61355934143066 164.40920095443727 L 130.1 163.7 L 127.8 160.8 L 125.2 157.8 L 122.3 154.7 L 119.3 151.4 L 115.8 148.2 L 116.9 146.7 L 121.1 149.0 L 125.2 151.1 L 128.9 153.4 L 132.4 155.7 L 135.7 158.1 L 138.7 160.6 L 141.5 163.1 L 144.0 165.7 L 146.2 168.3 L 148.3 171.1 L 148.7 175.6 L 145.8 179.2 L 141.3 179.6 L 137.7 176.8 L 136.7 174.4 Z M 39.0 50.0 L 39.0 73.0 L 160.0 73.0 L 160.0 50.0 Z " />
</g>
</svg>
