<svg xmlns="http://www.w3.org/2000/svg" xmlns:xlink="http://www.w3.org/1999/xlink" version="1.1" baseProfile="full" viewBox="0 0 200 200" width="200" height="200">
<g fill="black">
<path d="M 106.0 103.2 L 109.0 105.2 L 106.0 107.0 L 106.0 111.7 L 142.0 111.7 L 148.0 106.7 L 159.0 115.7 L 154.0 119.7 L 154.0 125.4 L 166.7777777671814 125.4 L 173.0 118.4 L 181.0 125.4 L 181.0 129.4 L 154.0 129.4 L 154.0 143.1 L 142.0 149.1 L 142.0 143.1 L 106.0 143.1 L 106.0 154.2 L 147.7777777671814 154.2 L 154.0 147.2 L 162.0 154.2 L 162.0 158.2 L 106.0 158.2 L 106.0 168.6 L 161.8181818008423 168.6 L 170.0 159.6 L 180.0 168.6 L 180.0 172.6 L 106.0 172.6 L 106.0 184.9 L 94.0 190.9 L 94.0 172.6 L 20.0 172.6 L 20.0 168.6 L 94.0 168.6 L 94.0 158.2 L 28.0 158.2 L 28.0 154.2 L 94.0 154.2 L 94.0 143.1 L 41.0 143.1 L 41.0 139.1 L 94.0 139.1 L 94.0 129.4 L 19.0 129.4 L 19.0 125.4 L 94.0 125.4 L 94.0 115.7 L 41.0 115.7 L 41.0 111.7 L 94.0 111.7 L 94.0 101.2 Z M 106.0 129.4 L 106.0 139.1 L 142.0 139.1 L 142.0 129.4 Z M 106.0 115.7 L 106.0 125.4 L 142.0 125.4 L 142.0 115.7 Z M 156.2 91.3 L 146.3 84.9 L 140.06885547637938 80.06911268234253 L 135.8 83.1 L 124.7 89.1 L 112.5 94.2 L 99.2 98.1 L 84.9 100.9 L 84.5 99.2 L 98.1 94.5 L 110.4 89.2 L 121.6 83.3 L 131.5 76.8 L 133.96094207763673 74.73507156372071 L 129.5 70.5 L 122.5 62.5 L 116.6 53.9 L 111.8 44.9 L 108.2 35.3 L 105.9920000076294 26.1 L 92.2 26.1 L 92.2 22.1 L 166.5 22.1 L 172.5 17.1 L 183.5 26.1 L 178.5 29.1 L 176.9890687942505 29.729554653167725 L 174.3 37.6 L 168.9 48.6 L 162.4 58.7 L 154.7 67.8 L 148.7596697807312 73.27311325073242 L 152.4 75.7 L 161.9 80.9 L 172.2 85.7 L 183.4 90.0 L 190.2 92.6 L 178.7 102.3 L 167.0 97.1 Z M 31.759090900421143 27.279545497894286 L 32.1 27.2 L 37.8 25.8 L 43.4 24.4 L 48.9 23.0 L 54.2 21.5 L 59.4 19.9 L 64.5 18.3 L 69.4 16.5 L 74.1 14.6 L 77.80435781478882 12.908880138397217 L 77.8 12.9 L 77.80817832946778 12.907135963439941 L 78.7 12.5 L 79.40852422714234 14.303516292572022 L 88.0 21.8 L 88.2 24.9 L 84.28674793243408 23.239832401275635 L 83.1 23.7 L 77.9 25.3 L 72.6 26.7 L 67.1 27.9 L 61.6 29.0 L 56.0 29.8 L 50.2 30.5 L 44.4 30.9 L 38.4 31.1 L 32.4 30.9 L 32.2 30.88360652923584 L 32.2 38.3 L 78.0 38.3 L 84.0 33.3 L 95.0 42.3 L 90.0 46.3 L 90.0 64.9 L 78.0 70.9 L 78.0 62.9 L 32.024561405181885 62.9 L 31.7 66.6 L 30.7 72.0 L 29.4 77.1 L 27.6 81.8 L 25.5 86.1 L 22.9 90.0 L 19.9 93.5 L 16.5 96.4 L 12.8 98.8 L 8.8 100.8 L 7.9 99.3 L 10.7 96.3 L 13.0 93.0 L 15.0 89.7 L 16.7 86.3 L 18.0 82.7 L 19.1 78.9 L 19.8 74.8 L 20.2 70.4 L 20.4 65.8 L 20.2 60.9 L 20.2 21.5 Z M 111.7 72.7 L 111.2 71.5 L 110.3 70.2 L 109.1 68.7 L 107.6 67.2 L 105.8 65.7 L 103.7 64.0 L 101.3 62.3 L 98.6 61.1 L 99.1 59.4 L 102.1 60.2 L 105.1 60.6 L 107.9 61.1 L 110.5 61.8 L 113.0 62.6 L 115.2 63.5 L 117.3 64.6 L 119.3 65.9 L 121.1 67.4 L 122.7 69.2 L 123.0 73.8 L 120.0 77.3 L 115.5 77.6 L 112.0 74.6 L 112.0 73.8 Z M 108.15730333328247 26.1 L 112.0 33.7 L 117.0 42.0 L 122.6 49.8 L 128.9 57.0 L 135.9 63.7 L 141.49858379364014 68.15015630722046 L 147.8 61.6 L 154.2 53.0 L 159.4 43.6 L 163.6 33.5 L 165.7045871734619 26.1 Z M 32.2 42.3 L 32.2 58.9 L 78.0 58.9 L 78.0 42.3 Z M 134.4 46.4 L 133.9 45.2 L 132.9 43.9 L 131.6 42.5 L 130.0 41.0 L 128.1 39.5 L 125.8 37.9 L 123.3 36.2 L 120.3 35.1 L 120.8 33.3 L 124.0 34.1 L 127.2 34.4 L 130.1 34.8 L 132.8 35.4 L 135.3 36.2 L 137.6 37.1 L 139.8 38.1 L 141.9 39.4 L 143.7 40.9 L 145.4 42.7 L 145.6 47.3 L 142.7 50.8 L 138.2 51.1 L 134.7 48.2 L 134.7 47.4 Z " />
</g>
</svg>
