<svg xmlns="http://www.w3.org/2000/svg" xmlns:xlink="http://www.w3.org/1999/xlink" version="1.1" baseProfile="full" viewBox="0 0 200 200" width="200" height="200">
<g fill="black">
<path d="M 135.8 175.7 L 149.0 175.7 L 149.9 175.5 L 150.5 175.3 L 150.8 175.1 L 151.0 175.0 L 151.2 174.8 L 151.5 173.9 L 151.7 173.0 L 151.8 171.7 L 151.8 107.2 L 115.0 107.2 L 115.0 178.7 L 103.0 184.7 L 103.0 107.2 L 66.2 107.2 L 66.2 171.1151515007019 L 69.4 168.4 L 72.5 165.4 L 75.3 162.5 L 78.0 159.5 L 80.4 156.6 L 81.05094337463379 155.75094337463378 L 79.2 153.9 L 76.7 151.8 L 74.1 149.5 L 71.1 147.6 L 71.8 146.0 L 75.3 147.2 L 78.8 148.1 L 82.1 149.3 L 84.71218271255493 150.47969541549682 L 86.5 147.5 L 88.2 144.3 L 89.18934659957885 142.03863639831542 L 89.1 142.0 L 90.1 140.1 L 100.2 146.8 L 101.8 150.0 L 97.76521739959716 150.20869569778444 L 97.7 150.3 L 95.1 153.6 L 93.23048782348633 155.60304880142212 L 93.5 155.8 L 96.0 157.8 L 98.3 160.0 L 100.4 162.3 L 101.1 166.8 L 98.6 170.6 L 94.1 171.3 L 90.3 168.8 L 89.3 166.7 L 88.2 164.6 L 86.8 162.5 L 86.44366197586059 162.01003522872924 L 86.1 162.3 L 82.6 164.8 L 79.0 167.1 L 75.2 169.2 L 67.0 172.8 L 66.2 171.37777776718139 L 66.2 180.7 L 54.2 186.7 L 54.2 107.97755098342896 L 50.1 109.4 L 45.0 110.8 L 39.7 111.9 L 39.0 110.3 L 43.5 107.4 L 47.9 104.6 L 52.1 101.8 L 54.2 100.45 L 54.2 97.2 L 57.02340421676636 98.6117021560669 L 60.3 96.4 L 64.1 93.6 L 67.8 90.8 L 71.3 87.9 L 74.7 85.0 L 77.11999998092651 82.8 L 40.2 82.8 L 40.2 78.8 L 159.61818180084228 78.8 L 167.8 69.8 L 177.8 78.8 L 177.8 82.8 L 115.0 82.8 L 115.0 103.2 L 151.8 103.2 L 156.66435327529908 99.1463722229004 L 154.4 97.8 L 150.3 95.7 L 145.8 93.5 L 141.1 91.2 L 136.0 88.9 L 130.5 86.5 L 130.9 84.8 L 136.9 85.5 L 142.6 86.4 L 147.9 87.5 L 153.0 88.8 L 157.7 90.2 L 162.1 91.8 L 166.2 93.5 L 170.0 95.3 L 173.6 97.2 L 176.9 99.3 L 178.9 103.4 L 177.7 107.7 L 173.6 109.8 L 169.2 108.5 L 168.27668390274047 107.61865282058716 L 163.8 111.2 L 163.8 171.7 L 163.6 174.3 L 163.2 176.8 L 162.4 179.2 L 161.1 181.5 L 159.5 183.5 L 157.5 185.1 L 155.2 186.3 L 152.8 187.2 L 150.3 187.6 L 147.8 187.7 L 147.8 181.7 L 135.8 178.7 Z M 39.0 25.3 L 39.0 25.814400005340577 L 45.4 25.2 L 58.1 24.1 L 71.1 23.0 L 84.3 22.0 L 97.7 20.9 L 111.4 19.8 L 125.3 18.6 L 139.5 17.3 L 153.9 16.0 L 168.5 14.6 L 168.57521381378174 15.602851295471192 L 180.6 25.7 L 181.1 28.7 L 176.32973928451537 26.04314594268799 L 169.4 26.6 L 154.7 27.4 L 140.2 28.0 L 125.9 28.6 L 111.9 29.1 L 98.2 29.4 L 84.6 29.6 L 71.4 29.6 L 58.3 29.4 L 45.5 29.0 L 39.0 28.584000015258788 L 39.0 36.1 L 160.0 36.1 L 166.0 31.1 L 177.0 40.1 L 172.0 44.1 L 172.0 62.5 L 160.0 68.5 L 160.0 60.5 L 39.0 60.5 L 39.0 76.1 L 38.4 90.3 L 37.5 103.9 L 36.1 116.9 L 34.4 129.1 L 32.1 140.7 L 29.4 151.6 L 26.3 161.7 L 22.7 171.2 L 18.5 179.8 L 13.8 187.6 L 12.1 186.8 L 15.0 178.4 L 17.6 169.4 L 20.0 159.9 L 22.1 149.9 L 23.8 139.2 L 25.1 127.9 L 26.2 115.9 L 26.8 103.3 L 27.1 90.0 L 27.0 76.1 L 27.0 19.3 Z M 136.0 164.4 L 134.6 162.5 L 134.40685443878175 162.27276992797852 L 131.3 164.7 L 127.9 167.0 L 124.3 169.2 L 120.5 171.0 L 116.6 172.8 L 115.7 171.2 L 118.7 168.5 L 121.4 165.5 L 124.0 162.6 L 126.5 159.6 L 128.7 156.7 L 128.95098037719725 156.35775403976442 L 126.9 154.4 L 124.5 152.3 L 122.0 150.1 L 119.1 148.3 L 119.8 146.7 L 123.1 147.8 L 126.5 148.7 L 129.6 149.8 L 132.56373052597047 150.98549222946167 L 132.8 150.6 L 134.6 147.5 L 136.2 144.4 L 137.19986162185668 142.04318342208862 L 137.1 142.0 L 138.1 140.1 L 148.2 146.8 L 149.8 150.0 L 145.86618995666504 150.20347290039064 L 145.8 150.3 L 143.2 153.5 L 141.2784589767456 155.706213760376 L 143.3 157.0 L 145.6 158.8 L 147.7 160.6 L 149.0 165.0 L 146.8 169.1 L 142.4 170.3 L 138.4 168.2 L 137.3 166.3 Z M 136.1 134.1 L 134.6 132.2 L 133.9203290939331 131.44036788940429 L 130.9 133.8 L 127.5 136.1 L 124.0 138.1 L 116.6 141.3 L 115.7 139.7 L 118.6 137.1 L 121.2 134.4 L 123.7 131.6 L 126.1 128.7 L 128.10659341812135 126.05494508743286 L 126.3 124.7 L 123.7 122.8 L 120.8 120.9 L 117.6 119.3 L 118.2 117.6 L 121.7 118.4 L 125.3 119.0 L 128.7 119.8 L 131.7538070678711 120.75431470870971 L 132.4 119.7 L 134.3 116.4 L 136.0 113.1 L 137.17384147644043 110.53222169876099 L 137.1 110.5 L 138.1 108.6 L 148.1 115.3 L 149.8 118.5 L 145.79797201156617 118.70700149536133 L 145.6 119.0 L 143.0 122.4 L 140.78682632446288 124.92934131622314 L 143.2 126.6 L 145.6 128.4 L 147.9 130.5 L 149.0 134.9 L 146.8 138.9 L 142.4 140.1 L 138.4 137.8 L 137.3 135.9 Z M 88.1 134.1 L 86.6 132.2 L 85.89058933258056 131.40712928771973 L 82.6 133.9 L 79.1 136.1 L 75.4 138.1 L 67.8 141.3 L 66.9 139.7 L 70.0 137.1 L 75.4 131.5 L 77.8 128.7 L 80.0340425491333 126.00053195953369 L 78.3 124.7 L 75.7 122.8 L 72.8 120.9 L 69.6 119.3 L 70.2 117.6 L 73.7 118.4 L 77.3 119.0 L 80.7 119.8 L 83.67181205749512 120.72869129180908 L 84.4 119.6 L 86.3 116.4 L 88.0 113.1 L 89.17384147644043 110.53222169876099 L 89.1 110.5 L 90.1 108.6 L 100.1 115.3 L 101.8 118.5 L 97.79797201156616 118.70700149536133 L 97.6 119.0 L 94.9 122.4 L 92.72455091476441 124.88622751235962 L 95.2 126.6 L 97.6 128.4 L 99.9 130.5 L 101.0 134.9 L 98.8 138.9 L 94.4 140.1 L 90.4 137.8 L 89.3 135.9 Z M 78.81808509826661 82.8 L 85.6 91.3 L 86.0 94.9 L 82.27396059036255 93.54507656097412 L 77.6 96.7 L 69.0 101.5 L 65.86516857147217 103.03258428573608 L 66.2 103.2 L 103.0 103.2 L 103.0 82.8 Z M 39.0 40.1 L 39.0 56.5 L 160.0 56.5 L 160.0 40.1 Z " />
</g>
</svg>
