<svg xmlns="http://www.w3.org/2000/svg" xmlns:xlink="http://www.w3.org/1999/xlink" version="1.1" baseProfile="full" viewBox="0 0 200 200" width="200" height="200">
<g fill="black">
<path d="M 172.5 52.4 L 175.0 55.0 L 171.21772413253785 56.148190879821776 L 171.2 56.2 L 169.9 60.1 L 168.4 64.1 L 167.0 68.3 L 165.4 72.5 L 162.0 81.3 L 160.1 85.9 L 158.0 90.5 L 156.8297872543335 93.0 L 168.0 93.0 L 178.0 83.0 L 190.0 93.0 L 190.0 97.0 L 152.0 97.0 L 152.0 120.0 L 165.0 120.0 L 175.0 110.0 L 187.0 120.0 L 187.0 124.0 L 152.0 124.0 L 152.0 146.0 L 168.0 146.0 L 178.0 136.0 L 190.0 146.0 L 190.0 150.0 L 152.0 150.0 L 152.0 183.0 L 140.0 189.0 L 140.0 150.0 L 102.0 150.0 L 102.0 146.0 L 140.0 146.0 L 140.0 124.0 L 110.0 124.0 L 110.0 120.0 L 140.0 120.0 L 140.0 97.0 L 103.0 97.0 L 103.0 93.0 L 154.2634614944458 93.0 L 154.6 89.5 L 155.2 84.5 L 156.6 74.9 L 157.4 70.4 L 158.1 65.9 L 158.9 61.6 L 159.6 57.4 L 160.2 53.4 L 160.73440704345703 50.42258939743042 L 160.6 50.4 L 161.3 47.7 Z M 37.0 42.0 L 86.0 42.0 L 86.0 39.0 L 98.0 41.0 L 101.0 43.0 L 98.0 44.8 L 98.0 116.0 L 86.0 122.0 L 86.0 110.0 L 36.05963306427002 110.0 L 35.0 120.5 L 33.6 130.8 L 31.9 140.6 L 29.9 149.8 L 27.6 158.3 L 24.9 166.3 L 22.0 173.7 L 18.6 180.4 L 14.8 186.4 L 13.1 185.5 L 15.1 178.9 L 16.9 171.9 L 18.6 164.5 L 20.2 156.6 L 21.5 148.1 L 22.7 139.2 L 23.6 129.6 L 24.3 119.6 L 24.7 108.9 L 25.0 97.7 L 25.0 36.0 Z M 36.9 98.2 L 36.35263156890869 106.0 L 86.0 106.0 L 86.0 77.0 L 37.0 77.0 L 37.0 98.0 L 36.86757497787475 98.19863758087158 Z M 128.1 77.8 L 127.3 70.2 L 126.7 66.6 L 126.0 63.0 L 125.3 59.5 L 124.5 56.0 L 123.7 52.6 L 122.7 49.3 L 124.2 48.4 L 126.4 51.2 L 128.7 54.2 L 130.7 57.3 L 132.6 60.7 L 134.3 64.3 L 135.8 68.0 L 137.2 71.8 L 138.4 75.8 L 139.6 80.0 L 140.5 84.2 L 139.3 88.6 L 135.3 90.9 L 130.9 89.7 L 128.6 85.7 L 128.4 81.7 Z M 37.0 46.0 L 37.0 73.0 L 86.0 73.0 L 86.0 46.0 Z M 110.0 41.0 L 140.0 41.0 L 140.0 13.0 L 152.0 15.0 L 155.0 17.0 L 152.0 18.8 L 152.0 41.0 L 161.0 41.0 L 171.0 31.0 L 183.0 41.0 L 183.0 45.0 L 110.0 45.0 Z M 55.7 29.3 L 54.8 26.8 L 53.8 24.5 L 52.7 22.2 L 51.5 20.1 L 50.2 18.0 L 48.8 15.9 L 47.3 13.9 L 45.4 12.2 L 46.3 10.7 L 48.7 11.8 L 51.3 12.8 L 53.8 14.1 L 56.2 15.7 L 58.5 17.5 L 60.7 19.6 L 62.8 21.8 L 64.8 24.3 L 66.6 27.0 L 68.4 29.9 L 68.3 34.5 L 65.1 37.7 L 60.5 37.7 L 57.3 34.5 L 56.5 31.8 Z " />
</g>
</svg>
