<svg xmlns="http://www.w3.org/2000/svg" xmlns:xlink="http://www.w3.org/1999/xlink" version="1.1" baseProfile="full" viewBox="0 0 200 200" width="200" height="200">
<g fill="black">
<path d="M 133.7 163.5 L 134.8 166.9 L 130.84545450210572 166.3545454978943 L 130.7 166.5 L 127.5 169.4 L 124.1 172.2 L 120.6 174.8 L 116.8 177.4 L 112.9 179.8 L 108.7 182.0 L 104.4 184.1 L 99.8 186.0 L 95.0 187.7 L 94.2 186.2 L 98.1 183.1 L 101.7 179.9 L 105.3 176.9 L 108.6 173.9 L 111.7 170.9 L 114.7 167.9 L 117.4 165.0 L 119.9 162.0 L 122.3 159.0 L 123.87428379058838 156.75102319717408 L 123.8 156.7 L 124.8 155.4 Z M 170.6 179.3 L 168.6 176.6 L 166.5 173.9 L 164.2 171.2 L 161.7 168.6 L 159.0 166.0 L 156.1 163.4 L 153.0 160.7 L 149.6 158.2 L 150.4 156.6 L 154.5 158.0 L 158.5 159.5 L 162.3 161.2 L 165.9 163.1 L 169.3 165.2 L 172.5 167.4 L 175.6 169.8 L 178.5 172.4 L 181.2 175.2 L 183.8 178.1 L 184.6 182.6 L 182.1 186.4 L 177.6 187.3 L 173.8 184.8 L 172.3 182.0 Z M 34.5 35.2 L 39.3 33.5 L 44.1 31.6 L 49.1 29.6 L 54.1 27.4 L 59.2 24.9 L 64.3 22.3 L 69.6 19.3 L 75.0 16.2 L 79.60180673599243 13.302566146850586 L 79.6 13.3 L 79.60225677490234 13.30228271484375 L 80.4 12.8 L 82.33373222351074 16.065154457092284 L 88.3 22.1 L 88.4 25.5 L 84.74966278076172 23.989515590667725 L 80.4 26.2 L 74.4 28.9 L 68.5 31.4 L 62.7 33.5 L 57.0 35.3 L 51.4 36.8 L 45.9 37.9 L 40.5 38.7 L 35.9 38.960377311706544 L 35.9 58.3 L 76.8 58.3 L 82.8 53.3 L 93.8 62.3 L 88.8 66.3 L 88.8 112.2 L 76.8 118.2 L 76.8 106.2 L 35.83225803375244 106.2 L 35.5 116.5 L 34.7 128.0 L 33.5 138.6 L 31.8 148.3 L 29.8 157.1 L 27.3 165.0 L 24.3 171.9 L 20.8 177.9 L 16.9 182.7 L 12.4 186.4 L 11.2 185.1 L 13.8 180.5 L 16.1 175.3 L 18.2 169.5 L 20.0 162.8 L 21.5 155.2 L 22.7 146.8 L 23.5 137.5 L 24.0 127.3 L 24.1 116.2 L 23.9 104.2 L 23.9 29.9 Z M 116.8 151.0 L 104.8 157.0 L 104.8 86.0 L 116.8 92.0 L 134.0 92.0 L 134.0 76.0 L 93.0 76.0 L 93.0 72.0 L 168.71818180084227 72.0 L 176.9 63.0 L 186.9 72.0 L 186.9 76.0 L 146.0 76.0 L 146.0 92.0 L 163.1 92.0 L 169.1 87.0 L 180.1 96.0 L 175.1 100.0 L 175.1 148.0 L 163.1 154.0 L 163.1 148.0 L 116.8 148.0 Z M 116.8 122.0 L 116.8 144.0 L 134.0 144.0 L 134.0 122.0 Z M 146.0 122.0 L 146.0 144.0 L 163.1 144.0 L 163.1 122.0 Z M 116.8 96.0 L 116.8 118.0 L 134.0 118.0 L 134.0 96.0 Z M 146.0 96.0 L 146.0 118.0 L 163.1 118.0 L 163.1 96.0 Z M 35.9 62.3 L 35.9 102.2 L 76.8 102.2 L 76.8 62.3 Z M 160.5 14.0 L 163.5 16.0 L 160.5 17.8 L 160.5 33.0 L 162.8181818008423 33.0 L 171.0 24.0 L 181.0 33.0 L 181.0 37.0 L 160.5 37.0 L 160.5 60.0 L 148.5 66.0 L 148.5 60.0 L 131.4 60.0 L 119.4 66.0 L 119.4 37.0 L 98.9 37.0 L 98.9 33.0 L 119.4 33.0 L 119.4 12.0 L 131.4 14.0 L 134.4 16.0 L 131.4 17.8 L 131.4 33.0 L 148.5 33.0 L 148.5 12.0 Z M 131.4 37.0 L 131.4 56.0 L 148.5 56.0 L 148.5 37.0 Z " />
</g>
</svg>
