<svg xmlns="http://www.w3.org/2000/svg" xmlns:xlink="http://www.w3.org/1999/xlink" version="1.1" baseProfile="full" viewBox="0 0 200 200" width="200" height="200">
<g fill="black">
<path d="M 128.6 182.0 L 116.6 188.0 L 116.6 116.6972222328186 L 116.5 116.8 L 112.7 120.3 L 108.7 123.4 L 104.4 126.2 L 103.2 124.9 L 106.0 120.8 L 108.7 116.7 L 111.4 112.7 L 114.0 108.5 L 116.4 104.4 L 116.6 104.04166669845581 L 116.6 100.0 L 118.36363639831544 100.88181819915772 L 118.8 100.1 L 121.0 95.7 L 123.0 91.2 L 124.9 86.6 L 126.35560932159424 82.71837520599365 L 126.3 82.7 L 126.65714282989502 81.91428575515747 L 126.7 81.8 L 126.70762367248535 81.80322799682617 L 127.3 80.5 L 137.8 86.5 L 139.7 89.5 L 135.92719535827638 90.02951641082764 L 135.2 91.4 L 132.5 96.1 L 129.7 100.7 L 126.6 105.0 L 128.6 106.0 L 145.7035714149475 106.0 L 146.4 104.7 L 147.5 101.8 L 148.7 99.0 L 149.8 96.3 L 150.8 93.8 L 151.8 91.4 L 152.7 89.1 L 153.6 86.9 L 154.3 84.8 L 154.6580948829651 83.7768717765808 L 154.5 83.7 L 154.90297031402588 83.07722768783569 L 155.0 82.8 L 155.0594285964966 82.83542852401733 L 155.6 82.0 L 165.4 89.0 L 166.9 92.2 L 162.3197937965393 92.27896909713745 L 162.3 92.3 L 160.6 94.1 L 158.9 96.0 L 157.0 97.9 L 155.1 99.9 L 153.0 101.9 L 150.8 104.0 L 148.51428575515746 106.0 L 157.4 106.0 L 167.4 96.0 L 179.4 106.0 L 179.4 110.0 L 155.2 110.0 L 155.2 127.8 L 159.8181818008423 127.8 L 168.0 118.8 L 178.0 127.8 L 178.0 131.8 L 155.2 131.8 L 155.2 150.2 L 159.8181818008423 150.2 L 168.0 141.2 L 178.0 150.2 L 178.0 154.2 L 155.2 154.2 L 155.2 175.0 L 160.3 175.0 L 170.3 165.0 L 182.3 175.0 L 182.3 179.0 L 128.6 179.0 Z M 39.0 27.0 L 39.0 27.46560001373291 L 45.4 26.8 L 58.1 25.6 L 71.1 24.4 L 84.2 23.1 L 97.6 21.7 L 111.3 20.3 L 125.2 18.7 L 139.3 17.0 L 153.6 15.1 L 167.2076150894165 13.235943126678468 L 167.2 13.2 L 167.23832330703735 13.23173656463623 L 168.2 13.1 L 168.33062601089478 14.13629970550537 L 180.0 23.8 L 180.4 26.8 L 175.79759998321532 24.289599990844728 L 169.7 25.0 L 154.9 26.4 L 140.4 27.6 L 126.1 28.7 L 112.1 29.5 L 98.3 30.2 L 84.7 30.7 L 71.4 30.9 L 58.3 30.9 L 45.5 30.6 L 39.0 30.18400001525879 L 39.0 46.0 L 160.0 46.0 L 166.0 41.0 L 177.0 50.0 L 172.0 54.0 L 172.0 77.0 L 160.0 83.0 L 160.0 77.0 L 39.0 77.0 L 39.0 108.0 L 38.4 119.8 L 37.5 130.7 L 36.0 140.9 L 34.2 150.3 L 31.8 158.8 L 29.0 166.5 L 25.6 173.3 L 21.8 179.1 L 17.4 183.9 L 12.6 187.6 L 11.3 186.3 L 14.5 181.5 L 17.2 176.3 L 19.7 170.5 L 21.8 163.9 L 23.6 156.6 L 25.0 148.5 L 26.1 139.6 L 26.8 129.9 L 27.1 119.3 L 27.0 108.0 L 27.0 21.0 Z M 103.7 158.6 L 105.7 158.6 L 103.7 175.6 L 106.7 177.6 L 108.7 180.6 L 106.7 183.6 L 103.7 185.6 L 54.2 185.6 L 51.8 185.2 L 49.5 184.6 L 47.3 183.5 L 45.3 182.0 L 43.6 180.1 L 42.4 177.9 L 41.5 175.6 L 40.9 173.1 L 40.7 170.6 L 40.7 136.5 L 45.4 138.85 L 45.4 110.5 L 57.4 116.5 L 85.2 116.5 L 89.7949580192566 112.67086830139161 L 89.0 111.9 L 89.1 111.0 L 89.0 109.9 L 88.7 108.7 L 88.1 107.5 L 87.3 106.1 L 86.3 104.6 L 85.0 103.1 L 83.4 101.5 L 81.7 99.9 L 79.5 98.7 L 79.7708812713623 98.08084287643433 L 79.4 98.3 L 78.4 96.8 L 80.4 95.2 L 81.9 93.2 L 83.4 91.4 L 84.7 89.6 L 85.9 87.9 L 86.9 86.3 L 87.8 84.7 L 88.6 83.3 L 89.2 81.9 L 89.29658660888671 81.58609352111816 L 89.0 81.4 L 89.58160915374756 80.65977010726928 L 89.6 80.6 L 89.61797752380372 80.61348314285279 L 90.1 80.0 L 99.2 87.8 L 100.4 91.2 L 95.27405405044556 90.66972970962524 L 94.3 91.3 L 92.5 92.3 L 90.6 93.4 L 88.5 94.3 L 86.4 95.3 L 84.1 96.2 L 81.6 97.0 L 80.98688526153565 97.36229505538941 L 82.6 97.9 L 85.1 98.3 L 87.4 98.9 L 89.7 99.6 L 91.8 100.5 L 93.7 101.5 L 95.6 102.7 L 97.3 104.0 L 98.8 105.6 L 100.2 107.4 L 100.1 112.0 L 96.8 115.2 L 95.69213199615479 115.17538070678711 L 102.2 120.5 L 97.2 124.5 L 97.2 136.5 L 85.2 142.5 L 85.2 136.5 L 57.4 136.5 L 49.05 140.675 L 52.7 142.5 L 90.8 142.5 L 96.3 137.5 L 106.8 146.5 L 101.8 150.0 L 101.8 162.5 L 90.8 168.0 L 90.8 162.5 L 52.7 162.5 L 52.7 172.8 L 52.8 173.4 L 53.0 173.9 L 53.1 174.2 L 53.3 174.5 L 53.7 174.8 L 54.4 175.1 L 55.4 175.4 L 56.7 175.6 L 98.7 175.6 Z M 128.6 154.2 L 128.6 175.0 L 143.2 175.0 L 143.2 154.2 Z M 52.7 146.5 L 52.7 158.5 L 66.9 158.5 L 66.9 146.5 Z M 77.9 146.5 L 77.9 158.5 L 90.8 158.5 L 90.8 146.5 Z M 128.6 131.8 L 128.6 150.2 L 143.2 150.2 L 143.2 131.8 Z M 57.4 120.5 L 57.4 132.5 L 85.2 132.5 L 85.2 120.5 Z M 128.6 110.0 L 128.6 127.8 L 143.2 127.8 L 143.2 110.0 Z M 55.0 110.1 L 54.5 108.9 L 53.9 107.5 L 53.1 106.1 L 52.0 104.6 L 50.8 103.1 L 49.4 101.5 L 47.8 99.9 L 45.8 98.8 L 46.081124496459964 98.11726903915405 L 45.8 98.3 L 44.7 96.8 L 46.5 95.3 L 47.9 93.3 L 49.1 91.4 L 50.3 89.7 L 51.4 88.0 L 52.3 86.4 L 53.1 84.8 L 53.9 83.3 L 54.5 81.9 L 54.59658660888672 81.58609352111816 L 54.3 81.4 L 54.88160915374756 80.65977010726928 L 54.9 80.6 L 54.917977523803714 80.61348314285279 L 55.4 80.0 L 64.5 87.8 L 65.7 91.2 L 60.61324319839478 90.67378377914429 L 59.8 91.2 L 58.0 92.2 L 56.2 93.3 L 54.3 94.3 L 52.3 95.2 L 50.1 96.1 L 47.8 97.0 L 47.21544885635376 97.37995824813842 L 48.8 98.0 L 51.1 98.4 L 53.4 99.0 L 55.5 99.7 L 57.6 100.5 L 59.5 101.5 L 61.3 102.7 L 63.0 104.0 L 64.6 105.4 L 66.1 107.1 L 66.4 111.6 L 63.4 115.1 L 58.9 115.4 L 55.4 112.5 L 55.3 111.4 Z M 72.3 110.1 L 71.9 108.9 L 71.2 107.5 L 70.3 106.1 L 69.2 104.7 L 67.9 103.1 L 66.3 101.5 L 64.5 99.9 L 62.3 98.7 L 62.5708812713623 98.08084287643433 L 62.2 98.3 L 61.2 96.8 L 63.1 95.2 L 64.6 93.2 L 66.0 91.4 L 67.3 89.6 L 68.5 87.9 L 69.6 86.3 L 70.5 84.7 L 71.3 83.2 L 72.0 81.8 L 72.15360231399536 81.36991357803345 L 71.9 81.2 L 72.44382019042969 80.55730333328248 L 72.5 80.4 L 72.54592084884644 80.43663902282715 L 73.0 79.9 L 81.9 87.9 L 83.0 91.4 L 77.92687339782715 90.70025835037231 L 77.0 91.3 L 73.2 93.3 L 71.2 94.3 L 69.1 95.3 L 66.8 96.2 L 64.4 97.0 L 63.786885261535645 97.36229505538941 L 65.4 97.9 L 67.9 98.3 L 70.3 98.9 L 72.6 99.6 L 74.7 100.5 L 76.7 101.5 L 78.6 102.6 L 80.3 103.9 L 82.0 105.5 L 83.4 107.2 L 83.6 111.7 L 80.5 115.2 L 76.0 115.3 L 72.5 112.3 L 72.5 111.3 Z M 39.0 50.0 L 39.0 73.0 L 160.0 73.0 L 160.0 50.0 Z " />
</g>
</svg>
