<svg xmlns="http://www.w3.org/2000/svg" xmlns:xlink="http://www.w3.org/1999/xlink" version="1.1" baseProfile="full" viewBox="0 0 200 200" width="200" height="200">
<g fill="black">
<path d="M 112.9 189.0 L 112.9 117.51111106872558 L 109.7 120.8 L 105.8 124.2 L 102.23693580627442 126.89402418136596 L 102.4 127.1 L 104.1 129.5 L 105.7 132.1 L 107.0 134.8 L 108.1 137.6 L 107.2 142.1 L 103.5 144.7 L 99.0 143.8 L 96.4 140.0 L 96.3 137.8 L 96.0 135.6 L 95.5 133.3 L 94.9 131.0 L 94.83536472320557 130.7876269340515 L 94.4 131.0 L 90.2 132.8 L 85.8 134.5 L 84.0 135.15454549789428 L 84.0 186.2 L 72.0 192.2 L 72.0 139.0043478012085 L 67.8 140.1 L 63.2 141.4 L 58.5 142.5 L 57.810647296905515 142.65797662734985 L 56.1 146.3 L 53.7 143.6 L 49.9 132.1 L 51.8 131.8 L 56.6 131.3 L 61.3 130.9 L 66.0 130.4 L 66.06941270828247 130.39245510101318 L 66.9 129.0 L 70.2 123.6 L 73.6 118.4 L 76.8 113.4 L 80.0 108.5 L 83.1 103.8 L 86.0 99.1 L 88.8 94.6 L 91.5 90.2 L 93.54183959960938 86.82311143875123 L 93.5 86.8 L 93.96315793991089 86.12631578445435 L 94.1 85.9 L 94.11279621124268 85.90866003036498 L 94.6 85.2 L 104.0 92.6 L 105.4 96.0 L 101.57871303558349 95.80234718322754 L 100.9 96.7 L 97.6 100.8 L 94.1 105.0 L 90.5 109.3 L 86.8 113.6 L 82.9 118.0 L 78.7 122.5 L 74.4 127.0 L 71.46666669845581 129.80579710006714 L 75.2 129.4 L 79.8 128.8 L 84.4 128.3 L 88.9 127.9 L 93.5 127.5 L 93.69459457397461 127.4870270729065 L 93.2 126.3 L 92.1 123.9 L 90.7 121.4 L 89.3 118.8 L 87.3 116.4 L 88.5 115.1 L 91.0 117.0 L 93.7 118.7 L 96.1 120.5 L 98.4 122.6 L 100.5 124.7 L 100.88896598815919 125.1913254737854 L 103.0 121.7 L 105.5 117.5 L 110.5 108.9 L 112.8 104.5 L 112.9 104.29545450210571 L 112.9 100.1 L 114.54821424484253 100.92410717010497 L 115.0 100.0 L 119.0 90.6 L 120.8 85.7 L 122.16089239120484 81.6173228263855 L 122.1 81.6 L 123.0 79.2 L 133.7 84.9 L 135.8 87.8 L 132.0253333091736 88.528444480896 L 131.3 90.1 L 128.7 95.1 L 126.0 99.9 L 123.1 104.5 L 122.73529415130615 105.01764707565307 L 124.9 106.1 L 140.75 106.1 L 141.5 104.6 L 142.5 101.6 L 143.5 98.7 L 144.5 95.9 L 145.5 93.3 L 146.4 90.7 L 147.3 88.3 L 148.1 86.0 L 148.8 83.9 L 149.1161512374878 82.79347076416016 L 148.9 82.7 L 149.37948713302612 81.87179489135742 L 149.4 81.8 L 149.41605453491212 81.80863313674926 L 150.0 80.8 L 160.0 87.5 L 161.7 90.6 L 157.22618598937987 90.83140420913696 L 155.4 93.0 L 153.7 95.0 L 151.9 97.1 L 150.0 99.2 L 148.0 101.4 L 145.9 103.7 L 143.6 106.0 L 143.52307691574097 106.1 L 151.0 106.1 L 161.0 96.1 L 173.0 106.1 L 173.0 110.1 L 150.2 110.1 L 150.2 129.1 L 153.4181818008423 129.1 L 161.6 120.1 L 171.6 129.1 L 171.6 133.1 L 150.2 133.1 L 150.2 152.8 L 153.4181818008423 152.8 L 161.6 143.8 L 171.6 152.8 L 171.6 156.8 L 150.2 156.8 L 150.2 179.0 L 153.7 179.0 L 163.7 169.0 L 175.7 179.0 L 175.7 183.0 L 124.9 183.0 Z M 44.0 41.0 L 156.0 41.0 L 162.0 36.0 L 173.0 45.0 L 168.0 49.0 L 168.0 71.0 L 156.0 77.0 L 156.0 71.0 L 44.0 71.0 L 44.0 106.0 L 43.4 117.5 L 42.2 128.3 L 40.5 138.4 L 38.1 147.7 L 35.2 156.3 L 31.7 164.1 L 27.6 171.2 L 22.8 177.3 L 17.5 182.5 L 11.5 186.6 L 10.4 185.3 L 14.7 179.9 L 18.5 174.1 L 21.9 167.9 L 24.8 161.0 L 27.2 153.6 L 29.1 145.5 L 30.6 136.7 L 31.5 127.1 L 32.0 116.9 L 32.0 35.0 Z M 66.93557043075562 153.49865770339966 L 66.4 156.1 L 65.5 159.5 L 64.4 163.0 L 63.1 166.4 L 61.5 169.9 L 59.8 173.3 L 57.8 176.8 L 55.5 180.2 L 53.2 183.7 L 51.6 183.0 L 52.9 179.0 L 53.7 175.1 L 54.4 171.4 L 55.0 167.8 L 55.5 164.4 L 55.9 161.1 L 56.0 157.9 L 56.0 154.9 L 55.9 152.0 L 55.710091781616214 150.29082565307618 L 55.6 150.3 L 55.6 146.9 L 67.6 149.3 L 70.6 151.3 Z M 124.9 156.8 L 124.9 179.0 L 138.2 179.0 L 138.2 156.8 Z M 94.1 164.0 L 94.1 162.0 L 93.9 160.0 L 93.6 157.9 L 93.0 155.8 L 92.1 153.6 L 91.1 151.4 L 89.8 149.0 L 88.0 147.0 L 89.1 145.6 L 91.5 147.3 L 94.0 148.8 L 96.2 150.5 L 98.3 152.5 L 100.1 154.6 L 101.7 156.9 L 103.1 159.5 L 104.2 162.2 L 105.0 165.0 L 105.6 168.0 L 103.8 172.2 L 99.6 174.0 L 95.4 172.2 L 93.6 168.0 L 93.9 166.0 Z M 124.9 133.1 L 124.9 152.8 L 138.2 152.8 L 138.2 133.1 Z M 124.9 110.1 L 124.9 129.1 L 138.2 129.1 L 138.2 110.1 Z M 64.1 111.8 L 63.2 110.2 L 62.2 108.6 L 60.9 107.0 L 59.4 105.3 L 57.8 103.6 L 56.0 101.9 L 54.0 100.1 L 51.7 98.8 L 52.4 97.1 L 55.0 98.0 L 57.8 98.6 L 60.4 99.3 L 62.8 100.1 L 63.07285385131836 100.21368913650512 L 64.1 98.7 L 65.5 95.6 L 66.9 92.8 L 68.1 90.2 L 69.2 87.7 L 70.2 85.3 L 71.1 83.1 L 71.8 81.1 L 72.4 79.2 L 72.57184324264526 78.46966619491577 L 72.4 78.4 L 72.74042549133301 77.75319147109985 L 72.8 77.5 L 72.8582200050354 77.52938203811645 L 73.4 76.5 L 83.5 82.9 L 85.3 86.1 L 80.68258199691772 86.41844263076783 L 77.3 90.0 L 75.4 91.9 L 73.3 93.9 L 71.1 96.0 L 68.7 98.1 L 66.0 100.2 L 65.1542857170105 101.08095235824585 L 65.2 101.1 L 67.4 102.2 L 69.6 103.4 L 71.6 104.8 L 73.5 106.3 L 75.3 107.9 L 76.2 112.4 L 73.8 116.3 L 69.3 117.2 L 65.4 114.8 L 64.9 113.3 Z M 44.0 45.0 L 44.0 67.0 L 156.0 67.0 L 156.0 45.0 Z M 185.0 23.0 L 185.0 27.0 L 17.0 27.0 L 17.0 23.0 L 163.0 23.0 L 173.0 13.0 Z " />
</g>
</svg>
