<svg xmlns="http://www.w3.org/2000/svg" xmlns:xlink="http://www.w3.org/1999/xlink" version="1.1" baseProfile="full" viewBox="0 0 200 200" width="200" height="200">
<g fill="black">
<path d="M 97.3 35.0 L 128.5 35.0 L 128.5 12.0 L 140.5 14.0 L 143.5 16.0 L 140.5 17.8 L 140.5 35.0 L 165.2 35.0 L 175.2 25.0 L 187.2 35.0 L 187.2 39.0 L 97.3 39.0 L 97.3 60.0 L 112.6 60.0 L 112.6 44.0 L 124.6 46.0 L 127.6 48.0 L 124.6 49.8 L 124.6 60.0 L 139.9 60.0 L 139.9 44.0 L 151.9 46.0 L 154.9 48.0 L 151.9 49.8 L 151.9 60.0 L 167.2 60.0 L 173.2 55.0 L 184.2 64.0 L 179.2 68.0 L 179.2 94.0 L 167.2 100.0 L 167.2 92.0 L 124.97320261001587 92.0 L 122.03202610015869 110.0 L 171.51818180084229 110.0 L 179.7 101.0 L 189.7 110.0 L 189.7 114.0 L 121.37843141555786 114.0 L 118.60065355300904 131.0 L 174.2 131.0 L 180.2 126.0 L 191.2 135.0 L 186.2 138.0 L 186.03151865005492 138.07020053863525 L 186.0 139.0 L 185.8 144.5 L 185.5 149.6 L 185.2 154.3 L 184.7 158.7 L 184.3 162.8 L 183.7 166.4 L 183.1 169.8 L 182.3 172.8 L 181.5 175.5 L 180.6 177.8 L 179.4 180.0 L 177.9 182.1 L 176.3 183.9 L 174.3 185.5 L 172.2 186.8 L 170.0 187.8 L 167.6 188.4 L 165.1 188.8 L 162.6 189.0 L 162.6 183.0 L 142.6 180.0 L 142.6 177.0 L 162.6 177.0 L 163.9 176.9 L 165.0 176.7 L 165.9 176.4 L 166.7 176.1 L 167.4 175.7 L 168.0 175.2 L 168.6 174.6 L 169.1 173.8 L 169.7 172.8 L 170.2 171.5 L 170.8 169.6 L 171.3 167.3 L 171.9 164.4 L 172.4 161.2 L 172.8 157.5 L 173.2 153.3 L 173.5 148.8 L 173.8 143.9 L 174.0 138.6 L 174.1241379737854 135.0 L 117.9470588684082 135.0 L 117.8 135.9 L 105.0 139.9 L 112.77535066604614 92.0 L 97.3 92.0 L 97.3 115.0 L 96.8 125.5 L 96.1 135.4 L 95.1 144.6 L 93.8 153.0 L 92.3 160.7 L 90.4 167.7 L 88.2 173.9 L 85.6 179.3 L 82.7 183.9 L 79.3 187.5 L 77.8 186.4 L 79.3 182.1 L 80.7 177.3 L 81.9 171.9 L 83.0 165.9 L 83.9 159.2 L 84.6 151.8 L 85.1 143.7 L 85.4 134.8 L 85.5 125.2 L 85.3 115.0 L 85.3 29.0 Z M 24.9 175.0 L 38.9 175.0 L 40.1 174.9 L 41.0 174.7 L 41.9 174.4 L 42.3 174.0 L 42.6 173.1 L 42.8 172.2 L 42.9 171.0 L 42.9 115.83999996185302 L 40.5 117.2 L 34.5 120.5 L 28.4 123.7 L 25.87883062362671 125.06391124725342 L 25.3 128.8 L 22.3 127.0 L 15.4 116.9 L 17.2 116.1 L 23.5 113.5 L 36.1 108.1 L 42.4 105.5 L 42.9 105.28225803375244 L 42.9 57.0 L 18.1 57.0 L 18.1 53.0 L 42.9 53.0 L 42.9 14.0 L 54.9 16.0 L 57.9 18.0 L 54.9 19.8 L 54.9 53.0 L 58.3 53.0 L 68.3 43.0 L 80.3 53.0 L 80.3 57.0 L 54.9 57.0 L 54.9 100.05806455612182 L 61.0 97.5 L 67.3 94.9 L 73.5 92.5 L 79.9 90.2 L 80.7 91.7 L 75.3 95.8 L 69.8 99.7 L 64.1 103.3 L 58.3 106.9 L 54.9 108.91694917678834 L 54.9 171.0 L 54.7 173.5 L 54.3 176.0 L 53.5 178.4 L 52.2 180.7 L 50.6 182.7 L 48.6 184.3 L 46.3 185.6 L 43.9 186.4 L 41.4 186.8 L 38.9 187.0 L 38.9 181.0 L 24.9 178.0 Z M 94.5 184.3 L 92.3 180.2 L 93.6 175.8 L 94.7 174.8 L 96.0 173.3 L 97.2 171.2 L 98.5 168.6 L 99.6 165.6 L 100.7 162.1 L 101.7 158.2 L 102.7 153.9 L 103.7 149.1 L 104.3 144.0 L 106.1 144.0 L 106.6 149.2 L 107.2 154.2 L 107.5 158.8 L 107.5 163.1 L 107.3 167.1 L 107.0 170.9 L 106.4 174.3 L 105.5 177.6 L 104.4 180.6 L 102.9 183.4 L 98.9 185.5 Z M 136.2 163.8 L 136.0 161.4 L 135.7 159.0 L 135.2 156.6 L 134.7 154.3 L 134.1 152.0 L 133.4 149.7 L 132.6 147.3 L 131.3 145.3 L 132.6 144.1 L 134.5 145.9 L 136.6 147.5 L 138.6 149.3 L 140.4 151.4 L 142.0 153.6 L 143.5 156.0 L 144.9 158.6 L 146.2 161.3 L 147.2 164.1 L 148.2 167.1 L 147.0 171.5 L 143.1 173.9 L 138.7 172.8 L 136.3 168.9 L 136.3 166.3 Z M 122.3 178.9 L 118.1 177.0 L 116.5 172.7 L 116.9 170.2 L 117.2 167.7 L 117.4 165.1 L 117.5 162.5 L 117.4 159.8 L 117.2 157.0 L 116.9 154.2 L 116.5 151.2 L 116.0 148.2 L 115.1 145.2 L 116.7 144.4 L 118.4 147.1 L 120.3 149.7 L 122.0 152.4 L 123.5 155.2 L 124.8 158.1 L 125.9 161.0 L 126.8 163.9 L 127.6 167.0 L 128.1 170.1 L 128.5 173.2 L 126.5 177.3 Z M 154.6 158.3 L 154.2 156.2 L 153.7 154.2 L 153.2 152.3 L 152.6 150.3 L 152.0 148.5 L 151.3 146.6 L 150.5 144.7 L 149.2 143.3 L 150.4 141.9 L 152.1 143.1 L 154.0 144.1 L 155.9 145.4 L 157.7 146.9 L 159.4 148.5 L 161.1 150.4 L 162.6 152.4 L 164.0 154.6 L 165.4 156.9 L 166.7 159.4 L 166.1 163.9 L 162.6 166.8 L 158.1 166.3 L 155.1 162.8 L 154.9 160.5 Z M 97.3 64.0 L 97.3 88.0 L 112.6 88.0 L 112.6 64.0 Z M 124.6 64.0 L 124.6 88.0 L 139.9 88.0 L 139.9 64.0 Z M 151.9 64.0 L 151.9 88.0 L 167.2 88.0 L 167.2 64.0 Z " />
</g>
</svg>
