<svg xmlns="http://www.w3.org/2000/svg" xmlns:xlink="http://www.w3.org/1999/xlink" version="1.1" baseProfile="full" viewBox="0 0 200 200" width="200" height="200">
<g fill="black">
<path d="M 24.1 175.0 L 38.1 175.0 L 39.3 174.9 L 40.2 174.7 L 41.1 174.4 L 41.5 174.0 L 41.8 173.1 L 42.0 172.2 L 42.1 171.0 L 42.1 115.44545450210572 L 38.5 117.3 L 31.8 120.6 L 25.1 123.8 L 22.104228210449218 125.25383043289185 L 21.4 129.1 L 18.3 127.1 L 11.8 116.8 L 13.7 116.0 L 20.6 113.4 L 27.5 110.7 L 34.4 108.1 L 41.3 105.4 L 42.1 105.08235292434692 L 42.1 57.0 L 14.3 57.0 L 14.3 53.0 L 42.1 53.0 L 42.1 14.0 L 54.1 16.0 L 57.1 18.0 L 54.1 19.8 L 54.1 53.0 L 58.11818180084229 53.0 L 66.3 44.0 L 76.3 53.0 L 76.3 57.0 L 54.1 57.0 L 54.1 100.40588235855103 L 68.5 94.9 L 75.3 92.4 L 82.2 90.1 L 83.0 91.8 L 77.0 95.8 L 70.8 99.7 L 64.5 103.4 L 58.1 107.0 L 54.1 109.15384616851807 L 54.1 171.0 L 53.9 173.5 L 53.5 176.0 L 52.7 178.4 L 51.4 180.7 L 49.8 182.7 L 47.8 184.3 L 45.5 185.6 L 43.1 186.4 L 40.6 186.8 L 38.1 187.0 L 38.1 181.0 L 24.1 178.0 Z M 176.6 179.7 L 175.1 181.6 L 173.3 183.3 L 171.3 184.8 L 169.2 186.0 L 166.9 186.9 L 164.5 187.6 L 162.1 188.0 L 159.6 188.1 L 159.6 182.1 L 139.6 179.1 L 139.6 176.1 L 159.6 176.1 L 160.9 176.0 L 162.1 175.8 L 163.1 175.6 L 164.0 175.2 L 164.8 174.8 L 166.2 173.6 L 166.8 172.7 L 167.4 171.7 L 168.0 170.5 L 168.8 168.6 L 169.5 166.0 L 170.2 162.9 L 170.7 159.2 L 171.3 154.9 L 171.7 150.2 L 172.0 144.9 L 172.3 139.1 L 172.4 132.8 L 172.47058820724487 128.0 L 109.925 128.0 L 108.9 129.3 L 104.4 134.2 L 99.7 138.8 L 95.74651165008545 142.2 L 97.2 142.2 L 97.7 147.2 L 98.3 151.9 L 98.5 156.4 L 98.3 160.6 L 97.9 164.6 L 97.1 168.3 L 95.9 171.8 L 94.4 175.1 L 92.4 178.1 L 90.0 180.7 L 85.5 181.9 L 81.5 179.6 L 80.4 175.2 L 82.7 171.2 L 84.3 170.3 L 85.9 169.0 L 87.4 167.2 L 89.0 165.0 L 90.4 162.4 L 91.7 159.2 L 92.8 155.6 L 93.9 151.6 L 94.9 147.1 L 95.36666669845582 142.52666664123535 L 94.7 143.1 L 89.4 147.2 L 83.7 150.9 L 77.7 154.3 L 71.4 157.2 L 70.4 155.7 L 75.6 151.1 L 80.5 146.7 L 85.1 142.2 L 89.5 137.6 L 93.6 132.9 L 97.4 128.1 L 100.9 123.2 L 104.1 118.1 L 107.0 112.9 L 109.24126396179199 108.41747207641602 L 109.2 108.4 L 110.2 106.5 L 120.3 113.1 L 122.0 116.2 L 118.19864864349366 116.46216220855713 L 116.8 118.7 L 113.07037038803101 124.0 L 125.9 124.0 L 125.9 100.5 L 97.4 100.5 L 97.4 112.5 L 85.4 118.5 L 85.4 50.4 L 97.4 56.4 L 125.9 56.4 L 125.9 40.9 L 78.9 40.9 L 78.9 36.9 L 125.9 36.9 L 125.9 14.0 L 137.9 16.0 L 140.9 18.0 L 137.9 19.8 L 137.9 36.9 L 163.5 36.9 L 173.5 26.9 L 185.5 36.9 L 185.5 40.9 L 137.9 40.9 L 137.9 56.4 L 165.7 56.4 L 171.7 51.4 L 182.7 60.4 L 177.7 64.4 L 177.7 104.5 L 165.7 110.5 L 165.7 100.5 L 137.9 100.5 L 137.9 124.0 L 172.5 124.0 L 178.5 119.0 L 189.5 128.0 L 184.5 131.0 L 184.4281436920166 131.02994012832642 L 184.4 133.0 L 184.3 139.5 L 184.0 145.5 L 183.7 151.1 L 183.2 156.2 L 182.6 160.8 L 181.9 165.1 L 181.1 168.8 L 180.2 172.3 L 179.0 175.3 L 177.9 177.6 Z M 113.5 174.6 L 109.7 172.0 L 108.8 167.5 L 109.4 165.9 L 110.0 164.0 L 110.4 161.9 L 110.7 159.7 L 110.8 157.2 L 110.8 154.5 L 110.6 151.7 L 110.3 148.6 L 109.8 145.3 L 108.8 142.0 L 110.5 141.3 L 112.2 144.4 L 114.1 147.3 L 115.7 150.1 L 117.0 153.0 L 118.2 155.8 L 119.1 158.7 L 119.8 161.5 L 120.3 164.3 L 120.5 167.1 L 120.5 169.9 L 118.0 173.6 Z M 130.7 159.3 L 130.4 157.0 L 130.0 154.7 L 129.5 152.3 L 128.8 150.0 L 128.0 147.7 L 127.0 145.3 L 126.0 142.8 L 124.4 140.7 L 125.7 139.4 L 127.8 141.2 L 130.1 142.9 L 132.3 144.7 L 134.3 146.8 L 136.1 148.9 L 137.7 151.3 L 139.3 153.8 L 140.6 156.4 L 141.8 159.1 L 142.8 162.0 L 141.7 166.4 L 137.9 168.9 L 133.4 167.8 L 130.9 164.0 L 130.9 161.6 Z M 151.2 153.2 L 150.6 151.3 L 149.9 149.3 L 148.9 147.3 L 147.8 145.3 L 146.5 143.3 L 145.0 141.2 L 143.3 139.0 L 141.2 137.3 L 142.1 135.8 L 144.7 137.1 L 147.4 138.2 L 149.9 139.4 L 152.3 140.9 L 154.5 142.5 L 156.6 144.3 L 158.5 146.3 L 160.3 148.4 L 161.9 150.6 L 163.3 153.0 L 163.0 157.6 L 159.6 160.7 L 155.0 160.4 L 151.9 157.0 L 151.7 155.1 Z M 97.4 79.9 L 97.4 96.5 L 125.9 96.5 L 125.9 79.9 Z M 137.9 79.9 L 137.9 96.5 L 165.7 96.5 L 165.7 79.9 Z M 97.4 60.4 L 97.4 75.9 L 125.9 75.9 L 125.9 60.4 Z M 137.9 60.4 L 137.9 75.9 L 165.7 75.9 L 165.7 60.4 Z " />
</g>
</svg>
