<svg xmlns="http://www.w3.org/2000/svg" xmlns:xlink="http://www.w3.org/1999/xlink" version="1.1" baseProfile="full" viewBox="0 0 200 200" width="200" height="200">
<g fill="black">
<path d="M 173.3 130.4 L 173.3 134.4 L 138.3 134.4 L 138.3 153.0 L 162.0 153.0 L 172.0 143.0 L 184.0 153.0 L 184.0 157.0 L 138.3 157.0 L 138.3 185.3 L 126.3 191.3 L 126.3 157.0 L 82.6 157.0 L 82.6 153.0 L 126.3 153.0 L 126.3 134.4 L 90.7 134.4 L 90.7 130.4 L 151.3 130.4 L 161.3 120.4 Z M 22.7 175.0 L 36.8 175.0 L 38.0 174.9 L 38.9 174.7 L 39.8 174.4 L 40.2 174.0 L 40.5 173.1 L 40.7 172.2 L 40.8 171.0 L 40.8 115.42307691574096 L 37.3 117.2 L 30.7 120.6 L 24.0 123.8 L 20.990424823760986 125.2823281288147 L 20.3 129.0 L 17.3 127.1 L 10.7 116.8 L 12.6 116.0 L 19.5 113.4 L 26.3 110.7 L 33.2 108.1 L 40.0 105.4 L 40.8 105.09411764144897 L 40.8 57.0 L 13.2 57.0 L 13.2 53.0 L 40.8 53.0 L 40.8 14.0 L 52.8 16.0 L 55.8 18.0 L 52.8 19.8 L 52.8 53.0 L 59.1 53.0 L 69.1 43.0 L 81.1 53.0 L 81.1 57.0 L 52.8 57.0 L 52.8 100.38208951950074 L 53.5 100.1 L 60.3 97.5 L 67.0 94.9 L 73.8 92.4 L 80.7 90.1 L 81.5 91.8 L 75.5 95.8 L 69.4 99.7 L 63.1 103.4 L 56.7 107.0 L 52.8 109.1328125 L 52.8 171.0 L 52.6 173.5 L 52.2 176.0 L 51.4 178.4 L 50.1 180.7 L 48.5 182.7 L 46.5 184.3 L 44.2 185.6 L 41.8 186.4 L 39.3 186.8 L 36.8 187.0 L 36.8 181.0 L 22.7 178.0 Z M 170.2 119.8 L 165.6 116.0 L 161.2061884880066 111.90576648712158 L 162.0 113.4 L 157.62639245986938 113.62622108459473 L 157.0 114.4 L 155.3 116.4 L 153.5 118.5 L 149.7 122.5 L 147.7 124.5 L 145.6 126.4 L 143.4 128.3 L 141.5 130.4 L 140.0 129.3 L 141.4 126.9 L 142.4 124.2 L 143.3 121.6 L 144.3 119.0 L 145.3 116.5 L 146.3 114.1 L 147.2 111.6 L 148.1 109.2 L 148.9 106.9 L 149.38730154037475 105.4380952835083 L 149.3 105.4 L 149.57272729873657 104.88181819915772 L 149.7 104.5 L 149.75743036270143 104.53088235855103 L 150.3 103.5 L 157.87575759887696 108.57575759887695 L 157.0 107.7 L 153.1 103.3 L 149.4 98.7 L 146.0 93.8 L 142.9 88.7 L 140.71818180084227 83.9 L 129.15352115631103 83.9 L 127.7 86.3 L 122.8 93.0 L 117.2 99.4 L 111.0 105.5 L 109.25992441177368 106.94177694320679 L 111.2 108.0 L 113.6 108.8 L 115.9 109.9 L 118.0 111.1 L 120.0 112.5 L 121.9 114.1 L 123.7 115.8 L 125.3 117.7 L 126.8 119.7 L 128.0 121.9 L 127.7 126.4 L 124.2 129.4 L 119.7 129.1 L 116.7 125.6 L 116.5 124.0 L 116.2 122.4 L 115.8 120.7 L 115.3 119.0 L 114.5 117.2 L 113.6 115.4 L 112.6 113.6 L 111.3 111.7 L 109.9 109.8 L 108.0 108.3 L 108.4680850982666 107.59787235260009 L 104.0 111.3 L 96.5 116.7 L 88.2 121.7 L 79.2 126.3 L 78.3 124.7 L 86.1 118.6 L 93.2 112.5 L 99.7 106.4 L 105.6 100.2 L 110.8 93.9 L 115.3 87.5 L 117.4375 83.9 L 81.3 83.9 L 81.3 79.9 L 119.7 79.9 L 122.4 74.5 L 124.9 67.7 L 126.60556344985962 61.901084423065186 L 126.6 61.9 L 126.73333330154419 61.46666669845581 L 126.9 60.9 L 126.90706825256348 60.902028274536136 L 127.4 59.3 L 138.4 64.2 L 140.8 66.9 L 137.03357667922972 67.90886335372925 L 135.6 71.8 L 132.0 79.2 L 131.5760563850403 79.9 L 162.6 79.9 L 172.6 69.9 L 184.6 79.9 L 184.6 83.9 L 143.71794872283937 83.9 L 146.2 86.1 L 150.5 90.0 L 154.7 93.8 L 159.0 97.4 L 163.3 100.8 L 167.8 104.1 L 172.3 107.2 L 177.0 110.1 L 181.7 112.8 L 186.6 115.4 L 191.2 118.1 L 180.1 126.9 L 175.0 123.4 Z M 108.4 17.2 L 160.0 17.2 L 166.0 12.2 L 177.0 21.2 L 172.0 25.2 L 172.0 58.7 L 160.0 64.7 L 160.0 54.7 L 108.4 54.7 L 108.4 61.7 L 96.4 67.7 L 96.4 11.2 Z M 108.4 21.2 L 108.4 50.7 L 160.0 50.7 L 160.0 21.2 Z " />
</g>
</svg>
