<svg xmlns="http://www.w3.org/2000/svg" xmlns:xlink="http://www.w3.org/1999/xlink" version="1.1" baseProfile="full" viewBox="0 0 200 200" width="200" height="200">
<g fill="black">
<path d="M 181.0 32.0 L 181.0 36.0 L 162.3 36.0 L 162.3 92.0 L 167.5 92.0 L 177.5 82.0 L 189.5 92.0 L 189.5 96.0 L 162.3 96.0 L 162.3 183.0 L 150.3 189.0 L 150.3 96.0 L 135.5 96.0 L 135.5 92.0 L 150.3 92.0 L 150.3 36.0 L 134.2 36.0 L 134.2 32.0 L 162.8181818008423 32.0 L 171.0 23.0 Z M 128.4 32.0 L 128.4 36.0 L 112.9 36.0 L 112.9 92.0 L 118.6777777671814 92.0 L 124.9 85.0 L 132.9 92.0 L 132.9 96.0 L 112.81366910934449 96.0 L 112.3 107.9 L 111.1 120.9 L 109.2 133.0 L 106.8 144.1 L 103.6 154.2 L 99.9 163.3 L 95.5 171.4 L 90.4 178.4 L 84.6 184.2 L 78.2 188.7 L 77.1 187.2 L 81.8 181.6 L 86.0 175.3 L 89.7 168.3 L 92.9 160.4 L 95.5 151.7 L 97.7 142.0 L 99.3 131.5 L 100.4 119.9 L 100.9 107.4 L 100.9 96.0 L 76.4 96.0 L 76.4 92.0 L 100.9 92.0 L 100.9 36.0 L 81.6 36.0 L 81.6 32.0 L 110.21818180084229 32.0 L 118.4 23.0 Z M 20.1 175.0 L 34.1 175.0 L 35.3 174.9 L 36.2 174.7 L 37.1 174.4 L 37.5 174.0 L 37.8 173.1 L 38.0 172.2 L 38.1 171.0 L 38.1 116.05789470672607 L 36.3 117.1 L 24.7 123.7 L 22.43088655471802 124.93070564270019 L 21.9 128.7 L 18.8 126.9 L 11.8 117.0 L 13.6 116.1 L 19.6 113.5 L 25.7 110.8 L 31.7 108.2 L 38.1 105.31999998092651 L 38.1 57.0 L 14.6 57.0 L 14.6 53.0 L 38.1 53.0 L 38.1 14.0 L 50.1 16.0 L 53.1 18.0 L 50.1 19.8 L 50.1 53.0 L 52.2 53.0 L 62.2 43.0 L 74.2 53.0 L 74.2 57.0 L 50.1 57.0 L 50.1 99.975 L 55.6 97.5 L 61.6 94.9 L 67.6 92.5 L 73.7 90.2 L 74.6 91.7 L 69.5 95.8 L 64.2 99.6 L 58.7 103.3 L 53.2 106.9 L 50.1 108.78214282989502 L 50.1 171.0 L 49.9 173.5 L 49.5 176.0 L 48.7 178.4 L 47.4 180.7 L 45.8 182.7 L 43.8 184.3 L 41.5 185.6 L 39.1 186.4 L 36.6 186.8 L 34.1 187.0 L 34.1 181.0 L 20.1 178.0 Z " />
</g>
</svg>
