<svg xmlns="http://www.w3.org/2000/svg" xmlns:xlink="http://www.w3.org/1999/xlink" version="1.1" baseProfile="full" viewBox="0 0 200 200" width="200" height="200">
<g fill="black">
<path d="M 70.0 176.0 L 90.0 176.0 L 91.2 175.9 L 92.1 175.7 L 93.0 175.4 L 93.4 175.0 L 93.7 174.1 L 93.9 173.2 L 94.0 172.0 L 94.0 158.0 L 13.0 158.0 L 13.0 154.0 L 94.0 154.0 L 94.0 140.0 L 28.0 140.0 L 28.0 136.0 L 94.0 136.0 L 94.0 122.48870964050293 L 91.7 122.6 L 78.3 123.2 L 63.7 123.6 L 47.9 123.8 L 31.0 123.8 L 30.9 122.1 L 47.7 120.0 L 63.3 118.2 L 77.8 116.6 L 91.1 115.0 L 103.3 113.5 L 114.4 112.0 L 124.2 110.6 L 133.0 109.1 L 140.5 107.7 L 145.81014995574952 106.43567857742309 L 145.8 106.4 L 145.8360655784607 106.42950820922852 L 146.8 106.2 L 147.03611364364625 107.41136569976807 L 157.9 116.3 L 158.2 119.3 L 153.70081338882446 117.11120653152466 L 149.1 118.0 L 142.3 118.9 L 134.4 119.7 L 125.4 120.5 L 115.3 121.3 L 106.0 121.88125 L 106.0 136.0 L 150.0 136.0 L 160.0 126.0 L 172.0 136.0 L 172.0 140.0 L 106.0 140.0 L 106.0 154.0 L 165.0 154.0 L 175.0 144.0 L 187.0 154.0 L 187.0 158.0 L 106.0 158.0 L 106.0 172.0 L 105.8 174.5 L 105.4 177.0 L 104.6 179.4 L 103.3 181.7 L 101.7 183.7 L 99.7 185.3 L 97.4 186.6 L 95.0 187.4 L 92.5 187.8 L 90.0 188.0 L 90.0 182.0 L 70.0 179.0 Z M 163.8 98.4 L 161.1 95.1 L 158.1 91.8 L 157.46443548202515 91.14517602920532 L 147.3 93.0 L 134.2 95.1 L 121.8 97.0 L 110.1 98.7 L 99.1 100.2 L 88.8 101.6 L 79.1 102.8 L 70.2 103.9 L 61.9 104.9 L 58.48333330154419 105.31000003814697 L 56.6 108.7 L 54.4 105.8 L 51.5 94.0 L 53.5 93.9 L 61.0 93.6 L 69.3 93.2 L 78.3 92.8 L 80.85168828964234 92.66709957122802 L 80.9 92.6 L 84.6 87.7 L 91.8 77.9 L 95.3 73.0 L 98.7 68.1 L 102.0 63.1 L 105.2 58.1 L 108.3 53.0 L 110.84836988449096 48.72531509399414 L 110.8 48.7 L 111.9 47.0 L 121.5 54.3 L 122.9 57.6 L 119.15359783172607 57.4708137512207 L 117.8 59.3 L 114.0 64.3 L 110.1 69.1 L 106.0 73.8 L 101.9 78.4 L 97.6 82.8 L 93.1 87.2 L 88.5 91.3 L 87.26000003814697 92.33333330154419 L 87.9 92.3 L 98.3 91.8 L 109.4 91.1 L 121.2 90.5 L 133.7 89.8 L 146.9 89.2 L 155.34235486984252 88.95878982543945 L 154.8 88.4 L 151.2 85.0 L 147.3 81.5 L 143.2 78.0 L 138.9 74.3 L 134.4 70.4 L 135.3 68.9 L 140.9 71.1 L 146.2 73.5 L 151.1 76.2 L 155.8 79.0 L 160.2 81.9 L 164.3 84.8 L 168.1 87.9 L 171.7 91.1 L 175.0 94.4 L 178.0 97.7 L 179.0 102.2 L 176.7 106.1 L 172.3 107.2 L 168.3 104.9 L 166.2 101.6 Z M 90.4 16.7 L 92.7 19.5 L 88.97331867218017 20.480705642700194 L 86.4 27.3 L 82.11764707565308 36.4 L 159.0 36.4 L 169.0 26.4 L 181.0 36.4 L 181.0 40.4 L 79.95959596633911 40.4 L 76.0 47.4 L 69.6 56.8 L 62.5 65.9 L 54.5 74.6 L 45.7 82.9 L 36.1 90.8 L 25.7 98.1 L 14.5 105.0 L 13.4 103.5 L 23.4 95.1 L 32.6 86.7 L 41.1 78.2 L 48.9 69.5 L 55.8 60.7 L 62.0 51.6 L 67.4 42.3 L 68.3297872543335 40.4 L 19.0 40.4 L 19.0 36.4 L 70.28723402023316 36.4 L 72.0 32.9 L 75.8 23.2 L 78.6170506477356 14.203612422943115 L 78.6 14.2 L 79.4 11.7 Z " />
</g>
</svg>
