<svg xmlns="http://www.w3.org/2000/svg" xmlns:xlink="http://www.w3.org/1999/xlink" version="1.1" baseProfile="full" viewBox="0 0 200 200" width="200" height="200">
<g fill="black">
<path d="M 16.2 175.0 L 28.2 175.0 L 29.4 174.9 L 30.3 174.7 L 31.2 174.4 L 31.6 174.0 L 31.9 173.1 L 32.1 172.2 L 32.2 171.0 L 32.2 117.04042549133301 L 27.7 120.2 L 21.57184467315674 124.28543691635132 L 21.3 128.2 L 18.1 126.6 L 10.3 117.3 L 12.0 116.3 L 17.1 113.6 L 22.2 111.0 L 27.2 108.3 L 32.2 105.7 L 32.2 57.0 L 13.6 57.0 L 13.6 53.0 L 32.2 53.0 L 32.2 14.0 L 44.2 16.0 L 47.2 18.0 L 44.2 19.8 L 44.2 53.0 L 48.977777767181394 53.0 L 55.2 46.0 L 63.2 53.0 L 63.2 57.0 L 44.2 57.0 L 44.2 99.31199998855591 L 52.3 95.1 L 57.5 92.6 L 62.7 90.2 L 63.7 91.7 L 59.6 95.7 L 55.3 99.5 L 50.9 103.2 L 46.4 106.7 L 44.2 108.37391300201416 L 44.2 171.0 L 44.0 173.5 L 43.6 176.0 L 42.8 178.4 L 41.5 180.7 L 39.9 182.7 L 37.9 184.3 L 35.6 185.6 L 33.2 186.4 L 30.7 186.8 L 28.2 187.0 L 28.2 181.0 L 16.2 178.0 Z M 147.6 173.0 L 166.8 173.0 L 167.7 172.8 L 168.3 172.6 L 168.6 172.4 L 168.8 172.3 L 169.0 172.1 L 169.2 171.8 L 169.3 171.2 L 169.5 170.3 L 169.6 169.0 L 169.6 118.4 L 152.71142854690552 118.4 L 152.5 125.8 L 151.9 135.6 L 151.0 144.7 L 149.8 153.0 L 148.3 160.6 L 146.4 167.4 L 144.3 173.5 L 141.7 178.7 L 138.8 183.1 L 135.5 186.5 L 134.1 185.5 L 135.8 181.4 L 137.2 176.8 L 138.5 171.6 L 139.7 165.8 L 140.6 159.2 L 141.3 151.9 L 141.8 143.9 L 142.1 135.1 L 142.1 125.7 L 141.8 115.4 L 141.8 18.3 L 152.8 23.8 L 169.6 23.8 L 175.6 18.8 L 186.6 27.8 L 181.6 31.8 L 181.6 169.0 L 181.4 171.6 L 181.0 174.1 L 180.2 176.5 L 179.0 178.8 L 177.3 180.8 L 175.3 182.4 L 173.0 183.7 L 170.6 184.5 L 168.1 184.9 L 165.6 185.0 L 165.6 179.0 L 147.6 176.0 Z M 108.1 171.6 L 120.1 171.6 L 121.0 171.5 L 121.7 171.4 L 122.3 171.1 L 122.7 170.7 L 122.9 170.2 L 123.1 169.5 L 123.3 168.4 L 123.3 118.4 L 107.48349514007569 118.4 L 107.2 125.7 L 106.5 135.3 L 105.6 144.3 L 104.4 152.5 L 103.0 160.1 L 101.2 166.9 L 99.2 173.0 L 96.9 178.4 L 94.1 182.9 L 91.0 186.5 L 89.5 185.5 L 90.7 181.3 L 91.8 176.5 L 92.9 171.2 L 93.8 165.3 L 94.6 158.7 L 95.2 151.4 L 95.6 143.5 L 95.8 134.8 L 95.8 125.4 L 95.6 115.4 L 95.6 22.018181800842285 L 93.62361335754395 22.70093355178833 L 91.8 29.8 L 88.8 40.5 L 85.7 50.9 L 82.4 61.1 L 79.0 71.1 L 78.01553401947021 73.75258903503418 L 82.5 74.5 L 85.5 76.5 L 82.5 78.3 L 82.5 181.2 L 70.5 187.2 L 70.5 93.06000003814697 L 67.7 99.5 L 63.5 108.4 L 58.9 117.0 L 57.2 116.3 L 59.9 107.0 L 62.7 97.6 L 65.5 88.1 L 68.2 78.4 L 70.9 68.6 L 73.5 58.5 L 76.0 48.3 L 78.4 37.8 L 80.7 27.2 L 82.9 16.3 L 82.91363639831543 16.30303030014038 L 83.3 14.5 L 94.6 18.9 L 95.6 19.939999961853026 L 95.6 17.8 L 107.6 23.8 L 123.3 23.8 L 128.8 18.8 L 139.3 27.8 L 134.3 31.3 L 134.3 167.1 L 134.2 169.5 L 133.8 171.8 L 133.2 174.1 L 132.2 176.2 L 130.8 178.2 L 129.0 179.8 L 127.0 181.1 L 124.7 181.9 L 122.4 182.4 L 120.1 182.6 L 120.1 177.1 L 108.1 174.3 Z M 152.8 72.6 L 152.8 114.4 L 169.6 114.4 L 169.6 72.6 Z M 107.6 72.6 L 107.6 114.4 L 123.3 114.4 L 123.3 72.6 Z M 152.8 27.8 L 152.8 68.6 L 169.6 68.6 L 169.6 27.8 Z M 107.6 27.8 L 107.6 68.6 L 123.3 68.6 L 123.3 27.8 Z " />
</g>
</svg>
