<svg xmlns="http://www.w3.org/2000/svg" xmlns:xlink="http://www.w3.org/1999/xlink" version="1.1" baseProfile="full" viewBox="0 0 200 200" width="200" height="200">
<g fill="black">
<path d="M 19.2 175.0 L 33.2 175.0 L 34.5 174.9 L 35.4 174.7 L 36.3 174.4 L 36.5 174.2 L 36.6 174.0 L 36.8 173.7 L 37.0 173.1 L 37.2 172.2 L 37.2 115.83999996185302 L 34.8 117.2 L 22.6 123.8 L 20.08049612045288 125.10038909912109 L 19.5 128.9 L 16.4 127.0 L 9.6 116.9 L 11.4 116.1 L 17.8 113.4 L 24.1 110.8 L 30.4 108.1 L 36.7 105.5 L 37.2 105.28571424484252 L 37.2 57.0 L 12.3 57.0 L 12.3 53.0 L 37.2 53.0 L 37.2 14.0 L 49.2 16.0 L 52.2 18.0 L 49.2 19.8 L 49.2 53.0 L 52.9 53.0 L 62.9 43.0 L 74.9 53.0 L 74.9 57.0 L 49.2 57.0 L 49.2 100.14285717010497 L 49.3 100.1 L 55.5 97.5 L 61.8 94.9 L 68.1 92.5 L 74.5 90.2 L 75.3 91.7 L 69.9 95.8 L 64.3 99.7 L 52.7 106.9 L 49.2 108.97627115249634 L 49.2 171.0 L 49.1 173.5 L 48.7 176.0 L 47.8 178.4 L 46.6 180.7 L 45.0 182.7 L 43.0 184.3 L 40.7 185.6 L 38.3 186.4 L 35.8 186.8 L 33.2 187.0 L 33.2 181.0 L 19.2 178.0 Z M 76.5 176.4 L 124.5 176.4 L 124.5 154.4 L 87.3 154.4 L 87.3 150.4 L 124.5 150.4 L 124.5 129.2 L 136.5 131.2 L 139.5 133.2 L 136.5 135.0 L 136.5 150.4 L 152.3 150.4 L 162.3 140.4 L 174.3 150.4 L 174.3 154.4 L 136.5 154.4 L 136.5 176.4 L 163.1 176.4 L 173.1 166.4 L 185.1 176.4 L 185.1 180.4 L 76.5 180.4 Z M 78.5 125.0 L 124.5 125.0 L 124.5 103.6 L 87.3 103.6 L 87.3 99.6 L 124.5 99.6 L 124.5 78.4 L 136.5 80.4 L 139.5 82.4 L 136.5 84.2 L 136.5 99.6 L 152.3 99.6 L 162.3 89.6 L 174.3 99.6 L 174.3 103.6 L 136.5 103.6 L 136.5 125.0 L 161.1 125.0 L 171.1 115.0 L 183.1 125.0 L 183.1 129.0 L 78.5 129.0 Z M 92.8 81.9 L 80.8 87.9 L 80.8 38.8 L 92.8 44.8 L 109.9 44.8 L 109.9 29.5 L 74.2 29.5 L 74.2 25.5 L 164.7 25.5 L 174.7 15.5 L 186.7 25.5 L 186.7 29.5 L 151.0 29.5 L 151.0 44.8 L 168.1 44.8 L 174.1 39.8 L 185.1 48.8 L 180.1 52.8 L 180.1 78.9 L 168.1 84.9 L 168.1 74.9 L 92.8 74.9 Z M 92.8 48.8 L 92.8 70.9 L 109.9 70.9 L 109.9 48.8 Z M 121.9 48.8 L 121.9 70.9 L 139.0 70.9 L 139.0 48.8 Z M 151.0 48.8 L 151.0 70.9 L 168.1 70.9 L 168.1 48.8 Z M 121.9 29.5 L 121.9 44.8 L 139.0 44.8 L 139.0 29.5 Z " />
</g>
</svg>
