<svg xmlns="http://www.w3.org/2000/svg" xmlns:xlink="http://www.w3.org/1999/xlink" version="1.1" baseProfile="full" viewBox="0 0 200 200" width="200" height="200">
<g fill="black">
<path d="M 146.82844247817994 75.90293455123901 L 146.2 90.2 L 145.12872343063356 99.6723403930664 L 146.3 106.7 L 148.6 116.7 L 151.3 126.0 L 154.5 134.7 L 158.3 142.7 L 162.7 150.1 L 167.7 156.9 L 173.3 163.0 L 179.4 168.6 L 186.2 173.6 L 189.4 175.9 L 178.4 184.3 L 171.1 177.9 L 164.5 171.0 L 158.8 163.4 L 153.9 155.3 L 149.9 146.7 L 146.6 137.5 L 144.3 127.8 L 142.8 117.7 L 142.6708028793335 115.41751823425292 L 141.3 122.5 L 137.2 136.6 L 132.1 149.2 L 125.8 160.3 L 118.4 169.9 L 109.9 177.9 L 100.4 184.2 L 90.0 188.8 L 89.3 187.1 L 98.4 181.1 L 106.3 174.0 L 113.3 165.8 L 119.3 156.4 L 124.3 145.7 L 128.4 133.7 L 131.5 120.4 L 133.6 105.7 L 134.8 89.5 L 135.0 72.0 L 135.0 69.6 L 147.0 72.0 L 150.0 74.0 Z M 19.6 175.0 L 33.6 175.0 L 34.8 174.9 L 35.7 174.7 L 36.6 174.4 L 37.0 174.0 L 37.3 173.1 L 37.5 172.2 L 37.6 171.0 L 37.6 115.87457628250122 L 35.3 117.2 L 29.3 120.5 L 23.3 123.7 L 20.83011751174927 125.03616600036621 L 20.3 128.8 L 17.2 127.0 L 10.3 116.9 L 12.1 116.1 L 18.4 113.5 L 24.6 110.8 L 30.9 108.1 L 37.1 105.5 L 37.6 105.28225803375244 L 37.6 57.0 L 13.0 57.0 L 13.0 53.0 L 37.6 53.0 L 37.6 14.0 L 49.6 16.0 L 52.6 18.0 L 49.6 19.8 L 49.6 53.0 L 52.8 53.0 L 62.8 43.0 L 74.8 53.0 L 74.8 57.0 L 49.6 57.0 L 49.6 100.15573768615722 L 55.6 97.5 L 61.8 94.9 L 68.0 92.5 L 74.4 90.2 L 75.2 91.7 L 69.9 95.8 L 64.3 99.7 L 58.7 103.3 L 52.9 106.9 L 49.6 108.89137935638428 L 49.6 171.0 L 49.4 173.5 L 49.0 176.0 L 48.2 178.4 L 46.9 180.7 L 45.3 182.7 L 43.3 184.3 L 41.0 185.6 L 38.6 186.4 L 36.1 186.8 L 33.6 187.0 L 33.6 181.0 L 19.6 178.0 Z M 68.6 142.7 L 73.7 138.8 L 78.9 134.7 L 84.1 130.4 L 89.3 125.9 L 94.6 121.1 L 99.9 116.1 L 105.3 110.9 L 110.8 105.5 L 116.4 100.0 L 122.3 94.4 L 123.7 95.5 L 119.4 102.4 L 114.9 109.0 L 110.2 115.3 L 105.5 121.3 L 100.7 127.0 L 95.9 132.5 L 91.0 137.7 L 86.1 142.7 L 81.1 147.5 L 79.22005109786987 149.19195404052735 L 79.6 153.1 L 76.1 152.0 L 67.0 143.9 Z M 142.5 18.0 L 145.1 20.5 L 141.5937358856201 21.863547134399415 L 140.6 26.1 L 138.3 34.0 L 135.7 41.6 L 132.8 49.1 L 129.5 56.3 L 128.15 59.0 L 172.1 59.0 L 172.59714288711547 58.58571424484253 L 172.7 58.3 L 172.85104894638062 58.37412586212158 L 178.1 54.0 L 189.1 63.0 L 184.1 66.0 L 180.917142868042 67.32619047164917 L 180.0 68.6 L 178.0 71.4 L 175.8 74.3 L 173.5 77.3 L 170.9 80.5 L 168.2 83.8 L 165.2 87.2 L 161.9 90.7 L 158.6 94.5 L 157.1 93.4 L 159.4 89.0 L 161.3 84.6 L 163.2 80.6 L 165.0 76.7 L 166.7 73.1 L 168.2 69.7 L 169.6 66.5 L 170.8 63.6 L 171.01428575515746 63.0 L 126.15 63.0 L 126.0 63.3 L 122.1 70.1 L 117.8 76.5 L 113.2 82.7 L 108.1 88.5 L 106.6 87.4 L 110.0 80.6 L 113.2 73.8 L 116.2 67.0 L 119.1 60.1 L 121.7 53.1 L 124.0 45.9 L 126.1 38.6 L 127.9 31.2 L 129.5 23.6 L 130.7 15.8 L 130.77015857696534 15.813080406188964 L 131.1 13.9 Z M 91.5 59.7 L 90.2 56.9 L 88.6 54.2 L 86.9 51.6 L 84.9 49.0 L 82.7 46.5 L 80.4 43.9 L 77.8 41.4 L 74.8 39.2 L 75.6 37.6 L 79.2 39.0 L 82.8 40.3 L 86.2 42.0 L 89.4 44.0 L 92.5 46.2 L 95.3 48.6 L 98.0 51.3 L 100.4 54.3 L 102.7 57.4 L 104.7 60.8 L 104.7 65.4 L 101.6 68.7 L 97.0 68.7 L 93.7 65.6 L 92.7 62.6 Z " />
</g>
</svg>
