<svg xmlns="http://www.w3.org/2000/svg" xmlns:xlink="http://www.w3.org/1999/xlink" version="1.1" baseProfile="full" viewBox="0 0 200 200" width="200" height="200">
<g fill="black">
<path d="M 84.8 178.7 L 104.8 178.7 L 106.0 178.6 L 106.9 178.5 L 107.5 178.3 L 107.8 178.1 L 108.0 178.0 L 108.2 177.8 L 108.4 177.4 L 108.6 176.8 L 108.7 175.9 L 108.8 174.7 L 108.8 144.8 L 78.2380952835083 144.8 L 78.0 147.8 L 77.2 153.9 L 76.1 159.6 L 74.7 165.0 L 72.9 170.1 L 70.7 174.9 L 68.2 179.3 L 65.4 183.3 L 62.1 186.8 L 58.5 189.8 L 57.1 188.6 L 59.0 184.6 L 60.8 180.6 L 62.3 176.4 L 63.7 172.1 L 64.8 167.6 L 65.6 162.9 L 66.2 158.0 L 66.6 152.7 L 66.7 147.2 L 66.5 141.5 L 66.5 78.7 L 78.5 84.7 L 108.8 84.7 L 114.8 79.7 L 125.8 88.7 L 120.8 92.7 L 120.8 174.7 L 120.6 177.3 L 120.2 179.8 L 119.4 182.2 L 118.2 184.4 L 116.5 186.4 L 114.5 188.1 L 112.2 189.3 L 109.8 190.1 L 107.3 190.6 L 104.8 190.7 L 104.8 184.7 L 84.8 181.7 Z M 161.7 78.3 L 161.19873752593995 84.39226722717285 L 162.8 94.2 L 165.5 108.0 L 168.4 120.9 L 171.7 132.8 L 175.3 143.8 L 179.3 153.8 L 183.6 162.9 L 188.2 171.0 L 193.1 178.2 L 182.7 186.2 L 182.3 185.7 L 177.3 177.2 L 172.9 167.9 L 169.0 157.8 L 165.5 146.9 L 162.6 135.1 L 160.2 122.6 L 158.371902179718 109.70709981918336 L 156.0 122.8 L 153.1 135.6 L 149.6 147.4 L 145.6 158.1 L 141.0 167.8 L 135.9 176.3 L 130.1 183.6 L 123.8 189.6 L 122.5 188.3 L 127.1 181.3 L 131.2 173.5 L 135.1 165.0 L 138.5 155.5 L 141.5 145.0 L 144.0 133.6 L 146.2 121.1 L 147.8 107.6 L 149.0 93.2 L 149.8 77.6 L 149.8 72.0 L 129.2 72.0 L 129.2 68.0 L 149.8 68.0 L 149.8 13.0 L 161.8 15.0 L 164.8 17.0 L 161.8 18.8 L 161.8 68.0 L 167.1 68.0 L 177.1 58.0 L 189.1 68.0 L 189.1 72.0 L 161.8 72.0 L 161.8 78.0 L 161.6037735939026 78.29433965682983 Z M 12.5 175.0 L 24.5 175.0 L 25.7 174.9 L 26.6 174.7 L 27.5 174.4 L 27.9 174.0 L 28.2 173.1 L 28.4 172.2 L 28.5 171.0 L 28.5 117.0375 L 23.9 120.2 L 19.0 123.4 L 17.671844673156738 124.28543691635132 L 17.4 128.2 L 14.2 126.6 L 6.4 117.3 L 8.2 116.3 L 13.3 113.6 L 18.4 111.0 L 23.4 108.3 L 28.5 105.7 L 28.5 57.0 L 9.7 57.0 L 9.7 53.0 L 28.5 53.0 L 28.5 14.0 L 40.5 16.0 L 43.5 18.0 L 40.5 19.8 L 40.5 53.0 L 45.577777767181395 53.0 L 51.8 46.0 L 59.8 53.0 L 59.8 57.0 L 40.5 57.0 L 40.5 99.33137254714966 L 43.7 97.7 L 48.8 95.0 L 59.2 90.2 L 60.3 91.7 L 56.1 95.7 L 51.7 99.5 L 47.3 103.2 L 40.5 108.37391300201416 L 40.5 171.0 L 40.3 173.5 L 39.9 176.0 L 39.1 178.4 L 37.8 180.7 L 36.2 182.7 L 34.2 184.3 L 31.9 185.6 L 29.5 186.4 L 27.0 186.8 L 24.5 187.0 L 24.5 181.0 L 12.5 178.0 Z M 78.5 117.0 L 78.5 140.8 L 108.8 140.8 L 108.8 117.0 Z M 78.5 88.7 L 78.5 113.0 L 108.8 113.0 L 108.8 88.7 Z M 61.7 63.5 L 88.5 63.5 L 88.5 37.7 L 56.2 37.7 L 56.2 33.7 L 88.5 33.7 L 88.5 9.4 L 100.5 11.4 L 103.5 13.4 L 100.5 15.2 L 100.5 33.7 L 114.51818180084229 33.7 L 122.7 24.7 L 132.7 33.7 L 132.7 37.7 L 100.5 37.7 L 100.5 63.5 L 105.2 63.5 L 115.2 53.5 L 127.2 63.5 L 127.2 67.5 L 61.7 67.5 Z M 173.3 42.8 L 172.8 39.8 L 172.2 36.9 L 171.4 34.1 L 170.5 31.2 L 169.5 28.5 L 168.3 25.7 L 167.0 22.9 L 165.3 20.3 L 166.6 19.0 L 169.1 21.1 L 171.7 23.1 L 174.1 25.5 L 176.3 28.0 L 178.3 30.7 L 180.1 33.6 L 181.8 36.7 L 183.2 40.0 L 184.5 43.4 L 185.6 47.0 L 184.6 51.4 L 180.7 53.9 L 176.3 52.8 L 173.8 49.0 L 173.6 45.9 Z " />
</g>
</svg>
