<svg xmlns="http://www.w3.org/2000/svg" xmlns:xlink="http://www.w3.org/1999/xlink" version="1.1" baseProfile="full" viewBox="0 0 200 200" width="200" height="200">
<g fill="black">
<path d="M 90.8 34.8 L 126.2 34.8 L 126.2 11.9 L 138.2 13.9 L 141.2 15.9 L 138.2 17.7 L 138.2 34.8 L 165.7 34.8 L 175.7 24.8 L 187.7 34.8 L 187.7 38.8 L 90.8 38.8 L 90.8 65.8 L 111.2 65.8 L 111.2 43.5 L 123.2 45.5 L 126.2 47.5 L 123.2 49.3 L 123.2 65.8 L 151.5 65.8 L 151.5 43.5 L 163.5 45.5 L 166.5 47.5 L 163.5 49.3 L 163.5 65.8 L 168.3181818008423 65.8 L 176.5 56.8 L 186.5 65.8 L 186.5 69.8 L 163.5 69.8 L 163.5 104.5 L 151.5 110.5 L 151.5 100.5 L 123.2 100.5 L 123.2 107.5 L 111.2 113.5 L 111.2 69.8 L 90.8 69.8 L 90.8 101.4 L 90.3 113.0 L 89.5 124.0 L 88.3 134.4 L 86.7 144.1 L 84.7 153.2 L 82.4 161.7 L 79.6 169.5 L 76.4 176.6 L 72.8 183.0 L 68.6 188.5 L 67.1 187.5 L 69.4 181.3 L 71.5 174.6 L 73.4 167.5 L 75.0 159.9 L 76.4 151.6 L 77.5 142.8 L 78.3 133.4 L 78.7 123.3 L 78.9 112.7 L 78.8 101.4 L 78.8 28.8 Z M 18.4 175.0 L 32.4 175.0 L 33.6 174.9 L 34.5 174.7 L 35.4 174.4 L 35.8 174.0 L 36.1 173.1 L 36.3 172.2 L 36.4 171.0 L 36.4 116.0 L 34.5 117.1 L 28.7 120.4 L 22.8 123.7 L 20.530886554718016 124.93070564270019 L 20.0 128.7 L 16.9 126.9 L 9.9 117.0 L 11.7 116.1 L 17.8 113.5 L 23.9 110.8 L 29.9 108.2 L 36.0 105.5 L 36.4 105.31999998092651 L 36.4 57.0 L 12.7 57.0 L 12.7 53.0 L 36.4 53.0 L 36.4 14.0 L 48.4 16.0 L 51.4 18.0 L 48.4 19.8 L 48.4 53.0 L 50.7 53.0 L 60.7 43.0 L 72.7 53.0 L 72.7 57.0 L 48.4 57.0 L 48.4 100.01999998092651 L 54.0 97.5 L 60.0 94.9 L 66.1 92.5 L 72.3 90.2 L 73.2 91.7 L 68.0 95.8 L 62.6 99.6 L 57.1 103.3 L 51.6 106.9 L 48.4 108.86491231918335 L 48.4 171.0 L 48.2 173.5 L 47.8 176.0 L 47.0 178.4 L 45.7 180.7 L 44.1 182.7 L 42.1 184.3 L 39.8 185.6 L 37.4 186.4 L 34.9 186.8 L 32.4 187.0 L 32.4 181.0 L 18.4 178.0 Z M 150.6 164.6 L 160.6 164.6 L 161.9 164.5 L 162.8 164.4 L 163.4 164.2 L 163.7 164.0 L 164.0 163.7 L 164.2 163.3 L 164.4 162.7 L 164.6 161.8 L 164.6 127.8 L 143.2 127.8 L 143.2 182.2 L 131.2 188.2 L 131.2 127.8 L 110.9 127.8 L 110.9 173.2 L 98.9 179.2 L 98.9 117.8 L 110.9 123.8 L 131.2 123.8 L 131.2 105.8 L 143.2 107.8 L 146.2 109.8 L 143.2 111.6 L 143.2 123.8 L 164.6 123.8 L 170.6 118.8 L 181.6 127.8 L 176.6 131.8 L 176.6 160.6 L 176.5 163.2 L 176.0 165.6 L 175.2 168.1 L 174.0 170.3 L 172.4 172.3 L 170.4 174.0 L 168.1 175.2 L 165.7 176.0 L 163.2 176.5 L 160.6 176.6 L 160.6 170.6 L 150.6 167.6 Z M 123.2 69.8 L 123.2 96.5 L 151.5 96.5 L 151.5 69.8 Z " />
</g>
</svg>
