<svg xmlns="http://www.w3.org/2000/svg" xmlns:xlink="http://www.w3.org/1999/xlink" version="1.1" baseProfile="full" viewBox="0 0 200 200" width="200" height="200">
<g fill="black">
<path d="M 72.0 175.8 L 92.0 175.8 L 93.2 175.7 L 94.1 175.5 L 95.0 175.2 L 95.4 174.8 L 95.7 173.9 L 95.9 173.0 L 96.0 171.8 L 96.0 155.6 L 15.0 155.6 L 15.0 151.6 L 96.0 151.6 L 96.0 136.4 L 26.0 136.4 L 26.0 132.4 L 96.0 132.4 L 96.0 119.74750003814697 L 95.1 119.8 L 82.7 120.4 L 69.9 120.9 L 56.7 121.1 L 43.0 121.1 L 29.0 120.8 L 28.9 119.0 L 42.8 117.3 L 56.3 115.8 L 69.4 114.3 L 82.1 112.8 L 94.3 111.4 L 106.1 109.8 L 117.5 108.3 L 128.5 106.6 L 139.0 104.9 L 148.1157162666321 103.36567153930665 L 148.1 103.3 L 148.16838779449463 103.35680599212647 L 149.07556848526002 103.20411224365235 L 144.5 100.8 L 138.9 97.6 L 133.6 94.3 L 128.7 90.8 L 124.2 87.0 L 120.88292684555054 83.6 L 84.59487180709839 83.6 L 82.5 85.5 L 78.3 89.3 L 73.4 92.9 L 68.0 96.3 L 62.0 99.4 L 55.3 102.4 L 48.0 105.2 L 40.0 107.8 L 31.4 110.2 L 22.2 112.3 L 12.2 114.1 L 11.7 112.4 L 21.1 108.7 L 29.7 105.1 L 37.7 101.7 L 45.0 98.2 L 51.6 94.8 L 57.5 91.3 L 62.6 87.8 L 66.9 84.4 L 67.75714282989502 83.6 L 19.0 83.6 L 19.0 79.6 L 53.0 79.6 L 53.0 11.2 L 65.0 17.2 L 135.0 17.2 L 141.0 12.2 L 152.0 21.2 L 147.0 25.2 L 147.0 79.6 L 162.8181818008423 79.6 L 171.0 70.6 L 181.0 79.6 L 181.0 83.6 L 126.73636360168457 83.6 L 131.7 85.7 L 137.0 87.9 L 142.6 90.1 L 148.3 92.3 L 154.3 94.4 L 160.6 96.5 L 167.0 98.4 L 173.8 100.3 L 180.8 102.1 L 188.8 104.4 L 177.1 114.8 L 170.0 112.2 L 163.2 109.6 L 156.6 106.8 L 150.4 103.9 L 149.10281076431275 103.21842594146729 L 149.26256065368653 104.2656753540039 L 160.5 113.6 L 160.9 116.6 L 156.34991846084594 114.20522022247314 L 150.9 115.0 L 140.5 116.2 L 129.8 117.3 L 118.6 118.3 L 108.0 119.03739128112792 L 108.0 132.4 L 152.0 132.4 L 162.0 122.4 L 174.0 132.4 L 174.0 136.4 L 108.0 136.4 L 108.0 151.6 L 163.0 151.6 L 173.0 141.6 L 185.0 151.6 L 185.0 155.6 L 108.0 155.6 L 108.0 171.8 L 107.8 174.3 L 107.4 176.8 L 106.6 179.2 L 105.3 181.5 L 103.7 183.5 L 101.7 185.2 L 99.4 186.4 L 97.0 187.2 L 94.5 187.6 L 92.0 187.8 L 92.0 181.8 L 72.0 178.8 Z M 65.0 68.2 L 65.0 79.6 L 135.0 79.6 L 135.0 68.2 Z M 65.0 52.8 L 65.0 64.2 L 135.0 64.2 L 135.0 52.8 Z M 65.0 36.5 L 65.0 48.8 L 135.0 48.8 L 135.0 36.5 Z M 65.0 21.2 L 65.0 32.5 L 135.0 32.5 L 135.0 21.2 Z " />
</g>
</svg>
