<svg xmlns="http://www.w3.org/2000/svg" xmlns:xlink="http://www.w3.org/1999/xlink" version="1.1" baseProfile="full" viewBox="0 0 200 200" width="200" height="200">
<g fill="black">
<path d="M 20.1 175.0 L 34.1 175.0 L 35.3 174.9 L 36.2 174.7 L 37.1 174.4 L 37.5 174.0 L 37.8 173.1 L 38.0 172.2 L 38.1 171.0 L 38.1 116.05789470672607 L 36.3 117.1 L 24.7 123.7 L 22.43088655471802 124.93070564270019 L 21.9 128.7 L 18.8 126.9 L 11.8 117.0 L 13.6 116.1 L 19.6 113.5 L 25.7 110.8 L 31.7 108.2 L 38.1 105.31999998092651 L 38.1 57.0 L 14.6 57.0 L 14.6 53.0 L 38.1 53.0 L 38.1 14.0 L 50.1 16.0 L 53.1 18.0 L 50.1 19.8 L 50.1 53.0 L 52.2 53.0 L 62.2 43.0 L 74.2 53.0 L 74.2 57.0 L 50.1 57.0 L 50.1 99.975 L 55.6 97.5 L 61.6 94.9 L 67.6 92.5 L 73.7 90.2 L 74.6 91.7 L 69.5 95.8 L 64.2 99.6 L 58.7 103.3 L 53.2 106.9 L 50.1 108.78214282989502 L 50.1 171.0 L 49.9 173.5 L 49.5 176.0 L 48.7 178.4 L 47.4 180.7 L 45.8 182.7 L 43.8 184.3 L 41.5 185.6 L 39.1 186.4 L 36.6 186.8 L 34.1 187.0 L 34.1 181.0 L 20.1 178.0 Z M 93.7 44.0 L 121.4 44.0 L 121.4 12.0 L 133.4 14.0 L 136.4 16.0 L 133.4 17.8 L 133.4 26.0 L 154.01818180084229 26.0 L 162.2 17.0 L 172.2 26.0 L 172.2 30.0 L 133.4 30.0 L 133.4 44.0 L 173.4 44.0 L 173.8752474784851 43.60396041870117 L 173.9 43.5 L 173.9649582862854 43.529201412200926 L 179.4 39.0 L 190.4 48.0 L 185.4 51.0 L 181.90909090042115 52.45454549789429 L 180.6 54.2 L 179.2 56.1 L 176.0 60.1 L 174.3 62.1 L 172.5 64.1 L 170.6 66.1 L 169.1 68.4 L 167.5 67.5 L 168.5 65.0 L 169.1 62.3 L 169.7 59.7 L 170.4 57.2 L 171.6 52.4 L 172.74782609939575 48.0 L 93.7 48.0 L 93.7 111.0 L 93.2 121.2 L 92.5 130.9 L 91.3 140.0 L 89.9 148.4 L 88.1 156.3 L 86.0 163.5 L 83.5 170.1 L 80.6 176.0 L 77.3 181.1 L 73.5 185.5 L 72.0 184.4 L 73.9 179.4 L 75.7 173.9 L 77.3 168.0 L 78.6 161.6 L 79.8 154.6 L 80.7 147.1 L 81.4 138.9 L 81.7 130.2 L 81.9 120.9 L 81.7 111.0 L 81.7 38.0 Z M 86.4 179.0 L 99.1 179.0 L 99.1 113.5 L 110.1 119.0 L 160.9 119.0 L 166.4 114.0 L 176.9 123.0 L 171.9 126.5 L 171.9 179.0 L 174.7 179.0 L 179.2 173.0 L 185.2 179.0 L 185.2 183.0 L 86.4 183.0 Z M 110.1 123.0 L 110.1 179.0 L 120.4 179.0 L 120.4 123.0 Z M 130.4 123.0 L 130.4 179.0 L 140.6 179.0 L 140.6 123.0 Z M 150.6 123.0 L 150.6 179.0 L 160.9 179.0 L 160.9 123.0 Z M 132.2 102.4 L 129.8 102.0 L 127.4 101.2 L 125.2 100.1 L 123.2 98.5 L 121.5 96.6 L 120.3 94.4 L 119.4 92.0 L 118.9 89.5 L 118.8 87.0 L 118.8 78.02820510864258 L 96.4 80.9 L 95.9 77.0 L 118.8 74.0641025543213 L 118.8 51.0 L 130.8 53.0 L 133.8 55.0 L 130.8 56.8 L 130.8 72.52564105987548 L 144.2016574859619 70.80747985839844 L 152.9 59.6 L 166.1 68.0 L 166.6 71.9 L 130.8 76.48974361419678 L 130.8 88.2 L 130.9 89.1 L 131.0 89.7 L 131.2 90.1 L 131.3 90.4 L 131.5 90.6 L 131.9 90.9 L 132.5 91.1 L 133.5 91.3 L 134.8 91.5 L 171.3 91.5 L 176.8 70.5 L 178.8 70.5 L 176.8 91.5 L 180.1 93.7 L 182.3 97.0 L 180.1 100.3 L 176.8 102.5 L 134.8 102.5 Z " />
</g>
</svg>
