<svg xmlns="http://www.w3.org/2000/svg" xmlns:xlink="http://www.w3.org/1999/xlink" version="1.1" baseProfile="full" viewBox="0 0 200 200" width="200" height="200">
<g fill="black">
<path d="M 17.0 175.0 L 29.0 175.0 L 30.2 174.9 L 31.1 174.7 L 32.0 174.4 L 32.4 174.0 L 32.7 173.1 L 32.9 172.2 L 33.0 171.0 L 33.0 116.34444446563721 L 31.8 117.1 L 26.3 120.4 L 18.828077793121338 124.74730024337768 L 18.4 128.6 L 15.3 126.8 L 8.0 117.1 L 9.8 116.2 L 15.6 113.5 L 21.3 110.9 L 32.7 105.5 L 33.0 105.36315793991089 L 33.0 57.0 L 11.0 57.0 L 11.0 53.0 L 33.0 53.0 L 33.0 14.0 L 45.0 16.0 L 48.0 18.0 L 45.0 19.8 L 45.0 53.0 L 49.33636360168457 53.0 L 57.6 44.0 L 67.6 53.0 L 67.6 57.0 L 45.0 57.0 L 45.0 99.78947372436524 L 55.5 95.0 L 61.2 92.5 L 67.1 90.2 L 68.0 91.7 L 63.2 95.8 L 58.2 99.6 L 53.0 103.3 L 47.8 106.8 L 45.0 108.64905662536621 L 45.0 171.0 L 44.8 173.5 L 44.4 176.0 L 43.6 178.4 L 42.3 180.7 L 40.7 182.7 L 38.7 184.3 L 36.4 185.6 L 34.0 186.4 L 31.5 186.8 L 29.0 187.0 L 29.0 181.0 L 17.0 178.0 Z M 120.9 90.7 L 119.5 92.8 L 117.9 94.7 L 116.0 96.3 L 113.9 97.7 L 111.7 98.7 L 109.3 99.4 L 106.8 99.8 L 104.2 100.0 L 104.2 94.0 L 88.2 91.0 L 88.2 88.0 L 104.2 88.0 L 105.5 87.9 L 106.6 87.7 L 107.5 87.5 L 108.2 87.1 L 108.8 86.8 L 109.4 86.3 L 109.9 85.7 L 110.4 84.9 L 110.8 83.9 L 111.2 82.7 L 111.9 80.1 L 112.5 76.8 L 113.1 72.8 L 113.7 68.2 L 114.2 63.0 L 114.7 57.2 L 115.1 50.7 L 115.5 43.7 L 115.8 36.0 L 115.94634141921998 30.0 L 102.20487804412842 30.0 L 100.9 40.7 L 98.9 52.1 L 96.4 62.8 L 93.5 72.7 L 90.2 81.9 L 86.4 90.2 L 82.1 97.7 L 77.4 104.3 L 75.71796407699586 106.10898199081421 L 86.1 111.3 L 114.3 111.3 L 119.8 106.3 L 130.3 115.3 L 125.3 118.8 L 125.3 176.6 L 114.3 182.1 L 114.3 172.6 L 86.1 172.6 L 86.1 179.6 L 74.1 185.6 L 74.1 107.84905662536622 L 72.1 110.0 L 66.4 114.6 L 65.1 113.3 L 69.2 107.5 L 72.9 101.3 L 76.4 94.5 L 79.5 87.1 L 82.2 79.0 L 84.6 70.2 L 86.6 60.6 L 88.3 50.3 L 89.6 39.3 L 90.25840711593628 30.0 L 69.5 30.0 L 69.5 26.0 L 116.0 26.0 L 122.0 21.0 L 133.0 30.0 L 128.0 33.0 L 127.82235651016235 33.07401809692383 L 127.7 36.5 L 127.4 44.2 L 127.1 51.4 L 126.7 58.0 L 126.2 64.1 L 125.6 69.5 L 125.0 74.5 L 124.4 78.8 L 123.6 82.7 L 122.8 86.0 L 121.9 88.4 Z M 86.1 115.3 L 86.1 168.6 L 114.3 168.6 L 114.3 115.3 Z M 158.6 153.0 L 168.6 153.0 L 169.9 152.9 L 170.8 152.7 L 171.7 152.4 L 171.9 152.2 L 172.0 152.0 L 172.2 151.7 L 172.4 151.1 L 172.6 150.2 L 172.6 36.0 L 148.3 36.0 L 148.3 183.2 L 137.3 188.7 L 137.3 26.5 L 148.3 32.0 L 172.6 32.0 L 178.6 27.0 L 189.6 36.0 L 184.6 40.0 L 184.6 149.0 L 184.5 151.5 L 184.1 154.0 L 183.2 156.4 L 182.0 158.7 L 180.4 160.7 L 178.4 162.3 L 176.1 163.6 L 173.7 164.4 L 171.2 164.8 L 168.6 165.0 L 168.6 159.0 L 158.6 156.0 Z " />
</g>
</svg>
