<svg xmlns="http://www.w3.org/2000/svg" xmlns:xlink="http://www.w3.org/1999/xlink" version="1.1" baseProfile="full" viewBox="0 0 200 200" width="200" height="200">
<g fill="black">
<path d="M 17.9 175.0 L 29.9 175.0 L 31.1 174.9 L 32.0 174.7 L 32.9 174.4 L 33.3 174.0 L 33.6 173.1 L 33.8 172.2 L 33.9 171.0 L 33.9 116.17272729873658 L 32.4 117.1 L 26.8 120.4 L 21.2 123.6 L 19.08439712524414 124.82482271194458 L 18.6 128.7 L 15.5 126.9 L 8.3 117.0 L 10.1 116.1 L 21.9 110.9 L 27.7 108.2 L 33.6 105.5 L 33.9 105.36551723480224 L 33.9 57.0 L 11.3 57.0 L 11.3 53.0 L 33.9 53.0 L 33.9 14.0 L 45.9 16.0 L 48.9 18.0 L 45.9 19.8 L 45.9 53.0 L 50.918181800842284 53.0 L 59.1 44.0 L 69.1 53.0 L 69.1 57.0 L 65.075 57.0 L 67.1 57.9 L 70.0 59.1 L 72.7 60.4 L 75.4 62.0 L 78.0 63.8 L 80.5 65.7 L 82.9 67.9 L 85.2 70.2 L 87.5 72.6 L 89.6 75.3 L 90.3 79.8 L 87.6 83.5 L 83.1 84.2 L 79.4 81.5 L 78.2 78.9 L 76.9 76.3 L 75.6 73.8 L 74.1 71.4 L 72.6 69.1 L 71.0 66.8 L 69.3 64.6 L 67.5 62.3 L 65.7 60.1 L 63.5 58.2 L 64.21999998092652 57.0 L 45.9 57.0 L 45.9 99.88620691299438 L 56.8 95.0 L 62.7 92.5 L 68.7 90.2 L 69.6 91.7 L 64.6 95.8 L 59.5 99.6 L 54.2 103.3 L 45.9 108.67962961196899 L 45.9 171.0 L 45.7 173.5 L 45.3 176.0 L 44.5 178.4 L 43.2 180.7 L 41.6 182.7 L 39.6 184.3 L 37.3 185.6 L 34.9 186.4 L 32.4 186.8 L 29.9 187.0 L 29.9 181.0 L 17.9 178.0 Z M 143.0 183.7 L 130.0 182.6 L 119.2 180.7 L 110.4 178.0 L 103.3 174.4 L 97.8 170.0 L 93.6 165.0 L 90.6 159.4 L 89.6307692527771 156.58461542129515 L 89.28000001907348 156.76000003814698 L 88.5 157.8 L 86.3 161.0 L 84.0 164.1 L 81.7 167.1 L 79.4 169.9 L 77.0 172.7 L 74.7 175.4 L 72.3 178.0 L 70.72370691299439 179.7133620262146 L 71.2 184.0 L 67.7 182.9 L 58.5 175.0 L 60.0 173.7 L 62.7 171.9 L 65.5 170.1 L 68.3 168.2 L 71.1 166.2 L 74.0 164.2 L 77.0 162.1 L 80.0 159.9 L 80.8 159.375 L 80.8 109.0 L 61.7 109.0 L 61.7 105.0 L 80.8 105.0 L 86.8 100.0 L 97.8 109.0 L 92.8 113.0 L 92.8 155.0 L 92.46423358917237 155.16788320541383 L 94.2 157.2 L 98.1 161.2 L 102.4 164.4 L 107.3 167.1 L 113.4 169.1 L 121.2 170.7 L 131.0 171.6 L 143.2 171.9 L 158.2 171.5 L 176.2 170.4 L 187.3 169.7 L 177.0 183.5 L 158.5 184.0 Z M 146.3 143.7 L 155.3 143.7 L 156.0 143.6 L 156.6 143.3 L 156.7 143.1 L 156.9 142.9 L 157.1 142.4 L 157.4 141.7 L 157.5 140.6 L 157.6 139.2 L 157.6 105.1 L 144.1 105.1 L 144.1 163.3 L 134.1 168.3 L 134.1 105.1 L 120.6 105.1 L 120.6 149.1 L 109.6 154.6 L 109.6 95.6 L 120.6 101.1 L 134.1 101.1 L 134.1 82.1 L 144.1 84.1 L 146.6 86.1 L 144.1 87.76666669845581 L 144.1 101.1 L 157.6 101.1 L 163.1 96.1 L 165.80397109985353 98.41768951416016 L 166.1 97.5 L 166.7 94.4 L 167.2 91.5 L 167.8 88.7 L 168.3 86.0 L 168.7 83.5 L 169.1 81.2 L 169.4 79.0 L 169.40952377319337 78.9 L 108.40444440841675 78.9 L 108.6 81.1 L 108.8 85.2 L 108.8 89.0 L 108.6 92.5 L 108.2 95.7 L 107.6 98.7 L 106.7 101.5 L 105.3 104.1 L 101.2 106.1 L 96.9 104.7 L 94.8 100.7 L 96.2 96.3 L 97.0 95.8 L 98.0 94.7 L 99.1 92.9 L 100.1 90.6 L 101.1 87.8 L 102.1 84.5 L 102.9 80.7 L 103.8 76.4 L 104.6 71.7 L 105.1 66.6 L 106.9 66.6 L 107.5 71.8 L 107.95208330154419 74.9 L 145.9 74.9 L 146.3 73.1 L 146.8 69.5 L 147.5 66.0 L 148.1 62.6 L 148.7 59.3 L 149.3 56.1 L 149.8 52.9 L 150.4 49.9 L 150.8 47.0 L 151.12326364517213 45.125070571899414 L 151.0 45.1 L 151.29019603729247 44.15686273574829 L 151.3 44.1 L 151.3070508956909 44.10208463668823 L 151.8 42.5 L 162.8 47.5 L 165.1 50.2 L 161.10291328430176 51.27064819335938 L 160.3 53.0 L 157.5 58.8 L 156.0 61.8 L 154.4 64.8 L 152.7 67.9 L 150.9 71.0 L 148.9 74.1 L 148.46363639831543 74.9 L 169.5 74.9 L 175.5 69.9 L 186.5 78.9 L 181.5 81.9 L 178.725 83.05625 L 177.9 84.5 L 176.6 86.6 L 175.2 88.8 L 173.7 91.1 L 170.3 95.9 L 168.4 98.5 L 167.5780821800232 99.93835620880127 L 173.6 105.1 L 168.6 108.6 L 168.6 139.2 L 168.5 141.7 L 168.1 144.0 L 167.4 146.3 L 166.4 148.4 L 165.0 150.4 L 163.3 152.0 L 161.2 153.3 L 159.0 154.1 L 156.7 154.6 L 154.3 154.7 L 154.3 149.2 L 146.3 146.5 Z M 120.8 64.2 L 120.6 61.5 L 120.3 59.0 L 119.9 56.5 L 119.6 54.1 L 119.1 51.8 L 118.3 47.2 L 117.4 45.3 L 118.8 44.3 L 120.3 46.0 L 122.1 47.6 L 123.8 49.5 L 125.4 51.6 L 126.9 53.9 L 128.3 56.3 L 129.6 59.0 L 130.8 61.8 L 131.9 64.7 L 133.0 67.8 L 131.9 72.2 L 128.1 74.8 L 123.7 73.7 L 121.1 69.9 L 121.0 67.0 Z M 82.5 38.5 L 81.2 36.1 L 79.8 33.7 L 78.3 31.3 L 76.7 29.0 L 75.0 26.7 L 73.2 24.3 L 71.1 22.3 L 72.1 20.8 L 74.8 22.2 L 77.6 23.5 L 80.4 25.0 L 83.0 26.8 L 85.5 28.7 L 87.8 30.7 L 90.1 33.0 L 92.3 35.3 L 94.3 37.8 L 96.3 40.5 L 96.6 45.1 L 93.7 48.6 L 89.2 49.0 L 85.6 46.1 L 84.7 43.5 Z M 103.1 38.5 L 133.1 38.5 L 133.1 14.3 L 145.1 16.3 L 148.1 18.3 L 145.1 20.1 L 145.1 38.5 L 153.1 38.5 L 163.1 28.5 L 175.1 38.5 L 175.1 42.5 L 103.1 42.5 Z " />
</g>
</svg>
