<svg xmlns="http://www.w3.org/2000/svg" xmlns:xlink="http://www.w3.org/1999/xlink" version="1.1" baseProfile="full" viewBox="0 0 200 200" width="200" height="200">
<g fill="black">
<path d="M 19.7 176.6 L 33.8 176.6 L 35.0 176.5 L 35.9 176.3 L 36.5 176.2 L 36.8 176.0 L 37.2 175.6 L 37.5 174.7 L 37.7 173.8 L 37.8 172.6 L 37.8 116.26785717010497 L 36.1 117.3 L 30.4 120.7 L 22.379582405090332 125.26334104537963 L 21.9 129.1 L 18.8 127.3 L 11.6 117.5 L 13.4 116.6 L 31.4 108.5 L 37.4 105.7 L 37.8 105.51694917678833 L 37.8 56.1 L 14.5 56.1 L 14.5 52.1 L 37.8 52.1 L 37.8 12.3 L 49.8 14.3 L 52.8 16.3 L 49.8 18.1 L 49.8 52.1 L 55.518181800842285 52.1 L 63.7 43.1 L 73.7 52.1 L 73.7 56.1 L 49.8 56.1 L 49.8 100.03000001907348 L 55.2 97.6 L 61.1 94.9 L 67.1 92.4 L 73.2 90.0 L 74.1 91.5 L 69.0 95.7 L 63.8 99.6 L 58.4 103.3 L 49.8 108.92909088134766 L 49.8 172.6 L 49.6 175.1 L 49.2 177.6 L 48.4 180.0 L 47.1 182.3 L 45.5 184.3 L 43.5 186.0 L 41.2 187.2 L 38.8 188.0 L 36.3 188.4 L 33.8 188.6 L 33.8 182.6 L 19.7 179.6 Z M 73.1 171.2 L 78.1 170.8 L 82.8 170.3648148536682 L 82.8 122.2 L 93.8 124.2 L 96.5 126.2 L 93.8 127.92340421676636 L 93.8 169.26333332061768 L 95.2 169.1 L 101.5 168.4 L 104.0 168.0969696998596 L 104.0 102.1 L 115.0 104.1 L 117.8 106.1 L 115.0 107.85 L 115.0 132.7 L 120.9777777671814 132.7 L 127.2 125.7 L 135.2 132.7 L 135.2 136.7 L 115.0 136.7 L 115.0 166.81142854690552 L 115.1 166.8 L 122.3 165.9 L 129.9 165.1 L 137.9 164.4 L 138.3 166.2 L 130.7 168.8 L 123.4 171.2 L 116.3 173.2 L 109.5 175.1 L 103.0 176.8 L 96.8 178.3 L 90.8 179.7 L 85.2 180.9 L 79.8 182.1 L 78.71699495315552 182.31235389709474 L 77.0 185.8 L 74.7 183.1 L 71.1 171.5 Z M 182.3 145.0 L 184.3 145.0 L 182.3 170.0 L 185.9 172.4 L 188.3 176.0 L 185.9 179.6 L 182.3 182.0 L 155.0 182.0 L 152.4 181.9 L 149.9 181.4 L 147.5 180.6 L 145.3 179.4 L 143.2 177.7 L 141.6 175.7 L 140.4 173.5 L 139.6 171.0 L 139.1 168.6 L 139.0 166.0 L 139.0 104.2 L 151.0 106.2 L 154.0 108.2 L 151.0 110.0 L 151.0 134.96774196624756 L 151.1 134.9 L 154.2 132.9 L 157.2 130.8 L 160.3 128.7 L 163.3 126.5 L 166.2 124.3 L 169.1 122.0 L 172.0 119.5 L 174.05628843307494 117.66402816772461 L 174.0 117.6 L 174.8 117.0 L 182.0 126.7 L 182.2 130.3 L 178.51743116378785 128.7314984321594 L 178.4 128.8 L 174.9 130.7 L 171.3 132.5 L 167.7 134.2 L 164.0 135.7 L 160.3 137.0 L 156.6 138.2 L 152.8 139.1 L 151.0 139.43157892227174 L 151.0 167.2 L 151.2 168.1 L 151.4 168.7 L 151.6 169.1 L 151.9 169.4 L 152.2 169.6 L 152.8 169.8 L 153.7 169.9 L 155.0 170.0 L 176.3 170.0 Z M 166.0 91.5 L 161.3 87.5 L 157.1 83.1 L 153.4 78.3 L 150.4 73.0 L 148.0 67.5 L 146.5 61.6 L 146.318025970459 60.0142261505127 L 144.4 65.2 L 140.7 71.9 L 136.0 77.9 L 130.5 83.3 L 124.2 87.9 L 117.0 91.9 L 109.0 95.0 L 100.1 97.4 L 99.6 95.7 L 107.4 91.6 L 114.3 87.2 L 120.3 82.6 L 125.3 77.8 L 129.4 72.6 L 132.7 67.2 L 135.1 61.4 L 136.7 55.3 L 137.6 48.7 L 137.7 41.7 L 137.7 37.3 L 149.7 39.3 L 152.7 41.3 L 149.55858583450316 43.1848484992981 L 148.9 50.1 L 148.65638055801392 51.15568447113037 L 149.9 54.7 L 152.1 59.8 L 154.6 64.4 L 157.5 68.7 L 160.8 72.5 L 164.4 76.0 L 168.3 79.0 L 172.6 81.8 L 177.2 84.1 L 182.1 86.1 L 188.2 88.8 L 176.8 98.2 L 171.2 95.1 Z M 73.8 71.5 L 78.7 69.8 L 83.5 68.0 L 88.4 66.1 L 93.4 64.1 L 98.3 62.0 L 103.3 59.8 L 113.5 55.2 L 118.8 53.0 L 124.2 50.7 L 125.2 52.3 L 120.8 56.2 L 116.3 59.8 L 111.7 63.2 L 107.0 66.4 L 102.3 69.5 L 97.6 72.4 L 88.0 77.8 L 83.2 80.3 L 82.17031755447388 80.7933895111084 L 81.4 84.7 L 78.4 82.6 L 72.0 72.3 Z M 141.1 15.3 L 143.5 18.0 L 139.59240503311156 19.11645565032959 L 137.8 23.0 L 135.7 26.8 L 133.33157892227172 30.4 L 170.2 30.4 L 176.2 25.4 L 187.2 34.4 L 182.2 37.4 L 176.77831325531005 39.65903615951538 L 176.0 40.3 L 174.0 41.7 L 171.8 43.3 L 169.3 44.9 L 166.6 46.7 L 163.5 48.4 L 160.5 50.7 L 159.3 49.4 L 161.9 46.7 L 163.9 43.8 L 165.7 41.3 L 167.3 38.9 L 168.6 36.8 L 169.6 34.9 L 169.80588235855103 34.4 L 130.41842107772828 34.4 L 127.4 38.1 L 124.1 41.8 L 120.4 45.5 L 116.3 49.1 L 111.9 52.6 L 110.6 51.4 L 113.7 46.8 L 116.5 42.3 L 119.1 38.0 L 121.4 33.9 L 123.5 29.9 L 125.3 26.1 L 126.8 22.4 L 128.0 18.9 L 128.9 15.5 L 129.31761198043824 13.203134346008301 L 129.3 13.2 L 129.36086959838866 12.965217399597169 L 129.5 12.2 L 129.55541954040527 12.214810371398926 L 130.0 10.5 Z M 94.9 36.3 L 93.8 34.9 L 92.4 33.5 L 90.8 32.0 L 88.8 30.5 L 86.7 29.0 L 84.2 27.4 L 81.6 25.8 L 78.6 24.7 L 79.0 22.9 L 82.3 23.5 L 85.5 23.8 L 88.5 24.2 L 91.4 24.7 L 94.1 25.4 L 96.6 26.2 L 99.1 27.2 L 101.4 28.3 L 103.5 29.6 L 105.5 31.1 L 106.9 35.5 L 104.8 39.6 L 100.5 40.9 L 96.4 38.9 L 95.8 37.6 Z " />
</g>
</svg>
