<svg xmlns="http://www.w3.org/2000/svg" xmlns:xlink="http://www.w3.org/1999/xlink" version="1.1" baseProfile="full" viewBox="0 0 200 200" width="200" height="200">
<g fill="black">
<path d="M 16.0 177.0 L 94.0 177.0 L 94.0 146.8 L 39.0 146.8 L 39.0 142.8 L 94.0 142.8 L 94.0 112.6 L 29.0 112.6 L 29.0 108.6 L 149.0 108.6 L 159.0 98.6 L 171.0 108.6 L 171.0 112.6 L 106.0 112.6 L 106.0 142.8 L 139.0 142.8 L 149.0 132.8 L 161.0 142.8 L 161.0 146.8 L 106.0 146.8 L 106.0 177.0 L 162.0 177.0 L 172.0 167.0 L 184.0 177.0 L 184.0 181.0 L 16.0 181.0 Z M 92.0 92.4 L 112.0 92.4 L 113.2 92.3 L 114.1 92.1 L 115.0 91.8 L 115.4 91.4 L 115.7 90.5 L 115.9 89.6 L 116.0 88.4 L 116.0 45.413333320617674 L 109.8 51.2 L 101.7 57.9 L 93.1 64.1 L 83.9 69.9 L 74.3 75.3 L 64.1 80.2 L 53.5 84.7 L 42.2 88.7 L 30.5 92.1 L 18.2 95.0 L 17.7 93.2 L 29.3 88.5 L 40.3 83.7 L 50.8 78.7 L 60.7 73.4 L 70.1 67.9 L 78.9 62.1 L 87.2 56.0 L 94.9 49.6 L 102.0 42.9 L 102.74285717010498 42.1 L 20.0 42.1 L 20.0 38.1 L 116.0 38.1 L 116.0 13.1 L 128.0 15.1 L 131.0 17.1 L 128.0 18.9 L 128.0 38.1 L 160.0 38.1 L 170.0 28.1 L 182.0 38.1 L 182.0 42.1 L 128.0 42.1 L 128.0 88.4 L 127.8 90.9 L 127.4 93.4 L 126.6 95.8 L 125.3 98.1 L 123.7 100.1 L 121.7 101.7 L 119.4 103.0 L 117.0 103.8 L 114.5 104.2 L 112.0 104.4 L 112.0 98.4 L 92.0 95.4 Z " />
</g>
</svg>
