<svg xmlns="http://www.w3.org/2000/svg" xmlns:xlink="http://www.w3.org/1999/xlink" version="1.1" baseProfile="full" viewBox="0 0 200 200" width="200" height="200">
<g fill="black">
<path d="M 165.9 167.6 L 160.8 163.0 L 156.0 158.1 L 151.4 152.9 L 147.1 147.3 L 143.0 141.4 L 139.1 135.1 L 136.0 128.99117650985718 L 136.0 183.0 L 124.0 189.0 L 124.0 133.47142858505248 L 121.2 137.7 L 115.9 144.7 L 110.0 151.2 L 103.6 157.2 L 96.8 162.8 L 89.4 167.9 L 81.6 172.5 L 73.2 176.4 L 64.3 179.8 L 63.6 178.1 L 71.4 173.1 L 78.7 167.9 L 85.6 162.6 L 91.9 157.0 L 97.8 151.2 L 103.1 145.0 L 107.9 138.6 L 112.3 131.9 L 116.1 124.8 L 117.38333330154418 122.0 L 74.0 122.0 L 74.0 118.0 L 124.0 118.0 L 124.0 93.0 L 136.0 95.0 L 139.0 97.0 L 136.0 98.8 L 136.0 118.0 L 164.0 118.0 L 174.0 108.0 L 186.0 118.0 L 186.0 122.0 L 136.0 122.0 L 136.0 122.45200004577637 L 139.2 126.1 L 144.0 131.7 L 148.7 136.9 L 153.4 141.9 L 158.2 146.5 L 163.1 150.7 L 168.0 154.6 L 173.0 158.2 L 178.1 161.4 L 183.3 164.3 L 187.7 166.9 L 176.6 175.6 L 171.1 171.8 Z M 22.9 176.0 L 36.9 176.0 L 38.1 175.9 L 39.0 175.7 L 39.9 175.4 L 40.3 175.0 L 40.6 174.1 L 40.8 173.2 L 40.9 172.0 L 40.9 116.83999996185302 L 38.5 118.2 L 32.5 121.5 L 26.4 124.7 L 23.87883062362671 126.06391124725342 L 23.3 129.8 L 20.3 128.0 L 13.4 117.9 L 15.2 117.1 L 21.5 114.5 L 34.1 109.1 L 40.4 106.5 L 40.9 106.28225803375244 L 40.9 58.0 L 16.1 58.0 L 16.1 54.0 L 40.9 54.0 L 40.9 15.0 L 52.9 17.0 L 55.9 19.0 L 52.9 20.8 L 52.9 54.0 L 56.3 54.0 L 66.3 44.0 L 78.3 54.0 L 78.3 58.0 L 52.9 58.0 L 52.9 101.05806455612182 L 59.0 98.5 L 65.3 95.9 L 71.5 93.5 L 77.9 91.2 L 78.7 92.7 L 73.3 96.8 L 67.8 100.7 L 62.1 104.3 L 56.3 107.9 L 52.9 109.91694917678834 L 52.9 172.0 L 52.7 174.5 L 52.3 177.0 L 51.5 179.4 L 50.2 181.7 L 48.6 183.7 L 46.6 185.3 L 44.3 186.6 L 41.9 187.4 L 39.4 187.8 L 36.9 188.0 L 36.9 182.0 L 22.9 179.0 Z M 106.0 55.0 L 109.0 57.0 L 106.0 58.8 L 106.0 78.0 L 109.81818180084228 78.0 L 118.0 69.0 L 128.0 78.0 L 128.0 82.0 L 106.0 82.0 L 106.0 106.0 L 94.0 112.0 L 94.0 82.0 L 72.0 82.0 L 72.0 78.0 L 94.0 78.0 L 94.0 53.0 Z M 166.0 54.0 L 169.0 56.0 L 166.0 57.8 L 166.0 78.0 L 169.8181818008423 78.0 L 178.0 69.0 L 188.0 78.0 L 188.0 82.0 L 166.0 82.0 L 166.0 105.0 L 154.0 111.0 L 154.0 82.0 L 133.0 82.0 L 133.0 78.0 L 154.0 78.0 L 154.0 52.0 Z M 136.0 15.0 L 139.0 17.0 L 136.0 18.8 L 136.0 36.0 L 160.0 36.0 L 170.0 26.0 L 182.0 36.0 L 182.0 40.0 L 136.0 40.0 L 136.0 61.0 L 124.0 67.0 L 124.0 40.0 L 78.0 40.0 L 78.0 36.0 L 124.0 36.0 L 124.0 13.0 Z " />
</g>
</svg>
