<svg xmlns="http://www.w3.org/2000/svg" xmlns:xlink="http://www.w3.org/1999/xlink" version="1.1" baseProfile="full" viewBox="0 0 200 200" width="200" height="200">
<g fill="black">
<path d="M 159.2 185.4 L 157.1 185.9 L 154.9 186.4 L 152.8 186.8 L 150.6 187.1 L 148.4 187.3 L 144.0 187.5 L 144.0 181.5 L 124.0 178.5 L 124.0 175.5 L 144.0 175.5 L 145.7 175.4 L 147.5 175.3 L 149.2 175.2 L 154.3 174.3 L 156.0 173.8 L 157.6 173.3 L 159.3 172.8 L 160.9 172.1 L 162.6 171.3 L 164.2 170.1 L 165.6 168.5 L 167.0 166.5 L 168.3 164.0 L 169.4 161.0 L 170.4 157.5 L 171.1 153.4 L 171.6 148.8 L 171.8196078300476 146.0 L 133.53271026611327 146.0 L 132.4 148.4 L 119.0 148.4 L 129.2 128.0 L 87.63793106079102 128.0 L 86.7 134.8 L 83.8 143.0 L 79.6 150.6 L 73.9 157.5 L 66.9 163.7 L 58.7 169.3 L 49.2 174.2 L 38.5 178.6 L 26.5 182.3 L 13.2 185.3 L 12.7 183.6 L 25.3 178.7 L 36.4 173.6 L 46.2 168.4 L 54.5 162.9 L 61.5 157.2 L 67.0 151.3 L 71.1 145.2 L 73.9 139.0 L 75.5 132.5 L 75.77692308425904 128.0 L 27.0 128.0 L 27.0 124.0 L 131.0 124.0 L 137.0 119.0 L 148.0 128.0 L 143.0 131.0 L 140.02762966156007 132.23848762512208 L 135.42056074142457 142.0 L 172.0 142.0 L 178.0 137.0 L 189.0 146.0 L 184.0 149.0 L 183.63946189880372 149.1502242088318 L 183.6 149.9 L 183.0 155.2 L 182.1 160.1 L 180.8 164.7 L 179.3 168.8 L 177.3 172.6 L 175.0 176.0 L 172.2 179.0 L 169.0 181.4 L 165.5 183.2 L 163.4 184.0 Z M 20.9 103.8 L 36.1 103.8 L 37.0 103.6 L 37.6 103.4 L 37.9 103.2 L 38.1 103.1 L 38.3 102.9 L 38.6 102.0 L 38.8 101.1 L 38.9 99.8 L 38.9 73.58000001907348 L 35.7 74.7 L 29.6 76.8 L 21.34978303909302 79.50498914718628 L 20.1 83.2 L 17.4 80.8 L 12.3 69.8 L 14.2 69.3 L 20.5 67.9 L 26.7 66.5 L 33.0 65.0 L 38.9 63.66774196624756 L 38.9 38.1 L 14.1 38.1 L 14.1 34.1 L 38.9 34.1 L 38.9 11.7 L 50.9 13.7 L 53.9 15.7 L 50.9 17.5 L 50.9 34.1 L 54.3 34.1 L 64.3 24.1 L 76.3 34.1 L 76.3 38.1 L 50.9 38.1 L 50.9 61.035483837127686 L 51.5 60.9 L 63.7 58.3 L 69.9 57.2 L 76.0 56.3 L 76.6 58.0 L 71.0 60.9 L 65.3 63.5 L 59.5 65.9 L 53.6 68.2 L 50.9 69.20677967071533 L 50.9 99.8 L 50.7 102.4 L 50.3 104.9 L 49.5 107.3 L 48.2 109.6 L 46.6 111.6 L 44.6 113.2 L 42.3 114.4 L 39.9 115.3 L 37.4 115.7 L 34.9 115.8 L 34.9 109.8 L 20.9 106.8 Z M 98.7 109.6 L 86.7 115.6 L 86.7 43.2039999961853 L 86.3 43.5 L 80.9 47.0 L 75.3 50.2 L 69.4 53.1 L 63.2 55.6 L 62.4 54.1 L 67.4 49.9 L 72.3 45.8 L 77.0 41.7 L 81.5 37.6 L 85.7 33.4 L 86.7 32.35 L 86.7 29.9 L 88.28064517974853 30.690322589874267 L 89.7 29.2 L 93.5 24.9 L 97.0 20.4 L 100.3 15.9 L 102.75660715103149 12.133202266693115 L 102.7 12.1 L 103.8 10.6 L 113.1 18.2 L 114.4 21.5 L 110.64148712158203 21.240792179107665 L 109.3 22.9 L 105.1 27.4 L 100.8 31.7 L 97.08461542129517 35.09230766296387 L 98.7 35.9 L 130.06551723480226 35.9 L 131.5 34.3 L 133.8 31.3 L 136.1 28.5 L 138.2 25.8 L 140.2 23.2 L 142.2 20.8 L 144.0 18.5 L 145.7 16.3 L 147.2 14.2 L 148.10751247406006 12.98998327255249 L 148.0 12.9 L 149.0 11.9 L 157.2 20.6 L 158.0 24.1 L 153.7763934135437 23.062622928619383 L 152.9 23.7 L 150.6 25.4 L 148.1 27.1 L 142.7 30.7 L 139.7 32.6 L 136.6 34.5 L 134.16842107772828 35.9 L 161.6 35.9 L 171.6 25.9 L 183.6 35.9 L 183.6 39.9 L 141.3 39.9 L 141.3 56.9 L 163.11818180084228 56.9 L 171.3 47.9 L 181.3 56.9 L 181.3 60.9 L 141.3 60.9 L 141.3 78.6 L 163.11818180084228 78.6 L 171.3 69.6 L 181.3 78.6 L 181.3 82.6 L 141.3 82.6 L 141.3 102.6 L 170.01818180084229 102.6 L 178.2 93.6 L 188.2 102.6 L 188.2 106.6 L 98.7 106.6 Z M 98.7 82.6 L 98.7 102.6 L 129.3 102.6 L 129.3 82.6 Z M 98.7 60.9 L 98.7 78.6 L 129.3 78.6 L 129.3 60.9 Z M 98.7 39.9 L 98.7 56.9 L 129.3 56.9 L 129.3 39.9 Z " />
</g>
</svg>
