<svg xmlns="http://www.w3.org/2000/svg" xmlns:xlink="http://www.w3.org/1999/xlink" version="1.1" baseProfile="full" viewBox="0 0 200 200" width="200" height="200">
<g fill="black">
<path d="M 159.4 169.3 L 151.0 160.6 L 143.6 150.9 L 142.29438171386718 148.73756980895996 L 136.4 156.8 L 126.5 167.3 L 115.6 176.1 L 103.5 183.3 L 90.5 188.8 L 89.7 187.1 L 94.77976598739625 184.06921529769897 L 91.1 182.7 L 90.3 181.5 L 89.1 180.2 L 87.5 178.7 L 85.5 177.1 L 83.2 175.4 L 80.5 173.7 L 77.4 171.8 L 74.1 169.9 L 70.4 167.8 L 66.3 166.0 L 66.9 164.3 L 71.3 165.2 L 75.5 165.9 L 79.4 166.7 L 83.1 167.5 L 86.4 168.5 L 89.5 169.4 L 92.3 170.4 L 94.8 171.5 L 97.2 172.7 L 99.4 174.0 L 101.2 178.2 L 100.224968624115 180.820396900177 L 101.6 180.0 L 112.3 171.9 L 121.9 162.6 L 130.4 152.2 L 137.5548134803772 140.88765983581544 L 137.2 140.3 L 131.8 128.8 L 127.4 116.4 L 124.0 103.2 L 121.7 89.1 L 121.08539686203002 80.71904764175414 L 117.4 86.6 L 112.4 93.8 L 106.9 100.5 L 105.4 99.4 L 109.1 91.8 L 112.7 84.1 L 116.2 76.1 L 119.4 68.0 L 122.4 59.6 L 125.2 51.0 L 127.8 42.1 L 130.1 32.9 L 132.1 23.5 L 133.73228483200074 14.703798198699952 L 133.7 14.7 L 134.2 11.9 L 145.6 16.1 L 148.2 18.6 L 144.69402389526368 19.87490043640137 L 143.2 26.1 L 140.4 35.7 L 137.4 45.1 L 134.0 54.1 L 131.06551723480226 61.0 L 167.0 61.0 L 177.0 51.0 L 189.0 61.0 L 189.0 65.0 L 171.07894735336305 65.0 L 168.3 82.6 L 164.3 100.3 L 159.0 116.6 L 152.6 131.5 L 148.11162347793578 139.51923274993896 L 151.9 144.8 L 159.2 153.1 L 167.2 160.4 L 175.9 166.7 L 185.4 172.2 L 190.3 174.8 L 179.1 183.7 L 168.8 177.0 Z M 57.1 171.4 L 57.8 174.9 L 53.69090909957886 173.87272729873658 L 50.8 175.8 L 47.2 177.8 L 43.4 179.7 L 39.2 181.5 L 34.7 183.2 L 29.9 184.8 L 24.7 186.2 L 19.2 187.4 L 13.4 188.6 L 12.8 186.9 L 18.0 184.2 L 22.9 181.6 L 27.4 179.0 L 31.6 176.6 L 35.4 174.2 L 38.8 171.9 L 41.9 169.5 L 44.5 167.2 L 46.8 165.0 L 48.05455322265625 163.5473593711853 L 48.0 163.5 L 48.9 162.6 Z M 37.7 99.9 L 84.8 99.9 L 90.8 94.9 L 101.8 103.9 L 96.8 107.9 L 96.8 159.6 L 84.8 165.6 L 84.8 159.6 L 37.7 159.6 L 37.7 162.6 L 25.7 168.6 L 25.7 93.9 Z M 37.7 140.3 L 37.7 155.6 L 84.8 155.6 L 84.8 140.3 Z M 37.7 121.6 L 37.7 136.3 L 84.8 136.3 L 84.8 121.6 Z M 129.26626510620116 65.0 L 126.4 71.1 L 123.17415971755982 77.10156335830689 L 125.8 88.3 L 129.7 101.7 L 134.2 114.0 L 139.4 125.3 L 142.5836654663086 130.85792436599732 L 144.2 127.6 L 149.5 113.3 L 153.9 97.7 L 157.1 80.7 L 158.97717390060424 65.0 Z M 37.7 103.9 L 37.7 117.6 L 84.8 117.6 L 84.8 103.9 Z M 91.0 80.8 L 90.35882349014283 80.20814476013183 L 84.8 83.8 L 77.8 87.5 L 70.2 90.5 L 62.0 93.0 L 53.1 94.7 L 43.8 95.8 L 43.4 94.1 L 52.2 91.1 L 60.2 87.9 L 67.6 84.5 L 74.2 80.7 L 80.2 76.7 L 83.3560954093933 74.09015188217163 L 77.6 69.4 L 75.0 67.2 L 72.2 65.2 L 72.9 63.6 L 79.7 65.4 L 83.1 66.6 L 86.5 67.9 L 88.80665473937988 68.91764183044434 L 89.9 67.8 L 93.8 62.8 L 97.0 57.5 L 97.48214282989503 56.5 L 65.4 56.5 L 60.4 59.5 L 58.35675678253174 60.35135135650635 L 57.1 63.2 L 53.7 69.4 L 50.994954872131345 73.28416738510131 L 52.4 74.1 L 55.4 76.0 L 58.2 78.1 L 60.0 82.2 L 58.4 86.5 L 54.3 88.4 L 50.0 86.8 L 48.0 84.6 L 45.9 82.3 L 44.4219970703125 80.88625802993775 L 40.8 84.2 L 35.7 87.8 L 30.3 90.6 L 24.5 92.7 L 18.4 94.0 L 12.1 94.5 L 11.7 92.7 L 17.3 90.4 L 22.4 87.8 L 27.1 84.9 L 31.3 81.6 L 35.1 77.9 L 37.63441953659058 74.84378814697266 L 35.6 73.1 L 32.5 70.8 L 29.3 68.3 L 26.0 65.8 L 22.4 63.4 L 23.1 61.8 L 27.3 63.1 L 31.4 64.3 L 35.4 65.7 L 39.1 67.2 L 41.956042003631595 68.46935205459594 L 44.3 64.2 L 46.7 58.6 L 47.42295083999634 56.5 L 18.2 56.5 L 18.2 52.5 L 48.4 52.5 L 53.70943393707275 48.07547168731689 L 49.8 46.4 L 48.5 44.6 L 47.0 42.7 L 45.2 40.8 L 44.762817764282225 40.38467683792114 L 40.9 42.9 L 36.2 45.6 L 31.1 47.9 L 25.5 49.9 L 19.5 51.6 L 18.8 50.0 L 23.9 46.7 L 28.6 43.4 L 32.8 40.2 L 36.5 37.0 L 38.455555534362794 35.044444465637206 L 38.4 35.0 L 35.7 33.0 L 32.7 30.9 L 29.6 28.8 L 26.1 27.0 L 26.7 25.3 L 30.6 26.3 L 34.5 27.0 L 38.1 28.0 L 41.5 29.1 L 43.068243217468265 29.670270252227784 L 44.7 27.4 L 46.5 24.2 L 47.464516162872314 21.9 L 18.2 21.9 L 18.2 17.9 L 48.4 17.9 L 54.4 12.9 L 64.4 21.081818199157716 L 64.4 17.9 L 98.2 17.9 L 98.61886796951293 17.55094337463379 L 99.2 16.6 L 99.5159776687622 16.803351974487306 L 104.2 12.9 L 115.2 21.9 L 110.2 24.9 L 106.66605501174926 26.372477054595947 L 106.0 27.2 L 102.3 31.0 L 98.3 34.6 L 97.49557819366456 35.2173469543457 L 100.3 36.9 L 103.1 38.8 L 105.7 40.9 L 107.2 45.2 L 105.87330169677735 48.13270139694214 L 116.1 56.5 L 111.1 59.5 L 108.50677967071533 60.58050851821899 L 106.8 63.5 L 102.3 69.4 L 98.10793762207031 73.75329551696777 L 100.0 74.9 L 103.4 77.1 L 106.7 79.3 L 108.7 83.4 L 107.4 87.8 L 103.3 89.8 L 99.0 88.5 L 93.7 83.2 Z M 93.6 44.9 L 91.6 42.9 L 89.44426031112671 40.84224853515625 L 89.2 41.0 L 84.2 43.8 L 78.7 46.4 L 72.9 48.6 L 66.8 50.6 L 60.2 52.1 L 59.6 50.4 L 65.3 47.1 L 70.6 43.8 L 75.6 40.6 L 80.2 37.3 L 82.44254140853882 35.49502763748169 L 77.8 32.4 L 74.3 30.2 L 70.5 28.3 L 71.1 26.6 L 75.3 27.5 L 79.5 28.3 L 83.4 29.4 L 87.2 30.6 L 87.9110369682312 30.864099407196044 L 88.1 30.7 L 91.5 27.3 L 94.4 23.8 L 95.7722222328186 21.9 L 65.4 21.9 L 60.4 24.9 L 58.184158420562746 25.82326736450195 L 58.1 26.0 L 55.5 29.9 L 52.5 33.6 L 52.208779430389406 33.882655239105226 L 53.5 34.6 L 56.1 36.3 L 58.5 38.1 L 60.1 42.4 L 58.3 46.6 L 54.863055038452146 47.87886323928833 L 64.4 55.68181819915772 L 64.4 52.5 L 99.1 52.5 L 99.61940298080444 52.06716413497925 L 99.7 51.9 L 99.77685079574584 51.935957717895505 L 101.03439998626709 50.88800001144409 L 101.0 50.9 L 96.9 49.0 L 95.4 47.0 Z " />
</g>
</svg>
