<svg xmlns="http://www.w3.org/2000/svg" xmlns:xlink="http://www.w3.org/1999/xlink" version="1.1" baseProfile="full" viewBox="0 0 200 200" width="200" height="200">
<g fill="black">
<path d="M 66.0 14.0 L 69.0 16.0 L 66.0 17.8 L 66.0 49.85 L 70.8 46.7 L 76.8 42.4 L 82.6 37.8 L 87.21106824874877 33.710939502716066 L 87.2 33.7 L 88.1 32.9 L 95.8 42.2 L 96.2 45.7 L 92.61389188766479 44.52636461257934 L 89.5 46.8 L 82.9 51.2 L 76.0 55.3 L 68.9 59.0 L 66.0 60.31466665267944 L 66.0 89.31904764175415 L 71.2 86.1 L 77.1 81.9 L 82.7 77.6 L 87.25018892288207 73.6507794380188 L 87.2 73.6 L 88.1 72.9 L 95.7 82.2 L 96.1 85.8 L 92.46846427917481 84.54546947479248 L 89.5 86.7 L 83.1 90.9 L 76.3 94.7 L 69.2 98.3 L 66.0 99.68378381729126 L 66.0 131.1581395149231 L 66.7 130.8 L 75.2 126.0 L 83.5 120.9 L 91.6 115.5 L 98.74564113616944 110.25383310317993 L 98.7 110.2 L 98.74630870819092 110.2533429145813 L 99.5 109.7 L 105.57965974807739 118.12467126846313 L 106.6 119.3 L 106.8 122.9 L 103.34722385406494 121.42937316894532 L 97.8 125.0 L 89.0 130.1 L 80.0 134.9 L 70.8 139.1 L 66.0 141.11290321350097 L 66.0 184.0 L 54.0 190.0 L 54.0 145.65625 L 51.9 146.4 L 42.3 149.3 L 32.4 151.8 L 22.4 153.6 L 12.2 154.8 L 11.9 153.1 L 21.5 149.9 L 30.9 146.6 L 40.2 143.1 L 49.2 139.3 L 54.0 137.08876399993898 L 54.0 104.33164558410644 L 46.2 106.8 L 37.9 109.0 L 29.3 110.6 L 20.4 111.8 L 20.0 110.1 L 28.3 107.0 L 36.3 103.9 L 44.0 100.7 L 51.3 97.3 L 54.0 95.93043479919433 L 54.0 65.34102563858032 L 53.6 65.5 L 45.5 68.2 L 37.1 70.6 L 28.4 72.4 L 19.4 73.8 L 19.0 72.1 L 27.4 68.8 L 35.4 65.5 L 43.2 62.1 L 50.6 58.5 L 54.0 56.72816905975342 L 54.0 12.0 Z M 160.4 174.0 L 152.3 167.0 L 144.9 159.2 L 144.25056924819947 158.33076190948486 L 136.0 166.4 L 126.0 174.1 L 115.3 180.4 L 103.9 185.3 L 91.7 188.8 L 91.1 187.1 L 102.3 181.8 L 112.6 175.7 L 122.1 168.8 L 130.8 160.9 L 138.7 151.9 L 139.06535835266112 151.39055662155153 L 138.4 150.5 L 132.6 140.9 L 127.7 130.4 L 123.6 119.2 L 120.5 107.1 L 118.45230770111084 95.0 L 110.0 95.0 L 110.0 91.0 L 136.1 91.0 L 136.1 14.0 L 148.1 16.0 L 151.1 18.0 L 148.1 19.8 L 148.1 50.0 L 170.11818180084228 50.0 L 178.3 41.0 L 188.3 50.0 L 188.3 54.0 L 148.1 54.0 L 148.1 91.0 L 166.6 91.0 L 172.6 86.0 L 183.6 95.0 L 178.6 98.0 L 177.01290321350098 98.66129035949707 L 173.4 109.5 L 167.6 123.3 L 160.9 135.9 L 153.4 147.3 L 150.8430790901184 150.44224014282227 L 152.5 152.3 L 159.6 158.8 L 167.2 164.3 L 175.4 169.0 L 184.1 172.9 L 190.5 175.5 L 179.0 185.0 L 169.3 180.0 Z M 124.5 105.9 L 129.2 117.1 L 134.2 127.3 L 139.8 136.6 L 144.7967650413513 143.398876953125 L 145.8 142.0 L 152.2 131.0 L 157.8 118.9 L 162.7 105.7 L 165.7678321838379 95.0 L 120.56885242462158 95.0 Z " />
</g>
</svg>
