<svg xmlns="http://www.w3.org/2000/svg" xmlns:xlink="http://www.w3.org/1999/xlink" version="1.1" baseProfile="full" viewBox="0 0 200 200" width="200" height="200">
<g fill="black">
<path d="M 48.0 111.9 L 51.0 113.9 L 48.0 115.7 L 48.0 147.9 L 47.3 153.5 L 45.9 158.8 L 43.9 163.9 L 41.2 168.6 L 37.9 173.0 L 33.9 177.0 L 29.4 180.6 L 24.3 183.8 L 18.6 186.6 L 12.4 189.0 L 11.5 187.4 L 16.7 183.4 L 21.2 179.5 L 25.1 175.6 L 28.4 171.8 L 31.0 167.9 L 33.1 164.0 L 34.6 160.1 L 35.6 156.1 L 36.0 152.1 L 36.0 109.9 Z M 72.7 176.8 L 75.0 175.65 L 75.0 109.9 L 87.0 111.9 L 90.0 113.9 L 87.0 115.7 L 87.0 169.96764707565308 L 90.1 168.6 L 93.5 167.2 L 96.8 165.9 L 100.1 164.7 L 103.4 163.6 L 106.5 162.5 L 107.4 164.0 L 104.9 166.2 L 102.4 168.5 L 97.0 173.1 L 94.2 175.4 L 91.3 177.6 L 88.3 179.9 L 85.3 182.3 L 82.37060403823853 184.40550336837768 L 82.2 188.5 L 78.9 187.0 L 71.0 177.8 Z M 162.2 174.0 L 154.0 167.0 L 146.6 159.2 L 145.8985300064087 158.27533502578734 L 137.5 166.4 L 127.5 174.1 L 116.7 180.4 L 105.2 185.3 L 93.0 188.8 L 92.4 187.1 L 103.7 181.8 L 114.1 175.7 L 123.6 168.8 L 132.4 160.9 L 140.3 151.9 L 140.67299575805663 151.3871308326721 L 140.0 150.5 L 134.2 140.9 L 129.3 130.5 L 125.2 119.2 L 122.0 107.1 L 119.95230770111084 95.0 L 111.5 95.0 L 111.5 91.0 L 137.7 91.0 L 137.7 14.0 L 149.7 16.0 L 152.7 18.0 L 149.7 19.8 L 149.7 50.0 L 172.01818180084229 50.0 L 180.2 41.0 L 190.2 50.0 L 190.2 54.0 L 149.7 54.0 L 149.7 91.0 L 168.5 91.0 L 174.5 86.0 L 185.5 95.0 L 180.5 98.0 L 178.79677419662477 98.70967741012574 L 175.2 109.5 L 169.4 123.3 L 162.7 135.9 L 155.1 147.3 L 152.47905464172362 150.48257646560668 L 154.1 152.3 L 161.3 158.8 L 169.0 164.3 L 177.2 169.0 L 186.0 172.9 L 192.4 175.5 L 180.9 185.0 L 171.2 180.0 Z M 126.0 105.9 L 130.7 117.1 L 135.8 127.3 L 141.4 136.6 L 146.4399250984192 143.45760297775269 L 147.5 142.0 L 153.9 131.0 L 159.6 118.9 L 164.5 105.7 L 167.6426573753357 95.0 L 121.97950820922851 95.0 Z M 15.8 100.4 L 13.6 96.4 L 14.6 92.0 L 15.8 90.7 L 17.0 88.8 L 18.3 86.1 L 19.5 82.7 L 20.6 78.8 L 21.6 74.2 L 22.6 69.0 L 23.4 63.2 L 24.3 56.9 L 25.008466148376463 51.46842632293701 L 22.7 53.4 L 17.4 57.2 L 11.5 60.7 L 10.4 59.2 L 14.9 54.3 L 19.1 49.5 L 22.8 44.8 L 26.2 40.2 L 29.2 35.7 L 31.8 31.2 L 33.9 26.7 L 35.6 22.3 L 36.9 17.9 L 37.6703296661377 14.510549449920655 L 37.6 14.5 L 38.3 11.8 L 49.6 16.3 L 52.0 19.0 L 48.27382965087891 20.13115882873535 L 47.8 21.5 L 46.189999961853026 25.0 L 78.0 25.0 L 84.0 20.0 L 95.0 29.0 L 90.0 32.0 L 87.65182723999024 32.97840528488159 L 86.2 35.5 L 84.1 38.7 L 81.7 41.8 L 79.1 44.8 L 76.3 47.6 L 73.2 50.3 L 69.9 52.9 L 66.2 55.2 L 62.5 57.6 L 61.4 56.3 L 64.2 53.0 L 66.7 49.6 L 68.9 46.4 L 71.0 43.2 L 72.8 40.1 L 74.3 37.0 L 75.6 34.0 L 76.7 31.0 L 77.32068967819214 29.0 L 44.122449016571046 29.0 L 42.8 31.4 L 39.6 36.1 L 36.1 40.7 L 32.1 45.1 L 27.6 49.3 L 26.874600887298584 49.906966590881346 L 27.0 49.9 L 27.9 56.9 L 28.370769214630126 62.0 L 101.5 62.0 L 107.5 57.0 L 118.5 66.0 L 113.5 69.0 L 111.19523811340332 69.96031742095947 L 110.9 70.6 L 109.6 73.4 L 108.2 76.2 L 106.6 79.2 L 105.0 82.4 L 103.2 85.6 L 101.3 89.0 L 99.1 92.5 L 97.1 96.3 L 95.4 95.6 L 96.5 91.5 L 97.2 87.5 L 97.9 83.7 L 98.6 80.1 L 99.3 76.7 L 99.9 73.4 L 100.5 70.4 L 101.0 67.5 L 101.22222223281861 66.0 L 28.673333358764648 66.0 L 28.9 69.4 L 28.9 74.9 L 28.8 79.9 L 28.4 84.6 L 27.8 88.7 L 27.0 92.5 L 25.8 96.0 L 24.2 99.1 L 20.3 101.4 Z M 89.6 93.0 L 89.6 97.0 L 36.3 97.0 L 36.3 93.0 L 67.6 93.0 L 77.6 83.0 Z " />
</g>
</svg>
