<svg xmlns="http://www.w3.org/2000/svg" xmlns:xlink="http://www.w3.org/1999/xlink" version="1.1" baseProfile="full" viewBox="0 0 200 200" width="200" height="200">
<g fill="black">
<path d="M 157.0 174.2 L 147.5 167.3 L 138.9 159.5 L 137.39911623001097 157.78470430374145 L 126.9 166.6 L 115.4 174.2 L 103.1 180.5 L 89.8 185.4 L 75.8 188.8 L 75.3 187.1 L 88.5 181.8 L 100.7 175.7 L 111.9 168.6 L 122.2 160.7 L 131.5 151.7 L 131.78163261413573 151.36472301483155 L 131.2 150.7 L 124.4 141.1 L 118.6 130.6 L 113.7 119.3 L 109.8 107.2 L 107.28549613952637 95.0 L 97.3 95.0 L 97.3 91.0 L 128.7 91.0 L 128.7 14.0 L 140.7 16.0 L 143.7 18.0 L 140.7 19.8 L 140.7 50.0 L 166.6 50.0 L 176.6 40.0 L 188.6 50.0 L 188.6 54.0 L 140.7 54.0 L 140.7 91.0 L 164.4 91.0 L 170.4 86.0 L 181.4 95.0 L 176.4 98.0 L 174.555140209198 98.76869163513183 L 170.3 109.7 L 163.5 123.5 L 155.8 136.2 L 147.1 147.5 L 144.3058536529541 150.46878051757812 L 145.9 152.0 L 154.2 158.5 L 163.1 164.1 L 172.7 168.8 L 183.0 172.7 L 190.1 175.3 L 178.6 185.2 L 167.4 180.2 Z M 95.7 134.7 L 97.7 134.7 L 95.7 159.7 L 99.3 162.1 L 101.7 165.7 L 99.3 169.3 L 95.7 171.7 L 37.3 171.7 L 34.7 171.5 L 32.2 171.1 L 29.8 170.3 L 27.5 169.1 L 25.5 167.4 L 23.9 165.4 L 22.7 163.1 L 21.9 160.7 L 21.4 158.2 L 21.3 155.7 L 21.3 101.6 L 33.3 103.6 L 36.3 105.6 L 33.3 107.4 L 33.3 132.0981132507324 L 37.5 129.8 L 48.3 124.4 L 53.7 121.8 L 59.0 119.2 L 64.4 116.7 L 69.7 114.1 L 75.1 111.6 L 79.51014757156372 109.51974172592163 L 79.5 109.5 L 79.51802778244019 109.516024684906 L 80.4 109.1 L 81.18732175827026 110.99984149932861 L 89.4 118.3 L 89.6 121.5 L 85.75041599273682 119.87595672607422 L 85.0 120.2 L 79.4 122.2 L 73.8 124.1 L 68.1 126.0 L 62.5 127.9 L 51.1 131.5 L 45.3 133.2 L 39.5 134.8 L 33.6 136.2 L 33.3 136.26000003814698 L 33.3 156.9 L 33.5 157.8 L 33.7 158.4 L 33.9 158.7 L 34.0 158.9 L 34.2 159.1 L 34.5 159.3 L 35.1 159.4 L 36.0 159.6 L 37.3 159.7 L 89.7 159.7 Z M 113.8 105.8 L 119.1 116.9 L 124.9 127.1 L 131.3 136.4 L 137.83907814025878 144.15347843170167 L 139.9 141.7 L 147.4 130.7 L 154.0 118.6 L 159.8 105.4 L 163.36363639831544 95.0 L 109.42644624710083 95.0 Z M 57.7 14.7 L 59.7 17.8 L 55.20801191329956 18.342136478424074 L 55.1 18.5 L 53.7 20.4 L 49.2 26.1 L 45.8 30.1 L 44.1 31.8 L 78.2 31.8 L 84.2 26.8 L 95.2 35.8 L 90.2 39.8 L 90.2 96.9 L 78.2 102.9 L 78.2 94.9 L 30.4 94.9 L 18.4 100.9 L 18.4 25.8 L 30.4 31.8 L 41.525 31.8 L 41.9 30.9 L 42.4 28.3 L 43.6 23.3 L 44.2 21.0 L 45.2 16.4 L 45.8 14.2 L 46.2 12.1 L 46.472058868408205 10.957352924346925 L 46.3 10.9 L 47.2 8.7 Z M 30.4 64.9 L 30.4 90.9 L 78.2 90.9 L 78.2 64.9 Z M 30.4 35.8 L 30.4 60.9 L 78.2 60.9 L 78.2 35.8 Z " />
</g>
</svg>
