<svg xmlns="http://www.w3.org/2000/svg" xmlns:xlink="http://www.w3.org/1999/xlink" version="1.1" baseProfile="full" viewBox="0 0 200 200" width="200" height="200">
<g fill="black">
<path d="M 81.6 111.0 L 84.6 113.0 L 81.6 114.8 L 81.6 143.0 L 93.0 143.0 L 103.0 133.0 L 115.0 143.0 L 115.0 147.0 L 81.6 147.0 L 81.6 182.0 L 69.6 188.0 L 69.6 147.0 L 11.2 147.0 L 11.2 143.0 L 33.508108139038086 143.0 L 34.4 140.8 L 35.6 137.1 L 38.0 130.1 L 39.2 126.7 L 40.3 123.4 L 41.3 120.1 L 42.3 116.9 L 43.2 113.8 L 43.75562438964844 111.64695558547973 L 43.6 111.6 L 44.5 109.3 L 55.2 115.1 L 57.2 118.0 L 53.265519523620604 118.69025974273681 L 51.9 121.1 L 50.1 124.1 L 48.2 127.1 L 46.2 130.2 L 44.1 133.2 L 41.9 136.3 L 39.5 139.3 L 36.9 142.3 L 36.358064556121825 143.0 L 69.6 143.0 L 69.6 109.0 Z M 160.2 169.2 L 152.0 160.5 L 144.8 150.8 L 143.64069662094116 148.83666362762452 L 138.0 156.8 L 128.3 167.2 L 117.6 176.1 L 105.8 183.3 L 93.1 188.8 L 92.3 187.1 L 103.9 180.0 L 114.3 171.9 L 123.6 162.6 L 131.9 152.2 L 138.98184022903442 140.9466649055481 L 138.6 140.3 L 133.3 128.8 L 129.0 116.4 L 125.7 103.2 L 123.5 89.0 L 122.89994831085205 80.81747674942017 L 119.4 86.6 L 114.5 93.8 L 109.1 100.4 L 107.6 99.5 L 111.2 91.8 L 114.7 84.1 L 118.1 76.2 L 121.2 68.0 L 124.2 59.7 L 126.9 51.0 L 129.3 42.1 L 131.6 33.0 L 133.6 23.5 L 135.12428121566774 14.802630424499512 L 135.1 14.8 L 135.2617977142334 14.017977523803712 L 135.3 13.8 L 135.3066291809082 13.801292133331298 L 135.7 11.9 L 147.1 16.1 L 149.6 18.6 L 146.18754625320435 19.863871765136718 L 144.7 26.0 L 142.0 35.7 L 139.0 45.0 L 135.7 54.0 L 132.80344829559326 61.0 L 167.2 61.0 L 177.2 51.0 L 189.2 61.0 L 189.2 65.0 L 171.88631582260132 65.0 L 169.2 82.6 L 165.2 100.3 L 160.1 116.6 L 153.9 131.4 L 149.4077241897583 139.53466167449952 L 153.1 144.9 L 160.3 153.1 L 168.1 160.4 L 176.6 166.8 L 185.8 172.2 L 190.6 174.8 L 179.4 183.7 L 169.3 177.0 Z M 131.032142829895 65.0 L 128.2 71.1 L 124.98491344451904 77.1474247932434 L 127.6 88.3 L 131.4 101.7 L 135.9 114.0 L 140.9 125.4 L 143.91797456741332 130.70747261047364 L 145.4 127.6 L 150.6 113.3 L 154.8 97.7 L 158.0 80.7 L 159.87717390060425 65.0 Z M 36.0 117.0 L 24.0 123.0 L 24.0 33.0 L 36.0 39.0 L 52.50799999237061 39.0 L 53.6 36.9 L 54.5 34.1 L 56.3 28.7 L 57.2 26.1 L 58.0 23.5 L 59.6 18.5 L 60.3 16.0 L 60.670038890838626 14.458171176910401 L 60.5 14.4 L 60.889830493927 13.542372894287109 L 60.9 13.5 L 60.90758619308472 13.503310298919677 L 61.5 12.2 L 71.9 18.3 L 73.9 21.3 L 69.6054515838623 21.81830759048462 L 68.9 22.9 L 65.5 27.5 L 63.8 29.7 L 60.0 34.1 L 57.9 36.2 L 55.7 38.2 L 55.03913040161133 39.0 L 90.2 39.0 L 96.2 34.0 L 107.2 43.0 L 102.2 47.0 L 102.2 111.0 L 90.2 117.0 L 90.2 105.0 L 36.0 105.0 Z M 36.0 75.0 L 36.0 101.0 L 57.1 101.0 L 57.1 75.0 Z M 69.1 75.0 L 69.1 101.0 L 90.2 101.0 L 90.2 75.0 Z M 36.0 43.0 L 36.0 71.0 L 57.1 71.0 L 57.1 43.0 Z M 69.1 43.0 L 69.1 71.0 L 90.2 71.0 L 90.2 43.0 Z " />
</g>
</svg>
