<svg xmlns="http://www.w3.org/2000/svg" xmlns:xlink="http://www.w3.org/1999/xlink" version="1.1" baseProfile="full" viewBox="0 0 200 200" width="200" height="200">
<g fill="black">
<path d="M 163.1 173.7 L 156.1 166.7 L 149.99873952865602 159.02422075271608 L 143.7 166.2 L 135.1 173.9 L 125.9 180.3 L 116.0 185.3 L 105.5 188.8 L 104.8 187.1 L 114.2 181.9 L 122.9 175.9 L 130.8 168.9 L 138.1 161.1 L 144.7 152.2 L 145.17201128005982 151.42118139266967 L 144.4 150.2 L 139.6 140.6 L 135.5 130.3 L 132.2 119.0 L 129.6 107.0 L 128.01860466003419 95.0 L 121.0 95.0 L 121.0 91.0 L 142.3 91.0 L 142.3 14.0 L 154.3 16.0 L 157.3 18.0 L 154.3 19.8 L 154.3 50.0 L 169.51818180084229 50.0 L 177.7 41.0 L 187.7 50.0 L 187.7 54.0 L 154.3 54.0 L 154.3 91.0 L 168.4 91.0 L 174.4 86.0 L 185.4 95.0 L 180.4 98.0 L 178.95893201828002 98.60044498443604 L 175.9 109.2 L 170.9 123.0 L 165.2 135.6 L 158.8 147.0 L 156.35476579666138 150.46408185958862 L 158.0 152.6 L 164.1 159.1 L 170.6 164.6 L 177.5 169.2 L 184.9 173.0 L 190.4 175.7 L 179.1 184.9 L 170.7 179.8 Z M 28.1 34.0 L 59.0 34.0 L 59.0 11.0 L 71.0 13.0 L 74.0 15.0 L 71.0 16.8 L 71.0 34.0 L 95.2 34.0 L 105.2 24.0 L 117.2 34.0 L 117.2 38.0 L 28.1 38.0 L 28.1 59.0 L 43.2 59.0 L 43.2 43.0 L 55.2 45.0 L 58.2 47.0 L 55.2 48.8 L 55.2 59.0 L 70.3 59.0 L 70.3 43.0 L 82.3 45.0 L 85.3 47.0 L 82.3 48.8 L 82.3 59.0 L 97.4 59.0 L 103.4 54.0 L 114.4 63.0 L 109.4 67.0 L 109.4 93.0 L 97.4 99.0 L 97.4 91.0 L 55.57755994796753 91.0 L 52.675599098205566 109.0 L 101.61818180084228 109.0 L 109.8 100.0 L 119.8 109.0 L 119.8 113.0 L 52.03071899414063 113.0 L 49.289978218078616 130.0 L 104.3 130.0 L 110.3 125.0 L 121.3 134.0 L 116.3 137.0 L 116.21635847091675 137.0348505973816 L 116.2 138.0 L 115.9 143.5 L 115.6 148.6 L 115.3 153.3 L 114.9 157.7 L 114.4 161.7 L 113.9 165.4 L 113.2 168.7 L 112.5 171.8 L 111.7 174.5 L 110.7 176.8 L 109.6 179.0 L 108.1 181.1 L 106.5 182.9 L 104.5 184.5 L 102.4 185.8 L 100.2 186.8 L 97.8 187.4 L 95.3 187.8 L 92.8 188.0 L 92.8 182.0 L 72.8 179.0 L 72.8 176.0 L 92.8 176.0 L 94.1 175.9 L 95.2 175.7 L 96.1 175.4 L 96.9 175.1 L 97.6 174.7 L 98.2 174.2 L 98.8 173.6 L 99.3 172.8 L 99.9 171.8 L 100.4 170.5 L 100.9 168.6 L 101.5 166.3 L 102.0 163.4 L 102.5 160.2 L 103.0 156.5 L 103.3 152.3 L 103.7 147.8 L 103.9 142.9 L 104.2 137.6 L 104.26206893920899 134.0 L 48.64509801864624 134.0 L 48.5 134.9 L 35.7 138.9 L 43.47535066604614 91.0 L 28.1 91.0 L 28.1 114.0 L 27.7 124.5 L 27.0 134.4 L 26.0 143.5 L 24.7 152.0 L 23.1 159.7 L 21.3 166.7 L 19.1 172.9 L 16.5 178.3 L 13.6 182.9 L 10.2 186.5 L 8.8 185.4 L 10.2 181.1 L 11.6 176.3 L 12.8 170.9 L 13.9 164.9 L 14.8 158.2 L 15.5 150.8 L 16.0 142.7 L 16.2 133.8 L 16.3 124.2 L 16.1 114.0 L 16.1 28.0 Z M 25.3 183.3 L 23.1 179.3 L 24.3 174.9 L 25.5 173.8 L 26.8 172.3 L 28.0 170.2 L 29.2 167.6 L 30.4 164.6 L 31.5 161.1 L 32.5 157.2 L 33.4 152.9 L 34.4 148.1 L 35.1 143.0 L 36.9 143.0 L 37.4 148.2 L 37.9 153.2 L 38.2 157.8 L 38.3 162.1 L 38.1 166.1 L 37.7 169.9 L 37.1 173.3 L 36.3 176.6 L 35.2 179.6 L 33.7 182.4 L 29.7 184.5 Z M 66.6 162.8 L 66.4 160.4 L 66.1 158.0 L 65.7 155.6 L 65.2 153.3 L 64.6 151.0 L 63.9 148.7 L 63.1 146.3 L 61.8 144.3 L 63.1 143.1 L 65.0 144.9 L 67.1 146.5 L 69.0 148.4 L 70.8 150.4 L 72.5 152.7 L 74.0 155.1 L 75.4 157.6 L 76.6 160.3 L 77.7 163.1 L 78.6 166.1 L 77.5 170.5 L 73.6 172.9 L 69.2 171.8 L 66.8 167.9 L 66.8 165.3 Z M 52.9 177.9 L 48.7 176.0 L 47.1 171.7 L 47.5 169.2 L 47.8 166.7 L 48.0 164.1 L 48.1 161.5 L 48.0 158.8 L 47.8 156.0 L 47.5 153.2 L 46.7 147.2 L 45.7 144.2 L 47.3 143.4 L 49.0 146.1 L 50.9 148.7 L 52.6 151.4 L 54.1 154.2 L 55.4 157.1 L 56.5 160.0 L 57.4 163.0 L 58.1 166.0 L 58.7 169.1 L 59.1 172.2 L 57.1 176.3 Z M 84.9 157.3 L 84.5 155.2 L 84.1 153.2 L 83.6 151.2 L 83.0 149.3 L 82.3 147.5 L 80.9 143.7 L 79.6 142.3 L 80.8 140.9 L 82.4 142.1 L 84.4 143.1 L 86.3 144.4 L 88.1 145.9 L 89.8 147.5 L 91.4 149.4 L 92.9 151.4 L 94.4 153.6 L 95.7 155.9 L 97.0 158.4 L 96.4 162.9 L 92.9 165.8 L 88.3 165.3 L 85.4 161.8 L 85.2 159.5 Z M 133.6 106.0 L 137.8 117.2 L 142.2 127.5 L 147.1 136.9 L 150.59336490631102 142.47594785690308 L 150.7 142.3 L 156.1 131.3 L 160.9 119.2 L 165.0 105.9 L 167.6678321838379 95.0 L 130.08360652923585 95.0 Z M 28.1 63.0 L 28.1 87.0 L 43.2 87.0 L 43.2 63.0 Z M 55.2 63.0 L 55.2 87.0 L 70.3 87.0 L 70.3 63.0 Z M 82.3 63.0 L 82.3 87.0 L 97.4 87.0 L 97.4 63.0 Z " />
</g>
</svg>
