<svg xmlns="http://www.w3.org/2000/svg" xmlns:xlink="http://www.w3.org/1999/xlink" version="1.1" baseProfile="full" viewBox="0 0 200 200" width="200" height="200">
<g fill="black">
<path d="M 159.6 174.0 L 151.5 167.0 L 144.2 159.2 L 143.558348941803 158.33130321502685 L 135.4 166.4 L 125.5 174.0 L 114.9 180.4 L 103.5 185.3 L 91.4 188.8 L 90.9 187.1 L 102.0 181.8 L 112.2 175.8 L 121.6 168.8 L 130.2 160.9 L 138.0 152.0 L 138.43219327926636 151.39127702713012 L 137.7 150.4 L 132.0 140.9 L 127.2 130.4 L 123.1 119.2 L 120.0 107.1 L 118.04538459777832 95.0 L 109.6 95.0 L 109.6 91.0 L 135.5 91.0 L 135.5 14.0 L 147.5 16.0 L 150.5 18.0 L 147.5 19.8 L 147.5 50.0 L 169.11818180084228 50.0 L 177.3 41.0 L 187.3 50.0 L 187.3 54.0 L 147.5 54.0 L 147.5 91.0 L 165.8 91.0 L 171.8 86.0 L 182.8 95.0 L 177.8 98.0 L 176.21290321350097 98.66129035949707 L 172.6 109.5 L 166.8 123.2 L 160.2 135.8 L 152.8 147.3 L 150.19379873275756 150.47140159606934 L 151.8 152.3 L 158.9 158.8 L 166.5 164.3 L 174.6 169.0 L 183.2 172.9 L 189.5 175.5 L 178.1 185.0 L 168.5 180.0 Z M 73.2 174.8 L 70.7 174.4 L 68.3 173.6 L 66.1 172.3 L 64.1 170.7 L 62.4 168.7 L 61.2 166.4 L 60.4 164.0 L 59.9 161.5 L 59.8 159.0 L 59.8 106.65 L 59.5 108.0 L 54.6 123.8 L 48.8 138.0 L 41.9 150.8 L 34.1 162.1 L 25.3 171.7 L 15.4 179.6 L 14.3 178.3 L 22.5 169.2 L 29.7 159.0 L 36.2 147.7 L 41.8 135.1 L 46.5 121.1 L 50.4 105.9 L 53.2562873840332 90.0 L 35.429508209228516 90.0 L 34.2 102.5 L 21.6 107.3 L 28.4 38.4 L 40.2 41.5 L 43.0 43.8 L 39.86710186004639 44.884464740753174 L 35.82295083999634 86.0 L 53.791111087799074 86.0 L 55.6 71.2 L 56.8 51.7 L 57.2 30.9 L 57.2 30.0 L 20.7 30.0 L 20.7 26.0 L 73.2 26.0 L 83.2 16.0 L 95.2 26.0 L 95.2 30.0 L 64.4 30.0 L 69.2 31.0 L 72.1 33.0 L 69.02019233703614 34.84788465499878 L 68.2 52.4 L 66.2 72.3 L 64.06397848129272 86.0 L 79.0 86.0 L 89.0 76.0 L 101.0 86.0 L 101.0 90.0 L 63.44032258987427 90.0 L 63.34812231063843 90.59135370254516 L 71.8 92.0 L 74.8 94.0 L 71.8 95.8 L 71.8 159.0 L 71.9 160.2 L 72.0 161.1 L 72.2 161.7 L 72.4 162.0 L 72.5 162.2 L 72.7 162.4 L 73.1 162.5 L 73.7 162.7 L 74.6 162.9 L 75.8 163.0 L 91.8 163.0 L 97.8 138.0 L 99.8 138.0 L 97.8 163.0 L 101.4 165.4 L 103.8 169.0 L 101.4 172.6 L 97.8 175.0 L 75.8 175.0 Z M 124.0 105.9 L 128.6 117.1 L 133.7 127.3 L 139.2 136.6 L 144.15100479125977 143.33661298751832 L 145.1 142.0 L 151.4 131.0 L 157.0 118.9 L 161.9 105.7 L 164.96783218383788 95.0 L 120.06885242462158 95.0 Z " />
</g>
</svg>
