<svg xmlns="http://www.w3.org/2000/svg" xmlns:xlink="http://www.w3.org/1999/xlink" version="1.1" baseProfile="full" viewBox="0 0 200 200" width="200" height="200">
<g fill="black">
<path d="M 160.9 174.0 L 152.4 167.1 L 144.7 159.3 L 143.76231985092164 158.10411806106566 L 134.9 166.5 L 124.5 174.1 L 113.3 180.4 L 101.4 185.3 L 88.7 188.8 L 88.2 187.1 L 99.9 181.8 L 110.7 175.7 L 120.7 168.7 L 129.8 160.8 L 138.1 151.9 L 138.48999996185302 151.3800000190735 L 137.8 150.5 L 131.8 140.9 L 126.6 130.5 L 122.3 119.2 L 118.9 107.1 L 116.75923080444336 95.0 L 107.9 95.0 L 107.9 91.0 L 135.5 91.0 L 135.5 14.0 L 147.5 16.0 L 150.5 18.0 L 147.5 19.8 L 147.5 50.0 L 171.61818180084228 50.0 L 179.8 41.0 L 189.8 50.0 L 189.8 54.0 L 147.5 54.0 L 147.5 91.0 L 167.4 91.0 L 173.4 86.0 L 184.4 95.0 L 179.4 98.0 L 177.78857145309448 98.6714285850525 L 174.0 109.6 L 167.9 123.3 L 160.9 135.9 L 153.1 147.3 L 150.4287250518799 150.4318395614624 L 152.1 152.2 L 159.5 158.7 L 167.5 164.3 L 176.1 169.0 L 185.2 172.8 L 191.8 175.5 L 180.3 185.1 L 170.2 180.0 Z M 64.1 169.9 L 84.1 169.9 L 85.3 169.8 L 86.3 169.7 L 86.8 169.5 L 87.2 169.3 L 87.5 169.0 L 87.7 168.6 L 87.9 168.0 L 88.0 167.1 L 88.1 165.9 L 88.1 28.6 L 13.6 28.6 L 13.6 24.6 L 88.1 24.6 L 94.1 19.6 L 105.1 28.6 L 100.1 32.6 L 100.1 165.9 L 100.0 168.4 L 99.5 170.9 L 98.7 173.3 L 97.5 175.6 L 95.9 177.6 L 93.8 179.3 L 91.6 180.5 L 89.2 181.3 L 86.7 181.7 L 84.1 181.9 L 84.1 175.9 L 64.1 172.9 Z M 68.5 102.3 L 67.86737966537476 100.68969373703003 L 65.4 101.4 L 59.0 103.1 L 52.9 104.6 L 47.1 105.9 L 41.5 107.1 L 36.2 108.1 L 31.2 109.1 L 26.5 110.1 L 22.0 110.9 L 21.95480136871338 110.90860929489136 L 21.23333330154419 112.26666669845581 L 32.7 118.0 L 61.6 118.0 L 67.6 113.0 L 78.6 122.0 L 73.6 126.0 L 73.6 160.1 L 61.6 166.1 L 61.6 154.1 L 32.7 154.1 L 32.7 166.1 L 20.7 172.1 L 20.7 113.27058820724487 L 20.1 114.4 L 17.8 111.7 L 14.6 99.9 L 16.6 99.7 L 20.8 99.6 L 25.2 99.4 L 27.269616508483885 99.31376600265503 L 28.6 95.5 L 30.1 91.3 L 31.6 87.3 L 32.9 83.3 L 34.2 79.5 L 35.4 75.8 L 36.5 72.2 L 37.5 68.7 L 38.06102418899536 66.31564722061157 L 38.0 66.3 L 38.21999998092652 65.63999996185302 L 38.3 65.3 L 38.32984294891357 65.31047124862671 L 38.8 63.9 L 49.7 69.3 L 51.8 72.2 L 47.83768844604492 73.03417081832886 L 46.3 76.2 L 44.4 79.7 L 42.4 83.2 L 40.2 86.8 L 37.9 90.4 L 35.5 94.1 L 32.8 97.8 L 31.7554030418396 99.09674100875854 L 35.1 98.9 L 40.4 98.6 L 46.1 98.3 L 52.0 98.1 L 58.3 97.8 L 64.8 97.7 L 66.6 97.7 L 66.2 96.8 L 64.8 94.0 L 63.2 91.2 L 61.5 88.4 L 59.6 85.5 L 57.6 82.6 L 55.2 79.9 L 56.3 78.5 L 59.4 80.5 L 62.6 82.4 L 65.6 84.6 L 68.3 86.9 L 70.9 89.3 L 73.4 91.9 L 75.6 94.6 L 77.7 97.5 L 79.6 100.5 L 81.3 103.6 L 81.2 108.2 L 77.9 111.4 L 73.3 111.2 L 70.1 107.9 L 69.4 105.1 Z M 32.7 122.0 L 32.7 150.1 L 61.6 150.1 L 61.6 122.0 Z M 122.9 105.9 L 127.8 117.0 L 133.1 127.3 L 138.9 136.5 L 144.275 143.6666666984558 L 145.6 141.9 L 152.3 130.9 L 158.2 118.8 L 163.3 105.6 L 166.5615385055542 95.0 L 118.87950820922852 95.0 Z M 81.9 53.9 L 81.9 57.9 L 15.1 57.9 L 15.1 53.9 L 59.9 53.9 L 69.9 43.9 Z " />
</g>
</svg>
