<svg xmlns="http://www.w3.org/2000/svg" xmlns:xlink="http://www.w3.org/1999/xlink" version="1.1" baseProfile="full" viewBox="0 0 200 200" width="200" height="200">
<g fill="black">
<path d="M 160.0 169.2 L 152.1 160.5 L 145.0 150.8 L 143.9873734474182 149.0110263824463 L 138.6 156.8 L 129.2 167.2 L 118.7 176.1 L 107.2 183.3 L 94.7 188.8 L 93.9 187.1 L 105.2 180.0 L 115.3 171.9 L 124.4 162.7 L 132.5 152.3 L 139.35941829681397 140.83497228622437 L 139.0 140.2 L 133.8 128.7 L 129.7 116.4 L 126.4 103.2 L 124.3 89.0 L 123.76413040161133 80.96195650100708 L 120.5 86.6 L 115.6 93.8 L 110.4 100.4 L 108.8 99.5 L 112.3 91.8 L 115.7 84.1 L 119.0 76.2 L 122.0 68.1 L 124.9 59.7 L 127.5 51.1 L 129.9 42.2 L 132.1 33.0 L 134.0 23.6 L 135.52607822418213 14.802607822418214 L 135.5 14.8 L 135.6642105102539 14.006315803527832 L 135.7 13.8 L 135.70664043426513 13.801238059997559 L 136.1 11.9 L 147.5 16.0 L 150.1 18.6 L 146.56772909164428 19.88446216583252 L 145.1 26.0 L 142.5 35.7 L 139.6 45.0 L 136.3 54.0 L 133.4839080810547 61.0 L 166.5 61.0 L 176.5 51.0 L 188.5 61.0 L 188.5 65.0 L 171.68010473251343 65.0 L 169.1 82.6 L 165.2 100.3 L 160.2 116.5 L 154.1 131.4 L 149.72771806716918 139.53730249404907 L 153.4 144.9 L 160.4 153.2 L 168.0 160.5 L 176.3 166.8 L 185.3 172.2 L 190.0 174.9 L 178.8 183.7 L 168.9 176.9 Z M 63.8 98.7 L 66.0 101.5 L 62.35692310333252 102.41076927185058 L 61.7 104.1 L 59.4 109.9 L 56.7 115.9 L 53.9 122.3 L 50.7 129.1 L 43.5 143.5 L 39.4 151.2 L 35.29912023544311 158.24281520843505 L 41.8 157.0 L 48.9 155.5 L 56.2 154.0 L 63.8 152.5 L 71.7 151.0 L 79.9 149.5 L 81.22155475616455 149.28233213424681 L 78.7 145.5 L 75.4 140.7 L 71.7 135.6 L 67.8 130.1 L 63.6 124.3 L 64.9 123.0 L 70.5 127.5 L 75.7 132.0 L 80.4 136.4 L 84.6 140.7 L 88.5 144.9 L 92.0 148.9 L 95.1 152.8 L 97.9 156.6 L 100.3 160.2 L 102.3 163.8 L 102.4 168.4 L 99.3 171.7 L 94.7 171.7 L 91.3 168.6 L 90.2 165.5 L 88.6 162.0 L 86.7 158.3 L 84.4 154.3 L 83.08148231506348 152.20013856887817 L 80.9 153.1 L 73.1 156.1 L 65.6 158.8 L 58.2 161.4 L 51.0 163.7 L 44.1 166.0 L 37.5 168.1 L 31.0 170.0 L 24.8 171.9 L 22.816609954833986 172.47148523330688 L 21.5 176.0 L 18.9 173.6 L 14.2 162.3 L 16.2 161.9 L 22.2 160.8 L 28.5 159.6 L 30.844339656829835 159.13113203048707 L 31.4 157.5 L 34.5 149.0 L 37.5 140.8 L 40.3 133.1 L 42.8 125.8 L 45.2 118.9 L 47.4 112.4 L 49.2 106.2 L 50.9 100.5 L 52.038539218902585 96.10849170684814 L 52.0 96.1 L 52.21463413238526 95.42926826477051 L 52.3 95.1 L 52.31817893981933 95.10569076538086 L 52.352000045776364 95.0 L 13.4 95.0 L 13.4 91.0 L 51.3 91.0 L 51.3 50.0 L 19.7 50.0 L 19.7 46.0 L 51.3 46.0 L 51.3 13.0 L 63.3 15.0 L 66.3 17.0 L 63.3 18.8 L 63.3 46.0 L 76.0 46.0 L 86.0 36.0 L 98.0 46.0 L 98.0 50.0 L 63.3 50.0 L 63.3 91.0 L 84.4 91.0 L 94.4 81.0 L 106.4 91.0 L 106.4 95.0 L 55.81960783004761 95.0 Z M 131.74698791503906 65.0 L 129.0 71.0 L 125.85801982879639 77.13069305419921 L 128.4 88.3 L 132.2 101.7 L 136.5 114.1 L 141.5 125.4 L 144.2547887802124 130.4668436050415 L 145.6 127.6 L 150.7 113.4 L 154.8 97.7 L 157.9 80.7 L 159.7016393661499 65.0 Z " />
</g>
</svg>
