<svg xmlns="http://www.w3.org/2000/svg" xmlns:xlink="http://www.w3.org/1999/xlink" version="1.1" baseProfile="full" viewBox="0 0 200 200" width="200" height="200">
<g fill="black">
<path d="M 142.9 187.3 L 130.7 183.8 L 119.2 179.5 L 108.8796760559082 174.43719959259033 L 97.7 178.8 L 84.2 183.0 L 69.6 186.4 L 53.9 189.0 L 37.1 190.8 L 36.8 189.1 L 53.2 185.3 L 68.3 181.2 L 82.3 176.7 L 94.9 171.8 L 100.21629705429078 169.30365180969238 L 98.7 168.4 L 89.6 161.7 L 81.3 154.2 L 74.1 145.9 L 68.6307692527771 138.0 L 45.91999998092651 138.0 L 45.4 144.5 L 44.3 151.5 L 42.6 158.2 L 40.3 164.4 L 37.5 170.1 L 34.2 175.4 L 30.3 180.0 L 25.9 184.1 L 20.9 187.5 L 15.4 190.2 L 14.5 188.7 L 18.5 184.6 L 22.0 180.3 L 25.1 176.0 L 27.7 171.4 L 29.9 166.5 L 31.6 161.3 L 32.8 155.8 L 33.6 149.9 L 34.0 143.6 L 34.0 106.0 L 46.0 112.0 L 148.0 112.0 L 158.0 102.0 L 170.0 112.0 L 170.0 116.0 L 46.0 116.0 L 46.0 134.0 L 143.99342107772827 134.0 L 144.9 132.7 L 145.27240219116212 132.93966484069824 L 150.0 129.0 L 161.0 138.0 L 156.0 141.0 L 152.3982481956482 142.50072994232178 L 148.3 147.7 L 140.4 155.3 L 131.4 162.3 L 121.3 168.5 L 120.41020126342774 168.93308792114257 L 122.9 169.9 L 133.8 173.2 L 145.4 175.8 L 157.6 177.7 L 170.5 178.9 L 181.3 179.8 L 169.4 192.0 L 155.8 190.1 Z M 71.72432432174682 138.0 L 77.1 143.1 L 85.3 149.8 L 93.8 155.9 L 103.0 161.3 L 109.66413192749023 164.49322986602783 L 116.5 160.5 L 125.5 154.2 L 133.2 147.4 L 139.6 140.3 L 141.20394735336305 138.0 Z M 155.3 97.0 L 145.5 92.3 L 136.8 87.0 L 133.1014765739441 84.21409931182862 L 124.6 89.4 L 113.5 94.6 L 101.1 98.9 L 87.5 102.2 L 72.7 104.5 L 72.4 102.8 L 86.5 98.5 L 99.3 93.8 L 110.7 88.6 L 120.8 82.8 L 126.47379713058471 78.69138832092285 L 122.4 74.8 L 117.0 67.9 L 112.7 60.5 L 109.7 52.7 L 108.81487655639648 47.86132526397705 L 108.4 48.2 L 103.2 51.9 L 97.6 55.2 L 91.7 58.2 L 90.7 56.7 L 95.4 52.2 L 99.8 47.7 L 104.0 43.3 L 107.8 38.9 L 111.4 34.4 L 114.6 29.9 L 117.6 25.2 L 120.2 20.5 L 122.5 15.7 L 124.1286521911621 11.709802055358887 L 124.1 11.7 L 125.0 9.6 L 135.5 15.6 L 137.4 18.7 L 133.54949493408202 19.164716148376463 L 132.6 20.9 L 129.4 26.0 L 125.8 30.9 L 122.0 35.6 L 121.61818180084228 36.0 L 165.2 36.0 L 175.2 26.0 L 187.2 36.0 L 187.2 40.0 L 165.4 40.0 L 162.1 49.9 L 157.2 59.6 L 151.0 68.4 L 143.4 76.3 L 141.41587648391723 77.87828006744385 L 142.1 78.3 L 150.4 82.4 L 159.6 86.0 L 169.8 89.2 L 180.9 92.0 L 189.5 94.1 L 177.8 104.8 L 166.0 101.2 Z M 29.4 92.2 L 43.4 92.2 L 44.6 92.1 L 45.5 91.9 L 46.1 91.8 L 46.4 91.6 L 46.8 91.2 L 47.1 90.3 L 47.3 89.4 L 47.4 88.2 L 47.4 66.32933330535889 L 41.2 67.9 L 25.8 71.7 L 22.05259943008423 72.5760157585144 L 20.6 76.0 L 18.1 73.5 L 13.9 62.1 L 15.8 61.7 L 39.2 58.1 L 46.9 56.9 L 47.4 56.821052646636964 L 47.4 35.3 L 15.1 35.3 L 15.1 31.3 L 47.4 31.3 L 47.4 11.7 L 59.4 13.7 L 62.4 15.7 L 59.4 17.5 L 59.4 31.3 L 70.5 31.3 L 80.5 21.3 L 92.5 31.3 L 92.5 35.3 L 59.4 35.3 L 59.4 54.99078950881958 L 69.7 53.5 L 77.2 52.5 L 84.8 51.6 L 92.3 50.9 L 92.7 52.7 L 85.6 55.3 L 78.4 57.7 L 71.1 59.9 L 63.7 62.0 L 59.4 63.14666662216187 L 59.4 88.2 L 59.2 90.7 L 58.8 93.2 L 58.0 95.6 L 56.7 97.9 L 55.1 99.9 L 53.1 101.6 L 50.8 102.8 L 48.4 103.6 L 45.9 104.0 L 43.4 104.2 L 43.4 98.2 L 29.4 95.2 Z M 117.8 40.0 L 113.3 44.2 L 110.98784027099609 46.08747730255127 L 113.6 51.1 L 117.8 57.5 L 122.7 63.4 L 128.3 68.9 L 133.47050914764404 72.79776849746705 L 136.9 69.6 L 143.0 62.3 L 147.8 54.3 L 151.5 45.8 L 153.0296703338623 40.0 Z " />
</g>
</svg>
