<svg xmlns="http://www.w3.org/2000/svg" xmlns:xlink="http://www.w3.org/1999/xlink" version="1.1" baseProfile="full" viewBox="0 0 200 200" width="200" height="200">
<g fill="black">
<path d="M 44.9 122.0 L 83.3 122.0 L 89.3 117.0 L 100.3 126.0 L 95.3 130.0 L 95.3 170.0 L 83.3 176.0 L 83.3 170.0 L 44.9 170.0 L 44.9 182.0 L 32.9 188.0 L 32.9 116.0 Z M 161.4 169.2 L 153.6 160.4 L 146.6 150.8 L 145.63739261627197 149.09939365386964 L 140.4 156.7 L 131.1 167.2 L 120.7 176.1 L 109.3 183.3 L 97.0 188.8 L 96.2 187.1 L 107.3 180.0 L 117.3 171.9 L 126.3 162.7 L 134.2 152.3 L 141.00803327560425 140.92085876464844 L 140.6 140.2 L 135.6 128.7 L 131.5 116.4 L 128.3 103.1 L 126.2 89.0 L 125.67445650100709 81.1168478012085 L 122.5 86.6 L 117.7 93.7 L 112.5 100.4 L 110.9 99.5 L 114.4 91.9 L 117.7 84.1 L 120.9 76.2 L 123.9 68.1 L 126.8 59.7 L 129.4 51.1 L 131.7 42.2 L 133.9 33.0 L 135.8 23.6 L 137.2361445426941 14.80361442565918 L 137.2 14.8 L 137.37419357299805 13.958064556121826 L 137.4 13.8 L 137.40664043426514 13.801238059997559 L 137.8 11.9 L 149.2 16.0 L 151.8 18.6 L 148.31011905670167 19.86904764175415 L 146.9 26.0 L 144.3 35.7 L 141.4 45.0 L 138.2 54.0 L 135.3839080810547 61.0 L 167.6 61.0 L 177.6 51.0 L 189.6 61.0 L 189.6 65.0 L 173.08010473251343 65.0 L 170.5 82.6 L 166.7 100.2 L 161.7 116.5 L 155.7 131.4 L 151.37505197525024 139.56257791519164 L 155.0 145.0 L 161.9 153.2 L 169.5 160.5 L 177.7 166.8 L 186.6 172.2 L 191.1 174.9 L 180.0 183.7 L 170.2 176.9 Z M 44.9 147.0 L 44.9 166.0 L 83.3 166.0 L 83.3 147.0 Z M 44.9 126.0 L 44.9 143.0 L 83.3 143.0 L 83.3 126.0 Z M 133.67469882965088 65.0 L 131.0 71.0 L 127.78877115249634 77.2658124923706 L 130.3 88.3 L 134.0 101.7 L 138.3 114.1 L 143.2 125.4 L 145.93231868743896 130.425514793396 L 147.2 127.7 L 152.2 113.4 L 156.3 97.7 L 159.3 80.7 L 161.1016393661499 65.0 Z M 24.9 114.0 L 24.9 64.0 L 36.9 70.0 L 93.6 70.0 L 99.6 65.0 L 110.6 74.0 L 105.6 78.0 L 105.6 114.0 L 93.6 120.0 L 93.6 108.0 L 36.9 108.0 Z M 36.9 74.0 L 36.9 104.0 L 58.1 104.0 L 58.1 74.0 Z M 70.1 74.0 L 70.1 104.0 L 93.6 104.0 L 93.6 88.01379308700561 L 89.80292110443115 88.07925996780395 L 89.5 88.4 L 87.8 90.1 L 85.9 91.7 L 83.9 93.3 L 81.8 94.8 L 79.6 96.3 L 77.3 97.7 L 74.9 99.0 L 72.7 100.6 L 71.5 99.3 L 73.3 97.3 L 74.7 95.0 L 76.0 92.8 L 77.2 90.6 L 78.3 88.5 L 79.4 86.5 L 80.3 84.5 L 81.1 82.6 L 81.8 80.7 L 82.08801012039184 79.7879680633545 L 81.9 79.7 L 82.9 77.9 L 92.8 84.8 L 93.6 86.4 L 93.6 74.0 Z M 44.6 91.5 L 43.4 88.1 L 42.7 86.5 L 42.0 84.8 L 41.2 83.2 L 40.4 81.5 L 39.1 80.3 L 40.2 78.8 L 41.8 79.8 L 43.7 80.5 L 45.5 81.4 L 47.3 82.5 L 49.0 83.7 L 50.7 85.0 L 52.3 86.5 L 53.8 88.1 L 55.3 89.8 L 56.7 91.7 L 56.9 96.2 L 53.9 99.7 L 49.3 99.8 L 45.9 96.8 L 45.1 93.2 Z M 100.4 49.4 L 96.7 46.1 L 92.8 42.8 L 88.7 39.6 L 84.3 36.4 L 79.7 33.2 L 69.8 26.6 L 67.17333335876465 24.882564067840576 L 62.7 29.7 L 57.3 35.0 L 51.7 40.1 L 45.9 45.0 L 39.8 49.7 L 33.5 54.2 L 27.0 58.4 L 20.1 62.2 L 13.0 65.7 L 12.1 64.2 L 18.0 59.1 L 23.8 54.1 L 29.5 49.0 L 34.9 43.9 L 40.2 38.8 L 45.2 33.5 L 50.1 28.1 L 54.7 22.5 L 59.1 16.9 L 62.714112758636475 11.909082412719727 L 62.7 11.9 L 63.7 10.5 L 72.8 18.4 L 74.0 21.8 L 70.26473007202148 21.34919157028198 L 69.20060329437256 22.58705339431763 L 71.4 23.2 L 77.3 25.2 L 82.8 27.4 L 88.2 29.9 L 93.2 32.5 L 98.1 35.2 L 102.7 38.1 L 107.2 41.1 L 111.4 44.3 L 115.3 47.6 L 117.1 51.8 L 115.5 56.0 L 111.2 57.8 L 107.0 56.1 L 103.8 52.8 Z M 92.7 53.0 L 92.7 57.0 L 41.2 57.0 L 41.2 53.0 L 70.7 53.0 L 80.7 43.0 Z " />
</g>
</svg>
