<svg xmlns="http://www.w3.org/2000/svg" xmlns:xlink="http://www.w3.org/1999/xlink" version="1.1" baseProfile="full" viewBox="0 0 200 200" width="200" height="200">
<g fill="black">
<path d="M 89.3 158.4 L 84.8 152.5 L 80.7 146.3 L 76.8 139.6 L 73.2 132.6 L 69.9 125.1 L 67.0 117.3 L 65.5 112.5115385055542 L 65.5 180.8 L 53.5 186.8 L 53.5 124.77142858505249 L 51.2 129.7 L 46.6 138.2 L 41.7 146.0 L 36.5 153.2 L 30.9 159.8 L 25.0 165.7 L 18.7 170.8 L 12.0 175.0 L 10.9 173.6 L 16.1 168.0 L 21.1 162.0 L 25.8 155.7 L 30.3 148.9 L 34.5 141.6 L 38.4 133.9 L 42.0 125.6 L 45.4 116.7 L 48.5 107.3 L 50.23902435302735 101.1 L 14.4 101.1 L 14.4 97.1 L 53.5 97.1 L 53.5 42.80249996185303 L 52.1 43.1 L 43.9 44.3 L 35.6 45.1 L 27.1 45.3 L 18.5 44.8 L 18.5 43.1 L 26.8 41.5 L 34.9 39.8 L 42.7 37.9 L 50.3 35.7 L 57.7 33.3 L 65.0 30.5 L 71.9 27.5 L 78.7 24.1 L 85.3 20.4 L 91.7 16.3 L 94.08187484741211 20.194176292419435 L 99.4 25.7 L 99.5 29.2 L 95.9094946861267 27.688208293914794 L 90.7 30.4 L 83.3 33.8 L 75.8 36.7 L 68.0 39.3 L 67.70075759887695 39.379545497894284 L 65.5 40.7 L 65.5 97.1 L 84.3 97.1 L 94.3 87.1 L 106.3 97.1 L 106.3 101.1 L 65.5 101.1 L 65.5 102.3 L 68.3 107.5 L 72.4 114.9 L 76.4 121.9 L 80.5 128.5 L 84.7 134.7 L 89.0 140.4 L 93.5 145.7 L 98.1 150.5 L 102.8 154.9 L 107.6 158.9 L 109.8 160.8 L 99.0 168.9 L 94.0 163.9 Z M 161.1 174.0 L 152.6 167.1 L 145.0 159.3 L 144.10918674468994 158.14718294143677 L 135.3 166.4 L 125.0 174.1 L 113.9 180.4 L 102.0 185.3 L 89.4 188.8 L 88.9 187.1 L 100.5 181.8 L 111.3 175.7 L 121.2 168.7 L 130.2 160.8 L 138.5 151.9 L 138.88245191574097 151.38317308425903 L 138.2 150.5 L 132.2 140.9 L 127.0 130.5 L 122.8 119.2 L 119.4 107.1 L 117.35230770111085 95.0 L 108.5 95.0 L 108.5 91.0 L 135.8 91.0 L 135.8 14.0 L 147.8 16.0 L 150.8 18.0 L 147.8 19.8 L 147.8 50.0 L 171.71818180084227 50.0 L 179.9 41.0 L 189.9 50.0 L 189.9 54.0 L 147.8 54.0 L 147.8 91.0 L 167.6 91.0 L 173.6 86.0 L 184.6 95.0 L 179.6 98.0 L 177.9774868965149 98.67604713439941 L 174.2 109.5 L 168.1 123.3 L 161.2 135.9 L 153.4 147.3 L 150.75634937286378 150.43549270629882 L 152.4 152.2 L 159.8 158.7 L 167.7 164.3 L 176.3 169.0 L 185.4 172.8 L 191.9 175.5 L 180.4 185.1 L 170.4 180.0 Z M 123.4 105.9 L 128.3 117.0 L 133.5 127.3 L 139.3 136.5 L 144.6335570335388 143.61140937805175 L 145.9 141.9 L 152.5 130.9 L 158.4 118.8 L 163.5 105.6 L 166.6874125480652 95.0 L 119.37950820922852 95.0 Z M 96.7 54.0 L 98.6 57.1 L 94.79435214996337 57.49368772506714 L 94.3 58.4 L 91.9 62.7 L 89.4 66.9 L 86.8 71.1 L 84.2 75.1 L 81.5 79.1 L 78.8 82.9 L 75.9 86.6 L 72.8 90.1 L 69.6 93.5 L 68.1 92.5 L 69.7 88.2 L 71.4 83.9 L 73.2 79.7 L 75.0 75.4 L 76.9 71.1 L 80.5 62.5 L 82.3 58.1 L 85.35297765731812 50.018588638305665 L 85.3 50.0 L 85.59032258987426 49.390322589874266 L 85.7 49.1 L 85.72357139587402 49.110499954223634 L 86.3 47.9 Z M 35.6 79.5 L 34.7 76.3 L 33.7 73.0 L 32.6 69.6 L 31.4 66.2 L 30.0 62.8 L 28.6 59.2 L 27.1 55.6 L 25.4 52.0 L 26.8 50.9 L 29.6 53.9 L 32.4 56.8 L 35.0 59.8 L 37.4 62.9 L 39.6 66.1 L 41.7 69.2 L 43.6 72.5 L 45.4 75.7 L 47.0 79.0 L 48.5 82.3 L 48.0 86.9 L 44.5 89.8 L 40.0 89.3 L 37.0 85.9 L 36.4 82.7 Z " />
</g>
</svg>
