<svg xmlns="http://www.w3.org/2000/svg" xmlns:xlink="http://www.w3.org/1999/xlink" version="1.1" baseProfile="full" viewBox="0 0 200 200" width="200" height="200">
<g fill="black">
<path d="M 166.0 173.8 L 158.8 166.8 L 152.3 158.9 L 152.2691816329956 158.85296144485474 L 145.5 166.2 L 136.6 173.9 L 127.0 180.3 L 118.09918107986451 184.66314659118652 L 118.1 184.7 L 115.0 188.1 L 110.4 188.1 L 109.80899868011474 187.5448169708252 L 105.9 188.8 L 105.3 187.1 L 107.87883882522583 185.73163652420044 L 107.1 185.0 L 106.1 182.1 L 104.9 179.1 L 103.5 176.1 L 102.0 173.1 L 101.65286712646484 172.48741254806518 L 97.4 173.5 L 89.2 175.3 L 72.8 178.3 L 56.8 181.1 L 41.0 183.7 L 29.695744705200195 185.60851068496703 L 28.0 189.0 L 25.6 186.3 L 22.1 174.6 L 24.1 174.4 L 31.9 173.7 L 39.7 173.1 L 55.7 171.9 L 62.5 171.39629631042482 L 62.5 144.5 L 43.8 144.5 L 43.8 156.5 L 31.8 162.5 L 31.8 103.9 L 43.8 109.9 L 62.5 109.9 L 62.5 91.3 L 74.5 93.3 L 77.5 95.3 L 74.5 97.1 L 74.5 109.9 L 94.4 109.9 L 100.4 104.9 L 111.4 113.9 L 106.4 117.9 L 106.4 144.5 L 94.4 150.5 L 94.4 144.5 L 74.5 144.5 L 74.5 170.6475609779358 L 80.2 170.3 L 88.6 169.9 L 97.0 169.7 L 100.06953773498535 169.73611221313476 L 98.4 167.1 L 96.3 164.1 L 94.1 161.0 L 91.8 157.8 L 89.0 154.8 L 90.2 153.4 L 93.7 155.6 L 97.2 157.7 L 100.5 160.1 L 103.6 162.6 L 106.4 165.2 L 109.1 168.0 L 111.6 170.8 L 114.0 173.8 L 116.1 177.0 L 117.887571144104 180.01064615249635 L 124.1 175.8 L 132.4 168.9 L 140.0 161.0 L 146.9 152.1 L 147.3655340194702 151.36844663619996 L 146.6 150.2 L 141.6 140.7 L 137.3 130.3 L 133.8 119.1 L 131.1 107.0 L 129.4255813598633 95.0 L 122.1 95.0 L 122.1 91.0 L 144.5 91.0 L 144.5 14.0 L 156.5 16.0 L 159.5 18.0 L 156.5 19.8 L 156.5 50.0 L 173.21818180084227 50.0 L 181.4 41.0 L 191.4 50.0 L 191.4 54.0 L 156.5 54.0 L 156.5 91.0 L 171.5 91.0 L 177.5 86.0 L 188.5 95.0 L 183.5 98.0 L 182.0596939086914 98.6001275062561 L 178.9 109.3 L 173.7 123.0 L 167.8 135.6 L 161.1 147.1 L 158.65709285736085 150.46725044250488 L 160.3 152.5 L 166.6 159.0 L 173.4 164.5 L 180.6 169.2 L 188.3 173.0 L 194.0 175.7 L 182.6 184.9 L 174.0 179.8 Z M 135.1 106.0 L 139.4 117.2 L 143.9 127.5 L 149.0 136.8 L 152.83756341934205 142.76954317092896 L 153.2 142.2 L 158.8 131.2 L 163.7 119.1 L 168.0 105.9 L 170.8006944656372 95.0 L 131.49344263076782 95.0 Z M 43.8 113.9 L 43.8 140.5 L 62.5 140.5 L 62.5 113.9 Z M 74.5 113.9 L 74.5 140.5 L 94.4 140.5 L 94.4 113.9 Z M 94.1 90.4 L 84.3 85.8 L 75.4 80.1 L 69.06750211715698 74.80955867767334 L 68.6 75.2 L 58.9 81.9 L 48.5 87.5 L 37.3 92.1 L 25.6 95.5 L 13.1 97.8 L 12.8 96.1 L 24.4 91.9 L 35.3 87.1 L 45.4 81.7 L 54.7 75.5 L 63.16930999755859 68.80333623886108 L 60.4 65.8 L 54.4 57.3 L 49.3 47.8 L 45.2 37.4 L 42.6 27.0 L 22.0 27.0 L 22.0 23.0 L 95.0 23.0 L 95.43609018325806 22.63659143447876 L 95.5 22.5 L 95.5649582862854 22.529201412200926 L 101.0 18.0 L 112.0 27.0 L 107.0 30.0 L 104.5 31.04166669845581 L 100.4 38.9 L 93.6 49.4 L 86.0 59.0 L 77.7 67.6 L 76.62530670166015 68.49754600524902 L 81.1 71.6 L 89.3 75.9 L 98.1 79.3 L 107.6 81.8 L 117.9 83.4 L 127.9 84.8 L 116.0 96.5 L 104.6 94.0 Z M 67.0 44.8 L 65.8 40.6 L 64.2 36.4 L 63.3 34.3 L 62.4 32.1 L 61.0 30.3 L 62.3 29.0 L 64.1 30.6 L 66.3 31.9 L 68.3 33.4 L 70.2 35.0 L 72.0 36.7 L 73.7 38.6 L 75.3 40.6 L 76.8 42.6 L 78.3 44.8 L 79.6 47.1 L 79.34719972610473 50.97627115249634 L 84.7 43.4 L 90.4 33.4 L 93.39449539184571 27.0 L 44.78627452850342 27.0 L 49.1 35.8 L 54.5 45.0 L 60.3 53.1 L 66.6 60.3 L 69.36675205230713 62.71102676391602 L 71.1 61.0 L 77.65288963317872 53.24728546142578 L 76.0 54.8 L 71.4 54.5 L 68.3 51.1 L 67.5 46.9 Z " />
</g>
</svg>
