<svg xmlns="http://www.w3.org/2000/svg" xmlns:xlink="http://www.w3.org/1999/xlink" version="1.1" baseProfile="full" viewBox="0 0 200 200" width="200" height="200">
<g fill="black">
<path d="M 66.5 16.0 L 69.5 18.0 L 66.5 19.8 L 66.5 49.0 L 83.2 49.0 L 93.2 39.0 L 105.2 49.0 L 105.2 53.0 L 66.5 53.0 L 66.5 93.0 L 80.8 93.0 L 90.8 83.0 L 102.8 93.0 L 102.8 97.0 L 66.5 97.0 L 66.5 139.0 L 89.3 139.0 L 99.3 129.0 L 111.3 139.0 L 111.3 143.0 L 66.5 143.0 L 66.5 183.0 L 54.5 189.0 L 54.5 143.0 L 10.8 143.0 L 10.8 139.0 L 54.5 139.0 L 54.5 97.0 L 18.7 97.0 L 18.7 93.0 L 54.5 93.0 L 54.5 53.0 L 16.3 53.0 L 16.3 49.0 L 54.5 49.0 L 54.5 14.0 Z M 159.2 169.3 L 150.8 160.6 L 143.3 150.9 L 141.94915075302123 148.66265592575073 L 136.0 156.8 L 126.1 167.3 L 115.1 176.1 L 102.9 183.3 L 89.8 188.8 L 89.1 187.1 L 101.0 180.0 L 111.8 171.9 L 121.4 162.6 L 130.0 152.2 L 137.25320634841918 140.8849980354309 L 136.9 140.3 L 131.4 128.8 L 127.0 116.4 L 123.6 103.2 L 121.2 89.1 L 120.58539686203002 80.71904764175414 L 116.9 86.6 L 111.8 93.8 L 106.3 100.5 L 104.9 99.4 L 108.6 91.8 L 112.2 84.0 L 115.7 76.1 L 119.0 68.0 L 122.0 59.6 L 124.8 51.0 L 127.4 42.1 L 129.7 32.9 L 131.7 23.5 L 133.33229064941406 14.703767204284668 L 133.3 14.7 L 133.9 11.9 L 145.3 16.1 L 147.8 18.7 L 144.35223884582518 19.89104480743408 L 142.8 26.1 L 140.0 35.7 L 137.0 45.1 L 133.6 54.1 L 130.66551723480225 61.0 L 166.9 61.0 L 176.9 51.0 L 188.9 61.0 L 188.9 65.0 L 170.87894735336303 65.0 L 168.1 82.6 L 164.0 100.3 L 158.7 116.6 L 152.3 131.5 L 147.75284910202026 139.51734504699706 L 151.6 144.8 L 158.9 153.1 L 166.9 160.4 L 175.7 166.7 L 185.2 172.1 L 190.2 174.8 L 179.0 183.8 L 168.6 177.0 Z M 128.8397590637207 65.0 L 125.9 71.1 L 122.67415971755982 77.10156335830689 L 125.3 88.3 L 129.3 101.7 L 133.8 114.0 L 139.0 125.3 L 142.2176552772522 130.91726264953613 L 143.9 127.5 L 149.3 113.3 L 153.6 97.7 L 156.9 80.7 L 158.77717390060425 65.0 Z " />
</g>
</svg>
