<svg xmlns="http://www.w3.org/2000/svg" xmlns:xlink="http://www.w3.org/1999/xlink" version="1.1" baseProfile="full" viewBox="0 0 200 200" width="200" height="200">
<g fill="black">
<path d="M 19.0 159.3 L 19.0 155.3 L 162.8181818008423 155.3 L 171.0 146.3 L 181.0 155.3 L 181.0 159.3 L 136.0 159.3 L 136.0 184.8 L 124.0 190.8 L 124.0 159.3 L 80.0 159.3 L 80.0 161.9 L 79.0 167.1 L 76.9 171.8 L 73.7 175.9 L 69.7 179.3 L 64.9 182.2 L 59.3 184.6 L 53.0 186.6 L 45.9 188.2 L 37.9 189.3 L 29.1 190.0 L 28.8 188.2 L 37.1 185.6 L 44.4 183.0 L 50.8 180.4 L 56.2 177.7 L 60.5 174.9 L 63.8 172.1 L 66.1 169.4 L 67.4 166.8 L 68.0 164.4 L 68.0 159.3 Z M 42.8 151.8 L 42.8 105.4 L 54.8 111.4 L 144.2 111.4 L 150.2 106.4 L 161.2 115.4 L 156.2 119.4 L 156.2 145.8 L 144.2 151.8 L 144.2 145.8 L 54.8 145.8 Z M 54.8 130.6 L 54.8 141.8 L 93.5 141.8 L 93.5 130.6 Z M 105.5 130.6 L 105.5 141.8 L 144.2 141.8 L 144.2 130.6 Z M 54.8 115.4 L 54.8 126.6 L 93.5 126.6 L 93.5 115.4 Z M 105.5 115.4 L 105.5 126.6 L 144.2 126.6 L 144.2 115.4 Z M 155.1 97.0 L 145.2 92.3 L 136.5 87.0 L 132.7682554244995 84.22511301040649 L 124.2 89.4 L 113.0 94.6 L 100.6 98.9 L 86.9 102.2 L 72.1 104.5 L 71.7 102.8 L 85.9 98.5 L 98.8 93.8 L 110.3 88.6 L 120.4 82.8 L 126.12404499053955 78.70210418701171 L 122.1 74.8 L 116.6 67.9 L 112.3 60.5 L 109.3 52.7 L 108.35023612976075 47.83246030807495 L 107.9 48.2 L 102.7 51.9 L 97.1 55.2 L 92.32142858505249 57.58928575515747 L 97.0 61.8 L 97.0 65.8 L 61.0 65.8 L 61.0 78.0 L 75.81818180084228 78.0 L 84.0 69.0 L 94.0 78.0 L 94.0 82.0 L 61.0 82.0 L 61.0 99.6 L 49.0 105.6 L 49.0 82.0 L 15.0 82.0 L 15.0 78.0 L 49.0 78.0 L 49.0 65.8 L 14.0 65.8 L 14.0 61.8 L 39.80689659118652 61.8 L 37.2 59.7 L 37.1 58.6 L 36.7 57.3 L 36.2 55.9 L 35.4 54.4 L 34.5 52.8 L 33.3 51.1 L 31.9 49.4 L 30.3 47.5 L 28.6 45.6 L 26.4 44.0 L 26.880000019073485 43.2 L 13.0 43.2 L 13.0 39.2 L 49.0 39.2 L 49.0 28.0 L 18.0 28.0 L 18.0 24.0 L 49.0 24.0 L 49.0 11.3 L 61.0 13.3 L 64.0 15.3 L 61.0 17.1 L 61.0 24.0 L 69.0 24.0 L 79.0 14.0 L 91.0 24.0 L 91.0 28.0 L 61.0 28.0 L 61.0 39.2 L 80.81818180084228 39.2 L 89.0 30.2 L 99.0 39.2 L 99.0 43.2 L 76.30256414413452 43.2 L 82.2 48.2 L 83.4 51.6 L 78.89884166717529 51.134362888336184 L 78.6 51.4 L 76.7 53.0 L 74.7 54.6 L 70.3 57.8 L 68.0 59.4 L 65.6 61.0 L 64.21333332061768 61.8 L 78.81818180084228 61.8 L 87.0 52.8 L 90.69759454727173 56.12783508300781 L 94.8 52.2 L 99.3 47.7 L 103.5 43.3 L 107.4 38.9 L 111.0 34.4 L 114.2 29.8 L 117.2 25.2 L 119.8 20.5 L 122.1 15.7 L 123.72865219116211 11.709802055358887 L 123.7 11.7 L 123.92857141494751 11.219999980926513 L 124.1 10.8 L 124.12365589141845 10.810322570800782 L 124.7 9.6 L 135.1 15.6 L 137.0 18.7 L 133.14471254348754 19.173456382751464 L 132.2 20.9 L 129.0 26.0 L 125.4 30.9 L 121.6 35.6 L 121.20909090042115 36.0 L 165.1 36.0 L 175.1 26.0 L 187.1 36.0 L 187.1 40.0 L 165.2 40.0 L 161.9 49.9 L 157.0 59.6 L 150.7 68.4 L 143.1 76.3 L 141.11181621551515 77.88150987625122 L 141.8 78.3 L 150.1 82.4 L 159.4 86.0 L 169.6 89.2 L 180.8 92.0 L 189.4 94.1 L 177.7 104.8 L 165.9 101.2 Z M 117.3 40.0 L 112.8 44.2 L 110.53777189254761 46.04671678543091 L 113.1 51.1 L 117.4 57.5 L 122.2 63.4 L 127.9 68.9 L 133.1258044242859 72.83945255279541 L 136.6 69.6 L 142.7 62.2 L 147.6 54.3 L 151.2 45.8 L 152.7615385055542 40.0 Z M 29.7 43.7 L 32.3 44.4 L 34.8 45.3 L 37.0 46.3 L 39.2 47.4 L 41.2 48.5 L 43.0 49.7 L 44.8 51.0 L 46.4 52.5 L 47.9 54.1 L 48.2 58.6 L 45.711111068725586 61.8 L 60.43043479919434 61.8 L 61.3 60.8 L 62.8 58.2 L 64.3 55.8 L 67.1 51.2 L 68.3 49.0 L 69.5 46.9 L 70.6 44.9 L 71.45 43.2 L 28.7 43.2 Z " />
</g>
</svg>
