<svg xmlns="http://www.w3.org/2000/svg" xmlns:xlink="http://www.w3.org/1999/xlink" version="1.1" baseProfile="full" viewBox="0 0 200 200" width="200" height="200">
<g fill="black">
<path d="M 162.6 174.0 L 154.5 167.0 L 147.2 159.2 L 146.558348941803 158.33130321502685 L 138.4 166.4 L 128.5 174.0 L 117.9 180.4 L 106.5 185.3 L 94.4 188.8 L 93.9 187.1 L 105.0 181.8 L 115.2 175.8 L 124.6 168.8 L 133.2 160.9 L 141.0 152.0 L 141.43219327926636 151.39127702713012 L 140.7 150.4 L 135.0 140.9 L 130.2 130.4 L 126.1 119.2 L 123.0 107.1 L 121.04538459777832 95.0 L 112.6 95.0 L 112.6 91.0 L 138.5 91.0 L 138.5 14.0 L 150.5 16.0 L 153.5 18.0 L 150.5 19.8 L 150.5 50.0 L 172.11818180084228 50.0 L 180.3 41.0 L 190.3 50.0 L 190.3 54.0 L 150.5 54.0 L 150.5 91.0 L 168.8 91.0 L 174.8 86.0 L 185.8 95.0 L 180.8 98.0 L 179.21290321350097 98.66129035949707 L 175.6 109.5 L 169.8 123.2 L 163.2 135.8 L 155.8 147.3 L 153.19379873275756 150.47140159606934 L 154.8 152.3 L 161.9 158.8 L 169.5 164.3 L 177.6 169.0 L 186.2 172.9 L 192.5 175.5 L 181.1 185.0 L 171.5 180.0 Z M 42.3 118.7 L 75.6 118.7 L 81.6 113.7 L 92.6 122.7 L 87.6 126.7 L 87.6 170.2 L 75.6 176.2 L 75.6 164.2 L 42.3 164.2 L 42.3 176.2 L 30.3 182.2 L 30.3 112.7 Z M 42.3 122.7 L 42.3 160.2 L 75.6 160.2 L 75.6 122.7 Z M 127.0 105.9 L 131.6 117.1 L 136.7 127.3 L 142.2 136.6 L 147.15100479125977 143.33661298751832 L 148.1 142.0 L 154.4 131.0 L 160.0 118.9 L 164.9 105.7 L 167.96783218383788 95.0 L 123.06885242462158 95.0 Z M 104.0 68.5 L 106.0 68.5 L 104.0 89.5 L 107.3 91.7 L 109.5 95.0 L 107.3 98.3 L 104.0 100.5 L 86.0 100.5 L 83.4 100.4 L 81.0 100.0 L 78.6 99.2 L 76.4 98.1 L 74.4 96.5 L 72.7 94.6 L 71.5 92.4 L 70.6 90.0 L 70.1 87.5 L 70.0 85.0 L 70.0 42.0 L 56.0 42.0 L 55.86757497787475 42.19863758087158 L 55.9 42.2 L 54.9 53.3 L 53.0 63.6 L 50.4 72.9 L 47.0 81.4 L 42.9 88.8 L 37.9 95.3 L 32.2 100.7 L 25.8 105.0 L 18.8 108.0 L 11.2 109.8 L 10.7 108.1 L 17.2 104.6 L 22.9 100.5 L 27.8 95.9 L 32.0 90.6 L 35.5 84.6 L 38.5 77.7 L 40.8 70.1 L 42.5 61.5 L 43.5 52.1 L 43.985576915740964 42.0 L 18.0 42.0 L 18.0 38.0 L 44.0 38.0 L 44.0 13.0 L 56.0 15.0 L 59.0 17.0 L 56.0 18.8 L 56.0 38.0 L 70.0 38.0 L 76.0 33.0 L 87.0 42.0 L 82.0 46.0 L 82.0 86.2 L 82.1 87.1 L 82.2 87.7 L 82.4 88.1 L 82.5 88.4 L 82.7 88.6 L 83.1 88.9 L 83.7 89.1 L 84.7 89.3 L 86.0 89.5 L 98.5 89.5 Z " />
</g>
</svg>
