<svg xmlns="http://www.w3.org/2000/svg" xmlns:xlink="http://www.w3.org/1999/xlink" version="1.1" baseProfile="full" viewBox="0 0 200 200" width="200" height="200">
<g fill="black">
<path d="M 158.0 169.4 L 149.2 160.6 L 141.5 151.0 L 139.93489408493042 148.52386226654053 L 133.6 156.9 L 123.3 167.3 L 112.0 176.1 L 99.5 183.3 L 85.9 188.8 L 85.2 187.1 L 97.6 180.0 L 108.8 171.8 L 118.8 162.6 L 127.7 152.1 L 135.09394416809081 140.86504592895508 L 134.8 140.4 L 129.2 128.9 L 124.5 116.5 L 121.0 103.2 L 118.5 89.1 L 117.81242599487305 80.50532541275024 L 113.9 86.7 L 108.7 93.8 L 103.0 100.5 L 101.5 99.4 L 105.5 91.8 L 109.2 84.0 L 112.8 76.1 L 116.3 68.0 L 119.4 59.6 L 122.3 50.9 L 125.0 42.1 L 127.4 32.9 L 129.5 23.4 L 131.20403079986573 14.700474262237549 L 131.2 14.7 L 131.24799995422364 14.476000022888183 L 131.4 13.7 L 131.4136841773987 13.70280704498291 L 131.8 11.9 L 143.1 16.1 L 145.7 18.7 L 142.14278602600098 19.92885570526123 L 140.6 26.1 L 137.7 35.8 L 134.5 45.1 L 131.1 54.1 L 128.08620691299438 61.0 L 166.5 61.0 L 176.5 51.0 L 188.5 61.0 L 188.5 65.0 L 169.58010473251343 65.0 L 166.8 82.7 L 162.5 100.4 L 157.1 116.7 L 150.5 131.5 L 145.77682580947877 139.57124700546265 L 149.6 144.8 L 157.2 153.0 L 165.6 160.3 L 174.6 166.7 L 184.5 172.1 L 189.7 174.8 L 178.4 183.8 L 167.7 177.1 Z M 24.9 169.9 L 33.1 168.8 L 41.4 167.7 L 50.0 166.5 L 57.0 165.61494255065918 L 57.0 136.0 L 19.0 136.0 L 19.0 132.0 L 57.0 132.0 L 57.0 108.41617650985718 L 56.7 108.5 L 49.5 110.2 L 41.9 111.7 L 33.7 112.9 L 25.1 113.8 L 24.8 112.1 L 32.9 109.2 L 40.5 106.5 L 47.7 103.9 L 54.3 101.3 L 57.0 100.12419357299805 L 57.0 100.0 L 57.285185146331784 100.0 L 60.5 98.6 L 66.2 95.9 L 71.3 93.2 L 75.9 90.4 L 80.0 87.6 L 82.86423358917236 85.37226276397705 L 82.8 85.3 L 83.6 84.7 L 90.8 94.3 L 91.0 98.0 L 87.26776924133301 96.47946157455445 L 86.1 97.2 L 81.1 99.8 L 75.7 102.2 L 69.8 104.5 L 69.0 104.76666669845581 L 69.0 132.0 L 86.0 132.0 L 96.0 122.0 L 108.0 132.0 L 108.0 136.0 L 69.0 136.0 L 69.0 164.04456520080566 L 76.9 163.1 L 86.3 161.9 L 95.9 160.8 L 105.7 159.9 L 115.8 159.1 L 116.1 160.8 L 106.4 163.6 L 96.8 166.1 L 87.4 168.4 L 78.2 170.5 L 69.2 172.6 L 60.3 174.5 L 51.7 176.4 L 43.3 178.3 L 35.0 180.0 L 30.970099258422852 180.84578161239625 L 29.4 184.3 L 26.9 181.7 L 23.0 170.2 Z M 126.18674697875977 65.0 L 123.1 71.1 L 119.86710243225097 76.97799568176269 L 122.6 88.3 L 126.7 101.6 L 131.3 114.0 L 136.7 125.3 L 140.20159835815429 131.15513162612916 L 142.1 127.5 L 147.7 113.2 L 152.2 97.6 L 155.6 80.6 L 157.56065578460692 65.0 Z M 43.5 22.0 L 88.4 22.0 L 94.4 17.0 L 105.4 26.0 L 100.4 30.0 L 100.4 72.9 L 88.4 78.9 L 88.4 72.9 L 43.5 72.9 L 43.5 84.9 L 31.5 90.9 L 31.5 16.0 Z M 43.5 26.0 L 43.5 68.9 L 88.4 68.9 L 88.4 26.0 Z " />
</g>
</svg>
