<svg xmlns="http://www.w3.org/2000/svg" xmlns:xlink="http://www.w3.org/1999/xlink" version="1.1" baseProfile="full" viewBox="0 0 200 200" width="200" height="200">
<g fill="black">
<path d="M 59.5 116.5 L 58.2 114.0 L 56.6 111.4 L 54.9 108.9 L 53.0 106.2 L 50.9 103.6 L 49.2 101.53043479919434 L 49.2 184.0 L 37.2 190.0 L 37.2 117.83571424484253 L 36.3 120.6 L 33.2 128.9 L 29.7 136.7 L 26.0 144.1 L 21.9 151.1 L 17.3 157.5 L 12.4 163.5 L 10.9 162.4 L 14.1 155.6 L 17.1 148.6 L 20.0 141.4 L 22.7 133.9 L 25.1 126.0 L 27.4 117.9 L 29.3 109.5 L 31.0 100.7 L 32.5 91.6 L 33.26744184494019 85.0 L 12.4 85.0 L 12.4 81.0 L 37.2 81.0 L 37.2 12.0 L 49.2 14.0 L 52.2 16.0 L 49.2 17.8 L 49.2 81.0 L 51.3 81.0 L 61.3 71.0 L 73.3 81.0 L 73.3 85.0 L 49.2 85.0 L 49.2 96.36857147216797 L 51.4 97.5 L 54.6 99.4 L 57.6 101.4 L 60.5 103.5 L 63.1 105.7 L 65.6 108.0 L 68.0 110.4 L 70.1 112.8 L 72.1 115.4 L 72.6 119.9 L 69.8 123.6 L 65.3 124.0 L 61.6 121.3 L 60.7 118.9 Z M 169.2 173.1 L 164.2 166.1 L 161.11866388320922 160.6376314163208 L 157.8 165.7 L 151.4 173.5 L 144.4 180.0 L 136.8 185.1 L 132.85923614501954 186.94567422866822 L 130.3 188.9 L 129.71504325866698 188.41827087402345 L 128.9 188.8 L 128.0 187.1 L 128.05939054489136 187.05479221343995 L 125.2 184.7 L 120.7 180.2 L 116.7 175.5 L 113.2 170.5 L 110.2 165.2 L 107.7 159.8 L 105.8 154.1 L 104.5 148.3 L 104.16256685256958 144.92566843032836 L 102.3 152.1 L 98.8 161.3 L 94.4 169.4 L 89.2 176.1 L 83.2 181.5 L 76.5 185.3 L 69.2 187.6 L 68.6 185.9 L 74.6 182.1 L 79.7 177.4 L 84.1 172.0 L 87.8 165.6 L 90.9 158.2 L 93.4 149.6 L 95.1 139.9 L 95.4192660331726 137.0 L 70.1 137.0 L 70.1 133.0 L 95.85963306427001 133.0 L 96.3 129.0 L 96.7 117.0 L 96.5285714149475 105.6 L 74.0 105.6 L 74.0 101.6 L 105.71000003814697 101.6 L 106.7 98.9 L 107.4 95.8 L 108.1 92.8 L 108.8 89.9 L 109.4 87.2 L 109.9 84.5 L 110.4 81.9 L 110.8 79.4 L 111.2 77.0 L 111.3095220565796 75.74049587249756 L 111.1 75.7 L 111.39696969985962 74.7348484992981 L 111.4 74.7 L 111.40707321166992 74.70201215744018 L 111.9 73.1 L 123.0 78.0 L 125.3 80.8 L 121.02783508300782 81.94432992935181 L 120.6 82.8 L 119.3 85.2 L 117.8 87.6 L 116.3 90.1 L 114.7 92.5 L 111.1 97.5 L 109.0 100.0 L 107.9333333015442 101.6 L 109.3 101.6 L 119.3 91.6 L 131.3 101.6 L 131.3 105.6 L 108.35434780120849 105.6 L 108.1 117.3 L 107.0 130.1 L 106.5 133.0 L 113.2 133.0 L 123.2 123.0 L 135.2 133.0 L 135.2 137.0 L 106.23999996185303 137.0 L 108.0 141.4 L 110.2 146.6 L 112.5 151.5 L 115.2 156.1 L 118.1 160.4 L 121.4 164.4 L 125.0 168.1 L 128.9 171.7 L 133.2 175.0 L 137.8 178.1 L 138.3102710723877 178.44990015029907 L 140.7 176.1 L 146.3 169.3 L 151.5 161.5 L 156.2 152.7 L 156.73622732162477 151.46543016433716 L 155.9 149.6 L 152.5 140.2 L 149.7 129.9 L 147.4 118.8 L 145.8 106.9 L 144.96328125 95.0 L 140.1 95.0 L 140.1 91.0 L 154.1 91.0 L 154.1 14.0 L 166.1 16.0 L 169.1 18.0 L 166.1 19.8 L 166.1 50.0 L 174.6777777671814 50.0 L 180.9 43.0 L 188.9 50.0 L 188.9 54.0 L 166.1 54.0 L 166.1 91.0 L 173.1 91.0 L 179.1 86.0 L 190.1 95.0 L 185.1 98.0 L 184.1167597770691 98.40968341827393 L 181.8 108.8 L 178.1 122.5 L 173.9 135.1 L 169.1 146.5 L 167.0532569885254 150.3660701751709 L 168.7 153.2 L 173.2 159.7 L 178.1 165.2 L 183.1 169.8 L 188.4 173.5 L 192.1 175.9 L 181.0 184.4 L 174.8 179.2 Z M 149.9 106.1 L 153.2 117.5 L 156.6 127.9 L 160.3 137.3 L 161.53916931152344 139.86900959014892 L 164.4 131.8 L 167.8 119.6 L 170.7 106.4 L 172.66551723480225 95.0 L 147.01219511032104 95.0 Z M 88.5 92.7 L 88.2 90.6 L 87.9 88.6 L 87.5 86.6 L 87.0 84.6 L 86.4 82.6 L 85.8 80.5 L 85.1 78.5 L 83.9 76.8 L 85.2 75.6 L 86.8 77.0 L 88.8 78.3 L 90.6 79.8 L 92.3 81.4 L 93.9 83.2 L 95.4 85.1 L 96.8 87.2 L 98.1 89.3 L 99.3 91.6 L 100.4 94.0 L 99.7 98.5 L 96.1 101.3 L 91.5 100.5 L 88.8 96.9 L 88.7 94.7 Z M 72.6 27.2 L 75.1 29.8 L 71.43836183547974 31.0423415184021 L 71.3 31.5 L 69.8 35.8 L 68.3 40.0 L 66.7 44.4 L 64.9 48.7 L 63.0 53.0 L 61.0 57.4 L 58.8 61.7 L 56.4 66.0 L 53.8 70.3 L 52.1 69.6 L 53.1 64.7 L 54.0 60.0 L 55.0 55.3 L 56.0 50.7 L 57.0 46.2 L 57.9 41.8 L 58.7 37.4 L 59.5 33.1 L 60.2 28.8 L 60.732602787017825 25.604383563995363 L 60.7 25.6 L 60.85 24.9 L 60.9 24.6 L 60.91363639831543 24.603030300140382 L 61.3 22.8 Z M 115.7 16.1 L 118.2 18.1 L 115.7 19.76666669845581 L 115.7 66.0 L 117.74285717010498 66.0 L 118.2 62.8 L 118.8 58.0 L 119.6 53.3 L 120.4 48.8 L 121.8 40.0 L 122.5 35.8 L 123.1 31.6 L 123.97384614944458 24.60923080444336 L 123.9 24.6 L 124.08000001907348 23.760000038146973 L 124.1 23.6 L 124.11366529464722 23.602895164489745 L 124.5 21.8 L 135.9 26.1 L 138.4 28.6 L 134.7188976287842 29.938582706451417 L 134.7 30.0 L 132.1 38.2 L 130.6 42.3 L 129.1 46.5 L 127.4 50.8 L 125.6 55.1 L 123.6 59.5 L 121.5 63.8 L 120.3755555152893 66.0 L 129.5 66.0 L 134.0 60.0 L 140.0 66.0 L 140.0 70.0 L 66.9 70.0 L 66.9 66.0 L 91.2 66.0 L 91.2 14.1 L 101.2 16.1 L 103.7 18.1 L 101.2 19.76666669845581 L 101.2 66.0 L 105.7 66.0 L 105.7 14.1 Z M 23.3 57.7 L 23.0 54.2 L 22.5 50.6 L 21.9 46.9 L 20.3 39.3 L 19.3 35.4 L 18.2 31.3 L 16.9 27.3 L 18.5 26.4 L 21.0 30.0 L 23.5 33.5 L 25.7 37.1 L 27.7 40.8 L 29.5 44.5 L 31.1 48.2 L 32.5 52.0 L 33.7 55.7 L 34.7 59.5 L 35.5 63.4 L 34.1 67.7 L 30.1 69.9 L 25.8 68.6 L 23.6 64.6 L 23.5 61.2 Z M 78.1 49.4 L 78.0 45.9 L 77.8 42.4 L 77.5 39.0 L 76.7 32.2 L 76.2 28.9 L 75.8 25.5 L 75.0 22.2 L 76.6 21.5 L 78.5 24.4 L 80.4 27.4 L 82.1 30.5 L 83.7 33.8 L 85.1 37.1 L 86.4 40.6 L 87.5 44.3 L 88.5 48.0 L 89.3 51.8 L 90.1 55.7 L 88.6 60.0 L 84.6 62.2 L 80.2 60.7 L 78.1 56.6 L 78.2 53.0 Z " />
</g>
</svg>
