<svg xmlns="http://www.w3.org/2000/svg" xmlns:xlink="http://www.w3.org/1999/xlink" version="1.1" baseProfile="full" viewBox="0 0 200 200" width="200" height="200">
<g fill="black">
<path d="M 36.0 116.0 L 85.0 116.0 L 91.0 111.0 L 102.0 120.0 L 97.0 124.0 L 97.0 168.0 L 85.0 174.0 L 85.0 168.0 L 36.0 168.0 L 36.0 180.0 L 24.0 186.0 L 24.0 110.0 Z M 158.2 169.2 L 150.0 160.5 L 142.8 150.8 L 141.64069662094116 148.83666362762452 L 136.0 156.8 L 126.3 167.2 L 115.6 176.1 L 103.8 183.3 L 91.1 188.8 L 90.3 187.1 L 101.9 180.0 L 112.3 171.9 L 121.6 162.6 L 129.9 152.2 L 136.98184022903442 140.9466649055481 L 136.6 140.3 L 131.3 128.8 L 127.0 116.4 L 123.7 103.2 L 121.5 89.0 L 120.89994831085205 80.81747674942017 L 117.4 86.6 L 112.5 93.8 L 107.1 100.4 L 105.6 99.5 L 109.2 91.8 L 112.7 84.1 L 116.1 76.2 L 119.2 68.0 L 122.2 59.7 L 124.9 51.0 L 127.3 42.1 L 129.6 33.0 L 131.6 23.5 L 133.12428121566774 14.802630424499512 L 133.1 14.8 L 133.2617977142334 14.017977523803712 L 133.3 13.8 L 133.3066291809082 13.801292133331298 L 133.7 11.9 L 145.1 16.1 L 147.6 18.6 L 144.18754625320435 19.863871765136718 L 142.7 26.0 L 140.0 35.7 L 137.0 45.0 L 133.7 54.0 L 130.80344829559326 61.0 L 165.2 61.0 L 175.2 51.0 L 187.2 61.0 L 187.2 65.0 L 169.88631582260132 65.0 L 167.2 82.6 L 163.2 100.3 L 158.1 116.6 L 151.9 131.4 L 147.4077241897583 139.53466167449952 L 151.1 144.9 L 158.3 153.1 L 166.1 160.4 L 174.6 166.8 L 183.8 172.2 L 188.6 174.8 L 177.4 183.7 L 167.3 177.0 Z M 36.0 120.0 L 36.0 164.0 L 85.0 164.0 L 85.0 120.0 Z M 129.032142829895 65.0 L 126.2 71.1 L 122.98491344451904 77.1474247932434 L 125.6 88.3 L 129.4 101.7 L 133.9 114.0 L 138.9 125.4 L 141.91797456741332 130.70747261047364 L 143.4 127.6 L 148.6 113.3 L 152.8 97.7 L 156.0 80.7 L 157.87717390060425 65.0 Z M 91.1 88.8 L 89.5 90.7 L 87.7 92.3 L 85.7 93.8 L 83.6 94.9 L 81.3 95.8 L 78.9 96.5 L 76.5 96.8 L 74.0 97.0 L 74.0 91.0 L 54.0 88.0 L 54.0 85.0 L 74.0 85.0 L 75.3 84.9 L 76.5 84.7 L 77.6 84.4 L 78.5 84.1 L 80.1 83.1 L 80.8 82.4 L 81.5 81.6 L 82.2 80.5 L 82.9 79.3 L 84.1 76.4 L 85.3 72.8 L 86.3 68.6 L 87.3 63.8 L 88.1 58.4 L 88.7 52.5 L 89.3 45.9 L 89.6 38.8 L 89.9 31.2 L 89.97560977935791 25.0 L 59.70267858505249 25.0 L 58.6 34.5 L 56.6 44.9 L 53.8 54.5 L 50.2 63.3 L 45.9 71.3 L 40.8 78.4 L 35.0 84.5 L 28.4 89.7 L 21.2 93.8 L 13.3 96.8 L 12.6 95.1 L 19.2 90.5 L 25.1 85.5 L 30.2 80.0 L 34.7 73.9 L 38.5 67.1 L 41.7 59.7 L 44.2 51.6 L 46.1 42.7 L 47.4 33.1 L 47.80099010467529 25.0 L 21.0 25.0 L 21.0 21.0 L 90.0 21.0 L 96.0 16.0 L 107.0 25.0 L 102.0 28.0 L 101.94017944335937 28.024925231933594 L 101.9 31.4 L 101.6 39.3 L 101.2 46.7 L 100.7 53.6 L 100.0 60.0 L 99.1 65.8 L 98.0 71.2 L 96.8 76.1 L 95.4 80.5 L 93.7 84.5 L 92.5 86.7 Z " />
</g>
</svg>
