<svg xmlns="http://www.w3.org/2000/svg" xmlns:xlink="http://www.w3.org/1999/xlink" version="1.1" baseProfile="full" viewBox="0 0 200 200" width="200" height="200">
<g fill="black">
<path d="M 100.7 108.6 L 100.7 112.6 L 68.4 112.6 L 68.4 139.0 L 88.7 139.0 L 98.7 129.0 L 110.7 139.0 L 110.7 143.0 L 68.4 143.0 L 68.4 182.6 L 56.4 188.6 L 56.4 143.0 L 15.8 143.0 L 15.8 139.0 L 56.4 139.0 L 56.4 112.6 L 23.4 112.6 L 23.4 108.6 L 78.7 108.6 L 88.7 98.6 Z M 163.1 169.1 L 155.6 160.3 L 149.0 150.7 L 148.32746200561525 149.42698154449462 L 143.6 156.7 L 134.7 167.1 L 124.8 176.0 L 114.0 183.2 L 102.2 188.8 L 101.4 187.1 L 111.9 180.1 L 121.3 172.0 L 129.8 162.8 L 137.3 152.3 L 143.80509929656984 140.86679515838622 L 143.4 140.1 L 138.6 128.7 L 134.7 116.3 L 131.8 103.1 L 129.8 89.0 L 129.341494846344 81.35824737548828 L 126.5 86.5 L 121.9 93.7 L 116.9 100.4 L 115.4 99.5 L 118.6 91.9 L 121.7 84.2 L 124.7 76.3 L 127.6 68.2 L 130.2 59.8 L 132.7 51.2 L 134.9 42.3 L 136.9 33.1 L 138.7 23.6 L 140.13452949523926 14.903165245056153 L 140.1 14.9 L 140.6 12.0 L 152.1 16.0 L 154.7 18.5 L 151.20957279205322 19.83270854949951 L 149.8 25.9 L 147.3 35.6 L 144.6 44.9 L 141.5 53.9 L 138.80689659118653 61.0 L 168.1 61.0 L 178.1 51.0 L 190.1 61.0 L 190.1 65.0 L 174.7868420600891 65.0 L 172.3 82.5 L 168.6 100.2 L 163.9 116.4 L 158.2 131.3 L 154.01604013442994 139.5448621749878 L 157.6 145.1 L 164.1 153.3 L 171.3 160.6 L 179.1 166.9 L 187.5 172.3 L 191.8 174.9 L 180.7 183.6 L 171.4 176.8 Z M 137.15903615951538 65.0 L 134.6 70.9 L 131.4747778892517 77.31071214675903 L 133.9 88.3 L 137.5 101.7 L 141.6 114.1 L 146.3 125.5 L 148.60257816314697 129.97482175827025 L 149.6 127.7 L 154.3 113.4 L 158.2 97.8 L 161.1 80.8 L 162.73152170181274 65.0 Z M 46.4 93.9 L 45.8 91.5 L 45.1 89.2 L 44.3 86.9 L 43.3 84.6 L 42.3 82.2 L 41.1 79.9 L 39.4 77.9 L 40.6 76.5 L 42.8 78.2 L 45.2 79.6 L 47.5 81.4 L 49.6 83.3 L 51.5 85.4 L 53.4 87.7 L 55.0 90.2 L 56.5 92.8 L 57.9 95.6 L 59.1 98.6 L 58.3 103.1 L 54.6 105.8 L 50.1 104.9 L 47.4 101.3 L 47.2 98.7 Z M 96.8 91.4 L 92.6 86.4 L 89.39391994476318 82.15194387435913 L 87.42838706970215 82.49677419662476 L 86.2 84.8 L 82.8 90.6 L 79.2 96.4 L 77.3 99.2 L 73.1 104.8 L 71.1 107.6 L 69.5 106.8 L 70.6 103.5 L 71.3 100.2 L 72.2 96.8 L 74.0 90.4 L 74.8 87.2 L 75.7 84.0 L 76.5 80.9 L 77.3 77.7 L 77.83222799301147 75.63761653900147 L 77.7 75.6 L 78.6 73.3 L 85.6202003479004 76.97412357330322 L 84.7 75.7 L 81.1 69.9 L 77.8 63.9 L 74.7 57.6 L 71.9 51.1 L 69.95142860412598 44.9 L 59.593617057800294 44.9 L 58.7 47.0 L 54.1 56.1 L 48.8 64.8 L 43.0 73.1 L 36.4 81.0 L 29.2 88.5 L 21.4 95.5 L 12.8 102.0 L 11.6 100.7 L 18.7 92.8 L 25.3 84.9 L 31.3 76.9 L 36.7 68.8 L 41.6 60.4 L 45.8 51.9 L 48.66363639831543 44.9 L 14.6 44.9 L 14.6 40.9 L 50.15777778625488 40.9 L 52.5 34.1 L 55.0 24.9 L 56.719540214538576 16.302298831939698 L 56.7 16.3 L 57.2 13.5 L 68.6 17.7 L 71.2 20.2 L 67.62144985198975 21.50129098892212 L 66.0 27.8 L 62.7 37.6 L 61.29574470520019 40.9 L 89.3 40.9 L 99.3 30.9 L 111.3 40.9 L 111.3 44.9 L 72.48620691299439 44.9 L 75.6 49.1 L 79.7 54.6 L 83.8 60.0 L 88.0 65.1 L 92.1 70.0 L 96.4 74.6 L 100.7 78.9 L 105.2 83.0 L 109.7 86.8 L 114.4 90.4 L 116.8 92.4 L 105.9 100.6 L 101.3 96.1 Z " />
</g>
</svg>
